{
  "header": {
    "PPQ": 192,
    "timeSignature": [
      4,
      4
    ],
    "bpm": 120,
    "name": "Cala a Boca e Morre"
  },
  "startTime": 0,
  "duration": 27.190104166666668,
  "tracks": [
    {
      "startTime": 0,
      "duration": 0,
      "length": 0,
      "notes": [],
      "controlChanges": {},
      "id": 0,
      "name": "Cala a Boca e Morre"
    },
    {
      "startTime": 0,
      "duration": 0,
      "length": 0,
      "notes": [],
      "controlChanges": {},
      "id": 1,
      "name": "EVENTS"
    },
    {
      "startTime": 0.5833333333333334,
      "duration": 27.190104166666668,
      "length": 188,
      "notes": [
        {
          "name": "C7",
          "midi": 96,
          "time": 0.5833333333333334,
          "velocity": 0.7874015748031497,
          "duration": 0.16666666666666663
        },
        {
          "name": "C7",
          "midi": 96,
          "time": 1,
          "velocity": 0.7874015748031497,
          "duration": 0.0026041666666667407
        },
        {
          "name": "C#7",
          "midi": 97,
          "time": 1.0833333333333335,
          "velocity": 0.7874015748031497,
          "duration": 0.0026041666666667407
        },
        {
          "name": "D7",
          "midi": 98,
          "time": 1.166666666666667,
          "velocity": 0.7874015748031497,
          "duration": 0.0026041666666667407
        },
        {
          "name": "D7",
          "midi": 98,
          "time": 1.3750000000000004,
          "velocity": 0.7874015748031497,
          "duration": 0.0026041666666667407
        },
        {
          "name": "C#7",
          "midi": 97,
          "time": 1.5000000000000004,
          "velocity": 0.7874015748031497,
          "duration": 0.0026041666666667407
        },
        {
          "name": "C7",
          "midi": 96,
          "time": 1.8750000000000004,
          "velocity": 0.7874015748031497,
          "duration": 0.0026041666666667407
        },
        {
          "name": "C#7",
          "midi": 97,
          "time": 2.0000000000000004,
          "velocity": 0.7874015748031497,
          "duration": 0.0026041666666665186
        },
        {
          "name": "D7",
          "midi": 98,
          "time": 2.1250000000000004,
          "velocity": 0.7874015748031497,
          "duration": 0.0026041666666665186
        },
        {
          "name": "C#7",
          "midi": 97,
          "time": 2.5000000000000004,
          "velocity": 0.7874015748031497,
          "duration": 0.0026041666666665186
        },
        {
          "name": "C7",
          "midi": 96,
          "time": 2.8750000000000004,
          "velocity": 0.7874015748031497,
          "duration": 0.0026041666666665186
        },
        {
          "name": "C#7",
          "midi": 97,
          "time": 3.0000000000000004,
          "velocity": 0.7874015748031497,
          "duration": 0.0026041666666665186
        },
        {
          "name": "D7",
          "midi": 98,
          "time": 3.1250000000000004,
          "velocity": 0.7874015748031497,
          "duration": 0.0026041666666665186
        },
        {
          "name": "C#7",
          "midi": 97,
          "time": 3.5000000000000004,
          "velocity": 0.7874015748031497,
          "duration": 0.0026041666666665186
        },
        {
          "name": "C7",
          "midi": 96,
          "time": 3.8750000000000004,
          "velocity": 0.7874015748031497,
          "duration": 0.0026041666666665186
        },
        {
          "name": "C#7",
          "midi": 97,
          "time": 4,
          "velocity": 0.7874015748031497,
          "duration": 0.0026041666666669627
        },
        {
          "name": "D7",
          "midi": 98,
          "time": 4.125,
          "velocity": 0.7874015748031497,
          "duration": 0.0026041666666669627
        },
        {
          "name": "C#7",
          "midi": 97,
          "time": 4.5,
          "velocity": 0.7874015748031497,
          "duration": 0.0026041666666669627
        },
        {
          "name": "C7",
          "midi": 96,
          "time": 4.875,
          "velocity": 0.7874015748031497,
          "duration": 0.0026041666666669627
        },
        {
          "name": "C#7",
          "midi": 97,
          "time": 5,
          "velocity": 0.7874015748031497,
          "duration": 0.0026041666666669627
        },
        {
          "name": "D7",
          "midi": 98,
          "time": 5.125,
          "velocity": 0.7874015748031497,
          "duration": 0.0026041666666669627
        },
        {
          "name": "C#7",
          "midi": 97,
          "time": 5.5,
          "velocity": 0.7874015748031497,
          "duration": 0.0026041666666669627
        },
        {
          "name": "C7",
          "midi": 96,
          "time": 5.875,
          "velocity": 0.7874015748031497,
          "duration": 0.0026041666666669627
        },
        {
          "name": "C#7",
          "midi": 97,
          "time": 6,
          "velocity": 0.7874015748031497,
          "duration": 0.0026041666666669627
        },
        {
          "name": "D7",
          "midi": 98,
          "time": 6.125,
          "velocity": 0.7874015748031497,
          "duration": 0.0026041666666669627
        },
        {
          "name": "C#7",
          "midi": 97,
          "time": 6.5,
          "velocity": 0.7874015748031497,
          "duration": 0.0026041666666669627
        },
        {
          "name": "C7",
          "midi": 96,
          "time": 6.875,
          "velocity": 0.7874015748031497,
          "duration": 0.0026041666666669627
        },
        {
          "name": "C#7",
          "midi": 97,
          "time": 7,
          "velocity": 0.7874015748031497,
          "duration": 0.0026041666666669627
        },
        {
          "name": "D7",
          "midi": 98,
          "time": 7.125,
          "velocity": 0.7874015748031497,
          "duration": 0.0026041666666669627
        },
        {
          "name": "C#7",
          "midi": 97,
          "time": 7.5,
          "velocity": 0.7874015748031497,
          "duration": 0.0026041666666669627
        },
        {
          "name": "C7",
          "midi": 96,
          "time": 7.875,
          "velocity": 0.7874015748031497,
          "duration": 0.0026041666666669627
        },
        {
          "name": "C#7",
          "midi": 97,
          "time": 8,
          "velocity": 0.7874015748031497,
          "duration": 0.0026041666666660745
        },
        {
          "name": "D7",
          "midi": 98,
          "time": 8.125,
          "velocity": 0.7874015748031497,
          "duration": 0.0026041666666660745
        },
        {
          "name": "C#7",
          "midi": 97,
          "time": 8.5,
          "velocity": 0.7874015748031497,
          "duration": 0.0026041666666660745
        },
        {
          "name": "C7",
          "midi": 96,
          "time": 8.75,
          "velocity": 0.7874015748031497,
          "duration": 0.0026041666666660745
        },
        {
          "name": "C#7",
          "midi": 97,
          "time": 8.916666666666666,
          "velocity": 0.7874015748031497,
          "duration": 0.0026041666666660745
        },
        {
          "name": "D7",
          "midi": 98,
          "time": 9.124999999999998,
          "velocity": 0.7874015748031497,
          "duration": 0.0026041666666660745
        },
        {
          "name": "C7",
          "midi": 96,
          "time": 9.499999999999998,
          "velocity": 0.7874015748031497,
          "duration": 0.0026041666666660745
        },
        {
          "name": "C#7",
          "midi": 97,
          "time": 9.624999999999998,
          "velocity": 0.7874015748031497,
          "duration": 0.0026041666666660745
        },
        {
          "name": "D7",
          "midi": 98,
          "time": 9.749999999999998,
          "velocity": 0.7874015748031497,
          "duration": 0.0026041666666660745
        },
        {
          "name": "C#7",
          "midi": 97,
          "time": 9.874999999999998,
          "velocity": 0.7874015748031497,
          "duration": 0.0026041666666660745
        },
        {
          "name": "C7",
          "midi": 96,
          "time": 9.999999999999998,
          "velocity": 0.7874015748031497,
          "duration": 0.0026041666666660745
        },
        {
          "name": "C#7",
          "midi": 97,
          "time": 10.124999999999998,
          "velocity": 0.7874015748031497,
          "duration": 0.0026041666666660745
        },
        {
          "name": "D7",
          "midi": 98,
          "time": 10.249999999999998,
          "velocity": 0.7874015748031497,
          "duration": 0.0026041666666660745
        },
        {
          "name": "C#7",
          "midi": 97,
          "time": 10.374999999999998,
          "velocity": 0.7874015748031497,
          "duration": 0.0026041666666660745
        },
        {
          "name": "C7",
          "midi": 96,
          "time": 10.499999999999998,
          "velocity": 0.7874015748031497,
          "duration": 0.0026041666666660745
        },
        {
          "name": "C#7",
          "midi": 97,
          "time": 10.624999999999998,
          "velocity": 0.7874015748031497,
          "duration": 0.0026041666666660745
        },
        {
          "name": "D7",
          "midi": 98,
          "time": 10.749999999999998,
          "velocity": 0.7874015748031497,
          "duration": 0.0026041666666660745
        },
        {
          "name": "C#7",
          "midi": 97,
          "time": 10.874999999999998,
          "velocity": 0.7874015748031497,
          "duration": 0.0026041666666660745
        },
        {
          "name": "C7",
          "midi": 96,
          "time": 10.999999999999998,
          "velocity": 0.7874015748031497,
          "duration": 0.0026041666666660745
        },
        {
          "name": "C#7",
          "midi": 97,
          "time": 11.124999999999998,
          "velocity": 0.7874015748031497,
          "duration": 0.0026041666666660745
        },
        {
          "name": "D7",
          "midi": 98,
          "time": 11.249999999999998,
          "velocity": 0.7874015748031497,
          "duration": 0.0026041666666660745
        },
        {
          "name": "C#7",
          "midi": 97,
          "time": 11.374999999999998,
          "velocity": 0.7874015748031497,
          "duration": 0.0026041666666660745
        },
        {
          "name": "C7",
          "midi": 96,
          "time": 11.499999999999998,
          "velocity": 0.7874015748031497,
          "duration": 0.0026041666666660745
        },
        {
          "name": "C#7",
          "midi": 97,
          "time": 11.624999999999998,
          "velocity": 0.7874015748031497,
          "duration": 0.0026041666666660745
        },
        {
          "name": "D7",
          "midi": 98,
          "time": 11.749999999999998,
          "velocity": 0.7874015748031497,
          "duration": 0.0026041666666660745
        },
        {
          "name": "C#7",
          "midi": 97,
          "time": 11.874999999999998,
          "velocity": 0.7874015748031497,
          "duration": 0.0026041666666660745
        },
        {
          "name": "C7",
          "midi": 96,
          "time": 11.999999999999998,
          "velocity": 0.7874015748031497,
          "duration": 0.0026041666666660745
        },
        {
          "name": "C#7",
          "midi": 97,
          "time": 12.124999999999998,
          "velocity": 0.7874015748031497,
          "duration": 0.0026041666666660745
        },
        {
          "name": "D7",
          "midi": 98,
          "time": 12.249999999999998,
          "velocity": 0.7874015748031497,
          "duration": 0.0026041666666660745
        },
        {
          "name": "C#7",
          "midi": 97,
          "time": 12.374999999999998,
          "velocity": 0.7874015748031497,
          "duration": 0.0026041666666660745
        },
        {
          "name": "C7",
          "midi": 96,
          "time": 12.499999999999998,
          "velocity": 0.7874015748031497,
          "duration": 0.0026041666666660745
        },
        {
          "name": "C#7",
          "midi": 97,
          "time": 12.624999999999998,
          "velocity": 0.7874015748031497,
          "duration": 0.0026041666666660745
        },
        {
          "name": "D7",
          "midi": 98,
          "time": 12.749999999999998,
          "velocity": 0.7874015748031497,
          "duration": 0.0026041666666660745
        },
        {
          "name": "C#7",
          "midi": 97,
          "time": 12.874999999999998,
          "velocity": 0.7874015748031497,
          "duration": 0.0026041666666660745
        },
        {
          "name": "C7",
          "midi": 96,
          "time": 12.999999999999998,
          "velocity": 0.7874015748031497,
          "duration": 0.0026041666666660745
        },
        {
          "name": "C#7",
          "midi": 97,
          "time": 13.124999999999998,
          "velocity": 0.7874015748031497,
          "duration": 0.0026041666666660745
        },
        {
          "name": "D7",
          "midi": 98,
          "time": 13.249999999999998,
          "velocity": 0.7874015748031497,
          "duration": 0.0026041666666660745
        },
        {
          "name": "C#7",
          "midi": 97,
          "time": 13.374999999999998,
          "velocity": 0.7874015748031497,
          "duration": 0.0026041666666660745
        },
        {
          "name": "C7",
          "midi": 96,
          "time": 13.499999999999998,
          "velocity": 0.7874015748031497,
          "duration": 0.0026041666666660745
        },
        {
          "name": "C7",
          "midi": 96,
          "time": 13.916666666666664,
          "velocity": 0.7874015748031497,
          "duration": 0.08333333333333393
        },
        {
          "name": "D7",
          "midi": 98,
          "time": 14.249999999999998,
          "velocity": 0.7874015748031497,
          "duration": 0.0026041666666660745
        },
        {
          "name": "C#7",
          "midi": 97,
          "time": 14.374999999999998,
          "velocity": 0.7874015748031497,
          "duration": 0.0026041666666660745
        },
        {
          "name": "C7",
          "midi": 96,
          "time": 14.499999999999998,
          "velocity": 0.7874015748031497,
          "duration": 0.0026041666666660745
        },
        {
          "name": "C#7",
          "midi": 97,
          "time": 14.624999999999998,
          "velocity": 0.7874015748031497,
          "duration": 0.0026041666666660745
        },
        {
          "name": "D7",
          "midi": 98,
          "time": 14.749999999999998,
          "velocity": 0.7874015748031497,
          "duration": 0.0026041666666660745
        },
        {
          "name": "C#7",
          "midi": 97,
          "time": 14.874999999999998,
          "velocity": 0.7874015748031497,
          "duration": 0.0026041666666660745
        },
        {
          "name": "C7",
          "midi": 96,
          "time": 14.999999999999998,
          "velocity": 0.7874015748031497,
          "duration": 0.0026041666666660745
        },
        {
          "name": "C#7",
          "midi": 97,
          "time": 15.124999999999998,
          "velocity": 0.7874015748031497,
          "duration": 0.0026041666666660745
        },
        {
          "name": "D7",
          "midi": 98,
          "time": 15.249999999999998,
          "velocity": 0.7874015748031497,
          "duration": 0.0026041666666660745
        },
        {
          "name": "C#7",
          "midi": 97,
          "time": 15.374999999999998,
          "velocity": 0.7874015748031497,
          "duration": 0.0026041666666660745
        },
        {
          "name": "C7",
          "midi": 96,
          "time": 15.499999999999998,
          "velocity": 0.7874015748031497,
          "duration": 0.0026041666666660745
        },
        {
          "name": "C#7",
          "midi": 97,
          "time": 15.624999999999998,
          "velocity": 0.7874015748031497,
          "duration": 0.0026041666666660745
        },
        {
          "name": "D7",
          "midi": 98,
          "time": 15.749999999999998,
          "velocity": 0.7874015748031497,
          "duration": 0.0026041666666660745
        },
        {
          "name": "C#7",
          "midi": 97,
          "time": 15.874999999999998,
          "velocity": 0.7874015748031497,
          "duration": 0.0026041666666660745
        },
        {
          "name": "C7",
          "midi": 96,
          "time": 15.999999999999998,
          "velocity": 0.7874015748031497,
          "duration": 0.0026041666666660745
        },
        {
          "name": "C#7",
          "midi": 97,
          "time": 16.124999999999996,
          "velocity": 0.7874015748031497,
          "duration": 0.002604166666667851
        },
        {
          "name": "D7",
          "midi": 98,
          "time": 16.249999999999996,
          "velocity": 0.7874015748031497,
          "duration": 0.002604166666667851
        },
        {
          "name": "C#7",
          "midi": 97,
          "time": 16.374999999999996,
          "velocity": 0.7874015748031497,
          "duration": 0.002604166666667851
        },
        {
          "name": "C7",
          "midi": 96,
          "time": 16.499999999999996,
          "velocity": 0.7874015748031497,
          "duration": 0.002604166666667851
        },
        {
          "name": "D7",
          "midi": 98,
          "time": 16.624999999999996,
          "velocity": 0.7874015748031497,
          "duration": 0.002604166666667851
        },
        {
          "name": "C#7",
          "midi": 97,
          "time": 16.749999999999996,
          "velocity": 0.7874015748031497,
          "duration": 0.002604166666667851
        },
        {
          "name": "C7",
          "midi": 96,
          "time": 16.874999999999996,
          "velocity": 0.7874015748031497,
          "duration": 0.002604166666667851
        },
        {
          "name": "C#7",
          "midi": 97,
          "time": 16.999999999999996,
          "velocity": 0.7874015748031497,
          "duration": 0.002604166666667851
        },
        {
          "name": "D7",
          "midi": 98,
          "time": 17.124999999999996,
          "velocity": 0.7874015748031497,
          "duration": 0.002604166666667851
        },
        {
          "name": "C#7",
          "midi": 97,
          "time": 17.249999999999996,
          "velocity": 0.7874015748031497,
          "duration": 0.002604166666667851
        },
        {
          "name": "C7",
          "midi": 96,
          "time": 17.374999999999996,
          "velocity": 0.7874015748031497,
          "duration": 0.002604166666667851
        },
        {
          "name": "C#7",
          "midi": 97,
          "time": 17.499999999999996,
          "velocity": 0.7874015748031497,
          "duration": 0.002604166666667851
        },
        {
          "name": "D7",
          "midi": 98,
          "time": 17.624999999999996,
          "velocity": 0.7874015748031497,
          "duration": 0.002604166666667851
        },
        {
          "name": "C#7",
          "midi": 97,
          "time": 17.749999999999996,
          "velocity": 0.7874015748031497,
          "duration": 0.002604166666667851
        },
        {
          "name": "C7",
          "midi": 96,
          "time": 17.874999999999996,
          "velocity": 0.7874015748031497,
          "duration": 0.002604166666667851
        },
        {
          "name": "C#7",
          "midi": 97,
          "time": 17.999999999999996,
          "velocity": 0.7874015748031497,
          "duration": 0.002604166666667851
        },
        {
          "name": "D7",
          "midi": 98,
          "time": 18.124999999999996,
          "velocity": 0.7874015748031497,
          "duration": 0.002604166666667851
        },
        {
          "name": "C#7",
          "midi": 97,
          "time": 18.249999999999996,
          "velocity": 0.7874015748031497,
          "duration": 0.002604166666667851
        },
        {
          "name": "C7",
          "midi": 96,
          "time": 18.499999999999996,
          "velocity": 0.7874015748031497,
          "duration": 0.002604166666667851
        },
        {
          "name": "D7",
          "midi": 98,
          "time": 18.499999999999996,
          "velocity": 0.7874015748031497,
          "duration": 0.002604166666667851
        },
        {
          "name": "C7",
          "midi": 96,
          "time": 18.624999999999996,
          "velocity": 0.7874015748031497,
          "duration": 0.002604166666667851
        },
        {
          "name": "D7",
          "midi": 98,
          "time": 18.624999999999996,
          "velocity": 0.7874015748031497,
          "duration": 0.002604166666667851
        },
        {
          "name": "C7",
          "midi": 96,
          "time": 18.749999999999996,
          "velocity": 0.7874015748031497,
          "duration": 0.002604166666667851
        },
        {
          "name": "D7",
          "midi": 98,
          "time": 18.749999999999996,
          "velocity": 0.7874015748031497,
          "duration": 0.002604166666667851
        },
        {
          "name": "C7",
          "midi": 96,
          "time": 18.874999999999996,
          "velocity": 0.7874015748031497,
          "duration": 0.002604166666667851
        },
        {
          "name": "D7",
          "midi": 98,
          "time": 18.874999999999996,
          "velocity": 0.7874015748031497,
          "duration": 0.002604166666667851
        },
        {
          "name": "C7",
          "midi": 96,
          "time": 18.999999999999996,
          "velocity": 0.7874015748031497,
          "duration": 0.002604166666667851
        },
        {
          "name": "D7",
          "midi": 98,
          "time": 18.999999999999996,
          "velocity": 0.7874015748031497,
          "duration": 0.002604166666667851
        },
        {
          "name": "C7",
          "midi": 96,
          "time": 19.124999999999996,
          "velocity": 0.7874015748031497,
          "duration": 0.002604166666667851
        },
        {
          "name": "D7",
          "midi": 98,
          "time": 19.124999999999996,
          "velocity": 0.7874015748031497,
          "duration": 0.002604166666667851
        },
        {
          "name": "C7",
          "midi": 96,
          "time": 19.249999999999996,
          "velocity": 0.7874015748031497,
          "duration": 0.002604166666667851
        },
        {
          "name": "D7",
          "midi": 98,
          "time": 19.249999999999996,
          "velocity": 0.7874015748031497,
          "duration": 0.002604166666667851
        },
        {
          "name": "C7",
          "midi": 96,
          "time": 19.374999999999996,
          "velocity": 0.7874015748031497,
          "duration": 0.002604166666667851
        },
        {
          "name": "D7",
          "midi": 98,
          "time": 19.374999999999996,
          "velocity": 0.7874015748031497,
          "duration": 0.002604166666667851
        },
        {
          "name": "C7",
          "midi": 96,
          "time": 19.499999999999996,
          "velocity": 0.7874015748031497,
          "duration": 0.002604166666667851
        },
        {
          "name": "D7",
          "midi": 98,
          "time": 19.499999999999996,
          "velocity": 0.7874015748031497,
          "duration": 0.002604166666667851
        },
        {
          "name": "C7",
          "midi": 96,
          "time": 19.624999999999996,
          "velocity": 0.7874015748031497,
          "duration": 0.002604166666667851
        },
        {
          "name": "D7",
          "midi": 98,
          "time": 19.624999999999996,
          "velocity": 0.7874015748031497,
          "duration": 0.002604166666667851
        },
        {
          "name": "C#7",
          "midi": 97,
          "time": 19.749999999999996,
          "velocity": 0.7874015748031497,
          "duration": 0.002604166666667851
        },
        {
          "name": "C7",
          "midi": 96,
          "time": 19.874999999999996,
          "velocity": 0.7874015748031497,
          "duration": 0.002604166666667851
        },
        {
          "name": "D7",
          "midi": 98,
          "time": 19.874999999999996,
          "velocity": 0.7874015748031497,
          "duration": 0.002604166666667851
        },
        {
          "name": "C7",
          "midi": 96,
          "time": 19.999999999999996,
          "velocity": 0.7874015748031497,
          "duration": 0.002604166666667851
        },
        {
          "name": "D7",
          "midi": 98,
          "time": 19.999999999999996,
          "velocity": 0.7874015748031497,
          "duration": 0.002604166666667851
        },
        {
          "name": "C7",
          "midi": 96,
          "time": 20.124999999999996,
          "velocity": 0.7874015748031497,
          "duration": 0.002604166666667851
        },
        {
          "name": "D7",
          "midi": 98,
          "time": 20.124999999999996,
          "velocity": 0.7874015748031497,
          "duration": 0.002604166666667851
        },
        {
          "name": "C7",
          "midi": 96,
          "time": 20.249999999999996,
          "velocity": 0.7874015748031497,
          "duration": 0.002604166666667851
        },
        {
          "name": "D7",
          "midi": 98,
          "time": 20.249999999999996,
          "velocity": 0.7874015748031497,
          "duration": 0.002604166666667851
        },
        {
          "name": "C7",
          "midi": 96,
          "time": 20.374999999999996,
          "velocity": 0.7874015748031497,
          "duration": 0.002604166666667851
        },
        {
          "name": "D7",
          "midi": 98,
          "time": 20.374999999999996,
          "velocity": 0.7874015748031497,
          "duration": 0.002604166666667851
        },
        {
          "name": "C7",
          "midi": 96,
          "time": 20.499999999999996,
          "velocity": 0.7874015748031497,
          "duration": 0.002604166666667851
        },
        {
          "name": "D7",
          "midi": 98,
          "time": 20.499999999999996,
          "velocity": 0.7874015748031497,
          "duration": 0.002604166666667851
        },
        {
          "name": "C7",
          "midi": 96,
          "time": 20.624999999999996,
          "velocity": 0.7874015748031497,
          "duration": 0.002604166666667851
        },
        {
          "name": "D7",
          "midi": 98,
          "time": 20.624999999999996,
          "velocity": 0.7874015748031497,
          "duration": 0.002604166666667851
        },
        {
          "name": "C7",
          "midi": 96,
          "time": 20.749999999999996,
          "velocity": 0.7874015748031497,
          "duration": 0.002604166666667851
        },
        {
          "name": "D7",
          "midi": 98,
          "time": 20.749999999999996,
          "velocity": 0.7874015748031497,
          "duration": 0.002604166666667851
        },
        {
          "name": "C7",
          "midi": 96,
          "time": 20.874999999999996,
          "velocity": 0.7874015748031497,
          "duration": 0.002604166666667851
        },
        {
          "name": "D7",
          "midi": 98,
          "time": 20.874999999999996,
          "velocity": 0.7874015748031497,
          "duration": 0.002604166666667851
        },
        {
          "name": "C#7",
          "midi": 97,
          "time": 20.999999999999996,
          "velocity": 0.7874015748031497,
          "duration": 0.002604166666667851
        },
        {
          "name": "C7",
          "midi": 96,
          "time": 21.124999999999996,
          "velocity": 0.7874015748031497,
          "duration": 0.002604166666667851
        },
        {
          "name": "D7",
          "midi": 98,
          "time": 21.124999999999996,
          "velocity": 0.7874015748031497,
          "duration": 0.002604166666667851
        },
        {
          "name": "C7",
          "midi": 96,
          "time": 21.249999999999996,
          "velocity": 0.7874015748031497,
          "duration": 0.002604166666667851
        },
        {
          "name": "D7",
          "midi": 98,
          "time": 21.249999999999996,
          "velocity": 0.7874015748031497,
          "duration": 0.002604166666667851
        },
        {
          "name": "C7",
          "midi": 96,
          "time": 21.374999999999996,
          "velocity": 0.7874015748031497,
          "duration": 0.002604166666667851
        },
        {
          "name": "D7",
          "midi": 98,
          "time": 21.374999999999996,
          "velocity": 0.7874015748031497,
          "duration": 0.002604166666667851
        },
        {
          "name": "C7",
          "midi": 96,
          "time": 21.499999999999996,
          "velocity": 0.7874015748031497,
          "duration": 0.002604166666667851
        },
        {
          "name": "D7",
          "midi": 98,
          "time": 21.499999999999996,
          "velocity": 0.7874015748031497,
          "duration": 0.002604166666667851
        },
        {
          "name": "C7",
          "midi": 96,
          "time": 21.624999999999996,
          "velocity": 0.7874015748031497,
          "duration": 0.002604166666667851
        },
        {
          "name": "D7",
          "midi": 98,
          "time": 21.624999999999996,
          "velocity": 0.7874015748031497,
          "duration": 0.002604166666667851
        },
        {
          "name": "C7",
          "midi": 96,
          "time": 21.749999999999996,
          "velocity": 0.7874015748031497,
          "duration": 0.002604166666667851
        },
        {
          "name": "D7",
          "midi": 98,
          "time": 21.749999999999996,
          "velocity": 0.7874015748031497,
          "duration": 0.002604166666667851
        },
        {
          "name": "C7",
          "midi": 96,
          "time": 21.874999999999996,
          "velocity": 0.7874015748031497,
          "duration": 0.002604166666667851
        },
        {
          "name": "D7",
          "midi": 98,
          "time": 21.874999999999996,
          "velocity": 0.7874015748031497,
          "duration": 0.002604166666667851
        },
        {
          "name": "C7",
          "midi": 96,
          "time": 21.999999999999996,
          "velocity": 0.7874015748031497,
          "duration": 0.002604166666667851
        },
        {
          "name": "D7",
          "midi": 98,
          "time": 21.999999999999996,
          "velocity": 0.7874015748031497,
          "duration": 0.002604166666667851
        },
        {
          "name": "C7",
          "midi": 96,
          "time": 22.124999999999996,
          "velocity": 0.7874015748031497,
          "duration": 0.002604166666667851
        },
        {
          "name": "D7",
          "midi": 98,
          "time": 22.124999999999996,
          "velocity": 0.7874015748031497,
          "duration": 0.002604166666667851
        },
        {
          "name": "C#7",
          "midi": 97,
          "time": 22.249999999999996,
          "velocity": 0.7874015748031497,
          "duration": 0.002604166666667851
        },
        {
          "name": "C7",
          "midi": 96,
          "time": 22.374999999999996,
          "velocity": 0.7874015748031497,
          "duration": 0.002604166666667851
        },
        {
          "name": "D7",
          "midi": 98,
          "time": 22.374999999999996,
          "velocity": 0.7874015748031497,
          "duration": 0.002604166666667851
        },
        {
          "name": "C7",
          "midi": 96,
          "time": 22.499999999999996,
          "velocity": 0.7874015748031497,
          "duration": 0.002604166666667851
        },
        {
          "name": "D7",
          "midi": 98,
          "time": 22.499999999999996,
          "velocity": 0.7874015748031497,
          "duration": 0.002604166666667851
        },
        {
          "name": "C7",
          "midi": 96,
          "time": 22.624999999999996,
          "velocity": 0.7874015748031497,
          "duration": 0.002604166666667851
        },
        {
          "name": "D7",
          "midi": 98,
          "time": 22.624999999999996,
          "velocity": 0.7874015748031497,
          "duration": 0.002604166666667851
        },
        {
          "name": "C7",
          "midi": 96,
          "time": 22.749999999999996,
          "velocity": 0.7874015748031497,
          "duration": 0.002604166666667851
        },
        {
          "name": "D7",
          "midi": 98,
          "time": 22.749999999999996,
          "velocity": 0.7874015748031497,
          "duration": 0.002604166666667851
        },
        {
          "name": "C#7",
          "midi": 97,
          "time": 22.874999999999996,
          "velocity": 0.7874015748031497,
          "duration": 0.002604166666667851
        },
        {
          "name": "D7",
          "midi": 98,
          "time": 23.874999999999996,
          "velocity": 0.7874015748031497,
          "duration": 0.002604166666667851
        },
        {
          "name": "C#7",
          "midi": 97,
          "time": 24.124999999999996,
          "velocity": 0.7874015748031497,
          "duration": 0.002604166666667851
        },
        {
          "name": "C7",
          "midi": 96,
          "time": 24.374999999999996,
          "velocity": 0.7874015748031497,
          "duration": 0.002604166666667851
        },
        {
          "name": "C#7",
          "midi": 97,
          "time": 24.624999999999996,
          "velocity": 0.7874015748031497,
          "duration": 0.002604166666667851
        },
        {
          "name": "D7",
          "midi": 98,
          "time": 24.874999999999996,
          "velocity": 0.7874015748031497,
          "duration": 0.002604166666667851
        },
        {
          "name": "C7",
          "midi": 96,
          "time": 25.124999999999996,
          "velocity": 0.7874015748031497,
          "duration": 0.002604166666667851
        },
        {
          "name": "C#7",
          "midi": 97,
          "time": 25.374999999999996,
          "velocity": 0.7874015748031497,
          "duration": 0.002604166666667851
        },
        {
          "name": "C7",
          "midi": 96,
          "time": 25.624999999999996,
          "velocity": 0.7874015748031497,
          "duration": 0.002604166666667851
        },
        {
          "name": "D7",
          "midi": 98,
          "time": 25.916666666666664,
          "velocity": 0.7874015748031497,
          "duration": 0.002604166666667851
        },
        {
          "name": "C#7",
          "midi": 97,
          "time": 26.25,
          "velocity": 0.7874015748031497,
          "duration": 0.002604166666667851
        },
        {
          "name": "C7",
          "midi": 96,
          "time": 26.375,
          "velocity": 0.7874015748031497,
          "duration": 0.002604166666667851
        },
        {
          "name": "C#7",
          "midi": 97,
          "time": 26.5,
          "velocity": 0.7874015748031497,
          "duration": 0.002604166666667851
        },
        {
          "name": "D7",
          "midi": 98,
          "time": 26.75,
          "velocity": 0.7874015748031497,
          "duration": 0.002604166666667851
        },
        {
          "name": "C7",
          "midi": 96,
          "time": 27,
          "velocity": 0.7874015748031497,
          "duration": 0.002604166666667851
        },
        {
          "name": "C#7",
          "midi": 97,
          "time": 27.125,
          "velocity": 0.7874015748031497,
          "duration": 0.002604166666667851
        },
        {
          "name": "D7",
          "midi": 98,
          "time": 27.1875,
          "velocity": 0.7874015748031497,
          "duration": 0.002604166666667851
        }
      ],
      "controlChanges": {},
      "id": 2,
      "name": "PART GUITAR",
      "channelNumber": 1,
      "isPercussion": false
    }
  ]
}
