{
  "header": {
    "PPQ": 480,
    "bpm": 140.00014000014,
    "timeSignature": [
      4,
      4
    ],
    "name": "TEMPO TRACK"
  },
  "startTime": 0,
  "duration": 520.3923367499868,
  "tracks": [
    {
      "startTime": 0,
      "duration": 0,
      "length": 0,
      "notes": [],
      "controlChanges": {},
      "id": 0,
      "name": "TEMPO TRACK"
    },
    {
      "startTime": 3.4285680000000003,
      "duration": 493.82093474999385,
      "length": 5355,
      "notes": [
        {
          "name": "E4",
          "midi": 64,
          "time": 3.4285680000000003,
          "velocity": 0.7559055118110236,
          "duration": 0.10714274999999995
        },
        {
          "name": "E5",
          "midi": 76,
          "time": 3.4285680000000003,
          "velocity": 0.7559055118110236,
          "duration": 0.10714274999999995
        },
        {
          "name": "E6",
          "midi": 88,
          "time": 3.4285680000000003,
          "velocity": 0.7559055118110236,
          "duration": 0.10714274999999995
        },
        {
          "name": "D7",
          "midi": 98,
          "time": 3.4285680000000003,
          "velocity": 0.7559055118110236,
          "duration": 0.10714274999999995
        },
        {
          "name": "D#7",
          "midi": 99,
          "time": 3.4285680000000003,
          "velocity": 0.7559055118110236,
          "duration": 0.10714274999999995
        },
        {
          "name": "D8",
          "midi": 110,
          "time": 3.4285680000000003,
          "velocity": 0.7559055118110236,
          "duration": 0.10714274999999995
        },
        {
          "name": "D#8",
          "midi": 111,
          "time": 3.4285680000000003,
          "velocity": 0.7559055118110236,
          "duration": 0.10714274999999995
        },
        {
          "name": "C#1",
          "midi": 25,
          "time": 3.4285680000000003,
          "velocity": 0.7874015748031497,
          "duration": 0.026785687499999877
        },
        {
          "name": "C#3",
          "midi": 49,
          "time": 3.4285680000000003,
          "velocity": 0.7874015748031497,
          "duration": 0.026785687499999877
        },
        {
          "name": "A#2",
          "midi": 46,
          "time": 3.4285680000000003,
          "velocity": 0.7874015748031497,
          "duration": 0.026785687499999877
        },
        {
          "name": "E4",
          "midi": 64,
          "time": 6.857136000000001,
          "velocity": 0.7559055118110236,
          "duration": 0.1071427500000004
        },
        {
          "name": "E5",
          "midi": 76,
          "time": 6.857136000000001,
          "velocity": 0.7559055118110236,
          "duration": 0.1071427500000004
        },
        {
          "name": "E6",
          "midi": 88,
          "time": 6.857136000000001,
          "velocity": 0.7559055118110236,
          "duration": 0.1071427500000004
        },
        {
          "name": "D7",
          "midi": 98,
          "time": 6.857136000000001,
          "velocity": 0.7559055118110236,
          "duration": 0.1071427500000004
        },
        {
          "name": "D#7",
          "midi": 99,
          "time": 6.857136000000001,
          "velocity": 0.7559055118110236,
          "duration": 0.1071427500000004
        },
        {
          "name": "D8",
          "midi": 110,
          "time": 6.857136000000001,
          "velocity": 0.7559055118110236,
          "duration": 0.1071427500000004
        },
        {
          "name": "D#8",
          "midi": 111,
          "time": 6.857136000000001,
          "velocity": 0.7559055118110236,
          "duration": 0.1071427500000004
        },
        {
          "name": "C#3",
          "midi": 49,
          "time": 6.857136000000001,
          "velocity": 0.7874015748031497,
          "duration": 0.02678568750000032
        },
        {
          "name": "A#2",
          "midi": 46,
          "time": 6.857136000000001,
          "velocity": 0.7874015748031497,
          "duration": 0.02678568750000032
        },
        {
          "name": "E4",
          "midi": 64,
          "time": 10.285704,
          "velocity": 0.7559055118110236,
          "duration": 0.10714274999999951
        },
        {
          "name": "E5",
          "midi": 76,
          "time": 10.285704,
          "velocity": 0.7559055118110236,
          "duration": 0.10714274999999951
        },
        {
          "name": "E6",
          "midi": 88,
          "time": 10.285704,
          "velocity": 0.7559055118110236,
          "duration": 0.10714274999999951
        },
        {
          "name": "D7",
          "midi": 98,
          "time": 10.285704,
          "velocity": 0.7559055118110236,
          "duration": 0.10714274999999951
        },
        {
          "name": "D#7",
          "midi": 99,
          "time": 10.285704,
          "velocity": 0.7559055118110236,
          "duration": 0.10714274999999951
        },
        {
          "name": "D8",
          "midi": 110,
          "time": 10.285704,
          "velocity": 0.7559055118110236,
          "duration": 0.10714274999999951
        },
        {
          "name": "D#8",
          "midi": 111,
          "time": 10.285704,
          "velocity": 0.7559055118110236,
          "duration": 0.10714274999999951
        },
        {
          "name": "C#3",
          "midi": 49,
          "time": 10.285704,
          "velocity": 0.7874015748031497,
          "duration": 0.02678568750000032
        },
        {
          "name": "A#2",
          "midi": 46,
          "time": 10.285704,
          "velocity": 0.7874015748031497,
          "duration": 0.02678568750000032
        },
        {
          "name": "C4",
          "midi": 60,
          "time": 13.714272000000001,
          "velocity": 0.7559055118110236,
          "duration": 0.10714274999999951
        },
        {
          "name": "E4",
          "midi": 64,
          "time": 13.714272000000001,
          "velocity": 0.7559055118110236,
          "duration": 0.10714274999999951
        },
        {
          "name": "C5",
          "midi": 72,
          "time": 13.714272000000001,
          "velocity": 0.7559055118110236,
          "duration": 0.10714274999999951
        },
        {
          "name": "E5",
          "midi": 76,
          "time": 13.714272000000001,
          "velocity": 0.7559055118110236,
          "duration": 0.10714274999999951
        },
        {
          "name": "C6",
          "midi": 84,
          "time": 13.714272000000001,
          "velocity": 0.7559055118110236,
          "duration": 0.10714274999999951
        },
        {
          "name": "E6",
          "midi": 88,
          "time": 13.714272000000001,
          "velocity": 0.7559055118110236,
          "duration": 0.10714274999999951
        },
        {
          "name": "C7",
          "midi": 96,
          "time": 13.714272000000001,
          "velocity": 0.7559055118110236,
          "duration": 0.10714274999999951
        },
        {
          "name": "D7",
          "midi": 98,
          "time": 13.714272000000001,
          "velocity": 0.7559055118110236,
          "duration": 0.10714274999999951
        },
        {
          "name": "D#7",
          "midi": 99,
          "time": 13.714272000000001,
          "velocity": 0.7559055118110236,
          "duration": 0.10714274999999951
        },
        {
          "name": "D8",
          "midi": 110,
          "time": 13.714272000000001,
          "velocity": 0.7559055118110236,
          "duration": 0.10714274999999951
        },
        {
          "name": "D#8",
          "midi": 111,
          "time": 13.714272000000001,
          "velocity": 0.7559055118110236,
          "duration": 0.10714274999999951
        },
        {
          "name": "C1",
          "midi": 24,
          "time": 13.714272000000001,
          "velocity": 0.7874015748031497,
          "duration": 0.02678568750000032
        },
        {
          "name": "C#3",
          "midi": 49,
          "time": 13.714272000000001,
          "velocity": 0.7874015748031497,
          "duration": 0.02678568750000032
        },
        {
          "name": "A#2",
          "midi": 46,
          "time": 13.714272000000001,
          "velocity": 0.7874015748031497,
          "duration": 0.02678568750000032
        },
        {
          "name": "E4",
          "midi": 64,
          "time": 14.142843000000001,
          "velocity": 0.7559055118110236,
          "duration": 0.10714274999999951
        },
        {
          "name": "E5",
          "midi": 76,
          "time": 14.142843000000001,
          "velocity": 0.7559055118110236,
          "duration": 0.10714274999999951
        },
        {
          "name": "E6",
          "midi": 88,
          "time": 14.142843000000001,
          "velocity": 0.7559055118110236,
          "duration": 0.10714274999999951
        },
        {
          "name": "E7",
          "midi": 100,
          "time": 14.142843000000001,
          "velocity": 0.7559055118110236,
          "duration": 0.10714274999999951
        },
        {
          "name": "E8",
          "midi": 112,
          "time": 14.142843000000001,
          "velocity": 0.7559055118110236,
          "duration": 0.10714274999999951
        },
        {
          "name": "C2",
          "midi": 36,
          "time": 14.142843000000001,
          "velocity": 0.7874015748031497,
          "duration": 0.02678568750000032
        },
        {
          "name": "C4",
          "midi": 60,
          "time": 14.464271250000001,
          "velocity": 0.7559055118110236,
          "duration": 0.10714274999999951
        },
        {
          "name": "C5",
          "midi": 72,
          "time": 14.464271250000001,
          "velocity": 0.7559055118110236,
          "duration": 0.10714274999999951
        },
        {
          "name": "C6",
          "midi": 84,
          "time": 14.464271250000001,
          "velocity": 0.7559055118110236,
          "duration": 0.10714274999999951
        },
        {
          "name": "C7",
          "midi": 96,
          "time": 14.464271250000001,
          "velocity": 0.7559055118110236,
          "duration": 0.10714274999999951
        },
        {
          "name": "C4",
          "midi": 60,
          "time": 14.892842250000001,
          "velocity": 0.7559055118110236,
          "duration": 0.10714274999999951
        },
        {
          "name": "C5",
          "midi": 72,
          "time": 14.892842250000001,
          "velocity": 0.7559055118110236,
          "duration": 0.10714274999999951
        },
        {
          "name": "C6",
          "midi": 84,
          "time": 14.892842250000001,
          "velocity": 0.7559055118110236,
          "duration": 0.10714274999999951
        },
        {
          "name": "C7",
          "midi": 96,
          "time": 14.892842250000001,
          "velocity": 0.7559055118110236,
          "duration": 0.10714274999999951
        },
        {
          "name": "E4",
          "midi": 64,
          "time": 15.32141325,
          "velocity": 0.7559055118110236,
          "duration": 0.10714274999999951
        },
        {
          "name": "E5",
          "midi": 76,
          "time": 15.32141325,
          "velocity": 0.7559055118110236,
          "duration": 0.10714274999999951
        },
        {
          "name": "E6",
          "midi": 88,
          "time": 15.32141325,
          "velocity": 0.7559055118110236,
          "duration": 0.10714274999999951
        },
        {
          "name": "E7",
          "midi": 100,
          "time": 15.32141325,
          "velocity": 0.7559055118110236,
          "duration": 0.10714274999999951
        },
        {
          "name": "E8",
          "midi": 112,
          "time": 15.32141325,
          "velocity": 0.7559055118110236,
          "duration": 0.10714274999999951
        },
        {
          "name": "C1",
          "midi": 24,
          "time": 15.32141325,
          "velocity": 0.7874015748031497,
          "duration": 0.02678568750000032
        },
        {
          "name": "A#1",
          "midi": 34,
          "time": 15.32141325,
          "velocity": 0.7874015748031497,
          "duration": 0.02678568750000032
        },
        {
          "name": "C4",
          "midi": 60,
          "time": 15.53569875,
          "velocity": 0.7559055118110236,
          "duration": 0.10714274999999951
        },
        {
          "name": "C5",
          "midi": 72,
          "time": 15.53569875,
          "velocity": 0.7559055118110236,
          "duration": 0.10714274999999951
        },
        {
          "name": "C6",
          "midi": 84,
          "time": 15.53569875,
          "velocity": 0.7559055118110236,
          "duration": 0.10714274999999951
        },
        {
          "name": "C7",
          "midi": 96,
          "time": 15.53569875,
          "velocity": 0.7559055118110236,
          "duration": 0.10714274999999951
        },
        {
          "name": "E4",
          "midi": 64,
          "time": 15.857127,
          "velocity": 0.7559055118110236,
          "duration": 0.10714274999999951
        },
        {
          "name": "E5",
          "midi": 76,
          "time": 15.857127,
          "velocity": 0.7559055118110236,
          "duration": 0.10714274999999951
        },
        {
          "name": "E6",
          "midi": 88,
          "time": 15.857127,
          "velocity": 0.7559055118110236,
          "duration": 0.10714274999999951
        },
        {
          "name": "E7",
          "midi": 100,
          "time": 15.857127,
          "velocity": 0.7559055118110236,
          "duration": 0.10714274999999951
        },
        {
          "name": "E8",
          "midi": 112,
          "time": 15.857127,
          "velocity": 0.7559055118110236,
          "duration": 0.10714274999999951
        },
        {
          "name": "C1",
          "midi": 24,
          "time": 15.857127,
          "velocity": 0.7874015748031497,
          "duration": 0.02678568750000032
        },
        {
          "name": "C2",
          "midi": 36,
          "time": 15.857127,
          "velocity": 0.7874015748031497,
          "duration": 0.02678568750000032
        },
        {
          "name": "C4",
          "midi": 60,
          "time": 16.0714125,
          "velocity": 0.7559055118110236,
          "duration": 0.10714275000000129
        },
        {
          "name": "C5",
          "midi": 72,
          "time": 16.0714125,
          "velocity": 0.7559055118110236,
          "duration": 0.10714275000000129
        },
        {
          "name": "C6",
          "midi": 84,
          "time": 16.0714125,
          "velocity": 0.7559055118110236,
          "duration": 0.10714275000000129
        },
        {
          "name": "C7",
          "midi": 96,
          "time": 16.0714125,
          "velocity": 0.7559055118110236,
          "duration": 0.10714275000000129
        },
        {
          "name": "C4",
          "midi": 60,
          "time": 16.607126250000004,
          "velocity": 0.7559055118110236,
          "duration": 0.10714275000000129
        },
        {
          "name": "C5",
          "midi": 72,
          "time": 16.607126250000004,
          "velocity": 0.7559055118110236,
          "duration": 0.10714275000000129
        },
        {
          "name": "C6",
          "midi": 84,
          "time": 16.607126250000004,
          "velocity": 0.7559055118110236,
          "duration": 0.10714275000000129
        },
        {
          "name": "C7",
          "midi": 96,
          "time": 16.607126250000004,
          "velocity": 0.7559055118110236,
          "duration": 0.10714275000000129
        },
        {
          "name": "E4",
          "midi": 64,
          "time": 16.928554500000004,
          "velocity": 0.7559055118110236,
          "duration": 0.10714274999999773
        },
        {
          "name": "E5",
          "midi": 76,
          "time": 16.928554500000004,
          "velocity": 0.7559055118110236,
          "duration": 0.10714274999999773
        },
        {
          "name": "E6",
          "midi": 88,
          "time": 16.928554500000004,
          "velocity": 0.7559055118110236,
          "duration": 0.10714274999999773
        },
        {
          "name": "E7",
          "midi": 100,
          "time": 16.928554500000004,
          "velocity": 0.7559055118110236,
          "duration": 0.10714274999999773
        },
        {
          "name": "E8",
          "midi": 112,
          "time": 16.928554500000004,
          "velocity": 0.7559055118110236,
          "duration": 0.10714274999999773
        },
        {
          "name": "C1",
          "midi": 24,
          "time": 16.928554500000004,
          "velocity": 0.7874015748031497,
          "duration": 0.026785687499998545
        },
        {
          "name": "A#1",
          "midi": 34,
          "time": 16.928554500000004,
          "velocity": 0.7874015748031497,
          "duration": 0.026785687499998545
        },
        {
          "name": "C4",
          "midi": 60,
          "time": 17.142840000000003,
          "velocity": 0.7559055118110236,
          "duration": 0.10714274999999773
        },
        {
          "name": "E4",
          "midi": 64,
          "time": 17.142840000000003,
          "velocity": 0.7559055118110236,
          "duration": 0.10714274999999773
        },
        {
          "name": "C5",
          "midi": 72,
          "time": 17.142840000000003,
          "velocity": 0.7559055118110236,
          "duration": 0.10714274999999773
        },
        {
          "name": "E5",
          "midi": 76,
          "time": 17.142840000000003,
          "velocity": 0.7559055118110236,
          "duration": 0.10714274999999773
        },
        {
          "name": "C6",
          "midi": 84,
          "time": 17.142840000000003,
          "velocity": 0.7559055118110236,
          "duration": 0.10714274999999773
        },
        {
          "name": "E6",
          "midi": 88,
          "time": 17.142840000000003,
          "velocity": 0.7559055118110236,
          "duration": 0.10714274999999773
        },
        {
          "name": "C7",
          "midi": 96,
          "time": 17.142840000000003,
          "velocity": 0.7559055118110236,
          "duration": 0.10714274999999773
        },
        {
          "name": "D7",
          "midi": 98,
          "time": 17.142840000000003,
          "velocity": 0.7559055118110236,
          "duration": 0.10714274999999773
        },
        {
          "name": "D#7",
          "midi": 99,
          "time": 17.142840000000003,
          "velocity": 0.7559055118110236,
          "duration": 0.10714274999999773
        },
        {
          "name": "D8",
          "midi": 110,
          "time": 17.142840000000003,
          "velocity": 0.7559055118110236,
          "duration": 0.10714274999999773
        },
        {
          "name": "D#8",
          "midi": 111,
          "time": 17.142840000000003,
          "velocity": 0.7559055118110236,
          "duration": 0.10714274999999773
        },
        {
          "name": "C1",
          "midi": 24,
          "time": 17.142840000000003,
          "velocity": 0.7874015748031497,
          "duration": 0.026785687499998545
        },
        {
          "name": "C#3",
          "midi": 49,
          "time": 17.142840000000003,
          "velocity": 0.7874015748031497,
          "duration": 0.026785687499998545
        },
        {
          "name": "A#2",
          "midi": 46,
          "time": 17.142840000000003,
          "velocity": 0.7874015748031497,
          "duration": 0.026785687499998545
        },
        {
          "name": "E4",
          "midi": 64,
          "time": 17.571411,
          "velocity": 0.7559055118110236,
          "duration": 0.10714274999999773
        },
        {
          "name": "E5",
          "midi": 76,
          "time": 17.571411,
          "velocity": 0.7559055118110236,
          "duration": 0.10714274999999773
        },
        {
          "name": "E6",
          "midi": 88,
          "time": 17.571411,
          "velocity": 0.7559055118110236,
          "duration": 0.10714274999999773
        },
        {
          "name": "E7",
          "midi": 100,
          "time": 17.571411,
          "velocity": 0.7559055118110236,
          "duration": 0.10714274999999773
        },
        {
          "name": "E8",
          "midi": 112,
          "time": 17.571411,
          "velocity": 0.7559055118110236,
          "duration": 0.10714274999999773
        },
        {
          "name": "C2",
          "midi": 36,
          "time": 17.571411,
          "velocity": 0.7874015748031497,
          "duration": 0.026785687499998545
        },
        {
          "name": "C4",
          "midi": 60,
          "time": 17.892839249999998,
          "velocity": 0.7559055118110236,
          "duration": 0.10714275000000129
        },
        {
          "name": "C5",
          "midi": 72,
          "time": 17.892839249999998,
          "velocity": 0.7559055118110236,
          "duration": 0.10714275000000129
        },
        {
          "name": "C6",
          "midi": 84,
          "time": 17.892839249999998,
          "velocity": 0.7559055118110236,
          "duration": 0.10714275000000129
        },
        {
          "name": "C7",
          "midi": 96,
          "time": 17.892839249999998,
          "velocity": 0.7559055118110236,
          "duration": 0.10714275000000129
        },
        {
          "name": "C4",
          "midi": 60,
          "time": 18.32141025,
          "velocity": 0.7559055118110236,
          "duration": 0.10714275000000129
        },
        {
          "name": "C5",
          "midi": 72,
          "time": 18.32141025,
          "velocity": 0.7559055118110236,
          "duration": 0.10714275000000129
        },
        {
          "name": "C6",
          "midi": 84,
          "time": 18.32141025,
          "velocity": 0.7559055118110236,
          "duration": 0.10714275000000129
        },
        {
          "name": "C7",
          "midi": 96,
          "time": 18.32141025,
          "velocity": 0.7559055118110236,
          "duration": 0.10714275000000129
        },
        {
          "name": "E4",
          "midi": 64,
          "time": 18.74998125,
          "velocity": 0.7559055118110236,
          "duration": 0.10714274999999773
        },
        {
          "name": "E5",
          "midi": 76,
          "time": 18.74998125,
          "velocity": 0.7559055118110236,
          "duration": 0.10714274999999773
        },
        {
          "name": "E6",
          "midi": 88,
          "time": 18.74998125,
          "velocity": 0.7559055118110236,
          "duration": 0.10714274999999773
        },
        {
          "name": "E7",
          "midi": 100,
          "time": 18.74998125,
          "velocity": 0.7559055118110236,
          "duration": 0.10714274999999773
        },
        {
          "name": "E8",
          "midi": 112,
          "time": 18.74998125,
          "velocity": 0.7559055118110236,
          "duration": 0.10714274999999773
        },
        {
          "name": "C1",
          "midi": 24,
          "time": 18.74998125,
          "velocity": 0.7874015748031497,
          "duration": 0.026785687499998545
        },
        {
          "name": "A#1",
          "midi": 34,
          "time": 18.74998125,
          "velocity": 0.7874015748031497,
          "duration": 0.026785687499998545
        },
        {
          "name": "C4",
          "midi": 60,
          "time": 18.96426675,
          "velocity": 0.7559055118110236,
          "duration": 0.10714275000000129
        },
        {
          "name": "C5",
          "midi": 72,
          "time": 18.96426675,
          "velocity": 0.7559055118110236,
          "duration": 0.10714275000000129
        },
        {
          "name": "C6",
          "midi": 84,
          "time": 18.96426675,
          "velocity": 0.7559055118110236,
          "duration": 0.10714275000000129
        },
        {
          "name": "C7",
          "midi": 96,
          "time": 18.96426675,
          "velocity": 0.7559055118110236,
          "duration": 0.10714275000000129
        },
        {
          "name": "E4",
          "midi": 64,
          "time": 19.285695,
          "velocity": 0.7559055118110236,
          "duration": 0.10714274999999773
        },
        {
          "name": "E5",
          "midi": 76,
          "time": 19.285695,
          "velocity": 0.7559055118110236,
          "duration": 0.10714274999999773
        },
        {
          "name": "E6",
          "midi": 88,
          "time": 19.285695,
          "velocity": 0.7559055118110236,
          "duration": 0.10714274999999773
        },
        {
          "name": "E7",
          "midi": 100,
          "time": 19.285695,
          "velocity": 0.7559055118110236,
          "duration": 0.10714274999999773
        },
        {
          "name": "E8",
          "midi": 112,
          "time": 19.285695,
          "velocity": 0.7559055118110236,
          "duration": 0.10714274999999773
        },
        {
          "name": "C1",
          "midi": 24,
          "time": 19.285695,
          "velocity": 0.7874015748031497,
          "duration": 0.026785687499998545
        },
        {
          "name": "C2",
          "midi": 36,
          "time": 19.285695,
          "velocity": 0.7874015748031497,
          "duration": 0.026785687499998545
        },
        {
          "name": "C4",
          "midi": 60,
          "time": 19.4999805,
          "velocity": 0.7559055118110236,
          "duration": 0.10714275000000129
        },
        {
          "name": "C5",
          "midi": 72,
          "time": 19.4999805,
          "velocity": 0.7559055118110236,
          "duration": 0.10714275000000129
        },
        {
          "name": "C6",
          "midi": 84,
          "time": 19.4999805,
          "velocity": 0.7559055118110236,
          "duration": 0.10714275000000129
        },
        {
          "name": "C7",
          "midi": 96,
          "time": 19.4999805,
          "velocity": 0.7559055118110236,
          "duration": 0.10714275000000129
        },
        {
          "name": "C4",
          "midi": 60,
          "time": 20.571408,
          "velocity": 0.7559055118110236,
          "duration": 0.10714274999999773
        },
        {
          "name": "E4",
          "midi": 64,
          "time": 20.571408,
          "velocity": 0.7559055118110236,
          "duration": 0.10714274999999773
        },
        {
          "name": "C5",
          "midi": 72,
          "time": 20.571408,
          "velocity": 0.7559055118110236,
          "duration": 0.10714274999999773
        },
        {
          "name": "E5",
          "midi": 76,
          "time": 20.571408,
          "velocity": 0.7559055118110236,
          "duration": 0.10714274999999773
        },
        {
          "name": "C6",
          "midi": 84,
          "time": 20.571408,
          "velocity": 0.7559055118110236,
          "duration": 0.10714274999999773
        },
        {
          "name": "E6",
          "midi": 88,
          "time": 20.571408,
          "velocity": 0.7559055118110236,
          "duration": 0.10714274999999773
        },
        {
          "name": "C7",
          "midi": 96,
          "time": 20.571408,
          "velocity": 0.7559055118110236,
          "duration": 0.10714274999999773
        },
        {
          "name": "D7",
          "midi": 98,
          "time": 20.571408,
          "velocity": 0.7559055118110236,
          "duration": 0.10714274999999773
        },
        {
          "name": "D#7",
          "midi": 99,
          "time": 20.571408,
          "velocity": 0.7559055118110236,
          "duration": 0.10714274999999773
        },
        {
          "name": "D8",
          "midi": 110,
          "time": 20.571408,
          "velocity": 0.7559055118110236,
          "duration": 0.10714274999999773
        },
        {
          "name": "D#8",
          "midi": 111,
          "time": 20.571408,
          "velocity": 0.7559055118110236,
          "duration": 0.10714274999999773
        },
        {
          "name": "C1",
          "midi": 24,
          "time": 20.571408,
          "velocity": 0.7874015748031497,
          "duration": 0.026785687499998545
        },
        {
          "name": "C#3",
          "midi": 49,
          "time": 20.571408,
          "velocity": 0.7874015748031497,
          "duration": 0.026785687499998545
        },
        {
          "name": "A#2",
          "midi": 46,
          "time": 20.571408,
          "velocity": 0.7874015748031497,
          "duration": 0.026785687499998545
        },
        {
          "name": "E4",
          "midi": 64,
          "time": 20.999979,
          "velocity": 0.7559055118110236,
          "duration": 0.10714274999999773
        },
        {
          "name": "E5",
          "midi": 76,
          "time": 20.999979,
          "velocity": 0.7559055118110236,
          "duration": 0.10714274999999773
        },
        {
          "name": "E6",
          "midi": 88,
          "time": 20.999979,
          "velocity": 0.7559055118110236,
          "duration": 0.10714274999999773
        },
        {
          "name": "E7",
          "midi": 100,
          "time": 20.999979,
          "velocity": 0.7559055118110236,
          "duration": 0.10714274999999773
        },
        {
          "name": "E8",
          "midi": 112,
          "time": 20.999979,
          "velocity": 0.7559055118110236,
          "duration": 0.10714274999999773
        },
        {
          "name": "C2",
          "midi": 36,
          "time": 20.999979,
          "velocity": 0.7874015748031497,
          "duration": 0.026785687499998545
        },
        {
          "name": "C4",
          "midi": 60,
          "time": 21.321407249999996,
          "velocity": 0.7559055118110236,
          "duration": 0.10714275000000129
        },
        {
          "name": "C5",
          "midi": 72,
          "time": 21.321407249999996,
          "velocity": 0.7559055118110236,
          "duration": 0.10714275000000129
        },
        {
          "name": "C6",
          "midi": 84,
          "time": 21.321407249999996,
          "velocity": 0.7559055118110236,
          "duration": 0.10714275000000129
        },
        {
          "name": "C7",
          "midi": 96,
          "time": 21.321407249999996,
          "velocity": 0.7559055118110236,
          "duration": 0.10714275000000129
        },
        {
          "name": "C4",
          "midi": 60,
          "time": 21.749978249999998,
          "velocity": 0.7559055118110236,
          "duration": 0.10714275000000129
        },
        {
          "name": "C5",
          "midi": 72,
          "time": 21.749978249999998,
          "velocity": 0.7559055118110236,
          "duration": 0.10714275000000129
        },
        {
          "name": "C6",
          "midi": 84,
          "time": 21.749978249999998,
          "velocity": 0.7559055118110236,
          "duration": 0.10714275000000129
        },
        {
          "name": "C7",
          "midi": 96,
          "time": 21.749978249999998,
          "velocity": 0.7559055118110236,
          "duration": 0.10714275000000129
        },
        {
          "name": "E4",
          "midi": 64,
          "time": 22.17854925,
          "velocity": 0.7559055118110236,
          "duration": 0.10714274999999773
        },
        {
          "name": "E5",
          "midi": 76,
          "time": 22.17854925,
          "velocity": 0.7559055118110236,
          "duration": 0.10714274999999773
        },
        {
          "name": "E6",
          "midi": 88,
          "time": 22.17854925,
          "velocity": 0.7559055118110236,
          "duration": 0.10714274999999773
        },
        {
          "name": "E7",
          "midi": 100,
          "time": 22.17854925,
          "velocity": 0.7559055118110236,
          "duration": 0.10714274999999773
        },
        {
          "name": "E8",
          "midi": 112,
          "time": 22.17854925,
          "velocity": 0.7559055118110236,
          "duration": 0.10714274999999773
        },
        {
          "name": "C1",
          "midi": 24,
          "time": 22.17854925,
          "velocity": 0.7874015748031497,
          "duration": 0.026785687499998545
        },
        {
          "name": "A#1",
          "midi": 34,
          "time": 22.17854925,
          "velocity": 0.7874015748031497,
          "duration": 0.026785687499998545
        },
        {
          "name": "C4",
          "midi": 60,
          "time": 22.39283475,
          "velocity": 0.7559055118110236,
          "duration": 0.10714275000000129
        },
        {
          "name": "C5",
          "midi": 72,
          "time": 22.39283475,
          "velocity": 0.7559055118110236,
          "duration": 0.10714275000000129
        },
        {
          "name": "C6",
          "midi": 84,
          "time": 22.39283475,
          "velocity": 0.7559055118110236,
          "duration": 0.10714275000000129
        },
        {
          "name": "C7",
          "midi": 96,
          "time": 22.39283475,
          "velocity": 0.7559055118110236,
          "duration": 0.10714275000000129
        },
        {
          "name": "E4",
          "midi": 64,
          "time": 22.714263,
          "velocity": 0.7559055118110236,
          "duration": 0.10714274999999773
        },
        {
          "name": "E5",
          "midi": 76,
          "time": 22.714263,
          "velocity": 0.7559055118110236,
          "duration": 0.10714274999999773
        },
        {
          "name": "E6",
          "midi": 88,
          "time": 22.714263,
          "velocity": 0.7559055118110236,
          "duration": 0.10714274999999773
        },
        {
          "name": "E7",
          "midi": 100,
          "time": 22.714263,
          "velocity": 0.7559055118110236,
          "duration": 0.10714274999999773
        },
        {
          "name": "E8",
          "midi": 112,
          "time": 22.714263,
          "velocity": 0.7559055118110236,
          "duration": 0.10714274999999773
        },
        {
          "name": "C1",
          "midi": 24,
          "time": 22.714263,
          "velocity": 0.7874015748031497,
          "duration": 0.026785687499998545
        },
        {
          "name": "C2",
          "midi": 36,
          "time": 22.714263,
          "velocity": 0.7874015748031497,
          "duration": 0.026785687499998545
        },
        {
          "name": "C4",
          "midi": 60,
          "time": 22.928548499999998,
          "velocity": 0.7559055118110236,
          "duration": 0.10714275000000129
        },
        {
          "name": "C5",
          "midi": 72,
          "time": 22.928548499999998,
          "velocity": 0.7559055118110236,
          "duration": 0.10714275000000129
        },
        {
          "name": "C6",
          "midi": 84,
          "time": 22.928548499999998,
          "velocity": 0.7559055118110236,
          "duration": 0.10714275000000129
        },
        {
          "name": "C7",
          "midi": 96,
          "time": 22.928548499999998,
          "velocity": 0.7559055118110236,
          "duration": 0.10714275000000129
        },
        {
          "name": "C4",
          "midi": 60,
          "time": 23.999976,
          "velocity": 0.7559055118110236,
          "duration": 0.10714274999999773
        },
        {
          "name": "E4",
          "midi": 64,
          "time": 23.999976,
          "velocity": 0.7559055118110236,
          "duration": 0.10714274999999773
        },
        {
          "name": "C5",
          "midi": 72,
          "time": 23.999976,
          "velocity": 0.7559055118110236,
          "duration": 0.10714274999999773
        },
        {
          "name": "E5",
          "midi": 76,
          "time": 23.999976,
          "velocity": 0.7559055118110236,
          "duration": 0.10714274999999773
        },
        {
          "name": "C6",
          "midi": 84,
          "time": 23.999976,
          "velocity": 0.7559055118110236,
          "duration": 0.10714274999999773
        },
        {
          "name": "E6",
          "midi": 88,
          "time": 23.999976,
          "velocity": 0.7559055118110236,
          "duration": 0.10714274999999773
        },
        {
          "name": "C7",
          "midi": 96,
          "time": 23.999976,
          "velocity": 0.7559055118110236,
          "duration": 0.10714274999999773
        },
        {
          "name": "D7",
          "midi": 98,
          "time": 23.999976,
          "velocity": 0.7559055118110236,
          "duration": 0.10714274999999773
        },
        {
          "name": "D#7",
          "midi": 99,
          "time": 23.999976,
          "velocity": 0.7559055118110236,
          "duration": 0.10714274999999773
        },
        {
          "name": "D8",
          "midi": 110,
          "time": 23.999976,
          "velocity": 0.7559055118110236,
          "duration": 0.10714274999999773
        },
        {
          "name": "D#8",
          "midi": 111,
          "time": 23.999976,
          "velocity": 0.7559055118110236,
          "duration": 0.10714274999999773
        },
        {
          "name": "C1",
          "midi": 24,
          "time": 23.999976,
          "velocity": 0.7874015748031497,
          "duration": 0.026785687499998545
        },
        {
          "name": "C#3",
          "midi": 49,
          "time": 23.999976,
          "velocity": 0.7874015748031497,
          "duration": 0.026785687499998545
        },
        {
          "name": "A#2",
          "midi": 46,
          "time": 23.999976,
          "velocity": 0.7874015748031497,
          "duration": 0.026785687499998545
        },
        {
          "name": "E4",
          "midi": 64,
          "time": 24.428547,
          "velocity": 0.7559055118110236,
          "duration": 0.10714274999999773
        },
        {
          "name": "E5",
          "midi": 76,
          "time": 24.428547,
          "velocity": 0.7559055118110236,
          "duration": 0.10714274999999773
        },
        {
          "name": "E6",
          "midi": 88,
          "time": 24.428547,
          "velocity": 0.7559055118110236,
          "duration": 0.10714274999999773
        },
        {
          "name": "E7",
          "midi": 100,
          "time": 24.428547,
          "velocity": 0.7559055118110236,
          "duration": 0.10714274999999773
        },
        {
          "name": "E8",
          "midi": 112,
          "time": 24.428547,
          "velocity": 0.7559055118110236,
          "duration": 0.10714274999999773
        },
        {
          "name": "C2",
          "midi": 36,
          "time": 24.428547,
          "velocity": 0.7874015748031497,
          "duration": 0.026785687499998545
        },
        {
          "name": "C4",
          "midi": 60,
          "time": 24.749975249999995,
          "velocity": 0.7559055118110236,
          "duration": 0.10714275000000129
        },
        {
          "name": "C5",
          "midi": 72,
          "time": 24.749975249999995,
          "velocity": 0.7559055118110236,
          "duration": 0.10714275000000129
        },
        {
          "name": "C6",
          "midi": 84,
          "time": 24.749975249999995,
          "velocity": 0.7559055118110236,
          "duration": 0.10714275000000129
        },
        {
          "name": "C7",
          "midi": 96,
          "time": 24.749975249999995,
          "velocity": 0.7559055118110236,
          "duration": 0.10714275000000129
        },
        {
          "name": "C4",
          "midi": 60,
          "time": 25.178546249999997,
          "velocity": 0.7559055118110236,
          "duration": 0.10714275000000129
        },
        {
          "name": "C5",
          "midi": 72,
          "time": 25.178546249999997,
          "velocity": 0.7559055118110236,
          "duration": 0.10714275000000129
        },
        {
          "name": "C6",
          "midi": 84,
          "time": 25.178546249999997,
          "velocity": 0.7559055118110236,
          "duration": 0.10714275000000129
        },
        {
          "name": "C7",
          "midi": 96,
          "time": 25.178546249999997,
          "velocity": 0.7559055118110236,
          "duration": 0.10714275000000129
        },
        {
          "name": "E4",
          "midi": 64,
          "time": 25.607117249999998,
          "velocity": 0.7559055118110236,
          "duration": 0.10714274999999773
        },
        {
          "name": "E5",
          "midi": 76,
          "time": 25.607117249999998,
          "velocity": 0.7559055118110236,
          "duration": 0.10714274999999773
        },
        {
          "name": "E6",
          "midi": 88,
          "time": 25.607117249999998,
          "velocity": 0.7559055118110236,
          "duration": 0.10714274999999773
        },
        {
          "name": "E7",
          "midi": 100,
          "time": 25.607117249999998,
          "velocity": 0.7559055118110236,
          "duration": 0.10714274999999773
        },
        {
          "name": "E8",
          "midi": 112,
          "time": 25.607117249999998,
          "velocity": 0.7559055118110236,
          "duration": 0.10714274999999773
        },
        {
          "name": "C1",
          "midi": 24,
          "time": 25.607117249999998,
          "velocity": 0.7874015748031497,
          "duration": 0.026785687499998545
        },
        {
          "name": "A#1",
          "midi": 34,
          "time": 25.607117249999998,
          "velocity": 0.7874015748031497,
          "duration": 0.026785687499998545
        },
        {
          "name": "C4",
          "midi": 60,
          "time": 25.714259999999996,
          "velocity": 0.7559055118110236,
          "duration": 0.10714275000000129
        },
        {
          "name": "C5",
          "midi": 72,
          "time": 25.714259999999996,
          "velocity": 0.7559055118110236,
          "duration": 0.10714275000000129
        },
        {
          "name": "C6",
          "midi": 84,
          "time": 25.714259999999996,
          "velocity": 0.7559055118110236,
          "duration": 0.10714275000000129
        },
        {
          "name": "C7",
          "midi": 96,
          "time": 25.714259999999996,
          "velocity": 0.7559055118110236,
          "duration": 0.10714275000000129
        },
        {
          "name": "C4",
          "midi": 60,
          "time": 25.821402749999997,
          "velocity": 0.7559055118110236,
          "duration": 0.10714275000000129
        },
        {
          "name": "C5",
          "midi": 72,
          "time": 25.821402749999997,
          "velocity": 0.7559055118110236,
          "duration": 0.10714275000000129
        },
        {
          "name": "C6",
          "midi": 84,
          "time": 25.821402749999997,
          "velocity": 0.7559055118110236,
          "duration": 0.10714275000000129
        },
        {
          "name": "C7",
          "midi": 96,
          "time": 25.821402749999997,
          "velocity": 0.7559055118110236,
          "duration": 0.10714275000000129
        },
        {
          "name": "C4",
          "midi": 60,
          "time": 27.428544,
          "velocity": 0.7559055118110236,
          "duration": 0.10714275000000129
        },
        {
          "name": "D4",
          "midi": 62,
          "time": 27.428544,
          "velocity": 0.7559055118110236,
          "duration": 0.10714275000000129
        },
        {
          "name": "E4",
          "midi": 64,
          "time": 27.428544,
          "velocity": 0.7559055118110236,
          "duration": 0.10714275000000129
        },
        {
          "name": "C5",
          "midi": 72,
          "time": 27.428544,
          "velocity": 0.7559055118110236,
          "duration": 0.10714275000000129
        },
        {
          "name": "D5",
          "midi": 74,
          "time": 27.428544,
          "velocity": 0.7559055118110236,
          "duration": 0.10714275000000129
        },
        {
          "name": "E5",
          "midi": 76,
          "time": 27.428544,
          "velocity": 0.7559055118110236,
          "duration": 0.10714275000000129
        },
        {
          "name": "C6",
          "midi": 84,
          "time": 27.428544,
          "velocity": 0.7559055118110236,
          "duration": 0.10714275000000129
        },
        {
          "name": "D6",
          "midi": 86,
          "time": 27.428544,
          "velocity": 0.7559055118110236,
          "duration": 0.10714275000000129
        },
        {
          "name": "E6",
          "midi": 88,
          "time": 27.428544,
          "velocity": 0.7559055118110236,
          "duration": 0.10714275000000129
        },
        {
          "name": "C7",
          "midi": 96,
          "time": 27.428544,
          "velocity": 0.7559055118110236,
          "duration": 0.10714275000000129
        },
        {
          "name": "E4",
          "midi": 64,
          "time": 27.857115,
          "velocity": 0.7559055118110236,
          "duration": 0.10714274999999773
        },
        {
          "name": "E5",
          "midi": 76,
          "time": 27.857115,
          "velocity": 0.7559055118110236,
          "duration": 0.10714274999999773
        },
        {
          "name": "E6",
          "midi": 88,
          "time": 27.857115,
          "velocity": 0.7559055118110236,
          "duration": 0.10714274999999773
        },
        {
          "name": "E7",
          "midi": 100,
          "time": 27.857115,
          "velocity": 0.7559055118110236,
          "duration": 0.10714274999999773
        },
        {
          "name": "E8",
          "midi": 112,
          "time": 27.857115,
          "velocity": 0.7559055118110236,
          "duration": 0.10714274999999773
        },
        {
          "name": "C1",
          "midi": 24,
          "time": 27.857115,
          "velocity": 0.7874015748031497,
          "duration": 0.026785687499998545
        },
        {
          "name": "C2",
          "midi": 36,
          "time": 27.857115,
          "velocity": 0.7874015748031497,
          "duration": 0.026785687499998545
        },
        {
          "name": "C4",
          "midi": 60,
          "time": 28.178543249999997,
          "velocity": 0.7559055118110236,
          "duration": 0.10714275000000129
        },
        {
          "name": "C5",
          "midi": 72,
          "time": 28.178543249999997,
          "velocity": 0.7559055118110236,
          "duration": 0.10714275000000129
        },
        {
          "name": "C6",
          "midi": 84,
          "time": 28.178543249999997,
          "velocity": 0.7559055118110236,
          "duration": 0.10714275000000129
        },
        {
          "name": "C7",
          "midi": 96,
          "time": 28.178543249999997,
          "velocity": 0.7559055118110236,
          "duration": 0.10714275000000129
        },
        {
          "name": "C4",
          "midi": 60,
          "time": 28.60711425,
          "velocity": 0.7559055118110236,
          "duration": 0.10714275000000129
        },
        {
          "name": "C5",
          "midi": 72,
          "time": 28.60711425,
          "velocity": 0.7559055118110236,
          "duration": 0.10714275000000129
        },
        {
          "name": "C6",
          "midi": 84,
          "time": 28.60711425,
          "velocity": 0.7559055118110236,
          "duration": 0.10714275000000129
        },
        {
          "name": "C7",
          "midi": 96,
          "time": 28.60711425,
          "velocity": 0.7559055118110236,
          "duration": 0.10714275000000129
        },
        {
          "name": "E4",
          "midi": 64,
          "time": 29.03568525,
          "velocity": 0.7559055118110236,
          "duration": 0.10714274999999773
        },
        {
          "name": "E5",
          "midi": 76,
          "time": 29.03568525,
          "velocity": 0.7559055118110236,
          "duration": 0.10714274999999773
        },
        {
          "name": "E6",
          "midi": 88,
          "time": 29.03568525,
          "velocity": 0.7559055118110236,
          "duration": 0.10714274999999773
        },
        {
          "name": "E7",
          "midi": 100,
          "time": 29.03568525,
          "velocity": 0.7559055118110236,
          "duration": 0.10714274999999773
        },
        {
          "name": "E8",
          "midi": 112,
          "time": 29.03568525,
          "velocity": 0.7559055118110236,
          "duration": 0.10714274999999773
        },
        {
          "name": "C1",
          "midi": 24,
          "time": 29.03568525,
          "velocity": 0.7874015748031497,
          "duration": 0.026785687499998545
        },
        {
          "name": "A#1",
          "midi": 34,
          "time": 29.03568525,
          "velocity": 0.7874015748031497,
          "duration": 0.026785687499998545
        },
        {
          "name": "C4",
          "midi": 60,
          "time": 29.24997075,
          "velocity": 0.7559055118110236,
          "duration": 0.10714275000000129
        },
        {
          "name": "C5",
          "midi": 72,
          "time": 29.24997075,
          "velocity": 0.7559055118110236,
          "duration": 0.10714275000000129
        },
        {
          "name": "C6",
          "midi": 84,
          "time": 29.24997075,
          "velocity": 0.7559055118110236,
          "duration": 0.10714275000000129
        },
        {
          "name": "C7",
          "midi": 96,
          "time": 29.24997075,
          "velocity": 0.7559055118110236,
          "duration": 0.10714275000000129
        },
        {
          "name": "E4",
          "midi": 64,
          "time": 29.571399,
          "velocity": 0.7559055118110236,
          "duration": 0.10714274999999773
        },
        {
          "name": "E5",
          "midi": 76,
          "time": 29.571399,
          "velocity": 0.7559055118110236,
          "duration": 0.10714274999999773
        },
        {
          "name": "E6",
          "midi": 88,
          "time": 29.571399,
          "velocity": 0.7559055118110236,
          "duration": 0.10714274999999773
        },
        {
          "name": "E7",
          "midi": 100,
          "time": 29.571399,
          "velocity": 0.7559055118110236,
          "duration": 0.10714274999999773
        },
        {
          "name": "E8",
          "midi": 112,
          "time": 29.571399,
          "velocity": 0.7559055118110236,
          "duration": 0.10714274999999773
        },
        {
          "name": "C1",
          "midi": 24,
          "time": 29.571399,
          "velocity": 0.7874015748031497,
          "duration": 0.026785687499998545
        },
        {
          "name": "C2",
          "midi": 36,
          "time": 29.571399,
          "velocity": 0.7874015748031497,
          "duration": 0.026785687499998545
        },
        {
          "name": "C4",
          "midi": 60,
          "time": 29.7856845,
          "velocity": 0.7559055118110236,
          "duration": 0.10714275000000129
        },
        {
          "name": "C5",
          "midi": 72,
          "time": 29.7856845,
          "velocity": 0.7559055118110236,
          "duration": 0.10714275000000129
        },
        {
          "name": "C6",
          "midi": 84,
          "time": 29.7856845,
          "velocity": 0.7559055118110236,
          "duration": 0.10714275000000129
        },
        {
          "name": "C7",
          "midi": 96,
          "time": 29.7856845,
          "velocity": 0.7559055118110236,
          "duration": 0.10714275000000129
        },
        {
          "name": "C4",
          "midi": 60,
          "time": 30.32139825,
          "velocity": 0.7559055118110236,
          "duration": 0.10714275000000129
        },
        {
          "name": "C5",
          "midi": 72,
          "time": 30.32139825,
          "velocity": 0.7559055118110236,
          "duration": 0.10714275000000129
        },
        {
          "name": "C6",
          "midi": 84,
          "time": 30.32139825,
          "velocity": 0.7559055118110236,
          "duration": 0.10714275000000129
        },
        {
          "name": "C7",
          "midi": 96,
          "time": 30.32139825,
          "velocity": 0.7559055118110236,
          "duration": 0.10714275000000129
        },
        {
          "name": "E4",
          "midi": 64,
          "time": 30.749969250000003,
          "velocity": 0.7559055118110236,
          "duration": 0.10714274999999773
        },
        {
          "name": "E5",
          "midi": 76,
          "time": 30.749969250000003,
          "velocity": 0.7559055118110236,
          "duration": 0.10714274999999773
        },
        {
          "name": "E6",
          "midi": 88,
          "time": 30.749969250000003,
          "velocity": 0.7559055118110236,
          "duration": 0.10714274999999773
        },
        {
          "name": "E7",
          "midi": 100,
          "time": 30.749969250000003,
          "velocity": 0.7559055118110236,
          "duration": 0.10714274999999773
        },
        {
          "name": "E8",
          "midi": 112,
          "time": 30.749969250000003,
          "velocity": 0.7559055118110236,
          "duration": 0.10714274999999773
        },
        {
          "name": "C1",
          "midi": 24,
          "time": 30.749969250000003,
          "velocity": 0.7874015748031497,
          "duration": 0.026785687499998545
        },
        {
          "name": "A#1",
          "midi": 34,
          "time": 30.749969250000003,
          "velocity": 0.7874015748031497,
          "duration": 0.026785687499998545
        },
        {
          "name": "C4",
          "midi": 60,
          "time": 30.964254750000002,
          "velocity": 0.7559055118110236,
          "duration": 0.10714275000000129
        },
        {
          "name": "C5",
          "midi": 72,
          "time": 30.964254750000002,
          "velocity": 0.7559055118110236,
          "duration": 0.10714275000000129
        },
        {
          "name": "C6",
          "midi": 84,
          "time": 30.964254750000002,
          "velocity": 0.7559055118110236,
          "duration": 0.10714275000000129
        },
        {
          "name": "C7",
          "midi": 96,
          "time": 30.964254750000002,
          "velocity": 0.7559055118110236,
          "duration": 0.10714275000000129
        },
        {
          "name": "E4",
          "midi": 64,
          "time": 31.285683000000002,
          "velocity": 0.7559055118110236,
          "duration": 0.10714274999999773
        },
        {
          "name": "E5",
          "midi": 76,
          "time": 31.285683000000002,
          "velocity": 0.7559055118110236,
          "duration": 0.10714274999999773
        },
        {
          "name": "E6",
          "midi": 88,
          "time": 31.285683000000002,
          "velocity": 0.7559055118110236,
          "duration": 0.10714274999999773
        },
        {
          "name": "E7",
          "midi": 100,
          "time": 31.285683000000002,
          "velocity": 0.7559055118110236,
          "duration": 0.10714274999999773
        },
        {
          "name": "E8",
          "midi": 112,
          "time": 31.285683000000002,
          "velocity": 0.7559055118110236,
          "duration": 0.10714274999999773
        },
        {
          "name": "C1",
          "midi": 24,
          "time": 31.285683000000002,
          "velocity": 0.7874015748031497,
          "duration": 0.026785687499998545
        },
        {
          "name": "C2",
          "midi": 36,
          "time": 31.285683000000002,
          "velocity": 0.7874015748031497,
          "duration": 0.026785687499998545
        },
        {
          "name": "C4",
          "midi": 60,
          "time": 31.4999685,
          "velocity": 0.7559055118110236,
          "duration": 0.10714275000000129
        },
        {
          "name": "C5",
          "midi": 72,
          "time": 31.4999685,
          "velocity": 0.7559055118110236,
          "duration": 0.10714275000000129
        },
        {
          "name": "C6",
          "midi": 84,
          "time": 31.4999685,
          "velocity": 0.7559055118110236,
          "duration": 0.10714275000000129
        },
        {
          "name": "C7",
          "midi": 96,
          "time": 31.4999685,
          "velocity": 0.7559055118110236,
          "duration": 0.10714275000000129
        },
        {
          "name": "C4",
          "midi": 60,
          "time": 32.03568225,
          "velocity": 0.7559055118110236,
          "duration": 0.10714275000000129
        },
        {
          "name": "C5",
          "midi": 72,
          "time": 32.03568225,
          "velocity": 0.7559055118110236,
          "duration": 0.10714275000000129
        },
        {
          "name": "C6",
          "midi": 84,
          "time": 32.03568225,
          "velocity": 0.7559055118110236,
          "duration": 0.10714275000000129
        },
        {
          "name": "C7",
          "midi": 96,
          "time": 32.03568225,
          "velocity": 0.7559055118110236,
          "duration": 0.10714275000000129
        },
        {
          "name": "E4",
          "midi": 64,
          "time": 32.46425325,
          "velocity": 0.7559055118110236,
          "duration": 0.10714275000000129
        },
        {
          "name": "E5",
          "midi": 76,
          "time": 32.46425325,
          "velocity": 0.7559055118110236,
          "duration": 0.10714275000000129
        },
        {
          "name": "E6",
          "midi": 88,
          "time": 32.46425325,
          "velocity": 0.7559055118110236,
          "duration": 0.10714275000000129
        },
        {
          "name": "E7",
          "midi": 100,
          "time": 32.46425325,
          "velocity": 0.7559055118110236,
          "duration": 0.10714275000000129
        },
        {
          "name": "E8",
          "midi": 112,
          "time": 32.46425325,
          "velocity": 0.7559055118110236,
          "duration": 0.10714275000000129
        },
        {
          "name": "C1",
          "midi": 24,
          "time": 32.46425325,
          "velocity": 0.7874015748031497,
          "duration": 0.026785687500002098
        },
        {
          "name": "A#1",
          "midi": 34,
          "time": 32.46425325,
          "velocity": 0.7874015748031497,
          "duration": 0.026785687500002098
        },
        {
          "name": "C4",
          "midi": 60,
          "time": 32.67853875,
          "velocity": 0.7559055118110236,
          "duration": 0.10714275000000129
        },
        {
          "name": "C5",
          "midi": 72,
          "time": 32.67853875,
          "velocity": 0.7559055118110236,
          "duration": 0.10714275000000129
        },
        {
          "name": "C6",
          "midi": 84,
          "time": 32.67853875,
          "velocity": 0.7559055118110236,
          "duration": 0.10714275000000129
        },
        {
          "name": "C7",
          "midi": 96,
          "time": 32.67853875,
          "velocity": 0.7559055118110236,
          "duration": 0.10714275000000129
        },
        {
          "name": "E4",
          "midi": 64,
          "time": 32.999967000000005,
          "velocity": 0.7559055118110236,
          "duration": 0.10714275000000129
        },
        {
          "name": "E5",
          "midi": 76,
          "time": 32.999967000000005,
          "velocity": 0.7559055118110236,
          "duration": 0.10714275000000129
        },
        {
          "name": "E6",
          "midi": 88,
          "time": 32.999967000000005,
          "velocity": 0.7559055118110236,
          "duration": 0.10714275000000129
        },
        {
          "name": "E7",
          "midi": 100,
          "time": 32.999967000000005,
          "velocity": 0.7559055118110236,
          "duration": 0.10714275000000129
        },
        {
          "name": "E8",
          "midi": 112,
          "time": 32.999967000000005,
          "velocity": 0.7559055118110236,
          "duration": 0.10714275000000129
        },
        {
          "name": "C1",
          "midi": 24,
          "time": 32.999967000000005,
          "velocity": 0.7874015748031497,
          "duration": 0.026785687500002098
        },
        {
          "name": "C2",
          "midi": 36,
          "time": 32.999967000000005,
          "velocity": 0.7874015748031497,
          "duration": 0.026785687500002098
        },
        {
          "name": "C4",
          "midi": 60,
          "time": 33.21425250000001,
          "velocity": 0.7559055118110236,
          "duration": 0.10714275000000129
        },
        {
          "name": "C5",
          "midi": 72,
          "time": 33.21425250000001,
          "velocity": 0.7559055118110236,
          "duration": 0.10714275000000129
        },
        {
          "name": "C6",
          "midi": 84,
          "time": 33.21425250000001,
          "velocity": 0.7559055118110236,
          "duration": 0.10714275000000129
        },
        {
          "name": "C7",
          "midi": 96,
          "time": 33.21425250000001,
          "velocity": 0.7559055118110236,
          "duration": 0.10714275000000129
        },
        {
          "name": "C4",
          "midi": 60,
          "time": 34.17853725000001,
          "velocity": 0.7559055118110236,
          "duration": 0.10714275000000129
        },
        {
          "name": "C5",
          "midi": 72,
          "time": 34.17853725000001,
          "velocity": 0.7559055118110236,
          "duration": 0.10714275000000129
        },
        {
          "name": "C6",
          "midi": 84,
          "time": 34.17853725000001,
          "velocity": 0.7559055118110236,
          "duration": 0.10714275000000129
        },
        {
          "name": "C7",
          "midi": 96,
          "time": 34.17853725000001,
          "velocity": 0.7559055118110236,
          "duration": 0.10714275000000129
        },
        {
          "name": "E4",
          "midi": 64,
          "time": 34.71425100000001,
          "velocity": 0.7559055118110236,
          "duration": 0.10714275000000129
        },
        {
          "name": "E5",
          "midi": 76,
          "time": 34.71425100000001,
          "velocity": 0.7559055118110236,
          "duration": 0.10714275000000129
        },
        {
          "name": "E6",
          "midi": 88,
          "time": 34.71425100000001,
          "velocity": 0.7559055118110236,
          "duration": 0.10714275000000129
        },
        {
          "name": "E7",
          "midi": 100,
          "time": 34.71425100000001,
          "velocity": 0.7559055118110236,
          "duration": 0.10714275000000129
        },
        {
          "name": "E8",
          "midi": 112,
          "time": 34.71425100000001,
          "velocity": 0.7559055118110236,
          "duration": 0.10714275000000129
        },
        {
          "name": "C1",
          "midi": 24,
          "time": 34.71425100000001,
          "velocity": 0.7874015748031497,
          "duration": 0.026785687500002098
        },
        {
          "name": "A#1",
          "midi": 34,
          "time": 34.71425100000001,
          "velocity": 0.7874015748031497,
          "duration": 0.026785687500002098
        },
        {
          "name": "C4",
          "midi": 60,
          "time": 35.035679250000015,
          "velocity": 0.7559055118110236,
          "duration": 0.10714275000000129
        },
        {
          "name": "C5",
          "midi": 72,
          "time": 35.035679250000015,
          "velocity": 0.7559055118110236,
          "duration": 0.10714275000000129
        },
        {
          "name": "C6",
          "midi": 84,
          "time": 35.035679250000015,
          "velocity": 0.7559055118110236,
          "duration": 0.10714275000000129
        },
        {
          "name": "C7",
          "midi": 96,
          "time": 35.035679250000015,
          "velocity": 0.7559055118110236,
          "duration": 0.10714275000000129
        },
        {
          "name": "C4",
          "midi": 60,
          "time": 35.46425025000001,
          "velocity": 0.7559055118110236,
          "duration": 0.10714275000000129
        },
        {
          "name": "C5",
          "midi": 72,
          "time": 35.46425025000001,
          "velocity": 0.7559055118110236,
          "duration": 0.10714275000000129
        },
        {
          "name": "C6",
          "midi": 84,
          "time": 35.46425025000001,
          "velocity": 0.7559055118110236,
          "duration": 0.10714275000000129
        },
        {
          "name": "C7",
          "midi": 96,
          "time": 35.46425025000001,
          "velocity": 0.7559055118110236,
          "duration": 0.10714275000000129
        },
        {
          "name": "E4",
          "midi": 64,
          "time": 35.89282125000001,
          "velocity": 0.7559055118110236,
          "duration": 0.10714275000000129
        },
        {
          "name": "E5",
          "midi": 76,
          "time": 35.89282125000001,
          "velocity": 0.7559055118110236,
          "duration": 0.10714275000000129
        },
        {
          "name": "E6",
          "midi": 88,
          "time": 35.89282125000001,
          "velocity": 0.7559055118110236,
          "duration": 0.10714275000000129
        },
        {
          "name": "E7",
          "midi": 100,
          "time": 35.89282125000001,
          "velocity": 0.7559055118110236,
          "duration": 0.10714275000000129
        },
        {
          "name": "E8",
          "midi": 112,
          "time": 35.89282125000001,
          "velocity": 0.7559055118110236,
          "duration": 0.10714275000000129
        },
        {
          "name": "C1",
          "midi": 24,
          "time": 35.89282125000001,
          "velocity": 0.7874015748031497,
          "duration": 0.026785687500002098
        },
        {
          "name": "C2",
          "midi": 36,
          "time": 35.89282125000001,
          "velocity": 0.7874015748031497,
          "duration": 0.026785687500002098
        },
        {
          "name": "C4",
          "midi": 60,
          "time": 36.107106750000014,
          "velocity": 0.7559055118110236,
          "duration": 0.10714275000000129
        },
        {
          "name": "C5",
          "midi": 72,
          "time": 36.107106750000014,
          "velocity": 0.7559055118110236,
          "duration": 0.10714275000000129
        },
        {
          "name": "C6",
          "midi": 84,
          "time": 36.107106750000014,
          "velocity": 0.7559055118110236,
          "duration": 0.10714275000000129
        },
        {
          "name": "C7",
          "midi": 96,
          "time": 36.107106750000014,
          "velocity": 0.7559055118110236,
          "duration": 0.10714275000000129
        },
        {
          "name": "E4",
          "midi": 64,
          "time": 36.42853500000002,
          "velocity": 0.7559055118110236,
          "duration": 0.10714275000000129
        },
        {
          "name": "E5",
          "midi": 76,
          "time": 36.42853500000002,
          "velocity": 0.7559055118110236,
          "duration": 0.10714275000000129
        },
        {
          "name": "E6",
          "midi": 88,
          "time": 36.42853500000002,
          "velocity": 0.7559055118110236,
          "duration": 0.10714275000000129
        },
        {
          "name": "E7",
          "midi": 100,
          "time": 36.42853500000002,
          "velocity": 0.7559055118110236,
          "duration": 0.10714275000000129
        },
        {
          "name": "E8",
          "midi": 112,
          "time": 36.42853500000002,
          "velocity": 0.7559055118110236,
          "duration": 0.10714275000000129
        },
        {
          "name": "C1",
          "midi": 24,
          "time": 36.42853500000002,
          "velocity": 0.7874015748031497,
          "duration": 0.026785687500002098
        },
        {
          "name": "A#1",
          "midi": 34,
          "time": 36.42853500000002,
          "velocity": 0.7874015748031497,
          "duration": 0.026785687500002098
        },
        {
          "name": "C4",
          "midi": 60,
          "time": 36.64282050000002,
          "velocity": 0.7559055118110236,
          "duration": 0.10714275000000129
        },
        {
          "name": "C5",
          "midi": 72,
          "time": 36.64282050000002,
          "velocity": 0.7559055118110236,
          "duration": 0.10714275000000129
        },
        {
          "name": "C6",
          "midi": 84,
          "time": 36.64282050000002,
          "velocity": 0.7559055118110236,
          "duration": 0.10714275000000129
        },
        {
          "name": "C7",
          "midi": 96,
          "time": 36.64282050000002,
          "velocity": 0.7559055118110236,
          "duration": 0.10714275000000129
        },
        {
          "name": "C4",
          "midi": 60,
          "time": 37.71424800000002,
          "velocity": 0.7559055118110236,
          "duration": 0.10714275000000129
        },
        {
          "name": "E4",
          "midi": 64,
          "time": 37.71424800000002,
          "velocity": 0.7559055118110236,
          "duration": 0.10714275000000129
        },
        {
          "name": "C5",
          "midi": 72,
          "time": 37.71424800000002,
          "velocity": 0.7559055118110236,
          "duration": 0.10714275000000129
        },
        {
          "name": "E5",
          "midi": 76,
          "time": 37.71424800000002,
          "velocity": 0.7559055118110236,
          "duration": 0.10714275000000129
        },
        {
          "name": "C6",
          "midi": 84,
          "time": 37.71424800000002,
          "velocity": 0.7559055118110236,
          "duration": 0.10714275000000129
        },
        {
          "name": "E6",
          "midi": 88,
          "time": 37.71424800000002,
          "velocity": 0.7559055118110236,
          "duration": 0.10714275000000129
        },
        {
          "name": "C7",
          "midi": 96,
          "time": 37.71424800000002,
          "velocity": 0.7559055118110236,
          "duration": 0.10714275000000129
        },
        {
          "name": "E4",
          "midi": 64,
          "time": 38.14281900000002,
          "velocity": 0.7559055118110236,
          "duration": 0.10714275000000129
        },
        {
          "name": "E5",
          "midi": 76,
          "time": 38.14281900000002,
          "velocity": 0.7559055118110236,
          "duration": 0.10714275000000129
        },
        {
          "name": "E6",
          "midi": 88,
          "time": 38.14281900000002,
          "velocity": 0.7559055118110236,
          "duration": 0.10714275000000129
        },
        {
          "name": "E7",
          "midi": 100,
          "time": 38.14281900000002,
          "velocity": 0.7559055118110236,
          "duration": 0.10714275000000129
        },
        {
          "name": "E8",
          "midi": 112,
          "time": 38.14281900000002,
          "velocity": 0.7559055118110236,
          "duration": 0.10714275000000129
        },
        {
          "name": "C1",
          "midi": 24,
          "time": 38.14281900000002,
          "velocity": 0.7874015748031497,
          "duration": 0.026785687500002098
        },
        {
          "name": "C2",
          "midi": 36,
          "time": 38.14281900000002,
          "velocity": 0.7874015748031497,
          "duration": 0.026785687500002098
        },
        {
          "name": "C4",
          "midi": 60,
          "time": 38.46424725000002,
          "velocity": 0.7559055118110236,
          "duration": 0.10714275000000129
        },
        {
          "name": "C5",
          "midi": 72,
          "time": 38.46424725000002,
          "velocity": 0.7559055118110236,
          "duration": 0.10714275000000129
        },
        {
          "name": "C6",
          "midi": 84,
          "time": 38.46424725000002,
          "velocity": 0.7559055118110236,
          "duration": 0.10714275000000129
        },
        {
          "name": "C7",
          "midi": 96,
          "time": 38.46424725000002,
          "velocity": 0.7559055118110236,
          "duration": 0.10714275000000129
        },
        {
          "name": "C4",
          "midi": 60,
          "time": 38.89281825000002,
          "velocity": 0.7559055118110236,
          "duration": 0.10714275000000129
        },
        {
          "name": "C5",
          "midi": 72,
          "time": 38.89281825000002,
          "velocity": 0.7559055118110236,
          "duration": 0.10714275000000129
        },
        {
          "name": "C6",
          "midi": 84,
          "time": 38.89281825000002,
          "velocity": 0.7559055118110236,
          "duration": 0.10714275000000129
        },
        {
          "name": "C7",
          "midi": 96,
          "time": 38.89281825000002,
          "velocity": 0.7559055118110236,
          "duration": 0.10714275000000129
        },
        {
          "name": "E4",
          "midi": 64,
          "time": 39.32138925000002,
          "velocity": 0.7559055118110236,
          "duration": 0.10714275000000129
        },
        {
          "name": "E5",
          "midi": 76,
          "time": 39.32138925000002,
          "velocity": 0.7559055118110236,
          "duration": 0.10714275000000129
        },
        {
          "name": "E6",
          "midi": 88,
          "time": 39.32138925000002,
          "velocity": 0.7559055118110236,
          "duration": 0.10714275000000129
        },
        {
          "name": "E7",
          "midi": 100,
          "time": 39.32138925000002,
          "velocity": 0.7559055118110236,
          "duration": 0.10714275000000129
        },
        {
          "name": "E8",
          "midi": 112,
          "time": 39.32138925000002,
          "velocity": 0.7559055118110236,
          "duration": 0.10714275000000129
        },
        {
          "name": "C1",
          "midi": 24,
          "time": 39.32138925000002,
          "velocity": 0.7874015748031497,
          "duration": 0.026785687500002098
        },
        {
          "name": "A#1",
          "midi": 34,
          "time": 39.32138925000002,
          "velocity": 0.7874015748031497,
          "duration": 0.026785687500002098
        },
        {
          "name": "C4",
          "midi": 60,
          "time": 39.42853200000002,
          "velocity": 0.7559055118110236,
          "duration": 0.10714275000000129
        },
        {
          "name": "C5",
          "midi": 72,
          "time": 39.42853200000002,
          "velocity": 0.7559055118110236,
          "duration": 0.10714275000000129
        },
        {
          "name": "C6",
          "midi": 84,
          "time": 39.42853200000002,
          "velocity": 0.7559055118110236,
          "duration": 0.10714275000000129
        },
        {
          "name": "C7",
          "midi": 96,
          "time": 39.42853200000002,
          "velocity": 0.7559055118110236,
          "duration": 0.10714275000000129
        },
        {
          "name": "C4",
          "midi": 60,
          "time": 39.53567475000002,
          "velocity": 0.7559055118110236,
          "duration": 0.10714275000000129
        },
        {
          "name": "C5",
          "midi": 72,
          "time": 39.53567475000002,
          "velocity": 0.7559055118110236,
          "duration": 0.10714275000000129
        },
        {
          "name": "C6",
          "midi": 84,
          "time": 39.53567475000002,
          "velocity": 0.7559055118110236,
          "duration": 0.10714275000000129
        },
        {
          "name": "C7",
          "midi": 96,
          "time": 39.53567475000002,
          "velocity": 0.7559055118110236,
          "duration": 0.10714275000000129
        },
        {
          "name": "C4",
          "midi": 60,
          "time": 39.64281750000002,
          "velocity": 0.7559055118110236,
          "duration": 0.10714275000000129
        },
        {
          "name": "C5",
          "midi": 72,
          "time": 39.64281750000002,
          "velocity": 0.7559055118110236,
          "duration": 0.10714275000000129
        },
        {
          "name": "C6",
          "midi": 84,
          "time": 39.64281750000002,
          "velocity": 0.7559055118110236,
          "duration": 0.10714275000000129
        },
        {
          "name": "C7",
          "midi": 96,
          "time": 39.64281750000002,
          "velocity": 0.7559055118110236,
          "duration": 0.10714275000000129
        },
        {
          "name": "C4",
          "midi": 60,
          "time": 39.85710300000002,
          "velocity": 0.7559055118110236,
          "duration": 0.10714275000000129
        },
        {
          "name": "C5",
          "midi": 72,
          "time": 39.85710300000002,
          "velocity": 0.7559055118110236,
          "duration": 0.10714275000000129
        },
        {
          "name": "C6",
          "midi": 84,
          "time": 39.85710300000002,
          "velocity": 0.7559055118110236,
          "duration": 0.10714275000000129
        },
        {
          "name": "C7",
          "midi": 96,
          "time": 39.85710300000002,
          "velocity": 0.7559055118110236,
          "duration": 0.10714275000000129
        },
        {
          "name": "E4",
          "midi": 64,
          "time": 40.071388500000026,
          "velocity": 0.7559055118110236,
          "duration": 0.10714275000000129
        },
        {
          "name": "E5",
          "midi": 76,
          "time": 40.071388500000026,
          "velocity": 0.7559055118110236,
          "duration": 0.10714275000000129
        },
        {
          "name": "E6",
          "midi": 88,
          "time": 40.071388500000026,
          "velocity": 0.7559055118110236,
          "duration": 0.10714275000000129
        },
        {
          "name": "E7",
          "midi": 100,
          "time": 40.071388500000026,
          "velocity": 0.7559055118110236,
          "duration": 0.10714275000000129
        },
        {
          "name": "E8",
          "midi": 112,
          "time": 40.071388500000026,
          "velocity": 0.7559055118110236,
          "duration": 0.10714275000000129
        },
        {
          "name": "C1",
          "midi": 24,
          "time": 40.071388500000026,
          "velocity": 0.7874015748031497,
          "duration": 0.026785687500002098
        },
        {
          "name": "C2",
          "midi": 36,
          "time": 40.071388500000026,
          "velocity": 0.7874015748031497,
          "duration": 0.026785687500002098
        },
        {
          "name": "C4",
          "midi": 60,
          "time": 40.607102250000025,
          "velocity": 0.7559055118110236,
          "duration": 0.10714275000000129
        },
        {
          "name": "C5",
          "midi": 72,
          "time": 40.607102250000025,
          "velocity": 0.7559055118110236,
          "duration": 0.10714275000000129
        },
        {
          "name": "C6",
          "midi": 84,
          "time": 40.607102250000025,
          "velocity": 0.7559055118110236,
          "duration": 0.10714275000000129
        },
        {
          "name": "C7",
          "midi": 96,
          "time": 40.607102250000025,
          "velocity": 0.7559055118110236,
          "duration": 0.07142850000000323
        },
        {
          "name": "C7",
          "midi": 96,
          "time": 40.67853075000003,
          "velocity": 0.7559055118110236,
          "duration": 0.07142849999999612
        },
        {
          "name": "C7",
          "midi": 96,
          "time": 40.749959250000025,
          "velocity": 0.7559055118110236,
          "duration": 0.07142850000000323
        },
        {
          "name": "C7",
          "midi": 96,
          "time": 40.82138775000003,
          "velocity": 0.7559055118110236,
          "duration": 0.07142850000000323
        },
        {
          "name": "C7",
          "midi": 96,
          "time": 40.89281625000003,
          "velocity": 0.7559055118110236,
          "duration": 0.07142850000000323
        },
        {
          "name": "C4",
          "midi": 60,
          "time": 41.14281600000003,
          "velocity": 0.7559055118110236,
          "duration": 0.10714275000000129
        },
        {
          "name": "D#4",
          "midi": 63,
          "time": 41.14281600000003,
          "velocity": 0.7559055118110236,
          "duration": 0.10714275000000129
        },
        {
          "name": "E4",
          "midi": 64,
          "time": 41.14281600000003,
          "velocity": 0.7559055118110236,
          "duration": 0.10714275000000129
        },
        {
          "name": "C5",
          "midi": 72,
          "time": 41.14281600000003,
          "velocity": 0.7559055118110236,
          "duration": 0.10714275000000129
        },
        {
          "name": "D#5",
          "midi": 75,
          "time": 41.14281600000003,
          "velocity": 0.7559055118110236,
          "duration": 0.10714275000000129
        },
        {
          "name": "E5",
          "midi": 76,
          "time": 41.14281600000003,
          "velocity": 0.7559055118110236,
          "duration": 0.10714275000000129
        },
        {
          "name": "C6",
          "midi": 84,
          "time": 41.14281600000003,
          "velocity": 0.7559055118110236,
          "duration": 0.10714275000000129
        },
        {
          "name": "D#6",
          "midi": 87,
          "time": 41.14281600000003,
          "velocity": 0.7559055118110236,
          "duration": 0.10714275000000129
        },
        {
          "name": "E6",
          "midi": 88,
          "time": 41.14281600000003,
          "velocity": 0.7559055118110236,
          "duration": 0.10714275000000129
        },
        {
          "name": "C7",
          "midi": 96,
          "time": 41.14281600000003,
          "velocity": 0.7559055118110236,
          "duration": 0.10714275000000129
        },
        {
          "name": "E4",
          "midi": 64,
          "time": 41.57138700000003,
          "velocity": 0.7559055118110236,
          "duration": 0.10714275000000129
        },
        {
          "name": "E5",
          "midi": 76,
          "time": 41.57138700000003,
          "velocity": 0.7559055118110236,
          "duration": 0.10714275000000129
        },
        {
          "name": "E6",
          "midi": 88,
          "time": 41.57138700000003,
          "velocity": 0.7559055118110236,
          "duration": 0.10714275000000129
        },
        {
          "name": "E7",
          "midi": 100,
          "time": 41.57138700000003,
          "velocity": 0.7559055118110236,
          "duration": 0.10714275000000129
        },
        {
          "name": "E8",
          "midi": 112,
          "time": 41.57138700000003,
          "velocity": 0.7559055118110236,
          "duration": 0.10714275000000129
        },
        {
          "name": "C1",
          "midi": 24,
          "time": 41.57138700000003,
          "velocity": 0.7874015748031497,
          "duration": 0.026785687500002098
        },
        {
          "name": "A#1",
          "midi": 34,
          "time": 41.57138700000003,
          "velocity": 0.7874015748031497,
          "duration": 0.026785687500002098
        },
        {
          "name": "C4",
          "midi": 60,
          "time": 41.892815250000034,
          "velocity": 0.7559055118110236,
          "duration": 0.10714275000000129
        },
        {
          "name": "C5",
          "midi": 72,
          "time": 41.892815250000034,
          "velocity": 0.7559055118110236,
          "duration": 0.10714275000000129
        },
        {
          "name": "C6",
          "midi": 84,
          "time": 41.892815250000034,
          "velocity": 0.7559055118110236,
          "duration": 0.10714275000000129
        },
        {
          "name": "C7",
          "midi": 96,
          "time": 41.892815250000034,
          "velocity": 0.7559055118110236,
          "duration": 0.10714275000000129
        },
        {
          "name": "C4",
          "midi": 60,
          "time": 42.32138625000003,
          "velocity": 0.7559055118110236,
          "duration": 0.10714275000000129
        },
        {
          "name": "C5",
          "midi": 72,
          "time": 42.32138625000003,
          "velocity": 0.7559055118110236,
          "duration": 0.10714275000000129
        },
        {
          "name": "C6",
          "midi": 84,
          "time": 42.32138625000003,
          "velocity": 0.7559055118110236,
          "duration": 0.10714275000000129
        },
        {
          "name": "C7",
          "midi": 96,
          "time": 42.32138625000003,
          "velocity": 0.7559055118110236,
          "duration": 0.10714275000000129
        },
        {
          "name": "E4",
          "midi": 64,
          "time": 42.74995725000003,
          "velocity": 0.7559055118110236,
          "duration": 0.10714275000000129
        },
        {
          "name": "E5",
          "midi": 76,
          "time": 42.74995725000003,
          "velocity": 0.7559055118110236,
          "duration": 0.10714275000000129
        },
        {
          "name": "E6",
          "midi": 88,
          "time": 42.74995725000003,
          "velocity": 0.7559055118110236,
          "duration": 0.10714275000000129
        },
        {
          "name": "E7",
          "midi": 100,
          "time": 42.74995725000003,
          "velocity": 0.7559055118110236,
          "duration": 0.10714275000000129
        },
        {
          "name": "E8",
          "midi": 112,
          "time": 42.74995725000003,
          "velocity": 0.7559055118110236,
          "duration": 0.10714275000000129
        },
        {
          "name": "C1",
          "midi": 24,
          "time": 42.74995725000003,
          "velocity": 0.7874015748031497,
          "duration": 0.026785687500002098
        },
        {
          "name": "C2",
          "midi": 36,
          "time": 42.74995725000003,
          "velocity": 0.7874015748031497,
          "duration": 0.026785687500002098
        },
        {
          "name": "C4",
          "midi": 60,
          "time": 42.96424275000003,
          "velocity": 0.7559055118110236,
          "duration": 0.10714275000000129
        },
        {
          "name": "C5",
          "midi": 72,
          "time": 42.96424275000003,
          "velocity": 0.7559055118110236,
          "duration": 0.10714275000000129
        },
        {
          "name": "C6",
          "midi": 84,
          "time": 42.96424275000003,
          "velocity": 0.7559055118110236,
          "duration": 0.10714275000000129
        },
        {
          "name": "C7",
          "midi": 96,
          "time": 42.96424275000003,
          "velocity": 0.7559055118110236,
          "duration": 0.10714275000000129
        },
        {
          "name": "E4",
          "midi": 64,
          "time": 43.285671000000036,
          "velocity": 0.7559055118110236,
          "duration": 0.10714275000000129
        },
        {
          "name": "E5",
          "midi": 76,
          "time": 43.285671000000036,
          "velocity": 0.7559055118110236,
          "duration": 0.10714275000000129
        },
        {
          "name": "E6",
          "midi": 88,
          "time": 43.285671000000036,
          "velocity": 0.7559055118110236,
          "duration": 0.10714275000000129
        },
        {
          "name": "E7",
          "midi": 100,
          "time": 43.285671000000036,
          "velocity": 0.7559055118110236,
          "duration": 0.10714275000000129
        },
        {
          "name": "E8",
          "midi": 112,
          "time": 43.285671000000036,
          "velocity": 0.7559055118110236,
          "duration": 0.10714275000000129
        },
        {
          "name": "C1",
          "midi": 24,
          "time": 43.285671000000036,
          "velocity": 0.7874015748031497,
          "duration": 0.026785687500002098
        },
        {
          "name": "A#1",
          "midi": 34,
          "time": 43.285671000000036,
          "velocity": 0.7874015748031497,
          "duration": 0.026785687500002098
        },
        {
          "name": "C4",
          "midi": 60,
          "time": 43.49995650000004,
          "velocity": 0.7559055118110236,
          "duration": 0.10714275000000129
        },
        {
          "name": "C5",
          "midi": 72,
          "time": 43.49995650000004,
          "velocity": 0.7559055118110236,
          "duration": 0.10714275000000129
        },
        {
          "name": "C6",
          "midi": 84,
          "time": 43.49995650000004,
          "velocity": 0.7559055118110236,
          "duration": 0.10714275000000129
        },
        {
          "name": "C7",
          "midi": 96,
          "time": 43.49995650000004,
          "velocity": 0.7559055118110236,
          "duration": 0.10714275000000129
        },
        {
          "name": "C4",
          "midi": 60,
          "time": 44.03567025000004,
          "velocity": 0.7559055118110236,
          "duration": 0.10714275000000129
        },
        {
          "name": "C5",
          "midi": 72,
          "time": 44.03567025000004,
          "velocity": 0.7559055118110236,
          "duration": 0.10714275000000129
        },
        {
          "name": "C6",
          "midi": 84,
          "time": 44.03567025000004,
          "velocity": 0.7559055118110236,
          "duration": 0.10714275000000129
        },
        {
          "name": "C7",
          "midi": 96,
          "time": 44.03567025000004,
          "velocity": 0.7559055118110236,
          "duration": 0.10714275000000129
        },
        {
          "name": "E4",
          "midi": 64,
          "time": 44.464241250000036,
          "velocity": 0.7559055118110236,
          "duration": 0.10714275000000129
        },
        {
          "name": "E5",
          "midi": 76,
          "time": 44.464241250000036,
          "velocity": 0.7559055118110236,
          "duration": 0.10714275000000129
        },
        {
          "name": "E6",
          "midi": 88,
          "time": 44.464241250000036,
          "velocity": 0.7559055118110236,
          "duration": 0.10714275000000129
        },
        {
          "name": "E7",
          "midi": 100,
          "time": 44.464241250000036,
          "velocity": 0.7559055118110236,
          "duration": 0.10714275000000129
        },
        {
          "name": "E8",
          "midi": 112,
          "time": 44.464241250000036,
          "velocity": 0.7559055118110236,
          "duration": 0.10714275000000129
        },
        {
          "name": "C1",
          "midi": 24,
          "time": 44.464241250000036,
          "velocity": 0.7874015748031497,
          "duration": 0.026785687500002098
        },
        {
          "name": "C2",
          "midi": 36,
          "time": 44.464241250000036,
          "velocity": 0.7874015748031497,
          "duration": 0.026785687500002098
        },
        {
          "name": "C4",
          "midi": 60,
          "time": 44.67852675000004,
          "velocity": 0.7559055118110236,
          "duration": 0.10714275000000129
        },
        {
          "name": "C5",
          "midi": 72,
          "time": 44.67852675000004,
          "velocity": 0.7559055118110236,
          "duration": 0.10714275000000129
        },
        {
          "name": "C6",
          "midi": 84,
          "time": 44.67852675000004,
          "velocity": 0.7559055118110236,
          "duration": 0.10714275000000129
        },
        {
          "name": "C7",
          "midi": 96,
          "time": 44.67852675000004,
          "velocity": 0.7559055118110236,
          "duration": 0.10714275000000129
        },
        {
          "name": "E4",
          "midi": 64,
          "time": 44.99995500000004,
          "velocity": 0.7559055118110236,
          "duration": 0.10714275000000129
        },
        {
          "name": "E5",
          "midi": 76,
          "time": 44.99995500000004,
          "velocity": 0.7559055118110236,
          "duration": 0.10714275000000129
        },
        {
          "name": "E6",
          "midi": 88,
          "time": 44.99995500000004,
          "velocity": 0.7559055118110236,
          "duration": 0.10714275000000129
        },
        {
          "name": "E7",
          "midi": 100,
          "time": 44.99995500000004,
          "velocity": 0.7559055118110236,
          "duration": 0.10714275000000129
        },
        {
          "name": "E8",
          "midi": 112,
          "time": 44.99995500000004,
          "velocity": 0.7559055118110236,
          "duration": 0.10714275000000129
        },
        {
          "name": "C1",
          "midi": 24,
          "time": 44.99995500000004,
          "velocity": 0.7874015748031497,
          "duration": 0.026785687500002098
        },
        {
          "name": "A#1",
          "midi": 34,
          "time": 44.99995500000004,
          "velocity": 0.7874015748031497,
          "duration": 0.026785687500002098
        },
        {
          "name": "C4",
          "midi": 60,
          "time": 45.214240500000045,
          "velocity": 0.7559055118110236,
          "duration": 0.10714275000000129
        },
        {
          "name": "C5",
          "midi": 72,
          "time": 45.214240500000045,
          "velocity": 0.7559055118110236,
          "duration": 0.10714275000000129
        },
        {
          "name": "C6",
          "midi": 84,
          "time": 45.214240500000045,
          "velocity": 0.7559055118110236,
          "duration": 0.10714275000000129
        },
        {
          "name": "C7",
          "midi": 96,
          "time": 45.214240500000045,
          "velocity": 0.7559055118110236,
          "duration": 0.10714275000000129
        },
        {
          "name": "C4",
          "midi": 60,
          "time": 45.749954250000044,
          "velocity": 0.7559055118110236,
          "duration": 0.10714275000000129
        },
        {
          "name": "C5",
          "midi": 72,
          "time": 45.749954250000044,
          "velocity": 0.7559055118110236,
          "duration": 0.10714275000000129
        },
        {
          "name": "C6",
          "midi": 84,
          "time": 45.749954250000044,
          "velocity": 0.7559055118110236,
          "duration": 0.10714275000000129
        },
        {
          "name": "C7",
          "midi": 96,
          "time": 45.749954250000044,
          "velocity": 0.7559055118110236,
          "duration": 0.10714275000000129
        },
        {
          "name": "E4",
          "midi": 64,
          "time": 46.17852525000004,
          "velocity": 0.7559055118110236,
          "duration": 0.10714275000000129
        },
        {
          "name": "E5",
          "midi": 76,
          "time": 46.17852525000004,
          "velocity": 0.7559055118110236,
          "duration": 0.10714275000000129
        },
        {
          "name": "E6",
          "midi": 88,
          "time": 46.17852525000004,
          "velocity": 0.7559055118110236,
          "duration": 0.10714275000000129
        },
        {
          "name": "E7",
          "midi": 100,
          "time": 46.17852525000004,
          "velocity": 0.7559055118110236,
          "duration": 0.10714275000000129
        },
        {
          "name": "E8",
          "midi": 112,
          "time": 46.17852525000004,
          "velocity": 0.7559055118110236,
          "duration": 0.10714275000000129
        },
        {
          "name": "C1",
          "midi": 24,
          "time": 46.17852525000004,
          "velocity": 0.7874015748031497,
          "duration": 0.026785687500002098
        },
        {
          "name": "C2",
          "midi": 36,
          "time": 46.17852525000004,
          "velocity": 0.7874015748031497,
          "duration": 0.026785687500002098
        },
        {
          "name": "C4",
          "midi": 60,
          "time": 46.392810750000045,
          "velocity": 0.7559055118110236,
          "duration": 0.10714275000000129
        },
        {
          "name": "C5",
          "midi": 72,
          "time": 46.392810750000045,
          "velocity": 0.7559055118110236,
          "duration": 0.10714275000000129
        },
        {
          "name": "C6",
          "midi": 84,
          "time": 46.392810750000045,
          "velocity": 0.7559055118110236,
          "duration": 0.10714275000000129
        },
        {
          "name": "C7",
          "midi": 96,
          "time": 46.392810750000045,
          "velocity": 0.7559055118110236,
          "duration": 0.10714275000000129
        },
        {
          "name": "E4",
          "midi": 64,
          "time": 46.71423900000005,
          "velocity": 0.7559055118110236,
          "duration": 0.10714275000000129
        },
        {
          "name": "E5",
          "midi": 76,
          "time": 46.71423900000005,
          "velocity": 0.7559055118110236,
          "duration": 0.10714275000000129
        },
        {
          "name": "E6",
          "midi": 88,
          "time": 46.71423900000005,
          "velocity": 0.7559055118110236,
          "duration": 0.10714275000000129
        },
        {
          "name": "E7",
          "midi": 100,
          "time": 46.71423900000005,
          "velocity": 0.7559055118110236,
          "duration": 0.10714275000000129
        },
        {
          "name": "E8",
          "midi": 112,
          "time": 46.71423900000005,
          "velocity": 0.7559055118110236,
          "duration": 0.10714275000000129
        },
        {
          "name": "C1",
          "midi": 24,
          "time": 46.71423900000005,
          "velocity": 0.7874015748031497,
          "duration": 0.026785687500002098
        },
        {
          "name": "A#1",
          "midi": 34,
          "time": 46.71423900000005,
          "velocity": 0.7874015748031497,
          "duration": 0.026785687500002098
        },
        {
          "name": "C4",
          "midi": 60,
          "time": 46.92852450000005,
          "velocity": 0.7559055118110236,
          "duration": 0.10714275000000129
        },
        {
          "name": "C5",
          "midi": 72,
          "time": 46.92852450000005,
          "velocity": 0.7559055118110236,
          "duration": 0.10714275000000129
        },
        {
          "name": "C6",
          "midi": 84,
          "time": 46.92852450000005,
          "velocity": 0.7559055118110236,
          "duration": 0.10714275000000129
        },
        {
          "name": "C7",
          "midi": 96,
          "time": 46.92852450000005,
          "velocity": 0.7559055118110236,
          "duration": 0.10714275000000129
        },
        {
          "name": "C4",
          "midi": 60,
          "time": 47.892809250000056,
          "velocity": 0.7559055118110236,
          "duration": 0.10714275000000129
        },
        {
          "name": "E4",
          "midi": 64,
          "time": 47.892809250000056,
          "velocity": 0.7559055118110236,
          "duration": 0.10714275000000129
        },
        {
          "name": "C5",
          "midi": 72,
          "time": 47.892809250000056,
          "velocity": 0.7559055118110236,
          "duration": 0.10714275000000129
        },
        {
          "name": "E5",
          "midi": 76,
          "time": 47.892809250000056,
          "velocity": 0.7559055118110236,
          "duration": 0.10714275000000129
        },
        {
          "name": "C6",
          "midi": 84,
          "time": 47.892809250000056,
          "velocity": 0.7559055118110236,
          "duration": 0.10714275000000129
        },
        {
          "name": "E6",
          "midi": 88,
          "time": 47.892809250000056,
          "velocity": 0.7559055118110236,
          "duration": 0.10714275000000129
        },
        {
          "name": "C7",
          "midi": 96,
          "time": 47.892809250000056,
          "velocity": 0.7559055118110236,
          "duration": 0.10714275000000129
        },
        {
          "name": "E4",
          "midi": 64,
          "time": 48.428523000000055,
          "velocity": 0.7559055118110236,
          "duration": 0.10714275000000129
        },
        {
          "name": "E5",
          "midi": 76,
          "time": 48.428523000000055,
          "velocity": 0.7559055118110236,
          "duration": 0.10714275000000129
        },
        {
          "name": "E6",
          "midi": 88,
          "time": 48.428523000000055,
          "velocity": 0.7559055118110236,
          "duration": 0.10714275000000129
        },
        {
          "name": "E7",
          "midi": 100,
          "time": 48.428523000000055,
          "velocity": 0.7559055118110236,
          "duration": 0.10714275000000129
        },
        {
          "name": "E8",
          "midi": 112,
          "time": 48.428523000000055,
          "velocity": 0.7559055118110236,
          "duration": 0.10714275000000129
        },
        {
          "name": "C1",
          "midi": 24,
          "time": 48.428523000000055,
          "velocity": 0.7874015748031497,
          "duration": 0.026785687500002098
        },
        {
          "name": "C2",
          "midi": 36,
          "time": 48.428523000000055,
          "velocity": 0.7874015748031497,
          "duration": 0.026785687500002098
        },
        {
          "name": "C4",
          "midi": 60,
          "time": 48.74995125000006,
          "velocity": 0.7559055118110236,
          "duration": 0.10714275000000129
        },
        {
          "name": "C5",
          "midi": 72,
          "time": 48.74995125000006,
          "velocity": 0.7559055118110236,
          "duration": 0.10714275000000129
        },
        {
          "name": "C6",
          "midi": 84,
          "time": 48.74995125000006,
          "velocity": 0.7559055118110236,
          "duration": 0.10714275000000129
        },
        {
          "name": "C7",
          "midi": 96,
          "time": 48.74995125000006,
          "velocity": 0.7559055118110236,
          "duration": 0.10714275000000129
        },
        {
          "name": "C4",
          "midi": 60,
          "time": 49.17852225000006,
          "velocity": 0.7559055118110236,
          "duration": 0.10714275000000129
        },
        {
          "name": "C5",
          "midi": 72,
          "time": 49.17852225000006,
          "velocity": 0.7559055118110236,
          "duration": 0.10714275000000129
        },
        {
          "name": "C6",
          "midi": 84,
          "time": 49.17852225000006,
          "velocity": 0.7559055118110236,
          "duration": 0.10714275000000129
        },
        {
          "name": "C7",
          "midi": 96,
          "time": 49.17852225000006,
          "velocity": 0.7559055118110236,
          "duration": 0.10714275000000129
        },
        {
          "name": "E4",
          "midi": 64,
          "time": 49.607093250000055,
          "velocity": 0.7559055118110236,
          "duration": 0.10714275000000129
        },
        {
          "name": "E5",
          "midi": 76,
          "time": 49.607093250000055,
          "velocity": 0.7559055118110236,
          "duration": 0.10714275000000129
        },
        {
          "name": "E6",
          "midi": 88,
          "time": 49.607093250000055,
          "velocity": 0.7559055118110236,
          "duration": 0.10714275000000129
        },
        {
          "name": "E7",
          "midi": 100,
          "time": 49.607093250000055,
          "velocity": 0.7559055118110236,
          "duration": 0.10714275000000129
        },
        {
          "name": "E8",
          "midi": 112,
          "time": 49.607093250000055,
          "velocity": 0.7559055118110236,
          "duration": 0.10714275000000129
        },
        {
          "name": "C1",
          "midi": 24,
          "time": 49.607093250000055,
          "velocity": 0.7874015748031497,
          "duration": 0.026785687500002098
        },
        {
          "name": "A#1",
          "midi": 34,
          "time": 49.607093250000055,
          "velocity": 0.7874015748031497,
          "duration": 0.026785687500002098
        },
        {
          "name": "C4",
          "midi": 60,
          "time": 49.82137875000006,
          "velocity": 0.7559055118110236,
          "duration": 0.10714275000000129
        },
        {
          "name": "C5",
          "midi": 72,
          "time": 49.82137875000006,
          "velocity": 0.7559055118110236,
          "duration": 0.10714275000000129
        },
        {
          "name": "C6",
          "midi": 84,
          "time": 49.82137875000006,
          "velocity": 0.7559055118110236,
          "duration": 0.10714275000000129
        },
        {
          "name": "C7",
          "midi": 96,
          "time": 49.82137875000006,
          "velocity": 0.7559055118110236,
          "duration": 0.10714275000000129
        },
        {
          "name": "E4",
          "midi": 64,
          "time": 50.14280700000006,
          "velocity": 0.7559055118110236,
          "duration": 0.10714275000000129
        },
        {
          "name": "E5",
          "midi": 76,
          "time": 50.14280700000006,
          "velocity": 0.7559055118110236,
          "duration": 0.10714275000000129
        },
        {
          "name": "E6",
          "midi": 88,
          "time": 50.14280700000006,
          "velocity": 0.7559055118110236,
          "duration": 0.10714275000000129
        },
        {
          "name": "E7",
          "midi": 100,
          "time": 50.14280700000006,
          "velocity": 0.7559055118110236,
          "duration": 0.10714275000000129
        },
        {
          "name": "E8",
          "midi": 112,
          "time": 50.14280700000006,
          "velocity": 0.7559055118110236,
          "duration": 0.10714275000000129
        },
        {
          "name": "C1",
          "midi": 24,
          "time": 50.14280700000006,
          "velocity": 0.7874015748031497,
          "duration": 0.026785687500002098
        },
        {
          "name": "C2",
          "midi": 36,
          "time": 50.14280700000006,
          "velocity": 0.7874015748031497,
          "duration": 0.026785687500002098
        },
        {
          "name": "C4",
          "midi": 60,
          "time": 50.357092500000064,
          "velocity": 0.7559055118110236,
          "duration": 0.10714275000000129
        },
        {
          "name": "C5",
          "midi": 72,
          "time": 50.357092500000064,
          "velocity": 0.7559055118110236,
          "duration": 0.10714275000000129
        },
        {
          "name": "C6",
          "midi": 84,
          "time": 50.357092500000064,
          "velocity": 0.7559055118110236,
          "duration": 0.10714275000000129
        },
        {
          "name": "C7",
          "midi": 96,
          "time": 50.357092500000064,
          "velocity": 0.7559055118110236,
          "duration": 0.10714275000000129
        },
        {
          "name": "C4",
          "midi": 60,
          "time": 51.42852000000006,
          "velocity": 0.7559055118110236,
          "duration": 0.10714275000000129
        },
        {
          "name": "C5",
          "midi": 72,
          "time": 51.42852000000006,
          "velocity": 0.7559055118110236,
          "duration": 0.10714275000000129
        },
        {
          "name": "C6",
          "midi": 84,
          "time": 51.42852000000006,
          "velocity": 0.7559055118110236,
          "duration": 0.10714275000000129
        },
        {
          "name": "C7",
          "midi": 96,
          "time": 51.42852000000006,
          "velocity": 0.7559055118110236,
          "duration": 0.10714275000000129
        },
        {
          "name": "E4",
          "midi": 64,
          "time": 51.85709100000006,
          "velocity": 0.7559055118110236,
          "duration": 0.10714275000000129
        },
        {
          "name": "E5",
          "midi": 76,
          "time": 51.85709100000006,
          "velocity": 0.7559055118110236,
          "duration": 0.10714275000000129
        },
        {
          "name": "E6",
          "midi": 88,
          "time": 51.85709100000006,
          "velocity": 0.7559055118110236,
          "duration": 0.10714275000000129
        },
        {
          "name": "E7",
          "midi": 100,
          "time": 51.85709100000006,
          "velocity": 0.7559055118110236,
          "duration": 0.10714275000000129
        },
        {
          "name": "E8",
          "midi": 112,
          "time": 51.85709100000006,
          "velocity": 0.7559055118110236,
          "duration": 0.10714275000000129
        },
        {
          "name": "C1",
          "midi": 24,
          "time": 51.85709100000006,
          "velocity": 0.7874015748031497,
          "duration": 0.026785687500002098
        },
        {
          "name": "A#1",
          "midi": 34,
          "time": 51.85709100000006,
          "velocity": 0.7874015748031497,
          "duration": 0.026785687500002098
        },
        {
          "name": "C4",
          "midi": 60,
          "time": 52.178519250000065,
          "velocity": 0.7559055118110236,
          "duration": 0.10714275000000129
        },
        {
          "name": "C5",
          "midi": 72,
          "time": 52.178519250000065,
          "velocity": 0.7559055118110236,
          "duration": 0.10714275000000129
        },
        {
          "name": "C6",
          "midi": 84,
          "time": 52.178519250000065,
          "velocity": 0.7559055118110236,
          "duration": 0.10714275000000129
        },
        {
          "name": "C7",
          "midi": 96,
          "time": 52.178519250000065,
          "velocity": 0.7559055118110236,
          "duration": 0.10714275000000129
        },
        {
          "name": "C4",
          "midi": 60,
          "time": 52.60709025000006,
          "velocity": 0.7559055118110236,
          "duration": 0.10714275000000129
        },
        {
          "name": "C5",
          "midi": 72,
          "time": 52.60709025000006,
          "velocity": 0.7559055118110236,
          "duration": 0.10714275000000129
        },
        {
          "name": "C6",
          "midi": 84,
          "time": 52.60709025000006,
          "velocity": 0.7559055118110236,
          "duration": 0.10714275000000129
        },
        {
          "name": "C7",
          "midi": 96,
          "time": 52.60709025000006,
          "velocity": 0.7559055118110236,
          "duration": 0.10714275000000129
        },
        {
          "name": "E4",
          "midi": 64,
          "time": 53.03566125000006,
          "velocity": 0.7559055118110236,
          "duration": 0.10714275000000129
        },
        {
          "name": "E5",
          "midi": 76,
          "time": 53.03566125000006,
          "velocity": 0.7559055118110236,
          "duration": 0.10714275000000129
        },
        {
          "name": "E6",
          "midi": 88,
          "time": 53.03566125000006,
          "velocity": 0.7559055118110236,
          "duration": 0.10714275000000129
        },
        {
          "name": "E7",
          "midi": 100,
          "time": 53.03566125000006,
          "velocity": 0.7559055118110236,
          "duration": 0.10714275000000129
        },
        {
          "name": "E8",
          "midi": 112,
          "time": 53.03566125000006,
          "velocity": 0.7559055118110236,
          "duration": 0.10714275000000129
        },
        {
          "name": "C1",
          "midi": 24,
          "time": 53.03566125000006,
          "velocity": 0.7874015748031497,
          "duration": 0.026785687500002098
        },
        {
          "name": "C2",
          "midi": 36,
          "time": 53.03566125000006,
          "velocity": 0.7874015748031497,
          "duration": 0.026785687500002098
        },
        {
          "name": "C4",
          "midi": 60,
          "time": 53.14280400000006,
          "velocity": 0.7559055118110236,
          "duration": 0.10714275000000129
        },
        {
          "name": "C5",
          "midi": 72,
          "time": 53.14280400000006,
          "velocity": 0.7559055118110236,
          "duration": 0.10714275000000129
        },
        {
          "name": "C6",
          "midi": 84,
          "time": 53.14280400000006,
          "velocity": 0.7559055118110236,
          "duration": 0.10714275000000129
        },
        {
          "name": "C7",
          "midi": 96,
          "time": 53.14280400000006,
          "velocity": 0.7559055118110236,
          "duration": 0.10714275000000129
        },
        {
          "name": "C4",
          "midi": 60,
          "time": 53.24994675000006,
          "velocity": 0.7559055118110236,
          "duration": 0.10714275000000129
        },
        {
          "name": "C5",
          "midi": 72,
          "time": 53.24994675000006,
          "velocity": 0.7559055118110236,
          "duration": 0.10714275000000129
        },
        {
          "name": "C6",
          "midi": 84,
          "time": 53.24994675000006,
          "velocity": 0.7559055118110236,
          "duration": 0.10714275000000129
        },
        {
          "name": "C7",
          "midi": 96,
          "time": 53.24994675000006,
          "velocity": 0.7559055118110236,
          "duration": 0.10714275000000129
        },
        {
          "name": "C4",
          "midi": 60,
          "time": 53.357089500000065,
          "velocity": 0.7559055118110236,
          "duration": 0.10714275000000129
        },
        {
          "name": "C5",
          "midi": 72,
          "time": 53.357089500000065,
          "velocity": 0.7559055118110236,
          "duration": 0.10714275000000129
        },
        {
          "name": "C6",
          "midi": 84,
          "time": 53.357089500000065,
          "velocity": 0.7559055118110236,
          "duration": 0.10714275000000129
        },
        {
          "name": "C7",
          "midi": 96,
          "time": 53.357089500000065,
          "velocity": 0.7559055118110236,
          "duration": 0.10714275000000129
        },
        {
          "name": "C4",
          "midi": 60,
          "time": 53.57137500000007,
          "velocity": 0.7559055118110236,
          "duration": 0.10714275000000129
        },
        {
          "name": "C5",
          "midi": 72,
          "time": 53.57137500000007,
          "velocity": 0.7559055118110236,
          "duration": 0.10714275000000129
        },
        {
          "name": "C6",
          "midi": 84,
          "time": 53.57137500000007,
          "velocity": 0.7559055118110236,
          "duration": 0.10714275000000129
        },
        {
          "name": "C7",
          "midi": 96,
          "time": 53.57137500000007,
          "velocity": 0.7559055118110236,
          "duration": 0.10714275000000129
        },
        {
          "name": "E4",
          "midi": 64,
          "time": 53.78566050000007,
          "velocity": 0.7559055118110236,
          "duration": 0.10714275000000129
        },
        {
          "name": "E5",
          "midi": 76,
          "time": 53.78566050000007,
          "velocity": 0.7559055118110236,
          "duration": 0.10714275000000129
        },
        {
          "name": "E6",
          "midi": 88,
          "time": 53.78566050000007,
          "velocity": 0.7559055118110236,
          "duration": 0.10714275000000129
        },
        {
          "name": "E7",
          "midi": 100,
          "time": 53.78566050000007,
          "velocity": 0.7559055118110236,
          "duration": 0.10714275000000129
        },
        {
          "name": "E8",
          "midi": 112,
          "time": 53.78566050000007,
          "velocity": 0.7559055118110236,
          "duration": 0.10714275000000129
        },
        {
          "name": "C1",
          "midi": 24,
          "time": 53.78566050000007,
          "velocity": 0.7874015748031497,
          "duration": 0.026785687500002098
        },
        {
          "name": "A#1",
          "midi": 34,
          "time": 53.78566050000007,
          "velocity": 0.7874015748031497,
          "duration": 0.026785687500002098
        },
        {
          "name": "C7",
          "midi": 96,
          "time": 54.21423150000007,
          "velocity": 0.7559055118110236,
          "duration": 0.07142850000000323
        },
        {
          "name": "C7",
          "midi": 96,
          "time": 54.28566000000007,
          "velocity": 0.7559055118110236,
          "duration": 0.07142850000000323
        },
        {
          "name": "C7",
          "midi": 96,
          "time": 54.357088500000074,
          "velocity": 0.7559055118110236,
          "duration": 0.07142850000000323
        },
        {
          "name": "C7",
          "midi": 96,
          "time": 54.42851700000008,
          "velocity": 0.7559055118110236,
          "duration": 0.07142850000000323
        },
        {
          "name": "C7",
          "midi": 96,
          "time": 54.49994550000008,
          "velocity": 0.7559055118110236,
          "duration": 0.07142850000000323
        },
        {
          "name": "C4",
          "midi": 60,
          "time": 54.85708800000008,
          "velocity": 0.7559055118110236,
          "duration": 0.10714275000000129
        },
        {
          "name": "E4",
          "midi": 64,
          "time": 54.85708800000008,
          "velocity": 0.7559055118110236,
          "duration": 0.10714275000000129
        },
        {
          "name": "C5",
          "midi": 72,
          "time": 54.85708800000008,
          "velocity": 0.7559055118110236,
          "duration": 0.10714275000000129
        },
        {
          "name": "E5",
          "midi": 76,
          "time": 54.85708800000008,
          "velocity": 0.7559055118110236,
          "duration": 0.10714275000000129
        },
        {
          "name": "C6",
          "midi": 84,
          "time": 54.85708800000008,
          "velocity": 0.7559055118110236,
          "duration": 0.10714275000000129
        },
        {
          "name": "E6",
          "midi": 88,
          "time": 54.85708800000008,
          "velocity": 0.7559055118110236,
          "duration": 0.10714275000000129
        },
        {
          "name": "C7",
          "midi": 96,
          "time": 54.85708800000008,
          "velocity": 0.7559055118110236,
          "duration": 0.10714275000000129
        },
        {
          "name": "E7",
          "midi": 100,
          "time": 54.85708800000008,
          "velocity": 0.7559055118110236,
          "duration": 0.10714275000000129
        },
        {
          "name": "C1",
          "midi": 24,
          "time": 54.85708800000008,
          "velocity": 0.7874015748031497,
          "duration": 0.026785687500002098
        },
        {
          "name": "C2",
          "midi": 36,
          "time": 54.85708800000008,
          "velocity": 0.7874015748031497,
          "duration": 0.026785687500002098
        },
        {
          "name": "D4",
          "midi": 62,
          "time": 55.071373500000085,
          "velocity": 0.7559055118110236,
          "duration": 0.10714275000000129
        },
        {
          "name": "D5",
          "midi": 74,
          "time": 55.071373500000085,
          "velocity": 0.7559055118110236,
          "duration": 0.10714275000000129
        },
        {
          "name": "D6",
          "midi": 86,
          "time": 55.071373500000085,
          "velocity": 0.7559055118110236,
          "duration": 0.10714275000000129
        },
        {
          "name": "D7",
          "midi": 98,
          "time": 55.071373500000085,
          "velocity": 0.7559055118110236,
          "duration": 0.10714275000000129
        },
        {
          "name": "F#1",
          "midi": 30,
          "time": 55.071373500000085,
          "velocity": 0.7874015748031497,
          "duration": 0.026785687500002098
        },
        {
          "name": "C4",
          "midi": 60,
          "time": 55.28565900000009,
          "velocity": 0.7559055118110236,
          "duration": 0.10714275000000129
        },
        {
          "name": "D4",
          "midi": 62,
          "time": 55.28565900000009,
          "velocity": 0.7559055118110236,
          "duration": 0.10714275000000129
        },
        {
          "name": "C5",
          "midi": 72,
          "time": 55.28565900000009,
          "velocity": 0.7559055118110236,
          "duration": 0.10714275000000129
        },
        {
          "name": "D5",
          "midi": 74,
          "time": 55.28565900000009,
          "velocity": 0.7559055118110236,
          "duration": 0.10714275000000129
        },
        {
          "name": "C6",
          "midi": 84,
          "time": 55.28565900000009,
          "velocity": 0.7559055118110236,
          "duration": 0.10714275000000129
        },
        {
          "name": "D6",
          "midi": 86,
          "time": 55.28565900000009,
          "velocity": 0.7559055118110236,
          "duration": 0.10714275000000129
        },
        {
          "name": "C7",
          "midi": 96,
          "time": 55.28565900000009,
          "velocity": 0.7559055118110236,
          "duration": 0.10714275000000129
        },
        {
          "name": "D7",
          "midi": 98,
          "time": 55.28565900000009,
          "velocity": 0.7559055118110236,
          "duration": 0.10714275000000129
        },
        {
          "name": "C1",
          "midi": 24,
          "time": 55.28565900000009,
          "velocity": 0.7874015748031497,
          "duration": 0.026785687500002098
        },
        {
          "name": "G1",
          "midi": 31,
          "time": 55.28565900000009,
          "velocity": 0.7874015748031497,
          "duration": 0.026785687500002098
        },
        {
          "name": "D4",
          "midi": 62,
          "time": 55.49994450000009,
          "velocity": 0.7559055118110236,
          "duration": 0.10714275000000129
        },
        {
          "name": "D5",
          "midi": 74,
          "time": 55.49994450000009,
          "velocity": 0.7559055118110236,
          "duration": 0.10714275000000129
        },
        {
          "name": "D6",
          "midi": 86,
          "time": 55.49994450000009,
          "velocity": 0.7559055118110236,
          "duration": 0.10714275000000129
        },
        {
          "name": "D7",
          "midi": 98,
          "time": 55.49994450000009,
          "velocity": 0.7559055118110236,
          "duration": 0.10714275000000129
        },
        {
          "name": "F#1",
          "midi": 30,
          "time": 55.49994450000009,
          "velocity": 0.7874015748031497,
          "duration": 0.026785687500002098
        },
        {
          "name": "C#4",
          "midi": 61,
          "time": 55.71423000000009,
          "velocity": 0.7559055118110236,
          "duration": 0.10714275000000129
        },
        {
          "name": "D4",
          "midi": 62,
          "time": 55.71423000000009,
          "velocity": 0.7559055118110236,
          "duration": 0.10714275000000129
        },
        {
          "name": "C#5",
          "midi": 73,
          "time": 55.71423000000009,
          "velocity": 0.7559055118110236,
          "duration": 0.10714275000000129
        },
        {
          "name": "D5",
          "midi": 74,
          "time": 55.71423000000009,
          "velocity": 0.7559055118110236,
          "duration": 0.10714275000000129
        },
        {
          "name": "C#6",
          "midi": 85,
          "time": 55.71423000000009,
          "velocity": 0.7559055118110236,
          "duration": 0.10714275000000129
        },
        {
          "name": "D6",
          "midi": 86,
          "time": 55.71423000000009,
          "velocity": 0.7559055118110236,
          "duration": 0.10714275000000129
        },
        {
          "name": "C#7",
          "midi": 97,
          "time": 55.71423000000009,
          "velocity": 0.7559055118110236,
          "duration": 0.10714275000000129
        },
        {
          "name": "D7",
          "midi": 98,
          "time": 55.71423000000009,
          "velocity": 0.7559055118110236,
          "duration": 0.10714275000000129
        },
        {
          "name": "G1",
          "midi": 31,
          "time": 55.71423000000009,
          "velocity": 0.7874015748031497,
          "duration": 0.026785687500002098
        },
        {
          "name": "D1",
          "midi": 26,
          "time": 55.71423000000009,
          "velocity": 0.7874015748031497,
          "duration": 0.026785687500002098
        },
        {
          "name": "D4",
          "midi": 62,
          "time": 55.928515500000096,
          "velocity": 0.7559055118110236,
          "duration": 0.10714275000000129
        },
        {
          "name": "D5",
          "midi": 74,
          "time": 55.928515500000096,
          "velocity": 0.7559055118110236,
          "duration": 0.10714275000000129
        },
        {
          "name": "D6",
          "midi": 86,
          "time": 55.928515500000096,
          "velocity": 0.7559055118110236,
          "duration": 0.10714275000000129
        },
        {
          "name": "D7",
          "midi": 98,
          "time": 55.928515500000096,
          "velocity": 0.7559055118110236,
          "duration": 0.10714275000000129
        },
        {
          "name": "G1",
          "midi": 31,
          "time": 55.928515500000096,
          "velocity": 0.7874015748031497,
          "duration": 0.026785687500002098
        },
        {
          "name": "C4",
          "midi": 60,
          "time": 56.1428010000001,
          "velocity": 0.7559055118110236,
          "duration": 0.10714275000000129
        },
        {
          "name": "D4",
          "midi": 62,
          "time": 56.1428010000001,
          "velocity": 0.7559055118110236,
          "duration": 0.10714275000000129
        },
        {
          "name": "C5",
          "midi": 72,
          "time": 56.1428010000001,
          "velocity": 0.7559055118110236,
          "duration": 0.10714275000000129
        },
        {
          "name": "D5",
          "midi": 74,
          "time": 56.1428010000001,
          "velocity": 0.7559055118110236,
          "duration": 0.10714275000000129
        },
        {
          "name": "C6",
          "midi": 84,
          "time": 56.1428010000001,
          "velocity": 0.7559055118110236,
          "duration": 0.10714275000000129
        },
        {
          "name": "D6",
          "midi": 86,
          "time": 56.1428010000001,
          "velocity": 0.7559055118110236,
          "duration": 0.10714275000000129
        },
        {
          "name": "C7",
          "midi": 96,
          "time": 56.1428010000001,
          "velocity": 0.7559055118110236,
          "duration": 0.10714275000000129
        },
        {
          "name": "D7",
          "midi": 98,
          "time": 56.1428010000001,
          "velocity": 0.7559055118110236,
          "duration": 0.10714275000000129
        },
        {
          "name": "C1",
          "midi": 24,
          "time": 56.1428010000001,
          "velocity": 0.7874015748031497,
          "duration": 0.026785687500002098
        },
        {
          "name": "F#1",
          "midi": 30,
          "time": 56.1428010000001,
          "velocity": 0.7874015748031497,
          "duration": 0.026785687500002098
        },
        {
          "name": "C4",
          "midi": 60,
          "time": 56.3570865000001,
          "velocity": 0.7559055118110236,
          "duration": 0.10714275000000129
        },
        {
          "name": "D4",
          "midi": 62,
          "time": 56.3570865000001,
          "velocity": 0.7559055118110236,
          "duration": 0.10714275000000129
        },
        {
          "name": "C5",
          "midi": 72,
          "time": 56.3570865000001,
          "velocity": 0.7559055118110236,
          "duration": 0.10714275000000129
        },
        {
          "name": "D5",
          "midi": 74,
          "time": 56.3570865000001,
          "velocity": 0.7559055118110236,
          "duration": 0.10714275000000129
        },
        {
          "name": "C6",
          "midi": 84,
          "time": 56.3570865000001,
          "velocity": 0.7559055118110236,
          "duration": 0.10714275000000129
        },
        {
          "name": "D6",
          "midi": 86,
          "time": 56.3570865000001,
          "velocity": 0.7559055118110236,
          "duration": 0.10714275000000129
        },
        {
          "name": "C7",
          "midi": 96,
          "time": 56.3570865000001,
          "velocity": 0.7559055118110236,
          "duration": 0.10714275000000129
        },
        {
          "name": "D7",
          "midi": 98,
          "time": 56.3570865000001,
          "velocity": 0.7559055118110236,
          "duration": 0.10714275000000129
        },
        {
          "name": "C1",
          "midi": 24,
          "time": 56.3570865000001,
          "velocity": 0.7874015748031497,
          "duration": 0.026785687500002098
        },
        {
          "name": "G1",
          "midi": 31,
          "time": 56.3570865000001,
          "velocity": 0.7874015748031497,
          "duration": 0.026785687500002098
        },
        {
          "name": "D4",
          "midi": 62,
          "time": 56.5713720000001,
          "velocity": 0.7559055118110236,
          "duration": 0.10714275000000129
        },
        {
          "name": "D5",
          "midi": 74,
          "time": 56.5713720000001,
          "velocity": 0.7559055118110236,
          "duration": 0.10714275000000129
        },
        {
          "name": "D6",
          "midi": 86,
          "time": 56.5713720000001,
          "velocity": 0.7559055118110236,
          "duration": 0.10714275000000129
        },
        {
          "name": "D7",
          "midi": 98,
          "time": 56.5713720000001,
          "velocity": 0.7559055118110236,
          "duration": 0.10714275000000129
        },
        {
          "name": "F#1",
          "midi": 30,
          "time": 56.5713720000001,
          "velocity": 0.7874015748031497,
          "duration": 0.026785687500002098
        },
        {
          "name": "C4",
          "midi": 60,
          "time": 56.785657500000106,
          "velocity": 0.7559055118110236,
          "duration": 0.10714275000000129
        },
        {
          "name": "D4",
          "midi": 62,
          "time": 56.785657500000106,
          "velocity": 0.7559055118110236,
          "duration": 0.10714275000000129
        },
        {
          "name": "C5",
          "midi": 72,
          "time": 56.785657500000106,
          "velocity": 0.7559055118110236,
          "duration": 0.10714275000000129
        },
        {
          "name": "D5",
          "midi": 74,
          "time": 56.785657500000106,
          "velocity": 0.7559055118110236,
          "duration": 0.10714275000000129
        },
        {
          "name": "C6",
          "midi": 84,
          "time": 56.785657500000106,
          "velocity": 0.7559055118110236,
          "duration": 0.10714275000000129
        },
        {
          "name": "D6",
          "midi": 86,
          "time": 56.785657500000106,
          "velocity": 0.7559055118110236,
          "duration": 0.10714275000000129
        },
        {
          "name": "C7",
          "midi": 96,
          "time": 56.785657500000106,
          "velocity": 0.7559055118110236,
          "duration": 0.10714275000000129
        },
        {
          "name": "D7",
          "midi": 98,
          "time": 56.785657500000106,
          "velocity": 0.7559055118110236,
          "duration": 0.10714275000000129
        },
        {
          "name": "C1",
          "midi": 24,
          "time": 56.785657500000106,
          "velocity": 0.7874015748031497,
          "duration": 0.026785687500002098
        },
        {
          "name": "G1",
          "midi": 31,
          "time": 56.785657500000106,
          "velocity": 0.7874015748031497,
          "duration": 0.026785687500002098
        },
        {
          "name": "C4",
          "midi": 60,
          "time": 56.99994300000011,
          "velocity": 0.7559055118110236,
          "duration": 0.10714275000000129
        },
        {
          "name": "D4",
          "midi": 62,
          "time": 56.99994300000011,
          "velocity": 0.7559055118110236,
          "duration": 0.10714275000000129
        },
        {
          "name": "C5",
          "midi": 72,
          "time": 56.99994300000011,
          "velocity": 0.7559055118110236,
          "duration": 0.10714275000000129
        },
        {
          "name": "D5",
          "midi": 74,
          "time": 56.99994300000011,
          "velocity": 0.7559055118110236,
          "duration": 0.10714275000000129
        },
        {
          "name": "C6",
          "midi": 84,
          "time": 56.99994300000011,
          "velocity": 0.7559055118110236,
          "duration": 0.10714275000000129
        },
        {
          "name": "D6",
          "midi": 86,
          "time": 56.99994300000011,
          "velocity": 0.7559055118110236,
          "duration": 0.10714275000000129
        },
        {
          "name": "C7",
          "midi": 96,
          "time": 56.99994300000011,
          "velocity": 0.7559055118110236,
          "duration": 0.10714275000000129
        },
        {
          "name": "D7",
          "midi": 98,
          "time": 56.99994300000011,
          "velocity": 0.7559055118110236,
          "duration": 0.10714275000000129
        },
        {
          "name": "C1",
          "midi": 24,
          "time": 56.99994300000011,
          "velocity": 0.7874015748031497,
          "duration": 0.026785687500002098
        },
        {
          "name": "F#1",
          "midi": 30,
          "time": 56.99994300000011,
          "velocity": 0.7874015748031497,
          "duration": 0.026785687500002098
        },
        {
          "name": "D4",
          "midi": 62,
          "time": 57.21422850000011,
          "velocity": 0.7559055118110236,
          "duration": 0.10714275000000129
        },
        {
          "name": "D5",
          "midi": 74,
          "time": 57.21422850000011,
          "velocity": 0.7559055118110236,
          "duration": 0.10714275000000129
        },
        {
          "name": "D6",
          "midi": 86,
          "time": 57.21422850000011,
          "velocity": 0.7559055118110236,
          "duration": 0.10714275000000129
        },
        {
          "name": "D7",
          "midi": 98,
          "time": 57.21422850000011,
          "velocity": 0.7559055118110236,
          "duration": 0.10714275000000129
        },
        {
          "name": "G1",
          "midi": 31,
          "time": 57.21422850000011,
          "velocity": 0.7874015748031497,
          "duration": 0.026785687500002098
        },
        {
          "name": "C#4",
          "midi": 61,
          "time": 57.42851400000011,
          "velocity": 0.7559055118110236,
          "duration": 0.10714275000000129
        },
        {
          "name": "D4",
          "midi": 62,
          "time": 57.42851400000011,
          "velocity": 0.7559055118110236,
          "duration": 0.10714275000000129
        },
        {
          "name": "C#5",
          "midi": 73,
          "time": 57.42851400000011,
          "velocity": 0.7559055118110236,
          "duration": 0.10714275000000129
        },
        {
          "name": "D5",
          "midi": 74,
          "time": 57.42851400000011,
          "velocity": 0.7559055118110236,
          "duration": 0.10714275000000129
        },
        {
          "name": "C#6",
          "midi": 85,
          "time": 57.42851400000011,
          "velocity": 0.7559055118110236,
          "duration": 0.10714275000000129
        },
        {
          "name": "D6",
          "midi": 86,
          "time": 57.42851400000011,
          "velocity": 0.7559055118110236,
          "duration": 0.10714275000000129
        },
        {
          "name": "C#7",
          "midi": 97,
          "time": 57.42851400000011,
          "velocity": 0.7559055118110236,
          "duration": 0.10714275000000129
        },
        {
          "name": "D7",
          "midi": 98,
          "time": 57.42851400000011,
          "velocity": 0.7559055118110236,
          "duration": 0.10714275000000129
        },
        {
          "name": "G1",
          "midi": 31,
          "time": 57.42851400000011,
          "velocity": 0.7874015748031497,
          "duration": 0.026785687500002098
        },
        {
          "name": "D1",
          "midi": 26,
          "time": 57.42851400000011,
          "velocity": 0.7874015748031497,
          "duration": 0.026785687500002098
        },
        {
          "name": "D4",
          "midi": 62,
          "time": 57.642799500000116,
          "velocity": 0.7559055118110236,
          "duration": 0.10714275000000129
        },
        {
          "name": "D5",
          "midi": 74,
          "time": 57.642799500000116,
          "velocity": 0.7559055118110236,
          "duration": 0.10714275000000129
        },
        {
          "name": "D6",
          "midi": 86,
          "time": 57.642799500000116,
          "velocity": 0.7559055118110236,
          "duration": 0.10714275000000129
        },
        {
          "name": "D7",
          "midi": 98,
          "time": 57.642799500000116,
          "velocity": 0.7559055118110236,
          "duration": 0.10714275000000129
        },
        {
          "name": "G1",
          "midi": 31,
          "time": 57.642799500000116,
          "velocity": 0.7874015748031497,
          "duration": 0.026785687500002098
        },
        {
          "name": "D#4",
          "midi": 63,
          "time": 57.85708500000012,
          "velocity": 0.7559055118110236,
          "duration": 0.10714275000000129
        },
        {
          "name": "D#5",
          "midi": 75,
          "time": 57.85708500000012,
          "velocity": 0.7559055118110236,
          "duration": 0.10714275000000129
        },
        {
          "name": "D#6",
          "midi": 87,
          "time": 57.85708500000012,
          "velocity": 0.7559055118110236,
          "duration": 0.10714275000000129
        },
        {
          "name": "D#7",
          "midi": 99,
          "time": 57.85708500000012,
          "velocity": 0.7559055118110236,
          "duration": 0.10714275000000129
        },
        {
          "name": "B1",
          "midi": 35,
          "time": 57.85708500000012,
          "velocity": 0.7874015748031497,
          "duration": 0.026785687500002098
        },
        {
          "name": "C4",
          "midi": 60,
          "time": 58.07137050000012,
          "velocity": 0.7559055118110236,
          "duration": 0.10714275000000129
        },
        {
          "name": "D4",
          "midi": 62,
          "time": 58.07137050000012,
          "velocity": 0.7559055118110236,
          "duration": 0.10714275000000129
        },
        {
          "name": "C5",
          "midi": 72,
          "time": 58.07137050000012,
          "velocity": 0.7559055118110236,
          "duration": 0.10714275000000129
        },
        {
          "name": "D5",
          "midi": 74,
          "time": 58.07137050000012,
          "velocity": 0.7559055118110236,
          "duration": 0.10714275000000129
        },
        {
          "name": "C6",
          "midi": 84,
          "time": 58.07137050000012,
          "velocity": 0.7559055118110236,
          "duration": 0.10714275000000129
        },
        {
          "name": "D6",
          "midi": 86,
          "time": 58.07137050000012,
          "velocity": 0.7559055118110236,
          "duration": 0.10714275000000129
        },
        {
          "name": "C7",
          "midi": 96,
          "time": 58.07137050000012,
          "velocity": 0.7559055118110236,
          "duration": 0.10714275000000129
        },
        {
          "name": "D7",
          "midi": 98,
          "time": 58.07137050000012,
          "velocity": 0.7559055118110236,
          "duration": 0.10714275000000129
        },
        {
          "name": "C1",
          "midi": 24,
          "time": 58.07137050000012,
          "velocity": 0.7874015748031497,
          "duration": 0.026785687500002098
        },
        {
          "name": "G1",
          "midi": 31,
          "time": 58.07137050000012,
          "velocity": 0.7874015748031497,
          "duration": 0.026785687500002098
        },
        {
          "name": "C4",
          "midi": 60,
          "time": 58.285656000000124,
          "velocity": 0.7559055118110236,
          "duration": 0.10714275000000129
        },
        {
          "name": "D4",
          "midi": 62,
          "time": 58.285656000000124,
          "velocity": 0.7559055118110236,
          "duration": 0.10714275000000129
        },
        {
          "name": "C5",
          "midi": 72,
          "time": 58.285656000000124,
          "velocity": 0.7559055118110236,
          "duration": 0.10714275000000129
        },
        {
          "name": "D5",
          "midi": 74,
          "time": 58.285656000000124,
          "velocity": 0.7559055118110236,
          "duration": 0.10714275000000129
        },
        {
          "name": "C6",
          "midi": 84,
          "time": 58.285656000000124,
          "velocity": 0.7559055118110236,
          "duration": 0.10714275000000129
        },
        {
          "name": "D6",
          "midi": 86,
          "time": 58.285656000000124,
          "velocity": 0.7559055118110236,
          "duration": 0.10714275000000129
        },
        {
          "name": "C7",
          "midi": 96,
          "time": 58.285656000000124,
          "velocity": 0.7559055118110236,
          "duration": 0.10714275000000129
        },
        {
          "name": "D7",
          "midi": 98,
          "time": 58.285656000000124,
          "velocity": 0.7559055118110236,
          "duration": 0.10714275000000129
        },
        {
          "name": "C1",
          "midi": 24,
          "time": 58.285656000000124,
          "velocity": 0.7874015748031497,
          "duration": 0.026785687500002098
        },
        {
          "name": "F#1",
          "midi": 30,
          "time": 58.285656000000124,
          "velocity": 0.7874015748031497,
          "duration": 0.026785687500002098
        },
        {
          "name": "D#4",
          "midi": 63,
          "time": 58.499941500000126,
          "velocity": 0.7559055118110236,
          "duration": 0.10714275000000129
        },
        {
          "name": "D#5",
          "midi": 75,
          "time": 58.499941500000126,
          "velocity": 0.7559055118110236,
          "duration": 0.10714275000000129
        },
        {
          "name": "D#6",
          "midi": 87,
          "time": 58.499941500000126,
          "velocity": 0.7559055118110236,
          "duration": 0.10714275000000129
        },
        {
          "name": "D#7",
          "midi": 99,
          "time": 58.499941500000126,
          "velocity": 0.7559055118110236,
          "duration": 0.10714275000000129
        },
        {
          "name": "F#2",
          "midi": 42,
          "time": 58.499941500000126,
          "velocity": 0.7874015748031497,
          "duration": 0.026785687500002098
        },
        {
          "name": "C4",
          "midi": 60,
          "time": 58.71422700000013,
          "velocity": 0.7559055118110236,
          "duration": 0.10714275000000129
        },
        {
          "name": "D4",
          "midi": 62,
          "time": 58.71422700000013,
          "velocity": 0.7559055118110236,
          "duration": 0.10714275000000129
        },
        {
          "name": "C5",
          "midi": 72,
          "time": 58.71422700000013,
          "velocity": 0.7559055118110236,
          "duration": 0.10714275000000129
        },
        {
          "name": "D5",
          "midi": 74,
          "time": 58.71422700000013,
          "velocity": 0.7559055118110236,
          "duration": 0.10714275000000129
        },
        {
          "name": "C6",
          "midi": 84,
          "time": 58.71422700000013,
          "velocity": 0.7559055118110236,
          "duration": 0.10714275000000129
        },
        {
          "name": "D6",
          "midi": 86,
          "time": 58.71422700000013,
          "velocity": 0.7559055118110236,
          "duration": 0.10714275000000129
        },
        {
          "name": "C7",
          "midi": 96,
          "time": 58.71422700000013,
          "velocity": 0.7559055118110236,
          "duration": 0.10714275000000129
        },
        {
          "name": "D7",
          "midi": 98,
          "time": 58.71422700000013,
          "velocity": 0.7559055118110236,
          "duration": 0.10714275000000129
        },
        {
          "name": "C1",
          "midi": 24,
          "time": 58.71422700000013,
          "velocity": 0.7874015748031497,
          "duration": 0.026785687500002098
        },
        {
          "name": "F#1",
          "midi": 30,
          "time": 58.71422700000013,
          "velocity": 0.7874015748031497,
          "duration": 0.026785687500002098
        },
        {
          "name": "D4",
          "midi": 62,
          "time": 58.92851250000013,
          "velocity": 0.7559055118110236,
          "duration": 0.10714275000000129
        },
        {
          "name": "D5",
          "midi": 74,
          "time": 58.92851250000013,
          "velocity": 0.7559055118110236,
          "duration": 0.10714275000000129
        },
        {
          "name": "D6",
          "midi": 86,
          "time": 58.92851250000013,
          "velocity": 0.7559055118110236,
          "duration": 0.10714275000000129
        },
        {
          "name": "D7",
          "midi": 98,
          "time": 58.92851250000013,
          "velocity": 0.7559055118110236,
          "duration": 0.10714275000000129
        },
        {
          "name": "G1",
          "midi": 31,
          "time": 58.92851250000013,
          "velocity": 0.7874015748031497,
          "duration": 0.026785687500002098
        },
        {
          "name": "C#4",
          "midi": 61,
          "time": 59.142798000000134,
          "velocity": 0.7559055118110236,
          "duration": 0.10714275000000129
        },
        {
          "name": "D4",
          "midi": 62,
          "time": 59.142798000000134,
          "velocity": 0.7559055118110236,
          "duration": 0.10714275000000129
        },
        {
          "name": "C#5",
          "midi": 73,
          "time": 59.142798000000134,
          "velocity": 0.7559055118110236,
          "duration": 0.10714275000000129
        },
        {
          "name": "D5",
          "midi": 74,
          "time": 59.142798000000134,
          "velocity": 0.7559055118110236,
          "duration": 0.10714275000000129
        },
        {
          "name": "C#6",
          "midi": 85,
          "time": 59.142798000000134,
          "velocity": 0.7559055118110236,
          "duration": 0.10714275000000129
        },
        {
          "name": "D6",
          "midi": 86,
          "time": 59.142798000000134,
          "velocity": 0.7559055118110236,
          "duration": 0.10714275000000129
        },
        {
          "name": "C#7",
          "midi": 97,
          "time": 59.142798000000134,
          "velocity": 0.7559055118110236,
          "duration": 0.10714275000000129
        },
        {
          "name": "D7",
          "midi": 98,
          "time": 59.142798000000134,
          "velocity": 0.7559055118110236,
          "duration": 0.10714275000000129
        },
        {
          "name": "G1",
          "midi": 31,
          "time": 59.142798000000134,
          "velocity": 0.7874015748031497,
          "duration": 0.026785687500002098
        },
        {
          "name": "D1",
          "midi": 26,
          "time": 59.142798000000134,
          "velocity": 0.7874015748031497,
          "duration": 0.026785687500002098
        },
        {
          "name": "D4",
          "midi": 62,
          "time": 59.35708350000014,
          "velocity": 0.7559055118110236,
          "duration": 0.10714275000000129
        },
        {
          "name": "D5",
          "midi": 74,
          "time": 59.35708350000014,
          "velocity": 0.7559055118110236,
          "duration": 0.10714275000000129
        },
        {
          "name": "D6",
          "midi": 86,
          "time": 59.35708350000014,
          "velocity": 0.7559055118110236,
          "duration": 0.10714275000000129
        },
        {
          "name": "D7",
          "midi": 98,
          "time": 59.35708350000014,
          "velocity": 0.7559055118110236,
          "duration": 0.10714275000000129
        },
        {
          "name": "G1",
          "midi": 31,
          "time": 59.35708350000014,
          "velocity": 0.7874015748031497,
          "duration": 0.026785687500002098
        },
        {
          "name": "C4",
          "midi": 60,
          "time": 59.57136900000014,
          "velocity": 0.7559055118110236,
          "duration": 0.10714275000000129
        },
        {
          "name": "D4",
          "midi": 62,
          "time": 59.57136900000014,
          "velocity": 0.7559055118110236,
          "duration": 0.10714275000000129
        },
        {
          "name": "C5",
          "midi": 72,
          "time": 59.57136900000014,
          "velocity": 0.7559055118110236,
          "duration": 0.10714275000000129
        },
        {
          "name": "D5",
          "midi": 74,
          "time": 59.57136900000014,
          "velocity": 0.7559055118110236,
          "duration": 0.10714275000000129
        },
        {
          "name": "C6",
          "midi": 84,
          "time": 59.57136900000014,
          "velocity": 0.7559055118110236,
          "duration": 0.10714275000000129
        },
        {
          "name": "D6",
          "midi": 86,
          "time": 59.57136900000014,
          "velocity": 0.7559055118110236,
          "duration": 0.10714275000000129
        },
        {
          "name": "C7",
          "midi": 96,
          "time": 59.57136900000014,
          "velocity": 0.7559055118110236,
          "duration": 0.10714275000000129
        },
        {
          "name": "D7",
          "midi": 98,
          "time": 59.57136900000014,
          "velocity": 0.7559055118110236,
          "duration": 0.10714275000000129
        },
        {
          "name": "C1",
          "midi": 24,
          "time": 59.57136900000014,
          "velocity": 0.7874015748031497,
          "duration": 0.026785687500002098
        },
        {
          "name": "F#1",
          "midi": 30,
          "time": 59.57136900000014,
          "velocity": 0.7874015748031497,
          "duration": 0.026785687500002098
        },
        {
          "name": "C4",
          "midi": 60,
          "time": 59.78565450000014,
          "velocity": 0.7559055118110236,
          "duration": 0.10714275000000129
        },
        {
          "name": "D4",
          "midi": 62,
          "time": 59.78565450000014,
          "velocity": 0.7559055118110236,
          "duration": 0.10714275000000129
        },
        {
          "name": "C5",
          "midi": 72,
          "time": 59.78565450000014,
          "velocity": 0.7559055118110236,
          "duration": 0.10714275000000129
        },
        {
          "name": "D5",
          "midi": 74,
          "time": 59.78565450000014,
          "velocity": 0.7559055118110236,
          "duration": 0.10714275000000129
        },
        {
          "name": "C6",
          "midi": 84,
          "time": 59.78565450000014,
          "velocity": 0.7559055118110236,
          "duration": 0.10714275000000129
        },
        {
          "name": "D6",
          "midi": 86,
          "time": 59.78565450000014,
          "velocity": 0.7559055118110236,
          "duration": 0.10714275000000129
        },
        {
          "name": "C7",
          "midi": 96,
          "time": 59.78565450000014,
          "velocity": 0.7559055118110236,
          "duration": 0.10714275000000129
        },
        {
          "name": "D7",
          "midi": 98,
          "time": 59.78565450000014,
          "velocity": 0.7559055118110236,
          "duration": 0.10714275000000129
        },
        {
          "name": "C1",
          "midi": 24,
          "time": 59.78565450000014,
          "velocity": 0.7874015748031497,
          "duration": 0.026785687500002098
        },
        {
          "name": "G1",
          "midi": 31,
          "time": 59.78565450000014,
          "velocity": 0.7874015748031497,
          "duration": 0.026785687500002098
        },
        {
          "name": "D4",
          "midi": 62,
          "time": 59.999940000000144,
          "velocity": 0.7559055118110236,
          "duration": 0.10714275000000129
        },
        {
          "name": "D5",
          "midi": 74,
          "time": 59.999940000000144,
          "velocity": 0.7559055118110236,
          "duration": 0.10714275000000129
        },
        {
          "name": "D6",
          "midi": 86,
          "time": 59.999940000000144,
          "velocity": 0.7559055118110236,
          "duration": 0.10714275000000129
        },
        {
          "name": "D7",
          "midi": 98,
          "time": 59.999940000000144,
          "velocity": 0.7559055118110236,
          "duration": 0.10714275000000129
        },
        {
          "name": "F#1",
          "midi": 30,
          "time": 59.999940000000144,
          "velocity": 0.7874015748031497,
          "duration": 0.026785687500002098
        },
        {
          "name": "C4",
          "midi": 60,
          "time": 60.21422550000015,
          "velocity": 0.7559055118110236,
          "duration": 0.10714275000000129
        },
        {
          "name": "D4",
          "midi": 62,
          "time": 60.21422550000015,
          "velocity": 0.7559055118110236,
          "duration": 0.10714275000000129
        },
        {
          "name": "C5",
          "midi": 72,
          "time": 60.21422550000015,
          "velocity": 0.7559055118110236,
          "duration": 0.10714275000000129
        },
        {
          "name": "D5",
          "midi": 74,
          "time": 60.21422550000015,
          "velocity": 0.7559055118110236,
          "duration": 0.10714275000000129
        },
        {
          "name": "C6",
          "midi": 84,
          "time": 60.21422550000015,
          "velocity": 0.7559055118110236,
          "duration": 0.10714275000000129
        },
        {
          "name": "D6",
          "midi": 86,
          "time": 60.21422550000015,
          "velocity": 0.7559055118110236,
          "duration": 0.10714275000000129
        },
        {
          "name": "C7",
          "midi": 96,
          "time": 60.21422550000015,
          "velocity": 0.7559055118110236,
          "duration": 0.10714275000000129
        },
        {
          "name": "D7",
          "midi": 98,
          "time": 60.21422550000015,
          "velocity": 0.7559055118110236,
          "duration": 0.10714275000000129
        },
        {
          "name": "C1",
          "midi": 24,
          "time": 60.21422550000015,
          "velocity": 0.7874015748031497,
          "duration": 0.026785687500002098
        },
        {
          "name": "G1",
          "midi": 31,
          "time": 60.21422550000015,
          "velocity": 0.7874015748031497,
          "duration": 0.026785687500002098
        },
        {
          "name": "C4",
          "midi": 60,
          "time": 60.42851100000015,
          "velocity": 0.7559055118110236,
          "duration": 0.10714275000000129
        },
        {
          "name": "D4",
          "midi": 62,
          "time": 60.42851100000015,
          "velocity": 0.7559055118110236,
          "duration": 0.10714275000000129
        },
        {
          "name": "C5",
          "midi": 72,
          "time": 60.42851100000015,
          "velocity": 0.7559055118110236,
          "duration": 0.10714275000000129
        },
        {
          "name": "D5",
          "midi": 74,
          "time": 60.42851100000015,
          "velocity": 0.7559055118110236,
          "duration": 0.10714275000000129
        },
        {
          "name": "C6",
          "midi": 84,
          "time": 60.42851100000015,
          "velocity": 0.7559055118110236,
          "duration": 0.10714275000000129
        },
        {
          "name": "D6",
          "midi": 86,
          "time": 60.42851100000015,
          "velocity": 0.7559055118110236,
          "duration": 0.10714275000000129
        },
        {
          "name": "C7",
          "midi": 96,
          "time": 60.42851100000015,
          "velocity": 0.7559055118110236,
          "duration": 0.10714275000000129
        },
        {
          "name": "D7",
          "midi": 98,
          "time": 60.42851100000015,
          "velocity": 0.7559055118110236,
          "duration": 0.10714275000000129
        },
        {
          "name": "C1",
          "midi": 24,
          "time": 60.42851100000015,
          "velocity": 0.7874015748031497,
          "duration": 0.026785687500002098
        },
        {
          "name": "F#1",
          "midi": 30,
          "time": 60.42851100000015,
          "velocity": 0.7874015748031497,
          "duration": 0.026785687500002098
        },
        {
          "name": "D4",
          "midi": 62,
          "time": 60.64279650000015,
          "velocity": 0.7559055118110236,
          "duration": 0.10714275000000129
        },
        {
          "name": "D5",
          "midi": 74,
          "time": 60.64279650000015,
          "velocity": 0.7559055118110236,
          "duration": 0.10714275000000129
        },
        {
          "name": "D6",
          "midi": 86,
          "time": 60.64279650000015,
          "velocity": 0.7559055118110236,
          "duration": 0.10714275000000129
        },
        {
          "name": "D7",
          "midi": 98,
          "time": 60.64279650000015,
          "velocity": 0.7559055118110236,
          "duration": 0.10714275000000129
        },
        {
          "name": "G1",
          "midi": 31,
          "time": 60.64279650000015,
          "velocity": 0.7874015748031497,
          "duration": 0.026785687500002098
        },
        {
          "name": "C#4",
          "midi": 61,
          "time": 60.857082000000155,
          "velocity": 0.7559055118110236,
          "duration": 0.10714275000000129
        },
        {
          "name": "D4",
          "midi": 62,
          "time": 60.857082000000155,
          "velocity": 0.7559055118110236,
          "duration": 0.10714275000000129
        },
        {
          "name": "C#5",
          "midi": 73,
          "time": 60.857082000000155,
          "velocity": 0.7559055118110236,
          "duration": 0.10714275000000129
        },
        {
          "name": "D5",
          "midi": 74,
          "time": 60.857082000000155,
          "velocity": 0.7559055118110236,
          "duration": 0.10714275000000129
        },
        {
          "name": "C#6",
          "midi": 85,
          "time": 60.857082000000155,
          "velocity": 0.7559055118110236,
          "duration": 0.10714275000000129
        },
        {
          "name": "D6",
          "midi": 86,
          "time": 60.857082000000155,
          "velocity": 0.7559055118110236,
          "duration": 0.10714275000000129
        },
        {
          "name": "C#7",
          "midi": 97,
          "time": 60.857082000000155,
          "velocity": 0.7559055118110236,
          "duration": 0.10714275000000129
        },
        {
          "name": "D7",
          "midi": 98,
          "time": 60.857082000000155,
          "velocity": 0.7559055118110236,
          "duration": 0.10714275000000129
        },
        {
          "name": "G1",
          "midi": 31,
          "time": 60.857082000000155,
          "velocity": 0.7874015748031497,
          "duration": 0.026785687500002098
        },
        {
          "name": "D1",
          "midi": 26,
          "time": 60.857082000000155,
          "velocity": 0.7874015748031497,
          "duration": 0.026785687500002098
        },
        {
          "name": "D4",
          "midi": 62,
          "time": 61.07136750000016,
          "velocity": 0.7559055118110236,
          "duration": 0.10714275000000129
        },
        {
          "name": "D5",
          "midi": 74,
          "time": 61.07136750000016,
          "velocity": 0.7559055118110236,
          "duration": 0.10714275000000129
        },
        {
          "name": "D6",
          "midi": 86,
          "time": 61.07136750000016,
          "velocity": 0.7559055118110236,
          "duration": 0.10714275000000129
        },
        {
          "name": "D7",
          "midi": 98,
          "time": 61.07136750000016,
          "velocity": 0.7559055118110236,
          "duration": 0.10714275000000129
        },
        {
          "name": "G1",
          "midi": 31,
          "time": 61.07136750000016,
          "velocity": 0.7874015748031497,
          "duration": 0.026785687500002098
        },
        {
          "name": "D#4",
          "midi": 63,
          "time": 61.28565300000016,
          "velocity": 0.7559055118110236,
          "duration": 0.10714275000000129
        },
        {
          "name": "D#5",
          "midi": 75,
          "time": 61.28565300000016,
          "velocity": 0.7559055118110236,
          "duration": 0.10714275000000129
        },
        {
          "name": "D#6",
          "midi": 87,
          "time": 61.28565300000016,
          "velocity": 0.7559055118110236,
          "duration": 0.10714275000000129
        },
        {
          "name": "D#7",
          "midi": 99,
          "time": 61.28565300000016,
          "velocity": 0.7559055118110236,
          "duration": 0.10714275000000129
        },
        {
          "name": "B1",
          "midi": 35,
          "time": 61.28565300000016,
          "velocity": 0.7874015748031497,
          "duration": 0.026785687500002098
        },
        {
          "name": "C4",
          "midi": 60,
          "time": 61.49993850000016,
          "velocity": 0.7559055118110236,
          "duration": 0.10714275000000129
        },
        {
          "name": "D4",
          "midi": 62,
          "time": 61.49993850000016,
          "velocity": 0.7559055118110236,
          "duration": 0.10714275000000129
        },
        {
          "name": "C5",
          "midi": 72,
          "time": 61.49993850000016,
          "velocity": 0.7559055118110236,
          "duration": 0.10714275000000129
        },
        {
          "name": "D5",
          "midi": 74,
          "time": 61.49993850000016,
          "velocity": 0.7559055118110236,
          "duration": 0.10714275000000129
        },
        {
          "name": "C6",
          "midi": 84,
          "time": 61.49993850000016,
          "velocity": 0.7559055118110236,
          "duration": 0.10714275000000129
        },
        {
          "name": "D6",
          "midi": 86,
          "time": 61.49993850000016,
          "velocity": 0.7559055118110236,
          "duration": 0.10714275000000129
        },
        {
          "name": "C7",
          "midi": 96,
          "time": 61.49993850000016,
          "velocity": 0.7559055118110236,
          "duration": 0.10714275000000129
        },
        {
          "name": "D7",
          "midi": 98,
          "time": 61.49993850000016,
          "velocity": 0.7559055118110236,
          "duration": 0.10714275000000129
        },
        {
          "name": "C1",
          "midi": 24,
          "time": 61.49993850000016,
          "velocity": 0.7874015748031497,
          "duration": 0.026785687500002098
        },
        {
          "name": "G1",
          "midi": 31,
          "time": 61.49993850000016,
          "velocity": 0.7874015748031497,
          "duration": 0.026785687500002098
        },
        {
          "name": "C4",
          "midi": 60,
          "time": 61.714224000000165,
          "velocity": 0.7559055118110236,
          "duration": 0.10714275000000129
        },
        {
          "name": "D4",
          "midi": 62,
          "time": 61.714224000000165,
          "velocity": 0.7559055118110236,
          "duration": 0.10714275000000129
        },
        {
          "name": "C5",
          "midi": 72,
          "time": 61.714224000000165,
          "velocity": 0.7559055118110236,
          "duration": 0.10714275000000129
        },
        {
          "name": "D5",
          "midi": 74,
          "time": 61.714224000000165,
          "velocity": 0.7559055118110236,
          "duration": 0.10714275000000129
        },
        {
          "name": "C6",
          "midi": 84,
          "time": 61.714224000000165,
          "velocity": 0.7559055118110236,
          "duration": 0.10714275000000129
        },
        {
          "name": "D6",
          "midi": 86,
          "time": 61.714224000000165,
          "velocity": 0.7559055118110236,
          "duration": 0.10714275000000129
        },
        {
          "name": "C7",
          "midi": 96,
          "time": 61.714224000000165,
          "velocity": 0.7559055118110236,
          "duration": 0.10714275000000129
        },
        {
          "name": "D7",
          "midi": 98,
          "time": 61.714224000000165,
          "velocity": 0.7559055118110236,
          "duration": 0.10714275000000129
        },
        {
          "name": "C1",
          "midi": 24,
          "time": 61.714224000000165,
          "velocity": 0.7874015748031497,
          "duration": 0.026785687500002098
        },
        {
          "name": "F#1",
          "midi": 30,
          "time": 61.714224000000165,
          "velocity": 0.7874015748031497,
          "duration": 0.026785687500002098
        },
        {
          "name": "D#4",
          "midi": 63,
          "time": 61.92850950000017,
          "velocity": 0.7559055118110236,
          "duration": 0.10714275000000129
        },
        {
          "name": "D#5",
          "midi": 75,
          "time": 61.92850950000017,
          "velocity": 0.7559055118110236,
          "duration": 0.10714275000000129
        },
        {
          "name": "D#6",
          "midi": 87,
          "time": 61.92850950000017,
          "velocity": 0.7559055118110236,
          "duration": 0.10714275000000129
        },
        {
          "name": "D#7",
          "midi": 99,
          "time": 61.92850950000017,
          "velocity": 0.7559055118110236,
          "duration": 0.10714275000000129
        },
        {
          "name": "F#2",
          "midi": 42,
          "time": 61.92850950000017,
          "velocity": 0.7874015748031497,
          "duration": 0.026785687500002098
        },
        {
          "name": "C4",
          "midi": 60,
          "time": 62.14279500000017,
          "velocity": 0.7559055118110236,
          "duration": 0.10714275000000129
        },
        {
          "name": "D4",
          "midi": 62,
          "time": 62.14279500000017,
          "velocity": 0.7559055118110236,
          "duration": 0.10714275000000129
        },
        {
          "name": "C5",
          "midi": 72,
          "time": 62.14279500000017,
          "velocity": 0.7559055118110236,
          "duration": 0.10714275000000129
        },
        {
          "name": "D5",
          "midi": 74,
          "time": 62.14279500000017,
          "velocity": 0.7559055118110236,
          "duration": 0.10714275000000129
        },
        {
          "name": "C6",
          "midi": 84,
          "time": 62.14279500000017,
          "velocity": 0.7559055118110236,
          "duration": 0.10714275000000129
        },
        {
          "name": "D6",
          "midi": 86,
          "time": 62.14279500000017,
          "velocity": 0.7559055118110236,
          "duration": 0.10714275000000129
        },
        {
          "name": "C7",
          "midi": 96,
          "time": 62.14279500000017,
          "velocity": 0.7559055118110236,
          "duration": 0.10714275000000129
        },
        {
          "name": "D7",
          "midi": 98,
          "time": 62.14279500000017,
          "velocity": 0.7559055118110236,
          "duration": 0.10714275000000129
        },
        {
          "name": "C1",
          "midi": 24,
          "time": 62.14279500000017,
          "velocity": 0.7874015748031497,
          "duration": 0.026785687500002098
        },
        {
          "name": "F#1",
          "midi": 30,
          "time": 62.14279500000017,
          "velocity": 0.7874015748031497,
          "duration": 0.026785687500002098
        },
        {
          "name": "D4",
          "midi": 62,
          "time": 62.35708050000017,
          "velocity": 0.7559055118110236,
          "duration": 0.10714275000000129
        },
        {
          "name": "D5",
          "midi": 74,
          "time": 62.35708050000017,
          "velocity": 0.7559055118110236,
          "duration": 0.10714275000000129
        },
        {
          "name": "D6",
          "midi": 86,
          "time": 62.35708050000017,
          "velocity": 0.7559055118110236,
          "duration": 0.10714275000000129
        },
        {
          "name": "D7",
          "midi": 98,
          "time": 62.35708050000017,
          "velocity": 0.7559055118110236,
          "duration": 0.10714275000000129
        },
        {
          "name": "G1",
          "midi": 31,
          "time": 62.35708050000017,
          "velocity": 0.7874015748031497,
          "duration": 0.026785687500002098
        },
        {
          "name": "C#4",
          "midi": 61,
          "time": 62.571366000000175,
          "velocity": 0.7559055118110236,
          "duration": 0.10714275000000129
        },
        {
          "name": "D4",
          "midi": 62,
          "time": 62.571366000000175,
          "velocity": 0.7559055118110236,
          "duration": 0.10714275000000129
        },
        {
          "name": "C#5",
          "midi": 73,
          "time": 62.571366000000175,
          "velocity": 0.7559055118110236,
          "duration": 0.10714275000000129
        },
        {
          "name": "D5",
          "midi": 74,
          "time": 62.571366000000175,
          "velocity": 0.7559055118110236,
          "duration": 0.10714275000000129
        },
        {
          "name": "C#6",
          "midi": 85,
          "time": 62.571366000000175,
          "velocity": 0.7559055118110236,
          "duration": 0.10714275000000129
        },
        {
          "name": "D6",
          "midi": 86,
          "time": 62.571366000000175,
          "velocity": 0.7559055118110236,
          "duration": 0.10714275000000129
        },
        {
          "name": "C#7",
          "midi": 97,
          "time": 62.571366000000175,
          "velocity": 0.7559055118110236,
          "duration": 0.10714275000000129
        },
        {
          "name": "D7",
          "midi": 98,
          "time": 62.571366000000175,
          "velocity": 0.7559055118110236,
          "duration": 0.10714275000000129
        },
        {
          "name": "G1",
          "midi": 31,
          "time": 62.571366000000175,
          "velocity": 0.7874015748031497,
          "duration": 0.026785687500002098
        },
        {
          "name": "D1",
          "midi": 26,
          "time": 62.571366000000175,
          "velocity": 0.7874015748031497,
          "duration": 0.026785687500002098
        },
        {
          "name": "D4",
          "midi": 62,
          "time": 62.78565150000018,
          "velocity": 0.7559055118110236,
          "duration": 0.10714275000000129
        },
        {
          "name": "D5",
          "midi": 74,
          "time": 62.78565150000018,
          "velocity": 0.7559055118110236,
          "duration": 0.10714275000000129
        },
        {
          "name": "D6",
          "midi": 86,
          "time": 62.78565150000018,
          "velocity": 0.7559055118110236,
          "duration": 0.10714275000000129
        },
        {
          "name": "D7",
          "midi": 98,
          "time": 62.78565150000018,
          "velocity": 0.7559055118110236,
          "duration": 0.10714275000000129
        },
        {
          "name": "G1",
          "midi": 31,
          "time": 62.78565150000018,
          "velocity": 0.7874015748031497,
          "duration": 0.026785687500002098
        },
        {
          "name": "C4",
          "midi": 60,
          "time": 62.99993700000018,
          "velocity": 0.7559055118110236,
          "duration": 0.10714275000000129
        },
        {
          "name": "D4",
          "midi": 62,
          "time": 62.99993700000018,
          "velocity": 0.7559055118110236,
          "duration": 0.10714275000000129
        },
        {
          "name": "C5",
          "midi": 72,
          "time": 62.99993700000018,
          "velocity": 0.7559055118110236,
          "duration": 0.10714275000000129
        },
        {
          "name": "D5",
          "midi": 74,
          "time": 62.99993700000018,
          "velocity": 0.7559055118110236,
          "duration": 0.10714275000000129
        },
        {
          "name": "C6",
          "midi": 84,
          "time": 62.99993700000018,
          "velocity": 0.7559055118110236,
          "duration": 0.10714275000000129
        },
        {
          "name": "D6",
          "midi": 86,
          "time": 62.99993700000018,
          "velocity": 0.7559055118110236,
          "duration": 0.10714275000000129
        },
        {
          "name": "C7",
          "midi": 96,
          "time": 62.99993700000018,
          "velocity": 0.7559055118110236,
          "duration": 0.10714275000000129
        },
        {
          "name": "D7",
          "midi": 98,
          "time": 62.99993700000018,
          "velocity": 0.7559055118110236,
          "duration": 0.10714275000000129
        },
        {
          "name": "C1",
          "midi": 24,
          "time": 62.99993700000018,
          "velocity": 0.7874015748031497,
          "duration": 0.026785687500002098
        },
        {
          "name": "F#1",
          "midi": 30,
          "time": 62.99993700000018,
          "velocity": 0.7874015748031497,
          "duration": 0.026785687500002098
        },
        {
          "name": "C4",
          "midi": 60,
          "time": 63.21422250000018,
          "velocity": 0.7559055118110236,
          "duration": 0.10714275000000129
        },
        {
          "name": "D4",
          "midi": 62,
          "time": 63.21422250000018,
          "velocity": 0.7559055118110236,
          "duration": 0.10714275000000129
        },
        {
          "name": "C5",
          "midi": 72,
          "time": 63.21422250000018,
          "velocity": 0.7559055118110236,
          "duration": 0.10714275000000129
        },
        {
          "name": "D5",
          "midi": 74,
          "time": 63.21422250000018,
          "velocity": 0.7559055118110236,
          "duration": 0.10714275000000129
        },
        {
          "name": "C6",
          "midi": 84,
          "time": 63.21422250000018,
          "velocity": 0.7559055118110236,
          "duration": 0.10714275000000129
        },
        {
          "name": "D6",
          "midi": 86,
          "time": 63.21422250000018,
          "velocity": 0.7559055118110236,
          "duration": 0.10714275000000129
        },
        {
          "name": "C7",
          "midi": 96,
          "time": 63.21422250000018,
          "velocity": 0.7559055118110236,
          "duration": 0.10714275000000129
        },
        {
          "name": "D7",
          "midi": 98,
          "time": 63.21422250000018,
          "velocity": 0.7559055118110236,
          "duration": 0.10714275000000129
        },
        {
          "name": "C1",
          "midi": 24,
          "time": 63.21422250000018,
          "velocity": 0.7874015748031497,
          "duration": 0.026785687500002098
        },
        {
          "name": "G1",
          "midi": 31,
          "time": 63.21422250000018,
          "velocity": 0.7874015748031497,
          "duration": 0.026785687500002098
        },
        {
          "name": "D4",
          "midi": 62,
          "time": 63.428508000000186,
          "velocity": 0.7559055118110236,
          "duration": 0.10714275000000129
        },
        {
          "name": "D5",
          "midi": 74,
          "time": 63.428508000000186,
          "velocity": 0.7559055118110236,
          "duration": 0.10714275000000129
        },
        {
          "name": "D6",
          "midi": 86,
          "time": 63.428508000000186,
          "velocity": 0.7559055118110236,
          "duration": 0.10714275000000129
        },
        {
          "name": "D7",
          "midi": 98,
          "time": 63.428508000000186,
          "velocity": 0.7559055118110236,
          "duration": 0.10714275000000129
        },
        {
          "name": "F#1",
          "midi": 30,
          "time": 63.428508000000186,
          "velocity": 0.7874015748031497,
          "duration": 0.026785687500002098
        },
        {
          "name": "C4",
          "midi": 60,
          "time": 63.64279350000019,
          "velocity": 0.7559055118110236,
          "duration": 0.10714275000000129
        },
        {
          "name": "D4",
          "midi": 62,
          "time": 63.64279350000019,
          "velocity": 0.7559055118110236,
          "duration": 0.10714275000000129
        },
        {
          "name": "C5",
          "midi": 72,
          "time": 63.64279350000019,
          "velocity": 0.7559055118110236,
          "duration": 0.10714275000000129
        },
        {
          "name": "D5",
          "midi": 74,
          "time": 63.64279350000019,
          "velocity": 0.7559055118110236,
          "duration": 0.10714275000000129
        },
        {
          "name": "C6",
          "midi": 84,
          "time": 63.64279350000019,
          "velocity": 0.7559055118110236,
          "duration": 0.10714275000000129
        },
        {
          "name": "D6",
          "midi": 86,
          "time": 63.64279350000019,
          "velocity": 0.7559055118110236,
          "duration": 0.10714275000000129
        },
        {
          "name": "C7",
          "midi": 96,
          "time": 63.64279350000019,
          "velocity": 0.7559055118110236,
          "duration": 0.10714275000000129
        },
        {
          "name": "D7",
          "midi": 98,
          "time": 63.64279350000019,
          "velocity": 0.7559055118110236,
          "duration": 0.10714275000000129
        },
        {
          "name": "C1",
          "midi": 24,
          "time": 63.64279350000019,
          "velocity": 0.7874015748031497,
          "duration": 0.026785687500002098
        },
        {
          "name": "G1",
          "midi": 31,
          "time": 63.64279350000019,
          "velocity": 0.7874015748031497,
          "duration": 0.026785687500002098
        },
        {
          "name": "C4",
          "midi": 60,
          "time": 63.85707900000019,
          "velocity": 0.7559055118110236,
          "duration": 0.10714275000000129
        },
        {
          "name": "D4",
          "midi": 62,
          "time": 63.85707900000019,
          "velocity": 0.7559055118110236,
          "duration": 0.10714275000000129
        },
        {
          "name": "C5",
          "midi": 72,
          "time": 63.85707900000019,
          "velocity": 0.7559055118110236,
          "duration": 0.10714275000000129
        },
        {
          "name": "D5",
          "midi": 74,
          "time": 63.85707900000019,
          "velocity": 0.7559055118110236,
          "duration": 0.10714275000000129
        },
        {
          "name": "C6",
          "midi": 84,
          "time": 63.85707900000019,
          "velocity": 0.7559055118110236,
          "duration": 0.10714275000000129
        },
        {
          "name": "D6",
          "midi": 86,
          "time": 63.85707900000019,
          "velocity": 0.7559055118110236,
          "duration": 0.10714275000000129
        },
        {
          "name": "C7",
          "midi": 96,
          "time": 63.85707900000019,
          "velocity": 0.7559055118110236,
          "duration": 0.10714275000000129
        },
        {
          "name": "D7",
          "midi": 98,
          "time": 63.85707900000019,
          "velocity": 0.7559055118110236,
          "duration": 0.10714275000000129
        },
        {
          "name": "C1",
          "midi": 24,
          "time": 63.85707900000019,
          "velocity": 0.7874015748031497,
          "duration": 0.026785687500002098
        },
        {
          "name": "F#1",
          "midi": 30,
          "time": 63.85707900000019,
          "velocity": 0.7874015748031497,
          "duration": 0.026785687500002098
        },
        {
          "name": "D4",
          "midi": 62,
          "time": 64.07136450000019,
          "velocity": 0.7559055118110236,
          "duration": 0.10714274999999418
        },
        {
          "name": "D5",
          "midi": 74,
          "time": 64.07136450000019,
          "velocity": 0.7559055118110236,
          "duration": 0.10714274999999418
        },
        {
          "name": "D6",
          "midi": 86,
          "time": 64.07136450000019,
          "velocity": 0.7559055118110236,
          "duration": 0.10714274999999418
        },
        {
          "name": "D7",
          "midi": 98,
          "time": 64.07136450000019,
          "velocity": 0.7559055118110236,
          "duration": 0.10714274999999418
        },
        {
          "name": "G1",
          "midi": 31,
          "time": 64.07136450000019,
          "velocity": 0.7874015748031497,
          "duration": 0.026785687499994992
        },
        {
          "name": "C#4",
          "midi": 61,
          "time": 64.28565000000017,
          "velocity": 0.7559055118110236,
          "duration": 0.10714274999999418
        },
        {
          "name": "D4",
          "midi": 62,
          "time": 64.28565000000017,
          "velocity": 0.7559055118110236,
          "duration": 0.10714274999999418
        },
        {
          "name": "C#5",
          "midi": 73,
          "time": 64.28565000000017,
          "velocity": 0.7559055118110236,
          "duration": 0.10714274999999418
        },
        {
          "name": "D5",
          "midi": 74,
          "time": 64.28565000000017,
          "velocity": 0.7559055118110236,
          "duration": 0.10714274999999418
        },
        {
          "name": "C#6",
          "midi": 85,
          "time": 64.28565000000017,
          "velocity": 0.7559055118110236,
          "duration": 0.10714274999999418
        },
        {
          "name": "D6",
          "midi": 86,
          "time": 64.28565000000017,
          "velocity": 0.7559055118110236,
          "duration": 0.10714274999999418
        },
        {
          "name": "C#7",
          "midi": 97,
          "time": 64.28565000000017,
          "velocity": 0.7559055118110236,
          "duration": 0.10714274999999418
        },
        {
          "name": "D7",
          "midi": 98,
          "time": 64.28565000000017,
          "velocity": 0.7559055118110236,
          "duration": 0.10714274999999418
        },
        {
          "name": "G1",
          "midi": 31,
          "time": 64.28565000000017,
          "velocity": 0.7874015748031497,
          "duration": 0.026785687499994992
        },
        {
          "name": "D1",
          "midi": 26,
          "time": 64.28565000000017,
          "velocity": 0.7874015748031497,
          "duration": 0.026785687499994992
        },
        {
          "name": "D4",
          "midi": 62,
          "time": 64.49993550000016,
          "velocity": 0.7559055118110236,
          "duration": 0.10714274999999418
        },
        {
          "name": "D5",
          "midi": 74,
          "time": 64.49993550000016,
          "velocity": 0.7559055118110236,
          "duration": 0.10714274999999418
        },
        {
          "name": "D6",
          "midi": 86,
          "time": 64.49993550000016,
          "velocity": 0.7559055118110236,
          "duration": 0.10714274999999418
        },
        {
          "name": "D7",
          "midi": 98,
          "time": 64.49993550000016,
          "velocity": 0.7559055118110236,
          "duration": 0.10714274999999418
        },
        {
          "name": "G1",
          "midi": 31,
          "time": 64.49993550000016,
          "velocity": 0.7874015748031497,
          "duration": 0.026785687499994992
        },
        {
          "name": "D#4",
          "midi": 63,
          "time": 64.71422100000015,
          "velocity": 0.7559055118110236,
          "duration": 0.10714274999999418
        },
        {
          "name": "D#5",
          "midi": 75,
          "time": 64.71422100000015,
          "velocity": 0.7559055118110236,
          "duration": 0.10714274999999418
        },
        {
          "name": "D#6",
          "midi": 87,
          "time": 64.71422100000015,
          "velocity": 0.7559055118110236,
          "duration": 0.10714274999999418
        },
        {
          "name": "D#7",
          "midi": 99,
          "time": 64.71422100000015,
          "velocity": 0.7559055118110236,
          "duration": 0.10714274999999418
        },
        {
          "name": "B1",
          "midi": 35,
          "time": 64.71422100000015,
          "velocity": 0.7874015748031497,
          "duration": 0.026785687499994992
        },
        {
          "name": "C4",
          "midi": 60,
          "time": 64.92850650000014,
          "velocity": 0.7559055118110236,
          "duration": 0.10714274999999418
        },
        {
          "name": "D4",
          "midi": 62,
          "time": 64.92850650000014,
          "velocity": 0.7559055118110236,
          "duration": 0.10714274999999418
        },
        {
          "name": "C5",
          "midi": 72,
          "time": 64.92850650000014,
          "velocity": 0.7559055118110236,
          "duration": 0.10714274999999418
        },
        {
          "name": "D5",
          "midi": 74,
          "time": 64.92850650000014,
          "velocity": 0.7559055118110236,
          "duration": 0.10714274999999418
        },
        {
          "name": "C6",
          "midi": 84,
          "time": 64.92850650000014,
          "velocity": 0.7559055118110236,
          "duration": 0.10714274999999418
        },
        {
          "name": "D6",
          "midi": 86,
          "time": 64.92850650000014,
          "velocity": 0.7559055118110236,
          "duration": 0.10714274999999418
        },
        {
          "name": "C7",
          "midi": 96,
          "time": 64.92850650000014,
          "velocity": 0.7559055118110236,
          "duration": 0.10714274999999418
        },
        {
          "name": "D7",
          "midi": 98,
          "time": 64.92850650000014,
          "velocity": 0.7559055118110236,
          "duration": 0.10714274999999418
        },
        {
          "name": "C1",
          "midi": 24,
          "time": 64.92850650000014,
          "velocity": 0.7874015748031497,
          "duration": 0.026785687499994992
        },
        {
          "name": "G1",
          "midi": 31,
          "time": 64.92850650000014,
          "velocity": 0.7874015748031497,
          "duration": 0.026785687499994992
        },
        {
          "name": "C4",
          "midi": 60,
          "time": 65.14279200000013,
          "velocity": 0.7559055118110236,
          "duration": 0.10714274999999418
        },
        {
          "name": "D4",
          "midi": 62,
          "time": 65.14279200000013,
          "velocity": 0.7559055118110236,
          "duration": 0.10714274999999418
        },
        {
          "name": "C5",
          "midi": 72,
          "time": 65.14279200000013,
          "velocity": 0.7559055118110236,
          "duration": 0.10714274999999418
        },
        {
          "name": "D5",
          "midi": 74,
          "time": 65.14279200000013,
          "velocity": 0.7559055118110236,
          "duration": 0.10714274999999418
        },
        {
          "name": "C6",
          "midi": 84,
          "time": 65.14279200000013,
          "velocity": 0.7559055118110236,
          "duration": 0.10714274999999418
        },
        {
          "name": "D6",
          "midi": 86,
          "time": 65.14279200000013,
          "velocity": 0.7559055118110236,
          "duration": 0.10714274999999418
        },
        {
          "name": "C7",
          "midi": 96,
          "time": 65.14279200000013,
          "velocity": 0.7559055118110236,
          "duration": 0.10714274999999418
        },
        {
          "name": "D7",
          "midi": 98,
          "time": 65.14279200000013,
          "velocity": 0.7559055118110236,
          "duration": 0.10714274999999418
        },
        {
          "name": "C1",
          "midi": 24,
          "time": 65.14279200000013,
          "velocity": 0.7874015748031497,
          "duration": 0.026785687499994992
        },
        {
          "name": "F#1",
          "midi": 30,
          "time": 65.14279200000013,
          "velocity": 0.7874015748031497,
          "duration": 0.026785687499994992
        },
        {
          "name": "D#4",
          "midi": 63,
          "time": 65.35707750000012,
          "velocity": 0.7559055118110236,
          "duration": 0.10714274999999418
        },
        {
          "name": "D#5",
          "midi": 75,
          "time": 65.35707750000012,
          "velocity": 0.7559055118110236,
          "duration": 0.10714274999999418
        },
        {
          "name": "D#6",
          "midi": 87,
          "time": 65.35707750000012,
          "velocity": 0.7559055118110236,
          "duration": 0.10714274999999418
        },
        {
          "name": "D#7",
          "midi": 99,
          "time": 65.35707750000012,
          "velocity": 0.7559055118110236,
          "duration": 0.10714274999999418
        },
        {
          "name": "F#2",
          "midi": 42,
          "time": 65.35707750000012,
          "velocity": 0.7874015748031497,
          "duration": 0.026785687499994992
        },
        {
          "name": "C4",
          "midi": 60,
          "time": 65.5713630000001,
          "velocity": 0.7559055118110236,
          "duration": 0.10714274999999418
        },
        {
          "name": "D4",
          "midi": 62,
          "time": 65.5713630000001,
          "velocity": 0.7559055118110236,
          "duration": 0.10714274999999418
        },
        {
          "name": "C5",
          "midi": 72,
          "time": 65.5713630000001,
          "velocity": 0.7559055118110236,
          "duration": 0.10714274999999418
        },
        {
          "name": "D5",
          "midi": 74,
          "time": 65.5713630000001,
          "velocity": 0.7559055118110236,
          "duration": 0.10714274999999418
        },
        {
          "name": "C6",
          "midi": 84,
          "time": 65.5713630000001,
          "velocity": 0.7559055118110236,
          "duration": 0.10714274999999418
        },
        {
          "name": "D6",
          "midi": 86,
          "time": 65.5713630000001,
          "velocity": 0.7559055118110236,
          "duration": 0.10714274999999418
        },
        {
          "name": "C7",
          "midi": 96,
          "time": 65.5713630000001,
          "velocity": 0.7559055118110236,
          "duration": 0.10714274999999418
        },
        {
          "name": "D7",
          "midi": 98,
          "time": 65.5713630000001,
          "velocity": 0.7559055118110236,
          "duration": 0.10714274999999418
        },
        {
          "name": "C1",
          "midi": 24,
          "time": 65.5713630000001,
          "velocity": 0.7874015748031497,
          "duration": 0.026785687499994992
        },
        {
          "name": "F#1",
          "midi": 30,
          "time": 65.5713630000001,
          "velocity": 0.7874015748031497,
          "duration": 0.026785687499994992
        },
        {
          "name": "D4",
          "midi": 62,
          "time": 65.7856485000001,
          "velocity": 0.7559055118110236,
          "duration": 0.10714274999999418
        },
        {
          "name": "D5",
          "midi": 74,
          "time": 65.7856485000001,
          "velocity": 0.7559055118110236,
          "duration": 0.10714274999999418
        },
        {
          "name": "D6",
          "midi": 86,
          "time": 65.7856485000001,
          "velocity": 0.7559055118110236,
          "duration": 0.10714274999999418
        },
        {
          "name": "D7",
          "midi": 98,
          "time": 65.7856485000001,
          "velocity": 0.7559055118110236,
          "duration": 0.10714274999999418
        },
        {
          "name": "G1",
          "midi": 31,
          "time": 65.7856485000001,
          "velocity": 0.7874015748031497,
          "duration": 0.026785687499994992
        },
        {
          "name": "C#4",
          "midi": 61,
          "time": 65.99993400000008,
          "velocity": 0.7559055118110236,
          "duration": 0.10714274999999418
        },
        {
          "name": "D4",
          "midi": 62,
          "time": 65.99993400000008,
          "velocity": 0.7559055118110236,
          "duration": 0.10714274999999418
        },
        {
          "name": "C#5",
          "midi": 73,
          "time": 65.99993400000008,
          "velocity": 0.7559055118110236,
          "duration": 0.10714274999999418
        },
        {
          "name": "D5",
          "midi": 74,
          "time": 65.99993400000008,
          "velocity": 0.7559055118110236,
          "duration": 0.10714274999999418
        },
        {
          "name": "C#6",
          "midi": 85,
          "time": 65.99993400000008,
          "velocity": 0.7559055118110236,
          "duration": 0.10714274999999418
        },
        {
          "name": "D6",
          "midi": 86,
          "time": 65.99993400000008,
          "velocity": 0.7559055118110236,
          "duration": 0.10714274999999418
        },
        {
          "name": "C#7",
          "midi": 97,
          "time": 65.99993400000008,
          "velocity": 0.7559055118110236,
          "duration": 0.10714274999999418
        },
        {
          "name": "D7",
          "midi": 98,
          "time": 65.99993400000008,
          "velocity": 0.7559055118110236,
          "duration": 0.10714274999999418
        },
        {
          "name": "G1",
          "midi": 31,
          "time": 65.99993400000008,
          "velocity": 0.7874015748031497,
          "duration": 0.026785687499994992
        },
        {
          "name": "D1",
          "midi": 26,
          "time": 65.99993400000008,
          "velocity": 0.7874015748031497,
          "duration": 0.026785687499994992
        },
        {
          "name": "D4",
          "midi": 62,
          "time": 66.21421950000007,
          "velocity": 0.7559055118110236,
          "duration": 0.10714274999999418
        },
        {
          "name": "D5",
          "midi": 74,
          "time": 66.21421950000007,
          "velocity": 0.7559055118110236,
          "duration": 0.10714274999999418
        },
        {
          "name": "D6",
          "midi": 86,
          "time": 66.21421950000007,
          "velocity": 0.7559055118110236,
          "duration": 0.10714274999999418
        },
        {
          "name": "D7",
          "midi": 98,
          "time": 66.21421950000007,
          "velocity": 0.7559055118110236,
          "duration": 0.10714274999999418
        },
        {
          "name": "G1",
          "midi": 31,
          "time": 66.21421950000007,
          "velocity": 0.7874015748031497,
          "duration": 0.026785687499994992
        },
        {
          "name": "C4",
          "midi": 60,
          "time": 66.42850500000006,
          "velocity": 0.7559055118110236,
          "duration": 0.10714274999999418
        },
        {
          "name": "D4",
          "midi": 62,
          "time": 66.42850500000006,
          "velocity": 0.7559055118110236,
          "duration": 0.10714274999999418
        },
        {
          "name": "C5",
          "midi": 72,
          "time": 66.42850500000006,
          "velocity": 0.7559055118110236,
          "duration": 0.10714274999999418
        },
        {
          "name": "D5",
          "midi": 74,
          "time": 66.42850500000006,
          "velocity": 0.7559055118110236,
          "duration": 0.10714274999999418
        },
        {
          "name": "C6",
          "midi": 84,
          "time": 66.42850500000006,
          "velocity": 0.7559055118110236,
          "duration": 0.10714274999999418
        },
        {
          "name": "D6",
          "midi": 86,
          "time": 66.42850500000006,
          "velocity": 0.7559055118110236,
          "duration": 0.10714274999999418
        },
        {
          "name": "C7",
          "midi": 96,
          "time": 66.42850500000006,
          "velocity": 0.7559055118110236,
          "duration": 0.10714274999999418
        },
        {
          "name": "D7",
          "midi": 98,
          "time": 66.42850500000006,
          "velocity": 0.7559055118110236,
          "duration": 0.10714274999999418
        },
        {
          "name": "C1",
          "midi": 24,
          "time": 66.42850500000006,
          "velocity": 0.7874015748031497,
          "duration": 0.026785687499994992
        },
        {
          "name": "F#1",
          "midi": 30,
          "time": 66.42850500000006,
          "velocity": 0.7874015748031497,
          "duration": 0.026785687499994992
        },
        {
          "name": "C4",
          "midi": 60,
          "time": 66.64279050000005,
          "velocity": 0.7559055118110236,
          "duration": 0.10714274999999418
        },
        {
          "name": "D4",
          "midi": 62,
          "time": 66.64279050000005,
          "velocity": 0.7559055118110236,
          "duration": 0.10714274999999418
        },
        {
          "name": "C5",
          "midi": 72,
          "time": 66.64279050000005,
          "velocity": 0.7559055118110236,
          "duration": 0.10714274999999418
        },
        {
          "name": "D5",
          "midi": 74,
          "time": 66.64279050000005,
          "velocity": 0.7559055118110236,
          "duration": 0.10714274999999418
        },
        {
          "name": "C6",
          "midi": 84,
          "time": 66.64279050000005,
          "velocity": 0.7559055118110236,
          "duration": 0.10714274999999418
        },
        {
          "name": "D6",
          "midi": 86,
          "time": 66.64279050000005,
          "velocity": 0.7559055118110236,
          "duration": 0.10714274999999418
        },
        {
          "name": "C7",
          "midi": 96,
          "time": 66.64279050000005,
          "velocity": 0.7559055118110236,
          "duration": 0.10714274999999418
        },
        {
          "name": "D7",
          "midi": 98,
          "time": 66.64279050000005,
          "velocity": 0.7559055118110236,
          "duration": 0.10714274999999418
        },
        {
          "name": "C1",
          "midi": 24,
          "time": 66.64279050000005,
          "velocity": 0.7874015748031497,
          "duration": 0.026785687499994992
        },
        {
          "name": "G1",
          "midi": 31,
          "time": 66.64279050000005,
          "velocity": 0.7874015748031497,
          "duration": 0.026785687499994992
        },
        {
          "name": "D4",
          "midi": 62,
          "time": 66.85707600000003,
          "velocity": 0.7559055118110236,
          "duration": 0.10714274999999418
        },
        {
          "name": "D5",
          "midi": 74,
          "time": 66.85707600000003,
          "velocity": 0.7559055118110236,
          "duration": 0.10714274999999418
        },
        {
          "name": "D6",
          "midi": 86,
          "time": 66.85707600000003,
          "velocity": 0.7559055118110236,
          "duration": 0.10714274999999418
        },
        {
          "name": "D7",
          "midi": 98,
          "time": 66.85707600000003,
          "velocity": 0.7559055118110236,
          "duration": 0.10714274999999418
        },
        {
          "name": "F#1",
          "midi": 30,
          "time": 66.85707600000003,
          "velocity": 0.7874015748031497,
          "duration": 0.026785687499994992
        },
        {
          "name": "C4",
          "midi": 60,
          "time": 67.07136150000002,
          "velocity": 0.7559055118110236,
          "duration": 0.10714274999999418
        },
        {
          "name": "D4",
          "midi": 62,
          "time": 67.07136150000002,
          "velocity": 0.7559055118110236,
          "duration": 0.10714274999999418
        },
        {
          "name": "C5",
          "midi": 72,
          "time": 67.07136150000002,
          "velocity": 0.7559055118110236,
          "duration": 0.10714274999999418
        },
        {
          "name": "D5",
          "midi": 74,
          "time": 67.07136150000002,
          "velocity": 0.7559055118110236,
          "duration": 0.10714274999999418
        },
        {
          "name": "C6",
          "midi": 84,
          "time": 67.07136150000002,
          "velocity": 0.7559055118110236,
          "duration": 0.10714274999999418
        },
        {
          "name": "D6",
          "midi": 86,
          "time": 67.07136150000002,
          "velocity": 0.7559055118110236,
          "duration": 0.10714274999999418
        },
        {
          "name": "C7",
          "midi": 96,
          "time": 67.07136150000002,
          "velocity": 0.7559055118110236,
          "duration": 0.10714274999999418
        },
        {
          "name": "D7",
          "midi": 98,
          "time": 67.07136150000002,
          "velocity": 0.7559055118110236,
          "duration": 0.10714274999999418
        },
        {
          "name": "C1",
          "midi": 24,
          "time": 67.07136150000002,
          "velocity": 0.7874015748031497,
          "duration": 0.026785687499994992
        },
        {
          "name": "G1",
          "midi": 31,
          "time": 67.07136150000002,
          "velocity": 0.7874015748031497,
          "duration": 0.026785687499994992
        },
        {
          "name": "C4",
          "midi": 60,
          "time": 67.28564700000001,
          "velocity": 0.7559055118110236,
          "duration": 0.10714274999999418
        },
        {
          "name": "D4",
          "midi": 62,
          "time": 67.28564700000001,
          "velocity": 0.7559055118110236,
          "duration": 0.10714274999999418
        },
        {
          "name": "C5",
          "midi": 72,
          "time": 67.28564700000001,
          "velocity": 0.7559055118110236,
          "duration": 0.10714274999999418
        },
        {
          "name": "D5",
          "midi": 74,
          "time": 67.28564700000001,
          "velocity": 0.7559055118110236,
          "duration": 0.10714274999999418
        },
        {
          "name": "C6",
          "midi": 84,
          "time": 67.28564700000001,
          "velocity": 0.7559055118110236,
          "duration": 0.10714274999999418
        },
        {
          "name": "D6",
          "midi": 86,
          "time": 67.28564700000001,
          "velocity": 0.7559055118110236,
          "duration": 0.10714274999999418
        },
        {
          "name": "C7",
          "midi": 96,
          "time": 67.28564700000001,
          "velocity": 0.7559055118110236,
          "duration": 0.10714274999999418
        },
        {
          "name": "D7",
          "midi": 98,
          "time": 67.28564700000001,
          "velocity": 0.7559055118110236,
          "duration": 0.10714274999999418
        },
        {
          "name": "C1",
          "midi": 24,
          "time": 67.28564700000001,
          "velocity": 0.7874015748031497,
          "duration": 0.026785687499994992
        },
        {
          "name": "F#1",
          "midi": 30,
          "time": 67.28564700000001,
          "velocity": 0.7874015748031497,
          "duration": 0.026785687499994992
        },
        {
          "name": "D4",
          "midi": 62,
          "time": 67.4999325,
          "velocity": 0.7559055118110236,
          "duration": 0.10714274999999418
        },
        {
          "name": "D5",
          "midi": 74,
          "time": 67.4999325,
          "velocity": 0.7559055118110236,
          "duration": 0.10714274999999418
        },
        {
          "name": "D6",
          "midi": 86,
          "time": 67.4999325,
          "velocity": 0.7559055118110236,
          "duration": 0.10714274999999418
        },
        {
          "name": "D7",
          "midi": 98,
          "time": 67.4999325,
          "velocity": 0.7559055118110236,
          "duration": 0.10714274999999418
        },
        {
          "name": "G1",
          "midi": 31,
          "time": 67.4999325,
          "velocity": 0.7874015748031497,
          "duration": 0.026785687499994992
        },
        {
          "name": "C#4",
          "midi": 61,
          "time": 67.71421799999999,
          "velocity": 0.7559055118110236,
          "duration": 0.10714274999999418
        },
        {
          "name": "D4",
          "midi": 62,
          "time": 67.71421799999999,
          "velocity": 0.7559055118110236,
          "duration": 0.10714274999999418
        },
        {
          "name": "C#5",
          "midi": 73,
          "time": 67.71421799999999,
          "velocity": 0.7559055118110236,
          "duration": 0.10714274999999418
        },
        {
          "name": "D5",
          "midi": 74,
          "time": 67.71421799999999,
          "velocity": 0.7559055118110236,
          "duration": 0.10714274999999418
        },
        {
          "name": "C#6",
          "midi": 85,
          "time": 67.71421799999999,
          "velocity": 0.7559055118110236,
          "duration": 0.10714274999999418
        },
        {
          "name": "D6",
          "midi": 86,
          "time": 67.71421799999999,
          "velocity": 0.7559055118110236,
          "duration": 0.10714274999999418
        },
        {
          "name": "C#7",
          "midi": 97,
          "time": 67.71421799999999,
          "velocity": 0.7559055118110236,
          "duration": 0.10714274999999418
        },
        {
          "name": "D7",
          "midi": 98,
          "time": 67.71421799999999,
          "velocity": 0.7559055118110236,
          "duration": 0.10714274999999418
        },
        {
          "name": "G1",
          "midi": 31,
          "time": 67.71421799999999,
          "velocity": 0.7874015748031497,
          "duration": 0.026785687499994992
        },
        {
          "name": "D1",
          "midi": 26,
          "time": 67.71421799999999,
          "velocity": 0.7874015748031497,
          "duration": 0.026785687499994992
        },
        {
          "name": "D4",
          "midi": 62,
          "time": 67.92850349999998,
          "velocity": 0.7559055118110236,
          "duration": 0.10714274999999418
        },
        {
          "name": "D5",
          "midi": 74,
          "time": 67.92850349999998,
          "velocity": 0.7559055118110236,
          "duration": 0.10714274999999418
        },
        {
          "name": "D6",
          "midi": 86,
          "time": 67.92850349999998,
          "velocity": 0.7559055118110236,
          "duration": 0.10714274999999418
        },
        {
          "name": "D7",
          "midi": 98,
          "time": 67.92850349999998,
          "velocity": 0.7559055118110236,
          "duration": 0.10714274999999418
        },
        {
          "name": "G1",
          "midi": 31,
          "time": 67.92850349999998,
          "velocity": 0.7874015748031497,
          "duration": 0.026785687499994992
        },
        {
          "name": "D4",
          "midi": 62,
          "time": 68.03564624999997,
          "velocity": 0.7559055118110236,
          "duration": 0.10714274999999418
        },
        {
          "name": "D5",
          "midi": 74,
          "time": 68.03564624999997,
          "velocity": 0.7559055118110236,
          "duration": 0.10714274999999418
        },
        {
          "name": "D6",
          "midi": 86,
          "time": 68.03564624999997,
          "velocity": 0.7559055118110236,
          "duration": 0.10714274999999418
        },
        {
          "name": "D7",
          "midi": 98,
          "time": 68.03564624999997,
          "velocity": 0.7559055118110236,
          "duration": 0.10714274999999418
        },
        {
          "name": "F#1",
          "midi": 30,
          "time": 68.03564624999997,
          "velocity": 0.7874015748031497,
          "duration": 0.026785687499994992
        },
        {
          "name": "D#4",
          "midi": 63,
          "time": 68.14278899999996,
          "velocity": 0.7559055118110236,
          "duration": 0.10714274999999418
        },
        {
          "name": "D#5",
          "midi": 75,
          "time": 68.14278899999996,
          "velocity": 0.7559055118110236,
          "duration": 0.10714274999999418
        },
        {
          "name": "D#6",
          "midi": 87,
          "time": 68.14278899999996,
          "velocity": 0.7559055118110236,
          "duration": 0.10714274999999418
        },
        {
          "name": "D#7",
          "midi": 99,
          "time": 68.14278899999996,
          "velocity": 0.7559055118110236,
          "duration": 0.10714274999999418
        },
        {
          "name": "F#2",
          "midi": 42,
          "time": 68.14278899999996,
          "velocity": 0.7874015748031497,
          "duration": 0.026785687499994992
        },
        {
          "name": "C4",
          "midi": 60,
          "time": 68.35707449999995,
          "velocity": 0.7559055118110236,
          "duration": 0.10714274999999418
        },
        {
          "name": "D4",
          "midi": 62,
          "time": 68.35707449999995,
          "velocity": 0.7559055118110236,
          "duration": 0.10714274999999418
        },
        {
          "name": "C5",
          "midi": 72,
          "time": 68.35707449999995,
          "velocity": 0.7559055118110236,
          "duration": 0.10714274999999418
        },
        {
          "name": "D5",
          "midi": 74,
          "time": 68.35707449999995,
          "velocity": 0.7559055118110236,
          "duration": 0.10714274999999418
        },
        {
          "name": "C6",
          "midi": 84,
          "time": 68.35707449999995,
          "velocity": 0.7559055118110236,
          "duration": 0.10714274999999418
        },
        {
          "name": "D6",
          "midi": 86,
          "time": 68.35707449999995,
          "velocity": 0.7559055118110236,
          "duration": 0.10714274999999418
        },
        {
          "name": "C7",
          "midi": 96,
          "time": 68.35707449999995,
          "velocity": 0.7559055118110236,
          "duration": 0.10714274999999418
        },
        {
          "name": "D7",
          "midi": 98,
          "time": 68.35707449999995,
          "velocity": 0.7559055118110236,
          "duration": 0.10714274999999418
        },
        {
          "name": "C1",
          "midi": 24,
          "time": 68.35707449999995,
          "velocity": 0.7874015748031497,
          "duration": 0.026785687499994992
        },
        {
          "name": "F#1",
          "midi": 30,
          "time": 68.35707449999995,
          "velocity": 0.7874015748031497,
          "duration": 0.026785687499994992
        },
        {
          "name": "C4",
          "midi": 60,
          "time": 68.57135999999994,
          "velocity": 0.7559055118110236,
          "duration": 0.10714274999999418
        },
        {
          "name": "D4",
          "midi": 62,
          "time": 68.57135999999994,
          "velocity": 0.7559055118110236,
          "duration": 0.10714274999999418
        },
        {
          "name": "C5",
          "midi": 72,
          "time": 68.57135999999994,
          "velocity": 0.7559055118110236,
          "duration": 0.10714274999999418
        },
        {
          "name": "D5",
          "midi": 74,
          "time": 68.57135999999994,
          "velocity": 0.7559055118110236,
          "duration": 0.10714274999999418
        },
        {
          "name": "C6",
          "midi": 84,
          "time": 68.57135999999994,
          "velocity": 0.7559055118110236,
          "duration": 0.10714274999999418
        },
        {
          "name": "D6",
          "midi": 86,
          "time": 68.57135999999994,
          "velocity": 0.7559055118110236,
          "duration": 0.10714274999999418
        },
        {
          "name": "C7",
          "midi": 96,
          "time": 68.57135999999994,
          "velocity": 0.7559055118110236,
          "duration": 0.10714274999999418
        },
        {
          "name": "D7",
          "midi": 98,
          "time": 68.57135999999994,
          "velocity": 0.7559055118110236,
          "duration": 0.10714274999999418
        },
        {
          "name": "C1",
          "midi": 24,
          "time": 68.57135999999994,
          "velocity": 0.7874015748031497,
          "duration": 0.026785687499994992
        },
        {
          "name": "G1",
          "midi": 31,
          "time": 68.57135999999994,
          "velocity": 0.7874015748031497,
          "duration": 0.026785687499994992
        },
        {
          "name": "D#4",
          "midi": 63,
          "time": 68.78564549999993,
          "velocity": 0.7559055118110236,
          "duration": 0.10714274999999418
        },
        {
          "name": "D#5",
          "midi": 75,
          "time": 68.78564549999993,
          "velocity": 0.7559055118110236,
          "duration": 0.10714274999999418
        },
        {
          "name": "D#6",
          "midi": 87,
          "time": 68.78564549999993,
          "velocity": 0.7559055118110236,
          "duration": 0.10714274999999418
        },
        {
          "name": "D#7",
          "midi": 99,
          "time": 68.78564549999993,
          "velocity": 0.7559055118110236,
          "duration": 0.10714274999999418
        },
        {
          "name": "B1",
          "midi": 35,
          "time": 68.78564549999993,
          "velocity": 0.7874015748031497,
          "duration": 0.026785687499994992
        },
        {
          "name": "C4",
          "midi": 60,
          "time": 68.99993099999992,
          "velocity": 0.7559055118110236,
          "duration": 0.10714274999999418
        },
        {
          "name": "D4",
          "midi": 62,
          "time": 68.99993099999992,
          "velocity": 0.7559055118110236,
          "duration": 0.10714274999999418
        },
        {
          "name": "C5",
          "midi": 72,
          "time": 68.99993099999992,
          "velocity": 0.7559055118110236,
          "duration": 0.10714274999999418
        },
        {
          "name": "D5",
          "midi": 74,
          "time": 68.99993099999992,
          "velocity": 0.7559055118110236,
          "duration": 0.10714274999999418
        },
        {
          "name": "C6",
          "midi": 84,
          "time": 68.99993099999992,
          "velocity": 0.7559055118110236,
          "duration": 0.10714274999999418
        },
        {
          "name": "D6",
          "midi": 86,
          "time": 68.99993099999992,
          "velocity": 0.7559055118110236,
          "duration": 0.10714274999999418
        },
        {
          "name": "C7",
          "midi": 96,
          "time": 68.99993099999992,
          "velocity": 0.7559055118110236,
          "duration": 0.10714274999999418
        },
        {
          "name": "D7",
          "midi": 98,
          "time": 68.99993099999992,
          "velocity": 0.7559055118110236,
          "duration": 0.10714274999999418
        },
        {
          "name": "C1",
          "midi": 24,
          "time": 68.99993099999992,
          "velocity": 0.7874015748031497,
          "duration": 0.026785687499994992
        },
        {
          "name": "G1",
          "midi": 31,
          "time": 68.99993099999992,
          "velocity": 0.7874015748031497,
          "duration": 0.026785687499994992
        },
        {
          "name": "D4",
          "midi": 62,
          "time": 69.2142164999999,
          "velocity": 0.7559055118110236,
          "duration": 0.10714274999999418
        },
        {
          "name": "D5",
          "midi": 74,
          "time": 69.2142164999999,
          "velocity": 0.7559055118110236,
          "duration": 0.10714274999999418
        },
        {
          "name": "D6",
          "midi": 86,
          "time": 69.2142164999999,
          "velocity": 0.7559055118110236,
          "duration": 0.10714274999999418
        },
        {
          "name": "D7",
          "midi": 98,
          "time": 69.2142164999999,
          "velocity": 0.7559055118110236,
          "duration": 0.10714274999999418
        },
        {
          "name": "F#1",
          "midi": 30,
          "time": 69.2142164999999,
          "velocity": 0.7874015748031497,
          "duration": 0.026785687499994992
        },
        {
          "name": "C#4",
          "midi": 61,
          "time": 69.4285019999999,
          "velocity": 0.7559055118110236,
          "duration": 0.10714274999999418
        },
        {
          "name": "D4",
          "midi": 62,
          "time": 69.4285019999999,
          "velocity": 0.7559055118110236,
          "duration": 0.10714274999999418
        },
        {
          "name": "C#5",
          "midi": 73,
          "time": 69.4285019999999,
          "velocity": 0.7559055118110236,
          "duration": 0.10714274999999418
        },
        {
          "name": "D5",
          "midi": 74,
          "time": 69.4285019999999,
          "velocity": 0.7559055118110236,
          "duration": 0.10714274999999418
        },
        {
          "name": "C#6",
          "midi": 85,
          "time": 69.4285019999999,
          "velocity": 0.7559055118110236,
          "duration": 0.10714274999999418
        },
        {
          "name": "D6",
          "midi": 86,
          "time": 69.4285019999999,
          "velocity": 0.7559055118110236,
          "duration": 0.10714274999999418
        },
        {
          "name": "C#7",
          "midi": 97,
          "time": 69.4285019999999,
          "velocity": 0.7559055118110236,
          "duration": 0.10714274999999418
        },
        {
          "name": "D7",
          "midi": 98,
          "time": 69.4285019999999,
          "velocity": 0.7559055118110236,
          "duration": 0.10714274999999418
        },
        {
          "name": "G1",
          "midi": 31,
          "time": 69.4285019999999,
          "velocity": 0.7874015748031497,
          "duration": 0.026785687499994992
        },
        {
          "name": "D1",
          "midi": 26,
          "time": 69.4285019999999,
          "velocity": 0.7874015748031497,
          "duration": 0.026785687499994992
        },
        {
          "name": "D4",
          "midi": 62,
          "time": 69.64278749999988,
          "velocity": 0.7559055118110236,
          "duration": 0.10714274999999418
        },
        {
          "name": "D5",
          "midi": 74,
          "time": 69.64278749999988,
          "velocity": 0.7559055118110236,
          "duration": 0.10714274999999418
        },
        {
          "name": "D6",
          "midi": 86,
          "time": 69.64278749999988,
          "velocity": 0.7559055118110236,
          "duration": 0.10714274999999418
        },
        {
          "name": "D7",
          "midi": 98,
          "time": 69.64278749999988,
          "velocity": 0.7559055118110236,
          "duration": 0.10714274999999418
        },
        {
          "name": "G1",
          "midi": 31,
          "time": 69.64278749999988,
          "velocity": 0.7874015748031497,
          "duration": 0.026785687499994992
        },
        {
          "name": "C4",
          "midi": 60,
          "time": 69.85707299999987,
          "velocity": 0.7559055118110236,
          "duration": 0.10714274999999418
        },
        {
          "name": "D4",
          "midi": 62,
          "time": 69.85707299999987,
          "velocity": 0.7559055118110236,
          "duration": 0.10714274999999418
        },
        {
          "name": "C5",
          "midi": 72,
          "time": 69.85707299999987,
          "velocity": 0.7559055118110236,
          "duration": 0.10714274999999418
        },
        {
          "name": "D5",
          "midi": 74,
          "time": 69.85707299999987,
          "velocity": 0.7559055118110236,
          "duration": 0.10714274999999418
        },
        {
          "name": "C6",
          "midi": 84,
          "time": 69.85707299999987,
          "velocity": 0.7559055118110236,
          "duration": 0.10714274999999418
        },
        {
          "name": "D6",
          "midi": 86,
          "time": 69.85707299999987,
          "velocity": 0.7559055118110236,
          "duration": 0.10714274999999418
        },
        {
          "name": "C7",
          "midi": 96,
          "time": 69.85707299999987,
          "velocity": 0.7559055118110236,
          "duration": 0.10714274999999418
        },
        {
          "name": "D7",
          "midi": 98,
          "time": 69.85707299999987,
          "velocity": 0.7559055118110236,
          "duration": 0.10714274999999418
        },
        {
          "name": "C1",
          "midi": 24,
          "time": 69.85707299999987,
          "velocity": 0.7874015748031497,
          "duration": 0.026785687499994992
        },
        {
          "name": "F#1",
          "midi": 30,
          "time": 69.85707299999987,
          "velocity": 0.7874015748031497,
          "duration": 0.026785687499994992
        },
        {
          "name": "C4",
          "midi": 60,
          "time": 70.07135849999986,
          "velocity": 0.7559055118110236,
          "duration": 0.10714274999999418
        },
        {
          "name": "D4",
          "midi": 62,
          "time": 70.07135849999986,
          "velocity": 0.7559055118110236,
          "duration": 0.10714274999999418
        },
        {
          "name": "C5",
          "midi": 72,
          "time": 70.07135849999986,
          "velocity": 0.7559055118110236,
          "duration": 0.10714274999999418
        },
        {
          "name": "D5",
          "midi": 74,
          "time": 70.07135849999986,
          "velocity": 0.7559055118110236,
          "duration": 0.10714274999999418
        },
        {
          "name": "C6",
          "midi": 84,
          "time": 70.07135849999986,
          "velocity": 0.7559055118110236,
          "duration": 0.10714274999999418
        },
        {
          "name": "D6",
          "midi": 86,
          "time": 70.07135849999986,
          "velocity": 0.7559055118110236,
          "duration": 0.10714274999999418
        },
        {
          "name": "C7",
          "midi": 96,
          "time": 70.07135849999986,
          "velocity": 0.7559055118110236,
          "duration": 0.10714274999999418
        },
        {
          "name": "D7",
          "midi": 98,
          "time": 70.07135849999986,
          "velocity": 0.7559055118110236,
          "duration": 0.10714274999999418
        },
        {
          "name": "C1",
          "midi": 24,
          "time": 70.07135849999986,
          "velocity": 0.7874015748031497,
          "duration": 0.026785687499994992
        },
        {
          "name": "G1",
          "midi": 31,
          "time": 70.07135849999986,
          "velocity": 0.7874015748031497,
          "duration": 0.026785687499994992
        },
        {
          "name": "D4",
          "midi": 62,
          "time": 70.28564399999985,
          "velocity": 0.7559055118110236,
          "duration": 0.10714274999999418
        },
        {
          "name": "D5",
          "midi": 74,
          "time": 70.28564399999985,
          "velocity": 0.7559055118110236,
          "duration": 0.10714274999999418
        },
        {
          "name": "D6",
          "midi": 86,
          "time": 70.28564399999985,
          "velocity": 0.7559055118110236,
          "duration": 0.10714274999999418
        },
        {
          "name": "D7",
          "midi": 98,
          "time": 70.28564399999985,
          "velocity": 0.7559055118110236,
          "duration": 0.10714274999999418
        },
        {
          "name": "F#1",
          "midi": 30,
          "time": 70.28564399999985,
          "velocity": 0.7874015748031497,
          "duration": 0.026785687499994992
        },
        {
          "name": "C4",
          "midi": 60,
          "time": 70.49992949999984,
          "velocity": 0.7559055118110236,
          "duration": 0.10714274999999418
        },
        {
          "name": "D4",
          "midi": 62,
          "time": 70.49992949999984,
          "velocity": 0.7559055118110236,
          "duration": 0.10714274999999418
        },
        {
          "name": "C5",
          "midi": 72,
          "time": 70.49992949999984,
          "velocity": 0.7559055118110236,
          "duration": 0.10714274999999418
        },
        {
          "name": "D5",
          "midi": 74,
          "time": 70.49992949999984,
          "velocity": 0.7559055118110236,
          "duration": 0.10714274999999418
        },
        {
          "name": "C6",
          "midi": 84,
          "time": 70.49992949999984,
          "velocity": 0.7559055118110236,
          "duration": 0.10714274999999418
        },
        {
          "name": "D6",
          "midi": 86,
          "time": 70.49992949999984,
          "velocity": 0.7559055118110236,
          "duration": 0.10714274999999418
        },
        {
          "name": "C7",
          "midi": 96,
          "time": 70.49992949999984,
          "velocity": 0.7559055118110236,
          "duration": 0.10714274999999418
        },
        {
          "name": "D7",
          "midi": 98,
          "time": 70.49992949999984,
          "velocity": 0.7559055118110236,
          "duration": 0.10714274999999418
        },
        {
          "name": "C1",
          "midi": 24,
          "time": 70.49992949999984,
          "velocity": 0.7874015748031497,
          "duration": 0.026785687499994992
        },
        {
          "name": "G1",
          "midi": 31,
          "time": 70.49992949999984,
          "velocity": 0.7874015748031497,
          "duration": 0.026785687499994992
        },
        {
          "name": "C4",
          "midi": 60,
          "time": 70.71421499999983,
          "velocity": 0.7559055118110236,
          "duration": 0.10714274999999418
        },
        {
          "name": "D4",
          "midi": 62,
          "time": 70.71421499999983,
          "velocity": 0.7559055118110236,
          "duration": 0.10714274999999418
        },
        {
          "name": "C5",
          "midi": 72,
          "time": 70.71421499999983,
          "velocity": 0.7559055118110236,
          "duration": 0.10714274999999418
        },
        {
          "name": "D5",
          "midi": 74,
          "time": 70.71421499999983,
          "velocity": 0.7559055118110236,
          "duration": 0.10714274999999418
        },
        {
          "name": "C6",
          "midi": 84,
          "time": 70.71421499999983,
          "velocity": 0.7559055118110236,
          "duration": 0.10714274999999418
        },
        {
          "name": "D6",
          "midi": 86,
          "time": 70.71421499999983,
          "velocity": 0.7559055118110236,
          "duration": 0.10714274999999418
        },
        {
          "name": "C7",
          "midi": 96,
          "time": 70.71421499999983,
          "velocity": 0.7559055118110236,
          "duration": 0.10714274999999418
        },
        {
          "name": "D7",
          "midi": 98,
          "time": 70.71421499999983,
          "velocity": 0.7559055118110236,
          "duration": 0.10714274999999418
        },
        {
          "name": "C1",
          "midi": 24,
          "time": 70.71421499999983,
          "velocity": 0.7874015748031497,
          "duration": 0.026785687499994992
        },
        {
          "name": "F#1",
          "midi": 30,
          "time": 70.71421499999983,
          "velocity": 0.7874015748031497,
          "duration": 0.026785687499994992
        },
        {
          "name": "D4",
          "midi": 62,
          "time": 70.92850049999981,
          "velocity": 0.7559055118110236,
          "duration": 0.10714274999999418
        },
        {
          "name": "D5",
          "midi": 74,
          "time": 70.92850049999981,
          "velocity": 0.7559055118110236,
          "duration": 0.10714274999999418
        },
        {
          "name": "D6",
          "midi": 86,
          "time": 70.92850049999981,
          "velocity": 0.7559055118110236,
          "duration": 0.10714274999999418
        },
        {
          "name": "D7",
          "midi": 98,
          "time": 70.92850049999981,
          "velocity": 0.7559055118110236,
          "duration": 0.10714274999999418
        },
        {
          "name": "G1",
          "midi": 31,
          "time": 70.92850049999981,
          "velocity": 0.7874015748031497,
          "duration": 0.026785687499994992
        },
        {
          "name": "C#4",
          "midi": 61,
          "time": 71.1427859999998,
          "velocity": 0.7559055118110236,
          "duration": 0.10714274999999418
        },
        {
          "name": "D4",
          "midi": 62,
          "time": 71.1427859999998,
          "velocity": 0.7559055118110236,
          "duration": 0.10714274999999418
        },
        {
          "name": "C#5",
          "midi": 73,
          "time": 71.1427859999998,
          "velocity": 0.7559055118110236,
          "duration": 0.10714274999999418
        },
        {
          "name": "D5",
          "midi": 74,
          "time": 71.1427859999998,
          "velocity": 0.7559055118110236,
          "duration": 0.10714274999999418
        },
        {
          "name": "C#6",
          "midi": 85,
          "time": 71.1427859999998,
          "velocity": 0.7559055118110236,
          "duration": 0.10714274999999418
        },
        {
          "name": "D6",
          "midi": 86,
          "time": 71.1427859999998,
          "velocity": 0.7559055118110236,
          "duration": 0.10714274999999418
        },
        {
          "name": "C#7",
          "midi": 97,
          "time": 71.1427859999998,
          "velocity": 0.7559055118110236,
          "duration": 0.10714274999999418
        },
        {
          "name": "D7",
          "midi": 98,
          "time": 71.1427859999998,
          "velocity": 0.7559055118110236,
          "duration": 0.10714274999999418
        },
        {
          "name": "G1",
          "midi": 31,
          "time": 71.1427859999998,
          "velocity": 0.7874015748031497,
          "duration": 0.026785687499994992
        },
        {
          "name": "D1",
          "midi": 26,
          "time": 71.1427859999998,
          "velocity": 0.7874015748031497,
          "duration": 0.026785687499994992
        },
        {
          "name": "D4",
          "midi": 62,
          "time": 71.35707149999979,
          "velocity": 0.7559055118110236,
          "duration": 0.10714274999999418
        },
        {
          "name": "D5",
          "midi": 74,
          "time": 71.35707149999979,
          "velocity": 0.7559055118110236,
          "duration": 0.10714274999999418
        },
        {
          "name": "D6",
          "midi": 86,
          "time": 71.35707149999979,
          "velocity": 0.7559055118110236,
          "duration": 0.10714274999999418
        },
        {
          "name": "D7",
          "midi": 98,
          "time": 71.35707149999979,
          "velocity": 0.7559055118110236,
          "duration": 0.10714274999999418
        },
        {
          "name": "G1",
          "midi": 31,
          "time": 71.35707149999979,
          "velocity": 0.7874015748031497,
          "duration": 0.026785687499994992
        },
        {
          "name": "D#4",
          "midi": 63,
          "time": 71.57135699999978,
          "velocity": 0.7559055118110236,
          "duration": 0.10714274999999418
        },
        {
          "name": "D#5",
          "midi": 75,
          "time": 71.57135699999978,
          "velocity": 0.7559055118110236,
          "duration": 0.10714274999999418
        },
        {
          "name": "D#6",
          "midi": 87,
          "time": 71.57135699999978,
          "velocity": 0.7559055118110236,
          "duration": 0.10714274999999418
        },
        {
          "name": "D#7",
          "midi": 99,
          "time": 71.57135699999978,
          "velocity": 0.7559055118110236,
          "duration": 0.10714274999999418
        },
        {
          "name": "B1",
          "midi": 35,
          "time": 71.57135699999978,
          "velocity": 0.7874015748031497,
          "duration": 0.026785687499994992
        },
        {
          "name": "C4",
          "midi": 60,
          "time": 71.78564249999977,
          "velocity": 0.7559055118110236,
          "duration": 0.10714274999999418
        },
        {
          "name": "D4",
          "midi": 62,
          "time": 71.78564249999977,
          "velocity": 0.7559055118110236,
          "duration": 0.10714274999999418
        },
        {
          "name": "C5",
          "midi": 72,
          "time": 71.78564249999977,
          "velocity": 0.7559055118110236,
          "duration": 0.10714274999999418
        },
        {
          "name": "D5",
          "midi": 74,
          "time": 71.78564249999977,
          "velocity": 0.7559055118110236,
          "duration": 0.10714274999999418
        },
        {
          "name": "C6",
          "midi": 84,
          "time": 71.78564249999977,
          "velocity": 0.7559055118110236,
          "duration": 0.10714274999999418
        },
        {
          "name": "D6",
          "midi": 86,
          "time": 71.78564249999977,
          "velocity": 0.7559055118110236,
          "duration": 0.10714274999999418
        },
        {
          "name": "C7",
          "midi": 96,
          "time": 71.78564249999977,
          "velocity": 0.7559055118110236,
          "duration": 0.10714274999999418
        },
        {
          "name": "D7",
          "midi": 98,
          "time": 71.78564249999977,
          "velocity": 0.7559055118110236,
          "duration": 0.10714274999999418
        },
        {
          "name": "C1",
          "midi": 24,
          "time": 71.78564249999977,
          "velocity": 0.7874015748031497,
          "duration": 0.026785687499994992
        },
        {
          "name": "G1",
          "midi": 31,
          "time": 71.78564249999977,
          "velocity": 0.7874015748031497,
          "duration": 0.026785687499994992
        },
        {
          "name": "C4",
          "midi": 60,
          "time": 71.99992799999976,
          "velocity": 0.7559055118110236,
          "duration": 0.10714274999999418
        },
        {
          "name": "D4",
          "midi": 62,
          "time": 71.99992799999976,
          "velocity": 0.7559055118110236,
          "duration": 0.10714274999999418
        },
        {
          "name": "C5",
          "midi": 72,
          "time": 71.99992799999976,
          "velocity": 0.7559055118110236,
          "duration": 0.10714274999999418
        },
        {
          "name": "D5",
          "midi": 74,
          "time": 71.99992799999976,
          "velocity": 0.7559055118110236,
          "duration": 0.10714274999999418
        },
        {
          "name": "C6",
          "midi": 84,
          "time": 71.99992799999976,
          "velocity": 0.7559055118110236,
          "duration": 0.10714274999999418
        },
        {
          "name": "D6",
          "midi": 86,
          "time": 71.99992799999976,
          "velocity": 0.7559055118110236,
          "duration": 0.10714274999999418
        },
        {
          "name": "C7",
          "midi": 96,
          "time": 71.99992799999976,
          "velocity": 0.7559055118110236,
          "duration": 0.10714274999999418
        },
        {
          "name": "D7",
          "midi": 98,
          "time": 71.99992799999976,
          "velocity": 0.7559055118110236,
          "duration": 0.10714274999999418
        },
        {
          "name": "C1",
          "midi": 24,
          "time": 71.99992799999976,
          "velocity": 0.7874015748031497,
          "duration": 0.026785687499994992
        },
        {
          "name": "F#1",
          "midi": 30,
          "time": 71.99992799999976,
          "velocity": 0.7874015748031497,
          "duration": 0.026785687499994992
        },
        {
          "name": "D#4",
          "midi": 63,
          "time": 72.21421349999974,
          "velocity": 0.7559055118110236,
          "duration": 0.10714274999999418
        },
        {
          "name": "D#5",
          "midi": 75,
          "time": 72.21421349999974,
          "velocity": 0.7559055118110236,
          "duration": 0.10714274999999418
        },
        {
          "name": "D#6",
          "midi": 87,
          "time": 72.21421349999974,
          "velocity": 0.7559055118110236,
          "duration": 0.10714274999999418
        },
        {
          "name": "D#7",
          "midi": 99,
          "time": 72.21421349999974,
          "velocity": 0.7559055118110236,
          "duration": 0.10714274999999418
        },
        {
          "name": "F#2",
          "midi": 42,
          "time": 72.21421349999974,
          "velocity": 0.7874015748031497,
          "duration": 0.026785687499994992
        },
        {
          "name": "C4",
          "midi": 60,
          "time": 72.42849899999973,
          "velocity": 0.7559055118110236,
          "duration": 0.10714274999999418
        },
        {
          "name": "D4",
          "midi": 62,
          "time": 72.42849899999973,
          "velocity": 0.7559055118110236,
          "duration": 0.10714274999999418
        },
        {
          "name": "C5",
          "midi": 72,
          "time": 72.42849899999973,
          "velocity": 0.7559055118110236,
          "duration": 0.10714274999999418
        },
        {
          "name": "D5",
          "midi": 74,
          "time": 72.42849899999973,
          "velocity": 0.7559055118110236,
          "duration": 0.10714274999999418
        },
        {
          "name": "C6",
          "midi": 84,
          "time": 72.42849899999973,
          "velocity": 0.7559055118110236,
          "duration": 0.10714274999999418
        },
        {
          "name": "D6",
          "midi": 86,
          "time": 72.42849899999973,
          "velocity": 0.7559055118110236,
          "duration": 0.10714274999999418
        },
        {
          "name": "C7",
          "midi": 96,
          "time": 72.42849899999973,
          "velocity": 0.7559055118110236,
          "duration": 0.10714274999999418
        },
        {
          "name": "D7",
          "midi": 98,
          "time": 72.42849899999973,
          "velocity": 0.7559055118110236,
          "duration": 0.10714274999999418
        },
        {
          "name": "C1",
          "midi": 24,
          "time": 72.42849899999973,
          "velocity": 0.7874015748031497,
          "duration": 0.026785687499994992
        },
        {
          "name": "F#1",
          "midi": 30,
          "time": 72.42849899999973,
          "velocity": 0.7874015748031497,
          "duration": 0.026785687499994992
        },
        {
          "name": "D4",
          "midi": 62,
          "time": 72.64278449999972,
          "velocity": 0.7559055118110236,
          "duration": 0.10714274999999418
        },
        {
          "name": "D5",
          "midi": 74,
          "time": 72.64278449999972,
          "velocity": 0.7559055118110236,
          "duration": 0.10714274999999418
        },
        {
          "name": "D6",
          "midi": 86,
          "time": 72.64278449999972,
          "velocity": 0.7559055118110236,
          "duration": 0.10714274999999418
        },
        {
          "name": "D7",
          "midi": 98,
          "time": 72.64278449999972,
          "velocity": 0.7559055118110236,
          "duration": 0.10714274999999418
        },
        {
          "name": "G1",
          "midi": 31,
          "time": 72.64278449999972,
          "velocity": 0.7874015748031497,
          "duration": 0.026785687499994992
        },
        {
          "name": "C#4",
          "midi": 61,
          "time": 72.85706999999971,
          "velocity": 0.7559055118110236,
          "duration": 0.10714274999999418
        },
        {
          "name": "D4",
          "midi": 62,
          "time": 72.85706999999971,
          "velocity": 0.7559055118110236,
          "duration": 0.10714274999999418
        },
        {
          "name": "C#5",
          "midi": 73,
          "time": 72.85706999999971,
          "velocity": 0.7559055118110236,
          "duration": 0.10714274999999418
        },
        {
          "name": "D5",
          "midi": 74,
          "time": 72.85706999999971,
          "velocity": 0.7559055118110236,
          "duration": 0.10714274999999418
        },
        {
          "name": "C#6",
          "midi": 85,
          "time": 72.85706999999971,
          "velocity": 0.7559055118110236,
          "duration": 0.10714274999999418
        },
        {
          "name": "D6",
          "midi": 86,
          "time": 72.85706999999971,
          "velocity": 0.7559055118110236,
          "duration": 0.10714274999999418
        },
        {
          "name": "C#7",
          "midi": 97,
          "time": 72.85706999999971,
          "velocity": 0.7559055118110236,
          "duration": 0.10714274999999418
        },
        {
          "name": "D7",
          "midi": 98,
          "time": 72.85706999999971,
          "velocity": 0.7559055118110236,
          "duration": 0.10714274999999418
        },
        {
          "name": "G1",
          "midi": 31,
          "time": 72.85706999999971,
          "velocity": 0.7874015748031497,
          "duration": 0.026785687499994992
        },
        {
          "name": "D1",
          "midi": 26,
          "time": 72.85706999999971,
          "velocity": 0.7874015748031497,
          "duration": 0.026785687499994992
        },
        {
          "name": "D4",
          "midi": 62,
          "time": 73.0713554999997,
          "velocity": 0.7559055118110236,
          "duration": 0.10714274999999418
        },
        {
          "name": "D5",
          "midi": 74,
          "time": 73.0713554999997,
          "velocity": 0.7559055118110236,
          "duration": 0.10714274999999418
        },
        {
          "name": "D6",
          "midi": 86,
          "time": 73.0713554999997,
          "velocity": 0.7559055118110236,
          "duration": 0.10714274999999418
        },
        {
          "name": "D7",
          "midi": 98,
          "time": 73.0713554999997,
          "velocity": 0.7559055118110236,
          "duration": 0.10714274999999418
        },
        {
          "name": "G1",
          "midi": 31,
          "time": 73.0713554999997,
          "velocity": 0.7874015748031497,
          "duration": 0.026785687499994992
        },
        {
          "name": "C4",
          "midi": 60,
          "time": 73.28564099999969,
          "velocity": 0.7559055118110236,
          "duration": 0.10714274999999418
        },
        {
          "name": "D4",
          "midi": 62,
          "time": 73.28564099999969,
          "velocity": 0.7559055118110236,
          "duration": 0.10714274999999418
        },
        {
          "name": "C5",
          "midi": 72,
          "time": 73.28564099999969,
          "velocity": 0.7559055118110236,
          "duration": 0.10714274999999418
        },
        {
          "name": "D5",
          "midi": 74,
          "time": 73.28564099999969,
          "velocity": 0.7559055118110236,
          "duration": 0.10714274999999418
        },
        {
          "name": "C6",
          "midi": 84,
          "time": 73.28564099999969,
          "velocity": 0.7559055118110236,
          "duration": 0.10714274999999418
        },
        {
          "name": "D6",
          "midi": 86,
          "time": 73.28564099999969,
          "velocity": 0.7559055118110236,
          "duration": 0.10714274999999418
        },
        {
          "name": "C7",
          "midi": 96,
          "time": 73.28564099999969,
          "velocity": 0.7559055118110236,
          "duration": 0.10714274999999418
        },
        {
          "name": "D7",
          "midi": 98,
          "time": 73.28564099999969,
          "velocity": 0.7559055118110236,
          "duration": 0.10714274999999418
        },
        {
          "name": "C1",
          "midi": 24,
          "time": 73.28564099999969,
          "velocity": 0.7874015748031497,
          "duration": 0.026785687499994992
        },
        {
          "name": "F#1",
          "midi": 30,
          "time": 73.28564099999969,
          "velocity": 0.7874015748031497,
          "duration": 0.026785687499994992
        },
        {
          "name": "C4",
          "midi": 60,
          "time": 73.49992649999967,
          "velocity": 0.7559055118110236,
          "duration": 0.10714274999999418
        },
        {
          "name": "D4",
          "midi": 62,
          "time": 73.49992649999967,
          "velocity": 0.7559055118110236,
          "duration": 0.10714274999999418
        },
        {
          "name": "C5",
          "midi": 72,
          "time": 73.49992649999967,
          "velocity": 0.7559055118110236,
          "duration": 0.10714274999999418
        },
        {
          "name": "D5",
          "midi": 74,
          "time": 73.49992649999967,
          "velocity": 0.7559055118110236,
          "duration": 0.10714274999999418
        },
        {
          "name": "C6",
          "midi": 84,
          "time": 73.49992649999967,
          "velocity": 0.7559055118110236,
          "duration": 0.10714274999999418
        },
        {
          "name": "D6",
          "midi": 86,
          "time": 73.49992649999967,
          "velocity": 0.7559055118110236,
          "duration": 0.10714274999999418
        },
        {
          "name": "C7",
          "midi": 96,
          "time": 73.49992649999967,
          "velocity": 0.7559055118110236,
          "duration": 0.10714274999999418
        },
        {
          "name": "D7",
          "midi": 98,
          "time": 73.49992649999967,
          "velocity": 0.7559055118110236,
          "duration": 0.10714274999999418
        },
        {
          "name": "C1",
          "midi": 24,
          "time": 73.49992649999967,
          "velocity": 0.7874015748031497,
          "duration": 0.026785687499994992
        },
        {
          "name": "G1",
          "midi": 31,
          "time": 73.49992649999967,
          "velocity": 0.7874015748031497,
          "duration": 0.026785687499994992
        },
        {
          "name": "D4",
          "midi": 62,
          "time": 73.71421199999966,
          "velocity": 0.7559055118110236,
          "duration": 0.10714274999999418
        },
        {
          "name": "D5",
          "midi": 74,
          "time": 73.71421199999966,
          "velocity": 0.7559055118110236,
          "duration": 0.10714274999999418
        },
        {
          "name": "D6",
          "midi": 86,
          "time": 73.71421199999966,
          "velocity": 0.7559055118110236,
          "duration": 0.10714274999999418
        },
        {
          "name": "D7",
          "midi": 98,
          "time": 73.71421199999966,
          "velocity": 0.7559055118110236,
          "duration": 0.10714274999999418
        },
        {
          "name": "F#1",
          "midi": 30,
          "time": 73.71421199999966,
          "velocity": 0.7874015748031497,
          "duration": 0.026785687499994992
        },
        {
          "name": "C4",
          "midi": 60,
          "time": 73.92849749999965,
          "velocity": 0.7559055118110236,
          "duration": 0.10714274999999418
        },
        {
          "name": "D4",
          "midi": 62,
          "time": 73.92849749999965,
          "velocity": 0.7559055118110236,
          "duration": 0.10714274999999418
        },
        {
          "name": "C5",
          "midi": 72,
          "time": 73.92849749999965,
          "velocity": 0.7559055118110236,
          "duration": 0.10714274999999418
        },
        {
          "name": "D5",
          "midi": 74,
          "time": 73.92849749999965,
          "velocity": 0.7559055118110236,
          "duration": 0.10714274999999418
        },
        {
          "name": "C6",
          "midi": 84,
          "time": 73.92849749999965,
          "velocity": 0.7559055118110236,
          "duration": 0.10714274999999418
        },
        {
          "name": "D6",
          "midi": 86,
          "time": 73.92849749999965,
          "velocity": 0.7559055118110236,
          "duration": 0.10714274999999418
        },
        {
          "name": "C7",
          "midi": 96,
          "time": 73.92849749999965,
          "velocity": 0.7559055118110236,
          "duration": 0.10714274999999418
        },
        {
          "name": "D7",
          "midi": 98,
          "time": 73.92849749999965,
          "velocity": 0.7559055118110236,
          "duration": 0.10714274999999418
        },
        {
          "name": "C1",
          "midi": 24,
          "time": 73.92849749999965,
          "velocity": 0.7874015748031497,
          "duration": 0.026785687499994992
        },
        {
          "name": "G1",
          "midi": 31,
          "time": 73.92849749999965,
          "velocity": 0.7874015748031497,
          "duration": 0.026785687499994992
        },
        {
          "name": "C4",
          "midi": 60,
          "time": 74.14278299999964,
          "velocity": 0.7559055118110236,
          "duration": 0.10714274999999418
        },
        {
          "name": "D4",
          "midi": 62,
          "time": 74.14278299999964,
          "velocity": 0.7559055118110236,
          "duration": 0.10714274999999418
        },
        {
          "name": "C5",
          "midi": 72,
          "time": 74.14278299999964,
          "velocity": 0.7559055118110236,
          "duration": 0.10714274999999418
        },
        {
          "name": "D5",
          "midi": 74,
          "time": 74.14278299999964,
          "velocity": 0.7559055118110236,
          "duration": 0.10714274999999418
        },
        {
          "name": "C6",
          "midi": 84,
          "time": 74.14278299999964,
          "velocity": 0.7559055118110236,
          "duration": 0.10714274999999418
        },
        {
          "name": "D6",
          "midi": 86,
          "time": 74.14278299999964,
          "velocity": 0.7559055118110236,
          "duration": 0.10714274999999418
        },
        {
          "name": "C7",
          "midi": 96,
          "time": 74.14278299999964,
          "velocity": 0.7559055118110236,
          "duration": 0.10714274999999418
        },
        {
          "name": "D7",
          "midi": 98,
          "time": 74.14278299999964,
          "velocity": 0.7559055118110236,
          "duration": 0.10714274999999418
        },
        {
          "name": "C1",
          "midi": 24,
          "time": 74.14278299999964,
          "velocity": 0.7874015748031497,
          "duration": 0.026785687499994992
        },
        {
          "name": "F#1",
          "midi": 30,
          "time": 74.14278299999964,
          "velocity": 0.7874015748031497,
          "duration": 0.026785687499994992
        },
        {
          "name": "D4",
          "midi": 62,
          "time": 74.35706849999963,
          "velocity": 0.7559055118110236,
          "duration": 0.10714274999999418
        },
        {
          "name": "D5",
          "midi": 74,
          "time": 74.35706849999963,
          "velocity": 0.7559055118110236,
          "duration": 0.10714274999999418
        },
        {
          "name": "D6",
          "midi": 86,
          "time": 74.35706849999963,
          "velocity": 0.7559055118110236,
          "duration": 0.10714274999999418
        },
        {
          "name": "D7",
          "midi": 98,
          "time": 74.35706849999963,
          "velocity": 0.7559055118110236,
          "duration": 0.10714274999999418
        },
        {
          "name": "G1",
          "midi": 31,
          "time": 74.35706849999963,
          "velocity": 0.7874015748031497,
          "duration": 0.026785687499994992
        },
        {
          "name": "C#4",
          "midi": 61,
          "time": 74.57135399999962,
          "velocity": 0.7559055118110236,
          "duration": 0.10714274999999418
        },
        {
          "name": "D4",
          "midi": 62,
          "time": 74.57135399999962,
          "velocity": 0.7559055118110236,
          "duration": 0.10714274999999418
        },
        {
          "name": "C#5",
          "midi": 73,
          "time": 74.57135399999962,
          "velocity": 0.7559055118110236,
          "duration": 0.10714274999999418
        },
        {
          "name": "D5",
          "midi": 74,
          "time": 74.57135399999962,
          "velocity": 0.7559055118110236,
          "duration": 0.10714274999999418
        },
        {
          "name": "C#6",
          "midi": 85,
          "time": 74.57135399999962,
          "velocity": 0.7559055118110236,
          "duration": 0.10714274999999418
        },
        {
          "name": "D6",
          "midi": 86,
          "time": 74.57135399999962,
          "velocity": 0.7559055118110236,
          "duration": 0.10714274999999418
        },
        {
          "name": "C#7",
          "midi": 97,
          "time": 74.57135399999962,
          "velocity": 0.7559055118110236,
          "duration": 0.10714274999999418
        },
        {
          "name": "D7",
          "midi": 98,
          "time": 74.57135399999962,
          "velocity": 0.7559055118110236,
          "duration": 0.10714274999999418
        },
        {
          "name": "G1",
          "midi": 31,
          "time": 74.57135399999962,
          "velocity": 0.7874015748031497,
          "duration": 0.026785687499994992
        },
        {
          "name": "D1",
          "midi": 26,
          "time": 74.57135399999962,
          "velocity": 0.7874015748031497,
          "duration": 0.026785687499994992
        },
        {
          "name": "D4",
          "midi": 62,
          "time": 74.7856394999996,
          "velocity": 0.7559055118110236,
          "duration": 0.10714274999999418
        },
        {
          "name": "D5",
          "midi": 74,
          "time": 74.7856394999996,
          "velocity": 0.7559055118110236,
          "duration": 0.10714274999999418
        },
        {
          "name": "D6",
          "midi": 86,
          "time": 74.7856394999996,
          "velocity": 0.7559055118110236,
          "duration": 0.10714274999999418
        },
        {
          "name": "D7",
          "midi": 98,
          "time": 74.7856394999996,
          "velocity": 0.7559055118110236,
          "duration": 0.10714274999999418
        },
        {
          "name": "G1",
          "midi": 31,
          "time": 74.7856394999996,
          "velocity": 0.7874015748031497,
          "duration": 0.026785687499994992
        },
        {
          "name": "D#4",
          "midi": 63,
          "time": 74.99992499999959,
          "velocity": 0.7559055118110236,
          "duration": 0.10714274999999418
        },
        {
          "name": "D#5",
          "midi": 75,
          "time": 74.99992499999959,
          "velocity": 0.7559055118110236,
          "duration": 0.10714274999999418
        },
        {
          "name": "D#6",
          "midi": 87,
          "time": 74.99992499999959,
          "velocity": 0.7559055118110236,
          "duration": 0.10714274999999418
        },
        {
          "name": "D#7",
          "midi": 99,
          "time": 74.99992499999959,
          "velocity": 0.7559055118110236,
          "duration": 0.10714274999999418
        },
        {
          "name": "B1",
          "midi": 35,
          "time": 74.99992499999959,
          "velocity": 0.7874015748031497,
          "duration": 0.026785687499994992
        },
        {
          "name": "C4",
          "midi": 60,
          "time": 75.21421049999958,
          "velocity": 0.7559055118110236,
          "duration": 0.10714274999999418
        },
        {
          "name": "D4",
          "midi": 62,
          "time": 75.21421049999958,
          "velocity": 0.7559055118110236,
          "duration": 0.10714274999999418
        },
        {
          "name": "C5",
          "midi": 72,
          "time": 75.21421049999958,
          "velocity": 0.7559055118110236,
          "duration": 0.10714274999999418
        },
        {
          "name": "D5",
          "midi": 74,
          "time": 75.21421049999958,
          "velocity": 0.7559055118110236,
          "duration": 0.10714274999999418
        },
        {
          "name": "C6",
          "midi": 84,
          "time": 75.21421049999958,
          "velocity": 0.7559055118110236,
          "duration": 0.10714274999999418
        },
        {
          "name": "D6",
          "midi": 86,
          "time": 75.21421049999958,
          "velocity": 0.7559055118110236,
          "duration": 0.10714274999999418
        },
        {
          "name": "C7",
          "midi": 96,
          "time": 75.21421049999958,
          "velocity": 0.7559055118110236,
          "duration": 0.10714274999999418
        },
        {
          "name": "D7",
          "midi": 98,
          "time": 75.21421049999958,
          "velocity": 0.7559055118110236,
          "duration": 0.10714274999999418
        },
        {
          "name": "C1",
          "midi": 24,
          "time": 75.21421049999958,
          "velocity": 0.7874015748031497,
          "duration": 0.026785687499994992
        },
        {
          "name": "G1",
          "midi": 31,
          "time": 75.21421049999958,
          "velocity": 0.7874015748031497,
          "duration": 0.026785687499994992
        },
        {
          "name": "C4",
          "midi": 60,
          "time": 75.42849599999957,
          "velocity": 0.7559055118110236,
          "duration": 0.10714274999999418
        },
        {
          "name": "D4",
          "midi": 62,
          "time": 75.42849599999957,
          "velocity": 0.7559055118110236,
          "duration": 0.10714274999999418
        },
        {
          "name": "C5",
          "midi": 72,
          "time": 75.42849599999957,
          "velocity": 0.7559055118110236,
          "duration": 0.10714274999999418
        },
        {
          "name": "D5",
          "midi": 74,
          "time": 75.42849599999957,
          "velocity": 0.7559055118110236,
          "duration": 0.10714274999999418
        },
        {
          "name": "C6",
          "midi": 84,
          "time": 75.42849599999957,
          "velocity": 0.7559055118110236,
          "duration": 0.10714274999999418
        },
        {
          "name": "D6",
          "midi": 86,
          "time": 75.42849599999957,
          "velocity": 0.7559055118110236,
          "duration": 0.10714274999999418
        },
        {
          "name": "C7",
          "midi": 96,
          "time": 75.42849599999957,
          "velocity": 0.7559055118110236,
          "duration": 0.10714274999999418
        },
        {
          "name": "D7",
          "midi": 98,
          "time": 75.42849599999957,
          "velocity": 0.7559055118110236,
          "duration": 0.10714274999999418
        },
        {
          "name": "C1",
          "midi": 24,
          "time": 75.42849599999957,
          "velocity": 0.7874015748031497,
          "duration": 0.026785687499994992
        },
        {
          "name": "F#1",
          "midi": 30,
          "time": 75.42849599999957,
          "velocity": 0.7874015748031497,
          "duration": 0.026785687499994992
        },
        {
          "name": "D#4",
          "midi": 63,
          "time": 75.64278149999956,
          "velocity": 0.7559055118110236,
          "duration": 0.10714274999999418
        },
        {
          "name": "D#5",
          "midi": 75,
          "time": 75.64278149999956,
          "velocity": 0.7559055118110236,
          "duration": 0.10714274999999418
        },
        {
          "name": "D#6",
          "midi": 87,
          "time": 75.64278149999956,
          "velocity": 0.7559055118110236,
          "duration": 0.10714274999999418
        },
        {
          "name": "D#7",
          "midi": 99,
          "time": 75.64278149999956,
          "velocity": 0.7559055118110236,
          "duration": 0.10714274999999418
        },
        {
          "name": "F#2",
          "midi": 42,
          "time": 75.64278149999956,
          "velocity": 0.7874015748031497,
          "duration": 0.026785687499994992
        },
        {
          "name": "C4",
          "midi": 60,
          "time": 75.85706699999955,
          "velocity": 0.7559055118110236,
          "duration": 0.10714274999999418
        },
        {
          "name": "D4",
          "midi": 62,
          "time": 75.85706699999955,
          "velocity": 0.7559055118110236,
          "duration": 0.10714274999999418
        },
        {
          "name": "C5",
          "midi": 72,
          "time": 75.85706699999955,
          "velocity": 0.7559055118110236,
          "duration": 0.10714274999999418
        },
        {
          "name": "D5",
          "midi": 74,
          "time": 75.85706699999955,
          "velocity": 0.7559055118110236,
          "duration": 0.10714274999999418
        },
        {
          "name": "C6",
          "midi": 84,
          "time": 75.85706699999955,
          "velocity": 0.7559055118110236,
          "duration": 0.10714274999999418
        },
        {
          "name": "D6",
          "midi": 86,
          "time": 75.85706699999955,
          "velocity": 0.7559055118110236,
          "duration": 0.10714274999999418
        },
        {
          "name": "C7",
          "midi": 96,
          "time": 75.85706699999955,
          "velocity": 0.7559055118110236,
          "duration": 0.10714274999999418
        },
        {
          "name": "D7",
          "midi": 98,
          "time": 75.85706699999955,
          "velocity": 0.7559055118110236,
          "duration": 0.10714274999999418
        },
        {
          "name": "C1",
          "midi": 24,
          "time": 75.85706699999955,
          "velocity": 0.7874015748031497,
          "duration": 0.026785687499994992
        },
        {
          "name": "F#1",
          "midi": 30,
          "time": 75.85706699999955,
          "velocity": 0.7874015748031497,
          "duration": 0.026785687499994992
        },
        {
          "name": "D4",
          "midi": 62,
          "time": 76.07135249999953,
          "velocity": 0.7559055118110236,
          "duration": 0.10714274999999418
        },
        {
          "name": "D5",
          "midi": 74,
          "time": 76.07135249999953,
          "velocity": 0.7559055118110236,
          "duration": 0.10714274999999418
        },
        {
          "name": "D6",
          "midi": 86,
          "time": 76.07135249999953,
          "velocity": 0.7559055118110236,
          "duration": 0.10714274999999418
        },
        {
          "name": "D7",
          "midi": 98,
          "time": 76.07135249999953,
          "velocity": 0.7559055118110236,
          "duration": 0.10714274999999418
        },
        {
          "name": "G1",
          "midi": 31,
          "time": 76.07135249999953,
          "velocity": 0.7874015748031497,
          "duration": 0.026785687499994992
        },
        {
          "name": "C#4",
          "midi": 61,
          "time": 76.28563799999952,
          "velocity": 0.7559055118110236,
          "duration": 0.10714274999999418
        },
        {
          "name": "D4",
          "midi": 62,
          "time": 76.28563799999952,
          "velocity": 0.7559055118110236,
          "duration": 0.10714274999999418
        },
        {
          "name": "C#5",
          "midi": 73,
          "time": 76.28563799999952,
          "velocity": 0.7559055118110236,
          "duration": 0.10714274999999418
        },
        {
          "name": "D5",
          "midi": 74,
          "time": 76.28563799999952,
          "velocity": 0.7559055118110236,
          "duration": 0.10714274999999418
        },
        {
          "name": "C#6",
          "midi": 85,
          "time": 76.28563799999952,
          "velocity": 0.7559055118110236,
          "duration": 0.10714274999999418
        },
        {
          "name": "D6",
          "midi": 86,
          "time": 76.28563799999952,
          "velocity": 0.7559055118110236,
          "duration": 0.10714274999999418
        },
        {
          "name": "C#7",
          "midi": 97,
          "time": 76.28563799999952,
          "velocity": 0.7559055118110236,
          "duration": 0.10714274999999418
        },
        {
          "name": "D7",
          "midi": 98,
          "time": 76.28563799999952,
          "velocity": 0.7559055118110236,
          "duration": 0.10714274999999418
        },
        {
          "name": "G1",
          "midi": 31,
          "time": 76.28563799999952,
          "velocity": 0.7874015748031497,
          "duration": 0.026785687499994992
        },
        {
          "name": "D1",
          "midi": 26,
          "time": 76.28563799999952,
          "velocity": 0.7874015748031497,
          "duration": 0.026785687499994992
        },
        {
          "name": "D4",
          "midi": 62,
          "time": 76.49992349999951,
          "velocity": 0.7559055118110236,
          "duration": 0.10714274999999418
        },
        {
          "name": "D5",
          "midi": 74,
          "time": 76.49992349999951,
          "velocity": 0.7559055118110236,
          "duration": 0.10714274999999418
        },
        {
          "name": "D6",
          "midi": 86,
          "time": 76.49992349999951,
          "velocity": 0.7559055118110236,
          "duration": 0.10714274999999418
        },
        {
          "name": "D7",
          "midi": 98,
          "time": 76.49992349999951,
          "velocity": 0.7559055118110236,
          "duration": 0.10714274999999418
        },
        {
          "name": "G1",
          "midi": 31,
          "time": 76.49992349999951,
          "velocity": 0.7874015748031497,
          "duration": 0.026785687499994992
        },
        {
          "name": "C4",
          "midi": 60,
          "time": 76.7142089999995,
          "velocity": 0.7559055118110236,
          "duration": 0.10714274999999418
        },
        {
          "name": "D4",
          "midi": 62,
          "time": 76.7142089999995,
          "velocity": 0.7559055118110236,
          "duration": 0.10714274999999418
        },
        {
          "name": "C5",
          "midi": 72,
          "time": 76.7142089999995,
          "velocity": 0.7559055118110236,
          "duration": 0.10714274999999418
        },
        {
          "name": "D5",
          "midi": 74,
          "time": 76.7142089999995,
          "velocity": 0.7559055118110236,
          "duration": 0.10714274999999418
        },
        {
          "name": "C6",
          "midi": 84,
          "time": 76.7142089999995,
          "velocity": 0.7559055118110236,
          "duration": 0.10714274999999418
        },
        {
          "name": "D6",
          "midi": 86,
          "time": 76.7142089999995,
          "velocity": 0.7559055118110236,
          "duration": 0.10714274999999418
        },
        {
          "name": "C7",
          "midi": 96,
          "time": 76.7142089999995,
          "velocity": 0.7559055118110236,
          "duration": 0.10714274999999418
        },
        {
          "name": "D7",
          "midi": 98,
          "time": 76.7142089999995,
          "velocity": 0.7559055118110236,
          "duration": 0.10714274999999418
        },
        {
          "name": "C1",
          "midi": 24,
          "time": 76.7142089999995,
          "velocity": 0.7874015748031497,
          "duration": 0.026785687499994992
        },
        {
          "name": "F#1",
          "midi": 30,
          "time": 76.7142089999995,
          "velocity": 0.7874015748031497,
          "duration": 0.026785687499994992
        },
        {
          "name": "C4",
          "midi": 60,
          "time": 76.92849449999949,
          "velocity": 0.7559055118110236,
          "duration": 0.10714274999999418
        },
        {
          "name": "D4",
          "midi": 62,
          "time": 76.92849449999949,
          "velocity": 0.7559055118110236,
          "duration": 0.10714274999999418
        },
        {
          "name": "C5",
          "midi": 72,
          "time": 76.92849449999949,
          "velocity": 0.7559055118110236,
          "duration": 0.10714274999999418
        },
        {
          "name": "D5",
          "midi": 74,
          "time": 76.92849449999949,
          "velocity": 0.7559055118110236,
          "duration": 0.10714274999999418
        },
        {
          "name": "C6",
          "midi": 84,
          "time": 76.92849449999949,
          "velocity": 0.7559055118110236,
          "duration": 0.10714274999999418
        },
        {
          "name": "D6",
          "midi": 86,
          "time": 76.92849449999949,
          "velocity": 0.7559055118110236,
          "duration": 0.10714274999999418
        },
        {
          "name": "C7",
          "midi": 96,
          "time": 76.92849449999949,
          "velocity": 0.7559055118110236,
          "duration": 0.10714274999999418
        },
        {
          "name": "D7",
          "midi": 98,
          "time": 76.92849449999949,
          "velocity": 0.7559055118110236,
          "duration": 0.10714274999999418
        },
        {
          "name": "C1",
          "midi": 24,
          "time": 76.92849449999949,
          "velocity": 0.7874015748031497,
          "duration": 0.026785687499994992
        },
        {
          "name": "G1",
          "midi": 31,
          "time": 76.92849449999949,
          "velocity": 0.7874015748031497,
          "duration": 0.026785687499994992
        },
        {
          "name": "D4",
          "midi": 62,
          "time": 77.14277999999948,
          "velocity": 0.7559055118110236,
          "duration": 0.10714274999999418
        },
        {
          "name": "D5",
          "midi": 74,
          "time": 77.14277999999948,
          "velocity": 0.7559055118110236,
          "duration": 0.10714274999999418
        },
        {
          "name": "D6",
          "midi": 86,
          "time": 77.14277999999948,
          "velocity": 0.7559055118110236,
          "duration": 0.10714274999999418
        },
        {
          "name": "D7",
          "midi": 98,
          "time": 77.14277999999948,
          "velocity": 0.7559055118110236,
          "duration": 0.10714274999999418
        },
        {
          "name": "F#1",
          "midi": 30,
          "time": 77.14277999999948,
          "velocity": 0.7874015748031497,
          "duration": 0.026785687499994992
        },
        {
          "name": "C4",
          "midi": 60,
          "time": 77.35706549999946,
          "velocity": 0.7559055118110236,
          "duration": 0.10714274999999418
        },
        {
          "name": "D4",
          "midi": 62,
          "time": 77.35706549999946,
          "velocity": 0.7559055118110236,
          "duration": 0.10714274999999418
        },
        {
          "name": "C5",
          "midi": 72,
          "time": 77.35706549999946,
          "velocity": 0.7559055118110236,
          "duration": 0.10714274999999418
        },
        {
          "name": "D5",
          "midi": 74,
          "time": 77.35706549999946,
          "velocity": 0.7559055118110236,
          "duration": 0.10714274999999418
        },
        {
          "name": "C6",
          "midi": 84,
          "time": 77.35706549999946,
          "velocity": 0.7559055118110236,
          "duration": 0.10714274999999418
        },
        {
          "name": "D6",
          "midi": 86,
          "time": 77.35706549999946,
          "velocity": 0.7559055118110236,
          "duration": 0.10714274999999418
        },
        {
          "name": "C7",
          "midi": 96,
          "time": 77.35706549999946,
          "velocity": 0.7559055118110236,
          "duration": 0.10714274999999418
        },
        {
          "name": "D7",
          "midi": 98,
          "time": 77.35706549999946,
          "velocity": 0.7559055118110236,
          "duration": 0.10714274999999418
        },
        {
          "name": "C1",
          "midi": 24,
          "time": 77.35706549999946,
          "velocity": 0.7874015748031497,
          "duration": 0.026785687499994992
        },
        {
          "name": "G1",
          "midi": 31,
          "time": 77.35706549999946,
          "velocity": 0.7874015748031497,
          "duration": 0.026785687499994992
        },
        {
          "name": "C4",
          "midi": 60,
          "time": 77.57135099999945,
          "velocity": 0.7559055118110236,
          "duration": 0.10714274999999418
        },
        {
          "name": "D4",
          "midi": 62,
          "time": 77.57135099999945,
          "velocity": 0.7559055118110236,
          "duration": 0.10714274999999418
        },
        {
          "name": "C5",
          "midi": 72,
          "time": 77.57135099999945,
          "velocity": 0.7559055118110236,
          "duration": 0.10714274999999418
        },
        {
          "name": "D5",
          "midi": 74,
          "time": 77.57135099999945,
          "velocity": 0.7559055118110236,
          "duration": 0.10714274999999418
        },
        {
          "name": "C6",
          "midi": 84,
          "time": 77.57135099999945,
          "velocity": 0.7559055118110236,
          "duration": 0.10714274999999418
        },
        {
          "name": "D6",
          "midi": 86,
          "time": 77.57135099999945,
          "velocity": 0.7559055118110236,
          "duration": 0.10714274999999418
        },
        {
          "name": "C7",
          "midi": 96,
          "time": 77.57135099999945,
          "velocity": 0.7559055118110236,
          "duration": 0.10714274999999418
        },
        {
          "name": "D7",
          "midi": 98,
          "time": 77.57135099999945,
          "velocity": 0.7559055118110236,
          "duration": 0.10714274999999418
        },
        {
          "name": "C1",
          "midi": 24,
          "time": 77.57135099999945,
          "velocity": 0.7874015748031497,
          "duration": 0.026785687499994992
        },
        {
          "name": "F#1",
          "midi": 30,
          "time": 77.57135099999945,
          "velocity": 0.7874015748031497,
          "duration": 0.026785687499994992
        },
        {
          "name": "D4",
          "midi": 62,
          "time": 77.78563649999944,
          "velocity": 0.7559055118110236,
          "duration": 0.10714274999999418
        },
        {
          "name": "D5",
          "midi": 74,
          "time": 77.78563649999944,
          "velocity": 0.7559055118110236,
          "duration": 0.10714274999999418
        },
        {
          "name": "D6",
          "midi": 86,
          "time": 77.78563649999944,
          "velocity": 0.7559055118110236,
          "duration": 0.10714274999999418
        },
        {
          "name": "D7",
          "midi": 98,
          "time": 77.78563649999944,
          "velocity": 0.7559055118110236,
          "duration": 0.10714274999999418
        },
        {
          "name": "G1",
          "midi": 31,
          "time": 77.78563649999944,
          "velocity": 0.7874015748031497,
          "duration": 0.026785687499994992
        },
        {
          "name": "C#4",
          "midi": 61,
          "time": 77.99992199999943,
          "velocity": 0.7559055118110236,
          "duration": 0.10714274999999418
        },
        {
          "name": "D4",
          "midi": 62,
          "time": 77.99992199999943,
          "velocity": 0.7559055118110236,
          "duration": 0.10714274999999418
        },
        {
          "name": "C#5",
          "midi": 73,
          "time": 77.99992199999943,
          "velocity": 0.7559055118110236,
          "duration": 0.10714274999999418
        },
        {
          "name": "D5",
          "midi": 74,
          "time": 77.99992199999943,
          "velocity": 0.7559055118110236,
          "duration": 0.10714274999999418
        },
        {
          "name": "C#6",
          "midi": 85,
          "time": 77.99992199999943,
          "velocity": 0.7559055118110236,
          "duration": 0.10714274999999418
        },
        {
          "name": "D6",
          "midi": 86,
          "time": 77.99992199999943,
          "velocity": 0.7559055118110236,
          "duration": 0.10714274999999418
        },
        {
          "name": "C#7",
          "midi": 97,
          "time": 77.99992199999943,
          "velocity": 0.7559055118110236,
          "duration": 0.10714274999999418
        },
        {
          "name": "D7",
          "midi": 98,
          "time": 77.99992199999943,
          "velocity": 0.7559055118110236,
          "duration": 0.10714274999999418
        },
        {
          "name": "G1",
          "midi": 31,
          "time": 77.99992199999943,
          "velocity": 0.7874015748031497,
          "duration": 0.026785687499994992
        },
        {
          "name": "D1",
          "midi": 26,
          "time": 77.99992199999943,
          "velocity": 0.7874015748031497,
          "duration": 0.026785687499994992
        },
        {
          "name": "D4",
          "midi": 62,
          "time": 78.21420749999942,
          "velocity": 0.7559055118110236,
          "duration": 0.10714274999999418
        },
        {
          "name": "D5",
          "midi": 74,
          "time": 78.21420749999942,
          "velocity": 0.7559055118110236,
          "duration": 0.10714274999999418
        },
        {
          "name": "D6",
          "midi": 86,
          "time": 78.21420749999942,
          "velocity": 0.7559055118110236,
          "duration": 0.10714274999999418
        },
        {
          "name": "D7",
          "midi": 98,
          "time": 78.21420749999942,
          "velocity": 0.7559055118110236,
          "duration": 0.10714274999999418
        },
        {
          "name": "G1",
          "midi": 31,
          "time": 78.21420749999942,
          "velocity": 0.7874015748031497,
          "duration": 0.026785687499994992
        },
        {
          "name": "D#4",
          "midi": 63,
          "time": 78.4284929999994,
          "velocity": 0.7559055118110236,
          "duration": 0.10714274999999418
        },
        {
          "name": "D#5",
          "midi": 75,
          "time": 78.4284929999994,
          "velocity": 0.7559055118110236,
          "duration": 0.10714274999999418
        },
        {
          "name": "D#6",
          "midi": 87,
          "time": 78.4284929999994,
          "velocity": 0.7559055118110236,
          "duration": 0.10714274999999418
        },
        {
          "name": "D#7",
          "midi": 99,
          "time": 78.4284929999994,
          "velocity": 0.7559055118110236,
          "duration": 0.10714274999999418
        },
        {
          "name": "B1",
          "midi": 35,
          "time": 78.4284929999994,
          "velocity": 0.7874015748031497,
          "duration": 0.026785687499994992
        },
        {
          "name": "D#4",
          "midi": 63,
          "time": 78.6427784999994,
          "velocity": 0.7559055118110236,
          "duration": 0.10714274999999418
        },
        {
          "name": "D#5",
          "midi": 75,
          "time": 78.6427784999994,
          "velocity": 0.7559055118110236,
          "duration": 0.10714274999999418
        },
        {
          "name": "D#6",
          "midi": 87,
          "time": 78.6427784999994,
          "velocity": 0.7559055118110236,
          "duration": 0.10714274999999418
        },
        {
          "name": "C7",
          "midi": 96,
          "time": 78.6427784999994,
          "velocity": 0.7559055118110236,
          "duration": 0.10714274999999418
        },
        {
          "name": "D7",
          "midi": 98,
          "time": 78.6427784999994,
          "velocity": 0.7559055118110236,
          "duration": 0.10714274999999418
        },
        {
          "name": "C1",
          "midi": 24,
          "time": 78.6427784999994,
          "velocity": 0.7874015748031497,
          "duration": 0.026785687499994992
        },
        {
          "name": "G1",
          "midi": 31,
          "time": 78.6427784999994,
          "velocity": 0.7874015748031497,
          "duration": 0.026785687499994992
        },
        {
          "name": "C4",
          "midi": 60,
          "time": 78.85706399999938,
          "velocity": 0.7559055118110236,
          "duration": 0.10714274999999418
        },
        {
          "name": "D#4",
          "midi": 63,
          "time": 78.85706399999938,
          "velocity": 0.7559055118110236,
          "duration": 0.10714274999999418
        },
        {
          "name": "C5",
          "midi": 72,
          "time": 78.85706399999938,
          "velocity": 0.7559055118110236,
          "duration": 0.10714274999999418
        },
        {
          "name": "D#5",
          "midi": 75,
          "time": 78.85706399999938,
          "velocity": 0.7559055118110236,
          "duration": 0.10714274999999418
        },
        {
          "name": "C6",
          "midi": 84,
          "time": 78.85706399999938,
          "velocity": 0.7559055118110236,
          "duration": 0.10714274999999418
        },
        {
          "name": "D#6",
          "midi": 87,
          "time": 78.85706399999938,
          "velocity": 0.7559055118110236,
          "duration": 0.10714274999999418
        },
        {
          "name": "C7",
          "midi": 96,
          "time": 78.85706399999938,
          "velocity": 0.7559055118110236,
          "duration": 0.10714274999999418
        },
        {
          "name": "D#7",
          "midi": 99,
          "time": 78.85706399999938,
          "velocity": 0.7559055118110236,
          "duration": 0.10714274999999418
        },
        {
          "name": "C1",
          "midi": 24,
          "time": 78.85706399999938,
          "velocity": 0.7874015748031497,
          "duration": 0.026785687499994992
        },
        {
          "name": "B1",
          "midi": 35,
          "time": 78.85706399999938,
          "velocity": 0.7874015748031497,
          "duration": 0.026785687499994992
        },
        {
          "name": "C4",
          "midi": 60,
          "time": 79.28563499999937,
          "velocity": 0.7559055118110236,
          "duration": 0.10714274999999418
        },
        {
          "name": "C5",
          "midi": 72,
          "time": 79.28563499999937,
          "velocity": 0.7559055118110236,
          "duration": 0.10714274999999418
        },
        {
          "name": "C6",
          "midi": 84,
          "time": 79.28563499999937,
          "velocity": 0.7559055118110236,
          "duration": 0.10714274999999418
        },
        {
          "name": "C7",
          "midi": 96,
          "time": 79.28563499999937,
          "velocity": 0.7559055118110236,
          "duration": 0.10714274999999418
        },
        {
          "name": "C4",
          "midi": 60,
          "time": 79.71420599999936,
          "velocity": 0.7559055118110236,
          "duration": 0.10714274999999418
        },
        {
          "name": "D#4",
          "midi": 63,
          "time": 79.71420599999936,
          "velocity": 0.7559055118110236,
          "duration": 0.10714274999999418
        },
        {
          "name": "C5",
          "midi": 72,
          "time": 79.71420599999936,
          "velocity": 0.7559055118110236,
          "duration": 0.10714274999999418
        },
        {
          "name": "D#5",
          "midi": 75,
          "time": 79.71420599999936,
          "velocity": 0.7559055118110236,
          "duration": 0.10714274999999418
        },
        {
          "name": "C6",
          "midi": 84,
          "time": 79.71420599999936,
          "velocity": 0.7559055118110236,
          "duration": 0.10714274999999418
        },
        {
          "name": "D#6",
          "midi": 87,
          "time": 79.71420599999936,
          "velocity": 0.7559055118110236,
          "duration": 0.10714274999999418
        },
        {
          "name": "C#7",
          "midi": 97,
          "time": 79.71420599999936,
          "velocity": 0.7559055118110236,
          "duration": 0.10714274999999418
        },
        {
          "name": "D#7",
          "midi": 99,
          "time": 79.71420599999936,
          "velocity": 0.7559055118110236,
          "duration": 0.10714274999999418
        },
        {
          "name": "C1",
          "midi": 24,
          "time": 79.71420599999936,
          "velocity": 0.7874015748031497,
          "duration": 0.026785687499994992
        },
        {
          "name": "F#2",
          "midi": 42,
          "time": 79.71420599999936,
          "velocity": 0.7874015748031497,
          "duration": 0.026785687499994992
        },
        {
          "name": "D1",
          "midi": 26,
          "time": 79.71420599999936,
          "velocity": 0.7874015748031497,
          "duration": 0.026785687499994992
        },
        {
          "name": "C4",
          "midi": 60,
          "time": 80.14277699999936,
          "velocity": 0.7559055118110236,
          "duration": 0.10714274999999418
        },
        {
          "name": "C5",
          "midi": 72,
          "time": 80.14277699999936,
          "velocity": 0.7559055118110236,
          "duration": 0.10714274999999418
        },
        {
          "name": "C6",
          "midi": 84,
          "time": 80.14277699999936,
          "velocity": 0.7559055118110236,
          "duration": 0.10714274999999418
        },
        {
          "name": "C7",
          "midi": 96,
          "time": 80.14277699999936,
          "velocity": 0.7559055118110236,
          "duration": 0.10714274999999418
        },
        {
          "name": "C4",
          "midi": 60,
          "time": 80.35706249999934,
          "velocity": 0.7559055118110236,
          "duration": 0.10714274999999418
        },
        {
          "name": "C5",
          "midi": 72,
          "time": 80.35706249999934,
          "velocity": 0.7559055118110236,
          "duration": 0.10714274999999418
        },
        {
          "name": "C6",
          "midi": 84,
          "time": 80.35706249999934,
          "velocity": 0.7559055118110236,
          "duration": 0.10714274999999418
        },
        {
          "name": "C7",
          "midi": 96,
          "time": 80.35706249999934,
          "velocity": 0.7559055118110236,
          "duration": 0.10714274999999418
        },
        {
          "name": "D#4",
          "midi": 63,
          "time": 80.57134799999933,
          "velocity": 0.7559055118110236,
          "duration": 0.10714274999999418
        },
        {
          "name": "D#5",
          "midi": 75,
          "time": 80.57134799999933,
          "velocity": 0.7559055118110236,
          "duration": 0.10714274999999418
        },
        {
          "name": "D#6",
          "midi": 87,
          "time": 80.57134799999933,
          "velocity": 0.7559055118110236,
          "duration": 0.10714274999999418
        },
        {
          "name": "D#7",
          "midi": 99,
          "time": 80.57134799999933,
          "velocity": 0.7559055118110236,
          "duration": 0.10714274999999418
        },
        {
          "name": "C1",
          "midi": 24,
          "time": 80.57134799999933,
          "velocity": 0.7874015748031497,
          "duration": 0.026785687499994992
        },
        {
          "name": "F#2",
          "midi": 42,
          "time": 80.57134799999933,
          "velocity": 0.7874015748031497,
          "duration": 0.026785687499994992
        },
        {
          "name": "C4",
          "midi": 60,
          "time": 80.78563349999932,
          "velocity": 0.7559055118110236,
          "duration": 0.10714274999999418
        },
        {
          "name": "D#4",
          "midi": 63,
          "time": 80.78563349999932,
          "velocity": 0.7559055118110236,
          "duration": 0.10714274999999418
        },
        {
          "name": "C5",
          "midi": 72,
          "time": 80.78563349999932,
          "velocity": 0.7559055118110236,
          "duration": 0.10714274999999418
        },
        {
          "name": "D#5",
          "midi": 75,
          "time": 80.78563349999932,
          "velocity": 0.7559055118110236,
          "duration": 0.10714274999999418
        },
        {
          "name": "C6",
          "midi": 84,
          "time": 80.78563349999932,
          "velocity": 0.7559055118110236,
          "duration": 0.10714274999999418
        },
        {
          "name": "D#6",
          "midi": 87,
          "time": 80.78563349999932,
          "velocity": 0.7559055118110236,
          "duration": 0.10714274999999418
        },
        {
          "name": "C7",
          "midi": 96,
          "time": 80.78563349999932,
          "velocity": 0.7559055118110236,
          "duration": 0.10714274999999418
        },
        {
          "name": "D#7",
          "midi": 99,
          "time": 80.78563349999932,
          "velocity": 0.7559055118110236,
          "duration": 0.10714274999999418
        },
        {
          "name": "C1",
          "midi": 24,
          "time": 80.78563349999932,
          "velocity": 0.7874015748031497,
          "duration": 0.026785687499994992
        },
        {
          "name": "B1",
          "midi": 35,
          "time": 80.78563349999932,
          "velocity": 0.7874015748031497,
          "duration": 0.026785687499994992
        },
        {
          "name": "C4",
          "midi": 60,
          "time": 80.99991899999931,
          "velocity": 0.7559055118110236,
          "duration": 0.10714274999999418
        },
        {
          "name": "D#4",
          "midi": 63,
          "time": 80.99991899999931,
          "velocity": 0.7559055118110236,
          "duration": 0.10714274999999418
        },
        {
          "name": "C5",
          "midi": 72,
          "time": 80.99991899999931,
          "velocity": 0.7559055118110236,
          "duration": 0.10714274999999418
        },
        {
          "name": "D#5",
          "midi": 75,
          "time": 80.99991899999931,
          "velocity": 0.7559055118110236,
          "duration": 0.10714274999999418
        },
        {
          "name": "C6",
          "midi": 84,
          "time": 80.99991899999931,
          "velocity": 0.7559055118110236,
          "duration": 0.10714274999999418
        },
        {
          "name": "D#6",
          "midi": 87,
          "time": 80.99991899999931,
          "velocity": 0.7559055118110236,
          "duration": 0.10714274999999418
        },
        {
          "name": "C7",
          "midi": 96,
          "time": 80.99991899999931,
          "velocity": 0.7559055118110236,
          "duration": 0.10714274999999418
        },
        {
          "name": "D#7",
          "midi": 99,
          "time": 80.99991899999931,
          "velocity": 0.7559055118110236,
          "duration": 0.10714274999999418
        },
        {
          "name": "C1",
          "midi": 24,
          "time": 80.99991899999931,
          "velocity": 0.7874015748031497,
          "duration": 0.026785687499994992
        },
        {
          "name": "F#2",
          "midi": 42,
          "time": 80.99991899999931,
          "velocity": 0.7874015748031497,
          "duration": 0.026785687499994992
        },
        {
          "name": "C4",
          "midi": 60,
          "time": 81.2142044999993,
          "velocity": 0.7559055118110236,
          "duration": 0.10714274999999418
        },
        {
          "name": "D#4",
          "midi": 63,
          "time": 81.2142044999993,
          "velocity": 0.7559055118110236,
          "duration": 0.10714274999999418
        },
        {
          "name": "C5",
          "midi": 72,
          "time": 81.2142044999993,
          "velocity": 0.7559055118110236,
          "duration": 0.10714274999999418
        },
        {
          "name": "D#5",
          "midi": 75,
          "time": 81.2142044999993,
          "velocity": 0.7559055118110236,
          "duration": 0.10714274999999418
        },
        {
          "name": "C6",
          "midi": 84,
          "time": 81.2142044999993,
          "velocity": 0.7559055118110236,
          "duration": 0.10714274999999418
        },
        {
          "name": "D#6",
          "midi": 87,
          "time": 81.2142044999993,
          "velocity": 0.7559055118110236,
          "duration": 0.10714274999999418
        },
        {
          "name": "C7",
          "midi": 96,
          "time": 81.2142044999993,
          "velocity": 0.7559055118110236,
          "duration": 0.10714274999999418
        },
        {
          "name": "D#7",
          "midi": 99,
          "time": 81.2142044999993,
          "velocity": 0.7559055118110236,
          "duration": 0.10714274999999418
        },
        {
          "name": "C1",
          "midi": 24,
          "time": 81.2142044999993,
          "velocity": 0.7874015748031497,
          "duration": 0.026785687499994992
        },
        {
          "name": "B1",
          "midi": 35,
          "time": 81.2142044999993,
          "velocity": 0.7874015748031497,
          "duration": 0.026785687499994992
        },
        {
          "name": "C4",
          "midi": 60,
          "time": 81.42848999999929,
          "velocity": 0.7559055118110236,
          "duration": 0.10714274999999418
        },
        {
          "name": "D#4",
          "midi": 63,
          "time": 81.42848999999929,
          "velocity": 0.7559055118110236,
          "duration": 0.10714274999999418
        },
        {
          "name": "C5",
          "midi": 72,
          "time": 81.42848999999929,
          "velocity": 0.7559055118110236,
          "duration": 0.10714274999999418
        },
        {
          "name": "D#5",
          "midi": 75,
          "time": 81.42848999999929,
          "velocity": 0.7559055118110236,
          "duration": 0.10714274999999418
        },
        {
          "name": "C6",
          "midi": 84,
          "time": 81.42848999999929,
          "velocity": 0.7559055118110236,
          "duration": 0.10714274999999418
        },
        {
          "name": "D#6",
          "midi": 87,
          "time": 81.42848999999929,
          "velocity": 0.7559055118110236,
          "duration": 0.10714274999999418
        },
        {
          "name": "C7",
          "midi": 96,
          "time": 81.42848999999929,
          "velocity": 0.7559055118110236,
          "duration": 0.10714274999999418
        },
        {
          "name": "D#7",
          "midi": 99,
          "time": 81.42848999999929,
          "velocity": 0.7559055118110236,
          "duration": 0.10714274999999418
        },
        {
          "name": "C1",
          "midi": 24,
          "time": 81.42848999999929,
          "velocity": 0.7874015748031497,
          "duration": 0.026785687499994992
        },
        {
          "name": "F#2",
          "midi": 42,
          "time": 81.42848999999929,
          "velocity": 0.7874015748031497,
          "duration": 0.026785687499994992
        },
        {
          "name": "C4",
          "midi": 60,
          "time": 81.53563274999928,
          "velocity": 0.7559055118110236,
          "duration": 0.10714274999999418
        },
        {
          "name": "C5",
          "midi": 72,
          "time": 81.53563274999928,
          "velocity": 0.7559055118110236,
          "duration": 0.10714274999999418
        },
        {
          "name": "C6",
          "midi": 84,
          "time": 81.53563274999928,
          "velocity": 0.7559055118110236,
          "duration": 0.10714274999999418
        },
        {
          "name": "C4",
          "midi": 60,
          "time": 81.64277549999927,
          "velocity": 0.7559055118110236,
          "duration": 0.10714274999999418
        },
        {
          "name": "C5",
          "midi": 72,
          "time": 81.64277549999927,
          "velocity": 0.7559055118110236,
          "duration": 0.10714274999999418
        },
        {
          "name": "C6",
          "midi": 84,
          "time": 81.64277549999927,
          "velocity": 0.7559055118110236,
          "duration": 0.10714274999999418
        },
        {
          "name": "C7",
          "midi": 96,
          "time": 81.64277549999927,
          "velocity": 0.7559055118110236,
          "duration": 0.10714274999999418
        },
        {
          "name": "C4",
          "midi": 60,
          "time": 81.74991824999927,
          "velocity": 0.7559055118110236,
          "duration": 0.10714274999999418
        },
        {
          "name": "C5",
          "midi": 72,
          "time": 81.74991824999927,
          "velocity": 0.7559055118110236,
          "duration": 0.10714274999999418
        },
        {
          "name": "C6",
          "midi": 84,
          "time": 81.74991824999927,
          "velocity": 0.7559055118110236,
          "duration": 0.10714274999999418
        },
        {
          "name": "C7",
          "midi": 96,
          "time": 81.74991824999927,
          "velocity": 0.7559055118110236,
          "duration": 0.10714274999999418
        },
        {
          "name": "C4",
          "midi": 60,
          "time": 81.85706099999926,
          "velocity": 0.7559055118110236,
          "duration": 0.10714274999999418
        },
        {
          "name": "C5",
          "midi": 72,
          "time": 81.85706099999926,
          "velocity": 0.7559055118110236,
          "duration": 0.10714274999999418
        },
        {
          "name": "C6",
          "midi": 84,
          "time": 81.85706099999926,
          "velocity": 0.7559055118110236,
          "duration": 0.10714274999999418
        },
        {
          "name": "C7",
          "midi": 96,
          "time": 81.85706099999926,
          "velocity": 0.7559055118110236,
          "duration": 0.10714274999999418
        },
        {
          "name": "C4",
          "midi": 60,
          "time": 81.96420374999926,
          "velocity": 0.7559055118110236,
          "duration": 0.10714274999999418
        },
        {
          "name": "C5",
          "midi": 72,
          "time": 81.96420374999926,
          "velocity": 0.7559055118110236,
          "duration": 0.10714274999999418
        },
        {
          "name": "C6",
          "midi": 84,
          "time": 81.96420374999926,
          "velocity": 0.7559055118110236,
          "duration": 0.10714274999999418
        },
        {
          "name": "C7",
          "midi": 96,
          "time": 81.96420374999926,
          "velocity": 0.7559055118110236,
          "duration": 0.10714274999999418
        },
        {
          "name": "C4",
          "midi": 60,
          "time": 82.07134649999925,
          "velocity": 0.7559055118110236,
          "duration": 0.10714274999999418
        },
        {
          "name": "C5",
          "midi": 72,
          "time": 82.07134649999925,
          "velocity": 0.7559055118110236,
          "duration": 0.10714274999999418
        },
        {
          "name": "C6",
          "midi": 84,
          "time": 82.07134649999925,
          "velocity": 0.7559055118110236,
          "duration": 0.10714274999999418
        },
        {
          "name": "C7",
          "midi": 96,
          "time": 82.07134649999925,
          "velocity": 0.7559055118110236,
          "duration": 0.10714274999999418
        },
        {
          "name": "C4",
          "midi": 60,
          "time": 82.17848924999925,
          "velocity": 0.7559055118110236,
          "duration": 0.10714274999999418
        },
        {
          "name": "C5",
          "midi": 72,
          "time": 82.17848924999925,
          "velocity": 0.7559055118110236,
          "duration": 0.10714274999999418
        },
        {
          "name": "C6",
          "midi": 84,
          "time": 82.17848924999925,
          "velocity": 0.7559055118110236,
          "duration": 0.10714274999999418
        },
        {
          "name": "E7",
          "midi": 100,
          "time": 82.28563199999924,
          "velocity": 0.7559055118110236,
          "duration": 0.10714274999999418
        },
        {
          "name": "C1",
          "midi": 24,
          "time": 82.28563199999924,
          "velocity": 0.7874015748031497,
          "duration": 0.026785687499994992
        },
        {
          "name": "A#1",
          "midi": 34,
          "time": 82.28563199999924,
          "velocity": 0.7874015748031497,
          "duration": 0.026785687499994992
        },
        {
          "name": "C7",
          "midi": 96,
          "time": 82.71420299999923,
          "velocity": 0.7559055118110236,
          "duration": 0.10714274999999418
        },
        {
          "name": "C#7",
          "midi": 97,
          "time": 83.14277399999922,
          "velocity": 0.7559055118110236,
          "duration": 0.10714274999999418
        },
        {
          "name": "D#7",
          "midi": 99,
          "time": 83.14277399999922,
          "velocity": 0.7559055118110236,
          "duration": 0.10714274999999418
        },
        {
          "name": "C1",
          "midi": 24,
          "time": 83.14277399999922,
          "velocity": 0.7874015748031497,
          "duration": 0.026785687499994992
        },
        {
          "name": "F#2",
          "midi": 42,
          "time": 83.14277399999922,
          "velocity": 0.7874015748031497,
          "duration": 0.026785687499994992
        },
        {
          "name": "D1",
          "midi": 26,
          "time": 83.14277399999922,
          "velocity": 0.7874015748031497,
          "duration": 0.026785687499994992
        },
        {
          "name": "C7",
          "midi": 96,
          "time": 83.57134499999921,
          "velocity": 0.7559055118110236,
          "duration": 0.10714274999999418
        },
        {
          "name": "C7",
          "midi": 96,
          "time": 83.7856304999992,
          "velocity": 0.7559055118110236,
          "duration": 0.10714274999999418
        },
        {
          "name": "D#7",
          "midi": 99,
          "time": 83.99991599999919,
          "velocity": 0.7559055118110236,
          "duration": 0.10714274999999418
        },
        {
          "name": "C1",
          "midi": 24,
          "time": 83.99991599999919,
          "velocity": 0.7874015748031497,
          "duration": 0.026785687499994992
        },
        {
          "name": "F#2",
          "midi": 42,
          "time": 83.99991599999919,
          "velocity": 0.7874015748031497,
          "duration": 0.026785687499994992
        },
        {
          "name": "C7",
          "midi": 96,
          "time": 84.21420149999918,
          "velocity": 0.7559055118110236,
          "duration": 0.10714274999999418
        },
        {
          "name": "C7",
          "midi": 96,
          "time": 84.42848699999917,
          "velocity": 0.7559055118110236,
          "duration": 0.10714274999999418
        },
        {
          "name": "C#7",
          "midi": 97,
          "time": 84.85705799999916,
          "velocity": 0.7559055118110236,
          "duration": 0.10714274999999418
        },
        {
          "name": "D#7",
          "midi": 99,
          "time": 84.85705799999916,
          "velocity": 0.7559055118110236,
          "duration": 0.10714274999999418
        },
        {
          "name": "C1",
          "midi": 24,
          "time": 84.85705799999916,
          "velocity": 0.7874015748031497,
          "duration": 0.026785687499994992
        },
        {
          "name": "F#2",
          "midi": 42,
          "time": 84.85705799999916,
          "velocity": 0.7874015748031497,
          "duration": 0.026785687499994992
        },
        {
          "name": "D1",
          "midi": 26,
          "time": 84.85705799999916,
          "velocity": 0.7874015748031497,
          "duration": 0.026785687499994992
        },
        {
          "name": "C7",
          "midi": 96,
          "time": 85.49991449999915,
          "velocity": 0.7559055118110236,
          "duration": 0.10714274999999418
        },
        {
          "name": "C7",
          "midi": 96,
          "time": 85.71419999999914,
          "velocity": 0.7559055118110236,
          "duration": 0.10714274999999418
        },
        {
          "name": "D#7",
          "midi": 99,
          "time": 85.71419999999914,
          "velocity": 0.7559055118110236,
          "duration": 0.10714274999999418
        },
        {
          "name": "C1",
          "midi": 24,
          "time": 85.71419999999914,
          "velocity": 0.7874015748031497,
          "duration": 0.026785687499994992
        },
        {
          "name": "F#2",
          "midi": 42,
          "time": 85.71419999999914,
          "velocity": 0.7874015748031497,
          "duration": 0.026785687499994992
        },
        {
          "name": "C7",
          "midi": 96,
          "time": 86.14277099999913,
          "velocity": 0.7559055118110236,
          "duration": 0.10714274999999418
        },
        {
          "name": "C#7",
          "midi": 97,
          "time": 86.57134199999912,
          "velocity": 0.7559055118110236,
          "duration": 0.10714274999999418
        },
        {
          "name": "D#7",
          "midi": 99,
          "time": 86.57134199999912,
          "velocity": 0.7559055118110236,
          "duration": 0.10714274999999418
        },
        {
          "name": "C1",
          "midi": 24,
          "time": 86.57134199999912,
          "velocity": 0.7874015748031497,
          "duration": 0.026785687499994992
        },
        {
          "name": "F#2",
          "midi": 42,
          "time": 86.57134199999912,
          "velocity": 0.7874015748031497,
          "duration": 0.026785687499994992
        },
        {
          "name": "D1",
          "midi": 26,
          "time": 86.57134199999912,
          "velocity": 0.7874015748031497,
          "duration": 0.026785687499994992
        },
        {
          "name": "C7",
          "midi": 96,
          "time": 86.99991299999911,
          "velocity": 0.7559055118110236,
          "duration": 0.10714274999999418
        },
        {
          "name": "C7",
          "midi": 96,
          "time": 87.2141984999991,
          "velocity": 0.7559055118110236,
          "duration": 0.10714274999999418
        },
        {
          "name": "D#7",
          "midi": 99,
          "time": 87.42848399999909,
          "velocity": 0.7559055118110236,
          "duration": 0.10714274999999418
        },
        {
          "name": "C1",
          "midi": 24,
          "time": 87.42848399999909,
          "velocity": 0.7874015748031497,
          "duration": 0.026785687499994992
        },
        {
          "name": "F#2",
          "midi": 42,
          "time": 87.42848399999909,
          "velocity": 0.7874015748031497,
          "duration": 0.026785687499994992
        },
        {
          "name": "C7",
          "midi": 96,
          "time": 87.64276949999908,
          "velocity": 0.7559055118110236,
          "duration": 0.10714274999999418
        },
        {
          "name": "C7",
          "midi": 96,
          "time": 87.85705499999906,
          "velocity": 0.7559055118110236,
          "duration": 0.10714274999999418
        },
        {
          "name": "C7",
          "midi": 96,
          "time": 87.96419774999906,
          "velocity": 0.7559055118110236,
          "duration": 0.10714274999999418
        },
        {
          "name": "C7",
          "midi": 96,
          "time": 88.07134049999905,
          "velocity": 0.7559055118110236,
          "duration": 0.10714274999999418
        },
        {
          "name": "C7",
          "midi": 96,
          "time": 88.17848324999905,
          "velocity": 0.7559055118110236,
          "duration": 0.10714274999999418
        },
        {
          "name": "C7",
          "midi": 96,
          "time": 88.28562599999904,
          "velocity": 0.7559055118110236,
          "duration": 0.10714274999999418
        },
        {
          "name": "C#7",
          "midi": 97,
          "time": 88.28562599999904,
          "velocity": 0.7559055118110236,
          "duration": 0.10714274999999418
        },
        {
          "name": "D#7",
          "midi": 99,
          "time": 88.28562599999904,
          "velocity": 0.7559055118110236,
          "duration": 0.10714274999999418
        },
        {
          "name": "C1",
          "midi": 24,
          "time": 88.28562599999904,
          "velocity": 0.7874015748031497,
          "duration": 0.026785687499994992
        },
        {
          "name": "F#2",
          "midi": 42,
          "time": 88.28562599999904,
          "velocity": 0.7874015748031497,
          "duration": 0.026785687499994992
        },
        {
          "name": "D1",
          "midi": 26,
          "time": 88.28562599999904,
          "velocity": 0.7874015748031497,
          "duration": 0.026785687499994992
        },
        {
          "name": "C7",
          "midi": 96,
          "time": 88.60705424999904,
          "velocity": 0.7559055118110236,
          "duration": 0.10714274999999418
        },
        {
          "name": "C7",
          "midi": 96,
          "time": 88.92848249999903,
          "velocity": 0.7559055118110236,
          "duration": 0.10714274999999418
        },
        {
          "name": "C7",
          "midi": 96,
          "time": 89.14276799999902,
          "velocity": 0.7559055118110236,
          "duration": 0.10714274999999418
        },
        {
          "name": "D#7",
          "midi": 99,
          "time": 89.14276799999902,
          "velocity": 0.7559055118110236,
          "duration": 0.10714274999999418
        },
        {
          "name": "C1",
          "midi": 24,
          "time": 89.14276799999902,
          "velocity": 0.7874015748031497,
          "duration": 0.026785687499994992
        },
        {
          "name": "F#2",
          "midi": 42,
          "time": 89.14276799999902,
          "velocity": 0.7874015748031497,
          "duration": 0.026785687499994992
        },
        {
          "name": "C7",
          "midi": 96,
          "time": 89.57133899999901,
          "velocity": 0.7559055118110236,
          "duration": 0.10714274999999418
        },
        {
          "name": "C#7",
          "midi": 97,
          "time": 89.999909999999,
          "velocity": 0.7559055118110236,
          "duration": 0.10714274999999418
        },
        {
          "name": "D#7",
          "midi": 99,
          "time": 89.999909999999,
          "velocity": 0.7559055118110236,
          "duration": 0.10714274999999418
        },
        {
          "name": "C1",
          "midi": 24,
          "time": 89.999909999999,
          "velocity": 0.7874015748031497,
          "duration": 0.026785687499994992
        },
        {
          "name": "F#2",
          "midi": 42,
          "time": 89.999909999999,
          "velocity": 0.7874015748031497,
          "duration": 0.026785687499994992
        },
        {
          "name": "D1",
          "midi": 26,
          "time": 89.999909999999,
          "velocity": 0.7874015748031497,
          "duration": 0.026785687499994992
        },
        {
          "name": "C7",
          "midi": 96,
          "time": 90.428480999999,
          "velocity": 0.7559055118110236,
          "duration": 0.10714274999999418
        },
        {
          "name": "C7",
          "midi": 96,
          "time": 90.64276649999898,
          "velocity": 0.7559055118110236,
          "duration": 0.10714274999999418
        },
        {
          "name": "D#7",
          "midi": 99,
          "time": 90.85705199999897,
          "velocity": 0.7559055118110236,
          "duration": 0.10714274999999418
        },
        {
          "name": "C1",
          "midi": 24,
          "time": 90.85705199999897,
          "velocity": 0.7874015748031497,
          "duration": 0.026785687499994992
        },
        {
          "name": "F#2",
          "midi": 42,
          "time": 90.85705199999897,
          "velocity": 0.7874015748031497,
          "duration": 0.026785687499994992
        },
        {
          "name": "C7",
          "midi": 96,
          "time": 91.07133749999896,
          "velocity": 0.7559055118110236,
          "duration": 0.10714274999999418
        },
        {
          "name": "C7",
          "midi": 96,
          "time": 91.28562299999895,
          "velocity": 0.7559055118110236,
          "duration": 0.10714274999999418
        },
        {
          "name": "C#7",
          "midi": 97,
          "time": 91.71419399999894,
          "velocity": 0.7559055118110236,
          "duration": 0.10714274999999418
        },
        {
          "name": "D#7",
          "midi": 99,
          "time": 91.71419399999894,
          "velocity": 0.7559055118110236,
          "duration": 0.10714274999999418
        },
        {
          "name": "C1",
          "midi": 24,
          "time": 91.71419399999894,
          "velocity": 0.7874015748031497,
          "duration": 0.026785687499994992
        },
        {
          "name": "F#2",
          "midi": 42,
          "time": 91.71419399999894,
          "velocity": 0.7874015748031497,
          "duration": 0.026785687499994992
        },
        {
          "name": "D1",
          "midi": 26,
          "time": 91.71419399999894,
          "velocity": 0.7874015748031497,
          "duration": 0.026785687499994992
        },
        {
          "name": "C7",
          "midi": 96,
          "time": 92.35705049999893,
          "velocity": 0.7559055118110236,
          "duration": 0.10714274999999418
        },
        {
          "name": "C7",
          "midi": 96,
          "time": 92.57133599999892,
          "velocity": 0.7559055118110236,
          "duration": 0.10714274999999418
        },
        {
          "name": "D#7",
          "midi": 99,
          "time": 92.57133599999892,
          "velocity": 0.7559055118110236,
          "duration": 0.10714274999999418
        },
        {
          "name": "C1",
          "midi": 24,
          "time": 92.57133599999892,
          "velocity": 0.7874015748031497,
          "duration": 0.026785687499994992
        },
        {
          "name": "F#2",
          "midi": 42,
          "time": 92.57133599999892,
          "velocity": 0.7874015748031497,
          "duration": 0.026785687499994992
        },
        {
          "name": "C7",
          "midi": 96,
          "time": 92.99990699999891,
          "velocity": 0.7559055118110236,
          "duration": 0.10714274999999418
        },
        {
          "name": "C#7",
          "midi": 97,
          "time": 93.4284779999989,
          "velocity": 0.7559055118110236,
          "duration": 0.10714274999999418
        },
        {
          "name": "D#7",
          "midi": 99,
          "time": 93.4284779999989,
          "velocity": 0.7559055118110236,
          "duration": 0.10714274999999418
        },
        {
          "name": "C1",
          "midi": 24,
          "time": 93.4284779999989,
          "velocity": 0.7874015748031497,
          "duration": 0.026785687499994992
        },
        {
          "name": "F#2",
          "midi": 42,
          "time": 93.4284779999989,
          "velocity": 0.7874015748031497,
          "duration": 0.026785687499994992
        },
        {
          "name": "D1",
          "midi": 26,
          "time": 93.4284779999989,
          "velocity": 0.7874015748031497,
          "duration": 0.026785687499994992
        },
        {
          "name": "C7",
          "midi": 96,
          "time": 93.8570489999989,
          "velocity": 0.7559055118110236,
          "duration": 0.10714274999999418
        },
        {
          "name": "C7",
          "midi": 96,
          "time": 94.07133449999888,
          "velocity": 0.7559055118110236,
          "duration": 0.10714274999999418
        },
        {
          "name": "D#7",
          "midi": 99,
          "time": 94.28561999999887,
          "velocity": 0.7559055118110236,
          "duration": 0.10714274999999418
        },
        {
          "name": "C1",
          "midi": 24,
          "time": 94.28561999999887,
          "velocity": 0.7874015748031497,
          "duration": 0.026785687499994992
        },
        {
          "name": "F#2",
          "midi": 42,
          "time": 94.28561999999887,
          "velocity": 0.7874015748031497,
          "duration": 0.026785687499994992
        },
        {
          "name": "C7",
          "midi": 96,
          "time": 94.49990549999886,
          "velocity": 0.7559055118110236,
          "duration": 0.10714274999999418
        },
        {
          "name": "C7",
          "midi": 96,
          "time": 94.71419099999885,
          "velocity": 0.7559055118110236,
          "duration": 0.10714274999999418
        },
        {
          "name": "C#7",
          "midi": 97,
          "time": 95.14276199999884,
          "velocity": 0.7559055118110236,
          "duration": 0.10714274999999418
        },
        {
          "name": "D#7",
          "midi": 99,
          "time": 95.14276199999884,
          "velocity": 0.7559055118110236,
          "duration": 0.10714274999999418
        },
        {
          "name": "C1",
          "midi": 24,
          "time": 95.14276199999884,
          "velocity": 0.7874015748031497,
          "duration": 0.026785687499994992
        },
        {
          "name": "F#2",
          "midi": 42,
          "time": 95.14276199999884,
          "velocity": 0.7874015748031497,
          "duration": 0.026785687499994992
        },
        {
          "name": "D1",
          "midi": 26,
          "time": 95.14276199999884,
          "velocity": 0.7874015748031497,
          "duration": 0.026785687499994992
        },
        {
          "name": "C7",
          "midi": 96,
          "time": 95.99990399999884,
          "velocity": 0.7559055118110236,
          "duration": 0.10714274999999418
        },
        {
          "name": "E7",
          "midi": 100,
          "time": 95.99990399999884,
          "velocity": 0.7559055118110236,
          "duration": 0.10714274999999418
        },
        {
          "name": "C1",
          "midi": 24,
          "time": 95.99990399999884,
          "velocity": 0.7874015748031497,
          "duration": 0.026785687499994992
        },
        {
          "name": "C2",
          "midi": 36,
          "time": 95.99990399999884,
          "velocity": 0.7874015748031497,
          "duration": 0.026785687499994992
        },
        {
          "name": "D7",
          "midi": 98,
          "time": 96.21418949999882,
          "velocity": 0.7559055118110236,
          "duration": 0.10714274999999418
        },
        {
          "name": "F#1",
          "midi": 30,
          "time": 96.21418949999882,
          "velocity": 0.7874015748031497,
          "duration": 0.026785687499994992
        },
        {
          "name": "C7",
          "midi": 96,
          "time": 96.42847499999881,
          "velocity": 0.7559055118110236,
          "duration": 0.10714274999999418
        },
        {
          "name": "D7",
          "midi": 98,
          "time": 96.42847499999881,
          "velocity": 0.7559055118110236,
          "duration": 0.10714274999999418
        },
        {
          "name": "C1",
          "midi": 24,
          "time": 96.42847499999881,
          "velocity": 0.7874015748031497,
          "duration": 0.026785687499994992
        },
        {
          "name": "G1",
          "midi": 31,
          "time": 96.42847499999881,
          "velocity": 0.7874015748031497,
          "duration": 0.026785687499994992
        },
        {
          "name": "D7",
          "midi": 98,
          "time": 96.6427604999988,
          "velocity": 0.7559055118110236,
          "duration": 0.10714274999999418
        },
        {
          "name": "F#1",
          "midi": 30,
          "time": 96.6427604999988,
          "velocity": 0.7874015748031497,
          "duration": 0.026785687499994992
        },
        {
          "name": "C#7",
          "midi": 97,
          "time": 96.85704599999879,
          "velocity": 0.7559055118110236,
          "duration": 0.10714274999999418
        },
        {
          "name": "D7",
          "midi": 98,
          "time": 96.85704599999879,
          "velocity": 0.7559055118110236,
          "duration": 0.10714274999999418
        },
        {
          "name": "G1",
          "midi": 31,
          "time": 96.85704599999879,
          "velocity": 0.7874015748031497,
          "duration": 0.026785687499994992
        },
        {
          "name": "D1",
          "midi": 26,
          "time": 96.85704599999879,
          "velocity": 0.7874015748031497,
          "duration": 0.026785687499994992
        },
        {
          "name": "D7",
          "midi": 98,
          "time": 97.07133149999878,
          "velocity": 0.7559055118110236,
          "duration": 0.10714274999999418
        },
        {
          "name": "G1",
          "midi": 31,
          "time": 97.07133149999878,
          "velocity": 0.7874015748031497,
          "duration": 0.026785687499994992
        },
        {
          "name": "C7",
          "midi": 96,
          "time": 97.28561699999877,
          "velocity": 0.7559055118110236,
          "duration": 0.10714274999999418
        },
        {
          "name": "D7",
          "midi": 98,
          "time": 97.28561699999877,
          "velocity": 0.7559055118110236,
          "duration": 0.10714274999999418
        },
        {
          "name": "C1",
          "midi": 24,
          "time": 97.28561699999877,
          "velocity": 0.7874015748031497,
          "duration": 0.026785687499994992
        },
        {
          "name": "F#1",
          "midi": 30,
          "time": 97.28561699999877,
          "velocity": 0.7874015748031497,
          "duration": 0.026785687499994992
        },
        {
          "name": "C7",
          "midi": 96,
          "time": 97.49990249999875,
          "velocity": 0.7559055118110236,
          "duration": 0.10714274999999418
        },
        {
          "name": "D7",
          "midi": 98,
          "time": 97.49990249999875,
          "velocity": 0.7559055118110236,
          "duration": 0.10714274999999418
        },
        {
          "name": "C1",
          "midi": 24,
          "time": 97.49990249999875,
          "velocity": 0.7874015748031497,
          "duration": 0.026785687499994992
        },
        {
          "name": "G1",
          "midi": 31,
          "time": 97.49990249999875,
          "velocity": 0.7874015748031497,
          "duration": 0.026785687499994992
        },
        {
          "name": "D7",
          "midi": 98,
          "time": 97.71418799999874,
          "velocity": 0.7559055118110236,
          "duration": 0.10714274999999418
        },
        {
          "name": "F#1",
          "midi": 30,
          "time": 97.71418799999874,
          "velocity": 0.7874015748031497,
          "duration": 0.026785687499994992
        },
        {
          "name": "C7",
          "midi": 96,
          "time": 97.92847349999873,
          "velocity": 0.7559055118110236,
          "duration": 0.10714274999999418
        },
        {
          "name": "D7",
          "midi": 98,
          "time": 97.92847349999873,
          "velocity": 0.7559055118110236,
          "duration": 0.10714274999999418
        },
        {
          "name": "C1",
          "midi": 24,
          "time": 97.92847349999873,
          "velocity": 0.7874015748031497,
          "duration": 0.026785687499994992
        },
        {
          "name": "G1",
          "midi": 31,
          "time": 97.92847349999873,
          "velocity": 0.7874015748031497,
          "duration": 0.026785687499994992
        },
        {
          "name": "C7",
          "midi": 96,
          "time": 98.14275899999872,
          "velocity": 0.7559055118110236,
          "duration": 0.10714274999999418
        },
        {
          "name": "D7",
          "midi": 98,
          "time": 98.14275899999872,
          "velocity": 0.7559055118110236,
          "duration": 0.10714274999999418
        },
        {
          "name": "C1",
          "midi": 24,
          "time": 98.14275899999872,
          "velocity": 0.7874015748031497,
          "duration": 0.026785687499994992
        },
        {
          "name": "F#1",
          "midi": 30,
          "time": 98.14275899999872,
          "velocity": 0.7874015748031497,
          "duration": 0.026785687499994992
        },
        {
          "name": "D7",
          "midi": 98,
          "time": 98.35704449999871,
          "velocity": 0.7559055118110236,
          "duration": 0.10714274999999418
        },
        {
          "name": "G1",
          "midi": 31,
          "time": 98.35704449999871,
          "velocity": 0.7874015748031497,
          "duration": 0.026785687499994992
        },
        {
          "name": "C#7",
          "midi": 97,
          "time": 98.5713299999987,
          "velocity": 0.7559055118110236,
          "duration": 0.10714274999999418
        },
        {
          "name": "D7",
          "midi": 98,
          "time": 98.5713299999987,
          "velocity": 0.7559055118110236,
          "duration": 0.10714274999999418
        },
        {
          "name": "G1",
          "midi": 31,
          "time": 98.5713299999987,
          "velocity": 0.7874015748031497,
          "duration": 0.026785687499994992
        },
        {
          "name": "D1",
          "midi": 26,
          "time": 98.5713299999987,
          "velocity": 0.7874015748031497,
          "duration": 0.026785687499994992
        },
        {
          "name": "D7",
          "midi": 98,
          "time": 98.78561549999868,
          "velocity": 0.7559055118110236,
          "duration": 0.10714274999999418
        },
        {
          "name": "G1",
          "midi": 31,
          "time": 98.78561549999868,
          "velocity": 0.7874015748031497,
          "duration": 0.026785687499994992
        },
        {
          "name": "D#7",
          "midi": 99,
          "time": 98.99990099999867,
          "velocity": 0.7559055118110236,
          "duration": 0.10714274999999418
        },
        {
          "name": "B1",
          "midi": 35,
          "time": 98.99990099999867,
          "velocity": 0.7874015748031497,
          "duration": 0.026785687499994992
        },
        {
          "name": "C7",
          "midi": 96,
          "time": 99.21418649999866,
          "velocity": 0.7559055118110236,
          "duration": 0.10714274999999418
        },
        {
          "name": "D7",
          "midi": 98,
          "time": 99.21418649999866,
          "velocity": 0.7559055118110236,
          "duration": 0.10714274999999418
        },
        {
          "name": "C1",
          "midi": 24,
          "time": 99.21418649999866,
          "velocity": 0.7874015748031497,
          "duration": 0.026785687499994992
        },
        {
          "name": "G1",
          "midi": 31,
          "time": 99.21418649999866,
          "velocity": 0.7874015748031497,
          "duration": 0.026785687499994992
        },
        {
          "name": "C7",
          "midi": 96,
          "time": 99.42847199999865,
          "velocity": 0.7559055118110236,
          "duration": 0.10714274999999418
        },
        {
          "name": "D7",
          "midi": 98,
          "time": 99.42847199999865,
          "velocity": 0.7559055118110236,
          "duration": 0.10714274999999418
        },
        {
          "name": "C1",
          "midi": 24,
          "time": 99.42847199999865,
          "velocity": 0.7874015748031497,
          "duration": 0.026785687499994992
        },
        {
          "name": "F#1",
          "midi": 30,
          "time": 99.42847199999865,
          "velocity": 0.7874015748031497,
          "duration": 0.026785687499994992
        },
        {
          "name": "D#7",
          "midi": 99,
          "time": 99.64275749999864,
          "velocity": 0.7559055118110236,
          "duration": 0.10714274999999418
        },
        {
          "name": "F#2",
          "midi": 42,
          "time": 99.64275749999864,
          "velocity": 0.7874015748031497,
          "duration": 0.026785687499994992
        },
        {
          "name": "C7",
          "midi": 96,
          "time": 99.85704299999863,
          "velocity": 0.7559055118110236,
          "duration": 0.10714274999999418
        },
        {
          "name": "D7",
          "midi": 98,
          "time": 99.85704299999863,
          "velocity": 0.7559055118110236,
          "duration": 0.10714274999999418
        },
        {
          "name": "C1",
          "midi": 24,
          "time": 99.85704299999863,
          "velocity": 0.7874015748031497,
          "duration": 0.026785687499994992
        },
        {
          "name": "F#1",
          "midi": 30,
          "time": 99.85704299999863,
          "velocity": 0.7874015748031497,
          "duration": 0.026785687499994992
        },
        {
          "name": "D7",
          "midi": 98,
          "time": 100.07132849999861,
          "velocity": 0.7559055118110236,
          "duration": 0.10714274999999418
        },
        {
          "name": "G1",
          "midi": 31,
          "time": 100.07132849999861,
          "velocity": 0.7874015748031497,
          "duration": 0.026785687499994992
        },
        {
          "name": "C#7",
          "midi": 97,
          "time": 100.2856139999986,
          "velocity": 0.7559055118110236,
          "duration": 0.10714274999999418
        },
        {
          "name": "D7",
          "midi": 98,
          "time": 100.2856139999986,
          "velocity": 0.7559055118110236,
          "duration": 0.10714274999999418
        },
        {
          "name": "G1",
          "midi": 31,
          "time": 100.2856139999986,
          "velocity": 0.7874015748031497,
          "duration": 0.026785687499994992
        },
        {
          "name": "D1",
          "midi": 26,
          "time": 100.2856139999986,
          "velocity": 0.7874015748031497,
          "duration": 0.026785687499994992
        },
        {
          "name": "D7",
          "midi": 98,
          "time": 100.49989949999859,
          "velocity": 0.7559055118110236,
          "duration": 0.10714274999999418
        },
        {
          "name": "G1",
          "midi": 31,
          "time": 100.49989949999859,
          "velocity": 0.7874015748031497,
          "duration": 0.026785687499994992
        },
        {
          "name": "C7",
          "midi": 96,
          "time": 100.71418499999858,
          "velocity": 0.7559055118110236,
          "duration": 0.10714274999999418
        },
        {
          "name": "D7",
          "midi": 98,
          "time": 100.71418499999858,
          "velocity": 0.7559055118110236,
          "duration": 0.10714274999999418
        },
        {
          "name": "C1",
          "midi": 24,
          "time": 100.71418499999858,
          "velocity": 0.7874015748031497,
          "duration": 0.026785687499994992
        },
        {
          "name": "F#1",
          "midi": 30,
          "time": 100.71418499999858,
          "velocity": 0.7874015748031497,
          "duration": 0.026785687499994992
        },
        {
          "name": "C7",
          "midi": 96,
          "time": 100.92847049999857,
          "velocity": 0.7559055118110236,
          "duration": 0.10714274999999418
        },
        {
          "name": "D7",
          "midi": 98,
          "time": 100.92847049999857,
          "velocity": 0.7559055118110236,
          "duration": 0.10714274999999418
        },
        {
          "name": "C1",
          "midi": 24,
          "time": 100.92847049999857,
          "velocity": 0.7874015748031497,
          "duration": 0.026785687499994992
        },
        {
          "name": "G1",
          "midi": 31,
          "time": 100.92847049999857,
          "velocity": 0.7874015748031497,
          "duration": 0.026785687499994992
        },
        {
          "name": "D7",
          "midi": 98,
          "time": 101.14275599999856,
          "velocity": 0.7559055118110236,
          "duration": 0.10714274999999418
        },
        {
          "name": "F#1",
          "midi": 30,
          "time": 101.14275599999856,
          "velocity": 0.7874015748031497,
          "duration": 0.026785687499994992
        },
        {
          "name": "C7",
          "midi": 96,
          "time": 101.35704149999854,
          "velocity": 0.7559055118110236,
          "duration": 0.10714274999999418
        },
        {
          "name": "D7",
          "midi": 98,
          "time": 101.35704149999854,
          "velocity": 0.7559055118110236,
          "duration": 0.10714274999999418
        },
        {
          "name": "C1",
          "midi": 24,
          "time": 101.35704149999854,
          "velocity": 0.7874015748031497,
          "duration": 0.026785687499994992
        },
        {
          "name": "G1",
          "midi": 31,
          "time": 101.35704149999854,
          "velocity": 0.7874015748031497,
          "duration": 0.026785687499994992
        },
        {
          "name": "C7",
          "midi": 96,
          "time": 101.57132699999853,
          "velocity": 0.7559055118110236,
          "duration": 0.10714274999999418
        },
        {
          "name": "D7",
          "midi": 98,
          "time": 101.57132699999853,
          "velocity": 0.7559055118110236,
          "duration": 0.10714274999999418
        },
        {
          "name": "C1",
          "midi": 24,
          "time": 101.57132699999853,
          "velocity": 0.7874015748031497,
          "duration": 0.026785687499994992
        },
        {
          "name": "F#1",
          "midi": 30,
          "time": 101.57132699999853,
          "velocity": 0.7874015748031497,
          "duration": 0.026785687499994992
        },
        {
          "name": "D7",
          "midi": 98,
          "time": 101.78561249999852,
          "velocity": 0.7559055118110236,
          "duration": 0.10714274999999418
        },
        {
          "name": "G1",
          "midi": 31,
          "time": 101.78561249999852,
          "velocity": 0.7874015748031497,
          "duration": 0.026785687499994992
        },
        {
          "name": "C#7",
          "midi": 97,
          "time": 101.99989799999851,
          "velocity": 0.7559055118110236,
          "duration": 0.10714274999999418
        },
        {
          "name": "D7",
          "midi": 98,
          "time": 101.99989799999851,
          "velocity": 0.7559055118110236,
          "duration": 0.10714274999999418
        },
        {
          "name": "G1",
          "midi": 31,
          "time": 101.99989799999851,
          "velocity": 0.7874015748031497,
          "duration": 0.026785687499994992
        },
        {
          "name": "D1",
          "midi": 26,
          "time": 101.99989799999851,
          "velocity": 0.7874015748031497,
          "duration": 0.026785687499994992
        },
        {
          "name": "D7",
          "midi": 98,
          "time": 102.2141834999985,
          "velocity": 0.7559055118110236,
          "duration": 0.10714274999999418
        },
        {
          "name": "G1",
          "midi": 31,
          "time": 102.2141834999985,
          "velocity": 0.7874015748031497,
          "duration": 0.026785687499994992
        },
        {
          "name": "D#7",
          "midi": 99,
          "time": 102.42846899999849,
          "velocity": 0.7559055118110236,
          "duration": 0.10714274999999418
        },
        {
          "name": "B1",
          "midi": 35,
          "time": 102.42846899999849,
          "velocity": 0.7874015748031497,
          "duration": 0.026785687499994992
        },
        {
          "name": "C7",
          "midi": 96,
          "time": 102.64275449999847,
          "velocity": 0.7559055118110236,
          "duration": 0.10714274999999418
        },
        {
          "name": "D7",
          "midi": 98,
          "time": 102.64275449999847,
          "velocity": 0.7559055118110236,
          "duration": 0.10714274999999418
        },
        {
          "name": "C1",
          "midi": 24,
          "time": 102.64275449999847,
          "velocity": 0.7874015748031497,
          "duration": 0.026785687499994992
        },
        {
          "name": "G1",
          "midi": 31,
          "time": 102.64275449999847,
          "velocity": 0.7874015748031497,
          "duration": 0.026785687499994992
        },
        {
          "name": "C7",
          "midi": 96,
          "time": 102.85703999999846,
          "velocity": 0.7559055118110236,
          "duration": 0.10714274999999418
        },
        {
          "name": "D7",
          "midi": 98,
          "time": 102.85703999999846,
          "velocity": 0.7559055118110236,
          "duration": 0.10714274999999418
        },
        {
          "name": "C1",
          "midi": 24,
          "time": 102.85703999999846,
          "velocity": 0.7874015748031497,
          "duration": 0.026785687499994992
        },
        {
          "name": "F#1",
          "midi": 30,
          "time": 102.85703999999846,
          "velocity": 0.7874015748031497,
          "duration": 0.026785687499994992
        },
        {
          "name": "D#7",
          "midi": 99,
          "time": 103.07132549999845,
          "velocity": 0.7559055118110236,
          "duration": 0.10714274999999418
        },
        {
          "name": "F#2",
          "midi": 42,
          "time": 103.07132549999845,
          "velocity": 0.7874015748031497,
          "duration": 0.026785687499994992
        },
        {
          "name": "C7",
          "midi": 96,
          "time": 103.28561099999844,
          "velocity": 0.7559055118110236,
          "duration": 0.10714274999999418
        },
        {
          "name": "D7",
          "midi": 98,
          "time": 103.28561099999844,
          "velocity": 0.7559055118110236,
          "duration": 0.10714274999999418
        },
        {
          "name": "C1",
          "midi": 24,
          "time": 103.28561099999844,
          "velocity": 0.7874015748031497,
          "duration": 0.026785687499994992
        },
        {
          "name": "F#1",
          "midi": 30,
          "time": 103.28561099999844,
          "velocity": 0.7874015748031497,
          "duration": 0.026785687499994992
        },
        {
          "name": "D7",
          "midi": 98,
          "time": 103.49989649999843,
          "velocity": 0.7559055118110236,
          "duration": 0.10714274999999418
        },
        {
          "name": "G1",
          "midi": 31,
          "time": 103.49989649999843,
          "velocity": 0.7874015748031497,
          "duration": 0.026785687499994992
        },
        {
          "name": "C#7",
          "midi": 97,
          "time": 103.71418199999842,
          "velocity": 0.7559055118110236,
          "duration": 0.10714274999999418
        },
        {
          "name": "D7",
          "midi": 98,
          "time": 103.71418199999842,
          "velocity": 0.7559055118110236,
          "duration": 0.10714274999999418
        },
        {
          "name": "G1",
          "midi": 31,
          "time": 103.71418199999842,
          "velocity": 0.7874015748031497,
          "duration": 0.026785687499994992
        },
        {
          "name": "D1",
          "midi": 26,
          "time": 103.71418199999842,
          "velocity": 0.7874015748031497,
          "duration": 0.026785687499994992
        },
        {
          "name": "D7",
          "midi": 98,
          "time": 103.9284674999984,
          "velocity": 0.7559055118110236,
          "duration": 0.10714274999999418
        },
        {
          "name": "G1",
          "midi": 31,
          "time": 103.9284674999984,
          "velocity": 0.7874015748031497,
          "duration": 0.026785687499994992
        },
        {
          "name": "C7",
          "midi": 96,
          "time": 104.1427529999984,
          "velocity": 0.7559055118110236,
          "duration": 0.10714274999999418
        },
        {
          "name": "D7",
          "midi": 98,
          "time": 104.1427529999984,
          "velocity": 0.7559055118110236,
          "duration": 0.10714274999999418
        },
        {
          "name": "C1",
          "midi": 24,
          "time": 104.1427529999984,
          "velocity": 0.7874015748031497,
          "duration": 0.026785687499994992
        },
        {
          "name": "F#1",
          "midi": 30,
          "time": 104.1427529999984,
          "velocity": 0.7874015748031497,
          "duration": 0.026785687499994992
        },
        {
          "name": "C7",
          "midi": 96,
          "time": 104.35703849999838,
          "velocity": 0.7559055118110236,
          "duration": 0.10714274999999418
        },
        {
          "name": "D7",
          "midi": 98,
          "time": 104.35703849999838,
          "velocity": 0.7559055118110236,
          "duration": 0.10714274999999418
        },
        {
          "name": "C1",
          "midi": 24,
          "time": 104.35703849999838,
          "velocity": 0.7874015748031497,
          "duration": 0.026785687499994992
        },
        {
          "name": "G1",
          "midi": 31,
          "time": 104.35703849999838,
          "velocity": 0.7874015748031497,
          "duration": 0.026785687499994992
        },
        {
          "name": "D7",
          "midi": 98,
          "time": 104.57132399999837,
          "velocity": 0.7559055118110236,
          "duration": 0.10714274999999418
        },
        {
          "name": "F#1",
          "midi": 30,
          "time": 104.57132399999837,
          "velocity": 0.7874015748031497,
          "duration": 0.026785687499994992
        },
        {
          "name": "C7",
          "midi": 96,
          "time": 104.78560949999836,
          "velocity": 0.7559055118110236,
          "duration": 0.10714274999999418
        },
        {
          "name": "D7",
          "midi": 98,
          "time": 104.78560949999836,
          "velocity": 0.7559055118110236,
          "duration": 0.10714274999999418
        },
        {
          "name": "C1",
          "midi": 24,
          "time": 104.78560949999836,
          "velocity": 0.7874015748031497,
          "duration": 0.026785687499994992
        },
        {
          "name": "G1",
          "midi": 31,
          "time": 104.78560949999836,
          "velocity": 0.7874015748031497,
          "duration": 0.026785687499994992
        },
        {
          "name": "C7",
          "midi": 96,
          "time": 104.99989499999835,
          "velocity": 0.7559055118110236,
          "duration": 0.10714274999999418
        },
        {
          "name": "D7",
          "midi": 98,
          "time": 104.99989499999835,
          "velocity": 0.7559055118110236,
          "duration": 0.10714274999999418
        },
        {
          "name": "C1",
          "midi": 24,
          "time": 104.99989499999835,
          "velocity": 0.7874015748031497,
          "duration": 0.026785687499994992
        },
        {
          "name": "F#1",
          "midi": 30,
          "time": 104.99989499999835,
          "velocity": 0.7874015748031497,
          "duration": 0.026785687499994992
        },
        {
          "name": "D7",
          "midi": 98,
          "time": 105.21418049999833,
          "velocity": 0.7559055118110236,
          "duration": 0.10714274999999418
        },
        {
          "name": "G1",
          "midi": 31,
          "time": 105.21418049999833,
          "velocity": 0.7874015748031497,
          "duration": 0.026785687499994992
        },
        {
          "name": "C#7",
          "midi": 97,
          "time": 105.42846599999832,
          "velocity": 0.7559055118110236,
          "duration": 0.10714274999999418
        },
        {
          "name": "D7",
          "midi": 98,
          "time": 105.42846599999832,
          "velocity": 0.7559055118110236,
          "duration": 0.10714274999999418
        },
        {
          "name": "G1",
          "midi": 31,
          "time": 105.42846599999832,
          "velocity": 0.7874015748031497,
          "duration": 0.026785687499994992
        },
        {
          "name": "D1",
          "midi": 26,
          "time": 105.42846599999832,
          "velocity": 0.7874015748031497,
          "duration": 0.026785687499994992
        },
        {
          "name": "D7",
          "midi": 98,
          "time": 105.64275149999831,
          "velocity": 0.7559055118110236,
          "duration": 0.10714274999999418
        },
        {
          "name": "G1",
          "midi": 31,
          "time": 105.64275149999831,
          "velocity": 0.7874015748031497,
          "duration": 0.026785687499994992
        },
        {
          "name": "D#7",
          "midi": 99,
          "time": 105.8570369999983,
          "velocity": 0.7559055118110236,
          "duration": 0.10714274999999418
        },
        {
          "name": "B1",
          "midi": 35,
          "time": 105.8570369999983,
          "velocity": 0.7874015748031497,
          "duration": 0.026785687499994992
        },
        {
          "name": "C7",
          "midi": 96,
          "time": 106.07132249999829,
          "velocity": 0.7559055118110236,
          "duration": 0.10714274999999418
        },
        {
          "name": "D7",
          "midi": 98,
          "time": 106.07132249999829,
          "velocity": 0.7559055118110236,
          "duration": 0.10714274999999418
        },
        {
          "name": "C1",
          "midi": 24,
          "time": 106.07132249999829,
          "velocity": 0.7874015748031497,
          "duration": 0.026785687499994992
        },
        {
          "name": "G1",
          "midi": 31,
          "time": 106.07132249999829,
          "velocity": 0.7874015748031497,
          "duration": 0.026785687499994992
        },
        {
          "name": "C7",
          "midi": 96,
          "time": 106.28560799999828,
          "velocity": 0.7559055118110236,
          "duration": 0.10714274999999418
        },
        {
          "name": "D7",
          "midi": 98,
          "time": 106.28560799999828,
          "velocity": 0.7559055118110236,
          "duration": 0.10714274999999418
        },
        {
          "name": "C1",
          "midi": 24,
          "time": 106.28560799999828,
          "velocity": 0.7874015748031497,
          "duration": 0.026785687499994992
        },
        {
          "name": "F#1",
          "midi": 30,
          "time": 106.28560799999828,
          "velocity": 0.7874015748031497,
          "duration": 0.026785687499994992
        },
        {
          "name": "D#7",
          "midi": 99,
          "time": 106.49989349999827,
          "velocity": 0.7559055118110236,
          "duration": 0.10714274999999418
        },
        {
          "name": "F#2",
          "midi": 42,
          "time": 106.49989349999827,
          "velocity": 0.7874015748031497,
          "duration": 0.026785687499994992
        },
        {
          "name": "C7",
          "midi": 96,
          "time": 106.71417899999825,
          "velocity": 0.7559055118110236,
          "duration": 0.10714274999999418
        },
        {
          "name": "D7",
          "midi": 98,
          "time": 106.71417899999825,
          "velocity": 0.7559055118110236,
          "duration": 0.10714274999999418
        },
        {
          "name": "C1",
          "midi": 24,
          "time": 106.71417899999825,
          "velocity": 0.7874015748031497,
          "duration": 0.026785687499994992
        },
        {
          "name": "F#1",
          "midi": 30,
          "time": 106.71417899999825,
          "velocity": 0.7874015748031497,
          "duration": 0.026785687499994992
        },
        {
          "name": "D7",
          "midi": 98,
          "time": 106.92846449999824,
          "velocity": 0.7559055118110236,
          "duration": 0.10714274999999418
        },
        {
          "name": "G1",
          "midi": 31,
          "time": 106.92846449999824,
          "velocity": 0.7874015748031497,
          "duration": 0.026785687499994992
        },
        {
          "name": "C#7",
          "midi": 97,
          "time": 107.14274999999823,
          "velocity": 0.7559055118110236,
          "duration": 0.10714274999999418
        },
        {
          "name": "D7",
          "midi": 98,
          "time": 107.14274999999823,
          "velocity": 0.7559055118110236,
          "duration": 0.10714274999999418
        },
        {
          "name": "G1",
          "midi": 31,
          "time": 107.14274999999823,
          "velocity": 0.7874015748031497,
          "duration": 0.026785687499994992
        },
        {
          "name": "D1",
          "midi": 26,
          "time": 107.14274999999823,
          "velocity": 0.7874015748031497,
          "duration": 0.026785687499994992
        },
        {
          "name": "D7",
          "midi": 98,
          "time": 107.35703549999822,
          "velocity": 0.7559055118110236,
          "duration": 0.10714274999999418
        },
        {
          "name": "G1",
          "midi": 31,
          "time": 107.35703549999822,
          "velocity": 0.7874015748031497,
          "duration": 0.026785687499994992
        },
        {
          "name": "C7",
          "midi": 96,
          "time": 107.5713209999982,
          "velocity": 0.7559055118110236,
          "duration": 0.07142849999999612
        },
        {
          "name": "D7",
          "midi": 98,
          "time": 107.5713209999982,
          "velocity": 0.7559055118110236,
          "duration": 0.07142849999999612
        },
        {
          "name": "C1",
          "midi": 24,
          "time": 107.5713209999982,
          "velocity": 0.7874015748031497,
          "duration": 0.026785687499994992
        },
        {
          "name": "F#1",
          "midi": 30,
          "time": 107.5713209999982,
          "velocity": 0.7874015748031497,
          "duration": 0.026785687499994992
        },
        {
          "name": "C7",
          "midi": 96,
          "time": 107.7141779999982,
          "velocity": 0.7559055118110236,
          "duration": 0.07142849999999612
        },
        {
          "name": "D7",
          "midi": 98,
          "time": 107.7141779999982,
          "velocity": 0.7559055118110236,
          "duration": 0.07142849999999612
        },
        {
          "name": "C1",
          "midi": 24,
          "time": 107.7141779999982,
          "velocity": 0.7874015748031497,
          "duration": 0.026785687499994992
        },
        {
          "name": "G1",
          "midi": 31,
          "time": 107.7141779999982,
          "velocity": 0.7874015748031497,
          "duration": 0.026785687499994992
        },
        {
          "name": "C7",
          "midi": 96,
          "time": 107.85703499999819,
          "velocity": 0.7559055118110236,
          "duration": 0.07142849999999612
        },
        {
          "name": "D7",
          "midi": 98,
          "time": 107.85703499999819,
          "velocity": 0.7559055118110236,
          "duration": 0.07142849999999612
        },
        {
          "name": "C1",
          "midi": 24,
          "time": 107.85703499999819,
          "velocity": 0.7874015748031497,
          "duration": 0.026785687499994992
        },
        {
          "name": "F#1",
          "midi": 30,
          "time": 107.85703499999819,
          "velocity": 0.7874015748031497,
          "duration": 0.026785687499994992
        },
        {
          "name": "D#7",
          "midi": 99,
          "time": 107.99989199999818,
          "velocity": 0.7559055118110236,
          "duration": 0.07142849999999612
        },
        {
          "name": "F#2",
          "midi": 42,
          "time": 107.99989199999818,
          "velocity": 0.7874015748031497,
          "duration": 0.026785687499994992
        },
        {
          "name": "E7",
          "midi": 100,
          "time": 108.28560599999818,
          "velocity": 0.7559055118110236,
          "duration": 0.07142849999999612
        },
        {
          "name": "A#1",
          "midi": 34,
          "time": 108.28560599999818,
          "velocity": 0.7874015748031497,
          "duration": 0.026785687499994992
        },
        {
          "name": "D#6",
          "midi": 87,
          "time": 108.32132024999818,
          "velocity": 0.7559055118110236,
          "duration": 0.10714274999999418
        },
        {
          "name": "D#6",
          "midi": 87,
          "time": 108.53560574999817,
          "velocity": 0.7559055118110236,
          "duration": 0.10714274999999418
        },
        {
          "name": "E7",
          "midi": 100,
          "time": 108.57131999999817,
          "velocity": 0.7559055118110236,
          "duration": 0.07142849999999612
        },
        {
          "name": "C2",
          "midi": 36,
          "time": 108.57131999999817,
          "velocity": 0.7874015748031497,
          "duration": 0.026785687499994992
        },
        {
          "name": "D#6",
          "midi": 87,
          "time": 108.74989124999816,
          "velocity": 0.7559055118110236,
          "duration": 0.10714274999999418
        },
        {
          "name": "E7",
          "midi": 100,
          "time": 108.85703399999815,
          "velocity": 0.7559055118110236,
          "duration": 0.07142849999999612
        },
        {
          "name": "A#1",
          "midi": 34,
          "time": 108.85703399999815,
          "velocity": 0.7874015748031497,
          "duration": 0.026785687499994992
        },
        {
          "name": "C7",
          "midi": 96,
          "time": 109.14274799999815,
          "velocity": 0.7559055118110236,
          "duration": 0.07142849999999612
        },
        {
          "name": "C#5",
          "midi": 73,
          "time": 109.17846224999815,
          "velocity": 0.7559055118110236,
          "duration": 0.10714274999999418
        },
        {
          "name": "C6",
          "midi": 84,
          "time": 109.17846224999815,
          "velocity": 0.7559055118110236,
          "duration": 0.10714274999999418
        },
        {
          "name": "C5",
          "midi": 72,
          "time": 109.28560499999814,
          "velocity": 0.7559055118110236,
          "duration": 0.10714274999999418
        },
        {
          "name": "C#6",
          "midi": 85,
          "time": 109.28560499999814,
          "velocity": 0.7559055118110236,
          "duration": 0.10714274999999418
        },
        {
          "name": "E6",
          "midi": 88,
          "time": 109.28560499999814,
          "velocity": 0.7559055118110236,
          "duration": 0.10714274999999418
        },
        {
          "name": "C#7",
          "midi": 97,
          "time": 109.28560499999814,
          "velocity": 0.7559055118110236,
          "duration": 0.07142849999999612
        },
        {
          "name": "E7",
          "midi": 100,
          "time": 109.28560499999814,
          "velocity": 0.7559055118110236,
          "duration": 0.07142849999999612
        },
        {
          "name": "C1",
          "midi": 24,
          "time": 109.28560499999814,
          "velocity": 0.7874015748031497,
          "duration": 0.026785687499994992
        },
        {
          "name": "C2",
          "midi": 36,
          "time": 109.28560499999814,
          "velocity": 0.7874015748031497,
          "duration": 0.026785687499994992
        },
        {
          "name": "D1",
          "midi": 26,
          "time": 109.28560499999814,
          "velocity": 0.7874015748031497,
          "duration": 0.026785687499994992
        },
        {
          "name": "D#5",
          "midi": 75,
          "time": 109.49989049999813,
          "velocity": 0.7559055118110236,
          "duration": 0.10714274999999418
        },
        {
          "name": "D7",
          "midi": 98,
          "time": 109.64274749999812,
          "velocity": 0.7559055118110236,
          "duration": 0.07142849999999612
        },
        {
          "name": "G1",
          "midi": 31,
          "time": 109.64274749999812,
          "velocity": 0.7874015748031497,
          "duration": 0.026785687499994992
        },
        {
          "name": "C5",
          "midi": 72,
          "time": 109.71417599999812,
          "velocity": 0.7559055118110236,
          "duration": 0.10714274999999418
        },
        {
          "name": "E5",
          "midi": 76,
          "time": 109.71417599999812,
          "velocity": 0.7559055118110236,
          "duration": 0.10714274999999418
        },
        {
          "name": "C6",
          "midi": 84,
          "time": 109.71417599999812,
          "velocity": 0.7559055118110236,
          "duration": 0.10714274999999418
        },
        {
          "name": "D6",
          "midi": 86,
          "time": 109.71417599999812,
          "velocity": 0.7559055118110236,
          "duration": 0.10714274999999418
        },
        {
          "name": "C7",
          "midi": 96,
          "time": 109.71417599999812,
          "velocity": 0.7559055118110236,
          "duration": 0.07142849999999612
        },
        {
          "name": "D#5",
          "midi": 75,
          "time": 109.92846149999811,
          "velocity": 0.7559055118110236,
          "duration": 0.10714274999999418
        },
        {
          "name": "D7",
          "midi": 98,
          "time": 110.0713184999981,
          "velocity": 0.7559055118110236,
          "duration": 0.07142849999999612
        },
        {
          "name": "C1",
          "midi": 24,
          "time": 110.0713184999981,
          "velocity": 0.7874015748031497,
          "duration": 0.026785687499994992
        },
        {
          "name": "F#1",
          "midi": 30,
          "time": 110.0713184999981,
          "velocity": 0.7874015748031497,
          "duration": 0.026785687499994992
        },
        {
          "name": "C5",
          "midi": 72,
          "time": 110.1427469999981,
          "velocity": 0.7559055118110236,
          "duration": 0.10714274999999418
        },
        {
          "name": "C6",
          "midi": 84,
          "time": 110.1427469999981,
          "velocity": 0.7559055118110236,
          "duration": 0.10714274999999418
        },
        {
          "name": "D6",
          "midi": 86,
          "time": 110.1427469999981,
          "velocity": 0.7559055118110236,
          "duration": 0.10714274999999418
        },
        {
          "name": "C7",
          "midi": 96,
          "time": 110.1427469999981,
          "velocity": 0.7559055118110236,
          "duration": 0.07142849999999612
        },
        {
          "name": "D#5",
          "midi": 75,
          "time": 110.35703249999808,
          "velocity": 0.7559055118110236,
          "duration": 0.10714274999999418
        },
        {
          "name": "D7",
          "midi": 98,
          "time": 110.49988949999808,
          "velocity": 0.7559055118110236,
          "duration": 0.07142849999999612
        },
        {
          "name": "C1",
          "midi": 24,
          "time": 110.49988949999808,
          "velocity": 0.7874015748031497,
          "duration": 0.026785687499994992
        },
        {
          "name": "G1",
          "midi": 31,
          "time": 110.49988949999808,
          "velocity": 0.7874015748031497,
          "duration": 0.026785687499994992
        },
        {
          "name": "C#5",
          "midi": 73,
          "time": 110.57131799999807,
          "velocity": 0.7559055118110236,
          "duration": 0.10714274999999418
        },
        {
          "name": "E5",
          "midi": 76,
          "time": 110.57131799999807,
          "velocity": 0.7559055118110236,
          "duration": 0.10714274999999418
        },
        {
          "name": "C6",
          "midi": 84,
          "time": 110.57131799999807,
          "velocity": 0.7559055118110236,
          "duration": 0.10714274999999418
        },
        {
          "name": "C#6",
          "midi": 85,
          "time": 110.57131799999807,
          "velocity": 0.7559055118110236,
          "duration": 0.10714274999999418
        },
        {
          "name": "D6",
          "midi": 86,
          "time": 110.57131799999807,
          "velocity": 0.7559055118110236,
          "duration": 0.10714274999999418
        },
        {
          "name": "C7",
          "midi": 96,
          "time": 110.57131799999807,
          "velocity": 0.7559055118110236,
          "duration": 0.07142849999999612
        },
        {
          "name": "C#7",
          "midi": 97,
          "time": 110.57131799999807,
          "velocity": 0.7559055118110236,
          "duration": 0.07142849999999612
        },
        {
          "name": "C1",
          "midi": 24,
          "time": 110.57131799999807,
          "velocity": 0.7874015748031497,
          "duration": 0.026785687499994992
        },
        {
          "name": "D1",
          "midi": 26,
          "time": 110.57131799999807,
          "velocity": 0.7874015748031497,
          "duration": 0.026785687499994992
        },
        {
          "name": "D#5",
          "midi": 75,
          "time": 110.78560349999806,
          "velocity": 0.7559055118110236,
          "duration": 0.10714274999999418
        },
        {
          "name": "D6",
          "midi": 86,
          "time": 110.78560349999806,
          "velocity": 0.7559055118110236,
          "duration": 0.10714274999999418
        },
        {
          "name": "D7",
          "midi": 98,
          "time": 110.78560349999806,
          "velocity": 0.7559055118110236,
          "duration": 0.07142849999999612
        },
        {
          "name": "G1",
          "midi": 31,
          "time": 110.78560349999806,
          "velocity": 0.7874015748031497,
          "duration": 0.026785687499994992
        },
        {
          "name": "C#5",
          "midi": 73,
          "time": 110.83917487499805,
          "velocity": 0.7559055118110236,
          "duration": 0.053571375000004195
        },
        {
          "name": "D7",
          "midi": 98,
          "time": 110.85703199999806,
          "velocity": 0.7559055118110236,
          "duration": 0.07142849999999612
        },
        {
          "name": "F#1",
          "midi": 30,
          "time": 110.85703199999806,
          "velocity": 0.7874015748031497,
          "duration": 0.026785687499994992
        },
        {
          "name": "C#5",
          "midi": 73,
          "time": 110.89274624999805,
          "velocity": 0.7559055118110236,
          "duration": 0.053571375000004195
        },
        {
          "name": "D6",
          "midi": 86,
          "time": 110.89274624999805,
          "velocity": 0.7559055118110236,
          "duration": 0.10714275000000839
        },
        {
          "name": "D7",
          "midi": 98,
          "time": 110.92846049999805,
          "velocity": 0.7559055118110236,
          "duration": 0.07142850000001033
        },
        {
          "name": "G1",
          "midi": 31,
          "time": 110.92846049999805,
          "velocity": 0.7874015748031497,
          "duration": 0.026785687500009203
        },
        {
          "name": "C#5",
          "midi": 73,
          "time": 110.94631762499806,
          "velocity": 0.7559055118110236,
          "duration": 0.053571375000004195
        },
        {
          "name": "C5",
          "midi": 72,
          "time": 110.99988899999806,
          "velocity": 0.7559055118110236,
          "duration": 0.10714274999999418
        },
        {
          "name": "C6",
          "midi": 84,
          "time": 110.99988899999806,
          "velocity": 0.7559055118110236,
          "duration": 0.10714274999999418
        },
        {
          "name": "D6",
          "midi": 86,
          "time": 110.99988899999806,
          "velocity": 0.7559055118110236,
          "duration": 0.10714274999999418
        },
        {
          "name": "C7",
          "midi": 96,
          "time": 110.99988899999806,
          "velocity": 0.7559055118110236,
          "duration": 0.07142849999999612
        },
        {
          "name": "D7",
          "midi": 98,
          "time": 110.99988899999806,
          "velocity": 0.7559055118110236,
          "duration": 0.07142849999999612
        },
        {
          "name": "C1",
          "midi": 24,
          "time": 110.99988899999806,
          "velocity": 0.7874015748031497,
          "duration": 0.026785687499994992
        },
        {
          "name": "F#1",
          "midi": 30,
          "time": 110.99988899999806,
          "velocity": 0.7874015748031497,
          "duration": 0.026785687499994992
        },
        {
          "name": "D6",
          "midi": 86,
          "time": 111.10703174999806,
          "velocity": 0.7559055118110236,
          "duration": 0.10714275000000839
        },
        {
          "name": "D7",
          "midi": 98,
          "time": 111.14274599999806,
          "velocity": 0.7559055118110236,
          "duration": 0.07142850000001033
        },
        {
          "name": "G1",
          "midi": 31,
          "time": 111.14274599999806,
          "velocity": 0.7874015748031497,
          "duration": 0.026785687500009203
        },
        {
          "name": "C#5",
          "midi": 73,
          "time": 111.16060312499806,
          "velocity": 0.7559055118110236,
          "duration": 0.10714275000000839
        },
        {
          "name": "D#5",
          "midi": 75,
          "time": 111.21417449999807,
          "velocity": 0.7559055118110236,
          "duration": 0.10714275000000839
        },
        {
          "name": "D6",
          "midi": 86,
          "time": 111.21417449999807,
          "velocity": 0.7559055118110236,
          "duration": 0.10714275000000839
        },
        {
          "name": "C#5",
          "midi": 73,
          "time": 111.26774587499807,
          "velocity": 0.7559055118110236,
          "duration": 0.10714275000000839
        },
        {
          "name": "D7",
          "midi": 98,
          "time": 111.28560299999808,
          "velocity": 0.7559055118110236,
          "duration": 0.07142849999999612
        },
        {
          "name": "F#1",
          "midi": 30,
          "time": 111.28560299999808,
          "velocity": 0.7874015748031497,
          "duration": 0.026785687499994992
        },
        {
          "name": "C5",
          "midi": 72,
          "time": 111.42845999999808,
          "velocity": 0.7559055118110236,
          "duration": 0.10714274999999418
        },
        {
          "name": "E5",
          "midi": 76,
          "time": 111.42845999999808,
          "velocity": 0.7559055118110236,
          "duration": 0.10714274999999418
        },
        {
          "name": "C6",
          "midi": 84,
          "time": 111.42845999999808,
          "velocity": 0.7559055118110236,
          "duration": 0.10714274999999418
        },
        {
          "name": "E6",
          "midi": 88,
          "time": 111.42845999999808,
          "velocity": 0.7559055118110236,
          "duration": 0.10714274999999418
        },
        {
          "name": "C7",
          "midi": 96,
          "time": 111.42845999999808,
          "velocity": 0.7559055118110236,
          "duration": 0.07142849999999612
        },
        {
          "name": "D7",
          "midi": 98,
          "time": 111.42845999999808,
          "velocity": 0.7559055118110236,
          "duration": 0.07142849999999612
        },
        {
          "name": "C1",
          "midi": 24,
          "time": 111.42845999999808,
          "velocity": 0.7874015748031497,
          "duration": 0.026785687499994992
        },
        {
          "name": "G1",
          "midi": 31,
          "time": 111.42845999999808,
          "velocity": 0.7874015748031497,
          "duration": 0.026785687499994992
        },
        {
          "name": "D#5",
          "midi": 75,
          "time": 111.64274549999807,
          "velocity": 0.7559055118110236,
          "duration": 0.10714274999999418
        },
        {
          "name": "D#6",
          "midi": 87,
          "time": 111.64274549999807,
          "velocity": 0.7559055118110236,
          "duration": 0.10714274999999418
        },
        {
          "name": "D7",
          "midi": 98,
          "time": 111.71417399999807,
          "velocity": 0.7559055118110236,
          "duration": 0.07142849999999612
        },
        {
          "name": "F#1",
          "midi": 30,
          "time": 111.71417399999807,
          "velocity": 0.7874015748031497,
          "duration": 0.026785687499994992
        },
        {
          "name": "C5",
          "midi": 72,
          "time": 111.85703099999806,
          "velocity": 0.7559055118110236,
          "duration": 0.10714274999999418
        },
        {
          "name": "C#5",
          "midi": 73,
          "time": 111.85703099999806,
          "velocity": 0.7559055118110236,
          "duration": 0.10714274999999418
        },
        {
          "name": "C6",
          "midi": 84,
          "time": 111.85703099999806,
          "velocity": 0.7559055118110236,
          "duration": 0.10714274999999418
        },
        {
          "name": "C7",
          "midi": 96,
          "time": 111.85703099999806,
          "velocity": 0.7559055118110236,
          "duration": 0.07142849999999612
        },
        {
          "name": "C5",
          "midi": 72,
          "time": 111.96417374999805,
          "velocity": 0.7559055118110236,
          "duration": 0.10714274999999418
        },
        {
          "name": "C6",
          "midi": 84,
          "time": 111.96417374999805,
          "velocity": 0.7559055118110236,
          "duration": 0.10714274999999418
        },
        {
          "name": "D#6",
          "midi": 87,
          "time": 111.96417374999805,
          "velocity": 0.7559055118110236,
          "duration": 0.10714274999999418
        },
        {
          "name": "C7",
          "midi": 96,
          "time": 111.99988799999805,
          "velocity": 0.7559055118110236,
          "duration": 0.07142849999999612
        },
        {
          "name": "D7",
          "midi": 98,
          "time": 111.99988799999805,
          "velocity": 0.7559055118110236,
          "duration": 0.07142849999999612
        },
        {
          "name": "C1",
          "midi": 24,
          "time": 111.99988799999805,
          "velocity": 0.7874015748031497,
          "duration": 0.026785687499994992
        },
        {
          "name": "G1",
          "midi": 31,
          "time": 111.99988799999805,
          "velocity": 0.7874015748031497,
          "duration": 0.026785687499994992
        },
        {
          "name": "D#5",
          "midi": 75,
          "time": 112.07131649999805,
          "velocity": 0.7559055118110236,
          "duration": 0.10714274999999418
        },
        {
          "name": "C#5",
          "midi": 73,
          "time": 112.28560199999804,
          "velocity": 0.7559055118110236,
          "duration": 0.10714274999999418
        },
        {
          "name": "E5",
          "midi": 76,
          "time": 112.28560199999804,
          "velocity": 0.7559055118110236,
          "duration": 0.10714274999999418
        },
        {
          "name": "C#6",
          "midi": 85,
          "time": 112.28560199999804,
          "velocity": 0.7559055118110236,
          "duration": 0.10714274999999418
        },
        {
          "name": "D#6",
          "midi": 87,
          "time": 112.28560199999804,
          "velocity": 0.7559055118110236,
          "duration": 0.10714274999999418
        },
        {
          "name": "C#7",
          "midi": 97,
          "time": 112.28560199999804,
          "velocity": 0.7559055118110236,
          "duration": 0.07142849999999612
        },
        {
          "name": "D#7",
          "midi": 99,
          "time": 112.28560199999804,
          "velocity": 0.7559055118110236,
          "duration": 0.07142849999999612
        },
        {
          "name": "F#2",
          "midi": 42,
          "time": 112.28560199999804,
          "velocity": 0.7874015748031497,
          "duration": 0.026785687499994992
        },
        {
          "name": "D1",
          "midi": 26,
          "time": 112.28560199999804,
          "velocity": 0.7874015748031497,
          "duration": 0.026785687499994992
        },
        {
          "name": "D#5",
          "midi": 75,
          "time": 112.49988749999802,
          "velocity": 0.7559055118110236,
          "duration": 0.10714274999999418
        },
        {
          "name": "C7",
          "midi": 96,
          "time": 112.57131599999802,
          "velocity": 0.7559055118110236,
          "duration": 0.07142849999999612
        },
        {
          "name": "C#5",
          "midi": 73,
          "time": 112.71417299999801,
          "velocity": 0.7559055118110236,
          "duration": 0.10714274999999418
        },
        {
          "name": "D7",
          "midi": 98,
          "time": 112.71417299999801,
          "velocity": 0.7559055118110236,
          "duration": 0.07142849999999612
        },
        {
          "name": "C1",
          "midi": 24,
          "time": 112.71417299999801,
          "velocity": 0.7874015748031497,
          "duration": 0.026785687499994992
        },
        {
          "name": "G1",
          "midi": 31,
          "time": 112.71417299999801,
          "velocity": 0.7874015748031497,
          "duration": 0.026785687499994992
        },
        {
          "name": "C5",
          "midi": 72,
          "time": 112.821315749998,
          "velocity": 0.7559055118110236,
          "duration": 0.10714274999999418
        },
        {
          "name": "C6",
          "midi": 84,
          "time": 112.821315749998,
          "velocity": 0.7559055118110236,
          "duration": 0.10714274999999418
        },
        {
          "name": "D6",
          "midi": 86,
          "time": 112.821315749998,
          "velocity": 0.7559055118110236,
          "duration": 0.10714274999999418
        },
        {
          "name": "C7",
          "midi": 96,
          "time": 112.857029999998,
          "velocity": 0.7559055118110236,
          "duration": 0.07142849999999612
        },
        {
          "name": "C5",
          "midi": 72,
          "time": 112.928458499998,
          "velocity": 0.7559055118110236,
          "duration": 0.10714274999999418
        },
        {
          "name": "D#5",
          "midi": 75,
          "time": 112.928458499998,
          "velocity": 0.7559055118110236,
          "duration": 0.10714274999999418
        },
        {
          "name": "C6",
          "midi": 84,
          "time": 112.928458499998,
          "velocity": 0.7559055118110236,
          "duration": 0.10714274999999418
        },
        {
          "name": "C7",
          "midi": 96,
          "time": 112.999886999998,
          "velocity": 0.7559055118110236,
          "duration": 0.07142849999999612
        },
        {
          "name": "C5",
          "midi": 72,
          "time": 113.035601249998,
          "velocity": 0.7559055118110236,
          "duration": 0.10714274999999418
        },
        {
          "name": "C6",
          "midi": 84,
          "time": 113.035601249998,
          "velocity": 0.7559055118110236,
          "duration": 0.10714274999999418
        },
        {
          "name": "E5",
          "midi": 76,
          "time": 113.14274399999799,
          "velocity": 0.7559055118110236,
          "duration": 0.10714274999999418
        },
        {
          "name": "C7",
          "midi": 96,
          "time": 113.14274399999799,
          "velocity": 0.7559055118110236,
          "duration": 0.07142849999999612
        },
        {
          "name": "C5",
          "midi": 72,
          "time": 113.35702949999798,
          "velocity": 0.7559055118110236,
          "duration": 0.10714274999999418
        },
        {
          "name": "D#5",
          "midi": 75,
          "time": 113.35702949999798,
          "velocity": 0.7559055118110236,
          "duration": 0.10714274999999418
        },
        {
          "name": "C6",
          "midi": 84,
          "time": 113.35702949999798,
          "velocity": 0.7559055118110236,
          "duration": 0.10714274999999418
        },
        {
          "name": "D#6",
          "midi": 87,
          "time": 113.35702949999798,
          "velocity": 0.7559055118110236,
          "duration": 0.10714274999999418
        },
        {
          "name": "D7",
          "midi": 98,
          "time": 113.42845799999797,
          "velocity": 0.7559055118110236,
          "duration": 0.07142849999999612
        },
        {
          "name": "C1",
          "midi": 24,
          "time": 113.42845799999797,
          "velocity": 0.7874015748031497,
          "duration": 0.026785687499994992
        },
        {
          "name": "F#1",
          "midi": 30,
          "time": 113.42845799999797,
          "velocity": 0.7874015748031497,
          "duration": 0.026785687499994992
        },
        {
          "name": "C7",
          "midi": 96,
          "time": 113.49988649999797,
          "velocity": 0.7559055118110236,
          "duration": 0.07142849999999612
        },
        {
          "name": "C#7",
          "midi": 97,
          "time": 113.49988649999797,
          "velocity": 0.7559055118110236,
          "duration": 0.07142849999999612
        },
        {
          "name": "C1",
          "midi": 24,
          "time": 113.49988649999797,
          "velocity": 0.7874015748031497,
          "duration": 0.026785687499994992
        },
        {
          "name": "D#1",
          "midi": 27,
          "time": 113.49988649999797,
          "velocity": 0.7874015748031497,
          "duration": 0.026785687499994992
        },
        {
          "name": "C5",
          "midi": 72,
          "time": 113.57131499999797,
          "velocity": 0.7559055118110236,
          "duration": 0.10714274999999418
        },
        {
          "name": "C#5",
          "midi": 73,
          "time": 113.57131499999797,
          "velocity": 0.7559055118110236,
          "duration": 0.10714274999999418
        },
        {
          "name": "C6",
          "midi": 84,
          "time": 113.67845774999796,
          "velocity": 0.7559055118110236,
          "duration": 0.10714274999999418
        },
        {
          "name": "D#6",
          "midi": 87,
          "time": 113.67845774999796,
          "velocity": 0.7559055118110236,
          "duration": 0.10714274999999418
        },
        {
          "name": "D7",
          "midi": 98,
          "time": 113.71417199999796,
          "velocity": 0.7559055118110236,
          "duration": 0.07142849999999612
        },
        {
          "name": "F#1",
          "midi": 30,
          "time": 113.71417199999796,
          "velocity": 0.7874015748031497,
          "duration": 0.026785687499994992
        },
        {
          "name": "D#5",
          "midi": 75,
          "time": 113.78560049999795,
          "velocity": 0.7559055118110236,
          "duration": 0.10714274999999418
        },
        {
          "name": "C7",
          "midi": 96,
          "time": 113.78560049999795,
          "velocity": 0.7559055118110236,
          "duration": 0.07142849999999612
        },
        {
          "name": "C#7",
          "midi": 97,
          "time": 113.78560049999795,
          "velocity": 0.7559055118110236,
          "duration": 0.07142849999999612
        },
        {
          "name": "C1",
          "midi": 24,
          "time": 113.78560049999795,
          "velocity": 0.7874015748031497,
          "duration": 0.026785687499994992
        },
        {
          "name": "D#1",
          "midi": 27,
          "time": 113.78560049999795,
          "velocity": 0.7874015748031497,
          "duration": 0.026785687499994992
        },
        {
          "name": "C5",
          "midi": 72,
          "time": 113.99988599999794,
          "velocity": 0.7559055118110236,
          "duration": 0.10714274999999418
        },
        {
          "name": "E5",
          "midi": 76,
          "time": 113.99988599999794,
          "velocity": 0.7559055118110236,
          "duration": 0.10714274999999418
        },
        {
          "name": "C6",
          "midi": 84,
          "time": 113.99988599999794,
          "velocity": 0.7559055118110236,
          "duration": 0.10714274999999418
        },
        {
          "name": "C#6",
          "midi": 85,
          "time": 113.99988599999794,
          "velocity": 0.7559055118110236,
          "duration": 0.10714274999999418
        },
        {
          "name": "E6",
          "midi": 88,
          "time": 113.99988599999794,
          "velocity": 0.7559055118110236,
          "duration": 0.10714274999999418
        },
        {
          "name": "C7",
          "midi": 96,
          "time": 113.99988599999794,
          "velocity": 0.7559055118110236,
          "duration": 0.07142849999999612
        },
        {
          "name": "D#7",
          "midi": 99,
          "time": 113.99988599999794,
          "velocity": 0.7559055118110236,
          "duration": 0.07142849999999612
        },
        {
          "name": "C1",
          "midi": 24,
          "time": 113.99988599999794,
          "velocity": 0.7874015748031497,
          "duration": 0.026785687499994992
        },
        {
          "name": "B1",
          "midi": 35,
          "time": 113.99988599999794,
          "velocity": 0.7874015748031497,
          "duration": 0.026785687499994992
        },
        {
          "name": "D7",
          "midi": 98,
          "time": 114.14274299999794,
          "velocity": 0.7559055118110236,
          "duration": 0.07142849999999612
        },
        {
          "name": "G1",
          "midi": 31,
          "time": 114.14274299999794,
          "velocity": 0.7874015748031497,
          "duration": 0.026785687499994992
        },
        {
          "name": "D#5",
          "midi": 75,
          "time": 114.21417149999793,
          "velocity": 0.7559055118110236,
          "duration": 0.10714274999999418
        },
        {
          "name": "D7",
          "midi": 98,
          "time": 114.28559999999793,
          "velocity": 0.7559055118110236,
          "duration": 0.07142849999999612
        },
        {
          "name": "F#1",
          "midi": 30,
          "time": 114.28559999999793,
          "velocity": 0.7874015748031497,
          "duration": 0.026785687499994992
        },
        {
          "name": "C5",
          "midi": 72,
          "time": 114.42845699999792,
          "velocity": 0.7559055118110236,
          "duration": 0.10714274999999418
        },
        {
          "name": "C#5",
          "midi": 73,
          "time": 114.42845699999792,
          "velocity": 0.7559055118110236,
          "duration": 0.10714274999999418
        },
        {
          "name": "C6",
          "midi": 84,
          "time": 114.42845699999792,
          "velocity": 0.7559055118110236,
          "duration": 0.10714274999999418
        },
        {
          "name": "D6",
          "midi": 86,
          "time": 114.42845699999792,
          "velocity": 0.7559055118110236,
          "duration": 0.10714274999999418
        },
        {
          "name": "C7",
          "midi": 96,
          "time": 114.42845699999792,
          "velocity": 0.7559055118110236,
          "duration": 0.07142849999999612
        },
        {
          "name": "D#7",
          "midi": 99,
          "time": 114.42845699999792,
          "velocity": 0.7559055118110236,
          "duration": 0.07142849999999612
        },
        {
          "name": "C1",
          "midi": 24,
          "time": 114.42845699999792,
          "velocity": 0.7874015748031497,
          "duration": 0.026785687499994992
        },
        {
          "name": "F#2",
          "midi": 42,
          "time": 114.42845699999792,
          "velocity": 0.7874015748031497,
          "duration": 0.026785687499994992
        },
        {
          "name": "D7",
          "midi": 98,
          "time": 114.57131399999791,
          "velocity": 0.7559055118110236,
          "duration": 0.07142849999999612
        },
        {
          "name": "F#1",
          "midi": 30,
          "time": 114.57131399999791,
          "velocity": 0.7874015748031497,
          "duration": 0.026785687499994992
        },
        {
          "name": "D#5",
          "midi": 75,
          "time": 114.64274249999791,
          "velocity": 0.7559055118110236,
          "duration": 0.10714274999999418
        },
        {
          "name": "D7",
          "midi": 98,
          "time": 114.7141709999979,
          "velocity": 0.7559055118110236,
          "duration": 0.07142849999999612
        },
        {
          "name": "G1",
          "midi": 31,
          "time": 114.7141709999979,
          "velocity": 0.7874015748031497,
          "duration": 0.026785687499994992
        },
        {
          "name": "C5",
          "midi": 72,
          "time": 114.8570279999979,
          "velocity": 0.7559055118110236,
          "duration": 0.10714274999999418
        },
        {
          "name": "E5",
          "midi": 76,
          "time": 114.8570279999979,
          "velocity": 0.7559055118110236,
          "duration": 0.10714274999999418
        },
        {
          "name": "C6",
          "midi": 84,
          "time": 114.8570279999979,
          "velocity": 0.7559055118110236,
          "duration": 0.10714274999999418
        },
        {
          "name": "D6",
          "midi": 86,
          "time": 114.8570279999979,
          "velocity": 0.7559055118110236,
          "duration": 0.10714274999999418
        },
        {
          "name": "C7",
          "midi": 96,
          "time": 114.8570279999979,
          "velocity": 0.7559055118110236,
          "duration": 0.07142849999999612
        },
        {
          "name": "D7",
          "midi": 98,
          "time": 114.8570279999979,
          "velocity": 0.7559055118110236,
          "duration": 0.07142849999999612
        },
        {
          "name": "C1",
          "midi": 24,
          "time": 114.8570279999979,
          "velocity": 0.7874015748031497,
          "duration": 0.026785687499994992
        },
        {
          "name": "F#1",
          "midi": 30,
          "time": 114.8570279999979,
          "velocity": 0.7874015748031497,
          "duration": 0.026785687499994992
        },
        {
          "name": "D#5",
          "midi": 75,
          "time": 115.07131349999788,
          "velocity": 0.7559055118110236,
          "duration": 0.10714274999999418
        },
        {
          "name": "C7",
          "midi": 96,
          "time": 115.14274199999788,
          "velocity": 0.7559055118110236,
          "duration": 0.07142849999999612
        },
        {
          "name": "C5",
          "midi": 72,
          "time": 115.28559899999787,
          "velocity": 0.7559055118110236,
          "duration": 0.10714274999999418
        },
        {
          "name": "C#5",
          "midi": 73,
          "time": 115.28559899999787,
          "velocity": 0.7559055118110236,
          "duration": 0.10714274999999418
        },
        {
          "name": "C6",
          "midi": 84,
          "time": 115.28559899999787,
          "velocity": 0.7559055118110236,
          "duration": 0.10714274999999418
        },
        {
          "name": "C7",
          "midi": 96,
          "time": 115.28559899999787,
          "velocity": 0.7559055118110236,
          "duration": 0.07142849999999612
        },
        {
          "name": "C5",
          "midi": 72,
          "time": 115.39274174999787,
          "velocity": 0.7559055118110236,
          "duration": 0.10714274999999418
        },
        {
          "name": "C6",
          "midi": 84,
          "time": 115.39274174999787,
          "velocity": 0.7559055118110236,
          "duration": 0.10714274999999418
        },
        {
          "name": "D7",
          "midi": 98,
          "time": 115.42845599999787,
          "velocity": 0.7559055118110236,
          "duration": 0.07142849999999612
        },
        {
          "name": "C1",
          "midi": 24,
          "time": 115.42845599999787,
          "velocity": 0.7874015748031497,
          "duration": 0.026785687499994992
        },
        {
          "name": "G1",
          "midi": 31,
          "time": 115.42845599999787,
          "velocity": 0.7874015748031497,
          "duration": 0.026785687499994992
        },
        {
          "name": "D#5",
          "midi": 75,
          "time": 115.49988449999786,
          "velocity": 0.7559055118110236,
          "duration": 0.10714274999999418
        },
        {
          "name": "D7",
          "midi": 98,
          "time": 115.57131299999786,
          "velocity": 0.7559055118110236,
          "duration": 0.07142849999999612
        },
        {
          "name": "F#1",
          "midi": 30,
          "time": 115.57131299999786,
          "velocity": 0.7874015748031497,
          "duration": 0.026785687499994992
        },
        {
          "name": "C#5",
          "midi": 73,
          "time": 115.71416999999785,
          "velocity": 0.7559055118110236,
          "duration": 0.10714274999999418
        },
        {
          "name": "E5",
          "midi": 76,
          "time": 115.71416999999785,
          "velocity": 0.7559055118110236,
          "duration": 0.10714274999999418
        },
        {
          "name": "E6",
          "midi": 88,
          "time": 115.71416999999785,
          "velocity": 0.7559055118110236,
          "duration": 0.07142849999999612
        },
        {
          "name": "E7",
          "midi": 100,
          "time": 115.71416999999785,
          "velocity": 0.7559055118110236,
          "duration": 0.07142849999999612
        },
        {
          "name": "C2",
          "midi": 36,
          "time": 115.71416999999785,
          "velocity": 0.7874015748031497,
          "duration": 0.026785687499994992
        },
        {
          "name": "D#5",
          "midi": 75,
          "time": 115.92845549999784,
          "velocity": 0.7559055118110236,
          "duration": 0.10714274999999418
        },
        {
          "name": "C#5",
          "midi": 73,
          "time": 116.14274099999783,
          "velocity": 0.7559055118110236,
          "duration": 0.10714274999999418
        },
        {
          "name": "C7",
          "midi": 96,
          "time": 116.14274099999783,
          "velocity": 0.7559055118110236,
          "duration": 0.07142849999999612
        },
        {
          "name": "D7",
          "midi": 98,
          "time": 116.14274099999783,
          "velocity": 0.7559055118110236,
          "duration": 0.07142849999999612
        },
        {
          "name": "C1",
          "midi": 24,
          "time": 116.14274099999783,
          "velocity": 0.7874015748031497,
          "duration": 0.026785687499994992
        },
        {
          "name": "F#1",
          "midi": 30,
          "time": 116.14274099999783,
          "velocity": 0.7874015748031497,
          "duration": 0.026785687499994992
        },
        {
          "name": "C5",
          "midi": 72,
          "time": 116.24988374999782,
          "velocity": 0.7559055118110236,
          "duration": 0.10714274999999418
        },
        {
          "name": "C6",
          "midi": 84,
          "time": 116.24988374999782,
          "velocity": 0.7559055118110236,
          "duration": 0.10714274999999418
        },
        {
          "name": "D6",
          "midi": 86,
          "time": 116.24988374999782,
          "velocity": 0.7559055118110236,
          "duration": 0.10714274999999418
        },
        {
          "name": "C7",
          "midi": 96,
          "time": 116.28559799999782,
          "velocity": 0.7559055118110236,
          "duration": 0.07142849999999612
        },
        {
          "name": "C5",
          "midi": 72,
          "time": 116.35702649999781,
          "velocity": 0.7559055118110236,
          "duration": 0.10714274999999418
        },
        {
          "name": "D#5",
          "midi": 75,
          "time": 116.35702649999781,
          "velocity": 0.7559055118110236,
          "duration": 0.10714274999999418
        },
        {
          "name": "C6",
          "midi": 84,
          "time": 116.35702649999781,
          "velocity": 0.7559055118110236,
          "duration": 0.10714274999999418
        },
        {
          "name": "C7",
          "midi": 96,
          "time": 116.42845499999781,
          "velocity": 0.7559055118110236,
          "duration": 0.07142849999999612
        },
        {
          "name": "C5",
          "midi": 72,
          "time": 116.46416924999781,
          "velocity": 0.7559055118110236,
          "duration": 0.10714274999999418
        },
        {
          "name": "C6",
          "midi": 84,
          "time": 116.46416924999781,
          "velocity": 0.7559055118110236,
          "duration": 0.10714274999999418
        },
        {
          "name": "E5",
          "midi": 76,
          "time": 116.5713119999978,
          "velocity": 0.7559055118110236,
          "duration": 0.10714274999999418
        },
        {
          "name": "C7",
          "midi": 96,
          "time": 116.5713119999978,
          "velocity": 0.7559055118110236,
          "duration": 0.07142849999999612
        },
        {
          "name": "D7",
          "midi": 98,
          "time": 116.5713119999978,
          "velocity": 0.7559055118110236,
          "duration": 0.07142849999999612
        },
        {
          "name": "C1",
          "midi": 24,
          "time": 116.5713119999978,
          "velocity": 0.7874015748031497,
          "duration": 0.026785687499994992
        },
        {
          "name": "G1",
          "midi": 31,
          "time": 116.5713119999978,
          "velocity": 0.7874015748031497,
          "duration": 0.026785687499994992
        },
        {
          "name": "C5",
          "midi": 72,
          "time": 116.78559749999779,
          "velocity": 0.7559055118110236,
          "duration": 0.10714274999999418
        },
        {
          "name": "D#5",
          "midi": 75,
          "time": 116.78559749999779,
          "velocity": 0.7559055118110236,
          "duration": 0.10714274999999418
        },
        {
          "name": "C6",
          "midi": 84,
          "time": 116.78559749999779,
          "velocity": 0.7559055118110236,
          "duration": 0.10714274999999418
        },
        {
          "name": "D6",
          "midi": 86,
          "time": 116.78559749999779,
          "velocity": 0.7559055118110236,
          "duration": 0.10714274999999418
        },
        {
          "name": "D7",
          "midi": 98,
          "time": 116.78559749999779,
          "velocity": 0.7559055118110236,
          "duration": 0.07142849999999612
        },
        {
          "name": "F#1",
          "midi": 30,
          "time": 116.78559749999779,
          "velocity": 0.7874015748031497,
          "duration": 0.026785687499994992
        },
        {
          "name": "C7",
          "midi": 96,
          "time": 116.85702599999779,
          "velocity": 0.7559055118110236,
          "duration": 0.07142849999999612
        },
        {
          "name": "C5",
          "midi": 72,
          "time": 116.99988299999778,
          "velocity": 0.7559055118110236,
          "duration": 0.10714274999999418
        },
        {
          "name": "C#5",
          "midi": 73,
          "time": 116.99988299999778,
          "velocity": 0.7559055118110236,
          "duration": 0.10714274999999418
        },
        {
          "name": "D7",
          "midi": 98,
          "time": 117.07131149999778,
          "velocity": 0.7559055118110236,
          "duration": 0.07142849999999612
        },
        {
          "name": "C1",
          "midi": 24,
          "time": 117.07131149999778,
          "velocity": 0.7874015748031497,
          "duration": 0.026785687499994992
        },
        {
          "name": "G1",
          "midi": 31,
          "time": 117.07131149999778,
          "velocity": 0.7874015748031497,
          "duration": 0.026785687499994992
        },
        {
          "name": "C6",
          "midi": 84,
          "time": 117.10702574999777,
          "velocity": 0.7559055118110236,
          "duration": 0.10714274999999418
        },
        {
          "name": "D6",
          "midi": 86,
          "time": 117.10702574999777,
          "velocity": 0.7559055118110236,
          "duration": 0.10714274999999418
        },
        {
          "name": "C7",
          "midi": 96,
          "time": 117.14273999999777,
          "velocity": 0.7559055118110236,
          "duration": 0.07142849999999612
        },
        {
          "name": "D#5",
          "midi": 75,
          "time": 117.21416849999777,
          "velocity": 0.7559055118110236,
          "duration": 0.10714274999999418
        },
        {
          "name": "D7",
          "midi": 98,
          "time": 117.35702549999776,
          "velocity": 0.7559055118110236,
          "duration": 0.07142849999999612
        },
        {
          "name": "C1",
          "midi": 24,
          "time": 117.35702549999776,
          "velocity": 0.7874015748031497,
          "duration": 0.026785687499994992
        },
        {
          "name": "F#1",
          "midi": 30,
          "time": 117.35702549999776,
          "velocity": 0.7874015748031497,
          "duration": 0.026785687499994992
        },
        {
          "name": "C5",
          "midi": 72,
          "time": 117.42845399999776,
          "velocity": 0.7559055118110236,
          "duration": 0.10714274999999418
        },
        {
          "name": "E5",
          "midi": 76,
          "time": 117.42845399999776,
          "velocity": 0.7559055118110236,
          "duration": 0.10714274999999418
        },
        {
          "name": "C6",
          "midi": 84,
          "time": 117.42845399999776,
          "velocity": 0.7559055118110236,
          "duration": 0.10714274999999418
        },
        {
          "name": "C#6",
          "midi": 85,
          "time": 117.42845399999776,
          "velocity": 0.7559055118110236,
          "duration": 0.10714274999999418
        },
        {
          "name": "D6",
          "midi": 86,
          "time": 117.42845399999776,
          "velocity": 0.7559055118110236,
          "duration": 0.10714274999999418
        },
        {
          "name": "C7",
          "midi": 96,
          "time": 117.42845399999776,
          "velocity": 0.7559055118110236,
          "duration": 0.07142849999999612
        },
        {
          "name": "C#7",
          "midi": 97,
          "time": 117.42845399999776,
          "velocity": 0.7559055118110236,
          "duration": 0.07142849999999612
        },
        {
          "name": "C1",
          "midi": 24,
          "time": 117.42845399999776,
          "velocity": 0.7874015748031497,
          "duration": 0.026785687499994992
        },
        {
          "name": "D#1",
          "midi": 27,
          "time": 117.42845399999776,
          "velocity": 0.7874015748031497,
          "duration": 0.026785687499994992
        },
        {
          "name": "D#5",
          "midi": 75,
          "time": 117.64273949999775,
          "velocity": 0.7559055118110236,
          "duration": 0.10714274999999418
        },
        {
          "name": "D6",
          "midi": 86,
          "time": 117.64273949999775,
          "velocity": 0.7559055118110236,
          "duration": 0.10714274999999418
        },
        {
          "name": "D7",
          "midi": 98,
          "time": 117.64273949999775,
          "velocity": 0.7559055118110236,
          "duration": 0.07142849999999612
        },
        {
          "name": "F#1",
          "midi": 30,
          "time": 117.64273949999775,
          "velocity": 0.7874015748031497,
          "duration": 0.026785687499994992
        },
        {
          "name": "C#5",
          "midi": 73,
          "time": 117.69631087499774,
          "velocity": 0.7559055118110236,
          "duration": 0.053571375000004195
        },
        {
          "name": "D7",
          "midi": 98,
          "time": 117.71416799999774,
          "velocity": 0.7559055118110236,
          "duration": 0.07142849999999612
        },
        {
          "name": "G1",
          "midi": 31,
          "time": 117.71416799999774,
          "velocity": 0.7874015748031497,
          "duration": 0.026785687499994992
        },
        {
          "name": "C#5",
          "midi": 73,
          "time": 117.74988224999774,
          "velocity": 0.7559055118110236,
          "duration": 0.053571375000004195
        },
        {
          "name": "D6",
          "midi": 86,
          "time": 117.74988224999774,
          "velocity": 0.7559055118110236,
          "duration": 0.10714275000000839
        },
        {
          "name": "D7",
          "midi": 98,
          "time": 117.78559649999774,
          "velocity": 0.7559055118110236,
          "duration": 0.07142850000001033
        },
        {
          "name": "F#1",
          "midi": 30,
          "time": 117.78559649999774,
          "velocity": 0.7874015748031497,
          "duration": 0.026785687500009203
        },
        {
          "name": "C#5",
          "midi": 73,
          "time": 117.80345362499774,
          "velocity": 0.7559055118110236,
          "duration": 0.053571375000004195
        },
        {
          "name": "C5",
          "midi": 72,
          "time": 117.85702499999775,
          "velocity": 0.7559055118110236,
          "duration": 0.10714274999999418
        },
        {
          "name": "C6",
          "midi": 84,
          "time": 117.85702499999775,
          "velocity": 0.7559055118110236,
          "duration": 0.10714274999999418
        },
        {
          "name": "D6",
          "midi": 86,
          "time": 117.85702499999775,
          "velocity": 0.7559055118110236,
          "duration": 0.10714274999999418
        },
        {
          "name": "C7",
          "midi": 96,
          "time": 117.85702499999775,
          "velocity": 0.7559055118110236,
          "duration": 0.07142849999999612
        },
        {
          "name": "D7",
          "midi": 98,
          "time": 117.85702499999775,
          "velocity": 0.7559055118110236,
          "duration": 0.07142849999999612
        },
        {
          "name": "C1",
          "midi": 24,
          "time": 117.85702499999775,
          "velocity": 0.7874015748031497,
          "duration": 0.026785687499994992
        },
        {
          "name": "G1",
          "midi": 31,
          "time": 117.85702499999775,
          "velocity": 0.7874015748031497,
          "duration": 0.026785687499994992
        },
        {
          "name": "D6",
          "midi": 86,
          "time": 117.96416774999774,
          "velocity": 0.7559055118110236,
          "duration": 0.10714275000000839
        },
        {
          "name": "D7",
          "midi": 98,
          "time": 117.99988199999774,
          "velocity": 0.7559055118110236,
          "duration": 0.07142850000001033
        },
        {
          "name": "F#1",
          "midi": 30,
          "time": 117.99988199999774,
          "velocity": 0.7874015748031497,
          "duration": 0.026785687500009203
        },
        {
          "name": "C#5",
          "midi": 73,
          "time": 118.01773912499775,
          "velocity": 0.7559055118110236,
          "duration": 0.10714275000000839
        },
        {
          "name": "D#5",
          "midi": 75,
          "time": 118.07131049999775,
          "velocity": 0.7559055118110236,
          "duration": 0.10714275000000839
        },
        {
          "name": "D6",
          "midi": 86,
          "time": 118.07131049999775,
          "velocity": 0.7559055118110236,
          "duration": 0.10714275000000839
        },
        {
          "name": "C#5",
          "midi": 73,
          "time": 118.12488187499775,
          "velocity": 0.7559055118110236,
          "duration": 0.10714275000000839
        },
        {
          "name": "D7",
          "midi": 98,
          "time": 118.14273899999776,
          "velocity": 0.7559055118110236,
          "duration": 0.07142849999999612
        },
        {
          "name": "G1",
          "midi": 31,
          "time": 118.14273899999776,
          "velocity": 0.7874015748031497,
          "duration": 0.026785687499994992
        },
        {
          "name": "C5",
          "midi": 72,
          "time": 118.28559599999777,
          "velocity": 0.7559055118110236,
          "duration": 0.10714274999999418
        },
        {
          "name": "E5",
          "midi": 76,
          "time": 118.28559599999777,
          "velocity": 0.7559055118110236,
          "duration": 0.10714274999999418
        },
        {
          "name": "C6",
          "midi": 84,
          "time": 118.28559599999777,
          "velocity": 0.7559055118110236,
          "duration": 0.10714274999999418
        },
        {
          "name": "D#6",
          "midi": 87,
          "time": 118.28559599999777,
          "velocity": 0.7559055118110236,
          "duration": 0.10714274999999418
        },
        {
          "name": "C7",
          "midi": 96,
          "time": 118.28559599999777,
          "velocity": 0.7559055118110236,
          "duration": 0.07142849999999612
        },
        {
          "name": "D7",
          "midi": 98,
          "time": 118.28559599999777,
          "velocity": 0.7559055118110236,
          "duration": 0.07142849999999612
        },
        {
          "name": "C1",
          "midi": 24,
          "time": 118.28559599999777,
          "velocity": 0.7874015748031497,
          "duration": 0.026785687499994992
        },
        {
          "name": "F#1",
          "midi": 30,
          "time": 118.28559599999777,
          "velocity": 0.7874015748031497,
          "duration": 0.026785687499994992
        },
        {
          "name": "D#5",
          "midi": 75,
          "time": 118.49988149999776,
          "velocity": 0.7559055118110236,
          "duration": 0.10714274999999418
        },
        {
          "name": "D6",
          "midi": 86,
          "time": 118.49988149999776,
          "velocity": 0.7559055118110236,
          "duration": 0.10714274999999418
        },
        {
          "name": "D7",
          "midi": 98,
          "time": 118.57130999999775,
          "velocity": 0.7559055118110236,
          "duration": 0.07142849999999612
        },
        {
          "name": "G1",
          "midi": 31,
          "time": 118.57130999999775,
          "velocity": 0.7874015748031497,
          "duration": 0.026785687499994992
        },
        {
          "name": "C5",
          "midi": 72,
          "time": 118.71416699999774,
          "velocity": 0.7559055118110236,
          "duration": 0.10714274999999418
        },
        {
          "name": "C#5",
          "midi": 73,
          "time": 118.71416699999774,
          "velocity": 0.7559055118110236,
          "duration": 0.10714274999999418
        },
        {
          "name": "C6",
          "midi": 84,
          "time": 118.71416699999774,
          "velocity": 0.7559055118110236,
          "duration": 0.10714274999999418
        },
        {
          "name": "D6",
          "midi": 86,
          "time": 118.71416699999774,
          "velocity": 0.7559055118110236,
          "duration": 0.10714274999999418
        },
        {
          "name": "C7",
          "midi": 96,
          "time": 118.71416699999774,
          "velocity": 0.7559055118110236,
          "duration": 0.07142849999999612
        },
        {
          "name": "C5",
          "midi": 72,
          "time": 118.82130974999774,
          "velocity": 0.7559055118110236,
          "duration": 0.10714274999999418
        },
        {
          "name": "C6",
          "midi": 84,
          "time": 118.82130974999774,
          "velocity": 0.7559055118110236,
          "duration": 0.10714274999999418
        },
        {
          "name": "D6",
          "midi": 86,
          "time": 118.82130974999774,
          "velocity": 0.7559055118110236,
          "duration": 0.10714274999999418
        },
        {
          "name": "C7",
          "midi": 96,
          "time": 118.85702399999774,
          "velocity": 0.7559055118110236,
          "duration": 0.07142849999999612
        },
        {
          "name": "D7",
          "midi": 98,
          "time": 118.85702399999774,
          "velocity": 0.7559055118110236,
          "duration": 0.07142849999999612
        },
        {
          "name": "C1",
          "midi": 24,
          "time": 118.85702399999774,
          "velocity": 0.7874015748031497,
          "duration": 0.026785687499994992
        },
        {
          "name": "F#1",
          "midi": 30,
          "time": 118.85702399999774,
          "velocity": 0.7874015748031497,
          "duration": 0.026785687499994992
        },
        {
          "name": "D#5",
          "midi": 75,
          "time": 118.92845249999773,
          "velocity": 0.7559055118110236,
          "duration": 0.10714274999999418
        },
        {
          "name": "C#5",
          "midi": 73,
          "time": 119.14273799999772,
          "velocity": 0.7559055118110236,
          "duration": 0.10714274999999418
        },
        {
          "name": "E5",
          "midi": 76,
          "time": 119.14273799999772,
          "velocity": 0.7559055118110236,
          "duration": 0.10714274999999418
        },
        {
          "name": "E6",
          "midi": 88,
          "time": 119.14273799999772,
          "velocity": 0.7559055118110236,
          "duration": 0.10714274999999418
        },
        {
          "name": "E7",
          "midi": 100,
          "time": 119.14273799999772,
          "velocity": 0.7559055118110236,
          "duration": 0.07142849999999612
        },
        {
          "name": "C2",
          "midi": 36,
          "time": 119.14273799999772,
          "velocity": 0.7874015748031497,
          "duration": 0.026785687499994992
        },
        {
          "name": "D#5",
          "midi": 75,
          "time": 119.35702349999771,
          "velocity": 0.7559055118110236,
          "duration": 0.10714274999999418
        },
        {
          "name": "C7",
          "midi": 96,
          "time": 119.4998804999977,
          "velocity": 0.7559055118110236,
          "duration": 0.07142849999999612
        },
        {
          "name": "C#5",
          "midi": 73,
          "time": 119.5713089999977,
          "velocity": 0.7559055118110236,
          "duration": 0.10714274999999418
        },
        {
          "name": "D7",
          "midi": 98,
          "time": 119.6427374999977,
          "velocity": 0.7559055118110236,
          "duration": 0.07142849999999612
        },
        {
          "name": "C1",
          "midi": 24,
          "time": 119.6427374999977,
          "velocity": 0.7874015748031497,
          "duration": 0.026785687499994992
        },
        {
          "name": "F#1",
          "midi": 30,
          "time": 119.6427374999977,
          "velocity": 0.7874015748031497,
          "duration": 0.026785687499994992
        },
        {
          "name": "C5",
          "midi": 72,
          "time": 119.67845174999769,
          "velocity": 0.7559055118110236,
          "duration": 0.10714274999999418
        },
        {
          "name": "C6",
          "midi": 84,
          "time": 119.67845174999769,
          "velocity": 0.7559055118110236,
          "duration": 0.10714274999999418
        },
        {
          "name": "D6",
          "midi": 86,
          "time": 119.67845174999769,
          "velocity": 0.7559055118110236,
          "duration": 0.10714274999999418
        },
        {
          "name": "C5",
          "midi": 72,
          "time": 119.78559449999769,
          "velocity": 0.7559055118110236,
          "duration": 0.10714274999999418
        },
        {
          "name": "D#5",
          "midi": 75,
          "time": 119.78559449999769,
          "velocity": 0.7559055118110236,
          "duration": 0.10714274999999418
        },
        {
          "name": "C6",
          "midi": 84,
          "time": 119.78559449999769,
          "velocity": 0.7559055118110236,
          "duration": 0.10714274999999418
        },
        {
          "name": "D6",
          "midi": 86,
          "time": 119.78559449999769,
          "velocity": 0.7559055118110236,
          "duration": 0.10714274999999418
        },
        {
          "name": "C7",
          "midi": 96,
          "time": 119.78559449999769,
          "velocity": 0.7559055118110236,
          "duration": 0.07142849999999612
        },
        {
          "name": "C5",
          "midi": 72,
          "time": 119.89273724999768,
          "velocity": 0.7559055118110236,
          "duration": 0.10714274999999418
        },
        {
          "name": "C6",
          "midi": 84,
          "time": 119.89273724999768,
          "velocity": 0.7559055118110236,
          "duration": 0.10714274999999418
        },
        {
          "name": "D6",
          "midi": 86,
          "time": 119.89273724999768,
          "velocity": 0.7559055118110236,
          "duration": 0.10714274999999418
        },
        {
          "name": "C7",
          "midi": 96,
          "time": 119.92845149999768,
          "velocity": 0.7559055118110236,
          "duration": 0.07142849999999612
        },
        {
          "name": "E5",
          "midi": 76,
          "time": 119.99987999999767,
          "velocity": 0.7559055118110236,
          "duration": 0.10714274999999418
        },
        {
          "name": "C7",
          "midi": 96,
          "time": 120.07130849999767,
          "velocity": 0.7559055118110236,
          "duration": 0.07142849999999612
        },
        {
          "name": "C5",
          "midi": 72,
          "time": 120.21416549999766,
          "velocity": 0.7559055118110236,
          "duration": 0.10714274999999418
        },
        {
          "name": "D#5",
          "midi": 75,
          "time": 120.21416549999766,
          "velocity": 0.7559055118110236,
          "duration": 0.10714274999999418
        },
        {
          "name": "C6",
          "midi": 84,
          "time": 120.21416549999766,
          "velocity": 0.7559055118110236,
          "duration": 0.10714274999999418
        },
        {
          "name": "D#6",
          "midi": 87,
          "time": 120.21416549999766,
          "velocity": 0.7559055118110236,
          "duration": 0.10714274999999418
        },
        {
          "name": "D7",
          "midi": 98,
          "time": 120.35702249999765,
          "velocity": 0.7559055118110236,
          "duration": 0.07142849999999612
        },
        {
          "name": "C1",
          "midi": 24,
          "time": 120.35702249999765,
          "velocity": 0.7874015748031497,
          "duration": 0.026785687499994992
        },
        {
          "name": "G1",
          "midi": 31,
          "time": 120.35702249999765,
          "velocity": 0.7874015748031497,
          "duration": 0.026785687499994992
        },
        {
          "name": "C5",
          "midi": 72,
          "time": 120.42845099999765,
          "velocity": 0.7559055118110236,
          "duration": 0.10714274999999418
        },
        {
          "name": "C#5",
          "midi": 73,
          "time": 120.42845099999765,
          "velocity": 0.7559055118110236,
          "duration": 0.10714274999999418
        },
        {
          "name": "C7",
          "midi": 96,
          "time": 120.42845099999765,
          "velocity": 0.7559055118110236,
          "duration": 0.07142849999999612
        },
        {
          "name": "C#7",
          "midi": 97,
          "time": 120.42845099999765,
          "velocity": 0.7559055118110236,
          "duration": 0.07142849999999612
        },
        {
          "name": "C1",
          "midi": 24,
          "time": 120.42845099999765,
          "velocity": 0.7874015748031497,
          "duration": 0.026785687499994992
        },
        {
          "name": "D1",
          "midi": 26,
          "time": 120.42845099999765,
          "velocity": 0.7874015748031497,
          "duration": 0.026785687499994992
        },
        {
          "name": "C6",
          "midi": 84,
          "time": 120.53559374999764,
          "velocity": 0.7559055118110236,
          "duration": 0.10714274999999418
        },
        {
          "name": "D#6",
          "midi": 87,
          "time": 120.53559374999764,
          "velocity": 0.7559055118110236,
          "duration": 0.10714274999999418
        },
        {
          "name": "D#5",
          "midi": 75,
          "time": 120.64273649999764,
          "velocity": 0.7559055118110236,
          "duration": 0.10714274999999418
        },
        {
          "name": "D7",
          "midi": 98,
          "time": 120.64273649999764,
          "velocity": 0.7559055118110236,
          "duration": 0.07142849999999612
        },
        {
          "name": "G1",
          "midi": 31,
          "time": 120.64273649999764,
          "velocity": 0.7874015748031497,
          "duration": 0.026785687499994992
        },
        {
          "name": "C7",
          "midi": 96,
          "time": 120.71416499999764,
          "velocity": 0.7559055118110236,
          "duration": 0.07142849999999612
        },
        {
          "name": "C#7",
          "midi": 97,
          "time": 120.71416499999764,
          "velocity": 0.7559055118110236,
          "duration": 0.07142849999999612
        },
        {
          "name": "C1",
          "midi": 24,
          "time": 120.71416499999764,
          "velocity": 0.7874015748031497,
          "duration": 0.026785687499994992
        },
        {
          "name": "D1",
          "midi": 26,
          "time": 120.71416499999764,
          "velocity": 0.7874015748031497,
          "duration": 0.026785687499994992
        },
        {
          "name": "C5",
          "midi": 72,
          "time": 120.85702199999763,
          "velocity": 0.7559055118110236,
          "duration": 0.10714274999999418
        },
        {
          "name": "E5",
          "midi": 76,
          "time": 120.85702199999763,
          "velocity": 0.7559055118110236,
          "duration": 0.10714274999999418
        },
        {
          "name": "C6",
          "midi": 84,
          "time": 120.85702199999763,
          "velocity": 0.7559055118110236,
          "duration": 0.10714274999999418
        },
        {
          "name": "C#6",
          "midi": 85,
          "time": 120.85702199999763,
          "velocity": 0.7559055118110236,
          "duration": 0.10714274999999418
        },
        {
          "name": "E6",
          "midi": 88,
          "time": 120.85702199999763,
          "velocity": 0.7559055118110236,
          "duration": 0.10714274999999418
        },
        {
          "name": "C7",
          "midi": 96,
          "time": 120.92845049999762,
          "velocity": 0.7559055118110236,
          "duration": 0.07142849999999612
        },
        {
          "name": "D#7",
          "midi": 99,
          "time": 120.92845049999762,
          "velocity": 0.7559055118110236,
          "duration": 0.07142849999999612
        },
        {
          "name": "C1",
          "midi": 24,
          "time": 120.92845049999762,
          "velocity": 0.7874015748031497,
          "duration": 0.026785687499994992
        },
        {
          "name": "F#2",
          "midi": 42,
          "time": 120.92845049999762,
          "velocity": 0.7874015748031497,
          "duration": 0.026785687499994992
        },
        {
          "name": "D#5",
          "midi": 75,
          "time": 121.07130749999762,
          "velocity": 0.7559055118110236,
          "duration": 0.10714274999999418
        },
        {
          "name": "D7",
          "midi": 98,
          "time": 121.07130749999762,
          "velocity": 0.7559055118110236,
          "duration": 0.07142849999999612
        },
        {
          "name": "F#1",
          "midi": 30,
          "time": 121.07130749999762,
          "velocity": 0.7874015748031497,
          "duration": 0.026785687499994992
        },
        {
          "name": "D7",
          "midi": 98,
          "time": 121.21416449999761,
          "velocity": 0.7559055118110236,
          "duration": 0.07142849999999612
        },
        {
          "name": "G1",
          "midi": 31,
          "time": 121.21416449999761,
          "velocity": 0.7874015748031497,
          "duration": 0.026785687499994992
        },
        {
          "name": "C5",
          "midi": 72,
          "time": 121.2855929999976,
          "velocity": 0.7559055118110236,
          "duration": 0.10714274999999418
        },
        {
          "name": "C#5",
          "midi": 73,
          "time": 121.2855929999976,
          "velocity": 0.7559055118110236,
          "duration": 0.10714274999999418
        },
        {
          "name": "C6",
          "midi": 84,
          "time": 121.2855929999976,
          "velocity": 0.7559055118110236,
          "duration": 0.10714274999999418
        },
        {
          "name": "D6",
          "midi": 86,
          "time": 121.2855929999976,
          "velocity": 0.7559055118110236,
          "duration": 0.10714274999999418
        },
        {
          "name": "C7",
          "midi": 96,
          "time": 121.3570214999976,
          "velocity": 0.7559055118110236,
          "duration": 0.07142849999999612
        },
        {
          "name": "D#7",
          "midi": 99,
          "time": 121.3570214999976,
          "velocity": 0.7559055118110236,
          "duration": 0.07142849999999612
        },
        {
          "name": "C1",
          "midi": 24,
          "time": 121.3570214999976,
          "velocity": 0.7874015748031497,
          "duration": 0.026785687499994992
        },
        {
          "name": "B1",
          "midi": 35,
          "time": 121.3570214999976,
          "velocity": 0.7874015748031497,
          "duration": 0.026785687499994992
        },
        {
          "name": "D#5",
          "midi": 75,
          "time": 121.49987849999759,
          "velocity": 0.7559055118110236,
          "duration": 0.10714274999999418
        },
        {
          "name": "D7",
          "midi": 98,
          "time": 121.49987849999759,
          "velocity": 0.7559055118110236,
          "duration": 0.07142849999999612
        },
        {
          "name": "G1",
          "midi": 31,
          "time": 121.49987849999759,
          "velocity": 0.7874015748031497,
          "duration": 0.026785687499994992
        },
        {
          "name": "D7",
          "midi": 98,
          "time": 121.64273549999758,
          "velocity": 0.7559055118110236,
          "duration": 0.07142849999999612
        },
        {
          "name": "F#1",
          "midi": 30,
          "time": 121.64273549999758,
          "velocity": 0.7874015748031497,
          "duration": 0.026785687499994992
        },
        {
          "name": "C5",
          "midi": 72,
          "time": 121.71416399999758,
          "velocity": 0.7559055118110236,
          "duration": 0.10714274999999418
        },
        {
          "name": "E5",
          "midi": 76,
          "time": 121.71416399999758,
          "velocity": 0.7559055118110236,
          "duration": 0.10714274999999418
        },
        {
          "name": "C6",
          "midi": 84,
          "time": 121.71416399999758,
          "velocity": 0.7559055118110236,
          "duration": 0.10714274999999418
        },
        {
          "name": "D6",
          "midi": 86,
          "time": 121.71416399999758,
          "velocity": 0.7559055118110236,
          "duration": 0.10714274999999418
        },
        {
          "name": "C7",
          "midi": 96,
          "time": 121.78559249999758,
          "velocity": 0.7559055118110236,
          "duration": 0.07142849999999612
        },
        {
          "name": "D7",
          "midi": 98,
          "time": 121.78559249999758,
          "velocity": 0.7559055118110236,
          "duration": 0.07142849999999612
        },
        {
          "name": "C1",
          "midi": 24,
          "time": 121.78559249999758,
          "velocity": 0.7874015748031497,
          "duration": 0.026785687499994992
        },
        {
          "name": "G1",
          "midi": 31,
          "time": 121.78559249999758,
          "velocity": 0.7874015748031497,
          "duration": 0.026785687499994992
        },
        {
          "name": "D#5",
          "midi": 75,
          "time": 121.92844949999757,
          "velocity": 0.7559055118110236,
          "duration": 0.10714274999999418
        },
        {
          "name": "C7",
          "midi": 96,
          "time": 122.07130649999756,
          "velocity": 0.7559055118110236,
          "duration": 0.07142849999999612
        },
        {
          "name": "C5",
          "midi": 72,
          "time": 122.14273499999756,
          "velocity": 0.7559055118110236,
          "duration": 0.10714274999999418
        },
        {
          "name": "C#5",
          "midi": 73,
          "time": 122.14273499999756,
          "velocity": 0.7559055118110236,
          "duration": 0.10714274999999418
        },
        {
          "name": "C6",
          "midi": 84,
          "time": 122.14273499999756,
          "velocity": 0.7559055118110236,
          "duration": 0.10714274999999418
        },
        {
          "name": "D6",
          "midi": 86,
          "time": 122.14273499999756,
          "velocity": 0.7559055118110236,
          "duration": 0.10714274999999418
        },
        {
          "name": "C7",
          "midi": 96,
          "time": 122.21416349999755,
          "velocity": 0.7559055118110236,
          "duration": 0.07142849999999612
        },
        {
          "name": "C5",
          "midi": 72,
          "time": 122.24987774999755,
          "velocity": 0.7559055118110236,
          "duration": 0.10714274999999418
        },
        {
          "name": "C6",
          "midi": 84,
          "time": 122.24987774999755,
          "velocity": 0.7559055118110236,
          "duration": 0.10714274999999418
        },
        {
          "name": "D6",
          "midi": 86,
          "time": 122.24987774999755,
          "velocity": 0.7559055118110236,
          "duration": 0.10714274999999418
        },
        {
          "name": "D#5",
          "midi": 75,
          "time": 122.35702049999755,
          "velocity": 0.7559055118110236,
          "duration": 0.10714274999999418
        },
        {
          "name": "D7",
          "midi": 98,
          "time": 122.35702049999755,
          "velocity": 0.7559055118110236,
          "duration": 0.07142849999999612
        },
        {
          "name": "C1",
          "midi": 24,
          "time": 122.35702049999755,
          "velocity": 0.7874015748031497,
          "duration": 0.026785687499994992
        },
        {
          "name": "F#1",
          "midi": 30,
          "time": 122.35702049999755,
          "velocity": 0.7874015748031497,
          "duration": 0.026785687499994992
        },
        {
          "name": "D7",
          "midi": 98,
          "time": 122.49987749999754,
          "velocity": 0.7559055118110236,
          "duration": 0.07142849999999612
        },
        {
          "name": "G1",
          "midi": 31,
          "time": 122.49987749999754,
          "velocity": 0.7874015748031497,
          "duration": 0.026785687499994992
        },
        {
          "name": "C#5",
          "midi": 73,
          "time": 122.57130599999753,
          "velocity": 0.7559055118110236,
          "duration": 0.10714274999999418
        },
        {
          "name": "E5",
          "midi": 76,
          "time": 122.57130599999753,
          "velocity": 0.7559055118110236,
          "duration": 0.10714274999999418
        },
        {
          "name": "E6",
          "midi": 88,
          "time": 122.57130599999753,
          "velocity": 0.7559055118110236,
          "duration": 0.10714274999999418
        },
        {
          "name": "E7",
          "midi": 100,
          "time": 122.64273449999753,
          "velocity": 0.7559055118110236,
          "duration": 0.07142849999999612
        },
        {
          "name": "A#1",
          "midi": 34,
          "time": 122.64273449999753,
          "velocity": 0.7874015748031497,
          "duration": 0.026785687499994992
        },
        {
          "name": "D#5",
          "midi": 75,
          "time": 122.78559149999752,
          "velocity": 0.7559055118110236,
          "duration": 0.10714274999999418
        },
        {
          "name": "C#5",
          "midi": 73,
          "time": 122.99987699999751,
          "velocity": 0.7559055118110236,
          "duration": 0.10714274999999418
        },
        {
          "name": "C7",
          "midi": 96,
          "time": 122.99987699999751,
          "velocity": 0.7559055118110236,
          "duration": 0.07142849999999612
        },
        {
          "name": "D7",
          "midi": 98,
          "time": 122.99987699999751,
          "velocity": 0.7559055118110236,
          "duration": 0.07142849999999612
        },
        {
          "name": "C1",
          "midi": 24,
          "time": 122.99987699999751,
          "velocity": 0.7874015748031497,
          "duration": 0.026785687499994992
        },
        {
          "name": "G1",
          "midi": 31,
          "time": 122.99987699999751,
          "velocity": 0.7874015748031497,
          "duration": 0.026785687499994992
        },
        {
          "name": "C5",
          "midi": 72,
          "time": 123.1070197499975,
          "velocity": 0.7559055118110236,
          "duration": 0.10714274999999418
        },
        {
          "name": "C6",
          "midi": 84,
          "time": 123.1070197499975,
          "velocity": 0.7559055118110236,
          "duration": 0.10714274999999418
        },
        {
          "name": "D6",
          "midi": 86,
          "time": 123.1070197499975,
          "velocity": 0.7559055118110236,
          "duration": 0.10714274999999418
        },
        {
          "name": "C7",
          "midi": 96,
          "time": 123.1427339999975,
          "velocity": 0.7559055118110236,
          "duration": 0.07142849999999612
        },
        {
          "name": "C5",
          "midi": 72,
          "time": 123.2141624999975,
          "velocity": 0.7559055118110236,
          "duration": 0.10714274999999418
        },
        {
          "name": "D#5",
          "midi": 75,
          "time": 123.2141624999975,
          "velocity": 0.7559055118110236,
          "duration": 0.10714274999999418
        },
        {
          "name": "C6",
          "midi": 84,
          "time": 123.2141624999975,
          "velocity": 0.7559055118110236,
          "duration": 0.10714274999999418
        },
        {
          "name": "D6",
          "midi": 86,
          "time": 123.2141624999975,
          "velocity": 0.7559055118110236,
          "duration": 0.10714274999999418
        },
        {
          "name": "C7",
          "midi": 96,
          "time": 123.2855909999975,
          "velocity": 0.7559055118110236,
          "duration": 0.07142849999999612
        },
        {
          "name": "C5",
          "midi": 72,
          "time": 123.3213052499975,
          "velocity": 0.7559055118110236,
          "duration": 0.10714274999999418
        },
        {
          "name": "C6",
          "midi": 84,
          "time": 123.3213052499975,
          "velocity": 0.7559055118110236,
          "duration": 0.10714274999999418
        },
        {
          "name": "D6",
          "midi": 86,
          "time": 123.3213052499975,
          "velocity": 0.7559055118110236,
          "duration": 0.10714274999999418
        },
        {
          "name": "E5",
          "midi": 76,
          "time": 123.42844799999749,
          "velocity": 0.7559055118110236,
          "duration": 0.10714274999999418
        },
        {
          "name": "C7",
          "midi": 96,
          "time": 123.42844799999749,
          "velocity": 0.7559055118110236,
          "duration": 0.07142849999999612
        },
        {
          "name": "D7",
          "midi": 98,
          "time": 123.42844799999749,
          "velocity": 0.7559055118110236,
          "duration": 0.07142849999999612
        },
        {
          "name": "C1",
          "midi": 24,
          "time": 123.42844799999749,
          "velocity": 0.7874015748031497,
          "duration": 0.026785687499994992
        },
        {
          "name": "F#1",
          "midi": 30,
          "time": 123.42844799999749,
          "velocity": 0.7874015748031497,
          "duration": 0.026785687499994992
        },
        {
          "name": "C5",
          "midi": 72,
          "time": 123.64273349999748,
          "velocity": 0.7559055118110236,
          "duration": 0.10714274999999418
        },
        {
          "name": "D#5",
          "midi": 75,
          "time": 123.64273349999748,
          "velocity": 0.7559055118110236,
          "duration": 0.10714274999999418
        },
        {
          "name": "C6",
          "midi": 84,
          "time": 123.64273349999748,
          "velocity": 0.7559055118110236,
          "duration": 0.10714274999999418
        },
        {
          "name": "D#6",
          "midi": 87,
          "time": 123.64273349999748,
          "velocity": 0.7559055118110236,
          "duration": 0.10714274999999418
        },
        {
          "name": "D7",
          "midi": 98,
          "time": 123.64273349999748,
          "velocity": 0.7559055118110236,
          "duration": 0.07142849999999612
        },
        {
          "name": "G1",
          "midi": 31,
          "time": 123.64273349999748,
          "velocity": 0.7874015748031497,
          "duration": 0.026785687499994992
        },
        {
          "name": "C7",
          "midi": 96,
          "time": 123.71416199999747,
          "velocity": 0.7559055118110236,
          "duration": 0.07142849999999612
        },
        {
          "name": "C5",
          "midi": 72,
          "time": 123.85701899999746,
          "velocity": 0.7559055118110236,
          "duration": 0.10714274999999418
        },
        {
          "name": "C#5",
          "midi": 73,
          "time": 123.85701899999746,
          "velocity": 0.7559055118110236,
          "duration": 0.10714274999999418
        },
        {
          "name": "D7",
          "midi": 98,
          "time": 123.92844749999746,
          "velocity": 0.7559055118110236,
          "duration": 0.07142849999999612
        },
        {
          "name": "C1",
          "midi": 24,
          "time": 123.92844749999746,
          "velocity": 0.7874015748031497,
          "duration": 0.026785687499994992
        },
        {
          "name": "F#1",
          "midi": 30,
          "time": 123.92844749999746,
          "velocity": 0.7874015748031497,
          "duration": 0.026785687499994992
        },
        {
          "name": "C6",
          "midi": 84,
          "time": 123.96416174999746,
          "velocity": 0.7559055118110236,
          "duration": 0.10714274999999418
        },
        {
          "name": "D#6",
          "midi": 87,
          "time": 123.96416174999746,
          "velocity": 0.7559055118110236,
          "duration": 0.10714274999999418
        },
        {
          "name": "C7",
          "midi": 96,
          "time": 123.99987599999746,
          "velocity": 0.7559055118110236,
          "duration": 0.07142849999999612
        },
        {
          "name": "D#5",
          "midi": 75,
          "time": 124.07130449999745,
          "velocity": 0.7559055118110236,
          "duration": 0.10714274999999418
        },
        {
          "name": "D7",
          "midi": 98,
          "time": 124.21416149999745,
          "velocity": 0.7559055118110236,
          "duration": 0.07142849999999612
        },
        {
          "name": "C1",
          "midi": 24,
          "time": 124.21416149999745,
          "velocity": 0.7874015748031497,
          "duration": 0.026785687499994992
        },
        {
          "name": "G1",
          "midi": 31,
          "time": 124.21416149999745,
          "velocity": 0.7874015748031497,
          "duration": 0.026785687499994992
        },
        {
          "name": "C5",
          "midi": 72,
          "time": 124.28558999999744,
          "velocity": 0.7559055118110236,
          "duration": 0.10714274999999418
        },
        {
          "name": "E5",
          "midi": 76,
          "time": 124.28558999999744,
          "velocity": 0.7559055118110236,
          "duration": 0.10714274999999418
        },
        {
          "name": "C6",
          "midi": 84,
          "time": 124.28558999999744,
          "velocity": 0.7559055118110236,
          "duration": 0.10714274999999418
        },
        {
          "name": "C#6",
          "midi": 85,
          "time": 124.28558999999744,
          "velocity": 0.7559055118110236,
          "duration": 0.10714274999999418
        },
        {
          "name": "C7",
          "midi": 96,
          "time": 124.28558999999744,
          "velocity": 0.7559055118110236,
          "duration": 0.07142849999999612
        },
        {
          "name": "C#7",
          "midi": 97,
          "time": 124.28558999999744,
          "velocity": 0.7559055118110236,
          "duration": 0.07142849999999612
        },
        {
          "name": "C1",
          "midi": 24,
          "time": 124.28558999999744,
          "velocity": 0.7874015748031497,
          "duration": 0.026785687499994992
        },
        {
          "name": "D1",
          "midi": 26,
          "time": 124.28558999999744,
          "velocity": 0.7874015748031497,
          "duration": 0.026785687499994992
        },
        {
          "name": "D#5",
          "midi": 75,
          "time": 124.49987549999743,
          "velocity": 0.7559055118110236,
          "duration": 0.10714274999999418
        },
        {
          "name": "D7",
          "midi": 98,
          "time": 124.49987549999743,
          "velocity": 0.7559055118110236,
          "duration": 0.07142849999999612
        },
        {
          "name": "G1",
          "midi": 31,
          "time": 124.49987549999743,
          "velocity": 0.7874015748031497,
          "duration": 0.026785687499994992
        },
        {
          "name": "C5",
          "midi": 72,
          "time": 124.71416099999742,
          "velocity": 0.7559055118110236,
          "duration": 0.10714274999999418
        },
        {
          "name": "C#5",
          "midi": 73,
          "time": 124.71416099999742,
          "velocity": 0.7559055118110236,
          "duration": 0.10714274999999418
        },
        {
          "name": "C6",
          "midi": 84,
          "time": 124.71416099999742,
          "velocity": 0.7559055118110236,
          "duration": 0.10714274999999418
        },
        {
          "name": "D6",
          "midi": 86,
          "time": 124.71416099999742,
          "velocity": 0.7559055118110236,
          "duration": 0.10714274999999418
        },
        {
          "name": "C7",
          "midi": 96,
          "time": 124.71416099999742,
          "velocity": 0.7559055118110236,
          "duration": 0.07142849999999612
        },
        {
          "name": "D7",
          "midi": 98,
          "time": 124.71416099999742,
          "velocity": 0.7559055118110236,
          "duration": 0.07142849999999612
        },
        {
          "name": "C1",
          "midi": 24,
          "time": 124.71416099999742,
          "velocity": 0.7874015748031497,
          "duration": 0.026785687499994992
        },
        {
          "name": "F#1",
          "midi": 30,
          "time": 124.71416099999742,
          "velocity": 0.7874015748031497,
          "duration": 0.026785687499994992
        },
        {
          "name": "D7",
          "midi": 98,
          "time": 124.85701799999741,
          "velocity": 0.7559055118110236,
          "duration": 0.07142849999999612
        },
        {
          "name": "G1",
          "midi": 31,
          "time": 124.85701799999741,
          "velocity": 0.7874015748031497,
          "duration": 0.026785687499994992
        },
        {
          "name": "D#5",
          "midi": 75,
          "time": 124.9284464999974,
          "velocity": 0.7559055118110236,
          "duration": 0.10714274999999418
        },
        {
          "name": "D7",
          "midi": 98,
          "time": 124.9998749999974,
          "velocity": 0.7559055118110236,
          "duration": 0.07142849999999612
        },
        {
          "name": "F#1",
          "midi": 30,
          "time": 124.9998749999974,
          "velocity": 0.7874015748031497,
          "duration": 0.026785687499994992
        },
        {
          "name": "D#5",
          "midi": 75,
          "time": 125.0355892499974,
          "velocity": 0.7559055118110236,
          "duration": 0.10714274999999418
        },
        {
          "name": "C5",
          "midi": 72,
          "time": 125.1427319999974,
          "velocity": 0.7559055118110236,
          "duration": 0.10714274999999418
        },
        {
          "name": "E5",
          "midi": 76,
          "time": 125.1427319999974,
          "velocity": 0.7559055118110236,
          "duration": 0.10714274999999418
        },
        {
          "name": "C6",
          "midi": 84,
          "time": 125.1427319999974,
          "velocity": 0.7559055118110236,
          "duration": 0.10714274999999418
        },
        {
          "name": "D6",
          "midi": 86,
          "time": 125.1427319999974,
          "velocity": 0.7559055118110236,
          "duration": 0.10714274999999418
        },
        {
          "name": "C7",
          "midi": 96,
          "time": 125.1427319999974,
          "velocity": 0.7559055118110236,
          "duration": 0.07142849999999612
        },
        {
          "name": "D7",
          "midi": 98,
          "time": 125.1427319999974,
          "velocity": 0.7559055118110236,
          "duration": 0.07142849999999612
        },
        {
          "name": "C1",
          "midi": 24,
          "time": 125.1427319999974,
          "velocity": 0.7874015748031497,
          "duration": 0.026785687499994992
        },
        {
          "name": "G1",
          "midi": 31,
          "time": 125.1427319999974,
          "velocity": 0.7874015748031497,
          "duration": 0.026785687499994992
        },
        {
          "name": "D#5",
          "midi": 75,
          "time": 125.35701749999738,
          "velocity": 0.7559055118110236,
          "duration": 0.10714274999999418
        },
        {
          "name": "D7",
          "midi": 98,
          "time": 125.42844599999738,
          "velocity": 0.7559055118110236,
          "duration": 0.07142849999999612
        },
        {
          "name": "F#1",
          "midi": 30,
          "time": 125.42844599999738,
          "velocity": 0.7874015748031497,
          "duration": 0.026785687499994992
        },
        {
          "name": "C5",
          "midi": 72,
          "time": 125.57130299999737,
          "velocity": 0.7559055118110236,
          "duration": 0.10714274999999418
        },
        {
          "name": "C#5",
          "midi": 73,
          "time": 125.57130299999737,
          "velocity": 0.7559055118110236,
          "duration": 0.10714274999999418
        },
        {
          "name": "C6",
          "midi": 84,
          "time": 125.57130299999737,
          "velocity": 0.7559055118110236,
          "duration": 0.10714274999999418
        },
        {
          "name": "D6",
          "midi": 86,
          "time": 125.57130299999737,
          "velocity": 0.7559055118110236,
          "duration": 0.10714274999999418
        },
        {
          "name": "C7",
          "midi": 96,
          "time": 125.57130299999737,
          "velocity": 0.7559055118110236,
          "duration": 0.07142849999999612
        },
        {
          "name": "C5",
          "midi": 72,
          "time": 125.67844574999737,
          "velocity": 0.7559055118110236,
          "duration": 0.10714274999999418
        },
        {
          "name": "C6",
          "midi": 84,
          "time": 125.67844574999737,
          "velocity": 0.7559055118110236,
          "duration": 0.10714274999999418
        },
        {
          "name": "D6",
          "midi": 86,
          "time": 125.67844574999737,
          "velocity": 0.7559055118110236,
          "duration": 0.10714274999999418
        },
        {
          "name": "C7",
          "midi": 96,
          "time": 125.71415999999736,
          "velocity": 0.7559055118110236,
          "duration": 0.07142849999999612
        },
        {
          "name": "D7",
          "midi": 98,
          "time": 125.71415999999736,
          "velocity": 0.7559055118110236,
          "duration": 0.07142849999999612
        },
        {
          "name": "C1",
          "midi": 24,
          "time": 125.71415999999736,
          "velocity": 0.7874015748031497,
          "duration": 0.026785687499994992
        },
        {
          "name": "G1",
          "midi": 31,
          "time": 125.71415999999736,
          "velocity": 0.7874015748031497,
          "duration": 0.026785687499994992
        },
        {
          "name": "D#5",
          "midi": 75,
          "time": 125.78558849999736,
          "velocity": 0.7559055118110236,
          "duration": 0.10714274999999418
        },
        {
          "name": "C#5",
          "midi": 73,
          "time": 125.99987399999735,
          "velocity": 0.7559055118110236,
          "duration": 0.10714274999999418
        },
        {
          "name": "E5",
          "midi": 76,
          "time": 125.99987399999735,
          "velocity": 0.7559055118110236,
          "duration": 0.10714274999999418
        },
        {
          "name": "E7",
          "midi": 100,
          "time": 125.99987399999735,
          "velocity": 0.7559055118110236,
          "duration": 0.07142849999999612
        },
        {
          "name": "A#1",
          "midi": 34,
          "time": 125.99987399999735,
          "velocity": 0.7874015748031497,
          "duration": 0.026785687499994992
        },
        {
          "name": "D#5",
          "midi": 75,
          "time": 126.21415949999734,
          "velocity": 0.7559055118110236,
          "duration": 0.10714274999999418
        },
        {
          "name": "C7",
          "midi": 96,
          "time": 126.35701649999733,
          "velocity": 0.7559055118110236,
          "duration": 0.07142849999999612
        },
        {
          "name": "C#5",
          "midi": 73,
          "time": 126.42844499999732,
          "velocity": 0.7559055118110236,
          "duration": 0.10714274999999418
        },
        {
          "name": "D7",
          "midi": 98,
          "time": 126.49987349999732,
          "velocity": 0.7559055118110236,
          "duration": 0.07142849999999612
        },
        {
          "name": "C1",
          "midi": 24,
          "time": 126.49987349999732,
          "velocity": 0.7874015748031497,
          "duration": 0.026785687499994992
        },
        {
          "name": "G1",
          "midi": 31,
          "time": 126.49987349999732,
          "velocity": 0.7874015748031497,
          "duration": 0.026785687499994992
        },
        {
          "name": "C5",
          "midi": 72,
          "time": 126.53558774999732,
          "velocity": 0.7559055118110236,
          "duration": 0.10714274999999418
        },
        {
          "name": "C6",
          "midi": 84,
          "time": 126.53558774999732,
          "velocity": 0.7559055118110236,
          "duration": 0.10714274999999418
        },
        {
          "name": "D6",
          "midi": 86,
          "time": 126.53558774999732,
          "velocity": 0.7559055118110236,
          "duration": 0.10714274999999418
        },
        {
          "name": "C5",
          "midi": 72,
          "time": 126.64273049999731,
          "velocity": 0.7559055118110236,
          "duration": 0.10714274999999418
        },
        {
          "name": "D#5",
          "midi": 75,
          "time": 126.64273049999731,
          "velocity": 0.7559055118110236,
          "duration": 0.10714274999999418
        },
        {
          "name": "C6",
          "midi": 84,
          "time": 126.64273049999731,
          "velocity": 0.7559055118110236,
          "duration": 0.10714274999999418
        },
        {
          "name": "D6",
          "midi": 86,
          "time": 126.64273049999731,
          "velocity": 0.7559055118110236,
          "duration": 0.10714274999999418
        },
        {
          "name": "C7",
          "midi": 96,
          "time": 126.64273049999731,
          "velocity": 0.7559055118110236,
          "duration": 0.07142849999999612
        },
        {
          "name": "C5",
          "midi": 72,
          "time": 126.74987324999731,
          "velocity": 0.7559055118110236,
          "duration": 0.10714274999999418
        },
        {
          "name": "C6",
          "midi": 84,
          "time": 126.74987324999731,
          "velocity": 0.7559055118110236,
          "duration": 0.10714274999999418
        },
        {
          "name": "D6",
          "midi": 86,
          "time": 126.74987324999731,
          "velocity": 0.7559055118110236,
          "duration": 0.10714274999999418
        },
        {
          "name": "C7",
          "midi": 96,
          "time": 126.7855874999973,
          "velocity": 0.7559055118110236,
          "duration": 0.07142849999999612
        },
        {
          "name": "E5",
          "midi": 76,
          "time": 126.8570159999973,
          "velocity": 0.7559055118110236,
          "duration": 0.10714274999999418
        },
        {
          "name": "C7",
          "midi": 96,
          "time": 126.9284444999973,
          "velocity": 0.7559055118110236,
          "duration": 0.07142849999999612
        },
        {
          "name": "C5",
          "midi": 72,
          "time": 127.07130149999729,
          "velocity": 0.7559055118110236,
          "duration": 0.10714274999999418
        },
        {
          "name": "D#5",
          "midi": 75,
          "time": 127.07130149999729,
          "velocity": 0.7559055118110236,
          "duration": 0.10714274999999418
        },
        {
          "name": "C6",
          "midi": 84,
          "time": 127.07130149999729,
          "velocity": 0.7559055118110236,
          "duration": 0.10714274999999418
        },
        {
          "name": "D#6",
          "midi": 87,
          "time": 127.07130149999729,
          "velocity": 0.7559055118110236,
          "duration": 0.10714274999999418
        },
        {
          "name": "D7",
          "midi": 98,
          "time": 127.21415849999728,
          "velocity": 0.7559055118110236,
          "duration": 0.07142849999999612
        },
        {
          "name": "C1",
          "midi": 24,
          "time": 127.21415849999728,
          "velocity": 0.7874015748031497,
          "duration": 0.026785687499994992
        },
        {
          "name": "F#1",
          "midi": 30,
          "time": 127.21415849999728,
          "velocity": 0.7874015748031497,
          "duration": 0.026785687499994992
        },
        {
          "name": "C5",
          "midi": 72,
          "time": 127.28558699999728,
          "velocity": 0.7559055118110236,
          "duration": 0.10714274999999418
        },
        {
          "name": "C#5",
          "midi": 73,
          "time": 127.28558699999728,
          "velocity": 0.7559055118110236,
          "duration": 0.10714274999999418
        },
        {
          "name": "C7",
          "midi": 96,
          "time": 127.28558699999728,
          "velocity": 0.7559055118110236,
          "duration": 0.07142849999999612
        },
        {
          "name": "C#7",
          "midi": 97,
          "time": 127.28558699999728,
          "velocity": 0.7559055118110236,
          "duration": 0.07142849999999612
        },
        {
          "name": "C1",
          "midi": 24,
          "time": 127.28558699999728,
          "velocity": 0.7874015748031497,
          "duration": 0.026785687499994992
        },
        {
          "name": "D#1",
          "midi": 27,
          "time": 127.28558699999728,
          "velocity": 0.7874015748031497,
          "duration": 0.026785687499994992
        },
        {
          "name": "C6",
          "midi": 84,
          "time": 127.39272974999727,
          "velocity": 0.7559055118110236,
          "duration": 0.10714274999999418
        },
        {
          "name": "D#6",
          "midi": 87,
          "time": 127.39272974999727,
          "velocity": 0.7559055118110236,
          "duration": 0.10714274999999418
        },
        {
          "name": "D#5",
          "midi": 75,
          "time": 127.49987249999727,
          "velocity": 0.7559055118110236,
          "duration": 0.10714274999999418
        },
        {
          "name": "D7",
          "midi": 98,
          "time": 127.49987249999727,
          "velocity": 0.7559055118110236,
          "duration": 0.07142849999999612
        },
        {
          "name": "F#1",
          "midi": 30,
          "time": 127.49987249999727,
          "velocity": 0.7874015748031497,
          "duration": 0.026785687499994992
        },
        {
          "name": "C7",
          "midi": 96,
          "time": 127.57130099999726,
          "velocity": 0.7559055118110236,
          "duration": 0.07142849999999612
        },
        {
          "name": "C#7",
          "midi": 97,
          "time": 127.57130099999726,
          "velocity": 0.7559055118110236,
          "duration": 0.07142849999999612
        },
        {
          "name": "C1",
          "midi": 24,
          "time": 127.57130099999726,
          "velocity": 0.7874015748031497,
          "duration": 0.026785687499994992
        },
        {
          "name": "D#1",
          "midi": 27,
          "time": 127.57130099999726,
          "velocity": 0.7874015748031497,
          "duration": 0.026785687499994992
        },
        {
          "name": "C5",
          "midi": 72,
          "time": 127.71415799999725,
          "velocity": 0.7559055118110236,
          "duration": 0.10714274999999418
        },
        {
          "name": "E5",
          "midi": 76,
          "time": 127.71415799999725,
          "velocity": 0.7559055118110236,
          "duration": 0.10714274999999418
        },
        {
          "name": "C6",
          "midi": 84,
          "time": 127.71415799999725,
          "velocity": 0.7559055118110236,
          "duration": 0.10714274999999418
        },
        {
          "name": "C#6",
          "midi": 85,
          "time": 127.71415799999725,
          "velocity": 0.7559055118110236,
          "duration": 0.10714274999999418
        },
        {
          "name": "C7",
          "midi": 96,
          "time": 127.78558649999725,
          "velocity": 0.7559055118110236,
          "duration": 0.07142849999999612
        },
        {
          "name": "D#7",
          "midi": 99,
          "time": 127.78558649999725,
          "velocity": 0.7559055118110236,
          "duration": 0.07142849999999612
        },
        {
          "name": "C1",
          "midi": 24,
          "time": 127.78558649999725,
          "velocity": 0.7874015748031497,
          "duration": 0.026785687499994992
        },
        {
          "name": "B1",
          "midi": 35,
          "time": 127.78558649999725,
          "velocity": 0.7874015748031497,
          "duration": 0.026785687499994992
        },
        {
          "name": "D#5",
          "midi": 75,
          "time": 127.92844349999724,
          "velocity": 0.7559055118110236,
          "duration": 0.10714274999999418
        },
        {
          "name": "D7",
          "midi": 98,
          "time": 127.92844349999724,
          "velocity": 0.7559055118110236,
          "duration": 0.07142849999999612
        },
        {
          "name": "G1",
          "midi": 31,
          "time": 127.92844349999724,
          "velocity": 0.7874015748031497,
          "duration": 0.026785687499994992
        },
        {
          "name": "D7",
          "midi": 98,
          "time": 128.07130049999725,
          "velocity": 0.7559055118110236,
          "duration": 0.07142849999999612
        },
        {
          "name": "F#1",
          "midi": 30,
          "time": 128.07130049999725,
          "velocity": 0.7874015748031497,
          "duration": 0.026785687499994992
        },
        {
          "name": "C5",
          "midi": 72,
          "time": 128.14272899999725,
          "velocity": 0.7559055118110236,
          "duration": 0.10714274999997997
        },
        {
          "name": "C#5",
          "midi": 73,
          "time": 128.14272899999725,
          "velocity": 0.7559055118110236,
          "duration": 0.10714274999997997
        },
        {
          "name": "C6",
          "midi": 84,
          "time": 128.14272899999725,
          "velocity": 0.7559055118110236,
          "duration": 0.10714274999997997
        },
        {
          "name": "D6",
          "midi": 86,
          "time": 128.14272899999725,
          "velocity": 0.7559055118110236,
          "duration": 0.10714274999997997
        },
        {
          "name": "C7",
          "midi": 96,
          "time": 128.21415749999724,
          "velocity": 0.7559055118110236,
          "duration": 0.07142849999999612
        },
        {
          "name": "D#7",
          "midi": 99,
          "time": 128.21415749999724,
          "velocity": 0.7559055118110236,
          "duration": 0.07142849999999612
        },
        {
          "name": "C1",
          "midi": 24,
          "time": 128.21415749999724,
          "velocity": 0.7874015748031497,
          "duration": 0.026785687499994992
        },
        {
          "name": "F#2",
          "midi": 42,
          "time": 128.21415749999724,
          "velocity": 0.7874015748031497,
          "duration": 0.026785687499994992
        },
        {
          "name": "D#5",
          "midi": 75,
          "time": 128.35701449999723,
          "velocity": 0.7559055118110236,
          "duration": 0.10714275000000839
        },
        {
          "name": "D7",
          "midi": 98,
          "time": 128.35701449999723,
          "velocity": 0.7559055118110236,
          "duration": 0.07142849999999612
        },
        {
          "name": "F#1",
          "midi": 30,
          "time": 128.35701449999723,
          "velocity": 0.7874015748031497,
          "duration": 0.026785687499994992
        },
        {
          "name": "D7",
          "midi": 98,
          "time": 128.49987149999725,
          "velocity": 0.7559055118110236,
          "duration": 0.07142849999999612
        },
        {
          "name": "G1",
          "midi": 31,
          "time": 128.49987149999725,
          "velocity": 0.7874015748031497,
          "duration": 0.026785687499994992
        },
        {
          "name": "C5",
          "midi": 72,
          "time": 128.57129999999725,
          "velocity": 0.7559055118110236,
          "duration": 0.10714274999997997
        },
        {
          "name": "E5",
          "midi": 76,
          "time": 128.57129999999725,
          "velocity": 0.7559055118110236,
          "duration": 0.10714274999997997
        },
        {
          "name": "C6",
          "midi": 84,
          "time": 128.57129999999725,
          "velocity": 0.7559055118110236,
          "duration": 0.10714274999997997
        },
        {
          "name": "D6",
          "midi": 86,
          "time": 128.57129999999725,
          "velocity": 0.7559055118110236,
          "duration": 0.10714274999997997
        },
        {
          "name": "C7",
          "midi": 96,
          "time": 128.64272849999725,
          "velocity": 0.7559055118110236,
          "duration": 0.07142849999999612
        },
        {
          "name": "D7",
          "midi": 98,
          "time": 128.64272849999725,
          "velocity": 0.7559055118110236,
          "duration": 0.07142849999999612
        },
        {
          "name": "C1",
          "midi": 24,
          "time": 128.64272849999725,
          "velocity": 0.7874015748031497,
          "duration": 0.026785687499994992
        },
        {
          "name": "F#1",
          "midi": 30,
          "time": 128.64272849999725,
          "velocity": 0.7874015748031497,
          "duration": 0.026785687499994992
        },
        {
          "name": "D#5",
          "midi": 75,
          "time": 128.78558549999724,
          "velocity": 0.7559055118110236,
          "duration": 0.10714275000000839
        },
        {
          "name": "C7",
          "midi": 96,
          "time": 128.92844249999726,
          "velocity": 0.7559055118110236,
          "duration": 0.07142849999999612
        },
        {
          "name": "C5",
          "midi": 72,
          "time": 128.99987099999726,
          "velocity": 0.7559055118110236,
          "duration": 0.10714275000000839
        },
        {
          "name": "C#5",
          "midi": 73,
          "time": 128.99987099999726,
          "velocity": 0.7559055118110236,
          "duration": 0.10714275000000839
        },
        {
          "name": "C6",
          "midi": 84,
          "time": 128.99987099999726,
          "velocity": 0.7559055118110236,
          "duration": 0.10714275000000839
        },
        {
          "name": "D6",
          "midi": 86,
          "time": 128.99987099999726,
          "velocity": 0.7559055118110236,
          "duration": 0.10714275000000839
        },
        {
          "name": "C7",
          "midi": 96,
          "time": 129.07129949999725,
          "velocity": 0.7559055118110236,
          "duration": 0.07142850000002454
        },
        {
          "name": "C5",
          "midi": 72,
          "time": 129.10701374999726,
          "velocity": 0.7559055118110236,
          "duration": 0.10714275000000839
        },
        {
          "name": "C6",
          "midi": 84,
          "time": 129.10701374999726,
          "velocity": 0.7559055118110236,
          "duration": 0.10714275000000839
        },
        {
          "name": "D6",
          "midi": 86,
          "time": 129.10701374999726,
          "velocity": 0.7559055118110236,
          "duration": 0.10714275000000839
        },
        {
          "name": "D#5",
          "midi": 75,
          "time": 129.21415649999727,
          "velocity": 0.7559055118110236,
          "duration": 0.10714275000000839
        },
        {
          "name": "D7",
          "midi": 98,
          "time": 129.21415649999727,
          "velocity": 0.7559055118110236,
          "duration": 0.07142849999999612
        },
        {
          "name": "C1",
          "midi": 24,
          "time": 129.21415649999727,
          "velocity": 0.7874015748031497,
          "duration": 0.026785687499994992
        },
        {
          "name": "G1",
          "midi": 31,
          "time": 129.21415649999727,
          "velocity": 0.7874015748031497,
          "duration": 0.026785687499994992
        },
        {
          "name": "D7",
          "midi": 98,
          "time": 129.3570134999973,
          "velocity": 0.7559055118110236,
          "duration": 0.07142849999999612
        },
        {
          "name": "F#1",
          "midi": 30,
          "time": 129.3570134999973,
          "velocity": 0.7874015748031497,
          "duration": 0.026785687499994992
        },
        {
          "name": "C#5",
          "midi": 73,
          "time": 129.4284419999973,
          "velocity": 0.7559055118110236,
          "duration": 0.10714274999997997
        },
        {
          "name": "E5",
          "midi": 76,
          "time": 129.4284419999973,
          "velocity": 0.7559055118110236,
          "duration": 0.10714274999997997
        },
        {
          "name": "E6",
          "midi": 88,
          "time": 129.4284419999973,
          "velocity": 0.7559055118110236,
          "duration": 0.10714274999997997
        },
        {
          "name": "E7",
          "midi": 100,
          "time": 129.4998704999973,
          "velocity": 0.7559055118110236,
          "duration": 0.07142849999999612
        },
        {
          "name": "C2",
          "midi": 36,
          "time": 129.4998704999973,
          "velocity": 0.7874015748031497,
          "duration": 0.026785687499994992
        },
        {
          "name": "D#5",
          "midi": 75,
          "time": 129.64272749999728,
          "velocity": 0.7559055118110236,
          "duration": 0.10714275000000839
        },
        {
          "name": "C#5",
          "midi": 73,
          "time": 129.8570129999973,
          "velocity": 0.7559055118110236,
          "duration": 0.10714275000000839
        },
        {
          "name": "C7",
          "midi": 96,
          "time": 129.8570129999973,
          "velocity": 0.7559055118110236,
          "duration": 0.07142849999999612
        },
        {
          "name": "D7",
          "midi": 98,
          "time": 129.8570129999973,
          "velocity": 0.7559055118110236,
          "duration": 0.07142849999999612
        },
        {
          "name": "C1",
          "midi": 24,
          "time": 129.8570129999973,
          "velocity": 0.7874015748031497,
          "duration": 0.026785687499994992
        },
        {
          "name": "F#1",
          "midi": 30,
          "time": 129.8570129999973,
          "velocity": 0.7874015748031497,
          "duration": 0.026785687499994992
        },
        {
          "name": "C5",
          "midi": 72,
          "time": 129.9641557499973,
          "velocity": 0.7559055118110236,
          "duration": 0.10714275000000839
        },
        {
          "name": "C6",
          "midi": 84,
          "time": 129.9641557499973,
          "velocity": 0.7559055118110236,
          "duration": 0.10714275000000839
        },
        {
          "name": "D6",
          "midi": 86,
          "time": 129.9641557499973,
          "velocity": 0.7559055118110236,
          "duration": 0.10714275000000839
        },
        {
          "name": "C7",
          "midi": 96,
          "time": 129.99986999999732,
          "velocity": 0.7559055118110236,
          "duration": 0.07142849999999612
        },
        {
          "name": "C5",
          "midi": 72,
          "time": 130.0712984999973,
          "velocity": 0.7559055118110236,
          "duration": 0.10714275000000839
        },
        {
          "name": "D#5",
          "midi": 75,
          "time": 130.0712984999973,
          "velocity": 0.7559055118110236,
          "duration": 0.10714275000000839
        },
        {
          "name": "C6",
          "midi": 84,
          "time": 130.0712984999973,
          "velocity": 0.7559055118110236,
          "duration": 0.10714275000000839
        },
        {
          "name": "D6",
          "midi": 86,
          "time": 130.0712984999973,
          "velocity": 0.7559055118110236,
          "duration": 0.10714275000000839
        },
        {
          "name": "C7",
          "midi": 96,
          "time": 130.1427269999973,
          "velocity": 0.7559055118110236,
          "duration": 0.07142850000002454
        },
        {
          "name": "C5",
          "midi": 72,
          "time": 130.17844124999732,
          "velocity": 0.7559055118110236,
          "duration": 0.10714275000000839
        },
        {
          "name": "C6",
          "midi": 84,
          "time": 130.17844124999732,
          "velocity": 0.7559055118110236,
          "duration": 0.10714275000000839
        },
        {
          "name": "D6",
          "midi": 86,
          "time": 130.17844124999732,
          "velocity": 0.7559055118110236,
          "duration": 0.10714275000000839
        },
        {
          "name": "E5",
          "midi": 76,
          "time": 130.28558399999733,
          "velocity": 0.7559055118110236,
          "duration": 0.10714275000000839
        },
        {
          "name": "C7",
          "midi": 96,
          "time": 130.28558399999733,
          "velocity": 0.7559055118110236,
          "duration": 0.07142849999999612
        },
        {
          "name": "D7",
          "midi": 98,
          "time": 130.28558399999733,
          "velocity": 0.7559055118110236,
          "duration": 0.07142849999999612
        },
        {
          "name": "C1",
          "midi": 24,
          "time": 130.28558399999733,
          "velocity": 0.7874015748031497,
          "duration": 0.026785687499994992
        },
        {
          "name": "G1",
          "midi": 31,
          "time": 130.28558399999733,
          "velocity": 0.7874015748031497,
          "duration": 0.026785687499994992
        },
        {
          "name": "C5",
          "midi": 72,
          "time": 130.49986949999735,
          "velocity": 0.7559055118110236,
          "duration": 0.10714275000000839
        },
        {
          "name": "D#5",
          "midi": 75,
          "time": 130.49986949999735,
          "velocity": 0.7559055118110236,
          "duration": 0.10714275000000839
        },
        {
          "name": "C6",
          "midi": 84,
          "time": 130.49986949999735,
          "velocity": 0.7559055118110236,
          "duration": 0.10714275000000839
        },
        {
          "name": "D#6",
          "midi": 87,
          "time": 130.49986949999735,
          "velocity": 0.7559055118110236,
          "duration": 0.10714275000000839
        },
        {
          "name": "D7",
          "midi": 98,
          "time": 130.49986949999735,
          "velocity": 0.7559055118110236,
          "duration": 0.07142849999999612
        },
        {
          "name": "F#1",
          "midi": 30,
          "time": 130.49986949999735,
          "velocity": 0.7874015748031497,
          "duration": 0.026785687499994992
        },
        {
          "name": "C7",
          "midi": 96,
          "time": 130.57129799999734,
          "velocity": 0.7559055118110236,
          "duration": 0.07142850000002454
        },
        {
          "name": "C5",
          "midi": 72,
          "time": 130.71415499999736,
          "velocity": 0.7559055118110236,
          "duration": 0.10714274999997997
        },
        {
          "name": "C#5",
          "midi": 73,
          "time": 130.71415499999736,
          "velocity": 0.7559055118110236,
          "duration": 0.10714274999997997
        },
        {
          "name": "D7",
          "midi": 98,
          "time": 130.78558349999736,
          "velocity": 0.7559055118110236,
          "duration": 0.07142849999999612
        },
        {
          "name": "C1",
          "midi": 24,
          "time": 130.78558349999736,
          "velocity": 0.7874015748031497,
          "duration": 0.026785687499994992
        },
        {
          "name": "G1",
          "midi": 31,
          "time": 130.78558349999736,
          "velocity": 0.7874015748031497,
          "duration": 0.026785687499994992
        },
        {
          "name": "C6",
          "midi": 84,
          "time": 130.82129774999734,
          "velocity": 0.7559055118110236,
          "duration": 0.10714275000000839
        },
        {
          "name": "D#6",
          "midi": 87,
          "time": 130.82129774999734,
          "velocity": 0.7559055118110236,
          "duration": 0.10714275000000839
        },
        {
          "name": "C7",
          "midi": 96,
          "time": 130.85701199999735,
          "velocity": 0.7559055118110236,
          "duration": 0.07142849999999612
        },
        {
          "name": "D#5",
          "midi": 75,
          "time": 130.92844049999735,
          "velocity": 0.7559055118110236,
          "duration": 0.10714275000000839
        },
        {
          "name": "D7",
          "midi": 98,
          "time": 131.07129749999737,
          "velocity": 0.7559055118110236,
          "duration": 0.07142849999999612
        },
        {
          "name": "C1",
          "midi": 24,
          "time": 131.07129749999737,
          "velocity": 0.7874015748031497,
          "duration": 0.026785687499994992
        },
        {
          "name": "F#1",
          "midi": 30,
          "time": 131.07129749999737,
          "velocity": 0.7874015748031497,
          "duration": 0.026785687499994992
        },
        {
          "name": "C5",
          "midi": 72,
          "time": 131.14272599999737,
          "velocity": 0.7559055118110236,
          "duration": 0.10714275000000839
        },
        {
          "name": "E5",
          "midi": 76,
          "time": 131.14272599999737,
          "velocity": 0.7559055118110236,
          "duration": 0.10714275000000839
        },
        {
          "name": "C6",
          "midi": 84,
          "time": 131.14272599999737,
          "velocity": 0.7559055118110236,
          "duration": 0.10714275000000839
        },
        {
          "name": "C#6",
          "midi": 85,
          "time": 131.14272599999737,
          "velocity": 0.7559055118110236,
          "duration": 0.10714275000000839
        },
        {
          "name": "E6",
          "midi": 88,
          "time": 131.14272599999737,
          "velocity": 0.7559055118110236,
          "duration": 0.10714275000000839
        },
        {
          "name": "C7",
          "midi": 96,
          "time": 131.14272599999737,
          "velocity": 0.7559055118110236,
          "duration": 0.07142849999999612
        },
        {
          "name": "C#7",
          "midi": 97,
          "time": 131.14272599999737,
          "velocity": 0.7559055118110236,
          "duration": 0.07142849999999612
        },
        {
          "name": "C1",
          "midi": 24,
          "time": 131.14272599999737,
          "velocity": 0.7874015748031497,
          "duration": 0.026785687499994992
        },
        {
          "name": "D#1",
          "midi": 27,
          "time": 131.14272599999737,
          "velocity": 0.7874015748031497,
          "duration": 0.026785687499994992
        },
        {
          "name": "D#5",
          "midi": 75,
          "time": 131.35701149999738,
          "velocity": 0.7559055118110236,
          "duration": 0.10714275000000839
        },
        {
          "name": "D7",
          "midi": 98,
          "time": 131.4998684999974,
          "velocity": 0.7559055118110236,
          "duration": 0.07142849999999612
        },
        {
          "name": "F#1",
          "midi": 30,
          "time": 131.4998684999974,
          "velocity": 0.7874015748031497,
          "duration": 0.026785687499994992
        },
        {
          "name": "C5",
          "midi": 72,
          "time": 131.5712969999974,
          "velocity": 0.7559055118110236,
          "duration": 0.10714275000000839
        },
        {
          "name": "C#5",
          "midi": 73,
          "time": 131.5712969999974,
          "velocity": 0.7559055118110236,
          "duration": 0.10714275000000839
        },
        {
          "name": "C6",
          "midi": 84,
          "time": 131.5712969999974,
          "velocity": 0.7559055118110236,
          "duration": 0.10714275000000839
        },
        {
          "name": "D6",
          "midi": 86,
          "time": 131.5712969999974,
          "velocity": 0.7559055118110236,
          "duration": 0.10714275000000839
        },
        {
          "name": "C7",
          "midi": 96,
          "time": 131.5712969999974,
          "velocity": 0.7559055118110236,
          "duration": 0.07142849999999612
        },
        {
          "name": "C5",
          "midi": 72,
          "time": 131.6784397499974,
          "velocity": 0.7559055118110236,
          "duration": 0.10714275000000839
        },
        {
          "name": "C6",
          "midi": 84,
          "time": 131.6784397499974,
          "velocity": 0.7559055118110236,
          "duration": 0.10714275000000839
        },
        {
          "name": "D6",
          "midi": 86,
          "time": 131.6784397499974,
          "velocity": 0.7559055118110236,
          "duration": 0.10714275000000839
        },
        {
          "name": "D#5",
          "midi": 75,
          "time": 131.78558249999742,
          "velocity": 0.7559055118110236,
          "duration": 0.10714275000000839
        },
        {
          "name": "D#7",
          "midi": 99,
          "time": 131.92843949999744,
          "velocity": 0.7559055118110236,
          "duration": 0.07142849999999612
        },
        {
          "name": "C1",
          "midi": 24,
          "time": 131.92843949999744,
          "velocity": 0.7874015748031497,
          "duration": 0.026785687499994992
        },
        {
          "name": "F#2",
          "midi": 42,
          "time": 131.92843949999744,
          "velocity": 0.7874015748031497,
          "duration": 0.026785687499994992
        },
        {
          "name": "D#5",
          "midi": 75,
          "time": 131.99986799999743,
          "velocity": 0.7559055118110236,
          "duration": 0.10714275000000839
        },
        {
          "name": "E6",
          "midi": 88,
          "time": 131.99986799999743,
          "velocity": 0.7559055118110236,
          "duration": 0.10714275000000839
        },
        {
          "name": "C7",
          "midi": 96,
          "time": 131.99986799999743,
          "velocity": 0.7559055118110236,
          "duration": 0.07142849999999612
        },
        {
          "name": "E5",
          "midi": 76,
          "time": 132.85700999999744,
          "velocity": 0.7559055118110236,
          "duration": 0.10714275000000839
        },
        {
          "name": "D#5",
          "midi": 75,
          "time": 133.07129549999746,
          "velocity": 0.7559055118110236,
          "duration": 0.10714275000000839
        },
        {
          "name": "C5",
          "midi": 72,
          "time": 133.28558099999748,
          "velocity": 0.7559055118110236,
          "duration": 0.10714275000000839
        },
        {
          "name": "C6",
          "midi": 84,
          "time": 133.28558099999748,
          "velocity": 0.7559055118110236,
          "duration": 0.10714275000000839
        },
        {
          "name": "D6",
          "midi": 86,
          "time": 133.28558099999748,
          "velocity": 0.7559055118110236,
          "duration": 0.10714275000000839
        },
        {
          "name": "C7",
          "midi": 96,
          "time": 133.28558099999748,
          "velocity": 0.7559055118110236,
          "duration": 0.07142849999999612
        },
        {
          "name": "D7",
          "midi": 98,
          "time": 133.28558099999748,
          "velocity": 0.7559055118110236,
          "duration": 0.07142849999999612
        },
        {
          "name": "C1",
          "midi": 24,
          "time": 133.28558099999748,
          "velocity": 0.7874015748031497,
          "duration": 0.026785687499994992
        },
        {
          "name": "F#1",
          "midi": 30,
          "time": 133.28558099999748,
          "velocity": 0.7874015748031497,
          "duration": 0.026785687499994992
        },
        {
          "name": "C5",
          "midi": 72,
          "time": 133.3927237499975,
          "velocity": 0.7559055118110236,
          "duration": 0.10714275000000839
        },
        {
          "name": "C6",
          "midi": 84,
          "time": 133.3927237499975,
          "velocity": 0.7559055118110236,
          "duration": 0.10714275000000839
        },
        {
          "name": "D6",
          "midi": 86,
          "time": 133.3927237499975,
          "velocity": 0.7559055118110236,
          "duration": 0.10714275000000839
        },
        {
          "name": "C7",
          "midi": 96,
          "time": 133.4284379999975,
          "velocity": 0.7559055118110236,
          "duration": 0.07142849999999612
        },
        {
          "name": "C5",
          "midi": 72,
          "time": 133.4998664999975,
          "velocity": 0.7559055118110236,
          "duration": 0.10714275000000839
        },
        {
          "name": "D#5",
          "midi": 75,
          "time": 133.4998664999975,
          "velocity": 0.7559055118110236,
          "duration": 0.10714275000000839
        },
        {
          "name": "C6",
          "midi": 84,
          "time": 133.4998664999975,
          "velocity": 0.7559055118110236,
          "duration": 0.10714275000000839
        },
        {
          "name": "D6",
          "midi": 86,
          "time": 133.4998664999975,
          "velocity": 0.7559055118110236,
          "duration": 0.10714275000000839
        },
        {
          "name": "C7",
          "midi": 96,
          "time": 133.5712949999975,
          "velocity": 0.7559055118110236,
          "duration": 0.07142850000002454
        },
        {
          "name": "C#5",
          "midi": 73,
          "time": 133.7141519999975,
          "velocity": 0.7559055118110236,
          "duration": 0.10714275000000839
        },
        {
          "name": "C7",
          "midi": 96,
          "time": 133.7141519999975,
          "velocity": 0.7559055118110236,
          "duration": 0.07142849999999612
        },
        {
          "name": "C6",
          "midi": 84,
          "time": 133.82129474999752,
          "velocity": 0.7559055118110236,
          "duration": 0.10714275000000839
        },
        {
          "name": "D#6",
          "midi": 87,
          "time": 133.82129474999752,
          "velocity": 0.7559055118110236,
          "duration": 0.10714275000000839
        },
        {
          "name": "C5",
          "midi": 72,
          "time": 133.92843749999753,
          "velocity": 0.7559055118110236,
          "duration": 0.10714274999997997
        },
        {
          "name": "D#5",
          "midi": 75,
          "time": 133.92843749999753,
          "velocity": 0.7559055118110236,
          "duration": 0.10714274999997997
        },
        {
          "name": "D7",
          "midi": 98,
          "time": 133.99986599999752,
          "velocity": 0.7559055118110236,
          "duration": 0.07142849999999612
        },
        {
          "name": "C1",
          "midi": 24,
          "time": 133.99986599999752,
          "velocity": 0.7874015748031497,
          "duration": 0.026785687499994992
        },
        {
          "name": "G1",
          "midi": 31,
          "time": 133.99986599999752,
          "velocity": 0.7874015748031497,
          "duration": 0.026785687499994992
        },
        {
          "name": "C7",
          "midi": 96,
          "time": 134.07129449999752,
          "velocity": 0.7559055118110236,
          "duration": 0.07142849999999612
        },
        {
          "name": "C#5",
          "midi": 73,
          "time": 134.14272299999752,
          "velocity": 0.7559055118110236,
          "duration": 0.10714274999997997
        },
        {
          "name": "C6",
          "midi": 84,
          "time": 134.14272299999752,
          "velocity": 0.7559055118110236,
          "duration": 0.10714274999997997
        },
        {
          "name": "D#6",
          "midi": 87,
          "time": 134.14272299999752,
          "velocity": 0.7559055118110236,
          "duration": 0.10714274999997997
        },
        {
          "name": "D7",
          "midi": 98,
          "time": 134.2141514999975,
          "velocity": 0.7559055118110236,
          "duration": 0.07142849999999612
        },
        {
          "name": "C1",
          "midi": 24,
          "time": 134.2141514999975,
          "velocity": 0.7874015748031497,
          "duration": 0.026785687499994992
        },
        {
          "name": "F#1",
          "midi": 30,
          "time": 134.2141514999975,
          "velocity": 0.7874015748031497,
          "duration": 0.026785687499994992
        },
        {
          "name": "C5",
          "midi": 72,
          "time": 134.2498657499975,
          "velocity": 0.7559055118110236,
          "duration": 0.10714275000000839
        },
        {
          "name": "C7",
          "midi": 96,
          "time": 134.2855799999975,
          "velocity": 0.7559055118110236,
          "duration": 0.07142849999999612
        },
        {
          "name": "C5",
          "midi": 72,
          "time": 134.3570084999975,
          "velocity": 0.7559055118110236,
          "duration": 0.10714274999997997
        },
        {
          "name": "D#5",
          "midi": 75,
          "time": 134.3570084999975,
          "velocity": 0.7559055118110236,
          "duration": 0.10714274999997997
        },
        {
          "name": "D7",
          "midi": 98,
          "time": 134.4284369999975,
          "velocity": 0.7559055118110236,
          "duration": 0.07142849999999612
        },
        {
          "name": "C1",
          "midi": 24,
          "time": 134.4284369999975,
          "velocity": 0.7874015748031497,
          "duration": 0.026785687499994992
        },
        {
          "name": "G1",
          "midi": 31,
          "time": 134.4284369999975,
          "velocity": 0.7874015748031497,
          "duration": 0.026785687499994992
        },
        {
          "name": "C5",
          "midi": 72,
          "time": 134.46415124999749,
          "velocity": 0.7559055118110236,
          "duration": 0.10714275000000839
        },
        {
          "name": "C6",
          "midi": 84,
          "time": 134.46415124999749,
          "velocity": 0.7559055118110236,
          "duration": 0.10714275000000839
        },
        {
          "name": "C#6",
          "midi": 85,
          "time": 134.46415124999749,
          "velocity": 0.7559055118110236,
          "duration": 0.10714275000000839
        },
        {
          "name": "E6",
          "midi": 88,
          "time": 134.46415124999749,
          "velocity": 0.7559055118110236,
          "duration": 0.10714275000000839
        },
        {
          "name": "E5",
          "midi": 76,
          "time": 134.5712939999975,
          "velocity": 0.7559055118110236,
          "duration": 0.10714274999997997
        },
        {
          "name": "C7",
          "midi": 96,
          "time": 134.6427224999975,
          "velocity": 0.7559055118110236,
          "duration": 0.07142849999999612
        },
        {
          "name": "C#7",
          "midi": 97,
          "time": 134.6427224999975,
          "velocity": 0.7559055118110236,
          "duration": 0.07142849999999612
        },
        {
          "name": "E7",
          "midi": 100,
          "time": 134.6427224999975,
          "velocity": 0.7559055118110236,
          "duration": 0.07142849999999612
        },
        {
          "name": "C1",
          "midi": 24,
          "time": 134.6427224999975,
          "velocity": 0.7874015748031497,
          "duration": 0.026785687499994992
        },
        {
          "name": "C2",
          "midi": 36,
          "time": 134.6427224999975,
          "velocity": 0.7874015748031497,
          "duration": 0.026785687499994992
        },
        {
          "name": "D1",
          "midi": 26,
          "time": 134.6427224999975,
          "velocity": 0.7874015748031497,
          "duration": 0.026785687499994992
        },
        {
          "name": "C5",
          "midi": 72,
          "time": 134.78557949999748,
          "velocity": 0.7559055118110236,
          "duration": 0.10714274999997997
        },
        {
          "name": "D#5",
          "midi": 75,
          "time": 134.78557949999748,
          "velocity": 0.7559055118110236,
          "duration": 0.10714274999997997
        },
        {
          "name": "D7",
          "midi": 98,
          "time": 134.85700799999748,
          "velocity": 0.7559055118110236,
          "duration": 0.07142849999999612
        },
        {
          "name": "G1",
          "midi": 31,
          "time": 134.85700799999748,
          "velocity": 0.7874015748031497,
          "duration": 0.026785687499994992
        },
        {
          "name": "C5",
          "midi": 72,
          "time": 134.89272224999746,
          "velocity": 0.7559055118110236,
          "duration": 0.10714275000000839
        },
        {
          "name": "C6",
          "midi": 84,
          "time": 134.89272224999746,
          "velocity": 0.7559055118110236,
          "duration": 0.10714275000000839
        },
        {
          "name": "D6",
          "midi": 86,
          "time": 134.89272224999746,
          "velocity": 0.7559055118110236,
          "duration": 0.10714275000000839
        },
        {
          "name": "C7",
          "midi": 96,
          "time": 134.92843649999747,
          "velocity": 0.7559055118110236,
          "duration": 0.07142849999999612
        },
        {
          "name": "C#5",
          "midi": 73,
          "time": 134.99986499999747,
          "velocity": 0.7559055118110236,
          "duration": 0.10714275000000839
        },
        {
          "name": "D#5",
          "midi": 75,
          "time": 134.99986499999747,
          "velocity": 0.7559055118110236,
          "duration": 0.10714275000000839
        },
        {
          "name": "D7",
          "midi": 98,
          "time": 135.1427219999975,
          "velocity": 0.7559055118110236,
          "duration": 0.07142849999999612
        },
        {
          "name": "C1",
          "midi": 24,
          "time": 135.1427219999975,
          "velocity": 0.7874015748031497,
          "duration": 0.026785687499994992
        },
        {
          "name": "F#1",
          "midi": 30,
          "time": 135.1427219999975,
          "velocity": 0.7874015748031497,
          "duration": 0.026785687499994992
        },
        {
          "name": "D#5",
          "midi": 75,
          "time": 135.2141504999975,
          "velocity": 0.7559055118110236,
          "duration": 0.10714275000000839
        },
        {
          "name": "C7",
          "midi": 96,
          "time": 135.2141504999975,
          "velocity": 0.7559055118110236,
          "duration": 0.07142849999999612
        },
        {
          "name": "C6",
          "midi": 84,
          "time": 135.3212932499975,
          "velocity": 0.7559055118110236,
          "duration": 0.10714275000000839
        },
        {
          "name": "D6",
          "midi": 86,
          "time": 135.3212932499975,
          "velocity": 0.7559055118110236,
          "duration": 0.10714275000000839
        },
        {
          "name": "D5",
          "midi": 74,
          "time": 135.4284359999975,
          "velocity": 0.7559055118110236,
          "duration": 0.10714275000000839
        },
        {
          "name": "D#7",
          "midi": 99,
          "time": 135.4284359999975,
          "velocity": 0.7559055118110236,
          "duration": 0.07142849999999612
        },
        {
          "name": "C1",
          "midi": 24,
          "time": 135.4284359999975,
          "velocity": 0.7874015748031497,
          "duration": 0.026785687499994992
        },
        {
          "name": "F#2",
          "midi": 42,
          "time": 135.4284359999975,
          "velocity": 0.7874015748031497,
          "duration": 0.026785687499994992
        },
        {
          "name": "D#6",
          "midi": 87,
          "time": 135.5355787499975,
          "velocity": 0.7559055118110236,
          "duration": 0.10714275000000839
        },
        {
          "name": "C7",
          "midi": 96,
          "time": 137.14271999999752,
          "velocity": 0.7559055118110236,
          "duration": 0.07142849999999612
        },
        {
          "name": "E7",
          "midi": 100,
          "time": 137.14271999999752,
          "velocity": 0.7559055118110236,
          "duration": 0.07142849999999612
        },
        {
          "name": "C1",
          "midi": 24,
          "time": 137.14271999999752,
          "velocity": 0.7874015748031497,
          "duration": 0.026785687499994992
        },
        {
          "name": "A#1",
          "midi": 34,
          "time": 137.14271999999752,
          "velocity": 0.7874015748031497,
          "duration": 0.026785687499994992
        },
        {
          "name": "C7",
          "midi": 96,
          "time": 137.4284339999975,
          "velocity": 0.7559055118110236,
          "duration": 0.07142849999999612
        },
        {
          "name": "D7",
          "midi": 98,
          "time": 137.4284339999975,
          "velocity": 0.7559055118110236,
          "duration": 0.07142849999999612
        },
        {
          "name": "C1",
          "midi": 24,
          "time": 137.4284339999975,
          "velocity": 0.7874015748031497,
          "duration": 0.026785687499994992
        },
        {
          "name": "G1",
          "midi": 31,
          "time": 137.4284339999975,
          "velocity": 0.7874015748031497,
          "duration": 0.026785687499994992
        },
        {
          "name": "C7",
          "midi": 96,
          "time": 137.5712909999975,
          "velocity": 0.7559055118110236,
          "duration": 0.07142849999999612
        },
        {
          "name": "D7",
          "midi": 98,
          "time": 137.7141479999975,
          "velocity": 0.7559055118110236,
          "duration": 0.07142849999999612
        },
        {
          "name": "C1",
          "midi": 24,
          "time": 137.7141479999975,
          "velocity": 0.7874015748031497,
          "duration": 0.026785687499994992
        },
        {
          "name": "F#1",
          "midi": 30,
          "time": 137.7141479999975,
          "velocity": 0.7874015748031497,
          "duration": 0.026785687499994992
        },
        {
          "name": "C7",
          "midi": 96,
          "time": 137.85700499999749,
          "velocity": 0.7559055118110236,
          "duration": 0.07142849999999612
        },
        {
          "name": "C#7",
          "midi": 97,
          "time": 137.99986199999748,
          "velocity": 0.7559055118110236,
          "duration": 0.07142849999999612
        },
        {
          "name": "D7",
          "midi": 98,
          "time": 137.99986199999748,
          "velocity": 0.7559055118110236,
          "duration": 0.07142849999999612
        },
        {
          "name": "C1",
          "midi": 24,
          "time": 137.99986199999748,
          "velocity": 0.7874015748031497,
          "duration": 0.026785687499994992
        },
        {
          "name": "G1",
          "midi": 31,
          "time": 137.99986199999748,
          "velocity": 0.7874015748031497,
          "duration": 0.026785687499994992
        },
        {
          "name": "D1",
          "midi": 26,
          "time": 137.99986199999748,
          "velocity": 0.7874015748031497,
          "duration": 0.026785687499994992
        },
        {
          "name": "D7",
          "midi": 98,
          "time": 138.28557599999746,
          "velocity": 0.7559055118110236,
          "duration": 0.07142849999999612
        },
        {
          "name": "G1",
          "midi": 31,
          "time": 138.28557599999746,
          "velocity": 0.7874015748031497,
          "duration": 0.026785687499994992
        },
        {
          "name": "C7",
          "midi": 96,
          "time": 138.42843299999745,
          "velocity": 0.7559055118110236,
          "duration": 0.07142849999999612
        },
        {
          "name": "D7",
          "midi": 98,
          "time": 138.57128999999745,
          "velocity": 0.7559055118110236,
          "duration": 0.07142849999999612
        },
        {
          "name": "C1",
          "midi": 24,
          "time": 138.57128999999745,
          "velocity": 0.7874015748031497,
          "duration": 0.026785687499994992
        },
        {
          "name": "F#1",
          "midi": 30,
          "time": 138.57128999999745,
          "velocity": 0.7874015748031497,
          "duration": 0.026785687499994992
        },
        {
          "name": "C7",
          "midi": 96,
          "time": 138.71414699999744,
          "velocity": 0.7559055118110236,
          "duration": 0.07142849999999612
        },
        {
          "name": "D7",
          "midi": 98,
          "time": 138.85700399999743,
          "velocity": 0.7559055118110236,
          "duration": 0.07142849999999612
        },
        {
          "name": "C1",
          "midi": 24,
          "time": 138.85700399999743,
          "velocity": 0.7874015748031497,
          "duration": 0.026785687499994992
        },
        {
          "name": "G1",
          "midi": 31,
          "time": 138.85700399999743,
          "velocity": 0.7874015748031497,
          "duration": 0.026785687499994992
        },
        {
          "name": "C7",
          "midi": 96,
          "time": 139.14271799999742,
          "velocity": 0.7559055118110236,
          "duration": 0.07142849999999612
        },
        {
          "name": "D7",
          "midi": 98,
          "time": 139.14271799999742,
          "velocity": 0.7559055118110236,
          "duration": 0.07142849999999612
        },
        {
          "name": "C1",
          "midi": 24,
          "time": 139.14271799999742,
          "velocity": 0.7874015748031497,
          "duration": 0.026785687499994992
        },
        {
          "name": "F#1",
          "midi": 30,
          "time": 139.14271799999742,
          "velocity": 0.7874015748031497,
          "duration": 0.026785687499994992
        },
        {
          "name": "D7",
          "midi": 98,
          "time": 139.2855749999974,
          "velocity": 0.7559055118110236,
          "duration": 0.07142849999999612
        },
        {
          "name": "G1",
          "midi": 31,
          "time": 139.2855749999974,
          "velocity": 0.7874015748031497,
          "duration": 0.026785687499994992
        },
        {
          "name": "C7",
          "midi": 96,
          "time": 139.4284319999974,
          "velocity": 0.7559055118110236,
          "duration": 0.07142849999999612
        },
        {
          "name": "D7",
          "midi": 98,
          "time": 139.4284319999974,
          "velocity": 0.7559055118110236,
          "duration": 0.07142849999999612
        },
        {
          "name": "C1",
          "midi": 24,
          "time": 139.4284319999974,
          "velocity": 0.7874015748031497,
          "duration": 0.026785687499994992
        },
        {
          "name": "F#1",
          "midi": 30,
          "time": 139.4284319999974,
          "velocity": 0.7874015748031497,
          "duration": 0.026785687499994992
        },
        {
          "name": "D7",
          "midi": 98,
          "time": 139.5712889999974,
          "velocity": 0.7559055118110236,
          "duration": 0.07142849999999612
        },
        {
          "name": "G1",
          "midi": 31,
          "time": 139.5712889999974,
          "velocity": 0.7874015748031497,
          "duration": 0.026785687499994992
        },
        {
          "name": "C#7",
          "midi": 97,
          "time": 139.71414599999738,
          "velocity": 0.7559055118110236,
          "duration": 0.07142849999999612
        },
        {
          "name": "D1",
          "midi": 26,
          "time": 139.71414599999738,
          "velocity": 0.7874015748031497,
          "duration": 0.026785687499994992
        },
        {
          "name": "D7",
          "midi": 98,
          "time": 139.99985999999737,
          "velocity": 0.7559055118110236,
          "duration": 0.07142849999999612
        },
        {
          "name": "G1",
          "midi": 31,
          "time": 139.99985999999737,
          "velocity": 0.7874015748031497,
          "duration": 0.026785687499994992
        },
        {
          "name": "C7",
          "midi": 96,
          "time": 140.14271699999736,
          "velocity": 0.7559055118110236,
          "duration": 0.07142849999999612
        },
        {
          "name": "D7",
          "midi": 98,
          "time": 140.28557399999735,
          "velocity": 0.7559055118110236,
          "duration": 0.07142849999999612
        },
        {
          "name": "C1",
          "midi": 24,
          "time": 140.28557399999735,
          "velocity": 0.7874015748031497,
          "duration": 0.026785687499994992
        },
        {
          "name": "F#1",
          "midi": 30,
          "time": 140.28557399999735,
          "velocity": 0.7874015748031497,
          "duration": 0.026785687499994992
        },
        {
          "name": "C7",
          "midi": 96,
          "time": 140.42843099999735,
          "velocity": 0.7559055118110236,
          "duration": 0.07142849999999612
        },
        {
          "name": "D7",
          "midi": 98,
          "time": 140.57128799999734,
          "velocity": 0.7559055118110236,
          "duration": 0.07142849999999612
        },
        {
          "name": "C1",
          "midi": 24,
          "time": 140.57128799999734,
          "velocity": 0.7874015748031497,
          "duration": 0.026785687499994992
        },
        {
          "name": "G1",
          "midi": 31,
          "time": 140.57128799999734,
          "velocity": 0.7874015748031497,
          "duration": 0.026785687499994992
        },
        {
          "name": "C7",
          "midi": 96,
          "time": 140.85700199999732,
          "velocity": 0.7559055118110236,
          "duration": 0.07142849999999612
        },
        {
          "name": "D7",
          "midi": 98,
          "time": 140.85700199999732,
          "velocity": 0.7559055118110236,
          "duration": 0.07142849999999612
        },
        {
          "name": "C1",
          "midi": 24,
          "time": 140.85700199999732,
          "velocity": 0.7874015748031497,
          "duration": 0.026785687499994992
        },
        {
          "name": "F#1",
          "midi": 30,
          "time": 140.85700199999732,
          "velocity": 0.7874015748031497,
          "duration": 0.026785687499994992
        },
        {
          "name": "D7",
          "midi": 98,
          "time": 140.99985899999731,
          "velocity": 0.7559055118110236,
          "duration": 0.07142849999999612
        },
        {
          "name": "G1",
          "midi": 31,
          "time": 140.99985899999731,
          "velocity": 0.7874015748031497,
          "duration": 0.026785687499994992
        },
        {
          "name": "C7",
          "midi": 96,
          "time": 141.1427159999973,
          "velocity": 0.7559055118110236,
          "duration": 0.07142849999999612
        },
        {
          "name": "D7",
          "midi": 98,
          "time": 141.1427159999973,
          "velocity": 0.7559055118110236,
          "duration": 0.07142849999999612
        },
        {
          "name": "C1",
          "midi": 24,
          "time": 141.1427159999973,
          "velocity": 0.7874015748031497,
          "duration": 0.026785687499994992
        },
        {
          "name": "F#1",
          "midi": 30,
          "time": 141.1427159999973,
          "velocity": 0.7874015748031497,
          "duration": 0.026785687499994992
        },
        {
          "name": "D7",
          "midi": 98,
          "time": 141.2855729999973,
          "velocity": 0.7559055118110236,
          "duration": 0.07142849999999612
        },
        {
          "name": "G1",
          "midi": 31,
          "time": 141.2855729999973,
          "velocity": 0.7874015748031497,
          "duration": 0.026785687499994992
        },
        {
          "name": "C#7",
          "midi": 97,
          "time": 141.4284299999973,
          "velocity": 0.7559055118110236,
          "duration": 0.07142849999999612
        },
        {
          "name": "D1",
          "midi": 26,
          "time": 141.4284299999973,
          "velocity": 0.7874015748031497,
          "duration": 0.026785687499994992
        },
        {
          "name": "D7",
          "midi": 98,
          "time": 141.71414399999728,
          "velocity": 0.7559055118110236,
          "duration": 0.07142849999999612
        },
        {
          "name": "G1",
          "midi": 31,
          "time": 141.71414399999728,
          "velocity": 0.7874015748031497,
          "duration": 0.026785687499994992
        },
        {
          "name": "C7",
          "midi": 96,
          "time": 141.85700099999727,
          "velocity": 0.7559055118110236,
          "duration": 0.07142849999999612
        },
        {
          "name": "D7",
          "midi": 98,
          "time": 141.99985799999726,
          "velocity": 0.7559055118110236,
          "duration": 0.07142849999999612
        },
        {
          "name": "C1",
          "midi": 24,
          "time": 141.99985799999726,
          "velocity": 0.7874015748031497,
          "duration": 0.026785687499994992
        },
        {
          "name": "F#1",
          "midi": 30,
          "time": 141.99985799999726,
          "velocity": 0.7874015748031497,
          "duration": 0.026785687499994992
        },
        {
          "name": "C7",
          "midi": 96,
          "time": 142.14271499999725,
          "velocity": 0.7559055118110236,
          "duration": 0.07142849999999612
        },
        {
          "name": "D7",
          "midi": 98,
          "time": 142.28557199999725,
          "velocity": 0.7559055118110236,
          "duration": 0.07142849999999612
        },
        {
          "name": "C1",
          "midi": 24,
          "time": 142.28557199999725,
          "velocity": 0.7874015748031497,
          "duration": 0.026785687499994992
        },
        {
          "name": "G1",
          "midi": 31,
          "time": 142.28557199999725,
          "velocity": 0.7874015748031497,
          "duration": 0.026785687499994992
        },
        {
          "name": "C7",
          "midi": 96,
          "time": 142.57128599999723,
          "velocity": 0.7559055118110236,
          "duration": 0.07142849999999612
        },
        {
          "name": "D7",
          "midi": 98,
          "time": 142.57128599999723,
          "velocity": 0.7559055118110236,
          "duration": 0.07142849999999612
        },
        {
          "name": "C1",
          "midi": 24,
          "time": 142.57128599999723,
          "velocity": 0.7874015748031497,
          "duration": 0.026785687499994992
        },
        {
          "name": "F#1",
          "midi": 30,
          "time": 142.57128599999723,
          "velocity": 0.7874015748031497,
          "duration": 0.026785687499994992
        },
        {
          "name": "D7",
          "midi": 98,
          "time": 142.71414299999722,
          "velocity": 0.7559055118110236,
          "duration": 0.07142849999999612
        },
        {
          "name": "G1",
          "midi": 31,
          "time": 142.71414299999722,
          "velocity": 0.7874015748031497,
          "duration": 0.026785687499994992
        },
        {
          "name": "C7",
          "midi": 96,
          "time": 142.8569999999972,
          "velocity": 0.7559055118110236,
          "duration": 0.07142849999999612
        },
        {
          "name": "D7",
          "midi": 98,
          "time": 142.8569999999972,
          "velocity": 0.7559055118110236,
          "duration": 0.07142849999999612
        },
        {
          "name": "C1",
          "midi": 24,
          "time": 142.8569999999972,
          "velocity": 0.7874015748031497,
          "duration": 0.026785687499994992
        },
        {
          "name": "F#1",
          "midi": 30,
          "time": 142.8569999999972,
          "velocity": 0.7874015748031497,
          "duration": 0.026785687499994992
        },
        {
          "name": "D7",
          "midi": 98,
          "time": 142.9998569999972,
          "velocity": 0.7559055118110236,
          "duration": 0.07142849999999612
        },
        {
          "name": "G1",
          "midi": 31,
          "time": 142.9998569999972,
          "velocity": 0.7874015748031497,
          "duration": 0.026785687499994992
        },
        {
          "name": "C#7",
          "midi": 97,
          "time": 143.1427139999972,
          "velocity": 0.7559055118110236,
          "duration": 0.07142849999999612
        },
        {
          "name": "D1",
          "midi": 26,
          "time": 143.1427139999972,
          "velocity": 0.7874015748031497,
          "duration": 0.026785687499994992
        },
        {
          "name": "D7",
          "midi": 98,
          "time": 143.42842799999718,
          "velocity": 0.7559055118110236,
          "duration": 0.07142849999999612
        },
        {
          "name": "G1",
          "midi": 31,
          "time": 143.42842799999718,
          "velocity": 0.7874015748031497,
          "duration": 0.026785687499994992
        },
        {
          "name": "C7",
          "midi": 96,
          "time": 143.57128499999718,
          "velocity": 0.7559055118110236,
          "duration": 0.07142849999999612
        },
        {
          "name": "D7",
          "midi": 98,
          "time": 143.71414199999717,
          "velocity": 0.7559055118110236,
          "duration": 0.07142849999999612
        },
        {
          "name": "C1",
          "midi": 24,
          "time": 143.71414199999717,
          "velocity": 0.7874015748031497,
          "duration": 0.026785687499994992
        },
        {
          "name": "F#1",
          "midi": 30,
          "time": 143.71414199999717,
          "velocity": 0.7874015748031497,
          "duration": 0.026785687499994992
        },
        {
          "name": "C7",
          "midi": 96,
          "time": 143.85699899999716,
          "velocity": 0.7559055118110236,
          "duration": 0.07142849999999612
        },
        {
          "name": "D7",
          "midi": 98,
          "time": 143.99985599999715,
          "velocity": 0.7559055118110236,
          "duration": 0.07142849999999612
        },
        {
          "name": "C1",
          "midi": 24,
          "time": 143.99985599999715,
          "velocity": 0.7874015748031497,
          "duration": 0.026785687499994992
        },
        {
          "name": "G1",
          "midi": 31,
          "time": 143.99985599999715,
          "velocity": 0.7874015748031497,
          "duration": 0.026785687499994992
        },
        {
          "name": "C7",
          "midi": 96,
          "time": 144.28556999999714,
          "velocity": 0.7559055118110236,
          "duration": 0.07142849999999612
        },
        {
          "name": "D7",
          "midi": 98,
          "time": 144.28556999999714,
          "velocity": 0.7559055118110236,
          "duration": 0.07142849999999612
        },
        {
          "name": "C1",
          "midi": 24,
          "time": 144.28556999999714,
          "velocity": 0.7874015748031497,
          "duration": 0.026785687499994992
        },
        {
          "name": "F#1",
          "midi": 30,
          "time": 144.28556999999714,
          "velocity": 0.7874015748031497,
          "duration": 0.026785687499994992
        },
        {
          "name": "D7",
          "midi": 98,
          "time": 144.42842699999713,
          "velocity": 0.7559055118110236,
          "duration": 0.07142849999999612
        },
        {
          "name": "G1",
          "midi": 31,
          "time": 144.42842699999713,
          "velocity": 0.7874015748031497,
          "duration": 0.026785687499994992
        },
        {
          "name": "C7",
          "midi": 96,
          "time": 144.57128399999712,
          "velocity": 0.7559055118110236,
          "duration": 0.07142849999999612
        },
        {
          "name": "D7",
          "midi": 98,
          "time": 144.57128399999712,
          "velocity": 0.7559055118110236,
          "duration": 0.07142849999999612
        },
        {
          "name": "C1",
          "midi": 24,
          "time": 144.57128399999712,
          "velocity": 0.7874015748031497,
          "duration": 0.026785687499994992
        },
        {
          "name": "F#1",
          "midi": 30,
          "time": 144.57128399999712,
          "velocity": 0.7874015748031497,
          "duration": 0.026785687499994992
        },
        {
          "name": "D7",
          "midi": 98,
          "time": 144.7141409999971,
          "velocity": 0.7559055118110236,
          "duration": 0.07142849999999612
        },
        {
          "name": "G1",
          "midi": 31,
          "time": 144.7141409999971,
          "velocity": 0.7874015748031497,
          "duration": 0.026785687499994992
        },
        {
          "name": "C#7",
          "midi": 97,
          "time": 144.8569979999971,
          "velocity": 0.7559055118110236,
          "duration": 0.07142849999999612
        },
        {
          "name": "D1",
          "midi": 26,
          "time": 144.8569979999971,
          "velocity": 0.7874015748031497,
          "duration": 0.026785687499994992
        },
        {
          "name": "D7",
          "midi": 98,
          "time": 145.1427119999971,
          "velocity": 0.7559055118110236,
          "duration": 0.07142849999999612
        },
        {
          "name": "G1",
          "midi": 31,
          "time": 145.1427119999971,
          "velocity": 0.7874015748031497,
          "duration": 0.026785687499994992
        },
        {
          "name": "C7",
          "midi": 96,
          "time": 145.28556899999708,
          "velocity": 0.7559055118110236,
          "duration": 0.07142849999999612
        },
        {
          "name": "D7",
          "midi": 98,
          "time": 145.42842599999707,
          "velocity": 0.7559055118110236,
          "duration": 0.07142849999999612
        },
        {
          "name": "C1",
          "midi": 24,
          "time": 145.42842599999707,
          "velocity": 0.7874015748031497,
          "duration": 0.026785687499994992
        },
        {
          "name": "F#1",
          "midi": 30,
          "time": 145.42842599999707,
          "velocity": 0.7874015748031497,
          "duration": 0.026785687499994992
        },
        {
          "name": "C7",
          "midi": 96,
          "time": 145.57128299999707,
          "velocity": 0.7559055118110236,
          "duration": 0.07142849999999612
        },
        {
          "name": "D7",
          "midi": 98,
          "time": 145.71413999999706,
          "velocity": 0.7559055118110236,
          "duration": 0.07142849999999612
        },
        {
          "name": "C1",
          "midi": 24,
          "time": 145.71413999999706,
          "velocity": 0.7874015748031497,
          "duration": 0.026785687499994992
        },
        {
          "name": "G1",
          "midi": 31,
          "time": 145.71413999999706,
          "velocity": 0.7874015748031497,
          "duration": 0.026785687499994992
        },
        {
          "name": "C7",
          "midi": 96,
          "time": 145.99985399999704,
          "velocity": 0.7559055118110236,
          "duration": 0.07142849999999612
        },
        {
          "name": "D7",
          "midi": 98,
          "time": 145.99985399999704,
          "velocity": 0.7559055118110236,
          "duration": 0.07142849999999612
        },
        {
          "name": "C1",
          "midi": 24,
          "time": 145.99985399999704,
          "velocity": 0.7874015748031497,
          "duration": 0.026785687499994992
        },
        {
          "name": "F#1",
          "midi": 30,
          "time": 145.99985399999704,
          "velocity": 0.7874015748031497,
          "duration": 0.026785687499994992
        },
        {
          "name": "D7",
          "midi": 98,
          "time": 146.14271099999704,
          "velocity": 0.7559055118110236,
          "duration": 0.07142849999999612
        },
        {
          "name": "G1",
          "midi": 31,
          "time": 146.14271099999704,
          "velocity": 0.7874015748031497,
          "duration": 0.026785687499994992
        },
        {
          "name": "C7",
          "midi": 96,
          "time": 146.28556799999703,
          "velocity": 0.7559055118110236,
          "duration": 0.07142849999999612
        },
        {
          "name": "D7",
          "midi": 98,
          "time": 146.28556799999703,
          "velocity": 0.7559055118110236,
          "duration": 0.07142849999999612
        },
        {
          "name": "C1",
          "midi": 24,
          "time": 146.28556799999703,
          "velocity": 0.7874015748031497,
          "duration": 0.026785687499994992
        },
        {
          "name": "F#1",
          "midi": 30,
          "time": 146.28556799999703,
          "velocity": 0.7874015748031497,
          "duration": 0.026785687499994992
        },
        {
          "name": "D7",
          "midi": 98,
          "time": 146.42842499999702,
          "velocity": 0.7559055118110236,
          "duration": 0.07142849999999612
        },
        {
          "name": "G1",
          "midi": 31,
          "time": 146.42842499999702,
          "velocity": 0.7874015748031497,
          "duration": 0.026785687499994992
        },
        {
          "name": "C#7",
          "midi": 97,
          "time": 146.571281999997,
          "velocity": 0.7559055118110236,
          "duration": 0.07142849999999612
        },
        {
          "name": "D1",
          "midi": 26,
          "time": 146.571281999997,
          "velocity": 0.7874015748031497,
          "duration": 0.026785687499994992
        },
        {
          "name": "D7",
          "midi": 98,
          "time": 146.856995999997,
          "velocity": 0.7559055118110236,
          "duration": 0.07142849999999612
        },
        {
          "name": "G1",
          "midi": 31,
          "time": 146.856995999997,
          "velocity": 0.7874015748031497,
          "duration": 0.026785687499994992
        },
        {
          "name": "C7",
          "midi": 96,
          "time": 146.999852999997,
          "velocity": 0.7559055118110236,
          "duration": 0.07142849999999612
        },
        {
          "name": "D7",
          "midi": 98,
          "time": 147.14270999999698,
          "velocity": 0.7559055118110236,
          "duration": 0.07142849999999612
        },
        {
          "name": "C1",
          "midi": 24,
          "time": 147.14270999999698,
          "velocity": 0.7874015748031497,
          "duration": 0.026785687499994992
        },
        {
          "name": "F#1",
          "midi": 30,
          "time": 147.14270999999698,
          "velocity": 0.7874015748031497,
          "duration": 0.026785687499994992
        },
        {
          "name": "C7",
          "midi": 96,
          "time": 147.28556699999697,
          "velocity": 0.7559055118110236,
          "duration": 0.07142849999999612
        },
        {
          "name": "D7",
          "midi": 98,
          "time": 147.42842399999697,
          "velocity": 0.7559055118110236,
          "duration": 0.07142849999999612
        },
        {
          "name": "C1",
          "midi": 24,
          "time": 147.42842399999697,
          "velocity": 0.7874015748031497,
          "duration": 0.026785687499994992
        },
        {
          "name": "G1",
          "midi": 31,
          "time": 147.42842399999697,
          "velocity": 0.7874015748031497,
          "duration": 0.026785687499994992
        },
        {
          "name": "C7",
          "midi": 96,
          "time": 147.71413799999695,
          "velocity": 0.7559055118110236,
          "duration": 0.07142849999999612
        },
        {
          "name": "D7",
          "midi": 98,
          "time": 147.71413799999695,
          "velocity": 0.7559055118110236,
          "duration": 0.07142849999999612
        },
        {
          "name": "C1",
          "midi": 24,
          "time": 147.71413799999695,
          "velocity": 0.7874015748031497,
          "duration": 0.026785687499994992
        },
        {
          "name": "F#1",
          "midi": 30,
          "time": 147.71413799999695,
          "velocity": 0.7874015748031497,
          "duration": 0.026785687499994992
        },
        {
          "name": "D7",
          "midi": 98,
          "time": 147.85699499999694,
          "velocity": 0.7559055118110236,
          "duration": 0.07142849999999612
        },
        {
          "name": "G1",
          "midi": 31,
          "time": 147.85699499999694,
          "velocity": 0.7874015748031497,
          "duration": 0.026785687499994992
        },
        {
          "name": "C7",
          "midi": 96,
          "time": 147.99985199999693,
          "velocity": 0.7559055118110236,
          "duration": 0.07142849999999612
        },
        {
          "name": "D7",
          "midi": 98,
          "time": 147.99985199999693,
          "velocity": 0.7559055118110236,
          "duration": 0.07142849999999612
        },
        {
          "name": "C1",
          "midi": 24,
          "time": 147.99985199999693,
          "velocity": 0.7874015748031497,
          "duration": 0.026785687499994992
        },
        {
          "name": "F#1",
          "midi": 30,
          "time": 147.99985199999693,
          "velocity": 0.7874015748031497,
          "duration": 0.026785687499994992
        },
        {
          "name": "D7",
          "midi": 98,
          "time": 148.14270899999693,
          "velocity": 0.7559055118110236,
          "duration": 0.07142849999999612
        },
        {
          "name": "G1",
          "midi": 31,
          "time": 148.14270899999693,
          "velocity": 0.7874015748031497,
          "duration": 0.026785687499994992
        },
        {
          "name": "C#7",
          "midi": 97,
          "time": 148.28556599999692,
          "velocity": 0.7559055118110236,
          "duration": 0.07142849999999612
        },
        {
          "name": "D1",
          "midi": 26,
          "time": 148.28556599999692,
          "velocity": 0.7874015748031497,
          "duration": 0.026785687499994992
        },
        {
          "name": "D7",
          "midi": 98,
          "time": 148.5712799999969,
          "velocity": 0.7559055118110236,
          "duration": 0.07142849999999612
        },
        {
          "name": "G1",
          "midi": 31,
          "time": 148.5712799999969,
          "velocity": 0.7874015748031497,
          "duration": 0.026785687499994992
        },
        {
          "name": "C7",
          "midi": 96,
          "time": 148.7141369999969,
          "velocity": 0.7559055118110236,
          "duration": 0.07142849999999612
        },
        {
          "name": "D7",
          "midi": 98,
          "time": 148.8569939999969,
          "velocity": 0.7559055118110236,
          "duration": 0.07142849999999612
        },
        {
          "name": "C1",
          "midi": 24,
          "time": 148.8569939999969,
          "velocity": 0.7874015748031497,
          "duration": 0.026785687499994992
        },
        {
          "name": "F#1",
          "midi": 30,
          "time": 148.8569939999969,
          "velocity": 0.7874015748031497,
          "duration": 0.026785687499994992
        },
        {
          "name": "C7",
          "midi": 96,
          "time": 148.99985099999688,
          "velocity": 0.7559055118110236,
          "duration": 0.07142849999999612
        },
        {
          "name": "D7",
          "midi": 98,
          "time": 149.14270799999687,
          "velocity": 0.7559055118110236,
          "duration": 0.07142849999999612
        },
        {
          "name": "C1",
          "midi": 24,
          "time": 149.14270799999687,
          "velocity": 0.7874015748031497,
          "duration": 0.026785687499994992
        },
        {
          "name": "G1",
          "midi": 31,
          "time": 149.14270799999687,
          "velocity": 0.7874015748031497,
          "duration": 0.026785687499994992
        },
        {
          "name": "C7",
          "midi": 96,
          "time": 149.42842199999686,
          "velocity": 0.7559055118110236,
          "duration": 0.07142849999999612
        },
        {
          "name": "D7",
          "midi": 98,
          "time": 149.42842199999686,
          "velocity": 0.7559055118110236,
          "duration": 0.07142849999999612
        },
        {
          "name": "C1",
          "midi": 24,
          "time": 149.42842199999686,
          "velocity": 0.7874015748031497,
          "duration": 0.026785687499994992
        },
        {
          "name": "F#1",
          "midi": 30,
          "time": 149.42842199999686,
          "velocity": 0.7874015748031497,
          "duration": 0.026785687499994992
        },
        {
          "name": "D7",
          "midi": 98,
          "time": 149.57127899999685,
          "velocity": 0.7559055118110236,
          "duration": 0.07142849999999612
        },
        {
          "name": "G1",
          "midi": 31,
          "time": 149.57127899999685,
          "velocity": 0.7874015748031497,
          "duration": 0.026785687499994992
        },
        {
          "name": "C7",
          "midi": 96,
          "time": 149.71413599999684,
          "velocity": 0.7559055118110236,
          "duration": 0.07142849999999612
        },
        {
          "name": "D7",
          "midi": 98,
          "time": 149.71413599999684,
          "velocity": 0.7559055118110236,
          "duration": 0.07142849999999612
        },
        {
          "name": "C1",
          "midi": 24,
          "time": 149.71413599999684,
          "velocity": 0.7874015748031497,
          "duration": 0.026785687499994992
        },
        {
          "name": "F#1",
          "midi": 30,
          "time": 149.71413599999684,
          "velocity": 0.7874015748031497,
          "duration": 0.026785687499994992
        },
        {
          "name": "D7",
          "midi": 98,
          "time": 149.85699299999683,
          "velocity": 0.7559055118110236,
          "duration": 0.07142849999999612
        },
        {
          "name": "G1",
          "midi": 31,
          "time": 149.85699299999683,
          "velocity": 0.7874015748031497,
          "duration": 0.026785687499994992
        },
        {
          "name": "C#7",
          "midi": 97,
          "time": 149.99984999999683,
          "velocity": 0.7559055118110236,
          "duration": 0.07142849999999612
        },
        {
          "name": "D1",
          "midi": 26,
          "time": 149.99984999999683,
          "velocity": 0.7874015748031497,
          "duration": 0.026785687499994992
        },
        {
          "name": "D7",
          "midi": 98,
          "time": 150.2855639999968,
          "velocity": 0.7559055118110236,
          "duration": 0.07142849999999612
        },
        {
          "name": "G1",
          "midi": 31,
          "time": 150.2855639999968,
          "velocity": 0.7874015748031497,
          "duration": 0.026785687499994992
        },
        {
          "name": "C7",
          "midi": 96,
          "time": 150.4284209999968,
          "velocity": 0.7559055118110236,
          "duration": 0.07142849999999612
        },
        {
          "name": "D7",
          "midi": 98,
          "time": 150.5712779999968,
          "velocity": 0.7559055118110236,
          "duration": 0.07142849999999612
        },
        {
          "name": "C1",
          "midi": 24,
          "time": 150.5712779999968,
          "velocity": 0.7874015748031497,
          "duration": 0.026785687499994992
        },
        {
          "name": "F#1",
          "midi": 30,
          "time": 150.5712779999968,
          "velocity": 0.7874015748031497,
          "duration": 0.026785687499994992
        },
        {
          "name": "C7",
          "midi": 96,
          "time": 150.7141349999968,
          "velocity": 0.7559055118110236,
          "duration": 0.07142849999999612
        },
        {
          "name": "C7",
          "midi": 96,
          "time": 150.85699199999678,
          "velocity": 0.7559055118110236,
          "duration": 0.07142849999999612
        },
        {
          "name": "E7",
          "midi": 100,
          "time": 150.85699199999678,
          "velocity": 0.7559055118110236,
          "duration": 0.07142849999999612
        },
        {
          "name": "C1",
          "midi": 24,
          "time": 150.85699199999678,
          "velocity": 0.7874015748031497,
          "duration": 0.026785687499994992
        },
        {
          "name": "C2",
          "midi": 36,
          "time": 150.85699199999678,
          "velocity": 0.7874015748031497,
          "duration": 0.026785687499994992
        },
        {
          "name": "D7",
          "midi": 98,
          "time": 151.14270599999676,
          "velocity": 0.7559055118110236,
          "duration": 0.07142849999999612
        },
        {
          "name": "F#1",
          "midi": 30,
          "time": 151.14270599999676,
          "velocity": 0.7874015748031497,
          "duration": 0.026785687499994992
        },
        {
          "name": "D7",
          "midi": 98,
          "time": 151.42841999999675,
          "velocity": 0.7559055118110236,
          "duration": 0.07142849999999612
        },
        {
          "name": "G1",
          "midi": 31,
          "time": 151.42841999999675,
          "velocity": 0.7874015748031497,
          "duration": 0.026785687499994992
        },
        {
          "name": "C#7",
          "midi": 97,
          "time": 151.71413399999673,
          "velocity": 0.7559055118110236,
          "duration": 0.07142849999999612
        },
        {
          "name": "D7",
          "midi": 98,
          "time": 151.71413399999673,
          "velocity": 0.7559055118110236,
          "duration": 0.07142849999999612
        },
        {
          "name": "G1",
          "midi": 31,
          "time": 151.71413399999673,
          "velocity": 0.7874015748031497,
          "duration": 0.026785687499994992
        },
        {
          "name": "D1",
          "midi": 26,
          "time": 151.71413399999673,
          "velocity": 0.7874015748031497,
          "duration": 0.026785687499994992
        },
        {
          "name": "D7",
          "midi": 98,
          "time": 151.99984799999672,
          "velocity": 0.7559055118110236,
          "duration": 0.07142849999999612
        },
        {
          "name": "G1",
          "midi": 31,
          "time": 151.99984799999672,
          "velocity": 0.7874015748031497,
          "duration": 0.026785687499994992
        },
        {
          "name": "D7",
          "midi": 98,
          "time": 152.2855619999967,
          "velocity": 0.7559055118110236,
          "duration": 0.07142849999999612
        },
        {
          "name": "F#1",
          "midi": 30,
          "time": 152.2855619999967,
          "velocity": 0.7874015748031497,
          "duration": 0.026785687499994992
        },
        {
          "name": "C7",
          "midi": 96,
          "time": 152.5712759999967,
          "velocity": 0.7559055118110236,
          "duration": 0.07142849999999612
        },
        {
          "name": "D7",
          "midi": 98,
          "time": 152.5712759999967,
          "velocity": 0.7559055118110236,
          "duration": 0.07142849999999612
        },
        {
          "name": "C1",
          "midi": 24,
          "time": 152.5712759999967,
          "velocity": 0.7874015748031497,
          "duration": 0.026785687499994992
        },
        {
          "name": "G1",
          "midi": 31,
          "time": 152.5712759999967,
          "velocity": 0.7874015748031497,
          "duration": 0.026785687499994992
        },
        {
          "name": "D7",
          "midi": 98,
          "time": 152.85698999999667,
          "velocity": 0.7559055118110236,
          "duration": 0.07142849999999612
        },
        {
          "name": "F#1",
          "midi": 30,
          "time": 152.85698999999667,
          "velocity": 0.7874015748031497,
          "duration": 0.026785687499994992
        },
        {
          "name": "D7",
          "midi": 98,
          "time": 153.14270399999666,
          "velocity": 0.7559055118110236,
          "duration": 0.07142849999999612
        },
        {
          "name": "G1",
          "midi": 31,
          "time": 153.14270399999666,
          "velocity": 0.7874015748031497,
          "duration": 0.026785687499994992
        },
        {
          "name": "C#7",
          "midi": 97,
          "time": 153.42841799999664,
          "velocity": 0.7559055118110236,
          "duration": 0.07142849999999612
        },
        {
          "name": "D7",
          "midi": 98,
          "time": 153.42841799999664,
          "velocity": 0.7559055118110236,
          "duration": 0.07142849999999612
        },
        {
          "name": "G1",
          "midi": 31,
          "time": 153.42841799999664,
          "velocity": 0.7874015748031497,
          "duration": 0.026785687499994992
        },
        {
          "name": "D1",
          "midi": 26,
          "time": 153.42841799999664,
          "velocity": 0.7874015748031497,
          "duration": 0.026785687499994992
        },
        {
          "name": "D7",
          "midi": 98,
          "time": 153.71413199999662,
          "velocity": 0.7559055118110236,
          "duration": 0.07142849999999612
        },
        {
          "name": "G1",
          "midi": 31,
          "time": 153.71413199999662,
          "velocity": 0.7874015748031497,
          "duration": 0.026785687499994992
        },
        {
          "name": "D7",
          "midi": 98,
          "time": 153.9998459999966,
          "velocity": 0.7559055118110236,
          "duration": 0.07142849999999612
        },
        {
          "name": "F#1",
          "midi": 30,
          "time": 153.9998459999966,
          "velocity": 0.7874015748031497,
          "duration": 0.026785687499994992
        },
        {
          "name": "C7",
          "midi": 96,
          "time": 154.2855599999966,
          "velocity": 0.7559055118110236,
          "duration": 0.07142849999999612
        },
        {
          "name": "E7",
          "midi": 100,
          "time": 154.2855599999966,
          "velocity": 0.7559055118110236,
          "duration": 0.07142849999999612
        },
        {
          "name": "C1",
          "midi": 24,
          "time": 154.2855599999966,
          "velocity": 0.7874015748031497,
          "duration": 0.026785687499994992
        },
        {
          "name": "C2",
          "midi": 36,
          "time": 154.2855599999966,
          "velocity": 0.7874015748031497,
          "duration": 0.026785687499994992
        },
        {
          "name": "D7",
          "midi": 98,
          "time": 154.57127399999658,
          "velocity": 0.7559055118110236,
          "duration": 0.07142849999999612
        },
        {
          "name": "F#1",
          "midi": 30,
          "time": 154.57127399999658,
          "velocity": 0.7874015748031497,
          "duration": 0.026785687499994992
        },
        {
          "name": "D7",
          "midi": 98,
          "time": 154.85698799999656,
          "velocity": 0.7559055118110236,
          "duration": 0.07142849999999612
        },
        {
          "name": "G1",
          "midi": 31,
          "time": 154.85698799999656,
          "velocity": 0.7874015748031497,
          "duration": 0.026785687499994992
        },
        {
          "name": "C#7",
          "midi": 97,
          "time": 155.14270199999655,
          "velocity": 0.7559055118110236,
          "duration": 0.07142849999999612
        },
        {
          "name": "D7",
          "midi": 98,
          "time": 155.14270199999655,
          "velocity": 0.7559055118110236,
          "duration": 0.07142849999999612
        },
        {
          "name": "G1",
          "midi": 31,
          "time": 155.14270199999655,
          "velocity": 0.7874015748031497,
          "duration": 0.026785687499994992
        },
        {
          "name": "D1",
          "midi": 26,
          "time": 155.14270199999655,
          "velocity": 0.7874015748031497,
          "duration": 0.026785687499994992
        },
        {
          "name": "D7",
          "midi": 98,
          "time": 155.42841599999653,
          "velocity": 0.7559055118110236,
          "duration": 0.07142849999999612
        },
        {
          "name": "G1",
          "midi": 31,
          "time": 155.42841599999653,
          "velocity": 0.7874015748031497,
          "duration": 0.026785687499994992
        },
        {
          "name": "D7",
          "midi": 98,
          "time": 155.71412999999652,
          "velocity": 0.7559055118110236,
          "duration": 0.07142849999999612
        },
        {
          "name": "F#1",
          "midi": 30,
          "time": 155.71412999999652,
          "velocity": 0.7874015748031497,
          "duration": 0.026785687499994992
        },
        {
          "name": "C7",
          "midi": 96,
          "time": 155.9998439999965,
          "velocity": 0.7559055118110236,
          "duration": 0.07142849999999612
        },
        {
          "name": "D7",
          "midi": 98,
          "time": 155.9998439999965,
          "velocity": 0.7559055118110236,
          "duration": 0.07142849999999612
        },
        {
          "name": "C1",
          "midi": 24,
          "time": 155.9998439999965,
          "velocity": 0.7874015748031497,
          "duration": 0.026785687499994992
        },
        {
          "name": "G1",
          "midi": 31,
          "time": 155.9998439999965,
          "velocity": 0.7874015748031497,
          "duration": 0.026785687499994992
        },
        {
          "name": "D7",
          "midi": 98,
          "time": 156.28555799999648,
          "velocity": 0.7559055118110236,
          "duration": 0.07142849999999612
        },
        {
          "name": "F#1",
          "midi": 30,
          "time": 156.28555799999648,
          "velocity": 0.7874015748031497,
          "duration": 0.026785687499994992
        },
        {
          "name": "D7",
          "midi": 98,
          "time": 156.57127199999647,
          "velocity": 0.7559055118110236,
          "duration": 0.07142849999999612
        },
        {
          "name": "G1",
          "midi": 31,
          "time": 156.57127199999647,
          "velocity": 0.7874015748031497,
          "duration": 0.026785687499994992
        },
        {
          "name": "C#7",
          "midi": 97,
          "time": 156.85698599999645,
          "velocity": 0.7559055118110236,
          "duration": 0.07142849999999612
        },
        {
          "name": "D7",
          "midi": 98,
          "time": 156.85698599999645,
          "velocity": 0.7559055118110236,
          "duration": 0.07142849999999612
        },
        {
          "name": "G1",
          "midi": 31,
          "time": 156.85698599999645,
          "velocity": 0.7874015748031497,
          "duration": 0.026785687499994992
        },
        {
          "name": "D1",
          "midi": 26,
          "time": 156.85698599999645,
          "velocity": 0.7874015748031497,
          "duration": 0.026785687499994992
        },
        {
          "name": "D7",
          "midi": 98,
          "time": 157.14269999999644,
          "velocity": 0.7559055118110236,
          "duration": 0.07142849999999612
        },
        {
          "name": "G1",
          "midi": 31,
          "time": 157.14269999999644,
          "velocity": 0.7874015748031497,
          "duration": 0.026785687499994992
        },
        {
          "name": "D7",
          "midi": 98,
          "time": 157.42841399999642,
          "velocity": 0.7559055118110236,
          "duration": 0.07142849999999612
        },
        {
          "name": "F#1",
          "midi": 30,
          "time": 157.42841399999642,
          "velocity": 0.7874015748031497,
          "duration": 0.026785687499994992
        },
        {
          "name": "C7",
          "midi": 96,
          "time": 157.7141279999964,
          "velocity": 0.7559055118110236,
          "duration": 0.07142849999999612
        },
        {
          "name": "E7",
          "midi": 100,
          "time": 157.7141279999964,
          "velocity": 0.7559055118110236,
          "duration": 0.07142849999999612
        },
        {
          "name": "C1",
          "midi": 24,
          "time": 157.7141279999964,
          "velocity": 0.7874015748031497,
          "duration": 0.026785687499994992
        },
        {
          "name": "C2",
          "midi": 36,
          "time": 157.7141279999964,
          "velocity": 0.7874015748031497,
          "duration": 0.026785687499994992
        },
        {
          "name": "D7",
          "midi": 98,
          "time": 157.9998419999964,
          "velocity": 0.7559055118110236,
          "duration": 0.07142849999999612
        },
        {
          "name": "F#1",
          "midi": 30,
          "time": 157.9998419999964,
          "velocity": 0.7874015748031497,
          "duration": 0.026785687499994992
        },
        {
          "name": "D7",
          "midi": 98,
          "time": 158.28555599999638,
          "velocity": 0.7559055118110236,
          "duration": 0.07142849999999612
        },
        {
          "name": "G1",
          "midi": 31,
          "time": 158.28555599999638,
          "velocity": 0.7874015748031497,
          "duration": 0.026785687499994992
        },
        {
          "name": "C#7",
          "midi": 97,
          "time": 158.57126999999636,
          "velocity": 0.7559055118110236,
          "duration": 0.07142849999999612
        },
        {
          "name": "D7",
          "midi": 98,
          "time": 158.57126999999636,
          "velocity": 0.7559055118110236,
          "duration": 0.07142849999999612
        },
        {
          "name": "G1",
          "midi": 31,
          "time": 158.57126999999636,
          "velocity": 0.7874015748031497,
          "duration": 0.026785687499994992
        },
        {
          "name": "D1",
          "midi": 26,
          "time": 158.57126999999636,
          "velocity": 0.7874015748031497,
          "duration": 0.026785687499994992
        },
        {
          "name": "D7",
          "midi": 98,
          "time": 158.85698399999634,
          "velocity": 0.7559055118110236,
          "duration": 0.07142849999999612
        },
        {
          "name": "G1",
          "midi": 31,
          "time": 158.85698399999634,
          "velocity": 0.7874015748031497,
          "duration": 0.026785687499994992
        },
        {
          "name": "D7",
          "midi": 98,
          "time": 159.14269799999633,
          "velocity": 0.7559055118110236,
          "duration": 0.07142849999999612
        },
        {
          "name": "F#1",
          "midi": 30,
          "time": 159.14269799999633,
          "velocity": 0.7874015748031497,
          "duration": 0.026785687499994992
        },
        {
          "name": "C7",
          "midi": 96,
          "time": 159.4284119999963,
          "velocity": 0.7559055118110236,
          "duration": 0.07142849999999612
        },
        {
          "name": "D7",
          "midi": 98,
          "time": 159.4284119999963,
          "velocity": 0.7559055118110236,
          "duration": 0.07142849999999612
        },
        {
          "name": "C1",
          "midi": 24,
          "time": 159.4284119999963,
          "velocity": 0.7874015748031497,
          "duration": 0.026785687499994992
        },
        {
          "name": "G1",
          "midi": 31,
          "time": 159.4284119999963,
          "velocity": 0.7874015748031497,
          "duration": 0.026785687499994992
        },
        {
          "name": "D7",
          "midi": 98,
          "time": 159.7141259999963,
          "velocity": 0.7559055118110236,
          "duration": 0.07142849999999612
        },
        {
          "name": "F#1",
          "midi": 30,
          "time": 159.7141259999963,
          "velocity": 0.7874015748031497,
          "duration": 0.026785687499994992
        },
        {
          "name": "D7",
          "midi": 98,
          "time": 159.99983999999628,
          "velocity": 0.7559055118110236,
          "duration": 0.07142849999999612
        },
        {
          "name": "G1",
          "midi": 31,
          "time": 159.99983999999628,
          "velocity": 0.7874015748031497,
          "duration": 0.026785687499994992
        },
        {
          "name": "C#7",
          "midi": 97,
          "time": 160.28555399999627,
          "velocity": 0.7559055118110236,
          "duration": 0.07142849999999612
        },
        {
          "name": "D7",
          "midi": 98,
          "time": 160.28555399999627,
          "velocity": 0.7559055118110236,
          "duration": 0.07142849999999612
        },
        {
          "name": "G1",
          "midi": 31,
          "time": 160.28555399999627,
          "velocity": 0.7874015748031497,
          "duration": 0.026785687499994992
        },
        {
          "name": "D1",
          "midi": 26,
          "time": 160.28555399999627,
          "velocity": 0.7874015748031497,
          "duration": 0.026785687499994992
        },
        {
          "name": "D7",
          "midi": 98,
          "time": 160.57126799999625,
          "velocity": 0.7559055118110236,
          "duration": 0.07142849999999612
        },
        {
          "name": "G1",
          "midi": 31,
          "time": 160.57126799999625,
          "velocity": 0.7874015748031497,
          "duration": 0.026785687499994992
        },
        {
          "name": "D7",
          "midi": 98,
          "time": 160.85698199999624,
          "velocity": 0.7559055118110236,
          "duration": 0.07142849999999612
        },
        {
          "name": "F#1",
          "midi": 30,
          "time": 160.85698199999624,
          "velocity": 0.7874015748031497,
          "duration": 0.026785687499994992
        },
        {
          "name": "C7",
          "midi": 96,
          "time": 161.14269599999622,
          "velocity": 0.7559055118110236,
          "duration": 0.07142849999999612
        },
        {
          "name": "E7",
          "midi": 100,
          "time": 161.14269599999622,
          "velocity": 0.7559055118110236,
          "duration": 0.07142849999999612
        },
        {
          "name": "C1",
          "midi": 24,
          "time": 161.14269599999622,
          "velocity": 0.7874015748031497,
          "duration": 0.026785687499994992
        },
        {
          "name": "C2",
          "midi": 36,
          "time": 161.14269599999622,
          "velocity": 0.7874015748031497,
          "duration": 0.026785687499994992
        },
        {
          "name": "D7",
          "midi": 98,
          "time": 161.4284099999962,
          "velocity": 0.7559055118110236,
          "duration": 0.07142849999999612
        },
        {
          "name": "F#1",
          "midi": 30,
          "time": 161.4284099999962,
          "velocity": 0.7874015748031497,
          "duration": 0.026785687499994992
        },
        {
          "name": "D7",
          "midi": 98,
          "time": 161.7141239999962,
          "velocity": 0.7559055118110236,
          "duration": 0.07142849999999612
        },
        {
          "name": "G1",
          "midi": 31,
          "time": 161.7141239999962,
          "velocity": 0.7874015748031497,
          "duration": 0.026785687499994992
        },
        {
          "name": "C#7",
          "midi": 97,
          "time": 161.99983799999617,
          "velocity": 0.7559055118110236,
          "duration": 0.07142849999999612
        },
        {
          "name": "D7",
          "midi": 98,
          "time": 161.99983799999617,
          "velocity": 0.7559055118110236,
          "duration": 0.07142849999999612
        },
        {
          "name": "G1",
          "midi": 31,
          "time": 161.99983799999617,
          "velocity": 0.7874015748031497,
          "duration": 0.026785687499994992
        },
        {
          "name": "D1",
          "midi": 26,
          "time": 161.99983799999617,
          "velocity": 0.7874015748031497,
          "duration": 0.026785687499994992
        },
        {
          "name": "D7",
          "midi": 98,
          "time": 162.28555199999616,
          "velocity": 0.7559055118110236,
          "duration": 0.07142849999999612
        },
        {
          "name": "G1",
          "midi": 31,
          "time": 162.28555199999616,
          "velocity": 0.7874015748031497,
          "duration": 0.026785687499994992
        },
        {
          "name": "D7",
          "midi": 98,
          "time": 162.57126599999614,
          "velocity": 0.7559055118110236,
          "duration": 0.07142849999999612
        },
        {
          "name": "F#1",
          "midi": 30,
          "time": 162.57126599999614,
          "velocity": 0.7874015748031497,
          "duration": 0.026785687499994992
        },
        {
          "name": "C7",
          "midi": 96,
          "time": 162.85697999999613,
          "velocity": 0.7559055118110236,
          "duration": 0.07142849999999612
        },
        {
          "name": "D7",
          "midi": 98,
          "time": 162.85697999999613,
          "velocity": 0.7559055118110236,
          "duration": 0.07142849999999612
        },
        {
          "name": "C1",
          "midi": 24,
          "time": 162.85697999999613,
          "velocity": 0.7874015748031497,
          "duration": 0.026785687499994992
        },
        {
          "name": "G1",
          "midi": 31,
          "time": 162.85697999999613,
          "velocity": 0.7874015748031497,
          "duration": 0.026785687499994992
        },
        {
          "name": "D7",
          "midi": 98,
          "time": 163.07126549999612,
          "velocity": 0.7559055118110236,
          "duration": 0.07142849999999612
        },
        {
          "name": "F#1",
          "midi": 30,
          "time": 163.07126549999612,
          "velocity": 0.7874015748031497,
          "duration": 0.026785687499994992
        },
        {
          "name": "D7",
          "midi": 98,
          "time": 163.1426939999961,
          "velocity": 0.7559055118110236,
          "duration": 0.07142849999999612
        },
        {
          "name": "G1",
          "midi": 31,
          "time": 163.1426939999961,
          "velocity": 0.7874015748031497,
          "duration": 0.026785687499994992
        },
        {
          "name": "D7",
          "midi": 98,
          "time": 163.2141224999961,
          "velocity": 0.7559055118110236,
          "duration": 0.07142849999999612
        },
        {
          "name": "F#1",
          "midi": 30,
          "time": 163.2141224999961,
          "velocity": 0.7874015748031497,
          "duration": 0.026785687499994992
        },
        {
          "name": "D7",
          "midi": 98,
          "time": 163.3569794999961,
          "velocity": 0.7559055118110236,
          "duration": 0.07142849999999612
        },
        {
          "name": "G1",
          "midi": 31,
          "time": 163.3569794999961,
          "velocity": 0.7874015748031497,
          "duration": 0.026785687499994992
        },
        {
          "name": "D7",
          "midi": 98,
          "time": 163.4284079999961,
          "velocity": 0.7559055118110236,
          "duration": 0.07142849999999612
        },
        {
          "name": "F#1",
          "midi": 30,
          "time": 163.4284079999961,
          "velocity": 0.7874015748031497,
          "duration": 0.026785687499994992
        },
        {
          "name": "D7",
          "midi": 98,
          "time": 163.4998364999961,
          "velocity": 0.7559055118110236,
          "duration": 0.07142849999999612
        },
        {
          "name": "G1",
          "midi": 31,
          "time": 163.4998364999961,
          "velocity": 0.7874015748031497,
          "duration": 0.026785687499994992
        },
        {
          "name": "C#7",
          "midi": 97,
          "time": 163.71412199999608,
          "velocity": 0.7559055118110236,
          "duration": 0.07142849999999612
        },
        {
          "name": "D7",
          "midi": 98,
          "time": 163.71412199999608,
          "velocity": 0.7559055118110236,
          "duration": 0.07142849999999612
        },
        {
          "name": "G1",
          "midi": 31,
          "time": 163.71412199999608,
          "velocity": 0.7874015748031497,
          "duration": 0.026785687499994992
        },
        {
          "name": "D1",
          "midi": 26,
          "time": 163.71412199999608,
          "velocity": 0.7874015748031497,
          "duration": 0.026785687499994992
        },
        {
          "name": "D7",
          "midi": 98,
          "time": 163.99983599999607,
          "velocity": 0.7559055118110236,
          "duration": 0.07142849999999612
        },
        {
          "name": "G1",
          "midi": 31,
          "time": 163.99983599999607,
          "velocity": 0.7874015748031497,
          "duration": 0.026785687499994992
        },
        {
          "name": "D7",
          "midi": 98,
          "time": 164.28554999999605,
          "velocity": 0.7559055118110236,
          "duration": 0.07142849999999612
        },
        {
          "name": "F#1",
          "midi": 30,
          "time": 164.28554999999605,
          "velocity": 0.7874015748031497,
          "duration": 0.026785687499994992
        },
        {
          "name": "C7",
          "midi": 96,
          "time": 164.57126399999603,
          "velocity": 0.7559055118110236,
          "duration": 0.07142849999999612
        },
        {
          "name": "E7",
          "midi": 100,
          "time": 164.57126399999603,
          "velocity": 0.7559055118110236,
          "duration": 0.07142849999999612
        },
        {
          "name": "C1",
          "midi": 24,
          "time": 164.57126399999603,
          "velocity": 0.7874015748031497,
          "duration": 0.026785687499994992
        },
        {
          "name": "C2",
          "midi": 36,
          "time": 164.57126399999603,
          "velocity": 0.7874015748031497,
          "duration": 0.026785687499994992
        },
        {
          "name": "D7",
          "midi": 98,
          "time": 164.85697799999602,
          "velocity": 0.7559055118110236,
          "duration": 0.07142849999999612
        },
        {
          "name": "F#1",
          "midi": 30,
          "time": 164.85697799999602,
          "velocity": 0.7874015748031497,
          "duration": 0.026785687499994992
        },
        {
          "name": "D7",
          "midi": 98,
          "time": 165.142691999996,
          "velocity": 0.7559055118110236,
          "duration": 0.07142849999999612
        },
        {
          "name": "G1",
          "midi": 31,
          "time": 165.142691999996,
          "velocity": 0.7874015748031497,
          "duration": 0.026785687499994992
        },
        {
          "name": "C#7",
          "midi": 97,
          "time": 165.428405999996,
          "velocity": 0.7559055118110236,
          "duration": 0.07142849999999612
        },
        {
          "name": "D7",
          "midi": 98,
          "time": 165.428405999996,
          "velocity": 0.7559055118110236,
          "duration": 0.07142849999999612
        },
        {
          "name": "G1",
          "midi": 31,
          "time": 165.428405999996,
          "velocity": 0.7874015748031497,
          "duration": 0.026785687499994992
        },
        {
          "name": "D1",
          "midi": 26,
          "time": 165.428405999996,
          "velocity": 0.7874015748031497,
          "duration": 0.026785687499994992
        },
        {
          "name": "D7",
          "midi": 98,
          "time": 165.71411999999597,
          "velocity": 0.7559055118110236,
          "duration": 0.07142849999999612
        },
        {
          "name": "G1",
          "midi": 31,
          "time": 165.71411999999597,
          "velocity": 0.7874015748031497,
          "duration": 0.026785687499994992
        },
        {
          "name": "D7",
          "midi": 98,
          "time": 165.99983399999596,
          "velocity": 0.7559055118110236,
          "duration": 0.07142849999999612
        },
        {
          "name": "F#1",
          "midi": 30,
          "time": 165.99983399999596,
          "velocity": 0.7874015748031497,
          "duration": 0.026785687499994992
        },
        {
          "name": "C7",
          "midi": 96,
          "time": 166.28554799999594,
          "velocity": 0.7559055118110236,
          "duration": 0.07142849999999612
        },
        {
          "name": "D7",
          "midi": 98,
          "time": 166.28554799999594,
          "velocity": 0.7559055118110236,
          "duration": 0.07142849999999612
        },
        {
          "name": "C1",
          "midi": 24,
          "time": 166.28554799999594,
          "velocity": 0.7874015748031497,
          "duration": 0.026785687499994992
        },
        {
          "name": "G1",
          "midi": 31,
          "time": 166.28554799999594,
          "velocity": 0.7874015748031497,
          "duration": 0.026785687499994992
        },
        {
          "name": "D7",
          "midi": 98,
          "time": 166.57126199999593,
          "velocity": 0.7559055118110236,
          "duration": 0.07142849999999612
        },
        {
          "name": "F#1",
          "midi": 30,
          "time": 166.57126199999593,
          "velocity": 0.7874015748031497,
          "duration": 0.026785687499994992
        },
        {
          "name": "D7",
          "midi": 98,
          "time": 166.8569759999959,
          "velocity": 0.7559055118110236,
          "duration": 0.07142849999999612
        },
        {
          "name": "G1",
          "midi": 31,
          "time": 166.8569759999959,
          "velocity": 0.7874015748031497,
          "duration": 0.026785687499994992
        },
        {
          "name": "C#7",
          "midi": 97,
          "time": 167.1426899999959,
          "velocity": 0.7559055118110236,
          "duration": 0.07142849999999612
        },
        {
          "name": "D7",
          "midi": 98,
          "time": 167.1426899999959,
          "velocity": 0.7559055118110236,
          "duration": 0.07142849999999612
        },
        {
          "name": "G1",
          "midi": 31,
          "time": 167.1426899999959,
          "velocity": 0.7874015748031497,
          "duration": 0.026785687499994992
        },
        {
          "name": "D1",
          "midi": 26,
          "time": 167.1426899999959,
          "velocity": 0.7874015748031497,
          "duration": 0.026785687499994992
        },
        {
          "name": "D7",
          "midi": 98,
          "time": 167.42840399999588,
          "velocity": 0.7559055118110236,
          "duration": 0.07142849999999612
        },
        {
          "name": "G1",
          "midi": 31,
          "time": 167.42840399999588,
          "velocity": 0.7874015748031497,
          "duration": 0.026785687499994992
        },
        {
          "name": "D7",
          "midi": 98,
          "time": 167.71411799999586,
          "velocity": 0.7559055118110236,
          "duration": 0.07142849999999612
        },
        {
          "name": "F#1",
          "midi": 30,
          "time": 167.71411799999586,
          "velocity": 0.7874015748031497,
          "duration": 0.026785687499994992
        },
        {
          "name": "C7",
          "midi": 96,
          "time": 167.99983199999585,
          "velocity": 0.7559055118110236,
          "duration": 0.07142849999999612
        },
        {
          "name": "E7",
          "midi": 100,
          "time": 167.99983199999585,
          "velocity": 0.7559055118110236,
          "duration": 0.07142849999999612
        },
        {
          "name": "C1",
          "midi": 24,
          "time": 167.99983199999585,
          "velocity": 0.7874015748031497,
          "duration": 0.026785687499994992
        },
        {
          "name": "C2",
          "midi": 36,
          "time": 167.99983199999585,
          "velocity": 0.7874015748031497,
          "duration": 0.026785687499994992
        },
        {
          "name": "D7",
          "midi": 98,
          "time": 168.28554599999583,
          "velocity": 0.7559055118110236,
          "duration": 0.07142849999999612
        },
        {
          "name": "F#1",
          "midi": 30,
          "time": 168.28554599999583,
          "velocity": 0.7874015748031497,
          "duration": 0.026785687499994992
        },
        {
          "name": "D7",
          "midi": 98,
          "time": 168.57125999999582,
          "velocity": 0.7559055118110236,
          "duration": 0.07142849999999612
        },
        {
          "name": "G1",
          "midi": 31,
          "time": 168.57125999999582,
          "velocity": 0.7874015748031497,
          "duration": 0.026785687499994992
        },
        {
          "name": "C#7",
          "midi": 97,
          "time": 168.8569739999958,
          "velocity": 0.7559055118110236,
          "duration": 0.07142849999999612
        },
        {
          "name": "D7",
          "midi": 98,
          "time": 168.8569739999958,
          "velocity": 0.7559055118110236,
          "duration": 0.07142849999999612
        },
        {
          "name": "G1",
          "midi": 31,
          "time": 168.8569739999958,
          "velocity": 0.7874015748031497,
          "duration": 0.026785687499994992
        },
        {
          "name": "D1",
          "midi": 26,
          "time": 168.8569739999958,
          "velocity": 0.7874015748031497,
          "duration": 0.026785687499994992
        },
        {
          "name": "D7",
          "midi": 98,
          "time": 169.1426879999958,
          "velocity": 0.7559055118110236,
          "duration": 0.07142849999999612
        },
        {
          "name": "G1",
          "midi": 31,
          "time": 169.1426879999958,
          "velocity": 0.7874015748031497,
          "duration": 0.026785687499994992
        },
        {
          "name": "D7",
          "midi": 98,
          "time": 169.42840199999577,
          "velocity": 0.7559055118110236,
          "duration": 0.07142849999999612
        },
        {
          "name": "F#1",
          "midi": 30,
          "time": 169.42840199999577,
          "velocity": 0.7874015748031497,
          "duration": 0.026785687499994992
        },
        {
          "name": "C7",
          "midi": 96,
          "time": 169.71411599999576,
          "velocity": 0.7559055118110236,
          "duration": 0.07142849999999612
        },
        {
          "name": "D7",
          "midi": 98,
          "time": 169.71411599999576,
          "velocity": 0.7559055118110236,
          "duration": 0.07142849999999612
        },
        {
          "name": "C1",
          "midi": 24,
          "time": 169.71411599999576,
          "velocity": 0.7874015748031497,
          "duration": 0.026785687499994992
        },
        {
          "name": "G1",
          "midi": 31,
          "time": 169.71411599999576,
          "velocity": 0.7874015748031497,
          "duration": 0.026785687499994992
        },
        {
          "name": "D7",
          "midi": 98,
          "time": 169.99982999999574,
          "velocity": 0.7559055118110236,
          "duration": 0.07142849999999612
        },
        {
          "name": "F#1",
          "midi": 30,
          "time": 169.99982999999574,
          "velocity": 0.7874015748031497,
          "duration": 0.026785687499994992
        },
        {
          "name": "D7",
          "midi": 98,
          "time": 170.28554399999572,
          "velocity": 0.7559055118110236,
          "duration": 0.07142849999999612
        },
        {
          "name": "G1",
          "midi": 31,
          "time": 170.28554399999572,
          "velocity": 0.7874015748031497,
          "duration": 0.026785687499994992
        },
        {
          "name": "C#7",
          "midi": 97,
          "time": 170.5712579999957,
          "velocity": 0.7559055118110236,
          "duration": 0.07142849999999612
        },
        {
          "name": "D7",
          "midi": 98,
          "time": 170.5712579999957,
          "velocity": 0.7559055118110236,
          "duration": 0.07142849999999612
        },
        {
          "name": "G1",
          "midi": 31,
          "time": 170.5712579999957,
          "velocity": 0.7874015748031497,
          "duration": 0.026785687499994992
        },
        {
          "name": "D1",
          "midi": 26,
          "time": 170.5712579999957,
          "velocity": 0.7874015748031497,
          "duration": 0.026785687499994992
        },
        {
          "name": "D7",
          "midi": 98,
          "time": 170.8569719999957,
          "velocity": 0.7559055118110236,
          "duration": 0.07142849999999612
        },
        {
          "name": "G1",
          "midi": 31,
          "time": 170.8569719999957,
          "velocity": 0.7874015748031497,
          "duration": 0.026785687499994992
        },
        {
          "name": "D7",
          "midi": 98,
          "time": 171.14268599999568,
          "velocity": 0.7559055118110236,
          "duration": 0.07142849999999612
        },
        {
          "name": "F#1",
          "midi": 30,
          "time": 171.14268599999568,
          "velocity": 0.7874015748031497,
          "duration": 0.026785687499994992
        },
        {
          "name": "C7",
          "midi": 96,
          "time": 171.42839999999566,
          "velocity": 0.7559055118110236,
          "duration": 0.07142849999999612
        },
        {
          "name": "E7",
          "midi": 100,
          "time": 171.42839999999566,
          "velocity": 0.7559055118110236,
          "duration": 0.07142849999999612
        },
        {
          "name": "C1",
          "midi": 24,
          "time": 171.42839999999566,
          "velocity": 0.7874015748031497,
          "duration": 0.026785687499994992
        },
        {
          "name": "C2",
          "midi": 36,
          "time": 171.42839999999566,
          "velocity": 0.7874015748031497,
          "duration": 0.026785687499994992
        },
        {
          "name": "D7",
          "midi": 98,
          "time": 171.71411399999565,
          "velocity": 0.7559055118110236,
          "duration": 0.07142849999999612
        },
        {
          "name": "F#1",
          "midi": 30,
          "time": 171.71411399999565,
          "velocity": 0.7874015748031497,
          "duration": 0.026785687499994992
        },
        {
          "name": "D7",
          "midi": 98,
          "time": 171.99982799999563,
          "velocity": 0.7559055118110236,
          "duration": 0.07142849999999612
        },
        {
          "name": "G1",
          "midi": 31,
          "time": 171.99982799999563,
          "velocity": 0.7874015748031497,
          "duration": 0.026785687499994992
        },
        {
          "name": "C#7",
          "midi": 97,
          "time": 172.28554199999562,
          "velocity": 0.7559055118110236,
          "duration": 0.07142849999999612
        },
        {
          "name": "D7",
          "midi": 98,
          "time": 172.28554199999562,
          "velocity": 0.7559055118110236,
          "duration": 0.07142849999999612
        },
        {
          "name": "G1",
          "midi": 31,
          "time": 172.28554199999562,
          "velocity": 0.7874015748031497,
          "duration": 0.026785687499994992
        },
        {
          "name": "D1",
          "midi": 26,
          "time": 172.28554199999562,
          "velocity": 0.7874015748031497,
          "duration": 0.026785687499994992
        },
        {
          "name": "D7",
          "midi": 98,
          "time": 172.5712559999956,
          "velocity": 0.7559055118110236,
          "duration": 0.07142849999999612
        },
        {
          "name": "G1",
          "midi": 31,
          "time": 172.5712559999956,
          "velocity": 0.7874015748031497,
          "duration": 0.026785687499994992
        },
        {
          "name": "D7",
          "midi": 98,
          "time": 172.85696999999558,
          "velocity": 0.7559055118110236,
          "duration": 0.07142849999999612
        },
        {
          "name": "F#1",
          "midi": 30,
          "time": 172.85696999999558,
          "velocity": 0.7874015748031497,
          "duration": 0.026785687499994992
        },
        {
          "name": "C7",
          "midi": 96,
          "time": 173.14268399999557,
          "velocity": 0.7559055118110236,
          "duration": 0.07142849999999612
        },
        {
          "name": "D7",
          "midi": 98,
          "time": 173.14268399999557,
          "velocity": 0.7559055118110236,
          "duration": 0.07142849999999612
        },
        {
          "name": "C1",
          "midi": 24,
          "time": 173.14268399999557,
          "velocity": 0.7874015748031497,
          "duration": 0.026785687499994992
        },
        {
          "name": "G1",
          "midi": 31,
          "time": 173.14268399999557,
          "velocity": 0.7874015748031497,
          "duration": 0.026785687499994992
        },
        {
          "name": "D7",
          "midi": 98,
          "time": 173.42839799999555,
          "velocity": 0.7559055118110236,
          "duration": 0.07142849999999612
        },
        {
          "name": "F#1",
          "midi": 30,
          "time": 173.42839799999555,
          "velocity": 0.7874015748031497,
          "duration": 0.026785687499994992
        },
        {
          "name": "D7",
          "midi": 98,
          "time": 173.71411199999554,
          "velocity": 0.7559055118110236,
          "duration": 0.07142849999999612
        },
        {
          "name": "G1",
          "midi": 31,
          "time": 173.71411199999554,
          "velocity": 0.7874015748031497,
          "duration": 0.026785687499994992
        },
        {
          "name": "C#7",
          "midi": 97,
          "time": 173.99982599999552,
          "velocity": 0.7559055118110236,
          "duration": 0.07142849999999612
        },
        {
          "name": "D7",
          "midi": 98,
          "time": 173.99982599999552,
          "velocity": 0.7559055118110236,
          "duration": 0.07142849999999612
        },
        {
          "name": "G1",
          "midi": 31,
          "time": 173.99982599999552,
          "velocity": 0.7874015748031497,
          "duration": 0.026785687499994992
        },
        {
          "name": "D1",
          "midi": 26,
          "time": 173.99982599999552,
          "velocity": 0.7874015748031497,
          "duration": 0.026785687499994992
        },
        {
          "name": "D7",
          "midi": 98,
          "time": 174.2855399999955,
          "velocity": 0.7559055118110236,
          "duration": 0.07142849999999612
        },
        {
          "name": "G1",
          "midi": 31,
          "time": 174.2855399999955,
          "velocity": 0.7874015748031497,
          "duration": 0.026785687499994992
        },
        {
          "name": "D7",
          "midi": 98,
          "time": 174.5712539999955,
          "velocity": 0.7559055118110236,
          "duration": 0.07142849999999612
        },
        {
          "name": "F#1",
          "midi": 30,
          "time": 174.5712539999955,
          "velocity": 0.7874015748031497,
          "duration": 0.026785687499994992
        },
        {
          "name": "C7",
          "midi": 96,
          "time": 174.85696799999548,
          "velocity": 0.7559055118110236,
          "duration": 0.07142849999999612
        },
        {
          "name": "E7",
          "midi": 100,
          "time": 174.85696799999548,
          "velocity": 0.7559055118110236,
          "duration": 0.07142849999999612
        },
        {
          "name": "C1",
          "midi": 24,
          "time": 174.85696799999548,
          "velocity": 0.7874015748031497,
          "duration": 0.026785687499994992
        },
        {
          "name": "C2",
          "midi": 36,
          "time": 174.85696799999548,
          "velocity": 0.7874015748031497,
          "duration": 0.026785687499994992
        },
        {
          "name": "D7",
          "midi": 98,
          "time": 175.14268199999546,
          "velocity": 0.7559055118110236,
          "duration": 0.07142849999999612
        },
        {
          "name": "F#1",
          "midi": 30,
          "time": 175.14268199999546,
          "velocity": 0.7874015748031497,
          "duration": 0.026785687499994992
        },
        {
          "name": "D7",
          "midi": 98,
          "time": 175.42839599999544,
          "velocity": 0.7559055118110236,
          "duration": 0.07142849999999612
        },
        {
          "name": "G1",
          "midi": 31,
          "time": 175.42839599999544,
          "velocity": 0.7874015748031497,
          "duration": 0.026785687499994992
        },
        {
          "name": "C#7",
          "midi": 97,
          "time": 175.71410999999543,
          "velocity": 0.7559055118110236,
          "duration": 0.07142849999999612
        },
        {
          "name": "D7",
          "midi": 98,
          "time": 175.71410999999543,
          "velocity": 0.7559055118110236,
          "duration": 0.07142849999999612
        },
        {
          "name": "G1",
          "midi": 31,
          "time": 175.71410999999543,
          "velocity": 0.7874015748031497,
          "duration": 0.026785687499994992
        },
        {
          "name": "D1",
          "midi": 26,
          "time": 175.71410999999543,
          "velocity": 0.7874015748031497,
          "duration": 0.026785687499994992
        },
        {
          "name": "D7",
          "midi": 98,
          "time": 175.9998239999954,
          "velocity": 0.7559055118110236,
          "duration": 0.07142849999999612
        },
        {
          "name": "G1",
          "midi": 31,
          "time": 175.9998239999954,
          "velocity": 0.7874015748031497,
          "duration": 0.026785687499994992
        },
        {
          "name": "D7",
          "midi": 98,
          "time": 176.2855379999954,
          "velocity": 0.7559055118110236,
          "duration": 0.07142849999999612
        },
        {
          "name": "F#1",
          "midi": 30,
          "time": 176.2855379999954,
          "velocity": 0.7874015748031497,
          "duration": 0.026785687499994992
        },
        {
          "name": "C7",
          "midi": 96,
          "time": 176.57125199999538,
          "velocity": 0.7559055118110236,
          "duration": 0.07142849999999612
        },
        {
          "name": "D7",
          "midi": 98,
          "time": 176.57125199999538,
          "velocity": 0.7559055118110236,
          "duration": 0.07142849999999612
        },
        {
          "name": "C1",
          "midi": 24,
          "time": 176.57125199999538,
          "velocity": 0.7874015748031497,
          "duration": 0.026785687499994992
        },
        {
          "name": "G1",
          "midi": 31,
          "time": 176.57125199999538,
          "velocity": 0.7874015748031497,
          "duration": 0.026785687499994992
        },
        {
          "name": "D7",
          "midi": 98,
          "time": 176.78553749999537,
          "velocity": 0.7559055118110236,
          "duration": 0.07142849999999612
        },
        {
          "name": "F#1",
          "midi": 30,
          "time": 176.78553749999537,
          "velocity": 0.7874015748031497,
          "duration": 0.026785687499994992
        },
        {
          "name": "D7",
          "midi": 98,
          "time": 176.85696599999537,
          "velocity": 0.7559055118110236,
          "duration": 0.07142849999999612
        },
        {
          "name": "G1",
          "midi": 31,
          "time": 176.85696599999537,
          "velocity": 0.7874015748031497,
          "duration": 0.026785687499994992
        },
        {
          "name": "D7",
          "midi": 98,
          "time": 176.92839449999536,
          "velocity": 0.7559055118110236,
          "duration": 0.07142849999999612
        },
        {
          "name": "F#1",
          "midi": 30,
          "time": 176.92839449999536,
          "velocity": 0.7874015748031497,
          "duration": 0.026785687499994992
        },
        {
          "name": "D7",
          "midi": 98,
          "time": 177.07125149999536,
          "velocity": 0.7559055118110236,
          "duration": 0.07142849999999612
        },
        {
          "name": "G1",
          "midi": 31,
          "time": 177.07125149999536,
          "velocity": 0.7874015748031497,
          "duration": 0.026785687499994992
        },
        {
          "name": "D7",
          "midi": 98,
          "time": 177.14267999999535,
          "velocity": 0.7559055118110236,
          "duration": 0.07142849999999612
        },
        {
          "name": "F#1",
          "midi": 30,
          "time": 177.14267999999535,
          "velocity": 0.7874015748031497,
          "duration": 0.026785687499994992
        },
        {
          "name": "D7",
          "midi": 98,
          "time": 177.21410849999535,
          "velocity": 0.7559055118110236,
          "duration": 0.07142849999999612
        },
        {
          "name": "G1",
          "midi": 31,
          "time": 177.21410849999535,
          "velocity": 0.7874015748031497,
          "duration": 0.026785687499994992
        },
        {
          "name": "C#7",
          "midi": 97,
          "time": 177.42839399999534,
          "velocity": 0.7559055118110236,
          "duration": 0.07142849999999612
        },
        {
          "name": "D7",
          "midi": 98,
          "time": 177.42839399999534,
          "velocity": 0.7559055118110236,
          "duration": 0.07142849999999612
        },
        {
          "name": "G1",
          "midi": 31,
          "time": 177.42839399999534,
          "velocity": 0.7874015748031497,
          "duration": 0.026785687499994992
        },
        {
          "name": "D1",
          "midi": 26,
          "time": 177.42839399999534,
          "velocity": 0.7874015748031497,
          "duration": 0.026785687499994992
        },
        {
          "name": "D7",
          "midi": 98,
          "time": 177.71410799999532,
          "velocity": 0.7559055118110236,
          "duration": 0.07142849999999612
        },
        {
          "name": "G1",
          "midi": 31,
          "time": 177.71410799999532,
          "velocity": 0.7874015748031497,
          "duration": 0.026785687499994992
        },
        {
          "name": "D7",
          "midi": 98,
          "time": 177.9998219999953,
          "velocity": 0.7559055118110236,
          "duration": 0.07142849999999612
        },
        {
          "name": "F#1",
          "midi": 30,
          "time": 177.9998219999953,
          "velocity": 0.7874015748031497,
          "duration": 0.026785687499994992
        },
        {
          "name": "C7",
          "midi": 96,
          "time": 178.28553599999532,
          "velocity": 0.7559055118110236,
          "duration": 0.10714275000000839
        },
        {
          "name": "C7",
          "midi": 96,
          "time": 178.71410699999532,
          "velocity": 0.7559055118110236,
          "duration": 0.10714275000000839
        },
        {
          "name": "C7",
          "midi": 96,
          "time": 179.14267799999533,
          "velocity": 0.7559055118110236,
          "duration": 0.10714275000000839
        },
        {
          "name": "C7",
          "midi": 96,
          "time": 179.57124899999533,
          "velocity": 0.7559055118110236,
          "duration": 0.10714275000000839
        },
        {
          "name": "C7",
          "midi": 96,
          "time": 179.99981999999534,
          "velocity": 0.7559055118110236,
          "duration": 0.10714275000000839
        },
        {
          "name": "C7",
          "midi": 96,
          "time": 180.42839099999534,
          "velocity": 0.7559055118110236,
          "duration": 0.10714275000000839
        },
        {
          "name": "C7",
          "midi": 96,
          "time": 180.85696199999535,
          "velocity": 0.7559055118110236,
          "duration": 0.10714275000000839
        },
        {
          "name": "C7",
          "midi": 96,
          "time": 181.28553299999535,
          "velocity": 0.7559055118110236,
          "duration": 0.10714275000000839
        },
        {
          "name": "C7",
          "midi": 96,
          "time": 181.71410399999536,
          "velocity": 0.7559055118110236,
          "duration": 0.10714275000000839
        },
        {
          "name": "C7",
          "midi": 96,
          "time": 182.14267499999536,
          "velocity": 0.7559055118110236,
          "duration": 0.10714275000000839
        },
        {
          "name": "C7",
          "midi": 96,
          "time": 182.57124599999537,
          "velocity": 0.7559055118110236,
          "duration": 0.10714275000000839
        },
        {
          "name": "C7",
          "midi": 96,
          "time": 182.99981699999537,
          "velocity": 0.7559055118110236,
          "duration": 0.10714275000000839
        },
        {
          "name": "C7",
          "midi": 96,
          "time": 183.42838799999538,
          "velocity": 0.7559055118110236,
          "duration": 0.10714275000000839
        },
        {
          "name": "C7",
          "midi": 96,
          "time": 183.85695899999538,
          "velocity": 0.7559055118110236,
          "duration": 0.10714275000000839
        },
        {
          "name": "C7",
          "midi": 96,
          "time": 184.2855299999954,
          "velocity": 0.7559055118110236,
          "duration": 0.10714275000000839
        },
        {
          "name": "C7",
          "midi": 96,
          "time": 184.7141009999954,
          "velocity": 0.7559055118110236,
          "duration": 0.10714275000000839
        },
        {
          "name": "C7",
          "midi": 96,
          "time": 185.1426719999954,
          "velocity": 0.7559055118110236,
          "duration": 0.10714275000000839
        },
        {
          "name": "C7",
          "midi": 96,
          "time": 185.5712429999954,
          "velocity": 0.7559055118110236,
          "duration": 0.10714275000000839
        },
        {
          "name": "C7",
          "midi": 96,
          "time": 185.9998139999954,
          "velocity": 0.7559055118110236,
          "duration": 0.10714275000000839
        },
        {
          "name": "C7",
          "midi": 96,
          "time": 186.42838499999542,
          "velocity": 0.7559055118110236,
          "duration": 0.10714275000000839
        },
        {
          "name": "C7",
          "midi": 96,
          "time": 186.85695599999542,
          "velocity": 0.7559055118110236,
          "duration": 0.10714275000000839
        },
        {
          "name": "C7",
          "midi": 96,
          "time": 187.28552699999543,
          "velocity": 0.7559055118110236,
          "duration": 0.10714275000000839
        },
        {
          "name": "C7",
          "midi": 96,
          "time": 187.71409799999543,
          "velocity": 0.7559055118110236,
          "duration": 0.10714275000000839
        },
        {
          "name": "C7",
          "midi": 96,
          "time": 188.14266899999544,
          "velocity": 0.7559055118110236,
          "duration": 0.10714275000000839
        },
        {
          "name": "C7",
          "midi": 96,
          "time": 188.57123999999544,
          "velocity": 0.7559055118110236,
          "duration": 0.10714275000000839
        },
        {
          "name": "C7",
          "midi": 96,
          "time": 188.99981099999545,
          "velocity": 0.7559055118110236,
          "duration": 0.10714275000000839
        },
        {
          "name": "C7",
          "midi": 96,
          "time": 189.42838199999545,
          "velocity": 0.7559055118110236,
          "duration": 0.10714275000000839
        },
        {
          "name": "C7",
          "midi": 96,
          "time": 189.85695299999546,
          "velocity": 0.7559055118110236,
          "duration": 0.10714275000000839
        },
        {
          "name": "C7",
          "midi": 96,
          "time": 190.28552399999546,
          "velocity": 0.7559055118110236,
          "duration": 0.10714275000000839
        },
        {
          "name": "E7",
          "midi": 100,
          "time": 190.39266674999547,
          "velocity": 0.7559055118110236,
          "duration": 0.10714275000000839
        },
        {
          "name": "E8",
          "midi": 112,
          "time": 190.39266674999547,
          "velocity": 0.7559055118110236,
          "duration": 0.10714275000000839
        },
        {
          "name": "C1",
          "midi": 24,
          "time": 190.39266674999547,
          "velocity": 0.7874015748031497,
          "duration": 0.026785687499994992
        },
        {
          "name": "C2",
          "midi": 36,
          "time": 190.39266674999547,
          "velocity": 0.7874015748031497,
          "duration": 0.026785687499994992
        },
        {
          "name": "E7",
          "midi": 100,
          "time": 190.49980949999548,
          "velocity": 0.7559055118110236,
          "duration": 0.10714275000000839
        },
        {
          "name": "E8",
          "midi": 112,
          "time": 190.49980949999548,
          "velocity": 0.7559055118110236,
          "duration": 0.10714275000000839
        },
        {
          "name": "A#1",
          "midi": 34,
          "time": 190.49980949999548,
          "velocity": 0.7874015748031497,
          "duration": 0.026785687499994992
        },
        {
          "name": "E7",
          "midi": 100,
          "time": 190.6069522499955,
          "velocity": 0.7559055118110236,
          "duration": 0.10714275000000839
        },
        {
          "name": "E8",
          "midi": 112,
          "time": 190.6069522499955,
          "velocity": 0.7559055118110236,
          "duration": 0.10714275000000839
        },
        {
          "name": "C2",
          "midi": 36,
          "time": 190.6069522499955,
          "velocity": 0.7874015748031497,
          "duration": 0.026785687499994992
        },
        {
          "name": "C7",
          "midi": 96,
          "time": 190.7140949999955,
          "velocity": 0.7559055118110236,
          "duration": 0.10714275000000839
        },
        {
          "name": "E7",
          "midi": 100,
          "time": 190.9283804999955,
          "velocity": 0.7559055118110236,
          "duration": 0.10714275000000839
        },
        {
          "name": "E8",
          "midi": 112,
          "time": 190.9283804999955,
          "velocity": 0.7559055118110236,
          "duration": 0.10714275000000839
        },
        {
          "name": "C1",
          "midi": 24,
          "time": 190.9283804999955,
          "velocity": 0.7874015748031497,
          "duration": 0.026785687499994992
        },
        {
          "name": "A#1",
          "midi": 34,
          "time": 190.9283804999955,
          "velocity": 0.7874015748031497,
          "duration": 0.026785687499994992
        },
        {
          "name": "C7",
          "midi": 96,
          "time": 191.14266599999553,
          "velocity": 0.7559055118110236,
          "duration": 0.10714275000000839
        },
        {
          "name": "C#7",
          "midi": 97,
          "time": 191.35695149999555,
          "velocity": 0.7559055118110236,
          "duration": 0.053571374999989985
        },
        {
          "name": "C1",
          "midi": 24,
          "time": 191.35695149999555,
          "velocity": 0.7874015748031497,
          "duration": 0.026785687499994992
        },
        {
          "name": "D#1",
          "midi": 27,
          "time": 191.35695149999555,
          "velocity": 0.7874015748031497,
          "duration": 0.026785687499994992
        },
        {
          "name": "C#7",
          "midi": 97,
          "time": 191.41052287499554,
          "velocity": 0.7559055118110236,
          "duration": 0.053571374999989985
        },
        {
          "name": "D1",
          "midi": 26,
          "time": 191.41052287499554,
          "velocity": 0.7874015748031497,
          "duration": 0.026785687499994992
        },
        {
          "name": "C#7",
          "midi": 97,
          "time": 191.46409424999553,
          "velocity": 0.7559055118110236,
          "duration": 0.053571374999989985
        },
        {
          "name": "D#1",
          "midi": 27,
          "time": 191.46409424999553,
          "velocity": 0.7874015748031497,
          "duration": 0.026785687499994992
        },
        {
          "name": "C#7",
          "midi": 97,
          "time": 191.51766562499552,
          "velocity": 0.7559055118110236,
          "duration": 0.053571374999989985
        },
        {
          "name": "D1",
          "midi": 26,
          "time": 191.51766562499552,
          "velocity": 0.7874015748031497,
          "duration": 0.026785687499994992
        },
        {
          "name": "C7",
          "midi": 96,
          "time": 191.5712369999955,
          "velocity": 0.7559055118110236,
          "duration": 0.10714274999997997
        },
        {
          "name": "C#7",
          "midi": 97,
          "time": 191.5712369999955,
          "velocity": 0.7559055118110236,
          "duration": 0.053571374999989985
        },
        {
          "name": "C1",
          "midi": 24,
          "time": 191.5712369999955,
          "velocity": 0.7874015748031497,
          "duration": 0.026785687499994992
        },
        {
          "name": "D#1",
          "midi": 27,
          "time": 191.5712369999955,
          "velocity": 0.7874015748031497,
          "duration": 0.026785687499994992
        },
        {
          "name": "C#7",
          "midi": 97,
          "time": 191.6248083749955,
          "velocity": 0.7559055118110236,
          "duration": 0.053571374999989985
        },
        {
          "name": "D1",
          "midi": 26,
          "time": 191.6248083749955,
          "velocity": 0.7874015748031497,
          "duration": 0.026785687499994992
        },
        {
          "name": "C#7",
          "midi": 97,
          "time": 191.67837974999549,
          "velocity": 0.7559055118110236,
          "duration": 0.053571374999989985
        },
        {
          "name": "D#1",
          "midi": 27,
          "time": 191.67837974999549,
          "velocity": 0.7874015748031497,
          "duration": 0.026785687499994992
        },
        {
          "name": "C#7",
          "midi": 97,
          "time": 191.73195112499548,
          "velocity": 0.7559055118110236,
          "duration": 0.053571374999989985
        },
        {
          "name": "D1",
          "midi": 26,
          "time": 191.73195112499548,
          "velocity": 0.7874015748031497,
          "duration": 0.026785687499994992
        },
        {
          "name": "C7",
          "midi": 96,
          "time": 191.99980799999545,
          "velocity": 0.7559055118110236,
          "duration": 0.10714275000000839
        },
        {
          "name": "D#7",
          "midi": 99,
          "time": 191.99980799999545,
          "velocity": 0.7559055118110236,
          "duration": 0.10714275000000839
        },
        {
          "name": "E7",
          "midi": 100,
          "time": 191.99980799999545,
          "velocity": 0.7559055118110236,
          "duration": 0.10714275000000839
        },
        {
          "name": "C1",
          "midi": 24,
          "time": 191.99980799999545,
          "velocity": 0.7874015748031497,
          "duration": 0.026785687499994992
        },
        {
          "name": "C2",
          "midi": 36,
          "time": 191.99980799999545,
          "velocity": 0.7874015748031497,
          "duration": 0.026785687499994992
        },
        {
          "name": "B1",
          "midi": 35,
          "time": 191.99980799999545,
          "velocity": 0.7874015748031497,
          "duration": 0.026785687499994992
        },
        {
          "name": "C7",
          "midi": 96,
          "time": 192.42837899999546,
          "velocity": 0.7559055118110236,
          "duration": 0.10714275000000839
        },
        {
          "name": "C7",
          "midi": 96,
          "time": 192.85694999999546,
          "velocity": 0.7559055118110236,
          "duration": 0.10714275000000839
        },
        {
          "name": "C7",
          "midi": 96,
          "time": 193.28552099999547,
          "velocity": 0.7559055118110236,
          "duration": 0.10714275000000839
        },
        {
          "name": "C7",
          "midi": 96,
          "time": 193.71409199999547,
          "velocity": 0.7559055118110236,
          "duration": 0.10714275000000839
        },
        {
          "name": "C7",
          "midi": 96,
          "time": 194.14266299999548,
          "velocity": 0.7559055118110236,
          "duration": 0.10714275000000839
        },
        {
          "name": "C7",
          "midi": 96,
          "time": 194.57123399999548,
          "velocity": 0.7559055118110236,
          "duration": 0.10714275000000839
        },
        {
          "name": "C7",
          "midi": 96,
          "time": 194.9998049999955,
          "velocity": 0.7559055118110236,
          "duration": 0.10714275000000839
        },
        {
          "name": "C7",
          "midi": 96,
          "time": 195.4283759999955,
          "velocity": 0.7559055118110236,
          "duration": 0.10714275000000839
        },
        {
          "name": "C7",
          "midi": 96,
          "time": 195.8569469999955,
          "velocity": 0.7559055118110236,
          "duration": 0.10714275000000839
        },
        {
          "name": "C7",
          "midi": 96,
          "time": 196.2855179999955,
          "velocity": 0.7559055118110236,
          "duration": 0.10714275000000839
        },
        {
          "name": "C7",
          "midi": 96,
          "time": 196.7140889999955,
          "velocity": 0.7559055118110236,
          "duration": 0.10714275000000839
        },
        {
          "name": "C7",
          "midi": 96,
          "time": 197.14265999999552,
          "velocity": 0.7559055118110236,
          "duration": 0.10714275000000839
        },
        {
          "name": "C7",
          "midi": 96,
          "time": 197.57123099999552,
          "velocity": 0.7559055118110236,
          "duration": 0.10714275000000839
        },
        {
          "name": "C7",
          "midi": 96,
          "time": 197.99980199999553,
          "velocity": 0.7559055118110236,
          "duration": 0.10714275000000839
        },
        {
          "name": "C7",
          "midi": 96,
          "time": 198.42837299999553,
          "velocity": 0.7559055118110236,
          "duration": 0.10714275000000839
        },
        {
          "name": "C7",
          "midi": 96,
          "time": 198.85694399999554,
          "velocity": 0.7559055118110236,
          "duration": 0.10714275000000839
        },
        {
          "name": "C7",
          "midi": 96,
          "time": 199.28551499999554,
          "velocity": 0.7559055118110236,
          "duration": 0.10714275000000839
        },
        {
          "name": "C#7",
          "midi": 97,
          "time": 199.49980049999556,
          "velocity": 0.7559055118110236,
          "duration": 0.10714275000000839
        },
        {
          "name": "C1",
          "midi": 24,
          "time": 199.49980049999556,
          "velocity": 0.7874015748031497,
          "duration": 0.026785687499994992
        },
        {
          "name": "D#1",
          "midi": 27,
          "time": 199.49980049999556,
          "velocity": 0.7874015748031497,
          "duration": 0.026785687499994992
        },
        {
          "name": "C7",
          "midi": 96,
          "time": 199.71408599999558,
          "velocity": 0.7559055118110236,
          "duration": 0.10714275000000839
        },
        {
          "name": "C#7",
          "midi": 97,
          "time": 199.9283714999956,
          "velocity": 0.7559055118110236,
          "duration": 0.10714275000000839
        },
        {
          "name": "C1",
          "midi": 24,
          "time": 199.9283714999956,
          "velocity": 0.7874015748031497,
          "duration": 0.026785687499994992
        },
        {
          "name": "D1",
          "midi": 26,
          "time": 199.9283714999956,
          "velocity": 0.7874015748031497,
          "duration": 0.026785687499994992
        },
        {
          "name": "C7",
          "midi": 96,
          "time": 200.1426569999956,
          "velocity": 0.7559055118110236,
          "duration": 0.10714275000000839
        },
        {
          "name": "C7",
          "midi": 96,
          "time": 200.5712279999956,
          "velocity": 0.7559055118110236,
          "duration": 0.10714275000000839
        },
        {
          "name": "C7",
          "midi": 96,
          "time": 200.99979899999562,
          "velocity": 0.7559055118110236,
          "duration": 0.10714275000000839
        },
        {
          "name": "C#7",
          "midi": 97,
          "time": 201.21408449999564,
          "velocity": 0.7559055118110236,
          "duration": 0.10714275000000839
        },
        {
          "name": "C1",
          "midi": 24,
          "time": 201.21408449999564,
          "velocity": 0.7874015748031497,
          "duration": 0.026785687499994992
        },
        {
          "name": "D#1",
          "midi": 27,
          "time": 201.21408449999564,
          "velocity": 0.7874015748031497,
          "duration": 0.026785687499994992
        },
        {
          "name": "C7",
          "midi": 96,
          "time": 201.42836999999565,
          "velocity": 0.7559055118110236,
          "duration": 0.10714275000000839
        },
        {
          "name": "C7",
          "midi": 96,
          "time": 201.85694099999566,
          "velocity": 0.7559055118110236,
          "duration": 0.10714275000000839
        },
        {
          "name": "C#7",
          "midi": 97,
          "time": 202.07122649999567,
          "velocity": 0.7559055118110236,
          "duration": 0.10714275000000839
        },
        {
          "name": "C1",
          "midi": 24,
          "time": 202.07122649999567,
          "velocity": 0.7874015748031497,
          "duration": 0.026785687499994992
        },
        {
          "name": "D1",
          "midi": 26,
          "time": 202.07122649999567,
          "velocity": 0.7874015748031497,
          "duration": 0.026785687499994992
        },
        {
          "name": "C7",
          "midi": 96,
          "time": 202.2855119999957,
          "velocity": 0.7559055118110236,
          "duration": 0.10714275000000839
        },
        {
          "name": "C7",
          "midi": 96,
          "time": 202.7140829999957,
          "velocity": 0.7559055118110236,
          "duration": 0.10714275000000839
        },
        {
          "name": "C#7",
          "midi": 97,
          "time": 202.9283684999957,
          "velocity": 0.7559055118110236,
          "duration": 0.10714275000000839
        },
        {
          "name": "C1",
          "midi": 24,
          "time": 202.9283684999957,
          "velocity": 0.7874015748031497,
          "duration": 0.026785687499994992
        },
        {
          "name": "D#1",
          "midi": 27,
          "time": 202.9283684999957,
          "velocity": 0.7874015748031497,
          "duration": 0.026785687499994992
        },
        {
          "name": "C7",
          "midi": 96,
          "time": 203.14265399999573,
          "velocity": 0.7559055118110236,
          "duration": 0.10714275000000839
        },
        {
          "name": "C7",
          "midi": 96,
          "time": 203.57122499999574,
          "velocity": 0.7559055118110236,
          "duration": 0.10714275000000839
        },
        {
          "name": "C7",
          "midi": 96,
          "time": 203.99979599999574,
          "velocity": 0.7559055118110236,
          "duration": 0.10714275000000839
        },
        {
          "name": "C7",
          "midi": 96,
          "time": 205.71407999999576,
          "velocity": 0.7559055118110236,
          "duration": 0.10714275000000839
        },
        {
          "name": "D7",
          "midi": 98,
          "time": 205.71407999999576,
          "velocity": 0.7559055118110236,
          "duration": 0.10714275000000839
        },
        {
          "name": "C1",
          "midi": 24,
          "time": 205.71407999999576,
          "velocity": 0.7874015748031497,
          "duration": 0.026785687499994992
        },
        {
          "name": "F#1",
          "midi": 30,
          "time": 205.71407999999576,
          "velocity": 0.7874015748031497,
          "duration": 0.026785687499994992
        },
        {
          "name": "D7",
          "midi": 98,
          "time": 205.92836549999578,
          "velocity": 0.7559055118110236,
          "duration": 0.053571374999989985
        },
        {
          "name": "G1",
          "midi": 31,
          "time": 205.92836549999578,
          "velocity": 0.7874015748031497,
          "duration": 0.026785687499994992
        },
        {
          "name": "D7",
          "midi": 98,
          "time": 205.98193687499577,
          "velocity": 0.7559055118110236,
          "duration": 0.053571374999989985
        },
        {
          "name": "F#1",
          "midi": 30,
          "time": 205.98193687499577,
          "velocity": 0.7874015748031497,
          "duration": 0.026785687499994992
        },
        {
          "name": "D7",
          "midi": 98,
          "time": 206.03550824999576,
          "velocity": 0.7559055118110236,
          "duration": 0.053571374999989985
        },
        {
          "name": "G1",
          "midi": 31,
          "time": 206.03550824999576,
          "velocity": 0.7874015748031497,
          "duration": 0.026785687499994992
        },
        {
          "name": "D7",
          "midi": 98,
          "time": 206.08907962499575,
          "velocity": 0.7559055118110236,
          "duration": 0.053571374999989985
        },
        {
          "name": "F#1",
          "midi": 30,
          "time": 206.08907962499575,
          "velocity": 0.7874015748031497,
          "duration": 0.026785687499994992
        },
        {
          "name": "C7",
          "midi": 96,
          "time": 206.14265099999574,
          "velocity": 0.7559055118110236,
          "duration": 0.10714274999997997
        },
        {
          "name": "D7",
          "midi": 98,
          "time": 206.14265099999574,
          "velocity": 0.7559055118110236,
          "duration": 0.053571374999989985
        },
        {
          "name": "C1",
          "midi": 24,
          "time": 206.14265099999574,
          "velocity": 0.7874015748031497,
          "duration": 0.026785687499994992
        },
        {
          "name": "G1",
          "midi": 31,
          "time": 206.14265099999574,
          "velocity": 0.7874015748031497,
          "duration": 0.026785687499994992
        },
        {
          "name": "D7",
          "midi": 98,
          "time": 206.35693649999573,
          "velocity": 0.7559055118110236,
          "duration": 0.10714275000000839
        },
        {
          "name": "F#1",
          "midi": 30,
          "time": 206.35693649999573,
          "velocity": 0.7874015748031497,
          "duration": 0.026785687499994992
        },
        {
          "name": "C7",
          "midi": 96,
          "time": 206.57122199999574,
          "velocity": 0.7559055118110236,
          "duration": 0.10714275000000839
        },
        {
          "name": "D7",
          "midi": 98,
          "time": 206.57122199999574,
          "velocity": 0.7559055118110236,
          "duration": 0.10714275000000839
        },
        {
          "name": "C1",
          "midi": 24,
          "time": 206.57122199999574,
          "velocity": 0.7874015748031497,
          "duration": 0.026785687499994992
        },
        {
          "name": "G1",
          "midi": 31,
          "time": 206.57122199999574,
          "velocity": 0.7874015748031497,
          "duration": 0.026785687499994992
        },
        {
          "name": "D7",
          "midi": 98,
          "time": 206.78550749999576,
          "velocity": 0.7559055118110236,
          "duration": 0.053571374999989985
        },
        {
          "name": "F#1",
          "midi": 30,
          "time": 206.78550749999576,
          "velocity": 0.7874015748031497,
          "duration": 0.026785687499994992
        },
        {
          "name": "D7",
          "midi": 98,
          "time": 206.83907887499575,
          "velocity": 0.7559055118110236,
          "duration": 0.053571374999989985
        },
        {
          "name": "G1",
          "midi": 31,
          "time": 206.83907887499575,
          "velocity": 0.7874015748031497,
          "duration": 0.026785687499994992
        },
        {
          "name": "D7",
          "midi": 98,
          "time": 206.89265024999574,
          "velocity": 0.7559055118110236,
          "duration": 0.053571374999989985
        },
        {
          "name": "F#1",
          "midi": 30,
          "time": 206.89265024999574,
          "velocity": 0.7874015748031497,
          "duration": 0.026785687499994992
        },
        {
          "name": "D7",
          "midi": 98,
          "time": 206.94622162499573,
          "velocity": 0.7559055118110236,
          "duration": 0.053571374999989985
        },
        {
          "name": "G1",
          "midi": 31,
          "time": 206.94622162499573,
          "velocity": 0.7874015748031497,
          "duration": 0.026785687499994992
        },
        {
          "name": "C7",
          "midi": 96,
          "time": 206.99979299999572,
          "velocity": 0.7559055118110236,
          "duration": 0.10714274999997997
        },
        {
          "name": "D7",
          "midi": 98,
          "time": 206.99979299999572,
          "velocity": 0.7559055118110236,
          "duration": 0.053571374999989985
        },
        {
          "name": "C1",
          "midi": 24,
          "time": 206.99979299999572,
          "velocity": 0.7874015748031497,
          "duration": 0.026785687499994992
        },
        {
          "name": "F#1",
          "midi": 30,
          "time": 206.99979299999572,
          "velocity": 0.7874015748031497,
          "duration": 0.026785687499994992
        },
        {
          "name": "D7",
          "midi": 98,
          "time": 207.2140784999957,
          "velocity": 0.7559055118110236,
          "duration": 0.10714275000000839
        },
        {
          "name": "G1",
          "midi": 31,
          "time": 207.2140784999957,
          "velocity": 0.7874015748031497,
          "duration": 0.026785687499994992
        },
        {
          "name": "C7",
          "midi": 96,
          "time": 207.42836399999572,
          "velocity": 0.7559055118110236,
          "duration": 0.10714275000000839
        },
        {
          "name": "D7",
          "midi": 98,
          "time": 207.42836399999572,
          "velocity": 0.7559055118110236,
          "duration": 0.10714275000000839
        },
        {
          "name": "C1",
          "midi": 24,
          "time": 207.42836399999572,
          "velocity": 0.7874015748031497,
          "duration": 0.026785687499994992
        },
        {
          "name": "F#1",
          "midi": 30,
          "time": 207.42836399999572,
          "velocity": 0.7874015748031497,
          "duration": 0.026785687499994992
        },
        {
          "name": "D7",
          "midi": 98,
          "time": 207.64264949999574,
          "velocity": 0.7559055118110236,
          "duration": 0.053571374999989985
        },
        {
          "name": "G1",
          "midi": 31,
          "time": 207.64264949999574,
          "velocity": 0.7874015748031497,
          "duration": 0.026785687499994992
        },
        {
          "name": "D7",
          "midi": 98,
          "time": 207.69622087499573,
          "velocity": 0.7559055118110236,
          "duration": 0.053571374999989985
        },
        {
          "name": "F#1",
          "midi": 30,
          "time": 207.69622087499573,
          "velocity": 0.7874015748031497,
          "duration": 0.026785687499994992
        },
        {
          "name": "D7",
          "midi": 98,
          "time": 207.74979224999572,
          "velocity": 0.7559055118110236,
          "duration": 0.053571374999989985
        },
        {
          "name": "G1",
          "midi": 31,
          "time": 207.74979224999572,
          "velocity": 0.7874015748031497,
          "duration": 0.026785687499994992
        },
        {
          "name": "D7",
          "midi": 98,
          "time": 207.8033636249957,
          "velocity": 0.7559055118110236,
          "duration": 0.053571374999989985
        },
        {
          "name": "F#1",
          "midi": 30,
          "time": 207.8033636249957,
          "velocity": 0.7874015748031497,
          "duration": 0.026785687499994992
        },
        {
          "name": "C7",
          "midi": 96,
          "time": 207.8569349999957,
          "velocity": 0.7559055118110236,
          "duration": 0.10714274999997997
        },
        {
          "name": "D7",
          "midi": 98,
          "time": 207.8569349999957,
          "velocity": 0.7559055118110236,
          "duration": 0.053571374999989985
        },
        {
          "name": "C1",
          "midi": 24,
          "time": 207.8569349999957,
          "velocity": 0.7874015748031497,
          "duration": 0.026785687499994992
        },
        {
          "name": "G1",
          "midi": 31,
          "time": 207.8569349999957,
          "velocity": 0.7874015748031497,
          "duration": 0.026785687499994992
        },
        {
          "name": "D7",
          "midi": 98,
          "time": 208.0712204999957,
          "velocity": 0.7559055118110236,
          "duration": 0.10714275000000839
        },
        {
          "name": "F#1",
          "midi": 30,
          "time": 208.0712204999957,
          "velocity": 0.7874015748031497,
          "duration": 0.026785687499994992
        },
        {
          "name": "C7",
          "midi": 96,
          "time": 208.2855059999957,
          "velocity": 0.7559055118110236,
          "duration": 0.10714275000000839
        },
        {
          "name": "D7",
          "midi": 98,
          "time": 208.2855059999957,
          "velocity": 0.7559055118110236,
          "duration": 0.10714275000000839
        },
        {
          "name": "C1",
          "midi": 24,
          "time": 208.2855059999957,
          "velocity": 0.7874015748031497,
          "duration": 0.026785687499994992
        },
        {
          "name": "G1",
          "midi": 31,
          "time": 208.2855059999957,
          "velocity": 0.7874015748031497,
          "duration": 0.026785687499994992
        },
        {
          "name": "D7",
          "midi": 98,
          "time": 208.49979149999572,
          "velocity": 0.7559055118110236,
          "duration": 0.053571374999989985
        },
        {
          "name": "F#1",
          "midi": 30,
          "time": 208.49979149999572,
          "velocity": 0.7874015748031497,
          "duration": 0.026785687499994992
        },
        {
          "name": "D7",
          "midi": 98,
          "time": 208.5533628749957,
          "velocity": 0.7559055118110236,
          "duration": 0.053571374999989985
        },
        {
          "name": "G1",
          "midi": 31,
          "time": 208.5533628749957,
          "velocity": 0.7874015748031497,
          "duration": 0.026785687499994992
        },
        {
          "name": "D7",
          "midi": 98,
          "time": 208.6069342499957,
          "velocity": 0.7559055118110236,
          "duration": 0.053571374999989985
        },
        {
          "name": "F#1",
          "midi": 30,
          "time": 208.6069342499957,
          "velocity": 0.7874015748031497,
          "duration": 0.026785687499994992
        },
        {
          "name": "D7",
          "midi": 98,
          "time": 208.6605056249957,
          "velocity": 0.7559055118110236,
          "duration": 0.053571374999989985
        },
        {
          "name": "G1",
          "midi": 31,
          "time": 208.6605056249957,
          "velocity": 0.7874015748031497,
          "duration": 0.026785687499994992
        },
        {
          "name": "C7",
          "midi": 96,
          "time": 208.71407699999568,
          "velocity": 0.7559055118110236,
          "duration": 0.10714274999997997
        },
        {
          "name": "D7",
          "midi": 98,
          "time": 208.71407699999568,
          "velocity": 0.7559055118110236,
          "duration": 0.053571374999989985
        },
        {
          "name": "C1",
          "midi": 24,
          "time": 208.71407699999568,
          "velocity": 0.7874015748031497,
          "duration": 0.026785687499994992
        },
        {
          "name": "F#1",
          "midi": 30,
          "time": 208.71407699999568,
          "velocity": 0.7874015748031497,
          "duration": 0.026785687499994992
        },
        {
          "name": "D#7",
          "midi": 99,
          "time": 208.92836249999567,
          "velocity": 0.7559055118110236,
          "duration": 0.10714275000000839
        },
        {
          "name": "F#2",
          "midi": 42,
          "time": 208.92836249999567,
          "velocity": 0.7874015748031497,
          "duration": 0.026785687499994992
        },
        {
          "name": "D#7",
          "midi": 99,
          "time": 209.03550524999568,
          "velocity": 0.7559055118110236,
          "duration": 0.10714275000000839
        },
        {
          "name": "B1",
          "midi": 35,
          "time": 209.03550524999568,
          "velocity": 0.7874015748031497,
          "duration": 0.026785687499994992
        },
        {
          "name": "C7",
          "midi": 96,
          "time": 209.1426479999957,
          "velocity": 0.7559055118110236,
          "duration": 0.10714275000000839
        },
        {
          "name": "D#7",
          "midi": 99,
          "time": 209.1426479999957,
          "velocity": 0.7559055118110236,
          "duration": 0.10714275000000839
        },
        {
          "name": "C1",
          "midi": 24,
          "time": 209.1426479999957,
          "velocity": 0.7874015748031497,
          "duration": 0.026785687499994992
        },
        {
          "name": "F#2",
          "midi": 42,
          "time": 209.1426479999957,
          "velocity": 0.7874015748031497,
          "duration": 0.026785687499994992
        },
        {
          "name": "D7",
          "midi": 98,
          "time": 209.3569334999957,
          "velocity": 0.7559055118110236,
          "duration": 0.053571374999989985
        },
        {
          "name": "F#1",
          "midi": 30,
          "time": 209.3569334999957,
          "velocity": 0.7874015748031497,
          "duration": 0.026785687499994992
        },
        {
          "name": "D7",
          "midi": 98,
          "time": 209.4105048749957,
          "velocity": 0.7559055118110236,
          "duration": 0.053571374999989985
        },
        {
          "name": "G1",
          "midi": 31,
          "time": 209.4105048749957,
          "velocity": 0.7874015748031497,
          "duration": 0.026785687499994992
        },
        {
          "name": "D7",
          "midi": 98,
          "time": 209.46407624999568,
          "velocity": 0.7559055118110236,
          "duration": 0.053571374999989985
        },
        {
          "name": "F#1",
          "midi": 30,
          "time": 209.46407624999568,
          "velocity": 0.7874015748031497,
          "duration": 0.026785687499994992
        },
        {
          "name": "D7",
          "midi": 98,
          "time": 209.51764762499567,
          "velocity": 0.7559055118110236,
          "duration": 0.053571374999989985
        },
        {
          "name": "G1",
          "midi": 31,
          "time": 209.51764762499567,
          "velocity": 0.7874015748031497,
          "duration": 0.026785687499994992
        },
        {
          "name": "C7",
          "midi": 96,
          "time": 209.57121899999566,
          "velocity": 0.7559055118110236,
          "duration": 0.10714274999997997
        },
        {
          "name": "D7",
          "midi": 98,
          "time": 209.57121899999566,
          "velocity": 0.7559055118110236,
          "duration": 0.053571374999989985
        },
        {
          "name": "C1",
          "midi": 24,
          "time": 209.57121899999566,
          "velocity": 0.7874015748031497,
          "duration": 0.026785687499994992
        },
        {
          "name": "F#1",
          "midi": 30,
          "time": 209.57121899999566,
          "velocity": 0.7874015748031497,
          "duration": 0.026785687499994992
        },
        {
          "name": "D7",
          "midi": 98,
          "time": 209.78550449999565,
          "velocity": 0.7559055118110236,
          "duration": 0.10714275000000839
        },
        {
          "name": "G1",
          "midi": 31,
          "time": 209.78550449999565,
          "velocity": 0.7874015748031497,
          "duration": 0.026785687499994992
        },
        {
          "name": "C7",
          "midi": 96,
          "time": 209.99978999999567,
          "velocity": 0.7559055118110236,
          "duration": 0.10714275000000839
        },
        {
          "name": "D7",
          "midi": 98,
          "time": 209.99978999999567,
          "velocity": 0.7559055118110236,
          "duration": 0.10714275000000839
        },
        {
          "name": "C1",
          "midi": 24,
          "time": 209.99978999999567,
          "velocity": 0.7874015748031497,
          "duration": 0.026785687499994992
        },
        {
          "name": "F#1",
          "midi": 30,
          "time": 209.99978999999567,
          "velocity": 0.7874015748031497,
          "duration": 0.026785687499994992
        },
        {
          "name": "D7",
          "midi": 98,
          "time": 210.2140754999957,
          "velocity": 0.7559055118110236,
          "duration": 0.053571374999989985
        },
        {
          "name": "G1",
          "midi": 31,
          "time": 210.2140754999957,
          "velocity": 0.7874015748031497,
          "duration": 0.026785687499994992
        },
        {
          "name": "D7",
          "midi": 98,
          "time": 210.26764687499568,
          "velocity": 0.7559055118110236,
          "duration": 0.053571374999989985
        },
        {
          "name": "F#1",
          "midi": 30,
          "time": 210.26764687499568,
          "velocity": 0.7874015748031497,
          "duration": 0.026785687499994992
        },
        {
          "name": "D7",
          "midi": 98,
          "time": 210.32121824999567,
          "velocity": 0.7559055118110236,
          "duration": 0.053571374999989985
        },
        {
          "name": "G1",
          "midi": 31,
          "time": 210.32121824999567,
          "velocity": 0.7874015748031497,
          "duration": 0.026785687499994992
        },
        {
          "name": "D7",
          "midi": 98,
          "time": 210.37478962499566,
          "velocity": 0.7559055118110236,
          "duration": 0.053571374999989985
        },
        {
          "name": "F#1",
          "midi": 30,
          "time": 210.37478962499566,
          "velocity": 0.7874015748031497,
          "duration": 0.026785687499994992
        },
        {
          "name": "C7",
          "midi": 96,
          "time": 210.42836099999565,
          "velocity": 0.7559055118110236,
          "duration": 0.10714274999997997
        },
        {
          "name": "D7",
          "midi": 98,
          "time": 210.42836099999565,
          "velocity": 0.7559055118110236,
          "duration": 0.053571374999989985
        },
        {
          "name": "C1",
          "midi": 24,
          "time": 210.42836099999565,
          "velocity": 0.7874015748031497,
          "duration": 0.026785687499994992
        },
        {
          "name": "G1",
          "midi": 31,
          "time": 210.42836099999565,
          "velocity": 0.7874015748031497,
          "duration": 0.026785687499994992
        },
        {
          "name": "D7",
          "midi": 98,
          "time": 210.64264649999564,
          "velocity": 0.7559055118110236,
          "duration": 0.10714275000000839
        },
        {
          "name": "F#1",
          "midi": 30,
          "time": 210.64264649999564,
          "velocity": 0.7874015748031497,
          "duration": 0.026785687499994992
        },
        {
          "name": "C7",
          "midi": 96,
          "time": 210.85693199999565,
          "velocity": 0.7559055118110236,
          "duration": 0.10714275000000839
        },
        {
          "name": "D7",
          "midi": 98,
          "time": 210.85693199999565,
          "velocity": 0.7559055118110236,
          "duration": 0.10714275000000839
        },
        {
          "name": "C1",
          "midi": 24,
          "time": 210.85693199999565,
          "velocity": 0.7874015748031497,
          "duration": 0.026785687499994992
        },
        {
          "name": "G1",
          "midi": 31,
          "time": 210.85693199999565,
          "velocity": 0.7874015748031497,
          "duration": 0.026785687499994992
        },
        {
          "name": "D7",
          "midi": 98,
          "time": 211.07121749999567,
          "velocity": 0.7559055118110236,
          "duration": 0.053571374999989985
        },
        {
          "name": "F#1",
          "midi": 30,
          "time": 211.07121749999567,
          "velocity": 0.7874015748031497,
          "duration": 0.026785687499994992
        },
        {
          "name": "D7",
          "midi": 98,
          "time": 211.12478887499566,
          "velocity": 0.7559055118110236,
          "duration": 0.053571374999989985
        },
        {
          "name": "G1",
          "midi": 31,
          "time": 211.12478887499566,
          "velocity": 0.7874015748031497,
          "duration": 0.026785687499994992
        },
        {
          "name": "D7",
          "midi": 98,
          "time": 211.17836024999565,
          "velocity": 0.7559055118110236,
          "duration": 0.053571374999989985
        },
        {
          "name": "F#1",
          "midi": 30,
          "time": 211.17836024999565,
          "velocity": 0.7874015748031497,
          "duration": 0.026785687499994992
        },
        {
          "name": "D7",
          "midi": 98,
          "time": 211.23193162499564,
          "velocity": 0.7559055118110236,
          "duration": 0.053571374999989985
        },
        {
          "name": "G1",
          "midi": 31,
          "time": 211.23193162499564,
          "velocity": 0.7874015748031497,
          "duration": 0.026785687499994992
        },
        {
          "name": "C7",
          "midi": 96,
          "time": 211.28550299999563,
          "velocity": 0.7559055118110236,
          "duration": 0.10714274999997997
        },
        {
          "name": "D7",
          "midi": 98,
          "time": 211.28550299999563,
          "velocity": 0.7559055118110236,
          "duration": 0.053571374999989985
        },
        {
          "name": "C1",
          "midi": 24,
          "time": 211.28550299999563,
          "velocity": 0.7874015748031497,
          "duration": 0.026785687499994992
        },
        {
          "name": "F#1",
          "midi": 30,
          "time": 211.28550299999563,
          "velocity": 0.7874015748031497,
          "duration": 0.026785687499994992
        },
        {
          "name": "D7",
          "midi": 98,
          "time": 211.49978849999562,
          "velocity": 0.7559055118110236,
          "duration": 0.10714275000000839
        },
        {
          "name": "G1",
          "midi": 31,
          "time": 211.49978849999562,
          "velocity": 0.7874015748031497,
          "duration": 0.026785687499994992
        },
        {
          "name": "C7",
          "midi": 96,
          "time": 211.71407399999563,
          "velocity": 0.7559055118110236,
          "duration": 0.10714275000000839
        },
        {
          "name": "D7",
          "midi": 98,
          "time": 211.71407399999563,
          "velocity": 0.7559055118110236,
          "duration": 0.10714275000000839
        },
        {
          "name": "C1",
          "midi": 24,
          "time": 211.71407399999563,
          "velocity": 0.7874015748031497,
          "duration": 0.026785687499994992
        },
        {
          "name": "F#1",
          "midi": 30,
          "time": 211.71407399999563,
          "velocity": 0.7874015748031497,
          "duration": 0.026785687499994992
        },
        {
          "name": "D7",
          "midi": 98,
          "time": 211.92835949999565,
          "velocity": 0.7559055118110236,
          "duration": 0.053571374999989985
        },
        {
          "name": "G1",
          "midi": 31,
          "time": 211.92835949999565,
          "velocity": 0.7874015748031497,
          "duration": 0.026785687499994992
        },
        {
          "name": "D7",
          "midi": 98,
          "time": 211.98193087499564,
          "velocity": 0.7559055118110236,
          "duration": 0.053571374999989985
        },
        {
          "name": "F#1",
          "midi": 30,
          "time": 211.98193087499564,
          "velocity": 0.7874015748031497,
          "duration": 0.026785687499994992
        },
        {
          "name": "D7",
          "midi": 98,
          "time": 212.03550224999563,
          "velocity": 0.7559055118110236,
          "duration": 0.053571374999989985
        },
        {
          "name": "G1",
          "midi": 31,
          "time": 212.03550224999563,
          "velocity": 0.7874015748031497,
          "duration": 0.026785687499994992
        },
        {
          "name": "D7",
          "midi": 98,
          "time": 212.08907362499562,
          "velocity": 0.7559055118110236,
          "duration": 0.053571374999989985
        },
        {
          "name": "F#1",
          "midi": 30,
          "time": 212.08907362499562,
          "velocity": 0.7874015748031497,
          "duration": 0.026785687499994992
        },
        {
          "name": "C7",
          "midi": 96,
          "time": 212.1426449999956,
          "velocity": 0.7559055118110236,
          "duration": 0.10714274999997997
        },
        {
          "name": "D7",
          "midi": 98,
          "time": 212.1426449999956,
          "velocity": 0.7559055118110236,
          "duration": 0.053571374999989985
        },
        {
          "name": "C1",
          "midi": 24,
          "time": 212.1426449999956,
          "velocity": 0.7874015748031497,
          "duration": 0.026785687499994992
        },
        {
          "name": "G1",
          "midi": 31,
          "time": 212.1426449999956,
          "velocity": 0.7874015748031497,
          "duration": 0.026785687499994992
        },
        {
          "name": "D#7",
          "midi": 99,
          "time": 212.3569304999956,
          "velocity": 0.7559055118110236,
          "duration": 0.10714275000000839
        },
        {
          "name": "B1",
          "midi": 35,
          "time": 212.3569304999956,
          "velocity": 0.7874015748031497,
          "duration": 0.026785687499994992
        },
        {
          "name": "D#7",
          "midi": 99,
          "time": 212.4640732499956,
          "velocity": 0.7559055118110236,
          "duration": 0.10714275000000839
        },
        {
          "name": "F#2",
          "midi": 42,
          "time": 212.4640732499956,
          "velocity": 0.7874015748031497,
          "duration": 0.026785687499994992
        },
        {
          "name": "C7",
          "midi": 96,
          "time": 212.57121599999562,
          "velocity": 0.7559055118110236,
          "duration": 0.10714275000000839
        },
        {
          "name": "D#7",
          "midi": 99,
          "time": 212.57121599999562,
          "velocity": 0.7559055118110236,
          "duration": 0.10714275000000839
        },
        {
          "name": "C1",
          "midi": 24,
          "time": 212.57121599999562,
          "velocity": 0.7874015748031497,
          "duration": 0.026785687499994992
        },
        {
          "name": "B1",
          "midi": 35,
          "time": 212.57121599999562,
          "velocity": 0.7874015748031497,
          "duration": 0.026785687499994992
        },
        {
          "name": "D7",
          "midi": 98,
          "time": 212.78550149999563,
          "velocity": 0.7559055118110236,
          "duration": 0.053571374999989985
        },
        {
          "name": "G1",
          "midi": 31,
          "time": 212.78550149999563,
          "velocity": 0.7874015748031497,
          "duration": 0.026785687499994992
        },
        {
          "name": "D7",
          "midi": 98,
          "time": 212.83907287499562,
          "velocity": 0.7559055118110236,
          "duration": 0.053571374999989985
        },
        {
          "name": "F#1",
          "midi": 30,
          "time": 212.83907287499562,
          "velocity": 0.7874015748031497,
          "duration": 0.026785687499994992
        },
        {
          "name": "D7",
          "midi": 98,
          "time": 212.8926442499956,
          "velocity": 0.7559055118110236,
          "duration": 0.053571374999989985
        },
        {
          "name": "G1",
          "midi": 31,
          "time": 212.8926442499956,
          "velocity": 0.7874015748031497,
          "duration": 0.026785687499994992
        },
        {
          "name": "D7",
          "midi": 98,
          "time": 212.9462156249956,
          "velocity": 0.7559055118110236,
          "duration": 0.053571374999989985
        },
        {
          "name": "F#1",
          "midi": 30,
          "time": 212.9462156249956,
          "velocity": 0.7874015748031497,
          "duration": 0.026785687499994992
        },
        {
          "name": "C7",
          "midi": 96,
          "time": 212.9997869999956,
          "velocity": 0.7559055118110236,
          "duration": 0.10714274999997997
        },
        {
          "name": "D7",
          "midi": 98,
          "time": 212.9997869999956,
          "velocity": 0.7559055118110236,
          "duration": 0.053571374999989985
        },
        {
          "name": "C1",
          "midi": 24,
          "time": 212.9997869999956,
          "velocity": 0.7874015748031497,
          "duration": 0.026785687499994992
        },
        {
          "name": "G1",
          "midi": 31,
          "time": 212.9997869999956,
          "velocity": 0.7874015748031497,
          "duration": 0.026785687499994992
        },
        {
          "name": "D7",
          "midi": 98,
          "time": 213.21407249999558,
          "velocity": 0.7559055118110236,
          "duration": 0.10714275000000839
        },
        {
          "name": "F#1",
          "midi": 30,
          "time": 213.21407249999558,
          "velocity": 0.7874015748031497,
          "duration": 0.026785687499994992
        },
        {
          "name": "C7",
          "midi": 96,
          "time": 213.4283579999956,
          "velocity": 0.7559055118110236,
          "duration": 0.10714275000000839
        },
        {
          "name": "D7",
          "midi": 98,
          "time": 213.4283579999956,
          "velocity": 0.7559055118110236,
          "duration": 0.10714275000000839
        },
        {
          "name": "C1",
          "midi": 24,
          "time": 213.4283579999956,
          "velocity": 0.7874015748031497,
          "duration": 0.026785687499994992
        },
        {
          "name": "G1",
          "midi": 31,
          "time": 213.4283579999956,
          "velocity": 0.7874015748031497,
          "duration": 0.026785687499994992
        },
        {
          "name": "D7",
          "midi": 98,
          "time": 213.64264349999561,
          "velocity": 0.7559055118110236,
          "duration": 0.053571374999989985
        },
        {
          "name": "F#1",
          "midi": 30,
          "time": 213.64264349999561,
          "velocity": 0.7874015748031497,
          "duration": 0.026785687499994992
        },
        {
          "name": "D7",
          "midi": 98,
          "time": 213.6962148749956,
          "velocity": 0.7559055118110236,
          "duration": 0.053571374999989985
        },
        {
          "name": "G1",
          "midi": 31,
          "time": 213.6962148749956,
          "velocity": 0.7874015748031497,
          "duration": 0.026785687499994992
        },
        {
          "name": "D7",
          "midi": 98,
          "time": 213.7497862499956,
          "velocity": 0.7559055118110236,
          "duration": 0.053571374999989985
        },
        {
          "name": "F#1",
          "midi": 30,
          "time": 213.7497862499956,
          "velocity": 0.7874015748031497,
          "duration": 0.026785687499994992
        },
        {
          "name": "D7",
          "midi": 98,
          "time": 213.80335762499558,
          "velocity": 0.7559055118110236,
          "duration": 0.053571374999989985
        },
        {
          "name": "G1",
          "midi": 31,
          "time": 213.80335762499558,
          "velocity": 0.7874015748031497,
          "duration": 0.026785687499994992
        },
        {
          "name": "C7",
          "midi": 96,
          "time": 213.85692899999557,
          "velocity": 0.7559055118110236,
          "duration": 0.10714274999997997
        },
        {
          "name": "D7",
          "midi": 98,
          "time": 213.85692899999557,
          "velocity": 0.7559055118110236,
          "duration": 0.053571374999989985
        },
        {
          "name": "C1",
          "midi": 24,
          "time": 213.85692899999557,
          "velocity": 0.7874015748031497,
          "duration": 0.026785687499994992
        },
        {
          "name": "F#1",
          "midi": 30,
          "time": 213.85692899999557,
          "velocity": 0.7874015748031497,
          "duration": 0.026785687499994992
        },
        {
          "name": "D7",
          "midi": 98,
          "time": 214.07121449999556,
          "velocity": 0.7559055118110236,
          "duration": 0.10714275000000839
        },
        {
          "name": "G1",
          "midi": 31,
          "time": 214.07121449999556,
          "velocity": 0.7874015748031497,
          "duration": 0.026785687499994992
        },
        {
          "name": "C7",
          "midi": 96,
          "time": 214.28549999999558,
          "velocity": 0.7559055118110236,
          "duration": 0.10714275000000839
        },
        {
          "name": "D7",
          "midi": 98,
          "time": 214.28549999999558,
          "velocity": 0.7559055118110236,
          "duration": 0.10714275000000839
        },
        {
          "name": "C1",
          "midi": 24,
          "time": 214.28549999999558,
          "velocity": 0.7874015748031497,
          "duration": 0.026785687499994992
        },
        {
          "name": "F#1",
          "midi": 30,
          "time": 214.28549999999558,
          "velocity": 0.7874015748031497,
          "duration": 0.026785687499994992
        },
        {
          "name": "D7",
          "midi": 98,
          "time": 214.4997854999956,
          "velocity": 0.7559055118110236,
          "duration": 0.053571374999989985
        },
        {
          "name": "G1",
          "midi": 31,
          "time": 214.4997854999956,
          "velocity": 0.7874015748031497,
          "duration": 0.026785687499994992
        },
        {
          "name": "D7",
          "midi": 98,
          "time": 214.5533568749956,
          "velocity": 0.7559055118110236,
          "duration": 0.053571374999989985
        },
        {
          "name": "F#1",
          "midi": 30,
          "time": 214.5533568749956,
          "velocity": 0.7874015748031497,
          "duration": 0.026785687499994992
        },
        {
          "name": "D7",
          "midi": 98,
          "time": 214.60692824999558,
          "velocity": 0.7559055118110236,
          "duration": 0.053571374999989985
        },
        {
          "name": "G1",
          "midi": 31,
          "time": 214.60692824999558,
          "velocity": 0.7874015748031497,
          "duration": 0.026785687499994992
        },
        {
          "name": "D7",
          "midi": 98,
          "time": 214.66049962499557,
          "velocity": 0.7559055118110236,
          "duration": 0.053571374999989985
        },
        {
          "name": "F#1",
          "midi": 30,
          "time": 214.66049962499557,
          "velocity": 0.7874015748031497,
          "duration": 0.026785687499994992
        },
        {
          "name": "C7",
          "midi": 96,
          "time": 214.71407099999556,
          "velocity": 0.7559055118110236,
          "duration": 0.10714274999997997
        },
        {
          "name": "D7",
          "midi": 98,
          "time": 214.71407099999556,
          "velocity": 0.7559055118110236,
          "duration": 0.053571374999989985
        },
        {
          "name": "C1",
          "midi": 24,
          "time": 214.71407099999556,
          "velocity": 0.7874015748031497,
          "duration": 0.026785687499994992
        },
        {
          "name": "G1",
          "midi": 31,
          "time": 214.71407099999556,
          "velocity": 0.7874015748031497,
          "duration": 0.026785687499994992
        },
        {
          "name": "D7",
          "midi": 98,
          "time": 214.92835649999554,
          "velocity": 0.7559055118110236,
          "duration": 0.10714275000000839
        },
        {
          "name": "F#1",
          "midi": 30,
          "time": 214.92835649999554,
          "velocity": 0.7874015748031497,
          "duration": 0.026785687499994992
        },
        {
          "name": "C7",
          "midi": 96,
          "time": 215.14264199999556,
          "velocity": 0.7559055118110236,
          "duration": 0.10714275000000839
        },
        {
          "name": "D7",
          "midi": 98,
          "time": 215.14264199999556,
          "velocity": 0.7559055118110236,
          "duration": 0.10714275000000839
        },
        {
          "name": "C1",
          "midi": 24,
          "time": 215.14264199999556,
          "velocity": 0.7874015748031497,
          "duration": 0.026785687499994992
        },
        {
          "name": "G1",
          "midi": 31,
          "time": 215.14264199999556,
          "velocity": 0.7874015748031497,
          "duration": 0.026785687499994992
        },
        {
          "name": "D7",
          "midi": 98,
          "time": 215.35692749999558,
          "velocity": 0.7559055118110236,
          "duration": 0.053571374999989985
        },
        {
          "name": "F#1",
          "midi": 30,
          "time": 215.35692749999558,
          "velocity": 0.7874015748031497,
          "duration": 0.026785687499994992
        },
        {
          "name": "D7",
          "midi": 98,
          "time": 215.41049887499557,
          "velocity": 0.7559055118110236,
          "duration": 0.053571374999989985
        },
        {
          "name": "G1",
          "midi": 31,
          "time": 215.41049887499557,
          "velocity": 0.7874015748031497,
          "duration": 0.026785687499994992
        },
        {
          "name": "D7",
          "midi": 98,
          "time": 215.46407024999556,
          "velocity": 0.7559055118110236,
          "duration": 0.053571374999989985
        },
        {
          "name": "F#1",
          "midi": 30,
          "time": 215.46407024999556,
          "velocity": 0.7874015748031497,
          "duration": 0.026785687499994992
        },
        {
          "name": "D7",
          "midi": 98,
          "time": 215.51764162499555,
          "velocity": 0.7559055118110236,
          "duration": 0.053571374999989985
        },
        {
          "name": "G1",
          "midi": 31,
          "time": 215.51764162499555,
          "velocity": 0.7874015748031497,
          "duration": 0.026785687499994992
        },
        {
          "name": "C7",
          "midi": 96,
          "time": 215.57121299999554,
          "velocity": 0.7559055118110236,
          "duration": 0.10714274999997997
        },
        {
          "name": "D7",
          "midi": 98,
          "time": 215.57121299999554,
          "velocity": 0.7559055118110236,
          "duration": 0.053571374999989985
        },
        {
          "name": "C1",
          "midi": 24,
          "time": 215.57121299999554,
          "velocity": 0.7874015748031497,
          "duration": 0.026785687499994992
        },
        {
          "name": "F#1",
          "midi": 30,
          "time": 215.57121299999554,
          "velocity": 0.7874015748031497,
          "duration": 0.026785687499994992
        },
        {
          "name": "D#7",
          "midi": 99,
          "time": 215.78549849999553,
          "velocity": 0.7559055118110236,
          "duration": 0.10714275000000839
        },
        {
          "name": "F#2",
          "midi": 42,
          "time": 215.78549849999553,
          "velocity": 0.7874015748031497,
          "duration": 0.026785687499994992
        },
        {
          "name": "D#7",
          "midi": 99,
          "time": 215.89264124999553,
          "velocity": 0.7559055118110236,
          "duration": 0.10714275000000839
        },
        {
          "name": "B1",
          "midi": 35,
          "time": 215.89264124999553,
          "velocity": 0.7874015748031497,
          "duration": 0.026785687499994992
        },
        {
          "name": "C7",
          "midi": 96,
          "time": 215.99978399999554,
          "velocity": 0.7559055118110236,
          "duration": 0.10714275000000839
        },
        {
          "name": "D#7",
          "midi": 99,
          "time": 215.99978399999554,
          "velocity": 0.7559055118110236,
          "duration": 0.10714275000000839
        },
        {
          "name": "C1",
          "midi": 24,
          "time": 215.99978399999554,
          "velocity": 0.7874015748031497,
          "duration": 0.026785687499994992
        },
        {
          "name": "F#2",
          "midi": 42,
          "time": 215.99978399999554,
          "velocity": 0.7874015748031497,
          "duration": 0.026785687499994992
        },
        {
          "name": "D7",
          "midi": 98,
          "time": 216.21406949999556,
          "velocity": 0.7559055118110236,
          "duration": 0.053571374999989985
        },
        {
          "name": "F#1",
          "midi": 30,
          "time": 216.21406949999556,
          "velocity": 0.7874015748031497,
          "duration": 0.026785687499994992
        },
        {
          "name": "D7",
          "midi": 98,
          "time": 216.26764087499555,
          "velocity": 0.7559055118110236,
          "duration": 0.053571374999989985
        },
        {
          "name": "G1",
          "midi": 31,
          "time": 216.26764087499555,
          "velocity": 0.7874015748031497,
          "duration": 0.026785687499994992
        },
        {
          "name": "D7",
          "midi": 98,
          "time": 216.32121224999554,
          "velocity": 0.7559055118110236,
          "duration": 0.053571374999989985
        },
        {
          "name": "F#1",
          "midi": 30,
          "time": 216.32121224999554,
          "velocity": 0.7874015748031497,
          "duration": 0.026785687499994992
        },
        {
          "name": "D7",
          "midi": 98,
          "time": 216.37478362499553,
          "velocity": 0.7559055118110236,
          "duration": 0.053571374999989985
        },
        {
          "name": "G1",
          "midi": 31,
          "time": 216.37478362499553,
          "velocity": 0.7874015748031497,
          "duration": 0.026785687499994992
        },
        {
          "name": "C7",
          "midi": 96,
          "time": 216.42835499999552,
          "velocity": 0.7559055118110236,
          "duration": 0.10714274999997997
        },
        {
          "name": "D7",
          "midi": 98,
          "time": 216.42835499999552,
          "velocity": 0.7559055118110236,
          "duration": 0.053571374999989985
        },
        {
          "name": "C1",
          "midi": 24,
          "time": 216.42835499999552,
          "velocity": 0.7874015748031497,
          "duration": 0.026785687499994992
        },
        {
          "name": "F#1",
          "midi": 30,
          "time": 216.42835499999552,
          "velocity": 0.7874015748031497,
          "duration": 0.026785687499994992
        },
        {
          "name": "D7",
          "midi": 98,
          "time": 216.6426404999955,
          "velocity": 0.7559055118110236,
          "duration": 0.10714275000000839
        },
        {
          "name": "G1",
          "midi": 31,
          "time": 216.6426404999955,
          "velocity": 0.7874015748031497,
          "duration": 0.026785687499994992
        },
        {
          "name": "C7",
          "midi": 96,
          "time": 216.85692599999552,
          "velocity": 0.7559055118110236,
          "duration": 0.10714275000000839
        },
        {
          "name": "D7",
          "midi": 98,
          "time": 216.85692599999552,
          "velocity": 0.7559055118110236,
          "duration": 0.10714275000000839
        },
        {
          "name": "C1",
          "midi": 24,
          "time": 216.85692599999552,
          "velocity": 0.7874015748031497,
          "duration": 0.026785687499994992
        },
        {
          "name": "F#1",
          "midi": 30,
          "time": 216.85692599999552,
          "velocity": 0.7874015748031497,
          "duration": 0.026785687499994992
        },
        {
          "name": "D7",
          "midi": 98,
          "time": 217.07121149999554,
          "velocity": 0.7559055118110236,
          "duration": 0.053571374999989985
        },
        {
          "name": "G1",
          "midi": 31,
          "time": 217.07121149999554,
          "velocity": 0.7874015748031497,
          "duration": 0.026785687499994992
        },
        {
          "name": "D7",
          "midi": 98,
          "time": 217.12478287499553,
          "velocity": 0.7559055118110236,
          "duration": 0.053571374999989985
        },
        {
          "name": "F#1",
          "midi": 30,
          "time": 217.12478287499553,
          "velocity": 0.7874015748031497,
          "duration": 0.026785687499994992
        },
        {
          "name": "D7",
          "midi": 98,
          "time": 217.17835424999552,
          "velocity": 0.7559055118110236,
          "duration": 0.053571374999989985
        },
        {
          "name": "G1",
          "midi": 31,
          "time": 217.17835424999552,
          "velocity": 0.7874015748031497,
          "duration": 0.026785687499994992
        },
        {
          "name": "D7",
          "midi": 98,
          "time": 217.2319256249955,
          "velocity": 0.7559055118110236,
          "duration": 0.053571374999989985
        },
        {
          "name": "F#1",
          "midi": 30,
          "time": 217.2319256249955,
          "velocity": 0.7874015748031497,
          "duration": 0.026785687499994992
        },
        {
          "name": "C7",
          "midi": 96,
          "time": 217.2854969999955,
          "velocity": 0.7559055118110236,
          "duration": 0.10714274999997997
        },
        {
          "name": "D7",
          "midi": 98,
          "time": 217.2854969999955,
          "velocity": 0.7559055118110236,
          "duration": 0.053571374999989985
        },
        {
          "name": "C1",
          "midi": 24,
          "time": 217.2854969999955,
          "velocity": 0.7874015748031497,
          "duration": 0.026785687499994992
        },
        {
          "name": "G1",
          "midi": 31,
          "time": 217.2854969999955,
          "velocity": 0.7874015748031497,
          "duration": 0.026785687499994992
        },
        {
          "name": "D7",
          "midi": 98,
          "time": 217.4997824999955,
          "velocity": 0.7559055118110236,
          "duration": 0.10714275000000839
        },
        {
          "name": "F#1",
          "midi": 30,
          "time": 217.4997824999955,
          "velocity": 0.7874015748031497,
          "duration": 0.026785687499994992
        },
        {
          "name": "C7",
          "midi": 96,
          "time": 217.7140679999955,
          "velocity": 0.7559055118110236,
          "duration": 0.10714275000000839
        },
        {
          "name": "D7",
          "midi": 98,
          "time": 217.7140679999955,
          "velocity": 0.7559055118110236,
          "duration": 0.10714275000000839
        },
        {
          "name": "C1",
          "midi": 24,
          "time": 217.7140679999955,
          "velocity": 0.7874015748031497,
          "duration": 0.026785687499994992
        },
        {
          "name": "G1",
          "midi": 31,
          "time": 217.7140679999955,
          "velocity": 0.7874015748031497,
          "duration": 0.026785687499994992
        },
        {
          "name": "C7",
          "midi": 96,
          "time": 219.42835199999553,
          "velocity": 0.7559055118110236,
          "duration": 0.10714275000000839
        },
        {
          "name": "C#7",
          "midi": 97,
          "time": 219.42835199999553,
          "velocity": 0.7559055118110236,
          "duration": 0.10714275000000839
        },
        {
          "name": "D7",
          "midi": 98,
          "time": 219.42835199999553,
          "velocity": 0.7559055118110236,
          "duration": 0.10714275000000839
        },
        {
          "name": "C1",
          "midi": 24,
          "time": 219.42835199999553,
          "velocity": 0.7874015748031497,
          "duration": 0.026785687499994992
        },
        {
          "name": "G1",
          "midi": 31,
          "time": 219.42835199999553,
          "velocity": 0.7874015748031497,
          "duration": 0.026785687499994992
        },
        {
          "name": "D1",
          "midi": 26,
          "time": 219.42835199999553,
          "velocity": 0.7874015748031497,
          "duration": 0.026785687499994992
        },
        {
          "name": "D7",
          "midi": 98,
          "time": 219.64263749999554,
          "velocity": 0.7559055118110236,
          "duration": 0.053571374999989985
        },
        {
          "name": "G1",
          "midi": 31,
          "time": 219.64263749999554,
          "velocity": 0.7874015748031497,
          "duration": 0.026785687499994992
        },
        {
          "name": "D7",
          "midi": 98,
          "time": 219.69620887499553,
          "velocity": 0.7559055118110236,
          "duration": 0.053571374999989985
        },
        {
          "name": "F#1",
          "midi": 30,
          "time": 219.69620887499553,
          "velocity": 0.7874015748031497,
          "duration": 0.026785687499994992
        },
        {
          "name": "D7",
          "midi": 98,
          "time": 219.74978024999552,
          "velocity": 0.7559055118110236,
          "duration": 0.053571374999989985
        },
        {
          "name": "G1",
          "midi": 31,
          "time": 219.74978024999552,
          "velocity": 0.7874015748031497,
          "duration": 0.026785687499994992
        },
        {
          "name": "D7",
          "midi": 98,
          "time": 219.8033516249955,
          "velocity": 0.7559055118110236,
          "duration": 0.053571374999989985
        },
        {
          "name": "F#1",
          "midi": 30,
          "time": 219.8033516249955,
          "velocity": 0.7874015748031497,
          "duration": 0.026785687499994992
        },
        {
          "name": "C7",
          "midi": 96,
          "time": 219.8569229999955,
          "velocity": 0.7559055118110236,
          "duration": 0.10714274999997997
        },
        {
          "name": "C#7",
          "midi": 97,
          "time": 219.8569229999955,
          "velocity": 0.7559055118110236,
          "duration": 0.10714274999997997
        },
        {
          "name": "D7",
          "midi": 98,
          "time": 219.8569229999955,
          "velocity": 0.7559055118110236,
          "duration": 0.053571374999989985
        },
        {
          "name": "C1",
          "midi": 24,
          "time": 219.8569229999955,
          "velocity": 0.7874015748031497,
          "duration": 0.026785687499994992
        },
        {
          "name": "G1",
          "midi": 31,
          "time": 219.8569229999955,
          "velocity": 0.7874015748031497,
          "duration": 0.026785687499994992
        },
        {
          "name": "D1",
          "midi": 26,
          "time": 219.8569229999955,
          "velocity": 0.7874015748031497,
          "duration": 0.026785687499994992
        },
        {
          "name": "C#7",
          "midi": 97,
          "time": 220.0712084999955,
          "velocity": 0.7559055118110236,
          "duration": 0.10714275000000839
        },
        {
          "name": "D7",
          "midi": 98,
          "time": 220.0712084999955,
          "velocity": 0.7559055118110236,
          "duration": 0.10714275000000839
        },
        {
          "name": "G1",
          "midi": 31,
          "time": 220.0712084999955,
          "velocity": 0.7874015748031497,
          "duration": 0.026785687499994992
        },
        {
          "name": "D1",
          "midi": 26,
          "time": 220.0712084999955,
          "velocity": 0.7874015748031497,
          "duration": 0.026785687499994992
        },
        {
          "name": "C7",
          "midi": 96,
          "time": 220.2854939999955,
          "velocity": 0.7559055118110236,
          "duration": 0.10714275000000839
        },
        {
          "name": "C#7",
          "midi": 97,
          "time": 220.2854939999955,
          "velocity": 0.7559055118110236,
          "duration": 0.10714275000000839
        },
        {
          "name": "D7",
          "midi": 98,
          "time": 220.2854939999955,
          "velocity": 0.7559055118110236,
          "duration": 0.10714275000000839
        },
        {
          "name": "C1",
          "midi": 24,
          "time": 220.2854939999955,
          "velocity": 0.7874015748031497,
          "duration": 0.026785687499994992
        },
        {
          "name": "G1",
          "midi": 31,
          "time": 220.2854939999955,
          "velocity": 0.7874015748031497,
          "duration": 0.026785687499994992
        },
        {
          "name": "D1",
          "midi": 26,
          "time": 220.2854939999955,
          "velocity": 0.7874015748031497,
          "duration": 0.026785687499994992
        },
        {
          "name": "D7",
          "midi": 98,
          "time": 220.49977949999553,
          "velocity": 0.7559055118110236,
          "duration": 0.053571374999989985
        },
        {
          "name": "G1",
          "midi": 31,
          "time": 220.49977949999553,
          "velocity": 0.7874015748031497,
          "duration": 0.026785687499994992
        },
        {
          "name": "D7",
          "midi": 98,
          "time": 220.55335087499552,
          "velocity": 0.7559055118110236,
          "duration": 0.053571374999989985
        },
        {
          "name": "F#1",
          "midi": 30,
          "time": 220.55335087499552,
          "velocity": 0.7874015748031497,
          "duration": 0.026785687499994992
        },
        {
          "name": "D7",
          "midi": 98,
          "time": 220.6069222499955,
          "velocity": 0.7559055118110236,
          "duration": 0.053571374999989985
        },
        {
          "name": "G1",
          "midi": 31,
          "time": 220.6069222499955,
          "velocity": 0.7874015748031497,
          "duration": 0.026785687499994992
        },
        {
          "name": "D7",
          "midi": 98,
          "time": 220.6604936249955,
          "velocity": 0.7559055118110236,
          "duration": 0.053571374999989985
        },
        {
          "name": "F#1",
          "midi": 30,
          "time": 220.6604936249955,
          "velocity": 0.7874015748031497,
          "duration": 0.026785687499994992
        },
        {
          "name": "C7",
          "midi": 96,
          "time": 220.7140649999955,
          "velocity": 0.7559055118110236,
          "duration": 0.10714274999997997
        },
        {
          "name": "C#7",
          "midi": 97,
          "time": 220.7140649999955,
          "velocity": 0.7559055118110236,
          "duration": 0.10714274999997997
        },
        {
          "name": "D7",
          "midi": 98,
          "time": 220.7140649999955,
          "velocity": 0.7559055118110236,
          "duration": 0.053571374999989985
        },
        {
          "name": "C1",
          "midi": 24,
          "time": 220.7140649999955,
          "velocity": 0.7874015748031497,
          "duration": 0.026785687499994992
        },
        {
          "name": "G1",
          "midi": 31,
          "time": 220.7140649999955,
          "velocity": 0.7874015748031497,
          "duration": 0.026785687499994992
        },
        {
          "name": "D1",
          "midi": 26,
          "time": 220.7140649999955,
          "velocity": 0.7874015748031497,
          "duration": 0.026785687499994992
        },
        {
          "name": "D7",
          "midi": 98,
          "time": 220.92835049999547,
          "velocity": 0.7559055118110236,
          "duration": 0.10714275000000839
        },
        {
          "name": "G1",
          "midi": 31,
          "time": 220.92835049999547,
          "velocity": 0.7874015748031497,
          "duration": 0.026785687499994992
        },
        {
          "name": "C7",
          "midi": 96,
          "time": 221.1426359999955,
          "velocity": 0.7559055118110236,
          "duration": 0.10714275000000839
        },
        {
          "name": "C#7",
          "midi": 97,
          "time": 221.1426359999955,
          "velocity": 0.7559055118110236,
          "duration": 0.10714275000000839
        },
        {
          "name": "D7",
          "midi": 98,
          "time": 221.1426359999955,
          "velocity": 0.7559055118110236,
          "duration": 0.10714275000000839
        },
        {
          "name": "C1",
          "midi": 24,
          "time": 221.1426359999955,
          "velocity": 0.7874015748031497,
          "duration": 0.026785687499994992
        },
        {
          "name": "G1",
          "midi": 31,
          "time": 221.1426359999955,
          "velocity": 0.7874015748031497,
          "duration": 0.026785687499994992
        },
        {
          "name": "D1",
          "midi": 26,
          "time": 221.1426359999955,
          "velocity": 0.7874015748031497,
          "duration": 0.026785687499994992
        },
        {
          "name": "D7",
          "midi": 98,
          "time": 221.3569214999955,
          "velocity": 0.7559055118110236,
          "duration": 0.053571374999989985
        },
        {
          "name": "G1",
          "midi": 31,
          "time": 221.3569214999955,
          "velocity": 0.7874015748031497,
          "duration": 0.026785687499994992
        },
        {
          "name": "D7",
          "midi": 98,
          "time": 221.4104928749955,
          "velocity": 0.7559055118110236,
          "duration": 0.053571374999989985
        },
        {
          "name": "F#1",
          "midi": 30,
          "time": 221.4104928749955,
          "velocity": 0.7874015748031497,
          "duration": 0.026785687499994992
        },
        {
          "name": "D7",
          "midi": 98,
          "time": 221.4640642499955,
          "velocity": 0.7559055118110236,
          "duration": 0.053571374999989985
        },
        {
          "name": "G1",
          "midi": 31,
          "time": 221.4640642499955,
          "velocity": 0.7874015748031497,
          "duration": 0.026785687499994992
        },
        {
          "name": "D7",
          "midi": 98,
          "time": 221.51763562499548,
          "velocity": 0.7559055118110236,
          "duration": 0.053571374999989985
        },
        {
          "name": "F#1",
          "midi": 30,
          "time": 221.51763562499548,
          "velocity": 0.7874015748031497,
          "duration": 0.026785687499994992
        },
        {
          "name": "C7",
          "midi": 96,
          "time": 221.57120699999547,
          "velocity": 0.7559055118110236,
          "duration": 0.10714274999997997
        },
        {
          "name": "C#7",
          "midi": 97,
          "time": 221.57120699999547,
          "velocity": 0.7559055118110236,
          "duration": 0.10714274999997997
        },
        {
          "name": "D7",
          "midi": 98,
          "time": 221.57120699999547,
          "velocity": 0.7559055118110236,
          "duration": 0.053571374999989985
        },
        {
          "name": "C1",
          "midi": 24,
          "time": 221.57120699999547,
          "velocity": 0.7874015748031497,
          "duration": 0.026785687499994992
        },
        {
          "name": "G1",
          "midi": 31,
          "time": 221.57120699999547,
          "velocity": 0.7874015748031497,
          "duration": 0.026785687499994992
        },
        {
          "name": "D1",
          "midi": 26,
          "time": 221.57120699999547,
          "velocity": 0.7874015748031497,
          "duration": 0.026785687499994992
        },
        {
          "name": "C#7",
          "midi": 97,
          "time": 221.78549249999546,
          "velocity": 0.7559055118110236,
          "duration": 0.10714275000000839
        },
        {
          "name": "D7",
          "midi": 98,
          "time": 221.78549249999546,
          "velocity": 0.7559055118110236,
          "duration": 0.10714275000000839
        },
        {
          "name": "G1",
          "midi": 31,
          "time": 221.78549249999546,
          "velocity": 0.7874015748031497,
          "duration": 0.026785687499994992
        },
        {
          "name": "D1",
          "midi": 26,
          "time": 221.78549249999546,
          "velocity": 0.7874015748031497,
          "duration": 0.026785687499994992
        },
        {
          "name": "C7",
          "midi": 96,
          "time": 221.99977799999547,
          "velocity": 0.7559055118110236,
          "duration": 0.10714275000000839
        },
        {
          "name": "C#7",
          "midi": 97,
          "time": 221.99977799999547,
          "velocity": 0.7559055118110236,
          "duration": 0.10714275000000839
        },
        {
          "name": "D7",
          "midi": 98,
          "time": 221.99977799999547,
          "velocity": 0.7559055118110236,
          "duration": 0.10714275000000839
        },
        {
          "name": "C1",
          "midi": 24,
          "time": 221.99977799999547,
          "velocity": 0.7874015748031497,
          "duration": 0.026785687499994992
        },
        {
          "name": "G1",
          "midi": 31,
          "time": 221.99977799999547,
          "velocity": 0.7874015748031497,
          "duration": 0.026785687499994992
        },
        {
          "name": "D1",
          "midi": 26,
          "time": 221.99977799999547,
          "velocity": 0.7874015748031497,
          "duration": 0.026785687499994992
        },
        {
          "name": "D7",
          "midi": 98,
          "time": 222.2140634999955,
          "velocity": 0.7559055118110236,
          "duration": 0.053571374999989985
        },
        {
          "name": "G1",
          "midi": 31,
          "time": 222.2140634999955,
          "velocity": 0.7874015748031497,
          "duration": 0.026785687499994992
        },
        {
          "name": "D7",
          "midi": 98,
          "time": 222.26763487499548,
          "velocity": 0.7559055118110236,
          "duration": 0.053571374999989985
        },
        {
          "name": "F#1",
          "midi": 30,
          "time": 222.26763487499548,
          "velocity": 0.7874015748031497,
          "duration": 0.026785687499994992
        },
        {
          "name": "D7",
          "midi": 98,
          "time": 222.32120624999547,
          "velocity": 0.7559055118110236,
          "duration": 0.053571374999989985
        },
        {
          "name": "G1",
          "midi": 31,
          "time": 222.32120624999547,
          "velocity": 0.7874015748031497,
          "duration": 0.026785687499994992
        },
        {
          "name": "D7",
          "midi": 98,
          "time": 222.37477762499546,
          "velocity": 0.7559055118110236,
          "duration": 0.053571374999989985
        },
        {
          "name": "F#1",
          "midi": 30,
          "time": 222.37477762499546,
          "velocity": 0.7874015748031497,
          "duration": 0.026785687499994992
        },
        {
          "name": "C7",
          "midi": 96,
          "time": 222.42834899999545,
          "velocity": 0.7559055118110236,
          "duration": 0.10714274999997997
        },
        {
          "name": "C#7",
          "midi": 97,
          "time": 222.42834899999545,
          "velocity": 0.7559055118110236,
          "duration": 0.10714274999997997
        },
        {
          "name": "D7",
          "midi": 98,
          "time": 222.42834899999545,
          "velocity": 0.7559055118110236,
          "duration": 0.053571374999989985
        },
        {
          "name": "C1",
          "midi": 24,
          "time": 222.42834899999545,
          "velocity": 0.7874015748031497,
          "duration": 0.026785687499994992
        },
        {
          "name": "G1",
          "midi": 31,
          "time": 222.42834899999545,
          "velocity": 0.7874015748031497,
          "duration": 0.026785687499994992
        },
        {
          "name": "D1",
          "midi": 26,
          "time": 222.42834899999545,
          "velocity": 0.7874015748031497,
          "duration": 0.026785687499994992
        },
        {
          "name": "D#7",
          "midi": 99,
          "time": 222.64263449999544,
          "velocity": 0.7559055118110236,
          "duration": 0.10714275000000839
        },
        {
          "name": "F#2",
          "midi": 42,
          "time": 222.64263449999544,
          "velocity": 0.7874015748031497,
          "duration": 0.026785687499994992
        },
        {
          "name": "D#7",
          "midi": 99,
          "time": 222.74977724999545,
          "velocity": 0.7559055118110236,
          "duration": 0.10714275000000839
        },
        {
          "name": "B1",
          "midi": 35,
          "time": 222.74977724999545,
          "velocity": 0.7874015748031497,
          "duration": 0.026785687499994992
        },
        {
          "name": "C7",
          "midi": 96,
          "time": 222.85691999999545,
          "velocity": 0.7559055118110236,
          "duration": 0.10714275000000839
        },
        {
          "name": "C#7",
          "midi": 97,
          "time": 222.85691999999545,
          "velocity": 0.7559055118110236,
          "duration": 0.10714275000000839
        },
        {
          "name": "D#7",
          "midi": 99,
          "time": 222.85691999999545,
          "velocity": 0.7559055118110236,
          "duration": 0.10714275000000839
        },
        {
          "name": "C1",
          "midi": 24,
          "time": 222.85691999999545,
          "velocity": 0.7874015748031497,
          "duration": 0.026785687499994992
        },
        {
          "name": "F#2",
          "midi": 42,
          "time": 222.85691999999545,
          "velocity": 0.7874015748031497,
          "duration": 0.026785687499994992
        },
        {
          "name": "D1",
          "midi": 26,
          "time": 222.85691999999545,
          "velocity": 0.7874015748031497,
          "duration": 0.026785687499994992
        },
        {
          "name": "D7",
          "midi": 98,
          "time": 223.07120549999547,
          "velocity": 0.7559055118110236,
          "duration": 0.053571374999989985
        },
        {
          "name": "G1",
          "midi": 31,
          "time": 223.07120549999547,
          "velocity": 0.7874015748031497,
          "duration": 0.026785687499994992
        },
        {
          "name": "D7",
          "midi": 98,
          "time": 223.12477687499546,
          "velocity": 0.7559055118110236,
          "duration": 0.053571374999989985
        },
        {
          "name": "F#1",
          "midi": 30,
          "time": 223.12477687499546,
          "velocity": 0.7874015748031497,
          "duration": 0.026785687499994992
        },
        {
          "name": "D7",
          "midi": 98,
          "time": 223.17834824999545,
          "velocity": 0.7559055118110236,
          "duration": 0.053571374999989985
        },
        {
          "name": "G1",
          "midi": 31,
          "time": 223.17834824999545,
          "velocity": 0.7874015748031497,
          "duration": 0.026785687499994992
        },
        {
          "name": "D7",
          "midi": 98,
          "time": 223.23191962499544,
          "velocity": 0.7559055118110236,
          "duration": 0.053571374999989985
        },
        {
          "name": "F#1",
          "midi": 30,
          "time": 223.23191962499544,
          "velocity": 0.7874015748031497,
          "duration": 0.026785687499994992
        },
        {
          "name": "C7",
          "midi": 96,
          "time": 223.28549099999543,
          "velocity": 0.7559055118110236,
          "duration": 0.10714274999997997
        },
        {
          "name": "C#7",
          "midi": 97,
          "time": 223.28549099999543,
          "velocity": 0.7559055118110236,
          "duration": 0.10714274999997997
        },
        {
          "name": "D7",
          "midi": 98,
          "time": 223.28549099999543,
          "velocity": 0.7559055118110236,
          "duration": 0.053571374999989985
        },
        {
          "name": "C1",
          "midi": 24,
          "time": 223.28549099999543,
          "velocity": 0.7874015748031497,
          "duration": 0.026785687499994992
        },
        {
          "name": "G1",
          "midi": 31,
          "time": 223.28549099999543,
          "velocity": 0.7874015748031497,
          "duration": 0.026785687499994992
        },
        {
          "name": "D1",
          "midi": 26,
          "time": 223.28549099999543,
          "velocity": 0.7874015748031497,
          "duration": 0.026785687499994992
        },
        {
          "name": "C#7",
          "midi": 97,
          "time": 223.49977649999542,
          "velocity": 0.7559055118110236,
          "duration": 0.10714275000000839
        },
        {
          "name": "D7",
          "midi": 98,
          "time": 223.49977649999542,
          "velocity": 0.7559055118110236,
          "duration": 0.10714275000000839
        },
        {
          "name": "G1",
          "midi": 31,
          "time": 223.49977649999542,
          "velocity": 0.7874015748031497,
          "duration": 0.026785687499994992
        },
        {
          "name": "D1",
          "midi": 26,
          "time": 223.49977649999542,
          "velocity": 0.7874015748031497,
          "duration": 0.026785687499994992
        },
        {
          "name": "C7",
          "midi": 96,
          "time": 223.71406199999544,
          "velocity": 0.7559055118110236,
          "duration": 0.10714275000000839
        },
        {
          "name": "C#7",
          "midi": 97,
          "time": 223.71406199999544,
          "velocity": 0.7559055118110236,
          "duration": 0.10714275000000839
        },
        {
          "name": "D7",
          "midi": 98,
          "time": 223.71406199999544,
          "velocity": 0.7559055118110236,
          "duration": 0.10714275000000839
        },
        {
          "name": "C1",
          "midi": 24,
          "time": 223.71406199999544,
          "velocity": 0.7874015748031497,
          "duration": 0.026785687499994992
        },
        {
          "name": "G1",
          "midi": 31,
          "time": 223.71406199999544,
          "velocity": 0.7874015748031497,
          "duration": 0.026785687499994992
        },
        {
          "name": "D1",
          "midi": 26,
          "time": 223.71406199999544,
          "velocity": 0.7874015748031497,
          "duration": 0.026785687499994992
        },
        {
          "name": "D7",
          "midi": 98,
          "time": 223.92834749999545,
          "velocity": 0.7559055118110236,
          "duration": 0.053571374999989985
        },
        {
          "name": "G1",
          "midi": 31,
          "time": 223.92834749999545,
          "velocity": 0.7874015748031497,
          "duration": 0.026785687499994992
        },
        {
          "name": "D7",
          "midi": 98,
          "time": 223.98191887499544,
          "velocity": 0.7559055118110236,
          "duration": 0.053571374999989985
        },
        {
          "name": "F#1",
          "midi": 30,
          "time": 223.98191887499544,
          "velocity": 0.7874015748031497,
          "duration": 0.026785687499994992
        },
        {
          "name": "D7",
          "midi": 98,
          "time": 224.03549024999543,
          "velocity": 0.7559055118110236,
          "duration": 0.053571374999989985
        },
        {
          "name": "G1",
          "midi": 31,
          "time": 224.03549024999543,
          "velocity": 0.7874015748031497,
          "duration": 0.026785687499994992
        },
        {
          "name": "D7",
          "midi": 98,
          "time": 224.08906162499542,
          "velocity": 0.7559055118110236,
          "duration": 0.053571374999989985
        },
        {
          "name": "F#1",
          "midi": 30,
          "time": 224.08906162499542,
          "velocity": 0.7874015748031497,
          "duration": 0.026785687499994992
        },
        {
          "name": "C7",
          "midi": 96,
          "time": 224.1426329999954,
          "velocity": 0.7559055118110236,
          "duration": 0.10714274999997997
        },
        {
          "name": "C#7",
          "midi": 97,
          "time": 224.1426329999954,
          "velocity": 0.7559055118110236,
          "duration": 0.10714274999997997
        },
        {
          "name": "D7",
          "midi": 98,
          "time": 224.1426329999954,
          "velocity": 0.7559055118110236,
          "duration": 0.053571374999989985
        },
        {
          "name": "C1",
          "midi": 24,
          "time": 224.1426329999954,
          "velocity": 0.7874015748031497,
          "duration": 0.026785687499994992
        },
        {
          "name": "G1",
          "midi": 31,
          "time": 224.1426329999954,
          "velocity": 0.7874015748031497,
          "duration": 0.026785687499994992
        },
        {
          "name": "D1",
          "midi": 26,
          "time": 224.1426329999954,
          "velocity": 0.7874015748031497,
          "duration": 0.026785687499994992
        },
        {
          "name": "D7",
          "midi": 98,
          "time": 224.3569184999954,
          "velocity": 0.7559055118110236,
          "duration": 0.10714275000000839
        },
        {
          "name": "G1",
          "midi": 31,
          "time": 224.3569184999954,
          "velocity": 0.7874015748031497,
          "duration": 0.026785687499994992
        },
        {
          "name": "C7",
          "midi": 96,
          "time": 224.57120399999542,
          "velocity": 0.7559055118110236,
          "duration": 0.10714275000000839
        },
        {
          "name": "C#7",
          "midi": 97,
          "time": 224.57120399999542,
          "velocity": 0.7559055118110236,
          "duration": 0.10714275000000839
        },
        {
          "name": "D7",
          "midi": 98,
          "time": 224.57120399999542,
          "velocity": 0.7559055118110236,
          "duration": 0.10714275000000839
        },
        {
          "name": "C1",
          "midi": 24,
          "time": 224.57120399999542,
          "velocity": 0.7874015748031497,
          "duration": 0.026785687499994992
        },
        {
          "name": "G1",
          "midi": 31,
          "time": 224.57120399999542,
          "velocity": 0.7874015748031497,
          "duration": 0.026785687499994992
        },
        {
          "name": "D1",
          "midi": 26,
          "time": 224.57120399999542,
          "velocity": 0.7874015748031497,
          "duration": 0.026785687499994992
        },
        {
          "name": "D7",
          "midi": 98,
          "time": 224.78548949999544,
          "velocity": 0.7559055118110236,
          "duration": 0.053571374999989985
        },
        {
          "name": "G1",
          "midi": 31,
          "time": 224.78548949999544,
          "velocity": 0.7874015748031497,
          "duration": 0.026785687499994992
        },
        {
          "name": "D7",
          "midi": 98,
          "time": 224.83906087499543,
          "velocity": 0.7559055118110236,
          "duration": 0.053571374999989985
        },
        {
          "name": "F#1",
          "midi": 30,
          "time": 224.83906087499543,
          "velocity": 0.7874015748031497,
          "duration": 0.026785687499994992
        },
        {
          "name": "D7",
          "midi": 98,
          "time": 224.89263224999542,
          "velocity": 0.7559055118110236,
          "duration": 0.053571374999989985
        },
        {
          "name": "G1",
          "midi": 31,
          "time": 224.89263224999542,
          "velocity": 0.7874015748031497,
          "duration": 0.026785687499994992
        },
        {
          "name": "D7",
          "midi": 98,
          "time": 224.9462036249954,
          "velocity": 0.7559055118110236,
          "duration": 0.053571374999989985
        },
        {
          "name": "F#1",
          "midi": 30,
          "time": 224.9462036249954,
          "velocity": 0.7874015748031497,
          "duration": 0.026785687499994992
        },
        {
          "name": "C7",
          "midi": 96,
          "time": 224.9997749999954,
          "velocity": 0.7559055118110236,
          "duration": 0.10714274999997997
        },
        {
          "name": "C#7",
          "midi": 97,
          "time": 224.9997749999954,
          "velocity": 0.7559055118110236,
          "duration": 0.10714274999997997
        },
        {
          "name": "D7",
          "midi": 98,
          "time": 224.9997749999954,
          "velocity": 0.7559055118110236,
          "duration": 0.053571374999989985
        },
        {
          "name": "C1",
          "midi": 24,
          "time": 224.9997749999954,
          "velocity": 0.7874015748031497,
          "duration": 0.026785687499994992
        },
        {
          "name": "G1",
          "midi": 31,
          "time": 224.9997749999954,
          "velocity": 0.7874015748031497,
          "duration": 0.026785687499994992
        },
        {
          "name": "D1",
          "midi": 26,
          "time": 224.9997749999954,
          "velocity": 0.7874015748031497,
          "duration": 0.026785687499994992
        },
        {
          "name": "C#7",
          "midi": 97,
          "time": 225.21406049999538,
          "velocity": 0.7559055118110236,
          "duration": 0.10714275000000839
        },
        {
          "name": "D7",
          "midi": 98,
          "time": 225.21406049999538,
          "velocity": 0.7559055118110236,
          "duration": 0.10714275000000839
        },
        {
          "name": "G1",
          "midi": 31,
          "time": 225.21406049999538,
          "velocity": 0.7874015748031497,
          "duration": 0.026785687499994992
        },
        {
          "name": "D1",
          "midi": 26,
          "time": 225.21406049999538,
          "velocity": 0.7874015748031497,
          "duration": 0.026785687499994992
        },
        {
          "name": "C7",
          "midi": 96,
          "time": 225.4283459999954,
          "velocity": 0.7559055118110236,
          "duration": 0.10714275000000839
        },
        {
          "name": "C#7",
          "midi": 97,
          "time": 225.4283459999954,
          "velocity": 0.7559055118110236,
          "duration": 0.10714275000000839
        },
        {
          "name": "D7",
          "midi": 98,
          "time": 225.4283459999954,
          "velocity": 0.7559055118110236,
          "duration": 0.10714275000000839
        },
        {
          "name": "C1",
          "midi": 24,
          "time": 225.4283459999954,
          "velocity": 0.7874015748031497,
          "duration": 0.026785687499994992
        },
        {
          "name": "G1",
          "midi": 31,
          "time": 225.4283459999954,
          "velocity": 0.7874015748031497,
          "duration": 0.026785687499994992
        },
        {
          "name": "D1",
          "midi": 26,
          "time": 225.4283459999954,
          "velocity": 0.7874015748031497,
          "duration": 0.026785687499994992
        },
        {
          "name": "D7",
          "midi": 98,
          "time": 225.64263149999542,
          "velocity": 0.7559055118110236,
          "duration": 0.053571374999989985
        },
        {
          "name": "G1",
          "midi": 31,
          "time": 225.64263149999542,
          "velocity": 0.7874015748031497,
          "duration": 0.026785687499994992
        },
        {
          "name": "D7",
          "midi": 98,
          "time": 225.6962028749954,
          "velocity": 0.7559055118110236,
          "duration": 0.053571374999989985
        },
        {
          "name": "F#1",
          "midi": 30,
          "time": 225.6962028749954,
          "velocity": 0.7874015748031497,
          "duration": 0.026785687499994992
        },
        {
          "name": "D7",
          "midi": 98,
          "time": 225.7497742499954,
          "velocity": 0.7559055118110236,
          "duration": 0.053571374999989985
        },
        {
          "name": "G1",
          "midi": 31,
          "time": 225.7497742499954,
          "velocity": 0.7874015748031497,
          "duration": 0.026785687499994992
        },
        {
          "name": "D7",
          "midi": 98,
          "time": 225.8033456249954,
          "velocity": 0.7559055118110236,
          "duration": 0.053571374999989985
        },
        {
          "name": "F#1",
          "midi": 30,
          "time": 225.8033456249954,
          "velocity": 0.7874015748031497,
          "duration": 0.026785687499994992
        },
        {
          "name": "C7",
          "midi": 96,
          "time": 225.85691699999538,
          "velocity": 0.7559055118110236,
          "duration": 0.10714274999997997
        },
        {
          "name": "C#7",
          "midi": 97,
          "time": 225.85691699999538,
          "velocity": 0.7559055118110236,
          "duration": 0.10714274999997997
        },
        {
          "name": "D7",
          "midi": 98,
          "time": 225.85691699999538,
          "velocity": 0.7559055118110236,
          "duration": 0.053571374999989985
        },
        {
          "name": "C1",
          "midi": 24,
          "time": 225.85691699999538,
          "velocity": 0.7874015748031497,
          "duration": 0.026785687499994992
        },
        {
          "name": "G1",
          "midi": 31,
          "time": 225.85691699999538,
          "velocity": 0.7874015748031497,
          "duration": 0.026785687499994992
        },
        {
          "name": "D1",
          "midi": 26,
          "time": 225.85691699999538,
          "velocity": 0.7874015748031497,
          "duration": 0.026785687499994992
        },
        {
          "name": "D#7",
          "midi": 99,
          "time": 226.07120249999537,
          "velocity": 0.7559055118110236,
          "duration": 0.10714275000000839
        },
        {
          "name": "F#2",
          "midi": 42,
          "time": 226.07120249999537,
          "velocity": 0.7874015748031497,
          "duration": 0.026785687499994992
        },
        {
          "name": "D#7",
          "midi": 99,
          "time": 226.17834524999537,
          "velocity": 0.7559055118110236,
          "duration": 0.10714275000000839
        },
        {
          "name": "B1",
          "midi": 35,
          "time": 226.17834524999537,
          "velocity": 0.7874015748031497,
          "duration": 0.026785687499994992
        },
        {
          "name": "C7",
          "midi": 96,
          "time": 226.28548799999538,
          "velocity": 0.7559055118110236,
          "duration": 0.10714275000000839
        },
        {
          "name": "C#7",
          "midi": 97,
          "time": 226.28548799999538,
          "velocity": 0.7559055118110236,
          "duration": 0.10714275000000839
        },
        {
          "name": "D#7",
          "midi": 99,
          "time": 226.28548799999538,
          "velocity": 0.7559055118110236,
          "duration": 0.10714275000000839
        },
        {
          "name": "C1",
          "midi": 24,
          "time": 226.28548799999538,
          "velocity": 0.7874015748031497,
          "duration": 0.026785687499994992
        },
        {
          "name": "F#2",
          "midi": 42,
          "time": 226.28548799999538,
          "velocity": 0.7874015748031497,
          "duration": 0.026785687499994992
        },
        {
          "name": "D1",
          "midi": 26,
          "time": 226.28548799999538,
          "velocity": 0.7874015748031497,
          "duration": 0.026785687499994992
        },
        {
          "name": "D7",
          "midi": 98,
          "time": 226.4997734999954,
          "velocity": 0.7559055118110236,
          "duration": 0.053571374999989985
        },
        {
          "name": "G1",
          "midi": 31,
          "time": 226.4997734999954,
          "velocity": 0.7874015748031497,
          "duration": 0.026785687499994992
        },
        {
          "name": "D7",
          "midi": 98,
          "time": 226.5533448749954,
          "velocity": 0.7559055118110236,
          "duration": 0.053571374999989985
        },
        {
          "name": "F#1",
          "midi": 30,
          "time": 226.5533448749954,
          "velocity": 0.7874015748031497,
          "duration": 0.026785687499994992
        },
        {
          "name": "D7",
          "midi": 98,
          "time": 226.60691624999538,
          "velocity": 0.7559055118110236,
          "duration": 0.053571374999989985
        },
        {
          "name": "G1",
          "midi": 31,
          "time": 226.60691624999538,
          "velocity": 0.7874015748031497,
          "duration": 0.026785687499994992
        },
        {
          "name": "D7",
          "midi": 98,
          "time": 226.66048762499537,
          "velocity": 0.7559055118110236,
          "duration": 0.053571374999989985
        },
        {
          "name": "F#1",
          "midi": 30,
          "time": 226.66048762499537,
          "velocity": 0.7874015748031497,
          "duration": 0.026785687499994992
        },
        {
          "name": "C7",
          "midi": 96,
          "time": 226.71405899999536,
          "velocity": 0.7559055118110236,
          "duration": 0.10714274999997997
        },
        {
          "name": "C#7",
          "midi": 97,
          "time": 226.71405899999536,
          "velocity": 0.7559055118110236,
          "duration": 0.10714274999997997
        },
        {
          "name": "D7",
          "midi": 98,
          "time": 226.71405899999536,
          "velocity": 0.7559055118110236,
          "duration": 0.053571374999989985
        },
        {
          "name": "C1",
          "midi": 24,
          "time": 226.71405899999536,
          "velocity": 0.7874015748031497,
          "duration": 0.026785687499994992
        },
        {
          "name": "G1",
          "midi": 31,
          "time": 226.71405899999536,
          "velocity": 0.7874015748031497,
          "duration": 0.026785687499994992
        },
        {
          "name": "D1",
          "midi": 26,
          "time": 226.71405899999536,
          "velocity": 0.7874015748031497,
          "duration": 0.026785687499994992
        },
        {
          "name": "C#7",
          "midi": 97,
          "time": 226.92834449999535,
          "velocity": 0.7559055118110236,
          "duration": 0.10714275000000839
        },
        {
          "name": "D7",
          "midi": 98,
          "time": 226.92834449999535,
          "velocity": 0.7559055118110236,
          "duration": 0.10714275000000839
        },
        {
          "name": "G1",
          "midi": 31,
          "time": 226.92834449999535,
          "velocity": 0.7874015748031497,
          "duration": 0.026785687499994992
        },
        {
          "name": "D1",
          "midi": 26,
          "time": 226.92834449999535,
          "velocity": 0.7874015748031497,
          "duration": 0.026785687499994992
        },
        {
          "name": "C7",
          "midi": 96,
          "time": 227.14262999999536,
          "velocity": 0.7559055118110236,
          "duration": 0.10714275000000839
        },
        {
          "name": "C#7",
          "midi": 97,
          "time": 227.14262999999536,
          "velocity": 0.7559055118110236,
          "duration": 0.10714275000000839
        },
        {
          "name": "D7",
          "midi": 98,
          "time": 227.14262999999536,
          "velocity": 0.7559055118110236,
          "duration": 0.10714275000000839
        },
        {
          "name": "C1",
          "midi": 24,
          "time": 227.14262999999536,
          "velocity": 0.7874015748031497,
          "duration": 0.026785687499994992
        },
        {
          "name": "G1",
          "midi": 31,
          "time": 227.14262999999536,
          "velocity": 0.7874015748031497,
          "duration": 0.026785687499994992
        },
        {
          "name": "D1",
          "midi": 26,
          "time": 227.14262999999536,
          "velocity": 0.7874015748031497,
          "duration": 0.026785687499994992
        },
        {
          "name": "D7",
          "midi": 98,
          "time": 227.35691549999538,
          "velocity": 0.7559055118110236,
          "duration": 0.053571374999989985
        },
        {
          "name": "G1",
          "midi": 31,
          "time": 227.35691549999538,
          "velocity": 0.7874015748031497,
          "duration": 0.026785687499994992
        },
        {
          "name": "D7",
          "midi": 98,
          "time": 227.41048687499537,
          "velocity": 0.7559055118110236,
          "duration": 0.053571374999989985
        },
        {
          "name": "F#1",
          "midi": 30,
          "time": 227.41048687499537,
          "velocity": 0.7874015748031497,
          "duration": 0.026785687499994992
        },
        {
          "name": "D7",
          "midi": 98,
          "time": 227.46405824999536,
          "velocity": 0.7559055118110236,
          "duration": 0.053571374999989985
        },
        {
          "name": "G1",
          "midi": 31,
          "time": 227.46405824999536,
          "velocity": 0.7874015748031497,
          "duration": 0.026785687499994992
        },
        {
          "name": "D7",
          "midi": 98,
          "time": 227.51762962499535,
          "velocity": 0.7559055118110236,
          "duration": 0.053571374999989985
        },
        {
          "name": "F#1",
          "midi": 30,
          "time": 227.51762962499535,
          "velocity": 0.7874015748031497,
          "duration": 0.026785687499994992
        },
        {
          "name": "C7",
          "midi": 96,
          "time": 227.57120099999534,
          "velocity": 0.7559055118110236,
          "duration": 0.10714274999997997
        },
        {
          "name": "C#7",
          "midi": 97,
          "time": 227.57120099999534,
          "velocity": 0.7559055118110236,
          "duration": 0.10714274999997997
        },
        {
          "name": "D7",
          "midi": 98,
          "time": 227.57120099999534,
          "velocity": 0.7559055118110236,
          "duration": 0.053571374999989985
        },
        {
          "name": "C1",
          "midi": 24,
          "time": 227.57120099999534,
          "velocity": 0.7874015748031497,
          "duration": 0.026785687499994992
        },
        {
          "name": "G1",
          "midi": 31,
          "time": 227.57120099999534,
          "velocity": 0.7874015748031497,
          "duration": 0.026785687499994992
        },
        {
          "name": "D1",
          "midi": 26,
          "time": 227.57120099999534,
          "velocity": 0.7874015748031497,
          "duration": 0.026785687499994992
        },
        {
          "name": "D7",
          "midi": 98,
          "time": 227.78548649999533,
          "velocity": 0.7559055118110236,
          "duration": 0.10714275000000839
        },
        {
          "name": "G1",
          "midi": 31,
          "time": 227.78548649999533,
          "velocity": 0.7874015748031497,
          "duration": 0.026785687499994992
        },
        {
          "name": "C7",
          "midi": 96,
          "time": 227.99977199999535,
          "velocity": 0.7559055118110236,
          "duration": 0.10714275000000839
        },
        {
          "name": "C#7",
          "midi": 97,
          "time": 227.99977199999535,
          "velocity": 0.7559055118110236,
          "duration": 0.10714275000000839
        },
        {
          "name": "D7",
          "midi": 98,
          "time": 227.99977199999535,
          "velocity": 0.7559055118110236,
          "duration": 0.10714275000000839
        },
        {
          "name": "C1",
          "midi": 24,
          "time": 227.99977199999535,
          "velocity": 0.7874015748031497,
          "duration": 0.026785687499994992
        },
        {
          "name": "G1",
          "midi": 31,
          "time": 227.99977199999535,
          "velocity": 0.7874015748031497,
          "duration": 0.026785687499994992
        },
        {
          "name": "D1",
          "midi": 26,
          "time": 227.99977199999535,
          "velocity": 0.7874015748031497,
          "duration": 0.026785687499994992
        },
        {
          "name": "D7",
          "midi": 98,
          "time": 228.21405749999536,
          "velocity": 0.7559055118110236,
          "duration": 0.053571374999989985
        },
        {
          "name": "G1",
          "midi": 31,
          "time": 228.21405749999536,
          "velocity": 0.7874015748031497,
          "duration": 0.026785687499994992
        },
        {
          "name": "D7",
          "midi": 98,
          "time": 228.26762887499535,
          "velocity": 0.7559055118110236,
          "duration": 0.053571374999989985
        },
        {
          "name": "F#1",
          "midi": 30,
          "time": 228.26762887499535,
          "velocity": 0.7874015748031497,
          "duration": 0.026785687499994992
        },
        {
          "name": "D7",
          "midi": 98,
          "time": 228.32120024999534,
          "velocity": 0.7559055118110236,
          "duration": 0.053571374999989985
        },
        {
          "name": "G1",
          "midi": 31,
          "time": 228.32120024999534,
          "velocity": 0.7874015748031497,
          "duration": 0.026785687499994992
        },
        {
          "name": "D7",
          "midi": 98,
          "time": 228.37477162499533,
          "velocity": 0.7559055118110236,
          "duration": 0.053571374999989985
        },
        {
          "name": "F#1",
          "midi": 30,
          "time": 228.37477162499533,
          "velocity": 0.7874015748031497,
          "duration": 0.026785687499994992
        },
        {
          "name": "C7",
          "midi": 96,
          "time": 228.42834299999532,
          "velocity": 0.7559055118110236,
          "duration": 0.10714274999997997
        },
        {
          "name": "C#7",
          "midi": 97,
          "time": 228.42834299999532,
          "velocity": 0.7559055118110236,
          "duration": 0.10714274999997997
        },
        {
          "name": "D7",
          "midi": 98,
          "time": 228.42834299999532,
          "velocity": 0.7559055118110236,
          "duration": 0.053571374999989985
        },
        {
          "name": "C1",
          "midi": 24,
          "time": 228.42834299999532,
          "velocity": 0.7874015748031497,
          "duration": 0.026785687499994992
        },
        {
          "name": "G1",
          "midi": 31,
          "time": 228.42834299999532,
          "velocity": 0.7874015748031497,
          "duration": 0.026785687499994992
        },
        {
          "name": "D1",
          "midi": 26,
          "time": 228.42834299999532,
          "velocity": 0.7874015748031497,
          "duration": 0.026785687499994992
        },
        {
          "name": "C#7",
          "midi": 97,
          "time": 228.6426284999953,
          "velocity": 0.7559055118110236,
          "duration": 0.10714275000000839
        },
        {
          "name": "D7",
          "midi": 98,
          "time": 228.6426284999953,
          "velocity": 0.7559055118110236,
          "duration": 0.10714275000000839
        },
        {
          "name": "G1",
          "midi": 31,
          "time": 228.6426284999953,
          "velocity": 0.7874015748031497,
          "duration": 0.026785687499994992
        },
        {
          "name": "D1",
          "midi": 26,
          "time": 228.6426284999953,
          "velocity": 0.7874015748031497,
          "duration": 0.026785687499994992
        },
        {
          "name": "C7",
          "midi": 96,
          "time": 228.85691399999533,
          "velocity": 0.7559055118110236,
          "duration": 0.10714275000000839
        },
        {
          "name": "C#7",
          "midi": 97,
          "time": 228.85691399999533,
          "velocity": 0.7559055118110236,
          "duration": 0.10714275000000839
        },
        {
          "name": "D7",
          "midi": 98,
          "time": 228.85691399999533,
          "velocity": 0.7559055118110236,
          "duration": 0.10714275000000839
        },
        {
          "name": "C1",
          "midi": 24,
          "time": 228.85691399999533,
          "velocity": 0.7874015748031497,
          "duration": 0.026785687499994992
        },
        {
          "name": "G1",
          "midi": 31,
          "time": 228.85691399999533,
          "velocity": 0.7874015748031497,
          "duration": 0.026785687499994992
        },
        {
          "name": "D1",
          "midi": 26,
          "time": 228.85691399999533,
          "velocity": 0.7874015748031497,
          "duration": 0.026785687499994992
        },
        {
          "name": "D7",
          "midi": 98,
          "time": 229.07119949999534,
          "velocity": 0.7559055118110236,
          "duration": 0.053571374999989985
        },
        {
          "name": "G1",
          "midi": 31,
          "time": 229.07119949999534,
          "velocity": 0.7874015748031497,
          "duration": 0.026785687499994992
        },
        {
          "name": "D7",
          "midi": 98,
          "time": 229.12477087499533,
          "velocity": 0.7559055118110236,
          "duration": 0.053571374999989985
        },
        {
          "name": "F#1",
          "midi": 30,
          "time": 229.12477087499533,
          "velocity": 0.7874015748031497,
          "duration": 0.026785687499994992
        },
        {
          "name": "D7",
          "midi": 98,
          "time": 229.17834224999532,
          "velocity": 0.7559055118110236,
          "duration": 0.053571374999989985
        },
        {
          "name": "G1",
          "midi": 31,
          "time": 229.17834224999532,
          "velocity": 0.7874015748031497,
          "duration": 0.026785687499994992
        },
        {
          "name": "D7",
          "midi": 98,
          "time": 229.23191362499531,
          "velocity": 0.7559055118110236,
          "duration": 0.053571374999989985
        },
        {
          "name": "F#1",
          "midi": 30,
          "time": 229.23191362499531,
          "velocity": 0.7874015748031497,
          "duration": 0.026785687499994992
        },
        {
          "name": "C7",
          "midi": 96,
          "time": 229.2854849999953,
          "velocity": 0.7559055118110236,
          "duration": 0.10714274999997997
        },
        {
          "name": "C#7",
          "midi": 97,
          "time": 229.2854849999953,
          "velocity": 0.7559055118110236,
          "duration": 0.10714274999997997
        },
        {
          "name": "D7",
          "midi": 98,
          "time": 229.2854849999953,
          "velocity": 0.7559055118110236,
          "duration": 0.053571374999989985
        },
        {
          "name": "C1",
          "midi": 24,
          "time": 229.2854849999953,
          "velocity": 0.7874015748031497,
          "duration": 0.026785687499994992
        },
        {
          "name": "G1",
          "midi": 31,
          "time": 229.2854849999953,
          "velocity": 0.7874015748031497,
          "duration": 0.026785687499994992
        },
        {
          "name": "D1",
          "midi": 26,
          "time": 229.2854849999953,
          "velocity": 0.7874015748031497,
          "duration": 0.026785687499994992
        },
        {
          "name": "D#7",
          "midi": 99,
          "time": 229.4997704999953,
          "velocity": 0.7559055118110236,
          "duration": 0.10714275000000839
        },
        {
          "name": "F#2",
          "midi": 42,
          "time": 229.4997704999953,
          "velocity": 0.7874015748031497,
          "duration": 0.026785687499994992
        },
        {
          "name": "D#7",
          "midi": 99,
          "time": 229.6069132499953,
          "velocity": 0.7559055118110236,
          "duration": 0.10714275000000839
        },
        {
          "name": "B1",
          "midi": 35,
          "time": 229.6069132499953,
          "velocity": 0.7874015748031497,
          "duration": 0.026785687499994992
        },
        {
          "name": "C7",
          "midi": 96,
          "time": 229.7140559999953,
          "velocity": 0.7559055118110236,
          "duration": 0.10714275000000839
        },
        {
          "name": "C#7",
          "midi": 97,
          "time": 229.7140559999953,
          "velocity": 0.7559055118110236,
          "duration": 0.10714275000000839
        },
        {
          "name": "D#7",
          "midi": 99,
          "time": 229.7140559999953,
          "velocity": 0.7559055118110236,
          "duration": 0.10714275000000839
        },
        {
          "name": "C1",
          "midi": 24,
          "time": 229.7140559999953,
          "velocity": 0.7874015748031497,
          "duration": 0.026785687499994992
        },
        {
          "name": "F#2",
          "midi": 42,
          "time": 229.7140559999953,
          "velocity": 0.7874015748031497,
          "duration": 0.026785687499994992
        },
        {
          "name": "D1",
          "midi": 26,
          "time": 229.7140559999953,
          "velocity": 0.7874015748031497,
          "duration": 0.026785687499994992
        },
        {
          "name": "D7",
          "midi": 98,
          "time": 229.92834149999533,
          "velocity": 0.7559055118110236,
          "duration": 0.053571374999989985
        },
        {
          "name": "G1",
          "midi": 31,
          "time": 229.92834149999533,
          "velocity": 0.7874015748031497,
          "duration": 0.026785687499994992
        },
        {
          "name": "D7",
          "midi": 98,
          "time": 229.98191287499532,
          "velocity": 0.7559055118110236,
          "duration": 0.053571374999989985
        },
        {
          "name": "F#1",
          "midi": 30,
          "time": 229.98191287499532,
          "velocity": 0.7874015748031497,
          "duration": 0.026785687499994992
        },
        {
          "name": "D7",
          "midi": 98,
          "time": 230.0354842499953,
          "velocity": 0.7559055118110236,
          "duration": 0.053571374999989985
        },
        {
          "name": "G1",
          "midi": 31,
          "time": 230.0354842499953,
          "velocity": 0.7874015748031497,
          "duration": 0.026785687499994992
        },
        {
          "name": "D7",
          "midi": 98,
          "time": 230.0890556249953,
          "velocity": 0.7559055118110236,
          "duration": 0.053571374999989985
        },
        {
          "name": "F#1",
          "midi": 30,
          "time": 230.0890556249953,
          "velocity": 0.7874015748031497,
          "duration": 0.026785687499994992
        },
        {
          "name": "C7",
          "midi": 96,
          "time": 230.1426269999953,
          "velocity": 0.7559055118110236,
          "duration": 0.10714274999997997
        },
        {
          "name": "C#7",
          "midi": 97,
          "time": 230.1426269999953,
          "velocity": 0.7559055118110236,
          "duration": 0.10714274999997997
        },
        {
          "name": "D7",
          "midi": 98,
          "time": 230.1426269999953,
          "velocity": 0.7559055118110236,
          "duration": 0.053571374999989985
        },
        {
          "name": "C1",
          "midi": 24,
          "time": 230.1426269999953,
          "velocity": 0.7874015748031497,
          "duration": 0.026785687499994992
        },
        {
          "name": "G1",
          "midi": 31,
          "time": 230.1426269999953,
          "velocity": 0.7874015748031497,
          "duration": 0.026785687499994992
        },
        {
          "name": "D1",
          "midi": 26,
          "time": 230.1426269999953,
          "velocity": 0.7874015748031497,
          "duration": 0.026785687499994992
        },
        {
          "name": "C#7",
          "midi": 97,
          "time": 230.35691249999527,
          "velocity": 0.7559055118110236,
          "duration": 0.10714275000000839
        },
        {
          "name": "D7",
          "midi": 98,
          "time": 230.35691249999527,
          "velocity": 0.7559055118110236,
          "duration": 0.10714275000000839
        },
        {
          "name": "G1",
          "midi": 31,
          "time": 230.35691249999527,
          "velocity": 0.7874015748031497,
          "duration": 0.026785687499994992
        },
        {
          "name": "D1",
          "midi": 26,
          "time": 230.35691249999527,
          "velocity": 0.7874015748031497,
          "duration": 0.026785687499994992
        },
        {
          "name": "C7",
          "midi": 96,
          "time": 230.5711979999953,
          "velocity": 0.7559055118110236,
          "duration": 0.10714275000000839
        },
        {
          "name": "C#7",
          "midi": 97,
          "time": 230.5711979999953,
          "velocity": 0.7559055118110236,
          "duration": 0.10714275000000839
        },
        {
          "name": "D7",
          "midi": 98,
          "time": 230.5711979999953,
          "velocity": 0.7559055118110236,
          "duration": 0.10714275000000839
        },
        {
          "name": "C1",
          "midi": 24,
          "time": 230.5711979999953,
          "velocity": 0.7874015748031497,
          "duration": 0.026785687499994992
        },
        {
          "name": "G1",
          "midi": 31,
          "time": 230.5711979999953,
          "velocity": 0.7874015748031497,
          "duration": 0.026785687499994992
        },
        {
          "name": "D1",
          "midi": 26,
          "time": 230.5711979999953,
          "velocity": 0.7874015748031497,
          "duration": 0.026785687499994992
        },
        {
          "name": "D7",
          "midi": 98,
          "time": 230.7854834999953,
          "velocity": 0.7559055118110236,
          "duration": 0.053571374999989985
        },
        {
          "name": "G1",
          "midi": 31,
          "time": 230.7854834999953,
          "velocity": 0.7874015748031497,
          "duration": 0.026785687499994992
        },
        {
          "name": "D7",
          "midi": 98,
          "time": 230.8390548749953,
          "velocity": 0.7559055118110236,
          "duration": 0.053571374999989985
        },
        {
          "name": "F#1",
          "midi": 30,
          "time": 230.8390548749953,
          "velocity": 0.7874015748031497,
          "duration": 0.026785687499994992
        },
        {
          "name": "D7",
          "midi": 98,
          "time": 230.8926262499953,
          "velocity": 0.7559055118110236,
          "duration": 0.053571374999989985
        },
        {
          "name": "G1",
          "midi": 31,
          "time": 230.8926262499953,
          "velocity": 0.7874015748031497,
          "duration": 0.026785687499994992
        },
        {
          "name": "D7",
          "midi": 98,
          "time": 230.94619762499528,
          "velocity": 0.7559055118110236,
          "duration": 0.053571374999989985
        },
        {
          "name": "F#1",
          "midi": 30,
          "time": 230.94619762499528,
          "velocity": 0.7874015748031497,
          "duration": 0.026785687499994992
        },
        {
          "name": "C7",
          "midi": 96,
          "time": 230.99976899999527,
          "velocity": 0.7559055118110236,
          "duration": 0.10714274999997997
        },
        {
          "name": "C#7",
          "midi": 97,
          "time": 230.99976899999527,
          "velocity": 0.7559055118110236,
          "duration": 0.10714274999997997
        },
        {
          "name": "D7",
          "midi": 98,
          "time": 230.99976899999527,
          "velocity": 0.7559055118110236,
          "duration": 0.053571374999989985
        },
        {
          "name": "C1",
          "midi": 24,
          "time": 230.99976899999527,
          "velocity": 0.7874015748031497,
          "duration": 0.026785687499994992
        },
        {
          "name": "G1",
          "midi": 31,
          "time": 230.99976899999527,
          "velocity": 0.7874015748031497,
          "duration": 0.026785687499994992
        },
        {
          "name": "D1",
          "midi": 26,
          "time": 230.99976899999527,
          "velocity": 0.7874015748031497,
          "duration": 0.026785687499994992
        },
        {
          "name": "D7",
          "midi": 98,
          "time": 231.21405449999526,
          "velocity": 0.7559055118110236,
          "duration": 0.10714275000000839
        },
        {
          "name": "G1",
          "midi": 31,
          "time": 231.21405449999526,
          "velocity": 0.7874015748031497,
          "duration": 0.026785687499994992
        },
        {
          "name": "C7",
          "midi": 96,
          "time": 231.42833999999527,
          "velocity": 0.7559055118110236,
          "duration": 0.10714275000000839
        },
        {
          "name": "C#7",
          "midi": 97,
          "time": 231.42833999999527,
          "velocity": 0.7559055118110236,
          "duration": 0.10714275000000839
        },
        {
          "name": "D7",
          "midi": 98,
          "time": 231.42833999999527,
          "velocity": 0.7559055118110236,
          "duration": 0.10714275000000839
        },
        {
          "name": "C1",
          "midi": 24,
          "time": 231.42833999999527,
          "velocity": 0.7874015748031497,
          "duration": 0.026785687499994992
        },
        {
          "name": "G1",
          "midi": 31,
          "time": 231.42833999999527,
          "velocity": 0.7874015748031497,
          "duration": 0.026785687499994992
        },
        {
          "name": "D1",
          "midi": 26,
          "time": 231.42833999999527,
          "velocity": 0.7874015748031497,
          "duration": 0.026785687499994992
        },
        {
          "name": "C7",
          "midi": 96,
          "time": 233.1426239999953,
          "velocity": 0.7559055118110236,
          "duration": 0.10714275000000839
        },
        {
          "name": "E7",
          "midi": 100,
          "time": 233.1426239999953,
          "velocity": 0.7559055118110236,
          "duration": 0.10714275000000839
        },
        {
          "name": "C1",
          "midi": 24,
          "time": 233.1426239999953,
          "velocity": 0.7874015748031497,
          "duration": 0.026785687499994992
        },
        {
          "name": "C2",
          "midi": 36,
          "time": 233.1426239999953,
          "velocity": 0.7874015748031497,
          "duration": 0.026785687499994992
        },
        {
          "name": "C7",
          "midi": 96,
          "time": 236.5711919999953,
          "velocity": 0.7559055118110236,
          "duration": 0.10714275000000839
        },
        {
          "name": "C7",
          "midi": 96,
          "time": 239.99975999999532,
          "velocity": 0.7559055118110236,
          "duration": 0.10714275000000839
        },
        {
          "name": "C7",
          "midi": 96,
          "time": 243.42832799999533,
          "velocity": 0.7559055118110236,
          "duration": 0.10714275000000839
        },
        {
          "name": "C7",
          "midi": 96,
          "time": 246.85689599999534,
          "velocity": 0.7559055118110236,
          "duration": 0.10714275000000839
        },
        {
          "name": "C7",
          "midi": 96,
          "time": 250.28546399999536,
          "velocity": 0.7559055118110236,
          "duration": 0.10714275000000839
        },
        {
          "name": "C7",
          "midi": 96,
          "time": 253.71403199999537,
          "velocity": 0.7559055118110236,
          "duration": 0.10714275000000839
        },
        {
          "name": "C7",
          "midi": 96,
          "time": 257.14259999999535,
          "velocity": 0.7559055118110236,
          "duration": 0.10714274999997997
        },
        {
          "name": "C7",
          "midi": 96,
          "time": 274.28543999999533,
          "velocity": 0.7559055118110236,
          "duration": 0.10714275000003681
        },
        {
          "name": "E7",
          "midi": 100,
          "time": 274.28543999999533,
          "velocity": 0.7559055118110236,
          "duration": 0.10714275000003681
        },
        {
          "name": "C1",
          "midi": 24,
          "time": 274.28543999999533,
          "velocity": 0.7874015748031497,
          "duration": 0.026785687500023414
        },
        {
          "name": "A#1",
          "midi": 34,
          "time": 274.28543999999533,
          "velocity": 0.7874015748031497,
          "duration": 0.026785687500023414
        },
        {
          "name": "D7",
          "midi": 98,
          "time": 274.49972549999535,
          "velocity": 0.7559055118110236,
          "duration": 0.10714275000003681
        },
        {
          "name": "G1",
          "midi": 31,
          "time": 274.49972549999535,
          "velocity": 0.7874015748031497,
          "duration": 0.026785687500023414
        },
        {
          "name": "C7",
          "midi": 96,
          "time": 274.71401099999537,
          "velocity": 0.7559055118110236,
          "duration": 0.10714275000003681
        },
        {
          "name": "D7",
          "midi": 98,
          "time": 274.71401099999537,
          "velocity": 0.7559055118110236,
          "duration": 0.10714275000003681
        },
        {
          "name": "C1",
          "midi": 24,
          "time": 274.71401099999537,
          "velocity": 0.7874015748031497,
          "duration": 0.026785687500023414
        },
        {
          "name": "F#1",
          "midi": 30,
          "time": 274.71401099999537,
          "velocity": 0.7874015748031497,
          "duration": 0.026785687500023414
        },
        {
          "name": "D7",
          "midi": 98,
          "time": 274.9282964999954,
          "velocity": 0.7559055118110236,
          "duration": 0.10714275000003681
        },
        {
          "name": "G1",
          "midi": 31,
          "time": 274.9282964999954,
          "velocity": 0.7874015748031497,
          "duration": 0.026785687500023414
        },
        {
          "name": "C#7",
          "midi": 97,
          "time": 275.1425819999954,
          "velocity": 0.7559055118110236,
          "duration": 0.10714275000003681
        },
        {
          "name": "D7",
          "midi": 98,
          "time": 275.1425819999954,
          "velocity": 0.7559055118110236,
          "duration": 0.10714275000003681
        },
        {
          "name": "G1",
          "midi": 31,
          "time": 275.1425819999954,
          "velocity": 0.7874015748031497,
          "duration": 0.026785687500023414
        },
        {
          "name": "D1",
          "midi": 26,
          "time": 275.1425819999954,
          "velocity": 0.7874015748031497,
          "duration": 0.026785687500023414
        },
        {
          "name": "D7",
          "midi": 98,
          "time": 275.3568674999954,
          "velocity": 0.7559055118110236,
          "duration": 0.10714275000003681
        },
        {
          "name": "G1",
          "midi": 31,
          "time": 275.3568674999954,
          "velocity": 0.7874015748031497,
          "duration": 0.026785687500023414
        },
        {
          "name": "C7",
          "midi": 96,
          "time": 275.57115299999543,
          "velocity": 0.7559055118110236,
          "duration": 0.10714275000003681
        },
        {
          "name": "D7",
          "midi": 98,
          "time": 275.57115299999543,
          "velocity": 0.7559055118110236,
          "duration": 0.10714275000003681
        },
        {
          "name": "C1",
          "midi": 24,
          "time": 275.57115299999543,
          "velocity": 0.7874015748031497,
          "duration": 0.026785687500023414
        },
        {
          "name": "F#1",
          "midi": 30,
          "time": 275.57115299999543,
          "velocity": 0.7874015748031497,
          "duration": 0.026785687500023414
        },
        {
          "name": "C7",
          "midi": 96,
          "time": 275.78543849999545,
          "velocity": 0.7559055118110236,
          "duration": 0.10714275000003681
        },
        {
          "name": "D7",
          "midi": 98,
          "time": 275.78543849999545,
          "velocity": 0.7559055118110236,
          "duration": 0.10714275000003681
        },
        {
          "name": "C1",
          "midi": 24,
          "time": 275.78543849999545,
          "velocity": 0.7874015748031497,
          "duration": 0.026785687500023414
        },
        {
          "name": "G1",
          "midi": 31,
          "time": 275.78543849999545,
          "velocity": 0.7874015748031497,
          "duration": 0.026785687500023414
        },
        {
          "name": "D7",
          "midi": 98,
          "time": 275.99972399999547,
          "velocity": 0.7559055118110236,
          "duration": 0.10714275000003681
        },
        {
          "name": "F#1",
          "midi": 30,
          "time": 275.99972399999547,
          "velocity": 0.7874015748031497,
          "duration": 0.026785687500023414
        },
        {
          "name": "C7",
          "midi": 96,
          "time": 276.2140094999955,
          "velocity": 0.7559055118110236,
          "duration": 0.10714275000003681
        },
        {
          "name": "D7",
          "midi": 98,
          "time": 276.2140094999955,
          "velocity": 0.7559055118110236,
          "duration": 0.10714275000003681
        },
        {
          "name": "C1",
          "midi": 24,
          "time": 276.2140094999955,
          "velocity": 0.7874015748031497,
          "duration": 0.026785687500023414
        },
        {
          "name": "G1",
          "midi": 31,
          "time": 276.2140094999955,
          "velocity": 0.7874015748031497,
          "duration": 0.026785687500023414
        },
        {
          "name": "C7",
          "midi": 96,
          "time": 276.4282949999955,
          "velocity": 0.7559055118110236,
          "duration": 0.10714275000003681
        },
        {
          "name": "D7",
          "midi": 98,
          "time": 276.4282949999955,
          "velocity": 0.7559055118110236,
          "duration": 0.10714275000003681
        },
        {
          "name": "C1",
          "midi": 24,
          "time": 276.4282949999955,
          "velocity": 0.7874015748031497,
          "duration": 0.026785687500023414
        },
        {
          "name": "F#1",
          "midi": 30,
          "time": 276.4282949999955,
          "velocity": 0.7874015748031497,
          "duration": 0.026785687500023414
        },
        {
          "name": "D7",
          "midi": 98,
          "time": 276.6425804999955,
          "velocity": 0.7559055118110236,
          "duration": 0.10714275000003681
        },
        {
          "name": "G1",
          "midi": 31,
          "time": 276.6425804999955,
          "velocity": 0.7874015748031497,
          "duration": 0.026785687500023414
        },
        {
          "name": "C#7",
          "midi": 97,
          "time": 276.85686599999553,
          "velocity": 0.7559055118110236,
          "duration": 0.10714275000003681
        },
        {
          "name": "D7",
          "midi": 98,
          "time": 276.85686599999553,
          "velocity": 0.7559055118110236,
          "duration": 0.10714275000003681
        },
        {
          "name": "G1",
          "midi": 31,
          "time": 276.85686599999553,
          "velocity": 0.7874015748031497,
          "duration": 0.026785687500023414
        },
        {
          "name": "D1",
          "midi": 26,
          "time": 276.85686599999553,
          "velocity": 0.7874015748031497,
          "duration": 0.026785687500023414
        },
        {
          "name": "D7",
          "midi": 98,
          "time": 277.07115149999555,
          "velocity": 0.7559055118110236,
          "duration": 0.10714275000003681
        },
        {
          "name": "G1",
          "midi": 31,
          "time": 277.07115149999555,
          "velocity": 0.7874015748031497,
          "duration": 0.026785687500023414
        },
        {
          "name": "D#7",
          "midi": 99,
          "time": 277.28543699999557,
          "velocity": 0.7559055118110236,
          "duration": 0.10714275000003681
        },
        {
          "name": "B1",
          "midi": 35,
          "time": 277.28543699999557,
          "velocity": 0.7874015748031497,
          "duration": 0.026785687500023414
        },
        {
          "name": "C7",
          "midi": 96,
          "time": 277.4997224999956,
          "velocity": 0.7559055118110236,
          "duration": 0.10714275000003681
        },
        {
          "name": "D7",
          "midi": 98,
          "time": 277.4997224999956,
          "velocity": 0.7559055118110236,
          "duration": 0.10714275000003681
        },
        {
          "name": "C1",
          "midi": 24,
          "time": 277.4997224999956,
          "velocity": 0.7874015748031497,
          "duration": 0.026785687500023414
        },
        {
          "name": "G1",
          "midi": 31,
          "time": 277.4997224999956,
          "velocity": 0.7874015748031497,
          "duration": 0.026785687500023414
        },
        {
          "name": "C7",
          "midi": 96,
          "time": 277.7140079999956,
          "velocity": 0.7559055118110236,
          "duration": 0.10714275000003681
        },
        {
          "name": "D7",
          "midi": 98,
          "time": 277.7140079999956,
          "velocity": 0.7559055118110236,
          "duration": 0.10714275000003681
        },
        {
          "name": "C1",
          "midi": 24,
          "time": 277.7140079999956,
          "velocity": 0.7874015748031497,
          "duration": 0.026785687500023414
        },
        {
          "name": "F#1",
          "midi": 30,
          "time": 277.7140079999956,
          "velocity": 0.7874015748031497,
          "duration": 0.026785687500023414
        },
        {
          "name": "D#7",
          "midi": 99,
          "time": 277.9282934999956,
          "velocity": 0.7559055118110236,
          "duration": 0.10714275000003681
        },
        {
          "name": "F#2",
          "midi": 42,
          "time": 277.9282934999956,
          "velocity": 0.7874015748031497,
          "duration": 0.026785687500023414
        },
        {
          "name": "C7",
          "midi": 96,
          "time": 278.14257899999564,
          "velocity": 0.7559055118110236,
          "duration": 0.10714275000003681
        },
        {
          "name": "D7",
          "midi": 98,
          "time": 278.14257899999564,
          "velocity": 0.7559055118110236,
          "duration": 0.10714275000003681
        },
        {
          "name": "C1",
          "midi": 24,
          "time": 278.14257899999564,
          "velocity": 0.7874015748031497,
          "duration": 0.026785687500023414
        },
        {
          "name": "F#1",
          "midi": 30,
          "time": 278.14257899999564,
          "velocity": 0.7874015748031497,
          "duration": 0.026785687500023414
        },
        {
          "name": "D7",
          "midi": 98,
          "time": 278.35686449999565,
          "velocity": 0.7559055118110236,
          "duration": 0.10714275000003681
        },
        {
          "name": "G1",
          "midi": 31,
          "time": 278.35686449999565,
          "velocity": 0.7874015748031497,
          "duration": 0.026785687500023414
        },
        {
          "name": "C#7",
          "midi": 97,
          "time": 278.57114999999567,
          "velocity": 0.7559055118110236,
          "duration": 0.10714275000003681
        },
        {
          "name": "D7",
          "midi": 98,
          "time": 278.57114999999567,
          "velocity": 0.7559055118110236,
          "duration": 0.10714275000003681
        },
        {
          "name": "G1",
          "midi": 31,
          "time": 278.57114999999567,
          "velocity": 0.7874015748031497,
          "duration": 0.026785687500023414
        },
        {
          "name": "D1",
          "midi": 26,
          "time": 278.57114999999567,
          "velocity": 0.7874015748031497,
          "duration": 0.026785687500023414
        },
        {
          "name": "D7",
          "midi": 98,
          "time": 278.7854354999957,
          "velocity": 0.7559055118110236,
          "duration": 0.10714275000003681
        },
        {
          "name": "G1",
          "midi": 31,
          "time": 278.7854354999957,
          "velocity": 0.7874015748031497,
          "duration": 0.026785687500023414
        },
        {
          "name": "C7",
          "midi": 96,
          "time": 278.9997209999957,
          "velocity": 0.7559055118110236,
          "duration": 0.10714275000003681
        },
        {
          "name": "D7",
          "midi": 98,
          "time": 278.9997209999957,
          "velocity": 0.7559055118110236,
          "duration": 0.10714275000003681
        },
        {
          "name": "C1",
          "midi": 24,
          "time": 278.9997209999957,
          "velocity": 0.7874015748031497,
          "duration": 0.026785687500023414
        },
        {
          "name": "F#1",
          "midi": 30,
          "time": 278.9997209999957,
          "velocity": 0.7874015748031497,
          "duration": 0.026785687500023414
        },
        {
          "name": "C7",
          "midi": 96,
          "time": 279.2140064999957,
          "velocity": 0.7559055118110236,
          "duration": 0.10714275000003681
        },
        {
          "name": "D7",
          "midi": 98,
          "time": 279.2140064999957,
          "velocity": 0.7559055118110236,
          "duration": 0.10714275000003681
        },
        {
          "name": "C1",
          "midi": 24,
          "time": 279.2140064999957,
          "velocity": 0.7874015748031497,
          "duration": 0.026785687500023414
        },
        {
          "name": "G1",
          "midi": 31,
          "time": 279.2140064999957,
          "velocity": 0.7874015748031497,
          "duration": 0.026785687500023414
        },
        {
          "name": "D7",
          "midi": 98,
          "time": 279.42829199999574,
          "velocity": 0.7559055118110236,
          "duration": 0.10714275000003681
        },
        {
          "name": "F#1",
          "midi": 30,
          "time": 279.42829199999574,
          "velocity": 0.7874015748031497,
          "duration": 0.026785687500023414
        },
        {
          "name": "C7",
          "midi": 96,
          "time": 279.64257749999575,
          "velocity": 0.7559055118110236,
          "duration": 0.10714275000003681
        },
        {
          "name": "D7",
          "midi": 98,
          "time": 279.64257749999575,
          "velocity": 0.7559055118110236,
          "duration": 0.10714275000003681
        },
        {
          "name": "C1",
          "midi": 24,
          "time": 279.64257749999575,
          "velocity": 0.7874015748031497,
          "duration": 0.026785687500023414
        },
        {
          "name": "G1",
          "midi": 31,
          "time": 279.64257749999575,
          "velocity": 0.7874015748031497,
          "duration": 0.026785687500023414
        },
        {
          "name": "C7",
          "midi": 96,
          "time": 279.85686299999577,
          "velocity": 0.7559055118110236,
          "duration": 0.10714275000003681
        },
        {
          "name": "D7",
          "midi": 98,
          "time": 279.85686299999577,
          "velocity": 0.7559055118110236,
          "duration": 0.10714275000003681
        },
        {
          "name": "C1",
          "midi": 24,
          "time": 279.85686299999577,
          "velocity": 0.7874015748031497,
          "duration": 0.026785687500023414
        },
        {
          "name": "F#1",
          "midi": 30,
          "time": 279.85686299999577,
          "velocity": 0.7874015748031497,
          "duration": 0.026785687500023414
        },
        {
          "name": "D7",
          "midi": 98,
          "time": 280.0711484999958,
          "velocity": 0.7559055118110236,
          "duration": 0.10714275000003681
        },
        {
          "name": "G1",
          "midi": 31,
          "time": 280.0711484999958,
          "velocity": 0.7874015748031497,
          "duration": 0.026785687500023414
        },
        {
          "name": "C#7",
          "midi": 97,
          "time": 280.2854339999958,
          "velocity": 0.7559055118110236,
          "duration": 0.10714275000003681
        },
        {
          "name": "D7",
          "midi": 98,
          "time": 280.2854339999958,
          "velocity": 0.7559055118110236,
          "duration": 0.10714275000003681
        },
        {
          "name": "G1",
          "midi": 31,
          "time": 280.2854339999958,
          "velocity": 0.7874015748031497,
          "duration": 0.026785687500023414
        },
        {
          "name": "D1",
          "midi": 26,
          "time": 280.2854339999958,
          "velocity": 0.7874015748031497,
          "duration": 0.026785687500023414
        },
        {
          "name": "D7",
          "midi": 98,
          "time": 280.4997194999958,
          "velocity": 0.7559055118110236,
          "duration": 0.10714275000003681
        },
        {
          "name": "G1",
          "midi": 31,
          "time": 280.4997194999958,
          "velocity": 0.7874015748031497,
          "duration": 0.026785687500023414
        },
        {
          "name": "D#7",
          "midi": 99,
          "time": 280.71400499999584,
          "velocity": 0.7559055118110236,
          "duration": 0.10714275000003681
        },
        {
          "name": "B1",
          "midi": 35,
          "time": 280.71400499999584,
          "velocity": 0.7874015748031497,
          "duration": 0.026785687500023414
        },
        {
          "name": "C7",
          "midi": 96,
          "time": 280.92829049999585,
          "velocity": 0.7559055118110236,
          "duration": 0.10714275000003681
        },
        {
          "name": "D7",
          "midi": 98,
          "time": 280.92829049999585,
          "velocity": 0.7559055118110236,
          "duration": 0.10714275000003681
        },
        {
          "name": "C1",
          "midi": 24,
          "time": 280.92829049999585,
          "velocity": 0.7874015748031497,
          "duration": 0.026785687500023414
        },
        {
          "name": "G1",
          "midi": 31,
          "time": 280.92829049999585,
          "velocity": 0.7874015748031497,
          "duration": 0.026785687500023414
        },
        {
          "name": "C7",
          "midi": 96,
          "time": 281.14257599999587,
          "velocity": 0.7559055118110236,
          "duration": 0.10714275000003681
        },
        {
          "name": "D7",
          "midi": 98,
          "time": 281.14257599999587,
          "velocity": 0.7559055118110236,
          "duration": 0.10714275000003681
        },
        {
          "name": "C1",
          "midi": 24,
          "time": 281.14257599999587,
          "velocity": 0.7874015748031497,
          "duration": 0.026785687500023414
        },
        {
          "name": "F#1",
          "midi": 30,
          "time": 281.14257599999587,
          "velocity": 0.7874015748031497,
          "duration": 0.026785687500023414
        },
        {
          "name": "D#7",
          "midi": 99,
          "time": 281.3568614999959,
          "velocity": 0.7559055118110236,
          "duration": 0.10714275000003681
        },
        {
          "name": "F#2",
          "midi": 42,
          "time": 281.3568614999959,
          "velocity": 0.7874015748031497,
          "duration": 0.026785687500023414
        },
        {
          "name": "C7",
          "midi": 96,
          "time": 281.5711469999959,
          "velocity": 0.7559055118110236,
          "duration": 0.10714275000003681
        },
        {
          "name": "D7",
          "midi": 98,
          "time": 281.5711469999959,
          "velocity": 0.7559055118110236,
          "duration": 0.10714275000003681
        },
        {
          "name": "C1",
          "midi": 24,
          "time": 281.5711469999959,
          "velocity": 0.7874015748031497,
          "duration": 0.026785687500023414
        },
        {
          "name": "F#1",
          "midi": 30,
          "time": 281.5711469999959,
          "velocity": 0.7874015748031497,
          "duration": 0.026785687500023414
        },
        {
          "name": "D7",
          "midi": 98,
          "time": 281.7854324999959,
          "velocity": 0.7559055118110236,
          "duration": 0.10714275000003681
        },
        {
          "name": "G1",
          "midi": 31,
          "time": 281.7854324999959,
          "velocity": 0.7874015748031497,
          "duration": 0.026785687500023414
        },
        {
          "name": "C#7",
          "midi": 97,
          "time": 281.99971799999594,
          "velocity": 0.7559055118110236,
          "duration": 0.10714275000003681
        },
        {
          "name": "D7",
          "midi": 98,
          "time": 281.99971799999594,
          "velocity": 0.7559055118110236,
          "duration": 0.10714275000003681
        },
        {
          "name": "G1",
          "midi": 31,
          "time": 281.99971799999594,
          "velocity": 0.7874015748031497,
          "duration": 0.026785687500023414
        },
        {
          "name": "D1",
          "midi": 26,
          "time": 281.99971799999594,
          "velocity": 0.7874015748031497,
          "duration": 0.026785687500023414
        },
        {
          "name": "D7",
          "midi": 98,
          "time": 282.21400349999595,
          "velocity": 0.7559055118110236,
          "duration": 0.10714275000003681
        },
        {
          "name": "G1",
          "midi": 31,
          "time": 282.21400349999595,
          "velocity": 0.7874015748031497,
          "duration": 0.026785687500023414
        },
        {
          "name": "C7",
          "midi": 96,
          "time": 282.42828899999597,
          "velocity": 0.7559055118110236,
          "duration": 0.10714275000003681
        },
        {
          "name": "D7",
          "midi": 98,
          "time": 282.42828899999597,
          "velocity": 0.7559055118110236,
          "duration": 0.10714275000003681
        },
        {
          "name": "C1",
          "midi": 24,
          "time": 282.42828899999597,
          "velocity": 0.7874015748031497,
          "duration": 0.026785687500023414
        },
        {
          "name": "F#1",
          "midi": 30,
          "time": 282.42828899999597,
          "velocity": 0.7874015748031497,
          "duration": 0.026785687500023414
        },
        {
          "name": "C7",
          "midi": 96,
          "time": 282.642574499996,
          "velocity": 0.7559055118110236,
          "duration": 0.10714275000003681
        },
        {
          "name": "D7",
          "midi": 98,
          "time": 282.642574499996,
          "velocity": 0.7559055118110236,
          "duration": 0.10714275000003681
        },
        {
          "name": "C1",
          "midi": 24,
          "time": 282.642574499996,
          "velocity": 0.7874015748031497,
          "duration": 0.026785687500023414
        },
        {
          "name": "G1",
          "midi": 31,
          "time": 282.642574499996,
          "velocity": 0.7874015748031497,
          "duration": 0.026785687500023414
        },
        {
          "name": "D7",
          "midi": 98,
          "time": 282.856859999996,
          "velocity": 0.7559055118110236,
          "duration": 0.10714275000003681
        },
        {
          "name": "F#1",
          "midi": 30,
          "time": 282.856859999996,
          "velocity": 0.7874015748031497,
          "duration": 0.026785687500023414
        },
        {
          "name": "C7",
          "midi": 96,
          "time": 283.071145499996,
          "velocity": 0.7559055118110236,
          "duration": 0.10714275000003681
        },
        {
          "name": "D7",
          "midi": 98,
          "time": 283.071145499996,
          "velocity": 0.7559055118110236,
          "duration": 0.10714275000003681
        },
        {
          "name": "C1",
          "midi": 24,
          "time": 283.071145499996,
          "velocity": 0.7874015748031497,
          "duration": 0.026785687500023414
        },
        {
          "name": "G1",
          "midi": 31,
          "time": 283.071145499996,
          "velocity": 0.7874015748031497,
          "duration": 0.026785687500023414
        },
        {
          "name": "C7",
          "midi": 96,
          "time": 283.28543099999604,
          "velocity": 0.7559055118110236,
          "duration": 0.10714275000003681
        },
        {
          "name": "D7",
          "midi": 98,
          "time": 283.28543099999604,
          "velocity": 0.7559055118110236,
          "duration": 0.10714275000003681
        },
        {
          "name": "C1",
          "midi": 24,
          "time": 283.28543099999604,
          "velocity": 0.7874015748031497,
          "duration": 0.026785687500023414
        },
        {
          "name": "F#1",
          "midi": 30,
          "time": 283.28543099999604,
          "velocity": 0.7874015748031497,
          "duration": 0.026785687500023414
        },
        {
          "name": "D7",
          "midi": 98,
          "time": 283.49971649999605,
          "velocity": 0.7559055118110236,
          "duration": 0.10714275000003681
        },
        {
          "name": "G1",
          "midi": 31,
          "time": 283.49971649999605,
          "velocity": 0.7874015748031497,
          "duration": 0.026785687500023414
        },
        {
          "name": "C#7",
          "midi": 97,
          "time": 283.71400199999607,
          "velocity": 0.7559055118110236,
          "duration": 0.10714275000003681
        },
        {
          "name": "D7",
          "midi": 98,
          "time": 283.71400199999607,
          "velocity": 0.7559055118110236,
          "duration": 0.10714275000003681
        },
        {
          "name": "G1",
          "midi": 31,
          "time": 283.71400199999607,
          "velocity": 0.7874015748031497,
          "duration": 0.026785687500023414
        },
        {
          "name": "D1",
          "midi": 26,
          "time": 283.71400199999607,
          "velocity": 0.7874015748031497,
          "duration": 0.026785687500023414
        },
        {
          "name": "D7",
          "midi": 98,
          "time": 283.9282874999961,
          "velocity": 0.7559055118110236,
          "duration": 0.10714275000003681
        },
        {
          "name": "G1",
          "midi": 31,
          "time": 283.9282874999961,
          "velocity": 0.7874015748031497,
          "duration": 0.026785687500023414
        },
        {
          "name": "D#7",
          "midi": 99,
          "time": 284.1425729999961,
          "velocity": 0.7559055118110236,
          "duration": 0.10714275000003681
        },
        {
          "name": "B1",
          "midi": 35,
          "time": 284.1425729999961,
          "velocity": 0.7874015748031497,
          "duration": 0.026785687500023414
        },
        {
          "name": "C7",
          "midi": 96,
          "time": 284.3568584999961,
          "velocity": 0.7559055118110236,
          "duration": 0.10714275000003681
        },
        {
          "name": "D7",
          "midi": 98,
          "time": 284.3568584999961,
          "velocity": 0.7559055118110236,
          "duration": 0.10714275000003681
        },
        {
          "name": "C1",
          "midi": 24,
          "time": 284.3568584999961,
          "velocity": 0.7874015748031497,
          "duration": 0.026785687500023414
        },
        {
          "name": "G1",
          "midi": 31,
          "time": 284.3568584999961,
          "velocity": 0.7874015748031497,
          "duration": 0.026785687500023414
        },
        {
          "name": "C7",
          "midi": 96,
          "time": 284.57114399999614,
          "velocity": 0.7559055118110236,
          "duration": 0.10714275000003681
        },
        {
          "name": "D#7",
          "midi": 99,
          "time": 284.57114399999614,
          "velocity": 0.7559055118110236,
          "duration": 0.10714275000003681
        },
        {
          "name": "C1",
          "midi": 24,
          "time": 284.57114399999614,
          "velocity": 0.7874015748031497,
          "duration": 0.026785687500023414
        },
        {
          "name": "B1",
          "midi": 35,
          "time": 284.57114399999614,
          "velocity": 0.7874015748031497,
          "duration": 0.026785687500023414
        },
        {
          "name": "C7",
          "midi": 96,
          "time": 284.9997149999962,
          "velocity": 0.7559055118110236,
          "duration": 0.10714274999997997
        },
        {
          "name": "C#7",
          "midi": 97,
          "time": 285.42828599999615,
          "velocity": 0.7559055118110236,
          "duration": 0.10714275000003681
        },
        {
          "name": "D#7",
          "midi": 99,
          "time": 285.42828599999615,
          "velocity": 0.7559055118110236,
          "duration": 0.10714275000003681
        },
        {
          "name": "C1",
          "midi": 24,
          "time": 285.42828599999615,
          "velocity": 0.7874015748031497,
          "duration": 0.026785687500023414
        },
        {
          "name": "F#2",
          "midi": 42,
          "time": 285.42828599999615,
          "velocity": 0.7874015748031497,
          "duration": 0.026785687500023414
        },
        {
          "name": "D1",
          "midi": 26,
          "time": 285.42828599999615,
          "velocity": 0.7874015748031497,
          "duration": 0.026785687500023414
        },
        {
          "name": "C7",
          "midi": 96,
          "time": 285.8568569999962,
          "velocity": 0.7559055118110236,
          "duration": 0.10714274999997997
        },
        {
          "name": "C7",
          "midi": 96,
          "time": 286.07114249999614,
          "velocity": 0.7559055118110236,
          "duration": 0.10714274999997997
        },
        {
          "name": "D#7",
          "midi": 99,
          "time": 286.2854279999961,
          "velocity": 0.7559055118110236,
          "duration": 0.10714275000003681
        },
        {
          "name": "C1",
          "midi": 24,
          "time": 286.2854279999961,
          "velocity": 0.7874015748031497,
          "duration": 0.026785687500023414
        },
        {
          "name": "F#2",
          "midi": 42,
          "time": 286.2854279999961,
          "velocity": 0.7874015748031497,
          "duration": 0.026785687500023414
        },
        {
          "name": "C7",
          "midi": 96,
          "time": 286.4997134999961,
          "velocity": 0.7559055118110236,
          "duration": 0.10714275000003681
        },
        {
          "name": "D#7",
          "midi": 99,
          "time": 286.4997134999961,
          "velocity": 0.7559055118110236,
          "duration": 0.10714275000003681
        },
        {
          "name": "C1",
          "midi": 24,
          "time": 286.4997134999961,
          "velocity": 0.7874015748031497,
          "duration": 0.026785687500023414
        },
        {
          "name": "B1",
          "midi": 35,
          "time": 286.4997134999961,
          "velocity": 0.7874015748031497,
          "duration": 0.026785687500023414
        },
        {
          "name": "C7",
          "midi": 96,
          "time": 286.71399899999614,
          "velocity": 0.7559055118110236,
          "duration": 0.10714275000003681
        },
        {
          "name": "D#7",
          "midi": 99,
          "time": 286.71399899999614,
          "velocity": 0.7559055118110236,
          "duration": 0.10714275000003681
        },
        {
          "name": "C1",
          "midi": 24,
          "time": 286.71399899999614,
          "velocity": 0.7874015748031497,
          "duration": 0.026785687500023414
        },
        {
          "name": "F#2",
          "midi": 42,
          "time": 286.71399899999614,
          "velocity": 0.7874015748031497,
          "duration": 0.026785687500023414
        },
        {
          "name": "C7",
          "midi": 96,
          "time": 286.92828449999615,
          "velocity": 0.7559055118110236,
          "duration": 0.10714275000003681
        },
        {
          "name": "D#7",
          "midi": 99,
          "time": 286.92828449999615,
          "velocity": 0.7559055118110236,
          "duration": 0.10714275000003681
        },
        {
          "name": "C1",
          "midi": 24,
          "time": 286.92828449999615,
          "velocity": 0.7874015748031497,
          "duration": 0.026785687500023414
        },
        {
          "name": "B1",
          "midi": 35,
          "time": 286.92828449999615,
          "velocity": 0.7874015748031497,
          "duration": 0.026785687500023414
        },
        {
          "name": "C7",
          "midi": 96,
          "time": 287.14256999999617,
          "velocity": 0.7559055118110236,
          "duration": 0.10714275000003681
        },
        {
          "name": "D#7",
          "midi": 99,
          "time": 287.14256999999617,
          "velocity": 0.7559055118110236,
          "duration": 0.10714275000003681
        },
        {
          "name": "C1",
          "midi": 24,
          "time": 287.14256999999617,
          "velocity": 0.7874015748031497,
          "duration": 0.026785687500023414
        },
        {
          "name": "F#2",
          "midi": 42,
          "time": 287.14256999999617,
          "velocity": 0.7874015748031497,
          "duration": 0.026785687500023414
        },
        {
          "name": "C7",
          "midi": 96,
          "time": 287.3568554999962,
          "velocity": 0.7559055118110236,
          "duration": 0.10714274999997997
        },
        {
          "name": "C7",
          "midi": 96,
          "time": 287.46399824999617,
          "velocity": 0.7559055118110236,
          "duration": 0.10714274999997997
        },
        {
          "name": "C7",
          "midi": 96,
          "time": 287.57114099999615,
          "velocity": 0.7559055118110236,
          "duration": 0.10714274999997997
        },
        {
          "name": "C7",
          "midi": 96,
          "time": 287.6782837499961,
          "velocity": 0.7559055118110236,
          "duration": 0.10714274999997997
        },
        {
          "name": "C7",
          "midi": 96,
          "time": 287.7854264999961,
          "velocity": 0.7559055118110236,
          "duration": 0.10714274999997997
        },
        {
          "name": "E7",
          "midi": 100,
          "time": 287.99971199999607,
          "velocity": 0.7559055118110236,
          "duration": 0.10714275000003681
        },
        {
          "name": "C1",
          "midi": 24,
          "time": 287.99971199999607,
          "velocity": 0.7874015748031497,
          "duration": 0.026785687500023414
        },
        {
          "name": "A#1",
          "midi": 34,
          "time": 287.99971199999607,
          "velocity": 0.7874015748031497,
          "duration": 0.026785687500023414
        },
        {
          "name": "C7",
          "midi": 96,
          "time": 288.4282829999961,
          "velocity": 0.7559055118110236,
          "duration": 0.10714274999997997
        },
        {
          "name": "C#7",
          "midi": 97,
          "time": 288.8568539999961,
          "velocity": 0.7559055118110236,
          "duration": 0.10714275000003681
        },
        {
          "name": "D#7",
          "midi": 99,
          "time": 288.8568539999961,
          "velocity": 0.7559055118110236,
          "duration": 0.10714275000003681
        },
        {
          "name": "C1",
          "midi": 24,
          "time": 288.8568539999961,
          "velocity": 0.7874015748031497,
          "duration": 0.026785687500023414
        },
        {
          "name": "F#2",
          "midi": 42,
          "time": 288.8568539999961,
          "velocity": 0.7874015748031497,
          "duration": 0.026785687500023414
        },
        {
          "name": "D1",
          "midi": 26,
          "time": 288.8568539999961,
          "velocity": 0.7874015748031497,
          "duration": 0.026785687500023414
        },
        {
          "name": "C7",
          "midi": 96,
          "time": 289.2854249999961,
          "velocity": 0.7559055118110236,
          "duration": 0.10714274999997997
        },
        {
          "name": "C7",
          "midi": 96,
          "time": 289.49971049999607,
          "velocity": 0.7559055118110236,
          "duration": 0.10714274999997997
        },
        {
          "name": "D#7",
          "midi": 99,
          "time": 289.71399599999603,
          "velocity": 0.7559055118110236,
          "duration": 0.10714275000003681
        },
        {
          "name": "C1",
          "midi": 24,
          "time": 289.71399599999603,
          "velocity": 0.7874015748031497,
          "duration": 0.026785687500023414
        },
        {
          "name": "F#2",
          "midi": 42,
          "time": 289.71399599999603,
          "velocity": 0.7874015748031497,
          "duration": 0.026785687500023414
        },
        {
          "name": "C7",
          "midi": 96,
          "time": 289.92828149999605,
          "velocity": 0.7559055118110236,
          "duration": 0.10714274999997997
        },
        {
          "name": "C7",
          "midi": 96,
          "time": 290.142566999996,
          "velocity": 0.7559055118110236,
          "duration": 0.10714274999997997
        },
        {
          "name": "C#7",
          "midi": 97,
          "time": 290.571137999996,
          "velocity": 0.7559055118110236,
          "duration": 0.10714275000003681
        },
        {
          "name": "D#7",
          "midi": 99,
          "time": 290.571137999996,
          "velocity": 0.7559055118110236,
          "duration": 0.10714275000003681
        },
        {
          "name": "C1",
          "midi": 24,
          "time": 290.571137999996,
          "velocity": 0.7874015748031497,
          "duration": 0.026785687500023414
        },
        {
          "name": "F#2",
          "midi": 42,
          "time": 290.571137999996,
          "velocity": 0.7874015748031497,
          "duration": 0.026785687500023414
        },
        {
          "name": "D1",
          "midi": 26,
          "time": 290.571137999996,
          "velocity": 0.7874015748031497,
          "duration": 0.026785687500023414
        },
        {
          "name": "C7",
          "midi": 96,
          "time": 291.21399449999603,
          "velocity": 0.7559055118110236,
          "duration": 0.10714274999997997
        },
        {
          "name": "C7",
          "midi": 96,
          "time": 291.428279999996,
          "velocity": 0.7559055118110236,
          "duration": 0.10714275000003681
        },
        {
          "name": "D#7",
          "midi": 99,
          "time": 291.428279999996,
          "velocity": 0.7559055118110236,
          "duration": 0.10714275000003681
        },
        {
          "name": "C1",
          "midi": 24,
          "time": 291.428279999996,
          "velocity": 0.7874015748031497,
          "duration": 0.026785687500023414
        },
        {
          "name": "F#2",
          "midi": 42,
          "time": 291.428279999996,
          "velocity": 0.7874015748031497,
          "duration": 0.026785687500023414
        },
        {
          "name": "C7",
          "midi": 96,
          "time": 291.856850999996,
          "velocity": 0.7559055118110236,
          "duration": 0.10714274999997997
        },
        {
          "name": "C#7",
          "midi": 97,
          "time": 292.285421999996,
          "velocity": 0.7559055118110236,
          "duration": 0.10714275000003681
        },
        {
          "name": "D#7",
          "midi": 99,
          "time": 292.285421999996,
          "velocity": 0.7559055118110236,
          "duration": 0.10714275000003681
        },
        {
          "name": "C1",
          "midi": 24,
          "time": 292.285421999996,
          "velocity": 0.7874015748031497,
          "duration": 0.026785687500023414
        },
        {
          "name": "F#2",
          "midi": 42,
          "time": 292.285421999996,
          "velocity": 0.7874015748031497,
          "duration": 0.026785687500023414
        },
        {
          "name": "D1",
          "midi": 26,
          "time": 292.285421999996,
          "velocity": 0.7874015748031497,
          "duration": 0.026785687500023414
        },
        {
          "name": "C7",
          "midi": 96,
          "time": 292.71399299999604,
          "velocity": 0.7559055118110236,
          "duration": 0.10714274999997997
        },
        {
          "name": "C7",
          "midi": 96,
          "time": 292.928278499996,
          "velocity": 0.7559055118110236,
          "duration": 0.10714274999997997
        },
        {
          "name": "D#7",
          "midi": 99,
          "time": 293.14256399999596,
          "velocity": 0.7559055118110236,
          "duration": 0.10714275000003681
        },
        {
          "name": "C1",
          "midi": 24,
          "time": 293.14256399999596,
          "velocity": 0.7874015748031497,
          "duration": 0.026785687500023414
        },
        {
          "name": "F#2",
          "midi": 42,
          "time": 293.14256399999596,
          "velocity": 0.7874015748031497,
          "duration": 0.026785687500023414
        },
        {
          "name": "C7",
          "midi": 96,
          "time": 293.356849499996,
          "velocity": 0.7559055118110236,
          "duration": 0.10714274999997997
        },
        {
          "name": "C7",
          "midi": 96,
          "time": 293.57113499999593,
          "velocity": 0.7559055118110236,
          "duration": 0.10714274999997997
        },
        {
          "name": "C7",
          "midi": 96,
          "time": 293.6782777499959,
          "velocity": 0.7559055118110236,
          "duration": 0.10714274999997997
        },
        {
          "name": "C7",
          "midi": 96,
          "time": 293.7854204999959,
          "velocity": 0.7559055118110236,
          "duration": 0.10714274999997997
        },
        {
          "name": "C7",
          "midi": 96,
          "time": 293.8925632499959,
          "velocity": 0.7559055118110236,
          "duration": 0.10714274999997997
        },
        {
          "name": "C7",
          "midi": 96,
          "time": 293.99970599999585,
          "velocity": 0.7559055118110236,
          "duration": 0.10714275000003681
        },
        {
          "name": "C#7",
          "midi": 97,
          "time": 293.99970599999585,
          "velocity": 0.7559055118110236,
          "duration": 0.10714275000003681
        },
        {
          "name": "D#7",
          "midi": 99,
          "time": 293.99970599999585,
          "velocity": 0.7559055118110236,
          "duration": 0.10714275000003681
        },
        {
          "name": "C1",
          "midi": 24,
          "time": 293.99970599999585,
          "velocity": 0.7874015748031497,
          "duration": 0.026785687500023414
        },
        {
          "name": "F#2",
          "midi": 42,
          "time": 293.99970599999585,
          "velocity": 0.7874015748031497,
          "duration": 0.026785687500023414
        },
        {
          "name": "D1",
          "midi": 26,
          "time": 293.99970599999585,
          "velocity": 0.7874015748031497,
          "duration": 0.026785687500023414
        },
        {
          "name": "C7",
          "midi": 96,
          "time": 294.21399149999587,
          "velocity": 0.7559055118110236,
          "duration": 0.10714274999997997
        },
        {
          "name": "C7",
          "midi": 96,
          "time": 294.42827699999583,
          "velocity": 0.7559055118110236,
          "duration": 0.10714274999997997
        },
        {
          "name": "C7",
          "midi": 96,
          "time": 294.6425624999958,
          "velocity": 0.7559055118110236,
          "duration": 0.10714274999997997
        },
        {
          "name": "E7",
          "midi": 100,
          "time": 294.85684799999575,
          "velocity": 0.7559055118110236,
          "duration": 0.10714275000003681
        },
        {
          "name": "C1",
          "midi": 24,
          "time": 294.85684799999575,
          "velocity": 0.7874015748031497,
          "duration": 0.026785687500023414
        },
        {
          "name": "C2",
          "midi": 36,
          "time": 294.85684799999575,
          "velocity": 0.7874015748031497,
          "duration": 0.026785687500023414
        },
        {
          "name": "C7",
          "midi": 96,
          "time": 295.2854189999958,
          "velocity": 0.7559055118110236,
          "duration": 0.10714274999997997
        },
        {
          "name": "C#7",
          "midi": 97,
          "time": 295.71398999999576,
          "velocity": 0.7559055118110236,
          "duration": 0.10714275000003681
        },
        {
          "name": "D#7",
          "midi": 99,
          "time": 295.71398999999576,
          "velocity": 0.7559055118110236,
          "duration": 0.10714275000003681
        },
        {
          "name": "C1",
          "midi": 24,
          "time": 295.71398999999576,
          "velocity": 0.7874015748031497,
          "duration": 0.026785687500023414
        },
        {
          "name": "F#2",
          "midi": 42,
          "time": 295.71398999999576,
          "velocity": 0.7874015748031497,
          "duration": 0.026785687500023414
        },
        {
          "name": "D1",
          "midi": 26,
          "time": 295.71398999999576,
          "velocity": 0.7874015748031497,
          "duration": 0.026785687500023414
        },
        {
          "name": "C7",
          "midi": 96,
          "time": 296.1425609999958,
          "velocity": 0.7559055118110236,
          "duration": 0.10714274999997997
        },
        {
          "name": "C7",
          "midi": 96,
          "time": 296.35684649999575,
          "velocity": 0.7559055118110236,
          "duration": 0.10714274999997997
        },
        {
          "name": "D#7",
          "midi": 99,
          "time": 296.5711319999957,
          "velocity": 0.7559055118110236,
          "duration": 0.10714275000003681
        },
        {
          "name": "C1",
          "midi": 24,
          "time": 296.5711319999957,
          "velocity": 0.7874015748031497,
          "duration": 0.026785687500023414
        },
        {
          "name": "F#2",
          "midi": 42,
          "time": 296.5711319999957,
          "velocity": 0.7874015748031497,
          "duration": 0.026785687500023414
        },
        {
          "name": "C7",
          "midi": 96,
          "time": 296.78541749999573,
          "velocity": 0.7559055118110236,
          "duration": 0.10714274999997997
        },
        {
          "name": "C7",
          "midi": 96,
          "time": 296.9997029999957,
          "velocity": 0.7559055118110236,
          "duration": 0.10714274999997997
        },
        {
          "name": "C#7",
          "midi": 97,
          "time": 297.42827399999567,
          "velocity": 0.7559055118110236,
          "duration": 0.10714275000003681
        },
        {
          "name": "D#7",
          "midi": 99,
          "time": 297.42827399999567,
          "velocity": 0.7559055118110236,
          "duration": 0.10714275000003681
        },
        {
          "name": "C1",
          "midi": 24,
          "time": 297.42827399999567,
          "velocity": 0.7874015748031497,
          "duration": 0.026785687500023414
        },
        {
          "name": "F#2",
          "midi": 42,
          "time": 297.42827399999567,
          "velocity": 0.7874015748031497,
          "duration": 0.026785687500023414
        },
        {
          "name": "D1",
          "midi": 26,
          "time": 297.42827399999567,
          "velocity": 0.7874015748031497,
          "duration": 0.026785687500023414
        },
        {
          "name": "C7",
          "midi": 96,
          "time": 298.0711304999957,
          "velocity": 0.7559055118110236,
          "duration": 0.10714274999997997
        },
        {
          "name": "C7",
          "midi": 96,
          "time": 298.2854159999957,
          "velocity": 0.7559055118110236,
          "duration": 0.10714275000003681
        },
        {
          "name": "D#7",
          "midi": 99,
          "time": 298.2854159999957,
          "velocity": 0.7559055118110236,
          "duration": 0.10714275000003681
        },
        {
          "name": "C1",
          "midi": 24,
          "time": 298.2854159999957,
          "velocity": 0.7874015748031497,
          "duration": 0.026785687500023414
        },
        {
          "name": "F#2",
          "midi": 42,
          "time": 298.2854159999957,
          "velocity": 0.7874015748031497,
          "duration": 0.026785687500023414
        },
        {
          "name": "C7",
          "midi": 96,
          "time": 298.7139869999957,
          "velocity": 0.7559055118110236,
          "duration": 0.10714274999997997
        },
        {
          "name": "C#7",
          "midi": 97,
          "time": 299.1425579999957,
          "velocity": 0.7559055118110236,
          "duration": 0.10714275000003681
        },
        {
          "name": "D#7",
          "midi": 99,
          "time": 299.1425579999957,
          "velocity": 0.7559055118110236,
          "duration": 0.10714275000003681
        },
        {
          "name": "C1",
          "midi": 24,
          "time": 299.1425579999957,
          "velocity": 0.7874015748031497,
          "duration": 0.026785687500023414
        },
        {
          "name": "F#2",
          "midi": 42,
          "time": 299.1425579999957,
          "velocity": 0.7874015748031497,
          "duration": 0.026785687500023414
        },
        {
          "name": "D1",
          "midi": 26,
          "time": 299.1425579999957,
          "velocity": 0.7874015748031497,
          "duration": 0.026785687500023414
        },
        {
          "name": "C7",
          "midi": 96,
          "time": 299.5711289999957,
          "velocity": 0.7559055118110236,
          "duration": 0.10714274999997997
        },
        {
          "name": "C7",
          "midi": 96,
          "time": 299.7854144999957,
          "velocity": 0.7559055118110236,
          "duration": 0.10714274999997997
        },
        {
          "name": "D#7",
          "midi": 99,
          "time": 299.99969999999564,
          "velocity": 0.7559055118110236,
          "duration": 0.10714275000003681
        },
        {
          "name": "C1",
          "midi": 24,
          "time": 299.99969999999564,
          "velocity": 0.7874015748031497,
          "duration": 0.026785687500023414
        },
        {
          "name": "F#2",
          "midi": 42,
          "time": 299.99969999999564,
          "velocity": 0.7874015748031497,
          "duration": 0.026785687500023414
        },
        {
          "name": "C7",
          "midi": 96,
          "time": 300.21398549999566,
          "velocity": 0.7559055118110236,
          "duration": 0.10714274999997997
        },
        {
          "name": "C7",
          "midi": 96,
          "time": 300.4282709999956,
          "velocity": 0.7559055118110236,
          "duration": 0.10714274999997997
        },
        {
          "name": "C7",
          "midi": 96,
          "time": 300.6425564999956,
          "velocity": 0.7559055118110236,
          "duration": 0.10714274999997997
        },
        {
          "name": "C#7",
          "midi": 97,
          "time": 300.85684199999554,
          "velocity": 0.7559055118110236,
          "duration": 0.10714275000003681
        },
        {
          "name": "D#7",
          "midi": 99,
          "time": 300.85684199999554,
          "velocity": 0.7559055118110236,
          "duration": 0.10714275000003681
        },
        {
          "name": "C1",
          "midi": 24,
          "time": 300.85684199999554,
          "velocity": 0.7874015748031497,
          "duration": 0.026785687500023414
        },
        {
          "name": "F#2",
          "midi": 42,
          "time": 300.85684199999554,
          "velocity": 0.7874015748031497,
          "duration": 0.026785687500023414
        },
        {
          "name": "D1",
          "midi": 26,
          "time": 300.85684199999554,
          "velocity": 0.7874015748031497,
          "duration": 0.026785687500023414
        },
        {
          "name": "C7",
          "midi": 96,
          "time": 301.2854129999956,
          "velocity": 0.7559055118110236,
          "duration": 0.10714274999997997
        },
        {
          "name": "C7",
          "midi": 96,
          "time": 301.49969849999553,
          "velocity": 0.7559055118110236,
          "duration": 0.10714274999997997
        },
        {
          "name": "E7",
          "midi": 100,
          "time": 301.7139839999955,
          "velocity": 0.7559055118110236,
          "duration": 0.10714275000003681
        },
        {
          "name": "C1",
          "midi": 24,
          "time": 301.7139839999955,
          "velocity": 0.7874015748031497,
          "duration": 0.026785687500023414
        },
        {
          "name": "C2",
          "midi": 36,
          "time": 301.7139839999955,
          "velocity": 0.7874015748031497,
          "duration": 0.026785687500023414
        },
        {
          "name": "C7",
          "midi": 96,
          "time": 302.1425549999955,
          "velocity": 0.7559055118110236,
          "duration": 0.10714274999997997
        },
        {
          "name": "C#7",
          "midi": 97,
          "time": 302.5711259999955,
          "velocity": 0.7559055118110236,
          "duration": 0.10714275000003681
        },
        {
          "name": "D#7",
          "midi": 99,
          "time": 302.5711259999955,
          "velocity": 0.7559055118110236,
          "duration": 0.10714275000003681
        },
        {
          "name": "C1",
          "midi": 24,
          "time": 302.5711259999955,
          "velocity": 0.7874015748031497,
          "duration": 0.026785687500023414
        },
        {
          "name": "F#2",
          "midi": 42,
          "time": 302.5711259999955,
          "velocity": 0.7874015748031497,
          "duration": 0.026785687500023414
        },
        {
          "name": "D1",
          "midi": 26,
          "time": 302.5711259999955,
          "velocity": 0.7874015748031497,
          "duration": 0.026785687500023414
        },
        {
          "name": "C7",
          "midi": 96,
          "time": 302.99969699999554,
          "velocity": 0.7559055118110236,
          "duration": 0.10714274999997997
        },
        {
          "name": "C7",
          "midi": 96,
          "time": 303.2139824999955,
          "velocity": 0.7559055118110236,
          "duration": 0.10714274999997997
        },
        {
          "name": "D#7",
          "midi": 99,
          "time": 303.42826799999546,
          "velocity": 0.7559055118110236,
          "duration": 0.10714275000003681
        },
        {
          "name": "C1",
          "midi": 24,
          "time": 303.42826799999546,
          "velocity": 0.7874015748031497,
          "duration": 0.026785687500023414
        },
        {
          "name": "F#2",
          "midi": 42,
          "time": 303.42826799999546,
          "velocity": 0.7874015748031497,
          "duration": 0.026785687500023414
        },
        {
          "name": "C7",
          "midi": 96,
          "time": 303.6425534999955,
          "velocity": 0.7559055118110236,
          "duration": 0.10714274999997997
        },
        {
          "name": "C7",
          "midi": 96,
          "time": 303.85683899999543,
          "velocity": 0.7559055118110236,
          "duration": 0.10714274999997997
        },
        {
          "name": "C#7",
          "midi": 97,
          "time": 304.2854099999954,
          "velocity": 0.7559055118110236,
          "duration": 0.10714275000003681
        },
        {
          "name": "D#7",
          "midi": 99,
          "time": 304.2854099999954,
          "velocity": 0.7559055118110236,
          "duration": 0.10714275000003681
        },
        {
          "name": "C1",
          "midi": 24,
          "time": 304.2854099999954,
          "velocity": 0.7874015748031497,
          "duration": 0.026785687500023414
        },
        {
          "name": "F#2",
          "midi": 42,
          "time": 304.2854099999954,
          "velocity": 0.7874015748031497,
          "duration": 0.026785687500023414
        },
        {
          "name": "D1",
          "midi": 26,
          "time": 304.2854099999954,
          "velocity": 0.7874015748031497,
          "duration": 0.026785687500023414
        },
        {
          "name": "C7",
          "midi": 96,
          "time": 304.92826649999546,
          "velocity": 0.7559055118110236,
          "duration": 0.10714274999997997
        },
        {
          "name": "C7",
          "midi": 96,
          "time": 305.1425519999954,
          "velocity": 0.7559055118110236,
          "duration": 0.10714275000003681
        },
        {
          "name": "D#7",
          "midi": 99,
          "time": 305.1425519999954,
          "velocity": 0.7559055118110236,
          "duration": 0.10714275000003681
        },
        {
          "name": "C1",
          "midi": 24,
          "time": 305.1425519999954,
          "velocity": 0.7874015748031497,
          "duration": 0.026785687500023414
        },
        {
          "name": "F#2",
          "midi": 42,
          "time": 305.1425519999954,
          "velocity": 0.7874015748031497,
          "duration": 0.026785687500023414
        },
        {
          "name": "C7",
          "midi": 96,
          "time": 305.57112299999545,
          "velocity": 0.7559055118110236,
          "duration": 0.10714274999997997
        },
        {
          "name": "C#7",
          "midi": 97,
          "time": 305.99969399999543,
          "velocity": 0.7559055118110236,
          "duration": 0.10714275000003681
        },
        {
          "name": "D#7",
          "midi": 99,
          "time": 305.99969399999543,
          "velocity": 0.7559055118110236,
          "duration": 0.10714275000003681
        },
        {
          "name": "C1",
          "midi": 24,
          "time": 305.99969399999543,
          "velocity": 0.7874015748031497,
          "duration": 0.026785687500023414
        },
        {
          "name": "F#2",
          "midi": 42,
          "time": 305.99969399999543,
          "velocity": 0.7874015748031497,
          "duration": 0.026785687500023414
        },
        {
          "name": "D1",
          "midi": 26,
          "time": 305.99969399999543,
          "velocity": 0.7874015748031497,
          "duration": 0.026785687500023414
        },
        {
          "name": "C7",
          "midi": 96,
          "time": 306.42826499999546,
          "velocity": 0.7559055118110236,
          "duration": 0.10714274999997997
        },
        {
          "name": "C7",
          "midi": 96,
          "time": 306.6425504999954,
          "velocity": 0.7559055118110236,
          "duration": 0.10714274999997997
        },
        {
          "name": "D#7",
          "midi": 99,
          "time": 306.8568359999954,
          "velocity": 0.7559055118110236,
          "duration": 0.10714275000003681
        },
        {
          "name": "C1",
          "midi": 24,
          "time": 306.8568359999954,
          "velocity": 0.7874015748031497,
          "duration": 0.026785687500023414
        },
        {
          "name": "F#2",
          "midi": 42,
          "time": 306.8568359999954,
          "velocity": 0.7874015748031497,
          "duration": 0.026785687500023414
        },
        {
          "name": "C7",
          "midi": 96,
          "time": 307.0711214999954,
          "velocity": 0.7559055118110236,
          "duration": 0.10714274999997997
        },
        {
          "name": "C7",
          "midi": 96,
          "time": 307.28540699999536,
          "velocity": 0.7559055118110236,
          "duration": 0.10714274999997997
        },
        {
          "name": "C7",
          "midi": 96,
          "time": 307.39254974999534,
          "velocity": 0.7559055118110236,
          "duration": 0.10714274999997997
        },
        {
          "name": "C7",
          "midi": 96,
          "time": 307.4996924999953,
          "velocity": 0.7559055118110236,
          "duration": 0.10714274999997997
        },
        {
          "name": "C7",
          "midi": 96,
          "time": 307.6068352499953,
          "velocity": 0.7559055118110236,
          "duration": 0.10714274999997997
        },
        {
          "name": "C7",
          "midi": 96,
          "time": 307.7139779999953,
          "velocity": 0.7559055118110236,
          "duration": 0.10714275000003681
        },
        {
          "name": "C#7",
          "midi": 97,
          "time": 307.7139779999953,
          "velocity": 0.7559055118110236,
          "duration": 0.10714275000003681
        },
        {
          "name": "D#7",
          "midi": 99,
          "time": 307.7139779999953,
          "velocity": 0.7559055118110236,
          "duration": 0.10714275000003681
        },
        {
          "name": "C1",
          "midi": 24,
          "time": 307.7139779999953,
          "velocity": 0.7874015748031497,
          "duration": 0.026785687500023414
        },
        {
          "name": "F#2",
          "midi": 42,
          "time": 307.7139779999953,
          "velocity": 0.7874015748031497,
          "duration": 0.026785687500023414
        },
        {
          "name": "D1",
          "midi": 26,
          "time": 307.7139779999953,
          "velocity": 0.7874015748031497,
          "duration": 0.026785687500023414
        },
        {
          "name": "C7",
          "midi": 96,
          "time": 307.9282634999953,
          "velocity": 0.7559055118110236,
          "duration": 0.10714274999997997
        },
        {
          "name": "C7",
          "midi": 96,
          "time": 308.14254899999526,
          "velocity": 0.7559055118110236,
          "duration": 0.10714274999997997
        },
        {
          "name": "C7",
          "midi": 96,
          "time": 308.3568344999952,
          "velocity": 0.7559055118110236,
          "duration": 0.10714274999997997
        },
        {
          "name": "E7",
          "midi": 100,
          "time": 308.5711199999952,
          "velocity": 0.7559055118110236,
          "duration": 0.10714275000003681
        },
        {
          "name": "C1",
          "midi": 24,
          "time": 308.5711199999952,
          "velocity": 0.7874015748031497,
          "duration": 0.026785687500023414
        },
        {
          "name": "C2",
          "midi": 36,
          "time": 308.5711199999952,
          "velocity": 0.7874015748031497,
          "duration": 0.026785687500023414
        },
        {
          "name": "C7",
          "midi": 96,
          "time": 308.9996909999952,
          "velocity": 0.7559055118110236,
          "duration": 0.10714274999997997
        },
        {
          "name": "C#7",
          "midi": 97,
          "time": 309.4282619999952,
          "velocity": 0.7559055118110236,
          "duration": 0.10714275000003681
        },
        {
          "name": "D#7",
          "midi": 99,
          "time": 309.4282619999952,
          "velocity": 0.7559055118110236,
          "duration": 0.10714275000003681
        },
        {
          "name": "C1",
          "midi": 24,
          "time": 309.4282619999952,
          "velocity": 0.7874015748031497,
          "duration": 0.026785687500023414
        },
        {
          "name": "F#2",
          "midi": 42,
          "time": 309.4282619999952,
          "velocity": 0.7874015748031497,
          "duration": 0.026785687500023414
        },
        {
          "name": "D1",
          "midi": 26,
          "time": 309.4282619999952,
          "velocity": 0.7874015748031497,
          "duration": 0.026785687500023414
        },
        {
          "name": "C7",
          "midi": 96,
          "time": 309.8568329999952,
          "velocity": 0.7559055118110236,
          "duration": 0.10714274999997997
        },
        {
          "name": "C7",
          "midi": 96,
          "time": 310.0711184999952,
          "velocity": 0.7559055118110236,
          "duration": 0.10714274999997997
        },
        {
          "name": "D#7",
          "midi": 99,
          "time": 310.28540399999514,
          "velocity": 0.7559055118110236,
          "duration": 0.10714275000003681
        },
        {
          "name": "C1",
          "midi": 24,
          "time": 310.28540399999514,
          "velocity": 0.7874015748031497,
          "duration": 0.026785687500023414
        },
        {
          "name": "F#2",
          "midi": 42,
          "time": 310.28540399999514,
          "velocity": 0.7874015748031497,
          "duration": 0.026785687500023414
        },
        {
          "name": "C7",
          "midi": 96,
          "time": 310.49968949999516,
          "velocity": 0.7559055118110236,
          "duration": 0.10714274999997997
        },
        {
          "name": "C7",
          "midi": 96,
          "time": 310.7139749999951,
          "velocity": 0.7559055118110236,
          "duration": 0.10714274999997997
        },
        {
          "name": "C#7",
          "midi": 97,
          "time": 311.1425459999951,
          "velocity": 0.7559055118110236,
          "duration": 0.10714275000003681
        },
        {
          "name": "D#7",
          "midi": 99,
          "time": 311.1425459999951,
          "velocity": 0.7559055118110236,
          "duration": 0.10714275000003681
        },
        {
          "name": "C1",
          "midi": 24,
          "time": 311.1425459999951,
          "velocity": 0.7874015748031497,
          "duration": 0.026785687500023414
        },
        {
          "name": "F#2",
          "midi": 42,
          "time": 311.1425459999951,
          "velocity": 0.7874015748031497,
          "duration": 0.026785687500023414
        },
        {
          "name": "D1",
          "midi": 26,
          "time": 311.1425459999951,
          "velocity": 0.7874015748031497,
          "duration": 0.026785687500023414
        },
        {
          "name": "C7",
          "midi": 96,
          "time": 311.78540249999514,
          "velocity": 0.7559055118110236,
          "duration": 0.10714274999997997
        },
        {
          "name": "C7",
          "midi": 96,
          "time": 311.9996879999951,
          "velocity": 0.7559055118110236,
          "duration": 0.10714275000003681
        },
        {
          "name": "D#7",
          "midi": 99,
          "time": 311.9996879999951,
          "velocity": 0.7559055118110236,
          "duration": 0.10714275000003681
        },
        {
          "name": "C1",
          "midi": 24,
          "time": 311.9996879999951,
          "velocity": 0.7874015748031497,
          "duration": 0.026785687500023414
        },
        {
          "name": "F#2",
          "midi": 42,
          "time": 311.9996879999951,
          "velocity": 0.7874015748031497,
          "duration": 0.026785687500023414
        },
        {
          "name": "C7",
          "midi": 96,
          "time": 312.42825899999514,
          "velocity": 0.7559055118110236,
          "duration": 0.10714274999997997
        },
        {
          "name": "C#7",
          "midi": 97,
          "time": 312.8568299999951,
          "velocity": 0.7559055118110236,
          "duration": 0.10714275000003681
        },
        {
          "name": "D#7",
          "midi": 99,
          "time": 312.8568299999951,
          "velocity": 0.7559055118110236,
          "duration": 0.10714275000003681
        },
        {
          "name": "C1",
          "midi": 24,
          "time": 312.8568299999951,
          "velocity": 0.7874015748031497,
          "duration": 0.026785687500023414
        },
        {
          "name": "F#2",
          "midi": 42,
          "time": 312.8568299999951,
          "velocity": 0.7874015748031497,
          "duration": 0.026785687500023414
        },
        {
          "name": "D1",
          "midi": 26,
          "time": 312.8568299999951,
          "velocity": 0.7874015748031497,
          "duration": 0.026785687500023414
        },
        {
          "name": "C7",
          "midi": 96,
          "time": 313.28540099999515,
          "velocity": 0.7559055118110236,
          "duration": 0.10714274999997997
        },
        {
          "name": "C7",
          "midi": 96,
          "time": 313.4996864999951,
          "velocity": 0.7559055118110236,
          "duration": 0.10714274999997997
        },
        {
          "name": "D#7",
          "midi": 99,
          "time": 313.71397199999507,
          "velocity": 0.7559055118110236,
          "duration": 0.10714275000003681
        },
        {
          "name": "C1",
          "midi": 24,
          "time": 313.71397199999507,
          "velocity": 0.7874015748031497,
          "duration": 0.026785687500023414
        },
        {
          "name": "F#2",
          "midi": 42,
          "time": 313.71397199999507,
          "velocity": 0.7874015748031497,
          "duration": 0.026785687500023414
        },
        {
          "name": "C7",
          "midi": 96,
          "time": 313.9282574999951,
          "velocity": 0.7559055118110236,
          "duration": 0.10714274999997997
        },
        {
          "name": "C7",
          "midi": 96,
          "time": 314.14254299999504,
          "velocity": 0.7559055118110236,
          "duration": 0.10714274999997997
        },
        {
          "name": "C#7",
          "midi": 97,
          "time": 314.571113999995,
          "velocity": 0.7559055118110236,
          "duration": 0.10714275000003681
        },
        {
          "name": "D#7",
          "midi": 99,
          "time": 314.571113999995,
          "velocity": 0.7559055118110236,
          "duration": 0.10714275000003681
        },
        {
          "name": "C1",
          "midi": 24,
          "time": 314.571113999995,
          "velocity": 0.7874015748031497,
          "duration": 0.026785687500023414
        },
        {
          "name": "F#2",
          "midi": 42,
          "time": 314.571113999995,
          "velocity": 0.7874015748031497,
          "duration": 0.026785687500023414
        },
        {
          "name": "D1",
          "midi": 26,
          "time": 314.571113999995,
          "velocity": 0.7874015748031497,
          "duration": 0.026785687500023414
        },
        {
          "name": "C7",
          "midi": 96,
          "time": 314.99968499999505,
          "velocity": 0.7559055118110236,
          "duration": 0.10714274999997997
        },
        {
          "name": "C7",
          "midi": 96,
          "time": 315.213970499995,
          "velocity": 0.7559055118110236,
          "duration": 0.10714274999997997
        },
        {
          "name": "E7",
          "midi": 100,
          "time": 315.428255999995,
          "velocity": 0.7559055118110236,
          "duration": 0.10714275000003681
        },
        {
          "name": "C1",
          "midi": 24,
          "time": 315.428255999995,
          "velocity": 0.7874015748031497,
          "duration": 0.026785687500023414
        },
        {
          "name": "C2",
          "midi": 36,
          "time": 315.428255999995,
          "velocity": 0.7874015748031497,
          "duration": 0.026785687500023414
        },
        {
          "name": "C7",
          "midi": 96,
          "time": 315.856826999995,
          "velocity": 0.7559055118110236,
          "duration": 0.10714274999997997
        },
        {
          "name": "C#7",
          "midi": 97,
          "time": 316.285397999995,
          "velocity": 0.7559055118110236,
          "duration": 0.10714275000003681
        },
        {
          "name": "D#7",
          "midi": 99,
          "time": 316.285397999995,
          "velocity": 0.7559055118110236,
          "duration": 0.10714275000003681
        },
        {
          "name": "C1",
          "midi": 24,
          "time": 316.285397999995,
          "velocity": 0.7874015748031497,
          "duration": 0.026785687500023414
        },
        {
          "name": "F#2",
          "midi": 42,
          "time": 316.285397999995,
          "velocity": 0.7874015748031497,
          "duration": 0.026785687500023414
        },
        {
          "name": "D1",
          "midi": 26,
          "time": 316.285397999995,
          "velocity": 0.7874015748031497,
          "duration": 0.026785687500023414
        },
        {
          "name": "C7",
          "midi": 96,
          "time": 316.713968999995,
          "velocity": 0.7559055118110236,
          "duration": 0.10714274999997997
        },
        {
          "name": "C7",
          "midi": 96,
          "time": 316.928254499995,
          "velocity": 0.7559055118110236,
          "duration": 0.10714274999997997
        },
        {
          "name": "D#7",
          "midi": 99,
          "time": 317.14253999999494,
          "velocity": 0.7559055118110236,
          "duration": 0.10714275000003681
        },
        {
          "name": "C1",
          "midi": 24,
          "time": 317.14253999999494,
          "velocity": 0.7874015748031497,
          "duration": 0.026785687500023414
        },
        {
          "name": "F#2",
          "midi": 42,
          "time": 317.14253999999494,
          "velocity": 0.7874015748031497,
          "duration": 0.026785687500023414
        },
        {
          "name": "C7",
          "midi": 96,
          "time": 317.35682549999495,
          "velocity": 0.7559055118110236,
          "duration": 0.10714274999997997
        },
        {
          "name": "C7",
          "midi": 96,
          "time": 317.5711109999949,
          "velocity": 0.7559055118110236,
          "duration": 0.10714274999997997
        },
        {
          "name": "C#7",
          "midi": 97,
          "time": 317.9996819999949,
          "velocity": 0.7559055118110236,
          "duration": 0.10714275000003681
        },
        {
          "name": "D#7",
          "midi": 99,
          "time": 317.9996819999949,
          "velocity": 0.7559055118110236,
          "duration": 0.10714275000003681
        },
        {
          "name": "C1",
          "midi": 24,
          "time": 317.9996819999949,
          "velocity": 0.7874015748031497,
          "duration": 0.026785687500023414
        },
        {
          "name": "F#2",
          "midi": 42,
          "time": 317.9996819999949,
          "velocity": 0.7874015748031497,
          "duration": 0.026785687500023414
        },
        {
          "name": "D1",
          "midi": 26,
          "time": 317.9996819999949,
          "velocity": 0.7874015748031497,
          "duration": 0.026785687500023414
        },
        {
          "name": "C7",
          "midi": 96,
          "time": 318.64253849999494,
          "velocity": 0.7559055118110236,
          "duration": 0.10714274999997997
        },
        {
          "name": "C7",
          "midi": 96,
          "time": 318.8568239999949,
          "velocity": 0.7559055118110236,
          "duration": 0.10714275000003681
        },
        {
          "name": "D#7",
          "midi": 99,
          "time": 318.8568239999949,
          "velocity": 0.7559055118110236,
          "duration": 0.10714275000003681
        },
        {
          "name": "C1",
          "midi": 24,
          "time": 318.8568239999949,
          "velocity": 0.7874015748031497,
          "duration": 0.026785687500023414
        },
        {
          "name": "F#2",
          "midi": 42,
          "time": 318.8568239999949,
          "velocity": 0.7874015748031497,
          "duration": 0.026785687500023414
        },
        {
          "name": "C7",
          "midi": 96,
          "time": 319.28539499999494,
          "velocity": 0.7559055118110236,
          "duration": 0.10714274999997997
        },
        {
          "name": "C#7",
          "midi": 97,
          "time": 319.7139659999949,
          "velocity": 0.7559055118110236,
          "duration": 0.10714275000003681
        },
        {
          "name": "D#7",
          "midi": 99,
          "time": 319.7139659999949,
          "velocity": 0.7559055118110236,
          "duration": 0.10714275000003681
        },
        {
          "name": "C1",
          "midi": 24,
          "time": 319.7139659999949,
          "velocity": 0.7874015748031497,
          "duration": 0.026785687500023414
        },
        {
          "name": "F#2",
          "midi": 42,
          "time": 319.7139659999949,
          "velocity": 0.7874015748031497,
          "duration": 0.026785687500023414
        },
        {
          "name": "D1",
          "midi": 26,
          "time": 319.7139659999949,
          "velocity": 0.7874015748031497,
          "duration": 0.026785687500023414
        },
        {
          "name": "C7",
          "midi": 96,
          "time": 320.14253699999495,
          "velocity": 0.7559055118110236,
          "duration": 0.10714274999997997
        },
        {
          "name": "C7",
          "midi": 96,
          "time": 320.3568224999949,
          "velocity": 0.7559055118110236,
          "duration": 0.10714274999997997
        },
        {
          "name": "D#7",
          "midi": 99,
          "time": 320.57110799999487,
          "velocity": 0.7559055118110236,
          "duration": 0.10714275000003681
        },
        {
          "name": "C1",
          "midi": 24,
          "time": 320.57110799999487,
          "velocity": 0.7874015748031497,
          "duration": 0.026785687500023414
        },
        {
          "name": "F#2",
          "midi": 42,
          "time": 320.57110799999487,
          "velocity": 0.7874015748031497,
          "duration": 0.026785687500023414
        },
        {
          "name": "C7",
          "midi": 96,
          "time": 320.7853934999949,
          "velocity": 0.7559055118110236,
          "duration": 0.10714274999997997
        },
        {
          "name": "C7",
          "midi": 96,
          "time": 320.99967899999484,
          "velocity": 0.7559055118110236,
          "duration": 0.10714274999997997
        },
        {
          "name": "C7",
          "midi": 96,
          "time": 321.1068217499948,
          "velocity": 0.7559055118110236,
          "duration": 0.10714274999997997
        },
        {
          "name": "C7",
          "midi": 96,
          "time": 321.2139644999948,
          "velocity": 0.7559055118110236,
          "duration": 0.10714274999997997
        },
        {
          "name": "C7",
          "midi": 96,
          "time": 321.3211072499948,
          "velocity": 0.7559055118110236,
          "duration": 0.10714274999997997
        },
        {
          "name": "C7",
          "midi": 96,
          "time": 321.42824999999476,
          "velocity": 0.7559055118110236,
          "duration": 0.10714275000003681
        },
        {
          "name": "C#7",
          "midi": 97,
          "time": 321.42824999999476,
          "velocity": 0.7559055118110236,
          "duration": 0.10714275000003681
        },
        {
          "name": "D#7",
          "midi": 99,
          "time": 321.42824999999476,
          "velocity": 0.7559055118110236,
          "duration": 0.10714275000003681
        },
        {
          "name": "C1",
          "midi": 24,
          "time": 321.42824999999476,
          "velocity": 0.7874015748031497,
          "duration": 0.026785687500023414
        },
        {
          "name": "F#2",
          "midi": 42,
          "time": 321.42824999999476,
          "velocity": 0.7874015748031497,
          "duration": 0.026785687500023414
        },
        {
          "name": "D1",
          "midi": 26,
          "time": 321.42824999999476,
          "velocity": 0.7874015748031497,
          "duration": 0.026785687500023414
        },
        {
          "name": "C7",
          "midi": 96,
          "time": 321.6425354999948,
          "velocity": 0.7559055118110236,
          "duration": 0.10714274999997997
        },
        {
          "name": "C7",
          "midi": 96,
          "time": 321.85682099999474,
          "velocity": 0.7559055118110236,
          "duration": 0.10714274999997997
        },
        {
          "name": "C7",
          "midi": 96,
          "time": 322.0711064999947,
          "velocity": 0.7559055118110236,
          "duration": 0.10714274999997997
        },
        {
          "name": "E7",
          "midi": 100,
          "time": 322.28539199999466,
          "velocity": 0.7559055118110236,
          "duration": 0.10714275000003681
        },
        {
          "name": "C1",
          "midi": 24,
          "time": 322.28539199999466,
          "velocity": 0.7874015748031497,
          "duration": 0.026785687500023414
        },
        {
          "name": "C2",
          "midi": 36,
          "time": 322.28539199999466,
          "velocity": 0.7874015748031497,
          "duration": 0.026785687500023414
        },
        {
          "name": "C7",
          "midi": 96,
          "time": 322.7139629999947,
          "velocity": 0.7559055118110236,
          "duration": 0.10714274999997997
        },
        {
          "name": "C#7",
          "midi": 97,
          "time": 323.14253399999467,
          "velocity": 0.7559055118110236,
          "duration": 0.10714275000003681
        },
        {
          "name": "D#7",
          "midi": 99,
          "time": 323.14253399999467,
          "velocity": 0.7559055118110236,
          "duration": 0.10714275000003681
        },
        {
          "name": "C1",
          "midi": 24,
          "time": 323.14253399999467,
          "velocity": 0.7874015748031497,
          "duration": 0.026785687500023414
        },
        {
          "name": "F#2",
          "midi": 42,
          "time": 323.14253399999467,
          "velocity": 0.7874015748031497,
          "duration": 0.026785687500023414
        },
        {
          "name": "D1",
          "midi": 26,
          "time": 323.14253399999467,
          "velocity": 0.7874015748031497,
          "duration": 0.026785687500023414
        },
        {
          "name": "C7",
          "midi": 96,
          "time": 323.5711049999947,
          "velocity": 0.7559055118110236,
          "duration": 0.10714274999997997
        },
        {
          "name": "C7",
          "midi": 96,
          "time": 323.78539049999466,
          "velocity": 0.7559055118110236,
          "duration": 0.10714274999997997
        },
        {
          "name": "D#7",
          "midi": 99,
          "time": 323.9996759999946,
          "velocity": 0.7559055118110236,
          "duration": 0.10714275000003681
        },
        {
          "name": "C1",
          "midi": 24,
          "time": 323.9996759999946,
          "velocity": 0.7874015748031497,
          "duration": 0.026785687500023414
        },
        {
          "name": "F#2",
          "midi": 42,
          "time": 323.9996759999946,
          "velocity": 0.7874015748031497,
          "duration": 0.026785687500023414
        },
        {
          "name": "C7",
          "midi": 96,
          "time": 324.21396149999464,
          "velocity": 0.7559055118110236,
          "duration": 0.10714274999997997
        },
        {
          "name": "C7",
          "midi": 96,
          "time": 324.4282469999946,
          "velocity": 0.7559055118110236,
          "duration": 0.10714274999997997
        },
        {
          "name": "C#7",
          "midi": 97,
          "time": 324.8568179999946,
          "velocity": 0.7559055118110236,
          "duration": 0.10714275000003681
        },
        {
          "name": "D#7",
          "midi": 99,
          "time": 324.8568179999946,
          "velocity": 0.7559055118110236,
          "duration": 0.10714275000003681
        },
        {
          "name": "C1",
          "midi": 24,
          "time": 324.8568179999946,
          "velocity": 0.7874015748031497,
          "duration": 0.026785687500023414
        },
        {
          "name": "F#2",
          "midi": 42,
          "time": 324.8568179999946,
          "velocity": 0.7874015748031497,
          "duration": 0.026785687500023414
        },
        {
          "name": "D1",
          "midi": 26,
          "time": 324.8568179999946,
          "velocity": 0.7874015748031497,
          "duration": 0.026785687500023414
        },
        {
          "name": "C7",
          "midi": 96,
          "time": 325.4996744999946,
          "velocity": 0.7559055118110236,
          "duration": 0.10714274999997997
        },
        {
          "name": "C7",
          "midi": 96,
          "time": 325.7139599999946,
          "velocity": 0.7559055118110236,
          "duration": 0.10714275000003681
        },
        {
          "name": "D#7",
          "midi": 99,
          "time": 325.7139599999946,
          "velocity": 0.7559055118110236,
          "duration": 0.10714275000003681
        },
        {
          "name": "C1",
          "midi": 24,
          "time": 325.7139599999946,
          "velocity": 0.7874015748031497,
          "duration": 0.026785687500023414
        },
        {
          "name": "F#2",
          "midi": 42,
          "time": 325.7139599999946,
          "velocity": 0.7874015748031497,
          "duration": 0.026785687500023414
        },
        {
          "name": "C7",
          "midi": 96,
          "time": 326.1425309999946,
          "velocity": 0.7559055118110236,
          "duration": 0.10714274999997997
        },
        {
          "name": "C#7",
          "midi": 97,
          "time": 326.5711019999946,
          "velocity": 0.7559055118110236,
          "duration": 0.10714275000003681
        },
        {
          "name": "D#7",
          "midi": 99,
          "time": 326.5711019999946,
          "velocity": 0.7559055118110236,
          "duration": 0.10714275000003681
        },
        {
          "name": "C1",
          "midi": 24,
          "time": 326.5711019999946,
          "velocity": 0.7874015748031497,
          "duration": 0.026785687500023414
        },
        {
          "name": "F#2",
          "midi": 42,
          "time": 326.5711019999946,
          "velocity": 0.7874015748031497,
          "duration": 0.026785687500023414
        },
        {
          "name": "D1",
          "midi": 26,
          "time": 326.5711019999946,
          "velocity": 0.7874015748031497,
          "duration": 0.026785687500023414
        },
        {
          "name": "C7",
          "midi": 96,
          "time": 326.99967299999463,
          "velocity": 0.7559055118110236,
          "duration": 0.10714274999997997
        },
        {
          "name": "C7",
          "midi": 96,
          "time": 327.2139584999946,
          "velocity": 0.7559055118110236,
          "duration": 0.10714274999997997
        },
        {
          "name": "D#7",
          "midi": 99,
          "time": 327.42824399999455,
          "velocity": 0.7559055118110236,
          "duration": 0.10714275000003681
        },
        {
          "name": "C1",
          "midi": 24,
          "time": 327.42824399999455,
          "velocity": 0.7874015748031497,
          "duration": 0.026785687500023414
        },
        {
          "name": "F#2",
          "midi": 42,
          "time": 327.42824399999455,
          "velocity": 0.7874015748031497,
          "duration": 0.026785687500023414
        },
        {
          "name": "C7",
          "midi": 96,
          "time": 327.64252949999457,
          "velocity": 0.7559055118110236,
          "duration": 0.10714274999997997
        },
        {
          "name": "C7",
          "midi": 96,
          "time": 327.8568149999945,
          "velocity": 0.7559055118110236,
          "duration": 0.10714274999997997
        },
        {
          "name": "C#7",
          "midi": 97,
          "time": 328.2853859999945,
          "velocity": 0.7559055118110236,
          "duration": 0.10714275000003681
        },
        {
          "name": "D#7",
          "midi": 99,
          "time": 328.2853859999945,
          "velocity": 0.7559055118110236,
          "duration": 0.10714275000003681
        },
        {
          "name": "C1",
          "midi": 24,
          "time": 328.2853859999945,
          "velocity": 0.7874015748031497,
          "duration": 0.026785687500023414
        },
        {
          "name": "F#2",
          "midi": 42,
          "time": 328.2853859999945,
          "velocity": 0.7874015748031497,
          "duration": 0.026785687500023414
        },
        {
          "name": "D1",
          "midi": 26,
          "time": 328.2853859999945,
          "velocity": 0.7874015748031497,
          "duration": 0.026785687500023414
        },
        {
          "name": "C7",
          "midi": 96,
          "time": 328.71395699999454,
          "velocity": 0.7559055118110236,
          "duration": 0.10714274999997997
        },
        {
          "name": "C7",
          "midi": 96,
          "time": 328.9282424999945,
          "velocity": 0.7559055118110236,
          "duration": 0.10714274999997997
        },
        {
          "name": "C7",
          "midi": 96,
          "time": 329.14252799999446,
          "velocity": 0.7559055118110236,
          "duration": 0.10714275000003681
        },
        {
          "name": "D#7",
          "midi": 99,
          "time": 329.14252799999446,
          "velocity": 0.7559055118110236,
          "duration": 0.10714275000003681
        },
        {
          "name": "E7",
          "midi": 100,
          "time": 329.14252799999446,
          "velocity": 0.7559055118110236,
          "duration": 0.10714275000003681
        },
        {
          "name": "D#8",
          "midi": 111,
          "time": 329.14252799999446,
          "velocity": 0.7559055118110236,
          "duration": 0.10714275000003681
        },
        {
          "name": "E8",
          "midi": 112,
          "time": 329.14252799999446,
          "velocity": 0.7559055118110236,
          "duration": 0.10714275000003681
        },
        {
          "name": "C1",
          "midi": 24,
          "time": 329.14252799999446,
          "velocity": 0.7874015748031497,
          "duration": 0.026785687500023414
        },
        {
          "name": "D#3",
          "midi": 51,
          "time": 329.14252799999446,
          "velocity": 0.7874015748031497,
          "duration": 0.026785687500023414
        },
        {
          "name": "C3",
          "midi": 48,
          "time": 329.14252799999446,
          "velocity": 0.7874015748031497,
          "duration": 0.026785687500023414
        },
        {
          "name": "C7",
          "midi": 96,
          "time": 370.2853439999945,
          "velocity": 0.7559055118110236,
          "duration": 0.10714275000003681
        },
        {
          "name": "E7",
          "midi": 100,
          "time": 370.2853439999945,
          "velocity": 0.7559055118110236,
          "duration": 0.10714275000003681
        },
        {
          "name": "C1",
          "midi": 24,
          "time": 370.2853439999945,
          "velocity": 0.7874015748031497,
          "duration": 0.026785687500023414
        },
        {
          "name": "C2",
          "midi": 36,
          "time": 370.2853439999945,
          "velocity": 0.7874015748031497,
          "duration": 0.026785687500023414
        },
        {
          "name": "C7",
          "midi": 96,
          "time": 370.71391499999453,
          "velocity": 0.7559055118110236,
          "duration": 0.10714275000003681
        },
        {
          "name": "D7",
          "midi": 98,
          "time": 370.71391499999453,
          "velocity": 0.7559055118110236,
          "duration": 0.10714275000003681
        },
        {
          "name": "C1",
          "midi": 24,
          "time": 370.71391499999453,
          "velocity": 0.7874015748031497,
          "duration": 0.026785687500023414
        },
        {
          "name": "F#1",
          "midi": 30,
          "time": 370.71391499999453,
          "velocity": 0.7874015748031497,
          "duration": 0.026785687500023414
        },
        {
          "name": "C#7",
          "midi": 97,
          "time": 371.14248599999456,
          "velocity": 0.7559055118110236,
          "duration": 0.10714275000003681
        },
        {
          "name": "D7",
          "midi": 98,
          "time": 371.14248599999456,
          "velocity": 0.7559055118110236,
          "duration": 0.10714275000003681
        },
        {
          "name": "G1",
          "midi": 31,
          "time": 371.14248599999456,
          "velocity": 0.7874015748031497,
          "duration": 0.026785687500023414
        },
        {
          "name": "D1",
          "midi": 26,
          "time": 371.14248599999456,
          "velocity": 0.7874015748031497,
          "duration": 0.026785687500023414
        },
        {
          "name": "C7",
          "midi": 96,
          "time": 371.5710569999946,
          "velocity": 0.7559055118110236,
          "duration": 0.10714275000003681
        },
        {
          "name": "D7",
          "midi": 98,
          "time": 371.5710569999946,
          "velocity": 0.7559055118110236,
          "duration": 0.10714275000003681
        },
        {
          "name": "C1",
          "midi": 24,
          "time": 371.5710569999946,
          "velocity": 0.7874015748031497,
          "duration": 0.026785687500023414
        },
        {
          "name": "G1",
          "midi": 31,
          "time": 371.5710569999946,
          "velocity": 0.7874015748031497,
          "duration": 0.026785687500023414
        },
        {
          "name": "C7",
          "midi": 96,
          "time": 371.7853424999946,
          "velocity": 0.7559055118110236,
          "duration": 0.10714274999997997
        },
        {
          "name": "C7",
          "midi": 96,
          "time": 371.9996279999946,
          "velocity": 0.7559055118110236,
          "duration": 0.10714275000003681
        },
        {
          "name": "D7",
          "midi": 98,
          "time": 371.9996279999946,
          "velocity": 0.7559055118110236,
          "duration": 0.10714275000003681
        },
        {
          "name": "C1",
          "midi": 24,
          "time": 371.9996279999946,
          "velocity": 0.7874015748031497,
          "duration": 0.026785687500023414
        },
        {
          "name": "F#1",
          "midi": 30,
          "time": 371.9996279999946,
          "velocity": 0.7874015748031497,
          "duration": 0.026785687500023414
        },
        {
          "name": "C7",
          "midi": 96,
          "time": 372.2139134999946,
          "velocity": 0.7559055118110236,
          "duration": 0.10714274999997997
        },
        {
          "name": "C7",
          "midi": 96,
          "time": 372.42819899999455,
          "velocity": 0.7559055118110236,
          "duration": 0.10714275000003681
        },
        {
          "name": "D7",
          "midi": 98,
          "time": 372.42819899999455,
          "velocity": 0.7559055118110236,
          "duration": 0.10714275000003681
        },
        {
          "name": "C1",
          "midi": 24,
          "time": 372.42819899999455,
          "velocity": 0.7874015748031497,
          "duration": 0.026785687500023414
        },
        {
          "name": "G1",
          "midi": 31,
          "time": 372.42819899999455,
          "velocity": 0.7874015748031497,
          "duration": 0.026785687500023414
        },
        {
          "name": "C#7",
          "midi": 97,
          "time": 372.8567699999946,
          "velocity": 0.7559055118110236,
          "duration": 0.10714275000003681
        },
        {
          "name": "D7",
          "midi": 98,
          "time": 372.8567699999946,
          "velocity": 0.7559055118110236,
          "duration": 0.10714275000003681
        },
        {
          "name": "G1",
          "midi": 31,
          "time": 372.8567699999946,
          "velocity": 0.7874015748031497,
          "duration": 0.026785687500023414
        },
        {
          "name": "D1",
          "midi": 26,
          "time": 372.8567699999946,
          "velocity": 0.7874015748031497,
          "duration": 0.026785687500023414
        },
        {
          "name": "C7",
          "midi": 96,
          "time": 373.2853409999946,
          "velocity": 0.7559055118110236,
          "duration": 0.10714275000003681
        },
        {
          "name": "D7",
          "midi": 98,
          "time": 373.2853409999946,
          "velocity": 0.7559055118110236,
          "duration": 0.10714275000003681
        },
        {
          "name": "C1",
          "midi": 24,
          "time": 373.2853409999946,
          "velocity": 0.7874015748031497,
          "duration": 0.026785687500023414
        },
        {
          "name": "G1",
          "midi": 31,
          "time": 373.2853409999946,
          "velocity": 0.7874015748031497,
          "duration": 0.026785687500023414
        },
        {
          "name": "C7",
          "midi": 96,
          "time": 373.49962649999463,
          "velocity": 0.7559055118110236,
          "duration": 0.10714274999997997
        },
        {
          "name": "C7",
          "midi": 96,
          "time": 373.7139119999946,
          "velocity": 0.7559055118110236,
          "duration": 0.10714275000003681
        },
        {
          "name": "D7",
          "midi": 98,
          "time": 373.7139119999946,
          "velocity": 0.7559055118110236,
          "duration": 0.10714275000003681
        },
        {
          "name": "C1",
          "midi": 24,
          "time": 373.7139119999946,
          "velocity": 0.7874015748031497,
          "duration": 0.026785687500023414
        },
        {
          "name": "F#1",
          "midi": 30,
          "time": 373.7139119999946,
          "velocity": 0.7874015748031497,
          "duration": 0.026785687500023414
        },
        {
          "name": "C7",
          "midi": 96,
          "time": 374.1424829999946,
          "velocity": 0.7559055118110236,
          "duration": 0.10714275000003681
        },
        {
          "name": "D7",
          "midi": 98,
          "time": 374.1424829999946,
          "velocity": 0.7559055118110236,
          "duration": 0.10714275000003681
        },
        {
          "name": "C1",
          "midi": 24,
          "time": 374.1424829999946,
          "velocity": 0.7874015748031497,
          "duration": 0.026785687500023414
        },
        {
          "name": "G1",
          "midi": 31,
          "time": 374.1424829999946,
          "velocity": 0.7874015748031497,
          "duration": 0.026785687500023414
        },
        {
          "name": "C#7",
          "midi": 97,
          "time": 374.57105399999466,
          "velocity": 0.7559055118110236,
          "duration": 0.10714275000003681
        },
        {
          "name": "D7",
          "midi": 98,
          "time": 374.57105399999466,
          "velocity": 0.7559055118110236,
          "duration": 0.10714275000003681
        },
        {
          "name": "G1",
          "midi": 31,
          "time": 374.57105399999466,
          "velocity": 0.7874015748031497,
          "duration": 0.026785687500023414
        },
        {
          "name": "D1",
          "midi": 26,
          "time": 374.57105399999466,
          "velocity": 0.7874015748031497,
          "duration": 0.026785687500023414
        },
        {
          "name": "C7",
          "midi": 96,
          "time": 374.9996249999947,
          "velocity": 0.7559055118110236,
          "duration": 0.10714275000003681
        },
        {
          "name": "D7",
          "midi": 98,
          "time": 374.9996249999947,
          "velocity": 0.7559055118110236,
          "duration": 0.10714275000003681
        },
        {
          "name": "C1",
          "midi": 24,
          "time": 374.9996249999947,
          "velocity": 0.7874015748031497,
          "duration": 0.026785687500023414
        },
        {
          "name": "G1",
          "midi": 31,
          "time": 374.9996249999947,
          "velocity": 0.7874015748031497,
          "duration": 0.026785687500023414
        },
        {
          "name": "C7",
          "midi": 96,
          "time": 375.2139104999947,
          "velocity": 0.7559055118110236,
          "duration": 0.10714274999997997
        },
        {
          "name": "C7",
          "midi": 96,
          "time": 375.42819599999467,
          "velocity": 0.7559055118110236,
          "duration": 0.10714275000003681
        },
        {
          "name": "D7",
          "midi": 98,
          "time": 375.42819599999467,
          "velocity": 0.7559055118110236,
          "duration": 0.10714275000003681
        },
        {
          "name": "C1",
          "midi": 24,
          "time": 375.42819599999467,
          "velocity": 0.7874015748031497,
          "duration": 0.026785687500023414
        },
        {
          "name": "F#1",
          "midi": 30,
          "time": 375.42819599999467,
          "velocity": 0.7874015748031497,
          "duration": 0.026785687500023414
        },
        {
          "name": "C7",
          "midi": 96,
          "time": 375.6424814999947,
          "velocity": 0.7559055118110236,
          "duration": 0.10714274999997997
        },
        {
          "name": "C7",
          "midi": 96,
          "time": 375.85676699999465,
          "velocity": 0.7559055118110236,
          "duration": 0.10714275000003681
        },
        {
          "name": "D7",
          "midi": 98,
          "time": 375.85676699999465,
          "velocity": 0.7559055118110236,
          "duration": 0.10714275000003681
        },
        {
          "name": "C1",
          "midi": 24,
          "time": 375.85676699999465,
          "velocity": 0.7874015748031497,
          "duration": 0.026785687500023414
        },
        {
          "name": "G1",
          "midi": 31,
          "time": 375.85676699999465,
          "velocity": 0.7874015748031497,
          "duration": 0.026785687500023414
        },
        {
          "name": "C#7",
          "midi": 97,
          "time": 376.2853379999947,
          "velocity": 0.7559055118110236,
          "duration": 0.10714275000003681
        },
        {
          "name": "D7",
          "midi": 98,
          "time": 376.2853379999947,
          "velocity": 0.7559055118110236,
          "duration": 0.10714275000003681
        },
        {
          "name": "G1",
          "midi": 31,
          "time": 376.2853379999947,
          "velocity": 0.7874015748031497,
          "duration": 0.026785687500023414
        },
        {
          "name": "D1",
          "midi": 26,
          "time": 376.2853379999947,
          "velocity": 0.7874015748031497,
          "duration": 0.026785687500023414
        },
        {
          "name": "D7",
          "midi": 98,
          "time": 376.7139089999947,
          "velocity": 0.7559055118110236,
          "duration": 0.10714275000003681
        },
        {
          "name": "G1",
          "midi": 31,
          "time": 376.7139089999947,
          "velocity": 0.7874015748031497,
          "duration": 0.026785687500023414
        },
        {
          "name": "C7",
          "midi": 96,
          "time": 377.14247999999475,
          "velocity": 0.7559055118110236,
          "duration": 0.10714275000003681
        },
        {
          "name": "D7",
          "midi": 98,
          "time": 377.14247999999475,
          "velocity": 0.7559055118110236,
          "duration": 0.10714275000003681
        },
        {
          "name": "C1",
          "midi": 24,
          "time": 377.14247999999475,
          "velocity": 0.7874015748031497,
          "duration": 0.026785687500023414
        },
        {
          "name": "F#1",
          "midi": 30,
          "time": 377.14247999999475,
          "velocity": 0.7874015748031497,
          "duration": 0.026785687500023414
        },
        {
          "name": "C7",
          "midi": 96,
          "time": 377.5710509999948,
          "velocity": 0.7559055118110236,
          "duration": 0.10714275000003681
        },
        {
          "name": "D7",
          "midi": 98,
          "time": 377.5710509999948,
          "velocity": 0.7559055118110236,
          "duration": 0.10714275000003681
        },
        {
          "name": "C1",
          "midi": 24,
          "time": 377.5710509999948,
          "velocity": 0.7874015748031497,
          "duration": 0.026785687500023414
        },
        {
          "name": "G1",
          "midi": 31,
          "time": 377.5710509999948,
          "velocity": 0.7874015748031497,
          "duration": 0.026785687500023414
        },
        {
          "name": "C#7",
          "midi": 97,
          "time": 377.9996219999948,
          "velocity": 0.7559055118110236,
          "duration": 0.10714275000003681
        },
        {
          "name": "D7",
          "midi": 98,
          "time": 377.9996219999948,
          "velocity": 0.7559055118110236,
          "duration": 0.10714275000003681
        },
        {
          "name": "G1",
          "midi": 31,
          "time": 377.9996219999948,
          "velocity": 0.7874015748031497,
          "duration": 0.026785687500023414
        },
        {
          "name": "D1",
          "midi": 26,
          "time": 377.9996219999948,
          "velocity": 0.7874015748031497,
          "duration": 0.026785687500023414
        },
        {
          "name": "C7",
          "midi": 96,
          "time": 378.42819299999485,
          "velocity": 0.7559055118110236,
          "duration": 0.10714275000003681
        },
        {
          "name": "D7",
          "midi": 98,
          "time": 378.42819299999485,
          "velocity": 0.7559055118110236,
          "duration": 0.10714275000003681
        },
        {
          "name": "C1",
          "midi": 24,
          "time": 378.42819299999485,
          "velocity": 0.7874015748031497,
          "duration": 0.026785687500023414
        },
        {
          "name": "G1",
          "midi": 31,
          "time": 378.42819299999485,
          "velocity": 0.7874015748031497,
          "duration": 0.026785687500023414
        },
        {
          "name": "C7",
          "midi": 96,
          "time": 378.64247849999487,
          "velocity": 0.7559055118110236,
          "duration": 0.10714274999997997
        },
        {
          "name": "C7",
          "midi": 96,
          "time": 378.8567639999948,
          "velocity": 0.7559055118110236,
          "duration": 0.10714275000003681
        },
        {
          "name": "D7",
          "midi": 98,
          "time": 378.8567639999948,
          "velocity": 0.7559055118110236,
          "duration": 0.10714275000003681
        },
        {
          "name": "C1",
          "midi": 24,
          "time": 378.8567639999948,
          "velocity": 0.7874015748031497,
          "duration": 0.026785687500023414
        },
        {
          "name": "F#1",
          "midi": 30,
          "time": 378.8567639999948,
          "velocity": 0.7874015748031497,
          "duration": 0.026785687500023414
        },
        {
          "name": "C7",
          "midi": 96,
          "time": 379.07104949999484,
          "velocity": 0.7559055118110236,
          "duration": 0.10714274999997997
        },
        {
          "name": "C7",
          "midi": 96,
          "time": 379.2853349999948,
          "velocity": 0.7559055118110236,
          "duration": 0.10714275000003681
        },
        {
          "name": "D7",
          "midi": 98,
          "time": 379.2853349999948,
          "velocity": 0.7559055118110236,
          "duration": 0.10714275000003681
        },
        {
          "name": "C1",
          "midi": 24,
          "time": 379.2853349999948,
          "velocity": 0.7874015748031497,
          "duration": 0.026785687500023414
        },
        {
          "name": "G1",
          "midi": 31,
          "time": 379.2853349999948,
          "velocity": 0.7874015748031497,
          "duration": 0.026785687500023414
        },
        {
          "name": "C#7",
          "midi": 97,
          "time": 379.71390599999484,
          "velocity": 0.7559055118110236,
          "duration": 0.10714275000003681
        },
        {
          "name": "D7",
          "midi": 98,
          "time": 379.71390599999484,
          "velocity": 0.7559055118110236,
          "duration": 0.10714275000003681
        },
        {
          "name": "G1",
          "midi": 31,
          "time": 379.71390599999484,
          "velocity": 0.7874015748031497,
          "duration": 0.026785687500023414
        },
        {
          "name": "D1",
          "midi": 26,
          "time": 379.71390599999484,
          "velocity": 0.7874015748031497,
          "duration": 0.026785687500023414
        },
        {
          "name": "C7",
          "midi": 96,
          "time": 380.14247699999487,
          "velocity": 0.7559055118110236,
          "duration": 0.10714275000003681
        },
        {
          "name": "D7",
          "midi": 98,
          "time": 380.14247699999487,
          "velocity": 0.7559055118110236,
          "duration": 0.10714275000003681
        },
        {
          "name": "C1",
          "midi": 24,
          "time": 380.14247699999487,
          "velocity": 0.7874015748031497,
          "duration": 0.026785687500023414
        },
        {
          "name": "G1",
          "midi": 31,
          "time": 380.14247699999487,
          "velocity": 0.7874015748031497,
          "duration": 0.026785687500023414
        },
        {
          "name": "C7",
          "midi": 96,
          "time": 380.3567624999949,
          "velocity": 0.7559055118110236,
          "duration": 0.10714274999997997
        },
        {
          "name": "C7",
          "midi": 96,
          "time": 380.57104799999485,
          "velocity": 0.7559055118110236,
          "duration": 0.10714275000003681
        },
        {
          "name": "D7",
          "midi": 98,
          "time": 380.57104799999485,
          "velocity": 0.7559055118110236,
          "duration": 0.10714275000003681
        },
        {
          "name": "C1",
          "midi": 24,
          "time": 380.57104799999485,
          "velocity": 0.7874015748031497,
          "duration": 0.026785687500023414
        },
        {
          "name": "F#1",
          "midi": 30,
          "time": 380.57104799999485,
          "velocity": 0.7874015748031497,
          "duration": 0.026785687500023414
        },
        {
          "name": "C7",
          "midi": 96,
          "time": 380.9996189999949,
          "velocity": 0.7559055118110236,
          "duration": 0.10714275000003681
        },
        {
          "name": "D7",
          "midi": 98,
          "time": 380.9996189999949,
          "velocity": 0.7559055118110236,
          "duration": 0.10714275000003681
        },
        {
          "name": "C1",
          "midi": 24,
          "time": 380.9996189999949,
          "velocity": 0.7874015748031497,
          "duration": 0.026785687500023414
        },
        {
          "name": "G1",
          "midi": 31,
          "time": 380.9996189999949,
          "velocity": 0.7874015748031497,
          "duration": 0.026785687500023414
        },
        {
          "name": "C#7",
          "midi": 97,
          "time": 381.4281899999949,
          "velocity": 0.7559055118110236,
          "duration": 0.10714275000003681
        },
        {
          "name": "D7",
          "midi": 98,
          "time": 381.4281899999949,
          "velocity": 0.7559055118110236,
          "duration": 0.10714275000003681
        },
        {
          "name": "G1",
          "midi": 31,
          "time": 381.4281899999949,
          "velocity": 0.7874015748031497,
          "duration": 0.026785687500023414
        },
        {
          "name": "D1",
          "midi": 26,
          "time": 381.4281899999949,
          "velocity": 0.7874015748031497,
          "duration": 0.026785687500023414
        },
        {
          "name": "C7",
          "midi": 96,
          "time": 381.85676099999495,
          "velocity": 0.7559055118110236,
          "duration": 0.10714275000003681
        },
        {
          "name": "D7",
          "midi": 98,
          "time": 381.85676099999495,
          "velocity": 0.7559055118110236,
          "duration": 0.10714275000003681
        },
        {
          "name": "C1",
          "midi": 24,
          "time": 381.85676099999495,
          "velocity": 0.7874015748031497,
          "duration": 0.026785687500023414
        },
        {
          "name": "G1",
          "midi": 31,
          "time": 381.85676099999495,
          "velocity": 0.7874015748031497,
          "duration": 0.026785687500023414
        },
        {
          "name": "C7",
          "midi": 96,
          "time": 382.07104649999496,
          "velocity": 0.7559055118110236,
          "duration": 0.10714274999997997
        },
        {
          "name": "C7",
          "midi": 96,
          "time": 382.2853319999949,
          "velocity": 0.7559055118110236,
          "duration": 0.10714275000003681
        },
        {
          "name": "D7",
          "midi": 98,
          "time": 382.2853319999949,
          "velocity": 0.7559055118110236,
          "duration": 0.10714275000003681
        },
        {
          "name": "C1",
          "midi": 24,
          "time": 382.2853319999949,
          "velocity": 0.7874015748031497,
          "duration": 0.026785687500023414
        },
        {
          "name": "F#1",
          "midi": 30,
          "time": 382.2853319999949,
          "velocity": 0.7874015748031497,
          "duration": 0.026785687500023414
        },
        {
          "name": "C7",
          "midi": 96,
          "time": 382.49961749999494,
          "velocity": 0.7559055118110236,
          "duration": 0.10714274999997997
        },
        {
          "name": "C7",
          "midi": 96,
          "time": 382.7139029999949,
          "velocity": 0.7559055118110236,
          "duration": 0.10714275000003681
        },
        {
          "name": "D7",
          "midi": 98,
          "time": 382.7139029999949,
          "velocity": 0.7559055118110236,
          "duration": 0.10714275000003681
        },
        {
          "name": "C1",
          "midi": 24,
          "time": 382.7139029999949,
          "velocity": 0.7874015748031497,
          "duration": 0.026785687500023414
        },
        {
          "name": "G1",
          "midi": 31,
          "time": 382.7139029999949,
          "velocity": 0.7874015748031497,
          "duration": 0.026785687500023414
        },
        {
          "name": "C7",
          "midi": 96,
          "time": 382.9281884999949,
          "velocity": 0.7559055118110236,
          "duration": 0.10714274999997997
        },
        {
          "name": "C7",
          "midi": 96,
          "time": 383.1424739999949,
          "velocity": 0.7559055118110236,
          "duration": 0.10714275000003681
        },
        {
          "name": "D7",
          "midi": 98,
          "time": 383.1424739999949,
          "velocity": 0.7559055118110236,
          "duration": 0.10714275000003681
        },
        {
          "name": "C1",
          "midi": 24,
          "time": 383.1424739999949,
          "velocity": 0.7874015748031497,
          "duration": 0.026785687500023414
        },
        {
          "name": "F#1",
          "midi": 30,
          "time": 383.1424739999949,
          "velocity": 0.7874015748031497,
          "duration": 0.026785687500023414
        },
        {
          "name": "C7",
          "midi": 96,
          "time": 383.3567594999949,
          "velocity": 0.7559055118110236,
          "duration": 0.10714274999997997
        },
        {
          "name": "C7",
          "midi": 96,
          "time": 383.57104499999485,
          "velocity": 0.7559055118110236,
          "duration": 0.10714275000003681
        },
        {
          "name": "D7",
          "midi": 98,
          "time": 383.57104499999485,
          "velocity": 0.7559055118110236,
          "duration": 0.10714275000003681
        },
        {
          "name": "C1",
          "midi": 24,
          "time": 383.57104499999485,
          "velocity": 0.7874015748031497,
          "duration": 0.026785687500023414
        },
        {
          "name": "G1",
          "midi": 31,
          "time": 383.57104499999485,
          "velocity": 0.7874015748031497,
          "duration": 0.026785687500023414
        },
        {
          "name": "C7",
          "midi": 96,
          "time": 383.6781877499949,
          "velocity": 0.7559055118110236,
          "duration": 0.10714274999997997
        },
        {
          "name": "C7",
          "midi": 96,
          "time": 383.78533049999487,
          "velocity": 0.7559055118110236,
          "duration": 0.10714274999997997
        },
        {
          "name": "E7",
          "midi": 100,
          "time": 383.99961599999483,
          "velocity": 0.7559055118110236,
          "duration": 0.10714275000003681
        },
        {
          "name": "C1",
          "midi": 24,
          "time": 383.99961599999483,
          "velocity": 0.7874015748031497,
          "duration": 0.026785687500023414
        },
        {
          "name": "A#1",
          "midi": 34,
          "time": 383.99961599999483,
          "velocity": 0.7874015748031497,
          "duration": 0.026785687500023414
        },
        {
          "name": "C7",
          "midi": 96,
          "time": 384.42818699999486,
          "velocity": 0.7559055118110236,
          "duration": 0.10714274999997997
        },
        {
          "name": "C#7",
          "midi": 97,
          "time": 384.85675799999484,
          "velocity": 0.7559055118110236,
          "duration": 0.10714275000003681
        },
        {
          "name": "D#7",
          "midi": 99,
          "time": 384.85675799999484,
          "velocity": 0.7559055118110236,
          "duration": 0.10714275000003681
        },
        {
          "name": "C1",
          "midi": 24,
          "time": 384.85675799999484,
          "velocity": 0.7874015748031497,
          "duration": 0.026785687500023414
        },
        {
          "name": "F#2",
          "midi": 42,
          "time": 384.85675799999484,
          "velocity": 0.7874015748031497,
          "duration": 0.026785687500023414
        },
        {
          "name": "D1",
          "midi": 26,
          "time": 384.85675799999484,
          "velocity": 0.7874015748031497,
          "duration": 0.026785687500023414
        },
        {
          "name": "C7",
          "midi": 96,
          "time": 385.2853289999949,
          "velocity": 0.7559055118110236,
          "duration": 0.10714274999997997
        },
        {
          "name": "C7",
          "midi": 96,
          "time": 385.49961449999483,
          "velocity": 0.7559055118110236,
          "duration": 0.10714274999997997
        },
        {
          "name": "D#7",
          "midi": 99,
          "time": 385.7138999999948,
          "velocity": 0.7559055118110236,
          "duration": 0.10714275000003681
        },
        {
          "name": "C1",
          "midi": 24,
          "time": 385.7138999999948,
          "velocity": 0.7874015748031497,
          "duration": 0.026785687500023414
        },
        {
          "name": "F#2",
          "midi": 42,
          "time": 385.7138999999948,
          "velocity": 0.7874015748031497,
          "duration": 0.026785687500023414
        },
        {
          "name": "C7",
          "midi": 96,
          "time": 385.9281854999948,
          "velocity": 0.7559055118110236,
          "duration": 0.10714274999997997
        },
        {
          "name": "C7",
          "midi": 96,
          "time": 386.14247099999477,
          "velocity": 0.7559055118110236,
          "duration": 0.10714274999997997
        },
        {
          "name": "C#7",
          "midi": 97,
          "time": 386.57104199999475,
          "velocity": 0.7559055118110236,
          "duration": 0.10714275000003681
        },
        {
          "name": "D#7",
          "midi": 99,
          "time": 386.57104199999475,
          "velocity": 0.7559055118110236,
          "duration": 0.10714275000003681
        },
        {
          "name": "C1",
          "midi": 24,
          "time": 386.57104199999475,
          "velocity": 0.7874015748031497,
          "duration": 0.026785687500023414
        },
        {
          "name": "F#2",
          "midi": 42,
          "time": 386.57104199999475,
          "velocity": 0.7874015748031497,
          "duration": 0.026785687500023414
        },
        {
          "name": "D1",
          "midi": 26,
          "time": 386.57104199999475,
          "velocity": 0.7874015748031497,
          "duration": 0.026785687500023414
        },
        {
          "name": "C7",
          "midi": 96,
          "time": 387.2138984999948,
          "velocity": 0.7559055118110236,
          "duration": 0.10714274999997997
        },
        {
          "name": "C7",
          "midi": 96,
          "time": 387.42818399999476,
          "velocity": 0.7559055118110236,
          "duration": 0.10714275000003681
        },
        {
          "name": "D#7",
          "midi": 99,
          "time": 387.42818399999476,
          "velocity": 0.7559055118110236,
          "duration": 0.10714275000003681
        },
        {
          "name": "C1",
          "midi": 24,
          "time": 387.42818399999476,
          "velocity": 0.7874015748031497,
          "duration": 0.026785687500023414
        },
        {
          "name": "F#2",
          "midi": 42,
          "time": 387.42818399999476,
          "velocity": 0.7874015748031497,
          "duration": 0.026785687500023414
        },
        {
          "name": "C7",
          "midi": 96,
          "time": 387.8567549999948,
          "velocity": 0.7559055118110236,
          "duration": 0.10714274999997997
        },
        {
          "name": "C#7",
          "midi": 97,
          "time": 388.28532599999477,
          "velocity": 0.7559055118110236,
          "duration": 0.10714275000003681
        },
        {
          "name": "D#7",
          "midi": 99,
          "time": 388.28532599999477,
          "velocity": 0.7559055118110236,
          "duration": 0.10714275000003681
        },
        {
          "name": "C1",
          "midi": 24,
          "time": 388.28532599999477,
          "velocity": 0.7874015748031497,
          "duration": 0.026785687500023414
        },
        {
          "name": "F#2",
          "midi": 42,
          "time": 388.28532599999477,
          "velocity": 0.7874015748031497,
          "duration": 0.026785687500023414
        },
        {
          "name": "D1",
          "midi": 26,
          "time": 388.28532599999477,
          "velocity": 0.7874015748031497,
          "duration": 0.026785687500023414
        },
        {
          "name": "C7",
          "midi": 96,
          "time": 388.7138969999948,
          "velocity": 0.7559055118110236,
          "duration": 0.10714274999997997
        },
        {
          "name": "C7",
          "midi": 96,
          "time": 388.92818249999476,
          "velocity": 0.7559055118110236,
          "duration": 0.10714274999997997
        },
        {
          "name": "D#7",
          "midi": 99,
          "time": 389.1424679999947,
          "velocity": 0.7559055118110236,
          "duration": 0.10714275000003681
        },
        {
          "name": "C1",
          "midi": 24,
          "time": 389.1424679999947,
          "velocity": 0.7874015748031497,
          "duration": 0.026785687500023414
        },
        {
          "name": "F#2",
          "midi": 42,
          "time": 389.1424679999947,
          "velocity": 0.7874015748031497,
          "duration": 0.026785687500023414
        },
        {
          "name": "C7",
          "midi": 96,
          "time": 389.35675349999474,
          "velocity": 0.7559055118110236,
          "duration": 0.10714274999997997
        },
        {
          "name": "C7",
          "midi": 96,
          "time": 389.5710389999947,
          "velocity": 0.7559055118110236,
          "duration": 0.10714274999997997
        },
        {
          "name": "C7",
          "midi": 96,
          "time": 389.6781817499947,
          "velocity": 0.7559055118110236,
          "duration": 0.10714274999997997
        },
        {
          "name": "C7",
          "midi": 96,
          "time": 389.78532449999466,
          "velocity": 0.7559055118110236,
          "duration": 0.10714274999997997
        },
        {
          "name": "C7",
          "midi": 96,
          "time": 389.89246724999464,
          "velocity": 0.7559055118110236,
          "duration": 0.10714274999997997
        },
        {
          "name": "C7",
          "midi": 96,
          "time": 389.9996099999946,
          "velocity": 0.7559055118110236,
          "duration": 0.10714275000003681
        },
        {
          "name": "C#7",
          "midi": 97,
          "time": 389.9996099999946,
          "velocity": 0.7559055118110236,
          "duration": 0.10714275000003681
        },
        {
          "name": "D#7",
          "midi": 99,
          "time": 389.9996099999946,
          "velocity": 0.7559055118110236,
          "duration": 0.10714275000003681
        },
        {
          "name": "C1",
          "midi": 24,
          "time": 389.9996099999946,
          "velocity": 0.7874015748031497,
          "duration": 0.026785687500023414
        },
        {
          "name": "F#2",
          "midi": 42,
          "time": 389.9996099999946,
          "velocity": 0.7874015748031497,
          "duration": 0.026785687500023414
        },
        {
          "name": "D1",
          "midi": 26,
          "time": 389.9996099999946,
          "velocity": 0.7874015748031497,
          "duration": 0.026785687500023414
        },
        {
          "name": "C7",
          "midi": 96,
          "time": 390.21389549999463,
          "velocity": 0.7559055118110236,
          "duration": 0.10714274999997997
        },
        {
          "name": "C7",
          "midi": 96,
          "time": 390.4281809999946,
          "velocity": 0.7559055118110236,
          "duration": 0.10714274999997997
        },
        {
          "name": "C7",
          "midi": 96,
          "time": 390.64246649999455,
          "velocity": 0.7559055118110236,
          "duration": 0.10714274999997997
        },
        {
          "name": "E7",
          "midi": 100,
          "time": 390.8567519999945,
          "velocity": 0.7559055118110236,
          "duration": 0.10714275000003681
        },
        {
          "name": "C1",
          "midi": 24,
          "time": 390.8567519999945,
          "velocity": 0.7874015748031497,
          "duration": 0.026785687500023414
        },
        {
          "name": "C2",
          "midi": 36,
          "time": 390.8567519999945,
          "velocity": 0.7874015748031497,
          "duration": 0.026785687500023414
        },
        {
          "name": "C7",
          "midi": 96,
          "time": 391.28532299999455,
          "velocity": 0.7559055118110236,
          "duration": 0.10714274999997997
        },
        {
          "name": "C#7",
          "midi": 97,
          "time": 391.7138939999945,
          "velocity": 0.7559055118110236,
          "duration": 0.10714275000003681
        },
        {
          "name": "D#7",
          "midi": 99,
          "time": 391.7138939999945,
          "velocity": 0.7559055118110236,
          "duration": 0.10714275000003681
        },
        {
          "name": "C1",
          "midi": 24,
          "time": 391.7138939999945,
          "velocity": 0.7874015748031497,
          "duration": 0.026785687500023414
        },
        {
          "name": "F#2",
          "midi": 42,
          "time": 391.7138939999945,
          "velocity": 0.7874015748031497,
          "duration": 0.026785687500023414
        },
        {
          "name": "D1",
          "midi": 26,
          "time": 391.7138939999945,
          "velocity": 0.7874015748031497,
          "duration": 0.026785687500023414
        },
        {
          "name": "C7",
          "midi": 96,
          "time": 392.14246499999456,
          "velocity": 0.7559055118110236,
          "duration": 0.10714274999997997
        },
        {
          "name": "C7",
          "midi": 96,
          "time": 392.3567504999945,
          "velocity": 0.7559055118110236,
          "duration": 0.10714274999997997
        },
        {
          "name": "D#7",
          "midi": 99,
          "time": 392.5710359999945,
          "velocity": 0.7559055118110236,
          "duration": 0.10714275000003681
        },
        {
          "name": "C1",
          "midi": 24,
          "time": 392.5710359999945,
          "velocity": 0.7874015748031497,
          "duration": 0.026785687500023414
        },
        {
          "name": "F#2",
          "midi": 42,
          "time": 392.5710359999945,
          "velocity": 0.7874015748031497,
          "duration": 0.026785687500023414
        },
        {
          "name": "C7",
          "midi": 96,
          "time": 392.7853214999945,
          "velocity": 0.7559055118110236,
          "duration": 0.10714274999997997
        },
        {
          "name": "C7",
          "midi": 96,
          "time": 392.99960699999446,
          "velocity": 0.7559055118110236,
          "duration": 0.10714274999997997
        },
        {
          "name": "C#7",
          "midi": 97,
          "time": 393.42817799999443,
          "velocity": 0.7559055118110236,
          "duration": 0.10714275000003681
        },
        {
          "name": "D#7",
          "midi": 99,
          "time": 393.42817799999443,
          "velocity": 0.7559055118110236,
          "duration": 0.10714275000003681
        },
        {
          "name": "C1",
          "midi": 24,
          "time": 393.42817799999443,
          "velocity": 0.7874015748031497,
          "duration": 0.026785687500023414
        },
        {
          "name": "F#2",
          "midi": 42,
          "time": 393.42817799999443,
          "velocity": 0.7874015748031497,
          "duration": 0.026785687500023414
        },
        {
          "name": "D1",
          "midi": 26,
          "time": 393.42817799999443,
          "velocity": 0.7874015748031497,
          "duration": 0.026785687500023414
        },
        {
          "name": "C7",
          "midi": 96,
          "time": 393.85674899999447,
          "velocity": 0.7559055118110236,
          "duration": 0.10714274999997997
        },
        {
          "name": "C7",
          "midi": 96,
          "time": 394.0710344999944,
          "velocity": 0.7559055118110236,
          "duration": 0.10714274999997997
        },
        {
          "name": "C#7",
          "midi": 97,
          "time": 394.2853199999944,
          "velocity": 0.7559055118110236,
          "duration": 0.10714275000003681
        },
        {
          "name": "D#7",
          "midi": 99,
          "time": 394.2853199999944,
          "velocity": 0.7559055118110236,
          "duration": 0.10714275000003681
        },
        {
          "name": "C1",
          "midi": 24,
          "time": 394.2853199999944,
          "velocity": 0.7874015748031497,
          "duration": 0.026785687500023414
        },
        {
          "name": "F#2",
          "midi": 42,
          "time": 394.2853199999944,
          "velocity": 0.7874015748031497,
          "duration": 0.026785687500023414
        },
        {
          "name": "D1",
          "midi": 26,
          "time": 394.2853199999944,
          "velocity": 0.7874015748031497,
          "duration": 0.026785687500023414
        },
        {
          "name": "C7",
          "midi": 96,
          "time": 394.4996054999944,
          "velocity": 0.7559055118110236,
          "duration": 0.10714274999997997
        },
        {
          "name": "C7",
          "midi": 96,
          "time": 394.71389099999436,
          "velocity": 0.7559055118110236,
          "duration": 0.10714274999997997
        },
        {
          "name": "C#7",
          "midi": 97,
          "time": 394.9281764999943,
          "velocity": 0.7559055118110236,
          "duration": 0.10714275000003681
        },
        {
          "name": "D#7",
          "midi": 99,
          "time": 394.9281764999943,
          "velocity": 0.7559055118110236,
          "duration": 0.10714275000003681
        },
        {
          "name": "C1",
          "midi": 24,
          "time": 394.9281764999943,
          "velocity": 0.7874015748031497,
          "duration": 0.026785687500023414
        },
        {
          "name": "F#2",
          "midi": 42,
          "time": 394.9281764999943,
          "velocity": 0.7874015748031497,
          "duration": 0.026785687500023414
        },
        {
          "name": "D1",
          "midi": 26,
          "time": 394.9281764999943,
          "velocity": 0.7874015748031497,
          "duration": 0.026785687500023414
        },
        {
          "name": "C7",
          "midi": 96,
          "time": 395.14246199999434,
          "velocity": 0.7559055118110236,
          "duration": 0.10714274999997997
        },
        {
          "name": "C7",
          "midi": 96,
          "time": 395.3567474999943,
          "velocity": 0.7559055118110236,
          "duration": 0.10714274999997997
        },
        {
          "name": "C#7",
          "midi": 97,
          "time": 395.57103299999426,
          "velocity": 0.7559055118110236,
          "duration": 0.10714275000003681
        },
        {
          "name": "D#7",
          "midi": 99,
          "time": 395.57103299999426,
          "velocity": 0.7559055118110236,
          "duration": 0.10714275000003681
        },
        {
          "name": "C1",
          "midi": 24,
          "time": 395.57103299999426,
          "velocity": 0.7874015748031497,
          "duration": 0.026785687500023414
        },
        {
          "name": "F#2",
          "midi": 42,
          "time": 395.57103299999426,
          "velocity": 0.7874015748031497,
          "duration": 0.026785687500023414
        },
        {
          "name": "D1",
          "midi": 26,
          "time": 395.57103299999426,
          "velocity": 0.7874015748031497,
          "duration": 0.026785687500023414
        },
        {
          "name": "C7",
          "midi": 96,
          "time": 395.7853184999943,
          "velocity": 0.7559055118110236,
          "duration": 0.10714274999997997
        },
        {
          "name": "C7",
          "midi": 96,
          "time": 395.99960399999424,
          "velocity": 0.7559055118110236,
          "duration": 0.10714274999997997
        },
        {
          "name": "C#7",
          "midi": 97,
          "time": 396.2138894999942,
          "velocity": 0.7559055118110236,
          "duration": 0.10714275000003681
        },
        {
          "name": "D#7",
          "midi": 99,
          "time": 396.2138894999942,
          "velocity": 0.7559055118110236,
          "duration": 0.10714275000003681
        },
        {
          "name": "C1",
          "midi": 24,
          "time": 396.2138894999942,
          "velocity": 0.7874015748031497,
          "duration": 0.026785687500023414
        },
        {
          "name": "F#2",
          "midi": 42,
          "time": 396.2138894999942,
          "velocity": 0.7874015748031497,
          "duration": 0.026785687500023414
        },
        {
          "name": "D1",
          "midi": 26,
          "time": 396.2138894999942,
          "velocity": 0.7874015748031497,
          "duration": 0.026785687500023414
        },
        {
          "name": "C7",
          "midi": 96,
          "time": 396.4281749999942,
          "velocity": 0.7559055118110236,
          "duration": 0.10714274999997997
        },
        {
          "name": "C7",
          "midi": 96,
          "time": 396.6424604999942,
          "velocity": 0.7559055118110236,
          "duration": 0.10714274999997997
        },
        {
          "name": "C#7",
          "midi": 97,
          "time": 396.85674599999413,
          "velocity": 0.7559055118110236,
          "duration": 0.10714275000003681
        },
        {
          "name": "D#7",
          "midi": 99,
          "time": 396.85674599999413,
          "velocity": 0.7559055118110236,
          "duration": 0.10714275000003681
        },
        {
          "name": "C1",
          "midi": 24,
          "time": 396.85674599999413,
          "velocity": 0.7874015748031497,
          "duration": 0.026785687500023414
        },
        {
          "name": "F#2",
          "midi": 42,
          "time": 396.85674599999413,
          "velocity": 0.7874015748031497,
          "duration": 0.026785687500023414
        },
        {
          "name": "D1",
          "midi": 26,
          "time": 396.85674599999413,
          "velocity": 0.7874015748031497,
          "duration": 0.026785687500023414
        },
        {
          "name": "C7",
          "midi": 96,
          "time": 397.07103149999415,
          "velocity": 0.7559055118110236,
          "duration": 0.10714274999997997
        },
        {
          "name": "C7",
          "midi": 96,
          "time": 397.2853169999941,
          "velocity": 0.7559055118110236,
          "duration": 0.10714274999997997
        },
        {
          "name": "C7",
          "midi": 96,
          "time": 397.49960249999407,
          "velocity": 0.7559055118110236,
          "duration": 0.10714274999997997
        },
        {
          "name": "D#7",
          "midi": 99,
          "time": 397.71388799999403,
          "velocity": 0.7559055118110236,
          "duration": 0.10714275000003681
        },
        {
          "name": "C1",
          "midi": 24,
          "time": 397.71388799999403,
          "velocity": 0.7874015748031497,
          "duration": 0.026785687500023414
        },
        {
          "name": "F#2",
          "midi": 42,
          "time": 397.71388799999403,
          "velocity": 0.7874015748031497,
          "duration": 0.026785687500023414
        },
        {
          "name": "C#7",
          "midi": 97,
          "time": 398.57102999999404,
          "velocity": 0.7559055118110236,
          "duration": 0.10714275000003681
        },
        {
          "name": "D1",
          "midi": 26,
          "time": 398.57102999999404,
          "velocity": 0.7874015748031497,
          "duration": 0.026785687500023414
        },
        {
          "name": "C#7",
          "midi": 97,
          "time": 398.78531549999406,
          "velocity": 0.7559055118110236,
          "duration": 0.10714275000003681
        },
        {
          "name": "D#1",
          "midi": 27,
          "time": 398.78531549999406,
          "velocity": 0.7874015748031497,
          "duration": 0.026785687500023414
        },
        {
          "name": "C7",
          "midi": 96,
          "time": 399.4281719999941,
          "velocity": 0.7559055118110236,
          "duration": 0.10714275000003681
        },
        {
          "name": "D#7",
          "midi": 99,
          "time": 399.4281719999941,
          "velocity": 0.7559055118110236,
          "duration": 0.10714275000003681
        },
        {
          "name": "C1",
          "midi": 24,
          "time": 399.4281719999941,
          "velocity": 0.7874015748031497,
          "duration": 0.026785687500023414
        },
        {
          "name": "B1",
          "midi": 35,
          "time": 399.4281719999941,
          "velocity": 0.7874015748031497,
          "duration": 0.026785687500023414
        },
        {
          "name": "C7",
          "midi": 96,
          "time": 399.85674299999414,
          "velocity": 0.7559055118110236,
          "duration": 0.10714274999997997
        },
        {
          "name": "C#7",
          "midi": 97,
          "time": 400.2853139999941,
          "velocity": 0.7559055118110236,
          "duration": 0.10714275000003681
        },
        {
          "name": "C1",
          "midi": 24,
          "time": 400.2853139999941,
          "velocity": 0.7874015748031497,
          "duration": 0.026785687500023414
        },
        {
          "name": "D#1",
          "midi": 27,
          "time": 400.2853139999941,
          "velocity": 0.7874015748031497,
          "duration": 0.026785687500023414
        },
        {
          "name": "C7",
          "midi": 96,
          "time": 400.71388499999415,
          "velocity": 0.7559055118110236,
          "duration": 0.10714274999997997
        },
        {
          "name": "C7",
          "midi": 96,
          "time": 400.82102774999413,
          "velocity": 0.7559055118110236,
          "duration": 0.10714274999997997
        },
        {
          "name": "C7",
          "midi": 96,
          "time": 400.9281704999941,
          "velocity": 0.7559055118110236,
          "duration": 0.10714274999997997
        },
        {
          "name": "C7",
          "midi": 96,
          "time": 401.0353132499941,
          "velocity": 0.7559055118110236,
          "duration": 0.10714274999997997
        },
        {
          "name": "C7",
          "midi": 96,
          "time": 401.14245599999407,
          "velocity": 0.7559055118110236,
          "duration": 0.10714275000003681
        },
        {
          "name": "D#7",
          "midi": 99,
          "time": 401.14245599999407,
          "velocity": 0.7559055118110236,
          "duration": 0.10714275000003681
        },
        {
          "name": "C1",
          "midi": 24,
          "time": 401.14245599999407,
          "velocity": 0.7874015748031497,
          "duration": 0.026785687500023414
        },
        {
          "name": "B1",
          "midi": 35,
          "time": 401.14245599999407,
          "velocity": 0.7874015748031497,
          "duration": 0.026785687500023414
        },
        {
          "name": "C#7",
          "midi": 97,
          "time": 401.9995979999941,
          "velocity": 0.7559055118110236,
          "duration": 0.10714275000003681
        },
        {
          "name": "D#1",
          "midi": 27,
          "time": 401.9995979999941,
          "velocity": 0.7874015748031497,
          "duration": 0.026785687500023414
        },
        {
          "name": "C#7",
          "midi": 97,
          "time": 402.2138834999941,
          "velocity": 0.7559055118110236,
          "duration": 0.10714275000003681
        },
        {
          "name": "D1",
          "midi": 26,
          "time": 402.2138834999941,
          "velocity": 0.7874015748031497,
          "duration": 0.026785687500023414
        },
        {
          "name": "D#7",
          "midi": 99,
          "time": 402.64245449999413,
          "velocity": 0.7559055118110236,
          "duration": 0.10714275000003681
        },
        {
          "name": "F#2",
          "midi": 42,
          "time": 402.64245449999413,
          "velocity": 0.7874015748031497,
          "duration": 0.026785687500023414
        },
        {
          "name": "D#7",
          "midi": 99,
          "time": 402.74959724999417,
          "velocity": 0.7559055118110236,
          "duration": 0.10714275000003681
        },
        {
          "name": "B1",
          "midi": 35,
          "time": 402.74959724999417,
          "velocity": 0.7874015748031497,
          "duration": 0.026785687500023414
        },
        {
          "name": "C7",
          "midi": 96,
          "time": 402.8567399999942,
          "velocity": 0.7559055118110236,
          "duration": 0.10714275000003681
        },
        {
          "name": "D#7",
          "midi": 99,
          "time": 402.8567399999942,
          "velocity": 0.7559055118110236,
          "duration": 0.10714275000003681
        },
        {
          "name": "C1",
          "midi": 24,
          "time": 402.8567399999942,
          "velocity": 0.7874015748031497,
          "duration": 0.026785687500023414
        },
        {
          "name": "F#2",
          "midi": 42,
          "time": 402.8567399999942,
          "velocity": 0.7874015748031497,
          "duration": 0.026785687500023414
        },
        {
          "name": "D#7",
          "midi": 99,
          "time": 403.0710254999942,
          "velocity": 0.7559055118110236,
          "duration": 0.10714275000003681
        },
        {
          "name": "B1",
          "midi": 35,
          "time": 403.0710254999942,
          "velocity": 0.7874015748031497,
          "duration": 0.026785687500023414
        },
        {
          "name": "D#7",
          "midi": 99,
          "time": 403.3924537499943,
          "velocity": 0.7559055118110236,
          "duration": 0.10714275000003681
        },
        {
          "name": "F#2",
          "midi": 42,
          "time": 403.3924537499943,
          "velocity": 0.7874015748031497,
          "duration": 0.026785687500023414
        },
        {
          "name": "D#7",
          "midi": 99,
          "time": 403.7138819999943,
          "velocity": 0.7559055118110236,
          "duration": 0.10714275000003681
        },
        {
          "name": "B1",
          "midi": 35,
          "time": 403.7138819999943,
          "velocity": 0.7874015748031497,
          "duration": 0.026785687500023414
        },
        {
          "name": "C7",
          "midi": 96,
          "time": 404.57102399999434,
          "velocity": 0.7559055118110236,
          "duration": 0.10714275000003681
        },
        {
          "name": "D#7",
          "midi": 99,
          "time": 404.57102399999434,
          "velocity": 0.7559055118110236,
          "duration": 0.10714275000003681
        },
        {
          "name": "C1",
          "midi": 24,
          "time": 404.57102399999434,
          "velocity": 0.7874015748031497,
          "duration": 0.026785687500023414
        },
        {
          "name": "F#2",
          "midi": 42,
          "time": 404.57102399999434,
          "velocity": 0.7874015748031497,
          "duration": 0.026785687500023414
        },
        {
          "name": "C7",
          "midi": 96,
          "time": 404.78530949999436,
          "velocity": 0.7559055118110236,
          "duration": 0.10714274999997997
        },
        {
          "name": "C7",
          "midi": 96,
          "time": 404.9995949999943,
          "velocity": 0.7559055118110236,
          "duration": 0.10714274999997997
        },
        {
          "name": "C7",
          "midi": 96,
          "time": 405.2138804999943,
          "velocity": 0.7559055118110236,
          "duration": 0.10714274999997997
        },
        {
          "name": "C7",
          "midi": 96,
          "time": 405.42816599999423,
          "velocity": 0.7559055118110236,
          "duration": 0.10714274999997997
        },
        {
          "name": "C7",
          "midi": 96,
          "time": 405.6424514999942,
          "velocity": 0.7559055118110236,
          "duration": 0.10714274999997997
        },
        {
          "name": "C7",
          "midi": 96,
          "time": 405.85673699999415,
          "velocity": 0.7559055118110236,
          "duration": 0.10714274999997997
        },
        {
          "name": "C7",
          "midi": 96,
          "time": 406.0710224999941,
          "velocity": 0.7559055118110236,
          "duration": 0.10714274999997997
        },
        {
          "name": "C7",
          "midi": 96,
          "time": 406.2853079999941,
          "velocity": 0.7559055118110236,
          "duration": 0.10714274999997997
        },
        {
          "name": "C7",
          "midi": 96,
          "time": 406.49959349999403,
          "velocity": 0.7559055118110236,
          "duration": 0.10714274999997997
        },
        {
          "name": "C7",
          "midi": 96,
          "time": 406.713878999994,
          "velocity": 0.7559055118110236,
          "duration": 0.10714274999997997
        },
        {
          "name": "C7",
          "midi": 96,
          "time": 406.92816449999395,
          "velocity": 0.7559055118110236,
          "duration": 0.10714274999997997
        },
        {
          "name": "C7",
          "midi": 96,
          "time": 407.1424499999939,
          "velocity": 0.7559055118110236,
          "duration": 0.10714274999997997
        },
        {
          "name": "C7",
          "midi": 96,
          "time": 407.3567354999939,
          "velocity": 0.7559055118110236,
          "duration": 0.10714274999997997
        },
        {
          "name": "C7",
          "midi": 96,
          "time": 407.57102099999383,
          "velocity": 0.7559055118110236,
          "duration": 0.10714274999997997
        },
        {
          "name": "C7",
          "midi": 96,
          "time": 407.7853064999938,
          "velocity": 0.7559055118110236,
          "duration": 0.10714274999997997
        },
        {
          "name": "C7",
          "midi": 96,
          "time": 407.99959199999375,
          "velocity": 0.7559055118110236,
          "duration": 0.10714274999997997
        },
        {
          "name": "C7",
          "midi": 96,
          "time": 408.2138774999937,
          "velocity": 0.7559055118110236,
          "duration": 0.10714274999997997
        },
        {
          "name": "C7",
          "midi": 96,
          "time": 408.4281629999937,
          "velocity": 0.7559055118110236,
          "duration": 0.10714274999997997
        },
        {
          "name": "C7",
          "midi": 96,
          "time": 408.64244849999363,
          "velocity": 0.7559055118110236,
          "duration": 0.10714274999997997
        },
        {
          "name": "C7",
          "midi": 96,
          "time": 408.8567339999936,
          "velocity": 0.7559055118110236,
          "duration": 0.10714274999997997
        },
        {
          "name": "C7",
          "midi": 96,
          "time": 409.07101949999355,
          "velocity": 0.7559055118110236,
          "duration": 0.10714274999997997
        },
        {
          "name": "C7",
          "midi": 96,
          "time": 409.2853049999935,
          "velocity": 0.7559055118110236,
          "duration": 0.10714274999997997
        },
        {
          "name": "C7",
          "midi": 96,
          "time": 409.4995904999935,
          "velocity": 0.7559055118110236,
          "duration": 0.10714274999997997
        },
        {
          "name": "C7",
          "midi": 96,
          "time": 409.71387599999343,
          "velocity": 0.7559055118110236,
          "duration": 0.10714275000003681
        },
        {
          "name": "C#7",
          "midi": 97,
          "time": 409.71387599999343,
          "velocity": 0.7559055118110236,
          "duration": 0.10714275000003681
        },
        {
          "name": "C1",
          "midi": 24,
          "time": 409.71387599999343,
          "velocity": 0.7874015748031497,
          "duration": 0.026785687500023414
        },
        {
          "name": "D1",
          "midi": 26,
          "time": 409.71387599999343,
          "velocity": 0.7874015748031497,
          "duration": 0.026785687500023414
        },
        {
          "name": "C#7",
          "midi": 97,
          "time": 409.82101874999347,
          "velocity": 0.7559055118110236,
          "duration": 0.10714275000003681
        },
        {
          "name": "D#1",
          "midi": 27,
          "time": 409.82101874999347,
          "velocity": 0.7874015748031497,
          "duration": 0.026785687500023414
        },
        {
          "name": "C#7",
          "midi": 97,
          "time": 409.9281614999935,
          "velocity": 0.7559055118110236,
          "duration": 0.10714275000003681
        },
        {
          "name": "D1",
          "midi": 26,
          "time": 409.9281614999935,
          "velocity": 0.7874015748031497,
          "duration": 0.026785687500023414
        },
        {
          "name": "C#7",
          "midi": 97,
          "time": 410.03530424999354,
          "velocity": 0.7559055118110236,
          "duration": 0.10714275000003681
        },
        {
          "name": "D#1",
          "midi": 27,
          "time": 410.03530424999354,
          "velocity": 0.7874015748031497,
          "duration": 0.026785687500023414
        },
        {
          "name": "C7",
          "midi": 96,
          "time": 410.1424469999936,
          "velocity": 0.7559055118110236,
          "duration": 0.10714275000003681
        },
        {
          "name": "C#7",
          "midi": 97,
          "time": 410.1424469999936,
          "velocity": 0.7559055118110236,
          "duration": 0.10714275000003681
        },
        {
          "name": "C1",
          "midi": 24,
          "time": 410.1424469999936,
          "velocity": 0.7874015748031497,
          "duration": 0.026785687500023414
        },
        {
          "name": "D1",
          "midi": 26,
          "time": 410.1424469999936,
          "velocity": 0.7874015748031497,
          "duration": 0.026785687500023414
        },
        {
          "name": "C#7",
          "midi": 97,
          "time": 410.2495897499936,
          "velocity": 0.7559055118110236,
          "duration": 0.10714275000003681
        },
        {
          "name": "D#1",
          "midi": 27,
          "time": 410.2495897499936,
          "velocity": 0.7874015748031497,
          "duration": 0.026785687500023414
        },
        {
          "name": "C#7",
          "midi": 97,
          "time": 410.35673249999365,
          "velocity": 0.7559055118110236,
          "duration": 0.10714275000003681
        },
        {
          "name": "D1",
          "midi": 26,
          "time": 410.35673249999365,
          "velocity": 0.7874015748031497,
          "duration": 0.026785687500023414
        },
        {
          "name": "C#7",
          "midi": 97,
          "time": 410.4638752499937,
          "velocity": 0.7559055118110236,
          "duration": 0.10714275000003681
        },
        {
          "name": "D#1",
          "midi": 27,
          "time": 410.4638752499937,
          "velocity": 0.7874015748031497,
          "duration": 0.026785687500023414
        },
        {
          "name": "C7",
          "midi": 96,
          "time": 410.5710179999937,
          "velocity": 0.7559055118110236,
          "duration": 0.10714275000003681
        },
        {
          "name": "C#7",
          "midi": 97,
          "time": 410.5710179999937,
          "velocity": 0.7559055118110236,
          "duration": 0.10714275000003681
        },
        {
          "name": "C1",
          "midi": 24,
          "time": 410.5710179999937,
          "velocity": 0.7874015748031497,
          "duration": 0.026785687500023414
        },
        {
          "name": "D1",
          "midi": 26,
          "time": 410.5710179999937,
          "velocity": 0.7874015748031497,
          "duration": 0.026785687500023414
        },
        {
          "name": "C#7",
          "midi": 97,
          "time": 410.67816074999376,
          "velocity": 0.7559055118110236,
          "duration": 0.10714275000003681
        },
        {
          "name": "D#1",
          "midi": 27,
          "time": 410.67816074999376,
          "velocity": 0.7874015748031497,
          "duration": 0.026785687500023414
        },
        {
          "name": "C#7",
          "midi": 97,
          "time": 410.7853034999938,
          "velocity": 0.7559055118110236,
          "duration": 0.10714275000003681
        },
        {
          "name": "D1",
          "midi": 26,
          "time": 410.7853034999938,
          "velocity": 0.7874015748031497,
          "duration": 0.026785687500023414
        },
        {
          "name": "C#7",
          "midi": 97,
          "time": 410.89244624999384,
          "velocity": 0.7559055118110236,
          "duration": 0.10714275000003681
        },
        {
          "name": "D#1",
          "midi": 27,
          "time": 410.89244624999384,
          "velocity": 0.7874015748031497,
          "duration": 0.026785687500023414
        },
        {
          "name": "C7",
          "midi": 96,
          "time": 410.9995889999939,
          "velocity": 0.7559055118110236,
          "duration": 0.10714275000003681
        },
        {
          "name": "C#7",
          "midi": 97,
          "time": 410.9995889999939,
          "velocity": 0.7559055118110236,
          "duration": 0.10714275000003681
        },
        {
          "name": "C1",
          "midi": 24,
          "time": 410.9995889999939,
          "velocity": 0.7874015748031497,
          "duration": 0.026785687500023414
        },
        {
          "name": "D1",
          "midi": 26,
          "time": 410.9995889999939,
          "velocity": 0.7874015748031497,
          "duration": 0.026785687500023414
        },
        {
          "name": "C#7",
          "midi": 97,
          "time": 411.1067317499939,
          "velocity": 0.7559055118110236,
          "duration": 0.10714275000003681
        },
        {
          "name": "D#1",
          "midi": 27,
          "time": 411.1067317499939,
          "velocity": 0.7874015748031497,
          "duration": 0.026785687500023414
        },
        {
          "name": "C#7",
          "midi": 97,
          "time": 411.21387449999395,
          "velocity": 0.7559055118110236,
          "duration": 0.10714275000003681
        },
        {
          "name": "D1",
          "midi": 26,
          "time": 411.21387449999395,
          "velocity": 0.7874015748031497,
          "duration": 0.026785687500023414
        },
        {
          "name": "C#7",
          "midi": 97,
          "time": 411.321017249994,
          "velocity": 0.7559055118110236,
          "duration": 0.10714275000003681
        },
        {
          "name": "D#1",
          "midi": 27,
          "time": 411.321017249994,
          "velocity": 0.7874015748031497,
          "duration": 0.026785687500023414
        },
        {
          "name": "E7",
          "midi": 100,
          "time": 411.428159999994,
          "velocity": 0.7559055118110236,
          "duration": 0.10714275000003681
        },
        {
          "name": "A#1",
          "midi": 34,
          "time": 411.428159999994,
          "velocity": 0.7874015748031497,
          "duration": 0.026785687500023414
        },
        {
          "name": "C7",
          "midi": 96,
          "time": 411.85673099999406,
          "velocity": 0.7559055118110236,
          "duration": 0.10714274999997997
        },
        {
          "name": "C#7",
          "midi": 97,
          "time": 412.28530199999403,
          "velocity": 0.7559055118110236,
          "duration": 0.10714275000003681
        },
        {
          "name": "D#7",
          "midi": 99,
          "time": 412.28530199999403,
          "velocity": 0.7559055118110236,
          "duration": 0.10714275000003681
        },
        {
          "name": "C1",
          "midi": 24,
          "time": 412.28530199999403,
          "velocity": 0.7874015748031497,
          "duration": 0.026785687500023414
        },
        {
          "name": "F#2",
          "midi": 42,
          "time": 412.28530199999403,
          "velocity": 0.7874015748031497,
          "duration": 0.026785687500023414
        },
        {
          "name": "D1",
          "midi": 26,
          "time": 412.28530199999403,
          "velocity": 0.7874015748031497,
          "duration": 0.026785687500023414
        },
        {
          "name": "C7",
          "midi": 96,
          "time": 412.71387299999407,
          "velocity": 0.7559055118110236,
          "duration": 0.10714274999997997
        },
        {
          "name": "C7",
          "midi": 96,
          "time": 412.928158499994,
          "velocity": 0.7559055118110236,
          "duration": 0.10714274999997997
        },
        {
          "name": "D#7",
          "midi": 99,
          "time": 413.142443999994,
          "velocity": 0.7559055118110236,
          "duration": 0.10714275000003681
        },
        {
          "name": "C1",
          "midi": 24,
          "time": 413.142443999994,
          "velocity": 0.7874015748031497,
          "duration": 0.026785687500023414
        },
        {
          "name": "F#2",
          "midi": 42,
          "time": 413.142443999994,
          "velocity": 0.7874015748031497,
          "duration": 0.026785687500023414
        },
        {
          "name": "C7",
          "midi": 96,
          "time": 413.356729499994,
          "velocity": 0.7559055118110236,
          "duration": 0.10714274999997997
        },
        {
          "name": "C7",
          "midi": 96,
          "time": 413.57101499999396,
          "velocity": 0.7559055118110236,
          "duration": 0.10714274999997997
        },
        {
          "name": "C#7",
          "midi": 97,
          "time": 413.99958599999394,
          "velocity": 0.7559055118110236,
          "duration": 0.10714275000003681
        },
        {
          "name": "D#7",
          "midi": 99,
          "time": 413.99958599999394,
          "velocity": 0.7559055118110236,
          "duration": 0.10714275000003681
        },
        {
          "name": "C1",
          "midi": 24,
          "time": 413.99958599999394,
          "velocity": 0.7874015748031497,
          "duration": 0.026785687500023414
        },
        {
          "name": "F#2",
          "midi": 42,
          "time": 413.99958599999394,
          "velocity": 0.7874015748031497,
          "duration": 0.026785687500023414
        },
        {
          "name": "D1",
          "midi": 26,
          "time": 413.99958599999394,
          "velocity": 0.7874015748031497,
          "duration": 0.026785687500023414
        },
        {
          "name": "C7",
          "midi": 96,
          "time": 414.642442499994,
          "velocity": 0.7559055118110236,
          "duration": 0.10714274999997997
        },
        {
          "name": "C7",
          "midi": 96,
          "time": 414.85672799999395,
          "velocity": 0.7559055118110236,
          "duration": 0.10714275000003681
        },
        {
          "name": "D#7",
          "midi": 99,
          "time": 414.85672799999395,
          "velocity": 0.7559055118110236,
          "duration": 0.10714275000003681
        },
        {
          "name": "C1",
          "midi": 24,
          "time": 414.85672799999395,
          "velocity": 0.7874015748031497,
          "duration": 0.026785687500023414
        },
        {
          "name": "F#2",
          "midi": 42,
          "time": 414.85672799999395,
          "velocity": 0.7874015748031497,
          "duration": 0.026785687500023414
        },
        {
          "name": "C7",
          "midi": 96,
          "time": 415.285298999994,
          "velocity": 0.7559055118110236,
          "duration": 0.10714274999997997
        },
        {
          "name": "C#7",
          "midi": 97,
          "time": 415.71386999999396,
          "velocity": 0.7559055118110236,
          "duration": 0.10714275000003681
        },
        {
          "name": "D#7",
          "midi": 99,
          "time": 415.71386999999396,
          "velocity": 0.7559055118110236,
          "duration": 0.10714275000003681
        },
        {
          "name": "C1",
          "midi": 24,
          "time": 415.71386999999396,
          "velocity": 0.7874015748031497,
          "duration": 0.026785687500023414
        },
        {
          "name": "F#2",
          "midi": 42,
          "time": 415.71386999999396,
          "velocity": 0.7874015748031497,
          "duration": 0.026785687500023414
        },
        {
          "name": "D1",
          "midi": 26,
          "time": 415.71386999999396,
          "velocity": 0.7874015748031497,
          "duration": 0.026785687500023414
        },
        {
          "name": "C7",
          "midi": 96,
          "time": 416.142440999994,
          "velocity": 0.7559055118110236,
          "duration": 0.10714274999997997
        },
        {
          "name": "C7",
          "midi": 96,
          "time": 416.35672649999395,
          "velocity": 0.7559055118110236,
          "duration": 0.10714274999997997
        },
        {
          "name": "D#7",
          "midi": 99,
          "time": 416.5710119999939,
          "velocity": 0.7559055118110236,
          "duration": 0.10714275000003681
        },
        {
          "name": "C1",
          "midi": 24,
          "time": 416.5710119999939,
          "velocity": 0.7874015748031497,
          "duration": 0.026785687500023414
        },
        {
          "name": "F#2",
          "midi": 42,
          "time": 416.5710119999939,
          "velocity": 0.7874015748031497,
          "duration": 0.026785687500023414
        },
        {
          "name": "C7",
          "midi": 96,
          "time": 416.78529749999393,
          "velocity": 0.7559055118110236,
          "duration": 0.10714274999997997
        },
        {
          "name": "C7",
          "midi": 96,
          "time": 416.9995829999939,
          "velocity": 0.7559055118110236,
          "duration": 0.10714274999997997
        },
        {
          "name": "C7",
          "midi": 96,
          "time": 417.10672574999387,
          "velocity": 0.7559055118110236,
          "duration": 0.10714274999997997
        },
        {
          "name": "C7",
          "midi": 96,
          "time": 417.21386849999385,
          "velocity": 0.7559055118110236,
          "duration": 0.10714274999997997
        },
        {
          "name": "C7",
          "midi": 96,
          "time": 417.32101124999383,
          "velocity": 0.7559055118110236,
          "duration": 0.10714274999997997
        },
        {
          "name": "C7",
          "midi": 96,
          "time": 417.4281539999938,
          "velocity": 0.7559055118110236,
          "duration": 0.10714275000003681
        },
        {
          "name": "C#7",
          "midi": 97,
          "time": 417.4281539999938,
          "velocity": 0.7559055118110236,
          "duration": 0.10714275000003681
        },
        {
          "name": "D#7",
          "midi": 99,
          "time": 417.4281539999938,
          "velocity": 0.7559055118110236,
          "duration": 0.10714275000003681
        },
        {
          "name": "C1",
          "midi": 24,
          "time": 417.4281539999938,
          "velocity": 0.7874015748031497,
          "duration": 0.026785687500023414
        },
        {
          "name": "F#2",
          "midi": 42,
          "time": 417.4281539999938,
          "velocity": 0.7874015748031497,
          "duration": 0.026785687500023414
        },
        {
          "name": "D1",
          "midi": 26,
          "time": 417.4281539999938,
          "velocity": 0.7874015748031497,
          "duration": 0.026785687500023414
        },
        {
          "name": "C7",
          "midi": 96,
          "time": 417.6424394999938,
          "velocity": 0.7559055118110236,
          "duration": 0.10714274999997997
        },
        {
          "name": "C7",
          "midi": 96,
          "time": 417.8567249999938,
          "velocity": 0.7559055118110236,
          "duration": 0.10714274999997997
        },
        {
          "name": "C7",
          "midi": 96,
          "time": 418.07101049999375,
          "velocity": 0.7559055118110236,
          "duration": 0.10714274999997997
        },
        {
          "name": "E7",
          "midi": 100,
          "time": 418.2852959999937,
          "velocity": 0.7559055118110236,
          "duration": 0.10714275000003681
        },
        {
          "name": "C1",
          "midi": 24,
          "time": 418.2852959999937,
          "velocity": 0.7874015748031497,
          "duration": 0.026785687500023414
        },
        {
          "name": "C2",
          "midi": 36,
          "time": 418.2852959999937,
          "velocity": 0.7874015748031497,
          "duration": 0.026785687500023414
        },
        {
          "name": "C7",
          "midi": 96,
          "time": 418.71386699999374,
          "velocity": 0.7559055118110236,
          "duration": 0.10714274999997997
        },
        {
          "name": "C#7",
          "midi": 97,
          "time": 419.1424379999937,
          "velocity": 0.7559055118110236,
          "duration": 0.10714275000003681
        },
        {
          "name": "D#7",
          "midi": 99,
          "time": 419.1424379999937,
          "velocity": 0.7559055118110236,
          "duration": 0.10714275000003681
        },
        {
          "name": "C1",
          "midi": 24,
          "time": 419.1424379999937,
          "velocity": 0.7874015748031497,
          "duration": 0.026785687500023414
        },
        {
          "name": "F#2",
          "midi": 42,
          "time": 419.1424379999937,
          "velocity": 0.7874015748031497,
          "duration": 0.026785687500023414
        },
        {
          "name": "D1",
          "midi": 26,
          "time": 419.1424379999937,
          "velocity": 0.7874015748031497,
          "duration": 0.026785687500023414
        },
        {
          "name": "C7",
          "midi": 96,
          "time": 419.57100899999375,
          "velocity": 0.7559055118110236,
          "duration": 0.10714274999997997
        },
        {
          "name": "C7",
          "midi": 96,
          "time": 419.7852944999937,
          "velocity": 0.7559055118110236,
          "duration": 0.10714274999997997
        },
        {
          "name": "D#7",
          "midi": 99,
          "time": 419.99957999999367,
          "velocity": 0.7559055118110236,
          "duration": 0.10714275000003681
        },
        {
          "name": "C1",
          "midi": 24,
          "time": 419.99957999999367,
          "velocity": 0.7874015748031497,
          "duration": 0.026785687500023414
        },
        {
          "name": "F#2",
          "midi": 42,
          "time": 419.99957999999367,
          "velocity": 0.7874015748031497,
          "duration": 0.026785687500023414
        },
        {
          "name": "C7",
          "midi": 96,
          "time": 420.2138654999937,
          "velocity": 0.7559055118110236,
          "duration": 0.10714274999997997
        },
        {
          "name": "C7",
          "midi": 96,
          "time": 420.42815099999365,
          "velocity": 0.7559055118110236,
          "duration": 0.10714274999997997
        },
        {
          "name": "C#7",
          "midi": 97,
          "time": 420.8567219999936,
          "velocity": 0.7559055118110236,
          "duration": 0.10714275000003681
        },
        {
          "name": "D#7",
          "midi": 99,
          "time": 420.8567219999936,
          "velocity": 0.7559055118110236,
          "duration": 0.10714275000003681
        },
        {
          "name": "C1",
          "midi": 24,
          "time": 420.8567219999936,
          "velocity": 0.7874015748031497,
          "duration": 0.026785687500023414
        },
        {
          "name": "F#2",
          "midi": 42,
          "time": 420.8567219999936,
          "velocity": 0.7874015748031497,
          "duration": 0.026785687500023414
        },
        {
          "name": "D1",
          "midi": 26,
          "time": 420.8567219999936,
          "velocity": 0.7874015748031497,
          "duration": 0.026785687500023414
        },
        {
          "name": "C7",
          "midi": 96,
          "time": 421.4995784999937,
          "velocity": 0.7559055118110236,
          "duration": 0.10714274999997997
        },
        {
          "name": "C7",
          "midi": 96,
          "time": 421.71386399999363,
          "velocity": 0.7559055118110236,
          "duration": 0.10714275000003681
        },
        {
          "name": "D#7",
          "midi": 99,
          "time": 421.71386399999363,
          "velocity": 0.7559055118110236,
          "duration": 0.10714275000003681
        },
        {
          "name": "C1",
          "midi": 24,
          "time": 421.71386399999363,
          "velocity": 0.7874015748031497,
          "duration": 0.026785687500023414
        },
        {
          "name": "F#2",
          "midi": 42,
          "time": 421.71386399999363,
          "velocity": 0.7874015748031497,
          "duration": 0.026785687500023414
        },
        {
          "name": "C7",
          "midi": 96,
          "time": 422.14243499999367,
          "velocity": 0.7559055118110236,
          "duration": 0.10714274999997997
        },
        {
          "name": "C#7",
          "midi": 97,
          "time": 422.57100599999364,
          "velocity": 0.7559055118110236,
          "duration": 0.10714275000003681
        },
        {
          "name": "D#7",
          "midi": 99,
          "time": 422.57100599999364,
          "velocity": 0.7559055118110236,
          "duration": 0.10714275000003681
        },
        {
          "name": "C1",
          "midi": 24,
          "time": 422.57100599999364,
          "velocity": 0.7874015748031497,
          "duration": 0.026785687500023414
        },
        {
          "name": "F#2",
          "midi": 42,
          "time": 422.57100599999364,
          "velocity": 0.7874015748031497,
          "duration": 0.026785687500023414
        },
        {
          "name": "D1",
          "midi": 26,
          "time": 422.57100599999364,
          "velocity": 0.7874015748031497,
          "duration": 0.026785687500023414
        },
        {
          "name": "C7",
          "midi": 96,
          "time": 422.9995769999937,
          "velocity": 0.7559055118110236,
          "duration": 0.10714274999997997
        },
        {
          "name": "C7",
          "midi": 96,
          "time": 423.21386249999364,
          "velocity": 0.7559055118110236,
          "duration": 0.10714274999997997
        },
        {
          "name": "D#7",
          "midi": 99,
          "time": 423.4281479999936,
          "velocity": 0.7559055118110236,
          "duration": 0.10714275000003681
        },
        {
          "name": "C1",
          "midi": 24,
          "time": 423.4281479999936,
          "velocity": 0.7874015748031497,
          "duration": 0.026785687500023414
        },
        {
          "name": "F#2",
          "midi": 42,
          "time": 423.4281479999936,
          "velocity": 0.7874015748031497,
          "duration": 0.026785687500023414
        },
        {
          "name": "C7",
          "midi": 96,
          "time": 423.6424334999936,
          "velocity": 0.7559055118110236,
          "duration": 0.10714274999997997
        },
        {
          "name": "C7",
          "midi": 96,
          "time": 423.8567189999936,
          "velocity": 0.7559055118110236,
          "duration": 0.10714274999997997
        },
        {
          "name": "C#7",
          "midi": 97,
          "time": 424.28528999999355,
          "velocity": 0.7559055118110236,
          "duration": 0.10714275000003681
        },
        {
          "name": "D#7",
          "midi": 99,
          "time": 424.28528999999355,
          "velocity": 0.7559055118110236,
          "duration": 0.10714275000003681
        },
        {
          "name": "C1",
          "midi": 24,
          "time": 424.28528999999355,
          "velocity": 0.7874015748031497,
          "duration": 0.026785687500023414
        },
        {
          "name": "F#2",
          "midi": 42,
          "time": 424.28528999999355,
          "velocity": 0.7874015748031497,
          "duration": 0.026785687500023414
        },
        {
          "name": "D1",
          "midi": 26,
          "time": 424.28528999999355,
          "velocity": 0.7874015748031497,
          "duration": 0.026785687500023414
        },
        {
          "name": "C7",
          "midi": 96,
          "time": 424.7138609999936,
          "velocity": 0.7559055118110236,
          "duration": 0.10714274999997997
        },
        {
          "name": "C7",
          "midi": 96,
          "time": 424.92814649999355,
          "velocity": 0.7559055118110236,
          "duration": 0.10714274999997997
        },
        {
          "name": "E7",
          "midi": 100,
          "time": 425.1424319999935,
          "velocity": 0.7559055118110236,
          "duration": 0.10714275000003681
        },
        {
          "name": "C1",
          "midi": 24,
          "time": 425.1424319999935,
          "velocity": 0.7874015748031497,
          "duration": 0.026785687500023414
        },
        {
          "name": "C2",
          "midi": 36,
          "time": 425.1424319999935,
          "velocity": 0.7874015748031497,
          "duration": 0.026785687500023414
        },
        {
          "name": "C7",
          "midi": 96,
          "time": 425.57100299999354,
          "velocity": 0.7559055118110236,
          "duration": 0.10714274999997997
        },
        {
          "name": "C#7",
          "midi": 97,
          "time": 425.9995739999935,
          "velocity": 0.7559055118110236,
          "duration": 0.10714275000003681
        },
        {
          "name": "D#7",
          "midi": 99,
          "time": 425.9995739999935,
          "velocity": 0.7559055118110236,
          "duration": 0.10714275000003681
        },
        {
          "name": "C1",
          "midi": 24,
          "time": 425.9995739999935,
          "velocity": 0.7874015748031497,
          "duration": 0.026785687500023414
        },
        {
          "name": "F#2",
          "midi": 42,
          "time": 425.9995739999935,
          "velocity": 0.7874015748031497,
          "duration": 0.026785687500023414
        },
        {
          "name": "D1",
          "midi": 26,
          "time": 425.9995739999935,
          "velocity": 0.7874015748031497,
          "duration": 0.026785687500023414
        },
        {
          "name": "C7",
          "midi": 96,
          "time": 426.42814499999355,
          "velocity": 0.7559055118110236,
          "duration": 0.10714274999997997
        },
        {
          "name": "C7",
          "midi": 96,
          "time": 426.6424304999935,
          "velocity": 0.7559055118110236,
          "duration": 0.10714274999997997
        },
        {
          "name": "D#7",
          "midi": 99,
          "time": 426.85671599999347,
          "velocity": 0.7559055118110236,
          "duration": 0.10714275000003681
        },
        {
          "name": "C1",
          "midi": 24,
          "time": 426.85671599999347,
          "velocity": 0.7874015748031497,
          "duration": 0.026785687500023414
        },
        {
          "name": "F#2",
          "midi": 42,
          "time": 426.85671599999347,
          "velocity": 0.7874015748031497,
          "duration": 0.026785687500023414
        },
        {
          "name": "C7",
          "midi": 96,
          "time": 427.0710014999935,
          "velocity": 0.7559055118110236,
          "duration": 0.10714274999997997
        },
        {
          "name": "C7",
          "midi": 96,
          "time": 427.28528699999345,
          "velocity": 0.7559055118110236,
          "duration": 0.10714274999997997
        },
        {
          "name": "C#7",
          "midi": 97,
          "time": 427.7138579999934,
          "velocity": 0.7559055118110236,
          "duration": 0.10714275000003681
        },
        {
          "name": "D#7",
          "midi": 99,
          "time": 427.7138579999934,
          "velocity": 0.7559055118110236,
          "duration": 0.10714275000003681
        },
        {
          "name": "C1",
          "midi": 24,
          "time": 427.7138579999934,
          "velocity": 0.7874015748031497,
          "duration": 0.026785687500023414
        },
        {
          "name": "F#2",
          "midi": 42,
          "time": 427.7138579999934,
          "velocity": 0.7874015748031497,
          "duration": 0.026785687500023414
        },
        {
          "name": "D1",
          "midi": 26,
          "time": 427.7138579999934,
          "velocity": 0.7874015748031497,
          "duration": 0.026785687500023414
        },
        {
          "name": "C7",
          "midi": 96,
          "time": 428.3567144999935,
          "velocity": 0.7559055118110236,
          "duration": 0.10714274999997997
        },
        {
          "name": "C7",
          "midi": 96,
          "time": 428.57099999999343,
          "velocity": 0.7559055118110236,
          "duration": 0.10714275000003681
        },
        {
          "name": "D#7",
          "midi": 99,
          "time": 428.57099999999343,
          "velocity": 0.7559055118110236,
          "duration": 0.10714275000003681
        },
        {
          "name": "C1",
          "midi": 24,
          "time": 428.57099999999343,
          "velocity": 0.7874015748031497,
          "duration": 0.026785687500023414
        },
        {
          "name": "F#2",
          "midi": 42,
          "time": 428.57099999999343,
          "velocity": 0.7874015748031497,
          "duration": 0.026785687500023414
        },
        {
          "name": "C7",
          "midi": 96,
          "time": 428.99957099999347,
          "velocity": 0.7559055118110236,
          "duration": 0.10714274999997997
        },
        {
          "name": "C#7",
          "midi": 97,
          "time": 429.42814199999344,
          "velocity": 0.7559055118110236,
          "duration": 0.10714275000003681
        },
        {
          "name": "D#7",
          "midi": 99,
          "time": 429.42814199999344,
          "velocity": 0.7559055118110236,
          "duration": 0.10714275000003681
        },
        {
          "name": "C1",
          "midi": 24,
          "time": 429.42814199999344,
          "velocity": 0.7874015748031497,
          "duration": 0.026785687500023414
        },
        {
          "name": "F#2",
          "midi": 42,
          "time": 429.42814199999344,
          "velocity": 0.7874015748031497,
          "duration": 0.026785687500023414
        },
        {
          "name": "D1",
          "midi": 26,
          "time": 429.42814199999344,
          "velocity": 0.7874015748031497,
          "duration": 0.026785687500023414
        },
        {
          "name": "C7",
          "midi": 96,
          "time": 429.8567129999935,
          "velocity": 0.7559055118110236,
          "duration": 0.10714274999997997
        },
        {
          "name": "C7",
          "midi": 96,
          "time": 430.07099849999344,
          "velocity": 0.7559055118110236,
          "duration": 0.10714274999997997
        },
        {
          "name": "D#7",
          "midi": 99,
          "time": 430.2852839999934,
          "velocity": 0.7559055118110236,
          "duration": 0.10714275000003681
        },
        {
          "name": "C1",
          "midi": 24,
          "time": 430.2852839999934,
          "velocity": 0.7874015748031497,
          "duration": 0.026785687500023414
        },
        {
          "name": "F#2",
          "midi": 42,
          "time": 430.2852839999934,
          "velocity": 0.7874015748031497,
          "duration": 0.026785687500023414
        },
        {
          "name": "C7",
          "midi": 96,
          "time": 430.4995694999934,
          "velocity": 0.7559055118110236,
          "duration": 0.10714274999997997
        },
        {
          "name": "C7",
          "midi": 96,
          "time": 430.7138549999934,
          "velocity": 0.7559055118110236,
          "duration": 0.10714274999997997
        },
        {
          "name": "C7",
          "midi": 96,
          "time": 430.82099774999335,
          "velocity": 0.7559055118110236,
          "duration": 0.10714274999997997
        },
        {
          "name": "C7",
          "midi": 96,
          "time": 430.92814049999333,
          "velocity": 0.7559055118110236,
          "duration": 0.10714274999997997
        },
        {
          "name": "C7",
          "midi": 96,
          "time": 431.0352832499933,
          "velocity": 0.7559055118110236,
          "duration": 0.10714274999997997
        },
        {
          "name": "C7",
          "midi": 96,
          "time": 431.1424259999933,
          "velocity": 0.7559055118110236,
          "duration": 0.10714275000003681
        },
        {
          "name": "C#7",
          "midi": 97,
          "time": 431.1424259999933,
          "velocity": 0.7559055118110236,
          "duration": 0.10714275000003681
        },
        {
          "name": "D#7",
          "midi": 99,
          "time": 431.1424259999933,
          "velocity": 0.7559055118110236,
          "duration": 0.10714275000003681
        },
        {
          "name": "C1",
          "midi": 24,
          "time": 431.1424259999933,
          "velocity": 0.7874015748031497,
          "duration": 0.026785687500023414
        },
        {
          "name": "F#2",
          "midi": 42,
          "time": 431.1424259999933,
          "velocity": 0.7874015748031497,
          "duration": 0.026785687500023414
        },
        {
          "name": "D1",
          "midi": 26,
          "time": 431.1424259999933,
          "velocity": 0.7874015748031497,
          "duration": 0.026785687500023414
        },
        {
          "name": "C7",
          "midi": 96,
          "time": 431.3567114999933,
          "velocity": 0.7559055118110236,
          "duration": 0.10714274999997997
        },
        {
          "name": "C7",
          "midi": 96,
          "time": 431.57099699999327,
          "velocity": 0.7559055118110236,
          "duration": 0.10714274999997997
        },
        {
          "name": "C7",
          "midi": 96,
          "time": 431.78528249999323,
          "velocity": 0.7559055118110236,
          "duration": 0.10714274999997997
        },
        {
          "name": "E7",
          "midi": 100,
          "time": 431.9995679999932,
          "velocity": 0.7559055118110236,
          "duration": 0.10714275000003681
        },
        {
          "name": "C1",
          "midi": 24,
          "time": 431.9995679999932,
          "velocity": 0.7874015748031497,
          "duration": 0.026785687500023414
        },
        {
          "name": "C2",
          "midi": 36,
          "time": 431.9995679999932,
          "velocity": 0.7874015748031497,
          "duration": 0.026785687500023414
        },
        {
          "name": "C7",
          "midi": 96,
          "time": 432.4281389999932,
          "velocity": 0.7559055118110236,
          "duration": 0.10714274999997997
        },
        {
          "name": "C#7",
          "midi": 97,
          "time": 432.8567099999932,
          "velocity": 0.7559055118110236,
          "duration": 0.10714275000003681
        },
        {
          "name": "D#7",
          "midi": 99,
          "time": 432.8567099999932,
          "velocity": 0.7559055118110236,
          "duration": 0.10714275000003681
        },
        {
          "name": "C1",
          "midi": 24,
          "time": 432.8567099999932,
          "velocity": 0.7874015748031497,
          "duration": 0.026785687500023414
        },
        {
          "name": "F#2",
          "midi": 42,
          "time": 432.8567099999932,
          "velocity": 0.7874015748031497,
          "duration": 0.026785687500023414
        },
        {
          "name": "D1",
          "midi": 26,
          "time": 432.8567099999932,
          "velocity": 0.7874015748031497,
          "duration": 0.026785687500023414
        },
        {
          "name": "C7",
          "midi": 96,
          "time": 433.28528099999323,
          "velocity": 0.7559055118110236,
          "duration": 0.10714274999997997
        },
        {
          "name": "C7",
          "midi": 96,
          "time": 433.4995664999932,
          "velocity": 0.7559055118110236,
          "duration": 0.10714274999997997
        },
        {
          "name": "D#7",
          "midi": 99,
          "time": 433.71385199999315,
          "velocity": 0.7559055118110236,
          "duration": 0.10714275000003681
        },
        {
          "name": "C1",
          "midi": 24,
          "time": 433.71385199999315,
          "velocity": 0.7874015748031497,
          "duration": 0.026785687500023414
        },
        {
          "name": "F#2",
          "midi": 42,
          "time": 433.71385199999315,
          "velocity": 0.7874015748031497,
          "duration": 0.026785687500023414
        },
        {
          "name": "C7",
          "midi": 96,
          "time": 433.92813749999317,
          "velocity": 0.7559055118110236,
          "duration": 0.10714274999997997
        },
        {
          "name": "C7",
          "midi": 96,
          "time": 434.14242299999313,
          "velocity": 0.7559055118110236,
          "duration": 0.10714274999997997
        },
        {
          "name": "C#7",
          "midi": 97,
          "time": 434.5709939999931,
          "velocity": 0.7559055118110236,
          "duration": 0.10714275000003681
        },
        {
          "name": "D#7",
          "midi": 99,
          "time": 434.5709939999931,
          "velocity": 0.7559055118110236,
          "duration": 0.10714275000003681
        },
        {
          "name": "C1",
          "midi": 24,
          "time": 434.5709939999931,
          "velocity": 0.7874015748031497,
          "duration": 0.026785687500023414
        },
        {
          "name": "F#2",
          "midi": 42,
          "time": 434.5709939999931,
          "velocity": 0.7874015748031497,
          "duration": 0.026785687500023414
        },
        {
          "name": "D1",
          "midi": 26,
          "time": 434.5709939999931,
          "velocity": 0.7874015748031497,
          "duration": 0.026785687500023414
        },
        {
          "name": "C7",
          "midi": 96,
          "time": 435.21385049999316,
          "velocity": 0.7559055118110236,
          "duration": 0.10714274999997997
        },
        {
          "name": "C7",
          "midi": 96,
          "time": 435.4281359999931,
          "velocity": 0.7559055118110236,
          "duration": 0.10714275000003681
        },
        {
          "name": "D#7",
          "midi": 99,
          "time": 435.4281359999931,
          "velocity": 0.7559055118110236,
          "duration": 0.10714275000003681
        },
        {
          "name": "C1",
          "midi": 24,
          "time": 435.4281359999931,
          "velocity": 0.7874015748031497,
          "duration": 0.026785687500023414
        },
        {
          "name": "F#2",
          "midi": 42,
          "time": 435.4281359999931,
          "velocity": 0.7874015748031497,
          "duration": 0.026785687500023414
        },
        {
          "name": "C7",
          "midi": 96,
          "time": 435.85670699999315,
          "velocity": 0.7559055118110236,
          "duration": 0.10714274999997997
        },
        {
          "name": "C#7",
          "midi": 97,
          "time": 436.2852779999931,
          "velocity": 0.7559055118110236,
          "duration": 0.10714275000003681
        },
        {
          "name": "D#7",
          "midi": 99,
          "time": 436.2852779999931,
          "velocity": 0.7559055118110236,
          "duration": 0.10714275000003681
        },
        {
          "name": "C1",
          "midi": 24,
          "time": 436.2852779999931,
          "velocity": 0.7874015748031497,
          "duration": 0.026785687500023414
        },
        {
          "name": "F#2",
          "midi": 42,
          "time": 436.2852779999931,
          "velocity": 0.7874015748031497,
          "duration": 0.026785687500023414
        },
        {
          "name": "D1",
          "midi": 26,
          "time": 436.2852779999931,
          "velocity": 0.7874015748031497,
          "duration": 0.026785687500023414
        },
        {
          "name": "C7",
          "midi": 96,
          "time": 436.71384899999316,
          "velocity": 0.7559055118110236,
          "duration": 0.10714274999997997
        },
        {
          "name": "C7",
          "midi": 96,
          "time": 436.9281344999931,
          "velocity": 0.7559055118110236,
          "duration": 0.10714274999997997
        },
        {
          "name": "D#7",
          "midi": 99,
          "time": 437.1424199999931,
          "velocity": 0.7559055118110236,
          "duration": 0.10714275000003681
        },
        {
          "name": "C1",
          "midi": 24,
          "time": 437.1424199999931,
          "velocity": 0.7874015748031497,
          "duration": 0.026785687500023414
        },
        {
          "name": "F#2",
          "midi": 42,
          "time": 437.1424199999931,
          "velocity": 0.7874015748031497,
          "duration": 0.026785687500023414
        },
        {
          "name": "C7",
          "midi": 96,
          "time": 437.3567054999931,
          "velocity": 0.7559055118110236,
          "duration": 0.10714274999997997
        },
        {
          "name": "C7",
          "midi": 96,
          "time": 437.57099099999306,
          "velocity": 0.7559055118110236,
          "duration": 0.10714274999997997
        },
        {
          "name": "C#7",
          "midi": 97,
          "time": 437.99956199999303,
          "velocity": 0.7559055118110236,
          "duration": 0.10714275000003681
        },
        {
          "name": "D#7",
          "midi": 99,
          "time": 437.99956199999303,
          "velocity": 0.7559055118110236,
          "duration": 0.10714275000003681
        },
        {
          "name": "C1",
          "midi": 24,
          "time": 437.99956199999303,
          "velocity": 0.7874015748031497,
          "duration": 0.026785687500023414
        },
        {
          "name": "F#2",
          "midi": 42,
          "time": 437.99956199999303,
          "velocity": 0.7874015748031497,
          "duration": 0.026785687500023414
        },
        {
          "name": "D1",
          "midi": 26,
          "time": 437.99956199999303,
          "velocity": 0.7874015748031497,
          "duration": 0.026785687500023414
        },
        {
          "name": "C7",
          "midi": 96,
          "time": 438.42813299999307,
          "velocity": 0.7559055118110236,
          "duration": 0.10714274999997997
        },
        {
          "name": "C7",
          "midi": 96,
          "time": 438.642418499993,
          "velocity": 0.7559055118110236,
          "duration": 0.10714274999997997
        },
        {
          "name": "E7",
          "midi": 100,
          "time": 438.856703999993,
          "velocity": 0.7559055118110236,
          "duration": 0.10714275000003681
        },
        {
          "name": "C1",
          "midi": 24,
          "time": 438.856703999993,
          "velocity": 0.7874015748031497,
          "duration": 0.026785687500023414
        },
        {
          "name": "C2",
          "midi": 36,
          "time": 438.856703999993,
          "velocity": 0.7874015748031497,
          "duration": 0.026785687500023414
        },
        {
          "name": "C7",
          "midi": 96,
          "time": 439.285274999993,
          "velocity": 0.7559055118110236,
          "duration": 0.10714274999997997
        },
        {
          "name": "C#7",
          "midi": 97,
          "time": 439.713845999993,
          "velocity": 0.7559055118110236,
          "duration": 0.10714275000003681
        },
        {
          "name": "D#7",
          "midi": 99,
          "time": 439.713845999993,
          "velocity": 0.7559055118110236,
          "duration": 0.10714275000003681
        },
        {
          "name": "C1",
          "midi": 24,
          "time": 439.713845999993,
          "velocity": 0.7874015748031497,
          "duration": 0.026785687500023414
        },
        {
          "name": "F#2",
          "midi": 42,
          "time": 439.713845999993,
          "velocity": 0.7874015748031497,
          "duration": 0.026785687500023414
        },
        {
          "name": "D1",
          "midi": 26,
          "time": 439.713845999993,
          "velocity": 0.7874015748031497,
          "duration": 0.026785687500023414
        },
        {
          "name": "C7",
          "midi": 96,
          "time": 440.14241699999303,
          "velocity": 0.7559055118110236,
          "duration": 0.10714274999997997
        },
        {
          "name": "C7",
          "midi": 96,
          "time": 440.356702499993,
          "velocity": 0.7559055118110236,
          "duration": 0.10714274999997997
        },
        {
          "name": "D#7",
          "midi": 99,
          "time": 440.57098799999295,
          "velocity": 0.7559055118110236,
          "duration": 0.10714275000003681
        },
        {
          "name": "C1",
          "midi": 24,
          "time": 440.57098799999295,
          "velocity": 0.7874015748031497,
          "duration": 0.026785687500023414
        },
        {
          "name": "F#2",
          "midi": 42,
          "time": 440.57098799999295,
          "velocity": 0.7874015748031497,
          "duration": 0.026785687500023414
        },
        {
          "name": "C7",
          "midi": 96,
          "time": 440.78527349999297,
          "velocity": 0.7559055118110236,
          "duration": 0.10714274999997997
        },
        {
          "name": "C7",
          "midi": 96,
          "time": 440.9995589999929,
          "velocity": 0.7559055118110236,
          "duration": 0.10714274999997997
        },
        {
          "name": "C#7",
          "midi": 97,
          "time": 441.4281299999929,
          "velocity": 0.7559055118110236,
          "duration": 0.10714275000003681
        },
        {
          "name": "D#7",
          "midi": 99,
          "time": 441.4281299999929,
          "velocity": 0.7559055118110236,
          "duration": 0.10714275000003681
        },
        {
          "name": "C1",
          "midi": 24,
          "time": 441.4281299999929,
          "velocity": 0.7874015748031497,
          "duration": 0.026785687500023414
        },
        {
          "name": "F#2",
          "midi": 42,
          "time": 441.4281299999929,
          "velocity": 0.7874015748031497,
          "duration": 0.026785687500023414
        },
        {
          "name": "D1",
          "midi": 26,
          "time": 441.4281299999929,
          "velocity": 0.7874015748031497,
          "duration": 0.026785687500023414
        },
        {
          "name": "C7",
          "midi": 96,
          "time": 441.85670099999294,
          "velocity": 0.7559055118110236,
          "duration": 0.10714274999997997
        },
        {
          "name": "C7",
          "midi": 96,
          "time": 442.0709864999929,
          "velocity": 0.7559055118110236,
          "duration": 0.10714274999997997
        },
        {
          "name": "C7",
          "midi": 96,
          "time": 442.28527199999286,
          "velocity": 0.7559055118110236,
          "duration": 0.10714275000003681
        },
        {
          "name": "D#7",
          "midi": 99,
          "time": 442.28527199999286,
          "velocity": 0.7559055118110236,
          "duration": 0.10714275000003681
        },
        {
          "name": "C1",
          "midi": 24,
          "time": 442.28527199999286,
          "velocity": 0.7874015748031497,
          "duration": 0.026785687500023414
        },
        {
          "name": "F#2",
          "midi": 42,
          "time": 442.28527199999286,
          "velocity": 0.7874015748031497,
          "duration": 0.026785687500023414
        },
        {
          "name": "C7",
          "midi": 96,
          "time": 442.7138429999929,
          "velocity": 0.7559055118110236,
          "duration": 0.10714274999997997
        },
        {
          "name": "C#7",
          "midi": 97,
          "time": 443.14241399999287,
          "velocity": 0.7559055118110236,
          "duration": 0.10714275000003681
        },
        {
          "name": "D#7",
          "midi": 99,
          "time": 443.14241399999287,
          "velocity": 0.7559055118110236,
          "duration": 0.10714275000003681
        },
        {
          "name": "C1",
          "midi": 24,
          "time": 443.14241399999287,
          "velocity": 0.7874015748031497,
          "duration": 0.026785687500023414
        },
        {
          "name": "F#2",
          "midi": 42,
          "time": 443.14241399999287,
          "velocity": 0.7874015748031497,
          "duration": 0.026785687500023414
        },
        {
          "name": "D1",
          "midi": 26,
          "time": 443.14241399999287,
          "velocity": 0.7874015748031497,
          "duration": 0.026785687500023414
        },
        {
          "name": "C7",
          "midi": 96,
          "time": 443.5709849999929,
          "velocity": 0.7559055118110236,
          "duration": 0.10714274999997997
        },
        {
          "name": "C7",
          "midi": 96,
          "time": 443.78527049999286,
          "velocity": 0.7559055118110236,
          "duration": 0.10714274999997997
        },
        {
          "name": "D#7",
          "midi": 99,
          "time": 443.9995559999928,
          "velocity": 0.7559055118110236,
          "duration": 0.10714275000003681
        },
        {
          "name": "C1",
          "midi": 24,
          "time": 443.9995559999928,
          "velocity": 0.7874015748031497,
          "duration": 0.026785687500023414
        },
        {
          "name": "F#2",
          "midi": 42,
          "time": 443.9995559999928,
          "velocity": 0.7874015748031497,
          "duration": 0.026785687500023414
        },
        {
          "name": "C7",
          "midi": 96,
          "time": 444.21384149999284,
          "velocity": 0.7559055118110236,
          "duration": 0.10714274999997997
        },
        {
          "name": "C7",
          "midi": 96,
          "time": 444.4281269999928,
          "velocity": 0.7559055118110236,
          "duration": 0.10714274999997997
        },
        {
          "name": "C7",
          "midi": 96,
          "time": 444.5352697499928,
          "velocity": 0.7559055118110236,
          "duration": 0.10714274999997997
        },
        {
          "name": "C7",
          "midi": 96,
          "time": 444.64241249999276,
          "velocity": 0.7559055118110236,
          "duration": 0.10714274999997997
        },
        {
          "name": "C7",
          "midi": 96,
          "time": 444.74955524999274,
          "velocity": 0.7559055118110236,
          "duration": 0.10714274999997997
        },
        {
          "name": "C7",
          "midi": 96,
          "time": 444.8566979999927,
          "velocity": 0.7559055118110236,
          "duration": 0.10714275000003681
        },
        {
          "name": "C#7",
          "midi": 97,
          "time": 444.8566979999927,
          "velocity": 0.7559055118110236,
          "duration": 0.10714275000003681
        },
        {
          "name": "D#7",
          "midi": 99,
          "time": 444.8566979999927,
          "velocity": 0.7559055118110236,
          "duration": 0.10714275000003681
        },
        {
          "name": "C1",
          "midi": 24,
          "time": 444.8566979999927,
          "velocity": 0.7874015748031497,
          "duration": 0.026785687500023414
        },
        {
          "name": "F#2",
          "midi": 42,
          "time": 444.8566979999927,
          "velocity": 0.7874015748031497,
          "duration": 0.026785687500023414
        },
        {
          "name": "D1",
          "midi": 26,
          "time": 444.8566979999927,
          "velocity": 0.7874015748031497,
          "duration": 0.026785687500023414
        },
        {
          "name": "C7",
          "midi": 96,
          "time": 445.07098349999274,
          "velocity": 0.7559055118110236,
          "duration": 0.10714274999997997
        },
        {
          "name": "C7",
          "midi": 96,
          "time": 445.2852689999927,
          "velocity": 0.7559055118110236,
          "duration": 0.10714274999997997
        },
        {
          "name": "C7",
          "midi": 96,
          "time": 445.49955449999266,
          "velocity": 0.7559055118110236,
          "duration": 0.10714274999997997
        },
        {
          "name": "E7",
          "midi": 100,
          "time": 445.7138399999926,
          "velocity": 0.7559055118110236,
          "duration": 0.10714275000003681
        },
        {
          "name": "C1",
          "midi": 24,
          "time": 445.7138399999926,
          "velocity": 0.7874015748031497,
          "duration": 0.026785687500023414
        },
        {
          "name": "C2",
          "midi": 36,
          "time": 445.7138399999926,
          "velocity": 0.7874015748031497,
          "duration": 0.026785687500023414
        },
        {
          "name": "C7",
          "midi": 96,
          "time": 446.14241099999265,
          "velocity": 0.7559055118110236,
          "duration": 0.10714274999997997
        },
        {
          "name": "C#7",
          "midi": 97,
          "time": 446.5709819999926,
          "velocity": 0.7559055118110236,
          "duration": 0.10714275000003681
        },
        {
          "name": "D#7",
          "midi": 99,
          "time": 446.5709819999926,
          "velocity": 0.7559055118110236,
          "duration": 0.10714275000003681
        },
        {
          "name": "C1",
          "midi": 24,
          "time": 446.5709819999926,
          "velocity": 0.7874015748031497,
          "duration": 0.026785687500023414
        },
        {
          "name": "F#2",
          "midi": 42,
          "time": 446.5709819999926,
          "velocity": 0.7874015748031497,
          "duration": 0.026785687500023414
        },
        {
          "name": "D1",
          "midi": 26,
          "time": 446.5709819999926,
          "velocity": 0.7874015748031497,
          "duration": 0.026785687500023414
        },
        {
          "name": "C7",
          "midi": 96,
          "time": 446.99955299999266,
          "velocity": 0.7559055118110236,
          "duration": 0.10714274999997997
        },
        {
          "name": "C7",
          "midi": 96,
          "time": 447.2138384999926,
          "velocity": 0.7559055118110236,
          "duration": 0.10714274999997997
        },
        {
          "name": "D#7",
          "midi": 99,
          "time": 447.4281239999926,
          "velocity": 0.7559055118110236,
          "duration": 0.10714275000003681
        },
        {
          "name": "C1",
          "midi": 24,
          "time": 447.4281239999926,
          "velocity": 0.7874015748031497,
          "duration": 0.026785687500023414
        },
        {
          "name": "F#2",
          "midi": 42,
          "time": 447.4281239999926,
          "velocity": 0.7874015748031497,
          "duration": 0.026785687500023414
        },
        {
          "name": "C7",
          "midi": 96,
          "time": 447.6424094999926,
          "velocity": 0.7559055118110236,
          "duration": 0.10714274999997997
        },
        {
          "name": "C7",
          "midi": 96,
          "time": 447.85669499999256,
          "velocity": 0.7559055118110236,
          "duration": 0.10714274999997997
        },
        {
          "name": "C#7",
          "midi": 97,
          "time": 448.28526599999253,
          "velocity": 0.7559055118110236,
          "duration": 0.10714275000003681
        },
        {
          "name": "D#7",
          "midi": 99,
          "time": 448.28526599999253,
          "velocity": 0.7559055118110236,
          "duration": 0.10714275000003681
        },
        {
          "name": "C1",
          "midi": 24,
          "time": 448.28526599999253,
          "velocity": 0.7874015748031497,
          "duration": 0.026785687500023414
        },
        {
          "name": "F#2",
          "midi": 42,
          "time": 448.28526599999253,
          "velocity": 0.7874015748031497,
          "duration": 0.026785687500023414
        },
        {
          "name": "D1",
          "midi": 26,
          "time": 448.28526599999253,
          "velocity": 0.7874015748031497,
          "duration": 0.026785687500023414
        },
        {
          "name": "C7",
          "midi": 96,
          "time": 448.9281224999926,
          "velocity": 0.7559055118110236,
          "duration": 0.10714274999997997
        },
        {
          "name": "C7",
          "midi": 96,
          "time": 449.14240799999254,
          "velocity": 0.7559055118110236,
          "duration": 0.10714275000003681
        },
        {
          "name": "D#7",
          "midi": 99,
          "time": 449.14240799999254,
          "velocity": 0.7559055118110236,
          "duration": 0.10714275000003681
        },
        {
          "name": "C1",
          "midi": 24,
          "time": 449.14240799999254,
          "velocity": 0.7874015748031497,
          "duration": 0.026785687500023414
        },
        {
          "name": "F#2",
          "midi": 42,
          "time": 449.14240799999254,
          "velocity": 0.7874015748031497,
          "duration": 0.026785687500023414
        },
        {
          "name": "C7",
          "midi": 96,
          "time": 449.5709789999926,
          "velocity": 0.7559055118110236,
          "duration": 0.10714274999997997
        },
        {
          "name": "C#7",
          "midi": 97,
          "time": 449.99954999999255,
          "velocity": 0.7559055118110236,
          "duration": 0.10714275000003681
        },
        {
          "name": "D#7",
          "midi": 99,
          "time": 449.99954999999255,
          "velocity": 0.7559055118110236,
          "duration": 0.10714275000003681
        },
        {
          "name": "C1",
          "midi": 24,
          "time": 449.99954999999255,
          "velocity": 0.7874015748031497,
          "duration": 0.026785687500023414
        },
        {
          "name": "F#2",
          "midi": 42,
          "time": 449.99954999999255,
          "velocity": 0.7874015748031497,
          "duration": 0.026785687500023414
        },
        {
          "name": "D1",
          "midi": 26,
          "time": 449.99954999999255,
          "velocity": 0.7874015748031497,
          "duration": 0.026785687500023414
        },
        {
          "name": "C7",
          "midi": 96,
          "time": 450.4281209999926,
          "velocity": 0.7559055118110236,
          "duration": 0.10714274999997997
        },
        {
          "name": "C7",
          "midi": 96,
          "time": 450.64240649999255,
          "velocity": 0.7559055118110236,
          "duration": 0.10714274999997997
        },
        {
          "name": "D#7",
          "midi": 99,
          "time": 450.8566919999925,
          "velocity": 0.7559055118110236,
          "duration": 0.10714275000003681
        },
        {
          "name": "C1",
          "midi": 24,
          "time": 450.8566919999925,
          "velocity": 0.7874015748031497,
          "duration": 0.026785687500023414
        },
        {
          "name": "F#2",
          "midi": 42,
          "time": 450.8566919999925,
          "velocity": 0.7874015748031497,
          "duration": 0.026785687500023414
        },
        {
          "name": "C7",
          "midi": 96,
          "time": 451.0709774999925,
          "velocity": 0.7559055118110236,
          "duration": 0.10714274999997997
        },
        {
          "name": "C7",
          "midi": 96,
          "time": 451.2852629999925,
          "velocity": 0.7559055118110236,
          "duration": 0.10714274999997997
        },
        {
          "name": "C#7",
          "midi": 97,
          "time": 451.71383399999246,
          "velocity": 0.7559055118110236,
          "duration": 0.10714275000003681
        },
        {
          "name": "D#7",
          "midi": 99,
          "time": 451.71383399999246,
          "velocity": 0.7559055118110236,
          "duration": 0.10714275000003681
        },
        {
          "name": "C1",
          "midi": 24,
          "time": 451.71383399999246,
          "velocity": 0.7874015748031497,
          "duration": 0.026785687500023414
        },
        {
          "name": "F#2",
          "midi": 42,
          "time": 451.71383399999246,
          "velocity": 0.7874015748031497,
          "duration": 0.026785687500023414
        },
        {
          "name": "D1",
          "midi": 26,
          "time": 451.71383399999246,
          "velocity": 0.7874015748031497,
          "duration": 0.026785687500023414
        },
        {
          "name": "C7",
          "midi": 96,
          "time": 452.1424049999925,
          "velocity": 0.7559055118110236,
          "duration": 0.10714274999997997
        },
        {
          "name": "C7",
          "midi": 96,
          "time": 452.35669049999245,
          "velocity": 0.7559055118110236,
          "duration": 0.10714274999997997
        },
        {
          "name": "C7",
          "midi": 96,
          "time": 452.5709759999924,
          "velocity": 0.7559055118110236,
          "duration": 0.10714275000003681
        },
        {
          "name": "E7",
          "midi": 100,
          "time": 452.5709759999924,
          "velocity": 0.7559055118110236,
          "duration": 0.10714275000003681
        },
        {
          "name": "C1",
          "midi": 24,
          "time": 452.5709759999924,
          "velocity": 0.7874015748031497,
          "duration": 0.026785687500023414
        },
        {
          "name": "C2",
          "midi": 36,
          "time": 452.5709759999924,
          "velocity": 0.7874015748031497,
          "duration": 0.026785687500023414
        },
        {
          "name": "C7",
          "midi": 96,
          "time": 452.99954699999245,
          "velocity": 0.7559055118110236,
          "duration": 0.10714275000003681
        },
        {
          "name": "D7",
          "midi": 98,
          "time": 452.99954699999245,
          "velocity": 0.7559055118110236,
          "duration": 0.10714275000003681
        },
        {
          "name": "C1",
          "midi": 24,
          "time": 452.99954699999245,
          "velocity": 0.7874015748031497,
          "duration": 0.026785687500023414
        },
        {
          "name": "F#1",
          "midi": 30,
          "time": 452.99954699999245,
          "velocity": 0.7874015748031497,
          "duration": 0.026785687500023414
        },
        {
          "name": "C#7",
          "midi": 97,
          "time": 453.4281179999925,
          "velocity": 0.7559055118110236,
          "duration": 0.10714275000003681
        },
        {
          "name": "D7",
          "midi": 98,
          "time": 453.4281179999925,
          "velocity": 0.7559055118110236,
          "duration": 0.10714275000003681
        },
        {
          "name": "G1",
          "midi": 31,
          "time": 453.4281179999925,
          "velocity": 0.7874015748031497,
          "duration": 0.026785687500023414
        },
        {
          "name": "D1",
          "midi": 26,
          "time": 453.4281179999925,
          "velocity": 0.7874015748031497,
          "duration": 0.026785687500023414
        },
        {
          "name": "C7",
          "midi": 96,
          "time": 453.8566889999925,
          "velocity": 0.7559055118110236,
          "duration": 0.10714275000003681
        },
        {
          "name": "D7",
          "midi": 98,
          "time": 453.8566889999925,
          "velocity": 0.7559055118110236,
          "duration": 0.10714275000003681
        },
        {
          "name": "C1",
          "midi": 24,
          "time": 453.8566889999925,
          "velocity": 0.7874015748031497,
          "duration": 0.026785687500023414
        },
        {
          "name": "G1",
          "midi": 31,
          "time": 453.8566889999925,
          "velocity": 0.7874015748031497,
          "duration": 0.026785687500023414
        },
        {
          "name": "C7",
          "midi": 96,
          "time": 454.07097449999253,
          "velocity": 0.7559055118110236,
          "duration": 0.10714274999997997
        },
        {
          "name": "C7",
          "midi": 96,
          "time": 454.2852599999925,
          "velocity": 0.7559055118110236,
          "duration": 0.10714275000003681
        },
        {
          "name": "D7",
          "midi": 98,
          "time": 454.2852599999925,
          "velocity": 0.7559055118110236,
          "duration": 0.10714275000003681
        },
        {
          "name": "C1",
          "midi": 24,
          "time": 454.2852599999925,
          "velocity": 0.7874015748031497,
          "duration": 0.026785687500023414
        },
        {
          "name": "F#1",
          "midi": 30,
          "time": 454.2852599999925,
          "velocity": 0.7874015748031497,
          "duration": 0.026785687500023414
        },
        {
          "name": "C7",
          "midi": 96,
          "time": 454.4995454999925,
          "velocity": 0.7559055118110236,
          "duration": 0.10714274999997997
        },
        {
          "name": "C7",
          "midi": 96,
          "time": 454.71383099999247,
          "velocity": 0.7559055118110236,
          "duration": 0.10714275000003681
        },
        {
          "name": "D7",
          "midi": 98,
          "time": 454.71383099999247,
          "velocity": 0.7559055118110236,
          "duration": 0.10714275000003681
        },
        {
          "name": "C1",
          "midi": 24,
          "time": 454.71383099999247,
          "velocity": 0.7874015748031497,
          "duration": 0.026785687500023414
        },
        {
          "name": "G1",
          "midi": 31,
          "time": 454.71383099999247,
          "velocity": 0.7874015748031497,
          "duration": 0.026785687500023414
        },
        {
          "name": "C#7",
          "midi": 97,
          "time": 455.1424019999925,
          "velocity": 0.7559055118110236,
          "duration": 0.10714275000003681
        },
        {
          "name": "D7",
          "midi": 98,
          "time": 455.1424019999925,
          "velocity": 0.7559055118110236,
          "duration": 0.10714275000003681
        },
        {
          "name": "G1",
          "midi": 31,
          "time": 455.1424019999925,
          "velocity": 0.7874015748031497,
          "duration": 0.026785687500023414
        },
        {
          "name": "D1",
          "midi": 26,
          "time": 455.1424019999925,
          "velocity": 0.7874015748031497,
          "duration": 0.026785687500023414
        },
        {
          "name": "C7",
          "midi": 96,
          "time": 455.57097299999253,
          "velocity": 0.7559055118110236,
          "duration": 0.10714275000003681
        },
        {
          "name": "D7",
          "midi": 98,
          "time": 455.57097299999253,
          "velocity": 0.7559055118110236,
          "duration": 0.10714275000003681
        },
        {
          "name": "C1",
          "midi": 24,
          "time": 455.57097299999253,
          "velocity": 0.7874015748031497,
          "duration": 0.026785687500023414
        },
        {
          "name": "G1",
          "midi": 31,
          "time": 455.57097299999253,
          "velocity": 0.7874015748031497,
          "duration": 0.026785687500023414
        },
        {
          "name": "C7",
          "midi": 96,
          "time": 455.78525849999255,
          "velocity": 0.7559055118110236,
          "duration": 0.10714274999997997
        },
        {
          "name": "C7",
          "midi": 96,
          "time": 455.9995439999925,
          "velocity": 0.7559055118110236,
          "duration": 0.10714275000003681
        },
        {
          "name": "D7",
          "midi": 98,
          "time": 455.9995439999925,
          "velocity": 0.7559055118110236,
          "duration": 0.10714275000003681
        },
        {
          "name": "C1",
          "midi": 24,
          "time": 455.9995439999925,
          "velocity": 0.7874015748031497,
          "duration": 0.026785687500023414
        },
        {
          "name": "F#1",
          "midi": 30,
          "time": 455.9995439999925,
          "velocity": 0.7874015748031497,
          "duration": 0.026785687500023414
        },
        {
          "name": "C7",
          "midi": 96,
          "time": 456.42811499999254,
          "velocity": 0.7559055118110236,
          "duration": 0.10714275000003681
        },
        {
          "name": "D7",
          "midi": 98,
          "time": 456.42811499999254,
          "velocity": 0.7559055118110236,
          "duration": 0.10714275000003681
        },
        {
          "name": "C1",
          "midi": 24,
          "time": 456.42811499999254,
          "velocity": 0.7874015748031497,
          "duration": 0.026785687500023414
        },
        {
          "name": "G1",
          "midi": 31,
          "time": 456.42811499999254,
          "velocity": 0.7874015748031497,
          "duration": 0.026785687500023414
        },
        {
          "name": "C#7",
          "midi": 97,
          "time": 456.8566859999926,
          "velocity": 0.7559055118110236,
          "duration": 0.10714275000003681
        },
        {
          "name": "D7",
          "midi": 98,
          "time": 456.8566859999926,
          "velocity": 0.7559055118110236,
          "duration": 0.10714275000003681
        },
        {
          "name": "G1",
          "midi": 31,
          "time": 456.8566859999926,
          "velocity": 0.7874015748031497,
          "duration": 0.026785687500023414
        },
        {
          "name": "D1",
          "midi": 26,
          "time": 456.8566859999926,
          "velocity": 0.7874015748031497,
          "duration": 0.026785687500023414
        },
        {
          "name": "C7",
          "midi": 96,
          "time": 457.2852569999926,
          "velocity": 0.7559055118110236,
          "duration": 0.10714275000003681
        },
        {
          "name": "D7",
          "midi": 98,
          "time": 457.2852569999926,
          "velocity": 0.7559055118110236,
          "duration": 0.10714275000003681
        },
        {
          "name": "C1",
          "midi": 24,
          "time": 457.2852569999926,
          "velocity": 0.7874015748031497,
          "duration": 0.026785687500023414
        },
        {
          "name": "G1",
          "midi": 31,
          "time": 457.2852569999926,
          "velocity": 0.7874015748031497,
          "duration": 0.026785687500023414
        },
        {
          "name": "C7",
          "midi": 96,
          "time": 457.49954249999263,
          "velocity": 0.7559055118110236,
          "duration": 0.10714274999997997
        },
        {
          "name": "C7",
          "midi": 96,
          "time": 457.7138279999926,
          "velocity": 0.7559055118110236,
          "duration": 0.10714275000003681
        },
        {
          "name": "D7",
          "midi": 98,
          "time": 457.7138279999926,
          "velocity": 0.7559055118110236,
          "duration": 0.10714275000003681
        },
        {
          "name": "C1",
          "midi": 24,
          "time": 457.7138279999926,
          "velocity": 0.7874015748031497,
          "duration": 0.026785687500023414
        },
        {
          "name": "F#1",
          "midi": 30,
          "time": 457.7138279999926,
          "velocity": 0.7874015748031497,
          "duration": 0.026785687500023414
        },
        {
          "name": "C7",
          "midi": 96,
          "time": 457.9281134999926,
          "velocity": 0.7559055118110236,
          "duration": 0.10714274999997997
        },
        {
          "name": "C7",
          "midi": 96,
          "time": 458.14239899999257,
          "velocity": 0.7559055118110236,
          "duration": 0.10714275000003681
        },
        {
          "name": "D7",
          "midi": 98,
          "time": 458.14239899999257,
          "velocity": 0.7559055118110236,
          "duration": 0.10714275000003681
        },
        {
          "name": "C1",
          "midi": 24,
          "time": 458.14239899999257,
          "velocity": 0.7874015748031497,
          "duration": 0.026785687500023414
        },
        {
          "name": "G1",
          "midi": 31,
          "time": 458.14239899999257,
          "velocity": 0.7874015748031497,
          "duration": 0.026785687500023414
        },
        {
          "name": "C#7",
          "midi": 97,
          "time": 458.5709699999926,
          "velocity": 0.7559055118110236,
          "duration": 0.10714275000003681
        },
        {
          "name": "D7",
          "midi": 98,
          "time": 458.5709699999926,
          "velocity": 0.7559055118110236,
          "duration": 0.10714275000003681
        },
        {
          "name": "G1",
          "midi": 31,
          "time": 458.5709699999926,
          "velocity": 0.7874015748031497,
          "duration": 0.026785687500023414
        },
        {
          "name": "D1",
          "midi": 26,
          "time": 458.5709699999926,
          "velocity": 0.7874015748031497,
          "duration": 0.026785687500023414
        },
        {
          "name": "D7",
          "midi": 98,
          "time": 458.99954099999263,
          "velocity": 0.7559055118110236,
          "duration": 0.10714275000003681
        },
        {
          "name": "G1",
          "midi": 31,
          "time": 458.99954099999263,
          "velocity": 0.7874015748031497,
          "duration": 0.026785687500023414
        },
        {
          "name": "C7",
          "midi": 96,
          "time": 459.42811199999267,
          "velocity": 0.7559055118110236,
          "duration": 0.10714275000003681
        },
        {
          "name": "D7",
          "midi": 98,
          "time": 459.42811199999267,
          "velocity": 0.7559055118110236,
          "duration": 0.10714275000003681
        },
        {
          "name": "C1",
          "midi": 24,
          "time": 459.42811199999267,
          "velocity": 0.7874015748031497,
          "duration": 0.026785687500023414
        },
        {
          "name": "F#1",
          "midi": 30,
          "time": 459.42811199999267,
          "velocity": 0.7874015748031497,
          "duration": 0.026785687500023414
        },
        {
          "name": "C7",
          "midi": 96,
          "time": 459.8566829999927,
          "velocity": 0.7559055118110236,
          "duration": 0.10714275000003681
        },
        {
          "name": "D7",
          "midi": 98,
          "time": 459.8566829999927,
          "velocity": 0.7559055118110236,
          "duration": 0.10714275000003681
        },
        {
          "name": "C1",
          "midi": 24,
          "time": 459.8566829999927,
          "velocity": 0.7874015748031497,
          "duration": 0.026785687500023414
        },
        {
          "name": "G1",
          "midi": 31,
          "time": 459.8566829999927,
          "velocity": 0.7874015748031497,
          "duration": 0.026785687500023414
        },
        {
          "name": "C#7",
          "midi": 97,
          "time": 460.28525399999273,
          "velocity": 0.7559055118110236,
          "duration": 0.10714275000003681
        },
        {
          "name": "D7",
          "midi": 98,
          "time": 460.28525399999273,
          "velocity": 0.7559055118110236,
          "duration": 0.10714275000003681
        },
        {
          "name": "G1",
          "midi": 31,
          "time": 460.28525399999273,
          "velocity": 0.7874015748031497,
          "duration": 0.026785687500023414
        },
        {
          "name": "D1",
          "midi": 26,
          "time": 460.28525399999273,
          "velocity": 0.7874015748031497,
          "duration": 0.026785687500023414
        },
        {
          "name": "C7",
          "midi": 96,
          "time": 460.71382499999277,
          "velocity": 0.7559055118110236,
          "duration": 0.10714275000003681
        },
        {
          "name": "D7",
          "midi": 98,
          "time": 460.71382499999277,
          "velocity": 0.7559055118110236,
          "duration": 0.10714275000003681
        },
        {
          "name": "C1",
          "midi": 24,
          "time": 460.71382499999277,
          "velocity": 0.7874015748031497,
          "duration": 0.026785687500023414
        },
        {
          "name": "G1",
          "midi": 31,
          "time": 460.71382499999277,
          "velocity": 0.7874015748031497,
          "duration": 0.026785687500023414
        },
        {
          "name": "C7",
          "midi": 96,
          "time": 460.9281104999928,
          "velocity": 0.7559055118110236,
          "duration": 0.10714274999997997
        },
        {
          "name": "C7",
          "midi": 96,
          "time": 461.14239599999274,
          "velocity": 0.7559055118110236,
          "duration": 0.10714275000003681
        },
        {
          "name": "D7",
          "midi": 98,
          "time": 461.14239599999274,
          "velocity": 0.7559055118110236,
          "duration": 0.10714275000003681
        },
        {
          "name": "C1",
          "midi": 24,
          "time": 461.14239599999274,
          "velocity": 0.7874015748031497,
          "duration": 0.026785687500023414
        },
        {
          "name": "F#1",
          "midi": 30,
          "time": 461.14239599999274,
          "velocity": 0.7874015748031497,
          "duration": 0.026785687500023414
        },
        {
          "name": "C7",
          "midi": 96,
          "time": 461.35668149999276,
          "velocity": 0.7559055118110236,
          "duration": 0.10714274999997997
        },
        {
          "name": "C7",
          "midi": 96,
          "time": 461.5709669999927,
          "velocity": 0.7559055118110236,
          "duration": 0.10714275000003681
        },
        {
          "name": "D7",
          "midi": 98,
          "time": 461.5709669999927,
          "velocity": 0.7559055118110236,
          "duration": 0.10714275000003681
        },
        {
          "name": "C1",
          "midi": 24,
          "time": 461.5709669999927,
          "velocity": 0.7874015748031497,
          "duration": 0.026785687500023414
        },
        {
          "name": "G1",
          "midi": 31,
          "time": 461.5709669999927,
          "velocity": 0.7874015748031497,
          "duration": 0.026785687500023414
        },
        {
          "name": "C#7",
          "midi": 97,
          "time": 461.99953799999275,
          "velocity": 0.7559055118110236,
          "duration": 0.10714275000003681
        },
        {
          "name": "D7",
          "midi": 98,
          "time": 461.99953799999275,
          "velocity": 0.7559055118110236,
          "duration": 0.10714275000003681
        },
        {
          "name": "G1",
          "midi": 31,
          "time": 461.99953799999275,
          "velocity": 0.7874015748031497,
          "duration": 0.026785687500023414
        },
        {
          "name": "D1",
          "midi": 26,
          "time": 461.99953799999275,
          "velocity": 0.7874015748031497,
          "duration": 0.026785687500023414
        },
        {
          "name": "C7",
          "midi": 96,
          "time": 462.4281089999928,
          "velocity": 0.7559055118110236,
          "duration": 0.10714275000003681
        },
        {
          "name": "D7",
          "midi": 98,
          "time": 462.4281089999928,
          "velocity": 0.7559055118110236,
          "duration": 0.10714275000003681
        },
        {
          "name": "C1",
          "midi": 24,
          "time": 462.4281089999928,
          "velocity": 0.7874015748031497,
          "duration": 0.026785687500023414
        },
        {
          "name": "G1",
          "midi": 31,
          "time": 462.4281089999928,
          "velocity": 0.7874015748031497,
          "duration": 0.026785687500023414
        },
        {
          "name": "C7",
          "midi": 96,
          "time": 462.6423944999928,
          "velocity": 0.7559055118110236,
          "duration": 0.10714274999997997
        },
        {
          "name": "C7",
          "midi": 96,
          "time": 462.85667999999276,
          "velocity": 0.7559055118110236,
          "duration": 0.10714275000003681
        },
        {
          "name": "D7",
          "midi": 98,
          "time": 462.85667999999276,
          "velocity": 0.7559055118110236,
          "duration": 0.10714275000003681
        },
        {
          "name": "C1",
          "midi": 24,
          "time": 462.85667999999276,
          "velocity": 0.7874015748031497,
          "duration": 0.026785687500023414
        },
        {
          "name": "F#1",
          "midi": 30,
          "time": 462.85667999999276,
          "velocity": 0.7874015748031497,
          "duration": 0.026785687500023414
        },
        {
          "name": "C7",
          "midi": 96,
          "time": 463.2852509999928,
          "velocity": 0.7559055118110236,
          "duration": 0.10714275000003681
        },
        {
          "name": "D7",
          "midi": 98,
          "time": 463.2852509999928,
          "velocity": 0.7559055118110236,
          "duration": 0.10714275000003681
        },
        {
          "name": "C1",
          "midi": 24,
          "time": 463.2852509999928,
          "velocity": 0.7874015748031497,
          "duration": 0.026785687500023414
        },
        {
          "name": "G1",
          "midi": 31,
          "time": 463.2852509999928,
          "velocity": 0.7874015748031497,
          "duration": 0.026785687500023414
        },
        {
          "name": "C#7",
          "midi": 97,
          "time": 463.71382199999283,
          "velocity": 0.7559055118110236,
          "duration": 0.10714275000003681
        },
        {
          "name": "D7",
          "midi": 98,
          "time": 463.71382199999283,
          "velocity": 0.7559055118110236,
          "duration": 0.10714275000003681
        },
        {
          "name": "G1",
          "midi": 31,
          "time": 463.71382199999283,
          "velocity": 0.7874015748031497,
          "duration": 0.026785687500023414
        },
        {
          "name": "D1",
          "midi": 26,
          "time": 463.71382199999283,
          "velocity": 0.7874015748031497,
          "duration": 0.026785687500023414
        },
        {
          "name": "C7",
          "midi": 96,
          "time": 464.14239299999286,
          "velocity": 0.7559055118110236,
          "duration": 0.10714275000003681
        },
        {
          "name": "D7",
          "midi": 98,
          "time": 464.14239299999286,
          "velocity": 0.7559055118110236,
          "duration": 0.10714275000003681
        },
        {
          "name": "C1",
          "midi": 24,
          "time": 464.14239299999286,
          "velocity": 0.7874015748031497,
          "duration": 0.026785687500023414
        },
        {
          "name": "G1",
          "midi": 31,
          "time": 464.14239299999286,
          "velocity": 0.7874015748031497,
          "duration": 0.026785687500023414
        },
        {
          "name": "C7",
          "midi": 96,
          "time": 464.3566784999929,
          "velocity": 0.7559055118110236,
          "duration": 0.10714274999997997
        },
        {
          "name": "C7",
          "midi": 96,
          "time": 464.57096399999284,
          "velocity": 0.7559055118110236,
          "duration": 0.10714275000003681
        },
        {
          "name": "D7",
          "midi": 98,
          "time": 464.57096399999284,
          "velocity": 0.7559055118110236,
          "duration": 0.10714275000003681
        },
        {
          "name": "C1",
          "midi": 24,
          "time": 464.57096399999284,
          "velocity": 0.7874015748031497,
          "duration": 0.026785687500023414
        },
        {
          "name": "F#1",
          "midi": 30,
          "time": 464.57096399999284,
          "velocity": 0.7874015748031497,
          "duration": 0.026785687500023414
        },
        {
          "name": "C7",
          "midi": 96,
          "time": 464.78524949999286,
          "velocity": 0.7559055118110236,
          "duration": 0.10714274999997997
        },
        {
          "name": "C7",
          "midi": 96,
          "time": 464.9995349999928,
          "velocity": 0.7559055118110236,
          "duration": 0.10714275000003681
        },
        {
          "name": "D7",
          "midi": 98,
          "time": 464.9995349999928,
          "velocity": 0.7559055118110236,
          "duration": 0.10714275000003681
        },
        {
          "name": "C1",
          "midi": 24,
          "time": 464.9995349999928,
          "velocity": 0.7874015748031497,
          "duration": 0.026785687500023414
        },
        {
          "name": "G1",
          "midi": 31,
          "time": 464.9995349999928,
          "velocity": 0.7874015748031497,
          "duration": 0.026785687500023414
        },
        {
          "name": "C#7",
          "midi": 97,
          "time": 465.42810599999285,
          "velocity": 0.7559055118110236,
          "duration": 0.10714275000003681
        },
        {
          "name": "D7",
          "midi": 98,
          "time": 465.42810599999285,
          "velocity": 0.7559055118110236,
          "duration": 0.10714275000003681
        },
        {
          "name": "G1",
          "midi": 31,
          "time": 465.42810599999285,
          "velocity": 0.7874015748031497,
          "duration": 0.026785687500023414
        },
        {
          "name": "D1",
          "midi": 26,
          "time": 465.42810599999285,
          "velocity": 0.7874015748031497,
          "duration": 0.026785687500023414
        },
        {
          "name": "D7",
          "midi": 98,
          "time": 465.8566769999929,
          "velocity": 0.7559055118110236,
          "duration": 0.10714275000003681
        },
        {
          "name": "G1",
          "midi": 31,
          "time": 465.8566769999929,
          "velocity": 0.7874015748031497,
          "duration": 0.026785687500023414
        },
        {
          "name": "C7",
          "midi": 96,
          "time": 466.2852479999929,
          "velocity": 0.7559055118110236,
          "duration": 0.10714275000003681
        },
        {
          "name": "D7",
          "midi": 98,
          "time": 466.2852479999929,
          "velocity": 0.7559055118110236,
          "duration": 0.10714275000003681
        },
        {
          "name": "C1",
          "midi": 24,
          "time": 466.2852479999929,
          "velocity": 0.7874015748031497,
          "duration": 0.026785687500023414
        },
        {
          "name": "F#1",
          "midi": 30,
          "time": 466.2852479999929,
          "velocity": 0.7874015748031497,
          "duration": 0.026785687500023414
        },
        {
          "name": "C7",
          "midi": 96,
          "time": 466.71381899999295,
          "velocity": 0.7559055118110236,
          "duration": 0.10714275000003681
        },
        {
          "name": "D7",
          "midi": 98,
          "time": 466.71381899999295,
          "velocity": 0.7559055118110236,
          "duration": 0.10714275000003681
        },
        {
          "name": "C1",
          "midi": 24,
          "time": 466.71381899999295,
          "velocity": 0.7874015748031497,
          "duration": 0.026785687500023414
        },
        {
          "name": "G1",
          "midi": 31,
          "time": 466.71381899999295,
          "velocity": 0.7874015748031497,
          "duration": 0.026785687500023414
        },
        {
          "name": "C#7",
          "midi": 97,
          "time": 467.142389999993,
          "velocity": 0.7559055118110236,
          "duration": 0.10714275000003681
        },
        {
          "name": "D7",
          "midi": 98,
          "time": 467.142389999993,
          "velocity": 0.7559055118110236,
          "duration": 0.10714275000003681
        },
        {
          "name": "G1",
          "midi": 31,
          "time": 467.142389999993,
          "velocity": 0.7874015748031497,
          "duration": 0.026785687500023414
        },
        {
          "name": "D1",
          "midi": 26,
          "time": 467.142389999993,
          "velocity": 0.7874015748031497,
          "duration": 0.026785687500023414
        },
        {
          "name": "C7",
          "midi": 96,
          "time": 467.570960999993,
          "velocity": 0.7559055118110236,
          "duration": 0.10714275000003681
        },
        {
          "name": "D7",
          "midi": 98,
          "time": 467.570960999993,
          "velocity": 0.7559055118110236,
          "duration": 0.10714275000003681
        },
        {
          "name": "C1",
          "midi": 24,
          "time": 467.570960999993,
          "velocity": 0.7874015748031497,
          "duration": 0.026785687500023414
        },
        {
          "name": "G1",
          "midi": 31,
          "time": 467.570960999993,
          "velocity": 0.7874015748031497,
          "duration": 0.026785687500023414
        },
        {
          "name": "C7",
          "midi": 96,
          "time": 467.78524649999304,
          "velocity": 0.7559055118110236,
          "duration": 0.10714274999997997
        },
        {
          "name": "C7",
          "midi": 96,
          "time": 467.999531999993,
          "velocity": 0.7559055118110236,
          "duration": 0.10714275000003681
        },
        {
          "name": "D7",
          "midi": 98,
          "time": 467.999531999993,
          "velocity": 0.7559055118110236,
          "duration": 0.10714275000003681
        },
        {
          "name": "C1",
          "midi": 24,
          "time": 467.999531999993,
          "velocity": 0.7874015748031497,
          "duration": 0.026785687500023414
        },
        {
          "name": "F#1",
          "midi": 30,
          "time": 467.999531999993,
          "velocity": 0.7874015748031497,
          "duration": 0.026785687500023414
        },
        {
          "name": "C7",
          "midi": 96,
          "time": 468.213817499993,
          "velocity": 0.7559055118110236,
          "duration": 0.10714274999997997
        },
        {
          "name": "C7",
          "midi": 96,
          "time": 468.428102999993,
          "velocity": 0.7559055118110236,
          "duration": 0.10714275000003681
        },
        {
          "name": "D7",
          "midi": 98,
          "time": 468.428102999993,
          "velocity": 0.7559055118110236,
          "duration": 0.10714275000003681
        },
        {
          "name": "C1",
          "midi": 24,
          "time": 468.428102999993,
          "velocity": 0.7874015748031497,
          "duration": 0.026785687500023414
        },
        {
          "name": "G1",
          "midi": 31,
          "time": 468.428102999993,
          "velocity": 0.7874015748031497,
          "duration": 0.026785687500023414
        },
        {
          "name": "C#7",
          "midi": 97,
          "time": 468.856673999993,
          "velocity": 0.7559055118110236,
          "duration": 0.10714275000003681
        },
        {
          "name": "D7",
          "midi": 98,
          "time": 468.856673999993,
          "velocity": 0.7559055118110236,
          "duration": 0.10714275000003681
        },
        {
          "name": "G1",
          "midi": 31,
          "time": 468.856673999993,
          "velocity": 0.7874015748031497,
          "duration": 0.026785687500023414
        },
        {
          "name": "D1",
          "midi": 26,
          "time": 468.856673999993,
          "velocity": 0.7874015748031497,
          "duration": 0.026785687500023414
        },
        {
          "name": "C7",
          "midi": 96,
          "time": 469.28524499999304,
          "velocity": 0.7559055118110236,
          "duration": 0.10714275000003681
        },
        {
          "name": "D7",
          "midi": 98,
          "time": 469.28524499999304,
          "velocity": 0.7559055118110236,
          "duration": 0.10714275000003681
        },
        {
          "name": "C1",
          "midi": 24,
          "time": 469.28524499999304,
          "velocity": 0.7874015748031497,
          "duration": 0.026785687500023414
        },
        {
          "name": "G1",
          "midi": 31,
          "time": 469.28524499999304,
          "velocity": 0.7874015748031497,
          "duration": 0.026785687500023414
        },
        {
          "name": "C7",
          "midi": 96,
          "time": 469.49953049999306,
          "velocity": 0.7559055118110236,
          "duration": 0.10714274999997997
        },
        {
          "name": "C7",
          "midi": 96,
          "time": 469.713815999993,
          "velocity": 0.7559055118110236,
          "duration": 0.10714275000003681
        },
        {
          "name": "D7",
          "midi": 98,
          "time": 469.713815999993,
          "velocity": 0.7559055118110236,
          "duration": 0.10714275000003681
        },
        {
          "name": "C1",
          "midi": 24,
          "time": 469.713815999993,
          "velocity": 0.7874015748031497,
          "duration": 0.026785687500023414
        },
        {
          "name": "F#1",
          "midi": 30,
          "time": 469.713815999993,
          "velocity": 0.7874015748031497,
          "duration": 0.026785687500023414
        },
        {
          "name": "C7",
          "midi": 96,
          "time": 470.14238699999305,
          "velocity": 0.7559055118110236,
          "duration": 0.10714275000003681
        },
        {
          "name": "D7",
          "midi": 98,
          "time": 470.14238699999305,
          "velocity": 0.7559055118110236,
          "duration": 0.10714275000003681
        },
        {
          "name": "C1",
          "midi": 24,
          "time": 470.14238699999305,
          "velocity": 0.7874015748031497,
          "duration": 0.026785687500023414
        },
        {
          "name": "G1",
          "midi": 31,
          "time": 470.14238699999305,
          "velocity": 0.7874015748031497,
          "duration": 0.026785687500023414
        },
        {
          "name": "C#7",
          "midi": 97,
          "time": 470.5709579999931,
          "velocity": 0.7559055118110236,
          "duration": 0.10714275000003681
        },
        {
          "name": "D7",
          "midi": 98,
          "time": 470.5709579999931,
          "velocity": 0.7559055118110236,
          "duration": 0.10714275000003681
        },
        {
          "name": "G1",
          "midi": 31,
          "time": 470.5709579999931,
          "velocity": 0.7874015748031497,
          "duration": 0.026785687500023414
        },
        {
          "name": "D1",
          "midi": 26,
          "time": 470.5709579999931,
          "velocity": 0.7874015748031497,
          "duration": 0.026785687500023414
        },
        {
          "name": "C7",
          "midi": 96,
          "time": 470.9995289999931,
          "velocity": 0.7559055118110236,
          "duration": 0.10714275000003681
        },
        {
          "name": "D7",
          "midi": 98,
          "time": 470.9995289999931,
          "velocity": 0.7559055118110236,
          "duration": 0.10714275000003681
        },
        {
          "name": "C1",
          "midi": 24,
          "time": 470.9995289999931,
          "velocity": 0.7874015748031497,
          "duration": 0.026785687500023414
        },
        {
          "name": "G1",
          "midi": 31,
          "time": 470.9995289999931,
          "velocity": 0.7874015748031497,
          "duration": 0.026785687500023414
        },
        {
          "name": "C7",
          "midi": 96,
          "time": 471.21381449999313,
          "velocity": 0.7559055118110236,
          "duration": 0.10714274999997997
        },
        {
          "name": "C7",
          "midi": 96,
          "time": 471.4280999999931,
          "velocity": 0.7559055118110236,
          "duration": 0.10714275000003681
        },
        {
          "name": "D7",
          "midi": 98,
          "time": 471.4280999999931,
          "velocity": 0.7559055118110236,
          "duration": 0.10714275000003681
        },
        {
          "name": "C1",
          "midi": 24,
          "time": 471.4280999999931,
          "velocity": 0.7874015748031497,
          "duration": 0.026785687500023414
        },
        {
          "name": "F#1",
          "midi": 30,
          "time": 471.4280999999931,
          "velocity": 0.7874015748031497,
          "duration": 0.026785687500023414
        },
        {
          "name": "C7",
          "midi": 96,
          "time": 471.6423854999931,
          "velocity": 0.7559055118110236,
          "duration": 0.10714274999997997
        },
        {
          "name": "C7",
          "midi": 96,
          "time": 471.85667099999307,
          "velocity": 0.7559055118110236,
          "duration": 0.10714275000003681
        },
        {
          "name": "D7",
          "midi": 98,
          "time": 471.85667099999307,
          "velocity": 0.7559055118110236,
          "duration": 0.10714275000003681
        },
        {
          "name": "C1",
          "midi": 24,
          "time": 471.85667099999307,
          "velocity": 0.7874015748031497,
          "duration": 0.026785687500023414
        },
        {
          "name": "G1",
          "midi": 31,
          "time": 471.85667099999307,
          "velocity": 0.7874015748031497,
          "duration": 0.026785687500023414
        },
        {
          "name": "C#7",
          "midi": 97,
          "time": 472.2852419999931,
          "velocity": 0.7559055118110236,
          "duration": 0.10714275000003681
        },
        {
          "name": "D7",
          "midi": 98,
          "time": 472.2852419999931,
          "velocity": 0.7559055118110236,
          "duration": 0.10714275000003681
        },
        {
          "name": "G1",
          "midi": 31,
          "time": 472.2852419999931,
          "velocity": 0.7874015748031497,
          "duration": 0.026785687500023414
        },
        {
          "name": "D1",
          "midi": 26,
          "time": 472.2852419999931,
          "velocity": 0.7874015748031497,
          "duration": 0.026785687500023414
        },
        {
          "name": "D7",
          "midi": 98,
          "time": 472.71381299999314,
          "velocity": 0.7559055118110236,
          "duration": 0.10714275000003681
        },
        {
          "name": "G1",
          "midi": 31,
          "time": 472.71381299999314,
          "velocity": 0.7874015748031497,
          "duration": 0.026785687500023414
        },
        {
          "name": "C7",
          "midi": 96,
          "time": 473.14238399999317,
          "velocity": 0.7559055118110236,
          "duration": 0.10714275000003681
        },
        {
          "name": "D7",
          "midi": 98,
          "time": 473.14238399999317,
          "velocity": 0.7559055118110236,
          "duration": 0.10714275000003681
        },
        {
          "name": "C1",
          "midi": 24,
          "time": 473.14238399999317,
          "velocity": 0.7874015748031497,
          "duration": 0.026785687500023414
        },
        {
          "name": "F#1",
          "midi": 30,
          "time": 473.14238399999317,
          "velocity": 0.7874015748031497,
          "duration": 0.026785687500023414
        },
        {
          "name": "C7",
          "midi": 96,
          "time": 473.5709549999932,
          "velocity": 0.7559055118110236,
          "duration": 0.10714275000003681
        },
        {
          "name": "D7",
          "midi": 98,
          "time": 473.5709549999932,
          "velocity": 0.7559055118110236,
          "duration": 0.10714275000003681
        },
        {
          "name": "C1",
          "midi": 24,
          "time": 473.5709549999932,
          "velocity": 0.7874015748031497,
          "duration": 0.026785687500023414
        },
        {
          "name": "G1",
          "midi": 31,
          "time": 473.5709549999932,
          "velocity": 0.7874015748031497,
          "duration": 0.026785687500023414
        },
        {
          "name": "C#7",
          "midi": 97,
          "time": 473.99952599999324,
          "velocity": 0.7559055118110236,
          "duration": 0.10714275000003681
        },
        {
          "name": "D7",
          "midi": 98,
          "time": 473.99952599999324,
          "velocity": 0.7559055118110236,
          "duration": 0.10714275000003681
        },
        {
          "name": "G1",
          "midi": 31,
          "time": 473.99952599999324,
          "velocity": 0.7874015748031497,
          "duration": 0.026785687500023414
        },
        {
          "name": "D1",
          "midi": 26,
          "time": 473.99952599999324,
          "velocity": 0.7874015748031497,
          "duration": 0.026785687500023414
        },
        {
          "name": "C7",
          "midi": 96,
          "time": 474.4280969999933,
          "velocity": 0.7559055118110236,
          "duration": 0.10714275000003681
        },
        {
          "name": "D7",
          "midi": 98,
          "time": 474.4280969999933,
          "velocity": 0.7559055118110236,
          "duration": 0.10714275000003681
        },
        {
          "name": "C1",
          "midi": 24,
          "time": 474.4280969999933,
          "velocity": 0.7874015748031497,
          "duration": 0.026785687500023414
        },
        {
          "name": "G1",
          "midi": 31,
          "time": 474.4280969999933,
          "velocity": 0.7874015748031497,
          "duration": 0.026785687500023414
        },
        {
          "name": "C7",
          "midi": 96,
          "time": 474.6423824999933,
          "velocity": 0.7559055118110236,
          "duration": 0.10714274999997997
        },
        {
          "name": "C7",
          "midi": 96,
          "time": 474.85666799999325,
          "velocity": 0.7559055118110236,
          "duration": 0.10714275000003681
        },
        {
          "name": "D7",
          "midi": 98,
          "time": 474.85666799999325,
          "velocity": 0.7559055118110236,
          "duration": 0.10714275000003681
        },
        {
          "name": "C1",
          "midi": 24,
          "time": 474.85666799999325,
          "velocity": 0.7874015748031497,
          "duration": 0.026785687500023414
        },
        {
          "name": "F#1",
          "midi": 30,
          "time": 474.85666799999325,
          "velocity": 0.7874015748031497,
          "duration": 0.026785687500023414
        },
        {
          "name": "C7",
          "midi": 96,
          "time": 475.07095349999327,
          "velocity": 0.7559055118110236,
          "duration": 0.10714274999997997
        },
        {
          "name": "C7",
          "midi": 96,
          "time": 475.2852389999932,
          "velocity": 0.7559055118110236,
          "duration": 0.10714275000003681
        },
        {
          "name": "D7",
          "midi": 98,
          "time": 475.2852389999932,
          "velocity": 0.7559055118110236,
          "duration": 0.10714275000003681
        },
        {
          "name": "C1",
          "midi": 24,
          "time": 475.2852389999932,
          "velocity": 0.7874015748031497,
          "duration": 0.026785687500023414
        },
        {
          "name": "G1",
          "midi": 31,
          "time": 475.2852389999932,
          "velocity": 0.7874015748031497,
          "duration": 0.026785687500023414
        },
        {
          "name": "C#7",
          "midi": 97,
          "time": 475.71380999999326,
          "velocity": 0.7559055118110236,
          "duration": 0.10714275000003681
        },
        {
          "name": "D7",
          "midi": 98,
          "time": 475.71380999999326,
          "velocity": 0.7559055118110236,
          "duration": 0.10714275000003681
        },
        {
          "name": "G1",
          "midi": 31,
          "time": 475.71380999999326,
          "velocity": 0.7874015748031497,
          "duration": 0.026785687500023414
        },
        {
          "name": "D1",
          "midi": 26,
          "time": 475.71380999999326,
          "velocity": 0.7874015748031497,
          "duration": 0.026785687500023414
        },
        {
          "name": "C7",
          "midi": 96,
          "time": 476.1423809999933,
          "velocity": 0.7559055118110236,
          "duration": 0.10714275000003681
        },
        {
          "name": "D7",
          "midi": 98,
          "time": 476.1423809999933,
          "velocity": 0.7559055118110236,
          "duration": 0.10714275000003681
        },
        {
          "name": "C1",
          "midi": 24,
          "time": 476.1423809999933,
          "velocity": 0.7874015748031497,
          "duration": 0.026785687500023414
        },
        {
          "name": "G1",
          "midi": 31,
          "time": 476.1423809999933,
          "velocity": 0.7874015748031497,
          "duration": 0.026785687500023414
        },
        {
          "name": "C7",
          "midi": 96,
          "time": 476.3566664999933,
          "velocity": 0.7559055118110236,
          "duration": 0.10714274999997997
        },
        {
          "name": "C7",
          "midi": 96,
          "time": 476.57095199999327,
          "velocity": 0.7559055118110236,
          "duration": 0.10714275000003681
        },
        {
          "name": "D7",
          "midi": 98,
          "time": 476.57095199999327,
          "velocity": 0.7559055118110236,
          "duration": 0.10714275000003681
        },
        {
          "name": "C1",
          "midi": 24,
          "time": 476.57095199999327,
          "velocity": 0.7874015748031497,
          "duration": 0.026785687500023414
        },
        {
          "name": "F#1",
          "midi": 30,
          "time": 476.57095199999327,
          "velocity": 0.7874015748031497,
          "duration": 0.026785687500023414
        },
        {
          "name": "C7",
          "midi": 96,
          "time": 476.9995229999933,
          "velocity": 0.7559055118110236,
          "duration": 0.10714275000003681
        },
        {
          "name": "D7",
          "midi": 98,
          "time": 476.9995229999933,
          "velocity": 0.7559055118110236,
          "duration": 0.10714275000003681
        },
        {
          "name": "C1",
          "midi": 24,
          "time": 476.9995229999933,
          "velocity": 0.7874015748031497,
          "duration": 0.026785687500023414
        },
        {
          "name": "G1",
          "midi": 31,
          "time": 476.9995229999933,
          "velocity": 0.7874015748031497,
          "duration": 0.026785687500023414
        },
        {
          "name": "C#7",
          "midi": 97,
          "time": 477.42809399999334,
          "velocity": 0.7559055118110236,
          "duration": 0.10714275000003681
        },
        {
          "name": "D7",
          "midi": 98,
          "time": 477.42809399999334,
          "velocity": 0.7559055118110236,
          "duration": 0.10714275000003681
        },
        {
          "name": "G1",
          "midi": 31,
          "time": 477.42809399999334,
          "velocity": 0.7874015748031497,
          "duration": 0.026785687500023414
        },
        {
          "name": "D1",
          "midi": 26,
          "time": 477.42809399999334,
          "velocity": 0.7874015748031497,
          "duration": 0.026785687500023414
        },
        {
          "name": "C7",
          "midi": 96,
          "time": 477.85666499999337,
          "velocity": 0.7559055118110236,
          "duration": 0.10714275000003681
        },
        {
          "name": "D7",
          "midi": 98,
          "time": 477.85666499999337,
          "velocity": 0.7559055118110236,
          "duration": 0.10714275000003681
        },
        {
          "name": "C1",
          "midi": 24,
          "time": 477.85666499999337,
          "velocity": 0.7874015748031497,
          "duration": 0.026785687500023414
        },
        {
          "name": "G1",
          "midi": 31,
          "time": 477.85666499999337,
          "velocity": 0.7874015748031497,
          "duration": 0.026785687500023414
        },
        {
          "name": "C7",
          "midi": 96,
          "time": 478.0709504999934,
          "velocity": 0.7559055118110236,
          "duration": 0.10714274999997997
        },
        {
          "name": "C7",
          "midi": 96,
          "time": 478.28523599999335,
          "velocity": 0.7559055118110236,
          "duration": 0.10714275000003681
        },
        {
          "name": "D7",
          "midi": 98,
          "time": 478.28523599999335,
          "velocity": 0.7559055118110236,
          "duration": 0.10714275000003681
        },
        {
          "name": "C1",
          "midi": 24,
          "time": 478.28523599999335,
          "velocity": 0.7874015748031497,
          "duration": 0.026785687500023414
        },
        {
          "name": "F#1",
          "midi": 30,
          "time": 478.28523599999335,
          "velocity": 0.7874015748031497,
          "duration": 0.026785687500023414
        },
        {
          "name": "C7",
          "midi": 96,
          "time": 478.49952149999336,
          "velocity": 0.7559055118110236,
          "duration": 0.10714274999997997
        },
        {
          "name": "C7",
          "midi": 96,
          "time": 478.7138069999933,
          "velocity": 0.7559055118110236,
          "duration": 0.10714275000003681
        },
        {
          "name": "D7",
          "midi": 98,
          "time": 478.7138069999933,
          "velocity": 0.7559055118110236,
          "duration": 0.10714275000003681
        },
        {
          "name": "C1",
          "midi": 24,
          "time": 478.7138069999933,
          "velocity": 0.7874015748031497,
          "duration": 0.026785687500023414
        },
        {
          "name": "G1",
          "midi": 31,
          "time": 478.7138069999933,
          "velocity": 0.7874015748031497,
          "duration": 0.026785687500023414
        },
        {
          "name": "C#7",
          "midi": 97,
          "time": 479.14237799999336,
          "velocity": 0.7559055118110236,
          "duration": 0.10714275000003681
        },
        {
          "name": "D7",
          "midi": 98,
          "time": 479.14237799999336,
          "velocity": 0.7559055118110236,
          "duration": 0.10714275000003681
        },
        {
          "name": "G1",
          "midi": 31,
          "time": 479.14237799999336,
          "velocity": 0.7874015748031497,
          "duration": 0.026785687500023414
        },
        {
          "name": "D1",
          "midi": 26,
          "time": 479.14237799999336,
          "velocity": 0.7874015748031497,
          "duration": 0.026785687500023414
        },
        {
          "name": "D7",
          "midi": 98,
          "time": 479.5709489999934,
          "velocity": 0.7559055118110236,
          "duration": 0.10714275000003681
        },
        {
          "name": "G1",
          "midi": 31,
          "time": 479.5709489999934,
          "velocity": 0.7874015748031497,
          "duration": 0.026785687500023414
        },
        {
          "name": "C7",
          "midi": 96,
          "time": 479.9995199999934,
          "velocity": 0.7559055118110236,
          "duration": 0.10714275000003681
        },
        {
          "name": "D7",
          "midi": 98,
          "time": 479.9995199999934,
          "velocity": 0.7559055118110236,
          "duration": 0.10714275000003681
        },
        {
          "name": "C1",
          "midi": 24,
          "time": 479.9995199999934,
          "velocity": 0.7874015748031497,
          "duration": 0.026785687500023414
        },
        {
          "name": "F#1",
          "midi": 30,
          "time": 479.9995199999934,
          "velocity": 0.7874015748031497,
          "duration": 0.026785687500023414
        },
        {
          "name": "C7",
          "midi": 96,
          "time": 480.42809099999346,
          "velocity": 0.7559055118110236,
          "duration": 0.10714275000003681
        },
        {
          "name": "D7",
          "midi": 98,
          "time": 480.42809099999346,
          "velocity": 0.7559055118110236,
          "duration": 0.10714275000003681
        },
        {
          "name": "C1",
          "midi": 24,
          "time": 480.42809099999346,
          "velocity": 0.7874015748031497,
          "duration": 0.026785687500023414
        },
        {
          "name": "G1",
          "midi": 31,
          "time": 480.42809099999346,
          "velocity": 0.7874015748031497,
          "duration": 0.026785687500023414
        },
        {
          "name": "C#7",
          "midi": 97,
          "time": 480.8566619999935,
          "velocity": 0.7559055118110236,
          "duration": 0.10714275000003681
        },
        {
          "name": "D7",
          "midi": 98,
          "time": 480.8566619999935,
          "velocity": 0.7559055118110236,
          "duration": 0.10714275000003681
        },
        {
          "name": "G1",
          "midi": 31,
          "time": 480.8566619999935,
          "velocity": 0.7874015748031497,
          "duration": 0.026785687500023414
        },
        {
          "name": "D1",
          "midi": 26,
          "time": 480.8566619999935,
          "velocity": 0.7874015748031497,
          "duration": 0.026785687500023414
        },
        {
          "name": "C7",
          "midi": 96,
          "time": 481.2852329999935,
          "velocity": 0.7559055118110236,
          "duration": 0.10714275000003681
        },
        {
          "name": "D7",
          "midi": 98,
          "time": 481.2852329999935,
          "velocity": 0.7559055118110236,
          "duration": 0.10714275000003681
        },
        {
          "name": "C1",
          "midi": 24,
          "time": 481.2852329999935,
          "velocity": 0.7874015748031497,
          "duration": 0.026785687500023414
        },
        {
          "name": "G1",
          "midi": 31,
          "time": 481.2852329999935,
          "velocity": 0.7874015748031497,
          "duration": 0.026785687500023414
        },
        {
          "name": "C7",
          "midi": 96,
          "time": 481.49951849999354,
          "velocity": 0.7559055118110236,
          "duration": 0.10714274999997997
        },
        {
          "name": "C7",
          "midi": 96,
          "time": 481.7138039999935,
          "velocity": 0.7559055118110236,
          "duration": 0.10714275000003681
        },
        {
          "name": "D7",
          "midi": 98,
          "time": 481.7138039999935,
          "velocity": 0.7559055118110236,
          "duration": 0.10714275000003681
        },
        {
          "name": "C1",
          "midi": 24,
          "time": 481.7138039999935,
          "velocity": 0.7874015748031497,
          "duration": 0.026785687500023414
        },
        {
          "name": "F#1",
          "midi": 30,
          "time": 481.7138039999935,
          "velocity": 0.7874015748031497,
          "duration": 0.026785687500023414
        },
        {
          "name": "C7",
          "midi": 96,
          "time": 481.9280894999935,
          "velocity": 0.7559055118110236,
          "duration": 0.10714274999997997
        },
        {
          "name": "C7",
          "midi": 96,
          "time": 482.1423749999935,
          "velocity": 0.7559055118110236,
          "duration": 0.10714275000003681
        },
        {
          "name": "D7",
          "midi": 98,
          "time": 482.1423749999935,
          "velocity": 0.7559055118110236,
          "duration": 0.10714275000003681
        },
        {
          "name": "C1",
          "midi": 24,
          "time": 482.1423749999935,
          "velocity": 0.7874015748031497,
          "duration": 0.026785687500023414
        },
        {
          "name": "G1",
          "midi": 31,
          "time": 482.1423749999935,
          "velocity": 0.7874015748031497,
          "duration": 0.026785687500023414
        },
        {
          "name": "C#7",
          "midi": 97,
          "time": 482.5709459999935,
          "velocity": 0.7559055118110236,
          "duration": 0.10714275000003681
        },
        {
          "name": "D7",
          "midi": 98,
          "time": 482.5709459999935,
          "velocity": 0.7559055118110236,
          "duration": 0.10714275000003681
        },
        {
          "name": "G1",
          "midi": 31,
          "time": 482.5709459999935,
          "velocity": 0.7874015748031497,
          "duration": 0.026785687500023414
        },
        {
          "name": "D1",
          "midi": 26,
          "time": 482.5709459999935,
          "velocity": 0.7874015748031497,
          "duration": 0.026785687500023414
        },
        {
          "name": "C7",
          "midi": 96,
          "time": 482.99951699999355,
          "velocity": 0.7559055118110236,
          "duration": 0.10714275000003681
        },
        {
          "name": "D7",
          "midi": 98,
          "time": 482.99951699999355,
          "velocity": 0.7559055118110236,
          "duration": 0.10714275000003681
        },
        {
          "name": "C1",
          "midi": 24,
          "time": 482.99951699999355,
          "velocity": 0.7874015748031497,
          "duration": 0.026785687500023414
        },
        {
          "name": "G1",
          "midi": 31,
          "time": 482.99951699999355,
          "velocity": 0.7874015748031497,
          "duration": 0.026785687500023414
        },
        {
          "name": "C7",
          "midi": 96,
          "time": 483.21380249999356,
          "velocity": 0.7559055118110236,
          "duration": 0.10714274999997997
        },
        {
          "name": "C7",
          "midi": 96,
          "time": 483.4280879999935,
          "velocity": 0.7559055118110236,
          "duration": 0.10714275000003681
        },
        {
          "name": "D7",
          "midi": 98,
          "time": 483.4280879999935,
          "velocity": 0.7559055118110236,
          "duration": 0.10714275000003681
        },
        {
          "name": "C1",
          "midi": 24,
          "time": 483.4280879999935,
          "velocity": 0.7874015748031497,
          "duration": 0.026785687500023414
        },
        {
          "name": "F#1",
          "midi": 30,
          "time": 483.4280879999935,
          "velocity": 0.7874015748031497,
          "duration": 0.026785687500023414
        },
        {
          "name": "C7",
          "midi": 96,
          "time": 483.85665899999356,
          "velocity": 0.7559055118110236,
          "duration": 0.10714275000003681
        },
        {
          "name": "D7",
          "midi": 98,
          "time": 483.85665899999356,
          "velocity": 0.7559055118110236,
          "duration": 0.10714275000003681
        },
        {
          "name": "C1",
          "midi": 24,
          "time": 483.85665899999356,
          "velocity": 0.7874015748031497,
          "duration": 0.026785687500023414
        },
        {
          "name": "G1",
          "midi": 31,
          "time": 483.85665899999356,
          "velocity": 0.7874015748031497,
          "duration": 0.026785687500023414
        },
        {
          "name": "C#7",
          "midi": 97,
          "time": 484.2852299999936,
          "velocity": 0.7559055118110236,
          "duration": 0.10714275000003681
        },
        {
          "name": "D7",
          "midi": 98,
          "time": 484.2852299999936,
          "velocity": 0.7559055118110236,
          "duration": 0.10714275000003681
        },
        {
          "name": "G1",
          "midi": 31,
          "time": 484.2852299999936,
          "velocity": 0.7874015748031497,
          "duration": 0.026785687500023414
        },
        {
          "name": "D1",
          "midi": 26,
          "time": 484.2852299999936,
          "velocity": 0.7874015748031497,
          "duration": 0.026785687500023414
        },
        {
          "name": "C7",
          "midi": 96,
          "time": 484.7138009999936,
          "velocity": 0.7559055118110236,
          "duration": 0.10714275000003681
        },
        {
          "name": "D7",
          "midi": 98,
          "time": 484.7138009999936,
          "velocity": 0.7559055118110236,
          "duration": 0.10714275000003681
        },
        {
          "name": "C1",
          "midi": 24,
          "time": 484.7138009999936,
          "velocity": 0.7874015748031497,
          "duration": 0.026785687500023414
        },
        {
          "name": "G1",
          "midi": 31,
          "time": 484.7138009999936,
          "velocity": 0.7874015748031497,
          "duration": 0.026785687500023414
        },
        {
          "name": "C7",
          "midi": 96,
          "time": 484.92808649999364,
          "velocity": 0.7559055118110236,
          "duration": 0.10714274999997997
        },
        {
          "name": "C7",
          "midi": 96,
          "time": 485.1423719999936,
          "velocity": 0.7559055118110236,
          "duration": 0.10714275000003681
        },
        {
          "name": "D7",
          "midi": 98,
          "time": 485.1423719999936,
          "velocity": 0.7559055118110236,
          "duration": 0.10714275000003681
        },
        {
          "name": "C1",
          "midi": 24,
          "time": 485.1423719999936,
          "velocity": 0.7874015748031497,
          "duration": 0.026785687500023414
        },
        {
          "name": "F#1",
          "midi": 30,
          "time": 485.1423719999936,
          "velocity": 0.7874015748031497,
          "duration": 0.026785687500023414
        },
        {
          "name": "C7",
          "midi": 96,
          "time": 485.3566574999936,
          "velocity": 0.7559055118110236,
          "duration": 0.10714274999997997
        },
        {
          "name": "C7",
          "midi": 96,
          "time": 485.5709429999936,
          "velocity": 0.7559055118110236,
          "duration": 0.10714275000003681
        },
        {
          "name": "D7",
          "midi": 98,
          "time": 485.5709429999936,
          "velocity": 0.7559055118110236,
          "duration": 0.10714275000003681
        },
        {
          "name": "C1",
          "midi": 24,
          "time": 485.5709429999936,
          "velocity": 0.7874015748031497,
          "duration": 0.026785687500023414
        },
        {
          "name": "G1",
          "midi": 31,
          "time": 485.5709429999936,
          "velocity": 0.7874015748031497,
          "duration": 0.026785687500023414
        },
        {
          "name": "C#7",
          "midi": 97,
          "time": 485.9995139999936,
          "velocity": 0.7559055118110236,
          "duration": 0.10714275000003681
        },
        {
          "name": "D7",
          "midi": 98,
          "time": 485.9995139999936,
          "velocity": 0.7559055118110236,
          "duration": 0.10714275000003681
        },
        {
          "name": "G1",
          "midi": 31,
          "time": 485.9995139999936,
          "velocity": 0.7874015748031497,
          "duration": 0.026785687500023414
        },
        {
          "name": "D1",
          "midi": 26,
          "time": 485.9995139999936,
          "velocity": 0.7874015748031497,
          "duration": 0.026785687500023414
        },
        {
          "name": "D7",
          "midi": 98,
          "time": 486.42808499999364,
          "velocity": 0.7559055118110236,
          "duration": 0.10714275000003681
        },
        {
          "name": "G1",
          "midi": 31,
          "time": 486.42808499999364,
          "velocity": 0.7874015748031497,
          "duration": 0.026785687500023414
        },
        {
          "name": "C7",
          "midi": 96,
          "time": 486.8566559999937,
          "velocity": 0.7559055118110236,
          "duration": 0.10714275000003681
        },
        {
          "name": "D7",
          "midi": 98,
          "time": 486.8566559999937,
          "velocity": 0.7559055118110236,
          "duration": 0.10714275000003681
        },
        {
          "name": "C1",
          "midi": 24,
          "time": 486.8566559999937,
          "velocity": 0.7874015748031497,
          "duration": 0.026785687500023414
        },
        {
          "name": "F#1",
          "midi": 30,
          "time": 486.8566559999937,
          "velocity": 0.7874015748031497,
          "duration": 0.026785687500023414
        },
        {
          "name": "C7",
          "midi": 96,
          "time": 487.2852269999937,
          "velocity": 0.7559055118110236,
          "duration": 0.10714275000003681
        },
        {
          "name": "D7",
          "midi": 98,
          "time": 487.2852269999937,
          "velocity": 0.7559055118110236,
          "duration": 0.10714275000003681
        },
        {
          "name": "C1",
          "midi": 24,
          "time": 487.2852269999937,
          "velocity": 0.7874015748031497,
          "duration": 0.026785687500023414
        },
        {
          "name": "G1",
          "midi": 31,
          "time": 487.2852269999937,
          "velocity": 0.7874015748031497,
          "duration": 0.026785687500023414
        },
        {
          "name": "C#7",
          "midi": 97,
          "time": 487.71379799999374,
          "velocity": 0.7559055118110236,
          "duration": 0.10714275000003681
        },
        {
          "name": "D7",
          "midi": 98,
          "time": 487.71379799999374,
          "velocity": 0.7559055118110236,
          "duration": 0.10714275000003681
        },
        {
          "name": "G1",
          "midi": 31,
          "time": 487.71379799999374,
          "velocity": 0.7874015748031497,
          "duration": 0.026785687500023414
        },
        {
          "name": "D1",
          "midi": 26,
          "time": 487.71379799999374,
          "velocity": 0.7874015748031497,
          "duration": 0.026785687500023414
        },
        {
          "name": "C7",
          "midi": 96,
          "time": 488.1423689999938,
          "velocity": 0.7559055118110236,
          "duration": 0.10714275000003681
        },
        {
          "name": "D7",
          "midi": 98,
          "time": 488.1423689999938,
          "velocity": 0.7559055118110236,
          "duration": 0.10714275000003681
        },
        {
          "name": "C1",
          "midi": 24,
          "time": 488.1423689999938,
          "velocity": 0.7874015748031497,
          "duration": 0.026785687500023414
        },
        {
          "name": "G1",
          "midi": 31,
          "time": 488.1423689999938,
          "velocity": 0.7874015748031497,
          "duration": 0.026785687500023414
        },
        {
          "name": "C7",
          "midi": 96,
          "time": 488.3566544999938,
          "velocity": 0.7559055118110236,
          "duration": 0.10714274999997997
        },
        {
          "name": "C7",
          "midi": 96,
          "time": 488.57093999999375,
          "velocity": 0.7559055118110236,
          "duration": 0.10714275000003681
        },
        {
          "name": "D7",
          "midi": 98,
          "time": 488.57093999999375,
          "velocity": 0.7559055118110236,
          "duration": 0.10714275000003681
        },
        {
          "name": "C1",
          "midi": 24,
          "time": 488.57093999999375,
          "velocity": 0.7874015748031497,
          "duration": 0.026785687500023414
        },
        {
          "name": "F#1",
          "midi": 30,
          "time": 488.57093999999375,
          "velocity": 0.7874015748031497,
          "duration": 0.026785687500023414
        },
        {
          "name": "C7",
          "midi": 96,
          "time": 488.78522549999377,
          "velocity": 0.7559055118110236,
          "duration": 0.10714274999997997
        },
        {
          "name": "C7",
          "midi": 96,
          "time": 488.99951099999373,
          "velocity": 0.7559055118110236,
          "duration": 0.10714275000003681
        },
        {
          "name": "D7",
          "midi": 98,
          "time": 488.99951099999373,
          "velocity": 0.7559055118110236,
          "duration": 0.10714275000003681
        },
        {
          "name": "C1",
          "midi": 24,
          "time": 488.99951099999373,
          "velocity": 0.7874015748031497,
          "duration": 0.026785687500023414
        },
        {
          "name": "G1",
          "midi": 31,
          "time": 488.99951099999373,
          "velocity": 0.7874015748031497,
          "duration": 0.026785687500023414
        },
        {
          "name": "C#7",
          "midi": 97,
          "time": 489.42808199999376,
          "velocity": 0.7559055118110236,
          "duration": 0.10714275000003681
        },
        {
          "name": "D7",
          "midi": 98,
          "time": 489.42808199999376,
          "velocity": 0.7559055118110236,
          "duration": 0.10714275000003681
        },
        {
          "name": "G1",
          "midi": 31,
          "time": 489.42808199999376,
          "velocity": 0.7874015748031497,
          "duration": 0.026785687500023414
        },
        {
          "name": "D1",
          "midi": 26,
          "time": 489.42808199999376,
          "velocity": 0.7874015748031497,
          "duration": 0.026785687500023414
        },
        {
          "name": "C7",
          "midi": 96,
          "time": 489.8566529999938,
          "velocity": 0.7559055118110236,
          "duration": 0.10714275000003681
        },
        {
          "name": "D7",
          "midi": 98,
          "time": 489.8566529999938,
          "velocity": 0.7559055118110236,
          "duration": 0.10714275000003681
        },
        {
          "name": "C1",
          "midi": 24,
          "time": 489.8566529999938,
          "velocity": 0.7874015748031497,
          "duration": 0.026785687500023414
        },
        {
          "name": "G1",
          "midi": 31,
          "time": 489.8566529999938,
          "velocity": 0.7874015748031497,
          "duration": 0.026785687500023414
        },
        {
          "name": "C7",
          "midi": 96,
          "time": 490.0709384999938,
          "velocity": 0.7559055118110236,
          "duration": 0.10714274999997997
        },
        {
          "name": "C7",
          "midi": 96,
          "time": 490.2852239999938,
          "velocity": 0.7559055118110236,
          "duration": 0.10714275000003681
        },
        {
          "name": "D7",
          "midi": 98,
          "time": 490.2852239999938,
          "velocity": 0.7559055118110236,
          "duration": 0.10714275000003681
        },
        {
          "name": "C1",
          "midi": 24,
          "time": 490.2852239999938,
          "velocity": 0.7874015748031497,
          "duration": 0.026785687500023414
        },
        {
          "name": "F#1",
          "midi": 30,
          "time": 490.2852239999938,
          "velocity": 0.7874015748031497,
          "duration": 0.026785687500023414
        },
        {
          "name": "C7",
          "midi": 96,
          "time": 490.7137949999938,
          "velocity": 0.7559055118110236,
          "duration": 0.10714275000003681
        },
        {
          "name": "D7",
          "midi": 98,
          "time": 490.7137949999938,
          "velocity": 0.7559055118110236,
          "duration": 0.10714275000003681
        },
        {
          "name": "C1",
          "midi": 24,
          "time": 490.7137949999938,
          "velocity": 0.7874015748031497,
          "duration": 0.026785687500023414
        },
        {
          "name": "G1",
          "midi": 31,
          "time": 490.7137949999938,
          "velocity": 0.7874015748031497,
          "duration": 0.026785687500023414
        },
        {
          "name": "C#7",
          "midi": 97,
          "time": 491.14236599999384,
          "velocity": 0.7559055118110236,
          "duration": 0.10714275000003681
        },
        {
          "name": "D7",
          "midi": 98,
          "time": 491.14236599999384,
          "velocity": 0.7559055118110236,
          "duration": 0.10714275000003681
        },
        {
          "name": "G1",
          "midi": 31,
          "time": 491.14236599999384,
          "velocity": 0.7874015748031497,
          "duration": 0.026785687500023414
        },
        {
          "name": "D1",
          "midi": 26,
          "time": 491.14236599999384,
          "velocity": 0.7874015748031497,
          "duration": 0.026785687500023414
        },
        {
          "name": "C7",
          "midi": 96,
          "time": 491.5709369999939,
          "velocity": 0.7559055118110236,
          "duration": 0.10714275000003681
        },
        {
          "name": "D7",
          "midi": 98,
          "time": 491.5709369999939,
          "velocity": 0.7559055118110236,
          "duration": 0.10714275000003681
        },
        {
          "name": "C1",
          "midi": 24,
          "time": 491.5709369999939,
          "velocity": 0.7874015748031497,
          "duration": 0.026785687500023414
        },
        {
          "name": "G1",
          "midi": 31,
          "time": 491.5709369999939,
          "velocity": 0.7874015748031497,
          "duration": 0.026785687500023414
        },
        {
          "name": "C7",
          "midi": 96,
          "time": 491.7852224999939,
          "velocity": 0.7559055118110236,
          "duration": 0.10714274999997997
        },
        {
          "name": "C7",
          "midi": 96,
          "time": 491.99950799999385,
          "velocity": 0.7559055118110236,
          "duration": 0.10714275000003681
        },
        {
          "name": "D7",
          "midi": 98,
          "time": 491.99950799999385,
          "velocity": 0.7559055118110236,
          "duration": 0.10714275000003681
        },
        {
          "name": "C1",
          "midi": 24,
          "time": 491.99950799999385,
          "velocity": 0.7874015748031497,
          "duration": 0.026785687500023414
        },
        {
          "name": "F#1",
          "midi": 30,
          "time": 491.99950799999385,
          "velocity": 0.7874015748031497,
          "duration": 0.026785687500023414
        },
        {
          "name": "C7",
          "midi": 96,
          "time": 492.21379349999387,
          "velocity": 0.7559055118110236,
          "duration": 0.10714274999997997
        },
        {
          "name": "C7",
          "midi": 96,
          "time": 492.42807899999383,
          "velocity": 0.7559055118110236,
          "duration": 0.10714275000003681
        },
        {
          "name": "D7",
          "midi": 98,
          "time": 492.42807899999383,
          "velocity": 0.7559055118110236,
          "duration": 0.10714275000003681
        },
        {
          "name": "C1",
          "midi": 24,
          "time": 492.42807899999383,
          "velocity": 0.7874015748031497,
          "duration": 0.026785687500023414
        },
        {
          "name": "G1",
          "midi": 31,
          "time": 492.42807899999383,
          "velocity": 0.7874015748031497,
          "duration": 0.026785687500023414
        },
        {
          "name": "C#7",
          "midi": 97,
          "time": 492.85664999999386,
          "velocity": 0.7559055118110236,
          "duration": 0.10714275000003681
        },
        {
          "name": "D7",
          "midi": 98,
          "time": 492.85664999999386,
          "velocity": 0.7559055118110236,
          "duration": 0.10714275000003681
        },
        {
          "name": "G1",
          "midi": 31,
          "time": 492.85664999999386,
          "velocity": 0.7874015748031497,
          "duration": 0.026785687500023414
        },
        {
          "name": "D1",
          "midi": 26,
          "time": 492.85664999999386,
          "velocity": 0.7874015748031497,
          "duration": 0.026785687500023414
        },
        {
          "name": "D7",
          "midi": 98,
          "time": 493.2852209999939,
          "velocity": 0.7559055118110236,
          "duration": 0.10714275000003681
        },
        {
          "name": "G1",
          "midi": 31,
          "time": 493.2852209999939,
          "velocity": 0.7874015748031497,
          "duration": 0.026785687500023414
        },
        {
          "name": "C7",
          "midi": 96,
          "time": 493.4995064999939,
          "velocity": 0.7559055118110236,
          "duration": 0.10714274999997997
        },
        {
          "name": "C7",
          "midi": 96,
          "time": 493.7137919999939,
          "velocity": 0.7559055118110236,
          "duration": 0.10714274999997997
        }
      ],
      "controlChanges": {},
      "id": 1,
      "name": "PART DRUMS",
      "channelNumber": 0,
      "isPercussion": false
    },
    {
      "startTime": 27.556222443750002,
      "duration": 510.856632,
      "length": 4304,
      "notes": [
        {
          "name": "E4",
          "midi": 64,
          "time": 27.556222443750002,
          "velocity": 0.7480314960629921,
          "duration": 0.21428549999999902
        },
        {
          "name": "E5",
          "midi": 76,
          "time": 27.556222443750002,
          "velocity": 0.7480314960629921,
          "duration": 0.21428549999999902
        },
        {
          "name": "E6",
          "midi": 88,
          "time": 27.556222443750002,
          "velocity": 0.7480314960629921,
          "duration": 0.21428549999999902
        },
        {
          "name": "E7",
          "midi": 100,
          "time": 27.556222443750002,
          "velocity": 0.7480314960629921,
          "duration": 0.21428549999999902
        },
        {
          "name": "E4",
          "midi": 64,
          "time": 27.98479344375,
          "velocity": 0.7480314960629921,
          "duration": 0.21428549999999902
        },
        {
          "name": "E5",
          "midi": 76,
          "time": 27.98479344375,
          "velocity": 0.7480314960629921,
          "duration": 0.21428549999999902
        },
        {
          "name": "E6",
          "midi": 88,
          "time": 27.98479344375,
          "velocity": 0.7480314960629921,
          "duration": 0.21428549999999902
        },
        {
          "name": "E7",
          "midi": 100,
          "time": 27.98479344375,
          "velocity": 0.7480314960629921,
          "duration": 0.21428549999999902
        },
        {
          "name": "E4",
          "midi": 64,
          "time": 28.19907894375,
          "velocity": 0.7480314960629921,
          "duration": 0.21428549999999902
        },
        {
          "name": "E5",
          "midi": 76,
          "time": 28.19907894375,
          "velocity": 0.7480314960629921,
          "duration": 0.21428549999999902
        },
        {
          "name": "E6",
          "midi": 88,
          "time": 28.19907894375,
          "velocity": 0.7480314960629921,
          "duration": 0.21428549999999902
        },
        {
          "name": "E7",
          "midi": 100,
          "time": 28.19907894375,
          "velocity": 0.7480314960629921,
          "duration": 0.21428549999999902
        },
        {
          "name": "E4",
          "midi": 64,
          "time": 28.627649943749997,
          "velocity": 0.7480314960629921,
          "duration": 0.21428549999999902
        },
        {
          "name": "E5",
          "midi": 76,
          "time": 28.627649943749997,
          "velocity": 0.7480314960629921,
          "duration": 0.21428549999999902
        },
        {
          "name": "E6",
          "midi": 88,
          "time": 28.627649943749997,
          "velocity": 0.7480314960629921,
          "duration": 0.21428549999999902
        },
        {
          "name": "E7",
          "midi": 100,
          "time": 28.627649943749997,
          "velocity": 0.7480314960629921,
          "duration": 0.21428549999999902
        },
        {
          "name": "E4",
          "midi": 64,
          "time": 29.056220943749995,
          "velocity": 0.7480314960629921,
          "duration": 0.21428549999999902
        },
        {
          "name": "E5",
          "midi": 76,
          "time": 29.056220943749995,
          "velocity": 0.7480314960629921,
          "duration": 0.21428549999999902
        },
        {
          "name": "E6",
          "midi": 88,
          "time": 29.056220943749995,
          "velocity": 0.7480314960629921,
          "duration": 0.21428549999999902
        },
        {
          "name": "E7",
          "midi": 100,
          "time": 29.056220943749995,
          "velocity": 0.7480314960629921,
          "duration": 0.21428549999999902
        },
        {
          "name": "E4",
          "midi": 64,
          "time": 29.270506443749994,
          "velocity": 0.7480314960629921,
          "duration": 0.10714275000000129
        },
        {
          "name": "E5",
          "midi": 76,
          "time": 29.270506443749994,
          "velocity": 0.7480314960629921,
          "duration": 0.10714275000000129
        },
        {
          "name": "E6",
          "midi": 88,
          "time": 29.270506443749994,
          "velocity": 0.7480314960629921,
          "duration": 0.10714275000000129
        },
        {
          "name": "E7",
          "midi": 100,
          "time": 29.270506443749994,
          "velocity": 0.7480314960629921,
          "duration": 0.10714275000000129
        },
        {
          "name": "E4",
          "midi": 64,
          "time": 29.377649193749996,
          "velocity": 0.7480314960629921,
          "duration": 0.10714275000000129
        },
        {
          "name": "E5",
          "midi": 76,
          "time": 29.377649193749996,
          "velocity": 0.7480314960629921,
          "duration": 0.10714275000000129
        },
        {
          "name": "E6",
          "midi": 88,
          "time": 29.377649193749996,
          "velocity": 0.7480314960629921,
          "duration": 0.10714275000000129
        },
        {
          "name": "E7",
          "midi": 100,
          "time": 29.377649193749996,
          "velocity": 0.7480314960629921,
          "duration": 0.10714275000000129
        },
        {
          "name": "E4",
          "midi": 64,
          "time": 29.484791943749997,
          "velocity": 0.7480314960629921,
          "duration": 0.10714275000000129
        },
        {
          "name": "E5",
          "midi": 76,
          "time": 29.484791943749997,
          "velocity": 0.7480314960629921,
          "duration": 0.10714275000000129
        },
        {
          "name": "E6",
          "midi": 88,
          "time": 29.484791943749997,
          "velocity": 0.7480314960629921,
          "duration": 0.10714275000000129
        },
        {
          "name": "E7",
          "midi": 100,
          "time": 29.484791943749997,
          "velocity": 0.7480314960629921,
          "duration": 0.10714275000000129
        },
        {
          "name": "E4",
          "midi": 64,
          "time": 29.69907744375,
          "velocity": 0.7480314960629921,
          "duration": 0.21428549999999902
        },
        {
          "name": "E5",
          "midi": 76,
          "time": 29.69907744375,
          "velocity": 0.7480314960629921,
          "duration": 0.21428549999999902
        },
        {
          "name": "E6",
          "midi": 88,
          "time": 29.69907744375,
          "velocity": 0.7480314960629921,
          "duration": 0.21428549999999902
        },
        {
          "name": "E7",
          "midi": 100,
          "time": 29.69907744375,
          "velocity": 0.7480314960629921,
          "duration": 0.21428549999999902
        },
        {
          "name": "E4",
          "midi": 64,
          "time": 29.91336294375,
          "velocity": 0.7480314960629921,
          "duration": 0.21428549999999902
        },
        {
          "name": "E5",
          "midi": 76,
          "time": 29.91336294375,
          "velocity": 0.7480314960629921,
          "duration": 0.21428549999999902
        },
        {
          "name": "E6",
          "midi": 88,
          "time": 29.91336294375,
          "velocity": 0.7480314960629921,
          "duration": 0.21428549999999902
        },
        {
          "name": "E7",
          "midi": 100,
          "time": 29.91336294375,
          "velocity": 0.7480314960629921,
          "duration": 0.21428549999999902
        },
        {
          "name": "E4",
          "midi": 64,
          "time": 30.341933943749996,
          "velocity": 0.7480314960629921,
          "duration": 0.21428549999999902
        },
        {
          "name": "E5",
          "midi": 76,
          "time": 30.341933943749996,
          "velocity": 0.7480314960629921,
          "duration": 0.21428549999999902
        },
        {
          "name": "E6",
          "midi": 88,
          "time": 30.341933943749996,
          "velocity": 0.7480314960629921,
          "duration": 0.21428549999999902
        },
        {
          "name": "E7",
          "midi": 100,
          "time": 30.341933943749996,
          "velocity": 0.7480314960629921,
          "duration": 0.21428549999999902
        },
        {
          "name": "E4",
          "midi": 64,
          "time": 30.984790443749997,
          "velocity": 0.7480314960629921,
          "duration": 0.21428549999999902
        },
        {
          "name": "E5",
          "midi": 76,
          "time": 30.984790443749997,
          "velocity": 0.7480314960629921,
          "duration": 0.21428549999999902
        },
        {
          "name": "E6",
          "midi": 88,
          "time": 30.984790443749997,
          "velocity": 0.7480314960629921,
          "duration": 0.21428549999999902
        },
        {
          "name": "E7",
          "midi": 100,
          "time": 30.984790443749997,
          "velocity": 0.7480314960629921,
          "duration": 0.21428549999999902
        },
        {
          "name": "E4",
          "midi": 64,
          "time": 31.413361443749995,
          "velocity": 0.7480314960629921,
          "duration": 0.21428549999999902
        },
        {
          "name": "E5",
          "midi": 76,
          "time": 31.413361443749995,
          "velocity": 0.7480314960629921,
          "duration": 0.21428549999999902
        },
        {
          "name": "E6",
          "midi": 88,
          "time": 31.413361443749995,
          "velocity": 0.7480314960629921,
          "duration": 0.21428549999999902
        },
        {
          "name": "E7",
          "midi": 100,
          "time": 31.413361443749995,
          "velocity": 0.7480314960629921,
          "duration": 0.21428549999999902
        },
        {
          "name": "E4",
          "midi": 64,
          "time": 31.627646943749994,
          "velocity": 0.7480314960629921,
          "duration": 0.21428549999999902
        },
        {
          "name": "E5",
          "midi": 76,
          "time": 31.627646943749994,
          "velocity": 0.7480314960629921,
          "duration": 0.21428549999999902
        },
        {
          "name": "E6",
          "midi": 88,
          "time": 31.627646943749994,
          "velocity": 0.7480314960629921,
          "duration": 0.21428549999999902
        },
        {
          "name": "E7",
          "midi": 100,
          "time": 31.627646943749994,
          "velocity": 0.7480314960629921,
          "duration": 0.21428549999999902
        },
        {
          "name": "E4",
          "midi": 64,
          "time": 32.05621794374999,
          "velocity": 0.7480314960629921,
          "duration": 0.21428550000000257
        },
        {
          "name": "E5",
          "midi": 76,
          "time": 32.05621794374999,
          "velocity": 0.7480314960629921,
          "duration": 0.21428550000000257
        },
        {
          "name": "E6",
          "midi": 88,
          "time": 32.05621794374999,
          "velocity": 0.7480314960629921,
          "duration": 0.21428550000000257
        },
        {
          "name": "E7",
          "midi": 100,
          "time": 32.05621794374999,
          "velocity": 0.7480314960629921,
          "duration": 0.21428550000000257
        },
        {
          "name": "E4",
          "midi": 64,
          "time": 32.48478894375,
          "velocity": 0.7480314960629921,
          "duration": 0.21428550000000257
        },
        {
          "name": "E5",
          "midi": 76,
          "time": 32.48478894375,
          "velocity": 0.7480314960629921,
          "duration": 0.21428550000000257
        },
        {
          "name": "E6",
          "midi": 88,
          "time": 32.48478894375,
          "velocity": 0.7480314960629921,
          "duration": 0.21428550000000257
        },
        {
          "name": "E7",
          "midi": 100,
          "time": 32.48478894375,
          "velocity": 0.7480314960629921,
          "duration": 0.21428550000000257
        },
        {
          "name": "E4",
          "midi": 64,
          "time": 32.69907444375,
          "velocity": 0.7480314960629921,
          "duration": 0.10714275000000129
        },
        {
          "name": "E5",
          "midi": 76,
          "time": 32.69907444375,
          "velocity": 0.7480314960629921,
          "duration": 0.10714275000000129
        },
        {
          "name": "E6",
          "midi": 88,
          "time": 32.69907444375,
          "velocity": 0.7480314960629921,
          "duration": 0.10714275000000129
        },
        {
          "name": "E7",
          "midi": 100,
          "time": 32.69907444375,
          "velocity": 0.7480314960629921,
          "duration": 0.10714275000000129
        },
        {
          "name": "E4",
          "midi": 64,
          "time": 32.80621719375,
          "velocity": 0.7480314960629921,
          "duration": 0.10714275000000129
        },
        {
          "name": "E5",
          "midi": 76,
          "time": 32.80621719375,
          "velocity": 0.7480314960629921,
          "duration": 0.10714275000000129
        },
        {
          "name": "E6",
          "midi": 88,
          "time": 32.80621719375,
          "velocity": 0.7480314960629921,
          "duration": 0.10714275000000129
        },
        {
          "name": "E7",
          "midi": 100,
          "time": 32.80621719375,
          "velocity": 0.7480314960629921,
          "duration": 0.10714275000000129
        },
        {
          "name": "E4",
          "midi": 64,
          "time": 32.91335994375,
          "velocity": 0.7480314960629921,
          "duration": 0.10714275000000129
        },
        {
          "name": "E5",
          "midi": 76,
          "time": 32.91335994375,
          "velocity": 0.7480314960629921,
          "duration": 0.10714275000000129
        },
        {
          "name": "E6",
          "midi": 88,
          "time": 32.91335994375,
          "velocity": 0.7480314960629921,
          "duration": 0.10714275000000129
        },
        {
          "name": "E7",
          "midi": 100,
          "time": 32.91335994375,
          "velocity": 0.7480314960629921,
          "duration": 0.10714275000000129
        },
        {
          "name": "E4",
          "midi": 64,
          "time": 33.127645443750005,
          "velocity": 0.7480314960629921,
          "duration": 0.21428550000000257
        },
        {
          "name": "E5",
          "midi": 76,
          "time": 33.127645443750005,
          "velocity": 0.7480314960629921,
          "duration": 0.21428550000000257
        },
        {
          "name": "E6",
          "midi": 88,
          "time": 33.127645443750005,
          "velocity": 0.7480314960629921,
          "duration": 0.21428550000000257
        },
        {
          "name": "E7",
          "midi": 100,
          "time": 33.127645443750005,
          "velocity": 0.7480314960629921,
          "duration": 0.21428550000000257
        },
        {
          "name": "E4",
          "midi": 64,
          "time": 33.34193094375001,
          "velocity": 0.7480314960629921,
          "duration": 0.21428550000000257
        },
        {
          "name": "E5",
          "midi": 76,
          "time": 33.34193094375001,
          "velocity": 0.7480314960629921,
          "duration": 0.21428550000000257
        },
        {
          "name": "E6",
          "midi": 88,
          "time": 33.34193094375001,
          "velocity": 0.7480314960629921,
          "duration": 0.21428550000000257
        },
        {
          "name": "E7",
          "midi": 100,
          "time": 33.34193094375001,
          "velocity": 0.7480314960629921,
          "duration": 0.21428550000000257
        },
        {
          "name": "E4",
          "midi": 64,
          "time": 33.77050194375001,
          "velocity": 0.7480314960629921,
          "duration": 0.21428550000000257
        },
        {
          "name": "E5",
          "midi": 76,
          "time": 33.77050194375001,
          "velocity": 0.7480314960629921,
          "duration": 0.21428550000000257
        },
        {
          "name": "E6",
          "midi": 88,
          "time": 33.77050194375001,
          "velocity": 0.7480314960629921,
          "duration": 0.21428550000000257
        },
        {
          "name": "E7",
          "midi": 100,
          "time": 33.77050194375001,
          "velocity": 0.7480314960629921,
          "duration": 0.21428550000000257
        },
        {
          "name": "E4",
          "midi": 64,
          "time": 34.41335844375001,
          "velocity": 0.7480314960629921,
          "duration": 0.21428550000000257
        },
        {
          "name": "E5",
          "midi": 76,
          "time": 34.41335844375001,
          "velocity": 0.7480314960629921,
          "duration": 0.21428550000000257
        },
        {
          "name": "E6",
          "midi": 88,
          "time": 34.41335844375001,
          "velocity": 0.7480314960629921,
          "duration": 0.21428550000000257
        },
        {
          "name": "E7",
          "midi": 100,
          "time": 34.41335844375001,
          "velocity": 0.7480314960629921,
          "duration": 0.21428550000000257
        },
        {
          "name": "E4",
          "midi": 64,
          "time": 34.84192944375002,
          "velocity": 0.7480314960629921,
          "duration": 0.21428550000000257
        },
        {
          "name": "E5",
          "midi": 76,
          "time": 34.84192944375002,
          "velocity": 0.7480314960629921,
          "duration": 0.21428550000000257
        },
        {
          "name": "E6",
          "midi": 88,
          "time": 34.84192944375002,
          "velocity": 0.7480314960629921,
          "duration": 0.21428550000000257
        },
        {
          "name": "E7",
          "midi": 100,
          "time": 34.84192944375002,
          "velocity": 0.7480314960629921,
          "duration": 0.21428550000000257
        },
        {
          "name": "E4",
          "midi": 64,
          "time": 35.05621494375002,
          "velocity": 0.7480314960629921,
          "duration": 0.21428550000000257
        },
        {
          "name": "E5",
          "midi": 76,
          "time": 35.05621494375002,
          "velocity": 0.7480314960629921,
          "duration": 0.21428550000000257
        },
        {
          "name": "E6",
          "midi": 88,
          "time": 35.05621494375002,
          "velocity": 0.7480314960629921,
          "duration": 0.21428550000000257
        },
        {
          "name": "E7",
          "midi": 100,
          "time": 35.05621494375002,
          "velocity": 0.7480314960629921,
          "duration": 0.21428550000000257
        },
        {
          "name": "E4",
          "midi": 64,
          "time": 35.484785943750026,
          "velocity": 0.7480314960629921,
          "duration": 0.21428550000000257
        },
        {
          "name": "E5",
          "midi": 76,
          "time": 35.484785943750026,
          "velocity": 0.7480314960629921,
          "duration": 0.21428550000000257
        },
        {
          "name": "E6",
          "midi": 88,
          "time": 35.484785943750026,
          "velocity": 0.7480314960629921,
          "duration": 0.21428550000000257
        },
        {
          "name": "E7",
          "midi": 100,
          "time": 35.484785943750026,
          "velocity": 0.7480314960629921,
          "duration": 0.21428550000000257
        },
        {
          "name": "E4",
          "midi": 64,
          "time": 35.91335694375003,
          "velocity": 0.7480314960629921,
          "duration": 0.21428550000000257
        },
        {
          "name": "E5",
          "midi": 76,
          "time": 35.91335694375003,
          "velocity": 0.7480314960629921,
          "duration": 0.21428550000000257
        },
        {
          "name": "E6",
          "midi": 88,
          "time": 35.91335694375003,
          "velocity": 0.7480314960629921,
          "duration": 0.21428550000000257
        },
        {
          "name": "E7",
          "midi": 100,
          "time": 35.91335694375003,
          "velocity": 0.7480314960629921,
          "duration": 0.21428550000000257
        },
        {
          "name": "E4",
          "midi": 64,
          "time": 36.127642443750034,
          "velocity": 0.7480314960629921,
          "duration": 0.10714275000000129
        },
        {
          "name": "E5",
          "midi": 76,
          "time": 36.127642443750034,
          "velocity": 0.7480314960629921,
          "duration": 0.10714275000000129
        },
        {
          "name": "E6",
          "midi": 88,
          "time": 36.127642443750034,
          "velocity": 0.7480314960629921,
          "duration": 0.10714275000000129
        },
        {
          "name": "E7",
          "midi": 100,
          "time": 36.127642443750034,
          "velocity": 0.7480314960629921,
          "duration": 0.10714275000000129
        },
        {
          "name": "E4",
          "midi": 64,
          "time": 36.234785193750035,
          "velocity": 0.7480314960629921,
          "duration": 0.10714275000000129
        },
        {
          "name": "E5",
          "midi": 76,
          "time": 36.234785193750035,
          "velocity": 0.7480314960629921,
          "duration": 0.10714275000000129
        },
        {
          "name": "E6",
          "midi": 88,
          "time": 36.234785193750035,
          "velocity": 0.7480314960629921,
          "duration": 0.10714275000000129
        },
        {
          "name": "E7",
          "midi": 100,
          "time": 36.234785193750035,
          "velocity": 0.7480314960629921,
          "duration": 0.10714275000000129
        },
        {
          "name": "E4",
          "midi": 64,
          "time": 36.341927943750036,
          "velocity": 0.7480314960629921,
          "duration": 0.10714275000000129
        },
        {
          "name": "E5",
          "midi": 76,
          "time": 36.341927943750036,
          "velocity": 0.7480314960629921,
          "duration": 0.10714275000000129
        },
        {
          "name": "E6",
          "midi": 88,
          "time": 36.341927943750036,
          "velocity": 0.7480314960629921,
          "duration": 0.10714275000000129
        },
        {
          "name": "E7",
          "midi": 100,
          "time": 36.341927943750036,
          "velocity": 0.7480314960629921,
          "duration": 0.10714275000000129
        },
        {
          "name": "E4",
          "midi": 64,
          "time": 36.55621344375004,
          "velocity": 0.7480314960629921,
          "duration": 0.21428550000000257
        },
        {
          "name": "E5",
          "midi": 76,
          "time": 36.55621344375004,
          "velocity": 0.7480314960629921,
          "duration": 0.21428550000000257
        },
        {
          "name": "E6",
          "midi": 88,
          "time": 36.55621344375004,
          "velocity": 0.7480314960629921,
          "duration": 0.21428550000000257
        },
        {
          "name": "E7",
          "midi": 100,
          "time": 36.55621344375004,
          "velocity": 0.7480314960629921,
          "duration": 0.21428550000000257
        },
        {
          "name": "E4",
          "midi": 64,
          "time": 36.77049894375004,
          "velocity": 0.7480314960629921,
          "duration": 0.21428550000000257
        },
        {
          "name": "E5",
          "midi": 76,
          "time": 36.77049894375004,
          "velocity": 0.7480314960629921,
          "duration": 0.21428550000000257
        },
        {
          "name": "E6",
          "midi": 88,
          "time": 36.77049894375004,
          "velocity": 0.7480314960629921,
          "duration": 0.21428550000000257
        },
        {
          "name": "E7",
          "midi": 100,
          "time": 36.77049894375004,
          "velocity": 0.7480314960629921,
          "duration": 0.21428550000000257
        },
        {
          "name": "E4",
          "midi": 64,
          "time": 37.19906994375005,
          "velocity": 0.7480314960629921,
          "duration": 0.21428550000000257
        },
        {
          "name": "E5",
          "midi": 76,
          "time": 37.19906994375005,
          "velocity": 0.7480314960629921,
          "duration": 0.21428550000000257
        },
        {
          "name": "E6",
          "midi": 88,
          "time": 37.19906994375005,
          "velocity": 0.7480314960629921,
          "duration": 0.21428550000000257
        },
        {
          "name": "E7",
          "midi": 100,
          "time": 37.19906994375005,
          "velocity": 0.7480314960629921,
          "duration": 0.21428550000000257
        },
        {
          "name": "E4",
          "midi": 64,
          "time": 37.84192644375005,
          "velocity": 0.7480314960629921,
          "duration": 0.21428550000000257
        },
        {
          "name": "E5",
          "midi": 76,
          "time": 37.84192644375005,
          "velocity": 0.7480314960629921,
          "duration": 0.21428550000000257
        },
        {
          "name": "E6",
          "midi": 88,
          "time": 37.84192644375005,
          "velocity": 0.7480314960629921,
          "duration": 0.21428550000000257
        },
        {
          "name": "E7",
          "midi": 100,
          "time": 37.84192644375005,
          "velocity": 0.7480314960629921,
          "duration": 0.21428550000000257
        },
        {
          "name": "E4",
          "midi": 64,
          "time": 38.27049744375005,
          "velocity": 0.7480314960629921,
          "duration": 0.21428550000000257
        },
        {
          "name": "E5",
          "midi": 76,
          "time": 38.27049744375005,
          "velocity": 0.7480314960629921,
          "duration": 0.21428550000000257
        },
        {
          "name": "E6",
          "midi": 88,
          "time": 38.27049744375005,
          "velocity": 0.7480314960629921,
          "duration": 0.21428550000000257
        },
        {
          "name": "E7",
          "midi": 100,
          "time": 38.27049744375005,
          "velocity": 0.7480314960629921,
          "duration": 0.21428550000000257
        },
        {
          "name": "E4",
          "midi": 64,
          "time": 38.484782943750055,
          "velocity": 0.7480314960629921,
          "duration": 0.21428550000000257
        },
        {
          "name": "E5",
          "midi": 76,
          "time": 38.484782943750055,
          "velocity": 0.7480314960629921,
          "duration": 0.21428550000000257
        },
        {
          "name": "E6",
          "midi": 88,
          "time": 38.484782943750055,
          "velocity": 0.7480314960629921,
          "duration": 0.21428550000000257
        },
        {
          "name": "E7",
          "midi": 100,
          "time": 38.484782943750055,
          "velocity": 0.7480314960629921,
          "duration": 0.21428550000000257
        },
        {
          "name": "E4",
          "midi": 64,
          "time": 38.91335394375006,
          "velocity": 0.7480314960629921,
          "duration": 0.21428550000000257
        },
        {
          "name": "E5",
          "midi": 76,
          "time": 38.91335394375006,
          "velocity": 0.7480314960629921,
          "duration": 0.21428550000000257
        },
        {
          "name": "E6",
          "midi": 88,
          "time": 38.91335394375006,
          "velocity": 0.7480314960629921,
          "duration": 0.21428550000000257
        },
        {
          "name": "E7",
          "midi": 100,
          "time": 38.91335394375006,
          "velocity": 0.7480314960629921,
          "duration": 0.21428550000000257
        },
        {
          "name": "E4",
          "midi": 64,
          "time": 39.341924943750065,
          "velocity": 0.7480314960629921,
          "duration": 0.21428550000000257
        },
        {
          "name": "E5",
          "midi": 76,
          "time": 39.341924943750065,
          "velocity": 0.7480314960629921,
          "duration": 0.21428550000000257
        },
        {
          "name": "E6",
          "midi": 88,
          "time": 39.341924943750065,
          "velocity": 0.7480314960629921,
          "duration": 0.21428550000000257
        },
        {
          "name": "E7",
          "midi": 100,
          "time": 39.341924943750065,
          "velocity": 0.7480314960629921,
          "duration": 0.21428550000000257
        },
        {
          "name": "E4",
          "midi": 64,
          "time": 39.55621044375007,
          "velocity": 0.7480314960629921,
          "duration": 0.10714275000000129
        },
        {
          "name": "E5",
          "midi": 76,
          "time": 39.55621044375007,
          "velocity": 0.7480314960629921,
          "duration": 0.10714275000000129
        },
        {
          "name": "E6",
          "midi": 88,
          "time": 39.55621044375007,
          "velocity": 0.7480314960629921,
          "duration": 0.10714275000000129
        },
        {
          "name": "E7",
          "midi": 100,
          "time": 39.55621044375007,
          "velocity": 0.7480314960629921,
          "duration": 0.10714275000000129
        },
        {
          "name": "E4",
          "midi": 64,
          "time": 39.66335319375007,
          "velocity": 0.7480314960629921,
          "duration": 0.10714275000000129
        },
        {
          "name": "E5",
          "midi": 76,
          "time": 39.66335319375007,
          "velocity": 0.7480314960629921,
          "duration": 0.10714275000000129
        },
        {
          "name": "E6",
          "midi": 88,
          "time": 39.66335319375007,
          "velocity": 0.7480314960629921,
          "duration": 0.10714275000000129
        },
        {
          "name": "E7",
          "midi": 100,
          "time": 39.66335319375007,
          "velocity": 0.7480314960629921,
          "duration": 0.10714275000000129
        },
        {
          "name": "E4",
          "midi": 64,
          "time": 39.77049594375007,
          "velocity": 0.7480314960629921,
          "duration": 0.10714275000000129
        },
        {
          "name": "E5",
          "midi": 76,
          "time": 39.77049594375007,
          "velocity": 0.7480314960629921,
          "duration": 0.10714275000000129
        },
        {
          "name": "E6",
          "midi": 88,
          "time": 39.77049594375007,
          "velocity": 0.7480314960629921,
          "duration": 0.10714275000000129
        },
        {
          "name": "E7",
          "midi": 100,
          "time": 39.77049594375007,
          "velocity": 0.7480314960629921,
          "duration": 0.10714275000000129
        },
        {
          "name": "E4",
          "midi": 64,
          "time": 39.98478144375007,
          "velocity": 0.7480314960629921,
          "duration": 0.21428550000000257
        },
        {
          "name": "E5",
          "midi": 76,
          "time": 39.98478144375007,
          "velocity": 0.7480314960629921,
          "duration": 0.21428550000000257
        },
        {
          "name": "E6",
          "midi": 88,
          "time": 39.98478144375007,
          "velocity": 0.7480314960629921,
          "duration": 0.21428550000000257
        },
        {
          "name": "E7",
          "midi": 100,
          "time": 39.98478144375007,
          "velocity": 0.7480314960629921,
          "duration": 0.21428550000000257
        },
        {
          "name": "E4",
          "midi": 64,
          "time": 40.199066943750076,
          "velocity": 0.7480314960629921,
          "duration": 0.21428550000000257
        },
        {
          "name": "E5",
          "midi": 76,
          "time": 40.199066943750076,
          "velocity": 0.7480314960629921,
          "duration": 0.21428550000000257
        },
        {
          "name": "E6",
          "midi": 88,
          "time": 40.199066943750076,
          "velocity": 0.7480314960629921,
          "duration": 0.21428550000000257
        },
        {
          "name": "E7",
          "midi": 100,
          "time": 40.199066943750076,
          "velocity": 0.7480314960629921,
          "duration": 0.21428550000000257
        },
        {
          "name": "E4",
          "midi": 64,
          "time": 40.62763794375008,
          "velocity": 0.7480314960629921,
          "duration": 0.21428550000000257
        },
        {
          "name": "E5",
          "midi": 76,
          "time": 40.62763794375008,
          "velocity": 0.7480314960629921,
          "duration": 0.21428550000000257
        },
        {
          "name": "E6",
          "midi": 88,
          "time": 40.62763794375008,
          "velocity": 0.7480314960629921,
          "duration": 0.21428550000000257
        },
        {
          "name": "E7",
          "midi": 100,
          "time": 40.62763794375008,
          "velocity": 0.7480314960629921,
          "duration": 0.21428550000000257
        },
        {
          "name": "E4",
          "midi": 64,
          "time": 41.27049444375008,
          "velocity": 0.7480314960629921,
          "duration": 0.21428550000000257
        },
        {
          "name": "E5",
          "midi": 76,
          "time": 41.27049444375008,
          "velocity": 0.7480314960629921,
          "duration": 0.21428550000000257
        },
        {
          "name": "E6",
          "midi": 88,
          "time": 41.27049444375008,
          "velocity": 0.7480314960629921,
          "duration": 0.21428550000000257
        },
        {
          "name": "E7",
          "midi": 100,
          "time": 41.27049444375008,
          "velocity": 0.7480314960629921,
          "duration": 0.21428550000000257
        },
        {
          "name": "E4",
          "midi": 64,
          "time": 41.69906544375009,
          "velocity": 0.7480314960629921,
          "duration": 0.21428550000000257
        },
        {
          "name": "E5",
          "midi": 76,
          "time": 41.69906544375009,
          "velocity": 0.7480314960629921,
          "duration": 0.21428550000000257
        },
        {
          "name": "E6",
          "midi": 88,
          "time": 41.69906544375009,
          "velocity": 0.7480314960629921,
          "duration": 0.21428550000000257
        },
        {
          "name": "E7",
          "midi": 100,
          "time": 41.69906544375009,
          "velocity": 0.7480314960629921,
          "duration": 0.21428550000000257
        },
        {
          "name": "E4",
          "midi": 64,
          "time": 41.91335094375009,
          "velocity": 0.7480314960629921,
          "duration": 0.21428550000000257
        },
        {
          "name": "E5",
          "midi": 76,
          "time": 41.91335094375009,
          "velocity": 0.7480314960629921,
          "duration": 0.21428550000000257
        },
        {
          "name": "E6",
          "midi": 88,
          "time": 41.91335094375009,
          "velocity": 0.7480314960629921,
          "duration": 0.21428550000000257
        },
        {
          "name": "E7",
          "midi": 100,
          "time": 41.91335094375009,
          "velocity": 0.7480314960629921,
          "duration": 0.21428550000000257
        },
        {
          "name": "E4",
          "midi": 64,
          "time": 42.341921943750094,
          "velocity": 0.7480314960629921,
          "duration": 0.21428550000000257
        },
        {
          "name": "E5",
          "midi": 76,
          "time": 42.341921943750094,
          "velocity": 0.7480314960629921,
          "duration": 0.21428550000000257
        },
        {
          "name": "E6",
          "midi": 88,
          "time": 42.341921943750094,
          "velocity": 0.7480314960629921,
          "duration": 0.21428550000000257
        },
        {
          "name": "E7",
          "midi": 100,
          "time": 42.341921943750094,
          "velocity": 0.7480314960629921,
          "duration": 0.21428550000000257
        },
        {
          "name": "E4",
          "midi": 64,
          "time": 42.7704929437501,
          "velocity": 0.7480314960629921,
          "duration": 0.21428550000000257
        },
        {
          "name": "E5",
          "midi": 76,
          "time": 42.7704929437501,
          "velocity": 0.7480314960629921,
          "duration": 0.21428550000000257
        },
        {
          "name": "E6",
          "midi": 88,
          "time": 42.7704929437501,
          "velocity": 0.7480314960629921,
          "duration": 0.21428550000000257
        },
        {
          "name": "E7",
          "midi": 100,
          "time": 42.7704929437501,
          "velocity": 0.7480314960629921,
          "duration": 0.21428550000000257
        },
        {
          "name": "E4",
          "midi": 64,
          "time": 42.9847784437501,
          "velocity": 0.7480314960629921,
          "duration": 0.10714275000000129
        },
        {
          "name": "E5",
          "midi": 76,
          "time": 42.9847784437501,
          "velocity": 0.7480314960629921,
          "duration": 0.10714275000000129
        },
        {
          "name": "E6",
          "midi": 88,
          "time": 42.9847784437501,
          "velocity": 0.7480314960629921,
          "duration": 0.10714275000000129
        },
        {
          "name": "E7",
          "midi": 100,
          "time": 42.9847784437501,
          "velocity": 0.7480314960629921,
          "duration": 0.10714275000000129
        },
        {
          "name": "E4",
          "midi": 64,
          "time": 43.0919211937501,
          "velocity": 0.7480314960629921,
          "duration": 0.10714275000000129
        },
        {
          "name": "E5",
          "midi": 76,
          "time": 43.0919211937501,
          "velocity": 0.7480314960629921,
          "duration": 0.10714275000000129
        },
        {
          "name": "E6",
          "midi": 88,
          "time": 43.0919211937501,
          "velocity": 0.7480314960629921,
          "duration": 0.10714275000000129
        },
        {
          "name": "E7",
          "midi": 100,
          "time": 43.0919211937501,
          "velocity": 0.7480314960629921,
          "duration": 0.10714275000000129
        },
        {
          "name": "E4",
          "midi": 64,
          "time": 43.199063943750104,
          "velocity": 0.7480314960629921,
          "duration": 0.10714275000000129
        },
        {
          "name": "E5",
          "midi": 76,
          "time": 43.199063943750104,
          "velocity": 0.7480314960629921,
          "duration": 0.10714275000000129
        },
        {
          "name": "E6",
          "midi": 88,
          "time": 43.199063943750104,
          "velocity": 0.7480314960629921,
          "duration": 0.10714275000000129
        },
        {
          "name": "E7",
          "midi": 100,
          "time": 43.199063943750104,
          "velocity": 0.7480314960629921,
          "duration": 0.10714275000000129
        },
        {
          "name": "E4",
          "midi": 64,
          "time": 43.41334944375011,
          "velocity": 0.7480314960629921,
          "duration": 0.21428550000000257
        },
        {
          "name": "E5",
          "midi": 76,
          "time": 43.41334944375011,
          "velocity": 0.7480314960629921,
          "duration": 0.21428550000000257
        },
        {
          "name": "E6",
          "midi": 88,
          "time": 43.41334944375011,
          "velocity": 0.7480314960629921,
          "duration": 0.21428550000000257
        },
        {
          "name": "E7",
          "midi": 100,
          "time": 43.41334944375011,
          "velocity": 0.7480314960629921,
          "duration": 0.21428550000000257
        },
        {
          "name": "E4",
          "midi": 64,
          "time": 43.62763494375011,
          "velocity": 0.7480314960629921,
          "duration": 0.21428550000000257
        },
        {
          "name": "E5",
          "midi": 76,
          "time": 43.62763494375011,
          "velocity": 0.7480314960629921,
          "duration": 0.21428550000000257
        },
        {
          "name": "E6",
          "midi": 88,
          "time": 43.62763494375011,
          "velocity": 0.7480314960629921,
          "duration": 0.21428550000000257
        },
        {
          "name": "E7",
          "midi": 100,
          "time": 43.62763494375011,
          "velocity": 0.7480314960629921,
          "duration": 0.21428550000000257
        },
        {
          "name": "E4",
          "midi": 64,
          "time": 44.056205943750115,
          "velocity": 0.7480314960629921,
          "duration": 0.21428550000000257
        },
        {
          "name": "E5",
          "midi": 76,
          "time": 44.056205943750115,
          "velocity": 0.7480314960629921,
          "duration": 0.21428550000000257
        },
        {
          "name": "E6",
          "midi": 88,
          "time": 44.056205943750115,
          "velocity": 0.7480314960629921,
          "duration": 0.21428550000000257
        },
        {
          "name": "E7",
          "midi": 100,
          "time": 44.056205943750115,
          "velocity": 0.7480314960629921,
          "duration": 0.21428550000000257
        },
        {
          "name": "E4",
          "midi": 64,
          "time": 44.699062443750115,
          "velocity": 0.7480314960629921,
          "duration": 0.21428550000000257
        },
        {
          "name": "E5",
          "midi": 76,
          "time": 44.699062443750115,
          "velocity": 0.7480314960629921,
          "duration": 0.21428550000000257
        },
        {
          "name": "E6",
          "midi": 88,
          "time": 44.699062443750115,
          "velocity": 0.7480314960629921,
          "duration": 0.21428550000000257
        },
        {
          "name": "E7",
          "midi": 100,
          "time": 44.699062443750115,
          "velocity": 0.7480314960629921,
          "duration": 0.21428550000000257
        },
        {
          "name": "E4",
          "midi": 64,
          "time": 45.12763344375012,
          "velocity": 0.7480314960629921,
          "duration": 0.21428550000000257
        },
        {
          "name": "E5",
          "midi": 76,
          "time": 45.12763344375012,
          "velocity": 0.7480314960629921,
          "duration": 0.21428550000000257
        },
        {
          "name": "E6",
          "midi": 88,
          "time": 45.12763344375012,
          "velocity": 0.7480314960629921,
          "duration": 0.21428550000000257
        },
        {
          "name": "E7",
          "midi": 100,
          "time": 45.12763344375012,
          "velocity": 0.7480314960629921,
          "duration": 0.21428550000000257
        },
        {
          "name": "E4",
          "midi": 64,
          "time": 45.34191894375012,
          "velocity": 0.7480314960629921,
          "duration": 0.21428550000000257
        },
        {
          "name": "E5",
          "midi": 76,
          "time": 45.34191894375012,
          "velocity": 0.7480314960629921,
          "duration": 0.21428550000000257
        },
        {
          "name": "E6",
          "midi": 88,
          "time": 45.34191894375012,
          "velocity": 0.7480314960629921,
          "duration": 0.21428550000000257
        },
        {
          "name": "E7",
          "midi": 100,
          "time": 45.34191894375012,
          "velocity": 0.7480314960629921,
          "duration": 0.21428550000000257
        },
        {
          "name": "E4",
          "midi": 64,
          "time": 45.77048994375013,
          "velocity": 0.7480314960629921,
          "duration": 0.21428550000000257
        },
        {
          "name": "E5",
          "midi": 76,
          "time": 45.77048994375013,
          "velocity": 0.7480314960629921,
          "duration": 0.21428550000000257
        },
        {
          "name": "E6",
          "midi": 88,
          "time": 45.77048994375013,
          "velocity": 0.7480314960629921,
          "duration": 0.21428550000000257
        },
        {
          "name": "E7",
          "midi": 100,
          "time": 45.77048994375013,
          "velocity": 0.7480314960629921,
          "duration": 0.21428550000000257
        },
        {
          "name": "E4",
          "midi": 64,
          "time": 46.19906094375013,
          "velocity": 0.7480314960629921,
          "duration": 0.21428550000000257
        },
        {
          "name": "E5",
          "midi": 76,
          "time": 46.19906094375013,
          "velocity": 0.7480314960629921,
          "duration": 0.21428550000000257
        },
        {
          "name": "E6",
          "midi": 88,
          "time": 46.19906094375013,
          "velocity": 0.7480314960629921,
          "duration": 0.21428550000000257
        },
        {
          "name": "E7",
          "midi": 100,
          "time": 46.19906094375013,
          "velocity": 0.7480314960629921,
          "duration": 0.21428550000000257
        },
        {
          "name": "E4",
          "midi": 64,
          "time": 46.413346443750136,
          "velocity": 0.7480314960629921,
          "duration": 0.10714275000000129
        },
        {
          "name": "E5",
          "midi": 76,
          "time": 46.413346443750136,
          "velocity": 0.7480314960629921,
          "duration": 0.10714275000000129
        },
        {
          "name": "E6",
          "midi": 88,
          "time": 46.413346443750136,
          "velocity": 0.7480314960629921,
          "duration": 0.10714275000000129
        },
        {
          "name": "E7",
          "midi": 100,
          "time": 46.413346443750136,
          "velocity": 0.7480314960629921,
          "duration": 0.10714275000000129
        },
        {
          "name": "E4",
          "midi": 64,
          "time": 46.52048919375014,
          "velocity": 0.7480314960629921,
          "duration": 0.10714275000000129
        },
        {
          "name": "E5",
          "midi": 76,
          "time": 46.52048919375014,
          "velocity": 0.7480314960629921,
          "duration": 0.10714275000000129
        },
        {
          "name": "E6",
          "midi": 88,
          "time": 46.52048919375014,
          "velocity": 0.7480314960629921,
          "duration": 0.10714275000000129
        },
        {
          "name": "E7",
          "midi": 100,
          "time": 46.52048919375014,
          "velocity": 0.7480314960629921,
          "duration": 0.10714275000000129
        },
        {
          "name": "E4",
          "midi": 64,
          "time": 46.62763194375014,
          "velocity": 0.7480314960629921,
          "duration": 0.10714275000000129
        },
        {
          "name": "E5",
          "midi": 76,
          "time": 46.62763194375014,
          "velocity": 0.7480314960629921,
          "duration": 0.10714275000000129
        },
        {
          "name": "E6",
          "midi": 88,
          "time": 46.62763194375014,
          "velocity": 0.7480314960629921,
          "duration": 0.10714275000000129
        },
        {
          "name": "E7",
          "midi": 100,
          "time": 46.62763194375014,
          "velocity": 0.7480314960629921,
          "duration": 0.10714275000000129
        },
        {
          "name": "E4",
          "midi": 64,
          "time": 46.84191744375014,
          "velocity": 0.7480314960629921,
          "duration": 0.21428550000000257
        },
        {
          "name": "E5",
          "midi": 76,
          "time": 46.84191744375014,
          "velocity": 0.7480314960629921,
          "duration": 0.21428550000000257
        },
        {
          "name": "E6",
          "midi": 88,
          "time": 46.84191744375014,
          "velocity": 0.7480314960629921,
          "duration": 0.21428550000000257
        },
        {
          "name": "E7",
          "midi": 100,
          "time": 46.84191744375014,
          "velocity": 0.7480314960629921,
          "duration": 0.21428550000000257
        },
        {
          "name": "E4",
          "midi": 64,
          "time": 47.056202943750144,
          "velocity": 0.7480314960629921,
          "duration": 0.21428550000000257
        },
        {
          "name": "E5",
          "midi": 76,
          "time": 47.056202943750144,
          "velocity": 0.7480314960629921,
          "duration": 0.21428550000000257
        },
        {
          "name": "E6",
          "midi": 88,
          "time": 47.056202943750144,
          "velocity": 0.7480314960629921,
          "duration": 0.21428550000000257
        },
        {
          "name": "E7",
          "midi": 100,
          "time": 47.056202943750144,
          "velocity": 0.7480314960629921,
          "duration": 0.21428550000000257
        },
        {
          "name": "E4",
          "midi": 64,
          "time": 47.48477394375015,
          "velocity": 0.7480314960629921,
          "duration": 0.21428550000000257
        },
        {
          "name": "E5",
          "midi": 76,
          "time": 47.48477394375015,
          "velocity": 0.7480314960629921,
          "duration": 0.21428550000000257
        },
        {
          "name": "E6",
          "midi": 88,
          "time": 47.48477394375015,
          "velocity": 0.7480314960629921,
          "duration": 0.21428550000000257
        },
        {
          "name": "E7",
          "midi": 100,
          "time": 47.48477394375015,
          "velocity": 0.7480314960629921,
          "duration": 0.21428550000000257
        },
        {
          "name": "E4",
          "midi": 64,
          "time": 48.12763044375015,
          "velocity": 0.7480314960629921,
          "duration": 0.21428550000000257
        },
        {
          "name": "E5",
          "midi": 76,
          "time": 48.12763044375015,
          "velocity": 0.7480314960629921,
          "duration": 0.21428550000000257
        },
        {
          "name": "E6",
          "midi": 88,
          "time": 48.12763044375015,
          "velocity": 0.7480314960629921,
          "duration": 0.21428550000000257
        },
        {
          "name": "E7",
          "midi": 100,
          "time": 48.12763044375015,
          "velocity": 0.7480314960629921,
          "duration": 0.21428550000000257
        },
        {
          "name": "E4",
          "midi": 64,
          "time": 48.556201443750155,
          "velocity": 0.7480314960629921,
          "duration": 0.21428550000000257
        },
        {
          "name": "E5",
          "midi": 76,
          "time": 48.556201443750155,
          "velocity": 0.7480314960629921,
          "duration": 0.21428550000000257
        },
        {
          "name": "E6",
          "midi": 88,
          "time": 48.556201443750155,
          "velocity": 0.7480314960629921,
          "duration": 0.21428550000000257
        },
        {
          "name": "E7",
          "midi": 100,
          "time": 48.556201443750155,
          "velocity": 0.7480314960629921,
          "duration": 0.21428550000000257
        },
        {
          "name": "E4",
          "midi": 64,
          "time": 48.77048694375016,
          "velocity": 0.7480314960629921,
          "duration": 0.21428550000000257
        },
        {
          "name": "E5",
          "midi": 76,
          "time": 48.77048694375016,
          "velocity": 0.7480314960629921,
          "duration": 0.21428550000000257
        },
        {
          "name": "E6",
          "midi": 88,
          "time": 48.77048694375016,
          "velocity": 0.7480314960629921,
          "duration": 0.21428550000000257
        },
        {
          "name": "E7",
          "midi": 100,
          "time": 48.77048694375016,
          "velocity": 0.7480314960629921,
          "duration": 0.21428550000000257
        },
        {
          "name": "E4",
          "midi": 64,
          "time": 49.19905794375016,
          "velocity": 0.7480314960629921,
          "duration": 0.21428550000000257
        },
        {
          "name": "E5",
          "midi": 76,
          "time": 49.19905794375016,
          "velocity": 0.7480314960629921,
          "duration": 0.21428550000000257
        },
        {
          "name": "E6",
          "midi": 88,
          "time": 49.19905794375016,
          "velocity": 0.7480314960629921,
          "duration": 0.21428550000000257
        },
        {
          "name": "E7",
          "midi": 100,
          "time": 49.19905794375016,
          "velocity": 0.7480314960629921,
          "duration": 0.21428550000000257
        },
        {
          "name": "E4",
          "midi": 64,
          "time": 49.62762894375017,
          "velocity": 0.7480314960629921,
          "duration": 0.21428550000000257
        },
        {
          "name": "E5",
          "midi": 76,
          "time": 49.62762894375017,
          "velocity": 0.7480314960629921,
          "duration": 0.21428550000000257
        },
        {
          "name": "E6",
          "midi": 88,
          "time": 49.62762894375017,
          "velocity": 0.7480314960629921,
          "duration": 0.21428550000000257
        },
        {
          "name": "E7",
          "midi": 100,
          "time": 49.62762894375017,
          "velocity": 0.7480314960629921,
          "duration": 0.21428550000000257
        },
        {
          "name": "E4",
          "midi": 64,
          "time": 49.84191444375017,
          "velocity": 0.7480314960629921,
          "duration": 0.10714275000000129
        },
        {
          "name": "E5",
          "midi": 76,
          "time": 49.84191444375017,
          "velocity": 0.7480314960629921,
          "duration": 0.10714275000000129
        },
        {
          "name": "E6",
          "midi": 88,
          "time": 49.84191444375017,
          "velocity": 0.7480314960629921,
          "duration": 0.10714275000000129
        },
        {
          "name": "E7",
          "midi": 100,
          "time": 49.84191444375017,
          "velocity": 0.7480314960629921,
          "duration": 0.10714275000000129
        },
        {
          "name": "E4",
          "midi": 64,
          "time": 49.94905719375017,
          "velocity": 0.7480314960629921,
          "duration": 0.10714275000000129
        },
        {
          "name": "E5",
          "midi": 76,
          "time": 49.94905719375017,
          "velocity": 0.7480314960629921,
          "duration": 0.10714275000000129
        },
        {
          "name": "E6",
          "midi": 88,
          "time": 49.94905719375017,
          "velocity": 0.7480314960629921,
          "duration": 0.10714275000000129
        },
        {
          "name": "E7",
          "midi": 100,
          "time": 49.94905719375017,
          "velocity": 0.7480314960629921,
          "duration": 0.10714275000000129
        },
        {
          "name": "E4",
          "midi": 64,
          "time": 50.05619994375017,
          "velocity": 0.7480314960629921,
          "duration": 0.10714275000000129
        },
        {
          "name": "E5",
          "midi": 76,
          "time": 50.05619994375017,
          "velocity": 0.7480314960629921,
          "duration": 0.10714275000000129
        },
        {
          "name": "E6",
          "midi": 88,
          "time": 50.05619994375017,
          "velocity": 0.7480314960629921,
          "duration": 0.10714275000000129
        },
        {
          "name": "E7",
          "midi": 100,
          "time": 50.05619994375017,
          "velocity": 0.7480314960629921,
          "duration": 0.10714275000000129
        },
        {
          "name": "E4",
          "midi": 64,
          "time": 50.270485443750175,
          "velocity": 0.7480314960629921,
          "duration": 0.21428550000000257
        },
        {
          "name": "E5",
          "midi": 76,
          "time": 50.270485443750175,
          "velocity": 0.7480314960629921,
          "duration": 0.21428550000000257
        },
        {
          "name": "E6",
          "midi": 88,
          "time": 50.270485443750175,
          "velocity": 0.7480314960629921,
          "duration": 0.21428550000000257
        },
        {
          "name": "E7",
          "midi": 100,
          "time": 50.270485443750175,
          "velocity": 0.7480314960629921,
          "duration": 0.21428550000000257
        },
        {
          "name": "E4",
          "midi": 64,
          "time": 50.48477094375018,
          "velocity": 0.7480314960629921,
          "duration": 0.21428550000000257
        },
        {
          "name": "E5",
          "midi": 76,
          "time": 50.48477094375018,
          "velocity": 0.7480314960629921,
          "duration": 0.21428550000000257
        },
        {
          "name": "E6",
          "midi": 88,
          "time": 50.48477094375018,
          "velocity": 0.7480314960629921,
          "duration": 0.21428550000000257
        },
        {
          "name": "E7",
          "midi": 100,
          "time": 50.48477094375018,
          "velocity": 0.7480314960629921,
          "duration": 0.21428550000000257
        },
        {
          "name": "E4",
          "midi": 64,
          "time": 50.91334194375018,
          "velocity": 0.7480314960629921,
          "duration": 0.21428550000000257
        },
        {
          "name": "E5",
          "midi": 76,
          "time": 50.91334194375018,
          "velocity": 0.7480314960629921,
          "duration": 0.21428550000000257
        },
        {
          "name": "E6",
          "midi": 88,
          "time": 50.91334194375018,
          "velocity": 0.7480314960629921,
          "duration": 0.21428550000000257
        },
        {
          "name": "E7",
          "midi": 100,
          "time": 50.91334194375018,
          "velocity": 0.7480314960629921,
          "duration": 0.21428550000000257
        },
        {
          "name": "E4",
          "midi": 64,
          "time": 51.55619844375018,
          "velocity": 0.7480314960629921,
          "duration": 0.21428550000000257
        },
        {
          "name": "E5",
          "midi": 76,
          "time": 51.55619844375018,
          "velocity": 0.7480314960629921,
          "duration": 0.21428550000000257
        },
        {
          "name": "E6",
          "midi": 88,
          "time": 51.55619844375018,
          "velocity": 0.7480314960629921,
          "duration": 0.21428550000000257
        },
        {
          "name": "E7",
          "midi": 100,
          "time": 51.55619844375018,
          "velocity": 0.7480314960629921,
          "duration": 0.21428550000000257
        },
        {
          "name": "E4",
          "midi": 64,
          "time": 51.98476944375019,
          "velocity": 0.7480314960629921,
          "duration": 0.21428550000000257
        },
        {
          "name": "E5",
          "midi": 76,
          "time": 51.98476944375019,
          "velocity": 0.7480314960629921,
          "duration": 0.21428550000000257
        },
        {
          "name": "E6",
          "midi": 88,
          "time": 51.98476944375019,
          "velocity": 0.7480314960629921,
          "duration": 0.21428550000000257
        },
        {
          "name": "E7",
          "midi": 100,
          "time": 51.98476944375019,
          "velocity": 0.7480314960629921,
          "duration": 0.21428550000000257
        },
        {
          "name": "E4",
          "midi": 64,
          "time": 52.19905494375019,
          "velocity": 0.7480314960629921,
          "duration": 0.21428550000000257
        },
        {
          "name": "E5",
          "midi": 76,
          "time": 52.19905494375019,
          "velocity": 0.7480314960629921,
          "duration": 0.21428550000000257
        },
        {
          "name": "E6",
          "midi": 88,
          "time": 52.19905494375019,
          "velocity": 0.7480314960629921,
          "duration": 0.21428550000000257
        },
        {
          "name": "E7",
          "midi": 100,
          "time": 52.19905494375019,
          "velocity": 0.7480314960629921,
          "duration": 0.21428550000000257
        },
        {
          "name": "E4",
          "midi": 64,
          "time": 52.627625943750196,
          "velocity": 0.7480314960629921,
          "duration": 0.21428550000000257
        },
        {
          "name": "E5",
          "midi": 76,
          "time": 52.627625943750196,
          "velocity": 0.7480314960629921,
          "duration": 0.21428550000000257
        },
        {
          "name": "E6",
          "midi": 88,
          "time": 52.627625943750196,
          "velocity": 0.7480314960629921,
          "duration": 0.21428550000000257
        },
        {
          "name": "E7",
          "midi": 100,
          "time": 52.627625943750196,
          "velocity": 0.7480314960629921,
          "duration": 0.21428550000000257
        },
        {
          "name": "E4",
          "midi": 64,
          "time": 53.0561969437502,
          "velocity": 0.7480314960629921,
          "duration": 0.21428550000000257
        },
        {
          "name": "E5",
          "midi": 76,
          "time": 53.0561969437502,
          "velocity": 0.7480314960629921,
          "duration": 0.21428550000000257
        },
        {
          "name": "E6",
          "midi": 88,
          "time": 53.0561969437502,
          "velocity": 0.7480314960629921,
          "duration": 0.21428550000000257
        },
        {
          "name": "E7",
          "midi": 100,
          "time": 53.0561969437502,
          "velocity": 0.7480314960629921,
          "duration": 0.21428550000000257
        },
        {
          "name": "E4",
          "midi": 64,
          "time": 53.270482443750204,
          "velocity": 0.7480314960629921,
          "duration": 0.10714275000000129
        },
        {
          "name": "E5",
          "midi": 76,
          "time": 53.270482443750204,
          "velocity": 0.7480314960629921,
          "duration": 0.10714275000000129
        },
        {
          "name": "E6",
          "midi": 88,
          "time": 53.270482443750204,
          "velocity": 0.7480314960629921,
          "duration": 0.10714275000000129
        },
        {
          "name": "E7",
          "midi": 100,
          "time": 53.270482443750204,
          "velocity": 0.7480314960629921,
          "duration": 0.10714275000000129
        },
        {
          "name": "E4",
          "midi": 64,
          "time": 53.377625193750205,
          "velocity": 0.7480314960629921,
          "duration": 0.10714275000000129
        },
        {
          "name": "E5",
          "midi": 76,
          "time": 53.377625193750205,
          "velocity": 0.7480314960629921,
          "duration": 0.10714275000000129
        },
        {
          "name": "E6",
          "midi": 88,
          "time": 53.377625193750205,
          "velocity": 0.7480314960629921,
          "duration": 0.10714275000000129
        },
        {
          "name": "E7",
          "midi": 100,
          "time": 53.377625193750205,
          "velocity": 0.7480314960629921,
          "duration": 0.10714275000000129
        },
        {
          "name": "E4",
          "midi": 64,
          "time": 53.48476794375021,
          "velocity": 0.7480314960629921,
          "duration": 0.10714275000000129
        },
        {
          "name": "E5",
          "midi": 76,
          "time": 53.48476794375021,
          "velocity": 0.7480314960629921,
          "duration": 0.10714275000000129
        },
        {
          "name": "E6",
          "midi": 88,
          "time": 53.48476794375021,
          "velocity": 0.7480314960629921,
          "duration": 0.10714275000000129
        },
        {
          "name": "E7",
          "midi": 100,
          "time": 53.48476794375021,
          "velocity": 0.7480314960629921,
          "duration": 0.10714275000000129
        },
        {
          "name": "E4",
          "midi": 64,
          "time": 53.69905344375021,
          "velocity": 0.7480314960629921,
          "duration": 0.21428550000000257
        },
        {
          "name": "E5",
          "midi": 76,
          "time": 53.69905344375021,
          "velocity": 0.7480314960629921,
          "duration": 0.21428550000000257
        },
        {
          "name": "E6",
          "midi": 88,
          "time": 53.69905344375021,
          "velocity": 0.7480314960629921,
          "duration": 0.21428550000000257
        },
        {
          "name": "E7",
          "midi": 100,
          "time": 53.69905344375021,
          "velocity": 0.7480314960629921,
          "duration": 0.21428550000000257
        },
        {
          "name": "E4",
          "midi": 64,
          "time": 53.91333894375021,
          "velocity": 0.7480314960629921,
          "duration": 0.21428550000000257
        },
        {
          "name": "E5",
          "midi": 76,
          "time": 53.91333894375021,
          "velocity": 0.7480314960629921,
          "duration": 0.21428550000000257
        },
        {
          "name": "E6",
          "midi": 88,
          "time": 53.91333894375021,
          "velocity": 0.7480314960629921,
          "duration": 0.21428550000000257
        },
        {
          "name": "E7",
          "midi": 100,
          "time": 53.91333894375021,
          "velocity": 0.7480314960629921,
          "duration": 0.21428550000000257
        },
        {
          "name": "E4",
          "midi": 64,
          "time": 54.34190994375022,
          "velocity": 0.7480314960629921,
          "duration": 0.21428550000000257
        },
        {
          "name": "E5",
          "midi": 76,
          "time": 54.34190994375022,
          "velocity": 0.7480314960629921,
          "duration": 0.21428550000000257
        },
        {
          "name": "E6",
          "midi": 88,
          "time": 54.34190994375022,
          "velocity": 0.7480314960629921,
          "duration": 0.21428550000000257
        },
        {
          "name": "E7",
          "midi": 100,
          "time": 54.34190994375022,
          "velocity": 0.7480314960629921,
          "duration": 0.21428550000000257
        },
        {
          "name": "E4",
          "midi": 64,
          "time": 54.98476644375022,
          "velocity": 0.7480314960629921,
          "duration": 0.21428550000000257
        },
        {
          "name": "E5",
          "midi": 76,
          "time": 54.98476644375022,
          "velocity": 0.7480314960629921,
          "duration": 0.21428550000000257
        },
        {
          "name": "E6",
          "midi": 88,
          "time": 54.98476644375022,
          "velocity": 0.7480314960629921,
          "duration": 0.21428550000000257
        },
        {
          "name": "E7",
          "midi": 100,
          "time": 54.98476644375022,
          "velocity": 0.7480314960629921,
          "duration": 0.21428550000000257
        },
        {
          "name": "E4",
          "midi": 64,
          "time": 55.19905194375022,
          "velocity": 0.7480314960629921,
          "duration": 0.21428550000000257
        },
        {
          "name": "E5",
          "midi": 76,
          "time": 55.19905194375022,
          "velocity": 0.7480314960629921,
          "duration": 0.21428550000000257
        },
        {
          "name": "E6",
          "midi": 88,
          "time": 55.19905194375022,
          "velocity": 0.7480314960629921,
          "duration": 0.21428550000000257
        },
        {
          "name": "E7",
          "midi": 100,
          "time": 55.19905194375022,
          "velocity": 0.7480314960629921,
          "duration": 0.21428550000000257
        },
        {
          "name": "E4",
          "midi": 64,
          "time": 55.41333744375022,
          "velocity": 0.7480314960629921,
          "duration": 0.21428550000000257
        },
        {
          "name": "E5",
          "midi": 76,
          "time": 55.41333744375022,
          "velocity": 0.7480314960629921,
          "duration": 0.21428550000000257
        },
        {
          "name": "E6",
          "midi": 88,
          "time": 55.41333744375022,
          "velocity": 0.7480314960629921,
          "duration": 0.21428550000000257
        },
        {
          "name": "E7",
          "midi": 100,
          "time": 55.41333744375022,
          "velocity": 0.7480314960629921,
          "duration": 0.21428550000000257
        },
        {
          "name": "E4",
          "midi": 64,
          "time": 55.627622943750225,
          "velocity": 0.7480314960629921,
          "duration": 0.21428550000000257
        },
        {
          "name": "E5",
          "midi": 76,
          "time": 55.627622943750225,
          "velocity": 0.7480314960629921,
          "duration": 0.21428550000000257
        },
        {
          "name": "E6",
          "midi": 88,
          "time": 55.627622943750225,
          "velocity": 0.7480314960629921,
          "duration": 0.21428550000000257
        },
        {
          "name": "E7",
          "midi": 100,
          "time": 55.627622943750225,
          "velocity": 0.7480314960629921,
          "duration": 0.21428550000000257
        },
        {
          "name": "E4",
          "midi": 64,
          "time": 55.84190844375023,
          "velocity": 0.7480314960629921,
          "duration": 0.21428550000000257
        },
        {
          "name": "E5",
          "midi": 76,
          "time": 55.84190844375023,
          "velocity": 0.7480314960629921,
          "duration": 0.21428550000000257
        },
        {
          "name": "E6",
          "midi": 88,
          "time": 55.84190844375023,
          "velocity": 0.7480314960629921,
          "duration": 0.21428550000000257
        },
        {
          "name": "E7",
          "midi": 100,
          "time": 55.84190844375023,
          "velocity": 0.7480314960629921,
          "duration": 0.21428550000000257
        },
        {
          "name": "E4",
          "midi": 64,
          "time": 56.05619394375023,
          "velocity": 0.7480314960629921,
          "duration": 0.21428550000000257
        },
        {
          "name": "E5",
          "midi": 76,
          "time": 56.05619394375023,
          "velocity": 0.7480314960629921,
          "duration": 0.21428550000000257
        },
        {
          "name": "E6",
          "midi": 88,
          "time": 56.05619394375023,
          "velocity": 0.7480314960629921,
          "duration": 0.21428550000000257
        },
        {
          "name": "E7",
          "midi": 100,
          "time": 56.05619394375023,
          "velocity": 0.7480314960629921,
          "duration": 0.21428550000000257
        },
        {
          "name": "E4",
          "midi": 64,
          "time": 56.27047944375023,
          "velocity": 0.7480314960629921,
          "duration": 0.21428550000000257
        },
        {
          "name": "E5",
          "midi": 76,
          "time": 56.27047944375023,
          "velocity": 0.7480314960629921,
          "duration": 0.21428550000000257
        },
        {
          "name": "E6",
          "midi": 88,
          "time": 56.27047944375023,
          "velocity": 0.7480314960629921,
          "duration": 0.21428550000000257
        },
        {
          "name": "E7",
          "midi": 100,
          "time": 56.27047944375023,
          "velocity": 0.7480314960629921,
          "duration": 0.21428550000000257
        },
        {
          "name": "E4",
          "midi": 64,
          "time": 56.484764943750235,
          "velocity": 0.7480314960629921,
          "duration": 0.21428550000000257
        },
        {
          "name": "E5",
          "midi": 76,
          "time": 56.484764943750235,
          "velocity": 0.7480314960629921,
          "duration": 0.21428550000000257
        },
        {
          "name": "E6",
          "midi": 88,
          "time": 56.484764943750235,
          "velocity": 0.7480314960629921,
          "duration": 0.21428550000000257
        },
        {
          "name": "E7",
          "midi": 100,
          "time": 56.484764943750235,
          "velocity": 0.7480314960629921,
          "duration": 0.21428550000000257
        },
        {
          "name": "E4",
          "midi": 64,
          "time": 56.69905044375024,
          "velocity": 0.7480314960629921,
          "duration": 0.21428550000000257
        },
        {
          "name": "E5",
          "midi": 76,
          "time": 56.69905044375024,
          "velocity": 0.7480314960629921,
          "duration": 0.21428550000000257
        },
        {
          "name": "E6",
          "midi": 88,
          "time": 56.69905044375024,
          "velocity": 0.7480314960629921,
          "duration": 0.21428550000000257
        },
        {
          "name": "E7",
          "midi": 100,
          "time": 56.69905044375024,
          "velocity": 0.7480314960629921,
          "duration": 0.21428550000000257
        },
        {
          "name": "E4",
          "midi": 64,
          "time": 56.91333594375024,
          "velocity": 0.7480314960629921,
          "duration": 0.21428550000000257
        },
        {
          "name": "E5",
          "midi": 76,
          "time": 56.91333594375024,
          "velocity": 0.7480314960629921,
          "duration": 0.21428550000000257
        },
        {
          "name": "E6",
          "midi": 88,
          "time": 56.91333594375024,
          "velocity": 0.7480314960629921,
          "duration": 0.21428550000000257
        },
        {
          "name": "E7",
          "midi": 100,
          "time": 56.91333594375024,
          "velocity": 0.7480314960629921,
          "duration": 0.21428550000000257
        },
        {
          "name": "E4",
          "midi": 64,
          "time": 57.12762144375024,
          "velocity": 0.7480314960629921,
          "duration": 0.21428550000000257
        },
        {
          "name": "E5",
          "midi": 76,
          "time": 57.12762144375024,
          "velocity": 0.7480314960629921,
          "duration": 0.21428550000000257
        },
        {
          "name": "E6",
          "midi": 88,
          "time": 57.12762144375024,
          "velocity": 0.7480314960629921,
          "duration": 0.21428550000000257
        },
        {
          "name": "E7",
          "midi": 100,
          "time": 57.12762144375024,
          "velocity": 0.7480314960629921,
          "duration": 0.21428550000000257
        },
        {
          "name": "E4",
          "midi": 64,
          "time": 57.341906943750246,
          "velocity": 0.7480314960629921,
          "duration": 0.21428550000000257
        },
        {
          "name": "E5",
          "midi": 76,
          "time": 57.341906943750246,
          "velocity": 0.7480314960629921,
          "duration": 0.21428550000000257
        },
        {
          "name": "E6",
          "midi": 88,
          "time": 57.341906943750246,
          "velocity": 0.7480314960629921,
          "duration": 0.21428550000000257
        },
        {
          "name": "E7",
          "midi": 100,
          "time": 57.341906943750246,
          "velocity": 0.7480314960629921,
          "duration": 0.21428550000000257
        },
        {
          "name": "E4",
          "midi": 64,
          "time": 57.55619244375025,
          "velocity": 0.7480314960629921,
          "duration": 0.21428550000000257
        },
        {
          "name": "E5",
          "midi": 76,
          "time": 57.55619244375025,
          "velocity": 0.7480314960629921,
          "duration": 0.21428550000000257
        },
        {
          "name": "E6",
          "midi": 88,
          "time": 57.55619244375025,
          "velocity": 0.7480314960629921,
          "duration": 0.21428550000000257
        },
        {
          "name": "E7",
          "midi": 100,
          "time": 57.55619244375025,
          "velocity": 0.7480314960629921,
          "duration": 0.21428550000000257
        },
        {
          "name": "E4",
          "midi": 64,
          "time": 57.77047794375025,
          "velocity": 0.7480314960629921,
          "duration": 0.21428550000000257
        },
        {
          "name": "E5",
          "midi": 76,
          "time": 57.77047794375025,
          "velocity": 0.7480314960629921,
          "duration": 0.21428550000000257
        },
        {
          "name": "E6",
          "midi": 88,
          "time": 57.77047794375025,
          "velocity": 0.7480314960629921,
          "duration": 0.21428550000000257
        },
        {
          "name": "E7",
          "midi": 100,
          "time": 57.77047794375025,
          "velocity": 0.7480314960629921,
          "duration": 0.21428550000000257
        },
        {
          "name": "E4",
          "midi": 64,
          "time": 57.98476344375025,
          "velocity": 0.7480314960629921,
          "duration": 0.21428550000000257
        },
        {
          "name": "E5",
          "midi": 76,
          "time": 57.98476344375025,
          "velocity": 0.7480314960629921,
          "duration": 0.21428550000000257
        },
        {
          "name": "E6",
          "midi": 88,
          "time": 57.98476344375025,
          "velocity": 0.7480314960629921,
          "duration": 0.21428550000000257
        },
        {
          "name": "E7",
          "midi": 100,
          "time": 57.98476344375025,
          "velocity": 0.7480314960629921,
          "duration": 0.21428550000000257
        },
        {
          "name": "E4",
          "midi": 64,
          "time": 58.199048943750256,
          "velocity": 0.7480314960629921,
          "duration": 0.21428550000000257
        },
        {
          "name": "E5",
          "midi": 76,
          "time": 58.199048943750256,
          "velocity": 0.7480314960629921,
          "duration": 0.21428550000000257
        },
        {
          "name": "E6",
          "midi": 88,
          "time": 58.199048943750256,
          "velocity": 0.7480314960629921,
          "duration": 0.21428550000000257
        },
        {
          "name": "E7",
          "midi": 100,
          "time": 58.199048943750256,
          "velocity": 0.7480314960629921,
          "duration": 0.21428550000000257
        },
        {
          "name": "E4",
          "midi": 64,
          "time": 58.41333444375026,
          "velocity": 0.7480314960629921,
          "duration": 0.21428550000000257
        },
        {
          "name": "E5",
          "midi": 76,
          "time": 58.41333444375026,
          "velocity": 0.7480314960629921,
          "duration": 0.21428550000000257
        },
        {
          "name": "E6",
          "midi": 88,
          "time": 58.41333444375026,
          "velocity": 0.7480314960629921,
          "duration": 0.21428550000000257
        },
        {
          "name": "E7",
          "midi": 100,
          "time": 58.41333444375026,
          "velocity": 0.7480314960629921,
          "duration": 0.21428550000000257
        },
        {
          "name": "E4",
          "midi": 64,
          "time": 58.62761994375026,
          "velocity": 0.7480314960629921,
          "duration": 0.21428550000000257
        },
        {
          "name": "E5",
          "midi": 76,
          "time": 58.62761994375026,
          "velocity": 0.7480314960629921,
          "duration": 0.21428550000000257
        },
        {
          "name": "E6",
          "midi": 88,
          "time": 58.62761994375026,
          "velocity": 0.7480314960629921,
          "duration": 0.21428550000000257
        },
        {
          "name": "E7",
          "midi": 100,
          "time": 58.62761994375026,
          "velocity": 0.7480314960629921,
          "duration": 0.21428550000000257
        },
        {
          "name": "E4",
          "midi": 64,
          "time": 58.841905443750264,
          "velocity": 0.7480314960629921,
          "duration": 0.21428550000000257
        },
        {
          "name": "E5",
          "midi": 76,
          "time": 58.841905443750264,
          "velocity": 0.7480314960629921,
          "duration": 0.21428550000000257
        },
        {
          "name": "E6",
          "midi": 88,
          "time": 58.841905443750264,
          "velocity": 0.7480314960629921,
          "duration": 0.21428550000000257
        },
        {
          "name": "E7",
          "midi": 100,
          "time": 58.841905443750264,
          "velocity": 0.7480314960629921,
          "duration": 0.21428550000000257
        },
        {
          "name": "E4",
          "midi": 64,
          "time": 59.056190943750266,
          "velocity": 0.7480314960629921,
          "duration": 0.21428550000000257
        },
        {
          "name": "E5",
          "midi": 76,
          "time": 59.056190943750266,
          "velocity": 0.7480314960629921,
          "duration": 0.21428550000000257
        },
        {
          "name": "E6",
          "midi": 88,
          "time": 59.056190943750266,
          "velocity": 0.7480314960629921,
          "duration": 0.21428550000000257
        },
        {
          "name": "E7",
          "midi": 100,
          "time": 59.056190943750266,
          "velocity": 0.7480314960629921,
          "duration": 0.21428550000000257
        },
        {
          "name": "E4",
          "midi": 64,
          "time": 59.27047644375027,
          "velocity": 0.7480314960629921,
          "duration": 0.21428550000000257
        },
        {
          "name": "E5",
          "midi": 76,
          "time": 59.27047644375027,
          "velocity": 0.7480314960629921,
          "duration": 0.21428550000000257
        },
        {
          "name": "E6",
          "midi": 88,
          "time": 59.27047644375027,
          "velocity": 0.7480314960629921,
          "duration": 0.21428550000000257
        },
        {
          "name": "E7",
          "midi": 100,
          "time": 59.27047644375027,
          "velocity": 0.7480314960629921,
          "duration": 0.21428550000000257
        },
        {
          "name": "E4",
          "midi": 64,
          "time": 59.48476194375027,
          "velocity": 0.7480314960629921,
          "duration": 0.21428550000000257
        },
        {
          "name": "E5",
          "midi": 76,
          "time": 59.48476194375027,
          "velocity": 0.7480314960629921,
          "duration": 0.21428550000000257
        },
        {
          "name": "E6",
          "midi": 88,
          "time": 59.48476194375027,
          "velocity": 0.7480314960629921,
          "duration": 0.21428550000000257
        },
        {
          "name": "E7",
          "midi": 100,
          "time": 59.48476194375027,
          "velocity": 0.7480314960629921,
          "duration": 0.21428550000000257
        },
        {
          "name": "E4",
          "midi": 64,
          "time": 59.699047443750274,
          "velocity": 0.7480314960629921,
          "duration": 0.21428550000000257
        },
        {
          "name": "E5",
          "midi": 76,
          "time": 59.699047443750274,
          "velocity": 0.7480314960629921,
          "duration": 0.21428550000000257
        },
        {
          "name": "E6",
          "midi": 88,
          "time": 59.699047443750274,
          "velocity": 0.7480314960629921,
          "duration": 0.21428550000000257
        },
        {
          "name": "E7",
          "midi": 100,
          "time": 59.699047443750274,
          "velocity": 0.7480314960629921,
          "duration": 0.21428550000000257
        },
        {
          "name": "E4",
          "midi": 64,
          "time": 59.91333294375028,
          "velocity": 0.7480314960629921,
          "duration": 0.21428550000000257
        },
        {
          "name": "E5",
          "midi": 76,
          "time": 59.91333294375028,
          "velocity": 0.7480314960629921,
          "duration": 0.21428550000000257
        },
        {
          "name": "E6",
          "midi": 88,
          "time": 59.91333294375028,
          "velocity": 0.7480314960629921,
          "duration": 0.21428550000000257
        },
        {
          "name": "E7",
          "midi": 100,
          "time": 59.91333294375028,
          "velocity": 0.7480314960629921,
          "duration": 0.21428550000000257
        },
        {
          "name": "E4",
          "midi": 64,
          "time": 60.12761844375028,
          "velocity": 0.7480314960629921,
          "duration": 0.21428550000000257
        },
        {
          "name": "E5",
          "midi": 76,
          "time": 60.12761844375028,
          "velocity": 0.7480314960629921,
          "duration": 0.21428550000000257
        },
        {
          "name": "E6",
          "midi": 88,
          "time": 60.12761844375028,
          "velocity": 0.7480314960629921,
          "duration": 0.21428550000000257
        },
        {
          "name": "E7",
          "midi": 100,
          "time": 60.12761844375028,
          "velocity": 0.7480314960629921,
          "duration": 0.21428550000000257
        },
        {
          "name": "E4",
          "midi": 64,
          "time": 60.34190394375028,
          "velocity": 0.7480314960629921,
          "duration": 0.21428550000000257
        },
        {
          "name": "E5",
          "midi": 76,
          "time": 60.34190394375028,
          "velocity": 0.7480314960629921,
          "duration": 0.21428550000000257
        },
        {
          "name": "E6",
          "midi": 88,
          "time": 60.34190394375028,
          "velocity": 0.7480314960629921,
          "duration": 0.21428550000000257
        },
        {
          "name": "E7",
          "midi": 100,
          "time": 60.34190394375028,
          "velocity": 0.7480314960629921,
          "duration": 0.21428550000000257
        },
        {
          "name": "E4",
          "midi": 64,
          "time": 60.556189443750284,
          "velocity": 0.7480314960629921,
          "duration": 0.21428550000000257
        },
        {
          "name": "E5",
          "midi": 76,
          "time": 60.556189443750284,
          "velocity": 0.7480314960629921,
          "duration": 0.21428550000000257
        },
        {
          "name": "E6",
          "midi": 88,
          "time": 60.556189443750284,
          "velocity": 0.7480314960629921,
          "duration": 0.21428550000000257
        },
        {
          "name": "E7",
          "midi": 100,
          "time": 60.556189443750284,
          "velocity": 0.7480314960629921,
          "duration": 0.21428550000000257
        },
        {
          "name": "E4",
          "midi": 64,
          "time": 60.77047494375029,
          "velocity": 0.7480314960629921,
          "duration": 0.21428550000000257
        },
        {
          "name": "E5",
          "midi": 76,
          "time": 60.77047494375029,
          "velocity": 0.7480314960629921,
          "duration": 0.21428550000000257
        },
        {
          "name": "E6",
          "midi": 88,
          "time": 60.77047494375029,
          "velocity": 0.7480314960629921,
          "duration": 0.21428550000000257
        },
        {
          "name": "E7",
          "midi": 100,
          "time": 60.77047494375029,
          "velocity": 0.7480314960629921,
          "duration": 0.21428550000000257
        },
        {
          "name": "E4",
          "midi": 64,
          "time": 60.98476044375029,
          "velocity": 0.7480314960629921,
          "duration": 0.21428550000000257
        },
        {
          "name": "E5",
          "midi": 76,
          "time": 60.98476044375029,
          "velocity": 0.7480314960629921,
          "duration": 0.21428550000000257
        },
        {
          "name": "E6",
          "midi": 88,
          "time": 60.98476044375029,
          "velocity": 0.7480314960629921,
          "duration": 0.21428550000000257
        },
        {
          "name": "E7",
          "midi": 100,
          "time": 60.98476044375029,
          "velocity": 0.7480314960629921,
          "duration": 0.21428550000000257
        },
        {
          "name": "E4",
          "midi": 64,
          "time": 61.19904594375029,
          "velocity": 0.7480314960629921,
          "duration": 0.21428550000000257
        },
        {
          "name": "E5",
          "midi": 76,
          "time": 61.19904594375029,
          "velocity": 0.7480314960629921,
          "duration": 0.21428550000000257
        },
        {
          "name": "E6",
          "midi": 88,
          "time": 61.19904594375029,
          "velocity": 0.7480314960629921,
          "duration": 0.21428550000000257
        },
        {
          "name": "E7",
          "midi": 100,
          "time": 61.19904594375029,
          "velocity": 0.7480314960629921,
          "duration": 0.21428550000000257
        },
        {
          "name": "E4",
          "midi": 64,
          "time": 61.413331443750295,
          "velocity": 0.7480314960629921,
          "duration": 0.21428550000000257
        },
        {
          "name": "E5",
          "midi": 76,
          "time": 61.413331443750295,
          "velocity": 0.7480314960629921,
          "duration": 0.21428550000000257
        },
        {
          "name": "E6",
          "midi": 88,
          "time": 61.413331443750295,
          "velocity": 0.7480314960629921,
          "duration": 0.21428550000000257
        },
        {
          "name": "E7",
          "midi": 100,
          "time": 61.413331443750295,
          "velocity": 0.7480314960629921,
          "duration": 0.21428550000000257
        },
        {
          "name": "E4",
          "midi": 64,
          "time": 61.6276169437503,
          "velocity": 0.7480314960629921,
          "duration": 0.21428550000000257
        },
        {
          "name": "E5",
          "midi": 76,
          "time": 61.6276169437503,
          "velocity": 0.7480314960629921,
          "duration": 0.21428550000000257
        },
        {
          "name": "E6",
          "midi": 88,
          "time": 61.6276169437503,
          "velocity": 0.7480314960629921,
          "duration": 0.21428550000000257
        },
        {
          "name": "E7",
          "midi": 100,
          "time": 61.6276169437503,
          "velocity": 0.7480314960629921,
          "duration": 0.21428550000000257
        },
        {
          "name": "E4",
          "midi": 64,
          "time": 61.8419024437503,
          "velocity": 0.7480314960629921,
          "duration": 0.21428550000000257
        },
        {
          "name": "E5",
          "midi": 76,
          "time": 61.8419024437503,
          "velocity": 0.7480314960629921,
          "duration": 0.21428550000000257
        },
        {
          "name": "E6",
          "midi": 88,
          "time": 61.8419024437503,
          "velocity": 0.7480314960629921,
          "duration": 0.21428550000000257
        },
        {
          "name": "E7",
          "midi": 100,
          "time": 61.8419024437503,
          "velocity": 0.7480314960629921,
          "duration": 0.21428550000000257
        },
        {
          "name": "E4",
          "midi": 64,
          "time": 62.0561879437503,
          "velocity": 0.7480314960629921,
          "duration": 0.21428550000000257
        },
        {
          "name": "E5",
          "midi": 76,
          "time": 62.0561879437503,
          "velocity": 0.7480314960629921,
          "duration": 0.21428550000000257
        },
        {
          "name": "E6",
          "midi": 88,
          "time": 62.0561879437503,
          "velocity": 0.7480314960629921,
          "duration": 0.21428550000000257
        },
        {
          "name": "E7",
          "midi": 100,
          "time": 62.0561879437503,
          "velocity": 0.7480314960629921,
          "duration": 0.21428550000000257
        },
        {
          "name": "E4",
          "midi": 64,
          "time": 62.270473443750305,
          "velocity": 0.7480314960629921,
          "duration": 0.21428550000000257
        },
        {
          "name": "E5",
          "midi": 76,
          "time": 62.270473443750305,
          "velocity": 0.7480314960629921,
          "duration": 0.21428550000000257
        },
        {
          "name": "E6",
          "midi": 88,
          "time": 62.270473443750305,
          "velocity": 0.7480314960629921,
          "duration": 0.21428550000000257
        },
        {
          "name": "E7",
          "midi": 100,
          "time": 62.270473443750305,
          "velocity": 0.7480314960629921,
          "duration": 0.21428550000000257
        },
        {
          "name": "E4",
          "midi": 64,
          "time": 62.48475894375031,
          "velocity": 0.7480314960629921,
          "duration": 0.21428550000000257
        },
        {
          "name": "E5",
          "midi": 76,
          "time": 62.48475894375031,
          "velocity": 0.7480314960629921,
          "duration": 0.21428550000000257
        },
        {
          "name": "E6",
          "midi": 88,
          "time": 62.48475894375031,
          "velocity": 0.7480314960629921,
          "duration": 0.21428550000000257
        },
        {
          "name": "E7",
          "midi": 100,
          "time": 62.48475894375031,
          "velocity": 0.7480314960629921,
          "duration": 0.21428550000000257
        },
        {
          "name": "E4",
          "midi": 64,
          "time": 62.69904444375031,
          "velocity": 0.7480314960629921,
          "duration": 0.21428550000000257
        },
        {
          "name": "E5",
          "midi": 76,
          "time": 62.69904444375031,
          "velocity": 0.7480314960629921,
          "duration": 0.21428550000000257
        },
        {
          "name": "E6",
          "midi": 88,
          "time": 62.69904444375031,
          "velocity": 0.7480314960629921,
          "duration": 0.21428550000000257
        },
        {
          "name": "E7",
          "midi": 100,
          "time": 62.69904444375031,
          "velocity": 0.7480314960629921,
          "duration": 0.21428550000000257
        },
        {
          "name": "E4",
          "midi": 64,
          "time": 62.91332994375031,
          "velocity": 0.7480314960629921,
          "duration": 0.21428550000000257
        },
        {
          "name": "E5",
          "midi": 76,
          "time": 62.91332994375031,
          "velocity": 0.7480314960629921,
          "duration": 0.21428550000000257
        },
        {
          "name": "E6",
          "midi": 88,
          "time": 62.91332994375031,
          "velocity": 0.7480314960629921,
          "duration": 0.21428550000000257
        },
        {
          "name": "E7",
          "midi": 100,
          "time": 62.91332994375031,
          "velocity": 0.7480314960629921,
          "duration": 0.21428550000000257
        },
        {
          "name": "E4",
          "midi": 64,
          "time": 63.127615443750315,
          "velocity": 0.7480314960629921,
          "duration": 0.21428550000000257
        },
        {
          "name": "E5",
          "midi": 76,
          "time": 63.127615443750315,
          "velocity": 0.7480314960629921,
          "duration": 0.21428550000000257
        },
        {
          "name": "E6",
          "midi": 88,
          "time": 63.127615443750315,
          "velocity": 0.7480314960629921,
          "duration": 0.21428550000000257
        },
        {
          "name": "E7",
          "midi": 100,
          "time": 63.127615443750315,
          "velocity": 0.7480314960629921,
          "duration": 0.21428550000000257
        },
        {
          "name": "E4",
          "midi": 64,
          "time": 63.34190094375032,
          "velocity": 0.7480314960629921,
          "duration": 0.21428550000000257
        },
        {
          "name": "E5",
          "midi": 76,
          "time": 63.34190094375032,
          "velocity": 0.7480314960629921,
          "duration": 0.21428550000000257
        },
        {
          "name": "E6",
          "midi": 88,
          "time": 63.34190094375032,
          "velocity": 0.7480314960629921,
          "duration": 0.21428550000000257
        },
        {
          "name": "E7",
          "midi": 100,
          "time": 63.34190094375032,
          "velocity": 0.7480314960629921,
          "duration": 0.21428550000000257
        },
        {
          "name": "E4",
          "midi": 64,
          "time": 63.55618644375032,
          "velocity": 0.7480314960629921,
          "duration": 0.21428550000000257
        },
        {
          "name": "E5",
          "midi": 76,
          "time": 63.55618644375032,
          "velocity": 0.7480314960629921,
          "duration": 0.21428550000000257
        },
        {
          "name": "E6",
          "midi": 88,
          "time": 63.55618644375032,
          "velocity": 0.7480314960629921,
          "duration": 0.21428550000000257
        },
        {
          "name": "E7",
          "midi": 100,
          "time": 63.55618644375032,
          "velocity": 0.7480314960629921,
          "duration": 0.21428550000000257
        },
        {
          "name": "E4",
          "midi": 64,
          "time": 63.77047194375032,
          "velocity": 0.7480314960629921,
          "duration": 0.21428550000000257
        },
        {
          "name": "E5",
          "midi": 76,
          "time": 63.77047194375032,
          "velocity": 0.7480314960629921,
          "duration": 0.21428550000000257
        },
        {
          "name": "E6",
          "midi": 88,
          "time": 63.77047194375032,
          "velocity": 0.7480314960629921,
          "duration": 0.21428550000000257
        },
        {
          "name": "E7",
          "midi": 100,
          "time": 63.77047194375032,
          "velocity": 0.7480314960629921,
          "duration": 0.21428550000000257
        },
        {
          "name": "E4",
          "midi": 64,
          "time": 63.984757443750325,
          "velocity": 0.7480314960629921,
          "duration": 0.21428550000000257
        },
        {
          "name": "E5",
          "midi": 76,
          "time": 63.984757443750325,
          "velocity": 0.7480314960629921,
          "duration": 0.21428550000000257
        },
        {
          "name": "E6",
          "midi": 88,
          "time": 63.984757443750325,
          "velocity": 0.7480314960629921,
          "duration": 0.21428550000000257
        },
        {
          "name": "E7",
          "midi": 100,
          "time": 63.984757443750325,
          "velocity": 0.7480314960629921,
          "duration": 0.21428550000000257
        },
        {
          "name": "E4",
          "midi": 64,
          "time": 64.19904294375033,
          "velocity": 0.7480314960629921,
          "duration": 0.21428550000000257
        },
        {
          "name": "E5",
          "midi": 76,
          "time": 64.19904294375033,
          "velocity": 0.7480314960629921,
          "duration": 0.21428550000000257
        },
        {
          "name": "E6",
          "midi": 88,
          "time": 64.19904294375033,
          "velocity": 0.7480314960629921,
          "duration": 0.21428550000000257
        },
        {
          "name": "E7",
          "midi": 100,
          "time": 64.19904294375033,
          "velocity": 0.7480314960629921,
          "duration": 0.21428550000000257
        },
        {
          "name": "E4",
          "midi": 64,
          "time": 64.41332844375033,
          "velocity": 0.7480314960629921,
          "duration": 0.21428550000000257
        },
        {
          "name": "E5",
          "midi": 76,
          "time": 64.41332844375033,
          "velocity": 0.7480314960629921,
          "duration": 0.21428550000000257
        },
        {
          "name": "E6",
          "midi": 88,
          "time": 64.41332844375033,
          "velocity": 0.7480314960629921,
          "duration": 0.21428550000000257
        },
        {
          "name": "E7",
          "midi": 100,
          "time": 64.41332844375033,
          "velocity": 0.7480314960629921,
          "duration": 0.21428550000000257
        },
        {
          "name": "E4",
          "midi": 64,
          "time": 64.62761394375033,
          "velocity": 0.7480314960629921,
          "duration": 0.21428550000000257
        },
        {
          "name": "E5",
          "midi": 76,
          "time": 64.62761394375033,
          "velocity": 0.7480314960629921,
          "duration": 0.21428550000000257
        },
        {
          "name": "E6",
          "midi": 88,
          "time": 64.62761394375033,
          "velocity": 0.7480314960629921,
          "duration": 0.21428550000000257
        },
        {
          "name": "E7",
          "midi": 100,
          "time": 64.62761394375033,
          "velocity": 0.7480314960629921,
          "duration": 0.21428550000000257
        },
        {
          "name": "E4",
          "midi": 64,
          "time": 64.84189944375034,
          "velocity": 0.7480314960629921,
          "duration": 0.21428550000000257
        },
        {
          "name": "E5",
          "midi": 76,
          "time": 64.84189944375034,
          "velocity": 0.7480314960629921,
          "duration": 0.21428550000000257
        },
        {
          "name": "E6",
          "midi": 88,
          "time": 64.84189944375034,
          "velocity": 0.7480314960629921,
          "duration": 0.21428550000000257
        },
        {
          "name": "E7",
          "midi": 100,
          "time": 64.84189944375034,
          "velocity": 0.7480314960629921,
          "duration": 0.21428550000000257
        },
        {
          "name": "E4",
          "midi": 64,
          "time": 65.05618494375034,
          "velocity": 0.7480314960629921,
          "duration": 0.21428550000000257
        },
        {
          "name": "E5",
          "midi": 76,
          "time": 65.05618494375034,
          "velocity": 0.7480314960629921,
          "duration": 0.21428550000000257
        },
        {
          "name": "E6",
          "midi": 88,
          "time": 65.05618494375034,
          "velocity": 0.7480314960629921,
          "duration": 0.21428550000000257
        },
        {
          "name": "E7",
          "midi": 100,
          "time": 65.05618494375034,
          "velocity": 0.7480314960629921,
          "duration": 0.21428550000000257
        },
        {
          "name": "E4",
          "midi": 64,
          "time": 65.27047044375034,
          "velocity": 0.7480314960629921,
          "duration": 0.21428550000000257
        },
        {
          "name": "E5",
          "midi": 76,
          "time": 65.27047044375034,
          "velocity": 0.7480314960629921,
          "duration": 0.21428550000000257
        },
        {
          "name": "E6",
          "midi": 88,
          "time": 65.27047044375034,
          "velocity": 0.7480314960629921,
          "duration": 0.21428550000000257
        },
        {
          "name": "E7",
          "midi": 100,
          "time": 65.27047044375034,
          "velocity": 0.7480314960629921,
          "duration": 0.21428550000000257
        },
        {
          "name": "E4",
          "midi": 64,
          "time": 65.48475594375034,
          "velocity": 0.7480314960629921,
          "duration": 0.21428550000000257
        },
        {
          "name": "E5",
          "midi": 76,
          "time": 65.48475594375034,
          "velocity": 0.7480314960629921,
          "duration": 0.21428550000000257
        },
        {
          "name": "E6",
          "midi": 88,
          "time": 65.48475594375034,
          "velocity": 0.7480314960629921,
          "duration": 0.21428550000000257
        },
        {
          "name": "E7",
          "midi": 100,
          "time": 65.48475594375034,
          "velocity": 0.7480314960629921,
          "duration": 0.21428550000000257
        },
        {
          "name": "E4",
          "midi": 64,
          "time": 65.69904144375035,
          "velocity": 0.7480314960629921,
          "duration": 0.21428550000000257
        },
        {
          "name": "E5",
          "midi": 76,
          "time": 65.69904144375035,
          "velocity": 0.7480314960629921,
          "duration": 0.21428550000000257
        },
        {
          "name": "E6",
          "midi": 88,
          "time": 65.69904144375035,
          "velocity": 0.7480314960629921,
          "duration": 0.21428550000000257
        },
        {
          "name": "E7",
          "midi": 100,
          "time": 65.69904144375035,
          "velocity": 0.7480314960629921,
          "duration": 0.21428550000000257
        },
        {
          "name": "E4",
          "midi": 64,
          "time": 65.91332694375035,
          "velocity": 0.7480314960629921,
          "duration": 0.21428550000000257
        },
        {
          "name": "E5",
          "midi": 76,
          "time": 65.91332694375035,
          "velocity": 0.7480314960629921,
          "duration": 0.21428550000000257
        },
        {
          "name": "E6",
          "midi": 88,
          "time": 65.91332694375035,
          "velocity": 0.7480314960629921,
          "duration": 0.21428550000000257
        },
        {
          "name": "E7",
          "midi": 100,
          "time": 65.91332694375035,
          "velocity": 0.7480314960629921,
          "duration": 0.21428550000000257
        },
        {
          "name": "E4",
          "midi": 64,
          "time": 66.12761244375035,
          "velocity": 0.7480314960629921,
          "duration": 0.21428550000000257
        },
        {
          "name": "E5",
          "midi": 76,
          "time": 66.12761244375035,
          "velocity": 0.7480314960629921,
          "duration": 0.21428550000000257
        },
        {
          "name": "E6",
          "midi": 88,
          "time": 66.12761244375035,
          "velocity": 0.7480314960629921,
          "duration": 0.21428550000000257
        },
        {
          "name": "E7",
          "midi": 100,
          "time": 66.12761244375035,
          "velocity": 0.7480314960629921,
          "duration": 0.21428550000000257
        },
        {
          "name": "E4",
          "midi": 64,
          "time": 66.34189794375035,
          "velocity": 0.7480314960629921,
          "duration": 0.21428550000000257
        },
        {
          "name": "E5",
          "midi": 76,
          "time": 66.34189794375035,
          "velocity": 0.7480314960629921,
          "duration": 0.21428550000000257
        },
        {
          "name": "E6",
          "midi": 88,
          "time": 66.34189794375035,
          "velocity": 0.7480314960629921,
          "duration": 0.21428550000000257
        },
        {
          "name": "E7",
          "midi": 100,
          "time": 66.34189794375035,
          "velocity": 0.7480314960629921,
          "duration": 0.21428550000000257
        },
        {
          "name": "E4",
          "midi": 64,
          "time": 66.55618344375036,
          "velocity": 0.7480314960629921,
          "duration": 0.21428550000000257
        },
        {
          "name": "E5",
          "midi": 76,
          "time": 66.55618344375036,
          "velocity": 0.7480314960629921,
          "duration": 0.21428550000000257
        },
        {
          "name": "E6",
          "midi": 88,
          "time": 66.55618344375036,
          "velocity": 0.7480314960629921,
          "duration": 0.21428550000000257
        },
        {
          "name": "E7",
          "midi": 100,
          "time": 66.55618344375036,
          "velocity": 0.7480314960629921,
          "duration": 0.21428550000000257
        },
        {
          "name": "E4",
          "midi": 64,
          "time": 66.77046894375036,
          "velocity": 0.7480314960629921,
          "duration": 0.21428550000000257
        },
        {
          "name": "E5",
          "midi": 76,
          "time": 66.77046894375036,
          "velocity": 0.7480314960629921,
          "duration": 0.21428550000000257
        },
        {
          "name": "E6",
          "midi": 88,
          "time": 66.77046894375036,
          "velocity": 0.7480314960629921,
          "duration": 0.21428550000000257
        },
        {
          "name": "E7",
          "midi": 100,
          "time": 66.77046894375036,
          "velocity": 0.7480314960629921,
          "duration": 0.21428550000000257
        },
        {
          "name": "E4",
          "midi": 64,
          "time": 66.98475444375036,
          "velocity": 0.7480314960629921,
          "duration": 0.21428550000000257
        },
        {
          "name": "E5",
          "midi": 76,
          "time": 66.98475444375036,
          "velocity": 0.7480314960629921,
          "duration": 0.21428550000000257
        },
        {
          "name": "E6",
          "midi": 88,
          "time": 66.98475444375036,
          "velocity": 0.7480314960629921,
          "duration": 0.21428550000000257
        },
        {
          "name": "E7",
          "midi": 100,
          "time": 66.98475444375036,
          "velocity": 0.7480314960629921,
          "duration": 0.21428550000000257
        },
        {
          "name": "E4",
          "midi": 64,
          "time": 67.19903994375036,
          "velocity": 0.7480314960629921,
          "duration": 0.21428550000000257
        },
        {
          "name": "E5",
          "midi": 76,
          "time": 67.19903994375036,
          "velocity": 0.7480314960629921,
          "duration": 0.21428550000000257
        },
        {
          "name": "E6",
          "midi": 88,
          "time": 67.19903994375036,
          "velocity": 0.7480314960629921,
          "duration": 0.21428550000000257
        },
        {
          "name": "E7",
          "midi": 100,
          "time": 67.19903994375036,
          "velocity": 0.7480314960629921,
          "duration": 0.21428550000000257
        },
        {
          "name": "E4",
          "midi": 64,
          "time": 67.41332544375037,
          "velocity": 0.7480314960629921,
          "duration": 0.21428550000000257
        },
        {
          "name": "E5",
          "midi": 76,
          "time": 67.41332544375037,
          "velocity": 0.7480314960629921,
          "duration": 0.21428550000000257
        },
        {
          "name": "E6",
          "midi": 88,
          "time": 67.41332544375037,
          "velocity": 0.7480314960629921,
          "duration": 0.21428550000000257
        },
        {
          "name": "E7",
          "midi": 100,
          "time": 67.41332544375037,
          "velocity": 0.7480314960629921,
          "duration": 0.21428550000000257
        },
        {
          "name": "E4",
          "midi": 64,
          "time": 67.62761094375037,
          "velocity": 0.7480314960629921,
          "duration": 0.21428550000000257
        },
        {
          "name": "E5",
          "midi": 76,
          "time": 67.62761094375037,
          "velocity": 0.7480314960629921,
          "duration": 0.21428550000000257
        },
        {
          "name": "E6",
          "midi": 88,
          "time": 67.62761094375037,
          "velocity": 0.7480314960629921,
          "duration": 0.21428550000000257
        },
        {
          "name": "E7",
          "midi": 100,
          "time": 67.62761094375037,
          "velocity": 0.7480314960629921,
          "duration": 0.21428550000000257
        },
        {
          "name": "E4",
          "midi": 64,
          "time": 67.84189644375037,
          "velocity": 0.7480314960629921,
          "duration": 0.21428550000000257
        },
        {
          "name": "E5",
          "midi": 76,
          "time": 67.84189644375037,
          "velocity": 0.7480314960629921,
          "duration": 0.21428550000000257
        },
        {
          "name": "E6",
          "midi": 88,
          "time": 67.84189644375037,
          "velocity": 0.7480314960629921,
          "duration": 0.21428550000000257
        },
        {
          "name": "E7",
          "midi": 100,
          "time": 67.84189644375037,
          "velocity": 0.7480314960629921,
          "duration": 0.21428550000000257
        },
        {
          "name": "E4",
          "midi": 64,
          "time": 68.05618194375037,
          "velocity": 0.7480314960629921,
          "duration": 0.21428550000000257
        },
        {
          "name": "E5",
          "midi": 76,
          "time": 68.05618194375037,
          "velocity": 0.7480314960629921,
          "duration": 0.21428550000000257
        },
        {
          "name": "E6",
          "midi": 88,
          "time": 68.05618194375037,
          "velocity": 0.7480314960629921,
          "duration": 0.21428550000000257
        },
        {
          "name": "E7",
          "midi": 100,
          "time": 68.05618194375037,
          "velocity": 0.7480314960629921,
          "duration": 0.21428550000000257
        },
        {
          "name": "E4",
          "midi": 64,
          "time": 68.27046744375038,
          "velocity": 0.7480314960629921,
          "duration": 0.21428550000000257
        },
        {
          "name": "E5",
          "midi": 76,
          "time": 68.27046744375038,
          "velocity": 0.7480314960629921,
          "duration": 0.21428550000000257
        },
        {
          "name": "E6",
          "midi": 88,
          "time": 68.27046744375038,
          "velocity": 0.7480314960629921,
          "duration": 0.21428550000000257
        },
        {
          "name": "E7",
          "midi": 100,
          "time": 68.27046744375038,
          "velocity": 0.7480314960629921,
          "duration": 0.21428550000000257
        },
        {
          "name": "E4",
          "midi": 64,
          "time": 68.48475294375038,
          "velocity": 0.7480314960629921,
          "duration": 0.21428550000000257
        },
        {
          "name": "E5",
          "midi": 76,
          "time": 68.48475294375038,
          "velocity": 0.7480314960629921,
          "duration": 0.21428550000000257
        },
        {
          "name": "E6",
          "midi": 88,
          "time": 68.48475294375038,
          "velocity": 0.7480314960629921,
          "duration": 0.21428550000000257
        },
        {
          "name": "E7",
          "midi": 100,
          "time": 68.48475294375038,
          "velocity": 0.7480314960629921,
          "duration": 0.21428550000000257
        },
        {
          "name": "E4",
          "midi": 64,
          "time": 68.69903844375038,
          "velocity": 0.7480314960629921,
          "duration": 0.21428550000000257
        },
        {
          "name": "E5",
          "midi": 76,
          "time": 68.69903844375038,
          "velocity": 0.7480314960629921,
          "duration": 0.21428550000000257
        },
        {
          "name": "E6",
          "midi": 88,
          "time": 68.69903844375038,
          "velocity": 0.7480314960629921,
          "duration": 0.21428550000000257
        },
        {
          "name": "E7",
          "midi": 100,
          "time": 68.69903844375038,
          "velocity": 0.7480314960629921,
          "duration": 0.21428550000000257
        },
        {
          "name": "E4",
          "midi": 64,
          "time": 68.91332394375038,
          "velocity": 0.7480314960629921,
          "duration": 0.21428550000000257
        },
        {
          "name": "E5",
          "midi": 76,
          "time": 68.91332394375038,
          "velocity": 0.7480314960629921,
          "duration": 0.21428550000000257
        },
        {
          "name": "E6",
          "midi": 88,
          "time": 68.91332394375038,
          "velocity": 0.7480314960629921,
          "duration": 0.21428550000000257
        },
        {
          "name": "E7",
          "midi": 100,
          "time": 68.91332394375038,
          "velocity": 0.7480314960629921,
          "duration": 0.21428550000000257
        },
        {
          "name": "E4",
          "midi": 64,
          "time": 69.12760944375039,
          "velocity": 0.7480314960629921,
          "duration": 0.21428550000000257
        },
        {
          "name": "E5",
          "midi": 76,
          "time": 69.12760944375039,
          "velocity": 0.7480314960629921,
          "duration": 0.21428550000000257
        },
        {
          "name": "E6",
          "midi": 88,
          "time": 69.12760944375039,
          "velocity": 0.7480314960629921,
          "duration": 0.21428550000000257
        },
        {
          "name": "E7",
          "midi": 100,
          "time": 69.12760944375039,
          "velocity": 0.7480314960629921,
          "duration": 0.21428550000000257
        },
        {
          "name": "E4",
          "midi": 64,
          "time": 69.34189494375039,
          "velocity": 0.7480314960629921,
          "duration": 0.21428550000000257
        },
        {
          "name": "E5",
          "midi": 76,
          "time": 69.34189494375039,
          "velocity": 0.7480314960629921,
          "duration": 0.21428550000000257
        },
        {
          "name": "E6",
          "midi": 88,
          "time": 69.34189494375039,
          "velocity": 0.7480314960629921,
          "duration": 0.21428550000000257
        },
        {
          "name": "E7",
          "midi": 100,
          "time": 69.34189494375039,
          "velocity": 0.7480314960629921,
          "duration": 0.21428550000000257
        },
        {
          "name": "E4",
          "midi": 64,
          "time": 69.55618044375039,
          "velocity": 0.7480314960629921,
          "duration": 0.21428550000000257
        },
        {
          "name": "E5",
          "midi": 76,
          "time": 69.55618044375039,
          "velocity": 0.7480314960629921,
          "duration": 0.21428550000000257
        },
        {
          "name": "E6",
          "midi": 88,
          "time": 69.55618044375039,
          "velocity": 0.7480314960629921,
          "duration": 0.21428550000000257
        },
        {
          "name": "E7",
          "midi": 100,
          "time": 69.55618044375039,
          "velocity": 0.7480314960629921,
          "duration": 0.21428550000000257
        },
        {
          "name": "E4",
          "midi": 64,
          "time": 69.7704659437504,
          "velocity": 0.7480314960629921,
          "duration": 0.21428550000000257
        },
        {
          "name": "E5",
          "midi": 76,
          "time": 69.7704659437504,
          "velocity": 0.7480314960629921,
          "duration": 0.21428550000000257
        },
        {
          "name": "E6",
          "midi": 88,
          "time": 69.7704659437504,
          "velocity": 0.7480314960629921,
          "duration": 0.21428550000000257
        },
        {
          "name": "E7",
          "midi": 100,
          "time": 69.7704659437504,
          "velocity": 0.7480314960629921,
          "duration": 0.21428550000000257
        },
        {
          "name": "E4",
          "midi": 64,
          "time": 69.9847514437504,
          "velocity": 0.7480314960629921,
          "duration": 0.21428550000000257
        },
        {
          "name": "E5",
          "midi": 76,
          "time": 69.9847514437504,
          "velocity": 0.7480314960629921,
          "duration": 0.21428550000000257
        },
        {
          "name": "E6",
          "midi": 88,
          "time": 69.9847514437504,
          "velocity": 0.7480314960629921,
          "duration": 0.21428550000000257
        },
        {
          "name": "E7",
          "midi": 100,
          "time": 69.9847514437504,
          "velocity": 0.7480314960629921,
          "duration": 0.21428550000000257
        },
        {
          "name": "E4",
          "midi": 64,
          "time": 70.1990369437504,
          "velocity": 0.7480314960629921,
          "duration": 0.21428550000000257
        },
        {
          "name": "E5",
          "midi": 76,
          "time": 70.1990369437504,
          "velocity": 0.7480314960629921,
          "duration": 0.21428550000000257
        },
        {
          "name": "E6",
          "midi": 88,
          "time": 70.1990369437504,
          "velocity": 0.7480314960629921,
          "duration": 0.21428550000000257
        },
        {
          "name": "E7",
          "midi": 100,
          "time": 70.1990369437504,
          "velocity": 0.7480314960629921,
          "duration": 0.21428550000000257
        },
        {
          "name": "E4",
          "midi": 64,
          "time": 70.4133224437504,
          "velocity": 0.7480314960629921,
          "duration": 0.21428550000000257
        },
        {
          "name": "E5",
          "midi": 76,
          "time": 70.4133224437504,
          "velocity": 0.7480314960629921,
          "duration": 0.21428550000000257
        },
        {
          "name": "E6",
          "midi": 88,
          "time": 70.4133224437504,
          "velocity": 0.7480314960629921,
          "duration": 0.21428550000000257
        },
        {
          "name": "E7",
          "midi": 100,
          "time": 70.4133224437504,
          "velocity": 0.7480314960629921,
          "duration": 0.21428550000000257
        },
        {
          "name": "E4",
          "midi": 64,
          "time": 70.6276079437504,
          "velocity": 0.7480314960629921,
          "duration": 0.21428550000000257
        },
        {
          "name": "E5",
          "midi": 76,
          "time": 70.6276079437504,
          "velocity": 0.7480314960629921,
          "duration": 0.21428550000000257
        },
        {
          "name": "E6",
          "midi": 88,
          "time": 70.6276079437504,
          "velocity": 0.7480314960629921,
          "duration": 0.21428550000000257
        },
        {
          "name": "E7",
          "midi": 100,
          "time": 70.6276079437504,
          "velocity": 0.7480314960629921,
          "duration": 0.21428550000000257
        },
        {
          "name": "E4",
          "midi": 64,
          "time": 70.84189344375041,
          "velocity": 0.7480314960629921,
          "duration": 0.21428550000000257
        },
        {
          "name": "E5",
          "midi": 76,
          "time": 70.84189344375041,
          "velocity": 0.7480314960629921,
          "duration": 0.21428550000000257
        },
        {
          "name": "E6",
          "midi": 88,
          "time": 70.84189344375041,
          "velocity": 0.7480314960629921,
          "duration": 0.21428550000000257
        },
        {
          "name": "E7",
          "midi": 100,
          "time": 70.84189344375041,
          "velocity": 0.7480314960629921,
          "duration": 0.21428550000000257
        },
        {
          "name": "E4",
          "midi": 64,
          "time": 71.05617894375041,
          "velocity": 0.7480314960629921,
          "duration": 0.21428550000000257
        },
        {
          "name": "E5",
          "midi": 76,
          "time": 71.05617894375041,
          "velocity": 0.7480314960629921,
          "duration": 0.21428550000000257
        },
        {
          "name": "E6",
          "midi": 88,
          "time": 71.05617894375041,
          "velocity": 0.7480314960629921,
          "duration": 0.21428550000000257
        },
        {
          "name": "E7",
          "midi": 100,
          "time": 71.05617894375041,
          "velocity": 0.7480314960629921,
          "duration": 0.21428550000000257
        },
        {
          "name": "E4",
          "midi": 64,
          "time": 71.27046444375041,
          "velocity": 0.7480314960629921,
          "duration": 0.21428550000000257
        },
        {
          "name": "E5",
          "midi": 76,
          "time": 71.27046444375041,
          "velocity": 0.7480314960629921,
          "duration": 0.21428550000000257
        },
        {
          "name": "E6",
          "midi": 88,
          "time": 71.27046444375041,
          "velocity": 0.7480314960629921,
          "duration": 0.21428550000000257
        },
        {
          "name": "E7",
          "midi": 100,
          "time": 71.27046444375041,
          "velocity": 0.7480314960629921,
          "duration": 0.21428550000000257
        },
        {
          "name": "E4",
          "midi": 64,
          "time": 71.48474994375042,
          "velocity": 0.7480314960629921,
          "duration": 0.21428550000000257
        },
        {
          "name": "E5",
          "midi": 76,
          "time": 71.48474994375042,
          "velocity": 0.7480314960629921,
          "duration": 0.21428550000000257
        },
        {
          "name": "E6",
          "midi": 88,
          "time": 71.48474994375042,
          "velocity": 0.7480314960629921,
          "duration": 0.21428550000000257
        },
        {
          "name": "E7",
          "midi": 100,
          "time": 71.48474994375042,
          "velocity": 0.7480314960629921,
          "duration": 0.21428550000000257
        },
        {
          "name": "E4",
          "midi": 64,
          "time": 71.69903544375042,
          "velocity": 0.7480314960629921,
          "duration": 0.21428550000000257
        },
        {
          "name": "E5",
          "midi": 76,
          "time": 71.69903544375042,
          "velocity": 0.7480314960629921,
          "duration": 0.21428550000000257
        },
        {
          "name": "E6",
          "midi": 88,
          "time": 71.69903544375042,
          "velocity": 0.7480314960629921,
          "duration": 0.21428550000000257
        },
        {
          "name": "E7",
          "midi": 100,
          "time": 71.69903544375042,
          "velocity": 0.7480314960629921,
          "duration": 0.21428550000000257
        },
        {
          "name": "E4",
          "midi": 64,
          "time": 71.91332094375042,
          "velocity": 0.7480314960629921,
          "duration": 0.21428550000000257
        },
        {
          "name": "E5",
          "midi": 76,
          "time": 71.91332094375042,
          "velocity": 0.7480314960629921,
          "duration": 0.21428550000000257
        },
        {
          "name": "E6",
          "midi": 88,
          "time": 71.91332094375042,
          "velocity": 0.7480314960629921,
          "duration": 0.21428550000000257
        },
        {
          "name": "E7",
          "midi": 100,
          "time": 71.91332094375042,
          "velocity": 0.7480314960629921,
          "duration": 0.21428550000000257
        },
        {
          "name": "E4",
          "midi": 64,
          "time": 72.12760644375042,
          "velocity": 0.7480314960629921,
          "duration": 0.21428550000000257
        },
        {
          "name": "E5",
          "midi": 76,
          "time": 72.12760644375042,
          "velocity": 0.7480314960629921,
          "duration": 0.21428550000000257
        },
        {
          "name": "E6",
          "midi": 88,
          "time": 72.12760644375042,
          "velocity": 0.7480314960629921,
          "duration": 0.21428550000000257
        },
        {
          "name": "E7",
          "midi": 100,
          "time": 72.12760644375042,
          "velocity": 0.7480314960629921,
          "duration": 0.21428550000000257
        },
        {
          "name": "E4",
          "midi": 64,
          "time": 72.34189194375043,
          "velocity": 0.7480314960629921,
          "duration": 0.21428550000000257
        },
        {
          "name": "E5",
          "midi": 76,
          "time": 72.34189194375043,
          "velocity": 0.7480314960629921,
          "duration": 0.21428550000000257
        },
        {
          "name": "E6",
          "midi": 88,
          "time": 72.34189194375043,
          "velocity": 0.7480314960629921,
          "duration": 0.21428550000000257
        },
        {
          "name": "E7",
          "midi": 100,
          "time": 72.34189194375043,
          "velocity": 0.7480314960629921,
          "duration": 0.21428550000000257
        },
        {
          "name": "E4",
          "midi": 64,
          "time": 72.55617744375043,
          "velocity": 0.7480314960629921,
          "duration": 0.21428550000000257
        },
        {
          "name": "E5",
          "midi": 76,
          "time": 72.55617744375043,
          "velocity": 0.7480314960629921,
          "duration": 0.21428550000000257
        },
        {
          "name": "E6",
          "midi": 88,
          "time": 72.55617744375043,
          "velocity": 0.7480314960629921,
          "duration": 0.21428550000000257
        },
        {
          "name": "E7",
          "midi": 100,
          "time": 72.55617744375043,
          "velocity": 0.7480314960629921,
          "duration": 0.21428550000000257
        },
        {
          "name": "E4",
          "midi": 64,
          "time": 72.77046294375043,
          "velocity": 0.7480314960629921,
          "duration": 0.21428550000000257
        },
        {
          "name": "E5",
          "midi": 76,
          "time": 72.77046294375043,
          "velocity": 0.7480314960629921,
          "duration": 0.21428550000000257
        },
        {
          "name": "E6",
          "midi": 88,
          "time": 72.77046294375043,
          "velocity": 0.7480314960629921,
          "duration": 0.21428550000000257
        },
        {
          "name": "E7",
          "midi": 100,
          "time": 72.77046294375043,
          "velocity": 0.7480314960629921,
          "duration": 0.21428550000000257
        },
        {
          "name": "E4",
          "midi": 64,
          "time": 72.98474844375043,
          "velocity": 0.7480314960629921,
          "duration": 0.21428550000000257
        },
        {
          "name": "E5",
          "midi": 76,
          "time": 72.98474844375043,
          "velocity": 0.7480314960629921,
          "duration": 0.21428550000000257
        },
        {
          "name": "E6",
          "midi": 88,
          "time": 72.98474844375043,
          "velocity": 0.7480314960629921,
          "duration": 0.21428550000000257
        },
        {
          "name": "E7",
          "midi": 100,
          "time": 72.98474844375043,
          "velocity": 0.7480314960629921,
          "duration": 0.21428550000000257
        },
        {
          "name": "E4",
          "midi": 64,
          "time": 73.19903394375044,
          "velocity": 0.7480314960629921,
          "duration": 0.21428550000000257
        },
        {
          "name": "E5",
          "midi": 76,
          "time": 73.19903394375044,
          "velocity": 0.7480314960629921,
          "duration": 0.21428550000000257
        },
        {
          "name": "E6",
          "midi": 88,
          "time": 73.19903394375044,
          "velocity": 0.7480314960629921,
          "duration": 0.21428550000000257
        },
        {
          "name": "E7",
          "midi": 100,
          "time": 73.19903394375044,
          "velocity": 0.7480314960629921,
          "duration": 0.21428550000000257
        },
        {
          "name": "E4",
          "midi": 64,
          "time": 73.41331944375044,
          "velocity": 0.7480314960629921,
          "duration": 0.21428550000000257
        },
        {
          "name": "E5",
          "midi": 76,
          "time": 73.41331944375044,
          "velocity": 0.7480314960629921,
          "duration": 0.21428550000000257
        },
        {
          "name": "E6",
          "midi": 88,
          "time": 73.41331944375044,
          "velocity": 0.7480314960629921,
          "duration": 0.21428550000000257
        },
        {
          "name": "E7",
          "midi": 100,
          "time": 73.41331944375044,
          "velocity": 0.7480314960629921,
          "duration": 0.21428550000000257
        },
        {
          "name": "E4",
          "midi": 64,
          "time": 73.62760494375044,
          "velocity": 0.7480314960629921,
          "duration": 0.21428550000000257
        },
        {
          "name": "E5",
          "midi": 76,
          "time": 73.62760494375044,
          "velocity": 0.7480314960629921,
          "duration": 0.21428550000000257
        },
        {
          "name": "E6",
          "midi": 88,
          "time": 73.62760494375044,
          "velocity": 0.7480314960629921,
          "duration": 0.21428550000000257
        },
        {
          "name": "E7",
          "midi": 100,
          "time": 73.62760494375044,
          "velocity": 0.7480314960629921,
          "duration": 0.21428550000000257
        },
        {
          "name": "E4",
          "midi": 64,
          "time": 73.84189044375044,
          "velocity": 0.7480314960629921,
          "duration": 0.21428550000000257
        },
        {
          "name": "E5",
          "midi": 76,
          "time": 73.84189044375044,
          "velocity": 0.7480314960629921,
          "duration": 0.21428550000000257
        },
        {
          "name": "E6",
          "midi": 88,
          "time": 73.84189044375044,
          "velocity": 0.7480314960629921,
          "duration": 0.21428550000000257
        },
        {
          "name": "E7",
          "midi": 100,
          "time": 73.84189044375044,
          "velocity": 0.7480314960629921,
          "duration": 0.21428550000000257
        },
        {
          "name": "E4",
          "midi": 64,
          "time": 74.05617594375045,
          "velocity": 0.7480314960629921,
          "duration": 0.21428550000000257
        },
        {
          "name": "E5",
          "midi": 76,
          "time": 74.05617594375045,
          "velocity": 0.7480314960629921,
          "duration": 0.21428550000000257
        },
        {
          "name": "E6",
          "midi": 88,
          "time": 74.05617594375045,
          "velocity": 0.7480314960629921,
          "duration": 0.21428550000000257
        },
        {
          "name": "E7",
          "midi": 100,
          "time": 74.05617594375045,
          "velocity": 0.7480314960629921,
          "duration": 0.21428550000000257
        },
        {
          "name": "E4",
          "midi": 64,
          "time": 74.27046144375045,
          "velocity": 0.7480314960629921,
          "duration": 0.21428550000000257
        },
        {
          "name": "E5",
          "midi": 76,
          "time": 74.27046144375045,
          "velocity": 0.7480314960629921,
          "duration": 0.21428550000000257
        },
        {
          "name": "E6",
          "midi": 88,
          "time": 74.27046144375045,
          "velocity": 0.7480314960629921,
          "duration": 0.21428550000000257
        },
        {
          "name": "E7",
          "midi": 100,
          "time": 74.27046144375045,
          "velocity": 0.7480314960629921,
          "duration": 0.21428550000000257
        },
        {
          "name": "E4",
          "midi": 64,
          "time": 74.48474694375045,
          "velocity": 0.7480314960629921,
          "duration": 0.21428550000000257
        },
        {
          "name": "E5",
          "midi": 76,
          "time": 74.48474694375045,
          "velocity": 0.7480314960629921,
          "duration": 0.21428550000000257
        },
        {
          "name": "E6",
          "midi": 88,
          "time": 74.48474694375045,
          "velocity": 0.7480314960629921,
          "duration": 0.21428550000000257
        },
        {
          "name": "E7",
          "midi": 100,
          "time": 74.48474694375045,
          "velocity": 0.7480314960629921,
          "duration": 0.21428550000000257
        },
        {
          "name": "E4",
          "midi": 64,
          "time": 74.69903244375045,
          "velocity": 0.7480314960629921,
          "duration": 0.21428550000000257
        },
        {
          "name": "E5",
          "midi": 76,
          "time": 74.69903244375045,
          "velocity": 0.7480314960629921,
          "duration": 0.21428550000000257
        },
        {
          "name": "E6",
          "midi": 88,
          "time": 74.69903244375045,
          "velocity": 0.7480314960629921,
          "duration": 0.21428550000000257
        },
        {
          "name": "E7",
          "midi": 100,
          "time": 74.69903244375045,
          "velocity": 0.7480314960629921,
          "duration": 0.21428550000000257
        },
        {
          "name": "E4",
          "midi": 64,
          "time": 74.91331794375046,
          "velocity": 0.7480314960629921,
          "duration": 0.21428550000000257
        },
        {
          "name": "E5",
          "midi": 76,
          "time": 74.91331794375046,
          "velocity": 0.7480314960629921,
          "duration": 0.21428550000000257
        },
        {
          "name": "E6",
          "midi": 88,
          "time": 74.91331794375046,
          "velocity": 0.7480314960629921,
          "duration": 0.21428550000000257
        },
        {
          "name": "E7",
          "midi": 100,
          "time": 74.91331794375046,
          "velocity": 0.7480314960629921,
          "duration": 0.21428550000000257
        },
        {
          "name": "E4",
          "midi": 64,
          "time": 75.12760344375046,
          "velocity": 0.7480314960629921,
          "duration": 0.21428550000000257
        },
        {
          "name": "E5",
          "midi": 76,
          "time": 75.12760344375046,
          "velocity": 0.7480314960629921,
          "duration": 0.21428550000000257
        },
        {
          "name": "E6",
          "midi": 88,
          "time": 75.12760344375046,
          "velocity": 0.7480314960629921,
          "duration": 0.21428550000000257
        },
        {
          "name": "E7",
          "midi": 100,
          "time": 75.12760344375046,
          "velocity": 0.7480314960629921,
          "duration": 0.21428550000000257
        },
        {
          "name": "E4",
          "midi": 64,
          "time": 75.34188894375046,
          "velocity": 0.7480314960629921,
          "duration": 0.21428550000000257
        },
        {
          "name": "E5",
          "midi": 76,
          "time": 75.34188894375046,
          "velocity": 0.7480314960629921,
          "duration": 0.21428550000000257
        },
        {
          "name": "E6",
          "midi": 88,
          "time": 75.34188894375046,
          "velocity": 0.7480314960629921,
          "duration": 0.21428550000000257
        },
        {
          "name": "E7",
          "midi": 100,
          "time": 75.34188894375046,
          "velocity": 0.7480314960629921,
          "duration": 0.21428550000000257
        },
        {
          "name": "E4",
          "midi": 64,
          "time": 75.55617444375046,
          "velocity": 0.7480314960629921,
          "duration": 0.21428550000000257
        },
        {
          "name": "E5",
          "midi": 76,
          "time": 75.55617444375046,
          "velocity": 0.7480314960629921,
          "duration": 0.21428550000000257
        },
        {
          "name": "E6",
          "midi": 88,
          "time": 75.55617444375046,
          "velocity": 0.7480314960629921,
          "duration": 0.21428550000000257
        },
        {
          "name": "E7",
          "midi": 100,
          "time": 75.55617444375046,
          "velocity": 0.7480314960629921,
          "duration": 0.21428550000000257
        },
        {
          "name": "E4",
          "midi": 64,
          "time": 75.77045994375047,
          "velocity": 0.7480314960629921,
          "duration": 0.21428550000000257
        },
        {
          "name": "E5",
          "midi": 76,
          "time": 75.77045994375047,
          "velocity": 0.7480314960629921,
          "duration": 0.21428550000000257
        },
        {
          "name": "E6",
          "midi": 88,
          "time": 75.77045994375047,
          "velocity": 0.7480314960629921,
          "duration": 0.21428550000000257
        },
        {
          "name": "E7",
          "midi": 100,
          "time": 75.77045994375047,
          "velocity": 0.7480314960629921,
          "duration": 0.21428550000000257
        },
        {
          "name": "E4",
          "midi": 64,
          "time": 75.98474544375047,
          "velocity": 0.7480314960629921,
          "duration": 0.21428550000000257
        },
        {
          "name": "E5",
          "midi": 76,
          "time": 75.98474544375047,
          "velocity": 0.7480314960629921,
          "duration": 0.21428550000000257
        },
        {
          "name": "E6",
          "midi": 88,
          "time": 75.98474544375047,
          "velocity": 0.7480314960629921,
          "duration": 0.21428550000000257
        },
        {
          "name": "E7",
          "midi": 100,
          "time": 75.98474544375047,
          "velocity": 0.7480314960629921,
          "duration": 0.21428550000000257
        },
        {
          "name": "E4",
          "midi": 64,
          "time": 76.19903094375047,
          "velocity": 0.7480314960629921,
          "duration": 0.21428550000000257
        },
        {
          "name": "E5",
          "midi": 76,
          "time": 76.19903094375047,
          "velocity": 0.7480314960629921,
          "duration": 0.21428550000000257
        },
        {
          "name": "E6",
          "midi": 88,
          "time": 76.19903094375047,
          "velocity": 0.7480314960629921,
          "duration": 0.21428550000000257
        },
        {
          "name": "E7",
          "midi": 100,
          "time": 76.19903094375047,
          "velocity": 0.7480314960629921,
          "duration": 0.21428550000000257
        },
        {
          "name": "E4",
          "midi": 64,
          "time": 76.41331644375047,
          "velocity": 0.7480314960629921,
          "duration": 0.21428550000000257
        },
        {
          "name": "E5",
          "midi": 76,
          "time": 76.41331644375047,
          "velocity": 0.7480314960629921,
          "duration": 0.21428550000000257
        },
        {
          "name": "E6",
          "midi": 88,
          "time": 76.41331644375047,
          "velocity": 0.7480314960629921,
          "duration": 0.21428550000000257
        },
        {
          "name": "E7",
          "midi": 100,
          "time": 76.41331644375047,
          "velocity": 0.7480314960629921,
          "duration": 0.21428550000000257
        },
        {
          "name": "E4",
          "midi": 64,
          "time": 76.62760194375048,
          "velocity": 0.7480314960629921,
          "duration": 0.21428550000000257
        },
        {
          "name": "E5",
          "midi": 76,
          "time": 76.62760194375048,
          "velocity": 0.7480314960629921,
          "duration": 0.21428550000000257
        },
        {
          "name": "E6",
          "midi": 88,
          "time": 76.62760194375048,
          "velocity": 0.7480314960629921,
          "duration": 0.21428550000000257
        },
        {
          "name": "E7",
          "midi": 100,
          "time": 76.62760194375048,
          "velocity": 0.7480314960629921,
          "duration": 0.21428550000000257
        },
        {
          "name": "E4",
          "midi": 64,
          "time": 76.84188744375048,
          "velocity": 0.7480314960629921,
          "duration": 0.21428550000000257
        },
        {
          "name": "E5",
          "midi": 76,
          "time": 76.84188744375048,
          "velocity": 0.7480314960629921,
          "duration": 0.21428550000000257
        },
        {
          "name": "E6",
          "midi": 88,
          "time": 76.84188744375048,
          "velocity": 0.7480314960629921,
          "duration": 0.21428550000000257
        },
        {
          "name": "E7",
          "midi": 100,
          "time": 76.84188744375048,
          "velocity": 0.7480314960629921,
          "duration": 0.21428550000000257
        },
        {
          "name": "E4",
          "midi": 64,
          "time": 77.05617294375048,
          "velocity": 0.7480314960629921,
          "duration": 0.21428550000000257
        },
        {
          "name": "E5",
          "midi": 76,
          "time": 77.05617294375048,
          "velocity": 0.7480314960629921,
          "duration": 0.21428550000000257
        },
        {
          "name": "E6",
          "midi": 88,
          "time": 77.05617294375048,
          "velocity": 0.7480314960629921,
          "duration": 0.21428550000000257
        },
        {
          "name": "E7",
          "midi": 100,
          "time": 77.05617294375048,
          "velocity": 0.7480314960629921,
          "duration": 0.21428550000000257
        },
        {
          "name": "E4",
          "midi": 64,
          "time": 77.27045844375048,
          "velocity": 0.7480314960629921,
          "duration": 0.21428550000000257
        },
        {
          "name": "E5",
          "midi": 76,
          "time": 77.27045844375048,
          "velocity": 0.7480314960629921,
          "duration": 0.21428550000000257
        },
        {
          "name": "E6",
          "midi": 88,
          "time": 77.27045844375048,
          "velocity": 0.7480314960629921,
          "duration": 0.21428550000000257
        },
        {
          "name": "E7",
          "midi": 100,
          "time": 77.27045844375048,
          "velocity": 0.7480314960629921,
          "duration": 0.21428550000000257
        },
        {
          "name": "E4",
          "midi": 64,
          "time": 77.48474394375049,
          "velocity": 0.7480314960629921,
          "duration": 0.21428550000000257
        },
        {
          "name": "E5",
          "midi": 76,
          "time": 77.48474394375049,
          "velocity": 0.7480314960629921,
          "duration": 0.21428550000000257
        },
        {
          "name": "E6",
          "midi": 88,
          "time": 77.48474394375049,
          "velocity": 0.7480314960629921,
          "duration": 0.21428550000000257
        },
        {
          "name": "E7",
          "midi": 100,
          "time": 77.48474394375049,
          "velocity": 0.7480314960629921,
          "duration": 0.21428550000000257
        },
        {
          "name": "E4",
          "midi": 64,
          "time": 77.69902944375049,
          "velocity": 0.7480314960629921,
          "duration": 0.21428550000000257
        },
        {
          "name": "E5",
          "midi": 76,
          "time": 77.69902944375049,
          "velocity": 0.7480314960629921,
          "duration": 0.21428550000000257
        },
        {
          "name": "E6",
          "midi": 88,
          "time": 77.69902944375049,
          "velocity": 0.7480314960629921,
          "duration": 0.21428550000000257
        },
        {
          "name": "E7",
          "midi": 100,
          "time": 77.69902944375049,
          "velocity": 0.7480314960629921,
          "duration": 0.21428550000000257
        },
        {
          "name": "E4",
          "midi": 64,
          "time": 77.91331494375049,
          "velocity": 0.7480314960629921,
          "duration": 0.21428550000000257
        },
        {
          "name": "E5",
          "midi": 76,
          "time": 77.91331494375049,
          "velocity": 0.7480314960629921,
          "duration": 0.21428550000000257
        },
        {
          "name": "E6",
          "midi": 88,
          "time": 77.91331494375049,
          "velocity": 0.7480314960629921,
          "duration": 0.21428550000000257
        },
        {
          "name": "E7",
          "midi": 100,
          "time": 77.91331494375049,
          "velocity": 0.7480314960629921,
          "duration": 0.21428550000000257
        },
        {
          "name": "E4",
          "midi": 64,
          "time": 78.1276004437505,
          "velocity": 0.7480314960629921,
          "duration": 0.21428550000000257
        },
        {
          "name": "E5",
          "midi": 76,
          "time": 78.1276004437505,
          "velocity": 0.7480314960629921,
          "duration": 0.21428550000000257
        },
        {
          "name": "E6",
          "midi": 88,
          "time": 78.1276004437505,
          "velocity": 0.7480314960629921,
          "duration": 0.21428550000000257
        },
        {
          "name": "E7",
          "midi": 100,
          "time": 78.1276004437505,
          "velocity": 0.7480314960629921,
          "duration": 0.21428550000000257
        },
        {
          "name": "E4",
          "midi": 64,
          "time": 78.3418859437505,
          "velocity": 0.7480314960629921,
          "duration": 0.21428550000000257
        },
        {
          "name": "E5",
          "midi": 76,
          "time": 78.3418859437505,
          "velocity": 0.7480314960629921,
          "duration": 0.21428550000000257
        },
        {
          "name": "E6",
          "midi": 88,
          "time": 78.3418859437505,
          "velocity": 0.7480314960629921,
          "duration": 0.21428550000000257
        },
        {
          "name": "E7",
          "midi": 100,
          "time": 78.3418859437505,
          "velocity": 0.7480314960629921,
          "duration": 0.21428550000000257
        },
        {
          "name": "E4",
          "midi": 64,
          "time": 78.5561714437505,
          "velocity": 0.7480314960629921,
          "duration": 0.21428550000000257
        },
        {
          "name": "E5",
          "midi": 76,
          "time": 78.5561714437505,
          "velocity": 0.7480314960629921,
          "duration": 0.21428550000000257
        },
        {
          "name": "E6",
          "midi": 88,
          "time": 78.5561714437505,
          "velocity": 0.7480314960629921,
          "duration": 0.21428550000000257
        },
        {
          "name": "E7",
          "midi": 100,
          "time": 78.5561714437505,
          "velocity": 0.7480314960629921,
          "duration": 0.21428550000000257
        },
        {
          "name": "E4",
          "midi": 64,
          "time": 78.7704569437505,
          "velocity": 0.7480314960629921,
          "duration": 0.21428550000000257
        },
        {
          "name": "E5",
          "midi": 76,
          "time": 78.7704569437505,
          "velocity": 0.7480314960629921,
          "duration": 0.21428550000000257
        },
        {
          "name": "E6",
          "midi": 88,
          "time": 78.7704569437505,
          "velocity": 0.7480314960629921,
          "duration": 0.21428550000000257
        },
        {
          "name": "E7",
          "midi": 100,
          "time": 78.7704569437505,
          "velocity": 0.7480314960629921,
          "duration": 0.21428550000000257
        },
        {
          "name": "E4",
          "midi": 64,
          "time": 78.9847424437505,
          "velocity": 0.7480314960629921,
          "duration": 0.21428550000000257
        },
        {
          "name": "E5",
          "midi": 76,
          "time": 78.9847424437505,
          "velocity": 0.7480314960629921,
          "duration": 0.21428550000000257
        },
        {
          "name": "E6",
          "midi": 88,
          "time": 78.9847424437505,
          "velocity": 0.7480314960629921,
          "duration": 0.21428550000000257
        },
        {
          "name": "E7",
          "midi": 100,
          "time": 78.9847424437505,
          "velocity": 0.7480314960629921,
          "duration": 0.21428550000000257
        },
        {
          "name": "E4",
          "midi": 64,
          "time": 79.19902794375051,
          "velocity": 0.7480314960629921,
          "duration": 0.21428550000000257
        },
        {
          "name": "E5",
          "midi": 76,
          "time": 79.19902794375051,
          "velocity": 0.7480314960629921,
          "duration": 0.21428550000000257
        },
        {
          "name": "E6",
          "midi": 88,
          "time": 79.19902794375051,
          "velocity": 0.7480314960629921,
          "duration": 0.21428550000000257
        },
        {
          "name": "E7",
          "midi": 100,
          "time": 79.19902794375051,
          "velocity": 0.7480314960629921,
          "duration": 0.21428550000000257
        },
        {
          "name": "E4",
          "midi": 64,
          "time": 79.41331344375051,
          "velocity": 0.7480314960629921,
          "duration": 0.21428550000000257
        },
        {
          "name": "E5",
          "midi": 76,
          "time": 79.41331344375051,
          "velocity": 0.7480314960629921,
          "duration": 0.21428550000000257
        },
        {
          "name": "E6",
          "midi": 88,
          "time": 79.41331344375051,
          "velocity": 0.7480314960629921,
          "duration": 0.21428550000000257
        },
        {
          "name": "E7",
          "midi": 100,
          "time": 79.41331344375051,
          "velocity": 0.7480314960629921,
          "duration": 0.21428550000000257
        },
        {
          "name": "E4",
          "midi": 64,
          "time": 79.62759894375051,
          "velocity": 0.7480314960629921,
          "duration": 0.21428550000000257
        },
        {
          "name": "E5",
          "midi": 76,
          "time": 79.62759894375051,
          "velocity": 0.7480314960629921,
          "duration": 0.21428550000000257
        },
        {
          "name": "E6",
          "midi": 88,
          "time": 79.62759894375051,
          "velocity": 0.7480314960629921,
          "duration": 0.21428550000000257
        },
        {
          "name": "E7",
          "midi": 100,
          "time": 79.62759894375051,
          "velocity": 0.7480314960629921,
          "duration": 0.21428550000000257
        },
        {
          "name": "E4",
          "midi": 64,
          "time": 79.84188444375052,
          "velocity": 0.7480314960629921,
          "duration": 0.21428550000000257
        },
        {
          "name": "E5",
          "midi": 76,
          "time": 79.84188444375052,
          "velocity": 0.7480314960629921,
          "duration": 0.21428550000000257
        },
        {
          "name": "E6",
          "midi": 88,
          "time": 79.84188444375052,
          "velocity": 0.7480314960629921,
          "duration": 0.21428550000000257
        },
        {
          "name": "E7",
          "midi": 100,
          "time": 79.84188444375052,
          "velocity": 0.7480314960629921,
          "duration": 0.21428550000000257
        },
        {
          "name": "E4",
          "midi": 64,
          "time": 80.05616994375052,
          "velocity": 0.7480314960629921,
          "duration": 0.21428550000000257
        },
        {
          "name": "E5",
          "midi": 76,
          "time": 80.05616994375052,
          "velocity": 0.7480314960629921,
          "duration": 0.21428550000000257
        },
        {
          "name": "E6",
          "midi": 88,
          "time": 80.05616994375052,
          "velocity": 0.7480314960629921,
          "duration": 0.21428550000000257
        },
        {
          "name": "E7",
          "midi": 100,
          "time": 80.05616994375052,
          "velocity": 0.7480314960629921,
          "duration": 0.21428550000000257
        },
        {
          "name": "E4",
          "midi": 64,
          "time": 80.27045544375052,
          "velocity": 0.7480314960629921,
          "duration": 0.21428550000000257
        },
        {
          "name": "E5",
          "midi": 76,
          "time": 80.27045544375052,
          "velocity": 0.7480314960629921,
          "duration": 0.21428550000000257
        },
        {
          "name": "E6",
          "midi": 88,
          "time": 80.27045544375052,
          "velocity": 0.7480314960629921,
          "duration": 0.21428550000000257
        },
        {
          "name": "E7",
          "midi": 100,
          "time": 80.27045544375052,
          "velocity": 0.7480314960629921,
          "duration": 0.21428550000000257
        },
        {
          "name": "E4",
          "midi": 64,
          "time": 80.48474094375052,
          "velocity": 0.7480314960629921,
          "duration": 0.21428550000000257
        },
        {
          "name": "E5",
          "midi": 76,
          "time": 80.48474094375052,
          "velocity": 0.7480314960629921,
          "duration": 0.21428550000000257
        },
        {
          "name": "E6",
          "midi": 88,
          "time": 80.48474094375052,
          "velocity": 0.7480314960629921,
          "duration": 0.21428550000000257
        },
        {
          "name": "E7",
          "midi": 100,
          "time": 80.48474094375052,
          "velocity": 0.7480314960629921,
          "duration": 0.21428550000000257
        },
        {
          "name": "E4",
          "midi": 64,
          "time": 80.69902644375053,
          "velocity": 0.7480314960629921,
          "duration": 0.21428550000000257
        },
        {
          "name": "E5",
          "midi": 76,
          "time": 80.69902644375053,
          "velocity": 0.7480314960629921,
          "duration": 0.21428550000000257
        },
        {
          "name": "E6",
          "midi": 88,
          "time": 80.69902644375053,
          "velocity": 0.7480314960629921,
          "duration": 0.21428550000000257
        },
        {
          "name": "E7",
          "midi": 100,
          "time": 80.69902644375053,
          "velocity": 0.7480314960629921,
          "duration": 0.21428550000000257
        },
        {
          "name": "E4",
          "midi": 64,
          "time": 80.91331194375053,
          "velocity": 0.7480314960629921,
          "duration": 0.21428550000000257
        },
        {
          "name": "E5",
          "midi": 76,
          "time": 80.91331194375053,
          "velocity": 0.7480314960629921,
          "duration": 0.21428550000000257
        },
        {
          "name": "E6",
          "midi": 88,
          "time": 80.91331194375053,
          "velocity": 0.7480314960629921,
          "duration": 0.21428550000000257
        },
        {
          "name": "E7",
          "midi": 100,
          "time": 80.91331194375053,
          "velocity": 0.7480314960629921,
          "duration": 0.21428550000000257
        },
        {
          "name": "E4",
          "midi": 64,
          "time": 81.12759744375053,
          "velocity": 0.7480314960629921,
          "duration": 0.21428550000000257
        },
        {
          "name": "E5",
          "midi": 76,
          "time": 81.12759744375053,
          "velocity": 0.7480314960629921,
          "duration": 0.21428550000000257
        },
        {
          "name": "E6",
          "midi": 88,
          "time": 81.12759744375053,
          "velocity": 0.7480314960629921,
          "duration": 0.21428550000000257
        },
        {
          "name": "E7",
          "midi": 100,
          "time": 81.12759744375053,
          "velocity": 0.7480314960629921,
          "duration": 0.21428550000000257
        },
        {
          "name": "E4",
          "midi": 64,
          "time": 81.34188294375053,
          "velocity": 0.7480314960629921,
          "duration": 0.21428550000000257
        },
        {
          "name": "E5",
          "midi": 76,
          "time": 81.34188294375053,
          "velocity": 0.7480314960629921,
          "duration": 0.21428550000000257
        },
        {
          "name": "E6",
          "midi": 88,
          "time": 81.34188294375053,
          "velocity": 0.7480314960629921,
          "duration": 0.21428550000000257
        },
        {
          "name": "E7",
          "midi": 100,
          "time": 81.34188294375053,
          "velocity": 0.7480314960629921,
          "duration": 0.21428550000000257
        },
        {
          "name": "E4",
          "midi": 64,
          "time": 81.55616844375054,
          "velocity": 0.7480314960629921,
          "duration": 0.21428550000000257
        },
        {
          "name": "E5",
          "midi": 76,
          "time": 81.55616844375054,
          "velocity": 0.7480314960629921,
          "duration": 0.21428550000000257
        },
        {
          "name": "E6",
          "midi": 88,
          "time": 81.55616844375054,
          "velocity": 0.7480314960629921,
          "duration": 0.21428550000000257
        },
        {
          "name": "E7",
          "midi": 100,
          "time": 81.55616844375054,
          "velocity": 0.7480314960629921,
          "duration": 0.21428550000000257
        },
        {
          "name": "E4",
          "midi": 64,
          "time": 81.77045394375054,
          "velocity": 0.7480314960629921,
          "duration": 0.21428550000000257
        },
        {
          "name": "E5",
          "midi": 76,
          "time": 81.77045394375054,
          "velocity": 0.7480314960629921,
          "duration": 0.21428550000000257
        },
        {
          "name": "E6",
          "midi": 88,
          "time": 81.77045394375054,
          "velocity": 0.7480314960629921,
          "duration": 0.21428550000000257
        },
        {
          "name": "E7",
          "midi": 100,
          "time": 81.77045394375054,
          "velocity": 0.7480314960629921,
          "duration": 0.21428550000000257
        },
        {
          "name": "E4",
          "midi": 64,
          "time": 81.98473944375054,
          "velocity": 0.7480314960629921,
          "duration": 0.21428550000000257
        },
        {
          "name": "E5",
          "midi": 76,
          "time": 81.98473944375054,
          "velocity": 0.7480314960629921,
          "duration": 0.21428550000000257
        },
        {
          "name": "E6",
          "midi": 88,
          "time": 81.98473944375054,
          "velocity": 0.7480314960629921,
          "duration": 0.21428550000000257
        },
        {
          "name": "E7",
          "midi": 100,
          "time": 81.98473944375054,
          "velocity": 0.7480314960629921,
          "duration": 0.21428550000000257
        },
        {
          "name": "E4",
          "midi": 64,
          "time": 82.19902494375054,
          "velocity": 0.7480314960629921,
          "duration": 0.21428550000000257
        },
        {
          "name": "E5",
          "midi": 76,
          "time": 82.19902494375054,
          "velocity": 0.7480314960629921,
          "duration": 0.21428550000000257
        },
        {
          "name": "E6",
          "midi": 88,
          "time": 82.19902494375054,
          "velocity": 0.7480314960629921,
          "duration": 0.21428550000000257
        },
        {
          "name": "E7",
          "midi": 100,
          "time": 82.19902494375054,
          "velocity": 0.7480314960629921,
          "duration": 0.21428550000000257
        },
        {
          "name": "E4",
          "midi": 64,
          "time": 82.41331044375055,
          "velocity": 0.7480314960629921,
          "duration": 0.21428550000000257
        },
        {
          "name": "E5",
          "midi": 76,
          "time": 82.41331044375055,
          "velocity": 0.7480314960629921,
          "duration": 0.21428550000000257
        },
        {
          "name": "E6",
          "midi": 88,
          "time": 82.41331044375055,
          "velocity": 0.7480314960629921,
          "duration": 0.21428550000000257
        },
        {
          "name": "E7",
          "midi": 100,
          "time": 82.41331044375055,
          "velocity": 0.7480314960629921,
          "duration": 0.21428550000000257
        },
        {
          "name": "E4",
          "midi": 64,
          "time": 82.62759594375055,
          "velocity": 0.7480314960629921,
          "duration": 0.21428550000000257
        },
        {
          "name": "E5",
          "midi": 76,
          "time": 82.62759594375055,
          "velocity": 0.7480314960629921,
          "duration": 0.21428550000000257
        },
        {
          "name": "E6",
          "midi": 88,
          "time": 82.62759594375055,
          "velocity": 0.7480314960629921,
          "duration": 0.21428550000000257
        },
        {
          "name": "E7",
          "midi": 100,
          "time": 82.62759594375055,
          "velocity": 0.7480314960629921,
          "duration": 0.21428550000000257
        },
        {
          "name": "E4",
          "midi": 64,
          "time": 82.84188144375055,
          "velocity": 0.7480314960629921,
          "duration": 0.21428550000000257
        },
        {
          "name": "E5",
          "midi": 76,
          "time": 82.84188144375055,
          "velocity": 0.7480314960629921,
          "duration": 0.21428550000000257
        },
        {
          "name": "E6",
          "midi": 88,
          "time": 82.84188144375055,
          "velocity": 0.7480314960629921,
          "duration": 0.21428550000000257
        },
        {
          "name": "E7",
          "midi": 100,
          "time": 82.84188144375055,
          "velocity": 0.7480314960629921,
          "duration": 0.21428550000000257
        },
        {
          "name": "E4",
          "midi": 64,
          "time": 83.05616694375055,
          "velocity": 0.7480314960629921,
          "duration": 0.21428550000000257
        },
        {
          "name": "E5",
          "midi": 76,
          "time": 83.05616694375055,
          "velocity": 0.7480314960629921,
          "duration": 0.21428550000000257
        },
        {
          "name": "E6",
          "midi": 88,
          "time": 83.05616694375055,
          "velocity": 0.7480314960629921,
          "duration": 0.21428550000000257
        },
        {
          "name": "E7",
          "midi": 100,
          "time": 83.05616694375055,
          "velocity": 0.7480314960629921,
          "duration": 0.21428550000000257
        },
        {
          "name": "E4",
          "midi": 64,
          "time": 83.27045244375056,
          "velocity": 0.7480314960629921,
          "duration": 0.21428550000000257
        },
        {
          "name": "E5",
          "midi": 76,
          "time": 83.27045244375056,
          "velocity": 0.7480314960629921,
          "duration": 0.21428550000000257
        },
        {
          "name": "E6",
          "midi": 88,
          "time": 83.27045244375056,
          "velocity": 0.7480314960629921,
          "duration": 0.21428550000000257
        },
        {
          "name": "E7",
          "midi": 100,
          "time": 83.27045244375056,
          "velocity": 0.7480314960629921,
          "duration": 0.21428550000000257
        },
        {
          "name": "E4",
          "midi": 64,
          "time": 83.48473794375056,
          "velocity": 0.7480314960629921,
          "duration": 0.21428550000000257
        },
        {
          "name": "E5",
          "midi": 76,
          "time": 83.48473794375056,
          "velocity": 0.7480314960629921,
          "duration": 0.21428550000000257
        },
        {
          "name": "E6",
          "midi": 88,
          "time": 83.48473794375056,
          "velocity": 0.7480314960629921,
          "duration": 0.21428550000000257
        },
        {
          "name": "E7",
          "midi": 100,
          "time": 83.48473794375056,
          "velocity": 0.7480314960629921,
          "duration": 0.21428550000000257
        },
        {
          "name": "E4",
          "midi": 64,
          "time": 83.69902344375056,
          "velocity": 0.7480314960629921,
          "duration": 0.21428550000000257
        },
        {
          "name": "E5",
          "midi": 76,
          "time": 83.69902344375056,
          "velocity": 0.7480314960629921,
          "duration": 0.21428550000000257
        },
        {
          "name": "E6",
          "midi": 88,
          "time": 83.69902344375056,
          "velocity": 0.7480314960629921,
          "duration": 0.21428550000000257
        },
        {
          "name": "E7",
          "midi": 100,
          "time": 83.69902344375056,
          "velocity": 0.7480314960629921,
          "duration": 0.21428550000000257
        },
        {
          "name": "E4",
          "midi": 64,
          "time": 83.91330894375056,
          "velocity": 0.7480314960629921,
          "duration": 0.21428550000000257
        },
        {
          "name": "E5",
          "midi": 76,
          "time": 83.91330894375056,
          "velocity": 0.7480314960629921,
          "duration": 0.21428550000000257
        },
        {
          "name": "E6",
          "midi": 88,
          "time": 83.91330894375056,
          "velocity": 0.7480314960629921,
          "duration": 0.21428550000000257
        },
        {
          "name": "E7",
          "midi": 100,
          "time": 83.91330894375056,
          "velocity": 0.7480314960629921,
          "duration": 0.21428550000000257
        },
        {
          "name": "E4",
          "midi": 64,
          "time": 84.12759444375057,
          "velocity": 0.7480314960629921,
          "duration": 0.21428550000000257
        },
        {
          "name": "E5",
          "midi": 76,
          "time": 84.12759444375057,
          "velocity": 0.7480314960629921,
          "duration": 0.21428550000000257
        },
        {
          "name": "E6",
          "midi": 88,
          "time": 84.12759444375057,
          "velocity": 0.7480314960629921,
          "duration": 0.21428550000000257
        },
        {
          "name": "E7",
          "midi": 100,
          "time": 84.12759444375057,
          "velocity": 0.7480314960629921,
          "duration": 0.21428550000000257
        },
        {
          "name": "E4",
          "midi": 64,
          "time": 84.34187994375057,
          "velocity": 0.7480314960629921,
          "duration": 0.21428550000000257
        },
        {
          "name": "E5",
          "midi": 76,
          "time": 84.34187994375057,
          "velocity": 0.7480314960629921,
          "duration": 0.21428550000000257
        },
        {
          "name": "E6",
          "midi": 88,
          "time": 84.34187994375057,
          "velocity": 0.7480314960629921,
          "duration": 0.21428550000000257
        },
        {
          "name": "E7",
          "midi": 100,
          "time": 84.34187994375057,
          "velocity": 0.7480314960629921,
          "duration": 0.21428550000000257
        },
        {
          "name": "E4",
          "midi": 64,
          "time": 84.55616544375057,
          "velocity": 0.7480314960629921,
          "duration": 0.21428550000000257
        },
        {
          "name": "E5",
          "midi": 76,
          "time": 84.55616544375057,
          "velocity": 0.7480314960629921,
          "duration": 0.21428550000000257
        },
        {
          "name": "E6",
          "midi": 88,
          "time": 84.55616544375057,
          "velocity": 0.7480314960629921,
          "duration": 0.21428550000000257
        },
        {
          "name": "E7",
          "midi": 100,
          "time": 84.55616544375057,
          "velocity": 0.7480314960629921,
          "duration": 0.21428550000000257
        },
        {
          "name": "E4",
          "midi": 64,
          "time": 84.77045094375057,
          "velocity": 0.7480314960629921,
          "duration": 0.21428550000000257
        },
        {
          "name": "E5",
          "midi": 76,
          "time": 84.77045094375057,
          "velocity": 0.7480314960629921,
          "duration": 0.21428550000000257
        },
        {
          "name": "E6",
          "midi": 88,
          "time": 84.77045094375057,
          "velocity": 0.7480314960629921,
          "duration": 0.21428550000000257
        },
        {
          "name": "E7",
          "midi": 100,
          "time": 84.77045094375057,
          "velocity": 0.7480314960629921,
          "duration": 0.21428550000000257
        },
        {
          "name": "E4",
          "midi": 64,
          "time": 84.98473644375058,
          "velocity": 0.7480314960629921,
          "duration": 0.21428550000000257
        },
        {
          "name": "E5",
          "midi": 76,
          "time": 84.98473644375058,
          "velocity": 0.7480314960629921,
          "duration": 0.21428550000000257
        },
        {
          "name": "E6",
          "midi": 88,
          "time": 84.98473644375058,
          "velocity": 0.7480314960629921,
          "duration": 0.21428550000000257
        },
        {
          "name": "E7",
          "midi": 100,
          "time": 84.98473644375058,
          "velocity": 0.7480314960629921,
          "duration": 0.21428550000000257
        },
        {
          "name": "E4",
          "midi": 64,
          "time": 85.19902194375058,
          "velocity": 0.7480314960629921,
          "duration": 0.21428550000000257
        },
        {
          "name": "E5",
          "midi": 76,
          "time": 85.19902194375058,
          "velocity": 0.7480314960629921,
          "duration": 0.21428550000000257
        },
        {
          "name": "E6",
          "midi": 88,
          "time": 85.19902194375058,
          "velocity": 0.7480314960629921,
          "duration": 0.21428550000000257
        },
        {
          "name": "E7",
          "midi": 100,
          "time": 85.19902194375058,
          "velocity": 0.7480314960629921,
          "duration": 0.21428550000000257
        },
        {
          "name": "E4",
          "midi": 64,
          "time": 85.41330744375058,
          "velocity": 0.7480314960629921,
          "duration": 0.21428550000000257
        },
        {
          "name": "E5",
          "midi": 76,
          "time": 85.41330744375058,
          "velocity": 0.7480314960629921,
          "duration": 0.21428550000000257
        },
        {
          "name": "E6",
          "midi": 88,
          "time": 85.41330744375058,
          "velocity": 0.7480314960629921,
          "duration": 0.21428550000000257
        },
        {
          "name": "E7",
          "midi": 100,
          "time": 85.41330744375058,
          "velocity": 0.7480314960629921,
          "duration": 0.21428550000000257
        },
        {
          "name": "E4",
          "midi": 64,
          "time": 85.62759294375059,
          "velocity": 0.7480314960629921,
          "duration": 0.21428550000000257
        },
        {
          "name": "E5",
          "midi": 76,
          "time": 85.62759294375059,
          "velocity": 0.7480314960629921,
          "duration": 0.21428550000000257
        },
        {
          "name": "E6",
          "midi": 88,
          "time": 85.62759294375059,
          "velocity": 0.7480314960629921,
          "duration": 0.21428550000000257
        },
        {
          "name": "E7",
          "midi": 100,
          "time": 85.62759294375059,
          "velocity": 0.7480314960629921,
          "duration": 0.21428550000000257
        },
        {
          "name": "E4",
          "midi": 64,
          "time": 85.84187844375059,
          "velocity": 0.7480314960629921,
          "duration": 0.21428550000000257
        },
        {
          "name": "E5",
          "midi": 76,
          "time": 85.84187844375059,
          "velocity": 0.7480314960629921,
          "duration": 0.21428550000000257
        },
        {
          "name": "E6",
          "midi": 88,
          "time": 85.84187844375059,
          "velocity": 0.7480314960629921,
          "duration": 0.21428550000000257
        },
        {
          "name": "E7",
          "midi": 100,
          "time": 85.84187844375059,
          "velocity": 0.7480314960629921,
          "duration": 0.21428550000000257
        },
        {
          "name": "E4",
          "midi": 64,
          "time": 86.05616394375059,
          "velocity": 0.7480314960629921,
          "duration": 0.21428550000000257
        },
        {
          "name": "E5",
          "midi": 76,
          "time": 86.05616394375059,
          "velocity": 0.7480314960629921,
          "duration": 0.21428550000000257
        },
        {
          "name": "E6",
          "midi": 88,
          "time": 86.05616394375059,
          "velocity": 0.7480314960629921,
          "duration": 0.21428550000000257
        },
        {
          "name": "E7",
          "midi": 100,
          "time": 86.05616394375059,
          "velocity": 0.7480314960629921,
          "duration": 0.21428550000000257
        },
        {
          "name": "E4",
          "midi": 64,
          "time": 86.27044944375059,
          "velocity": 0.7480314960629921,
          "duration": 0.21428550000000257
        },
        {
          "name": "E5",
          "midi": 76,
          "time": 86.27044944375059,
          "velocity": 0.7480314960629921,
          "duration": 0.21428550000000257
        },
        {
          "name": "E6",
          "midi": 88,
          "time": 86.27044944375059,
          "velocity": 0.7480314960629921,
          "duration": 0.21428550000000257
        },
        {
          "name": "E7",
          "midi": 100,
          "time": 86.27044944375059,
          "velocity": 0.7480314960629921,
          "duration": 0.21428550000000257
        },
        {
          "name": "E4",
          "midi": 64,
          "time": 86.4847349437506,
          "velocity": 0.7480314960629921,
          "duration": 0.21428550000000257
        },
        {
          "name": "E5",
          "midi": 76,
          "time": 86.4847349437506,
          "velocity": 0.7480314960629921,
          "duration": 0.21428550000000257
        },
        {
          "name": "E6",
          "midi": 88,
          "time": 86.4847349437506,
          "velocity": 0.7480314960629921,
          "duration": 0.21428550000000257
        },
        {
          "name": "E7",
          "midi": 100,
          "time": 86.4847349437506,
          "velocity": 0.7480314960629921,
          "duration": 0.21428550000000257
        },
        {
          "name": "E4",
          "midi": 64,
          "time": 86.6990204437506,
          "velocity": 0.7480314960629921,
          "duration": 0.21428550000000257
        },
        {
          "name": "E5",
          "midi": 76,
          "time": 86.6990204437506,
          "velocity": 0.7480314960629921,
          "duration": 0.21428550000000257
        },
        {
          "name": "E6",
          "midi": 88,
          "time": 86.6990204437506,
          "velocity": 0.7480314960629921,
          "duration": 0.21428550000000257
        },
        {
          "name": "E7",
          "midi": 100,
          "time": 86.6990204437506,
          "velocity": 0.7480314960629921,
          "duration": 0.21428550000000257
        },
        {
          "name": "E4",
          "midi": 64,
          "time": 86.9133059437506,
          "velocity": 0.7480314960629921,
          "duration": 0.21428550000000257
        },
        {
          "name": "E5",
          "midi": 76,
          "time": 86.9133059437506,
          "velocity": 0.7480314960629921,
          "duration": 0.21428550000000257
        },
        {
          "name": "E6",
          "midi": 88,
          "time": 86.9133059437506,
          "velocity": 0.7480314960629921,
          "duration": 0.21428550000000257
        },
        {
          "name": "E7",
          "midi": 100,
          "time": 86.9133059437506,
          "velocity": 0.7480314960629921,
          "duration": 0.21428550000000257
        },
        {
          "name": "E4",
          "midi": 64,
          "time": 87.1275914437506,
          "velocity": 0.7480314960629921,
          "duration": 0.21428550000000257
        },
        {
          "name": "E5",
          "midi": 76,
          "time": 87.1275914437506,
          "velocity": 0.7480314960629921,
          "duration": 0.21428550000000257
        },
        {
          "name": "E6",
          "midi": 88,
          "time": 87.1275914437506,
          "velocity": 0.7480314960629921,
          "duration": 0.21428550000000257
        },
        {
          "name": "E7",
          "midi": 100,
          "time": 87.1275914437506,
          "velocity": 0.7480314960629921,
          "duration": 0.21428550000000257
        },
        {
          "name": "E4",
          "midi": 64,
          "time": 87.3418769437506,
          "velocity": 0.7480314960629921,
          "duration": 0.21428550000000257
        },
        {
          "name": "E5",
          "midi": 76,
          "time": 87.3418769437506,
          "velocity": 0.7480314960629921,
          "duration": 0.21428550000000257
        },
        {
          "name": "E6",
          "midi": 88,
          "time": 87.3418769437506,
          "velocity": 0.7480314960629921,
          "duration": 0.21428550000000257
        },
        {
          "name": "E7",
          "midi": 100,
          "time": 87.3418769437506,
          "velocity": 0.7480314960629921,
          "duration": 0.21428550000000257
        },
        {
          "name": "E4",
          "midi": 64,
          "time": 87.55616244375061,
          "velocity": 0.7480314960629921,
          "duration": 0.21428550000000257
        },
        {
          "name": "E5",
          "midi": 76,
          "time": 87.55616244375061,
          "velocity": 0.7480314960629921,
          "duration": 0.21428550000000257
        },
        {
          "name": "E6",
          "midi": 88,
          "time": 87.55616244375061,
          "velocity": 0.7480314960629921,
          "duration": 0.21428550000000257
        },
        {
          "name": "E7",
          "midi": 100,
          "time": 87.55616244375061,
          "velocity": 0.7480314960629921,
          "duration": 0.21428550000000257
        },
        {
          "name": "E4",
          "midi": 64,
          "time": 87.77044794375061,
          "velocity": 0.7480314960629921,
          "duration": 0.21428550000000257
        },
        {
          "name": "E5",
          "midi": 76,
          "time": 87.77044794375061,
          "velocity": 0.7480314960629921,
          "duration": 0.21428550000000257
        },
        {
          "name": "E6",
          "midi": 88,
          "time": 87.77044794375061,
          "velocity": 0.7480314960629921,
          "duration": 0.21428550000000257
        },
        {
          "name": "E7",
          "midi": 100,
          "time": 87.77044794375061,
          "velocity": 0.7480314960629921,
          "duration": 0.21428550000000257
        },
        {
          "name": "E4",
          "midi": 64,
          "time": 87.98473344375061,
          "velocity": 0.7480314960629921,
          "duration": 0.21428550000000257
        },
        {
          "name": "E5",
          "midi": 76,
          "time": 87.98473344375061,
          "velocity": 0.7480314960629921,
          "duration": 0.21428550000000257
        },
        {
          "name": "E6",
          "midi": 88,
          "time": 87.98473344375061,
          "velocity": 0.7480314960629921,
          "duration": 0.21428550000000257
        },
        {
          "name": "E7",
          "midi": 100,
          "time": 87.98473344375061,
          "velocity": 0.7480314960629921,
          "duration": 0.21428550000000257
        },
        {
          "name": "E4",
          "midi": 64,
          "time": 88.19901894375062,
          "velocity": 0.7480314960629921,
          "duration": 0.21428550000000257
        },
        {
          "name": "E5",
          "midi": 76,
          "time": 88.19901894375062,
          "velocity": 0.7480314960629921,
          "duration": 0.21428550000000257
        },
        {
          "name": "E6",
          "midi": 88,
          "time": 88.19901894375062,
          "velocity": 0.7480314960629921,
          "duration": 0.21428550000000257
        },
        {
          "name": "E7",
          "midi": 100,
          "time": 88.19901894375062,
          "velocity": 0.7480314960629921,
          "duration": 0.21428550000000257
        },
        {
          "name": "E4",
          "midi": 64,
          "time": 88.41330444375062,
          "velocity": 0.7480314960629921,
          "duration": 0.21428550000000257
        },
        {
          "name": "E5",
          "midi": 76,
          "time": 88.41330444375062,
          "velocity": 0.7480314960629921,
          "duration": 0.21428550000000257
        },
        {
          "name": "E6",
          "midi": 88,
          "time": 88.41330444375062,
          "velocity": 0.7480314960629921,
          "duration": 0.21428550000000257
        },
        {
          "name": "E7",
          "midi": 100,
          "time": 88.41330444375062,
          "velocity": 0.7480314960629921,
          "duration": 0.21428550000000257
        },
        {
          "name": "E4",
          "midi": 64,
          "time": 88.62758994375062,
          "velocity": 0.7480314960629921,
          "duration": 0.21428550000000257
        },
        {
          "name": "E5",
          "midi": 76,
          "time": 88.62758994375062,
          "velocity": 0.7480314960629921,
          "duration": 0.21428550000000257
        },
        {
          "name": "E6",
          "midi": 88,
          "time": 88.62758994375062,
          "velocity": 0.7480314960629921,
          "duration": 0.21428550000000257
        },
        {
          "name": "E7",
          "midi": 100,
          "time": 88.62758994375062,
          "velocity": 0.7480314960629921,
          "duration": 0.21428550000000257
        },
        {
          "name": "E4",
          "midi": 64,
          "time": 88.84187544375062,
          "velocity": 0.7480314960629921,
          "duration": 0.21428550000000257
        },
        {
          "name": "E5",
          "midi": 76,
          "time": 88.84187544375062,
          "velocity": 0.7480314960629921,
          "duration": 0.21428550000000257
        },
        {
          "name": "E6",
          "midi": 88,
          "time": 88.84187544375062,
          "velocity": 0.7480314960629921,
          "duration": 0.21428550000000257
        },
        {
          "name": "E7",
          "midi": 100,
          "time": 88.84187544375062,
          "velocity": 0.7480314960629921,
          "duration": 0.21428550000000257
        },
        {
          "name": "E4",
          "midi": 64,
          "time": 89.05616094375063,
          "velocity": 0.7480314960629921,
          "duration": 0.21428550000000257
        },
        {
          "name": "E5",
          "midi": 76,
          "time": 89.05616094375063,
          "velocity": 0.7480314960629921,
          "duration": 0.21428550000000257
        },
        {
          "name": "E6",
          "midi": 88,
          "time": 89.05616094375063,
          "velocity": 0.7480314960629921,
          "duration": 0.21428550000000257
        },
        {
          "name": "E7",
          "midi": 100,
          "time": 89.05616094375063,
          "velocity": 0.7480314960629921,
          "duration": 0.21428550000000257
        },
        {
          "name": "E4",
          "midi": 64,
          "time": 89.27044644375063,
          "velocity": 0.7480314960629921,
          "duration": 0.21428550000000257
        },
        {
          "name": "E5",
          "midi": 76,
          "time": 89.27044644375063,
          "velocity": 0.7480314960629921,
          "duration": 0.21428550000000257
        },
        {
          "name": "E6",
          "midi": 88,
          "time": 89.27044644375063,
          "velocity": 0.7480314960629921,
          "duration": 0.21428550000000257
        },
        {
          "name": "E7",
          "midi": 100,
          "time": 89.27044644375063,
          "velocity": 0.7480314960629921,
          "duration": 0.21428550000000257
        },
        {
          "name": "E4",
          "midi": 64,
          "time": 89.48473194375063,
          "velocity": 0.7480314960629921,
          "duration": 0.21428550000000257
        },
        {
          "name": "E5",
          "midi": 76,
          "time": 89.48473194375063,
          "velocity": 0.7480314960629921,
          "duration": 0.21428550000000257
        },
        {
          "name": "E6",
          "midi": 88,
          "time": 89.48473194375063,
          "velocity": 0.7480314960629921,
          "duration": 0.21428550000000257
        },
        {
          "name": "E7",
          "midi": 100,
          "time": 89.48473194375063,
          "velocity": 0.7480314960629921,
          "duration": 0.21428550000000257
        },
        {
          "name": "E4",
          "midi": 64,
          "time": 89.69901744375063,
          "velocity": 0.7480314960629921,
          "duration": 0.21428550000000257
        },
        {
          "name": "E5",
          "midi": 76,
          "time": 89.69901744375063,
          "velocity": 0.7480314960629921,
          "duration": 0.21428550000000257
        },
        {
          "name": "E6",
          "midi": 88,
          "time": 89.69901744375063,
          "velocity": 0.7480314960629921,
          "duration": 0.21428550000000257
        },
        {
          "name": "E7",
          "midi": 100,
          "time": 89.69901744375063,
          "velocity": 0.7480314960629921,
          "duration": 0.21428550000000257
        },
        {
          "name": "E4",
          "midi": 64,
          "time": 89.91330294375064,
          "velocity": 0.7480314960629921,
          "duration": 0.21428550000000257
        },
        {
          "name": "E5",
          "midi": 76,
          "time": 89.91330294375064,
          "velocity": 0.7480314960629921,
          "duration": 0.21428550000000257
        },
        {
          "name": "E6",
          "midi": 88,
          "time": 89.91330294375064,
          "velocity": 0.7480314960629921,
          "duration": 0.21428550000000257
        },
        {
          "name": "E7",
          "midi": 100,
          "time": 89.91330294375064,
          "velocity": 0.7480314960629921,
          "duration": 0.21428550000000257
        },
        {
          "name": "E4",
          "midi": 64,
          "time": 90.12758844375064,
          "velocity": 0.7480314960629921,
          "duration": 0.21428550000000257
        },
        {
          "name": "E5",
          "midi": 76,
          "time": 90.12758844375064,
          "velocity": 0.7480314960629921,
          "duration": 0.21428550000000257
        },
        {
          "name": "E6",
          "midi": 88,
          "time": 90.12758844375064,
          "velocity": 0.7480314960629921,
          "duration": 0.21428550000000257
        },
        {
          "name": "E7",
          "midi": 100,
          "time": 90.12758844375064,
          "velocity": 0.7480314960629921,
          "duration": 0.21428550000000257
        },
        {
          "name": "E4",
          "midi": 64,
          "time": 90.34187394375064,
          "velocity": 0.7480314960629921,
          "duration": 0.21428550000000257
        },
        {
          "name": "E5",
          "midi": 76,
          "time": 90.34187394375064,
          "velocity": 0.7480314960629921,
          "duration": 0.21428550000000257
        },
        {
          "name": "E6",
          "midi": 88,
          "time": 90.34187394375064,
          "velocity": 0.7480314960629921,
          "duration": 0.21428550000000257
        },
        {
          "name": "E7",
          "midi": 100,
          "time": 90.34187394375064,
          "velocity": 0.7480314960629921,
          "duration": 0.21428550000000257
        },
        {
          "name": "E4",
          "midi": 64,
          "time": 90.55615944375064,
          "velocity": 0.7480314960629921,
          "duration": 0.21428550000000257
        },
        {
          "name": "E5",
          "midi": 76,
          "time": 90.55615944375064,
          "velocity": 0.7480314960629921,
          "duration": 0.21428550000000257
        },
        {
          "name": "E6",
          "midi": 88,
          "time": 90.55615944375064,
          "velocity": 0.7480314960629921,
          "duration": 0.21428550000000257
        },
        {
          "name": "E7",
          "midi": 100,
          "time": 90.55615944375064,
          "velocity": 0.7480314960629921,
          "duration": 0.21428550000000257
        },
        {
          "name": "E4",
          "midi": 64,
          "time": 90.77044494375065,
          "velocity": 0.7480314960629921,
          "duration": 0.21428550000000257
        },
        {
          "name": "E5",
          "midi": 76,
          "time": 90.77044494375065,
          "velocity": 0.7480314960629921,
          "duration": 0.21428550000000257
        },
        {
          "name": "E6",
          "midi": 88,
          "time": 90.77044494375065,
          "velocity": 0.7480314960629921,
          "duration": 0.21428550000000257
        },
        {
          "name": "E7",
          "midi": 100,
          "time": 90.77044494375065,
          "velocity": 0.7480314960629921,
          "duration": 0.21428550000000257
        },
        {
          "name": "E4",
          "midi": 64,
          "time": 90.98473044375065,
          "velocity": 0.7480314960629921,
          "duration": 0.21428550000000257
        },
        {
          "name": "E5",
          "midi": 76,
          "time": 90.98473044375065,
          "velocity": 0.7480314960629921,
          "duration": 0.21428550000000257
        },
        {
          "name": "E6",
          "midi": 88,
          "time": 90.98473044375065,
          "velocity": 0.7480314960629921,
          "duration": 0.21428550000000257
        },
        {
          "name": "E7",
          "midi": 100,
          "time": 90.98473044375065,
          "velocity": 0.7480314960629921,
          "duration": 0.21428550000000257
        },
        {
          "name": "E4",
          "midi": 64,
          "time": 91.19901594375065,
          "velocity": 0.7480314960629921,
          "duration": 0.21428550000000257
        },
        {
          "name": "E5",
          "midi": 76,
          "time": 91.19901594375065,
          "velocity": 0.7480314960629921,
          "duration": 0.21428550000000257
        },
        {
          "name": "E6",
          "midi": 88,
          "time": 91.19901594375065,
          "velocity": 0.7480314960629921,
          "duration": 0.21428550000000257
        },
        {
          "name": "E7",
          "midi": 100,
          "time": 91.19901594375065,
          "velocity": 0.7480314960629921,
          "duration": 0.21428550000000257
        },
        {
          "name": "E4",
          "midi": 64,
          "time": 91.41330144375065,
          "velocity": 0.7480314960629921,
          "duration": 0.21428550000000257
        },
        {
          "name": "E5",
          "midi": 76,
          "time": 91.41330144375065,
          "velocity": 0.7480314960629921,
          "duration": 0.21428550000000257
        },
        {
          "name": "E6",
          "midi": 88,
          "time": 91.41330144375065,
          "velocity": 0.7480314960629921,
          "duration": 0.21428550000000257
        },
        {
          "name": "E7",
          "midi": 100,
          "time": 91.41330144375065,
          "velocity": 0.7480314960629921,
          "duration": 0.21428550000000257
        },
        {
          "name": "E4",
          "midi": 64,
          "time": 91.62758694375066,
          "velocity": 0.7480314960629921,
          "duration": 0.21428550000000257
        },
        {
          "name": "E5",
          "midi": 76,
          "time": 91.62758694375066,
          "velocity": 0.7480314960629921,
          "duration": 0.21428550000000257
        },
        {
          "name": "E6",
          "midi": 88,
          "time": 91.62758694375066,
          "velocity": 0.7480314960629921,
          "duration": 0.21428550000000257
        },
        {
          "name": "E7",
          "midi": 100,
          "time": 91.62758694375066,
          "velocity": 0.7480314960629921,
          "duration": 0.21428550000000257
        },
        {
          "name": "E4",
          "midi": 64,
          "time": 91.84187244375066,
          "velocity": 0.7480314960629921,
          "duration": 0.21428550000000257
        },
        {
          "name": "E5",
          "midi": 76,
          "time": 91.84187244375066,
          "velocity": 0.7480314960629921,
          "duration": 0.21428550000000257
        },
        {
          "name": "E6",
          "midi": 88,
          "time": 91.84187244375066,
          "velocity": 0.7480314960629921,
          "duration": 0.21428550000000257
        },
        {
          "name": "E7",
          "midi": 100,
          "time": 91.84187244375066,
          "velocity": 0.7480314960629921,
          "duration": 0.21428550000000257
        },
        {
          "name": "E4",
          "midi": 64,
          "time": 92.05615794375066,
          "velocity": 0.7480314960629921,
          "duration": 0.21428550000000257
        },
        {
          "name": "E5",
          "midi": 76,
          "time": 92.05615794375066,
          "velocity": 0.7480314960629921,
          "duration": 0.21428550000000257
        },
        {
          "name": "E6",
          "midi": 88,
          "time": 92.05615794375066,
          "velocity": 0.7480314960629921,
          "duration": 0.21428550000000257
        },
        {
          "name": "E7",
          "midi": 100,
          "time": 92.05615794375066,
          "velocity": 0.7480314960629921,
          "duration": 0.21428550000000257
        },
        {
          "name": "E4",
          "midi": 64,
          "time": 92.27044344375066,
          "velocity": 0.7480314960629921,
          "duration": 0.21428550000000257
        },
        {
          "name": "E5",
          "midi": 76,
          "time": 92.27044344375066,
          "velocity": 0.7480314960629921,
          "duration": 0.21428550000000257
        },
        {
          "name": "E6",
          "midi": 88,
          "time": 92.27044344375066,
          "velocity": 0.7480314960629921,
          "duration": 0.21428550000000257
        },
        {
          "name": "E7",
          "midi": 100,
          "time": 92.27044344375066,
          "velocity": 0.7480314960629921,
          "duration": 0.21428550000000257
        },
        {
          "name": "E4",
          "midi": 64,
          "time": 92.48472894375067,
          "velocity": 0.7480314960629921,
          "duration": 0.21428550000000257
        },
        {
          "name": "E5",
          "midi": 76,
          "time": 92.48472894375067,
          "velocity": 0.7480314960629921,
          "duration": 0.21428550000000257
        },
        {
          "name": "E6",
          "midi": 88,
          "time": 92.48472894375067,
          "velocity": 0.7480314960629921,
          "duration": 0.21428550000000257
        },
        {
          "name": "E7",
          "midi": 100,
          "time": 92.48472894375067,
          "velocity": 0.7480314960629921,
          "duration": 0.21428550000000257
        },
        {
          "name": "E4",
          "midi": 64,
          "time": 92.69901444375067,
          "velocity": 0.7480314960629921,
          "duration": 0.21428550000000257
        },
        {
          "name": "E5",
          "midi": 76,
          "time": 92.69901444375067,
          "velocity": 0.7480314960629921,
          "duration": 0.21428550000000257
        },
        {
          "name": "E6",
          "midi": 88,
          "time": 92.69901444375067,
          "velocity": 0.7480314960629921,
          "duration": 0.21428550000000257
        },
        {
          "name": "E7",
          "midi": 100,
          "time": 92.69901444375067,
          "velocity": 0.7480314960629921,
          "duration": 0.21428550000000257
        },
        {
          "name": "E4",
          "midi": 64,
          "time": 92.91329994375067,
          "velocity": 0.7480314960629921,
          "duration": 0.21428550000000257
        },
        {
          "name": "E5",
          "midi": 76,
          "time": 92.91329994375067,
          "velocity": 0.7480314960629921,
          "duration": 0.21428550000000257
        },
        {
          "name": "E6",
          "midi": 88,
          "time": 92.91329994375067,
          "velocity": 0.7480314960629921,
          "duration": 0.21428550000000257
        },
        {
          "name": "E7",
          "midi": 100,
          "time": 92.91329994375067,
          "velocity": 0.7480314960629921,
          "duration": 0.21428550000000257
        },
        {
          "name": "E4",
          "midi": 64,
          "time": 93.12758544375068,
          "velocity": 0.7480314960629921,
          "duration": 0.21428550000000257
        },
        {
          "name": "E5",
          "midi": 76,
          "time": 93.12758544375068,
          "velocity": 0.7480314960629921,
          "duration": 0.21428550000000257
        },
        {
          "name": "E6",
          "midi": 88,
          "time": 93.12758544375068,
          "velocity": 0.7480314960629921,
          "duration": 0.21428550000000257
        },
        {
          "name": "E7",
          "midi": 100,
          "time": 93.12758544375068,
          "velocity": 0.7480314960629921,
          "duration": 0.21428550000000257
        },
        {
          "name": "E4",
          "midi": 64,
          "time": 93.34187094375068,
          "velocity": 0.7480314960629921,
          "duration": 0.21428550000000257
        },
        {
          "name": "E5",
          "midi": 76,
          "time": 93.34187094375068,
          "velocity": 0.7480314960629921,
          "duration": 0.21428550000000257
        },
        {
          "name": "E6",
          "midi": 88,
          "time": 93.34187094375068,
          "velocity": 0.7480314960629921,
          "duration": 0.21428550000000257
        },
        {
          "name": "E7",
          "midi": 100,
          "time": 93.34187094375068,
          "velocity": 0.7480314960629921,
          "duration": 0.21428550000000257
        },
        {
          "name": "E4",
          "midi": 64,
          "time": 93.55615644375068,
          "velocity": 0.7480314960629921,
          "duration": 0.21428550000000257
        },
        {
          "name": "E5",
          "midi": 76,
          "time": 93.55615644375068,
          "velocity": 0.7480314960629921,
          "duration": 0.21428550000000257
        },
        {
          "name": "E6",
          "midi": 88,
          "time": 93.55615644375068,
          "velocity": 0.7480314960629921,
          "duration": 0.21428550000000257
        },
        {
          "name": "E7",
          "midi": 100,
          "time": 93.55615644375068,
          "velocity": 0.7480314960629921,
          "duration": 0.21428550000000257
        },
        {
          "name": "E4",
          "midi": 64,
          "time": 93.77044194375068,
          "velocity": 0.7480314960629921,
          "duration": 0.21428550000000257
        },
        {
          "name": "E5",
          "midi": 76,
          "time": 93.77044194375068,
          "velocity": 0.7480314960629921,
          "duration": 0.21428550000000257
        },
        {
          "name": "E6",
          "midi": 88,
          "time": 93.77044194375068,
          "velocity": 0.7480314960629921,
          "duration": 0.21428550000000257
        },
        {
          "name": "E7",
          "midi": 100,
          "time": 93.77044194375068,
          "velocity": 0.7480314960629921,
          "duration": 0.21428550000000257
        },
        {
          "name": "E4",
          "midi": 64,
          "time": 93.98472744375069,
          "velocity": 0.7480314960629921,
          "duration": 0.21428550000000257
        },
        {
          "name": "E5",
          "midi": 76,
          "time": 93.98472744375069,
          "velocity": 0.7480314960629921,
          "duration": 0.21428550000000257
        },
        {
          "name": "E6",
          "midi": 88,
          "time": 93.98472744375069,
          "velocity": 0.7480314960629921,
          "duration": 0.21428550000000257
        },
        {
          "name": "E7",
          "midi": 100,
          "time": 93.98472744375069,
          "velocity": 0.7480314960629921,
          "duration": 0.21428550000000257
        },
        {
          "name": "E4",
          "midi": 64,
          "time": 94.19901294375069,
          "velocity": 0.7480314960629921,
          "duration": 0.21428550000000257
        },
        {
          "name": "E5",
          "midi": 76,
          "time": 94.19901294375069,
          "velocity": 0.7480314960629921,
          "duration": 0.21428550000000257
        },
        {
          "name": "E6",
          "midi": 88,
          "time": 94.19901294375069,
          "velocity": 0.7480314960629921,
          "duration": 0.21428550000000257
        },
        {
          "name": "E7",
          "midi": 100,
          "time": 94.19901294375069,
          "velocity": 0.7480314960629921,
          "duration": 0.21428550000000257
        },
        {
          "name": "E4",
          "midi": 64,
          "time": 94.41329844375069,
          "velocity": 0.7480314960629921,
          "duration": 0.21428550000000257
        },
        {
          "name": "E5",
          "midi": 76,
          "time": 94.41329844375069,
          "velocity": 0.7480314960629921,
          "duration": 0.21428550000000257
        },
        {
          "name": "E6",
          "midi": 88,
          "time": 94.41329844375069,
          "velocity": 0.7480314960629921,
          "duration": 0.21428550000000257
        },
        {
          "name": "E7",
          "midi": 100,
          "time": 94.41329844375069,
          "velocity": 0.7480314960629921,
          "duration": 0.21428550000000257
        },
        {
          "name": "E4",
          "midi": 64,
          "time": 94.6275839437507,
          "velocity": 0.7480314960629921,
          "duration": 0.21428550000000257
        },
        {
          "name": "E5",
          "midi": 76,
          "time": 94.6275839437507,
          "velocity": 0.7480314960629921,
          "duration": 0.21428550000000257
        },
        {
          "name": "E6",
          "midi": 88,
          "time": 94.6275839437507,
          "velocity": 0.7480314960629921,
          "duration": 0.21428550000000257
        },
        {
          "name": "E7",
          "midi": 100,
          "time": 94.6275839437507,
          "velocity": 0.7480314960629921,
          "duration": 0.21428550000000257
        },
        {
          "name": "E4",
          "midi": 64,
          "time": 94.8418694437507,
          "velocity": 0.7480314960629921,
          "duration": 0.21428550000000257
        },
        {
          "name": "E5",
          "midi": 76,
          "time": 94.8418694437507,
          "velocity": 0.7480314960629921,
          "duration": 0.21428550000000257
        },
        {
          "name": "E6",
          "midi": 88,
          "time": 94.8418694437507,
          "velocity": 0.7480314960629921,
          "duration": 0.21428550000000257
        },
        {
          "name": "E7",
          "midi": 100,
          "time": 94.8418694437507,
          "velocity": 0.7480314960629921,
          "duration": 0.21428550000000257
        },
        {
          "name": "E4",
          "midi": 64,
          "time": 95.0561549437507,
          "velocity": 0.7480314960629921,
          "duration": 0.21428550000000257
        },
        {
          "name": "E5",
          "midi": 76,
          "time": 95.0561549437507,
          "velocity": 0.7480314960629921,
          "duration": 0.21428550000000257
        },
        {
          "name": "E6",
          "midi": 88,
          "time": 95.0561549437507,
          "velocity": 0.7480314960629921,
          "duration": 0.21428550000000257
        },
        {
          "name": "E7",
          "midi": 100,
          "time": 95.0561549437507,
          "velocity": 0.7480314960629921,
          "duration": 0.21428550000000257
        },
        {
          "name": "E4",
          "midi": 64,
          "time": 95.2704404437507,
          "velocity": 0.7480314960629921,
          "duration": 0.21428550000000257
        },
        {
          "name": "E5",
          "midi": 76,
          "time": 95.2704404437507,
          "velocity": 0.7480314960629921,
          "duration": 0.21428550000000257
        },
        {
          "name": "E6",
          "midi": 88,
          "time": 95.2704404437507,
          "velocity": 0.7480314960629921,
          "duration": 0.21428550000000257
        },
        {
          "name": "E7",
          "midi": 100,
          "time": 95.2704404437507,
          "velocity": 0.7480314960629921,
          "duration": 0.21428550000000257
        },
        {
          "name": "E4",
          "midi": 64,
          "time": 95.4847259437507,
          "velocity": 0.7480314960629921,
          "duration": 0.21428550000000257
        },
        {
          "name": "E5",
          "midi": 76,
          "time": 95.4847259437507,
          "velocity": 0.7480314960629921,
          "duration": 0.21428550000000257
        },
        {
          "name": "E6",
          "midi": 88,
          "time": 95.4847259437507,
          "velocity": 0.7480314960629921,
          "duration": 0.21428550000000257
        },
        {
          "name": "E7",
          "midi": 100,
          "time": 95.4847259437507,
          "velocity": 0.7480314960629921,
          "duration": 0.21428550000000257
        },
        {
          "name": "E4",
          "midi": 64,
          "time": 95.6990114437507,
          "velocity": 0.7480314960629921,
          "duration": 0.21428550000000257
        },
        {
          "name": "E5",
          "midi": 76,
          "time": 95.6990114437507,
          "velocity": 0.7480314960629921,
          "duration": 0.21428550000000257
        },
        {
          "name": "E6",
          "midi": 88,
          "time": 95.6990114437507,
          "velocity": 0.7480314960629921,
          "duration": 0.21428550000000257
        },
        {
          "name": "E7",
          "midi": 100,
          "time": 95.6990114437507,
          "velocity": 0.7480314960629921,
          "duration": 0.21428550000000257
        },
        {
          "name": "E4",
          "midi": 64,
          "time": 95.91329694375071,
          "velocity": 0.7480314960629921,
          "duration": 0.21428550000000257
        },
        {
          "name": "E5",
          "midi": 76,
          "time": 95.91329694375071,
          "velocity": 0.7480314960629921,
          "duration": 0.21428550000000257
        },
        {
          "name": "E6",
          "midi": 88,
          "time": 95.91329694375071,
          "velocity": 0.7480314960629921,
          "duration": 0.21428550000000257
        },
        {
          "name": "E7",
          "midi": 100,
          "time": 95.91329694375071,
          "velocity": 0.7480314960629921,
          "duration": 0.21428550000000257
        },
        {
          "name": "E4",
          "midi": 64,
          "time": 96.12758244375071,
          "velocity": 0.7480314960629921,
          "duration": 0.21428550000000257
        },
        {
          "name": "E5",
          "midi": 76,
          "time": 96.12758244375071,
          "velocity": 0.7480314960629921,
          "duration": 0.21428550000000257
        },
        {
          "name": "E6",
          "midi": 88,
          "time": 96.12758244375071,
          "velocity": 0.7480314960629921,
          "duration": 0.21428550000000257
        },
        {
          "name": "E7",
          "midi": 100,
          "time": 96.12758244375071,
          "velocity": 0.7480314960629921,
          "duration": 0.21428550000000257
        },
        {
          "name": "E4",
          "midi": 64,
          "time": 96.34186794375071,
          "velocity": 0.7480314960629921,
          "duration": 0.21428550000000257
        },
        {
          "name": "E5",
          "midi": 76,
          "time": 96.34186794375071,
          "velocity": 0.7480314960629921,
          "duration": 0.21428550000000257
        },
        {
          "name": "E6",
          "midi": 88,
          "time": 96.34186794375071,
          "velocity": 0.7480314960629921,
          "duration": 0.21428550000000257
        },
        {
          "name": "E7",
          "midi": 100,
          "time": 96.34186794375071,
          "velocity": 0.7480314960629921,
          "duration": 0.21428550000000257
        },
        {
          "name": "E4",
          "midi": 64,
          "time": 96.55615344375072,
          "velocity": 0.7480314960629921,
          "duration": 0.21428550000000257
        },
        {
          "name": "E5",
          "midi": 76,
          "time": 96.55615344375072,
          "velocity": 0.7480314960629921,
          "duration": 0.21428550000000257
        },
        {
          "name": "E6",
          "midi": 88,
          "time": 96.55615344375072,
          "velocity": 0.7480314960629921,
          "duration": 0.21428550000000257
        },
        {
          "name": "E7",
          "midi": 100,
          "time": 96.55615344375072,
          "velocity": 0.7480314960629921,
          "duration": 0.21428550000000257
        },
        {
          "name": "E4",
          "midi": 64,
          "time": 96.77043894375072,
          "velocity": 0.7480314960629921,
          "duration": 0.21428550000000257
        },
        {
          "name": "E5",
          "midi": 76,
          "time": 96.77043894375072,
          "velocity": 0.7480314960629921,
          "duration": 0.21428550000000257
        },
        {
          "name": "E6",
          "midi": 88,
          "time": 96.77043894375072,
          "velocity": 0.7480314960629921,
          "duration": 0.21428550000000257
        },
        {
          "name": "E7",
          "midi": 100,
          "time": 96.77043894375072,
          "velocity": 0.7480314960629921,
          "duration": 0.21428550000000257
        },
        {
          "name": "E4",
          "midi": 64,
          "time": 96.98472444375072,
          "velocity": 0.7480314960629921,
          "duration": 0.21428550000000257
        },
        {
          "name": "E5",
          "midi": 76,
          "time": 96.98472444375072,
          "velocity": 0.7480314960629921,
          "duration": 0.21428550000000257
        },
        {
          "name": "E6",
          "midi": 88,
          "time": 96.98472444375072,
          "velocity": 0.7480314960629921,
          "duration": 0.21428550000000257
        },
        {
          "name": "E7",
          "midi": 100,
          "time": 96.98472444375072,
          "velocity": 0.7480314960629921,
          "duration": 0.21428550000000257
        },
        {
          "name": "E4",
          "midi": 64,
          "time": 97.19900994375072,
          "velocity": 0.7480314960629921,
          "duration": 0.21428550000000257
        },
        {
          "name": "E5",
          "midi": 76,
          "time": 97.19900994375072,
          "velocity": 0.7480314960629921,
          "duration": 0.21428550000000257
        },
        {
          "name": "E6",
          "midi": 88,
          "time": 97.19900994375072,
          "velocity": 0.7480314960629921,
          "duration": 0.21428550000000257
        },
        {
          "name": "E7",
          "midi": 100,
          "time": 97.19900994375072,
          "velocity": 0.7480314960629921,
          "duration": 0.21428550000000257
        },
        {
          "name": "E4",
          "midi": 64,
          "time": 97.41329544375073,
          "velocity": 0.7480314960629921,
          "duration": 0.21428550000000257
        },
        {
          "name": "E5",
          "midi": 76,
          "time": 97.41329544375073,
          "velocity": 0.7480314960629921,
          "duration": 0.21428550000000257
        },
        {
          "name": "E6",
          "midi": 88,
          "time": 97.41329544375073,
          "velocity": 0.7480314960629921,
          "duration": 0.21428550000000257
        },
        {
          "name": "E7",
          "midi": 100,
          "time": 97.41329544375073,
          "velocity": 0.7480314960629921,
          "duration": 0.21428550000000257
        },
        {
          "name": "E4",
          "midi": 64,
          "time": 97.62758094375073,
          "velocity": 0.7480314960629921,
          "duration": 0.21428550000000257
        },
        {
          "name": "E5",
          "midi": 76,
          "time": 97.62758094375073,
          "velocity": 0.7480314960629921,
          "duration": 0.21428550000000257
        },
        {
          "name": "E6",
          "midi": 88,
          "time": 97.62758094375073,
          "velocity": 0.7480314960629921,
          "duration": 0.21428550000000257
        },
        {
          "name": "E7",
          "midi": 100,
          "time": 97.62758094375073,
          "velocity": 0.7480314960629921,
          "duration": 0.21428550000000257
        },
        {
          "name": "E4",
          "midi": 64,
          "time": 97.84186644375073,
          "velocity": 0.7480314960629921,
          "duration": 0.21428550000000257
        },
        {
          "name": "E5",
          "midi": 76,
          "time": 97.84186644375073,
          "velocity": 0.7480314960629921,
          "duration": 0.21428550000000257
        },
        {
          "name": "E6",
          "midi": 88,
          "time": 97.84186644375073,
          "velocity": 0.7480314960629921,
          "duration": 0.21428550000000257
        },
        {
          "name": "E7",
          "midi": 100,
          "time": 97.84186644375073,
          "velocity": 0.7480314960629921,
          "duration": 0.21428550000000257
        },
        {
          "name": "E4",
          "midi": 64,
          "time": 98.05615194375073,
          "velocity": 0.7480314960629921,
          "duration": 0.21428550000000257
        },
        {
          "name": "E5",
          "midi": 76,
          "time": 98.05615194375073,
          "velocity": 0.7480314960629921,
          "duration": 0.21428550000000257
        },
        {
          "name": "E6",
          "midi": 88,
          "time": 98.05615194375073,
          "velocity": 0.7480314960629921,
          "duration": 0.21428550000000257
        },
        {
          "name": "E7",
          "midi": 100,
          "time": 98.05615194375073,
          "velocity": 0.7480314960629921,
          "duration": 0.21428550000000257
        },
        {
          "name": "E4",
          "midi": 64,
          "time": 98.27043744375074,
          "velocity": 0.7480314960629921,
          "duration": 0.21428550000000257
        },
        {
          "name": "E5",
          "midi": 76,
          "time": 98.27043744375074,
          "velocity": 0.7480314960629921,
          "duration": 0.21428550000000257
        },
        {
          "name": "E6",
          "midi": 88,
          "time": 98.27043744375074,
          "velocity": 0.7480314960629921,
          "duration": 0.21428550000000257
        },
        {
          "name": "E7",
          "midi": 100,
          "time": 98.27043744375074,
          "velocity": 0.7480314960629921,
          "duration": 0.21428550000000257
        },
        {
          "name": "E4",
          "midi": 64,
          "time": 98.48472294375074,
          "velocity": 0.7480314960629921,
          "duration": 0.21428550000000257
        },
        {
          "name": "E5",
          "midi": 76,
          "time": 98.48472294375074,
          "velocity": 0.7480314960629921,
          "duration": 0.21428550000000257
        },
        {
          "name": "E6",
          "midi": 88,
          "time": 98.48472294375074,
          "velocity": 0.7480314960629921,
          "duration": 0.21428550000000257
        },
        {
          "name": "E7",
          "midi": 100,
          "time": 98.48472294375074,
          "velocity": 0.7480314960629921,
          "duration": 0.21428550000000257
        },
        {
          "name": "E4",
          "midi": 64,
          "time": 98.69900844375074,
          "velocity": 0.7480314960629921,
          "duration": 0.21428550000000257
        },
        {
          "name": "E5",
          "midi": 76,
          "time": 98.69900844375074,
          "velocity": 0.7480314960629921,
          "duration": 0.21428550000000257
        },
        {
          "name": "E6",
          "midi": 88,
          "time": 98.69900844375074,
          "velocity": 0.7480314960629921,
          "duration": 0.21428550000000257
        },
        {
          "name": "E7",
          "midi": 100,
          "time": 98.69900844375074,
          "velocity": 0.7480314960629921,
          "duration": 0.21428550000000257
        },
        {
          "name": "E4",
          "midi": 64,
          "time": 98.91329394375074,
          "velocity": 0.7480314960629921,
          "duration": 0.21428550000000257
        },
        {
          "name": "E5",
          "midi": 76,
          "time": 98.91329394375074,
          "velocity": 0.7480314960629921,
          "duration": 0.21428550000000257
        },
        {
          "name": "E6",
          "midi": 88,
          "time": 98.91329394375074,
          "velocity": 0.7480314960629921,
          "duration": 0.21428550000000257
        },
        {
          "name": "E7",
          "midi": 100,
          "time": 98.91329394375074,
          "velocity": 0.7480314960629921,
          "duration": 0.21428550000000257
        },
        {
          "name": "E4",
          "midi": 64,
          "time": 99.12757944375075,
          "velocity": 0.7480314960629921,
          "duration": 0.21428550000000257
        },
        {
          "name": "E5",
          "midi": 76,
          "time": 99.12757944375075,
          "velocity": 0.7480314960629921,
          "duration": 0.21428550000000257
        },
        {
          "name": "E6",
          "midi": 88,
          "time": 99.12757944375075,
          "velocity": 0.7480314960629921,
          "duration": 0.21428550000000257
        },
        {
          "name": "E7",
          "midi": 100,
          "time": 99.12757944375075,
          "velocity": 0.7480314960629921,
          "duration": 0.21428550000000257
        },
        {
          "name": "E4",
          "midi": 64,
          "time": 99.34186494375075,
          "velocity": 0.7480314960629921,
          "duration": 0.21428550000000257
        },
        {
          "name": "E5",
          "midi": 76,
          "time": 99.34186494375075,
          "velocity": 0.7480314960629921,
          "duration": 0.21428550000000257
        },
        {
          "name": "E6",
          "midi": 88,
          "time": 99.34186494375075,
          "velocity": 0.7480314960629921,
          "duration": 0.21428550000000257
        },
        {
          "name": "E7",
          "midi": 100,
          "time": 99.34186494375075,
          "velocity": 0.7480314960629921,
          "duration": 0.21428550000000257
        },
        {
          "name": "E4",
          "midi": 64,
          "time": 99.55615044375075,
          "velocity": 0.7480314960629921,
          "duration": 0.21428550000000257
        },
        {
          "name": "E5",
          "midi": 76,
          "time": 99.55615044375075,
          "velocity": 0.7480314960629921,
          "duration": 0.21428550000000257
        },
        {
          "name": "E6",
          "midi": 88,
          "time": 99.55615044375075,
          "velocity": 0.7480314960629921,
          "duration": 0.21428550000000257
        },
        {
          "name": "E7",
          "midi": 100,
          "time": 99.55615044375075,
          "velocity": 0.7480314960629921,
          "duration": 0.21428550000000257
        },
        {
          "name": "E4",
          "midi": 64,
          "time": 99.77043594375075,
          "velocity": 0.7480314960629921,
          "duration": 0.21428550000000257
        },
        {
          "name": "E5",
          "midi": 76,
          "time": 99.77043594375075,
          "velocity": 0.7480314960629921,
          "duration": 0.21428550000000257
        },
        {
          "name": "E6",
          "midi": 88,
          "time": 99.77043594375075,
          "velocity": 0.7480314960629921,
          "duration": 0.21428550000000257
        },
        {
          "name": "E7",
          "midi": 100,
          "time": 99.77043594375075,
          "velocity": 0.7480314960629921,
          "duration": 0.21428550000000257
        },
        {
          "name": "E4",
          "midi": 64,
          "time": 99.98472144375076,
          "velocity": 0.7480314960629921,
          "duration": 0.21428550000000257
        },
        {
          "name": "E5",
          "midi": 76,
          "time": 99.98472144375076,
          "velocity": 0.7480314960629921,
          "duration": 0.21428550000000257
        },
        {
          "name": "E6",
          "midi": 88,
          "time": 99.98472144375076,
          "velocity": 0.7480314960629921,
          "duration": 0.21428550000000257
        },
        {
          "name": "E7",
          "midi": 100,
          "time": 99.98472144375076,
          "velocity": 0.7480314960629921,
          "duration": 0.21428550000000257
        },
        {
          "name": "E4",
          "midi": 64,
          "time": 100.19900694375076,
          "velocity": 0.7480314960629921,
          "duration": 0.21428550000000257
        },
        {
          "name": "E5",
          "midi": 76,
          "time": 100.19900694375076,
          "velocity": 0.7480314960629921,
          "duration": 0.21428550000000257
        },
        {
          "name": "E6",
          "midi": 88,
          "time": 100.19900694375076,
          "velocity": 0.7480314960629921,
          "duration": 0.21428550000000257
        },
        {
          "name": "E7",
          "midi": 100,
          "time": 100.19900694375076,
          "velocity": 0.7480314960629921,
          "duration": 0.21428550000000257
        },
        {
          "name": "E4",
          "midi": 64,
          "time": 100.41329244375076,
          "velocity": 0.7480314960629921,
          "duration": 0.21428550000000257
        },
        {
          "name": "E5",
          "midi": 76,
          "time": 100.41329244375076,
          "velocity": 0.7480314960629921,
          "duration": 0.21428550000000257
        },
        {
          "name": "E6",
          "midi": 88,
          "time": 100.41329244375076,
          "velocity": 0.7480314960629921,
          "duration": 0.21428550000000257
        },
        {
          "name": "E7",
          "midi": 100,
          "time": 100.41329244375076,
          "velocity": 0.7480314960629921,
          "duration": 0.21428550000000257
        },
        {
          "name": "E4",
          "midi": 64,
          "time": 100.62757794375077,
          "velocity": 0.7480314960629921,
          "duration": 0.21428550000000257
        },
        {
          "name": "E5",
          "midi": 76,
          "time": 100.62757794375077,
          "velocity": 0.7480314960629921,
          "duration": 0.21428550000000257
        },
        {
          "name": "E6",
          "midi": 88,
          "time": 100.62757794375077,
          "velocity": 0.7480314960629921,
          "duration": 0.21428550000000257
        },
        {
          "name": "E7",
          "midi": 100,
          "time": 100.62757794375077,
          "velocity": 0.7480314960629921,
          "duration": 0.21428550000000257
        },
        {
          "name": "E4",
          "midi": 64,
          "time": 100.84186344375077,
          "velocity": 0.7480314960629921,
          "duration": 0.21428550000000257
        },
        {
          "name": "E5",
          "midi": 76,
          "time": 100.84186344375077,
          "velocity": 0.7480314960629921,
          "duration": 0.21428550000000257
        },
        {
          "name": "E6",
          "midi": 88,
          "time": 100.84186344375077,
          "velocity": 0.7480314960629921,
          "duration": 0.21428550000000257
        },
        {
          "name": "E7",
          "midi": 100,
          "time": 100.84186344375077,
          "velocity": 0.7480314960629921,
          "duration": 0.21428550000000257
        },
        {
          "name": "E4",
          "midi": 64,
          "time": 101.05614894375077,
          "velocity": 0.7480314960629921,
          "duration": 0.21428550000000257
        },
        {
          "name": "E5",
          "midi": 76,
          "time": 101.05614894375077,
          "velocity": 0.7480314960629921,
          "duration": 0.21428550000000257
        },
        {
          "name": "E6",
          "midi": 88,
          "time": 101.05614894375077,
          "velocity": 0.7480314960629921,
          "duration": 0.21428550000000257
        },
        {
          "name": "E7",
          "midi": 100,
          "time": 101.05614894375077,
          "velocity": 0.7480314960629921,
          "duration": 0.21428550000000257
        },
        {
          "name": "E4",
          "midi": 64,
          "time": 101.27043444375077,
          "velocity": 0.7480314960629921,
          "duration": 0.21428550000000257
        },
        {
          "name": "E5",
          "midi": 76,
          "time": 101.27043444375077,
          "velocity": 0.7480314960629921,
          "duration": 0.21428550000000257
        },
        {
          "name": "E6",
          "midi": 88,
          "time": 101.27043444375077,
          "velocity": 0.7480314960629921,
          "duration": 0.21428550000000257
        },
        {
          "name": "E7",
          "midi": 100,
          "time": 101.27043444375077,
          "velocity": 0.7480314960629921,
          "duration": 0.21428550000000257
        },
        {
          "name": "E4",
          "midi": 64,
          "time": 101.48471994375078,
          "velocity": 0.7480314960629921,
          "duration": 0.21428550000000257
        },
        {
          "name": "E5",
          "midi": 76,
          "time": 101.48471994375078,
          "velocity": 0.7480314960629921,
          "duration": 0.21428550000000257
        },
        {
          "name": "E6",
          "midi": 88,
          "time": 101.48471994375078,
          "velocity": 0.7480314960629921,
          "duration": 0.21428550000000257
        },
        {
          "name": "E7",
          "midi": 100,
          "time": 101.48471994375078,
          "velocity": 0.7480314960629921,
          "duration": 0.21428550000000257
        },
        {
          "name": "E4",
          "midi": 64,
          "time": 101.69900544375078,
          "velocity": 0.7480314960629921,
          "duration": 0.21428550000000257
        },
        {
          "name": "E5",
          "midi": 76,
          "time": 101.69900544375078,
          "velocity": 0.7480314960629921,
          "duration": 0.21428550000000257
        },
        {
          "name": "E6",
          "midi": 88,
          "time": 101.69900544375078,
          "velocity": 0.7480314960629921,
          "duration": 0.21428550000000257
        },
        {
          "name": "E7",
          "midi": 100,
          "time": 101.69900544375078,
          "velocity": 0.7480314960629921,
          "duration": 0.21428550000000257
        },
        {
          "name": "E4",
          "midi": 64,
          "time": 101.91329094375078,
          "velocity": 0.7480314960629921,
          "duration": 0.21428550000000257
        },
        {
          "name": "E5",
          "midi": 76,
          "time": 101.91329094375078,
          "velocity": 0.7480314960629921,
          "duration": 0.21428550000000257
        },
        {
          "name": "E6",
          "midi": 88,
          "time": 101.91329094375078,
          "velocity": 0.7480314960629921,
          "duration": 0.21428550000000257
        },
        {
          "name": "E7",
          "midi": 100,
          "time": 101.91329094375078,
          "velocity": 0.7480314960629921,
          "duration": 0.21428550000000257
        },
        {
          "name": "E4",
          "midi": 64,
          "time": 102.12757644375078,
          "velocity": 0.7480314960629921,
          "duration": 0.21428550000000257
        },
        {
          "name": "E5",
          "midi": 76,
          "time": 102.12757644375078,
          "velocity": 0.7480314960629921,
          "duration": 0.21428550000000257
        },
        {
          "name": "E6",
          "midi": 88,
          "time": 102.12757644375078,
          "velocity": 0.7480314960629921,
          "duration": 0.21428550000000257
        },
        {
          "name": "E7",
          "midi": 100,
          "time": 102.12757644375078,
          "velocity": 0.7480314960629921,
          "duration": 0.21428550000000257
        },
        {
          "name": "E4",
          "midi": 64,
          "time": 102.34186194375079,
          "velocity": 0.7480314960629921,
          "duration": 0.21428550000000257
        },
        {
          "name": "E5",
          "midi": 76,
          "time": 102.34186194375079,
          "velocity": 0.7480314960629921,
          "duration": 0.21428550000000257
        },
        {
          "name": "E6",
          "midi": 88,
          "time": 102.34186194375079,
          "velocity": 0.7480314960629921,
          "duration": 0.21428550000000257
        },
        {
          "name": "E7",
          "midi": 100,
          "time": 102.34186194375079,
          "velocity": 0.7480314960629921,
          "duration": 0.21428550000000257
        },
        {
          "name": "E4",
          "midi": 64,
          "time": 102.55614744375079,
          "velocity": 0.7480314960629921,
          "duration": 0.21428550000000257
        },
        {
          "name": "E5",
          "midi": 76,
          "time": 102.55614744375079,
          "velocity": 0.7480314960629921,
          "duration": 0.21428550000000257
        },
        {
          "name": "E6",
          "midi": 88,
          "time": 102.55614744375079,
          "velocity": 0.7480314960629921,
          "duration": 0.21428550000000257
        },
        {
          "name": "E7",
          "midi": 100,
          "time": 102.55614744375079,
          "velocity": 0.7480314960629921,
          "duration": 0.21428550000000257
        },
        {
          "name": "E4",
          "midi": 64,
          "time": 102.77043294375079,
          "velocity": 0.7480314960629921,
          "duration": 0.21428550000000257
        },
        {
          "name": "E5",
          "midi": 76,
          "time": 102.77043294375079,
          "velocity": 0.7480314960629921,
          "duration": 0.21428550000000257
        },
        {
          "name": "E6",
          "midi": 88,
          "time": 102.77043294375079,
          "velocity": 0.7480314960629921,
          "duration": 0.21428550000000257
        },
        {
          "name": "E7",
          "midi": 100,
          "time": 102.77043294375079,
          "velocity": 0.7480314960629921,
          "duration": 0.21428550000000257
        },
        {
          "name": "E4",
          "midi": 64,
          "time": 102.9847184437508,
          "velocity": 0.7480314960629921,
          "duration": 0.21428550000000257
        },
        {
          "name": "E5",
          "midi": 76,
          "time": 102.9847184437508,
          "velocity": 0.7480314960629921,
          "duration": 0.21428550000000257
        },
        {
          "name": "E6",
          "midi": 88,
          "time": 102.9847184437508,
          "velocity": 0.7480314960629921,
          "duration": 0.21428550000000257
        },
        {
          "name": "E7",
          "midi": 100,
          "time": 102.9847184437508,
          "velocity": 0.7480314960629921,
          "duration": 0.21428550000000257
        },
        {
          "name": "E4",
          "midi": 64,
          "time": 103.1990039437508,
          "velocity": 0.7480314960629921,
          "duration": 0.21428550000000257
        },
        {
          "name": "E5",
          "midi": 76,
          "time": 103.1990039437508,
          "velocity": 0.7480314960629921,
          "duration": 0.21428550000000257
        },
        {
          "name": "E6",
          "midi": 88,
          "time": 103.1990039437508,
          "velocity": 0.7480314960629921,
          "duration": 0.21428550000000257
        },
        {
          "name": "E7",
          "midi": 100,
          "time": 103.1990039437508,
          "velocity": 0.7480314960629921,
          "duration": 0.21428550000000257
        },
        {
          "name": "E4",
          "midi": 64,
          "time": 103.4132894437508,
          "velocity": 0.7480314960629921,
          "duration": 0.21428550000000257
        },
        {
          "name": "E5",
          "midi": 76,
          "time": 103.4132894437508,
          "velocity": 0.7480314960629921,
          "duration": 0.21428550000000257
        },
        {
          "name": "E6",
          "midi": 88,
          "time": 103.4132894437508,
          "velocity": 0.7480314960629921,
          "duration": 0.21428550000000257
        },
        {
          "name": "E7",
          "midi": 100,
          "time": 103.4132894437508,
          "velocity": 0.7480314960629921,
          "duration": 0.21428550000000257
        },
        {
          "name": "E4",
          "midi": 64,
          "time": 103.6275749437508,
          "velocity": 0.7480314960629921,
          "duration": 0.21428550000000257
        },
        {
          "name": "E5",
          "midi": 76,
          "time": 103.6275749437508,
          "velocity": 0.7480314960629921,
          "duration": 0.21428550000000257
        },
        {
          "name": "E6",
          "midi": 88,
          "time": 103.6275749437508,
          "velocity": 0.7480314960629921,
          "duration": 0.21428550000000257
        },
        {
          "name": "E7",
          "midi": 100,
          "time": 103.6275749437508,
          "velocity": 0.7480314960629921,
          "duration": 0.21428550000000257
        },
        {
          "name": "E4",
          "midi": 64,
          "time": 103.8418604437508,
          "velocity": 0.7480314960629921,
          "duration": 0.21428550000000257
        },
        {
          "name": "E5",
          "midi": 76,
          "time": 103.8418604437508,
          "velocity": 0.7480314960629921,
          "duration": 0.21428550000000257
        },
        {
          "name": "E6",
          "midi": 88,
          "time": 103.8418604437508,
          "velocity": 0.7480314960629921,
          "duration": 0.21428550000000257
        },
        {
          "name": "E7",
          "midi": 100,
          "time": 103.8418604437508,
          "velocity": 0.7480314960629921,
          "duration": 0.21428550000000257
        },
        {
          "name": "E4",
          "midi": 64,
          "time": 104.0561459437508,
          "velocity": 0.7480314960629921,
          "duration": 0.21428550000000257
        },
        {
          "name": "E5",
          "midi": 76,
          "time": 104.0561459437508,
          "velocity": 0.7480314960629921,
          "duration": 0.21428550000000257
        },
        {
          "name": "E6",
          "midi": 88,
          "time": 104.0561459437508,
          "velocity": 0.7480314960629921,
          "duration": 0.21428550000000257
        },
        {
          "name": "E7",
          "midi": 100,
          "time": 104.0561459437508,
          "velocity": 0.7480314960629921,
          "duration": 0.21428550000000257
        },
        {
          "name": "E4",
          "midi": 64,
          "time": 104.27043144375081,
          "velocity": 0.7480314960629921,
          "duration": 0.21428550000000257
        },
        {
          "name": "E5",
          "midi": 76,
          "time": 104.27043144375081,
          "velocity": 0.7480314960629921,
          "duration": 0.21428550000000257
        },
        {
          "name": "E6",
          "midi": 88,
          "time": 104.27043144375081,
          "velocity": 0.7480314960629921,
          "duration": 0.21428550000000257
        },
        {
          "name": "E7",
          "midi": 100,
          "time": 104.27043144375081,
          "velocity": 0.7480314960629921,
          "duration": 0.21428550000000257
        },
        {
          "name": "E4",
          "midi": 64,
          "time": 104.48471694375081,
          "velocity": 0.7480314960629921,
          "duration": 0.21428550000000257
        },
        {
          "name": "E5",
          "midi": 76,
          "time": 104.48471694375081,
          "velocity": 0.7480314960629921,
          "duration": 0.21428550000000257
        },
        {
          "name": "E6",
          "midi": 88,
          "time": 104.48471694375081,
          "velocity": 0.7480314960629921,
          "duration": 0.21428550000000257
        },
        {
          "name": "E7",
          "midi": 100,
          "time": 104.48471694375081,
          "velocity": 0.7480314960629921,
          "duration": 0.21428550000000257
        },
        {
          "name": "E4",
          "midi": 64,
          "time": 104.69900244375081,
          "velocity": 0.7480314960629921,
          "duration": 0.21428550000000257
        },
        {
          "name": "E5",
          "midi": 76,
          "time": 104.69900244375081,
          "velocity": 0.7480314960629921,
          "duration": 0.21428550000000257
        },
        {
          "name": "E6",
          "midi": 88,
          "time": 104.69900244375081,
          "velocity": 0.7480314960629921,
          "duration": 0.21428550000000257
        },
        {
          "name": "E7",
          "midi": 100,
          "time": 104.69900244375081,
          "velocity": 0.7480314960629921,
          "duration": 0.21428550000000257
        },
        {
          "name": "E4",
          "midi": 64,
          "time": 104.91328794375082,
          "velocity": 0.7480314960629921,
          "duration": 0.21428550000000257
        },
        {
          "name": "E5",
          "midi": 76,
          "time": 104.91328794375082,
          "velocity": 0.7480314960629921,
          "duration": 0.21428550000000257
        },
        {
          "name": "E6",
          "midi": 88,
          "time": 104.91328794375082,
          "velocity": 0.7480314960629921,
          "duration": 0.21428550000000257
        },
        {
          "name": "E7",
          "midi": 100,
          "time": 104.91328794375082,
          "velocity": 0.7480314960629921,
          "duration": 0.21428550000000257
        },
        {
          "name": "E4",
          "midi": 64,
          "time": 105.12757344375082,
          "velocity": 0.7480314960629921,
          "duration": 0.21428550000000257
        },
        {
          "name": "E5",
          "midi": 76,
          "time": 105.12757344375082,
          "velocity": 0.7480314960629921,
          "duration": 0.21428550000000257
        },
        {
          "name": "E6",
          "midi": 88,
          "time": 105.12757344375082,
          "velocity": 0.7480314960629921,
          "duration": 0.21428550000000257
        },
        {
          "name": "E7",
          "midi": 100,
          "time": 105.12757344375082,
          "velocity": 0.7480314960629921,
          "duration": 0.21428550000000257
        },
        {
          "name": "E4",
          "midi": 64,
          "time": 105.34185894375082,
          "velocity": 0.7480314960629921,
          "duration": 0.21428550000000257
        },
        {
          "name": "E5",
          "midi": 76,
          "time": 105.34185894375082,
          "velocity": 0.7480314960629921,
          "duration": 0.21428550000000257
        },
        {
          "name": "E6",
          "midi": 88,
          "time": 105.34185894375082,
          "velocity": 0.7480314960629921,
          "duration": 0.21428550000000257
        },
        {
          "name": "E7",
          "midi": 100,
          "time": 105.34185894375082,
          "velocity": 0.7480314960629921,
          "duration": 0.21428550000000257
        },
        {
          "name": "E4",
          "midi": 64,
          "time": 105.55614444375082,
          "velocity": 0.7480314960629921,
          "duration": 0.21428550000000257
        },
        {
          "name": "E5",
          "midi": 76,
          "time": 105.55614444375082,
          "velocity": 0.7480314960629921,
          "duration": 0.21428550000000257
        },
        {
          "name": "E6",
          "midi": 88,
          "time": 105.55614444375082,
          "velocity": 0.7480314960629921,
          "duration": 0.21428550000000257
        },
        {
          "name": "E7",
          "midi": 100,
          "time": 105.55614444375082,
          "velocity": 0.7480314960629921,
          "duration": 0.21428550000000257
        },
        {
          "name": "E4",
          "midi": 64,
          "time": 105.77042994375083,
          "velocity": 0.7480314960629921,
          "duration": 0.21428550000000257
        },
        {
          "name": "E5",
          "midi": 76,
          "time": 105.77042994375083,
          "velocity": 0.7480314960629921,
          "duration": 0.21428550000000257
        },
        {
          "name": "E6",
          "midi": 88,
          "time": 105.77042994375083,
          "velocity": 0.7480314960629921,
          "duration": 0.21428550000000257
        },
        {
          "name": "E7",
          "midi": 100,
          "time": 105.77042994375083,
          "velocity": 0.7480314960629921,
          "duration": 0.21428550000000257
        },
        {
          "name": "E4",
          "midi": 64,
          "time": 105.98471544375083,
          "velocity": 0.7480314960629921,
          "duration": 0.21428550000000257
        },
        {
          "name": "E5",
          "midi": 76,
          "time": 105.98471544375083,
          "velocity": 0.7480314960629921,
          "duration": 0.21428550000000257
        },
        {
          "name": "E6",
          "midi": 88,
          "time": 105.98471544375083,
          "velocity": 0.7480314960629921,
          "duration": 0.21428550000000257
        },
        {
          "name": "E7",
          "midi": 100,
          "time": 105.98471544375083,
          "velocity": 0.7480314960629921,
          "duration": 0.21428550000000257
        },
        {
          "name": "E4",
          "midi": 64,
          "time": 106.19900094375083,
          "velocity": 0.7480314960629921,
          "duration": 0.21428550000000257
        },
        {
          "name": "E5",
          "midi": 76,
          "time": 106.19900094375083,
          "velocity": 0.7480314960629921,
          "duration": 0.21428550000000257
        },
        {
          "name": "E6",
          "midi": 88,
          "time": 106.19900094375083,
          "velocity": 0.7480314960629921,
          "duration": 0.21428550000000257
        },
        {
          "name": "E7",
          "midi": 100,
          "time": 106.19900094375083,
          "velocity": 0.7480314960629921,
          "duration": 0.21428550000000257
        },
        {
          "name": "E4",
          "midi": 64,
          "time": 106.41328644375083,
          "velocity": 0.7480314960629921,
          "duration": 0.21428550000000257
        },
        {
          "name": "E5",
          "midi": 76,
          "time": 106.41328644375083,
          "velocity": 0.7480314960629921,
          "duration": 0.21428550000000257
        },
        {
          "name": "E6",
          "midi": 88,
          "time": 106.41328644375083,
          "velocity": 0.7480314960629921,
          "duration": 0.21428550000000257
        },
        {
          "name": "E7",
          "midi": 100,
          "time": 106.41328644375083,
          "velocity": 0.7480314960629921,
          "duration": 0.21428550000000257
        },
        {
          "name": "E4",
          "midi": 64,
          "time": 106.62757194375084,
          "velocity": 0.7480314960629921,
          "duration": 0.21428550000000257
        },
        {
          "name": "E5",
          "midi": 76,
          "time": 106.62757194375084,
          "velocity": 0.7480314960629921,
          "duration": 0.21428550000000257
        },
        {
          "name": "E6",
          "midi": 88,
          "time": 106.62757194375084,
          "velocity": 0.7480314960629921,
          "duration": 0.21428550000000257
        },
        {
          "name": "E7",
          "midi": 100,
          "time": 106.62757194375084,
          "velocity": 0.7480314960629921,
          "duration": 0.21428550000000257
        },
        {
          "name": "E4",
          "midi": 64,
          "time": 106.84185744375084,
          "velocity": 0.7480314960629921,
          "duration": 0.21428550000000257
        },
        {
          "name": "E5",
          "midi": 76,
          "time": 106.84185744375084,
          "velocity": 0.7480314960629921,
          "duration": 0.21428550000000257
        },
        {
          "name": "E6",
          "midi": 88,
          "time": 106.84185744375084,
          "velocity": 0.7480314960629921,
          "duration": 0.21428550000000257
        },
        {
          "name": "E7",
          "midi": 100,
          "time": 106.84185744375084,
          "velocity": 0.7480314960629921,
          "duration": 0.21428550000000257
        },
        {
          "name": "E4",
          "midi": 64,
          "time": 107.05614294375084,
          "velocity": 0.7480314960629921,
          "duration": 0.21428550000000257
        },
        {
          "name": "E5",
          "midi": 76,
          "time": 107.05614294375084,
          "velocity": 0.7480314960629921,
          "duration": 0.21428550000000257
        },
        {
          "name": "E6",
          "midi": 88,
          "time": 107.05614294375084,
          "velocity": 0.7480314960629921,
          "duration": 0.21428550000000257
        },
        {
          "name": "E7",
          "midi": 100,
          "time": 107.05614294375084,
          "velocity": 0.7480314960629921,
          "duration": 0.21428550000000257
        },
        {
          "name": "E4",
          "midi": 64,
          "time": 107.27042844375084,
          "velocity": 0.7480314960629921,
          "duration": 0.21428550000000257
        },
        {
          "name": "E5",
          "midi": 76,
          "time": 107.27042844375084,
          "velocity": 0.7480314960629921,
          "duration": 0.21428550000000257
        },
        {
          "name": "E6",
          "midi": 88,
          "time": 107.27042844375084,
          "velocity": 0.7480314960629921,
          "duration": 0.21428550000000257
        },
        {
          "name": "E7",
          "midi": 100,
          "time": 107.27042844375084,
          "velocity": 0.7480314960629921,
          "duration": 0.21428550000000257
        },
        {
          "name": "E4",
          "midi": 64,
          "time": 107.48471394375085,
          "velocity": 0.7480314960629921,
          "duration": 0.21428550000000257
        },
        {
          "name": "E5",
          "midi": 76,
          "time": 107.48471394375085,
          "velocity": 0.7480314960629921,
          "duration": 0.21428550000000257
        },
        {
          "name": "E6",
          "midi": 88,
          "time": 107.48471394375085,
          "velocity": 0.7480314960629921,
          "duration": 0.21428550000000257
        },
        {
          "name": "E7",
          "midi": 100,
          "time": 107.48471394375085,
          "velocity": 0.7480314960629921,
          "duration": 0.21428550000000257
        },
        {
          "name": "E4",
          "midi": 64,
          "time": 107.69899944375085,
          "velocity": 0.7480314960629921,
          "duration": 0.21428550000000257
        },
        {
          "name": "E5",
          "midi": 76,
          "time": 107.69899944375085,
          "velocity": 0.7480314960629921,
          "duration": 0.21428550000000257
        },
        {
          "name": "E6",
          "midi": 88,
          "time": 107.69899944375085,
          "velocity": 0.7480314960629921,
          "duration": 0.21428550000000257
        },
        {
          "name": "E7",
          "midi": 100,
          "time": 107.69899944375085,
          "velocity": 0.7480314960629921,
          "duration": 0.21428550000000257
        },
        {
          "name": "E4",
          "midi": 64,
          "time": 107.91328494375085,
          "velocity": 0.7480314960629921,
          "duration": 0.21428550000000257
        },
        {
          "name": "E5",
          "midi": 76,
          "time": 107.91328494375085,
          "velocity": 0.7480314960629921,
          "duration": 0.21428550000000257
        },
        {
          "name": "E6",
          "midi": 88,
          "time": 107.91328494375085,
          "velocity": 0.7480314960629921,
          "duration": 0.21428550000000257
        },
        {
          "name": "E7",
          "midi": 100,
          "time": 107.91328494375085,
          "velocity": 0.7480314960629921,
          "duration": 0.21428550000000257
        },
        {
          "name": "E4",
          "midi": 64,
          "time": 108.12757044375086,
          "velocity": 0.7480314960629921,
          "duration": 1.7142840000000064
        },
        {
          "name": "E5",
          "midi": 76,
          "time": 108.12757044375086,
          "velocity": 0.7480314960629921,
          "duration": 1.7142840000000064
        },
        {
          "name": "E6",
          "midi": 88,
          "time": 108.12757044375086,
          "velocity": 0.7480314960629921,
          "duration": 1.7142840000000064
        },
        {
          "name": "E7",
          "midi": 100,
          "time": 108.12757044375086,
          "velocity": 0.7480314960629921,
          "duration": 1.7142840000000064
        },
        {
          "name": "E4",
          "midi": 64,
          "time": 109.84185444375086,
          "velocity": 0.7480314960629921,
          "duration": 0.2857139999999987
        },
        {
          "name": "E5",
          "midi": 76,
          "time": 109.84185444375086,
          "velocity": 0.7480314960629921,
          "duration": 0.2857139999999987
        },
        {
          "name": "E6",
          "midi": 88,
          "time": 109.84185444375086,
          "velocity": 0.7480314960629921,
          "duration": 0.2857139999999987
        },
        {
          "name": "E7",
          "midi": 100,
          "time": 109.84185444375086,
          "velocity": 0.7480314960629921,
          "duration": 0.2857139999999987
        },
        {
          "name": "E4",
          "midi": 64,
          "time": 110.12756844375086,
          "velocity": 0.7480314960629921,
          "duration": 0.2857139999999987
        },
        {
          "name": "E5",
          "midi": 76,
          "time": 110.12756844375086,
          "velocity": 0.7480314960629921,
          "duration": 0.2857139999999987
        },
        {
          "name": "E6",
          "midi": 88,
          "time": 110.12756844375086,
          "velocity": 0.7480314960629921,
          "duration": 0.2857139999999987
        },
        {
          "name": "E7",
          "midi": 100,
          "time": 110.12756844375086,
          "velocity": 0.7480314960629921,
          "duration": 0.2857139999999987
        },
        {
          "name": "E4",
          "midi": 64,
          "time": 110.41328244375086,
          "velocity": 0.7480314960629921,
          "duration": 0.2857139999999987
        },
        {
          "name": "E5",
          "midi": 76,
          "time": 110.41328244375086,
          "velocity": 0.7480314960629921,
          "duration": 0.2857139999999987
        },
        {
          "name": "E6",
          "midi": 88,
          "time": 110.41328244375086,
          "velocity": 0.7480314960629921,
          "duration": 0.2857139999999987
        },
        {
          "name": "E7",
          "midi": 100,
          "time": 110.41328244375086,
          "velocity": 0.7480314960629921,
          "duration": 0.2857139999999987
        },
        {
          "name": "E4",
          "midi": 64,
          "time": 110.69899644375086,
          "velocity": 0.7480314960629921,
          "duration": 0.42857100000000514
        },
        {
          "name": "E5",
          "midi": 76,
          "time": 110.69899644375086,
          "velocity": 0.7480314960629921,
          "duration": 0.42857100000000514
        },
        {
          "name": "E6",
          "midi": 88,
          "time": 110.69899644375086,
          "velocity": 0.7480314960629921,
          "duration": 0.42857100000000514
        },
        {
          "name": "E7",
          "midi": 100,
          "time": 110.69899644375086,
          "velocity": 0.7480314960629921,
          "duration": 0.42857100000000514
        },
        {
          "name": "E4",
          "midi": 64,
          "time": 111.12756744375086,
          "velocity": 0.7480314960629921,
          "duration": 0.14285700000000645
        },
        {
          "name": "E5",
          "midi": 76,
          "time": 111.12756744375086,
          "velocity": 0.7480314960629921,
          "duration": 0.14285700000000645
        },
        {
          "name": "E6",
          "midi": 88,
          "time": 111.12756744375086,
          "velocity": 0.7480314960629921,
          "duration": 0.14285700000000645
        },
        {
          "name": "E7",
          "midi": 100,
          "time": 111.12756744375086,
          "velocity": 0.7480314960629921,
          "duration": 0.14285700000000645
        },
        {
          "name": "E4",
          "midi": 64,
          "time": 111.27042444375087,
          "velocity": 0.7480314960629921,
          "duration": 0.14285700000000645
        },
        {
          "name": "E5",
          "midi": 76,
          "time": 111.27042444375087,
          "velocity": 0.7480314960629921,
          "duration": 0.14285700000000645
        },
        {
          "name": "E6",
          "midi": 88,
          "time": 111.27042444375087,
          "velocity": 0.7480314960629921,
          "duration": 0.14285700000000645
        },
        {
          "name": "E7",
          "midi": 100,
          "time": 111.27042444375087,
          "velocity": 0.7480314960629921,
          "duration": 0.14285700000000645
        },
        {
          "name": "E4",
          "midi": 64,
          "time": 111.41328144375088,
          "velocity": 0.7480314960629921,
          "duration": 0.14285700000000645
        },
        {
          "name": "E5",
          "midi": 76,
          "time": 111.41328144375088,
          "velocity": 0.7480314960629921,
          "duration": 0.14285700000000645
        },
        {
          "name": "E6",
          "midi": 88,
          "time": 111.41328144375088,
          "velocity": 0.7480314960629921,
          "duration": 0.14285700000000645
        },
        {
          "name": "E7",
          "midi": 100,
          "time": 111.41328144375088,
          "velocity": 0.7480314960629921,
          "duration": 0.14285700000000645
        },
        {
          "name": "E4",
          "midi": 64,
          "time": 111.55613844375088,
          "velocity": 0.7480314960629921,
          "duration": 0.2857139999999987
        },
        {
          "name": "E5",
          "midi": 76,
          "time": 111.55613844375088,
          "velocity": 0.7480314960629921,
          "duration": 0.2857139999999987
        },
        {
          "name": "E6",
          "midi": 88,
          "time": 111.55613844375088,
          "velocity": 0.7480314960629921,
          "duration": 0.2857139999999987
        },
        {
          "name": "E7",
          "midi": 100,
          "time": 111.55613844375088,
          "velocity": 0.7480314960629921,
          "duration": 0.2857139999999987
        },
        {
          "name": "E4",
          "midi": 64,
          "time": 111.84185244375088,
          "velocity": 0.7480314960629921,
          "duration": 0.2857139999999987
        },
        {
          "name": "E5",
          "midi": 76,
          "time": 111.84185244375088,
          "velocity": 0.7480314960629921,
          "duration": 0.2857139999999987
        },
        {
          "name": "E6",
          "midi": 88,
          "time": 111.84185244375088,
          "velocity": 0.7480314960629921,
          "duration": 0.2857139999999987
        },
        {
          "name": "E7",
          "midi": 100,
          "time": 111.84185244375088,
          "velocity": 0.7480314960629921,
          "duration": 0.2857139999999987
        },
        {
          "name": "E4",
          "midi": 64,
          "time": 112.12756644375088,
          "velocity": 0.7480314960629921,
          "duration": 0.2857139999999987
        },
        {
          "name": "E5",
          "midi": 76,
          "time": 112.12756644375088,
          "velocity": 0.7480314960629921,
          "duration": 0.2857139999999987
        },
        {
          "name": "E6",
          "midi": 88,
          "time": 112.12756644375088,
          "velocity": 0.7480314960629921,
          "duration": 0.2857139999999987
        },
        {
          "name": "E7",
          "midi": 100,
          "time": 112.12756644375088,
          "velocity": 0.7480314960629921,
          "duration": 0.2857139999999987
        },
        {
          "name": "E4",
          "midi": 64,
          "time": 112.41328044375088,
          "velocity": 0.7480314960629921,
          "duration": 0.42857100000000514
        },
        {
          "name": "E5",
          "midi": 76,
          "time": 112.41328044375088,
          "velocity": 0.7480314960629921,
          "duration": 0.42857100000000514
        },
        {
          "name": "E6",
          "midi": 88,
          "time": 112.41328044375088,
          "velocity": 0.7480314960629921,
          "duration": 0.42857100000000514
        },
        {
          "name": "E7",
          "midi": 100,
          "time": 112.41328044375088,
          "velocity": 0.7480314960629921,
          "duration": 0.42857100000000514
        },
        {
          "name": "E4",
          "midi": 64,
          "time": 112.84185144375088,
          "velocity": 0.7480314960629921,
          "duration": 0.14285700000000645
        },
        {
          "name": "E5",
          "midi": 76,
          "time": 112.84185144375088,
          "velocity": 0.7480314960629921,
          "duration": 0.14285700000000645
        },
        {
          "name": "E6",
          "midi": 88,
          "time": 112.84185144375088,
          "velocity": 0.7480314960629921,
          "duration": 0.14285700000000645
        },
        {
          "name": "E7",
          "midi": 100,
          "time": 112.84185144375088,
          "velocity": 0.7480314960629921,
          "duration": 0.14285700000000645
        },
        {
          "name": "E4",
          "midi": 64,
          "time": 112.98470844375089,
          "velocity": 0.7480314960629921,
          "duration": 0.14285700000000645
        },
        {
          "name": "E5",
          "midi": 76,
          "time": 112.98470844375089,
          "velocity": 0.7480314960629921,
          "duration": 0.14285700000000645
        },
        {
          "name": "E6",
          "midi": 88,
          "time": 112.98470844375089,
          "velocity": 0.7480314960629921,
          "duration": 0.14285700000000645
        },
        {
          "name": "E7",
          "midi": 100,
          "time": 112.98470844375089,
          "velocity": 0.7480314960629921,
          "duration": 0.14285700000000645
        },
        {
          "name": "E4",
          "midi": 64,
          "time": 113.1275654437509,
          "velocity": 0.7480314960629921,
          "duration": 0.14285700000000645
        },
        {
          "name": "E5",
          "midi": 76,
          "time": 113.1275654437509,
          "velocity": 0.7480314960629921,
          "duration": 0.14285700000000645
        },
        {
          "name": "E6",
          "midi": 88,
          "time": 113.1275654437509,
          "velocity": 0.7480314960629921,
          "duration": 0.14285700000000645
        },
        {
          "name": "E7",
          "midi": 100,
          "time": 113.1275654437509,
          "velocity": 0.7480314960629921,
          "duration": 0.14285700000000645
        },
        {
          "name": "E4",
          "midi": 64,
          "time": 113.2704224437509,
          "velocity": 0.7480314960629921,
          "duration": 0.2857139999999987
        },
        {
          "name": "E5",
          "midi": 76,
          "time": 113.2704224437509,
          "velocity": 0.7480314960629921,
          "duration": 0.2857139999999987
        },
        {
          "name": "E6",
          "midi": 88,
          "time": 113.2704224437509,
          "velocity": 0.7480314960629921,
          "duration": 0.2857139999999987
        },
        {
          "name": "E7",
          "midi": 100,
          "time": 113.2704224437509,
          "velocity": 0.7480314960629921,
          "duration": 0.2857139999999987
        },
        {
          "name": "E4",
          "midi": 64,
          "time": 113.5561364437509,
          "velocity": 0.7480314960629921,
          "duration": 0.2857139999999987
        },
        {
          "name": "E5",
          "midi": 76,
          "time": 113.5561364437509,
          "velocity": 0.7480314960629921,
          "duration": 0.2857139999999987
        },
        {
          "name": "E6",
          "midi": 88,
          "time": 113.5561364437509,
          "velocity": 0.7480314960629921,
          "duration": 0.2857139999999987
        },
        {
          "name": "E7",
          "midi": 100,
          "time": 113.5561364437509,
          "velocity": 0.7480314960629921,
          "duration": 0.2857139999999987
        },
        {
          "name": "E4",
          "midi": 64,
          "time": 113.8418504437509,
          "velocity": 0.7480314960629921,
          "duration": 0.2857139999999987
        },
        {
          "name": "E5",
          "midi": 76,
          "time": 113.8418504437509,
          "velocity": 0.7480314960629921,
          "duration": 0.2857139999999987
        },
        {
          "name": "E6",
          "midi": 88,
          "time": 113.8418504437509,
          "velocity": 0.7480314960629921,
          "duration": 0.2857139999999987
        },
        {
          "name": "E7",
          "midi": 100,
          "time": 113.8418504437509,
          "velocity": 0.7480314960629921,
          "duration": 0.2857139999999987
        },
        {
          "name": "E4",
          "midi": 64,
          "time": 114.1275644437509,
          "velocity": 0.7480314960629921,
          "duration": 0.42857100000000514
        },
        {
          "name": "E5",
          "midi": 76,
          "time": 114.1275644437509,
          "velocity": 0.7480314960629921,
          "duration": 0.42857100000000514
        },
        {
          "name": "E6",
          "midi": 88,
          "time": 114.1275644437509,
          "velocity": 0.7480314960629921,
          "duration": 0.42857100000000514
        },
        {
          "name": "E7",
          "midi": 100,
          "time": 114.1275644437509,
          "velocity": 0.7480314960629921,
          "duration": 0.42857100000000514
        },
        {
          "name": "E4",
          "midi": 64,
          "time": 114.5561354437509,
          "velocity": 0.7480314960629921,
          "duration": 0.14285700000000645
        },
        {
          "name": "E5",
          "midi": 76,
          "time": 114.5561354437509,
          "velocity": 0.7480314960629921,
          "duration": 0.14285700000000645
        },
        {
          "name": "E6",
          "midi": 88,
          "time": 114.5561354437509,
          "velocity": 0.7480314960629921,
          "duration": 0.14285700000000645
        },
        {
          "name": "E7",
          "midi": 100,
          "time": 114.5561354437509,
          "velocity": 0.7480314960629921,
          "duration": 0.14285700000000645
        },
        {
          "name": "E4",
          "midi": 64,
          "time": 114.69899244375091,
          "velocity": 0.7480314960629921,
          "duration": 0.14285700000000645
        },
        {
          "name": "E5",
          "midi": 76,
          "time": 114.69899244375091,
          "velocity": 0.7480314960629921,
          "duration": 0.14285700000000645
        },
        {
          "name": "E6",
          "midi": 88,
          "time": 114.69899244375091,
          "velocity": 0.7480314960629921,
          "duration": 0.14285700000000645
        },
        {
          "name": "E7",
          "midi": 100,
          "time": 114.69899244375091,
          "velocity": 0.7480314960629921,
          "duration": 0.14285700000000645
        },
        {
          "name": "E4",
          "midi": 64,
          "time": 114.84184944375092,
          "velocity": 0.7480314960629921,
          "duration": 0.14285700000000645
        },
        {
          "name": "E5",
          "midi": 76,
          "time": 114.84184944375092,
          "velocity": 0.7480314960629921,
          "duration": 0.14285700000000645
        },
        {
          "name": "E6",
          "midi": 88,
          "time": 114.84184944375092,
          "velocity": 0.7480314960629921,
          "duration": 0.14285700000000645
        },
        {
          "name": "E7",
          "midi": 100,
          "time": 114.84184944375092,
          "velocity": 0.7480314960629921,
          "duration": 0.14285700000000645
        },
        {
          "name": "E4",
          "midi": 64,
          "time": 114.98470644375092,
          "velocity": 0.7480314960629921,
          "duration": 0.2857139999999987
        },
        {
          "name": "E5",
          "midi": 76,
          "time": 114.98470644375092,
          "velocity": 0.7480314960629921,
          "duration": 0.2857139999999987
        },
        {
          "name": "E6",
          "midi": 88,
          "time": 114.98470644375092,
          "velocity": 0.7480314960629921,
          "duration": 0.2857139999999987
        },
        {
          "name": "E7",
          "midi": 100,
          "time": 114.98470644375092,
          "velocity": 0.7480314960629921,
          "duration": 0.2857139999999987
        },
        {
          "name": "E4",
          "midi": 64,
          "time": 115.27042044375092,
          "velocity": 0.7480314960629921,
          "duration": 0.2857139999999987
        },
        {
          "name": "E5",
          "midi": 76,
          "time": 115.27042044375092,
          "velocity": 0.7480314960629921,
          "duration": 0.2857139999999987
        },
        {
          "name": "E6",
          "midi": 88,
          "time": 115.27042044375092,
          "velocity": 0.7480314960629921,
          "duration": 0.2857139999999987
        },
        {
          "name": "E7",
          "midi": 100,
          "time": 115.27042044375092,
          "velocity": 0.7480314960629921,
          "duration": 0.2857139999999987
        },
        {
          "name": "E4",
          "midi": 64,
          "time": 115.55613444375092,
          "velocity": 0.7480314960629921,
          "duration": 0.2857139999999987
        },
        {
          "name": "E5",
          "midi": 76,
          "time": 115.55613444375092,
          "velocity": 0.7480314960629921,
          "duration": 0.2857139999999987
        },
        {
          "name": "E6",
          "midi": 88,
          "time": 115.55613444375092,
          "velocity": 0.7480314960629921,
          "duration": 0.2857139999999987
        },
        {
          "name": "E7",
          "midi": 100,
          "time": 115.55613444375092,
          "velocity": 0.7480314960629921,
          "duration": 0.2857139999999987
        },
        {
          "name": "E4",
          "midi": 64,
          "time": 115.84184844375092,
          "velocity": 0.7480314960629921,
          "duration": 0.42857100000000514
        },
        {
          "name": "E5",
          "midi": 76,
          "time": 115.84184844375092,
          "velocity": 0.7480314960629921,
          "duration": 0.42857100000000514
        },
        {
          "name": "E6",
          "midi": 88,
          "time": 115.84184844375092,
          "velocity": 0.7480314960629921,
          "duration": 0.42857100000000514
        },
        {
          "name": "E7",
          "midi": 100,
          "time": 115.84184844375092,
          "velocity": 0.7480314960629921,
          "duration": 0.42857100000000514
        },
        {
          "name": "E4",
          "midi": 64,
          "time": 116.27041944375092,
          "velocity": 0.7480314960629921,
          "duration": 0.14285700000000645
        },
        {
          "name": "E5",
          "midi": 76,
          "time": 116.27041944375092,
          "velocity": 0.7480314960629921,
          "duration": 0.14285700000000645
        },
        {
          "name": "E6",
          "midi": 88,
          "time": 116.27041944375092,
          "velocity": 0.7480314960629921,
          "duration": 0.14285700000000645
        },
        {
          "name": "E7",
          "midi": 100,
          "time": 116.27041944375092,
          "velocity": 0.7480314960629921,
          "duration": 0.14285700000000645
        },
        {
          "name": "E4",
          "midi": 64,
          "time": 116.41327644375093,
          "velocity": 0.7480314960629921,
          "duration": 0.14285700000000645
        },
        {
          "name": "E5",
          "midi": 76,
          "time": 116.41327644375093,
          "velocity": 0.7480314960629921,
          "duration": 0.14285700000000645
        },
        {
          "name": "E6",
          "midi": 88,
          "time": 116.41327644375093,
          "velocity": 0.7480314960629921,
          "duration": 0.14285700000000645
        },
        {
          "name": "E7",
          "midi": 100,
          "time": 116.41327644375093,
          "velocity": 0.7480314960629921,
          "duration": 0.14285700000000645
        },
        {
          "name": "E4",
          "midi": 64,
          "time": 116.55613344375094,
          "velocity": 0.7480314960629921,
          "duration": 0.14285700000000645
        },
        {
          "name": "E5",
          "midi": 76,
          "time": 116.55613344375094,
          "velocity": 0.7480314960629921,
          "duration": 0.14285700000000645
        },
        {
          "name": "E6",
          "midi": 88,
          "time": 116.55613344375094,
          "velocity": 0.7480314960629921,
          "duration": 0.14285700000000645
        },
        {
          "name": "E7",
          "midi": 100,
          "time": 116.55613344375094,
          "velocity": 0.7480314960629921,
          "duration": 0.14285700000000645
        },
        {
          "name": "E4",
          "midi": 64,
          "time": 116.69899044375094,
          "velocity": 0.7480314960629921,
          "duration": 0.2857139999999987
        },
        {
          "name": "E5",
          "midi": 76,
          "time": 116.69899044375094,
          "velocity": 0.7480314960629921,
          "duration": 0.2857139999999987
        },
        {
          "name": "E6",
          "midi": 88,
          "time": 116.69899044375094,
          "velocity": 0.7480314960629921,
          "duration": 0.2857139999999987
        },
        {
          "name": "E7",
          "midi": 100,
          "time": 116.69899044375094,
          "velocity": 0.7480314960629921,
          "duration": 0.2857139999999987
        },
        {
          "name": "E4",
          "midi": 64,
          "time": 116.98470444375094,
          "velocity": 0.7480314960629921,
          "duration": 0.2857139999999987
        },
        {
          "name": "E5",
          "midi": 76,
          "time": 116.98470444375094,
          "velocity": 0.7480314960629921,
          "duration": 0.2857139999999987
        },
        {
          "name": "E6",
          "midi": 88,
          "time": 116.98470444375094,
          "velocity": 0.7480314960629921,
          "duration": 0.2857139999999987
        },
        {
          "name": "E7",
          "midi": 100,
          "time": 116.98470444375094,
          "velocity": 0.7480314960629921,
          "duration": 0.2857139999999987
        },
        {
          "name": "E4",
          "midi": 64,
          "time": 117.27041844375094,
          "velocity": 0.7480314960629921,
          "duration": 0.2857139999999987
        },
        {
          "name": "E5",
          "midi": 76,
          "time": 117.27041844375094,
          "velocity": 0.7480314960629921,
          "duration": 0.2857139999999987
        },
        {
          "name": "E6",
          "midi": 88,
          "time": 117.27041844375094,
          "velocity": 0.7480314960629921,
          "duration": 0.2857139999999987
        },
        {
          "name": "E7",
          "midi": 100,
          "time": 117.27041844375094,
          "velocity": 0.7480314960629921,
          "duration": 0.2857139999999987
        },
        {
          "name": "E4",
          "midi": 64,
          "time": 117.55613244375094,
          "velocity": 0.7480314960629921,
          "duration": 0.42857100000000514
        },
        {
          "name": "E5",
          "midi": 76,
          "time": 117.55613244375094,
          "velocity": 0.7480314960629921,
          "duration": 0.42857100000000514
        },
        {
          "name": "E6",
          "midi": 88,
          "time": 117.55613244375094,
          "velocity": 0.7480314960629921,
          "duration": 0.42857100000000514
        },
        {
          "name": "E7",
          "midi": 100,
          "time": 117.55613244375094,
          "velocity": 0.7480314960629921,
          "duration": 0.42857100000000514
        },
        {
          "name": "E4",
          "midi": 64,
          "time": 117.98470344375094,
          "velocity": 0.7480314960629921,
          "duration": 0.14285700000000645
        },
        {
          "name": "E5",
          "midi": 76,
          "time": 117.98470344375094,
          "velocity": 0.7480314960629921,
          "duration": 0.14285700000000645
        },
        {
          "name": "E6",
          "midi": 88,
          "time": 117.98470344375094,
          "velocity": 0.7480314960629921,
          "duration": 0.14285700000000645
        },
        {
          "name": "E7",
          "midi": 100,
          "time": 117.98470344375094,
          "velocity": 0.7480314960629921,
          "duration": 0.14285700000000645
        },
        {
          "name": "E4",
          "midi": 64,
          "time": 118.12756044375095,
          "velocity": 0.7480314960629921,
          "duration": 0.14285700000000645
        },
        {
          "name": "E5",
          "midi": 76,
          "time": 118.12756044375095,
          "velocity": 0.7480314960629921,
          "duration": 0.14285700000000645
        },
        {
          "name": "E6",
          "midi": 88,
          "time": 118.12756044375095,
          "velocity": 0.7480314960629921,
          "duration": 0.14285700000000645
        },
        {
          "name": "E7",
          "midi": 100,
          "time": 118.12756044375095,
          "velocity": 0.7480314960629921,
          "duration": 0.14285700000000645
        },
        {
          "name": "E4",
          "midi": 64,
          "time": 118.27041744375096,
          "velocity": 0.7480314960629921,
          "duration": 0.14285700000000645
        },
        {
          "name": "E5",
          "midi": 76,
          "time": 118.27041744375096,
          "velocity": 0.7480314960629921,
          "duration": 0.14285700000000645
        },
        {
          "name": "E6",
          "midi": 88,
          "time": 118.27041744375096,
          "velocity": 0.7480314960629921,
          "duration": 0.14285700000000645
        },
        {
          "name": "E7",
          "midi": 100,
          "time": 118.27041744375096,
          "velocity": 0.7480314960629921,
          "duration": 0.14285700000000645
        },
        {
          "name": "E4",
          "midi": 64,
          "time": 118.41327444375096,
          "velocity": 0.7480314960629921,
          "duration": 0.2857139999999987
        },
        {
          "name": "E5",
          "midi": 76,
          "time": 118.41327444375096,
          "velocity": 0.7480314960629921,
          "duration": 0.2857139999999987
        },
        {
          "name": "E6",
          "midi": 88,
          "time": 118.41327444375096,
          "velocity": 0.7480314960629921,
          "duration": 0.2857139999999987
        },
        {
          "name": "E7",
          "midi": 100,
          "time": 118.41327444375096,
          "velocity": 0.7480314960629921,
          "duration": 0.2857139999999987
        },
        {
          "name": "E4",
          "midi": 64,
          "time": 118.69898844375096,
          "velocity": 0.7480314960629921,
          "duration": 0.2857139999999987
        },
        {
          "name": "E5",
          "midi": 76,
          "time": 118.69898844375096,
          "velocity": 0.7480314960629921,
          "duration": 0.2857139999999987
        },
        {
          "name": "E6",
          "midi": 88,
          "time": 118.69898844375096,
          "velocity": 0.7480314960629921,
          "duration": 0.2857139999999987
        },
        {
          "name": "E7",
          "midi": 100,
          "time": 118.69898844375096,
          "velocity": 0.7480314960629921,
          "duration": 0.2857139999999987
        },
        {
          "name": "E4",
          "midi": 64,
          "time": 118.98470244375096,
          "velocity": 0.7480314960629921,
          "duration": 0.2857139999999987
        },
        {
          "name": "E5",
          "midi": 76,
          "time": 118.98470244375096,
          "velocity": 0.7480314960629921,
          "duration": 0.2857139999999987
        },
        {
          "name": "E6",
          "midi": 88,
          "time": 118.98470244375096,
          "velocity": 0.7480314960629921,
          "duration": 0.2857139999999987
        },
        {
          "name": "E7",
          "midi": 100,
          "time": 118.98470244375096,
          "velocity": 0.7480314960629921,
          "duration": 0.2857139999999987
        },
        {
          "name": "E4",
          "midi": 64,
          "time": 119.27041644375096,
          "velocity": 0.7480314960629921,
          "duration": 0.42857100000000514
        },
        {
          "name": "E5",
          "midi": 76,
          "time": 119.27041644375096,
          "velocity": 0.7480314960629921,
          "duration": 0.42857100000000514
        },
        {
          "name": "E6",
          "midi": 88,
          "time": 119.27041644375096,
          "velocity": 0.7480314960629921,
          "duration": 0.42857100000000514
        },
        {
          "name": "E7",
          "midi": 100,
          "time": 119.27041644375096,
          "velocity": 0.7480314960629921,
          "duration": 0.42857100000000514
        },
        {
          "name": "E4",
          "midi": 64,
          "time": 119.69898744375097,
          "velocity": 0.7480314960629921,
          "duration": 0.14285700000000645
        },
        {
          "name": "E5",
          "midi": 76,
          "time": 119.69898744375097,
          "velocity": 0.7480314960629921,
          "duration": 0.14285700000000645
        },
        {
          "name": "E6",
          "midi": 88,
          "time": 119.69898744375097,
          "velocity": 0.7480314960629921,
          "duration": 0.14285700000000645
        },
        {
          "name": "E7",
          "midi": 100,
          "time": 119.69898744375097,
          "velocity": 0.7480314960629921,
          "duration": 0.14285700000000645
        },
        {
          "name": "E4",
          "midi": 64,
          "time": 119.84184444375097,
          "velocity": 0.7480314960629921,
          "duration": 0.14285700000000645
        },
        {
          "name": "E5",
          "midi": 76,
          "time": 119.84184444375097,
          "velocity": 0.7480314960629921,
          "duration": 0.14285700000000645
        },
        {
          "name": "E6",
          "midi": 88,
          "time": 119.84184444375097,
          "velocity": 0.7480314960629921,
          "duration": 0.14285700000000645
        },
        {
          "name": "E7",
          "midi": 100,
          "time": 119.84184444375097,
          "velocity": 0.7480314960629921,
          "duration": 0.14285700000000645
        },
        {
          "name": "E4",
          "midi": 64,
          "time": 119.98470144375098,
          "velocity": 0.7480314960629921,
          "duration": 0.14285700000000645
        },
        {
          "name": "E5",
          "midi": 76,
          "time": 119.98470144375098,
          "velocity": 0.7480314960629921,
          "duration": 0.14285700000000645
        },
        {
          "name": "E6",
          "midi": 88,
          "time": 119.98470144375098,
          "velocity": 0.7480314960629921,
          "duration": 0.14285700000000645
        },
        {
          "name": "E7",
          "midi": 100,
          "time": 119.98470144375098,
          "velocity": 0.7480314960629921,
          "duration": 0.14285700000000645
        },
        {
          "name": "E4",
          "midi": 64,
          "time": 120.12755844375098,
          "velocity": 0.7480314960629921,
          "duration": 0.2857139999999987
        },
        {
          "name": "E5",
          "midi": 76,
          "time": 120.12755844375098,
          "velocity": 0.7480314960629921,
          "duration": 0.2857139999999987
        },
        {
          "name": "E6",
          "midi": 88,
          "time": 120.12755844375098,
          "velocity": 0.7480314960629921,
          "duration": 0.2857139999999987
        },
        {
          "name": "E7",
          "midi": 100,
          "time": 120.12755844375098,
          "velocity": 0.7480314960629921,
          "duration": 0.2857139999999987
        },
        {
          "name": "E4",
          "midi": 64,
          "time": 120.41327244375098,
          "velocity": 0.7480314960629921,
          "duration": 0.2857139999999987
        },
        {
          "name": "E5",
          "midi": 76,
          "time": 120.41327244375098,
          "velocity": 0.7480314960629921,
          "duration": 0.2857139999999987
        },
        {
          "name": "E6",
          "midi": 88,
          "time": 120.41327244375098,
          "velocity": 0.7480314960629921,
          "duration": 0.2857139999999987
        },
        {
          "name": "E7",
          "midi": 100,
          "time": 120.41327244375098,
          "velocity": 0.7480314960629921,
          "duration": 0.2857139999999987
        },
        {
          "name": "E4",
          "midi": 64,
          "time": 120.69898644375098,
          "velocity": 0.7480314960629921,
          "duration": 0.2857139999999987
        },
        {
          "name": "E5",
          "midi": 76,
          "time": 120.69898644375098,
          "velocity": 0.7480314960629921,
          "duration": 0.2857139999999987
        },
        {
          "name": "E6",
          "midi": 88,
          "time": 120.69898644375098,
          "velocity": 0.7480314960629921,
          "duration": 0.2857139999999987
        },
        {
          "name": "E7",
          "midi": 100,
          "time": 120.69898644375098,
          "velocity": 0.7480314960629921,
          "duration": 0.2857139999999987
        },
        {
          "name": "E4",
          "midi": 64,
          "time": 120.98470044375098,
          "velocity": 0.7480314960629921,
          "duration": 0.42857100000000514
        },
        {
          "name": "E5",
          "midi": 76,
          "time": 120.98470044375098,
          "velocity": 0.7480314960629921,
          "duration": 0.42857100000000514
        },
        {
          "name": "E6",
          "midi": 88,
          "time": 120.98470044375098,
          "velocity": 0.7480314960629921,
          "duration": 0.42857100000000514
        },
        {
          "name": "E7",
          "midi": 100,
          "time": 120.98470044375098,
          "velocity": 0.7480314960629921,
          "duration": 0.42857100000000514
        },
        {
          "name": "E4",
          "midi": 64,
          "time": 121.41327144375099,
          "velocity": 0.7480314960629921,
          "duration": 0.14285700000000645
        },
        {
          "name": "E5",
          "midi": 76,
          "time": 121.41327144375099,
          "velocity": 0.7480314960629921,
          "duration": 0.14285700000000645
        },
        {
          "name": "E6",
          "midi": 88,
          "time": 121.41327144375099,
          "velocity": 0.7480314960629921,
          "duration": 0.14285700000000645
        },
        {
          "name": "E7",
          "midi": 100,
          "time": 121.41327144375099,
          "velocity": 0.7480314960629921,
          "duration": 0.14285700000000645
        },
        {
          "name": "E4",
          "midi": 64,
          "time": 121.55612844375099,
          "velocity": 0.7480314960629921,
          "duration": 0.14285700000000645
        },
        {
          "name": "E5",
          "midi": 76,
          "time": 121.55612844375099,
          "velocity": 0.7480314960629921,
          "duration": 0.14285700000000645
        },
        {
          "name": "E6",
          "midi": 88,
          "time": 121.55612844375099,
          "velocity": 0.7480314960629921,
          "duration": 0.14285700000000645
        },
        {
          "name": "E7",
          "midi": 100,
          "time": 121.55612844375099,
          "velocity": 0.7480314960629921,
          "duration": 0.14285700000000645
        },
        {
          "name": "E4",
          "midi": 64,
          "time": 121.698985443751,
          "velocity": 0.7480314960629921,
          "duration": 0.14285700000000645
        },
        {
          "name": "E5",
          "midi": 76,
          "time": 121.698985443751,
          "velocity": 0.7480314960629921,
          "duration": 0.14285700000000645
        },
        {
          "name": "E6",
          "midi": 88,
          "time": 121.698985443751,
          "velocity": 0.7480314960629921,
          "duration": 0.14285700000000645
        },
        {
          "name": "E7",
          "midi": 100,
          "time": 121.698985443751,
          "velocity": 0.7480314960629921,
          "duration": 0.14285700000000645
        },
        {
          "name": "E4",
          "midi": 64,
          "time": 121.841842443751,
          "velocity": 0.7480314960629921,
          "duration": 0.2857139999999987
        },
        {
          "name": "E5",
          "midi": 76,
          "time": 121.841842443751,
          "velocity": 0.7480314960629921,
          "duration": 0.2857139999999987
        },
        {
          "name": "E6",
          "midi": 88,
          "time": 121.841842443751,
          "velocity": 0.7480314960629921,
          "duration": 0.2857139999999987
        },
        {
          "name": "E7",
          "midi": 100,
          "time": 121.841842443751,
          "velocity": 0.7480314960629921,
          "duration": 0.2857139999999987
        },
        {
          "name": "E4",
          "midi": 64,
          "time": 122.127556443751,
          "velocity": 0.7480314960629921,
          "duration": 0.2857139999999987
        },
        {
          "name": "E5",
          "midi": 76,
          "time": 122.127556443751,
          "velocity": 0.7480314960629921,
          "duration": 0.2857139999999987
        },
        {
          "name": "E6",
          "midi": 88,
          "time": 122.127556443751,
          "velocity": 0.7480314960629921,
          "duration": 0.2857139999999987
        },
        {
          "name": "E7",
          "midi": 100,
          "time": 122.127556443751,
          "velocity": 0.7480314960629921,
          "duration": 0.2857139999999987
        },
        {
          "name": "E4",
          "midi": 64,
          "time": 122.413270443751,
          "velocity": 0.7480314960629921,
          "duration": 0.2857139999999987
        },
        {
          "name": "E5",
          "midi": 76,
          "time": 122.413270443751,
          "velocity": 0.7480314960629921,
          "duration": 0.2857139999999987
        },
        {
          "name": "E6",
          "midi": 88,
          "time": 122.413270443751,
          "velocity": 0.7480314960629921,
          "duration": 0.2857139999999987
        },
        {
          "name": "E7",
          "midi": 100,
          "time": 122.413270443751,
          "velocity": 0.7480314960629921,
          "duration": 0.2857139999999987
        },
        {
          "name": "E4",
          "midi": 64,
          "time": 122.698984443751,
          "velocity": 0.7480314960629921,
          "duration": 0.42857100000000514
        },
        {
          "name": "E5",
          "midi": 76,
          "time": 122.698984443751,
          "velocity": 0.7480314960629921,
          "duration": 0.42857100000000514
        },
        {
          "name": "E6",
          "midi": 88,
          "time": 122.698984443751,
          "velocity": 0.7480314960629921,
          "duration": 0.42857100000000514
        },
        {
          "name": "E7",
          "midi": 100,
          "time": 122.698984443751,
          "velocity": 0.7480314960629921,
          "duration": 0.42857100000000514
        },
        {
          "name": "E4",
          "midi": 64,
          "time": 123.127555443751,
          "velocity": 0.7480314960629921,
          "duration": 0.42857100000000514
        },
        {
          "name": "E5",
          "midi": 76,
          "time": 123.127555443751,
          "velocity": 0.7480314960629921,
          "duration": 0.42857100000000514
        },
        {
          "name": "E6",
          "midi": 88,
          "time": 123.127555443751,
          "velocity": 0.7480314960629921,
          "duration": 0.42857100000000514
        },
        {
          "name": "E7",
          "midi": 100,
          "time": 123.127555443751,
          "velocity": 0.7480314960629921,
          "duration": 0.42857100000000514
        },
        {
          "name": "E4",
          "midi": 64,
          "time": 123.55612644375101,
          "velocity": 0.7480314960629921,
          "duration": 0.2857139999999987
        },
        {
          "name": "E5",
          "midi": 76,
          "time": 123.55612644375101,
          "velocity": 0.7480314960629921,
          "duration": 0.2857139999999987
        },
        {
          "name": "E6",
          "midi": 88,
          "time": 123.55612644375101,
          "velocity": 0.7480314960629921,
          "duration": 0.2857139999999987
        },
        {
          "name": "E7",
          "midi": 100,
          "time": 123.55612644375101,
          "velocity": 0.7480314960629921,
          "duration": 0.2857139999999987
        },
        {
          "name": "E4",
          "midi": 64,
          "time": 123.84184044375101,
          "velocity": 0.7480314960629921,
          "duration": 0.2857139999999987
        },
        {
          "name": "E5",
          "midi": 76,
          "time": 123.84184044375101,
          "velocity": 0.7480314960629921,
          "duration": 0.2857139999999987
        },
        {
          "name": "E6",
          "midi": 88,
          "time": 123.84184044375101,
          "velocity": 0.7480314960629921,
          "duration": 0.2857139999999987
        },
        {
          "name": "E7",
          "midi": 100,
          "time": 123.84184044375101,
          "velocity": 0.7480314960629921,
          "duration": 0.2857139999999987
        },
        {
          "name": "E4",
          "midi": 64,
          "time": 124.12755444375101,
          "velocity": 0.7480314960629921,
          "duration": 0.2857139999999987
        },
        {
          "name": "E5",
          "midi": 76,
          "time": 124.12755444375101,
          "velocity": 0.7480314960629921,
          "duration": 0.2857139999999987
        },
        {
          "name": "E6",
          "midi": 88,
          "time": 124.12755444375101,
          "velocity": 0.7480314960629921,
          "duration": 0.2857139999999987
        },
        {
          "name": "E7",
          "midi": 100,
          "time": 124.12755444375101,
          "velocity": 0.7480314960629921,
          "duration": 0.2857139999999987
        },
        {
          "name": "E4",
          "midi": 64,
          "time": 124.41326844375101,
          "velocity": 0.7480314960629921,
          "duration": 0.42857100000000514
        },
        {
          "name": "E5",
          "midi": 76,
          "time": 124.41326844375101,
          "velocity": 0.7480314960629921,
          "duration": 0.42857100000000514
        },
        {
          "name": "E6",
          "midi": 88,
          "time": 124.41326844375101,
          "velocity": 0.7480314960629921,
          "duration": 0.42857100000000514
        },
        {
          "name": "E7",
          "midi": 100,
          "time": 124.41326844375101,
          "velocity": 0.7480314960629921,
          "duration": 0.42857100000000514
        },
        {
          "name": "E4",
          "midi": 64,
          "time": 124.84183944375101,
          "velocity": 0.7480314960629921,
          "duration": 0.14285700000000645
        },
        {
          "name": "E5",
          "midi": 76,
          "time": 124.84183944375101,
          "velocity": 0.7480314960629921,
          "duration": 0.14285700000000645
        },
        {
          "name": "E6",
          "midi": 88,
          "time": 124.84183944375101,
          "velocity": 0.7480314960629921,
          "duration": 0.14285700000000645
        },
        {
          "name": "E7",
          "midi": 100,
          "time": 124.84183944375101,
          "velocity": 0.7480314960629921,
          "duration": 0.14285700000000645
        },
        {
          "name": "E4",
          "midi": 64,
          "time": 124.98469644375102,
          "velocity": 0.7480314960629921,
          "duration": 0.14285700000000645
        },
        {
          "name": "E5",
          "midi": 76,
          "time": 124.98469644375102,
          "velocity": 0.7480314960629921,
          "duration": 0.14285700000000645
        },
        {
          "name": "E6",
          "midi": 88,
          "time": 124.98469644375102,
          "velocity": 0.7480314960629921,
          "duration": 0.14285700000000645
        },
        {
          "name": "E7",
          "midi": 100,
          "time": 124.98469644375102,
          "velocity": 0.7480314960629921,
          "duration": 0.14285700000000645
        },
        {
          "name": "E4",
          "midi": 64,
          "time": 125.12755344375103,
          "velocity": 0.7480314960629921,
          "duration": 0.14285700000000645
        },
        {
          "name": "E5",
          "midi": 76,
          "time": 125.12755344375103,
          "velocity": 0.7480314960629921,
          "duration": 0.14285700000000645
        },
        {
          "name": "E6",
          "midi": 88,
          "time": 125.12755344375103,
          "velocity": 0.7480314960629921,
          "duration": 0.14285700000000645
        },
        {
          "name": "E7",
          "midi": 100,
          "time": 125.12755344375103,
          "velocity": 0.7480314960629921,
          "duration": 0.14285700000000645
        },
        {
          "name": "E4",
          "midi": 64,
          "time": 125.27041044375103,
          "velocity": 0.7480314960629921,
          "duration": 0.2857139999999987
        },
        {
          "name": "E5",
          "midi": 76,
          "time": 125.27041044375103,
          "velocity": 0.7480314960629921,
          "duration": 0.2857139999999987
        },
        {
          "name": "E6",
          "midi": 88,
          "time": 125.27041044375103,
          "velocity": 0.7480314960629921,
          "duration": 0.2857139999999987
        },
        {
          "name": "E7",
          "midi": 100,
          "time": 125.27041044375103,
          "velocity": 0.7480314960629921,
          "duration": 0.2857139999999987
        },
        {
          "name": "E4",
          "midi": 64,
          "time": 125.55612444375103,
          "velocity": 0.7480314960629921,
          "duration": 0.2857139999999987
        },
        {
          "name": "E5",
          "midi": 76,
          "time": 125.55612444375103,
          "velocity": 0.7480314960629921,
          "duration": 0.2857139999999987
        },
        {
          "name": "E6",
          "midi": 88,
          "time": 125.55612444375103,
          "velocity": 0.7480314960629921,
          "duration": 0.2857139999999987
        },
        {
          "name": "E7",
          "midi": 100,
          "time": 125.55612444375103,
          "velocity": 0.7480314960629921,
          "duration": 0.2857139999999987
        },
        {
          "name": "E4",
          "midi": 64,
          "time": 125.84183844375103,
          "velocity": 0.7480314960629921,
          "duration": 0.2857139999999987
        },
        {
          "name": "E5",
          "midi": 76,
          "time": 125.84183844375103,
          "velocity": 0.7480314960629921,
          "duration": 0.2857139999999987
        },
        {
          "name": "E6",
          "midi": 88,
          "time": 125.84183844375103,
          "velocity": 0.7480314960629921,
          "duration": 0.2857139999999987
        },
        {
          "name": "E7",
          "midi": 100,
          "time": 125.84183844375103,
          "velocity": 0.7480314960629921,
          "duration": 0.2857139999999987
        },
        {
          "name": "E4",
          "midi": 64,
          "time": 126.12755244375103,
          "velocity": 0.7480314960629921,
          "duration": 0.42857100000000514
        },
        {
          "name": "E5",
          "midi": 76,
          "time": 126.12755244375103,
          "velocity": 0.7480314960629921,
          "duration": 0.42857100000000514
        },
        {
          "name": "E6",
          "midi": 88,
          "time": 126.12755244375103,
          "velocity": 0.7480314960629921,
          "duration": 0.42857100000000514
        },
        {
          "name": "E7",
          "midi": 100,
          "time": 126.12755244375103,
          "velocity": 0.7480314960629921,
          "duration": 0.42857100000000514
        },
        {
          "name": "E4",
          "midi": 64,
          "time": 126.55612344375103,
          "velocity": 0.7480314960629921,
          "duration": 0.14285700000000645
        },
        {
          "name": "E5",
          "midi": 76,
          "time": 126.55612344375103,
          "velocity": 0.7480314960629921,
          "duration": 0.14285700000000645
        },
        {
          "name": "E6",
          "midi": 88,
          "time": 126.55612344375103,
          "velocity": 0.7480314960629921,
          "duration": 0.14285700000000645
        },
        {
          "name": "E7",
          "midi": 100,
          "time": 126.55612344375103,
          "velocity": 0.7480314960629921,
          "duration": 0.14285700000000645
        },
        {
          "name": "E4",
          "midi": 64,
          "time": 126.69898044375104,
          "velocity": 0.7480314960629921,
          "duration": 0.14285700000000645
        },
        {
          "name": "E5",
          "midi": 76,
          "time": 126.69898044375104,
          "velocity": 0.7480314960629921,
          "duration": 0.14285700000000645
        },
        {
          "name": "E6",
          "midi": 88,
          "time": 126.69898044375104,
          "velocity": 0.7480314960629921,
          "duration": 0.14285700000000645
        },
        {
          "name": "E7",
          "midi": 100,
          "time": 126.69898044375104,
          "velocity": 0.7480314960629921,
          "duration": 0.14285700000000645
        },
        {
          "name": "E4",
          "midi": 64,
          "time": 126.84183744375105,
          "velocity": 0.7480314960629921,
          "duration": 0.14285700000000645
        },
        {
          "name": "E5",
          "midi": 76,
          "time": 126.84183744375105,
          "velocity": 0.7480314960629921,
          "duration": 0.14285700000000645
        },
        {
          "name": "E6",
          "midi": 88,
          "time": 126.84183744375105,
          "velocity": 0.7480314960629921,
          "duration": 0.14285700000000645
        },
        {
          "name": "E7",
          "midi": 100,
          "time": 126.84183744375105,
          "velocity": 0.7480314960629921,
          "duration": 0.14285700000000645
        },
        {
          "name": "E4",
          "midi": 64,
          "time": 126.98469444375105,
          "velocity": 0.7480314960629921,
          "duration": 0.2857139999999987
        },
        {
          "name": "E5",
          "midi": 76,
          "time": 126.98469444375105,
          "velocity": 0.7480314960629921,
          "duration": 0.2857139999999987
        },
        {
          "name": "E6",
          "midi": 88,
          "time": 126.98469444375105,
          "velocity": 0.7480314960629921,
          "duration": 0.2857139999999987
        },
        {
          "name": "E7",
          "midi": 100,
          "time": 126.98469444375105,
          "velocity": 0.7480314960629921,
          "duration": 0.2857139999999987
        },
        {
          "name": "E4",
          "midi": 64,
          "time": 127.27040844375105,
          "velocity": 0.7480314960629921,
          "duration": 0.2857139999999987
        },
        {
          "name": "E5",
          "midi": 76,
          "time": 127.27040844375105,
          "velocity": 0.7480314960629921,
          "duration": 0.2857139999999987
        },
        {
          "name": "E6",
          "midi": 88,
          "time": 127.27040844375105,
          "velocity": 0.7480314960629921,
          "duration": 0.2857139999999987
        },
        {
          "name": "E7",
          "midi": 100,
          "time": 127.27040844375105,
          "velocity": 0.7480314960629921,
          "duration": 0.2857139999999987
        },
        {
          "name": "E4",
          "midi": 64,
          "time": 127.55612244375105,
          "velocity": 0.7480314960629921,
          "duration": 0.2857139999999987
        },
        {
          "name": "E5",
          "midi": 76,
          "time": 127.55612244375105,
          "velocity": 0.7480314960629921,
          "duration": 0.2857139999999987
        },
        {
          "name": "E6",
          "midi": 88,
          "time": 127.55612244375105,
          "velocity": 0.7480314960629921,
          "duration": 0.2857139999999987
        },
        {
          "name": "E7",
          "midi": 100,
          "time": 127.55612244375105,
          "velocity": 0.7480314960629921,
          "duration": 0.2857139999999987
        },
        {
          "name": "E4",
          "midi": 64,
          "time": 127.84183644375105,
          "velocity": 0.7480314960629921,
          "duration": 0.42857100000000514
        },
        {
          "name": "E5",
          "midi": 76,
          "time": 127.84183644375105,
          "velocity": 0.7480314960629921,
          "duration": 0.42857100000000514
        },
        {
          "name": "E6",
          "midi": 88,
          "time": 127.84183644375105,
          "velocity": 0.7480314960629921,
          "duration": 0.42857100000000514
        },
        {
          "name": "E7",
          "midi": 100,
          "time": 127.84183644375105,
          "velocity": 0.7480314960629921,
          "duration": 0.42857100000000514
        },
        {
          "name": "E4",
          "midi": 64,
          "time": 128.27040744375105,
          "velocity": 0.7480314960629921,
          "duration": 0.14285699999999224
        },
        {
          "name": "E5",
          "midi": 76,
          "time": 128.27040744375105,
          "velocity": 0.7480314960629921,
          "duration": 0.14285699999999224
        },
        {
          "name": "E6",
          "midi": 88,
          "time": 128.27040744375105,
          "velocity": 0.7480314960629921,
          "duration": 0.14285699999999224
        },
        {
          "name": "E7",
          "midi": 100,
          "time": 128.27040744375105,
          "velocity": 0.7480314960629921,
          "duration": 0.14285699999999224
        },
        {
          "name": "E4",
          "midi": 64,
          "time": 128.41326444375105,
          "velocity": 0.7480314960629921,
          "duration": 0.14285699999999224
        },
        {
          "name": "E5",
          "midi": 76,
          "time": 128.41326444375105,
          "velocity": 0.7480314960629921,
          "duration": 0.14285699999999224
        },
        {
          "name": "E6",
          "midi": 88,
          "time": 128.41326444375105,
          "velocity": 0.7480314960629921,
          "duration": 0.14285699999999224
        },
        {
          "name": "E7",
          "midi": 100,
          "time": 128.41326444375105,
          "velocity": 0.7480314960629921,
          "duration": 0.14285699999999224
        },
        {
          "name": "E4",
          "midi": 64,
          "time": 128.55612144375104,
          "velocity": 0.7480314960629921,
          "duration": 0.14285699999999224
        },
        {
          "name": "E5",
          "midi": 76,
          "time": 128.55612144375104,
          "velocity": 0.7480314960629921,
          "duration": 0.14285699999999224
        },
        {
          "name": "E6",
          "midi": 88,
          "time": 128.55612144375104,
          "velocity": 0.7480314960629921,
          "duration": 0.14285699999999224
        },
        {
          "name": "E7",
          "midi": 100,
          "time": 128.55612144375104,
          "velocity": 0.7480314960629921,
          "duration": 0.14285699999999224
        },
        {
          "name": "E4",
          "midi": 64,
          "time": 128.69897844375103,
          "velocity": 0.7480314960629921,
          "duration": 0.2857140000000129
        },
        {
          "name": "E5",
          "midi": 76,
          "time": 128.69897844375103,
          "velocity": 0.7480314960629921,
          "duration": 0.2857140000000129
        },
        {
          "name": "E6",
          "midi": 88,
          "time": 128.69897844375103,
          "velocity": 0.7480314960629921,
          "duration": 0.2857140000000129
        },
        {
          "name": "E7",
          "midi": 100,
          "time": 128.69897844375103,
          "velocity": 0.7480314960629921,
          "duration": 0.2857140000000129
        },
        {
          "name": "E4",
          "midi": 64,
          "time": 128.98469244375104,
          "velocity": 0.7480314960629921,
          "duration": 0.2857140000000129
        },
        {
          "name": "E5",
          "midi": 76,
          "time": 128.98469244375104,
          "velocity": 0.7480314960629921,
          "duration": 0.2857140000000129
        },
        {
          "name": "E6",
          "midi": 88,
          "time": 128.98469244375104,
          "velocity": 0.7480314960629921,
          "duration": 0.2857140000000129
        },
        {
          "name": "E7",
          "midi": 100,
          "time": 128.98469244375104,
          "velocity": 0.7480314960629921,
          "duration": 0.2857140000000129
        },
        {
          "name": "E4",
          "midi": 64,
          "time": 129.27040644375106,
          "velocity": 0.7480314960629921,
          "duration": 0.2857140000000129
        },
        {
          "name": "E5",
          "midi": 76,
          "time": 129.27040644375106,
          "velocity": 0.7480314960629921,
          "duration": 0.2857140000000129
        },
        {
          "name": "E6",
          "midi": 88,
          "time": 129.27040644375106,
          "velocity": 0.7480314960629921,
          "duration": 0.2857140000000129
        },
        {
          "name": "E7",
          "midi": 100,
          "time": 129.27040644375106,
          "velocity": 0.7480314960629921,
          "duration": 0.2857140000000129
        },
        {
          "name": "E4",
          "midi": 64,
          "time": 129.55612044375107,
          "velocity": 0.7480314960629921,
          "duration": 0.42857100000000514
        },
        {
          "name": "E5",
          "midi": 76,
          "time": 129.55612044375107,
          "velocity": 0.7480314960629921,
          "duration": 0.42857100000000514
        },
        {
          "name": "E6",
          "midi": 88,
          "time": 129.55612044375107,
          "velocity": 0.7480314960629921,
          "duration": 0.42857100000000514
        },
        {
          "name": "E7",
          "midi": 100,
          "time": 129.55612044375107,
          "velocity": 0.7480314960629921,
          "duration": 0.42857100000000514
        },
        {
          "name": "E4",
          "midi": 64,
          "time": 129.98469144375107,
          "velocity": 0.7480314960629921,
          "duration": 0.14285699999999224
        },
        {
          "name": "E5",
          "midi": 76,
          "time": 129.98469144375107,
          "velocity": 0.7480314960629921,
          "duration": 0.14285699999999224
        },
        {
          "name": "E6",
          "midi": 88,
          "time": 129.98469144375107,
          "velocity": 0.7480314960629921,
          "duration": 0.14285699999999224
        },
        {
          "name": "E7",
          "midi": 100,
          "time": 129.98469144375107,
          "velocity": 0.7480314960629921,
          "duration": 0.14285699999999224
        },
        {
          "name": "E4",
          "midi": 64,
          "time": 130.12754844375107,
          "velocity": 0.7480314960629921,
          "duration": 0.14285699999999224
        },
        {
          "name": "E5",
          "midi": 76,
          "time": 130.12754844375107,
          "velocity": 0.7480314960629921,
          "duration": 0.14285699999999224
        },
        {
          "name": "E6",
          "midi": 88,
          "time": 130.12754844375107,
          "velocity": 0.7480314960629921,
          "duration": 0.14285699999999224
        },
        {
          "name": "E7",
          "midi": 100,
          "time": 130.12754844375107,
          "velocity": 0.7480314960629921,
          "duration": 0.14285699999999224
        },
        {
          "name": "E4",
          "midi": 64,
          "time": 130.27040544375106,
          "velocity": 0.7480314960629921,
          "duration": 0.14285699999999224
        },
        {
          "name": "E5",
          "midi": 76,
          "time": 130.27040544375106,
          "velocity": 0.7480314960629921,
          "duration": 0.14285699999999224
        },
        {
          "name": "E6",
          "midi": 88,
          "time": 130.27040544375106,
          "velocity": 0.7480314960629921,
          "duration": 0.14285699999999224
        },
        {
          "name": "E7",
          "midi": 100,
          "time": 130.27040544375106,
          "velocity": 0.7480314960629921,
          "duration": 0.14285699999999224
        },
        {
          "name": "E4",
          "midi": 64,
          "time": 130.41326244375105,
          "velocity": 0.7480314960629921,
          "duration": 0.2857140000000129
        },
        {
          "name": "E5",
          "midi": 76,
          "time": 130.41326244375105,
          "velocity": 0.7480314960629921,
          "duration": 0.2857140000000129
        },
        {
          "name": "E6",
          "midi": 88,
          "time": 130.41326244375105,
          "velocity": 0.7480314960629921,
          "duration": 0.2857140000000129
        },
        {
          "name": "E7",
          "midi": 100,
          "time": 130.41326244375105,
          "velocity": 0.7480314960629921,
          "duration": 0.2857140000000129
        },
        {
          "name": "E4",
          "midi": 64,
          "time": 130.69897644375106,
          "velocity": 0.7480314960629921,
          "duration": 0.2857140000000129
        },
        {
          "name": "E5",
          "midi": 76,
          "time": 130.69897644375106,
          "velocity": 0.7480314960629921,
          "duration": 0.2857140000000129
        },
        {
          "name": "E6",
          "midi": 88,
          "time": 130.69897644375106,
          "velocity": 0.7480314960629921,
          "duration": 0.2857140000000129
        },
        {
          "name": "E7",
          "midi": 100,
          "time": 130.69897644375106,
          "velocity": 0.7480314960629921,
          "duration": 0.2857140000000129
        },
        {
          "name": "E4",
          "midi": 64,
          "time": 130.98469044375108,
          "velocity": 0.7480314960629921,
          "duration": 0.2857140000000129
        },
        {
          "name": "E5",
          "midi": 76,
          "time": 130.98469044375108,
          "velocity": 0.7480314960629921,
          "duration": 0.2857140000000129
        },
        {
          "name": "E6",
          "midi": 88,
          "time": 130.98469044375108,
          "velocity": 0.7480314960629921,
          "duration": 0.2857140000000129
        },
        {
          "name": "E7",
          "midi": 100,
          "time": 130.98469044375108,
          "velocity": 0.7480314960629921,
          "duration": 0.2857140000000129
        },
        {
          "name": "E4",
          "midi": 64,
          "time": 131.2704044437511,
          "velocity": 0.7480314960629921,
          "duration": 0.42857100000000514
        },
        {
          "name": "E5",
          "midi": 76,
          "time": 131.2704044437511,
          "velocity": 0.7480314960629921,
          "duration": 0.42857100000000514
        },
        {
          "name": "E6",
          "midi": 88,
          "time": 131.2704044437511,
          "velocity": 0.7480314960629921,
          "duration": 0.42857100000000514
        },
        {
          "name": "E7",
          "midi": 100,
          "time": 131.2704044437511,
          "velocity": 0.7480314960629921,
          "duration": 0.42857100000000514
        },
        {
          "name": "E4",
          "midi": 64,
          "time": 131.6989754437511,
          "velocity": 0.7480314960629921,
          "duration": 0.14285699999999224
        },
        {
          "name": "E5",
          "midi": 76,
          "time": 131.6989754437511,
          "velocity": 0.7480314960629921,
          "duration": 0.14285699999999224
        },
        {
          "name": "E6",
          "midi": 88,
          "time": 131.6989754437511,
          "velocity": 0.7480314960629921,
          "duration": 0.14285699999999224
        },
        {
          "name": "E7",
          "midi": 100,
          "time": 131.6989754437511,
          "velocity": 0.7480314960629921,
          "duration": 0.14285699999999224
        },
        {
          "name": "E4",
          "midi": 64,
          "time": 131.8418324437511,
          "velocity": 0.7480314960629921,
          "duration": 0.14285699999999224
        },
        {
          "name": "E5",
          "midi": 76,
          "time": 131.8418324437511,
          "velocity": 0.7480314960629921,
          "duration": 0.14285699999999224
        },
        {
          "name": "E6",
          "midi": 88,
          "time": 131.8418324437511,
          "velocity": 0.7480314960629921,
          "duration": 0.14285699999999224
        },
        {
          "name": "E7",
          "midi": 100,
          "time": 131.8418324437511,
          "velocity": 0.7480314960629921,
          "duration": 0.14285699999999224
        },
        {
          "name": "E4",
          "midi": 64,
          "time": 131.98468944375108,
          "velocity": 0.7480314960629921,
          "duration": 0.14285699999999224
        },
        {
          "name": "E5",
          "midi": 76,
          "time": 131.98468944375108,
          "velocity": 0.7480314960629921,
          "duration": 0.14285699999999224
        },
        {
          "name": "E6",
          "midi": 88,
          "time": 131.98468944375108,
          "velocity": 0.7480314960629921,
          "duration": 0.14285699999999224
        },
        {
          "name": "E7",
          "midi": 100,
          "time": 131.98468944375108,
          "velocity": 0.7480314960629921,
          "duration": 0.14285699999999224
        },
        {
          "name": "E4",
          "midi": 64,
          "time": 132.12754644375107,
          "velocity": 0.7480314960629921,
          "duration": 0.14285699999999224
        },
        {
          "name": "E5",
          "midi": 76,
          "time": 132.12754644375107,
          "velocity": 0.7480314960629921,
          "duration": 0.14285699999999224
        },
        {
          "name": "E6",
          "midi": 88,
          "time": 132.12754644375107,
          "velocity": 0.7480314960629921,
          "duration": 0.14285699999999224
        },
        {
          "name": "E7",
          "midi": 100,
          "time": 132.12754644375107,
          "velocity": 0.7480314960629921,
          "duration": 0.14285699999999224
        },
        {
          "name": "E4",
          "midi": 64,
          "time": 132.41326044375106,
          "velocity": 0.7480314960629921,
          "duration": 0.14285699999999224
        },
        {
          "name": "E5",
          "midi": 76,
          "time": 132.41326044375106,
          "velocity": 0.7480314960629921,
          "duration": 0.14285699999999224
        },
        {
          "name": "E6",
          "midi": 88,
          "time": 132.41326044375106,
          "velocity": 0.7480314960629921,
          "duration": 0.14285699999999224
        },
        {
          "name": "E7",
          "midi": 100,
          "time": 132.41326044375106,
          "velocity": 0.7480314960629921,
          "duration": 0.14285699999999224
        },
        {
          "name": "E4",
          "midi": 64,
          "time": 132.69897444375104,
          "velocity": 0.7480314960629921,
          "duration": 0.14285699999999224
        },
        {
          "name": "E5",
          "midi": 76,
          "time": 132.69897444375104,
          "velocity": 0.7480314960629921,
          "duration": 0.14285699999999224
        },
        {
          "name": "E6",
          "midi": 88,
          "time": 132.69897444375104,
          "velocity": 0.7480314960629921,
          "duration": 0.14285699999999224
        },
        {
          "name": "E7",
          "midi": 100,
          "time": 132.69897444375104,
          "velocity": 0.7480314960629921,
          "duration": 0.14285699999999224
        },
        {
          "name": "E4",
          "midi": 64,
          "time": 132.98468844375103,
          "velocity": 0.7480314960629921,
          "duration": 0.42857100000000514
        },
        {
          "name": "E5",
          "midi": 76,
          "time": 132.98468844375103,
          "velocity": 0.7480314960629921,
          "duration": 0.42857100000000514
        },
        {
          "name": "E6",
          "midi": 88,
          "time": 132.98468844375103,
          "velocity": 0.7480314960629921,
          "duration": 0.42857100000000514
        },
        {
          "name": "E7",
          "midi": 100,
          "time": 132.98468844375103,
          "velocity": 0.7480314960629921,
          "duration": 0.42857100000000514
        },
        {
          "name": "E4",
          "midi": 64,
          "time": 133.41325944375103,
          "velocity": 0.7480314960629921,
          "duration": 0.14285699999999224
        },
        {
          "name": "E5",
          "midi": 76,
          "time": 133.41325944375103,
          "velocity": 0.7480314960629921,
          "duration": 0.14285699999999224
        },
        {
          "name": "E6",
          "midi": 88,
          "time": 133.41325944375103,
          "velocity": 0.7480314960629921,
          "duration": 0.14285699999999224
        },
        {
          "name": "E7",
          "midi": 100,
          "time": 133.41325944375103,
          "velocity": 0.7480314960629921,
          "duration": 0.14285699999999224
        },
        {
          "name": "E4",
          "midi": 64,
          "time": 133.55611644375102,
          "velocity": 0.7480314960629921,
          "duration": 0.14285699999999224
        },
        {
          "name": "E5",
          "midi": 76,
          "time": 133.55611644375102,
          "velocity": 0.7480314960629921,
          "duration": 0.14285699999999224
        },
        {
          "name": "E6",
          "midi": 88,
          "time": 133.55611644375102,
          "velocity": 0.7480314960629921,
          "duration": 0.14285699999999224
        },
        {
          "name": "E7",
          "midi": 100,
          "time": 133.55611644375102,
          "velocity": 0.7480314960629921,
          "duration": 0.14285699999999224
        },
        {
          "name": "E4",
          "midi": 64,
          "time": 133.69897344375102,
          "velocity": 0.7480314960629921,
          "duration": 0.14285699999999224
        },
        {
          "name": "E5",
          "midi": 76,
          "time": 133.69897344375102,
          "velocity": 0.7480314960629921,
          "duration": 0.14285699999999224
        },
        {
          "name": "E6",
          "midi": 88,
          "time": 133.69897344375102,
          "velocity": 0.7480314960629921,
          "duration": 0.14285699999999224
        },
        {
          "name": "E7",
          "midi": 100,
          "time": 133.69897344375102,
          "velocity": 0.7480314960629921,
          "duration": 0.14285699999999224
        },
        {
          "name": "E4",
          "midi": 64,
          "time": 133.841830443751,
          "velocity": 0.7480314960629921,
          "duration": 0.2857140000000129
        },
        {
          "name": "E5",
          "midi": 76,
          "time": 133.841830443751,
          "velocity": 0.7480314960629921,
          "duration": 0.2857140000000129
        },
        {
          "name": "E6",
          "midi": 88,
          "time": 133.841830443751,
          "velocity": 0.7480314960629921,
          "duration": 0.2857140000000129
        },
        {
          "name": "E7",
          "midi": 100,
          "time": 133.841830443751,
          "velocity": 0.7480314960629921,
          "duration": 0.2857140000000129
        },
        {
          "name": "E4",
          "midi": 64,
          "time": 134.12754444375102,
          "velocity": 0.7480314960629921,
          "duration": 0.2857140000000129
        },
        {
          "name": "E5",
          "midi": 76,
          "time": 134.12754444375102,
          "velocity": 0.7480314960629921,
          "duration": 0.2857140000000129
        },
        {
          "name": "E6",
          "midi": 88,
          "time": 134.12754444375102,
          "velocity": 0.7480314960629921,
          "duration": 0.2857140000000129
        },
        {
          "name": "E7",
          "midi": 100,
          "time": 134.12754444375102,
          "velocity": 0.7480314960629921,
          "duration": 0.2857140000000129
        },
        {
          "name": "E4",
          "midi": 64,
          "time": 134.41325844375103,
          "velocity": 0.7480314960629921,
          "duration": 0.2857140000000129
        },
        {
          "name": "E5",
          "midi": 76,
          "time": 134.41325844375103,
          "velocity": 0.7480314960629921,
          "duration": 0.2857140000000129
        },
        {
          "name": "E6",
          "midi": 88,
          "time": 134.41325844375103,
          "velocity": 0.7480314960629921,
          "duration": 0.2857140000000129
        },
        {
          "name": "E7",
          "midi": 100,
          "time": 134.41325844375103,
          "velocity": 0.7480314960629921,
          "duration": 0.2857140000000129
        },
        {
          "name": "E4",
          "midi": 64,
          "time": 134.69897244375105,
          "velocity": 0.7480314960629921,
          "duration": 0.42857100000000514
        },
        {
          "name": "E5",
          "midi": 76,
          "time": 134.69897244375105,
          "velocity": 0.7480314960629921,
          "duration": 0.42857100000000514
        },
        {
          "name": "E6",
          "midi": 88,
          "time": 134.69897244375105,
          "velocity": 0.7480314960629921,
          "duration": 0.42857100000000514
        },
        {
          "name": "E7",
          "midi": 100,
          "time": 134.69897244375105,
          "velocity": 0.7480314960629921,
          "duration": 0.42857100000000514
        },
        {
          "name": "E4",
          "midi": 64,
          "time": 135.12754344375105,
          "velocity": 0.7480314960629921,
          "duration": 0.14285699999999224
        },
        {
          "name": "E5",
          "midi": 76,
          "time": 135.12754344375105,
          "velocity": 0.7480314960629921,
          "duration": 0.14285699999999224
        },
        {
          "name": "E6",
          "midi": 88,
          "time": 135.12754344375105,
          "velocity": 0.7480314960629921,
          "duration": 0.14285699999999224
        },
        {
          "name": "E7",
          "midi": 100,
          "time": 135.12754344375105,
          "velocity": 0.7480314960629921,
          "duration": 0.14285699999999224
        },
        {
          "name": "E4",
          "midi": 64,
          "time": 135.27040044375104,
          "velocity": 0.7480314960629921,
          "duration": 0.14285699999999224
        },
        {
          "name": "E5",
          "midi": 76,
          "time": 135.27040044375104,
          "velocity": 0.7480314960629921,
          "duration": 0.14285699999999224
        },
        {
          "name": "E6",
          "midi": 88,
          "time": 135.27040044375104,
          "velocity": 0.7480314960629921,
          "duration": 0.14285699999999224
        },
        {
          "name": "E7",
          "midi": 100,
          "time": 135.27040044375104,
          "velocity": 0.7480314960629921,
          "duration": 0.14285699999999224
        },
        {
          "name": "E4",
          "midi": 64,
          "time": 135.41325744375104,
          "velocity": 0.7480314960629921,
          "duration": 0.14285699999999224
        },
        {
          "name": "E5",
          "midi": 76,
          "time": 135.41325744375104,
          "velocity": 0.7480314960629921,
          "duration": 0.14285699999999224
        },
        {
          "name": "E6",
          "midi": 88,
          "time": 135.41325744375104,
          "velocity": 0.7480314960629921,
          "duration": 0.14285699999999224
        },
        {
          "name": "E7",
          "midi": 100,
          "time": 135.41325744375104,
          "velocity": 0.7480314960629921,
          "duration": 0.14285699999999224
        },
        {
          "name": "E4",
          "midi": 64,
          "time": 135.55611444375103,
          "velocity": 0.7480314960629921,
          "duration": 0.2857140000000129
        },
        {
          "name": "E5",
          "midi": 76,
          "time": 135.55611444375103,
          "velocity": 0.7480314960629921,
          "duration": 0.2857140000000129
        },
        {
          "name": "E6",
          "midi": 88,
          "time": 135.55611444375103,
          "velocity": 0.7480314960629921,
          "duration": 0.2857140000000129
        },
        {
          "name": "E7",
          "midi": 100,
          "time": 135.55611444375103,
          "velocity": 0.7480314960629921,
          "duration": 0.2857140000000129
        },
        {
          "name": "E4",
          "midi": 64,
          "time": 135.84182844375104,
          "velocity": 0.7480314960629921,
          "duration": 0.2857140000000129
        },
        {
          "name": "E5",
          "midi": 76,
          "time": 135.84182844375104,
          "velocity": 0.7480314960629921,
          "duration": 0.2857140000000129
        },
        {
          "name": "E6",
          "midi": 88,
          "time": 135.84182844375104,
          "velocity": 0.7480314960629921,
          "duration": 0.2857140000000129
        },
        {
          "name": "E7",
          "midi": 100,
          "time": 135.84182844375104,
          "velocity": 0.7480314960629921,
          "duration": 0.2857140000000129
        },
        {
          "name": "E4",
          "midi": 64,
          "time": 136.12754244375105,
          "velocity": 0.7480314960629921,
          "duration": 0.2857140000000129
        },
        {
          "name": "E5",
          "midi": 76,
          "time": 136.12754244375105,
          "velocity": 0.7480314960629921,
          "duration": 0.2857140000000129
        },
        {
          "name": "E6",
          "midi": 88,
          "time": 136.12754244375105,
          "velocity": 0.7480314960629921,
          "duration": 0.2857140000000129
        },
        {
          "name": "E7",
          "midi": 100,
          "time": 136.12754244375105,
          "velocity": 0.7480314960629921,
          "duration": 0.2857140000000129
        },
        {
          "name": "E4",
          "midi": 64,
          "time": 136.41325644375107,
          "velocity": 0.7480314960629921,
          "duration": 0.42857100000000514
        },
        {
          "name": "E5",
          "midi": 76,
          "time": 136.41325644375107,
          "velocity": 0.7480314960629921,
          "duration": 0.42857100000000514
        },
        {
          "name": "E6",
          "midi": 88,
          "time": 136.41325644375107,
          "velocity": 0.7480314960629921,
          "duration": 0.42857100000000514
        },
        {
          "name": "E7",
          "midi": 100,
          "time": 136.41325644375107,
          "velocity": 0.7480314960629921,
          "duration": 0.42857100000000514
        },
        {
          "name": "E4",
          "midi": 64,
          "time": 136.84182744375107,
          "velocity": 0.7480314960629921,
          "duration": 0.42857100000000514
        },
        {
          "name": "E5",
          "midi": 76,
          "time": 136.84182744375107,
          "velocity": 0.7480314960629921,
          "duration": 0.42857100000000514
        },
        {
          "name": "E6",
          "midi": 88,
          "time": 136.84182744375107,
          "velocity": 0.7480314960629921,
          "duration": 0.42857100000000514
        },
        {
          "name": "E7",
          "midi": 100,
          "time": 136.84182744375107,
          "velocity": 0.7480314960629921,
          "duration": 0.42857100000000514
        },
        {
          "name": "E4",
          "midi": 64,
          "time": 137.27039844375108,
          "velocity": 0.7480314960629921,
          "duration": 0.2857140000000129
        },
        {
          "name": "E5",
          "midi": 76,
          "time": 137.27039844375108,
          "velocity": 0.7480314960629921,
          "duration": 0.2857140000000129
        },
        {
          "name": "E6",
          "midi": 88,
          "time": 137.27039844375108,
          "velocity": 0.7480314960629921,
          "duration": 0.2857140000000129
        },
        {
          "name": "E7",
          "midi": 100,
          "time": 137.27039844375108,
          "velocity": 0.7480314960629921,
          "duration": 0.2857140000000129
        },
        {
          "name": "E4",
          "midi": 64,
          "time": 137.5561124437511,
          "velocity": 0.7480314960629921,
          "duration": 0.2857140000000129
        },
        {
          "name": "E5",
          "midi": 76,
          "time": 137.5561124437511,
          "velocity": 0.7480314960629921,
          "duration": 0.2857140000000129
        },
        {
          "name": "E6",
          "midi": 88,
          "time": 137.5561124437511,
          "velocity": 0.7480314960629921,
          "duration": 0.2857140000000129
        },
        {
          "name": "E7",
          "midi": 100,
          "time": 137.5561124437511,
          "velocity": 0.7480314960629921,
          "duration": 0.2857140000000129
        },
        {
          "name": "E4",
          "midi": 64,
          "time": 137.8418264437511,
          "velocity": 0.7480314960629921,
          "duration": 0.2857140000000129
        },
        {
          "name": "E5",
          "midi": 76,
          "time": 137.8418264437511,
          "velocity": 0.7480314960629921,
          "duration": 0.2857140000000129
        },
        {
          "name": "E6",
          "midi": 88,
          "time": 137.8418264437511,
          "velocity": 0.7480314960629921,
          "duration": 0.2857140000000129
        },
        {
          "name": "E7",
          "midi": 100,
          "time": 137.8418264437511,
          "velocity": 0.7480314960629921,
          "duration": 0.2857140000000129
        },
        {
          "name": "E4",
          "midi": 64,
          "time": 138.12754044375112,
          "velocity": 0.7480314960629921,
          "duration": 0.42857100000000514
        },
        {
          "name": "E5",
          "midi": 76,
          "time": 138.12754044375112,
          "velocity": 0.7480314960629921,
          "duration": 0.42857100000000514
        },
        {
          "name": "E6",
          "midi": 88,
          "time": 138.12754044375112,
          "velocity": 0.7480314960629921,
          "duration": 0.42857100000000514
        },
        {
          "name": "E7",
          "midi": 100,
          "time": 138.12754044375112,
          "velocity": 0.7480314960629921,
          "duration": 0.42857100000000514
        },
        {
          "name": "E4",
          "midi": 64,
          "time": 138.55611144375112,
          "velocity": 0.7480314960629921,
          "duration": 0.14285699999999224
        },
        {
          "name": "E5",
          "midi": 76,
          "time": 138.55611144375112,
          "velocity": 0.7480314960629921,
          "duration": 0.14285699999999224
        },
        {
          "name": "E6",
          "midi": 88,
          "time": 138.55611144375112,
          "velocity": 0.7480314960629921,
          "duration": 0.14285699999999224
        },
        {
          "name": "E7",
          "midi": 100,
          "time": 138.55611144375112,
          "velocity": 0.7480314960629921,
          "duration": 0.14285699999999224
        },
        {
          "name": "E4",
          "midi": 64,
          "time": 138.6989684437511,
          "velocity": 0.7480314960629921,
          "duration": 0.14285699999999224
        },
        {
          "name": "E5",
          "midi": 76,
          "time": 138.6989684437511,
          "velocity": 0.7480314960629921,
          "duration": 0.14285699999999224
        },
        {
          "name": "E6",
          "midi": 88,
          "time": 138.6989684437511,
          "velocity": 0.7480314960629921,
          "duration": 0.14285699999999224
        },
        {
          "name": "E7",
          "midi": 100,
          "time": 138.6989684437511,
          "velocity": 0.7480314960629921,
          "duration": 0.14285699999999224
        },
        {
          "name": "E4",
          "midi": 64,
          "time": 138.8418254437511,
          "velocity": 0.7480314960629921,
          "duration": 0.14285699999999224
        },
        {
          "name": "E5",
          "midi": 76,
          "time": 138.8418254437511,
          "velocity": 0.7480314960629921,
          "duration": 0.14285699999999224
        },
        {
          "name": "E6",
          "midi": 88,
          "time": 138.8418254437511,
          "velocity": 0.7480314960629921,
          "duration": 0.14285699999999224
        },
        {
          "name": "E7",
          "midi": 100,
          "time": 138.8418254437511,
          "velocity": 0.7480314960629921,
          "duration": 0.14285699999999224
        },
        {
          "name": "E4",
          "midi": 64,
          "time": 138.9846824437511,
          "velocity": 0.7480314960629921,
          "duration": 0.2857140000000129
        },
        {
          "name": "E5",
          "midi": 76,
          "time": 138.9846824437511,
          "velocity": 0.7480314960629921,
          "duration": 0.2857140000000129
        },
        {
          "name": "E6",
          "midi": 88,
          "time": 138.9846824437511,
          "velocity": 0.7480314960629921,
          "duration": 0.2857140000000129
        },
        {
          "name": "E7",
          "midi": 100,
          "time": 138.9846824437511,
          "velocity": 0.7480314960629921,
          "duration": 0.2857140000000129
        },
        {
          "name": "E4",
          "midi": 64,
          "time": 139.2703964437511,
          "velocity": 0.7480314960629921,
          "duration": 0.2857140000000129
        },
        {
          "name": "E5",
          "midi": 76,
          "time": 139.2703964437511,
          "velocity": 0.7480314960629921,
          "duration": 0.2857140000000129
        },
        {
          "name": "E6",
          "midi": 88,
          "time": 139.2703964437511,
          "velocity": 0.7480314960629921,
          "duration": 0.2857140000000129
        },
        {
          "name": "E7",
          "midi": 100,
          "time": 139.2703964437511,
          "velocity": 0.7480314960629921,
          "duration": 0.2857140000000129
        },
        {
          "name": "E4",
          "midi": 64,
          "time": 139.55611044375112,
          "velocity": 0.7480314960629921,
          "duration": 0.2857140000000129
        },
        {
          "name": "E5",
          "midi": 76,
          "time": 139.55611044375112,
          "velocity": 0.7480314960629921,
          "duration": 0.2857140000000129
        },
        {
          "name": "E6",
          "midi": 88,
          "time": 139.55611044375112,
          "velocity": 0.7480314960629921,
          "duration": 0.2857140000000129
        },
        {
          "name": "E7",
          "midi": 100,
          "time": 139.55611044375112,
          "velocity": 0.7480314960629921,
          "duration": 0.2857140000000129
        },
        {
          "name": "E4",
          "midi": 64,
          "time": 139.84182444375114,
          "velocity": 0.7480314960629921,
          "duration": 0.42857100000000514
        },
        {
          "name": "E5",
          "midi": 76,
          "time": 139.84182444375114,
          "velocity": 0.7480314960629921,
          "duration": 0.42857100000000514
        },
        {
          "name": "E6",
          "midi": 88,
          "time": 139.84182444375114,
          "velocity": 0.7480314960629921,
          "duration": 0.42857100000000514
        },
        {
          "name": "E7",
          "midi": 100,
          "time": 139.84182444375114,
          "velocity": 0.7480314960629921,
          "duration": 0.42857100000000514
        },
        {
          "name": "E4",
          "midi": 64,
          "time": 140.27039544375114,
          "velocity": 0.7480314960629921,
          "duration": 0.14285699999999224
        },
        {
          "name": "E5",
          "midi": 76,
          "time": 140.27039544375114,
          "velocity": 0.7480314960629921,
          "duration": 0.14285699999999224
        },
        {
          "name": "E6",
          "midi": 88,
          "time": 140.27039544375114,
          "velocity": 0.7480314960629921,
          "duration": 0.14285699999999224
        },
        {
          "name": "E7",
          "midi": 100,
          "time": 140.27039544375114,
          "velocity": 0.7480314960629921,
          "duration": 0.14285699999999224
        },
        {
          "name": "E4",
          "midi": 64,
          "time": 140.41325244375113,
          "velocity": 0.7480314960629921,
          "duration": 0.14285699999999224
        },
        {
          "name": "E5",
          "midi": 76,
          "time": 140.41325244375113,
          "velocity": 0.7480314960629921,
          "duration": 0.14285699999999224
        },
        {
          "name": "E6",
          "midi": 88,
          "time": 140.41325244375113,
          "velocity": 0.7480314960629921,
          "duration": 0.14285699999999224
        },
        {
          "name": "E7",
          "midi": 100,
          "time": 140.41325244375113,
          "velocity": 0.7480314960629921,
          "duration": 0.14285699999999224
        },
        {
          "name": "E4",
          "midi": 64,
          "time": 140.55610944375113,
          "velocity": 0.7480314960629921,
          "duration": 0.14285699999999224
        },
        {
          "name": "E5",
          "midi": 76,
          "time": 140.55610944375113,
          "velocity": 0.7480314960629921,
          "duration": 0.14285699999999224
        },
        {
          "name": "E6",
          "midi": 88,
          "time": 140.55610944375113,
          "velocity": 0.7480314960629921,
          "duration": 0.14285699999999224
        },
        {
          "name": "E7",
          "midi": 100,
          "time": 140.55610944375113,
          "velocity": 0.7480314960629921,
          "duration": 0.14285699999999224
        },
        {
          "name": "E4",
          "midi": 64,
          "time": 140.69896644375112,
          "velocity": 0.7480314960629921,
          "duration": 0.2857140000000129
        },
        {
          "name": "E5",
          "midi": 76,
          "time": 140.69896644375112,
          "velocity": 0.7480314960629921,
          "duration": 0.2857140000000129
        },
        {
          "name": "E6",
          "midi": 88,
          "time": 140.69896644375112,
          "velocity": 0.7480314960629921,
          "duration": 0.2857140000000129
        },
        {
          "name": "E7",
          "midi": 100,
          "time": 140.69896644375112,
          "velocity": 0.7480314960629921,
          "duration": 0.2857140000000129
        },
        {
          "name": "E4",
          "midi": 64,
          "time": 140.98468044375113,
          "velocity": 0.7480314960629921,
          "duration": 0.2857140000000129
        },
        {
          "name": "E5",
          "midi": 76,
          "time": 140.98468044375113,
          "velocity": 0.7480314960629921,
          "duration": 0.2857140000000129
        },
        {
          "name": "E6",
          "midi": 88,
          "time": 140.98468044375113,
          "velocity": 0.7480314960629921,
          "duration": 0.2857140000000129
        },
        {
          "name": "E7",
          "midi": 100,
          "time": 140.98468044375113,
          "velocity": 0.7480314960629921,
          "duration": 0.2857140000000129
        },
        {
          "name": "E4",
          "midi": 64,
          "time": 141.27039444375114,
          "velocity": 0.7480314960629921,
          "duration": 0.2857140000000129
        },
        {
          "name": "E5",
          "midi": 76,
          "time": 141.27039444375114,
          "velocity": 0.7480314960629921,
          "duration": 0.2857140000000129
        },
        {
          "name": "E6",
          "midi": 88,
          "time": 141.27039444375114,
          "velocity": 0.7480314960629921,
          "duration": 0.2857140000000129
        },
        {
          "name": "E7",
          "midi": 100,
          "time": 141.27039444375114,
          "velocity": 0.7480314960629921,
          "duration": 0.2857140000000129
        },
        {
          "name": "E4",
          "midi": 64,
          "time": 141.55610844375116,
          "velocity": 0.7480314960629921,
          "duration": 0.42857100000000514
        },
        {
          "name": "E5",
          "midi": 76,
          "time": 141.55610844375116,
          "velocity": 0.7480314960629921,
          "duration": 0.42857100000000514
        },
        {
          "name": "E6",
          "midi": 88,
          "time": 141.55610844375116,
          "velocity": 0.7480314960629921,
          "duration": 0.42857100000000514
        },
        {
          "name": "E7",
          "midi": 100,
          "time": 141.55610844375116,
          "velocity": 0.7480314960629921,
          "duration": 0.42857100000000514
        },
        {
          "name": "E4",
          "midi": 64,
          "time": 141.98467944375116,
          "velocity": 0.7480314960629921,
          "duration": 0.14285699999999224
        },
        {
          "name": "E5",
          "midi": 76,
          "time": 141.98467944375116,
          "velocity": 0.7480314960629921,
          "duration": 0.14285699999999224
        },
        {
          "name": "E6",
          "midi": 88,
          "time": 141.98467944375116,
          "velocity": 0.7480314960629921,
          "duration": 0.14285699999999224
        },
        {
          "name": "E7",
          "midi": 100,
          "time": 141.98467944375116,
          "velocity": 0.7480314960629921,
          "duration": 0.14285699999999224
        },
        {
          "name": "E4",
          "midi": 64,
          "time": 142.12753644375115,
          "velocity": 0.7480314960629921,
          "duration": 0.14285699999999224
        },
        {
          "name": "E5",
          "midi": 76,
          "time": 142.12753644375115,
          "velocity": 0.7480314960629921,
          "duration": 0.14285699999999224
        },
        {
          "name": "E6",
          "midi": 88,
          "time": 142.12753644375115,
          "velocity": 0.7480314960629921,
          "duration": 0.14285699999999224
        },
        {
          "name": "E7",
          "midi": 100,
          "time": 142.12753644375115,
          "velocity": 0.7480314960629921,
          "duration": 0.14285699999999224
        },
        {
          "name": "E4",
          "midi": 64,
          "time": 142.27039344375115,
          "velocity": 0.7480314960629921,
          "duration": 0.14285699999999224
        },
        {
          "name": "E5",
          "midi": 76,
          "time": 142.27039344375115,
          "velocity": 0.7480314960629921,
          "duration": 0.14285699999999224
        },
        {
          "name": "E6",
          "midi": 88,
          "time": 142.27039344375115,
          "velocity": 0.7480314960629921,
          "duration": 0.14285699999999224
        },
        {
          "name": "E7",
          "midi": 100,
          "time": 142.27039344375115,
          "velocity": 0.7480314960629921,
          "duration": 0.14285699999999224
        },
        {
          "name": "E4",
          "midi": 64,
          "time": 142.41325044375114,
          "velocity": 0.7480314960629921,
          "duration": 0.2857140000000129
        },
        {
          "name": "E5",
          "midi": 76,
          "time": 142.41325044375114,
          "velocity": 0.7480314960629921,
          "duration": 0.2857140000000129
        },
        {
          "name": "E6",
          "midi": 88,
          "time": 142.41325044375114,
          "velocity": 0.7480314960629921,
          "duration": 0.2857140000000129
        },
        {
          "name": "E7",
          "midi": 100,
          "time": 142.41325044375114,
          "velocity": 0.7480314960629921,
          "duration": 0.2857140000000129
        },
        {
          "name": "E4",
          "midi": 64,
          "time": 142.69896444375115,
          "velocity": 0.7480314960629921,
          "duration": 0.2857140000000129
        },
        {
          "name": "E5",
          "midi": 76,
          "time": 142.69896444375115,
          "velocity": 0.7480314960629921,
          "duration": 0.2857140000000129
        },
        {
          "name": "E6",
          "midi": 88,
          "time": 142.69896444375115,
          "velocity": 0.7480314960629921,
          "duration": 0.2857140000000129
        },
        {
          "name": "E7",
          "midi": 100,
          "time": 142.69896444375115,
          "velocity": 0.7480314960629921,
          "duration": 0.2857140000000129
        },
        {
          "name": "E4",
          "midi": 64,
          "time": 142.98467844375116,
          "velocity": 0.7480314960629921,
          "duration": 0.2857140000000129
        },
        {
          "name": "E5",
          "midi": 76,
          "time": 142.98467844375116,
          "velocity": 0.7480314960629921,
          "duration": 0.2857140000000129
        },
        {
          "name": "E6",
          "midi": 88,
          "time": 142.98467844375116,
          "velocity": 0.7480314960629921,
          "duration": 0.2857140000000129
        },
        {
          "name": "E7",
          "midi": 100,
          "time": 142.98467844375116,
          "velocity": 0.7480314960629921,
          "duration": 0.2857140000000129
        },
        {
          "name": "E4",
          "midi": 64,
          "time": 143.27039244375118,
          "velocity": 0.7480314960629921,
          "duration": 0.42857100000000514
        },
        {
          "name": "E5",
          "midi": 76,
          "time": 143.27039244375118,
          "velocity": 0.7480314960629921,
          "duration": 0.42857100000000514
        },
        {
          "name": "E6",
          "midi": 88,
          "time": 143.27039244375118,
          "velocity": 0.7480314960629921,
          "duration": 0.42857100000000514
        },
        {
          "name": "E7",
          "midi": 100,
          "time": 143.27039244375118,
          "velocity": 0.7480314960629921,
          "duration": 0.42857100000000514
        },
        {
          "name": "E4",
          "midi": 64,
          "time": 143.69896344375118,
          "velocity": 0.7480314960629921,
          "duration": 0.14285699999999224
        },
        {
          "name": "E5",
          "midi": 76,
          "time": 143.69896344375118,
          "velocity": 0.7480314960629921,
          "duration": 0.14285699999999224
        },
        {
          "name": "E6",
          "midi": 88,
          "time": 143.69896344375118,
          "velocity": 0.7480314960629921,
          "duration": 0.14285699999999224
        },
        {
          "name": "E7",
          "midi": 100,
          "time": 143.69896344375118,
          "velocity": 0.7480314960629921,
          "duration": 0.14285699999999224
        },
        {
          "name": "E4",
          "midi": 64,
          "time": 143.84182044375117,
          "velocity": 0.7480314960629921,
          "duration": 0.14285699999999224
        },
        {
          "name": "E5",
          "midi": 76,
          "time": 143.84182044375117,
          "velocity": 0.7480314960629921,
          "duration": 0.14285699999999224
        },
        {
          "name": "E6",
          "midi": 88,
          "time": 143.84182044375117,
          "velocity": 0.7480314960629921,
          "duration": 0.14285699999999224
        },
        {
          "name": "E7",
          "midi": 100,
          "time": 143.84182044375117,
          "velocity": 0.7480314960629921,
          "duration": 0.14285699999999224
        },
        {
          "name": "E4",
          "midi": 64,
          "time": 143.98467744375117,
          "velocity": 0.7480314960629921,
          "duration": 0.14285699999999224
        },
        {
          "name": "E5",
          "midi": 76,
          "time": 143.98467744375117,
          "velocity": 0.7480314960629921,
          "duration": 0.14285699999999224
        },
        {
          "name": "E6",
          "midi": 88,
          "time": 143.98467744375117,
          "velocity": 0.7480314960629921,
          "duration": 0.14285699999999224
        },
        {
          "name": "E7",
          "midi": 100,
          "time": 143.98467744375117,
          "velocity": 0.7480314960629921,
          "duration": 0.14285699999999224
        },
        {
          "name": "E4",
          "midi": 64,
          "time": 144.12753444375116,
          "velocity": 0.7480314960629921,
          "duration": 0.2857140000000129
        },
        {
          "name": "E5",
          "midi": 76,
          "time": 144.12753444375116,
          "velocity": 0.7480314960629921,
          "duration": 0.2857140000000129
        },
        {
          "name": "E6",
          "midi": 88,
          "time": 144.12753444375116,
          "velocity": 0.7480314960629921,
          "duration": 0.2857140000000129
        },
        {
          "name": "E7",
          "midi": 100,
          "time": 144.12753444375116,
          "velocity": 0.7480314960629921,
          "duration": 0.2857140000000129
        },
        {
          "name": "E4",
          "midi": 64,
          "time": 144.41324844375117,
          "velocity": 0.7480314960629921,
          "duration": 0.2857140000000129
        },
        {
          "name": "E5",
          "midi": 76,
          "time": 144.41324844375117,
          "velocity": 0.7480314960629921,
          "duration": 0.2857140000000129
        },
        {
          "name": "E6",
          "midi": 88,
          "time": 144.41324844375117,
          "velocity": 0.7480314960629921,
          "duration": 0.2857140000000129
        },
        {
          "name": "E7",
          "midi": 100,
          "time": 144.41324844375117,
          "velocity": 0.7480314960629921,
          "duration": 0.2857140000000129
        },
        {
          "name": "E4",
          "midi": 64,
          "time": 144.69896244375118,
          "velocity": 0.7480314960629921,
          "duration": 0.2857140000000129
        },
        {
          "name": "E5",
          "midi": 76,
          "time": 144.69896244375118,
          "velocity": 0.7480314960629921,
          "duration": 0.2857140000000129
        },
        {
          "name": "E6",
          "midi": 88,
          "time": 144.69896244375118,
          "velocity": 0.7480314960629921,
          "duration": 0.2857140000000129
        },
        {
          "name": "E7",
          "midi": 100,
          "time": 144.69896244375118,
          "velocity": 0.7480314960629921,
          "duration": 0.2857140000000129
        },
        {
          "name": "E4",
          "midi": 64,
          "time": 144.9846764437512,
          "velocity": 0.7480314960629921,
          "duration": 0.42857100000000514
        },
        {
          "name": "E5",
          "midi": 76,
          "time": 144.9846764437512,
          "velocity": 0.7480314960629921,
          "duration": 0.42857100000000514
        },
        {
          "name": "E6",
          "midi": 88,
          "time": 144.9846764437512,
          "velocity": 0.7480314960629921,
          "duration": 0.42857100000000514
        },
        {
          "name": "E7",
          "midi": 100,
          "time": 144.9846764437512,
          "velocity": 0.7480314960629921,
          "duration": 0.42857100000000514
        },
        {
          "name": "E4",
          "midi": 64,
          "time": 145.4132474437512,
          "velocity": 0.7480314960629921,
          "duration": 0.14285699999999224
        },
        {
          "name": "E5",
          "midi": 76,
          "time": 145.4132474437512,
          "velocity": 0.7480314960629921,
          "duration": 0.14285699999999224
        },
        {
          "name": "E6",
          "midi": 88,
          "time": 145.4132474437512,
          "velocity": 0.7480314960629921,
          "duration": 0.14285699999999224
        },
        {
          "name": "E7",
          "midi": 100,
          "time": 145.4132474437512,
          "velocity": 0.7480314960629921,
          "duration": 0.14285699999999224
        },
        {
          "name": "E4",
          "midi": 64,
          "time": 145.5561044437512,
          "velocity": 0.7480314960629921,
          "duration": 0.14285699999999224
        },
        {
          "name": "E5",
          "midi": 76,
          "time": 145.5561044437512,
          "velocity": 0.7480314960629921,
          "duration": 0.14285699999999224
        },
        {
          "name": "E6",
          "midi": 88,
          "time": 145.5561044437512,
          "velocity": 0.7480314960629921,
          "duration": 0.14285699999999224
        },
        {
          "name": "E7",
          "midi": 100,
          "time": 145.5561044437512,
          "velocity": 0.7480314960629921,
          "duration": 0.14285699999999224
        },
        {
          "name": "E4",
          "midi": 64,
          "time": 145.6989614437512,
          "velocity": 0.7480314960629921,
          "duration": 0.14285699999999224
        },
        {
          "name": "E5",
          "midi": 76,
          "time": 145.6989614437512,
          "velocity": 0.7480314960629921,
          "duration": 0.14285699999999224
        },
        {
          "name": "E6",
          "midi": 88,
          "time": 145.6989614437512,
          "velocity": 0.7480314960629921,
          "duration": 0.14285699999999224
        },
        {
          "name": "E7",
          "midi": 100,
          "time": 145.6989614437512,
          "velocity": 0.7480314960629921,
          "duration": 0.14285699999999224
        },
        {
          "name": "E4",
          "midi": 64,
          "time": 145.84181844375118,
          "velocity": 0.7480314960629921,
          "duration": 0.14285699999999224
        },
        {
          "name": "E5",
          "midi": 76,
          "time": 145.84181844375118,
          "velocity": 0.7480314960629921,
          "duration": 0.14285699999999224
        },
        {
          "name": "E6",
          "midi": 88,
          "time": 145.84181844375118,
          "velocity": 0.7480314960629921,
          "duration": 0.14285699999999224
        },
        {
          "name": "E7",
          "midi": 100,
          "time": 145.84181844375118,
          "velocity": 0.7480314960629921,
          "duration": 0.14285699999999224
        },
        {
          "name": "E4",
          "midi": 64,
          "time": 146.12753244375116,
          "velocity": 0.7480314960629921,
          "duration": 0.14285699999999224
        },
        {
          "name": "E5",
          "midi": 76,
          "time": 146.12753244375116,
          "velocity": 0.7480314960629921,
          "duration": 0.14285699999999224
        },
        {
          "name": "E6",
          "midi": 88,
          "time": 146.12753244375116,
          "velocity": 0.7480314960629921,
          "duration": 0.14285699999999224
        },
        {
          "name": "E7",
          "midi": 100,
          "time": 146.12753244375116,
          "velocity": 0.7480314960629921,
          "duration": 0.14285699999999224
        },
        {
          "name": "E4",
          "midi": 64,
          "time": 146.41324644375115,
          "velocity": 0.7480314960629921,
          "duration": 0.14285699999999224
        },
        {
          "name": "E5",
          "midi": 76,
          "time": 146.41324644375115,
          "velocity": 0.7480314960629921,
          "duration": 0.14285699999999224
        },
        {
          "name": "E6",
          "midi": 88,
          "time": 146.41324644375115,
          "velocity": 0.7480314960629921,
          "duration": 0.14285699999999224
        },
        {
          "name": "E7",
          "midi": 100,
          "time": 146.41324644375115,
          "velocity": 0.7480314960629921,
          "duration": 0.14285699999999224
        },
        {
          "name": "E4",
          "midi": 64,
          "time": 146.69896044375113,
          "velocity": 0.7480314960629921,
          "duration": 0.42857100000000514
        },
        {
          "name": "E5",
          "midi": 76,
          "time": 146.69896044375113,
          "velocity": 0.7480314960629921,
          "duration": 0.42857100000000514
        },
        {
          "name": "E6",
          "midi": 88,
          "time": 146.69896044375113,
          "velocity": 0.7480314960629921,
          "duration": 0.42857100000000514
        },
        {
          "name": "E7",
          "midi": 100,
          "time": 146.69896044375113,
          "velocity": 0.7480314960629921,
          "duration": 0.42857100000000514
        },
        {
          "name": "E4",
          "midi": 64,
          "time": 147.12753144375114,
          "velocity": 0.7480314960629921,
          "duration": 0.14285699999999224
        },
        {
          "name": "E5",
          "midi": 76,
          "time": 147.12753144375114,
          "velocity": 0.7480314960629921,
          "duration": 0.14285699999999224
        },
        {
          "name": "E6",
          "midi": 88,
          "time": 147.12753144375114,
          "velocity": 0.7480314960629921,
          "duration": 0.14285699999999224
        },
        {
          "name": "E7",
          "midi": 100,
          "time": 147.12753144375114,
          "velocity": 0.7480314960629921,
          "duration": 0.14285699999999224
        },
        {
          "name": "E4",
          "midi": 64,
          "time": 147.27038844375113,
          "velocity": 0.7480314960629921,
          "duration": 0.14285699999999224
        },
        {
          "name": "E5",
          "midi": 76,
          "time": 147.27038844375113,
          "velocity": 0.7480314960629921,
          "duration": 0.14285699999999224
        },
        {
          "name": "E6",
          "midi": 88,
          "time": 147.27038844375113,
          "velocity": 0.7480314960629921,
          "duration": 0.14285699999999224
        },
        {
          "name": "E7",
          "midi": 100,
          "time": 147.27038844375113,
          "velocity": 0.7480314960629921,
          "duration": 0.14285699999999224
        },
        {
          "name": "E4",
          "midi": 64,
          "time": 147.41324544375112,
          "velocity": 0.7480314960629921,
          "duration": 0.14285699999999224
        },
        {
          "name": "E5",
          "midi": 76,
          "time": 147.41324544375112,
          "velocity": 0.7480314960629921,
          "duration": 0.14285699999999224
        },
        {
          "name": "E6",
          "midi": 88,
          "time": 147.41324544375112,
          "velocity": 0.7480314960629921,
          "duration": 0.14285699999999224
        },
        {
          "name": "E7",
          "midi": 100,
          "time": 147.41324544375112,
          "velocity": 0.7480314960629921,
          "duration": 0.14285699999999224
        },
        {
          "name": "E4",
          "midi": 64,
          "time": 147.55610244375112,
          "velocity": 0.7480314960629921,
          "duration": 0.2857140000000129
        },
        {
          "name": "E5",
          "midi": 76,
          "time": 147.55610244375112,
          "velocity": 0.7480314960629921,
          "duration": 0.2857140000000129
        },
        {
          "name": "E6",
          "midi": 88,
          "time": 147.55610244375112,
          "velocity": 0.7480314960629921,
          "duration": 0.2857140000000129
        },
        {
          "name": "E7",
          "midi": 100,
          "time": 147.55610244375112,
          "velocity": 0.7480314960629921,
          "duration": 0.2857140000000129
        },
        {
          "name": "E4",
          "midi": 64,
          "time": 147.84181644375113,
          "velocity": 0.7480314960629921,
          "duration": 0.2857140000000129
        },
        {
          "name": "E5",
          "midi": 76,
          "time": 147.84181644375113,
          "velocity": 0.7480314960629921,
          "duration": 0.2857140000000129
        },
        {
          "name": "E6",
          "midi": 88,
          "time": 147.84181644375113,
          "velocity": 0.7480314960629921,
          "duration": 0.2857140000000129
        },
        {
          "name": "E7",
          "midi": 100,
          "time": 147.84181644375113,
          "velocity": 0.7480314960629921,
          "duration": 0.2857140000000129
        },
        {
          "name": "E4",
          "midi": 64,
          "time": 148.12753044375114,
          "velocity": 0.7480314960629921,
          "duration": 0.2857140000000129
        },
        {
          "name": "E5",
          "midi": 76,
          "time": 148.12753044375114,
          "velocity": 0.7480314960629921,
          "duration": 0.2857140000000129
        },
        {
          "name": "E6",
          "midi": 88,
          "time": 148.12753044375114,
          "velocity": 0.7480314960629921,
          "duration": 0.2857140000000129
        },
        {
          "name": "E7",
          "midi": 100,
          "time": 148.12753044375114,
          "velocity": 0.7480314960629921,
          "duration": 0.2857140000000129
        },
        {
          "name": "E4",
          "midi": 64,
          "time": 148.41324444375115,
          "velocity": 0.7480314960629921,
          "duration": 0.42857100000000514
        },
        {
          "name": "E5",
          "midi": 76,
          "time": 148.41324444375115,
          "velocity": 0.7480314960629921,
          "duration": 0.42857100000000514
        },
        {
          "name": "E6",
          "midi": 88,
          "time": 148.41324444375115,
          "velocity": 0.7480314960629921,
          "duration": 0.42857100000000514
        },
        {
          "name": "E7",
          "midi": 100,
          "time": 148.41324444375115,
          "velocity": 0.7480314960629921,
          "duration": 0.42857100000000514
        },
        {
          "name": "E4",
          "midi": 64,
          "time": 148.84181544375116,
          "velocity": 0.7480314960629921,
          "duration": 0.14285699999999224
        },
        {
          "name": "E5",
          "midi": 76,
          "time": 148.84181544375116,
          "velocity": 0.7480314960629921,
          "duration": 0.14285699999999224
        },
        {
          "name": "E6",
          "midi": 88,
          "time": 148.84181544375116,
          "velocity": 0.7480314960629921,
          "duration": 0.14285699999999224
        },
        {
          "name": "E7",
          "midi": 100,
          "time": 148.84181544375116,
          "velocity": 0.7480314960629921,
          "duration": 0.14285699999999224
        },
        {
          "name": "E4",
          "midi": 64,
          "time": 148.98467244375115,
          "velocity": 0.7480314960629921,
          "duration": 0.14285699999999224
        },
        {
          "name": "E5",
          "midi": 76,
          "time": 148.98467244375115,
          "velocity": 0.7480314960629921,
          "duration": 0.14285699999999224
        },
        {
          "name": "E6",
          "midi": 88,
          "time": 148.98467244375115,
          "velocity": 0.7480314960629921,
          "duration": 0.14285699999999224
        },
        {
          "name": "E7",
          "midi": 100,
          "time": 148.98467244375115,
          "velocity": 0.7480314960629921,
          "duration": 0.14285699999999224
        },
        {
          "name": "E4",
          "midi": 64,
          "time": 149.12752944375114,
          "velocity": 0.7480314960629921,
          "duration": 0.14285699999999224
        },
        {
          "name": "E5",
          "midi": 76,
          "time": 149.12752944375114,
          "velocity": 0.7480314960629921,
          "duration": 0.14285699999999224
        },
        {
          "name": "E6",
          "midi": 88,
          "time": 149.12752944375114,
          "velocity": 0.7480314960629921,
          "duration": 0.14285699999999224
        },
        {
          "name": "E7",
          "midi": 100,
          "time": 149.12752944375114,
          "velocity": 0.7480314960629921,
          "duration": 0.14285699999999224
        },
        {
          "name": "E4",
          "midi": 64,
          "time": 149.27038644375114,
          "velocity": 0.7480314960629921,
          "duration": 0.2857140000000129
        },
        {
          "name": "E5",
          "midi": 76,
          "time": 149.27038644375114,
          "velocity": 0.7480314960629921,
          "duration": 0.2857140000000129
        },
        {
          "name": "E6",
          "midi": 88,
          "time": 149.27038644375114,
          "velocity": 0.7480314960629921,
          "duration": 0.2857140000000129
        },
        {
          "name": "E7",
          "midi": 100,
          "time": 149.27038644375114,
          "velocity": 0.7480314960629921,
          "duration": 0.2857140000000129
        },
        {
          "name": "E4",
          "midi": 64,
          "time": 149.55610044375115,
          "velocity": 0.7480314960629921,
          "duration": 0.2857140000000129
        },
        {
          "name": "E5",
          "midi": 76,
          "time": 149.55610044375115,
          "velocity": 0.7480314960629921,
          "duration": 0.2857140000000129
        },
        {
          "name": "E6",
          "midi": 88,
          "time": 149.55610044375115,
          "velocity": 0.7480314960629921,
          "duration": 0.2857140000000129
        },
        {
          "name": "E7",
          "midi": 100,
          "time": 149.55610044375115,
          "velocity": 0.7480314960629921,
          "duration": 0.2857140000000129
        },
        {
          "name": "E4",
          "midi": 64,
          "time": 149.84181444375116,
          "velocity": 0.7480314960629921,
          "duration": 0.2857140000000129
        },
        {
          "name": "E5",
          "midi": 76,
          "time": 149.84181444375116,
          "velocity": 0.7480314960629921,
          "duration": 0.2857140000000129
        },
        {
          "name": "E6",
          "midi": 88,
          "time": 149.84181444375116,
          "velocity": 0.7480314960629921,
          "duration": 0.2857140000000129
        },
        {
          "name": "E7",
          "midi": 100,
          "time": 149.84181444375116,
          "velocity": 0.7480314960629921,
          "duration": 0.2857140000000129
        },
        {
          "name": "E4",
          "midi": 64,
          "time": 150.12752844375117,
          "velocity": 0.7480314960629921,
          "duration": 0.42857100000000514
        },
        {
          "name": "E5",
          "midi": 76,
          "time": 150.12752844375117,
          "velocity": 0.7480314960629921,
          "duration": 0.42857100000000514
        },
        {
          "name": "E6",
          "midi": 88,
          "time": 150.12752844375117,
          "velocity": 0.7480314960629921,
          "duration": 0.42857100000000514
        },
        {
          "name": "E7",
          "midi": 100,
          "time": 150.12752844375117,
          "velocity": 0.7480314960629921,
          "duration": 0.42857100000000514
        },
        {
          "name": "E4",
          "midi": 64,
          "time": 150.55609944375118,
          "velocity": 0.7480314960629921,
          "duration": 0.42857100000000514
        },
        {
          "name": "E5",
          "midi": 76,
          "time": 150.55609944375118,
          "velocity": 0.7480314960629921,
          "duration": 0.42857100000000514
        },
        {
          "name": "E6",
          "midi": 88,
          "time": 150.55609944375118,
          "velocity": 0.7480314960629921,
          "duration": 0.42857100000000514
        },
        {
          "name": "E7",
          "midi": 100,
          "time": 150.55609944375118,
          "velocity": 0.7480314960629921,
          "duration": 0.42857100000000514
        },
        {
          "name": "E4",
          "midi": 64,
          "time": 150.98467044375118,
          "velocity": 0.7480314960629921,
          "duration": 0.2857140000000129
        },
        {
          "name": "E5",
          "midi": 76,
          "time": 150.98467044375118,
          "velocity": 0.7480314960629921,
          "duration": 0.2857140000000129
        },
        {
          "name": "E6",
          "midi": 88,
          "time": 150.98467044375118,
          "velocity": 0.7480314960629921,
          "duration": 0.2857140000000129
        },
        {
          "name": "E7",
          "midi": 100,
          "time": 150.98467044375118,
          "velocity": 0.7480314960629921,
          "duration": 0.2857140000000129
        },
        {
          "name": "E4",
          "midi": 64,
          "time": 151.2703844437512,
          "velocity": 0.7480314960629921,
          "duration": 0.2857140000000129
        },
        {
          "name": "E5",
          "midi": 76,
          "time": 151.2703844437512,
          "velocity": 0.7480314960629921,
          "duration": 0.2857140000000129
        },
        {
          "name": "E6",
          "midi": 88,
          "time": 151.2703844437512,
          "velocity": 0.7480314960629921,
          "duration": 0.2857140000000129
        },
        {
          "name": "E7",
          "midi": 100,
          "time": 151.2703844437512,
          "velocity": 0.7480314960629921,
          "duration": 0.2857140000000129
        },
        {
          "name": "E4",
          "midi": 64,
          "time": 151.5560984437512,
          "velocity": 0.7480314960629921,
          "duration": 0.2857140000000129
        },
        {
          "name": "E5",
          "midi": 76,
          "time": 151.5560984437512,
          "velocity": 0.7480314960629921,
          "duration": 0.2857140000000129
        },
        {
          "name": "E6",
          "midi": 88,
          "time": 151.5560984437512,
          "velocity": 0.7480314960629921,
          "duration": 0.2857140000000129
        },
        {
          "name": "E7",
          "midi": 100,
          "time": 151.5560984437512,
          "velocity": 0.7480314960629921,
          "duration": 0.2857140000000129
        },
        {
          "name": "E4",
          "midi": 64,
          "time": 151.84181244375122,
          "velocity": 0.7480314960629921,
          "duration": 0.42857100000000514
        },
        {
          "name": "E5",
          "midi": 76,
          "time": 151.84181244375122,
          "velocity": 0.7480314960629921,
          "duration": 0.42857100000000514
        },
        {
          "name": "E6",
          "midi": 88,
          "time": 151.84181244375122,
          "velocity": 0.7480314960629921,
          "duration": 0.42857100000000514
        },
        {
          "name": "E7",
          "midi": 100,
          "time": 151.84181244375122,
          "velocity": 0.7480314960629921,
          "duration": 0.42857100000000514
        },
        {
          "name": "E4",
          "midi": 64,
          "time": 152.27038344375123,
          "velocity": 0.7480314960629921,
          "duration": 0.14285699999999224
        },
        {
          "name": "E5",
          "midi": 76,
          "time": 152.27038344375123,
          "velocity": 0.7480314960629921,
          "duration": 0.14285699999999224
        },
        {
          "name": "E6",
          "midi": 88,
          "time": 152.27038344375123,
          "velocity": 0.7480314960629921,
          "duration": 0.14285699999999224
        },
        {
          "name": "E7",
          "midi": 100,
          "time": 152.27038344375123,
          "velocity": 0.7480314960629921,
          "duration": 0.14285699999999224
        },
        {
          "name": "E4",
          "midi": 64,
          "time": 152.41324044375122,
          "velocity": 0.7480314960629921,
          "duration": 0.14285699999999224
        },
        {
          "name": "E5",
          "midi": 76,
          "time": 152.41324044375122,
          "velocity": 0.7480314960629921,
          "duration": 0.14285699999999224
        },
        {
          "name": "E6",
          "midi": 88,
          "time": 152.41324044375122,
          "velocity": 0.7480314960629921,
          "duration": 0.14285699999999224
        },
        {
          "name": "E7",
          "midi": 100,
          "time": 152.41324044375122,
          "velocity": 0.7480314960629921,
          "duration": 0.14285699999999224
        },
        {
          "name": "E4",
          "midi": 64,
          "time": 152.5560974437512,
          "velocity": 0.7480314960629921,
          "duration": 0.14285699999999224
        },
        {
          "name": "E5",
          "midi": 76,
          "time": 152.5560974437512,
          "velocity": 0.7480314960629921,
          "duration": 0.14285699999999224
        },
        {
          "name": "E6",
          "midi": 88,
          "time": 152.5560974437512,
          "velocity": 0.7480314960629921,
          "duration": 0.14285699999999224
        },
        {
          "name": "E7",
          "midi": 100,
          "time": 152.5560974437512,
          "velocity": 0.7480314960629921,
          "duration": 0.14285699999999224
        },
        {
          "name": "E4",
          "midi": 64,
          "time": 152.6989544437512,
          "velocity": 0.7480314960629921,
          "duration": 0.2857140000000129
        },
        {
          "name": "E5",
          "midi": 76,
          "time": 152.6989544437512,
          "velocity": 0.7480314960629921,
          "duration": 0.2857140000000129
        },
        {
          "name": "E6",
          "midi": 88,
          "time": 152.6989544437512,
          "velocity": 0.7480314960629921,
          "duration": 0.2857140000000129
        },
        {
          "name": "E7",
          "midi": 100,
          "time": 152.6989544437512,
          "velocity": 0.7480314960629921,
          "duration": 0.2857140000000129
        },
        {
          "name": "E4",
          "midi": 64,
          "time": 152.98466844375122,
          "velocity": 0.7480314960629921,
          "duration": 0.2857140000000129
        },
        {
          "name": "E5",
          "midi": 76,
          "time": 152.98466844375122,
          "velocity": 0.7480314960629921,
          "duration": 0.2857140000000129
        },
        {
          "name": "E6",
          "midi": 88,
          "time": 152.98466844375122,
          "velocity": 0.7480314960629921,
          "duration": 0.2857140000000129
        },
        {
          "name": "E7",
          "midi": 100,
          "time": 152.98466844375122,
          "velocity": 0.7480314960629921,
          "duration": 0.2857140000000129
        },
        {
          "name": "E4",
          "midi": 64,
          "time": 153.27038244375123,
          "velocity": 0.7480314960629921,
          "duration": 0.2857140000000129
        },
        {
          "name": "E5",
          "midi": 76,
          "time": 153.27038244375123,
          "velocity": 0.7480314960629921,
          "duration": 0.2857140000000129
        },
        {
          "name": "E6",
          "midi": 88,
          "time": 153.27038244375123,
          "velocity": 0.7480314960629921,
          "duration": 0.2857140000000129
        },
        {
          "name": "E7",
          "midi": 100,
          "time": 153.27038244375123,
          "velocity": 0.7480314960629921,
          "duration": 0.2857140000000129
        },
        {
          "name": "E4",
          "midi": 64,
          "time": 153.55609644375124,
          "velocity": 0.7480314960629921,
          "duration": 0.42857100000000514
        },
        {
          "name": "E5",
          "midi": 76,
          "time": 153.55609644375124,
          "velocity": 0.7480314960629921,
          "duration": 0.42857100000000514
        },
        {
          "name": "E6",
          "midi": 88,
          "time": 153.55609644375124,
          "velocity": 0.7480314960629921,
          "duration": 0.42857100000000514
        },
        {
          "name": "E7",
          "midi": 100,
          "time": 153.55609644375124,
          "velocity": 0.7480314960629921,
          "duration": 0.42857100000000514
        },
        {
          "name": "E4",
          "midi": 64,
          "time": 153.98466744375125,
          "velocity": 0.7480314960629921,
          "duration": 0.14285699999999224
        },
        {
          "name": "E5",
          "midi": 76,
          "time": 153.98466744375125,
          "velocity": 0.7480314960629921,
          "duration": 0.14285699999999224
        },
        {
          "name": "E6",
          "midi": 88,
          "time": 153.98466744375125,
          "velocity": 0.7480314960629921,
          "duration": 0.14285699999999224
        },
        {
          "name": "E7",
          "midi": 100,
          "time": 153.98466744375125,
          "velocity": 0.7480314960629921,
          "duration": 0.14285699999999224
        },
        {
          "name": "E4",
          "midi": 64,
          "time": 154.12752444375124,
          "velocity": 0.7480314960629921,
          "duration": 0.14285699999999224
        },
        {
          "name": "E5",
          "midi": 76,
          "time": 154.12752444375124,
          "velocity": 0.7480314960629921,
          "duration": 0.14285699999999224
        },
        {
          "name": "E6",
          "midi": 88,
          "time": 154.12752444375124,
          "velocity": 0.7480314960629921,
          "duration": 0.14285699999999224
        },
        {
          "name": "E7",
          "midi": 100,
          "time": 154.12752444375124,
          "velocity": 0.7480314960629921,
          "duration": 0.14285699999999224
        },
        {
          "name": "E4",
          "midi": 64,
          "time": 154.27038144375123,
          "velocity": 0.7480314960629921,
          "duration": 0.14285699999999224
        },
        {
          "name": "E5",
          "midi": 76,
          "time": 154.27038144375123,
          "velocity": 0.7480314960629921,
          "duration": 0.14285699999999224
        },
        {
          "name": "E6",
          "midi": 88,
          "time": 154.27038144375123,
          "velocity": 0.7480314960629921,
          "duration": 0.14285699999999224
        },
        {
          "name": "E7",
          "midi": 100,
          "time": 154.27038144375123,
          "velocity": 0.7480314960629921,
          "duration": 0.14285699999999224
        },
        {
          "name": "E4",
          "midi": 64,
          "time": 154.41323844375123,
          "velocity": 0.7480314960629921,
          "duration": 0.2857140000000129
        },
        {
          "name": "E5",
          "midi": 76,
          "time": 154.41323844375123,
          "velocity": 0.7480314960629921,
          "duration": 0.2857140000000129
        },
        {
          "name": "E6",
          "midi": 88,
          "time": 154.41323844375123,
          "velocity": 0.7480314960629921,
          "duration": 0.2857140000000129
        },
        {
          "name": "E7",
          "midi": 100,
          "time": 154.41323844375123,
          "velocity": 0.7480314960629921,
          "duration": 0.2857140000000129
        },
        {
          "name": "E4",
          "midi": 64,
          "time": 154.69895244375124,
          "velocity": 0.7480314960629921,
          "duration": 0.2857140000000129
        },
        {
          "name": "E5",
          "midi": 76,
          "time": 154.69895244375124,
          "velocity": 0.7480314960629921,
          "duration": 0.2857140000000129
        },
        {
          "name": "E6",
          "midi": 88,
          "time": 154.69895244375124,
          "velocity": 0.7480314960629921,
          "duration": 0.2857140000000129
        },
        {
          "name": "E7",
          "midi": 100,
          "time": 154.69895244375124,
          "velocity": 0.7480314960629921,
          "duration": 0.2857140000000129
        },
        {
          "name": "E4",
          "midi": 64,
          "time": 154.98466644375125,
          "velocity": 0.7480314960629921,
          "duration": 0.2857140000000129
        },
        {
          "name": "E5",
          "midi": 76,
          "time": 154.98466644375125,
          "velocity": 0.7480314960629921,
          "duration": 0.2857140000000129
        },
        {
          "name": "E6",
          "midi": 88,
          "time": 154.98466644375125,
          "velocity": 0.7480314960629921,
          "duration": 0.2857140000000129
        },
        {
          "name": "E7",
          "midi": 100,
          "time": 154.98466644375125,
          "velocity": 0.7480314960629921,
          "duration": 0.2857140000000129
        },
        {
          "name": "E4",
          "midi": 64,
          "time": 155.27038044375126,
          "velocity": 0.7480314960629921,
          "duration": 0.42857100000000514
        },
        {
          "name": "E5",
          "midi": 76,
          "time": 155.27038044375126,
          "velocity": 0.7480314960629921,
          "duration": 0.42857100000000514
        },
        {
          "name": "E6",
          "midi": 88,
          "time": 155.27038044375126,
          "velocity": 0.7480314960629921,
          "duration": 0.42857100000000514
        },
        {
          "name": "E7",
          "midi": 100,
          "time": 155.27038044375126,
          "velocity": 0.7480314960629921,
          "duration": 0.42857100000000514
        },
        {
          "name": "E4",
          "midi": 64,
          "time": 155.69895144375127,
          "velocity": 0.7480314960629921,
          "duration": 0.14285699999999224
        },
        {
          "name": "E5",
          "midi": 76,
          "time": 155.69895144375127,
          "velocity": 0.7480314960629921,
          "duration": 0.14285699999999224
        },
        {
          "name": "E6",
          "midi": 88,
          "time": 155.69895144375127,
          "velocity": 0.7480314960629921,
          "duration": 0.14285699999999224
        },
        {
          "name": "E7",
          "midi": 100,
          "time": 155.69895144375127,
          "velocity": 0.7480314960629921,
          "duration": 0.14285699999999224
        },
        {
          "name": "E4",
          "midi": 64,
          "time": 155.84180844375126,
          "velocity": 0.7480314960629921,
          "duration": 0.14285699999999224
        },
        {
          "name": "E5",
          "midi": 76,
          "time": 155.84180844375126,
          "velocity": 0.7480314960629921,
          "duration": 0.14285699999999224
        },
        {
          "name": "E6",
          "midi": 88,
          "time": 155.84180844375126,
          "velocity": 0.7480314960629921,
          "duration": 0.14285699999999224
        },
        {
          "name": "E7",
          "midi": 100,
          "time": 155.84180844375126,
          "velocity": 0.7480314960629921,
          "duration": 0.14285699999999224
        },
        {
          "name": "E4",
          "midi": 64,
          "time": 155.98466544375125,
          "velocity": 0.7480314960629921,
          "duration": 0.14285699999999224
        },
        {
          "name": "E5",
          "midi": 76,
          "time": 155.98466544375125,
          "velocity": 0.7480314960629921,
          "duration": 0.14285699999999224
        },
        {
          "name": "E6",
          "midi": 88,
          "time": 155.98466544375125,
          "velocity": 0.7480314960629921,
          "duration": 0.14285699999999224
        },
        {
          "name": "E7",
          "midi": 100,
          "time": 155.98466544375125,
          "velocity": 0.7480314960629921,
          "duration": 0.14285699999999224
        },
        {
          "name": "E4",
          "midi": 64,
          "time": 156.12752244375125,
          "velocity": 0.7480314960629921,
          "duration": 0.2857140000000129
        },
        {
          "name": "E5",
          "midi": 76,
          "time": 156.12752244375125,
          "velocity": 0.7480314960629921,
          "duration": 0.2857140000000129
        },
        {
          "name": "E6",
          "midi": 88,
          "time": 156.12752244375125,
          "velocity": 0.7480314960629921,
          "duration": 0.2857140000000129
        },
        {
          "name": "E7",
          "midi": 100,
          "time": 156.12752244375125,
          "velocity": 0.7480314960629921,
          "duration": 0.2857140000000129
        },
        {
          "name": "E4",
          "midi": 64,
          "time": 156.41323644375126,
          "velocity": 0.7480314960629921,
          "duration": 0.2857140000000129
        },
        {
          "name": "E5",
          "midi": 76,
          "time": 156.41323644375126,
          "velocity": 0.7480314960629921,
          "duration": 0.2857140000000129
        },
        {
          "name": "E6",
          "midi": 88,
          "time": 156.41323644375126,
          "velocity": 0.7480314960629921,
          "duration": 0.2857140000000129
        },
        {
          "name": "E7",
          "midi": 100,
          "time": 156.41323644375126,
          "velocity": 0.7480314960629921,
          "duration": 0.2857140000000129
        },
        {
          "name": "E4",
          "midi": 64,
          "time": 156.69895044375127,
          "velocity": 0.7480314960629921,
          "duration": 0.2857140000000129
        },
        {
          "name": "E5",
          "midi": 76,
          "time": 156.69895044375127,
          "velocity": 0.7480314960629921,
          "duration": 0.2857140000000129
        },
        {
          "name": "E6",
          "midi": 88,
          "time": 156.69895044375127,
          "velocity": 0.7480314960629921,
          "duration": 0.2857140000000129
        },
        {
          "name": "E7",
          "midi": 100,
          "time": 156.69895044375127,
          "velocity": 0.7480314960629921,
          "duration": 0.2857140000000129
        },
        {
          "name": "E4",
          "midi": 64,
          "time": 156.98466444375129,
          "velocity": 0.7480314960629921,
          "duration": 0.42857100000000514
        },
        {
          "name": "E5",
          "midi": 76,
          "time": 156.98466444375129,
          "velocity": 0.7480314960629921,
          "duration": 0.42857100000000514
        },
        {
          "name": "E6",
          "midi": 88,
          "time": 156.98466444375129,
          "velocity": 0.7480314960629921,
          "duration": 0.42857100000000514
        },
        {
          "name": "E7",
          "midi": 100,
          "time": 156.98466444375129,
          "velocity": 0.7480314960629921,
          "duration": 0.42857100000000514
        },
        {
          "name": "E4",
          "midi": 64,
          "time": 157.4132354437513,
          "velocity": 0.7480314960629921,
          "duration": 0.14285699999999224
        },
        {
          "name": "E5",
          "midi": 76,
          "time": 157.4132354437513,
          "velocity": 0.7480314960629921,
          "duration": 0.14285699999999224
        },
        {
          "name": "E6",
          "midi": 88,
          "time": 157.4132354437513,
          "velocity": 0.7480314960629921,
          "duration": 0.14285699999999224
        },
        {
          "name": "E7",
          "midi": 100,
          "time": 157.4132354437513,
          "velocity": 0.7480314960629921,
          "duration": 0.14285699999999224
        },
        {
          "name": "E4",
          "midi": 64,
          "time": 157.55609244375128,
          "velocity": 0.7480314960629921,
          "duration": 0.14285699999999224
        },
        {
          "name": "E5",
          "midi": 76,
          "time": 157.55609244375128,
          "velocity": 0.7480314960629921,
          "duration": 0.14285699999999224
        },
        {
          "name": "E6",
          "midi": 88,
          "time": 157.55609244375128,
          "velocity": 0.7480314960629921,
          "duration": 0.14285699999999224
        },
        {
          "name": "E7",
          "midi": 100,
          "time": 157.55609244375128,
          "velocity": 0.7480314960629921,
          "duration": 0.14285699999999224
        },
        {
          "name": "E4",
          "midi": 64,
          "time": 157.69894944375127,
          "velocity": 0.7480314960629921,
          "duration": 0.14285699999999224
        },
        {
          "name": "E5",
          "midi": 76,
          "time": 157.69894944375127,
          "velocity": 0.7480314960629921,
          "duration": 0.14285699999999224
        },
        {
          "name": "E6",
          "midi": 88,
          "time": 157.69894944375127,
          "velocity": 0.7480314960629921,
          "duration": 0.14285699999999224
        },
        {
          "name": "E7",
          "midi": 100,
          "time": 157.69894944375127,
          "velocity": 0.7480314960629921,
          "duration": 0.14285699999999224
        },
        {
          "name": "E4",
          "midi": 64,
          "time": 157.84180644375127,
          "velocity": 0.7480314960629921,
          "duration": 0.2857140000000129
        },
        {
          "name": "E5",
          "midi": 76,
          "time": 157.84180644375127,
          "velocity": 0.7480314960629921,
          "duration": 0.2857140000000129
        },
        {
          "name": "E6",
          "midi": 88,
          "time": 157.84180644375127,
          "velocity": 0.7480314960629921,
          "duration": 0.2857140000000129
        },
        {
          "name": "E7",
          "midi": 100,
          "time": 157.84180644375127,
          "velocity": 0.7480314960629921,
          "duration": 0.2857140000000129
        },
        {
          "name": "E4",
          "midi": 64,
          "time": 158.12752044375128,
          "velocity": 0.7480314960629921,
          "duration": 0.2857140000000129
        },
        {
          "name": "E5",
          "midi": 76,
          "time": 158.12752044375128,
          "velocity": 0.7480314960629921,
          "duration": 0.2857140000000129
        },
        {
          "name": "E6",
          "midi": 88,
          "time": 158.12752044375128,
          "velocity": 0.7480314960629921,
          "duration": 0.2857140000000129
        },
        {
          "name": "E7",
          "midi": 100,
          "time": 158.12752044375128,
          "velocity": 0.7480314960629921,
          "duration": 0.2857140000000129
        },
        {
          "name": "E4",
          "midi": 64,
          "time": 158.4132344437513,
          "velocity": 0.7480314960629921,
          "duration": 0.2857140000000129
        },
        {
          "name": "E5",
          "midi": 76,
          "time": 158.4132344437513,
          "velocity": 0.7480314960629921,
          "duration": 0.2857140000000129
        },
        {
          "name": "E6",
          "midi": 88,
          "time": 158.4132344437513,
          "velocity": 0.7480314960629921,
          "duration": 0.2857140000000129
        },
        {
          "name": "E7",
          "midi": 100,
          "time": 158.4132344437513,
          "velocity": 0.7480314960629921,
          "duration": 0.2857140000000129
        },
        {
          "name": "E4",
          "midi": 64,
          "time": 158.6989484437513,
          "velocity": 0.7480314960629921,
          "duration": 0.42857100000000514
        },
        {
          "name": "E5",
          "midi": 76,
          "time": 158.6989484437513,
          "velocity": 0.7480314960629921,
          "duration": 0.42857100000000514
        },
        {
          "name": "E6",
          "midi": 88,
          "time": 158.6989484437513,
          "velocity": 0.7480314960629921,
          "duration": 0.42857100000000514
        },
        {
          "name": "E7",
          "midi": 100,
          "time": 158.6989484437513,
          "velocity": 0.7480314960629921,
          "duration": 0.42857100000000514
        },
        {
          "name": "E4",
          "midi": 64,
          "time": 159.1275194437513,
          "velocity": 0.7480314960629921,
          "duration": 0.14285699999999224
        },
        {
          "name": "E5",
          "midi": 76,
          "time": 159.1275194437513,
          "velocity": 0.7480314960629921,
          "duration": 0.14285699999999224
        },
        {
          "name": "E6",
          "midi": 88,
          "time": 159.1275194437513,
          "velocity": 0.7480314960629921,
          "duration": 0.14285699999999224
        },
        {
          "name": "E7",
          "midi": 100,
          "time": 159.1275194437513,
          "velocity": 0.7480314960629921,
          "duration": 0.14285699999999224
        },
        {
          "name": "E4",
          "midi": 64,
          "time": 159.2703764437513,
          "velocity": 0.7480314960629921,
          "duration": 0.14285699999999224
        },
        {
          "name": "E5",
          "midi": 76,
          "time": 159.2703764437513,
          "velocity": 0.7480314960629921,
          "duration": 0.14285699999999224
        },
        {
          "name": "E6",
          "midi": 88,
          "time": 159.2703764437513,
          "velocity": 0.7480314960629921,
          "duration": 0.14285699999999224
        },
        {
          "name": "E7",
          "midi": 100,
          "time": 159.2703764437513,
          "velocity": 0.7480314960629921,
          "duration": 0.14285699999999224
        },
        {
          "name": "E4",
          "midi": 64,
          "time": 159.4132334437513,
          "velocity": 0.7480314960629921,
          "duration": 0.14285699999999224
        },
        {
          "name": "E5",
          "midi": 76,
          "time": 159.4132334437513,
          "velocity": 0.7480314960629921,
          "duration": 0.14285699999999224
        },
        {
          "name": "E6",
          "midi": 88,
          "time": 159.4132334437513,
          "velocity": 0.7480314960629921,
          "duration": 0.14285699999999224
        },
        {
          "name": "E7",
          "midi": 100,
          "time": 159.4132334437513,
          "velocity": 0.7480314960629921,
          "duration": 0.14285699999999224
        },
        {
          "name": "E4",
          "midi": 64,
          "time": 159.5560904437513,
          "velocity": 0.7480314960629921,
          "duration": 0.14285699999999224
        },
        {
          "name": "E5",
          "midi": 76,
          "time": 159.5560904437513,
          "velocity": 0.7480314960629921,
          "duration": 0.14285699999999224
        },
        {
          "name": "E6",
          "midi": 88,
          "time": 159.5560904437513,
          "velocity": 0.7480314960629921,
          "duration": 0.14285699999999224
        },
        {
          "name": "E7",
          "midi": 100,
          "time": 159.5560904437513,
          "velocity": 0.7480314960629921,
          "duration": 0.14285699999999224
        },
        {
          "name": "E4",
          "midi": 64,
          "time": 159.84180444375127,
          "velocity": 0.7480314960629921,
          "duration": 0.14285699999999224
        },
        {
          "name": "E5",
          "midi": 76,
          "time": 159.84180444375127,
          "velocity": 0.7480314960629921,
          "duration": 0.14285699999999224
        },
        {
          "name": "E6",
          "midi": 88,
          "time": 159.84180444375127,
          "velocity": 0.7480314960629921,
          "duration": 0.14285699999999224
        },
        {
          "name": "E7",
          "midi": 100,
          "time": 159.84180444375127,
          "velocity": 0.7480314960629921,
          "duration": 0.14285699999999224
        },
        {
          "name": "E4",
          "midi": 64,
          "time": 160.12751844375126,
          "velocity": 0.7480314960629921,
          "duration": 0.14285699999999224
        },
        {
          "name": "E5",
          "midi": 76,
          "time": 160.12751844375126,
          "velocity": 0.7480314960629921,
          "duration": 0.14285699999999224
        },
        {
          "name": "E6",
          "midi": 88,
          "time": 160.12751844375126,
          "velocity": 0.7480314960629921,
          "duration": 0.14285699999999224
        },
        {
          "name": "E7",
          "midi": 100,
          "time": 160.12751844375126,
          "velocity": 0.7480314960629921,
          "duration": 0.14285699999999224
        },
        {
          "name": "E4",
          "midi": 64,
          "time": 160.41323244375124,
          "velocity": 0.7480314960629921,
          "duration": 0.42857100000000514
        },
        {
          "name": "E5",
          "midi": 76,
          "time": 160.41323244375124,
          "velocity": 0.7480314960629921,
          "duration": 0.42857100000000514
        },
        {
          "name": "E6",
          "midi": 88,
          "time": 160.41323244375124,
          "velocity": 0.7480314960629921,
          "duration": 0.42857100000000514
        },
        {
          "name": "E7",
          "midi": 100,
          "time": 160.41323244375124,
          "velocity": 0.7480314960629921,
          "duration": 0.42857100000000514
        },
        {
          "name": "E4",
          "midi": 64,
          "time": 160.84180344375125,
          "velocity": 0.7480314960629921,
          "duration": 0.14285699999999224
        },
        {
          "name": "E5",
          "midi": 76,
          "time": 160.84180344375125,
          "velocity": 0.7480314960629921,
          "duration": 0.14285699999999224
        },
        {
          "name": "E6",
          "midi": 88,
          "time": 160.84180344375125,
          "velocity": 0.7480314960629921,
          "duration": 0.14285699999999224
        },
        {
          "name": "E7",
          "midi": 100,
          "time": 160.84180344375125,
          "velocity": 0.7480314960629921,
          "duration": 0.14285699999999224
        },
        {
          "name": "E4",
          "midi": 64,
          "time": 160.98466044375124,
          "velocity": 0.7480314960629921,
          "duration": 0.14285699999999224
        },
        {
          "name": "E5",
          "midi": 76,
          "time": 160.98466044375124,
          "velocity": 0.7480314960629921,
          "duration": 0.14285699999999224
        },
        {
          "name": "E6",
          "midi": 88,
          "time": 160.98466044375124,
          "velocity": 0.7480314960629921,
          "duration": 0.14285699999999224
        },
        {
          "name": "E7",
          "midi": 100,
          "time": 160.98466044375124,
          "velocity": 0.7480314960629921,
          "duration": 0.14285699999999224
        },
        {
          "name": "E4",
          "midi": 64,
          "time": 161.12751744375123,
          "velocity": 0.7480314960629921,
          "duration": 0.14285699999999224
        },
        {
          "name": "E5",
          "midi": 76,
          "time": 161.12751744375123,
          "velocity": 0.7480314960629921,
          "duration": 0.14285699999999224
        },
        {
          "name": "E6",
          "midi": 88,
          "time": 161.12751744375123,
          "velocity": 0.7480314960629921,
          "duration": 0.14285699999999224
        },
        {
          "name": "E7",
          "midi": 100,
          "time": 161.12751744375123,
          "velocity": 0.7480314960629921,
          "duration": 0.14285699999999224
        },
        {
          "name": "E4",
          "midi": 64,
          "time": 161.27037444375122,
          "velocity": 0.7480314960629921,
          "duration": 0.2857140000000129
        },
        {
          "name": "E5",
          "midi": 76,
          "time": 161.27037444375122,
          "velocity": 0.7480314960629921,
          "duration": 0.2857140000000129
        },
        {
          "name": "E6",
          "midi": 88,
          "time": 161.27037444375122,
          "velocity": 0.7480314960629921,
          "duration": 0.2857140000000129
        },
        {
          "name": "E7",
          "midi": 100,
          "time": 161.27037444375122,
          "velocity": 0.7480314960629921,
          "duration": 0.2857140000000129
        },
        {
          "name": "E4",
          "midi": 64,
          "time": 161.55608844375124,
          "velocity": 0.7480314960629921,
          "duration": 0.2857140000000129
        },
        {
          "name": "E5",
          "midi": 76,
          "time": 161.55608844375124,
          "velocity": 0.7480314960629921,
          "duration": 0.2857140000000129
        },
        {
          "name": "E6",
          "midi": 88,
          "time": 161.55608844375124,
          "velocity": 0.7480314960629921,
          "duration": 0.2857140000000129
        },
        {
          "name": "E7",
          "midi": 100,
          "time": 161.55608844375124,
          "velocity": 0.7480314960629921,
          "duration": 0.2857140000000129
        },
        {
          "name": "E4",
          "midi": 64,
          "time": 161.84180244375125,
          "velocity": 0.7480314960629921,
          "duration": 0.2857140000000129
        },
        {
          "name": "E5",
          "midi": 76,
          "time": 161.84180244375125,
          "velocity": 0.7480314960629921,
          "duration": 0.2857140000000129
        },
        {
          "name": "E6",
          "midi": 88,
          "time": 161.84180244375125,
          "velocity": 0.7480314960629921,
          "duration": 0.2857140000000129
        },
        {
          "name": "E7",
          "midi": 100,
          "time": 161.84180244375125,
          "velocity": 0.7480314960629921,
          "duration": 0.2857140000000129
        },
        {
          "name": "E4",
          "midi": 64,
          "time": 162.12751644375126,
          "velocity": 0.7480314960629921,
          "duration": 0.42857100000000514
        },
        {
          "name": "E5",
          "midi": 76,
          "time": 162.12751644375126,
          "velocity": 0.7480314960629921,
          "duration": 0.42857100000000514
        },
        {
          "name": "E6",
          "midi": 88,
          "time": 162.12751644375126,
          "velocity": 0.7480314960629921,
          "duration": 0.42857100000000514
        },
        {
          "name": "E7",
          "midi": 100,
          "time": 162.12751644375126,
          "velocity": 0.7480314960629921,
          "duration": 0.42857100000000514
        },
        {
          "name": "E4",
          "midi": 64,
          "time": 162.55608744375127,
          "velocity": 0.7480314960629921,
          "duration": 0.14285699999999224
        },
        {
          "name": "E5",
          "midi": 76,
          "time": 162.55608744375127,
          "velocity": 0.7480314960629921,
          "duration": 0.14285699999999224
        },
        {
          "name": "E6",
          "midi": 88,
          "time": 162.55608744375127,
          "velocity": 0.7480314960629921,
          "duration": 0.14285699999999224
        },
        {
          "name": "E7",
          "midi": 100,
          "time": 162.55608744375127,
          "velocity": 0.7480314960629921,
          "duration": 0.14285699999999224
        },
        {
          "name": "E4",
          "midi": 64,
          "time": 162.69894444375126,
          "velocity": 0.7480314960629921,
          "duration": 0.14285699999999224
        },
        {
          "name": "E5",
          "midi": 76,
          "time": 162.69894444375126,
          "velocity": 0.7480314960629921,
          "duration": 0.14285699999999224
        },
        {
          "name": "E6",
          "midi": 88,
          "time": 162.69894444375126,
          "velocity": 0.7480314960629921,
          "duration": 0.14285699999999224
        },
        {
          "name": "E7",
          "midi": 100,
          "time": 162.69894444375126,
          "velocity": 0.7480314960629921,
          "duration": 0.14285699999999224
        },
        {
          "name": "E4",
          "midi": 64,
          "time": 162.84180144375125,
          "velocity": 0.7480314960629921,
          "duration": 0.14285699999999224
        },
        {
          "name": "E5",
          "midi": 76,
          "time": 162.84180144375125,
          "velocity": 0.7480314960629921,
          "duration": 0.14285699999999224
        },
        {
          "name": "E6",
          "midi": 88,
          "time": 162.84180144375125,
          "velocity": 0.7480314960629921,
          "duration": 0.14285699999999224
        },
        {
          "name": "E7",
          "midi": 100,
          "time": 162.84180144375125,
          "velocity": 0.7480314960629921,
          "duration": 0.14285699999999224
        },
        {
          "name": "E4",
          "midi": 64,
          "time": 162.98465844375124,
          "velocity": 0.7480314960629921,
          "duration": 0.2857140000000129
        },
        {
          "name": "E5",
          "midi": 76,
          "time": 162.98465844375124,
          "velocity": 0.7480314960629921,
          "duration": 0.2857140000000129
        },
        {
          "name": "E6",
          "midi": 88,
          "time": 162.98465844375124,
          "velocity": 0.7480314960629921,
          "duration": 0.2857140000000129
        },
        {
          "name": "E7",
          "midi": 100,
          "time": 162.98465844375124,
          "velocity": 0.7480314960629921,
          "duration": 0.2857140000000129
        },
        {
          "name": "E4",
          "midi": 64,
          "time": 163.27037244375126,
          "velocity": 0.7480314960629921,
          "duration": 0.2857140000000129
        },
        {
          "name": "E5",
          "midi": 76,
          "time": 163.27037244375126,
          "velocity": 0.7480314960629921,
          "duration": 0.2857140000000129
        },
        {
          "name": "E6",
          "midi": 88,
          "time": 163.27037244375126,
          "velocity": 0.7480314960629921,
          "duration": 0.2857140000000129
        },
        {
          "name": "E7",
          "midi": 100,
          "time": 163.27037244375126,
          "velocity": 0.7480314960629921,
          "duration": 0.2857140000000129
        },
        {
          "name": "E4",
          "midi": 64,
          "time": 163.55608644375127,
          "velocity": 0.7480314960629921,
          "duration": 0.2857140000000129
        },
        {
          "name": "E5",
          "midi": 76,
          "time": 163.55608644375127,
          "velocity": 0.7480314960629921,
          "duration": 0.2857140000000129
        },
        {
          "name": "E6",
          "midi": 88,
          "time": 163.55608644375127,
          "velocity": 0.7480314960629921,
          "duration": 0.2857140000000129
        },
        {
          "name": "E7",
          "midi": 100,
          "time": 163.55608644375127,
          "velocity": 0.7480314960629921,
          "duration": 0.2857140000000129
        },
        {
          "name": "E4",
          "midi": 64,
          "time": 163.84180044375128,
          "velocity": 0.7480314960629921,
          "duration": 0.42857100000000514
        },
        {
          "name": "E5",
          "midi": 76,
          "time": 163.84180044375128,
          "velocity": 0.7480314960629921,
          "duration": 0.42857100000000514
        },
        {
          "name": "E6",
          "midi": 88,
          "time": 163.84180044375128,
          "velocity": 0.7480314960629921,
          "duration": 0.42857100000000514
        },
        {
          "name": "E7",
          "midi": 100,
          "time": 163.84180044375128,
          "velocity": 0.7480314960629921,
          "duration": 0.42857100000000514
        },
        {
          "name": "E4",
          "midi": 64,
          "time": 164.2703714437513,
          "velocity": 0.7480314960629921,
          "duration": 0.42857100000000514
        },
        {
          "name": "E5",
          "midi": 76,
          "time": 164.2703714437513,
          "velocity": 0.7480314960629921,
          "duration": 0.42857100000000514
        },
        {
          "name": "E6",
          "midi": 88,
          "time": 164.2703714437513,
          "velocity": 0.7480314960629921,
          "duration": 0.42857100000000514
        },
        {
          "name": "E7",
          "midi": 100,
          "time": 164.2703714437513,
          "velocity": 0.7480314960629921,
          "duration": 0.42857100000000514
        },
        {
          "name": "E4",
          "midi": 64,
          "time": 164.6989424437513,
          "velocity": 0.7480314960629921,
          "duration": 0.2857140000000129
        },
        {
          "name": "E5",
          "midi": 76,
          "time": 164.6989424437513,
          "velocity": 0.7480314960629921,
          "duration": 0.2857140000000129
        },
        {
          "name": "E6",
          "midi": 88,
          "time": 164.6989424437513,
          "velocity": 0.7480314960629921,
          "duration": 0.2857140000000129
        },
        {
          "name": "E7",
          "midi": 100,
          "time": 164.6989424437513,
          "velocity": 0.7480314960629921,
          "duration": 0.2857140000000129
        },
        {
          "name": "E4",
          "midi": 64,
          "time": 164.9846564437513,
          "velocity": 0.7480314960629921,
          "duration": 0.2857140000000129
        },
        {
          "name": "E5",
          "midi": 76,
          "time": 164.9846564437513,
          "velocity": 0.7480314960629921,
          "duration": 0.2857140000000129
        },
        {
          "name": "E6",
          "midi": 88,
          "time": 164.9846564437513,
          "velocity": 0.7480314960629921,
          "duration": 0.2857140000000129
        },
        {
          "name": "E7",
          "midi": 100,
          "time": 164.9846564437513,
          "velocity": 0.7480314960629921,
          "duration": 0.2857140000000129
        },
        {
          "name": "E4",
          "midi": 64,
          "time": 165.27037044375132,
          "velocity": 0.7480314960629921,
          "duration": 0.2857140000000129
        },
        {
          "name": "E5",
          "midi": 76,
          "time": 165.27037044375132,
          "velocity": 0.7480314960629921,
          "duration": 0.2857140000000129
        },
        {
          "name": "E6",
          "midi": 88,
          "time": 165.27037044375132,
          "velocity": 0.7480314960629921,
          "duration": 0.2857140000000129
        },
        {
          "name": "E7",
          "midi": 100,
          "time": 165.27037044375132,
          "velocity": 0.7480314960629921,
          "duration": 0.2857140000000129
        },
        {
          "name": "E4",
          "midi": 64,
          "time": 165.55608444375133,
          "velocity": 0.7480314960629921,
          "duration": 0.42857100000000514
        },
        {
          "name": "E5",
          "midi": 76,
          "time": 165.55608444375133,
          "velocity": 0.7480314960629921,
          "duration": 0.42857100000000514
        },
        {
          "name": "E6",
          "midi": 88,
          "time": 165.55608444375133,
          "velocity": 0.7480314960629921,
          "duration": 0.42857100000000514
        },
        {
          "name": "E7",
          "midi": 100,
          "time": 165.55608444375133,
          "velocity": 0.7480314960629921,
          "duration": 0.42857100000000514
        },
        {
          "name": "E4",
          "midi": 64,
          "time": 165.98465544375134,
          "velocity": 0.7480314960629921,
          "duration": 0.14285699999999224
        },
        {
          "name": "E5",
          "midi": 76,
          "time": 165.98465544375134,
          "velocity": 0.7480314960629921,
          "duration": 0.14285699999999224
        },
        {
          "name": "E6",
          "midi": 88,
          "time": 165.98465544375134,
          "velocity": 0.7480314960629921,
          "duration": 0.14285699999999224
        },
        {
          "name": "E7",
          "midi": 100,
          "time": 165.98465544375134,
          "velocity": 0.7480314960629921,
          "duration": 0.14285699999999224
        },
        {
          "name": "E4",
          "midi": 64,
          "time": 166.12751244375133,
          "velocity": 0.7480314960629921,
          "duration": 0.14285699999999224
        },
        {
          "name": "E5",
          "midi": 76,
          "time": 166.12751244375133,
          "velocity": 0.7480314960629921,
          "duration": 0.14285699999999224
        },
        {
          "name": "E6",
          "midi": 88,
          "time": 166.12751244375133,
          "velocity": 0.7480314960629921,
          "duration": 0.14285699999999224
        },
        {
          "name": "E7",
          "midi": 100,
          "time": 166.12751244375133,
          "velocity": 0.7480314960629921,
          "duration": 0.14285699999999224
        },
        {
          "name": "E4",
          "midi": 64,
          "time": 166.27036944375132,
          "velocity": 0.7480314960629921,
          "duration": 0.14285699999999224
        },
        {
          "name": "E5",
          "midi": 76,
          "time": 166.27036944375132,
          "velocity": 0.7480314960629921,
          "duration": 0.14285699999999224
        },
        {
          "name": "E6",
          "midi": 88,
          "time": 166.27036944375132,
          "velocity": 0.7480314960629921,
          "duration": 0.14285699999999224
        },
        {
          "name": "E7",
          "midi": 100,
          "time": 166.27036944375132,
          "velocity": 0.7480314960629921,
          "duration": 0.14285699999999224
        },
        {
          "name": "E4",
          "midi": 64,
          "time": 166.4132264437513,
          "velocity": 0.7480314960629921,
          "duration": 0.2857140000000129
        },
        {
          "name": "E5",
          "midi": 76,
          "time": 166.4132264437513,
          "velocity": 0.7480314960629921,
          "duration": 0.2857140000000129
        },
        {
          "name": "E6",
          "midi": 88,
          "time": 166.4132264437513,
          "velocity": 0.7480314960629921,
          "duration": 0.2857140000000129
        },
        {
          "name": "E7",
          "midi": 100,
          "time": 166.4132264437513,
          "velocity": 0.7480314960629921,
          "duration": 0.2857140000000129
        },
        {
          "name": "E4",
          "midi": 64,
          "time": 166.69894044375133,
          "velocity": 0.7480314960629921,
          "duration": 0.2857140000000129
        },
        {
          "name": "E5",
          "midi": 76,
          "time": 166.69894044375133,
          "velocity": 0.7480314960629921,
          "duration": 0.2857140000000129
        },
        {
          "name": "E6",
          "midi": 88,
          "time": 166.69894044375133,
          "velocity": 0.7480314960629921,
          "duration": 0.2857140000000129
        },
        {
          "name": "E7",
          "midi": 100,
          "time": 166.69894044375133,
          "velocity": 0.7480314960629921,
          "duration": 0.2857140000000129
        },
        {
          "name": "E4",
          "midi": 64,
          "time": 166.98465444375134,
          "velocity": 0.7480314960629921,
          "duration": 0.2857140000000129
        },
        {
          "name": "E5",
          "midi": 76,
          "time": 166.98465444375134,
          "velocity": 0.7480314960629921,
          "duration": 0.2857140000000129
        },
        {
          "name": "E6",
          "midi": 88,
          "time": 166.98465444375134,
          "velocity": 0.7480314960629921,
          "duration": 0.2857140000000129
        },
        {
          "name": "E7",
          "midi": 100,
          "time": 166.98465444375134,
          "velocity": 0.7480314960629921,
          "duration": 0.2857140000000129
        },
        {
          "name": "E4",
          "midi": 64,
          "time": 167.27036844375135,
          "velocity": 0.7480314960629921,
          "duration": 0.42857100000000514
        },
        {
          "name": "E5",
          "midi": 76,
          "time": 167.27036844375135,
          "velocity": 0.7480314960629921,
          "duration": 0.42857100000000514
        },
        {
          "name": "E6",
          "midi": 88,
          "time": 167.27036844375135,
          "velocity": 0.7480314960629921,
          "duration": 0.42857100000000514
        },
        {
          "name": "E7",
          "midi": 100,
          "time": 167.27036844375135,
          "velocity": 0.7480314960629921,
          "duration": 0.42857100000000514
        },
        {
          "name": "E4",
          "midi": 64,
          "time": 167.69893944375136,
          "velocity": 0.7480314960629921,
          "duration": 0.14285699999999224
        },
        {
          "name": "E5",
          "midi": 76,
          "time": 167.69893944375136,
          "velocity": 0.7480314960629921,
          "duration": 0.14285699999999224
        },
        {
          "name": "E6",
          "midi": 88,
          "time": 167.69893944375136,
          "velocity": 0.7480314960629921,
          "duration": 0.14285699999999224
        },
        {
          "name": "E7",
          "midi": 100,
          "time": 167.69893944375136,
          "velocity": 0.7480314960629921,
          "duration": 0.14285699999999224
        },
        {
          "name": "E4",
          "midi": 64,
          "time": 167.84179644375135,
          "velocity": 0.7480314960629921,
          "duration": 0.14285699999999224
        },
        {
          "name": "E5",
          "midi": 76,
          "time": 167.84179644375135,
          "velocity": 0.7480314960629921,
          "duration": 0.14285699999999224
        },
        {
          "name": "E6",
          "midi": 88,
          "time": 167.84179644375135,
          "velocity": 0.7480314960629921,
          "duration": 0.14285699999999224
        },
        {
          "name": "E7",
          "midi": 100,
          "time": 167.84179644375135,
          "velocity": 0.7480314960629921,
          "duration": 0.14285699999999224
        },
        {
          "name": "E4",
          "midi": 64,
          "time": 167.98465344375134,
          "velocity": 0.7480314960629921,
          "duration": 0.14285699999999224
        },
        {
          "name": "E5",
          "midi": 76,
          "time": 167.98465344375134,
          "velocity": 0.7480314960629921,
          "duration": 0.14285699999999224
        },
        {
          "name": "E6",
          "midi": 88,
          "time": 167.98465344375134,
          "velocity": 0.7480314960629921,
          "duration": 0.14285699999999224
        },
        {
          "name": "E7",
          "midi": 100,
          "time": 167.98465344375134,
          "velocity": 0.7480314960629921,
          "duration": 0.14285699999999224
        },
        {
          "name": "E4",
          "midi": 64,
          "time": 168.12751044375133,
          "velocity": 0.7480314960629921,
          "duration": 0.2857140000000129
        },
        {
          "name": "E5",
          "midi": 76,
          "time": 168.12751044375133,
          "velocity": 0.7480314960629921,
          "duration": 0.2857140000000129
        },
        {
          "name": "E6",
          "midi": 88,
          "time": 168.12751044375133,
          "velocity": 0.7480314960629921,
          "duration": 0.2857140000000129
        },
        {
          "name": "E7",
          "midi": 100,
          "time": 168.12751044375133,
          "velocity": 0.7480314960629921,
          "duration": 0.2857140000000129
        },
        {
          "name": "E4",
          "midi": 64,
          "time": 168.41322444375135,
          "velocity": 0.7480314960629921,
          "duration": 0.2857140000000129
        },
        {
          "name": "E5",
          "midi": 76,
          "time": 168.41322444375135,
          "velocity": 0.7480314960629921,
          "duration": 0.2857140000000129
        },
        {
          "name": "E6",
          "midi": 88,
          "time": 168.41322444375135,
          "velocity": 0.7480314960629921,
          "duration": 0.2857140000000129
        },
        {
          "name": "E7",
          "midi": 100,
          "time": 168.41322444375135,
          "velocity": 0.7480314960629921,
          "duration": 0.2857140000000129
        },
        {
          "name": "E4",
          "midi": 64,
          "time": 168.69893844375136,
          "velocity": 0.7480314960629921,
          "duration": 0.2857140000000129
        },
        {
          "name": "E5",
          "midi": 76,
          "time": 168.69893844375136,
          "velocity": 0.7480314960629921,
          "duration": 0.2857140000000129
        },
        {
          "name": "E6",
          "midi": 88,
          "time": 168.69893844375136,
          "velocity": 0.7480314960629921,
          "duration": 0.2857140000000129
        },
        {
          "name": "E7",
          "midi": 100,
          "time": 168.69893844375136,
          "velocity": 0.7480314960629921,
          "duration": 0.2857140000000129
        },
        {
          "name": "E4",
          "midi": 64,
          "time": 168.98465244375137,
          "velocity": 0.7480314960629921,
          "duration": 0.42857100000000514
        },
        {
          "name": "E5",
          "midi": 76,
          "time": 168.98465244375137,
          "velocity": 0.7480314960629921,
          "duration": 0.42857100000000514
        },
        {
          "name": "E6",
          "midi": 88,
          "time": 168.98465244375137,
          "velocity": 0.7480314960629921,
          "duration": 0.42857100000000514
        },
        {
          "name": "E7",
          "midi": 100,
          "time": 168.98465244375137,
          "velocity": 0.7480314960629921,
          "duration": 0.42857100000000514
        },
        {
          "name": "E4",
          "midi": 64,
          "time": 169.41322344375138,
          "velocity": 0.7480314960629921,
          "duration": 0.14285699999999224
        },
        {
          "name": "E5",
          "midi": 76,
          "time": 169.41322344375138,
          "velocity": 0.7480314960629921,
          "duration": 0.14285699999999224
        },
        {
          "name": "E6",
          "midi": 88,
          "time": 169.41322344375138,
          "velocity": 0.7480314960629921,
          "duration": 0.14285699999999224
        },
        {
          "name": "E7",
          "midi": 100,
          "time": 169.41322344375138,
          "velocity": 0.7480314960629921,
          "duration": 0.14285699999999224
        },
        {
          "name": "E4",
          "midi": 64,
          "time": 169.55608044375137,
          "velocity": 0.7480314960629921,
          "duration": 0.14285699999999224
        },
        {
          "name": "E5",
          "midi": 76,
          "time": 169.55608044375137,
          "velocity": 0.7480314960629921,
          "duration": 0.14285699999999224
        },
        {
          "name": "E6",
          "midi": 88,
          "time": 169.55608044375137,
          "velocity": 0.7480314960629921,
          "duration": 0.14285699999999224
        },
        {
          "name": "E7",
          "midi": 100,
          "time": 169.55608044375137,
          "velocity": 0.7480314960629921,
          "duration": 0.14285699999999224
        },
        {
          "name": "E4",
          "midi": 64,
          "time": 169.69893744375136,
          "velocity": 0.7480314960629921,
          "duration": 0.14285699999999224
        },
        {
          "name": "E5",
          "midi": 76,
          "time": 169.69893744375136,
          "velocity": 0.7480314960629921,
          "duration": 0.14285699999999224
        },
        {
          "name": "E6",
          "midi": 88,
          "time": 169.69893744375136,
          "velocity": 0.7480314960629921,
          "duration": 0.14285699999999224
        },
        {
          "name": "E7",
          "midi": 100,
          "time": 169.69893744375136,
          "velocity": 0.7480314960629921,
          "duration": 0.14285699999999224
        },
        {
          "name": "E4",
          "midi": 64,
          "time": 169.84179444375135,
          "velocity": 0.7480314960629921,
          "duration": 0.2857140000000129
        },
        {
          "name": "E5",
          "midi": 76,
          "time": 169.84179444375135,
          "velocity": 0.7480314960629921,
          "duration": 0.2857140000000129
        },
        {
          "name": "E6",
          "midi": 88,
          "time": 169.84179444375135,
          "velocity": 0.7480314960629921,
          "duration": 0.2857140000000129
        },
        {
          "name": "E7",
          "midi": 100,
          "time": 169.84179444375135,
          "velocity": 0.7480314960629921,
          "duration": 0.2857140000000129
        },
        {
          "name": "E4",
          "midi": 64,
          "time": 170.12750844375137,
          "velocity": 0.7480314960629921,
          "duration": 0.2857140000000129
        },
        {
          "name": "E5",
          "midi": 76,
          "time": 170.12750844375137,
          "velocity": 0.7480314960629921,
          "duration": 0.2857140000000129
        },
        {
          "name": "E6",
          "midi": 88,
          "time": 170.12750844375137,
          "velocity": 0.7480314960629921,
          "duration": 0.2857140000000129
        },
        {
          "name": "E7",
          "midi": 100,
          "time": 170.12750844375137,
          "velocity": 0.7480314960629921,
          "duration": 0.2857140000000129
        },
        {
          "name": "E4",
          "midi": 64,
          "time": 170.41322244375138,
          "velocity": 0.7480314960629921,
          "duration": 0.2857140000000129
        },
        {
          "name": "E5",
          "midi": 76,
          "time": 170.41322244375138,
          "velocity": 0.7480314960629921,
          "duration": 0.2857140000000129
        },
        {
          "name": "E6",
          "midi": 88,
          "time": 170.41322244375138,
          "velocity": 0.7480314960629921,
          "duration": 0.2857140000000129
        },
        {
          "name": "E7",
          "midi": 100,
          "time": 170.41322244375138,
          "velocity": 0.7480314960629921,
          "duration": 0.2857140000000129
        },
        {
          "name": "E4",
          "midi": 64,
          "time": 170.6989364437514,
          "velocity": 0.7480314960629921,
          "duration": 0.42857100000000514
        },
        {
          "name": "E5",
          "midi": 76,
          "time": 170.6989364437514,
          "velocity": 0.7480314960629921,
          "duration": 0.42857100000000514
        },
        {
          "name": "E6",
          "midi": 88,
          "time": 170.6989364437514,
          "velocity": 0.7480314960629921,
          "duration": 0.42857100000000514
        },
        {
          "name": "E7",
          "midi": 100,
          "time": 170.6989364437514,
          "velocity": 0.7480314960629921,
          "duration": 0.42857100000000514
        },
        {
          "name": "E4",
          "midi": 64,
          "time": 171.1275074437514,
          "velocity": 0.7480314960629921,
          "duration": 0.14285699999999224
        },
        {
          "name": "E5",
          "midi": 76,
          "time": 171.1275074437514,
          "velocity": 0.7480314960629921,
          "duration": 0.14285699999999224
        },
        {
          "name": "E6",
          "midi": 88,
          "time": 171.1275074437514,
          "velocity": 0.7480314960629921,
          "duration": 0.14285699999999224
        },
        {
          "name": "E7",
          "midi": 100,
          "time": 171.1275074437514,
          "velocity": 0.7480314960629921,
          "duration": 0.14285699999999224
        },
        {
          "name": "E4",
          "midi": 64,
          "time": 171.2703644437514,
          "velocity": 0.7480314960629921,
          "duration": 0.14285699999999224
        },
        {
          "name": "E5",
          "midi": 76,
          "time": 171.2703644437514,
          "velocity": 0.7480314960629921,
          "duration": 0.14285699999999224
        },
        {
          "name": "E6",
          "midi": 88,
          "time": 171.2703644437514,
          "velocity": 0.7480314960629921,
          "duration": 0.14285699999999224
        },
        {
          "name": "E7",
          "midi": 100,
          "time": 171.2703644437514,
          "velocity": 0.7480314960629921,
          "duration": 0.14285699999999224
        },
        {
          "name": "E4",
          "midi": 64,
          "time": 171.41322144375138,
          "velocity": 0.7480314960629921,
          "duration": 0.14285699999999224
        },
        {
          "name": "E5",
          "midi": 76,
          "time": 171.41322144375138,
          "velocity": 0.7480314960629921,
          "duration": 0.14285699999999224
        },
        {
          "name": "E6",
          "midi": 88,
          "time": 171.41322144375138,
          "velocity": 0.7480314960629921,
          "duration": 0.14285699999999224
        },
        {
          "name": "E7",
          "midi": 100,
          "time": 171.41322144375138,
          "velocity": 0.7480314960629921,
          "duration": 0.14285699999999224
        },
        {
          "name": "E4",
          "midi": 64,
          "time": 171.55607844375137,
          "velocity": 0.7480314960629921,
          "duration": 0.2857140000000129
        },
        {
          "name": "E5",
          "midi": 76,
          "time": 171.55607844375137,
          "velocity": 0.7480314960629921,
          "duration": 0.2857140000000129
        },
        {
          "name": "E6",
          "midi": 88,
          "time": 171.55607844375137,
          "velocity": 0.7480314960629921,
          "duration": 0.2857140000000129
        },
        {
          "name": "E7",
          "midi": 100,
          "time": 171.55607844375137,
          "velocity": 0.7480314960629921,
          "duration": 0.2857140000000129
        },
        {
          "name": "E4",
          "midi": 64,
          "time": 171.8417924437514,
          "velocity": 0.7480314960629921,
          "duration": 0.2857140000000129
        },
        {
          "name": "E5",
          "midi": 76,
          "time": 171.8417924437514,
          "velocity": 0.7480314960629921,
          "duration": 0.2857140000000129
        },
        {
          "name": "E6",
          "midi": 88,
          "time": 171.8417924437514,
          "velocity": 0.7480314960629921,
          "duration": 0.2857140000000129
        },
        {
          "name": "E7",
          "midi": 100,
          "time": 171.8417924437514,
          "velocity": 0.7480314960629921,
          "duration": 0.2857140000000129
        },
        {
          "name": "E4",
          "midi": 64,
          "time": 172.1275064437514,
          "velocity": 0.7480314960629921,
          "duration": 0.2857140000000129
        },
        {
          "name": "E5",
          "midi": 76,
          "time": 172.1275064437514,
          "velocity": 0.7480314960629921,
          "duration": 0.2857140000000129
        },
        {
          "name": "E6",
          "midi": 88,
          "time": 172.1275064437514,
          "velocity": 0.7480314960629921,
          "duration": 0.2857140000000129
        },
        {
          "name": "E7",
          "midi": 100,
          "time": 172.1275064437514,
          "velocity": 0.7480314960629921,
          "duration": 0.2857140000000129
        },
        {
          "name": "E4",
          "midi": 64,
          "time": 172.4132204437514,
          "velocity": 0.7480314960629921,
          "duration": 0.42857100000000514
        },
        {
          "name": "E5",
          "midi": 76,
          "time": 172.4132204437514,
          "velocity": 0.7480314960629921,
          "duration": 0.42857100000000514
        },
        {
          "name": "E6",
          "midi": 88,
          "time": 172.4132204437514,
          "velocity": 0.7480314960629921,
          "duration": 0.42857100000000514
        },
        {
          "name": "E7",
          "midi": 100,
          "time": 172.4132204437514,
          "velocity": 0.7480314960629921,
          "duration": 0.42857100000000514
        },
        {
          "name": "E4",
          "midi": 64,
          "time": 172.84179144375142,
          "velocity": 0.7480314960629921,
          "duration": 0.14285699999999224
        },
        {
          "name": "E5",
          "midi": 76,
          "time": 172.84179144375142,
          "velocity": 0.7480314960629921,
          "duration": 0.14285699999999224
        },
        {
          "name": "E6",
          "midi": 88,
          "time": 172.84179144375142,
          "velocity": 0.7480314960629921,
          "duration": 0.14285699999999224
        },
        {
          "name": "E7",
          "midi": 100,
          "time": 172.84179144375142,
          "velocity": 0.7480314960629921,
          "duration": 0.14285699999999224
        },
        {
          "name": "E4",
          "midi": 64,
          "time": 172.9846484437514,
          "velocity": 0.7480314960629921,
          "duration": 0.14285699999999224
        },
        {
          "name": "E5",
          "midi": 76,
          "time": 172.9846484437514,
          "velocity": 0.7480314960629921,
          "duration": 0.14285699999999224
        },
        {
          "name": "E6",
          "midi": 88,
          "time": 172.9846484437514,
          "velocity": 0.7480314960629921,
          "duration": 0.14285699999999224
        },
        {
          "name": "E7",
          "midi": 100,
          "time": 172.9846484437514,
          "velocity": 0.7480314960629921,
          "duration": 0.14285699999999224
        },
        {
          "name": "E4",
          "midi": 64,
          "time": 173.1275054437514,
          "velocity": 0.7480314960629921,
          "duration": 0.14285699999999224
        },
        {
          "name": "E5",
          "midi": 76,
          "time": 173.1275054437514,
          "velocity": 0.7480314960629921,
          "duration": 0.14285699999999224
        },
        {
          "name": "E6",
          "midi": 88,
          "time": 173.1275054437514,
          "velocity": 0.7480314960629921,
          "duration": 0.14285699999999224
        },
        {
          "name": "E7",
          "midi": 100,
          "time": 173.1275054437514,
          "velocity": 0.7480314960629921,
          "duration": 0.14285699999999224
        },
        {
          "name": "E4",
          "midi": 64,
          "time": 173.2703624437514,
          "velocity": 0.7480314960629921,
          "duration": 0.14285699999999224
        },
        {
          "name": "E5",
          "midi": 76,
          "time": 173.2703624437514,
          "velocity": 0.7480314960629921,
          "duration": 0.14285699999999224
        },
        {
          "name": "E6",
          "midi": 88,
          "time": 173.2703624437514,
          "velocity": 0.7480314960629921,
          "duration": 0.14285699999999224
        },
        {
          "name": "E7",
          "midi": 100,
          "time": 173.2703624437514,
          "velocity": 0.7480314960629921,
          "duration": 0.14285699999999224
        },
        {
          "name": "E4",
          "midi": 64,
          "time": 173.55607644375138,
          "velocity": 0.7480314960629921,
          "duration": 0.14285699999999224
        },
        {
          "name": "E5",
          "midi": 76,
          "time": 173.55607644375138,
          "velocity": 0.7480314960629921,
          "duration": 0.14285699999999224
        },
        {
          "name": "E6",
          "midi": 88,
          "time": 173.55607644375138,
          "velocity": 0.7480314960629921,
          "duration": 0.14285699999999224
        },
        {
          "name": "E7",
          "midi": 100,
          "time": 173.55607644375138,
          "velocity": 0.7480314960629921,
          "duration": 0.14285699999999224
        },
        {
          "name": "E4",
          "midi": 64,
          "time": 173.84179044375136,
          "velocity": 0.7480314960629921,
          "duration": 0.14285699999999224
        },
        {
          "name": "E5",
          "midi": 76,
          "time": 173.84179044375136,
          "velocity": 0.7480314960629921,
          "duration": 0.14285699999999224
        },
        {
          "name": "E6",
          "midi": 88,
          "time": 173.84179044375136,
          "velocity": 0.7480314960629921,
          "duration": 0.14285699999999224
        },
        {
          "name": "E7",
          "midi": 100,
          "time": 173.84179044375136,
          "velocity": 0.7480314960629921,
          "duration": 0.14285699999999224
        },
        {
          "name": "E4",
          "midi": 64,
          "time": 174.12750444375135,
          "velocity": 0.7480314960629921,
          "duration": 0.42857100000000514
        },
        {
          "name": "E5",
          "midi": 76,
          "time": 174.12750444375135,
          "velocity": 0.7480314960629921,
          "duration": 0.42857100000000514
        },
        {
          "name": "E6",
          "midi": 88,
          "time": 174.12750444375135,
          "velocity": 0.7480314960629921,
          "duration": 0.42857100000000514
        },
        {
          "name": "E7",
          "midi": 100,
          "time": 174.12750444375135,
          "velocity": 0.7480314960629921,
          "duration": 0.42857100000000514
        },
        {
          "name": "E4",
          "midi": 64,
          "time": 174.55607544375135,
          "velocity": 0.7480314960629921,
          "duration": 0.14285699999999224
        },
        {
          "name": "E5",
          "midi": 76,
          "time": 174.55607544375135,
          "velocity": 0.7480314960629921,
          "duration": 0.14285699999999224
        },
        {
          "name": "E6",
          "midi": 88,
          "time": 174.55607544375135,
          "velocity": 0.7480314960629921,
          "duration": 0.14285699999999224
        },
        {
          "name": "E7",
          "midi": 100,
          "time": 174.55607544375135,
          "velocity": 0.7480314960629921,
          "duration": 0.14285699999999224
        },
        {
          "name": "E4",
          "midi": 64,
          "time": 174.69893244375135,
          "velocity": 0.7480314960629921,
          "duration": 0.14285699999999224
        },
        {
          "name": "E5",
          "midi": 76,
          "time": 174.69893244375135,
          "velocity": 0.7480314960629921,
          "duration": 0.14285699999999224
        },
        {
          "name": "E6",
          "midi": 88,
          "time": 174.69893244375135,
          "velocity": 0.7480314960629921,
          "duration": 0.14285699999999224
        },
        {
          "name": "E7",
          "midi": 100,
          "time": 174.69893244375135,
          "velocity": 0.7480314960629921,
          "duration": 0.14285699999999224
        },
        {
          "name": "E4",
          "midi": 64,
          "time": 174.84178944375134,
          "velocity": 0.7480314960629921,
          "duration": 0.14285699999999224
        },
        {
          "name": "E5",
          "midi": 76,
          "time": 174.84178944375134,
          "velocity": 0.7480314960629921,
          "duration": 0.14285699999999224
        },
        {
          "name": "E6",
          "midi": 88,
          "time": 174.84178944375134,
          "velocity": 0.7480314960629921,
          "duration": 0.14285699999999224
        },
        {
          "name": "E7",
          "midi": 100,
          "time": 174.84178944375134,
          "velocity": 0.7480314960629921,
          "duration": 0.14285699999999224
        },
        {
          "name": "E4",
          "midi": 64,
          "time": 174.98464644375133,
          "velocity": 0.7480314960629921,
          "duration": 0.2857140000000129
        },
        {
          "name": "E5",
          "midi": 76,
          "time": 174.98464644375133,
          "velocity": 0.7480314960629921,
          "duration": 0.2857140000000129
        },
        {
          "name": "E6",
          "midi": 88,
          "time": 174.98464644375133,
          "velocity": 0.7480314960629921,
          "duration": 0.2857140000000129
        },
        {
          "name": "E7",
          "midi": 100,
          "time": 174.98464644375133,
          "velocity": 0.7480314960629921,
          "duration": 0.2857140000000129
        },
        {
          "name": "E4",
          "midi": 64,
          "time": 175.27036044375134,
          "velocity": 0.7480314960629921,
          "duration": 0.2857140000000129
        },
        {
          "name": "E5",
          "midi": 76,
          "time": 175.27036044375134,
          "velocity": 0.7480314960629921,
          "duration": 0.2857140000000129
        },
        {
          "name": "E6",
          "midi": 88,
          "time": 175.27036044375134,
          "velocity": 0.7480314960629921,
          "duration": 0.2857140000000129
        },
        {
          "name": "E7",
          "midi": 100,
          "time": 175.27036044375134,
          "velocity": 0.7480314960629921,
          "duration": 0.2857140000000129
        },
        {
          "name": "E4",
          "midi": 64,
          "time": 175.55607444375136,
          "velocity": 0.7480314960629921,
          "duration": 0.2857140000000129
        },
        {
          "name": "E5",
          "midi": 76,
          "time": 175.55607444375136,
          "velocity": 0.7480314960629921,
          "duration": 0.2857140000000129
        },
        {
          "name": "E6",
          "midi": 88,
          "time": 175.55607444375136,
          "velocity": 0.7480314960629921,
          "duration": 0.2857140000000129
        },
        {
          "name": "E7",
          "midi": 100,
          "time": 175.55607444375136,
          "velocity": 0.7480314960629921,
          "duration": 0.2857140000000129
        },
        {
          "name": "E4",
          "midi": 64,
          "time": 175.84178844375137,
          "velocity": 0.7480314960629921,
          "duration": 0.42857100000000514
        },
        {
          "name": "E5",
          "midi": 76,
          "time": 175.84178844375137,
          "velocity": 0.7480314960629921,
          "duration": 0.42857100000000514
        },
        {
          "name": "E6",
          "midi": 88,
          "time": 175.84178844375137,
          "velocity": 0.7480314960629921,
          "duration": 0.42857100000000514
        },
        {
          "name": "E7",
          "midi": 100,
          "time": 175.84178844375137,
          "velocity": 0.7480314960629921,
          "duration": 0.42857100000000514
        },
        {
          "name": "E4",
          "midi": 64,
          "time": 176.27035944375137,
          "velocity": 0.7480314960629921,
          "duration": 0.14285699999999224
        },
        {
          "name": "E5",
          "midi": 76,
          "time": 176.27035944375137,
          "velocity": 0.7480314960629921,
          "duration": 0.14285699999999224
        },
        {
          "name": "E6",
          "midi": 88,
          "time": 176.27035944375137,
          "velocity": 0.7480314960629921,
          "duration": 0.14285699999999224
        },
        {
          "name": "E7",
          "midi": 100,
          "time": 176.27035944375137,
          "velocity": 0.7480314960629921,
          "duration": 0.14285699999999224
        },
        {
          "name": "E4",
          "midi": 64,
          "time": 176.41321644375137,
          "velocity": 0.7480314960629921,
          "duration": 0.14285699999999224
        },
        {
          "name": "E5",
          "midi": 76,
          "time": 176.41321644375137,
          "velocity": 0.7480314960629921,
          "duration": 0.14285699999999224
        },
        {
          "name": "E6",
          "midi": 88,
          "time": 176.41321644375137,
          "velocity": 0.7480314960629921,
          "duration": 0.14285699999999224
        },
        {
          "name": "E7",
          "midi": 100,
          "time": 176.41321644375137,
          "velocity": 0.7480314960629921,
          "duration": 0.14285699999999224
        },
        {
          "name": "E4",
          "midi": 64,
          "time": 176.55607344375136,
          "velocity": 0.7480314960629921,
          "duration": 0.14285699999999224
        },
        {
          "name": "E5",
          "midi": 76,
          "time": 176.55607344375136,
          "velocity": 0.7480314960629921,
          "duration": 0.14285699999999224
        },
        {
          "name": "E6",
          "midi": 88,
          "time": 176.55607344375136,
          "velocity": 0.7480314960629921,
          "duration": 0.14285699999999224
        },
        {
          "name": "E7",
          "midi": 100,
          "time": 176.55607344375136,
          "velocity": 0.7480314960629921,
          "duration": 0.14285699999999224
        },
        {
          "name": "E4",
          "midi": 64,
          "time": 176.69893044375135,
          "velocity": 0.7480314960629921,
          "duration": 0.2857140000000129
        },
        {
          "name": "E5",
          "midi": 76,
          "time": 176.69893044375135,
          "velocity": 0.7480314960629921,
          "duration": 0.2857140000000129
        },
        {
          "name": "E6",
          "midi": 88,
          "time": 176.69893044375135,
          "velocity": 0.7480314960629921,
          "duration": 0.2857140000000129
        },
        {
          "name": "E7",
          "midi": 100,
          "time": 176.69893044375135,
          "velocity": 0.7480314960629921,
          "duration": 0.2857140000000129
        },
        {
          "name": "E4",
          "midi": 64,
          "time": 176.98464444375136,
          "velocity": 0.7480314960629921,
          "duration": 0.2857140000000129
        },
        {
          "name": "E5",
          "midi": 76,
          "time": 176.98464444375136,
          "velocity": 0.7480314960629921,
          "duration": 0.2857140000000129
        },
        {
          "name": "E6",
          "midi": 88,
          "time": 176.98464444375136,
          "velocity": 0.7480314960629921,
          "duration": 0.2857140000000129
        },
        {
          "name": "E7",
          "midi": 100,
          "time": 176.98464444375136,
          "velocity": 0.7480314960629921,
          "duration": 0.2857140000000129
        },
        {
          "name": "E4",
          "midi": 64,
          "time": 177.27035844375138,
          "velocity": 0.7480314960629921,
          "duration": 0.2857140000000129
        },
        {
          "name": "E5",
          "midi": 76,
          "time": 177.27035844375138,
          "velocity": 0.7480314960629921,
          "duration": 0.2857140000000129
        },
        {
          "name": "E6",
          "midi": 88,
          "time": 177.27035844375138,
          "velocity": 0.7480314960629921,
          "duration": 0.2857140000000129
        },
        {
          "name": "E7",
          "midi": 100,
          "time": 177.27035844375138,
          "velocity": 0.7480314960629921,
          "duration": 0.2857140000000129
        },
        {
          "name": "E4",
          "midi": 64,
          "time": 177.5560724437514,
          "velocity": 0.7480314960629921,
          "duration": 0.42857100000000514
        },
        {
          "name": "E5",
          "midi": 76,
          "time": 177.5560724437514,
          "velocity": 0.7480314960629921,
          "duration": 0.42857100000000514
        },
        {
          "name": "E6",
          "midi": 88,
          "time": 177.5560724437514,
          "velocity": 0.7480314960629921,
          "duration": 0.42857100000000514
        },
        {
          "name": "E7",
          "midi": 100,
          "time": 177.5560724437514,
          "velocity": 0.7480314960629921,
          "duration": 0.42857100000000514
        },
        {
          "name": "E4",
          "midi": 64,
          "time": 177.9846434437514,
          "velocity": 0.7480314960629921,
          "duration": 0.42857100000000514
        },
        {
          "name": "E5",
          "midi": 76,
          "time": 177.9846434437514,
          "velocity": 0.7480314960629921,
          "duration": 0.42857100000000514
        },
        {
          "name": "E6",
          "midi": 88,
          "time": 177.9846434437514,
          "velocity": 0.7480314960629921,
          "duration": 0.42857100000000514
        },
        {
          "name": "E7",
          "midi": 100,
          "time": 177.9846434437514,
          "velocity": 0.7480314960629921,
          "duration": 0.42857100000000514
        },
        {
          "name": "C4",
          "midi": 60,
          "time": 192.32123625000142,
          "velocity": 0.7480314960629921,
          "duration": 0.21428549999998836
        },
        {
          "name": "C5",
          "midi": 72,
          "time": 192.32123625000142,
          "velocity": 0.7480314960629921,
          "duration": 0.21428549999998836
        },
        {
          "name": "C6",
          "midi": 84,
          "time": 192.32123625000142,
          "velocity": 0.7480314960629921,
          "duration": 0.21428549999998836
        },
        {
          "name": "C7",
          "midi": 96,
          "time": 192.32123625000142,
          "velocity": 0.7480314960629921,
          "duration": 0.21428549999998836
        },
        {
          "name": "C4",
          "midi": 60,
          "time": 192.7498072500014,
          "velocity": 0.7480314960629921,
          "duration": 0.21428549999998836
        },
        {
          "name": "C5",
          "midi": 72,
          "time": 192.7498072500014,
          "velocity": 0.7480314960629921,
          "duration": 0.21428549999998836
        },
        {
          "name": "C6",
          "midi": 84,
          "time": 192.7498072500014,
          "velocity": 0.7480314960629921,
          "duration": 0.21428549999998836
        },
        {
          "name": "C7",
          "midi": 96,
          "time": 192.7498072500014,
          "velocity": 0.7480314960629921,
          "duration": 0.21428549999998836
        },
        {
          "name": "C4",
          "midi": 60,
          "time": 193.17837825000137,
          "velocity": 0.7480314960629921,
          "duration": 0.21428549999998836
        },
        {
          "name": "C5",
          "midi": 72,
          "time": 193.17837825000137,
          "velocity": 0.7480314960629921,
          "duration": 0.21428549999998836
        },
        {
          "name": "C6",
          "midi": 84,
          "time": 193.17837825000137,
          "velocity": 0.7480314960629921,
          "duration": 0.21428549999998836
        },
        {
          "name": "C7",
          "midi": 96,
          "time": 193.17837825000137,
          "velocity": 0.7480314960629921,
          "duration": 0.21428549999998836
        },
        {
          "name": "C4",
          "midi": 60,
          "time": 193.60694925000135,
          "velocity": 0.7480314960629921,
          "duration": 0.21428549999998836
        },
        {
          "name": "C5",
          "midi": 72,
          "time": 193.60694925000135,
          "velocity": 0.7480314960629921,
          "duration": 0.21428549999998836
        },
        {
          "name": "C6",
          "midi": 84,
          "time": 193.60694925000135,
          "velocity": 0.7480314960629921,
          "duration": 0.21428549999998836
        },
        {
          "name": "C7",
          "midi": 96,
          "time": 193.60694925000135,
          "velocity": 0.7480314960629921,
          "duration": 0.21428549999998836
        },
        {
          "name": "C4",
          "midi": 60,
          "time": 194.03552025000133,
          "velocity": 0.7480314960629921,
          "duration": 0.21428549999998836
        },
        {
          "name": "C5",
          "midi": 72,
          "time": 194.03552025000133,
          "velocity": 0.7480314960629921,
          "duration": 0.21428549999998836
        },
        {
          "name": "C6",
          "midi": 84,
          "time": 194.03552025000133,
          "velocity": 0.7480314960629921,
          "duration": 0.21428549999998836
        },
        {
          "name": "C7",
          "midi": 96,
          "time": 194.03552025000133,
          "velocity": 0.7480314960629921,
          "duration": 0.21428549999998836
        },
        {
          "name": "C4",
          "midi": 60,
          "time": 194.4640912500013,
          "velocity": 0.7480314960629921,
          "duration": 0.21428549999998836
        },
        {
          "name": "C5",
          "midi": 72,
          "time": 194.4640912500013,
          "velocity": 0.7480314960629921,
          "duration": 0.21428549999998836
        },
        {
          "name": "C6",
          "midi": 84,
          "time": 194.4640912500013,
          "velocity": 0.7480314960629921,
          "duration": 0.21428549999998836
        },
        {
          "name": "C7",
          "midi": 96,
          "time": 194.4640912500013,
          "velocity": 0.7480314960629921,
          "duration": 0.21428549999998836
        },
        {
          "name": "C4",
          "midi": 60,
          "time": 194.89266225000128,
          "velocity": 0.7480314960629921,
          "duration": 0.21428549999998836
        },
        {
          "name": "C5",
          "midi": 72,
          "time": 194.89266225000128,
          "velocity": 0.7480314960629921,
          "duration": 0.21428549999998836
        },
        {
          "name": "C6",
          "midi": 84,
          "time": 194.89266225000128,
          "velocity": 0.7480314960629921,
          "duration": 0.21428549999998836
        },
        {
          "name": "C7",
          "midi": 96,
          "time": 194.89266225000128,
          "velocity": 0.7480314960629921,
          "duration": 0.21428549999998836
        },
        {
          "name": "C4",
          "midi": 60,
          "time": 195.32123325000126,
          "velocity": 0.7480314960629921,
          "duration": 0.21428549999998836
        },
        {
          "name": "C5",
          "midi": 72,
          "time": 195.32123325000126,
          "velocity": 0.7480314960629921,
          "duration": 0.21428549999998836
        },
        {
          "name": "C6",
          "midi": 84,
          "time": 195.32123325000126,
          "velocity": 0.7480314960629921,
          "duration": 0.21428549999998836
        },
        {
          "name": "C7",
          "midi": 96,
          "time": 195.32123325000126,
          "velocity": 0.7480314960629921,
          "duration": 0.21428549999998836
        },
        {
          "name": "C4",
          "midi": 60,
          "time": 195.74980425000123,
          "velocity": 0.7480314960629921,
          "duration": 0.21428549999998836
        },
        {
          "name": "C5",
          "midi": 72,
          "time": 195.74980425000123,
          "velocity": 0.7480314960629921,
          "duration": 0.21428549999998836
        },
        {
          "name": "C6",
          "midi": 84,
          "time": 195.74980425000123,
          "velocity": 0.7480314960629921,
          "duration": 0.21428549999998836
        },
        {
          "name": "C7",
          "midi": 96,
          "time": 195.74980425000123,
          "velocity": 0.7480314960629921,
          "duration": 0.21428549999998836
        },
        {
          "name": "C4",
          "midi": 60,
          "time": 196.1783752500012,
          "velocity": 0.7480314960629921,
          "duration": 0.21428549999998836
        },
        {
          "name": "C5",
          "midi": 72,
          "time": 196.1783752500012,
          "velocity": 0.7480314960629921,
          "duration": 0.21428549999998836
        },
        {
          "name": "C6",
          "midi": 84,
          "time": 196.1783752500012,
          "velocity": 0.7480314960629921,
          "duration": 0.21428549999998836
        },
        {
          "name": "C7",
          "midi": 96,
          "time": 196.1783752500012,
          "velocity": 0.7480314960629921,
          "duration": 0.21428549999998836
        },
        {
          "name": "C4",
          "midi": 60,
          "time": 196.6069462500012,
          "velocity": 0.7480314960629921,
          "duration": 0.21428549999998836
        },
        {
          "name": "C5",
          "midi": 72,
          "time": 196.6069462500012,
          "velocity": 0.7480314960629921,
          "duration": 0.21428549999998836
        },
        {
          "name": "C6",
          "midi": 84,
          "time": 196.6069462500012,
          "velocity": 0.7480314960629921,
          "duration": 0.21428549999998836
        },
        {
          "name": "C7",
          "midi": 96,
          "time": 196.6069462500012,
          "velocity": 0.7480314960629921,
          "duration": 0.21428549999998836
        },
        {
          "name": "C4",
          "midi": 60,
          "time": 197.03551725000116,
          "velocity": 0.7480314960629921,
          "duration": 0.21428549999998836
        },
        {
          "name": "C5",
          "midi": 72,
          "time": 197.03551725000116,
          "velocity": 0.7480314960629921,
          "duration": 0.21428549999998836
        },
        {
          "name": "C6",
          "midi": 84,
          "time": 197.03551725000116,
          "velocity": 0.7480314960629921,
          "duration": 0.21428549999998836
        },
        {
          "name": "C7",
          "midi": 96,
          "time": 197.03551725000116,
          "velocity": 0.7480314960629921,
          "duration": 0.21428549999998836
        },
        {
          "name": "C4",
          "midi": 60,
          "time": 197.46408825000114,
          "velocity": 0.7480314960629921,
          "duration": 0.21428549999998836
        },
        {
          "name": "C5",
          "midi": 72,
          "time": 197.46408825000114,
          "velocity": 0.7480314960629921,
          "duration": 0.21428549999998836
        },
        {
          "name": "C6",
          "midi": 84,
          "time": 197.46408825000114,
          "velocity": 0.7480314960629921,
          "duration": 0.21428549999998836
        },
        {
          "name": "C7",
          "midi": 96,
          "time": 197.46408825000114,
          "velocity": 0.7480314960629921,
          "duration": 0.21428549999998836
        },
        {
          "name": "C4",
          "midi": 60,
          "time": 197.89265925000112,
          "velocity": 0.7480314960629921,
          "duration": 0.21428549999998836
        },
        {
          "name": "C5",
          "midi": 72,
          "time": 197.89265925000112,
          "velocity": 0.7480314960629921,
          "duration": 0.21428549999998836
        },
        {
          "name": "C6",
          "midi": 84,
          "time": 197.89265925000112,
          "velocity": 0.7480314960629921,
          "duration": 0.21428549999998836
        },
        {
          "name": "C7",
          "midi": 96,
          "time": 197.89265925000112,
          "velocity": 0.7480314960629921,
          "duration": 0.21428549999998836
        },
        {
          "name": "C4",
          "midi": 60,
          "time": 198.3212302500011,
          "velocity": 0.7480314960629921,
          "duration": 0.21428549999998836
        },
        {
          "name": "C5",
          "midi": 72,
          "time": 198.3212302500011,
          "velocity": 0.7480314960629921,
          "duration": 0.21428549999998836
        },
        {
          "name": "C6",
          "midi": 84,
          "time": 198.3212302500011,
          "velocity": 0.7480314960629921,
          "duration": 0.21428549999998836
        },
        {
          "name": "C7",
          "midi": 96,
          "time": 198.3212302500011,
          "velocity": 0.7480314960629921,
          "duration": 0.21428549999998836
        },
        {
          "name": "C4",
          "midi": 60,
          "time": 198.74980125000107,
          "velocity": 0.7480314960629921,
          "duration": 0.21428549999998836
        },
        {
          "name": "C5",
          "midi": 72,
          "time": 198.74980125000107,
          "velocity": 0.7480314960629921,
          "duration": 0.21428549999998836
        },
        {
          "name": "C6",
          "midi": 84,
          "time": 198.74980125000107,
          "velocity": 0.7480314960629921,
          "duration": 0.21428549999998836
        },
        {
          "name": "C7",
          "midi": 96,
          "time": 198.74980125000107,
          "velocity": 0.7480314960629921,
          "duration": 0.21428549999998836
        },
        {
          "name": "C4",
          "midi": 60,
          "time": 199.17837225000105,
          "velocity": 0.7480314960629921,
          "duration": 0.21428549999998836
        },
        {
          "name": "C5",
          "midi": 72,
          "time": 199.17837225000105,
          "velocity": 0.7480314960629921,
          "duration": 0.21428549999998836
        },
        {
          "name": "C6",
          "midi": 84,
          "time": 199.17837225000105,
          "velocity": 0.7480314960629921,
          "duration": 0.21428549999998836
        },
        {
          "name": "C7",
          "midi": 96,
          "time": 199.17837225000105,
          "velocity": 0.7480314960629921,
          "duration": 0.21428549999998836
        },
        {
          "name": "C4",
          "midi": 60,
          "time": 199.60694325000102,
          "velocity": 0.7480314960629921,
          "duration": 0.21428549999998836
        },
        {
          "name": "C5",
          "midi": 72,
          "time": 199.60694325000102,
          "velocity": 0.7480314960629921,
          "duration": 0.21428549999998836
        },
        {
          "name": "C6",
          "midi": 84,
          "time": 199.60694325000102,
          "velocity": 0.7480314960629921,
          "duration": 0.21428549999998836
        },
        {
          "name": "C7",
          "midi": 96,
          "time": 199.60694325000102,
          "velocity": 0.7480314960629921,
          "duration": 0.21428549999998836
        },
        {
          "name": "C4",
          "midi": 60,
          "time": 200.035514250001,
          "velocity": 0.7480314960629921,
          "duration": 0.21428549999998836
        },
        {
          "name": "C5",
          "midi": 72,
          "time": 200.035514250001,
          "velocity": 0.7480314960629921,
          "duration": 0.21428549999998836
        },
        {
          "name": "C6",
          "midi": 84,
          "time": 200.035514250001,
          "velocity": 0.7480314960629921,
          "duration": 0.21428549999998836
        },
        {
          "name": "C7",
          "midi": 96,
          "time": 200.035514250001,
          "velocity": 0.7480314960629921,
          "duration": 0.21428549999998836
        },
        {
          "name": "C4",
          "midi": 60,
          "time": 200.46408525000098,
          "velocity": 0.7480314960629921,
          "duration": 0.21428549999998836
        },
        {
          "name": "C5",
          "midi": 72,
          "time": 200.46408525000098,
          "velocity": 0.7480314960629921,
          "duration": 0.21428549999998836
        },
        {
          "name": "C6",
          "midi": 84,
          "time": 200.46408525000098,
          "velocity": 0.7480314960629921,
          "duration": 0.21428549999998836
        },
        {
          "name": "C7",
          "midi": 96,
          "time": 200.46408525000098,
          "velocity": 0.7480314960629921,
          "duration": 0.21428549999998836
        },
        {
          "name": "C4",
          "midi": 60,
          "time": 200.89265625000095,
          "velocity": 0.7480314960629921,
          "duration": 0.21428549999998836
        },
        {
          "name": "C5",
          "midi": 72,
          "time": 200.89265625000095,
          "velocity": 0.7480314960629921,
          "duration": 0.21428549999998836
        },
        {
          "name": "C6",
          "midi": 84,
          "time": 200.89265625000095,
          "velocity": 0.7480314960629921,
          "duration": 0.21428549999998836
        },
        {
          "name": "C7",
          "midi": 96,
          "time": 200.89265625000095,
          "velocity": 0.7480314960629921,
          "duration": 0.21428549999998836
        },
        {
          "name": "C4",
          "midi": 60,
          "time": 201.32122725000093,
          "velocity": 0.7480314960629921,
          "duration": 0.21428549999998836
        },
        {
          "name": "C5",
          "midi": 72,
          "time": 201.32122725000093,
          "velocity": 0.7480314960629921,
          "duration": 0.21428549999998836
        },
        {
          "name": "C6",
          "midi": 84,
          "time": 201.32122725000093,
          "velocity": 0.7480314960629921,
          "duration": 0.21428549999998836
        },
        {
          "name": "C7",
          "midi": 96,
          "time": 201.32122725000093,
          "velocity": 0.7480314960629921,
          "duration": 0.21428549999998836
        },
        {
          "name": "C4",
          "midi": 60,
          "time": 201.7497982500009,
          "velocity": 0.7480314960629921,
          "duration": 0.21428549999998836
        },
        {
          "name": "C5",
          "midi": 72,
          "time": 201.7497982500009,
          "velocity": 0.7480314960629921,
          "duration": 0.21428549999998836
        },
        {
          "name": "C6",
          "midi": 84,
          "time": 201.7497982500009,
          "velocity": 0.7480314960629921,
          "duration": 0.21428549999998836
        },
        {
          "name": "C7",
          "midi": 96,
          "time": 201.7497982500009,
          "velocity": 0.7480314960629921,
          "duration": 0.21428549999998836
        },
        {
          "name": "C4",
          "midi": 60,
          "time": 202.17836925000088,
          "velocity": 0.7480314960629921,
          "duration": 0.21428549999998836
        },
        {
          "name": "C5",
          "midi": 72,
          "time": 202.17836925000088,
          "velocity": 0.7480314960629921,
          "duration": 0.21428549999998836
        },
        {
          "name": "C6",
          "midi": 84,
          "time": 202.17836925000088,
          "velocity": 0.7480314960629921,
          "duration": 0.21428549999998836
        },
        {
          "name": "C7",
          "midi": 96,
          "time": 202.17836925000088,
          "velocity": 0.7480314960629921,
          "duration": 0.21428549999998836
        },
        {
          "name": "C4",
          "midi": 60,
          "time": 202.60694025000086,
          "velocity": 0.7480314960629921,
          "duration": 0.21428549999998836
        },
        {
          "name": "C5",
          "midi": 72,
          "time": 202.60694025000086,
          "velocity": 0.7480314960629921,
          "duration": 0.21428549999998836
        },
        {
          "name": "C6",
          "midi": 84,
          "time": 202.60694025000086,
          "velocity": 0.7480314960629921,
          "duration": 0.21428549999998836
        },
        {
          "name": "C7",
          "midi": 96,
          "time": 202.60694025000086,
          "velocity": 0.7480314960629921,
          "duration": 0.21428549999998836
        },
        {
          "name": "C4",
          "midi": 60,
          "time": 203.03551125000084,
          "velocity": 0.7480314960629921,
          "duration": 0.21428549999998836
        },
        {
          "name": "C5",
          "midi": 72,
          "time": 203.03551125000084,
          "velocity": 0.7480314960629921,
          "duration": 0.21428549999998836
        },
        {
          "name": "C6",
          "midi": 84,
          "time": 203.03551125000084,
          "velocity": 0.7480314960629921,
          "duration": 0.21428549999998836
        },
        {
          "name": "C7",
          "midi": 96,
          "time": 203.03551125000084,
          "velocity": 0.7480314960629921,
          "duration": 0.21428549999998836
        },
        {
          "name": "C4",
          "midi": 60,
          "time": 203.4640822500008,
          "velocity": 0.7480314960629921,
          "duration": 0.21428549999998836
        },
        {
          "name": "C5",
          "midi": 72,
          "time": 203.4640822500008,
          "velocity": 0.7480314960629921,
          "duration": 0.21428549999998836
        },
        {
          "name": "C6",
          "midi": 84,
          "time": 203.4640822500008,
          "velocity": 0.7480314960629921,
          "duration": 0.21428549999998836
        },
        {
          "name": "C7",
          "midi": 96,
          "time": 203.4640822500008,
          "velocity": 0.7480314960629921,
          "duration": 0.21428549999998836
        },
        {
          "name": "C4",
          "midi": 60,
          "time": 203.8926532500008,
          "velocity": 0.7480314960629921,
          "duration": 0.21428549999998836
        },
        {
          "name": "C5",
          "midi": 72,
          "time": 203.8926532500008,
          "velocity": 0.7480314960629921,
          "duration": 0.21428549999998836
        },
        {
          "name": "C6",
          "midi": 84,
          "time": 203.8926532500008,
          "velocity": 0.7480314960629921,
          "duration": 0.21428549999998836
        },
        {
          "name": "C7",
          "midi": 96,
          "time": 203.8926532500008,
          "velocity": 0.7480314960629921,
          "duration": 0.21428549999998836
        },
        {
          "name": "C4",
          "midi": 60,
          "time": 206.0355082500008,
          "velocity": 0.7480314960629921,
          "duration": 0.21428549999998836
        },
        {
          "name": "C5",
          "midi": 72,
          "time": 206.0355082500008,
          "velocity": 0.7480314960629921,
          "duration": 0.21428549999998836
        },
        {
          "name": "C6",
          "midi": 84,
          "time": 206.0355082500008,
          "velocity": 0.7480314960629921,
          "duration": 0.21428549999998836
        },
        {
          "name": "C7",
          "midi": 96,
          "time": 206.0355082500008,
          "velocity": 0.7480314960629921,
          "duration": 0.21428549999998836
        },
        {
          "name": "C4",
          "midi": 60,
          "time": 206.46407925000076,
          "velocity": 0.7480314960629921,
          "duration": 0.21428549999998836
        },
        {
          "name": "C5",
          "midi": 72,
          "time": 206.46407925000076,
          "velocity": 0.7480314960629921,
          "duration": 0.21428549999998836
        },
        {
          "name": "C6",
          "midi": 84,
          "time": 206.46407925000076,
          "velocity": 0.7480314960629921,
          "duration": 0.21428549999998836
        },
        {
          "name": "C7",
          "midi": 96,
          "time": 206.46407925000076,
          "velocity": 0.7480314960629921,
          "duration": 0.21428549999998836
        },
        {
          "name": "C4",
          "midi": 60,
          "time": 206.89265025000074,
          "velocity": 0.7480314960629921,
          "duration": 0.21428549999998836
        },
        {
          "name": "C5",
          "midi": 72,
          "time": 206.89265025000074,
          "velocity": 0.7480314960629921,
          "duration": 0.21428549999998836
        },
        {
          "name": "C6",
          "midi": 84,
          "time": 206.89265025000074,
          "velocity": 0.7480314960629921,
          "duration": 0.21428549999998836
        },
        {
          "name": "C7",
          "midi": 96,
          "time": 206.89265025000074,
          "velocity": 0.7480314960629921,
          "duration": 0.21428549999998836
        },
        {
          "name": "C4",
          "midi": 60,
          "time": 207.32122125000072,
          "velocity": 0.7480314960629921,
          "duration": 0.21428549999998836
        },
        {
          "name": "C5",
          "midi": 72,
          "time": 207.32122125000072,
          "velocity": 0.7480314960629921,
          "duration": 0.21428549999998836
        },
        {
          "name": "C6",
          "midi": 84,
          "time": 207.32122125000072,
          "velocity": 0.7480314960629921,
          "duration": 0.21428549999998836
        },
        {
          "name": "C7",
          "midi": 96,
          "time": 207.32122125000072,
          "velocity": 0.7480314960629921,
          "duration": 0.21428549999998836
        },
        {
          "name": "C4",
          "midi": 60,
          "time": 207.7497922500007,
          "velocity": 0.7480314960629921,
          "duration": 0.21428549999998836
        },
        {
          "name": "C5",
          "midi": 72,
          "time": 207.7497922500007,
          "velocity": 0.7480314960629921,
          "duration": 0.21428549999998836
        },
        {
          "name": "C6",
          "midi": 84,
          "time": 207.7497922500007,
          "velocity": 0.7480314960629921,
          "duration": 0.21428549999998836
        },
        {
          "name": "C7",
          "midi": 96,
          "time": 207.7497922500007,
          "velocity": 0.7480314960629921,
          "duration": 0.21428549999998836
        },
        {
          "name": "C4",
          "midi": 60,
          "time": 208.17836325000067,
          "velocity": 0.7480314960629921,
          "duration": 0.21428549999998836
        },
        {
          "name": "C5",
          "midi": 72,
          "time": 208.17836325000067,
          "velocity": 0.7480314960629921,
          "duration": 0.21428549999998836
        },
        {
          "name": "C6",
          "midi": 84,
          "time": 208.17836325000067,
          "velocity": 0.7480314960629921,
          "duration": 0.21428549999998836
        },
        {
          "name": "C7",
          "midi": 96,
          "time": 208.17836325000067,
          "velocity": 0.7480314960629921,
          "duration": 0.21428549999998836
        },
        {
          "name": "C4",
          "midi": 60,
          "time": 208.60693425000065,
          "velocity": 0.7480314960629921,
          "duration": 0.21428549999998836
        },
        {
          "name": "C5",
          "midi": 72,
          "time": 208.60693425000065,
          "velocity": 0.7480314960629921,
          "duration": 0.21428549999998836
        },
        {
          "name": "C6",
          "midi": 84,
          "time": 208.60693425000065,
          "velocity": 0.7480314960629921,
          "duration": 0.21428549999998836
        },
        {
          "name": "C7",
          "midi": 96,
          "time": 208.60693425000065,
          "velocity": 0.7480314960629921,
          "duration": 0.21428549999998836
        },
        {
          "name": "C4",
          "midi": 60,
          "time": 209.03550525000063,
          "velocity": 0.7480314960629921,
          "duration": 0.21428549999998836
        },
        {
          "name": "C5",
          "midi": 72,
          "time": 209.03550525000063,
          "velocity": 0.7480314960629921,
          "duration": 0.21428549999998836
        },
        {
          "name": "C6",
          "midi": 84,
          "time": 209.03550525000063,
          "velocity": 0.7480314960629921,
          "duration": 0.21428549999998836
        },
        {
          "name": "C7",
          "midi": 96,
          "time": 209.03550525000063,
          "velocity": 0.7480314960629921,
          "duration": 0.21428549999998836
        },
        {
          "name": "C4",
          "midi": 60,
          "time": 209.4640762500006,
          "velocity": 0.7480314960629921,
          "duration": 0.21428549999998836
        },
        {
          "name": "C5",
          "midi": 72,
          "time": 209.4640762500006,
          "velocity": 0.7480314960629921,
          "duration": 0.21428549999998836
        },
        {
          "name": "C6",
          "midi": 84,
          "time": 209.4640762500006,
          "velocity": 0.7480314960629921,
          "duration": 0.21428549999998836
        },
        {
          "name": "C7",
          "midi": 96,
          "time": 209.4640762500006,
          "velocity": 0.7480314960629921,
          "duration": 0.21428549999998836
        },
        {
          "name": "C4",
          "midi": 60,
          "time": 209.89264725000058,
          "velocity": 0.7480314960629921,
          "duration": 0.21428549999998836
        },
        {
          "name": "C5",
          "midi": 72,
          "time": 209.89264725000058,
          "velocity": 0.7480314960629921,
          "duration": 0.21428549999998836
        },
        {
          "name": "C6",
          "midi": 84,
          "time": 209.89264725000058,
          "velocity": 0.7480314960629921,
          "duration": 0.21428549999998836
        },
        {
          "name": "C7",
          "midi": 96,
          "time": 209.89264725000058,
          "velocity": 0.7480314960629921,
          "duration": 0.21428549999998836
        },
        {
          "name": "C4",
          "midi": 60,
          "time": 210.32121825000056,
          "velocity": 0.7480314960629921,
          "duration": 0.21428549999998836
        },
        {
          "name": "C5",
          "midi": 72,
          "time": 210.32121825000056,
          "velocity": 0.7480314960629921,
          "duration": 0.21428549999998836
        },
        {
          "name": "C6",
          "midi": 84,
          "time": 210.32121825000056,
          "velocity": 0.7480314960629921,
          "duration": 0.21428549999998836
        },
        {
          "name": "C7",
          "midi": 96,
          "time": 210.32121825000056,
          "velocity": 0.7480314960629921,
          "duration": 0.21428549999998836
        },
        {
          "name": "C4",
          "midi": 60,
          "time": 210.74978925000053,
          "velocity": 0.7480314960629921,
          "duration": 0.21428549999998836
        },
        {
          "name": "C5",
          "midi": 72,
          "time": 210.74978925000053,
          "velocity": 0.7480314960629921,
          "duration": 0.21428549999998836
        },
        {
          "name": "C6",
          "midi": 84,
          "time": 210.74978925000053,
          "velocity": 0.7480314960629921,
          "duration": 0.21428549999998836
        },
        {
          "name": "C7",
          "midi": 96,
          "time": 210.74978925000053,
          "velocity": 0.7480314960629921,
          "duration": 0.21428549999998836
        },
        {
          "name": "C4",
          "midi": 60,
          "time": 211.1783602500005,
          "velocity": 0.7480314960629921,
          "duration": 0.21428549999998836
        },
        {
          "name": "C5",
          "midi": 72,
          "time": 211.1783602500005,
          "velocity": 0.7480314960629921,
          "duration": 0.21428549999998836
        },
        {
          "name": "C6",
          "midi": 84,
          "time": 211.1783602500005,
          "velocity": 0.7480314960629921,
          "duration": 0.21428549999998836
        },
        {
          "name": "C7",
          "midi": 96,
          "time": 211.1783602500005,
          "velocity": 0.7480314960629921,
          "duration": 0.21428549999998836
        },
        {
          "name": "C4",
          "midi": 60,
          "time": 211.60693125000049,
          "velocity": 0.7480314960629921,
          "duration": 0.21428549999998836
        },
        {
          "name": "C5",
          "midi": 72,
          "time": 211.60693125000049,
          "velocity": 0.7480314960629921,
          "duration": 0.21428549999998836
        },
        {
          "name": "C6",
          "midi": 84,
          "time": 211.60693125000049,
          "velocity": 0.7480314960629921,
          "duration": 0.21428549999998836
        },
        {
          "name": "C7",
          "midi": 96,
          "time": 211.60693125000049,
          "velocity": 0.7480314960629921,
          "duration": 0.21428549999998836
        },
        {
          "name": "C4",
          "midi": 60,
          "time": 212.03550225000046,
          "velocity": 0.7480314960629921,
          "duration": 0.21428549999998836
        },
        {
          "name": "C5",
          "midi": 72,
          "time": 212.03550225000046,
          "velocity": 0.7480314960629921,
          "duration": 0.21428549999998836
        },
        {
          "name": "C6",
          "midi": 84,
          "time": 212.03550225000046,
          "velocity": 0.7480314960629921,
          "duration": 0.21428549999998836
        },
        {
          "name": "C7",
          "midi": 96,
          "time": 212.03550225000046,
          "velocity": 0.7480314960629921,
          "duration": 0.21428549999998836
        },
        {
          "name": "C4",
          "midi": 60,
          "time": 212.46407325000044,
          "velocity": 0.7480314960629921,
          "duration": 0.21428549999998836
        },
        {
          "name": "C5",
          "midi": 72,
          "time": 212.46407325000044,
          "velocity": 0.7480314960629921,
          "duration": 0.21428549999998836
        },
        {
          "name": "C6",
          "midi": 84,
          "time": 212.46407325000044,
          "velocity": 0.7480314960629921,
          "duration": 0.21428549999998836
        },
        {
          "name": "C7",
          "midi": 96,
          "time": 212.46407325000044,
          "velocity": 0.7480314960629921,
          "duration": 0.21428549999998836
        },
        {
          "name": "C4",
          "midi": 60,
          "time": 212.89264425000042,
          "velocity": 0.7480314960629921,
          "duration": 0.21428549999998836
        },
        {
          "name": "C5",
          "midi": 72,
          "time": 212.89264425000042,
          "velocity": 0.7480314960629921,
          "duration": 0.21428549999998836
        },
        {
          "name": "C6",
          "midi": 84,
          "time": 212.89264425000042,
          "velocity": 0.7480314960629921,
          "duration": 0.21428549999998836
        },
        {
          "name": "C7",
          "midi": 96,
          "time": 212.89264425000042,
          "velocity": 0.7480314960629921,
          "duration": 0.21428549999998836
        },
        {
          "name": "C4",
          "midi": 60,
          "time": 213.3212152500004,
          "velocity": 0.7480314960629921,
          "duration": 0.21428549999998836
        },
        {
          "name": "C5",
          "midi": 72,
          "time": 213.3212152500004,
          "velocity": 0.7480314960629921,
          "duration": 0.21428549999998836
        },
        {
          "name": "C6",
          "midi": 84,
          "time": 213.3212152500004,
          "velocity": 0.7480314960629921,
          "duration": 0.21428549999998836
        },
        {
          "name": "C7",
          "midi": 96,
          "time": 213.3212152500004,
          "velocity": 0.7480314960629921,
          "duration": 0.21428549999998836
        },
        {
          "name": "C4",
          "midi": 60,
          "time": 213.74978625000037,
          "velocity": 0.7480314960629921,
          "duration": 0.21428549999998836
        },
        {
          "name": "C5",
          "midi": 72,
          "time": 213.74978625000037,
          "velocity": 0.7480314960629921,
          "duration": 0.21428549999998836
        },
        {
          "name": "C6",
          "midi": 84,
          "time": 213.74978625000037,
          "velocity": 0.7480314960629921,
          "duration": 0.21428549999998836
        },
        {
          "name": "C7",
          "midi": 96,
          "time": 213.74978625000037,
          "velocity": 0.7480314960629921,
          "duration": 0.21428549999998836
        },
        {
          "name": "C4",
          "midi": 60,
          "time": 214.17835725000035,
          "velocity": 0.7480314960629921,
          "duration": 0.21428549999998836
        },
        {
          "name": "C5",
          "midi": 72,
          "time": 214.17835725000035,
          "velocity": 0.7480314960629921,
          "duration": 0.21428549999998836
        },
        {
          "name": "C6",
          "midi": 84,
          "time": 214.17835725000035,
          "velocity": 0.7480314960629921,
          "duration": 0.21428549999998836
        },
        {
          "name": "C7",
          "midi": 96,
          "time": 214.17835725000035,
          "velocity": 0.7480314960629921,
          "duration": 0.21428549999998836
        },
        {
          "name": "C4",
          "midi": 60,
          "time": 214.60692825000032,
          "velocity": 0.7480314960629921,
          "duration": 0.21428549999998836
        },
        {
          "name": "C5",
          "midi": 72,
          "time": 214.60692825000032,
          "velocity": 0.7480314960629921,
          "duration": 0.21428549999998836
        },
        {
          "name": "C6",
          "midi": 84,
          "time": 214.60692825000032,
          "velocity": 0.7480314960629921,
          "duration": 0.21428549999998836
        },
        {
          "name": "C7",
          "midi": 96,
          "time": 214.60692825000032,
          "velocity": 0.7480314960629921,
          "duration": 0.21428549999998836
        },
        {
          "name": "C4",
          "midi": 60,
          "time": 215.0354992500003,
          "velocity": 0.7480314960629921,
          "duration": 0.21428549999998836
        },
        {
          "name": "C5",
          "midi": 72,
          "time": 215.0354992500003,
          "velocity": 0.7480314960629921,
          "duration": 0.21428549999998836
        },
        {
          "name": "C6",
          "midi": 84,
          "time": 215.0354992500003,
          "velocity": 0.7480314960629921,
          "duration": 0.21428549999998836
        },
        {
          "name": "C7",
          "midi": 96,
          "time": 215.0354992500003,
          "velocity": 0.7480314960629921,
          "duration": 0.21428549999998836
        },
        {
          "name": "C4",
          "midi": 60,
          "time": 215.46407025000028,
          "velocity": 0.7480314960629921,
          "duration": 0.21428549999998836
        },
        {
          "name": "C5",
          "midi": 72,
          "time": 215.46407025000028,
          "velocity": 0.7480314960629921,
          "duration": 0.21428549999998836
        },
        {
          "name": "C6",
          "midi": 84,
          "time": 215.46407025000028,
          "velocity": 0.7480314960629921,
          "duration": 0.21428549999998836
        },
        {
          "name": "C7",
          "midi": 96,
          "time": 215.46407025000028,
          "velocity": 0.7480314960629921,
          "duration": 0.21428549999998836
        },
        {
          "name": "C4",
          "midi": 60,
          "time": 215.89264125000025,
          "velocity": 0.7480314960629921,
          "duration": 0.21428549999998836
        },
        {
          "name": "C5",
          "midi": 72,
          "time": 215.89264125000025,
          "velocity": 0.7480314960629921,
          "duration": 0.21428549999998836
        },
        {
          "name": "C6",
          "midi": 84,
          "time": 215.89264125000025,
          "velocity": 0.7480314960629921,
          "duration": 0.21428549999998836
        },
        {
          "name": "C7",
          "midi": 96,
          "time": 215.89264125000025,
          "velocity": 0.7480314960629921,
          "duration": 0.21428549999998836
        },
        {
          "name": "C4",
          "midi": 60,
          "time": 216.32121225000023,
          "velocity": 0.7480314960629921,
          "duration": 0.21428549999998836
        },
        {
          "name": "C5",
          "midi": 72,
          "time": 216.32121225000023,
          "velocity": 0.7480314960629921,
          "duration": 0.21428549999998836
        },
        {
          "name": "C6",
          "midi": 84,
          "time": 216.32121225000023,
          "velocity": 0.7480314960629921,
          "duration": 0.21428549999998836
        },
        {
          "name": "C7",
          "midi": 96,
          "time": 216.32121225000023,
          "velocity": 0.7480314960629921,
          "duration": 0.21428549999998836
        },
        {
          "name": "C4",
          "midi": 60,
          "time": 216.7497832500002,
          "velocity": 0.7480314960629921,
          "duration": 0.21428549999998836
        },
        {
          "name": "C5",
          "midi": 72,
          "time": 216.7497832500002,
          "velocity": 0.7480314960629921,
          "duration": 0.21428549999998836
        },
        {
          "name": "C6",
          "midi": 84,
          "time": 216.7497832500002,
          "velocity": 0.7480314960629921,
          "duration": 0.21428549999998836
        },
        {
          "name": "C7",
          "midi": 96,
          "time": 216.7497832500002,
          "velocity": 0.7480314960629921,
          "duration": 0.21428549999998836
        },
        {
          "name": "C4",
          "midi": 60,
          "time": 217.17835425000018,
          "velocity": 0.7480314960629921,
          "duration": 0.21428549999998836
        },
        {
          "name": "C5",
          "midi": 72,
          "time": 217.17835425000018,
          "velocity": 0.7480314960629921,
          "duration": 0.21428549999998836
        },
        {
          "name": "C6",
          "midi": 84,
          "time": 217.17835425000018,
          "velocity": 0.7480314960629921,
          "duration": 0.21428549999998836
        },
        {
          "name": "C7",
          "midi": 96,
          "time": 217.17835425000018,
          "velocity": 0.7480314960629921,
          "duration": 0.21428549999998836
        },
        {
          "name": "C4",
          "midi": 60,
          "time": 217.60692525000016,
          "velocity": 0.7480314960629921,
          "duration": 0.21428549999998836
        },
        {
          "name": "C5",
          "midi": 72,
          "time": 217.60692525000016,
          "velocity": 0.7480314960629921,
          "duration": 0.21428549999998836
        },
        {
          "name": "C6",
          "midi": 84,
          "time": 217.60692525000016,
          "velocity": 0.7480314960629921,
          "duration": 0.21428549999998836
        },
        {
          "name": "C7",
          "midi": 96,
          "time": 217.60692525000016,
          "velocity": 0.7480314960629921,
          "duration": 0.21428549999998836
        },
        {
          "name": "C4",
          "midi": 60,
          "time": 219.74978025000016,
          "velocity": 0.7480314960629921,
          "duration": 0.21428549999998836
        },
        {
          "name": "C5",
          "midi": 72,
          "time": 219.74978025000016,
          "velocity": 0.7480314960629921,
          "duration": 0.21428549999998836
        },
        {
          "name": "C6",
          "midi": 84,
          "time": 219.74978025000016,
          "velocity": 0.7480314960629921,
          "duration": 0.21428549999998836
        },
        {
          "name": "C7",
          "midi": 96,
          "time": 219.74978025000016,
          "velocity": 0.7480314960629921,
          "duration": 0.21428549999998836
        },
        {
          "name": "C4",
          "midi": 60,
          "time": 220.17835125000013,
          "velocity": 0.7480314960629921,
          "duration": 0.21428549999998836
        },
        {
          "name": "C5",
          "midi": 72,
          "time": 220.17835125000013,
          "velocity": 0.7480314960629921,
          "duration": 0.21428549999998836
        },
        {
          "name": "C6",
          "midi": 84,
          "time": 220.17835125000013,
          "velocity": 0.7480314960629921,
          "duration": 0.21428549999998836
        },
        {
          "name": "C7",
          "midi": 96,
          "time": 220.17835125000013,
          "velocity": 0.7480314960629921,
          "duration": 0.21428549999998836
        },
        {
          "name": "C4",
          "midi": 60,
          "time": 220.6069222500001,
          "velocity": 0.7480314960629921,
          "duration": 0.21428549999998836
        },
        {
          "name": "C5",
          "midi": 72,
          "time": 220.6069222500001,
          "velocity": 0.7480314960629921,
          "duration": 0.21428549999998836
        },
        {
          "name": "C6",
          "midi": 84,
          "time": 220.6069222500001,
          "velocity": 0.7480314960629921,
          "duration": 0.21428549999998836
        },
        {
          "name": "C7",
          "midi": 96,
          "time": 220.6069222500001,
          "velocity": 0.7480314960629921,
          "duration": 0.21428549999998836
        },
        {
          "name": "C4",
          "midi": 60,
          "time": 221.0354932500001,
          "velocity": 0.7480314960629921,
          "duration": 0.21428549999998836
        },
        {
          "name": "C5",
          "midi": 72,
          "time": 221.0354932500001,
          "velocity": 0.7480314960629921,
          "duration": 0.21428549999998836
        },
        {
          "name": "C6",
          "midi": 84,
          "time": 221.0354932500001,
          "velocity": 0.7480314960629921,
          "duration": 0.21428549999998836
        },
        {
          "name": "C7",
          "midi": 96,
          "time": 221.0354932500001,
          "velocity": 0.7480314960629921,
          "duration": 0.21428549999998836
        },
        {
          "name": "C4",
          "midi": 60,
          "time": 221.46406425000006,
          "velocity": 0.7480314960629921,
          "duration": 0.21428549999998836
        },
        {
          "name": "C5",
          "midi": 72,
          "time": 221.46406425000006,
          "velocity": 0.7480314960629921,
          "duration": 0.21428549999998836
        },
        {
          "name": "C6",
          "midi": 84,
          "time": 221.46406425000006,
          "velocity": 0.7480314960629921,
          "duration": 0.21428549999998836
        },
        {
          "name": "C7",
          "midi": 96,
          "time": 221.46406425000006,
          "velocity": 0.7480314960629921,
          "duration": 0.21428549999998836
        },
        {
          "name": "C4",
          "midi": 60,
          "time": 221.89263525000004,
          "velocity": 0.7480314960629921,
          "duration": 0.21428549999998836
        },
        {
          "name": "C5",
          "midi": 72,
          "time": 221.89263525000004,
          "velocity": 0.7480314960629921,
          "duration": 0.21428549999998836
        },
        {
          "name": "C6",
          "midi": 84,
          "time": 221.89263525000004,
          "velocity": 0.7480314960629921,
          "duration": 0.21428549999998836
        },
        {
          "name": "C7",
          "midi": 96,
          "time": 221.89263525000004,
          "velocity": 0.7480314960629921,
          "duration": 0.21428549999998836
        },
        {
          "name": "C4",
          "midi": 60,
          "time": 222.32120625000002,
          "velocity": 0.7480314960629921,
          "duration": 0.21428549999998836
        },
        {
          "name": "C5",
          "midi": 72,
          "time": 222.32120625000002,
          "velocity": 0.7480314960629921,
          "duration": 0.21428549999998836
        },
        {
          "name": "C6",
          "midi": 84,
          "time": 222.32120625000002,
          "velocity": 0.7480314960629921,
          "duration": 0.21428549999998836
        },
        {
          "name": "C7",
          "midi": 96,
          "time": 222.32120625000002,
          "velocity": 0.7480314960629921,
          "duration": 0.21428549999998836
        },
        {
          "name": "C4",
          "midi": 60,
          "time": 222.74977725,
          "velocity": 0.7480314960629921,
          "duration": 0.21428549999998836
        },
        {
          "name": "C5",
          "midi": 72,
          "time": 222.74977725,
          "velocity": 0.7480314960629921,
          "duration": 0.21428549999998836
        },
        {
          "name": "C6",
          "midi": 84,
          "time": 222.74977725,
          "velocity": 0.7480314960629921,
          "duration": 0.21428549999998836
        },
        {
          "name": "C7",
          "midi": 96,
          "time": 222.74977725,
          "velocity": 0.7480314960629921,
          "duration": 0.21428549999998836
        },
        {
          "name": "C4",
          "midi": 60,
          "time": 223.17834824999997,
          "velocity": 0.7480314960629921,
          "duration": 0.21428549999998836
        },
        {
          "name": "C5",
          "midi": 72,
          "time": 223.17834824999997,
          "velocity": 0.7480314960629921,
          "duration": 0.21428549999998836
        },
        {
          "name": "C6",
          "midi": 84,
          "time": 223.17834824999997,
          "velocity": 0.7480314960629921,
          "duration": 0.21428549999998836
        },
        {
          "name": "C7",
          "midi": 96,
          "time": 223.17834824999997,
          "velocity": 0.7480314960629921,
          "duration": 0.21428549999998836
        },
        {
          "name": "C4",
          "midi": 60,
          "time": 223.60691924999995,
          "velocity": 0.7480314960629921,
          "duration": 0.21428549999998836
        },
        {
          "name": "C5",
          "midi": 72,
          "time": 223.60691924999995,
          "velocity": 0.7480314960629921,
          "duration": 0.21428549999998836
        },
        {
          "name": "C6",
          "midi": 84,
          "time": 223.60691924999995,
          "velocity": 0.7480314960629921,
          "duration": 0.21428549999998836
        },
        {
          "name": "C7",
          "midi": 96,
          "time": 223.60691924999995,
          "velocity": 0.7480314960629921,
          "duration": 0.21428549999998836
        },
        {
          "name": "C4",
          "midi": 60,
          "time": 224.03549024999992,
          "velocity": 0.7480314960629921,
          "duration": 0.21428549999998836
        },
        {
          "name": "C5",
          "midi": 72,
          "time": 224.03549024999992,
          "velocity": 0.7480314960629921,
          "duration": 0.21428549999998836
        },
        {
          "name": "C6",
          "midi": 84,
          "time": 224.03549024999992,
          "velocity": 0.7480314960629921,
          "duration": 0.21428549999998836
        },
        {
          "name": "C7",
          "midi": 96,
          "time": 224.03549024999992,
          "velocity": 0.7480314960629921,
          "duration": 0.21428549999998836
        },
        {
          "name": "C4",
          "midi": 60,
          "time": 224.4640612499999,
          "velocity": 0.7480314960629921,
          "duration": 0.21428549999998836
        },
        {
          "name": "C5",
          "midi": 72,
          "time": 224.4640612499999,
          "velocity": 0.7480314960629921,
          "duration": 0.21428549999998836
        },
        {
          "name": "C6",
          "midi": 84,
          "time": 224.4640612499999,
          "velocity": 0.7480314960629921,
          "duration": 0.21428549999998836
        },
        {
          "name": "C7",
          "midi": 96,
          "time": 224.4640612499999,
          "velocity": 0.7480314960629921,
          "duration": 0.21428549999998836
        },
        {
          "name": "C4",
          "midi": 60,
          "time": 224.89263224999988,
          "velocity": 0.7480314960629921,
          "duration": 0.21428549999998836
        },
        {
          "name": "C5",
          "midi": 72,
          "time": 224.89263224999988,
          "velocity": 0.7480314960629921,
          "duration": 0.21428549999998836
        },
        {
          "name": "C6",
          "midi": 84,
          "time": 224.89263224999988,
          "velocity": 0.7480314960629921,
          "duration": 0.21428549999998836
        },
        {
          "name": "C7",
          "midi": 96,
          "time": 224.89263224999988,
          "velocity": 0.7480314960629921,
          "duration": 0.21428549999998836
        },
        {
          "name": "C4",
          "midi": 60,
          "time": 225.32120324999985,
          "velocity": 0.7480314960629921,
          "duration": 0.21428549999998836
        },
        {
          "name": "C5",
          "midi": 72,
          "time": 225.32120324999985,
          "velocity": 0.7480314960629921,
          "duration": 0.21428549999998836
        },
        {
          "name": "C6",
          "midi": 84,
          "time": 225.32120324999985,
          "velocity": 0.7480314960629921,
          "duration": 0.21428549999998836
        },
        {
          "name": "C7",
          "midi": 96,
          "time": 225.32120324999985,
          "velocity": 0.7480314960629921,
          "duration": 0.21428549999998836
        },
        {
          "name": "C4",
          "midi": 60,
          "time": 225.74977424999983,
          "velocity": 0.7480314960629921,
          "duration": 0.21428549999998836
        },
        {
          "name": "C5",
          "midi": 72,
          "time": 225.74977424999983,
          "velocity": 0.7480314960629921,
          "duration": 0.21428549999998836
        },
        {
          "name": "C6",
          "midi": 84,
          "time": 225.74977424999983,
          "velocity": 0.7480314960629921,
          "duration": 0.21428549999998836
        },
        {
          "name": "C7",
          "midi": 96,
          "time": 225.74977424999983,
          "velocity": 0.7480314960629921,
          "duration": 0.21428549999998836
        },
        {
          "name": "C4",
          "midi": 60,
          "time": 226.1783452499998,
          "velocity": 0.7480314960629921,
          "duration": 0.21428549999998836
        },
        {
          "name": "C5",
          "midi": 72,
          "time": 226.1783452499998,
          "velocity": 0.7480314960629921,
          "duration": 0.21428549999998836
        },
        {
          "name": "C6",
          "midi": 84,
          "time": 226.1783452499998,
          "velocity": 0.7480314960629921,
          "duration": 0.21428549999998836
        },
        {
          "name": "C7",
          "midi": 96,
          "time": 226.1783452499998,
          "velocity": 0.7480314960629921,
          "duration": 0.21428549999998836
        },
        {
          "name": "C4",
          "midi": 60,
          "time": 226.60691624999978,
          "velocity": 0.7480314960629921,
          "duration": 0.21428549999998836
        },
        {
          "name": "C5",
          "midi": 72,
          "time": 226.60691624999978,
          "velocity": 0.7480314960629921,
          "duration": 0.21428549999998836
        },
        {
          "name": "C6",
          "midi": 84,
          "time": 226.60691624999978,
          "velocity": 0.7480314960629921,
          "duration": 0.21428549999998836
        },
        {
          "name": "C7",
          "midi": 96,
          "time": 226.60691624999978,
          "velocity": 0.7480314960629921,
          "duration": 0.21428549999998836
        },
        {
          "name": "C4",
          "midi": 60,
          "time": 227.03548724999976,
          "velocity": 0.7480314960629921,
          "duration": 0.21428549999998836
        },
        {
          "name": "C5",
          "midi": 72,
          "time": 227.03548724999976,
          "velocity": 0.7480314960629921,
          "duration": 0.21428549999998836
        },
        {
          "name": "C6",
          "midi": 84,
          "time": 227.03548724999976,
          "velocity": 0.7480314960629921,
          "duration": 0.21428549999998836
        },
        {
          "name": "C7",
          "midi": 96,
          "time": 227.03548724999976,
          "velocity": 0.7480314960629921,
          "duration": 0.21428549999998836
        },
        {
          "name": "C4",
          "midi": 60,
          "time": 227.46405824999974,
          "velocity": 0.7480314960629921,
          "duration": 0.21428549999998836
        },
        {
          "name": "C5",
          "midi": 72,
          "time": 227.46405824999974,
          "velocity": 0.7480314960629921,
          "duration": 0.21428549999998836
        },
        {
          "name": "C6",
          "midi": 84,
          "time": 227.46405824999974,
          "velocity": 0.7480314960629921,
          "duration": 0.21428549999998836
        },
        {
          "name": "C7",
          "midi": 96,
          "time": 227.46405824999974,
          "velocity": 0.7480314960629921,
          "duration": 0.21428549999998836
        },
        {
          "name": "C4",
          "midi": 60,
          "time": 227.89262924999971,
          "velocity": 0.7480314960629921,
          "duration": 0.21428549999998836
        },
        {
          "name": "C5",
          "midi": 72,
          "time": 227.89262924999971,
          "velocity": 0.7480314960629921,
          "duration": 0.21428549999998836
        },
        {
          "name": "C6",
          "midi": 84,
          "time": 227.89262924999971,
          "velocity": 0.7480314960629921,
          "duration": 0.21428549999998836
        },
        {
          "name": "C7",
          "midi": 96,
          "time": 227.89262924999971,
          "velocity": 0.7480314960629921,
          "duration": 0.21428549999998836
        },
        {
          "name": "C4",
          "midi": 60,
          "time": 228.3212002499997,
          "velocity": 0.7480314960629921,
          "duration": 0.21428549999998836
        },
        {
          "name": "C5",
          "midi": 72,
          "time": 228.3212002499997,
          "velocity": 0.7480314960629921,
          "duration": 0.21428549999998836
        },
        {
          "name": "C6",
          "midi": 84,
          "time": 228.3212002499997,
          "velocity": 0.7480314960629921,
          "duration": 0.21428549999998836
        },
        {
          "name": "C7",
          "midi": 96,
          "time": 228.3212002499997,
          "velocity": 0.7480314960629921,
          "duration": 0.21428549999998836
        },
        {
          "name": "C4",
          "midi": 60,
          "time": 228.74977124999967,
          "velocity": 0.7480314960629921,
          "duration": 0.21428549999998836
        },
        {
          "name": "C5",
          "midi": 72,
          "time": 228.74977124999967,
          "velocity": 0.7480314960629921,
          "duration": 0.21428549999998836
        },
        {
          "name": "C6",
          "midi": 84,
          "time": 228.74977124999967,
          "velocity": 0.7480314960629921,
          "duration": 0.21428549999998836
        },
        {
          "name": "C7",
          "midi": 96,
          "time": 228.74977124999967,
          "velocity": 0.7480314960629921,
          "duration": 0.21428549999998836
        },
        {
          "name": "C4",
          "midi": 60,
          "time": 229.17834224999964,
          "velocity": 0.7480314960629921,
          "duration": 0.21428549999998836
        },
        {
          "name": "C5",
          "midi": 72,
          "time": 229.17834224999964,
          "velocity": 0.7480314960629921,
          "duration": 0.21428549999998836
        },
        {
          "name": "C6",
          "midi": 84,
          "time": 229.17834224999964,
          "velocity": 0.7480314960629921,
          "duration": 0.21428549999998836
        },
        {
          "name": "C7",
          "midi": 96,
          "time": 229.17834224999964,
          "velocity": 0.7480314960629921,
          "duration": 0.21428549999998836
        },
        {
          "name": "C4",
          "midi": 60,
          "time": 229.60691324999962,
          "velocity": 0.7480314960629921,
          "duration": 0.21428549999998836
        },
        {
          "name": "C5",
          "midi": 72,
          "time": 229.60691324999962,
          "velocity": 0.7480314960629921,
          "duration": 0.21428549999998836
        },
        {
          "name": "C6",
          "midi": 84,
          "time": 229.60691324999962,
          "velocity": 0.7480314960629921,
          "duration": 0.21428549999998836
        },
        {
          "name": "C7",
          "midi": 96,
          "time": 229.60691324999962,
          "velocity": 0.7480314960629921,
          "duration": 0.21428549999998836
        },
        {
          "name": "C4",
          "midi": 60,
          "time": 230.0354842499996,
          "velocity": 0.7480314960629921,
          "duration": 0.21428549999998836
        },
        {
          "name": "C5",
          "midi": 72,
          "time": 230.0354842499996,
          "velocity": 0.7480314960629921,
          "duration": 0.21428549999998836
        },
        {
          "name": "C6",
          "midi": 84,
          "time": 230.0354842499996,
          "velocity": 0.7480314960629921,
          "duration": 0.21428549999998836
        },
        {
          "name": "C7",
          "midi": 96,
          "time": 230.0354842499996,
          "velocity": 0.7480314960629921,
          "duration": 0.21428549999998836
        },
        {
          "name": "C4",
          "midi": 60,
          "time": 230.46405524999957,
          "velocity": 0.7480314960629921,
          "duration": 0.21428549999998836
        },
        {
          "name": "C5",
          "midi": 72,
          "time": 230.46405524999957,
          "velocity": 0.7480314960629921,
          "duration": 0.21428549999998836
        },
        {
          "name": "C6",
          "midi": 84,
          "time": 230.46405524999957,
          "velocity": 0.7480314960629921,
          "duration": 0.21428549999998836
        },
        {
          "name": "C7",
          "midi": 96,
          "time": 230.46405524999957,
          "velocity": 0.7480314960629921,
          "duration": 0.21428549999998836
        },
        {
          "name": "C4",
          "midi": 60,
          "time": 230.89262624999955,
          "velocity": 0.7480314960629921,
          "duration": 0.21428549999998836
        },
        {
          "name": "C5",
          "midi": 72,
          "time": 230.89262624999955,
          "velocity": 0.7480314960629921,
          "duration": 0.21428549999998836
        },
        {
          "name": "C6",
          "midi": 84,
          "time": 230.89262624999955,
          "velocity": 0.7480314960629921,
          "duration": 0.21428549999998836
        },
        {
          "name": "C7",
          "midi": 96,
          "time": 230.89262624999955,
          "velocity": 0.7480314960629921,
          "duration": 0.21428549999998836
        },
        {
          "name": "C4",
          "midi": 60,
          "time": 231.32119724999953,
          "velocity": 0.7480314960629921,
          "duration": 0.21428549999998836
        },
        {
          "name": "C5",
          "midi": 72,
          "time": 231.32119724999953,
          "velocity": 0.7480314960629921,
          "duration": 0.21428549999998836
        },
        {
          "name": "C6",
          "midi": 84,
          "time": 231.32119724999953,
          "velocity": 0.7480314960629921,
          "duration": 0.21428549999998836
        },
        {
          "name": "C7",
          "midi": 96,
          "time": 231.32119724999953,
          "velocity": 0.7480314960629921,
          "duration": 0.21428549999998836
        },
        {
          "name": "E4",
          "midi": 64,
          "time": 233.2497667499995,
          "velocity": 0.7480314960629921,
          "duration": 3.4285680000000127
        },
        {
          "name": "E5",
          "midi": 76,
          "time": 233.2497667499995,
          "velocity": 0.7480314960629921,
          "duration": 3.4285680000000127
        },
        {
          "name": "E6",
          "midi": 88,
          "time": 233.2497667499995,
          "velocity": 0.7480314960629921,
          "duration": 3.4285680000000127
        },
        {
          "name": "E7",
          "midi": 100,
          "time": 233.2497667499995,
          "velocity": 0.7480314960629921,
          "duration": 3.4285680000000127
        },
        {
          "name": "C4",
          "midi": 60,
          "time": 236.67833474999952,
          "velocity": 0.7480314960629921,
          "duration": 3.4285680000000127
        },
        {
          "name": "C5",
          "midi": 72,
          "time": 236.67833474999952,
          "velocity": 0.7480314960629921,
          "duration": 3.4285680000000127
        },
        {
          "name": "C6",
          "midi": 84,
          "time": 236.67833474999952,
          "velocity": 0.7480314960629921,
          "duration": 3.4285680000000127
        },
        {
          "name": "C7",
          "midi": 96,
          "time": 236.67833474999952,
          "velocity": 0.7480314960629921,
          "duration": 3.4285680000000127
        },
        {
          "name": "C#4",
          "midi": 61,
          "time": 240.10690274999953,
          "velocity": 0.7480314960629921,
          "duration": 3.4285680000000127
        },
        {
          "name": "C#5",
          "midi": 73,
          "time": 240.10690274999953,
          "velocity": 0.7480314960629921,
          "duration": 3.4285680000000127
        },
        {
          "name": "C#6",
          "midi": 85,
          "time": 240.10690274999953,
          "velocity": 0.7480314960629921,
          "duration": 3.4285680000000127
        },
        {
          "name": "C#7",
          "midi": 97,
          "time": 240.10690274999953,
          "velocity": 0.7480314960629921,
          "duration": 3.4285680000000127
        },
        {
          "name": "D4",
          "midi": 62,
          "time": 243.53547074999955,
          "velocity": 0.7480314960629921,
          "duration": 1.7142839999999921
        },
        {
          "name": "D5",
          "midi": 74,
          "time": 243.53547074999955,
          "velocity": 0.7480314960629921,
          "duration": 1.7142839999999921
        },
        {
          "name": "D6",
          "midi": 86,
          "time": 243.53547074999955,
          "velocity": 0.7480314960629921,
          "duration": 1.7142839999999921
        },
        {
          "name": "D7",
          "midi": 98,
          "time": 243.53547074999955,
          "velocity": 0.7480314960629921,
          "duration": 1.7142839999999921
        },
        {
          "name": "D#4",
          "midi": 63,
          "time": 245.24975474999954,
          "velocity": 0.7480314960629921,
          "duration": 1.7142839999999921
        },
        {
          "name": "D#5",
          "midi": 75,
          "time": 245.24975474999954,
          "velocity": 0.7480314960629921,
          "duration": 1.7142839999999921
        },
        {
          "name": "D#6",
          "midi": 87,
          "time": 245.24975474999954,
          "velocity": 0.7480314960629921,
          "duration": 1.7142839999999921
        },
        {
          "name": "D#7",
          "midi": 99,
          "time": 245.24975474999954,
          "velocity": 0.7480314960629921,
          "duration": 1.7142839999999921
        },
        {
          "name": "E4",
          "midi": 64,
          "time": 246.96403874999953,
          "velocity": 0.7480314960629921,
          "duration": 3.4285680000000127
        },
        {
          "name": "E5",
          "midi": 76,
          "time": 246.96403874999953,
          "velocity": 0.7480314960629921,
          "duration": 3.4285680000000127
        },
        {
          "name": "E6",
          "midi": 88,
          "time": 246.96403874999953,
          "velocity": 0.7480314960629921,
          "duration": 3.4285680000000127
        },
        {
          "name": "E7",
          "midi": 100,
          "time": 246.96403874999953,
          "velocity": 0.7480314960629921,
          "duration": 3.4285680000000127
        },
        {
          "name": "C4",
          "midi": 60,
          "time": 250.39260674999954,
          "velocity": 0.7480314960629921,
          "duration": 3.4285680000000127
        },
        {
          "name": "C5",
          "midi": 72,
          "time": 250.39260674999954,
          "velocity": 0.7480314960629921,
          "duration": 3.4285680000000127
        },
        {
          "name": "C6",
          "midi": 84,
          "time": 250.39260674999954,
          "velocity": 0.7480314960629921,
          "duration": 3.4285680000000127
        },
        {
          "name": "C7",
          "midi": 96,
          "time": 250.39260674999954,
          "velocity": 0.7480314960629921,
          "duration": 3.4285680000000127
        },
        {
          "name": "C#4",
          "midi": 61,
          "time": 253.82117474999956,
          "velocity": 0.7480314960629921,
          "duration": 3.4285679999999843
        },
        {
          "name": "C#5",
          "midi": 73,
          "time": 253.82117474999956,
          "velocity": 0.7480314960629921,
          "duration": 3.4285679999999843
        },
        {
          "name": "C#6",
          "midi": 85,
          "time": 253.82117474999956,
          "velocity": 0.7480314960629921,
          "duration": 3.4285679999999843
        },
        {
          "name": "C#7",
          "midi": 97,
          "time": 253.82117474999956,
          "velocity": 0.7480314960629921,
          "duration": 3.4285679999999843
        },
        {
          "name": "D4",
          "midi": 62,
          "time": 257.24974274999954,
          "velocity": 0.7480314960629921,
          "duration": 1.7142840000000206
        },
        {
          "name": "D5",
          "midi": 74,
          "time": 257.24974274999954,
          "velocity": 0.7480314960629921,
          "duration": 1.7142840000000206
        },
        {
          "name": "D6",
          "midi": 86,
          "time": 257.24974274999954,
          "velocity": 0.7480314960629921,
          "duration": 1.7142840000000206
        },
        {
          "name": "D7",
          "midi": 98,
          "time": 257.24974274999954,
          "velocity": 0.7480314960629921,
          "duration": 1.7142840000000206
        },
        {
          "name": "D#4",
          "midi": 63,
          "time": 258.96402674999956,
          "velocity": 0.7480314960629921,
          "duration": 1.7142840000000206
        },
        {
          "name": "D#5",
          "midi": 75,
          "time": 258.96402674999956,
          "velocity": 0.7480314960629921,
          "duration": 1.7142840000000206
        },
        {
          "name": "D#6",
          "midi": 87,
          "time": 258.96402674999956,
          "velocity": 0.7480314960629921,
          "duration": 1.7142840000000206
        },
        {
          "name": "D#7",
          "midi": 99,
          "time": 258.96402674999956,
          "velocity": 0.7480314960629921,
          "duration": 1.7142840000000206
        },
        {
          "name": "E4",
          "midi": 64,
          "time": 287.99971199999953,
          "velocity": 0.7480314960629921,
          "duration": 0.4285709999999767
        },
        {
          "name": "E5",
          "midi": 76,
          "time": 287.99971199999953,
          "velocity": 0.7480314960629921,
          "duration": 0.4285709999999767
        },
        {
          "name": "E6",
          "midi": 88,
          "time": 287.99971199999953,
          "velocity": 0.7480314960629921,
          "duration": 0.4285709999999767
        },
        {
          "name": "E7",
          "midi": 100,
          "time": 287.99971199999953,
          "velocity": 0.7480314960629921,
          "duration": 0.4285709999999767
        },
        {
          "name": "E4",
          "midi": 64,
          "time": 288.4282829999995,
          "velocity": 0.7480314960629921,
          "duration": 0.4285709999999767
        },
        {
          "name": "E5",
          "midi": 76,
          "time": 288.4282829999995,
          "velocity": 0.7480314960629921,
          "duration": 0.4285709999999767
        },
        {
          "name": "E6",
          "midi": 88,
          "time": 288.4282829999995,
          "velocity": 0.7480314960629921,
          "duration": 0.4285709999999767
        },
        {
          "name": "E7",
          "midi": 100,
          "time": 288.4282829999995,
          "velocity": 0.7480314960629921,
          "duration": 0.4285709999999767
        },
        {
          "name": "E4",
          "midi": 64,
          "time": 288.8568539999995,
          "velocity": 0.7480314960629921,
          "duration": 0.4285709999999767
        },
        {
          "name": "E5",
          "midi": 76,
          "time": 288.8568539999995,
          "velocity": 0.7480314960629921,
          "duration": 0.4285709999999767
        },
        {
          "name": "E6",
          "midi": 88,
          "time": 288.8568539999995,
          "velocity": 0.7480314960629921,
          "duration": 0.4285709999999767
        },
        {
          "name": "E7",
          "midi": 100,
          "time": 288.8568539999995,
          "velocity": 0.7480314960629921,
          "duration": 0.4285709999999767
        },
        {
          "name": "E4",
          "midi": 64,
          "time": 289.28542499999946,
          "velocity": 0.7480314960629921,
          "duration": 0.21428550000001678
        },
        {
          "name": "E5",
          "midi": 76,
          "time": 289.28542499999946,
          "velocity": 0.7480314960629921,
          "duration": 0.21428550000001678
        },
        {
          "name": "E6",
          "midi": 88,
          "time": 289.28542499999946,
          "velocity": 0.7480314960629921,
          "duration": 0.21428550000001678
        },
        {
          "name": "E7",
          "midi": 100,
          "time": 289.28542499999946,
          "velocity": 0.7480314960629921,
          "duration": 0.21428550000001678
        },
        {
          "name": "E4",
          "midi": 64,
          "time": 289.4997104999995,
          "velocity": 0.7480314960629921,
          "duration": 0.21428550000001678
        },
        {
          "name": "E5",
          "midi": 76,
          "time": 289.4997104999995,
          "velocity": 0.7480314960629921,
          "duration": 0.21428550000001678
        },
        {
          "name": "E6",
          "midi": 88,
          "time": 289.4997104999995,
          "velocity": 0.7480314960629921,
          "duration": 0.21428550000001678
        },
        {
          "name": "E7",
          "midi": 100,
          "time": 289.4997104999995,
          "velocity": 0.7480314960629921,
          "duration": 0.21428550000001678
        },
        {
          "name": "E4",
          "midi": 64,
          "time": 289.9282814999995,
          "velocity": 0.7480314960629921,
          "duration": 0.21428550000001678
        },
        {
          "name": "E5",
          "midi": 76,
          "time": 289.9282814999995,
          "velocity": 0.7480314960629921,
          "duration": 0.21428550000001678
        },
        {
          "name": "E6",
          "midi": 88,
          "time": 289.9282814999995,
          "velocity": 0.7480314960629921,
          "duration": 0.21428550000001678
        },
        {
          "name": "E7",
          "midi": 100,
          "time": 289.9282814999995,
          "velocity": 0.7480314960629921,
          "duration": 0.21428550000001678
        },
        {
          "name": "E4",
          "midi": 64,
          "time": 290.14256699999953,
          "velocity": 0.7480314960629921,
          "duration": 0.4285709999999767
        },
        {
          "name": "E5",
          "midi": 76,
          "time": 290.14256699999953,
          "velocity": 0.7480314960629921,
          "duration": 0.4285709999999767
        },
        {
          "name": "E6",
          "midi": 88,
          "time": 290.14256699999953,
          "velocity": 0.7480314960629921,
          "duration": 0.4285709999999767
        },
        {
          "name": "E7",
          "midi": 100,
          "time": 290.14256699999953,
          "velocity": 0.7480314960629921,
          "duration": 0.4285709999999767
        },
        {
          "name": "E4",
          "midi": 64,
          "time": 290.5711379999995,
          "velocity": 0.7480314960629921,
          "duration": 0.4285709999999767
        },
        {
          "name": "E5",
          "midi": 76,
          "time": 290.5711379999995,
          "velocity": 0.7480314960629921,
          "duration": 0.4285709999999767
        },
        {
          "name": "E6",
          "midi": 88,
          "time": 290.5711379999995,
          "velocity": 0.7480314960629921,
          "duration": 0.4285709999999767
        },
        {
          "name": "E7",
          "midi": 100,
          "time": 290.5711379999995,
          "velocity": 0.7480314960629921,
          "duration": 0.4285709999999767
        },
        {
          "name": "E4",
          "midi": 64,
          "time": 290.9997089999995,
          "velocity": 0.7480314960629921,
          "duration": 0.21428550000001678
        },
        {
          "name": "E5",
          "midi": 76,
          "time": 290.9997089999995,
          "velocity": 0.7480314960629921,
          "duration": 0.21428550000001678
        },
        {
          "name": "E6",
          "midi": 88,
          "time": 290.9997089999995,
          "velocity": 0.7480314960629921,
          "duration": 0.21428550000001678
        },
        {
          "name": "E7",
          "midi": 100,
          "time": 290.9997089999995,
          "velocity": 0.7480314960629921,
          "duration": 0.21428550000001678
        },
        {
          "name": "E4",
          "midi": 64,
          "time": 291.2139944999995,
          "velocity": 0.7480314960629921,
          "duration": 0.21428550000001678
        },
        {
          "name": "E5",
          "midi": 76,
          "time": 291.2139944999995,
          "velocity": 0.7480314960629921,
          "duration": 0.21428550000001678
        },
        {
          "name": "E6",
          "midi": 88,
          "time": 291.2139944999995,
          "velocity": 0.7480314960629921,
          "duration": 0.21428550000001678
        },
        {
          "name": "E7",
          "midi": 100,
          "time": 291.2139944999995,
          "velocity": 0.7480314960629921,
          "duration": 0.21428550000001678
        },
        {
          "name": "E4",
          "midi": 64,
          "time": 291.4282799999995,
          "velocity": 0.7480314960629921,
          "duration": 0.4285709999999767
        },
        {
          "name": "E5",
          "midi": 76,
          "time": 291.4282799999995,
          "velocity": 0.7480314960629921,
          "duration": 0.4285709999999767
        },
        {
          "name": "E6",
          "midi": 88,
          "time": 291.4282799999995,
          "velocity": 0.7480314960629921,
          "duration": 0.4285709999999767
        },
        {
          "name": "E7",
          "midi": 100,
          "time": 291.4282799999995,
          "velocity": 0.7480314960629921,
          "duration": 0.4285709999999767
        },
        {
          "name": "E4",
          "midi": 64,
          "time": 291.8568509999995,
          "velocity": 0.7480314960629921,
          "duration": 0.4285709999999767
        },
        {
          "name": "E5",
          "midi": 76,
          "time": 291.8568509999995,
          "velocity": 0.7480314960629921,
          "duration": 0.4285709999999767
        },
        {
          "name": "E6",
          "midi": 88,
          "time": 291.8568509999995,
          "velocity": 0.7480314960629921,
          "duration": 0.4285709999999767
        },
        {
          "name": "E7",
          "midi": 100,
          "time": 291.8568509999995,
          "velocity": 0.7480314960629921,
          "duration": 0.4285709999999767
        },
        {
          "name": "E4",
          "midi": 64,
          "time": 292.28542199999947,
          "velocity": 0.7480314960629921,
          "duration": 0.4285709999999767
        },
        {
          "name": "E5",
          "midi": 76,
          "time": 292.28542199999947,
          "velocity": 0.7480314960629921,
          "duration": 0.4285709999999767
        },
        {
          "name": "E6",
          "midi": 88,
          "time": 292.28542199999947,
          "velocity": 0.7480314960629921,
          "duration": 0.4285709999999767
        },
        {
          "name": "E7",
          "midi": 100,
          "time": 292.28542199999947,
          "velocity": 0.7480314960629921,
          "duration": 0.4285709999999767
        },
        {
          "name": "E4",
          "midi": 64,
          "time": 292.71399299999945,
          "velocity": 0.7480314960629921,
          "duration": 0.21428550000001678
        },
        {
          "name": "E5",
          "midi": 76,
          "time": 292.71399299999945,
          "velocity": 0.7480314960629921,
          "duration": 0.21428550000001678
        },
        {
          "name": "E6",
          "midi": 88,
          "time": 292.71399299999945,
          "velocity": 0.7480314960629921,
          "duration": 0.21428550000001678
        },
        {
          "name": "E7",
          "midi": 100,
          "time": 292.71399299999945,
          "velocity": 0.7480314960629921,
          "duration": 0.21428550000001678
        },
        {
          "name": "E4",
          "midi": 64,
          "time": 292.92827849999946,
          "velocity": 0.7480314960629921,
          "duration": 0.21428550000001678
        },
        {
          "name": "E5",
          "midi": 76,
          "time": 292.92827849999946,
          "velocity": 0.7480314960629921,
          "duration": 0.21428550000001678
        },
        {
          "name": "E6",
          "midi": 88,
          "time": 292.92827849999946,
          "velocity": 0.7480314960629921,
          "duration": 0.21428550000001678
        },
        {
          "name": "E7",
          "midi": 100,
          "time": 292.92827849999946,
          "velocity": 0.7480314960629921,
          "duration": 0.21428550000001678
        },
        {
          "name": "E4",
          "midi": 64,
          "time": 293.3568494999995,
          "velocity": 0.7480314960629921,
          "duration": 0.21428550000001678
        },
        {
          "name": "E5",
          "midi": 76,
          "time": 293.3568494999995,
          "velocity": 0.7480314960629921,
          "duration": 0.21428550000001678
        },
        {
          "name": "E6",
          "midi": 88,
          "time": 293.3568494999995,
          "velocity": 0.7480314960629921,
          "duration": 0.21428550000001678
        },
        {
          "name": "E7",
          "midi": 100,
          "time": 293.3568494999995,
          "velocity": 0.7480314960629921,
          "duration": 0.21428550000001678
        },
        {
          "name": "E4",
          "midi": 64,
          "time": 293.5711349999995,
          "velocity": 0.7480314960629921,
          "duration": 0.4285709999999767
        },
        {
          "name": "E5",
          "midi": 76,
          "time": 293.5711349999995,
          "velocity": 0.7480314960629921,
          "duration": 0.4285709999999767
        },
        {
          "name": "E6",
          "midi": 88,
          "time": 293.5711349999995,
          "velocity": 0.7480314960629921,
          "duration": 0.4285709999999767
        },
        {
          "name": "E7",
          "midi": 100,
          "time": 293.5711349999995,
          "velocity": 0.7480314960629921,
          "duration": 0.4285709999999767
        },
        {
          "name": "E4",
          "midi": 64,
          "time": 293.9997059999995,
          "velocity": 0.7480314960629921,
          "duration": 0.4285709999999767
        },
        {
          "name": "E5",
          "midi": 76,
          "time": 293.9997059999995,
          "velocity": 0.7480314960629921,
          "duration": 0.4285709999999767
        },
        {
          "name": "E6",
          "midi": 88,
          "time": 293.9997059999995,
          "velocity": 0.7480314960629921,
          "duration": 0.4285709999999767
        },
        {
          "name": "E7",
          "midi": 100,
          "time": 293.9997059999995,
          "velocity": 0.7480314960629921,
          "duration": 0.4285709999999767
        },
        {
          "name": "E4",
          "midi": 64,
          "time": 294.42827699999947,
          "velocity": 0.7480314960629921,
          "duration": 0.21428550000001678
        },
        {
          "name": "E5",
          "midi": 76,
          "time": 294.42827699999947,
          "velocity": 0.7480314960629921,
          "duration": 0.21428550000001678
        },
        {
          "name": "E6",
          "midi": 88,
          "time": 294.42827699999947,
          "velocity": 0.7480314960629921,
          "duration": 0.21428550000001678
        },
        {
          "name": "E7",
          "midi": 100,
          "time": 294.42827699999947,
          "velocity": 0.7480314960629921,
          "duration": 0.21428550000001678
        },
        {
          "name": "E4",
          "midi": 64,
          "time": 294.6425624999995,
          "velocity": 0.7480314960629921,
          "duration": 0.21428550000001678
        },
        {
          "name": "E5",
          "midi": 76,
          "time": 294.6425624999995,
          "velocity": 0.7480314960629921,
          "duration": 0.21428550000001678
        },
        {
          "name": "E6",
          "midi": 88,
          "time": 294.6425624999995,
          "velocity": 0.7480314960629921,
          "duration": 0.21428550000001678
        },
        {
          "name": "E7",
          "midi": 100,
          "time": 294.6425624999995,
          "velocity": 0.7480314960629921,
          "duration": 0.21428550000001678
        },
        {
          "name": "C4",
          "midi": 60,
          "time": 294.8568479999995,
          "velocity": 0.7480314960629921,
          "duration": 0.4285709999999767
        },
        {
          "name": "C5",
          "midi": 72,
          "time": 294.8568479999995,
          "velocity": 0.7480314960629921,
          "duration": 0.4285709999999767
        },
        {
          "name": "C6",
          "midi": 84,
          "time": 294.8568479999995,
          "velocity": 0.7480314960629921,
          "duration": 0.4285709999999767
        },
        {
          "name": "C7",
          "midi": 96,
          "time": 294.8568479999995,
          "velocity": 0.7480314960629921,
          "duration": 0.4285709999999767
        },
        {
          "name": "C4",
          "midi": 60,
          "time": 295.2854189999995,
          "velocity": 0.7480314960629921,
          "duration": 0.4285709999999767
        },
        {
          "name": "C5",
          "midi": 72,
          "time": 295.2854189999995,
          "velocity": 0.7480314960629921,
          "duration": 0.4285709999999767
        },
        {
          "name": "C6",
          "midi": 84,
          "time": 295.2854189999995,
          "velocity": 0.7480314960629921,
          "duration": 0.4285709999999767
        },
        {
          "name": "C7",
          "midi": 96,
          "time": 295.2854189999995,
          "velocity": 0.7480314960629921,
          "duration": 0.4285709999999767
        },
        {
          "name": "C4",
          "midi": 60,
          "time": 295.71398999999946,
          "velocity": 0.7480314960629921,
          "duration": 0.4285709999999767
        },
        {
          "name": "C5",
          "midi": 72,
          "time": 295.71398999999946,
          "velocity": 0.7480314960629921,
          "duration": 0.4285709999999767
        },
        {
          "name": "C6",
          "midi": 84,
          "time": 295.71398999999946,
          "velocity": 0.7480314960629921,
          "duration": 0.4285709999999767
        },
        {
          "name": "C7",
          "midi": 96,
          "time": 295.71398999999946,
          "velocity": 0.7480314960629921,
          "duration": 0.4285709999999767
        },
        {
          "name": "C4",
          "midi": 60,
          "time": 296.14256099999943,
          "velocity": 0.7480314960629921,
          "duration": 0.21428550000001678
        },
        {
          "name": "C5",
          "midi": 72,
          "time": 296.14256099999943,
          "velocity": 0.7480314960629921,
          "duration": 0.21428550000001678
        },
        {
          "name": "C6",
          "midi": 84,
          "time": 296.14256099999943,
          "velocity": 0.7480314960629921,
          "duration": 0.21428550000001678
        },
        {
          "name": "C7",
          "midi": 96,
          "time": 296.14256099999943,
          "velocity": 0.7480314960629921,
          "duration": 0.21428550000001678
        },
        {
          "name": "C4",
          "midi": 60,
          "time": 296.35684649999945,
          "velocity": 0.7480314960629921,
          "duration": 0.21428550000001678
        },
        {
          "name": "C5",
          "midi": 72,
          "time": 296.35684649999945,
          "velocity": 0.7480314960629921,
          "duration": 0.21428550000001678
        },
        {
          "name": "C6",
          "midi": 84,
          "time": 296.35684649999945,
          "velocity": 0.7480314960629921,
          "duration": 0.21428550000001678
        },
        {
          "name": "C7",
          "midi": 96,
          "time": 296.35684649999945,
          "velocity": 0.7480314960629921,
          "duration": 0.21428550000001678
        },
        {
          "name": "C4",
          "midi": 60,
          "time": 296.7854174999995,
          "velocity": 0.7480314960629921,
          "duration": 0.21428550000001678
        },
        {
          "name": "C5",
          "midi": 72,
          "time": 296.7854174999995,
          "velocity": 0.7480314960629921,
          "duration": 0.21428550000001678
        },
        {
          "name": "C6",
          "midi": 84,
          "time": 296.7854174999995,
          "velocity": 0.7480314960629921,
          "duration": 0.21428550000001678
        },
        {
          "name": "C7",
          "midi": 96,
          "time": 296.7854174999995,
          "velocity": 0.7480314960629921,
          "duration": 0.21428550000001678
        },
        {
          "name": "C4",
          "midi": 60,
          "time": 296.9997029999995,
          "velocity": 0.7480314960629921,
          "duration": 0.4285709999999767
        },
        {
          "name": "C5",
          "midi": 72,
          "time": 296.9997029999995,
          "velocity": 0.7480314960629921,
          "duration": 0.4285709999999767
        },
        {
          "name": "C6",
          "midi": 84,
          "time": 296.9997029999995,
          "velocity": 0.7480314960629921,
          "duration": 0.4285709999999767
        },
        {
          "name": "C7",
          "midi": 96,
          "time": 296.9997029999995,
          "velocity": 0.7480314960629921,
          "duration": 0.4285709999999767
        },
        {
          "name": "C4",
          "midi": 60,
          "time": 297.4282739999995,
          "velocity": 0.7480314960629921,
          "duration": 0.4285709999999767
        },
        {
          "name": "C5",
          "midi": 72,
          "time": 297.4282739999995,
          "velocity": 0.7480314960629921,
          "duration": 0.4285709999999767
        },
        {
          "name": "C6",
          "midi": 84,
          "time": 297.4282739999995,
          "velocity": 0.7480314960629921,
          "duration": 0.4285709999999767
        },
        {
          "name": "C7",
          "midi": 96,
          "time": 297.4282739999995,
          "velocity": 0.7480314960629921,
          "duration": 0.4285709999999767
        },
        {
          "name": "C4",
          "midi": 60,
          "time": 297.85684499999945,
          "velocity": 0.7480314960629921,
          "duration": 0.21428550000001678
        },
        {
          "name": "C5",
          "midi": 72,
          "time": 297.85684499999945,
          "velocity": 0.7480314960629921,
          "duration": 0.21428550000001678
        },
        {
          "name": "C6",
          "midi": 84,
          "time": 297.85684499999945,
          "velocity": 0.7480314960629921,
          "duration": 0.21428550000001678
        },
        {
          "name": "C7",
          "midi": 96,
          "time": 297.85684499999945,
          "velocity": 0.7480314960629921,
          "duration": 0.21428550000001678
        },
        {
          "name": "C4",
          "midi": 60,
          "time": 298.07113049999947,
          "velocity": 0.7480314960629921,
          "duration": 0.21428550000001678
        },
        {
          "name": "C5",
          "midi": 72,
          "time": 298.07113049999947,
          "velocity": 0.7480314960629921,
          "duration": 0.21428550000001678
        },
        {
          "name": "C6",
          "midi": 84,
          "time": 298.07113049999947,
          "velocity": 0.7480314960629921,
          "duration": 0.21428550000001678
        },
        {
          "name": "C7",
          "midi": 96,
          "time": 298.07113049999947,
          "velocity": 0.7480314960629921,
          "duration": 0.21428550000001678
        },
        {
          "name": "D#4",
          "midi": 63,
          "time": 298.2854159999995,
          "velocity": 0.7480314960629921,
          "duration": 0.4285709999999767
        },
        {
          "name": "D#5",
          "midi": 75,
          "time": 298.2854159999995,
          "velocity": 0.7480314960629921,
          "duration": 0.4285709999999767
        },
        {
          "name": "D#6",
          "midi": 87,
          "time": 298.2854159999995,
          "velocity": 0.7480314960629921,
          "duration": 0.4285709999999767
        },
        {
          "name": "D#7",
          "midi": 99,
          "time": 298.2854159999995,
          "velocity": 0.7480314960629921,
          "duration": 0.4285709999999767
        },
        {
          "name": "D#4",
          "midi": 63,
          "time": 298.71398699999946,
          "velocity": 0.7480314960629921,
          "duration": 0.4285709999999767
        },
        {
          "name": "D#5",
          "midi": 75,
          "time": 298.71398699999946,
          "velocity": 0.7480314960629921,
          "duration": 0.4285709999999767
        },
        {
          "name": "D#6",
          "midi": 87,
          "time": 298.71398699999946,
          "velocity": 0.7480314960629921,
          "duration": 0.4285709999999767
        },
        {
          "name": "D#7",
          "midi": 99,
          "time": 298.71398699999946,
          "velocity": 0.7480314960629921,
          "duration": 0.4285709999999767
        },
        {
          "name": "D#4",
          "midi": 63,
          "time": 299.14255799999944,
          "velocity": 0.7480314960629921,
          "duration": 0.4285709999999767
        },
        {
          "name": "D#5",
          "midi": 75,
          "time": 299.14255799999944,
          "velocity": 0.7480314960629921,
          "duration": 0.4285709999999767
        },
        {
          "name": "D#6",
          "midi": 87,
          "time": 299.14255799999944,
          "velocity": 0.7480314960629921,
          "duration": 0.4285709999999767
        },
        {
          "name": "D#7",
          "midi": 99,
          "time": 299.14255799999944,
          "velocity": 0.7480314960629921,
          "duration": 0.4285709999999767
        },
        {
          "name": "D#4",
          "midi": 63,
          "time": 299.5711289999994,
          "velocity": 0.7480314960629921,
          "duration": 0.21428550000001678
        },
        {
          "name": "D#5",
          "midi": 75,
          "time": 299.5711289999994,
          "velocity": 0.7480314960629921,
          "duration": 0.21428550000001678
        },
        {
          "name": "D#6",
          "midi": 87,
          "time": 299.5711289999994,
          "velocity": 0.7480314960629921,
          "duration": 0.21428550000001678
        },
        {
          "name": "D#7",
          "midi": 99,
          "time": 299.5711289999994,
          "velocity": 0.7480314960629921,
          "duration": 0.21428550000001678
        },
        {
          "name": "D#4",
          "midi": 63,
          "time": 299.78541449999943,
          "velocity": 0.7480314960629921,
          "duration": 0.21428550000001678
        },
        {
          "name": "D#5",
          "midi": 75,
          "time": 299.78541449999943,
          "velocity": 0.7480314960629921,
          "duration": 0.21428550000001678
        },
        {
          "name": "D#6",
          "midi": 87,
          "time": 299.78541449999943,
          "velocity": 0.7480314960629921,
          "duration": 0.21428550000001678
        },
        {
          "name": "D#7",
          "midi": 99,
          "time": 299.78541449999943,
          "velocity": 0.7480314960629921,
          "duration": 0.21428550000001678
        },
        {
          "name": "C#4",
          "midi": 61,
          "time": 300.21398549999947,
          "velocity": 0.7480314960629921,
          "duration": 0.21428550000001678
        },
        {
          "name": "C#5",
          "midi": 73,
          "time": 300.21398549999947,
          "velocity": 0.7480314960629921,
          "duration": 0.21428550000001678
        },
        {
          "name": "C#6",
          "midi": 85,
          "time": 300.21398549999947,
          "velocity": 0.7480314960629921,
          "duration": 0.21428550000001678
        },
        {
          "name": "C#7",
          "midi": 97,
          "time": 300.21398549999947,
          "velocity": 0.7480314960629921,
          "duration": 0.21428550000001678
        },
        {
          "name": "C#4",
          "midi": 61,
          "time": 300.4282709999995,
          "velocity": 0.7480314960629921,
          "duration": 0.4285709999999767
        },
        {
          "name": "C#5",
          "midi": 73,
          "time": 300.4282709999995,
          "velocity": 0.7480314960629921,
          "duration": 0.4285709999999767
        },
        {
          "name": "C#6",
          "midi": 85,
          "time": 300.4282709999995,
          "velocity": 0.7480314960629921,
          "duration": 0.4285709999999767
        },
        {
          "name": "C#7",
          "midi": 97,
          "time": 300.4282709999995,
          "velocity": 0.7480314960629921,
          "duration": 0.4285709999999767
        },
        {
          "name": "C#4",
          "midi": 61,
          "time": 300.85684199999946,
          "velocity": 0.7480314960629921,
          "duration": 0.4285709999999767
        },
        {
          "name": "C#5",
          "midi": 73,
          "time": 300.85684199999946,
          "velocity": 0.7480314960629921,
          "duration": 0.4285709999999767
        },
        {
          "name": "C#6",
          "midi": 85,
          "time": 300.85684199999946,
          "velocity": 0.7480314960629921,
          "duration": 0.4285709999999767
        },
        {
          "name": "C#7",
          "midi": 97,
          "time": 300.85684199999946,
          "velocity": 0.7480314960629921,
          "duration": 0.4285709999999767
        },
        {
          "name": "C#4",
          "midi": 61,
          "time": 301.28541299999944,
          "velocity": 0.7480314960629921,
          "duration": 0.21428550000001678
        },
        {
          "name": "C#5",
          "midi": 73,
          "time": 301.28541299999944,
          "velocity": 0.7480314960629921,
          "duration": 0.21428550000001678
        },
        {
          "name": "C#6",
          "midi": 85,
          "time": 301.28541299999944,
          "velocity": 0.7480314960629921,
          "duration": 0.21428550000001678
        },
        {
          "name": "C#7",
          "midi": 97,
          "time": 301.28541299999944,
          "velocity": 0.7480314960629921,
          "duration": 0.21428550000001678
        },
        {
          "name": "C#4",
          "midi": 61,
          "time": 301.49969849999945,
          "velocity": 0.7480314960629921,
          "duration": 0.21428550000001678
        },
        {
          "name": "C#5",
          "midi": 73,
          "time": 301.49969849999945,
          "velocity": 0.7480314960629921,
          "duration": 0.21428550000001678
        },
        {
          "name": "C#6",
          "midi": 85,
          "time": 301.49969849999945,
          "velocity": 0.7480314960629921,
          "duration": 0.21428550000001678
        },
        {
          "name": "C#7",
          "midi": 97,
          "time": 301.49969849999945,
          "velocity": 0.7480314960629921,
          "duration": 0.21428550000001678
        },
        {
          "name": "E4",
          "midi": 64,
          "time": 301.71398399999947,
          "velocity": 0.7480314960629921,
          "duration": 0.4285709999999767
        },
        {
          "name": "E5",
          "midi": 76,
          "time": 301.71398399999947,
          "velocity": 0.7480314960629921,
          "duration": 0.4285709999999767
        },
        {
          "name": "E6",
          "midi": 88,
          "time": 301.71398399999947,
          "velocity": 0.7480314960629921,
          "duration": 0.4285709999999767
        },
        {
          "name": "E7",
          "midi": 100,
          "time": 301.71398399999947,
          "velocity": 0.7480314960629921,
          "duration": 0.4285709999999767
        },
        {
          "name": "E4",
          "midi": 64,
          "time": 302.14255499999945,
          "velocity": 0.7480314960629921,
          "duration": 0.4285709999999767
        },
        {
          "name": "E5",
          "midi": 76,
          "time": 302.14255499999945,
          "velocity": 0.7480314960629921,
          "duration": 0.4285709999999767
        },
        {
          "name": "E6",
          "midi": 88,
          "time": 302.14255499999945,
          "velocity": 0.7480314960629921,
          "duration": 0.4285709999999767
        },
        {
          "name": "E7",
          "midi": 100,
          "time": 302.14255499999945,
          "velocity": 0.7480314960629921,
          "duration": 0.4285709999999767
        },
        {
          "name": "E4",
          "midi": 64,
          "time": 302.5711259999994,
          "velocity": 0.7480314960629921,
          "duration": 0.4285709999999767
        },
        {
          "name": "E5",
          "midi": 76,
          "time": 302.5711259999994,
          "velocity": 0.7480314960629921,
          "duration": 0.4285709999999767
        },
        {
          "name": "E6",
          "midi": 88,
          "time": 302.5711259999994,
          "velocity": 0.7480314960629921,
          "duration": 0.4285709999999767
        },
        {
          "name": "E7",
          "midi": 100,
          "time": 302.5711259999994,
          "velocity": 0.7480314960629921,
          "duration": 0.4285709999999767
        },
        {
          "name": "E4",
          "midi": 64,
          "time": 302.9996969999994,
          "velocity": 0.7480314960629921,
          "duration": 0.21428550000001678
        },
        {
          "name": "E5",
          "midi": 76,
          "time": 302.9996969999994,
          "velocity": 0.7480314960629921,
          "duration": 0.21428550000001678
        },
        {
          "name": "E6",
          "midi": 88,
          "time": 302.9996969999994,
          "velocity": 0.7480314960629921,
          "duration": 0.21428550000001678
        },
        {
          "name": "E7",
          "midi": 100,
          "time": 302.9996969999994,
          "velocity": 0.7480314960629921,
          "duration": 0.21428550000001678
        },
        {
          "name": "E4",
          "midi": 64,
          "time": 303.2139824999994,
          "velocity": 0.7480314960629921,
          "duration": 0.21428550000001678
        },
        {
          "name": "E5",
          "midi": 76,
          "time": 303.2139824999994,
          "velocity": 0.7480314960629921,
          "duration": 0.21428550000001678
        },
        {
          "name": "E6",
          "midi": 88,
          "time": 303.2139824999994,
          "velocity": 0.7480314960629921,
          "duration": 0.21428550000001678
        },
        {
          "name": "E7",
          "midi": 100,
          "time": 303.2139824999994,
          "velocity": 0.7480314960629921,
          "duration": 0.21428550000001678
        },
        {
          "name": "E4",
          "midi": 64,
          "time": 303.64255349999945,
          "velocity": 0.7480314960629921,
          "duration": 0.21428550000001678
        },
        {
          "name": "E5",
          "midi": 76,
          "time": 303.64255349999945,
          "velocity": 0.7480314960629921,
          "duration": 0.21428550000001678
        },
        {
          "name": "E6",
          "midi": 88,
          "time": 303.64255349999945,
          "velocity": 0.7480314960629921,
          "duration": 0.21428550000001678
        },
        {
          "name": "E7",
          "midi": 100,
          "time": 303.64255349999945,
          "velocity": 0.7480314960629921,
          "duration": 0.21428550000001678
        },
        {
          "name": "E4",
          "midi": 64,
          "time": 303.85683899999947,
          "velocity": 0.7480314960629921,
          "duration": 0.4285709999999767
        },
        {
          "name": "E5",
          "midi": 76,
          "time": 303.85683899999947,
          "velocity": 0.7480314960629921,
          "duration": 0.4285709999999767
        },
        {
          "name": "E6",
          "midi": 88,
          "time": 303.85683899999947,
          "velocity": 0.7480314960629921,
          "duration": 0.4285709999999767
        },
        {
          "name": "E7",
          "midi": 100,
          "time": 303.85683899999947,
          "velocity": 0.7480314960629921,
          "duration": 0.4285709999999767
        },
        {
          "name": "E4",
          "midi": 64,
          "time": 304.28540999999944,
          "velocity": 0.7480314960629921,
          "duration": 0.4285709999999767
        },
        {
          "name": "E5",
          "midi": 76,
          "time": 304.28540999999944,
          "velocity": 0.7480314960629921,
          "duration": 0.4285709999999767
        },
        {
          "name": "E6",
          "midi": 88,
          "time": 304.28540999999944,
          "velocity": 0.7480314960629921,
          "duration": 0.4285709999999767
        },
        {
          "name": "E7",
          "midi": 100,
          "time": 304.28540999999944,
          "velocity": 0.7480314960629921,
          "duration": 0.4285709999999767
        },
        {
          "name": "E4",
          "midi": 64,
          "time": 304.7139809999994,
          "velocity": 0.7480314960629921,
          "duration": 0.21428550000001678
        },
        {
          "name": "E5",
          "midi": 76,
          "time": 304.7139809999994,
          "velocity": 0.7480314960629921,
          "duration": 0.21428550000001678
        },
        {
          "name": "E6",
          "midi": 88,
          "time": 304.7139809999994,
          "velocity": 0.7480314960629921,
          "duration": 0.21428550000001678
        },
        {
          "name": "E7",
          "midi": 100,
          "time": 304.7139809999994,
          "velocity": 0.7480314960629921,
          "duration": 0.21428550000001678
        },
        {
          "name": "E4",
          "midi": 64,
          "time": 304.92826649999944,
          "velocity": 0.7480314960629921,
          "duration": 0.21428550000001678
        },
        {
          "name": "E5",
          "midi": 76,
          "time": 304.92826649999944,
          "velocity": 0.7480314960629921,
          "duration": 0.21428550000001678
        },
        {
          "name": "E6",
          "midi": 88,
          "time": 304.92826649999944,
          "velocity": 0.7480314960629921,
          "duration": 0.21428550000001678
        },
        {
          "name": "E7",
          "midi": 100,
          "time": 304.92826649999944,
          "velocity": 0.7480314960629921,
          "duration": 0.21428550000001678
        },
        {
          "name": "E4",
          "midi": 64,
          "time": 305.14255199999945,
          "velocity": 0.7480314960629921,
          "duration": 0.4285709999999767
        },
        {
          "name": "E5",
          "midi": 76,
          "time": 305.14255199999945,
          "velocity": 0.7480314960629921,
          "duration": 0.4285709999999767
        },
        {
          "name": "E6",
          "midi": 88,
          "time": 305.14255199999945,
          "velocity": 0.7480314960629921,
          "duration": 0.4285709999999767
        },
        {
          "name": "E7",
          "midi": 100,
          "time": 305.14255199999945,
          "velocity": 0.7480314960629921,
          "duration": 0.4285709999999767
        },
        {
          "name": "E4",
          "midi": 64,
          "time": 305.57112299999943,
          "velocity": 0.7480314960629921,
          "duration": 0.4285709999999767
        },
        {
          "name": "E5",
          "midi": 76,
          "time": 305.57112299999943,
          "velocity": 0.7480314960629921,
          "duration": 0.4285709999999767
        },
        {
          "name": "E6",
          "midi": 88,
          "time": 305.57112299999943,
          "velocity": 0.7480314960629921,
          "duration": 0.4285709999999767
        },
        {
          "name": "E7",
          "midi": 100,
          "time": 305.57112299999943,
          "velocity": 0.7480314960629921,
          "duration": 0.4285709999999767
        },
        {
          "name": "E4",
          "midi": 64,
          "time": 305.9996939999994,
          "velocity": 0.7480314960629921,
          "duration": 0.4285709999999767
        },
        {
          "name": "E5",
          "midi": 76,
          "time": 305.9996939999994,
          "velocity": 0.7480314960629921,
          "duration": 0.4285709999999767
        },
        {
          "name": "E6",
          "midi": 88,
          "time": 305.9996939999994,
          "velocity": 0.7480314960629921,
          "duration": 0.4285709999999767
        },
        {
          "name": "E7",
          "midi": 100,
          "time": 305.9996939999994,
          "velocity": 0.7480314960629921,
          "duration": 0.4285709999999767
        },
        {
          "name": "E4",
          "midi": 64,
          "time": 306.4282649999994,
          "velocity": 0.7480314960629921,
          "duration": 0.21428550000001678
        },
        {
          "name": "E5",
          "midi": 76,
          "time": 306.4282649999994,
          "velocity": 0.7480314960629921,
          "duration": 0.21428550000001678
        },
        {
          "name": "E6",
          "midi": 88,
          "time": 306.4282649999994,
          "velocity": 0.7480314960629921,
          "duration": 0.21428550000001678
        },
        {
          "name": "E7",
          "midi": 100,
          "time": 306.4282649999994,
          "velocity": 0.7480314960629921,
          "duration": 0.21428550000001678
        },
        {
          "name": "E4",
          "midi": 64,
          "time": 306.6425504999994,
          "velocity": 0.7480314960629921,
          "duration": 0.21428550000001678
        },
        {
          "name": "E5",
          "midi": 76,
          "time": 306.6425504999994,
          "velocity": 0.7480314960629921,
          "duration": 0.21428550000001678
        },
        {
          "name": "E6",
          "midi": 88,
          "time": 306.6425504999994,
          "velocity": 0.7480314960629921,
          "duration": 0.21428550000001678
        },
        {
          "name": "E7",
          "midi": 100,
          "time": 306.6425504999994,
          "velocity": 0.7480314960629921,
          "duration": 0.21428550000001678
        },
        {
          "name": "E4",
          "midi": 64,
          "time": 307.07112149999944,
          "velocity": 0.7480314960629921,
          "duration": 0.21428550000001678
        },
        {
          "name": "E5",
          "midi": 76,
          "time": 307.07112149999944,
          "velocity": 0.7480314960629921,
          "duration": 0.21428550000001678
        },
        {
          "name": "E6",
          "midi": 88,
          "time": 307.07112149999944,
          "velocity": 0.7480314960629921,
          "duration": 0.21428550000001678
        },
        {
          "name": "E7",
          "midi": 100,
          "time": 307.07112149999944,
          "velocity": 0.7480314960629921,
          "duration": 0.21428550000001678
        },
        {
          "name": "E4",
          "midi": 64,
          "time": 307.28540699999945,
          "velocity": 0.7480314960629921,
          "duration": 0.4285709999999767
        },
        {
          "name": "E5",
          "midi": 76,
          "time": 307.28540699999945,
          "velocity": 0.7480314960629921,
          "duration": 0.4285709999999767
        },
        {
          "name": "E6",
          "midi": 88,
          "time": 307.28540699999945,
          "velocity": 0.7480314960629921,
          "duration": 0.4285709999999767
        },
        {
          "name": "E7",
          "midi": 100,
          "time": 307.28540699999945,
          "velocity": 0.7480314960629921,
          "duration": 0.4285709999999767
        },
        {
          "name": "E4",
          "midi": 64,
          "time": 307.71397799999943,
          "velocity": 0.7480314960629921,
          "duration": 0.4285709999999767
        },
        {
          "name": "E5",
          "midi": 76,
          "time": 307.71397799999943,
          "velocity": 0.7480314960629921,
          "duration": 0.4285709999999767
        },
        {
          "name": "E6",
          "midi": 88,
          "time": 307.71397799999943,
          "velocity": 0.7480314960629921,
          "duration": 0.4285709999999767
        },
        {
          "name": "E7",
          "midi": 100,
          "time": 307.71397799999943,
          "velocity": 0.7480314960629921,
          "duration": 0.4285709999999767
        },
        {
          "name": "E4",
          "midi": 64,
          "time": 308.1425489999994,
          "velocity": 0.7480314960629921,
          "duration": 0.21428550000001678
        },
        {
          "name": "E5",
          "midi": 76,
          "time": 308.1425489999994,
          "velocity": 0.7480314960629921,
          "duration": 0.21428550000001678
        },
        {
          "name": "E6",
          "midi": 88,
          "time": 308.1425489999994,
          "velocity": 0.7480314960629921,
          "duration": 0.21428550000001678
        },
        {
          "name": "E7",
          "midi": 100,
          "time": 308.1425489999994,
          "velocity": 0.7480314960629921,
          "duration": 0.21428550000001678
        },
        {
          "name": "E4",
          "midi": 64,
          "time": 308.3568344999994,
          "velocity": 0.7480314960629921,
          "duration": 0.21428550000001678
        },
        {
          "name": "E5",
          "midi": 76,
          "time": 308.3568344999994,
          "velocity": 0.7480314960629921,
          "duration": 0.21428550000001678
        },
        {
          "name": "E6",
          "midi": 88,
          "time": 308.3568344999994,
          "velocity": 0.7480314960629921,
          "duration": 0.21428550000001678
        },
        {
          "name": "E7",
          "midi": 100,
          "time": 308.3568344999994,
          "velocity": 0.7480314960629921,
          "duration": 0.21428550000001678
        },
        {
          "name": "C4",
          "midi": 60,
          "time": 308.57111999999944,
          "velocity": 0.7480314960629921,
          "duration": 0.4285709999999767
        },
        {
          "name": "C5",
          "midi": 72,
          "time": 308.57111999999944,
          "velocity": 0.7480314960629921,
          "duration": 0.4285709999999767
        },
        {
          "name": "C6",
          "midi": 84,
          "time": 308.57111999999944,
          "velocity": 0.7480314960629921,
          "duration": 0.4285709999999767
        },
        {
          "name": "C7",
          "midi": 96,
          "time": 308.57111999999944,
          "velocity": 0.7480314960629921,
          "duration": 0.4285709999999767
        },
        {
          "name": "C4",
          "midi": 60,
          "time": 308.9996909999994,
          "velocity": 0.7480314960629921,
          "duration": 0.4285709999999767
        },
        {
          "name": "C5",
          "midi": 72,
          "time": 308.9996909999994,
          "velocity": 0.7480314960629921,
          "duration": 0.4285709999999767
        },
        {
          "name": "C6",
          "midi": 84,
          "time": 308.9996909999994,
          "velocity": 0.7480314960629921,
          "duration": 0.4285709999999767
        },
        {
          "name": "C7",
          "midi": 96,
          "time": 308.9996909999994,
          "velocity": 0.7480314960629921,
          "duration": 0.4285709999999767
        },
        {
          "name": "C4",
          "midi": 60,
          "time": 309.4282619999994,
          "velocity": 0.7480314960629921,
          "duration": 0.4285709999999767
        },
        {
          "name": "C5",
          "midi": 72,
          "time": 309.4282619999994,
          "velocity": 0.7480314960629921,
          "duration": 0.4285709999999767
        },
        {
          "name": "C6",
          "midi": 84,
          "time": 309.4282619999994,
          "velocity": 0.7480314960629921,
          "duration": 0.4285709999999767
        },
        {
          "name": "C7",
          "midi": 96,
          "time": 309.4282619999994,
          "velocity": 0.7480314960629921,
          "duration": 0.4285709999999767
        },
        {
          "name": "C4",
          "midi": 60,
          "time": 309.85683299999937,
          "velocity": 0.7480314960629921,
          "duration": 0.21428550000001678
        },
        {
          "name": "C5",
          "midi": 72,
          "time": 309.85683299999937,
          "velocity": 0.7480314960629921,
          "duration": 0.21428550000001678
        },
        {
          "name": "C6",
          "midi": 84,
          "time": 309.85683299999937,
          "velocity": 0.7480314960629921,
          "duration": 0.21428550000001678
        },
        {
          "name": "C7",
          "midi": 96,
          "time": 309.85683299999937,
          "velocity": 0.7480314960629921,
          "duration": 0.21428550000001678
        },
        {
          "name": "C4",
          "midi": 60,
          "time": 310.0711184999994,
          "velocity": 0.7480314960629921,
          "duration": 0.21428550000001678
        },
        {
          "name": "C5",
          "midi": 72,
          "time": 310.0711184999994,
          "velocity": 0.7480314960629921,
          "duration": 0.21428550000001678
        },
        {
          "name": "C6",
          "midi": 84,
          "time": 310.0711184999994,
          "velocity": 0.7480314960629921,
          "duration": 0.21428550000001678
        },
        {
          "name": "C7",
          "midi": 96,
          "time": 310.0711184999994,
          "velocity": 0.7480314960629921,
          "duration": 0.21428550000001678
        },
        {
          "name": "C4",
          "midi": 60,
          "time": 310.4996894999994,
          "velocity": 0.7480314960629921,
          "duration": 0.21428550000001678
        },
        {
          "name": "C5",
          "midi": 72,
          "time": 310.4996894999994,
          "velocity": 0.7480314960629921,
          "duration": 0.21428550000001678
        },
        {
          "name": "C6",
          "midi": 84,
          "time": 310.4996894999994,
          "velocity": 0.7480314960629921,
          "duration": 0.21428550000001678
        },
        {
          "name": "C7",
          "midi": 96,
          "time": 310.4996894999994,
          "velocity": 0.7480314960629921,
          "duration": 0.21428550000001678
        },
        {
          "name": "C4",
          "midi": 60,
          "time": 310.71397499999944,
          "velocity": 0.7480314960629921,
          "duration": 0.4285709999999767
        },
        {
          "name": "C5",
          "midi": 72,
          "time": 310.71397499999944,
          "velocity": 0.7480314960629921,
          "duration": 0.4285709999999767
        },
        {
          "name": "C6",
          "midi": 84,
          "time": 310.71397499999944,
          "velocity": 0.7480314960629921,
          "duration": 0.4285709999999767
        },
        {
          "name": "C7",
          "midi": 96,
          "time": 310.71397499999944,
          "velocity": 0.7480314960629921,
          "duration": 0.4285709999999767
        },
        {
          "name": "C4",
          "midi": 60,
          "time": 311.1425459999994,
          "velocity": 0.7480314960629921,
          "duration": 0.4285709999999767
        },
        {
          "name": "C5",
          "midi": 72,
          "time": 311.1425459999994,
          "velocity": 0.7480314960629921,
          "duration": 0.4285709999999767
        },
        {
          "name": "C6",
          "midi": 84,
          "time": 311.1425459999994,
          "velocity": 0.7480314960629921,
          "duration": 0.4285709999999767
        },
        {
          "name": "C7",
          "midi": 96,
          "time": 311.1425459999994,
          "velocity": 0.7480314960629921,
          "duration": 0.4285709999999767
        },
        {
          "name": "C4",
          "midi": 60,
          "time": 311.5711169999994,
          "velocity": 0.7480314960629921,
          "duration": 0.21428550000001678
        },
        {
          "name": "C5",
          "midi": 72,
          "time": 311.5711169999994,
          "velocity": 0.7480314960629921,
          "duration": 0.21428550000001678
        },
        {
          "name": "C6",
          "midi": 84,
          "time": 311.5711169999994,
          "velocity": 0.7480314960629921,
          "duration": 0.21428550000001678
        },
        {
          "name": "C7",
          "midi": 96,
          "time": 311.5711169999994,
          "velocity": 0.7480314960629921,
          "duration": 0.21428550000001678
        },
        {
          "name": "C4",
          "midi": 60,
          "time": 311.7854024999994,
          "velocity": 0.7480314960629921,
          "duration": 0.21428550000001678
        },
        {
          "name": "C5",
          "midi": 72,
          "time": 311.7854024999994,
          "velocity": 0.7480314960629921,
          "duration": 0.21428550000001678
        },
        {
          "name": "C6",
          "midi": 84,
          "time": 311.7854024999994,
          "velocity": 0.7480314960629921,
          "duration": 0.21428550000001678
        },
        {
          "name": "C7",
          "midi": 96,
          "time": 311.7854024999994,
          "velocity": 0.7480314960629921,
          "duration": 0.21428550000001678
        },
        {
          "name": "D#4",
          "midi": 63,
          "time": 311.9996879999994,
          "velocity": 0.7480314960629921,
          "duration": 0.4285709999999767
        },
        {
          "name": "D#5",
          "midi": 75,
          "time": 311.9996879999994,
          "velocity": 0.7480314960629921,
          "duration": 0.4285709999999767
        },
        {
          "name": "D#6",
          "midi": 87,
          "time": 311.9996879999994,
          "velocity": 0.7480314960629921,
          "duration": 0.4285709999999767
        },
        {
          "name": "D#7",
          "midi": 99,
          "time": 311.9996879999994,
          "velocity": 0.7480314960629921,
          "duration": 0.4285709999999767
        },
        {
          "name": "D#4",
          "midi": 63,
          "time": 312.4282589999994,
          "velocity": 0.7480314960629921,
          "duration": 0.4285709999999767
        },
        {
          "name": "D#5",
          "midi": 75,
          "time": 312.4282589999994,
          "velocity": 0.7480314960629921,
          "duration": 0.4285709999999767
        },
        {
          "name": "D#6",
          "midi": 87,
          "time": 312.4282589999994,
          "velocity": 0.7480314960629921,
          "duration": 0.4285709999999767
        },
        {
          "name": "D#7",
          "midi": 99,
          "time": 312.4282589999994,
          "velocity": 0.7480314960629921,
          "duration": 0.4285709999999767
        },
        {
          "name": "D#4",
          "midi": 63,
          "time": 312.8568299999994,
          "velocity": 0.7480314960629921,
          "duration": 0.4285709999999767
        },
        {
          "name": "D#5",
          "midi": 75,
          "time": 312.8568299999994,
          "velocity": 0.7480314960629921,
          "duration": 0.4285709999999767
        },
        {
          "name": "D#6",
          "midi": 87,
          "time": 312.8568299999994,
          "velocity": 0.7480314960629921,
          "duration": 0.4285709999999767
        },
        {
          "name": "D#7",
          "midi": 99,
          "time": 312.8568299999994,
          "velocity": 0.7480314960629921,
          "duration": 0.4285709999999767
        },
        {
          "name": "D#4",
          "midi": 63,
          "time": 313.28540099999935,
          "velocity": 0.7480314960629921,
          "duration": 0.21428550000001678
        },
        {
          "name": "D#5",
          "midi": 75,
          "time": 313.28540099999935,
          "velocity": 0.7480314960629921,
          "duration": 0.21428550000001678
        },
        {
          "name": "D#6",
          "midi": 87,
          "time": 313.28540099999935,
          "velocity": 0.7480314960629921,
          "duration": 0.21428550000001678
        },
        {
          "name": "D#7",
          "midi": 99,
          "time": 313.28540099999935,
          "velocity": 0.7480314960629921,
          "duration": 0.21428550000001678
        },
        {
          "name": "D#4",
          "midi": 63,
          "time": 313.49968649999937,
          "velocity": 0.7480314960629921,
          "duration": 0.21428550000001678
        },
        {
          "name": "D#5",
          "midi": 75,
          "time": 313.49968649999937,
          "velocity": 0.7480314960629921,
          "duration": 0.21428550000001678
        },
        {
          "name": "D#6",
          "midi": 87,
          "time": 313.49968649999937,
          "velocity": 0.7480314960629921,
          "duration": 0.21428550000001678
        },
        {
          "name": "D#7",
          "midi": 99,
          "time": 313.49968649999937,
          "velocity": 0.7480314960629921,
          "duration": 0.21428550000001678
        },
        {
          "name": "C#4",
          "midi": 61,
          "time": 313.9282574999994,
          "velocity": 0.7480314960629921,
          "duration": 0.21428550000001678
        },
        {
          "name": "C#5",
          "midi": 73,
          "time": 313.9282574999994,
          "velocity": 0.7480314960629921,
          "duration": 0.21428550000001678
        },
        {
          "name": "C#6",
          "midi": 85,
          "time": 313.9282574999994,
          "velocity": 0.7480314960629921,
          "duration": 0.21428550000001678
        },
        {
          "name": "C#7",
          "midi": 97,
          "time": 313.9282574999994,
          "velocity": 0.7480314960629921,
          "duration": 0.21428550000001678
        },
        {
          "name": "C#4",
          "midi": 61,
          "time": 314.1425429999994,
          "velocity": 0.7480314960629921,
          "duration": 0.4285709999999767
        },
        {
          "name": "C#5",
          "midi": 73,
          "time": 314.1425429999994,
          "velocity": 0.7480314960629921,
          "duration": 0.4285709999999767
        },
        {
          "name": "C#6",
          "midi": 85,
          "time": 314.1425429999994,
          "velocity": 0.7480314960629921,
          "duration": 0.4285709999999767
        },
        {
          "name": "C#7",
          "midi": 97,
          "time": 314.1425429999994,
          "velocity": 0.7480314960629921,
          "duration": 0.4285709999999767
        },
        {
          "name": "C#4",
          "midi": 61,
          "time": 314.5711139999994,
          "velocity": 0.7480314960629921,
          "duration": 0.4285709999999767
        },
        {
          "name": "C#5",
          "midi": 73,
          "time": 314.5711139999994,
          "velocity": 0.7480314960629921,
          "duration": 0.4285709999999767
        },
        {
          "name": "C#6",
          "midi": 85,
          "time": 314.5711139999994,
          "velocity": 0.7480314960629921,
          "duration": 0.4285709999999767
        },
        {
          "name": "C#7",
          "midi": 97,
          "time": 314.5711139999994,
          "velocity": 0.7480314960629921,
          "duration": 0.4285709999999767
        },
        {
          "name": "C#4",
          "midi": 61,
          "time": 314.9996849999994,
          "velocity": 0.7480314960629921,
          "duration": 0.21428550000001678
        },
        {
          "name": "C#5",
          "midi": 73,
          "time": 314.9996849999994,
          "velocity": 0.7480314960629921,
          "duration": 0.21428550000001678
        },
        {
          "name": "C#6",
          "midi": 85,
          "time": 314.9996849999994,
          "velocity": 0.7480314960629921,
          "duration": 0.21428550000001678
        },
        {
          "name": "C#7",
          "midi": 97,
          "time": 314.9996849999994,
          "velocity": 0.7480314960629921,
          "duration": 0.21428550000001678
        },
        {
          "name": "C#4",
          "midi": 61,
          "time": 315.2139704999994,
          "velocity": 0.7480314960629921,
          "duration": 0.21428550000001678
        },
        {
          "name": "C#5",
          "midi": 73,
          "time": 315.2139704999994,
          "velocity": 0.7480314960629921,
          "duration": 0.21428550000001678
        },
        {
          "name": "C#6",
          "midi": 85,
          "time": 315.2139704999994,
          "velocity": 0.7480314960629921,
          "duration": 0.21428550000001678
        },
        {
          "name": "C#7",
          "midi": 97,
          "time": 315.2139704999994,
          "velocity": 0.7480314960629921,
          "duration": 0.21428550000001678
        },
        {
          "name": "E4",
          "midi": 64,
          "time": 315.4282559999994,
          "velocity": 0.7480314960629921,
          "duration": 0.4285709999999767
        },
        {
          "name": "E5",
          "midi": 76,
          "time": 315.4282559999994,
          "velocity": 0.7480314960629921,
          "duration": 0.4285709999999767
        },
        {
          "name": "E6",
          "midi": 88,
          "time": 315.4282559999994,
          "velocity": 0.7480314960629921,
          "duration": 0.4285709999999767
        },
        {
          "name": "E7",
          "midi": 100,
          "time": 315.4282559999994,
          "velocity": 0.7480314960629921,
          "duration": 0.4285709999999767
        },
        {
          "name": "E4",
          "midi": 64,
          "time": 315.8568269999994,
          "velocity": 0.7480314960629921,
          "duration": 0.4285709999999767
        },
        {
          "name": "E5",
          "midi": 76,
          "time": 315.8568269999994,
          "velocity": 0.7480314960629921,
          "duration": 0.4285709999999767
        },
        {
          "name": "E6",
          "midi": 88,
          "time": 315.8568269999994,
          "velocity": 0.7480314960629921,
          "duration": 0.4285709999999767
        },
        {
          "name": "E7",
          "midi": 100,
          "time": 315.8568269999994,
          "velocity": 0.7480314960629921,
          "duration": 0.4285709999999767
        },
        {
          "name": "E4",
          "midi": 64,
          "time": 316.28539799999936,
          "velocity": 0.7480314960629921,
          "duration": 0.4285709999999767
        },
        {
          "name": "E5",
          "midi": 76,
          "time": 316.28539799999936,
          "velocity": 0.7480314960629921,
          "duration": 0.4285709999999767
        },
        {
          "name": "E6",
          "midi": 88,
          "time": 316.28539799999936,
          "velocity": 0.7480314960629921,
          "duration": 0.4285709999999767
        },
        {
          "name": "E7",
          "midi": 100,
          "time": 316.28539799999936,
          "velocity": 0.7480314960629921,
          "duration": 0.4285709999999767
        },
        {
          "name": "E4",
          "midi": 64,
          "time": 316.71396899999934,
          "velocity": 0.7480314960629921,
          "duration": 0.21428550000001678
        },
        {
          "name": "E5",
          "midi": 76,
          "time": 316.71396899999934,
          "velocity": 0.7480314960629921,
          "duration": 0.21428550000001678
        },
        {
          "name": "E6",
          "midi": 88,
          "time": 316.71396899999934,
          "velocity": 0.7480314960629921,
          "duration": 0.21428550000001678
        },
        {
          "name": "E7",
          "midi": 100,
          "time": 316.71396899999934,
          "velocity": 0.7480314960629921,
          "duration": 0.21428550000001678
        },
        {
          "name": "E4",
          "midi": 64,
          "time": 316.92825449999935,
          "velocity": 0.7480314960629921,
          "duration": 0.21428550000001678
        },
        {
          "name": "E5",
          "midi": 76,
          "time": 316.92825449999935,
          "velocity": 0.7480314960629921,
          "duration": 0.21428550000001678
        },
        {
          "name": "E6",
          "midi": 88,
          "time": 316.92825449999935,
          "velocity": 0.7480314960629921,
          "duration": 0.21428550000001678
        },
        {
          "name": "E7",
          "midi": 100,
          "time": 316.92825449999935,
          "velocity": 0.7480314960629921,
          "duration": 0.21428550000001678
        },
        {
          "name": "E4",
          "midi": 64,
          "time": 317.3568254999994,
          "velocity": 0.7480314960629921,
          "duration": 0.21428550000001678
        },
        {
          "name": "E5",
          "midi": 76,
          "time": 317.3568254999994,
          "velocity": 0.7480314960629921,
          "duration": 0.21428550000001678
        },
        {
          "name": "E6",
          "midi": 88,
          "time": 317.3568254999994,
          "velocity": 0.7480314960629921,
          "duration": 0.21428550000001678
        },
        {
          "name": "E7",
          "midi": 100,
          "time": 317.3568254999994,
          "velocity": 0.7480314960629921,
          "duration": 0.21428550000001678
        },
        {
          "name": "E4",
          "midi": 64,
          "time": 317.5711109999994,
          "velocity": 0.7480314960629921,
          "duration": 0.4285709999999767
        },
        {
          "name": "E5",
          "midi": 76,
          "time": 317.5711109999994,
          "velocity": 0.7480314960629921,
          "duration": 0.4285709999999767
        },
        {
          "name": "E6",
          "midi": 88,
          "time": 317.5711109999994,
          "velocity": 0.7480314960629921,
          "duration": 0.4285709999999767
        },
        {
          "name": "E7",
          "midi": 100,
          "time": 317.5711109999994,
          "velocity": 0.7480314960629921,
          "duration": 0.4285709999999767
        },
        {
          "name": "E4",
          "midi": 64,
          "time": 317.9996819999994,
          "velocity": 0.7480314960629921,
          "duration": 0.4285709999999767
        },
        {
          "name": "E5",
          "midi": 76,
          "time": 317.9996819999994,
          "velocity": 0.7480314960629921,
          "duration": 0.4285709999999767
        },
        {
          "name": "E6",
          "midi": 88,
          "time": 317.9996819999994,
          "velocity": 0.7480314960629921,
          "duration": 0.4285709999999767
        },
        {
          "name": "E7",
          "midi": 100,
          "time": 317.9996819999994,
          "velocity": 0.7480314960629921,
          "duration": 0.4285709999999767
        },
        {
          "name": "E4",
          "midi": 64,
          "time": 318.42825299999936,
          "velocity": 0.7480314960629921,
          "duration": 0.21428550000001678
        },
        {
          "name": "E5",
          "midi": 76,
          "time": 318.42825299999936,
          "velocity": 0.7480314960629921,
          "duration": 0.21428550000001678
        },
        {
          "name": "E6",
          "midi": 88,
          "time": 318.42825299999936,
          "velocity": 0.7480314960629921,
          "duration": 0.21428550000001678
        },
        {
          "name": "E7",
          "midi": 100,
          "time": 318.42825299999936,
          "velocity": 0.7480314960629921,
          "duration": 0.21428550000001678
        },
        {
          "name": "E4",
          "midi": 64,
          "time": 318.6425384999994,
          "velocity": 0.7480314960629921,
          "duration": 0.21428550000001678
        },
        {
          "name": "E5",
          "midi": 76,
          "time": 318.6425384999994,
          "velocity": 0.7480314960629921,
          "duration": 0.21428550000001678
        },
        {
          "name": "E6",
          "midi": 88,
          "time": 318.6425384999994,
          "velocity": 0.7480314960629921,
          "duration": 0.21428550000001678
        },
        {
          "name": "E7",
          "midi": 100,
          "time": 318.6425384999994,
          "velocity": 0.7480314960629921,
          "duration": 0.21428550000001678
        },
        {
          "name": "E4",
          "midi": 64,
          "time": 318.8568239999994,
          "velocity": 0.7480314960629921,
          "duration": 0.4285709999999767
        },
        {
          "name": "E5",
          "midi": 76,
          "time": 318.8568239999994,
          "velocity": 0.7480314960629921,
          "duration": 0.4285709999999767
        },
        {
          "name": "E6",
          "midi": 88,
          "time": 318.8568239999994,
          "velocity": 0.7480314960629921,
          "duration": 0.4285709999999767
        },
        {
          "name": "E7",
          "midi": 100,
          "time": 318.8568239999994,
          "velocity": 0.7480314960629921,
          "duration": 0.4285709999999767
        },
        {
          "name": "E4",
          "midi": 64,
          "time": 319.28539499999937,
          "velocity": 0.7480314960629921,
          "duration": 0.4285709999999767
        },
        {
          "name": "E5",
          "midi": 76,
          "time": 319.28539499999937,
          "velocity": 0.7480314960629921,
          "duration": 0.4285709999999767
        },
        {
          "name": "E6",
          "midi": 88,
          "time": 319.28539499999937,
          "velocity": 0.7480314960629921,
          "duration": 0.4285709999999767
        },
        {
          "name": "E7",
          "midi": 100,
          "time": 319.28539499999937,
          "velocity": 0.7480314960629921,
          "duration": 0.4285709999999767
        },
        {
          "name": "E4",
          "midi": 64,
          "time": 319.71396599999935,
          "velocity": 0.7480314960629921,
          "duration": 0.4285709999999767
        },
        {
          "name": "E5",
          "midi": 76,
          "time": 319.71396599999935,
          "velocity": 0.7480314960629921,
          "duration": 0.4285709999999767
        },
        {
          "name": "E6",
          "midi": 88,
          "time": 319.71396599999935,
          "velocity": 0.7480314960629921,
          "duration": 0.4285709999999767
        },
        {
          "name": "E7",
          "midi": 100,
          "time": 319.71396599999935,
          "velocity": 0.7480314960629921,
          "duration": 0.4285709999999767
        },
        {
          "name": "E4",
          "midi": 64,
          "time": 320.1425369999993,
          "velocity": 0.7480314960629921,
          "duration": 0.21428550000001678
        },
        {
          "name": "E5",
          "midi": 76,
          "time": 320.1425369999993,
          "velocity": 0.7480314960629921,
          "duration": 0.21428550000001678
        },
        {
          "name": "E6",
          "midi": 88,
          "time": 320.1425369999993,
          "velocity": 0.7480314960629921,
          "duration": 0.21428550000001678
        },
        {
          "name": "E7",
          "midi": 100,
          "time": 320.1425369999993,
          "velocity": 0.7480314960629921,
          "duration": 0.21428550000001678
        },
        {
          "name": "E4",
          "midi": 64,
          "time": 320.35682249999934,
          "velocity": 0.7480314960629921,
          "duration": 0.21428550000001678
        },
        {
          "name": "E5",
          "midi": 76,
          "time": 320.35682249999934,
          "velocity": 0.7480314960629921,
          "duration": 0.21428550000001678
        },
        {
          "name": "E6",
          "midi": 88,
          "time": 320.35682249999934,
          "velocity": 0.7480314960629921,
          "duration": 0.21428550000001678
        },
        {
          "name": "E7",
          "midi": 100,
          "time": 320.35682249999934,
          "velocity": 0.7480314960629921,
          "duration": 0.21428550000001678
        },
        {
          "name": "E4",
          "midi": 64,
          "time": 320.7853934999994,
          "velocity": 0.7480314960629921,
          "duration": 0.21428550000001678
        },
        {
          "name": "E5",
          "midi": 76,
          "time": 320.7853934999994,
          "velocity": 0.7480314960629921,
          "duration": 0.21428550000001678
        },
        {
          "name": "E6",
          "midi": 88,
          "time": 320.7853934999994,
          "velocity": 0.7480314960629921,
          "duration": 0.21428550000001678
        },
        {
          "name": "E7",
          "midi": 100,
          "time": 320.7853934999994,
          "velocity": 0.7480314960629921,
          "duration": 0.21428550000001678
        },
        {
          "name": "E4",
          "midi": 64,
          "time": 320.9996789999994,
          "velocity": 0.7480314960629921,
          "duration": 0.4285709999999767
        },
        {
          "name": "E5",
          "midi": 76,
          "time": 320.9996789999994,
          "velocity": 0.7480314960629921,
          "duration": 0.4285709999999767
        },
        {
          "name": "E6",
          "midi": 88,
          "time": 320.9996789999994,
          "velocity": 0.7480314960629921,
          "duration": 0.4285709999999767
        },
        {
          "name": "E7",
          "midi": 100,
          "time": 320.9996789999994,
          "velocity": 0.7480314960629921,
          "duration": 0.4285709999999767
        },
        {
          "name": "E4",
          "midi": 64,
          "time": 321.42824999999937,
          "velocity": 0.7480314960629921,
          "duration": 0.4285709999999767
        },
        {
          "name": "E5",
          "midi": 76,
          "time": 321.42824999999937,
          "velocity": 0.7480314960629921,
          "duration": 0.4285709999999767
        },
        {
          "name": "E6",
          "midi": 88,
          "time": 321.42824999999937,
          "velocity": 0.7480314960629921,
          "duration": 0.4285709999999767
        },
        {
          "name": "E7",
          "midi": 100,
          "time": 321.42824999999937,
          "velocity": 0.7480314960629921,
          "duration": 0.4285709999999767
        },
        {
          "name": "E4",
          "midi": 64,
          "time": 321.85682099999934,
          "velocity": 0.7480314960629921,
          "duration": 0.21428550000001678
        },
        {
          "name": "E5",
          "midi": 76,
          "time": 321.85682099999934,
          "velocity": 0.7480314960629921,
          "duration": 0.21428550000001678
        },
        {
          "name": "E6",
          "midi": 88,
          "time": 321.85682099999934,
          "velocity": 0.7480314960629921,
          "duration": 0.21428550000001678
        },
        {
          "name": "E7",
          "midi": 100,
          "time": 321.85682099999934,
          "velocity": 0.7480314960629921,
          "duration": 0.21428550000001678
        },
        {
          "name": "E4",
          "midi": 64,
          "time": 322.07110649999936,
          "velocity": 0.7480314960629921,
          "duration": 0.21428550000001678
        },
        {
          "name": "E5",
          "midi": 76,
          "time": 322.07110649999936,
          "velocity": 0.7480314960629921,
          "duration": 0.21428550000001678
        },
        {
          "name": "E6",
          "midi": 88,
          "time": 322.07110649999936,
          "velocity": 0.7480314960629921,
          "duration": 0.21428550000001678
        },
        {
          "name": "E7",
          "midi": 100,
          "time": 322.07110649999936,
          "velocity": 0.7480314960629921,
          "duration": 0.21428550000001678
        },
        {
          "name": "C4",
          "midi": 60,
          "time": 322.2853919999994,
          "velocity": 0.7480314960629921,
          "duration": 0.4285709999999767
        },
        {
          "name": "C5",
          "midi": 72,
          "time": 322.2853919999994,
          "velocity": 0.7480314960629921,
          "duration": 0.4285709999999767
        },
        {
          "name": "C6",
          "midi": 84,
          "time": 322.2853919999994,
          "velocity": 0.7480314960629921,
          "duration": 0.4285709999999767
        },
        {
          "name": "C7",
          "midi": 96,
          "time": 322.2853919999994,
          "velocity": 0.7480314960629921,
          "duration": 0.4285709999999767
        },
        {
          "name": "C4",
          "midi": 60,
          "time": 322.71396299999935,
          "velocity": 0.7480314960629921,
          "duration": 0.4285709999999767
        },
        {
          "name": "C5",
          "midi": 72,
          "time": 322.71396299999935,
          "velocity": 0.7480314960629921,
          "duration": 0.4285709999999767
        },
        {
          "name": "C6",
          "midi": 84,
          "time": 322.71396299999935,
          "velocity": 0.7480314960629921,
          "duration": 0.4285709999999767
        },
        {
          "name": "C7",
          "midi": 96,
          "time": 322.71396299999935,
          "velocity": 0.7480314960629921,
          "duration": 0.4285709999999767
        },
        {
          "name": "C4",
          "midi": 60,
          "time": 323.14253399999933,
          "velocity": 0.7480314960629921,
          "duration": 0.4285709999999767
        },
        {
          "name": "C5",
          "midi": 72,
          "time": 323.14253399999933,
          "velocity": 0.7480314960629921,
          "duration": 0.4285709999999767
        },
        {
          "name": "C6",
          "midi": 84,
          "time": 323.14253399999933,
          "velocity": 0.7480314960629921,
          "duration": 0.4285709999999767
        },
        {
          "name": "C7",
          "midi": 96,
          "time": 323.14253399999933,
          "velocity": 0.7480314960629921,
          "duration": 0.4285709999999767
        },
        {
          "name": "C4",
          "midi": 60,
          "time": 323.5711049999993,
          "velocity": 0.7480314960629921,
          "duration": 0.21428550000001678
        },
        {
          "name": "C5",
          "midi": 72,
          "time": 323.5711049999993,
          "velocity": 0.7480314960629921,
          "duration": 0.21428550000001678
        },
        {
          "name": "C6",
          "midi": 84,
          "time": 323.5711049999993,
          "velocity": 0.7480314960629921,
          "duration": 0.21428550000001678
        },
        {
          "name": "C7",
          "midi": 96,
          "time": 323.5711049999993,
          "velocity": 0.7480314960629921,
          "duration": 0.21428550000001678
        },
        {
          "name": "C4",
          "midi": 60,
          "time": 323.7853904999993,
          "velocity": 0.7480314960629921,
          "duration": 0.21428550000001678
        },
        {
          "name": "C5",
          "midi": 72,
          "time": 323.7853904999993,
          "velocity": 0.7480314960629921,
          "duration": 0.21428550000001678
        },
        {
          "name": "C6",
          "midi": 84,
          "time": 323.7853904999993,
          "velocity": 0.7480314960629921,
          "duration": 0.21428550000001678
        },
        {
          "name": "C7",
          "midi": 96,
          "time": 323.7853904999993,
          "velocity": 0.7480314960629921,
          "duration": 0.21428550000001678
        },
        {
          "name": "C4",
          "midi": 60,
          "time": 324.21396149999936,
          "velocity": 0.7480314960629921,
          "duration": 0.21428550000001678
        },
        {
          "name": "C5",
          "midi": 72,
          "time": 324.21396149999936,
          "velocity": 0.7480314960629921,
          "duration": 0.21428550000001678
        },
        {
          "name": "C6",
          "midi": 84,
          "time": 324.21396149999936,
          "velocity": 0.7480314960629921,
          "duration": 0.21428550000001678
        },
        {
          "name": "C7",
          "midi": 96,
          "time": 324.21396149999936,
          "velocity": 0.7480314960629921,
          "duration": 0.21428550000001678
        },
        {
          "name": "C4",
          "midi": 60,
          "time": 324.4282469999994,
          "velocity": 0.7480314960629921,
          "duration": 0.4285709999999767
        },
        {
          "name": "C5",
          "midi": 72,
          "time": 324.4282469999994,
          "velocity": 0.7480314960629921,
          "duration": 0.4285709999999767
        },
        {
          "name": "C6",
          "midi": 84,
          "time": 324.4282469999994,
          "velocity": 0.7480314960629921,
          "duration": 0.4285709999999767
        },
        {
          "name": "C7",
          "midi": 96,
          "time": 324.4282469999994,
          "velocity": 0.7480314960629921,
          "duration": 0.4285709999999767
        },
        {
          "name": "C4",
          "midi": 60,
          "time": 324.85681799999935,
          "velocity": 0.7480314960629921,
          "duration": 0.4285709999999767
        },
        {
          "name": "C5",
          "midi": 72,
          "time": 324.85681799999935,
          "velocity": 0.7480314960629921,
          "duration": 0.4285709999999767
        },
        {
          "name": "C6",
          "midi": 84,
          "time": 324.85681799999935,
          "velocity": 0.7480314960629921,
          "duration": 0.4285709999999767
        },
        {
          "name": "C7",
          "midi": 96,
          "time": 324.85681799999935,
          "velocity": 0.7480314960629921,
          "duration": 0.4285709999999767
        },
        {
          "name": "C4",
          "midi": 60,
          "time": 325.2853889999993,
          "velocity": 0.7480314960629921,
          "duration": 0.21428550000001678
        },
        {
          "name": "C5",
          "midi": 72,
          "time": 325.2853889999993,
          "velocity": 0.7480314960629921,
          "duration": 0.21428550000001678
        },
        {
          "name": "C6",
          "midi": 84,
          "time": 325.2853889999993,
          "velocity": 0.7480314960629921,
          "duration": 0.21428550000001678
        },
        {
          "name": "C7",
          "midi": 96,
          "time": 325.2853889999993,
          "velocity": 0.7480314960629921,
          "duration": 0.21428550000001678
        },
        {
          "name": "C4",
          "midi": 60,
          "time": 325.49967449999934,
          "velocity": 0.7480314960629921,
          "duration": 0.21428550000001678
        },
        {
          "name": "C5",
          "midi": 72,
          "time": 325.49967449999934,
          "velocity": 0.7480314960629921,
          "duration": 0.21428550000001678
        },
        {
          "name": "C6",
          "midi": 84,
          "time": 325.49967449999934,
          "velocity": 0.7480314960629921,
          "duration": 0.21428550000001678
        },
        {
          "name": "C7",
          "midi": 96,
          "time": 325.49967449999934,
          "velocity": 0.7480314960629921,
          "duration": 0.21428550000001678
        },
        {
          "name": "D#4",
          "midi": 63,
          "time": 325.71395999999936,
          "velocity": 0.7480314960629921,
          "duration": 0.4285709999999767
        },
        {
          "name": "D#5",
          "midi": 75,
          "time": 325.71395999999936,
          "velocity": 0.7480314960629921,
          "duration": 0.4285709999999767
        },
        {
          "name": "D#6",
          "midi": 87,
          "time": 325.71395999999936,
          "velocity": 0.7480314960629921,
          "duration": 0.4285709999999767
        },
        {
          "name": "D#7",
          "midi": 99,
          "time": 325.71395999999936,
          "velocity": 0.7480314960629921,
          "duration": 0.4285709999999767
        },
        {
          "name": "D#4",
          "midi": 63,
          "time": 326.14253099999934,
          "velocity": 0.7480314960629921,
          "duration": 0.4285709999999767
        },
        {
          "name": "D#5",
          "midi": 75,
          "time": 326.14253099999934,
          "velocity": 0.7480314960629921,
          "duration": 0.4285709999999767
        },
        {
          "name": "D#6",
          "midi": 87,
          "time": 326.14253099999934,
          "velocity": 0.7480314960629921,
          "duration": 0.4285709999999767
        },
        {
          "name": "D#7",
          "midi": 99,
          "time": 326.14253099999934,
          "velocity": 0.7480314960629921,
          "duration": 0.4285709999999767
        },
        {
          "name": "D#4",
          "midi": 63,
          "time": 326.5711019999993,
          "velocity": 0.7480314960629921,
          "duration": 0.4285709999999767
        },
        {
          "name": "D#5",
          "midi": 75,
          "time": 326.5711019999993,
          "velocity": 0.7480314960629921,
          "duration": 0.4285709999999767
        },
        {
          "name": "D#6",
          "midi": 87,
          "time": 326.5711019999993,
          "velocity": 0.7480314960629921,
          "duration": 0.4285709999999767
        },
        {
          "name": "D#7",
          "midi": 99,
          "time": 326.5711019999993,
          "velocity": 0.7480314960629921,
          "duration": 0.4285709999999767
        },
        {
          "name": "D#4",
          "midi": 63,
          "time": 326.9996729999993,
          "velocity": 0.7480314960629921,
          "duration": 0.21428550000001678
        },
        {
          "name": "D#5",
          "midi": 75,
          "time": 326.9996729999993,
          "velocity": 0.7480314960629921,
          "duration": 0.21428550000001678
        },
        {
          "name": "D#6",
          "midi": 87,
          "time": 326.9996729999993,
          "velocity": 0.7480314960629921,
          "duration": 0.21428550000001678
        },
        {
          "name": "D#7",
          "midi": 99,
          "time": 326.9996729999993,
          "velocity": 0.7480314960629921,
          "duration": 0.21428550000001678
        },
        {
          "name": "D#4",
          "midi": 63,
          "time": 327.2139584999993,
          "velocity": 0.7480314960629921,
          "duration": 0.21428550000001678
        },
        {
          "name": "D#5",
          "midi": 75,
          "time": 327.2139584999993,
          "velocity": 0.7480314960629921,
          "duration": 0.21428550000001678
        },
        {
          "name": "D#6",
          "midi": 87,
          "time": 327.2139584999993,
          "velocity": 0.7480314960629921,
          "duration": 0.21428550000001678
        },
        {
          "name": "D#7",
          "midi": 99,
          "time": 327.2139584999993,
          "velocity": 0.7480314960629921,
          "duration": 0.21428550000001678
        },
        {
          "name": "C#4",
          "midi": 61,
          "time": 327.64252949999934,
          "velocity": 0.7480314960629921,
          "duration": 0.21428550000001678
        },
        {
          "name": "C#5",
          "midi": 73,
          "time": 327.64252949999934,
          "velocity": 0.7480314960629921,
          "duration": 0.21428550000001678
        },
        {
          "name": "C#6",
          "midi": 85,
          "time": 327.64252949999934,
          "velocity": 0.7480314960629921,
          "duration": 0.21428550000001678
        },
        {
          "name": "C#7",
          "midi": 97,
          "time": 327.64252949999934,
          "velocity": 0.7480314960629921,
          "duration": 0.21428550000001678
        },
        {
          "name": "C#4",
          "midi": 61,
          "time": 327.85681499999936,
          "velocity": 0.7480314960629921,
          "duration": 0.4285709999999767
        },
        {
          "name": "C#5",
          "midi": 73,
          "time": 327.85681499999936,
          "velocity": 0.7480314960629921,
          "duration": 0.4285709999999767
        },
        {
          "name": "C#6",
          "midi": 85,
          "time": 327.85681499999936,
          "velocity": 0.7480314960629921,
          "duration": 0.4285709999999767
        },
        {
          "name": "C#7",
          "midi": 97,
          "time": 327.85681499999936,
          "velocity": 0.7480314960629921,
          "duration": 0.4285709999999767
        },
        {
          "name": "C#4",
          "midi": 61,
          "time": 328.28538599999933,
          "velocity": 0.7480314960629921,
          "duration": 0.4285709999999767
        },
        {
          "name": "C#5",
          "midi": 73,
          "time": 328.28538599999933,
          "velocity": 0.7480314960629921,
          "duration": 0.4285709999999767
        },
        {
          "name": "C#6",
          "midi": 85,
          "time": 328.28538599999933,
          "velocity": 0.7480314960629921,
          "duration": 0.4285709999999767
        },
        {
          "name": "C#7",
          "midi": 97,
          "time": 328.28538599999933,
          "velocity": 0.7480314960629921,
          "duration": 0.4285709999999767
        },
        {
          "name": "C#4",
          "midi": 61,
          "time": 328.7139569999993,
          "velocity": 0.7480314960629921,
          "duration": 0.21428550000001678
        },
        {
          "name": "C#5",
          "midi": 73,
          "time": 328.7139569999993,
          "velocity": 0.7480314960629921,
          "duration": 0.21428550000001678
        },
        {
          "name": "C#6",
          "midi": 85,
          "time": 328.7139569999993,
          "velocity": 0.7480314960629921,
          "duration": 0.21428550000001678
        },
        {
          "name": "C#7",
          "midi": 97,
          "time": 328.7139569999993,
          "velocity": 0.7480314960629921,
          "duration": 0.21428550000001678
        },
        {
          "name": "C#4",
          "midi": 61,
          "time": 328.9282424999993,
          "velocity": 0.7480314960629921,
          "duration": 0.21428550000001678
        },
        {
          "name": "C#5",
          "midi": 73,
          "time": 328.9282424999993,
          "velocity": 0.7480314960629921,
          "duration": 0.21428550000001678
        },
        {
          "name": "C#6",
          "midi": 85,
          "time": 328.9282424999993,
          "velocity": 0.7480314960629921,
          "duration": 0.21428550000001678
        },
        {
          "name": "C#7",
          "midi": 97,
          "time": 328.9282424999993,
          "velocity": 0.7480314960629921,
          "duration": 0.21428550000001678
        },
        {
          "name": "C4",
          "midi": 60,
          "time": 329.14252799999934,
          "velocity": 1,
          "duration": 1.7142840000000206
        },
        {
          "name": "E4",
          "midi": 64,
          "time": 329.14252799999934,
          "velocity": 1,
          "duration": 1.7142840000000206
        },
        {
          "name": "C5",
          "midi": 72,
          "time": 329.14252799999934,
          "velocity": 1,
          "duration": 1.7142840000000206
        },
        {
          "name": "E5",
          "midi": 76,
          "time": 329.14252799999934,
          "velocity": 1,
          "duration": 1.7142840000000206
        },
        {
          "name": "C6",
          "midi": 84,
          "time": 329.14252799999934,
          "velocity": 1,
          "duration": 1.7142840000000206
        },
        {
          "name": "E6",
          "midi": 88,
          "time": 329.14252799999934,
          "velocity": 1,
          "duration": 1.7142840000000206
        },
        {
          "name": "C7",
          "midi": 96,
          "time": 329.14252799999934,
          "velocity": 1,
          "duration": 1.7142840000000206
        },
        {
          "name": "E7",
          "midi": 100,
          "time": 329.14252799999934,
          "velocity": 1,
          "duration": 1.7142840000000206
        },
        {
          "name": "D#4",
          "midi": 63,
          "time": 330.85681199999937,
          "velocity": 1,
          "duration": 1.7142840000000206
        },
        {
          "name": "D#5",
          "midi": 75,
          "time": 330.85681199999937,
          "velocity": 1,
          "duration": 1.7142840000000206
        },
        {
          "name": "D#6",
          "midi": 87,
          "time": 330.85681199999937,
          "velocity": 1,
          "duration": 1.7142840000000206
        },
        {
          "name": "D#7",
          "midi": 99,
          "time": 330.85681199999937,
          "velocity": 1,
          "duration": 1.7142840000000206
        },
        {
          "name": "C#4",
          "midi": 61,
          "time": 332.5710959999994,
          "velocity": 1,
          "duration": 1.7142840000000206
        },
        {
          "name": "C#5",
          "midi": 73,
          "time": 332.5710959999994,
          "velocity": 1,
          "duration": 1.7142840000000206
        },
        {
          "name": "C#6",
          "midi": 85,
          "time": 332.5710959999994,
          "velocity": 1,
          "duration": 1.7142840000000206
        },
        {
          "name": "C#7",
          "midi": 97,
          "time": 332.5710959999994,
          "velocity": 1,
          "duration": 1.7142840000000206
        },
        {
          "name": "D4",
          "midi": 62,
          "time": 334.2853799999994,
          "velocity": 1,
          "duration": 1.7142840000000206
        },
        {
          "name": "D5",
          "midi": 74,
          "time": 334.2853799999994,
          "velocity": 1,
          "duration": 1.7142840000000206
        },
        {
          "name": "D6",
          "midi": 86,
          "time": 334.2853799999994,
          "velocity": 1,
          "duration": 1.7142840000000206
        },
        {
          "name": "D7",
          "midi": 98,
          "time": 334.2853799999994,
          "velocity": 1,
          "duration": 1.7142840000000206
        },
        {
          "name": "C4",
          "midi": 60,
          "time": 335.9996639999994,
          "velocity": 1,
          "duration": 1.7142840000000206
        },
        {
          "name": "E4",
          "midi": 64,
          "time": 335.9996639999994,
          "velocity": 1,
          "duration": 1.7142840000000206
        },
        {
          "name": "C5",
          "midi": 72,
          "time": 335.9996639999994,
          "velocity": 1,
          "duration": 1.7142840000000206
        },
        {
          "name": "E5",
          "midi": 76,
          "time": 335.9996639999994,
          "velocity": 1,
          "duration": 1.7142840000000206
        },
        {
          "name": "C6",
          "midi": 84,
          "time": 335.9996639999994,
          "velocity": 1,
          "duration": 1.7142840000000206
        },
        {
          "name": "E6",
          "midi": 88,
          "time": 335.9996639999994,
          "velocity": 1,
          "duration": 1.7142840000000206
        },
        {
          "name": "C7",
          "midi": 96,
          "time": 335.9996639999994,
          "velocity": 1,
          "duration": 1.7142840000000206
        },
        {
          "name": "E7",
          "midi": 100,
          "time": 335.9996639999994,
          "velocity": 1,
          "duration": 1.7142840000000206
        },
        {
          "name": "D#4",
          "midi": 63,
          "time": 337.71394799999945,
          "velocity": 1,
          "duration": 1.7142840000000206
        },
        {
          "name": "D#5",
          "midi": 75,
          "time": 337.71394799999945,
          "velocity": 1,
          "duration": 1.7142840000000206
        },
        {
          "name": "D#6",
          "midi": 87,
          "time": 337.71394799999945,
          "velocity": 1,
          "duration": 1.7142840000000206
        },
        {
          "name": "D#7",
          "midi": 99,
          "time": 337.71394799999945,
          "velocity": 1,
          "duration": 1.7142840000000206
        },
        {
          "name": "C#4",
          "midi": 61,
          "time": 339.42823199999947,
          "velocity": 1,
          "duration": 1.7142840000000206
        },
        {
          "name": "C#5",
          "midi": 73,
          "time": 339.42823199999947,
          "velocity": 1,
          "duration": 1.7142840000000206
        },
        {
          "name": "C#6",
          "midi": 85,
          "time": 339.42823199999947,
          "velocity": 1,
          "duration": 1.7142840000000206
        },
        {
          "name": "C#7",
          "midi": 97,
          "time": 339.42823199999947,
          "velocity": 1,
          "duration": 1.7142840000000206
        },
        {
          "name": "D4",
          "midi": 62,
          "time": 341.1425159999995,
          "velocity": 1,
          "duration": 1.7142840000000206
        },
        {
          "name": "D5",
          "midi": 74,
          "time": 341.1425159999995,
          "velocity": 1,
          "duration": 1.7142840000000206
        },
        {
          "name": "D6",
          "midi": 86,
          "time": 341.1425159999995,
          "velocity": 1,
          "duration": 1.7142840000000206
        },
        {
          "name": "D7",
          "midi": 98,
          "time": 341.1425159999995,
          "velocity": 1,
          "duration": 1.7142840000000206
        },
        {
          "name": "C4",
          "midi": 60,
          "time": 342.8567999999995,
          "velocity": 1,
          "duration": 1.7142840000000206
        },
        {
          "name": "E4",
          "midi": 64,
          "time": 342.8567999999995,
          "velocity": 1,
          "duration": 1.7142840000000206
        },
        {
          "name": "C5",
          "midi": 72,
          "time": 342.8567999999995,
          "velocity": 1,
          "duration": 1.7142840000000206
        },
        {
          "name": "E5",
          "midi": 76,
          "time": 342.8567999999995,
          "velocity": 1,
          "duration": 1.7142840000000206
        },
        {
          "name": "C6",
          "midi": 84,
          "time": 342.8567999999995,
          "velocity": 1,
          "duration": 1.7142840000000206
        },
        {
          "name": "E6",
          "midi": 88,
          "time": 342.8567999999995,
          "velocity": 1,
          "duration": 1.7142840000000206
        },
        {
          "name": "C7",
          "midi": 96,
          "time": 342.8567999999995,
          "velocity": 1,
          "duration": 1.7142840000000206
        },
        {
          "name": "E7",
          "midi": 100,
          "time": 342.8567999999995,
          "velocity": 1,
          "duration": 1.7142840000000206
        },
        {
          "name": "D#4",
          "midi": 63,
          "time": 344.57108399999953,
          "velocity": 1,
          "duration": 1.7142840000000206
        },
        {
          "name": "D#5",
          "midi": 75,
          "time": 344.57108399999953,
          "velocity": 1,
          "duration": 1.7142840000000206
        },
        {
          "name": "D#6",
          "midi": 87,
          "time": 344.57108399999953,
          "velocity": 1,
          "duration": 1.7142840000000206
        },
        {
          "name": "D#7",
          "midi": 99,
          "time": 344.57108399999953,
          "velocity": 1,
          "duration": 1.7142840000000206
        },
        {
          "name": "C#4",
          "midi": 61,
          "time": 346.28536799999955,
          "velocity": 1,
          "duration": 1.7142840000000206
        },
        {
          "name": "C#5",
          "midi": 73,
          "time": 346.28536799999955,
          "velocity": 1,
          "duration": 1.7142840000000206
        },
        {
          "name": "C#6",
          "midi": 85,
          "time": 346.28536799999955,
          "velocity": 1,
          "duration": 1.7142840000000206
        },
        {
          "name": "C#7",
          "midi": 97,
          "time": 346.28536799999955,
          "velocity": 1,
          "duration": 1.7142840000000206
        },
        {
          "name": "D4",
          "midi": 62,
          "time": 347.99965199999957,
          "velocity": 1,
          "duration": 1.7142840000000206
        },
        {
          "name": "D5",
          "midi": 74,
          "time": 347.99965199999957,
          "velocity": 1,
          "duration": 1.7142840000000206
        },
        {
          "name": "D6",
          "midi": 86,
          "time": 347.99965199999957,
          "velocity": 1,
          "duration": 1.7142840000000206
        },
        {
          "name": "D7",
          "midi": 98,
          "time": 347.99965199999957,
          "velocity": 1,
          "duration": 1.7142840000000206
        },
        {
          "name": "C4",
          "midi": 60,
          "time": 349.7139359999996,
          "velocity": 1,
          "duration": 1.7142840000000206
        },
        {
          "name": "E4",
          "midi": 64,
          "time": 349.7139359999996,
          "velocity": 1,
          "duration": 1.7142840000000206
        },
        {
          "name": "C5",
          "midi": 72,
          "time": 349.7139359999996,
          "velocity": 1,
          "duration": 1.7142840000000206
        },
        {
          "name": "E5",
          "midi": 76,
          "time": 349.7139359999996,
          "velocity": 1,
          "duration": 1.7142840000000206
        },
        {
          "name": "C6",
          "midi": 84,
          "time": 349.7139359999996,
          "velocity": 1,
          "duration": 1.7142840000000206
        },
        {
          "name": "E6",
          "midi": 88,
          "time": 349.7139359999996,
          "velocity": 1,
          "duration": 1.7142840000000206
        },
        {
          "name": "C7",
          "midi": 96,
          "time": 349.7139359999996,
          "velocity": 1,
          "duration": 1.7142840000000206
        },
        {
          "name": "E7",
          "midi": 100,
          "time": 349.7139359999996,
          "velocity": 1,
          "duration": 1.7142840000000206
        },
        {
          "name": "D#4",
          "midi": 63,
          "time": 351.4282199999996,
          "velocity": 1,
          "duration": 1.7142840000000206
        },
        {
          "name": "D#5",
          "midi": 75,
          "time": 351.4282199999996,
          "velocity": 1,
          "duration": 1.7142840000000206
        },
        {
          "name": "D#6",
          "midi": 87,
          "time": 351.4282199999996,
          "velocity": 1,
          "duration": 1.7142840000000206
        },
        {
          "name": "D#7",
          "midi": 99,
          "time": 351.4282199999996,
          "velocity": 1,
          "duration": 1.7142840000000206
        },
        {
          "name": "C#4",
          "midi": 61,
          "time": 353.14250399999963,
          "velocity": 1,
          "duration": 1.7142840000000206
        },
        {
          "name": "C#5",
          "midi": 73,
          "time": 353.14250399999963,
          "velocity": 1,
          "duration": 1.7142840000000206
        },
        {
          "name": "C#6",
          "midi": 85,
          "time": 353.14250399999963,
          "velocity": 1,
          "duration": 1.7142840000000206
        },
        {
          "name": "C#7",
          "midi": 97,
          "time": 353.14250399999963,
          "velocity": 1,
          "duration": 1.7142840000000206
        },
        {
          "name": "D4",
          "midi": 62,
          "time": 354.85678799999965,
          "velocity": 1,
          "duration": 1.7142840000000206
        },
        {
          "name": "D5",
          "midi": 74,
          "time": 354.85678799999965,
          "velocity": 1,
          "duration": 1.7142840000000206
        },
        {
          "name": "D6",
          "midi": 86,
          "time": 354.85678799999965,
          "velocity": 1,
          "duration": 1.7142840000000206
        },
        {
          "name": "D7",
          "midi": 98,
          "time": 354.85678799999965,
          "velocity": 1,
          "duration": 1.7142840000000206
        },
        {
          "name": "C4",
          "midi": 60,
          "time": 356.5710719999997,
          "velocity": 1,
          "duration": 1.7142840000000206
        },
        {
          "name": "E4",
          "midi": 64,
          "time": 356.5710719999997,
          "velocity": 1,
          "duration": 1.7142840000000206
        },
        {
          "name": "C5",
          "midi": 72,
          "time": 356.5710719999997,
          "velocity": 1,
          "duration": 1.7142840000000206
        },
        {
          "name": "E5",
          "midi": 76,
          "time": 356.5710719999997,
          "velocity": 1,
          "duration": 1.7142840000000206
        },
        {
          "name": "C6",
          "midi": 84,
          "time": 356.5710719999997,
          "velocity": 1,
          "duration": 1.7142840000000206
        },
        {
          "name": "E6",
          "midi": 88,
          "time": 356.5710719999997,
          "velocity": 1,
          "duration": 1.7142840000000206
        },
        {
          "name": "C7",
          "midi": 96,
          "time": 356.5710719999997,
          "velocity": 1,
          "duration": 1.7142840000000206
        },
        {
          "name": "E7",
          "midi": 100,
          "time": 356.5710719999997,
          "velocity": 1,
          "duration": 1.7142840000000206
        },
        {
          "name": "D#4",
          "midi": 63,
          "time": 358.2853559999997,
          "velocity": 1,
          "duration": 1.7142840000000206
        },
        {
          "name": "D#5",
          "midi": 75,
          "time": 358.2853559999997,
          "velocity": 1,
          "duration": 1.7142840000000206
        },
        {
          "name": "D#6",
          "midi": 87,
          "time": 358.2853559999997,
          "velocity": 1,
          "duration": 1.7142840000000206
        },
        {
          "name": "D#7",
          "midi": 99,
          "time": 358.2853559999997,
          "velocity": 1,
          "duration": 1.7142840000000206
        },
        {
          "name": "C#4",
          "midi": 61,
          "time": 359.9996399999997,
          "velocity": 1,
          "duration": 1.7142840000000206
        },
        {
          "name": "C#5",
          "midi": 73,
          "time": 359.9996399999997,
          "velocity": 1,
          "duration": 1.7142840000000206
        },
        {
          "name": "C#6",
          "midi": 85,
          "time": 359.9996399999997,
          "velocity": 1,
          "duration": 1.7142840000000206
        },
        {
          "name": "C#7",
          "midi": 97,
          "time": 359.9996399999997,
          "velocity": 1,
          "duration": 1.7142840000000206
        },
        {
          "name": "D4",
          "midi": 62,
          "time": 361.71392399999974,
          "velocity": 1,
          "duration": 1.7142840000000206
        },
        {
          "name": "D5",
          "midi": 74,
          "time": 361.71392399999974,
          "velocity": 1,
          "duration": 1.7142840000000206
        },
        {
          "name": "D6",
          "midi": 86,
          "time": 361.71392399999974,
          "velocity": 1,
          "duration": 1.7142840000000206
        },
        {
          "name": "D7",
          "midi": 98,
          "time": 361.71392399999974,
          "velocity": 1,
          "duration": 1.7142840000000206
        },
        {
          "name": "C4",
          "midi": 60,
          "time": 363.42820799999976,
          "velocity": 1,
          "duration": 1.7142840000000206
        },
        {
          "name": "E4",
          "midi": 64,
          "time": 363.42820799999976,
          "velocity": 1,
          "duration": 1.7142840000000206
        },
        {
          "name": "C5",
          "midi": 72,
          "time": 363.42820799999976,
          "velocity": 1,
          "duration": 1.7142840000000206
        },
        {
          "name": "E5",
          "midi": 76,
          "time": 363.42820799999976,
          "velocity": 1,
          "duration": 1.7142840000000206
        },
        {
          "name": "C6",
          "midi": 84,
          "time": 363.42820799999976,
          "velocity": 1,
          "duration": 1.7142840000000206
        },
        {
          "name": "E6",
          "midi": 88,
          "time": 363.42820799999976,
          "velocity": 1,
          "duration": 1.7142840000000206
        },
        {
          "name": "C7",
          "midi": 96,
          "time": 363.42820799999976,
          "velocity": 1,
          "duration": 1.7142840000000206
        },
        {
          "name": "E7",
          "midi": 100,
          "time": 363.42820799999976,
          "velocity": 1,
          "duration": 1.7142840000000206
        },
        {
          "name": "D#4",
          "midi": 63,
          "time": 365.1424919999998,
          "velocity": 1,
          "duration": 1.7142840000000206
        },
        {
          "name": "D#5",
          "midi": 75,
          "time": 365.1424919999998,
          "velocity": 1,
          "duration": 1.7142840000000206
        },
        {
          "name": "D#6",
          "midi": 87,
          "time": 365.1424919999998,
          "velocity": 1,
          "duration": 1.7142840000000206
        },
        {
          "name": "D#7",
          "midi": 99,
          "time": 365.1424919999998,
          "velocity": 1,
          "duration": 1.7142840000000206
        },
        {
          "name": "C#4",
          "midi": 61,
          "time": 366.8567759999998,
          "velocity": 1,
          "duration": 1.7142840000000206
        },
        {
          "name": "C#5",
          "midi": 73,
          "time": 366.8567759999998,
          "velocity": 1,
          "duration": 1.7142840000000206
        },
        {
          "name": "C#6",
          "midi": 85,
          "time": 366.8567759999998,
          "velocity": 1,
          "duration": 1.7142840000000206
        },
        {
          "name": "C#7",
          "midi": 97,
          "time": 366.8567759999998,
          "velocity": 1,
          "duration": 1.7142840000000206
        },
        {
          "name": "D4",
          "midi": 62,
          "time": 368.5710599999998,
          "velocity": 1,
          "duration": 1.7142840000000206
        },
        {
          "name": "D5",
          "midi": 74,
          "time": 368.5710599999998,
          "velocity": 1,
          "duration": 1.7142840000000206
        },
        {
          "name": "D6",
          "midi": 86,
          "time": 368.5710599999998,
          "velocity": 1,
          "duration": 1.7142840000000206
        },
        {
          "name": "D7",
          "midi": 98,
          "time": 368.5710599999998,
          "velocity": 1,
          "duration": 1.7142840000000206
        },
        {
          "name": "C4",
          "midi": 60,
          "time": 370.28534399999984,
          "velocity": 0.7480314960629921,
          "duration": 0.4285709999999767
        },
        {
          "name": "E4",
          "midi": 64,
          "time": 370.28534399999984,
          "velocity": 0.7480314960629921,
          "duration": 0.4285709999999767
        },
        {
          "name": "C5",
          "midi": 72,
          "time": 370.28534399999984,
          "velocity": 0.7480314960629921,
          "duration": 0.4285709999999767
        },
        {
          "name": "E5",
          "midi": 76,
          "time": 370.28534399999984,
          "velocity": 0.7480314960629921,
          "duration": 0.4285709999999767
        },
        {
          "name": "C6",
          "midi": 84,
          "time": 370.28534399999984,
          "velocity": 0.7480314960629921,
          "duration": 0.4285709999999767
        },
        {
          "name": "E6",
          "midi": 88,
          "time": 370.28534399999984,
          "velocity": 0.7480314960629921,
          "duration": 0.4285709999999767
        },
        {
          "name": "C7",
          "midi": 96,
          "time": 370.28534399999984,
          "velocity": 0.7480314960629921,
          "duration": 0.4285709999999767
        },
        {
          "name": "E7",
          "midi": 100,
          "time": 370.28534399999984,
          "velocity": 0.7480314960629921,
          "duration": 0.4285709999999767
        },
        {
          "name": "E4",
          "midi": 64,
          "time": 370.7139149999998,
          "velocity": 0.7480314960629921,
          "duration": 0.4285709999999767
        },
        {
          "name": "E5",
          "midi": 76,
          "time": 370.7139149999998,
          "velocity": 0.7480314960629921,
          "duration": 0.4285709999999767
        },
        {
          "name": "E6",
          "midi": 88,
          "time": 370.7139149999998,
          "velocity": 0.7480314960629921,
          "duration": 0.4285709999999767
        },
        {
          "name": "E7",
          "midi": 100,
          "time": 370.7139149999998,
          "velocity": 0.7480314960629921,
          "duration": 0.4285709999999767
        },
        {
          "name": "E4",
          "midi": 64,
          "time": 371.1424859999998,
          "velocity": 0.7480314960629921,
          "duration": 0.4285709999999767
        },
        {
          "name": "E5",
          "midi": 76,
          "time": 371.1424859999998,
          "velocity": 0.7480314960629921,
          "duration": 0.4285709999999767
        },
        {
          "name": "E6",
          "midi": 88,
          "time": 371.1424859999998,
          "velocity": 0.7480314960629921,
          "duration": 0.4285709999999767
        },
        {
          "name": "E7",
          "midi": 100,
          "time": 371.1424859999998,
          "velocity": 0.7480314960629921,
          "duration": 0.4285709999999767
        },
        {
          "name": "E4",
          "midi": 64,
          "time": 371.57105699999977,
          "velocity": 0.7480314960629921,
          "duration": 0.21428550000001678
        },
        {
          "name": "E5",
          "midi": 76,
          "time": 371.57105699999977,
          "velocity": 0.7480314960629921,
          "duration": 0.21428550000001678
        },
        {
          "name": "E6",
          "midi": 88,
          "time": 371.57105699999977,
          "velocity": 0.7480314960629921,
          "duration": 0.21428550000001678
        },
        {
          "name": "E7",
          "midi": 100,
          "time": 371.57105699999977,
          "velocity": 0.7480314960629921,
          "duration": 0.21428550000001678
        },
        {
          "name": "E4",
          "midi": 64,
          "time": 371.7853424999998,
          "velocity": 0.7480314960629921,
          "duration": 0.21428550000001678
        },
        {
          "name": "E5",
          "midi": 76,
          "time": 371.7853424999998,
          "velocity": 0.7480314960629921,
          "duration": 0.21428550000001678
        },
        {
          "name": "E6",
          "midi": 88,
          "time": 371.7853424999998,
          "velocity": 0.7480314960629921,
          "duration": 0.21428550000001678
        },
        {
          "name": "E7",
          "midi": 100,
          "time": 371.7853424999998,
          "velocity": 0.7480314960629921,
          "duration": 0.21428550000001678
        },
        {
          "name": "D#4",
          "midi": 63,
          "time": 371.9996279999998,
          "velocity": 0.7480314960629921,
          "duration": 0.4285709999999767
        },
        {
          "name": "D#5",
          "midi": 75,
          "time": 371.9996279999998,
          "velocity": 0.7480314960629921,
          "duration": 0.4285709999999767
        },
        {
          "name": "D#6",
          "midi": 87,
          "time": 371.9996279999998,
          "velocity": 0.7480314960629921,
          "duration": 0.4285709999999767
        },
        {
          "name": "D#7",
          "midi": 99,
          "time": 371.9996279999998,
          "velocity": 0.7480314960629921,
          "duration": 0.4285709999999767
        },
        {
          "name": "D#4",
          "midi": 63,
          "time": 372.4281989999998,
          "velocity": 0.7480314960629921,
          "duration": 0.4285709999999767
        },
        {
          "name": "D#5",
          "midi": 75,
          "time": 372.4281989999998,
          "velocity": 0.7480314960629921,
          "duration": 0.4285709999999767
        },
        {
          "name": "D#6",
          "midi": 87,
          "time": 372.4281989999998,
          "velocity": 0.7480314960629921,
          "duration": 0.4285709999999767
        },
        {
          "name": "D#7",
          "midi": 99,
          "time": 372.4281989999998,
          "velocity": 0.7480314960629921,
          "duration": 0.4285709999999767
        },
        {
          "name": "D4",
          "midi": 62,
          "time": 372.85676999999976,
          "velocity": 0.7480314960629921,
          "duration": 0.4285709999999767
        },
        {
          "name": "D5",
          "midi": 74,
          "time": 372.85676999999976,
          "velocity": 0.7480314960629921,
          "duration": 0.4285709999999767
        },
        {
          "name": "D6",
          "midi": 86,
          "time": 372.85676999999976,
          "velocity": 0.7480314960629921,
          "duration": 0.4285709999999767
        },
        {
          "name": "D7",
          "midi": 98,
          "time": 372.85676999999976,
          "velocity": 0.7480314960629921,
          "duration": 0.4285709999999767
        },
        {
          "name": "D#4",
          "midi": 63,
          "time": 373.28534099999973,
          "velocity": 0.7480314960629921,
          "duration": 0.21428550000001678
        },
        {
          "name": "D#5",
          "midi": 75,
          "time": 373.28534099999973,
          "velocity": 0.7480314960629921,
          "duration": 0.21428550000001678
        },
        {
          "name": "D#6",
          "midi": 87,
          "time": 373.28534099999973,
          "velocity": 0.7480314960629921,
          "duration": 0.21428550000001678
        },
        {
          "name": "D#7",
          "midi": 99,
          "time": 373.28534099999973,
          "velocity": 0.7480314960629921,
          "duration": 0.21428550000001678
        },
        {
          "name": "D4",
          "midi": 62,
          "time": 373.49962649999975,
          "velocity": 0.7480314960629921,
          "duration": 0.21428550000001678
        },
        {
          "name": "D5",
          "midi": 74,
          "time": 373.49962649999975,
          "velocity": 0.7480314960629921,
          "duration": 0.21428550000001678
        },
        {
          "name": "D6",
          "midi": 86,
          "time": 373.49962649999975,
          "velocity": 0.7480314960629921,
          "duration": 0.21428550000001678
        },
        {
          "name": "D7",
          "midi": 98,
          "time": 373.49962649999975,
          "velocity": 0.7480314960629921,
          "duration": 0.21428550000001678
        },
        {
          "name": "C#4",
          "midi": 61,
          "time": 373.71391199999977,
          "velocity": 0.7480314960629921,
          "duration": 0.21428550000001678
        },
        {
          "name": "C#5",
          "midi": 73,
          "time": 373.71391199999977,
          "velocity": 0.7480314960629921,
          "duration": 0.21428550000001678
        },
        {
          "name": "C#6",
          "midi": 85,
          "time": 373.71391199999977,
          "velocity": 0.7480314960629921,
          "duration": 0.21428550000001678
        },
        {
          "name": "C#7",
          "midi": 97,
          "time": 373.71391199999977,
          "velocity": 0.7480314960629921,
          "duration": 0.21428550000001678
        },
        {
          "name": "E4",
          "midi": 64,
          "time": 373.9281974999998,
          "velocity": 0.7480314960629921,
          "duration": 0.21428550000001678
        },
        {
          "name": "E5",
          "midi": 76,
          "time": 373.9281974999998,
          "velocity": 0.7480314960629921,
          "duration": 0.21428550000001678
        },
        {
          "name": "E6",
          "midi": 88,
          "time": 373.9281974999998,
          "velocity": 0.7480314960629921,
          "duration": 0.21428550000001678
        },
        {
          "name": "E7",
          "midi": 100,
          "time": 373.9281974999998,
          "velocity": 0.7480314960629921,
          "duration": 0.21428550000001678
        },
        {
          "name": "C#4",
          "midi": 61,
          "time": 374.1424829999998,
          "velocity": 0.7480314960629921,
          "duration": 0.4285709999999767
        },
        {
          "name": "C#5",
          "midi": 73,
          "time": 374.1424829999998,
          "velocity": 0.7480314960629921,
          "duration": 0.4285709999999767
        },
        {
          "name": "C#6",
          "midi": 85,
          "time": 374.1424829999998,
          "velocity": 0.7480314960629921,
          "duration": 0.4285709999999767
        },
        {
          "name": "C#7",
          "midi": 97,
          "time": 374.1424829999998,
          "velocity": 0.7480314960629921,
          "duration": 0.4285709999999767
        },
        {
          "name": "E4",
          "midi": 64,
          "time": 374.5710539999998,
          "velocity": 0.7480314960629921,
          "duration": 0.4285709999999767
        },
        {
          "name": "E5",
          "midi": 76,
          "time": 374.5710539999998,
          "velocity": 0.7480314960629921,
          "duration": 0.4285709999999767
        },
        {
          "name": "E6",
          "midi": 88,
          "time": 374.5710539999998,
          "velocity": 0.7480314960629921,
          "duration": 0.4285709999999767
        },
        {
          "name": "E7",
          "midi": 100,
          "time": 374.5710539999998,
          "velocity": 0.7480314960629921,
          "duration": 0.4285709999999767
        },
        {
          "name": "C#4",
          "midi": 61,
          "time": 374.99962499999975,
          "velocity": 0.7480314960629921,
          "duration": 0.21428550000001678
        },
        {
          "name": "C#5",
          "midi": 73,
          "time": 374.99962499999975,
          "velocity": 0.7480314960629921,
          "duration": 0.21428550000001678
        },
        {
          "name": "C#6",
          "midi": 85,
          "time": 374.99962499999975,
          "velocity": 0.7480314960629921,
          "duration": 0.21428550000001678
        },
        {
          "name": "C#7",
          "midi": 97,
          "time": 374.99962499999975,
          "velocity": 0.7480314960629921,
          "duration": 0.21428550000001678
        },
        {
          "name": "E4",
          "midi": 64,
          "time": 375.21391049999977,
          "velocity": 0.7480314960629921,
          "duration": 0.21428550000001678
        },
        {
          "name": "E5",
          "midi": 76,
          "time": 375.21391049999977,
          "velocity": 0.7480314960629921,
          "duration": 0.21428550000001678
        },
        {
          "name": "E6",
          "midi": 88,
          "time": 375.21391049999977,
          "velocity": 0.7480314960629921,
          "duration": 0.21428550000001678
        },
        {
          "name": "E7",
          "midi": 100,
          "time": 375.21391049999977,
          "velocity": 0.7480314960629921,
          "duration": 0.21428550000001678
        },
        {
          "name": "D4",
          "midi": 62,
          "time": 375.4281959999998,
          "velocity": 0.7480314960629921,
          "duration": 0.21428550000001678
        },
        {
          "name": "D5",
          "midi": 74,
          "time": 375.4281959999998,
          "velocity": 0.7480314960629921,
          "duration": 0.21428550000001678
        },
        {
          "name": "D6",
          "midi": 86,
          "time": 375.4281959999998,
          "velocity": 0.7480314960629921,
          "duration": 0.21428550000001678
        },
        {
          "name": "D7",
          "midi": 98,
          "time": 375.4281959999998,
          "velocity": 0.7480314960629921,
          "duration": 0.21428550000001678
        },
        {
          "name": "C4",
          "midi": 60,
          "time": 375.6424814999998,
          "velocity": 0.7480314960629921,
          "duration": 0.21428550000001678
        },
        {
          "name": "C5",
          "midi": 72,
          "time": 375.6424814999998,
          "velocity": 0.7480314960629921,
          "duration": 0.21428550000001678
        },
        {
          "name": "C6",
          "midi": 84,
          "time": 375.6424814999998,
          "velocity": 0.7480314960629921,
          "duration": 0.21428550000001678
        },
        {
          "name": "C7",
          "midi": 96,
          "time": 375.6424814999998,
          "velocity": 0.7480314960629921,
          "duration": 0.21428550000001678
        },
        {
          "name": "D4",
          "midi": 62,
          "time": 375.8567669999998,
          "velocity": 0.7480314960629921,
          "duration": 0.4285709999999767
        },
        {
          "name": "D5",
          "midi": 74,
          "time": 375.8567669999998,
          "velocity": 0.7480314960629921,
          "duration": 0.4285709999999767
        },
        {
          "name": "D6",
          "midi": 86,
          "time": 375.8567669999998,
          "velocity": 0.7480314960629921,
          "duration": 0.4285709999999767
        },
        {
          "name": "D7",
          "midi": 98,
          "time": 375.8567669999998,
          "velocity": 0.7480314960629921,
          "duration": 0.4285709999999767
        },
        {
          "name": "C4",
          "midi": 60,
          "time": 376.2853379999998,
          "velocity": 0.7480314960629921,
          "duration": 0.4285709999999767
        },
        {
          "name": "C5",
          "midi": 72,
          "time": 376.2853379999998,
          "velocity": 0.7480314960629921,
          "duration": 0.4285709999999767
        },
        {
          "name": "C6",
          "midi": 84,
          "time": 376.2853379999998,
          "velocity": 0.7480314960629921,
          "duration": 0.4285709999999767
        },
        {
          "name": "C7",
          "midi": 96,
          "time": 376.2853379999998,
          "velocity": 0.7480314960629921,
          "duration": 0.4285709999999767
        },
        {
          "name": "D4",
          "midi": 62,
          "time": 376.7139089999998,
          "velocity": 0.7480314960629921,
          "duration": 0.4285709999999767
        },
        {
          "name": "D5",
          "midi": 74,
          "time": 376.7139089999998,
          "velocity": 0.7480314960629921,
          "duration": 0.4285709999999767
        },
        {
          "name": "D6",
          "midi": 86,
          "time": 376.7139089999998,
          "velocity": 0.7480314960629921,
          "duration": 0.4285709999999767
        },
        {
          "name": "D7",
          "midi": 98,
          "time": 376.7139089999998,
          "velocity": 0.7480314960629921,
          "duration": 0.4285709999999767
        },
        {
          "name": "C4",
          "midi": 60,
          "time": 377.14247999999975,
          "velocity": 0.7480314960629921,
          "duration": 0.4285709999999767
        },
        {
          "name": "D#4",
          "midi": 63,
          "time": 377.14247999999975,
          "velocity": 0.7480314960629921,
          "duration": 0.4285709999999767
        },
        {
          "name": "C5",
          "midi": 72,
          "time": 377.14247999999975,
          "velocity": 0.7480314960629921,
          "duration": 0.4285709999999767
        },
        {
          "name": "E5",
          "midi": 76,
          "time": 377.14247999999975,
          "velocity": 0.7480314960629921,
          "duration": 0.4285709999999767
        },
        {
          "name": "C6",
          "midi": 84,
          "time": 377.14247999999975,
          "velocity": 0.7480314960629921,
          "duration": 0.4285709999999767
        },
        {
          "name": "D#6",
          "midi": 87,
          "time": 377.14247999999975,
          "velocity": 0.7480314960629921,
          "duration": 0.4285709999999767
        },
        {
          "name": "C7",
          "midi": 96,
          "time": 377.14247999999975,
          "velocity": 0.7480314960629921,
          "duration": 0.4285709999999767
        },
        {
          "name": "E7",
          "midi": 100,
          "time": 377.14247999999975,
          "velocity": 0.7480314960629921,
          "duration": 0.4285709999999767
        },
        {
          "name": "D#4",
          "midi": 63,
          "time": 377.5710509999997,
          "velocity": 0.7480314960629921,
          "duration": 0.4285709999999767
        },
        {
          "name": "E5",
          "midi": 76,
          "time": 377.5710509999997,
          "velocity": 0.7480314960629921,
          "duration": 0.4285709999999767
        },
        {
          "name": "D#6",
          "midi": 87,
          "time": 377.5710509999997,
          "velocity": 0.7480314960629921,
          "duration": 0.4285709999999767
        },
        {
          "name": "E7",
          "midi": 100,
          "time": 377.5710509999997,
          "velocity": 0.7480314960629921,
          "duration": 0.4285709999999767
        },
        {
          "name": "D#4",
          "midi": 63,
          "time": 377.9996219999997,
          "velocity": 0.7480314960629921,
          "duration": 0.4285709999999767
        },
        {
          "name": "E5",
          "midi": 76,
          "time": 377.9996219999997,
          "velocity": 0.7480314960629921,
          "duration": 0.4285709999999767
        },
        {
          "name": "D#6",
          "midi": 87,
          "time": 377.9996219999997,
          "velocity": 0.7480314960629921,
          "duration": 0.4285709999999767
        },
        {
          "name": "E7",
          "midi": 100,
          "time": 377.9996219999997,
          "velocity": 0.7480314960629921,
          "duration": 0.4285709999999767
        },
        {
          "name": "D#4",
          "midi": 63,
          "time": 378.4281929999997,
          "velocity": 0.7480314960629921,
          "duration": 0.21428550000001678
        },
        {
          "name": "E5",
          "midi": 76,
          "time": 378.4281929999997,
          "velocity": 0.7480314960629921,
          "duration": 0.21428550000001678
        },
        {
          "name": "D#6",
          "midi": 87,
          "time": 378.4281929999997,
          "velocity": 0.7480314960629921,
          "duration": 0.21428550000001678
        },
        {
          "name": "E7",
          "midi": 100,
          "time": 378.4281929999997,
          "velocity": 0.7480314960629921,
          "duration": 0.21428550000001678
        },
        {
          "name": "D#4",
          "midi": 63,
          "time": 378.6424784999997,
          "velocity": 0.7480314960629921,
          "duration": 0.21428550000001678
        },
        {
          "name": "E5",
          "midi": 76,
          "time": 378.6424784999997,
          "velocity": 0.7480314960629921,
          "duration": 0.21428550000001678
        },
        {
          "name": "D#6",
          "midi": 87,
          "time": 378.6424784999997,
          "velocity": 0.7480314960629921,
          "duration": 0.21428550000001678
        },
        {
          "name": "E7",
          "midi": 100,
          "time": 378.6424784999997,
          "velocity": 0.7480314960629921,
          "duration": 0.21428550000001678
        },
        {
          "name": "D#4",
          "midi": 63,
          "time": 378.8567639999997,
          "velocity": 0.7480314960629921,
          "duration": 0.4285709999999767
        },
        {
          "name": "D#5",
          "midi": 75,
          "time": 378.8567639999997,
          "velocity": 0.7480314960629921,
          "duration": 0.4285709999999767
        },
        {
          "name": "D#6",
          "midi": 87,
          "time": 378.8567639999997,
          "velocity": 0.7480314960629921,
          "duration": 0.4285709999999767
        },
        {
          "name": "D#7",
          "midi": 99,
          "time": 378.8567639999997,
          "velocity": 0.7480314960629921,
          "duration": 0.4285709999999767
        },
        {
          "name": "D#4",
          "midi": 63,
          "time": 379.2853349999997,
          "velocity": 0.7480314960629921,
          "duration": 0.4285709999999767
        },
        {
          "name": "D#5",
          "midi": 75,
          "time": 379.2853349999997,
          "velocity": 0.7480314960629921,
          "duration": 0.4285709999999767
        },
        {
          "name": "D#6",
          "midi": 87,
          "time": 379.2853349999997,
          "velocity": 0.7480314960629921,
          "duration": 0.4285709999999767
        },
        {
          "name": "D#7",
          "midi": 99,
          "time": 379.2853349999997,
          "velocity": 0.7480314960629921,
          "duration": 0.4285709999999767
        },
        {
          "name": "D4",
          "midi": 62,
          "time": 379.71390599999967,
          "velocity": 0.7480314960629921,
          "duration": 0.4285709999999767
        },
        {
          "name": "D5",
          "midi": 74,
          "time": 379.71390599999967,
          "velocity": 0.7480314960629921,
          "duration": 0.4285709999999767
        },
        {
          "name": "D6",
          "midi": 86,
          "time": 379.71390599999967,
          "velocity": 0.7480314960629921,
          "duration": 0.4285709999999767
        },
        {
          "name": "D7",
          "midi": 98,
          "time": 379.71390599999967,
          "velocity": 0.7480314960629921,
          "duration": 0.4285709999999767
        },
        {
          "name": "D#4",
          "midi": 63,
          "time": 380.14247699999964,
          "velocity": 0.7480314960629921,
          "duration": 0.21428550000001678
        },
        {
          "name": "D#5",
          "midi": 75,
          "time": 380.14247699999964,
          "velocity": 0.7480314960629921,
          "duration": 0.21428550000001678
        },
        {
          "name": "D#6",
          "midi": 87,
          "time": 380.14247699999964,
          "velocity": 0.7480314960629921,
          "duration": 0.21428550000001678
        },
        {
          "name": "D#7",
          "midi": 99,
          "time": 380.14247699999964,
          "velocity": 0.7480314960629921,
          "duration": 0.21428550000001678
        },
        {
          "name": "D4",
          "midi": 62,
          "time": 380.35676249999966,
          "velocity": 0.7480314960629921,
          "duration": 0.21428550000001678
        },
        {
          "name": "D5",
          "midi": 74,
          "time": 380.35676249999966,
          "velocity": 0.7480314960629921,
          "duration": 0.21428550000001678
        },
        {
          "name": "D6",
          "midi": 86,
          "time": 380.35676249999966,
          "velocity": 0.7480314960629921,
          "duration": 0.21428550000001678
        },
        {
          "name": "D7",
          "midi": 98,
          "time": 380.35676249999966,
          "velocity": 0.7480314960629921,
          "duration": 0.21428550000001678
        },
        {
          "name": "C#4",
          "midi": 61,
          "time": 380.5710479999997,
          "velocity": 0.7480314960629921,
          "duration": 0.21428550000001678
        },
        {
          "name": "C#5",
          "midi": 73,
          "time": 380.5710479999997,
          "velocity": 0.7480314960629921,
          "duration": 0.21428550000001678
        },
        {
          "name": "C#6",
          "midi": 85,
          "time": 380.5710479999997,
          "velocity": 0.7480314960629921,
          "duration": 0.21428550000001678
        },
        {
          "name": "C#7",
          "midi": 97,
          "time": 380.5710479999997,
          "velocity": 0.7480314960629921,
          "duration": 0.21428550000001678
        },
        {
          "name": "E4",
          "midi": 64,
          "time": 380.7853334999997,
          "velocity": 0.7480314960629921,
          "duration": 0.21428550000001678
        },
        {
          "name": "E5",
          "midi": 76,
          "time": 380.7853334999997,
          "velocity": 0.7480314960629921,
          "duration": 0.21428550000001678
        },
        {
          "name": "E6",
          "midi": 88,
          "time": 380.7853334999997,
          "velocity": 0.7480314960629921,
          "duration": 0.21428550000001678
        },
        {
          "name": "E7",
          "midi": 100,
          "time": 380.7853334999997,
          "velocity": 0.7480314960629921,
          "duration": 0.21428550000001678
        },
        {
          "name": "C#4",
          "midi": 61,
          "time": 380.9996189999997,
          "velocity": 0.7480314960629921,
          "duration": 0.4285709999999767
        },
        {
          "name": "C#5",
          "midi": 73,
          "time": 380.9996189999997,
          "velocity": 0.7480314960629921,
          "duration": 0.4285709999999767
        },
        {
          "name": "C#6",
          "midi": 85,
          "time": 380.9996189999997,
          "velocity": 0.7480314960629921,
          "duration": 0.4285709999999767
        },
        {
          "name": "C#7",
          "midi": 97,
          "time": 380.9996189999997,
          "velocity": 0.7480314960629921,
          "duration": 0.4285709999999767
        },
        {
          "name": "E4",
          "midi": 64,
          "time": 381.4281899999997,
          "velocity": 0.7480314960629921,
          "duration": 0.4285709999999767
        },
        {
          "name": "E5",
          "midi": 76,
          "time": 381.4281899999997,
          "velocity": 0.7480314960629921,
          "duration": 0.4285709999999767
        },
        {
          "name": "E6",
          "midi": 88,
          "time": 381.4281899999997,
          "velocity": 0.7480314960629921,
          "duration": 0.4285709999999767
        },
        {
          "name": "E7",
          "midi": 100,
          "time": 381.4281899999997,
          "velocity": 0.7480314960629921,
          "duration": 0.4285709999999767
        },
        {
          "name": "C#4",
          "midi": 61,
          "time": 381.85676099999966,
          "velocity": 0.7480314960629921,
          "duration": 0.21428550000001678
        },
        {
          "name": "C#5",
          "midi": 73,
          "time": 381.85676099999966,
          "velocity": 0.7480314960629921,
          "duration": 0.21428550000001678
        },
        {
          "name": "C#6",
          "midi": 85,
          "time": 381.85676099999966,
          "velocity": 0.7480314960629921,
          "duration": 0.21428550000001678
        },
        {
          "name": "C#7",
          "midi": 97,
          "time": 381.85676099999966,
          "velocity": 0.7480314960629921,
          "duration": 0.21428550000001678
        },
        {
          "name": "E4",
          "midi": 64,
          "time": 382.0710464999997,
          "velocity": 0.7480314960629921,
          "duration": 0.21428550000001678
        },
        {
          "name": "E5",
          "midi": 76,
          "time": 382.0710464999997,
          "velocity": 0.7480314960629921,
          "duration": 0.21428550000001678
        },
        {
          "name": "E6",
          "midi": 88,
          "time": 382.0710464999997,
          "velocity": 0.7480314960629921,
          "duration": 0.21428550000001678
        },
        {
          "name": "E7",
          "midi": 100,
          "time": 382.0710464999997,
          "velocity": 0.7480314960629921,
          "duration": 0.21428550000001678
        },
        {
          "name": "D4",
          "midi": 62,
          "time": 382.2853319999997,
          "velocity": 0.7480314960629921,
          "duration": 0.21428550000001678
        },
        {
          "name": "D5",
          "midi": 74,
          "time": 382.2853319999997,
          "velocity": 0.7480314960629921,
          "duration": 0.21428550000001678
        },
        {
          "name": "D6",
          "midi": 86,
          "time": 382.2853319999997,
          "velocity": 0.7480314960629921,
          "duration": 0.21428550000001678
        },
        {
          "name": "D7",
          "midi": 98,
          "time": 382.2853319999997,
          "velocity": 0.7480314960629921,
          "duration": 0.21428550000001678
        },
        {
          "name": "C4",
          "midi": 60,
          "time": 382.4996174999997,
          "velocity": 0.7480314960629921,
          "duration": 0.21428550000001678
        },
        {
          "name": "C5",
          "midi": 72,
          "time": 382.4996174999997,
          "velocity": 0.7480314960629921,
          "duration": 0.21428550000001678
        },
        {
          "name": "C6",
          "midi": 84,
          "time": 382.4996174999997,
          "velocity": 0.7480314960629921,
          "duration": 0.21428550000001678
        },
        {
          "name": "C7",
          "midi": 96,
          "time": 382.4996174999997,
          "velocity": 0.7480314960629921,
          "duration": 0.21428550000001678
        },
        {
          "name": "D4",
          "midi": 62,
          "time": 382.71390299999973,
          "velocity": 0.7480314960629921,
          "duration": 0.4285709999999767
        },
        {
          "name": "D5",
          "midi": 74,
          "time": 382.71390299999973,
          "velocity": 0.7480314960629921,
          "duration": 0.4285709999999767
        },
        {
          "name": "D6",
          "midi": 86,
          "time": 382.71390299999973,
          "velocity": 0.7480314960629921,
          "duration": 0.4285709999999767
        },
        {
          "name": "D7",
          "midi": 98,
          "time": 382.71390299999973,
          "velocity": 0.7480314960629921,
          "duration": 0.4285709999999767
        },
        {
          "name": "C4",
          "midi": 60,
          "time": 383.1424739999997,
          "velocity": 0.7480314960629921,
          "duration": 0.4285709999999767
        },
        {
          "name": "C5",
          "midi": 72,
          "time": 383.1424739999997,
          "velocity": 0.7480314960629921,
          "duration": 0.4285709999999767
        },
        {
          "name": "C6",
          "midi": 84,
          "time": 383.1424739999997,
          "velocity": 0.7480314960629921,
          "duration": 0.4285709999999767
        },
        {
          "name": "C7",
          "midi": 96,
          "time": 383.1424739999997,
          "velocity": 0.7480314960629921,
          "duration": 0.4285709999999767
        },
        {
          "name": "D4",
          "midi": 62,
          "time": 383.5710449999997,
          "velocity": 0.7480314960629921,
          "duration": 0.4285709999999767
        },
        {
          "name": "D5",
          "midi": 74,
          "time": 383.5710449999997,
          "velocity": 0.7480314960629921,
          "duration": 0.4285709999999767
        },
        {
          "name": "D6",
          "midi": 86,
          "time": 383.5710449999997,
          "velocity": 0.7480314960629921,
          "duration": 0.4285709999999767
        },
        {
          "name": "D7",
          "midi": 98,
          "time": 383.5710449999997,
          "velocity": 0.7480314960629921,
          "duration": 0.4285709999999767
        },
        {
          "name": "E4",
          "midi": 64,
          "time": 383.99961599999966,
          "velocity": 0.7480314960629921,
          "duration": 0.8571420000000103
        },
        {
          "name": "E5",
          "midi": 76,
          "time": 383.99961599999966,
          "velocity": 0.7480314960629921,
          "duration": 0.8571420000000103
        },
        {
          "name": "E6",
          "midi": 88,
          "time": 383.99961599999966,
          "velocity": 0.7480314960629921,
          "duration": 0.8571420000000103
        },
        {
          "name": "E7",
          "midi": 100,
          "time": 383.99961599999966,
          "velocity": 0.7480314960629921,
          "duration": 0.8571420000000103
        },
        {
          "name": "E4",
          "midi": 64,
          "time": 384.8567579999997,
          "velocity": 0.7480314960629921,
          "duration": 0.4285709999999767
        },
        {
          "name": "E5",
          "midi": 76,
          "time": 384.8567579999997,
          "velocity": 0.7480314960629921,
          "duration": 0.4285709999999767
        },
        {
          "name": "E6",
          "midi": 88,
          "time": 384.8567579999997,
          "velocity": 0.7480314960629921,
          "duration": 0.4285709999999767
        },
        {
          "name": "E7",
          "midi": 100,
          "time": 384.8567579999997,
          "velocity": 0.7480314960629921,
          "duration": 0.4285709999999767
        },
        {
          "name": "E4",
          "midi": 64,
          "time": 385.28532899999965,
          "velocity": 0.7480314960629921,
          "duration": 0.21428550000001678
        },
        {
          "name": "E5",
          "midi": 76,
          "time": 385.28532899999965,
          "velocity": 0.7480314960629921,
          "duration": 0.21428550000001678
        },
        {
          "name": "E6",
          "midi": 88,
          "time": 385.28532899999965,
          "velocity": 0.7480314960629921,
          "duration": 0.21428550000001678
        },
        {
          "name": "E7",
          "midi": 100,
          "time": 385.28532899999965,
          "velocity": 0.7480314960629921,
          "duration": 0.21428550000001678
        },
        {
          "name": "E4",
          "midi": 64,
          "time": 385.49961449999967,
          "velocity": 0.7480314960629921,
          "duration": 0.21428550000001678
        },
        {
          "name": "E5",
          "midi": 76,
          "time": 385.49961449999967,
          "velocity": 0.7480314960629921,
          "duration": 0.21428550000001678
        },
        {
          "name": "E6",
          "midi": 88,
          "time": 385.49961449999967,
          "velocity": 0.7480314960629921,
          "duration": 0.21428550000001678
        },
        {
          "name": "E7",
          "midi": 100,
          "time": 385.49961449999967,
          "velocity": 0.7480314960629921,
          "duration": 0.21428550000001678
        },
        {
          "name": "D#4",
          "midi": 63,
          "time": 385.7138999999997,
          "velocity": 0.7480314960629921,
          "duration": 0.4285709999999767
        },
        {
          "name": "D#5",
          "midi": 75,
          "time": 385.7138999999997,
          "velocity": 0.7480314960629921,
          "duration": 0.4285709999999767
        },
        {
          "name": "D#6",
          "midi": 87,
          "time": 385.7138999999997,
          "velocity": 0.7480314960629921,
          "duration": 0.4285709999999767
        },
        {
          "name": "D#7",
          "midi": 99,
          "time": 385.7138999999997,
          "velocity": 0.7480314960629921,
          "duration": 0.4285709999999767
        },
        {
          "name": "D#4",
          "midi": 63,
          "time": 386.14247099999966,
          "velocity": 0.7480314960629921,
          "duration": 0.4285709999999767
        },
        {
          "name": "D#5",
          "midi": 75,
          "time": 386.14247099999966,
          "velocity": 0.7480314960629921,
          "duration": 0.4285709999999767
        },
        {
          "name": "D#6",
          "midi": 87,
          "time": 386.14247099999966,
          "velocity": 0.7480314960629921,
          "duration": 0.4285709999999767
        },
        {
          "name": "D#7",
          "midi": 99,
          "time": 386.14247099999966,
          "velocity": 0.7480314960629921,
          "duration": 0.4285709999999767
        },
        {
          "name": "D#4",
          "midi": 63,
          "time": 386.57104199999964,
          "velocity": 0.7480314960629921,
          "duration": 0.8571420000000103
        },
        {
          "name": "D#5",
          "midi": 75,
          "time": 386.57104199999964,
          "velocity": 0.7480314960629921,
          "duration": 0.8571420000000103
        },
        {
          "name": "D#6",
          "midi": 87,
          "time": 386.57104199999964,
          "velocity": 0.7480314960629921,
          "duration": 0.8571420000000103
        },
        {
          "name": "D#7",
          "midi": 99,
          "time": 386.57104199999964,
          "velocity": 0.7480314960629921,
          "duration": 0.8571420000000103
        },
        {
          "name": "C#4",
          "midi": 61,
          "time": 387.42818399999965,
          "velocity": 0.7480314960629921,
          "duration": 0.8571420000000103
        },
        {
          "name": "C#5",
          "midi": 73,
          "time": 387.42818399999965,
          "velocity": 0.7480314960629921,
          "duration": 0.8571420000000103
        },
        {
          "name": "C#6",
          "midi": 85,
          "time": 387.42818399999965,
          "velocity": 0.7480314960629921,
          "duration": 0.8571420000000103
        },
        {
          "name": "C#7",
          "midi": 97,
          "time": 387.42818399999965,
          "velocity": 0.7480314960629921,
          "duration": 0.8571420000000103
        },
        {
          "name": "C#4",
          "midi": 61,
          "time": 388.28532599999966,
          "velocity": 0.7480314960629921,
          "duration": 0.4285709999999767
        },
        {
          "name": "C#5",
          "midi": 73,
          "time": 388.28532599999966,
          "velocity": 0.7480314960629921,
          "duration": 0.4285709999999767
        },
        {
          "name": "C#6",
          "midi": 85,
          "time": 388.28532599999966,
          "velocity": 0.7480314960629921,
          "duration": 0.4285709999999767
        },
        {
          "name": "C#7",
          "midi": 97,
          "time": 388.28532599999966,
          "velocity": 0.7480314960629921,
          "duration": 0.4285709999999767
        },
        {
          "name": "C#4",
          "midi": 61,
          "time": 388.71389699999963,
          "velocity": 0.7480314960629921,
          "duration": 0.21428550000001678
        },
        {
          "name": "C#5",
          "midi": 73,
          "time": 388.71389699999963,
          "velocity": 0.7480314960629921,
          "duration": 0.21428550000001678
        },
        {
          "name": "C#6",
          "midi": 85,
          "time": 388.71389699999963,
          "velocity": 0.7480314960629921,
          "duration": 0.21428550000001678
        },
        {
          "name": "C#7",
          "midi": 97,
          "time": 388.71389699999963,
          "velocity": 0.7480314960629921,
          "duration": 0.21428550000001678
        },
        {
          "name": "C#4",
          "midi": 61,
          "time": 388.92818249999965,
          "velocity": 0.7480314960629921,
          "duration": 0.21428550000001678
        },
        {
          "name": "C#5",
          "midi": 73,
          "time": 388.92818249999965,
          "velocity": 0.7480314960629921,
          "duration": 0.21428550000001678
        },
        {
          "name": "C#6",
          "midi": 85,
          "time": 388.92818249999965,
          "velocity": 0.7480314960629921,
          "duration": 0.21428550000001678
        },
        {
          "name": "C#7",
          "midi": 97,
          "time": 388.92818249999965,
          "velocity": 0.7480314960629921,
          "duration": 0.21428550000001678
        },
        {
          "name": "D4",
          "midi": 62,
          "time": 389.14246799999967,
          "velocity": 0.7480314960629921,
          "duration": 0.4285709999999767
        },
        {
          "name": "D5",
          "midi": 74,
          "time": 389.14246799999967,
          "velocity": 0.7480314960629921,
          "duration": 0.4285709999999767
        },
        {
          "name": "D6",
          "midi": 86,
          "time": 389.14246799999967,
          "velocity": 0.7480314960629921,
          "duration": 0.4285709999999767
        },
        {
          "name": "D7",
          "midi": 98,
          "time": 389.14246799999967,
          "velocity": 0.7480314960629921,
          "duration": 0.4285709999999767
        },
        {
          "name": "D4",
          "midi": 62,
          "time": 389.57103899999964,
          "velocity": 0.7480314960629921,
          "duration": 0.4285709999999767
        },
        {
          "name": "D5",
          "midi": 74,
          "time": 389.57103899999964,
          "velocity": 0.7480314960629921,
          "duration": 0.4285709999999767
        },
        {
          "name": "D6",
          "midi": 86,
          "time": 389.57103899999964,
          "velocity": 0.7480314960629921,
          "duration": 0.4285709999999767
        },
        {
          "name": "D7",
          "midi": 98,
          "time": 389.57103899999964,
          "velocity": 0.7480314960629921,
          "duration": 0.4285709999999767
        },
        {
          "name": "D4",
          "midi": 62,
          "time": 389.9996099999996,
          "velocity": 0.7480314960629921,
          "duration": 0.8571420000000103
        },
        {
          "name": "D5",
          "midi": 74,
          "time": 389.9996099999996,
          "velocity": 0.7480314960629921,
          "duration": 0.8571420000000103
        },
        {
          "name": "D6",
          "midi": 86,
          "time": 389.9996099999996,
          "velocity": 0.7480314960629921,
          "duration": 0.8571420000000103
        },
        {
          "name": "D7",
          "midi": 98,
          "time": 389.9996099999996,
          "velocity": 0.7480314960629921,
          "duration": 0.8571420000000103
        },
        {
          "name": "E4",
          "midi": 64,
          "time": 390.85675199999963,
          "velocity": 0.7480314960629921,
          "duration": 0.8571420000000103
        },
        {
          "name": "E5",
          "midi": 76,
          "time": 390.85675199999963,
          "velocity": 0.7480314960629921,
          "duration": 0.8571420000000103
        },
        {
          "name": "E6",
          "midi": 88,
          "time": 390.85675199999963,
          "velocity": 0.7480314960629921,
          "duration": 0.8571420000000103
        },
        {
          "name": "E7",
          "midi": 100,
          "time": 390.85675199999963,
          "velocity": 0.7480314960629921,
          "duration": 0.8571420000000103
        },
        {
          "name": "E4",
          "midi": 64,
          "time": 391.71389399999964,
          "velocity": 0.7480314960629921,
          "duration": 0.4285709999999767
        },
        {
          "name": "E5",
          "midi": 76,
          "time": 391.71389399999964,
          "velocity": 0.7480314960629921,
          "duration": 0.4285709999999767
        },
        {
          "name": "E6",
          "midi": 88,
          "time": 391.71389399999964,
          "velocity": 0.7480314960629921,
          "duration": 0.4285709999999767
        },
        {
          "name": "E7",
          "midi": 100,
          "time": 391.71389399999964,
          "velocity": 0.7480314960629921,
          "duration": 0.4285709999999767
        },
        {
          "name": "E4",
          "midi": 64,
          "time": 392.1424649999996,
          "velocity": 0.7480314960629921,
          "duration": 0.21428550000001678
        },
        {
          "name": "E5",
          "midi": 76,
          "time": 392.1424649999996,
          "velocity": 0.7480314960629921,
          "duration": 0.21428550000001678
        },
        {
          "name": "E6",
          "midi": 88,
          "time": 392.1424649999996,
          "velocity": 0.7480314960629921,
          "duration": 0.21428550000001678
        },
        {
          "name": "E7",
          "midi": 100,
          "time": 392.1424649999996,
          "velocity": 0.7480314960629921,
          "duration": 0.21428550000001678
        },
        {
          "name": "E4",
          "midi": 64,
          "time": 392.35675049999963,
          "velocity": 0.7480314960629921,
          "duration": 0.21428550000001678
        },
        {
          "name": "E5",
          "midi": 76,
          "time": 392.35675049999963,
          "velocity": 0.7480314960629921,
          "duration": 0.21428550000001678
        },
        {
          "name": "E6",
          "midi": 88,
          "time": 392.35675049999963,
          "velocity": 0.7480314960629921,
          "duration": 0.21428550000001678
        },
        {
          "name": "E7",
          "midi": 100,
          "time": 392.35675049999963,
          "velocity": 0.7480314960629921,
          "duration": 0.21428550000001678
        },
        {
          "name": "D#4",
          "midi": 63,
          "time": 392.57103599999965,
          "velocity": 0.7480314960629921,
          "duration": 0.4285709999999767
        },
        {
          "name": "D#5",
          "midi": 75,
          "time": 392.57103599999965,
          "velocity": 0.7480314960629921,
          "duration": 0.4285709999999767
        },
        {
          "name": "D#6",
          "midi": 87,
          "time": 392.57103599999965,
          "velocity": 0.7480314960629921,
          "duration": 0.4285709999999767
        },
        {
          "name": "D#7",
          "midi": 99,
          "time": 392.57103599999965,
          "velocity": 0.7480314960629921,
          "duration": 0.4285709999999767
        },
        {
          "name": "D#4",
          "midi": 63,
          "time": 392.9996069999996,
          "velocity": 0.7480314960629921,
          "duration": 0.4285709999999767
        },
        {
          "name": "D#5",
          "midi": 75,
          "time": 392.9996069999996,
          "velocity": 0.7480314960629921,
          "duration": 0.4285709999999767
        },
        {
          "name": "D#6",
          "midi": 87,
          "time": 392.9996069999996,
          "velocity": 0.7480314960629921,
          "duration": 0.4285709999999767
        },
        {
          "name": "D#7",
          "midi": 99,
          "time": 392.9996069999996,
          "velocity": 0.7480314960629921,
          "duration": 0.4285709999999767
        },
        {
          "name": "D#4",
          "midi": 63,
          "time": 393.4281779999996,
          "velocity": 0.7480314960629921,
          "duration": 0.8571420000000103
        },
        {
          "name": "D#5",
          "midi": 75,
          "time": 393.4281779999996,
          "velocity": 0.7480314960629921,
          "duration": 0.8571420000000103
        },
        {
          "name": "D#6",
          "midi": 87,
          "time": 393.4281779999996,
          "velocity": 0.7480314960629921,
          "duration": 0.8571420000000103
        },
        {
          "name": "D#7",
          "midi": 99,
          "time": 393.4281779999996,
          "velocity": 0.7480314960629921,
          "duration": 0.8571420000000103
        },
        {
          "name": "C#4",
          "midi": 61,
          "time": 394.2853199999996,
          "velocity": 0.7480314960629921,
          "duration": 0.8571420000000103
        },
        {
          "name": "C#5",
          "midi": 73,
          "time": 394.2853199999996,
          "velocity": 0.7480314960629921,
          "duration": 0.8571420000000103
        },
        {
          "name": "C#6",
          "midi": 85,
          "time": 394.2853199999996,
          "velocity": 0.7480314960629921,
          "duration": 0.8571420000000103
        },
        {
          "name": "C#7",
          "midi": 97,
          "time": 394.2853199999996,
          "velocity": 0.7480314960629921,
          "duration": 0.8571420000000103
        },
        {
          "name": "C#4",
          "midi": 61,
          "time": 395.1424619999996,
          "velocity": 0.7480314960629921,
          "duration": 0.4285709999999767
        },
        {
          "name": "C#5",
          "midi": 73,
          "time": 395.1424619999996,
          "velocity": 0.7480314960629921,
          "duration": 0.4285709999999767
        },
        {
          "name": "C#6",
          "midi": 85,
          "time": 395.1424619999996,
          "velocity": 0.7480314960629921,
          "duration": 0.4285709999999767
        },
        {
          "name": "C#7",
          "midi": 97,
          "time": 395.1424619999996,
          "velocity": 0.7480314960629921,
          "duration": 0.4285709999999767
        },
        {
          "name": "C#4",
          "midi": 61,
          "time": 395.5710329999996,
          "velocity": 0.7480314960629921,
          "duration": 0.21428550000001678
        },
        {
          "name": "C#5",
          "midi": 73,
          "time": 395.5710329999996,
          "velocity": 0.7480314960629921,
          "duration": 0.21428550000001678
        },
        {
          "name": "C#6",
          "midi": 85,
          "time": 395.5710329999996,
          "velocity": 0.7480314960629921,
          "duration": 0.21428550000001678
        },
        {
          "name": "C#7",
          "midi": 97,
          "time": 395.5710329999996,
          "velocity": 0.7480314960629921,
          "duration": 0.21428550000001678
        },
        {
          "name": "C#4",
          "midi": 61,
          "time": 395.7853184999996,
          "velocity": 0.7480314960629921,
          "duration": 0.21428550000001678
        },
        {
          "name": "C#5",
          "midi": 73,
          "time": 395.7853184999996,
          "velocity": 0.7480314960629921,
          "duration": 0.21428550000001678
        },
        {
          "name": "C#6",
          "midi": 85,
          "time": 395.7853184999996,
          "velocity": 0.7480314960629921,
          "duration": 0.21428550000001678
        },
        {
          "name": "C#7",
          "midi": 97,
          "time": 395.7853184999996,
          "velocity": 0.7480314960629921,
          "duration": 0.21428550000001678
        },
        {
          "name": "D4",
          "midi": 62,
          "time": 395.99960399999964,
          "velocity": 0.7480314960629921,
          "duration": 0.4285709999999767
        },
        {
          "name": "D5",
          "midi": 74,
          "time": 395.99960399999964,
          "velocity": 0.7480314960629921,
          "duration": 0.4285709999999767
        },
        {
          "name": "D6",
          "midi": 86,
          "time": 395.99960399999964,
          "velocity": 0.7480314960629921,
          "duration": 0.4285709999999767
        },
        {
          "name": "D7",
          "midi": 98,
          "time": 395.99960399999964,
          "velocity": 0.7480314960629921,
          "duration": 0.4285709999999767
        },
        {
          "name": "D4",
          "midi": 62,
          "time": 396.4281749999996,
          "velocity": 0.7480314960629921,
          "duration": 0.4285709999999767
        },
        {
          "name": "D5",
          "midi": 74,
          "time": 396.4281749999996,
          "velocity": 0.7480314960629921,
          "duration": 0.4285709999999767
        },
        {
          "name": "D6",
          "midi": 86,
          "time": 396.4281749999996,
          "velocity": 0.7480314960629921,
          "duration": 0.4285709999999767
        },
        {
          "name": "D7",
          "midi": 98,
          "time": 396.4281749999996,
          "velocity": 0.7480314960629921,
          "duration": 0.4285709999999767
        },
        {
          "name": "D4",
          "midi": 62,
          "time": 396.8567459999996,
          "velocity": 0.7480314960629921,
          "duration": 0.8571420000000103
        },
        {
          "name": "D5",
          "midi": 74,
          "time": 396.8567459999996,
          "velocity": 0.7480314960629921,
          "duration": 0.8571420000000103
        },
        {
          "name": "D6",
          "midi": 86,
          "time": 396.8567459999996,
          "velocity": 0.7480314960629921,
          "duration": 0.8571420000000103
        },
        {
          "name": "D7",
          "midi": 98,
          "time": 396.8567459999996,
          "velocity": 0.7480314960629921,
          "duration": 0.8571420000000103
        },
        {
          "name": "E4",
          "midi": 64,
          "time": 397.7138879999996,
          "velocity": 0.7480314960629921,
          "duration": 0.8571420000000103
        },
        {
          "name": "E5",
          "midi": 76,
          "time": 397.7138879999996,
          "velocity": 0.7480314960629921,
          "duration": 0.8571420000000103
        },
        {
          "name": "E6",
          "midi": 88,
          "time": 397.7138879999996,
          "velocity": 0.7480314960629921,
          "duration": 0.8571420000000103
        },
        {
          "name": "E7",
          "midi": 100,
          "time": 397.7138879999996,
          "velocity": 0.7480314960629921,
          "duration": 0.8571420000000103
        },
        {
          "name": "E4",
          "midi": 64,
          "time": 398.5710299999996,
          "velocity": 0.7480314960629921,
          "duration": 0.4285709999999767
        },
        {
          "name": "E5",
          "midi": 76,
          "time": 398.5710299999996,
          "velocity": 0.7480314960629921,
          "duration": 0.4285709999999767
        },
        {
          "name": "E6",
          "midi": 88,
          "time": 398.5710299999996,
          "velocity": 0.7480314960629921,
          "duration": 0.4285709999999767
        },
        {
          "name": "E7",
          "midi": 100,
          "time": 398.5710299999996,
          "velocity": 0.7480314960629921,
          "duration": 0.4285709999999767
        },
        {
          "name": "E4",
          "midi": 64,
          "time": 398.9996009999996,
          "velocity": 0.7480314960629921,
          "duration": 0.21428550000001678
        },
        {
          "name": "E5",
          "midi": 76,
          "time": 398.9996009999996,
          "velocity": 0.7480314960629921,
          "duration": 0.21428550000001678
        },
        {
          "name": "E6",
          "midi": 88,
          "time": 398.9996009999996,
          "velocity": 0.7480314960629921,
          "duration": 0.21428550000001678
        },
        {
          "name": "E7",
          "midi": 100,
          "time": 398.9996009999996,
          "velocity": 0.7480314960629921,
          "duration": 0.21428550000001678
        },
        {
          "name": "E4",
          "midi": 64,
          "time": 399.2138864999996,
          "velocity": 0.7480314960629921,
          "duration": 0.21428550000001678
        },
        {
          "name": "E5",
          "midi": 76,
          "time": 399.2138864999996,
          "velocity": 0.7480314960629921,
          "duration": 0.21428550000001678
        },
        {
          "name": "E6",
          "midi": 88,
          "time": 399.2138864999996,
          "velocity": 0.7480314960629921,
          "duration": 0.21428550000001678
        },
        {
          "name": "E7",
          "midi": 100,
          "time": 399.2138864999996,
          "velocity": 0.7480314960629921,
          "duration": 0.21428550000001678
        },
        {
          "name": "D#4",
          "midi": 63,
          "time": 399.4281719999996,
          "velocity": 0.7480314960629921,
          "duration": 0.4285709999999767
        },
        {
          "name": "D#5",
          "midi": 75,
          "time": 399.4281719999996,
          "velocity": 0.7480314960629921,
          "duration": 0.4285709999999767
        },
        {
          "name": "D#6",
          "midi": 87,
          "time": 399.4281719999996,
          "velocity": 0.7480314960629921,
          "duration": 0.4285709999999767
        },
        {
          "name": "D#7",
          "midi": 99,
          "time": 399.4281719999996,
          "velocity": 0.7480314960629921,
          "duration": 0.4285709999999767
        },
        {
          "name": "D#4",
          "midi": 63,
          "time": 399.8567429999996,
          "velocity": 0.7480314960629921,
          "duration": 0.4285709999999767
        },
        {
          "name": "D#5",
          "midi": 75,
          "time": 399.8567429999996,
          "velocity": 0.7480314960629921,
          "duration": 0.4285709999999767
        },
        {
          "name": "D#6",
          "midi": 87,
          "time": 399.8567429999996,
          "velocity": 0.7480314960629921,
          "duration": 0.4285709999999767
        },
        {
          "name": "D#7",
          "midi": 99,
          "time": 399.8567429999996,
          "velocity": 0.7480314960629921,
          "duration": 0.4285709999999767
        },
        {
          "name": "D#4",
          "midi": 63,
          "time": 400.2853139999996,
          "velocity": 0.7480314960629921,
          "duration": 0.8571420000000103
        },
        {
          "name": "D#5",
          "midi": 75,
          "time": 400.2853139999996,
          "velocity": 0.7480314960629921,
          "duration": 0.8571420000000103
        },
        {
          "name": "D#6",
          "midi": 87,
          "time": 400.2853139999996,
          "velocity": 0.7480314960629921,
          "duration": 0.8571420000000103
        },
        {
          "name": "D#7",
          "midi": 99,
          "time": 400.2853139999996,
          "velocity": 0.7480314960629921,
          "duration": 0.8571420000000103
        },
        {
          "name": "C#4",
          "midi": 61,
          "time": 401.1424559999996,
          "velocity": 0.7480314960629921,
          "duration": 0.8571420000000103
        },
        {
          "name": "C#5",
          "midi": 73,
          "time": 401.1424559999996,
          "velocity": 0.7480314960629921,
          "duration": 0.8571420000000103
        },
        {
          "name": "C#6",
          "midi": 85,
          "time": 401.1424559999996,
          "velocity": 0.7480314960629921,
          "duration": 0.8571420000000103
        },
        {
          "name": "C#7",
          "midi": 97,
          "time": 401.1424559999996,
          "velocity": 0.7480314960629921,
          "duration": 0.8571420000000103
        },
        {
          "name": "C#4",
          "midi": 61,
          "time": 401.9995979999996,
          "velocity": 0.7480314960629921,
          "duration": 0.4285709999999767
        },
        {
          "name": "C#5",
          "midi": 73,
          "time": 401.9995979999996,
          "velocity": 0.7480314960629921,
          "duration": 0.4285709999999767
        },
        {
          "name": "C#6",
          "midi": 85,
          "time": 401.9995979999996,
          "velocity": 0.7480314960629921,
          "duration": 0.4285709999999767
        },
        {
          "name": "C#7",
          "midi": 97,
          "time": 401.9995979999996,
          "velocity": 0.7480314960629921,
          "duration": 0.4285709999999767
        },
        {
          "name": "C#4",
          "midi": 61,
          "time": 402.42816899999957,
          "velocity": 0.7480314960629921,
          "duration": 0.21428550000001678
        },
        {
          "name": "C#5",
          "midi": 73,
          "time": 402.42816899999957,
          "velocity": 0.7480314960629921,
          "duration": 0.21428550000001678
        },
        {
          "name": "C#6",
          "midi": 85,
          "time": 402.42816899999957,
          "velocity": 0.7480314960629921,
          "duration": 0.21428550000001678
        },
        {
          "name": "C#7",
          "midi": 97,
          "time": 402.42816899999957,
          "velocity": 0.7480314960629921,
          "duration": 0.21428550000001678
        },
        {
          "name": "C#4",
          "midi": 61,
          "time": 402.6424544999996,
          "velocity": 0.7480314960629921,
          "duration": 0.21428550000001678
        },
        {
          "name": "C#5",
          "midi": 73,
          "time": 402.6424544999996,
          "velocity": 0.7480314960629921,
          "duration": 0.21428550000001678
        },
        {
          "name": "C#6",
          "midi": 85,
          "time": 402.6424544999996,
          "velocity": 0.7480314960629921,
          "duration": 0.21428550000001678
        },
        {
          "name": "C#7",
          "midi": 97,
          "time": 402.6424544999996,
          "velocity": 0.7480314960629921,
          "duration": 0.21428550000001678
        },
        {
          "name": "D4",
          "midi": 62,
          "time": 402.8567399999996,
          "velocity": 0.7480314960629921,
          "duration": 0.4285709999999767
        },
        {
          "name": "D5",
          "midi": 74,
          "time": 402.8567399999996,
          "velocity": 0.7480314960629921,
          "duration": 0.4285709999999767
        },
        {
          "name": "D6",
          "midi": 86,
          "time": 402.8567399999996,
          "velocity": 0.7480314960629921,
          "duration": 0.4285709999999767
        },
        {
          "name": "D7",
          "midi": 98,
          "time": 402.8567399999996,
          "velocity": 0.7480314960629921,
          "duration": 0.4285709999999767
        },
        {
          "name": "D4",
          "midi": 62,
          "time": 403.2853109999996,
          "velocity": 0.7480314960629921,
          "duration": 0.4285709999999767
        },
        {
          "name": "D5",
          "midi": 74,
          "time": 403.2853109999996,
          "velocity": 0.7480314960629921,
          "duration": 0.4285709999999767
        },
        {
          "name": "D6",
          "midi": 86,
          "time": 403.2853109999996,
          "velocity": 0.7480314960629921,
          "duration": 0.4285709999999767
        },
        {
          "name": "D7",
          "midi": 98,
          "time": 403.2853109999996,
          "velocity": 0.7480314960629921,
          "duration": 0.4285709999999767
        },
        {
          "name": "D4",
          "midi": 62,
          "time": 403.71388199999956,
          "velocity": 0.7480314960629921,
          "duration": 0.8571420000000103
        },
        {
          "name": "D5",
          "midi": 74,
          "time": 403.71388199999956,
          "velocity": 0.7480314960629921,
          "duration": 0.8571420000000103
        },
        {
          "name": "D6",
          "midi": 86,
          "time": 403.71388199999956,
          "velocity": 0.7480314960629921,
          "duration": 0.8571420000000103
        },
        {
          "name": "D7",
          "midi": 98,
          "time": 403.71388199999956,
          "velocity": 0.7480314960629921,
          "duration": 0.8571420000000103
        },
        {
          "name": "E4",
          "midi": 64,
          "time": 404.57102399999957,
          "velocity": 0.7480314960629921,
          "duration": 0.8571420000000103
        },
        {
          "name": "E5",
          "midi": 76,
          "time": 404.57102399999957,
          "velocity": 0.7480314960629921,
          "duration": 0.8571420000000103
        },
        {
          "name": "E6",
          "midi": 88,
          "time": 404.57102399999957,
          "velocity": 0.7480314960629921,
          "duration": 0.8571420000000103
        },
        {
          "name": "E7",
          "midi": 100,
          "time": 404.57102399999957,
          "velocity": 0.7480314960629921,
          "duration": 0.8571420000000103
        },
        {
          "name": "E4",
          "midi": 64,
          "time": 405.4281659999996,
          "velocity": 0.7480314960629921,
          "duration": 0.4285709999999767
        },
        {
          "name": "E5",
          "midi": 76,
          "time": 405.4281659999996,
          "velocity": 0.7480314960629921,
          "duration": 0.4285709999999767
        },
        {
          "name": "E6",
          "midi": 88,
          "time": 405.4281659999996,
          "velocity": 0.7480314960629921,
          "duration": 0.4285709999999767
        },
        {
          "name": "E7",
          "midi": 100,
          "time": 405.4281659999996,
          "velocity": 0.7480314960629921,
          "duration": 0.4285709999999767
        },
        {
          "name": "E4",
          "midi": 64,
          "time": 405.85673699999955,
          "velocity": 0.7480314960629921,
          "duration": 0.21428550000001678
        },
        {
          "name": "E5",
          "midi": 76,
          "time": 405.85673699999955,
          "velocity": 0.7480314960629921,
          "duration": 0.21428550000001678
        },
        {
          "name": "E6",
          "midi": 88,
          "time": 405.85673699999955,
          "velocity": 0.7480314960629921,
          "duration": 0.21428550000001678
        },
        {
          "name": "E7",
          "midi": 100,
          "time": 405.85673699999955,
          "velocity": 0.7480314960629921,
          "duration": 0.21428550000001678
        },
        {
          "name": "E4",
          "midi": 64,
          "time": 406.0710224999996,
          "velocity": 0.7480314960629921,
          "duration": 0.21428550000001678
        },
        {
          "name": "E5",
          "midi": 76,
          "time": 406.0710224999996,
          "velocity": 0.7480314960629921,
          "duration": 0.21428550000001678
        },
        {
          "name": "E6",
          "midi": 88,
          "time": 406.0710224999996,
          "velocity": 0.7480314960629921,
          "duration": 0.21428550000001678
        },
        {
          "name": "E7",
          "midi": 100,
          "time": 406.0710224999996,
          "velocity": 0.7480314960629921,
          "duration": 0.21428550000001678
        },
        {
          "name": "D#4",
          "midi": 63,
          "time": 406.2853079999996,
          "velocity": 0.7480314960629921,
          "duration": 0.4285709999999767
        },
        {
          "name": "D#5",
          "midi": 75,
          "time": 406.2853079999996,
          "velocity": 0.7480314960629921,
          "duration": 0.4285709999999767
        },
        {
          "name": "D#6",
          "midi": 87,
          "time": 406.2853079999996,
          "velocity": 0.7480314960629921,
          "duration": 0.4285709999999767
        },
        {
          "name": "D#7",
          "midi": 99,
          "time": 406.2853079999996,
          "velocity": 0.7480314960629921,
          "duration": 0.4285709999999767
        },
        {
          "name": "D#4",
          "midi": 63,
          "time": 406.71387899999957,
          "velocity": 0.7480314960629921,
          "duration": 0.4285709999999767
        },
        {
          "name": "D#5",
          "midi": 75,
          "time": 406.71387899999957,
          "velocity": 0.7480314960629921,
          "duration": 0.4285709999999767
        },
        {
          "name": "D#6",
          "midi": 87,
          "time": 406.71387899999957,
          "velocity": 0.7480314960629921,
          "duration": 0.4285709999999767
        },
        {
          "name": "D#7",
          "midi": 99,
          "time": 406.71387899999957,
          "velocity": 0.7480314960629921,
          "duration": 0.4285709999999767
        },
        {
          "name": "D#4",
          "midi": 63,
          "time": 407.14244999999954,
          "velocity": 0.7480314960629921,
          "duration": 0.8571420000000103
        },
        {
          "name": "D#5",
          "midi": 75,
          "time": 407.14244999999954,
          "velocity": 0.7480314960629921,
          "duration": 0.8571420000000103
        },
        {
          "name": "D#6",
          "midi": 87,
          "time": 407.14244999999954,
          "velocity": 0.7480314960629921,
          "duration": 0.8571420000000103
        },
        {
          "name": "D#7",
          "midi": 99,
          "time": 407.14244999999954,
          "velocity": 0.7480314960629921,
          "duration": 0.8571420000000103
        },
        {
          "name": "C#4",
          "midi": 61,
          "time": 407.99959199999955,
          "velocity": 0.7480314960629921,
          "duration": 0.8571420000000103
        },
        {
          "name": "C#5",
          "midi": 73,
          "time": 407.99959199999955,
          "velocity": 0.7480314960629921,
          "duration": 0.8571420000000103
        },
        {
          "name": "C#6",
          "midi": 85,
          "time": 407.99959199999955,
          "velocity": 0.7480314960629921,
          "duration": 0.8571420000000103
        },
        {
          "name": "C#7",
          "midi": 97,
          "time": 407.99959199999955,
          "velocity": 0.7480314960629921,
          "duration": 0.8571420000000103
        },
        {
          "name": "C#4",
          "midi": 61,
          "time": 408.85673399999956,
          "velocity": 0.7480314960629921,
          "duration": 0.4285709999999767
        },
        {
          "name": "C#5",
          "midi": 73,
          "time": 408.85673399999956,
          "velocity": 0.7480314960629921,
          "duration": 0.4285709999999767
        },
        {
          "name": "C#6",
          "midi": 85,
          "time": 408.85673399999956,
          "velocity": 0.7480314960629921,
          "duration": 0.4285709999999767
        },
        {
          "name": "C#7",
          "midi": 97,
          "time": 408.85673399999956,
          "velocity": 0.7480314960629921,
          "duration": 0.4285709999999767
        },
        {
          "name": "C#4",
          "midi": 61,
          "time": 409.28530499999954,
          "velocity": 0.7480314960629921,
          "duration": 0.21428550000001678
        },
        {
          "name": "C#5",
          "midi": 73,
          "time": 409.28530499999954,
          "velocity": 0.7480314960629921,
          "duration": 0.21428550000001678
        },
        {
          "name": "C#6",
          "midi": 85,
          "time": 409.28530499999954,
          "velocity": 0.7480314960629921,
          "duration": 0.21428550000001678
        },
        {
          "name": "C#7",
          "midi": 97,
          "time": 409.28530499999954,
          "velocity": 0.7480314960629921,
          "duration": 0.21428550000001678
        },
        {
          "name": "C#4",
          "midi": 61,
          "time": 409.49959049999956,
          "velocity": 0.7480314960629921,
          "duration": 0.21428550000001678
        },
        {
          "name": "C#5",
          "midi": 73,
          "time": 409.49959049999956,
          "velocity": 0.7480314960629921,
          "duration": 0.21428550000001678
        },
        {
          "name": "C#6",
          "midi": 85,
          "time": 409.49959049999956,
          "velocity": 0.7480314960629921,
          "duration": 0.21428550000001678
        },
        {
          "name": "C#7",
          "midi": 97,
          "time": 409.49959049999956,
          "velocity": 0.7480314960629921,
          "duration": 0.21428550000001678
        },
        {
          "name": "D4",
          "midi": 62,
          "time": 409.7138759999996,
          "velocity": 0.7480314960629921,
          "duration": 0.4285709999999767
        },
        {
          "name": "D5",
          "midi": 74,
          "time": 409.7138759999996,
          "velocity": 0.7480314960629921,
          "duration": 0.4285709999999767
        },
        {
          "name": "D6",
          "midi": 86,
          "time": 409.7138759999996,
          "velocity": 0.7480314960629921,
          "duration": 0.4285709999999767
        },
        {
          "name": "D7",
          "midi": 98,
          "time": 409.7138759999996,
          "velocity": 0.7480314960629921,
          "duration": 0.4285709999999767
        },
        {
          "name": "D4",
          "midi": 62,
          "time": 410.14244699999955,
          "velocity": 0.7480314960629921,
          "duration": 0.4285709999999767
        },
        {
          "name": "D5",
          "midi": 74,
          "time": 410.14244699999955,
          "velocity": 0.7480314960629921,
          "duration": 0.4285709999999767
        },
        {
          "name": "D6",
          "midi": 86,
          "time": 410.14244699999955,
          "velocity": 0.7480314960629921,
          "duration": 0.4285709999999767
        },
        {
          "name": "D7",
          "midi": 98,
          "time": 410.14244699999955,
          "velocity": 0.7480314960629921,
          "duration": 0.4285709999999767
        },
        {
          "name": "D4",
          "midi": 62,
          "time": 410.5710179999995,
          "velocity": 0.7480314960629921,
          "duration": 0.8571420000000103
        },
        {
          "name": "D5",
          "midi": 74,
          "time": 410.5710179999995,
          "velocity": 0.7480314960629921,
          "duration": 0.8571420000000103
        },
        {
          "name": "D6",
          "midi": 86,
          "time": 410.5710179999995,
          "velocity": 0.7480314960629921,
          "duration": 0.8571420000000103
        },
        {
          "name": "D7",
          "midi": 98,
          "time": 410.5710179999995,
          "velocity": 0.7480314960629921,
          "duration": 0.8571420000000103
        },
        {
          "name": "E4",
          "midi": 64,
          "time": 411.42815999999954,
          "velocity": 0.7480314960629921,
          "duration": 0.8571420000000103
        },
        {
          "name": "E5",
          "midi": 76,
          "time": 411.42815999999954,
          "velocity": 0.7480314960629921,
          "duration": 0.8571420000000103
        },
        {
          "name": "E6",
          "midi": 88,
          "time": 411.42815999999954,
          "velocity": 0.7480314960629921,
          "duration": 0.8571420000000103
        },
        {
          "name": "E7",
          "midi": 100,
          "time": 411.42815999999954,
          "velocity": 0.7480314960629921,
          "duration": 0.8571420000000103
        },
        {
          "name": "E4",
          "midi": 64,
          "time": 412.28530199999955,
          "velocity": 0.7480314960629921,
          "duration": 0.4285709999999767
        },
        {
          "name": "E5",
          "midi": 76,
          "time": 412.28530199999955,
          "velocity": 0.7480314960629921,
          "duration": 0.4285709999999767
        },
        {
          "name": "E6",
          "midi": 88,
          "time": 412.28530199999955,
          "velocity": 0.7480314960629921,
          "duration": 0.4285709999999767
        },
        {
          "name": "E7",
          "midi": 100,
          "time": 412.28530199999955,
          "velocity": 0.7480314960629921,
          "duration": 0.4285709999999767
        },
        {
          "name": "E4",
          "midi": 64,
          "time": 412.7138729999995,
          "velocity": 0.7480314960629921,
          "duration": 0.21428550000001678
        },
        {
          "name": "E5",
          "midi": 76,
          "time": 412.7138729999995,
          "velocity": 0.7480314960629921,
          "duration": 0.21428550000001678
        },
        {
          "name": "E6",
          "midi": 88,
          "time": 412.7138729999995,
          "velocity": 0.7480314960629921,
          "duration": 0.21428550000001678
        },
        {
          "name": "E7",
          "midi": 100,
          "time": 412.7138729999995,
          "velocity": 0.7480314960629921,
          "duration": 0.21428550000001678
        },
        {
          "name": "E4",
          "midi": 64,
          "time": 412.92815849999954,
          "velocity": 0.7480314960629921,
          "duration": 0.21428550000001678
        },
        {
          "name": "E5",
          "midi": 76,
          "time": 412.92815849999954,
          "velocity": 0.7480314960629921,
          "duration": 0.21428550000001678
        },
        {
          "name": "E6",
          "midi": 88,
          "time": 412.92815849999954,
          "velocity": 0.7480314960629921,
          "duration": 0.21428550000001678
        },
        {
          "name": "E7",
          "midi": 100,
          "time": 412.92815849999954,
          "velocity": 0.7480314960629921,
          "duration": 0.21428550000001678
        },
        {
          "name": "D#4",
          "midi": 63,
          "time": 413.14244399999956,
          "velocity": 0.7480314960629921,
          "duration": 0.4285709999999767
        },
        {
          "name": "D#5",
          "midi": 75,
          "time": 413.14244399999956,
          "velocity": 0.7480314960629921,
          "duration": 0.4285709999999767
        },
        {
          "name": "D#6",
          "midi": 87,
          "time": 413.14244399999956,
          "velocity": 0.7480314960629921,
          "duration": 0.4285709999999767
        },
        {
          "name": "D#7",
          "midi": 99,
          "time": 413.14244399999956,
          "velocity": 0.7480314960629921,
          "duration": 0.4285709999999767
        },
        {
          "name": "D#4",
          "midi": 63,
          "time": 413.57101499999953,
          "velocity": 0.7480314960629921,
          "duration": 0.4285709999999767
        },
        {
          "name": "D#5",
          "midi": 75,
          "time": 413.57101499999953,
          "velocity": 0.7480314960629921,
          "duration": 0.4285709999999767
        },
        {
          "name": "D#6",
          "midi": 87,
          "time": 413.57101499999953,
          "velocity": 0.7480314960629921,
          "duration": 0.4285709999999767
        },
        {
          "name": "D#7",
          "midi": 99,
          "time": 413.57101499999953,
          "velocity": 0.7480314960629921,
          "duration": 0.4285709999999767
        },
        {
          "name": "D#4",
          "midi": 63,
          "time": 413.9995859999995,
          "velocity": 0.7480314960629921,
          "duration": 0.8571420000000103
        },
        {
          "name": "D#5",
          "midi": 75,
          "time": 413.9995859999995,
          "velocity": 0.7480314960629921,
          "duration": 0.8571420000000103
        },
        {
          "name": "D#6",
          "midi": 87,
          "time": 413.9995859999995,
          "velocity": 0.7480314960629921,
          "duration": 0.8571420000000103
        },
        {
          "name": "D#7",
          "midi": 99,
          "time": 413.9995859999995,
          "velocity": 0.7480314960629921,
          "duration": 0.8571420000000103
        },
        {
          "name": "C#4",
          "midi": 61,
          "time": 414.8567279999995,
          "velocity": 0.7480314960629921,
          "duration": 0.8571420000000103
        },
        {
          "name": "C#5",
          "midi": 73,
          "time": 414.8567279999995,
          "velocity": 0.7480314960629921,
          "duration": 0.8571420000000103
        },
        {
          "name": "C#6",
          "midi": 85,
          "time": 414.8567279999995,
          "velocity": 0.7480314960629921,
          "duration": 0.8571420000000103
        },
        {
          "name": "C#7",
          "midi": 97,
          "time": 414.8567279999995,
          "velocity": 0.7480314960629921,
          "duration": 0.8571420000000103
        },
        {
          "name": "C#4",
          "midi": 61,
          "time": 415.71386999999953,
          "velocity": 0.7480314960629921,
          "duration": 0.4285709999999767
        },
        {
          "name": "C#5",
          "midi": 73,
          "time": 415.71386999999953,
          "velocity": 0.7480314960629921,
          "duration": 0.4285709999999767
        },
        {
          "name": "C#6",
          "midi": 85,
          "time": 415.71386999999953,
          "velocity": 0.7480314960629921,
          "duration": 0.4285709999999767
        },
        {
          "name": "C#7",
          "midi": 97,
          "time": 415.71386999999953,
          "velocity": 0.7480314960629921,
          "duration": 0.4285709999999767
        },
        {
          "name": "C#4",
          "midi": 61,
          "time": 416.1424409999995,
          "velocity": 0.7480314960629921,
          "duration": 0.21428550000001678
        },
        {
          "name": "C#5",
          "midi": 73,
          "time": 416.1424409999995,
          "velocity": 0.7480314960629921,
          "duration": 0.21428550000001678
        },
        {
          "name": "C#6",
          "midi": 85,
          "time": 416.1424409999995,
          "velocity": 0.7480314960629921,
          "duration": 0.21428550000001678
        },
        {
          "name": "C#7",
          "midi": 97,
          "time": 416.1424409999995,
          "velocity": 0.7480314960629921,
          "duration": 0.21428550000001678
        },
        {
          "name": "C#4",
          "midi": 61,
          "time": 416.3567264999995,
          "velocity": 0.7480314960629921,
          "duration": 0.21428550000001678
        },
        {
          "name": "C#5",
          "midi": 73,
          "time": 416.3567264999995,
          "velocity": 0.7480314960629921,
          "duration": 0.21428550000001678
        },
        {
          "name": "C#6",
          "midi": 85,
          "time": 416.3567264999995,
          "velocity": 0.7480314960629921,
          "duration": 0.21428550000001678
        },
        {
          "name": "C#7",
          "midi": 97,
          "time": 416.3567264999995,
          "velocity": 0.7480314960629921,
          "duration": 0.21428550000001678
        },
        {
          "name": "D4",
          "midi": 62,
          "time": 416.57101199999954,
          "velocity": 0.7480314960629921,
          "duration": 0.4285709999999767
        },
        {
          "name": "D5",
          "midi": 74,
          "time": 416.57101199999954,
          "velocity": 0.7480314960629921,
          "duration": 0.4285709999999767
        },
        {
          "name": "D6",
          "midi": 86,
          "time": 416.57101199999954,
          "velocity": 0.7480314960629921,
          "duration": 0.4285709999999767
        },
        {
          "name": "D7",
          "midi": 98,
          "time": 416.57101199999954,
          "velocity": 0.7480314960629921,
          "duration": 0.4285709999999767
        },
        {
          "name": "D4",
          "midi": 62,
          "time": 416.9995829999995,
          "velocity": 0.7480314960629921,
          "duration": 0.4285709999999767
        },
        {
          "name": "D5",
          "midi": 74,
          "time": 416.9995829999995,
          "velocity": 0.7480314960629921,
          "duration": 0.4285709999999767
        },
        {
          "name": "D6",
          "midi": 86,
          "time": 416.9995829999995,
          "velocity": 0.7480314960629921,
          "duration": 0.4285709999999767
        },
        {
          "name": "D7",
          "midi": 98,
          "time": 416.9995829999995,
          "velocity": 0.7480314960629921,
          "duration": 0.4285709999999767
        },
        {
          "name": "D4",
          "midi": 62,
          "time": 417.4281539999995,
          "velocity": 0.7480314960629921,
          "duration": 0.8571420000000103
        },
        {
          "name": "D5",
          "midi": 74,
          "time": 417.4281539999995,
          "velocity": 0.7480314960629921,
          "duration": 0.8571420000000103
        },
        {
          "name": "D6",
          "midi": 86,
          "time": 417.4281539999995,
          "velocity": 0.7480314960629921,
          "duration": 0.8571420000000103
        },
        {
          "name": "D7",
          "midi": 98,
          "time": 417.4281539999995,
          "velocity": 0.7480314960629921,
          "duration": 0.8571420000000103
        },
        {
          "name": "E4",
          "midi": 64,
          "time": 418.2852959999995,
          "velocity": 0.7480314960629921,
          "duration": 0.8571420000000103
        },
        {
          "name": "E5",
          "midi": 76,
          "time": 418.2852959999995,
          "velocity": 0.7480314960629921,
          "duration": 0.8571420000000103
        },
        {
          "name": "E6",
          "midi": 88,
          "time": 418.2852959999995,
          "velocity": 0.7480314960629921,
          "duration": 0.8571420000000103
        },
        {
          "name": "E7",
          "midi": 100,
          "time": 418.2852959999995,
          "velocity": 0.7480314960629921,
          "duration": 0.8571420000000103
        },
        {
          "name": "E4",
          "midi": 64,
          "time": 419.1424379999995,
          "velocity": 0.7480314960629921,
          "duration": 0.4285709999999767
        },
        {
          "name": "E5",
          "midi": 76,
          "time": 419.1424379999995,
          "velocity": 0.7480314960629921,
          "duration": 0.4285709999999767
        },
        {
          "name": "E6",
          "midi": 88,
          "time": 419.1424379999995,
          "velocity": 0.7480314960629921,
          "duration": 0.4285709999999767
        },
        {
          "name": "E7",
          "midi": 100,
          "time": 419.1424379999995,
          "velocity": 0.7480314960629921,
          "duration": 0.4285709999999767
        },
        {
          "name": "E4",
          "midi": 64,
          "time": 419.5710089999995,
          "velocity": 0.7480314960629921,
          "duration": 0.21428550000001678
        },
        {
          "name": "E5",
          "midi": 76,
          "time": 419.5710089999995,
          "velocity": 0.7480314960629921,
          "duration": 0.21428550000001678
        },
        {
          "name": "E6",
          "midi": 88,
          "time": 419.5710089999995,
          "velocity": 0.7480314960629921,
          "duration": 0.21428550000001678
        },
        {
          "name": "E7",
          "midi": 100,
          "time": 419.5710089999995,
          "velocity": 0.7480314960629921,
          "duration": 0.21428550000001678
        },
        {
          "name": "E4",
          "midi": 64,
          "time": 419.7852944999995,
          "velocity": 0.7480314960629921,
          "duration": 0.21428550000001678
        },
        {
          "name": "E5",
          "midi": 76,
          "time": 419.7852944999995,
          "velocity": 0.7480314960629921,
          "duration": 0.21428550000001678
        },
        {
          "name": "E6",
          "midi": 88,
          "time": 419.7852944999995,
          "velocity": 0.7480314960629921,
          "duration": 0.21428550000001678
        },
        {
          "name": "E7",
          "midi": 100,
          "time": 419.7852944999995,
          "velocity": 0.7480314960629921,
          "duration": 0.21428550000001678
        },
        {
          "name": "D#4",
          "midi": 63,
          "time": 419.9995799999995,
          "velocity": 0.7480314960629921,
          "duration": 0.4285709999999767
        },
        {
          "name": "D#5",
          "midi": 75,
          "time": 419.9995799999995,
          "velocity": 0.7480314960629921,
          "duration": 0.4285709999999767
        },
        {
          "name": "D#6",
          "midi": 87,
          "time": 419.9995799999995,
          "velocity": 0.7480314960629921,
          "duration": 0.4285709999999767
        },
        {
          "name": "D#7",
          "midi": 99,
          "time": 419.9995799999995,
          "velocity": 0.7480314960629921,
          "duration": 0.4285709999999767
        },
        {
          "name": "D#4",
          "midi": 63,
          "time": 420.4281509999995,
          "velocity": 0.7480314960629921,
          "duration": 0.4285709999999767
        },
        {
          "name": "D#5",
          "midi": 75,
          "time": 420.4281509999995,
          "velocity": 0.7480314960629921,
          "duration": 0.4285709999999767
        },
        {
          "name": "D#6",
          "midi": 87,
          "time": 420.4281509999995,
          "velocity": 0.7480314960629921,
          "duration": 0.4285709999999767
        },
        {
          "name": "D#7",
          "midi": 99,
          "time": 420.4281509999995,
          "velocity": 0.7480314960629921,
          "duration": 0.4285709999999767
        },
        {
          "name": "D#4",
          "midi": 63,
          "time": 420.8567219999995,
          "velocity": 0.7480314960629921,
          "duration": 0.8571420000000103
        },
        {
          "name": "D#5",
          "midi": 75,
          "time": 420.8567219999995,
          "velocity": 0.7480314960629921,
          "duration": 0.8571420000000103
        },
        {
          "name": "D#6",
          "midi": 87,
          "time": 420.8567219999995,
          "velocity": 0.7480314960629921,
          "duration": 0.8571420000000103
        },
        {
          "name": "D#7",
          "midi": 99,
          "time": 420.8567219999995,
          "velocity": 0.7480314960629921,
          "duration": 0.8571420000000103
        },
        {
          "name": "C#4",
          "midi": 61,
          "time": 421.7138639999995,
          "velocity": 0.7480314960629921,
          "duration": 0.8571420000000103
        },
        {
          "name": "C#5",
          "midi": 73,
          "time": 421.7138639999995,
          "velocity": 0.7480314960629921,
          "duration": 0.8571420000000103
        },
        {
          "name": "C#6",
          "midi": 85,
          "time": 421.7138639999995,
          "velocity": 0.7480314960629921,
          "duration": 0.8571420000000103
        },
        {
          "name": "C#7",
          "midi": 97,
          "time": 421.7138639999995,
          "velocity": 0.7480314960629921,
          "duration": 0.8571420000000103
        },
        {
          "name": "C#4",
          "midi": 61,
          "time": 422.5710059999995,
          "velocity": 0.7480314960629921,
          "duration": 0.4285709999999767
        },
        {
          "name": "C#5",
          "midi": 73,
          "time": 422.5710059999995,
          "velocity": 0.7480314960629921,
          "duration": 0.4285709999999767
        },
        {
          "name": "C#6",
          "midi": 85,
          "time": 422.5710059999995,
          "velocity": 0.7480314960629921,
          "duration": 0.4285709999999767
        },
        {
          "name": "C#7",
          "midi": 97,
          "time": 422.5710059999995,
          "velocity": 0.7480314960629921,
          "duration": 0.4285709999999767
        },
        {
          "name": "C#4",
          "midi": 61,
          "time": 422.9995769999995,
          "velocity": 0.7480314960629921,
          "duration": 0.21428550000001678
        },
        {
          "name": "C#5",
          "midi": 73,
          "time": 422.9995769999995,
          "velocity": 0.7480314960629921,
          "duration": 0.21428550000001678
        },
        {
          "name": "C#6",
          "midi": 85,
          "time": 422.9995769999995,
          "velocity": 0.7480314960629921,
          "duration": 0.21428550000001678
        },
        {
          "name": "C#7",
          "midi": 97,
          "time": 422.9995769999995,
          "velocity": 0.7480314960629921,
          "duration": 0.21428550000001678
        },
        {
          "name": "C#4",
          "midi": 61,
          "time": 423.2138624999995,
          "velocity": 0.7480314960629921,
          "duration": 0.21428550000001678
        },
        {
          "name": "C#5",
          "midi": 73,
          "time": 423.2138624999995,
          "velocity": 0.7480314960629921,
          "duration": 0.21428550000001678
        },
        {
          "name": "C#6",
          "midi": 85,
          "time": 423.2138624999995,
          "velocity": 0.7480314960629921,
          "duration": 0.21428550000001678
        },
        {
          "name": "C#7",
          "midi": 97,
          "time": 423.2138624999995,
          "velocity": 0.7480314960629921,
          "duration": 0.21428550000001678
        },
        {
          "name": "D4",
          "midi": 62,
          "time": 423.4281479999995,
          "velocity": 0.7480314960629921,
          "duration": 0.4285709999999767
        },
        {
          "name": "D5",
          "midi": 74,
          "time": 423.4281479999995,
          "velocity": 0.7480314960629921,
          "duration": 0.4285709999999767
        },
        {
          "name": "D6",
          "midi": 86,
          "time": 423.4281479999995,
          "velocity": 0.7480314960629921,
          "duration": 0.4285709999999767
        },
        {
          "name": "D7",
          "midi": 98,
          "time": 423.4281479999995,
          "velocity": 0.7480314960629921,
          "duration": 0.4285709999999767
        },
        {
          "name": "D4",
          "midi": 62,
          "time": 423.8567189999995,
          "velocity": 0.7480314960629921,
          "duration": 0.4285709999999767
        },
        {
          "name": "D5",
          "midi": 74,
          "time": 423.8567189999995,
          "velocity": 0.7480314960629921,
          "duration": 0.4285709999999767
        },
        {
          "name": "D6",
          "midi": 86,
          "time": 423.8567189999995,
          "velocity": 0.7480314960629921,
          "duration": 0.4285709999999767
        },
        {
          "name": "D7",
          "midi": 98,
          "time": 423.8567189999995,
          "velocity": 0.7480314960629921,
          "duration": 0.4285709999999767
        },
        {
          "name": "D4",
          "midi": 62,
          "time": 424.28528999999946,
          "velocity": 0.7480314960629921,
          "duration": 0.8571420000000103
        },
        {
          "name": "D5",
          "midi": 74,
          "time": 424.28528999999946,
          "velocity": 0.7480314960629921,
          "duration": 0.8571420000000103
        },
        {
          "name": "D6",
          "midi": 86,
          "time": 424.28528999999946,
          "velocity": 0.7480314960629921,
          "duration": 0.8571420000000103
        },
        {
          "name": "D7",
          "midi": 98,
          "time": 424.28528999999946,
          "velocity": 0.7480314960629921,
          "duration": 0.8571420000000103
        },
        {
          "name": "E4",
          "midi": 64,
          "time": 425.1424319999995,
          "velocity": 0.7480314960629921,
          "duration": 0.8571420000000103
        },
        {
          "name": "E5",
          "midi": 76,
          "time": 425.1424319999995,
          "velocity": 0.7480314960629921,
          "duration": 0.8571420000000103
        },
        {
          "name": "E6",
          "midi": 88,
          "time": 425.1424319999995,
          "velocity": 0.7480314960629921,
          "duration": 0.8571420000000103
        },
        {
          "name": "E7",
          "midi": 100,
          "time": 425.1424319999995,
          "velocity": 0.7480314960629921,
          "duration": 0.8571420000000103
        },
        {
          "name": "E4",
          "midi": 64,
          "time": 425.9995739999995,
          "velocity": 0.7480314960629921,
          "duration": 0.4285709999999767
        },
        {
          "name": "E5",
          "midi": 76,
          "time": 425.9995739999995,
          "velocity": 0.7480314960629921,
          "duration": 0.4285709999999767
        },
        {
          "name": "E6",
          "midi": 88,
          "time": 425.9995739999995,
          "velocity": 0.7480314960629921,
          "duration": 0.4285709999999767
        },
        {
          "name": "E7",
          "midi": 100,
          "time": 425.9995739999995,
          "velocity": 0.7480314960629921,
          "duration": 0.4285709999999767
        },
        {
          "name": "E4",
          "midi": 64,
          "time": 426.42814499999946,
          "velocity": 0.7480314960629921,
          "duration": 0.21428550000001678
        },
        {
          "name": "E5",
          "midi": 76,
          "time": 426.42814499999946,
          "velocity": 0.7480314960629921,
          "duration": 0.21428550000001678
        },
        {
          "name": "E6",
          "midi": 88,
          "time": 426.42814499999946,
          "velocity": 0.7480314960629921,
          "duration": 0.21428550000001678
        },
        {
          "name": "E7",
          "midi": 100,
          "time": 426.42814499999946,
          "velocity": 0.7480314960629921,
          "duration": 0.21428550000001678
        },
        {
          "name": "E4",
          "midi": 64,
          "time": 426.6424304999995,
          "velocity": 0.7480314960629921,
          "duration": 0.21428550000001678
        },
        {
          "name": "E5",
          "midi": 76,
          "time": 426.6424304999995,
          "velocity": 0.7480314960629921,
          "duration": 0.21428550000001678
        },
        {
          "name": "E6",
          "midi": 88,
          "time": 426.6424304999995,
          "velocity": 0.7480314960629921,
          "duration": 0.21428550000001678
        },
        {
          "name": "E7",
          "midi": 100,
          "time": 426.6424304999995,
          "velocity": 0.7480314960629921,
          "duration": 0.21428550000001678
        },
        {
          "name": "D#4",
          "midi": 63,
          "time": 426.8567159999995,
          "velocity": 0.7480314960629921,
          "duration": 0.4285709999999767
        },
        {
          "name": "D#5",
          "midi": 75,
          "time": 426.8567159999995,
          "velocity": 0.7480314960629921,
          "duration": 0.4285709999999767
        },
        {
          "name": "D#6",
          "midi": 87,
          "time": 426.8567159999995,
          "velocity": 0.7480314960629921,
          "duration": 0.4285709999999767
        },
        {
          "name": "D#7",
          "midi": 99,
          "time": 426.8567159999995,
          "velocity": 0.7480314960629921,
          "duration": 0.4285709999999767
        },
        {
          "name": "D#4",
          "midi": 63,
          "time": 427.28528699999947,
          "velocity": 0.7480314960629921,
          "duration": 0.4285709999999767
        },
        {
          "name": "D#5",
          "midi": 75,
          "time": 427.28528699999947,
          "velocity": 0.7480314960629921,
          "duration": 0.4285709999999767
        },
        {
          "name": "D#6",
          "midi": 87,
          "time": 427.28528699999947,
          "velocity": 0.7480314960629921,
          "duration": 0.4285709999999767
        },
        {
          "name": "D#7",
          "midi": 99,
          "time": 427.28528699999947,
          "velocity": 0.7480314960629921,
          "duration": 0.4285709999999767
        },
        {
          "name": "D#4",
          "midi": 63,
          "time": 427.71385799999945,
          "velocity": 0.7480314960629921,
          "duration": 0.8571420000000103
        },
        {
          "name": "D#5",
          "midi": 75,
          "time": 427.71385799999945,
          "velocity": 0.7480314960629921,
          "duration": 0.8571420000000103
        },
        {
          "name": "D#6",
          "midi": 87,
          "time": 427.71385799999945,
          "velocity": 0.7480314960629921,
          "duration": 0.8571420000000103
        },
        {
          "name": "D#7",
          "midi": 99,
          "time": 427.71385799999945,
          "velocity": 0.7480314960629921,
          "duration": 0.8571420000000103
        },
        {
          "name": "C#4",
          "midi": 61,
          "time": 428.57099999999946,
          "velocity": 0.7480314960629921,
          "duration": 0.8571420000000103
        },
        {
          "name": "C#5",
          "midi": 73,
          "time": 428.57099999999946,
          "velocity": 0.7480314960629921,
          "duration": 0.8571420000000103
        },
        {
          "name": "C#6",
          "midi": 85,
          "time": 428.57099999999946,
          "velocity": 0.7480314960629921,
          "duration": 0.8571420000000103
        },
        {
          "name": "C#7",
          "midi": 97,
          "time": 428.57099999999946,
          "velocity": 0.7480314960629921,
          "duration": 0.8571420000000103
        },
        {
          "name": "C#4",
          "midi": 61,
          "time": 429.42814199999947,
          "velocity": 0.7480314960629921,
          "duration": 0.4285709999999767
        },
        {
          "name": "C#5",
          "midi": 73,
          "time": 429.42814199999947,
          "velocity": 0.7480314960629921,
          "duration": 0.4285709999999767
        },
        {
          "name": "C#6",
          "midi": 85,
          "time": 429.42814199999947,
          "velocity": 0.7480314960629921,
          "duration": 0.4285709999999767
        },
        {
          "name": "C#7",
          "midi": 97,
          "time": 429.42814199999947,
          "velocity": 0.7480314960629921,
          "duration": 0.4285709999999767
        },
        {
          "name": "C#4",
          "midi": 61,
          "time": 429.85671299999944,
          "velocity": 0.7480314960629921,
          "duration": 0.21428550000001678
        },
        {
          "name": "C#5",
          "midi": 73,
          "time": 429.85671299999944,
          "velocity": 0.7480314960629921,
          "duration": 0.21428550000001678
        },
        {
          "name": "C#6",
          "midi": 85,
          "time": 429.85671299999944,
          "velocity": 0.7480314960629921,
          "duration": 0.21428550000001678
        },
        {
          "name": "C#7",
          "midi": 97,
          "time": 429.85671299999944,
          "velocity": 0.7480314960629921,
          "duration": 0.21428550000001678
        },
        {
          "name": "C#4",
          "midi": 61,
          "time": 430.07099849999946,
          "velocity": 0.7480314960629921,
          "duration": 0.21428550000001678
        },
        {
          "name": "C#5",
          "midi": 73,
          "time": 430.07099849999946,
          "velocity": 0.7480314960629921,
          "duration": 0.21428550000001678
        },
        {
          "name": "C#6",
          "midi": 85,
          "time": 430.07099849999946,
          "velocity": 0.7480314960629921,
          "duration": 0.21428550000001678
        },
        {
          "name": "C#7",
          "midi": 97,
          "time": 430.07099849999946,
          "velocity": 0.7480314960629921,
          "duration": 0.21428550000001678
        },
        {
          "name": "D4",
          "midi": 62,
          "time": 430.2852839999995,
          "velocity": 0.7480314960629921,
          "duration": 0.4285709999999767
        },
        {
          "name": "D5",
          "midi": 74,
          "time": 430.2852839999995,
          "velocity": 0.7480314960629921,
          "duration": 0.4285709999999767
        },
        {
          "name": "D6",
          "midi": 86,
          "time": 430.2852839999995,
          "velocity": 0.7480314960629921,
          "duration": 0.4285709999999767
        },
        {
          "name": "D7",
          "midi": 98,
          "time": 430.2852839999995,
          "velocity": 0.7480314960629921,
          "duration": 0.4285709999999767
        },
        {
          "name": "D4",
          "midi": 62,
          "time": 430.71385499999946,
          "velocity": 0.7480314960629921,
          "duration": 0.4285709999999767
        },
        {
          "name": "D5",
          "midi": 74,
          "time": 430.71385499999946,
          "velocity": 0.7480314960629921,
          "duration": 0.4285709999999767
        },
        {
          "name": "D6",
          "midi": 86,
          "time": 430.71385499999946,
          "velocity": 0.7480314960629921,
          "duration": 0.4285709999999767
        },
        {
          "name": "D7",
          "midi": 98,
          "time": 430.71385499999946,
          "velocity": 0.7480314960629921,
          "duration": 0.4285709999999767
        },
        {
          "name": "D4",
          "midi": 62,
          "time": 431.14242599999943,
          "velocity": 0.7480314960629921,
          "duration": 0.8571420000000103
        },
        {
          "name": "D5",
          "midi": 74,
          "time": 431.14242599999943,
          "velocity": 0.7480314960629921,
          "duration": 0.8571420000000103
        },
        {
          "name": "D6",
          "midi": 86,
          "time": 431.14242599999943,
          "velocity": 0.7480314960629921,
          "duration": 0.8571420000000103
        },
        {
          "name": "D7",
          "midi": 98,
          "time": 431.14242599999943,
          "velocity": 0.7480314960629921,
          "duration": 0.8571420000000103
        },
        {
          "name": "E4",
          "midi": 64,
          "time": 431.99956799999944,
          "velocity": 0.7480314960629921,
          "duration": 0.8571420000000103
        },
        {
          "name": "E5",
          "midi": 76,
          "time": 431.99956799999944,
          "velocity": 0.7480314960629921,
          "duration": 0.8571420000000103
        },
        {
          "name": "E6",
          "midi": 88,
          "time": 431.99956799999944,
          "velocity": 0.7480314960629921,
          "duration": 0.8571420000000103
        },
        {
          "name": "E7",
          "midi": 100,
          "time": 431.99956799999944,
          "velocity": 0.7480314960629921,
          "duration": 0.8571420000000103
        },
        {
          "name": "E4",
          "midi": 64,
          "time": 432.85670999999945,
          "velocity": 0.7480314960629921,
          "duration": 0.4285709999999767
        },
        {
          "name": "E5",
          "midi": 76,
          "time": 432.85670999999945,
          "velocity": 0.7480314960629921,
          "duration": 0.4285709999999767
        },
        {
          "name": "E6",
          "midi": 88,
          "time": 432.85670999999945,
          "velocity": 0.7480314960629921,
          "duration": 0.4285709999999767
        },
        {
          "name": "E7",
          "midi": 100,
          "time": 432.85670999999945,
          "velocity": 0.7480314960629921,
          "duration": 0.4285709999999767
        },
        {
          "name": "E4",
          "midi": 64,
          "time": 433.28528099999943,
          "velocity": 0.7480314960629921,
          "duration": 0.21428550000001678
        },
        {
          "name": "E5",
          "midi": 76,
          "time": 433.28528099999943,
          "velocity": 0.7480314960629921,
          "duration": 0.21428550000001678
        },
        {
          "name": "E6",
          "midi": 88,
          "time": 433.28528099999943,
          "velocity": 0.7480314960629921,
          "duration": 0.21428550000001678
        },
        {
          "name": "E7",
          "midi": 100,
          "time": 433.28528099999943,
          "velocity": 0.7480314960629921,
          "duration": 0.21428550000001678
        },
        {
          "name": "E4",
          "midi": 64,
          "time": 433.49956649999945,
          "velocity": 0.7480314960629921,
          "duration": 0.21428550000001678
        },
        {
          "name": "E5",
          "midi": 76,
          "time": 433.49956649999945,
          "velocity": 0.7480314960629921,
          "duration": 0.21428550000001678
        },
        {
          "name": "E6",
          "midi": 88,
          "time": 433.49956649999945,
          "velocity": 0.7480314960629921,
          "duration": 0.21428550000001678
        },
        {
          "name": "E7",
          "midi": 100,
          "time": 433.49956649999945,
          "velocity": 0.7480314960629921,
          "duration": 0.21428550000001678
        },
        {
          "name": "D#4",
          "midi": 63,
          "time": 433.71385199999946,
          "velocity": 0.7480314960629921,
          "duration": 0.4285709999999767
        },
        {
          "name": "D#5",
          "midi": 75,
          "time": 433.71385199999946,
          "velocity": 0.7480314960629921,
          "duration": 0.4285709999999767
        },
        {
          "name": "D#6",
          "midi": 87,
          "time": 433.71385199999946,
          "velocity": 0.7480314960629921,
          "duration": 0.4285709999999767
        },
        {
          "name": "D#7",
          "midi": 99,
          "time": 433.71385199999946,
          "velocity": 0.7480314960629921,
          "duration": 0.4285709999999767
        },
        {
          "name": "D#4",
          "midi": 63,
          "time": 434.14242299999944,
          "velocity": 0.7480314960629921,
          "duration": 0.4285709999999767
        },
        {
          "name": "D#5",
          "midi": 75,
          "time": 434.14242299999944,
          "velocity": 0.7480314960629921,
          "duration": 0.4285709999999767
        },
        {
          "name": "D#6",
          "midi": 87,
          "time": 434.14242299999944,
          "velocity": 0.7480314960629921,
          "duration": 0.4285709999999767
        },
        {
          "name": "D#7",
          "midi": 99,
          "time": 434.14242299999944,
          "velocity": 0.7480314960629921,
          "duration": 0.4285709999999767
        },
        {
          "name": "D#4",
          "midi": 63,
          "time": 434.5709939999994,
          "velocity": 0.7480314960629921,
          "duration": 0.8571420000000103
        },
        {
          "name": "D#5",
          "midi": 75,
          "time": 434.5709939999994,
          "velocity": 0.7480314960629921,
          "duration": 0.8571420000000103
        },
        {
          "name": "D#6",
          "midi": 87,
          "time": 434.5709939999994,
          "velocity": 0.7480314960629921,
          "duration": 0.8571420000000103
        },
        {
          "name": "D#7",
          "midi": 99,
          "time": 434.5709939999994,
          "velocity": 0.7480314960629921,
          "duration": 0.8571420000000103
        },
        {
          "name": "C#4",
          "midi": 61,
          "time": 435.4281359999994,
          "velocity": 0.7480314960629921,
          "duration": 0.8571420000000103
        },
        {
          "name": "C#5",
          "midi": 73,
          "time": 435.4281359999994,
          "velocity": 0.7480314960629921,
          "duration": 0.8571420000000103
        },
        {
          "name": "C#6",
          "midi": 85,
          "time": 435.4281359999994,
          "velocity": 0.7480314960629921,
          "duration": 0.8571420000000103
        },
        {
          "name": "C#7",
          "midi": 97,
          "time": 435.4281359999994,
          "velocity": 0.7480314960629921,
          "duration": 0.8571420000000103
        },
        {
          "name": "C#4",
          "midi": 61,
          "time": 436.28527799999944,
          "velocity": 0.7480314960629921,
          "duration": 0.4285709999999767
        },
        {
          "name": "C#5",
          "midi": 73,
          "time": 436.28527799999944,
          "velocity": 0.7480314960629921,
          "duration": 0.4285709999999767
        },
        {
          "name": "C#6",
          "midi": 85,
          "time": 436.28527799999944,
          "velocity": 0.7480314960629921,
          "duration": 0.4285709999999767
        },
        {
          "name": "C#7",
          "midi": 97,
          "time": 436.28527799999944,
          "velocity": 0.7480314960629921,
          "duration": 0.4285709999999767
        },
        {
          "name": "C#4",
          "midi": 61,
          "time": 436.7138489999994,
          "velocity": 0.7480314960629921,
          "duration": 0.21428550000001678
        },
        {
          "name": "C#5",
          "midi": 73,
          "time": 436.7138489999994,
          "velocity": 0.7480314960629921,
          "duration": 0.21428550000001678
        },
        {
          "name": "C#6",
          "midi": 85,
          "time": 436.7138489999994,
          "velocity": 0.7480314960629921,
          "duration": 0.21428550000001678
        },
        {
          "name": "C#7",
          "midi": 97,
          "time": 436.7138489999994,
          "velocity": 0.7480314960629921,
          "duration": 0.21428550000001678
        },
        {
          "name": "C#4",
          "midi": 61,
          "time": 436.92813449999943,
          "velocity": 0.7480314960629921,
          "duration": 0.21428550000001678
        },
        {
          "name": "C#5",
          "midi": 73,
          "time": 436.92813449999943,
          "velocity": 0.7480314960629921,
          "duration": 0.21428550000001678
        },
        {
          "name": "C#6",
          "midi": 85,
          "time": 436.92813449999943,
          "velocity": 0.7480314960629921,
          "duration": 0.21428550000001678
        },
        {
          "name": "C#7",
          "midi": 97,
          "time": 436.92813449999943,
          "velocity": 0.7480314960629921,
          "duration": 0.21428550000001678
        },
        {
          "name": "D4",
          "midi": 62,
          "time": 437.14241999999945,
          "velocity": 0.7480314960629921,
          "duration": 0.4285709999999767
        },
        {
          "name": "D5",
          "midi": 74,
          "time": 437.14241999999945,
          "velocity": 0.7480314960629921,
          "duration": 0.4285709999999767
        },
        {
          "name": "D6",
          "midi": 86,
          "time": 437.14241999999945,
          "velocity": 0.7480314960629921,
          "duration": 0.4285709999999767
        },
        {
          "name": "D7",
          "midi": 98,
          "time": 437.14241999999945,
          "velocity": 0.7480314960629921,
          "duration": 0.4285709999999767
        },
        {
          "name": "D4",
          "midi": 62,
          "time": 437.5709909999994,
          "velocity": 0.7480314960629921,
          "duration": 0.4285709999999767
        },
        {
          "name": "D5",
          "midi": 74,
          "time": 437.5709909999994,
          "velocity": 0.7480314960629921,
          "duration": 0.4285709999999767
        },
        {
          "name": "D6",
          "midi": 86,
          "time": 437.5709909999994,
          "velocity": 0.7480314960629921,
          "duration": 0.4285709999999767
        },
        {
          "name": "D7",
          "midi": 98,
          "time": 437.5709909999994,
          "velocity": 0.7480314960629921,
          "duration": 0.4285709999999767
        },
        {
          "name": "D4",
          "midi": 62,
          "time": 437.9995619999994,
          "velocity": 0.7480314960629921,
          "duration": 0.8571420000000103
        },
        {
          "name": "D5",
          "midi": 74,
          "time": 437.9995619999994,
          "velocity": 0.7480314960629921,
          "duration": 0.8571420000000103
        },
        {
          "name": "D6",
          "midi": 86,
          "time": 437.9995619999994,
          "velocity": 0.7480314960629921,
          "duration": 0.8571420000000103
        },
        {
          "name": "D7",
          "midi": 98,
          "time": 437.9995619999994,
          "velocity": 0.7480314960629921,
          "duration": 0.8571420000000103
        },
        {
          "name": "E4",
          "midi": 64,
          "time": 438.8567039999994,
          "velocity": 0.7480314960629921,
          "duration": 0.8571420000000103
        },
        {
          "name": "E5",
          "midi": 76,
          "time": 438.8567039999994,
          "velocity": 0.7480314960629921,
          "duration": 0.8571420000000103
        },
        {
          "name": "E6",
          "midi": 88,
          "time": 438.8567039999994,
          "velocity": 0.7480314960629921,
          "duration": 0.8571420000000103
        },
        {
          "name": "E7",
          "midi": 100,
          "time": 438.8567039999994,
          "velocity": 0.7480314960629921,
          "duration": 0.8571420000000103
        },
        {
          "name": "E4",
          "midi": 64,
          "time": 439.7138459999994,
          "velocity": 0.7480314960629921,
          "duration": 0.4285709999999767
        },
        {
          "name": "E5",
          "midi": 76,
          "time": 439.7138459999994,
          "velocity": 0.7480314960629921,
          "duration": 0.4285709999999767
        },
        {
          "name": "E6",
          "midi": 88,
          "time": 439.7138459999994,
          "velocity": 0.7480314960629921,
          "duration": 0.4285709999999767
        },
        {
          "name": "E7",
          "midi": 100,
          "time": 439.7138459999994,
          "velocity": 0.7480314960629921,
          "duration": 0.4285709999999767
        },
        {
          "name": "E4",
          "midi": 64,
          "time": 440.1424169999994,
          "velocity": 0.7480314960629921,
          "duration": 0.21428550000001678
        },
        {
          "name": "E5",
          "midi": 76,
          "time": 440.1424169999994,
          "velocity": 0.7480314960629921,
          "duration": 0.21428550000001678
        },
        {
          "name": "E6",
          "midi": 88,
          "time": 440.1424169999994,
          "velocity": 0.7480314960629921,
          "duration": 0.21428550000001678
        },
        {
          "name": "E7",
          "midi": 100,
          "time": 440.1424169999994,
          "velocity": 0.7480314960629921,
          "duration": 0.21428550000001678
        },
        {
          "name": "E4",
          "midi": 64,
          "time": 440.3567024999994,
          "velocity": 0.7480314960629921,
          "duration": 0.21428550000001678
        },
        {
          "name": "E5",
          "midi": 76,
          "time": 440.3567024999994,
          "velocity": 0.7480314960629921,
          "duration": 0.21428550000001678
        },
        {
          "name": "E6",
          "midi": 88,
          "time": 440.3567024999994,
          "velocity": 0.7480314960629921,
          "duration": 0.21428550000001678
        },
        {
          "name": "E7",
          "midi": 100,
          "time": 440.3567024999994,
          "velocity": 0.7480314960629921,
          "duration": 0.21428550000001678
        },
        {
          "name": "D#4",
          "midi": 63,
          "time": 440.57098799999943,
          "velocity": 0.7480314960629921,
          "duration": 0.4285709999999767
        },
        {
          "name": "D#5",
          "midi": 75,
          "time": 440.57098799999943,
          "velocity": 0.7480314960629921,
          "duration": 0.4285709999999767
        },
        {
          "name": "D#6",
          "midi": 87,
          "time": 440.57098799999943,
          "velocity": 0.7480314960629921,
          "duration": 0.4285709999999767
        },
        {
          "name": "D#7",
          "midi": 99,
          "time": 440.57098799999943,
          "velocity": 0.7480314960629921,
          "duration": 0.4285709999999767
        },
        {
          "name": "D#4",
          "midi": 63,
          "time": 440.9995589999994,
          "velocity": 0.7480314960629921,
          "duration": 0.4285709999999767
        },
        {
          "name": "D#5",
          "midi": 75,
          "time": 440.9995589999994,
          "velocity": 0.7480314960629921,
          "duration": 0.4285709999999767
        },
        {
          "name": "D#6",
          "midi": 87,
          "time": 440.9995589999994,
          "velocity": 0.7480314960629921,
          "duration": 0.4285709999999767
        },
        {
          "name": "D#7",
          "midi": 99,
          "time": 440.9995589999994,
          "velocity": 0.7480314960629921,
          "duration": 0.4285709999999767
        },
        {
          "name": "D#4",
          "midi": 63,
          "time": 441.4281299999994,
          "velocity": 0.7480314960629921,
          "duration": 0.8571420000000103
        },
        {
          "name": "D#5",
          "midi": 75,
          "time": 441.4281299999994,
          "velocity": 0.7480314960629921,
          "duration": 0.8571420000000103
        },
        {
          "name": "D#6",
          "midi": 87,
          "time": 441.4281299999994,
          "velocity": 0.7480314960629921,
          "duration": 0.8571420000000103
        },
        {
          "name": "D#7",
          "midi": 99,
          "time": 441.4281299999994,
          "velocity": 0.7480314960629921,
          "duration": 0.8571420000000103
        },
        {
          "name": "C#4",
          "midi": 61,
          "time": 442.2852719999994,
          "velocity": 0.7480314960629921,
          "duration": 0.8571420000000103
        },
        {
          "name": "C#5",
          "midi": 73,
          "time": 442.2852719999994,
          "velocity": 0.7480314960629921,
          "duration": 0.8571420000000103
        },
        {
          "name": "C#6",
          "midi": 85,
          "time": 442.2852719999994,
          "velocity": 0.7480314960629921,
          "duration": 0.8571420000000103
        },
        {
          "name": "C#7",
          "midi": 97,
          "time": 442.2852719999994,
          "velocity": 0.7480314960629921,
          "duration": 0.8571420000000103
        },
        {
          "name": "C#4",
          "midi": 61,
          "time": 443.1424139999994,
          "velocity": 0.7480314960629921,
          "duration": 0.4285709999999767
        },
        {
          "name": "C#5",
          "midi": 73,
          "time": 443.1424139999994,
          "velocity": 0.7480314960629921,
          "duration": 0.4285709999999767
        },
        {
          "name": "C#6",
          "midi": 85,
          "time": 443.1424139999994,
          "velocity": 0.7480314960629921,
          "duration": 0.4285709999999767
        },
        {
          "name": "C#7",
          "midi": 97,
          "time": 443.1424139999994,
          "velocity": 0.7480314960629921,
          "duration": 0.4285709999999767
        },
        {
          "name": "C#4",
          "midi": 61,
          "time": 443.5709849999994,
          "velocity": 0.7480314960629921,
          "duration": 0.21428550000001678
        },
        {
          "name": "C#5",
          "midi": 73,
          "time": 443.5709849999994,
          "velocity": 0.7480314960629921,
          "duration": 0.21428550000001678
        },
        {
          "name": "C#6",
          "midi": 85,
          "time": 443.5709849999994,
          "velocity": 0.7480314960629921,
          "duration": 0.21428550000001678
        },
        {
          "name": "C#7",
          "midi": 97,
          "time": 443.5709849999994,
          "velocity": 0.7480314960629921,
          "duration": 0.21428550000001678
        },
        {
          "name": "C#4",
          "midi": 61,
          "time": 443.7852704999994,
          "velocity": 0.7480314960629921,
          "duration": 0.21428550000001678
        },
        {
          "name": "C#5",
          "midi": 73,
          "time": 443.7852704999994,
          "velocity": 0.7480314960629921,
          "duration": 0.21428550000001678
        },
        {
          "name": "C#6",
          "midi": 85,
          "time": 443.7852704999994,
          "velocity": 0.7480314960629921,
          "duration": 0.21428550000001678
        },
        {
          "name": "C#7",
          "midi": 97,
          "time": 443.7852704999994,
          "velocity": 0.7480314960629921,
          "duration": 0.21428550000001678
        },
        {
          "name": "D4",
          "midi": 62,
          "time": 443.9995559999994,
          "velocity": 0.7480314960629921,
          "duration": 0.4285709999999767
        },
        {
          "name": "D5",
          "midi": 74,
          "time": 443.9995559999994,
          "velocity": 0.7480314960629921,
          "duration": 0.4285709999999767
        },
        {
          "name": "D6",
          "midi": 86,
          "time": 443.9995559999994,
          "velocity": 0.7480314960629921,
          "duration": 0.4285709999999767
        },
        {
          "name": "D7",
          "midi": 98,
          "time": 443.9995559999994,
          "velocity": 0.7480314960629921,
          "duration": 0.4285709999999767
        },
        {
          "name": "D4",
          "midi": 62,
          "time": 444.4281269999994,
          "velocity": 0.7480314960629921,
          "duration": 0.4285709999999767
        },
        {
          "name": "D5",
          "midi": 74,
          "time": 444.4281269999994,
          "velocity": 0.7480314960629921,
          "duration": 0.4285709999999767
        },
        {
          "name": "D6",
          "midi": 86,
          "time": 444.4281269999994,
          "velocity": 0.7480314960629921,
          "duration": 0.4285709999999767
        },
        {
          "name": "D7",
          "midi": 98,
          "time": 444.4281269999994,
          "velocity": 0.7480314960629921,
          "duration": 0.4285709999999767
        },
        {
          "name": "D4",
          "midi": 62,
          "time": 444.85669799999937,
          "velocity": 0.7480314960629921,
          "duration": 0.8571420000000103
        },
        {
          "name": "D5",
          "midi": 74,
          "time": 444.85669799999937,
          "velocity": 0.7480314960629921,
          "duration": 0.8571420000000103
        },
        {
          "name": "D6",
          "midi": 86,
          "time": 444.85669799999937,
          "velocity": 0.7480314960629921,
          "duration": 0.8571420000000103
        },
        {
          "name": "D7",
          "midi": 98,
          "time": 444.85669799999937,
          "velocity": 0.7480314960629921,
          "duration": 0.8571420000000103
        },
        {
          "name": "E4",
          "midi": 64,
          "time": 445.7138399999994,
          "velocity": 0.7480314960629921,
          "duration": 0.8571420000000103
        },
        {
          "name": "E5",
          "midi": 76,
          "time": 445.7138399999994,
          "velocity": 0.7480314960629921,
          "duration": 0.8571420000000103
        },
        {
          "name": "E6",
          "midi": 88,
          "time": 445.7138399999994,
          "velocity": 0.7480314960629921,
          "duration": 0.8571420000000103
        },
        {
          "name": "E7",
          "midi": 100,
          "time": 445.7138399999994,
          "velocity": 0.7480314960629921,
          "duration": 0.8571420000000103
        },
        {
          "name": "E4",
          "midi": 64,
          "time": 446.5709819999994,
          "velocity": 0.7480314960629921,
          "duration": 0.4285709999999767
        },
        {
          "name": "E5",
          "midi": 76,
          "time": 446.5709819999994,
          "velocity": 0.7480314960629921,
          "duration": 0.4285709999999767
        },
        {
          "name": "E6",
          "midi": 88,
          "time": 446.5709819999994,
          "velocity": 0.7480314960629921,
          "duration": 0.4285709999999767
        },
        {
          "name": "E7",
          "midi": 100,
          "time": 446.5709819999994,
          "velocity": 0.7480314960629921,
          "duration": 0.4285709999999767
        },
        {
          "name": "E4",
          "midi": 64,
          "time": 446.99955299999937,
          "velocity": 0.7480314960629921,
          "duration": 0.21428550000001678
        },
        {
          "name": "E5",
          "midi": 76,
          "time": 446.99955299999937,
          "velocity": 0.7480314960629921,
          "duration": 0.21428550000001678
        },
        {
          "name": "E6",
          "midi": 88,
          "time": 446.99955299999937,
          "velocity": 0.7480314960629921,
          "duration": 0.21428550000001678
        },
        {
          "name": "E7",
          "midi": 100,
          "time": 446.99955299999937,
          "velocity": 0.7480314960629921,
          "duration": 0.21428550000001678
        },
        {
          "name": "E4",
          "midi": 64,
          "time": 447.2138384999994,
          "velocity": 0.7480314960629921,
          "duration": 0.21428550000001678
        },
        {
          "name": "E5",
          "midi": 76,
          "time": 447.2138384999994,
          "velocity": 0.7480314960629921,
          "duration": 0.21428550000001678
        },
        {
          "name": "E6",
          "midi": 88,
          "time": 447.2138384999994,
          "velocity": 0.7480314960629921,
          "duration": 0.21428550000001678
        },
        {
          "name": "E7",
          "midi": 100,
          "time": 447.2138384999994,
          "velocity": 0.7480314960629921,
          "duration": 0.21428550000001678
        },
        {
          "name": "D#4",
          "midi": 63,
          "time": 447.4281239999994,
          "velocity": 0.7480314960629921,
          "duration": 0.4285709999999767
        },
        {
          "name": "D#5",
          "midi": 75,
          "time": 447.4281239999994,
          "velocity": 0.7480314960629921,
          "duration": 0.4285709999999767
        },
        {
          "name": "D#6",
          "midi": 87,
          "time": 447.4281239999994,
          "velocity": 0.7480314960629921,
          "duration": 0.4285709999999767
        },
        {
          "name": "D#7",
          "midi": 99,
          "time": 447.4281239999994,
          "velocity": 0.7480314960629921,
          "duration": 0.4285709999999767
        },
        {
          "name": "D#4",
          "midi": 63,
          "time": 447.8566949999994,
          "velocity": 0.7480314960629921,
          "duration": 0.4285709999999767
        },
        {
          "name": "D#5",
          "midi": 75,
          "time": 447.8566949999994,
          "velocity": 0.7480314960629921,
          "duration": 0.4285709999999767
        },
        {
          "name": "D#6",
          "midi": 87,
          "time": 447.8566949999994,
          "velocity": 0.7480314960629921,
          "duration": 0.4285709999999767
        },
        {
          "name": "D#7",
          "midi": 99,
          "time": 447.8566949999994,
          "velocity": 0.7480314960629921,
          "duration": 0.4285709999999767
        },
        {
          "name": "D#4",
          "midi": 63,
          "time": 448.28526599999935,
          "velocity": 0.7480314960629921,
          "duration": 0.8571420000000103
        },
        {
          "name": "D#5",
          "midi": 75,
          "time": 448.28526599999935,
          "velocity": 0.7480314960629921,
          "duration": 0.8571420000000103
        },
        {
          "name": "D#6",
          "midi": 87,
          "time": 448.28526599999935,
          "velocity": 0.7480314960629921,
          "duration": 0.8571420000000103
        },
        {
          "name": "D#7",
          "midi": 99,
          "time": 448.28526599999935,
          "velocity": 0.7480314960629921,
          "duration": 0.8571420000000103
        },
        {
          "name": "C#4",
          "midi": 61,
          "time": 449.14240799999936,
          "velocity": 0.7480314960629921,
          "duration": 0.8571420000000103
        },
        {
          "name": "C#5",
          "midi": 73,
          "time": 449.14240799999936,
          "velocity": 0.7480314960629921,
          "duration": 0.8571420000000103
        },
        {
          "name": "C#6",
          "midi": 85,
          "time": 449.14240799999936,
          "velocity": 0.7480314960629921,
          "duration": 0.8571420000000103
        },
        {
          "name": "C#7",
          "midi": 97,
          "time": 449.14240799999936,
          "velocity": 0.7480314960629921,
          "duration": 0.8571420000000103
        },
        {
          "name": "C#4",
          "midi": 61,
          "time": 449.9995499999994,
          "velocity": 0.7480314960629921,
          "duration": 0.4285709999999767
        },
        {
          "name": "C#5",
          "midi": 73,
          "time": 449.9995499999994,
          "velocity": 0.7480314960629921,
          "duration": 0.4285709999999767
        },
        {
          "name": "C#6",
          "midi": 85,
          "time": 449.9995499999994,
          "velocity": 0.7480314960629921,
          "duration": 0.4285709999999767
        },
        {
          "name": "C#7",
          "midi": 97,
          "time": 449.9995499999994,
          "velocity": 0.7480314960629921,
          "duration": 0.4285709999999767
        },
        {
          "name": "C#4",
          "midi": 61,
          "time": 450.42812099999935,
          "velocity": 0.7480314960629921,
          "duration": 0.21428550000001678
        },
        {
          "name": "C#5",
          "midi": 73,
          "time": 450.42812099999935,
          "velocity": 0.7480314960629921,
          "duration": 0.21428550000001678
        },
        {
          "name": "C#6",
          "midi": 85,
          "time": 450.42812099999935,
          "velocity": 0.7480314960629921,
          "duration": 0.21428550000001678
        },
        {
          "name": "C#7",
          "midi": 97,
          "time": 450.42812099999935,
          "velocity": 0.7480314960629921,
          "duration": 0.21428550000001678
        },
        {
          "name": "C#4",
          "midi": 61,
          "time": 450.64240649999937,
          "velocity": 0.7480314960629921,
          "duration": 0.21428550000001678
        },
        {
          "name": "C#5",
          "midi": 73,
          "time": 450.64240649999937,
          "velocity": 0.7480314960629921,
          "duration": 0.21428550000001678
        },
        {
          "name": "C#6",
          "midi": 85,
          "time": 450.64240649999937,
          "velocity": 0.7480314960629921,
          "duration": 0.21428550000001678
        },
        {
          "name": "C#7",
          "midi": 97,
          "time": 450.64240649999937,
          "velocity": 0.7480314960629921,
          "duration": 0.21428550000001678
        },
        {
          "name": "D4",
          "midi": 62,
          "time": 450.8566919999994,
          "velocity": 0.7480314960629921,
          "duration": 0.4285709999999767
        },
        {
          "name": "D5",
          "midi": 74,
          "time": 450.8566919999994,
          "velocity": 0.7480314960629921,
          "duration": 0.4285709999999767
        },
        {
          "name": "D6",
          "midi": 86,
          "time": 450.8566919999994,
          "velocity": 0.7480314960629921,
          "duration": 0.4285709999999767
        },
        {
          "name": "D7",
          "midi": 98,
          "time": 450.8566919999994,
          "velocity": 0.7480314960629921,
          "duration": 0.4285709999999767
        },
        {
          "name": "D4",
          "midi": 62,
          "time": 451.28526299999936,
          "velocity": 0.7480314960629921,
          "duration": 0.4285709999999767
        },
        {
          "name": "D5",
          "midi": 74,
          "time": 451.28526299999936,
          "velocity": 0.7480314960629921,
          "duration": 0.4285709999999767
        },
        {
          "name": "D6",
          "midi": 86,
          "time": 451.28526299999936,
          "velocity": 0.7480314960629921,
          "duration": 0.4285709999999767
        },
        {
          "name": "D7",
          "midi": 98,
          "time": 451.28526299999936,
          "velocity": 0.7480314960629921,
          "duration": 0.4285709999999767
        },
        {
          "name": "D4",
          "midi": 62,
          "time": 451.71383399999934,
          "velocity": 0.7480314960629921,
          "duration": 0.8571420000000103
        },
        {
          "name": "D5",
          "midi": 74,
          "time": 451.71383399999934,
          "velocity": 0.7480314960629921,
          "duration": 0.8571420000000103
        },
        {
          "name": "D6",
          "midi": 86,
          "time": 451.71383399999934,
          "velocity": 0.7480314960629921,
          "duration": 0.8571420000000103
        },
        {
          "name": "D7",
          "midi": 98,
          "time": 451.71383399999934,
          "velocity": 0.7480314960629921,
          "duration": 0.8571420000000103
        },
        {
          "name": "C4",
          "midi": 60,
          "time": 452.57097599999935,
          "velocity": 1,
          "duration": 1.7142840000000206
        },
        {
          "name": "E4",
          "midi": 64,
          "time": 452.57097599999935,
          "velocity": 1,
          "duration": 1.7142840000000206
        },
        {
          "name": "C5",
          "midi": 72,
          "time": 452.57097599999935,
          "velocity": 1,
          "duration": 1.7142840000000206
        },
        {
          "name": "E5",
          "midi": 76,
          "time": 452.57097599999935,
          "velocity": 1,
          "duration": 1.7142840000000206
        },
        {
          "name": "C6",
          "midi": 84,
          "time": 452.57097599999935,
          "velocity": 1,
          "duration": 1.7142840000000206
        },
        {
          "name": "E6",
          "midi": 88,
          "time": 452.57097599999935,
          "velocity": 1,
          "duration": 1.7142840000000206
        },
        {
          "name": "C7",
          "midi": 96,
          "time": 452.57097599999935,
          "velocity": 1,
          "duration": 1.7142840000000206
        },
        {
          "name": "E7",
          "midi": 100,
          "time": 452.57097599999935,
          "velocity": 1,
          "duration": 1.7142840000000206
        },
        {
          "name": "D#4",
          "midi": 63,
          "time": 454.28525999999937,
          "velocity": 1,
          "duration": 1.7142840000000206
        },
        {
          "name": "D#5",
          "midi": 75,
          "time": 454.28525999999937,
          "velocity": 1,
          "duration": 1.7142840000000206
        },
        {
          "name": "D#6",
          "midi": 87,
          "time": 454.28525999999937,
          "velocity": 1,
          "duration": 1.7142840000000206
        },
        {
          "name": "D#7",
          "midi": 99,
          "time": 454.28525999999937,
          "velocity": 1,
          "duration": 1.7142840000000206
        },
        {
          "name": "C#4",
          "midi": 61,
          "time": 455.9995439999994,
          "velocity": 1,
          "duration": 1.7142840000000206
        },
        {
          "name": "C#5",
          "midi": 73,
          "time": 455.9995439999994,
          "velocity": 1,
          "duration": 1.7142840000000206
        },
        {
          "name": "C#6",
          "midi": 85,
          "time": 455.9995439999994,
          "velocity": 1,
          "duration": 1.7142840000000206
        },
        {
          "name": "C#7",
          "midi": 97,
          "time": 455.9995439999994,
          "velocity": 1,
          "duration": 1.7142840000000206
        },
        {
          "name": "D4",
          "midi": 62,
          "time": 457.7138279999994,
          "velocity": 1,
          "duration": 1.7142840000000206
        },
        {
          "name": "D5",
          "midi": 74,
          "time": 457.7138279999994,
          "velocity": 1,
          "duration": 1.7142840000000206
        },
        {
          "name": "D6",
          "midi": 86,
          "time": 457.7138279999994,
          "velocity": 1,
          "duration": 1.7142840000000206
        },
        {
          "name": "D7",
          "midi": 98,
          "time": 457.7138279999994,
          "velocity": 1,
          "duration": 1.7142840000000206
        },
        {
          "name": "C4",
          "midi": 60,
          "time": 459.42811199999943,
          "velocity": 1,
          "duration": 1.7142840000000206
        },
        {
          "name": "E4",
          "midi": 64,
          "time": 459.42811199999943,
          "velocity": 1,
          "duration": 1.7142840000000206
        },
        {
          "name": "C5",
          "midi": 72,
          "time": 459.42811199999943,
          "velocity": 1,
          "duration": 1.7142840000000206
        },
        {
          "name": "E5",
          "midi": 76,
          "time": 459.42811199999943,
          "velocity": 1,
          "duration": 1.7142840000000206
        },
        {
          "name": "C6",
          "midi": 84,
          "time": 459.42811199999943,
          "velocity": 1,
          "duration": 1.7142840000000206
        },
        {
          "name": "E6",
          "midi": 88,
          "time": 459.42811199999943,
          "velocity": 1,
          "duration": 1.7142840000000206
        },
        {
          "name": "C7",
          "midi": 96,
          "time": 459.42811199999943,
          "velocity": 1,
          "duration": 1.7142840000000206
        },
        {
          "name": "E7",
          "midi": 100,
          "time": 459.42811199999943,
          "velocity": 1,
          "duration": 1.7142840000000206
        },
        {
          "name": "D#4",
          "midi": 63,
          "time": 461.14239599999945,
          "velocity": 1,
          "duration": 1.7142840000000206
        },
        {
          "name": "D#5",
          "midi": 75,
          "time": 461.14239599999945,
          "velocity": 1,
          "duration": 1.7142840000000206
        },
        {
          "name": "D#6",
          "midi": 87,
          "time": 461.14239599999945,
          "velocity": 1,
          "duration": 1.7142840000000206
        },
        {
          "name": "D#7",
          "midi": 99,
          "time": 461.14239599999945,
          "velocity": 1,
          "duration": 1.7142840000000206
        },
        {
          "name": "C#4",
          "midi": 61,
          "time": 462.85667999999947,
          "velocity": 1,
          "duration": 1.7142840000000206
        },
        {
          "name": "C#5",
          "midi": 73,
          "time": 462.85667999999947,
          "velocity": 1,
          "duration": 1.7142840000000206
        },
        {
          "name": "C#6",
          "midi": 85,
          "time": 462.85667999999947,
          "velocity": 1,
          "duration": 1.7142840000000206
        },
        {
          "name": "C#7",
          "midi": 97,
          "time": 462.85667999999947,
          "velocity": 1,
          "duration": 1.7142840000000206
        },
        {
          "name": "D4",
          "midi": 62,
          "time": 464.5709639999995,
          "velocity": 1,
          "duration": 1.7142840000000206
        },
        {
          "name": "D5",
          "midi": 74,
          "time": 464.5709639999995,
          "velocity": 1,
          "duration": 1.7142840000000206
        },
        {
          "name": "D6",
          "midi": 86,
          "time": 464.5709639999995,
          "velocity": 1,
          "duration": 1.7142840000000206
        },
        {
          "name": "D7",
          "midi": 98,
          "time": 464.5709639999995,
          "velocity": 1,
          "duration": 1.7142840000000206
        },
        {
          "name": "C4",
          "midi": 60,
          "time": 466.2852479999995,
          "velocity": 1,
          "duration": 1.7142840000000206
        },
        {
          "name": "E4",
          "midi": 64,
          "time": 466.2852479999995,
          "velocity": 1,
          "duration": 1.7142840000000206
        },
        {
          "name": "C5",
          "midi": 72,
          "time": 466.2852479999995,
          "velocity": 1,
          "duration": 1.7142840000000206
        },
        {
          "name": "E5",
          "midi": 76,
          "time": 466.2852479999995,
          "velocity": 1,
          "duration": 1.7142840000000206
        },
        {
          "name": "C6",
          "midi": 84,
          "time": 466.2852479999995,
          "velocity": 1,
          "duration": 1.7142840000000206
        },
        {
          "name": "E6",
          "midi": 88,
          "time": 466.2852479999995,
          "velocity": 1,
          "duration": 1.7142840000000206
        },
        {
          "name": "C7",
          "midi": 96,
          "time": 466.2852479999995,
          "velocity": 1,
          "duration": 1.7142840000000206
        },
        {
          "name": "E7",
          "midi": 100,
          "time": 466.2852479999995,
          "velocity": 1,
          "duration": 1.7142840000000206
        },
        {
          "name": "D#4",
          "midi": 63,
          "time": 467.99953199999953,
          "velocity": 1,
          "duration": 1.7142840000000206
        },
        {
          "name": "D#5",
          "midi": 75,
          "time": 467.99953199999953,
          "velocity": 1,
          "duration": 1.7142840000000206
        },
        {
          "name": "D#6",
          "midi": 87,
          "time": 467.99953199999953,
          "velocity": 1,
          "duration": 1.7142840000000206
        },
        {
          "name": "D#7",
          "midi": 99,
          "time": 467.99953199999953,
          "velocity": 1,
          "duration": 1.7142840000000206
        },
        {
          "name": "C#4",
          "midi": 61,
          "time": 469.71381599999955,
          "velocity": 1,
          "duration": 1.7142840000000206
        },
        {
          "name": "C#5",
          "midi": 73,
          "time": 469.71381599999955,
          "velocity": 1,
          "duration": 1.7142840000000206
        },
        {
          "name": "C#6",
          "midi": 85,
          "time": 469.71381599999955,
          "velocity": 1,
          "duration": 1.7142840000000206
        },
        {
          "name": "C#7",
          "midi": 97,
          "time": 469.71381599999955,
          "velocity": 1,
          "duration": 1.7142840000000206
        },
        {
          "name": "D4",
          "midi": 62,
          "time": 471.4280999999996,
          "velocity": 1,
          "duration": 1.7142840000000206
        },
        {
          "name": "D5",
          "midi": 74,
          "time": 471.4280999999996,
          "velocity": 1,
          "duration": 1.7142840000000206
        },
        {
          "name": "D6",
          "midi": 86,
          "time": 471.4280999999996,
          "velocity": 1,
          "duration": 1.7142840000000206
        },
        {
          "name": "D7",
          "midi": 98,
          "time": 471.4280999999996,
          "velocity": 1,
          "duration": 1.7142840000000206
        },
        {
          "name": "C4",
          "midi": 60,
          "time": 473.1423839999996,
          "velocity": 1,
          "duration": 1.7142840000000206
        },
        {
          "name": "E4",
          "midi": 64,
          "time": 473.1423839999996,
          "velocity": 1,
          "duration": 1.7142840000000206
        },
        {
          "name": "C5",
          "midi": 72,
          "time": 473.1423839999996,
          "velocity": 1,
          "duration": 1.7142840000000206
        },
        {
          "name": "E5",
          "midi": 76,
          "time": 473.1423839999996,
          "velocity": 1,
          "duration": 1.7142840000000206
        },
        {
          "name": "C6",
          "midi": 84,
          "time": 473.1423839999996,
          "velocity": 1,
          "duration": 1.7142840000000206
        },
        {
          "name": "E6",
          "midi": 88,
          "time": 473.1423839999996,
          "velocity": 1,
          "duration": 1.7142840000000206
        },
        {
          "name": "C7",
          "midi": 96,
          "time": 473.1423839999996,
          "velocity": 1,
          "duration": 1.7142840000000206
        },
        {
          "name": "E7",
          "midi": 100,
          "time": 473.1423839999996,
          "velocity": 1,
          "duration": 1.7142840000000206
        },
        {
          "name": "D#4",
          "midi": 63,
          "time": 474.8566679999996,
          "velocity": 1,
          "duration": 1.7142840000000206
        },
        {
          "name": "D#5",
          "midi": 75,
          "time": 474.8566679999996,
          "velocity": 1,
          "duration": 1.7142840000000206
        },
        {
          "name": "D#6",
          "midi": 87,
          "time": 474.8566679999996,
          "velocity": 1,
          "duration": 1.7142840000000206
        },
        {
          "name": "D#7",
          "midi": 99,
          "time": 474.8566679999996,
          "velocity": 1,
          "duration": 1.7142840000000206
        },
        {
          "name": "C#4",
          "midi": 61,
          "time": 476.57095199999964,
          "velocity": 1,
          "duration": 1.7142840000000206
        },
        {
          "name": "C#5",
          "midi": 73,
          "time": 476.57095199999964,
          "velocity": 1,
          "duration": 1.7142840000000206
        },
        {
          "name": "C#6",
          "midi": 85,
          "time": 476.57095199999964,
          "velocity": 1,
          "duration": 1.7142840000000206
        },
        {
          "name": "C#7",
          "midi": 97,
          "time": 476.57095199999964,
          "velocity": 1,
          "duration": 1.7142840000000206
        },
        {
          "name": "D4",
          "midi": 62,
          "time": 478.28523599999966,
          "velocity": 1,
          "duration": 1.7142840000000206
        },
        {
          "name": "D5",
          "midi": 74,
          "time": 478.28523599999966,
          "velocity": 1,
          "duration": 1.7142840000000206
        },
        {
          "name": "D6",
          "midi": 86,
          "time": 478.28523599999966,
          "velocity": 1,
          "duration": 1.7142840000000206
        },
        {
          "name": "D7",
          "midi": 98,
          "time": 478.28523599999966,
          "velocity": 1,
          "duration": 1.7142840000000206
        },
        {
          "name": "C4",
          "midi": 60,
          "time": 479.9995199999997,
          "velocity": 1,
          "duration": 1.7142840000000206
        },
        {
          "name": "E4",
          "midi": 64,
          "time": 479.9995199999997,
          "velocity": 1,
          "duration": 1.7142840000000206
        },
        {
          "name": "C5",
          "midi": 72,
          "time": 479.9995199999997,
          "velocity": 1,
          "duration": 1.7142840000000206
        },
        {
          "name": "E5",
          "midi": 76,
          "time": 479.9995199999997,
          "velocity": 1,
          "duration": 1.7142840000000206
        },
        {
          "name": "C6",
          "midi": 84,
          "time": 479.9995199999997,
          "velocity": 1,
          "duration": 1.7142840000000206
        },
        {
          "name": "E6",
          "midi": 88,
          "time": 479.9995199999997,
          "velocity": 1,
          "duration": 1.7142840000000206
        },
        {
          "name": "C7",
          "midi": 96,
          "time": 479.9995199999997,
          "velocity": 1,
          "duration": 1.7142840000000206
        },
        {
          "name": "E7",
          "midi": 100,
          "time": 479.9995199999997,
          "velocity": 1,
          "duration": 1.7142840000000206
        },
        {
          "name": "D#4",
          "midi": 63,
          "time": 481.7138039999997,
          "velocity": 1,
          "duration": 1.7142840000000206
        },
        {
          "name": "D#5",
          "midi": 75,
          "time": 481.7138039999997,
          "velocity": 1,
          "duration": 1.7142840000000206
        },
        {
          "name": "D#6",
          "midi": 87,
          "time": 481.7138039999997,
          "velocity": 1,
          "duration": 1.7142840000000206
        },
        {
          "name": "D#7",
          "midi": 99,
          "time": 481.7138039999997,
          "velocity": 1,
          "duration": 1.7142840000000206
        },
        {
          "name": "C#4",
          "midi": 61,
          "time": 483.4280879999997,
          "velocity": 1,
          "duration": 1.7142840000000206
        },
        {
          "name": "C#5",
          "midi": 73,
          "time": 483.4280879999997,
          "velocity": 1,
          "duration": 1.7142840000000206
        },
        {
          "name": "C#6",
          "midi": 85,
          "time": 483.4280879999997,
          "velocity": 1,
          "duration": 1.7142840000000206
        },
        {
          "name": "C#7",
          "midi": 97,
          "time": 483.4280879999997,
          "velocity": 1,
          "duration": 1.7142840000000206
        },
        {
          "name": "D4",
          "midi": 62,
          "time": 485.14237199999974,
          "velocity": 1,
          "duration": 1.7142840000000206
        },
        {
          "name": "D5",
          "midi": 74,
          "time": 485.14237199999974,
          "velocity": 1,
          "duration": 1.7142840000000206
        },
        {
          "name": "D6",
          "midi": 86,
          "time": 485.14237199999974,
          "velocity": 1,
          "duration": 1.7142840000000206
        },
        {
          "name": "D7",
          "midi": 98,
          "time": 485.14237199999974,
          "velocity": 1,
          "duration": 1.7142840000000206
        },
        {
          "name": "C4",
          "midi": 60,
          "time": 486.85665599999976,
          "velocity": 1,
          "duration": 1.7142840000000206
        },
        {
          "name": "E4",
          "midi": 64,
          "time": 486.85665599999976,
          "velocity": 1,
          "duration": 1.7142840000000206
        },
        {
          "name": "C5",
          "midi": 72,
          "time": 486.85665599999976,
          "velocity": 1,
          "duration": 1.7142840000000206
        },
        {
          "name": "E5",
          "midi": 76,
          "time": 486.85665599999976,
          "velocity": 1,
          "duration": 1.7142840000000206
        },
        {
          "name": "C6",
          "midi": 84,
          "time": 486.85665599999976,
          "velocity": 1,
          "duration": 1.7142840000000206
        },
        {
          "name": "E6",
          "midi": 88,
          "time": 486.85665599999976,
          "velocity": 1,
          "duration": 1.7142840000000206
        },
        {
          "name": "C7",
          "midi": 96,
          "time": 486.85665599999976,
          "velocity": 1,
          "duration": 1.7142840000000206
        },
        {
          "name": "E7",
          "midi": 100,
          "time": 486.85665599999976,
          "velocity": 1,
          "duration": 1.7142840000000206
        },
        {
          "name": "D#4",
          "midi": 63,
          "time": 488.5709399999998,
          "velocity": 1,
          "duration": 1.7142840000000206
        },
        {
          "name": "D#5",
          "midi": 75,
          "time": 488.5709399999998,
          "velocity": 1,
          "duration": 1.7142840000000206
        },
        {
          "name": "D#6",
          "midi": 87,
          "time": 488.5709399999998,
          "velocity": 1,
          "duration": 1.7142840000000206
        },
        {
          "name": "D#7",
          "midi": 99,
          "time": 488.5709399999998,
          "velocity": 1,
          "duration": 1.7142840000000206
        },
        {
          "name": "C#4",
          "midi": 61,
          "time": 490.2852239999998,
          "velocity": 1,
          "duration": 1.7142840000000206
        },
        {
          "name": "C#5",
          "midi": 73,
          "time": 490.2852239999998,
          "velocity": 1,
          "duration": 1.7142840000000206
        },
        {
          "name": "C#6",
          "midi": 85,
          "time": 490.2852239999998,
          "velocity": 1,
          "duration": 1.7142840000000206
        },
        {
          "name": "C#7",
          "midi": 97,
          "time": 490.2852239999998,
          "velocity": 1,
          "duration": 1.7142840000000206
        },
        {
          "name": "D4",
          "midi": 62,
          "time": 491.9995079999998,
          "velocity": 1,
          "duration": 1.7142840000000206
        },
        {
          "name": "D5",
          "midi": 74,
          "time": 491.9995079999998,
          "velocity": 1,
          "duration": 1.7142840000000206
        },
        {
          "name": "D6",
          "midi": 86,
          "time": 491.9995079999998,
          "velocity": 1,
          "duration": 1.7142840000000206
        },
        {
          "name": "D7",
          "midi": 98,
          "time": 491.9995079999998,
          "velocity": 1,
          "duration": 1.7142840000000206
        },
        {
          "name": "C4",
          "midi": 60,
          "time": 493.71379199999984,
          "velocity": 1,
          "duration": 1.7142840000000206
        },
        {
          "name": "E4",
          "midi": 64,
          "time": 493.71379199999984,
          "velocity": 1,
          "duration": 1.7142840000000206
        },
        {
          "name": "C5",
          "midi": 72,
          "time": 493.71379199999984,
          "velocity": 1,
          "duration": 1.7142840000000206
        },
        {
          "name": "E5",
          "midi": 76,
          "time": 493.71379199999984,
          "velocity": 1,
          "duration": 1.7142840000000206
        },
        {
          "name": "C6",
          "midi": 84,
          "time": 493.71379199999984,
          "velocity": 1,
          "duration": 1.7142840000000206
        },
        {
          "name": "E6",
          "midi": 88,
          "time": 493.71379199999984,
          "velocity": 1,
          "duration": 1.7142840000000206
        },
        {
          "name": "C7",
          "midi": 96,
          "time": 493.71379199999984,
          "velocity": 1,
          "duration": 1.7142840000000206
        },
        {
          "name": "E7",
          "midi": 100,
          "time": 493.71379199999984,
          "velocity": 1,
          "duration": 1.7142840000000206
        },
        {
          "name": "D#4",
          "midi": 63,
          "time": 495.42807599999986,
          "velocity": 1,
          "duration": 1.7142840000000206
        },
        {
          "name": "D#5",
          "midi": 75,
          "time": 495.42807599999986,
          "velocity": 1,
          "duration": 1.7142840000000206
        },
        {
          "name": "D#6",
          "midi": 87,
          "time": 495.42807599999986,
          "velocity": 1,
          "duration": 1.7142840000000206
        },
        {
          "name": "D#7",
          "midi": 99,
          "time": 495.42807599999986,
          "velocity": 1,
          "duration": 1.7142840000000206
        },
        {
          "name": "C#4",
          "midi": 61,
          "time": 497.1423599999999,
          "velocity": 1,
          "duration": 1.7142840000000206
        },
        {
          "name": "C#5",
          "midi": 73,
          "time": 497.1423599999999,
          "velocity": 1,
          "duration": 1.7142840000000206
        },
        {
          "name": "C#6",
          "midi": 85,
          "time": 497.1423599999999,
          "velocity": 1,
          "duration": 1.7142840000000206
        },
        {
          "name": "C#7",
          "midi": 97,
          "time": 497.1423599999999,
          "velocity": 1,
          "duration": 1.7142840000000206
        },
        {
          "name": "D4",
          "midi": 62,
          "time": 498.8566439999999,
          "velocity": 1,
          "duration": 1.7142840000000206
        },
        {
          "name": "D5",
          "midi": 74,
          "time": 498.8566439999999,
          "velocity": 1,
          "duration": 1.7142840000000206
        },
        {
          "name": "D6",
          "midi": 86,
          "time": 498.8566439999999,
          "velocity": 1,
          "duration": 1.7142840000000206
        },
        {
          "name": "D7",
          "midi": 98,
          "time": 498.8566439999999,
          "velocity": 1,
          "duration": 1.7142840000000206
        },
        {
          "name": "C4",
          "midi": 60,
          "time": 500.5709279999999,
          "velocity": 1,
          "duration": 1.7142840000000206
        },
        {
          "name": "E4",
          "midi": 64,
          "time": 500.5709279999999,
          "velocity": 1,
          "duration": 1.7142840000000206
        },
        {
          "name": "C5",
          "midi": 72,
          "time": 500.5709279999999,
          "velocity": 1,
          "duration": 1.7142840000000206
        },
        {
          "name": "E5",
          "midi": 76,
          "time": 500.5709279999999,
          "velocity": 1,
          "duration": 1.7142840000000206
        },
        {
          "name": "C6",
          "midi": 84,
          "time": 500.5709279999999,
          "velocity": 1,
          "duration": 1.7142840000000206
        },
        {
          "name": "E6",
          "midi": 88,
          "time": 500.5709279999999,
          "velocity": 1,
          "duration": 1.7142840000000206
        },
        {
          "name": "C7",
          "midi": 96,
          "time": 500.5709279999999,
          "velocity": 1,
          "duration": 1.7142840000000206
        },
        {
          "name": "E7",
          "midi": 100,
          "time": 500.5709279999999,
          "velocity": 1,
          "duration": 1.7142840000000206
        },
        {
          "name": "D#4",
          "midi": 63,
          "time": 502.28521199999994,
          "velocity": 1,
          "duration": 1.7142840000000206
        },
        {
          "name": "D#5",
          "midi": 75,
          "time": 502.28521199999994,
          "velocity": 1,
          "duration": 1.7142840000000206
        },
        {
          "name": "D#6",
          "midi": 87,
          "time": 502.28521199999994,
          "velocity": 1,
          "duration": 1.7142840000000206
        },
        {
          "name": "D#7",
          "midi": 99,
          "time": 502.28521199999994,
          "velocity": 1,
          "duration": 1.7142840000000206
        },
        {
          "name": "C#4",
          "midi": 61,
          "time": 503.99949599999997,
          "velocity": 1,
          "duration": 1.7142840000000206
        },
        {
          "name": "C#5",
          "midi": 73,
          "time": 503.99949599999997,
          "velocity": 1,
          "duration": 1.7142840000000206
        },
        {
          "name": "C#6",
          "midi": 85,
          "time": 503.99949599999997,
          "velocity": 1,
          "duration": 1.7142840000000206
        },
        {
          "name": "C#7",
          "midi": 97,
          "time": 503.99949599999997,
          "velocity": 1,
          "duration": 1.7142840000000206
        },
        {
          "name": "D4",
          "midi": 62,
          "time": 505.71378,
          "velocity": 1,
          "duration": 1.7142840000000206
        },
        {
          "name": "D5",
          "midi": 74,
          "time": 505.71378,
          "velocity": 1,
          "duration": 1.7142840000000206
        },
        {
          "name": "D6",
          "midi": 86,
          "time": 505.71378,
          "velocity": 1,
          "duration": 1.7142840000000206
        },
        {
          "name": "D7",
          "midi": 98,
          "time": 505.71378,
          "velocity": 1,
          "duration": 1.7142840000000206
        },
        {
          "name": "C4",
          "midi": 60,
          "time": 507.428064,
          "velocity": 1,
          "duration": 3.4285679999999843
        },
        {
          "name": "C5",
          "midi": 72,
          "time": 507.428064,
          "velocity": 1,
          "duration": 3.4285679999999843
        },
        {
          "name": "C6",
          "midi": 84,
          "time": 507.428064,
          "velocity": 1,
          "duration": 3.4285679999999843
        },
        {
          "name": "C7",
          "midi": 96,
          "time": 507.428064,
          "velocity": 1,
          "duration": 3.4285679999999843
        }
      ],
      "controlChanges": {},
      "id": 2,
      "name": "PART BASS",
      "channelNumber": 14,
      "isPercussion": false
    },
    {
      "startTime": 54.85708800000001,
      "duration": 507.4280639999939,
      "length": 5636,
      "notes": [
        {
          "name": "C4",
          "midi": 60,
          "time": 54.85708800000001,
          "velocity": 0.7559055118110236,
          "duration": 0.42857099999999804
        },
        {
          "name": "C5",
          "midi": 72,
          "time": 54.85708800000001,
          "velocity": 0.7559055118110236,
          "duration": 0.42857099999999804
        },
        {
          "name": "C6",
          "midi": 84,
          "time": 54.85708800000001,
          "velocity": 0.7559055118110236,
          "duration": 0.42857099999999804
        },
        {
          "name": "C7",
          "midi": 96,
          "time": 54.85708800000001,
          "velocity": 0.7559055118110236,
          "duration": 0.42857099999999804
        },
        {
          "name": "C4",
          "midi": 60,
          "time": 55.28565900000001,
          "velocity": 0.7559055118110236,
          "duration": 0.42857099999999804
        },
        {
          "name": "C5",
          "midi": 72,
          "time": 55.28565900000001,
          "velocity": 0.7559055118110236,
          "duration": 0.42857099999999804
        },
        {
          "name": "C6",
          "midi": 84,
          "time": 55.28565900000001,
          "velocity": 0.7559055118110236,
          "duration": 0.42857099999999804
        },
        {
          "name": "C7",
          "midi": 96,
          "time": 55.28565900000001,
          "velocity": 0.7559055118110236,
          "duration": 0.42857099999999804
        },
        {
          "name": "C4",
          "midi": 60,
          "time": 55.71423000000001,
          "velocity": 0.7559055118110236,
          "duration": 0.10714275000000129
        },
        {
          "name": "C5",
          "midi": 72,
          "time": 55.71423000000001,
          "velocity": 0.7559055118110236,
          "duration": 0.10714275000000129
        },
        {
          "name": "C6",
          "midi": 84,
          "time": 55.71423000000001,
          "velocity": 0.7559055118110236,
          "duration": 0.10714275000000129
        },
        {
          "name": "C7",
          "midi": 96,
          "time": 55.71423000000001,
          "velocity": 0.7559055118110236,
          "duration": 0.10714275000000129
        },
        {
          "name": "C#4",
          "midi": 61,
          "time": 55.82137275000001,
          "velocity": 0.7559055118110236,
          "duration": 0.32142824999999675
        },
        {
          "name": "C#5",
          "midi": 73,
          "time": 55.82137275000001,
          "velocity": 0.7559055118110236,
          "duration": 0.32142824999999675
        },
        {
          "name": "C#6",
          "midi": 85,
          "time": 55.82137275000001,
          "velocity": 0.7559055118110236,
          "duration": 0.32142824999999675
        },
        {
          "name": "C#7",
          "midi": 97,
          "time": 55.82137275000001,
          "velocity": 0.7559055118110236,
          "duration": 0.32142824999999675
        },
        {
          "name": "C4",
          "midi": 60,
          "time": 56.142801000000006,
          "velocity": 0.7559055118110236,
          "duration": 0.10714275000000129
        },
        {
          "name": "C5",
          "midi": 72,
          "time": 56.142801000000006,
          "velocity": 0.7559055118110236,
          "duration": 0.10714275000000129
        },
        {
          "name": "C6",
          "midi": 84,
          "time": 56.142801000000006,
          "velocity": 0.7559055118110236,
          "duration": 0.10714275000000129
        },
        {
          "name": "C7",
          "midi": 96,
          "time": 56.142801000000006,
          "velocity": 0.7559055118110236,
          "duration": 0.10714275000000129
        },
        {
          "name": "C4",
          "midi": 60,
          "time": 56.35708650000001,
          "velocity": 0.7559055118110236,
          "duration": 0.10714275000000129
        },
        {
          "name": "C5",
          "midi": 72,
          "time": 56.35708650000001,
          "velocity": 0.7559055118110236,
          "duration": 0.10714275000000129
        },
        {
          "name": "C6",
          "midi": 84,
          "time": 56.35708650000001,
          "velocity": 0.7559055118110236,
          "duration": 0.10714275000000129
        },
        {
          "name": "C7",
          "midi": 96,
          "time": 56.35708650000001,
          "velocity": 0.7559055118110236,
          "duration": 0.10714275000000129
        },
        {
          "name": "C4",
          "midi": 60,
          "time": 56.785657500000006,
          "velocity": 0.7559055118110236,
          "duration": 0.10714275000000129
        },
        {
          "name": "C5",
          "midi": 72,
          "time": 56.785657500000006,
          "velocity": 0.7559055118110236,
          "duration": 0.10714275000000129
        },
        {
          "name": "C6",
          "midi": 84,
          "time": 56.785657500000006,
          "velocity": 0.7559055118110236,
          "duration": 0.10714275000000129
        },
        {
          "name": "C7",
          "midi": 96,
          "time": 56.785657500000006,
          "velocity": 0.7559055118110236,
          "duration": 0.10714275000000129
        },
        {
          "name": "C#4",
          "midi": 61,
          "time": 56.89280025000001,
          "velocity": 0.7559055118110236,
          "duration": 0.42857099999999804
        },
        {
          "name": "C#5",
          "midi": 73,
          "time": 56.89280025000001,
          "velocity": 0.7559055118110236,
          "duration": 0.42857099999999804
        },
        {
          "name": "C#6",
          "midi": 85,
          "time": 56.89280025000001,
          "velocity": 0.7559055118110236,
          "duration": 0.42857099999999804
        },
        {
          "name": "C#7",
          "midi": 97,
          "time": 56.89280025000001,
          "velocity": 0.7559055118110236,
          "duration": 0.42857099999999804
        },
        {
          "name": "C4",
          "midi": 60,
          "time": 57.42851400000001,
          "velocity": 0.7559055118110236,
          "duration": 0.10714275000000129
        },
        {
          "name": "C5",
          "midi": 72,
          "time": 57.42851400000001,
          "velocity": 0.7559055118110236,
          "duration": 0.10714275000000129
        },
        {
          "name": "C6",
          "midi": 84,
          "time": 57.42851400000001,
          "velocity": 0.7559055118110236,
          "duration": 0.10714275000000129
        },
        {
          "name": "C7",
          "midi": 96,
          "time": 57.42851400000001,
          "velocity": 0.7559055118110236,
          "duration": 0.10714275000000129
        },
        {
          "name": "C4",
          "midi": 60,
          "time": 57.64279950000001,
          "velocity": 0.7559055118110236,
          "duration": 0.10714275000000129
        },
        {
          "name": "C5",
          "midi": 72,
          "time": 57.64279950000001,
          "velocity": 0.7559055118110236,
          "duration": 0.10714275000000129
        },
        {
          "name": "C6",
          "midi": 84,
          "time": 57.64279950000001,
          "velocity": 0.7559055118110236,
          "duration": 0.10714275000000129
        },
        {
          "name": "C7",
          "midi": 96,
          "time": 57.64279950000001,
          "velocity": 0.7559055118110236,
          "duration": 0.10714275000000129
        },
        {
          "name": "C4",
          "midi": 60,
          "time": 57.85708500000001,
          "velocity": 0.7559055118110236,
          "duration": 0.10714275000000129
        },
        {
          "name": "C5",
          "midi": 72,
          "time": 57.85708500000001,
          "velocity": 0.7559055118110236,
          "duration": 0.10714275000000129
        },
        {
          "name": "C6",
          "midi": 84,
          "time": 57.85708500000001,
          "velocity": 0.7559055118110236,
          "duration": 0.10714275000000129
        },
        {
          "name": "C7",
          "midi": 96,
          "time": 57.85708500000001,
          "velocity": 0.7559055118110236,
          "duration": 0.10714275000000129
        },
        {
          "name": "C4",
          "midi": 60,
          "time": 58.071370500000015,
          "velocity": 0.7559055118110236,
          "duration": 0.10714275000000129
        },
        {
          "name": "C5",
          "midi": 72,
          "time": 58.071370500000015,
          "velocity": 0.7559055118110236,
          "duration": 0.10714275000000129
        },
        {
          "name": "C6",
          "midi": 84,
          "time": 58.071370500000015,
          "velocity": 0.7559055118110236,
          "duration": 0.10714275000000129
        },
        {
          "name": "C7",
          "midi": 96,
          "time": 58.071370500000015,
          "velocity": 0.7559055118110236,
          "duration": 0.10714275000000129
        },
        {
          "name": "D4",
          "midi": 62,
          "time": 58.28565600000002,
          "velocity": 0.7559055118110236,
          "duration": 0.10714275000000129
        },
        {
          "name": "D5",
          "midi": 74,
          "time": 58.28565600000002,
          "velocity": 0.7559055118110236,
          "duration": 0.10714275000000129
        },
        {
          "name": "D6",
          "midi": 86,
          "time": 58.28565600000002,
          "velocity": 0.7559055118110236,
          "duration": 0.10714275000000129
        },
        {
          "name": "D7",
          "midi": 98,
          "time": 58.28565600000002,
          "velocity": 0.7559055118110236,
          "duration": 0.10714275000000129
        },
        {
          "name": "C4",
          "midi": 60,
          "time": 58.49994150000002,
          "velocity": 0.7559055118110236,
          "duration": 0.10714275000000129
        },
        {
          "name": "C5",
          "midi": 72,
          "time": 58.49994150000002,
          "velocity": 0.7559055118110236,
          "duration": 0.10714275000000129
        },
        {
          "name": "C6",
          "midi": 84,
          "time": 58.49994150000002,
          "velocity": 0.7559055118110236,
          "duration": 0.10714275000000129
        },
        {
          "name": "C7",
          "midi": 96,
          "time": 58.49994150000002,
          "velocity": 0.7559055118110236,
          "duration": 0.10714275000000129
        },
        {
          "name": "C4",
          "midi": 60,
          "time": 58.71422700000002,
          "velocity": 0.7559055118110236,
          "duration": 0.10714275000000129
        },
        {
          "name": "C5",
          "midi": 72,
          "time": 58.71422700000002,
          "velocity": 0.7559055118110236,
          "duration": 0.10714275000000129
        },
        {
          "name": "C6",
          "midi": 84,
          "time": 58.71422700000002,
          "velocity": 0.7559055118110236,
          "duration": 0.10714275000000129
        },
        {
          "name": "C7",
          "midi": 96,
          "time": 58.71422700000002,
          "velocity": 0.7559055118110236,
          "duration": 0.10714275000000129
        },
        {
          "name": "C4",
          "midi": 60,
          "time": 59.14279800000002,
          "velocity": 0.7559055118110236,
          "duration": 0.10714275000000129
        },
        {
          "name": "C5",
          "midi": 72,
          "time": 59.14279800000002,
          "velocity": 0.7559055118110236,
          "duration": 0.10714275000000129
        },
        {
          "name": "C6",
          "midi": 84,
          "time": 59.14279800000002,
          "velocity": 0.7559055118110236,
          "duration": 0.10714275000000129
        },
        {
          "name": "C7",
          "midi": 96,
          "time": 59.14279800000002,
          "velocity": 0.7559055118110236,
          "duration": 0.10714275000000129
        },
        {
          "name": "C#4",
          "midi": 61,
          "time": 59.24994075000002,
          "velocity": 0.7559055118110236,
          "duration": 0.32142824999999675
        },
        {
          "name": "C#5",
          "midi": 73,
          "time": 59.24994075000002,
          "velocity": 0.7559055118110236,
          "duration": 0.32142824999999675
        },
        {
          "name": "C#6",
          "midi": 85,
          "time": 59.24994075000002,
          "velocity": 0.7559055118110236,
          "duration": 0.32142824999999675
        },
        {
          "name": "C#7",
          "midi": 97,
          "time": 59.24994075000002,
          "velocity": 0.7559055118110236,
          "duration": 0.32142824999999675
        },
        {
          "name": "C4",
          "midi": 60,
          "time": 59.57136900000002,
          "velocity": 0.7559055118110236,
          "duration": 0.10714275000000129
        },
        {
          "name": "C5",
          "midi": 72,
          "time": 59.57136900000002,
          "velocity": 0.7559055118110236,
          "duration": 0.10714275000000129
        },
        {
          "name": "C6",
          "midi": 84,
          "time": 59.57136900000002,
          "velocity": 0.7559055118110236,
          "duration": 0.10714275000000129
        },
        {
          "name": "C7",
          "midi": 96,
          "time": 59.57136900000002,
          "velocity": 0.7559055118110236,
          "duration": 0.10714275000000129
        },
        {
          "name": "C4",
          "midi": 60,
          "time": 59.78565450000002,
          "velocity": 0.7559055118110236,
          "duration": 0.10714275000000129
        },
        {
          "name": "C5",
          "midi": 72,
          "time": 59.78565450000002,
          "velocity": 0.7559055118110236,
          "duration": 0.10714275000000129
        },
        {
          "name": "C6",
          "midi": 84,
          "time": 59.78565450000002,
          "velocity": 0.7559055118110236,
          "duration": 0.10714275000000129
        },
        {
          "name": "C7",
          "midi": 96,
          "time": 59.78565450000002,
          "velocity": 0.7559055118110236,
          "duration": 0.10714275000000129
        },
        {
          "name": "C4",
          "midi": 60,
          "time": 60.21422550000002,
          "velocity": 0.7559055118110236,
          "duration": 0.10714275000000129
        },
        {
          "name": "C5",
          "midi": 72,
          "time": 60.21422550000002,
          "velocity": 0.7559055118110236,
          "duration": 0.10714275000000129
        },
        {
          "name": "C6",
          "midi": 84,
          "time": 60.21422550000002,
          "velocity": 0.7559055118110236,
          "duration": 0.10714275000000129
        },
        {
          "name": "C7",
          "midi": 96,
          "time": 60.21422550000002,
          "velocity": 0.7559055118110236,
          "duration": 0.10714275000000129
        },
        {
          "name": "C#4",
          "midi": 61,
          "time": 60.32136825000002,
          "velocity": 0.7559055118110236,
          "duration": 0.42857099999999804
        },
        {
          "name": "C#5",
          "midi": 73,
          "time": 60.32136825000002,
          "velocity": 0.7559055118110236,
          "duration": 0.42857099999999804
        },
        {
          "name": "C#6",
          "midi": 85,
          "time": 60.32136825000002,
          "velocity": 0.7559055118110236,
          "duration": 0.42857099999999804
        },
        {
          "name": "C#7",
          "midi": 97,
          "time": 60.32136825000002,
          "velocity": 0.7559055118110236,
          "duration": 0.42857099999999804
        },
        {
          "name": "C4",
          "midi": 60,
          "time": 60.85708200000002,
          "velocity": 0.7559055118110236,
          "duration": 0.10714275000000129
        },
        {
          "name": "C5",
          "midi": 72,
          "time": 60.85708200000002,
          "velocity": 0.7559055118110236,
          "duration": 0.10714275000000129
        },
        {
          "name": "C6",
          "midi": 84,
          "time": 60.85708200000002,
          "velocity": 0.7559055118110236,
          "duration": 0.10714275000000129
        },
        {
          "name": "C7",
          "midi": 96,
          "time": 60.85708200000002,
          "velocity": 0.7559055118110236,
          "duration": 0.10714275000000129
        },
        {
          "name": "C4",
          "midi": 60,
          "time": 61.07136750000002,
          "velocity": 0.7559055118110236,
          "duration": 0.10714275000000129
        },
        {
          "name": "C5",
          "midi": 72,
          "time": 61.07136750000002,
          "velocity": 0.7559055118110236,
          "duration": 0.10714275000000129
        },
        {
          "name": "C6",
          "midi": 84,
          "time": 61.07136750000002,
          "velocity": 0.7559055118110236,
          "duration": 0.10714275000000129
        },
        {
          "name": "C7",
          "midi": 96,
          "time": 61.07136750000002,
          "velocity": 0.7559055118110236,
          "duration": 0.10714275000000129
        },
        {
          "name": "C4",
          "midi": 60,
          "time": 61.285653000000025,
          "velocity": 0.7559055118110236,
          "duration": 0.10714275000000129
        },
        {
          "name": "C5",
          "midi": 72,
          "time": 61.285653000000025,
          "velocity": 0.7559055118110236,
          "duration": 0.10714275000000129
        },
        {
          "name": "C6",
          "midi": 84,
          "time": 61.285653000000025,
          "velocity": 0.7559055118110236,
          "duration": 0.10714275000000129
        },
        {
          "name": "C7",
          "midi": 96,
          "time": 61.285653000000025,
          "velocity": 0.7559055118110236,
          "duration": 0.10714275000000129
        },
        {
          "name": "C4",
          "midi": 60,
          "time": 61.49993850000003,
          "velocity": 0.7559055118110236,
          "duration": 0.10714275000000129
        },
        {
          "name": "C5",
          "midi": 72,
          "time": 61.49993850000003,
          "velocity": 0.7559055118110236,
          "duration": 0.10714275000000129
        },
        {
          "name": "C6",
          "midi": 84,
          "time": 61.49993850000003,
          "velocity": 0.7559055118110236,
          "duration": 0.10714275000000129
        },
        {
          "name": "C7",
          "midi": 96,
          "time": 61.49993850000003,
          "velocity": 0.7559055118110236,
          "duration": 0.10714275000000129
        },
        {
          "name": "D4",
          "midi": 62,
          "time": 61.71422400000003,
          "velocity": 0.7559055118110236,
          "duration": 0.10714275000000129
        },
        {
          "name": "D5",
          "midi": 74,
          "time": 61.71422400000003,
          "velocity": 0.7559055118110236,
          "duration": 0.10714275000000129
        },
        {
          "name": "D6",
          "midi": 86,
          "time": 61.71422400000003,
          "velocity": 0.7559055118110236,
          "duration": 0.10714275000000129
        },
        {
          "name": "D7",
          "midi": 98,
          "time": 61.71422400000003,
          "velocity": 0.7559055118110236,
          "duration": 0.10714275000000129
        },
        {
          "name": "C4",
          "midi": 60,
          "time": 61.92850950000003,
          "velocity": 0.7559055118110236,
          "duration": 0.10714275000000129
        },
        {
          "name": "C5",
          "midi": 72,
          "time": 61.92850950000003,
          "velocity": 0.7559055118110236,
          "duration": 0.10714275000000129
        },
        {
          "name": "C6",
          "midi": 84,
          "time": 61.92850950000003,
          "velocity": 0.7559055118110236,
          "duration": 0.10714275000000129
        },
        {
          "name": "C7",
          "midi": 96,
          "time": 61.92850950000003,
          "velocity": 0.7559055118110236,
          "duration": 0.10714275000000129
        },
        {
          "name": "C4",
          "midi": 60,
          "time": 62.142795000000035,
          "velocity": 0.7559055118110236,
          "duration": 0.10714275000000129
        },
        {
          "name": "C5",
          "midi": 72,
          "time": 62.142795000000035,
          "velocity": 0.7559055118110236,
          "duration": 0.10714275000000129
        },
        {
          "name": "C6",
          "midi": 84,
          "time": 62.142795000000035,
          "velocity": 0.7559055118110236,
          "duration": 0.10714275000000129
        },
        {
          "name": "C7",
          "midi": 96,
          "time": 62.142795000000035,
          "velocity": 0.7559055118110236,
          "duration": 0.10714275000000129
        },
        {
          "name": "C4",
          "midi": 60,
          "time": 62.57136600000003,
          "velocity": 0.7559055118110236,
          "duration": 0.10714275000000129
        },
        {
          "name": "C5",
          "midi": 72,
          "time": 62.57136600000003,
          "velocity": 0.7559055118110236,
          "duration": 0.10714275000000129
        },
        {
          "name": "C6",
          "midi": 84,
          "time": 62.57136600000003,
          "velocity": 0.7559055118110236,
          "duration": 0.10714275000000129
        },
        {
          "name": "C7",
          "midi": 96,
          "time": 62.57136600000003,
          "velocity": 0.7559055118110236,
          "duration": 0.10714275000000129
        },
        {
          "name": "C#4",
          "midi": 61,
          "time": 62.678508750000034,
          "velocity": 0.7559055118110236,
          "duration": 0.32142824999999675
        },
        {
          "name": "C#5",
          "midi": 73,
          "time": 62.678508750000034,
          "velocity": 0.7559055118110236,
          "duration": 0.32142824999999675
        },
        {
          "name": "C#6",
          "midi": 85,
          "time": 62.678508750000034,
          "velocity": 0.7559055118110236,
          "duration": 0.32142824999999675
        },
        {
          "name": "C#7",
          "midi": 97,
          "time": 62.678508750000034,
          "velocity": 0.7559055118110236,
          "duration": 0.32142824999999675
        },
        {
          "name": "C4",
          "midi": 60,
          "time": 62.99993700000003,
          "velocity": 0.7559055118110236,
          "duration": 0.10714275000000129
        },
        {
          "name": "C5",
          "midi": 72,
          "time": 62.99993700000003,
          "velocity": 0.7559055118110236,
          "duration": 0.10714275000000129
        },
        {
          "name": "C6",
          "midi": 84,
          "time": 62.99993700000003,
          "velocity": 0.7559055118110236,
          "duration": 0.10714275000000129
        },
        {
          "name": "C7",
          "midi": 96,
          "time": 62.99993700000003,
          "velocity": 0.7559055118110236,
          "duration": 0.10714275000000129
        },
        {
          "name": "C4",
          "midi": 60,
          "time": 63.214222500000034,
          "velocity": 0.7559055118110236,
          "duration": 0.10714275000000129
        },
        {
          "name": "C5",
          "midi": 72,
          "time": 63.214222500000034,
          "velocity": 0.7559055118110236,
          "duration": 0.10714275000000129
        },
        {
          "name": "C6",
          "midi": 84,
          "time": 63.214222500000034,
          "velocity": 0.7559055118110236,
          "duration": 0.10714275000000129
        },
        {
          "name": "C7",
          "midi": 96,
          "time": 63.214222500000034,
          "velocity": 0.7559055118110236,
          "duration": 0.10714275000000129
        },
        {
          "name": "C4",
          "midi": 60,
          "time": 63.64279350000003,
          "velocity": 0.7559055118110236,
          "duration": 0.10714275000000129
        },
        {
          "name": "C5",
          "midi": 72,
          "time": 63.64279350000003,
          "velocity": 0.7559055118110236,
          "duration": 0.10714275000000129
        },
        {
          "name": "C6",
          "midi": 84,
          "time": 63.64279350000003,
          "velocity": 0.7559055118110236,
          "duration": 0.10714275000000129
        },
        {
          "name": "C7",
          "midi": 96,
          "time": 63.64279350000003,
          "velocity": 0.7559055118110236,
          "duration": 0.10714275000000129
        },
        {
          "name": "C#4",
          "midi": 61,
          "time": 63.74993625000003,
          "velocity": 0.7559055118110236,
          "duration": 0.42857100000000514
        },
        {
          "name": "C#5",
          "midi": 73,
          "time": 63.74993625000003,
          "velocity": 0.7559055118110236,
          "duration": 0.42857100000000514
        },
        {
          "name": "C#6",
          "midi": 85,
          "time": 63.74993625000003,
          "velocity": 0.7559055118110236,
          "duration": 0.42857100000000514
        },
        {
          "name": "C#7",
          "midi": 97,
          "time": 63.74993625000003,
          "velocity": 0.7559055118110236,
          "duration": 0.42857100000000514
        },
        {
          "name": "C4",
          "midi": 60,
          "time": 64.28565000000003,
          "velocity": 0.7559055118110236,
          "duration": 0.10714274999999418
        },
        {
          "name": "C5",
          "midi": 72,
          "time": 64.28565000000003,
          "velocity": 0.7559055118110236,
          "duration": 0.10714274999999418
        },
        {
          "name": "C6",
          "midi": 84,
          "time": 64.28565000000003,
          "velocity": 0.7559055118110236,
          "duration": 0.10714274999999418
        },
        {
          "name": "C7",
          "midi": 96,
          "time": 64.28565000000003,
          "velocity": 0.7559055118110236,
          "duration": 0.10714274999999418
        },
        {
          "name": "C4",
          "midi": 60,
          "time": 64.49993550000002,
          "velocity": 0.7559055118110236,
          "duration": 0.10714274999999418
        },
        {
          "name": "C5",
          "midi": 72,
          "time": 64.49993550000002,
          "velocity": 0.7559055118110236,
          "duration": 0.10714274999999418
        },
        {
          "name": "C6",
          "midi": 84,
          "time": 64.49993550000002,
          "velocity": 0.7559055118110236,
          "duration": 0.10714274999999418
        },
        {
          "name": "C7",
          "midi": 96,
          "time": 64.49993550000002,
          "velocity": 0.7559055118110236,
          "duration": 0.10714274999999418
        },
        {
          "name": "C4",
          "midi": 60,
          "time": 64.71422100000001,
          "velocity": 0.7559055118110236,
          "duration": 0.10714274999999418
        },
        {
          "name": "C5",
          "midi": 72,
          "time": 64.71422100000001,
          "velocity": 0.7559055118110236,
          "duration": 0.10714274999999418
        },
        {
          "name": "C6",
          "midi": 84,
          "time": 64.71422100000001,
          "velocity": 0.7559055118110236,
          "duration": 0.10714274999999418
        },
        {
          "name": "C7",
          "midi": 96,
          "time": 64.71422100000001,
          "velocity": 0.7559055118110236,
          "duration": 0.10714274999999418
        },
        {
          "name": "C4",
          "midi": 60,
          "time": 64.9285065,
          "velocity": 0.7559055118110236,
          "duration": 0.10714274999999418
        },
        {
          "name": "C5",
          "midi": 72,
          "time": 64.9285065,
          "velocity": 0.7559055118110236,
          "duration": 0.10714274999999418
        },
        {
          "name": "C6",
          "midi": 84,
          "time": 64.9285065,
          "velocity": 0.7559055118110236,
          "duration": 0.10714274999999418
        },
        {
          "name": "C7",
          "midi": 96,
          "time": 64.9285065,
          "velocity": 0.7559055118110236,
          "duration": 0.10714274999999418
        },
        {
          "name": "D4",
          "midi": 62,
          "time": 65.14279199999999,
          "velocity": 0.7559055118110236,
          "duration": 0.10714274999999418
        },
        {
          "name": "D5",
          "midi": 74,
          "time": 65.14279199999999,
          "velocity": 0.7559055118110236,
          "duration": 0.10714274999999418
        },
        {
          "name": "D6",
          "midi": 86,
          "time": 65.14279199999999,
          "velocity": 0.7559055118110236,
          "duration": 0.10714274999999418
        },
        {
          "name": "D7",
          "midi": 98,
          "time": 65.14279199999999,
          "velocity": 0.7559055118110236,
          "duration": 0.10714274999999418
        },
        {
          "name": "C4",
          "midi": 60,
          "time": 65.35707749999997,
          "velocity": 0.7559055118110236,
          "duration": 0.10714274999999418
        },
        {
          "name": "C5",
          "midi": 72,
          "time": 65.35707749999997,
          "velocity": 0.7559055118110236,
          "duration": 0.10714274999999418
        },
        {
          "name": "C6",
          "midi": 84,
          "time": 65.35707749999997,
          "velocity": 0.7559055118110236,
          "duration": 0.10714274999999418
        },
        {
          "name": "C7",
          "midi": 96,
          "time": 65.35707749999997,
          "velocity": 0.7559055118110236,
          "duration": 0.10714274999999418
        },
        {
          "name": "C4",
          "midi": 60,
          "time": 65.57136299999996,
          "velocity": 0.7559055118110236,
          "duration": 0.10714274999999418
        },
        {
          "name": "C5",
          "midi": 72,
          "time": 65.57136299999996,
          "velocity": 0.7559055118110236,
          "duration": 0.10714274999999418
        },
        {
          "name": "C6",
          "midi": 84,
          "time": 65.57136299999996,
          "velocity": 0.7559055118110236,
          "duration": 0.10714274999999418
        },
        {
          "name": "C7",
          "midi": 96,
          "time": 65.57136299999996,
          "velocity": 0.7559055118110236,
          "duration": 0.10714274999999418
        },
        {
          "name": "C4",
          "midi": 60,
          "time": 65.99993399999995,
          "velocity": 0.7559055118110236,
          "duration": 0.10714274999999418
        },
        {
          "name": "C5",
          "midi": 72,
          "time": 65.99993399999995,
          "velocity": 0.7559055118110236,
          "duration": 0.10714274999999418
        },
        {
          "name": "C6",
          "midi": 84,
          "time": 65.99993399999995,
          "velocity": 0.7559055118110236,
          "duration": 0.10714274999999418
        },
        {
          "name": "C7",
          "midi": 96,
          "time": 65.99993399999995,
          "velocity": 0.7559055118110236,
          "duration": 0.10714274999999418
        },
        {
          "name": "C#4",
          "midi": 61,
          "time": 66.10707674999995,
          "velocity": 0.7559055118110236,
          "duration": 0.32142824999999675
        },
        {
          "name": "C#5",
          "midi": 73,
          "time": 66.10707674999995,
          "velocity": 0.7559055118110236,
          "duration": 0.32142824999999675
        },
        {
          "name": "C#6",
          "midi": 85,
          "time": 66.10707674999995,
          "velocity": 0.7559055118110236,
          "duration": 0.32142824999999675
        },
        {
          "name": "C#7",
          "midi": 97,
          "time": 66.10707674999995,
          "velocity": 0.7559055118110236,
          "duration": 0.32142824999999675
        },
        {
          "name": "C4",
          "midi": 60,
          "time": 66.42850499999994,
          "velocity": 0.7559055118110236,
          "duration": 0.10714274999999418
        },
        {
          "name": "C5",
          "midi": 72,
          "time": 66.42850499999994,
          "velocity": 0.7559055118110236,
          "duration": 0.10714274999999418
        },
        {
          "name": "C6",
          "midi": 84,
          "time": 66.42850499999994,
          "velocity": 0.7559055118110236,
          "duration": 0.10714274999999418
        },
        {
          "name": "C7",
          "midi": 96,
          "time": 66.42850499999994,
          "velocity": 0.7559055118110236,
          "duration": 0.10714274999999418
        },
        {
          "name": "C4",
          "midi": 60,
          "time": 66.64279049999993,
          "velocity": 0.7559055118110236,
          "duration": 0.10714274999999418
        },
        {
          "name": "C5",
          "midi": 72,
          "time": 66.64279049999993,
          "velocity": 0.7559055118110236,
          "duration": 0.10714274999999418
        },
        {
          "name": "C6",
          "midi": 84,
          "time": 66.64279049999993,
          "velocity": 0.7559055118110236,
          "duration": 0.10714274999999418
        },
        {
          "name": "C7",
          "midi": 96,
          "time": 66.64279049999993,
          "velocity": 0.7559055118110236,
          "duration": 0.10714274999999418
        },
        {
          "name": "C4",
          "midi": 60,
          "time": 67.07136149999992,
          "velocity": 0.7559055118110236,
          "duration": 0.10714274999999418
        },
        {
          "name": "C5",
          "midi": 72,
          "time": 67.07136149999992,
          "velocity": 0.7559055118110236,
          "duration": 0.10714274999999418
        },
        {
          "name": "C6",
          "midi": 84,
          "time": 67.07136149999992,
          "velocity": 0.7559055118110236,
          "duration": 0.10714274999999418
        },
        {
          "name": "C7",
          "midi": 96,
          "time": 67.07136149999992,
          "velocity": 0.7559055118110236,
          "duration": 0.10714274999999418
        },
        {
          "name": "C#4",
          "midi": 61,
          "time": 67.17850424999992,
          "velocity": 0.7559055118110236,
          "duration": 0.42857100000000514
        },
        {
          "name": "C#5",
          "midi": 73,
          "time": 67.17850424999992,
          "velocity": 0.7559055118110236,
          "duration": 0.42857100000000514
        },
        {
          "name": "C#6",
          "midi": 85,
          "time": 67.17850424999992,
          "velocity": 0.7559055118110236,
          "duration": 0.42857100000000514
        },
        {
          "name": "C#7",
          "midi": 97,
          "time": 67.17850424999992,
          "velocity": 0.7559055118110236,
          "duration": 0.42857100000000514
        },
        {
          "name": "C4",
          "midi": 60,
          "time": 67.71421799999992,
          "velocity": 0.7559055118110236,
          "duration": 0.10714274999999418
        },
        {
          "name": "C5",
          "midi": 72,
          "time": 67.71421799999992,
          "velocity": 0.7559055118110236,
          "duration": 0.10714274999999418
        },
        {
          "name": "C6",
          "midi": 84,
          "time": 67.71421799999992,
          "velocity": 0.7559055118110236,
          "duration": 0.10714274999999418
        },
        {
          "name": "C7",
          "midi": 96,
          "time": 67.71421799999992,
          "velocity": 0.7559055118110236,
          "duration": 0.10714274999999418
        },
        {
          "name": "C4",
          "midi": 60,
          "time": 67.9285034999999,
          "velocity": 0.7559055118110236,
          "duration": 0.10714274999999418
        },
        {
          "name": "C5",
          "midi": 72,
          "time": 67.9285034999999,
          "velocity": 0.7559055118110236,
          "duration": 0.10714274999999418
        },
        {
          "name": "C6",
          "midi": 84,
          "time": 67.9285034999999,
          "velocity": 0.7559055118110236,
          "duration": 0.10714274999999418
        },
        {
          "name": "C7",
          "midi": 96,
          "time": 67.9285034999999,
          "velocity": 0.7559055118110236,
          "duration": 0.10714274999999418
        },
        {
          "name": "C4",
          "midi": 60,
          "time": 68.1427889999999,
          "velocity": 0.7559055118110236,
          "duration": 0.10714274999999418
        },
        {
          "name": "C5",
          "midi": 72,
          "time": 68.1427889999999,
          "velocity": 0.7559055118110236,
          "duration": 0.10714274999999418
        },
        {
          "name": "C6",
          "midi": 84,
          "time": 68.1427889999999,
          "velocity": 0.7559055118110236,
          "duration": 0.10714274999999418
        },
        {
          "name": "C7",
          "midi": 96,
          "time": 68.1427889999999,
          "velocity": 0.7559055118110236,
          "duration": 0.10714274999999418
        },
        {
          "name": "C4",
          "midi": 60,
          "time": 68.35707449999988,
          "velocity": 0.7559055118110236,
          "duration": 0.10714274999999418
        },
        {
          "name": "C5",
          "midi": 72,
          "time": 68.35707449999988,
          "velocity": 0.7559055118110236,
          "duration": 0.10714274999999418
        },
        {
          "name": "C6",
          "midi": 84,
          "time": 68.35707449999988,
          "velocity": 0.7559055118110236,
          "duration": 0.10714274999999418
        },
        {
          "name": "C7",
          "midi": 96,
          "time": 68.35707449999988,
          "velocity": 0.7559055118110236,
          "duration": 0.10714274999999418
        },
        {
          "name": "D4",
          "midi": 62,
          "time": 68.57135999999987,
          "velocity": 0.7559055118110236,
          "duration": 0.10714274999999418
        },
        {
          "name": "D5",
          "midi": 74,
          "time": 68.57135999999987,
          "velocity": 0.7559055118110236,
          "duration": 0.10714274999999418
        },
        {
          "name": "D6",
          "midi": 86,
          "time": 68.57135999999987,
          "velocity": 0.7559055118110236,
          "duration": 0.10714274999999418
        },
        {
          "name": "D7",
          "midi": 98,
          "time": 68.57135999999987,
          "velocity": 0.7559055118110236,
          "duration": 0.10714274999999418
        },
        {
          "name": "C4",
          "midi": 60,
          "time": 68.78564549999986,
          "velocity": 0.7559055118110236,
          "duration": 0.10714274999999418
        },
        {
          "name": "C5",
          "midi": 72,
          "time": 68.78564549999986,
          "velocity": 0.7559055118110236,
          "duration": 0.10714274999999418
        },
        {
          "name": "C6",
          "midi": 84,
          "time": 68.78564549999986,
          "velocity": 0.7559055118110236,
          "duration": 0.10714274999999418
        },
        {
          "name": "C7",
          "midi": 96,
          "time": 68.78564549999986,
          "velocity": 0.7559055118110236,
          "duration": 0.10714274999999418
        },
        {
          "name": "C4",
          "midi": 60,
          "time": 68.99993099999985,
          "velocity": 0.7559055118110236,
          "duration": 0.10714274999999418
        },
        {
          "name": "C5",
          "midi": 72,
          "time": 68.99993099999985,
          "velocity": 0.7559055118110236,
          "duration": 0.10714274999999418
        },
        {
          "name": "C6",
          "midi": 84,
          "time": 68.99993099999985,
          "velocity": 0.7559055118110236,
          "duration": 0.10714274999999418
        },
        {
          "name": "C7",
          "midi": 96,
          "time": 68.99993099999985,
          "velocity": 0.7559055118110236,
          "duration": 0.10714274999999418
        },
        {
          "name": "C4",
          "midi": 60,
          "time": 69.42850199999984,
          "velocity": 0.7559055118110236,
          "duration": 0.10714274999999418
        },
        {
          "name": "C5",
          "midi": 72,
          "time": 69.42850199999984,
          "velocity": 0.7559055118110236,
          "duration": 0.10714274999999418
        },
        {
          "name": "C6",
          "midi": 84,
          "time": 69.42850199999984,
          "velocity": 0.7559055118110236,
          "duration": 0.10714274999999418
        },
        {
          "name": "C7",
          "midi": 96,
          "time": 69.42850199999984,
          "velocity": 0.7559055118110236,
          "duration": 0.10714274999999418
        },
        {
          "name": "C#4",
          "midi": 61,
          "time": 69.53564474999983,
          "velocity": 0.7559055118110236,
          "duration": 0.32142824999999675
        },
        {
          "name": "C#5",
          "midi": 73,
          "time": 69.53564474999983,
          "velocity": 0.7559055118110236,
          "duration": 0.32142824999999675
        },
        {
          "name": "C#6",
          "midi": 85,
          "time": 69.53564474999983,
          "velocity": 0.7559055118110236,
          "duration": 0.32142824999999675
        },
        {
          "name": "C#7",
          "midi": 97,
          "time": 69.53564474999983,
          "velocity": 0.7559055118110236,
          "duration": 0.32142824999999675
        },
        {
          "name": "C4",
          "midi": 60,
          "time": 69.85707299999983,
          "velocity": 0.7559055118110236,
          "duration": 0.10714274999999418
        },
        {
          "name": "C5",
          "midi": 72,
          "time": 69.85707299999983,
          "velocity": 0.7559055118110236,
          "duration": 0.10714274999999418
        },
        {
          "name": "C6",
          "midi": 84,
          "time": 69.85707299999983,
          "velocity": 0.7559055118110236,
          "duration": 0.10714274999999418
        },
        {
          "name": "C7",
          "midi": 96,
          "time": 69.85707299999983,
          "velocity": 0.7559055118110236,
          "duration": 0.10714274999999418
        },
        {
          "name": "C4",
          "midi": 60,
          "time": 70.07135849999982,
          "velocity": 0.7559055118110236,
          "duration": 0.10714274999999418
        },
        {
          "name": "C5",
          "midi": 72,
          "time": 70.07135849999982,
          "velocity": 0.7559055118110236,
          "duration": 0.10714274999999418
        },
        {
          "name": "C6",
          "midi": 84,
          "time": 70.07135849999982,
          "velocity": 0.7559055118110236,
          "duration": 0.10714274999999418
        },
        {
          "name": "C7",
          "midi": 96,
          "time": 70.07135849999982,
          "velocity": 0.7559055118110236,
          "duration": 0.10714274999999418
        },
        {
          "name": "C4",
          "midi": 60,
          "time": 70.49992949999981,
          "velocity": 0.7559055118110236,
          "duration": 0.10714274999999418
        },
        {
          "name": "C5",
          "midi": 72,
          "time": 70.49992949999981,
          "velocity": 0.7559055118110236,
          "duration": 0.10714274999999418
        },
        {
          "name": "C6",
          "midi": 84,
          "time": 70.49992949999981,
          "velocity": 0.7559055118110236,
          "duration": 0.10714274999999418
        },
        {
          "name": "C7",
          "midi": 96,
          "time": 70.49992949999981,
          "velocity": 0.7559055118110236,
          "duration": 0.10714274999999418
        },
        {
          "name": "C#4",
          "midi": 61,
          "time": 70.6070722499998,
          "velocity": 0.7559055118110236,
          "duration": 0.42857100000000514
        },
        {
          "name": "C#5",
          "midi": 73,
          "time": 70.6070722499998,
          "velocity": 0.7559055118110236,
          "duration": 0.42857100000000514
        },
        {
          "name": "C#6",
          "midi": 85,
          "time": 70.6070722499998,
          "velocity": 0.7559055118110236,
          "duration": 0.42857100000000514
        },
        {
          "name": "C#7",
          "midi": 97,
          "time": 70.6070722499998,
          "velocity": 0.7559055118110236,
          "duration": 0.42857100000000514
        },
        {
          "name": "C4",
          "midi": 60,
          "time": 71.1427859999998,
          "velocity": 0.7559055118110236,
          "duration": 0.10714274999999418
        },
        {
          "name": "C5",
          "midi": 72,
          "time": 71.1427859999998,
          "velocity": 0.7559055118110236,
          "duration": 0.10714274999999418
        },
        {
          "name": "C6",
          "midi": 84,
          "time": 71.1427859999998,
          "velocity": 0.7559055118110236,
          "duration": 0.10714274999999418
        },
        {
          "name": "C7",
          "midi": 96,
          "time": 71.1427859999998,
          "velocity": 0.7559055118110236,
          "duration": 0.10714274999999418
        },
        {
          "name": "C4",
          "midi": 60,
          "time": 71.35707149999979,
          "velocity": 0.7559055118110236,
          "duration": 0.10714274999999418
        },
        {
          "name": "C5",
          "midi": 72,
          "time": 71.35707149999979,
          "velocity": 0.7559055118110236,
          "duration": 0.10714274999999418
        },
        {
          "name": "C6",
          "midi": 84,
          "time": 71.35707149999979,
          "velocity": 0.7559055118110236,
          "duration": 0.10714274999999418
        },
        {
          "name": "C7",
          "midi": 96,
          "time": 71.35707149999979,
          "velocity": 0.7559055118110236,
          "duration": 0.10714274999999418
        },
        {
          "name": "C4",
          "midi": 60,
          "time": 71.57135699999978,
          "velocity": 0.7559055118110236,
          "duration": 0.10714274999999418
        },
        {
          "name": "C5",
          "midi": 72,
          "time": 71.57135699999978,
          "velocity": 0.7559055118110236,
          "duration": 0.10714274999999418
        },
        {
          "name": "C6",
          "midi": 84,
          "time": 71.57135699999978,
          "velocity": 0.7559055118110236,
          "duration": 0.10714274999999418
        },
        {
          "name": "C7",
          "midi": 96,
          "time": 71.57135699999978,
          "velocity": 0.7559055118110236,
          "duration": 0.10714274999999418
        },
        {
          "name": "C4",
          "midi": 60,
          "time": 71.78564249999977,
          "velocity": 0.7559055118110236,
          "duration": 0.10714274999999418
        },
        {
          "name": "C5",
          "midi": 72,
          "time": 71.78564249999977,
          "velocity": 0.7559055118110236,
          "duration": 0.10714274999999418
        },
        {
          "name": "C6",
          "midi": 84,
          "time": 71.78564249999977,
          "velocity": 0.7559055118110236,
          "duration": 0.10714274999999418
        },
        {
          "name": "C7",
          "midi": 96,
          "time": 71.78564249999977,
          "velocity": 0.7559055118110236,
          "duration": 0.10714274999999418
        },
        {
          "name": "D4",
          "midi": 62,
          "time": 71.99992799999976,
          "velocity": 0.7559055118110236,
          "duration": 0.10714274999999418
        },
        {
          "name": "D5",
          "midi": 74,
          "time": 71.99992799999976,
          "velocity": 0.7559055118110236,
          "duration": 0.10714274999999418
        },
        {
          "name": "D6",
          "midi": 86,
          "time": 71.99992799999976,
          "velocity": 0.7559055118110236,
          "duration": 0.10714274999999418
        },
        {
          "name": "D7",
          "midi": 98,
          "time": 71.99992799999976,
          "velocity": 0.7559055118110236,
          "duration": 0.10714274999999418
        },
        {
          "name": "C4",
          "midi": 60,
          "time": 72.21421349999974,
          "velocity": 0.7559055118110236,
          "duration": 0.10714274999999418
        },
        {
          "name": "C5",
          "midi": 72,
          "time": 72.21421349999974,
          "velocity": 0.7559055118110236,
          "duration": 0.10714274999999418
        },
        {
          "name": "C6",
          "midi": 84,
          "time": 72.21421349999974,
          "velocity": 0.7559055118110236,
          "duration": 0.10714274999999418
        },
        {
          "name": "C7",
          "midi": 96,
          "time": 72.21421349999974,
          "velocity": 0.7559055118110236,
          "duration": 0.10714274999999418
        },
        {
          "name": "C4",
          "midi": 60,
          "time": 72.42849899999973,
          "velocity": 0.7559055118110236,
          "duration": 0.10714274999999418
        },
        {
          "name": "C5",
          "midi": 72,
          "time": 72.42849899999973,
          "velocity": 0.7559055118110236,
          "duration": 0.10714274999999418
        },
        {
          "name": "C6",
          "midi": 84,
          "time": 72.42849899999973,
          "velocity": 0.7559055118110236,
          "duration": 0.10714274999999418
        },
        {
          "name": "C7",
          "midi": 96,
          "time": 72.42849899999973,
          "velocity": 0.7559055118110236,
          "duration": 0.10714274999999418
        },
        {
          "name": "C4",
          "midi": 60,
          "time": 72.85706999999972,
          "velocity": 0.7559055118110236,
          "duration": 0.10714274999999418
        },
        {
          "name": "C5",
          "midi": 72,
          "time": 72.85706999999972,
          "velocity": 0.7559055118110236,
          "duration": 0.10714274999999418
        },
        {
          "name": "C6",
          "midi": 84,
          "time": 72.85706999999972,
          "velocity": 0.7559055118110236,
          "duration": 0.10714274999999418
        },
        {
          "name": "C7",
          "midi": 96,
          "time": 72.85706999999972,
          "velocity": 0.7559055118110236,
          "duration": 0.10714274999999418
        },
        {
          "name": "C#4",
          "midi": 61,
          "time": 72.96421274999972,
          "velocity": 0.7559055118110236,
          "duration": 0.32142824999999675
        },
        {
          "name": "C#5",
          "midi": 73,
          "time": 72.96421274999972,
          "velocity": 0.7559055118110236,
          "duration": 0.32142824999999675
        },
        {
          "name": "C#6",
          "midi": 85,
          "time": 72.96421274999972,
          "velocity": 0.7559055118110236,
          "duration": 0.32142824999999675
        },
        {
          "name": "C#7",
          "midi": 97,
          "time": 72.96421274999972,
          "velocity": 0.7559055118110236,
          "duration": 0.32142824999999675
        },
        {
          "name": "C4",
          "midi": 60,
          "time": 73.28564099999971,
          "velocity": 0.7559055118110236,
          "duration": 0.10714274999999418
        },
        {
          "name": "C5",
          "midi": 72,
          "time": 73.28564099999971,
          "velocity": 0.7559055118110236,
          "duration": 0.10714274999999418
        },
        {
          "name": "C6",
          "midi": 84,
          "time": 73.28564099999971,
          "velocity": 0.7559055118110236,
          "duration": 0.10714274999999418
        },
        {
          "name": "C7",
          "midi": 96,
          "time": 73.28564099999971,
          "velocity": 0.7559055118110236,
          "duration": 0.10714274999999418
        },
        {
          "name": "C4",
          "midi": 60,
          "time": 73.4999264999997,
          "velocity": 0.7559055118110236,
          "duration": 0.10714274999999418
        },
        {
          "name": "C5",
          "midi": 72,
          "time": 73.4999264999997,
          "velocity": 0.7559055118110236,
          "duration": 0.10714274999999418
        },
        {
          "name": "C6",
          "midi": 84,
          "time": 73.4999264999997,
          "velocity": 0.7559055118110236,
          "duration": 0.10714274999999418
        },
        {
          "name": "C7",
          "midi": 96,
          "time": 73.4999264999997,
          "velocity": 0.7559055118110236,
          "duration": 0.10714274999999418
        },
        {
          "name": "C4",
          "midi": 60,
          "time": 73.9284974999997,
          "velocity": 0.7559055118110236,
          "duration": 0.10714274999999418
        },
        {
          "name": "C5",
          "midi": 72,
          "time": 73.9284974999997,
          "velocity": 0.7559055118110236,
          "duration": 0.10714274999999418
        },
        {
          "name": "C6",
          "midi": 84,
          "time": 73.9284974999997,
          "velocity": 0.7559055118110236,
          "duration": 0.10714274999999418
        },
        {
          "name": "C7",
          "midi": 96,
          "time": 73.9284974999997,
          "velocity": 0.7559055118110236,
          "duration": 0.10714274999999418
        },
        {
          "name": "C#4",
          "midi": 61,
          "time": 74.03564024999969,
          "velocity": 0.7559055118110236,
          "duration": 0.42857100000000514
        },
        {
          "name": "C#5",
          "midi": 73,
          "time": 74.03564024999969,
          "velocity": 0.7559055118110236,
          "duration": 0.42857100000000514
        },
        {
          "name": "C#6",
          "midi": 85,
          "time": 74.03564024999969,
          "velocity": 0.7559055118110236,
          "duration": 0.42857100000000514
        },
        {
          "name": "C#7",
          "midi": 97,
          "time": 74.03564024999969,
          "velocity": 0.7559055118110236,
          "duration": 0.42857100000000514
        },
        {
          "name": "C4",
          "midi": 60,
          "time": 74.57135399999969,
          "velocity": 0.7559055118110236,
          "duration": 0.10714274999999418
        },
        {
          "name": "C5",
          "midi": 72,
          "time": 74.57135399999969,
          "velocity": 0.7559055118110236,
          "duration": 0.10714274999999418
        },
        {
          "name": "C6",
          "midi": 84,
          "time": 74.57135399999969,
          "velocity": 0.7559055118110236,
          "duration": 0.10714274999999418
        },
        {
          "name": "C7",
          "midi": 96,
          "time": 74.57135399999969,
          "velocity": 0.7559055118110236,
          "duration": 0.10714274999999418
        },
        {
          "name": "C4",
          "midi": 60,
          "time": 74.78563949999968,
          "velocity": 0.7559055118110236,
          "duration": 0.10714274999999418
        },
        {
          "name": "C5",
          "midi": 72,
          "time": 74.78563949999968,
          "velocity": 0.7559055118110236,
          "duration": 0.10714274999999418
        },
        {
          "name": "C6",
          "midi": 84,
          "time": 74.78563949999968,
          "velocity": 0.7559055118110236,
          "duration": 0.10714274999999418
        },
        {
          "name": "C7",
          "midi": 96,
          "time": 74.78563949999968,
          "velocity": 0.7559055118110236,
          "duration": 0.10714274999999418
        },
        {
          "name": "C4",
          "midi": 60,
          "time": 74.99992499999966,
          "velocity": 0.7559055118110236,
          "duration": 0.10714274999999418
        },
        {
          "name": "C5",
          "midi": 72,
          "time": 74.99992499999966,
          "velocity": 0.7559055118110236,
          "duration": 0.10714274999999418
        },
        {
          "name": "C6",
          "midi": 84,
          "time": 74.99992499999966,
          "velocity": 0.7559055118110236,
          "duration": 0.10714274999999418
        },
        {
          "name": "C7",
          "midi": 96,
          "time": 74.99992499999966,
          "velocity": 0.7559055118110236,
          "duration": 0.10714274999999418
        },
        {
          "name": "C4",
          "midi": 60,
          "time": 75.21421049999965,
          "velocity": 0.7559055118110236,
          "duration": 0.10714274999999418
        },
        {
          "name": "C5",
          "midi": 72,
          "time": 75.21421049999965,
          "velocity": 0.7559055118110236,
          "duration": 0.10714274999999418
        },
        {
          "name": "C6",
          "midi": 84,
          "time": 75.21421049999965,
          "velocity": 0.7559055118110236,
          "duration": 0.10714274999999418
        },
        {
          "name": "C7",
          "midi": 96,
          "time": 75.21421049999965,
          "velocity": 0.7559055118110236,
          "duration": 0.10714274999999418
        },
        {
          "name": "D4",
          "midi": 62,
          "time": 75.42849599999964,
          "velocity": 0.7559055118110236,
          "duration": 0.10714274999999418
        },
        {
          "name": "D5",
          "midi": 74,
          "time": 75.42849599999964,
          "velocity": 0.7559055118110236,
          "duration": 0.10714274999999418
        },
        {
          "name": "D6",
          "midi": 86,
          "time": 75.42849599999964,
          "velocity": 0.7559055118110236,
          "duration": 0.10714274999999418
        },
        {
          "name": "D7",
          "midi": 98,
          "time": 75.42849599999964,
          "velocity": 0.7559055118110236,
          "duration": 0.10714274999999418
        },
        {
          "name": "C4",
          "midi": 60,
          "time": 75.64278149999963,
          "velocity": 0.7559055118110236,
          "duration": 0.10714274999999418
        },
        {
          "name": "C5",
          "midi": 72,
          "time": 75.64278149999963,
          "velocity": 0.7559055118110236,
          "duration": 0.10714274999999418
        },
        {
          "name": "C6",
          "midi": 84,
          "time": 75.64278149999963,
          "velocity": 0.7559055118110236,
          "duration": 0.10714274999999418
        },
        {
          "name": "C7",
          "midi": 96,
          "time": 75.64278149999963,
          "velocity": 0.7559055118110236,
          "duration": 0.10714274999999418
        },
        {
          "name": "C4",
          "midi": 60,
          "time": 75.85706699999962,
          "velocity": 0.7559055118110236,
          "duration": 0.10714274999999418
        },
        {
          "name": "C5",
          "midi": 72,
          "time": 75.85706699999962,
          "velocity": 0.7559055118110236,
          "duration": 0.10714274999999418
        },
        {
          "name": "C6",
          "midi": 84,
          "time": 75.85706699999962,
          "velocity": 0.7559055118110236,
          "duration": 0.10714274999999418
        },
        {
          "name": "C7",
          "midi": 96,
          "time": 75.85706699999962,
          "velocity": 0.7559055118110236,
          "duration": 0.10714274999999418
        },
        {
          "name": "C4",
          "midi": 60,
          "time": 76.28563799999961,
          "velocity": 0.7559055118110236,
          "duration": 0.10714274999999418
        },
        {
          "name": "C5",
          "midi": 72,
          "time": 76.28563799999961,
          "velocity": 0.7559055118110236,
          "duration": 0.10714274999999418
        },
        {
          "name": "C6",
          "midi": 84,
          "time": 76.28563799999961,
          "velocity": 0.7559055118110236,
          "duration": 0.10714274999999418
        },
        {
          "name": "C7",
          "midi": 96,
          "time": 76.28563799999961,
          "velocity": 0.7559055118110236,
          "duration": 0.10714274999999418
        },
        {
          "name": "C#4",
          "midi": 61,
          "time": 76.3927807499996,
          "velocity": 0.7559055118110236,
          "duration": 0.32142824999999675
        },
        {
          "name": "C#5",
          "midi": 73,
          "time": 76.3927807499996,
          "velocity": 0.7559055118110236,
          "duration": 0.32142824999999675
        },
        {
          "name": "C#6",
          "midi": 85,
          "time": 76.3927807499996,
          "velocity": 0.7559055118110236,
          "duration": 0.32142824999999675
        },
        {
          "name": "C#7",
          "midi": 97,
          "time": 76.3927807499996,
          "velocity": 0.7559055118110236,
          "duration": 0.32142824999999675
        },
        {
          "name": "C4",
          "midi": 60,
          "time": 76.7142089999996,
          "velocity": 0.7559055118110236,
          "duration": 0.10714274999999418
        },
        {
          "name": "C5",
          "midi": 72,
          "time": 76.7142089999996,
          "velocity": 0.7559055118110236,
          "duration": 0.10714274999999418
        },
        {
          "name": "C6",
          "midi": 84,
          "time": 76.7142089999996,
          "velocity": 0.7559055118110236,
          "duration": 0.10714274999999418
        },
        {
          "name": "C7",
          "midi": 96,
          "time": 76.7142089999996,
          "velocity": 0.7559055118110236,
          "duration": 0.10714274999999418
        },
        {
          "name": "C4",
          "midi": 60,
          "time": 76.92849449999959,
          "velocity": 0.7559055118110236,
          "duration": 0.10714274999999418
        },
        {
          "name": "C5",
          "midi": 72,
          "time": 76.92849449999959,
          "velocity": 0.7559055118110236,
          "duration": 0.10714274999999418
        },
        {
          "name": "C6",
          "midi": 84,
          "time": 76.92849449999959,
          "velocity": 0.7559055118110236,
          "duration": 0.10714274999999418
        },
        {
          "name": "C7",
          "midi": 96,
          "time": 76.92849449999959,
          "velocity": 0.7559055118110236,
          "duration": 0.10714274999999418
        },
        {
          "name": "C4",
          "midi": 60,
          "time": 77.35706549999958,
          "velocity": 0.7559055118110236,
          "duration": 0.10714274999999418
        },
        {
          "name": "C5",
          "midi": 72,
          "time": 77.35706549999958,
          "velocity": 0.7559055118110236,
          "duration": 0.10714274999999418
        },
        {
          "name": "C6",
          "midi": 84,
          "time": 77.35706549999958,
          "velocity": 0.7559055118110236,
          "duration": 0.10714274999999418
        },
        {
          "name": "C7",
          "midi": 96,
          "time": 77.35706549999958,
          "velocity": 0.7559055118110236,
          "duration": 0.10714274999999418
        },
        {
          "name": "C#4",
          "midi": 61,
          "time": 77.46420824999957,
          "velocity": 0.7559055118110236,
          "duration": 0.42857100000000514
        },
        {
          "name": "C#5",
          "midi": 73,
          "time": 77.46420824999957,
          "velocity": 0.7559055118110236,
          "duration": 0.42857100000000514
        },
        {
          "name": "C#6",
          "midi": 85,
          "time": 77.46420824999957,
          "velocity": 0.7559055118110236,
          "duration": 0.42857100000000514
        },
        {
          "name": "C#7",
          "midi": 97,
          "time": 77.46420824999957,
          "velocity": 0.7559055118110236,
          "duration": 0.42857100000000514
        },
        {
          "name": "C4",
          "midi": 60,
          "time": 77.99992199999957,
          "velocity": 0.7559055118110236,
          "duration": 0.10714274999999418
        },
        {
          "name": "C5",
          "midi": 72,
          "time": 77.99992199999957,
          "velocity": 0.7559055118110236,
          "duration": 0.10714274999999418
        },
        {
          "name": "C6",
          "midi": 84,
          "time": 77.99992199999957,
          "velocity": 0.7559055118110236,
          "duration": 0.10714274999999418
        },
        {
          "name": "C7",
          "midi": 96,
          "time": 77.99992199999957,
          "velocity": 0.7559055118110236,
          "duration": 0.10714274999999418
        },
        {
          "name": "C4",
          "midi": 60,
          "time": 78.21420749999956,
          "velocity": 0.7559055118110236,
          "duration": 0.10714274999999418
        },
        {
          "name": "C5",
          "midi": 72,
          "time": 78.21420749999956,
          "velocity": 0.7559055118110236,
          "duration": 0.10714274999999418
        },
        {
          "name": "C6",
          "midi": 84,
          "time": 78.21420749999956,
          "velocity": 0.7559055118110236,
          "duration": 0.10714274999999418
        },
        {
          "name": "C7",
          "midi": 96,
          "time": 78.21420749999956,
          "velocity": 0.7559055118110236,
          "duration": 0.10714274999999418
        },
        {
          "name": "C4",
          "midi": 60,
          "time": 78.42849299999955,
          "velocity": 0.7559055118110236,
          "duration": 0.10714274999999418
        },
        {
          "name": "C5",
          "midi": 72,
          "time": 78.42849299999955,
          "velocity": 0.7559055118110236,
          "duration": 0.10714274999999418
        },
        {
          "name": "C6",
          "midi": 84,
          "time": 78.42849299999955,
          "velocity": 0.7559055118110236,
          "duration": 0.10714274999999418
        },
        {
          "name": "C7",
          "midi": 96,
          "time": 78.42849299999955,
          "velocity": 0.7559055118110236,
          "duration": 0.10714274999999418
        },
        {
          "name": "C4",
          "midi": 60,
          "time": 78.64277849999954,
          "velocity": 0.7559055118110236,
          "duration": 0.32142824999999675
        },
        {
          "name": "C5",
          "midi": 72,
          "time": 78.64277849999954,
          "velocity": 0.7559055118110236,
          "duration": 0.32142824999999675
        },
        {
          "name": "C6",
          "midi": 84,
          "time": 78.64277849999954,
          "velocity": 0.7559055118110236,
          "duration": 0.32142824999999675
        },
        {
          "name": "C7",
          "midi": 96,
          "time": 78.64277849999954,
          "velocity": 0.7559055118110236,
          "duration": 0.32142824999999675
        },
        {
          "name": "C4",
          "midi": 60,
          "time": 82.28563199999952,
          "velocity": 0.7559055118110236,
          "duration": 0.42857100000000514
        },
        {
          "name": "C5",
          "midi": 72,
          "time": 82.28563199999952,
          "velocity": 0.7559055118110236,
          "duration": 0.42857100000000514
        },
        {
          "name": "C6",
          "midi": 84,
          "time": 82.28563199999952,
          "velocity": 0.7559055118110236,
          "duration": 0.42857100000000514
        },
        {
          "name": "C7",
          "midi": 96,
          "time": 82.28563199999952,
          "velocity": 0.7559055118110236,
          "duration": 0.42857100000000514
        },
        {
          "name": "C4",
          "midi": 60,
          "time": 82.71420299999953,
          "velocity": 0.7559055118110236,
          "duration": 0.42857100000000514
        },
        {
          "name": "C5",
          "midi": 72,
          "time": 82.71420299999953,
          "velocity": 0.7559055118110236,
          "duration": 0.42857100000000514
        },
        {
          "name": "C6",
          "midi": 84,
          "time": 82.71420299999953,
          "velocity": 0.7559055118110236,
          "duration": 0.42857100000000514
        },
        {
          "name": "C7",
          "midi": 96,
          "time": 82.71420299999953,
          "velocity": 0.7559055118110236,
          "duration": 0.42857100000000514
        },
        {
          "name": "C4",
          "midi": 60,
          "time": 83.14277399999953,
          "velocity": 0.7559055118110236,
          "duration": 0.10714274999999418
        },
        {
          "name": "C5",
          "midi": 72,
          "time": 83.14277399999953,
          "velocity": 0.7559055118110236,
          "duration": 0.10714274999999418
        },
        {
          "name": "C6",
          "midi": 84,
          "time": 83.14277399999953,
          "velocity": 0.7559055118110236,
          "duration": 0.10714274999999418
        },
        {
          "name": "C7",
          "midi": 96,
          "time": 83.14277399999953,
          "velocity": 0.7559055118110236,
          "duration": 0.10714274999999418
        },
        {
          "name": "C#4",
          "midi": 61,
          "time": 83.24991674999953,
          "velocity": 0.7559055118110236,
          "duration": 0.32142824999999675
        },
        {
          "name": "C#5",
          "midi": 73,
          "time": 83.24991674999953,
          "velocity": 0.7559055118110236,
          "duration": 0.32142824999999675
        },
        {
          "name": "C#6",
          "midi": 85,
          "time": 83.24991674999953,
          "velocity": 0.7559055118110236,
          "duration": 0.32142824999999675
        },
        {
          "name": "C#7",
          "midi": 97,
          "time": 83.24991674999953,
          "velocity": 0.7559055118110236,
          "duration": 0.32142824999999675
        },
        {
          "name": "C4",
          "midi": 60,
          "time": 83.57134499999952,
          "velocity": 0.7559055118110236,
          "duration": 0.10714274999999418
        },
        {
          "name": "C5",
          "midi": 72,
          "time": 83.57134499999952,
          "velocity": 0.7559055118110236,
          "duration": 0.10714274999999418
        },
        {
          "name": "C6",
          "midi": 84,
          "time": 83.57134499999952,
          "velocity": 0.7559055118110236,
          "duration": 0.10714274999999418
        },
        {
          "name": "C7",
          "midi": 96,
          "time": 83.57134499999952,
          "velocity": 0.7559055118110236,
          "duration": 0.10714274999999418
        },
        {
          "name": "C4",
          "midi": 60,
          "time": 83.78563049999951,
          "velocity": 0.7559055118110236,
          "duration": 0.10714274999999418
        },
        {
          "name": "C5",
          "midi": 72,
          "time": 83.78563049999951,
          "velocity": 0.7559055118110236,
          "duration": 0.10714274999999418
        },
        {
          "name": "C6",
          "midi": 84,
          "time": 83.78563049999951,
          "velocity": 0.7559055118110236,
          "duration": 0.10714274999999418
        },
        {
          "name": "C7",
          "midi": 96,
          "time": 83.78563049999951,
          "velocity": 0.7559055118110236,
          "duration": 0.10714274999999418
        },
        {
          "name": "C4",
          "midi": 60,
          "time": 84.2142014999995,
          "velocity": 0.7559055118110236,
          "duration": 0.10714274999999418
        },
        {
          "name": "C5",
          "midi": 72,
          "time": 84.2142014999995,
          "velocity": 0.7559055118110236,
          "duration": 0.10714274999999418
        },
        {
          "name": "C6",
          "midi": 84,
          "time": 84.2142014999995,
          "velocity": 0.7559055118110236,
          "duration": 0.10714274999999418
        },
        {
          "name": "C7",
          "midi": 96,
          "time": 84.2142014999995,
          "velocity": 0.7559055118110236,
          "duration": 0.10714274999999418
        },
        {
          "name": "C#4",
          "midi": 61,
          "time": 84.3213442499995,
          "velocity": 0.7559055118110236,
          "duration": 0.42857100000000514
        },
        {
          "name": "C#5",
          "midi": 73,
          "time": 84.3213442499995,
          "velocity": 0.7559055118110236,
          "duration": 0.42857100000000514
        },
        {
          "name": "C#6",
          "midi": 85,
          "time": 84.3213442499995,
          "velocity": 0.7559055118110236,
          "duration": 0.42857100000000514
        },
        {
          "name": "C#7",
          "midi": 97,
          "time": 84.3213442499995,
          "velocity": 0.7559055118110236,
          "duration": 0.42857100000000514
        },
        {
          "name": "C4",
          "midi": 60,
          "time": 84.8570579999995,
          "velocity": 0.7559055118110236,
          "duration": 0.10714274999999418
        },
        {
          "name": "C5",
          "midi": 72,
          "time": 84.8570579999995,
          "velocity": 0.7559055118110236,
          "duration": 0.10714274999999418
        },
        {
          "name": "C6",
          "midi": 84,
          "time": 84.8570579999995,
          "velocity": 0.7559055118110236,
          "duration": 0.10714274999999418
        },
        {
          "name": "C7",
          "midi": 96,
          "time": 84.8570579999995,
          "velocity": 0.7559055118110236,
          "duration": 0.10714274999999418
        },
        {
          "name": "C4",
          "midi": 60,
          "time": 85.07134349999949,
          "velocity": 0.7559055118110236,
          "duration": 0.10714274999999418
        },
        {
          "name": "C5",
          "midi": 72,
          "time": 85.07134349999949,
          "velocity": 0.7559055118110236,
          "duration": 0.10714274999999418
        },
        {
          "name": "C6",
          "midi": 84,
          "time": 85.07134349999949,
          "velocity": 0.7559055118110236,
          "duration": 0.10714274999999418
        },
        {
          "name": "C7",
          "midi": 96,
          "time": 85.07134349999949,
          "velocity": 0.7559055118110236,
          "duration": 0.10714274999999418
        },
        {
          "name": "C4",
          "midi": 60,
          "time": 85.28562899999947,
          "velocity": 0.7559055118110236,
          "duration": 0.10714274999999418
        },
        {
          "name": "C5",
          "midi": 72,
          "time": 85.28562899999947,
          "velocity": 0.7559055118110236,
          "duration": 0.10714274999999418
        },
        {
          "name": "C6",
          "midi": 84,
          "time": 85.28562899999947,
          "velocity": 0.7559055118110236,
          "duration": 0.10714274999999418
        },
        {
          "name": "C7",
          "midi": 96,
          "time": 85.28562899999947,
          "velocity": 0.7559055118110236,
          "duration": 0.10714274999999418
        },
        {
          "name": "C4",
          "midi": 60,
          "time": 85.49991449999946,
          "velocity": 0.7559055118110236,
          "duration": 0.10714274999999418
        },
        {
          "name": "C5",
          "midi": 72,
          "time": 85.49991449999946,
          "velocity": 0.7559055118110236,
          "duration": 0.10714274999999418
        },
        {
          "name": "C6",
          "midi": 84,
          "time": 85.49991449999946,
          "velocity": 0.7559055118110236,
          "duration": 0.10714274999999418
        },
        {
          "name": "C7",
          "midi": 96,
          "time": 85.49991449999946,
          "velocity": 0.7559055118110236,
          "duration": 0.10714274999999418
        },
        {
          "name": "D4",
          "midi": 62,
          "time": 85.71419999999945,
          "velocity": 0.7559055118110236,
          "duration": 0.10714274999999418
        },
        {
          "name": "D5",
          "midi": 74,
          "time": 85.71419999999945,
          "velocity": 0.7559055118110236,
          "duration": 0.10714274999999418
        },
        {
          "name": "D6",
          "midi": 86,
          "time": 85.71419999999945,
          "velocity": 0.7559055118110236,
          "duration": 0.10714274999999418
        },
        {
          "name": "D7",
          "midi": 98,
          "time": 85.71419999999945,
          "velocity": 0.7559055118110236,
          "duration": 0.10714274999999418
        },
        {
          "name": "C4",
          "midi": 60,
          "time": 85.92848549999944,
          "velocity": 0.7559055118110236,
          "duration": 0.10714274999999418
        },
        {
          "name": "C5",
          "midi": 72,
          "time": 85.92848549999944,
          "velocity": 0.7559055118110236,
          "duration": 0.10714274999999418
        },
        {
          "name": "C6",
          "midi": 84,
          "time": 85.92848549999944,
          "velocity": 0.7559055118110236,
          "duration": 0.10714274999999418
        },
        {
          "name": "C7",
          "midi": 96,
          "time": 85.92848549999944,
          "velocity": 0.7559055118110236,
          "duration": 0.10714274999999418
        },
        {
          "name": "C4",
          "midi": 60,
          "time": 86.14277099999943,
          "velocity": 0.7559055118110236,
          "duration": 0.10714274999999418
        },
        {
          "name": "C5",
          "midi": 72,
          "time": 86.14277099999943,
          "velocity": 0.7559055118110236,
          "duration": 0.10714274999999418
        },
        {
          "name": "C6",
          "midi": 84,
          "time": 86.14277099999943,
          "velocity": 0.7559055118110236,
          "duration": 0.10714274999999418
        },
        {
          "name": "C7",
          "midi": 96,
          "time": 86.14277099999943,
          "velocity": 0.7559055118110236,
          "duration": 0.10714274999999418
        },
        {
          "name": "C4",
          "midi": 60,
          "time": 86.57134199999942,
          "velocity": 0.7559055118110236,
          "duration": 0.10714274999999418
        },
        {
          "name": "C5",
          "midi": 72,
          "time": 86.57134199999942,
          "velocity": 0.7559055118110236,
          "duration": 0.10714274999999418
        },
        {
          "name": "C6",
          "midi": 84,
          "time": 86.57134199999942,
          "velocity": 0.7559055118110236,
          "duration": 0.10714274999999418
        },
        {
          "name": "C7",
          "midi": 96,
          "time": 86.57134199999942,
          "velocity": 0.7559055118110236,
          "duration": 0.10714274999999418
        },
        {
          "name": "C#4",
          "midi": 61,
          "time": 86.67848474999941,
          "velocity": 0.7559055118110236,
          "duration": 0.32142824999999675
        },
        {
          "name": "C#5",
          "midi": 73,
          "time": 86.67848474999941,
          "velocity": 0.7559055118110236,
          "duration": 0.32142824999999675
        },
        {
          "name": "C#6",
          "midi": 85,
          "time": 86.67848474999941,
          "velocity": 0.7559055118110236,
          "duration": 0.32142824999999675
        },
        {
          "name": "C#7",
          "midi": 97,
          "time": 86.67848474999941,
          "velocity": 0.7559055118110236,
          "duration": 0.32142824999999675
        },
        {
          "name": "C4",
          "midi": 60,
          "time": 86.99991299999941,
          "velocity": 0.7559055118110236,
          "duration": 0.10714274999999418
        },
        {
          "name": "C5",
          "midi": 72,
          "time": 86.99991299999941,
          "velocity": 0.7559055118110236,
          "duration": 0.10714274999999418
        },
        {
          "name": "C6",
          "midi": 84,
          "time": 86.99991299999941,
          "velocity": 0.7559055118110236,
          "duration": 0.10714274999999418
        },
        {
          "name": "C7",
          "midi": 96,
          "time": 86.99991299999941,
          "velocity": 0.7559055118110236,
          "duration": 0.10714274999999418
        },
        {
          "name": "C4",
          "midi": 60,
          "time": 87.2141984999994,
          "velocity": 0.7559055118110236,
          "duration": 0.10714274999999418
        },
        {
          "name": "C5",
          "midi": 72,
          "time": 87.2141984999994,
          "velocity": 0.7559055118110236,
          "duration": 0.10714274999999418
        },
        {
          "name": "C6",
          "midi": 84,
          "time": 87.2141984999994,
          "velocity": 0.7559055118110236,
          "duration": 0.10714274999999418
        },
        {
          "name": "C7",
          "midi": 96,
          "time": 87.2141984999994,
          "velocity": 0.7559055118110236,
          "duration": 0.10714274999999418
        },
        {
          "name": "C4",
          "midi": 60,
          "time": 87.64276949999939,
          "velocity": 0.7559055118110236,
          "duration": 0.10714274999999418
        },
        {
          "name": "C5",
          "midi": 72,
          "time": 87.64276949999939,
          "velocity": 0.7559055118110236,
          "duration": 0.10714274999999418
        },
        {
          "name": "C6",
          "midi": 84,
          "time": 87.64276949999939,
          "velocity": 0.7559055118110236,
          "duration": 0.10714274999999418
        },
        {
          "name": "C7",
          "midi": 96,
          "time": 87.64276949999939,
          "velocity": 0.7559055118110236,
          "duration": 0.10714274999999418
        },
        {
          "name": "C#4",
          "midi": 61,
          "time": 87.74991224999938,
          "velocity": 0.7559055118110236,
          "duration": 0.42857100000000514
        },
        {
          "name": "C#5",
          "midi": 73,
          "time": 87.74991224999938,
          "velocity": 0.7559055118110236,
          "duration": 0.42857100000000514
        },
        {
          "name": "C#6",
          "midi": 85,
          "time": 87.74991224999938,
          "velocity": 0.7559055118110236,
          "duration": 0.42857100000000514
        },
        {
          "name": "C#7",
          "midi": 97,
          "time": 87.74991224999938,
          "velocity": 0.7559055118110236,
          "duration": 0.42857100000000514
        },
        {
          "name": "C4",
          "midi": 60,
          "time": 88.28562599999938,
          "velocity": 0.7559055118110236,
          "duration": 0.10714274999999418
        },
        {
          "name": "C5",
          "midi": 72,
          "time": 88.28562599999938,
          "velocity": 0.7559055118110236,
          "duration": 0.10714274999999418
        },
        {
          "name": "C6",
          "midi": 84,
          "time": 88.28562599999938,
          "velocity": 0.7559055118110236,
          "duration": 0.10714274999999418
        },
        {
          "name": "C7",
          "midi": 96,
          "time": 88.28562599999938,
          "velocity": 0.7559055118110236,
          "duration": 0.10714274999999418
        },
        {
          "name": "C4",
          "midi": 60,
          "time": 88.49991149999937,
          "velocity": 0.7559055118110236,
          "duration": 0.10714274999999418
        },
        {
          "name": "C5",
          "midi": 72,
          "time": 88.49991149999937,
          "velocity": 0.7559055118110236,
          "duration": 0.10714274999999418
        },
        {
          "name": "C6",
          "midi": 84,
          "time": 88.49991149999937,
          "velocity": 0.7559055118110236,
          "duration": 0.10714274999999418
        },
        {
          "name": "C7",
          "midi": 96,
          "time": 88.49991149999937,
          "velocity": 0.7559055118110236,
          "duration": 0.10714274999999418
        },
        {
          "name": "C4",
          "midi": 60,
          "time": 88.71419699999936,
          "velocity": 0.7559055118110236,
          "duration": 0.10714274999999418
        },
        {
          "name": "C5",
          "midi": 72,
          "time": 88.71419699999936,
          "velocity": 0.7559055118110236,
          "duration": 0.10714274999999418
        },
        {
          "name": "C6",
          "midi": 84,
          "time": 88.71419699999936,
          "velocity": 0.7559055118110236,
          "duration": 0.10714274999999418
        },
        {
          "name": "C7",
          "midi": 96,
          "time": 88.71419699999936,
          "velocity": 0.7559055118110236,
          "duration": 0.10714274999999418
        },
        {
          "name": "C4",
          "midi": 60,
          "time": 88.92848249999935,
          "velocity": 0.7559055118110236,
          "duration": 0.10714274999999418
        },
        {
          "name": "C5",
          "midi": 72,
          "time": 88.92848249999935,
          "velocity": 0.7559055118110236,
          "duration": 0.10714274999999418
        },
        {
          "name": "C6",
          "midi": 84,
          "time": 88.92848249999935,
          "velocity": 0.7559055118110236,
          "duration": 0.10714274999999418
        },
        {
          "name": "C7",
          "midi": 96,
          "time": 88.92848249999935,
          "velocity": 0.7559055118110236,
          "duration": 0.10714274999999418
        },
        {
          "name": "D4",
          "midi": 62,
          "time": 89.14276799999934,
          "velocity": 0.7559055118110236,
          "duration": 0.10714274999999418
        },
        {
          "name": "D5",
          "midi": 74,
          "time": 89.14276799999934,
          "velocity": 0.7559055118110236,
          "duration": 0.10714274999999418
        },
        {
          "name": "D6",
          "midi": 86,
          "time": 89.14276799999934,
          "velocity": 0.7559055118110236,
          "duration": 0.10714274999999418
        },
        {
          "name": "D7",
          "midi": 98,
          "time": 89.14276799999934,
          "velocity": 0.7559055118110236,
          "duration": 0.10714274999999418
        },
        {
          "name": "C4",
          "midi": 60,
          "time": 89.35705349999932,
          "velocity": 0.7559055118110236,
          "duration": 0.10714274999999418
        },
        {
          "name": "C5",
          "midi": 72,
          "time": 89.35705349999932,
          "velocity": 0.7559055118110236,
          "duration": 0.10714274999999418
        },
        {
          "name": "C6",
          "midi": 84,
          "time": 89.35705349999932,
          "velocity": 0.7559055118110236,
          "duration": 0.10714274999999418
        },
        {
          "name": "C7",
          "midi": 96,
          "time": 89.35705349999932,
          "velocity": 0.7559055118110236,
          "duration": 0.10714274999999418
        },
        {
          "name": "C4",
          "midi": 60,
          "time": 89.57133899999931,
          "velocity": 0.7559055118110236,
          "duration": 0.10714274999999418
        },
        {
          "name": "C5",
          "midi": 72,
          "time": 89.57133899999931,
          "velocity": 0.7559055118110236,
          "duration": 0.10714274999999418
        },
        {
          "name": "C6",
          "midi": 84,
          "time": 89.57133899999931,
          "velocity": 0.7559055118110236,
          "duration": 0.10714274999999418
        },
        {
          "name": "C7",
          "midi": 96,
          "time": 89.57133899999931,
          "velocity": 0.7559055118110236,
          "duration": 0.10714274999999418
        },
        {
          "name": "C4",
          "midi": 60,
          "time": 89.9999099999993,
          "velocity": 0.7559055118110236,
          "duration": 0.10714274999999418
        },
        {
          "name": "C5",
          "midi": 72,
          "time": 89.9999099999993,
          "velocity": 0.7559055118110236,
          "duration": 0.10714274999999418
        },
        {
          "name": "C6",
          "midi": 84,
          "time": 89.9999099999993,
          "velocity": 0.7559055118110236,
          "duration": 0.10714274999999418
        },
        {
          "name": "C7",
          "midi": 96,
          "time": 89.9999099999993,
          "velocity": 0.7559055118110236,
          "duration": 0.10714274999999418
        },
        {
          "name": "C#4",
          "midi": 61,
          "time": 90.1070527499993,
          "velocity": 0.7559055118110236,
          "duration": 0.32142824999999675
        },
        {
          "name": "C#5",
          "midi": 73,
          "time": 90.1070527499993,
          "velocity": 0.7559055118110236,
          "duration": 0.32142824999999675
        },
        {
          "name": "C#6",
          "midi": 85,
          "time": 90.1070527499993,
          "velocity": 0.7559055118110236,
          "duration": 0.32142824999999675
        },
        {
          "name": "C#7",
          "midi": 97,
          "time": 90.1070527499993,
          "velocity": 0.7559055118110236,
          "duration": 0.32142824999999675
        },
        {
          "name": "C4",
          "midi": 60,
          "time": 90.4284809999993,
          "velocity": 0.7559055118110236,
          "duration": 0.10714274999999418
        },
        {
          "name": "C5",
          "midi": 72,
          "time": 90.4284809999993,
          "velocity": 0.7559055118110236,
          "duration": 0.10714274999999418
        },
        {
          "name": "C6",
          "midi": 84,
          "time": 90.4284809999993,
          "velocity": 0.7559055118110236,
          "duration": 0.10714274999999418
        },
        {
          "name": "C7",
          "midi": 96,
          "time": 90.4284809999993,
          "velocity": 0.7559055118110236,
          "duration": 0.10714274999999418
        },
        {
          "name": "C4",
          "midi": 60,
          "time": 90.64276649999928,
          "velocity": 0.7559055118110236,
          "duration": 0.10714274999999418
        },
        {
          "name": "C5",
          "midi": 72,
          "time": 90.64276649999928,
          "velocity": 0.7559055118110236,
          "duration": 0.10714274999999418
        },
        {
          "name": "C6",
          "midi": 84,
          "time": 90.64276649999928,
          "velocity": 0.7559055118110236,
          "duration": 0.10714274999999418
        },
        {
          "name": "C7",
          "midi": 96,
          "time": 90.64276649999928,
          "velocity": 0.7559055118110236,
          "duration": 0.10714274999999418
        },
        {
          "name": "C4",
          "midi": 60,
          "time": 91.07133749999927,
          "velocity": 0.7559055118110236,
          "duration": 0.10714274999999418
        },
        {
          "name": "C5",
          "midi": 72,
          "time": 91.07133749999927,
          "velocity": 0.7559055118110236,
          "duration": 0.10714274999999418
        },
        {
          "name": "C6",
          "midi": 84,
          "time": 91.07133749999927,
          "velocity": 0.7559055118110236,
          "duration": 0.10714274999999418
        },
        {
          "name": "C7",
          "midi": 96,
          "time": 91.07133749999927,
          "velocity": 0.7559055118110236,
          "duration": 0.10714274999999418
        },
        {
          "name": "C#4",
          "midi": 61,
          "time": 91.17848024999927,
          "velocity": 0.7559055118110236,
          "duration": 0.42857100000000514
        },
        {
          "name": "C#5",
          "midi": 73,
          "time": 91.17848024999927,
          "velocity": 0.7559055118110236,
          "duration": 0.42857100000000514
        },
        {
          "name": "C#6",
          "midi": 85,
          "time": 91.17848024999927,
          "velocity": 0.7559055118110236,
          "duration": 0.42857100000000514
        },
        {
          "name": "C#7",
          "midi": 97,
          "time": 91.17848024999927,
          "velocity": 0.7559055118110236,
          "duration": 0.42857100000000514
        },
        {
          "name": "C4",
          "midi": 60,
          "time": 91.71419399999927,
          "velocity": 0.7559055118110236,
          "duration": 0.10714274999999418
        },
        {
          "name": "C5",
          "midi": 72,
          "time": 91.71419399999927,
          "velocity": 0.7559055118110236,
          "duration": 0.10714274999999418
        },
        {
          "name": "C6",
          "midi": 84,
          "time": 91.71419399999927,
          "velocity": 0.7559055118110236,
          "duration": 0.10714274999999418
        },
        {
          "name": "C7",
          "midi": 96,
          "time": 91.71419399999927,
          "velocity": 0.7559055118110236,
          "duration": 0.10714274999999418
        },
        {
          "name": "C4",
          "midi": 60,
          "time": 91.92847949999926,
          "velocity": 0.7559055118110236,
          "duration": 0.10714274999999418
        },
        {
          "name": "C5",
          "midi": 72,
          "time": 91.92847949999926,
          "velocity": 0.7559055118110236,
          "duration": 0.10714274999999418
        },
        {
          "name": "C6",
          "midi": 84,
          "time": 91.92847949999926,
          "velocity": 0.7559055118110236,
          "duration": 0.10714274999999418
        },
        {
          "name": "C7",
          "midi": 96,
          "time": 91.92847949999926,
          "velocity": 0.7559055118110236,
          "duration": 0.10714274999999418
        },
        {
          "name": "C4",
          "midi": 60,
          "time": 92.14276499999924,
          "velocity": 0.7559055118110236,
          "duration": 0.10714274999999418
        },
        {
          "name": "C5",
          "midi": 72,
          "time": 92.14276499999924,
          "velocity": 0.7559055118110236,
          "duration": 0.10714274999999418
        },
        {
          "name": "C6",
          "midi": 84,
          "time": 92.14276499999924,
          "velocity": 0.7559055118110236,
          "duration": 0.10714274999999418
        },
        {
          "name": "C7",
          "midi": 96,
          "time": 92.14276499999924,
          "velocity": 0.7559055118110236,
          "duration": 0.10714274999999418
        },
        {
          "name": "C4",
          "midi": 60,
          "time": 92.35705049999923,
          "velocity": 0.7559055118110236,
          "duration": 0.10714274999999418
        },
        {
          "name": "C5",
          "midi": 72,
          "time": 92.35705049999923,
          "velocity": 0.7559055118110236,
          "duration": 0.10714274999999418
        },
        {
          "name": "C6",
          "midi": 84,
          "time": 92.35705049999923,
          "velocity": 0.7559055118110236,
          "duration": 0.10714274999999418
        },
        {
          "name": "C7",
          "midi": 96,
          "time": 92.35705049999923,
          "velocity": 0.7559055118110236,
          "duration": 0.10714274999999418
        },
        {
          "name": "D4",
          "midi": 62,
          "time": 92.57133599999922,
          "velocity": 0.7559055118110236,
          "duration": 0.10714274999999418
        },
        {
          "name": "D5",
          "midi": 74,
          "time": 92.57133599999922,
          "velocity": 0.7559055118110236,
          "duration": 0.10714274999999418
        },
        {
          "name": "D6",
          "midi": 86,
          "time": 92.57133599999922,
          "velocity": 0.7559055118110236,
          "duration": 0.10714274999999418
        },
        {
          "name": "D7",
          "midi": 98,
          "time": 92.57133599999922,
          "velocity": 0.7559055118110236,
          "duration": 0.10714274999999418
        },
        {
          "name": "C4",
          "midi": 60,
          "time": 92.78562149999921,
          "velocity": 0.7559055118110236,
          "duration": 0.10714274999999418
        },
        {
          "name": "C5",
          "midi": 72,
          "time": 92.78562149999921,
          "velocity": 0.7559055118110236,
          "duration": 0.10714274999999418
        },
        {
          "name": "C6",
          "midi": 84,
          "time": 92.78562149999921,
          "velocity": 0.7559055118110236,
          "duration": 0.10714274999999418
        },
        {
          "name": "C7",
          "midi": 96,
          "time": 92.78562149999921,
          "velocity": 0.7559055118110236,
          "duration": 0.10714274999999418
        },
        {
          "name": "C4",
          "midi": 60,
          "time": 92.9999069999992,
          "velocity": 0.7559055118110236,
          "duration": 0.10714274999999418
        },
        {
          "name": "C5",
          "midi": 72,
          "time": 92.9999069999992,
          "velocity": 0.7559055118110236,
          "duration": 0.10714274999999418
        },
        {
          "name": "C6",
          "midi": 84,
          "time": 92.9999069999992,
          "velocity": 0.7559055118110236,
          "duration": 0.10714274999999418
        },
        {
          "name": "C7",
          "midi": 96,
          "time": 92.9999069999992,
          "velocity": 0.7559055118110236,
          "duration": 0.10714274999999418
        },
        {
          "name": "C4",
          "midi": 60,
          "time": 93.42847799999919,
          "velocity": 0.7559055118110236,
          "duration": 0.10714274999999418
        },
        {
          "name": "C5",
          "midi": 72,
          "time": 93.42847799999919,
          "velocity": 0.7559055118110236,
          "duration": 0.10714274999999418
        },
        {
          "name": "C6",
          "midi": 84,
          "time": 93.42847799999919,
          "velocity": 0.7559055118110236,
          "duration": 0.10714274999999418
        },
        {
          "name": "C7",
          "midi": 96,
          "time": 93.42847799999919,
          "velocity": 0.7559055118110236,
          "duration": 0.10714274999999418
        },
        {
          "name": "C#4",
          "midi": 61,
          "time": 93.53562074999918,
          "velocity": 0.7559055118110236,
          "duration": 0.32142824999999675
        },
        {
          "name": "C#5",
          "midi": 73,
          "time": 93.53562074999918,
          "velocity": 0.7559055118110236,
          "duration": 0.32142824999999675
        },
        {
          "name": "C#6",
          "midi": 85,
          "time": 93.53562074999918,
          "velocity": 0.7559055118110236,
          "duration": 0.32142824999999675
        },
        {
          "name": "C#7",
          "midi": 97,
          "time": 93.53562074999918,
          "velocity": 0.7559055118110236,
          "duration": 0.32142824999999675
        },
        {
          "name": "C4",
          "midi": 60,
          "time": 93.85704899999918,
          "velocity": 0.7559055118110236,
          "duration": 0.10714274999999418
        },
        {
          "name": "C5",
          "midi": 72,
          "time": 93.85704899999918,
          "velocity": 0.7559055118110236,
          "duration": 0.10714274999999418
        },
        {
          "name": "C6",
          "midi": 84,
          "time": 93.85704899999918,
          "velocity": 0.7559055118110236,
          "duration": 0.10714274999999418
        },
        {
          "name": "C7",
          "midi": 96,
          "time": 93.85704899999918,
          "velocity": 0.7559055118110236,
          "duration": 0.10714274999999418
        },
        {
          "name": "C4",
          "midi": 60,
          "time": 94.07133449999917,
          "velocity": 0.7559055118110236,
          "duration": 0.10714274999999418
        },
        {
          "name": "C5",
          "midi": 72,
          "time": 94.07133449999917,
          "velocity": 0.7559055118110236,
          "duration": 0.10714274999999418
        },
        {
          "name": "C6",
          "midi": 84,
          "time": 94.07133449999917,
          "velocity": 0.7559055118110236,
          "duration": 0.10714274999999418
        },
        {
          "name": "C7",
          "midi": 96,
          "time": 94.07133449999917,
          "velocity": 0.7559055118110236,
          "duration": 0.10714274999999418
        },
        {
          "name": "C4",
          "midi": 60,
          "time": 94.49990549999916,
          "velocity": 0.7559055118110236,
          "duration": 0.10714274999999418
        },
        {
          "name": "C5",
          "midi": 72,
          "time": 94.49990549999916,
          "velocity": 0.7559055118110236,
          "duration": 0.10714274999999418
        },
        {
          "name": "C6",
          "midi": 84,
          "time": 94.49990549999916,
          "velocity": 0.7559055118110236,
          "duration": 0.10714274999999418
        },
        {
          "name": "C7",
          "midi": 96,
          "time": 94.49990549999916,
          "velocity": 0.7559055118110236,
          "duration": 0.10714274999999418
        },
        {
          "name": "C#4",
          "midi": 61,
          "time": 94.60704824999915,
          "velocity": 0.7559055118110236,
          "duration": 0.42857100000000514
        },
        {
          "name": "C#5",
          "midi": 73,
          "time": 94.60704824999915,
          "velocity": 0.7559055118110236,
          "duration": 0.42857100000000514
        },
        {
          "name": "C#6",
          "midi": 85,
          "time": 94.60704824999915,
          "velocity": 0.7559055118110236,
          "duration": 0.42857100000000514
        },
        {
          "name": "C#7",
          "midi": 97,
          "time": 94.60704824999915,
          "velocity": 0.7559055118110236,
          "duration": 0.42857100000000514
        },
        {
          "name": "C4",
          "midi": 60,
          "time": 95.14276199999915,
          "velocity": 0.7559055118110236,
          "duration": 0.10714274999999418
        },
        {
          "name": "C5",
          "midi": 72,
          "time": 95.14276199999915,
          "velocity": 0.7559055118110236,
          "duration": 0.10714274999999418
        },
        {
          "name": "C6",
          "midi": 84,
          "time": 95.14276199999915,
          "velocity": 0.7559055118110236,
          "duration": 0.10714274999999418
        },
        {
          "name": "C7",
          "midi": 96,
          "time": 95.14276199999915,
          "velocity": 0.7559055118110236,
          "duration": 0.10714274999999418
        },
        {
          "name": "C4",
          "midi": 60,
          "time": 95.35704749999914,
          "velocity": 0.7559055118110236,
          "duration": 0.10714274999999418
        },
        {
          "name": "C5",
          "midi": 72,
          "time": 95.35704749999914,
          "velocity": 0.7559055118110236,
          "duration": 0.10714274999999418
        },
        {
          "name": "C6",
          "midi": 84,
          "time": 95.35704749999914,
          "velocity": 0.7559055118110236,
          "duration": 0.10714274999999418
        },
        {
          "name": "C7",
          "midi": 96,
          "time": 95.35704749999914,
          "velocity": 0.7559055118110236,
          "duration": 0.10714274999999418
        },
        {
          "name": "C4",
          "midi": 60,
          "time": 95.57133299999913,
          "velocity": 0.7559055118110236,
          "duration": 0.10714274999999418
        },
        {
          "name": "C5",
          "midi": 72,
          "time": 95.57133299999913,
          "velocity": 0.7559055118110236,
          "duration": 0.10714274999999418
        },
        {
          "name": "C6",
          "midi": 84,
          "time": 95.57133299999913,
          "velocity": 0.7559055118110236,
          "duration": 0.10714274999999418
        },
        {
          "name": "C7",
          "midi": 96,
          "time": 95.57133299999913,
          "velocity": 0.7559055118110236,
          "duration": 0.10714274999999418
        },
        {
          "name": "C4",
          "midi": 60,
          "time": 95.78561849999912,
          "velocity": 0.7559055118110236,
          "duration": 0.10714274999999418
        },
        {
          "name": "C5",
          "midi": 72,
          "time": 95.78561849999912,
          "velocity": 0.7559055118110236,
          "duration": 0.10714274999999418
        },
        {
          "name": "C6",
          "midi": 84,
          "time": 95.78561849999912,
          "velocity": 0.7559055118110236,
          "duration": 0.10714274999999418
        },
        {
          "name": "C7",
          "midi": 96,
          "time": 95.78561849999912,
          "velocity": 0.7559055118110236,
          "duration": 0.10714274999999418
        },
        {
          "name": "D4",
          "midi": 62,
          "time": 95.9999039999991,
          "velocity": 0.7559055118110236,
          "duration": 0.10714274999999418
        },
        {
          "name": "D5",
          "midi": 74,
          "time": 95.9999039999991,
          "velocity": 0.7559055118110236,
          "duration": 0.10714274999999418
        },
        {
          "name": "D6",
          "midi": 86,
          "time": 95.9999039999991,
          "velocity": 0.7559055118110236,
          "duration": 0.10714274999999418
        },
        {
          "name": "D7",
          "midi": 98,
          "time": 95.9999039999991,
          "velocity": 0.7559055118110236,
          "duration": 0.10714274999999418
        },
        {
          "name": "C4",
          "midi": 60,
          "time": 96.2141894999991,
          "velocity": 0.7559055118110236,
          "duration": 0.10714274999999418
        },
        {
          "name": "C5",
          "midi": 72,
          "time": 96.2141894999991,
          "velocity": 0.7559055118110236,
          "duration": 0.10714274999999418
        },
        {
          "name": "C6",
          "midi": 84,
          "time": 96.2141894999991,
          "velocity": 0.7559055118110236,
          "duration": 0.10714274999999418
        },
        {
          "name": "C7",
          "midi": 96,
          "time": 96.2141894999991,
          "velocity": 0.7559055118110236,
          "duration": 0.10714274999999418
        },
        {
          "name": "C4",
          "midi": 60,
          "time": 96.42847499999908,
          "velocity": 0.7559055118110236,
          "duration": 0.10714274999999418
        },
        {
          "name": "C5",
          "midi": 72,
          "time": 96.42847499999908,
          "velocity": 0.7559055118110236,
          "duration": 0.10714274999999418
        },
        {
          "name": "C6",
          "midi": 84,
          "time": 96.42847499999908,
          "velocity": 0.7559055118110236,
          "duration": 0.10714274999999418
        },
        {
          "name": "C7",
          "midi": 96,
          "time": 96.42847499999908,
          "velocity": 0.7559055118110236,
          "duration": 0.10714274999999418
        },
        {
          "name": "C4",
          "midi": 60,
          "time": 96.85704599999907,
          "velocity": 0.7559055118110236,
          "duration": 0.10714274999999418
        },
        {
          "name": "C5",
          "midi": 72,
          "time": 96.85704599999907,
          "velocity": 0.7559055118110236,
          "duration": 0.10714274999999418
        },
        {
          "name": "C6",
          "midi": 84,
          "time": 96.85704599999907,
          "velocity": 0.7559055118110236,
          "duration": 0.10714274999999418
        },
        {
          "name": "C7",
          "midi": 96,
          "time": 96.85704599999907,
          "velocity": 0.7559055118110236,
          "duration": 0.10714274999999418
        },
        {
          "name": "C#4",
          "midi": 61,
          "time": 96.96418874999907,
          "velocity": 0.7559055118110236,
          "duration": 0.32142824999999675
        },
        {
          "name": "C#5",
          "midi": 73,
          "time": 96.96418874999907,
          "velocity": 0.7559055118110236,
          "duration": 0.32142824999999675
        },
        {
          "name": "C#6",
          "midi": 85,
          "time": 96.96418874999907,
          "velocity": 0.7559055118110236,
          "duration": 0.32142824999999675
        },
        {
          "name": "C#7",
          "midi": 97,
          "time": 96.96418874999907,
          "velocity": 0.7559055118110236,
          "duration": 0.32142824999999675
        },
        {
          "name": "C4",
          "midi": 60,
          "time": 97.28561699999906,
          "velocity": 0.7559055118110236,
          "duration": 0.10714274999999418
        },
        {
          "name": "C5",
          "midi": 72,
          "time": 97.28561699999906,
          "velocity": 0.7559055118110236,
          "duration": 0.10714274999999418
        },
        {
          "name": "C6",
          "midi": 84,
          "time": 97.28561699999906,
          "velocity": 0.7559055118110236,
          "duration": 0.10714274999999418
        },
        {
          "name": "C7",
          "midi": 96,
          "time": 97.28561699999906,
          "velocity": 0.7559055118110236,
          "duration": 0.10714274999999418
        },
        {
          "name": "C4",
          "midi": 60,
          "time": 97.49990249999905,
          "velocity": 0.7559055118110236,
          "duration": 0.10714274999999418
        },
        {
          "name": "C5",
          "midi": 72,
          "time": 97.49990249999905,
          "velocity": 0.7559055118110236,
          "duration": 0.10714274999999418
        },
        {
          "name": "C6",
          "midi": 84,
          "time": 97.49990249999905,
          "velocity": 0.7559055118110236,
          "duration": 0.10714274999999418
        },
        {
          "name": "C7",
          "midi": 96,
          "time": 97.49990249999905,
          "velocity": 0.7559055118110236,
          "duration": 0.10714274999999418
        },
        {
          "name": "C4",
          "midi": 60,
          "time": 97.92847349999904,
          "velocity": 0.7559055118110236,
          "duration": 0.10714274999999418
        },
        {
          "name": "C5",
          "midi": 72,
          "time": 97.92847349999904,
          "velocity": 0.7559055118110236,
          "duration": 0.10714274999999418
        },
        {
          "name": "C6",
          "midi": 84,
          "time": 97.92847349999904,
          "velocity": 0.7559055118110236,
          "duration": 0.10714274999999418
        },
        {
          "name": "C7",
          "midi": 96,
          "time": 97.92847349999904,
          "velocity": 0.7559055118110236,
          "duration": 0.10714274999999418
        },
        {
          "name": "C#4",
          "midi": 61,
          "time": 98.03561624999904,
          "velocity": 0.7559055118110236,
          "duration": 0.42857100000000514
        },
        {
          "name": "C#5",
          "midi": 73,
          "time": 98.03561624999904,
          "velocity": 0.7559055118110236,
          "duration": 0.42857100000000514
        },
        {
          "name": "C#6",
          "midi": 85,
          "time": 98.03561624999904,
          "velocity": 0.7559055118110236,
          "duration": 0.42857100000000514
        },
        {
          "name": "C#7",
          "midi": 97,
          "time": 98.03561624999904,
          "velocity": 0.7559055118110236,
          "duration": 0.42857100000000514
        },
        {
          "name": "C4",
          "midi": 60,
          "time": 98.57132999999904,
          "velocity": 0.7559055118110236,
          "duration": 0.10714274999999418
        },
        {
          "name": "C5",
          "midi": 72,
          "time": 98.57132999999904,
          "velocity": 0.7559055118110236,
          "duration": 0.10714274999999418
        },
        {
          "name": "C6",
          "midi": 84,
          "time": 98.57132999999904,
          "velocity": 0.7559055118110236,
          "duration": 0.10714274999999418
        },
        {
          "name": "C7",
          "midi": 96,
          "time": 98.57132999999904,
          "velocity": 0.7559055118110236,
          "duration": 0.10714274999999418
        },
        {
          "name": "C4",
          "midi": 60,
          "time": 98.78561549999903,
          "velocity": 0.7559055118110236,
          "duration": 0.10714274999999418
        },
        {
          "name": "C5",
          "midi": 72,
          "time": 98.78561549999903,
          "velocity": 0.7559055118110236,
          "duration": 0.10714274999999418
        },
        {
          "name": "C6",
          "midi": 84,
          "time": 98.78561549999903,
          "velocity": 0.7559055118110236,
          "duration": 0.10714274999999418
        },
        {
          "name": "C7",
          "midi": 96,
          "time": 98.78561549999903,
          "velocity": 0.7559055118110236,
          "duration": 0.10714274999999418
        },
        {
          "name": "C4",
          "midi": 60,
          "time": 98.99990099999901,
          "velocity": 0.7559055118110236,
          "duration": 0.10714274999999418
        },
        {
          "name": "C5",
          "midi": 72,
          "time": 98.99990099999901,
          "velocity": 0.7559055118110236,
          "duration": 0.10714274999999418
        },
        {
          "name": "C6",
          "midi": 84,
          "time": 98.99990099999901,
          "velocity": 0.7559055118110236,
          "duration": 0.10714274999999418
        },
        {
          "name": "C7",
          "midi": 96,
          "time": 98.99990099999901,
          "velocity": 0.7559055118110236,
          "duration": 0.10714274999999418
        },
        {
          "name": "C4",
          "midi": 60,
          "time": 99.214186499999,
          "velocity": 0.7559055118110236,
          "duration": 0.10714274999999418
        },
        {
          "name": "C5",
          "midi": 72,
          "time": 99.214186499999,
          "velocity": 0.7559055118110236,
          "duration": 0.10714274999999418
        },
        {
          "name": "C6",
          "midi": 84,
          "time": 99.214186499999,
          "velocity": 0.7559055118110236,
          "duration": 0.10714274999999418
        },
        {
          "name": "C7",
          "midi": 96,
          "time": 99.214186499999,
          "velocity": 0.7559055118110236,
          "duration": 0.10714274999999418
        },
        {
          "name": "D4",
          "midi": 62,
          "time": 99.42847199999899,
          "velocity": 0.7559055118110236,
          "duration": 0.10714274999999418
        },
        {
          "name": "D5",
          "midi": 74,
          "time": 99.42847199999899,
          "velocity": 0.7559055118110236,
          "duration": 0.10714274999999418
        },
        {
          "name": "D6",
          "midi": 86,
          "time": 99.42847199999899,
          "velocity": 0.7559055118110236,
          "duration": 0.10714274999999418
        },
        {
          "name": "D7",
          "midi": 98,
          "time": 99.42847199999899,
          "velocity": 0.7559055118110236,
          "duration": 0.10714274999999418
        },
        {
          "name": "C4",
          "midi": 60,
          "time": 99.64275749999898,
          "velocity": 0.7559055118110236,
          "duration": 0.10714274999999418
        },
        {
          "name": "C5",
          "midi": 72,
          "time": 99.64275749999898,
          "velocity": 0.7559055118110236,
          "duration": 0.10714274999999418
        },
        {
          "name": "C6",
          "midi": 84,
          "time": 99.64275749999898,
          "velocity": 0.7559055118110236,
          "duration": 0.10714274999999418
        },
        {
          "name": "C7",
          "midi": 96,
          "time": 99.64275749999898,
          "velocity": 0.7559055118110236,
          "duration": 0.10714274999999418
        },
        {
          "name": "C4",
          "midi": 60,
          "time": 99.85704299999897,
          "velocity": 0.7559055118110236,
          "duration": 0.10714274999999418
        },
        {
          "name": "C5",
          "midi": 72,
          "time": 99.85704299999897,
          "velocity": 0.7559055118110236,
          "duration": 0.10714274999999418
        },
        {
          "name": "C6",
          "midi": 84,
          "time": 99.85704299999897,
          "velocity": 0.7559055118110236,
          "duration": 0.10714274999999418
        },
        {
          "name": "C7",
          "midi": 96,
          "time": 99.85704299999897,
          "velocity": 0.7559055118110236,
          "duration": 0.10714274999999418
        },
        {
          "name": "C4",
          "midi": 60,
          "time": 100.28561399999896,
          "velocity": 0.7559055118110236,
          "duration": 0.10714274999999418
        },
        {
          "name": "C5",
          "midi": 72,
          "time": 100.28561399999896,
          "velocity": 0.7559055118110236,
          "duration": 0.10714274999999418
        },
        {
          "name": "C6",
          "midi": 84,
          "time": 100.28561399999896,
          "velocity": 0.7559055118110236,
          "duration": 0.10714274999999418
        },
        {
          "name": "C7",
          "midi": 96,
          "time": 100.28561399999896,
          "velocity": 0.7559055118110236,
          "duration": 0.10714274999999418
        },
        {
          "name": "C#4",
          "midi": 61,
          "time": 100.39275674999895,
          "velocity": 0.7559055118110236,
          "duration": 0.32142824999999675
        },
        {
          "name": "C#5",
          "midi": 73,
          "time": 100.39275674999895,
          "velocity": 0.7559055118110236,
          "duration": 0.32142824999999675
        },
        {
          "name": "C#6",
          "midi": 85,
          "time": 100.39275674999895,
          "velocity": 0.7559055118110236,
          "duration": 0.32142824999999675
        },
        {
          "name": "C#7",
          "midi": 97,
          "time": 100.39275674999895,
          "velocity": 0.7559055118110236,
          "duration": 0.32142824999999675
        },
        {
          "name": "C4",
          "midi": 60,
          "time": 100.71418499999895,
          "velocity": 0.7559055118110236,
          "duration": 0.10714274999999418
        },
        {
          "name": "C5",
          "midi": 72,
          "time": 100.71418499999895,
          "velocity": 0.7559055118110236,
          "duration": 0.10714274999999418
        },
        {
          "name": "C6",
          "midi": 84,
          "time": 100.71418499999895,
          "velocity": 0.7559055118110236,
          "duration": 0.10714274999999418
        },
        {
          "name": "C7",
          "midi": 96,
          "time": 100.71418499999895,
          "velocity": 0.7559055118110236,
          "duration": 0.10714274999999418
        },
        {
          "name": "C4",
          "midi": 60,
          "time": 100.92847049999894,
          "velocity": 0.7559055118110236,
          "duration": 0.10714274999999418
        },
        {
          "name": "C5",
          "midi": 72,
          "time": 100.92847049999894,
          "velocity": 0.7559055118110236,
          "duration": 0.10714274999999418
        },
        {
          "name": "C6",
          "midi": 84,
          "time": 100.92847049999894,
          "velocity": 0.7559055118110236,
          "duration": 0.10714274999999418
        },
        {
          "name": "C7",
          "midi": 96,
          "time": 100.92847049999894,
          "velocity": 0.7559055118110236,
          "duration": 0.10714274999999418
        },
        {
          "name": "C4",
          "midi": 60,
          "time": 101.35704149999893,
          "velocity": 0.7559055118110236,
          "duration": 0.10714274999999418
        },
        {
          "name": "C5",
          "midi": 72,
          "time": 101.35704149999893,
          "velocity": 0.7559055118110236,
          "duration": 0.10714274999999418
        },
        {
          "name": "C6",
          "midi": 84,
          "time": 101.35704149999893,
          "velocity": 0.7559055118110236,
          "duration": 0.10714274999999418
        },
        {
          "name": "C7",
          "midi": 96,
          "time": 101.35704149999893,
          "velocity": 0.7559055118110236,
          "duration": 0.10714274999999418
        },
        {
          "name": "C#4",
          "midi": 61,
          "time": 101.46418424999892,
          "velocity": 0.7559055118110236,
          "duration": 0.42857100000000514
        },
        {
          "name": "C#5",
          "midi": 73,
          "time": 101.46418424999892,
          "velocity": 0.7559055118110236,
          "duration": 0.42857100000000514
        },
        {
          "name": "C#6",
          "midi": 85,
          "time": 101.46418424999892,
          "velocity": 0.7559055118110236,
          "duration": 0.42857100000000514
        },
        {
          "name": "C#7",
          "midi": 97,
          "time": 101.46418424999892,
          "velocity": 0.7559055118110236,
          "duration": 0.42857100000000514
        },
        {
          "name": "C4",
          "midi": 60,
          "time": 101.99989799999892,
          "velocity": 0.7559055118110236,
          "duration": 0.10714274999999418
        },
        {
          "name": "C5",
          "midi": 72,
          "time": 101.99989799999892,
          "velocity": 0.7559055118110236,
          "duration": 0.10714274999999418
        },
        {
          "name": "C6",
          "midi": 84,
          "time": 101.99989799999892,
          "velocity": 0.7559055118110236,
          "duration": 0.10714274999999418
        },
        {
          "name": "C7",
          "midi": 96,
          "time": 101.99989799999892,
          "velocity": 0.7559055118110236,
          "duration": 0.10714274999999418
        },
        {
          "name": "C4",
          "midi": 60,
          "time": 102.21418349999891,
          "velocity": 0.7559055118110236,
          "duration": 0.10714274999999418
        },
        {
          "name": "C5",
          "midi": 72,
          "time": 102.21418349999891,
          "velocity": 0.7559055118110236,
          "duration": 0.10714274999999418
        },
        {
          "name": "C6",
          "midi": 84,
          "time": 102.21418349999891,
          "velocity": 0.7559055118110236,
          "duration": 0.10714274999999418
        },
        {
          "name": "C7",
          "midi": 96,
          "time": 102.21418349999891,
          "velocity": 0.7559055118110236,
          "duration": 0.10714274999999418
        },
        {
          "name": "C4",
          "midi": 60,
          "time": 102.4284689999989,
          "velocity": 0.7559055118110236,
          "duration": 0.10714274999999418
        },
        {
          "name": "C5",
          "midi": 72,
          "time": 102.4284689999989,
          "velocity": 0.7559055118110236,
          "duration": 0.10714274999999418
        },
        {
          "name": "C6",
          "midi": 84,
          "time": 102.4284689999989,
          "velocity": 0.7559055118110236,
          "duration": 0.10714274999999418
        },
        {
          "name": "C7",
          "midi": 96,
          "time": 102.4284689999989,
          "velocity": 0.7559055118110236,
          "duration": 0.10714274999999418
        },
        {
          "name": "C4",
          "midi": 60,
          "time": 102.64275449999889,
          "velocity": 0.7559055118110236,
          "duration": 0.10714274999999418
        },
        {
          "name": "C5",
          "midi": 72,
          "time": 102.64275449999889,
          "velocity": 0.7559055118110236,
          "duration": 0.10714274999999418
        },
        {
          "name": "C6",
          "midi": 84,
          "time": 102.64275449999889,
          "velocity": 0.7559055118110236,
          "duration": 0.10714274999999418
        },
        {
          "name": "C7",
          "midi": 96,
          "time": 102.64275449999889,
          "velocity": 0.7559055118110236,
          "duration": 0.10714274999999418
        },
        {
          "name": "D4",
          "midi": 62,
          "time": 102.85703999999888,
          "velocity": 0.7559055118110236,
          "duration": 0.10714274999999418
        },
        {
          "name": "D5",
          "midi": 74,
          "time": 102.85703999999888,
          "velocity": 0.7559055118110236,
          "duration": 0.10714274999999418
        },
        {
          "name": "D6",
          "midi": 86,
          "time": 102.85703999999888,
          "velocity": 0.7559055118110236,
          "duration": 0.10714274999999418
        },
        {
          "name": "D7",
          "midi": 98,
          "time": 102.85703999999888,
          "velocity": 0.7559055118110236,
          "duration": 0.10714274999999418
        },
        {
          "name": "C4",
          "midi": 60,
          "time": 103.07132549999886,
          "velocity": 0.7559055118110236,
          "duration": 0.10714274999999418
        },
        {
          "name": "C5",
          "midi": 72,
          "time": 103.07132549999886,
          "velocity": 0.7559055118110236,
          "duration": 0.10714274999999418
        },
        {
          "name": "C6",
          "midi": 84,
          "time": 103.07132549999886,
          "velocity": 0.7559055118110236,
          "duration": 0.10714274999999418
        },
        {
          "name": "C7",
          "midi": 96,
          "time": 103.07132549999886,
          "velocity": 0.7559055118110236,
          "duration": 0.10714274999999418
        },
        {
          "name": "C4",
          "midi": 60,
          "time": 103.28561099999885,
          "velocity": 0.7559055118110236,
          "duration": 0.10714274999999418
        },
        {
          "name": "C5",
          "midi": 72,
          "time": 103.28561099999885,
          "velocity": 0.7559055118110236,
          "duration": 0.10714274999999418
        },
        {
          "name": "C6",
          "midi": 84,
          "time": 103.28561099999885,
          "velocity": 0.7559055118110236,
          "duration": 0.10714274999999418
        },
        {
          "name": "C7",
          "midi": 96,
          "time": 103.28561099999885,
          "velocity": 0.7559055118110236,
          "duration": 0.10714274999999418
        },
        {
          "name": "C4",
          "midi": 60,
          "time": 103.71418199999884,
          "velocity": 0.7559055118110236,
          "duration": 0.10714274999999418
        },
        {
          "name": "C5",
          "midi": 72,
          "time": 103.71418199999884,
          "velocity": 0.7559055118110236,
          "duration": 0.10714274999999418
        },
        {
          "name": "C6",
          "midi": 84,
          "time": 103.71418199999884,
          "velocity": 0.7559055118110236,
          "duration": 0.10714274999999418
        },
        {
          "name": "C7",
          "midi": 96,
          "time": 103.71418199999884,
          "velocity": 0.7559055118110236,
          "duration": 0.10714274999999418
        },
        {
          "name": "C#4",
          "midi": 61,
          "time": 103.82132474999884,
          "velocity": 0.7559055118110236,
          "duration": 0.32142824999999675
        },
        {
          "name": "C#5",
          "midi": 73,
          "time": 103.82132474999884,
          "velocity": 0.7559055118110236,
          "duration": 0.32142824999999675
        },
        {
          "name": "C#6",
          "midi": 85,
          "time": 103.82132474999884,
          "velocity": 0.7559055118110236,
          "duration": 0.32142824999999675
        },
        {
          "name": "C#7",
          "midi": 97,
          "time": 103.82132474999884,
          "velocity": 0.7559055118110236,
          "duration": 0.32142824999999675
        },
        {
          "name": "C4",
          "midi": 60,
          "time": 104.14275299999883,
          "velocity": 0.7559055118110236,
          "duration": 0.10714274999999418
        },
        {
          "name": "C5",
          "midi": 72,
          "time": 104.14275299999883,
          "velocity": 0.7559055118110236,
          "duration": 0.10714274999999418
        },
        {
          "name": "C6",
          "midi": 84,
          "time": 104.14275299999883,
          "velocity": 0.7559055118110236,
          "duration": 0.10714274999999418
        },
        {
          "name": "C7",
          "midi": 96,
          "time": 104.14275299999883,
          "velocity": 0.7559055118110236,
          "duration": 0.10714274999999418
        },
        {
          "name": "C4",
          "midi": 60,
          "time": 104.35703849999882,
          "velocity": 0.7559055118110236,
          "duration": 0.10714274999999418
        },
        {
          "name": "C5",
          "midi": 72,
          "time": 104.35703849999882,
          "velocity": 0.7559055118110236,
          "duration": 0.10714274999999418
        },
        {
          "name": "C6",
          "midi": 84,
          "time": 104.35703849999882,
          "velocity": 0.7559055118110236,
          "duration": 0.10714274999999418
        },
        {
          "name": "C7",
          "midi": 96,
          "time": 104.35703849999882,
          "velocity": 0.7559055118110236,
          "duration": 0.10714274999999418
        },
        {
          "name": "C4",
          "midi": 60,
          "time": 104.78560949999881,
          "velocity": 0.7559055118110236,
          "duration": 0.10714274999999418
        },
        {
          "name": "C5",
          "midi": 72,
          "time": 104.78560949999881,
          "velocity": 0.7559055118110236,
          "duration": 0.10714274999999418
        },
        {
          "name": "C6",
          "midi": 84,
          "time": 104.78560949999881,
          "velocity": 0.7559055118110236,
          "duration": 0.10714274999999418
        },
        {
          "name": "C7",
          "midi": 96,
          "time": 104.78560949999881,
          "velocity": 0.7559055118110236,
          "duration": 0.10714274999999418
        },
        {
          "name": "C#4",
          "midi": 61,
          "time": 104.89275224999881,
          "velocity": 0.7559055118110236,
          "duration": 0.42857100000000514
        },
        {
          "name": "C#5",
          "midi": 73,
          "time": 104.89275224999881,
          "velocity": 0.7559055118110236,
          "duration": 0.42857100000000514
        },
        {
          "name": "C#6",
          "midi": 85,
          "time": 104.89275224999881,
          "velocity": 0.7559055118110236,
          "duration": 0.42857100000000514
        },
        {
          "name": "C#7",
          "midi": 97,
          "time": 104.89275224999881,
          "velocity": 0.7559055118110236,
          "duration": 0.42857100000000514
        },
        {
          "name": "C4",
          "midi": 60,
          "time": 105.4284659999988,
          "velocity": 0.7559055118110236,
          "duration": 0.10714274999999418
        },
        {
          "name": "C5",
          "midi": 72,
          "time": 105.4284659999988,
          "velocity": 0.7559055118110236,
          "duration": 0.10714274999999418
        },
        {
          "name": "C6",
          "midi": 84,
          "time": 105.4284659999988,
          "velocity": 0.7559055118110236,
          "duration": 0.10714274999999418
        },
        {
          "name": "C7",
          "midi": 96,
          "time": 105.4284659999988,
          "velocity": 0.7559055118110236,
          "duration": 0.10714274999999418
        },
        {
          "name": "C4",
          "midi": 60,
          "time": 105.6427514999988,
          "velocity": 0.7559055118110236,
          "duration": 0.10714274999999418
        },
        {
          "name": "C5",
          "midi": 72,
          "time": 105.6427514999988,
          "velocity": 0.7559055118110236,
          "duration": 0.10714274999999418
        },
        {
          "name": "C6",
          "midi": 84,
          "time": 105.6427514999988,
          "velocity": 0.7559055118110236,
          "duration": 0.10714274999999418
        },
        {
          "name": "C7",
          "midi": 96,
          "time": 105.6427514999988,
          "velocity": 0.7559055118110236,
          "duration": 0.10714274999999418
        },
        {
          "name": "C4",
          "midi": 60,
          "time": 105.85703699999878,
          "velocity": 0.7559055118110236,
          "duration": 0.10714274999999418
        },
        {
          "name": "C5",
          "midi": 72,
          "time": 105.85703699999878,
          "velocity": 0.7559055118110236,
          "duration": 0.10714274999999418
        },
        {
          "name": "C6",
          "midi": 84,
          "time": 105.85703699999878,
          "velocity": 0.7559055118110236,
          "duration": 0.10714274999999418
        },
        {
          "name": "C7",
          "midi": 96,
          "time": 105.85703699999878,
          "velocity": 0.7559055118110236,
          "duration": 0.10714274999999418
        },
        {
          "name": "C4",
          "midi": 60,
          "time": 106.07132249999877,
          "velocity": 0.7559055118110236,
          "duration": 0.10714274999999418
        },
        {
          "name": "C5",
          "midi": 72,
          "time": 106.07132249999877,
          "velocity": 0.7559055118110236,
          "duration": 0.10714274999999418
        },
        {
          "name": "C6",
          "midi": 84,
          "time": 106.07132249999877,
          "velocity": 0.7559055118110236,
          "duration": 0.10714274999999418
        },
        {
          "name": "C7",
          "midi": 96,
          "time": 106.07132249999877,
          "velocity": 0.7559055118110236,
          "duration": 0.10714274999999418
        },
        {
          "name": "D4",
          "midi": 62,
          "time": 106.28560799999876,
          "velocity": 0.7559055118110236,
          "duration": 0.10714274999999418
        },
        {
          "name": "D5",
          "midi": 74,
          "time": 106.28560799999876,
          "velocity": 0.7559055118110236,
          "duration": 0.10714274999999418
        },
        {
          "name": "D6",
          "midi": 86,
          "time": 106.28560799999876,
          "velocity": 0.7559055118110236,
          "duration": 0.10714274999999418
        },
        {
          "name": "D7",
          "midi": 98,
          "time": 106.28560799999876,
          "velocity": 0.7559055118110236,
          "duration": 0.10714274999999418
        },
        {
          "name": "C4",
          "midi": 60,
          "time": 106.49989349999875,
          "velocity": 0.7559055118110236,
          "duration": 0.10714274999999418
        },
        {
          "name": "C5",
          "midi": 72,
          "time": 106.49989349999875,
          "velocity": 0.7559055118110236,
          "duration": 0.10714274999999418
        },
        {
          "name": "C6",
          "midi": 84,
          "time": 106.49989349999875,
          "velocity": 0.7559055118110236,
          "duration": 0.10714274999999418
        },
        {
          "name": "C7",
          "midi": 96,
          "time": 106.49989349999875,
          "velocity": 0.7559055118110236,
          "duration": 0.10714274999999418
        },
        {
          "name": "C4",
          "midi": 60,
          "time": 106.71417899999874,
          "velocity": 0.7559055118110236,
          "duration": 0.10714274999999418
        },
        {
          "name": "C5",
          "midi": 72,
          "time": 106.71417899999874,
          "velocity": 0.7559055118110236,
          "duration": 0.10714274999999418
        },
        {
          "name": "C6",
          "midi": 84,
          "time": 106.71417899999874,
          "velocity": 0.7559055118110236,
          "duration": 0.10714274999999418
        },
        {
          "name": "C7",
          "midi": 96,
          "time": 106.71417899999874,
          "velocity": 0.7559055118110236,
          "duration": 0.10714274999999418
        },
        {
          "name": "C4",
          "midi": 60,
          "time": 107.14274999999873,
          "velocity": 0.7559055118110236,
          "duration": 0.10714274999999418
        },
        {
          "name": "C5",
          "midi": 72,
          "time": 107.14274999999873,
          "velocity": 0.7559055118110236,
          "duration": 0.10714274999999418
        },
        {
          "name": "C6",
          "midi": 84,
          "time": 107.14274999999873,
          "velocity": 0.7559055118110236,
          "duration": 0.10714274999999418
        },
        {
          "name": "C7",
          "midi": 96,
          "time": 107.14274999999873,
          "velocity": 0.7559055118110236,
          "duration": 0.10714274999999418
        },
        {
          "name": "C4",
          "midi": 60,
          "time": 107.57132099999872,
          "velocity": 0.7559055118110236,
          "duration": 0.10714274999999418
        },
        {
          "name": "C5",
          "midi": 72,
          "time": 107.57132099999872,
          "velocity": 0.7559055118110236,
          "duration": 0.10714274999999418
        },
        {
          "name": "C6",
          "midi": 84,
          "time": 107.57132099999872,
          "velocity": 0.7559055118110236,
          "duration": 0.10714274999999418
        },
        {
          "name": "C7",
          "midi": 96,
          "time": 107.57132099999872,
          "velocity": 0.7559055118110236,
          "duration": 0.10714274999999418
        },
        {
          "name": "C4",
          "midi": 60,
          "time": 107.67846374999871,
          "velocity": 0.7559055118110236,
          "duration": 0.10714274999999418
        },
        {
          "name": "C5",
          "midi": 72,
          "time": 107.67846374999871,
          "velocity": 0.7559055118110236,
          "duration": 0.10714274999999418
        },
        {
          "name": "C6",
          "midi": 84,
          "time": 107.67846374999871,
          "velocity": 0.7559055118110236,
          "duration": 0.10714274999999418
        },
        {
          "name": "C7",
          "midi": 96,
          "time": 107.67846374999871,
          "velocity": 0.7559055118110236,
          "duration": 0.10714274999999418
        },
        {
          "name": "C4",
          "midi": 60,
          "time": 107.7856064999987,
          "velocity": 0.7559055118110236,
          "duration": 0.10714274999999418
        },
        {
          "name": "C5",
          "midi": 72,
          "time": 107.7856064999987,
          "velocity": 0.7559055118110236,
          "duration": 0.10714274999999418
        },
        {
          "name": "C6",
          "midi": 84,
          "time": 107.7856064999987,
          "velocity": 0.7559055118110236,
          "duration": 0.10714274999999418
        },
        {
          "name": "C7",
          "midi": 96,
          "time": 107.7856064999987,
          "velocity": 0.7559055118110236,
          "duration": 0.10714274999999418
        },
        {
          "name": "C4",
          "midi": 60,
          "time": 107.8927492499987,
          "velocity": 0.7559055118110236,
          "duration": 0.10714274999999418
        },
        {
          "name": "C5",
          "midi": 72,
          "time": 107.8927492499987,
          "velocity": 0.7559055118110236,
          "duration": 0.10714274999999418
        },
        {
          "name": "C6",
          "midi": 84,
          "time": 107.8927492499987,
          "velocity": 0.7559055118110236,
          "duration": 0.10714274999999418
        },
        {
          "name": "C7",
          "midi": 96,
          "time": 107.8927492499987,
          "velocity": 0.7559055118110236,
          "duration": 0.10714274999999418
        },
        {
          "name": "C4",
          "midi": 60,
          "time": 109.7141759999987,
          "velocity": 0.7559055118110236,
          "duration": 0.42857100000000514
        },
        {
          "name": "C5",
          "midi": 72,
          "time": 109.7141759999987,
          "velocity": 0.7559055118110236,
          "duration": 0.42857100000000514
        },
        {
          "name": "C6",
          "midi": 84,
          "time": 109.7141759999987,
          "velocity": 0.7559055118110236,
          "duration": 0.42857100000000514
        },
        {
          "name": "C7",
          "midi": 96,
          "time": 109.7141759999987,
          "velocity": 0.7559055118110236,
          "duration": 0.42857100000000514
        },
        {
          "name": "C4",
          "midi": 60,
          "time": 110.1427469999987,
          "velocity": 0.7559055118110236,
          "duration": 0.32142824999999675
        },
        {
          "name": "C5",
          "midi": 72,
          "time": 110.1427469999987,
          "velocity": 0.7559055118110236,
          "duration": 0.32142824999999675
        },
        {
          "name": "C6",
          "midi": 84,
          "time": 110.1427469999987,
          "velocity": 0.7559055118110236,
          "duration": 0.32142824999999675
        },
        {
          "name": "C7",
          "midi": 96,
          "time": 110.1427469999987,
          "velocity": 0.7559055118110236,
          "duration": 0.32142824999999675
        },
        {
          "name": "C4",
          "midi": 60,
          "time": 110.4641752499987,
          "velocity": 0.7559055118110236,
          "duration": 0.10714274999999418
        },
        {
          "name": "C5",
          "midi": 72,
          "time": 110.4641752499987,
          "velocity": 0.7559055118110236,
          "duration": 0.10714274999999418
        },
        {
          "name": "C6",
          "midi": 84,
          "time": 110.4641752499987,
          "velocity": 0.7559055118110236,
          "duration": 0.10714274999999418
        },
        {
          "name": "C7",
          "midi": 96,
          "time": 110.4641752499987,
          "velocity": 0.7559055118110236,
          "duration": 0.10714274999999418
        },
        {
          "name": "D4",
          "midi": 62,
          "time": 110.5713179999987,
          "velocity": 0.7559055118110236,
          "duration": 0.42857100000000514
        },
        {
          "name": "F4",
          "midi": 65,
          "time": 110.5713179999987,
          "velocity": 0.7559055118110236,
          "duration": 0.42857100000000514
        },
        {
          "name": "D5",
          "midi": 74,
          "time": 110.5713179999987,
          "velocity": 0.7559055118110236,
          "duration": 0.42857100000000514
        },
        {
          "name": "F5",
          "midi": 77,
          "time": 110.5713179999987,
          "velocity": 0.7559055118110236,
          "duration": 0.42857100000000514
        },
        {
          "name": "D6",
          "midi": 86,
          "time": 110.5713179999987,
          "velocity": 0.7559055118110236,
          "duration": 0.42857100000000514
        },
        {
          "name": "F6",
          "midi": 89,
          "time": 110.5713179999987,
          "velocity": 0.7559055118110236,
          "duration": 0.42857100000000514
        },
        {
          "name": "D7",
          "midi": 98,
          "time": 110.5713179999987,
          "velocity": 0.7559055118110236,
          "duration": 0.42857100000000514
        },
        {
          "name": "F7",
          "midi": 101,
          "time": 110.5713179999987,
          "velocity": 0.7559055118110236,
          "duration": 0.42857100000000514
        },
        {
          "name": "C4",
          "midi": 60,
          "time": 111.1070317499987,
          "velocity": 0.7559055118110236,
          "duration": 0.10714274999999418
        },
        {
          "name": "C5",
          "midi": 72,
          "time": 111.1070317499987,
          "velocity": 0.7559055118110236,
          "duration": 0.10714274999999418
        },
        {
          "name": "C6",
          "midi": 84,
          "time": 111.1070317499987,
          "velocity": 0.7559055118110236,
          "duration": 0.10714274999999418
        },
        {
          "name": "C7",
          "midi": 96,
          "time": 111.1070317499987,
          "velocity": 0.7559055118110236,
          "duration": 0.10714274999999418
        },
        {
          "name": "C4",
          "midi": 60,
          "time": 111.21417449999869,
          "velocity": 0.7559055118110236,
          "duration": 0.10714274999999418
        },
        {
          "name": "C5",
          "midi": 72,
          "time": 111.21417449999869,
          "velocity": 0.7559055118110236,
          "duration": 0.10714274999999418
        },
        {
          "name": "C6",
          "midi": 84,
          "time": 111.21417449999869,
          "velocity": 0.7559055118110236,
          "duration": 0.10714274999999418
        },
        {
          "name": "C7",
          "midi": 96,
          "time": 111.21417449999869,
          "velocity": 0.7559055118110236,
          "duration": 0.10714274999999418
        },
        {
          "name": "C4",
          "midi": 60,
          "time": 111.42845999999868,
          "velocity": 0.7559055118110236,
          "duration": 0.10714274999999418
        },
        {
          "name": "C5",
          "midi": 72,
          "time": 111.42845999999868,
          "velocity": 0.7559055118110236,
          "duration": 0.10714274999999418
        },
        {
          "name": "C6",
          "midi": 84,
          "time": 111.42845999999868,
          "velocity": 0.7559055118110236,
          "duration": 0.10714274999999418
        },
        {
          "name": "C7",
          "midi": 96,
          "time": 111.42845999999868,
          "velocity": 0.7559055118110236,
          "duration": 0.10714274999999418
        },
        {
          "name": "C4",
          "midi": 60,
          "time": 111.64274549999867,
          "velocity": 0.7559055118110236,
          "duration": 0.10714274999999418
        },
        {
          "name": "C5",
          "midi": 72,
          "time": 111.64274549999867,
          "velocity": 0.7559055118110236,
          "duration": 0.10714274999999418
        },
        {
          "name": "C6",
          "midi": 84,
          "time": 111.64274549999867,
          "velocity": 0.7559055118110236,
          "duration": 0.10714274999999418
        },
        {
          "name": "C7",
          "midi": 96,
          "time": 111.64274549999867,
          "velocity": 0.7559055118110236,
          "duration": 0.10714274999999418
        },
        {
          "name": "C4",
          "midi": 60,
          "time": 111.85703099999866,
          "velocity": 0.7559055118110236,
          "duration": 0.10714274999999418
        },
        {
          "name": "C5",
          "midi": 72,
          "time": 111.85703099999866,
          "velocity": 0.7559055118110236,
          "duration": 0.10714274999999418
        },
        {
          "name": "C6",
          "midi": 84,
          "time": 111.85703099999866,
          "velocity": 0.7559055118110236,
          "duration": 0.10714274999999418
        },
        {
          "name": "C7",
          "midi": 96,
          "time": 111.85703099999866,
          "velocity": 0.7559055118110236,
          "duration": 0.10714274999999418
        },
        {
          "name": "C4",
          "midi": 60,
          "time": 112.07131649999864,
          "velocity": 0.7559055118110236,
          "duration": 0.10714274999999418
        },
        {
          "name": "C5",
          "midi": 72,
          "time": 112.07131649999864,
          "velocity": 0.7559055118110236,
          "duration": 0.10714274999999418
        },
        {
          "name": "C6",
          "midi": 84,
          "time": 112.07131649999864,
          "velocity": 0.7559055118110236,
          "duration": 0.10714274999999418
        },
        {
          "name": "C7",
          "midi": 96,
          "time": 112.07131649999864,
          "velocity": 0.7559055118110236,
          "duration": 0.10714274999999418
        },
        {
          "name": "D4",
          "midi": 62,
          "time": 112.28560199999863,
          "velocity": 0.7559055118110236,
          "duration": 0.42857100000000514
        },
        {
          "name": "D5",
          "midi": 74,
          "time": 112.28560199999863,
          "velocity": 0.7559055118110236,
          "duration": 0.42857100000000514
        },
        {
          "name": "D6",
          "midi": 86,
          "time": 112.28560199999863,
          "velocity": 0.7559055118110236,
          "duration": 0.42857100000000514
        },
        {
          "name": "D7",
          "midi": 98,
          "time": 112.28560199999863,
          "velocity": 0.7559055118110236,
          "duration": 0.42857100000000514
        },
        {
          "name": "C4",
          "midi": 60,
          "time": 112.82131574999863,
          "velocity": 0.7559055118110236,
          "duration": 0.10714274999999418
        },
        {
          "name": "C5",
          "midi": 72,
          "time": 112.82131574999863,
          "velocity": 0.7559055118110236,
          "duration": 0.10714274999999418
        },
        {
          "name": "C6",
          "midi": 84,
          "time": 112.82131574999863,
          "velocity": 0.7559055118110236,
          "duration": 0.10714274999999418
        },
        {
          "name": "C7",
          "midi": 96,
          "time": 112.82131574999863,
          "velocity": 0.7559055118110236,
          "duration": 0.10714274999999418
        },
        {
          "name": "C4",
          "midi": 60,
          "time": 112.92845849999863,
          "velocity": 0.7559055118110236,
          "duration": 0.10714274999999418
        },
        {
          "name": "C5",
          "midi": 72,
          "time": 112.92845849999863,
          "velocity": 0.7559055118110236,
          "duration": 0.10714274999999418
        },
        {
          "name": "C6",
          "midi": 84,
          "time": 112.92845849999863,
          "velocity": 0.7559055118110236,
          "duration": 0.10714274999999418
        },
        {
          "name": "C7",
          "midi": 96,
          "time": 112.92845849999863,
          "velocity": 0.7559055118110236,
          "duration": 0.10714274999999418
        },
        {
          "name": "C4",
          "midi": 60,
          "time": 113.14274399999861,
          "velocity": 0.7559055118110236,
          "duration": 0.10714274999999418
        },
        {
          "name": "C5",
          "midi": 72,
          "time": 113.14274399999861,
          "velocity": 0.7559055118110236,
          "duration": 0.10714274999999418
        },
        {
          "name": "C6",
          "midi": 84,
          "time": 113.14274399999861,
          "velocity": 0.7559055118110236,
          "duration": 0.10714274999999418
        },
        {
          "name": "C7",
          "midi": 96,
          "time": 113.14274399999861,
          "velocity": 0.7559055118110236,
          "duration": 0.10714274999999418
        },
        {
          "name": "C4",
          "midi": 60,
          "time": 113.3570294999986,
          "velocity": 0.7559055118110236,
          "duration": 0.10714274999999418
        },
        {
          "name": "C5",
          "midi": 72,
          "time": 113.3570294999986,
          "velocity": 0.7559055118110236,
          "duration": 0.10714274999999418
        },
        {
          "name": "C6",
          "midi": 84,
          "time": 113.3570294999986,
          "velocity": 0.7559055118110236,
          "duration": 0.10714274999999418
        },
        {
          "name": "C7",
          "midi": 96,
          "time": 113.3570294999986,
          "velocity": 0.7559055118110236,
          "duration": 0.10714274999999418
        },
        {
          "name": "C4",
          "midi": 60,
          "time": 113.57131499999859,
          "velocity": 0.7559055118110236,
          "duration": 0.10714274999999418
        },
        {
          "name": "C5",
          "midi": 72,
          "time": 113.57131499999859,
          "velocity": 0.7559055118110236,
          "duration": 0.10714274999999418
        },
        {
          "name": "C6",
          "midi": 84,
          "time": 113.57131499999859,
          "velocity": 0.7559055118110236,
          "duration": 0.10714274999999418
        },
        {
          "name": "C7",
          "midi": 96,
          "time": 113.57131499999859,
          "velocity": 0.7559055118110236,
          "duration": 0.10714274999999418
        },
        {
          "name": "C4",
          "midi": 60,
          "time": 113.78560049999858,
          "velocity": 0.7559055118110236,
          "duration": 0.10714274999999418
        },
        {
          "name": "C5",
          "midi": 72,
          "time": 113.78560049999858,
          "velocity": 0.7559055118110236,
          "duration": 0.10714274999999418
        },
        {
          "name": "C6",
          "midi": 84,
          "time": 113.78560049999858,
          "velocity": 0.7559055118110236,
          "duration": 0.10714274999999418
        },
        {
          "name": "C7",
          "midi": 96,
          "time": 113.78560049999858,
          "velocity": 0.7559055118110236,
          "duration": 0.10714274999999418
        },
        {
          "name": "D4",
          "midi": 62,
          "time": 113.99988599999857,
          "velocity": 0.7559055118110236,
          "duration": 0.42857100000000514
        },
        {
          "name": "D5",
          "midi": 74,
          "time": 113.99988599999857,
          "velocity": 0.7559055118110236,
          "duration": 0.42857100000000514
        },
        {
          "name": "D6",
          "midi": 86,
          "time": 113.99988599999857,
          "velocity": 0.7559055118110236,
          "duration": 0.42857100000000514
        },
        {
          "name": "D7",
          "midi": 98,
          "time": 113.99988599999857,
          "velocity": 0.7559055118110236,
          "duration": 0.42857100000000514
        },
        {
          "name": "C4",
          "midi": 60,
          "time": 114.53559974999857,
          "velocity": 0.7559055118110236,
          "duration": 0.10714274999999418
        },
        {
          "name": "C5",
          "midi": 72,
          "time": 114.53559974999857,
          "velocity": 0.7559055118110236,
          "duration": 0.10714274999999418
        },
        {
          "name": "C6",
          "midi": 84,
          "time": 114.53559974999857,
          "velocity": 0.7559055118110236,
          "duration": 0.10714274999999418
        },
        {
          "name": "C7",
          "midi": 96,
          "time": 114.53559974999857,
          "velocity": 0.7559055118110236,
          "duration": 0.10714274999999418
        },
        {
          "name": "C4",
          "midi": 60,
          "time": 114.64274249999856,
          "velocity": 0.7559055118110236,
          "duration": 0.10714274999999418
        },
        {
          "name": "C5",
          "midi": 72,
          "time": 114.64274249999856,
          "velocity": 0.7559055118110236,
          "duration": 0.10714274999999418
        },
        {
          "name": "C6",
          "midi": 84,
          "time": 114.64274249999856,
          "velocity": 0.7559055118110236,
          "duration": 0.10714274999999418
        },
        {
          "name": "C7",
          "midi": 96,
          "time": 114.64274249999856,
          "velocity": 0.7559055118110236,
          "duration": 0.10714274999999418
        },
        {
          "name": "C4",
          "midi": 60,
          "time": 114.85702799999855,
          "velocity": 0.7559055118110236,
          "duration": 0.10714274999999418
        },
        {
          "name": "C5",
          "midi": 72,
          "time": 114.85702799999855,
          "velocity": 0.7559055118110236,
          "duration": 0.10714274999999418
        },
        {
          "name": "C6",
          "midi": 84,
          "time": 114.85702799999855,
          "velocity": 0.7559055118110236,
          "duration": 0.10714274999999418
        },
        {
          "name": "C7",
          "midi": 96,
          "time": 114.85702799999855,
          "velocity": 0.7559055118110236,
          "duration": 0.10714274999999418
        },
        {
          "name": "C4",
          "midi": 60,
          "time": 115.07131349999854,
          "velocity": 0.7559055118110236,
          "duration": 0.10714274999999418
        },
        {
          "name": "C5",
          "midi": 72,
          "time": 115.07131349999854,
          "velocity": 0.7559055118110236,
          "duration": 0.10714274999999418
        },
        {
          "name": "C6",
          "midi": 84,
          "time": 115.07131349999854,
          "velocity": 0.7559055118110236,
          "duration": 0.10714274999999418
        },
        {
          "name": "C7",
          "midi": 96,
          "time": 115.07131349999854,
          "velocity": 0.7559055118110236,
          "duration": 0.10714274999999418
        },
        {
          "name": "C4",
          "midi": 60,
          "time": 115.28559899999853,
          "velocity": 0.7559055118110236,
          "duration": 0.10714274999999418
        },
        {
          "name": "C5",
          "midi": 72,
          "time": 115.28559899999853,
          "velocity": 0.7559055118110236,
          "duration": 0.10714274999999418
        },
        {
          "name": "C6",
          "midi": 84,
          "time": 115.28559899999853,
          "velocity": 0.7559055118110236,
          "duration": 0.10714274999999418
        },
        {
          "name": "C7",
          "midi": 96,
          "time": 115.28559899999853,
          "velocity": 0.7559055118110236,
          "duration": 0.10714274999999418
        },
        {
          "name": "C4",
          "midi": 60,
          "time": 115.49988449999852,
          "velocity": 0.7559055118110236,
          "duration": 0.10714274999999418
        },
        {
          "name": "C5",
          "midi": 72,
          "time": 115.49988449999852,
          "velocity": 0.7559055118110236,
          "duration": 0.10714274999999418
        },
        {
          "name": "C6",
          "midi": 84,
          "time": 115.49988449999852,
          "velocity": 0.7559055118110236,
          "duration": 0.10714274999999418
        },
        {
          "name": "C7",
          "midi": 96,
          "time": 115.49988449999852,
          "velocity": 0.7559055118110236,
          "duration": 0.10714274999999418
        },
        {
          "name": "C#4",
          "midi": 61,
          "time": 115.7141699999985,
          "velocity": 0.7559055118110236,
          "duration": 0.42857100000000514
        },
        {
          "name": "C#5",
          "midi": 73,
          "time": 115.7141699999985,
          "velocity": 0.7559055118110236,
          "duration": 0.42857100000000514
        },
        {
          "name": "C#6",
          "midi": 85,
          "time": 115.7141699999985,
          "velocity": 0.7559055118110236,
          "duration": 0.42857100000000514
        },
        {
          "name": "C#7",
          "midi": 97,
          "time": 115.7141699999985,
          "velocity": 0.7559055118110236,
          "duration": 0.42857100000000514
        },
        {
          "name": "C4",
          "midi": 60,
          "time": 116.2498837499985,
          "velocity": 0.7559055118110236,
          "duration": 0.10714274999999418
        },
        {
          "name": "C5",
          "midi": 72,
          "time": 116.2498837499985,
          "velocity": 0.7559055118110236,
          "duration": 0.10714274999999418
        },
        {
          "name": "C6",
          "midi": 84,
          "time": 116.2498837499985,
          "velocity": 0.7559055118110236,
          "duration": 0.10714274999999418
        },
        {
          "name": "C7",
          "midi": 96,
          "time": 116.2498837499985,
          "velocity": 0.7559055118110236,
          "duration": 0.10714274999999418
        },
        {
          "name": "C4",
          "midi": 60,
          "time": 116.3570264999985,
          "velocity": 0.7559055118110236,
          "duration": 0.10714274999999418
        },
        {
          "name": "C5",
          "midi": 72,
          "time": 116.3570264999985,
          "velocity": 0.7559055118110236,
          "duration": 0.10714274999999418
        },
        {
          "name": "C6",
          "midi": 84,
          "time": 116.3570264999985,
          "velocity": 0.7559055118110236,
          "duration": 0.10714274999999418
        },
        {
          "name": "C7",
          "midi": 96,
          "time": 116.3570264999985,
          "velocity": 0.7559055118110236,
          "duration": 0.10714274999999418
        },
        {
          "name": "C4",
          "midi": 60,
          "time": 116.57131199999849,
          "velocity": 0.7559055118110236,
          "duration": 0.10714274999999418
        },
        {
          "name": "C5",
          "midi": 72,
          "time": 116.57131199999849,
          "velocity": 0.7559055118110236,
          "duration": 0.10714274999999418
        },
        {
          "name": "C6",
          "midi": 84,
          "time": 116.57131199999849,
          "velocity": 0.7559055118110236,
          "duration": 0.10714274999999418
        },
        {
          "name": "C7",
          "midi": 96,
          "time": 116.57131199999849,
          "velocity": 0.7559055118110236,
          "duration": 0.10714274999999418
        },
        {
          "name": "C4",
          "midi": 60,
          "time": 116.78559749999847,
          "velocity": 0.7559055118110236,
          "duration": 0.10714274999999418
        },
        {
          "name": "C5",
          "midi": 72,
          "time": 116.78559749999847,
          "velocity": 0.7559055118110236,
          "duration": 0.10714274999999418
        },
        {
          "name": "C6",
          "midi": 84,
          "time": 116.78559749999847,
          "velocity": 0.7559055118110236,
          "duration": 0.10714274999999418
        },
        {
          "name": "C7",
          "midi": 96,
          "time": 116.78559749999847,
          "velocity": 0.7559055118110236,
          "duration": 0.10714274999999418
        },
        {
          "name": "C4",
          "midi": 60,
          "time": 116.99988299999846,
          "velocity": 0.7559055118110236,
          "duration": 0.10714274999999418
        },
        {
          "name": "C5",
          "midi": 72,
          "time": 116.99988299999846,
          "velocity": 0.7559055118110236,
          "duration": 0.10714274999999418
        },
        {
          "name": "C6",
          "midi": 84,
          "time": 116.99988299999846,
          "velocity": 0.7559055118110236,
          "duration": 0.10714274999999418
        },
        {
          "name": "C7",
          "midi": 96,
          "time": 116.99988299999846,
          "velocity": 0.7559055118110236,
          "duration": 0.10714274999999418
        },
        {
          "name": "C4",
          "midi": 60,
          "time": 117.21416849999845,
          "velocity": 0.7559055118110236,
          "duration": 0.10714274999999418
        },
        {
          "name": "C5",
          "midi": 72,
          "time": 117.21416849999845,
          "velocity": 0.7559055118110236,
          "duration": 0.10714274999999418
        },
        {
          "name": "C6",
          "midi": 84,
          "time": 117.21416849999845,
          "velocity": 0.7559055118110236,
          "duration": 0.10714274999999418
        },
        {
          "name": "C7",
          "midi": 96,
          "time": 117.21416849999845,
          "velocity": 0.7559055118110236,
          "duration": 0.10714274999999418
        },
        {
          "name": "D#4",
          "midi": 63,
          "time": 117.42845399999844,
          "velocity": 0.7559055118110236,
          "duration": 0.42857100000000514
        },
        {
          "name": "D#5",
          "midi": 75,
          "time": 117.42845399999844,
          "velocity": 0.7559055118110236,
          "duration": 0.42857100000000514
        },
        {
          "name": "D#6",
          "midi": 87,
          "time": 117.42845399999844,
          "velocity": 0.7559055118110236,
          "duration": 0.42857100000000514
        },
        {
          "name": "D#7",
          "midi": 99,
          "time": 117.42845399999844,
          "velocity": 0.7559055118110236,
          "duration": 0.42857100000000514
        },
        {
          "name": "C4",
          "midi": 60,
          "time": 117.96416774999844,
          "velocity": 0.7559055118110236,
          "duration": 0.10714274999999418
        },
        {
          "name": "C5",
          "midi": 72,
          "time": 117.96416774999844,
          "velocity": 0.7559055118110236,
          "duration": 0.10714274999999418
        },
        {
          "name": "C6",
          "midi": 84,
          "time": 117.96416774999844,
          "velocity": 0.7559055118110236,
          "duration": 0.10714274999999418
        },
        {
          "name": "C7",
          "midi": 96,
          "time": 117.96416774999844,
          "velocity": 0.7559055118110236,
          "duration": 0.10714274999999418
        },
        {
          "name": "C4",
          "midi": 60,
          "time": 118.07131049999843,
          "velocity": 0.7559055118110236,
          "duration": 0.10714274999999418
        },
        {
          "name": "C5",
          "midi": 72,
          "time": 118.07131049999843,
          "velocity": 0.7559055118110236,
          "duration": 0.10714274999999418
        },
        {
          "name": "C6",
          "midi": 84,
          "time": 118.07131049999843,
          "velocity": 0.7559055118110236,
          "duration": 0.10714274999999418
        },
        {
          "name": "C7",
          "midi": 96,
          "time": 118.07131049999843,
          "velocity": 0.7559055118110236,
          "duration": 0.10714274999999418
        },
        {
          "name": "C4",
          "midi": 60,
          "time": 118.28559599999842,
          "velocity": 0.7559055118110236,
          "duration": 0.10714274999999418
        },
        {
          "name": "C5",
          "midi": 72,
          "time": 118.28559599999842,
          "velocity": 0.7559055118110236,
          "duration": 0.10714274999999418
        },
        {
          "name": "C6",
          "midi": 84,
          "time": 118.28559599999842,
          "velocity": 0.7559055118110236,
          "duration": 0.10714274999999418
        },
        {
          "name": "C7",
          "midi": 96,
          "time": 118.28559599999842,
          "velocity": 0.7559055118110236,
          "duration": 0.10714274999999418
        },
        {
          "name": "C4",
          "midi": 60,
          "time": 118.49988149999841,
          "velocity": 0.7559055118110236,
          "duration": 0.10714274999999418
        },
        {
          "name": "C5",
          "midi": 72,
          "time": 118.49988149999841,
          "velocity": 0.7559055118110236,
          "duration": 0.10714274999999418
        },
        {
          "name": "C6",
          "midi": 84,
          "time": 118.49988149999841,
          "velocity": 0.7559055118110236,
          "duration": 0.10714274999999418
        },
        {
          "name": "C7",
          "midi": 96,
          "time": 118.49988149999841,
          "velocity": 0.7559055118110236,
          "duration": 0.10714274999999418
        },
        {
          "name": "C4",
          "midi": 60,
          "time": 118.7141669999984,
          "velocity": 0.7559055118110236,
          "duration": 0.10714274999999418
        },
        {
          "name": "C5",
          "midi": 72,
          "time": 118.7141669999984,
          "velocity": 0.7559055118110236,
          "duration": 0.10714274999999418
        },
        {
          "name": "C6",
          "midi": 84,
          "time": 118.7141669999984,
          "velocity": 0.7559055118110236,
          "duration": 0.10714274999999418
        },
        {
          "name": "C7",
          "midi": 96,
          "time": 118.7141669999984,
          "velocity": 0.7559055118110236,
          "duration": 0.10714274999999418
        },
        {
          "name": "C4",
          "midi": 60,
          "time": 118.92845249999839,
          "velocity": 0.7559055118110236,
          "duration": 0.10714274999999418
        },
        {
          "name": "C5",
          "midi": 72,
          "time": 118.92845249999839,
          "velocity": 0.7559055118110236,
          "duration": 0.10714274999999418
        },
        {
          "name": "C6",
          "midi": 84,
          "time": 118.92845249999839,
          "velocity": 0.7559055118110236,
          "duration": 0.10714274999999418
        },
        {
          "name": "C7",
          "midi": 96,
          "time": 118.92845249999839,
          "velocity": 0.7559055118110236,
          "duration": 0.10714274999999418
        },
        {
          "name": "D4",
          "midi": 62,
          "time": 119.14273799999837,
          "velocity": 0.7559055118110236,
          "duration": 0.42857100000000514
        },
        {
          "name": "D5",
          "midi": 74,
          "time": 119.14273799999837,
          "velocity": 0.7559055118110236,
          "duration": 0.42857100000000514
        },
        {
          "name": "D6",
          "midi": 86,
          "time": 119.14273799999837,
          "velocity": 0.7559055118110236,
          "duration": 0.42857100000000514
        },
        {
          "name": "D7",
          "midi": 98,
          "time": 119.14273799999837,
          "velocity": 0.7559055118110236,
          "duration": 0.42857100000000514
        },
        {
          "name": "C4",
          "midi": 60,
          "time": 119.67845174999837,
          "velocity": 0.7559055118110236,
          "duration": 0.10714274999999418
        },
        {
          "name": "C5",
          "midi": 72,
          "time": 119.67845174999837,
          "velocity": 0.7559055118110236,
          "duration": 0.10714274999999418
        },
        {
          "name": "C6",
          "midi": 84,
          "time": 119.67845174999837,
          "velocity": 0.7559055118110236,
          "duration": 0.10714274999999418
        },
        {
          "name": "C7",
          "midi": 96,
          "time": 119.67845174999837,
          "velocity": 0.7559055118110236,
          "duration": 0.10714274999999418
        },
        {
          "name": "C4",
          "midi": 60,
          "time": 119.78559449999837,
          "velocity": 0.7559055118110236,
          "duration": 0.10714274999999418
        },
        {
          "name": "C5",
          "midi": 72,
          "time": 119.78559449999837,
          "velocity": 0.7559055118110236,
          "duration": 0.10714274999999418
        },
        {
          "name": "C6",
          "midi": 84,
          "time": 119.78559449999837,
          "velocity": 0.7559055118110236,
          "duration": 0.10714274999999418
        },
        {
          "name": "C7",
          "midi": 96,
          "time": 119.78559449999837,
          "velocity": 0.7559055118110236,
          "duration": 0.10714274999999418
        },
        {
          "name": "C4",
          "midi": 60,
          "time": 119.99987999999836,
          "velocity": 0.7559055118110236,
          "duration": 0.10714274999999418
        },
        {
          "name": "C5",
          "midi": 72,
          "time": 119.99987999999836,
          "velocity": 0.7559055118110236,
          "duration": 0.10714274999999418
        },
        {
          "name": "C6",
          "midi": 84,
          "time": 119.99987999999836,
          "velocity": 0.7559055118110236,
          "duration": 0.10714274999999418
        },
        {
          "name": "C7",
          "midi": 96,
          "time": 119.99987999999836,
          "velocity": 0.7559055118110236,
          "duration": 0.10714274999999418
        },
        {
          "name": "C4",
          "midi": 60,
          "time": 120.21416549999834,
          "velocity": 0.7559055118110236,
          "duration": 0.10714274999999418
        },
        {
          "name": "C5",
          "midi": 72,
          "time": 120.21416549999834,
          "velocity": 0.7559055118110236,
          "duration": 0.10714274999999418
        },
        {
          "name": "C6",
          "midi": 84,
          "time": 120.21416549999834,
          "velocity": 0.7559055118110236,
          "duration": 0.10714274999999418
        },
        {
          "name": "C7",
          "midi": 96,
          "time": 120.21416549999834,
          "velocity": 0.7559055118110236,
          "duration": 0.10714274999999418
        },
        {
          "name": "C4",
          "midi": 60,
          "time": 120.42845099999833,
          "velocity": 0.7559055118110236,
          "duration": 0.10714274999999418
        },
        {
          "name": "C5",
          "midi": 72,
          "time": 120.42845099999833,
          "velocity": 0.7559055118110236,
          "duration": 0.10714274999999418
        },
        {
          "name": "C6",
          "midi": 84,
          "time": 120.42845099999833,
          "velocity": 0.7559055118110236,
          "duration": 0.10714274999999418
        },
        {
          "name": "C7",
          "midi": 96,
          "time": 120.42845099999833,
          "velocity": 0.7559055118110236,
          "duration": 0.10714274999999418
        },
        {
          "name": "C4",
          "midi": 60,
          "time": 120.64273649999832,
          "velocity": 0.7559055118110236,
          "duration": 0.10714274999999418
        },
        {
          "name": "C5",
          "midi": 72,
          "time": 120.64273649999832,
          "velocity": 0.7559055118110236,
          "duration": 0.10714274999999418
        },
        {
          "name": "C6",
          "midi": 84,
          "time": 120.64273649999832,
          "velocity": 0.7559055118110236,
          "duration": 0.10714274999999418
        },
        {
          "name": "C7",
          "midi": 96,
          "time": 120.64273649999832,
          "velocity": 0.7559055118110236,
          "duration": 0.10714274999999418
        },
        {
          "name": "D#4",
          "midi": 63,
          "time": 120.85702199999831,
          "velocity": 0.7559055118110236,
          "duration": 0.42857100000000514
        },
        {
          "name": "D#5",
          "midi": 75,
          "time": 120.85702199999831,
          "velocity": 0.7559055118110236,
          "duration": 0.42857100000000514
        },
        {
          "name": "D#6",
          "midi": 87,
          "time": 120.85702199999831,
          "velocity": 0.7559055118110236,
          "duration": 0.42857100000000514
        },
        {
          "name": "D#7",
          "midi": 99,
          "time": 120.85702199999831,
          "velocity": 0.7559055118110236,
          "duration": 0.42857100000000514
        },
        {
          "name": "C4",
          "midi": 60,
          "time": 121.39273574999831,
          "velocity": 0.7559055118110236,
          "duration": 0.10714274999999418
        },
        {
          "name": "C5",
          "midi": 72,
          "time": 121.39273574999831,
          "velocity": 0.7559055118110236,
          "duration": 0.10714274999999418
        },
        {
          "name": "C6",
          "midi": 84,
          "time": 121.39273574999831,
          "velocity": 0.7559055118110236,
          "duration": 0.10714274999999418
        },
        {
          "name": "C7",
          "midi": 96,
          "time": 121.39273574999831,
          "velocity": 0.7559055118110236,
          "duration": 0.10714274999999418
        },
        {
          "name": "C4",
          "midi": 60,
          "time": 121.4998784999983,
          "velocity": 0.7559055118110236,
          "duration": 0.10714274999999418
        },
        {
          "name": "C5",
          "midi": 72,
          "time": 121.4998784999983,
          "velocity": 0.7559055118110236,
          "duration": 0.10714274999999418
        },
        {
          "name": "C6",
          "midi": 84,
          "time": 121.4998784999983,
          "velocity": 0.7559055118110236,
          "duration": 0.10714274999999418
        },
        {
          "name": "C7",
          "midi": 96,
          "time": 121.4998784999983,
          "velocity": 0.7559055118110236,
          "duration": 0.10714274999999418
        },
        {
          "name": "C4",
          "midi": 60,
          "time": 121.71416399999829,
          "velocity": 0.7559055118110236,
          "duration": 0.10714274999999418
        },
        {
          "name": "C5",
          "midi": 72,
          "time": 121.71416399999829,
          "velocity": 0.7559055118110236,
          "duration": 0.10714274999999418
        },
        {
          "name": "C6",
          "midi": 84,
          "time": 121.71416399999829,
          "velocity": 0.7559055118110236,
          "duration": 0.10714274999999418
        },
        {
          "name": "C7",
          "midi": 96,
          "time": 121.71416399999829,
          "velocity": 0.7559055118110236,
          "duration": 0.10714274999999418
        },
        {
          "name": "C4",
          "midi": 60,
          "time": 121.92844949999828,
          "velocity": 0.7559055118110236,
          "duration": 0.10714274999999418
        },
        {
          "name": "C5",
          "midi": 72,
          "time": 121.92844949999828,
          "velocity": 0.7559055118110236,
          "duration": 0.10714274999999418
        },
        {
          "name": "C6",
          "midi": 84,
          "time": 121.92844949999828,
          "velocity": 0.7559055118110236,
          "duration": 0.10714274999999418
        },
        {
          "name": "C7",
          "midi": 96,
          "time": 121.92844949999828,
          "velocity": 0.7559055118110236,
          "duration": 0.10714274999999418
        },
        {
          "name": "C4",
          "midi": 60,
          "time": 122.14273499999827,
          "velocity": 0.7559055118110236,
          "duration": 0.10714274999999418
        },
        {
          "name": "C5",
          "midi": 72,
          "time": 122.14273499999827,
          "velocity": 0.7559055118110236,
          "duration": 0.10714274999999418
        },
        {
          "name": "C6",
          "midi": 84,
          "time": 122.14273499999827,
          "velocity": 0.7559055118110236,
          "duration": 0.10714274999999418
        },
        {
          "name": "C7",
          "midi": 96,
          "time": 122.14273499999827,
          "velocity": 0.7559055118110236,
          "duration": 0.10714274999999418
        },
        {
          "name": "C4",
          "midi": 60,
          "time": 122.35702049999826,
          "velocity": 0.7559055118110236,
          "duration": 0.10714274999999418
        },
        {
          "name": "C5",
          "midi": 72,
          "time": 122.35702049999826,
          "velocity": 0.7559055118110236,
          "duration": 0.10714274999999418
        },
        {
          "name": "C6",
          "midi": 84,
          "time": 122.35702049999826,
          "velocity": 0.7559055118110236,
          "duration": 0.10714274999999418
        },
        {
          "name": "C7",
          "midi": 96,
          "time": 122.35702049999826,
          "velocity": 0.7559055118110236,
          "duration": 0.10714274999999418
        },
        {
          "name": "E4",
          "midi": 64,
          "time": 122.57130599999824,
          "velocity": 0.7559055118110236,
          "duration": 0.8571419999999961
        },
        {
          "name": "E5",
          "midi": 76,
          "time": 122.57130599999824,
          "velocity": 0.7559055118110236,
          "duration": 0.8571419999999961
        },
        {
          "name": "E6",
          "midi": 88,
          "time": 122.57130599999824,
          "velocity": 0.7559055118110236,
          "duration": 0.8571419999999961
        },
        {
          "name": "E7",
          "midi": 100,
          "time": 122.57130599999824,
          "velocity": 0.7559055118110236,
          "duration": 0.8571419999999961
        },
        {
          "name": "C4",
          "midi": 60,
          "time": 123.42844799999824,
          "velocity": 0.7559055118110236,
          "duration": 0.10714274999999418
        },
        {
          "name": "C5",
          "midi": 72,
          "time": 123.42844799999824,
          "velocity": 0.7559055118110236,
          "duration": 0.10714274999999418
        },
        {
          "name": "C6",
          "midi": 84,
          "time": 123.42844799999824,
          "velocity": 0.7559055118110236,
          "duration": 0.10714274999999418
        },
        {
          "name": "C7",
          "midi": 96,
          "time": 123.42844799999824,
          "velocity": 0.7559055118110236,
          "duration": 0.10714274999999418
        },
        {
          "name": "C4",
          "midi": 60,
          "time": 123.74987624999824,
          "velocity": 0.7559055118110236,
          "duration": 0.10714274999999418
        },
        {
          "name": "C5",
          "midi": 72,
          "time": 123.74987624999824,
          "velocity": 0.7559055118110236,
          "duration": 0.10714274999999418
        },
        {
          "name": "C6",
          "midi": 84,
          "time": 123.74987624999824,
          "velocity": 0.7559055118110236,
          "duration": 0.10714274999999418
        },
        {
          "name": "C7",
          "midi": 96,
          "time": 123.74987624999824,
          "velocity": 0.7559055118110236,
          "duration": 0.10714274999999418
        },
        {
          "name": "C4",
          "midi": 60,
          "time": 124.07130449999823,
          "velocity": 0.7559055118110236,
          "duration": 0.10714274999999418
        },
        {
          "name": "C5",
          "midi": 72,
          "time": 124.07130449999823,
          "velocity": 0.7559055118110236,
          "duration": 0.10714274999999418
        },
        {
          "name": "C6",
          "midi": 84,
          "time": 124.07130449999823,
          "velocity": 0.7559055118110236,
          "duration": 0.10714274999999418
        },
        {
          "name": "C7",
          "midi": 96,
          "time": 124.07130449999823,
          "velocity": 0.7559055118110236,
          "duration": 0.10714274999999418
        },
        {
          "name": "D4",
          "midi": 62,
          "time": 124.28558999999822,
          "velocity": 0.7559055118110236,
          "duration": 0.42857100000000514
        },
        {
          "name": "D5",
          "midi": 74,
          "time": 124.28558999999822,
          "velocity": 0.7559055118110236,
          "duration": 0.42857100000000514
        },
        {
          "name": "D6",
          "midi": 86,
          "time": 124.28558999999822,
          "velocity": 0.7559055118110236,
          "duration": 0.42857100000000514
        },
        {
          "name": "D7",
          "midi": 98,
          "time": 124.28558999999822,
          "velocity": 0.7559055118110236,
          "duration": 0.42857100000000514
        },
        {
          "name": "C4",
          "midi": 60,
          "time": 124.82130374999822,
          "velocity": 0.7559055118110236,
          "duration": 0.10714274999999418
        },
        {
          "name": "C5",
          "midi": 72,
          "time": 124.82130374999822,
          "velocity": 0.7559055118110236,
          "duration": 0.10714274999999418
        },
        {
          "name": "C6",
          "midi": 84,
          "time": 124.82130374999822,
          "velocity": 0.7559055118110236,
          "duration": 0.10714274999999418
        },
        {
          "name": "C7",
          "midi": 96,
          "time": 124.82130374999822,
          "velocity": 0.7559055118110236,
          "duration": 0.10714274999999418
        },
        {
          "name": "C4",
          "midi": 60,
          "time": 124.92844649999822,
          "velocity": 0.7559055118110236,
          "duration": 0.10714274999999418
        },
        {
          "name": "C5",
          "midi": 72,
          "time": 124.92844649999822,
          "velocity": 0.7559055118110236,
          "duration": 0.10714274999999418
        },
        {
          "name": "C6",
          "midi": 84,
          "time": 124.92844649999822,
          "velocity": 0.7559055118110236,
          "duration": 0.10714274999999418
        },
        {
          "name": "C7",
          "midi": 96,
          "time": 124.92844649999822,
          "velocity": 0.7559055118110236,
          "duration": 0.10714274999999418
        },
        {
          "name": "C4",
          "midi": 60,
          "time": 125.1427319999982,
          "velocity": 0.7559055118110236,
          "duration": 0.10714274999999418
        },
        {
          "name": "C5",
          "midi": 72,
          "time": 125.1427319999982,
          "velocity": 0.7559055118110236,
          "duration": 0.10714274999999418
        },
        {
          "name": "C6",
          "midi": 84,
          "time": 125.1427319999982,
          "velocity": 0.7559055118110236,
          "duration": 0.10714274999999418
        },
        {
          "name": "C7",
          "midi": 96,
          "time": 125.1427319999982,
          "velocity": 0.7559055118110236,
          "duration": 0.10714274999999418
        },
        {
          "name": "C4",
          "midi": 60,
          "time": 125.3570174999982,
          "velocity": 0.7559055118110236,
          "duration": 0.10714274999999418
        },
        {
          "name": "C5",
          "midi": 72,
          "time": 125.3570174999982,
          "velocity": 0.7559055118110236,
          "duration": 0.10714274999999418
        },
        {
          "name": "C6",
          "midi": 84,
          "time": 125.3570174999982,
          "velocity": 0.7559055118110236,
          "duration": 0.10714274999999418
        },
        {
          "name": "C7",
          "midi": 96,
          "time": 125.3570174999982,
          "velocity": 0.7559055118110236,
          "duration": 0.10714274999999418
        },
        {
          "name": "C4",
          "midi": 60,
          "time": 125.57130299999818,
          "velocity": 0.7559055118110236,
          "duration": 0.10714274999999418
        },
        {
          "name": "C5",
          "midi": 72,
          "time": 125.57130299999818,
          "velocity": 0.7559055118110236,
          "duration": 0.10714274999999418
        },
        {
          "name": "C6",
          "midi": 84,
          "time": 125.57130299999818,
          "velocity": 0.7559055118110236,
          "duration": 0.10714274999999418
        },
        {
          "name": "C7",
          "midi": 96,
          "time": 125.57130299999818,
          "velocity": 0.7559055118110236,
          "duration": 0.10714274999999418
        },
        {
          "name": "C4",
          "midi": 60,
          "time": 125.78558849999817,
          "velocity": 0.7559055118110236,
          "duration": 0.10714274999999418
        },
        {
          "name": "C5",
          "midi": 72,
          "time": 125.78558849999817,
          "velocity": 0.7559055118110236,
          "duration": 0.10714274999999418
        },
        {
          "name": "C6",
          "midi": 84,
          "time": 125.78558849999817,
          "velocity": 0.7559055118110236,
          "duration": 0.10714274999999418
        },
        {
          "name": "C7",
          "midi": 96,
          "time": 125.78558849999817,
          "velocity": 0.7559055118110236,
          "duration": 0.10714274999999418
        },
        {
          "name": "C#4",
          "midi": 61,
          "time": 125.99987399999816,
          "velocity": 0.7559055118110236,
          "duration": 0.42857100000000514
        },
        {
          "name": "C#5",
          "midi": 73,
          "time": 125.99987399999816,
          "velocity": 0.7559055118110236,
          "duration": 0.42857100000000514
        },
        {
          "name": "C#6",
          "midi": 85,
          "time": 125.99987399999816,
          "velocity": 0.7559055118110236,
          "duration": 0.42857100000000514
        },
        {
          "name": "C#7",
          "midi": 97,
          "time": 125.99987399999816,
          "velocity": 0.7559055118110236,
          "duration": 0.42857100000000514
        },
        {
          "name": "C4",
          "midi": 60,
          "time": 126.53558774999816,
          "velocity": 0.7559055118110236,
          "duration": 0.10714274999999418
        },
        {
          "name": "C5",
          "midi": 72,
          "time": 126.53558774999816,
          "velocity": 0.7559055118110236,
          "duration": 0.10714274999999418
        },
        {
          "name": "C6",
          "midi": 84,
          "time": 126.53558774999816,
          "velocity": 0.7559055118110236,
          "duration": 0.10714274999999418
        },
        {
          "name": "C7",
          "midi": 96,
          "time": 126.53558774999816,
          "velocity": 0.7559055118110236,
          "duration": 0.10714274999999418
        },
        {
          "name": "C4",
          "midi": 60,
          "time": 126.64273049999815,
          "velocity": 0.7559055118110236,
          "duration": 0.10714274999999418
        },
        {
          "name": "C5",
          "midi": 72,
          "time": 126.64273049999815,
          "velocity": 0.7559055118110236,
          "duration": 0.10714274999999418
        },
        {
          "name": "C6",
          "midi": 84,
          "time": 126.64273049999815,
          "velocity": 0.7559055118110236,
          "duration": 0.10714274999999418
        },
        {
          "name": "C7",
          "midi": 96,
          "time": 126.64273049999815,
          "velocity": 0.7559055118110236,
          "duration": 0.10714274999999418
        },
        {
          "name": "C4",
          "midi": 60,
          "time": 126.85701599999814,
          "velocity": 0.7559055118110236,
          "duration": 0.10714274999999418
        },
        {
          "name": "C5",
          "midi": 72,
          "time": 126.85701599999814,
          "velocity": 0.7559055118110236,
          "duration": 0.10714274999999418
        },
        {
          "name": "C6",
          "midi": 84,
          "time": 126.85701599999814,
          "velocity": 0.7559055118110236,
          "duration": 0.10714274999999418
        },
        {
          "name": "C7",
          "midi": 96,
          "time": 126.85701599999814,
          "velocity": 0.7559055118110236,
          "duration": 0.10714274999999418
        },
        {
          "name": "C4",
          "midi": 60,
          "time": 127.07130149999813,
          "velocity": 0.7559055118110236,
          "duration": 0.10714274999999418
        },
        {
          "name": "C5",
          "midi": 72,
          "time": 127.07130149999813,
          "velocity": 0.7559055118110236,
          "duration": 0.10714274999999418
        },
        {
          "name": "C6",
          "midi": 84,
          "time": 127.07130149999813,
          "velocity": 0.7559055118110236,
          "duration": 0.10714274999999418
        },
        {
          "name": "C7",
          "midi": 96,
          "time": 127.07130149999813,
          "velocity": 0.7559055118110236,
          "duration": 0.10714274999999418
        },
        {
          "name": "C4",
          "midi": 60,
          "time": 127.28558699999812,
          "velocity": 0.7559055118110236,
          "duration": 0.10714274999999418
        },
        {
          "name": "C5",
          "midi": 72,
          "time": 127.28558699999812,
          "velocity": 0.7559055118110236,
          "duration": 0.10714274999999418
        },
        {
          "name": "C6",
          "midi": 84,
          "time": 127.28558699999812,
          "velocity": 0.7559055118110236,
          "duration": 0.10714274999999418
        },
        {
          "name": "C7",
          "midi": 96,
          "time": 127.28558699999812,
          "velocity": 0.7559055118110236,
          "duration": 0.10714274999999418
        },
        {
          "name": "C4",
          "midi": 60,
          "time": 127.4998724999981,
          "velocity": 0.7559055118110236,
          "duration": 0.10714274999999418
        },
        {
          "name": "C5",
          "midi": 72,
          "time": 127.4998724999981,
          "velocity": 0.7559055118110236,
          "duration": 0.10714274999999418
        },
        {
          "name": "C6",
          "midi": 84,
          "time": 127.4998724999981,
          "velocity": 0.7559055118110236,
          "duration": 0.10714274999999418
        },
        {
          "name": "C7",
          "midi": 96,
          "time": 127.4998724999981,
          "velocity": 0.7559055118110236,
          "duration": 0.10714274999999418
        },
        {
          "name": "D#4",
          "midi": 63,
          "time": 127.7141579999981,
          "velocity": 0.7559055118110236,
          "duration": 0.42857100000000514
        },
        {
          "name": "D#5",
          "midi": 75,
          "time": 127.7141579999981,
          "velocity": 0.7559055118110236,
          "duration": 0.42857100000000514
        },
        {
          "name": "D#6",
          "midi": 87,
          "time": 127.7141579999981,
          "velocity": 0.7559055118110236,
          "duration": 0.42857100000000514
        },
        {
          "name": "D#7",
          "midi": 99,
          "time": 127.7141579999981,
          "velocity": 0.7559055118110236,
          "duration": 0.42857100000000514
        },
        {
          "name": "C4",
          "midi": 60,
          "time": 128.2498717499981,
          "velocity": 0.7559055118110236,
          "duration": 0.10714275000000839
        },
        {
          "name": "C5",
          "midi": 72,
          "time": 128.2498717499981,
          "velocity": 0.7559055118110236,
          "duration": 0.10714275000000839
        },
        {
          "name": "C6",
          "midi": 84,
          "time": 128.2498717499981,
          "velocity": 0.7559055118110236,
          "duration": 0.10714275000000839
        },
        {
          "name": "C7",
          "midi": 96,
          "time": 128.2498717499981,
          "velocity": 0.7559055118110236,
          "duration": 0.10714275000000839
        },
        {
          "name": "C4",
          "midi": 60,
          "time": 128.35701449999812,
          "velocity": 0.7559055118110236,
          "duration": 0.10714275000000839
        },
        {
          "name": "C5",
          "midi": 72,
          "time": 128.35701449999812,
          "velocity": 0.7559055118110236,
          "duration": 0.10714275000000839
        },
        {
          "name": "C6",
          "midi": 84,
          "time": 128.35701449999812,
          "velocity": 0.7559055118110236,
          "duration": 0.10714275000000839
        },
        {
          "name": "C7",
          "midi": 96,
          "time": 128.35701449999812,
          "velocity": 0.7559055118110236,
          "duration": 0.10714275000000839
        },
        {
          "name": "C4",
          "midi": 60,
          "time": 128.57129999999813,
          "velocity": 0.7559055118110236,
          "duration": 0.10714275000000839
        },
        {
          "name": "C5",
          "midi": 72,
          "time": 128.57129999999813,
          "velocity": 0.7559055118110236,
          "duration": 0.10714275000000839
        },
        {
          "name": "C6",
          "midi": 84,
          "time": 128.57129999999813,
          "velocity": 0.7559055118110236,
          "duration": 0.10714275000000839
        },
        {
          "name": "C7",
          "midi": 96,
          "time": 128.57129999999813,
          "velocity": 0.7559055118110236,
          "duration": 0.10714275000000839
        },
        {
          "name": "C4",
          "midi": 60,
          "time": 128.78558549999815,
          "velocity": 0.7559055118110236,
          "duration": 0.10714275000000839
        },
        {
          "name": "C5",
          "midi": 72,
          "time": 128.78558549999815,
          "velocity": 0.7559055118110236,
          "duration": 0.10714275000000839
        },
        {
          "name": "C6",
          "midi": 84,
          "time": 128.78558549999815,
          "velocity": 0.7559055118110236,
          "duration": 0.10714275000000839
        },
        {
          "name": "C7",
          "midi": 96,
          "time": 128.78558549999815,
          "velocity": 0.7559055118110236,
          "duration": 0.10714275000000839
        },
        {
          "name": "C4",
          "midi": 60,
          "time": 128.99987099999817,
          "velocity": 0.7559055118110236,
          "duration": 0.10714275000000839
        },
        {
          "name": "C5",
          "midi": 72,
          "time": 128.99987099999817,
          "velocity": 0.7559055118110236,
          "duration": 0.10714275000000839
        },
        {
          "name": "C6",
          "midi": 84,
          "time": 128.99987099999817,
          "velocity": 0.7559055118110236,
          "duration": 0.10714275000000839
        },
        {
          "name": "C7",
          "midi": 96,
          "time": 128.99987099999817,
          "velocity": 0.7559055118110236,
          "duration": 0.10714275000000839
        },
        {
          "name": "C4",
          "midi": 60,
          "time": 129.21415649999818,
          "velocity": 0.7559055118110236,
          "duration": 0.10714275000000839
        },
        {
          "name": "C5",
          "midi": 72,
          "time": 129.21415649999818,
          "velocity": 0.7559055118110236,
          "duration": 0.10714275000000839
        },
        {
          "name": "C6",
          "midi": 84,
          "time": 129.21415649999818,
          "velocity": 0.7559055118110236,
          "duration": 0.10714275000000839
        },
        {
          "name": "C7",
          "midi": 96,
          "time": 129.21415649999818,
          "velocity": 0.7559055118110236,
          "duration": 0.10714275000000839
        },
        {
          "name": "C#4",
          "midi": 61,
          "time": 129.4284419999982,
          "velocity": 0.7559055118110236,
          "duration": 0.42857100000000514
        },
        {
          "name": "C#5",
          "midi": 73,
          "time": 129.4284419999982,
          "velocity": 0.7559055118110236,
          "duration": 0.42857100000000514
        },
        {
          "name": "C#6",
          "midi": 85,
          "time": 129.4284419999982,
          "velocity": 0.7559055118110236,
          "duration": 0.42857100000000514
        },
        {
          "name": "C#7",
          "midi": 97,
          "time": 129.4284419999982,
          "velocity": 0.7559055118110236,
          "duration": 0.42857100000000514
        },
        {
          "name": "C4",
          "midi": 60,
          "time": 129.9641557499982,
          "velocity": 0.7559055118110236,
          "duration": 0.10714275000000839
        },
        {
          "name": "C5",
          "midi": 72,
          "time": 129.9641557499982,
          "velocity": 0.7559055118110236,
          "duration": 0.10714275000000839
        },
        {
          "name": "C6",
          "midi": 84,
          "time": 129.9641557499982,
          "velocity": 0.7559055118110236,
          "duration": 0.10714275000000839
        },
        {
          "name": "C7",
          "midi": 96,
          "time": 129.9641557499982,
          "velocity": 0.7559055118110236,
          "duration": 0.10714275000000839
        },
        {
          "name": "C4",
          "midi": 60,
          "time": 130.07129849999822,
          "velocity": 0.7559055118110236,
          "duration": 0.10714275000000839
        },
        {
          "name": "C5",
          "midi": 72,
          "time": 130.07129849999822,
          "velocity": 0.7559055118110236,
          "duration": 0.10714275000000839
        },
        {
          "name": "C6",
          "midi": 84,
          "time": 130.07129849999822,
          "velocity": 0.7559055118110236,
          "duration": 0.10714275000000839
        },
        {
          "name": "C7",
          "midi": 96,
          "time": 130.07129849999822,
          "velocity": 0.7559055118110236,
          "duration": 0.10714275000000839
        },
        {
          "name": "C4",
          "midi": 60,
          "time": 130.28558399999824,
          "velocity": 0.7559055118110236,
          "duration": 0.10714275000000839
        },
        {
          "name": "C5",
          "midi": 72,
          "time": 130.28558399999824,
          "velocity": 0.7559055118110236,
          "duration": 0.10714275000000839
        },
        {
          "name": "C6",
          "midi": 84,
          "time": 130.28558399999824,
          "velocity": 0.7559055118110236,
          "duration": 0.10714275000000839
        },
        {
          "name": "C7",
          "midi": 96,
          "time": 130.28558399999824,
          "velocity": 0.7559055118110236,
          "duration": 0.10714275000000839
        },
        {
          "name": "C4",
          "midi": 60,
          "time": 130.49986949999825,
          "velocity": 0.7559055118110236,
          "duration": 0.10714275000000839
        },
        {
          "name": "C5",
          "midi": 72,
          "time": 130.49986949999825,
          "velocity": 0.7559055118110236,
          "duration": 0.10714275000000839
        },
        {
          "name": "C6",
          "midi": 84,
          "time": 130.49986949999825,
          "velocity": 0.7559055118110236,
          "duration": 0.10714275000000839
        },
        {
          "name": "C7",
          "midi": 96,
          "time": 130.49986949999825,
          "velocity": 0.7559055118110236,
          "duration": 0.10714275000000839
        },
        {
          "name": "C4",
          "midi": 60,
          "time": 130.71415499999827,
          "velocity": 0.7559055118110236,
          "duration": 0.10714275000000839
        },
        {
          "name": "C5",
          "midi": 72,
          "time": 130.71415499999827,
          "velocity": 0.7559055118110236,
          "duration": 0.10714275000000839
        },
        {
          "name": "C6",
          "midi": 84,
          "time": 130.71415499999827,
          "velocity": 0.7559055118110236,
          "duration": 0.10714275000000839
        },
        {
          "name": "C7",
          "midi": 96,
          "time": 130.71415499999827,
          "velocity": 0.7559055118110236,
          "duration": 0.10714275000000839
        },
        {
          "name": "C4",
          "midi": 60,
          "time": 130.9284404999983,
          "velocity": 0.7559055118110236,
          "duration": 0.10714275000000839
        },
        {
          "name": "C5",
          "midi": 72,
          "time": 130.9284404999983,
          "velocity": 0.7559055118110236,
          "duration": 0.10714275000000839
        },
        {
          "name": "C6",
          "midi": 84,
          "time": 130.9284404999983,
          "velocity": 0.7559055118110236,
          "duration": 0.10714275000000839
        },
        {
          "name": "C7",
          "midi": 96,
          "time": 130.9284404999983,
          "velocity": 0.7559055118110236,
          "duration": 0.10714275000000839
        },
        {
          "name": "D#4",
          "midi": 63,
          "time": 131.1427259999983,
          "velocity": 0.7559055118110236,
          "duration": 0.42857100000000514
        },
        {
          "name": "D#5",
          "midi": 75,
          "time": 131.1427259999983,
          "velocity": 0.7559055118110236,
          "duration": 0.42857100000000514
        },
        {
          "name": "D#6",
          "midi": 87,
          "time": 131.1427259999983,
          "velocity": 0.7559055118110236,
          "duration": 0.42857100000000514
        },
        {
          "name": "D#7",
          "midi": 99,
          "time": 131.1427259999983,
          "velocity": 0.7559055118110236,
          "duration": 0.42857100000000514
        },
        {
          "name": "C4",
          "midi": 60,
          "time": 131.67843974999832,
          "velocity": 0.7559055118110236,
          "duration": 0.10714275000000839
        },
        {
          "name": "C5",
          "midi": 72,
          "time": 131.67843974999832,
          "velocity": 0.7559055118110236,
          "duration": 0.10714275000000839
        },
        {
          "name": "C6",
          "midi": 84,
          "time": 131.67843974999832,
          "velocity": 0.7559055118110236,
          "duration": 0.10714275000000839
        },
        {
          "name": "C7",
          "midi": 96,
          "time": 131.67843974999832,
          "velocity": 0.7559055118110236,
          "duration": 0.10714275000000839
        },
        {
          "name": "C4",
          "midi": 60,
          "time": 131.78558249999833,
          "velocity": 0.7559055118110236,
          "duration": 0.10714275000000839
        },
        {
          "name": "C5",
          "midi": 72,
          "time": 131.78558249999833,
          "velocity": 0.7559055118110236,
          "duration": 0.10714275000000839
        },
        {
          "name": "C6",
          "midi": 84,
          "time": 131.78558249999833,
          "velocity": 0.7559055118110236,
          "duration": 0.10714275000000839
        },
        {
          "name": "C7",
          "midi": 96,
          "time": 131.78558249999833,
          "velocity": 0.7559055118110236,
          "duration": 0.10714275000000839
        },
        {
          "name": "C4",
          "midi": 60,
          "time": 131.99986799999834,
          "velocity": 0.7559055118110236,
          "duration": 0.10714275000000839
        },
        {
          "name": "C5",
          "midi": 72,
          "time": 131.99986799999834,
          "velocity": 0.7559055118110236,
          "duration": 0.10714275000000839
        },
        {
          "name": "C6",
          "midi": 84,
          "time": 131.99986799999834,
          "velocity": 0.7559055118110236,
          "duration": 0.10714275000000839
        },
        {
          "name": "C7",
          "midi": 96,
          "time": 131.99986799999834,
          "velocity": 0.7559055118110236,
          "duration": 0.10714275000000839
        },
        {
          "name": "C4",
          "midi": 60,
          "time": 132.10701074999835,
          "velocity": 0.7559055118110236,
          "duration": 0.10714275000000839
        },
        {
          "name": "C5",
          "midi": 72,
          "time": 132.10701074999835,
          "velocity": 0.7559055118110236,
          "duration": 0.10714275000000839
        },
        {
          "name": "C6",
          "midi": 84,
          "time": 132.10701074999835,
          "velocity": 0.7559055118110236,
          "duration": 0.10714275000000839
        },
        {
          "name": "C7",
          "midi": 96,
          "time": 132.10701074999835,
          "velocity": 0.7559055118110236,
          "duration": 0.10714275000000839
        },
        {
          "name": "C4",
          "midi": 60,
          "time": 133.39272374999837,
          "velocity": 0.7559055118110236,
          "duration": 0.10714275000000839
        },
        {
          "name": "C5",
          "midi": 72,
          "time": 133.39272374999837,
          "velocity": 0.7559055118110236,
          "duration": 0.10714275000000839
        },
        {
          "name": "C6",
          "midi": 84,
          "time": 133.39272374999837,
          "velocity": 0.7559055118110236,
          "duration": 0.10714275000000839
        },
        {
          "name": "C7",
          "midi": 96,
          "time": 133.39272374999837,
          "velocity": 0.7559055118110236,
          "duration": 0.10714275000000839
        },
        {
          "name": "C4",
          "midi": 60,
          "time": 133.49986649999838,
          "velocity": 0.7559055118110236,
          "duration": 0.10714275000000839
        },
        {
          "name": "C5",
          "midi": 72,
          "time": 133.49986649999838,
          "velocity": 0.7559055118110236,
          "duration": 0.10714275000000839
        },
        {
          "name": "C6",
          "midi": 84,
          "time": 133.49986649999838,
          "velocity": 0.7559055118110236,
          "duration": 0.10714275000000839
        },
        {
          "name": "C7",
          "midi": 96,
          "time": 133.49986649999838,
          "velocity": 0.7559055118110236,
          "duration": 0.10714275000000839
        },
        {
          "name": "C4",
          "midi": 60,
          "time": 133.7141519999984,
          "velocity": 0.7559055118110236,
          "duration": 0.10714275000000839
        },
        {
          "name": "C5",
          "midi": 72,
          "time": 133.7141519999984,
          "velocity": 0.7559055118110236,
          "duration": 0.10714275000000839
        },
        {
          "name": "C6",
          "midi": 84,
          "time": 133.7141519999984,
          "velocity": 0.7559055118110236,
          "duration": 0.10714275000000839
        },
        {
          "name": "C7",
          "midi": 96,
          "time": 133.7141519999984,
          "velocity": 0.7559055118110236,
          "duration": 0.10714275000000839
        },
        {
          "name": "C4",
          "midi": 60,
          "time": 133.9284374999984,
          "velocity": 0.7559055118110236,
          "duration": 0.10714275000000839
        },
        {
          "name": "C5",
          "midi": 72,
          "time": 133.9284374999984,
          "velocity": 0.7559055118110236,
          "duration": 0.10714275000000839
        },
        {
          "name": "C6",
          "midi": 84,
          "time": 133.9284374999984,
          "velocity": 0.7559055118110236,
          "duration": 0.10714275000000839
        },
        {
          "name": "C7",
          "midi": 96,
          "time": 133.9284374999984,
          "velocity": 0.7559055118110236,
          "duration": 0.10714275000000839
        },
        {
          "name": "C4",
          "midi": 60,
          "time": 134.14272299999843,
          "velocity": 0.7559055118110236,
          "duration": 0.10714275000000839
        },
        {
          "name": "C5",
          "midi": 72,
          "time": 134.14272299999843,
          "velocity": 0.7559055118110236,
          "duration": 0.10714275000000839
        },
        {
          "name": "C6",
          "midi": 84,
          "time": 134.14272299999843,
          "velocity": 0.7559055118110236,
          "duration": 0.10714275000000839
        },
        {
          "name": "C7",
          "midi": 96,
          "time": 134.14272299999843,
          "velocity": 0.7559055118110236,
          "duration": 0.10714275000000839
        },
        {
          "name": "C4",
          "midi": 60,
          "time": 134.35700849999844,
          "velocity": 0.7559055118110236,
          "duration": 0.10714275000000839
        },
        {
          "name": "C5",
          "midi": 72,
          "time": 134.35700849999844,
          "velocity": 0.7559055118110236,
          "duration": 0.10714275000000839
        },
        {
          "name": "C6",
          "midi": 84,
          "time": 134.35700849999844,
          "velocity": 0.7559055118110236,
          "duration": 0.10714275000000839
        },
        {
          "name": "C7",
          "midi": 96,
          "time": 134.35700849999844,
          "velocity": 0.7559055118110236,
          "duration": 0.10714275000000839
        },
        {
          "name": "E4",
          "midi": 64,
          "time": 134.57129399999846,
          "velocity": 0.7559055118110236,
          "duration": 0.42857100000000514
        },
        {
          "name": "E5",
          "midi": 76,
          "time": 134.57129399999846,
          "velocity": 0.7559055118110236,
          "duration": 0.42857100000000514
        },
        {
          "name": "E6",
          "midi": 88,
          "time": 134.57129399999846,
          "velocity": 0.7559055118110236,
          "duration": 0.42857100000000514
        },
        {
          "name": "E7",
          "midi": 100,
          "time": 134.57129399999846,
          "velocity": 0.7559055118110236,
          "duration": 0.42857100000000514
        },
        {
          "name": "C4",
          "midi": 60,
          "time": 135.10700774999847,
          "velocity": 0.7559055118110236,
          "duration": 0.10714275000000839
        },
        {
          "name": "C5",
          "midi": 72,
          "time": 135.10700774999847,
          "velocity": 0.7559055118110236,
          "duration": 0.10714275000000839
        },
        {
          "name": "C6",
          "midi": 84,
          "time": 135.10700774999847,
          "velocity": 0.7559055118110236,
          "duration": 0.10714275000000839
        },
        {
          "name": "C7",
          "midi": 96,
          "time": 135.10700774999847,
          "velocity": 0.7559055118110236,
          "duration": 0.10714275000000839
        },
        {
          "name": "C4",
          "midi": 60,
          "time": 135.21415049999848,
          "velocity": 0.7559055118110236,
          "duration": 0.10714275000000839
        },
        {
          "name": "C5",
          "midi": 72,
          "time": 135.21415049999848,
          "velocity": 0.7559055118110236,
          "duration": 0.10714275000000839
        },
        {
          "name": "C6",
          "midi": 84,
          "time": 135.21415049999848,
          "velocity": 0.7559055118110236,
          "duration": 0.10714275000000839
        },
        {
          "name": "C7",
          "midi": 96,
          "time": 135.21415049999848,
          "velocity": 0.7559055118110236,
          "duration": 0.10714275000000839
        },
        {
          "name": "C4",
          "midi": 60,
          "time": 135.4284359999985,
          "velocity": 0.7559055118110236,
          "duration": 0.10714275000000839
        },
        {
          "name": "C5",
          "midi": 72,
          "time": 135.4284359999985,
          "velocity": 0.7559055118110236,
          "duration": 0.10714275000000839
        },
        {
          "name": "C6",
          "midi": 84,
          "time": 135.4284359999985,
          "velocity": 0.7559055118110236,
          "duration": 0.10714275000000839
        },
        {
          "name": "C7",
          "midi": 96,
          "time": 135.4284359999985,
          "velocity": 0.7559055118110236,
          "duration": 0.10714275000000839
        },
        {
          "name": "C4",
          "midi": 60,
          "time": 135.5355787499985,
          "velocity": 0.7559055118110236,
          "duration": 0.10714275000000839
        },
        {
          "name": "C5",
          "midi": 72,
          "time": 135.5355787499985,
          "velocity": 0.7559055118110236,
          "duration": 0.10714275000000839
        },
        {
          "name": "C6",
          "midi": 84,
          "time": 135.5355787499985,
          "velocity": 0.7559055118110236,
          "duration": 0.10714275000000839
        },
        {
          "name": "C7",
          "midi": 96,
          "time": 135.5355787499985,
          "velocity": 0.7559055118110236,
          "duration": 0.10714275000000839
        },
        {
          "name": "D4",
          "midi": 62,
          "time": 137.14271999999852,
          "velocity": 0.7559055118110236,
          "duration": 0.10714275000000839
        },
        {
          "name": "E4",
          "midi": 64,
          "time": 137.14271999999852,
          "velocity": 0.7559055118110236,
          "duration": 0.10714275000000839
        },
        {
          "name": "D5",
          "midi": 74,
          "time": 137.14271999999852,
          "velocity": 0.7559055118110236,
          "duration": 0.10714275000000839
        },
        {
          "name": "E5",
          "midi": 76,
          "time": 137.14271999999852,
          "velocity": 0.7559055118110236,
          "duration": 0.10714275000000839
        },
        {
          "name": "D6",
          "midi": 86,
          "time": 137.14271999999852,
          "velocity": 0.7559055118110236,
          "duration": 0.10714275000000839
        },
        {
          "name": "E6",
          "midi": 88,
          "time": 137.14271999999852,
          "velocity": 0.7559055118110236,
          "duration": 0.10714275000000839
        },
        {
          "name": "D7",
          "midi": 98,
          "time": 137.14271999999852,
          "velocity": 0.7559055118110236,
          "duration": 0.10714275000000839
        },
        {
          "name": "E7",
          "midi": 100,
          "time": 137.14271999999852,
          "velocity": 0.7559055118110236,
          "duration": 0.10714275000000839
        },
        {
          "name": "D4",
          "midi": 62,
          "time": 137.46414824999852,
          "velocity": 0.7559055118110236,
          "duration": 0.10714275000000839
        },
        {
          "name": "E4",
          "midi": 64,
          "time": 137.46414824999852,
          "velocity": 0.7559055118110236,
          "duration": 0.10714275000000839
        },
        {
          "name": "D5",
          "midi": 74,
          "time": 137.46414824999852,
          "velocity": 0.7559055118110236,
          "duration": 0.10714275000000839
        },
        {
          "name": "E5",
          "midi": 76,
          "time": 137.46414824999852,
          "velocity": 0.7559055118110236,
          "duration": 0.10714275000000839
        },
        {
          "name": "D6",
          "midi": 86,
          "time": 137.46414824999852,
          "velocity": 0.7559055118110236,
          "duration": 0.10714275000000839
        },
        {
          "name": "E6",
          "midi": 88,
          "time": 137.46414824999852,
          "velocity": 0.7559055118110236,
          "duration": 0.10714275000000839
        },
        {
          "name": "D7",
          "midi": 98,
          "time": 137.46414824999852,
          "velocity": 0.7559055118110236,
          "duration": 0.10714275000000839
        },
        {
          "name": "E7",
          "midi": 100,
          "time": 137.46414824999852,
          "velocity": 0.7559055118110236,
          "duration": 0.10714275000000839
        },
        {
          "name": "D4",
          "midi": 62,
          "time": 137.7855764999985,
          "velocity": 0.7559055118110236,
          "duration": 0.10714275000000839
        },
        {
          "name": "E4",
          "midi": 64,
          "time": 137.7855764999985,
          "velocity": 0.7559055118110236,
          "duration": 0.10714275000000839
        },
        {
          "name": "D5",
          "midi": 74,
          "time": 137.7855764999985,
          "velocity": 0.7559055118110236,
          "duration": 0.10714275000000839
        },
        {
          "name": "E5",
          "midi": 76,
          "time": 137.7855764999985,
          "velocity": 0.7559055118110236,
          "duration": 0.10714275000000839
        },
        {
          "name": "D6",
          "midi": 86,
          "time": 137.7855764999985,
          "velocity": 0.7559055118110236,
          "duration": 0.10714275000000839
        },
        {
          "name": "E6",
          "midi": 88,
          "time": 137.7855764999985,
          "velocity": 0.7559055118110236,
          "duration": 0.10714275000000839
        },
        {
          "name": "D7",
          "midi": 98,
          "time": 137.7855764999985,
          "velocity": 0.7559055118110236,
          "duration": 0.10714275000000839
        },
        {
          "name": "E7",
          "midi": 100,
          "time": 137.7855764999985,
          "velocity": 0.7559055118110236,
          "duration": 0.10714275000000839
        },
        {
          "name": "D4",
          "midi": 62,
          "time": 138.1070047499985,
          "velocity": 0.7559055118110236,
          "duration": 0.10714275000000839
        },
        {
          "name": "E4",
          "midi": 64,
          "time": 138.1070047499985,
          "velocity": 0.7559055118110236,
          "duration": 0.10714275000000839
        },
        {
          "name": "D5",
          "midi": 74,
          "time": 138.1070047499985,
          "velocity": 0.7559055118110236,
          "duration": 0.10714275000000839
        },
        {
          "name": "E5",
          "midi": 76,
          "time": 138.1070047499985,
          "velocity": 0.7559055118110236,
          "duration": 0.10714275000000839
        },
        {
          "name": "D6",
          "midi": 86,
          "time": 138.1070047499985,
          "velocity": 0.7559055118110236,
          "duration": 0.10714275000000839
        },
        {
          "name": "E6",
          "midi": 88,
          "time": 138.1070047499985,
          "velocity": 0.7559055118110236,
          "duration": 0.10714275000000839
        },
        {
          "name": "D7",
          "midi": 98,
          "time": 138.1070047499985,
          "velocity": 0.7559055118110236,
          "duration": 0.10714275000000839
        },
        {
          "name": "E7",
          "midi": 100,
          "time": 138.1070047499985,
          "velocity": 0.7559055118110236,
          "duration": 0.10714275000000839
        },
        {
          "name": "D4",
          "midi": 62,
          "time": 138.4284329999985,
          "velocity": 0.7559055118110236,
          "duration": 0.10714275000000839
        },
        {
          "name": "E4",
          "midi": 64,
          "time": 138.4284329999985,
          "velocity": 0.7559055118110236,
          "duration": 0.10714275000000839
        },
        {
          "name": "D5",
          "midi": 74,
          "time": 138.4284329999985,
          "velocity": 0.7559055118110236,
          "duration": 0.10714275000000839
        },
        {
          "name": "E5",
          "midi": 76,
          "time": 138.4284329999985,
          "velocity": 0.7559055118110236,
          "duration": 0.10714275000000839
        },
        {
          "name": "D6",
          "midi": 86,
          "time": 138.4284329999985,
          "velocity": 0.7559055118110236,
          "duration": 0.10714275000000839
        },
        {
          "name": "E6",
          "midi": 88,
          "time": 138.4284329999985,
          "velocity": 0.7559055118110236,
          "duration": 0.10714275000000839
        },
        {
          "name": "D7",
          "midi": 98,
          "time": 138.4284329999985,
          "velocity": 0.7559055118110236,
          "duration": 0.10714275000000839
        },
        {
          "name": "E7",
          "midi": 100,
          "time": 138.4284329999985,
          "velocity": 0.7559055118110236,
          "duration": 0.10714275000000839
        },
        {
          "name": "D4",
          "midi": 62,
          "time": 138.53557574999851,
          "velocity": 0.7559055118110236,
          "duration": 0.10714275000000839
        },
        {
          "name": "E4",
          "midi": 64,
          "time": 138.53557574999851,
          "velocity": 0.7559055118110236,
          "duration": 0.10714275000000839
        },
        {
          "name": "D5",
          "midi": 74,
          "time": 138.53557574999851,
          "velocity": 0.7559055118110236,
          "duration": 0.10714275000000839
        },
        {
          "name": "E5",
          "midi": 76,
          "time": 138.53557574999851,
          "velocity": 0.7559055118110236,
          "duration": 0.10714275000000839
        },
        {
          "name": "D6",
          "midi": 86,
          "time": 138.53557574999851,
          "velocity": 0.7559055118110236,
          "duration": 0.10714275000000839
        },
        {
          "name": "E6",
          "midi": 88,
          "time": 138.53557574999851,
          "velocity": 0.7559055118110236,
          "duration": 0.10714275000000839
        },
        {
          "name": "D7",
          "midi": 98,
          "time": 138.53557574999851,
          "velocity": 0.7559055118110236,
          "duration": 0.10714275000000839
        },
        {
          "name": "E7",
          "midi": 100,
          "time": 138.53557574999851,
          "velocity": 0.7559055118110236,
          "duration": 0.10714275000000839
        },
        {
          "name": "D4",
          "midi": 62,
          "time": 138.64271849999852,
          "velocity": 0.7559055118110236,
          "duration": 0.10714275000000839
        },
        {
          "name": "E4",
          "midi": 64,
          "time": 138.64271849999852,
          "velocity": 0.7559055118110236,
          "duration": 0.10714275000000839
        },
        {
          "name": "D5",
          "midi": 74,
          "time": 138.64271849999852,
          "velocity": 0.7559055118110236,
          "duration": 0.10714275000000839
        },
        {
          "name": "E5",
          "midi": 76,
          "time": 138.64271849999852,
          "velocity": 0.7559055118110236,
          "duration": 0.10714275000000839
        },
        {
          "name": "D6",
          "midi": 86,
          "time": 138.64271849999852,
          "velocity": 0.7559055118110236,
          "duration": 0.10714275000000839
        },
        {
          "name": "E6",
          "midi": 88,
          "time": 138.64271849999852,
          "velocity": 0.7559055118110236,
          "duration": 0.10714275000000839
        },
        {
          "name": "D7",
          "midi": 98,
          "time": 138.64271849999852,
          "velocity": 0.7559055118110236,
          "duration": 0.10714275000000839
        },
        {
          "name": "E7",
          "midi": 100,
          "time": 138.64271849999852,
          "velocity": 0.7559055118110236,
          "duration": 0.10714275000000839
        },
        {
          "name": "D4",
          "midi": 62,
          "time": 138.74986124999853,
          "velocity": 0.7559055118110236,
          "duration": 0.10714275000000839
        },
        {
          "name": "E4",
          "midi": 64,
          "time": 138.74986124999853,
          "velocity": 0.7559055118110236,
          "duration": 0.10714275000000839
        },
        {
          "name": "D5",
          "midi": 74,
          "time": 138.74986124999853,
          "velocity": 0.7559055118110236,
          "duration": 0.10714275000000839
        },
        {
          "name": "E5",
          "midi": 76,
          "time": 138.74986124999853,
          "velocity": 0.7559055118110236,
          "duration": 0.10714275000000839
        },
        {
          "name": "D6",
          "midi": 86,
          "time": 138.74986124999853,
          "velocity": 0.7559055118110236,
          "duration": 0.10714275000000839
        },
        {
          "name": "E6",
          "midi": 88,
          "time": 138.74986124999853,
          "velocity": 0.7559055118110236,
          "duration": 0.10714275000000839
        },
        {
          "name": "D7",
          "midi": 98,
          "time": 138.74986124999853,
          "velocity": 0.7559055118110236,
          "duration": 0.10714275000000839
        },
        {
          "name": "E7",
          "midi": 100,
          "time": 138.74986124999853,
          "velocity": 0.7559055118110236,
          "duration": 0.10714275000000839
        },
        {
          "name": "C#4",
          "midi": 61,
          "time": 138.85700399999854,
          "velocity": 0.7559055118110236,
          "duration": 0.10714275000000839
        },
        {
          "name": "D#4",
          "midi": 63,
          "time": 138.85700399999854,
          "velocity": 0.7559055118110236,
          "duration": 0.10714275000000839
        },
        {
          "name": "C#5",
          "midi": 73,
          "time": 138.85700399999854,
          "velocity": 0.7559055118110236,
          "duration": 0.10714275000000839
        },
        {
          "name": "D#5",
          "midi": 75,
          "time": 138.85700399999854,
          "velocity": 0.7559055118110236,
          "duration": 0.10714275000000839
        },
        {
          "name": "C#6",
          "midi": 85,
          "time": 138.85700399999854,
          "velocity": 0.7559055118110236,
          "duration": 0.10714275000000839
        },
        {
          "name": "D#6",
          "midi": 87,
          "time": 138.85700399999854,
          "velocity": 0.7559055118110236,
          "duration": 0.10714275000000839
        },
        {
          "name": "C#7",
          "midi": 97,
          "time": 138.85700399999854,
          "velocity": 0.7559055118110236,
          "duration": 0.10714275000000839
        },
        {
          "name": "D#7",
          "midi": 99,
          "time": 138.85700399999854,
          "velocity": 0.7559055118110236,
          "duration": 0.10714275000000839
        },
        {
          "name": "C#4",
          "midi": 61,
          "time": 139.17843224999854,
          "velocity": 0.7559055118110236,
          "duration": 0.10714275000000839
        },
        {
          "name": "D#4",
          "midi": 63,
          "time": 139.17843224999854,
          "velocity": 0.7559055118110236,
          "duration": 0.10714275000000839
        },
        {
          "name": "C#5",
          "midi": 73,
          "time": 139.17843224999854,
          "velocity": 0.7559055118110236,
          "duration": 0.10714275000000839
        },
        {
          "name": "D#5",
          "midi": 75,
          "time": 139.17843224999854,
          "velocity": 0.7559055118110236,
          "duration": 0.10714275000000839
        },
        {
          "name": "C#6",
          "midi": 85,
          "time": 139.17843224999854,
          "velocity": 0.7559055118110236,
          "duration": 0.10714275000000839
        },
        {
          "name": "D#6",
          "midi": 87,
          "time": 139.17843224999854,
          "velocity": 0.7559055118110236,
          "duration": 0.10714275000000839
        },
        {
          "name": "C#7",
          "midi": 97,
          "time": 139.17843224999854,
          "velocity": 0.7559055118110236,
          "duration": 0.10714275000000839
        },
        {
          "name": "D#7",
          "midi": 99,
          "time": 139.17843224999854,
          "velocity": 0.7559055118110236,
          "duration": 0.10714275000000839
        },
        {
          "name": "C#4",
          "midi": 61,
          "time": 139.49986049999853,
          "velocity": 0.7559055118110236,
          "duration": 0.10714275000000839
        },
        {
          "name": "D#4",
          "midi": 63,
          "time": 139.49986049999853,
          "velocity": 0.7559055118110236,
          "duration": 0.10714275000000839
        },
        {
          "name": "C#5",
          "midi": 73,
          "time": 139.49986049999853,
          "velocity": 0.7559055118110236,
          "duration": 0.10714275000000839
        },
        {
          "name": "D#5",
          "midi": 75,
          "time": 139.49986049999853,
          "velocity": 0.7559055118110236,
          "duration": 0.10714275000000839
        },
        {
          "name": "C#6",
          "midi": 85,
          "time": 139.49986049999853,
          "velocity": 0.7559055118110236,
          "duration": 0.10714275000000839
        },
        {
          "name": "D#6",
          "midi": 87,
          "time": 139.49986049999853,
          "velocity": 0.7559055118110236,
          "duration": 0.10714275000000839
        },
        {
          "name": "C#7",
          "midi": 97,
          "time": 139.49986049999853,
          "velocity": 0.7559055118110236,
          "duration": 0.10714275000000839
        },
        {
          "name": "D#7",
          "midi": 99,
          "time": 139.49986049999853,
          "velocity": 0.7559055118110236,
          "duration": 0.10714275000000839
        },
        {
          "name": "C#4",
          "midi": 61,
          "time": 139.82128874999853,
          "velocity": 0.7559055118110236,
          "duration": 0.10714275000000839
        },
        {
          "name": "D#4",
          "midi": 63,
          "time": 139.82128874999853,
          "velocity": 0.7559055118110236,
          "duration": 0.10714275000000839
        },
        {
          "name": "C#5",
          "midi": 73,
          "time": 139.82128874999853,
          "velocity": 0.7559055118110236,
          "duration": 0.10714275000000839
        },
        {
          "name": "D#5",
          "midi": 75,
          "time": 139.82128874999853,
          "velocity": 0.7559055118110236,
          "duration": 0.10714275000000839
        },
        {
          "name": "C#6",
          "midi": 85,
          "time": 139.82128874999853,
          "velocity": 0.7559055118110236,
          "duration": 0.10714275000000839
        },
        {
          "name": "D#6",
          "midi": 87,
          "time": 139.82128874999853,
          "velocity": 0.7559055118110236,
          "duration": 0.10714275000000839
        },
        {
          "name": "C#7",
          "midi": 97,
          "time": 139.82128874999853,
          "velocity": 0.7559055118110236,
          "duration": 0.10714275000000839
        },
        {
          "name": "D#7",
          "midi": 99,
          "time": 139.82128874999853,
          "velocity": 0.7559055118110236,
          "duration": 0.10714275000000839
        },
        {
          "name": "C#4",
          "midi": 61,
          "time": 140.14271699999853,
          "velocity": 0.7559055118110236,
          "duration": 0.10714275000000839
        },
        {
          "name": "D#4",
          "midi": 63,
          "time": 140.14271699999853,
          "velocity": 0.7559055118110236,
          "duration": 0.10714275000000839
        },
        {
          "name": "C#5",
          "midi": 73,
          "time": 140.14271699999853,
          "velocity": 0.7559055118110236,
          "duration": 0.10714275000000839
        },
        {
          "name": "D#5",
          "midi": 75,
          "time": 140.14271699999853,
          "velocity": 0.7559055118110236,
          "duration": 0.10714275000000839
        },
        {
          "name": "C#6",
          "midi": 85,
          "time": 140.14271699999853,
          "velocity": 0.7559055118110236,
          "duration": 0.10714275000000839
        },
        {
          "name": "D#6",
          "midi": 87,
          "time": 140.14271699999853,
          "velocity": 0.7559055118110236,
          "duration": 0.10714275000000839
        },
        {
          "name": "C#7",
          "midi": 97,
          "time": 140.14271699999853,
          "velocity": 0.7559055118110236,
          "duration": 0.10714275000000839
        },
        {
          "name": "D#7",
          "midi": 99,
          "time": 140.14271699999853,
          "velocity": 0.7559055118110236,
          "duration": 0.10714275000000839
        },
        {
          "name": "C#4",
          "midi": 61,
          "time": 140.24985974999854,
          "velocity": 0.7559055118110236,
          "duration": 0.10714275000000839
        },
        {
          "name": "D#4",
          "midi": 63,
          "time": 140.24985974999854,
          "velocity": 0.7559055118110236,
          "duration": 0.10714275000000839
        },
        {
          "name": "C#5",
          "midi": 73,
          "time": 140.24985974999854,
          "velocity": 0.7559055118110236,
          "duration": 0.10714275000000839
        },
        {
          "name": "D#5",
          "midi": 75,
          "time": 140.24985974999854,
          "velocity": 0.7559055118110236,
          "duration": 0.10714275000000839
        },
        {
          "name": "C#6",
          "midi": 85,
          "time": 140.24985974999854,
          "velocity": 0.7559055118110236,
          "duration": 0.10714275000000839
        },
        {
          "name": "D#6",
          "midi": 87,
          "time": 140.24985974999854,
          "velocity": 0.7559055118110236,
          "duration": 0.10714275000000839
        },
        {
          "name": "C#7",
          "midi": 97,
          "time": 140.24985974999854,
          "velocity": 0.7559055118110236,
          "duration": 0.10714275000000839
        },
        {
          "name": "D#7",
          "midi": 99,
          "time": 140.24985974999854,
          "velocity": 0.7559055118110236,
          "duration": 0.10714275000000839
        },
        {
          "name": "C#4",
          "midi": 61,
          "time": 140.35700249999854,
          "velocity": 0.7559055118110236,
          "duration": 0.10714275000000839
        },
        {
          "name": "D#4",
          "midi": 63,
          "time": 140.35700249999854,
          "velocity": 0.7559055118110236,
          "duration": 0.10714275000000839
        },
        {
          "name": "C#5",
          "midi": 73,
          "time": 140.35700249999854,
          "velocity": 0.7559055118110236,
          "duration": 0.10714275000000839
        },
        {
          "name": "D#5",
          "midi": 75,
          "time": 140.35700249999854,
          "velocity": 0.7559055118110236,
          "duration": 0.10714275000000839
        },
        {
          "name": "C#6",
          "midi": 85,
          "time": 140.35700249999854,
          "velocity": 0.7559055118110236,
          "duration": 0.10714275000000839
        },
        {
          "name": "D#6",
          "midi": 87,
          "time": 140.35700249999854,
          "velocity": 0.7559055118110236,
          "duration": 0.10714275000000839
        },
        {
          "name": "C#7",
          "midi": 97,
          "time": 140.35700249999854,
          "velocity": 0.7559055118110236,
          "duration": 0.10714275000000839
        },
        {
          "name": "D#7",
          "midi": 99,
          "time": 140.35700249999854,
          "velocity": 0.7559055118110236,
          "duration": 0.10714275000000839
        },
        {
          "name": "C#4",
          "midi": 61,
          "time": 140.46414524999855,
          "velocity": 0.7559055118110236,
          "duration": 0.10714275000000839
        },
        {
          "name": "D#4",
          "midi": 63,
          "time": 140.46414524999855,
          "velocity": 0.7559055118110236,
          "duration": 0.10714275000000839
        },
        {
          "name": "C#5",
          "midi": 73,
          "time": 140.46414524999855,
          "velocity": 0.7559055118110236,
          "duration": 0.10714275000000839
        },
        {
          "name": "D#5",
          "midi": 75,
          "time": 140.46414524999855,
          "velocity": 0.7559055118110236,
          "duration": 0.10714275000000839
        },
        {
          "name": "C#6",
          "midi": 85,
          "time": 140.46414524999855,
          "velocity": 0.7559055118110236,
          "duration": 0.10714275000000839
        },
        {
          "name": "D#6",
          "midi": 87,
          "time": 140.46414524999855,
          "velocity": 0.7559055118110236,
          "duration": 0.10714275000000839
        },
        {
          "name": "C#7",
          "midi": 97,
          "time": 140.46414524999855,
          "velocity": 0.7559055118110236,
          "duration": 0.10714275000000839
        },
        {
          "name": "D#7",
          "midi": 99,
          "time": 140.46414524999855,
          "velocity": 0.7559055118110236,
          "duration": 0.10714275000000839
        },
        {
          "name": "C4",
          "midi": 60,
          "time": 140.57128799999856,
          "velocity": 0.7559055118110236,
          "duration": 0.10714275000000839
        },
        {
          "name": "D4",
          "midi": 62,
          "time": 140.57128799999856,
          "velocity": 0.7559055118110236,
          "duration": 0.10714275000000839
        },
        {
          "name": "C5",
          "midi": 72,
          "time": 140.57128799999856,
          "velocity": 0.7559055118110236,
          "duration": 0.10714275000000839
        },
        {
          "name": "D5",
          "midi": 74,
          "time": 140.57128799999856,
          "velocity": 0.7559055118110236,
          "duration": 0.10714275000000839
        },
        {
          "name": "C6",
          "midi": 84,
          "time": 140.57128799999856,
          "velocity": 0.7559055118110236,
          "duration": 0.10714275000000839
        },
        {
          "name": "D6",
          "midi": 86,
          "time": 140.57128799999856,
          "velocity": 0.7559055118110236,
          "duration": 0.10714275000000839
        },
        {
          "name": "C7",
          "midi": 96,
          "time": 140.57128799999856,
          "velocity": 0.7559055118110236,
          "duration": 0.10714275000000839
        },
        {
          "name": "D7",
          "midi": 98,
          "time": 140.57128799999856,
          "velocity": 0.7559055118110236,
          "duration": 0.10714275000000839
        },
        {
          "name": "C4",
          "midi": 60,
          "time": 140.89271624999856,
          "velocity": 0.7559055118110236,
          "duration": 0.10714275000000839
        },
        {
          "name": "D4",
          "midi": 62,
          "time": 140.89271624999856,
          "velocity": 0.7559055118110236,
          "duration": 0.10714275000000839
        },
        {
          "name": "C5",
          "midi": 72,
          "time": 140.89271624999856,
          "velocity": 0.7559055118110236,
          "duration": 0.10714275000000839
        },
        {
          "name": "D5",
          "midi": 74,
          "time": 140.89271624999856,
          "velocity": 0.7559055118110236,
          "duration": 0.10714275000000839
        },
        {
          "name": "C6",
          "midi": 84,
          "time": 140.89271624999856,
          "velocity": 0.7559055118110236,
          "duration": 0.10714275000000839
        },
        {
          "name": "D6",
          "midi": 86,
          "time": 140.89271624999856,
          "velocity": 0.7559055118110236,
          "duration": 0.10714275000000839
        },
        {
          "name": "C7",
          "midi": 96,
          "time": 140.89271624999856,
          "velocity": 0.7559055118110236,
          "duration": 0.10714275000000839
        },
        {
          "name": "D7",
          "midi": 98,
          "time": 140.89271624999856,
          "velocity": 0.7559055118110236,
          "duration": 0.10714275000000839
        },
        {
          "name": "C4",
          "midi": 60,
          "time": 141.21414449999855,
          "velocity": 0.7559055118110236,
          "duration": 0.10714275000000839
        },
        {
          "name": "D4",
          "midi": 62,
          "time": 141.21414449999855,
          "velocity": 0.7559055118110236,
          "duration": 0.10714275000000839
        },
        {
          "name": "C5",
          "midi": 72,
          "time": 141.21414449999855,
          "velocity": 0.7559055118110236,
          "duration": 0.10714275000000839
        },
        {
          "name": "D5",
          "midi": 74,
          "time": 141.21414449999855,
          "velocity": 0.7559055118110236,
          "duration": 0.10714275000000839
        },
        {
          "name": "C6",
          "midi": 84,
          "time": 141.21414449999855,
          "velocity": 0.7559055118110236,
          "duration": 0.10714275000000839
        },
        {
          "name": "D6",
          "midi": 86,
          "time": 141.21414449999855,
          "velocity": 0.7559055118110236,
          "duration": 0.10714275000000839
        },
        {
          "name": "C7",
          "midi": 96,
          "time": 141.21414449999855,
          "velocity": 0.7559055118110236,
          "duration": 0.10714275000000839
        },
        {
          "name": "D7",
          "midi": 98,
          "time": 141.21414449999855,
          "velocity": 0.7559055118110236,
          "duration": 0.10714275000000839
        },
        {
          "name": "C4",
          "midi": 60,
          "time": 141.53557274999855,
          "velocity": 0.7559055118110236,
          "duration": 0.10714275000000839
        },
        {
          "name": "D4",
          "midi": 62,
          "time": 141.53557274999855,
          "velocity": 0.7559055118110236,
          "duration": 0.10714275000000839
        },
        {
          "name": "C5",
          "midi": 72,
          "time": 141.53557274999855,
          "velocity": 0.7559055118110236,
          "duration": 0.10714275000000839
        },
        {
          "name": "D5",
          "midi": 74,
          "time": 141.53557274999855,
          "velocity": 0.7559055118110236,
          "duration": 0.10714275000000839
        },
        {
          "name": "C6",
          "midi": 84,
          "time": 141.53557274999855,
          "velocity": 0.7559055118110236,
          "duration": 0.10714275000000839
        },
        {
          "name": "D6",
          "midi": 86,
          "time": 141.53557274999855,
          "velocity": 0.7559055118110236,
          "duration": 0.10714275000000839
        },
        {
          "name": "C7",
          "midi": 96,
          "time": 141.53557274999855,
          "velocity": 0.7559055118110236,
          "duration": 0.10714275000000839
        },
        {
          "name": "D7",
          "midi": 98,
          "time": 141.53557274999855,
          "velocity": 0.7559055118110236,
          "duration": 0.10714275000000839
        },
        {
          "name": "C4",
          "midi": 60,
          "time": 141.85700099999855,
          "velocity": 0.7559055118110236,
          "duration": 0.10714275000000839
        },
        {
          "name": "D4",
          "midi": 62,
          "time": 141.85700099999855,
          "velocity": 0.7559055118110236,
          "duration": 0.10714275000000839
        },
        {
          "name": "C5",
          "midi": 72,
          "time": 141.85700099999855,
          "velocity": 0.7559055118110236,
          "duration": 0.10714275000000839
        },
        {
          "name": "D5",
          "midi": 74,
          "time": 141.85700099999855,
          "velocity": 0.7559055118110236,
          "duration": 0.10714275000000839
        },
        {
          "name": "C6",
          "midi": 84,
          "time": 141.85700099999855,
          "velocity": 0.7559055118110236,
          "duration": 0.10714275000000839
        },
        {
          "name": "D6",
          "midi": 86,
          "time": 141.85700099999855,
          "velocity": 0.7559055118110236,
          "duration": 0.10714275000000839
        },
        {
          "name": "C7",
          "midi": 96,
          "time": 141.85700099999855,
          "velocity": 0.7559055118110236,
          "duration": 0.10714275000000839
        },
        {
          "name": "D7",
          "midi": 98,
          "time": 141.85700099999855,
          "velocity": 0.7559055118110236,
          "duration": 0.10714275000000839
        },
        {
          "name": "C4",
          "midi": 60,
          "time": 141.96414374999856,
          "velocity": 0.7559055118110236,
          "duration": 0.10714275000000839
        },
        {
          "name": "D4",
          "midi": 62,
          "time": 141.96414374999856,
          "velocity": 0.7559055118110236,
          "duration": 0.10714275000000839
        },
        {
          "name": "C5",
          "midi": 72,
          "time": 141.96414374999856,
          "velocity": 0.7559055118110236,
          "duration": 0.10714275000000839
        },
        {
          "name": "D5",
          "midi": 74,
          "time": 141.96414374999856,
          "velocity": 0.7559055118110236,
          "duration": 0.10714275000000839
        },
        {
          "name": "C6",
          "midi": 84,
          "time": 141.96414374999856,
          "velocity": 0.7559055118110236,
          "duration": 0.10714275000000839
        },
        {
          "name": "D6",
          "midi": 86,
          "time": 141.96414374999856,
          "velocity": 0.7559055118110236,
          "duration": 0.10714275000000839
        },
        {
          "name": "C7",
          "midi": 96,
          "time": 141.96414374999856,
          "velocity": 0.7559055118110236,
          "duration": 0.10714275000000839
        },
        {
          "name": "D7",
          "midi": 98,
          "time": 141.96414374999856,
          "velocity": 0.7559055118110236,
          "duration": 0.10714275000000839
        },
        {
          "name": "C4",
          "midi": 60,
          "time": 142.07128649999856,
          "velocity": 0.7559055118110236,
          "duration": 0.10714275000000839
        },
        {
          "name": "D4",
          "midi": 62,
          "time": 142.07128649999856,
          "velocity": 0.7559055118110236,
          "duration": 0.10714275000000839
        },
        {
          "name": "C5",
          "midi": 72,
          "time": 142.07128649999856,
          "velocity": 0.7559055118110236,
          "duration": 0.10714275000000839
        },
        {
          "name": "D5",
          "midi": 74,
          "time": 142.07128649999856,
          "velocity": 0.7559055118110236,
          "duration": 0.10714275000000839
        },
        {
          "name": "C6",
          "midi": 84,
          "time": 142.07128649999856,
          "velocity": 0.7559055118110236,
          "duration": 0.10714275000000839
        },
        {
          "name": "D6",
          "midi": 86,
          "time": 142.07128649999856,
          "velocity": 0.7559055118110236,
          "duration": 0.10714275000000839
        },
        {
          "name": "C7",
          "midi": 96,
          "time": 142.07128649999856,
          "velocity": 0.7559055118110236,
          "duration": 0.10714275000000839
        },
        {
          "name": "D7",
          "midi": 98,
          "time": 142.07128649999856,
          "velocity": 0.7559055118110236,
          "duration": 0.10714275000000839
        },
        {
          "name": "C4",
          "midi": 60,
          "time": 142.17842924999857,
          "velocity": 0.7559055118110236,
          "duration": 0.10714275000000839
        },
        {
          "name": "D4",
          "midi": 62,
          "time": 142.17842924999857,
          "velocity": 0.7559055118110236,
          "duration": 0.10714275000000839
        },
        {
          "name": "C5",
          "midi": 72,
          "time": 142.17842924999857,
          "velocity": 0.7559055118110236,
          "duration": 0.10714275000000839
        },
        {
          "name": "D5",
          "midi": 74,
          "time": 142.17842924999857,
          "velocity": 0.7559055118110236,
          "duration": 0.10714275000000839
        },
        {
          "name": "C6",
          "midi": 84,
          "time": 142.17842924999857,
          "velocity": 0.7559055118110236,
          "duration": 0.10714275000000839
        },
        {
          "name": "D6",
          "midi": 86,
          "time": 142.17842924999857,
          "velocity": 0.7559055118110236,
          "duration": 0.10714275000000839
        },
        {
          "name": "C7",
          "midi": 96,
          "time": 142.17842924999857,
          "velocity": 0.7559055118110236,
          "duration": 0.10714275000000839
        },
        {
          "name": "D7",
          "midi": 98,
          "time": 142.17842924999857,
          "velocity": 0.7559055118110236,
          "duration": 0.10714275000000839
        },
        {
          "name": "C#4",
          "midi": 61,
          "time": 142.28557199999858,
          "velocity": 0.7559055118110236,
          "duration": 0.10714275000000839
        },
        {
          "name": "D#4",
          "midi": 63,
          "time": 142.28557199999858,
          "velocity": 0.7559055118110236,
          "duration": 0.10714275000000839
        },
        {
          "name": "C#5",
          "midi": 73,
          "time": 142.28557199999858,
          "velocity": 0.7559055118110236,
          "duration": 0.10714275000000839
        },
        {
          "name": "D#5",
          "midi": 75,
          "time": 142.28557199999858,
          "velocity": 0.7559055118110236,
          "duration": 0.10714275000000839
        },
        {
          "name": "C#6",
          "midi": 85,
          "time": 142.28557199999858,
          "velocity": 0.7559055118110236,
          "duration": 0.10714275000000839
        },
        {
          "name": "D#6",
          "midi": 87,
          "time": 142.28557199999858,
          "velocity": 0.7559055118110236,
          "duration": 0.10714275000000839
        },
        {
          "name": "C#7",
          "midi": 97,
          "time": 142.28557199999858,
          "velocity": 0.7559055118110236,
          "duration": 0.10714275000000839
        },
        {
          "name": "D#7",
          "midi": 99,
          "time": 142.28557199999858,
          "velocity": 0.7559055118110236,
          "duration": 0.10714275000000839
        },
        {
          "name": "C#4",
          "midi": 61,
          "time": 142.60700024999858,
          "velocity": 0.7559055118110236,
          "duration": 0.10714275000000839
        },
        {
          "name": "D#4",
          "midi": 63,
          "time": 142.60700024999858,
          "velocity": 0.7559055118110236,
          "duration": 0.10714275000000839
        },
        {
          "name": "C#5",
          "midi": 73,
          "time": 142.60700024999858,
          "velocity": 0.7559055118110236,
          "duration": 0.10714275000000839
        },
        {
          "name": "D#5",
          "midi": 75,
          "time": 142.60700024999858,
          "velocity": 0.7559055118110236,
          "duration": 0.10714275000000839
        },
        {
          "name": "C#6",
          "midi": 85,
          "time": 142.60700024999858,
          "velocity": 0.7559055118110236,
          "duration": 0.10714275000000839
        },
        {
          "name": "D#6",
          "midi": 87,
          "time": 142.60700024999858,
          "velocity": 0.7559055118110236,
          "duration": 0.10714275000000839
        },
        {
          "name": "C#7",
          "midi": 97,
          "time": 142.60700024999858,
          "velocity": 0.7559055118110236,
          "duration": 0.10714275000000839
        },
        {
          "name": "D#7",
          "midi": 99,
          "time": 142.60700024999858,
          "velocity": 0.7559055118110236,
          "duration": 0.10714275000000839
        },
        {
          "name": "C#4",
          "midi": 61,
          "time": 142.92842849999857,
          "velocity": 0.7559055118110236,
          "duration": 0.10714275000000839
        },
        {
          "name": "D#4",
          "midi": 63,
          "time": 142.92842849999857,
          "velocity": 0.7559055118110236,
          "duration": 0.10714275000000839
        },
        {
          "name": "C#5",
          "midi": 73,
          "time": 142.92842849999857,
          "velocity": 0.7559055118110236,
          "duration": 0.10714275000000839
        },
        {
          "name": "D#5",
          "midi": 75,
          "time": 142.92842849999857,
          "velocity": 0.7559055118110236,
          "duration": 0.10714275000000839
        },
        {
          "name": "C#6",
          "midi": 85,
          "time": 142.92842849999857,
          "velocity": 0.7559055118110236,
          "duration": 0.10714275000000839
        },
        {
          "name": "D#6",
          "midi": 87,
          "time": 142.92842849999857,
          "velocity": 0.7559055118110236,
          "duration": 0.10714275000000839
        },
        {
          "name": "C#7",
          "midi": 97,
          "time": 142.92842849999857,
          "velocity": 0.7559055118110236,
          "duration": 0.10714275000000839
        },
        {
          "name": "D#7",
          "midi": 99,
          "time": 142.92842849999857,
          "velocity": 0.7559055118110236,
          "duration": 0.10714275000000839
        },
        {
          "name": "C#4",
          "midi": 61,
          "time": 143.24985674999857,
          "velocity": 0.7559055118110236,
          "duration": 0.10714275000000839
        },
        {
          "name": "D#4",
          "midi": 63,
          "time": 143.24985674999857,
          "velocity": 0.7559055118110236,
          "duration": 0.10714275000000839
        },
        {
          "name": "C#5",
          "midi": 73,
          "time": 143.24985674999857,
          "velocity": 0.7559055118110236,
          "duration": 0.10714275000000839
        },
        {
          "name": "D#5",
          "midi": 75,
          "time": 143.24985674999857,
          "velocity": 0.7559055118110236,
          "duration": 0.10714275000000839
        },
        {
          "name": "C#6",
          "midi": 85,
          "time": 143.24985674999857,
          "velocity": 0.7559055118110236,
          "duration": 0.10714275000000839
        },
        {
          "name": "D#6",
          "midi": 87,
          "time": 143.24985674999857,
          "velocity": 0.7559055118110236,
          "duration": 0.10714275000000839
        },
        {
          "name": "C#7",
          "midi": 97,
          "time": 143.24985674999857,
          "velocity": 0.7559055118110236,
          "duration": 0.10714275000000839
        },
        {
          "name": "D#7",
          "midi": 99,
          "time": 143.24985674999857,
          "velocity": 0.7559055118110236,
          "duration": 0.10714275000000839
        },
        {
          "name": "C#4",
          "midi": 61,
          "time": 143.57128499999857,
          "velocity": 0.7559055118110236,
          "duration": 0.10714275000000839
        },
        {
          "name": "D#4",
          "midi": 63,
          "time": 143.57128499999857,
          "velocity": 0.7559055118110236,
          "duration": 0.10714275000000839
        },
        {
          "name": "C#5",
          "midi": 73,
          "time": 143.57128499999857,
          "velocity": 0.7559055118110236,
          "duration": 0.10714275000000839
        },
        {
          "name": "D#5",
          "midi": 75,
          "time": 143.57128499999857,
          "velocity": 0.7559055118110236,
          "duration": 0.10714275000000839
        },
        {
          "name": "C#6",
          "midi": 85,
          "time": 143.57128499999857,
          "velocity": 0.7559055118110236,
          "duration": 0.10714275000000839
        },
        {
          "name": "D#6",
          "midi": 87,
          "time": 143.57128499999857,
          "velocity": 0.7559055118110236,
          "duration": 0.10714275000000839
        },
        {
          "name": "C#7",
          "midi": 97,
          "time": 143.57128499999857,
          "velocity": 0.7559055118110236,
          "duration": 0.10714275000000839
        },
        {
          "name": "D#7",
          "midi": 99,
          "time": 143.57128499999857,
          "velocity": 0.7559055118110236,
          "duration": 0.10714275000000839
        },
        {
          "name": "C#4",
          "midi": 61,
          "time": 143.67842774999858,
          "velocity": 0.7559055118110236,
          "duration": 0.10714275000000839
        },
        {
          "name": "D#4",
          "midi": 63,
          "time": 143.67842774999858,
          "velocity": 0.7559055118110236,
          "duration": 0.10714275000000839
        },
        {
          "name": "C#5",
          "midi": 73,
          "time": 143.67842774999858,
          "velocity": 0.7559055118110236,
          "duration": 0.10714275000000839
        },
        {
          "name": "D#5",
          "midi": 75,
          "time": 143.67842774999858,
          "velocity": 0.7559055118110236,
          "duration": 0.10714275000000839
        },
        {
          "name": "C#6",
          "midi": 85,
          "time": 143.67842774999858,
          "velocity": 0.7559055118110236,
          "duration": 0.10714275000000839
        },
        {
          "name": "D#6",
          "midi": 87,
          "time": 143.67842774999858,
          "velocity": 0.7559055118110236,
          "duration": 0.10714275000000839
        },
        {
          "name": "C#7",
          "midi": 97,
          "time": 143.67842774999858,
          "velocity": 0.7559055118110236,
          "duration": 0.10714275000000839
        },
        {
          "name": "D#7",
          "midi": 99,
          "time": 143.67842774999858,
          "velocity": 0.7559055118110236,
          "duration": 0.10714275000000839
        },
        {
          "name": "C#4",
          "midi": 61,
          "time": 143.78557049999858,
          "velocity": 0.7559055118110236,
          "duration": 0.10714275000000839
        },
        {
          "name": "D#4",
          "midi": 63,
          "time": 143.78557049999858,
          "velocity": 0.7559055118110236,
          "duration": 0.10714275000000839
        },
        {
          "name": "C#5",
          "midi": 73,
          "time": 143.78557049999858,
          "velocity": 0.7559055118110236,
          "duration": 0.10714275000000839
        },
        {
          "name": "D#5",
          "midi": 75,
          "time": 143.78557049999858,
          "velocity": 0.7559055118110236,
          "duration": 0.10714275000000839
        },
        {
          "name": "C#6",
          "midi": 85,
          "time": 143.78557049999858,
          "velocity": 0.7559055118110236,
          "duration": 0.10714275000000839
        },
        {
          "name": "D#6",
          "midi": 87,
          "time": 143.78557049999858,
          "velocity": 0.7559055118110236,
          "duration": 0.10714275000000839
        },
        {
          "name": "C#7",
          "midi": 97,
          "time": 143.78557049999858,
          "velocity": 0.7559055118110236,
          "duration": 0.10714275000000839
        },
        {
          "name": "D#7",
          "midi": 99,
          "time": 143.78557049999858,
          "velocity": 0.7559055118110236,
          "duration": 0.10714275000000839
        },
        {
          "name": "C#4",
          "midi": 61,
          "time": 143.8927132499986,
          "velocity": 0.7559055118110236,
          "duration": 0.10714275000000839
        },
        {
          "name": "D#4",
          "midi": 63,
          "time": 143.8927132499986,
          "velocity": 0.7559055118110236,
          "duration": 0.10714275000000839
        },
        {
          "name": "C#5",
          "midi": 73,
          "time": 143.8927132499986,
          "velocity": 0.7559055118110236,
          "duration": 0.10714275000000839
        },
        {
          "name": "D#5",
          "midi": 75,
          "time": 143.8927132499986,
          "velocity": 0.7559055118110236,
          "duration": 0.10714275000000839
        },
        {
          "name": "C#6",
          "midi": 85,
          "time": 143.8927132499986,
          "velocity": 0.7559055118110236,
          "duration": 0.10714275000000839
        },
        {
          "name": "D#6",
          "midi": 87,
          "time": 143.8927132499986,
          "velocity": 0.7559055118110236,
          "duration": 0.10714275000000839
        },
        {
          "name": "C#7",
          "midi": 97,
          "time": 143.8927132499986,
          "velocity": 0.7559055118110236,
          "duration": 0.10714275000000839
        },
        {
          "name": "D#7",
          "midi": 99,
          "time": 143.8927132499986,
          "velocity": 0.7559055118110236,
          "duration": 0.10714275000000839
        },
        {
          "name": "D4",
          "midi": 62,
          "time": 143.9998559999986,
          "velocity": 0.7559055118110236,
          "duration": 0.10714275000000839
        },
        {
          "name": "E4",
          "midi": 64,
          "time": 143.9998559999986,
          "velocity": 0.7559055118110236,
          "duration": 0.10714275000000839
        },
        {
          "name": "D5",
          "midi": 74,
          "time": 143.9998559999986,
          "velocity": 0.7559055118110236,
          "duration": 0.10714275000000839
        },
        {
          "name": "E5",
          "midi": 76,
          "time": 143.9998559999986,
          "velocity": 0.7559055118110236,
          "duration": 0.10714275000000839
        },
        {
          "name": "D6",
          "midi": 86,
          "time": 143.9998559999986,
          "velocity": 0.7559055118110236,
          "duration": 0.10714275000000839
        },
        {
          "name": "E6",
          "midi": 88,
          "time": 143.9998559999986,
          "velocity": 0.7559055118110236,
          "duration": 0.10714275000000839
        },
        {
          "name": "D7",
          "midi": 98,
          "time": 143.9998559999986,
          "velocity": 0.7559055118110236,
          "duration": 0.10714275000000839
        },
        {
          "name": "E7",
          "midi": 100,
          "time": 143.9998559999986,
          "velocity": 0.7559055118110236,
          "duration": 0.10714275000000839
        },
        {
          "name": "D4",
          "midi": 62,
          "time": 144.3212842499986,
          "velocity": 0.7559055118110236,
          "duration": 0.10714275000000839
        },
        {
          "name": "E4",
          "midi": 64,
          "time": 144.3212842499986,
          "velocity": 0.7559055118110236,
          "duration": 0.10714275000000839
        },
        {
          "name": "D5",
          "midi": 74,
          "time": 144.3212842499986,
          "velocity": 0.7559055118110236,
          "duration": 0.10714275000000839
        },
        {
          "name": "E5",
          "midi": 76,
          "time": 144.3212842499986,
          "velocity": 0.7559055118110236,
          "duration": 0.10714275000000839
        },
        {
          "name": "D6",
          "midi": 86,
          "time": 144.3212842499986,
          "velocity": 0.7559055118110236,
          "duration": 0.10714275000000839
        },
        {
          "name": "E6",
          "midi": 88,
          "time": 144.3212842499986,
          "velocity": 0.7559055118110236,
          "duration": 0.10714275000000839
        },
        {
          "name": "D7",
          "midi": 98,
          "time": 144.3212842499986,
          "velocity": 0.7559055118110236,
          "duration": 0.10714275000000839
        },
        {
          "name": "E7",
          "midi": 100,
          "time": 144.3212842499986,
          "velocity": 0.7559055118110236,
          "duration": 0.10714275000000839
        },
        {
          "name": "D4",
          "midi": 62,
          "time": 144.6427124999986,
          "velocity": 0.7559055118110236,
          "duration": 0.10714275000000839
        },
        {
          "name": "E4",
          "midi": 64,
          "time": 144.6427124999986,
          "velocity": 0.7559055118110236,
          "duration": 0.10714275000000839
        },
        {
          "name": "D5",
          "midi": 74,
          "time": 144.6427124999986,
          "velocity": 0.7559055118110236,
          "duration": 0.10714275000000839
        },
        {
          "name": "E5",
          "midi": 76,
          "time": 144.6427124999986,
          "velocity": 0.7559055118110236,
          "duration": 0.10714275000000839
        },
        {
          "name": "D6",
          "midi": 86,
          "time": 144.6427124999986,
          "velocity": 0.7559055118110236,
          "duration": 0.10714275000000839
        },
        {
          "name": "E6",
          "midi": 88,
          "time": 144.6427124999986,
          "velocity": 0.7559055118110236,
          "duration": 0.10714275000000839
        },
        {
          "name": "D7",
          "midi": 98,
          "time": 144.6427124999986,
          "velocity": 0.7559055118110236,
          "duration": 0.10714275000000839
        },
        {
          "name": "E7",
          "midi": 100,
          "time": 144.6427124999986,
          "velocity": 0.7559055118110236,
          "duration": 0.10714275000000839
        },
        {
          "name": "D4",
          "midi": 62,
          "time": 144.9641407499986,
          "velocity": 0.7559055118110236,
          "duration": 0.10714275000000839
        },
        {
          "name": "E4",
          "midi": 64,
          "time": 144.9641407499986,
          "velocity": 0.7559055118110236,
          "duration": 0.10714275000000839
        },
        {
          "name": "D5",
          "midi": 74,
          "time": 144.9641407499986,
          "velocity": 0.7559055118110236,
          "duration": 0.10714275000000839
        },
        {
          "name": "E5",
          "midi": 76,
          "time": 144.9641407499986,
          "velocity": 0.7559055118110236,
          "duration": 0.10714275000000839
        },
        {
          "name": "D6",
          "midi": 86,
          "time": 144.9641407499986,
          "velocity": 0.7559055118110236,
          "duration": 0.10714275000000839
        },
        {
          "name": "E6",
          "midi": 88,
          "time": 144.9641407499986,
          "velocity": 0.7559055118110236,
          "duration": 0.10714275000000839
        },
        {
          "name": "D7",
          "midi": 98,
          "time": 144.9641407499986,
          "velocity": 0.7559055118110236,
          "duration": 0.10714275000000839
        },
        {
          "name": "E7",
          "midi": 100,
          "time": 144.9641407499986,
          "velocity": 0.7559055118110236,
          "duration": 0.10714275000000839
        },
        {
          "name": "D4",
          "midi": 62,
          "time": 145.2855689999986,
          "velocity": 0.7559055118110236,
          "duration": 0.10714275000000839
        },
        {
          "name": "E4",
          "midi": 64,
          "time": 145.2855689999986,
          "velocity": 0.7559055118110236,
          "duration": 0.10714275000000839
        },
        {
          "name": "D5",
          "midi": 74,
          "time": 145.2855689999986,
          "velocity": 0.7559055118110236,
          "duration": 0.10714275000000839
        },
        {
          "name": "E5",
          "midi": 76,
          "time": 145.2855689999986,
          "velocity": 0.7559055118110236,
          "duration": 0.10714275000000839
        },
        {
          "name": "D6",
          "midi": 86,
          "time": 145.2855689999986,
          "velocity": 0.7559055118110236,
          "duration": 0.10714275000000839
        },
        {
          "name": "E6",
          "midi": 88,
          "time": 145.2855689999986,
          "velocity": 0.7559055118110236,
          "duration": 0.10714275000000839
        },
        {
          "name": "D7",
          "midi": 98,
          "time": 145.2855689999986,
          "velocity": 0.7559055118110236,
          "duration": 0.10714275000000839
        },
        {
          "name": "E7",
          "midi": 100,
          "time": 145.2855689999986,
          "velocity": 0.7559055118110236,
          "duration": 0.10714275000000839
        },
        {
          "name": "D4",
          "midi": 62,
          "time": 145.3927117499986,
          "velocity": 0.7559055118110236,
          "duration": 0.10714275000000839
        },
        {
          "name": "E4",
          "midi": 64,
          "time": 145.3927117499986,
          "velocity": 0.7559055118110236,
          "duration": 0.10714275000000839
        },
        {
          "name": "D5",
          "midi": 74,
          "time": 145.3927117499986,
          "velocity": 0.7559055118110236,
          "duration": 0.10714275000000839
        },
        {
          "name": "E5",
          "midi": 76,
          "time": 145.3927117499986,
          "velocity": 0.7559055118110236,
          "duration": 0.10714275000000839
        },
        {
          "name": "D6",
          "midi": 86,
          "time": 145.3927117499986,
          "velocity": 0.7559055118110236,
          "duration": 0.10714275000000839
        },
        {
          "name": "E6",
          "midi": 88,
          "time": 145.3927117499986,
          "velocity": 0.7559055118110236,
          "duration": 0.10714275000000839
        },
        {
          "name": "D7",
          "midi": 98,
          "time": 145.3927117499986,
          "velocity": 0.7559055118110236,
          "duration": 0.10714275000000839
        },
        {
          "name": "E7",
          "midi": 100,
          "time": 145.3927117499986,
          "velocity": 0.7559055118110236,
          "duration": 0.10714275000000839
        },
        {
          "name": "D4",
          "midi": 62,
          "time": 145.4998544999986,
          "velocity": 0.7559055118110236,
          "duration": 0.10714275000000839
        },
        {
          "name": "E4",
          "midi": 64,
          "time": 145.4998544999986,
          "velocity": 0.7559055118110236,
          "duration": 0.10714275000000839
        },
        {
          "name": "D5",
          "midi": 74,
          "time": 145.4998544999986,
          "velocity": 0.7559055118110236,
          "duration": 0.10714275000000839
        },
        {
          "name": "E5",
          "midi": 76,
          "time": 145.4998544999986,
          "velocity": 0.7559055118110236,
          "duration": 0.10714275000000839
        },
        {
          "name": "D6",
          "midi": 86,
          "time": 145.4998544999986,
          "velocity": 0.7559055118110236,
          "duration": 0.10714275000000839
        },
        {
          "name": "E6",
          "midi": 88,
          "time": 145.4998544999986,
          "velocity": 0.7559055118110236,
          "duration": 0.10714275000000839
        },
        {
          "name": "D7",
          "midi": 98,
          "time": 145.4998544999986,
          "velocity": 0.7559055118110236,
          "duration": 0.10714275000000839
        },
        {
          "name": "E7",
          "midi": 100,
          "time": 145.4998544999986,
          "velocity": 0.7559055118110236,
          "duration": 0.10714275000000839
        },
        {
          "name": "D4",
          "midi": 62,
          "time": 145.6069972499986,
          "velocity": 0.7559055118110236,
          "duration": 0.10714275000000839
        },
        {
          "name": "E4",
          "midi": 64,
          "time": 145.6069972499986,
          "velocity": 0.7559055118110236,
          "duration": 0.10714275000000839
        },
        {
          "name": "D5",
          "midi": 74,
          "time": 145.6069972499986,
          "velocity": 0.7559055118110236,
          "duration": 0.10714275000000839
        },
        {
          "name": "E5",
          "midi": 76,
          "time": 145.6069972499986,
          "velocity": 0.7559055118110236,
          "duration": 0.10714275000000839
        },
        {
          "name": "D6",
          "midi": 86,
          "time": 145.6069972499986,
          "velocity": 0.7559055118110236,
          "duration": 0.10714275000000839
        },
        {
          "name": "E6",
          "midi": 88,
          "time": 145.6069972499986,
          "velocity": 0.7559055118110236,
          "duration": 0.10714275000000839
        },
        {
          "name": "D7",
          "midi": 98,
          "time": 145.6069972499986,
          "velocity": 0.7559055118110236,
          "duration": 0.10714275000000839
        },
        {
          "name": "E7",
          "midi": 100,
          "time": 145.6069972499986,
          "velocity": 0.7559055118110236,
          "duration": 0.10714275000000839
        },
        {
          "name": "C#4",
          "midi": 61,
          "time": 145.71413999999862,
          "velocity": 0.7559055118110236,
          "duration": 0.10714275000000839
        },
        {
          "name": "D#4",
          "midi": 63,
          "time": 145.71413999999862,
          "velocity": 0.7559055118110236,
          "duration": 0.10714275000000839
        },
        {
          "name": "C#5",
          "midi": 73,
          "time": 145.71413999999862,
          "velocity": 0.7559055118110236,
          "duration": 0.10714275000000839
        },
        {
          "name": "D#5",
          "midi": 75,
          "time": 145.71413999999862,
          "velocity": 0.7559055118110236,
          "duration": 0.10714275000000839
        },
        {
          "name": "C#6",
          "midi": 85,
          "time": 145.71413999999862,
          "velocity": 0.7559055118110236,
          "duration": 0.10714275000000839
        },
        {
          "name": "D#6",
          "midi": 87,
          "time": 145.71413999999862,
          "velocity": 0.7559055118110236,
          "duration": 0.10714275000000839
        },
        {
          "name": "C#7",
          "midi": 97,
          "time": 145.71413999999862,
          "velocity": 0.7559055118110236,
          "duration": 0.10714275000000839
        },
        {
          "name": "D#7",
          "midi": 99,
          "time": 145.71413999999862,
          "velocity": 0.7559055118110236,
          "duration": 0.10714275000000839
        },
        {
          "name": "C#4",
          "midi": 61,
          "time": 146.03556824999862,
          "velocity": 0.7559055118110236,
          "duration": 0.10714275000000839
        },
        {
          "name": "D#4",
          "midi": 63,
          "time": 146.03556824999862,
          "velocity": 0.7559055118110236,
          "duration": 0.10714275000000839
        },
        {
          "name": "C#5",
          "midi": 73,
          "time": 146.03556824999862,
          "velocity": 0.7559055118110236,
          "duration": 0.10714275000000839
        },
        {
          "name": "D#5",
          "midi": 75,
          "time": 146.03556824999862,
          "velocity": 0.7559055118110236,
          "duration": 0.10714275000000839
        },
        {
          "name": "C#6",
          "midi": 85,
          "time": 146.03556824999862,
          "velocity": 0.7559055118110236,
          "duration": 0.10714275000000839
        },
        {
          "name": "D#6",
          "midi": 87,
          "time": 146.03556824999862,
          "velocity": 0.7559055118110236,
          "duration": 0.10714275000000839
        },
        {
          "name": "C#7",
          "midi": 97,
          "time": 146.03556824999862,
          "velocity": 0.7559055118110236,
          "duration": 0.10714275000000839
        },
        {
          "name": "D#7",
          "midi": 99,
          "time": 146.03556824999862,
          "velocity": 0.7559055118110236,
          "duration": 0.10714275000000839
        },
        {
          "name": "C#4",
          "midi": 61,
          "time": 146.35699649999862,
          "velocity": 0.7559055118110236,
          "duration": 0.10714275000000839
        },
        {
          "name": "D#4",
          "midi": 63,
          "time": 146.35699649999862,
          "velocity": 0.7559055118110236,
          "duration": 0.10714275000000839
        },
        {
          "name": "C#5",
          "midi": 73,
          "time": 146.35699649999862,
          "velocity": 0.7559055118110236,
          "duration": 0.10714275000000839
        },
        {
          "name": "D#5",
          "midi": 75,
          "time": 146.35699649999862,
          "velocity": 0.7559055118110236,
          "duration": 0.10714275000000839
        },
        {
          "name": "C#6",
          "midi": 85,
          "time": 146.35699649999862,
          "velocity": 0.7559055118110236,
          "duration": 0.10714275000000839
        },
        {
          "name": "D#6",
          "midi": 87,
          "time": 146.35699649999862,
          "velocity": 0.7559055118110236,
          "duration": 0.10714275000000839
        },
        {
          "name": "C#7",
          "midi": 97,
          "time": 146.35699649999862,
          "velocity": 0.7559055118110236,
          "duration": 0.10714275000000839
        },
        {
          "name": "D#7",
          "midi": 99,
          "time": 146.35699649999862,
          "velocity": 0.7559055118110236,
          "duration": 0.10714275000000839
        },
        {
          "name": "C#4",
          "midi": 61,
          "time": 146.6784247499986,
          "velocity": 0.7559055118110236,
          "duration": 0.10714275000000839
        },
        {
          "name": "D#4",
          "midi": 63,
          "time": 146.6784247499986,
          "velocity": 0.7559055118110236,
          "duration": 0.10714275000000839
        },
        {
          "name": "C#5",
          "midi": 73,
          "time": 146.6784247499986,
          "velocity": 0.7559055118110236,
          "duration": 0.10714275000000839
        },
        {
          "name": "D#5",
          "midi": 75,
          "time": 146.6784247499986,
          "velocity": 0.7559055118110236,
          "duration": 0.10714275000000839
        },
        {
          "name": "C#6",
          "midi": 85,
          "time": 146.6784247499986,
          "velocity": 0.7559055118110236,
          "duration": 0.10714275000000839
        },
        {
          "name": "D#6",
          "midi": 87,
          "time": 146.6784247499986,
          "velocity": 0.7559055118110236,
          "duration": 0.10714275000000839
        },
        {
          "name": "C#7",
          "midi": 97,
          "time": 146.6784247499986,
          "velocity": 0.7559055118110236,
          "duration": 0.10714275000000839
        },
        {
          "name": "D#7",
          "midi": 99,
          "time": 146.6784247499986,
          "velocity": 0.7559055118110236,
          "duration": 0.10714275000000839
        },
        {
          "name": "C#4",
          "midi": 61,
          "time": 146.9998529999986,
          "velocity": 0.7559055118110236,
          "duration": 0.10714275000000839
        },
        {
          "name": "D#4",
          "midi": 63,
          "time": 146.9998529999986,
          "velocity": 0.7559055118110236,
          "duration": 0.10714275000000839
        },
        {
          "name": "C#5",
          "midi": 73,
          "time": 146.9998529999986,
          "velocity": 0.7559055118110236,
          "duration": 0.10714275000000839
        },
        {
          "name": "D#5",
          "midi": 75,
          "time": 146.9998529999986,
          "velocity": 0.7559055118110236,
          "duration": 0.10714275000000839
        },
        {
          "name": "C#6",
          "midi": 85,
          "time": 146.9998529999986,
          "velocity": 0.7559055118110236,
          "duration": 0.10714275000000839
        },
        {
          "name": "D#6",
          "midi": 87,
          "time": 146.9998529999986,
          "velocity": 0.7559055118110236,
          "duration": 0.10714275000000839
        },
        {
          "name": "C#7",
          "midi": 97,
          "time": 146.9998529999986,
          "velocity": 0.7559055118110236,
          "duration": 0.10714275000000839
        },
        {
          "name": "D#7",
          "midi": 99,
          "time": 146.9998529999986,
          "velocity": 0.7559055118110236,
          "duration": 0.10714275000000839
        },
        {
          "name": "C#4",
          "midi": 61,
          "time": 147.10699574999862,
          "velocity": 0.7559055118110236,
          "duration": 0.10714275000000839
        },
        {
          "name": "D#4",
          "midi": 63,
          "time": 147.10699574999862,
          "velocity": 0.7559055118110236,
          "duration": 0.10714275000000839
        },
        {
          "name": "C#5",
          "midi": 73,
          "time": 147.10699574999862,
          "velocity": 0.7559055118110236,
          "duration": 0.10714275000000839
        },
        {
          "name": "D#5",
          "midi": 75,
          "time": 147.10699574999862,
          "velocity": 0.7559055118110236,
          "duration": 0.10714275000000839
        },
        {
          "name": "C#6",
          "midi": 85,
          "time": 147.10699574999862,
          "velocity": 0.7559055118110236,
          "duration": 0.10714275000000839
        },
        {
          "name": "D#6",
          "midi": 87,
          "time": 147.10699574999862,
          "velocity": 0.7559055118110236,
          "duration": 0.10714275000000839
        },
        {
          "name": "C#7",
          "midi": 97,
          "time": 147.10699574999862,
          "velocity": 0.7559055118110236,
          "duration": 0.10714275000000839
        },
        {
          "name": "D#7",
          "midi": 99,
          "time": 147.10699574999862,
          "velocity": 0.7559055118110236,
          "duration": 0.10714275000000839
        },
        {
          "name": "C#4",
          "midi": 61,
          "time": 147.21413849999863,
          "velocity": 0.7559055118110236,
          "duration": 0.10714275000000839
        },
        {
          "name": "D#4",
          "midi": 63,
          "time": 147.21413849999863,
          "velocity": 0.7559055118110236,
          "duration": 0.10714275000000839
        },
        {
          "name": "C#5",
          "midi": 73,
          "time": 147.21413849999863,
          "velocity": 0.7559055118110236,
          "duration": 0.10714275000000839
        },
        {
          "name": "D#5",
          "midi": 75,
          "time": 147.21413849999863,
          "velocity": 0.7559055118110236,
          "duration": 0.10714275000000839
        },
        {
          "name": "C#6",
          "midi": 85,
          "time": 147.21413849999863,
          "velocity": 0.7559055118110236,
          "duration": 0.10714275000000839
        },
        {
          "name": "D#6",
          "midi": 87,
          "time": 147.21413849999863,
          "velocity": 0.7559055118110236,
          "duration": 0.10714275000000839
        },
        {
          "name": "C#7",
          "midi": 97,
          "time": 147.21413849999863,
          "velocity": 0.7559055118110236,
          "duration": 0.10714275000000839
        },
        {
          "name": "D#7",
          "midi": 99,
          "time": 147.21413849999863,
          "velocity": 0.7559055118110236,
          "duration": 0.10714275000000839
        },
        {
          "name": "C#4",
          "midi": 61,
          "time": 147.32128124999863,
          "velocity": 0.7559055118110236,
          "duration": 0.10714275000000839
        },
        {
          "name": "D#4",
          "midi": 63,
          "time": 147.32128124999863,
          "velocity": 0.7559055118110236,
          "duration": 0.10714275000000839
        },
        {
          "name": "C#5",
          "midi": 73,
          "time": 147.32128124999863,
          "velocity": 0.7559055118110236,
          "duration": 0.10714275000000839
        },
        {
          "name": "D#5",
          "midi": 75,
          "time": 147.32128124999863,
          "velocity": 0.7559055118110236,
          "duration": 0.10714275000000839
        },
        {
          "name": "C#6",
          "midi": 85,
          "time": 147.32128124999863,
          "velocity": 0.7559055118110236,
          "duration": 0.10714275000000839
        },
        {
          "name": "D#6",
          "midi": 87,
          "time": 147.32128124999863,
          "velocity": 0.7559055118110236,
          "duration": 0.10714275000000839
        },
        {
          "name": "C#7",
          "midi": 97,
          "time": 147.32128124999863,
          "velocity": 0.7559055118110236,
          "duration": 0.10714275000000839
        },
        {
          "name": "D#7",
          "midi": 99,
          "time": 147.32128124999863,
          "velocity": 0.7559055118110236,
          "duration": 0.10714275000000839
        },
        {
          "name": "C4",
          "midi": 60,
          "time": 147.42842399999864,
          "velocity": 0.7559055118110236,
          "duration": 0.10714275000000839
        },
        {
          "name": "D4",
          "midi": 62,
          "time": 147.42842399999864,
          "velocity": 0.7559055118110236,
          "duration": 0.10714275000000839
        },
        {
          "name": "C5",
          "midi": 72,
          "time": 147.42842399999864,
          "velocity": 0.7559055118110236,
          "duration": 0.10714275000000839
        },
        {
          "name": "D5",
          "midi": 74,
          "time": 147.42842399999864,
          "velocity": 0.7559055118110236,
          "duration": 0.10714275000000839
        },
        {
          "name": "C6",
          "midi": 84,
          "time": 147.42842399999864,
          "velocity": 0.7559055118110236,
          "duration": 0.10714275000000839
        },
        {
          "name": "D6",
          "midi": 86,
          "time": 147.42842399999864,
          "velocity": 0.7559055118110236,
          "duration": 0.10714275000000839
        },
        {
          "name": "C7",
          "midi": 96,
          "time": 147.42842399999864,
          "velocity": 0.7559055118110236,
          "duration": 0.10714275000000839
        },
        {
          "name": "D7",
          "midi": 98,
          "time": 147.42842399999864,
          "velocity": 0.7559055118110236,
          "duration": 0.10714275000000839
        },
        {
          "name": "C4",
          "midi": 60,
          "time": 147.74985224999864,
          "velocity": 0.7559055118110236,
          "duration": 0.10714275000000839
        },
        {
          "name": "D4",
          "midi": 62,
          "time": 147.74985224999864,
          "velocity": 0.7559055118110236,
          "duration": 0.10714275000000839
        },
        {
          "name": "C5",
          "midi": 72,
          "time": 147.74985224999864,
          "velocity": 0.7559055118110236,
          "duration": 0.10714275000000839
        },
        {
          "name": "D5",
          "midi": 74,
          "time": 147.74985224999864,
          "velocity": 0.7559055118110236,
          "duration": 0.10714275000000839
        },
        {
          "name": "C6",
          "midi": 84,
          "time": 147.74985224999864,
          "velocity": 0.7559055118110236,
          "duration": 0.10714275000000839
        },
        {
          "name": "D6",
          "midi": 86,
          "time": 147.74985224999864,
          "velocity": 0.7559055118110236,
          "duration": 0.10714275000000839
        },
        {
          "name": "C7",
          "midi": 96,
          "time": 147.74985224999864,
          "velocity": 0.7559055118110236,
          "duration": 0.10714275000000839
        },
        {
          "name": "D7",
          "midi": 98,
          "time": 147.74985224999864,
          "velocity": 0.7559055118110236,
          "duration": 0.10714275000000839
        },
        {
          "name": "C4",
          "midi": 60,
          "time": 148.07128049999864,
          "velocity": 0.7559055118110236,
          "duration": 0.10714275000000839
        },
        {
          "name": "D4",
          "midi": 62,
          "time": 148.07128049999864,
          "velocity": 0.7559055118110236,
          "duration": 0.10714275000000839
        },
        {
          "name": "C5",
          "midi": 72,
          "time": 148.07128049999864,
          "velocity": 0.7559055118110236,
          "duration": 0.10714275000000839
        },
        {
          "name": "D5",
          "midi": 74,
          "time": 148.07128049999864,
          "velocity": 0.7559055118110236,
          "duration": 0.10714275000000839
        },
        {
          "name": "C6",
          "midi": 84,
          "time": 148.07128049999864,
          "velocity": 0.7559055118110236,
          "duration": 0.10714275000000839
        },
        {
          "name": "D6",
          "midi": 86,
          "time": 148.07128049999864,
          "velocity": 0.7559055118110236,
          "duration": 0.10714275000000839
        },
        {
          "name": "C7",
          "midi": 96,
          "time": 148.07128049999864,
          "velocity": 0.7559055118110236,
          "duration": 0.10714275000000839
        },
        {
          "name": "D7",
          "midi": 98,
          "time": 148.07128049999864,
          "velocity": 0.7559055118110236,
          "duration": 0.10714275000000839
        },
        {
          "name": "C4",
          "midi": 60,
          "time": 148.39270874999863,
          "velocity": 0.7559055118110236,
          "duration": 0.10714275000000839
        },
        {
          "name": "D4",
          "midi": 62,
          "time": 148.39270874999863,
          "velocity": 0.7559055118110236,
          "duration": 0.10714275000000839
        },
        {
          "name": "C5",
          "midi": 72,
          "time": 148.39270874999863,
          "velocity": 0.7559055118110236,
          "duration": 0.10714275000000839
        },
        {
          "name": "D5",
          "midi": 74,
          "time": 148.39270874999863,
          "velocity": 0.7559055118110236,
          "duration": 0.10714275000000839
        },
        {
          "name": "C6",
          "midi": 84,
          "time": 148.39270874999863,
          "velocity": 0.7559055118110236,
          "duration": 0.10714275000000839
        },
        {
          "name": "D6",
          "midi": 86,
          "time": 148.39270874999863,
          "velocity": 0.7559055118110236,
          "duration": 0.10714275000000839
        },
        {
          "name": "C7",
          "midi": 96,
          "time": 148.39270874999863,
          "velocity": 0.7559055118110236,
          "duration": 0.10714275000000839
        },
        {
          "name": "D7",
          "midi": 98,
          "time": 148.39270874999863,
          "velocity": 0.7559055118110236,
          "duration": 0.10714275000000839
        },
        {
          "name": "C4",
          "midi": 60,
          "time": 148.71413699999863,
          "velocity": 0.7559055118110236,
          "duration": 0.10714275000000839
        },
        {
          "name": "D4",
          "midi": 62,
          "time": 148.71413699999863,
          "velocity": 0.7559055118110236,
          "duration": 0.10714275000000839
        },
        {
          "name": "C5",
          "midi": 72,
          "time": 148.71413699999863,
          "velocity": 0.7559055118110236,
          "duration": 0.10714275000000839
        },
        {
          "name": "D5",
          "midi": 74,
          "time": 148.71413699999863,
          "velocity": 0.7559055118110236,
          "duration": 0.10714275000000839
        },
        {
          "name": "C6",
          "midi": 84,
          "time": 148.71413699999863,
          "velocity": 0.7559055118110236,
          "duration": 0.10714275000000839
        },
        {
          "name": "D6",
          "midi": 86,
          "time": 148.71413699999863,
          "velocity": 0.7559055118110236,
          "duration": 0.10714275000000839
        },
        {
          "name": "C7",
          "midi": 96,
          "time": 148.71413699999863,
          "velocity": 0.7559055118110236,
          "duration": 0.10714275000000839
        },
        {
          "name": "D7",
          "midi": 98,
          "time": 148.71413699999863,
          "velocity": 0.7559055118110236,
          "duration": 0.10714275000000839
        },
        {
          "name": "C4",
          "midi": 60,
          "time": 148.82127974999864,
          "velocity": 0.7559055118110236,
          "duration": 0.10714275000000839
        },
        {
          "name": "D4",
          "midi": 62,
          "time": 148.82127974999864,
          "velocity": 0.7559055118110236,
          "duration": 0.10714275000000839
        },
        {
          "name": "C5",
          "midi": 72,
          "time": 148.82127974999864,
          "velocity": 0.7559055118110236,
          "duration": 0.10714275000000839
        },
        {
          "name": "D5",
          "midi": 74,
          "time": 148.82127974999864,
          "velocity": 0.7559055118110236,
          "duration": 0.10714275000000839
        },
        {
          "name": "C6",
          "midi": 84,
          "time": 148.82127974999864,
          "velocity": 0.7559055118110236,
          "duration": 0.10714275000000839
        },
        {
          "name": "D6",
          "midi": 86,
          "time": 148.82127974999864,
          "velocity": 0.7559055118110236,
          "duration": 0.10714275000000839
        },
        {
          "name": "C7",
          "midi": 96,
          "time": 148.82127974999864,
          "velocity": 0.7559055118110236,
          "duration": 0.10714275000000839
        },
        {
          "name": "D7",
          "midi": 98,
          "time": 148.82127974999864,
          "velocity": 0.7559055118110236,
          "duration": 0.10714275000000839
        },
        {
          "name": "C4",
          "midi": 60,
          "time": 148.92842249999865,
          "velocity": 0.7559055118110236,
          "duration": 0.10714275000000839
        },
        {
          "name": "D4",
          "midi": 62,
          "time": 148.92842249999865,
          "velocity": 0.7559055118110236,
          "duration": 0.10714275000000839
        },
        {
          "name": "C5",
          "midi": 72,
          "time": 148.92842249999865,
          "velocity": 0.7559055118110236,
          "duration": 0.10714275000000839
        },
        {
          "name": "D5",
          "midi": 74,
          "time": 148.92842249999865,
          "velocity": 0.7559055118110236,
          "duration": 0.10714275000000839
        },
        {
          "name": "C6",
          "midi": 84,
          "time": 148.92842249999865,
          "velocity": 0.7559055118110236,
          "duration": 0.10714275000000839
        },
        {
          "name": "D6",
          "midi": 86,
          "time": 148.92842249999865,
          "velocity": 0.7559055118110236,
          "duration": 0.10714275000000839
        },
        {
          "name": "C7",
          "midi": 96,
          "time": 148.92842249999865,
          "velocity": 0.7559055118110236,
          "duration": 0.10714275000000839
        },
        {
          "name": "D7",
          "midi": 98,
          "time": 148.92842249999865,
          "velocity": 0.7559055118110236,
          "duration": 0.10714275000000839
        },
        {
          "name": "C4",
          "midi": 60,
          "time": 149.03556524999865,
          "velocity": 0.7559055118110236,
          "duration": 0.10714275000000839
        },
        {
          "name": "D4",
          "midi": 62,
          "time": 149.03556524999865,
          "velocity": 0.7559055118110236,
          "duration": 0.10714275000000839
        },
        {
          "name": "C5",
          "midi": 72,
          "time": 149.03556524999865,
          "velocity": 0.7559055118110236,
          "duration": 0.10714275000000839
        },
        {
          "name": "D5",
          "midi": 74,
          "time": 149.03556524999865,
          "velocity": 0.7559055118110236,
          "duration": 0.10714275000000839
        },
        {
          "name": "C6",
          "midi": 84,
          "time": 149.03556524999865,
          "velocity": 0.7559055118110236,
          "duration": 0.10714275000000839
        },
        {
          "name": "D6",
          "midi": 86,
          "time": 149.03556524999865,
          "velocity": 0.7559055118110236,
          "duration": 0.10714275000000839
        },
        {
          "name": "C7",
          "midi": 96,
          "time": 149.03556524999865,
          "velocity": 0.7559055118110236,
          "duration": 0.10714275000000839
        },
        {
          "name": "D7",
          "midi": 98,
          "time": 149.03556524999865,
          "velocity": 0.7559055118110236,
          "duration": 0.10714275000000839
        },
        {
          "name": "C#4",
          "midi": 61,
          "time": 149.14270799999866,
          "velocity": 0.7559055118110236,
          "duration": 0.10714275000000839
        },
        {
          "name": "D#4",
          "midi": 63,
          "time": 149.14270799999866,
          "velocity": 0.7559055118110236,
          "duration": 0.10714275000000839
        },
        {
          "name": "C#5",
          "midi": 73,
          "time": 149.14270799999866,
          "velocity": 0.7559055118110236,
          "duration": 0.10714275000000839
        },
        {
          "name": "D#5",
          "midi": 75,
          "time": 149.14270799999866,
          "velocity": 0.7559055118110236,
          "duration": 0.10714275000000839
        },
        {
          "name": "C#6",
          "midi": 85,
          "time": 149.14270799999866,
          "velocity": 0.7559055118110236,
          "duration": 0.10714275000000839
        },
        {
          "name": "D#6",
          "midi": 87,
          "time": 149.14270799999866,
          "velocity": 0.7559055118110236,
          "duration": 0.10714275000000839
        },
        {
          "name": "C#7",
          "midi": 97,
          "time": 149.14270799999866,
          "velocity": 0.7559055118110236,
          "duration": 0.10714275000000839
        },
        {
          "name": "D#7",
          "midi": 99,
          "time": 149.14270799999866,
          "velocity": 0.7559055118110236,
          "duration": 0.10714275000000839
        },
        {
          "name": "C#4",
          "midi": 61,
          "time": 149.46413624999866,
          "velocity": 0.7559055118110236,
          "duration": 0.10714275000000839
        },
        {
          "name": "D#4",
          "midi": 63,
          "time": 149.46413624999866,
          "velocity": 0.7559055118110236,
          "duration": 0.10714275000000839
        },
        {
          "name": "C#5",
          "midi": 73,
          "time": 149.46413624999866,
          "velocity": 0.7559055118110236,
          "duration": 0.10714275000000839
        },
        {
          "name": "D#5",
          "midi": 75,
          "time": 149.46413624999866,
          "velocity": 0.7559055118110236,
          "duration": 0.10714275000000839
        },
        {
          "name": "C#6",
          "midi": 85,
          "time": 149.46413624999866,
          "velocity": 0.7559055118110236,
          "duration": 0.10714275000000839
        },
        {
          "name": "D#6",
          "midi": 87,
          "time": 149.46413624999866,
          "velocity": 0.7559055118110236,
          "duration": 0.10714275000000839
        },
        {
          "name": "C#7",
          "midi": 97,
          "time": 149.46413624999866,
          "velocity": 0.7559055118110236,
          "duration": 0.10714275000000839
        },
        {
          "name": "D#7",
          "midi": 99,
          "time": 149.46413624999866,
          "velocity": 0.7559055118110236,
          "duration": 0.10714275000000839
        },
        {
          "name": "C#4",
          "midi": 61,
          "time": 149.78556449999866,
          "velocity": 0.7559055118110236,
          "duration": 0.10714275000000839
        },
        {
          "name": "D#4",
          "midi": 63,
          "time": 149.78556449999866,
          "velocity": 0.7559055118110236,
          "duration": 0.10714275000000839
        },
        {
          "name": "C#5",
          "midi": 73,
          "time": 149.78556449999866,
          "velocity": 0.7559055118110236,
          "duration": 0.10714275000000839
        },
        {
          "name": "D#5",
          "midi": 75,
          "time": 149.78556449999866,
          "velocity": 0.7559055118110236,
          "duration": 0.10714275000000839
        },
        {
          "name": "C#6",
          "midi": 85,
          "time": 149.78556449999866,
          "velocity": 0.7559055118110236,
          "duration": 0.10714275000000839
        },
        {
          "name": "D#6",
          "midi": 87,
          "time": 149.78556449999866,
          "velocity": 0.7559055118110236,
          "duration": 0.10714275000000839
        },
        {
          "name": "C#7",
          "midi": 97,
          "time": 149.78556449999866,
          "velocity": 0.7559055118110236,
          "duration": 0.10714275000000839
        },
        {
          "name": "D#7",
          "midi": 99,
          "time": 149.78556449999866,
          "velocity": 0.7559055118110236,
          "duration": 0.10714275000000839
        },
        {
          "name": "C#4",
          "midi": 61,
          "time": 150.10699274999865,
          "velocity": 0.7559055118110236,
          "duration": 0.10714275000000839
        },
        {
          "name": "D#4",
          "midi": 63,
          "time": 150.10699274999865,
          "velocity": 0.7559055118110236,
          "duration": 0.10714275000000839
        },
        {
          "name": "C#5",
          "midi": 73,
          "time": 150.10699274999865,
          "velocity": 0.7559055118110236,
          "duration": 0.10714275000000839
        },
        {
          "name": "D#5",
          "midi": 75,
          "time": 150.10699274999865,
          "velocity": 0.7559055118110236,
          "duration": 0.10714275000000839
        },
        {
          "name": "C#6",
          "midi": 85,
          "time": 150.10699274999865,
          "velocity": 0.7559055118110236,
          "duration": 0.10714275000000839
        },
        {
          "name": "D#6",
          "midi": 87,
          "time": 150.10699274999865,
          "velocity": 0.7559055118110236,
          "duration": 0.10714275000000839
        },
        {
          "name": "C#7",
          "midi": 97,
          "time": 150.10699274999865,
          "velocity": 0.7559055118110236,
          "duration": 0.10714275000000839
        },
        {
          "name": "D#7",
          "midi": 99,
          "time": 150.10699274999865,
          "velocity": 0.7559055118110236,
          "duration": 0.10714275000000839
        },
        {
          "name": "C#4",
          "midi": 61,
          "time": 150.42842099999865,
          "velocity": 0.7559055118110236,
          "duration": 0.10714275000000839
        },
        {
          "name": "D#4",
          "midi": 63,
          "time": 150.42842099999865,
          "velocity": 0.7559055118110236,
          "duration": 0.10714275000000839
        },
        {
          "name": "C#5",
          "midi": 73,
          "time": 150.42842099999865,
          "velocity": 0.7559055118110236,
          "duration": 0.10714275000000839
        },
        {
          "name": "D#5",
          "midi": 75,
          "time": 150.42842099999865,
          "velocity": 0.7559055118110236,
          "duration": 0.10714275000000839
        },
        {
          "name": "C#6",
          "midi": 85,
          "time": 150.42842099999865,
          "velocity": 0.7559055118110236,
          "duration": 0.10714275000000839
        },
        {
          "name": "D#6",
          "midi": 87,
          "time": 150.42842099999865,
          "velocity": 0.7559055118110236,
          "duration": 0.10714275000000839
        },
        {
          "name": "C#7",
          "midi": 97,
          "time": 150.42842099999865,
          "velocity": 0.7559055118110236,
          "duration": 0.10714275000000839
        },
        {
          "name": "D#7",
          "midi": 99,
          "time": 150.42842099999865,
          "velocity": 0.7559055118110236,
          "duration": 0.10714275000000839
        },
        {
          "name": "C#4",
          "midi": 61,
          "time": 150.53556374999866,
          "velocity": 0.7559055118110236,
          "duration": 0.10714275000000839
        },
        {
          "name": "D#4",
          "midi": 63,
          "time": 150.53556374999866,
          "velocity": 0.7559055118110236,
          "duration": 0.10714275000000839
        },
        {
          "name": "C#5",
          "midi": 73,
          "time": 150.53556374999866,
          "velocity": 0.7559055118110236,
          "duration": 0.10714275000000839
        },
        {
          "name": "D#5",
          "midi": 75,
          "time": 150.53556374999866,
          "velocity": 0.7559055118110236,
          "duration": 0.10714275000000839
        },
        {
          "name": "C#6",
          "midi": 85,
          "time": 150.53556374999866,
          "velocity": 0.7559055118110236,
          "duration": 0.10714275000000839
        },
        {
          "name": "D#6",
          "midi": 87,
          "time": 150.53556374999866,
          "velocity": 0.7559055118110236,
          "duration": 0.10714275000000839
        },
        {
          "name": "C#7",
          "midi": 97,
          "time": 150.53556374999866,
          "velocity": 0.7559055118110236,
          "duration": 0.10714275000000839
        },
        {
          "name": "D#7",
          "midi": 99,
          "time": 150.53556374999866,
          "velocity": 0.7559055118110236,
          "duration": 0.10714275000000839
        },
        {
          "name": "C#4",
          "midi": 61,
          "time": 150.64270649999867,
          "velocity": 0.7559055118110236,
          "duration": 0.10714275000000839
        },
        {
          "name": "D#4",
          "midi": 63,
          "time": 150.64270649999867,
          "velocity": 0.7559055118110236,
          "duration": 0.10714275000000839
        },
        {
          "name": "C#5",
          "midi": 73,
          "time": 150.64270649999867,
          "velocity": 0.7559055118110236,
          "duration": 0.10714275000000839
        },
        {
          "name": "D#5",
          "midi": 75,
          "time": 150.64270649999867,
          "velocity": 0.7559055118110236,
          "duration": 0.10714275000000839
        },
        {
          "name": "C#6",
          "midi": 85,
          "time": 150.64270649999867,
          "velocity": 0.7559055118110236,
          "duration": 0.10714275000000839
        },
        {
          "name": "D#6",
          "midi": 87,
          "time": 150.64270649999867,
          "velocity": 0.7559055118110236,
          "duration": 0.10714275000000839
        },
        {
          "name": "C#7",
          "midi": 97,
          "time": 150.64270649999867,
          "velocity": 0.7559055118110236,
          "duration": 0.10714275000000839
        },
        {
          "name": "D#7",
          "midi": 99,
          "time": 150.64270649999867,
          "velocity": 0.7559055118110236,
          "duration": 0.10714275000000839
        },
        {
          "name": "C#4",
          "midi": 61,
          "time": 150.74984924999868,
          "velocity": 0.7559055118110236,
          "duration": 0.10714275000000839
        },
        {
          "name": "D#4",
          "midi": 63,
          "time": 150.74984924999868,
          "velocity": 0.7559055118110236,
          "duration": 0.10714275000000839
        },
        {
          "name": "C#5",
          "midi": 73,
          "time": 150.74984924999868,
          "velocity": 0.7559055118110236,
          "duration": 0.10714275000000839
        },
        {
          "name": "D#5",
          "midi": 75,
          "time": 150.74984924999868,
          "velocity": 0.7559055118110236,
          "duration": 0.10714275000000839
        },
        {
          "name": "C#6",
          "midi": 85,
          "time": 150.74984924999868,
          "velocity": 0.7559055118110236,
          "duration": 0.10714275000000839
        },
        {
          "name": "D#6",
          "midi": 87,
          "time": 150.74984924999868,
          "velocity": 0.7559055118110236,
          "duration": 0.10714275000000839
        },
        {
          "name": "C#7",
          "midi": 97,
          "time": 150.74984924999868,
          "velocity": 0.7559055118110236,
          "duration": 0.10714275000000839
        },
        {
          "name": "D#7",
          "midi": 99,
          "time": 150.74984924999868,
          "velocity": 0.7559055118110236,
          "duration": 0.10714275000000839
        },
        {
          "name": "C4",
          "midi": 60,
          "time": 150.85699199999868,
          "velocity": 0.7559055118110236,
          "duration": 0.10714275000000839
        },
        {
          "name": "D4",
          "midi": 62,
          "time": 150.85699199999868,
          "velocity": 0.7559055118110236,
          "duration": 0.10714275000000839
        },
        {
          "name": "C5",
          "midi": 72,
          "time": 150.85699199999868,
          "velocity": 0.7559055118110236,
          "duration": 0.10714275000000839
        },
        {
          "name": "D5",
          "midi": 74,
          "time": 150.85699199999868,
          "velocity": 0.7559055118110236,
          "duration": 0.10714275000000839
        },
        {
          "name": "C6",
          "midi": 84,
          "time": 150.85699199999868,
          "velocity": 0.7559055118110236,
          "duration": 0.10714275000000839
        },
        {
          "name": "D6",
          "midi": 86,
          "time": 150.85699199999868,
          "velocity": 0.7559055118110236,
          "duration": 0.10714275000000839
        },
        {
          "name": "C7",
          "midi": 96,
          "time": 150.85699199999868,
          "velocity": 0.7559055118110236,
          "duration": 0.10714275000000839
        },
        {
          "name": "D7",
          "midi": 98,
          "time": 150.85699199999868,
          "velocity": 0.7559055118110236,
          "duration": 0.10714275000000839
        },
        {
          "name": "C4",
          "midi": 60,
          "time": 151.17842024999868,
          "velocity": 0.7559055118110236,
          "duration": 0.10714275000000839
        },
        {
          "name": "D4",
          "midi": 62,
          "time": 151.17842024999868,
          "velocity": 0.7559055118110236,
          "duration": 0.10714275000000839
        },
        {
          "name": "C5",
          "midi": 72,
          "time": 151.17842024999868,
          "velocity": 0.7559055118110236,
          "duration": 0.10714275000000839
        },
        {
          "name": "D5",
          "midi": 74,
          "time": 151.17842024999868,
          "velocity": 0.7559055118110236,
          "duration": 0.10714275000000839
        },
        {
          "name": "C6",
          "midi": 84,
          "time": 151.17842024999868,
          "velocity": 0.7559055118110236,
          "duration": 0.10714275000000839
        },
        {
          "name": "D6",
          "midi": 86,
          "time": 151.17842024999868,
          "velocity": 0.7559055118110236,
          "duration": 0.10714275000000839
        },
        {
          "name": "C7",
          "midi": 96,
          "time": 151.17842024999868,
          "velocity": 0.7559055118110236,
          "duration": 0.10714275000000839
        },
        {
          "name": "D7",
          "midi": 98,
          "time": 151.17842024999868,
          "velocity": 0.7559055118110236,
          "duration": 0.10714275000000839
        },
        {
          "name": "C4",
          "midi": 60,
          "time": 151.49984849999868,
          "velocity": 0.7559055118110236,
          "duration": 0.10714275000000839
        },
        {
          "name": "D4",
          "midi": 62,
          "time": 151.49984849999868,
          "velocity": 0.7559055118110236,
          "duration": 0.10714275000000839
        },
        {
          "name": "C5",
          "midi": 72,
          "time": 151.49984849999868,
          "velocity": 0.7559055118110236,
          "duration": 0.10714275000000839
        },
        {
          "name": "D5",
          "midi": 74,
          "time": 151.49984849999868,
          "velocity": 0.7559055118110236,
          "duration": 0.10714275000000839
        },
        {
          "name": "C6",
          "midi": 84,
          "time": 151.49984849999868,
          "velocity": 0.7559055118110236,
          "duration": 0.10714275000000839
        },
        {
          "name": "D6",
          "midi": 86,
          "time": 151.49984849999868,
          "velocity": 0.7559055118110236,
          "duration": 0.10714275000000839
        },
        {
          "name": "C7",
          "midi": 96,
          "time": 151.49984849999868,
          "velocity": 0.7559055118110236,
          "duration": 0.10714275000000839
        },
        {
          "name": "D7",
          "midi": 98,
          "time": 151.49984849999868,
          "velocity": 0.7559055118110236,
          "duration": 0.10714275000000839
        },
        {
          "name": "C#4",
          "midi": 61,
          "time": 151.82127674999867,
          "velocity": 0.7559055118110236,
          "duration": 0.10714275000000839
        },
        {
          "name": "C#5",
          "midi": 73,
          "time": 151.82127674999867,
          "velocity": 0.7559055118110236,
          "duration": 0.10714275000000839
        },
        {
          "name": "C#6",
          "midi": 85,
          "time": 151.82127674999867,
          "velocity": 0.7559055118110236,
          "duration": 0.10714275000000839
        },
        {
          "name": "C#7",
          "midi": 97,
          "time": 151.82127674999867,
          "velocity": 0.7559055118110236,
          "duration": 0.10714275000000839
        },
        {
          "name": "C4",
          "midi": 60,
          "time": 151.92841949999868,
          "velocity": 0.7559055118110236,
          "duration": 0.10714275000000839
        },
        {
          "name": "C5",
          "midi": 72,
          "time": 151.92841949999868,
          "velocity": 0.7559055118110236,
          "duration": 0.10714275000000839
        },
        {
          "name": "C6",
          "midi": 84,
          "time": 151.92841949999868,
          "velocity": 0.7559055118110236,
          "duration": 0.10714275000000839
        },
        {
          "name": "C7",
          "midi": 96,
          "time": 151.92841949999868,
          "velocity": 0.7559055118110236,
          "duration": 0.10714275000000839
        },
        {
          "name": "C#4",
          "midi": 61,
          "time": 152.0355622499987,
          "velocity": 0.7559055118110236,
          "duration": 0.21428549999998836
        },
        {
          "name": "C#5",
          "midi": 73,
          "time": 152.0355622499987,
          "velocity": 0.7559055118110236,
          "duration": 0.21428549999998836
        },
        {
          "name": "C#6",
          "midi": 85,
          "time": 152.0355622499987,
          "velocity": 0.7559055118110236,
          "duration": 0.21428549999998836
        },
        {
          "name": "C#7",
          "midi": 97,
          "time": 152.0355622499987,
          "velocity": 0.7559055118110236,
          "duration": 0.21428549999998836
        },
        {
          "name": "D4",
          "midi": 62,
          "time": 152.24984774999868,
          "velocity": 0.7559055118110236,
          "duration": 0.21428549999998836
        },
        {
          "name": "D5",
          "midi": 74,
          "time": 152.24984774999868,
          "velocity": 0.7559055118110236,
          "duration": 0.21428549999998836
        },
        {
          "name": "D6",
          "midi": 86,
          "time": 152.24984774999868,
          "velocity": 0.7559055118110236,
          "duration": 0.21428549999998836
        },
        {
          "name": "D7",
          "midi": 98,
          "time": 152.24984774999868,
          "velocity": 0.7559055118110236,
          "duration": 0.21428549999998836
        },
        {
          "name": "C4",
          "midi": 60,
          "time": 152.57127599999868,
          "velocity": 0.7559055118110236,
          "duration": 0.10714275000000839
        },
        {
          "name": "D4",
          "midi": 62,
          "time": 152.57127599999868,
          "velocity": 0.7559055118110236,
          "duration": 0.10714275000000839
        },
        {
          "name": "C5",
          "midi": 72,
          "time": 152.57127599999868,
          "velocity": 0.7559055118110236,
          "duration": 0.10714275000000839
        },
        {
          "name": "D5",
          "midi": 74,
          "time": 152.57127599999868,
          "velocity": 0.7559055118110236,
          "duration": 0.10714275000000839
        },
        {
          "name": "C6",
          "midi": 84,
          "time": 152.57127599999868,
          "velocity": 0.7559055118110236,
          "duration": 0.10714275000000839
        },
        {
          "name": "D6",
          "midi": 86,
          "time": 152.57127599999868,
          "velocity": 0.7559055118110236,
          "duration": 0.10714275000000839
        },
        {
          "name": "C7",
          "midi": 96,
          "time": 152.57127599999868,
          "velocity": 0.7559055118110236,
          "duration": 0.10714275000000839
        },
        {
          "name": "D7",
          "midi": 98,
          "time": 152.57127599999868,
          "velocity": 0.7559055118110236,
          "duration": 0.10714275000000839
        },
        {
          "name": "C4",
          "midi": 60,
          "time": 152.89270424999867,
          "velocity": 0.7559055118110236,
          "duration": 0.10714275000000839
        },
        {
          "name": "D4",
          "midi": 62,
          "time": 152.89270424999867,
          "velocity": 0.7559055118110236,
          "duration": 0.10714275000000839
        },
        {
          "name": "C5",
          "midi": 72,
          "time": 152.89270424999867,
          "velocity": 0.7559055118110236,
          "duration": 0.10714275000000839
        },
        {
          "name": "D5",
          "midi": 74,
          "time": 152.89270424999867,
          "velocity": 0.7559055118110236,
          "duration": 0.10714275000000839
        },
        {
          "name": "C6",
          "midi": 84,
          "time": 152.89270424999867,
          "velocity": 0.7559055118110236,
          "duration": 0.10714275000000839
        },
        {
          "name": "D6",
          "midi": 86,
          "time": 152.89270424999867,
          "velocity": 0.7559055118110236,
          "duration": 0.10714275000000839
        },
        {
          "name": "C7",
          "midi": 96,
          "time": 152.89270424999867,
          "velocity": 0.7559055118110236,
          "duration": 0.10714275000000839
        },
        {
          "name": "D7",
          "midi": 98,
          "time": 152.89270424999867,
          "velocity": 0.7559055118110236,
          "duration": 0.10714275000000839
        },
        {
          "name": "C4",
          "midi": 60,
          "time": 153.21413249999867,
          "velocity": 0.7559055118110236,
          "duration": 0.10714275000000839
        },
        {
          "name": "D4",
          "midi": 62,
          "time": 153.21413249999867,
          "velocity": 0.7559055118110236,
          "duration": 0.10714275000000839
        },
        {
          "name": "C5",
          "midi": 72,
          "time": 153.21413249999867,
          "velocity": 0.7559055118110236,
          "duration": 0.10714275000000839
        },
        {
          "name": "D5",
          "midi": 74,
          "time": 153.21413249999867,
          "velocity": 0.7559055118110236,
          "duration": 0.10714275000000839
        },
        {
          "name": "C6",
          "midi": 84,
          "time": 153.21413249999867,
          "velocity": 0.7559055118110236,
          "duration": 0.10714275000000839
        },
        {
          "name": "D6",
          "midi": 86,
          "time": 153.21413249999867,
          "velocity": 0.7559055118110236,
          "duration": 0.10714275000000839
        },
        {
          "name": "C7",
          "midi": 96,
          "time": 153.21413249999867,
          "velocity": 0.7559055118110236,
          "duration": 0.10714275000000839
        },
        {
          "name": "D7",
          "midi": 98,
          "time": 153.21413249999867,
          "velocity": 0.7559055118110236,
          "duration": 0.10714275000000839
        },
        {
          "name": "C#4",
          "midi": 61,
          "time": 153.53556074999867,
          "velocity": 0.7559055118110236,
          "duration": 0.10714275000000839
        },
        {
          "name": "C#5",
          "midi": 73,
          "time": 153.53556074999867,
          "velocity": 0.7559055118110236,
          "duration": 0.10714275000000839
        },
        {
          "name": "C#6",
          "midi": 85,
          "time": 153.53556074999867,
          "velocity": 0.7559055118110236,
          "duration": 0.10714275000000839
        },
        {
          "name": "C#7",
          "midi": 97,
          "time": 153.53556074999867,
          "velocity": 0.7559055118110236,
          "duration": 0.10714275000000839
        },
        {
          "name": "C4",
          "midi": 60,
          "time": 153.64270349999867,
          "velocity": 0.7559055118110236,
          "duration": 0.10714275000000839
        },
        {
          "name": "C5",
          "midi": 72,
          "time": 153.64270349999867,
          "velocity": 0.7559055118110236,
          "duration": 0.10714275000000839
        },
        {
          "name": "C6",
          "midi": 84,
          "time": 153.64270349999867,
          "velocity": 0.7559055118110236,
          "duration": 0.10714275000000839
        },
        {
          "name": "C7",
          "midi": 96,
          "time": 153.64270349999867,
          "velocity": 0.7559055118110236,
          "duration": 0.10714275000000839
        },
        {
          "name": "C#4",
          "midi": 61,
          "time": 153.74984624999868,
          "velocity": 0.7559055118110236,
          "duration": 0.21428549999998836
        },
        {
          "name": "C#5",
          "midi": 73,
          "time": 153.74984624999868,
          "velocity": 0.7559055118110236,
          "duration": 0.21428549999998836
        },
        {
          "name": "C#6",
          "midi": 85,
          "time": 153.74984624999868,
          "velocity": 0.7559055118110236,
          "duration": 0.21428549999998836
        },
        {
          "name": "C#7",
          "midi": 97,
          "time": 153.74984624999868,
          "velocity": 0.7559055118110236,
          "duration": 0.21428549999998836
        },
        {
          "name": "D4",
          "midi": 62,
          "time": 153.96413174999867,
          "velocity": 0.7559055118110236,
          "duration": 0.21428549999998836
        },
        {
          "name": "D5",
          "midi": 74,
          "time": 153.96413174999867,
          "velocity": 0.7559055118110236,
          "duration": 0.21428549999998836
        },
        {
          "name": "D6",
          "midi": 86,
          "time": 153.96413174999867,
          "velocity": 0.7559055118110236,
          "duration": 0.21428549999998836
        },
        {
          "name": "D7",
          "midi": 98,
          "time": 153.96413174999867,
          "velocity": 0.7559055118110236,
          "duration": 0.21428549999998836
        },
        {
          "name": "C#4",
          "midi": 61,
          "time": 154.28555999999867,
          "velocity": 0.7559055118110236,
          "duration": 0.10714275000000839
        },
        {
          "name": "D#4",
          "midi": 63,
          "time": 154.28555999999867,
          "velocity": 0.7559055118110236,
          "duration": 0.10714275000000839
        },
        {
          "name": "C#5",
          "midi": 73,
          "time": 154.28555999999867,
          "velocity": 0.7559055118110236,
          "duration": 0.10714275000000839
        },
        {
          "name": "D#5",
          "midi": 75,
          "time": 154.28555999999867,
          "velocity": 0.7559055118110236,
          "duration": 0.10714275000000839
        },
        {
          "name": "C#6",
          "midi": 85,
          "time": 154.28555999999867,
          "velocity": 0.7559055118110236,
          "duration": 0.10714275000000839
        },
        {
          "name": "D#6",
          "midi": 87,
          "time": 154.28555999999867,
          "velocity": 0.7559055118110236,
          "duration": 0.10714275000000839
        },
        {
          "name": "C#7",
          "midi": 97,
          "time": 154.28555999999867,
          "velocity": 0.7559055118110236,
          "duration": 0.10714275000000839
        },
        {
          "name": "D#7",
          "midi": 99,
          "time": 154.28555999999867,
          "velocity": 0.7559055118110236,
          "duration": 0.10714275000000839
        },
        {
          "name": "C#4",
          "midi": 61,
          "time": 154.60698824999866,
          "velocity": 0.7559055118110236,
          "duration": 0.10714275000000839
        },
        {
          "name": "D#4",
          "midi": 63,
          "time": 154.60698824999866,
          "velocity": 0.7559055118110236,
          "duration": 0.10714275000000839
        },
        {
          "name": "C#5",
          "midi": 73,
          "time": 154.60698824999866,
          "velocity": 0.7559055118110236,
          "duration": 0.10714275000000839
        },
        {
          "name": "D#5",
          "midi": 75,
          "time": 154.60698824999866,
          "velocity": 0.7559055118110236,
          "duration": 0.10714275000000839
        },
        {
          "name": "C#6",
          "midi": 85,
          "time": 154.60698824999866,
          "velocity": 0.7559055118110236,
          "duration": 0.10714275000000839
        },
        {
          "name": "D#6",
          "midi": 87,
          "time": 154.60698824999866,
          "velocity": 0.7559055118110236,
          "duration": 0.10714275000000839
        },
        {
          "name": "C#7",
          "midi": 97,
          "time": 154.60698824999866,
          "velocity": 0.7559055118110236,
          "duration": 0.10714275000000839
        },
        {
          "name": "D#7",
          "midi": 99,
          "time": 154.60698824999866,
          "velocity": 0.7559055118110236,
          "duration": 0.10714275000000839
        },
        {
          "name": "C#4",
          "midi": 61,
          "time": 154.92841649999866,
          "velocity": 0.7559055118110236,
          "duration": 0.10714275000000839
        },
        {
          "name": "D#4",
          "midi": 63,
          "time": 154.92841649999866,
          "velocity": 0.7559055118110236,
          "duration": 0.10714275000000839
        },
        {
          "name": "C#5",
          "midi": 73,
          "time": 154.92841649999866,
          "velocity": 0.7559055118110236,
          "duration": 0.10714275000000839
        },
        {
          "name": "D#5",
          "midi": 75,
          "time": 154.92841649999866,
          "velocity": 0.7559055118110236,
          "duration": 0.10714275000000839
        },
        {
          "name": "C#6",
          "midi": 85,
          "time": 154.92841649999866,
          "velocity": 0.7559055118110236,
          "duration": 0.10714275000000839
        },
        {
          "name": "D#6",
          "midi": 87,
          "time": 154.92841649999866,
          "velocity": 0.7559055118110236,
          "duration": 0.10714275000000839
        },
        {
          "name": "C#7",
          "midi": 97,
          "time": 154.92841649999866,
          "velocity": 0.7559055118110236,
          "duration": 0.10714275000000839
        },
        {
          "name": "D#7",
          "midi": 99,
          "time": 154.92841649999866,
          "velocity": 0.7559055118110236,
          "duration": 0.10714275000000839
        },
        {
          "name": "C#4",
          "midi": 61,
          "time": 155.24984474999866,
          "velocity": 0.7559055118110236,
          "duration": 0.10714275000000839
        },
        {
          "name": "C#5",
          "midi": 73,
          "time": 155.24984474999866,
          "velocity": 0.7559055118110236,
          "duration": 0.10714275000000839
        },
        {
          "name": "C#6",
          "midi": 85,
          "time": 155.24984474999866,
          "velocity": 0.7559055118110236,
          "duration": 0.10714275000000839
        },
        {
          "name": "C#7",
          "midi": 97,
          "time": 155.24984474999866,
          "velocity": 0.7559055118110236,
          "duration": 0.10714275000000839
        },
        {
          "name": "C4",
          "midi": 60,
          "time": 155.35698749999867,
          "velocity": 0.7559055118110236,
          "duration": 0.10714275000000839
        },
        {
          "name": "C5",
          "midi": 72,
          "time": 155.35698749999867,
          "velocity": 0.7559055118110236,
          "duration": 0.10714275000000839
        },
        {
          "name": "C6",
          "midi": 84,
          "time": 155.35698749999867,
          "velocity": 0.7559055118110236,
          "duration": 0.10714275000000839
        },
        {
          "name": "C7",
          "midi": 96,
          "time": 155.35698749999867,
          "velocity": 0.7559055118110236,
          "duration": 0.10714275000000839
        },
        {
          "name": "C#4",
          "midi": 61,
          "time": 155.46413024999868,
          "velocity": 0.7559055118110236,
          "duration": 0.21428549999998836
        },
        {
          "name": "C#5",
          "midi": 73,
          "time": 155.46413024999868,
          "velocity": 0.7559055118110236,
          "duration": 0.21428549999998836
        },
        {
          "name": "C#6",
          "midi": 85,
          "time": 155.46413024999868,
          "velocity": 0.7559055118110236,
          "duration": 0.21428549999998836
        },
        {
          "name": "C#7",
          "midi": 97,
          "time": 155.46413024999868,
          "velocity": 0.7559055118110236,
          "duration": 0.21428549999998836
        },
        {
          "name": "D#4",
          "midi": 63,
          "time": 155.67841574999866,
          "velocity": 0.7559055118110236,
          "duration": 0.21428549999998836
        },
        {
          "name": "D#5",
          "midi": 75,
          "time": 155.67841574999866,
          "velocity": 0.7559055118110236,
          "duration": 0.21428549999998836
        },
        {
          "name": "D#6",
          "midi": 87,
          "time": 155.67841574999866,
          "velocity": 0.7559055118110236,
          "duration": 0.21428549999998836
        },
        {
          "name": "D#7",
          "midi": 99,
          "time": 155.67841574999866,
          "velocity": 0.7559055118110236,
          "duration": 0.21428549999998836
        },
        {
          "name": "C#4",
          "midi": 61,
          "time": 155.99984399999866,
          "velocity": 0.7559055118110236,
          "duration": 0.10714275000000839
        },
        {
          "name": "D#4",
          "midi": 63,
          "time": 155.99984399999866,
          "velocity": 0.7559055118110236,
          "duration": 0.10714275000000839
        },
        {
          "name": "C#5",
          "midi": 73,
          "time": 155.99984399999866,
          "velocity": 0.7559055118110236,
          "duration": 0.10714275000000839
        },
        {
          "name": "D#5",
          "midi": 75,
          "time": 155.99984399999866,
          "velocity": 0.7559055118110236,
          "duration": 0.10714275000000839
        },
        {
          "name": "C#6",
          "midi": 85,
          "time": 155.99984399999866,
          "velocity": 0.7559055118110236,
          "duration": 0.10714275000000839
        },
        {
          "name": "D#6",
          "midi": 87,
          "time": 155.99984399999866,
          "velocity": 0.7559055118110236,
          "duration": 0.10714275000000839
        },
        {
          "name": "C#7",
          "midi": 97,
          "time": 155.99984399999866,
          "velocity": 0.7559055118110236,
          "duration": 0.10714275000000839
        },
        {
          "name": "D#7",
          "midi": 99,
          "time": 155.99984399999866,
          "velocity": 0.7559055118110236,
          "duration": 0.10714275000000839
        },
        {
          "name": "C#4",
          "midi": 61,
          "time": 156.32127224999866,
          "velocity": 0.7559055118110236,
          "duration": 0.10714275000000839
        },
        {
          "name": "D#4",
          "midi": 63,
          "time": 156.32127224999866,
          "velocity": 0.7559055118110236,
          "duration": 0.10714275000000839
        },
        {
          "name": "C#5",
          "midi": 73,
          "time": 156.32127224999866,
          "velocity": 0.7559055118110236,
          "duration": 0.10714275000000839
        },
        {
          "name": "D#5",
          "midi": 75,
          "time": 156.32127224999866,
          "velocity": 0.7559055118110236,
          "duration": 0.10714275000000839
        },
        {
          "name": "C#6",
          "midi": 85,
          "time": 156.32127224999866,
          "velocity": 0.7559055118110236,
          "duration": 0.10714275000000839
        },
        {
          "name": "D#6",
          "midi": 87,
          "time": 156.32127224999866,
          "velocity": 0.7559055118110236,
          "duration": 0.10714275000000839
        },
        {
          "name": "C#7",
          "midi": 97,
          "time": 156.32127224999866,
          "velocity": 0.7559055118110236,
          "duration": 0.10714275000000839
        },
        {
          "name": "D#7",
          "midi": 99,
          "time": 156.32127224999866,
          "velocity": 0.7559055118110236,
          "duration": 0.10714275000000839
        },
        {
          "name": "C#4",
          "midi": 61,
          "time": 156.64270049999865,
          "velocity": 0.7559055118110236,
          "duration": 0.10714275000000839
        },
        {
          "name": "D#4",
          "midi": 63,
          "time": 156.64270049999865,
          "velocity": 0.7559055118110236,
          "duration": 0.10714275000000839
        },
        {
          "name": "C#5",
          "midi": 73,
          "time": 156.64270049999865,
          "velocity": 0.7559055118110236,
          "duration": 0.10714275000000839
        },
        {
          "name": "D#5",
          "midi": 75,
          "time": 156.64270049999865,
          "velocity": 0.7559055118110236,
          "duration": 0.10714275000000839
        },
        {
          "name": "C#6",
          "midi": 85,
          "time": 156.64270049999865,
          "velocity": 0.7559055118110236,
          "duration": 0.10714275000000839
        },
        {
          "name": "D#6",
          "midi": 87,
          "time": 156.64270049999865,
          "velocity": 0.7559055118110236,
          "duration": 0.10714275000000839
        },
        {
          "name": "C#7",
          "midi": 97,
          "time": 156.64270049999865,
          "velocity": 0.7559055118110236,
          "duration": 0.10714275000000839
        },
        {
          "name": "D#7",
          "midi": 99,
          "time": 156.64270049999865,
          "velocity": 0.7559055118110236,
          "duration": 0.10714275000000839
        },
        {
          "name": "C#4",
          "midi": 61,
          "time": 156.96412874999865,
          "velocity": 0.7559055118110236,
          "duration": 0.10714275000000839
        },
        {
          "name": "C#5",
          "midi": 73,
          "time": 156.96412874999865,
          "velocity": 0.7559055118110236,
          "duration": 0.10714275000000839
        },
        {
          "name": "C#6",
          "midi": 85,
          "time": 156.96412874999865,
          "velocity": 0.7559055118110236,
          "duration": 0.10714275000000839
        },
        {
          "name": "C#7",
          "midi": 97,
          "time": 156.96412874999865,
          "velocity": 0.7559055118110236,
          "duration": 0.10714275000000839
        },
        {
          "name": "C4",
          "midi": 60,
          "time": 157.07127149999866,
          "velocity": 0.7559055118110236,
          "duration": 0.10714275000000839
        },
        {
          "name": "C5",
          "midi": 72,
          "time": 157.07127149999866,
          "velocity": 0.7559055118110236,
          "duration": 0.10714275000000839
        },
        {
          "name": "C6",
          "midi": 84,
          "time": 157.07127149999866,
          "velocity": 0.7559055118110236,
          "duration": 0.10714275000000839
        },
        {
          "name": "C7",
          "midi": 96,
          "time": 157.07127149999866,
          "velocity": 0.7559055118110236,
          "duration": 0.10714275000000839
        },
        {
          "name": "C#4",
          "midi": 61,
          "time": 157.17841424999867,
          "velocity": 0.7559055118110236,
          "duration": 0.21428549999998836
        },
        {
          "name": "C#5",
          "midi": 73,
          "time": 157.17841424999867,
          "velocity": 0.7559055118110236,
          "duration": 0.21428549999998836
        },
        {
          "name": "C#6",
          "midi": 85,
          "time": 157.17841424999867,
          "velocity": 0.7559055118110236,
          "duration": 0.21428549999998836
        },
        {
          "name": "C#7",
          "midi": 97,
          "time": 157.17841424999867,
          "velocity": 0.7559055118110236,
          "duration": 0.21428549999998836
        },
        {
          "name": "D#4",
          "midi": 63,
          "time": 157.39269974999866,
          "velocity": 0.7559055118110236,
          "duration": 0.21428549999998836
        },
        {
          "name": "D#5",
          "midi": 75,
          "time": 157.39269974999866,
          "velocity": 0.7559055118110236,
          "duration": 0.21428549999998836
        },
        {
          "name": "D#6",
          "midi": 87,
          "time": 157.39269974999866,
          "velocity": 0.7559055118110236,
          "duration": 0.21428549999998836
        },
        {
          "name": "D#7",
          "midi": 99,
          "time": 157.39269974999866,
          "velocity": 0.7559055118110236,
          "duration": 0.21428549999998836
        },
        {
          "name": "D4",
          "midi": 62,
          "time": 157.71412799999865,
          "velocity": 0.7559055118110236,
          "duration": 0.10714275000000839
        },
        {
          "name": "E4",
          "midi": 64,
          "time": 157.71412799999865,
          "velocity": 0.7559055118110236,
          "duration": 0.10714275000000839
        },
        {
          "name": "D5",
          "midi": 74,
          "time": 157.71412799999865,
          "velocity": 0.7559055118110236,
          "duration": 0.10714275000000839
        },
        {
          "name": "E5",
          "midi": 76,
          "time": 157.71412799999865,
          "velocity": 0.7559055118110236,
          "duration": 0.10714275000000839
        },
        {
          "name": "D6",
          "midi": 86,
          "time": 157.71412799999865,
          "velocity": 0.7559055118110236,
          "duration": 0.10714275000000839
        },
        {
          "name": "E6",
          "midi": 88,
          "time": 157.71412799999865,
          "velocity": 0.7559055118110236,
          "duration": 0.10714275000000839
        },
        {
          "name": "D7",
          "midi": 98,
          "time": 157.71412799999865,
          "velocity": 0.7559055118110236,
          "duration": 0.10714275000000839
        },
        {
          "name": "E7",
          "midi": 100,
          "time": 157.71412799999865,
          "velocity": 0.7559055118110236,
          "duration": 0.10714275000000839
        },
        {
          "name": "D4",
          "midi": 62,
          "time": 158.03555624999865,
          "velocity": 0.7559055118110236,
          "duration": 0.10714275000000839
        },
        {
          "name": "E4",
          "midi": 64,
          "time": 158.03555624999865,
          "velocity": 0.7559055118110236,
          "duration": 0.10714275000000839
        },
        {
          "name": "D5",
          "midi": 74,
          "time": 158.03555624999865,
          "velocity": 0.7559055118110236,
          "duration": 0.10714275000000839
        },
        {
          "name": "E5",
          "midi": 76,
          "time": 158.03555624999865,
          "velocity": 0.7559055118110236,
          "duration": 0.10714275000000839
        },
        {
          "name": "D6",
          "midi": 86,
          "time": 158.03555624999865,
          "velocity": 0.7559055118110236,
          "duration": 0.10714275000000839
        },
        {
          "name": "E6",
          "midi": 88,
          "time": 158.03555624999865,
          "velocity": 0.7559055118110236,
          "duration": 0.10714275000000839
        },
        {
          "name": "D7",
          "midi": 98,
          "time": 158.03555624999865,
          "velocity": 0.7559055118110236,
          "duration": 0.10714275000000839
        },
        {
          "name": "E7",
          "midi": 100,
          "time": 158.03555624999865,
          "velocity": 0.7559055118110236,
          "duration": 0.10714275000000839
        },
        {
          "name": "D4",
          "midi": 62,
          "time": 158.35698449999865,
          "velocity": 0.7559055118110236,
          "duration": 0.10714275000000839
        },
        {
          "name": "E4",
          "midi": 64,
          "time": 158.35698449999865,
          "velocity": 0.7559055118110236,
          "duration": 0.10714275000000839
        },
        {
          "name": "D5",
          "midi": 74,
          "time": 158.35698449999865,
          "velocity": 0.7559055118110236,
          "duration": 0.10714275000000839
        },
        {
          "name": "E5",
          "midi": 76,
          "time": 158.35698449999865,
          "velocity": 0.7559055118110236,
          "duration": 0.10714275000000839
        },
        {
          "name": "D6",
          "midi": 86,
          "time": 158.35698449999865,
          "velocity": 0.7559055118110236,
          "duration": 0.10714275000000839
        },
        {
          "name": "E6",
          "midi": 88,
          "time": 158.35698449999865,
          "velocity": 0.7559055118110236,
          "duration": 0.10714275000000839
        },
        {
          "name": "D7",
          "midi": 98,
          "time": 158.35698449999865,
          "velocity": 0.7559055118110236,
          "duration": 0.10714275000000839
        },
        {
          "name": "E7",
          "midi": 100,
          "time": 158.35698449999865,
          "velocity": 0.7559055118110236,
          "duration": 0.10714275000000839
        },
        {
          "name": "D4",
          "midi": 62,
          "time": 158.67841274999864,
          "velocity": 0.7559055118110236,
          "duration": 0.10714275000000839
        },
        {
          "name": "D5",
          "midi": 74,
          "time": 158.67841274999864,
          "velocity": 0.7559055118110236,
          "duration": 0.10714275000000839
        },
        {
          "name": "D6",
          "midi": 86,
          "time": 158.67841274999864,
          "velocity": 0.7559055118110236,
          "duration": 0.10714275000000839
        },
        {
          "name": "D7",
          "midi": 98,
          "time": 158.67841274999864,
          "velocity": 0.7559055118110236,
          "duration": 0.10714275000000839
        },
        {
          "name": "C#4",
          "midi": 61,
          "time": 158.78555549999865,
          "velocity": 0.7559055118110236,
          "duration": 0.10714275000000839
        },
        {
          "name": "C#5",
          "midi": 73,
          "time": 158.78555549999865,
          "velocity": 0.7559055118110236,
          "duration": 0.10714275000000839
        },
        {
          "name": "C#6",
          "midi": 85,
          "time": 158.78555549999865,
          "velocity": 0.7559055118110236,
          "duration": 0.10714275000000839
        },
        {
          "name": "C#7",
          "midi": 97,
          "time": 158.78555549999865,
          "velocity": 0.7559055118110236,
          "duration": 0.10714275000000839
        },
        {
          "name": "D4",
          "midi": 62,
          "time": 158.89269824999866,
          "velocity": 0.7559055118110236,
          "duration": 0.21428549999998836
        },
        {
          "name": "D5",
          "midi": 74,
          "time": 158.89269824999866,
          "velocity": 0.7559055118110236,
          "duration": 0.21428549999998836
        },
        {
          "name": "D6",
          "midi": 86,
          "time": 158.89269824999866,
          "velocity": 0.7559055118110236,
          "duration": 0.21428549999998836
        },
        {
          "name": "D7",
          "midi": 98,
          "time": 158.89269824999866,
          "velocity": 0.7559055118110236,
          "duration": 0.21428549999998836
        },
        {
          "name": "D#4",
          "midi": 63,
          "time": 159.10698374999865,
          "velocity": 0.7559055118110236,
          "duration": 0.21428549999998836
        },
        {
          "name": "D#5",
          "midi": 75,
          "time": 159.10698374999865,
          "velocity": 0.7559055118110236,
          "duration": 0.21428549999998836
        },
        {
          "name": "D#6",
          "midi": 87,
          "time": 159.10698374999865,
          "velocity": 0.7559055118110236,
          "duration": 0.21428549999998836
        },
        {
          "name": "D#7",
          "midi": 99,
          "time": 159.10698374999865,
          "velocity": 0.7559055118110236,
          "duration": 0.21428549999998836
        },
        {
          "name": "D4",
          "midi": 62,
          "time": 159.42841199999864,
          "velocity": 0.7559055118110236,
          "duration": 0.10714275000000839
        },
        {
          "name": "E4",
          "midi": 64,
          "time": 159.42841199999864,
          "velocity": 0.7559055118110236,
          "duration": 0.10714275000000839
        },
        {
          "name": "D5",
          "midi": 74,
          "time": 159.42841199999864,
          "velocity": 0.7559055118110236,
          "duration": 0.10714275000000839
        },
        {
          "name": "E5",
          "midi": 76,
          "time": 159.42841199999864,
          "velocity": 0.7559055118110236,
          "duration": 0.10714275000000839
        },
        {
          "name": "D6",
          "midi": 86,
          "time": 159.42841199999864,
          "velocity": 0.7559055118110236,
          "duration": 0.10714275000000839
        },
        {
          "name": "E6",
          "midi": 88,
          "time": 159.42841199999864,
          "velocity": 0.7559055118110236,
          "duration": 0.10714275000000839
        },
        {
          "name": "D7",
          "midi": 98,
          "time": 159.42841199999864,
          "velocity": 0.7559055118110236,
          "duration": 0.10714275000000839
        },
        {
          "name": "E7",
          "midi": 100,
          "time": 159.42841199999864,
          "velocity": 0.7559055118110236,
          "duration": 0.10714275000000839
        },
        {
          "name": "D4",
          "midi": 62,
          "time": 159.74984024999864,
          "velocity": 0.7559055118110236,
          "duration": 0.10714275000000839
        },
        {
          "name": "E4",
          "midi": 64,
          "time": 159.74984024999864,
          "velocity": 0.7559055118110236,
          "duration": 0.10714275000000839
        },
        {
          "name": "D5",
          "midi": 74,
          "time": 159.74984024999864,
          "velocity": 0.7559055118110236,
          "duration": 0.10714275000000839
        },
        {
          "name": "E5",
          "midi": 76,
          "time": 159.74984024999864,
          "velocity": 0.7559055118110236,
          "duration": 0.10714275000000839
        },
        {
          "name": "D6",
          "midi": 86,
          "time": 159.74984024999864,
          "velocity": 0.7559055118110236,
          "duration": 0.10714275000000839
        },
        {
          "name": "E6",
          "midi": 88,
          "time": 159.74984024999864,
          "velocity": 0.7559055118110236,
          "duration": 0.10714275000000839
        },
        {
          "name": "D7",
          "midi": 98,
          "time": 159.74984024999864,
          "velocity": 0.7559055118110236,
          "duration": 0.10714275000000839
        },
        {
          "name": "E7",
          "midi": 100,
          "time": 159.74984024999864,
          "velocity": 0.7559055118110236,
          "duration": 0.10714275000000839
        },
        {
          "name": "D4",
          "midi": 62,
          "time": 160.07126849999864,
          "velocity": 0.7559055118110236,
          "duration": 0.10714275000000839
        },
        {
          "name": "E4",
          "midi": 64,
          "time": 160.07126849999864,
          "velocity": 0.7559055118110236,
          "duration": 0.10714275000000839
        },
        {
          "name": "D5",
          "midi": 74,
          "time": 160.07126849999864,
          "velocity": 0.7559055118110236,
          "duration": 0.10714275000000839
        },
        {
          "name": "E5",
          "midi": 76,
          "time": 160.07126849999864,
          "velocity": 0.7559055118110236,
          "duration": 0.10714275000000839
        },
        {
          "name": "D6",
          "midi": 86,
          "time": 160.07126849999864,
          "velocity": 0.7559055118110236,
          "duration": 0.10714275000000839
        },
        {
          "name": "E6",
          "midi": 88,
          "time": 160.07126849999864,
          "velocity": 0.7559055118110236,
          "duration": 0.10714275000000839
        },
        {
          "name": "D7",
          "midi": 98,
          "time": 160.07126849999864,
          "velocity": 0.7559055118110236,
          "duration": 0.10714275000000839
        },
        {
          "name": "E7",
          "midi": 100,
          "time": 160.07126849999864,
          "velocity": 0.7559055118110236,
          "duration": 0.10714275000000839
        },
        {
          "name": "D4",
          "midi": 62,
          "time": 160.39269674999863,
          "velocity": 0.7559055118110236,
          "duration": 0.10714275000000839
        },
        {
          "name": "D5",
          "midi": 74,
          "time": 160.39269674999863,
          "velocity": 0.7559055118110236,
          "duration": 0.10714275000000839
        },
        {
          "name": "D6",
          "midi": 86,
          "time": 160.39269674999863,
          "velocity": 0.7559055118110236,
          "duration": 0.10714275000000839
        },
        {
          "name": "D7",
          "midi": 98,
          "time": 160.39269674999863,
          "velocity": 0.7559055118110236,
          "duration": 0.10714275000000839
        },
        {
          "name": "C#4",
          "midi": 61,
          "time": 160.49983949999864,
          "velocity": 0.7559055118110236,
          "duration": 0.10714275000000839
        },
        {
          "name": "C#5",
          "midi": 73,
          "time": 160.49983949999864,
          "velocity": 0.7559055118110236,
          "duration": 0.10714275000000839
        },
        {
          "name": "C#6",
          "midi": 85,
          "time": 160.49983949999864,
          "velocity": 0.7559055118110236,
          "duration": 0.10714275000000839
        },
        {
          "name": "C#7",
          "midi": 97,
          "time": 160.49983949999864,
          "velocity": 0.7559055118110236,
          "duration": 0.10714275000000839
        },
        {
          "name": "D4",
          "midi": 62,
          "time": 160.60698224999865,
          "velocity": 0.7559055118110236,
          "duration": 0.21428549999998836
        },
        {
          "name": "D5",
          "midi": 74,
          "time": 160.60698224999865,
          "velocity": 0.7559055118110236,
          "duration": 0.21428549999998836
        },
        {
          "name": "D6",
          "midi": 86,
          "time": 160.60698224999865,
          "velocity": 0.7559055118110236,
          "duration": 0.21428549999998836
        },
        {
          "name": "D7",
          "midi": 98,
          "time": 160.60698224999865,
          "velocity": 0.7559055118110236,
          "duration": 0.21428549999998836
        },
        {
          "name": "D#4",
          "midi": 63,
          "time": 160.82126774999864,
          "velocity": 0.7559055118110236,
          "duration": 0.21428549999998836
        },
        {
          "name": "D#5",
          "midi": 75,
          "time": 160.82126774999864,
          "velocity": 0.7559055118110236,
          "duration": 0.21428549999998836
        },
        {
          "name": "D#6",
          "midi": 87,
          "time": 160.82126774999864,
          "velocity": 0.7559055118110236,
          "duration": 0.21428549999998836
        },
        {
          "name": "D#7",
          "midi": 99,
          "time": 160.82126774999864,
          "velocity": 0.7559055118110236,
          "duration": 0.21428549999998836
        },
        {
          "name": "D#4",
          "midi": 63,
          "time": 161.14269599999864,
          "velocity": 0.7559055118110236,
          "duration": 0.10714275000000839
        },
        {
          "name": "E4",
          "midi": 64,
          "time": 161.14269599999864,
          "velocity": 0.7559055118110236,
          "duration": 0.10714275000000839
        },
        {
          "name": "D#5",
          "midi": 75,
          "time": 161.14269599999864,
          "velocity": 0.7559055118110236,
          "duration": 0.10714275000000839
        },
        {
          "name": "E5",
          "midi": 76,
          "time": 161.14269599999864,
          "velocity": 0.7559055118110236,
          "duration": 0.10714275000000839
        },
        {
          "name": "D#6",
          "midi": 87,
          "time": 161.14269599999864,
          "velocity": 0.7559055118110236,
          "duration": 0.10714275000000839
        },
        {
          "name": "E6",
          "midi": 88,
          "time": 161.14269599999864,
          "velocity": 0.7559055118110236,
          "duration": 0.10714275000000839
        },
        {
          "name": "D#7",
          "midi": 99,
          "time": 161.14269599999864,
          "velocity": 0.7559055118110236,
          "duration": 0.10714275000000839
        },
        {
          "name": "E7",
          "midi": 100,
          "time": 161.14269599999864,
          "velocity": 0.7559055118110236,
          "duration": 0.10714275000000839
        },
        {
          "name": "D#4",
          "midi": 63,
          "time": 161.46412424999863,
          "velocity": 0.7559055118110236,
          "duration": 0.10714275000000839
        },
        {
          "name": "E4",
          "midi": 64,
          "time": 161.46412424999863,
          "velocity": 0.7559055118110236,
          "duration": 0.10714275000000839
        },
        {
          "name": "D#5",
          "midi": 75,
          "time": 161.46412424999863,
          "velocity": 0.7559055118110236,
          "duration": 0.10714275000000839
        },
        {
          "name": "E5",
          "midi": 76,
          "time": 161.46412424999863,
          "velocity": 0.7559055118110236,
          "duration": 0.10714275000000839
        },
        {
          "name": "D#6",
          "midi": 87,
          "time": 161.46412424999863,
          "velocity": 0.7559055118110236,
          "duration": 0.10714275000000839
        },
        {
          "name": "E6",
          "midi": 88,
          "time": 161.46412424999863,
          "velocity": 0.7559055118110236,
          "duration": 0.10714275000000839
        },
        {
          "name": "D#7",
          "midi": 99,
          "time": 161.46412424999863,
          "velocity": 0.7559055118110236,
          "duration": 0.10714275000000839
        },
        {
          "name": "E7",
          "midi": 100,
          "time": 161.46412424999863,
          "velocity": 0.7559055118110236,
          "duration": 0.10714275000000839
        },
        {
          "name": "D#4",
          "midi": 63,
          "time": 161.78555249999863,
          "velocity": 0.7559055118110236,
          "duration": 0.10714275000000839
        },
        {
          "name": "E4",
          "midi": 64,
          "time": 161.78555249999863,
          "velocity": 0.7559055118110236,
          "duration": 0.10714275000000839
        },
        {
          "name": "D#5",
          "midi": 75,
          "time": 161.78555249999863,
          "velocity": 0.7559055118110236,
          "duration": 0.10714275000000839
        },
        {
          "name": "E5",
          "midi": 76,
          "time": 161.78555249999863,
          "velocity": 0.7559055118110236,
          "duration": 0.10714275000000839
        },
        {
          "name": "D#6",
          "midi": 87,
          "time": 161.78555249999863,
          "velocity": 0.7559055118110236,
          "duration": 0.10714275000000839
        },
        {
          "name": "E6",
          "midi": 88,
          "time": 161.78555249999863,
          "velocity": 0.7559055118110236,
          "duration": 0.10714275000000839
        },
        {
          "name": "D#7",
          "midi": 99,
          "time": 161.78555249999863,
          "velocity": 0.7559055118110236,
          "duration": 0.10714275000000839
        },
        {
          "name": "E7",
          "midi": 100,
          "time": 161.78555249999863,
          "velocity": 0.7559055118110236,
          "duration": 0.10714275000000839
        },
        {
          "name": "D4",
          "midi": 62,
          "time": 162.10698074999863,
          "velocity": 0.7559055118110236,
          "duration": 0.10714275000000839
        },
        {
          "name": "D5",
          "midi": 74,
          "time": 162.10698074999863,
          "velocity": 0.7559055118110236,
          "duration": 0.10714275000000839
        },
        {
          "name": "D6",
          "midi": 86,
          "time": 162.10698074999863,
          "velocity": 0.7559055118110236,
          "duration": 0.10714275000000839
        },
        {
          "name": "D7",
          "midi": 98,
          "time": 162.10698074999863,
          "velocity": 0.7559055118110236,
          "duration": 0.10714275000000839
        },
        {
          "name": "C#4",
          "midi": 61,
          "time": 162.21412349999864,
          "velocity": 0.7559055118110236,
          "duration": 0.10714275000000839
        },
        {
          "name": "C#5",
          "midi": 73,
          "time": 162.21412349999864,
          "velocity": 0.7559055118110236,
          "duration": 0.10714275000000839
        },
        {
          "name": "C#6",
          "midi": 85,
          "time": 162.21412349999864,
          "velocity": 0.7559055118110236,
          "duration": 0.10714275000000839
        },
        {
          "name": "C#7",
          "midi": 97,
          "time": 162.21412349999864,
          "velocity": 0.7559055118110236,
          "duration": 0.10714275000000839
        },
        {
          "name": "D4",
          "midi": 62,
          "time": 162.32126624999864,
          "velocity": 0.7559055118110236,
          "duration": 0.21428549999998836
        },
        {
          "name": "D5",
          "midi": 74,
          "time": 162.32126624999864,
          "velocity": 0.7559055118110236,
          "duration": 0.21428549999998836
        },
        {
          "name": "D6",
          "midi": 86,
          "time": 162.32126624999864,
          "velocity": 0.7559055118110236,
          "duration": 0.21428549999998836
        },
        {
          "name": "D7",
          "midi": 98,
          "time": 162.32126624999864,
          "velocity": 0.7559055118110236,
          "duration": 0.21428549999998836
        },
        {
          "name": "E4",
          "midi": 64,
          "time": 162.53555174999863,
          "velocity": 0.7559055118110236,
          "duration": 0.21428549999998836
        },
        {
          "name": "E5",
          "midi": 76,
          "time": 162.53555174999863,
          "velocity": 0.7559055118110236,
          "duration": 0.21428549999998836
        },
        {
          "name": "E6",
          "midi": 88,
          "time": 162.53555174999863,
          "velocity": 0.7559055118110236,
          "duration": 0.21428549999998836
        },
        {
          "name": "E7",
          "midi": 100,
          "time": 162.53555174999863,
          "velocity": 0.7559055118110236,
          "duration": 0.21428549999998836
        },
        {
          "name": "D#4",
          "midi": 63,
          "time": 162.85697999999863,
          "velocity": 0.7559055118110236,
          "duration": 0.10714275000000839
        },
        {
          "name": "E4",
          "midi": 64,
          "time": 162.85697999999863,
          "velocity": 0.7559055118110236,
          "duration": 0.10714275000000839
        },
        {
          "name": "D#5",
          "midi": 75,
          "time": 162.85697999999863,
          "velocity": 0.7559055118110236,
          "duration": 0.10714275000000839
        },
        {
          "name": "E5",
          "midi": 76,
          "time": 162.85697999999863,
          "velocity": 0.7559055118110236,
          "duration": 0.10714275000000839
        },
        {
          "name": "D#6",
          "midi": 87,
          "time": 162.85697999999863,
          "velocity": 0.7559055118110236,
          "duration": 0.10714275000000839
        },
        {
          "name": "E6",
          "midi": 88,
          "time": 162.85697999999863,
          "velocity": 0.7559055118110236,
          "duration": 0.10714275000000839
        },
        {
          "name": "D#7",
          "midi": 99,
          "time": 162.85697999999863,
          "velocity": 0.7559055118110236,
          "duration": 0.10714275000000839
        },
        {
          "name": "E7",
          "midi": 100,
          "time": 162.85697999999863,
          "velocity": 0.7559055118110236,
          "duration": 0.10714275000000839
        },
        {
          "name": "D#4",
          "midi": 63,
          "time": 163.17840824999863,
          "velocity": 0.7559055118110236,
          "duration": 0.10714275000000839
        },
        {
          "name": "E4",
          "midi": 64,
          "time": 163.17840824999863,
          "velocity": 0.7559055118110236,
          "duration": 0.10714275000000839
        },
        {
          "name": "D#5",
          "midi": 75,
          "time": 163.17840824999863,
          "velocity": 0.7559055118110236,
          "duration": 0.10714275000000839
        },
        {
          "name": "E5",
          "midi": 76,
          "time": 163.17840824999863,
          "velocity": 0.7559055118110236,
          "duration": 0.10714275000000839
        },
        {
          "name": "D#6",
          "midi": 87,
          "time": 163.17840824999863,
          "velocity": 0.7559055118110236,
          "duration": 0.10714275000000839
        },
        {
          "name": "E6",
          "midi": 88,
          "time": 163.17840824999863,
          "velocity": 0.7559055118110236,
          "duration": 0.10714275000000839
        },
        {
          "name": "D#7",
          "midi": 99,
          "time": 163.17840824999863,
          "velocity": 0.7559055118110236,
          "duration": 0.10714275000000839
        },
        {
          "name": "E7",
          "midi": 100,
          "time": 163.17840824999863,
          "velocity": 0.7559055118110236,
          "duration": 0.10714275000000839
        },
        {
          "name": "D#4",
          "midi": 63,
          "time": 163.49983649999862,
          "velocity": 0.7559055118110236,
          "duration": 0.10714275000000839
        },
        {
          "name": "E4",
          "midi": 64,
          "time": 163.49983649999862,
          "velocity": 0.7559055118110236,
          "duration": 0.10714275000000839
        },
        {
          "name": "D#5",
          "midi": 75,
          "time": 163.49983649999862,
          "velocity": 0.7559055118110236,
          "duration": 0.10714275000000839
        },
        {
          "name": "E5",
          "midi": 76,
          "time": 163.49983649999862,
          "velocity": 0.7559055118110236,
          "duration": 0.10714275000000839
        },
        {
          "name": "D#6",
          "midi": 87,
          "time": 163.49983649999862,
          "velocity": 0.7559055118110236,
          "duration": 0.10714275000000839
        },
        {
          "name": "E6",
          "midi": 88,
          "time": 163.49983649999862,
          "velocity": 0.7559055118110236,
          "duration": 0.10714275000000839
        },
        {
          "name": "D#7",
          "midi": 99,
          "time": 163.49983649999862,
          "velocity": 0.7559055118110236,
          "duration": 0.10714275000000839
        },
        {
          "name": "E7",
          "midi": 100,
          "time": 163.49983649999862,
          "velocity": 0.7559055118110236,
          "duration": 0.10714275000000839
        },
        {
          "name": "E4",
          "midi": 64,
          "time": 163.82126474999862,
          "velocity": 0.7559055118110236,
          "duration": 0.7499992500000019
        },
        {
          "name": "E5",
          "midi": 76,
          "time": 163.82126474999862,
          "velocity": 0.7559055118110236,
          "duration": 0.7499992500000019
        },
        {
          "name": "E6",
          "midi": 88,
          "time": 163.82126474999862,
          "velocity": 0.7559055118110236,
          "duration": 0.7499992500000019
        },
        {
          "name": "E7",
          "midi": 100,
          "time": 163.82126474999862,
          "velocity": 0.7559055118110236,
          "duration": 0.7499992500000019
        },
        {
          "name": "C4",
          "midi": 60,
          "time": 164.57126399999862,
          "velocity": 0.7559055118110236,
          "duration": 0.10714275000000839
        },
        {
          "name": "D4",
          "midi": 62,
          "time": 164.57126399999862,
          "velocity": 0.7559055118110236,
          "duration": 0.10714275000000839
        },
        {
          "name": "C5",
          "midi": 72,
          "time": 164.57126399999862,
          "velocity": 0.7559055118110236,
          "duration": 0.10714275000000839
        },
        {
          "name": "D5",
          "midi": 74,
          "time": 164.57126399999862,
          "velocity": 0.7559055118110236,
          "duration": 0.10714275000000839
        },
        {
          "name": "C6",
          "midi": 84,
          "time": 164.57126399999862,
          "velocity": 0.7559055118110236,
          "duration": 0.10714275000000839
        },
        {
          "name": "D6",
          "midi": 86,
          "time": 164.57126399999862,
          "velocity": 0.7559055118110236,
          "duration": 0.10714275000000839
        },
        {
          "name": "C7",
          "midi": 96,
          "time": 164.57126399999862,
          "velocity": 0.7559055118110236,
          "duration": 0.10714275000000839
        },
        {
          "name": "D7",
          "midi": 98,
          "time": 164.57126399999862,
          "velocity": 0.7559055118110236,
          "duration": 0.10714275000000839
        },
        {
          "name": "C4",
          "midi": 60,
          "time": 164.89269224999862,
          "velocity": 0.7559055118110236,
          "duration": 0.10714275000000839
        },
        {
          "name": "D4",
          "midi": 62,
          "time": 164.89269224999862,
          "velocity": 0.7559055118110236,
          "duration": 0.10714275000000839
        },
        {
          "name": "C5",
          "midi": 72,
          "time": 164.89269224999862,
          "velocity": 0.7559055118110236,
          "duration": 0.10714275000000839
        },
        {
          "name": "D5",
          "midi": 74,
          "time": 164.89269224999862,
          "velocity": 0.7559055118110236,
          "duration": 0.10714275000000839
        },
        {
          "name": "C6",
          "midi": 84,
          "time": 164.89269224999862,
          "velocity": 0.7559055118110236,
          "duration": 0.10714275000000839
        },
        {
          "name": "D6",
          "midi": 86,
          "time": 164.89269224999862,
          "velocity": 0.7559055118110236,
          "duration": 0.10714275000000839
        },
        {
          "name": "C7",
          "midi": 96,
          "time": 164.89269224999862,
          "velocity": 0.7559055118110236,
          "duration": 0.10714275000000839
        },
        {
          "name": "D7",
          "midi": 98,
          "time": 164.89269224999862,
          "velocity": 0.7559055118110236,
          "duration": 0.10714275000000839
        },
        {
          "name": "C4",
          "midi": 60,
          "time": 165.21412049999861,
          "velocity": 0.7559055118110236,
          "duration": 0.10714275000000839
        },
        {
          "name": "D4",
          "midi": 62,
          "time": 165.21412049999861,
          "velocity": 0.7559055118110236,
          "duration": 0.10714275000000839
        },
        {
          "name": "C5",
          "midi": 72,
          "time": 165.21412049999861,
          "velocity": 0.7559055118110236,
          "duration": 0.10714275000000839
        },
        {
          "name": "D5",
          "midi": 74,
          "time": 165.21412049999861,
          "velocity": 0.7559055118110236,
          "duration": 0.10714275000000839
        },
        {
          "name": "C6",
          "midi": 84,
          "time": 165.21412049999861,
          "velocity": 0.7559055118110236,
          "duration": 0.10714275000000839
        },
        {
          "name": "D6",
          "midi": 86,
          "time": 165.21412049999861,
          "velocity": 0.7559055118110236,
          "duration": 0.10714275000000839
        },
        {
          "name": "C7",
          "midi": 96,
          "time": 165.21412049999861,
          "velocity": 0.7559055118110236,
          "duration": 0.10714275000000839
        },
        {
          "name": "D7",
          "midi": 98,
          "time": 165.21412049999861,
          "velocity": 0.7559055118110236,
          "duration": 0.10714275000000839
        },
        {
          "name": "C#4",
          "midi": 61,
          "time": 165.5355487499986,
          "velocity": 0.7559055118110236,
          "duration": 0.10714275000000839
        },
        {
          "name": "C#5",
          "midi": 73,
          "time": 165.5355487499986,
          "velocity": 0.7559055118110236,
          "duration": 0.10714275000000839
        },
        {
          "name": "C#6",
          "midi": 85,
          "time": 165.5355487499986,
          "velocity": 0.7559055118110236,
          "duration": 0.10714275000000839
        },
        {
          "name": "C#7",
          "midi": 97,
          "time": 165.5355487499986,
          "velocity": 0.7559055118110236,
          "duration": 0.10714275000000839
        },
        {
          "name": "C4",
          "midi": 60,
          "time": 165.64269149999862,
          "velocity": 0.7559055118110236,
          "duration": 0.10714275000000839
        },
        {
          "name": "C5",
          "midi": 72,
          "time": 165.64269149999862,
          "velocity": 0.7559055118110236,
          "duration": 0.10714275000000839
        },
        {
          "name": "C6",
          "midi": 84,
          "time": 165.64269149999862,
          "velocity": 0.7559055118110236,
          "duration": 0.10714275000000839
        },
        {
          "name": "C7",
          "midi": 96,
          "time": 165.64269149999862,
          "velocity": 0.7559055118110236,
          "duration": 0.10714275000000839
        },
        {
          "name": "C#4",
          "midi": 61,
          "time": 165.74983424999863,
          "velocity": 0.7559055118110236,
          "duration": 0.21428549999998836
        },
        {
          "name": "C#5",
          "midi": 73,
          "time": 165.74983424999863,
          "velocity": 0.7559055118110236,
          "duration": 0.21428549999998836
        },
        {
          "name": "C#6",
          "midi": 85,
          "time": 165.74983424999863,
          "velocity": 0.7559055118110236,
          "duration": 0.21428549999998836
        },
        {
          "name": "C#7",
          "midi": 97,
          "time": 165.74983424999863,
          "velocity": 0.7559055118110236,
          "duration": 0.21428549999998836
        },
        {
          "name": "D4",
          "midi": 62,
          "time": 165.96411974999862,
          "velocity": 0.7559055118110236,
          "duration": 0.21428549999998836
        },
        {
          "name": "D5",
          "midi": 74,
          "time": 165.96411974999862,
          "velocity": 0.7559055118110236,
          "duration": 0.21428549999998836
        },
        {
          "name": "D6",
          "midi": 86,
          "time": 165.96411974999862,
          "velocity": 0.7559055118110236,
          "duration": 0.21428549999998836
        },
        {
          "name": "D7",
          "midi": 98,
          "time": 165.96411974999862,
          "velocity": 0.7559055118110236,
          "duration": 0.21428549999998836
        },
        {
          "name": "C4",
          "midi": 60,
          "time": 166.2855479999986,
          "velocity": 0.7559055118110236,
          "duration": 0.10714275000000839
        },
        {
          "name": "D4",
          "midi": 62,
          "time": 166.2855479999986,
          "velocity": 0.7559055118110236,
          "duration": 0.10714275000000839
        },
        {
          "name": "C5",
          "midi": 72,
          "time": 166.2855479999986,
          "velocity": 0.7559055118110236,
          "duration": 0.10714275000000839
        },
        {
          "name": "D5",
          "midi": 74,
          "time": 166.2855479999986,
          "velocity": 0.7559055118110236,
          "duration": 0.10714275000000839
        },
        {
          "name": "C6",
          "midi": 84,
          "time": 166.2855479999986,
          "velocity": 0.7559055118110236,
          "duration": 0.10714275000000839
        },
        {
          "name": "D6",
          "midi": 86,
          "time": 166.2855479999986,
          "velocity": 0.7559055118110236,
          "duration": 0.10714275000000839
        },
        {
          "name": "C7",
          "midi": 96,
          "time": 166.2855479999986,
          "velocity": 0.7559055118110236,
          "duration": 0.10714275000000839
        },
        {
          "name": "D7",
          "midi": 98,
          "time": 166.2855479999986,
          "velocity": 0.7559055118110236,
          "duration": 0.10714275000000839
        },
        {
          "name": "C4",
          "midi": 60,
          "time": 166.6069762499986,
          "velocity": 0.7559055118110236,
          "duration": 0.10714275000000839
        },
        {
          "name": "D4",
          "midi": 62,
          "time": 166.6069762499986,
          "velocity": 0.7559055118110236,
          "duration": 0.10714275000000839
        },
        {
          "name": "C5",
          "midi": 72,
          "time": 166.6069762499986,
          "velocity": 0.7559055118110236,
          "duration": 0.10714275000000839
        },
        {
          "name": "D5",
          "midi": 74,
          "time": 166.6069762499986,
          "velocity": 0.7559055118110236,
          "duration": 0.10714275000000839
        },
        {
          "name": "C6",
          "midi": 84,
          "time": 166.6069762499986,
          "velocity": 0.7559055118110236,
          "duration": 0.10714275000000839
        },
        {
          "name": "D6",
          "midi": 86,
          "time": 166.6069762499986,
          "velocity": 0.7559055118110236,
          "duration": 0.10714275000000839
        },
        {
          "name": "C7",
          "midi": 96,
          "time": 166.6069762499986,
          "velocity": 0.7559055118110236,
          "duration": 0.10714275000000839
        },
        {
          "name": "D7",
          "midi": 98,
          "time": 166.6069762499986,
          "velocity": 0.7559055118110236,
          "duration": 0.10714275000000839
        },
        {
          "name": "C4",
          "midi": 60,
          "time": 166.9284044999986,
          "velocity": 0.7559055118110236,
          "duration": 0.10714275000000839
        },
        {
          "name": "D4",
          "midi": 62,
          "time": 166.9284044999986,
          "velocity": 0.7559055118110236,
          "duration": 0.10714275000000839
        },
        {
          "name": "C5",
          "midi": 72,
          "time": 166.9284044999986,
          "velocity": 0.7559055118110236,
          "duration": 0.10714275000000839
        },
        {
          "name": "D5",
          "midi": 74,
          "time": 166.9284044999986,
          "velocity": 0.7559055118110236,
          "duration": 0.10714275000000839
        },
        {
          "name": "C6",
          "midi": 84,
          "time": 166.9284044999986,
          "velocity": 0.7559055118110236,
          "duration": 0.10714275000000839
        },
        {
          "name": "D6",
          "midi": 86,
          "time": 166.9284044999986,
          "velocity": 0.7559055118110236,
          "duration": 0.10714275000000839
        },
        {
          "name": "C7",
          "midi": 96,
          "time": 166.9284044999986,
          "velocity": 0.7559055118110236,
          "duration": 0.10714275000000839
        },
        {
          "name": "D7",
          "midi": 98,
          "time": 166.9284044999986,
          "velocity": 0.7559055118110236,
          "duration": 0.10714275000000839
        },
        {
          "name": "C#4",
          "midi": 61,
          "time": 167.2498327499986,
          "velocity": 0.7559055118110236,
          "duration": 0.10714275000000839
        },
        {
          "name": "C#5",
          "midi": 73,
          "time": 167.2498327499986,
          "velocity": 0.7559055118110236,
          "duration": 0.10714275000000839
        },
        {
          "name": "C#6",
          "midi": 85,
          "time": 167.2498327499986,
          "velocity": 0.7559055118110236,
          "duration": 0.10714275000000839
        },
        {
          "name": "C#7",
          "midi": 97,
          "time": 167.2498327499986,
          "velocity": 0.7559055118110236,
          "duration": 0.10714275000000839
        },
        {
          "name": "C4",
          "midi": 60,
          "time": 167.3569754999986,
          "velocity": 0.7559055118110236,
          "duration": 0.10714275000000839
        },
        {
          "name": "C5",
          "midi": 72,
          "time": 167.3569754999986,
          "velocity": 0.7559055118110236,
          "duration": 0.10714275000000839
        },
        {
          "name": "C6",
          "midi": 84,
          "time": 167.3569754999986,
          "velocity": 0.7559055118110236,
          "duration": 0.10714275000000839
        },
        {
          "name": "C7",
          "midi": 96,
          "time": 167.3569754999986,
          "velocity": 0.7559055118110236,
          "duration": 0.10714275000000839
        },
        {
          "name": "C#4",
          "midi": 61,
          "time": 167.46411824999862,
          "velocity": 0.7559055118110236,
          "duration": 0.21428549999998836
        },
        {
          "name": "C#5",
          "midi": 73,
          "time": 167.46411824999862,
          "velocity": 0.7559055118110236,
          "duration": 0.21428549999998836
        },
        {
          "name": "C#6",
          "midi": 85,
          "time": 167.46411824999862,
          "velocity": 0.7559055118110236,
          "duration": 0.21428549999998836
        },
        {
          "name": "C#7",
          "midi": 97,
          "time": 167.46411824999862,
          "velocity": 0.7559055118110236,
          "duration": 0.21428549999998836
        },
        {
          "name": "D4",
          "midi": 62,
          "time": 167.6784037499986,
          "velocity": 0.7559055118110236,
          "duration": 0.21428549999998836
        },
        {
          "name": "D5",
          "midi": 74,
          "time": 167.6784037499986,
          "velocity": 0.7559055118110236,
          "duration": 0.21428549999998836
        },
        {
          "name": "D6",
          "midi": 86,
          "time": 167.6784037499986,
          "velocity": 0.7559055118110236,
          "duration": 0.21428549999998836
        },
        {
          "name": "D7",
          "midi": 98,
          "time": 167.6784037499986,
          "velocity": 0.7559055118110236,
          "duration": 0.21428549999998836
        },
        {
          "name": "C#4",
          "midi": 61,
          "time": 167.9998319999986,
          "velocity": 0.7559055118110236,
          "duration": 0.10714275000000839
        },
        {
          "name": "D#4",
          "midi": 63,
          "time": 167.9998319999986,
          "velocity": 0.7559055118110236,
          "duration": 0.10714275000000839
        },
        {
          "name": "C#5",
          "midi": 73,
          "time": 167.9998319999986,
          "velocity": 0.7559055118110236,
          "duration": 0.10714275000000839
        },
        {
          "name": "D#5",
          "midi": 75,
          "time": 167.9998319999986,
          "velocity": 0.7559055118110236,
          "duration": 0.10714275000000839
        },
        {
          "name": "C#6",
          "midi": 85,
          "time": 167.9998319999986,
          "velocity": 0.7559055118110236,
          "duration": 0.10714275000000839
        },
        {
          "name": "D#6",
          "midi": 87,
          "time": 167.9998319999986,
          "velocity": 0.7559055118110236,
          "duration": 0.10714275000000839
        },
        {
          "name": "C#7",
          "midi": 97,
          "time": 167.9998319999986,
          "velocity": 0.7559055118110236,
          "duration": 0.10714275000000839
        },
        {
          "name": "D#7",
          "midi": 99,
          "time": 167.9998319999986,
          "velocity": 0.7559055118110236,
          "duration": 0.10714275000000839
        },
        {
          "name": "C#4",
          "midi": 61,
          "time": 168.3212602499986,
          "velocity": 0.7559055118110236,
          "duration": 0.10714275000000839
        },
        {
          "name": "D#4",
          "midi": 63,
          "time": 168.3212602499986,
          "velocity": 0.7559055118110236,
          "duration": 0.10714275000000839
        },
        {
          "name": "C#5",
          "midi": 73,
          "time": 168.3212602499986,
          "velocity": 0.7559055118110236,
          "duration": 0.10714275000000839
        },
        {
          "name": "D#5",
          "midi": 75,
          "time": 168.3212602499986,
          "velocity": 0.7559055118110236,
          "duration": 0.10714275000000839
        },
        {
          "name": "C#6",
          "midi": 85,
          "time": 168.3212602499986,
          "velocity": 0.7559055118110236,
          "duration": 0.10714275000000839
        },
        {
          "name": "D#6",
          "midi": 87,
          "time": 168.3212602499986,
          "velocity": 0.7559055118110236,
          "duration": 0.10714275000000839
        },
        {
          "name": "C#7",
          "midi": 97,
          "time": 168.3212602499986,
          "velocity": 0.7559055118110236,
          "duration": 0.10714275000000839
        },
        {
          "name": "D#7",
          "midi": 99,
          "time": 168.3212602499986,
          "velocity": 0.7559055118110236,
          "duration": 0.10714275000000839
        },
        {
          "name": "C#4",
          "midi": 61,
          "time": 168.6426884999986,
          "velocity": 0.7559055118110236,
          "duration": 0.10714275000000839
        },
        {
          "name": "D#4",
          "midi": 63,
          "time": 168.6426884999986,
          "velocity": 0.7559055118110236,
          "duration": 0.10714275000000839
        },
        {
          "name": "C#5",
          "midi": 73,
          "time": 168.6426884999986,
          "velocity": 0.7559055118110236,
          "duration": 0.10714275000000839
        },
        {
          "name": "D#5",
          "midi": 75,
          "time": 168.6426884999986,
          "velocity": 0.7559055118110236,
          "duration": 0.10714275000000839
        },
        {
          "name": "C#6",
          "midi": 85,
          "time": 168.6426884999986,
          "velocity": 0.7559055118110236,
          "duration": 0.10714275000000839
        },
        {
          "name": "D#6",
          "midi": 87,
          "time": 168.6426884999986,
          "velocity": 0.7559055118110236,
          "duration": 0.10714275000000839
        },
        {
          "name": "C#7",
          "midi": 97,
          "time": 168.6426884999986,
          "velocity": 0.7559055118110236,
          "duration": 0.10714275000000839
        },
        {
          "name": "D#7",
          "midi": 99,
          "time": 168.6426884999986,
          "velocity": 0.7559055118110236,
          "duration": 0.10714275000000839
        },
        {
          "name": "C#4",
          "midi": 61,
          "time": 168.9641167499986,
          "velocity": 0.7559055118110236,
          "duration": 0.10714275000000839
        },
        {
          "name": "C#5",
          "midi": 73,
          "time": 168.9641167499986,
          "velocity": 0.7559055118110236,
          "duration": 0.10714275000000839
        },
        {
          "name": "C#6",
          "midi": 85,
          "time": 168.9641167499986,
          "velocity": 0.7559055118110236,
          "duration": 0.10714275000000839
        },
        {
          "name": "C#7",
          "midi": 97,
          "time": 168.9641167499986,
          "velocity": 0.7559055118110236,
          "duration": 0.10714275000000839
        },
        {
          "name": "C4",
          "midi": 60,
          "time": 169.0712594999986,
          "velocity": 0.7559055118110236,
          "duration": 0.10714275000000839
        },
        {
          "name": "C5",
          "midi": 72,
          "time": 169.0712594999986,
          "velocity": 0.7559055118110236,
          "duration": 0.10714275000000839
        },
        {
          "name": "C6",
          "midi": 84,
          "time": 169.0712594999986,
          "velocity": 0.7559055118110236,
          "duration": 0.10714275000000839
        },
        {
          "name": "C7",
          "midi": 96,
          "time": 169.0712594999986,
          "velocity": 0.7559055118110236,
          "duration": 0.10714275000000839
        },
        {
          "name": "C#4",
          "midi": 61,
          "time": 169.1784022499986,
          "velocity": 0.7559055118110236,
          "duration": 0.21428549999998836
        },
        {
          "name": "C#5",
          "midi": 73,
          "time": 169.1784022499986,
          "velocity": 0.7559055118110236,
          "duration": 0.21428549999998836
        },
        {
          "name": "C#6",
          "midi": 85,
          "time": 169.1784022499986,
          "velocity": 0.7559055118110236,
          "duration": 0.21428549999998836
        },
        {
          "name": "C#7",
          "midi": 97,
          "time": 169.1784022499986,
          "velocity": 0.7559055118110236,
          "duration": 0.21428549999998836
        },
        {
          "name": "D#4",
          "midi": 63,
          "time": 169.3926877499986,
          "velocity": 0.7559055118110236,
          "duration": 0.21428549999998836
        },
        {
          "name": "D#5",
          "midi": 75,
          "time": 169.3926877499986,
          "velocity": 0.7559055118110236,
          "duration": 0.21428549999998836
        },
        {
          "name": "D#6",
          "midi": 87,
          "time": 169.3926877499986,
          "velocity": 0.7559055118110236,
          "duration": 0.21428549999998836
        },
        {
          "name": "D#7",
          "midi": 99,
          "time": 169.3926877499986,
          "velocity": 0.7559055118110236,
          "duration": 0.21428549999998836
        },
        {
          "name": "C#4",
          "midi": 61,
          "time": 169.7141159999986,
          "velocity": 0.7559055118110236,
          "duration": 0.10714275000000839
        },
        {
          "name": "D#4",
          "midi": 63,
          "time": 169.7141159999986,
          "velocity": 0.7559055118110236,
          "duration": 0.10714275000000839
        },
        {
          "name": "C#5",
          "midi": 73,
          "time": 169.7141159999986,
          "velocity": 0.7559055118110236,
          "duration": 0.10714275000000839
        },
        {
          "name": "D#5",
          "midi": 75,
          "time": 169.7141159999986,
          "velocity": 0.7559055118110236,
          "duration": 0.10714275000000839
        },
        {
          "name": "C#6",
          "midi": 85,
          "time": 169.7141159999986,
          "velocity": 0.7559055118110236,
          "duration": 0.10714275000000839
        },
        {
          "name": "D#6",
          "midi": 87,
          "time": 169.7141159999986,
          "velocity": 0.7559055118110236,
          "duration": 0.10714275000000839
        },
        {
          "name": "C#7",
          "midi": 97,
          "time": 169.7141159999986,
          "velocity": 0.7559055118110236,
          "duration": 0.10714275000000839
        },
        {
          "name": "D#7",
          "midi": 99,
          "time": 169.7141159999986,
          "velocity": 0.7559055118110236,
          "duration": 0.10714275000000839
        },
        {
          "name": "C#4",
          "midi": 61,
          "time": 170.0355442499986,
          "velocity": 0.7559055118110236,
          "duration": 0.10714275000000839
        },
        {
          "name": "D#4",
          "midi": 63,
          "time": 170.0355442499986,
          "velocity": 0.7559055118110236,
          "duration": 0.10714275000000839
        },
        {
          "name": "C#5",
          "midi": 73,
          "time": 170.0355442499986,
          "velocity": 0.7559055118110236,
          "duration": 0.10714275000000839
        },
        {
          "name": "D#5",
          "midi": 75,
          "time": 170.0355442499986,
          "velocity": 0.7559055118110236,
          "duration": 0.10714275000000839
        },
        {
          "name": "C#6",
          "midi": 85,
          "time": 170.0355442499986,
          "velocity": 0.7559055118110236,
          "duration": 0.10714275000000839
        },
        {
          "name": "D#6",
          "midi": 87,
          "time": 170.0355442499986,
          "velocity": 0.7559055118110236,
          "duration": 0.10714275000000839
        },
        {
          "name": "C#7",
          "midi": 97,
          "time": 170.0355442499986,
          "velocity": 0.7559055118110236,
          "duration": 0.10714275000000839
        },
        {
          "name": "D#7",
          "midi": 99,
          "time": 170.0355442499986,
          "velocity": 0.7559055118110236,
          "duration": 0.10714275000000839
        },
        {
          "name": "C#4",
          "midi": 61,
          "time": 170.3569724999986,
          "velocity": 0.7559055118110236,
          "duration": 0.10714275000000839
        },
        {
          "name": "D#4",
          "midi": 63,
          "time": 170.3569724999986,
          "velocity": 0.7559055118110236,
          "duration": 0.10714275000000839
        },
        {
          "name": "C#5",
          "midi": 73,
          "time": 170.3569724999986,
          "velocity": 0.7559055118110236,
          "duration": 0.10714275000000839
        },
        {
          "name": "D#5",
          "midi": 75,
          "time": 170.3569724999986,
          "velocity": 0.7559055118110236,
          "duration": 0.10714275000000839
        },
        {
          "name": "C#6",
          "midi": 85,
          "time": 170.3569724999986,
          "velocity": 0.7559055118110236,
          "duration": 0.10714275000000839
        },
        {
          "name": "D#6",
          "midi": 87,
          "time": 170.3569724999986,
          "velocity": 0.7559055118110236,
          "duration": 0.10714275000000839
        },
        {
          "name": "C#7",
          "midi": 97,
          "time": 170.3569724999986,
          "velocity": 0.7559055118110236,
          "duration": 0.10714275000000839
        },
        {
          "name": "D#7",
          "midi": 99,
          "time": 170.3569724999986,
          "velocity": 0.7559055118110236,
          "duration": 0.10714275000000839
        },
        {
          "name": "C#4",
          "midi": 61,
          "time": 170.6784007499986,
          "velocity": 0.7559055118110236,
          "duration": 0.10714275000000839
        },
        {
          "name": "C#5",
          "midi": 73,
          "time": 170.6784007499986,
          "velocity": 0.7559055118110236,
          "duration": 0.10714275000000839
        },
        {
          "name": "C#6",
          "midi": 85,
          "time": 170.6784007499986,
          "velocity": 0.7559055118110236,
          "duration": 0.10714275000000839
        },
        {
          "name": "C#7",
          "midi": 97,
          "time": 170.6784007499986,
          "velocity": 0.7559055118110236,
          "duration": 0.10714275000000839
        },
        {
          "name": "C4",
          "midi": 60,
          "time": 170.7855434999986,
          "velocity": 0.7559055118110236,
          "duration": 0.10714275000000839
        },
        {
          "name": "C5",
          "midi": 72,
          "time": 170.7855434999986,
          "velocity": 0.7559055118110236,
          "duration": 0.10714275000000839
        },
        {
          "name": "C6",
          "midi": 84,
          "time": 170.7855434999986,
          "velocity": 0.7559055118110236,
          "duration": 0.10714275000000839
        },
        {
          "name": "C7",
          "midi": 96,
          "time": 170.7855434999986,
          "velocity": 0.7559055118110236,
          "duration": 0.10714275000000839
        },
        {
          "name": "C#4",
          "midi": 61,
          "time": 170.8926862499986,
          "velocity": 0.7559055118110236,
          "duration": 0.21428549999998836
        },
        {
          "name": "C#5",
          "midi": 73,
          "time": 170.8926862499986,
          "velocity": 0.7559055118110236,
          "duration": 0.21428549999998836
        },
        {
          "name": "C#6",
          "midi": 85,
          "time": 170.8926862499986,
          "velocity": 0.7559055118110236,
          "duration": 0.21428549999998836
        },
        {
          "name": "C#7",
          "midi": 97,
          "time": 170.8926862499986,
          "velocity": 0.7559055118110236,
          "duration": 0.21428549999998836
        },
        {
          "name": "D#4",
          "midi": 63,
          "time": 171.1069717499986,
          "velocity": 0.7559055118110236,
          "duration": 0.21428549999998836
        },
        {
          "name": "D#5",
          "midi": 75,
          "time": 171.1069717499986,
          "velocity": 0.7559055118110236,
          "duration": 0.21428549999998836
        },
        {
          "name": "D#6",
          "midi": 87,
          "time": 171.1069717499986,
          "velocity": 0.7559055118110236,
          "duration": 0.21428549999998836
        },
        {
          "name": "D#7",
          "midi": 99,
          "time": 171.1069717499986,
          "velocity": 0.7559055118110236,
          "duration": 0.21428549999998836
        },
        {
          "name": "D4",
          "midi": 62,
          "time": 171.4283999999986,
          "velocity": 0.7559055118110236,
          "duration": 0.10714275000000839
        },
        {
          "name": "E4",
          "midi": 64,
          "time": 171.4283999999986,
          "velocity": 0.7559055118110236,
          "duration": 0.10714275000000839
        },
        {
          "name": "D5",
          "midi": 74,
          "time": 171.4283999999986,
          "velocity": 0.7559055118110236,
          "duration": 0.10714275000000839
        },
        {
          "name": "E5",
          "midi": 76,
          "time": 171.4283999999986,
          "velocity": 0.7559055118110236,
          "duration": 0.10714275000000839
        },
        {
          "name": "D6",
          "midi": 86,
          "time": 171.4283999999986,
          "velocity": 0.7559055118110236,
          "duration": 0.10714275000000839
        },
        {
          "name": "E6",
          "midi": 88,
          "time": 171.4283999999986,
          "velocity": 0.7559055118110236,
          "duration": 0.10714275000000839
        },
        {
          "name": "D7",
          "midi": 98,
          "time": 171.4283999999986,
          "velocity": 0.7559055118110236,
          "duration": 0.10714275000000839
        },
        {
          "name": "E7",
          "midi": 100,
          "time": 171.4283999999986,
          "velocity": 0.7559055118110236,
          "duration": 0.10714275000000839
        },
        {
          "name": "D4",
          "midi": 62,
          "time": 171.7498282499986,
          "velocity": 0.7559055118110236,
          "duration": 0.10714275000000839
        },
        {
          "name": "E4",
          "midi": 64,
          "time": 171.7498282499986,
          "velocity": 0.7559055118110236,
          "duration": 0.10714275000000839
        },
        {
          "name": "D5",
          "midi": 74,
          "time": 171.7498282499986,
          "velocity": 0.7559055118110236,
          "duration": 0.10714275000000839
        },
        {
          "name": "E5",
          "midi": 76,
          "time": 171.7498282499986,
          "velocity": 0.7559055118110236,
          "duration": 0.10714275000000839
        },
        {
          "name": "D6",
          "midi": 86,
          "time": 171.7498282499986,
          "velocity": 0.7559055118110236,
          "duration": 0.10714275000000839
        },
        {
          "name": "E6",
          "midi": 88,
          "time": 171.7498282499986,
          "velocity": 0.7559055118110236,
          "duration": 0.10714275000000839
        },
        {
          "name": "D7",
          "midi": 98,
          "time": 171.7498282499986,
          "velocity": 0.7559055118110236,
          "duration": 0.10714275000000839
        },
        {
          "name": "E7",
          "midi": 100,
          "time": 171.7498282499986,
          "velocity": 0.7559055118110236,
          "duration": 0.10714275000000839
        },
        {
          "name": "D4",
          "midi": 62,
          "time": 172.07125649999858,
          "velocity": 0.7559055118110236,
          "duration": 0.10714275000000839
        },
        {
          "name": "E4",
          "midi": 64,
          "time": 172.07125649999858,
          "velocity": 0.7559055118110236,
          "duration": 0.10714275000000839
        },
        {
          "name": "D5",
          "midi": 74,
          "time": 172.07125649999858,
          "velocity": 0.7559055118110236,
          "duration": 0.10714275000000839
        },
        {
          "name": "E5",
          "midi": 76,
          "time": 172.07125649999858,
          "velocity": 0.7559055118110236,
          "duration": 0.10714275000000839
        },
        {
          "name": "D6",
          "midi": 86,
          "time": 172.07125649999858,
          "velocity": 0.7559055118110236,
          "duration": 0.10714275000000839
        },
        {
          "name": "E6",
          "midi": 88,
          "time": 172.07125649999858,
          "velocity": 0.7559055118110236,
          "duration": 0.10714275000000839
        },
        {
          "name": "D7",
          "midi": 98,
          "time": 172.07125649999858,
          "velocity": 0.7559055118110236,
          "duration": 0.10714275000000839
        },
        {
          "name": "E7",
          "midi": 100,
          "time": 172.07125649999858,
          "velocity": 0.7559055118110236,
          "duration": 0.10714275000000839
        },
        {
          "name": "D4",
          "midi": 62,
          "time": 172.39268474999858,
          "velocity": 0.7559055118110236,
          "duration": 0.10714275000000839
        },
        {
          "name": "D5",
          "midi": 74,
          "time": 172.39268474999858,
          "velocity": 0.7559055118110236,
          "duration": 0.10714275000000839
        },
        {
          "name": "D6",
          "midi": 86,
          "time": 172.39268474999858,
          "velocity": 0.7559055118110236,
          "duration": 0.10714275000000839
        },
        {
          "name": "D7",
          "midi": 98,
          "time": 172.39268474999858,
          "velocity": 0.7559055118110236,
          "duration": 0.10714275000000839
        },
        {
          "name": "C#4",
          "midi": 61,
          "time": 172.4998274999986,
          "velocity": 0.7559055118110236,
          "duration": 0.10714275000000839
        },
        {
          "name": "C#5",
          "midi": 73,
          "time": 172.4998274999986,
          "velocity": 0.7559055118110236,
          "duration": 0.10714275000000839
        },
        {
          "name": "C#6",
          "midi": 85,
          "time": 172.4998274999986,
          "velocity": 0.7559055118110236,
          "duration": 0.10714275000000839
        },
        {
          "name": "C#7",
          "midi": 97,
          "time": 172.4998274999986,
          "velocity": 0.7559055118110236,
          "duration": 0.10714275000000839
        },
        {
          "name": "D4",
          "midi": 62,
          "time": 172.6069702499986,
          "velocity": 0.7559055118110236,
          "duration": 0.21428549999998836
        },
        {
          "name": "D5",
          "midi": 74,
          "time": 172.6069702499986,
          "velocity": 0.7559055118110236,
          "duration": 0.21428549999998836
        },
        {
          "name": "D6",
          "midi": 86,
          "time": 172.6069702499986,
          "velocity": 0.7559055118110236,
          "duration": 0.21428549999998836
        },
        {
          "name": "D7",
          "midi": 98,
          "time": 172.6069702499986,
          "velocity": 0.7559055118110236,
          "duration": 0.21428549999998836
        },
        {
          "name": "D#4",
          "midi": 63,
          "time": 172.82125574999858,
          "velocity": 0.7559055118110236,
          "duration": 0.21428549999998836
        },
        {
          "name": "D#5",
          "midi": 75,
          "time": 172.82125574999858,
          "velocity": 0.7559055118110236,
          "duration": 0.21428549999998836
        },
        {
          "name": "D#6",
          "midi": 87,
          "time": 172.82125574999858,
          "velocity": 0.7559055118110236,
          "duration": 0.21428549999998836
        },
        {
          "name": "D#7",
          "midi": 99,
          "time": 172.82125574999858,
          "velocity": 0.7559055118110236,
          "duration": 0.21428549999998836
        },
        {
          "name": "D4",
          "midi": 62,
          "time": 173.14268399999858,
          "velocity": 0.7559055118110236,
          "duration": 0.10714275000000839
        },
        {
          "name": "E4",
          "midi": 64,
          "time": 173.14268399999858,
          "velocity": 0.7559055118110236,
          "duration": 0.10714275000000839
        },
        {
          "name": "D5",
          "midi": 74,
          "time": 173.14268399999858,
          "velocity": 0.7559055118110236,
          "duration": 0.10714275000000839
        },
        {
          "name": "E5",
          "midi": 76,
          "time": 173.14268399999858,
          "velocity": 0.7559055118110236,
          "duration": 0.10714275000000839
        },
        {
          "name": "D6",
          "midi": 86,
          "time": 173.14268399999858,
          "velocity": 0.7559055118110236,
          "duration": 0.10714275000000839
        },
        {
          "name": "E6",
          "midi": 88,
          "time": 173.14268399999858,
          "velocity": 0.7559055118110236,
          "duration": 0.10714275000000839
        },
        {
          "name": "D7",
          "midi": 98,
          "time": 173.14268399999858,
          "velocity": 0.7559055118110236,
          "duration": 0.10714275000000839
        },
        {
          "name": "E7",
          "midi": 100,
          "time": 173.14268399999858,
          "velocity": 0.7559055118110236,
          "duration": 0.10714275000000839
        },
        {
          "name": "D4",
          "midi": 62,
          "time": 173.46411224999858,
          "velocity": 0.7559055118110236,
          "duration": 0.10714275000000839
        },
        {
          "name": "E4",
          "midi": 64,
          "time": 173.46411224999858,
          "velocity": 0.7559055118110236,
          "duration": 0.10714275000000839
        },
        {
          "name": "D5",
          "midi": 74,
          "time": 173.46411224999858,
          "velocity": 0.7559055118110236,
          "duration": 0.10714275000000839
        },
        {
          "name": "E5",
          "midi": 76,
          "time": 173.46411224999858,
          "velocity": 0.7559055118110236,
          "duration": 0.10714275000000839
        },
        {
          "name": "D6",
          "midi": 86,
          "time": 173.46411224999858,
          "velocity": 0.7559055118110236,
          "duration": 0.10714275000000839
        },
        {
          "name": "E6",
          "midi": 88,
          "time": 173.46411224999858,
          "velocity": 0.7559055118110236,
          "duration": 0.10714275000000839
        },
        {
          "name": "D7",
          "midi": 98,
          "time": 173.46411224999858,
          "velocity": 0.7559055118110236,
          "duration": 0.10714275000000839
        },
        {
          "name": "E7",
          "midi": 100,
          "time": 173.46411224999858,
          "velocity": 0.7559055118110236,
          "duration": 0.10714275000000839
        },
        {
          "name": "D4",
          "midi": 62,
          "time": 173.78554049999858,
          "velocity": 0.7559055118110236,
          "duration": 0.10714275000000839
        },
        {
          "name": "E4",
          "midi": 64,
          "time": 173.78554049999858,
          "velocity": 0.7559055118110236,
          "duration": 0.10714275000000839
        },
        {
          "name": "D5",
          "midi": 74,
          "time": 173.78554049999858,
          "velocity": 0.7559055118110236,
          "duration": 0.10714275000000839
        },
        {
          "name": "E5",
          "midi": 76,
          "time": 173.78554049999858,
          "velocity": 0.7559055118110236,
          "duration": 0.10714275000000839
        },
        {
          "name": "D6",
          "midi": 86,
          "time": 173.78554049999858,
          "velocity": 0.7559055118110236,
          "duration": 0.10714275000000839
        },
        {
          "name": "E6",
          "midi": 88,
          "time": 173.78554049999858,
          "velocity": 0.7559055118110236,
          "duration": 0.10714275000000839
        },
        {
          "name": "D7",
          "midi": 98,
          "time": 173.78554049999858,
          "velocity": 0.7559055118110236,
          "duration": 0.10714275000000839
        },
        {
          "name": "E7",
          "midi": 100,
          "time": 173.78554049999858,
          "velocity": 0.7559055118110236,
          "duration": 0.10714275000000839
        },
        {
          "name": "D4",
          "midi": 62,
          "time": 174.10696874999857,
          "velocity": 0.7559055118110236,
          "duration": 0.10714275000000839
        },
        {
          "name": "D5",
          "midi": 74,
          "time": 174.10696874999857,
          "velocity": 0.7559055118110236,
          "duration": 0.10714275000000839
        },
        {
          "name": "D6",
          "midi": 86,
          "time": 174.10696874999857,
          "velocity": 0.7559055118110236,
          "duration": 0.10714275000000839
        },
        {
          "name": "D7",
          "midi": 98,
          "time": 174.10696874999857,
          "velocity": 0.7559055118110236,
          "duration": 0.10714275000000839
        },
        {
          "name": "C#4",
          "midi": 61,
          "time": 174.21411149999858,
          "velocity": 0.7559055118110236,
          "duration": 0.10714275000000839
        },
        {
          "name": "C#5",
          "midi": 73,
          "time": 174.21411149999858,
          "velocity": 0.7559055118110236,
          "duration": 0.10714275000000839
        },
        {
          "name": "C#6",
          "midi": 85,
          "time": 174.21411149999858,
          "velocity": 0.7559055118110236,
          "duration": 0.10714275000000839
        },
        {
          "name": "C#7",
          "midi": 97,
          "time": 174.21411149999858,
          "velocity": 0.7559055118110236,
          "duration": 0.10714275000000839
        },
        {
          "name": "D4",
          "midi": 62,
          "time": 174.3212542499986,
          "velocity": 0.7559055118110236,
          "duration": 0.21428549999998836
        },
        {
          "name": "D5",
          "midi": 74,
          "time": 174.3212542499986,
          "velocity": 0.7559055118110236,
          "duration": 0.21428549999998836
        },
        {
          "name": "D6",
          "midi": 86,
          "time": 174.3212542499986,
          "velocity": 0.7559055118110236,
          "duration": 0.21428549999998836
        },
        {
          "name": "D7",
          "midi": 98,
          "time": 174.3212542499986,
          "velocity": 0.7559055118110236,
          "duration": 0.21428549999998836
        },
        {
          "name": "D#4",
          "midi": 63,
          "time": 174.53553974999858,
          "velocity": 0.7559055118110236,
          "duration": 0.21428549999998836
        },
        {
          "name": "D#5",
          "midi": 75,
          "time": 174.53553974999858,
          "velocity": 0.7559055118110236,
          "duration": 0.21428549999998836
        },
        {
          "name": "D#6",
          "midi": 87,
          "time": 174.53553974999858,
          "velocity": 0.7559055118110236,
          "duration": 0.21428549999998836
        },
        {
          "name": "D#7",
          "midi": 99,
          "time": 174.53553974999858,
          "velocity": 0.7559055118110236,
          "duration": 0.21428549999998836
        },
        {
          "name": "D#4",
          "midi": 63,
          "time": 174.85696799999857,
          "velocity": 0.7559055118110236,
          "duration": 0.10714275000000839
        },
        {
          "name": "E4",
          "midi": 64,
          "time": 174.85696799999857,
          "velocity": 0.7559055118110236,
          "duration": 0.10714275000000839
        },
        {
          "name": "D#5",
          "midi": 75,
          "time": 174.85696799999857,
          "velocity": 0.7559055118110236,
          "duration": 0.10714275000000839
        },
        {
          "name": "E5",
          "midi": 76,
          "time": 174.85696799999857,
          "velocity": 0.7559055118110236,
          "duration": 0.10714275000000839
        },
        {
          "name": "D#6",
          "midi": 87,
          "time": 174.85696799999857,
          "velocity": 0.7559055118110236,
          "duration": 0.10714275000000839
        },
        {
          "name": "E6",
          "midi": 88,
          "time": 174.85696799999857,
          "velocity": 0.7559055118110236,
          "duration": 0.10714275000000839
        },
        {
          "name": "D#7",
          "midi": 99,
          "time": 174.85696799999857,
          "velocity": 0.7559055118110236,
          "duration": 0.10714275000000839
        },
        {
          "name": "E7",
          "midi": 100,
          "time": 174.85696799999857,
          "velocity": 0.7559055118110236,
          "duration": 0.10714275000000839
        },
        {
          "name": "D#4",
          "midi": 63,
          "time": 175.17839624999857,
          "velocity": 0.7559055118110236,
          "duration": 0.10714275000000839
        },
        {
          "name": "E4",
          "midi": 64,
          "time": 175.17839624999857,
          "velocity": 0.7559055118110236,
          "duration": 0.10714275000000839
        },
        {
          "name": "D#5",
          "midi": 75,
          "time": 175.17839624999857,
          "velocity": 0.7559055118110236,
          "duration": 0.10714275000000839
        },
        {
          "name": "E5",
          "midi": 76,
          "time": 175.17839624999857,
          "velocity": 0.7559055118110236,
          "duration": 0.10714275000000839
        },
        {
          "name": "D#6",
          "midi": 87,
          "time": 175.17839624999857,
          "velocity": 0.7559055118110236,
          "duration": 0.10714275000000839
        },
        {
          "name": "E6",
          "midi": 88,
          "time": 175.17839624999857,
          "velocity": 0.7559055118110236,
          "duration": 0.10714275000000839
        },
        {
          "name": "D#7",
          "midi": 99,
          "time": 175.17839624999857,
          "velocity": 0.7559055118110236,
          "duration": 0.10714275000000839
        },
        {
          "name": "E7",
          "midi": 100,
          "time": 175.17839624999857,
          "velocity": 0.7559055118110236,
          "duration": 0.10714275000000839
        },
        {
          "name": "D#4",
          "midi": 63,
          "time": 175.49982449999857,
          "velocity": 0.7559055118110236,
          "duration": 0.10714275000000839
        },
        {
          "name": "E4",
          "midi": 64,
          "time": 175.49982449999857,
          "velocity": 0.7559055118110236,
          "duration": 0.10714275000000839
        },
        {
          "name": "D#5",
          "midi": 75,
          "time": 175.49982449999857,
          "velocity": 0.7559055118110236,
          "duration": 0.10714275000000839
        },
        {
          "name": "E5",
          "midi": 76,
          "time": 175.49982449999857,
          "velocity": 0.7559055118110236,
          "duration": 0.10714275000000839
        },
        {
          "name": "D#6",
          "midi": 87,
          "time": 175.49982449999857,
          "velocity": 0.7559055118110236,
          "duration": 0.10714275000000839
        },
        {
          "name": "E6",
          "midi": 88,
          "time": 175.49982449999857,
          "velocity": 0.7559055118110236,
          "duration": 0.10714275000000839
        },
        {
          "name": "D#7",
          "midi": 99,
          "time": 175.49982449999857,
          "velocity": 0.7559055118110236,
          "duration": 0.10714275000000839
        },
        {
          "name": "E7",
          "midi": 100,
          "time": 175.49982449999857,
          "velocity": 0.7559055118110236,
          "duration": 0.10714275000000839
        },
        {
          "name": "D4",
          "midi": 62,
          "time": 175.82125274999856,
          "velocity": 0.7559055118110236,
          "duration": 0.10714275000000839
        },
        {
          "name": "D5",
          "midi": 74,
          "time": 175.82125274999856,
          "velocity": 0.7559055118110236,
          "duration": 0.10714275000000839
        },
        {
          "name": "D6",
          "midi": 86,
          "time": 175.82125274999856,
          "velocity": 0.7559055118110236,
          "duration": 0.10714275000000839
        },
        {
          "name": "D7",
          "midi": 98,
          "time": 175.82125274999856,
          "velocity": 0.7559055118110236,
          "duration": 0.10714275000000839
        },
        {
          "name": "C#4",
          "midi": 61,
          "time": 175.92839549999857,
          "velocity": 0.7559055118110236,
          "duration": 0.10714275000000839
        },
        {
          "name": "C#5",
          "midi": 73,
          "time": 175.92839549999857,
          "velocity": 0.7559055118110236,
          "duration": 0.10714275000000839
        },
        {
          "name": "C#6",
          "midi": 85,
          "time": 175.92839549999857,
          "velocity": 0.7559055118110236,
          "duration": 0.10714275000000839
        },
        {
          "name": "C#7",
          "midi": 97,
          "time": 175.92839549999857,
          "velocity": 0.7559055118110236,
          "duration": 0.10714275000000839
        },
        {
          "name": "D4",
          "midi": 62,
          "time": 176.03553824999858,
          "velocity": 0.7559055118110236,
          "duration": 0.21428549999998836
        },
        {
          "name": "D5",
          "midi": 74,
          "time": 176.03553824999858,
          "velocity": 0.7559055118110236,
          "duration": 0.21428549999998836
        },
        {
          "name": "D6",
          "midi": 86,
          "time": 176.03553824999858,
          "velocity": 0.7559055118110236,
          "duration": 0.21428549999998836
        },
        {
          "name": "D7",
          "midi": 98,
          "time": 176.03553824999858,
          "velocity": 0.7559055118110236,
          "duration": 0.21428549999998836
        },
        {
          "name": "E4",
          "midi": 64,
          "time": 176.24982374999857,
          "velocity": 0.7559055118110236,
          "duration": 0.21428549999998836
        },
        {
          "name": "E5",
          "midi": 76,
          "time": 176.24982374999857,
          "velocity": 0.7559055118110236,
          "duration": 0.21428549999998836
        },
        {
          "name": "E6",
          "midi": 88,
          "time": 176.24982374999857,
          "velocity": 0.7559055118110236,
          "duration": 0.21428549999998836
        },
        {
          "name": "E7",
          "midi": 100,
          "time": 176.24982374999857,
          "velocity": 0.7559055118110236,
          "duration": 0.21428549999998836
        },
        {
          "name": "D#4",
          "midi": 63,
          "time": 176.57125199999857,
          "velocity": 0.7559055118110236,
          "duration": 0.10714275000000839
        },
        {
          "name": "E4",
          "midi": 64,
          "time": 176.57125199999857,
          "velocity": 0.7559055118110236,
          "duration": 0.10714275000000839
        },
        {
          "name": "D#5",
          "midi": 75,
          "time": 176.57125199999857,
          "velocity": 0.7559055118110236,
          "duration": 0.10714275000000839
        },
        {
          "name": "E5",
          "midi": 76,
          "time": 176.57125199999857,
          "velocity": 0.7559055118110236,
          "duration": 0.10714275000000839
        },
        {
          "name": "D#6",
          "midi": 87,
          "time": 176.57125199999857,
          "velocity": 0.7559055118110236,
          "duration": 0.10714275000000839
        },
        {
          "name": "E6",
          "midi": 88,
          "time": 176.57125199999857,
          "velocity": 0.7559055118110236,
          "duration": 0.10714275000000839
        },
        {
          "name": "D#7",
          "midi": 99,
          "time": 176.57125199999857,
          "velocity": 0.7559055118110236,
          "duration": 0.10714275000000839
        },
        {
          "name": "E7",
          "midi": 100,
          "time": 176.57125199999857,
          "velocity": 0.7559055118110236,
          "duration": 0.10714275000000839
        },
        {
          "name": "D#4",
          "midi": 63,
          "time": 176.89268024999856,
          "velocity": 0.7559055118110236,
          "duration": 0.10714275000000839
        },
        {
          "name": "E4",
          "midi": 64,
          "time": 176.89268024999856,
          "velocity": 0.7559055118110236,
          "duration": 0.10714275000000839
        },
        {
          "name": "D#5",
          "midi": 75,
          "time": 176.89268024999856,
          "velocity": 0.7559055118110236,
          "duration": 0.10714275000000839
        },
        {
          "name": "E5",
          "midi": 76,
          "time": 176.89268024999856,
          "velocity": 0.7559055118110236,
          "duration": 0.10714275000000839
        },
        {
          "name": "D#6",
          "midi": 87,
          "time": 176.89268024999856,
          "velocity": 0.7559055118110236,
          "duration": 0.10714275000000839
        },
        {
          "name": "E6",
          "midi": 88,
          "time": 176.89268024999856,
          "velocity": 0.7559055118110236,
          "duration": 0.10714275000000839
        },
        {
          "name": "D#7",
          "midi": 99,
          "time": 176.89268024999856,
          "velocity": 0.7559055118110236,
          "duration": 0.10714275000000839
        },
        {
          "name": "E7",
          "midi": 100,
          "time": 176.89268024999856,
          "velocity": 0.7559055118110236,
          "duration": 0.10714275000000839
        },
        {
          "name": "D#4",
          "midi": 63,
          "time": 177.21410849999856,
          "velocity": 0.7559055118110236,
          "duration": 0.10714275000000839
        },
        {
          "name": "E4",
          "midi": 64,
          "time": 177.21410849999856,
          "velocity": 0.7559055118110236,
          "duration": 0.10714275000000839
        },
        {
          "name": "D#5",
          "midi": 75,
          "time": 177.21410849999856,
          "velocity": 0.7559055118110236,
          "duration": 0.10714275000000839
        },
        {
          "name": "E5",
          "midi": 76,
          "time": 177.21410849999856,
          "velocity": 0.7559055118110236,
          "duration": 0.10714275000000839
        },
        {
          "name": "D#6",
          "midi": 87,
          "time": 177.21410849999856,
          "velocity": 0.7559055118110236,
          "duration": 0.10714275000000839
        },
        {
          "name": "E6",
          "midi": 88,
          "time": 177.21410849999856,
          "velocity": 0.7559055118110236,
          "duration": 0.10714275000000839
        },
        {
          "name": "D#7",
          "midi": 99,
          "time": 177.21410849999856,
          "velocity": 0.7559055118110236,
          "duration": 0.10714275000000839
        },
        {
          "name": "E7",
          "midi": 100,
          "time": 177.21410849999856,
          "velocity": 0.7559055118110236,
          "duration": 0.10714275000000839
        },
        {
          "name": "E4",
          "midi": 64,
          "time": 177.53553674999856,
          "velocity": 0.7559055118110236,
          "duration": 0.6428564999999935
        },
        {
          "name": "E5",
          "midi": 76,
          "time": 177.53553674999856,
          "velocity": 0.7559055118110236,
          "duration": 0.6428564999999935
        },
        {
          "name": "E6",
          "midi": 88,
          "time": 177.53553674999856,
          "velocity": 0.7559055118110236,
          "duration": 0.6428564999999935
        },
        {
          "name": "E7",
          "midi": 100,
          "time": 177.53553674999856,
          "velocity": 0.7559055118110236,
          "duration": 0.6428564999999935
        },
        {
          "name": "C4",
          "midi": 60,
          "time": 233.24976674999857,
          "velocity": 0.7480314960629921,
          "duration": 3.4285680000000127
        },
        {
          "name": "D4",
          "midi": 62,
          "time": 233.24976674999857,
          "velocity": 0.7480314960629921,
          "duration": 3.4285680000000127
        },
        {
          "name": "C5",
          "midi": 72,
          "time": 233.24976674999857,
          "velocity": 0.7480314960629921,
          "duration": 3.4285680000000127
        },
        {
          "name": "D5",
          "midi": 74,
          "time": 233.24976674999857,
          "velocity": 0.7480314960629921,
          "duration": 3.4285680000000127
        },
        {
          "name": "C6",
          "midi": 84,
          "time": 233.24976674999857,
          "velocity": 0.7480314960629921,
          "duration": 3.4285680000000127
        },
        {
          "name": "D6",
          "midi": 86,
          "time": 233.24976674999857,
          "velocity": 0.7480314960629921,
          "duration": 3.4285680000000127
        },
        {
          "name": "C7",
          "midi": 96,
          "time": 233.24976674999857,
          "velocity": 0.7480314960629921,
          "duration": 3.4285680000000127
        },
        {
          "name": "D7",
          "midi": 98,
          "time": 233.24976674999857,
          "velocity": 0.7480314960629921,
          "duration": 3.4285680000000127
        },
        {
          "name": "C4",
          "midi": 60,
          "time": 236.67833474999858,
          "velocity": 0.7480314960629921,
          "duration": 3.4285680000000127
        },
        {
          "name": "C#4",
          "midi": 61,
          "time": 236.67833474999858,
          "velocity": 0.7480314960629921,
          "duration": 3.4285680000000127
        },
        {
          "name": "C5",
          "midi": 72,
          "time": 236.67833474999858,
          "velocity": 0.7480314960629921,
          "duration": 3.4285680000000127
        },
        {
          "name": "C#5",
          "midi": 73,
          "time": 236.67833474999858,
          "velocity": 0.7480314960629921,
          "duration": 3.4285680000000127
        },
        {
          "name": "C6",
          "midi": 84,
          "time": 236.67833474999858,
          "velocity": 0.7480314960629921,
          "duration": 3.4285680000000127
        },
        {
          "name": "C#6",
          "midi": 85,
          "time": 236.67833474999858,
          "velocity": 0.7480314960629921,
          "duration": 3.4285680000000127
        },
        {
          "name": "C7",
          "midi": 96,
          "time": 236.67833474999858,
          "velocity": 0.7480314960629921,
          "duration": 3.4285680000000127
        },
        {
          "name": "C#7",
          "midi": 97,
          "time": 236.67833474999858,
          "velocity": 0.7480314960629921,
          "duration": 3.4285680000000127
        },
        {
          "name": "D7",
          "midi": 98,
          "time": 240.1069027499986,
          "velocity": 0.7480314960629921,
          "duration": 3.4285680000000127
        },
        {
          "name": "C#7",
          "midi": 97,
          "time": 240.1069027499986,
          "velocity": 0.7480314960629921,
          "duration": 3.4285680000000127
        },
        {
          "name": "C7",
          "midi": 96,
          "time": 240.1069027499986,
          "velocity": 0.7480314960629921,
          "duration": 3.4285680000000127
        },
        {
          "name": "D6",
          "midi": 86,
          "time": 240.1069027499986,
          "velocity": 0.7480314960629921,
          "duration": 3.4285680000000127
        },
        {
          "name": "C#6",
          "midi": 85,
          "time": 240.1069027499986,
          "velocity": 0.7480314960629921,
          "duration": 3.4285680000000127
        },
        {
          "name": "C6",
          "midi": 84,
          "time": 240.1069027499986,
          "velocity": 0.7480314960629921,
          "duration": 3.4285680000000127
        },
        {
          "name": "D5",
          "midi": 74,
          "time": 240.1069027499986,
          "velocity": 0.7480314960629921,
          "duration": 3.4285680000000127
        },
        {
          "name": "C#5",
          "midi": 73,
          "time": 240.1069027499986,
          "velocity": 0.7480314960629921,
          "duration": 3.4285680000000127
        },
        {
          "name": "C5",
          "midi": 72,
          "time": 240.1069027499986,
          "velocity": 0.7480314960629921,
          "duration": 3.4285680000000127
        },
        {
          "name": "D4",
          "midi": 62,
          "time": 240.1069027499986,
          "velocity": 0.7480314960629921,
          "duration": 3.4285680000000127
        },
        {
          "name": "C#4",
          "midi": 61,
          "time": 240.1069027499986,
          "velocity": 0.7480314960629921,
          "duration": 3.4285680000000127
        },
        {
          "name": "C4",
          "midi": 60,
          "time": 240.1069027499986,
          "velocity": 0.7480314960629921,
          "duration": 3.4285680000000127
        },
        {
          "name": "D#7",
          "midi": 99,
          "time": 243.5354707499986,
          "velocity": 0.7480314960629921,
          "duration": 1.7142839999999921
        },
        {
          "name": "D7",
          "midi": 98,
          "time": 243.5354707499986,
          "velocity": 0.7480314960629921,
          "duration": 1.7142839999999921
        },
        {
          "name": "C#7",
          "midi": 97,
          "time": 243.5354707499986,
          "velocity": 0.7480314960629921,
          "duration": 1.7142839999999921
        },
        {
          "name": "D#6",
          "midi": 87,
          "time": 243.5354707499986,
          "velocity": 0.7480314960629921,
          "duration": 1.7142839999999921
        },
        {
          "name": "D6",
          "midi": 86,
          "time": 243.5354707499986,
          "velocity": 0.7480314960629921,
          "duration": 1.7142839999999921
        },
        {
          "name": "C#6",
          "midi": 85,
          "time": 243.5354707499986,
          "velocity": 0.7480314960629921,
          "duration": 1.7142839999999921
        },
        {
          "name": "D#5",
          "midi": 75,
          "time": 243.5354707499986,
          "velocity": 0.7480314960629921,
          "duration": 1.7142839999999921
        },
        {
          "name": "D5",
          "midi": 74,
          "time": 243.5354707499986,
          "velocity": 0.7480314960629921,
          "duration": 1.7142839999999921
        },
        {
          "name": "C#5",
          "midi": 73,
          "time": 243.5354707499986,
          "velocity": 0.7480314960629921,
          "duration": 1.7142839999999921
        },
        {
          "name": "D#4",
          "midi": 63,
          "time": 243.5354707499986,
          "velocity": 0.7480314960629921,
          "duration": 1.7142839999999921
        },
        {
          "name": "D4",
          "midi": 62,
          "time": 243.5354707499986,
          "velocity": 0.7480314960629921,
          "duration": 1.7142839999999921
        },
        {
          "name": "C#4",
          "midi": 61,
          "time": 243.5354707499986,
          "velocity": 0.7480314960629921,
          "duration": 1.7142839999999921
        },
        {
          "name": "E7",
          "midi": 100,
          "time": 245.2497547499986,
          "velocity": 0.7480314960629921,
          "duration": 1.7142839999999921
        },
        {
          "name": "D#7",
          "midi": 99,
          "time": 245.2497547499986,
          "velocity": 0.7480314960629921,
          "duration": 1.7142839999999921
        },
        {
          "name": "D7",
          "midi": 98,
          "time": 245.2497547499986,
          "velocity": 0.7480314960629921,
          "duration": 1.7142839999999921
        },
        {
          "name": "E6",
          "midi": 88,
          "time": 245.2497547499986,
          "velocity": 0.7480314960629921,
          "duration": 1.7142839999999921
        },
        {
          "name": "D#6",
          "midi": 87,
          "time": 245.2497547499986,
          "velocity": 0.7480314960629921,
          "duration": 1.7142839999999921
        },
        {
          "name": "D6",
          "midi": 86,
          "time": 245.2497547499986,
          "velocity": 0.7480314960629921,
          "duration": 1.7142839999999921
        },
        {
          "name": "E5",
          "midi": 76,
          "time": 245.2497547499986,
          "velocity": 0.7480314960629921,
          "duration": 1.7142839999999921
        },
        {
          "name": "D#5",
          "midi": 75,
          "time": 245.2497547499986,
          "velocity": 0.7480314960629921,
          "duration": 1.7142839999999921
        },
        {
          "name": "D5",
          "midi": 74,
          "time": 245.2497547499986,
          "velocity": 0.7480314960629921,
          "duration": 1.7142839999999921
        },
        {
          "name": "E4",
          "midi": 64,
          "time": 245.2497547499986,
          "velocity": 0.7480314960629921,
          "duration": 1.7142839999999921
        },
        {
          "name": "D#4",
          "midi": 63,
          "time": 245.2497547499986,
          "velocity": 0.7480314960629921,
          "duration": 1.7142839999999921
        },
        {
          "name": "D4",
          "midi": 62,
          "time": 245.2497547499986,
          "velocity": 0.7480314960629921,
          "duration": 1.7142839999999921
        },
        {
          "name": "C4",
          "midi": 60,
          "time": 246.9640387499986,
          "velocity": 0.7480314960629921,
          "duration": 3.4285680000000127
        },
        {
          "name": "D4",
          "midi": 62,
          "time": 246.9640387499986,
          "velocity": 0.7480314960629921,
          "duration": 3.4285680000000127
        },
        {
          "name": "C5",
          "midi": 72,
          "time": 246.9640387499986,
          "velocity": 0.7480314960629921,
          "duration": 3.4285680000000127
        },
        {
          "name": "D5",
          "midi": 74,
          "time": 246.9640387499986,
          "velocity": 0.7480314960629921,
          "duration": 3.4285680000000127
        },
        {
          "name": "C6",
          "midi": 84,
          "time": 246.9640387499986,
          "velocity": 0.7480314960629921,
          "duration": 3.4285680000000127
        },
        {
          "name": "D6",
          "midi": 86,
          "time": 246.9640387499986,
          "velocity": 0.7480314960629921,
          "duration": 3.4285680000000127
        },
        {
          "name": "C7",
          "midi": 96,
          "time": 246.9640387499986,
          "velocity": 0.7480314960629921,
          "duration": 3.4285680000000127
        },
        {
          "name": "D7",
          "midi": 98,
          "time": 246.9640387499986,
          "velocity": 0.7480314960629921,
          "duration": 3.4285680000000127
        },
        {
          "name": "C4",
          "midi": 60,
          "time": 250.3926067499986,
          "velocity": 0.7480314960629921,
          "duration": 3.4285680000000127
        },
        {
          "name": "C#4",
          "midi": 61,
          "time": 250.3926067499986,
          "velocity": 0.7480314960629921,
          "duration": 3.4285680000000127
        },
        {
          "name": "C5",
          "midi": 72,
          "time": 250.3926067499986,
          "velocity": 0.7480314960629921,
          "duration": 3.4285680000000127
        },
        {
          "name": "C#5",
          "midi": 73,
          "time": 250.3926067499986,
          "velocity": 0.7480314960629921,
          "duration": 3.4285680000000127
        },
        {
          "name": "C6",
          "midi": 84,
          "time": 250.3926067499986,
          "velocity": 0.7480314960629921,
          "duration": 3.4285680000000127
        },
        {
          "name": "C#6",
          "midi": 85,
          "time": 250.3926067499986,
          "velocity": 0.7480314960629921,
          "duration": 3.4285680000000127
        },
        {
          "name": "C7",
          "midi": 96,
          "time": 250.3926067499986,
          "velocity": 0.7480314960629921,
          "duration": 3.4285680000000127
        },
        {
          "name": "C#7",
          "midi": 97,
          "time": 250.3926067499986,
          "velocity": 0.7480314960629921,
          "duration": 3.4285680000000127
        },
        {
          "name": "D7",
          "midi": 98,
          "time": 253.82117474999862,
          "velocity": 0.7480314960629921,
          "duration": 3.4285680000000127
        },
        {
          "name": "C#7",
          "midi": 97,
          "time": 253.82117474999862,
          "velocity": 0.7480314960629921,
          "duration": 3.4285680000000127
        },
        {
          "name": "C7",
          "midi": 96,
          "time": 253.82117474999862,
          "velocity": 0.7480314960629921,
          "duration": 3.4285680000000127
        },
        {
          "name": "D6",
          "midi": 86,
          "time": 253.82117474999862,
          "velocity": 0.7480314960629921,
          "duration": 3.4285680000000127
        },
        {
          "name": "C#6",
          "midi": 85,
          "time": 253.82117474999862,
          "velocity": 0.7480314960629921,
          "duration": 3.4285680000000127
        },
        {
          "name": "C6",
          "midi": 84,
          "time": 253.82117474999862,
          "velocity": 0.7480314960629921,
          "duration": 3.4285680000000127
        },
        {
          "name": "D5",
          "midi": 74,
          "time": 253.82117474999862,
          "velocity": 0.7480314960629921,
          "duration": 3.4285680000000127
        },
        {
          "name": "C#5",
          "midi": 73,
          "time": 253.82117474999862,
          "velocity": 0.7480314960629921,
          "duration": 3.4285680000000127
        },
        {
          "name": "C5",
          "midi": 72,
          "time": 253.82117474999862,
          "velocity": 0.7480314960629921,
          "duration": 3.4285680000000127
        },
        {
          "name": "D4",
          "midi": 62,
          "time": 253.82117474999862,
          "velocity": 0.7480314960629921,
          "duration": 3.4285680000000127
        },
        {
          "name": "C#4",
          "midi": 61,
          "time": 253.82117474999862,
          "velocity": 0.7480314960629921,
          "duration": 3.4285680000000127
        },
        {
          "name": "C4",
          "midi": 60,
          "time": 253.82117474999862,
          "velocity": 0.7480314960629921,
          "duration": 3.4285680000000127
        },
        {
          "name": "D#7",
          "midi": 99,
          "time": 257.24974274999863,
          "velocity": 0.7480314960629921,
          "duration": 1.7142840000000206
        },
        {
          "name": "D7",
          "midi": 98,
          "time": 257.24974274999863,
          "velocity": 0.7480314960629921,
          "duration": 1.7142840000000206
        },
        {
          "name": "C#7",
          "midi": 97,
          "time": 257.24974274999863,
          "velocity": 0.7480314960629921,
          "duration": 1.7142840000000206
        },
        {
          "name": "D#6",
          "midi": 87,
          "time": 257.24974274999863,
          "velocity": 0.7480314960629921,
          "duration": 1.7142840000000206
        },
        {
          "name": "D6",
          "midi": 86,
          "time": 257.24974274999863,
          "velocity": 0.7480314960629921,
          "duration": 1.7142840000000206
        },
        {
          "name": "C#6",
          "midi": 85,
          "time": 257.24974274999863,
          "velocity": 0.7480314960629921,
          "duration": 1.7142840000000206
        },
        {
          "name": "D#5",
          "midi": 75,
          "time": 257.24974274999863,
          "velocity": 0.7480314960629921,
          "duration": 1.7142840000000206
        },
        {
          "name": "D5",
          "midi": 74,
          "time": 257.24974274999863,
          "velocity": 0.7480314960629921,
          "duration": 1.7142840000000206
        },
        {
          "name": "C#5",
          "midi": 73,
          "time": 257.24974274999863,
          "velocity": 0.7480314960629921,
          "duration": 1.7142840000000206
        },
        {
          "name": "D#4",
          "midi": 63,
          "time": 257.24974274999863,
          "velocity": 0.7480314960629921,
          "duration": 1.7142840000000206
        },
        {
          "name": "D4",
          "midi": 62,
          "time": 257.24974274999863,
          "velocity": 0.7480314960629921,
          "duration": 1.7142840000000206
        },
        {
          "name": "C#4",
          "midi": 61,
          "time": 257.24974274999863,
          "velocity": 0.7480314960629921,
          "duration": 1.7142840000000206
        },
        {
          "name": "E7",
          "midi": 100,
          "time": 258.96402674999865,
          "velocity": 0.7480314960629921,
          "duration": 1.7142840000000206
        },
        {
          "name": "D#7",
          "midi": 99,
          "time": 258.96402674999865,
          "velocity": 0.7480314960629921,
          "duration": 1.7142840000000206
        },
        {
          "name": "D7",
          "midi": 98,
          "time": 258.96402674999865,
          "velocity": 0.7480314960629921,
          "duration": 1.7142840000000206
        },
        {
          "name": "E6",
          "midi": 88,
          "time": 258.96402674999865,
          "velocity": 0.7480314960629921,
          "duration": 1.7142840000000206
        },
        {
          "name": "D#6",
          "midi": 87,
          "time": 258.96402674999865,
          "velocity": 0.7480314960629921,
          "duration": 1.7142840000000206
        },
        {
          "name": "D6",
          "midi": 86,
          "time": 258.96402674999865,
          "velocity": 0.7480314960629921,
          "duration": 1.7142840000000206
        },
        {
          "name": "E5",
          "midi": 76,
          "time": 258.96402674999865,
          "velocity": 0.7480314960629921,
          "duration": 1.7142840000000206
        },
        {
          "name": "D#5",
          "midi": 75,
          "time": 258.96402674999865,
          "velocity": 0.7480314960629921,
          "duration": 1.7142840000000206
        },
        {
          "name": "D5",
          "midi": 74,
          "time": 258.96402674999865,
          "velocity": 0.7480314960629921,
          "duration": 1.7142840000000206
        },
        {
          "name": "E4",
          "midi": 64,
          "time": 258.96402674999865,
          "velocity": 0.7480314960629921,
          "duration": 1.7142840000000206
        },
        {
          "name": "D#4",
          "midi": 63,
          "time": 258.96402674999865,
          "velocity": 0.7480314960629921,
          "duration": 1.7142840000000206
        },
        {
          "name": "D4",
          "midi": 62,
          "time": 258.96402674999865,
          "velocity": 0.7480314960629921,
          "duration": 1.7142840000000206
        },
        {
          "name": "C4",
          "midi": 60,
          "time": 288.15774755624864,
          "velocity": 0.7480314960629921,
          "duration": 0.06249993749997884
        },
        {
          "name": "D4",
          "midi": 62,
          "time": 288.15774755624864,
          "velocity": 0.7480314960629921,
          "duration": 0.06249993749997884
        },
        {
          "name": "D#4",
          "midi": 63,
          "time": 288.15774755624864,
          "velocity": 0.7480314960629921,
          "duration": 0.06249993749997884
        },
        {
          "name": "C5",
          "midi": 72,
          "time": 288.15774755624864,
          "velocity": 0.7480314960629921,
          "duration": 0.06249993749997884
        },
        {
          "name": "D5",
          "midi": 74,
          "time": 288.15774755624864,
          "velocity": 0.7480314960629921,
          "duration": 0.06249993749997884
        },
        {
          "name": "D#5",
          "midi": 75,
          "time": 288.15774755624864,
          "velocity": 0.7480314960629921,
          "duration": 0.06249993749997884
        },
        {
          "name": "C6",
          "midi": 84,
          "time": 288.15774755624864,
          "velocity": 0.7480314960629921,
          "duration": 0.06249993749997884
        },
        {
          "name": "D6",
          "midi": 86,
          "time": 288.15774755624864,
          "velocity": 0.7480314960629921,
          "duration": 0.06249993749997884
        },
        {
          "name": "D#6",
          "midi": 87,
          "time": 288.15774755624864,
          "velocity": 0.7480314960629921,
          "duration": 0.06249993749997884
        },
        {
          "name": "C7",
          "midi": 96,
          "time": 288.15774755624864,
          "velocity": 0.7480314960629921,
          "duration": 0.06249993749997884
        },
        {
          "name": "D7",
          "midi": 98,
          "time": 288.15774755624864,
          "velocity": 0.7480314960629921,
          "duration": 0.06249993749997884
        },
        {
          "name": "D#7",
          "midi": 99,
          "time": 288.15774755624864,
          "velocity": 0.7480314960629921,
          "duration": 0.06249993749997884
        },
        {
          "name": "C4",
          "midi": 60,
          "time": 288.5863185562486,
          "velocity": 0.7480314960629921,
          "duration": 0.06249993749997884
        },
        {
          "name": "D4",
          "midi": 62,
          "time": 288.5863185562486,
          "velocity": 0.7480314960629921,
          "duration": 0.06249993749997884
        },
        {
          "name": "D#4",
          "midi": 63,
          "time": 288.5863185562486,
          "velocity": 0.7480314960629921,
          "duration": 0.06249993749997884
        },
        {
          "name": "C5",
          "midi": 72,
          "time": 288.5863185562486,
          "velocity": 0.7480314960629921,
          "duration": 0.06249993749997884
        },
        {
          "name": "D5",
          "midi": 74,
          "time": 288.5863185562486,
          "velocity": 0.7480314960629921,
          "duration": 0.06249993749997884
        },
        {
          "name": "D#5",
          "midi": 75,
          "time": 288.5863185562486,
          "velocity": 0.7480314960629921,
          "duration": 0.06249993749997884
        },
        {
          "name": "C6",
          "midi": 84,
          "time": 288.5863185562486,
          "velocity": 0.7480314960629921,
          "duration": 0.06249993749997884
        },
        {
          "name": "D6",
          "midi": 86,
          "time": 288.5863185562486,
          "velocity": 0.7480314960629921,
          "duration": 0.06249993749997884
        },
        {
          "name": "D#6",
          "midi": 87,
          "time": 288.5863185562486,
          "velocity": 0.7480314960629921,
          "duration": 0.06249993749997884
        },
        {
          "name": "C7",
          "midi": 96,
          "time": 288.5863185562486,
          "velocity": 0.7480314960629921,
          "duration": 0.06249993749997884
        },
        {
          "name": "D7",
          "midi": 98,
          "time": 288.5863185562486,
          "velocity": 0.7480314960629921,
          "duration": 0.06249993749997884
        },
        {
          "name": "D#7",
          "midi": 99,
          "time": 288.5863185562486,
          "velocity": 0.7480314960629921,
          "duration": 0.06249993749997884
        },
        {
          "name": "C4",
          "midi": 60,
          "time": 289.0148895562486,
          "velocity": 0.7480314960629921,
          "duration": 0.4285709999999767
        },
        {
          "name": "D4",
          "midi": 62,
          "time": 289.0148895562486,
          "velocity": 0.7480314960629921,
          "duration": 0.4285709999999767
        },
        {
          "name": "D#4",
          "midi": 63,
          "time": 289.0148895562486,
          "velocity": 0.7480314960629921,
          "duration": 0.4285709999999767
        },
        {
          "name": "C5",
          "midi": 72,
          "time": 289.0148895562486,
          "velocity": 0.7480314960629921,
          "duration": 0.4285709999999767
        },
        {
          "name": "D5",
          "midi": 74,
          "time": 289.0148895562486,
          "velocity": 0.7480314960629921,
          "duration": 0.4285709999999767
        },
        {
          "name": "D#5",
          "midi": 75,
          "time": 289.0148895562486,
          "velocity": 0.7480314960629921,
          "duration": 0.4285709999999767
        },
        {
          "name": "C6",
          "midi": 84,
          "time": 289.0148895562486,
          "velocity": 0.7480314960629921,
          "duration": 0.4285709999999767
        },
        {
          "name": "D6",
          "midi": 86,
          "time": 289.0148895562486,
          "velocity": 0.7480314960629921,
          "duration": 0.4285709999999767
        },
        {
          "name": "D#6",
          "midi": 87,
          "time": 289.0148895562486,
          "velocity": 0.7480314960629921,
          "duration": 0.4285709999999767
        },
        {
          "name": "C7",
          "midi": 96,
          "time": 289.0148895562486,
          "velocity": 0.7480314960629921,
          "duration": 0.4285709999999767
        },
        {
          "name": "D7",
          "midi": 98,
          "time": 289.0148895562486,
          "velocity": 0.7480314960629921,
          "duration": 0.4285709999999767
        },
        {
          "name": "D#7",
          "midi": 99,
          "time": 289.0148895562486,
          "velocity": 0.7480314960629921,
          "duration": 0.4285709999999767
        },
        {
          "name": "D#7",
          "midi": 99,
          "time": 289.44346055624857,
          "velocity": 0.7480314960629921,
          "duration": 0.06249993749997884
        },
        {
          "name": "D7",
          "midi": 98,
          "time": 289.44346055624857,
          "velocity": 0.7480314960629921,
          "duration": 0.06249993749997884
        },
        {
          "name": "C7",
          "midi": 96,
          "time": 289.44346055624857,
          "velocity": 0.7480314960629921,
          "duration": 0.06249993749997884
        },
        {
          "name": "D#6",
          "midi": 87,
          "time": 289.44346055624857,
          "velocity": 0.7480314960629921,
          "duration": 0.06249993749997884
        },
        {
          "name": "D6",
          "midi": 86,
          "time": 289.44346055624857,
          "velocity": 0.7480314960629921,
          "duration": 0.06249993749997884
        },
        {
          "name": "C6",
          "midi": 84,
          "time": 289.44346055624857,
          "velocity": 0.7480314960629921,
          "duration": 0.06249993749997884
        },
        {
          "name": "D#5",
          "midi": 75,
          "time": 289.44346055624857,
          "velocity": 0.7480314960629921,
          "duration": 0.06249993749997884
        },
        {
          "name": "D5",
          "midi": 74,
          "time": 289.44346055624857,
          "velocity": 0.7480314960629921,
          "duration": 0.06249993749997884
        },
        {
          "name": "C5",
          "midi": 72,
          "time": 289.44346055624857,
          "velocity": 0.7480314960629921,
          "duration": 0.06249993749997884
        },
        {
          "name": "D#4",
          "midi": 63,
          "time": 289.44346055624857,
          "velocity": 0.7480314960629921,
          "duration": 0.06249993749997884
        },
        {
          "name": "D4",
          "midi": 62,
          "time": 289.44346055624857,
          "velocity": 0.7480314960629921,
          "duration": 0.06249993749997884
        },
        {
          "name": "C4",
          "midi": 60,
          "time": 289.44346055624857,
          "velocity": 0.7480314960629921,
          "duration": 0.06249993749997884
        },
        {
          "name": "C4",
          "midi": 60,
          "time": 289.6577460562485,
          "velocity": 0.7480314960629921,
          "duration": 0.06249993749997884
        },
        {
          "name": "D4",
          "midi": 62,
          "time": 289.6577460562485,
          "velocity": 0.7480314960629921,
          "duration": 0.06249993749997884
        },
        {
          "name": "D#4",
          "midi": 63,
          "time": 289.6577460562485,
          "velocity": 0.7480314960629921,
          "duration": 0.06249993749997884
        },
        {
          "name": "C5",
          "midi": 72,
          "time": 289.6577460562485,
          "velocity": 0.7480314960629921,
          "duration": 0.06249993749997884
        },
        {
          "name": "D5",
          "midi": 74,
          "time": 289.6577460562485,
          "velocity": 0.7480314960629921,
          "duration": 0.06249993749997884
        },
        {
          "name": "D#5",
          "midi": 75,
          "time": 289.6577460562485,
          "velocity": 0.7480314960629921,
          "duration": 0.06249993749997884
        },
        {
          "name": "C6",
          "midi": 84,
          "time": 289.6577460562485,
          "velocity": 0.7480314960629921,
          "duration": 0.06249993749997884
        },
        {
          "name": "D6",
          "midi": 86,
          "time": 289.6577460562485,
          "velocity": 0.7480314960629921,
          "duration": 0.06249993749997884
        },
        {
          "name": "D#6",
          "midi": 87,
          "time": 289.6577460562485,
          "velocity": 0.7480314960629921,
          "duration": 0.06249993749997884
        },
        {
          "name": "C7",
          "midi": 96,
          "time": 289.6577460562485,
          "velocity": 0.7480314960629921,
          "duration": 0.06249993749997884
        },
        {
          "name": "D7",
          "midi": 98,
          "time": 289.6577460562485,
          "velocity": 0.7480314960629921,
          "duration": 0.06249993749997884
        },
        {
          "name": "D#7",
          "midi": 99,
          "time": 289.6577460562485,
          "velocity": 0.7480314960629921,
          "duration": 0.06249993749997884
        },
        {
          "name": "C4",
          "midi": 60,
          "time": 290.0863170562485,
          "velocity": 0.7480314960629921,
          "duration": 0.06249993749997884
        },
        {
          "name": "D4",
          "midi": 62,
          "time": 290.0863170562485,
          "velocity": 0.7480314960629921,
          "duration": 0.06249993749997884
        },
        {
          "name": "D#4",
          "midi": 63,
          "time": 290.0863170562485,
          "velocity": 0.7480314960629921,
          "duration": 0.06249993749997884
        },
        {
          "name": "C5",
          "midi": 72,
          "time": 290.0863170562485,
          "velocity": 0.7480314960629921,
          "duration": 0.06249993749997884
        },
        {
          "name": "D5",
          "midi": 74,
          "time": 290.0863170562485,
          "velocity": 0.7480314960629921,
          "duration": 0.06249993749997884
        },
        {
          "name": "D#5",
          "midi": 75,
          "time": 290.0863170562485,
          "velocity": 0.7480314960629921,
          "duration": 0.06249993749997884
        },
        {
          "name": "C6",
          "midi": 84,
          "time": 290.0863170562485,
          "velocity": 0.7480314960629921,
          "duration": 0.06249993749997884
        },
        {
          "name": "D6",
          "midi": 86,
          "time": 290.0863170562485,
          "velocity": 0.7480314960629921,
          "duration": 0.06249993749997884
        },
        {
          "name": "D#6",
          "midi": 87,
          "time": 290.0863170562485,
          "velocity": 0.7480314960629921,
          "duration": 0.06249993749997884
        },
        {
          "name": "C7",
          "midi": 96,
          "time": 290.0863170562485,
          "velocity": 0.7480314960629921,
          "duration": 0.06249993749997884
        },
        {
          "name": "D7",
          "midi": 98,
          "time": 290.0863170562485,
          "velocity": 0.7480314960629921,
          "duration": 0.06249993749997884
        },
        {
          "name": "D#7",
          "midi": 99,
          "time": 290.0863170562485,
          "velocity": 0.7480314960629921,
          "duration": 0.06249993749997884
        },
        {
          "name": "C4",
          "midi": 60,
          "time": 290.30060255624846,
          "velocity": 0.7480314960629921,
          "duration": 0.06249993749997884
        },
        {
          "name": "D4",
          "midi": 62,
          "time": 290.30060255624846,
          "velocity": 0.7480314960629921,
          "duration": 0.06249993749997884
        },
        {
          "name": "D#4",
          "midi": 63,
          "time": 290.30060255624846,
          "velocity": 0.7480314960629921,
          "duration": 0.06249993749997884
        },
        {
          "name": "C5",
          "midi": 72,
          "time": 290.30060255624846,
          "velocity": 0.7480314960629921,
          "duration": 0.06249993749997884
        },
        {
          "name": "D5",
          "midi": 74,
          "time": 290.30060255624846,
          "velocity": 0.7480314960629921,
          "duration": 0.06249993749997884
        },
        {
          "name": "D#5",
          "midi": 75,
          "time": 290.30060255624846,
          "velocity": 0.7480314960629921,
          "duration": 0.06249993749997884
        },
        {
          "name": "C6",
          "midi": 84,
          "time": 290.30060255624846,
          "velocity": 0.7480314960629921,
          "duration": 0.06249993749997884
        },
        {
          "name": "D6",
          "midi": 86,
          "time": 290.30060255624846,
          "velocity": 0.7480314960629921,
          "duration": 0.06249993749997884
        },
        {
          "name": "D#6",
          "midi": 87,
          "time": 290.30060255624846,
          "velocity": 0.7480314960629921,
          "duration": 0.06249993749997884
        },
        {
          "name": "C7",
          "midi": 96,
          "time": 290.30060255624846,
          "velocity": 0.7480314960629921,
          "duration": 0.06249993749997884
        },
        {
          "name": "D7",
          "midi": 98,
          "time": 290.30060255624846,
          "velocity": 0.7480314960629921,
          "duration": 0.06249993749997884
        },
        {
          "name": "D#7",
          "midi": 99,
          "time": 290.30060255624846,
          "velocity": 0.7480314960629921,
          "duration": 0.06249993749997884
        },
        {
          "name": "C4",
          "midi": 60,
          "time": 290.72917355624844,
          "velocity": 0.7480314960629921,
          "duration": 0.4285709999999767
        },
        {
          "name": "D4",
          "midi": 62,
          "time": 290.72917355624844,
          "velocity": 0.7480314960629921,
          "duration": 0.4285709999999767
        },
        {
          "name": "D#4",
          "midi": 63,
          "time": 290.72917355624844,
          "velocity": 0.7480314960629921,
          "duration": 0.4285709999999767
        },
        {
          "name": "C5",
          "midi": 72,
          "time": 290.72917355624844,
          "velocity": 0.7480314960629921,
          "duration": 0.4285709999999767
        },
        {
          "name": "D5",
          "midi": 74,
          "time": 290.72917355624844,
          "velocity": 0.7480314960629921,
          "duration": 0.4285709999999767
        },
        {
          "name": "D#5",
          "midi": 75,
          "time": 290.72917355624844,
          "velocity": 0.7480314960629921,
          "duration": 0.4285709999999767
        },
        {
          "name": "C6",
          "midi": 84,
          "time": 290.72917355624844,
          "velocity": 0.7480314960629921,
          "duration": 0.4285709999999767
        },
        {
          "name": "D6",
          "midi": 86,
          "time": 290.72917355624844,
          "velocity": 0.7480314960629921,
          "duration": 0.4285709999999767
        },
        {
          "name": "D#6",
          "midi": 87,
          "time": 290.72917355624844,
          "velocity": 0.7480314960629921,
          "duration": 0.4285709999999767
        },
        {
          "name": "C7",
          "midi": 96,
          "time": 290.72917355624844,
          "velocity": 0.7480314960629921,
          "duration": 0.4285709999999767
        },
        {
          "name": "D7",
          "midi": 98,
          "time": 290.72917355624844,
          "velocity": 0.7480314960629921,
          "duration": 0.4285709999999767
        },
        {
          "name": "D#7",
          "midi": 99,
          "time": 290.72917355624844,
          "velocity": 0.7480314960629921,
          "duration": 0.4285709999999767
        },
        {
          "name": "D#7",
          "midi": 99,
          "time": 291.1577445562484,
          "velocity": 0.7480314960629921,
          "duration": 0.06249993749997884
        },
        {
          "name": "D7",
          "midi": 98,
          "time": 291.1577445562484,
          "velocity": 0.7480314960629921,
          "duration": 0.06249993749997884
        },
        {
          "name": "C7",
          "midi": 96,
          "time": 291.1577445562484,
          "velocity": 0.7480314960629921,
          "duration": 0.06249993749997884
        },
        {
          "name": "D#6",
          "midi": 87,
          "time": 291.1577445562484,
          "velocity": 0.7480314960629921,
          "duration": 0.06249993749997884
        },
        {
          "name": "D6",
          "midi": 86,
          "time": 291.1577445562484,
          "velocity": 0.7480314960629921,
          "duration": 0.06249993749997884
        },
        {
          "name": "C6",
          "midi": 84,
          "time": 291.1577445562484,
          "velocity": 0.7480314960629921,
          "duration": 0.06249993749997884
        },
        {
          "name": "D#5",
          "midi": 75,
          "time": 291.1577445562484,
          "velocity": 0.7480314960629921,
          "duration": 0.06249993749997884
        },
        {
          "name": "D5",
          "midi": 74,
          "time": 291.1577445562484,
          "velocity": 0.7480314960629921,
          "duration": 0.06249993749997884
        },
        {
          "name": "C5",
          "midi": 72,
          "time": 291.1577445562484,
          "velocity": 0.7480314960629921,
          "duration": 0.06249993749997884
        },
        {
          "name": "D#4",
          "midi": 63,
          "time": 291.1577445562484,
          "velocity": 0.7480314960629921,
          "duration": 0.06249993749997884
        },
        {
          "name": "D4",
          "midi": 62,
          "time": 291.1577445562484,
          "velocity": 0.7480314960629921,
          "duration": 0.06249993749997884
        },
        {
          "name": "C4",
          "midi": 60,
          "time": 291.1577445562484,
          "velocity": 0.7480314960629921,
          "duration": 0.06249993749997884
        },
        {
          "name": "C4",
          "midi": 60,
          "time": 291.3720300562484,
          "velocity": 0.7480314960629921,
          "duration": 0.06249993749997884
        },
        {
          "name": "D4",
          "midi": 62,
          "time": 291.3720300562484,
          "velocity": 0.7480314960629921,
          "duration": 0.06249993749997884
        },
        {
          "name": "D#4",
          "midi": 63,
          "time": 291.3720300562484,
          "velocity": 0.7480314960629921,
          "duration": 0.06249993749997884
        },
        {
          "name": "C5",
          "midi": 72,
          "time": 291.3720300562484,
          "velocity": 0.7480314960629921,
          "duration": 0.06249993749997884
        },
        {
          "name": "D5",
          "midi": 74,
          "time": 291.3720300562484,
          "velocity": 0.7480314960629921,
          "duration": 0.06249993749997884
        },
        {
          "name": "D#5",
          "midi": 75,
          "time": 291.3720300562484,
          "velocity": 0.7480314960629921,
          "duration": 0.06249993749997884
        },
        {
          "name": "C6",
          "midi": 84,
          "time": 291.3720300562484,
          "velocity": 0.7480314960629921,
          "duration": 0.06249993749997884
        },
        {
          "name": "D6",
          "midi": 86,
          "time": 291.3720300562484,
          "velocity": 0.7480314960629921,
          "duration": 0.06249993749997884
        },
        {
          "name": "D#6",
          "midi": 87,
          "time": 291.3720300562484,
          "velocity": 0.7480314960629921,
          "duration": 0.06249993749997884
        },
        {
          "name": "C7",
          "midi": 96,
          "time": 291.3720300562484,
          "velocity": 0.7480314960629921,
          "duration": 0.06249993749997884
        },
        {
          "name": "D7",
          "midi": 98,
          "time": 291.3720300562484,
          "velocity": 0.7480314960629921,
          "duration": 0.06249993749997884
        },
        {
          "name": "D#7",
          "midi": 99,
          "time": 291.3720300562484,
          "velocity": 0.7480314960629921,
          "duration": 0.06249993749997884
        },
        {
          "name": "C4",
          "midi": 60,
          "time": 291.58631555624834,
          "velocity": 0.7480314960629921,
          "duration": 0.06249993749997884
        },
        {
          "name": "D4",
          "midi": 62,
          "time": 291.58631555624834,
          "velocity": 0.7480314960629921,
          "duration": 0.06249993749997884
        },
        {
          "name": "D#4",
          "midi": 63,
          "time": 291.58631555624834,
          "velocity": 0.7480314960629921,
          "duration": 0.06249993749997884
        },
        {
          "name": "C5",
          "midi": 72,
          "time": 291.58631555624834,
          "velocity": 0.7480314960629921,
          "duration": 0.06249993749997884
        },
        {
          "name": "D5",
          "midi": 74,
          "time": 291.58631555624834,
          "velocity": 0.7480314960629921,
          "duration": 0.06249993749997884
        },
        {
          "name": "D#5",
          "midi": 75,
          "time": 291.58631555624834,
          "velocity": 0.7480314960629921,
          "duration": 0.06249993749997884
        },
        {
          "name": "C6",
          "midi": 84,
          "time": 291.58631555624834,
          "velocity": 0.7480314960629921,
          "duration": 0.06249993749997884
        },
        {
          "name": "D6",
          "midi": 86,
          "time": 291.58631555624834,
          "velocity": 0.7480314960629921,
          "duration": 0.06249993749997884
        },
        {
          "name": "D#6",
          "midi": 87,
          "time": 291.58631555624834,
          "velocity": 0.7480314960629921,
          "duration": 0.06249993749997884
        },
        {
          "name": "C7",
          "midi": 96,
          "time": 291.58631555624834,
          "velocity": 0.7480314960629921,
          "duration": 0.06249993749997884
        },
        {
          "name": "D7",
          "midi": 98,
          "time": 291.58631555624834,
          "velocity": 0.7480314960629921,
          "duration": 0.06249993749997884
        },
        {
          "name": "D#7",
          "midi": 99,
          "time": 291.58631555624834,
          "velocity": 0.7480314960629921,
          "duration": 0.06249993749997884
        },
        {
          "name": "C4",
          "midi": 60,
          "time": 292.0148865562483,
          "velocity": 0.7480314960629921,
          "duration": 0.06249993749997884
        },
        {
          "name": "D4",
          "midi": 62,
          "time": 292.0148865562483,
          "velocity": 0.7480314960629921,
          "duration": 0.06249993749997884
        },
        {
          "name": "D#4",
          "midi": 63,
          "time": 292.0148865562483,
          "velocity": 0.7480314960629921,
          "duration": 0.06249993749997884
        },
        {
          "name": "C5",
          "midi": 72,
          "time": 292.0148865562483,
          "velocity": 0.7480314960629921,
          "duration": 0.06249993749997884
        },
        {
          "name": "D5",
          "midi": 74,
          "time": 292.0148865562483,
          "velocity": 0.7480314960629921,
          "duration": 0.06249993749997884
        },
        {
          "name": "D#5",
          "midi": 75,
          "time": 292.0148865562483,
          "velocity": 0.7480314960629921,
          "duration": 0.06249993749997884
        },
        {
          "name": "C6",
          "midi": 84,
          "time": 292.0148865562483,
          "velocity": 0.7480314960629921,
          "duration": 0.06249993749997884
        },
        {
          "name": "D6",
          "midi": 86,
          "time": 292.0148865562483,
          "velocity": 0.7480314960629921,
          "duration": 0.06249993749997884
        },
        {
          "name": "D#6",
          "midi": 87,
          "time": 292.0148865562483,
          "velocity": 0.7480314960629921,
          "duration": 0.06249993749997884
        },
        {
          "name": "C7",
          "midi": 96,
          "time": 292.0148865562483,
          "velocity": 0.7480314960629921,
          "duration": 0.06249993749997884
        },
        {
          "name": "D7",
          "midi": 98,
          "time": 292.0148865562483,
          "velocity": 0.7480314960629921,
          "duration": 0.06249993749997884
        },
        {
          "name": "D#7",
          "midi": 99,
          "time": 292.0148865562483,
          "velocity": 0.7480314960629921,
          "duration": 0.06249993749997884
        },
        {
          "name": "C4",
          "midi": 60,
          "time": 292.4434575562483,
          "velocity": 0.7480314960629921,
          "duration": 0.4285709999999767
        },
        {
          "name": "D4",
          "midi": 62,
          "time": 292.4434575562483,
          "velocity": 0.7480314960629921,
          "duration": 0.4285709999999767
        },
        {
          "name": "D#4",
          "midi": 63,
          "time": 292.4434575562483,
          "velocity": 0.7480314960629921,
          "duration": 0.4285709999999767
        },
        {
          "name": "C5",
          "midi": 72,
          "time": 292.4434575562483,
          "velocity": 0.7480314960629921,
          "duration": 0.4285709999999767
        },
        {
          "name": "D5",
          "midi": 74,
          "time": 292.4434575562483,
          "velocity": 0.7480314960629921,
          "duration": 0.4285709999999767
        },
        {
          "name": "D#5",
          "midi": 75,
          "time": 292.4434575562483,
          "velocity": 0.7480314960629921,
          "duration": 0.4285709999999767
        },
        {
          "name": "C6",
          "midi": 84,
          "time": 292.4434575562483,
          "velocity": 0.7480314960629921,
          "duration": 0.4285709999999767
        },
        {
          "name": "D6",
          "midi": 86,
          "time": 292.4434575562483,
          "velocity": 0.7480314960629921,
          "duration": 0.4285709999999767
        },
        {
          "name": "D#6",
          "midi": 87,
          "time": 292.4434575562483,
          "velocity": 0.7480314960629921,
          "duration": 0.4285709999999767
        },
        {
          "name": "C7",
          "midi": 96,
          "time": 292.4434575562483,
          "velocity": 0.7480314960629921,
          "duration": 0.4285709999999767
        },
        {
          "name": "D7",
          "midi": 98,
          "time": 292.4434575562483,
          "velocity": 0.7480314960629921,
          "duration": 0.4285709999999767
        },
        {
          "name": "D#7",
          "midi": 99,
          "time": 292.4434575562483,
          "velocity": 0.7480314960629921,
          "duration": 0.4285709999999767
        },
        {
          "name": "D#7",
          "midi": 99,
          "time": 292.87202855624827,
          "velocity": 0.7480314960629921,
          "duration": 0.06249993749997884
        },
        {
          "name": "D7",
          "midi": 98,
          "time": 292.87202855624827,
          "velocity": 0.7480314960629921,
          "duration": 0.06249993749997884
        },
        {
          "name": "C7",
          "midi": 96,
          "time": 292.87202855624827,
          "velocity": 0.7480314960629921,
          "duration": 0.06249993749997884
        },
        {
          "name": "D#6",
          "midi": 87,
          "time": 292.87202855624827,
          "velocity": 0.7480314960629921,
          "duration": 0.06249993749997884
        },
        {
          "name": "D6",
          "midi": 86,
          "time": 292.87202855624827,
          "velocity": 0.7480314960629921,
          "duration": 0.06249993749997884
        },
        {
          "name": "C6",
          "midi": 84,
          "time": 292.87202855624827,
          "velocity": 0.7480314960629921,
          "duration": 0.06249993749997884
        },
        {
          "name": "D#5",
          "midi": 75,
          "time": 292.87202855624827,
          "velocity": 0.7480314960629921,
          "duration": 0.06249993749997884
        },
        {
          "name": "D5",
          "midi": 74,
          "time": 292.87202855624827,
          "velocity": 0.7480314960629921,
          "duration": 0.06249993749997884
        },
        {
          "name": "C5",
          "midi": 72,
          "time": 292.87202855624827,
          "velocity": 0.7480314960629921,
          "duration": 0.06249993749997884
        },
        {
          "name": "D#4",
          "midi": 63,
          "time": 292.87202855624827,
          "velocity": 0.7480314960629921,
          "duration": 0.06249993749997884
        },
        {
          "name": "D4",
          "midi": 62,
          "time": 292.87202855624827,
          "velocity": 0.7480314960629921,
          "duration": 0.06249993749997884
        },
        {
          "name": "C4",
          "midi": 60,
          "time": 292.87202855624827,
          "velocity": 0.7480314960629921,
          "duration": 0.06249993749997884
        },
        {
          "name": "C4",
          "midi": 60,
          "time": 293.0863140562482,
          "velocity": 0.7480314960629921,
          "duration": 0.06249993749997884
        },
        {
          "name": "D4",
          "midi": 62,
          "time": 293.0863140562482,
          "velocity": 0.7480314960629921,
          "duration": 0.06249993749997884
        },
        {
          "name": "D#4",
          "midi": 63,
          "time": 293.0863140562482,
          "velocity": 0.7480314960629921,
          "duration": 0.06249993749997884
        },
        {
          "name": "C5",
          "midi": 72,
          "time": 293.0863140562482,
          "velocity": 0.7480314960629921,
          "duration": 0.06249993749997884
        },
        {
          "name": "D5",
          "midi": 74,
          "time": 293.0863140562482,
          "velocity": 0.7480314960629921,
          "duration": 0.06249993749997884
        },
        {
          "name": "D#5",
          "midi": 75,
          "time": 293.0863140562482,
          "velocity": 0.7480314960629921,
          "duration": 0.06249993749997884
        },
        {
          "name": "C6",
          "midi": 84,
          "time": 293.0863140562482,
          "velocity": 0.7480314960629921,
          "duration": 0.06249993749997884
        },
        {
          "name": "D6",
          "midi": 86,
          "time": 293.0863140562482,
          "velocity": 0.7480314960629921,
          "duration": 0.06249993749997884
        },
        {
          "name": "D#6",
          "midi": 87,
          "time": 293.0863140562482,
          "velocity": 0.7480314960629921,
          "duration": 0.06249993749997884
        },
        {
          "name": "C7",
          "midi": 96,
          "time": 293.0863140562482,
          "velocity": 0.7480314960629921,
          "duration": 0.06249993749997884
        },
        {
          "name": "D7",
          "midi": 98,
          "time": 293.0863140562482,
          "velocity": 0.7480314960629921,
          "duration": 0.06249993749997884
        },
        {
          "name": "D#7",
          "midi": 99,
          "time": 293.0863140562482,
          "velocity": 0.7480314960629921,
          "duration": 0.06249993749997884
        },
        {
          "name": "C4",
          "midi": 60,
          "time": 293.5148850562482,
          "velocity": 0.7480314960629921,
          "duration": 0.06249993749997884
        },
        {
          "name": "D4",
          "midi": 62,
          "time": 293.5148850562482,
          "velocity": 0.7480314960629921,
          "duration": 0.06249993749997884
        },
        {
          "name": "D#4",
          "midi": 63,
          "time": 293.5148850562482,
          "velocity": 0.7480314960629921,
          "duration": 0.06249993749997884
        },
        {
          "name": "C5",
          "midi": 72,
          "time": 293.5148850562482,
          "velocity": 0.7480314960629921,
          "duration": 0.06249993749997884
        },
        {
          "name": "D5",
          "midi": 74,
          "time": 293.5148850562482,
          "velocity": 0.7480314960629921,
          "duration": 0.06249993749997884
        },
        {
          "name": "D#5",
          "midi": 75,
          "time": 293.5148850562482,
          "velocity": 0.7480314960629921,
          "duration": 0.06249993749997884
        },
        {
          "name": "C6",
          "midi": 84,
          "time": 293.5148850562482,
          "velocity": 0.7480314960629921,
          "duration": 0.06249993749997884
        },
        {
          "name": "D6",
          "midi": 86,
          "time": 293.5148850562482,
          "velocity": 0.7480314960629921,
          "duration": 0.06249993749997884
        },
        {
          "name": "D#6",
          "midi": 87,
          "time": 293.5148850562482,
          "velocity": 0.7480314960629921,
          "duration": 0.06249993749997884
        },
        {
          "name": "C7",
          "midi": 96,
          "time": 293.5148850562482,
          "velocity": 0.7480314960629921,
          "duration": 0.06249993749997884
        },
        {
          "name": "D7",
          "midi": 98,
          "time": 293.5148850562482,
          "velocity": 0.7480314960629921,
          "duration": 0.06249993749997884
        },
        {
          "name": "D#7",
          "midi": 99,
          "time": 293.5148850562482,
          "velocity": 0.7480314960629921,
          "duration": 0.06249993749997884
        },
        {
          "name": "C4",
          "midi": 60,
          "time": 293.72917055624816,
          "velocity": 0.7480314960629921,
          "duration": 0.06249993749997884
        },
        {
          "name": "D4",
          "midi": 62,
          "time": 293.72917055624816,
          "velocity": 0.7480314960629921,
          "duration": 0.06249993749997884
        },
        {
          "name": "D#4",
          "midi": 63,
          "time": 293.72917055624816,
          "velocity": 0.7480314960629921,
          "duration": 0.06249993749997884
        },
        {
          "name": "C5",
          "midi": 72,
          "time": 293.72917055624816,
          "velocity": 0.7480314960629921,
          "duration": 0.06249993749997884
        },
        {
          "name": "D5",
          "midi": 74,
          "time": 293.72917055624816,
          "velocity": 0.7480314960629921,
          "duration": 0.06249993749997884
        },
        {
          "name": "D#5",
          "midi": 75,
          "time": 293.72917055624816,
          "velocity": 0.7480314960629921,
          "duration": 0.06249993749997884
        },
        {
          "name": "C6",
          "midi": 84,
          "time": 293.72917055624816,
          "velocity": 0.7480314960629921,
          "duration": 0.06249993749997884
        },
        {
          "name": "D6",
          "midi": 86,
          "time": 293.72917055624816,
          "velocity": 0.7480314960629921,
          "duration": 0.06249993749997884
        },
        {
          "name": "D#6",
          "midi": 87,
          "time": 293.72917055624816,
          "velocity": 0.7480314960629921,
          "duration": 0.06249993749997884
        },
        {
          "name": "C7",
          "midi": 96,
          "time": 293.72917055624816,
          "velocity": 0.7480314960629921,
          "duration": 0.06249993749997884
        },
        {
          "name": "D7",
          "midi": 98,
          "time": 293.72917055624816,
          "velocity": 0.7480314960629921,
          "duration": 0.06249993749997884
        },
        {
          "name": "D#7",
          "midi": 99,
          "time": 293.72917055624816,
          "velocity": 0.7480314960629921,
          "duration": 0.06249993749997884
        },
        {
          "name": "C4",
          "midi": 60,
          "time": 294.15774155624814,
          "velocity": 0.7480314960629921,
          "duration": 0.4285709999999767
        },
        {
          "name": "D4",
          "midi": 62,
          "time": 294.15774155624814,
          "velocity": 0.7480314960629921,
          "duration": 0.4285709999999767
        },
        {
          "name": "D#4",
          "midi": 63,
          "time": 294.15774155624814,
          "velocity": 0.7480314960629921,
          "duration": 0.4285709999999767
        },
        {
          "name": "C5",
          "midi": 72,
          "time": 294.15774155624814,
          "velocity": 0.7480314960629921,
          "duration": 0.4285709999999767
        },
        {
          "name": "D5",
          "midi": 74,
          "time": 294.15774155624814,
          "velocity": 0.7480314960629921,
          "duration": 0.4285709999999767
        },
        {
          "name": "D#5",
          "midi": 75,
          "time": 294.15774155624814,
          "velocity": 0.7480314960629921,
          "duration": 0.4285709999999767
        },
        {
          "name": "C6",
          "midi": 84,
          "time": 294.15774155624814,
          "velocity": 0.7480314960629921,
          "duration": 0.4285709999999767
        },
        {
          "name": "D6",
          "midi": 86,
          "time": 294.15774155624814,
          "velocity": 0.7480314960629921,
          "duration": 0.4285709999999767
        },
        {
          "name": "D#6",
          "midi": 87,
          "time": 294.15774155624814,
          "velocity": 0.7480314960629921,
          "duration": 0.4285709999999767
        },
        {
          "name": "C7",
          "midi": 96,
          "time": 294.15774155624814,
          "velocity": 0.7480314960629921,
          "duration": 0.4285709999999767
        },
        {
          "name": "D7",
          "midi": 98,
          "time": 294.15774155624814,
          "velocity": 0.7480314960629921,
          "duration": 0.4285709999999767
        },
        {
          "name": "D#7",
          "midi": 99,
          "time": 294.15774155624814,
          "velocity": 0.7480314960629921,
          "duration": 0.4285709999999767
        },
        {
          "name": "D#7",
          "midi": 99,
          "time": 294.5863125562481,
          "velocity": 0.7480314960629921,
          "duration": 0.06249993749997884
        },
        {
          "name": "D7",
          "midi": 98,
          "time": 294.5863125562481,
          "velocity": 0.7480314960629921,
          "duration": 0.06249993749997884
        },
        {
          "name": "C7",
          "midi": 96,
          "time": 294.5863125562481,
          "velocity": 0.7480314960629921,
          "duration": 0.06249993749997884
        },
        {
          "name": "D#6",
          "midi": 87,
          "time": 294.5863125562481,
          "velocity": 0.7480314960629921,
          "duration": 0.06249993749997884
        },
        {
          "name": "D6",
          "midi": 86,
          "time": 294.5863125562481,
          "velocity": 0.7480314960629921,
          "duration": 0.06249993749997884
        },
        {
          "name": "C6",
          "midi": 84,
          "time": 294.5863125562481,
          "velocity": 0.7480314960629921,
          "duration": 0.06249993749997884
        },
        {
          "name": "D#5",
          "midi": 75,
          "time": 294.5863125562481,
          "velocity": 0.7480314960629921,
          "duration": 0.06249993749997884
        },
        {
          "name": "D5",
          "midi": 74,
          "time": 294.5863125562481,
          "velocity": 0.7480314960629921,
          "duration": 0.06249993749997884
        },
        {
          "name": "C5",
          "midi": 72,
          "time": 294.5863125562481,
          "velocity": 0.7480314960629921,
          "duration": 0.06249993749997884
        },
        {
          "name": "D#4",
          "midi": 63,
          "time": 294.5863125562481,
          "velocity": 0.7480314960629921,
          "duration": 0.06249993749997884
        },
        {
          "name": "D4",
          "midi": 62,
          "time": 294.5863125562481,
          "velocity": 0.7480314960629921,
          "duration": 0.06249993749997884
        },
        {
          "name": "C4",
          "midi": 60,
          "time": 294.5863125562481,
          "velocity": 0.7480314960629921,
          "duration": 0.06249993749997884
        },
        {
          "name": "C4",
          "midi": 60,
          "time": 294.8005980562481,
          "velocity": 0.7480314960629921,
          "duration": 0.06249993749997884
        },
        {
          "name": "D4",
          "midi": 62,
          "time": 294.8005980562481,
          "velocity": 0.7480314960629921,
          "duration": 0.06249993749997884
        },
        {
          "name": "D#4",
          "midi": 63,
          "time": 294.8005980562481,
          "velocity": 0.7480314960629921,
          "duration": 0.06249993749997884
        },
        {
          "name": "C5",
          "midi": 72,
          "time": 294.8005980562481,
          "velocity": 0.7480314960629921,
          "duration": 0.06249993749997884
        },
        {
          "name": "D5",
          "midi": 74,
          "time": 294.8005980562481,
          "velocity": 0.7480314960629921,
          "duration": 0.06249993749997884
        },
        {
          "name": "D#5",
          "midi": 75,
          "time": 294.8005980562481,
          "velocity": 0.7480314960629921,
          "duration": 0.06249993749997884
        },
        {
          "name": "C6",
          "midi": 84,
          "time": 294.8005980562481,
          "velocity": 0.7480314960629921,
          "duration": 0.06249993749997884
        },
        {
          "name": "D6",
          "midi": 86,
          "time": 294.8005980562481,
          "velocity": 0.7480314960629921,
          "duration": 0.06249993749997884
        },
        {
          "name": "D#6",
          "midi": 87,
          "time": 294.8005980562481,
          "velocity": 0.7480314960629921,
          "duration": 0.06249993749997884
        },
        {
          "name": "C7",
          "midi": 96,
          "time": 294.8005980562481,
          "velocity": 0.7480314960629921,
          "duration": 0.06249993749997884
        },
        {
          "name": "D7",
          "midi": 98,
          "time": 294.8005980562481,
          "velocity": 0.7480314960629921,
          "duration": 0.06249993749997884
        },
        {
          "name": "D#7",
          "midi": 99,
          "time": 294.8005980562481,
          "velocity": 0.7480314960629921,
          "duration": 0.06249993749997884
        },
        {
          "name": "C#4",
          "midi": 61,
          "time": 295.01488355624804,
          "velocity": 0.7480314960629921,
          "duration": 0.06249993749997884
        },
        {
          "name": "D4",
          "midi": 62,
          "time": 295.01488355624804,
          "velocity": 0.7480314960629921,
          "duration": 0.06249993749997884
        },
        {
          "name": "D#4",
          "midi": 63,
          "time": 295.01488355624804,
          "velocity": 0.7480314960629921,
          "duration": 0.06249993749997884
        },
        {
          "name": "C#5",
          "midi": 73,
          "time": 295.01488355624804,
          "velocity": 0.7480314960629921,
          "duration": 0.06249993749997884
        },
        {
          "name": "D5",
          "midi": 74,
          "time": 295.01488355624804,
          "velocity": 0.7480314960629921,
          "duration": 0.06249993749997884
        },
        {
          "name": "D#5",
          "midi": 75,
          "time": 295.01488355624804,
          "velocity": 0.7480314960629921,
          "duration": 0.06249993749997884
        },
        {
          "name": "C#6",
          "midi": 85,
          "time": 295.01488355624804,
          "velocity": 0.7480314960629921,
          "duration": 0.06249993749997884
        },
        {
          "name": "D6",
          "midi": 86,
          "time": 295.01488355624804,
          "velocity": 0.7480314960629921,
          "duration": 0.06249993749997884
        },
        {
          "name": "D#6",
          "midi": 87,
          "time": 295.01488355624804,
          "velocity": 0.7480314960629921,
          "duration": 0.06249993749997884
        },
        {
          "name": "C#7",
          "midi": 97,
          "time": 295.01488355624804,
          "velocity": 0.7480314960629921,
          "duration": 0.06249993749997884
        },
        {
          "name": "D7",
          "midi": 98,
          "time": 295.01488355624804,
          "velocity": 0.7480314960629921,
          "duration": 0.06249993749997884
        },
        {
          "name": "D#7",
          "midi": 99,
          "time": 295.01488355624804,
          "velocity": 0.7480314960629921,
          "duration": 0.06249993749997884
        },
        {
          "name": "C#4",
          "midi": 61,
          "time": 295.443454556248,
          "velocity": 0.7480314960629921,
          "duration": 0.06249993749997884
        },
        {
          "name": "D4",
          "midi": 62,
          "time": 295.443454556248,
          "velocity": 0.7480314960629921,
          "duration": 0.06249993749997884
        },
        {
          "name": "D#4",
          "midi": 63,
          "time": 295.443454556248,
          "velocity": 0.7480314960629921,
          "duration": 0.06249993749997884
        },
        {
          "name": "C#5",
          "midi": 73,
          "time": 295.443454556248,
          "velocity": 0.7480314960629921,
          "duration": 0.06249993749997884
        },
        {
          "name": "D5",
          "midi": 74,
          "time": 295.443454556248,
          "velocity": 0.7480314960629921,
          "duration": 0.06249993749997884
        },
        {
          "name": "D#5",
          "midi": 75,
          "time": 295.443454556248,
          "velocity": 0.7480314960629921,
          "duration": 0.06249993749997884
        },
        {
          "name": "C#6",
          "midi": 85,
          "time": 295.443454556248,
          "velocity": 0.7480314960629921,
          "duration": 0.06249993749997884
        },
        {
          "name": "D6",
          "midi": 86,
          "time": 295.443454556248,
          "velocity": 0.7480314960629921,
          "duration": 0.06249993749997884
        },
        {
          "name": "D#6",
          "midi": 87,
          "time": 295.443454556248,
          "velocity": 0.7480314960629921,
          "duration": 0.06249993749997884
        },
        {
          "name": "C#7",
          "midi": 97,
          "time": 295.443454556248,
          "velocity": 0.7480314960629921,
          "duration": 0.06249993749997884
        },
        {
          "name": "D7",
          "midi": 98,
          "time": 295.443454556248,
          "velocity": 0.7480314960629921,
          "duration": 0.06249993749997884
        },
        {
          "name": "D#7",
          "midi": 99,
          "time": 295.443454556248,
          "velocity": 0.7480314960629921,
          "duration": 0.06249993749997884
        },
        {
          "name": "C#4",
          "midi": 61,
          "time": 295.872025556248,
          "velocity": 0.7480314960629921,
          "duration": 0.4285709999999767
        },
        {
          "name": "D#4",
          "midi": 63,
          "time": 295.872025556248,
          "velocity": 0.7480314960629921,
          "duration": 0.4285709999999767
        },
        {
          "name": "E4",
          "midi": 64,
          "time": 295.872025556248,
          "velocity": 0.7480314960629921,
          "duration": 0.4285709999999767
        },
        {
          "name": "C#5",
          "midi": 73,
          "time": 295.872025556248,
          "velocity": 0.7480314960629921,
          "duration": 0.4285709999999767
        },
        {
          "name": "D#5",
          "midi": 75,
          "time": 295.872025556248,
          "velocity": 0.7480314960629921,
          "duration": 0.4285709999999767
        },
        {
          "name": "E5",
          "midi": 76,
          "time": 295.872025556248,
          "velocity": 0.7480314960629921,
          "duration": 0.4285709999999767
        },
        {
          "name": "C#6",
          "midi": 85,
          "time": 295.872025556248,
          "velocity": 0.7480314960629921,
          "duration": 0.4285709999999767
        },
        {
          "name": "D#6",
          "midi": 87,
          "time": 295.872025556248,
          "velocity": 0.7480314960629921,
          "duration": 0.4285709999999767
        },
        {
          "name": "E6",
          "midi": 88,
          "time": 295.872025556248,
          "velocity": 0.7480314960629921,
          "duration": 0.4285709999999767
        },
        {
          "name": "C#7",
          "midi": 97,
          "time": 295.872025556248,
          "velocity": 0.7480314960629921,
          "duration": 0.4285709999999767
        },
        {
          "name": "D#7",
          "midi": 99,
          "time": 295.872025556248,
          "velocity": 0.7480314960629921,
          "duration": 0.4285709999999767
        },
        {
          "name": "E7",
          "midi": 100,
          "time": 295.872025556248,
          "velocity": 0.7480314960629921,
          "duration": 0.4285709999999767
        },
        {
          "name": "E7",
          "midi": 100,
          "time": 296.30059655624797,
          "velocity": 0.7480314960629921,
          "duration": 0.06249993749997884
        },
        {
          "name": "D#7",
          "midi": 99,
          "time": 296.30059655624797,
          "velocity": 0.7480314960629921,
          "duration": 0.06249993749997884
        },
        {
          "name": "C#7",
          "midi": 97,
          "time": 296.30059655624797,
          "velocity": 0.7480314960629921,
          "duration": 0.06249993749997884
        },
        {
          "name": "E6",
          "midi": 88,
          "time": 296.30059655624797,
          "velocity": 0.7480314960629921,
          "duration": 0.06249993749997884
        },
        {
          "name": "D#6",
          "midi": 87,
          "time": 296.30059655624797,
          "velocity": 0.7480314960629921,
          "duration": 0.06249993749997884
        },
        {
          "name": "C#6",
          "midi": 85,
          "time": 296.30059655624797,
          "velocity": 0.7480314960629921,
          "duration": 0.06249993749997884
        },
        {
          "name": "E5",
          "midi": 76,
          "time": 296.30059655624797,
          "velocity": 0.7480314960629921,
          "duration": 0.06249993749997884
        },
        {
          "name": "D#5",
          "midi": 75,
          "time": 296.30059655624797,
          "velocity": 0.7480314960629921,
          "duration": 0.06249993749997884
        },
        {
          "name": "C#5",
          "midi": 73,
          "time": 296.30059655624797,
          "velocity": 0.7480314960629921,
          "duration": 0.06249993749997884
        },
        {
          "name": "E4",
          "midi": 64,
          "time": 296.30059655624797,
          "velocity": 0.7480314960629921,
          "duration": 0.06249993749997884
        },
        {
          "name": "D#4",
          "midi": 63,
          "time": 296.30059655624797,
          "velocity": 0.7480314960629921,
          "duration": 0.06249993749997884
        },
        {
          "name": "C#4",
          "midi": 61,
          "time": 296.30059655624797,
          "velocity": 0.7480314960629921,
          "duration": 0.06249993749997884
        },
        {
          "name": "C#4",
          "midi": 61,
          "time": 296.5148820562479,
          "velocity": 0.7480314960629921,
          "duration": 0.06249993749997884
        },
        {
          "name": "D#4",
          "midi": 63,
          "time": 296.5148820562479,
          "velocity": 0.7480314960629921,
          "duration": 0.06249993749997884
        },
        {
          "name": "E4",
          "midi": 64,
          "time": 296.5148820562479,
          "velocity": 0.7480314960629921,
          "duration": 0.06249993749997884
        },
        {
          "name": "C#5",
          "midi": 73,
          "time": 296.5148820562479,
          "velocity": 0.7480314960629921,
          "duration": 0.06249993749997884
        },
        {
          "name": "D#5",
          "midi": 75,
          "time": 296.5148820562479,
          "velocity": 0.7480314960629921,
          "duration": 0.06249993749997884
        },
        {
          "name": "E5",
          "midi": 76,
          "time": 296.5148820562479,
          "velocity": 0.7480314960629921,
          "duration": 0.06249993749997884
        },
        {
          "name": "C#6",
          "midi": 85,
          "time": 296.5148820562479,
          "velocity": 0.7480314960629921,
          "duration": 0.06249993749997884
        },
        {
          "name": "D#6",
          "midi": 87,
          "time": 296.5148820562479,
          "velocity": 0.7480314960629921,
          "duration": 0.06249993749997884
        },
        {
          "name": "E6",
          "midi": 88,
          "time": 296.5148820562479,
          "velocity": 0.7480314960629921,
          "duration": 0.06249993749997884
        },
        {
          "name": "C#7",
          "midi": 97,
          "time": 296.5148820562479,
          "velocity": 0.7480314960629921,
          "duration": 0.06249993749997884
        },
        {
          "name": "D#7",
          "midi": 99,
          "time": 296.5148820562479,
          "velocity": 0.7480314960629921,
          "duration": 0.06249993749997884
        },
        {
          "name": "E7",
          "midi": 100,
          "time": 296.5148820562479,
          "velocity": 0.7480314960629921,
          "duration": 0.06249993749997884
        },
        {
          "name": "C#4",
          "midi": 61,
          "time": 296.9434530562479,
          "velocity": 0.7480314960629921,
          "duration": 0.06249993749997884
        },
        {
          "name": "D#4",
          "midi": 63,
          "time": 296.9434530562479,
          "velocity": 0.7480314960629921,
          "duration": 0.06249993749997884
        },
        {
          "name": "E4",
          "midi": 64,
          "time": 296.9434530562479,
          "velocity": 0.7480314960629921,
          "duration": 0.06249993749997884
        },
        {
          "name": "C#5",
          "midi": 73,
          "time": 296.9434530562479,
          "velocity": 0.7480314960629921,
          "duration": 0.06249993749997884
        },
        {
          "name": "D#5",
          "midi": 75,
          "time": 296.9434530562479,
          "velocity": 0.7480314960629921,
          "duration": 0.06249993749997884
        },
        {
          "name": "E5",
          "midi": 76,
          "time": 296.9434530562479,
          "velocity": 0.7480314960629921,
          "duration": 0.06249993749997884
        },
        {
          "name": "C#6",
          "midi": 85,
          "time": 296.9434530562479,
          "velocity": 0.7480314960629921,
          "duration": 0.06249993749997884
        },
        {
          "name": "D#6",
          "midi": 87,
          "time": 296.9434530562479,
          "velocity": 0.7480314960629921,
          "duration": 0.06249993749997884
        },
        {
          "name": "E6",
          "midi": 88,
          "time": 296.9434530562479,
          "velocity": 0.7480314960629921,
          "duration": 0.06249993749997884
        },
        {
          "name": "C#7",
          "midi": 97,
          "time": 296.9434530562479,
          "velocity": 0.7480314960629921,
          "duration": 0.06249993749997884
        },
        {
          "name": "D#7",
          "midi": 99,
          "time": 296.9434530562479,
          "velocity": 0.7480314960629921,
          "duration": 0.06249993749997884
        },
        {
          "name": "E7",
          "midi": 100,
          "time": 296.9434530562479,
          "velocity": 0.7480314960629921,
          "duration": 0.06249993749997884
        },
        {
          "name": "C#4",
          "midi": 61,
          "time": 297.15773855624786,
          "velocity": 0.7480314960629921,
          "duration": 0.06249993749997884
        },
        {
          "name": "D#4",
          "midi": 63,
          "time": 297.15773855624786,
          "velocity": 0.7480314960629921,
          "duration": 0.06249993749997884
        },
        {
          "name": "E4",
          "midi": 64,
          "time": 297.15773855624786,
          "velocity": 0.7480314960629921,
          "duration": 0.06249993749997884
        },
        {
          "name": "C#5",
          "midi": 73,
          "time": 297.15773855624786,
          "velocity": 0.7480314960629921,
          "duration": 0.06249993749997884
        },
        {
          "name": "D#5",
          "midi": 75,
          "time": 297.15773855624786,
          "velocity": 0.7480314960629921,
          "duration": 0.06249993749997884
        },
        {
          "name": "E5",
          "midi": 76,
          "time": 297.15773855624786,
          "velocity": 0.7480314960629921,
          "duration": 0.06249993749997884
        },
        {
          "name": "C#6",
          "midi": 85,
          "time": 297.15773855624786,
          "velocity": 0.7480314960629921,
          "duration": 0.06249993749997884
        },
        {
          "name": "D#6",
          "midi": 87,
          "time": 297.15773855624786,
          "velocity": 0.7480314960629921,
          "duration": 0.06249993749997884
        },
        {
          "name": "E6",
          "midi": 88,
          "time": 297.15773855624786,
          "velocity": 0.7480314960629921,
          "duration": 0.06249993749997884
        },
        {
          "name": "C#7",
          "midi": 97,
          "time": 297.15773855624786,
          "velocity": 0.7480314960629921,
          "duration": 0.06249993749997884
        },
        {
          "name": "D#7",
          "midi": 99,
          "time": 297.15773855624786,
          "velocity": 0.7480314960629921,
          "duration": 0.06249993749997884
        },
        {
          "name": "E7",
          "midi": 100,
          "time": 297.15773855624786,
          "velocity": 0.7480314960629921,
          "duration": 0.06249993749997884
        },
        {
          "name": "C#4",
          "midi": 61,
          "time": 297.58630955624784,
          "velocity": 0.7480314960629921,
          "duration": 0.4285709999999767
        },
        {
          "name": "D#4",
          "midi": 63,
          "time": 297.58630955624784,
          "velocity": 0.7480314960629921,
          "duration": 0.4285709999999767
        },
        {
          "name": "E4",
          "midi": 64,
          "time": 297.58630955624784,
          "velocity": 0.7480314960629921,
          "duration": 0.4285709999999767
        },
        {
          "name": "C#5",
          "midi": 73,
          "time": 297.58630955624784,
          "velocity": 0.7480314960629921,
          "duration": 0.4285709999999767
        },
        {
          "name": "D#5",
          "midi": 75,
          "time": 297.58630955624784,
          "velocity": 0.7480314960629921,
          "duration": 0.4285709999999767
        },
        {
          "name": "E5",
          "midi": 76,
          "time": 297.58630955624784,
          "velocity": 0.7480314960629921,
          "duration": 0.4285709999999767
        },
        {
          "name": "C#6",
          "midi": 85,
          "time": 297.58630955624784,
          "velocity": 0.7480314960629921,
          "duration": 0.4285709999999767
        },
        {
          "name": "D#6",
          "midi": 87,
          "time": 297.58630955624784,
          "velocity": 0.7480314960629921,
          "duration": 0.4285709999999767
        },
        {
          "name": "E6",
          "midi": 88,
          "time": 297.58630955624784,
          "velocity": 0.7480314960629921,
          "duration": 0.4285709999999767
        },
        {
          "name": "C#7",
          "midi": 97,
          "time": 297.58630955624784,
          "velocity": 0.7480314960629921,
          "duration": 0.4285709999999767
        },
        {
          "name": "D#7",
          "midi": 99,
          "time": 297.58630955624784,
          "velocity": 0.7480314960629921,
          "duration": 0.4285709999999767
        },
        {
          "name": "E7",
          "midi": 100,
          "time": 297.58630955624784,
          "velocity": 0.7480314960629921,
          "duration": 0.4285709999999767
        },
        {
          "name": "E7",
          "midi": 100,
          "time": 298.0148805562478,
          "velocity": 0.7480314960629921,
          "duration": 0.06249993749997884
        },
        {
          "name": "D#7",
          "midi": 99,
          "time": 298.0148805562478,
          "velocity": 0.7480314960629921,
          "duration": 0.06249993749997884
        },
        {
          "name": "C#7",
          "midi": 97,
          "time": 298.0148805562478,
          "velocity": 0.7480314960629921,
          "duration": 0.06249993749997884
        },
        {
          "name": "E6",
          "midi": 88,
          "time": 298.0148805562478,
          "velocity": 0.7480314960629921,
          "duration": 0.06249993749997884
        },
        {
          "name": "D#6",
          "midi": 87,
          "time": 298.0148805562478,
          "velocity": 0.7480314960629921,
          "duration": 0.06249993749997884
        },
        {
          "name": "C#6",
          "midi": 85,
          "time": 298.0148805562478,
          "velocity": 0.7480314960629921,
          "duration": 0.06249993749997884
        },
        {
          "name": "E5",
          "midi": 76,
          "time": 298.0148805562478,
          "velocity": 0.7480314960629921,
          "duration": 0.06249993749997884
        },
        {
          "name": "D#5",
          "midi": 75,
          "time": 298.0148805562478,
          "velocity": 0.7480314960629921,
          "duration": 0.06249993749997884
        },
        {
          "name": "C#5",
          "midi": 73,
          "time": 298.0148805562478,
          "velocity": 0.7480314960629921,
          "duration": 0.06249993749997884
        },
        {
          "name": "E4",
          "midi": 64,
          "time": 298.0148805562478,
          "velocity": 0.7480314960629921,
          "duration": 0.06249993749997884
        },
        {
          "name": "D#4",
          "midi": 63,
          "time": 298.0148805562478,
          "velocity": 0.7480314960629921,
          "duration": 0.06249993749997884
        },
        {
          "name": "C#4",
          "midi": 61,
          "time": 298.0148805562478,
          "velocity": 0.7480314960629921,
          "duration": 0.06249993749997884
        },
        {
          "name": "C#4",
          "midi": 61,
          "time": 298.2291660562478,
          "velocity": 0.7480314960629921,
          "duration": 0.06249993749997884
        },
        {
          "name": "D#4",
          "midi": 63,
          "time": 298.2291660562478,
          "velocity": 0.7480314960629921,
          "duration": 0.06249993749997884
        },
        {
          "name": "E4",
          "midi": 64,
          "time": 298.2291660562478,
          "velocity": 0.7480314960629921,
          "duration": 0.06249993749997884
        },
        {
          "name": "C#5",
          "midi": 73,
          "time": 298.2291660562478,
          "velocity": 0.7480314960629921,
          "duration": 0.06249993749997884
        },
        {
          "name": "D#5",
          "midi": 75,
          "time": 298.2291660562478,
          "velocity": 0.7480314960629921,
          "duration": 0.06249993749997884
        },
        {
          "name": "E5",
          "midi": 76,
          "time": 298.2291660562478,
          "velocity": 0.7480314960629921,
          "duration": 0.06249993749997884
        },
        {
          "name": "C#6",
          "midi": 85,
          "time": 298.2291660562478,
          "velocity": 0.7480314960629921,
          "duration": 0.06249993749997884
        },
        {
          "name": "D#6",
          "midi": 87,
          "time": 298.2291660562478,
          "velocity": 0.7480314960629921,
          "duration": 0.06249993749997884
        },
        {
          "name": "E6",
          "midi": 88,
          "time": 298.2291660562478,
          "velocity": 0.7480314960629921,
          "duration": 0.06249993749997884
        },
        {
          "name": "C#7",
          "midi": 97,
          "time": 298.2291660562478,
          "velocity": 0.7480314960629921,
          "duration": 0.06249993749997884
        },
        {
          "name": "D#7",
          "midi": 99,
          "time": 298.2291660562478,
          "velocity": 0.7480314960629921,
          "duration": 0.06249993749997884
        },
        {
          "name": "E7",
          "midi": 100,
          "time": 298.2291660562478,
          "velocity": 0.7480314960629921,
          "duration": 0.06249993749997884
        },
        {
          "name": "C4",
          "midi": 60,
          "time": 298.44345155624774,
          "velocity": 0.7480314960629921,
          "duration": 0.06249993749997884
        },
        {
          "name": "C#4",
          "midi": 61,
          "time": 298.44345155624774,
          "velocity": 0.7480314960629921,
          "duration": 0.06249993749997884
        },
        {
          "name": "D4",
          "midi": 62,
          "time": 298.44345155624774,
          "velocity": 0.7480314960629921,
          "duration": 0.06249993749997884
        },
        {
          "name": "C5",
          "midi": 72,
          "time": 298.44345155624774,
          "velocity": 0.7480314960629921,
          "duration": 0.06249993749997884
        },
        {
          "name": "C#5",
          "midi": 73,
          "time": 298.44345155624774,
          "velocity": 0.7480314960629921,
          "duration": 0.06249993749997884
        },
        {
          "name": "D5",
          "midi": 74,
          "time": 298.44345155624774,
          "velocity": 0.7480314960629921,
          "duration": 0.06249993749997884
        },
        {
          "name": "C6",
          "midi": 84,
          "time": 298.44345155624774,
          "velocity": 0.7480314960629921,
          "duration": 0.06249993749997884
        },
        {
          "name": "C#6",
          "midi": 85,
          "time": 298.44345155624774,
          "velocity": 0.7480314960629921,
          "duration": 0.06249993749997884
        },
        {
          "name": "D6",
          "midi": 86,
          "time": 298.44345155624774,
          "velocity": 0.7480314960629921,
          "duration": 0.06249993749997884
        },
        {
          "name": "C7",
          "midi": 96,
          "time": 298.44345155624774,
          "velocity": 0.7480314960629921,
          "duration": 0.06249993749997884
        },
        {
          "name": "C#7",
          "midi": 97,
          "time": 298.44345155624774,
          "velocity": 0.7480314960629921,
          "duration": 0.06249993749997884
        },
        {
          "name": "D7",
          "midi": 98,
          "time": 298.44345155624774,
          "velocity": 0.7480314960629921,
          "duration": 0.06249993749997884
        },
        {
          "name": "C4",
          "midi": 60,
          "time": 298.8720225562477,
          "velocity": 0.7480314960629921,
          "duration": 0.06249993749997884
        },
        {
          "name": "C#4",
          "midi": 61,
          "time": 298.8720225562477,
          "velocity": 0.7480314960629921,
          "duration": 0.06249993749997884
        },
        {
          "name": "D4",
          "midi": 62,
          "time": 298.8720225562477,
          "velocity": 0.7480314960629921,
          "duration": 0.06249993749997884
        },
        {
          "name": "C5",
          "midi": 72,
          "time": 298.8720225562477,
          "velocity": 0.7480314960629921,
          "duration": 0.06249993749997884
        },
        {
          "name": "C#5",
          "midi": 73,
          "time": 298.8720225562477,
          "velocity": 0.7480314960629921,
          "duration": 0.06249993749997884
        },
        {
          "name": "D5",
          "midi": 74,
          "time": 298.8720225562477,
          "velocity": 0.7480314960629921,
          "duration": 0.06249993749997884
        },
        {
          "name": "C6",
          "midi": 84,
          "time": 298.8720225562477,
          "velocity": 0.7480314960629921,
          "duration": 0.06249993749997884
        },
        {
          "name": "C#6",
          "midi": 85,
          "time": 298.8720225562477,
          "velocity": 0.7480314960629921,
          "duration": 0.06249993749997884
        },
        {
          "name": "D6",
          "midi": 86,
          "time": 298.8720225562477,
          "velocity": 0.7480314960629921,
          "duration": 0.06249993749997884
        },
        {
          "name": "C7",
          "midi": 96,
          "time": 298.8720225562477,
          "velocity": 0.7480314960629921,
          "duration": 0.06249993749997884
        },
        {
          "name": "C#7",
          "midi": 97,
          "time": 298.8720225562477,
          "velocity": 0.7480314960629921,
          "duration": 0.06249993749997884
        },
        {
          "name": "D7",
          "midi": 98,
          "time": 298.8720225562477,
          "velocity": 0.7480314960629921,
          "duration": 0.06249993749997884
        },
        {
          "name": "C4",
          "midi": 60,
          "time": 299.3005935562477,
          "velocity": 0.7480314960629921,
          "duration": 0.4285709999999767
        },
        {
          "name": "D4",
          "midi": 62,
          "time": 299.3005935562477,
          "velocity": 0.7480314960629921,
          "duration": 0.4285709999999767
        },
        {
          "name": "D#4",
          "midi": 63,
          "time": 299.3005935562477,
          "velocity": 0.7480314960629921,
          "duration": 0.4285709999999767
        },
        {
          "name": "C5",
          "midi": 72,
          "time": 299.3005935562477,
          "velocity": 0.7480314960629921,
          "duration": 0.4285709999999767
        },
        {
          "name": "D5",
          "midi": 74,
          "time": 299.3005935562477,
          "velocity": 0.7480314960629921,
          "duration": 0.4285709999999767
        },
        {
          "name": "D#5",
          "midi": 75,
          "time": 299.3005935562477,
          "velocity": 0.7480314960629921,
          "duration": 0.4285709999999767
        },
        {
          "name": "C6",
          "midi": 84,
          "time": 299.3005935562477,
          "velocity": 0.7480314960629921,
          "duration": 0.4285709999999767
        },
        {
          "name": "D6",
          "midi": 86,
          "time": 299.3005935562477,
          "velocity": 0.7480314960629921,
          "duration": 0.4285709999999767
        },
        {
          "name": "D#6",
          "midi": 87,
          "time": 299.3005935562477,
          "velocity": 0.7480314960629921,
          "duration": 0.4285709999999767
        },
        {
          "name": "C7",
          "midi": 96,
          "time": 299.3005935562477,
          "velocity": 0.7480314960629921,
          "duration": 0.4285709999999767
        },
        {
          "name": "D7",
          "midi": 98,
          "time": 299.3005935562477,
          "velocity": 0.7480314960629921,
          "duration": 0.4285709999999767
        },
        {
          "name": "D#7",
          "midi": 99,
          "time": 299.3005935562477,
          "velocity": 0.7480314960629921,
          "duration": 0.4285709999999767
        },
        {
          "name": "D#7",
          "midi": 99,
          "time": 299.72916455624767,
          "velocity": 0.7480314960629921,
          "duration": 0.06249993749997884
        },
        {
          "name": "D7",
          "midi": 98,
          "time": 299.72916455624767,
          "velocity": 0.7480314960629921,
          "duration": 0.06249993749997884
        },
        {
          "name": "C7",
          "midi": 96,
          "time": 299.72916455624767,
          "velocity": 0.7480314960629921,
          "duration": 0.06249993749997884
        },
        {
          "name": "D#6",
          "midi": 87,
          "time": 299.72916455624767,
          "velocity": 0.7480314960629921,
          "duration": 0.06249993749997884
        },
        {
          "name": "D6",
          "midi": 86,
          "time": 299.72916455624767,
          "velocity": 0.7480314960629921,
          "duration": 0.06249993749997884
        },
        {
          "name": "C6",
          "midi": 84,
          "time": 299.72916455624767,
          "velocity": 0.7480314960629921,
          "duration": 0.06249993749997884
        },
        {
          "name": "D#5",
          "midi": 75,
          "time": 299.72916455624767,
          "velocity": 0.7480314960629921,
          "duration": 0.06249993749997884
        },
        {
          "name": "D5",
          "midi": 74,
          "time": 299.72916455624767,
          "velocity": 0.7480314960629921,
          "duration": 0.06249993749997884
        },
        {
          "name": "C5",
          "midi": 72,
          "time": 299.72916455624767,
          "velocity": 0.7480314960629921,
          "duration": 0.06249993749997884
        },
        {
          "name": "D#4",
          "midi": 63,
          "time": 299.72916455624767,
          "velocity": 0.7480314960629921,
          "duration": 0.06249993749997884
        },
        {
          "name": "D4",
          "midi": 62,
          "time": 299.72916455624767,
          "velocity": 0.7480314960629921,
          "duration": 0.06249993749997884
        },
        {
          "name": "C4",
          "midi": 60,
          "time": 299.72916455624767,
          "velocity": 0.7480314960629921,
          "duration": 0.06249993749997884
        },
        {
          "name": "C4",
          "midi": 60,
          "time": 299.9434500562476,
          "velocity": 0.7480314960629921,
          "duration": 0.06249993749997884
        },
        {
          "name": "D4",
          "midi": 62,
          "time": 299.9434500562476,
          "velocity": 0.7480314960629921,
          "duration": 0.06249993749997884
        },
        {
          "name": "D#4",
          "midi": 63,
          "time": 299.9434500562476,
          "velocity": 0.7480314960629921,
          "duration": 0.06249993749997884
        },
        {
          "name": "C5",
          "midi": 72,
          "time": 299.9434500562476,
          "velocity": 0.7480314960629921,
          "duration": 0.06249993749997884
        },
        {
          "name": "D5",
          "midi": 74,
          "time": 299.9434500562476,
          "velocity": 0.7480314960629921,
          "duration": 0.06249993749997884
        },
        {
          "name": "D#5",
          "midi": 75,
          "time": 299.9434500562476,
          "velocity": 0.7480314960629921,
          "duration": 0.06249993749997884
        },
        {
          "name": "C6",
          "midi": 84,
          "time": 299.9434500562476,
          "velocity": 0.7480314960629921,
          "duration": 0.06249993749997884
        },
        {
          "name": "D6",
          "midi": 86,
          "time": 299.9434500562476,
          "velocity": 0.7480314960629921,
          "duration": 0.06249993749997884
        },
        {
          "name": "D#6",
          "midi": 87,
          "time": 299.9434500562476,
          "velocity": 0.7480314960629921,
          "duration": 0.06249993749997884
        },
        {
          "name": "C7",
          "midi": 96,
          "time": 299.9434500562476,
          "velocity": 0.7480314960629921,
          "duration": 0.06249993749997884
        },
        {
          "name": "D7",
          "midi": 98,
          "time": 299.9434500562476,
          "velocity": 0.7480314960629921,
          "duration": 0.06249993749997884
        },
        {
          "name": "D#7",
          "midi": 99,
          "time": 299.9434500562476,
          "velocity": 0.7480314960629921,
          "duration": 0.06249993749997884
        },
        {
          "name": "C#4",
          "midi": 61,
          "time": 300.3720210562476,
          "velocity": 0.7480314960629921,
          "duration": 0.21428550000001678
        },
        {
          "name": "D4",
          "midi": 62,
          "time": 300.3720210562476,
          "velocity": 0.7480314960629921,
          "duration": 0.21428550000001678
        },
        {
          "name": "D#4",
          "midi": 63,
          "time": 300.3720210562476,
          "velocity": 0.7480314960629921,
          "duration": 0.21428550000001678
        },
        {
          "name": "C#5",
          "midi": 73,
          "time": 300.3720210562476,
          "velocity": 0.7480314960629921,
          "duration": 0.21428550000001678
        },
        {
          "name": "D5",
          "midi": 74,
          "time": 300.3720210562476,
          "velocity": 0.7480314960629921,
          "duration": 0.21428550000001678
        },
        {
          "name": "D#5",
          "midi": 75,
          "time": 300.3720210562476,
          "velocity": 0.7480314960629921,
          "duration": 0.21428550000001678
        },
        {
          "name": "C#6",
          "midi": 85,
          "time": 300.3720210562476,
          "velocity": 0.7480314960629921,
          "duration": 0.21428550000001678
        },
        {
          "name": "D6",
          "midi": 86,
          "time": 300.3720210562476,
          "velocity": 0.7480314960629921,
          "duration": 0.21428550000001678
        },
        {
          "name": "D#6",
          "midi": 87,
          "time": 300.3720210562476,
          "velocity": 0.7480314960629921,
          "duration": 0.21428550000001678
        },
        {
          "name": "C#7",
          "midi": 97,
          "time": 300.3720210562476,
          "velocity": 0.7480314960629921,
          "duration": 0.21428550000001678
        },
        {
          "name": "D7",
          "midi": 98,
          "time": 300.3720210562476,
          "velocity": 0.7480314960629921,
          "duration": 0.21428550000001678
        },
        {
          "name": "D#7",
          "midi": 99,
          "time": 300.3720210562476,
          "velocity": 0.7480314960629921,
          "duration": 0.21428550000001678
        },
        {
          "name": "D#7",
          "midi": 99,
          "time": 300.5863065562476,
          "velocity": 0.7480314960629921,
          "duration": 0.06249993749997884
        },
        {
          "name": "D7",
          "midi": 98,
          "time": 300.5863065562476,
          "velocity": 0.7480314960629921,
          "duration": 0.06249993749997884
        },
        {
          "name": "C#7",
          "midi": 97,
          "time": 300.5863065562476,
          "velocity": 0.7480314960629921,
          "duration": 0.06249993749997884
        },
        {
          "name": "D#6",
          "midi": 87,
          "time": 300.5863065562476,
          "velocity": 0.7480314960629921,
          "duration": 0.06249993749997884
        },
        {
          "name": "D6",
          "midi": 86,
          "time": 300.5863065562476,
          "velocity": 0.7480314960629921,
          "duration": 0.06249993749997884
        },
        {
          "name": "C#6",
          "midi": 85,
          "time": 300.5863065562476,
          "velocity": 0.7480314960629921,
          "duration": 0.06249993749997884
        },
        {
          "name": "D#5",
          "midi": 75,
          "time": 300.5863065562476,
          "velocity": 0.7480314960629921,
          "duration": 0.06249993749997884
        },
        {
          "name": "D5",
          "midi": 74,
          "time": 300.5863065562476,
          "velocity": 0.7480314960629921,
          "duration": 0.06249993749997884
        },
        {
          "name": "C#5",
          "midi": 73,
          "time": 300.5863065562476,
          "velocity": 0.7480314960629921,
          "duration": 0.06249993749997884
        },
        {
          "name": "D#4",
          "midi": 63,
          "time": 300.5863065562476,
          "velocity": 0.7480314960629921,
          "duration": 0.06249993749997884
        },
        {
          "name": "D4",
          "midi": 62,
          "time": 300.5863065562476,
          "velocity": 0.7480314960629921,
          "duration": 0.06249993749997884
        },
        {
          "name": "C#4",
          "midi": 61,
          "time": 300.5863065562476,
          "velocity": 0.7480314960629921,
          "duration": 0.06249993749997884
        },
        {
          "name": "C#4",
          "midi": 61,
          "time": 301.0148775562476,
          "velocity": 0.7480314960629921,
          "duration": 0.4285709999999767
        },
        {
          "name": "D4",
          "midi": 62,
          "time": 301.0148775562476,
          "velocity": 0.7480314960629921,
          "duration": 0.4285709999999767
        },
        {
          "name": "D#4",
          "midi": 63,
          "time": 301.0148775562476,
          "velocity": 0.7480314960629921,
          "duration": 0.4285709999999767
        },
        {
          "name": "C#5",
          "midi": 73,
          "time": 301.0148775562476,
          "velocity": 0.7480314960629921,
          "duration": 0.4285709999999767
        },
        {
          "name": "D5",
          "midi": 74,
          "time": 301.0148775562476,
          "velocity": 0.7480314960629921,
          "duration": 0.4285709999999767
        },
        {
          "name": "D#5",
          "midi": 75,
          "time": 301.0148775562476,
          "velocity": 0.7480314960629921,
          "duration": 0.4285709999999767
        },
        {
          "name": "C#6",
          "midi": 85,
          "time": 301.0148775562476,
          "velocity": 0.7480314960629921,
          "duration": 0.4285709999999767
        },
        {
          "name": "D6",
          "midi": 86,
          "time": 301.0148775562476,
          "velocity": 0.7480314960629921,
          "duration": 0.4285709999999767
        },
        {
          "name": "D#6",
          "midi": 87,
          "time": 301.0148775562476,
          "velocity": 0.7480314960629921,
          "duration": 0.4285709999999767
        },
        {
          "name": "C#7",
          "midi": 97,
          "time": 301.0148775562476,
          "velocity": 0.7480314960629921,
          "duration": 0.4285709999999767
        },
        {
          "name": "D7",
          "midi": 98,
          "time": 301.0148775562476,
          "velocity": 0.7480314960629921,
          "duration": 0.4285709999999767
        },
        {
          "name": "D#7",
          "midi": 99,
          "time": 301.0148775562476,
          "velocity": 0.7480314960629921,
          "duration": 0.4285709999999767
        },
        {
          "name": "D#7",
          "midi": 99,
          "time": 301.4434485562476,
          "velocity": 0.7480314960629921,
          "duration": 0.06249993749997884
        },
        {
          "name": "D7",
          "midi": 98,
          "time": 301.4434485562476,
          "velocity": 0.7480314960629921,
          "duration": 0.06249993749997884
        },
        {
          "name": "C#7",
          "midi": 97,
          "time": 301.4434485562476,
          "velocity": 0.7480314960629921,
          "duration": 0.06249993749997884
        },
        {
          "name": "D#6",
          "midi": 87,
          "time": 301.4434485562476,
          "velocity": 0.7480314960629921,
          "duration": 0.06249993749997884
        },
        {
          "name": "D6",
          "midi": 86,
          "time": 301.4434485562476,
          "velocity": 0.7480314960629921,
          "duration": 0.06249993749997884
        },
        {
          "name": "C#6",
          "midi": 85,
          "time": 301.4434485562476,
          "velocity": 0.7480314960629921,
          "duration": 0.06249993749997884
        },
        {
          "name": "D#5",
          "midi": 75,
          "time": 301.4434485562476,
          "velocity": 0.7480314960629921,
          "duration": 0.06249993749997884
        },
        {
          "name": "D5",
          "midi": 74,
          "time": 301.4434485562476,
          "velocity": 0.7480314960629921,
          "duration": 0.06249993749997884
        },
        {
          "name": "C#5",
          "midi": 73,
          "time": 301.4434485562476,
          "velocity": 0.7480314960629921,
          "duration": 0.06249993749997884
        },
        {
          "name": "D#4",
          "midi": 63,
          "time": 301.4434485562476,
          "velocity": 0.7480314960629921,
          "duration": 0.06249993749997884
        },
        {
          "name": "D4",
          "midi": 62,
          "time": 301.4434485562476,
          "velocity": 0.7480314960629921,
          "duration": 0.06249993749997884
        },
        {
          "name": "C#4",
          "midi": 61,
          "time": 301.4434485562476,
          "velocity": 0.7480314960629921,
          "duration": 0.06249993749997884
        },
        {
          "name": "C#4",
          "midi": 61,
          "time": 301.65773405624753,
          "velocity": 0.7480314960629921,
          "duration": 0.06249993749997884
        },
        {
          "name": "D4",
          "midi": 62,
          "time": 301.65773405624753,
          "velocity": 0.7480314960629921,
          "duration": 0.06249993749997884
        },
        {
          "name": "D#4",
          "midi": 63,
          "time": 301.65773405624753,
          "velocity": 0.7480314960629921,
          "duration": 0.06249993749997884
        },
        {
          "name": "C#5",
          "midi": 73,
          "time": 301.65773405624753,
          "velocity": 0.7480314960629921,
          "duration": 0.06249993749997884
        },
        {
          "name": "D5",
          "midi": 74,
          "time": 301.65773405624753,
          "velocity": 0.7480314960629921,
          "duration": 0.06249993749997884
        },
        {
          "name": "D#5",
          "midi": 75,
          "time": 301.65773405624753,
          "velocity": 0.7480314960629921,
          "duration": 0.06249993749997884
        },
        {
          "name": "C#6",
          "midi": 85,
          "time": 301.65773405624753,
          "velocity": 0.7480314960629921,
          "duration": 0.06249993749997884
        },
        {
          "name": "D6",
          "midi": 86,
          "time": 301.65773405624753,
          "velocity": 0.7480314960629921,
          "duration": 0.06249993749997884
        },
        {
          "name": "D#6",
          "midi": 87,
          "time": 301.65773405624753,
          "velocity": 0.7480314960629921,
          "duration": 0.06249993749997884
        },
        {
          "name": "C#7",
          "midi": 97,
          "time": 301.65773405624753,
          "velocity": 0.7480314960629921,
          "duration": 0.06249993749997884
        },
        {
          "name": "D7",
          "midi": 98,
          "time": 301.65773405624753,
          "velocity": 0.7480314960629921,
          "duration": 0.06249993749997884
        },
        {
          "name": "D#7",
          "midi": 99,
          "time": 301.65773405624753,
          "velocity": 0.7480314960629921,
          "duration": 0.06249993749997884
        },
        {
          "name": "C4",
          "midi": 60,
          "time": 301.8211267499975,
          "velocity": 0.7480314960629921,
          "duration": 0.06249993749997884
        },
        {
          "name": "D4",
          "midi": 62,
          "time": 301.8211267499975,
          "velocity": 0.7480314960629921,
          "duration": 0.06249993749997884
        },
        {
          "name": "D#4",
          "midi": 63,
          "time": 301.8211267499975,
          "velocity": 0.7480314960629921,
          "duration": 0.06249993749997884
        },
        {
          "name": "C5",
          "midi": 72,
          "time": 301.8211267499975,
          "velocity": 0.7480314960629921,
          "duration": 0.06249993749997884
        },
        {
          "name": "D5",
          "midi": 74,
          "time": 301.8211267499975,
          "velocity": 0.7480314960629921,
          "duration": 0.06249993749997884
        },
        {
          "name": "D#5",
          "midi": 75,
          "time": 301.8211267499975,
          "velocity": 0.7480314960629921,
          "duration": 0.06249993749997884
        },
        {
          "name": "C6",
          "midi": 84,
          "time": 301.8211267499975,
          "velocity": 0.7480314960629921,
          "duration": 0.06249993749997884
        },
        {
          "name": "D6",
          "midi": 86,
          "time": 301.8211267499975,
          "velocity": 0.7480314960629921,
          "duration": 0.06249993749997884
        },
        {
          "name": "D#6",
          "midi": 87,
          "time": 301.8211267499975,
          "velocity": 0.7480314960629921,
          "duration": 0.06249993749997884
        },
        {
          "name": "C7",
          "midi": 96,
          "time": 301.8211267499975,
          "velocity": 0.7480314960629921,
          "duration": 0.06249993749997884
        },
        {
          "name": "D7",
          "midi": 98,
          "time": 301.8211267499975,
          "velocity": 0.7480314960629921,
          "duration": 0.06249993749997884
        },
        {
          "name": "D#7",
          "midi": 99,
          "time": 301.8211267499975,
          "velocity": 0.7480314960629921,
          "duration": 0.06249993749997884
        },
        {
          "name": "C4",
          "midi": 60,
          "time": 302.2496977499975,
          "velocity": 0.7480314960629921,
          "duration": 0.06249993749997884
        },
        {
          "name": "D4",
          "midi": 62,
          "time": 302.2496977499975,
          "velocity": 0.7480314960629921,
          "duration": 0.06249993749997884
        },
        {
          "name": "D#4",
          "midi": 63,
          "time": 302.2496977499975,
          "velocity": 0.7480314960629921,
          "duration": 0.06249993749997884
        },
        {
          "name": "C5",
          "midi": 72,
          "time": 302.2496977499975,
          "velocity": 0.7480314960629921,
          "duration": 0.06249993749997884
        },
        {
          "name": "D5",
          "midi": 74,
          "time": 302.2496977499975,
          "velocity": 0.7480314960629921,
          "duration": 0.06249993749997884
        },
        {
          "name": "D#5",
          "midi": 75,
          "time": 302.2496977499975,
          "velocity": 0.7480314960629921,
          "duration": 0.06249993749997884
        },
        {
          "name": "C6",
          "midi": 84,
          "time": 302.2496977499975,
          "velocity": 0.7480314960629921,
          "duration": 0.06249993749997884
        },
        {
          "name": "D6",
          "midi": 86,
          "time": 302.2496977499975,
          "velocity": 0.7480314960629921,
          "duration": 0.06249993749997884
        },
        {
          "name": "D#6",
          "midi": 87,
          "time": 302.2496977499975,
          "velocity": 0.7480314960629921,
          "duration": 0.06249993749997884
        },
        {
          "name": "C7",
          "midi": 96,
          "time": 302.2496977499975,
          "velocity": 0.7480314960629921,
          "duration": 0.06249993749997884
        },
        {
          "name": "D7",
          "midi": 98,
          "time": 302.2496977499975,
          "velocity": 0.7480314960629921,
          "duration": 0.06249993749997884
        },
        {
          "name": "D#7",
          "midi": 99,
          "time": 302.2496977499975,
          "velocity": 0.7480314960629921,
          "duration": 0.06249993749997884
        },
        {
          "name": "C4",
          "midi": 60,
          "time": 302.67826874999747,
          "velocity": 0.7480314960629921,
          "duration": 0.4285709999999767
        },
        {
          "name": "D4",
          "midi": 62,
          "time": 302.67826874999747,
          "velocity": 0.7480314960629921,
          "duration": 0.4285709999999767
        },
        {
          "name": "D#4",
          "midi": 63,
          "time": 302.67826874999747,
          "velocity": 0.7480314960629921,
          "duration": 0.4285709999999767
        },
        {
          "name": "C5",
          "midi": 72,
          "time": 302.67826874999747,
          "velocity": 0.7480314960629921,
          "duration": 0.4285709999999767
        },
        {
          "name": "D5",
          "midi": 74,
          "time": 302.67826874999747,
          "velocity": 0.7480314960629921,
          "duration": 0.4285709999999767
        },
        {
          "name": "D#5",
          "midi": 75,
          "time": 302.67826874999747,
          "velocity": 0.7480314960629921,
          "duration": 0.4285709999999767
        },
        {
          "name": "C6",
          "midi": 84,
          "time": 302.67826874999747,
          "velocity": 0.7480314960629921,
          "duration": 0.4285709999999767
        },
        {
          "name": "D6",
          "midi": 86,
          "time": 302.67826874999747,
          "velocity": 0.7480314960629921,
          "duration": 0.4285709999999767
        },
        {
          "name": "D#6",
          "midi": 87,
          "time": 302.67826874999747,
          "velocity": 0.7480314960629921,
          "duration": 0.4285709999999767
        },
        {
          "name": "C7",
          "midi": 96,
          "time": 302.67826874999747,
          "velocity": 0.7480314960629921,
          "duration": 0.4285709999999767
        },
        {
          "name": "D7",
          "midi": 98,
          "time": 302.67826874999747,
          "velocity": 0.7480314960629921,
          "duration": 0.4285709999999767
        },
        {
          "name": "D#7",
          "midi": 99,
          "time": 302.67826874999747,
          "velocity": 0.7480314960629921,
          "duration": 0.4285709999999767
        },
        {
          "name": "D#7",
          "midi": 99,
          "time": 303.10683974999745,
          "velocity": 0.7480314960629921,
          "duration": 0.06249993749997884
        },
        {
          "name": "D7",
          "midi": 98,
          "time": 303.10683974999745,
          "velocity": 0.7480314960629921,
          "duration": 0.06249993749997884
        },
        {
          "name": "C7",
          "midi": 96,
          "time": 303.10683974999745,
          "velocity": 0.7480314960629921,
          "duration": 0.06249993749997884
        },
        {
          "name": "D#6",
          "midi": 87,
          "time": 303.10683974999745,
          "velocity": 0.7480314960629921,
          "duration": 0.06249993749997884
        },
        {
          "name": "D6",
          "midi": 86,
          "time": 303.10683974999745,
          "velocity": 0.7480314960629921,
          "duration": 0.06249993749997884
        },
        {
          "name": "C6",
          "midi": 84,
          "time": 303.10683974999745,
          "velocity": 0.7480314960629921,
          "duration": 0.06249993749997884
        },
        {
          "name": "D#5",
          "midi": 75,
          "time": 303.10683974999745,
          "velocity": 0.7480314960629921,
          "duration": 0.06249993749997884
        },
        {
          "name": "D5",
          "midi": 74,
          "time": 303.10683974999745,
          "velocity": 0.7480314960629921,
          "duration": 0.06249993749997884
        },
        {
          "name": "C5",
          "midi": 72,
          "time": 303.10683974999745,
          "velocity": 0.7480314960629921,
          "duration": 0.06249993749997884
        },
        {
          "name": "D#4",
          "midi": 63,
          "time": 303.10683974999745,
          "velocity": 0.7480314960629921,
          "duration": 0.06249993749997884
        },
        {
          "name": "D4",
          "midi": 62,
          "time": 303.10683974999745,
          "velocity": 0.7480314960629921,
          "duration": 0.06249993749997884
        },
        {
          "name": "C4",
          "midi": 60,
          "time": 303.10683974999745,
          "velocity": 0.7480314960629921,
          "duration": 0.06249993749997884
        },
        {
          "name": "C4",
          "midi": 60,
          "time": 303.3211252499974,
          "velocity": 0.7480314960629921,
          "duration": 0.06249993749997884
        },
        {
          "name": "D4",
          "midi": 62,
          "time": 303.3211252499974,
          "velocity": 0.7480314960629921,
          "duration": 0.06249993749997884
        },
        {
          "name": "D#4",
          "midi": 63,
          "time": 303.3211252499974,
          "velocity": 0.7480314960629921,
          "duration": 0.06249993749997884
        },
        {
          "name": "C5",
          "midi": 72,
          "time": 303.3211252499974,
          "velocity": 0.7480314960629921,
          "duration": 0.06249993749997884
        },
        {
          "name": "D5",
          "midi": 74,
          "time": 303.3211252499974,
          "velocity": 0.7480314960629921,
          "duration": 0.06249993749997884
        },
        {
          "name": "D#5",
          "midi": 75,
          "time": 303.3211252499974,
          "velocity": 0.7480314960629921,
          "duration": 0.06249993749997884
        },
        {
          "name": "C6",
          "midi": 84,
          "time": 303.3211252499974,
          "velocity": 0.7480314960629921,
          "duration": 0.06249993749997884
        },
        {
          "name": "D6",
          "midi": 86,
          "time": 303.3211252499974,
          "velocity": 0.7480314960629921,
          "duration": 0.06249993749997884
        },
        {
          "name": "D#6",
          "midi": 87,
          "time": 303.3211252499974,
          "velocity": 0.7480314960629921,
          "duration": 0.06249993749997884
        },
        {
          "name": "C7",
          "midi": 96,
          "time": 303.3211252499974,
          "velocity": 0.7480314960629921,
          "duration": 0.06249993749997884
        },
        {
          "name": "D7",
          "midi": 98,
          "time": 303.3211252499974,
          "velocity": 0.7480314960629921,
          "duration": 0.06249993749997884
        },
        {
          "name": "D#7",
          "midi": 99,
          "time": 303.3211252499974,
          "velocity": 0.7480314960629921,
          "duration": 0.06249993749997884
        },
        {
          "name": "C4",
          "midi": 60,
          "time": 303.7496962499974,
          "velocity": 0.7480314960629921,
          "duration": 0.06249993749997884
        },
        {
          "name": "D4",
          "midi": 62,
          "time": 303.7496962499974,
          "velocity": 0.7480314960629921,
          "duration": 0.06249993749997884
        },
        {
          "name": "D#4",
          "midi": 63,
          "time": 303.7496962499974,
          "velocity": 0.7480314960629921,
          "duration": 0.06249993749997884
        },
        {
          "name": "C5",
          "midi": 72,
          "time": 303.7496962499974,
          "velocity": 0.7480314960629921,
          "duration": 0.06249993749997884
        },
        {
          "name": "D5",
          "midi": 74,
          "time": 303.7496962499974,
          "velocity": 0.7480314960629921,
          "duration": 0.06249993749997884
        },
        {
          "name": "D#5",
          "midi": 75,
          "time": 303.7496962499974,
          "velocity": 0.7480314960629921,
          "duration": 0.06249993749997884
        },
        {
          "name": "C6",
          "midi": 84,
          "time": 303.7496962499974,
          "velocity": 0.7480314960629921,
          "duration": 0.06249993749997884
        },
        {
          "name": "D6",
          "midi": 86,
          "time": 303.7496962499974,
          "velocity": 0.7480314960629921,
          "duration": 0.06249993749997884
        },
        {
          "name": "D#6",
          "midi": 87,
          "time": 303.7496962499974,
          "velocity": 0.7480314960629921,
          "duration": 0.06249993749997884
        },
        {
          "name": "C7",
          "midi": 96,
          "time": 303.7496962499974,
          "velocity": 0.7480314960629921,
          "duration": 0.06249993749997884
        },
        {
          "name": "D7",
          "midi": 98,
          "time": 303.7496962499974,
          "velocity": 0.7480314960629921,
          "duration": 0.06249993749997884
        },
        {
          "name": "D#7",
          "midi": 99,
          "time": 303.7496962499974,
          "velocity": 0.7480314960629921,
          "duration": 0.06249993749997884
        },
        {
          "name": "C4",
          "midi": 60,
          "time": 303.96398174999734,
          "velocity": 0.7480314960629921,
          "duration": 0.06249993749997884
        },
        {
          "name": "D4",
          "midi": 62,
          "time": 303.96398174999734,
          "velocity": 0.7480314960629921,
          "duration": 0.06249993749997884
        },
        {
          "name": "D#4",
          "midi": 63,
          "time": 303.96398174999734,
          "velocity": 0.7480314960629921,
          "duration": 0.06249993749997884
        },
        {
          "name": "C5",
          "midi": 72,
          "time": 303.96398174999734,
          "velocity": 0.7480314960629921,
          "duration": 0.06249993749997884
        },
        {
          "name": "D5",
          "midi": 74,
          "time": 303.96398174999734,
          "velocity": 0.7480314960629921,
          "duration": 0.06249993749997884
        },
        {
          "name": "D#5",
          "midi": 75,
          "time": 303.96398174999734,
          "velocity": 0.7480314960629921,
          "duration": 0.06249993749997884
        },
        {
          "name": "C6",
          "midi": 84,
          "time": 303.96398174999734,
          "velocity": 0.7480314960629921,
          "duration": 0.06249993749997884
        },
        {
          "name": "D6",
          "midi": 86,
          "time": 303.96398174999734,
          "velocity": 0.7480314960629921,
          "duration": 0.06249993749997884
        },
        {
          "name": "D#6",
          "midi": 87,
          "time": 303.96398174999734,
          "velocity": 0.7480314960629921,
          "duration": 0.06249993749997884
        },
        {
          "name": "C7",
          "midi": 96,
          "time": 303.96398174999734,
          "velocity": 0.7480314960629921,
          "duration": 0.06249993749997884
        },
        {
          "name": "D7",
          "midi": 98,
          "time": 303.96398174999734,
          "velocity": 0.7480314960629921,
          "duration": 0.06249993749997884
        },
        {
          "name": "D#7",
          "midi": 99,
          "time": 303.96398174999734,
          "velocity": 0.7480314960629921,
          "duration": 0.06249993749997884
        },
        {
          "name": "C4",
          "midi": 60,
          "time": 304.3925527499973,
          "velocity": 0.7480314960629921,
          "duration": 0.4285709999999767
        },
        {
          "name": "D4",
          "midi": 62,
          "time": 304.3925527499973,
          "velocity": 0.7480314960629921,
          "duration": 0.4285709999999767
        },
        {
          "name": "D#4",
          "midi": 63,
          "time": 304.3925527499973,
          "velocity": 0.7480314960629921,
          "duration": 0.4285709999999767
        },
        {
          "name": "C5",
          "midi": 72,
          "time": 304.3925527499973,
          "velocity": 0.7480314960629921,
          "duration": 0.4285709999999767
        },
        {
          "name": "D5",
          "midi": 74,
          "time": 304.3925527499973,
          "velocity": 0.7480314960629921,
          "duration": 0.4285709999999767
        },
        {
          "name": "D#5",
          "midi": 75,
          "time": 304.3925527499973,
          "velocity": 0.7480314960629921,
          "duration": 0.4285709999999767
        },
        {
          "name": "C6",
          "midi": 84,
          "time": 304.3925527499973,
          "velocity": 0.7480314960629921,
          "duration": 0.4285709999999767
        },
        {
          "name": "D6",
          "midi": 86,
          "time": 304.3925527499973,
          "velocity": 0.7480314960629921,
          "duration": 0.4285709999999767
        },
        {
          "name": "D#6",
          "midi": 87,
          "time": 304.3925527499973,
          "velocity": 0.7480314960629921,
          "duration": 0.4285709999999767
        },
        {
          "name": "C7",
          "midi": 96,
          "time": 304.3925527499973,
          "velocity": 0.7480314960629921,
          "duration": 0.4285709999999767
        },
        {
          "name": "D7",
          "midi": 98,
          "time": 304.3925527499973,
          "velocity": 0.7480314960629921,
          "duration": 0.4285709999999767
        },
        {
          "name": "D#7",
          "midi": 99,
          "time": 304.3925527499973,
          "velocity": 0.7480314960629921,
          "duration": 0.4285709999999767
        },
        {
          "name": "D#7",
          "midi": 99,
          "time": 304.8211237499973,
          "velocity": 0.7480314960629921,
          "duration": 0.06249993749997884
        },
        {
          "name": "D7",
          "midi": 98,
          "time": 304.8211237499973,
          "velocity": 0.7480314960629921,
          "duration": 0.06249993749997884
        },
        {
          "name": "C7",
          "midi": 96,
          "time": 304.8211237499973,
          "velocity": 0.7480314960629921,
          "duration": 0.06249993749997884
        },
        {
          "name": "D#6",
          "midi": 87,
          "time": 304.8211237499973,
          "velocity": 0.7480314960629921,
          "duration": 0.06249993749997884
        },
        {
          "name": "D6",
          "midi": 86,
          "time": 304.8211237499973,
          "velocity": 0.7480314960629921,
          "duration": 0.06249993749997884
        },
        {
          "name": "C6",
          "midi": 84,
          "time": 304.8211237499973,
          "velocity": 0.7480314960629921,
          "duration": 0.06249993749997884
        },
        {
          "name": "D#5",
          "midi": 75,
          "time": 304.8211237499973,
          "velocity": 0.7480314960629921,
          "duration": 0.06249993749997884
        },
        {
          "name": "D5",
          "midi": 74,
          "time": 304.8211237499973,
          "velocity": 0.7480314960629921,
          "duration": 0.06249993749997884
        },
        {
          "name": "C5",
          "midi": 72,
          "time": 304.8211237499973,
          "velocity": 0.7480314960629921,
          "duration": 0.06249993749997884
        },
        {
          "name": "D#4",
          "midi": 63,
          "time": 304.8211237499973,
          "velocity": 0.7480314960629921,
          "duration": 0.06249993749997884
        },
        {
          "name": "D4",
          "midi": 62,
          "time": 304.8211237499973,
          "velocity": 0.7480314960629921,
          "duration": 0.06249993749997884
        },
        {
          "name": "C4",
          "midi": 60,
          "time": 304.8211237499973,
          "velocity": 0.7480314960629921,
          "duration": 0.06249993749997884
        },
        {
          "name": "C4",
          "midi": 60,
          "time": 305.03540924999726,
          "velocity": 0.7480314960629921,
          "duration": 0.06249993749997884
        },
        {
          "name": "D4",
          "midi": 62,
          "time": 305.03540924999726,
          "velocity": 0.7480314960629921,
          "duration": 0.06249993749997884
        },
        {
          "name": "D#4",
          "midi": 63,
          "time": 305.03540924999726,
          "velocity": 0.7480314960629921,
          "duration": 0.06249993749997884
        },
        {
          "name": "C5",
          "midi": 72,
          "time": 305.03540924999726,
          "velocity": 0.7480314960629921,
          "duration": 0.06249993749997884
        },
        {
          "name": "D5",
          "midi": 74,
          "time": 305.03540924999726,
          "velocity": 0.7480314960629921,
          "duration": 0.06249993749997884
        },
        {
          "name": "D#5",
          "midi": 75,
          "time": 305.03540924999726,
          "velocity": 0.7480314960629921,
          "duration": 0.06249993749997884
        },
        {
          "name": "C6",
          "midi": 84,
          "time": 305.03540924999726,
          "velocity": 0.7480314960629921,
          "duration": 0.06249993749997884
        },
        {
          "name": "D6",
          "midi": 86,
          "time": 305.03540924999726,
          "velocity": 0.7480314960629921,
          "duration": 0.06249993749997884
        },
        {
          "name": "D#6",
          "midi": 87,
          "time": 305.03540924999726,
          "velocity": 0.7480314960629921,
          "duration": 0.06249993749997884
        },
        {
          "name": "C7",
          "midi": 96,
          "time": 305.03540924999726,
          "velocity": 0.7480314960629921,
          "duration": 0.06249993749997884
        },
        {
          "name": "D7",
          "midi": 98,
          "time": 305.03540924999726,
          "velocity": 0.7480314960629921,
          "duration": 0.06249993749997884
        },
        {
          "name": "D#7",
          "midi": 99,
          "time": 305.03540924999726,
          "velocity": 0.7480314960629921,
          "duration": 0.06249993749997884
        },
        {
          "name": "C4",
          "midi": 60,
          "time": 305.2496947499972,
          "velocity": 0.7480314960629921,
          "duration": 0.06249993749997884
        },
        {
          "name": "D4",
          "midi": 62,
          "time": 305.2496947499972,
          "velocity": 0.7480314960629921,
          "duration": 0.06249993749997884
        },
        {
          "name": "D#4",
          "midi": 63,
          "time": 305.2496947499972,
          "velocity": 0.7480314960629921,
          "duration": 0.06249993749997884
        },
        {
          "name": "C5",
          "midi": 72,
          "time": 305.2496947499972,
          "velocity": 0.7480314960629921,
          "duration": 0.06249993749997884
        },
        {
          "name": "D5",
          "midi": 74,
          "time": 305.2496947499972,
          "velocity": 0.7480314960629921,
          "duration": 0.06249993749997884
        },
        {
          "name": "D#5",
          "midi": 75,
          "time": 305.2496947499972,
          "velocity": 0.7480314960629921,
          "duration": 0.06249993749997884
        },
        {
          "name": "C6",
          "midi": 84,
          "time": 305.2496947499972,
          "velocity": 0.7480314960629921,
          "duration": 0.06249993749997884
        },
        {
          "name": "D6",
          "midi": 86,
          "time": 305.2496947499972,
          "velocity": 0.7480314960629921,
          "duration": 0.06249993749997884
        },
        {
          "name": "D#6",
          "midi": 87,
          "time": 305.2496947499972,
          "velocity": 0.7480314960629921,
          "duration": 0.06249993749997884
        },
        {
          "name": "C7",
          "midi": 96,
          "time": 305.2496947499972,
          "velocity": 0.7480314960629921,
          "duration": 0.06249993749997884
        },
        {
          "name": "D7",
          "midi": 98,
          "time": 305.2496947499972,
          "velocity": 0.7480314960629921,
          "duration": 0.06249993749997884
        },
        {
          "name": "D#7",
          "midi": 99,
          "time": 305.2496947499972,
          "velocity": 0.7480314960629921,
          "duration": 0.06249993749997884
        },
        {
          "name": "C4",
          "midi": 60,
          "time": 305.6782657499972,
          "velocity": 0.7480314960629921,
          "duration": 0.06249993749997884
        },
        {
          "name": "D4",
          "midi": 62,
          "time": 305.6782657499972,
          "velocity": 0.7480314960629921,
          "duration": 0.06249993749997884
        },
        {
          "name": "D#4",
          "midi": 63,
          "time": 305.6782657499972,
          "velocity": 0.7480314960629921,
          "duration": 0.06249993749997884
        },
        {
          "name": "C5",
          "midi": 72,
          "time": 305.6782657499972,
          "velocity": 0.7480314960629921,
          "duration": 0.06249993749997884
        },
        {
          "name": "D5",
          "midi": 74,
          "time": 305.6782657499972,
          "velocity": 0.7480314960629921,
          "duration": 0.06249993749997884
        },
        {
          "name": "D#5",
          "midi": 75,
          "time": 305.6782657499972,
          "velocity": 0.7480314960629921,
          "duration": 0.06249993749997884
        },
        {
          "name": "C6",
          "midi": 84,
          "time": 305.6782657499972,
          "velocity": 0.7480314960629921,
          "duration": 0.06249993749997884
        },
        {
          "name": "D6",
          "midi": 86,
          "time": 305.6782657499972,
          "velocity": 0.7480314960629921,
          "duration": 0.06249993749997884
        },
        {
          "name": "D#6",
          "midi": 87,
          "time": 305.6782657499972,
          "velocity": 0.7480314960629921,
          "duration": 0.06249993749997884
        },
        {
          "name": "C7",
          "midi": 96,
          "time": 305.6782657499972,
          "velocity": 0.7480314960629921,
          "duration": 0.06249993749997884
        },
        {
          "name": "D7",
          "midi": 98,
          "time": 305.6782657499972,
          "velocity": 0.7480314960629921,
          "duration": 0.06249993749997884
        },
        {
          "name": "D#7",
          "midi": 99,
          "time": 305.6782657499972,
          "velocity": 0.7480314960629921,
          "duration": 0.06249993749997884
        },
        {
          "name": "C4",
          "midi": 60,
          "time": 306.10683674999717,
          "velocity": 0.7480314960629921,
          "duration": 0.4285709999999767
        },
        {
          "name": "D4",
          "midi": 62,
          "time": 306.10683674999717,
          "velocity": 0.7480314960629921,
          "duration": 0.4285709999999767
        },
        {
          "name": "D#4",
          "midi": 63,
          "time": 306.10683674999717,
          "velocity": 0.7480314960629921,
          "duration": 0.4285709999999767
        },
        {
          "name": "C5",
          "midi": 72,
          "time": 306.10683674999717,
          "velocity": 0.7480314960629921,
          "duration": 0.4285709999999767
        },
        {
          "name": "D5",
          "midi": 74,
          "time": 306.10683674999717,
          "velocity": 0.7480314960629921,
          "duration": 0.4285709999999767
        },
        {
          "name": "D#5",
          "midi": 75,
          "time": 306.10683674999717,
          "velocity": 0.7480314960629921,
          "duration": 0.4285709999999767
        },
        {
          "name": "C6",
          "midi": 84,
          "time": 306.10683674999717,
          "velocity": 0.7480314960629921,
          "duration": 0.4285709999999767
        },
        {
          "name": "D6",
          "midi": 86,
          "time": 306.10683674999717,
          "velocity": 0.7480314960629921,
          "duration": 0.4285709999999767
        },
        {
          "name": "D#6",
          "midi": 87,
          "time": 306.10683674999717,
          "velocity": 0.7480314960629921,
          "duration": 0.4285709999999767
        },
        {
          "name": "C7",
          "midi": 96,
          "time": 306.10683674999717,
          "velocity": 0.7480314960629921,
          "duration": 0.4285709999999767
        },
        {
          "name": "D7",
          "midi": 98,
          "time": 306.10683674999717,
          "velocity": 0.7480314960629921,
          "duration": 0.4285709999999767
        },
        {
          "name": "D#7",
          "midi": 99,
          "time": 306.10683674999717,
          "velocity": 0.7480314960629921,
          "duration": 0.4285709999999767
        },
        {
          "name": "D#7",
          "midi": 99,
          "time": 306.53540774999715,
          "velocity": 0.7480314960629921,
          "duration": 0.06249993749997884
        },
        {
          "name": "D7",
          "midi": 98,
          "time": 306.53540774999715,
          "velocity": 0.7480314960629921,
          "duration": 0.06249993749997884
        },
        {
          "name": "C7",
          "midi": 96,
          "time": 306.53540774999715,
          "velocity": 0.7480314960629921,
          "duration": 0.06249993749997884
        },
        {
          "name": "D#6",
          "midi": 87,
          "time": 306.53540774999715,
          "velocity": 0.7480314960629921,
          "duration": 0.06249993749997884
        },
        {
          "name": "D6",
          "midi": 86,
          "time": 306.53540774999715,
          "velocity": 0.7480314960629921,
          "duration": 0.06249993749997884
        },
        {
          "name": "C6",
          "midi": 84,
          "time": 306.53540774999715,
          "velocity": 0.7480314960629921,
          "duration": 0.06249993749997884
        },
        {
          "name": "D#5",
          "midi": 75,
          "time": 306.53540774999715,
          "velocity": 0.7480314960629921,
          "duration": 0.06249993749997884
        },
        {
          "name": "D5",
          "midi": 74,
          "time": 306.53540774999715,
          "velocity": 0.7480314960629921,
          "duration": 0.06249993749997884
        },
        {
          "name": "C5",
          "midi": 72,
          "time": 306.53540774999715,
          "velocity": 0.7480314960629921,
          "duration": 0.06249993749997884
        },
        {
          "name": "D#4",
          "midi": 63,
          "time": 306.53540774999715,
          "velocity": 0.7480314960629921,
          "duration": 0.06249993749997884
        },
        {
          "name": "D4",
          "midi": 62,
          "time": 306.53540774999715,
          "velocity": 0.7480314960629921,
          "duration": 0.06249993749997884
        },
        {
          "name": "C4",
          "midi": 60,
          "time": 306.53540774999715,
          "velocity": 0.7480314960629921,
          "duration": 0.06249993749997884
        },
        {
          "name": "C4",
          "midi": 60,
          "time": 306.7496932499971,
          "velocity": 0.7480314960629921,
          "duration": 0.06249993749997884
        },
        {
          "name": "D4",
          "midi": 62,
          "time": 306.7496932499971,
          "velocity": 0.7480314960629921,
          "duration": 0.06249993749997884
        },
        {
          "name": "D#4",
          "midi": 63,
          "time": 306.7496932499971,
          "velocity": 0.7480314960629921,
          "duration": 0.06249993749997884
        },
        {
          "name": "C5",
          "midi": 72,
          "time": 306.7496932499971,
          "velocity": 0.7480314960629921,
          "duration": 0.06249993749997884
        },
        {
          "name": "D5",
          "midi": 74,
          "time": 306.7496932499971,
          "velocity": 0.7480314960629921,
          "duration": 0.06249993749997884
        },
        {
          "name": "D#5",
          "midi": 75,
          "time": 306.7496932499971,
          "velocity": 0.7480314960629921,
          "duration": 0.06249993749997884
        },
        {
          "name": "C6",
          "midi": 84,
          "time": 306.7496932499971,
          "velocity": 0.7480314960629921,
          "duration": 0.06249993749997884
        },
        {
          "name": "D6",
          "midi": 86,
          "time": 306.7496932499971,
          "velocity": 0.7480314960629921,
          "duration": 0.06249993749997884
        },
        {
          "name": "D#6",
          "midi": 87,
          "time": 306.7496932499971,
          "velocity": 0.7480314960629921,
          "duration": 0.06249993749997884
        },
        {
          "name": "C7",
          "midi": 96,
          "time": 306.7496932499971,
          "velocity": 0.7480314960629921,
          "duration": 0.06249993749997884
        },
        {
          "name": "D7",
          "midi": 98,
          "time": 306.7496932499971,
          "velocity": 0.7480314960629921,
          "duration": 0.06249993749997884
        },
        {
          "name": "D#7",
          "midi": 99,
          "time": 306.7496932499971,
          "velocity": 0.7480314960629921,
          "duration": 0.06249993749997884
        },
        {
          "name": "C4",
          "midi": 60,
          "time": 307.1782642499971,
          "velocity": 0.7480314960629921,
          "duration": 0.06249993749997884
        },
        {
          "name": "D4",
          "midi": 62,
          "time": 307.1782642499971,
          "velocity": 0.7480314960629921,
          "duration": 0.06249993749997884
        },
        {
          "name": "D#4",
          "midi": 63,
          "time": 307.1782642499971,
          "velocity": 0.7480314960629921,
          "duration": 0.06249993749997884
        },
        {
          "name": "C5",
          "midi": 72,
          "time": 307.1782642499971,
          "velocity": 0.7480314960629921,
          "duration": 0.06249993749997884
        },
        {
          "name": "D5",
          "midi": 74,
          "time": 307.1782642499971,
          "velocity": 0.7480314960629921,
          "duration": 0.06249993749997884
        },
        {
          "name": "D#5",
          "midi": 75,
          "time": 307.1782642499971,
          "velocity": 0.7480314960629921,
          "duration": 0.06249993749997884
        },
        {
          "name": "C6",
          "midi": 84,
          "time": 307.1782642499971,
          "velocity": 0.7480314960629921,
          "duration": 0.06249993749997884
        },
        {
          "name": "D6",
          "midi": 86,
          "time": 307.1782642499971,
          "velocity": 0.7480314960629921,
          "duration": 0.06249993749997884
        },
        {
          "name": "D#6",
          "midi": 87,
          "time": 307.1782642499971,
          "velocity": 0.7480314960629921,
          "duration": 0.06249993749997884
        },
        {
          "name": "C7",
          "midi": 96,
          "time": 307.1782642499971,
          "velocity": 0.7480314960629921,
          "duration": 0.06249993749997884
        },
        {
          "name": "D7",
          "midi": 98,
          "time": 307.1782642499971,
          "velocity": 0.7480314960629921,
          "duration": 0.06249993749997884
        },
        {
          "name": "D#7",
          "midi": 99,
          "time": 307.1782642499971,
          "velocity": 0.7480314960629921,
          "duration": 0.06249993749997884
        },
        {
          "name": "C4",
          "midi": 60,
          "time": 307.39254974999704,
          "velocity": 0.7480314960629921,
          "duration": 0.06249993749997884
        },
        {
          "name": "D4",
          "midi": 62,
          "time": 307.39254974999704,
          "velocity": 0.7480314960629921,
          "duration": 0.06249993749997884
        },
        {
          "name": "D#4",
          "midi": 63,
          "time": 307.39254974999704,
          "velocity": 0.7480314960629921,
          "duration": 0.06249993749997884
        },
        {
          "name": "C5",
          "midi": 72,
          "time": 307.39254974999704,
          "velocity": 0.7480314960629921,
          "duration": 0.06249993749997884
        },
        {
          "name": "D5",
          "midi": 74,
          "time": 307.39254974999704,
          "velocity": 0.7480314960629921,
          "duration": 0.06249993749997884
        },
        {
          "name": "D#5",
          "midi": 75,
          "time": 307.39254974999704,
          "velocity": 0.7480314960629921,
          "duration": 0.06249993749997884
        },
        {
          "name": "C6",
          "midi": 84,
          "time": 307.39254974999704,
          "velocity": 0.7480314960629921,
          "duration": 0.06249993749997884
        },
        {
          "name": "D6",
          "midi": 86,
          "time": 307.39254974999704,
          "velocity": 0.7480314960629921,
          "duration": 0.06249993749997884
        },
        {
          "name": "D#6",
          "midi": 87,
          "time": 307.39254974999704,
          "velocity": 0.7480314960629921,
          "duration": 0.06249993749997884
        },
        {
          "name": "C7",
          "midi": 96,
          "time": 307.39254974999704,
          "velocity": 0.7480314960629921,
          "duration": 0.06249993749997884
        },
        {
          "name": "D7",
          "midi": 98,
          "time": 307.39254974999704,
          "velocity": 0.7480314960629921,
          "duration": 0.06249993749997884
        },
        {
          "name": "D#7",
          "midi": 99,
          "time": 307.39254974999704,
          "velocity": 0.7480314960629921,
          "duration": 0.06249993749997884
        },
        {
          "name": "C4",
          "midi": 60,
          "time": 307.821120749997,
          "velocity": 0.7480314960629921,
          "duration": 0.4285709999999767
        },
        {
          "name": "D4",
          "midi": 62,
          "time": 307.821120749997,
          "velocity": 0.7480314960629921,
          "duration": 0.4285709999999767
        },
        {
          "name": "D#4",
          "midi": 63,
          "time": 307.821120749997,
          "velocity": 0.7480314960629921,
          "duration": 0.4285709999999767
        },
        {
          "name": "C5",
          "midi": 72,
          "time": 307.821120749997,
          "velocity": 0.7480314960629921,
          "duration": 0.4285709999999767
        },
        {
          "name": "D5",
          "midi": 74,
          "time": 307.821120749997,
          "velocity": 0.7480314960629921,
          "duration": 0.4285709999999767
        },
        {
          "name": "D#5",
          "midi": 75,
          "time": 307.821120749997,
          "velocity": 0.7480314960629921,
          "duration": 0.4285709999999767
        },
        {
          "name": "C6",
          "midi": 84,
          "time": 307.821120749997,
          "velocity": 0.7480314960629921,
          "duration": 0.4285709999999767
        },
        {
          "name": "D6",
          "midi": 86,
          "time": 307.821120749997,
          "velocity": 0.7480314960629921,
          "duration": 0.4285709999999767
        },
        {
          "name": "D#6",
          "midi": 87,
          "time": 307.821120749997,
          "velocity": 0.7480314960629921,
          "duration": 0.4285709999999767
        },
        {
          "name": "C7",
          "midi": 96,
          "time": 307.821120749997,
          "velocity": 0.7480314960629921,
          "duration": 0.4285709999999767
        },
        {
          "name": "D7",
          "midi": 98,
          "time": 307.821120749997,
          "velocity": 0.7480314960629921,
          "duration": 0.4285709999999767
        },
        {
          "name": "D#7",
          "midi": 99,
          "time": 307.821120749997,
          "velocity": 0.7480314960629921,
          "duration": 0.4285709999999767
        },
        {
          "name": "D#7",
          "midi": 99,
          "time": 308.249691749997,
          "velocity": 0.7480314960629921,
          "duration": 0.06249993749997884
        },
        {
          "name": "D7",
          "midi": 98,
          "time": 308.249691749997,
          "velocity": 0.7480314960629921,
          "duration": 0.06249993749997884
        },
        {
          "name": "C7",
          "midi": 96,
          "time": 308.249691749997,
          "velocity": 0.7480314960629921,
          "duration": 0.06249993749997884
        },
        {
          "name": "D#6",
          "midi": 87,
          "time": 308.249691749997,
          "velocity": 0.7480314960629921,
          "duration": 0.06249993749997884
        },
        {
          "name": "D6",
          "midi": 86,
          "time": 308.249691749997,
          "velocity": 0.7480314960629921,
          "duration": 0.06249993749997884
        },
        {
          "name": "C6",
          "midi": 84,
          "time": 308.249691749997,
          "velocity": 0.7480314960629921,
          "duration": 0.06249993749997884
        },
        {
          "name": "D#5",
          "midi": 75,
          "time": 308.249691749997,
          "velocity": 0.7480314960629921,
          "duration": 0.06249993749997884
        },
        {
          "name": "D5",
          "midi": 74,
          "time": 308.249691749997,
          "velocity": 0.7480314960629921,
          "duration": 0.06249993749997884
        },
        {
          "name": "C5",
          "midi": 72,
          "time": 308.249691749997,
          "velocity": 0.7480314960629921,
          "duration": 0.06249993749997884
        },
        {
          "name": "D#4",
          "midi": 63,
          "time": 308.249691749997,
          "velocity": 0.7480314960629921,
          "duration": 0.06249993749997884
        },
        {
          "name": "D4",
          "midi": 62,
          "time": 308.249691749997,
          "velocity": 0.7480314960629921,
          "duration": 0.06249993749997884
        },
        {
          "name": "C4",
          "midi": 60,
          "time": 308.249691749997,
          "velocity": 0.7480314960629921,
          "duration": 0.06249993749997884
        },
        {
          "name": "C4",
          "midi": 60,
          "time": 308.46397724999696,
          "velocity": 0.7480314960629921,
          "duration": 0.06249993749997884
        },
        {
          "name": "D4",
          "midi": 62,
          "time": 308.46397724999696,
          "velocity": 0.7480314960629921,
          "duration": 0.06249993749997884
        },
        {
          "name": "D#4",
          "midi": 63,
          "time": 308.46397724999696,
          "velocity": 0.7480314960629921,
          "duration": 0.06249993749997884
        },
        {
          "name": "C5",
          "midi": 72,
          "time": 308.46397724999696,
          "velocity": 0.7480314960629921,
          "duration": 0.06249993749997884
        },
        {
          "name": "D5",
          "midi": 74,
          "time": 308.46397724999696,
          "velocity": 0.7480314960629921,
          "duration": 0.06249993749997884
        },
        {
          "name": "D#5",
          "midi": 75,
          "time": 308.46397724999696,
          "velocity": 0.7480314960629921,
          "duration": 0.06249993749997884
        },
        {
          "name": "C6",
          "midi": 84,
          "time": 308.46397724999696,
          "velocity": 0.7480314960629921,
          "duration": 0.06249993749997884
        },
        {
          "name": "D6",
          "midi": 86,
          "time": 308.46397724999696,
          "velocity": 0.7480314960629921,
          "duration": 0.06249993749997884
        },
        {
          "name": "D#6",
          "midi": 87,
          "time": 308.46397724999696,
          "velocity": 0.7480314960629921,
          "duration": 0.06249993749997884
        },
        {
          "name": "C7",
          "midi": 96,
          "time": 308.46397724999696,
          "velocity": 0.7480314960629921,
          "duration": 0.06249993749997884
        },
        {
          "name": "D7",
          "midi": 98,
          "time": 308.46397724999696,
          "velocity": 0.7480314960629921,
          "duration": 0.06249993749997884
        },
        {
          "name": "D#7",
          "midi": 99,
          "time": 308.46397724999696,
          "velocity": 0.7480314960629921,
          "duration": 0.06249993749997884
        },
        {
          "name": "C#4",
          "midi": 61,
          "time": 308.72915555624695,
          "velocity": 0.7480314960629921,
          "duration": 0.06249993749997884
        },
        {
          "name": "D#4",
          "midi": 63,
          "time": 308.72915555624695,
          "velocity": 0.7480314960629921,
          "duration": 0.06249993749997884
        },
        {
          "name": "E4",
          "midi": 64,
          "time": 308.72915555624695,
          "velocity": 0.7480314960629921,
          "duration": 0.06249993749997884
        },
        {
          "name": "C#5",
          "midi": 73,
          "time": 308.72915555624695,
          "velocity": 0.7480314960629921,
          "duration": 0.06249993749997884
        },
        {
          "name": "D#5",
          "midi": 75,
          "time": 308.72915555624695,
          "velocity": 0.7480314960629921,
          "duration": 0.06249993749997884
        },
        {
          "name": "E5",
          "midi": 76,
          "time": 308.72915555624695,
          "velocity": 0.7480314960629921,
          "duration": 0.06249993749997884
        },
        {
          "name": "C#6",
          "midi": 85,
          "time": 308.72915555624695,
          "velocity": 0.7480314960629921,
          "duration": 0.06249993749997884
        },
        {
          "name": "D#6",
          "midi": 87,
          "time": 308.72915555624695,
          "velocity": 0.7480314960629921,
          "duration": 0.06249993749997884
        },
        {
          "name": "E6",
          "midi": 88,
          "time": 308.72915555624695,
          "velocity": 0.7480314960629921,
          "duration": 0.06249993749997884
        },
        {
          "name": "C#7",
          "midi": 97,
          "time": 308.72915555624695,
          "velocity": 0.7480314960629921,
          "duration": 0.06249993749997884
        },
        {
          "name": "D#7",
          "midi": 99,
          "time": 308.72915555624695,
          "velocity": 0.7480314960629921,
          "duration": 0.06249993749997884
        },
        {
          "name": "E7",
          "midi": 100,
          "time": 308.72915555624695,
          "velocity": 0.7480314960629921,
          "duration": 0.06249993749997884
        },
        {
          "name": "C#4",
          "midi": 61,
          "time": 309.1577265562469,
          "velocity": 0.7480314960629921,
          "duration": 0.06249993749997884
        },
        {
          "name": "D#4",
          "midi": 63,
          "time": 309.1577265562469,
          "velocity": 0.7480314960629921,
          "duration": 0.06249993749997884
        },
        {
          "name": "E4",
          "midi": 64,
          "time": 309.1577265562469,
          "velocity": 0.7480314960629921,
          "duration": 0.06249993749997884
        },
        {
          "name": "C#5",
          "midi": 73,
          "time": 309.1577265562469,
          "velocity": 0.7480314960629921,
          "duration": 0.06249993749997884
        },
        {
          "name": "D#5",
          "midi": 75,
          "time": 309.1577265562469,
          "velocity": 0.7480314960629921,
          "duration": 0.06249993749997884
        },
        {
          "name": "E5",
          "midi": 76,
          "time": 309.1577265562469,
          "velocity": 0.7480314960629921,
          "duration": 0.06249993749997884
        },
        {
          "name": "C#6",
          "midi": 85,
          "time": 309.1577265562469,
          "velocity": 0.7480314960629921,
          "duration": 0.06249993749997884
        },
        {
          "name": "D#6",
          "midi": 87,
          "time": 309.1577265562469,
          "velocity": 0.7480314960629921,
          "duration": 0.06249993749997884
        },
        {
          "name": "E6",
          "midi": 88,
          "time": 309.1577265562469,
          "velocity": 0.7480314960629921,
          "duration": 0.06249993749997884
        },
        {
          "name": "C#7",
          "midi": 97,
          "time": 309.1577265562469,
          "velocity": 0.7480314960629921,
          "duration": 0.06249993749997884
        },
        {
          "name": "D#7",
          "midi": 99,
          "time": 309.1577265562469,
          "velocity": 0.7480314960629921,
          "duration": 0.06249993749997884
        },
        {
          "name": "E7",
          "midi": 100,
          "time": 309.1577265562469,
          "velocity": 0.7480314960629921,
          "duration": 0.06249993749997884
        },
        {
          "name": "C#4",
          "midi": 61,
          "time": 309.5862975562469,
          "velocity": 0.7480314960629921,
          "duration": 0.4285709999999767
        },
        {
          "name": "D#4",
          "midi": 63,
          "time": 309.5862975562469,
          "velocity": 0.7480314960629921,
          "duration": 0.4285709999999767
        },
        {
          "name": "E4",
          "midi": 64,
          "time": 309.5862975562469,
          "velocity": 0.7480314960629921,
          "duration": 0.4285709999999767
        },
        {
          "name": "C#5",
          "midi": 73,
          "time": 309.5862975562469,
          "velocity": 0.7480314960629921,
          "duration": 0.4285709999999767
        },
        {
          "name": "D#5",
          "midi": 75,
          "time": 309.5862975562469,
          "velocity": 0.7480314960629921,
          "duration": 0.4285709999999767
        },
        {
          "name": "E5",
          "midi": 76,
          "time": 309.5862975562469,
          "velocity": 0.7480314960629921,
          "duration": 0.4285709999999767
        },
        {
          "name": "C#6",
          "midi": 85,
          "time": 309.5862975562469,
          "velocity": 0.7480314960629921,
          "duration": 0.4285709999999767
        },
        {
          "name": "D#6",
          "midi": 87,
          "time": 309.5862975562469,
          "velocity": 0.7480314960629921,
          "duration": 0.4285709999999767
        },
        {
          "name": "E6",
          "midi": 88,
          "time": 309.5862975562469,
          "velocity": 0.7480314960629921,
          "duration": 0.4285709999999767
        },
        {
          "name": "C#7",
          "midi": 97,
          "time": 309.5862975562469,
          "velocity": 0.7480314960629921,
          "duration": 0.4285709999999767
        },
        {
          "name": "D#7",
          "midi": 99,
          "time": 309.5862975562469,
          "velocity": 0.7480314960629921,
          "duration": 0.4285709999999767
        },
        {
          "name": "E7",
          "midi": 100,
          "time": 309.5862975562469,
          "velocity": 0.7480314960629921,
          "duration": 0.4285709999999767
        },
        {
          "name": "E7",
          "midi": 100,
          "time": 310.0148685562469,
          "velocity": 0.7480314960629921,
          "duration": 0.06249993749997884
        },
        {
          "name": "D#7",
          "midi": 99,
          "time": 310.0148685562469,
          "velocity": 0.7480314960629921,
          "duration": 0.06249993749997884
        },
        {
          "name": "C#7",
          "midi": 97,
          "time": 310.0148685562469,
          "velocity": 0.7480314960629921,
          "duration": 0.06249993749997884
        },
        {
          "name": "E6",
          "midi": 88,
          "time": 310.0148685562469,
          "velocity": 0.7480314960629921,
          "duration": 0.06249993749997884
        },
        {
          "name": "D#6",
          "midi": 87,
          "time": 310.0148685562469,
          "velocity": 0.7480314960629921,
          "duration": 0.06249993749997884
        },
        {
          "name": "C#6",
          "midi": 85,
          "time": 310.0148685562469,
          "velocity": 0.7480314960629921,
          "duration": 0.06249993749997884
        },
        {
          "name": "E5",
          "midi": 76,
          "time": 310.0148685562469,
          "velocity": 0.7480314960629921,
          "duration": 0.06249993749997884
        },
        {
          "name": "D#5",
          "midi": 75,
          "time": 310.0148685562469,
          "velocity": 0.7480314960629921,
          "duration": 0.06249993749997884
        },
        {
          "name": "C#5",
          "midi": 73,
          "time": 310.0148685562469,
          "velocity": 0.7480314960629921,
          "duration": 0.06249993749997884
        },
        {
          "name": "E4",
          "midi": 64,
          "time": 310.0148685562469,
          "velocity": 0.7480314960629921,
          "duration": 0.06249993749997884
        },
        {
          "name": "D#4",
          "midi": 63,
          "time": 310.0148685562469,
          "velocity": 0.7480314960629921,
          "duration": 0.06249993749997884
        },
        {
          "name": "C#4",
          "midi": 61,
          "time": 310.0148685562469,
          "velocity": 0.7480314960629921,
          "duration": 0.06249993749997884
        },
        {
          "name": "C#4",
          "midi": 61,
          "time": 310.22915405624684,
          "velocity": 0.7480314960629921,
          "duration": 0.06249993749997884
        },
        {
          "name": "D#4",
          "midi": 63,
          "time": 310.22915405624684,
          "velocity": 0.7480314960629921,
          "duration": 0.06249993749997884
        },
        {
          "name": "E4",
          "midi": 64,
          "time": 310.22915405624684,
          "velocity": 0.7480314960629921,
          "duration": 0.06249993749997884
        },
        {
          "name": "C#5",
          "midi": 73,
          "time": 310.22915405624684,
          "velocity": 0.7480314960629921,
          "duration": 0.06249993749997884
        },
        {
          "name": "D#5",
          "midi": 75,
          "time": 310.22915405624684,
          "velocity": 0.7480314960629921,
          "duration": 0.06249993749997884
        },
        {
          "name": "E5",
          "midi": 76,
          "time": 310.22915405624684,
          "velocity": 0.7480314960629921,
          "duration": 0.06249993749997884
        },
        {
          "name": "C#6",
          "midi": 85,
          "time": 310.22915405624684,
          "velocity": 0.7480314960629921,
          "duration": 0.06249993749997884
        },
        {
          "name": "D#6",
          "midi": 87,
          "time": 310.22915405624684,
          "velocity": 0.7480314960629921,
          "duration": 0.06249993749997884
        },
        {
          "name": "E6",
          "midi": 88,
          "time": 310.22915405624684,
          "velocity": 0.7480314960629921,
          "duration": 0.06249993749997884
        },
        {
          "name": "C#7",
          "midi": 97,
          "time": 310.22915405624684,
          "velocity": 0.7480314960629921,
          "duration": 0.06249993749997884
        },
        {
          "name": "D#7",
          "midi": 99,
          "time": 310.22915405624684,
          "velocity": 0.7480314960629921,
          "duration": 0.06249993749997884
        },
        {
          "name": "E7",
          "midi": 100,
          "time": 310.22915405624684,
          "velocity": 0.7480314960629921,
          "duration": 0.06249993749997884
        },
        {
          "name": "C#4",
          "midi": 61,
          "time": 310.6577250562468,
          "velocity": 0.7480314960629921,
          "duration": 0.06249993749997884
        },
        {
          "name": "D#4",
          "midi": 63,
          "time": 310.6577250562468,
          "velocity": 0.7480314960629921,
          "duration": 0.06249993749997884
        },
        {
          "name": "E4",
          "midi": 64,
          "time": 310.6577250562468,
          "velocity": 0.7480314960629921,
          "duration": 0.06249993749997884
        },
        {
          "name": "C#5",
          "midi": 73,
          "time": 310.6577250562468,
          "velocity": 0.7480314960629921,
          "duration": 0.06249993749997884
        },
        {
          "name": "D#5",
          "midi": 75,
          "time": 310.6577250562468,
          "velocity": 0.7480314960629921,
          "duration": 0.06249993749997884
        },
        {
          "name": "E5",
          "midi": 76,
          "time": 310.6577250562468,
          "velocity": 0.7480314960629921,
          "duration": 0.06249993749997884
        },
        {
          "name": "C#6",
          "midi": 85,
          "time": 310.6577250562468,
          "velocity": 0.7480314960629921,
          "duration": 0.06249993749997884
        },
        {
          "name": "D#6",
          "midi": 87,
          "time": 310.6577250562468,
          "velocity": 0.7480314960629921,
          "duration": 0.06249993749997884
        },
        {
          "name": "E6",
          "midi": 88,
          "time": 310.6577250562468,
          "velocity": 0.7480314960629921,
          "duration": 0.06249993749997884
        },
        {
          "name": "C#7",
          "midi": 97,
          "time": 310.6577250562468,
          "velocity": 0.7480314960629921,
          "duration": 0.06249993749997884
        },
        {
          "name": "D#7",
          "midi": 99,
          "time": 310.6577250562468,
          "velocity": 0.7480314960629921,
          "duration": 0.06249993749997884
        },
        {
          "name": "E7",
          "midi": 100,
          "time": 310.6577250562468,
          "velocity": 0.7480314960629921,
          "duration": 0.06249993749997884
        },
        {
          "name": "C#4",
          "midi": 61,
          "time": 310.8720105562468,
          "velocity": 0.7480314960629921,
          "duration": 0.06249993749997884
        },
        {
          "name": "D#4",
          "midi": 63,
          "time": 310.8720105562468,
          "velocity": 0.7480314960629921,
          "duration": 0.06249993749997884
        },
        {
          "name": "E4",
          "midi": 64,
          "time": 310.8720105562468,
          "velocity": 0.7480314960629921,
          "duration": 0.06249993749997884
        },
        {
          "name": "C#5",
          "midi": 73,
          "time": 310.8720105562468,
          "velocity": 0.7480314960629921,
          "duration": 0.06249993749997884
        },
        {
          "name": "D#5",
          "midi": 75,
          "time": 310.8720105562468,
          "velocity": 0.7480314960629921,
          "duration": 0.06249993749997884
        },
        {
          "name": "E5",
          "midi": 76,
          "time": 310.8720105562468,
          "velocity": 0.7480314960629921,
          "duration": 0.06249993749997884
        },
        {
          "name": "C#6",
          "midi": 85,
          "time": 310.8720105562468,
          "velocity": 0.7480314960629921,
          "duration": 0.06249993749997884
        },
        {
          "name": "D#6",
          "midi": 87,
          "time": 310.8720105562468,
          "velocity": 0.7480314960629921,
          "duration": 0.06249993749997884
        },
        {
          "name": "E6",
          "midi": 88,
          "time": 310.8720105562468,
          "velocity": 0.7480314960629921,
          "duration": 0.06249993749997884
        },
        {
          "name": "C#7",
          "midi": 97,
          "time": 310.8720105562468,
          "velocity": 0.7480314960629921,
          "duration": 0.06249993749997884
        },
        {
          "name": "D#7",
          "midi": 99,
          "time": 310.8720105562468,
          "velocity": 0.7480314960629921,
          "duration": 0.06249993749997884
        },
        {
          "name": "E7",
          "midi": 100,
          "time": 310.8720105562468,
          "velocity": 0.7480314960629921,
          "duration": 0.06249993749997884
        },
        {
          "name": "C#4",
          "midi": 61,
          "time": 311.30058155624675,
          "velocity": 0.7480314960629921,
          "duration": 0.4285709999999767
        },
        {
          "name": "D#4",
          "midi": 63,
          "time": 311.30058155624675,
          "velocity": 0.7480314960629921,
          "duration": 0.4285709999999767
        },
        {
          "name": "E4",
          "midi": 64,
          "time": 311.30058155624675,
          "velocity": 0.7480314960629921,
          "duration": 0.4285709999999767
        },
        {
          "name": "C#5",
          "midi": 73,
          "time": 311.30058155624675,
          "velocity": 0.7480314960629921,
          "duration": 0.4285709999999767
        },
        {
          "name": "D#5",
          "midi": 75,
          "time": 311.30058155624675,
          "velocity": 0.7480314960629921,
          "duration": 0.4285709999999767
        },
        {
          "name": "E5",
          "midi": 76,
          "time": 311.30058155624675,
          "velocity": 0.7480314960629921,
          "duration": 0.4285709999999767
        },
        {
          "name": "C#6",
          "midi": 85,
          "time": 311.30058155624675,
          "velocity": 0.7480314960629921,
          "duration": 0.4285709999999767
        },
        {
          "name": "D#6",
          "midi": 87,
          "time": 311.30058155624675,
          "velocity": 0.7480314960629921,
          "duration": 0.4285709999999767
        },
        {
          "name": "E6",
          "midi": 88,
          "time": 311.30058155624675,
          "velocity": 0.7480314960629921,
          "duration": 0.4285709999999767
        },
        {
          "name": "C#7",
          "midi": 97,
          "time": 311.30058155624675,
          "velocity": 0.7480314960629921,
          "duration": 0.4285709999999767
        },
        {
          "name": "D#7",
          "midi": 99,
          "time": 311.30058155624675,
          "velocity": 0.7480314960629921,
          "duration": 0.4285709999999767
        },
        {
          "name": "E7",
          "midi": 100,
          "time": 311.30058155624675,
          "velocity": 0.7480314960629921,
          "duration": 0.4285709999999767
        },
        {
          "name": "E7",
          "midi": 100,
          "time": 311.72915255624673,
          "velocity": 0.7480314960629921,
          "duration": 0.06249993749997884
        },
        {
          "name": "D#7",
          "midi": 99,
          "time": 311.72915255624673,
          "velocity": 0.7480314960629921,
          "duration": 0.06249993749997884
        },
        {
          "name": "C#7",
          "midi": 97,
          "time": 311.72915255624673,
          "velocity": 0.7480314960629921,
          "duration": 0.06249993749997884
        },
        {
          "name": "E6",
          "midi": 88,
          "time": 311.72915255624673,
          "velocity": 0.7480314960629921,
          "duration": 0.06249993749997884
        },
        {
          "name": "D#6",
          "midi": 87,
          "time": 311.72915255624673,
          "velocity": 0.7480314960629921,
          "duration": 0.06249993749997884
        },
        {
          "name": "C#6",
          "midi": 85,
          "time": 311.72915255624673,
          "velocity": 0.7480314960629921,
          "duration": 0.06249993749997884
        },
        {
          "name": "E5",
          "midi": 76,
          "time": 311.72915255624673,
          "velocity": 0.7480314960629921,
          "duration": 0.06249993749997884
        },
        {
          "name": "D#5",
          "midi": 75,
          "time": 311.72915255624673,
          "velocity": 0.7480314960629921,
          "duration": 0.06249993749997884
        },
        {
          "name": "C#5",
          "midi": 73,
          "time": 311.72915255624673,
          "velocity": 0.7480314960629921,
          "duration": 0.06249993749997884
        },
        {
          "name": "E4",
          "midi": 64,
          "time": 311.72915255624673,
          "velocity": 0.7480314960629921,
          "duration": 0.06249993749997884
        },
        {
          "name": "D#4",
          "midi": 63,
          "time": 311.72915255624673,
          "velocity": 0.7480314960629921,
          "duration": 0.06249993749997884
        },
        {
          "name": "C#4",
          "midi": 61,
          "time": 311.72915255624673,
          "velocity": 0.7480314960629921,
          "duration": 0.06249993749997884
        },
        {
          "name": "C#4",
          "midi": 61,
          "time": 311.9434380562467,
          "velocity": 0.7480314960629921,
          "duration": 0.06249993749997884
        },
        {
          "name": "D#4",
          "midi": 63,
          "time": 311.9434380562467,
          "velocity": 0.7480314960629921,
          "duration": 0.06249993749997884
        },
        {
          "name": "E4",
          "midi": 64,
          "time": 311.9434380562467,
          "velocity": 0.7480314960629921,
          "duration": 0.06249993749997884
        },
        {
          "name": "C#5",
          "midi": 73,
          "time": 311.9434380562467,
          "velocity": 0.7480314960629921,
          "duration": 0.06249993749997884
        },
        {
          "name": "D#5",
          "midi": 75,
          "time": 311.9434380562467,
          "velocity": 0.7480314960629921,
          "duration": 0.06249993749997884
        },
        {
          "name": "E5",
          "midi": 76,
          "time": 311.9434380562467,
          "velocity": 0.7480314960629921,
          "duration": 0.06249993749997884
        },
        {
          "name": "C#6",
          "midi": 85,
          "time": 311.9434380562467,
          "velocity": 0.7480314960629921,
          "duration": 0.06249993749997884
        },
        {
          "name": "D#6",
          "midi": 87,
          "time": 311.9434380562467,
          "velocity": 0.7480314960629921,
          "duration": 0.06249993749997884
        },
        {
          "name": "E6",
          "midi": 88,
          "time": 311.9434380562467,
          "velocity": 0.7480314960629921,
          "duration": 0.06249993749997884
        },
        {
          "name": "C#7",
          "midi": 97,
          "time": 311.9434380562467,
          "velocity": 0.7480314960629921,
          "duration": 0.06249993749997884
        },
        {
          "name": "D#7",
          "midi": 99,
          "time": 311.9434380562467,
          "velocity": 0.7480314960629921,
          "duration": 0.06249993749997884
        },
        {
          "name": "E7",
          "midi": 100,
          "time": 311.9434380562467,
          "velocity": 0.7480314960629921,
          "duration": 0.06249993749997884
        },
        {
          "name": "C4",
          "midi": 60,
          "time": 312.15772355624665,
          "velocity": 0.7480314960629921,
          "duration": 0.06249993749997884
        },
        {
          "name": "D4",
          "midi": 62,
          "time": 312.15772355624665,
          "velocity": 0.7480314960629921,
          "duration": 0.06249993749997884
        },
        {
          "name": "D#4",
          "midi": 63,
          "time": 312.15772355624665,
          "velocity": 0.7480314960629921,
          "duration": 0.06249993749997884
        },
        {
          "name": "C5",
          "midi": 72,
          "time": 312.15772355624665,
          "velocity": 0.7480314960629921,
          "duration": 0.06249993749997884
        },
        {
          "name": "D5",
          "midi": 74,
          "time": 312.15772355624665,
          "velocity": 0.7480314960629921,
          "duration": 0.06249993749997884
        },
        {
          "name": "D#5",
          "midi": 75,
          "time": 312.15772355624665,
          "velocity": 0.7480314960629921,
          "duration": 0.06249993749997884
        },
        {
          "name": "C6",
          "midi": 84,
          "time": 312.15772355624665,
          "velocity": 0.7480314960629921,
          "duration": 0.06249993749997884
        },
        {
          "name": "D6",
          "midi": 86,
          "time": 312.15772355624665,
          "velocity": 0.7480314960629921,
          "duration": 0.06249993749997884
        },
        {
          "name": "D#6",
          "midi": 87,
          "time": 312.15772355624665,
          "velocity": 0.7480314960629921,
          "duration": 0.06249993749997884
        },
        {
          "name": "C7",
          "midi": 96,
          "time": 312.15772355624665,
          "velocity": 0.7480314960629921,
          "duration": 0.06249993749997884
        },
        {
          "name": "D7",
          "midi": 98,
          "time": 312.15772355624665,
          "velocity": 0.7480314960629921,
          "duration": 0.06249993749997884
        },
        {
          "name": "D#7",
          "midi": 99,
          "time": 312.15772355624665,
          "velocity": 0.7480314960629921,
          "duration": 0.06249993749997884
        },
        {
          "name": "C4",
          "midi": 60,
          "time": 312.5862945562466,
          "velocity": 0.7480314960629921,
          "duration": 0.06249993749997884
        },
        {
          "name": "D4",
          "midi": 62,
          "time": 312.5862945562466,
          "velocity": 0.7480314960629921,
          "duration": 0.06249993749997884
        },
        {
          "name": "D#4",
          "midi": 63,
          "time": 312.5862945562466,
          "velocity": 0.7480314960629921,
          "duration": 0.06249993749997884
        },
        {
          "name": "C5",
          "midi": 72,
          "time": 312.5862945562466,
          "velocity": 0.7480314960629921,
          "duration": 0.06249993749997884
        },
        {
          "name": "D5",
          "midi": 74,
          "time": 312.5862945562466,
          "velocity": 0.7480314960629921,
          "duration": 0.06249993749997884
        },
        {
          "name": "D#5",
          "midi": 75,
          "time": 312.5862945562466,
          "velocity": 0.7480314960629921,
          "duration": 0.06249993749997884
        },
        {
          "name": "C6",
          "midi": 84,
          "time": 312.5862945562466,
          "velocity": 0.7480314960629921,
          "duration": 0.06249993749997884
        },
        {
          "name": "D6",
          "midi": 86,
          "time": 312.5862945562466,
          "velocity": 0.7480314960629921,
          "duration": 0.06249993749997884
        },
        {
          "name": "D#6",
          "midi": 87,
          "time": 312.5862945562466,
          "velocity": 0.7480314960629921,
          "duration": 0.06249993749997884
        },
        {
          "name": "C7",
          "midi": 96,
          "time": 312.5862945562466,
          "velocity": 0.7480314960629921,
          "duration": 0.06249993749997884
        },
        {
          "name": "D7",
          "midi": 98,
          "time": 312.5862945562466,
          "velocity": 0.7480314960629921,
          "duration": 0.06249993749997884
        },
        {
          "name": "D#7",
          "midi": 99,
          "time": 312.5862945562466,
          "velocity": 0.7480314960629921,
          "duration": 0.06249993749997884
        },
        {
          "name": "C4",
          "midi": 60,
          "time": 313.0148655562466,
          "velocity": 0.7480314960629921,
          "duration": 0.4285709999999767
        },
        {
          "name": "D4",
          "midi": 62,
          "time": 313.0148655562466,
          "velocity": 0.7480314960629921,
          "duration": 0.4285709999999767
        },
        {
          "name": "D#4",
          "midi": 63,
          "time": 313.0148655562466,
          "velocity": 0.7480314960629921,
          "duration": 0.4285709999999767
        },
        {
          "name": "C5",
          "midi": 72,
          "time": 313.0148655562466,
          "velocity": 0.7480314960629921,
          "duration": 0.4285709999999767
        },
        {
          "name": "D5",
          "midi": 74,
          "time": 313.0148655562466,
          "velocity": 0.7480314960629921,
          "duration": 0.4285709999999767
        },
        {
          "name": "D#5",
          "midi": 75,
          "time": 313.0148655562466,
          "velocity": 0.7480314960629921,
          "duration": 0.4285709999999767
        },
        {
          "name": "C6",
          "midi": 84,
          "time": 313.0148655562466,
          "velocity": 0.7480314960629921,
          "duration": 0.4285709999999767
        },
        {
          "name": "D6",
          "midi": 86,
          "time": 313.0148655562466,
          "velocity": 0.7480314960629921,
          "duration": 0.4285709999999767
        },
        {
          "name": "D#6",
          "midi": 87,
          "time": 313.0148655562466,
          "velocity": 0.7480314960629921,
          "duration": 0.4285709999999767
        },
        {
          "name": "C7",
          "midi": 96,
          "time": 313.0148655562466,
          "velocity": 0.7480314960629921,
          "duration": 0.4285709999999767
        },
        {
          "name": "D7",
          "midi": 98,
          "time": 313.0148655562466,
          "velocity": 0.7480314960629921,
          "duration": 0.4285709999999767
        },
        {
          "name": "D#7",
          "midi": 99,
          "time": 313.0148655562466,
          "velocity": 0.7480314960629921,
          "duration": 0.4285709999999767
        },
        {
          "name": "D#7",
          "midi": 99,
          "time": 313.4434365562466,
          "velocity": 0.7480314960629921,
          "duration": 0.06249993749997884
        },
        {
          "name": "D7",
          "midi": 98,
          "time": 313.4434365562466,
          "velocity": 0.7480314960629921,
          "duration": 0.06249993749997884
        },
        {
          "name": "C7",
          "midi": 96,
          "time": 313.4434365562466,
          "velocity": 0.7480314960629921,
          "duration": 0.06249993749997884
        },
        {
          "name": "D#6",
          "midi": 87,
          "time": 313.4434365562466,
          "velocity": 0.7480314960629921,
          "duration": 0.06249993749997884
        },
        {
          "name": "D6",
          "midi": 86,
          "time": 313.4434365562466,
          "velocity": 0.7480314960629921,
          "duration": 0.06249993749997884
        },
        {
          "name": "C6",
          "midi": 84,
          "time": 313.4434365562466,
          "velocity": 0.7480314960629921,
          "duration": 0.06249993749997884
        },
        {
          "name": "D#5",
          "midi": 75,
          "time": 313.4434365562466,
          "velocity": 0.7480314960629921,
          "duration": 0.06249993749997884
        },
        {
          "name": "D5",
          "midi": 74,
          "time": 313.4434365562466,
          "velocity": 0.7480314960629921,
          "duration": 0.06249993749997884
        },
        {
          "name": "C5",
          "midi": 72,
          "time": 313.4434365562466,
          "velocity": 0.7480314960629921,
          "duration": 0.06249993749997884
        },
        {
          "name": "D#4",
          "midi": 63,
          "time": 313.4434365562466,
          "velocity": 0.7480314960629921,
          "duration": 0.06249993749997884
        },
        {
          "name": "D4",
          "midi": 62,
          "time": 313.4434365562466,
          "velocity": 0.7480314960629921,
          "duration": 0.06249993749997884
        },
        {
          "name": "C4",
          "midi": 60,
          "time": 313.4434365562466,
          "velocity": 0.7480314960629921,
          "duration": 0.06249993749997884
        },
        {
          "name": "C4",
          "midi": 60,
          "time": 313.65772205624654,
          "velocity": 0.7480314960629921,
          "duration": 0.06249993749997884
        },
        {
          "name": "D4",
          "midi": 62,
          "time": 313.65772205624654,
          "velocity": 0.7480314960629921,
          "duration": 0.06249993749997884
        },
        {
          "name": "D#4",
          "midi": 63,
          "time": 313.65772205624654,
          "velocity": 0.7480314960629921,
          "duration": 0.06249993749997884
        },
        {
          "name": "C5",
          "midi": 72,
          "time": 313.65772205624654,
          "velocity": 0.7480314960629921,
          "duration": 0.06249993749997884
        },
        {
          "name": "D5",
          "midi": 74,
          "time": 313.65772205624654,
          "velocity": 0.7480314960629921,
          "duration": 0.06249993749997884
        },
        {
          "name": "D#5",
          "midi": 75,
          "time": 313.65772205624654,
          "velocity": 0.7480314960629921,
          "duration": 0.06249993749997884
        },
        {
          "name": "C6",
          "midi": 84,
          "time": 313.65772205624654,
          "velocity": 0.7480314960629921,
          "duration": 0.06249993749997884
        },
        {
          "name": "D6",
          "midi": 86,
          "time": 313.65772205624654,
          "velocity": 0.7480314960629921,
          "duration": 0.06249993749997884
        },
        {
          "name": "D#6",
          "midi": 87,
          "time": 313.65772205624654,
          "velocity": 0.7480314960629921,
          "duration": 0.06249993749997884
        },
        {
          "name": "C7",
          "midi": 96,
          "time": 313.65772205624654,
          "velocity": 0.7480314960629921,
          "duration": 0.06249993749997884
        },
        {
          "name": "D7",
          "midi": 98,
          "time": 313.65772205624654,
          "velocity": 0.7480314960629921,
          "duration": 0.06249993749997884
        },
        {
          "name": "D#7",
          "midi": 99,
          "time": 313.65772205624654,
          "velocity": 0.7480314960629921,
          "duration": 0.06249993749997884
        },
        {
          "name": "C#4",
          "midi": 61,
          "time": 314.0862930562465,
          "velocity": 0.7480314960629921,
          "duration": 0.21428550000001678
        },
        {
          "name": "D4",
          "midi": 62,
          "time": 314.0862930562465,
          "velocity": 0.7480314960629921,
          "duration": 0.21428550000001678
        },
        {
          "name": "D#4",
          "midi": 63,
          "time": 314.0862930562465,
          "velocity": 0.7480314960629921,
          "duration": 0.21428550000001678
        },
        {
          "name": "C#5",
          "midi": 73,
          "time": 314.0862930562465,
          "velocity": 0.7480314960629921,
          "duration": 0.21428550000001678
        },
        {
          "name": "D5",
          "midi": 74,
          "time": 314.0862930562465,
          "velocity": 0.7480314960629921,
          "duration": 0.21428550000001678
        },
        {
          "name": "D#5",
          "midi": 75,
          "time": 314.0862930562465,
          "velocity": 0.7480314960629921,
          "duration": 0.21428550000001678
        },
        {
          "name": "C#6",
          "midi": 85,
          "time": 314.0862930562465,
          "velocity": 0.7480314960629921,
          "duration": 0.21428550000001678
        },
        {
          "name": "D6",
          "midi": 86,
          "time": 314.0862930562465,
          "velocity": 0.7480314960629921,
          "duration": 0.21428550000001678
        },
        {
          "name": "D#6",
          "midi": 87,
          "time": 314.0862930562465,
          "velocity": 0.7480314960629921,
          "duration": 0.21428550000001678
        },
        {
          "name": "C#7",
          "midi": 97,
          "time": 314.0862930562465,
          "velocity": 0.7480314960629921,
          "duration": 0.21428550000001678
        },
        {
          "name": "D7",
          "midi": 98,
          "time": 314.0862930562465,
          "velocity": 0.7480314960629921,
          "duration": 0.21428550000001678
        },
        {
          "name": "D#7",
          "midi": 99,
          "time": 314.0862930562465,
          "velocity": 0.7480314960629921,
          "duration": 0.21428550000001678
        },
        {
          "name": "D#7",
          "midi": 99,
          "time": 314.30057855624653,
          "velocity": 0.7480314960629921,
          "duration": 0.06249993749997884
        },
        {
          "name": "D7",
          "midi": 98,
          "time": 314.30057855624653,
          "velocity": 0.7480314960629921,
          "duration": 0.06249993749997884
        },
        {
          "name": "C#7",
          "midi": 97,
          "time": 314.30057855624653,
          "velocity": 0.7480314960629921,
          "duration": 0.06249993749997884
        },
        {
          "name": "D#6",
          "midi": 87,
          "time": 314.30057855624653,
          "velocity": 0.7480314960629921,
          "duration": 0.06249993749997884
        },
        {
          "name": "D6",
          "midi": 86,
          "time": 314.30057855624653,
          "velocity": 0.7480314960629921,
          "duration": 0.06249993749997884
        },
        {
          "name": "C#6",
          "midi": 85,
          "time": 314.30057855624653,
          "velocity": 0.7480314960629921,
          "duration": 0.06249993749997884
        },
        {
          "name": "D#5",
          "midi": 75,
          "time": 314.30057855624653,
          "velocity": 0.7480314960629921,
          "duration": 0.06249993749997884
        },
        {
          "name": "D5",
          "midi": 74,
          "time": 314.30057855624653,
          "velocity": 0.7480314960629921,
          "duration": 0.06249993749997884
        },
        {
          "name": "C#5",
          "midi": 73,
          "time": 314.30057855624653,
          "velocity": 0.7480314960629921,
          "duration": 0.06249993749997884
        },
        {
          "name": "D#4",
          "midi": 63,
          "time": 314.30057855624653,
          "velocity": 0.7480314960629921,
          "duration": 0.06249993749997884
        },
        {
          "name": "D4",
          "midi": 62,
          "time": 314.30057855624653,
          "velocity": 0.7480314960629921,
          "duration": 0.06249993749997884
        },
        {
          "name": "C#4",
          "midi": 61,
          "time": 314.30057855624653,
          "velocity": 0.7480314960629921,
          "duration": 0.06249993749997884
        },
        {
          "name": "C#4",
          "midi": 61,
          "time": 314.7291495562465,
          "velocity": 0.7480314960629921,
          "duration": 0.4285709999999767
        },
        {
          "name": "D4",
          "midi": 62,
          "time": 314.7291495562465,
          "velocity": 0.7480314960629921,
          "duration": 0.4285709999999767
        },
        {
          "name": "D#4",
          "midi": 63,
          "time": 314.7291495562465,
          "velocity": 0.7480314960629921,
          "duration": 0.4285709999999767
        },
        {
          "name": "C#5",
          "midi": 73,
          "time": 314.7291495562465,
          "velocity": 0.7480314960629921,
          "duration": 0.4285709999999767
        },
        {
          "name": "D5",
          "midi": 74,
          "time": 314.7291495562465,
          "velocity": 0.7480314960629921,
          "duration": 0.4285709999999767
        },
        {
          "name": "D#5",
          "midi": 75,
          "time": 314.7291495562465,
          "velocity": 0.7480314960629921,
          "duration": 0.4285709999999767
        },
        {
          "name": "C#6",
          "midi": 85,
          "time": 314.7291495562465,
          "velocity": 0.7480314960629921,
          "duration": 0.4285709999999767
        },
        {
          "name": "D6",
          "midi": 86,
          "time": 314.7291495562465,
          "velocity": 0.7480314960629921,
          "duration": 0.4285709999999767
        },
        {
          "name": "D#6",
          "midi": 87,
          "time": 314.7291495562465,
          "velocity": 0.7480314960629921,
          "duration": 0.4285709999999767
        },
        {
          "name": "C#7",
          "midi": 97,
          "time": 314.7291495562465,
          "velocity": 0.7480314960629921,
          "duration": 0.4285709999999767
        },
        {
          "name": "D7",
          "midi": 98,
          "time": 314.7291495562465,
          "velocity": 0.7480314960629921,
          "duration": 0.4285709999999767
        },
        {
          "name": "D#7",
          "midi": 99,
          "time": 314.7291495562465,
          "velocity": 0.7480314960629921,
          "duration": 0.4285709999999767
        },
        {
          "name": "D#7",
          "midi": 99,
          "time": 315.1577205562465,
          "velocity": 0.7480314960629921,
          "duration": 0.06249993749997884
        },
        {
          "name": "D7",
          "midi": 98,
          "time": 315.1577205562465,
          "velocity": 0.7480314960629921,
          "duration": 0.06249993749997884
        },
        {
          "name": "C#7",
          "midi": 97,
          "time": 315.1577205562465,
          "velocity": 0.7480314960629921,
          "duration": 0.06249993749997884
        },
        {
          "name": "D#6",
          "midi": 87,
          "time": 315.1577205562465,
          "velocity": 0.7480314960629921,
          "duration": 0.06249993749997884
        },
        {
          "name": "D6",
          "midi": 86,
          "time": 315.1577205562465,
          "velocity": 0.7480314960629921,
          "duration": 0.06249993749997884
        },
        {
          "name": "C#6",
          "midi": 85,
          "time": 315.1577205562465,
          "velocity": 0.7480314960629921,
          "duration": 0.06249993749997884
        },
        {
          "name": "D#5",
          "midi": 75,
          "time": 315.1577205562465,
          "velocity": 0.7480314960629921,
          "duration": 0.06249993749997884
        },
        {
          "name": "D5",
          "midi": 74,
          "time": 315.1577205562465,
          "velocity": 0.7480314960629921,
          "duration": 0.06249993749997884
        },
        {
          "name": "C#5",
          "midi": 73,
          "time": 315.1577205562465,
          "velocity": 0.7480314960629921,
          "duration": 0.06249993749997884
        },
        {
          "name": "D#4",
          "midi": 63,
          "time": 315.1577205562465,
          "velocity": 0.7480314960629921,
          "duration": 0.06249993749997884
        },
        {
          "name": "D4",
          "midi": 62,
          "time": 315.1577205562465,
          "velocity": 0.7480314960629921,
          "duration": 0.06249993749997884
        },
        {
          "name": "C#4",
          "midi": 61,
          "time": 315.1577205562465,
          "velocity": 0.7480314960629921,
          "duration": 0.06249993749997884
        },
        {
          "name": "C#4",
          "midi": 61,
          "time": 315.37200605624645,
          "velocity": 0.7480314960629921,
          "duration": 0.06249993749997884
        },
        {
          "name": "D4",
          "midi": 62,
          "time": 315.37200605624645,
          "velocity": 0.7480314960629921,
          "duration": 0.06249993749997884
        },
        {
          "name": "D#4",
          "midi": 63,
          "time": 315.37200605624645,
          "velocity": 0.7480314960629921,
          "duration": 0.06249993749997884
        },
        {
          "name": "C#5",
          "midi": 73,
          "time": 315.37200605624645,
          "velocity": 0.7480314960629921,
          "duration": 0.06249993749997884
        },
        {
          "name": "D5",
          "midi": 74,
          "time": 315.37200605624645,
          "velocity": 0.7480314960629921,
          "duration": 0.06249993749997884
        },
        {
          "name": "D#5",
          "midi": 75,
          "time": 315.37200605624645,
          "velocity": 0.7480314960629921,
          "duration": 0.06249993749997884
        },
        {
          "name": "C#6",
          "midi": 85,
          "time": 315.37200605624645,
          "velocity": 0.7480314960629921,
          "duration": 0.06249993749997884
        },
        {
          "name": "D6",
          "midi": 86,
          "time": 315.37200605624645,
          "velocity": 0.7480314960629921,
          "duration": 0.06249993749997884
        },
        {
          "name": "D#6",
          "midi": 87,
          "time": 315.37200605624645,
          "velocity": 0.7480314960629921,
          "duration": 0.06249993749997884
        },
        {
          "name": "C#7",
          "midi": 97,
          "time": 315.37200605624645,
          "velocity": 0.7480314960629921,
          "duration": 0.06249993749997884
        },
        {
          "name": "D7",
          "midi": 98,
          "time": 315.37200605624645,
          "velocity": 0.7480314960629921,
          "duration": 0.06249993749997884
        },
        {
          "name": "D#7",
          "midi": 99,
          "time": 315.37200605624645,
          "velocity": 0.7480314960629921,
          "duration": 0.06249993749997884
        },
        {
          "name": "C4",
          "midi": 60,
          "time": 315.5862915562464,
          "velocity": 0.7480314960629921,
          "duration": 0.06249993749997884
        },
        {
          "name": "D4",
          "midi": 62,
          "time": 315.5862915562464,
          "velocity": 0.7480314960629921,
          "duration": 0.06249993749997884
        },
        {
          "name": "D#4",
          "midi": 63,
          "time": 315.5862915562464,
          "velocity": 0.7480314960629921,
          "duration": 0.06249993749997884
        },
        {
          "name": "C5",
          "midi": 72,
          "time": 315.5862915562464,
          "velocity": 0.7480314960629921,
          "duration": 0.06249993749997884
        },
        {
          "name": "D5",
          "midi": 74,
          "time": 315.5862915562464,
          "velocity": 0.7480314960629921,
          "duration": 0.06249993749997884
        },
        {
          "name": "D#5",
          "midi": 75,
          "time": 315.5862915562464,
          "velocity": 0.7480314960629921,
          "duration": 0.06249993749997884
        },
        {
          "name": "C6",
          "midi": 84,
          "time": 315.5862915562464,
          "velocity": 0.7480314960629921,
          "duration": 0.06249993749997884
        },
        {
          "name": "D6",
          "midi": 86,
          "time": 315.5862915562464,
          "velocity": 0.7480314960629921,
          "duration": 0.06249993749997884
        },
        {
          "name": "D#6",
          "midi": 87,
          "time": 315.5862915562464,
          "velocity": 0.7480314960629921,
          "duration": 0.06249993749997884
        },
        {
          "name": "C7",
          "midi": 96,
          "time": 315.5862915562464,
          "velocity": 0.7480314960629921,
          "duration": 0.06249993749997884
        },
        {
          "name": "D7",
          "midi": 98,
          "time": 315.5862915562464,
          "velocity": 0.7480314960629921,
          "duration": 0.06249993749997884
        },
        {
          "name": "D#7",
          "midi": 99,
          "time": 315.5862915562464,
          "velocity": 0.7480314960629921,
          "duration": 0.06249993749997884
        },
        {
          "name": "C4",
          "midi": 60,
          "time": 316.0148625562464,
          "velocity": 0.7480314960629921,
          "duration": 0.06249993749997884
        },
        {
          "name": "D4",
          "midi": 62,
          "time": 316.0148625562464,
          "velocity": 0.7480314960629921,
          "duration": 0.06249993749997884
        },
        {
          "name": "D#4",
          "midi": 63,
          "time": 316.0148625562464,
          "velocity": 0.7480314960629921,
          "duration": 0.06249993749997884
        },
        {
          "name": "C5",
          "midi": 72,
          "time": 316.0148625562464,
          "velocity": 0.7480314960629921,
          "duration": 0.06249993749997884
        },
        {
          "name": "D5",
          "midi": 74,
          "time": 316.0148625562464,
          "velocity": 0.7480314960629921,
          "duration": 0.06249993749997884
        },
        {
          "name": "D#5",
          "midi": 75,
          "time": 316.0148625562464,
          "velocity": 0.7480314960629921,
          "duration": 0.06249993749997884
        },
        {
          "name": "C6",
          "midi": 84,
          "time": 316.0148625562464,
          "velocity": 0.7480314960629921,
          "duration": 0.06249993749997884
        },
        {
          "name": "D6",
          "midi": 86,
          "time": 316.0148625562464,
          "velocity": 0.7480314960629921,
          "duration": 0.06249993749997884
        },
        {
          "name": "D#6",
          "midi": 87,
          "time": 316.0148625562464,
          "velocity": 0.7480314960629921,
          "duration": 0.06249993749997884
        },
        {
          "name": "C7",
          "midi": 96,
          "time": 316.0148625562464,
          "velocity": 0.7480314960629921,
          "duration": 0.06249993749997884
        },
        {
          "name": "D7",
          "midi": 98,
          "time": 316.0148625562464,
          "velocity": 0.7480314960629921,
          "duration": 0.06249993749997884
        },
        {
          "name": "D#7",
          "midi": 99,
          "time": 316.0148625562464,
          "velocity": 0.7480314960629921,
          "duration": 0.06249993749997884
        },
        {
          "name": "C4",
          "midi": 60,
          "time": 316.44343355624636,
          "velocity": 0.7480314960629921,
          "duration": 0.4285709999999767
        },
        {
          "name": "D4",
          "midi": 62,
          "time": 316.44343355624636,
          "velocity": 0.7480314960629921,
          "duration": 0.4285709999999767
        },
        {
          "name": "D#4",
          "midi": 63,
          "time": 316.44343355624636,
          "velocity": 0.7480314960629921,
          "duration": 0.4285709999999767
        },
        {
          "name": "C5",
          "midi": 72,
          "time": 316.44343355624636,
          "velocity": 0.7480314960629921,
          "duration": 0.4285709999999767
        },
        {
          "name": "D5",
          "midi": 74,
          "time": 316.44343355624636,
          "velocity": 0.7480314960629921,
          "duration": 0.4285709999999767
        },
        {
          "name": "D#5",
          "midi": 75,
          "time": 316.44343355624636,
          "velocity": 0.7480314960629921,
          "duration": 0.4285709999999767
        },
        {
          "name": "C6",
          "midi": 84,
          "time": 316.44343355624636,
          "velocity": 0.7480314960629921,
          "duration": 0.4285709999999767
        },
        {
          "name": "D6",
          "midi": 86,
          "time": 316.44343355624636,
          "velocity": 0.7480314960629921,
          "duration": 0.4285709999999767
        },
        {
          "name": "D#6",
          "midi": 87,
          "time": 316.44343355624636,
          "velocity": 0.7480314960629921,
          "duration": 0.4285709999999767
        },
        {
          "name": "C7",
          "midi": 96,
          "time": 316.44343355624636,
          "velocity": 0.7480314960629921,
          "duration": 0.4285709999999767
        },
        {
          "name": "D7",
          "midi": 98,
          "time": 316.44343355624636,
          "velocity": 0.7480314960629921,
          "duration": 0.4285709999999767
        },
        {
          "name": "D#7",
          "midi": 99,
          "time": 316.44343355624636,
          "velocity": 0.7480314960629921,
          "duration": 0.4285709999999767
        },
        {
          "name": "D#7",
          "midi": 99,
          "time": 316.87200455624634,
          "velocity": 0.7480314960629921,
          "duration": 0.06249993749997884
        },
        {
          "name": "D7",
          "midi": 98,
          "time": 316.87200455624634,
          "velocity": 0.7480314960629921,
          "duration": 0.06249993749997884
        },
        {
          "name": "C7",
          "midi": 96,
          "time": 316.87200455624634,
          "velocity": 0.7480314960629921,
          "duration": 0.06249993749997884
        },
        {
          "name": "D#6",
          "midi": 87,
          "time": 316.87200455624634,
          "velocity": 0.7480314960629921,
          "duration": 0.06249993749997884
        },
        {
          "name": "D6",
          "midi": 86,
          "time": 316.87200455624634,
          "velocity": 0.7480314960629921,
          "duration": 0.06249993749997884
        },
        {
          "name": "C6",
          "midi": 84,
          "time": 316.87200455624634,
          "velocity": 0.7480314960629921,
          "duration": 0.06249993749997884
        },
        {
          "name": "D#5",
          "midi": 75,
          "time": 316.87200455624634,
          "velocity": 0.7480314960629921,
          "duration": 0.06249993749997884
        },
        {
          "name": "D5",
          "midi": 74,
          "time": 316.87200455624634,
          "velocity": 0.7480314960629921,
          "duration": 0.06249993749997884
        },
        {
          "name": "C5",
          "midi": 72,
          "time": 316.87200455624634,
          "velocity": 0.7480314960629921,
          "duration": 0.06249993749997884
        },
        {
          "name": "D#4",
          "midi": 63,
          "time": 316.87200455624634,
          "velocity": 0.7480314960629921,
          "duration": 0.06249993749997884
        },
        {
          "name": "D4",
          "midi": 62,
          "time": 316.87200455624634,
          "velocity": 0.7480314960629921,
          "duration": 0.06249993749997884
        },
        {
          "name": "C4",
          "midi": 60,
          "time": 316.87200455624634,
          "velocity": 0.7480314960629921,
          "duration": 0.06249993749997884
        },
        {
          "name": "C4",
          "midi": 60,
          "time": 317.0862900562463,
          "velocity": 0.7480314960629921,
          "duration": 0.06249993749997884
        },
        {
          "name": "D4",
          "midi": 62,
          "time": 317.0862900562463,
          "velocity": 0.7480314960629921,
          "duration": 0.06249993749997884
        },
        {
          "name": "D#4",
          "midi": 63,
          "time": 317.0862900562463,
          "velocity": 0.7480314960629921,
          "duration": 0.06249993749997884
        },
        {
          "name": "C5",
          "midi": 72,
          "time": 317.0862900562463,
          "velocity": 0.7480314960629921,
          "duration": 0.06249993749997884
        },
        {
          "name": "D5",
          "midi": 74,
          "time": 317.0862900562463,
          "velocity": 0.7480314960629921,
          "duration": 0.06249993749997884
        },
        {
          "name": "D#5",
          "midi": 75,
          "time": 317.0862900562463,
          "velocity": 0.7480314960629921,
          "duration": 0.06249993749997884
        },
        {
          "name": "C6",
          "midi": 84,
          "time": 317.0862900562463,
          "velocity": 0.7480314960629921,
          "duration": 0.06249993749997884
        },
        {
          "name": "D6",
          "midi": 86,
          "time": 317.0862900562463,
          "velocity": 0.7480314960629921,
          "duration": 0.06249993749997884
        },
        {
          "name": "D#6",
          "midi": 87,
          "time": 317.0862900562463,
          "velocity": 0.7480314960629921,
          "duration": 0.06249993749997884
        },
        {
          "name": "C7",
          "midi": 96,
          "time": 317.0862900562463,
          "velocity": 0.7480314960629921,
          "duration": 0.06249993749997884
        },
        {
          "name": "D7",
          "midi": 98,
          "time": 317.0862900562463,
          "velocity": 0.7480314960629921,
          "duration": 0.06249993749997884
        },
        {
          "name": "D#7",
          "midi": 99,
          "time": 317.0862900562463,
          "velocity": 0.7480314960629921,
          "duration": 0.06249993749997884
        },
        {
          "name": "C4",
          "midi": 60,
          "time": 317.5148610562463,
          "velocity": 0.7480314960629921,
          "duration": 0.06249993749997884
        },
        {
          "name": "D4",
          "midi": 62,
          "time": 317.5148610562463,
          "velocity": 0.7480314960629921,
          "duration": 0.06249993749997884
        },
        {
          "name": "D#4",
          "midi": 63,
          "time": 317.5148610562463,
          "velocity": 0.7480314960629921,
          "duration": 0.06249993749997884
        },
        {
          "name": "C5",
          "midi": 72,
          "time": 317.5148610562463,
          "velocity": 0.7480314960629921,
          "duration": 0.06249993749997884
        },
        {
          "name": "D5",
          "midi": 74,
          "time": 317.5148610562463,
          "velocity": 0.7480314960629921,
          "duration": 0.06249993749997884
        },
        {
          "name": "D#5",
          "midi": 75,
          "time": 317.5148610562463,
          "velocity": 0.7480314960629921,
          "duration": 0.06249993749997884
        },
        {
          "name": "C6",
          "midi": 84,
          "time": 317.5148610562463,
          "velocity": 0.7480314960629921,
          "duration": 0.06249993749997884
        },
        {
          "name": "D6",
          "midi": 86,
          "time": 317.5148610562463,
          "velocity": 0.7480314960629921,
          "duration": 0.06249993749997884
        },
        {
          "name": "D#6",
          "midi": 87,
          "time": 317.5148610562463,
          "velocity": 0.7480314960629921,
          "duration": 0.06249993749997884
        },
        {
          "name": "C7",
          "midi": 96,
          "time": 317.5148610562463,
          "velocity": 0.7480314960629921,
          "duration": 0.06249993749997884
        },
        {
          "name": "D7",
          "midi": 98,
          "time": 317.5148610562463,
          "velocity": 0.7480314960629921,
          "duration": 0.06249993749997884
        },
        {
          "name": "D#7",
          "midi": 99,
          "time": 317.5148610562463,
          "velocity": 0.7480314960629921,
          "duration": 0.06249993749997884
        },
        {
          "name": "C4",
          "midi": 60,
          "time": 317.72914655624623,
          "velocity": 0.7480314960629921,
          "duration": 0.06249993749997884
        },
        {
          "name": "D4",
          "midi": 62,
          "time": 317.72914655624623,
          "velocity": 0.7480314960629921,
          "duration": 0.06249993749997884
        },
        {
          "name": "D#4",
          "midi": 63,
          "time": 317.72914655624623,
          "velocity": 0.7480314960629921,
          "duration": 0.06249993749997884
        },
        {
          "name": "C5",
          "midi": 72,
          "time": 317.72914655624623,
          "velocity": 0.7480314960629921,
          "duration": 0.06249993749997884
        },
        {
          "name": "D5",
          "midi": 74,
          "time": 317.72914655624623,
          "velocity": 0.7480314960629921,
          "duration": 0.06249993749997884
        },
        {
          "name": "D#5",
          "midi": 75,
          "time": 317.72914655624623,
          "velocity": 0.7480314960629921,
          "duration": 0.06249993749997884
        },
        {
          "name": "C6",
          "midi": 84,
          "time": 317.72914655624623,
          "velocity": 0.7480314960629921,
          "duration": 0.06249993749997884
        },
        {
          "name": "D6",
          "midi": 86,
          "time": 317.72914655624623,
          "velocity": 0.7480314960629921,
          "duration": 0.06249993749997884
        },
        {
          "name": "D#6",
          "midi": 87,
          "time": 317.72914655624623,
          "velocity": 0.7480314960629921,
          "duration": 0.06249993749997884
        },
        {
          "name": "C7",
          "midi": 96,
          "time": 317.72914655624623,
          "velocity": 0.7480314960629921,
          "duration": 0.06249993749997884
        },
        {
          "name": "D7",
          "midi": 98,
          "time": 317.72914655624623,
          "velocity": 0.7480314960629921,
          "duration": 0.06249993749997884
        },
        {
          "name": "D#7",
          "midi": 99,
          "time": 317.72914655624623,
          "velocity": 0.7480314960629921,
          "duration": 0.06249993749997884
        },
        {
          "name": "C4",
          "midi": 60,
          "time": 318.1577175562462,
          "velocity": 0.7480314960629921,
          "duration": 0.4285709999999767
        },
        {
          "name": "D4",
          "midi": 62,
          "time": 318.1577175562462,
          "velocity": 0.7480314960629921,
          "duration": 0.4285709999999767
        },
        {
          "name": "D#4",
          "midi": 63,
          "time": 318.1577175562462,
          "velocity": 0.7480314960629921,
          "duration": 0.4285709999999767
        },
        {
          "name": "C5",
          "midi": 72,
          "time": 318.1577175562462,
          "velocity": 0.7480314960629921,
          "duration": 0.4285709999999767
        },
        {
          "name": "D5",
          "midi": 74,
          "time": 318.1577175562462,
          "velocity": 0.7480314960629921,
          "duration": 0.4285709999999767
        },
        {
          "name": "D#5",
          "midi": 75,
          "time": 318.1577175562462,
          "velocity": 0.7480314960629921,
          "duration": 0.4285709999999767
        },
        {
          "name": "C6",
          "midi": 84,
          "time": 318.1577175562462,
          "velocity": 0.7480314960629921,
          "duration": 0.4285709999999767
        },
        {
          "name": "D6",
          "midi": 86,
          "time": 318.1577175562462,
          "velocity": 0.7480314960629921,
          "duration": 0.4285709999999767
        },
        {
          "name": "D#6",
          "midi": 87,
          "time": 318.1577175562462,
          "velocity": 0.7480314960629921,
          "duration": 0.4285709999999767
        },
        {
          "name": "C7",
          "midi": 96,
          "time": 318.1577175562462,
          "velocity": 0.7480314960629921,
          "duration": 0.4285709999999767
        },
        {
          "name": "D7",
          "midi": 98,
          "time": 318.1577175562462,
          "velocity": 0.7480314960629921,
          "duration": 0.4285709999999767
        },
        {
          "name": "D#7",
          "midi": 99,
          "time": 318.1577175562462,
          "velocity": 0.7480314960629921,
          "duration": 0.4285709999999767
        },
        {
          "name": "D#7",
          "midi": 99,
          "time": 318.5862885562462,
          "velocity": 0.7480314960629921,
          "duration": 0.06249993749997884
        },
        {
          "name": "D7",
          "midi": 98,
          "time": 318.5862885562462,
          "velocity": 0.7480314960629921,
          "duration": 0.06249993749997884
        },
        {
          "name": "C7",
          "midi": 96,
          "time": 318.5862885562462,
          "velocity": 0.7480314960629921,
          "duration": 0.06249993749997884
        },
        {
          "name": "D#6",
          "midi": 87,
          "time": 318.5862885562462,
          "velocity": 0.7480314960629921,
          "duration": 0.06249993749997884
        },
        {
          "name": "D6",
          "midi": 86,
          "time": 318.5862885562462,
          "velocity": 0.7480314960629921,
          "duration": 0.06249993749997884
        },
        {
          "name": "C6",
          "midi": 84,
          "time": 318.5862885562462,
          "velocity": 0.7480314960629921,
          "duration": 0.06249993749997884
        },
        {
          "name": "D#5",
          "midi": 75,
          "time": 318.5862885562462,
          "velocity": 0.7480314960629921,
          "duration": 0.06249993749997884
        },
        {
          "name": "D5",
          "midi": 74,
          "time": 318.5862885562462,
          "velocity": 0.7480314960629921,
          "duration": 0.06249993749997884
        },
        {
          "name": "C5",
          "midi": 72,
          "time": 318.5862885562462,
          "velocity": 0.7480314960629921,
          "duration": 0.06249993749997884
        },
        {
          "name": "D#4",
          "midi": 63,
          "time": 318.5862885562462,
          "velocity": 0.7480314960629921,
          "duration": 0.06249993749997884
        },
        {
          "name": "D4",
          "midi": 62,
          "time": 318.5862885562462,
          "velocity": 0.7480314960629921,
          "duration": 0.06249993749997884
        },
        {
          "name": "C4",
          "midi": 60,
          "time": 318.5862885562462,
          "velocity": 0.7480314960629921,
          "duration": 0.06249993749997884
        },
        {
          "name": "C4",
          "midi": 60,
          "time": 318.80057405624615,
          "velocity": 0.7480314960629921,
          "duration": 0.06249993749997884
        },
        {
          "name": "D4",
          "midi": 62,
          "time": 318.80057405624615,
          "velocity": 0.7480314960629921,
          "duration": 0.06249993749997884
        },
        {
          "name": "D#4",
          "midi": 63,
          "time": 318.80057405624615,
          "velocity": 0.7480314960629921,
          "duration": 0.06249993749997884
        },
        {
          "name": "C5",
          "midi": 72,
          "time": 318.80057405624615,
          "velocity": 0.7480314960629921,
          "duration": 0.06249993749997884
        },
        {
          "name": "D5",
          "midi": 74,
          "time": 318.80057405624615,
          "velocity": 0.7480314960629921,
          "duration": 0.06249993749997884
        },
        {
          "name": "D#5",
          "midi": 75,
          "time": 318.80057405624615,
          "velocity": 0.7480314960629921,
          "duration": 0.06249993749997884
        },
        {
          "name": "C6",
          "midi": 84,
          "time": 318.80057405624615,
          "velocity": 0.7480314960629921,
          "duration": 0.06249993749997884
        },
        {
          "name": "D6",
          "midi": 86,
          "time": 318.80057405624615,
          "velocity": 0.7480314960629921,
          "duration": 0.06249993749997884
        },
        {
          "name": "D#6",
          "midi": 87,
          "time": 318.80057405624615,
          "velocity": 0.7480314960629921,
          "duration": 0.06249993749997884
        },
        {
          "name": "C7",
          "midi": 96,
          "time": 318.80057405624615,
          "velocity": 0.7480314960629921,
          "duration": 0.06249993749997884
        },
        {
          "name": "D7",
          "midi": 98,
          "time": 318.80057405624615,
          "velocity": 0.7480314960629921,
          "duration": 0.06249993749997884
        },
        {
          "name": "D#7",
          "midi": 99,
          "time": 318.80057405624615,
          "velocity": 0.7480314960629921,
          "duration": 0.06249993749997884
        },
        {
          "name": "C4",
          "midi": 60,
          "time": 319.0148595562461,
          "velocity": 0.7480314960629921,
          "duration": 0.06249993749997884
        },
        {
          "name": "D4",
          "midi": 62,
          "time": 319.0148595562461,
          "velocity": 0.7480314960629921,
          "duration": 0.06249993749997884
        },
        {
          "name": "D#4",
          "midi": 63,
          "time": 319.0148595562461,
          "velocity": 0.7480314960629921,
          "duration": 0.06249993749997884
        },
        {
          "name": "C5",
          "midi": 72,
          "time": 319.0148595562461,
          "velocity": 0.7480314960629921,
          "duration": 0.06249993749997884
        },
        {
          "name": "D5",
          "midi": 74,
          "time": 319.0148595562461,
          "velocity": 0.7480314960629921,
          "duration": 0.06249993749997884
        },
        {
          "name": "D#5",
          "midi": 75,
          "time": 319.0148595562461,
          "velocity": 0.7480314960629921,
          "duration": 0.06249993749997884
        },
        {
          "name": "C6",
          "midi": 84,
          "time": 319.0148595562461,
          "velocity": 0.7480314960629921,
          "duration": 0.06249993749997884
        },
        {
          "name": "D6",
          "midi": 86,
          "time": 319.0148595562461,
          "velocity": 0.7480314960629921,
          "duration": 0.06249993749997884
        },
        {
          "name": "D#6",
          "midi": 87,
          "time": 319.0148595562461,
          "velocity": 0.7480314960629921,
          "duration": 0.06249993749997884
        },
        {
          "name": "C7",
          "midi": 96,
          "time": 319.0148595562461,
          "velocity": 0.7480314960629921,
          "duration": 0.06249993749997884
        },
        {
          "name": "D7",
          "midi": 98,
          "time": 319.0148595562461,
          "velocity": 0.7480314960629921,
          "duration": 0.06249993749997884
        },
        {
          "name": "D#7",
          "midi": 99,
          "time": 319.0148595562461,
          "velocity": 0.7480314960629921,
          "duration": 0.06249993749997884
        },
        {
          "name": "C4",
          "midi": 60,
          "time": 319.4434305562461,
          "velocity": 0.7480314960629921,
          "duration": 0.06249993749997884
        },
        {
          "name": "D4",
          "midi": 62,
          "time": 319.4434305562461,
          "velocity": 0.7480314960629921,
          "duration": 0.06249993749997884
        },
        {
          "name": "D#4",
          "midi": 63,
          "time": 319.4434305562461,
          "velocity": 0.7480314960629921,
          "duration": 0.06249993749997884
        },
        {
          "name": "C5",
          "midi": 72,
          "time": 319.4434305562461,
          "velocity": 0.7480314960629921,
          "duration": 0.06249993749997884
        },
        {
          "name": "D5",
          "midi": 74,
          "time": 319.4434305562461,
          "velocity": 0.7480314960629921,
          "duration": 0.06249993749997884
        },
        {
          "name": "D#5",
          "midi": 75,
          "time": 319.4434305562461,
          "velocity": 0.7480314960629921,
          "duration": 0.06249993749997884
        },
        {
          "name": "C6",
          "midi": 84,
          "time": 319.4434305562461,
          "velocity": 0.7480314960629921,
          "duration": 0.06249993749997884
        },
        {
          "name": "D6",
          "midi": 86,
          "time": 319.4434305562461,
          "velocity": 0.7480314960629921,
          "duration": 0.06249993749997884
        },
        {
          "name": "D#6",
          "midi": 87,
          "time": 319.4434305562461,
          "velocity": 0.7480314960629921,
          "duration": 0.06249993749997884
        },
        {
          "name": "C7",
          "midi": 96,
          "time": 319.4434305562461,
          "velocity": 0.7480314960629921,
          "duration": 0.06249993749997884
        },
        {
          "name": "D7",
          "midi": 98,
          "time": 319.4434305562461,
          "velocity": 0.7480314960629921,
          "duration": 0.06249993749997884
        },
        {
          "name": "D#7",
          "midi": 99,
          "time": 319.4434305562461,
          "velocity": 0.7480314960629921,
          "duration": 0.06249993749997884
        },
        {
          "name": "C4",
          "midi": 60,
          "time": 319.87200155624606,
          "velocity": 0.7480314960629921,
          "duration": 0.4285709999999767
        },
        {
          "name": "D4",
          "midi": 62,
          "time": 319.87200155624606,
          "velocity": 0.7480314960629921,
          "duration": 0.4285709999999767
        },
        {
          "name": "D#4",
          "midi": 63,
          "time": 319.87200155624606,
          "velocity": 0.7480314960629921,
          "duration": 0.4285709999999767
        },
        {
          "name": "C5",
          "midi": 72,
          "time": 319.87200155624606,
          "velocity": 0.7480314960629921,
          "duration": 0.4285709999999767
        },
        {
          "name": "D5",
          "midi": 74,
          "time": 319.87200155624606,
          "velocity": 0.7480314960629921,
          "duration": 0.4285709999999767
        },
        {
          "name": "D#5",
          "midi": 75,
          "time": 319.87200155624606,
          "velocity": 0.7480314960629921,
          "duration": 0.4285709999999767
        },
        {
          "name": "C6",
          "midi": 84,
          "time": 319.87200155624606,
          "velocity": 0.7480314960629921,
          "duration": 0.4285709999999767
        },
        {
          "name": "D6",
          "midi": 86,
          "time": 319.87200155624606,
          "velocity": 0.7480314960629921,
          "duration": 0.4285709999999767
        },
        {
          "name": "D#6",
          "midi": 87,
          "time": 319.87200155624606,
          "velocity": 0.7480314960629921,
          "duration": 0.4285709999999767
        },
        {
          "name": "C7",
          "midi": 96,
          "time": 319.87200155624606,
          "velocity": 0.7480314960629921,
          "duration": 0.4285709999999767
        },
        {
          "name": "D7",
          "midi": 98,
          "time": 319.87200155624606,
          "velocity": 0.7480314960629921,
          "duration": 0.4285709999999767
        },
        {
          "name": "D#7",
          "midi": 99,
          "time": 319.87200155624606,
          "velocity": 0.7480314960629921,
          "duration": 0.4285709999999767
        },
        {
          "name": "D#7",
          "midi": 99,
          "time": 320.30057255624604,
          "velocity": 0.7480314960629921,
          "duration": 0.06249993749997884
        },
        {
          "name": "D7",
          "midi": 98,
          "time": 320.30057255624604,
          "velocity": 0.7480314960629921,
          "duration": 0.06249993749997884
        },
        {
          "name": "C7",
          "midi": 96,
          "time": 320.30057255624604,
          "velocity": 0.7480314960629921,
          "duration": 0.06249993749997884
        },
        {
          "name": "D#6",
          "midi": 87,
          "time": 320.30057255624604,
          "velocity": 0.7480314960629921,
          "duration": 0.06249993749997884
        },
        {
          "name": "D6",
          "midi": 86,
          "time": 320.30057255624604,
          "velocity": 0.7480314960629921,
          "duration": 0.06249993749997884
        },
        {
          "name": "C6",
          "midi": 84,
          "time": 320.30057255624604,
          "velocity": 0.7480314960629921,
          "duration": 0.06249993749997884
        },
        {
          "name": "D#5",
          "midi": 75,
          "time": 320.30057255624604,
          "velocity": 0.7480314960629921,
          "duration": 0.06249993749997884
        },
        {
          "name": "D5",
          "midi": 74,
          "time": 320.30057255624604,
          "velocity": 0.7480314960629921,
          "duration": 0.06249993749997884
        },
        {
          "name": "C5",
          "midi": 72,
          "time": 320.30057255624604,
          "velocity": 0.7480314960629921,
          "duration": 0.06249993749997884
        },
        {
          "name": "D#4",
          "midi": 63,
          "time": 320.30057255624604,
          "velocity": 0.7480314960629921,
          "duration": 0.06249993749997884
        },
        {
          "name": "D4",
          "midi": 62,
          "time": 320.30057255624604,
          "velocity": 0.7480314960629921,
          "duration": 0.06249993749997884
        },
        {
          "name": "C4",
          "midi": 60,
          "time": 320.30057255624604,
          "velocity": 0.7480314960629921,
          "duration": 0.06249993749997884
        },
        {
          "name": "C4",
          "midi": 60,
          "time": 320.514858056246,
          "velocity": 0.7480314960629921,
          "duration": 0.06249993749997884
        },
        {
          "name": "D4",
          "midi": 62,
          "time": 320.514858056246,
          "velocity": 0.7480314960629921,
          "duration": 0.06249993749997884
        },
        {
          "name": "D#4",
          "midi": 63,
          "time": 320.514858056246,
          "velocity": 0.7480314960629921,
          "duration": 0.06249993749997884
        },
        {
          "name": "C5",
          "midi": 72,
          "time": 320.514858056246,
          "velocity": 0.7480314960629921,
          "duration": 0.06249993749997884
        },
        {
          "name": "D5",
          "midi": 74,
          "time": 320.514858056246,
          "velocity": 0.7480314960629921,
          "duration": 0.06249993749997884
        },
        {
          "name": "D#5",
          "midi": 75,
          "time": 320.514858056246,
          "velocity": 0.7480314960629921,
          "duration": 0.06249993749997884
        },
        {
          "name": "C6",
          "midi": 84,
          "time": 320.514858056246,
          "velocity": 0.7480314960629921,
          "duration": 0.06249993749997884
        },
        {
          "name": "D6",
          "midi": 86,
          "time": 320.514858056246,
          "velocity": 0.7480314960629921,
          "duration": 0.06249993749997884
        },
        {
          "name": "D#6",
          "midi": 87,
          "time": 320.514858056246,
          "velocity": 0.7480314960629921,
          "duration": 0.06249993749997884
        },
        {
          "name": "C7",
          "midi": 96,
          "time": 320.514858056246,
          "velocity": 0.7480314960629921,
          "duration": 0.06249993749997884
        },
        {
          "name": "D7",
          "midi": 98,
          "time": 320.514858056246,
          "velocity": 0.7480314960629921,
          "duration": 0.06249993749997884
        },
        {
          "name": "D#7",
          "midi": 99,
          "time": 320.514858056246,
          "velocity": 0.7480314960629921,
          "duration": 0.06249993749997884
        },
        {
          "name": "C4",
          "midi": 60,
          "time": 320.943429056246,
          "velocity": 0.7480314960629921,
          "duration": 0.06249993749997884
        },
        {
          "name": "D4",
          "midi": 62,
          "time": 320.943429056246,
          "velocity": 0.7480314960629921,
          "duration": 0.06249993749997884
        },
        {
          "name": "D#4",
          "midi": 63,
          "time": 320.943429056246,
          "velocity": 0.7480314960629921,
          "duration": 0.06249993749997884
        },
        {
          "name": "C5",
          "midi": 72,
          "time": 320.943429056246,
          "velocity": 0.7480314960629921,
          "duration": 0.06249993749997884
        },
        {
          "name": "D5",
          "midi": 74,
          "time": 320.943429056246,
          "velocity": 0.7480314960629921,
          "duration": 0.06249993749997884
        },
        {
          "name": "D#5",
          "midi": 75,
          "time": 320.943429056246,
          "velocity": 0.7480314960629921,
          "duration": 0.06249993749997884
        },
        {
          "name": "C6",
          "midi": 84,
          "time": 320.943429056246,
          "velocity": 0.7480314960629921,
          "duration": 0.06249993749997884
        },
        {
          "name": "D6",
          "midi": 86,
          "time": 320.943429056246,
          "velocity": 0.7480314960629921,
          "duration": 0.06249993749997884
        },
        {
          "name": "D#6",
          "midi": 87,
          "time": 320.943429056246,
          "velocity": 0.7480314960629921,
          "duration": 0.06249993749997884
        },
        {
          "name": "C7",
          "midi": 96,
          "time": 320.943429056246,
          "velocity": 0.7480314960629921,
          "duration": 0.06249993749997884
        },
        {
          "name": "D7",
          "midi": 98,
          "time": 320.943429056246,
          "velocity": 0.7480314960629921,
          "duration": 0.06249993749997884
        },
        {
          "name": "D#7",
          "midi": 99,
          "time": 320.943429056246,
          "velocity": 0.7480314960629921,
          "duration": 0.06249993749997884
        },
        {
          "name": "C4",
          "midi": 60,
          "time": 321.15771455624594,
          "velocity": 0.7480314960629921,
          "duration": 0.06249993749997884
        },
        {
          "name": "D4",
          "midi": 62,
          "time": 321.15771455624594,
          "velocity": 0.7480314960629921,
          "duration": 0.06249993749997884
        },
        {
          "name": "D#4",
          "midi": 63,
          "time": 321.15771455624594,
          "velocity": 0.7480314960629921,
          "duration": 0.06249993749997884
        },
        {
          "name": "C5",
          "midi": 72,
          "time": 321.15771455624594,
          "velocity": 0.7480314960629921,
          "duration": 0.06249993749997884
        },
        {
          "name": "D5",
          "midi": 74,
          "time": 321.15771455624594,
          "velocity": 0.7480314960629921,
          "duration": 0.06249993749997884
        },
        {
          "name": "D#5",
          "midi": 75,
          "time": 321.15771455624594,
          "velocity": 0.7480314960629921,
          "duration": 0.06249993749997884
        },
        {
          "name": "C6",
          "midi": 84,
          "time": 321.15771455624594,
          "velocity": 0.7480314960629921,
          "duration": 0.06249993749997884
        },
        {
          "name": "D6",
          "midi": 86,
          "time": 321.15771455624594,
          "velocity": 0.7480314960629921,
          "duration": 0.06249993749997884
        },
        {
          "name": "D#6",
          "midi": 87,
          "time": 321.15771455624594,
          "velocity": 0.7480314960629921,
          "duration": 0.06249993749997884
        },
        {
          "name": "C7",
          "midi": 96,
          "time": 321.15771455624594,
          "velocity": 0.7480314960629921,
          "duration": 0.06249993749997884
        },
        {
          "name": "D7",
          "midi": 98,
          "time": 321.15771455624594,
          "velocity": 0.7480314960629921,
          "duration": 0.06249993749997884
        },
        {
          "name": "D#7",
          "midi": 99,
          "time": 321.15771455624594,
          "velocity": 0.7480314960629921,
          "duration": 0.06249993749997884
        },
        {
          "name": "C4",
          "midi": 60,
          "time": 321.5862855562459,
          "velocity": 0.7480314960629921,
          "duration": 0.4285709999999767
        },
        {
          "name": "D4",
          "midi": 62,
          "time": 321.5862855562459,
          "velocity": 0.7480314960629921,
          "duration": 0.4285709999999767
        },
        {
          "name": "D#4",
          "midi": 63,
          "time": 321.5862855562459,
          "velocity": 0.7480314960629921,
          "duration": 0.4285709999999767
        },
        {
          "name": "C5",
          "midi": 72,
          "time": 321.5862855562459,
          "velocity": 0.7480314960629921,
          "duration": 0.4285709999999767
        },
        {
          "name": "D5",
          "midi": 74,
          "time": 321.5862855562459,
          "velocity": 0.7480314960629921,
          "duration": 0.4285709999999767
        },
        {
          "name": "D#5",
          "midi": 75,
          "time": 321.5862855562459,
          "velocity": 0.7480314960629921,
          "duration": 0.4285709999999767
        },
        {
          "name": "C6",
          "midi": 84,
          "time": 321.5862855562459,
          "velocity": 0.7480314960629921,
          "duration": 0.4285709999999767
        },
        {
          "name": "D6",
          "midi": 86,
          "time": 321.5862855562459,
          "velocity": 0.7480314960629921,
          "duration": 0.4285709999999767
        },
        {
          "name": "D#6",
          "midi": 87,
          "time": 321.5862855562459,
          "velocity": 0.7480314960629921,
          "duration": 0.4285709999999767
        },
        {
          "name": "C7",
          "midi": 96,
          "time": 321.5862855562459,
          "velocity": 0.7480314960629921,
          "duration": 0.4285709999999767
        },
        {
          "name": "D7",
          "midi": 98,
          "time": 321.5862855562459,
          "velocity": 0.7480314960629921,
          "duration": 0.4285709999999767
        },
        {
          "name": "D#7",
          "midi": 99,
          "time": 321.5862855562459,
          "velocity": 0.7480314960629921,
          "duration": 0.4285709999999767
        },
        {
          "name": "D#7",
          "midi": 99,
          "time": 322.0148565562459,
          "velocity": 0.7480314960629921,
          "duration": 0.06249993749997884
        },
        {
          "name": "D7",
          "midi": 98,
          "time": 322.0148565562459,
          "velocity": 0.7480314960629921,
          "duration": 0.06249993749997884
        },
        {
          "name": "C7",
          "midi": 96,
          "time": 322.0148565562459,
          "velocity": 0.7480314960629921,
          "duration": 0.06249993749997884
        },
        {
          "name": "D#6",
          "midi": 87,
          "time": 322.0148565562459,
          "velocity": 0.7480314960629921,
          "duration": 0.06249993749997884
        },
        {
          "name": "D6",
          "midi": 86,
          "time": 322.0148565562459,
          "velocity": 0.7480314960629921,
          "duration": 0.06249993749997884
        },
        {
          "name": "C6",
          "midi": 84,
          "time": 322.0148565562459,
          "velocity": 0.7480314960629921,
          "duration": 0.06249993749997884
        },
        {
          "name": "D#5",
          "midi": 75,
          "time": 322.0148565562459,
          "velocity": 0.7480314960629921,
          "duration": 0.06249993749997884
        },
        {
          "name": "D5",
          "midi": 74,
          "time": 322.0148565562459,
          "velocity": 0.7480314960629921,
          "duration": 0.06249993749997884
        },
        {
          "name": "C5",
          "midi": 72,
          "time": 322.0148565562459,
          "velocity": 0.7480314960629921,
          "duration": 0.06249993749997884
        },
        {
          "name": "D#4",
          "midi": 63,
          "time": 322.0148565562459,
          "velocity": 0.7480314960629921,
          "duration": 0.06249993749997884
        },
        {
          "name": "D4",
          "midi": 62,
          "time": 322.0148565562459,
          "velocity": 0.7480314960629921,
          "duration": 0.06249993749997884
        },
        {
          "name": "C4",
          "midi": 60,
          "time": 322.0148565562459,
          "velocity": 0.7480314960629921,
          "duration": 0.06249993749997884
        },
        {
          "name": "C4",
          "midi": 60,
          "time": 322.22914205624585,
          "velocity": 0.7480314960629921,
          "duration": 0.06249993749997884
        },
        {
          "name": "D4",
          "midi": 62,
          "time": 322.22914205624585,
          "velocity": 0.7480314960629921,
          "duration": 0.06249993749997884
        },
        {
          "name": "D#4",
          "midi": 63,
          "time": 322.22914205624585,
          "velocity": 0.7480314960629921,
          "duration": 0.06249993749997884
        },
        {
          "name": "C5",
          "midi": 72,
          "time": 322.22914205624585,
          "velocity": 0.7480314960629921,
          "duration": 0.06249993749997884
        },
        {
          "name": "D5",
          "midi": 74,
          "time": 322.22914205624585,
          "velocity": 0.7480314960629921,
          "duration": 0.06249993749997884
        },
        {
          "name": "D#5",
          "midi": 75,
          "time": 322.22914205624585,
          "velocity": 0.7480314960629921,
          "duration": 0.06249993749997884
        },
        {
          "name": "C6",
          "midi": 84,
          "time": 322.22914205624585,
          "velocity": 0.7480314960629921,
          "duration": 0.06249993749997884
        },
        {
          "name": "D6",
          "midi": 86,
          "time": 322.22914205624585,
          "velocity": 0.7480314960629921,
          "duration": 0.06249993749997884
        },
        {
          "name": "D#6",
          "midi": 87,
          "time": 322.22914205624585,
          "velocity": 0.7480314960629921,
          "duration": 0.06249993749997884
        },
        {
          "name": "C7",
          "midi": 96,
          "time": 322.22914205624585,
          "velocity": 0.7480314960629921,
          "duration": 0.06249993749997884
        },
        {
          "name": "D7",
          "midi": 98,
          "time": 322.22914205624585,
          "velocity": 0.7480314960629921,
          "duration": 0.06249993749997884
        },
        {
          "name": "D#7",
          "midi": 99,
          "time": 322.22914205624585,
          "velocity": 0.7480314960629921,
          "duration": 0.06249993749997884
        },
        {
          "name": "C#4",
          "midi": 61,
          "time": 322.55057030624585,
          "velocity": 0.7480314960629921,
          "duration": 0.06249993749997884
        },
        {
          "name": "D#4",
          "midi": 63,
          "time": 322.55057030624585,
          "velocity": 0.7480314960629921,
          "duration": 0.06249993749997884
        },
        {
          "name": "E4",
          "midi": 64,
          "time": 322.55057030624585,
          "velocity": 0.7480314960629921,
          "duration": 0.06249993749997884
        },
        {
          "name": "C#5",
          "midi": 73,
          "time": 322.55057030624585,
          "velocity": 0.7480314960629921,
          "duration": 0.06249993749997884
        },
        {
          "name": "D#5",
          "midi": 75,
          "time": 322.55057030624585,
          "velocity": 0.7480314960629921,
          "duration": 0.06249993749997884
        },
        {
          "name": "E5",
          "midi": 76,
          "time": 322.55057030624585,
          "velocity": 0.7480314960629921,
          "duration": 0.06249993749997884
        },
        {
          "name": "C#6",
          "midi": 85,
          "time": 322.55057030624585,
          "velocity": 0.7480314960629921,
          "duration": 0.06249993749997884
        },
        {
          "name": "D#6",
          "midi": 87,
          "time": 322.55057030624585,
          "velocity": 0.7480314960629921,
          "duration": 0.06249993749997884
        },
        {
          "name": "E6",
          "midi": 88,
          "time": 322.55057030624585,
          "velocity": 0.7480314960629921,
          "duration": 0.06249993749997884
        },
        {
          "name": "C#7",
          "midi": 97,
          "time": 322.55057030624585,
          "velocity": 0.7480314960629921,
          "duration": 0.06249993749997884
        },
        {
          "name": "D#7",
          "midi": 99,
          "time": 322.55057030624585,
          "velocity": 0.7480314960629921,
          "duration": 0.06249993749997884
        },
        {
          "name": "E7",
          "midi": 100,
          "time": 322.55057030624585,
          "velocity": 0.7480314960629921,
          "duration": 0.06249993749997884
        },
        {
          "name": "C#4",
          "midi": 61,
          "time": 322.9791413062458,
          "velocity": 0.7480314960629921,
          "duration": 0.06249993749997884
        },
        {
          "name": "D#4",
          "midi": 63,
          "time": 322.9791413062458,
          "velocity": 0.7480314960629921,
          "duration": 0.06249993749997884
        },
        {
          "name": "E4",
          "midi": 64,
          "time": 322.9791413062458,
          "velocity": 0.7480314960629921,
          "duration": 0.06249993749997884
        },
        {
          "name": "C#5",
          "midi": 73,
          "time": 322.9791413062458,
          "velocity": 0.7480314960629921,
          "duration": 0.06249993749997884
        },
        {
          "name": "D#5",
          "midi": 75,
          "time": 322.9791413062458,
          "velocity": 0.7480314960629921,
          "duration": 0.06249993749997884
        },
        {
          "name": "E5",
          "midi": 76,
          "time": 322.9791413062458,
          "velocity": 0.7480314960629921,
          "duration": 0.06249993749997884
        },
        {
          "name": "C#6",
          "midi": 85,
          "time": 322.9791413062458,
          "velocity": 0.7480314960629921,
          "duration": 0.06249993749997884
        },
        {
          "name": "D#6",
          "midi": 87,
          "time": 322.9791413062458,
          "velocity": 0.7480314960629921,
          "duration": 0.06249993749997884
        },
        {
          "name": "E6",
          "midi": 88,
          "time": 322.9791413062458,
          "velocity": 0.7480314960629921,
          "duration": 0.06249993749997884
        },
        {
          "name": "C#7",
          "midi": 97,
          "time": 322.9791413062458,
          "velocity": 0.7480314960629921,
          "duration": 0.06249993749997884
        },
        {
          "name": "D#7",
          "midi": 99,
          "time": 322.9791413062458,
          "velocity": 0.7480314960629921,
          "duration": 0.06249993749997884
        },
        {
          "name": "E7",
          "midi": 100,
          "time": 322.9791413062458,
          "velocity": 0.7480314960629921,
          "duration": 0.06249993749997884
        },
        {
          "name": "C#4",
          "midi": 61,
          "time": 323.4077123062458,
          "velocity": 0.7480314960629921,
          "duration": 0.4285709999999767
        },
        {
          "name": "D#4",
          "midi": 63,
          "time": 323.4077123062458,
          "velocity": 0.7480314960629921,
          "duration": 0.4285709999999767
        },
        {
          "name": "E4",
          "midi": 64,
          "time": 323.4077123062458,
          "velocity": 0.7480314960629921,
          "duration": 0.4285709999999767
        },
        {
          "name": "C#5",
          "midi": 73,
          "time": 323.4077123062458,
          "velocity": 0.7480314960629921,
          "duration": 0.4285709999999767
        },
        {
          "name": "D#5",
          "midi": 75,
          "time": 323.4077123062458,
          "velocity": 0.7480314960629921,
          "duration": 0.4285709999999767
        },
        {
          "name": "E5",
          "midi": 76,
          "time": 323.4077123062458,
          "velocity": 0.7480314960629921,
          "duration": 0.4285709999999767
        },
        {
          "name": "C#6",
          "midi": 85,
          "time": 323.4077123062458,
          "velocity": 0.7480314960629921,
          "duration": 0.4285709999999767
        },
        {
          "name": "D#6",
          "midi": 87,
          "time": 323.4077123062458,
          "velocity": 0.7480314960629921,
          "duration": 0.4285709999999767
        },
        {
          "name": "E6",
          "midi": 88,
          "time": 323.4077123062458,
          "velocity": 0.7480314960629921,
          "duration": 0.4285709999999767
        },
        {
          "name": "C#7",
          "midi": 97,
          "time": 323.4077123062458,
          "velocity": 0.7480314960629921,
          "duration": 0.4285709999999767
        },
        {
          "name": "D#7",
          "midi": 99,
          "time": 323.4077123062458,
          "velocity": 0.7480314960629921,
          "duration": 0.4285709999999767
        },
        {
          "name": "E7",
          "midi": 100,
          "time": 323.4077123062458,
          "velocity": 0.7480314960629921,
          "duration": 0.4285709999999767
        },
        {
          "name": "E7",
          "midi": 100,
          "time": 323.8362833062458,
          "velocity": 0.7480314960629921,
          "duration": 0.06249993749997884
        },
        {
          "name": "D#7",
          "midi": 99,
          "time": 323.8362833062458,
          "velocity": 0.7480314960629921,
          "duration": 0.06249993749997884
        },
        {
          "name": "C#7",
          "midi": 97,
          "time": 323.8362833062458,
          "velocity": 0.7480314960629921,
          "duration": 0.06249993749997884
        },
        {
          "name": "E6",
          "midi": 88,
          "time": 323.8362833062458,
          "velocity": 0.7480314960629921,
          "duration": 0.06249993749997884
        },
        {
          "name": "D#6",
          "midi": 87,
          "time": 323.8362833062458,
          "velocity": 0.7480314960629921,
          "duration": 0.06249993749997884
        },
        {
          "name": "C#6",
          "midi": 85,
          "time": 323.8362833062458,
          "velocity": 0.7480314960629921,
          "duration": 0.06249993749997884
        },
        {
          "name": "E5",
          "midi": 76,
          "time": 323.8362833062458,
          "velocity": 0.7480314960629921,
          "duration": 0.06249993749997884
        },
        {
          "name": "D#5",
          "midi": 75,
          "time": 323.8362833062458,
          "velocity": 0.7480314960629921,
          "duration": 0.06249993749997884
        },
        {
          "name": "C#5",
          "midi": 73,
          "time": 323.8362833062458,
          "velocity": 0.7480314960629921,
          "duration": 0.06249993749997884
        },
        {
          "name": "E4",
          "midi": 64,
          "time": 323.8362833062458,
          "velocity": 0.7480314960629921,
          "duration": 0.06249993749997884
        },
        {
          "name": "D#4",
          "midi": 63,
          "time": 323.8362833062458,
          "velocity": 0.7480314960629921,
          "duration": 0.06249993749997884
        },
        {
          "name": "C#4",
          "midi": 61,
          "time": 323.8362833062458,
          "velocity": 0.7480314960629921,
          "duration": 0.06249993749997884
        },
        {
          "name": "C#4",
          "midi": 61,
          "time": 324.05056880624574,
          "velocity": 0.7480314960629921,
          "duration": 0.06249993749997884
        },
        {
          "name": "D#4",
          "midi": 63,
          "time": 324.05056880624574,
          "velocity": 0.7480314960629921,
          "duration": 0.06249993749997884
        },
        {
          "name": "E4",
          "midi": 64,
          "time": 324.05056880624574,
          "velocity": 0.7480314960629921,
          "duration": 0.06249993749997884
        },
        {
          "name": "C#5",
          "midi": 73,
          "time": 324.05056880624574,
          "velocity": 0.7480314960629921,
          "duration": 0.06249993749997884
        },
        {
          "name": "D#5",
          "midi": 75,
          "time": 324.05056880624574,
          "velocity": 0.7480314960629921,
          "duration": 0.06249993749997884
        },
        {
          "name": "E5",
          "midi": 76,
          "time": 324.05056880624574,
          "velocity": 0.7480314960629921,
          "duration": 0.06249993749997884
        },
        {
          "name": "C#6",
          "midi": 85,
          "time": 324.05056880624574,
          "velocity": 0.7480314960629921,
          "duration": 0.06249993749997884
        },
        {
          "name": "D#6",
          "midi": 87,
          "time": 324.05056880624574,
          "velocity": 0.7480314960629921,
          "duration": 0.06249993749997884
        },
        {
          "name": "E6",
          "midi": 88,
          "time": 324.05056880624574,
          "velocity": 0.7480314960629921,
          "duration": 0.06249993749997884
        },
        {
          "name": "C#7",
          "midi": 97,
          "time": 324.05056880624574,
          "velocity": 0.7480314960629921,
          "duration": 0.06249993749997884
        },
        {
          "name": "D#7",
          "midi": 99,
          "time": 324.05056880624574,
          "velocity": 0.7480314960629921,
          "duration": 0.06249993749997884
        },
        {
          "name": "E7",
          "midi": 100,
          "time": 324.05056880624574,
          "velocity": 0.7480314960629921,
          "duration": 0.06249993749997884
        },
        {
          "name": "C#4",
          "midi": 61,
          "time": 324.4791398062457,
          "velocity": 0.7480314960629921,
          "duration": 0.06249993749997884
        },
        {
          "name": "D#4",
          "midi": 63,
          "time": 324.4791398062457,
          "velocity": 0.7480314960629921,
          "duration": 0.06249993749997884
        },
        {
          "name": "E4",
          "midi": 64,
          "time": 324.4791398062457,
          "velocity": 0.7480314960629921,
          "duration": 0.06249993749997884
        },
        {
          "name": "C#5",
          "midi": 73,
          "time": 324.4791398062457,
          "velocity": 0.7480314960629921,
          "duration": 0.06249993749997884
        },
        {
          "name": "D#5",
          "midi": 75,
          "time": 324.4791398062457,
          "velocity": 0.7480314960629921,
          "duration": 0.06249993749997884
        },
        {
          "name": "E5",
          "midi": 76,
          "time": 324.4791398062457,
          "velocity": 0.7480314960629921,
          "duration": 0.06249993749997884
        },
        {
          "name": "C#6",
          "midi": 85,
          "time": 324.4791398062457,
          "velocity": 0.7480314960629921,
          "duration": 0.06249993749997884
        },
        {
          "name": "D#6",
          "midi": 87,
          "time": 324.4791398062457,
          "velocity": 0.7480314960629921,
          "duration": 0.06249993749997884
        },
        {
          "name": "E6",
          "midi": 88,
          "time": 324.4791398062457,
          "velocity": 0.7480314960629921,
          "duration": 0.06249993749997884
        },
        {
          "name": "C#7",
          "midi": 97,
          "time": 324.4791398062457,
          "velocity": 0.7480314960629921,
          "duration": 0.06249993749997884
        },
        {
          "name": "D#7",
          "midi": 99,
          "time": 324.4791398062457,
          "velocity": 0.7480314960629921,
          "duration": 0.06249993749997884
        },
        {
          "name": "E7",
          "midi": 100,
          "time": 324.4791398062457,
          "velocity": 0.7480314960629921,
          "duration": 0.06249993749997884
        },
        {
          "name": "C#4",
          "midi": 61,
          "time": 324.6934253062457,
          "velocity": 0.7480314960629921,
          "duration": 0.06249993749997884
        },
        {
          "name": "D#4",
          "midi": 63,
          "time": 324.6934253062457,
          "velocity": 0.7480314960629921,
          "duration": 0.06249993749997884
        },
        {
          "name": "E4",
          "midi": 64,
          "time": 324.6934253062457,
          "velocity": 0.7480314960629921,
          "duration": 0.06249993749997884
        },
        {
          "name": "C#5",
          "midi": 73,
          "time": 324.6934253062457,
          "velocity": 0.7480314960629921,
          "duration": 0.06249993749997884
        },
        {
          "name": "D#5",
          "midi": 75,
          "time": 324.6934253062457,
          "velocity": 0.7480314960629921,
          "duration": 0.06249993749997884
        },
        {
          "name": "E5",
          "midi": 76,
          "time": 324.6934253062457,
          "velocity": 0.7480314960629921,
          "duration": 0.06249993749997884
        },
        {
          "name": "C#6",
          "midi": 85,
          "time": 324.6934253062457,
          "velocity": 0.7480314960629921,
          "duration": 0.06249993749997884
        },
        {
          "name": "D#6",
          "midi": 87,
          "time": 324.6934253062457,
          "velocity": 0.7480314960629921,
          "duration": 0.06249993749997884
        },
        {
          "name": "E6",
          "midi": 88,
          "time": 324.6934253062457,
          "velocity": 0.7480314960629921,
          "duration": 0.06249993749997884
        },
        {
          "name": "C#7",
          "midi": 97,
          "time": 324.6934253062457,
          "velocity": 0.7480314960629921,
          "duration": 0.06249993749997884
        },
        {
          "name": "D#7",
          "midi": 99,
          "time": 324.6934253062457,
          "velocity": 0.7480314960629921,
          "duration": 0.06249993749997884
        },
        {
          "name": "E7",
          "midi": 100,
          "time": 324.6934253062457,
          "velocity": 0.7480314960629921,
          "duration": 0.06249993749997884
        },
        {
          "name": "C#4",
          "midi": 61,
          "time": 325.12199630624565,
          "velocity": 0.7480314960629921,
          "duration": 0.4285709999999767
        },
        {
          "name": "D#4",
          "midi": 63,
          "time": 325.12199630624565,
          "velocity": 0.7480314960629921,
          "duration": 0.4285709999999767
        },
        {
          "name": "E4",
          "midi": 64,
          "time": 325.12199630624565,
          "velocity": 0.7480314960629921,
          "duration": 0.4285709999999767
        },
        {
          "name": "C#5",
          "midi": 73,
          "time": 325.12199630624565,
          "velocity": 0.7480314960629921,
          "duration": 0.4285709999999767
        },
        {
          "name": "D#5",
          "midi": 75,
          "time": 325.12199630624565,
          "velocity": 0.7480314960629921,
          "duration": 0.4285709999999767
        },
        {
          "name": "E5",
          "midi": 76,
          "time": 325.12199630624565,
          "velocity": 0.7480314960629921,
          "duration": 0.4285709999999767
        },
        {
          "name": "C#6",
          "midi": 85,
          "time": 325.12199630624565,
          "velocity": 0.7480314960629921,
          "duration": 0.4285709999999767
        },
        {
          "name": "D#6",
          "midi": 87,
          "time": 325.12199630624565,
          "velocity": 0.7480314960629921,
          "duration": 0.4285709999999767
        },
        {
          "name": "E6",
          "midi": 88,
          "time": 325.12199630624565,
          "velocity": 0.7480314960629921,
          "duration": 0.4285709999999767
        },
        {
          "name": "C#7",
          "midi": 97,
          "time": 325.12199630624565,
          "velocity": 0.7480314960629921,
          "duration": 0.4285709999999767
        },
        {
          "name": "D#7",
          "midi": 99,
          "time": 325.12199630624565,
          "velocity": 0.7480314960629921,
          "duration": 0.4285709999999767
        },
        {
          "name": "E7",
          "midi": 100,
          "time": 325.12199630624565,
          "velocity": 0.7480314960629921,
          "duration": 0.4285709999999767
        },
        {
          "name": "E7",
          "midi": 100,
          "time": 325.5505673062456,
          "velocity": 0.7480314960629921,
          "duration": 0.06249993749997884
        },
        {
          "name": "D#7",
          "midi": 99,
          "time": 325.5505673062456,
          "velocity": 0.7480314960629921,
          "duration": 0.06249993749997884
        },
        {
          "name": "C#7",
          "midi": 97,
          "time": 325.5505673062456,
          "velocity": 0.7480314960629921,
          "duration": 0.06249993749997884
        },
        {
          "name": "E6",
          "midi": 88,
          "time": 325.5505673062456,
          "velocity": 0.7480314960629921,
          "duration": 0.06249993749997884
        },
        {
          "name": "D#6",
          "midi": 87,
          "time": 325.5505673062456,
          "velocity": 0.7480314960629921,
          "duration": 0.06249993749997884
        },
        {
          "name": "C#6",
          "midi": 85,
          "time": 325.5505673062456,
          "velocity": 0.7480314960629921,
          "duration": 0.06249993749997884
        },
        {
          "name": "E5",
          "midi": 76,
          "time": 325.5505673062456,
          "velocity": 0.7480314960629921,
          "duration": 0.06249993749997884
        },
        {
          "name": "D#5",
          "midi": 75,
          "time": 325.5505673062456,
          "velocity": 0.7480314960629921,
          "duration": 0.06249993749997884
        },
        {
          "name": "C#5",
          "midi": 73,
          "time": 325.5505673062456,
          "velocity": 0.7480314960629921,
          "duration": 0.06249993749997884
        },
        {
          "name": "E4",
          "midi": 64,
          "time": 325.5505673062456,
          "velocity": 0.7480314960629921,
          "duration": 0.06249993749997884
        },
        {
          "name": "D#4",
          "midi": 63,
          "time": 325.5505673062456,
          "velocity": 0.7480314960629921,
          "duration": 0.06249993749997884
        },
        {
          "name": "C#4",
          "midi": 61,
          "time": 325.5505673062456,
          "velocity": 0.7480314960629921,
          "duration": 0.06249993749997884
        },
        {
          "name": "C#4",
          "midi": 61,
          "time": 325.7586028124956,
          "velocity": 0.7480314960629921,
          "duration": 0.06249993749997884
        },
        {
          "name": "C#5",
          "midi": 73,
          "time": 325.7586028124956,
          "velocity": 0.7480314960629921,
          "duration": 0.06249993749997884
        },
        {
          "name": "C#6",
          "midi": 85,
          "time": 325.7586028124956,
          "velocity": 0.7480314960629921,
          "duration": 0.06249993749997884
        },
        {
          "name": "C#7",
          "midi": 97,
          "time": 325.7586028124956,
          "velocity": 0.7480314960629921,
          "duration": 0.06249993749997884
        },
        {
          "name": "D#4",
          "midi": 63,
          "time": 325.7648528062456,
          "velocity": 0.7480314960629921,
          "duration": 0.06249993749997884
        },
        {
          "name": "E4",
          "midi": 64,
          "time": 325.7648528062456,
          "velocity": 0.7480314960629921,
          "duration": 0.06249993749997884
        },
        {
          "name": "D#5",
          "midi": 75,
          "time": 325.7648528062456,
          "velocity": 0.7480314960629921,
          "duration": 0.06249993749997884
        },
        {
          "name": "E5",
          "midi": 76,
          "time": 325.7648528062456,
          "velocity": 0.7480314960629921,
          "duration": 0.06249993749997884
        },
        {
          "name": "D#6",
          "midi": 87,
          "time": 325.7648528062456,
          "velocity": 0.7480314960629921,
          "duration": 0.06249993749997884
        },
        {
          "name": "E6",
          "midi": 88,
          "time": 325.7648528062456,
          "velocity": 0.7480314960629921,
          "duration": 0.06249993749997884
        },
        {
          "name": "D#7",
          "midi": 99,
          "time": 325.7648528062456,
          "velocity": 0.7480314960629921,
          "duration": 0.06249993749997884
        },
        {
          "name": "E7",
          "midi": 100,
          "time": 325.7648528062456,
          "velocity": 0.7480314960629921,
          "duration": 0.06249993749997884
        },
        {
          "name": "C4",
          "midi": 60,
          "time": 325.87199555624557,
          "velocity": 0.7480314960629921,
          "duration": 0.06249993749997884
        },
        {
          "name": "D4",
          "midi": 62,
          "time": 325.87199555624557,
          "velocity": 0.7480314960629921,
          "duration": 0.06249993749997884
        },
        {
          "name": "D#4",
          "midi": 63,
          "time": 325.87199555624557,
          "velocity": 0.7480314960629921,
          "duration": 0.06249993749997884
        },
        {
          "name": "C5",
          "midi": 72,
          "time": 325.87199555624557,
          "velocity": 0.7480314960629921,
          "duration": 0.06249993749997884
        },
        {
          "name": "D5",
          "midi": 74,
          "time": 325.87199555624557,
          "velocity": 0.7480314960629921,
          "duration": 0.06249993749997884
        },
        {
          "name": "D#5",
          "midi": 75,
          "time": 325.87199555624557,
          "velocity": 0.7480314960629921,
          "duration": 0.06249993749997884
        },
        {
          "name": "C6",
          "midi": 84,
          "time": 325.87199555624557,
          "velocity": 0.7480314960629921,
          "duration": 0.06249993749997884
        },
        {
          "name": "D6",
          "midi": 86,
          "time": 325.87199555624557,
          "velocity": 0.7480314960629921,
          "duration": 0.06249993749997884
        },
        {
          "name": "D#6",
          "midi": 87,
          "time": 325.87199555624557,
          "velocity": 0.7480314960629921,
          "duration": 0.06249993749997884
        },
        {
          "name": "C7",
          "midi": 96,
          "time": 325.87199555624557,
          "velocity": 0.7480314960629921,
          "duration": 0.06249993749997884
        },
        {
          "name": "D7",
          "midi": 98,
          "time": 325.87199555624557,
          "velocity": 0.7480314960629921,
          "duration": 0.06249993749997884
        },
        {
          "name": "D#7",
          "midi": 99,
          "time": 325.87199555624557,
          "velocity": 0.7480314960629921,
          "duration": 0.06249993749997884
        },
        {
          "name": "C4",
          "midi": 60,
          "time": 326.30056655624554,
          "velocity": 0.7480314960629921,
          "duration": 0.06249993749997884
        },
        {
          "name": "D4",
          "midi": 62,
          "time": 326.30056655624554,
          "velocity": 0.7480314960629921,
          "duration": 0.06249993749997884
        },
        {
          "name": "D#4",
          "midi": 63,
          "time": 326.30056655624554,
          "velocity": 0.7480314960629921,
          "duration": 0.06249993749997884
        },
        {
          "name": "C5",
          "midi": 72,
          "time": 326.30056655624554,
          "velocity": 0.7480314960629921,
          "duration": 0.06249993749997884
        },
        {
          "name": "D5",
          "midi": 74,
          "time": 326.30056655624554,
          "velocity": 0.7480314960629921,
          "duration": 0.06249993749997884
        },
        {
          "name": "D#5",
          "midi": 75,
          "time": 326.30056655624554,
          "velocity": 0.7480314960629921,
          "duration": 0.06249993749997884
        },
        {
          "name": "C6",
          "midi": 84,
          "time": 326.30056655624554,
          "velocity": 0.7480314960629921,
          "duration": 0.06249993749997884
        },
        {
          "name": "D6",
          "midi": 86,
          "time": 326.30056655624554,
          "velocity": 0.7480314960629921,
          "duration": 0.06249993749997884
        },
        {
          "name": "D#6",
          "midi": 87,
          "time": 326.30056655624554,
          "velocity": 0.7480314960629921,
          "duration": 0.06249993749997884
        },
        {
          "name": "C7",
          "midi": 96,
          "time": 326.30056655624554,
          "velocity": 0.7480314960629921,
          "duration": 0.06249993749997884
        },
        {
          "name": "D7",
          "midi": 98,
          "time": 326.30056655624554,
          "velocity": 0.7480314960629921,
          "duration": 0.06249993749997884
        },
        {
          "name": "D#7",
          "midi": 99,
          "time": 326.30056655624554,
          "velocity": 0.7480314960629921,
          "duration": 0.06249993749997884
        },
        {
          "name": "C4",
          "midi": 60,
          "time": 326.7291375562455,
          "velocity": 0.7480314960629921,
          "duration": 0.4285709999999767
        },
        {
          "name": "D4",
          "midi": 62,
          "time": 326.7291375562455,
          "velocity": 0.7480314960629921,
          "duration": 0.4285709999999767
        },
        {
          "name": "D#4",
          "midi": 63,
          "time": 326.7291375562455,
          "velocity": 0.7480314960629921,
          "duration": 0.4285709999999767
        },
        {
          "name": "C5",
          "midi": 72,
          "time": 326.7291375562455,
          "velocity": 0.7480314960629921,
          "duration": 0.4285709999999767
        },
        {
          "name": "D5",
          "midi": 74,
          "time": 326.7291375562455,
          "velocity": 0.7480314960629921,
          "duration": 0.4285709999999767
        },
        {
          "name": "D#5",
          "midi": 75,
          "time": 326.7291375562455,
          "velocity": 0.7480314960629921,
          "duration": 0.4285709999999767
        },
        {
          "name": "C6",
          "midi": 84,
          "time": 326.7291375562455,
          "velocity": 0.7480314960629921,
          "duration": 0.4285709999999767
        },
        {
          "name": "D6",
          "midi": 86,
          "time": 326.7291375562455,
          "velocity": 0.7480314960629921,
          "duration": 0.4285709999999767
        },
        {
          "name": "D#6",
          "midi": 87,
          "time": 326.7291375562455,
          "velocity": 0.7480314960629921,
          "duration": 0.4285709999999767
        },
        {
          "name": "C7",
          "midi": 96,
          "time": 326.7291375562455,
          "velocity": 0.7480314960629921,
          "duration": 0.4285709999999767
        },
        {
          "name": "D7",
          "midi": 98,
          "time": 326.7291375562455,
          "velocity": 0.7480314960629921,
          "duration": 0.4285709999999767
        },
        {
          "name": "D#7",
          "midi": 99,
          "time": 326.7291375562455,
          "velocity": 0.7480314960629921,
          "duration": 0.4285709999999767
        },
        {
          "name": "D#7",
          "midi": 99,
          "time": 327.1577085562455,
          "velocity": 0.7480314960629921,
          "duration": 0.06249993749997884
        },
        {
          "name": "D7",
          "midi": 98,
          "time": 327.1577085562455,
          "velocity": 0.7480314960629921,
          "duration": 0.06249993749997884
        },
        {
          "name": "C7",
          "midi": 96,
          "time": 327.1577085562455,
          "velocity": 0.7480314960629921,
          "duration": 0.06249993749997884
        },
        {
          "name": "D#6",
          "midi": 87,
          "time": 327.1577085562455,
          "velocity": 0.7480314960629921,
          "duration": 0.06249993749997884
        },
        {
          "name": "D6",
          "midi": 86,
          "time": 327.1577085562455,
          "velocity": 0.7480314960629921,
          "duration": 0.06249993749997884
        },
        {
          "name": "C6",
          "midi": 84,
          "time": 327.1577085562455,
          "velocity": 0.7480314960629921,
          "duration": 0.06249993749997884
        },
        {
          "name": "D#5",
          "midi": 75,
          "time": 327.1577085562455,
          "velocity": 0.7480314960629921,
          "duration": 0.06249993749997884
        },
        {
          "name": "D5",
          "midi": 74,
          "time": 327.1577085562455,
          "velocity": 0.7480314960629921,
          "duration": 0.06249993749997884
        },
        {
          "name": "C5",
          "midi": 72,
          "time": 327.1577085562455,
          "velocity": 0.7480314960629921,
          "duration": 0.06249993749997884
        },
        {
          "name": "D#4",
          "midi": 63,
          "time": 327.1577085562455,
          "velocity": 0.7480314960629921,
          "duration": 0.06249993749997884
        },
        {
          "name": "D4",
          "midi": 62,
          "time": 327.1577085562455,
          "velocity": 0.7480314960629921,
          "duration": 0.06249993749997884
        },
        {
          "name": "C4",
          "midi": 60,
          "time": 327.1577085562455,
          "velocity": 0.7480314960629921,
          "duration": 0.06249993749997884
        },
        {
          "name": "C4",
          "midi": 60,
          "time": 327.37199405624546,
          "velocity": 0.7480314960629921,
          "duration": 0.06249993749997884
        },
        {
          "name": "D4",
          "midi": 62,
          "time": 327.37199405624546,
          "velocity": 0.7480314960629921,
          "duration": 0.06249993749997884
        },
        {
          "name": "D#4",
          "midi": 63,
          "time": 327.37199405624546,
          "velocity": 0.7480314960629921,
          "duration": 0.06249993749997884
        },
        {
          "name": "C5",
          "midi": 72,
          "time": 327.37199405624546,
          "velocity": 0.7480314960629921,
          "duration": 0.06249993749997884
        },
        {
          "name": "D5",
          "midi": 74,
          "time": 327.37199405624546,
          "velocity": 0.7480314960629921,
          "duration": 0.06249993749997884
        },
        {
          "name": "D#5",
          "midi": 75,
          "time": 327.37199405624546,
          "velocity": 0.7480314960629921,
          "duration": 0.06249993749997884
        },
        {
          "name": "C6",
          "midi": 84,
          "time": 327.37199405624546,
          "velocity": 0.7480314960629921,
          "duration": 0.06249993749997884
        },
        {
          "name": "D6",
          "midi": 86,
          "time": 327.37199405624546,
          "velocity": 0.7480314960629921,
          "duration": 0.06249993749997884
        },
        {
          "name": "D#6",
          "midi": 87,
          "time": 327.37199405624546,
          "velocity": 0.7480314960629921,
          "duration": 0.06249993749997884
        },
        {
          "name": "C7",
          "midi": 96,
          "time": 327.37199405624546,
          "velocity": 0.7480314960629921,
          "duration": 0.06249993749997884
        },
        {
          "name": "D7",
          "midi": 98,
          "time": 327.37199405624546,
          "velocity": 0.7480314960629921,
          "duration": 0.06249993749997884
        },
        {
          "name": "D#7",
          "midi": 99,
          "time": 327.37199405624546,
          "velocity": 0.7480314960629921,
          "duration": 0.06249993749997884
        },
        {
          "name": "C#4",
          "midi": 61,
          "time": 327.80056505624543,
          "velocity": 0.7480314960629921,
          "duration": 0.21428550000001678
        },
        {
          "name": "D4",
          "midi": 62,
          "time": 327.80056505624543,
          "velocity": 0.7480314960629921,
          "duration": 0.21428550000001678
        },
        {
          "name": "D#4",
          "midi": 63,
          "time": 327.80056505624543,
          "velocity": 0.7480314960629921,
          "duration": 0.21428550000001678
        },
        {
          "name": "C#5",
          "midi": 73,
          "time": 327.80056505624543,
          "velocity": 0.7480314960629921,
          "duration": 0.21428550000001678
        },
        {
          "name": "D5",
          "midi": 74,
          "time": 327.80056505624543,
          "velocity": 0.7480314960629921,
          "duration": 0.21428550000001678
        },
        {
          "name": "D#5",
          "midi": 75,
          "time": 327.80056505624543,
          "velocity": 0.7480314960629921,
          "duration": 0.21428550000001678
        },
        {
          "name": "C#6",
          "midi": 85,
          "time": 327.80056505624543,
          "velocity": 0.7480314960629921,
          "duration": 0.21428550000001678
        },
        {
          "name": "D6",
          "midi": 86,
          "time": 327.80056505624543,
          "velocity": 0.7480314960629921,
          "duration": 0.21428550000001678
        },
        {
          "name": "D#6",
          "midi": 87,
          "time": 327.80056505624543,
          "velocity": 0.7480314960629921,
          "duration": 0.21428550000001678
        },
        {
          "name": "C#7",
          "midi": 97,
          "time": 327.80056505624543,
          "velocity": 0.7480314960629921,
          "duration": 0.21428550000001678
        },
        {
          "name": "D7",
          "midi": 98,
          "time": 327.80056505624543,
          "velocity": 0.7480314960629921,
          "duration": 0.21428550000001678
        },
        {
          "name": "D#7",
          "midi": 99,
          "time": 327.80056505624543,
          "velocity": 0.7480314960629921,
          "duration": 0.21428550000001678
        },
        {
          "name": "D#7",
          "midi": 99,
          "time": 328.01485055624545,
          "velocity": 0.7480314960629921,
          "duration": 0.06249993749997884
        },
        {
          "name": "D7",
          "midi": 98,
          "time": 328.01485055624545,
          "velocity": 0.7480314960629921,
          "duration": 0.06249993749997884
        },
        {
          "name": "C#7",
          "midi": 97,
          "time": 328.01485055624545,
          "velocity": 0.7480314960629921,
          "duration": 0.06249993749997884
        },
        {
          "name": "D#6",
          "midi": 87,
          "time": 328.01485055624545,
          "velocity": 0.7480314960629921,
          "duration": 0.06249993749997884
        },
        {
          "name": "D6",
          "midi": 86,
          "time": 328.01485055624545,
          "velocity": 0.7480314960629921,
          "duration": 0.06249993749997884
        },
        {
          "name": "C#6",
          "midi": 85,
          "time": 328.01485055624545,
          "velocity": 0.7480314960629921,
          "duration": 0.06249993749997884
        },
        {
          "name": "D#5",
          "midi": 75,
          "time": 328.01485055624545,
          "velocity": 0.7480314960629921,
          "duration": 0.06249993749997884
        },
        {
          "name": "D5",
          "midi": 74,
          "time": 328.01485055624545,
          "velocity": 0.7480314960629921,
          "duration": 0.06249993749997884
        },
        {
          "name": "C#5",
          "midi": 73,
          "time": 328.01485055624545,
          "velocity": 0.7480314960629921,
          "duration": 0.06249993749997884
        },
        {
          "name": "D#4",
          "midi": 63,
          "time": 328.01485055624545,
          "velocity": 0.7480314960629921,
          "duration": 0.06249993749997884
        },
        {
          "name": "D4",
          "midi": 62,
          "time": 328.01485055624545,
          "velocity": 0.7480314960629921,
          "duration": 0.06249993749997884
        },
        {
          "name": "C#4",
          "midi": 61,
          "time": 328.01485055624545,
          "velocity": 0.7480314960629921,
          "duration": 0.06249993749997884
        },
        {
          "name": "C#4",
          "midi": 61,
          "time": 328.4434215562454,
          "velocity": 0.7480314960629921,
          "duration": 0.4285709999999767
        },
        {
          "name": "D4",
          "midi": 62,
          "time": 328.4434215562454,
          "velocity": 0.7480314960629921,
          "duration": 0.4285709999999767
        },
        {
          "name": "D#4",
          "midi": 63,
          "time": 328.4434215562454,
          "velocity": 0.7480314960629921,
          "duration": 0.4285709999999767
        },
        {
          "name": "C#5",
          "midi": 73,
          "time": 328.4434215562454,
          "velocity": 0.7480314960629921,
          "duration": 0.4285709999999767
        },
        {
          "name": "D5",
          "midi": 74,
          "time": 328.4434215562454,
          "velocity": 0.7480314960629921,
          "duration": 0.4285709999999767
        },
        {
          "name": "D#5",
          "midi": 75,
          "time": 328.4434215562454,
          "velocity": 0.7480314960629921,
          "duration": 0.4285709999999767
        },
        {
          "name": "C#6",
          "midi": 85,
          "time": 328.4434215562454,
          "velocity": 0.7480314960629921,
          "duration": 0.4285709999999767
        },
        {
          "name": "D6",
          "midi": 86,
          "time": 328.4434215562454,
          "velocity": 0.7480314960629921,
          "duration": 0.4285709999999767
        },
        {
          "name": "D#6",
          "midi": 87,
          "time": 328.4434215562454,
          "velocity": 0.7480314960629921,
          "duration": 0.4285709999999767
        },
        {
          "name": "C#7",
          "midi": 97,
          "time": 328.4434215562454,
          "velocity": 0.7480314960629921,
          "duration": 0.4285709999999767
        },
        {
          "name": "D7",
          "midi": 98,
          "time": 328.4434215562454,
          "velocity": 0.7480314960629921,
          "duration": 0.4285709999999767
        },
        {
          "name": "D#7",
          "midi": 99,
          "time": 328.4434215562454,
          "velocity": 0.7480314960629921,
          "duration": 0.4285709999999767
        },
        {
          "name": "D#7",
          "midi": 99,
          "time": 328.8719925562454,
          "velocity": 0.7480314960629921,
          "duration": 0.06249993749997884
        },
        {
          "name": "D7",
          "midi": 98,
          "time": 328.8719925562454,
          "velocity": 0.7480314960629921,
          "duration": 0.06249993749997884
        },
        {
          "name": "C#7",
          "midi": 97,
          "time": 328.8719925562454,
          "velocity": 0.7480314960629921,
          "duration": 0.06249993749997884
        },
        {
          "name": "D#6",
          "midi": 87,
          "time": 328.8719925562454,
          "velocity": 0.7480314960629921,
          "duration": 0.06249993749997884
        },
        {
          "name": "D6",
          "midi": 86,
          "time": 328.8719925562454,
          "velocity": 0.7480314960629921,
          "duration": 0.06249993749997884
        },
        {
          "name": "C#6",
          "midi": 85,
          "time": 328.8719925562454,
          "velocity": 0.7480314960629921,
          "duration": 0.06249993749997884
        },
        {
          "name": "D#5",
          "midi": 75,
          "time": 328.8719925562454,
          "velocity": 0.7480314960629921,
          "duration": 0.06249993749997884
        },
        {
          "name": "D5",
          "midi": 74,
          "time": 328.8719925562454,
          "velocity": 0.7480314960629921,
          "duration": 0.06249993749997884
        },
        {
          "name": "C#5",
          "midi": 73,
          "time": 328.8719925562454,
          "velocity": 0.7480314960629921,
          "duration": 0.06249993749997884
        },
        {
          "name": "D#4",
          "midi": 63,
          "time": 328.8719925562454,
          "velocity": 0.7480314960629921,
          "duration": 0.06249993749997884
        },
        {
          "name": "D4",
          "midi": 62,
          "time": 328.8719925562454,
          "velocity": 0.7480314960629921,
          "duration": 0.06249993749997884
        },
        {
          "name": "C#4",
          "midi": 61,
          "time": 328.8719925562454,
          "velocity": 0.7480314960629921,
          "duration": 0.06249993749997884
        },
        {
          "name": "C#4",
          "midi": 61,
          "time": 329.08627805624536,
          "velocity": 0.7480314960629921,
          "duration": 0.06249993749997884
        },
        {
          "name": "D4",
          "midi": 62,
          "time": 329.08627805624536,
          "velocity": 0.7480314960629921,
          "duration": 0.06249993749997884
        },
        {
          "name": "D#4",
          "midi": 63,
          "time": 329.08627805624536,
          "velocity": 0.7480314960629921,
          "duration": 0.06249993749997884
        },
        {
          "name": "C#5",
          "midi": 73,
          "time": 329.08627805624536,
          "velocity": 0.7480314960629921,
          "duration": 0.06249993749997884
        },
        {
          "name": "D5",
          "midi": 74,
          "time": 329.08627805624536,
          "velocity": 0.7480314960629921,
          "duration": 0.06249993749997884
        },
        {
          "name": "D#5",
          "midi": 75,
          "time": 329.08627805624536,
          "velocity": 0.7480314960629921,
          "duration": 0.06249993749997884
        },
        {
          "name": "C#6",
          "midi": 85,
          "time": 329.08627805624536,
          "velocity": 0.7480314960629921,
          "duration": 0.06249993749997884
        },
        {
          "name": "D6",
          "midi": 86,
          "time": 329.08627805624536,
          "velocity": 0.7480314960629921,
          "duration": 0.06249993749997884
        },
        {
          "name": "D#6",
          "midi": 87,
          "time": 329.08627805624536,
          "velocity": 0.7480314960629921,
          "duration": 0.06249993749997884
        },
        {
          "name": "C#7",
          "midi": 97,
          "time": 329.08627805624536,
          "velocity": 0.7480314960629921,
          "duration": 0.06249993749997884
        },
        {
          "name": "D7",
          "midi": 98,
          "time": 329.08627805624536,
          "velocity": 0.7480314960629921,
          "duration": 0.06249993749997884
        },
        {
          "name": "D#7",
          "midi": 99,
          "time": 329.08627805624536,
          "velocity": 0.7480314960629921,
          "duration": 0.06249993749997884
        },
        {
          "name": "C#4",
          "midi": 61,
          "time": 384.1576515562453,
          "velocity": 0.7480314960629921,
          "duration": 0.8571420000000103
        },
        {
          "name": "D#4",
          "midi": 63,
          "time": 384.1576515562453,
          "velocity": 0.7480314960629921,
          "duration": 0.8571420000000103
        },
        {
          "name": "E4",
          "midi": 64,
          "time": 384.1576515562453,
          "velocity": 0.7480314960629921,
          "duration": 0.8571420000000103
        },
        {
          "name": "C#5",
          "midi": 73,
          "time": 384.1576515562453,
          "velocity": 0.7480314960629921,
          "duration": 0.8571420000000103
        },
        {
          "name": "D#5",
          "midi": 75,
          "time": 384.1576515562453,
          "velocity": 0.7480314960629921,
          "duration": 0.8571420000000103
        },
        {
          "name": "E5",
          "midi": 76,
          "time": 384.1576515562453,
          "velocity": 0.7480314960629921,
          "duration": 0.8571420000000103
        },
        {
          "name": "C#6",
          "midi": 85,
          "time": 384.1576515562453,
          "velocity": 0.7480314960629921,
          "duration": 0.8571420000000103
        },
        {
          "name": "D#6",
          "midi": 87,
          "time": 384.1576515562453,
          "velocity": 0.7480314960629921,
          "duration": 0.8571420000000103
        },
        {
          "name": "E6",
          "midi": 88,
          "time": 384.1576515562453,
          "velocity": 0.7480314960629921,
          "duration": 0.8571420000000103
        },
        {
          "name": "C#7",
          "midi": 97,
          "time": 384.1576515562453,
          "velocity": 0.7480314960629921,
          "duration": 0.8571420000000103
        },
        {
          "name": "D#7",
          "midi": 99,
          "time": 384.1576515562453,
          "velocity": 0.7480314960629921,
          "duration": 0.8571420000000103
        },
        {
          "name": "E7",
          "midi": 100,
          "time": 384.1576515562453,
          "velocity": 0.7480314960629921,
          "duration": 0.8571420000000103
        },
        {
          "name": "E7",
          "midi": 100,
          "time": 385.0147935562453,
          "velocity": 0.7480314960629921,
          "duration": 0.4285709999999767
        },
        {
          "name": "D#7",
          "midi": 99,
          "time": 385.0147935562453,
          "velocity": 0.7480314960629921,
          "duration": 0.4285709999999767
        },
        {
          "name": "C#7",
          "midi": 97,
          "time": 385.0147935562453,
          "velocity": 0.7480314960629921,
          "duration": 0.4285709999999767
        },
        {
          "name": "E6",
          "midi": 88,
          "time": 385.0147935562453,
          "velocity": 0.7480314960629921,
          "duration": 0.4285709999999767
        },
        {
          "name": "D#6",
          "midi": 87,
          "time": 385.0147935562453,
          "velocity": 0.7480314960629921,
          "duration": 0.4285709999999767
        },
        {
          "name": "C#6",
          "midi": 85,
          "time": 385.0147935562453,
          "velocity": 0.7480314960629921,
          "duration": 0.4285709999999767
        },
        {
          "name": "E5",
          "midi": 76,
          "time": 385.0147935562453,
          "velocity": 0.7480314960629921,
          "duration": 0.4285709999999767
        },
        {
          "name": "D#5",
          "midi": 75,
          "time": 385.0147935562453,
          "velocity": 0.7480314960629921,
          "duration": 0.4285709999999767
        },
        {
          "name": "C#5",
          "midi": 73,
          "time": 385.0147935562453,
          "velocity": 0.7480314960629921,
          "duration": 0.4285709999999767
        },
        {
          "name": "E4",
          "midi": 64,
          "time": 385.0147935562453,
          "velocity": 0.7480314960629921,
          "duration": 0.4285709999999767
        },
        {
          "name": "D#4",
          "midi": 63,
          "time": 385.0147935562453,
          "velocity": 0.7480314960629921,
          "duration": 0.4285709999999767
        },
        {
          "name": "C#4",
          "midi": 61,
          "time": 385.0147935562453,
          "velocity": 0.7480314960629921,
          "duration": 0.4285709999999767
        },
        {
          "name": "E7",
          "midi": 100,
          "time": 385.4433645562453,
          "velocity": 0.7480314960629921,
          "duration": 0.21428550000001678
        },
        {
          "name": "D#7",
          "midi": 99,
          "time": 385.4433645562453,
          "velocity": 0.7480314960629921,
          "duration": 0.21428550000001678
        },
        {
          "name": "C#7",
          "midi": 97,
          "time": 385.4433645562453,
          "velocity": 0.7480314960629921,
          "duration": 0.21428550000001678
        },
        {
          "name": "E6",
          "midi": 88,
          "time": 385.4433645562453,
          "velocity": 0.7480314960629921,
          "duration": 0.21428550000001678
        },
        {
          "name": "D#6",
          "midi": 87,
          "time": 385.4433645562453,
          "velocity": 0.7480314960629921,
          "duration": 0.21428550000001678
        },
        {
          "name": "C#6",
          "midi": 85,
          "time": 385.4433645562453,
          "velocity": 0.7480314960629921,
          "duration": 0.21428550000001678
        },
        {
          "name": "E5",
          "midi": 76,
          "time": 385.4433645562453,
          "velocity": 0.7480314960629921,
          "duration": 0.21428550000001678
        },
        {
          "name": "D#5",
          "midi": 75,
          "time": 385.4433645562453,
          "velocity": 0.7480314960629921,
          "duration": 0.21428550000001678
        },
        {
          "name": "C#5",
          "midi": 73,
          "time": 385.4433645562453,
          "velocity": 0.7480314960629921,
          "duration": 0.21428550000001678
        },
        {
          "name": "E4",
          "midi": 64,
          "time": 385.4433645562453,
          "velocity": 0.7480314960629921,
          "duration": 0.21428550000001678
        },
        {
          "name": "D#4",
          "midi": 63,
          "time": 385.4433645562453,
          "velocity": 0.7480314960629921,
          "duration": 0.21428550000001678
        },
        {
          "name": "C#4",
          "midi": 61,
          "time": 385.4433645562453,
          "velocity": 0.7480314960629921,
          "duration": 0.21428550000001678
        },
        {
          "name": "E7",
          "midi": 100,
          "time": 385.6576500562453,
          "velocity": 0.7480314960629921,
          "duration": 0.21428550000001678
        },
        {
          "name": "D#7",
          "midi": 99,
          "time": 385.6576500562453,
          "velocity": 0.7480314960629921,
          "duration": 0.21428550000001678
        },
        {
          "name": "C#7",
          "midi": 97,
          "time": 385.6576500562453,
          "velocity": 0.7480314960629921,
          "duration": 0.21428550000001678
        },
        {
          "name": "E6",
          "midi": 88,
          "time": 385.6576500562453,
          "velocity": 0.7480314960629921,
          "duration": 0.21428550000001678
        },
        {
          "name": "D#6",
          "midi": 87,
          "time": 385.6576500562453,
          "velocity": 0.7480314960629921,
          "duration": 0.21428550000001678
        },
        {
          "name": "C#6",
          "midi": 85,
          "time": 385.6576500562453,
          "velocity": 0.7480314960629921,
          "duration": 0.21428550000001678
        },
        {
          "name": "E5",
          "midi": 76,
          "time": 385.6576500562453,
          "velocity": 0.7480314960629921,
          "duration": 0.21428550000001678
        },
        {
          "name": "D#5",
          "midi": 75,
          "time": 385.6576500562453,
          "velocity": 0.7480314960629921,
          "duration": 0.21428550000001678
        },
        {
          "name": "C#5",
          "midi": 73,
          "time": 385.6576500562453,
          "velocity": 0.7480314960629921,
          "duration": 0.21428550000001678
        },
        {
          "name": "E4",
          "midi": 64,
          "time": 385.6576500562453,
          "velocity": 0.7480314960629921,
          "duration": 0.21428550000001678
        },
        {
          "name": "D#4",
          "midi": 63,
          "time": 385.6576500562453,
          "velocity": 0.7480314960629921,
          "duration": 0.21428550000001678
        },
        {
          "name": "C#4",
          "midi": 61,
          "time": 385.6576500562453,
          "velocity": 0.7480314960629921,
          "duration": 0.21428550000001678
        },
        {
          "name": "D#7",
          "midi": 99,
          "time": 385.8719355562453,
          "velocity": 0.7480314960629921,
          "duration": 0.06249993749997884
        },
        {
          "name": "D7",
          "midi": 98,
          "time": 385.8719355562453,
          "velocity": 0.7480314960629921,
          "duration": 0.06249993749997884
        },
        {
          "name": "C7",
          "midi": 96,
          "time": 385.8719355562453,
          "velocity": 0.7480314960629921,
          "duration": 0.06249993749997884
        },
        {
          "name": "D#6",
          "midi": 87,
          "time": 385.8719355562453,
          "velocity": 0.7480314960629921,
          "duration": 0.06249993749997884
        },
        {
          "name": "D6",
          "midi": 86,
          "time": 385.8719355562453,
          "velocity": 0.7480314960629921,
          "duration": 0.06249993749997884
        },
        {
          "name": "C6",
          "midi": 84,
          "time": 385.8719355562453,
          "velocity": 0.7480314960629921,
          "duration": 0.06249993749997884
        },
        {
          "name": "D#5",
          "midi": 75,
          "time": 385.8719355562453,
          "velocity": 0.7480314960629921,
          "duration": 0.06249993749997884
        },
        {
          "name": "D5",
          "midi": 74,
          "time": 385.8719355562453,
          "velocity": 0.7480314960629921,
          "duration": 0.06249993749997884
        },
        {
          "name": "C5",
          "midi": 72,
          "time": 385.8719355562453,
          "velocity": 0.7480314960629921,
          "duration": 0.06249993749997884
        },
        {
          "name": "D#4",
          "midi": 63,
          "time": 385.8719355562453,
          "velocity": 0.7480314960629921,
          "duration": 0.06249993749997884
        },
        {
          "name": "D4",
          "midi": 62,
          "time": 385.8719355562453,
          "velocity": 0.7480314960629921,
          "duration": 0.06249993749997884
        },
        {
          "name": "C4",
          "midi": 60,
          "time": 385.8719355562453,
          "velocity": 0.7480314960629921,
          "duration": 0.06249993749997884
        },
        {
          "name": "C4",
          "midi": 60,
          "time": 386.3005065562453,
          "velocity": 0.7480314960629921,
          "duration": 0.06249993749997884
        },
        {
          "name": "D4",
          "midi": 62,
          "time": 386.3005065562453,
          "velocity": 0.7480314960629921,
          "duration": 0.06249993749997884
        },
        {
          "name": "D#4",
          "midi": 63,
          "time": 386.3005065562453,
          "velocity": 0.7480314960629921,
          "duration": 0.06249993749997884
        },
        {
          "name": "C5",
          "midi": 72,
          "time": 386.3005065562453,
          "velocity": 0.7480314960629921,
          "duration": 0.06249993749997884
        },
        {
          "name": "D5",
          "midi": 74,
          "time": 386.3005065562453,
          "velocity": 0.7480314960629921,
          "duration": 0.06249993749997884
        },
        {
          "name": "D#5",
          "midi": 75,
          "time": 386.3005065562453,
          "velocity": 0.7480314960629921,
          "duration": 0.06249993749997884
        },
        {
          "name": "C6",
          "midi": 84,
          "time": 386.3005065562453,
          "velocity": 0.7480314960629921,
          "duration": 0.06249993749997884
        },
        {
          "name": "D6",
          "midi": 86,
          "time": 386.3005065562453,
          "velocity": 0.7480314960629921,
          "duration": 0.06249993749997884
        },
        {
          "name": "D#6",
          "midi": 87,
          "time": 386.3005065562453,
          "velocity": 0.7480314960629921,
          "duration": 0.06249993749997884
        },
        {
          "name": "C7",
          "midi": 96,
          "time": 386.3005065562453,
          "velocity": 0.7480314960629921,
          "duration": 0.06249993749997884
        },
        {
          "name": "D7",
          "midi": 98,
          "time": 386.3005065562453,
          "velocity": 0.7480314960629921,
          "duration": 0.06249993749997884
        },
        {
          "name": "D#7",
          "midi": 99,
          "time": 386.3005065562453,
          "velocity": 0.7480314960629921,
          "duration": 0.06249993749997884
        },
        {
          "name": "C4",
          "midi": 60,
          "time": 386.7290775562453,
          "velocity": 0.7480314960629921,
          "duration": 0.8571420000000103
        },
        {
          "name": "D4",
          "midi": 62,
          "time": 386.7290775562453,
          "velocity": 0.7480314960629921,
          "duration": 0.8571420000000103
        },
        {
          "name": "D#4",
          "midi": 63,
          "time": 386.7290775562453,
          "velocity": 0.7480314960629921,
          "duration": 0.8571420000000103
        },
        {
          "name": "C5",
          "midi": 72,
          "time": 386.7290775562453,
          "velocity": 0.7480314960629921,
          "duration": 0.8571420000000103
        },
        {
          "name": "D5",
          "midi": 74,
          "time": 386.7290775562453,
          "velocity": 0.7480314960629921,
          "duration": 0.8571420000000103
        },
        {
          "name": "D#5",
          "midi": 75,
          "time": 386.7290775562453,
          "velocity": 0.7480314960629921,
          "duration": 0.8571420000000103
        },
        {
          "name": "C6",
          "midi": 84,
          "time": 386.7290775562453,
          "velocity": 0.7480314960629921,
          "duration": 0.8571420000000103
        },
        {
          "name": "D6",
          "midi": 86,
          "time": 386.7290775562453,
          "velocity": 0.7480314960629921,
          "duration": 0.8571420000000103
        },
        {
          "name": "D#6",
          "midi": 87,
          "time": 386.7290775562453,
          "velocity": 0.7480314960629921,
          "duration": 0.8571420000000103
        },
        {
          "name": "C7",
          "midi": 96,
          "time": 386.7290775562453,
          "velocity": 0.7480314960629921,
          "duration": 0.8571420000000103
        },
        {
          "name": "D7",
          "midi": 98,
          "time": 386.7290775562453,
          "velocity": 0.7480314960629921,
          "duration": 0.8571420000000103
        },
        {
          "name": "D#7",
          "midi": 99,
          "time": 386.7290775562453,
          "velocity": 0.7480314960629921,
          "duration": 0.8571420000000103
        },
        {
          "name": "C#4",
          "midi": 61,
          "time": 387.5862195562453,
          "velocity": 0.7480314960629921,
          "duration": 0.8571420000000103
        },
        {
          "name": "D4",
          "midi": 62,
          "time": 387.5862195562453,
          "velocity": 0.7480314960629921,
          "duration": 0.8571420000000103
        },
        {
          "name": "C#5",
          "midi": 73,
          "time": 387.5862195562453,
          "velocity": 0.7480314960629921,
          "duration": 0.8571420000000103
        },
        {
          "name": "D5",
          "midi": 74,
          "time": 387.5862195562453,
          "velocity": 0.7480314960629921,
          "duration": 0.8571420000000103
        },
        {
          "name": "C#6",
          "midi": 85,
          "time": 387.5862195562453,
          "velocity": 0.7480314960629921,
          "duration": 0.8571420000000103
        },
        {
          "name": "D6",
          "midi": 86,
          "time": 387.5862195562453,
          "velocity": 0.7480314960629921,
          "duration": 0.8571420000000103
        },
        {
          "name": "C#7",
          "midi": 97,
          "time": 387.5862195562453,
          "velocity": 0.7480314960629921,
          "duration": 0.8571420000000103
        },
        {
          "name": "D7",
          "midi": 98,
          "time": 387.5862195562453,
          "velocity": 0.7480314960629921,
          "duration": 0.8571420000000103
        },
        {
          "name": "C#4",
          "midi": 61,
          "time": 388.4433615562453,
          "velocity": 0.7480314960629921,
          "duration": 0.4285709999999767
        },
        {
          "name": "D4",
          "midi": 62,
          "time": 388.4433615562453,
          "velocity": 0.7480314960629921,
          "duration": 0.4285709999999767
        },
        {
          "name": "C#5",
          "midi": 73,
          "time": 388.4433615562453,
          "velocity": 0.7480314960629921,
          "duration": 0.4285709999999767
        },
        {
          "name": "D5",
          "midi": 74,
          "time": 388.4433615562453,
          "velocity": 0.7480314960629921,
          "duration": 0.4285709999999767
        },
        {
          "name": "C#6",
          "midi": 85,
          "time": 388.4433615562453,
          "velocity": 0.7480314960629921,
          "duration": 0.4285709999999767
        },
        {
          "name": "D6",
          "midi": 86,
          "time": 388.4433615562453,
          "velocity": 0.7480314960629921,
          "duration": 0.4285709999999767
        },
        {
          "name": "C#7",
          "midi": 97,
          "time": 388.4433615562453,
          "velocity": 0.7480314960629921,
          "duration": 0.4285709999999767
        },
        {
          "name": "D7",
          "midi": 98,
          "time": 388.4433615562453,
          "velocity": 0.7480314960629921,
          "duration": 0.4285709999999767
        },
        {
          "name": "C#4",
          "midi": 61,
          "time": 388.87193255624527,
          "velocity": 0.7480314960629921,
          "duration": 0.21428550000001678
        },
        {
          "name": "D4",
          "midi": 62,
          "time": 388.87193255624527,
          "velocity": 0.7480314960629921,
          "duration": 0.21428550000001678
        },
        {
          "name": "C#5",
          "midi": 73,
          "time": 388.87193255624527,
          "velocity": 0.7480314960629921,
          "duration": 0.21428550000001678
        },
        {
          "name": "D5",
          "midi": 74,
          "time": 388.87193255624527,
          "velocity": 0.7480314960629921,
          "duration": 0.21428550000001678
        },
        {
          "name": "C#6",
          "midi": 85,
          "time": 388.87193255624527,
          "velocity": 0.7480314960629921,
          "duration": 0.21428550000001678
        },
        {
          "name": "D6",
          "midi": 86,
          "time": 388.87193255624527,
          "velocity": 0.7480314960629921,
          "duration": 0.21428550000001678
        },
        {
          "name": "C#7",
          "midi": 97,
          "time": 388.87193255624527,
          "velocity": 0.7480314960629921,
          "duration": 0.21428550000001678
        },
        {
          "name": "D7",
          "midi": 98,
          "time": 388.87193255624527,
          "velocity": 0.7480314960629921,
          "duration": 0.21428550000001678
        },
        {
          "name": "C#4",
          "midi": 61,
          "time": 389.0862180562453,
          "velocity": 0.7480314960629921,
          "duration": 0.21428550000001678
        },
        {
          "name": "D4",
          "midi": 62,
          "time": 389.0862180562453,
          "velocity": 0.7480314960629921,
          "duration": 0.21428550000001678
        },
        {
          "name": "C#5",
          "midi": 73,
          "time": 389.0862180562453,
          "velocity": 0.7480314960629921,
          "duration": 0.21428550000001678
        },
        {
          "name": "D5",
          "midi": 74,
          "time": 389.0862180562453,
          "velocity": 0.7480314960629921,
          "duration": 0.21428550000001678
        },
        {
          "name": "C#6",
          "midi": 85,
          "time": 389.0862180562453,
          "velocity": 0.7480314960629921,
          "duration": 0.21428550000001678
        },
        {
          "name": "D6",
          "midi": 86,
          "time": 389.0862180562453,
          "velocity": 0.7480314960629921,
          "duration": 0.21428550000001678
        },
        {
          "name": "C#7",
          "midi": 97,
          "time": 389.0862180562453,
          "velocity": 0.7480314960629921,
          "duration": 0.21428550000001678
        },
        {
          "name": "D7",
          "midi": 98,
          "time": 389.0862180562453,
          "velocity": 0.7480314960629921,
          "duration": 0.21428550000001678
        },
        {
          "name": "D#7",
          "midi": 99,
          "time": 389.3005035562453,
          "velocity": 0.7480314960629921,
          "duration": 0.06249993749997884
        },
        {
          "name": "C#7",
          "midi": 97,
          "time": 389.3005035562453,
          "velocity": 0.7480314960629921,
          "duration": 0.06249993749997884
        },
        {
          "name": "C7",
          "midi": 96,
          "time": 389.3005035562453,
          "velocity": 0.7480314960629921,
          "duration": 0.06249993749997884
        },
        {
          "name": "D#6",
          "midi": 87,
          "time": 389.3005035562453,
          "velocity": 0.7480314960629921,
          "duration": 0.06249993749997884
        },
        {
          "name": "C#6",
          "midi": 85,
          "time": 389.3005035562453,
          "velocity": 0.7480314960629921,
          "duration": 0.06249993749997884
        },
        {
          "name": "C6",
          "midi": 84,
          "time": 389.3005035562453,
          "velocity": 0.7480314960629921,
          "duration": 0.06249993749997884
        },
        {
          "name": "D#5",
          "midi": 75,
          "time": 389.3005035562453,
          "velocity": 0.7480314960629921,
          "duration": 0.06249993749997884
        },
        {
          "name": "C#5",
          "midi": 73,
          "time": 389.3005035562453,
          "velocity": 0.7480314960629921,
          "duration": 0.06249993749997884
        },
        {
          "name": "C5",
          "midi": 72,
          "time": 389.3005035562453,
          "velocity": 0.7480314960629921,
          "duration": 0.06249993749997884
        },
        {
          "name": "D#4",
          "midi": 63,
          "time": 389.3005035562453,
          "velocity": 0.7480314960629921,
          "duration": 0.06249993749997884
        },
        {
          "name": "C#4",
          "midi": 61,
          "time": 389.3005035562453,
          "velocity": 0.7480314960629921,
          "duration": 0.06249993749997884
        },
        {
          "name": "C4",
          "midi": 60,
          "time": 389.3005035562453,
          "velocity": 0.7480314960629921,
          "duration": 0.06249993749997884
        },
        {
          "name": "C4",
          "midi": 60,
          "time": 389.7290745562453,
          "velocity": 0.7480314960629921,
          "duration": 0.06249993749997884
        },
        {
          "name": "C#4",
          "midi": 61,
          "time": 389.7290745562453,
          "velocity": 0.7480314960629921,
          "duration": 0.06249993749997884
        },
        {
          "name": "D#4",
          "midi": 63,
          "time": 389.7290745562453,
          "velocity": 0.7480314960629921,
          "duration": 0.06249993749997884
        },
        {
          "name": "C5",
          "midi": 72,
          "time": 389.7290745562453,
          "velocity": 0.7480314960629921,
          "duration": 0.06249993749997884
        },
        {
          "name": "C#5",
          "midi": 73,
          "time": 389.7290745562453,
          "velocity": 0.7480314960629921,
          "duration": 0.06249993749997884
        },
        {
          "name": "D#5",
          "midi": 75,
          "time": 389.7290745562453,
          "velocity": 0.7480314960629921,
          "duration": 0.06249993749997884
        },
        {
          "name": "C6",
          "midi": 84,
          "time": 389.7290745562453,
          "velocity": 0.7480314960629921,
          "duration": 0.06249993749997884
        },
        {
          "name": "C#6",
          "midi": 85,
          "time": 389.7290745562453,
          "velocity": 0.7480314960629921,
          "duration": 0.06249993749997884
        },
        {
          "name": "D#6",
          "midi": 87,
          "time": 389.7290745562453,
          "velocity": 0.7480314960629921,
          "duration": 0.06249993749997884
        },
        {
          "name": "C7",
          "midi": 96,
          "time": 389.7290745562453,
          "velocity": 0.7480314960629921,
          "duration": 0.06249993749997884
        },
        {
          "name": "C#7",
          "midi": 97,
          "time": 389.7290745562453,
          "velocity": 0.7480314960629921,
          "duration": 0.06249993749997884
        },
        {
          "name": "D#7",
          "midi": 99,
          "time": 389.7290745562453,
          "velocity": 0.7480314960629921,
          "duration": 0.06249993749997884
        },
        {
          "name": "C4",
          "midi": 60,
          "time": 390.15764555624526,
          "velocity": 0.7480314960629921,
          "duration": 0.8571420000000103
        },
        {
          "name": "C#4",
          "midi": 61,
          "time": 390.15764555624526,
          "velocity": 0.7480314960629921,
          "duration": 0.8571420000000103
        },
        {
          "name": "D#4",
          "midi": 63,
          "time": 390.15764555624526,
          "velocity": 0.7480314960629921,
          "duration": 0.8571420000000103
        },
        {
          "name": "C5",
          "midi": 72,
          "time": 390.15764555624526,
          "velocity": 0.7480314960629921,
          "duration": 0.8571420000000103
        },
        {
          "name": "C#5",
          "midi": 73,
          "time": 390.15764555624526,
          "velocity": 0.7480314960629921,
          "duration": 0.8571420000000103
        },
        {
          "name": "D#5",
          "midi": 75,
          "time": 390.15764555624526,
          "velocity": 0.7480314960629921,
          "duration": 0.8571420000000103
        },
        {
          "name": "C6",
          "midi": 84,
          "time": 390.15764555624526,
          "velocity": 0.7480314960629921,
          "duration": 0.8571420000000103
        },
        {
          "name": "C#6",
          "midi": 85,
          "time": 390.15764555624526,
          "velocity": 0.7480314960629921,
          "duration": 0.8571420000000103
        },
        {
          "name": "D#6",
          "midi": 87,
          "time": 390.15764555624526,
          "velocity": 0.7480314960629921,
          "duration": 0.8571420000000103
        },
        {
          "name": "C7",
          "midi": 96,
          "time": 390.15764555624526,
          "velocity": 0.7480314960629921,
          "duration": 0.8571420000000103
        },
        {
          "name": "C#7",
          "midi": 97,
          "time": 390.15764555624526,
          "velocity": 0.7480314960629921,
          "duration": 0.8571420000000103
        },
        {
          "name": "D#7",
          "midi": 99,
          "time": 390.15764555624526,
          "velocity": 0.7480314960629921,
          "duration": 0.8571420000000103
        },
        {
          "name": "E7",
          "midi": 100,
          "time": 391.01478755624527,
          "velocity": 0.7480314960629921,
          "duration": 0.8571420000000103
        },
        {
          "name": "D#7",
          "midi": 99,
          "time": 391.01478755624527,
          "velocity": 0.7480314960629921,
          "duration": 0.8571420000000103
        },
        {
          "name": "C#7",
          "midi": 97,
          "time": 391.01478755624527,
          "velocity": 0.7480314960629921,
          "duration": 0.8571420000000103
        },
        {
          "name": "E6",
          "midi": 88,
          "time": 391.01478755624527,
          "velocity": 0.7480314960629921,
          "duration": 0.8571420000000103
        },
        {
          "name": "D#6",
          "midi": 87,
          "time": 391.01478755624527,
          "velocity": 0.7480314960629921,
          "duration": 0.8571420000000103
        },
        {
          "name": "C#6",
          "midi": 85,
          "time": 391.01478755624527,
          "velocity": 0.7480314960629921,
          "duration": 0.8571420000000103
        },
        {
          "name": "E5",
          "midi": 76,
          "time": 391.01478755624527,
          "velocity": 0.7480314960629921,
          "duration": 0.8571420000000103
        },
        {
          "name": "D#5",
          "midi": 75,
          "time": 391.01478755624527,
          "velocity": 0.7480314960629921,
          "duration": 0.8571420000000103
        },
        {
          "name": "C#5",
          "midi": 73,
          "time": 391.01478755624527,
          "velocity": 0.7480314960629921,
          "duration": 0.8571420000000103
        },
        {
          "name": "E4",
          "midi": 64,
          "time": 391.01478755624527,
          "velocity": 0.7480314960629921,
          "duration": 0.8571420000000103
        },
        {
          "name": "D#4",
          "midi": 63,
          "time": 391.01478755624527,
          "velocity": 0.7480314960629921,
          "duration": 0.8571420000000103
        },
        {
          "name": "C#4",
          "midi": 61,
          "time": 391.01478755624527,
          "velocity": 0.7480314960629921,
          "duration": 0.8571420000000103
        },
        {
          "name": "E7",
          "midi": 100,
          "time": 391.8719295562453,
          "velocity": 0.7480314960629921,
          "duration": 0.4285709999999767
        },
        {
          "name": "D#7",
          "midi": 99,
          "time": 391.8719295562453,
          "velocity": 0.7480314960629921,
          "duration": 0.4285709999999767
        },
        {
          "name": "C#7",
          "midi": 97,
          "time": 391.8719295562453,
          "velocity": 0.7480314960629921,
          "duration": 0.4285709999999767
        },
        {
          "name": "E6",
          "midi": 88,
          "time": 391.8719295562453,
          "velocity": 0.7480314960629921,
          "duration": 0.4285709999999767
        },
        {
          "name": "D#6",
          "midi": 87,
          "time": 391.8719295562453,
          "velocity": 0.7480314960629921,
          "duration": 0.4285709999999767
        },
        {
          "name": "C#6",
          "midi": 85,
          "time": 391.8719295562453,
          "velocity": 0.7480314960629921,
          "duration": 0.4285709999999767
        },
        {
          "name": "E5",
          "midi": 76,
          "time": 391.8719295562453,
          "velocity": 0.7480314960629921,
          "duration": 0.4285709999999767
        },
        {
          "name": "D#5",
          "midi": 75,
          "time": 391.8719295562453,
          "velocity": 0.7480314960629921,
          "duration": 0.4285709999999767
        },
        {
          "name": "C#5",
          "midi": 73,
          "time": 391.8719295562453,
          "velocity": 0.7480314960629921,
          "duration": 0.4285709999999767
        },
        {
          "name": "E4",
          "midi": 64,
          "time": 391.8719295562453,
          "velocity": 0.7480314960629921,
          "duration": 0.4285709999999767
        },
        {
          "name": "D#4",
          "midi": 63,
          "time": 391.8719295562453,
          "velocity": 0.7480314960629921,
          "duration": 0.4285709999999767
        },
        {
          "name": "C#4",
          "midi": 61,
          "time": 391.8719295562453,
          "velocity": 0.7480314960629921,
          "duration": 0.4285709999999767
        },
        {
          "name": "E7",
          "midi": 100,
          "time": 392.30050055624525,
          "velocity": 0.7480314960629921,
          "duration": 0.21428550000001678
        },
        {
          "name": "D#7",
          "midi": 99,
          "time": 392.30050055624525,
          "velocity": 0.7480314960629921,
          "duration": 0.21428550000001678
        },
        {
          "name": "C#7",
          "midi": 97,
          "time": 392.30050055624525,
          "velocity": 0.7480314960629921,
          "duration": 0.21428550000001678
        },
        {
          "name": "E6",
          "midi": 88,
          "time": 392.30050055624525,
          "velocity": 0.7480314960629921,
          "duration": 0.21428550000001678
        },
        {
          "name": "D#6",
          "midi": 87,
          "time": 392.30050055624525,
          "velocity": 0.7480314960629921,
          "duration": 0.21428550000001678
        },
        {
          "name": "C#6",
          "midi": 85,
          "time": 392.30050055624525,
          "velocity": 0.7480314960629921,
          "duration": 0.21428550000001678
        },
        {
          "name": "E5",
          "midi": 76,
          "time": 392.30050055624525,
          "velocity": 0.7480314960629921,
          "duration": 0.21428550000001678
        },
        {
          "name": "D#5",
          "midi": 75,
          "time": 392.30050055624525,
          "velocity": 0.7480314960629921,
          "duration": 0.21428550000001678
        },
        {
          "name": "C#5",
          "midi": 73,
          "time": 392.30050055624525,
          "velocity": 0.7480314960629921,
          "duration": 0.21428550000001678
        },
        {
          "name": "E4",
          "midi": 64,
          "time": 392.30050055624525,
          "velocity": 0.7480314960629921,
          "duration": 0.21428550000001678
        },
        {
          "name": "D#4",
          "midi": 63,
          "time": 392.30050055624525,
          "velocity": 0.7480314960629921,
          "duration": 0.21428550000001678
        },
        {
          "name": "C#4",
          "midi": 61,
          "time": 392.30050055624525,
          "velocity": 0.7480314960629921,
          "duration": 0.21428550000001678
        },
        {
          "name": "E7",
          "midi": 100,
          "time": 392.51478605624527,
          "velocity": 0.7480314960629921,
          "duration": 0.21428550000001678
        },
        {
          "name": "D#7",
          "midi": 99,
          "time": 392.51478605624527,
          "velocity": 0.7480314960629921,
          "duration": 0.21428550000001678
        },
        {
          "name": "C#7",
          "midi": 97,
          "time": 392.51478605624527,
          "velocity": 0.7480314960629921,
          "duration": 0.21428550000001678
        },
        {
          "name": "E6",
          "midi": 88,
          "time": 392.51478605624527,
          "velocity": 0.7480314960629921,
          "duration": 0.21428550000001678
        },
        {
          "name": "D#6",
          "midi": 87,
          "time": 392.51478605624527,
          "velocity": 0.7480314960629921,
          "duration": 0.21428550000001678
        },
        {
          "name": "C#6",
          "midi": 85,
          "time": 392.51478605624527,
          "velocity": 0.7480314960629921,
          "duration": 0.21428550000001678
        },
        {
          "name": "E5",
          "midi": 76,
          "time": 392.51478605624527,
          "velocity": 0.7480314960629921,
          "duration": 0.21428550000001678
        },
        {
          "name": "D#5",
          "midi": 75,
          "time": 392.51478605624527,
          "velocity": 0.7480314960629921,
          "duration": 0.21428550000001678
        },
        {
          "name": "C#5",
          "midi": 73,
          "time": 392.51478605624527,
          "velocity": 0.7480314960629921,
          "duration": 0.21428550000001678
        },
        {
          "name": "E4",
          "midi": 64,
          "time": 392.51478605624527,
          "velocity": 0.7480314960629921,
          "duration": 0.21428550000001678
        },
        {
          "name": "D#4",
          "midi": 63,
          "time": 392.51478605624527,
          "velocity": 0.7480314960629921,
          "duration": 0.21428550000001678
        },
        {
          "name": "C#4",
          "midi": 61,
          "time": 392.51478605624527,
          "velocity": 0.7480314960629921,
          "duration": 0.21428550000001678
        },
        {
          "name": "D#7",
          "midi": 99,
          "time": 392.7290715562453,
          "velocity": 0.7480314960629921,
          "duration": 0.06249993749997884
        },
        {
          "name": "D7",
          "midi": 98,
          "time": 392.7290715562453,
          "velocity": 0.7480314960629921,
          "duration": 0.06249993749997884
        },
        {
          "name": "C7",
          "midi": 96,
          "time": 392.7290715562453,
          "velocity": 0.7480314960629921,
          "duration": 0.06249993749997884
        },
        {
          "name": "D#6",
          "midi": 87,
          "time": 392.7290715562453,
          "velocity": 0.7480314960629921,
          "duration": 0.06249993749997884
        },
        {
          "name": "D6",
          "midi": 86,
          "time": 392.7290715562453,
          "velocity": 0.7480314960629921,
          "duration": 0.06249993749997884
        },
        {
          "name": "C6",
          "midi": 84,
          "time": 392.7290715562453,
          "velocity": 0.7480314960629921,
          "duration": 0.06249993749997884
        },
        {
          "name": "D#5",
          "midi": 75,
          "time": 392.7290715562453,
          "velocity": 0.7480314960629921,
          "duration": 0.06249993749997884
        },
        {
          "name": "D5",
          "midi": 74,
          "time": 392.7290715562453,
          "velocity": 0.7480314960629921,
          "duration": 0.06249993749997884
        },
        {
          "name": "C5",
          "midi": 72,
          "time": 392.7290715562453,
          "velocity": 0.7480314960629921,
          "duration": 0.06249993749997884
        },
        {
          "name": "D#4",
          "midi": 63,
          "time": 392.7290715562453,
          "velocity": 0.7480314960629921,
          "duration": 0.06249993749997884
        },
        {
          "name": "D4",
          "midi": 62,
          "time": 392.7290715562453,
          "velocity": 0.7480314960629921,
          "duration": 0.06249993749997884
        },
        {
          "name": "C4",
          "midi": 60,
          "time": 392.7290715562453,
          "velocity": 0.7480314960629921,
          "duration": 0.06249993749997884
        },
        {
          "name": "C4",
          "midi": 60,
          "time": 393.15764255624526,
          "velocity": 0.7480314960629921,
          "duration": 0.06249993749997884
        },
        {
          "name": "D4",
          "midi": 62,
          "time": 393.15764255624526,
          "velocity": 0.7480314960629921,
          "duration": 0.06249993749997884
        },
        {
          "name": "D#4",
          "midi": 63,
          "time": 393.15764255624526,
          "velocity": 0.7480314960629921,
          "duration": 0.06249993749997884
        },
        {
          "name": "C5",
          "midi": 72,
          "time": 393.15764255624526,
          "velocity": 0.7480314960629921,
          "duration": 0.06249993749997884
        },
        {
          "name": "D5",
          "midi": 74,
          "time": 393.15764255624526,
          "velocity": 0.7480314960629921,
          "duration": 0.06249993749997884
        },
        {
          "name": "D#5",
          "midi": 75,
          "time": 393.15764255624526,
          "velocity": 0.7480314960629921,
          "duration": 0.06249993749997884
        },
        {
          "name": "C6",
          "midi": 84,
          "time": 393.15764255624526,
          "velocity": 0.7480314960629921,
          "duration": 0.06249993749997884
        },
        {
          "name": "D6",
          "midi": 86,
          "time": 393.15764255624526,
          "velocity": 0.7480314960629921,
          "duration": 0.06249993749997884
        },
        {
          "name": "D#6",
          "midi": 87,
          "time": 393.15764255624526,
          "velocity": 0.7480314960629921,
          "duration": 0.06249993749997884
        },
        {
          "name": "C7",
          "midi": 96,
          "time": 393.15764255624526,
          "velocity": 0.7480314960629921,
          "duration": 0.06249993749997884
        },
        {
          "name": "D7",
          "midi": 98,
          "time": 393.15764255624526,
          "velocity": 0.7480314960629921,
          "duration": 0.06249993749997884
        },
        {
          "name": "D#7",
          "midi": 99,
          "time": 393.15764255624526,
          "velocity": 0.7480314960629921,
          "duration": 0.06249993749997884
        },
        {
          "name": "C4",
          "midi": 60,
          "time": 393.58621355624524,
          "velocity": 0.7480314960629921,
          "duration": 0.8571420000000103
        },
        {
          "name": "D4",
          "midi": 62,
          "time": 393.58621355624524,
          "velocity": 0.7480314960629921,
          "duration": 0.8571420000000103
        },
        {
          "name": "D#4",
          "midi": 63,
          "time": 393.58621355624524,
          "velocity": 0.7480314960629921,
          "duration": 0.8571420000000103
        },
        {
          "name": "C5",
          "midi": 72,
          "time": 393.58621355624524,
          "velocity": 0.7480314960629921,
          "duration": 0.8571420000000103
        },
        {
          "name": "D5",
          "midi": 74,
          "time": 393.58621355624524,
          "velocity": 0.7480314960629921,
          "duration": 0.8571420000000103
        },
        {
          "name": "D#5",
          "midi": 75,
          "time": 393.58621355624524,
          "velocity": 0.7480314960629921,
          "duration": 0.8571420000000103
        },
        {
          "name": "C6",
          "midi": 84,
          "time": 393.58621355624524,
          "velocity": 0.7480314960629921,
          "duration": 0.8571420000000103
        },
        {
          "name": "D6",
          "midi": 86,
          "time": 393.58621355624524,
          "velocity": 0.7480314960629921,
          "duration": 0.8571420000000103
        },
        {
          "name": "D#6",
          "midi": 87,
          "time": 393.58621355624524,
          "velocity": 0.7480314960629921,
          "duration": 0.8571420000000103
        },
        {
          "name": "C7",
          "midi": 96,
          "time": 393.58621355624524,
          "velocity": 0.7480314960629921,
          "duration": 0.8571420000000103
        },
        {
          "name": "D7",
          "midi": 98,
          "time": 393.58621355624524,
          "velocity": 0.7480314960629921,
          "duration": 0.8571420000000103
        },
        {
          "name": "D#7",
          "midi": 99,
          "time": 393.58621355624524,
          "velocity": 0.7480314960629921,
          "duration": 0.8571420000000103
        },
        {
          "name": "C#4",
          "midi": 61,
          "time": 394.44335555624525,
          "velocity": 0.7480314960629921,
          "duration": 0.8571420000000103
        },
        {
          "name": "D4",
          "midi": 62,
          "time": 394.44335555624525,
          "velocity": 0.7480314960629921,
          "duration": 0.8571420000000103
        },
        {
          "name": "C#5",
          "midi": 73,
          "time": 394.44335555624525,
          "velocity": 0.7480314960629921,
          "duration": 0.8571420000000103
        },
        {
          "name": "D5",
          "midi": 74,
          "time": 394.44335555624525,
          "velocity": 0.7480314960629921,
          "duration": 0.8571420000000103
        },
        {
          "name": "C#6",
          "midi": 85,
          "time": 394.44335555624525,
          "velocity": 0.7480314960629921,
          "duration": 0.8571420000000103
        },
        {
          "name": "D6",
          "midi": 86,
          "time": 394.44335555624525,
          "velocity": 0.7480314960629921,
          "duration": 0.8571420000000103
        },
        {
          "name": "C#7",
          "midi": 97,
          "time": 394.44335555624525,
          "velocity": 0.7480314960629921,
          "duration": 0.8571420000000103
        },
        {
          "name": "D7",
          "midi": 98,
          "time": 394.44335555624525,
          "velocity": 0.7480314960629921,
          "duration": 0.8571420000000103
        },
        {
          "name": "C#4",
          "midi": 61,
          "time": 395.30049755624526,
          "velocity": 0.7480314960629921,
          "duration": 0.4285709999999767
        },
        {
          "name": "D4",
          "midi": 62,
          "time": 395.30049755624526,
          "velocity": 0.7480314960629921,
          "duration": 0.4285709999999767
        },
        {
          "name": "C#5",
          "midi": 73,
          "time": 395.30049755624526,
          "velocity": 0.7480314960629921,
          "duration": 0.4285709999999767
        },
        {
          "name": "D5",
          "midi": 74,
          "time": 395.30049755624526,
          "velocity": 0.7480314960629921,
          "duration": 0.4285709999999767
        },
        {
          "name": "C#6",
          "midi": 85,
          "time": 395.30049755624526,
          "velocity": 0.7480314960629921,
          "duration": 0.4285709999999767
        },
        {
          "name": "D6",
          "midi": 86,
          "time": 395.30049755624526,
          "velocity": 0.7480314960629921,
          "duration": 0.4285709999999767
        },
        {
          "name": "C#7",
          "midi": 97,
          "time": 395.30049755624526,
          "velocity": 0.7480314960629921,
          "duration": 0.4285709999999767
        },
        {
          "name": "D7",
          "midi": 98,
          "time": 395.30049755624526,
          "velocity": 0.7480314960629921,
          "duration": 0.4285709999999767
        },
        {
          "name": "C#4",
          "midi": 61,
          "time": 395.72906855624524,
          "velocity": 0.7480314960629921,
          "duration": 0.21428550000001678
        },
        {
          "name": "D4",
          "midi": 62,
          "time": 395.72906855624524,
          "velocity": 0.7480314960629921,
          "duration": 0.21428550000001678
        },
        {
          "name": "C#5",
          "midi": 73,
          "time": 395.72906855624524,
          "velocity": 0.7480314960629921,
          "duration": 0.21428550000001678
        },
        {
          "name": "D5",
          "midi": 74,
          "time": 395.72906855624524,
          "velocity": 0.7480314960629921,
          "duration": 0.21428550000001678
        },
        {
          "name": "C#6",
          "midi": 85,
          "time": 395.72906855624524,
          "velocity": 0.7480314960629921,
          "duration": 0.21428550000001678
        },
        {
          "name": "D6",
          "midi": 86,
          "time": 395.72906855624524,
          "velocity": 0.7480314960629921,
          "duration": 0.21428550000001678
        },
        {
          "name": "C#7",
          "midi": 97,
          "time": 395.72906855624524,
          "velocity": 0.7480314960629921,
          "duration": 0.21428550000001678
        },
        {
          "name": "D7",
          "midi": 98,
          "time": 395.72906855624524,
          "velocity": 0.7480314960629921,
          "duration": 0.21428550000001678
        },
        {
          "name": "C#4",
          "midi": 61,
          "time": 395.94335405624525,
          "velocity": 0.7480314960629921,
          "duration": 0.21428550000001678
        },
        {
          "name": "D4",
          "midi": 62,
          "time": 395.94335405624525,
          "velocity": 0.7480314960629921,
          "duration": 0.21428550000001678
        },
        {
          "name": "C#5",
          "midi": 73,
          "time": 395.94335405624525,
          "velocity": 0.7480314960629921,
          "duration": 0.21428550000001678
        },
        {
          "name": "D5",
          "midi": 74,
          "time": 395.94335405624525,
          "velocity": 0.7480314960629921,
          "duration": 0.21428550000001678
        },
        {
          "name": "C#6",
          "midi": 85,
          "time": 395.94335405624525,
          "velocity": 0.7480314960629921,
          "duration": 0.21428550000001678
        },
        {
          "name": "D6",
          "midi": 86,
          "time": 395.94335405624525,
          "velocity": 0.7480314960629921,
          "duration": 0.21428550000001678
        },
        {
          "name": "C#7",
          "midi": 97,
          "time": 395.94335405624525,
          "velocity": 0.7480314960629921,
          "duration": 0.21428550000001678
        },
        {
          "name": "D7",
          "midi": 98,
          "time": 395.94335405624525,
          "velocity": 0.7480314960629921,
          "duration": 0.21428550000001678
        },
        {
          "name": "D#7",
          "midi": 99,
          "time": 396.1576395562453,
          "velocity": 0.7480314960629921,
          "duration": 0.06249993749997884
        },
        {
          "name": "C#7",
          "midi": 97,
          "time": 396.1576395562453,
          "velocity": 0.7480314960629921,
          "duration": 0.06249993749997884
        },
        {
          "name": "C7",
          "midi": 96,
          "time": 396.1576395562453,
          "velocity": 0.7480314960629921,
          "duration": 0.06249993749997884
        },
        {
          "name": "D#6",
          "midi": 87,
          "time": 396.1576395562453,
          "velocity": 0.7480314960629921,
          "duration": 0.06249993749997884
        },
        {
          "name": "C#6",
          "midi": 85,
          "time": 396.1576395562453,
          "velocity": 0.7480314960629921,
          "duration": 0.06249993749997884
        },
        {
          "name": "C6",
          "midi": 84,
          "time": 396.1576395562453,
          "velocity": 0.7480314960629921,
          "duration": 0.06249993749997884
        },
        {
          "name": "D#5",
          "midi": 75,
          "time": 396.1576395562453,
          "velocity": 0.7480314960629921,
          "duration": 0.06249993749997884
        },
        {
          "name": "C#5",
          "midi": 73,
          "time": 396.1576395562453,
          "velocity": 0.7480314960629921,
          "duration": 0.06249993749997884
        },
        {
          "name": "C5",
          "midi": 72,
          "time": 396.1576395562453,
          "velocity": 0.7480314960629921,
          "duration": 0.06249993749997884
        },
        {
          "name": "D#4",
          "midi": 63,
          "time": 396.1576395562453,
          "velocity": 0.7480314960629921,
          "duration": 0.06249993749997884
        },
        {
          "name": "C#4",
          "midi": 61,
          "time": 396.1576395562453,
          "velocity": 0.7480314960629921,
          "duration": 0.06249993749997884
        },
        {
          "name": "C4",
          "midi": 60,
          "time": 396.1576395562453,
          "velocity": 0.7480314960629921,
          "duration": 0.06249993749997884
        },
        {
          "name": "C4",
          "midi": 60,
          "time": 396.58621055624525,
          "velocity": 0.7480314960629921,
          "duration": 0.06249993749997884
        },
        {
          "name": "C#4",
          "midi": 61,
          "time": 396.58621055624525,
          "velocity": 0.7480314960629921,
          "duration": 0.06249993749997884
        },
        {
          "name": "D#4",
          "midi": 63,
          "time": 396.58621055624525,
          "velocity": 0.7480314960629921,
          "duration": 0.06249993749997884
        },
        {
          "name": "C5",
          "midi": 72,
          "time": 396.58621055624525,
          "velocity": 0.7480314960629921,
          "duration": 0.06249993749997884
        },
        {
          "name": "C#5",
          "midi": 73,
          "time": 396.58621055624525,
          "velocity": 0.7480314960629921,
          "duration": 0.06249993749997884
        },
        {
          "name": "D#5",
          "midi": 75,
          "time": 396.58621055624525,
          "velocity": 0.7480314960629921,
          "duration": 0.06249993749997884
        },
        {
          "name": "C6",
          "midi": 84,
          "time": 396.58621055624525,
          "velocity": 0.7480314960629921,
          "duration": 0.06249993749997884
        },
        {
          "name": "C#6",
          "midi": 85,
          "time": 396.58621055624525,
          "velocity": 0.7480314960629921,
          "duration": 0.06249993749997884
        },
        {
          "name": "D#6",
          "midi": 87,
          "time": 396.58621055624525,
          "velocity": 0.7480314960629921,
          "duration": 0.06249993749997884
        },
        {
          "name": "C7",
          "midi": 96,
          "time": 396.58621055624525,
          "velocity": 0.7480314960629921,
          "duration": 0.06249993749997884
        },
        {
          "name": "C#7",
          "midi": 97,
          "time": 396.58621055624525,
          "velocity": 0.7480314960629921,
          "duration": 0.06249993749997884
        },
        {
          "name": "D#7",
          "midi": 99,
          "time": 396.58621055624525,
          "velocity": 0.7480314960629921,
          "duration": 0.06249993749997884
        },
        {
          "name": "C4",
          "midi": 60,
          "time": 397.0147815562452,
          "velocity": 0.7480314960629921,
          "duration": 0.8571420000000103
        },
        {
          "name": "C#4",
          "midi": 61,
          "time": 397.0147815562452,
          "velocity": 0.7480314960629921,
          "duration": 0.8571420000000103
        },
        {
          "name": "D#4",
          "midi": 63,
          "time": 397.0147815562452,
          "velocity": 0.7480314960629921,
          "duration": 0.8571420000000103
        },
        {
          "name": "C5",
          "midi": 72,
          "time": 397.0147815562452,
          "velocity": 0.7480314960629921,
          "duration": 0.8571420000000103
        },
        {
          "name": "C#5",
          "midi": 73,
          "time": 397.0147815562452,
          "velocity": 0.7480314960629921,
          "duration": 0.8571420000000103
        },
        {
          "name": "D#5",
          "midi": 75,
          "time": 397.0147815562452,
          "velocity": 0.7480314960629921,
          "duration": 0.8571420000000103
        },
        {
          "name": "C6",
          "midi": 84,
          "time": 397.0147815562452,
          "velocity": 0.7480314960629921,
          "duration": 0.8571420000000103
        },
        {
          "name": "C#6",
          "midi": 85,
          "time": 397.0147815562452,
          "velocity": 0.7480314960629921,
          "duration": 0.8571420000000103
        },
        {
          "name": "D#6",
          "midi": 87,
          "time": 397.0147815562452,
          "velocity": 0.7480314960629921,
          "duration": 0.8571420000000103
        },
        {
          "name": "C7",
          "midi": 96,
          "time": 397.0147815562452,
          "velocity": 0.7480314960629921,
          "duration": 0.8571420000000103
        },
        {
          "name": "C#7",
          "midi": 97,
          "time": 397.0147815562452,
          "velocity": 0.7480314960629921,
          "duration": 0.8571420000000103
        },
        {
          "name": "D#7",
          "midi": 99,
          "time": 397.0147815562452,
          "velocity": 0.7480314960629921,
          "duration": 0.8571420000000103
        },
        {
          "name": "E7",
          "midi": 100,
          "time": 397.87192355624524,
          "velocity": 0.7480314960629921,
          "duration": 0.8571420000000103
        },
        {
          "name": "D#7",
          "midi": 99,
          "time": 397.87192355624524,
          "velocity": 0.7480314960629921,
          "duration": 0.8571420000000103
        },
        {
          "name": "C#7",
          "midi": 97,
          "time": 397.87192355624524,
          "velocity": 0.7480314960629921,
          "duration": 0.8571420000000103
        },
        {
          "name": "E6",
          "midi": 88,
          "time": 397.87192355624524,
          "velocity": 0.7480314960629921,
          "duration": 0.8571420000000103
        },
        {
          "name": "D#6",
          "midi": 87,
          "time": 397.87192355624524,
          "velocity": 0.7480314960629921,
          "duration": 0.8571420000000103
        },
        {
          "name": "C#6",
          "midi": 85,
          "time": 397.87192355624524,
          "velocity": 0.7480314960629921,
          "duration": 0.8571420000000103
        },
        {
          "name": "E5",
          "midi": 76,
          "time": 397.87192355624524,
          "velocity": 0.7480314960629921,
          "duration": 0.8571420000000103
        },
        {
          "name": "D#5",
          "midi": 75,
          "time": 397.87192355624524,
          "velocity": 0.7480314960629921,
          "duration": 0.8571420000000103
        },
        {
          "name": "C#5",
          "midi": 73,
          "time": 397.87192355624524,
          "velocity": 0.7480314960629921,
          "duration": 0.8571420000000103
        },
        {
          "name": "E4",
          "midi": 64,
          "time": 397.87192355624524,
          "velocity": 0.7480314960629921,
          "duration": 0.8571420000000103
        },
        {
          "name": "D#4",
          "midi": 63,
          "time": 397.87192355624524,
          "velocity": 0.7480314960629921,
          "duration": 0.8571420000000103
        },
        {
          "name": "C#4",
          "midi": 61,
          "time": 397.87192355624524,
          "velocity": 0.7480314960629921,
          "duration": 0.8571420000000103
        },
        {
          "name": "E7",
          "midi": 100,
          "time": 398.72906555624525,
          "velocity": 0.7480314960629921,
          "duration": 0.4285709999999767
        },
        {
          "name": "D#7",
          "midi": 99,
          "time": 398.72906555624525,
          "velocity": 0.7480314960629921,
          "duration": 0.4285709999999767
        },
        {
          "name": "C#7",
          "midi": 97,
          "time": 398.72906555624525,
          "velocity": 0.7480314960629921,
          "duration": 0.4285709999999767
        },
        {
          "name": "E6",
          "midi": 88,
          "time": 398.72906555624525,
          "velocity": 0.7480314960629921,
          "duration": 0.4285709999999767
        },
        {
          "name": "D#6",
          "midi": 87,
          "time": 398.72906555624525,
          "velocity": 0.7480314960629921,
          "duration": 0.4285709999999767
        },
        {
          "name": "C#6",
          "midi": 85,
          "time": 398.72906555624525,
          "velocity": 0.7480314960629921,
          "duration": 0.4285709999999767
        },
        {
          "name": "E5",
          "midi": 76,
          "time": 398.72906555624525,
          "velocity": 0.7480314960629921,
          "duration": 0.4285709999999767
        },
        {
          "name": "D#5",
          "midi": 75,
          "time": 398.72906555624525,
          "velocity": 0.7480314960629921,
          "duration": 0.4285709999999767
        },
        {
          "name": "C#5",
          "midi": 73,
          "time": 398.72906555624525,
          "velocity": 0.7480314960629921,
          "duration": 0.4285709999999767
        },
        {
          "name": "E4",
          "midi": 64,
          "time": 398.72906555624525,
          "velocity": 0.7480314960629921,
          "duration": 0.4285709999999767
        },
        {
          "name": "D#4",
          "midi": 63,
          "time": 398.72906555624525,
          "velocity": 0.7480314960629921,
          "duration": 0.4285709999999767
        },
        {
          "name": "C#4",
          "midi": 61,
          "time": 398.72906555624525,
          "velocity": 0.7480314960629921,
          "duration": 0.4285709999999767
        },
        {
          "name": "E7",
          "midi": 100,
          "time": 399.1576365562452,
          "velocity": 0.7480314960629921,
          "duration": 0.21428550000001678
        },
        {
          "name": "D#7",
          "midi": 99,
          "time": 399.1576365562452,
          "velocity": 0.7480314960629921,
          "duration": 0.21428550000001678
        },
        {
          "name": "C#7",
          "midi": 97,
          "time": 399.1576365562452,
          "velocity": 0.7480314960629921,
          "duration": 0.21428550000001678
        },
        {
          "name": "E6",
          "midi": 88,
          "time": 399.1576365562452,
          "velocity": 0.7480314960629921,
          "duration": 0.21428550000001678
        },
        {
          "name": "D#6",
          "midi": 87,
          "time": 399.1576365562452,
          "velocity": 0.7480314960629921,
          "duration": 0.21428550000001678
        },
        {
          "name": "C#6",
          "midi": 85,
          "time": 399.1576365562452,
          "velocity": 0.7480314960629921,
          "duration": 0.21428550000001678
        },
        {
          "name": "E5",
          "midi": 76,
          "time": 399.1576365562452,
          "velocity": 0.7480314960629921,
          "duration": 0.21428550000001678
        },
        {
          "name": "D#5",
          "midi": 75,
          "time": 399.1576365562452,
          "velocity": 0.7480314960629921,
          "duration": 0.21428550000001678
        },
        {
          "name": "C#5",
          "midi": 73,
          "time": 399.1576365562452,
          "velocity": 0.7480314960629921,
          "duration": 0.21428550000001678
        },
        {
          "name": "E4",
          "midi": 64,
          "time": 399.1576365562452,
          "velocity": 0.7480314960629921,
          "duration": 0.21428550000001678
        },
        {
          "name": "D#4",
          "midi": 63,
          "time": 399.1576365562452,
          "velocity": 0.7480314960629921,
          "duration": 0.21428550000001678
        },
        {
          "name": "C#4",
          "midi": 61,
          "time": 399.1576365562452,
          "velocity": 0.7480314960629921,
          "duration": 0.21428550000001678
        },
        {
          "name": "E7",
          "midi": 100,
          "time": 399.37192205624524,
          "velocity": 0.7480314960629921,
          "duration": 0.21428550000001678
        },
        {
          "name": "D#7",
          "midi": 99,
          "time": 399.37192205624524,
          "velocity": 0.7480314960629921,
          "duration": 0.21428550000001678
        },
        {
          "name": "C#7",
          "midi": 97,
          "time": 399.37192205624524,
          "velocity": 0.7480314960629921,
          "duration": 0.21428550000001678
        },
        {
          "name": "E6",
          "midi": 88,
          "time": 399.37192205624524,
          "velocity": 0.7480314960629921,
          "duration": 0.21428550000001678
        },
        {
          "name": "D#6",
          "midi": 87,
          "time": 399.37192205624524,
          "velocity": 0.7480314960629921,
          "duration": 0.21428550000001678
        },
        {
          "name": "C#6",
          "midi": 85,
          "time": 399.37192205624524,
          "velocity": 0.7480314960629921,
          "duration": 0.21428550000001678
        },
        {
          "name": "E5",
          "midi": 76,
          "time": 399.37192205624524,
          "velocity": 0.7480314960629921,
          "duration": 0.21428550000001678
        },
        {
          "name": "D#5",
          "midi": 75,
          "time": 399.37192205624524,
          "velocity": 0.7480314960629921,
          "duration": 0.21428550000001678
        },
        {
          "name": "C#5",
          "midi": 73,
          "time": 399.37192205624524,
          "velocity": 0.7480314960629921,
          "duration": 0.21428550000001678
        },
        {
          "name": "E4",
          "midi": 64,
          "time": 399.37192205624524,
          "velocity": 0.7480314960629921,
          "duration": 0.21428550000001678
        },
        {
          "name": "D#4",
          "midi": 63,
          "time": 399.37192205624524,
          "velocity": 0.7480314960629921,
          "duration": 0.21428550000001678
        },
        {
          "name": "C#4",
          "midi": 61,
          "time": 399.37192205624524,
          "velocity": 0.7480314960629921,
          "duration": 0.21428550000001678
        },
        {
          "name": "D#7",
          "midi": 99,
          "time": 399.58620755624526,
          "velocity": 0.7480314960629921,
          "duration": 0.06249993749997884
        },
        {
          "name": "D7",
          "midi": 98,
          "time": 399.58620755624526,
          "velocity": 0.7480314960629921,
          "duration": 0.06249993749997884
        },
        {
          "name": "C7",
          "midi": 96,
          "time": 399.58620755624526,
          "velocity": 0.7480314960629921,
          "duration": 0.06249993749997884
        },
        {
          "name": "D#6",
          "midi": 87,
          "time": 399.58620755624526,
          "velocity": 0.7480314960629921,
          "duration": 0.06249993749997884
        },
        {
          "name": "D6",
          "midi": 86,
          "time": 399.58620755624526,
          "velocity": 0.7480314960629921,
          "duration": 0.06249993749997884
        },
        {
          "name": "C6",
          "midi": 84,
          "time": 399.58620755624526,
          "velocity": 0.7480314960629921,
          "duration": 0.06249993749997884
        },
        {
          "name": "D#5",
          "midi": 75,
          "time": 399.58620755624526,
          "velocity": 0.7480314960629921,
          "duration": 0.06249993749997884
        },
        {
          "name": "D5",
          "midi": 74,
          "time": 399.58620755624526,
          "velocity": 0.7480314960629921,
          "duration": 0.06249993749997884
        },
        {
          "name": "C5",
          "midi": 72,
          "time": 399.58620755624526,
          "velocity": 0.7480314960629921,
          "duration": 0.06249993749997884
        },
        {
          "name": "D#4",
          "midi": 63,
          "time": 399.58620755624526,
          "velocity": 0.7480314960629921,
          "duration": 0.06249993749997884
        },
        {
          "name": "D4",
          "midi": 62,
          "time": 399.58620755624526,
          "velocity": 0.7480314960629921,
          "duration": 0.06249993749997884
        },
        {
          "name": "C4",
          "midi": 60,
          "time": 399.58620755624526,
          "velocity": 0.7480314960629921,
          "duration": 0.06249993749997884
        },
        {
          "name": "C4",
          "midi": 60,
          "time": 400.01477855624523,
          "velocity": 0.7480314960629921,
          "duration": 0.06249993749997884
        },
        {
          "name": "D4",
          "midi": 62,
          "time": 400.01477855624523,
          "velocity": 0.7480314960629921,
          "duration": 0.06249993749997884
        },
        {
          "name": "D#4",
          "midi": 63,
          "time": 400.01477855624523,
          "velocity": 0.7480314960629921,
          "duration": 0.06249993749997884
        },
        {
          "name": "C5",
          "midi": 72,
          "time": 400.01477855624523,
          "velocity": 0.7480314960629921,
          "duration": 0.06249993749997884
        },
        {
          "name": "D5",
          "midi": 74,
          "time": 400.01477855624523,
          "velocity": 0.7480314960629921,
          "duration": 0.06249993749997884
        },
        {
          "name": "D#5",
          "midi": 75,
          "time": 400.01477855624523,
          "velocity": 0.7480314960629921,
          "duration": 0.06249993749997884
        },
        {
          "name": "C6",
          "midi": 84,
          "time": 400.01477855624523,
          "velocity": 0.7480314960629921,
          "duration": 0.06249993749997884
        },
        {
          "name": "D6",
          "midi": 86,
          "time": 400.01477855624523,
          "velocity": 0.7480314960629921,
          "duration": 0.06249993749997884
        },
        {
          "name": "D#6",
          "midi": 87,
          "time": 400.01477855624523,
          "velocity": 0.7480314960629921,
          "duration": 0.06249993749997884
        },
        {
          "name": "C7",
          "midi": 96,
          "time": 400.01477855624523,
          "velocity": 0.7480314960629921,
          "duration": 0.06249993749997884
        },
        {
          "name": "D7",
          "midi": 98,
          "time": 400.01477855624523,
          "velocity": 0.7480314960629921,
          "duration": 0.06249993749997884
        },
        {
          "name": "D#7",
          "midi": 99,
          "time": 400.01477855624523,
          "velocity": 0.7480314960629921,
          "duration": 0.06249993749997884
        },
        {
          "name": "C4",
          "midi": 60,
          "time": 400.4433495562452,
          "velocity": 0.7480314960629921,
          "duration": 0.8571420000000103
        },
        {
          "name": "D4",
          "midi": 62,
          "time": 400.4433495562452,
          "velocity": 0.7480314960629921,
          "duration": 0.8571420000000103
        },
        {
          "name": "D#4",
          "midi": 63,
          "time": 400.4433495562452,
          "velocity": 0.7480314960629921,
          "duration": 0.8571420000000103
        },
        {
          "name": "C5",
          "midi": 72,
          "time": 400.4433495562452,
          "velocity": 0.7480314960629921,
          "duration": 0.8571420000000103
        },
        {
          "name": "D5",
          "midi": 74,
          "time": 400.4433495562452,
          "velocity": 0.7480314960629921,
          "duration": 0.8571420000000103
        },
        {
          "name": "D#5",
          "midi": 75,
          "time": 400.4433495562452,
          "velocity": 0.7480314960629921,
          "duration": 0.8571420000000103
        },
        {
          "name": "C6",
          "midi": 84,
          "time": 400.4433495562452,
          "velocity": 0.7480314960629921,
          "duration": 0.8571420000000103
        },
        {
          "name": "D6",
          "midi": 86,
          "time": 400.4433495562452,
          "velocity": 0.7480314960629921,
          "duration": 0.8571420000000103
        },
        {
          "name": "D#6",
          "midi": 87,
          "time": 400.4433495562452,
          "velocity": 0.7480314960629921,
          "duration": 0.8571420000000103
        },
        {
          "name": "C7",
          "midi": 96,
          "time": 400.4433495562452,
          "velocity": 0.7480314960629921,
          "duration": 0.8571420000000103
        },
        {
          "name": "D7",
          "midi": 98,
          "time": 400.4433495562452,
          "velocity": 0.7480314960629921,
          "duration": 0.8571420000000103
        },
        {
          "name": "D#7",
          "midi": 99,
          "time": 400.4433495562452,
          "velocity": 0.7480314960629921,
          "duration": 0.8571420000000103
        },
        {
          "name": "C#4",
          "midi": 61,
          "time": 401.3004915562452,
          "velocity": 0.7480314960629921,
          "duration": 0.8571420000000103
        },
        {
          "name": "D4",
          "midi": 62,
          "time": 401.3004915562452,
          "velocity": 0.7480314960629921,
          "duration": 0.8571420000000103
        },
        {
          "name": "C#5",
          "midi": 73,
          "time": 401.3004915562452,
          "velocity": 0.7480314960629921,
          "duration": 0.8571420000000103
        },
        {
          "name": "D5",
          "midi": 74,
          "time": 401.3004915562452,
          "velocity": 0.7480314960629921,
          "duration": 0.8571420000000103
        },
        {
          "name": "C#6",
          "midi": 85,
          "time": 401.3004915562452,
          "velocity": 0.7480314960629921,
          "duration": 0.8571420000000103
        },
        {
          "name": "D6",
          "midi": 86,
          "time": 401.3004915562452,
          "velocity": 0.7480314960629921,
          "duration": 0.8571420000000103
        },
        {
          "name": "C#7",
          "midi": 97,
          "time": 401.3004915562452,
          "velocity": 0.7480314960629921,
          "duration": 0.8571420000000103
        },
        {
          "name": "D7",
          "midi": 98,
          "time": 401.3004915562452,
          "velocity": 0.7480314960629921,
          "duration": 0.8571420000000103
        },
        {
          "name": "C#4",
          "midi": 61,
          "time": 402.15763355624523,
          "velocity": 0.7480314960629921,
          "duration": 0.4285709999999767
        },
        {
          "name": "D4",
          "midi": 62,
          "time": 402.15763355624523,
          "velocity": 0.7480314960629921,
          "duration": 0.4285709999999767
        },
        {
          "name": "C#5",
          "midi": 73,
          "time": 402.15763355624523,
          "velocity": 0.7480314960629921,
          "duration": 0.4285709999999767
        },
        {
          "name": "D5",
          "midi": 74,
          "time": 402.15763355624523,
          "velocity": 0.7480314960629921,
          "duration": 0.4285709999999767
        },
        {
          "name": "C#6",
          "midi": 85,
          "time": 402.15763355624523,
          "velocity": 0.7480314960629921,
          "duration": 0.4285709999999767
        },
        {
          "name": "D6",
          "midi": 86,
          "time": 402.15763355624523,
          "velocity": 0.7480314960629921,
          "duration": 0.4285709999999767
        },
        {
          "name": "C#7",
          "midi": 97,
          "time": 402.15763355624523,
          "velocity": 0.7480314960629921,
          "duration": 0.4285709999999767
        },
        {
          "name": "D7",
          "midi": 98,
          "time": 402.15763355624523,
          "velocity": 0.7480314960629921,
          "duration": 0.4285709999999767
        },
        {
          "name": "C#4",
          "midi": 61,
          "time": 402.5862045562452,
          "velocity": 0.7480314960629921,
          "duration": 0.21428550000001678
        },
        {
          "name": "D4",
          "midi": 62,
          "time": 402.5862045562452,
          "velocity": 0.7480314960629921,
          "duration": 0.21428550000001678
        },
        {
          "name": "C#5",
          "midi": 73,
          "time": 402.5862045562452,
          "velocity": 0.7480314960629921,
          "duration": 0.21428550000001678
        },
        {
          "name": "D5",
          "midi": 74,
          "time": 402.5862045562452,
          "velocity": 0.7480314960629921,
          "duration": 0.21428550000001678
        },
        {
          "name": "C#6",
          "midi": 85,
          "time": 402.5862045562452,
          "velocity": 0.7480314960629921,
          "duration": 0.21428550000001678
        },
        {
          "name": "D6",
          "midi": 86,
          "time": 402.5862045562452,
          "velocity": 0.7480314960629921,
          "duration": 0.21428550000001678
        },
        {
          "name": "C#7",
          "midi": 97,
          "time": 402.5862045562452,
          "velocity": 0.7480314960629921,
          "duration": 0.21428550000001678
        },
        {
          "name": "D7",
          "midi": 98,
          "time": 402.5862045562452,
          "velocity": 0.7480314960629921,
          "duration": 0.21428550000001678
        },
        {
          "name": "C#4",
          "midi": 61,
          "time": 402.8004900562452,
          "velocity": 0.7480314960629921,
          "duration": 0.21428550000001678
        },
        {
          "name": "D4",
          "midi": 62,
          "time": 402.8004900562452,
          "velocity": 0.7480314960629921,
          "duration": 0.21428550000001678
        },
        {
          "name": "C#5",
          "midi": 73,
          "time": 402.8004900562452,
          "velocity": 0.7480314960629921,
          "duration": 0.21428550000001678
        },
        {
          "name": "D5",
          "midi": 74,
          "time": 402.8004900562452,
          "velocity": 0.7480314960629921,
          "duration": 0.21428550000001678
        },
        {
          "name": "C#6",
          "midi": 85,
          "time": 402.8004900562452,
          "velocity": 0.7480314960629921,
          "duration": 0.21428550000001678
        },
        {
          "name": "D6",
          "midi": 86,
          "time": 402.8004900562452,
          "velocity": 0.7480314960629921,
          "duration": 0.21428550000001678
        },
        {
          "name": "C#7",
          "midi": 97,
          "time": 402.8004900562452,
          "velocity": 0.7480314960629921,
          "duration": 0.21428550000001678
        },
        {
          "name": "D7",
          "midi": 98,
          "time": 402.8004900562452,
          "velocity": 0.7480314960629921,
          "duration": 0.21428550000001678
        },
        {
          "name": "D#7",
          "midi": 99,
          "time": 403.01477555624524,
          "velocity": 0.7480314960629921,
          "duration": 0.06249993749997884
        },
        {
          "name": "C#7",
          "midi": 97,
          "time": 403.01477555624524,
          "velocity": 0.7480314960629921,
          "duration": 0.06249993749997884
        },
        {
          "name": "C7",
          "midi": 96,
          "time": 403.01477555624524,
          "velocity": 0.7480314960629921,
          "duration": 0.06249993749997884
        },
        {
          "name": "D#6",
          "midi": 87,
          "time": 403.01477555624524,
          "velocity": 0.7480314960629921,
          "duration": 0.06249993749997884
        },
        {
          "name": "C#6",
          "midi": 85,
          "time": 403.01477555624524,
          "velocity": 0.7480314960629921,
          "duration": 0.06249993749997884
        },
        {
          "name": "C6",
          "midi": 84,
          "time": 403.01477555624524,
          "velocity": 0.7480314960629921,
          "duration": 0.06249993749997884
        },
        {
          "name": "D#5",
          "midi": 75,
          "time": 403.01477555624524,
          "velocity": 0.7480314960629921,
          "duration": 0.06249993749997884
        },
        {
          "name": "C#5",
          "midi": 73,
          "time": 403.01477555624524,
          "velocity": 0.7480314960629921,
          "duration": 0.06249993749997884
        },
        {
          "name": "C5",
          "midi": 72,
          "time": 403.01477555624524,
          "velocity": 0.7480314960629921,
          "duration": 0.06249993749997884
        },
        {
          "name": "D#4",
          "midi": 63,
          "time": 403.01477555624524,
          "velocity": 0.7480314960629921,
          "duration": 0.06249993749997884
        },
        {
          "name": "C#4",
          "midi": 61,
          "time": 403.01477555624524,
          "velocity": 0.7480314960629921,
          "duration": 0.06249993749997884
        },
        {
          "name": "C4",
          "midi": 60,
          "time": 403.01477555624524,
          "velocity": 0.7480314960629921,
          "duration": 0.06249993749997884
        },
        {
          "name": "C4",
          "midi": 60,
          "time": 403.4433465562452,
          "velocity": 0.7480314960629921,
          "duration": 0.06249993749997884
        },
        {
          "name": "C#4",
          "midi": 61,
          "time": 403.4433465562452,
          "velocity": 0.7480314960629921,
          "duration": 0.06249993749997884
        },
        {
          "name": "D#4",
          "midi": 63,
          "time": 403.4433465562452,
          "velocity": 0.7480314960629921,
          "duration": 0.06249993749997884
        },
        {
          "name": "C5",
          "midi": 72,
          "time": 403.4433465562452,
          "velocity": 0.7480314960629921,
          "duration": 0.06249993749997884
        },
        {
          "name": "C#5",
          "midi": 73,
          "time": 403.4433465562452,
          "velocity": 0.7480314960629921,
          "duration": 0.06249993749997884
        },
        {
          "name": "D#5",
          "midi": 75,
          "time": 403.4433465562452,
          "velocity": 0.7480314960629921,
          "duration": 0.06249993749997884
        },
        {
          "name": "C6",
          "midi": 84,
          "time": 403.4433465562452,
          "velocity": 0.7480314960629921,
          "duration": 0.06249993749997884
        },
        {
          "name": "C#6",
          "midi": 85,
          "time": 403.4433465562452,
          "velocity": 0.7480314960629921,
          "duration": 0.06249993749997884
        },
        {
          "name": "D#6",
          "midi": 87,
          "time": 403.4433465562452,
          "velocity": 0.7480314960629921,
          "duration": 0.06249993749997884
        },
        {
          "name": "C7",
          "midi": 96,
          "time": 403.4433465562452,
          "velocity": 0.7480314960629921,
          "duration": 0.06249993749997884
        },
        {
          "name": "C#7",
          "midi": 97,
          "time": 403.4433465562452,
          "velocity": 0.7480314960629921,
          "duration": 0.06249993749997884
        },
        {
          "name": "D#7",
          "midi": 99,
          "time": 403.4433465562452,
          "velocity": 0.7480314960629921,
          "duration": 0.06249993749997884
        },
        {
          "name": "C4",
          "midi": 60,
          "time": 403.8719175562452,
          "velocity": 0.7480314960629921,
          "duration": 0.8571420000000103
        },
        {
          "name": "C#4",
          "midi": 61,
          "time": 403.8719175562452,
          "velocity": 0.7480314960629921,
          "duration": 0.8571420000000103
        },
        {
          "name": "D#4",
          "midi": 63,
          "time": 403.8719175562452,
          "velocity": 0.7480314960629921,
          "duration": 0.8571420000000103
        },
        {
          "name": "C5",
          "midi": 72,
          "time": 403.8719175562452,
          "velocity": 0.7480314960629921,
          "duration": 0.8571420000000103
        },
        {
          "name": "C#5",
          "midi": 73,
          "time": 403.8719175562452,
          "velocity": 0.7480314960629921,
          "duration": 0.8571420000000103
        },
        {
          "name": "D#5",
          "midi": 75,
          "time": 403.8719175562452,
          "velocity": 0.7480314960629921,
          "duration": 0.8571420000000103
        },
        {
          "name": "C6",
          "midi": 84,
          "time": 403.8719175562452,
          "velocity": 0.7480314960629921,
          "duration": 0.8571420000000103
        },
        {
          "name": "C#6",
          "midi": 85,
          "time": 403.8719175562452,
          "velocity": 0.7480314960629921,
          "duration": 0.8571420000000103
        },
        {
          "name": "D#6",
          "midi": 87,
          "time": 403.8719175562452,
          "velocity": 0.7480314960629921,
          "duration": 0.8571420000000103
        },
        {
          "name": "C7",
          "midi": 96,
          "time": 403.8719175562452,
          "velocity": 0.7480314960629921,
          "duration": 0.8571420000000103
        },
        {
          "name": "C#7",
          "midi": 97,
          "time": 403.8719175562452,
          "velocity": 0.7480314960629921,
          "duration": 0.8571420000000103
        },
        {
          "name": "D#7",
          "midi": 99,
          "time": 403.8719175562452,
          "velocity": 0.7480314960629921,
          "duration": 0.8571420000000103
        },
        {
          "name": "E7",
          "midi": 100,
          "time": 404.7290595562452,
          "velocity": 0.7480314960629921,
          "duration": 0.8571420000000103
        },
        {
          "name": "D#7",
          "midi": 99,
          "time": 404.7290595562452,
          "velocity": 0.7480314960629921,
          "duration": 0.8571420000000103
        },
        {
          "name": "C#7",
          "midi": 97,
          "time": 404.7290595562452,
          "velocity": 0.7480314960629921,
          "duration": 0.8571420000000103
        },
        {
          "name": "E6",
          "midi": 88,
          "time": 404.7290595562452,
          "velocity": 0.7480314960629921,
          "duration": 0.8571420000000103
        },
        {
          "name": "D#6",
          "midi": 87,
          "time": 404.7290595562452,
          "velocity": 0.7480314960629921,
          "duration": 0.8571420000000103
        },
        {
          "name": "C#6",
          "midi": 85,
          "time": 404.7290595562452,
          "velocity": 0.7480314960629921,
          "duration": 0.8571420000000103
        },
        {
          "name": "E5",
          "midi": 76,
          "time": 404.7290595562452,
          "velocity": 0.7480314960629921,
          "duration": 0.8571420000000103
        },
        {
          "name": "D#5",
          "midi": 75,
          "time": 404.7290595562452,
          "velocity": 0.7480314960629921,
          "duration": 0.8571420000000103
        },
        {
          "name": "C#5",
          "midi": 73,
          "time": 404.7290595562452,
          "velocity": 0.7480314960629921,
          "duration": 0.8571420000000103
        },
        {
          "name": "E4",
          "midi": 64,
          "time": 404.7290595562452,
          "velocity": 0.7480314960629921,
          "duration": 0.8571420000000103
        },
        {
          "name": "D#4",
          "midi": 63,
          "time": 404.7290595562452,
          "velocity": 0.7480314960629921,
          "duration": 0.8571420000000103
        },
        {
          "name": "C#4",
          "midi": 61,
          "time": 404.7290595562452,
          "velocity": 0.7480314960629921,
          "duration": 0.8571420000000103
        },
        {
          "name": "E7",
          "midi": 100,
          "time": 405.5862015562452,
          "velocity": 0.7480314960629921,
          "duration": 0.4285709999999767
        },
        {
          "name": "D#7",
          "midi": 99,
          "time": 405.5862015562452,
          "velocity": 0.7480314960629921,
          "duration": 0.4285709999999767
        },
        {
          "name": "C#7",
          "midi": 97,
          "time": 405.5862015562452,
          "velocity": 0.7480314960629921,
          "duration": 0.4285709999999767
        },
        {
          "name": "E6",
          "midi": 88,
          "time": 405.5862015562452,
          "velocity": 0.7480314960629921,
          "duration": 0.4285709999999767
        },
        {
          "name": "D#6",
          "midi": 87,
          "time": 405.5862015562452,
          "velocity": 0.7480314960629921,
          "duration": 0.4285709999999767
        },
        {
          "name": "C#6",
          "midi": 85,
          "time": 405.5862015562452,
          "velocity": 0.7480314960629921,
          "duration": 0.4285709999999767
        },
        {
          "name": "E5",
          "midi": 76,
          "time": 405.5862015562452,
          "velocity": 0.7480314960629921,
          "duration": 0.4285709999999767
        },
        {
          "name": "D#5",
          "midi": 75,
          "time": 405.5862015562452,
          "velocity": 0.7480314960629921,
          "duration": 0.4285709999999767
        },
        {
          "name": "C#5",
          "midi": 73,
          "time": 405.5862015562452,
          "velocity": 0.7480314960629921,
          "duration": 0.4285709999999767
        },
        {
          "name": "E4",
          "midi": 64,
          "time": 405.5862015562452,
          "velocity": 0.7480314960629921,
          "duration": 0.4285709999999767
        },
        {
          "name": "D#4",
          "midi": 63,
          "time": 405.5862015562452,
          "velocity": 0.7480314960629921,
          "duration": 0.4285709999999767
        },
        {
          "name": "C#4",
          "midi": 61,
          "time": 405.5862015562452,
          "velocity": 0.7480314960629921,
          "duration": 0.4285709999999767
        },
        {
          "name": "E7",
          "midi": 100,
          "time": 406.0147725562452,
          "velocity": 0.7480314960629921,
          "duration": 0.21428550000001678
        },
        {
          "name": "D#7",
          "midi": 99,
          "time": 406.0147725562452,
          "velocity": 0.7480314960629921,
          "duration": 0.21428550000001678
        },
        {
          "name": "C#7",
          "midi": 97,
          "time": 406.0147725562452,
          "velocity": 0.7480314960629921,
          "duration": 0.21428550000001678
        },
        {
          "name": "E6",
          "midi": 88,
          "time": 406.0147725562452,
          "velocity": 0.7480314960629921,
          "duration": 0.21428550000001678
        },
        {
          "name": "D#6",
          "midi": 87,
          "time": 406.0147725562452,
          "velocity": 0.7480314960629921,
          "duration": 0.21428550000001678
        },
        {
          "name": "C#6",
          "midi": 85,
          "time": 406.0147725562452,
          "velocity": 0.7480314960629921,
          "duration": 0.21428550000001678
        },
        {
          "name": "E5",
          "midi": 76,
          "time": 406.0147725562452,
          "velocity": 0.7480314960629921,
          "duration": 0.21428550000001678
        },
        {
          "name": "D#5",
          "midi": 75,
          "time": 406.0147725562452,
          "velocity": 0.7480314960629921,
          "duration": 0.21428550000001678
        },
        {
          "name": "C#5",
          "midi": 73,
          "time": 406.0147725562452,
          "velocity": 0.7480314960629921,
          "duration": 0.21428550000001678
        },
        {
          "name": "E4",
          "midi": 64,
          "time": 406.0147725562452,
          "velocity": 0.7480314960629921,
          "duration": 0.21428550000001678
        },
        {
          "name": "D#4",
          "midi": 63,
          "time": 406.0147725562452,
          "velocity": 0.7480314960629921,
          "duration": 0.21428550000001678
        },
        {
          "name": "C#4",
          "midi": 61,
          "time": 406.0147725562452,
          "velocity": 0.7480314960629921,
          "duration": 0.21428550000001678
        },
        {
          "name": "E7",
          "midi": 100,
          "time": 406.2290580562452,
          "velocity": 0.7480314960629921,
          "duration": 0.21428550000001678
        },
        {
          "name": "D#7",
          "midi": 99,
          "time": 406.2290580562452,
          "velocity": 0.7480314960629921,
          "duration": 0.21428550000001678
        },
        {
          "name": "C#7",
          "midi": 97,
          "time": 406.2290580562452,
          "velocity": 0.7480314960629921,
          "duration": 0.21428550000001678
        },
        {
          "name": "E6",
          "midi": 88,
          "time": 406.2290580562452,
          "velocity": 0.7480314960629921,
          "duration": 0.21428550000001678
        },
        {
          "name": "D#6",
          "midi": 87,
          "time": 406.2290580562452,
          "velocity": 0.7480314960629921,
          "duration": 0.21428550000001678
        },
        {
          "name": "C#6",
          "midi": 85,
          "time": 406.2290580562452,
          "velocity": 0.7480314960629921,
          "duration": 0.21428550000001678
        },
        {
          "name": "E5",
          "midi": 76,
          "time": 406.2290580562452,
          "velocity": 0.7480314960629921,
          "duration": 0.21428550000001678
        },
        {
          "name": "D#5",
          "midi": 75,
          "time": 406.2290580562452,
          "velocity": 0.7480314960629921,
          "duration": 0.21428550000001678
        },
        {
          "name": "C#5",
          "midi": 73,
          "time": 406.2290580562452,
          "velocity": 0.7480314960629921,
          "duration": 0.21428550000001678
        },
        {
          "name": "E4",
          "midi": 64,
          "time": 406.2290580562452,
          "velocity": 0.7480314960629921,
          "duration": 0.21428550000001678
        },
        {
          "name": "D#4",
          "midi": 63,
          "time": 406.2290580562452,
          "velocity": 0.7480314960629921,
          "duration": 0.21428550000001678
        },
        {
          "name": "C#4",
          "midi": 61,
          "time": 406.2290580562452,
          "velocity": 0.7480314960629921,
          "duration": 0.21428550000001678
        },
        {
          "name": "D#7",
          "midi": 99,
          "time": 406.4433435562452,
          "velocity": 0.7480314960629921,
          "duration": 0.06249993749997884
        },
        {
          "name": "D7",
          "midi": 98,
          "time": 406.4433435562452,
          "velocity": 0.7480314960629921,
          "duration": 0.06249993749997884
        },
        {
          "name": "C7",
          "midi": 96,
          "time": 406.4433435562452,
          "velocity": 0.7480314960629921,
          "duration": 0.06249993749997884
        },
        {
          "name": "D#6",
          "midi": 87,
          "time": 406.4433435562452,
          "velocity": 0.7480314960629921,
          "duration": 0.06249993749997884
        },
        {
          "name": "D6",
          "midi": 86,
          "time": 406.4433435562452,
          "velocity": 0.7480314960629921,
          "duration": 0.06249993749997884
        },
        {
          "name": "C6",
          "midi": 84,
          "time": 406.4433435562452,
          "velocity": 0.7480314960629921,
          "duration": 0.06249993749997884
        },
        {
          "name": "D#5",
          "midi": 75,
          "time": 406.4433435562452,
          "velocity": 0.7480314960629921,
          "duration": 0.06249993749997884
        },
        {
          "name": "D5",
          "midi": 74,
          "time": 406.4433435562452,
          "velocity": 0.7480314960629921,
          "duration": 0.06249993749997884
        },
        {
          "name": "C5",
          "midi": 72,
          "time": 406.4433435562452,
          "velocity": 0.7480314960629921,
          "duration": 0.06249993749997884
        },
        {
          "name": "D#4",
          "midi": 63,
          "time": 406.4433435562452,
          "velocity": 0.7480314960629921,
          "duration": 0.06249993749997884
        },
        {
          "name": "D4",
          "midi": 62,
          "time": 406.4433435562452,
          "velocity": 0.7480314960629921,
          "duration": 0.06249993749997884
        },
        {
          "name": "C4",
          "midi": 60,
          "time": 406.4433435562452,
          "velocity": 0.7480314960629921,
          "duration": 0.06249993749997884
        },
        {
          "name": "C4",
          "midi": 60,
          "time": 406.8719145562452,
          "velocity": 0.7480314960629921,
          "duration": 0.06249993749997884
        },
        {
          "name": "D4",
          "midi": 62,
          "time": 406.8719145562452,
          "velocity": 0.7480314960629921,
          "duration": 0.06249993749997884
        },
        {
          "name": "D#4",
          "midi": 63,
          "time": 406.8719145562452,
          "velocity": 0.7480314960629921,
          "duration": 0.06249993749997884
        },
        {
          "name": "C5",
          "midi": 72,
          "time": 406.8719145562452,
          "velocity": 0.7480314960629921,
          "duration": 0.06249993749997884
        },
        {
          "name": "D5",
          "midi": 74,
          "time": 406.8719145562452,
          "velocity": 0.7480314960629921,
          "duration": 0.06249993749997884
        },
        {
          "name": "D#5",
          "midi": 75,
          "time": 406.8719145562452,
          "velocity": 0.7480314960629921,
          "duration": 0.06249993749997884
        },
        {
          "name": "C6",
          "midi": 84,
          "time": 406.8719145562452,
          "velocity": 0.7480314960629921,
          "duration": 0.06249993749997884
        },
        {
          "name": "D6",
          "midi": 86,
          "time": 406.8719145562452,
          "velocity": 0.7480314960629921,
          "duration": 0.06249993749997884
        },
        {
          "name": "D#6",
          "midi": 87,
          "time": 406.8719145562452,
          "velocity": 0.7480314960629921,
          "duration": 0.06249993749997884
        },
        {
          "name": "C7",
          "midi": 96,
          "time": 406.8719145562452,
          "velocity": 0.7480314960629921,
          "duration": 0.06249993749997884
        },
        {
          "name": "D7",
          "midi": 98,
          "time": 406.8719145562452,
          "velocity": 0.7480314960629921,
          "duration": 0.06249993749997884
        },
        {
          "name": "D#7",
          "midi": 99,
          "time": 406.8719145562452,
          "velocity": 0.7480314960629921,
          "duration": 0.06249993749997884
        },
        {
          "name": "C4",
          "midi": 60,
          "time": 407.3004855562452,
          "velocity": 0.7480314960629921,
          "duration": 0.8571420000000103
        },
        {
          "name": "D4",
          "midi": 62,
          "time": 407.3004855562452,
          "velocity": 0.7480314960629921,
          "duration": 0.8571420000000103
        },
        {
          "name": "D#4",
          "midi": 63,
          "time": 407.3004855562452,
          "velocity": 0.7480314960629921,
          "duration": 0.8571420000000103
        },
        {
          "name": "C5",
          "midi": 72,
          "time": 407.3004855562452,
          "velocity": 0.7480314960629921,
          "duration": 0.8571420000000103
        },
        {
          "name": "D5",
          "midi": 74,
          "time": 407.3004855562452,
          "velocity": 0.7480314960629921,
          "duration": 0.8571420000000103
        },
        {
          "name": "D#5",
          "midi": 75,
          "time": 407.3004855562452,
          "velocity": 0.7480314960629921,
          "duration": 0.8571420000000103
        },
        {
          "name": "C6",
          "midi": 84,
          "time": 407.3004855562452,
          "velocity": 0.7480314960629921,
          "duration": 0.8571420000000103
        },
        {
          "name": "D6",
          "midi": 86,
          "time": 407.3004855562452,
          "velocity": 0.7480314960629921,
          "duration": 0.8571420000000103
        },
        {
          "name": "D#6",
          "midi": 87,
          "time": 407.3004855562452,
          "velocity": 0.7480314960629921,
          "duration": 0.8571420000000103
        },
        {
          "name": "C7",
          "midi": 96,
          "time": 407.3004855562452,
          "velocity": 0.7480314960629921,
          "duration": 0.8571420000000103
        },
        {
          "name": "D7",
          "midi": 98,
          "time": 407.3004855562452,
          "velocity": 0.7480314960629921,
          "duration": 0.8571420000000103
        },
        {
          "name": "D#7",
          "midi": 99,
          "time": 407.3004855562452,
          "velocity": 0.7480314960629921,
          "duration": 0.8571420000000103
        },
        {
          "name": "C#4",
          "midi": 61,
          "time": 408.1576275562452,
          "velocity": 0.7480314960629921,
          "duration": 0.8571420000000103
        },
        {
          "name": "D4",
          "midi": 62,
          "time": 408.1576275562452,
          "velocity": 0.7480314960629921,
          "duration": 0.8571420000000103
        },
        {
          "name": "C#5",
          "midi": 73,
          "time": 408.1576275562452,
          "velocity": 0.7480314960629921,
          "duration": 0.8571420000000103
        },
        {
          "name": "D5",
          "midi": 74,
          "time": 408.1576275562452,
          "velocity": 0.7480314960629921,
          "duration": 0.8571420000000103
        },
        {
          "name": "C#6",
          "midi": 85,
          "time": 408.1576275562452,
          "velocity": 0.7480314960629921,
          "duration": 0.8571420000000103
        },
        {
          "name": "D6",
          "midi": 86,
          "time": 408.1576275562452,
          "velocity": 0.7480314960629921,
          "duration": 0.8571420000000103
        },
        {
          "name": "C#7",
          "midi": 97,
          "time": 408.1576275562452,
          "velocity": 0.7480314960629921,
          "duration": 0.8571420000000103
        },
        {
          "name": "D7",
          "midi": 98,
          "time": 408.1576275562452,
          "velocity": 0.7480314960629921,
          "duration": 0.8571420000000103
        },
        {
          "name": "C#4",
          "midi": 61,
          "time": 409.0147695562452,
          "velocity": 0.7480314960629921,
          "duration": 0.4285709999999767
        },
        {
          "name": "D4",
          "midi": 62,
          "time": 409.0147695562452,
          "velocity": 0.7480314960629921,
          "duration": 0.4285709999999767
        },
        {
          "name": "C#5",
          "midi": 73,
          "time": 409.0147695562452,
          "velocity": 0.7480314960629921,
          "duration": 0.4285709999999767
        },
        {
          "name": "D5",
          "midi": 74,
          "time": 409.0147695562452,
          "velocity": 0.7480314960629921,
          "duration": 0.4285709999999767
        },
        {
          "name": "C#6",
          "midi": 85,
          "time": 409.0147695562452,
          "velocity": 0.7480314960629921,
          "duration": 0.4285709999999767
        },
        {
          "name": "D6",
          "midi": 86,
          "time": 409.0147695562452,
          "velocity": 0.7480314960629921,
          "duration": 0.4285709999999767
        },
        {
          "name": "C#7",
          "midi": 97,
          "time": 409.0147695562452,
          "velocity": 0.7480314960629921,
          "duration": 0.4285709999999767
        },
        {
          "name": "D7",
          "midi": 98,
          "time": 409.0147695562452,
          "velocity": 0.7480314960629921,
          "duration": 0.4285709999999767
        },
        {
          "name": "C#4",
          "midi": 61,
          "time": 409.4433405562452,
          "velocity": 0.7480314960629921,
          "duration": 0.21428550000001678
        },
        {
          "name": "D4",
          "midi": 62,
          "time": 409.4433405562452,
          "velocity": 0.7480314960629921,
          "duration": 0.21428550000001678
        },
        {
          "name": "C#5",
          "midi": 73,
          "time": 409.4433405562452,
          "velocity": 0.7480314960629921,
          "duration": 0.21428550000001678
        },
        {
          "name": "D5",
          "midi": 74,
          "time": 409.4433405562452,
          "velocity": 0.7480314960629921,
          "duration": 0.21428550000001678
        },
        {
          "name": "C#6",
          "midi": 85,
          "time": 409.4433405562452,
          "velocity": 0.7480314960629921,
          "duration": 0.21428550000001678
        },
        {
          "name": "D6",
          "midi": 86,
          "time": 409.4433405562452,
          "velocity": 0.7480314960629921,
          "duration": 0.21428550000001678
        },
        {
          "name": "C#7",
          "midi": 97,
          "time": 409.4433405562452,
          "velocity": 0.7480314960629921,
          "duration": 0.21428550000001678
        },
        {
          "name": "D7",
          "midi": 98,
          "time": 409.4433405562452,
          "velocity": 0.7480314960629921,
          "duration": 0.21428550000001678
        },
        {
          "name": "C#4",
          "midi": 61,
          "time": 409.6576260562452,
          "velocity": 0.7480314960629921,
          "duration": 0.21428550000001678
        },
        {
          "name": "D4",
          "midi": 62,
          "time": 409.6576260562452,
          "velocity": 0.7480314960629921,
          "duration": 0.21428550000001678
        },
        {
          "name": "C#5",
          "midi": 73,
          "time": 409.6576260562452,
          "velocity": 0.7480314960629921,
          "duration": 0.21428550000001678
        },
        {
          "name": "D5",
          "midi": 74,
          "time": 409.6576260562452,
          "velocity": 0.7480314960629921,
          "duration": 0.21428550000001678
        },
        {
          "name": "C#6",
          "midi": 85,
          "time": 409.6576260562452,
          "velocity": 0.7480314960629921,
          "duration": 0.21428550000001678
        },
        {
          "name": "D6",
          "midi": 86,
          "time": 409.6576260562452,
          "velocity": 0.7480314960629921,
          "duration": 0.21428550000001678
        },
        {
          "name": "C#7",
          "midi": 97,
          "time": 409.6576260562452,
          "velocity": 0.7480314960629921,
          "duration": 0.21428550000001678
        },
        {
          "name": "D7",
          "midi": 98,
          "time": 409.6576260562452,
          "velocity": 0.7480314960629921,
          "duration": 0.21428550000001678
        },
        {
          "name": "D#7",
          "midi": 99,
          "time": 409.8719115562452,
          "velocity": 0.7480314960629921,
          "duration": 0.06249993749997884
        },
        {
          "name": "C#7",
          "midi": 97,
          "time": 409.8719115562452,
          "velocity": 0.7480314960629921,
          "duration": 0.06249993749997884
        },
        {
          "name": "C7",
          "midi": 96,
          "time": 409.8719115562452,
          "velocity": 0.7480314960629921,
          "duration": 0.06249993749997884
        },
        {
          "name": "D#6",
          "midi": 87,
          "time": 409.8719115562452,
          "velocity": 0.7480314960629921,
          "duration": 0.06249993749997884
        },
        {
          "name": "C#6",
          "midi": 85,
          "time": 409.8719115562452,
          "velocity": 0.7480314960629921,
          "duration": 0.06249993749997884
        },
        {
          "name": "C6",
          "midi": 84,
          "time": 409.8719115562452,
          "velocity": 0.7480314960629921,
          "duration": 0.06249993749997884
        },
        {
          "name": "D#5",
          "midi": 75,
          "time": 409.8719115562452,
          "velocity": 0.7480314960629921,
          "duration": 0.06249993749997884
        },
        {
          "name": "C#5",
          "midi": 73,
          "time": 409.8719115562452,
          "velocity": 0.7480314960629921,
          "duration": 0.06249993749997884
        },
        {
          "name": "C5",
          "midi": 72,
          "time": 409.8719115562452,
          "velocity": 0.7480314960629921,
          "duration": 0.06249993749997884
        },
        {
          "name": "D#4",
          "midi": 63,
          "time": 409.8719115562452,
          "velocity": 0.7480314960629921,
          "duration": 0.06249993749997884
        },
        {
          "name": "C#4",
          "midi": 61,
          "time": 409.8719115562452,
          "velocity": 0.7480314960629921,
          "duration": 0.06249993749997884
        },
        {
          "name": "C4",
          "midi": 60,
          "time": 409.8719115562452,
          "velocity": 0.7480314960629921,
          "duration": 0.06249993749997884
        },
        {
          "name": "C4",
          "midi": 60,
          "time": 410.3004825562452,
          "velocity": 0.7480314960629921,
          "duration": 0.06249993749997884
        },
        {
          "name": "C#4",
          "midi": 61,
          "time": 410.3004825562452,
          "velocity": 0.7480314960629921,
          "duration": 0.06249993749997884
        },
        {
          "name": "D#4",
          "midi": 63,
          "time": 410.3004825562452,
          "velocity": 0.7480314960629921,
          "duration": 0.06249993749997884
        },
        {
          "name": "C5",
          "midi": 72,
          "time": 410.3004825562452,
          "velocity": 0.7480314960629921,
          "duration": 0.06249993749997884
        },
        {
          "name": "C#5",
          "midi": 73,
          "time": 410.3004825562452,
          "velocity": 0.7480314960629921,
          "duration": 0.06249993749997884
        },
        {
          "name": "D#5",
          "midi": 75,
          "time": 410.3004825562452,
          "velocity": 0.7480314960629921,
          "duration": 0.06249993749997884
        },
        {
          "name": "C6",
          "midi": 84,
          "time": 410.3004825562452,
          "velocity": 0.7480314960629921,
          "duration": 0.06249993749997884
        },
        {
          "name": "C#6",
          "midi": 85,
          "time": 410.3004825562452,
          "velocity": 0.7480314960629921,
          "duration": 0.06249993749997884
        },
        {
          "name": "D#6",
          "midi": 87,
          "time": 410.3004825562452,
          "velocity": 0.7480314960629921,
          "duration": 0.06249993749997884
        },
        {
          "name": "C7",
          "midi": 96,
          "time": 410.3004825562452,
          "velocity": 0.7480314960629921,
          "duration": 0.06249993749997884
        },
        {
          "name": "C#7",
          "midi": 97,
          "time": 410.3004825562452,
          "velocity": 0.7480314960629921,
          "duration": 0.06249993749997884
        },
        {
          "name": "D#7",
          "midi": 99,
          "time": 410.3004825562452,
          "velocity": 0.7480314960629921,
          "duration": 0.06249993749997884
        },
        {
          "name": "C4",
          "midi": 60,
          "time": 410.72905355624516,
          "velocity": 0.7480314960629921,
          "duration": 0.8571420000000103
        },
        {
          "name": "C#4",
          "midi": 61,
          "time": 410.72905355624516,
          "velocity": 0.7480314960629921,
          "duration": 0.8571420000000103
        },
        {
          "name": "D#4",
          "midi": 63,
          "time": 410.72905355624516,
          "velocity": 0.7480314960629921,
          "duration": 0.8571420000000103
        },
        {
          "name": "C5",
          "midi": 72,
          "time": 410.72905355624516,
          "velocity": 0.7480314960629921,
          "duration": 0.8571420000000103
        },
        {
          "name": "C#5",
          "midi": 73,
          "time": 410.72905355624516,
          "velocity": 0.7480314960629921,
          "duration": 0.8571420000000103
        },
        {
          "name": "D#5",
          "midi": 75,
          "time": 410.72905355624516,
          "velocity": 0.7480314960629921,
          "duration": 0.8571420000000103
        },
        {
          "name": "C6",
          "midi": 84,
          "time": 410.72905355624516,
          "velocity": 0.7480314960629921,
          "duration": 0.8571420000000103
        },
        {
          "name": "C#6",
          "midi": 85,
          "time": 410.72905355624516,
          "velocity": 0.7480314960629921,
          "duration": 0.8571420000000103
        },
        {
          "name": "D#6",
          "midi": 87,
          "time": 410.72905355624516,
          "velocity": 0.7480314960629921,
          "duration": 0.8571420000000103
        },
        {
          "name": "C7",
          "midi": 96,
          "time": 410.72905355624516,
          "velocity": 0.7480314960629921,
          "duration": 0.8571420000000103
        },
        {
          "name": "C#7",
          "midi": 97,
          "time": 410.72905355624516,
          "velocity": 0.7480314960629921,
          "duration": 0.8571420000000103
        },
        {
          "name": "D#7",
          "midi": 99,
          "time": 410.72905355624516,
          "velocity": 0.7480314960629921,
          "duration": 0.8571420000000103
        },
        {
          "name": "E7",
          "midi": 100,
          "time": 411.5861955562452,
          "velocity": 0.7480314960629921,
          "duration": 0.8571420000000103
        },
        {
          "name": "D#7",
          "midi": 99,
          "time": 411.5861955562452,
          "velocity": 0.7480314960629921,
          "duration": 0.8571420000000103
        },
        {
          "name": "C#7",
          "midi": 97,
          "time": 411.5861955562452,
          "velocity": 0.7480314960629921,
          "duration": 0.8571420000000103
        },
        {
          "name": "E6",
          "midi": 88,
          "time": 411.5861955562452,
          "velocity": 0.7480314960629921,
          "duration": 0.8571420000000103
        },
        {
          "name": "D#6",
          "midi": 87,
          "time": 411.5861955562452,
          "velocity": 0.7480314960629921,
          "duration": 0.8571420000000103
        },
        {
          "name": "C#6",
          "midi": 85,
          "time": 411.5861955562452,
          "velocity": 0.7480314960629921,
          "duration": 0.8571420000000103
        },
        {
          "name": "E5",
          "midi": 76,
          "time": 411.5861955562452,
          "velocity": 0.7480314960629921,
          "duration": 0.8571420000000103
        },
        {
          "name": "D#5",
          "midi": 75,
          "time": 411.5861955562452,
          "velocity": 0.7480314960629921,
          "duration": 0.8571420000000103
        },
        {
          "name": "C#5",
          "midi": 73,
          "time": 411.5861955562452,
          "velocity": 0.7480314960629921,
          "duration": 0.8571420000000103
        },
        {
          "name": "E4",
          "midi": 64,
          "time": 411.5861955562452,
          "velocity": 0.7480314960629921,
          "duration": 0.8571420000000103
        },
        {
          "name": "D#4",
          "midi": 63,
          "time": 411.5861955562452,
          "velocity": 0.7480314960629921,
          "duration": 0.8571420000000103
        },
        {
          "name": "C#4",
          "midi": 61,
          "time": 411.5861955562452,
          "velocity": 0.7480314960629921,
          "duration": 0.8571420000000103
        },
        {
          "name": "E7",
          "midi": 100,
          "time": 412.4433375562452,
          "velocity": 0.7480314960629921,
          "duration": 0.4285709999999767
        },
        {
          "name": "D#7",
          "midi": 99,
          "time": 412.4433375562452,
          "velocity": 0.7480314960629921,
          "duration": 0.4285709999999767
        },
        {
          "name": "C#7",
          "midi": 97,
          "time": 412.4433375562452,
          "velocity": 0.7480314960629921,
          "duration": 0.4285709999999767
        },
        {
          "name": "E6",
          "midi": 88,
          "time": 412.4433375562452,
          "velocity": 0.7480314960629921,
          "duration": 0.4285709999999767
        },
        {
          "name": "D#6",
          "midi": 87,
          "time": 412.4433375562452,
          "velocity": 0.7480314960629921,
          "duration": 0.4285709999999767
        },
        {
          "name": "C#6",
          "midi": 85,
          "time": 412.4433375562452,
          "velocity": 0.7480314960629921,
          "duration": 0.4285709999999767
        },
        {
          "name": "E5",
          "midi": 76,
          "time": 412.4433375562452,
          "velocity": 0.7480314960629921,
          "duration": 0.4285709999999767
        },
        {
          "name": "D#5",
          "midi": 75,
          "time": 412.4433375562452,
          "velocity": 0.7480314960629921,
          "duration": 0.4285709999999767
        },
        {
          "name": "C#5",
          "midi": 73,
          "time": 412.4433375562452,
          "velocity": 0.7480314960629921,
          "duration": 0.4285709999999767
        },
        {
          "name": "E4",
          "midi": 64,
          "time": 412.4433375562452,
          "velocity": 0.7480314960629921,
          "duration": 0.4285709999999767
        },
        {
          "name": "D#4",
          "midi": 63,
          "time": 412.4433375562452,
          "velocity": 0.7480314960629921,
          "duration": 0.4285709999999767
        },
        {
          "name": "C#4",
          "midi": 61,
          "time": 412.4433375562452,
          "velocity": 0.7480314960629921,
          "duration": 0.4285709999999767
        },
        {
          "name": "E7",
          "midi": 100,
          "time": 412.87190855624516,
          "velocity": 0.7480314960629921,
          "duration": 0.21428550000001678
        },
        {
          "name": "D#7",
          "midi": 99,
          "time": 412.87190855624516,
          "velocity": 0.7480314960629921,
          "duration": 0.21428550000001678
        },
        {
          "name": "C#7",
          "midi": 97,
          "time": 412.87190855624516,
          "velocity": 0.7480314960629921,
          "duration": 0.21428550000001678
        },
        {
          "name": "E6",
          "midi": 88,
          "time": 412.87190855624516,
          "velocity": 0.7480314960629921,
          "duration": 0.21428550000001678
        },
        {
          "name": "D#6",
          "midi": 87,
          "time": 412.87190855624516,
          "velocity": 0.7480314960629921,
          "duration": 0.21428550000001678
        },
        {
          "name": "C#6",
          "midi": 85,
          "time": 412.87190855624516,
          "velocity": 0.7480314960629921,
          "duration": 0.21428550000001678
        },
        {
          "name": "E5",
          "midi": 76,
          "time": 412.87190855624516,
          "velocity": 0.7480314960629921,
          "duration": 0.21428550000001678
        },
        {
          "name": "D#5",
          "midi": 75,
          "time": 412.87190855624516,
          "velocity": 0.7480314960629921,
          "duration": 0.21428550000001678
        },
        {
          "name": "C#5",
          "midi": 73,
          "time": 412.87190855624516,
          "velocity": 0.7480314960629921,
          "duration": 0.21428550000001678
        },
        {
          "name": "E4",
          "midi": 64,
          "time": 412.87190855624516,
          "velocity": 0.7480314960629921,
          "duration": 0.21428550000001678
        },
        {
          "name": "D#4",
          "midi": 63,
          "time": 412.87190855624516,
          "velocity": 0.7480314960629921,
          "duration": 0.21428550000001678
        },
        {
          "name": "C#4",
          "midi": 61,
          "time": 412.87190855624516,
          "velocity": 0.7480314960629921,
          "duration": 0.21428550000001678
        },
        {
          "name": "E7",
          "midi": 100,
          "time": 413.0861940562452,
          "velocity": 0.7480314960629921,
          "duration": 0.21428550000001678
        },
        {
          "name": "D#7",
          "midi": 99,
          "time": 413.0861940562452,
          "velocity": 0.7480314960629921,
          "duration": 0.21428550000001678
        },
        {
          "name": "C#7",
          "midi": 97,
          "time": 413.0861940562452,
          "velocity": 0.7480314960629921,
          "duration": 0.21428550000001678
        },
        {
          "name": "E6",
          "midi": 88,
          "time": 413.0861940562452,
          "velocity": 0.7480314960629921,
          "duration": 0.21428550000001678
        },
        {
          "name": "D#6",
          "midi": 87,
          "time": 413.0861940562452,
          "velocity": 0.7480314960629921,
          "duration": 0.21428550000001678
        },
        {
          "name": "C#6",
          "midi": 85,
          "time": 413.0861940562452,
          "velocity": 0.7480314960629921,
          "duration": 0.21428550000001678
        },
        {
          "name": "E5",
          "midi": 76,
          "time": 413.0861940562452,
          "velocity": 0.7480314960629921,
          "duration": 0.21428550000001678
        },
        {
          "name": "D#5",
          "midi": 75,
          "time": 413.0861940562452,
          "velocity": 0.7480314960629921,
          "duration": 0.21428550000001678
        },
        {
          "name": "C#5",
          "midi": 73,
          "time": 413.0861940562452,
          "velocity": 0.7480314960629921,
          "duration": 0.21428550000001678
        },
        {
          "name": "E4",
          "midi": 64,
          "time": 413.0861940562452,
          "velocity": 0.7480314960629921,
          "duration": 0.21428550000001678
        },
        {
          "name": "D#4",
          "midi": 63,
          "time": 413.0861940562452,
          "velocity": 0.7480314960629921,
          "duration": 0.21428550000001678
        },
        {
          "name": "C#4",
          "midi": 61,
          "time": 413.0861940562452,
          "velocity": 0.7480314960629921,
          "duration": 0.21428550000001678
        },
        {
          "name": "D#7",
          "midi": 99,
          "time": 413.3004795562452,
          "velocity": 0.7480314960629921,
          "duration": 0.06249993749997884
        },
        {
          "name": "D7",
          "midi": 98,
          "time": 413.3004795562452,
          "velocity": 0.7480314960629921,
          "duration": 0.06249993749997884
        },
        {
          "name": "C7",
          "midi": 96,
          "time": 413.3004795562452,
          "velocity": 0.7480314960629921,
          "duration": 0.06249993749997884
        },
        {
          "name": "D#6",
          "midi": 87,
          "time": 413.3004795562452,
          "velocity": 0.7480314960629921,
          "duration": 0.06249993749997884
        },
        {
          "name": "D6",
          "midi": 86,
          "time": 413.3004795562452,
          "velocity": 0.7480314960629921,
          "duration": 0.06249993749997884
        },
        {
          "name": "C6",
          "midi": 84,
          "time": 413.3004795562452,
          "velocity": 0.7480314960629921,
          "duration": 0.06249993749997884
        },
        {
          "name": "D#5",
          "midi": 75,
          "time": 413.3004795562452,
          "velocity": 0.7480314960629921,
          "duration": 0.06249993749997884
        },
        {
          "name": "D5",
          "midi": 74,
          "time": 413.3004795562452,
          "velocity": 0.7480314960629921,
          "duration": 0.06249993749997884
        },
        {
          "name": "C5",
          "midi": 72,
          "time": 413.3004795562452,
          "velocity": 0.7480314960629921,
          "duration": 0.06249993749997884
        },
        {
          "name": "D#4",
          "midi": 63,
          "time": 413.3004795562452,
          "velocity": 0.7480314960629921,
          "duration": 0.06249993749997884
        },
        {
          "name": "D4",
          "midi": 62,
          "time": 413.3004795562452,
          "velocity": 0.7480314960629921,
          "duration": 0.06249993749997884
        },
        {
          "name": "C4",
          "midi": 60,
          "time": 413.3004795562452,
          "velocity": 0.7480314960629921,
          "duration": 0.06249993749997884
        },
        {
          "name": "C4",
          "midi": 60,
          "time": 413.72905055624517,
          "velocity": 0.7480314960629921,
          "duration": 0.06249993749997884
        },
        {
          "name": "D4",
          "midi": 62,
          "time": 413.72905055624517,
          "velocity": 0.7480314960629921,
          "duration": 0.06249993749997884
        },
        {
          "name": "D#4",
          "midi": 63,
          "time": 413.72905055624517,
          "velocity": 0.7480314960629921,
          "duration": 0.06249993749997884
        },
        {
          "name": "C5",
          "midi": 72,
          "time": 413.72905055624517,
          "velocity": 0.7480314960629921,
          "duration": 0.06249993749997884
        },
        {
          "name": "D5",
          "midi": 74,
          "time": 413.72905055624517,
          "velocity": 0.7480314960629921,
          "duration": 0.06249993749997884
        },
        {
          "name": "D#5",
          "midi": 75,
          "time": 413.72905055624517,
          "velocity": 0.7480314960629921,
          "duration": 0.06249993749997884
        },
        {
          "name": "C6",
          "midi": 84,
          "time": 413.72905055624517,
          "velocity": 0.7480314960629921,
          "duration": 0.06249993749997884
        },
        {
          "name": "D6",
          "midi": 86,
          "time": 413.72905055624517,
          "velocity": 0.7480314960629921,
          "duration": 0.06249993749997884
        },
        {
          "name": "D#6",
          "midi": 87,
          "time": 413.72905055624517,
          "velocity": 0.7480314960629921,
          "duration": 0.06249993749997884
        },
        {
          "name": "C7",
          "midi": 96,
          "time": 413.72905055624517,
          "velocity": 0.7480314960629921,
          "duration": 0.06249993749997884
        },
        {
          "name": "D7",
          "midi": 98,
          "time": 413.72905055624517,
          "velocity": 0.7480314960629921,
          "duration": 0.06249993749997884
        },
        {
          "name": "D#7",
          "midi": 99,
          "time": 413.72905055624517,
          "velocity": 0.7480314960629921,
          "duration": 0.06249993749997884
        },
        {
          "name": "C4",
          "midi": 60,
          "time": 414.15762155624515,
          "velocity": 0.7480314960629921,
          "duration": 0.8571420000000103
        },
        {
          "name": "D4",
          "midi": 62,
          "time": 414.15762155624515,
          "velocity": 0.7480314960629921,
          "duration": 0.8571420000000103
        },
        {
          "name": "D#4",
          "midi": 63,
          "time": 414.15762155624515,
          "velocity": 0.7480314960629921,
          "duration": 0.8571420000000103
        },
        {
          "name": "C5",
          "midi": 72,
          "time": 414.15762155624515,
          "velocity": 0.7480314960629921,
          "duration": 0.8571420000000103
        },
        {
          "name": "D5",
          "midi": 74,
          "time": 414.15762155624515,
          "velocity": 0.7480314960629921,
          "duration": 0.8571420000000103
        },
        {
          "name": "D#5",
          "midi": 75,
          "time": 414.15762155624515,
          "velocity": 0.7480314960629921,
          "duration": 0.8571420000000103
        },
        {
          "name": "C6",
          "midi": 84,
          "time": 414.15762155624515,
          "velocity": 0.7480314960629921,
          "duration": 0.8571420000000103
        },
        {
          "name": "D6",
          "midi": 86,
          "time": 414.15762155624515,
          "velocity": 0.7480314960629921,
          "duration": 0.8571420000000103
        },
        {
          "name": "D#6",
          "midi": 87,
          "time": 414.15762155624515,
          "velocity": 0.7480314960629921,
          "duration": 0.8571420000000103
        },
        {
          "name": "C7",
          "midi": 96,
          "time": 414.15762155624515,
          "velocity": 0.7480314960629921,
          "duration": 0.8571420000000103
        },
        {
          "name": "D7",
          "midi": 98,
          "time": 414.15762155624515,
          "velocity": 0.7480314960629921,
          "duration": 0.8571420000000103
        },
        {
          "name": "D#7",
          "midi": 99,
          "time": 414.15762155624515,
          "velocity": 0.7480314960629921,
          "duration": 0.8571420000000103
        },
        {
          "name": "C#4",
          "midi": 61,
          "time": 415.01476355624516,
          "velocity": 0.7480314960629921,
          "duration": 0.8571420000000103
        },
        {
          "name": "D4",
          "midi": 62,
          "time": 415.01476355624516,
          "velocity": 0.7480314960629921,
          "duration": 0.8571420000000103
        },
        {
          "name": "C#5",
          "midi": 73,
          "time": 415.01476355624516,
          "velocity": 0.7480314960629921,
          "duration": 0.8571420000000103
        },
        {
          "name": "D5",
          "midi": 74,
          "time": 415.01476355624516,
          "velocity": 0.7480314960629921,
          "duration": 0.8571420000000103
        },
        {
          "name": "C#6",
          "midi": 85,
          "time": 415.01476355624516,
          "velocity": 0.7480314960629921,
          "duration": 0.8571420000000103
        },
        {
          "name": "D6",
          "midi": 86,
          "time": 415.01476355624516,
          "velocity": 0.7480314960629921,
          "duration": 0.8571420000000103
        },
        {
          "name": "C#7",
          "midi": 97,
          "time": 415.01476355624516,
          "velocity": 0.7480314960629921,
          "duration": 0.8571420000000103
        },
        {
          "name": "D7",
          "midi": 98,
          "time": 415.01476355624516,
          "velocity": 0.7480314960629921,
          "duration": 0.8571420000000103
        },
        {
          "name": "C#4",
          "midi": 61,
          "time": 415.87190555624517,
          "velocity": 0.7480314960629921,
          "duration": 0.4285709999999767
        },
        {
          "name": "D4",
          "midi": 62,
          "time": 415.87190555624517,
          "velocity": 0.7480314960629921,
          "duration": 0.4285709999999767
        },
        {
          "name": "C#5",
          "midi": 73,
          "time": 415.87190555624517,
          "velocity": 0.7480314960629921,
          "duration": 0.4285709999999767
        },
        {
          "name": "D5",
          "midi": 74,
          "time": 415.87190555624517,
          "velocity": 0.7480314960629921,
          "duration": 0.4285709999999767
        },
        {
          "name": "C#6",
          "midi": 85,
          "time": 415.87190555624517,
          "velocity": 0.7480314960629921,
          "duration": 0.4285709999999767
        },
        {
          "name": "D6",
          "midi": 86,
          "time": 415.87190555624517,
          "velocity": 0.7480314960629921,
          "duration": 0.4285709999999767
        },
        {
          "name": "C#7",
          "midi": 97,
          "time": 415.87190555624517,
          "velocity": 0.7480314960629921,
          "duration": 0.4285709999999767
        },
        {
          "name": "D7",
          "midi": 98,
          "time": 415.87190555624517,
          "velocity": 0.7480314960629921,
          "duration": 0.4285709999999767
        },
        {
          "name": "C#4",
          "midi": 61,
          "time": 416.30047655624514,
          "velocity": 0.7480314960629921,
          "duration": 0.21428550000001678
        },
        {
          "name": "D4",
          "midi": 62,
          "time": 416.30047655624514,
          "velocity": 0.7480314960629921,
          "duration": 0.21428550000001678
        },
        {
          "name": "C#5",
          "midi": 73,
          "time": 416.30047655624514,
          "velocity": 0.7480314960629921,
          "duration": 0.21428550000001678
        },
        {
          "name": "D5",
          "midi": 74,
          "time": 416.30047655624514,
          "velocity": 0.7480314960629921,
          "duration": 0.21428550000001678
        },
        {
          "name": "C#6",
          "midi": 85,
          "time": 416.30047655624514,
          "velocity": 0.7480314960629921,
          "duration": 0.21428550000001678
        },
        {
          "name": "D6",
          "midi": 86,
          "time": 416.30047655624514,
          "velocity": 0.7480314960629921,
          "duration": 0.21428550000001678
        },
        {
          "name": "C#7",
          "midi": 97,
          "time": 416.30047655624514,
          "velocity": 0.7480314960629921,
          "duration": 0.21428550000001678
        },
        {
          "name": "D7",
          "midi": 98,
          "time": 416.30047655624514,
          "velocity": 0.7480314960629921,
          "duration": 0.21428550000001678
        },
        {
          "name": "C#4",
          "midi": 61,
          "time": 416.51476205624516,
          "velocity": 0.7480314960629921,
          "duration": 0.21428550000001678
        },
        {
          "name": "D4",
          "midi": 62,
          "time": 416.51476205624516,
          "velocity": 0.7480314960629921,
          "duration": 0.21428550000001678
        },
        {
          "name": "C#5",
          "midi": 73,
          "time": 416.51476205624516,
          "velocity": 0.7480314960629921,
          "duration": 0.21428550000001678
        },
        {
          "name": "D5",
          "midi": 74,
          "time": 416.51476205624516,
          "velocity": 0.7480314960629921,
          "duration": 0.21428550000001678
        },
        {
          "name": "C#6",
          "midi": 85,
          "time": 416.51476205624516,
          "velocity": 0.7480314960629921,
          "duration": 0.21428550000001678
        },
        {
          "name": "D6",
          "midi": 86,
          "time": 416.51476205624516,
          "velocity": 0.7480314960629921,
          "duration": 0.21428550000001678
        },
        {
          "name": "C#7",
          "midi": 97,
          "time": 416.51476205624516,
          "velocity": 0.7480314960629921,
          "duration": 0.21428550000001678
        },
        {
          "name": "D7",
          "midi": 98,
          "time": 416.51476205624516,
          "velocity": 0.7480314960629921,
          "duration": 0.21428550000001678
        },
        {
          "name": "D#7",
          "midi": 99,
          "time": 416.7290475562452,
          "velocity": 0.7480314960629921,
          "duration": 0.06249993749997884
        },
        {
          "name": "C#7",
          "midi": 97,
          "time": 416.7290475562452,
          "velocity": 0.7480314960629921,
          "duration": 0.06249993749997884
        },
        {
          "name": "C7",
          "midi": 96,
          "time": 416.7290475562452,
          "velocity": 0.7480314960629921,
          "duration": 0.06249993749997884
        },
        {
          "name": "D#6",
          "midi": 87,
          "time": 416.7290475562452,
          "velocity": 0.7480314960629921,
          "duration": 0.06249993749997884
        },
        {
          "name": "C#6",
          "midi": 85,
          "time": 416.7290475562452,
          "velocity": 0.7480314960629921,
          "duration": 0.06249993749997884
        },
        {
          "name": "C6",
          "midi": 84,
          "time": 416.7290475562452,
          "velocity": 0.7480314960629921,
          "duration": 0.06249993749997884
        },
        {
          "name": "D#5",
          "midi": 75,
          "time": 416.7290475562452,
          "velocity": 0.7480314960629921,
          "duration": 0.06249993749997884
        },
        {
          "name": "C#5",
          "midi": 73,
          "time": 416.7290475562452,
          "velocity": 0.7480314960629921,
          "duration": 0.06249993749997884
        },
        {
          "name": "C5",
          "midi": 72,
          "time": 416.7290475562452,
          "velocity": 0.7480314960629921,
          "duration": 0.06249993749997884
        },
        {
          "name": "D#4",
          "midi": 63,
          "time": 416.7290475562452,
          "velocity": 0.7480314960629921,
          "duration": 0.06249993749997884
        },
        {
          "name": "C#4",
          "midi": 61,
          "time": 416.7290475562452,
          "velocity": 0.7480314960629921,
          "duration": 0.06249993749997884
        },
        {
          "name": "C4",
          "midi": 60,
          "time": 416.7290475562452,
          "velocity": 0.7480314960629921,
          "duration": 0.06249993749997884
        },
        {
          "name": "C4",
          "midi": 60,
          "time": 417.15761855624515,
          "velocity": 0.7480314960629921,
          "duration": 0.06249993749997884
        },
        {
          "name": "C#4",
          "midi": 61,
          "time": 417.15761855624515,
          "velocity": 0.7480314960629921,
          "duration": 0.06249993749997884
        },
        {
          "name": "D#4",
          "midi": 63,
          "time": 417.15761855624515,
          "velocity": 0.7480314960629921,
          "duration": 0.06249993749997884
        },
        {
          "name": "C5",
          "midi": 72,
          "time": 417.15761855624515,
          "velocity": 0.7480314960629921,
          "duration": 0.06249993749997884
        },
        {
          "name": "C#5",
          "midi": 73,
          "time": 417.15761855624515,
          "velocity": 0.7480314960629921,
          "duration": 0.06249993749997884
        },
        {
          "name": "D#5",
          "midi": 75,
          "time": 417.15761855624515,
          "velocity": 0.7480314960629921,
          "duration": 0.06249993749997884
        },
        {
          "name": "C6",
          "midi": 84,
          "time": 417.15761855624515,
          "velocity": 0.7480314960629921,
          "duration": 0.06249993749997884
        },
        {
          "name": "C#6",
          "midi": 85,
          "time": 417.15761855624515,
          "velocity": 0.7480314960629921,
          "duration": 0.06249993749997884
        },
        {
          "name": "D#6",
          "midi": 87,
          "time": 417.15761855624515,
          "velocity": 0.7480314960629921,
          "duration": 0.06249993749997884
        },
        {
          "name": "C7",
          "midi": 96,
          "time": 417.15761855624515,
          "velocity": 0.7480314960629921,
          "duration": 0.06249993749997884
        },
        {
          "name": "C#7",
          "midi": 97,
          "time": 417.15761855624515,
          "velocity": 0.7480314960629921,
          "duration": 0.06249993749997884
        },
        {
          "name": "D#7",
          "midi": 99,
          "time": 417.15761855624515,
          "velocity": 0.7480314960629921,
          "duration": 0.06249993749997884
        },
        {
          "name": "C4",
          "midi": 60,
          "time": 417.58618955624513,
          "velocity": 0.7480314960629921,
          "duration": 0.8571420000000103
        },
        {
          "name": "C#4",
          "midi": 61,
          "time": 417.58618955624513,
          "velocity": 0.7480314960629921,
          "duration": 0.8571420000000103
        },
        {
          "name": "D#4",
          "midi": 63,
          "time": 417.58618955624513,
          "velocity": 0.7480314960629921,
          "duration": 0.8571420000000103
        },
        {
          "name": "C5",
          "midi": 72,
          "time": 417.58618955624513,
          "velocity": 0.7480314960629921,
          "duration": 0.8571420000000103
        },
        {
          "name": "C#5",
          "midi": 73,
          "time": 417.58618955624513,
          "velocity": 0.7480314960629921,
          "duration": 0.8571420000000103
        },
        {
          "name": "D#5",
          "midi": 75,
          "time": 417.58618955624513,
          "velocity": 0.7480314960629921,
          "duration": 0.8571420000000103
        },
        {
          "name": "C6",
          "midi": 84,
          "time": 417.58618955624513,
          "velocity": 0.7480314960629921,
          "duration": 0.8571420000000103
        },
        {
          "name": "C#6",
          "midi": 85,
          "time": 417.58618955624513,
          "velocity": 0.7480314960629921,
          "duration": 0.8571420000000103
        },
        {
          "name": "D#6",
          "midi": 87,
          "time": 417.58618955624513,
          "velocity": 0.7480314960629921,
          "duration": 0.8571420000000103
        },
        {
          "name": "C7",
          "midi": 96,
          "time": 417.58618955624513,
          "velocity": 0.7480314960629921,
          "duration": 0.8571420000000103
        },
        {
          "name": "C#7",
          "midi": 97,
          "time": 417.58618955624513,
          "velocity": 0.7480314960629921,
          "duration": 0.8571420000000103
        },
        {
          "name": "D#7",
          "midi": 99,
          "time": 417.58618955624513,
          "velocity": 0.7480314960629921,
          "duration": 0.8571420000000103
        },
        {
          "name": "E7",
          "midi": 100,
          "time": 418.44333155624514,
          "velocity": 0.7480314960629921,
          "duration": 0.8571420000000103
        },
        {
          "name": "D#7",
          "midi": 99,
          "time": 418.44333155624514,
          "velocity": 0.7480314960629921,
          "duration": 0.8571420000000103
        },
        {
          "name": "C#7",
          "midi": 97,
          "time": 418.44333155624514,
          "velocity": 0.7480314960629921,
          "duration": 0.8571420000000103
        },
        {
          "name": "E6",
          "midi": 88,
          "time": 418.44333155624514,
          "velocity": 0.7480314960629921,
          "duration": 0.8571420000000103
        },
        {
          "name": "D#6",
          "midi": 87,
          "time": 418.44333155624514,
          "velocity": 0.7480314960629921,
          "duration": 0.8571420000000103
        },
        {
          "name": "C#6",
          "midi": 85,
          "time": 418.44333155624514,
          "velocity": 0.7480314960629921,
          "duration": 0.8571420000000103
        },
        {
          "name": "E5",
          "midi": 76,
          "time": 418.44333155624514,
          "velocity": 0.7480314960629921,
          "duration": 0.8571420000000103
        },
        {
          "name": "D#5",
          "midi": 75,
          "time": 418.44333155624514,
          "velocity": 0.7480314960629921,
          "duration": 0.8571420000000103
        },
        {
          "name": "C#5",
          "midi": 73,
          "time": 418.44333155624514,
          "velocity": 0.7480314960629921,
          "duration": 0.8571420000000103
        },
        {
          "name": "E4",
          "midi": 64,
          "time": 418.44333155624514,
          "velocity": 0.7480314960629921,
          "duration": 0.8571420000000103
        },
        {
          "name": "D#4",
          "midi": 63,
          "time": 418.44333155624514,
          "velocity": 0.7480314960629921,
          "duration": 0.8571420000000103
        },
        {
          "name": "C#4",
          "midi": 61,
          "time": 418.44333155624514,
          "velocity": 0.7480314960629921,
          "duration": 0.8571420000000103
        },
        {
          "name": "E7",
          "midi": 100,
          "time": 419.30047355624515,
          "velocity": 0.7480314960629921,
          "duration": 0.4285709999999767
        },
        {
          "name": "D#7",
          "midi": 99,
          "time": 419.30047355624515,
          "velocity": 0.7480314960629921,
          "duration": 0.4285709999999767
        },
        {
          "name": "C#7",
          "midi": 97,
          "time": 419.30047355624515,
          "velocity": 0.7480314960629921,
          "duration": 0.4285709999999767
        },
        {
          "name": "E6",
          "midi": 88,
          "time": 419.30047355624515,
          "velocity": 0.7480314960629921,
          "duration": 0.4285709999999767
        },
        {
          "name": "D#6",
          "midi": 87,
          "time": 419.30047355624515,
          "velocity": 0.7480314960629921,
          "duration": 0.4285709999999767
        },
        {
          "name": "C#6",
          "midi": 85,
          "time": 419.30047355624515,
          "velocity": 0.7480314960629921,
          "duration": 0.4285709999999767
        },
        {
          "name": "E5",
          "midi": 76,
          "time": 419.30047355624515,
          "velocity": 0.7480314960629921,
          "duration": 0.4285709999999767
        },
        {
          "name": "D#5",
          "midi": 75,
          "time": 419.30047355624515,
          "velocity": 0.7480314960629921,
          "duration": 0.4285709999999767
        },
        {
          "name": "C#5",
          "midi": 73,
          "time": 419.30047355624515,
          "velocity": 0.7480314960629921,
          "duration": 0.4285709999999767
        },
        {
          "name": "E4",
          "midi": 64,
          "time": 419.30047355624515,
          "velocity": 0.7480314960629921,
          "duration": 0.4285709999999767
        },
        {
          "name": "D#4",
          "midi": 63,
          "time": 419.30047355624515,
          "velocity": 0.7480314960629921,
          "duration": 0.4285709999999767
        },
        {
          "name": "C#4",
          "midi": 61,
          "time": 419.30047355624515,
          "velocity": 0.7480314960629921,
          "duration": 0.4285709999999767
        },
        {
          "name": "E7",
          "midi": 100,
          "time": 419.7290445562451,
          "velocity": 0.7480314960629921,
          "duration": 0.21428550000001678
        },
        {
          "name": "D#7",
          "midi": 99,
          "time": 419.7290445562451,
          "velocity": 0.7480314960629921,
          "duration": 0.21428550000001678
        },
        {
          "name": "C#7",
          "midi": 97,
          "time": 419.7290445562451,
          "velocity": 0.7480314960629921,
          "duration": 0.21428550000001678
        },
        {
          "name": "E6",
          "midi": 88,
          "time": 419.7290445562451,
          "velocity": 0.7480314960629921,
          "duration": 0.21428550000001678
        },
        {
          "name": "D#6",
          "midi": 87,
          "time": 419.7290445562451,
          "velocity": 0.7480314960629921,
          "duration": 0.21428550000001678
        },
        {
          "name": "C#6",
          "midi": 85,
          "time": 419.7290445562451,
          "velocity": 0.7480314960629921,
          "duration": 0.21428550000001678
        },
        {
          "name": "E5",
          "midi": 76,
          "time": 419.7290445562451,
          "velocity": 0.7480314960629921,
          "duration": 0.21428550000001678
        },
        {
          "name": "D#5",
          "midi": 75,
          "time": 419.7290445562451,
          "velocity": 0.7480314960629921,
          "duration": 0.21428550000001678
        },
        {
          "name": "C#5",
          "midi": 73,
          "time": 419.7290445562451,
          "velocity": 0.7480314960629921,
          "duration": 0.21428550000001678
        },
        {
          "name": "E4",
          "midi": 64,
          "time": 419.7290445562451,
          "velocity": 0.7480314960629921,
          "duration": 0.21428550000001678
        },
        {
          "name": "D#4",
          "midi": 63,
          "time": 419.7290445562451,
          "velocity": 0.7480314960629921,
          "duration": 0.21428550000001678
        },
        {
          "name": "C#4",
          "midi": 61,
          "time": 419.7290445562451,
          "velocity": 0.7480314960629921,
          "duration": 0.21428550000001678
        },
        {
          "name": "E7",
          "midi": 100,
          "time": 419.94333005624514,
          "velocity": 0.7480314960629921,
          "duration": 0.21428550000001678
        },
        {
          "name": "D#7",
          "midi": 99,
          "time": 419.94333005624514,
          "velocity": 0.7480314960629921,
          "duration": 0.21428550000001678
        },
        {
          "name": "C#7",
          "midi": 97,
          "time": 419.94333005624514,
          "velocity": 0.7480314960629921,
          "duration": 0.21428550000001678
        },
        {
          "name": "E6",
          "midi": 88,
          "time": 419.94333005624514,
          "velocity": 0.7480314960629921,
          "duration": 0.21428550000001678
        },
        {
          "name": "D#6",
          "midi": 87,
          "time": 419.94333005624514,
          "velocity": 0.7480314960629921,
          "duration": 0.21428550000001678
        },
        {
          "name": "C#6",
          "midi": 85,
          "time": 419.94333005624514,
          "velocity": 0.7480314960629921,
          "duration": 0.21428550000001678
        },
        {
          "name": "E5",
          "midi": 76,
          "time": 419.94333005624514,
          "velocity": 0.7480314960629921,
          "duration": 0.21428550000001678
        },
        {
          "name": "D#5",
          "midi": 75,
          "time": 419.94333005624514,
          "velocity": 0.7480314960629921,
          "duration": 0.21428550000001678
        },
        {
          "name": "C#5",
          "midi": 73,
          "time": 419.94333005624514,
          "velocity": 0.7480314960629921,
          "duration": 0.21428550000001678
        },
        {
          "name": "E4",
          "midi": 64,
          "time": 419.94333005624514,
          "velocity": 0.7480314960629921,
          "duration": 0.21428550000001678
        },
        {
          "name": "D#4",
          "midi": 63,
          "time": 419.94333005624514,
          "velocity": 0.7480314960629921,
          "duration": 0.21428550000001678
        },
        {
          "name": "C#4",
          "midi": 61,
          "time": 419.94333005624514,
          "velocity": 0.7480314960629921,
          "duration": 0.21428550000001678
        },
        {
          "name": "D#7",
          "midi": 99,
          "time": 420.15761555624516,
          "velocity": 0.7480314960629921,
          "duration": 0.06249993749997884
        },
        {
          "name": "D7",
          "midi": 98,
          "time": 420.15761555624516,
          "velocity": 0.7480314960629921,
          "duration": 0.06249993749997884
        },
        {
          "name": "C7",
          "midi": 96,
          "time": 420.15761555624516,
          "velocity": 0.7480314960629921,
          "duration": 0.06249993749997884
        },
        {
          "name": "D#6",
          "midi": 87,
          "time": 420.15761555624516,
          "velocity": 0.7480314960629921,
          "duration": 0.06249993749997884
        },
        {
          "name": "D6",
          "midi": 86,
          "time": 420.15761555624516,
          "velocity": 0.7480314960629921,
          "duration": 0.06249993749997884
        },
        {
          "name": "C6",
          "midi": 84,
          "time": 420.15761555624516,
          "velocity": 0.7480314960629921,
          "duration": 0.06249993749997884
        },
        {
          "name": "D#5",
          "midi": 75,
          "time": 420.15761555624516,
          "velocity": 0.7480314960629921,
          "duration": 0.06249993749997884
        },
        {
          "name": "D5",
          "midi": 74,
          "time": 420.15761555624516,
          "velocity": 0.7480314960629921,
          "duration": 0.06249993749997884
        },
        {
          "name": "C5",
          "midi": 72,
          "time": 420.15761555624516,
          "velocity": 0.7480314960629921,
          "duration": 0.06249993749997884
        },
        {
          "name": "D#4",
          "midi": 63,
          "time": 420.15761555624516,
          "velocity": 0.7480314960629921,
          "duration": 0.06249993749997884
        },
        {
          "name": "D4",
          "midi": 62,
          "time": 420.15761555624516,
          "velocity": 0.7480314960629921,
          "duration": 0.06249993749997884
        },
        {
          "name": "C4",
          "midi": 60,
          "time": 420.15761555624516,
          "velocity": 0.7480314960629921,
          "duration": 0.06249993749997884
        },
        {
          "name": "C4",
          "midi": 60,
          "time": 420.58618655624514,
          "velocity": 0.7480314960629921,
          "duration": 0.06249993749997884
        },
        {
          "name": "D4",
          "midi": 62,
          "time": 420.58618655624514,
          "velocity": 0.7480314960629921,
          "duration": 0.06249993749997884
        },
        {
          "name": "D#4",
          "midi": 63,
          "time": 420.58618655624514,
          "velocity": 0.7480314960629921,
          "duration": 0.06249993749997884
        },
        {
          "name": "C5",
          "midi": 72,
          "time": 420.58618655624514,
          "velocity": 0.7480314960629921,
          "duration": 0.06249993749997884
        },
        {
          "name": "D5",
          "midi": 74,
          "time": 420.58618655624514,
          "velocity": 0.7480314960629921,
          "duration": 0.06249993749997884
        },
        {
          "name": "D#5",
          "midi": 75,
          "time": 420.58618655624514,
          "velocity": 0.7480314960629921,
          "duration": 0.06249993749997884
        },
        {
          "name": "C6",
          "midi": 84,
          "time": 420.58618655624514,
          "velocity": 0.7480314960629921,
          "duration": 0.06249993749997884
        },
        {
          "name": "D6",
          "midi": 86,
          "time": 420.58618655624514,
          "velocity": 0.7480314960629921,
          "duration": 0.06249993749997884
        },
        {
          "name": "D#6",
          "midi": 87,
          "time": 420.58618655624514,
          "velocity": 0.7480314960629921,
          "duration": 0.06249993749997884
        },
        {
          "name": "C7",
          "midi": 96,
          "time": 420.58618655624514,
          "velocity": 0.7480314960629921,
          "duration": 0.06249993749997884
        },
        {
          "name": "D7",
          "midi": 98,
          "time": 420.58618655624514,
          "velocity": 0.7480314960629921,
          "duration": 0.06249993749997884
        },
        {
          "name": "D#7",
          "midi": 99,
          "time": 420.58618655624514,
          "velocity": 0.7480314960629921,
          "duration": 0.06249993749997884
        },
        {
          "name": "C4",
          "midi": 60,
          "time": 421.0147575562451,
          "velocity": 0.7480314960629921,
          "duration": 0.8571420000000103
        },
        {
          "name": "D4",
          "midi": 62,
          "time": 421.0147575562451,
          "velocity": 0.7480314960629921,
          "duration": 0.8571420000000103
        },
        {
          "name": "D#4",
          "midi": 63,
          "time": 421.0147575562451,
          "velocity": 0.7480314960629921,
          "duration": 0.8571420000000103
        },
        {
          "name": "C5",
          "midi": 72,
          "time": 421.0147575562451,
          "velocity": 0.7480314960629921,
          "duration": 0.8571420000000103
        },
        {
          "name": "D5",
          "midi": 74,
          "time": 421.0147575562451,
          "velocity": 0.7480314960629921,
          "duration": 0.8571420000000103
        },
        {
          "name": "D#5",
          "midi": 75,
          "time": 421.0147575562451,
          "velocity": 0.7480314960629921,
          "duration": 0.8571420000000103
        },
        {
          "name": "C6",
          "midi": 84,
          "time": 421.0147575562451,
          "velocity": 0.7480314960629921,
          "duration": 0.8571420000000103
        },
        {
          "name": "D6",
          "midi": 86,
          "time": 421.0147575562451,
          "velocity": 0.7480314960629921,
          "duration": 0.8571420000000103
        },
        {
          "name": "D#6",
          "midi": 87,
          "time": 421.0147575562451,
          "velocity": 0.7480314960629921,
          "duration": 0.8571420000000103
        },
        {
          "name": "C7",
          "midi": 96,
          "time": 421.0147575562451,
          "velocity": 0.7480314960629921,
          "duration": 0.8571420000000103
        },
        {
          "name": "D7",
          "midi": 98,
          "time": 421.0147575562451,
          "velocity": 0.7480314960629921,
          "duration": 0.8571420000000103
        },
        {
          "name": "D#7",
          "midi": 99,
          "time": 421.0147575562451,
          "velocity": 0.7480314960629921,
          "duration": 0.8571420000000103
        },
        {
          "name": "C#4",
          "midi": 61,
          "time": 421.8718995562451,
          "velocity": 0.7480314960629921,
          "duration": 0.8571420000000103
        },
        {
          "name": "D4",
          "midi": 62,
          "time": 421.8718995562451,
          "velocity": 0.7480314960629921,
          "duration": 0.8571420000000103
        },
        {
          "name": "C#5",
          "midi": 73,
          "time": 421.8718995562451,
          "velocity": 0.7480314960629921,
          "duration": 0.8571420000000103
        },
        {
          "name": "D5",
          "midi": 74,
          "time": 421.8718995562451,
          "velocity": 0.7480314960629921,
          "duration": 0.8571420000000103
        },
        {
          "name": "C#6",
          "midi": 85,
          "time": 421.8718995562451,
          "velocity": 0.7480314960629921,
          "duration": 0.8571420000000103
        },
        {
          "name": "D6",
          "midi": 86,
          "time": 421.8718995562451,
          "velocity": 0.7480314960629921,
          "duration": 0.8571420000000103
        },
        {
          "name": "C#7",
          "midi": 97,
          "time": 421.8718995562451,
          "velocity": 0.7480314960629921,
          "duration": 0.8571420000000103
        },
        {
          "name": "D7",
          "midi": 98,
          "time": 421.8718995562451,
          "velocity": 0.7480314960629921,
          "duration": 0.8571420000000103
        },
        {
          "name": "C#4",
          "midi": 61,
          "time": 422.72904155624514,
          "velocity": 0.7480314960629921,
          "duration": 0.4285709999999767
        },
        {
          "name": "D4",
          "midi": 62,
          "time": 422.72904155624514,
          "velocity": 0.7480314960629921,
          "duration": 0.4285709999999767
        },
        {
          "name": "C#5",
          "midi": 73,
          "time": 422.72904155624514,
          "velocity": 0.7480314960629921,
          "duration": 0.4285709999999767
        },
        {
          "name": "D5",
          "midi": 74,
          "time": 422.72904155624514,
          "velocity": 0.7480314960629921,
          "duration": 0.4285709999999767
        },
        {
          "name": "C#6",
          "midi": 85,
          "time": 422.72904155624514,
          "velocity": 0.7480314960629921,
          "duration": 0.4285709999999767
        },
        {
          "name": "D6",
          "midi": 86,
          "time": 422.72904155624514,
          "velocity": 0.7480314960629921,
          "duration": 0.4285709999999767
        },
        {
          "name": "C#7",
          "midi": 97,
          "time": 422.72904155624514,
          "velocity": 0.7480314960629921,
          "duration": 0.4285709999999767
        },
        {
          "name": "D7",
          "midi": 98,
          "time": 422.72904155624514,
          "velocity": 0.7480314960629921,
          "duration": 0.4285709999999767
        },
        {
          "name": "C#4",
          "midi": 61,
          "time": 423.1576125562451,
          "velocity": 0.7480314960629921,
          "duration": 0.21428550000001678
        },
        {
          "name": "D4",
          "midi": 62,
          "time": 423.1576125562451,
          "velocity": 0.7480314960629921,
          "duration": 0.21428550000001678
        },
        {
          "name": "C#5",
          "midi": 73,
          "time": 423.1576125562451,
          "velocity": 0.7480314960629921,
          "duration": 0.21428550000001678
        },
        {
          "name": "D5",
          "midi": 74,
          "time": 423.1576125562451,
          "velocity": 0.7480314960629921,
          "duration": 0.21428550000001678
        },
        {
          "name": "C#6",
          "midi": 85,
          "time": 423.1576125562451,
          "velocity": 0.7480314960629921,
          "duration": 0.21428550000001678
        },
        {
          "name": "D6",
          "midi": 86,
          "time": 423.1576125562451,
          "velocity": 0.7480314960629921,
          "duration": 0.21428550000001678
        },
        {
          "name": "C#7",
          "midi": 97,
          "time": 423.1576125562451,
          "velocity": 0.7480314960629921,
          "duration": 0.21428550000001678
        },
        {
          "name": "D7",
          "midi": 98,
          "time": 423.1576125562451,
          "velocity": 0.7480314960629921,
          "duration": 0.21428550000001678
        },
        {
          "name": "C#4",
          "midi": 61,
          "time": 423.37189805624513,
          "velocity": 0.7480314960629921,
          "duration": 0.21428550000001678
        },
        {
          "name": "D4",
          "midi": 62,
          "time": 423.37189805624513,
          "velocity": 0.7480314960629921,
          "duration": 0.21428550000001678
        },
        {
          "name": "C#5",
          "midi": 73,
          "time": 423.37189805624513,
          "velocity": 0.7480314960629921,
          "duration": 0.21428550000001678
        },
        {
          "name": "D5",
          "midi": 74,
          "time": 423.37189805624513,
          "velocity": 0.7480314960629921,
          "duration": 0.21428550000001678
        },
        {
          "name": "C#6",
          "midi": 85,
          "time": 423.37189805624513,
          "velocity": 0.7480314960629921,
          "duration": 0.21428550000001678
        },
        {
          "name": "D6",
          "midi": 86,
          "time": 423.37189805624513,
          "velocity": 0.7480314960629921,
          "duration": 0.21428550000001678
        },
        {
          "name": "C#7",
          "midi": 97,
          "time": 423.37189805624513,
          "velocity": 0.7480314960629921,
          "duration": 0.21428550000001678
        },
        {
          "name": "D7",
          "midi": 98,
          "time": 423.37189805624513,
          "velocity": 0.7480314960629921,
          "duration": 0.21428550000001678
        },
        {
          "name": "D#7",
          "midi": 99,
          "time": 423.58618355624515,
          "velocity": 0.7480314960629921,
          "duration": 0.06249993749997884
        },
        {
          "name": "C#7",
          "midi": 97,
          "time": 423.58618355624515,
          "velocity": 0.7480314960629921,
          "duration": 0.06249993749997884
        },
        {
          "name": "C7",
          "midi": 96,
          "time": 423.58618355624515,
          "velocity": 0.7480314960629921,
          "duration": 0.06249993749997884
        },
        {
          "name": "D#6",
          "midi": 87,
          "time": 423.58618355624515,
          "velocity": 0.7480314960629921,
          "duration": 0.06249993749997884
        },
        {
          "name": "C#6",
          "midi": 85,
          "time": 423.58618355624515,
          "velocity": 0.7480314960629921,
          "duration": 0.06249993749997884
        },
        {
          "name": "C6",
          "midi": 84,
          "time": 423.58618355624515,
          "velocity": 0.7480314960629921,
          "duration": 0.06249993749997884
        },
        {
          "name": "D#5",
          "midi": 75,
          "time": 423.58618355624515,
          "velocity": 0.7480314960629921,
          "duration": 0.06249993749997884
        },
        {
          "name": "C#5",
          "midi": 73,
          "time": 423.58618355624515,
          "velocity": 0.7480314960629921,
          "duration": 0.06249993749997884
        },
        {
          "name": "C5",
          "midi": 72,
          "time": 423.58618355624515,
          "velocity": 0.7480314960629921,
          "duration": 0.06249993749997884
        },
        {
          "name": "D#4",
          "midi": 63,
          "time": 423.58618355624515,
          "velocity": 0.7480314960629921,
          "duration": 0.06249993749997884
        },
        {
          "name": "C#4",
          "midi": 61,
          "time": 423.58618355624515,
          "velocity": 0.7480314960629921,
          "duration": 0.06249993749997884
        },
        {
          "name": "C4",
          "midi": 60,
          "time": 423.58618355624515,
          "velocity": 0.7480314960629921,
          "duration": 0.06249993749997884
        },
        {
          "name": "C4",
          "midi": 60,
          "time": 424.0147545562451,
          "velocity": 0.7480314960629921,
          "duration": 0.06249993749997884
        },
        {
          "name": "C#4",
          "midi": 61,
          "time": 424.0147545562451,
          "velocity": 0.7480314960629921,
          "duration": 0.06249993749997884
        },
        {
          "name": "D#4",
          "midi": 63,
          "time": 424.0147545562451,
          "velocity": 0.7480314960629921,
          "duration": 0.06249993749997884
        },
        {
          "name": "C5",
          "midi": 72,
          "time": 424.0147545562451,
          "velocity": 0.7480314960629921,
          "duration": 0.06249993749997884
        },
        {
          "name": "C#5",
          "midi": 73,
          "time": 424.0147545562451,
          "velocity": 0.7480314960629921,
          "duration": 0.06249993749997884
        },
        {
          "name": "D#5",
          "midi": 75,
          "time": 424.0147545562451,
          "velocity": 0.7480314960629921,
          "duration": 0.06249993749997884
        },
        {
          "name": "C6",
          "midi": 84,
          "time": 424.0147545562451,
          "velocity": 0.7480314960629921,
          "duration": 0.06249993749997884
        },
        {
          "name": "C#6",
          "midi": 85,
          "time": 424.0147545562451,
          "velocity": 0.7480314960629921,
          "duration": 0.06249993749997884
        },
        {
          "name": "D#6",
          "midi": 87,
          "time": 424.0147545562451,
          "velocity": 0.7480314960629921,
          "duration": 0.06249993749997884
        },
        {
          "name": "C7",
          "midi": 96,
          "time": 424.0147545562451,
          "velocity": 0.7480314960629921,
          "duration": 0.06249993749997884
        },
        {
          "name": "C#7",
          "midi": 97,
          "time": 424.0147545562451,
          "velocity": 0.7480314960629921,
          "duration": 0.06249993749997884
        },
        {
          "name": "D#7",
          "midi": 99,
          "time": 424.0147545562451,
          "velocity": 0.7480314960629921,
          "duration": 0.06249993749997884
        },
        {
          "name": "C4",
          "midi": 60,
          "time": 424.4433255562451,
          "velocity": 0.7480314960629921,
          "duration": 0.8571420000000103
        },
        {
          "name": "C#4",
          "midi": 61,
          "time": 424.4433255562451,
          "velocity": 0.7480314960629921,
          "duration": 0.8571420000000103
        },
        {
          "name": "D#4",
          "midi": 63,
          "time": 424.4433255562451,
          "velocity": 0.7480314960629921,
          "duration": 0.8571420000000103
        },
        {
          "name": "C5",
          "midi": 72,
          "time": 424.4433255562451,
          "velocity": 0.7480314960629921,
          "duration": 0.8571420000000103
        },
        {
          "name": "C#5",
          "midi": 73,
          "time": 424.4433255562451,
          "velocity": 0.7480314960629921,
          "duration": 0.8571420000000103
        },
        {
          "name": "D#5",
          "midi": 75,
          "time": 424.4433255562451,
          "velocity": 0.7480314960629921,
          "duration": 0.8571420000000103
        },
        {
          "name": "C6",
          "midi": 84,
          "time": 424.4433255562451,
          "velocity": 0.7480314960629921,
          "duration": 0.8571420000000103
        },
        {
          "name": "C#6",
          "midi": 85,
          "time": 424.4433255562451,
          "velocity": 0.7480314960629921,
          "duration": 0.8571420000000103
        },
        {
          "name": "D#6",
          "midi": 87,
          "time": 424.4433255562451,
          "velocity": 0.7480314960629921,
          "duration": 0.8571420000000103
        },
        {
          "name": "C7",
          "midi": 96,
          "time": 424.4433255562451,
          "velocity": 0.7480314960629921,
          "duration": 0.8571420000000103
        },
        {
          "name": "C#7",
          "midi": 97,
          "time": 424.4433255562451,
          "velocity": 0.7480314960629921,
          "duration": 0.8571420000000103
        },
        {
          "name": "D#7",
          "midi": 99,
          "time": 424.4433255562451,
          "velocity": 0.7480314960629921,
          "duration": 0.8571420000000103
        },
        {
          "name": "E7",
          "midi": 100,
          "time": 425.3004675562451,
          "velocity": 0.7480314960629921,
          "duration": 0.8571420000000103
        },
        {
          "name": "D#7",
          "midi": 99,
          "time": 425.3004675562451,
          "velocity": 0.7480314960629921,
          "duration": 0.8571420000000103
        },
        {
          "name": "C#7",
          "midi": 97,
          "time": 425.3004675562451,
          "velocity": 0.7480314960629921,
          "duration": 0.8571420000000103
        },
        {
          "name": "E6",
          "midi": 88,
          "time": 425.3004675562451,
          "velocity": 0.7480314960629921,
          "duration": 0.8571420000000103
        },
        {
          "name": "D#6",
          "midi": 87,
          "time": 425.3004675562451,
          "velocity": 0.7480314960629921,
          "duration": 0.8571420000000103
        },
        {
          "name": "C#6",
          "midi": 85,
          "time": 425.3004675562451,
          "velocity": 0.7480314960629921,
          "duration": 0.8571420000000103
        },
        {
          "name": "E5",
          "midi": 76,
          "time": 425.3004675562451,
          "velocity": 0.7480314960629921,
          "duration": 0.8571420000000103
        },
        {
          "name": "D#5",
          "midi": 75,
          "time": 425.3004675562451,
          "velocity": 0.7480314960629921,
          "duration": 0.8571420000000103
        },
        {
          "name": "C#5",
          "midi": 73,
          "time": 425.3004675562451,
          "velocity": 0.7480314960629921,
          "duration": 0.8571420000000103
        },
        {
          "name": "E4",
          "midi": 64,
          "time": 425.3004675562451,
          "velocity": 0.7480314960629921,
          "duration": 0.8571420000000103
        },
        {
          "name": "D#4",
          "midi": 63,
          "time": 425.3004675562451,
          "velocity": 0.7480314960629921,
          "duration": 0.8571420000000103
        },
        {
          "name": "C#4",
          "midi": 61,
          "time": 425.3004675562451,
          "velocity": 0.7480314960629921,
          "duration": 0.8571420000000103
        },
        {
          "name": "E7",
          "midi": 100,
          "time": 426.1576095562451,
          "velocity": 0.7480314960629921,
          "duration": 0.4285709999999767
        },
        {
          "name": "D#7",
          "midi": 99,
          "time": 426.1576095562451,
          "velocity": 0.7480314960629921,
          "duration": 0.4285709999999767
        },
        {
          "name": "C#7",
          "midi": 97,
          "time": 426.1576095562451,
          "velocity": 0.7480314960629921,
          "duration": 0.4285709999999767
        },
        {
          "name": "E6",
          "midi": 88,
          "time": 426.1576095562451,
          "velocity": 0.7480314960629921,
          "duration": 0.4285709999999767
        },
        {
          "name": "D#6",
          "midi": 87,
          "time": 426.1576095562451,
          "velocity": 0.7480314960629921,
          "duration": 0.4285709999999767
        },
        {
          "name": "C#6",
          "midi": 85,
          "time": 426.1576095562451,
          "velocity": 0.7480314960629921,
          "duration": 0.4285709999999767
        },
        {
          "name": "E5",
          "midi": 76,
          "time": 426.1576095562451,
          "velocity": 0.7480314960629921,
          "duration": 0.4285709999999767
        },
        {
          "name": "D#5",
          "midi": 75,
          "time": 426.1576095562451,
          "velocity": 0.7480314960629921,
          "duration": 0.4285709999999767
        },
        {
          "name": "C#5",
          "midi": 73,
          "time": 426.1576095562451,
          "velocity": 0.7480314960629921,
          "duration": 0.4285709999999767
        },
        {
          "name": "E4",
          "midi": 64,
          "time": 426.1576095562451,
          "velocity": 0.7480314960629921,
          "duration": 0.4285709999999767
        },
        {
          "name": "D#4",
          "midi": 63,
          "time": 426.1576095562451,
          "velocity": 0.7480314960629921,
          "duration": 0.4285709999999767
        },
        {
          "name": "C#4",
          "midi": 61,
          "time": 426.1576095562451,
          "velocity": 0.7480314960629921,
          "duration": 0.4285709999999767
        },
        {
          "name": "E7",
          "midi": 100,
          "time": 426.5861805562451,
          "velocity": 0.7480314960629921,
          "duration": 0.21428550000001678
        },
        {
          "name": "D#7",
          "midi": 99,
          "time": 426.5861805562451,
          "velocity": 0.7480314960629921,
          "duration": 0.21428550000001678
        },
        {
          "name": "C#7",
          "midi": 97,
          "time": 426.5861805562451,
          "velocity": 0.7480314960629921,
          "duration": 0.21428550000001678
        },
        {
          "name": "E6",
          "midi": 88,
          "time": 426.5861805562451,
          "velocity": 0.7480314960629921,
          "duration": 0.21428550000001678
        },
        {
          "name": "D#6",
          "midi": 87,
          "time": 426.5861805562451,
          "velocity": 0.7480314960629921,
          "duration": 0.21428550000001678
        },
        {
          "name": "C#6",
          "midi": 85,
          "time": 426.5861805562451,
          "velocity": 0.7480314960629921,
          "duration": 0.21428550000001678
        },
        {
          "name": "E5",
          "midi": 76,
          "time": 426.5861805562451,
          "velocity": 0.7480314960629921,
          "duration": 0.21428550000001678
        },
        {
          "name": "D#5",
          "midi": 75,
          "time": 426.5861805562451,
          "velocity": 0.7480314960629921,
          "duration": 0.21428550000001678
        },
        {
          "name": "C#5",
          "midi": 73,
          "time": 426.5861805562451,
          "velocity": 0.7480314960629921,
          "duration": 0.21428550000001678
        },
        {
          "name": "E4",
          "midi": 64,
          "time": 426.5861805562451,
          "velocity": 0.7480314960629921,
          "duration": 0.21428550000001678
        },
        {
          "name": "D#4",
          "midi": 63,
          "time": 426.5861805562451,
          "velocity": 0.7480314960629921,
          "duration": 0.21428550000001678
        },
        {
          "name": "C#4",
          "midi": 61,
          "time": 426.5861805562451,
          "velocity": 0.7480314960629921,
          "duration": 0.21428550000001678
        },
        {
          "name": "E7",
          "midi": 100,
          "time": 426.8004660562451,
          "velocity": 0.7480314960629921,
          "duration": 0.21428550000001678
        },
        {
          "name": "D#7",
          "midi": 99,
          "time": 426.8004660562451,
          "velocity": 0.7480314960629921,
          "duration": 0.21428550000001678
        },
        {
          "name": "C#7",
          "midi": 97,
          "time": 426.8004660562451,
          "velocity": 0.7480314960629921,
          "duration": 0.21428550000001678
        },
        {
          "name": "E6",
          "midi": 88,
          "time": 426.8004660562451,
          "velocity": 0.7480314960629921,
          "duration": 0.21428550000001678
        },
        {
          "name": "D#6",
          "midi": 87,
          "time": 426.8004660562451,
          "velocity": 0.7480314960629921,
          "duration": 0.21428550000001678
        },
        {
          "name": "C#6",
          "midi": 85,
          "time": 426.8004660562451,
          "velocity": 0.7480314960629921,
          "duration": 0.21428550000001678
        },
        {
          "name": "E5",
          "midi": 76,
          "time": 426.8004660562451,
          "velocity": 0.7480314960629921,
          "duration": 0.21428550000001678
        },
        {
          "name": "D#5",
          "midi": 75,
          "time": 426.8004660562451,
          "velocity": 0.7480314960629921,
          "duration": 0.21428550000001678
        },
        {
          "name": "C#5",
          "midi": 73,
          "time": 426.8004660562451,
          "velocity": 0.7480314960629921,
          "duration": 0.21428550000001678
        },
        {
          "name": "E4",
          "midi": 64,
          "time": 426.8004660562451,
          "velocity": 0.7480314960629921,
          "duration": 0.21428550000001678
        },
        {
          "name": "D#4",
          "midi": 63,
          "time": 426.8004660562451,
          "velocity": 0.7480314960629921,
          "duration": 0.21428550000001678
        },
        {
          "name": "C#4",
          "midi": 61,
          "time": 426.8004660562451,
          "velocity": 0.7480314960629921,
          "duration": 0.21428550000001678
        },
        {
          "name": "D#7",
          "midi": 99,
          "time": 427.01475155624513,
          "velocity": 0.7480314960629921,
          "duration": 0.06249993749997884
        },
        {
          "name": "D7",
          "midi": 98,
          "time": 427.01475155624513,
          "velocity": 0.7480314960629921,
          "duration": 0.06249993749997884
        },
        {
          "name": "C7",
          "midi": 96,
          "time": 427.01475155624513,
          "velocity": 0.7480314960629921,
          "duration": 0.06249993749997884
        },
        {
          "name": "D#6",
          "midi": 87,
          "time": 427.01475155624513,
          "velocity": 0.7480314960629921,
          "duration": 0.06249993749997884
        },
        {
          "name": "D6",
          "midi": 86,
          "time": 427.01475155624513,
          "velocity": 0.7480314960629921,
          "duration": 0.06249993749997884
        },
        {
          "name": "C6",
          "midi": 84,
          "time": 427.01475155624513,
          "velocity": 0.7480314960629921,
          "duration": 0.06249993749997884
        },
        {
          "name": "D#5",
          "midi": 75,
          "time": 427.01475155624513,
          "velocity": 0.7480314960629921,
          "duration": 0.06249993749997884
        },
        {
          "name": "D5",
          "midi": 74,
          "time": 427.01475155624513,
          "velocity": 0.7480314960629921,
          "duration": 0.06249993749997884
        },
        {
          "name": "C5",
          "midi": 72,
          "time": 427.01475155624513,
          "velocity": 0.7480314960629921,
          "duration": 0.06249993749997884
        },
        {
          "name": "D#4",
          "midi": 63,
          "time": 427.01475155624513,
          "velocity": 0.7480314960629921,
          "duration": 0.06249993749997884
        },
        {
          "name": "D4",
          "midi": 62,
          "time": 427.01475155624513,
          "velocity": 0.7480314960629921,
          "duration": 0.06249993749997884
        },
        {
          "name": "C4",
          "midi": 60,
          "time": 427.01475155624513,
          "velocity": 0.7480314960629921,
          "duration": 0.06249993749997884
        },
        {
          "name": "C4",
          "midi": 60,
          "time": 427.4433225562451,
          "velocity": 0.7480314960629921,
          "duration": 0.06249993749997884
        },
        {
          "name": "D4",
          "midi": 62,
          "time": 427.4433225562451,
          "velocity": 0.7480314960629921,
          "duration": 0.06249993749997884
        },
        {
          "name": "D#4",
          "midi": 63,
          "time": 427.4433225562451,
          "velocity": 0.7480314960629921,
          "duration": 0.06249993749997884
        },
        {
          "name": "C5",
          "midi": 72,
          "time": 427.4433225562451,
          "velocity": 0.7480314960629921,
          "duration": 0.06249993749997884
        },
        {
          "name": "D5",
          "midi": 74,
          "time": 427.4433225562451,
          "velocity": 0.7480314960629921,
          "duration": 0.06249993749997884
        },
        {
          "name": "D#5",
          "midi": 75,
          "time": 427.4433225562451,
          "velocity": 0.7480314960629921,
          "duration": 0.06249993749997884
        },
        {
          "name": "C6",
          "midi": 84,
          "time": 427.4433225562451,
          "velocity": 0.7480314960629921,
          "duration": 0.06249993749997884
        },
        {
          "name": "D6",
          "midi": 86,
          "time": 427.4433225562451,
          "velocity": 0.7480314960629921,
          "duration": 0.06249993749997884
        },
        {
          "name": "D#6",
          "midi": 87,
          "time": 427.4433225562451,
          "velocity": 0.7480314960629921,
          "duration": 0.06249993749997884
        },
        {
          "name": "C7",
          "midi": 96,
          "time": 427.4433225562451,
          "velocity": 0.7480314960629921,
          "duration": 0.06249993749997884
        },
        {
          "name": "D7",
          "midi": 98,
          "time": 427.4433225562451,
          "velocity": 0.7480314960629921,
          "duration": 0.06249993749997884
        },
        {
          "name": "D#7",
          "midi": 99,
          "time": 427.4433225562451,
          "velocity": 0.7480314960629921,
          "duration": 0.06249993749997884
        },
        {
          "name": "C4",
          "midi": 60,
          "time": 427.8718935562451,
          "velocity": 0.7480314960629921,
          "duration": 0.8571420000000103
        },
        {
          "name": "D4",
          "midi": 62,
          "time": 427.8718935562451,
          "velocity": 0.7480314960629921,
          "duration": 0.8571420000000103
        },
        {
          "name": "D#4",
          "midi": 63,
          "time": 427.8718935562451,
          "velocity": 0.7480314960629921,
          "duration": 0.8571420000000103
        },
        {
          "name": "C5",
          "midi": 72,
          "time": 427.8718935562451,
          "velocity": 0.7480314960629921,
          "duration": 0.8571420000000103
        },
        {
          "name": "D5",
          "midi": 74,
          "time": 427.8718935562451,
          "velocity": 0.7480314960629921,
          "duration": 0.8571420000000103
        },
        {
          "name": "D#5",
          "midi": 75,
          "time": 427.8718935562451,
          "velocity": 0.7480314960629921,
          "duration": 0.8571420000000103
        },
        {
          "name": "C6",
          "midi": 84,
          "time": 427.8718935562451,
          "velocity": 0.7480314960629921,
          "duration": 0.8571420000000103
        },
        {
          "name": "D6",
          "midi": 86,
          "time": 427.8718935562451,
          "velocity": 0.7480314960629921,
          "duration": 0.8571420000000103
        },
        {
          "name": "D#6",
          "midi": 87,
          "time": 427.8718935562451,
          "velocity": 0.7480314960629921,
          "duration": 0.8571420000000103
        },
        {
          "name": "C7",
          "midi": 96,
          "time": 427.8718935562451,
          "velocity": 0.7480314960629921,
          "duration": 0.8571420000000103
        },
        {
          "name": "D7",
          "midi": 98,
          "time": 427.8718935562451,
          "velocity": 0.7480314960629921,
          "duration": 0.8571420000000103
        },
        {
          "name": "D#7",
          "midi": 99,
          "time": 427.8718935562451,
          "velocity": 0.7480314960629921,
          "duration": 0.8571420000000103
        },
        {
          "name": "C#4",
          "midi": 61,
          "time": 428.7290355562451,
          "velocity": 0.7480314960629921,
          "duration": 0.8571420000000103
        },
        {
          "name": "D4",
          "midi": 62,
          "time": 428.7290355562451,
          "velocity": 0.7480314960629921,
          "duration": 0.8571420000000103
        },
        {
          "name": "C#5",
          "midi": 73,
          "time": 428.7290355562451,
          "velocity": 0.7480314960629921,
          "duration": 0.8571420000000103
        },
        {
          "name": "D5",
          "midi": 74,
          "time": 428.7290355562451,
          "velocity": 0.7480314960629921,
          "duration": 0.8571420000000103
        },
        {
          "name": "C#6",
          "midi": 85,
          "time": 428.7290355562451,
          "velocity": 0.7480314960629921,
          "duration": 0.8571420000000103
        },
        {
          "name": "D6",
          "midi": 86,
          "time": 428.7290355562451,
          "velocity": 0.7480314960629921,
          "duration": 0.8571420000000103
        },
        {
          "name": "C#7",
          "midi": 97,
          "time": 428.7290355562451,
          "velocity": 0.7480314960629921,
          "duration": 0.8571420000000103
        },
        {
          "name": "D7",
          "midi": 98,
          "time": 428.7290355562451,
          "velocity": 0.7480314960629921,
          "duration": 0.8571420000000103
        },
        {
          "name": "C#4",
          "midi": 61,
          "time": 429.5861775562451,
          "velocity": 0.7480314960629921,
          "duration": 0.4285709999999767
        },
        {
          "name": "D4",
          "midi": 62,
          "time": 429.5861775562451,
          "velocity": 0.7480314960629921,
          "duration": 0.4285709999999767
        },
        {
          "name": "C#5",
          "midi": 73,
          "time": 429.5861775562451,
          "velocity": 0.7480314960629921,
          "duration": 0.4285709999999767
        },
        {
          "name": "D5",
          "midi": 74,
          "time": 429.5861775562451,
          "velocity": 0.7480314960629921,
          "duration": 0.4285709999999767
        },
        {
          "name": "C#6",
          "midi": 85,
          "time": 429.5861775562451,
          "velocity": 0.7480314960629921,
          "duration": 0.4285709999999767
        },
        {
          "name": "D6",
          "midi": 86,
          "time": 429.5861775562451,
          "velocity": 0.7480314960629921,
          "duration": 0.4285709999999767
        },
        {
          "name": "C#7",
          "midi": 97,
          "time": 429.5861775562451,
          "velocity": 0.7480314960629921,
          "duration": 0.4285709999999767
        },
        {
          "name": "D7",
          "midi": 98,
          "time": 429.5861775562451,
          "velocity": 0.7480314960629921,
          "duration": 0.4285709999999767
        },
        {
          "name": "C#4",
          "midi": 61,
          "time": 430.0147485562451,
          "velocity": 0.7480314960629921,
          "duration": 0.21428550000001678
        },
        {
          "name": "D4",
          "midi": 62,
          "time": 430.0147485562451,
          "velocity": 0.7480314960629921,
          "duration": 0.21428550000001678
        },
        {
          "name": "C#5",
          "midi": 73,
          "time": 430.0147485562451,
          "velocity": 0.7480314960629921,
          "duration": 0.21428550000001678
        },
        {
          "name": "D5",
          "midi": 74,
          "time": 430.0147485562451,
          "velocity": 0.7480314960629921,
          "duration": 0.21428550000001678
        },
        {
          "name": "C#6",
          "midi": 85,
          "time": 430.0147485562451,
          "velocity": 0.7480314960629921,
          "duration": 0.21428550000001678
        },
        {
          "name": "D6",
          "midi": 86,
          "time": 430.0147485562451,
          "velocity": 0.7480314960629921,
          "duration": 0.21428550000001678
        },
        {
          "name": "C#7",
          "midi": 97,
          "time": 430.0147485562451,
          "velocity": 0.7480314960629921,
          "duration": 0.21428550000001678
        },
        {
          "name": "D7",
          "midi": 98,
          "time": 430.0147485562451,
          "velocity": 0.7480314960629921,
          "duration": 0.21428550000001678
        },
        {
          "name": "C#4",
          "midi": 61,
          "time": 430.2290340562451,
          "velocity": 0.7480314960629921,
          "duration": 0.21428550000001678
        },
        {
          "name": "D4",
          "midi": 62,
          "time": 430.2290340562451,
          "velocity": 0.7480314960629921,
          "duration": 0.21428550000001678
        },
        {
          "name": "C#5",
          "midi": 73,
          "time": 430.2290340562451,
          "velocity": 0.7480314960629921,
          "duration": 0.21428550000001678
        },
        {
          "name": "D5",
          "midi": 74,
          "time": 430.2290340562451,
          "velocity": 0.7480314960629921,
          "duration": 0.21428550000001678
        },
        {
          "name": "C#6",
          "midi": 85,
          "time": 430.2290340562451,
          "velocity": 0.7480314960629921,
          "duration": 0.21428550000001678
        },
        {
          "name": "D6",
          "midi": 86,
          "time": 430.2290340562451,
          "velocity": 0.7480314960629921,
          "duration": 0.21428550000001678
        },
        {
          "name": "C#7",
          "midi": 97,
          "time": 430.2290340562451,
          "velocity": 0.7480314960629921,
          "duration": 0.21428550000001678
        },
        {
          "name": "D7",
          "midi": 98,
          "time": 430.2290340562451,
          "velocity": 0.7480314960629921,
          "duration": 0.21428550000001678
        },
        {
          "name": "D#7",
          "midi": 99,
          "time": 430.4433195562451,
          "velocity": 0.7480314960629921,
          "duration": 0.06249993749997884
        },
        {
          "name": "C#7",
          "midi": 97,
          "time": 430.4433195562451,
          "velocity": 0.7480314960629921,
          "duration": 0.06249993749997884
        },
        {
          "name": "C7",
          "midi": 96,
          "time": 430.4433195562451,
          "velocity": 0.7480314960629921,
          "duration": 0.06249993749997884
        },
        {
          "name": "D#6",
          "midi": 87,
          "time": 430.4433195562451,
          "velocity": 0.7480314960629921,
          "duration": 0.06249993749997884
        },
        {
          "name": "C#6",
          "midi": 85,
          "time": 430.4433195562451,
          "velocity": 0.7480314960629921,
          "duration": 0.06249993749997884
        },
        {
          "name": "C6",
          "midi": 84,
          "time": 430.4433195562451,
          "velocity": 0.7480314960629921,
          "duration": 0.06249993749997884
        },
        {
          "name": "D#5",
          "midi": 75,
          "time": 430.4433195562451,
          "velocity": 0.7480314960629921,
          "duration": 0.06249993749997884
        },
        {
          "name": "C#5",
          "midi": 73,
          "time": 430.4433195562451,
          "velocity": 0.7480314960629921,
          "duration": 0.06249993749997884
        },
        {
          "name": "C5",
          "midi": 72,
          "time": 430.4433195562451,
          "velocity": 0.7480314960629921,
          "duration": 0.06249993749997884
        },
        {
          "name": "D#4",
          "midi": 63,
          "time": 430.4433195562451,
          "velocity": 0.7480314960629921,
          "duration": 0.06249993749997884
        },
        {
          "name": "C#4",
          "midi": 61,
          "time": 430.4433195562451,
          "velocity": 0.7480314960629921,
          "duration": 0.06249993749997884
        },
        {
          "name": "C4",
          "midi": 60,
          "time": 430.4433195562451,
          "velocity": 0.7480314960629921,
          "duration": 0.06249993749997884
        },
        {
          "name": "C4",
          "midi": 60,
          "time": 430.8718905562451,
          "velocity": 0.7480314960629921,
          "duration": 0.06249993749997884
        },
        {
          "name": "C#4",
          "midi": 61,
          "time": 430.8718905562451,
          "velocity": 0.7480314960629921,
          "duration": 0.06249993749997884
        },
        {
          "name": "D#4",
          "midi": 63,
          "time": 430.8718905562451,
          "velocity": 0.7480314960629921,
          "duration": 0.06249993749997884
        },
        {
          "name": "C5",
          "midi": 72,
          "time": 430.8718905562451,
          "velocity": 0.7480314960629921,
          "duration": 0.06249993749997884
        },
        {
          "name": "C#5",
          "midi": 73,
          "time": 430.8718905562451,
          "velocity": 0.7480314960629921,
          "duration": 0.06249993749997884
        },
        {
          "name": "D#5",
          "midi": 75,
          "time": 430.8718905562451,
          "velocity": 0.7480314960629921,
          "duration": 0.06249993749997884
        },
        {
          "name": "C6",
          "midi": 84,
          "time": 430.8718905562451,
          "velocity": 0.7480314960629921,
          "duration": 0.06249993749997884
        },
        {
          "name": "C#6",
          "midi": 85,
          "time": 430.8718905562451,
          "velocity": 0.7480314960629921,
          "duration": 0.06249993749997884
        },
        {
          "name": "D#6",
          "midi": 87,
          "time": 430.8718905562451,
          "velocity": 0.7480314960629921,
          "duration": 0.06249993749997884
        },
        {
          "name": "C7",
          "midi": 96,
          "time": 430.8718905562451,
          "velocity": 0.7480314960629921,
          "duration": 0.06249993749997884
        },
        {
          "name": "C#7",
          "midi": 97,
          "time": 430.8718905562451,
          "velocity": 0.7480314960629921,
          "duration": 0.06249993749997884
        },
        {
          "name": "D#7",
          "midi": 99,
          "time": 430.8718905562451,
          "velocity": 0.7480314960629921,
          "duration": 0.06249993749997884
        },
        {
          "name": "C4",
          "midi": 60,
          "time": 431.30046155624507,
          "velocity": 0.7480314960629921,
          "duration": 0.8571420000000103
        },
        {
          "name": "C#4",
          "midi": 61,
          "time": 431.30046155624507,
          "velocity": 0.7480314960629921,
          "duration": 0.8571420000000103
        },
        {
          "name": "D#4",
          "midi": 63,
          "time": 431.30046155624507,
          "velocity": 0.7480314960629921,
          "duration": 0.8571420000000103
        },
        {
          "name": "C5",
          "midi": 72,
          "time": 431.30046155624507,
          "velocity": 0.7480314960629921,
          "duration": 0.8571420000000103
        },
        {
          "name": "C#5",
          "midi": 73,
          "time": 431.30046155624507,
          "velocity": 0.7480314960629921,
          "duration": 0.8571420000000103
        },
        {
          "name": "D#5",
          "midi": 75,
          "time": 431.30046155624507,
          "velocity": 0.7480314960629921,
          "duration": 0.8571420000000103
        },
        {
          "name": "C6",
          "midi": 84,
          "time": 431.30046155624507,
          "velocity": 0.7480314960629921,
          "duration": 0.8571420000000103
        },
        {
          "name": "C#6",
          "midi": 85,
          "time": 431.30046155624507,
          "velocity": 0.7480314960629921,
          "duration": 0.8571420000000103
        },
        {
          "name": "D#6",
          "midi": 87,
          "time": 431.30046155624507,
          "velocity": 0.7480314960629921,
          "duration": 0.8571420000000103
        },
        {
          "name": "C7",
          "midi": 96,
          "time": 431.30046155624507,
          "velocity": 0.7480314960629921,
          "duration": 0.8571420000000103
        },
        {
          "name": "C#7",
          "midi": 97,
          "time": 431.30046155624507,
          "velocity": 0.7480314960629921,
          "duration": 0.8571420000000103
        },
        {
          "name": "D#7",
          "midi": 99,
          "time": 431.30046155624507,
          "velocity": 0.7480314960629921,
          "duration": 0.8571420000000103
        },
        {
          "name": "E7",
          "midi": 100,
          "time": 432.1576035562451,
          "velocity": 0.7480314960629921,
          "duration": 0.8571420000000103
        },
        {
          "name": "D#7",
          "midi": 99,
          "time": 432.1576035562451,
          "velocity": 0.7480314960629921,
          "duration": 0.8571420000000103
        },
        {
          "name": "C#7",
          "midi": 97,
          "time": 432.1576035562451,
          "velocity": 0.7480314960629921,
          "duration": 0.8571420000000103
        },
        {
          "name": "E6",
          "midi": 88,
          "time": 432.1576035562451,
          "velocity": 0.7480314960629921,
          "duration": 0.8571420000000103
        },
        {
          "name": "D#6",
          "midi": 87,
          "time": 432.1576035562451,
          "velocity": 0.7480314960629921,
          "duration": 0.8571420000000103
        },
        {
          "name": "C#6",
          "midi": 85,
          "time": 432.1576035562451,
          "velocity": 0.7480314960629921,
          "duration": 0.8571420000000103
        },
        {
          "name": "E5",
          "midi": 76,
          "time": 432.1576035562451,
          "velocity": 0.7480314960629921,
          "duration": 0.8571420000000103
        },
        {
          "name": "D#5",
          "midi": 75,
          "time": 432.1576035562451,
          "velocity": 0.7480314960629921,
          "duration": 0.8571420000000103
        },
        {
          "name": "C#5",
          "midi": 73,
          "time": 432.1576035562451,
          "velocity": 0.7480314960629921,
          "duration": 0.8571420000000103
        },
        {
          "name": "E4",
          "midi": 64,
          "time": 432.1576035562451,
          "velocity": 0.7480314960629921,
          "duration": 0.8571420000000103
        },
        {
          "name": "D#4",
          "midi": 63,
          "time": 432.1576035562451,
          "velocity": 0.7480314960629921,
          "duration": 0.8571420000000103
        },
        {
          "name": "C#4",
          "midi": 61,
          "time": 432.1576035562451,
          "velocity": 0.7480314960629921,
          "duration": 0.8571420000000103
        },
        {
          "name": "E7",
          "midi": 100,
          "time": 433.0147455562451,
          "velocity": 0.7480314960629921,
          "duration": 0.4285709999999767
        },
        {
          "name": "D#7",
          "midi": 99,
          "time": 433.0147455562451,
          "velocity": 0.7480314960629921,
          "duration": 0.4285709999999767
        },
        {
          "name": "C#7",
          "midi": 97,
          "time": 433.0147455562451,
          "velocity": 0.7480314960629921,
          "duration": 0.4285709999999767
        },
        {
          "name": "E6",
          "midi": 88,
          "time": 433.0147455562451,
          "velocity": 0.7480314960629921,
          "duration": 0.4285709999999767
        },
        {
          "name": "D#6",
          "midi": 87,
          "time": 433.0147455562451,
          "velocity": 0.7480314960629921,
          "duration": 0.4285709999999767
        },
        {
          "name": "C#6",
          "midi": 85,
          "time": 433.0147455562451,
          "velocity": 0.7480314960629921,
          "duration": 0.4285709999999767
        },
        {
          "name": "E5",
          "midi": 76,
          "time": 433.0147455562451,
          "velocity": 0.7480314960629921,
          "duration": 0.4285709999999767
        },
        {
          "name": "D#5",
          "midi": 75,
          "time": 433.0147455562451,
          "velocity": 0.7480314960629921,
          "duration": 0.4285709999999767
        },
        {
          "name": "C#5",
          "midi": 73,
          "time": 433.0147455562451,
          "velocity": 0.7480314960629921,
          "duration": 0.4285709999999767
        },
        {
          "name": "E4",
          "midi": 64,
          "time": 433.0147455562451,
          "velocity": 0.7480314960629921,
          "duration": 0.4285709999999767
        },
        {
          "name": "D#4",
          "midi": 63,
          "time": 433.0147455562451,
          "velocity": 0.7480314960629921,
          "duration": 0.4285709999999767
        },
        {
          "name": "C#4",
          "midi": 61,
          "time": 433.0147455562451,
          "velocity": 0.7480314960629921,
          "duration": 0.4285709999999767
        },
        {
          "name": "E7",
          "midi": 100,
          "time": 433.44331655624507,
          "velocity": 0.7480314960629921,
          "duration": 0.21428550000001678
        },
        {
          "name": "D#7",
          "midi": 99,
          "time": 433.44331655624507,
          "velocity": 0.7480314960629921,
          "duration": 0.21428550000001678
        },
        {
          "name": "C#7",
          "midi": 97,
          "time": 433.44331655624507,
          "velocity": 0.7480314960629921,
          "duration": 0.21428550000001678
        },
        {
          "name": "E6",
          "midi": 88,
          "time": 433.44331655624507,
          "velocity": 0.7480314960629921,
          "duration": 0.21428550000001678
        },
        {
          "name": "D#6",
          "midi": 87,
          "time": 433.44331655624507,
          "velocity": 0.7480314960629921,
          "duration": 0.21428550000001678
        },
        {
          "name": "C#6",
          "midi": 85,
          "time": 433.44331655624507,
          "velocity": 0.7480314960629921,
          "duration": 0.21428550000001678
        },
        {
          "name": "E5",
          "midi": 76,
          "time": 433.44331655624507,
          "velocity": 0.7480314960629921,
          "duration": 0.21428550000001678
        },
        {
          "name": "D#5",
          "midi": 75,
          "time": 433.44331655624507,
          "velocity": 0.7480314960629921,
          "duration": 0.21428550000001678
        },
        {
          "name": "C#5",
          "midi": 73,
          "time": 433.44331655624507,
          "velocity": 0.7480314960629921,
          "duration": 0.21428550000001678
        },
        {
          "name": "E4",
          "midi": 64,
          "time": 433.44331655624507,
          "velocity": 0.7480314960629921,
          "duration": 0.21428550000001678
        },
        {
          "name": "D#4",
          "midi": 63,
          "time": 433.44331655624507,
          "velocity": 0.7480314960629921,
          "duration": 0.21428550000001678
        },
        {
          "name": "C#4",
          "midi": 61,
          "time": 433.44331655624507,
          "velocity": 0.7480314960629921,
          "duration": 0.21428550000001678
        },
        {
          "name": "E7",
          "midi": 100,
          "time": 433.6576020562451,
          "velocity": 0.7480314960629921,
          "duration": 0.21428550000001678
        },
        {
          "name": "D#7",
          "midi": 99,
          "time": 433.6576020562451,
          "velocity": 0.7480314960629921,
          "duration": 0.21428550000001678
        },
        {
          "name": "C#7",
          "midi": 97,
          "time": 433.6576020562451,
          "velocity": 0.7480314960629921,
          "duration": 0.21428550000001678
        },
        {
          "name": "E6",
          "midi": 88,
          "time": 433.6576020562451,
          "velocity": 0.7480314960629921,
          "duration": 0.21428550000001678
        },
        {
          "name": "D#6",
          "midi": 87,
          "time": 433.6576020562451,
          "velocity": 0.7480314960629921,
          "duration": 0.21428550000001678
        },
        {
          "name": "C#6",
          "midi": 85,
          "time": 433.6576020562451,
          "velocity": 0.7480314960629921,
          "duration": 0.21428550000001678
        },
        {
          "name": "E5",
          "midi": 76,
          "time": 433.6576020562451,
          "velocity": 0.7480314960629921,
          "duration": 0.21428550000001678
        },
        {
          "name": "D#5",
          "midi": 75,
          "time": 433.6576020562451,
          "velocity": 0.7480314960629921,
          "duration": 0.21428550000001678
        },
        {
          "name": "C#5",
          "midi": 73,
          "time": 433.6576020562451,
          "velocity": 0.7480314960629921,
          "duration": 0.21428550000001678
        },
        {
          "name": "E4",
          "midi": 64,
          "time": 433.6576020562451,
          "velocity": 0.7480314960629921,
          "duration": 0.21428550000001678
        },
        {
          "name": "D#4",
          "midi": 63,
          "time": 433.6576020562451,
          "velocity": 0.7480314960629921,
          "duration": 0.21428550000001678
        },
        {
          "name": "C#4",
          "midi": 61,
          "time": 433.6576020562451,
          "velocity": 0.7480314960629921,
          "duration": 0.21428550000001678
        },
        {
          "name": "D#7",
          "midi": 99,
          "time": 433.8718875562451,
          "velocity": 0.7480314960629921,
          "duration": 0.06249993749997884
        },
        {
          "name": "D7",
          "midi": 98,
          "time": 433.8718875562451,
          "velocity": 0.7480314960629921,
          "duration": 0.06249993749997884
        },
        {
          "name": "C7",
          "midi": 96,
          "time": 433.8718875562451,
          "velocity": 0.7480314960629921,
          "duration": 0.06249993749997884
        },
        {
          "name": "D#6",
          "midi": 87,
          "time": 433.8718875562451,
          "velocity": 0.7480314960629921,
          "duration": 0.06249993749997884
        },
        {
          "name": "D6",
          "midi": 86,
          "time": 433.8718875562451,
          "velocity": 0.7480314960629921,
          "duration": 0.06249993749997884
        },
        {
          "name": "C6",
          "midi": 84,
          "time": 433.8718875562451,
          "velocity": 0.7480314960629921,
          "duration": 0.06249993749997884
        },
        {
          "name": "D#5",
          "midi": 75,
          "time": 433.8718875562451,
          "velocity": 0.7480314960629921,
          "duration": 0.06249993749997884
        },
        {
          "name": "D5",
          "midi": 74,
          "time": 433.8718875562451,
          "velocity": 0.7480314960629921,
          "duration": 0.06249993749997884
        },
        {
          "name": "C5",
          "midi": 72,
          "time": 433.8718875562451,
          "velocity": 0.7480314960629921,
          "duration": 0.06249993749997884
        },
        {
          "name": "D#4",
          "midi": 63,
          "time": 433.8718875562451,
          "velocity": 0.7480314960629921,
          "duration": 0.06249993749997884
        },
        {
          "name": "D4",
          "midi": 62,
          "time": 433.8718875562451,
          "velocity": 0.7480314960629921,
          "duration": 0.06249993749997884
        },
        {
          "name": "C4",
          "midi": 60,
          "time": 433.8718875562451,
          "velocity": 0.7480314960629921,
          "duration": 0.06249993749997884
        },
        {
          "name": "C4",
          "midi": 60,
          "time": 434.3004585562451,
          "velocity": 0.7480314960629921,
          "duration": 0.06249993749997884
        },
        {
          "name": "D4",
          "midi": 62,
          "time": 434.3004585562451,
          "velocity": 0.7480314960629921,
          "duration": 0.06249993749997884
        },
        {
          "name": "D#4",
          "midi": 63,
          "time": 434.3004585562451,
          "velocity": 0.7480314960629921,
          "duration": 0.06249993749997884
        },
        {
          "name": "C5",
          "midi": 72,
          "time": 434.3004585562451,
          "velocity": 0.7480314960629921,
          "duration": 0.06249993749997884
        },
        {
          "name": "D5",
          "midi": 74,
          "time": 434.3004585562451,
          "velocity": 0.7480314960629921,
          "duration": 0.06249993749997884
        },
        {
          "name": "D#5",
          "midi": 75,
          "time": 434.3004585562451,
          "velocity": 0.7480314960629921,
          "duration": 0.06249993749997884
        },
        {
          "name": "C6",
          "midi": 84,
          "time": 434.3004585562451,
          "velocity": 0.7480314960629921,
          "duration": 0.06249993749997884
        },
        {
          "name": "D6",
          "midi": 86,
          "time": 434.3004585562451,
          "velocity": 0.7480314960629921,
          "duration": 0.06249993749997884
        },
        {
          "name": "D#6",
          "midi": 87,
          "time": 434.3004585562451,
          "velocity": 0.7480314960629921,
          "duration": 0.06249993749997884
        },
        {
          "name": "C7",
          "midi": 96,
          "time": 434.3004585562451,
          "velocity": 0.7480314960629921,
          "duration": 0.06249993749997884
        },
        {
          "name": "D7",
          "midi": 98,
          "time": 434.3004585562451,
          "velocity": 0.7480314960629921,
          "duration": 0.06249993749997884
        },
        {
          "name": "D#7",
          "midi": 99,
          "time": 434.3004585562451,
          "velocity": 0.7480314960629921,
          "duration": 0.06249993749997884
        },
        {
          "name": "C4",
          "midi": 60,
          "time": 434.72902955624505,
          "velocity": 0.7480314960629921,
          "duration": 0.8571420000000103
        },
        {
          "name": "D4",
          "midi": 62,
          "time": 434.72902955624505,
          "velocity": 0.7480314960629921,
          "duration": 0.8571420000000103
        },
        {
          "name": "D#4",
          "midi": 63,
          "time": 434.72902955624505,
          "velocity": 0.7480314960629921,
          "duration": 0.8571420000000103
        },
        {
          "name": "C5",
          "midi": 72,
          "time": 434.72902955624505,
          "velocity": 0.7480314960629921,
          "duration": 0.8571420000000103
        },
        {
          "name": "D5",
          "midi": 74,
          "time": 434.72902955624505,
          "velocity": 0.7480314960629921,
          "duration": 0.8571420000000103
        },
        {
          "name": "D#5",
          "midi": 75,
          "time": 434.72902955624505,
          "velocity": 0.7480314960629921,
          "duration": 0.8571420000000103
        },
        {
          "name": "C6",
          "midi": 84,
          "time": 434.72902955624505,
          "velocity": 0.7480314960629921,
          "duration": 0.8571420000000103
        },
        {
          "name": "D6",
          "midi": 86,
          "time": 434.72902955624505,
          "velocity": 0.7480314960629921,
          "duration": 0.8571420000000103
        },
        {
          "name": "D#6",
          "midi": 87,
          "time": 434.72902955624505,
          "velocity": 0.7480314960629921,
          "duration": 0.8571420000000103
        },
        {
          "name": "C7",
          "midi": 96,
          "time": 434.72902955624505,
          "velocity": 0.7480314960629921,
          "duration": 0.8571420000000103
        },
        {
          "name": "D7",
          "midi": 98,
          "time": 434.72902955624505,
          "velocity": 0.7480314960629921,
          "duration": 0.8571420000000103
        },
        {
          "name": "D#7",
          "midi": 99,
          "time": 434.72902955624505,
          "velocity": 0.7480314960629921,
          "duration": 0.8571420000000103
        },
        {
          "name": "C#4",
          "midi": 61,
          "time": 435.58617155624506,
          "velocity": 0.7480314960629921,
          "duration": 0.8571420000000103
        },
        {
          "name": "D4",
          "midi": 62,
          "time": 435.58617155624506,
          "velocity": 0.7480314960629921,
          "duration": 0.8571420000000103
        },
        {
          "name": "C#5",
          "midi": 73,
          "time": 435.58617155624506,
          "velocity": 0.7480314960629921,
          "duration": 0.8571420000000103
        },
        {
          "name": "D5",
          "midi": 74,
          "time": 435.58617155624506,
          "velocity": 0.7480314960629921,
          "duration": 0.8571420000000103
        },
        {
          "name": "C#6",
          "midi": 85,
          "time": 435.58617155624506,
          "velocity": 0.7480314960629921,
          "duration": 0.8571420000000103
        },
        {
          "name": "D6",
          "midi": 86,
          "time": 435.58617155624506,
          "velocity": 0.7480314960629921,
          "duration": 0.8571420000000103
        },
        {
          "name": "C#7",
          "midi": 97,
          "time": 435.58617155624506,
          "velocity": 0.7480314960629921,
          "duration": 0.8571420000000103
        },
        {
          "name": "D7",
          "midi": 98,
          "time": 435.58617155624506,
          "velocity": 0.7480314960629921,
          "duration": 0.8571420000000103
        },
        {
          "name": "C#4",
          "midi": 61,
          "time": 436.4433135562451,
          "velocity": 0.7480314960629921,
          "duration": 0.4285709999999767
        },
        {
          "name": "D4",
          "midi": 62,
          "time": 436.4433135562451,
          "velocity": 0.7480314960629921,
          "duration": 0.4285709999999767
        },
        {
          "name": "C#5",
          "midi": 73,
          "time": 436.4433135562451,
          "velocity": 0.7480314960629921,
          "duration": 0.4285709999999767
        },
        {
          "name": "D5",
          "midi": 74,
          "time": 436.4433135562451,
          "velocity": 0.7480314960629921,
          "duration": 0.4285709999999767
        },
        {
          "name": "C#6",
          "midi": 85,
          "time": 436.4433135562451,
          "velocity": 0.7480314960629921,
          "duration": 0.4285709999999767
        },
        {
          "name": "D6",
          "midi": 86,
          "time": 436.4433135562451,
          "velocity": 0.7480314960629921,
          "duration": 0.4285709999999767
        },
        {
          "name": "C#7",
          "midi": 97,
          "time": 436.4433135562451,
          "velocity": 0.7480314960629921,
          "duration": 0.4285709999999767
        },
        {
          "name": "D7",
          "midi": 98,
          "time": 436.4433135562451,
          "velocity": 0.7480314960629921,
          "duration": 0.4285709999999767
        },
        {
          "name": "C#4",
          "midi": 61,
          "time": 436.87188455624505,
          "velocity": 0.7480314960629921,
          "duration": 0.21428550000001678
        },
        {
          "name": "D4",
          "midi": 62,
          "time": 436.87188455624505,
          "velocity": 0.7480314960629921,
          "duration": 0.21428550000001678
        },
        {
          "name": "C#5",
          "midi": 73,
          "time": 436.87188455624505,
          "velocity": 0.7480314960629921,
          "duration": 0.21428550000001678
        },
        {
          "name": "D5",
          "midi": 74,
          "time": 436.87188455624505,
          "velocity": 0.7480314960629921,
          "duration": 0.21428550000001678
        },
        {
          "name": "C#6",
          "midi": 85,
          "time": 436.87188455624505,
          "velocity": 0.7480314960629921,
          "duration": 0.21428550000001678
        },
        {
          "name": "D6",
          "midi": 86,
          "time": 436.87188455624505,
          "velocity": 0.7480314960629921,
          "duration": 0.21428550000001678
        },
        {
          "name": "C#7",
          "midi": 97,
          "time": 436.87188455624505,
          "velocity": 0.7480314960629921,
          "duration": 0.21428550000001678
        },
        {
          "name": "D7",
          "midi": 98,
          "time": 436.87188455624505,
          "velocity": 0.7480314960629921,
          "duration": 0.21428550000001678
        },
        {
          "name": "C#4",
          "midi": 61,
          "time": 437.08617005624507,
          "velocity": 0.7480314960629921,
          "duration": 0.21428550000001678
        },
        {
          "name": "D4",
          "midi": 62,
          "time": 437.08617005624507,
          "velocity": 0.7480314960629921,
          "duration": 0.21428550000001678
        },
        {
          "name": "C#5",
          "midi": 73,
          "time": 437.08617005624507,
          "velocity": 0.7480314960629921,
          "duration": 0.21428550000001678
        },
        {
          "name": "D5",
          "midi": 74,
          "time": 437.08617005624507,
          "velocity": 0.7480314960629921,
          "duration": 0.21428550000001678
        },
        {
          "name": "C#6",
          "midi": 85,
          "time": 437.08617005624507,
          "velocity": 0.7480314960629921,
          "duration": 0.21428550000001678
        },
        {
          "name": "D6",
          "midi": 86,
          "time": 437.08617005624507,
          "velocity": 0.7480314960629921,
          "duration": 0.21428550000001678
        },
        {
          "name": "C#7",
          "midi": 97,
          "time": 437.08617005624507,
          "velocity": 0.7480314960629921,
          "duration": 0.21428550000001678
        },
        {
          "name": "D7",
          "midi": 98,
          "time": 437.08617005624507,
          "velocity": 0.7480314960629921,
          "duration": 0.21428550000001678
        },
        {
          "name": "D#7",
          "midi": 99,
          "time": 437.3004555562451,
          "velocity": 0.7480314960629921,
          "duration": 0.06249993749997884
        },
        {
          "name": "C#7",
          "midi": 97,
          "time": 437.3004555562451,
          "velocity": 0.7480314960629921,
          "duration": 0.06249993749997884
        },
        {
          "name": "C7",
          "midi": 96,
          "time": 437.3004555562451,
          "velocity": 0.7480314960629921,
          "duration": 0.06249993749997884
        },
        {
          "name": "D#6",
          "midi": 87,
          "time": 437.3004555562451,
          "velocity": 0.7480314960629921,
          "duration": 0.06249993749997884
        },
        {
          "name": "C#6",
          "midi": 85,
          "time": 437.3004555562451,
          "velocity": 0.7480314960629921,
          "duration": 0.06249993749997884
        },
        {
          "name": "C6",
          "midi": 84,
          "time": 437.3004555562451,
          "velocity": 0.7480314960629921,
          "duration": 0.06249993749997884
        },
        {
          "name": "D#5",
          "midi": 75,
          "time": 437.3004555562451,
          "velocity": 0.7480314960629921,
          "duration": 0.06249993749997884
        },
        {
          "name": "C#5",
          "midi": 73,
          "time": 437.3004555562451,
          "velocity": 0.7480314960629921,
          "duration": 0.06249993749997884
        },
        {
          "name": "C5",
          "midi": 72,
          "time": 437.3004555562451,
          "velocity": 0.7480314960629921,
          "duration": 0.06249993749997884
        },
        {
          "name": "D#4",
          "midi": 63,
          "time": 437.3004555562451,
          "velocity": 0.7480314960629921,
          "duration": 0.06249993749997884
        },
        {
          "name": "C#4",
          "midi": 61,
          "time": 437.3004555562451,
          "velocity": 0.7480314960629921,
          "duration": 0.06249993749997884
        },
        {
          "name": "C4",
          "midi": 60,
          "time": 437.3004555562451,
          "velocity": 0.7480314960629921,
          "duration": 0.06249993749997884
        },
        {
          "name": "C4",
          "midi": 60,
          "time": 437.72902655624506,
          "velocity": 0.7480314960629921,
          "duration": 0.06249993749997884
        },
        {
          "name": "C#4",
          "midi": 61,
          "time": 437.72902655624506,
          "velocity": 0.7480314960629921,
          "duration": 0.06249993749997884
        },
        {
          "name": "D#4",
          "midi": 63,
          "time": 437.72902655624506,
          "velocity": 0.7480314960629921,
          "duration": 0.06249993749997884
        },
        {
          "name": "C5",
          "midi": 72,
          "time": 437.72902655624506,
          "velocity": 0.7480314960629921,
          "duration": 0.06249993749997884
        },
        {
          "name": "C#5",
          "midi": 73,
          "time": 437.72902655624506,
          "velocity": 0.7480314960629921,
          "duration": 0.06249993749997884
        },
        {
          "name": "D#5",
          "midi": 75,
          "time": 437.72902655624506,
          "velocity": 0.7480314960629921,
          "duration": 0.06249993749997884
        },
        {
          "name": "C6",
          "midi": 84,
          "time": 437.72902655624506,
          "velocity": 0.7480314960629921,
          "duration": 0.06249993749997884
        },
        {
          "name": "C#6",
          "midi": 85,
          "time": 437.72902655624506,
          "velocity": 0.7480314960629921,
          "duration": 0.06249993749997884
        },
        {
          "name": "D#6",
          "midi": 87,
          "time": 437.72902655624506,
          "velocity": 0.7480314960629921,
          "duration": 0.06249993749997884
        },
        {
          "name": "C7",
          "midi": 96,
          "time": 437.72902655624506,
          "velocity": 0.7480314960629921,
          "duration": 0.06249993749997884
        },
        {
          "name": "C#7",
          "midi": 97,
          "time": 437.72902655624506,
          "velocity": 0.7480314960629921,
          "duration": 0.06249993749997884
        },
        {
          "name": "D#7",
          "midi": 99,
          "time": 437.72902655624506,
          "velocity": 0.7480314960629921,
          "duration": 0.06249993749997884
        },
        {
          "name": "C4",
          "midi": 60,
          "time": 438.15759755624504,
          "velocity": 0.7480314960629921,
          "duration": 0.8571420000000103
        },
        {
          "name": "C#4",
          "midi": 61,
          "time": 438.15759755624504,
          "velocity": 0.7480314960629921,
          "duration": 0.8571420000000103
        },
        {
          "name": "D#4",
          "midi": 63,
          "time": 438.15759755624504,
          "velocity": 0.7480314960629921,
          "duration": 0.8571420000000103
        },
        {
          "name": "C5",
          "midi": 72,
          "time": 438.15759755624504,
          "velocity": 0.7480314960629921,
          "duration": 0.8571420000000103
        },
        {
          "name": "C#5",
          "midi": 73,
          "time": 438.15759755624504,
          "velocity": 0.7480314960629921,
          "duration": 0.8571420000000103
        },
        {
          "name": "D#5",
          "midi": 75,
          "time": 438.15759755624504,
          "velocity": 0.7480314960629921,
          "duration": 0.8571420000000103
        },
        {
          "name": "C6",
          "midi": 84,
          "time": 438.15759755624504,
          "velocity": 0.7480314960629921,
          "duration": 0.8571420000000103
        },
        {
          "name": "C#6",
          "midi": 85,
          "time": 438.15759755624504,
          "velocity": 0.7480314960629921,
          "duration": 0.8571420000000103
        },
        {
          "name": "D#6",
          "midi": 87,
          "time": 438.15759755624504,
          "velocity": 0.7480314960629921,
          "duration": 0.8571420000000103
        },
        {
          "name": "C7",
          "midi": 96,
          "time": 438.15759755624504,
          "velocity": 0.7480314960629921,
          "duration": 0.8571420000000103
        },
        {
          "name": "C#7",
          "midi": 97,
          "time": 438.15759755624504,
          "velocity": 0.7480314960629921,
          "duration": 0.8571420000000103
        },
        {
          "name": "D#7",
          "midi": 99,
          "time": 438.15759755624504,
          "velocity": 0.7480314960629921,
          "duration": 0.8571420000000103
        },
        {
          "name": "E7",
          "midi": 100,
          "time": 439.01473955624505,
          "velocity": 0.7480314960629921,
          "duration": 0.8571420000000103
        },
        {
          "name": "D#7",
          "midi": 99,
          "time": 439.01473955624505,
          "velocity": 0.7480314960629921,
          "duration": 0.8571420000000103
        },
        {
          "name": "C#7",
          "midi": 97,
          "time": 439.01473955624505,
          "velocity": 0.7480314960629921,
          "duration": 0.8571420000000103
        },
        {
          "name": "E6",
          "midi": 88,
          "time": 439.01473955624505,
          "velocity": 0.7480314960629921,
          "duration": 0.8571420000000103
        },
        {
          "name": "D#6",
          "midi": 87,
          "time": 439.01473955624505,
          "velocity": 0.7480314960629921,
          "duration": 0.8571420000000103
        },
        {
          "name": "C#6",
          "midi": 85,
          "time": 439.01473955624505,
          "velocity": 0.7480314960629921,
          "duration": 0.8571420000000103
        },
        {
          "name": "E5",
          "midi": 76,
          "time": 439.01473955624505,
          "velocity": 0.7480314960629921,
          "duration": 0.8571420000000103
        },
        {
          "name": "D#5",
          "midi": 75,
          "time": 439.01473955624505,
          "velocity": 0.7480314960629921,
          "duration": 0.8571420000000103
        },
        {
          "name": "C#5",
          "midi": 73,
          "time": 439.01473955624505,
          "velocity": 0.7480314960629921,
          "duration": 0.8571420000000103
        },
        {
          "name": "E4",
          "midi": 64,
          "time": 439.01473955624505,
          "velocity": 0.7480314960629921,
          "duration": 0.8571420000000103
        },
        {
          "name": "D#4",
          "midi": 63,
          "time": 439.01473955624505,
          "velocity": 0.7480314960629921,
          "duration": 0.8571420000000103
        },
        {
          "name": "C#4",
          "midi": 61,
          "time": 439.01473955624505,
          "velocity": 0.7480314960629921,
          "duration": 0.8571420000000103
        },
        {
          "name": "E7",
          "midi": 100,
          "time": 439.87188155624506,
          "velocity": 0.7480314960629921,
          "duration": 0.4285709999999767
        },
        {
          "name": "D#7",
          "midi": 99,
          "time": 439.87188155624506,
          "velocity": 0.7480314960629921,
          "duration": 0.4285709999999767
        },
        {
          "name": "C#7",
          "midi": 97,
          "time": 439.87188155624506,
          "velocity": 0.7480314960629921,
          "duration": 0.4285709999999767
        },
        {
          "name": "E6",
          "midi": 88,
          "time": 439.87188155624506,
          "velocity": 0.7480314960629921,
          "duration": 0.4285709999999767
        },
        {
          "name": "D#6",
          "midi": 87,
          "time": 439.87188155624506,
          "velocity": 0.7480314960629921,
          "duration": 0.4285709999999767
        },
        {
          "name": "C#6",
          "midi": 85,
          "time": 439.87188155624506,
          "velocity": 0.7480314960629921,
          "duration": 0.4285709999999767
        },
        {
          "name": "E5",
          "midi": 76,
          "time": 439.87188155624506,
          "velocity": 0.7480314960629921,
          "duration": 0.4285709999999767
        },
        {
          "name": "D#5",
          "midi": 75,
          "time": 439.87188155624506,
          "velocity": 0.7480314960629921,
          "duration": 0.4285709999999767
        },
        {
          "name": "C#5",
          "midi": 73,
          "time": 439.87188155624506,
          "velocity": 0.7480314960629921,
          "duration": 0.4285709999999767
        },
        {
          "name": "E4",
          "midi": 64,
          "time": 439.87188155624506,
          "velocity": 0.7480314960629921,
          "duration": 0.4285709999999767
        },
        {
          "name": "D#4",
          "midi": 63,
          "time": 439.87188155624506,
          "velocity": 0.7480314960629921,
          "duration": 0.4285709999999767
        },
        {
          "name": "C#4",
          "midi": 61,
          "time": 439.87188155624506,
          "velocity": 0.7480314960629921,
          "duration": 0.4285709999999767
        },
        {
          "name": "E7",
          "midi": 100,
          "time": 440.30045255624503,
          "velocity": 0.7480314960629921,
          "duration": 0.21428550000001678
        },
        {
          "name": "D#7",
          "midi": 99,
          "time": 440.30045255624503,
          "velocity": 0.7480314960629921,
          "duration": 0.21428550000001678
        },
        {
          "name": "C#7",
          "midi": 97,
          "time": 440.30045255624503,
          "velocity": 0.7480314960629921,
          "duration": 0.21428550000001678
        },
        {
          "name": "E6",
          "midi": 88,
          "time": 440.30045255624503,
          "velocity": 0.7480314960629921,
          "duration": 0.21428550000001678
        },
        {
          "name": "D#6",
          "midi": 87,
          "time": 440.30045255624503,
          "velocity": 0.7480314960629921,
          "duration": 0.21428550000001678
        },
        {
          "name": "C#6",
          "midi": 85,
          "time": 440.30045255624503,
          "velocity": 0.7480314960629921,
          "duration": 0.21428550000001678
        },
        {
          "name": "E5",
          "midi": 76,
          "time": 440.30045255624503,
          "velocity": 0.7480314960629921,
          "duration": 0.21428550000001678
        },
        {
          "name": "D#5",
          "midi": 75,
          "time": 440.30045255624503,
          "velocity": 0.7480314960629921,
          "duration": 0.21428550000001678
        },
        {
          "name": "C#5",
          "midi": 73,
          "time": 440.30045255624503,
          "velocity": 0.7480314960629921,
          "duration": 0.21428550000001678
        },
        {
          "name": "E4",
          "midi": 64,
          "time": 440.30045255624503,
          "velocity": 0.7480314960629921,
          "duration": 0.21428550000001678
        },
        {
          "name": "D#4",
          "midi": 63,
          "time": 440.30045255624503,
          "velocity": 0.7480314960629921,
          "duration": 0.21428550000001678
        },
        {
          "name": "C#4",
          "midi": 61,
          "time": 440.30045255624503,
          "velocity": 0.7480314960629921,
          "duration": 0.21428550000001678
        },
        {
          "name": "E7",
          "midi": 100,
          "time": 440.51473805624505,
          "velocity": 0.7480314960629921,
          "duration": 0.21428550000001678
        },
        {
          "name": "D#7",
          "midi": 99,
          "time": 440.51473805624505,
          "velocity": 0.7480314960629921,
          "duration": 0.21428550000001678
        },
        {
          "name": "C#7",
          "midi": 97,
          "time": 440.51473805624505,
          "velocity": 0.7480314960629921,
          "duration": 0.21428550000001678
        },
        {
          "name": "E6",
          "midi": 88,
          "time": 440.51473805624505,
          "velocity": 0.7480314960629921,
          "duration": 0.21428550000001678
        },
        {
          "name": "D#6",
          "midi": 87,
          "time": 440.51473805624505,
          "velocity": 0.7480314960629921,
          "duration": 0.21428550000001678
        },
        {
          "name": "C#6",
          "midi": 85,
          "time": 440.51473805624505,
          "velocity": 0.7480314960629921,
          "duration": 0.21428550000001678
        },
        {
          "name": "E5",
          "midi": 76,
          "time": 440.51473805624505,
          "velocity": 0.7480314960629921,
          "duration": 0.21428550000001678
        },
        {
          "name": "D#5",
          "midi": 75,
          "time": 440.51473805624505,
          "velocity": 0.7480314960629921,
          "duration": 0.21428550000001678
        },
        {
          "name": "C#5",
          "midi": 73,
          "time": 440.51473805624505,
          "velocity": 0.7480314960629921,
          "duration": 0.21428550000001678
        },
        {
          "name": "E4",
          "midi": 64,
          "time": 440.51473805624505,
          "velocity": 0.7480314960629921,
          "duration": 0.21428550000001678
        },
        {
          "name": "D#4",
          "midi": 63,
          "time": 440.51473805624505,
          "velocity": 0.7480314960629921,
          "duration": 0.21428550000001678
        },
        {
          "name": "C#4",
          "midi": 61,
          "time": 440.51473805624505,
          "velocity": 0.7480314960629921,
          "duration": 0.21428550000001678
        },
        {
          "name": "D#7",
          "midi": 99,
          "time": 440.72902355624507,
          "velocity": 0.7480314960629921,
          "duration": 0.06249993749997884
        },
        {
          "name": "D7",
          "midi": 98,
          "time": 440.72902355624507,
          "velocity": 0.7480314960629921,
          "duration": 0.06249993749997884
        },
        {
          "name": "C7",
          "midi": 96,
          "time": 440.72902355624507,
          "velocity": 0.7480314960629921,
          "duration": 0.06249993749997884
        },
        {
          "name": "D#6",
          "midi": 87,
          "time": 440.72902355624507,
          "velocity": 0.7480314960629921,
          "duration": 0.06249993749997884
        },
        {
          "name": "D6",
          "midi": 86,
          "time": 440.72902355624507,
          "velocity": 0.7480314960629921,
          "duration": 0.06249993749997884
        },
        {
          "name": "C6",
          "midi": 84,
          "time": 440.72902355624507,
          "velocity": 0.7480314960629921,
          "duration": 0.06249993749997884
        },
        {
          "name": "D#5",
          "midi": 75,
          "time": 440.72902355624507,
          "velocity": 0.7480314960629921,
          "duration": 0.06249993749997884
        },
        {
          "name": "D5",
          "midi": 74,
          "time": 440.72902355624507,
          "velocity": 0.7480314960629921,
          "duration": 0.06249993749997884
        },
        {
          "name": "C5",
          "midi": 72,
          "time": 440.72902355624507,
          "velocity": 0.7480314960629921,
          "duration": 0.06249993749997884
        },
        {
          "name": "D#4",
          "midi": 63,
          "time": 440.72902355624507,
          "velocity": 0.7480314960629921,
          "duration": 0.06249993749997884
        },
        {
          "name": "D4",
          "midi": 62,
          "time": 440.72902355624507,
          "velocity": 0.7480314960629921,
          "duration": 0.06249993749997884
        },
        {
          "name": "C4",
          "midi": 60,
          "time": 440.72902355624507,
          "velocity": 0.7480314960629921,
          "duration": 0.06249993749997884
        },
        {
          "name": "C4",
          "midi": 60,
          "time": 441.15759455624504,
          "velocity": 0.7480314960629921,
          "duration": 0.06249993749997884
        },
        {
          "name": "D4",
          "midi": 62,
          "time": 441.15759455624504,
          "velocity": 0.7480314960629921,
          "duration": 0.06249993749997884
        },
        {
          "name": "D#4",
          "midi": 63,
          "time": 441.15759455624504,
          "velocity": 0.7480314960629921,
          "duration": 0.06249993749997884
        },
        {
          "name": "C5",
          "midi": 72,
          "time": 441.15759455624504,
          "velocity": 0.7480314960629921,
          "duration": 0.06249993749997884
        },
        {
          "name": "D5",
          "midi": 74,
          "time": 441.15759455624504,
          "velocity": 0.7480314960629921,
          "duration": 0.06249993749997884
        },
        {
          "name": "D#5",
          "midi": 75,
          "time": 441.15759455624504,
          "velocity": 0.7480314960629921,
          "duration": 0.06249993749997884
        },
        {
          "name": "C6",
          "midi": 84,
          "time": 441.15759455624504,
          "velocity": 0.7480314960629921,
          "duration": 0.06249993749997884
        },
        {
          "name": "D6",
          "midi": 86,
          "time": 441.15759455624504,
          "velocity": 0.7480314960629921,
          "duration": 0.06249993749997884
        },
        {
          "name": "D#6",
          "midi": 87,
          "time": 441.15759455624504,
          "velocity": 0.7480314960629921,
          "duration": 0.06249993749997884
        },
        {
          "name": "C7",
          "midi": 96,
          "time": 441.15759455624504,
          "velocity": 0.7480314960629921,
          "duration": 0.06249993749997884
        },
        {
          "name": "D7",
          "midi": 98,
          "time": 441.15759455624504,
          "velocity": 0.7480314960629921,
          "duration": 0.06249993749997884
        },
        {
          "name": "D#7",
          "midi": 99,
          "time": 441.15759455624504,
          "velocity": 0.7480314960629921,
          "duration": 0.06249993749997884
        },
        {
          "name": "C4",
          "midi": 60,
          "time": 441.586165556245,
          "velocity": 0.7480314960629921,
          "duration": 0.8571420000000103
        },
        {
          "name": "D4",
          "midi": 62,
          "time": 441.586165556245,
          "velocity": 0.7480314960629921,
          "duration": 0.8571420000000103
        },
        {
          "name": "D#4",
          "midi": 63,
          "time": 441.586165556245,
          "velocity": 0.7480314960629921,
          "duration": 0.8571420000000103
        },
        {
          "name": "C5",
          "midi": 72,
          "time": 441.586165556245,
          "velocity": 0.7480314960629921,
          "duration": 0.8571420000000103
        },
        {
          "name": "D5",
          "midi": 74,
          "time": 441.586165556245,
          "velocity": 0.7480314960629921,
          "duration": 0.8571420000000103
        },
        {
          "name": "D#5",
          "midi": 75,
          "time": 441.586165556245,
          "velocity": 0.7480314960629921,
          "duration": 0.8571420000000103
        },
        {
          "name": "C6",
          "midi": 84,
          "time": 441.586165556245,
          "velocity": 0.7480314960629921,
          "duration": 0.8571420000000103
        },
        {
          "name": "D6",
          "midi": 86,
          "time": 441.586165556245,
          "velocity": 0.7480314960629921,
          "duration": 0.8571420000000103
        },
        {
          "name": "D#6",
          "midi": 87,
          "time": 441.586165556245,
          "velocity": 0.7480314960629921,
          "duration": 0.8571420000000103
        },
        {
          "name": "C7",
          "midi": 96,
          "time": 441.586165556245,
          "velocity": 0.7480314960629921,
          "duration": 0.8571420000000103
        },
        {
          "name": "D7",
          "midi": 98,
          "time": 441.586165556245,
          "velocity": 0.7480314960629921,
          "duration": 0.8571420000000103
        },
        {
          "name": "D#7",
          "midi": 99,
          "time": 441.586165556245,
          "velocity": 0.7480314960629921,
          "duration": 0.8571420000000103
        },
        {
          "name": "C#4",
          "midi": 61,
          "time": 442.44330755624503,
          "velocity": 0.7480314960629921,
          "duration": 0.8571420000000103
        },
        {
          "name": "D4",
          "midi": 62,
          "time": 442.44330755624503,
          "velocity": 0.7480314960629921,
          "duration": 0.8571420000000103
        },
        {
          "name": "C#5",
          "midi": 73,
          "time": 442.44330755624503,
          "velocity": 0.7480314960629921,
          "duration": 0.8571420000000103
        },
        {
          "name": "D5",
          "midi": 74,
          "time": 442.44330755624503,
          "velocity": 0.7480314960629921,
          "duration": 0.8571420000000103
        },
        {
          "name": "C#6",
          "midi": 85,
          "time": 442.44330755624503,
          "velocity": 0.7480314960629921,
          "duration": 0.8571420000000103
        },
        {
          "name": "D6",
          "midi": 86,
          "time": 442.44330755624503,
          "velocity": 0.7480314960629921,
          "duration": 0.8571420000000103
        },
        {
          "name": "C#7",
          "midi": 97,
          "time": 442.44330755624503,
          "velocity": 0.7480314960629921,
          "duration": 0.8571420000000103
        },
        {
          "name": "D7",
          "midi": 98,
          "time": 442.44330755624503,
          "velocity": 0.7480314960629921,
          "duration": 0.8571420000000103
        },
        {
          "name": "C#4",
          "midi": 61,
          "time": 443.30044955624504,
          "velocity": 0.7480314960629921,
          "duration": 0.4285709999999767
        },
        {
          "name": "D4",
          "midi": 62,
          "time": 443.30044955624504,
          "velocity": 0.7480314960629921,
          "duration": 0.4285709999999767
        },
        {
          "name": "C#5",
          "midi": 73,
          "time": 443.30044955624504,
          "velocity": 0.7480314960629921,
          "duration": 0.4285709999999767
        },
        {
          "name": "D5",
          "midi": 74,
          "time": 443.30044955624504,
          "velocity": 0.7480314960629921,
          "duration": 0.4285709999999767
        },
        {
          "name": "C#6",
          "midi": 85,
          "time": 443.30044955624504,
          "velocity": 0.7480314960629921,
          "duration": 0.4285709999999767
        },
        {
          "name": "D6",
          "midi": 86,
          "time": 443.30044955624504,
          "velocity": 0.7480314960629921,
          "duration": 0.4285709999999767
        },
        {
          "name": "C#7",
          "midi": 97,
          "time": 443.30044955624504,
          "velocity": 0.7480314960629921,
          "duration": 0.4285709999999767
        },
        {
          "name": "D7",
          "midi": 98,
          "time": 443.30044955624504,
          "velocity": 0.7480314960629921,
          "duration": 0.4285709999999767
        },
        {
          "name": "C#4",
          "midi": 61,
          "time": 443.729020556245,
          "velocity": 0.7480314960629921,
          "duration": 0.21428550000001678
        },
        {
          "name": "D4",
          "midi": 62,
          "time": 443.729020556245,
          "velocity": 0.7480314960629921,
          "duration": 0.21428550000001678
        },
        {
          "name": "C#5",
          "midi": 73,
          "time": 443.729020556245,
          "velocity": 0.7480314960629921,
          "duration": 0.21428550000001678
        },
        {
          "name": "D5",
          "midi": 74,
          "time": 443.729020556245,
          "velocity": 0.7480314960629921,
          "duration": 0.21428550000001678
        },
        {
          "name": "C#6",
          "midi": 85,
          "time": 443.729020556245,
          "velocity": 0.7480314960629921,
          "duration": 0.21428550000001678
        },
        {
          "name": "D6",
          "midi": 86,
          "time": 443.729020556245,
          "velocity": 0.7480314960629921,
          "duration": 0.21428550000001678
        },
        {
          "name": "C#7",
          "midi": 97,
          "time": 443.729020556245,
          "velocity": 0.7480314960629921,
          "duration": 0.21428550000001678
        },
        {
          "name": "D7",
          "midi": 98,
          "time": 443.729020556245,
          "velocity": 0.7480314960629921,
          "duration": 0.21428550000001678
        },
        {
          "name": "C#4",
          "midi": 61,
          "time": 443.94330605624504,
          "velocity": 0.7480314960629921,
          "duration": 0.21428550000001678
        },
        {
          "name": "D4",
          "midi": 62,
          "time": 443.94330605624504,
          "velocity": 0.7480314960629921,
          "duration": 0.21428550000001678
        },
        {
          "name": "C#5",
          "midi": 73,
          "time": 443.94330605624504,
          "velocity": 0.7480314960629921,
          "duration": 0.21428550000001678
        },
        {
          "name": "D5",
          "midi": 74,
          "time": 443.94330605624504,
          "velocity": 0.7480314960629921,
          "duration": 0.21428550000001678
        },
        {
          "name": "C#6",
          "midi": 85,
          "time": 443.94330605624504,
          "velocity": 0.7480314960629921,
          "duration": 0.21428550000001678
        },
        {
          "name": "D6",
          "midi": 86,
          "time": 443.94330605624504,
          "velocity": 0.7480314960629921,
          "duration": 0.21428550000001678
        },
        {
          "name": "C#7",
          "midi": 97,
          "time": 443.94330605624504,
          "velocity": 0.7480314960629921,
          "duration": 0.21428550000001678
        },
        {
          "name": "D7",
          "midi": 98,
          "time": 443.94330605624504,
          "velocity": 0.7480314960629921,
          "duration": 0.21428550000001678
        },
        {
          "name": "D#7",
          "midi": 99,
          "time": 444.15759155624505,
          "velocity": 0.7480314960629921,
          "duration": 0.06249993749997884
        },
        {
          "name": "C#7",
          "midi": 97,
          "time": 444.15759155624505,
          "velocity": 0.7480314960629921,
          "duration": 0.06249993749997884
        },
        {
          "name": "C7",
          "midi": 96,
          "time": 444.15759155624505,
          "velocity": 0.7480314960629921,
          "duration": 0.06249993749997884
        },
        {
          "name": "D#6",
          "midi": 87,
          "time": 444.15759155624505,
          "velocity": 0.7480314960629921,
          "duration": 0.06249993749997884
        },
        {
          "name": "C#6",
          "midi": 85,
          "time": 444.15759155624505,
          "velocity": 0.7480314960629921,
          "duration": 0.06249993749997884
        },
        {
          "name": "C6",
          "midi": 84,
          "time": 444.15759155624505,
          "velocity": 0.7480314960629921,
          "duration": 0.06249993749997884
        },
        {
          "name": "D#5",
          "midi": 75,
          "time": 444.15759155624505,
          "velocity": 0.7480314960629921,
          "duration": 0.06249993749997884
        },
        {
          "name": "C#5",
          "midi": 73,
          "time": 444.15759155624505,
          "velocity": 0.7480314960629921,
          "duration": 0.06249993749997884
        },
        {
          "name": "C5",
          "midi": 72,
          "time": 444.15759155624505,
          "velocity": 0.7480314960629921,
          "duration": 0.06249993749997884
        },
        {
          "name": "D#4",
          "midi": 63,
          "time": 444.15759155624505,
          "velocity": 0.7480314960629921,
          "duration": 0.06249993749997884
        },
        {
          "name": "C#4",
          "midi": 61,
          "time": 444.15759155624505,
          "velocity": 0.7480314960629921,
          "duration": 0.06249993749997884
        },
        {
          "name": "C4",
          "midi": 60,
          "time": 444.15759155624505,
          "velocity": 0.7480314960629921,
          "duration": 0.06249993749997884
        },
        {
          "name": "C4",
          "midi": 60,
          "time": 444.58616255624503,
          "velocity": 0.7480314960629921,
          "duration": 0.06249993749997884
        },
        {
          "name": "C#4",
          "midi": 61,
          "time": 444.58616255624503,
          "velocity": 0.7480314960629921,
          "duration": 0.06249993749997884
        },
        {
          "name": "D#4",
          "midi": 63,
          "time": 444.58616255624503,
          "velocity": 0.7480314960629921,
          "duration": 0.06249993749997884
        },
        {
          "name": "C5",
          "midi": 72,
          "time": 444.58616255624503,
          "velocity": 0.7480314960629921,
          "duration": 0.06249993749997884
        },
        {
          "name": "C#5",
          "midi": 73,
          "time": 444.58616255624503,
          "velocity": 0.7480314960629921,
          "duration": 0.06249993749997884
        },
        {
          "name": "D#5",
          "midi": 75,
          "time": 444.58616255624503,
          "velocity": 0.7480314960629921,
          "duration": 0.06249993749997884
        },
        {
          "name": "C6",
          "midi": 84,
          "time": 444.58616255624503,
          "velocity": 0.7480314960629921,
          "duration": 0.06249993749997884
        },
        {
          "name": "C#6",
          "midi": 85,
          "time": 444.58616255624503,
          "velocity": 0.7480314960629921,
          "duration": 0.06249993749997884
        },
        {
          "name": "D#6",
          "midi": 87,
          "time": 444.58616255624503,
          "velocity": 0.7480314960629921,
          "duration": 0.06249993749997884
        },
        {
          "name": "C7",
          "midi": 96,
          "time": 444.58616255624503,
          "velocity": 0.7480314960629921,
          "duration": 0.06249993749997884
        },
        {
          "name": "C#7",
          "midi": 97,
          "time": 444.58616255624503,
          "velocity": 0.7480314960629921,
          "duration": 0.06249993749997884
        },
        {
          "name": "D#7",
          "midi": 99,
          "time": 444.58616255624503,
          "velocity": 0.7480314960629921,
          "duration": 0.06249993749997884
        },
        {
          "name": "C4",
          "midi": 60,
          "time": 445.014733556245,
          "velocity": 0.7480314960629921,
          "duration": 0.8571420000000103
        },
        {
          "name": "C#4",
          "midi": 61,
          "time": 445.014733556245,
          "velocity": 0.7480314960629921,
          "duration": 0.8571420000000103
        },
        {
          "name": "D#4",
          "midi": 63,
          "time": 445.014733556245,
          "velocity": 0.7480314960629921,
          "duration": 0.8571420000000103
        },
        {
          "name": "C5",
          "midi": 72,
          "time": 445.014733556245,
          "velocity": 0.7480314960629921,
          "duration": 0.8571420000000103
        },
        {
          "name": "C#5",
          "midi": 73,
          "time": 445.014733556245,
          "velocity": 0.7480314960629921,
          "duration": 0.8571420000000103
        },
        {
          "name": "D#5",
          "midi": 75,
          "time": 445.014733556245,
          "velocity": 0.7480314960629921,
          "duration": 0.8571420000000103
        },
        {
          "name": "C6",
          "midi": 84,
          "time": 445.014733556245,
          "velocity": 0.7480314960629921,
          "duration": 0.8571420000000103
        },
        {
          "name": "C#6",
          "midi": 85,
          "time": 445.014733556245,
          "velocity": 0.7480314960629921,
          "duration": 0.8571420000000103
        },
        {
          "name": "D#6",
          "midi": 87,
          "time": 445.014733556245,
          "velocity": 0.7480314960629921,
          "duration": 0.8571420000000103
        },
        {
          "name": "C7",
          "midi": 96,
          "time": 445.014733556245,
          "velocity": 0.7480314960629921,
          "duration": 0.8571420000000103
        },
        {
          "name": "C#7",
          "midi": 97,
          "time": 445.014733556245,
          "velocity": 0.7480314960629921,
          "duration": 0.8571420000000103
        },
        {
          "name": "D#7",
          "midi": 99,
          "time": 445.014733556245,
          "velocity": 0.7480314960629921,
          "duration": 0.8571420000000103
        },
        {
          "name": "E7",
          "midi": 100,
          "time": 445.871875556245,
          "velocity": 0.7480314960629921,
          "duration": 0.8571420000000103
        },
        {
          "name": "D#7",
          "midi": 99,
          "time": 445.871875556245,
          "velocity": 0.7480314960629921,
          "duration": 0.8571420000000103
        },
        {
          "name": "C#7",
          "midi": 97,
          "time": 445.871875556245,
          "velocity": 0.7480314960629921,
          "duration": 0.8571420000000103
        },
        {
          "name": "E6",
          "midi": 88,
          "time": 445.871875556245,
          "velocity": 0.7480314960629921,
          "duration": 0.8571420000000103
        },
        {
          "name": "D#6",
          "midi": 87,
          "time": 445.871875556245,
          "velocity": 0.7480314960629921,
          "duration": 0.8571420000000103
        },
        {
          "name": "C#6",
          "midi": 85,
          "time": 445.871875556245,
          "velocity": 0.7480314960629921,
          "duration": 0.8571420000000103
        },
        {
          "name": "E5",
          "midi": 76,
          "time": 445.871875556245,
          "velocity": 0.7480314960629921,
          "duration": 0.8571420000000103
        },
        {
          "name": "D#5",
          "midi": 75,
          "time": 445.871875556245,
          "velocity": 0.7480314960629921,
          "duration": 0.8571420000000103
        },
        {
          "name": "C#5",
          "midi": 73,
          "time": 445.871875556245,
          "velocity": 0.7480314960629921,
          "duration": 0.8571420000000103
        },
        {
          "name": "E4",
          "midi": 64,
          "time": 445.871875556245,
          "velocity": 0.7480314960629921,
          "duration": 0.8571420000000103
        },
        {
          "name": "D#4",
          "midi": 63,
          "time": 445.871875556245,
          "velocity": 0.7480314960629921,
          "duration": 0.8571420000000103
        },
        {
          "name": "C#4",
          "midi": 61,
          "time": 445.871875556245,
          "velocity": 0.7480314960629921,
          "duration": 0.8571420000000103
        },
        {
          "name": "E7",
          "midi": 100,
          "time": 446.729017556245,
          "velocity": 0.7480314960629921,
          "duration": 0.4285709999999767
        },
        {
          "name": "D#7",
          "midi": 99,
          "time": 446.729017556245,
          "velocity": 0.7480314960629921,
          "duration": 0.4285709999999767
        },
        {
          "name": "C#7",
          "midi": 97,
          "time": 446.729017556245,
          "velocity": 0.7480314960629921,
          "duration": 0.4285709999999767
        },
        {
          "name": "E6",
          "midi": 88,
          "time": 446.729017556245,
          "velocity": 0.7480314960629921,
          "duration": 0.4285709999999767
        },
        {
          "name": "D#6",
          "midi": 87,
          "time": 446.729017556245,
          "velocity": 0.7480314960629921,
          "duration": 0.4285709999999767
        },
        {
          "name": "C#6",
          "midi": 85,
          "time": 446.729017556245,
          "velocity": 0.7480314960629921,
          "duration": 0.4285709999999767
        },
        {
          "name": "E5",
          "midi": 76,
          "time": 446.729017556245,
          "velocity": 0.7480314960629921,
          "duration": 0.4285709999999767
        },
        {
          "name": "D#5",
          "midi": 75,
          "time": 446.729017556245,
          "velocity": 0.7480314960629921,
          "duration": 0.4285709999999767
        },
        {
          "name": "C#5",
          "midi": 73,
          "time": 446.729017556245,
          "velocity": 0.7480314960629921,
          "duration": 0.4285709999999767
        },
        {
          "name": "E4",
          "midi": 64,
          "time": 446.729017556245,
          "velocity": 0.7480314960629921,
          "duration": 0.4285709999999767
        },
        {
          "name": "D#4",
          "midi": 63,
          "time": 446.729017556245,
          "velocity": 0.7480314960629921,
          "duration": 0.4285709999999767
        },
        {
          "name": "C#4",
          "midi": 61,
          "time": 446.729017556245,
          "velocity": 0.7480314960629921,
          "duration": 0.4285709999999767
        },
        {
          "name": "E7",
          "midi": 100,
          "time": 447.157588556245,
          "velocity": 0.7480314960629921,
          "duration": 0.21428550000001678
        },
        {
          "name": "D#7",
          "midi": 99,
          "time": 447.157588556245,
          "velocity": 0.7480314960629921,
          "duration": 0.21428550000001678
        },
        {
          "name": "C#7",
          "midi": 97,
          "time": 447.157588556245,
          "velocity": 0.7480314960629921,
          "duration": 0.21428550000001678
        },
        {
          "name": "E6",
          "midi": 88,
          "time": 447.157588556245,
          "velocity": 0.7480314960629921,
          "duration": 0.21428550000001678
        },
        {
          "name": "D#6",
          "midi": 87,
          "time": 447.157588556245,
          "velocity": 0.7480314960629921,
          "duration": 0.21428550000001678
        },
        {
          "name": "C#6",
          "midi": 85,
          "time": 447.157588556245,
          "velocity": 0.7480314960629921,
          "duration": 0.21428550000001678
        },
        {
          "name": "E5",
          "midi": 76,
          "time": 447.157588556245,
          "velocity": 0.7480314960629921,
          "duration": 0.21428550000001678
        },
        {
          "name": "D#5",
          "midi": 75,
          "time": 447.157588556245,
          "velocity": 0.7480314960629921,
          "duration": 0.21428550000001678
        },
        {
          "name": "C#5",
          "midi": 73,
          "time": 447.157588556245,
          "velocity": 0.7480314960629921,
          "duration": 0.21428550000001678
        },
        {
          "name": "E4",
          "midi": 64,
          "time": 447.157588556245,
          "velocity": 0.7480314960629921,
          "duration": 0.21428550000001678
        },
        {
          "name": "D#4",
          "midi": 63,
          "time": 447.157588556245,
          "velocity": 0.7480314960629921,
          "duration": 0.21428550000001678
        },
        {
          "name": "C#4",
          "midi": 61,
          "time": 447.157588556245,
          "velocity": 0.7480314960629921,
          "duration": 0.21428550000001678
        },
        {
          "name": "E7",
          "midi": 100,
          "time": 447.371874056245,
          "velocity": 0.7480314960629921,
          "duration": 0.21428550000001678
        },
        {
          "name": "D#7",
          "midi": 99,
          "time": 447.371874056245,
          "velocity": 0.7480314960629921,
          "duration": 0.21428550000001678
        },
        {
          "name": "C#7",
          "midi": 97,
          "time": 447.371874056245,
          "velocity": 0.7480314960629921,
          "duration": 0.21428550000001678
        },
        {
          "name": "E6",
          "midi": 88,
          "time": 447.371874056245,
          "velocity": 0.7480314960629921,
          "duration": 0.21428550000001678
        },
        {
          "name": "D#6",
          "midi": 87,
          "time": 447.371874056245,
          "velocity": 0.7480314960629921,
          "duration": 0.21428550000001678
        },
        {
          "name": "C#6",
          "midi": 85,
          "time": 447.371874056245,
          "velocity": 0.7480314960629921,
          "duration": 0.21428550000001678
        },
        {
          "name": "E5",
          "midi": 76,
          "time": 447.371874056245,
          "velocity": 0.7480314960629921,
          "duration": 0.21428550000001678
        },
        {
          "name": "D#5",
          "midi": 75,
          "time": 447.371874056245,
          "velocity": 0.7480314960629921,
          "duration": 0.21428550000001678
        },
        {
          "name": "C#5",
          "midi": 73,
          "time": 447.371874056245,
          "velocity": 0.7480314960629921,
          "duration": 0.21428550000001678
        },
        {
          "name": "E4",
          "midi": 64,
          "time": 447.371874056245,
          "velocity": 0.7480314960629921,
          "duration": 0.21428550000001678
        },
        {
          "name": "D#4",
          "midi": 63,
          "time": 447.371874056245,
          "velocity": 0.7480314960629921,
          "duration": 0.21428550000001678
        },
        {
          "name": "C#4",
          "midi": 61,
          "time": 447.371874056245,
          "velocity": 0.7480314960629921,
          "duration": 0.21428550000001678
        },
        {
          "name": "D#7",
          "midi": 99,
          "time": 447.58615955624504,
          "velocity": 0.7480314960629921,
          "duration": 0.06249993749997884
        },
        {
          "name": "D7",
          "midi": 98,
          "time": 447.58615955624504,
          "velocity": 0.7480314960629921,
          "duration": 0.06249993749997884
        },
        {
          "name": "C7",
          "midi": 96,
          "time": 447.58615955624504,
          "velocity": 0.7480314960629921,
          "duration": 0.06249993749997884
        },
        {
          "name": "D#6",
          "midi": 87,
          "time": 447.58615955624504,
          "velocity": 0.7480314960629921,
          "duration": 0.06249993749997884
        },
        {
          "name": "D6",
          "midi": 86,
          "time": 447.58615955624504,
          "velocity": 0.7480314960629921,
          "duration": 0.06249993749997884
        },
        {
          "name": "C6",
          "midi": 84,
          "time": 447.58615955624504,
          "velocity": 0.7480314960629921,
          "duration": 0.06249993749997884
        },
        {
          "name": "D#5",
          "midi": 75,
          "time": 447.58615955624504,
          "velocity": 0.7480314960629921,
          "duration": 0.06249993749997884
        },
        {
          "name": "D5",
          "midi": 74,
          "time": 447.58615955624504,
          "velocity": 0.7480314960629921,
          "duration": 0.06249993749997884
        },
        {
          "name": "C5",
          "midi": 72,
          "time": 447.58615955624504,
          "velocity": 0.7480314960629921,
          "duration": 0.06249993749997884
        },
        {
          "name": "D#4",
          "midi": 63,
          "time": 447.58615955624504,
          "velocity": 0.7480314960629921,
          "duration": 0.06249993749997884
        },
        {
          "name": "D4",
          "midi": 62,
          "time": 447.58615955624504,
          "velocity": 0.7480314960629921,
          "duration": 0.06249993749997884
        },
        {
          "name": "C4",
          "midi": 60,
          "time": 447.58615955624504,
          "velocity": 0.7480314960629921,
          "duration": 0.06249993749997884
        },
        {
          "name": "C4",
          "midi": 60,
          "time": 448.014730556245,
          "velocity": 0.7480314960629921,
          "duration": 0.06249993749997884
        },
        {
          "name": "D4",
          "midi": 62,
          "time": 448.014730556245,
          "velocity": 0.7480314960629921,
          "duration": 0.06249993749997884
        },
        {
          "name": "D#4",
          "midi": 63,
          "time": 448.014730556245,
          "velocity": 0.7480314960629921,
          "duration": 0.06249993749997884
        },
        {
          "name": "C5",
          "midi": 72,
          "time": 448.014730556245,
          "velocity": 0.7480314960629921,
          "duration": 0.06249993749997884
        },
        {
          "name": "D5",
          "midi": 74,
          "time": 448.014730556245,
          "velocity": 0.7480314960629921,
          "duration": 0.06249993749997884
        },
        {
          "name": "D#5",
          "midi": 75,
          "time": 448.014730556245,
          "velocity": 0.7480314960629921,
          "duration": 0.06249993749997884
        },
        {
          "name": "C6",
          "midi": 84,
          "time": 448.014730556245,
          "velocity": 0.7480314960629921,
          "duration": 0.06249993749997884
        },
        {
          "name": "D6",
          "midi": 86,
          "time": 448.014730556245,
          "velocity": 0.7480314960629921,
          "duration": 0.06249993749997884
        },
        {
          "name": "D#6",
          "midi": 87,
          "time": 448.014730556245,
          "velocity": 0.7480314960629921,
          "duration": 0.06249993749997884
        },
        {
          "name": "C7",
          "midi": 96,
          "time": 448.014730556245,
          "velocity": 0.7480314960629921,
          "duration": 0.06249993749997884
        },
        {
          "name": "D7",
          "midi": 98,
          "time": 448.014730556245,
          "velocity": 0.7480314960629921,
          "duration": 0.06249993749997884
        },
        {
          "name": "D#7",
          "midi": 99,
          "time": 448.014730556245,
          "velocity": 0.7480314960629921,
          "duration": 0.06249993749997884
        },
        {
          "name": "C4",
          "midi": 60,
          "time": 448.443301556245,
          "velocity": 0.7480314960629921,
          "duration": 0.8571420000000103
        },
        {
          "name": "D4",
          "midi": 62,
          "time": 448.443301556245,
          "velocity": 0.7480314960629921,
          "duration": 0.8571420000000103
        },
        {
          "name": "D#4",
          "midi": 63,
          "time": 448.443301556245,
          "velocity": 0.7480314960629921,
          "duration": 0.8571420000000103
        },
        {
          "name": "C5",
          "midi": 72,
          "time": 448.443301556245,
          "velocity": 0.7480314960629921,
          "duration": 0.8571420000000103
        },
        {
          "name": "D5",
          "midi": 74,
          "time": 448.443301556245,
          "velocity": 0.7480314960629921,
          "duration": 0.8571420000000103
        },
        {
          "name": "D#5",
          "midi": 75,
          "time": 448.443301556245,
          "velocity": 0.7480314960629921,
          "duration": 0.8571420000000103
        },
        {
          "name": "C6",
          "midi": 84,
          "time": 448.443301556245,
          "velocity": 0.7480314960629921,
          "duration": 0.8571420000000103
        },
        {
          "name": "D6",
          "midi": 86,
          "time": 448.443301556245,
          "velocity": 0.7480314960629921,
          "duration": 0.8571420000000103
        },
        {
          "name": "D#6",
          "midi": 87,
          "time": 448.443301556245,
          "velocity": 0.7480314960629921,
          "duration": 0.8571420000000103
        },
        {
          "name": "C7",
          "midi": 96,
          "time": 448.443301556245,
          "velocity": 0.7480314960629921,
          "duration": 0.8571420000000103
        },
        {
          "name": "D7",
          "midi": 98,
          "time": 448.443301556245,
          "velocity": 0.7480314960629921,
          "duration": 0.8571420000000103
        },
        {
          "name": "D#7",
          "midi": 99,
          "time": 448.443301556245,
          "velocity": 0.7480314960629921,
          "duration": 0.8571420000000103
        },
        {
          "name": "C#4",
          "midi": 61,
          "time": 449.300443556245,
          "velocity": 0.7480314960629921,
          "duration": 0.8571420000000103
        },
        {
          "name": "D4",
          "midi": 62,
          "time": 449.300443556245,
          "velocity": 0.7480314960629921,
          "duration": 0.8571420000000103
        },
        {
          "name": "C#5",
          "midi": 73,
          "time": 449.300443556245,
          "velocity": 0.7480314960629921,
          "duration": 0.8571420000000103
        },
        {
          "name": "D5",
          "midi": 74,
          "time": 449.300443556245,
          "velocity": 0.7480314960629921,
          "duration": 0.8571420000000103
        },
        {
          "name": "C#6",
          "midi": 85,
          "time": 449.300443556245,
          "velocity": 0.7480314960629921,
          "duration": 0.8571420000000103
        },
        {
          "name": "D6",
          "midi": 86,
          "time": 449.300443556245,
          "velocity": 0.7480314960629921,
          "duration": 0.8571420000000103
        },
        {
          "name": "C#7",
          "midi": 97,
          "time": 449.300443556245,
          "velocity": 0.7480314960629921,
          "duration": 0.8571420000000103
        },
        {
          "name": "D7",
          "midi": 98,
          "time": 449.300443556245,
          "velocity": 0.7480314960629921,
          "duration": 0.8571420000000103
        },
        {
          "name": "C#4",
          "midi": 61,
          "time": 450.157585556245,
          "velocity": 0.7480314960629921,
          "duration": 0.4285709999999767
        },
        {
          "name": "D4",
          "midi": 62,
          "time": 450.157585556245,
          "velocity": 0.7480314960629921,
          "duration": 0.4285709999999767
        },
        {
          "name": "C#5",
          "midi": 73,
          "time": 450.157585556245,
          "velocity": 0.7480314960629921,
          "duration": 0.4285709999999767
        },
        {
          "name": "D5",
          "midi": 74,
          "time": 450.157585556245,
          "velocity": 0.7480314960629921,
          "duration": 0.4285709999999767
        },
        {
          "name": "C#6",
          "midi": 85,
          "time": 450.157585556245,
          "velocity": 0.7480314960629921,
          "duration": 0.4285709999999767
        },
        {
          "name": "D6",
          "midi": 86,
          "time": 450.157585556245,
          "velocity": 0.7480314960629921,
          "duration": 0.4285709999999767
        },
        {
          "name": "C#7",
          "midi": 97,
          "time": 450.157585556245,
          "velocity": 0.7480314960629921,
          "duration": 0.4285709999999767
        },
        {
          "name": "D7",
          "midi": 98,
          "time": 450.157585556245,
          "velocity": 0.7480314960629921,
          "duration": 0.4285709999999767
        },
        {
          "name": "C#4",
          "midi": 61,
          "time": 450.586156556245,
          "velocity": 0.7480314960629921,
          "duration": 0.21428550000001678
        },
        {
          "name": "D4",
          "midi": 62,
          "time": 450.586156556245,
          "velocity": 0.7480314960629921,
          "duration": 0.21428550000001678
        },
        {
          "name": "C#5",
          "midi": 73,
          "time": 450.586156556245,
          "velocity": 0.7480314960629921,
          "duration": 0.21428550000001678
        },
        {
          "name": "D5",
          "midi": 74,
          "time": 450.586156556245,
          "velocity": 0.7480314960629921,
          "duration": 0.21428550000001678
        },
        {
          "name": "C#6",
          "midi": 85,
          "time": 450.586156556245,
          "velocity": 0.7480314960629921,
          "duration": 0.21428550000001678
        },
        {
          "name": "D6",
          "midi": 86,
          "time": 450.586156556245,
          "velocity": 0.7480314960629921,
          "duration": 0.21428550000001678
        },
        {
          "name": "C#7",
          "midi": 97,
          "time": 450.586156556245,
          "velocity": 0.7480314960629921,
          "duration": 0.21428550000001678
        },
        {
          "name": "D7",
          "midi": 98,
          "time": 450.586156556245,
          "velocity": 0.7480314960629921,
          "duration": 0.21428550000001678
        },
        {
          "name": "C#4",
          "midi": 61,
          "time": 450.800442056245,
          "velocity": 0.7480314960629921,
          "duration": 0.21428550000001678
        },
        {
          "name": "D4",
          "midi": 62,
          "time": 450.800442056245,
          "velocity": 0.7480314960629921,
          "duration": 0.21428550000001678
        },
        {
          "name": "C#5",
          "midi": 73,
          "time": 450.800442056245,
          "velocity": 0.7480314960629921,
          "duration": 0.21428550000001678
        },
        {
          "name": "D5",
          "midi": 74,
          "time": 450.800442056245,
          "velocity": 0.7480314960629921,
          "duration": 0.21428550000001678
        },
        {
          "name": "C#6",
          "midi": 85,
          "time": 450.800442056245,
          "velocity": 0.7480314960629921,
          "duration": 0.21428550000001678
        },
        {
          "name": "D6",
          "midi": 86,
          "time": 450.800442056245,
          "velocity": 0.7480314960629921,
          "duration": 0.21428550000001678
        },
        {
          "name": "C#7",
          "midi": 97,
          "time": 450.800442056245,
          "velocity": 0.7480314960629921,
          "duration": 0.21428550000001678
        },
        {
          "name": "D7",
          "midi": 98,
          "time": 450.800442056245,
          "velocity": 0.7480314960629921,
          "duration": 0.21428550000001678
        },
        {
          "name": "D#7",
          "midi": 99,
          "time": 451.014727556245,
          "velocity": 0.7480314960629921,
          "duration": 0.06249993749997884
        },
        {
          "name": "C#7",
          "midi": 97,
          "time": 451.014727556245,
          "velocity": 0.7480314960629921,
          "duration": 0.06249993749997884
        },
        {
          "name": "C7",
          "midi": 96,
          "time": 451.014727556245,
          "velocity": 0.7480314960629921,
          "duration": 0.06249993749997884
        },
        {
          "name": "D#6",
          "midi": 87,
          "time": 451.014727556245,
          "velocity": 0.7480314960629921,
          "duration": 0.06249993749997884
        },
        {
          "name": "C#6",
          "midi": 85,
          "time": 451.014727556245,
          "velocity": 0.7480314960629921,
          "duration": 0.06249993749997884
        },
        {
          "name": "C6",
          "midi": 84,
          "time": 451.014727556245,
          "velocity": 0.7480314960629921,
          "duration": 0.06249993749997884
        },
        {
          "name": "D#5",
          "midi": 75,
          "time": 451.014727556245,
          "velocity": 0.7480314960629921,
          "duration": 0.06249993749997884
        },
        {
          "name": "C#5",
          "midi": 73,
          "time": 451.014727556245,
          "velocity": 0.7480314960629921,
          "duration": 0.06249993749997884
        },
        {
          "name": "C5",
          "midi": 72,
          "time": 451.014727556245,
          "velocity": 0.7480314960629921,
          "duration": 0.06249993749997884
        },
        {
          "name": "D#4",
          "midi": 63,
          "time": 451.014727556245,
          "velocity": 0.7480314960629921,
          "duration": 0.06249993749997884
        },
        {
          "name": "C#4",
          "midi": 61,
          "time": 451.014727556245,
          "velocity": 0.7480314960629921,
          "duration": 0.06249993749997884
        },
        {
          "name": "C4",
          "midi": 60,
          "time": 451.014727556245,
          "velocity": 0.7480314960629921,
          "duration": 0.06249993749997884
        },
        {
          "name": "C4",
          "midi": 60,
          "time": 451.443298556245,
          "velocity": 0.7480314960629921,
          "duration": 0.06249993749997884
        },
        {
          "name": "C#4",
          "midi": 61,
          "time": 451.443298556245,
          "velocity": 0.7480314960629921,
          "duration": 0.06249993749997884
        },
        {
          "name": "D#4",
          "midi": 63,
          "time": 451.443298556245,
          "velocity": 0.7480314960629921,
          "duration": 0.06249993749997884
        },
        {
          "name": "C5",
          "midi": 72,
          "time": 451.443298556245,
          "velocity": 0.7480314960629921,
          "duration": 0.06249993749997884
        },
        {
          "name": "C#5",
          "midi": 73,
          "time": 451.443298556245,
          "velocity": 0.7480314960629921,
          "duration": 0.06249993749997884
        },
        {
          "name": "D#5",
          "midi": 75,
          "time": 451.443298556245,
          "velocity": 0.7480314960629921,
          "duration": 0.06249993749997884
        },
        {
          "name": "C6",
          "midi": 84,
          "time": 451.443298556245,
          "velocity": 0.7480314960629921,
          "duration": 0.06249993749997884
        },
        {
          "name": "C#6",
          "midi": 85,
          "time": 451.443298556245,
          "velocity": 0.7480314960629921,
          "duration": 0.06249993749997884
        },
        {
          "name": "D#6",
          "midi": 87,
          "time": 451.443298556245,
          "velocity": 0.7480314960629921,
          "duration": 0.06249993749997884
        },
        {
          "name": "C7",
          "midi": 96,
          "time": 451.443298556245,
          "velocity": 0.7480314960629921,
          "duration": 0.06249993749997884
        },
        {
          "name": "C#7",
          "midi": 97,
          "time": 451.443298556245,
          "velocity": 0.7480314960629921,
          "duration": 0.06249993749997884
        },
        {
          "name": "D#7",
          "midi": 99,
          "time": 451.443298556245,
          "velocity": 0.7480314960629921,
          "duration": 0.06249993749997884
        },
        {
          "name": "C4",
          "midi": 60,
          "time": 451.871869556245,
          "velocity": 0.7480314960629921,
          "duration": 0.8571420000000103
        },
        {
          "name": "C#4",
          "midi": 61,
          "time": 451.871869556245,
          "velocity": 0.7480314960629921,
          "duration": 0.8571420000000103
        },
        {
          "name": "D#4",
          "midi": 63,
          "time": 451.871869556245,
          "velocity": 0.7480314960629921,
          "duration": 0.8571420000000103
        },
        {
          "name": "C5",
          "midi": 72,
          "time": 451.871869556245,
          "velocity": 0.7480314960629921,
          "duration": 0.8571420000000103
        },
        {
          "name": "C#5",
          "midi": 73,
          "time": 451.871869556245,
          "velocity": 0.7480314960629921,
          "duration": 0.8571420000000103
        },
        {
          "name": "D#5",
          "midi": 75,
          "time": 451.871869556245,
          "velocity": 0.7480314960629921,
          "duration": 0.8571420000000103
        },
        {
          "name": "C6",
          "midi": 84,
          "time": 451.871869556245,
          "velocity": 0.7480314960629921,
          "duration": 0.8571420000000103
        },
        {
          "name": "C#6",
          "midi": 85,
          "time": 451.871869556245,
          "velocity": 0.7480314960629921,
          "duration": 0.8571420000000103
        },
        {
          "name": "D#6",
          "midi": 87,
          "time": 451.871869556245,
          "velocity": 0.7480314960629921,
          "duration": 0.8571420000000103
        },
        {
          "name": "C7",
          "midi": 96,
          "time": 451.871869556245,
          "velocity": 0.7480314960629921,
          "duration": 0.8571420000000103
        },
        {
          "name": "C#7",
          "midi": 97,
          "time": 451.871869556245,
          "velocity": 0.7480314960629921,
          "duration": 0.8571420000000103
        },
        {
          "name": "D#7",
          "midi": 99,
          "time": 451.871869556245,
          "velocity": 0.7480314960629921,
          "duration": 0.8571420000000103
        },
        {
          "name": "C4",
          "midi": 60,
          "time": 479.99951999999496,
          "velocity": 0.7480314960629921,
          "duration": 0.4285709999999767
        },
        {
          "name": "C5",
          "midi": 72,
          "time": 479.99951999999496,
          "velocity": 0.7480314960629921,
          "duration": 0.4285709999999767
        },
        {
          "name": "C6",
          "midi": 84,
          "time": 479.99951999999496,
          "velocity": 0.7480314960629921,
          "duration": 0.4285709999999767
        },
        {
          "name": "C7",
          "midi": 96,
          "time": 479.99951999999496,
          "velocity": 0.7480314960629921,
          "duration": 0.4285709999999767
        },
        {
          "name": "C#4",
          "midi": 61,
          "time": 480.42809099999494,
          "velocity": 0.7480314960629921,
          "duration": 0.4285709999999767
        },
        {
          "name": "C#5",
          "midi": 73,
          "time": 480.42809099999494,
          "velocity": 0.7480314960629921,
          "duration": 0.4285709999999767
        },
        {
          "name": "C#6",
          "midi": 85,
          "time": 480.42809099999494,
          "velocity": 0.7480314960629921,
          "duration": 0.4285709999999767
        },
        {
          "name": "C#7",
          "midi": 97,
          "time": 480.42809099999494,
          "velocity": 0.7480314960629921,
          "duration": 0.4285709999999767
        },
        {
          "name": "D#4",
          "midi": 63,
          "time": 480.8566619999949,
          "velocity": 0.7480314960629921,
          "duration": 0.4285709999999767
        },
        {
          "name": "D#5",
          "midi": 75,
          "time": 480.8566619999949,
          "velocity": 0.7480314960629921,
          "duration": 0.4285709999999767
        },
        {
          "name": "D#6",
          "midi": 87,
          "time": 480.8566619999949,
          "velocity": 0.7480314960629921,
          "duration": 0.4285709999999767
        },
        {
          "name": "D#7",
          "midi": 99,
          "time": 480.8566619999949,
          "velocity": 0.7480314960629921,
          "duration": 0.4285709999999767
        },
        {
          "name": "E4",
          "midi": 64,
          "time": 481.2852329999949,
          "velocity": 0.7480314960629921,
          "duration": 0.4285709999999767
        },
        {
          "name": "E5",
          "midi": 76,
          "time": 481.2852329999949,
          "velocity": 0.7480314960629921,
          "duration": 0.4285709999999767
        },
        {
          "name": "E6",
          "midi": 88,
          "time": 481.2852329999949,
          "velocity": 0.7480314960629921,
          "duration": 0.4285709999999767
        },
        {
          "name": "E7",
          "midi": 100,
          "time": 481.2852329999949,
          "velocity": 0.7480314960629921,
          "duration": 0.4285709999999767
        },
        {
          "name": "C#4",
          "midi": 61,
          "time": 481.71380399999487,
          "velocity": 0.7480314960629921,
          "duration": 0.21428550000001678
        },
        {
          "name": "C#5",
          "midi": 73,
          "time": 481.71380399999487,
          "velocity": 0.7480314960629921,
          "duration": 0.21428550000001678
        },
        {
          "name": "C#6",
          "midi": 85,
          "time": 481.71380399999487,
          "velocity": 0.7480314960629921,
          "duration": 0.21428550000001678
        },
        {
          "name": "C#7",
          "midi": 97,
          "time": 481.71380399999487,
          "velocity": 0.7480314960629921,
          "duration": 0.21428550000001678
        },
        {
          "name": "D4",
          "midi": 62,
          "time": 481.9280894999949,
          "velocity": 0.7480314960629921,
          "duration": 0.21428550000001678
        },
        {
          "name": "D5",
          "midi": 74,
          "time": 481.9280894999949,
          "velocity": 0.7480314960629921,
          "duration": 0.21428550000001678
        },
        {
          "name": "D6",
          "midi": 86,
          "time": 481.9280894999949,
          "velocity": 0.7480314960629921,
          "duration": 0.21428550000001678
        },
        {
          "name": "D7",
          "midi": 98,
          "time": 481.9280894999949,
          "velocity": 0.7480314960629921,
          "duration": 0.21428550000001678
        },
        {
          "name": "C#4",
          "midi": 61,
          "time": 482.1423749999949,
          "velocity": 0.7480314960629921,
          "duration": 0.4285709999999767
        },
        {
          "name": "C#5",
          "midi": 73,
          "time": 482.1423749999949,
          "velocity": 0.7480314960629921,
          "duration": 0.4285709999999767
        },
        {
          "name": "C#6",
          "midi": 85,
          "time": 482.1423749999949,
          "velocity": 0.7480314960629921,
          "duration": 0.4285709999999767
        },
        {
          "name": "C#7",
          "midi": 97,
          "time": 482.1423749999949,
          "velocity": 0.7480314960629921,
          "duration": 0.4285709999999767
        },
        {
          "name": "E4",
          "midi": 64,
          "time": 482.5709459999949,
          "velocity": 0.7480314960629921,
          "duration": 0.4285709999999767
        },
        {
          "name": "E5",
          "midi": 76,
          "time": 482.5709459999949,
          "velocity": 0.7480314960629921,
          "duration": 0.4285709999999767
        },
        {
          "name": "E6",
          "midi": 88,
          "time": 482.5709459999949,
          "velocity": 0.7480314960629921,
          "duration": 0.4285709999999767
        },
        {
          "name": "E7",
          "midi": 100,
          "time": 482.5709459999949,
          "velocity": 0.7480314960629921,
          "duration": 0.4285709999999767
        },
        {
          "name": "D4",
          "midi": 62,
          "time": 482.99951699999485,
          "velocity": 0.7480314960629921,
          "duration": 0.4285709999999767
        },
        {
          "name": "D5",
          "midi": 74,
          "time": 482.99951699999485,
          "velocity": 0.7480314960629921,
          "duration": 0.4285709999999767
        },
        {
          "name": "D6",
          "midi": 86,
          "time": 482.99951699999485,
          "velocity": 0.7480314960629921,
          "duration": 0.4285709999999767
        },
        {
          "name": "D7",
          "midi": 98,
          "time": 482.99951699999485,
          "velocity": 0.7480314960629921,
          "duration": 0.4285709999999767
        },
        {
          "name": "C#4",
          "midi": 61,
          "time": 483.42808799999483,
          "velocity": 0.7480314960629921,
          "duration": 0.4285709999999767
        },
        {
          "name": "C#5",
          "midi": 73,
          "time": 483.42808799999483,
          "velocity": 0.7480314960629921,
          "duration": 0.4285709999999767
        },
        {
          "name": "C#6",
          "midi": 85,
          "time": 483.42808799999483,
          "velocity": 0.7480314960629921,
          "duration": 0.4285709999999767
        },
        {
          "name": "C#7",
          "midi": 97,
          "time": 483.42808799999483,
          "velocity": 0.7480314960629921,
          "duration": 0.4285709999999767
        },
        {
          "name": "D#4",
          "midi": 63,
          "time": 483.8566589999948,
          "velocity": 0.7480314960629921,
          "duration": 0.4285709999999767
        },
        {
          "name": "D#5",
          "midi": 75,
          "time": 483.8566589999948,
          "velocity": 0.7480314960629921,
          "duration": 0.4285709999999767
        },
        {
          "name": "D#6",
          "midi": 87,
          "time": 483.8566589999948,
          "velocity": 0.7480314960629921,
          "duration": 0.4285709999999767
        },
        {
          "name": "D#7",
          "midi": 99,
          "time": 483.8566589999948,
          "velocity": 0.7480314960629921,
          "duration": 0.4285709999999767
        },
        {
          "name": "E4",
          "midi": 64,
          "time": 484.2852299999948,
          "velocity": 0.7480314960629921,
          "duration": 0.4285709999999767
        },
        {
          "name": "E5",
          "midi": 76,
          "time": 484.2852299999948,
          "velocity": 0.7480314960629921,
          "duration": 0.4285709999999767
        },
        {
          "name": "E6",
          "midi": 88,
          "time": 484.2852299999948,
          "velocity": 0.7480314960629921,
          "duration": 0.4285709999999767
        },
        {
          "name": "E7",
          "midi": 100,
          "time": 484.2852299999948,
          "velocity": 0.7480314960629921,
          "duration": 0.4285709999999767
        },
        {
          "name": "D#4",
          "midi": 63,
          "time": 484.71380099999476,
          "velocity": 0.7480314960629921,
          "duration": 0.4285709999999767
        },
        {
          "name": "D#5",
          "midi": 75,
          "time": 484.71380099999476,
          "velocity": 0.7480314960629921,
          "duration": 0.4285709999999767
        },
        {
          "name": "D#6",
          "midi": 87,
          "time": 484.71380099999476,
          "velocity": 0.7480314960629921,
          "duration": 0.4285709999999767
        },
        {
          "name": "D#7",
          "midi": 99,
          "time": 484.71380099999476,
          "velocity": 0.7480314960629921,
          "duration": 0.4285709999999767
        },
        {
          "name": "D4",
          "midi": 62,
          "time": 485.14237199999474,
          "velocity": 0.7480314960629921,
          "duration": 0.21428550000001678
        },
        {
          "name": "D5",
          "midi": 74,
          "time": 485.14237199999474,
          "velocity": 0.7480314960629921,
          "duration": 0.21428550000001678
        },
        {
          "name": "D6",
          "midi": 86,
          "time": 485.14237199999474,
          "velocity": 0.7480314960629921,
          "duration": 0.21428550000001678
        },
        {
          "name": "D7",
          "midi": 98,
          "time": 485.14237199999474,
          "velocity": 0.7480314960629921,
          "duration": 0.21428550000001678
        },
        {
          "name": "D#4",
          "midi": 63,
          "time": 485.35665749999475,
          "velocity": 0.7480314960629921,
          "duration": 0.21428550000001678
        },
        {
          "name": "D#5",
          "midi": 75,
          "time": 485.35665749999475,
          "velocity": 0.7480314960629921,
          "duration": 0.21428550000001678
        },
        {
          "name": "D#6",
          "midi": 87,
          "time": 485.35665749999475,
          "velocity": 0.7480314960629921,
          "duration": 0.21428550000001678
        },
        {
          "name": "D#7",
          "midi": 99,
          "time": 485.35665749999475,
          "velocity": 0.7480314960629921,
          "duration": 0.21428550000001678
        },
        {
          "name": "D4",
          "midi": 62,
          "time": 485.57094299999477,
          "velocity": 0.7480314960629921,
          "duration": 0.4285709999999767
        },
        {
          "name": "D5",
          "midi": 74,
          "time": 485.57094299999477,
          "velocity": 0.7480314960629921,
          "duration": 0.4285709999999767
        },
        {
          "name": "D6",
          "midi": 86,
          "time": 485.57094299999477,
          "velocity": 0.7480314960629921,
          "duration": 0.4285709999999767
        },
        {
          "name": "D7",
          "midi": 98,
          "time": 485.57094299999477,
          "velocity": 0.7480314960629921,
          "duration": 0.4285709999999767
        },
        {
          "name": "D#4",
          "midi": 63,
          "time": 485.99951399999475,
          "velocity": 0.7480314960629921,
          "duration": 0.4285709999999767
        },
        {
          "name": "D#5",
          "midi": 75,
          "time": 485.99951399999475,
          "velocity": 0.7480314960629921,
          "duration": 0.4285709999999767
        },
        {
          "name": "D#6",
          "midi": 87,
          "time": 485.99951399999475,
          "velocity": 0.7480314960629921,
          "duration": 0.4285709999999767
        },
        {
          "name": "D#7",
          "midi": 99,
          "time": 485.99951399999475,
          "velocity": 0.7480314960629921,
          "duration": 0.4285709999999767
        },
        {
          "name": "E4",
          "midi": 64,
          "time": 486.4280849999947,
          "velocity": 0.7480314960629921,
          "duration": 0.4285709999999767
        },
        {
          "name": "E5",
          "midi": 76,
          "time": 486.4280849999947,
          "velocity": 0.7480314960629921,
          "duration": 0.4285709999999767
        },
        {
          "name": "E6",
          "midi": 88,
          "time": 486.4280849999947,
          "velocity": 0.7480314960629921,
          "duration": 0.4285709999999767
        },
        {
          "name": "E7",
          "midi": 100,
          "time": 486.4280849999947,
          "velocity": 0.7480314960629921,
          "duration": 0.4285709999999767
        },
        {
          "name": "C4",
          "midi": 60,
          "time": 486.8566559999947,
          "velocity": 0.7480314960629921,
          "duration": 0.4285709999999767
        },
        {
          "name": "C5",
          "midi": 72,
          "time": 486.8566559999947,
          "velocity": 0.7480314960629921,
          "duration": 0.4285709999999767
        },
        {
          "name": "C6",
          "midi": 84,
          "time": 486.8566559999947,
          "velocity": 0.7480314960629921,
          "duration": 0.4285709999999767
        },
        {
          "name": "C7",
          "midi": 96,
          "time": 486.8566559999947,
          "velocity": 0.7480314960629921,
          "duration": 0.4285709999999767
        },
        {
          "name": "C#4",
          "midi": 61,
          "time": 487.2852269999947,
          "velocity": 0.7480314960629921,
          "duration": 0.4285709999999767
        },
        {
          "name": "C#5",
          "midi": 73,
          "time": 487.2852269999947,
          "velocity": 0.7480314960629921,
          "duration": 0.4285709999999767
        },
        {
          "name": "C#6",
          "midi": 85,
          "time": 487.2852269999947,
          "velocity": 0.7480314960629921,
          "duration": 0.4285709999999767
        },
        {
          "name": "C#7",
          "midi": 97,
          "time": 487.2852269999947,
          "velocity": 0.7480314960629921,
          "duration": 0.4285709999999767
        },
        {
          "name": "D#4",
          "midi": 63,
          "time": 487.71379799999465,
          "velocity": 0.7480314960629921,
          "duration": 0.4285709999999767
        },
        {
          "name": "D#5",
          "midi": 75,
          "time": 487.71379799999465,
          "velocity": 0.7480314960629921,
          "duration": 0.4285709999999767
        },
        {
          "name": "D#6",
          "midi": 87,
          "time": 487.71379799999465,
          "velocity": 0.7480314960629921,
          "duration": 0.4285709999999767
        },
        {
          "name": "D#7",
          "midi": 99,
          "time": 487.71379799999465,
          "velocity": 0.7480314960629921,
          "duration": 0.4285709999999767
        },
        {
          "name": "E4",
          "midi": 64,
          "time": 488.14236899999463,
          "velocity": 0.7480314960629921,
          "duration": 0.4285709999999767
        },
        {
          "name": "E5",
          "midi": 76,
          "time": 488.14236899999463,
          "velocity": 0.7480314960629921,
          "duration": 0.4285709999999767
        },
        {
          "name": "E6",
          "midi": 88,
          "time": 488.14236899999463,
          "velocity": 0.7480314960629921,
          "duration": 0.4285709999999767
        },
        {
          "name": "E7",
          "midi": 100,
          "time": 488.14236899999463,
          "velocity": 0.7480314960629921,
          "duration": 0.4285709999999767
        },
        {
          "name": "C#4",
          "midi": 61,
          "time": 488.5709399999946,
          "velocity": 0.7480314960629921,
          "duration": 0.21428550000001678
        },
        {
          "name": "C#5",
          "midi": 73,
          "time": 488.5709399999946,
          "velocity": 0.7480314960629921,
          "duration": 0.21428550000001678
        },
        {
          "name": "C#6",
          "midi": 85,
          "time": 488.5709399999946,
          "velocity": 0.7480314960629921,
          "duration": 0.21428550000001678
        },
        {
          "name": "C#7",
          "midi": 97,
          "time": 488.5709399999946,
          "velocity": 0.7480314960629921,
          "duration": 0.21428550000001678
        },
        {
          "name": "D4",
          "midi": 62,
          "time": 488.7852254999946,
          "velocity": 0.7480314960629921,
          "duration": 0.21428550000001678
        },
        {
          "name": "D5",
          "midi": 74,
          "time": 488.7852254999946,
          "velocity": 0.7480314960629921,
          "duration": 0.21428550000001678
        },
        {
          "name": "D6",
          "midi": 86,
          "time": 488.7852254999946,
          "velocity": 0.7480314960629921,
          "duration": 0.21428550000001678
        },
        {
          "name": "D7",
          "midi": 98,
          "time": 488.7852254999946,
          "velocity": 0.7480314960629921,
          "duration": 0.21428550000001678
        },
        {
          "name": "C#4",
          "midi": 61,
          "time": 488.99951099999464,
          "velocity": 0.7480314960629921,
          "duration": 0.4285709999999767
        },
        {
          "name": "C#5",
          "midi": 73,
          "time": 488.99951099999464,
          "velocity": 0.7480314960629921,
          "duration": 0.4285709999999767
        },
        {
          "name": "C#6",
          "midi": 85,
          "time": 488.99951099999464,
          "velocity": 0.7480314960629921,
          "duration": 0.4285709999999767
        },
        {
          "name": "C#7",
          "midi": 97,
          "time": 488.99951099999464,
          "velocity": 0.7480314960629921,
          "duration": 0.4285709999999767
        },
        {
          "name": "E4",
          "midi": 64,
          "time": 489.4280819999946,
          "velocity": 0.7480314960629921,
          "duration": 0.4285709999999767
        },
        {
          "name": "E5",
          "midi": 76,
          "time": 489.4280819999946,
          "velocity": 0.7480314960629921,
          "duration": 0.4285709999999767
        },
        {
          "name": "E6",
          "midi": 88,
          "time": 489.4280819999946,
          "velocity": 0.7480314960629921,
          "duration": 0.4285709999999767
        },
        {
          "name": "E7",
          "midi": 100,
          "time": 489.4280819999946,
          "velocity": 0.7480314960629921,
          "duration": 0.4285709999999767
        },
        {
          "name": "D4",
          "midi": 62,
          "time": 489.8566529999946,
          "velocity": 0.7480314960629921,
          "duration": 0.4285709999999767
        },
        {
          "name": "D5",
          "midi": 74,
          "time": 489.8566529999946,
          "velocity": 0.7480314960629921,
          "duration": 0.4285709999999767
        },
        {
          "name": "D6",
          "midi": 86,
          "time": 489.8566529999946,
          "velocity": 0.7480314960629921,
          "duration": 0.4285709999999767
        },
        {
          "name": "D7",
          "midi": 98,
          "time": 489.8566529999946,
          "velocity": 0.7480314960629921,
          "duration": 0.4285709999999767
        },
        {
          "name": "C#4",
          "midi": 61,
          "time": 490.28522399999457,
          "velocity": 0.7480314960629921,
          "duration": 0.4285709999999767
        },
        {
          "name": "C#5",
          "midi": 73,
          "time": 490.28522399999457,
          "velocity": 0.7480314960629921,
          "duration": 0.4285709999999767
        },
        {
          "name": "C#6",
          "midi": 85,
          "time": 490.28522399999457,
          "velocity": 0.7480314960629921,
          "duration": 0.4285709999999767
        },
        {
          "name": "C#7",
          "midi": 97,
          "time": 490.28522399999457,
          "velocity": 0.7480314960629921,
          "duration": 0.4285709999999767
        },
        {
          "name": "D#4",
          "midi": 63,
          "time": 490.71379499999455,
          "velocity": 0.7480314960629921,
          "duration": 0.4285709999999767
        },
        {
          "name": "D#5",
          "midi": 75,
          "time": 490.71379499999455,
          "velocity": 0.7480314960629921,
          "duration": 0.4285709999999767
        },
        {
          "name": "D#6",
          "midi": 87,
          "time": 490.71379499999455,
          "velocity": 0.7480314960629921,
          "duration": 0.4285709999999767
        },
        {
          "name": "D#7",
          "midi": 99,
          "time": 490.71379499999455,
          "velocity": 0.7480314960629921,
          "duration": 0.4285709999999767
        },
        {
          "name": "E4",
          "midi": 64,
          "time": 491.1423659999945,
          "velocity": 0.7480314960629921,
          "duration": 0.4285709999999767
        },
        {
          "name": "E5",
          "midi": 76,
          "time": 491.1423659999945,
          "velocity": 0.7480314960629921,
          "duration": 0.4285709999999767
        },
        {
          "name": "E6",
          "midi": 88,
          "time": 491.1423659999945,
          "velocity": 0.7480314960629921,
          "duration": 0.4285709999999767
        },
        {
          "name": "E7",
          "midi": 100,
          "time": 491.1423659999945,
          "velocity": 0.7480314960629921,
          "duration": 0.4285709999999767
        },
        {
          "name": "D#4",
          "midi": 63,
          "time": 491.5709369999945,
          "velocity": 0.7480314960629921,
          "duration": 0.4285709999999767
        },
        {
          "name": "D#5",
          "midi": 75,
          "time": 491.5709369999945,
          "velocity": 0.7480314960629921,
          "duration": 0.4285709999999767
        },
        {
          "name": "D#6",
          "midi": 87,
          "time": 491.5709369999945,
          "velocity": 0.7480314960629921,
          "duration": 0.4285709999999767
        },
        {
          "name": "D#7",
          "midi": 99,
          "time": 491.5709369999945,
          "velocity": 0.7480314960629921,
          "duration": 0.4285709999999767
        },
        {
          "name": "D4",
          "midi": 62,
          "time": 491.9995079999945,
          "velocity": 0.7480314960629921,
          "duration": 0.21428550000001678
        },
        {
          "name": "D5",
          "midi": 74,
          "time": 491.9995079999945,
          "velocity": 0.7480314960629921,
          "duration": 0.21428550000001678
        },
        {
          "name": "D6",
          "midi": 86,
          "time": 491.9995079999945,
          "velocity": 0.7480314960629921,
          "duration": 0.21428550000001678
        },
        {
          "name": "D7",
          "midi": 98,
          "time": 491.9995079999945,
          "velocity": 0.7480314960629921,
          "duration": 0.21428550000001678
        },
        {
          "name": "D#4",
          "midi": 63,
          "time": 492.2137934999945,
          "velocity": 0.7480314960629921,
          "duration": 0.21428550000001678
        },
        {
          "name": "D#5",
          "midi": 75,
          "time": 492.2137934999945,
          "velocity": 0.7480314960629921,
          "duration": 0.21428550000001678
        },
        {
          "name": "D#6",
          "midi": 87,
          "time": 492.2137934999945,
          "velocity": 0.7480314960629921,
          "duration": 0.21428550000001678
        },
        {
          "name": "D#7",
          "midi": 99,
          "time": 492.2137934999945,
          "velocity": 0.7480314960629921,
          "duration": 0.21428550000001678
        },
        {
          "name": "D4",
          "midi": 62,
          "time": 492.4280789999945,
          "velocity": 0.7480314960629921,
          "duration": 0.4285709999999767
        },
        {
          "name": "D5",
          "midi": 74,
          "time": 492.4280789999945,
          "velocity": 0.7480314960629921,
          "duration": 0.4285709999999767
        },
        {
          "name": "D6",
          "midi": 86,
          "time": 492.4280789999945,
          "velocity": 0.7480314960629921,
          "duration": 0.4285709999999767
        },
        {
          "name": "D7",
          "midi": 98,
          "time": 492.4280789999945,
          "velocity": 0.7480314960629921,
          "duration": 0.4285709999999767
        },
        {
          "name": "D#4",
          "midi": 63,
          "time": 492.8566499999945,
          "velocity": 0.7480314960629921,
          "duration": 0.4285709999999767
        },
        {
          "name": "D#5",
          "midi": 75,
          "time": 492.8566499999945,
          "velocity": 0.7480314960629921,
          "duration": 0.4285709999999767
        },
        {
          "name": "D#6",
          "midi": 87,
          "time": 492.8566499999945,
          "velocity": 0.7480314960629921,
          "duration": 0.4285709999999767
        },
        {
          "name": "D#7",
          "midi": 99,
          "time": 492.8566499999945,
          "velocity": 0.7480314960629921,
          "duration": 0.4285709999999767
        },
        {
          "name": "E4",
          "midi": 64,
          "time": 493.28522099999446,
          "velocity": 0.7480314960629921,
          "duration": 0.4285709999999767
        },
        {
          "name": "E5",
          "midi": 76,
          "time": 493.28522099999446,
          "velocity": 0.7480314960629921,
          "duration": 0.4285709999999767
        },
        {
          "name": "E6",
          "midi": 88,
          "time": 493.28522099999446,
          "velocity": 0.7480314960629921,
          "duration": 0.4285709999999767
        },
        {
          "name": "E7",
          "midi": 100,
          "time": 493.28522099999446,
          "velocity": 0.7480314960629921,
          "duration": 0.4285709999999767
        },
        {
          "name": "C4",
          "midi": 60,
          "time": 493.71379199999444,
          "velocity": 0.7480314960629921,
          "duration": 0.4285709999999767
        },
        {
          "name": "C5",
          "midi": 72,
          "time": 493.71379199999444,
          "velocity": 0.7480314960629921,
          "duration": 0.4285709999999767
        },
        {
          "name": "C6",
          "midi": 84,
          "time": 493.71379199999444,
          "velocity": 0.7480314960629921,
          "duration": 0.4285709999999767
        },
        {
          "name": "C7",
          "midi": 96,
          "time": 493.71379199999444,
          "velocity": 0.7480314960629921,
          "duration": 0.4285709999999767
        },
        {
          "name": "C#4",
          "midi": 61,
          "time": 494.1423629999944,
          "velocity": 0.7480314960629921,
          "duration": 0.4285709999999767
        },
        {
          "name": "C#5",
          "midi": 73,
          "time": 494.1423629999944,
          "velocity": 0.7480314960629921,
          "duration": 0.4285709999999767
        },
        {
          "name": "C#6",
          "midi": 85,
          "time": 494.1423629999944,
          "velocity": 0.7480314960629921,
          "duration": 0.4285709999999767
        },
        {
          "name": "C#7",
          "midi": 97,
          "time": 494.1423629999944,
          "velocity": 0.7480314960629921,
          "duration": 0.4285709999999767
        },
        {
          "name": "D#4",
          "midi": 63,
          "time": 494.5709339999944,
          "velocity": 0.7480314960629921,
          "duration": 0.4285709999999767
        },
        {
          "name": "D#5",
          "midi": 75,
          "time": 494.5709339999944,
          "velocity": 0.7480314960629921,
          "duration": 0.4285709999999767
        },
        {
          "name": "D#6",
          "midi": 87,
          "time": 494.5709339999944,
          "velocity": 0.7480314960629921,
          "duration": 0.4285709999999767
        },
        {
          "name": "D#7",
          "midi": 99,
          "time": 494.5709339999944,
          "velocity": 0.7480314960629921,
          "duration": 0.4285709999999767
        },
        {
          "name": "E4",
          "midi": 64,
          "time": 494.9995049999944,
          "velocity": 0.7480314960629921,
          "duration": 0.4285709999999767
        },
        {
          "name": "E5",
          "midi": 76,
          "time": 494.9995049999944,
          "velocity": 0.7480314960629921,
          "duration": 0.4285709999999767
        },
        {
          "name": "E6",
          "midi": 88,
          "time": 494.9995049999944,
          "velocity": 0.7480314960629921,
          "duration": 0.4285709999999767
        },
        {
          "name": "E7",
          "midi": 100,
          "time": 494.9995049999944,
          "velocity": 0.7480314960629921,
          "duration": 0.4285709999999767
        },
        {
          "name": "C#4",
          "midi": 61,
          "time": 495.42807599999435,
          "velocity": 0.7480314960629921,
          "duration": 0.21428550000001678
        },
        {
          "name": "C#5",
          "midi": 73,
          "time": 495.42807599999435,
          "velocity": 0.7480314960629921,
          "duration": 0.21428550000001678
        },
        {
          "name": "C#6",
          "midi": 85,
          "time": 495.42807599999435,
          "velocity": 0.7480314960629921,
          "duration": 0.21428550000001678
        },
        {
          "name": "C#7",
          "midi": 97,
          "time": 495.42807599999435,
          "velocity": 0.7480314960629921,
          "duration": 0.21428550000001678
        },
        {
          "name": "D4",
          "midi": 62,
          "time": 495.64236149999437,
          "velocity": 0.7480314960629921,
          "duration": 0.21428550000001678
        },
        {
          "name": "D5",
          "midi": 74,
          "time": 495.64236149999437,
          "velocity": 0.7480314960629921,
          "duration": 0.21428550000001678
        },
        {
          "name": "D6",
          "midi": 86,
          "time": 495.64236149999437,
          "velocity": 0.7480314960629921,
          "duration": 0.21428550000001678
        },
        {
          "name": "D7",
          "midi": 98,
          "time": 495.64236149999437,
          "velocity": 0.7480314960629921,
          "duration": 0.21428550000001678
        },
        {
          "name": "C#4",
          "midi": 61,
          "time": 495.8566469999944,
          "velocity": 0.7480314960629921,
          "duration": 0.4285709999999767
        },
        {
          "name": "C#5",
          "midi": 73,
          "time": 495.8566469999944,
          "velocity": 0.7480314960629921,
          "duration": 0.4285709999999767
        },
        {
          "name": "C#6",
          "midi": 85,
          "time": 495.8566469999944,
          "velocity": 0.7480314960629921,
          "duration": 0.4285709999999767
        },
        {
          "name": "C#7",
          "midi": 97,
          "time": 495.8566469999944,
          "velocity": 0.7480314960629921,
          "duration": 0.4285709999999767
        },
        {
          "name": "E4",
          "midi": 64,
          "time": 496.28521799999436,
          "velocity": 0.7480314960629921,
          "duration": 0.4285709999999767
        },
        {
          "name": "E5",
          "midi": 76,
          "time": 496.28521799999436,
          "velocity": 0.7480314960629921,
          "duration": 0.4285709999999767
        },
        {
          "name": "E6",
          "midi": 88,
          "time": 496.28521799999436,
          "velocity": 0.7480314960629921,
          "duration": 0.4285709999999767
        },
        {
          "name": "E7",
          "midi": 100,
          "time": 496.28521799999436,
          "velocity": 0.7480314960629921,
          "duration": 0.4285709999999767
        },
        {
          "name": "D4",
          "midi": 62,
          "time": 496.71378899999434,
          "velocity": 0.7480314960629921,
          "duration": 0.4285709999999767
        },
        {
          "name": "D5",
          "midi": 74,
          "time": 496.71378899999434,
          "velocity": 0.7480314960629921,
          "duration": 0.4285709999999767
        },
        {
          "name": "D6",
          "midi": 86,
          "time": 496.71378899999434,
          "velocity": 0.7480314960629921,
          "duration": 0.4285709999999767
        },
        {
          "name": "D7",
          "midi": 98,
          "time": 496.71378899999434,
          "velocity": 0.7480314960629921,
          "duration": 0.4285709999999767
        },
        {
          "name": "C#4",
          "midi": 61,
          "time": 497.1423599999943,
          "velocity": 0.7480314960629921,
          "duration": 0.4285709999999767
        },
        {
          "name": "C#5",
          "midi": 73,
          "time": 497.1423599999943,
          "velocity": 0.7480314960629921,
          "duration": 0.4285709999999767
        },
        {
          "name": "C#6",
          "midi": 85,
          "time": 497.1423599999943,
          "velocity": 0.7480314960629921,
          "duration": 0.4285709999999767
        },
        {
          "name": "C#7",
          "midi": 97,
          "time": 497.1423599999943,
          "velocity": 0.7480314960629921,
          "duration": 0.4285709999999767
        },
        {
          "name": "D#4",
          "midi": 63,
          "time": 497.5709309999943,
          "velocity": 0.7480314960629921,
          "duration": 0.4285709999999767
        },
        {
          "name": "D#5",
          "midi": 75,
          "time": 497.5709309999943,
          "velocity": 0.7480314960629921,
          "duration": 0.4285709999999767
        },
        {
          "name": "D#6",
          "midi": 87,
          "time": 497.5709309999943,
          "velocity": 0.7480314960629921,
          "duration": 0.4285709999999767
        },
        {
          "name": "D#7",
          "midi": 99,
          "time": 497.5709309999943,
          "velocity": 0.7480314960629921,
          "duration": 0.4285709999999767
        },
        {
          "name": "E4",
          "midi": 64,
          "time": 497.99950199999427,
          "velocity": 0.7480314960629921,
          "duration": 0.4285709999999767
        },
        {
          "name": "E5",
          "midi": 76,
          "time": 497.99950199999427,
          "velocity": 0.7480314960629921,
          "duration": 0.4285709999999767
        },
        {
          "name": "E6",
          "midi": 88,
          "time": 497.99950199999427,
          "velocity": 0.7480314960629921,
          "duration": 0.4285709999999767
        },
        {
          "name": "E7",
          "midi": 100,
          "time": 497.99950199999427,
          "velocity": 0.7480314960629921,
          "duration": 0.4285709999999767
        },
        {
          "name": "D#4",
          "midi": 63,
          "time": 498.42807299999424,
          "velocity": 0.7480314960629921,
          "duration": 0.4285709999999767
        },
        {
          "name": "D#5",
          "midi": 75,
          "time": 498.42807299999424,
          "velocity": 0.7480314960629921,
          "duration": 0.4285709999999767
        },
        {
          "name": "D#6",
          "midi": 87,
          "time": 498.42807299999424,
          "velocity": 0.7480314960629921,
          "duration": 0.4285709999999767
        },
        {
          "name": "D#7",
          "midi": 99,
          "time": 498.42807299999424,
          "velocity": 0.7480314960629921,
          "duration": 0.4285709999999767
        },
        {
          "name": "D4",
          "midi": 62,
          "time": 498.8566439999942,
          "velocity": 0.7480314960629921,
          "duration": 0.21428550000001678
        },
        {
          "name": "D5",
          "midi": 74,
          "time": 498.8566439999942,
          "velocity": 0.7480314960629921,
          "duration": 0.21428550000001678
        },
        {
          "name": "D6",
          "midi": 86,
          "time": 498.8566439999942,
          "velocity": 0.7480314960629921,
          "duration": 0.21428550000001678
        },
        {
          "name": "D7",
          "midi": 98,
          "time": 498.8566439999942,
          "velocity": 0.7480314960629921,
          "duration": 0.21428550000001678
        },
        {
          "name": "D#4",
          "midi": 63,
          "time": 499.07092949999424,
          "velocity": 0.7480314960629921,
          "duration": 0.21428550000001678
        },
        {
          "name": "D#5",
          "midi": 75,
          "time": 499.07092949999424,
          "velocity": 0.7480314960629921,
          "duration": 0.21428550000001678
        },
        {
          "name": "D#6",
          "midi": 87,
          "time": 499.07092949999424,
          "velocity": 0.7480314960629921,
          "duration": 0.21428550000001678
        },
        {
          "name": "D#7",
          "midi": 99,
          "time": 499.07092949999424,
          "velocity": 0.7480314960629921,
          "duration": 0.21428550000001678
        },
        {
          "name": "D4",
          "midi": 62,
          "time": 499.28521499999425,
          "velocity": 0.7480314960629921,
          "duration": 0.4285709999999767
        },
        {
          "name": "D5",
          "midi": 74,
          "time": 499.28521499999425,
          "velocity": 0.7480314960629921,
          "duration": 0.4285709999999767
        },
        {
          "name": "D6",
          "midi": 86,
          "time": 499.28521499999425,
          "velocity": 0.7480314960629921,
          "duration": 0.4285709999999767
        },
        {
          "name": "D7",
          "midi": 98,
          "time": 499.28521499999425,
          "velocity": 0.7480314960629921,
          "duration": 0.4285709999999767
        },
        {
          "name": "D#4",
          "midi": 63,
          "time": 499.71378599999423,
          "velocity": 0.7480314960629921,
          "duration": 0.4285709999999767
        },
        {
          "name": "D#5",
          "midi": 75,
          "time": 499.71378599999423,
          "velocity": 0.7480314960629921,
          "duration": 0.4285709999999767
        },
        {
          "name": "D#6",
          "midi": 87,
          "time": 499.71378599999423,
          "velocity": 0.7480314960629921,
          "duration": 0.4285709999999767
        },
        {
          "name": "D#7",
          "midi": 99,
          "time": 499.71378599999423,
          "velocity": 0.7480314960629921,
          "duration": 0.4285709999999767
        },
        {
          "name": "E4",
          "midi": 64,
          "time": 500.1423569999942,
          "velocity": 0.7480314960629921,
          "duration": 0.4285709999999767
        },
        {
          "name": "E5",
          "midi": 76,
          "time": 500.1423569999942,
          "velocity": 0.7480314960629921,
          "duration": 0.4285709999999767
        },
        {
          "name": "E6",
          "midi": 88,
          "time": 500.1423569999942,
          "velocity": 0.7480314960629921,
          "duration": 0.4285709999999767
        },
        {
          "name": "E7",
          "midi": 100,
          "time": 500.1423569999942,
          "velocity": 0.7480314960629921,
          "duration": 0.4285709999999767
        },
        {
          "name": "C4",
          "midi": 60,
          "time": 500.5709279999942,
          "velocity": 0.7480314960629921,
          "duration": 0.4285709999999767
        },
        {
          "name": "C5",
          "midi": 72,
          "time": 500.5709279999942,
          "velocity": 0.7480314960629921,
          "duration": 0.4285709999999767
        },
        {
          "name": "C6",
          "midi": 84,
          "time": 500.5709279999942,
          "velocity": 0.7480314960629921,
          "duration": 0.4285709999999767
        },
        {
          "name": "C7",
          "midi": 96,
          "time": 500.5709279999942,
          "velocity": 0.7480314960629921,
          "duration": 0.4285709999999767
        },
        {
          "name": "C#4",
          "midi": 61,
          "time": 500.99949899999416,
          "velocity": 0.7480314960629921,
          "duration": 0.4285709999999767
        },
        {
          "name": "C#5",
          "midi": 73,
          "time": 500.99949899999416,
          "velocity": 0.7480314960629921,
          "duration": 0.4285709999999767
        },
        {
          "name": "C#6",
          "midi": 85,
          "time": 500.99949899999416,
          "velocity": 0.7480314960629921,
          "duration": 0.4285709999999767
        },
        {
          "name": "C#7",
          "midi": 97,
          "time": 500.99949899999416,
          "velocity": 0.7480314960629921,
          "duration": 0.4285709999999767
        },
        {
          "name": "D#4",
          "midi": 63,
          "time": 501.42806999999414,
          "velocity": 0.7480314960629921,
          "duration": 0.4285709999999767
        },
        {
          "name": "D#5",
          "midi": 75,
          "time": 501.42806999999414,
          "velocity": 0.7480314960629921,
          "duration": 0.4285709999999767
        },
        {
          "name": "D#6",
          "midi": 87,
          "time": 501.42806999999414,
          "velocity": 0.7480314960629921,
          "duration": 0.4285709999999767
        },
        {
          "name": "D#7",
          "midi": 99,
          "time": 501.42806999999414,
          "velocity": 0.7480314960629921,
          "duration": 0.4285709999999767
        },
        {
          "name": "E4",
          "midi": 64,
          "time": 501.8566409999941,
          "velocity": 0.7480314960629921,
          "duration": 0.4285709999999767
        },
        {
          "name": "E5",
          "midi": 76,
          "time": 501.8566409999941,
          "velocity": 0.7480314960629921,
          "duration": 0.4285709999999767
        },
        {
          "name": "E6",
          "midi": 88,
          "time": 501.8566409999941,
          "velocity": 0.7480314960629921,
          "duration": 0.4285709999999767
        },
        {
          "name": "E7",
          "midi": 100,
          "time": 501.8566409999941,
          "velocity": 0.7480314960629921,
          "duration": 0.4285709999999767
        },
        {
          "name": "C#4",
          "midi": 61,
          "time": 502.2852119999941,
          "velocity": 0.7480314960629921,
          "duration": 0.21428550000001678
        },
        {
          "name": "C#5",
          "midi": 73,
          "time": 502.2852119999941,
          "velocity": 0.7480314960629921,
          "duration": 0.21428550000001678
        },
        {
          "name": "C#6",
          "midi": 85,
          "time": 502.2852119999941,
          "velocity": 0.7480314960629921,
          "duration": 0.21428550000001678
        },
        {
          "name": "C#7",
          "midi": 97,
          "time": 502.2852119999941,
          "velocity": 0.7480314960629921,
          "duration": 0.21428550000001678
        },
        {
          "name": "D4",
          "midi": 62,
          "time": 502.4994974999941,
          "velocity": 0.7480314960629921,
          "duration": 0.21428550000001678
        },
        {
          "name": "D5",
          "midi": 74,
          "time": 502.4994974999941,
          "velocity": 0.7480314960629921,
          "duration": 0.21428550000001678
        },
        {
          "name": "D6",
          "midi": 86,
          "time": 502.4994974999941,
          "velocity": 0.7480314960629921,
          "duration": 0.21428550000001678
        },
        {
          "name": "D7",
          "midi": 98,
          "time": 502.4994974999941,
          "velocity": 0.7480314960629921,
          "duration": 0.21428550000001678
        },
        {
          "name": "C#4",
          "midi": 61,
          "time": 502.7137829999941,
          "velocity": 0.7480314960629921,
          "duration": 0.4285709999999767
        },
        {
          "name": "C#5",
          "midi": 73,
          "time": 502.7137829999941,
          "velocity": 0.7480314960629921,
          "duration": 0.4285709999999767
        },
        {
          "name": "C#6",
          "midi": 85,
          "time": 502.7137829999941,
          "velocity": 0.7480314960629921,
          "duration": 0.4285709999999767
        },
        {
          "name": "C#7",
          "midi": 97,
          "time": 502.7137829999941,
          "velocity": 0.7480314960629921,
          "duration": 0.4285709999999767
        },
        {
          "name": "E4",
          "midi": 64,
          "time": 503.1423539999941,
          "velocity": 0.7480314960629921,
          "duration": 0.4285709999999767
        },
        {
          "name": "E5",
          "midi": 76,
          "time": 503.1423539999941,
          "velocity": 0.7480314960629921,
          "duration": 0.4285709999999767
        },
        {
          "name": "E6",
          "midi": 88,
          "time": 503.1423539999941,
          "velocity": 0.7480314960629921,
          "duration": 0.4285709999999767
        },
        {
          "name": "E7",
          "midi": 100,
          "time": 503.1423539999941,
          "velocity": 0.7480314960629921,
          "duration": 0.4285709999999767
        },
        {
          "name": "D4",
          "midi": 62,
          "time": 503.5709249999941,
          "velocity": 0.7480314960629921,
          "duration": 0.4285709999999767
        },
        {
          "name": "D5",
          "midi": 74,
          "time": 503.5709249999941,
          "velocity": 0.7480314960629921,
          "duration": 0.4285709999999767
        },
        {
          "name": "D6",
          "midi": 86,
          "time": 503.5709249999941,
          "velocity": 0.7480314960629921,
          "duration": 0.4285709999999767
        },
        {
          "name": "D7",
          "midi": 98,
          "time": 503.5709249999941,
          "velocity": 0.7480314960629921,
          "duration": 0.4285709999999767
        },
        {
          "name": "C#4",
          "midi": 61,
          "time": 503.99949599999405,
          "velocity": 0.7480314960629921,
          "duration": 0.4285709999999767
        },
        {
          "name": "C#5",
          "midi": 73,
          "time": 503.99949599999405,
          "velocity": 0.7480314960629921,
          "duration": 0.4285709999999767
        },
        {
          "name": "C#6",
          "midi": 85,
          "time": 503.99949599999405,
          "velocity": 0.7480314960629921,
          "duration": 0.4285709999999767
        },
        {
          "name": "C#7",
          "midi": 97,
          "time": 503.99949599999405,
          "velocity": 0.7480314960629921,
          "duration": 0.4285709999999767
        },
        {
          "name": "D#4",
          "midi": 63,
          "time": 504.42806699999403,
          "velocity": 0.7480314960629921,
          "duration": 0.4285709999999767
        },
        {
          "name": "D#5",
          "midi": 75,
          "time": 504.42806699999403,
          "velocity": 0.7480314960629921,
          "duration": 0.4285709999999767
        },
        {
          "name": "D#6",
          "midi": 87,
          "time": 504.42806699999403,
          "velocity": 0.7480314960629921,
          "duration": 0.4285709999999767
        },
        {
          "name": "D#7",
          "midi": 99,
          "time": 504.42806699999403,
          "velocity": 0.7480314960629921,
          "duration": 0.4285709999999767
        },
        {
          "name": "E4",
          "midi": 64,
          "time": 504.856637999994,
          "velocity": 0.7480314960629921,
          "duration": 0.4285709999999767
        },
        {
          "name": "E5",
          "midi": 76,
          "time": 504.856637999994,
          "velocity": 0.7480314960629921,
          "duration": 0.4285709999999767
        },
        {
          "name": "E6",
          "midi": 88,
          "time": 504.856637999994,
          "velocity": 0.7480314960629921,
          "duration": 0.4285709999999767
        },
        {
          "name": "E7",
          "midi": 100,
          "time": 504.856637999994,
          "velocity": 0.7480314960629921,
          "duration": 0.4285709999999767
        },
        {
          "name": "D#4",
          "midi": 63,
          "time": 505.285208999994,
          "velocity": 0.7480314960629921,
          "duration": 0.4285709999999767
        },
        {
          "name": "D#5",
          "midi": 75,
          "time": 505.285208999994,
          "velocity": 0.7480314960629921,
          "duration": 0.4285709999999767
        },
        {
          "name": "D#6",
          "midi": 87,
          "time": 505.285208999994,
          "velocity": 0.7480314960629921,
          "duration": 0.4285709999999767
        },
        {
          "name": "D#7",
          "midi": 99,
          "time": 505.285208999994,
          "velocity": 0.7480314960629921,
          "duration": 0.4285709999999767
        },
        {
          "name": "D4",
          "midi": 62,
          "time": 505.71377999999396,
          "velocity": 0.7480314960629921,
          "duration": 0.21428550000001678
        },
        {
          "name": "D5",
          "midi": 74,
          "time": 505.71377999999396,
          "velocity": 0.7480314960629921,
          "duration": 0.21428550000001678
        },
        {
          "name": "D6",
          "midi": 86,
          "time": 505.71377999999396,
          "velocity": 0.7480314960629921,
          "duration": 0.21428550000001678
        },
        {
          "name": "D7",
          "midi": 98,
          "time": 505.71377999999396,
          "velocity": 0.7480314960629921,
          "duration": 0.21428550000001678
        },
        {
          "name": "D#4",
          "midi": 63,
          "time": 505.928065499994,
          "velocity": 0.7480314960629921,
          "duration": 0.21428550000001678
        },
        {
          "name": "D#5",
          "midi": 75,
          "time": 505.928065499994,
          "velocity": 0.7480314960629921,
          "duration": 0.21428550000001678
        },
        {
          "name": "D#6",
          "midi": 87,
          "time": 505.928065499994,
          "velocity": 0.7480314960629921,
          "duration": 0.21428550000001678
        },
        {
          "name": "D#7",
          "midi": 99,
          "time": 505.928065499994,
          "velocity": 0.7480314960629921,
          "duration": 0.21428550000001678
        },
        {
          "name": "D4",
          "midi": 62,
          "time": 506.142350999994,
          "velocity": 0.7480314960629921,
          "duration": 0.4285709999999767
        },
        {
          "name": "D5",
          "midi": 74,
          "time": 506.142350999994,
          "velocity": 0.7480314960629921,
          "duration": 0.4285709999999767
        },
        {
          "name": "D6",
          "midi": 86,
          "time": 506.142350999994,
          "velocity": 0.7480314960629921,
          "duration": 0.4285709999999767
        },
        {
          "name": "D7",
          "midi": 98,
          "time": 506.142350999994,
          "velocity": 0.7480314960629921,
          "duration": 0.4285709999999767
        },
        {
          "name": "D#4",
          "midi": 63,
          "time": 506.57092199999397,
          "velocity": 0.7480314960629921,
          "duration": 0.4285709999999767
        },
        {
          "name": "D#5",
          "midi": 75,
          "time": 506.57092199999397,
          "velocity": 0.7480314960629921,
          "duration": 0.4285709999999767
        },
        {
          "name": "D#6",
          "midi": 87,
          "time": 506.57092199999397,
          "velocity": 0.7480314960629921,
          "duration": 0.4285709999999767
        },
        {
          "name": "D#7",
          "midi": 99,
          "time": 506.57092199999397,
          "velocity": 0.7480314960629921,
          "duration": 0.4285709999999767
        },
        {
          "name": "E4",
          "midi": 64,
          "time": 506.99949299999395,
          "velocity": 0.7480314960629921,
          "duration": 0.4285709999999767
        },
        {
          "name": "E5",
          "midi": 76,
          "time": 506.99949299999395,
          "velocity": 0.7480314960629921,
          "duration": 0.4285709999999767
        },
        {
          "name": "E6",
          "midi": 88,
          "time": 506.99949299999395,
          "velocity": 0.7480314960629921,
          "duration": 0.4285709999999767
        },
        {
          "name": "E7",
          "midi": 100,
          "time": 506.99949299999395,
          "velocity": 0.7480314960629921,
          "duration": 0.4285709999999767
        }
      ],
      "controlChanges": {},
      "id": 3,
      "name": "PART GUITAR",
      "channelNumber": 0,
      "isPercussion": false
    },
    {
      "startTime": 3.4285680000000003,
      "duration": 459.53525475,
      "length": 5604,
      "notes": [
        {
          "name": "C4",
          "midi": 60,
          "time": 3.4285680000000003,
          "velocity": 0.7559055118110236,
          "duration": 2.5714260000000007
        },
        {
          "name": "C#4",
          "midi": 61,
          "time": 3.4285680000000003,
          "velocity": 0.7559055118110236,
          "duration": 2.5714260000000007
        },
        {
          "name": "D#4",
          "midi": 63,
          "time": 3.4285680000000003,
          "velocity": 0.7559055118110236,
          "duration": 2.5714260000000007
        },
        {
          "name": "C5",
          "midi": 72,
          "time": 3.4285680000000003,
          "velocity": 0.7559055118110236,
          "duration": 2.5714260000000007
        },
        {
          "name": "C#5",
          "midi": 73,
          "time": 3.4285680000000003,
          "velocity": 0.7559055118110236,
          "duration": 2.5714260000000007
        },
        {
          "name": "D#5",
          "midi": 75,
          "time": 3.4285680000000003,
          "velocity": 0.7559055118110236,
          "duration": 2.5714260000000007
        },
        {
          "name": "C6",
          "midi": 84,
          "time": 3.4285680000000003,
          "velocity": 0.7559055118110236,
          "duration": 2.5714260000000007
        },
        {
          "name": "C#6",
          "midi": 85,
          "time": 3.4285680000000003,
          "velocity": 0.7559055118110236,
          "duration": 2.5714260000000007
        },
        {
          "name": "D#6",
          "midi": 87,
          "time": 3.4285680000000003,
          "velocity": 0.7559055118110236,
          "duration": 2.5714260000000007
        },
        {
          "name": "C7",
          "midi": 96,
          "time": 3.4285680000000003,
          "velocity": 0.7559055118110236,
          "duration": 2.5714260000000007
        },
        {
          "name": "C#7",
          "midi": 97,
          "time": 3.4285680000000003,
          "velocity": 0.7559055118110236,
          "duration": 2.5714260000000007
        },
        {
          "name": "D#7",
          "midi": 99,
          "time": 3.4285680000000003,
          "velocity": 0.7559055118110236,
          "duration": 2.5714260000000007
        },
        {
          "name": "C4",
          "midi": 60,
          "time": 6.857136000000001,
          "velocity": 0.7559055118110236,
          "duration": 2.5714260000000007
        },
        {
          "name": "C#4",
          "midi": 61,
          "time": 6.857136000000001,
          "velocity": 0.7559055118110236,
          "duration": 2.5714260000000007
        },
        {
          "name": "D#4",
          "midi": 63,
          "time": 6.857136000000001,
          "velocity": 0.7559055118110236,
          "duration": 2.5714260000000007
        },
        {
          "name": "C5",
          "midi": 72,
          "time": 6.857136000000001,
          "velocity": 0.7559055118110236,
          "duration": 2.5714260000000007
        },
        {
          "name": "C#5",
          "midi": 73,
          "time": 6.857136000000001,
          "velocity": 0.7559055118110236,
          "duration": 2.5714260000000007
        },
        {
          "name": "D#5",
          "midi": 75,
          "time": 6.857136000000001,
          "velocity": 0.7559055118110236,
          "duration": 2.5714260000000007
        },
        {
          "name": "C6",
          "midi": 84,
          "time": 6.857136000000001,
          "velocity": 0.7559055118110236,
          "duration": 2.5714260000000007
        },
        {
          "name": "C#6",
          "midi": 85,
          "time": 6.857136000000001,
          "velocity": 0.7559055118110236,
          "duration": 2.5714260000000007
        },
        {
          "name": "D#6",
          "midi": 87,
          "time": 6.857136000000001,
          "velocity": 0.7559055118110236,
          "duration": 2.5714260000000007
        },
        {
          "name": "C7",
          "midi": 96,
          "time": 6.857136000000001,
          "velocity": 0.7559055118110236,
          "duration": 2.5714260000000007
        },
        {
          "name": "C#7",
          "midi": 97,
          "time": 6.857136000000001,
          "velocity": 0.7559055118110236,
          "duration": 2.5714260000000007
        },
        {
          "name": "D#7",
          "midi": 99,
          "time": 6.857136000000001,
          "velocity": 0.7559055118110236,
          "duration": 2.5714260000000007
        },
        {
          "name": "C4",
          "midi": 60,
          "time": 10.285704,
          "velocity": 0.7559055118110236,
          "duration": 2.5714260000000007
        },
        {
          "name": "C#4",
          "midi": 61,
          "time": 10.285704,
          "velocity": 0.7559055118110236,
          "duration": 2.5714260000000007
        },
        {
          "name": "D#4",
          "midi": 63,
          "time": 10.285704,
          "velocity": 0.7559055118110236,
          "duration": 2.5714260000000007
        },
        {
          "name": "C5",
          "midi": 72,
          "time": 10.285704,
          "velocity": 0.7559055118110236,
          "duration": 2.5714260000000007
        },
        {
          "name": "C#5",
          "midi": 73,
          "time": 10.285704,
          "velocity": 0.7559055118110236,
          "duration": 2.5714260000000007
        },
        {
          "name": "D#5",
          "midi": 75,
          "time": 10.285704,
          "velocity": 0.7559055118110236,
          "duration": 2.5714260000000007
        },
        {
          "name": "C6",
          "midi": 84,
          "time": 10.285704,
          "velocity": 0.7559055118110236,
          "duration": 2.5714260000000007
        },
        {
          "name": "C#6",
          "midi": 85,
          "time": 10.285704,
          "velocity": 0.7559055118110236,
          "duration": 2.5714260000000007
        },
        {
          "name": "D#6",
          "midi": 87,
          "time": 10.285704,
          "velocity": 0.7559055118110236,
          "duration": 2.5714260000000007
        },
        {
          "name": "C7",
          "midi": 96,
          "time": 10.285704,
          "velocity": 0.7559055118110236,
          "duration": 2.5714260000000007
        },
        {
          "name": "C#7",
          "midi": 97,
          "time": 10.285704,
          "velocity": 0.7559055118110236,
          "duration": 2.5714260000000007
        },
        {
          "name": "D#7",
          "midi": 99,
          "time": 10.285704,
          "velocity": 0.7559055118110236,
          "duration": 2.5714260000000007
        },
        {
          "name": "C4",
          "midi": 60,
          "time": 13.714272000000001,
          "velocity": 0.7559055118110236,
          "duration": 2.571425999999999
        },
        {
          "name": "C#4",
          "midi": 61,
          "time": 13.714272000000001,
          "velocity": 0.7559055118110236,
          "duration": 2.571425999999999
        },
        {
          "name": "D#4",
          "midi": 63,
          "time": 13.714272000000001,
          "velocity": 0.7559055118110236,
          "duration": 2.571425999999999
        },
        {
          "name": "C5",
          "midi": 72,
          "time": 13.714272000000001,
          "velocity": 0.7559055118110236,
          "duration": 2.571425999999999
        },
        {
          "name": "C#5",
          "midi": 73,
          "time": 13.714272000000001,
          "velocity": 0.7559055118110236,
          "duration": 2.571425999999999
        },
        {
          "name": "D#5",
          "midi": 75,
          "time": 13.714272000000001,
          "velocity": 0.7559055118110236,
          "duration": 2.571425999999999
        },
        {
          "name": "C6",
          "midi": 84,
          "time": 13.714272000000001,
          "velocity": 0.7559055118110236,
          "duration": 2.571425999999999
        },
        {
          "name": "C#6",
          "midi": 85,
          "time": 13.714272000000001,
          "velocity": 0.7559055118110236,
          "duration": 2.571425999999999
        },
        {
          "name": "D#6",
          "midi": 87,
          "time": 13.714272000000001,
          "velocity": 0.7559055118110236,
          "duration": 2.571425999999999
        },
        {
          "name": "C7",
          "midi": 96,
          "time": 13.714272000000001,
          "velocity": 0.7559055118110236,
          "duration": 2.571425999999999
        },
        {
          "name": "C#7",
          "midi": 97,
          "time": 13.714272000000001,
          "velocity": 0.7559055118110236,
          "duration": 2.571425999999999
        },
        {
          "name": "D#7",
          "midi": 99,
          "time": 13.714272000000001,
          "velocity": 0.7559055118110236,
          "duration": 2.571425999999999
        },
        {
          "name": "C4",
          "midi": 60,
          "time": 17.14284,
          "velocity": 0.7559055118110236,
          "duration": 2.571425999999999
        },
        {
          "name": "C#4",
          "midi": 61,
          "time": 17.14284,
          "velocity": 0.7559055118110236,
          "duration": 2.571425999999999
        },
        {
          "name": "D#4",
          "midi": 63,
          "time": 17.14284,
          "velocity": 0.7559055118110236,
          "duration": 2.571425999999999
        },
        {
          "name": "C5",
          "midi": 72,
          "time": 17.14284,
          "velocity": 0.7559055118110236,
          "duration": 2.571425999999999
        },
        {
          "name": "C#5",
          "midi": 73,
          "time": 17.14284,
          "velocity": 0.7559055118110236,
          "duration": 2.571425999999999
        },
        {
          "name": "D#5",
          "midi": 75,
          "time": 17.14284,
          "velocity": 0.7559055118110236,
          "duration": 2.571425999999999
        },
        {
          "name": "C6",
          "midi": 84,
          "time": 17.14284,
          "velocity": 0.7559055118110236,
          "duration": 2.571425999999999
        },
        {
          "name": "C#6",
          "midi": 85,
          "time": 17.14284,
          "velocity": 0.7559055118110236,
          "duration": 2.571425999999999
        },
        {
          "name": "D#6",
          "midi": 87,
          "time": 17.14284,
          "velocity": 0.7559055118110236,
          "duration": 2.571425999999999
        },
        {
          "name": "C7",
          "midi": 96,
          "time": 17.14284,
          "velocity": 0.7559055118110236,
          "duration": 2.571425999999999
        },
        {
          "name": "C#7",
          "midi": 97,
          "time": 17.14284,
          "velocity": 0.7559055118110236,
          "duration": 2.571425999999999
        },
        {
          "name": "D#7",
          "midi": 99,
          "time": 17.14284,
          "velocity": 0.7559055118110236,
          "duration": 2.571425999999999
        },
        {
          "name": "C4",
          "midi": 60,
          "time": 20.571407999999998,
          "velocity": 0.7559055118110236,
          "duration": 2.571425999999999
        },
        {
          "name": "C#4",
          "midi": 61,
          "time": 20.571407999999998,
          "velocity": 0.7559055118110236,
          "duration": 2.571425999999999
        },
        {
          "name": "D#4",
          "midi": 63,
          "time": 20.571407999999998,
          "velocity": 0.7559055118110236,
          "duration": 2.571425999999999
        },
        {
          "name": "C5",
          "midi": 72,
          "time": 20.571407999999998,
          "velocity": 0.7559055118110236,
          "duration": 2.571425999999999
        },
        {
          "name": "C#5",
          "midi": 73,
          "time": 20.571407999999998,
          "velocity": 0.7559055118110236,
          "duration": 2.571425999999999
        },
        {
          "name": "D#5",
          "midi": 75,
          "time": 20.571407999999998,
          "velocity": 0.7559055118110236,
          "duration": 2.571425999999999
        },
        {
          "name": "C6",
          "midi": 84,
          "time": 20.571407999999998,
          "velocity": 0.7559055118110236,
          "duration": 2.571425999999999
        },
        {
          "name": "C#6",
          "midi": 85,
          "time": 20.571407999999998,
          "velocity": 0.7559055118110236,
          "duration": 2.571425999999999
        },
        {
          "name": "D#6",
          "midi": 87,
          "time": 20.571407999999998,
          "velocity": 0.7559055118110236,
          "duration": 2.571425999999999
        },
        {
          "name": "C7",
          "midi": 96,
          "time": 20.571407999999998,
          "velocity": 0.7559055118110236,
          "duration": 2.571425999999999
        },
        {
          "name": "C#7",
          "midi": 97,
          "time": 20.571407999999998,
          "velocity": 0.7559055118110236,
          "duration": 2.571425999999999
        },
        {
          "name": "D#7",
          "midi": 99,
          "time": 20.571407999999998,
          "velocity": 0.7559055118110236,
          "duration": 2.571425999999999
        },
        {
          "name": "C4",
          "midi": 60,
          "time": 23.999975999999997,
          "velocity": 0.7559055118110236,
          "duration": 2.571425999999999
        },
        {
          "name": "C#4",
          "midi": 61,
          "time": 23.999975999999997,
          "velocity": 0.7559055118110236,
          "duration": 2.571425999999999
        },
        {
          "name": "D#4",
          "midi": 63,
          "time": 23.999975999999997,
          "velocity": 0.7559055118110236,
          "duration": 2.571425999999999
        },
        {
          "name": "C5",
          "midi": 72,
          "time": 23.999975999999997,
          "velocity": 0.7559055118110236,
          "duration": 2.571425999999999
        },
        {
          "name": "C#5",
          "midi": 73,
          "time": 23.999975999999997,
          "velocity": 0.7559055118110236,
          "duration": 2.571425999999999
        },
        {
          "name": "D#5",
          "midi": 75,
          "time": 23.999975999999997,
          "velocity": 0.7559055118110236,
          "duration": 2.571425999999999
        },
        {
          "name": "C6",
          "midi": 84,
          "time": 23.999975999999997,
          "velocity": 0.7559055118110236,
          "duration": 2.571425999999999
        },
        {
          "name": "C#6",
          "midi": 85,
          "time": 23.999975999999997,
          "velocity": 0.7559055118110236,
          "duration": 2.571425999999999
        },
        {
          "name": "D#6",
          "midi": 87,
          "time": 23.999975999999997,
          "velocity": 0.7559055118110236,
          "duration": 2.571425999999999
        },
        {
          "name": "C7",
          "midi": 96,
          "time": 23.999975999999997,
          "velocity": 0.7559055118110236,
          "duration": 2.571425999999999
        },
        {
          "name": "C#7",
          "midi": 97,
          "time": 23.999975999999997,
          "velocity": 0.7559055118110236,
          "duration": 2.571425999999999
        },
        {
          "name": "D#7",
          "midi": 99,
          "time": 23.999975999999997,
          "velocity": 0.7559055118110236,
          "duration": 2.571425999999999
        },
        {
          "name": "C#4",
          "midi": 61,
          "time": 27.428543999999995,
          "velocity": 0.7480314960629921,
          "duration": 0.21428549999999902
        },
        {
          "name": "C#5",
          "midi": 73,
          "time": 27.428543999999995,
          "velocity": 0.7480314960629921,
          "duration": 0.21428549999999902
        },
        {
          "name": "C#6",
          "midi": 85,
          "time": 27.428543999999995,
          "velocity": 0.7480314960629921,
          "duration": 0.21428549999999902
        },
        {
          "name": "C#7",
          "midi": 97,
          "time": 27.428543999999995,
          "velocity": 0.7480314960629921,
          "duration": 0.21428549999999902
        },
        {
          "name": "D4",
          "midi": 62,
          "time": 27.642829499999994,
          "velocity": 0.7480314960629921,
          "duration": 0.21428549999999902
        },
        {
          "name": "D5",
          "midi": 74,
          "time": 27.642829499999994,
          "velocity": 0.7480314960629921,
          "duration": 0.21428549999999902
        },
        {
          "name": "D6",
          "midi": 86,
          "time": 27.642829499999994,
          "velocity": 0.7480314960629921,
          "duration": 0.21428549999999902
        },
        {
          "name": "D7",
          "midi": 98,
          "time": 27.642829499999994,
          "velocity": 0.7480314960629921,
          "duration": 0.21428549999999902
        },
        {
          "name": "D#4",
          "midi": 63,
          "time": 27.857114999999993,
          "velocity": 0.7480314960629921,
          "duration": 0.21428549999999902
        },
        {
          "name": "D#5",
          "midi": 75,
          "time": 27.857114999999993,
          "velocity": 0.7480314960629921,
          "duration": 0.21428549999999902
        },
        {
          "name": "D#6",
          "midi": 87,
          "time": 27.857114999999993,
          "velocity": 0.7480314960629921,
          "duration": 0.21428549999999902
        },
        {
          "name": "D#7",
          "midi": 99,
          "time": 27.857114999999993,
          "velocity": 0.7480314960629921,
          "duration": 0.21428549999999902
        },
        {
          "name": "D4",
          "midi": 62,
          "time": 28.071400499999992,
          "velocity": 0.7480314960629921,
          "duration": 0.21428549999999902
        },
        {
          "name": "D5",
          "midi": 74,
          "time": 28.071400499999992,
          "velocity": 0.7480314960629921,
          "duration": 0.21428549999999902
        },
        {
          "name": "D6",
          "midi": 86,
          "time": 28.071400499999992,
          "velocity": 0.7480314960629921,
          "duration": 0.21428549999999902
        },
        {
          "name": "D7",
          "midi": 98,
          "time": 28.071400499999992,
          "velocity": 0.7480314960629921,
          "duration": 0.21428549999999902
        },
        {
          "name": "D#4",
          "midi": 63,
          "time": 28.28568599999999,
          "velocity": 0.7480314960629921,
          "duration": 0.21428549999999902
        },
        {
          "name": "D#5",
          "midi": 75,
          "time": 28.28568599999999,
          "velocity": 0.7480314960629921,
          "duration": 0.21428549999999902
        },
        {
          "name": "D#6",
          "midi": 87,
          "time": 28.28568599999999,
          "velocity": 0.7480314960629921,
          "duration": 0.21428549999999902
        },
        {
          "name": "D#7",
          "midi": 99,
          "time": 28.28568599999999,
          "velocity": 0.7480314960629921,
          "duration": 0.21428549999999902
        },
        {
          "name": "E4",
          "midi": 64,
          "time": 28.49997149999999,
          "velocity": 0.7480314960629921,
          "duration": 0.21428549999999902
        },
        {
          "name": "E5",
          "midi": 76,
          "time": 28.49997149999999,
          "velocity": 0.7480314960629921,
          "duration": 0.21428549999999902
        },
        {
          "name": "E6",
          "midi": 88,
          "time": 28.49997149999999,
          "velocity": 0.7480314960629921,
          "duration": 0.21428549999999902
        },
        {
          "name": "E7",
          "midi": 100,
          "time": 28.49997149999999,
          "velocity": 0.7480314960629921,
          "duration": 0.21428549999999902
        },
        {
          "name": "D#4",
          "midi": 63,
          "time": 28.71425699999999,
          "velocity": 0.7480314960629921,
          "duration": 0.21428549999999902
        },
        {
          "name": "D#5",
          "midi": 75,
          "time": 28.71425699999999,
          "velocity": 0.7480314960629921,
          "duration": 0.21428549999999902
        },
        {
          "name": "D#6",
          "midi": 87,
          "time": 28.71425699999999,
          "velocity": 0.7480314960629921,
          "duration": 0.21428549999999902
        },
        {
          "name": "D#7",
          "midi": 99,
          "time": 28.71425699999999,
          "velocity": 0.7480314960629921,
          "duration": 0.21428549999999902
        },
        {
          "name": "D4",
          "midi": 62,
          "time": 28.92854249999999,
          "velocity": 0.7480314960629921,
          "duration": 0.21428549999999902
        },
        {
          "name": "D5",
          "midi": 74,
          "time": 28.92854249999999,
          "velocity": 0.7480314960629921,
          "duration": 0.21428549999999902
        },
        {
          "name": "D6",
          "midi": 86,
          "time": 28.92854249999999,
          "velocity": 0.7480314960629921,
          "duration": 0.21428549999999902
        },
        {
          "name": "D7",
          "midi": 98,
          "time": 28.92854249999999,
          "velocity": 0.7480314960629921,
          "duration": 0.21428549999999902
        },
        {
          "name": "C#4",
          "midi": 61,
          "time": 29.142827999999987,
          "velocity": 0.7480314960629921,
          "duration": 0.21428549999999902
        },
        {
          "name": "C#5",
          "midi": 73,
          "time": 29.142827999999987,
          "velocity": 0.7480314960629921,
          "duration": 0.21428549999999902
        },
        {
          "name": "C#6",
          "midi": 85,
          "time": 29.142827999999987,
          "velocity": 0.7480314960629921,
          "duration": 0.21428549999999902
        },
        {
          "name": "C#7",
          "midi": 97,
          "time": 29.142827999999987,
          "velocity": 0.7480314960629921,
          "duration": 0.21428549999999902
        },
        {
          "name": "D4",
          "midi": 62,
          "time": 29.357113499999986,
          "velocity": 0.7480314960629921,
          "duration": 0.21428549999999902
        },
        {
          "name": "D5",
          "midi": 74,
          "time": 29.357113499999986,
          "velocity": 0.7480314960629921,
          "duration": 0.21428549999999902
        },
        {
          "name": "D6",
          "midi": 86,
          "time": 29.357113499999986,
          "velocity": 0.7480314960629921,
          "duration": 0.21428549999999902
        },
        {
          "name": "D7",
          "midi": 98,
          "time": 29.357113499999986,
          "velocity": 0.7480314960629921,
          "duration": 0.21428549999999902
        },
        {
          "name": "D#4",
          "midi": 63,
          "time": 29.571398999999985,
          "velocity": 0.7480314960629921,
          "duration": 0.21428549999999902
        },
        {
          "name": "D#5",
          "midi": 75,
          "time": 29.571398999999985,
          "velocity": 0.7480314960629921,
          "duration": 0.21428549999999902
        },
        {
          "name": "D#6",
          "midi": 87,
          "time": 29.571398999999985,
          "velocity": 0.7480314960629921,
          "duration": 0.21428549999999902
        },
        {
          "name": "D#7",
          "midi": 99,
          "time": 29.571398999999985,
          "velocity": 0.7480314960629921,
          "duration": 0.21428549999999902
        },
        {
          "name": "D4",
          "midi": 62,
          "time": 29.785684499999984,
          "velocity": 0.7480314960629921,
          "duration": 0.21428549999999902
        },
        {
          "name": "D5",
          "midi": 74,
          "time": 29.785684499999984,
          "velocity": 0.7480314960629921,
          "duration": 0.21428549999999902
        },
        {
          "name": "D6",
          "midi": 86,
          "time": 29.785684499999984,
          "velocity": 0.7480314960629921,
          "duration": 0.21428549999999902
        },
        {
          "name": "D7",
          "midi": 98,
          "time": 29.785684499999984,
          "velocity": 0.7480314960629921,
          "duration": 0.21428549999999902
        },
        {
          "name": "D#4",
          "midi": 63,
          "time": 29.999969999999983,
          "velocity": 0.7480314960629921,
          "duration": 0.21428549999999902
        },
        {
          "name": "D#5",
          "midi": 75,
          "time": 29.999969999999983,
          "velocity": 0.7480314960629921,
          "duration": 0.21428549999999902
        },
        {
          "name": "D#6",
          "midi": 87,
          "time": 29.999969999999983,
          "velocity": 0.7480314960629921,
          "duration": 0.21428549999999902
        },
        {
          "name": "D#7",
          "midi": 99,
          "time": 29.999969999999983,
          "velocity": 0.7480314960629921,
          "duration": 0.21428549999999902
        },
        {
          "name": "E4",
          "midi": 64,
          "time": 30.214255499999982,
          "velocity": 0.7480314960629921,
          "duration": 0.21428549999999902
        },
        {
          "name": "E5",
          "midi": 76,
          "time": 30.214255499999982,
          "velocity": 0.7480314960629921,
          "duration": 0.21428549999999902
        },
        {
          "name": "E6",
          "midi": 88,
          "time": 30.214255499999982,
          "velocity": 0.7480314960629921,
          "duration": 0.21428549999999902
        },
        {
          "name": "E7",
          "midi": 100,
          "time": 30.214255499999982,
          "velocity": 0.7480314960629921,
          "duration": 0.21428549999999902
        },
        {
          "name": "D#4",
          "midi": 63,
          "time": 30.42854099999998,
          "velocity": 0.7480314960629921,
          "duration": 0.21428549999999902
        },
        {
          "name": "D#5",
          "midi": 75,
          "time": 30.42854099999998,
          "velocity": 0.7480314960629921,
          "duration": 0.21428549999999902
        },
        {
          "name": "D#6",
          "midi": 87,
          "time": 30.42854099999998,
          "velocity": 0.7480314960629921,
          "duration": 0.21428549999999902
        },
        {
          "name": "D#7",
          "midi": 99,
          "time": 30.42854099999998,
          "velocity": 0.7480314960629921,
          "duration": 0.21428549999999902
        },
        {
          "name": "D4",
          "midi": 62,
          "time": 30.64282649999998,
          "velocity": 0.7480314960629921,
          "duration": 0.21428549999999902
        },
        {
          "name": "D5",
          "midi": 74,
          "time": 30.64282649999998,
          "velocity": 0.7480314960629921,
          "duration": 0.21428549999999902
        },
        {
          "name": "D6",
          "midi": 86,
          "time": 30.64282649999998,
          "velocity": 0.7480314960629921,
          "duration": 0.21428549999999902
        },
        {
          "name": "D7",
          "midi": 98,
          "time": 30.64282649999998,
          "velocity": 0.7480314960629921,
          "duration": 0.21428549999999902
        },
        {
          "name": "C#4",
          "midi": 61,
          "time": 30.85711199999998,
          "velocity": 0.7480314960629921,
          "duration": 0.21428549999999902
        },
        {
          "name": "C#5",
          "midi": 73,
          "time": 30.85711199999998,
          "velocity": 0.7480314960629921,
          "duration": 0.21428549999999902
        },
        {
          "name": "C#6",
          "midi": 85,
          "time": 30.85711199999998,
          "velocity": 0.7480314960629921,
          "duration": 0.21428549999999902
        },
        {
          "name": "C#7",
          "midi": 97,
          "time": 30.85711199999998,
          "velocity": 0.7480314960629921,
          "duration": 0.21428549999999902
        },
        {
          "name": "D4",
          "midi": 62,
          "time": 31.07139749999998,
          "velocity": 0.7480314960629921,
          "duration": 0.21428549999999902
        },
        {
          "name": "D5",
          "midi": 74,
          "time": 31.07139749999998,
          "velocity": 0.7480314960629921,
          "duration": 0.21428549999999902
        },
        {
          "name": "D6",
          "midi": 86,
          "time": 31.07139749999998,
          "velocity": 0.7480314960629921,
          "duration": 0.21428549999999902
        },
        {
          "name": "D7",
          "midi": 98,
          "time": 31.07139749999998,
          "velocity": 0.7480314960629921,
          "duration": 0.21428549999999902
        },
        {
          "name": "D#4",
          "midi": 63,
          "time": 31.285682999999977,
          "velocity": 0.7480314960629921,
          "duration": 0.21428549999999902
        },
        {
          "name": "D#5",
          "midi": 75,
          "time": 31.285682999999977,
          "velocity": 0.7480314960629921,
          "duration": 0.21428549999999902
        },
        {
          "name": "D#6",
          "midi": 87,
          "time": 31.285682999999977,
          "velocity": 0.7480314960629921,
          "duration": 0.21428549999999902
        },
        {
          "name": "D#7",
          "midi": 99,
          "time": 31.285682999999977,
          "velocity": 0.7480314960629921,
          "duration": 0.21428549999999902
        },
        {
          "name": "D4",
          "midi": 62,
          "time": 31.499968499999977,
          "velocity": 0.7480314960629921,
          "duration": 0.21428549999999902
        },
        {
          "name": "D5",
          "midi": 74,
          "time": 31.499968499999977,
          "velocity": 0.7480314960629921,
          "duration": 0.21428549999999902
        },
        {
          "name": "D6",
          "midi": 86,
          "time": 31.499968499999977,
          "velocity": 0.7480314960629921,
          "duration": 0.21428549999999902
        },
        {
          "name": "D7",
          "midi": 98,
          "time": 31.499968499999977,
          "velocity": 0.7480314960629921,
          "duration": 0.21428549999999902
        },
        {
          "name": "D#4",
          "midi": 63,
          "time": 31.714253999999976,
          "velocity": 0.7480314960629921,
          "duration": 0.21428549999999902
        },
        {
          "name": "D#5",
          "midi": 75,
          "time": 31.714253999999976,
          "velocity": 0.7480314960629921,
          "duration": 0.21428549999999902
        },
        {
          "name": "D#6",
          "midi": 87,
          "time": 31.714253999999976,
          "velocity": 0.7480314960629921,
          "duration": 0.21428549999999902
        },
        {
          "name": "D#7",
          "midi": 99,
          "time": 31.714253999999976,
          "velocity": 0.7480314960629921,
          "duration": 0.21428549999999902
        },
        {
          "name": "E4",
          "midi": 64,
          "time": 31.928539499999975,
          "velocity": 0.7480314960629921,
          "duration": 0.21428549999999902
        },
        {
          "name": "E5",
          "midi": 76,
          "time": 31.928539499999975,
          "velocity": 0.7480314960629921,
          "duration": 0.21428549999999902
        },
        {
          "name": "E6",
          "midi": 88,
          "time": 31.928539499999975,
          "velocity": 0.7480314960629921,
          "duration": 0.21428549999999902
        },
        {
          "name": "E7",
          "midi": 100,
          "time": 31.928539499999975,
          "velocity": 0.7480314960629921,
          "duration": 0.21428549999999902
        },
        {
          "name": "D#4",
          "midi": 63,
          "time": 32.142824999999974,
          "velocity": 0.7480314960629921,
          "duration": 0.21428550000000257
        },
        {
          "name": "D#5",
          "midi": 75,
          "time": 32.142824999999974,
          "velocity": 0.7480314960629921,
          "duration": 0.21428550000000257
        },
        {
          "name": "D#6",
          "midi": 87,
          "time": 32.142824999999974,
          "velocity": 0.7480314960629921,
          "duration": 0.21428550000000257
        },
        {
          "name": "D#7",
          "midi": 99,
          "time": 32.142824999999974,
          "velocity": 0.7480314960629921,
          "duration": 0.21428550000000257
        },
        {
          "name": "D4",
          "midi": 62,
          "time": 32.357110499999976,
          "velocity": 0.7480314960629921,
          "duration": 0.21428550000000257
        },
        {
          "name": "D5",
          "midi": 74,
          "time": 32.357110499999976,
          "velocity": 0.7480314960629921,
          "duration": 0.21428550000000257
        },
        {
          "name": "D6",
          "midi": 86,
          "time": 32.357110499999976,
          "velocity": 0.7480314960629921,
          "duration": 0.21428550000000257
        },
        {
          "name": "D7",
          "midi": 98,
          "time": 32.357110499999976,
          "velocity": 0.7480314960629921,
          "duration": 0.21428550000000257
        },
        {
          "name": "C#4",
          "midi": 61,
          "time": 32.57139599999998,
          "velocity": 0.7480314960629921,
          "duration": 0.21428550000000257
        },
        {
          "name": "C#5",
          "midi": 73,
          "time": 32.57139599999998,
          "velocity": 0.7480314960629921,
          "duration": 0.21428550000000257
        },
        {
          "name": "C#6",
          "midi": 85,
          "time": 32.57139599999998,
          "velocity": 0.7480314960629921,
          "duration": 0.21428550000000257
        },
        {
          "name": "C#7",
          "midi": 97,
          "time": 32.57139599999998,
          "velocity": 0.7480314960629921,
          "duration": 0.21428550000000257
        },
        {
          "name": "D4",
          "midi": 62,
          "time": 32.78568149999998,
          "velocity": 0.7480314960629921,
          "duration": 0.21428550000000257
        },
        {
          "name": "D5",
          "midi": 74,
          "time": 32.78568149999998,
          "velocity": 0.7480314960629921,
          "duration": 0.21428550000000257
        },
        {
          "name": "D6",
          "midi": 86,
          "time": 32.78568149999998,
          "velocity": 0.7480314960629921,
          "duration": 0.21428550000000257
        },
        {
          "name": "D7",
          "midi": 98,
          "time": 32.78568149999998,
          "velocity": 0.7480314960629921,
          "duration": 0.21428550000000257
        },
        {
          "name": "D#4",
          "midi": 63,
          "time": 32.999966999999984,
          "velocity": 0.7480314960629921,
          "duration": 0.21428550000000257
        },
        {
          "name": "D#5",
          "midi": 75,
          "time": 32.999966999999984,
          "velocity": 0.7480314960629921,
          "duration": 0.21428550000000257
        },
        {
          "name": "D#6",
          "midi": 87,
          "time": 32.999966999999984,
          "velocity": 0.7480314960629921,
          "duration": 0.21428550000000257
        },
        {
          "name": "D#7",
          "midi": 99,
          "time": 32.999966999999984,
          "velocity": 0.7480314960629921,
          "duration": 0.21428550000000257
        },
        {
          "name": "D4",
          "midi": 62,
          "time": 33.214252499999986,
          "velocity": 0.7480314960629921,
          "duration": 0.21428550000000257
        },
        {
          "name": "D5",
          "midi": 74,
          "time": 33.214252499999986,
          "velocity": 0.7480314960629921,
          "duration": 0.21428550000000257
        },
        {
          "name": "D6",
          "midi": 86,
          "time": 33.214252499999986,
          "velocity": 0.7480314960629921,
          "duration": 0.21428550000000257
        },
        {
          "name": "D7",
          "midi": 98,
          "time": 33.214252499999986,
          "velocity": 0.7480314960629921,
          "duration": 0.21428550000000257
        },
        {
          "name": "D#4",
          "midi": 63,
          "time": 33.42853799999999,
          "velocity": 0.7480314960629921,
          "duration": 0.21428550000000257
        },
        {
          "name": "D#5",
          "midi": 75,
          "time": 33.42853799999999,
          "velocity": 0.7480314960629921,
          "duration": 0.21428550000000257
        },
        {
          "name": "D#6",
          "midi": 87,
          "time": 33.42853799999999,
          "velocity": 0.7480314960629921,
          "duration": 0.21428550000000257
        },
        {
          "name": "D#7",
          "midi": 99,
          "time": 33.42853799999999,
          "velocity": 0.7480314960629921,
          "duration": 0.21428550000000257
        },
        {
          "name": "E4",
          "midi": 64,
          "time": 33.64282349999999,
          "velocity": 0.7480314960629921,
          "duration": 0.21428550000000257
        },
        {
          "name": "E5",
          "midi": 76,
          "time": 33.64282349999999,
          "velocity": 0.7480314960629921,
          "duration": 0.21428550000000257
        },
        {
          "name": "E6",
          "midi": 88,
          "time": 33.64282349999999,
          "velocity": 0.7480314960629921,
          "duration": 0.21428550000000257
        },
        {
          "name": "E7",
          "midi": 100,
          "time": 33.64282349999999,
          "velocity": 0.7480314960629921,
          "duration": 0.21428550000000257
        },
        {
          "name": "D#4",
          "midi": 63,
          "time": 33.857108999999994,
          "velocity": 0.7480314960629921,
          "duration": 0.21428550000000257
        },
        {
          "name": "D#5",
          "midi": 75,
          "time": 33.857108999999994,
          "velocity": 0.7480314960629921,
          "duration": 0.21428550000000257
        },
        {
          "name": "D#6",
          "midi": 87,
          "time": 33.857108999999994,
          "velocity": 0.7480314960629921,
          "duration": 0.21428550000000257
        },
        {
          "name": "D#7",
          "midi": 99,
          "time": 33.857108999999994,
          "velocity": 0.7480314960629921,
          "duration": 0.21428550000000257
        },
        {
          "name": "D4",
          "midi": 62,
          "time": 34.0713945,
          "velocity": 0.7480314960629921,
          "duration": 0.21428550000000257
        },
        {
          "name": "D5",
          "midi": 74,
          "time": 34.0713945,
          "velocity": 0.7480314960629921,
          "duration": 0.21428550000000257
        },
        {
          "name": "D6",
          "midi": 86,
          "time": 34.0713945,
          "velocity": 0.7480314960629921,
          "duration": 0.21428550000000257
        },
        {
          "name": "D7",
          "midi": 98,
          "time": 34.0713945,
          "velocity": 0.7480314960629921,
          "duration": 0.21428550000000257
        },
        {
          "name": "C#4",
          "midi": 61,
          "time": 34.28568,
          "velocity": 0.7480314960629921,
          "duration": 0.21428550000000257
        },
        {
          "name": "C#5",
          "midi": 73,
          "time": 34.28568,
          "velocity": 0.7480314960629921,
          "duration": 0.21428550000000257
        },
        {
          "name": "C#6",
          "midi": 85,
          "time": 34.28568,
          "velocity": 0.7480314960629921,
          "duration": 0.21428550000000257
        },
        {
          "name": "C#7",
          "midi": 97,
          "time": 34.28568,
          "velocity": 0.7480314960629921,
          "duration": 0.21428550000000257
        },
        {
          "name": "D4",
          "midi": 62,
          "time": 34.4999655,
          "velocity": 0.7480314960629921,
          "duration": 0.21428550000000257
        },
        {
          "name": "D5",
          "midi": 74,
          "time": 34.4999655,
          "velocity": 0.7480314960629921,
          "duration": 0.21428550000000257
        },
        {
          "name": "D6",
          "midi": 86,
          "time": 34.4999655,
          "velocity": 0.7480314960629921,
          "duration": 0.21428550000000257
        },
        {
          "name": "D7",
          "midi": 98,
          "time": 34.4999655,
          "velocity": 0.7480314960629921,
          "duration": 0.21428550000000257
        },
        {
          "name": "D#4",
          "midi": 63,
          "time": 34.714251000000004,
          "velocity": 0.7480314960629921,
          "duration": 0.21428550000000257
        },
        {
          "name": "D#5",
          "midi": 75,
          "time": 34.714251000000004,
          "velocity": 0.7480314960629921,
          "duration": 0.21428550000000257
        },
        {
          "name": "D#6",
          "midi": 87,
          "time": 34.714251000000004,
          "velocity": 0.7480314960629921,
          "duration": 0.21428550000000257
        },
        {
          "name": "D#7",
          "midi": 99,
          "time": 34.714251000000004,
          "velocity": 0.7480314960629921,
          "duration": 0.21428550000000257
        },
        {
          "name": "D4",
          "midi": 62,
          "time": 34.92853650000001,
          "velocity": 0.7480314960629921,
          "duration": 0.21428550000000257
        },
        {
          "name": "D5",
          "midi": 74,
          "time": 34.92853650000001,
          "velocity": 0.7480314960629921,
          "duration": 0.21428550000000257
        },
        {
          "name": "D6",
          "midi": 86,
          "time": 34.92853650000001,
          "velocity": 0.7480314960629921,
          "duration": 0.21428550000000257
        },
        {
          "name": "D7",
          "midi": 98,
          "time": 34.92853650000001,
          "velocity": 0.7480314960629921,
          "duration": 0.21428550000000257
        },
        {
          "name": "D#4",
          "midi": 63,
          "time": 35.14282200000001,
          "velocity": 0.7480314960629921,
          "duration": 0.21428550000000257
        },
        {
          "name": "D#5",
          "midi": 75,
          "time": 35.14282200000001,
          "velocity": 0.7480314960629921,
          "duration": 0.21428550000000257
        },
        {
          "name": "D#6",
          "midi": 87,
          "time": 35.14282200000001,
          "velocity": 0.7480314960629921,
          "duration": 0.21428550000000257
        },
        {
          "name": "D#7",
          "midi": 99,
          "time": 35.14282200000001,
          "velocity": 0.7480314960629921,
          "duration": 0.21428550000000257
        },
        {
          "name": "E4",
          "midi": 64,
          "time": 35.35710750000001,
          "velocity": 0.7480314960629921,
          "duration": 0.21428550000000257
        },
        {
          "name": "E5",
          "midi": 76,
          "time": 35.35710750000001,
          "velocity": 0.7480314960629921,
          "duration": 0.21428550000000257
        },
        {
          "name": "E6",
          "midi": 88,
          "time": 35.35710750000001,
          "velocity": 0.7480314960629921,
          "duration": 0.21428550000000257
        },
        {
          "name": "E7",
          "midi": 100,
          "time": 35.35710750000001,
          "velocity": 0.7480314960629921,
          "duration": 0.21428550000000257
        },
        {
          "name": "D#4",
          "midi": 63,
          "time": 35.571393000000015,
          "velocity": 0.7480314960629921,
          "duration": 0.21428550000000257
        },
        {
          "name": "D#5",
          "midi": 75,
          "time": 35.571393000000015,
          "velocity": 0.7480314960629921,
          "duration": 0.21428550000000257
        },
        {
          "name": "D#6",
          "midi": 87,
          "time": 35.571393000000015,
          "velocity": 0.7480314960629921,
          "duration": 0.21428550000000257
        },
        {
          "name": "D#7",
          "midi": 99,
          "time": 35.571393000000015,
          "velocity": 0.7480314960629921,
          "duration": 0.21428550000000257
        },
        {
          "name": "D4",
          "midi": 62,
          "time": 35.78567850000002,
          "velocity": 0.7480314960629921,
          "duration": 0.21428550000000257
        },
        {
          "name": "D5",
          "midi": 74,
          "time": 35.78567850000002,
          "velocity": 0.7480314960629921,
          "duration": 0.21428550000000257
        },
        {
          "name": "D6",
          "midi": 86,
          "time": 35.78567850000002,
          "velocity": 0.7480314960629921,
          "duration": 0.21428550000000257
        },
        {
          "name": "D7",
          "midi": 98,
          "time": 35.78567850000002,
          "velocity": 0.7480314960629921,
          "duration": 0.21428550000000257
        },
        {
          "name": "C#4",
          "midi": 61,
          "time": 35.99996400000002,
          "velocity": 0.7480314960629921,
          "duration": 0.21428550000000257
        },
        {
          "name": "C#5",
          "midi": 73,
          "time": 35.99996400000002,
          "velocity": 0.7480314960629921,
          "duration": 0.21428550000000257
        },
        {
          "name": "C#6",
          "midi": 85,
          "time": 35.99996400000002,
          "velocity": 0.7480314960629921,
          "duration": 0.21428550000000257
        },
        {
          "name": "C#7",
          "midi": 97,
          "time": 35.99996400000002,
          "velocity": 0.7480314960629921,
          "duration": 0.21428550000000257
        },
        {
          "name": "D4",
          "midi": 62,
          "time": 36.21424950000002,
          "velocity": 0.7480314960629921,
          "duration": 0.21428550000000257
        },
        {
          "name": "D5",
          "midi": 74,
          "time": 36.21424950000002,
          "velocity": 0.7480314960629921,
          "duration": 0.21428550000000257
        },
        {
          "name": "D6",
          "midi": 86,
          "time": 36.21424950000002,
          "velocity": 0.7480314960629921,
          "duration": 0.21428550000000257
        },
        {
          "name": "D7",
          "midi": 98,
          "time": 36.21424950000002,
          "velocity": 0.7480314960629921,
          "duration": 0.21428550000000257
        },
        {
          "name": "D#4",
          "midi": 63,
          "time": 36.428535000000025,
          "velocity": 0.7480314960629921,
          "duration": 0.21428550000000257
        },
        {
          "name": "D#5",
          "midi": 75,
          "time": 36.428535000000025,
          "velocity": 0.7480314960629921,
          "duration": 0.21428550000000257
        },
        {
          "name": "D#6",
          "midi": 87,
          "time": 36.428535000000025,
          "velocity": 0.7480314960629921,
          "duration": 0.21428550000000257
        },
        {
          "name": "D#7",
          "midi": 99,
          "time": 36.428535000000025,
          "velocity": 0.7480314960629921,
          "duration": 0.21428550000000257
        },
        {
          "name": "D4",
          "midi": 62,
          "time": 36.64282050000003,
          "velocity": 0.7480314960629921,
          "duration": 0.21428550000000257
        },
        {
          "name": "D5",
          "midi": 74,
          "time": 36.64282050000003,
          "velocity": 0.7480314960629921,
          "duration": 0.21428550000000257
        },
        {
          "name": "D6",
          "midi": 86,
          "time": 36.64282050000003,
          "velocity": 0.7480314960629921,
          "duration": 0.21428550000000257
        },
        {
          "name": "D7",
          "midi": 98,
          "time": 36.64282050000003,
          "velocity": 0.7480314960629921,
          "duration": 0.21428550000000257
        },
        {
          "name": "D#4",
          "midi": 63,
          "time": 36.85710600000003,
          "velocity": 0.7480314960629921,
          "duration": 0.21428550000000257
        },
        {
          "name": "D#5",
          "midi": 75,
          "time": 36.85710600000003,
          "velocity": 0.7480314960629921,
          "duration": 0.21428550000000257
        },
        {
          "name": "D#6",
          "midi": 87,
          "time": 36.85710600000003,
          "velocity": 0.7480314960629921,
          "duration": 0.21428550000000257
        },
        {
          "name": "D#7",
          "midi": 99,
          "time": 36.85710600000003,
          "velocity": 0.7480314960629921,
          "duration": 0.21428550000000257
        },
        {
          "name": "E4",
          "midi": 64,
          "time": 37.07139150000003,
          "velocity": 0.7480314960629921,
          "duration": 0.21428550000000257
        },
        {
          "name": "E5",
          "midi": 76,
          "time": 37.07139150000003,
          "velocity": 0.7480314960629921,
          "duration": 0.21428550000000257
        },
        {
          "name": "E6",
          "midi": 88,
          "time": 37.07139150000003,
          "velocity": 0.7480314960629921,
          "duration": 0.21428550000000257
        },
        {
          "name": "E7",
          "midi": 100,
          "time": 37.07139150000003,
          "velocity": 0.7480314960629921,
          "duration": 0.21428550000000257
        },
        {
          "name": "D#4",
          "midi": 63,
          "time": 37.285677000000035,
          "velocity": 0.7480314960629921,
          "duration": 0.21428550000000257
        },
        {
          "name": "D#5",
          "midi": 75,
          "time": 37.285677000000035,
          "velocity": 0.7480314960629921,
          "duration": 0.21428550000000257
        },
        {
          "name": "D#6",
          "midi": 87,
          "time": 37.285677000000035,
          "velocity": 0.7480314960629921,
          "duration": 0.21428550000000257
        },
        {
          "name": "D#7",
          "midi": 99,
          "time": 37.285677000000035,
          "velocity": 0.7480314960629921,
          "duration": 0.21428550000000257
        },
        {
          "name": "D4",
          "midi": 62,
          "time": 37.49996250000004,
          "velocity": 0.7480314960629921,
          "duration": 0.21428550000000257
        },
        {
          "name": "D5",
          "midi": 74,
          "time": 37.49996250000004,
          "velocity": 0.7480314960629921,
          "duration": 0.21428550000000257
        },
        {
          "name": "D6",
          "midi": 86,
          "time": 37.49996250000004,
          "velocity": 0.7480314960629921,
          "duration": 0.21428550000000257
        },
        {
          "name": "D7",
          "midi": 98,
          "time": 37.49996250000004,
          "velocity": 0.7480314960629921,
          "duration": 0.21428550000000257
        },
        {
          "name": "C4",
          "midi": 60,
          "time": 37.71424800000004,
          "velocity": 0.7480314960629921,
          "duration": 0.21428550000000257
        },
        {
          "name": "C5",
          "midi": 72,
          "time": 37.71424800000004,
          "velocity": 0.7480314960629921,
          "duration": 0.21428550000000257
        },
        {
          "name": "C6",
          "midi": 84,
          "time": 37.71424800000004,
          "velocity": 0.7480314960629921,
          "duration": 0.21428550000000257
        },
        {
          "name": "C7",
          "midi": 96,
          "time": 37.71424800000004,
          "velocity": 0.7480314960629921,
          "duration": 0.21428550000000257
        },
        {
          "name": "D4",
          "midi": 62,
          "time": 37.92853350000004,
          "velocity": 0.7480314960629921,
          "duration": 0.21428550000000257
        },
        {
          "name": "D5",
          "midi": 74,
          "time": 37.92853350000004,
          "velocity": 0.7480314960629921,
          "duration": 0.21428550000000257
        },
        {
          "name": "D6",
          "midi": 86,
          "time": 37.92853350000004,
          "velocity": 0.7480314960629921,
          "duration": 0.21428550000000257
        },
        {
          "name": "D7",
          "midi": 98,
          "time": 37.92853350000004,
          "velocity": 0.7480314960629921,
          "duration": 0.21428550000000257
        },
        {
          "name": "D#4",
          "midi": 63,
          "time": 38.142819000000046,
          "velocity": 0.7480314960629921,
          "duration": 0.21428550000000257
        },
        {
          "name": "D#5",
          "midi": 75,
          "time": 38.142819000000046,
          "velocity": 0.7480314960629921,
          "duration": 0.21428550000000257
        },
        {
          "name": "D#6",
          "midi": 87,
          "time": 38.142819000000046,
          "velocity": 0.7480314960629921,
          "duration": 0.21428550000000257
        },
        {
          "name": "D#7",
          "midi": 99,
          "time": 38.142819000000046,
          "velocity": 0.7480314960629921,
          "duration": 0.21428550000000257
        },
        {
          "name": "D4",
          "midi": 62,
          "time": 38.35710450000005,
          "velocity": 0.7480314960629921,
          "duration": 0.21428550000000257
        },
        {
          "name": "D5",
          "midi": 74,
          "time": 38.35710450000005,
          "velocity": 0.7480314960629921,
          "duration": 0.21428550000000257
        },
        {
          "name": "D6",
          "midi": 86,
          "time": 38.35710450000005,
          "velocity": 0.7480314960629921,
          "duration": 0.21428550000000257
        },
        {
          "name": "D7",
          "midi": 98,
          "time": 38.35710450000005,
          "velocity": 0.7480314960629921,
          "duration": 0.21428550000000257
        },
        {
          "name": "D#4",
          "midi": 63,
          "time": 38.57139000000005,
          "velocity": 0.7480314960629921,
          "duration": 0.21428550000000257
        },
        {
          "name": "D#5",
          "midi": 75,
          "time": 38.57139000000005,
          "velocity": 0.7480314960629921,
          "duration": 0.21428550000000257
        },
        {
          "name": "D#6",
          "midi": 87,
          "time": 38.57139000000005,
          "velocity": 0.7480314960629921,
          "duration": 0.21428550000000257
        },
        {
          "name": "D#7",
          "midi": 99,
          "time": 38.57139000000005,
          "velocity": 0.7480314960629921,
          "duration": 0.21428550000000257
        },
        {
          "name": "E4",
          "midi": 64,
          "time": 38.78567550000005,
          "velocity": 0.7480314960629921,
          "duration": 0.21428550000000257
        },
        {
          "name": "E5",
          "midi": 76,
          "time": 38.78567550000005,
          "velocity": 0.7480314960629921,
          "duration": 0.21428550000000257
        },
        {
          "name": "E6",
          "midi": 88,
          "time": 38.78567550000005,
          "velocity": 0.7480314960629921,
          "duration": 0.21428550000000257
        },
        {
          "name": "E7",
          "midi": 100,
          "time": 38.78567550000005,
          "velocity": 0.7480314960629921,
          "duration": 0.21428550000000257
        },
        {
          "name": "D#4",
          "midi": 63,
          "time": 38.999961000000056,
          "velocity": 0.7480314960629921,
          "duration": 0.21428550000000257
        },
        {
          "name": "D#5",
          "midi": 75,
          "time": 38.999961000000056,
          "velocity": 0.7480314960629921,
          "duration": 0.21428550000000257
        },
        {
          "name": "D#6",
          "midi": 87,
          "time": 38.999961000000056,
          "velocity": 0.7480314960629921,
          "duration": 0.21428550000000257
        },
        {
          "name": "D#7",
          "midi": 99,
          "time": 38.999961000000056,
          "velocity": 0.7480314960629921,
          "duration": 0.21428550000000257
        },
        {
          "name": "D4",
          "midi": 62,
          "time": 39.21424650000006,
          "velocity": 0.7480314960629921,
          "duration": 0.21428550000000257
        },
        {
          "name": "D5",
          "midi": 74,
          "time": 39.21424650000006,
          "velocity": 0.7480314960629921,
          "duration": 0.21428550000000257
        },
        {
          "name": "D6",
          "midi": 86,
          "time": 39.21424650000006,
          "velocity": 0.7480314960629921,
          "duration": 0.21428550000000257
        },
        {
          "name": "D7",
          "midi": 98,
          "time": 39.21424650000006,
          "velocity": 0.7480314960629921,
          "duration": 0.21428550000000257
        },
        {
          "name": "C4",
          "midi": 60,
          "time": 39.42853200000006,
          "velocity": 0.7480314960629921,
          "duration": 0.21428550000000257
        },
        {
          "name": "C5",
          "midi": 72,
          "time": 39.42853200000006,
          "velocity": 0.7480314960629921,
          "duration": 0.21428550000000257
        },
        {
          "name": "C6",
          "midi": 84,
          "time": 39.42853200000006,
          "velocity": 0.7480314960629921,
          "duration": 0.21428550000000257
        },
        {
          "name": "C7",
          "midi": 96,
          "time": 39.42853200000006,
          "velocity": 0.7480314960629921,
          "duration": 0.21428550000000257
        },
        {
          "name": "D4",
          "midi": 62,
          "time": 39.64281750000006,
          "velocity": 0.7480314960629921,
          "duration": 0.21428550000000257
        },
        {
          "name": "D5",
          "midi": 74,
          "time": 39.64281750000006,
          "velocity": 0.7480314960629921,
          "duration": 0.21428550000000257
        },
        {
          "name": "D6",
          "midi": 86,
          "time": 39.64281750000006,
          "velocity": 0.7480314960629921,
          "duration": 0.21428550000000257
        },
        {
          "name": "D7",
          "midi": 98,
          "time": 39.64281750000006,
          "velocity": 0.7480314960629921,
          "duration": 0.21428550000000257
        },
        {
          "name": "D#4",
          "midi": 63,
          "time": 39.857103000000066,
          "velocity": 0.7480314960629921,
          "duration": 0.21428550000000257
        },
        {
          "name": "D#5",
          "midi": 75,
          "time": 39.857103000000066,
          "velocity": 0.7480314960629921,
          "duration": 0.21428550000000257
        },
        {
          "name": "D#6",
          "midi": 87,
          "time": 39.857103000000066,
          "velocity": 0.7480314960629921,
          "duration": 0.21428550000000257
        },
        {
          "name": "D#7",
          "midi": 99,
          "time": 39.857103000000066,
          "velocity": 0.7480314960629921,
          "duration": 0.21428550000000257
        },
        {
          "name": "D4",
          "midi": 62,
          "time": 40.07138850000007,
          "velocity": 0.7480314960629921,
          "duration": 0.21428550000000257
        },
        {
          "name": "D5",
          "midi": 74,
          "time": 40.07138850000007,
          "velocity": 0.7480314960629921,
          "duration": 0.21428550000000257
        },
        {
          "name": "D6",
          "midi": 86,
          "time": 40.07138850000007,
          "velocity": 0.7480314960629921,
          "duration": 0.21428550000000257
        },
        {
          "name": "D7",
          "midi": 98,
          "time": 40.07138850000007,
          "velocity": 0.7480314960629921,
          "duration": 0.21428550000000257
        },
        {
          "name": "D#4",
          "midi": 63,
          "time": 40.28567400000007,
          "velocity": 0.7480314960629921,
          "duration": 0.21428550000000257
        },
        {
          "name": "D#5",
          "midi": 75,
          "time": 40.28567400000007,
          "velocity": 0.7480314960629921,
          "duration": 0.21428550000000257
        },
        {
          "name": "D#6",
          "midi": 87,
          "time": 40.28567400000007,
          "velocity": 0.7480314960629921,
          "duration": 0.21428550000000257
        },
        {
          "name": "D#7",
          "midi": 99,
          "time": 40.28567400000007,
          "velocity": 0.7480314960629921,
          "duration": 0.21428550000000257
        },
        {
          "name": "E4",
          "midi": 64,
          "time": 40.499959500000074,
          "velocity": 0.7480314960629921,
          "duration": 0.21428550000000257
        },
        {
          "name": "E5",
          "midi": 76,
          "time": 40.499959500000074,
          "velocity": 0.7480314960629921,
          "duration": 0.21428550000000257
        },
        {
          "name": "E6",
          "midi": 88,
          "time": 40.499959500000074,
          "velocity": 0.7480314960629921,
          "duration": 0.21428550000000257
        },
        {
          "name": "E7",
          "midi": 100,
          "time": 40.499959500000074,
          "velocity": 0.7480314960629921,
          "duration": 0.21428550000000257
        },
        {
          "name": "D#4",
          "midi": 63,
          "time": 40.714245000000076,
          "velocity": 0.7480314960629921,
          "duration": 0.21428550000000257
        },
        {
          "name": "D#5",
          "midi": 75,
          "time": 40.714245000000076,
          "velocity": 0.7480314960629921,
          "duration": 0.21428550000000257
        },
        {
          "name": "D#6",
          "midi": 87,
          "time": 40.714245000000076,
          "velocity": 0.7480314960629921,
          "duration": 0.21428550000000257
        },
        {
          "name": "D#7",
          "midi": 99,
          "time": 40.714245000000076,
          "velocity": 0.7480314960629921,
          "duration": 0.21428550000000257
        },
        {
          "name": "D4",
          "midi": 62,
          "time": 40.92853050000008,
          "velocity": 0.7480314960629921,
          "duration": 0.21428550000000257
        },
        {
          "name": "D5",
          "midi": 74,
          "time": 40.92853050000008,
          "velocity": 0.7480314960629921,
          "duration": 0.21428550000000257
        },
        {
          "name": "D6",
          "midi": 86,
          "time": 40.92853050000008,
          "velocity": 0.7480314960629921,
          "duration": 0.21428550000000257
        },
        {
          "name": "D7",
          "midi": 98,
          "time": 40.92853050000008,
          "velocity": 0.7480314960629921,
          "duration": 0.21428550000000257
        },
        {
          "name": "C#4",
          "midi": 61,
          "time": 41.14281600000008,
          "velocity": 0.7480314960629921,
          "duration": 0.21428550000000257
        },
        {
          "name": "C#5",
          "midi": 73,
          "time": 41.14281600000008,
          "velocity": 0.7480314960629921,
          "duration": 0.21428550000000257
        },
        {
          "name": "C#6",
          "midi": 85,
          "time": 41.14281600000008,
          "velocity": 0.7480314960629921,
          "duration": 0.21428550000000257
        },
        {
          "name": "C#7",
          "midi": 97,
          "time": 41.14281600000008,
          "velocity": 0.7480314960629921,
          "duration": 0.21428550000000257
        },
        {
          "name": "D4",
          "midi": 62,
          "time": 41.357101500000084,
          "velocity": 0.7480314960629921,
          "duration": 0.21428550000000257
        },
        {
          "name": "D5",
          "midi": 74,
          "time": 41.357101500000084,
          "velocity": 0.7480314960629921,
          "duration": 0.21428550000000257
        },
        {
          "name": "D6",
          "midi": 86,
          "time": 41.357101500000084,
          "velocity": 0.7480314960629921,
          "duration": 0.21428550000000257
        },
        {
          "name": "D7",
          "midi": 98,
          "time": 41.357101500000084,
          "velocity": 0.7480314960629921,
          "duration": 0.21428550000000257
        },
        {
          "name": "D#4",
          "midi": 63,
          "time": 41.57138700000009,
          "velocity": 0.7480314960629921,
          "duration": 0.21428550000000257
        },
        {
          "name": "D#5",
          "midi": 75,
          "time": 41.57138700000009,
          "velocity": 0.7480314960629921,
          "duration": 0.21428550000000257
        },
        {
          "name": "D#6",
          "midi": 87,
          "time": 41.57138700000009,
          "velocity": 0.7480314960629921,
          "duration": 0.21428550000000257
        },
        {
          "name": "D#7",
          "midi": 99,
          "time": 41.57138700000009,
          "velocity": 0.7480314960629921,
          "duration": 0.21428550000000257
        },
        {
          "name": "D4",
          "midi": 62,
          "time": 41.78567250000009,
          "velocity": 0.7480314960629921,
          "duration": 0.21428550000000257
        },
        {
          "name": "D5",
          "midi": 74,
          "time": 41.78567250000009,
          "velocity": 0.7480314960629921,
          "duration": 0.21428550000000257
        },
        {
          "name": "D6",
          "midi": 86,
          "time": 41.78567250000009,
          "velocity": 0.7480314960629921,
          "duration": 0.21428550000000257
        },
        {
          "name": "D7",
          "midi": 98,
          "time": 41.78567250000009,
          "velocity": 0.7480314960629921,
          "duration": 0.21428550000000257
        },
        {
          "name": "D#4",
          "midi": 63,
          "time": 41.99995800000009,
          "velocity": 0.7480314960629921,
          "duration": 0.21428550000000257
        },
        {
          "name": "D#5",
          "midi": 75,
          "time": 41.99995800000009,
          "velocity": 0.7480314960629921,
          "duration": 0.21428550000000257
        },
        {
          "name": "D#6",
          "midi": 87,
          "time": 41.99995800000009,
          "velocity": 0.7480314960629921,
          "duration": 0.21428550000000257
        },
        {
          "name": "D#7",
          "midi": 99,
          "time": 41.99995800000009,
          "velocity": 0.7480314960629921,
          "duration": 0.21428550000000257
        },
        {
          "name": "E4",
          "midi": 64,
          "time": 42.214243500000094,
          "velocity": 0.7480314960629921,
          "duration": 0.21428550000000257
        },
        {
          "name": "E5",
          "midi": 76,
          "time": 42.214243500000094,
          "velocity": 0.7480314960629921,
          "duration": 0.21428550000000257
        },
        {
          "name": "E6",
          "midi": 88,
          "time": 42.214243500000094,
          "velocity": 0.7480314960629921,
          "duration": 0.21428550000000257
        },
        {
          "name": "E7",
          "midi": 100,
          "time": 42.214243500000094,
          "velocity": 0.7480314960629921,
          "duration": 0.21428550000000257
        },
        {
          "name": "D#4",
          "midi": 63,
          "time": 42.4285290000001,
          "velocity": 0.7480314960629921,
          "duration": 0.21428550000000257
        },
        {
          "name": "D#5",
          "midi": 75,
          "time": 42.4285290000001,
          "velocity": 0.7480314960629921,
          "duration": 0.21428550000000257
        },
        {
          "name": "D#6",
          "midi": 87,
          "time": 42.4285290000001,
          "velocity": 0.7480314960629921,
          "duration": 0.21428550000000257
        },
        {
          "name": "D#7",
          "midi": 99,
          "time": 42.4285290000001,
          "velocity": 0.7480314960629921,
          "duration": 0.21428550000000257
        },
        {
          "name": "D4",
          "midi": 62,
          "time": 42.6428145000001,
          "velocity": 0.7480314960629921,
          "duration": 0.21428550000000257
        },
        {
          "name": "D5",
          "midi": 74,
          "time": 42.6428145000001,
          "velocity": 0.7480314960629921,
          "duration": 0.21428550000000257
        },
        {
          "name": "D6",
          "midi": 86,
          "time": 42.6428145000001,
          "velocity": 0.7480314960629921,
          "duration": 0.21428550000000257
        },
        {
          "name": "D7",
          "midi": 98,
          "time": 42.6428145000001,
          "velocity": 0.7480314960629921,
          "duration": 0.21428550000000257
        },
        {
          "name": "C#4",
          "midi": 61,
          "time": 42.8571000000001,
          "velocity": 0.7480314960629921,
          "duration": 0.21428550000000257
        },
        {
          "name": "C#5",
          "midi": 73,
          "time": 42.8571000000001,
          "velocity": 0.7480314960629921,
          "duration": 0.21428550000000257
        },
        {
          "name": "C#6",
          "midi": 85,
          "time": 42.8571000000001,
          "velocity": 0.7480314960629921,
          "duration": 0.21428550000000257
        },
        {
          "name": "C#7",
          "midi": 97,
          "time": 42.8571000000001,
          "velocity": 0.7480314960629921,
          "duration": 0.21428550000000257
        },
        {
          "name": "D4",
          "midi": 62,
          "time": 43.071385500000105,
          "velocity": 0.7480314960629921,
          "duration": 0.21428550000000257
        },
        {
          "name": "D5",
          "midi": 74,
          "time": 43.071385500000105,
          "velocity": 0.7480314960629921,
          "duration": 0.21428550000000257
        },
        {
          "name": "D6",
          "midi": 86,
          "time": 43.071385500000105,
          "velocity": 0.7480314960629921,
          "duration": 0.21428550000000257
        },
        {
          "name": "D7",
          "midi": 98,
          "time": 43.071385500000105,
          "velocity": 0.7480314960629921,
          "duration": 0.21428550000000257
        },
        {
          "name": "D#4",
          "midi": 63,
          "time": 43.28567100000011,
          "velocity": 0.7480314960629921,
          "duration": 0.21428550000000257
        },
        {
          "name": "D#5",
          "midi": 75,
          "time": 43.28567100000011,
          "velocity": 0.7480314960629921,
          "duration": 0.21428550000000257
        },
        {
          "name": "D#6",
          "midi": 87,
          "time": 43.28567100000011,
          "velocity": 0.7480314960629921,
          "duration": 0.21428550000000257
        },
        {
          "name": "D#7",
          "midi": 99,
          "time": 43.28567100000011,
          "velocity": 0.7480314960629921,
          "duration": 0.21428550000000257
        },
        {
          "name": "D4",
          "midi": 62,
          "time": 43.49995650000011,
          "velocity": 0.7480314960629921,
          "duration": 0.21428550000000257
        },
        {
          "name": "D5",
          "midi": 74,
          "time": 43.49995650000011,
          "velocity": 0.7480314960629921,
          "duration": 0.21428550000000257
        },
        {
          "name": "D6",
          "midi": 86,
          "time": 43.49995650000011,
          "velocity": 0.7480314960629921,
          "duration": 0.21428550000000257
        },
        {
          "name": "D7",
          "midi": 98,
          "time": 43.49995650000011,
          "velocity": 0.7480314960629921,
          "duration": 0.21428550000000257
        },
        {
          "name": "D#4",
          "midi": 63,
          "time": 43.71424200000011,
          "velocity": 0.7480314960629921,
          "duration": 0.21428550000000257
        },
        {
          "name": "D#5",
          "midi": 75,
          "time": 43.71424200000011,
          "velocity": 0.7480314960629921,
          "duration": 0.21428550000000257
        },
        {
          "name": "D#6",
          "midi": 87,
          "time": 43.71424200000011,
          "velocity": 0.7480314960629921,
          "duration": 0.21428550000000257
        },
        {
          "name": "D#7",
          "midi": 99,
          "time": 43.71424200000011,
          "velocity": 0.7480314960629921,
          "duration": 0.21428550000000257
        },
        {
          "name": "E4",
          "midi": 64,
          "time": 43.928527500000115,
          "velocity": 0.7480314960629921,
          "duration": 0.21428550000000257
        },
        {
          "name": "E5",
          "midi": 76,
          "time": 43.928527500000115,
          "velocity": 0.7480314960629921,
          "duration": 0.21428550000000257
        },
        {
          "name": "E6",
          "midi": 88,
          "time": 43.928527500000115,
          "velocity": 0.7480314960629921,
          "duration": 0.21428550000000257
        },
        {
          "name": "E7",
          "midi": 100,
          "time": 43.928527500000115,
          "velocity": 0.7480314960629921,
          "duration": 0.21428550000000257
        },
        {
          "name": "D#4",
          "midi": 63,
          "time": 44.14281300000012,
          "velocity": 0.7480314960629921,
          "duration": 0.21428550000000257
        },
        {
          "name": "D#5",
          "midi": 75,
          "time": 44.14281300000012,
          "velocity": 0.7480314960629921,
          "duration": 0.21428550000000257
        },
        {
          "name": "D#6",
          "midi": 87,
          "time": 44.14281300000012,
          "velocity": 0.7480314960629921,
          "duration": 0.21428550000000257
        },
        {
          "name": "D#7",
          "midi": 99,
          "time": 44.14281300000012,
          "velocity": 0.7480314960629921,
          "duration": 0.21428550000000257
        },
        {
          "name": "D4",
          "midi": 62,
          "time": 44.35709850000012,
          "velocity": 0.7480314960629921,
          "duration": 0.21428550000000257
        },
        {
          "name": "D5",
          "midi": 74,
          "time": 44.35709850000012,
          "velocity": 0.7480314960629921,
          "duration": 0.21428550000000257
        },
        {
          "name": "D6",
          "midi": 86,
          "time": 44.35709850000012,
          "velocity": 0.7480314960629921,
          "duration": 0.21428550000000257
        },
        {
          "name": "D7",
          "midi": 98,
          "time": 44.35709850000012,
          "velocity": 0.7480314960629921,
          "duration": 0.21428550000000257
        },
        {
          "name": "C#4",
          "midi": 61,
          "time": 44.57138400000012,
          "velocity": 0.7480314960629921,
          "duration": 0.21428550000000257
        },
        {
          "name": "C#5",
          "midi": 73,
          "time": 44.57138400000012,
          "velocity": 0.7480314960629921,
          "duration": 0.21428550000000257
        },
        {
          "name": "C#6",
          "midi": 85,
          "time": 44.57138400000012,
          "velocity": 0.7480314960629921,
          "duration": 0.21428550000000257
        },
        {
          "name": "C#7",
          "midi": 97,
          "time": 44.57138400000012,
          "velocity": 0.7480314960629921,
          "duration": 0.21428550000000257
        },
        {
          "name": "D4",
          "midi": 62,
          "time": 44.785669500000125,
          "velocity": 0.7480314960629921,
          "duration": 0.21428550000000257
        },
        {
          "name": "D5",
          "midi": 74,
          "time": 44.785669500000125,
          "velocity": 0.7480314960629921,
          "duration": 0.21428550000000257
        },
        {
          "name": "D6",
          "midi": 86,
          "time": 44.785669500000125,
          "velocity": 0.7480314960629921,
          "duration": 0.21428550000000257
        },
        {
          "name": "D7",
          "midi": 98,
          "time": 44.785669500000125,
          "velocity": 0.7480314960629921,
          "duration": 0.21428550000000257
        },
        {
          "name": "D#4",
          "midi": 63,
          "time": 44.99995500000013,
          "velocity": 0.7480314960629921,
          "duration": 0.21428550000000257
        },
        {
          "name": "D#5",
          "midi": 75,
          "time": 44.99995500000013,
          "velocity": 0.7480314960629921,
          "duration": 0.21428550000000257
        },
        {
          "name": "D#6",
          "midi": 87,
          "time": 44.99995500000013,
          "velocity": 0.7480314960629921,
          "duration": 0.21428550000000257
        },
        {
          "name": "D#7",
          "midi": 99,
          "time": 44.99995500000013,
          "velocity": 0.7480314960629921,
          "duration": 0.21428550000000257
        },
        {
          "name": "D4",
          "midi": 62,
          "time": 45.21424050000013,
          "velocity": 0.7480314960629921,
          "duration": 0.21428550000000257
        },
        {
          "name": "D5",
          "midi": 74,
          "time": 45.21424050000013,
          "velocity": 0.7480314960629921,
          "duration": 0.21428550000000257
        },
        {
          "name": "D6",
          "midi": 86,
          "time": 45.21424050000013,
          "velocity": 0.7480314960629921,
          "duration": 0.21428550000000257
        },
        {
          "name": "D7",
          "midi": 98,
          "time": 45.21424050000013,
          "velocity": 0.7480314960629921,
          "duration": 0.21428550000000257
        },
        {
          "name": "D#4",
          "midi": 63,
          "time": 45.42852600000013,
          "velocity": 0.7480314960629921,
          "duration": 0.21428550000000257
        },
        {
          "name": "D#5",
          "midi": 75,
          "time": 45.42852600000013,
          "velocity": 0.7480314960629921,
          "duration": 0.21428550000000257
        },
        {
          "name": "D#6",
          "midi": 87,
          "time": 45.42852600000013,
          "velocity": 0.7480314960629921,
          "duration": 0.21428550000000257
        },
        {
          "name": "D#7",
          "midi": 99,
          "time": 45.42852600000013,
          "velocity": 0.7480314960629921,
          "duration": 0.21428550000000257
        },
        {
          "name": "E4",
          "midi": 64,
          "time": 45.642811500000136,
          "velocity": 0.7480314960629921,
          "duration": 0.21428550000000257
        },
        {
          "name": "E5",
          "midi": 76,
          "time": 45.642811500000136,
          "velocity": 0.7480314960629921,
          "duration": 0.21428550000000257
        },
        {
          "name": "E6",
          "midi": 88,
          "time": 45.642811500000136,
          "velocity": 0.7480314960629921,
          "duration": 0.21428550000000257
        },
        {
          "name": "E7",
          "midi": 100,
          "time": 45.642811500000136,
          "velocity": 0.7480314960629921,
          "duration": 0.21428550000000257
        },
        {
          "name": "D#4",
          "midi": 63,
          "time": 45.85709700000014,
          "velocity": 0.7480314960629921,
          "duration": 0.21428550000000257
        },
        {
          "name": "D#5",
          "midi": 75,
          "time": 45.85709700000014,
          "velocity": 0.7480314960629921,
          "duration": 0.21428550000000257
        },
        {
          "name": "D#6",
          "midi": 87,
          "time": 45.85709700000014,
          "velocity": 0.7480314960629921,
          "duration": 0.21428550000000257
        },
        {
          "name": "D#7",
          "midi": 99,
          "time": 45.85709700000014,
          "velocity": 0.7480314960629921,
          "duration": 0.21428550000000257
        },
        {
          "name": "D4",
          "midi": 62,
          "time": 46.07138250000014,
          "velocity": 0.7480314960629921,
          "duration": 0.21428550000000257
        },
        {
          "name": "D5",
          "midi": 74,
          "time": 46.07138250000014,
          "velocity": 0.7480314960629921,
          "duration": 0.21428550000000257
        },
        {
          "name": "D6",
          "midi": 86,
          "time": 46.07138250000014,
          "velocity": 0.7480314960629921,
          "duration": 0.21428550000000257
        },
        {
          "name": "D7",
          "midi": 98,
          "time": 46.07138250000014,
          "velocity": 0.7480314960629921,
          "duration": 0.21428550000000257
        },
        {
          "name": "C#4",
          "midi": 61,
          "time": 46.28566800000014,
          "velocity": 0.7480314960629921,
          "duration": 0.21428550000000257
        },
        {
          "name": "C#5",
          "midi": 73,
          "time": 46.28566800000014,
          "velocity": 0.7480314960629921,
          "duration": 0.21428550000000257
        },
        {
          "name": "C#6",
          "midi": 85,
          "time": 46.28566800000014,
          "velocity": 0.7480314960629921,
          "duration": 0.21428550000000257
        },
        {
          "name": "C#7",
          "midi": 97,
          "time": 46.28566800000014,
          "velocity": 0.7480314960629921,
          "duration": 0.21428550000000257
        },
        {
          "name": "D4",
          "midi": 62,
          "time": 46.499953500000146,
          "velocity": 0.7480314960629921,
          "duration": 0.21428550000000257
        },
        {
          "name": "D5",
          "midi": 74,
          "time": 46.499953500000146,
          "velocity": 0.7480314960629921,
          "duration": 0.21428550000000257
        },
        {
          "name": "D6",
          "midi": 86,
          "time": 46.499953500000146,
          "velocity": 0.7480314960629921,
          "duration": 0.21428550000000257
        },
        {
          "name": "D7",
          "midi": 98,
          "time": 46.499953500000146,
          "velocity": 0.7480314960629921,
          "duration": 0.21428550000000257
        },
        {
          "name": "D#4",
          "midi": 63,
          "time": 46.71423900000015,
          "velocity": 0.7480314960629921,
          "duration": 0.21428550000000257
        },
        {
          "name": "D#5",
          "midi": 75,
          "time": 46.71423900000015,
          "velocity": 0.7480314960629921,
          "duration": 0.21428550000000257
        },
        {
          "name": "D#6",
          "midi": 87,
          "time": 46.71423900000015,
          "velocity": 0.7480314960629921,
          "duration": 0.21428550000000257
        },
        {
          "name": "D#7",
          "midi": 99,
          "time": 46.71423900000015,
          "velocity": 0.7480314960629921,
          "duration": 0.21428550000000257
        },
        {
          "name": "D4",
          "midi": 62,
          "time": 46.92852450000015,
          "velocity": 0.7480314960629921,
          "duration": 0.21428550000000257
        },
        {
          "name": "D5",
          "midi": 74,
          "time": 46.92852450000015,
          "velocity": 0.7480314960629921,
          "duration": 0.21428550000000257
        },
        {
          "name": "D6",
          "midi": 86,
          "time": 46.92852450000015,
          "velocity": 0.7480314960629921,
          "duration": 0.21428550000000257
        },
        {
          "name": "D7",
          "midi": 98,
          "time": 46.92852450000015,
          "velocity": 0.7480314960629921,
          "duration": 0.21428550000000257
        },
        {
          "name": "D#4",
          "midi": 63,
          "time": 47.14281000000015,
          "velocity": 0.7480314960629921,
          "duration": 0.21428550000000257
        },
        {
          "name": "D#5",
          "midi": 75,
          "time": 47.14281000000015,
          "velocity": 0.7480314960629921,
          "duration": 0.21428550000000257
        },
        {
          "name": "D#6",
          "midi": 87,
          "time": 47.14281000000015,
          "velocity": 0.7480314960629921,
          "duration": 0.21428550000000257
        },
        {
          "name": "D#7",
          "midi": 99,
          "time": 47.14281000000015,
          "velocity": 0.7480314960629921,
          "duration": 0.21428550000000257
        },
        {
          "name": "E4",
          "midi": 64,
          "time": 47.357095500000156,
          "velocity": 0.7480314960629921,
          "duration": 0.21428550000000257
        },
        {
          "name": "E5",
          "midi": 76,
          "time": 47.357095500000156,
          "velocity": 0.7480314960629921,
          "duration": 0.21428550000000257
        },
        {
          "name": "E6",
          "midi": 88,
          "time": 47.357095500000156,
          "velocity": 0.7480314960629921,
          "duration": 0.21428550000000257
        },
        {
          "name": "E7",
          "midi": 100,
          "time": 47.357095500000156,
          "velocity": 0.7480314960629921,
          "duration": 0.21428550000000257
        },
        {
          "name": "D#4",
          "midi": 63,
          "time": 47.57138100000016,
          "velocity": 0.7480314960629921,
          "duration": 0.21428550000000257
        },
        {
          "name": "D#5",
          "midi": 75,
          "time": 47.57138100000016,
          "velocity": 0.7480314960629921,
          "duration": 0.21428550000000257
        },
        {
          "name": "D#6",
          "midi": 87,
          "time": 47.57138100000016,
          "velocity": 0.7480314960629921,
          "duration": 0.21428550000000257
        },
        {
          "name": "D#7",
          "midi": 99,
          "time": 47.57138100000016,
          "velocity": 0.7480314960629921,
          "duration": 0.21428550000000257
        },
        {
          "name": "D4",
          "midi": 62,
          "time": 47.78566650000016,
          "velocity": 0.7480314960629921,
          "duration": 0.21428550000000257
        },
        {
          "name": "D5",
          "midi": 74,
          "time": 47.78566650000016,
          "velocity": 0.7480314960629921,
          "duration": 0.21428550000000257
        },
        {
          "name": "D6",
          "midi": 86,
          "time": 47.78566650000016,
          "velocity": 0.7480314960629921,
          "duration": 0.21428550000000257
        },
        {
          "name": "D7",
          "midi": 98,
          "time": 47.78566650000016,
          "velocity": 0.7480314960629921,
          "duration": 0.21428550000000257
        },
        {
          "name": "C#4",
          "midi": 61,
          "time": 47.999952000000164,
          "velocity": 0.7480314960629921,
          "duration": 0.21428550000000257
        },
        {
          "name": "C#5",
          "midi": 73,
          "time": 47.999952000000164,
          "velocity": 0.7480314960629921,
          "duration": 0.21428550000000257
        },
        {
          "name": "C#6",
          "midi": 85,
          "time": 47.999952000000164,
          "velocity": 0.7480314960629921,
          "duration": 0.21428550000000257
        },
        {
          "name": "C#7",
          "midi": 97,
          "time": 47.999952000000164,
          "velocity": 0.7480314960629921,
          "duration": 0.21428550000000257
        },
        {
          "name": "D4",
          "midi": 62,
          "time": 48.214237500000166,
          "velocity": 0.7480314960629921,
          "duration": 0.21428550000000257
        },
        {
          "name": "D5",
          "midi": 74,
          "time": 48.214237500000166,
          "velocity": 0.7480314960629921,
          "duration": 0.21428550000000257
        },
        {
          "name": "D6",
          "midi": 86,
          "time": 48.214237500000166,
          "velocity": 0.7480314960629921,
          "duration": 0.21428550000000257
        },
        {
          "name": "D7",
          "midi": 98,
          "time": 48.214237500000166,
          "velocity": 0.7480314960629921,
          "duration": 0.21428550000000257
        },
        {
          "name": "D#4",
          "midi": 63,
          "time": 48.42852300000017,
          "velocity": 0.7480314960629921,
          "duration": 0.21428550000000257
        },
        {
          "name": "D#5",
          "midi": 75,
          "time": 48.42852300000017,
          "velocity": 0.7480314960629921,
          "duration": 0.21428550000000257
        },
        {
          "name": "D#6",
          "midi": 87,
          "time": 48.42852300000017,
          "velocity": 0.7480314960629921,
          "duration": 0.21428550000000257
        },
        {
          "name": "D#7",
          "midi": 99,
          "time": 48.42852300000017,
          "velocity": 0.7480314960629921,
          "duration": 0.21428550000000257
        },
        {
          "name": "D4",
          "midi": 62,
          "time": 48.64280850000017,
          "velocity": 0.7480314960629921,
          "duration": 0.21428550000000257
        },
        {
          "name": "D5",
          "midi": 74,
          "time": 48.64280850000017,
          "velocity": 0.7480314960629921,
          "duration": 0.21428550000000257
        },
        {
          "name": "D6",
          "midi": 86,
          "time": 48.64280850000017,
          "velocity": 0.7480314960629921,
          "duration": 0.21428550000000257
        },
        {
          "name": "D7",
          "midi": 98,
          "time": 48.64280850000017,
          "velocity": 0.7480314960629921,
          "duration": 0.21428550000000257
        },
        {
          "name": "D#4",
          "midi": 63,
          "time": 48.857094000000174,
          "velocity": 0.7480314960629921,
          "duration": 0.21428550000000257
        },
        {
          "name": "D#5",
          "midi": 75,
          "time": 48.857094000000174,
          "velocity": 0.7480314960629921,
          "duration": 0.21428550000000257
        },
        {
          "name": "D#6",
          "midi": 87,
          "time": 48.857094000000174,
          "velocity": 0.7480314960629921,
          "duration": 0.21428550000000257
        },
        {
          "name": "D#7",
          "midi": 99,
          "time": 48.857094000000174,
          "velocity": 0.7480314960629921,
          "duration": 0.21428550000000257
        },
        {
          "name": "E4",
          "midi": 64,
          "time": 49.07137950000018,
          "velocity": 0.7480314960629921,
          "duration": 0.21428550000000257
        },
        {
          "name": "E5",
          "midi": 76,
          "time": 49.07137950000018,
          "velocity": 0.7480314960629921,
          "duration": 0.21428550000000257
        },
        {
          "name": "E6",
          "midi": 88,
          "time": 49.07137950000018,
          "velocity": 0.7480314960629921,
          "duration": 0.21428550000000257
        },
        {
          "name": "E7",
          "midi": 100,
          "time": 49.07137950000018,
          "velocity": 0.7480314960629921,
          "duration": 0.21428550000000257
        },
        {
          "name": "D#4",
          "midi": 63,
          "time": 49.28566500000018,
          "velocity": 0.7480314960629921,
          "duration": 0.21428550000000257
        },
        {
          "name": "D#5",
          "midi": 75,
          "time": 49.28566500000018,
          "velocity": 0.7480314960629921,
          "duration": 0.21428550000000257
        },
        {
          "name": "D#6",
          "midi": 87,
          "time": 49.28566500000018,
          "velocity": 0.7480314960629921,
          "duration": 0.21428550000000257
        },
        {
          "name": "D#7",
          "midi": 99,
          "time": 49.28566500000018,
          "velocity": 0.7480314960629921,
          "duration": 0.21428550000000257
        },
        {
          "name": "D4",
          "midi": 62,
          "time": 49.49995050000018,
          "velocity": 0.7480314960629921,
          "duration": 0.21428550000000257
        },
        {
          "name": "D5",
          "midi": 74,
          "time": 49.49995050000018,
          "velocity": 0.7480314960629921,
          "duration": 0.21428550000000257
        },
        {
          "name": "D6",
          "midi": 86,
          "time": 49.49995050000018,
          "velocity": 0.7480314960629921,
          "duration": 0.21428550000000257
        },
        {
          "name": "D7",
          "midi": 98,
          "time": 49.49995050000018,
          "velocity": 0.7480314960629921,
          "duration": 0.21428550000000257
        },
        {
          "name": "C#4",
          "midi": 61,
          "time": 49.714236000000184,
          "velocity": 0.7480314960629921,
          "duration": 0.21428550000000257
        },
        {
          "name": "C#5",
          "midi": 73,
          "time": 49.714236000000184,
          "velocity": 0.7480314960629921,
          "duration": 0.21428550000000257
        },
        {
          "name": "C#6",
          "midi": 85,
          "time": 49.714236000000184,
          "velocity": 0.7480314960629921,
          "duration": 0.21428550000000257
        },
        {
          "name": "C#7",
          "midi": 97,
          "time": 49.714236000000184,
          "velocity": 0.7480314960629921,
          "duration": 0.21428550000000257
        },
        {
          "name": "D4",
          "midi": 62,
          "time": 49.92852150000019,
          "velocity": 0.7480314960629921,
          "duration": 0.21428550000000257
        },
        {
          "name": "D5",
          "midi": 74,
          "time": 49.92852150000019,
          "velocity": 0.7480314960629921,
          "duration": 0.21428550000000257
        },
        {
          "name": "D6",
          "midi": 86,
          "time": 49.92852150000019,
          "velocity": 0.7480314960629921,
          "duration": 0.21428550000000257
        },
        {
          "name": "D7",
          "midi": 98,
          "time": 49.92852150000019,
          "velocity": 0.7480314960629921,
          "duration": 0.21428550000000257
        },
        {
          "name": "D#4",
          "midi": 63,
          "time": 50.14280700000019,
          "velocity": 0.7480314960629921,
          "duration": 0.21428550000000257
        },
        {
          "name": "D#5",
          "midi": 75,
          "time": 50.14280700000019,
          "velocity": 0.7480314960629921,
          "duration": 0.21428550000000257
        },
        {
          "name": "D#6",
          "midi": 87,
          "time": 50.14280700000019,
          "velocity": 0.7480314960629921,
          "duration": 0.21428550000000257
        },
        {
          "name": "D#7",
          "midi": 99,
          "time": 50.14280700000019,
          "velocity": 0.7480314960629921,
          "duration": 0.21428550000000257
        },
        {
          "name": "D4",
          "midi": 62,
          "time": 50.35709250000019,
          "velocity": 0.7480314960629921,
          "duration": 0.21428550000000257
        },
        {
          "name": "D5",
          "midi": 74,
          "time": 50.35709250000019,
          "velocity": 0.7480314960629921,
          "duration": 0.21428550000000257
        },
        {
          "name": "D6",
          "midi": 86,
          "time": 50.35709250000019,
          "velocity": 0.7480314960629921,
          "duration": 0.21428550000000257
        },
        {
          "name": "D7",
          "midi": 98,
          "time": 50.35709250000019,
          "velocity": 0.7480314960629921,
          "duration": 0.21428550000000257
        },
        {
          "name": "D#4",
          "midi": 63,
          "time": 50.571378000000195,
          "velocity": 0.7480314960629921,
          "duration": 0.21428550000000257
        },
        {
          "name": "D#5",
          "midi": 75,
          "time": 50.571378000000195,
          "velocity": 0.7480314960629921,
          "duration": 0.21428550000000257
        },
        {
          "name": "D#6",
          "midi": 87,
          "time": 50.571378000000195,
          "velocity": 0.7480314960629921,
          "duration": 0.21428550000000257
        },
        {
          "name": "D#7",
          "midi": 99,
          "time": 50.571378000000195,
          "velocity": 0.7480314960629921,
          "duration": 0.21428550000000257
        },
        {
          "name": "E4",
          "midi": 64,
          "time": 50.7856635000002,
          "velocity": 0.7480314960629921,
          "duration": 0.21428550000000257
        },
        {
          "name": "E5",
          "midi": 76,
          "time": 50.7856635000002,
          "velocity": 0.7480314960629921,
          "duration": 0.21428550000000257
        },
        {
          "name": "E6",
          "midi": 88,
          "time": 50.7856635000002,
          "velocity": 0.7480314960629921,
          "duration": 0.21428550000000257
        },
        {
          "name": "E7",
          "midi": 100,
          "time": 50.7856635000002,
          "velocity": 0.7480314960629921,
          "duration": 0.21428550000000257
        },
        {
          "name": "D#4",
          "midi": 63,
          "time": 50.9999490000002,
          "velocity": 0.7480314960629921,
          "duration": 0.21428550000000257
        },
        {
          "name": "D#5",
          "midi": 75,
          "time": 50.9999490000002,
          "velocity": 0.7480314960629921,
          "duration": 0.21428550000000257
        },
        {
          "name": "D#6",
          "midi": 87,
          "time": 50.9999490000002,
          "velocity": 0.7480314960629921,
          "duration": 0.21428550000000257
        },
        {
          "name": "D#7",
          "midi": 99,
          "time": 50.9999490000002,
          "velocity": 0.7480314960629921,
          "duration": 0.21428550000000257
        },
        {
          "name": "D4",
          "midi": 62,
          "time": 51.2142345000002,
          "velocity": 0.7480314960629921,
          "duration": 0.21428550000000257
        },
        {
          "name": "D5",
          "midi": 74,
          "time": 51.2142345000002,
          "velocity": 0.7480314960629921,
          "duration": 0.21428550000000257
        },
        {
          "name": "D6",
          "midi": 86,
          "time": 51.2142345000002,
          "velocity": 0.7480314960629921,
          "duration": 0.21428550000000257
        },
        {
          "name": "D7",
          "midi": 98,
          "time": 51.2142345000002,
          "velocity": 0.7480314960629921,
          "duration": 0.21428550000000257
        },
        {
          "name": "C4",
          "midi": 60,
          "time": 51.428520000000205,
          "velocity": 0.7480314960629921,
          "duration": 0.21428550000000257
        },
        {
          "name": "C5",
          "midi": 72,
          "time": 51.428520000000205,
          "velocity": 0.7480314960629921,
          "duration": 0.21428550000000257
        },
        {
          "name": "C6",
          "midi": 84,
          "time": 51.428520000000205,
          "velocity": 0.7480314960629921,
          "duration": 0.21428550000000257
        },
        {
          "name": "C7",
          "midi": 96,
          "time": 51.428520000000205,
          "velocity": 0.7480314960629921,
          "duration": 0.21428550000000257
        },
        {
          "name": "D4",
          "midi": 62,
          "time": 51.64280550000021,
          "velocity": 0.7480314960629921,
          "duration": 0.21428550000000257
        },
        {
          "name": "D5",
          "midi": 74,
          "time": 51.64280550000021,
          "velocity": 0.7480314960629921,
          "duration": 0.21428550000000257
        },
        {
          "name": "D6",
          "midi": 86,
          "time": 51.64280550000021,
          "velocity": 0.7480314960629921,
          "duration": 0.21428550000000257
        },
        {
          "name": "D7",
          "midi": 98,
          "time": 51.64280550000021,
          "velocity": 0.7480314960629921,
          "duration": 0.21428550000000257
        },
        {
          "name": "D#4",
          "midi": 63,
          "time": 51.85709100000021,
          "velocity": 0.7480314960629921,
          "duration": 0.21428550000000257
        },
        {
          "name": "D#5",
          "midi": 75,
          "time": 51.85709100000021,
          "velocity": 0.7480314960629921,
          "duration": 0.21428550000000257
        },
        {
          "name": "D#6",
          "midi": 87,
          "time": 51.85709100000021,
          "velocity": 0.7480314960629921,
          "duration": 0.21428550000000257
        },
        {
          "name": "D#7",
          "midi": 99,
          "time": 51.85709100000021,
          "velocity": 0.7480314960629921,
          "duration": 0.21428550000000257
        },
        {
          "name": "D4",
          "midi": 62,
          "time": 52.07137650000021,
          "velocity": 0.7480314960629921,
          "duration": 0.21428550000000257
        },
        {
          "name": "D5",
          "midi": 74,
          "time": 52.07137650000021,
          "velocity": 0.7480314960629921,
          "duration": 0.21428550000000257
        },
        {
          "name": "D6",
          "midi": 86,
          "time": 52.07137650000021,
          "velocity": 0.7480314960629921,
          "duration": 0.21428550000000257
        },
        {
          "name": "D7",
          "midi": 98,
          "time": 52.07137650000021,
          "velocity": 0.7480314960629921,
          "duration": 0.21428550000000257
        },
        {
          "name": "D#4",
          "midi": 63,
          "time": 52.285662000000215,
          "velocity": 0.7480314960629921,
          "duration": 0.21428550000000257
        },
        {
          "name": "D#5",
          "midi": 75,
          "time": 52.285662000000215,
          "velocity": 0.7480314960629921,
          "duration": 0.21428550000000257
        },
        {
          "name": "D#6",
          "midi": 87,
          "time": 52.285662000000215,
          "velocity": 0.7480314960629921,
          "duration": 0.21428550000000257
        },
        {
          "name": "D#7",
          "midi": 99,
          "time": 52.285662000000215,
          "velocity": 0.7480314960629921,
          "duration": 0.21428550000000257
        },
        {
          "name": "E4",
          "midi": 64,
          "time": 52.49994750000022,
          "velocity": 0.7480314960629921,
          "duration": 0.21428550000000257
        },
        {
          "name": "E5",
          "midi": 76,
          "time": 52.49994750000022,
          "velocity": 0.7480314960629921,
          "duration": 0.21428550000000257
        },
        {
          "name": "E6",
          "midi": 88,
          "time": 52.49994750000022,
          "velocity": 0.7480314960629921,
          "duration": 0.21428550000000257
        },
        {
          "name": "E7",
          "midi": 100,
          "time": 52.49994750000022,
          "velocity": 0.7480314960629921,
          "duration": 0.21428550000000257
        },
        {
          "name": "D#4",
          "midi": 63,
          "time": 52.71423300000022,
          "velocity": 0.7480314960629921,
          "duration": 0.21428550000000257
        },
        {
          "name": "D#5",
          "midi": 75,
          "time": 52.71423300000022,
          "velocity": 0.7480314960629921,
          "duration": 0.21428550000000257
        },
        {
          "name": "D#6",
          "midi": 87,
          "time": 52.71423300000022,
          "velocity": 0.7480314960629921,
          "duration": 0.21428550000000257
        },
        {
          "name": "D#7",
          "midi": 99,
          "time": 52.71423300000022,
          "velocity": 0.7480314960629921,
          "duration": 0.21428550000000257
        },
        {
          "name": "D4",
          "midi": 62,
          "time": 52.92851850000022,
          "velocity": 0.7480314960629921,
          "duration": 0.21428550000000257
        },
        {
          "name": "D5",
          "midi": 74,
          "time": 52.92851850000022,
          "velocity": 0.7480314960629921,
          "duration": 0.21428550000000257
        },
        {
          "name": "D6",
          "midi": 86,
          "time": 52.92851850000022,
          "velocity": 0.7480314960629921,
          "duration": 0.21428550000000257
        },
        {
          "name": "D7",
          "midi": 98,
          "time": 52.92851850000022,
          "velocity": 0.7480314960629921,
          "duration": 0.21428550000000257
        },
        {
          "name": "D4",
          "midi": 62,
          "time": 78.96420675000023,
          "velocity": 1,
          "duration": 0.42857100000000514
        },
        {
          "name": "D5",
          "midi": 74,
          "time": 78.96420675000023,
          "velocity": 1,
          "duration": 0.42857100000000514
        },
        {
          "name": "D6",
          "midi": 86,
          "time": 78.96420675000023,
          "velocity": 1,
          "duration": 0.42857100000000514
        },
        {
          "name": "D7",
          "midi": 98,
          "time": 78.96420675000023,
          "velocity": 1,
          "duration": 0.42857100000000514
        },
        {
          "name": "D#4",
          "midi": 63,
          "time": 79.39277775000023,
          "velocity": 1,
          "duration": 0.42857100000000514
        },
        {
          "name": "D#5",
          "midi": 75,
          "time": 79.39277775000023,
          "velocity": 1,
          "duration": 0.42857100000000514
        },
        {
          "name": "D#6",
          "midi": 87,
          "time": 79.39277775000023,
          "velocity": 1,
          "duration": 0.42857100000000514
        },
        {
          "name": "D#7",
          "midi": 99,
          "time": 79.39277775000023,
          "velocity": 1,
          "duration": 0.42857100000000514
        },
        {
          "name": "D4",
          "midi": 62,
          "time": 79.82134875000024,
          "velocity": 1,
          "duration": 0.42857100000000514
        },
        {
          "name": "D5",
          "midi": 74,
          "time": 79.82134875000024,
          "velocity": 1,
          "duration": 0.42857100000000514
        },
        {
          "name": "D6",
          "midi": 86,
          "time": 79.82134875000024,
          "velocity": 1,
          "duration": 0.42857100000000514
        },
        {
          "name": "D7",
          "midi": 98,
          "time": 79.82134875000024,
          "velocity": 1,
          "duration": 0.42857100000000514
        },
        {
          "name": "D#4",
          "midi": 63,
          "time": 80.24991975000025,
          "velocity": 1,
          "duration": 0.42857100000000514
        },
        {
          "name": "D#5",
          "midi": 75,
          "time": 80.24991975000025,
          "velocity": 1,
          "duration": 0.42857100000000514
        },
        {
          "name": "D#6",
          "midi": 87,
          "time": 80.24991975000025,
          "velocity": 1,
          "duration": 0.42857100000000514
        },
        {
          "name": "D#7",
          "midi": 99,
          "time": 80.24991975000025,
          "velocity": 1,
          "duration": 0.42857100000000514
        },
        {
          "name": "D4",
          "midi": 62,
          "time": 80.67849075000025,
          "velocity": 1,
          "duration": 0.42857100000000514
        },
        {
          "name": "D5",
          "midi": 74,
          "time": 80.67849075000025,
          "velocity": 1,
          "duration": 0.42857100000000514
        },
        {
          "name": "D6",
          "midi": 86,
          "time": 80.67849075000025,
          "velocity": 1,
          "duration": 0.42857100000000514
        },
        {
          "name": "D7",
          "midi": 98,
          "time": 80.67849075000025,
          "velocity": 1,
          "duration": 0.42857100000000514
        },
        {
          "name": "D4",
          "midi": 62,
          "time": 81.10706175000026,
          "velocity": 1,
          "duration": 0.21428550000000257
        },
        {
          "name": "D5",
          "midi": 74,
          "time": 81.10706175000026,
          "velocity": 1,
          "duration": 0.21428550000000257
        },
        {
          "name": "D6",
          "midi": 86,
          "time": 81.10706175000026,
          "velocity": 1,
          "duration": 0.21428550000000257
        },
        {
          "name": "D7",
          "midi": 98,
          "time": 81.10706175000026,
          "velocity": 1,
          "duration": 0.21428550000000257
        },
        {
          "name": "E4",
          "midi": 64,
          "time": 81.32134725000026,
          "velocity": 1,
          "duration": 0.42857100000000514
        },
        {
          "name": "E5",
          "midi": 76,
          "time": 81.32134725000026,
          "velocity": 1,
          "duration": 0.42857100000000514
        },
        {
          "name": "E6",
          "midi": 88,
          "time": 81.32134725000026,
          "velocity": 1,
          "duration": 0.42857100000000514
        },
        {
          "name": "E7",
          "midi": 100,
          "time": 81.32134725000026,
          "velocity": 1,
          "duration": 0.42857100000000514
        },
        {
          "name": "D4",
          "midi": 62,
          "time": 81.74991825000026,
          "velocity": 1,
          "duration": 0.21428550000000257
        },
        {
          "name": "D5",
          "midi": 74,
          "time": 81.74991825000026,
          "velocity": 1,
          "duration": 0.21428550000000257
        },
        {
          "name": "D6",
          "midi": 86,
          "time": 81.74991825000026,
          "velocity": 1,
          "duration": 0.21428550000000257
        },
        {
          "name": "D7",
          "midi": 98,
          "time": 81.74991825000026,
          "velocity": 1,
          "duration": 0.21428550000000257
        },
        {
          "name": "E4",
          "midi": 64,
          "time": 81.96420375000027,
          "velocity": 1,
          "duration": 0.42857100000000514
        },
        {
          "name": "E5",
          "midi": 76,
          "time": 81.96420375000027,
          "velocity": 1,
          "duration": 0.42857100000000514
        },
        {
          "name": "E6",
          "midi": 88,
          "time": 81.96420375000027,
          "velocity": 1,
          "duration": 0.42857100000000514
        },
        {
          "name": "E7",
          "midi": 100,
          "time": 81.96420375000027,
          "velocity": 1,
          "duration": 0.42857100000000514
        },
        {
          "name": "D4",
          "midi": 62,
          "time": 82.39277475000027,
          "velocity": 1,
          "duration": 0.42857100000000514
        },
        {
          "name": "D5",
          "midi": 74,
          "time": 82.39277475000027,
          "velocity": 1,
          "duration": 0.42857100000000514
        },
        {
          "name": "D6",
          "midi": 86,
          "time": 82.39277475000027,
          "velocity": 1,
          "duration": 0.42857100000000514
        },
        {
          "name": "D7",
          "midi": 98,
          "time": 82.39277475000027,
          "velocity": 1,
          "duration": 0.42857100000000514
        },
        {
          "name": "C4",
          "midi": 60,
          "time": 82.82134575000028,
          "velocity": 1,
          "duration": 0.42857100000000514
        },
        {
          "name": "D4",
          "midi": 62,
          "time": 82.82134575000028,
          "velocity": 1,
          "duration": 0.42857100000000514
        },
        {
          "name": "C5",
          "midi": 72,
          "time": 82.82134575000028,
          "velocity": 1,
          "duration": 0.42857100000000514
        },
        {
          "name": "D5",
          "midi": 74,
          "time": 82.82134575000028,
          "velocity": 1,
          "duration": 0.42857100000000514
        },
        {
          "name": "C6",
          "midi": 84,
          "time": 82.82134575000028,
          "velocity": 1,
          "duration": 0.42857100000000514
        },
        {
          "name": "D6",
          "midi": 86,
          "time": 82.82134575000028,
          "velocity": 1,
          "duration": 0.42857100000000514
        },
        {
          "name": "C7",
          "midi": 96,
          "time": 82.82134575000028,
          "velocity": 1,
          "duration": 0.42857100000000514
        },
        {
          "name": "D7",
          "midi": 98,
          "time": 82.82134575000028,
          "velocity": 1,
          "duration": 0.42857100000000514
        },
        {
          "name": "E4",
          "midi": 64,
          "time": 83.24991675000028,
          "velocity": 1,
          "duration": 0.42857100000000514
        },
        {
          "name": "E5",
          "midi": 76,
          "time": 83.24991675000028,
          "velocity": 1,
          "duration": 0.42857100000000514
        },
        {
          "name": "E6",
          "midi": 88,
          "time": 83.24991675000028,
          "velocity": 1,
          "duration": 0.42857100000000514
        },
        {
          "name": "E7",
          "midi": 100,
          "time": 83.24991675000028,
          "velocity": 1,
          "duration": 0.42857100000000514
        },
        {
          "name": "D4",
          "midi": 62,
          "time": 83.67848775000029,
          "velocity": 1,
          "duration": 0.21428550000000257
        },
        {
          "name": "D5",
          "midi": 74,
          "time": 83.67848775000029,
          "velocity": 1,
          "duration": 0.21428550000000257
        },
        {
          "name": "D6",
          "midi": 86,
          "time": 83.67848775000029,
          "velocity": 1,
          "duration": 0.21428550000000257
        },
        {
          "name": "D7",
          "midi": 98,
          "time": 83.67848775000029,
          "velocity": 1,
          "duration": 0.21428550000000257
        },
        {
          "name": "E4",
          "midi": 64,
          "time": 83.89277325000029,
          "velocity": 1,
          "duration": 0.21428550000000257
        },
        {
          "name": "E5",
          "midi": 76,
          "time": 83.89277325000029,
          "velocity": 1,
          "duration": 0.21428550000000257
        },
        {
          "name": "E6",
          "midi": 88,
          "time": 83.89277325000029,
          "velocity": 1,
          "duration": 0.21428550000000257
        },
        {
          "name": "E7",
          "midi": 100,
          "time": 83.89277325000029,
          "velocity": 1,
          "duration": 0.21428550000000257
        },
        {
          "name": "D4",
          "midi": 62,
          "time": 84.3213442500003,
          "velocity": 1,
          "duration": 0.21428550000000257
        },
        {
          "name": "D5",
          "midi": 74,
          "time": 84.3213442500003,
          "velocity": 1,
          "duration": 0.21428550000000257
        },
        {
          "name": "D6",
          "midi": 86,
          "time": 84.3213442500003,
          "velocity": 1,
          "duration": 0.21428550000000257
        },
        {
          "name": "D7",
          "midi": 98,
          "time": 84.3213442500003,
          "velocity": 1,
          "duration": 0.21428550000000257
        },
        {
          "name": "C#4",
          "midi": 61,
          "time": 84.5356297500003,
          "velocity": 1,
          "duration": 0.42857100000000514
        },
        {
          "name": "C5",
          "midi": 72,
          "time": 84.5356297500003,
          "velocity": 1,
          "duration": 0.42857100000000514
        },
        {
          "name": "C#5",
          "midi": 73,
          "time": 84.5356297500003,
          "velocity": 1,
          "duration": 0.42857100000000514
        },
        {
          "name": "C6",
          "midi": 84,
          "time": 84.5356297500003,
          "velocity": 1,
          "duration": 0.42857100000000514
        },
        {
          "name": "C#6",
          "midi": 85,
          "time": 84.5356297500003,
          "velocity": 1,
          "duration": 0.42857100000000514
        },
        {
          "name": "C7",
          "midi": 96,
          "time": 84.5356297500003,
          "velocity": 1,
          "duration": 0.42857100000000514
        },
        {
          "name": "C#7",
          "midi": 97,
          "time": 84.5356297500003,
          "velocity": 1,
          "duration": 0.42857100000000514
        },
        {
          "name": "F#7",
          "midi": 102,
          "time": 84.5356297500003,
          "velocity": 1,
          "duration": 0.42857100000000514
        },
        {
          "name": "E4",
          "midi": 64,
          "time": 84.9642007500003,
          "velocity": 1,
          "duration": 0.21428550000000257
        },
        {
          "name": "E5",
          "midi": 76,
          "time": 84.9642007500003,
          "velocity": 1,
          "duration": 0.21428550000000257
        },
        {
          "name": "E6",
          "midi": 88,
          "time": 84.9642007500003,
          "velocity": 1,
          "duration": 0.21428550000000257
        },
        {
          "name": "E7",
          "midi": 100,
          "time": 84.9642007500003,
          "velocity": 1,
          "duration": 0.21428550000000257
        },
        {
          "name": "C#4",
          "midi": 61,
          "time": 85.1784862500003,
          "velocity": 1,
          "duration": 0.21428550000000257
        },
        {
          "name": "C5",
          "midi": 72,
          "time": 85.1784862500003,
          "velocity": 1,
          "duration": 0.21428550000000257
        },
        {
          "name": "C#5",
          "midi": 73,
          "time": 85.1784862500003,
          "velocity": 1,
          "duration": 0.21428550000000257
        },
        {
          "name": "C6",
          "midi": 84,
          "time": 85.1784862500003,
          "velocity": 1,
          "duration": 0.21428550000000257
        },
        {
          "name": "C#6",
          "midi": 85,
          "time": 85.1784862500003,
          "velocity": 1,
          "duration": 0.21428550000000257
        },
        {
          "name": "C7",
          "midi": 96,
          "time": 85.1784862500003,
          "velocity": 1,
          "duration": 0.21428550000000257
        },
        {
          "name": "C#7",
          "midi": 97,
          "time": 85.1784862500003,
          "velocity": 1,
          "duration": 0.21428550000000257
        },
        {
          "name": "F#7",
          "midi": 102,
          "time": 85.1784862500003,
          "velocity": 1,
          "duration": 0.21428550000000257
        },
        {
          "name": "D4",
          "midi": 62,
          "time": 85.3927717500003,
          "velocity": 1,
          "duration": 0.21428550000000257
        },
        {
          "name": "D5",
          "midi": 74,
          "time": 85.3927717500003,
          "velocity": 1,
          "duration": 0.21428550000000257
        },
        {
          "name": "D6",
          "midi": 86,
          "time": 85.3927717500003,
          "velocity": 1,
          "duration": 0.21428550000000257
        },
        {
          "name": "D7",
          "midi": 98,
          "time": 85.3927717500003,
          "velocity": 1,
          "duration": 0.21428550000000257
        },
        {
          "name": "E4",
          "midi": 64,
          "time": 85.60705725000031,
          "velocity": 1,
          "duration": 0.21428550000000257
        },
        {
          "name": "E5",
          "midi": 76,
          "time": 85.60705725000031,
          "velocity": 1,
          "duration": 0.21428550000000257
        },
        {
          "name": "E6",
          "midi": 88,
          "time": 85.60705725000031,
          "velocity": 1,
          "duration": 0.21428550000000257
        },
        {
          "name": "E7",
          "midi": 100,
          "time": 85.60705725000031,
          "velocity": 1,
          "duration": 0.21428550000000257
        },
        {
          "name": "D4",
          "midi": 62,
          "time": 86.24991375000032,
          "velocity": 1,
          "duration": 0.42857100000000514
        },
        {
          "name": "D5",
          "midi": 74,
          "time": 86.24991375000032,
          "velocity": 1,
          "duration": 0.42857100000000514
        },
        {
          "name": "D6",
          "midi": 86,
          "time": 86.24991375000032,
          "velocity": 1,
          "duration": 0.42857100000000514
        },
        {
          "name": "D7",
          "midi": 98,
          "time": 86.24991375000032,
          "velocity": 1,
          "duration": 0.42857100000000514
        },
        {
          "name": "E4",
          "midi": 64,
          "time": 86.67848475000032,
          "velocity": 1,
          "duration": 0.42857100000000514
        },
        {
          "name": "E5",
          "midi": 76,
          "time": 86.67848475000032,
          "velocity": 1,
          "duration": 0.42857100000000514
        },
        {
          "name": "E6",
          "midi": 88,
          "time": 86.67848475000032,
          "velocity": 1,
          "duration": 0.42857100000000514
        },
        {
          "name": "E7",
          "midi": 100,
          "time": 86.67848475000032,
          "velocity": 1,
          "duration": 0.42857100000000514
        },
        {
          "name": "D4",
          "midi": 62,
          "time": 87.10705575000033,
          "velocity": 1,
          "duration": 0.21428550000000257
        },
        {
          "name": "D5",
          "midi": 74,
          "time": 87.10705575000033,
          "velocity": 1,
          "duration": 0.21428550000000257
        },
        {
          "name": "D6",
          "midi": 86,
          "time": 87.10705575000033,
          "velocity": 1,
          "duration": 0.21428550000000257
        },
        {
          "name": "D7",
          "midi": 98,
          "time": 87.10705575000033,
          "velocity": 1,
          "duration": 0.21428550000000257
        },
        {
          "name": "E4",
          "midi": 64,
          "time": 87.32134125000033,
          "velocity": 1,
          "duration": 0.21428550000000257
        },
        {
          "name": "E5",
          "midi": 76,
          "time": 87.32134125000033,
          "velocity": 1,
          "duration": 0.21428550000000257
        },
        {
          "name": "E6",
          "midi": 88,
          "time": 87.32134125000033,
          "velocity": 1,
          "duration": 0.21428550000000257
        },
        {
          "name": "E7",
          "midi": 100,
          "time": 87.32134125000033,
          "velocity": 1,
          "duration": 0.21428550000000257
        },
        {
          "name": "D4",
          "midi": 62,
          "time": 87.74991225000034,
          "velocity": 1,
          "duration": 0.21428550000000257
        },
        {
          "name": "D5",
          "midi": 74,
          "time": 87.74991225000034,
          "velocity": 1,
          "duration": 0.21428550000000257
        },
        {
          "name": "D6",
          "midi": 86,
          "time": 87.74991225000034,
          "velocity": 1,
          "duration": 0.21428550000000257
        },
        {
          "name": "D7",
          "midi": 98,
          "time": 87.74991225000034,
          "velocity": 1,
          "duration": 0.21428550000000257
        },
        {
          "name": "C#4",
          "midi": 61,
          "time": 87.96419775000034,
          "velocity": 1,
          "duration": 0.42857100000000514
        },
        {
          "name": "C5",
          "midi": 72,
          "time": 87.96419775000034,
          "velocity": 1,
          "duration": 0.42857100000000514
        },
        {
          "name": "C#5",
          "midi": 73,
          "time": 87.96419775000034,
          "velocity": 1,
          "duration": 0.42857100000000514
        },
        {
          "name": "C6",
          "midi": 84,
          "time": 87.96419775000034,
          "velocity": 1,
          "duration": 0.42857100000000514
        },
        {
          "name": "C#6",
          "midi": 85,
          "time": 87.96419775000034,
          "velocity": 1,
          "duration": 0.42857100000000514
        },
        {
          "name": "C7",
          "midi": 96,
          "time": 87.96419775000034,
          "velocity": 1,
          "duration": 0.42857100000000514
        },
        {
          "name": "C#7",
          "midi": 97,
          "time": 87.96419775000034,
          "velocity": 1,
          "duration": 0.42857100000000514
        },
        {
          "name": "F#7",
          "midi": 102,
          "time": 87.96419775000034,
          "velocity": 1,
          "duration": 0.42857100000000514
        },
        {
          "name": "E4",
          "midi": 64,
          "time": 88.39276875000034,
          "velocity": 1,
          "duration": 0.21428550000000257
        },
        {
          "name": "E5",
          "midi": 76,
          "time": 88.39276875000034,
          "velocity": 1,
          "duration": 0.21428550000000257
        },
        {
          "name": "E6",
          "midi": 88,
          "time": 88.39276875000034,
          "velocity": 1,
          "duration": 0.21428550000000257
        },
        {
          "name": "E7",
          "midi": 100,
          "time": 88.39276875000034,
          "velocity": 1,
          "duration": 0.21428550000000257
        },
        {
          "name": "C#4",
          "midi": 61,
          "time": 88.60705425000035,
          "velocity": 1,
          "duration": 0.21428550000000257
        },
        {
          "name": "C5",
          "midi": 72,
          "time": 88.60705425000035,
          "velocity": 1,
          "duration": 0.21428550000000257
        },
        {
          "name": "C#5",
          "midi": 73,
          "time": 88.60705425000035,
          "velocity": 1,
          "duration": 0.21428550000000257
        },
        {
          "name": "C6",
          "midi": 84,
          "time": 88.60705425000035,
          "velocity": 1,
          "duration": 0.21428550000000257
        },
        {
          "name": "C#6",
          "midi": 85,
          "time": 88.60705425000035,
          "velocity": 1,
          "duration": 0.21428550000000257
        },
        {
          "name": "C7",
          "midi": 96,
          "time": 88.60705425000035,
          "velocity": 1,
          "duration": 0.21428550000000257
        },
        {
          "name": "C#7",
          "midi": 97,
          "time": 88.60705425000035,
          "velocity": 1,
          "duration": 0.21428550000000257
        },
        {
          "name": "F#7",
          "midi": 102,
          "time": 88.60705425000035,
          "velocity": 1,
          "duration": 0.21428550000000257
        },
        {
          "name": "D4",
          "midi": 62,
          "time": 88.82133975000035,
          "velocity": 1,
          "duration": 0.21428550000000257
        },
        {
          "name": "D5",
          "midi": 74,
          "time": 88.82133975000035,
          "velocity": 1,
          "duration": 0.21428550000000257
        },
        {
          "name": "D6",
          "midi": 86,
          "time": 88.82133975000035,
          "velocity": 1,
          "duration": 0.21428550000000257
        },
        {
          "name": "D7",
          "midi": 98,
          "time": 88.82133975000035,
          "velocity": 1,
          "duration": 0.21428550000000257
        },
        {
          "name": "E4",
          "midi": 64,
          "time": 89.03562525000035,
          "velocity": 1,
          "duration": 0.21428550000000257
        },
        {
          "name": "E5",
          "midi": 76,
          "time": 89.03562525000035,
          "velocity": 1,
          "duration": 0.21428550000000257
        },
        {
          "name": "E6",
          "midi": 88,
          "time": 89.03562525000035,
          "velocity": 1,
          "duration": 0.21428550000000257
        },
        {
          "name": "E7",
          "midi": 100,
          "time": 89.03562525000035,
          "velocity": 1,
          "duration": 0.21428550000000257
        },
        {
          "name": "D4",
          "midi": 62,
          "time": 89.46419625000036,
          "velocity": 1,
          "duration": 0.21428550000000257
        },
        {
          "name": "D5",
          "midi": 74,
          "time": 89.46419625000036,
          "velocity": 1,
          "duration": 0.21428550000000257
        },
        {
          "name": "D6",
          "midi": 86,
          "time": 89.46419625000036,
          "velocity": 1,
          "duration": 0.21428550000000257
        },
        {
          "name": "D7",
          "midi": 98,
          "time": 89.46419625000036,
          "velocity": 1,
          "duration": 0.21428550000000257
        },
        {
          "name": "D4",
          "midi": 62,
          "time": 89.67848175000036,
          "velocity": 1,
          "duration": 0.42857100000000514
        },
        {
          "name": "D5",
          "midi": 74,
          "time": 89.67848175000036,
          "velocity": 1,
          "duration": 0.42857100000000514
        },
        {
          "name": "D6",
          "midi": 86,
          "time": 89.67848175000036,
          "velocity": 1,
          "duration": 0.42857100000000514
        },
        {
          "name": "D7",
          "midi": 98,
          "time": 89.67848175000036,
          "velocity": 1,
          "duration": 0.42857100000000514
        },
        {
          "name": "E4",
          "midi": 64,
          "time": 90.10705275000036,
          "velocity": 1,
          "duration": 0.42857100000000514
        },
        {
          "name": "E5",
          "midi": 76,
          "time": 90.10705275000036,
          "velocity": 1,
          "duration": 0.42857100000000514
        },
        {
          "name": "E6",
          "midi": 88,
          "time": 90.10705275000036,
          "velocity": 1,
          "duration": 0.42857100000000514
        },
        {
          "name": "E7",
          "midi": 100,
          "time": 90.10705275000036,
          "velocity": 1,
          "duration": 0.42857100000000514
        },
        {
          "name": "D4",
          "midi": 62,
          "time": 90.53562375000037,
          "velocity": 1,
          "duration": 0.21428550000000257
        },
        {
          "name": "D5",
          "midi": 74,
          "time": 90.53562375000037,
          "velocity": 1,
          "duration": 0.21428550000000257
        },
        {
          "name": "D6",
          "midi": 86,
          "time": 90.53562375000037,
          "velocity": 1,
          "duration": 0.21428550000000257
        },
        {
          "name": "D7",
          "midi": 98,
          "time": 90.53562375000037,
          "velocity": 1,
          "duration": 0.21428550000000257
        },
        {
          "name": "E4",
          "midi": 64,
          "time": 90.74990925000037,
          "velocity": 1,
          "duration": 0.21428550000000257
        },
        {
          "name": "E5",
          "midi": 76,
          "time": 90.74990925000037,
          "velocity": 1,
          "duration": 0.21428550000000257
        },
        {
          "name": "E6",
          "midi": 88,
          "time": 90.74990925000037,
          "velocity": 1,
          "duration": 0.21428550000000257
        },
        {
          "name": "E7",
          "midi": 100,
          "time": 90.74990925000037,
          "velocity": 1,
          "duration": 0.21428550000000257
        },
        {
          "name": "D4",
          "midi": 62,
          "time": 91.17848025000038,
          "velocity": 1,
          "duration": 0.21428550000000257
        },
        {
          "name": "D5",
          "midi": 74,
          "time": 91.17848025000038,
          "velocity": 1,
          "duration": 0.21428550000000257
        },
        {
          "name": "D6",
          "midi": 86,
          "time": 91.17848025000038,
          "velocity": 1,
          "duration": 0.21428550000000257
        },
        {
          "name": "D7",
          "midi": 98,
          "time": 91.17848025000038,
          "velocity": 1,
          "duration": 0.21428550000000257
        },
        {
          "name": "C#4",
          "midi": 61,
          "time": 91.39276575000038,
          "velocity": 1,
          "duration": 0.42857100000000514
        },
        {
          "name": "C5",
          "midi": 72,
          "time": 91.39276575000038,
          "velocity": 1,
          "duration": 0.42857100000000514
        },
        {
          "name": "C#5",
          "midi": 73,
          "time": 91.39276575000038,
          "velocity": 1,
          "duration": 0.42857100000000514
        },
        {
          "name": "C6",
          "midi": 84,
          "time": 91.39276575000038,
          "velocity": 1,
          "duration": 0.42857100000000514
        },
        {
          "name": "C#6",
          "midi": 85,
          "time": 91.39276575000038,
          "velocity": 1,
          "duration": 0.42857100000000514
        },
        {
          "name": "C7",
          "midi": 96,
          "time": 91.39276575000038,
          "velocity": 1,
          "duration": 0.42857100000000514
        },
        {
          "name": "C#7",
          "midi": 97,
          "time": 91.39276575000038,
          "velocity": 1,
          "duration": 0.42857100000000514
        },
        {
          "name": "F#7",
          "midi": 102,
          "time": 91.39276575000038,
          "velocity": 1,
          "duration": 0.42857100000000514
        },
        {
          "name": "E4",
          "midi": 64,
          "time": 91.82133675000038,
          "velocity": 1,
          "duration": 0.21428550000000257
        },
        {
          "name": "E5",
          "midi": 76,
          "time": 91.82133675000038,
          "velocity": 1,
          "duration": 0.21428550000000257
        },
        {
          "name": "E6",
          "midi": 88,
          "time": 91.82133675000038,
          "velocity": 1,
          "duration": 0.21428550000000257
        },
        {
          "name": "E7",
          "midi": 100,
          "time": 91.82133675000038,
          "velocity": 1,
          "duration": 0.21428550000000257
        },
        {
          "name": "C#4",
          "midi": 61,
          "time": 92.03562225000039,
          "velocity": 1,
          "duration": 0.21428550000000257
        },
        {
          "name": "C5",
          "midi": 72,
          "time": 92.03562225000039,
          "velocity": 1,
          "duration": 0.21428550000000257
        },
        {
          "name": "C#5",
          "midi": 73,
          "time": 92.03562225000039,
          "velocity": 1,
          "duration": 0.21428550000000257
        },
        {
          "name": "C6",
          "midi": 84,
          "time": 92.03562225000039,
          "velocity": 1,
          "duration": 0.21428550000000257
        },
        {
          "name": "C#6",
          "midi": 85,
          "time": 92.03562225000039,
          "velocity": 1,
          "duration": 0.21428550000000257
        },
        {
          "name": "C7",
          "midi": 96,
          "time": 92.03562225000039,
          "velocity": 1,
          "duration": 0.21428550000000257
        },
        {
          "name": "C#7",
          "midi": 97,
          "time": 92.03562225000039,
          "velocity": 1,
          "duration": 0.21428550000000257
        },
        {
          "name": "F#7",
          "midi": 102,
          "time": 92.03562225000039,
          "velocity": 1,
          "duration": 0.21428550000000257
        },
        {
          "name": "D4",
          "midi": 62,
          "time": 92.24990775000039,
          "velocity": 1,
          "duration": 0.21428550000000257
        },
        {
          "name": "D5",
          "midi": 74,
          "time": 92.24990775000039,
          "velocity": 1,
          "duration": 0.21428550000000257
        },
        {
          "name": "D6",
          "midi": 86,
          "time": 92.24990775000039,
          "velocity": 1,
          "duration": 0.21428550000000257
        },
        {
          "name": "D7",
          "midi": 98,
          "time": 92.24990775000039,
          "velocity": 1,
          "duration": 0.21428550000000257
        },
        {
          "name": "E4",
          "midi": 64,
          "time": 92.46419325000039,
          "velocity": 1,
          "duration": 0.21428550000000257
        },
        {
          "name": "E5",
          "midi": 76,
          "time": 92.46419325000039,
          "velocity": 1,
          "duration": 0.21428550000000257
        },
        {
          "name": "E6",
          "midi": 88,
          "time": 92.46419325000039,
          "velocity": 1,
          "duration": 0.21428550000000257
        },
        {
          "name": "E7",
          "midi": 100,
          "time": 92.46419325000039,
          "velocity": 1,
          "duration": 0.21428550000000257
        },
        {
          "name": "C#4",
          "midi": 61,
          "time": 92.8927642500004,
          "velocity": 1,
          "duration": 0.21428550000000257
        },
        {
          "name": "C#5",
          "midi": 73,
          "time": 92.8927642500004,
          "velocity": 1,
          "duration": 0.21428550000000257
        },
        {
          "name": "C#6",
          "midi": 85,
          "time": 92.8927642500004,
          "velocity": 1,
          "duration": 0.21428550000000257
        },
        {
          "name": "C#7",
          "midi": 97,
          "time": 92.8927642500004,
          "velocity": 1,
          "duration": 0.21428550000000257
        },
        {
          "name": "D4",
          "midi": 62,
          "time": 93.1070497500004,
          "velocity": 1,
          "duration": 0.42857100000000514
        },
        {
          "name": "D5",
          "midi": 74,
          "time": 93.1070497500004,
          "velocity": 1,
          "duration": 0.42857100000000514
        },
        {
          "name": "D6",
          "midi": 86,
          "time": 93.1070497500004,
          "velocity": 1,
          "duration": 0.42857100000000514
        },
        {
          "name": "D7",
          "midi": 98,
          "time": 93.1070497500004,
          "velocity": 1,
          "duration": 0.42857100000000514
        },
        {
          "name": "E4",
          "midi": 64,
          "time": 93.5356207500004,
          "velocity": 1,
          "duration": 0.42857100000000514
        },
        {
          "name": "E5",
          "midi": 76,
          "time": 93.5356207500004,
          "velocity": 1,
          "duration": 0.42857100000000514
        },
        {
          "name": "E6",
          "midi": 88,
          "time": 93.5356207500004,
          "velocity": 1,
          "duration": 0.42857100000000514
        },
        {
          "name": "E7",
          "midi": 100,
          "time": 93.5356207500004,
          "velocity": 1,
          "duration": 0.42857100000000514
        },
        {
          "name": "D4",
          "midi": 62,
          "time": 93.96419175000041,
          "velocity": 1,
          "duration": 0.21428550000000257
        },
        {
          "name": "D5",
          "midi": 74,
          "time": 93.96419175000041,
          "velocity": 1,
          "duration": 0.21428550000000257
        },
        {
          "name": "D6",
          "midi": 86,
          "time": 93.96419175000041,
          "velocity": 1,
          "duration": 0.21428550000000257
        },
        {
          "name": "D7",
          "midi": 98,
          "time": 93.96419175000041,
          "velocity": 1,
          "duration": 0.21428550000000257
        },
        {
          "name": "E4",
          "midi": 64,
          "time": 94.17847725000041,
          "velocity": 1,
          "duration": 0.21428550000000257
        },
        {
          "name": "E5",
          "midi": 76,
          "time": 94.17847725000041,
          "velocity": 1,
          "duration": 0.21428550000000257
        },
        {
          "name": "E6",
          "midi": 88,
          "time": 94.17847725000041,
          "velocity": 1,
          "duration": 0.21428550000000257
        },
        {
          "name": "E7",
          "midi": 100,
          "time": 94.17847725000041,
          "velocity": 1,
          "duration": 0.21428550000000257
        },
        {
          "name": "D#4",
          "midi": 63,
          "time": 94.60704825000042,
          "velocity": 1,
          "duration": 0.21428550000000257
        },
        {
          "name": "D#5",
          "midi": 75,
          "time": 94.60704825000042,
          "velocity": 1,
          "duration": 0.21428550000000257
        },
        {
          "name": "D#6",
          "midi": 87,
          "time": 94.60704825000042,
          "velocity": 1,
          "duration": 0.21428550000000257
        },
        {
          "name": "D#7",
          "midi": 99,
          "time": 94.60704825000042,
          "velocity": 1,
          "duration": 0.21428550000000257
        },
        {
          "name": "E4",
          "midi": 64,
          "time": 94.82133375000042,
          "velocity": 1,
          "duration": 0.21428550000000257
        },
        {
          "name": "E5",
          "midi": 76,
          "time": 94.82133375000042,
          "velocity": 1,
          "duration": 0.21428550000000257
        },
        {
          "name": "E6",
          "midi": 88,
          "time": 94.82133375000042,
          "velocity": 1,
          "duration": 0.21428550000000257
        },
        {
          "name": "E7",
          "midi": 100,
          "time": 94.82133375000042,
          "velocity": 1,
          "duration": 0.21428550000000257
        },
        {
          "name": "C5",
          "midi": 72,
          "time": 95.03561925000042,
          "velocity": 1,
          "duration": 0.21428550000000257
        },
        {
          "name": "C6",
          "midi": 84,
          "time": 95.03561925000042,
          "velocity": 1,
          "duration": 0.21428550000000257
        },
        {
          "name": "C7",
          "midi": 96,
          "time": 95.03561925000042,
          "velocity": 1,
          "duration": 0.21428550000000257
        },
        {
          "name": "F#7",
          "midi": 102,
          "time": 95.03561925000042,
          "velocity": 1,
          "duration": 0.21428550000000257
        },
        {
          "name": "E4",
          "midi": 64,
          "time": 95.24990475000043,
          "velocity": 1,
          "duration": 0.42857100000000514
        },
        {
          "name": "E5",
          "midi": 76,
          "time": 95.24990475000043,
          "velocity": 1,
          "duration": 0.42857100000000514
        },
        {
          "name": "E6",
          "midi": 88,
          "time": 95.24990475000043,
          "velocity": 1,
          "duration": 0.42857100000000514
        },
        {
          "name": "E7",
          "midi": 100,
          "time": 95.24990475000043,
          "velocity": 1,
          "duration": 0.42857100000000514
        },
        {
          "name": "D#4",
          "midi": 63,
          "time": 95.67847575000043,
          "velocity": 1,
          "duration": 0.21428550000000257
        },
        {
          "name": "D#5",
          "midi": 75,
          "time": 95.67847575000043,
          "velocity": 1,
          "duration": 0.21428550000000257
        },
        {
          "name": "D#6",
          "midi": 87,
          "time": 95.67847575000043,
          "velocity": 1,
          "duration": 0.21428550000000257
        },
        {
          "name": "D#7",
          "midi": 99,
          "time": 95.67847575000043,
          "velocity": 1,
          "duration": 0.21428550000000257
        },
        {
          "name": "D4",
          "midi": 62,
          "time": 95.89276125000043,
          "velocity": 1,
          "duration": 0.21428550000000257
        },
        {
          "name": "D5",
          "midi": 74,
          "time": 95.89276125000043,
          "velocity": 1,
          "duration": 0.21428550000000257
        },
        {
          "name": "D6",
          "midi": 86,
          "time": 95.89276125000043,
          "velocity": 1,
          "duration": 0.21428550000000257
        },
        {
          "name": "D7",
          "midi": 98,
          "time": 95.89276125000043,
          "velocity": 1,
          "duration": 0.21428550000000257
        },
        {
          "name": "D4",
          "midi": 62,
          "time": 96.10704675000044,
          "velocity": 1,
          "duration": 0.42857100000000514
        },
        {
          "name": "D5",
          "midi": 74,
          "time": 96.10704675000044,
          "velocity": 1,
          "duration": 0.42857100000000514
        },
        {
          "name": "D6",
          "midi": 86,
          "time": 96.10704675000044,
          "velocity": 1,
          "duration": 0.42857100000000514
        },
        {
          "name": "D7",
          "midi": 98,
          "time": 96.10704675000044,
          "velocity": 1,
          "duration": 0.42857100000000514
        },
        {
          "name": "C4",
          "midi": 60,
          "time": 96.53561775000044,
          "velocity": 1,
          "duration": 0.42857100000000514
        },
        {
          "name": "D4",
          "midi": 62,
          "time": 96.53561775000044,
          "velocity": 1,
          "duration": 0.42857100000000514
        },
        {
          "name": "C5",
          "midi": 72,
          "time": 96.53561775000044,
          "velocity": 1,
          "duration": 0.42857100000000514
        },
        {
          "name": "D5",
          "midi": 74,
          "time": 96.53561775000044,
          "velocity": 1,
          "duration": 0.42857100000000514
        },
        {
          "name": "C6",
          "midi": 84,
          "time": 96.53561775000044,
          "velocity": 1,
          "duration": 0.42857100000000514
        },
        {
          "name": "D6",
          "midi": 86,
          "time": 96.53561775000044,
          "velocity": 1,
          "duration": 0.42857100000000514
        },
        {
          "name": "C7",
          "midi": 96,
          "time": 96.53561775000044,
          "velocity": 1,
          "duration": 0.42857100000000514
        },
        {
          "name": "D7",
          "midi": 98,
          "time": 96.53561775000044,
          "velocity": 1,
          "duration": 0.42857100000000514
        },
        {
          "name": "E4",
          "midi": 64,
          "time": 96.96418875000045,
          "velocity": 1,
          "duration": 0.42857100000000514
        },
        {
          "name": "E5",
          "midi": 76,
          "time": 96.96418875000045,
          "velocity": 1,
          "duration": 0.42857100000000514
        },
        {
          "name": "E6",
          "midi": 88,
          "time": 96.96418875000045,
          "velocity": 1,
          "duration": 0.42857100000000514
        },
        {
          "name": "E7",
          "midi": 100,
          "time": 96.96418875000045,
          "velocity": 1,
          "duration": 0.42857100000000514
        },
        {
          "name": "D4",
          "midi": 62,
          "time": 97.39275975000045,
          "velocity": 1,
          "duration": 0.21428550000000257
        },
        {
          "name": "D5",
          "midi": 74,
          "time": 97.39275975000045,
          "velocity": 1,
          "duration": 0.21428550000000257
        },
        {
          "name": "D6",
          "midi": 86,
          "time": 97.39275975000045,
          "velocity": 1,
          "duration": 0.21428550000000257
        },
        {
          "name": "D7",
          "midi": 98,
          "time": 97.39275975000045,
          "velocity": 1,
          "duration": 0.21428550000000257
        },
        {
          "name": "E4",
          "midi": 64,
          "time": 97.60704525000045,
          "velocity": 1,
          "duration": 0.21428550000000257
        },
        {
          "name": "E5",
          "midi": 76,
          "time": 97.60704525000045,
          "velocity": 1,
          "duration": 0.21428550000000257
        },
        {
          "name": "E6",
          "midi": 88,
          "time": 97.60704525000045,
          "velocity": 1,
          "duration": 0.21428550000000257
        },
        {
          "name": "E7",
          "midi": 100,
          "time": 97.60704525000045,
          "velocity": 1,
          "duration": 0.21428550000000257
        },
        {
          "name": "D4",
          "midi": 62,
          "time": 98.03561625000046,
          "velocity": 1,
          "duration": 0.21428550000000257
        },
        {
          "name": "D5",
          "midi": 74,
          "time": 98.03561625000046,
          "velocity": 1,
          "duration": 0.21428550000000257
        },
        {
          "name": "D6",
          "midi": 86,
          "time": 98.03561625000046,
          "velocity": 1,
          "duration": 0.21428550000000257
        },
        {
          "name": "D7",
          "midi": 98,
          "time": 98.03561625000046,
          "velocity": 1,
          "duration": 0.21428550000000257
        },
        {
          "name": "C#4",
          "midi": 61,
          "time": 98.24990175000046,
          "velocity": 1,
          "duration": 0.42857100000000514
        },
        {
          "name": "C5",
          "midi": 72,
          "time": 98.24990175000046,
          "velocity": 1,
          "duration": 0.42857100000000514
        },
        {
          "name": "C#5",
          "midi": 73,
          "time": 98.24990175000046,
          "velocity": 1,
          "duration": 0.42857100000000514
        },
        {
          "name": "C6",
          "midi": 84,
          "time": 98.24990175000046,
          "velocity": 1,
          "duration": 0.42857100000000514
        },
        {
          "name": "C#6",
          "midi": 85,
          "time": 98.24990175000046,
          "velocity": 1,
          "duration": 0.42857100000000514
        },
        {
          "name": "C7",
          "midi": 96,
          "time": 98.24990175000046,
          "velocity": 1,
          "duration": 0.42857100000000514
        },
        {
          "name": "C#7",
          "midi": 97,
          "time": 98.24990175000046,
          "velocity": 1,
          "duration": 0.42857100000000514
        },
        {
          "name": "F#7",
          "midi": 102,
          "time": 98.24990175000046,
          "velocity": 1,
          "duration": 0.42857100000000514
        },
        {
          "name": "E4",
          "midi": 64,
          "time": 98.67847275000047,
          "velocity": 1,
          "duration": 0.21428550000000257
        },
        {
          "name": "E5",
          "midi": 76,
          "time": 98.67847275000047,
          "velocity": 1,
          "duration": 0.21428550000000257
        },
        {
          "name": "E6",
          "midi": 88,
          "time": 98.67847275000047,
          "velocity": 1,
          "duration": 0.21428550000000257
        },
        {
          "name": "E7",
          "midi": 100,
          "time": 98.67847275000047,
          "velocity": 1,
          "duration": 0.21428550000000257
        },
        {
          "name": "C#4",
          "midi": 61,
          "time": 98.89275825000047,
          "velocity": 1,
          "duration": 0.21428550000000257
        },
        {
          "name": "C5",
          "midi": 72,
          "time": 98.89275825000047,
          "velocity": 1,
          "duration": 0.21428550000000257
        },
        {
          "name": "C#5",
          "midi": 73,
          "time": 98.89275825000047,
          "velocity": 1,
          "duration": 0.21428550000000257
        },
        {
          "name": "C6",
          "midi": 84,
          "time": 98.89275825000047,
          "velocity": 1,
          "duration": 0.21428550000000257
        },
        {
          "name": "C#6",
          "midi": 85,
          "time": 98.89275825000047,
          "velocity": 1,
          "duration": 0.21428550000000257
        },
        {
          "name": "C7",
          "midi": 96,
          "time": 98.89275825000047,
          "velocity": 1,
          "duration": 0.21428550000000257
        },
        {
          "name": "C#7",
          "midi": 97,
          "time": 98.89275825000047,
          "velocity": 1,
          "duration": 0.21428550000000257
        },
        {
          "name": "F#7",
          "midi": 102,
          "time": 98.89275825000047,
          "velocity": 1,
          "duration": 0.21428550000000257
        },
        {
          "name": "D4",
          "midi": 62,
          "time": 99.10704375000047,
          "velocity": 1,
          "duration": 0.21428550000000257
        },
        {
          "name": "D5",
          "midi": 74,
          "time": 99.10704375000047,
          "velocity": 1,
          "duration": 0.21428550000000257
        },
        {
          "name": "D6",
          "midi": 86,
          "time": 99.10704375000047,
          "velocity": 1,
          "duration": 0.21428550000000257
        },
        {
          "name": "D7",
          "midi": 98,
          "time": 99.10704375000047,
          "velocity": 1,
          "duration": 0.21428550000000257
        },
        {
          "name": "E4",
          "midi": 64,
          "time": 99.32132925000047,
          "velocity": 1,
          "duration": 0.21428550000000257
        },
        {
          "name": "E5",
          "midi": 76,
          "time": 99.32132925000047,
          "velocity": 1,
          "duration": 0.21428550000000257
        },
        {
          "name": "E6",
          "midi": 88,
          "time": 99.32132925000047,
          "velocity": 1,
          "duration": 0.21428550000000257
        },
        {
          "name": "E7",
          "midi": 100,
          "time": 99.32132925000047,
          "velocity": 1,
          "duration": 0.21428550000000257
        },
        {
          "name": "D#4",
          "midi": 63,
          "time": 99.74990025000048,
          "velocity": 1,
          "duration": 0.21428550000000257
        },
        {
          "name": "D#5",
          "midi": 75,
          "time": 99.74990025000048,
          "velocity": 1,
          "duration": 0.21428550000000257
        },
        {
          "name": "D#6",
          "midi": 87,
          "time": 99.74990025000048,
          "velocity": 1,
          "duration": 0.21428550000000257
        },
        {
          "name": "D#7",
          "midi": 99,
          "time": 99.74990025000048,
          "velocity": 1,
          "duration": 0.21428550000000257
        },
        {
          "name": "D4",
          "midi": 62,
          "time": 99.96418575000048,
          "velocity": 1,
          "duration": 0.42857100000000514
        },
        {
          "name": "D5",
          "midi": 74,
          "time": 99.96418575000048,
          "velocity": 1,
          "duration": 0.42857100000000514
        },
        {
          "name": "D6",
          "midi": 86,
          "time": 99.96418575000048,
          "velocity": 1,
          "duration": 0.42857100000000514
        },
        {
          "name": "D7",
          "midi": 98,
          "time": 99.96418575000048,
          "velocity": 1,
          "duration": 0.42857100000000514
        },
        {
          "name": "E4",
          "midi": 64,
          "time": 100.39275675000049,
          "velocity": 1,
          "duration": 0.42857100000000514
        },
        {
          "name": "E5",
          "midi": 76,
          "time": 100.39275675000049,
          "velocity": 1,
          "duration": 0.42857100000000514
        },
        {
          "name": "E6",
          "midi": 88,
          "time": 100.39275675000049,
          "velocity": 1,
          "duration": 0.42857100000000514
        },
        {
          "name": "E7",
          "midi": 100,
          "time": 100.39275675000049,
          "velocity": 1,
          "duration": 0.42857100000000514
        },
        {
          "name": "D4",
          "midi": 62,
          "time": 100.82132775000049,
          "velocity": 1,
          "duration": 0.21428550000000257
        },
        {
          "name": "D5",
          "midi": 74,
          "time": 100.82132775000049,
          "velocity": 1,
          "duration": 0.21428550000000257
        },
        {
          "name": "D6",
          "midi": 86,
          "time": 100.82132775000049,
          "velocity": 1,
          "duration": 0.21428550000000257
        },
        {
          "name": "D7",
          "midi": 98,
          "time": 100.82132775000049,
          "velocity": 1,
          "duration": 0.21428550000000257
        },
        {
          "name": "E4",
          "midi": 64,
          "time": 101.0356132500005,
          "velocity": 1,
          "duration": 0.21428550000000257
        },
        {
          "name": "E5",
          "midi": 76,
          "time": 101.0356132500005,
          "velocity": 1,
          "duration": 0.21428550000000257
        },
        {
          "name": "E6",
          "midi": 88,
          "time": 101.0356132500005,
          "velocity": 1,
          "duration": 0.21428550000000257
        },
        {
          "name": "E7",
          "midi": 100,
          "time": 101.0356132500005,
          "velocity": 1,
          "duration": 0.21428550000000257
        },
        {
          "name": "D4",
          "midi": 62,
          "time": 101.4641842500005,
          "velocity": 1,
          "duration": 0.21428550000000257
        },
        {
          "name": "D5",
          "midi": 74,
          "time": 101.4641842500005,
          "velocity": 1,
          "duration": 0.21428550000000257
        },
        {
          "name": "D6",
          "midi": 86,
          "time": 101.4641842500005,
          "velocity": 1,
          "duration": 0.21428550000000257
        },
        {
          "name": "D7",
          "midi": 98,
          "time": 101.4641842500005,
          "velocity": 1,
          "duration": 0.21428550000000257
        },
        {
          "name": "C#4",
          "midi": 61,
          "time": 101.6784697500005,
          "velocity": 1,
          "duration": 0.42857100000000514
        },
        {
          "name": "C5",
          "midi": 72,
          "time": 101.6784697500005,
          "velocity": 1,
          "duration": 0.42857100000000514
        },
        {
          "name": "C#5",
          "midi": 73,
          "time": 101.6784697500005,
          "velocity": 1,
          "duration": 0.42857100000000514
        },
        {
          "name": "C6",
          "midi": 84,
          "time": 101.6784697500005,
          "velocity": 1,
          "duration": 0.42857100000000514
        },
        {
          "name": "C#6",
          "midi": 85,
          "time": 101.6784697500005,
          "velocity": 1,
          "duration": 0.42857100000000514
        },
        {
          "name": "C7",
          "midi": 96,
          "time": 101.6784697500005,
          "velocity": 1,
          "duration": 0.42857100000000514
        },
        {
          "name": "C#7",
          "midi": 97,
          "time": 101.6784697500005,
          "velocity": 1,
          "duration": 0.42857100000000514
        },
        {
          "name": "F#7",
          "midi": 102,
          "time": 101.6784697500005,
          "velocity": 1,
          "duration": 0.42857100000000514
        },
        {
          "name": "E4",
          "midi": 64,
          "time": 102.10704075000051,
          "velocity": 1,
          "duration": 0.21428550000000257
        },
        {
          "name": "E5",
          "midi": 76,
          "time": 102.10704075000051,
          "velocity": 1,
          "duration": 0.21428550000000257
        },
        {
          "name": "E6",
          "midi": 88,
          "time": 102.10704075000051,
          "velocity": 1,
          "duration": 0.21428550000000257
        },
        {
          "name": "E7",
          "midi": 100,
          "time": 102.10704075000051,
          "velocity": 1,
          "duration": 0.21428550000000257
        },
        {
          "name": "C#4",
          "midi": 61,
          "time": 102.32132625000051,
          "velocity": 1,
          "duration": 0.21428550000000257
        },
        {
          "name": "C5",
          "midi": 72,
          "time": 102.32132625000051,
          "velocity": 1,
          "duration": 0.21428550000000257
        },
        {
          "name": "C#5",
          "midi": 73,
          "time": 102.32132625000051,
          "velocity": 1,
          "duration": 0.21428550000000257
        },
        {
          "name": "C6",
          "midi": 84,
          "time": 102.32132625000051,
          "velocity": 1,
          "duration": 0.21428550000000257
        },
        {
          "name": "C#6",
          "midi": 85,
          "time": 102.32132625000051,
          "velocity": 1,
          "duration": 0.21428550000000257
        },
        {
          "name": "C7",
          "midi": 96,
          "time": 102.32132625000051,
          "velocity": 1,
          "duration": 0.21428550000000257
        },
        {
          "name": "C#7",
          "midi": 97,
          "time": 102.32132625000051,
          "velocity": 1,
          "duration": 0.21428550000000257
        },
        {
          "name": "F#7",
          "midi": 102,
          "time": 102.32132625000051,
          "velocity": 1,
          "duration": 0.21428550000000257
        },
        {
          "name": "D4",
          "midi": 62,
          "time": 102.53561175000051,
          "velocity": 1,
          "duration": 0.21428550000000257
        },
        {
          "name": "D5",
          "midi": 74,
          "time": 102.53561175000051,
          "velocity": 1,
          "duration": 0.21428550000000257
        },
        {
          "name": "D6",
          "midi": 86,
          "time": 102.53561175000051,
          "velocity": 1,
          "duration": 0.21428550000000257
        },
        {
          "name": "D7",
          "midi": 98,
          "time": 102.53561175000051,
          "velocity": 1,
          "duration": 0.21428550000000257
        },
        {
          "name": "E4",
          "midi": 64,
          "time": 102.74989725000052,
          "velocity": 1,
          "duration": 0.21428550000000257
        },
        {
          "name": "E5",
          "midi": 76,
          "time": 102.74989725000052,
          "velocity": 1,
          "duration": 0.21428550000000257
        },
        {
          "name": "E6",
          "midi": 88,
          "time": 102.74989725000052,
          "velocity": 1,
          "duration": 0.21428550000000257
        },
        {
          "name": "E7",
          "midi": 100,
          "time": 102.74989725000052,
          "velocity": 1,
          "duration": 0.21428550000000257
        },
        {
          "name": "D4",
          "midi": 62,
          "time": 103.17846825000052,
          "velocity": 1,
          "duration": 0.21428550000000257
        },
        {
          "name": "D5",
          "midi": 74,
          "time": 103.17846825000052,
          "velocity": 1,
          "duration": 0.21428550000000257
        },
        {
          "name": "D6",
          "midi": 86,
          "time": 103.17846825000052,
          "velocity": 1,
          "duration": 0.21428550000000257
        },
        {
          "name": "D7",
          "midi": 98,
          "time": 103.17846825000052,
          "velocity": 1,
          "duration": 0.21428550000000257
        },
        {
          "name": "D4",
          "midi": 62,
          "time": 103.39275375000052,
          "velocity": 1,
          "duration": 0.42857100000000514
        },
        {
          "name": "D5",
          "midi": 74,
          "time": 103.39275375000052,
          "velocity": 1,
          "duration": 0.42857100000000514
        },
        {
          "name": "D6",
          "midi": 86,
          "time": 103.39275375000052,
          "velocity": 1,
          "duration": 0.42857100000000514
        },
        {
          "name": "D7",
          "midi": 98,
          "time": 103.39275375000052,
          "velocity": 1,
          "duration": 0.42857100000000514
        },
        {
          "name": "E4",
          "midi": 64,
          "time": 103.82132475000053,
          "velocity": 1,
          "duration": 0.42857100000000514
        },
        {
          "name": "E5",
          "midi": 76,
          "time": 103.82132475000053,
          "velocity": 1,
          "duration": 0.42857100000000514
        },
        {
          "name": "E6",
          "midi": 88,
          "time": 103.82132475000053,
          "velocity": 1,
          "duration": 0.42857100000000514
        },
        {
          "name": "E7",
          "midi": 100,
          "time": 103.82132475000053,
          "velocity": 1,
          "duration": 0.42857100000000514
        },
        {
          "name": "D4",
          "midi": 62,
          "time": 104.24989575000053,
          "velocity": 1,
          "duration": 0.21428550000000257
        },
        {
          "name": "D5",
          "midi": 74,
          "time": 104.24989575000053,
          "velocity": 1,
          "duration": 0.21428550000000257
        },
        {
          "name": "D6",
          "midi": 86,
          "time": 104.24989575000053,
          "velocity": 1,
          "duration": 0.21428550000000257
        },
        {
          "name": "D7",
          "midi": 98,
          "time": 104.24989575000053,
          "velocity": 1,
          "duration": 0.21428550000000257
        },
        {
          "name": "E4",
          "midi": 64,
          "time": 104.46418125000054,
          "velocity": 1,
          "duration": 0.21428550000000257
        },
        {
          "name": "E5",
          "midi": 76,
          "time": 104.46418125000054,
          "velocity": 1,
          "duration": 0.21428550000000257
        },
        {
          "name": "E6",
          "midi": 88,
          "time": 104.46418125000054,
          "velocity": 1,
          "duration": 0.21428550000000257
        },
        {
          "name": "E7",
          "midi": 100,
          "time": 104.46418125000054,
          "velocity": 1,
          "duration": 0.21428550000000257
        },
        {
          "name": "D4",
          "midi": 62,
          "time": 104.89275225000054,
          "velocity": 1,
          "duration": 0.21428550000000257
        },
        {
          "name": "D5",
          "midi": 74,
          "time": 104.89275225000054,
          "velocity": 1,
          "duration": 0.21428550000000257
        },
        {
          "name": "D6",
          "midi": 86,
          "time": 104.89275225000054,
          "velocity": 1,
          "duration": 0.21428550000000257
        },
        {
          "name": "D7",
          "midi": 98,
          "time": 104.89275225000054,
          "velocity": 1,
          "duration": 0.21428550000000257
        },
        {
          "name": "C#4",
          "midi": 61,
          "time": 105.10703775000054,
          "velocity": 1,
          "duration": 0.42857100000000514
        },
        {
          "name": "C5",
          "midi": 72,
          "time": 105.10703775000054,
          "velocity": 1,
          "duration": 0.42857100000000514
        },
        {
          "name": "C#5",
          "midi": 73,
          "time": 105.10703775000054,
          "velocity": 1,
          "duration": 0.42857100000000514
        },
        {
          "name": "C6",
          "midi": 84,
          "time": 105.10703775000054,
          "velocity": 1,
          "duration": 0.42857100000000514
        },
        {
          "name": "C#6",
          "midi": 85,
          "time": 105.10703775000054,
          "velocity": 1,
          "duration": 0.42857100000000514
        },
        {
          "name": "C7",
          "midi": 96,
          "time": 105.10703775000054,
          "velocity": 1,
          "duration": 0.42857100000000514
        },
        {
          "name": "C#7",
          "midi": 97,
          "time": 105.10703775000054,
          "velocity": 1,
          "duration": 0.42857100000000514
        },
        {
          "name": "F#7",
          "midi": 102,
          "time": 105.10703775000054,
          "velocity": 1,
          "duration": 0.42857100000000514
        },
        {
          "name": "E4",
          "midi": 64,
          "time": 105.53560875000055,
          "velocity": 1,
          "duration": 0.21428550000000257
        },
        {
          "name": "E5",
          "midi": 76,
          "time": 105.53560875000055,
          "velocity": 1,
          "duration": 0.21428550000000257
        },
        {
          "name": "E6",
          "midi": 88,
          "time": 105.53560875000055,
          "velocity": 1,
          "duration": 0.21428550000000257
        },
        {
          "name": "E7",
          "midi": 100,
          "time": 105.53560875000055,
          "velocity": 1,
          "duration": 0.21428550000000257
        },
        {
          "name": "C#4",
          "midi": 61,
          "time": 105.74989425000055,
          "velocity": 1,
          "duration": 0.21428550000000257
        },
        {
          "name": "C5",
          "midi": 72,
          "time": 105.74989425000055,
          "velocity": 1,
          "duration": 0.21428550000000257
        },
        {
          "name": "C#5",
          "midi": 73,
          "time": 105.74989425000055,
          "velocity": 1,
          "duration": 0.21428550000000257
        },
        {
          "name": "C6",
          "midi": 84,
          "time": 105.74989425000055,
          "velocity": 1,
          "duration": 0.21428550000000257
        },
        {
          "name": "C#6",
          "midi": 85,
          "time": 105.74989425000055,
          "velocity": 1,
          "duration": 0.21428550000000257
        },
        {
          "name": "C7",
          "midi": 96,
          "time": 105.74989425000055,
          "velocity": 1,
          "duration": 0.21428550000000257
        },
        {
          "name": "C#7",
          "midi": 97,
          "time": 105.74989425000055,
          "velocity": 1,
          "duration": 0.21428550000000257
        },
        {
          "name": "F#7",
          "midi": 102,
          "time": 105.74989425000055,
          "velocity": 1,
          "duration": 0.21428550000000257
        },
        {
          "name": "D4",
          "midi": 62,
          "time": 105.96417975000055,
          "velocity": 1,
          "duration": 0.21428550000000257
        },
        {
          "name": "D5",
          "midi": 74,
          "time": 105.96417975000055,
          "velocity": 1,
          "duration": 0.21428550000000257
        },
        {
          "name": "D6",
          "midi": 86,
          "time": 105.96417975000055,
          "velocity": 1,
          "duration": 0.21428550000000257
        },
        {
          "name": "D7",
          "midi": 98,
          "time": 105.96417975000055,
          "velocity": 1,
          "duration": 0.21428550000000257
        },
        {
          "name": "E4",
          "midi": 64,
          "time": 106.17846525000056,
          "velocity": 1,
          "duration": 0.21428550000000257
        },
        {
          "name": "E5",
          "midi": 76,
          "time": 106.17846525000056,
          "velocity": 1,
          "duration": 0.21428550000000257
        },
        {
          "name": "E6",
          "midi": 88,
          "time": 106.17846525000056,
          "velocity": 1,
          "duration": 0.21428550000000257
        },
        {
          "name": "E7",
          "midi": 100,
          "time": 106.17846525000056,
          "velocity": 1,
          "duration": 0.21428550000000257
        },
        {
          "name": "D4",
          "midi": 62,
          "time": 106.82132175000056,
          "velocity": 1,
          "duration": 0.42857100000000514
        },
        {
          "name": "D5",
          "midi": 74,
          "time": 106.82132175000056,
          "velocity": 1,
          "duration": 0.42857100000000514
        },
        {
          "name": "D6",
          "midi": 86,
          "time": 106.82132175000056,
          "velocity": 1,
          "duration": 0.42857100000000514
        },
        {
          "name": "D7",
          "midi": 98,
          "time": 106.82132175000056,
          "velocity": 1,
          "duration": 0.42857100000000514
        },
        {
          "name": "E4",
          "midi": 64,
          "time": 107.24989275000057,
          "velocity": 1,
          "duration": 0.42857100000000514
        },
        {
          "name": "E5",
          "midi": 76,
          "time": 107.24989275000057,
          "velocity": 1,
          "duration": 0.42857100000000514
        },
        {
          "name": "E6",
          "midi": 88,
          "time": 107.24989275000057,
          "velocity": 1,
          "duration": 0.42857100000000514
        },
        {
          "name": "E7",
          "midi": 100,
          "time": 107.24989275000057,
          "velocity": 1,
          "duration": 0.42857100000000514
        },
        {
          "name": "D4",
          "midi": 62,
          "time": 107.67846375000057,
          "velocity": 1,
          "duration": 0.21428550000000257
        },
        {
          "name": "D5",
          "midi": 74,
          "time": 107.67846375000057,
          "velocity": 1,
          "duration": 0.21428550000000257
        },
        {
          "name": "D6",
          "midi": 86,
          "time": 107.67846375000057,
          "velocity": 1,
          "duration": 0.21428550000000257
        },
        {
          "name": "D7",
          "midi": 98,
          "time": 107.67846375000057,
          "velocity": 1,
          "duration": 0.21428550000000257
        },
        {
          "name": "E4",
          "midi": 64,
          "time": 107.89274925000058,
          "velocity": 1,
          "duration": 0.21428550000000257
        },
        {
          "name": "E5",
          "midi": 76,
          "time": 107.89274925000058,
          "velocity": 1,
          "duration": 0.21428550000000257
        },
        {
          "name": "E6",
          "midi": 88,
          "time": 107.89274925000058,
          "velocity": 1,
          "duration": 0.21428550000000257
        },
        {
          "name": "E7",
          "midi": 100,
          "time": 107.89274925000058,
          "velocity": 1,
          "duration": 0.21428550000000257
        },
        {
          "name": "C4",
          "midi": 60,
          "time": 109.71417600000058,
          "velocity": 1,
          "duration": 0.2857139999999987
        },
        {
          "name": "C5",
          "midi": 72,
          "time": 109.71417600000058,
          "velocity": 1,
          "duration": 0.2857139999999987
        },
        {
          "name": "C6",
          "midi": 84,
          "time": 109.71417600000058,
          "velocity": 1,
          "duration": 0.2857139999999987
        },
        {
          "name": "C7",
          "midi": 96,
          "time": 109.71417600000058,
          "velocity": 1,
          "duration": 0.2857139999999987
        },
        {
          "name": "C#4",
          "midi": 61,
          "time": 109.99989000000058,
          "velocity": 1,
          "duration": 0.2857139999999987
        },
        {
          "name": "C#5",
          "midi": 73,
          "time": 109.99989000000058,
          "velocity": 1,
          "duration": 0.2857139999999987
        },
        {
          "name": "C#6",
          "midi": 85,
          "time": 109.99989000000058,
          "velocity": 1,
          "duration": 0.2857139999999987
        },
        {
          "name": "C#7",
          "midi": 97,
          "time": 109.99989000000058,
          "velocity": 1,
          "duration": 0.2857139999999987
        },
        {
          "name": "D4",
          "midi": 62,
          "time": 110.28560400000057,
          "velocity": 1,
          "duration": 0.2857139999999987
        },
        {
          "name": "D5",
          "midi": 74,
          "time": 110.28560400000057,
          "velocity": 1,
          "duration": 0.2857139999999987
        },
        {
          "name": "D6",
          "midi": 86,
          "time": 110.28560400000057,
          "velocity": 1,
          "duration": 0.2857139999999987
        },
        {
          "name": "D7",
          "midi": 98,
          "time": 110.28560400000057,
          "velocity": 1,
          "duration": 0.2857139999999987
        },
        {
          "name": "E4",
          "midi": 64,
          "time": 110.57131800000057,
          "velocity": 1,
          "duration": 0.42857100000000514
        },
        {
          "name": "E5",
          "midi": 76,
          "time": 110.57131800000057,
          "velocity": 1,
          "duration": 0.42857100000000514
        },
        {
          "name": "E6",
          "midi": 88,
          "time": 110.57131800000057,
          "velocity": 1,
          "duration": 0.42857100000000514
        },
        {
          "name": "E7",
          "midi": 100,
          "time": 110.57131800000057,
          "velocity": 1,
          "duration": 0.42857100000000514
        },
        {
          "name": "C4",
          "midi": 60,
          "time": 110.99988900000058,
          "velocity": 1,
          "duration": 0.14285700000000645
        },
        {
          "name": "C5",
          "midi": 72,
          "time": 110.99988900000058,
          "velocity": 1,
          "duration": 0.14285700000000645
        },
        {
          "name": "C6",
          "midi": 84,
          "time": 110.99988900000058,
          "velocity": 1,
          "duration": 0.14285700000000645
        },
        {
          "name": "C7",
          "midi": 96,
          "time": 110.99988900000058,
          "velocity": 1,
          "duration": 0.14285700000000645
        },
        {
          "name": "C4",
          "midi": 60,
          "time": 111.14274600000059,
          "velocity": 1,
          "duration": 0.14285700000000645
        },
        {
          "name": "C5",
          "midi": 72,
          "time": 111.14274600000059,
          "velocity": 1,
          "duration": 0.14285700000000645
        },
        {
          "name": "C6",
          "midi": 84,
          "time": 111.14274600000059,
          "velocity": 1,
          "duration": 0.14285700000000645
        },
        {
          "name": "C7",
          "midi": 96,
          "time": 111.14274600000059,
          "velocity": 1,
          "duration": 0.14285700000000645
        },
        {
          "name": "C4",
          "midi": 60,
          "time": 111.28560300000059,
          "velocity": 1,
          "duration": 0.14285700000000645
        },
        {
          "name": "C5",
          "midi": 72,
          "time": 111.28560300000059,
          "velocity": 1,
          "duration": 0.14285700000000645
        },
        {
          "name": "C6",
          "midi": 84,
          "time": 111.28560300000059,
          "velocity": 1,
          "duration": 0.14285700000000645
        },
        {
          "name": "C7",
          "midi": 96,
          "time": 111.28560300000059,
          "velocity": 1,
          "duration": 0.14285700000000645
        },
        {
          "name": "C4",
          "midi": 60,
          "time": 111.4284600000006,
          "velocity": 1,
          "duration": 0.2857139999999987
        },
        {
          "name": "C5",
          "midi": 72,
          "time": 111.4284600000006,
          "velocity": 1,
          "duration": 0.2857139999999987
        },
        {
          "name": "C6",
          "midi": 84,
          "time": 111.4284600000006,
          "velocity": 1,
          "duration": 0.2857139999999987
        },
        {
          "name": "C7",
          "midi": 96,
          "time": 111.4284600000006,
          "velocity": 1,
          "duration": 0.2857139999999987
        },
        {
          "name": "C#4",
          "midi": 61,
          "time": 111.7141740000006,
          "velocity": 1,
          "duration": 0.2857139999999987
        },
        {
          "name": "C#5",
          "midi": 73,
          "time": 111.7141740000006,
          "velocity": 1,
          "duration": 0.2857139999999987
        },
        {
          "name": "C#6",
          "midi": 85,
          "time": 111.7141740000006,
          "velocity": 1,
          "duration": 0.2857139999999987
        },
        {
          "name": "C#7",
          "midi": 97,
          "time": 111.7141740000006,
          "velocity": 1,
          "duration": 0.2857139999999987
        },
        {
          "name": "D4",
          "midi": 62,
          "time": 111.9998880000006,
          "velocity": 1,
          "duration": 0.2857139999999987
        },
        {
          "name": "D5",
          "midi": 74,
          "time": 111.9998880000006,
          "velocity": 1,
          "duration": 0.2857139999999987
        },
        {
          "name": "D6",
          "midi": 86,
          "time": 111.9998880000006,
          "velocity": 1,
          "duration": 0.2857139999999987
        },
        {
          "name": "D7",
          "midi": 98,
          "time": 111.9998880000006,
          "velocity": 1,
          "duration": 0.2857139999999987
        },
        {
          "name": "E4",
          "midi": 64,
          "time": 112.2856020000006,
          "velocity": 1,
          "duration": 0.42857100000000514
        },
        {
          "name": "E5",
          "midi": 76,
          "time": 112.2856020000006,
          "velocity": 1,
          "duration": 0.42857100000000514
        },
        {
          "name": "E6",
          "midi": 88,
          "time": 112.2856020000006,
          "velocity": 1,
          "duration": 0.42857100000000514
        },
        {
          "name": "E7",
          "midi": 100,
          "time": 112.2856020000006,
          "velocity": 1,
          "duration": 0.42857100000000514
        },
        {
          "name": "C4",
          "midi": 60,
          "time": 112.7141730000006,
          "velocity": 1,
          "duration": 0.14285700000000645
        },
        {
          "name": "C5",
          "midi": 72,
          "time": 112.7141730000006,
          "velocity": 1,
          "duration": 0.14285700000000645
        },
        {
          "name": "C6",
          "midi": 84,
          "time": 112.7141730000006,
          "velocity": 1,
          "duration": 0.14285700000000645
        },
        {
          "name": "C7",
          "midi": 96,
          "time": 112.7141730000006,
          "velocity": 1,
          "duration": 0.14285700000000645
        },
        {
          "name": "C4",
          "midi": 60,
          "time": 112.8570300000006,
          "velocity": 1,
          "duration": 0.14285700000000645
        },
        {
          "name": "C5",
          "midi": 72,
          "time": 112.8570300000006,
          "velocity": 1,
          "duration": 0.14285700000000645
        },
        {
          "name": "C6",
          "midi": 84,
          "time": 112.8570300000006,
          "velocity": 1,
          "duration": 0.14285700000000645
        },
        {
          "name": "C7",
          "midi": 96,
          "time": 112.8570300000006,
          "velocity": 1,
          "duration": 0.14285700000000645
        },
        {
          "name": "C4",
          "midi": 60,
          "time": 112.99988700000061,
          "velocity": 1,
          "duration": 0.14285700000000645
        },
        {
          "name": "C5",
          "midi": 72,
          "time": 112.99988700000061,
          "velocity": 1,
          "duration": 0.14285700000000645
        },
        {
          "name": "C6",
          "midi": 84,
          "time": 112.99988700000061,
          "velocity": 1,
          "duration": 0.14285700000000645
        },
        {
          "name": "C7",
          "midi": 96,
          "time": 112.99988700000061,
          "velocity": 1,
          "duration": 0.14285700000000645
        },
        {
          "name": "C4",
          "midi": 60,
          "time": 113.14274400000062,
          "velocity": 1,
          "duration": 0.2857139999999987
        },
        {
          "name": "C5",
          "midi": 72,
          "time": 113.14274400000062,
          "velocity": 1,
          "duration": 0.2857139999999987
        },
        {
          "name": "C6",
          "midi": 84,
          "time": 113.14274400000062,
          "velocity": 1,
          "duration": 0.2857139999999987
        },
        {
          "name": "C7",
          "midi": 96,
          "time": 113.14274400000062,
          "velocity": 1,
          "duration": 0.2857139999999987
        },
        {
          "name": "C#4",
          "midi": 61,
          "time": 113.42845800000062,
          "velocity": 1,
          "duration": 0.2857139999999987
        },
        {
          "name": "C#5",
          "midi": 73,
          "time": 113.42845800000062,
          "velocity": 1,
          "duration": 0.2857139999999987
        },
        {
          "name": "C#6",
          "midi": 85,
          "time": 113.42845800000062,
          "velocity": 1,
          "duration": 0.2857139999999987
        },
        {
          "name": "C#7",
          "midi": 97,
          "time": 113.42845800000062,
          "velocity": 1,
          "duration": 0.2857139999999987
        },
        {
          "name": "D4",
          "midi": 62,
          "time": 113.71417200000062,
          "velocity": 1,
          "duration": 0.2857139999999987
        },
        {
          "name": "D5",
          "midi": 74,
          "time": 113.71417200000062,
          "velocity": 1,
          "duration": 0.2857139999999987
        },
        {
          "name": "D6",
          "midi": 86,
          "time": 113.71417200000062,
          "velocity": 1,
          "duration": 0.2857139999999987
        },
        {
          "name": "D7",
          "midi": 98,
          "time": 113.71417200000062,
          "velocity": 1,
          "duration": 0.2857139999999987
        },
        {
          "name": "E4",
          "midi": 64,
          "time": 113.99988600000061,
          "velocity": 1,
          "duration": 0.42857100000000514
        },
        {
          "name": "E5",
          "midi": 76,
          "time": 113.99988600000061,
          "velocity": 1,
          "duration": 0.42857100000000514
        },
        {
          "name": "E6",
          "midi": 88,
          "time": 113.99988600000061,
          "velocity": 1,
          "duration": 0.42857100000000514
        },
        {
          "name": "E7",
          "midi": 100,
          "time": 113.99988600000061,
          "velocity": 1,
          "duration": 0.42857100000000514
        },
        {
          "name": "C4",
          "midi": 60,
          "time": 114.42845700000062,
          "velocity": 1,
          "duration": 0.14285700000000645
        },
        {
          "name": "C5",
          "midi": 72,
          "time": 114.42845700000062,
          "velocity": 1,
          "duration": 0.14285700000000645
        },
        {
          "name": "C6",
          "midi": 84,
          "time": 114.42845700000062,
          "velocity": 1,
          "duration": 0.14285700000000645
        },
        {
          "name": "C7",
          "midi": 96,
          "time": 114.42845700000062,
          "velocity": 1,
          "duration": 0.14285700000000645
        },
        {
          "name": "C4",
          "midi": 60,
          "time": 114.57131400000063,
          "velocity": 1,
          "duration": 0.14285700000000645
        },
        {
          "name": "C5",
          "midi": 72,
          "time": 114.57131400000063,
          "velocity": 1,
          "duration": 0.14285700000000645
        },
        {
          "name": "C6",
          "midi": 84,
          "time": 114.57131400000063,
          "velocity": 1,
          "duration": 0.14285700000000645
        },
        {
          "name": "C7",
          "midi": 96,
          "time": 114.57131400000063,
          "velocity": 1,
          "duration": 0.14285700000000645
        },
        {
          "name": "C4",
          "midi": 60,
          "time": 114.71417100000063,
          "velocity": 1,
          "duration": 0.14285700000000645
        },
        {
          "name": "C5",
          "midi": 72,
          "time": 114.71417100000063,
          "velocity": 1,
          "duration": 0.14285700000000645
        },
        {
          "name": "C6",
          "midi": 84,
          "time": 114.71417100000063,
          "velocity": 1,
          "duration": 0.14285700000000645
        },
        {
          "name": "C7",
          "midi": 96,
          "time": 114.71417100000063,
          "velocity": 1,
          "duration": 0.14285700000000645
        },
        {
          "name": "C4",
          "midi": 60,
          "time": 114.85702800000064,
          "velocity": 1,
          "duration": 0.2857139999999987
        },
        {
          "name": "C5",
          "midi": 72,
          "time": 114.85702800000064,
          "velocity": 1,
          "duration": 0.2857139999999987
        },
        {
          "name": "C6",
          "midi": 84,
          "time": 114.85702800000064,
          "velocity": 1,
          "duration": 0.2857139999999987
        },
        {
          "name": "C7",
          "midi": 96,
          "time": 114.85702800000064,
          "velocity": 1,
          "duration": 0.2857139999999987
        },
        {
          "name": "C#4",
          "midi": 61,
          "time": 115.14274200000064,
          "velocity": 1,
          "duration": 0.2857139999999987
        },
        {
          "name": "C#5",
          "midi": 73,
          "time": 115.14274200000064,
          "velocity": 1,
          "duration": 0.2857139999999987
        },
        {
          "name": "C#6",
          "midi": 85,
          "time": 115.14274200000064,
          "velocity": 1,
          "duration": 0.2857139999999987
        },
        {
          "name": "C#7",
          "midi": 97,
          "time": 115.14274200000064,
          "velocity": 1,
          "duration": 0.2857139999999987
        },
        {
          "name": "D4",
          "midi": 62,
          "time": 115.42845600000064,
          "velocity": 1,
          "duration": 0.2857139999999987
        },
        {
          "name": "D5",
          "midi": 74,
          "time": 115.42845600000064,
          "velocity": 1,
          "duration": 0.2857139999999987
        },
        {
          "name": "D6",
          "midi": 86,
          "time": 115.42845600000064,
          "velocity": 1,
          "duration": 0.2857139999999987
        },
        {
          "name": "D7",
          "midi": 98,
          "time": 115.42845600000064,
          "velocity": 1,
          "duration": 0.2857139999999987
        },
        {
          "name": "C4",
          "midi": 60,
          "time": 115.71417000000064,
          "velocity": 1,
          "duration": 0.42857100000000514
        },
        {
          "name": "C5",
          "midi": 72,
          "time": 115.71417000000064,
          "velocity": 1,
          "duration": 0.42857100000000514
        },
        {
          "name": "C6",
          "midi": 84,
          "time": 115.71417000000064,
          "velocity": 1,
          "duration": 0.42857100000000514
        },
        {
          "name": "C7",
          "midi": 96,
          "time": 115.71417000000064,
          "velocity": 1,
          "duration": 0.42857100000000514
        },
        {
          "name": "C4",
          "midi": 60,
          "time": 116.14274100000064,
          "velocity": 1,
          "duration": 0.14285700000000645
        },
        {
          "name": "C5",
          "midi": 72,
          "time": 116.14274100000064,
          "velocity": 1,
          "duration": 0.14285700000000645
        },
        {
          "name": "C6",
          "midi": 84,
          "time": 116.14274100000064,
          "velocity": 1,
          "duration": 0.14285700000000645
        },
        {
          "name": "C7",
          "midi": 96,
          "time": 116.14274100000064,
          "velocity": 1,
          "duration": 0.14285700000000645
        },
        {
          "name": "C4",
          "midi": 60,
          "time": 116.28559800000065,
          "velocity": 1,
          "duration": 0.14285700000000645
        },
        {
          "name": "C5",
          "midi": 72,
          "time": 116.28559800000065,
          "velocity": 1,
          "duration": 0.14285700000000645
        },
        {
          "name": "C6",
          "midi": 84,
          "time": 116.28559800000065,
          "velocity": 1,
          "duration": 0.14285700000000645
        },
        {
          "name": "C7",
          "midi": 96,
          "time": 116.28559800000065,
          "velocity": 1,
          "duration": 0.14285700000000645
        },
        {
          "name": "C4",
          "midi": 60,
          "time": 116.42845500000065,
          "velocity": 1,
          "duration": 0.14285700000000645
        },
        {
          "name": "C5",
          "midi": 72,
          "time": 116.42845500000065,
          "velocity": 1,
          "duration": 0.14285700000000645
        },
        {
          "name": "C6",
          "midi": 84,
          "time": 116.42845500000065,
          "velocity": 1,
          "duration": 0.14285700000000645
        },
        {
          "name": "C7",
          "midi": 96,
          "time": 116.42845500000065,
          "velocity": 1,
          "duration": 0.14285700000000645
        },
        {
          "name": "C4",
          "midi": 60,
          "time": 116.57131200000066,
          "velocity": 1,
          "duration": 0.2857139999999987
        },
        {
          "name": "C5",
          "midi": 72,
          "time": 116.57131200000066,
          "velocity": 1,
          "duration": 0.2857139999999987
        },
        {
          "name": "C6",
          "midi": 84,
          "time": 116.57131200000066,
          "velocity": 1,
          "duration": 0.2857139999999987
        },
        {
          "name": "C7",
          "midi": 96,
          "time": 116.57131200000066,
          "velocity": 1,
          "duration": 0.2857139999999987
        },
        {
          "name": "C#4",
          "midi": 61,
          "time": 116.85702600000066,
          "velocity": 1,
          "duration": 0.2857139999999987
        },
        {
          "name": "C#5",
          "midi": 73,
          "time": 116.85702600000066,
          "velocity": 1,
          "duration": 0.2857139999999987
        },
        {
          "name": "C#6",
          "midi": 85,
          "time": 116.85702600000066,
          "velocity": 1,
          "duration": 0.2857139999999987
        },
        {
          "name": "C#7",
          "midi": 97,
          "time": 116.85702600000066,
          "velocity": 1,
          "duration": 0.2857139999999987
        },
        {
          "name": "D4",
          "midi": 62,
          "time": 117.14274000000066,
          "velocity": 1,
          "duration": 0.2857139999999987
        },
        {
          "name": "D5",
          "midi": 74,
          "time": 117.14274000000066,
          "velocity": 1,
          "duration": 0.2857139999999987
        },
        {
          "name": "D6",
          "midi": 86,
          "time": 117.14274000000066,
          "velocity": 1,
          "duration": 0.2857139999999987
        },
        {
          "name": "D7",
          "midi": 98,
          "time": 117.14274000000066,
          "velocity": 1,
          "duration": 0.2857139999999987
        },
        {
          "name": "E4",
          "midi": 64,
          "time": 117.42845400000066,
          "velocity": 1,
          "duration": 0.42857100000000514
        },
        {
          "name": "E5",
          "midi": 76,
          "time": 117.42845400000066,
          "velocity": 1,
          "duration": 0.42857100000000514
        },
        {
          "name": "E6",
          "midi": 88,
          "time": 117.42845400000066,
          "velocity": 1,
          "duration": 0.42857100000000514
        },
        {
          "name": "E7",
          "midi": 100,
          "time": 117.42845400000066,
          "velocity": 1,
          "duration": 0.42857100000000514
        },
        {
          "name": "C4",
          "midi": 60,
          "time": 117.85702500000066,
          "velocity": 1,
          "duration": 0.14285700000000645
        },
        {
          "name": "C5",
          "midi": 72,
          "time": 117.85702500000066,
          "velocity": 1,
          "duration": 0.14285700000000645
        },
        {
          "name": "C6",
          "midi": 84,
          "time": 117.85702500000066,
          "velocity": 1,
          "duration": 0.14285700000000645
        },
        {
          "name": "C7",
          "midi": 96,
          "time": 117.85702500000066,
          "velocity": 1,
          "duration": 0.14285700000000645
        },
        {
          "name": "C4",
          "midi": 60,
          "time": 117.99988200000067,
          "velocity": 1,
          "duration": 0.14285700000000645
        },
        {
          "name": "C5",
          "midi": 72,
          "time": 117.99988200000067,
          "velocity": 1,
          "duration": 0.14285700000000645
        },
        {
          "name": "C6",
          "midi": 84,
          "time": 117.99988200000067,
          "velocity": 1,
          "duration": 0.14285700000000645
        },
        {
          "name": "C7",
          "midi": 96,
          "time": 117.99988200000067,
          "velocity": 1,
          "duration": 0.14285700000000645
        },
        {
          "name": "C4",
          "midi": 60,
          "time": 118.14273900000067,
          "velocity": 1,
          "duration": 0.14285700000000645
        },
        {
          "name": "C5",
          "midi": 72,
          "time": 118.14273900000067,
          "velocity": 1,
          "duration": 0.14285700000000645
        },
        {
          "name": "C6",
          "midi": 84,
          "time": 118.14273900000067,
          "velocity": 1,
          "duration": 0.14285700000000645
        },
        {
          "name": "C7",
          "midi": 96,
          "time": 118.14273900000067,
          "velocity": 1,
          "duration": 0.14285700000000645
        },
        {
          "name": "C4",
          "midi": 60,
          "time": 118.28559600000068,
          "velocity": 1,
          "duration": 0.2857139999999987
        },
        {
          "name": "C5",
          "midi": 72,
          "time": 118.28559600000068,
          "velocity": 1,
          "duration": 0.2857139999999987
        },
        {
          "name": "C6",
          "midi": 84,
          "time": 118.28559600000068,
          "velocity": 1,
          "duration": 0.2857139999999987
        },
        {
          "name": "C7",
          "midi": 96,
          "time": 118.28559600000068,
          "velocity": 1,
          "duration": 0.2857139999999987
        },
        {
          "name": "C#4",
          "midi": 61,
          "time": 118.57131000000068,
          "velocity": 1,
          "duration": 0.2857139999999987
        },
        {
          "name": "C#5",
          "midi": 73,
          "time": 118.57131000000068,
          "velocity": 1,
          "duration": 0.2857139999999987
        },
        {
          "name": "C#6",
          "midi": 85,
          "time": 118.57131000000068,
          "velocity": 1,
          "duration": 0.2857139999999987
        },
        {
          "name": "C#7",
          "midi": 97,
          "time": 118.57131000000068,
          "velocity": 1,
          "duration": 0.2857139999999987
        },
        {
          "name": "D4",
          "midi": 62,
          "time": 118.85702400000068,
          "velocity": 1,
          "duration": 0.2857139999999987
        },
        {
          "name": "D5",
          "midi": 74,
          "time": 118.85702400000068,
          "velocity": 1,
          "duration": 0.2857139999999987
        },
        {
          "name": "D6",
          "midi": 86,
          "time": 118.85702400000068,
          "velocity": 1,
          "duration": 0.2857139999999987
        },
        {
          "name": "D7",
          "midi": 98,
          "time": 118.85702400000068,
          "velocity": 1,
          "duration": 0.2857139999999987
        },
        {
          "name": "E4",
          "midi": 64,
          "time": 119.14273800000068,
          "velocity": 1,
          "duration": 0.42857100000000514
        },
        {
          "name": "E5",
          "midi": 76,
          "time": 119.14273800000068,
          "velocity": 1,
          "duration": 0.42857100000000514
        },
        {
          "name": "E6",
          "midi": 88,
          "time": 119.14273800000068,
          "velocity": 1,
          "duration": 0.42857100000000514
        },
        {
          "name": "E7",
          "midi": 100,
          "time": 119.14273800000068,
          "velocity": 1,
          "duration": 0.42857100000000514
        },
        {
          "name": "C4",
          "midi": 60,
          "time": 119.57130900000068,
          "velocity": 1,
          "duration": 0.14285700000000645
        },
        {
          "name": "C5",
          "midi": 72,
          "time": 119.57130900000068,
          "velocity": 1,
          "duration": 0.14285700000000645
        },
        {
          "name": "C6",
          "midi": 84,
          "time": 119.57130900000068,
          "velocity": 1,
          "duration": 0.14285700000000645
        },
        {
          "name": "C7",
          "midi": 96,
          "time": 119.57130900000068,
          "velocity": 1,
          "duration": 0.14285700000000645
        },
        {
          "name": "C4",
          "midi": 60,
          "time": 119.71416600000069,
          "velocity": 1,
          "duration": 0.14285700000000645
        },
        {
          "name": "C5",
          "midi": 72,
          "time": 119.71416600000069,
          "velocity": 1,
          "duration": 0.14285700000000645
        },
        {
          "name": "C6",
          "midi": 84,
          "time": 119.71416600000069,
          "velocity": 1,
          "duration": 0.14285700000000645
        },
        {
          "name": "C7",
          "midi": 96,
          "time": 119.71416600000069,
          "velocity": 1,
          "duration": 0.14285700000000645
        },
        {
          "name": "C4",
          "midi": 60,
          "time": 119.8570230000007,
          "velocity": 1,
          "duration": 0.14285700000000645
        },
        {
          "name": "C5",
          "midi": 72,
          "time": 119.8570230000007,
          "velocity": 1,
          "duration": 0.14285700000000645
        },
        {
          "name": "C6",
          "midi": 84,
          "time": 119.8570230000007,
          "velocity": 1,
          "duration": 0.14285700000000645
        },
        {
          "name": "C7",
          "midi": 96,
          "time": 119.8570230000007,
          "velocity": 1,
          "duration": 0.14285700000000645
        },
        {
          "name": "C4",
          "midi": 60,
          "time": 119.9998800000007,
          "velocity": 1,
          "duration": 0.2857139999999987
        },
        {
          "name": "C5",
          "midi": 72,
          "time": 119.9998800000007,
          "velocity": 1,
          "duration": 0.2857139999999987
        },
        {
          "name": "C6",
          "midi": 84,
          "time": 119.9998800000007,
          "velocity": 1,
          "duration": 0.2857139999999987
        },
        {
          "name": "C7",
          "midi": 96,
          "time": 119.9998800000007,
          "velocity": 1,
          "duration": 0.2857139999999987
        },
        {
          "name": "C#4",
          "midi": 61,
          "time": 120.2855940000007,
          "velocity": 1,
          "duration": 0.2857139999999987
        },
        {
          "name": "C#5",
          "midi": 73,
          "time": 120.2855940000007,
          "velocity": 1,
          "duration": 0.2857139999999987
        },
        {
          "name": "C#6",
          "midi": 85,
          "time": 120.2855940000007,
          "velocity": 1,
          "duration": 0.2857139999999987
        },
        {
          "name": "C#7",
          "midi": 97,
          "time": 120.2855940000007,
          "velocity": 1,
          "duration": 0.2857139999999987
        },
        {
          "name": "D4",
          "midi": 62,
          "time": 120.5713080000007,
          "velocity": 1,
          "duration": 0.2857139999999987
        },
        {
          "name": "D5",
          "midi": 74,
          "time": 120.5713080000007,
          "velocity": 1,
          "duration": 0.2857139999999987
        },
        {
          "name": "D6",
          "midi": 86,
          "time": 120.5713080000007,
          "velocity": 1,
          "duration": 0.2857139999999987
        },
        {
          "name": "D7",
          "midi": 98,
          "time": 120.5713080000007,
          "velocity": 1,
          "duration": 0.2857139999999987
        },
        {
          "name": "E4",
          "midi": 64,
          "time": 120.8570220000007,
          "velocity": 1,
          "duration": 0.42857100000000514
        },
        {
          "name": "E5",
          "midi": 76,
          "time": 120.8570220000007,
          "velocity": 1,
          "duration": 0.42857100000000514
        },
        {
          "name": "E6",
          "midi": 88,
          "time": 120.8570220000007,
          "velocity": 1,
          "duration": 0.42857100000000514
        },
        {
          "name": "E7",
          "midi": 100,
          "time": 120.8570220000007,
          "velocity": 1,
          "duration": 0.42857100000000514
        },
        {
          "name": "C4",
          "midi": 60,
          "time": 121.2855930000007,
          "velocity": 1,
          "duration": 0.14285700000000645
        },
        {
          "name": "C5",
          "midi": 72,
          "time": 121.2855930000007,
          "velocity": 1,
          "duration": 0.14285700000000645
        },
        {
          "name": "C6",
          "midi": 84,
          "time": 121.2855930000007,
          "velocity": 1,
          "duration": 0.14285700000000645
        },
        {
          "name": "C7",
          "midi": 96,
          "time": 121.2855930000007,
          "velocity": 1,
          "duration": 0.14285700000000645
        },
        {
          "name": "C4",
          "midi": 60,
          "time": 121.42845000000071,
          "velocity": 1,
          "duration": 0.14285700000000645
        },
        {
          "name": "C5",
          "midi": 72,
          "time": 121.42845000000071,
          "velocity": 1,
          "duration": 0.14285700000000645
        },
        {
          "name": "C6",
          "midi": 84,
          "time": 121.42845000000071,
          "velocity": 1,
          "duration": 0.14285700000000645
        },
        {
          "name": "C7",
          "midi": 96,
          "time": 121.42845000000071,
          "velocity": 1,
          "duration": 0.14285700000000645
        },
        {
          "name": "C4",
          "midi": 60,
          "time": 121.57130700000071,
          "velocity": 1,
          "duration": 0.14285700000000645
        },
        {
          "name": "C5",
          "midi": 72,
          "time": 121.57130700000071,
          "velocity": 1,
          "duration": 0.14285700000000645
        },
        {
          "name": "C6",
          "midi": 84,
          "time": 121.57130700000071,
          "velocity": 1,
          "duration": 0.14285700000000645
        },
        {
          "name": "C7",
          "midi": 96,
          "time": 121.57130700000071,
          "velocity": 1,
          "duration": 0.14285700000000645
        },
        {
          "name": "C4",
          "midi": 60,
          "time": 121.71416400000072,
          "velocity": 1,
          "duration": 0.2857139999999987
        },
        {
          "name": "C5",
          "midi": 72,
          "time": 121.71416400000072,
          "velocity": 1,
          "duration": 0.2857139999999987
        },
        {
          "name": "C6",
          "midi": 84,
          "time": 121.71416400000072,
          "velocity": 1,
          "duration": 0.2857139999999987
        },
        {
          "name": "C7",
          "midi": 96,
          "time": 121.71416400000072,
          "velocity": 1,
          "duration": 0.2857139999999987
        },
        {
          "name": "D4",
          "midi": 62,
          "time": 121.99987800000072,
          "velocity": 1,
          "duration": 0.2857139999999987
        },
        {
          "name": "D5",
          "midi": 74,
          "time": 121.99987800000072,
          "velocity": 1,
          "duration": 0.2857139999999987
        },
        {
          "name": "D6",
          "midi": 86,
          "time": 121.99987800000072,
          "velocity": 1,
          "duration": 0.2857139999999987
        },
        {
          "name": "D7",
          "midi": 98,
          "time": 121.99987800000072,
          "velocity": 1,
          "duration": 0.2857139999999987
        },
        {
          "name": "C#4",
          "midi": 61,
          "time": 122.28559200000072,
          "velocity": 1,
          "duration": 0.2857139999999987
        },
        {
          "name": "C#5",
          "midi": 73,
          "time": 122.28559200000072,
          "velocity": 1,
          "duration": 0.2857139999999987
        },
        {
          "name": "C#6",
          "midi": 85,
          "time": 122.28559200000072,
          "velocity": 1,
          "duration": 0.2857139999999987
        },
        {
          "name": "C#7",
          "midi": 97,
          "time": 122.28559200000072,
          "velocity": 1,
          "duration": 0.2857139999999987
        },
        {
          "name": "E4",
          "midi": 64,
          "time": 122.57130600000072,
          "velocity": 1,
          "duration": 0.42857100000000514
        },
        {
          "name": "E5",
          "midi": 76,
          "time": 122.57130600000072,
          "velocity": 1,
          "duration": 0.42857100000000514
        },
        {
          "name": "E6",
          "midi": 88,
          "time": 122.57130600000072,
          "velocity": 1,
          "duration": 0.42857100000000514
        },
        {
          "name": "E7",
          "midi": 100,
          "time": 122.57130600000072,
          "velocity": 1,
          "duration": 0.42857100000000514
        },
        {
          "name": "D#4",
          "midi": 63,
          "time": 122.99987700000072,
          "velocity": 1,
          "duration": 0.42857100000000514
        },
        {
          "name": "D#5",
          "midi": 75,
          "time": 122.99987700000072,
          "velocity": 1,
          "duration": 0.42857100000000514
        },
        {
          "name": "D#6",
          "midi": 87,
          "time": 122.99987700000072,
          "velocity": 1,
          "duration": 0.42857100000000514
        },
        {
          "name": "D#7",
          "midi": 99,
          "time": 122.99987700000072,
          "velocity": 1,
          "duration": 0.42857100000000514
        },
        {
          "name": "C4",
          "midi": 60,
          "time": 123.42844800000073,
          "velocity": 1,
          "duration": 0.2857139999999987
        },
        {
          "name": "C5",
          "midi": 72,
          "time": 123.42844800000073,
          "velocity": 1,
          "duration": 0.2857139999999987
        },
        {
          "name": "C6",
          "midi": 84,
          "time": 123.42844800000073,
          "velocity": 1,
          "duration": 0.2857139999999987
        },
        {
          "name": "C7",
          "midi": 96,
          "time": 123.42844800000073,
          "velocity": 1,
          "duration": 0.2857139999999987
        },
        {
          "name": "C#4",
          "midi": 61,
          "time": 123.71416200000073,
          "velocity": 1,
          "duration": 0.2857139999999987
        },
        {
          "name": "C#5",
          "midi": 73,
          "time": 123.71416200000073,
          "velocity": 1,
          "duration": 0.2857139999999987
        },
        {
          "name": "C#6",
          "midi": 85,
          "time": 123.71416200000073,
          "velocity": 1,
          "duration": 0.2857139999999987
        },
        {
          "name": "C#7",
          "midi": 97,
          "time": 123.71416200000073,
          "velocity": 1,
          "duration": 0.2857139999999987
        },
        {
          "name": "D4",
          "midi": 62,
          "time": 123.99987600000073,
          "velocity": 1,
          "duration": 0.2857139999999987
        },
        {
          "name": "D5",
          "midi": 74,
          "time": 123.99987600000073,
          "velocity": 1,
          "duration": 0.2857139999999987
        },
        {
          "name": "D6",
          "midi": 86,
          "time": 123.99987600000073,
          "velocity": 1,
          "duration": 0.2857139999999987
        },
        {
          "name": "D7",
          "midi": 98,
          "time": 123.99987600000073,
          "velocity": 1,
          "duration": 0.2857139999999987
        },
        {
          "name": "E4",
          "midi": 64,
          "time": 124.28559000000072,
          "velocity": 1,
          "duration": 0.42857100000000514
        },
        {
          "name": "E5",
          "midi": 76,
          "time": 124.28559000000072,
          "velocity": 1,
          "duration": 0.42857100000000514
        },
        {
          "name": "E6",
          "midi": 88,
          "time": 124.28559000000072,
          "velocity": 1,
          "duration": 0.42857100000000514
        },
        {
          "name": "E7",
          "midi": 100,
          "time": 124.28559000000072,
          "velocity": 1,
          "duration": 0.42857100000000514
        },
        {
          "name": "C4",
          "midi": 60,
          "time": 124.71416100000073,
          "velocity": 1,
          "duration": 0.14285700000000645
        },
        {
          "name": "C5",
          "midi": 72,
          "time": 124.71416100000073,
          "velocity": 1,
          "duration": 0.14285700000000645
        },
        {
          "name": "C6",
          "midi": 84,
          "time": 124.71416100000073,
          "velocity": 1,
          "duration": 0.14285700000000645
        },
        {
          "name": "C7",
          "midi": 96,
          "time": 124.71416100000073,
          "velocity": 1,
          "duration": 0.14285700000000645
        },
        {
          "name": "C4",
          "midi": 60,
          "time": 124.85701800000074,
          "velocity": 1,
          "duration": 0.14285700000000645
        },
        {
          "name": "C5",
          "midi": 72,
          "time": 124.85701800000074,
          "velocity": 1,
          "duration": 0.14285700000000645
        },
        {
          "name": "C6",
          "midi": 84,
          "time": 124.85701800000074,
          "velocity": 1,
          "duration": 0.14285700000000645
        },
        {
          "name": "C7",
          "midi": 96,
          "time": 124.85701800000074,
          "velocity": 1,
          "duration": 0.14285700000000645
        },
        {
          "name": "C4",
          "midi": 60,
          "time": 124.99987500000074,
          "velocity": 1,
          "duration": 0.14285700000000645
        },
        {
          "name": "C5",
          "midi": 72,
          "time": 124.99987500000074,
          "velocity": 1,
          "duration": 0.14285700000000645
        },
        {
          "name": "C6",
          "midi": 84,
          "time": 124.99987500000074,
          "velocity": 1,
          "duration": 0.14285700000000645
        },
        {
          "name": "C7",
          "midi": 96,
          "time": 124.99987500000074,
          "velocity": 1,
          "duration": 0.14285700000000645
        },
        {
          "name": "C4",
          "midi": 60,
          "time": 125.14273200000075,
          "velocity": 1,
          "duration": 0.2857139999999987
        },
        {
          "name": "C5",
          "midi": 72,
          "time": 125.14273200000075,
          "velocity": 1,
          "duration": 0.2857139999999987
        },
        {
          "name": "C6",
          "midi": 84,
          "time": 125.14273200000075,
          "velocity": 1,
          "duration": 0.2857139999999987
        },
        {
          "name": "C7",
          "midi": 96,
          "time": 125.14273200000075,
          "velocity": 1,
          "duration": 0.2857139999999987
        },
        {
          "name": "C#4",
          "midi": 61,
          "time": 125.42844600000075,
          "velocity": 1,
          "duration": 0.2857139999999987
        },
        {
          "name": "C#5",
          "midi": 73,
          "time": 125.42844600000075,
          "velocity": 1,
          "duration": 0.2857139999999987
        },
        {
          "name": "C#6",
          "midi": 85,
          "time": 125.42844600000075,
          "velocity": 1,
          "duration": 0.2857139999999987
        },
        {
          "name": "C#7",
          "midi": 97,
          "time": 125.42844600000075,
          "velocity": 1,
          "duration": 0.2857139999999987
        },
        {
          "name": "D4",
          "midi": 62,
          "time": 125.71416000000075,
          "velocity": 1,
          "duration": 0.2857139999999987
        },
        {
          "name": "D5",
          "midi": 74,
          "time": 125.71416000000075,
          "velocity": 1,
          "duration": 0.2857139999999987
        },
        {
          "name": "D6",
          "midi": 86,
          "time": 125.71416000000075,
          "velocity": 1,
          "duration": 0.2857139999999987
        },
        {
          "name": "D7",
          "midi": 98,
          "time": 125.71416000000075,
          "velocity": 1,
          "duration": 0.2857139999999987
        },
        {
          "name": "E4",
          "midi": 64,
          "time": 125.99987400000074,
          "velocity": 1,
          "duration": 0.42857100000000514
        },
        {
          "name": "E5",
          "midi": 76,
          "time": 125.99987400000074,
          "velocity": 1,
          "duration": 0.42857100000000514
        },
        {
          "name": "E6",
          "midi": 88,
          "time": 125.99987400000074,
          "velocity": 1,
          "duration": 0.42857100000000514
        },
        {
          "name": "E7",
          "midi": 100,
          "time": 125.99987400000074,
          "velocity": 1,
          "duration": 0.42857100000000514
        },
        {
          "name": "C4",
          "midi": 60,
          "time": 126.42844500000075,
          "velocity": 1,
          "duration": 0.14285700000000645
        },
        {
          "name": "C5",
          "midi": 72,
          "time": 126.42844500000075,
          "velocity": 1,
          "duration": 0.14285700000000645
        },
        {
          "name": "C6",
          "midi": 84,
          "time": 126.42844500000075,
          "velocity": 1,
          "duration": 0.14285700000000645
        },
        {
          "name": "C7",
          "midi": 96,
          "time": 126.42844500000075,
          "velocity": 1,
          "duration": 0.14285700000000645
        },
        {
          "name": "C4",
          "midi": 60,
          "time": 126.57130200000076,
          "velocity": 1,
          "duration": 0.14285700000000645
        },
        {
          "name": "C5",
          "midi": 72,
          "time": 126.57130200000076,
          "velocity": 1,
          "duration": 0.14285700000000645
        },
        {
          "name": "C6",
          "midi": 84,
          "time": 126.57130200000076,
          "velocity": 1,
          "duration": 0.14285700000000645
        },
        {
          "name": "C7",
          "midi": 96,
          "time": 126.57130200000076,
          "velocity": 1,
          "duration": 0.14285700000000645
        },
        {
          "name": "C4",
          "midi": 60,
          "time": 126.71415900000076,
          "velocity": 1,
          "duration": 0.14285700000000645
        },
        {
          "name": "C5",
          "midi": 72,
          "time": 126.71415900000076,
          "velocity": 1,
          "duration": 0.14285700000000645
        },
        {
          "name": "C6",
          "midi": 84,
          "time": 126.71415900000076,
          "velocity": 1,
          "duration": 0.14285700000000645
        },
        {
          "name": "C7",
          "midi": 96,
          "time": 126.71415900000076,
          "velocity": 1,
          "duration": 0.14285700000000645
        },
        {
          "name": "C4",
          "midi": 60,
          "time": 126.85701600000077,
          "velocity": 1,
          "duration": 0.2857139999999987
        },
        {
          "name": "C5",
          "midi": 72,
          "time": 126.85701600000077,
          "velocity": 1,
          "duration": 0.2857139999999987
        },
        {
          "name": "C6",
          "midi": 84,
          "time": 126.85701600000077,
          "velocity": 1,
          "duration": 0.2857139999999987
        },
        {
          "name": "C7",
          "midi": 96,
          "time": 126.85701600000077,
          "velocity": 1,
          "duration": 0.2857139999999987
        },
        {
          "name": "C#4",
          "midi": 61,
          "time": 127.14273000000077,
          "velocity": 1,
          "duration": 0.2857139999999987
        },
        {
          "name": "C#5",
          "midi": 73,
          "time": 127.14273000000077,
          "velocity": 1,
          "duration": 0.2857139999999987
        },
        {
          "name": "C#6",
          "midi": 85,
          "time": 127.14273000000077,
          "velocity": 1,
          "duration": 0.2857139999999987
        },
        {
          "name": "C#7",
          "midi": 97,
          "time": 127.14273000000077,
          "velocity": 1,
          "duration": 0.2857139999999987
        },
        {
          "name": "D4",
          "midi": 62,
          "time": 127.42844400000077,
          "velocity": 1,
          "duration": 0.2857139999999987
        },
        {
          "name": "D5",
          "midi": 74,
          "time": 127.42844400000077,
          "velocity": 1,
          "duration": 0.2857139999999987
        },
        {
          "name": "D6",
          "midi": 86,
          "time": 127.42844400000077,
          "velocity": 1,
          "duration": 0.2857139999999987
        },
        {
          "name": "D7",
          "midi": 98,
          "time": 127.42844400000077,
          "velocity": 1,
          "duration": 0.2857139999999987
        },
        {
          "name": "E4",
          "midi": 64,
          "time": 127.71415800000077,
          "velocity": 1,
          "duration": 0.42857100000000514
        },
        {
          "name": "E5",
          "midi": 76,
          "time": 127.71415800000077,
          "velocity": 1,
          "duration": 0.42857100000000514
        },
        {
          "name": "E6",
          "midi": 88,
          "time": 127.71415800000077,
          "velocity": 1,
          "duration": 0.42857100000000514
        },
        {
          "name": "E7",
          "midi": 100,
          "time": 127.71415800000077,
          "velocity": 1,
          "duration": 0.42857100000000514
        },
        {
          "name": "C4",
          "midi": 60,
          "time": 128.14272900000077,
          "velocity": 1,
          "duration": 0.14285699999999224
        },
        {
          "name": "C5",
          "midi": 72,
          "time": 128.14272900000077,
          "velocity": 1,
          "duration": 0.14285699999999224
        },
        {
          "name": "C6",
          "midi": 84,
          "time": 128.14272900000077,
          "velocity": 1,
          "duration": 0.14285699999999224
        },
        {
          "name": "C7",
          "midi": 96,
          "time": 128.14272900000077,
          "velocity": 1,
          "duration": 0.14285699999999224
        },
        {
          "name": "C4",
          "midi": 60,
          "time": 128.28558600000076,
          "velocity": 1,
          "duration": 0.14285699999999224
        },
        {
          "name": "C5",
          "midi": 72,
          "time": 128.28558600000076,
          "velocity": 1,
          "duration": 0.14285699999999224
        },
        {
          "name": "C6",
          "midi": 84,
          "time": 128.28558600000076,
          "velocity": 1,
          "duration": 0.14285699999999224
        },
        {
          "name": "C7",
          "midi": 96,
          "time": 128.28558600000076,
          "velocity": 1,
          "duration": 0.14285699999999224
        },
        {
          "name": "C4",
          "midi": 60,
          "time": 128.42844300000075,
          "velocity": 1,
          "duration": 0.14285699999999224
        },
        {
          "name": "C5",
          "midi": 72,
          "time": 128.42844300000075,
          "velocity": 1,
          "duration": 0.14285699999999224
        },
        {
          "name": "C6",
          "midi": 84,
          "time": 128.42844300000075,
          "velocity": 1,
          "duration": 0.14285699999999224
        },
        {
          "name": "C7",
          "midi": 96,
          "time": 128.42844300000075,
          "velocity": 1,
          "duration": 0.14285699999999224
        },
        {
          "name": "C4",
          "midi": 60,
          "time": 128.57130000000075,
          "velocity": 1,
          "duration": 0.2857140000000129
        },
        {
          "name": "C5",
          "midi": 72,
          "time": 128.57130000000075,
          "velocity": 1,
          "duration": 0.2857140000000129
        },
        {
          "name": "C6",
          "midi": 84,
          "time": 128.57130000000075,
          "velocity": 1,
          "duration": 0.2857140000000129
        },
        {
          "name": "C7",
          "midi": 96,
          "time": 128.57130000000075,
          "velocity": 1,
          "duration": 0.2857140000000129
        },
        {
          "name": "C#4",
          "midi": 61,
          "time": 128.85701400000076,
          "velocity": 1,
          "duration": 0.2857140000000129
        },
        {
          "name": "C#5",
          "midi": 73,
          "time": 128.85701400000076,
          "velocity": 1,
          "duration": 0.2857140000000129
        },
        {
          "name": "C#6",
          "midi": 85,
          "time": 128.85701400000076,
          "velocity": 1,
          "duration": 0.2857140000000129
        },
        {
          "name": "C#7",
          "midi": 97,
          "time": 128.85701400000076,
          "velocity": 1,
          "duration": 0.2857140000000129
        },
        {
          "name": "D4",
          "midi": 62,
          "time": 129.14272800000077,
          "velocity": 1,
          "duration": 0.2857140000000129
        },
        {
          "name": "D5",
          "midi": 74,
          "time": 129.14272800000077,
          "velocity": 1,
          "duration": 0.2857140000000129
        },
        {
          "name": "D6",
          "midi": 86,
          "time": 129.14272800000077,
          "velocity": 1,
          "duration": 0.2857140000000129
        },
        {
          "name": "D7",
          "midi": 98,
          "time": 129.14272800000077,
          "velocity": 1,
          "duration": 0.2857140000000129
        },
        {
          "name": "C4",
          "midi": 60,
          "time": 129.42844200000079,
          "velocity": 1,
          "duration": 0.42857100000000514
        },
        {
          "name": "C5",
          "midi": 72,
          "time": 129.42844200000079,
          "velocity": 1,
          "duration": 0.42857100000000514
        },
        {
          "name": "C6",
          "midi": 84,
          "time": 129.42844200000079,
          "velocity": 1,
          "duration": 0.42857100000000514
        },
        {
          "name": "C7",
          "midi": 96,
          "time": 129.42844200000079,
          "velocity": 1,
          "duration": 0.42857100000000514
        },
        {
          "name": "C4",
          "midi": 60,
          "time": 129.8570130000008,
          "velocity": 1,
          "duration": 0.14285699999999224
        },
        {
          "name": "C5",
          "midi": 72,
          "time": 129.8570130000008,
          "velocity": 1,
          "duration": 0.14285699999999224
        },
        {
          "name": "C6",
          "midi": 84,
          "time": 129.8570130000008,
          "velocity": 1,
          "duration": 0.14285699999999224
        },
        {
          "name": "C7",
          "midi": 96,
          "time": 129.8570130000008,
          "velocity": 1,
          "duration": 0.14285699999999224
        },
        {
          "name": "C4",
          "midi": 60,
          "time": 129.99987000000078,
          "velocity": 1,
          "duration": 0.14285699999999224
        },
        {
          "name": "C5",
          "midi": 72,
          "time": 129.99987000000078,
          "velocity": 1,
          "duration": 0.14285699999999224
        },
        {
          "name": "C6",
          "midi": 84,
          "time": 129.99987000000078,
          "velocity": 1,
          "duration": 0.14285699999999224
        },
        {
          "name": "C7",
          "midi": 96,
          "time": 129.99987000000078,
          "velocity": 1,
          "duration": 0.14285699999999224
        },
        {
          "name": "C4",
          "midi": 60,
          "time": 130.14272700000078,
          "velocity": 1,
          "duration": 0.14285699999999224
        },
        {
          "name": "C5",
          "midi": 72,
          "time": 130.14272700000078,
          "velocity": 1,
          "duration": 0.14285699999999224
        },
        {
          "name": "C6",
          "midi": 84,
          "time": 130.14272700000078,
          "velocity": 1,
          "duration": 0.14285699999999224
        },
        {
          "name": "C7",
          "midi": 96,
          "time": 130.14272700000078,
          "velocity": 1,
          "duration": 0.14285699999999224
        },
        {
          "name": "C4",
          "midi": 60,
          "time": 130.28558400000077,
          "velocity": 1,
          "duration": 0.2857140000000129
        },
        {
          "name": "C5",
          "midi": 72,
          "time": 130.28558400000077,
          "velocity": 1,
          "duration": 0.2857140000000129
        },
        {
          "name": "C6",
          "midi": 84,
          "time": 130.28558400000077,
          "velocity": 1,
          "duration": 0.2857140000000129
        },
        {
          "name": "C7",
          "midi": 96,
          "time": 130.28558400000077,
          "velocity": 1,
          "duration": 0.2857140000000129
        },
        {
          "name": "C#4",
          "midi": 61,
          "time": 130.57129800000078,
          "velocity": 1,
          "duration": 0.2857140000000129
        },
        {
          "name": "C#5",
          "midi": 73,
          "time": 130.57129800000078,
          "velocity": 1,
          "duration": 0.2857140000000129
        },
        {
          "name": "C#6",
          "midi": 85,
          "time": 130.57129800000078,
          "velocity": 1,
          "duration": 0.2857140000000129
        },
        {
          "name": "C#7",
          "midi": 97,
          "time": 130.57129800000078,
          "velocity": 1,
          "duration": 0.2857140000000129
        },
        {
          "name": "D4",
          "midi": 62,
          "time": 130.8570120000008,
          "velocity": 1,
          "duration": 0.2857140000000129
        },
        {
          "name": "D5",
          "midi": 74,
          "time": 130.8570120000008,
          "velocity": 1,
          "duration": 0.2857140000000129
        },
        {
          "name": "D6",
          "midi": 86,
          "time": 130.8570120000008,
          "velocity": 1,
          "duration": 0.2857140000000129
        },
        {
          "name": "D7",
          "midi": 98,
          "time": 130.8570120000008,
          "velocity": 1,
          "duration": 0.2857140000000129
        },
        {
          "name": "E4",
          "midi": 64,
          "time": 131.1427260000008,
          "velocity": 1,
          "duration": 0.42857100000000514
        },
        {
          "name": "E5",
          "midi": 76,
          "time": 131.1427260000008,
          "velocity": 1,
          "duration": 0.42857100000000514
        },
        {
          "name": "E6",
          "midi": 88,
          "time": 131.1427260000008,
          "velocity": 1,
          "duration": 0.42857100000000514
        },
        {
          "name": "E7",
          "midi": 100,
          "time": 131.1427260000008,
          "velocity": 1,
          "duration": 0.42857100000000514
        },
        {
          "name": "C4",
          "midi": 60,
          "time": 131.5712970000008,
          "velocity": 1,
          "duration": 0.14285699999999224
        },
        {
          "name": "C5",
          "midi": 72,
          "time": 131.5712970000008,
          "velocity": 1,
          "duration": 0.14285699999999224
        },
        {
          "name": "C6",
          "midi": 84,
          "time": 131.5712970000008,
          "velocity": 1,
          "duration": 0.14285699999999224
        },
        {
          "name": "C7",
          "midi": 96,
          "time": 131.5712970000008,
          "velocity": 1,
          "duration": 0.14285699999999224
        },
        {
          "name": "C4",
          "midi": 60,
          "time": 131.7141540000008,
          "velocity": 1,
          "duration": 0.14285699999999224
        },
        {
          "name": "C5",
          "midi": 72,
          "time": 131.7141540000008,
          "velocity": 1,
          "duration": 0.14285699999999224
        },
        {
          "name": "C6",
          "midi": 84,
          "time": 131.7141540000008,
          "velocity": 1,
          "duration": 0.14285699999999224
        },
        {
          "name": "C7",
          "midi": 96,
          "time": 131.7141540000008,
          "velocity": 1,
          "duration": 0.14285699999999224
        },
        {
          "name": "C4",
          "midi": 60,
          "time": 131.8570110000008,
          "velocity": 1,
          "duration": 0.14285699999999224
        },
        {
          "name": "C5",
          "midi": 72,
          "time": 131.8570110000008,
          "velocity": 1,
          "duration": 0.14285699999999224
        },
        {
          "name": "C6",
          "midi": 84,
          "time": 131.8570110000008,
          "velocity": 1,
          "duration": 0.14285699999999224
        },
        {
          "name": "C7",
          "midi": 96,
          "time": 131.8570110000008,
          "velocity": 1,
          "duration": 0.14285699999999224
        },
        {
          "name": "C4",
          "midi": 60,
          "time": 131.9998680000008,
          "velocity": 1,
          "duration": 0.14285699999999224
        },
        {
          "name": "C5",
          "midi": 72,
          "time": 131.9998680000008,
          "velocity": 1,
          "duration": 0.14285699999999224
        },
        {
          "name": "C6",
          "midi": 84,
          "time": 131.9998680000008,
          "velocity": 1,
          "duration": 0.14285699999999224
        },
        {
          "name": "C7",
          "midi": 96,
          "time": 131.9998680000008,
          "velocity": 1,
          "duration": 0.14285699999999224
        },
        {
          "name": "C#4",
          "midi": 61,
          "time": 132.28558200000077,
          "velocity": 1,
          "duration": 0.14285699999999224
        },
        {
          "name": "C#5",
          "midi": 73,
          "time": 132.28558200000077,
          "velocity": 1,
          "duration": 0.14285699999999224
        },
        {
          "name": "C#6",
          "midi": 85,
          "time": 132.28558200000077,
          "velocity": 1,
          "duration": 0.14285699999999224
        },
        {
          "name": "C#7",
          "midi": 97,
          "time": 132.28558200000077,
          "velocity": 1,
          "duration": 0.14285699999999224
        },
        {
          "name": "D4",
          "midi": 62,
          "time": 132.57129600000076,
          "velocity": 1,
          "duration": 0.14285699999999224
        },
        {
          "name": "D5",
          "midi": 74,
          "time": 132.57129600000076,
          "velocity": 1,
          "duration": 0.14285699999999224
        },
        {
          "name": "D6",
          "midi": 86,
          "time": 132.57129600000076,
          "velocity": 1,
          "duration": 0.14285699999999224
        },
        {
          "name": "D7",
          "midi": 98,
          "time": 132.57129600000076,
          "velocity": 1,
          "duration": 0.14285699999999224
        },
        {
          "name": "E4",
          "midi": 64,
          "time": 132.85701000000074,
          "velocity": 1,
          "duration": 0.42857100000000514
        },
        {
          "name": "E5",
          "midi": 76,
          "time": 132.85701000000074,
          "velocity": 1,
          "duration": 0.42857100000000514
        },
        {
          "name": "E6",
          "midi": 88,
          "time": 132.85701000000074,
          "velocity": 1,
          "duration": 0.42857100000000514
        },
        {
          "name": "E7",
          "midi": 100,
          "time": 132.85701000000074,
          "velocity": 1,
          "duration": 0.42857100000000514
        },
        {
          "name": "C4",
          "midi": 60,
          "time": 133.28558100000075,
          "velocity": 0.7480314960629921,
          "duration": 0.14285699999999224
        },
        {
          "name": "C5",
          "midi": 72,
          "time": 133.28558100000075,
          "velocity": 0.7480314960629921,
          "duration": 0.14285699999999224
        },
        {
          "name": "C6",
          "midi": 84,
          "time": 133.28558100000075,
          "velocity": 0.7480314960629921,
          "duration": 0.14285699999999224
        },
        {
          "name": "C7",
          "midi": 96,
          "time": 133.28558100000075,
          "velocity": 0.7480314960629921,
          "duration": 0.14285699999999224
        },
        {
          "name": "C4",
          "midi": 60,
          "time": 133.42843800000074,
          "velocity": 0.7480314960629921,
          "duration": 0.14285699999999224
        },
        {
          "name": "C5",
          "midi": 72,
          "time": 133.42843800000074,
          "velocity": 0.7480314960629921,
          "duration": 0.14285699999999224
        },
        {
          "name": "C6",
          "midi": 84,
          "time": 133.42843800000074,
          "velocity": 0.7480314960629921,
          "duration": 0.14285699999999224
        },
        {
          "name": "C7",
          "midi": 96,
          "time": 133.42843800000074,
          "velocity": 0.7480314960629921,
          "duration": 0.14285699999999224
        },
        {
          "name": "C4",
          "midi": 60,
          "time": 133.57129500000073,
          "velocity": 0.7480314960629921,
          "duration": 0.14285699999999224
        },
        {
          "name": "C5",
          "midi": 72,
          "time": 133.57129500000073,
          "velocity": 0.7480314960629921,
          "duration": 0.14285699999999224
        },
        {
          "name": "C6",
          "midi": 84,
          "time": 133.57129500000073,
          "velocity": 0.7480314960629921,
          "duration": 0.14285699999999224
        },
        {
          "name": "C7",
          "midi": 96,
          "time": 133.57129500000073,
          "velocity": 0.7480314960629921,
          "duration": 0.14285699999999224
        },
        {
          "name": "C4",
          "midi": 60,
          "time": 133.71415200000072,
          "velocity": 1,
          "duration": 0.2857140000000129
        },
        {
          "name": "C5",
          "midi": 72,
          "time": 133.71415200000072,
          "velocity": 1,
          "duration": 0.2857140000000129
        },
        {
          "name": "C6",
          "midi": 84,
          "time": 133.71415200000072,
          "velocity": 1,
          "duration": 0.2857140000000129
        },
        {
          "name": "C7",
          "midi": 96,
          "time": 133.71415200000072,
          "velocity": 1,
          "duration": 0.2857140000000129
        },
        {
          "name": "C#4",
          "midi": 61,
          "time": 133.99986600000074,
          "velocity": 1,
          "duration": 0.2857140000000129
        },
        {
          "name": "C#5",
          "midi": 73,
          "time": 133.99986600000074,
          "velocity": 1,
          "duration": 0.2857140000000129
        },
        {
          "name": "C#6",
          "midi": 85,
          "time": 133.99986600000074,
          "velocity": 1,
          "duration": 0.2857140000000129
        },
        {
          "name": "C#7",
          "midi": 97,
          "time": 133.99986600000074,
          "velocity": 1,
          "duration": 0.2857140000000129
        },
        {
          "name": "D4",
          "midi": 62,
          "time": 134.28558000000075,
          "velocity": 1,
          "duration": 0.2857140000000129
        },
        {
          "name": "D5",
          "midi": 74,
          "time": 134.28558000000075,
          "velocity": 1,
          "duration": 0.2857140000000129
        },
        {
          "name": "D6",
          "midi": 86,
          "time": 134.28558000000075,
          "velocity": 1,
          "duration": 0.2857140000000129
        },
        {
          "name": "D7",
          "midi": 98,
          "time": 134.28558000000075,
          "velocity": 1,
          "duration": 0.2857140000000129
        },
        {
          "name": "E4",
          "midi": 64,
          "time": 134.57129400000076,
          "velocity": 1,
          "duration": 0.42857100000000514
        },
        {
          "name": "E5",
          "midi": 76,
          "time": 134.57129400000076,
          "velocity": 1,
          "duration": 0.42857100000000514
        },
        {
          "name": "E6",
          "midi": 88,
          "time": 134.57129400000076,
          "velocity": 1,
          "duration": 0.42857100000000514
        },
        {
          "name": "E7",
          "midi": 100,
          "time": 134.57129400000076,
          "velocity": 1,
          "duration": 0.42857100000000514
        },
        {
          "name": "C4",
          "midi": 60,
          "time": 134.99986500000077,
          "velocity": 1,
          "duration": 0.14285699999999224
        },
        {
          "name": "C5",
          "midi": 72,
          "time": 134.99986500000077,
          "velocity": 1,
          "duration": 0.14285699999999224
        },
        {
          "name": "C6",
          "midi": 84,
          "time": 134.99986500000077,
          "velocity": 1,
          "duration": 0.14285699999999224
        },
        {
          "name": "C7",
          "midi": 96,
          "time": 134.99986500000077,
          "velocity": 1,
          "duration": 0.14285699999999224
        },
        {
          "name": "C4",
          "midi": 60,
          "time": 135.14272200000076,
          "velocity": 1,
          "duration": 0.14285699999999224
        },
        {
          "name": "C5",
          "midi": 72,
          "time": 135.14272200000076,
          "velocity": 1,
          "duration": 0.14285699999999224
        },
        {
          "name": "C6",
          "midi": 84,
          "time": 135.14272200000076,
          "velocity": 1,
          "duration": 0.14285699999999224
        },
        {
          "name": "C7",
          "midi": 96,
          "time": 135.14272200000076,
          "velocity": 1,
          "duration": 0.14285699999999224
        },
        {
          "name": "C4",
          "midi": 60,
          "time": 135.28557900000075,
          "velocity": 1,
          "duration": 0.14285699999999224
        },
        {
          "name": "C5",
          "midi": 72,
          "time": 135.28557900000075,
          "velocity": 1,
          "duration": 0.14285699999999224
        },
        {
          "name": "C6",
          "midi": 84,
          "time": 135.28557900000075,
          "velocity": 1,
          "duration": 0.14285699999999224
        },
        {
          "name": "C7",
          "midi": 96,
          "time": 135.28557900000075,
          "velocity": 1,
          "duration": 0.14285699999999224
        },
        {
          "name": "C4",
          "midi": 60,
          "time": 135.42843600000074,
          "velocity": 1,
          "duration": 0.2857140000000129
        },
        {
          "name": "C5",
          "midi": 72,
          "time": 135.42843600000074,
          "velocity": 1,
          "duration": 0.2857140000000129
        },
        {
          "name": "C6",
          "midi": 84,
          "time": 135.42843600000074,
          "velocity": 1,
          "duration": 0.2857140000000129
        },
        {
          "name": "C7",
          "midi": 96,
          "time": 135.42843600000074,
          "velocity": 1,
          "duration": 0.2857140000000129
        },
        {
          "name": "D4",
          "midi": 62,
          "time": 135.71415000000076,
          "velocity": 1,
          "duration": 0.2857140000000129
        },
        {
          "name": "D5",
          "midi": 74,
          "time": 135.71415000000076,
          "velocity": 1,
          "duration": 0.2857140000000129
        },
        {
          "name": "D6",
          "midi": 86,
          "time": 135.71415000000076,
          "velocity": 1,
          "duration": 0.2857140000000129
        },
        {
          "name": "D7",
          "midi": 98,
          "time": 135.71415000000076,
          "velocity": 1,
          "duration": 0.2857140000000129
        },
        {
          "name": "C#4",
          "midi": 61,
          "time": 135.99986400000077,
          "velocity": 1,
          "duration": 0.2857140000000129
        },
        {
          "name": "C#5",
          "midi": 73,
          "time": 135.99986400000077,
          "velocity": 1,
          "duration": 0.2857140000000129
        },
        {
          "name": "C#6",
          "midi": 85,
          "time": 135.99986400000077,
          "velocity": 1,
          "duration": 0.2857140000000129
        },
        {
          "name": "C#7",
          "midi": 97,
          "time": 135.99986400000077,
          "velocity": 1,
          "duration": 0.2857140000000129
        },
        {
          "name": "E4",
          "midi": 64,
          "time": 136.28557800000078,
          "velocity": 1,
          "duration": 0.42857100000000514
        },
        {
          "name": "E5",
          "midi": 76,
          "time": 136.28557800000078,
          "velocity": 1,
          "duration": 0.42857100000000514
        },
        {
          "name": "E6",
          "midi": 88,
          "time": 136.28557800000078,
          "velocity": 1,
          "duration": 0.42857100000000514
        },
        {
          "name": "E7",
          "midi": 100,
          "time": 136.28557800000078,
          "velocity": 1,
          "duration": 0.42857100000000514
        },
        {
          "name": "D#4",
          "midi": 63,
          "time": 136.7141490000008,
          "velocity": 1,
          "duration": 0.42857100000000514
        },
        {
          "name": "D#5",
          "midi": 75,
          "time": 136.7141490000008,
          "velocity": 1,
          "duration": 0.42857100000000514
        },
        {
          "name": "D#6",
          "midi": 87,
          "time": 136.7141490000008,
          "velocity": 1,
          "duration": 0.42857100000000514
        },
        {
          "name": "D#7",
          "midi": 99,
          "time": 136.7141490000008,
          "velocity": 1,
          "duration": 0.42857100000000514
        },
        {
          "name": "D4",
          "midi": 62,
          "time": 137.1427200000008,
          "velocity": 0.7480314960629921,
          "duration": 0.2857140000000129
        },
        {
          "name": "D5",
          "midi": 74,
          "time": 137.1427200000008,
          "velocity": 0.7480314960629921,
          "duration": 0.2857140000000129
        },
        {
          "name": "D6",
          "midi": 86,
          "time": 137.1427200000008,
          "velocity": 0.7480314960629921,
          "duration": 0.2857140000000129
        },
        {
          "name": "D7",
          "midi": 98,
          "time": 137.1427200000008,
          "velocity": 0.7480314960629921,
          "duration": 0.2857140000000129
        },
        {
          "name": "D#4",
          "midi": 63,
          "time": 137.4284340000008,
          "velocity": 0.7480314960629921,
          "duration": 0.2857140000000129
        },
        {
          "name": "D#5",
          "midi": 75,
          "time": 137.4284340000008,
          "velocity": 0.7480314960629921,
          "duration": 0.2857140000000129
        },
        {
          "name": "D#6",
          "midi": 87,
          "time": 137.4284340000008,
          "velocity": 0.7480314960629921,
          "duration": 0.2857140000000129
        },
        {
          "name": "D#7",
          "midi": 99,
          "time": 137.4284340000008,
          "velocity": 0.7480314960629921,
          "duration": 0.2857140000000129
        },
        {
          "name": "E4",
          "midi": 64,
          "time": 137.71414800000082,
          "velocity": 0.7480314960629921,
          "duration": 0.2857140000000129
        },
        {
          "name": "E5",
          "midi": 76,
          "time": 137.71414800000082,
          "velocity": 0.7480314960629921,
          "duration": 0.2857140000000129
        },
        {
          "name": "E6",
          "midi": 88,
          "time": 137.71414800000082,
          "velocity": 0.7480314960629921,
          "duration": 0.2857140000000129
        },
        {
          "name": "E7",
          "midi": 100,
          "time": 137.71414800000082,
          "velocity": 0.7480314960629921,
          "duration": 0.2857140000000129
        },
        {
          "name": "C#4",
          "midi": 61,
          "time": 137.99986200000083,
          "velocity": 0.7480314960629921,
          "duration": 0.2857140000000129
        },
        {
          "name": "C#5",
          "midi": 73,
          "time": 137.99986200000083,
          "velocity": 0.7480314960629921,
          "duration": 0.2857140000000129
        },
        {
          "name": "C#6",
          "midi": 85,
          "time": 137.99986200000083,
          "velocity": 0.7480314960629921,
          "duration": 0.2857140000000129
        },
        {
          "name": "C#7",
          "midi": 97,
          "time": 137.99986200000083,
          "velocity": 0.7480314960629921,
          "duration": 0.2857140000000129
        },
        {
          "name": "D4",
          "midi": 62,
          "time": 138.28557600000084,
          "velocity": 0.7480314960629921,
          "duration": 0.2857140000000129
        },
        {
          "name": "D5",
          "midi": 74,
          "time": 138.28557600000084,
          "velocity": 0.7480314960629921,
          "duration": 0.2857140000000129
        },
        {
          "name": "D6",
          "midi": 86,
          "time": 138.28557600000084,
          "velocity": 0.7480314960629921,
          "duration": 0.2857140000000129
        },
        {
          "name": "D7",
          "midi": 98,
          "time": 138.28557600000084,
          "velocity": 0.7480314960629921,
          "duration": 0.2857140000000129
        },
        {
          "name": "C#4",
          "midi": 61,
          "time": 138.57129000000086,
          "velocity": 0.7480314960629921,
          "duration": 0.2857140000000129
        },
        {
          "name": "C#5",
          "midi": 73,
          "time": 138.57129000000086,
          "velocity": 0.7480314960629921,
          "duration": 0.2857140000000129
        },
        {
          "name": "C#6",
          "midi": 85,
          "time": 138.57129000000086,
          "velocity": 0.7480314960629921,
          "duration": 0.2857140000000129
        },
        {
          "name": "C#7",
          "midi": 97,
          "time": 138.57129000000086,
          "velocity": 0.7480314960629921,
          "duration": 0.2857140000000129
        },
        {
          "name": "D4",
          "midi": 62,
          "time": 138.85700400000087,
          "velocity": 0.7480314960629921,
          "duration": 0.2857140000000129
        },
        {
          "name": "D5",
          "midi": 74,
          "time": 138.85700400000087,
          "velocity": 0.7480314960629921,
          "duration": 0.2857140000000129
        },
        {
          "name": "D6",
          "midi": 86,
          "time": 138.85700400000087,
          "velocity": 0.7480314960629921,
          "duration": 0.2857140000000129
        },
        {
          "name": "D7",
          "midi": 98,
          "time": 138.85700400000087,
          "velocity": 0.7480314960629921,
          "duration": 0.2857140000000129
        },
        {
          "name": "D#4",
          "midi": 63,
          "time": 139.14271800000088,
          "velocity": 0.7480314960629921,
          "duration": 0.2857140000000129
        },
        {
          "name": "D#5",
          "midi": 75,
          "time": 139.14271800000088,
          "velocity": 0.7480314960629921,
          "duration": 0.2857140000000129
        },
        {
          "name": "D#6",
          "midi": 87,
          "time": 139.14271800000088,
          "velocity": 0.7480314960629921,
          "duration": 0.2857140000000129
        },
        {
          "name": "D#7",
          "midi": 99,
          "time": 139.14271800000088,
          "velocity": 0.7480314960629921,
          "duration": 0.2857140000000129
        },
        {
          "name": "E4",
          "midi": 64,
          "time": 139.4284320000009,
          "velocity": 0.7480314960629921,
          "duration": 0.2857140000000129
        },
        {
          "name": "E5",
          "midi": 76,
          "time": 139.4284320000009,
          "velocity": 0.7480314960629921,
          "duration": 0.2857140000000129
        },
        {
          "name": "E6",
          "midi": 88,
          "time": 139.4284320000009,
          "velocity": 0.7480314960629921,
          "duration": 0.2857140000000129
        },
        {
          "name": "E7",
          "midi": 100,
          "time": 139.4284320000009,
          "velocity": 0.7480314960629921,
          "duration": 0.2857140000000129
        },
        {
          "name": "C#4",
          "midi": 61,
          "time": 139.7141460000009,
          "velocity": 0.7480314960629921,
          "duration": 0.2857140000000129
        },
        {
          "name": "C#5",
          "midi": 73,
          "time": 139.7141460000009,
          "velocity": 0.7480314960629921,
          "duration": 0.2857140000000129
        },
        {
          "name": "C#6",
          "midi": 85,
          "time": 139.7141460000009,
          "velocity": 0.7480314960629921,
          "duration": 0.2857140000000129
        },
        {
          "name": "C#7",
          "midi": 97,
          "time": 139.7141460000009,
          "velocity": 0.7480314960629921,
          "duration": 0.2857140000000129
        },
        {
          "name": "D4",
          "midi": 62,
          "time": 139.99986000000092,
          "velocity": 0.7480314960629921,
          "duration": 0.2857140000000129
        },
        {
          "name": "D5",
          "midi": 74,
          "time": 139.99986000000092,
          "velocity": 0.7480314960629921,
          "duration": 0.2857140000000129
        },
        {
          "name": "D6",
          "midi": 86,
          "time": 139.99986000000092,
          "velocity": 0.7480314960629921,
          "duration": 0.2857140000000129
        },
        {
          "name": "D7",
          "midi": 98,
          "time": 139.99986000000092,
          "velocity": 0.7480314960629921,
          "duration": 0.2857140000000129
        },
        {
          "name": "C#4",
          "midi": 61,
          "time": 140.28557400000093,
          "velocity": 0.7480314960629921,
          "duration": 0.2857140000000129
        },
        {
          "name": "C#5",
          "midi": 73,
          "time": 140.28557400000093,
          "velocity": 0.7480314960629921,
          "duration": 0.2857140000000129
        },
        {
          "name": "C#6",
          "midi": 85,
          "time": 140.28557400000093,
          "velocity": 0.7480314960629921,
          "duration": 0.2857140000000129
        },
        {
          "name": "C#7",
          "midi": 97,
          "time": 140.28557400000093,
          "velocity": 0.7480314960629921,
          "duration": 0.2857140000000129
        },
        {
          "name": "D4",
          "midi": 62,
          "time": 140.57128800000095,
          "velocity": 0.7480314960629921,
          "duration": 0.2857140000000129
        },
        {
          "name": "D5",
          "midi": 74,
          "time": 140.57128800000095,
          "velocity": 0.7480314960629921,
          "duration": 0.2857140000000129
        },
        {
          "name": "D6",
          "midi": 86,
          "time": 140.57128800000095,
          "velocity": 0.7480314960629921,
          "duration": 0.2857140000000129
        },
        {
          "name": "D7",
          "midi": 98,
          "time": 140.57128800000095,
          "velocity": 0.7480314960629921,
          "duration": 0.2857140000000129
        },
        {
          "name": "D#4",
          "midi": 63,
          "time": 140.85700200000096,
          "velocity": 0.7480314960629921,
          "duration": 0.2857140000000129
        },
        {
          "name": "D#5",
          "midi": 75,
          "time": 140.85700200000096,
          "velocity": 0.7480314960629921,
          "duration": 0.2857140000000129
        },
        {
          "name": "D#6",
          "midi": 87,
          "time": 140.85700200000096,
          "velocity": 0.7480314960629921,
          "duration": 0.2857140000000129
        },
        {
          "name": "D#7",
          "midi": 99,
          "time": 140.85700200000096,
          "velocity": 0.7480314960629921,
          "duration": 0.2857140000000129
        },
        {
          "name": "E4",
          "midi": 64,
          "time": 141.14271600000097,
          "velocity": 0.7480314960629921,
          "duration": 0.2857140000000129
        },
        {
          "name": "E5",
          "midi": 76,
          "time": 141.14271600000097,
          "velocity": 0.7480314960629921,
          "duration": 0.2857140000000129
        },
        {
          "name": "E6",
          "midi": 88,
          "time": 141.14271600000097,
          "velocity": 0.7480314960629921,
          "duration": 0.2857140000000129
        },
        {
          "name": "E7",
          "midi": 100,
          "time": 141.14271600000097,
          "velocity": 0.7480314960629921,
          "duration": 0.2857140000000129
        },
        {
          "name": "C#4",
          "midi": 61,
          "time": 141.428430000001,
          "velocity": 0.7480314960629921,
          "duration": 0.2857140000000129
        },
        {
          "name": "C#5",
          "midi": 73,
          "time": 141.428430000001,
          "velocity": 0.7480314960629921,
          "duration": 0.2857140000000129
        },
        {
          "name": "C#6",
          "midi": 85,
          "time": 141.428430000001,
          "velocity": 0.7480314960629921,
          "duration": 0.2857140000000129
        },
        {
          "name": "C#7",
          "midi": 97,
          "time": 141.428430000001,
          "velocity": 0.7480314960629921,
          "duration": 0.2857140000000129
        },
        {
          "name": "D4",
          "midi": 62,
          "time": 141.714144000001,
          "velocity": 0.7480314960629921,
          "duration": 0.2857140000000129
        },
        {
          "name": "D5",
          "midi": 74,
          "time": 141.714144000001,
          "velocity": 0.7480314960629921,
          "duration": 0.2857140000000129
        },
        {
          "name": "D6",
          "midi": 86,
          "time": 141.714144000001,
          "velocity": 0.7480314960629921,
          "duration": 0.2857140000000129
        },
        {
          "name": "D7",
          "midi": 98,
          "time": 141.714144000001,
          "velocity": 0.7480314960629921,
          "duration": 0.2857140000000129
        },
        {
          "name": "C#4",
          "midi": 61,
          "time": 141.999858000001,
          "velocity": 0.7480314960629921,
          "duration": 0.2857140000000129
        },
        {
          "name": "C#5",
          "midi": 73,
          "time": 141.999858000001,
          "velocity": 0.7480314960629921,
          "duration": 0.2857140000000129
        },
        {
          "name": "C#6",
          "midi": 85,
          "time": 141.999858000001,
          "velocity": 0.7480314960629921,
          "duration": 0.2857140000000129
        },
        {
          "name": "C#7",
          "midi": 97,
          "time": 141.999858000001,
          "velocity": 0.7480314960629921,
          "duration": 0.2857140000000129
        },
        {
          "name": "D4",
          "midi": 62,
          "time": 142.28557200000103,
          "velocity": 0.7480314960629921,
          "duration": 0.2857140000000129
        },
        {
          "name": "D5",
          "midi": 74,
          "time": 142.28557200000103,
          "velocity": 0.7480314960629921,
          "duration": 0.2857140000000129
        },
        {
          "name": "D6",
          "midi": 86,
          "time": 142.28557200000103,
          "velocity": 0.7480314960629921,
          "duration": 0.2857140000000129
        },
        {
          "name": "D7",
          "midi": 98,
          "time": 142.28557200000103,
          "velocity": 0.7480314960629921,
          "duration": 0.2857140000000129
        },
        {
          "name": "D#4",
          "midi": 63,
          "time": 142.57128600000104,
          "velocity": 0.7480314960629921,
          "duration": 0.2857140000000129
        },
        {
          "name": "D#5",
          "midi": 75,
          "time": 142.57128600000104,
          "velocity": 0.7480314960629921,
          "duration": 0.2857140000000129
        },
        {
          "name": "D#6",
          "midi": 87,
          "time": 142.57128600000104,
          "velocity": 0.7480314960629921,
          "duration": 0.2857140000000129
        },
        {
          "name": "D#7",
          "midi": 99,
          "time": 142.57128600000104,
          "velocity": 0.7480314960629921,
          "duration": 0.2857140000000129
        },
        {
          "name": "E4",
          "midi": 64,
          "time": 142.85700000000105,
          "velocity": 0.7480314960629921,
          "duration": 0.2857140000000129
        },
        {
          "name": "E5",
          "midi": 76,
          "time": 142.85700000000105,
          "velocity": 0.7480314960629921,
          "duration": 0.2857140000000129
        },
        {
          "name": "E6",
          "midi": 88,
          "time": 142.85700000000105,
          "velocity": 0.7480314960629921,
          "duration": 0.2857140000000129
        },
        {
          "name": "E7",
          "midi": 100,
          "time": 142.85700000000105,
          "velocity": 0.7480314960629921,
          "duration": 0.2857140000000129
        },
        {
          "name": "C#4",
          "midi": 61,
          "time": 143.14271400000106,
          "velocity": 0.7480314960629921,
          "duration": 0.2857140000000129
        },
        {
          "name": "C#5",
          "midi": 73,
          "time": 143.14271400000106,
          "velocity": 0.7480314960629921,
          "duration": 0.2857140000000129
        },
        {
          "name": "C#6",
          "midi": 85,
          "time": 143.14271400000106,
          "velocity": 0.7480314960629921,
          "duration": 0.2857140000000129
        },
        {
          "name": "C#7",
          "midi": 97,
          "time": 143.14271400000106,
          "velocity": 0.7480314960629921,
          "duration": 0.2857140000000129
        },
        {
          "name": "D4",
          "midi": 62,
          "time": 143.42842800000108,
          "velocity": 0.7480314960629921,
          "duration": 0.2857140000000129
        },
        {
          "name": "D5",
          "midi": 74,
          "time": 143.42842800000108,
          "velocity": 0.7480314960629921,
          "duration": 0.2857140000000129
        },
        {
          "name": "D6",
          "midi": 86,
          "time": 143.42842800000108,
          "velocity": 0.7480314960629921,
          "duration": 0.2857140000000129
        },
        {
          "name": "D7",
          "midi": 98,
          "time": 143.42842800000108,
          "velocity": 0.7480314960629921,
          "duration": 0.2857140000000129
        },
        {
          "name": "C#4",
          "midi": 61,
          "time": 143.7141420000011,
          "velocity": 0.7480314960629921,
          "duration": 0.2857140000000129
        },
        {
          "name": "C#5",
          "midi": 73,
          "time": 143.7141420000011,
          "velocity": 0.7480314960629921,
          "duration": 0.2857140000000129
        },
        {
          "name": "C#6",
          "midi": 85,
          "time": 143.7141420000011,
          "velocity": 0.7480314960629921,
          "duration": 0.2857140000000129
        },
        {
          "name": "C#7",
          "midi": 97,
          "time": 143.7141420000011,
          "velocity": 0.7480314960629921,
          "duration": 0.2857140000000129
        },
        {
          "name": "D4",
          "midi": 62,
          "time": 143.9998560000011,
          "velocity": 0.7480314960629921,
          "duration": 0.2857140000000129
        },
        {
          "name": "D5",
          "midi": 74,
          "time": 143.9998560000011,
          "velocity": 0.7480314960629921,
          "duration": 0.2857140000000129
        },
        {
          "name": "D6",
          "midi": 86,
          "time": 143.9998560000011,
          "velocity": 0.7480314960629921,
          "duration": 0.2857140000000129
        },
        {
          "name": "D7",
          "midi": 98,
          "time": 143.9998560000011,
          "velocity": 0.7480314960629921,
          "duration": 0.2857140000000129
        },
        {
          "name": "D#4",
          "midi": 63,
          "time": 144.28557000000112,
          "velocity": 0.7480314960629921,
          "duration": 0.2857140000000129
        },
        {
          "name": "D#5",
          "midi": 75,
          "time": 144.28557000000112,
          "velocity": 0.7480314960629921,
          "duration": 0.2857140000000129
        },
        {
          "name": "D#6",
          "midi": 87,
          "time": 144.28557000000112,
          "velocity": 0.7480314960629921,
          "duration": 0.2857140000000129
        },
        {
          "name": "D#7",
          "midi": 99,
          "time": 144.28557000000112,
          "velocity": 0.7480314960629921,
          "duration": 0.2857140000000129
        },
        {
          "name": "E4",
          "midi": 64,
          "time": 144.57128400000113,
          "velocity": 0.7480314960629921,
          "duration": 0.2857140000000129
        },
        {
          "name": "E5",
          "midi": 76,
          "time": 144.57128400000113,
          "velocity": 0.7480314960629921,
          "duration": 0.2857140000000129
        },
        {
          "name": "E6",
          "midi": 88,
          "time": 144.57128400000113,
          "velocity": 0.7480314960629921,
          "duration": 0.2857140000000129
        },
        {
          "name": "E7",
          "midi": 100,
          "time": 144.57128400000113,
          "velocity": 0.7480314960629921,
          "duration": 0.2857140000000129
        },
        {
          "name": "C4",
          "midi": 60,
          "time": 144.85699800000114,
          "velocity": 0.7480314960629921,
          "duration": 0.2857140000000129
        },
        {
          "name": "C5",
          "midi": 72,
          "time": 144.85699800000114,
          "velocity": 0.7480314960629921,
          "duration": 0.2857140000000129
        },
        {
          "name": "C6",
          "midi": 84,
          "time": 144.85699800000114,
          "velocity": 0.7480314960629921,
          "duration": 0.2857140000000129
        },
        {
          "name": "C7",
          "midi": 96,
          "time": 144.85699800000114,
          "velocity": 0.7480314960629921,
          "duration": 0.2857140000000129
        },
        {
          "name": "C#4",
          "midi": 61,
          "time": 145.14271200000115,
          "velocity": 0.7480314960629921,
          "duration": 0.2857140000000129
        },
        {
          "name": "C#5",
          "midi": 73,
          "time": 145.14271200000115,
          "velocity": 0.7480314960629921,
          "duration": 0.2857140000000129
        },
        {
          "name": "C#6",
          "midi": 85,
          "time": 145.14271200000115,
          "velocity": 0.7480314960629921,
          "duration": 0.2857140000000129
        },
        {
          "name": "C#7",
          "midi": 97,
          "time": 145.14271200000115,
          "velocity": 0.7480314960629921,
          "duration": 0.2857140000000129
        },
        {
          "name": "C4",
          "midi": 60,
          "time": 145.42842600000117,
          "velocity": 0.7480314960629921,
          "duration": 0.2857140000000129
        },
        {
          "name": "C5",
          "midi": 72,
          "time": 145.42842600000117,
          "velocity": 0.7480314960629921,
          "duration": 0.2857140000000129
        },
        {
          "name": "C6",
          "midi": 84,
          "time": 145.42842600000117,
          "velocity": 0.7480314960629921,
          "duration": 0.2857140000000129
        },
        {
          "name": "C7",
          "midi": 96,
          "time": 145.42842600000117,
          "velocity": 0.7480314960629921,
          "duration": 0.2857140000000129
        },
        {
          "name": "D4",
          "midi": 62,
          "time": 145.71414000000118,
          "velocity": 0.7480314960629921,
          "duration": 0.2857140000000129
        },
        {
          "name": "D5",
          "midi": 74,
          "time": 145.71414000000118,
          "velocity": 0.7480314960629921,
          "duration": 0.2857140000000129
        },
        {
          "name": "D6",
          "midi": 86,
          "time": 145.71414000000118,
          "velocity": 0.7480314960629921,
          "duration": 0.2857140000000129
        },
        {
          "name": "D7",
          "midi": 98,
          "time": 145.71414000000118,
          "velocity": 0.7480314960629921,
          "duration": 0.2857140000000129
        },
        {
          "name": "D#4",
          "midi": 63,
          "time": 145.9998540000012,
          "velocity": 0.7480314960629921,
          "duration": 0.2857140000000129
        },
        {
          "name": "D#5",
          "midi": 75,
          "time": 145.9998540000012,
          "velocity": 0.7480314960629921,
          "duration": 0.2857140000000129
        },
        {
          "name": "D#6",
          "midi": 87,
          "time": 145.9998540000012,
          "velocity": 0.7480314960629921,
          "duration": 0.2857140000000129
        },
        {
          "name": "D#7",
          "midi": 99,
          "time": 145.9998540000012,
          "velocity": 0.7480314960629921,
          "duration": 0.2857140000000129
        },
        {
          "name": "E4",
          "midi": 64,
          "time": 146.2855680000012,
          "velocity": 0.7480314960629921,
          "duration": 0.2857140000000129
        },
        {
          "name": "E5",
          "midi": 76,
          "time": 146.2855680000012,
          "velocity": 0.7480314960629921,
          "duration": 0.2857140000000129
        },
        {
          "name": "E6",
          "midi": 88,
          "time": 146.2855680000012,
          "velocity": 0.7480314960629921,
          "duration": 0.2857140000000129
        },
        {
          "name": "E7",
          "midi": 100,
          "time": 146.2855680000012,
          "velocity": 0.7480314960629921,
          "duration": 0.2857140000000129
        },
        {
          "name": "C4",
          "midi": 60,
          "time": 146.57128200000122,
          "velocity": 0.7480314960629921,
          "duration": 0.2857140000000129
        },
        {
          "name": "C5",
          "midi": 72,
          "time": 146.57128200000122,
          "velocity": 0.7480314960629921,
          "duration": 0.2857140000000129
        },
        {
          "name": "C6",
          "midi": 84,
          "time": 146.57128200000122,
          "velocity": 0.7480314960629921,
          "duration": 0.2857140000000129
        },
        {
          "name": "C7",
          "midi": 96,
          "time": 146.57128200000122,
          "velocity": 0.7480314960629921,
          "duration": 0.2857140000000129
        },
        {
          "name": "C#4",
          "midi": 61,
          "time": 146.85699600000123,
          "velocity": 0.7480314960629921,
          "duration": 0.2857140000000129
        },
        {
          "name": "C#5",
          "midi": 73,
          "time": 146.85699600000123,
          "velocity": 0.7480314960629921,
          "duration": 0.2857140000000129
        },
        {
          "name": "C#6",
          "midi": 85,
          "time": 146.85699600000123,
          "velocity": 0.7480314960629921,
          "duration": 0.2857140000000129
        },
        {
          "name": "C#7",
          "midi": 97,
          "time": 146.85699600000123,
          "velocity": 0.7480314960629921,
          "duration": 0.2857140000000129
        },
        {
          "name": "C4",
          "midi": 60,
          "time": 147.14271000000124,
          "velocity": 0.7480314960629921,
          "duration": 0.2857140000000129
        },
        {
          "name": "C5",
          "midi": 72,
          "time": 147.14271000000124,
          "velocity": 0.7480314960629921,
          "duration": 0.2857140000000129
        },
        {
          "name": "C6",
          "midi": 84,
          "time": 147.14271000000124,
          "velocity": 0.7480314960629921,
          "duration": 0.2857140000000129
        },
        {
          "name": "C7",
          "midi": 96,
          "time": 147.14271000000124,
          "velocity": 0.7480314960629921,
          "duration": 0.2857140000000129
        },
        {
          "name": "D4",
          "midi": 62,
          "time": 147.42842400000126,
          "velocity": 0.7480314960629921,
          "duration": 0.2857140000000129
        },
        {
          "name": "D5",
          "midi": 74,
          "time": 147.42842400000126,
          "velocity": 0.7480314960629921,
          "duration": 0.2857140000000129
        },
        {
          "name": "D6",
          "midi": 86,
          "time": 147.42842400000126,
          "velocity": 0.7480314960629921,
          "duration": 0.2857140000000129
        },
        {
          "name": "D7",
          "midi": 98,
          "time": 147.42842400000126,
          "velocity": 0.7480314960629921,
          "duration": 0.2857140000000129
        },
        {
          "name": "D#4",
          "midi": 63,
          "time": 147.71413800000127,
          "velocity": 0.7480314960629921,
          "duration": 0.2857140000000129
        },
        {
          "name": "D#5",
          "midi": 75,
          "time": 147.71413800000127,
          "velocity": 0.7480314960629921,
          "duration": 0.2857140000000129
        },
        {
          "name": "D#6",
          "midi": 87,
          "time": 147.71413800000127,
          "velocity": 0.7480314960629921,
          "duration": 0.2857140000000129
        },
        {
          "name": "D#7",
          "midi": 99,
          "time": 147.71413800000127,
          "velocity": 0.7480314960629921,
          "duration": 0.2857140000000129
        },
        {
          "name": "E4",
          "midi": 64,
          "time": 147.99985200000128,
          "velocity": 0.7480314960629921,
          "duration": 0.2857140000000129
        },
        {
          "name": "E5",
          "midi": 76,
          "time": 147.99985200000128,
          "velocity": 0.7480314960629921,
          "duration": 0.2857140000000129
        },
        {
          "name": "E6",
          "midi": 88,
          "time": 147.99985200000128,
          "velocity": 0.7480314960629921,
          "duration": 0.2857140000000129
        },
        {
          "name": "E7",
          "midi": 100,
          "time": 147.99985200000128,
          "velocity": 0.7480314960629921,
          "duration": 0.2857140000000129
        },
        {
          "name": "C#4",
          "midi": 61,
          "time": 148.2855660000013,
          "velocity": 0.7480314960629921,
          "duration": 0.2857140000000129
        },
        {
          "name": "C#5",
          "midi": 73,
          "time": 148.2855660000013,
          "velocity": 0.7480314960629921,
          "duration": 0.2857140000000129
        },
        {
          "name": "C#6",
          "midi": 85,
          "time": 148.2855660000013,
          "velocity": 0.7480314960629921,
          "duration": 0.2857140000000129
        },
        {
          "name": "C#7",
          "midi": 97,
          "time": 148.2855660000013,
          "velocity": 0.7480314960629921,
          "duration": 0.2857140000000129
        },
        {
          "name": "D4",
          "midi": 62,
          "time": 148.5712800000013,
          "velocity": 0.7480314960629921,
          "duration": 0.2857140000000129
        },
        {
          "name": "D5",
          "midi": 74,
          "time": 148.5712800000013,
          "velocity": 0.7480314960629921,
          "duration": 0.2857140000000129
        },
        {
          "name": "D6",
          "midi": 86,
          "time": 148.5712800000013,
          "velocity": 0.7480314960629921,
          "duration": 0.2857140000000129
        },
        {
          "name": "D7",
          "midi": 98,
          "time": 148.5712800000013,
          "velocity": 0.7480314960629921,
          "duration": 0.2857140000000129
        },
        {
          "name": "C#4",
          "midi": 61,
          "time": 148.85699400000132,
          "velocity": 0.7480314960629921,
          "duration": 0.2857140000000129
        },
        {
          "name": "C#5",
          "midi": 73,
          "time": 148.85699400000132,
          "velocity": 0.7480314960629921,
          "duration": 0.2857140000000129
        },
        {
          "name": "C#6",
          "midi": 85,
          "time": 148.85699400000132,
          "velocity": 0.7480314960629921,
          "duration": 0.2857140000000129
        },
        {
          "name": "C#7",
          "midi": 97,
          "time": 148.85699400000132,
          "velocity": 0.7480314960629921,
          "duration": 0.2857140000000129
        },
        {
          "name": "D4",
          "midi": 62,
          "time": 149.14270800000133,
          "velocity": 0.7480314960629921,
          "duration": 0.2857140000000129
        },
        {
          "name": "D5",
          "midi": 74,
          "time": 149.14270800000133,
          "velocity": 0.7480314960629921,
          "duration": 0.2857140000000129
        },
        {
          "name": "D6",
          "midi": 86,
          "time": 149.14270800000133,
          "velocity": 0.7480314960629921,
          "duration": 0.2857140000000129
        },
        {
          "name": "D7",
          "midi": 98,
          "time": 149.14270800000133,
          "velocity": 0.7480314960629921,
          "duration": 0.2857140000000129
        },
        {
          "name": "D#4",
          "midi": 63,
          "time": 149.42842200000135,
          "velocity": 0.7480314960629921,
          "duration": 0.2857140000000129
        },
        {
          "name": "D#5",
          "midi": 75,
          "time": 149.42842200000135,
          "velocity": 0.7480314960629921,
          "duration": 0.2857140000000129
        },
        {
          "name": "D#6",
          "midi": 87,
          "time": 149.42842200000135,
          "velocity": 0.7480314960629921,
          "duration": 0.2857140000000129
        },
        {
          "name": "D#7",
          "midi": 99,
          "time": 149.42842200000135,
          "velocity": 0.7480314960629921,
          "duration": 0.2857140000000129
        },
        {
          "name": "E4",
          "midi": 64,
          "time": 149.71413600000136,
          "velocity": 0.7480314960629921,
          "duration": 0.2857140000000129
        },
        {
          "name": "E5",
          "midi": 76,
          "time": 149.71413600000136,
          "velocity": 0.7480314960629921,
          "duration": 0.2857140000000129
        },
        {
          "name": "E6",
          "midi": 88,
          "time": 149.71413600000136,
          "velocity": 0.7480314960629921,
          "duration": 0.2857140000000129
        },
        {
          "name": "E7",
          "midi": 100,
          "time": 149.71413600000136,
          "velocity": 0.7480314960629921,
          "duration": 0.2857140000000129
        },
        {
          "name": "C4",
          "midi": 60,
          "time": 149.99985000000137,
          "velocity": 0.7480314960629921,
          "duration": 0.2857140000000129
        },
        {
          "name": "C5",
          "midi": 72,
          "time": 149.99985000000137,
          "velocity": 0.7480314960629921,
          "duration": 0.2857140000000129
        },
        {
          "name": "C6",
          "midi": 84,
          "time": 149.99985000000137,
          "velocity": 0.7480314960629921,
          "duration": 0.2857140000000129
        },
        {
          "name": "C7",
          "midi": 96,
          "time": 149.99985000000137,
          "velocity": 0.7480314960629921,
          "duration": 0.2857140000000129
        },
        {
          "name": "D4",
          "midi": 62,
          "time": 150.2855640000014,
          "velocity": 0.7480314960629921,
          "duration": 0.2857140000000129
        },
        {
          "name": "D5",
          "midi": 74,
          "time": 150.2855640000014,
          "velocity": 0.7480314960629921,
          "duration": 0.2857140000000129
        },
        {
          "name": "D6",
          "midi": 86,
          "time": 150.2855640000014,
          "velocity": 0.7480314960629921,
          "duration": 0.2857140000000129
        },
        {
          "name": "D7",
          "midi": 98,
          "time": 150.2855640000014,
          "velocity": 0.7480314960629921,
          "duration": 0.2857140000000129
        },
        {
          "name": "C4",
          "midi": 60,
          "time": 150.5712780000014,
          "velocity": 0.7480314960629921,
          "duration": 0.2857140000000129
        },
        {
          "name": "C5",
          "midi": 72,
          "time": 150.5712780000014,
          "velocity": 0.7480314960629921,
          "duration": 0.2857140000000129
        },
        {
          "name": "C6",
          "midi": 84,
          "time": 150.5712780000014,
          "velocity": 0.7480314960629921,
          "duration": 0.2857140000000129
        },
        {
          "name": "C7",
          "midi": 96,
          "time": 150.5712780000014,
          "velocity": 0.7480314960629921,
          "duration": 0.2857140000000129
        },
        {
          "name": "D4",
          "midi": 62,
          "time": 150.8569920000014,
          "velocity": 0.7480314960629921,
          "duration": 0.2857140000000129
        },
        {
          "name": "D5",
          "midi": 74,
          "time": 150.8569920000014,
          "velocity": 0.7480314960629921,
          "duration": 0.2857140000000129
        },
        {
          "name": "D6",
          "midi": 86,
          "time": 150.8569920000014,
          "velocity": 0.7480314960629921,
          "duration": 0.2857140000000129
        },
        {
          "name": "D7",
          "midi": 98,
          "time": 150.8569920000014,
          "velocity": 0.7480314960629921,
          "duration": 0.2857140000000129
        },
        {
          "name": "D#4",
          "midi": 63,
          "time": 151.14270600000143,
          "velocity": 0.7480314960629921,
          "duration": 0.2857140000000129
        },
        {
          "name": "D#5",
          "midi": 75,
          "time": 151.14270600000143,
          "velocity": 0.7480314960629921,
          "duration": 0.2857140000000129
        },
        {
          "name": "D#6",
          "midi": 87,
          "time": 151.14270600000143,
          "velocity": 0.7480314960629921,
          "duration": 0.2857140000000129
        },
        {
          "name": "D#7",
          "midi": 99,
          "time": 151.14270600000143,
          "velocity": 0.7480314960629921,
          "duration": 0.2857140000000129
        },
        {
          "name": "E4",
          "midi": 64,
          "time": 151.42842000000144,
          "velocity": 0.7480314960629921,
          "duration": 0.2857140000000129
        },
        {
          "name": "E5",
          "midi": 76,
          "time": 151.42842000000144,
          "velocity": 0.7480314960629921,
          "duration": 0.2857140000000129
        },
        {
          "name": "E6",
          "midi": 88,
          "time": 151.42842000000144,
          "velocity": 0.7480314960629921,
          "duration": 0.2857140000000129
        },
        {
          "name": "E7",
          "midi": 100,
          "time": 151.42842000000144,
          "velocity": 0.7480314960629921,
          "duration": 0.2857140000000129
        },
        {
          "name": "C#4",
          "midi": 61,
          "time": 151.71413400000145,
          "velocity": 0.7480314960629921,
          "duration": 0.2857140000000129
        },
        {
          "name": "C#5",
          "midi": 73,
          "time": 151.71413400000145,
          "velocity": 0.7480314960629921,
          "duration": 0.2857140000000129
        },
        {
          "name": "C#6",
          "midi": 85,
          "time": 151.71413400000145,
          "velocity": 0.7480314960629921,
          "duration": 0.2857140000000129
        },
        {
          "name": "C#7",
          "midi": 97,
          "time": 151.71413400000145,
          "velocity": 0.7480314960629921,
          "duration": 0.2857140000000129
        },
        {
          "name": "D4",
          "midi": 62,
          "time": 151.99984800000146,
          "velocity": 0.7480314960629921,
          "duration": 0.2857140000000129
        },
        {
          "name": "D5",
          "midi": 74,
          "time": 151.99984800000146,
          "velocity": 0.7480314960629921,
          "duration": 0.2857140000000129
        },
        {
          "name": "D6",
          "midi": 86,
          "time": 151.99984800000146,
          "velocity": 0.7480314960629921,
          "duration": 0.2857140000000129
        },
        {
          "name": "D7",
          "midi": 98,
          "time": 151.99984800000146,
          "velocity": 0.7480314960629921,
          "duration": 0.2857140000000129
        },
        {
          "name": "C#4",
          "midi": 61,
          "time": 152.28556200000148,
          "velocity": 0.7480314960629921,
          "duration": 0.2857140000000129
        },
        {
          "name": "C#5",
          "midi": 73,
          "time": 152.28556200000148,
          "velocity": 0.7480314960629921,
          "duration": 0.2857140000000129
        },
        {
          "name": "C#6",
          "midi": 85,
          "time": 152.28556200000148,
          "velocity": 0.7480314960629921,
          "duration": 0.2857140000000129
        },
        {
          "name": "C#7",
          "midi": 97,
          "time": 152.28556200000148,
          "velocity": 0.7480314960629921,
          "duration": 0.2857140000000129
        },
        {
          "name": "D4",
          "midi": 62,
          "time": 152.5712760000015,
          "velocity": 0.7480314960629921,
          "duration": 0.2857140000000129
        },
        {
          "name": "D5",
          "midi": 74,
          "time": 152.5712760000015,
          "velocity": 0.7480314960629921,
          "duration": 0.2857140000000129
        },
        {
          "name": "D6",
          "midi": 86,
          "time": 152.5712760000015,
          "velocity": 0.7480314960629921,
          "duration": 0.2857140000000129
        },
        {
          "name": "D7",
          "midi": 98,
          "time": 152.5712760000015,
          "velocity": 0.7480314960629921,
          "duration": 0.2857140000000129
        },
        {
          "name": "D#4",
          "midi": 63,
          "time": 152.8569900000015,
          "velocity": 0.7480314960629921,
          "duration": 0.2857140000000129
        },
        {
          "name": "D#5",
          "midi": 75,
          "time": 152.8569900000015,
          "velocity": 0.7480314960629921,
          "duration": 0.2857140000000129
        },
        {
          "name": "D#6",
          "midi": 87,
          "time": 152.8569900000015,
          "velocity": 0.7480314960629921,
          "duration": 0.2857140000000129
        },
        {
          "name": "D#7",
          "midi": 99,
          "time": 152.8569900000015,
          "velocity": 0.7480314960629921,
          "duration": 0.2857140000000129
        },
        {
          "name": "E4",
          "midi": 64,
          "time": 153.14270400000152,
          "velocity": 0.7480314960629921,
          "duration": 0.2857140000000129
        },
        {
          "name": "E5",
          "midi": 76,
          "time": 153.14270400000152,
          "velocity": 0.7480314960629921,
          "duration": 0.2857140000000129
        },
        {
          "name": "E6",
          "midi": 88,
          "time": 153.14270400000152,
          "velocity": 0.7480314960629921,
          "duration": 0.2857140000000129
        },
        {
          "name": "E7",
          "midi": 100,
          "time": 153.14270400000152,
          "velocity": 0.7480314960629921,
          "duration": 0.2857140000000129
        },
        {
          "name": "C#4",
          "midi": 61,
          "time": 153.42841800000153,
          "velocity": 0.7480314960629921,
          "duration": 0.2857140000000129
        },
        {
          "name": "C#5",
          "midi": 73,
          "time": 153.42841800000153,
          "velocity": 0.7480314960629921,
          "duration": 0.2857140000000129
        },
        {
          "name": "C#6",
          "midi": 85,
          "time": 153.42841800000153,
          "velocity": 0.7480314960629921,
          "duration": 0.2857140000000129
        },
        {
          "name": "C#7",
          "midi": 97,
          "time": 153.42841800000153,
          "velocity": 0.7480314960629921,
          "duration": 0.2857140000000129
        },
        {
          "name": "D4",
          "midi": 62,
          "time": 153.71413200000154,
          "velocity": 0.7480314960629921,
          "duration": 0.2857140000000129
        },
        {
          "name": "D5",
          "midi": 74,
          "time": 153.71413200000154,
          "velocity": 0.7480314960629921,
          "duration": 0.2857140000000129
        },
        {
          "name": "D6",
          "midi": 86,
          "time": 153.71413200000154,
          "velocity": 0.7480314960629921,
          "duration": 0.2857140000000129
        },
        {
          "name": "D7",
          "midi": 98,
          "time": 153.71413200000154,
          "velocity": 0.7480314960629921,
          "duration": 0.2857140000000129
        },
        {
          "name": "C#4",
          "midi": 61,
          "time": 153.99984600000155,
          "velocity": 0.7480314960629921,
          "duration": 0.2857140000000129
        },
        {
          "name": "C#5",
          "midi": 73,
          "time": 153.99984600000155,
          "velocity": 0.7480314960629921,
          "duration": 0.2857140000000129
        },
        {
          "name": "C#6",
          "midi": 85,
          "time": 153.99984600000155,
          "velocity": 0.7480314960629921,
          "duration": 0.2857140000000129
        },
        {
          "name": "C#7",
          "midi": 97,
          "time": 153.99984600000155,
          "velocity": 0.7480314960629921,
          "duration": 0.2857140000000129
        },
        {
          "name": "D4",
          "midi": 62,
          "time": 154.28556000000157,
          "velocity": 0.7480314960629921,
          "duration": 0.2857140000000129
        },
        {
          "name": "D5",
          "midi": 74,
          "time": 154.28556000000157,
          "velocity": 0.7480314960629921,
          "duration": 0.2857140000000129
        },
        {
          "name": "D6",
          "midi": 86,
          "time": 154.28556000000157,
          "velocity": 0.7480314960629921,
          "duration": 0.2857140000000129
        },
        {
          "name": "D7",
          "midi": 98,
          "time": 154.28556000000157,
          "velocity": 0.7480314960629921,
          "duration": 0.2857140000000129
        },
        {
          "name": "D#4",
          "midi": 63,
          "time": 154.57127400000158,
          "velocity": 0.7480314960629921,
          "duration": 0.2857140000000129
        },
        {
          "name": "D#5",
          "midi": 75,
          "time": 154.57127400000158,
          "velocity": 0.7480314960629921,
          "duration": 0.2857140000000129
        },
        {
          "name": "D#6",
          "midi": 87,
          "time": 154.57127400000158,
          "velocity": 0.7480314960629921,
          "duration": 0.2857140000000129
        },
        {
          "name": "D#7",
          "midi": 99,
          "time": 154.57127400000158,
          "velocity": 0.7480314960629921,
          "duration": 0.2857140000000129
        },
        {
          "name": "E4",
          "midi": 64,
          "time": 154.8569880000016,
          "velocity": 0.7480314960629921,
          "duration": 0.2857140000000129
        },
        {
          "name": "E5",
          "midi": 76,
          "time": 154.8569880000016,
          "velocity": 0.7480314960629921,
          "duration": 0.2857140000000129
        },
        {
          "name": "E6",
          "midi": 88,
          "time": 154.8569880000016,
          "velocity": 0.7480314960629921,
          "duration": 0.2857140000000129
        },
        {
          "name": "E7",
          "midi": 100,
          "time": 154.8569880000016,
          "velocity": 0.7480314960629921,
          "duration": 0.2857140000000129
        },
        {
          "name": "C#4",
          "midi": 61,
          "time": 155.1427020000016,
          "velocity": 0.7480314960629921,
          "duration": 0.2857140000000129
        },
        {
          "name": "C#5",
          "midi": 73,
          "time": 155.1427020000016,
          "velocity": 0.7480314960629921,
          "duration": 0.2857140000000129
        },
        {
          "name": "C#6",
          "midi": 85,
          "time": 155.1427020000016,
          "velocity": 0.7480314960629921,
          "duration": 0.2857140000000129
        },
        {
          "name": "C#7",
          "midi": 97,
          "time": 155.1427020000016,
          "velocity": 0.7480314960629921,
          "duration": 0.2857140000000129
        },
        {
          "name": "D4",
          "midi": 62,
          "time": 155.42841600000162,
          "velocity": 0.7480314960629921,
          "duration": 0.2857140000000129
        },
        {
          "name": "D5",
          "midi": 74,
          "time": 155.42841600000162,
          "velocity": 0.7480314960629921,
          "duration": 0.2857140000000129
        },
        {
          "name": "D6",
          "midi": 86,
          "time": 155.42841600000162,
          "velocity": 0.7480314960629921,
          "duration": 0.2857140000000129
        },
        {
          "name": "D7",
          "midi": 98,
          "time": 155.42841600000162,
          "velocity": 0.7480314960629921,
          "duration": 0.2857140000000129
        },
        {
          "name": "C#4",
          "midi": 61,
          "time": 155.71413000000163,
          "velocity": 0.7480314960629921,
          "duration": 0.2857140000000129
        },
        {
          "name": "C#5",
          "midi": 73,
          "time": 155.71413000000163,
          "velocity": 0.7480314960629921,
          "duration": 0.2857140000000129
        },
        {
          "name": "C#6",
          "midi": 85,
          "time": 155.71413000000163,
          "velocity": 0.7480314960629921,
          "duration": 0.2857140000000129
        },
        {
          "name": "C#7",
          "midi": 97,
          "time": 155.71413000000163,
          "velocity": 0.7480314960629921,
          "duration": 0.2857140000000129
        },
        {
          "name": "D4",
          "midi": 62,
          "time": 155.99984400000164,
          "velocity": 0.7480314960629921,
          "duration": 0.2857140000000129
        },
        {
          "name": "D5",
          "midi": 74,
          "time": 155.99984400000164,
          "velocity": 0.7480314960629921,
          "duration": 0.2857140000000129
        },
        {
          "name": "D6",
          "midi": 86,
          "time": 155.99984400000164,
          "velocity": 0.7480314960629921,
          "duration": 0.2857140000000129
        },
        {
          "name": "D7",
          "midi": 98,
          "time": 155.99984400000164,
          "velocity": 0.7480314960629921,
          "duration": 0.2857140000000129
        },
        {
          "name": "D#4",
          "midi": 63,
          "time": 156.28555800000166,
          "velocity": 0.7480314960629921,
          "duration": 0.2857140000000129
        },
        {
          "name": "D#5",
          "midi": 75,
          "time": 156.28555800000166,
          "velocity": 0.7480314960629921,
          "duration": 0.2857140000000129
        },
        {
          "name": "D#6",
          "midi": 87,
          "time": 156.28555800000166,
          "velocity": 0.7480314960629921,
          "duration": 0.2857140000000129
        },
        {
          "name": "D#7",
          "midi": 99,
          "time": 156.28555800000166,
          "velocity": 0.7480314960629921,
          "duration": 0.2857140000000129
        },
        {
          "name": "E4",
          "midi": 64,
          "time": 156.57127200000167,
          "velocity": 0.7480314960629921,
          "duration": 0.2857140000000129
        },
        {
          "name": "E5",
          "midi": 76,
          "time": 156.57127200000167,
          "velocity": 0.7480314960629921,
          "duration": 0.2857140000000129
        },
        {
          "name": "E6",
          "midi": 88,
          "time": 156.57127200000167,
          "velocity": 0.7480314960629921,
          "duration": 0.2857140000000129
        },
        {
          "name": "E7",
          "midi": 100,
          "time": 156.57127200000167,
          "velocity": 0.7480314960629921,
          "duration": 0.2857140000000129
        },
        {
          "name": "C#4",
          "midi": 61,
          "time": 156.85698600000168,
          "velocity": 0.7480314960629921,
          "duration": 0.2857140000000129
        },
        {
          "name": "C#5",
          "midi": 73,
          "time": 156.85698600000168,
          "velocity": 0.7480314960629921,
          "duration": 0.2857140000000129
        },
        {
          "name": "C#6",
          "midi": 85,
          "time": 156.85698600000168,
          "velocity": 0.7480314960629921,
          "duration": 0.2857140000000129
        },
        {
          "name": "C#7",
          "midi": 97,
          "time": 156.85698600000168,
          "velocity": 0.7480314960629921,
          "duration": 0.2857140000000129
        },
        {
          "name": "D4",
          "midi": 62,
          "time": 157.1427000000017,
          "velocity": 0.7480314960629921,
          "duration": 0.2857140000000129
        },
        {
          "name": "D5",
          "midi": 74,
          "time": 157.1427000000017,
          "velocity": 0.7480314960629921,
          "duration": 0.2857140000000129
        },
        {
          "name": "D6",
          "midi": 86,
          "time": 157.1427000000017,
          "velocity": 0.7480314960629921,
          "duration": 0.2857140000000129
        },
        {
          "name": "D7",
          "midi": 98,
          "time": 157.1427000000017,
          "velocity": 0.7480314960629921,
          "duration": 0.2857140000000129
        },
        {
          "name": "C#4",
          "midi": 61,
          "time": 157.4284140000017,
          "velocity": 0.7480314960629921,
          "duration": 0.2857140000000129
        },
        {
          "name": "C#5",
          "midi": 73,
          "time": 157.4284140000017,
          "velocity": 0.7480314960629921,
          "duration": 0.2857140000000129
        },
        {
          "name": "C#6",
          "midi": 85,
          "time": 157.4284140000017,
          "velocity": 0.7480314960629921,
          "duration": 0.2857140000000129
        },
        {
          "name": "C#7",
          "midi": 97,
          "time": 157.4284140000017,
          "velocity": 0.7480314960629921,
          "duration": 0.2857140000000129
        },
        {
          "name": "D4",
          "midi": 62,
          "time": 157.71412800000172,
          "velocity": 0.7480314960629921,
          "duration": 0.2857140000000129
        },
        {
          "name": "D5",
          "midi": 74,
          "time": 157.71412800000172,
          "velocity": 0.7480314960629921,
          "duration": 0.2857140000000129
        },
        {
          "name": "D6",
          "midi": 86,
          "time": 157.71412800000172,
          "velocity": 0.7480314960629921,
          "duration": 0.2857140000000129
        },
        {
          "name": "D7",
          "midi": 98,
          "time": 157.71412800000172,
          "velocity": 0.7480314960629921,
          "duration": 0.2857140000000129
        },
        {
          "name": "D#4",
          "midi": 63,
          "time": 157.99984200000173,
          "velocity": 0.7480314960629921,
          "duration": 0.2857140000000129
        },
        {
          "name": "D#5",
          "midi": 75,
          "time": 157.99984200000173,
          "velocity": 0.7480314960629921,
          "duration": 0.2857140000000129
        },
        {
          "name": "D#6",
          "midi": 87,
          "time": 157.99984200000173,
          "velocity": 0.7480314960629921,
          "duration": 0.2857140000000129
        },
        {
          "name": "D#7",
          "midi": 99,
          "time": 157.99984200000173,
          "velocity": 0.7480314960629921,
          "duration": 0.2857140000000129
        },
        {
          "name": "E4",
          "midi": 64,
          "time": 158.28555600000175,
          "velocity": 0.7480314960629921,
          "duration": 0.2857140000000129
        },
        {
          "name": "E5",
          "midi": 76,
          "time": 158.28555600000175,
          "velocity": 0.7480314960629921,
          "duration": 0.2857140000000129
        },
        {
          "name": "E6",
          "midi": 88,
          "time": 158.28555600000175,
          "velocity": 0.7480314960629921,
          "duration": 0.2857140000000129
        },
        {
          "name": "E7",
          "midi": 100,
          "time": 158.28555600000175,
          "velocity": 0.7480314960629921,
          "duration": 0.2857140000000129
        },
        {
          "name": "C4",
          "midi": 60,
          "time": 158.57127000000176,
          "velocity": 0.7480314960629921,
          "duration": 0.2857140000000129
        },
        {
          "name": "C5",
          "midi": 72,
          "time": 158.57127000000176,
          "velocity": 0.7480314960629921,
          "duration": 0.2857140000000129
        },
        {
          "name": "C6",
          "midi": 84,
          "time": 158.57127000000176,
          "velocity": 0.7480314960629921,
          "duration": 0.2857140000000129
        },
        {
          "name": "C7",
          "midi": 96,
          "time": 158.57127000000176,
          "velocity": 0.7480314960629921,
          "duration": 0.2857140000000129
        },
        {
          "name": "C#4",
          "midi": 61,
          "time": 158.85698400000177,
          "velocity": 0.7480314960629921,
          "duration": 0.2857140000000129
        },
        {
          "name": "C#5",
          "midi": 73,
          "time": 158.85698400000177,
          "velocity": 0.7480314960629921,
          "duration": 0.2857140000000129
        },
        {
          "name": "C#6",
          "midi": 85,
          "time": 158.85698400000177,
          "velocity": 0.7480314960629921,
          "duration": 0.2857140000000129
        },
        {
          "name": "C#7",
          "midi": 97,
          "time": 158.85698400000177,
          "velocity": 0.7480314960629921,
          "duration": 0.2857140000000129
        },
        {
          "name": "C4",
          "midi": 60,
          "time": 159.1426980000018,
          "velocity": 0.7480314960629921,
          "duration": 0.2857140000000129
        },
        {
          "name": "C5",
          "midi": 72,
          "time": 159.1426980000018,
          "velocity": 0.7480314960629921,
          "duration": 0.2857140000000129
        },
        {
          "name": "C6",
          "midi": 84,
          "time": 159.1426980000018,
          "velocity": 0.7480314960629921,
          "duration": 0.2857140000000129
        },
        {
          "name": "C7",
          "midi": 96,
          "time": 159.1426980000018,
          "velocity": 0.7480314960629921,
          "duration": 0.2857140000000129
        },
        {
          "name": "D4",
          "midi": 62,
          "time": 159.4284120000018,
          "velocity": 0.7480314960629921,
          "duration": 0.2857140000000129
        },
        {
          "name": "D5",
          "midi": 74,
          "time": 159.4284120000018,
          "velocity": 0.7480314960629921,
          "duration": 0.2857140000000129
        },
        {
          "name": "D6",
          "midi": 86,
          "time": 159.4284120000018,
          "velocity": 0.7480314960629921,
          "duration": 0.2857140000000129
        },
        {
          "name": "D7",
          "midi": 98,
          "time": 159.4284120000018,
          "velocity": 0.7480314960629921,
          "duration": 0.2857140000000129
        },
        {
          "name": "D#4",
          "midi": 63,
          "time": 159.7141260000018,
          "velocity": 0.7480314960629921,
          "duration": 0.2857140000000129
        },
        {
          "name": "D#5",
          "midi": 75,
          "time": 159.7141260000018,
          "velocity": 0.7480314960629921,
          "duration": 0.2857140000000129
        },
        {
          "name": "D#6",
          "midi": 87,
          "time": 159.7141260000018,
          "velocity": 0.7480314960629921,
          "duration": 0.2857140000000129
        },
        {
          "name": "D#7",
          "midi": 99,
          "time": 159.7141260000018,
          "velocity": 0.7480314960629921,
          "duration": 0.2857140000000129
        },
        {
          "name": "E4",
          "midi": 64,
          "time": 159.99984000000183,
          "velocity": 0.7480314960629921,
          "duration": 0.2857140000000129
        },
        {
          "name": "E5",
          "midi": 76,
          "time": 159.99984000000183,
          "velocity": 0.7480314960629921,
          "duration": 0.2857140000000129
        },
        {
          "name": "E6",
          "midi": 88,
          "time": 159.99984000000183,
          "velocity": 0.7480314960629921,
          "duration": 0.2857140000000129
        },
        {
          "name": "E7",
          "midi": 100,
          "time": 159.99984000000183,
          "velocity": 0.7480314960629921,
          "duration": 0.2857140000000129
        },
        {
          "name": "C4",
          "midi": 60,
          "time": 160.28555400000184,
          "velocity": 0.7480314960629921,
          "duration": 0.2857140000000129
        },
        {
          "name": "C5",
          "midi": 72,
          "time": 160.28555400000184,
          "velocity": 0.7480314960629921,
          "duration": 0.2857140000000129
        },
        {
          "name": "C6",
          "midi": 84,
          "time": 160.28555400000184,
          "velocity": 0.7480314960629921,
          "duration": 0.2857140000000129
        },
        {
          "name": "C7",
          "midi": 96,
          "time": 160.28555400000184,
          "velocity": 0.7480314960629921,
          "duration": 0.2857140000000129
        },
        {
          "name": "C#4",
          "midi": 61,
          "time": 160.57126800000185,
          "velocity": 0.7480314960629921,
          "duration": 0.2857140000000129
        },
        {
          "name": "C#5",
          "midi": 73,
          "time": 160.57126800000185,
          "velocity": 0.7480314960629921,
          "duration": 0.2857140000000129
        },
        {
          "name": "C#6",
          "midi": 85,
          "time": 160.57126800000185,
          "velocity": 0.7480314960629921,
          "duration": 0.2857140000000129
        },
        {
          "name": "C#7",
          "midi": 97,
          "time": 160.57126800000185,
          "velocity": 0.7480314960629921,
          "duration": 0.2857140000000129
        },
        {
          "name": "C4",
          "midi": 60,
          "time": 160.85698200000186,
          "velocity": 0.7480314960629921,
          "duration": 0.2857140000000129
        },
        {
          "name": "C5",
          "midi": 72,
          "time": 160.85698200000186,
          "velocity": 0.7480314960629921,
          "duration": 0.2857140000000129
        },
        {
          "name": "C6",
          "midi": 84,
          "time": 160.85698200000186,
          "velocity": 0.7480314960629921,
          "duration": 0.2857140000000129
        },
        {
          "name": "C7",
          "midi": 96,
          "time": 160.85698200000186,
          "velocity": 0.7480314960629921,
          "duration": 0.2857140000000129
        },
        {
          "name": "D4",
          "midi": 62,
          "time": 161.14269600000188,
          "velocity": 0.7480314960629921,
          "duration": 0.2857140000000129
        },
        {
          "name": "D5",
          "midi": 74,
          "time": 161.14269600000188,
          "velocity": 0.7480314960629921,
          "duration": 0.2857140000000129
        },
        {
          "name": "D6",
          "midi": 86,
          "time": 161.14269600000188,
          "velocity": 0.7480314960629921,
          "duration": 0.2857140000000129
        },
        {
          "name": "D7",
          "midi": 98,
          "time": 161.14269600000188,
          "velocity": 0.7480314960629921,
          "duration": 0.2857140000000129
        },
        {
          "name": "D#4",
          "midi": 63,
          "time": 161.4284100000019,
          "velocity": 0.7480314960629921,
          "duration": 0.2857140000000129
        },
        {
          "name": "D#5",
          "midi": 75,
          "time": 161.4284100000019,
          "velocity": 0.7480314960629921,
          "duration": 0.2857140000000129
        },
        {
          "name": "D#6",
          "midi": 87,
          "time": 161.4284100000019,
          "velocity": 0.7480314960629921,
          "duration": 0.2857140000000129
        },
        {
          "name": "D#7",
          "midi": 99,
          "time": 161.4284100000019,
          "velocity": 0.7480314960629921,
          "duration": 0.2857140000000129
        },
        {
          "name": "E4",
          "midi": 64,
          "time": 161.7141240000019,
          "velocity": 0.7480314960629921,
          "duration": 0.2857140000000129
        },
        {
          "name": "E5",
          "midi": 76,
          "time": 161.7141240000019,
          "velocity": 0.7480314960629921,
          "duration": 0.2857140000000129
        },
        {
          "name": "E6",
          "midi": 88,
          "time": 161.7141240000019,
          "velocity": 0.7480314960629921,
          "duration": 0.2857140000000129
        },
        {
          "name": "E7",
          "midi": 100,
          "time": 161.7141240000019,
          "velocity": 0.7480314960629921,
          "duration": 0.2857140000000129
        },
        {
          "name": "C#4",
          "midi": 61,
          "time": 161.99983800000192,
          "velocity": 0.7480314960629921,
          "duration": 0.2857140000000129
        },
        {
          "name": "C#5",
          "midi": 73,
          "time": 161.99983800000192,
          "velocity": 0.7480314960629921,
          "duration": 0.2857140000000129
        },
        {
          "name": "C#6",
          "midi": 85,
          "time": 161.99983800000192,
          "velocity": 0.7480314960629921,
          "duration": 0.2857140000000129
        },
        {
          "name": "C#7",
          "midi": 97,
          "time": 161.99983800000192,
          "velocity": 0.7480314960629921,
          "duration": 0.2857140000000129
        },
        {
          "name": "D4",
          "midi": 62,
          "time": 162.28555200000193,
          "velocity": 0.7480314960629921,
          "duration": 0.2857140000000129
        },
        {
          "name": "D5",
          "midi": 74,
          "time": 162.28555200000193,
          "velocity": 0.7480314960629921,
          "duration": 0.2857140000000129
        },
        {
          "name": "D6",
          "midi": 86,
          "time": 162.28555200000193,
          "velocity": 0.7480314960629921,
          "duration": 0.2857140000000129
        },
        {
          "name": "D7",
          "midi": 98,
          "time": 162.28555200000193,
          "velocity": 0.7480314960629921,
          "duration": 0.2857140000000129
        },
        {
          "name": "C#4",
          "midi": 61,
          "time": 162.57126600000194,
          "velocity": 0.7480314960629921,
          "duration": 0.2857140000000129
        },
        {
          "name": "C#5",
          "midi": 73,
          "time": 162.57126600000194,
          "velocity": 0.7480314960629921,
          "duration": 0.2857140000000129
        },
        {
          "name": "C#6",
          "midi": 85,
          "time": 162.57126600000194,
          "velocity": 0.7480314960629921,
          "duration": 0.2857140000000129
        },
        {
          "name": "C#7",
          "midi": 97,
          "time": 162.57126600000194,
          "velocity": 0.7480314960629921,
          "duration": 0.2857140000000129
        },
        {
          "name": "D4",
          "midi": 62,
          "time": 162.85698000000195,
          "velocity": 0.7480314960629921,
          "duration": 0.2857140000000129
        },
        {
          "name": "D5",
          "midi": 74,
          "time": 162.85698000000195,
          "velocity": 0.7480314960629921,
          "duration": 0.2857140000000129
        },
        {
          "name": "D6",
          "midi": 86,
          "time": 162.85698000000195,
          "velocity": 0.7480314960629921,
          "duration": 0.2857140000000129
        },
        {
          "name": "D7",
          "midi": 98,
          "time": 162.85698000000195,
          "velocity": 0.7480314960629921,
          "duration": 0.2857140000000129
        },
        {
          "name": "D#4",
          "midi": 63,
          "time": 163.14269400000197,
          "velocity": 0.7480314960629921,
          "duration": 0.2857140000000129
        },
        {
          "name": "D#5",
          "midi": 75,
          "time": 163.14269400000197,
          "velocity": 0.7480314960629921,
          "duration": 0.2857140000000129
        },
        {
          "name": "D#6",
          "midi": 87,
          "time": 163.14269400000197,
          "velocity": 0.7480314960629921,
          "duration": 0.2857140000000129
        },
        {
          "name": "D#7",
          "midi": 99,
          "time": 163.14269400000197,
          "velocity": 0.7480314960629921,
          "duration": 0.2857140000000129
        },
        {
          "name": "E4",
          "midi": 64,
          "time": 163.42840800000198,
          "velocity": 0.7480314960629921,
          "duration": 0.2857140000000129
        },
        {
          "name": "E5",
          "midi": 76,
          "time": 163.42840800000198,
          "velocity": 0.7480314960629921,
          "duration": 0.2857140000000129
        },
        {
          "name": "E6",
          "midi": 88,
          "time": 163.42840800000198,
          "velocity": 0.7480314960629921,
          "duration": 0.2857140000000129
        },
        {
          "name": "E7",
          "midi": 100,
          "time": 163.42840800000198,
          "velocity": 0.7480314960629921,
          "duration": 0.2857140000000129
        },
        {
          "name": "C4",
          "midi": 60,
          "time": 163.714122000002,
          "velocity": 0.7480314960629921,
          "duration": 0.2857140000000129
        },
        {
          "name": "C5",
          "midi": 72,
          "time": 163.714122000002,
          "velocity": 0.7480314960629921,
          "duration": 0.2857140000000129
        },
        {
          "name": "C6",
          "midi": 84,
          "time": 163.714122000002,
          "velocity": 0.7480314960629921,
          "duration": 0.2857140000000129
        },
        {
          "name": "C7",
          "midi": 96,
          "time": 163.714122000002,
          "velocity": 0.7480314960629921,
          "duration": 0.2857140000000129
        },
        {
          "name": "D4",
          "midi": 62,
          "time": 163.999836000002,
          "velocity": 0.7480314960629921,
          "duration": 0.2857140000000129
        },
        {
          "name": "D5",
          "midi": 74,
          "time": 163.999836000002,
          "velocity": 0.7480314960629921,
          "duration": 0.2857140000000129
        },
        {
          "name": "D6",
          "midi": 86,
          "time": 163.999836000002,
          "velocity": 0.7480314960629921,
          "duration": 0.2857140000000129
        },
        {
          "name": "D7",
          "midi": 98,
          "time": 163.999836000002,
          "velocity": 0.7480314960629921,
          "duration": 0.2857140000000129
        },
        {
          "name": "C4",
          "midi": 60,
          "time": 164.28555000000202,
          "velocity": 0.7480314960629921,
          "duration": 0.2857140000000129
        },
        {
          "name": "C5",
          "midi": 72,
          "time": 164.28555000000202,
          "velocity": 0.7480314960629921,
          "duration": 0.2857140000000129
        },
        {
          "name": "C6",
          "midi": 84,
          "time": 164.28555000000202,
          "velocity": 0.7480314960629921,
          "duration": 0.2857140000000129
        },
        {
          "name": "C7",
          "midi": 96,
          "time": 164.28555000000202,
          "velocity": 0.7480314960629921,
          "duration": 0.2857140000000129
        },
        {
          "name": "D4",
          "midi": 62,
          "time": 164.57126400000203,
          "velocity": 0.7480314960629921,
          "duration": 0.2857140000000129
        },
        {
          "name": "D5",
          "midi": 74,
          "time": 164.57126400000203,
          "velocity": 0.7480314960629921,
          "duration": 0.2857140000000129
        },
        {
          "name": "D6",
          "midi": 86,
          "time": 164.57126400000203,
          "velocity": 0.7480314960629921,
          "duration": 0.2857140000000129
        },
        {
          "name": "D7",
          "midi": 98,
          "time": 164.57126400000203,
          "velocity": 0.7480314960629921,
          "duration": 0.2857140000000129
        },
        {
          "name": "D#4",
          "midi": 63,
          "time": 164.85697800000204,
          "velocity": 0.7480314960629921,
          "duration": 0.2857140000000129
        },
        {
          "name": "D#5",
          "midi": 75,
          "time": 164.85697800000204,
          "velocity": 0.7480314960629921,
          "duration": 0.2857140000000129
        },
        {
          "name": "D#6",
          "midi": 87,
          "time": 164.85697800000204,
          "velocity": 0.7480314960629921,
          "duration": 0.2857140000000129
        },
        {
          "name": "D#7",
          "midi": 99,
          "time": 164.85697800000204,
          "velocity": 0.7480314960629921,
          "duration": 0.2857140000000129
        },
        {
          "name": "E4",
          "midi": 64,
          "time": 165.14269200000206,
          "velocity": 0.7480314960629921,
          "duration": 0.2857140000000129
        },
        {
          "name": "E5",
          "midi": 76,
          "time": 165.14269200000206,
          "velocity": 0.7480314960629921,
          "duration": 0.2857140000000129
        },
        {
          "name": "E6",
          "midi": 88,
          "time": 165.14269200000206,
          "velocity": 0.7480314960629921,
          "duration": 0.2857140000000129
        },
        {
          "name": "E7",
          "midi": 100,
          "time": 165.14269200000206,
          "velocity": 0.7480314960629921,
          "duration": 0.2857140000000129
        },
        {
          "name": "C#4",
          "midi": 61,
          "time": 165.42840600000207,
          "velocity": 0.7480314960629921,
          "duration": 0.2857140000000129
        },
        {
          "name": "C#5",
          "midi": 73,
          "time": 165.42840600000207,
          "velocity": 0.7480314960629921,
          "duration": 0.2857140000000129
        },
        {
          "name": "C#6",
          "midi": 85,
          "time": 165.42840600000207,
          "velocity": 0.7480314960629921,
          "duration": 0.2857140000000129
        },
        {
          "name": "C#7",
          "midi": 97,
          "time": 165.42840600000207,
          "velocity": 0.7480314960629921,
          "duration": 0.2857140000000129
        },
        {
          "name": "D4",
          "midi": 62,
          "time": 165.71412000000208,
          "velocity": 0.7480314960629921,
          "duration": 0.2857140000000129
        },
        {
          "name": "D5",
          "midi": 74,
          "time": 165.71412000000208,
          "velocity": 0.7480314960629921,
          "duration": 0.2857140000000129
        },
        {
          "name": "D6",
          "midi": 86,
          "time": 165.71412000000208,
          "velocity": 0.7480314960629921,
          "duration": 0.2857140000000129
        },
        {
          "name": "D7",
          "midi": 98,
          "time": 165.71412000000208,
          "velocity": 0.7480314960629921,
          "duration": 0.2857140000000129
        },
        {
          "name": "C#4",
          "midi": 61,
          "time": 165.9998340000021,
          "velocity": 0.7480314960629921,
          "duration": 0.2857140000000129
        },
        {
          "name": "C#5",
          "midi": 73,
          "time": 165.9998340000021,
          "velocity": 0.7480314960629921,
          "duration": 0.2857140000000129
        },
        {
          "name": "C#6",
          "midi": 85,
          "time": 165.9998340000021,
          "velocity": 0.7480314960629921,
          "duration": 0.2857140000000129
        },
        {
          "name": "C#7",
          "midi": 97,
          "time": 165.9998340000021,
          "velocity": 0.7480314960629921,
          "duration": 0.2857140000000129
        },
        {
          "name": "D4",
          "midi": 62,
          "time": 166.2855480000021,
          "velocity": 0.7480314960629921,
          "duration": 0.2857140000000129
        },
        {
          "name": "D5",
          "midi": 74,
          "time": 166.2855480000021,
          "velocity": 0.7480314960629921,
          "duration": 0.2857140000000129
        },
        {
          "name": "D6",
          "midi": 86,
          "time": 166.2855480000021,
          "velocity": 0.7480314960629921,
          "duration": 0.2857140000000129
        },
        {
          "name": "D7",
          "midi": 98,
          "time": 166.2855480000021,
          "velocity": 0.7480314960629921,
          "duration": 0.2857140000000129
        },
        {
          "name": "D#4",
          "midi": 63,
          "time": 166.57126200000212,
          "velocity": 0.7480314960629921,
          "duration": 0.2857140000000129
        },
        {
          "name": "D#5",
          "midi": 75,
          "time": 166.57126200000212,
          "velocity": 0.7480314960629921,
          "duration": 0.2857140000000129
        },
        {
          "name": "D#6",
          "midi": 87,
          "time": 166.57126200000212,
          "velocity": 0.7480314960629921,
          "duration": 0.2857140000000129
        },
        {
          "name": "D#7",
          "midi": 99,
          "time": 166.57126200000212,
          "velocity": 0.7480314960629921,
          "duration": 0.2857140000000129
        },
        {
          "name": "E4",
          "midi": 64,
          "time": 166.85697600000213,
          "velocity": 0.7480314960629921,
          "duration": 0.2857140000000129
        },
        {
          "name": "E5",
          "midi": 76,
          "time": 166.85697600000213,
          "velocity": 0.7480314960629921,
          "duration": 0.2857140000000129
        },
        {
          "name": "E6",
          "midi": 88,
          "time": 166.85697600000213,
          "velocity": 0.7480314960629921,
          "duration": 0.2857140000000129
        },
        {
          "name": "E7",
          "midi": 100,
          "time": 166.85697600000213,
          "velocity": 0.7480314960629921,
          "duration": 0.2857140000000129
        },
        {
          "name": "C#4",
          "midi": 61,
          "time": 167.14269000000215,
          "velocity": 0.7480314960629921,
          "duration": 0.2857140000000129
        },
        {
          "name": "C#5",
          "midi": 73,
          "time": 167.14269000000215,
          "velocity": 0.7480314960629921,
          "duration": 0.2857140000000129
        },
        {
          "name": "C#6",
          "midi": 85,
          "time": 167.14269000000215,
          "velocity": 0.7480314960629921,
          "duration": 0.2857140000000129
        },
        {
          "name": "C#7",
          "midi": 97,
          "time": 167.14269000000215,
          "velocity": 0.7480314960629921,
          "duration": 0.2857140000000129
        },
        {
          "name": "D4",
          "midi": 62,
          "time": 167.42840400000216,
          "velocity": 0.7480314960629921,
          "duration": 0.2857140000000129
        },
        {
          "name": "D5",
          "midi": 74,
          "time": 167.42840400000216,
          "velocity": 0.7480314960629921,
          "duration": 0.2857140000000129
        },
        {
          "name": "D6",
          "midi": 86,
          "time": 167.42840400000216,
          "velocity": 0.7480314960629921,
          "duration": 0.2857140000000129
        },
        {
          "name": "D7",
          "midi": 98,
          "time": 167.42840400000216,
          "velocity": 0.7480314960629921,
          "duration": 0.2857140000000129
        },
        {
          "name": "C#4",
          "midi": 61,
          "time": 167.71411800000217,
          "velocity": 0.7480314960629921,
          "duration": 0.2857140000000129
        },
        {
          "name": "C#5",
          "midi": 73,
          "time": 167.71411800000217,
          "velocity": 0.7480314960629921,
          "duration": 0.2857140000000129
        },
        {
          "name": "C#6",
          "midi": 85,
          "time": 167.71411800000217,
          "velocity": 0.7480314960629921,
          "duration": 0.2857140000000129
        },
        {
          "name": "C#7",
          "midi": 97,
          "time": 167.71411800000217,
          "velocity": 0.7480314960629921,
          "duration": 0.2857140000000129
        },
        {
          "name": "D4",
          "midi": 62,
          "time": 167.9998320000022,
          "velocity": 0.7480314960629921,
          "duration": 0.2857140000000129
        },
        {
          "name": "D5",
          "midi": 74,
          "time": 167.9998320000022,
          "velocity": 0.7480314960629921,
          "duration": 0.2857140000000129
        },
        {
          "name": "D6",
          "midi": 86,
          "time": 167.9998320000022,
          "velocity": 0.7480314960629921,
          "duration": 0.2857140000000129
        },
        {
          "name": "D7",
          "midi": 98,
          "time": 167.9998320000022,
          "velocity": 0.7480314960629921,
          "duration": 0.2857140000000129
        },
        {
          "name": "D#4",
          "midi": 63,
          "time": 168.2855460000022,
          "velocity": 0.7480314960629921,
          "duration": 0.2857140000000129
        },
        {
          "name": "D#5",
          "midi": 75,
          "time": 168.2855460000022,
          "velocity": 0.7480314960629921,
          "duration": 0.2857140000000129
        },
        {
          "name": "D#6",
          "midi": 87,
          "time": 168.2855460000022,
          "velocity": 0.7480314960629921,
          "duration": 0.2857140000000129
        },
        {
          "name": "D#7",
          "midi": 99,
          "time": 168.2855460000022,
          "velocity": 0.7480314960629921,
          "duration": 0.2857140000000129
        },
        {
          "name": "E4",
          "midi": 64,
          "time": 168.5712600000022,
          "velocity": 0.7480314960629921,
          "duration": 0.2857140000000129
        },
        {
          "name": "E5",
          "midi": 76,
          "time": 168.5712600000022,
          "velocity": 0.7480314960629921,
          "duration": 0.2857140000000129
        },
        {
          "name": "E6",
          "midi": 88,
          "time": 168.5712600000022,
          "velocity": 0.7480314960629921,
          "duration": 0.2857140000000129
        },
        {
          "name": "E7",
          "midi": 100,
          "time": 168.5712600000022,
          "velocity": 0.7480314960629921,
          "duration": 0.2857140000000129
        },
        {
          "name": "C#4",
          "midi": 61,
          "time": 168.85697400000223,
          "velocity": 0.7480314960629921,
          "duration": 0.2857140000000129
        },
        {
          "name": "C#5",
          "midi": 73,
          "time": 168.85697400000223,
          "velocity": 0.7480314960629921,
          "duration": 0.2857140000000129
        },
        {
          "name": "C#6",
          "midi": 85,
          "time": 168.85697400000223,
          "velocity": 0.7480314960629921,
          "duration": 0.2857140000000129
        },
        {
          "name": "C#7",
          "midi": 97,
          "time": 168.85697400000223,
          "velocity": 0.7480314960629921,
          "duration": 0.2857140000000129
        },
        {
          "name": "D4",
          "midi": 62,
          "time": 169.14268800000224,
          "velocity": 0.7480314960629921,
          "duration": 0.2857140000000129
        },
        {
          "name": "D5",
          "midi": 74,
          "time": 169.14268800000224,
          "velocity": 0.7480314960629921,
          "duration": 0.2857140000000129
        },
        {
          "name": "D6",
          "midi": 86,
          "time": 169.14268800000224,
          "velocity": 0.7480314960629921,
          "duration": 0.2857140000000129
        },
        {
          "name": "D7",
          "midi": 98,
          "time": 169.14268800000224,
          "velocity": 0.7480314960629921,
          "duration": 0.2857140000000129
        },
        {
          "name": "C#4",
          "midi": 61,
          "time": 169.42840200000225,
          "velocity": 0.7480314960629921,
          "duration": 0.2857140000000129
        },
        {
          "name": "C#5",
          "midi": 73,
          "time": 169.42840200000225,
          "velocity": 0.7480314960629921,
          "duration": 0.2857140000000129
        },
        {
          "name": "C#6",
          "midi": 85,
          "time": 169.42840200000225,
          "velocity": 0.7480314960629921,
          "duration": 0.2857140000000129
        },
        {
          "name": "C#7",
          "midi": 97,
          "time": 169.42840200000225,
          "velocity": 0.7480314960629921,
          "duration": 0.2857140000000129
        },
        {
          "name": "D4",
          "midi": 62,
          "time": 169.71411600000226,
          "velocity": 0.7480314960629921,
          "duration": 0.2857140000000129
        },
        {
          "name": "D5",
          "midi": 74,
          "time": 169.71411600000226,
          "velocity": 0.7480314960629921,
          "duration": 0.2857140000000129
        },
        {
          "name": "D6",
          "midi": 86,
          "time": 169.71411600000226,
          "velocity": 0.7480314960629921,
          "duration": 0.2857140000000129
        },
        {
          "name": "D7",
          "midi": 98,
          "time": 169.71411600000226,
          "velocity": 0.7480314960629921,
          "duration": 0.2857140000000129
        },
        {
          "name": "D#4",
          "midi": 63,
          "time": 169.99983000000228,
          "velocity": 0.7480314960629921,
          "duration": 0.2857140000000129
        },
        {
          "name": "D#5",
          "midi": 75,
          "time": 169.99983000000228,
          "velocity": 0.7480314960629921,
          "duration": 0.2857140000000129
        },
        {
          "name": "D#6",
          "midi": 87,
          "time": 169.99983000000228,
          "velocity": 0.7480314960629921,
          "duration": 0.2857140000000129
        },
        {
          "name": "D#7",
          "midi": 99,
          "time": 169.99983000000228,
          "velocity": 0.7480314960629921,
          "duration": 0.2857140000000129
        },
        {
          "name": "E4",
          "midi": 64,
          "time": 170.2855440000023,
          "velocity": 0.7480314960629921,
          "duration": 0.2857140000000129
        },
        {
          "name": "E5",
          "midi": 76,
          "time": 170.2855440000023,
          "velocity": 0.7480314960629921,
          "duration": 0.2857140000000129
        },
        {
          "name": "E6",
          "midi": 88,
          "time": 170.2855440000023,
          "velocity": 0.7480314960629921,
          "duration": 0.2857140000000129
        },
        {
          "name": "E7",
          "midi": 100,
          "time": 170.2855440000023,
          "velocity": 0.7480314960629921,
          "duration": 0.2857140000000129
        },
        {
          "name": "C#4",
          "midi": 61,
          "time": 170.5712580000023,
          "velocity": 0.7480314960629921,
          "duration": 0.2857140000000129
        },
        {
          "name": "C#5",
          "midi": 73,
          "time": 170.5712580000023,
          "velocity": 0.7480314960629921,
          "duration": 0.2857140000000129
        },
        {
          "name": "C#6",
          "midi": 85,
          "time": 170.5712580000023,
          "velocity": 0.7480314960629921,
          "duration": 0.2857140000000129
        },
        {
          "name": "C#7",
          "midi": 97,
          "time": 170.5712580000023,
          "velocity": 0.7480314960629921,
          "duration": 0.2857140000000129
        },
        {
          "name": "D4",
          "midi": 62,
          "time": 170.85697200000232,
          "velocity": 0.7480314960629921,
          "duration": 0.2857140000000129
        },
        {
          "name": "D5",
          "midi": 74,
          "time": 170.85697200000232,
          "velocity": 0.7480314960629921,
          "duration": 0.2857140000000129
        },
        {
          "name": "D6",
          "midi": 86,
          "time": 170.85697200000232,
          "velocity": 0.7480314960629921,
          "duration": 0.2857140000000129
        },
        {
          "name": "D7",
          "midi": 98,
          "time": 170.85697200000232,
          "velocity": 0.7480314960629921,
          "duration": 0.2857140000000129
        },
        {
          "name": "C#4",
          "midi": 61,
          "time": 171.14268600000233,
          "velocity": 0.7480314960629921,
          "duration": 0.2857140000000129
        },
        {
          "name": "C#5",
          "midi": 73,
          "time": 171.14268600000233,
          "velocity": 0.7480314960629921,
          "duration": 0.2857140000000129
        },
        {
          "name": "C#6",
          "midi": 85,
          "time": 171.14268600000233,
          "velocity": 0.7480314960629921,
          "duration": 0.2857140000000129
        },
        {
          "name": "C#7",
          "midi": 97,
          "time": 171.14268600000233,
          "velocity": 0.7480314960629921,
          "duration": 0.2857140000000129
        },
        {
          "name": "D4",
          "midi": 62,
          "time": 171.42840000000234,
          "velocity": 0.7480314960629921,
          "duration": 0.2857140000000129
        },
        {
          "name": "D5",
          "midi": 74,
          "time": 171.42840000000234,
          "velocity": 0.7480314960629921,
          "duration": 0.2857140000000129
        },
        {
          "name": "D6",
          "midi": 86,
          "time": 171.42840000000234,
          "velocity": 0.7480314960629921,
          "duration": 0.2857140000000129
        },
        {
          "name": "D7",
          "midi": 98,
          "time": 171.42840000000234,
          "velocity": 0.7480314960629921,
          "duration": 0.2857140000000129
        },
        {
          "name": "D#4",
          "midi": 63,
          "time": 171.71411400000235,
          "velocity": 0.7480314960629921,
          "duration": 0.2857140000000129
        },
        {
          "name": "D#5",
          "midi": 75,
          "time": 171.71411400000235,
          "velocity": 0.7480314960629921,
          "duration": 0.2857140000000129
        },
        {
          "name": "D#6",
          "midi": 87,
          "time": 171.71411400000235,
          "velocity": 0.7480314960629921,
          "duration": 0.2857140000000129
        },
        {
          "name": "D#7",
          "midi": 99,
          "time": 171.71411400000235,
          "velocity": 0.7480314960629921,
          "duration": 0.2857140000000129
        },
        {
          "name": "E4",
          "midi": 64,
          "time": 171.99982800000237,
          "velocity": 0.7480314960629921,
          "duration": 0.2857140000000129
        },
        {
          "name": "E5",
          "midi": 76,
          "time": 171.99982800000237,
          "velocity": 0.7480314960629921,
          "duration": 0.2857140000000129
        },
        {
          "name": "E6",
          "midi": 88,
          "time": 171.99982800000237,
          "velocity": 0.7480314960629921,
          "duration": 0.2857140000000129
        },
        {
          "name": "E7",
          "midi": 100,
          "time": 171.99982800000237,
          "velocity": 0.7480314960629921,
          "duration": 0.2857140000000129
        },
        {
          "name": "C4",
          "midi": 60,
          "time": 172.28554200000238,
          "velocity": 0.7480314960629921,
          "duration": 0.2857140000000129
        },
        {
          "name": "C5",
          "midi": 72,
          "time": 172.28554200000238,
          "velocity": 0.7480314960629921,
          "duration": 0.2857140000000129
        },
        {
          "name": "C6",
          "midi": 84,
          "time": 172.28554200000238,
          "velocity": 0.7480314960629921,
          "duration": 0.2857140000000129
        },
        {
          "name": "C7",
          "midi": 96,
          "time": 172.28554200000238,
          "velocity": 0.7480314960629921,
          "duration": 0.2857140000000129
        },
        {
          "name": "C#4",
          "midi": 61,
          "time": 172.5712560000024,
          "velocity": 0.7480314960629921,
          "duration": 0.2857140000000129
        },
        {
          "name": "C#5",
          "midi": 73,
          "time": 172.5712560000024,
          "velocity": 0.7480314960629921,
          "duration": 0.2857140000000129
        },
        {
          "name": "C#6",
          "midi": 85,
          "time": 172.5712560000024,
          "velocity": 0.7480314960629921,
          "duration": 0.2857140000000129
        },
        {
          "name": "C#7",
          "midi": 97,
          "time": 172.5712560000024,
          "velocity": 0.7480314960629921,
          "duration": 0.2857140000000129
        },
        {
          "name": "C4",
          "midi": 60,
          "time": 172.8569700000024,
          "velocity": 0.7480314960629921,
          "duration": 0.2857140000000129
        },
        {
          "name": "C5",
          "midi": 72,
          "time": 172.8569700000024,
          "velocity": 0.7480314960629921,
          "duration": 0.2857140000000129
        },
        {
          "name": "C6",
          "midi": 84,
          "time": 172.8569700000024,
          "velocity": 0.7480314960629921,
          "duration": 0.2857140000000129
        },
        {
          "name": "C7",
          "midi": 96,
          "time": 172.8569700000024,
          "velocity": 0.7480314960629921,
          "duration": 0.2857140000000129
        },
        {
          "name": "D4",
          "midi": 62,
          "time": 173.14268400000242,
          "velocity": 0.7480314960629921,
          "duration": 0.2857140000000129
        },
        {
          "name": "D5",
          "midi": 74,
          "time": 173.14268400000242,
          "velocity": 0.7480314960629921,
          "duration": 0.2857140000000129
        },
        {
          "name": "D6",
          "midi": 86,
          "time": 173.14268400000242,
          "velocity": 0.7480314960629921,
          "duration": 0.2857140000000129
        },
        {
          "name": "D7",
          "midi": 98,
          "time": 173.14268400000242,
          "velocity": 0.7480314960629921,
          "duration": 0.2857140000000129
        },
        {
          "name": "D#4",
          "midi": 63,
          "time": 173.42839800000243,
          "velocity": 0.7480314960629921,
          "duration": 0.2857140000000129
        },
        {
          "name": "D#5",
          "midi": 75,
          "time": 173.42839800000243,
          "velocity": 0.7480314960629921,
          "duration": 0.2857140000000129
        },
        {
          "name": "D#6",
          "midi": 87,
          "time": 173.42839800000243,
          "velocity": 0.7480314960629921,
          "duration": 0.2857140000000129
        },
        {
          "name": "D#7",
          "midi": 99,
          "time": 173.42839800000243,
          "velocity": 0.7480314960629921,
          "duration": 0.2857140000000129
        },
        {
          "name": "E4",
          "midi": 64,
          "time": 173.71411200000244,
          "velocity": 0.7480314960629921,
          "duration": 0.2857140000000129
        },
        {
          "name": "E5",
          "midi": 76,
          "time": 173.71411200000244,
          "velocity": 0.7480314960629921,
          "duration": 0.2857140000000129
        },
        {
          "name": "E6",
          "midi": 88,
          "time": 173.71411200000244,
          "velocity": 0.7480314960629921,
          "duration": 0.2857140000000129
        },
        {
          "name": "E7",
          "midi": 100,
          "time": 173.71411200000244,
          "velocity": 0.7480314960629921,
          "duration": 0.2857140000000129
        },
        {
          "name": "C4",
          "midi": 60,
          "time": 173.99982600000246,
          "velocity": 0.7480314960629921,
          "duration": 0.2857140000000129
        },
        {
          "name": "C5",
          "midi": 72,
          "time": 173.99982600000246,
          "velocity": 0.7480314960629921,
          "duration": 0.2857140000000129
        },
        {
          "name": "C6",
          "midi": 84,
          "time": 173.99982600000246,
          "velocity": 0.7480314960629921,
          "duration": 0.2857140000000129
        },
        {
          "name": "C7",
          "midi": 96,
          "time": 173.99982600000246,
          "velocity": 0.7480314960629921,
          "duration": 0.2857140000000129
        },
        {
          "name": "C#4",
          "midi": 61,
          "time": 174.28554000000247,
          "velocity": 0.7480314960629921,
          "duration": 0.2857140000000129
        },
        {
          "name": "C#5",
          "midi": 73,
          "time": 174.28554000000247,
          "velocity": 0.7480314960629921,
          "duration": 0.2857140000000129
        },
        {
          "name": "C#6",
          "midi": 85,
          "time": 174.28554000000247,
          "velocity": 0.7480314960629921,
          "duration": 0.2857140000000129
        },
        {
          "name": "C#7",
          "midi": 97,
          "time": 174.28554000000247,
          "velocity": 0.7480314960629921,
          "duration": 0.2857140000000129
        },
        {
          "name": "C4",
          "midi": 60,
          "time": 174.57125400000248,
          "velocity": 0.7480314960629921,
          "duration": 0.2857140000000129
        },
        {
          "name": "C5",
          "midi": 72,
          "time": 174.57125400000248,
          "velocity": 0.7480314960629921,
          "duration": 0.2857140000000129
        },
        {
          "name": "C6",
          "midi": 84,
          "time": 174.57125400000248,
          "velocity": 0.7480314960629921,
          "duration": 0.2857140000000129
        },
        {
          "name": "C7",
          "midi": 96,
          "time": 174.57125400000248,
          "velocity": 0.7480314960629921,
          "duration": 0.2857140000000129
        },
        {
          "name": "D4",
          "midi": 62,
          "time": 174.8569680000025,
          "velocity": 0.7480314960629921,
          "duration": 0.2857140000000129
        },
        {
          "name": "D5",
          "midi": 74,
          "time": 174.8569680000025,
          "velocity": 0.7480314960629921,
          "duration": 0.2857140000000129
        },
        {
          "name": "D6",
          "midi": 86,
          "time": 174.8569680000025,
          "velocity": 0.7480314960629921,
          "duration": 0.2857140000000129
        },
        {
          "name": "D7",
          "midi": 98,
          "time": 174.8569680000025,
          "velocity": 0.7480314960629921,
          "duration": 0.2857140000000129
        },
        {
          "name": "D#4",
          "midi": 63,
          "time": 175.1426820000025,
          "velocity": 0.7480314960629921,
          "duration": 0.2857140000000129
        },
        {
          "name": "D#5",
          "midi": 75,
          "time": 175.1426820000025,
          "velocity": 0.7480314960629921,
          "duration": 0.2857140000000129
        },
        {
          "name": "D#6",
          "midi": 87,
          "time": 175.1426820000025,
          "velocity": 0.7480314960629921,
          "duration": 0.2857140000000129
        },
        {
          "name": "D#7",
          "midi": 99,
          "time": 175.1426820000025,
          "velocity": 0.7480314960629921,
          "duration": 0.2857140000000129
        },
        {
          "name": "E4",
          "midi": 64,
          "time": 175.42839600000252,
          "velocity": 0.7480314960629921,
          "duration": 0.2857140000000129
        },
        {
          "name": "E5",
          "midi": 76,
          "time": 175.42839600000252,
          "velocity": 0.7480314960629921,
          "duration": 0.2857140000000129
        },
        {
          "name": "E6",
          "midi": 88,
          "time": 175.42839600000252,
          "velocity": 0.7480314960629921,
          "duration": 0.2857140000000129
        },
        {
          "name": "E7",
          "midi": 100,
          "time": 175.42839600000252,
          "velocity": 0.7480314960629921,
          "duration": 0.2857140000000129
        },
        {
          "name": "C#4",
          "midi": 61,
          "time": 175.71411000000253,
          "velocity": 0.7480314960629921,
          "duration": 0.2857140000000129
        },
        {
          "name": "C#5",
          "midi": 73,
          "time": 175.71411000000253,
          "velocity": 0.7480314960629921,
          "duration": 0.2857140000000129
        },
        {
          "name": "C#6",
          "midi": 85,
          "time": 175.71411000000253,
          "velocity": 0.7480314960629921,
          "duration": 0.2857140000000129
        },
        {
          "name": "C#7",
          "midi": 97,
          "time": 175.71411000000253,
          "velocity": 0.7480314960629921,
          "duration": 0.2857140000000129
        },
        {
          "name": "D4",
          "midi": 62,
          "time": 175.99982400000255,
          "velocity": 0.7480314960629921,
          "duration": 0.2857140000000129
        },
        {
          "name": "D5",
          "midi": 74,
          "time": 175.99982400000255,
          "velocity": 0.7480314960629921,
          "duration": 0.2857140000000129
        },
        {
          "name": "D6",
          "midi": 86,
          "time": 175.99982400000255,
          "velocity": 0.7480314960629921,
          "duration": 0.2857140000000129
        },
        {
          "name": "D7",
          "midi": 98,
          "time": 175.99982400000255,
          "velocity": 0.7480314960629921,
          "duration": 0.2857140000000129
        },
        {
          "name": "C#4",
          "midi": 61,
          "time": 176.28553800000256,
          "velocity": 0.7480314960629921,
          "duration": 0.2857140000000129
        },
        {
          "name": "C#5",
          "midi": 73,
          "time": 176.28553800000256,
          "velocity": 0.7480314960629921,
          "duration": 0.2857140000000129
        },
        {
          "name": "C#6",
          "midi": 85,
          "time": 176.28553800000256,
          "velocity": 0.7480314960629921,
          "duration": 0.2857140000000129
        },
        {
          "name": "C#7",
          "midi": 97,
          "time": 176.28553800000256,
          "velocity": 0.7480314960629921,
          "duration": 0.2857140000000129
        },
        {
          "name": "D4",
          "midi": 62,
          "time": 176.57125200000257,
          "velocity": 0.7480314960629921,
          "duration": 0.2857140000000129
        },
        {
          "name": "D5",
          "midi": 74,
          "time": 176.57125200000257,
          "velocity": 0.7480314960629921,
          "duration": 0.2857140000000129
        },
        {
          "name": "D6",
          "midi": 86,
          "time": 176.57125200000257,
          "velocity": 0.7480314960629921,
          "duration": 0.2857140000000129
        },
        {
          "name": "D7",
          "midi": 98,
          "time": 176.57125200000257,
          "velocity": 0.7480314960629921,
          "duration": 0.2857140000000129
        },
        {
          "name": "D#4",
          "midi": 63,
          "time": 176.8569660000026,
          "velocity": 0.7480314960629921,
          "duration": 0.2857140000000129
        },
        {
          "name": "D#5",
          "midi": 75,
          "time": 176.8569660000026,
          "velocity": 0.7480314960629921,
          "duration": 0.2857140000000129
        },
        {
          "name": "D#6",
          "midi": 87,
          "time": 176.8569660000026,
          "velocity": 0.7480314960629921,
          "duration": 0.2857140000000129
        },
        {
          "name": "D#7",
          "midi": 99,
          "time": 176.8569660000026,
          "velocity": 0.7480314960629921,
          "duration": 0.2857140000000129
        },
        {
          "name": "E4",
          "midi": 64,
          "time": 177.1426800000026,
          "velocity": 0.7480314960629921,
          "duration": 0.2857140000000129
        },
        {
          "name": "E5",
          "midi": 76,
          "time": 177.1426800000026,
          "velocity": 0.7480314960629921,
          "duration": 0.2857140000000129
        },
        {
          "name": "E6",
          "midi": 88,
          "time": 177.1426800000026,
          "velocity": 0.7480314960629921,
          "duration": 0.2857140000000129
        },
        {
          "name": "E7",
          "midi": 100,
          "time": 177.1426800000026,
          "velocity": 0.7480314960629921,
          "duration": 0.2857140000000129
        },
        {
          "name": "C4",
          "midi": 60,
          "time": 177.4283940000026,
          "velocity": 0.7480314960629921,
          "duration": 0.2857140000000129
        },
        {
          "name": "C5",
          "midi": 72,
          "time": 177.4283940000026,
          "velocity": 0.7480314960629921,
          "duration": 0.2857140000000129
        },
        {
          "name": "C6",
          "midi": 84,
          "time": 177.4283940000026,
          "velocity": 0.7480314960629921,
          "duration": 0.2857140000000129
        },
        {
          "name": "C7",
          "midi": 96,
          "time": 177.4283940000026,
          "velocity": 0.7480314960629921,
          "duration": 0.2857140000000129
        },
        {
          "name": "D4",
          "midi": 62,
          "time": 177.71410800000262,
          "velocity": 0.7480314960629921,
          "duration": 0.2857140000000129
        },
        {
          "name": "D5",
          "midi": 74,
          "time": 177.71410800000262,
          "velocity": 0.7480314960629921,
          "duration": 0.2857140000000129
        },
        {
          "name": "D6",
          "midi": 86,
          "time": 177.71410800000262,
          "velocity": 0.7480314960629921,
          "duration": 0.2857140000000129
        },
        {
          "name": "D7",
          "midi": 98,
          "time": 177.71410800000262,
          "velocity": 0.7480314960629921,
          "duration": 0.2857140000000129
        },
        {
          "name": "C4",
          "midi": 60,
          "time": 177.99982200000264,
          "velocity": 0.7480314960629921,
          "duration": 0.2857140000000129
        },
        {
          "name": "C5",
          "midi": 72,
          "time": 177.99982200000264,
          "velocity": 0.7480314960629921,
          "duration": 0.2857140000000129
        },
        {
          "name": "C6",
          "midi": 84,
          "time": 177.99982200000264,
          "velocity": 0.7480314960629921,
          "duration": 0.2857140000000129
        },
        {
          "name": "C7",
          "midi": 96,
          "time": 177.99982200000264,
          "velocity": 0.7480314960629921,
          "duration": 0.2857140000000129
        },
        {
          "name": "D4",
          "midi": 62,
          "time": 178.28553600000265,
          "velocity": 0.7480314960629921,
          "duration": 0.42857100000000514
        },
        {
          "name": "D5",
          "midi": 74,
          "time": 178.28553600000265,
          "velocity": 0.7480314960629921,
          "duration": 0.42857100000000514
        },
        {
          "name": "D6",
          "midi": 86,
          "time": 178.28553600000265,
          "velocity": 0.7480314960629921,
          "duration": 0.42857100000000514
        },
        {
          "name": "D7",
          "midi": 98,
          "time": 178.28553600000265,
          "velocity": 0.7480314960629921,
          "duration": 0.42857100000000514
        },
        {
          "name": "D#4",
          "midi": 63,
          "time": 178.71410700000266,
          "velocity": 0.7480314960629921,
          "duration": 0.21428549999998836
        },
        {
          "name": "D#5",
          "midi": 75,
          "time": 178.71410700000266,
          "velocity": 0.7480314960629921,
          "duration": 0.21428549999998836
        },
        {
          "name": "D#6",
          "midi": 87,
          "time": 178.71410700000266,
          "velocity": 0.7480314960629921,
          "duration": 0.21428549999998836
        },
        {
          "name": "D#7",
          "midi": 99,
          "time": 178.71410700000266,
          "velocity": 0.7480314960629921,
          "duration": 0.21428549999998836
        },
        {
          "name": "E4",
          "midi": 64,
          "time": 178.92839250000264,
          "velocity": 0.7480314960629921,
          "duration": 0.42857100000000514
        },
        {
          "name": "E5",
          "midi": 76,
          "time": 178.92839250000264,
          "velocity": 0.7480314960629921,
          "duration": 0.42857100000000514
        },
        {
          "name": "E6",
          "midi": 88,
          "time": 178.92839250000264,
          "velocity": 0.7480314960629921,
          "duration": 0.42857100000000514
        },
        {
          "name": "E7",
          "midi": 100,
          "time": 178.92839250000264,
          "velocity": 0.7480314960629921,
          "duration": 0.42857100000000514
        },
        {
          "name": "C#4",
          "midi": 61,
          "time": 179.35696350000265,
          "velocity": 0.7480314960629921,
          "duration": 0.21428549999998836
        },
        {
          "name": "C#5",
          "midi": 73,
          "time": 179.35696350000265,
          "velocity": 0.7480314960629921,
          "duration": 0.21428549999998836
        },
        {
          "name": "C#6",
          "midi": 85,
          "time": 179.35696350000265,
          "velocity": 0.7480314960629921,
          "duration": 0.21428549999998836
        },
        {
          "name": "C#7",
          "midi": 97,
          "time": 179.35696350000265,
          "velocity": 0.7480314960629921,
          "duration": 0.21428549999998836
        },
        {
          "name": "D4",
          "midi": 62,
          "time": 179.57124900000264,
          "velocity": 0.7480314960629921,
          "duration": 0.21428549999998836
        },
        {
          "name": "D5",
          "midi": 74,
          "time": 179.57124900000264,
          "velocity": 0.7480314960629921,
          "duration": 0.21428549999998836
        },
        {
          "name": "D6",
          "midi": 86,
          "time": 179.57124900000264,
          "velocity": 0.7480314960629921,
          "duration": 0.21428549999998836
        },
        {
          "name": "D7",
          "midi": 98,
          "time": 179.57124900000264,
          "velocity": 0.7480314960629921,
          "duration": 0.21428549999998836
        },
        {
          "name": "C#4",
          "midi": 61,
          "time": 179.78553450000263,
          "velocity": 0.7480314960629921,
          "duration": 0.21428549999998836
        },
        {
          "name": "C#5",
          "midi": 73,
          "time": 179.78553450000263,
          "velocity": 0.7480314960629921,
          "duration": 0.21428549999998836
        },
        {
          "name": "C#6",
          "midi": 85,
          "time": 179.78553450000263,
          "velocity": 0.7480314960629921,
          "duration": 0.21428549999998836
        },
        {
          "name": "C#7",
          "midi": 97,
          "time": 179.78553450000263,
          "velocity": 0.7480314960629921,
          "duration": 0.21428549999998836
        },
        {
          "name": "D4",
          "midi": 62,
          "time": 179.99982000000261,
          "velocity": 0.7480314960629921,
          "duration": 0.42857100000000514
        },
        {
          "name": "D5",
          "midi": 74,
          "time": 179.99982000000261,
          "velocity": 0.7480314960629921,
          "duration": 0.42857100000000514
        },
        {
          "name": "D6",
          "midi": 86,
          "time": 179.99982000000261,
          "velocity": 0.7480314960629921,
          "duration": 0.42857100000000514
        },
        {
          "name": "D7",
          "midi": 98,
          "time": 179.99982000000261,
          "velocity": 0.7480314960629921,
          "duration": 0.42857100000000514
        },
        {
          "name": "D#4",
          "midi": 63,
          "time": 180.42839100000262,
          "velocity": 0.7480314960629921,
          "duration": 0.21428549999998836
        },
        {
          "name": "D#5",
          "midi": 75,
          "time": 180.42839100000262,
          "velocity": 0.7480314960629921,
          "duration": 0.21428549999998836
        },
        {
          "name": "D#6",
          "midi": 87,
          "time": 180.42839100000262,
          "velocity": 0.7480314960629921,
          "duration": 0.21428549999998836
        },
        {
          "name": "D#7",
          "midi": 99,
          "time": 180.42839100000262,
          "velocity": 0.7480314960629921,
          "duration": 0.21428549999998836
        },
        {
          "name": "E4",
          "midi": 64,
          "time": 180.6426765000026,
          "velocity": 0.7480314960629921,
          "duration": 0.42857100000000514
        },
        {
          "name": "E5",
          "midi": 76,
          "time": 180.6426765000026,
          "velocity": 0.7480314960629921,
          "duration": 0.42857100000000514
        },
        {
          "name": "E6",
          "midi": 88,
          "time": 180.6426765000026,
          "velocity": 0.7480314960629921,
          "duration": 0.42857100000000514
        },
        {
          "name": "E7",
          "midi": 100,
          "time": 180.6426765000026,
          "velocity": 0.7480314960629921,
          "duration": 0.42857100000000514
        },
        {
          "name": "C#4",
          "midi": 61,
          "time": 181.0712475000026,
          "velocity": 0.7480314960629921,
          "duration": 0.21428549999998836
        },
        {
          "name": "C#5",
          "midi": 73,
          "time": 181.0712475000026,
          "velocity": 0.7480314960629921,
          "duration": 0.21428549999998836
        },
        {
          "name": "C#6",
          "midi": 85,
          "time": 181.0712475000026,
          "velocity": 0.7480314960629921,
          "duration": 0.21428549999998836
        },
        {
          "name": "C#7",
          "midi": 97,
          "time": 181.0712475000026,
          "velocity": 0.7480314960629921,
          "duration": 0.21428549999998836
        },
        {
          "name": "D4",
          "midi": 62,
          "time": 181.2855330000026,
          "velocity": 0.7480314960629921,
          "duration": 0.21428549999998836
        },
        {
          "name": "D5",
          "midi": 74,
          "time": 181.2855330000026,
          "velocity": 0.7480314960629921,
          "duration": 0.21428549999998836
        },
        {
          "name": "D6",
          "midi": 86,
          "time": 181.2855330000026,
          "velocity": 0.7480314960629921,
          "duration": 0.21428549999998836
        },
        {
          "name": "D7",
          "midi": 98,
          "time": 181.2855330000026,
          "velocity": 0.7480314960629921,
          "duration": 0.21428549999998836
        },
        {
          "name": "C#4",
          "midi": 61,
          "time": 181.4998185000026,
          "velocity": 0.7480314960629921,
          "duration": 0.21428549999998836
        },
        {
          "name": "C#5",
          "midi": 73,
          "time": 181.4998185000026,
          "velocity": 0.7480314960629921,
          "duration": 0.21428549999998836
        },
        {
          "name": "C#6",
          "midi": 85,
          "time": 181.4998185000026,
          "velocity": 0.7480314960629921,
          "duration": 0.21428549999998836
        },
        {
          "name": "C#7",
          "midi": 97,
          "time": 181.4998185000026,
          "velocity": 0.7480314960629921,
          "duration": 0.21428549999998836
        },
        {
          "name": "D4",
          "midi": 62,
          "time": 181.71410400000258,
          "velocity": 0.7480314960629921,
          "duration": 0.42857100000000514
        },
        {
          "name": "D5",
          "midi": 74,
          "time": 181.71410400000258,
          "velocity": 0.7480314960629921,
          "duration": 0.42857100000000514
        },
        {
          "name": "D6",
          "midi": 86,
          "time": 181.71410400000258,
          "velocity": 0.7480314960629921,
          "duration": 0.42857100000000514
        },
        {
          "name": "D7",
          "midi": 98,
          "time": 181.71410400000258,
          "velocity": 0.7480314960629921,
          "duration": 0.42857100000000514
        },
        {
          "name": "D#4",
          "midi": 63,
          "time": 182.14267500000258,
          "velocity": 0.7480314960629921,
          "duration": 0.21428549999998836
        },
        {
          "name": "D#5",
          "midi": 75,
          "time": 182.14267500000258,
          "velocity": 0.7480314960629921,
          "duration": 0.21428549999998836
        },
        {
          "name": "D#6",
          "midi": 87,
          "time": 182.14267500000258,
          "velocity": 0.7480314960629921,
          "duration": 0.21428549999998836
        },
        {
          "name": "D#7",
          "midi": 99,
          "time": 182.14267500000258,
          "velocity": 0.7480314960629921,
          "duration": 0.21428549999998836
        },
        {
          "name": "E4",
          "midi": 64,
          "time": 182.35696050000257,
          "velocity": 0.7480314960629921,
          "duration": 0.42857100000000514
        },
        {
          "name": "E5",
          "midi": 76,
          "time": 182.35696050000257,
          "velocity": 0.7480314960629921,
          "duration": 0.42857100000000514
        },
        {
          "name": "E6",
          "midi": 88,
          "time": 182.35696050000257,
          "velocity": 0.7480314960629921,
          "duration": 0.42857100000000514
        },
        {
          "name": "E7",
          "midi": 100,
          "time": 182.35696050000257,
          "velocity": 0.7480314960629921,
          "duration": 0.42857100000000514
        },
        {
          "name": "D#4",
          "midi": 63,
          "time": 182.78553150000258,
          "velocity": 0.7480314960629921,
          "duration": 0.21428549999998836
        },
        {
          "name": "D#5",
          "midi": 75,
          "time": 182.78553150000258,
          "velocity": 0.7480314960629921,
          "duration": 0.21428549999998836
        },
        {
          "name": "D#6",
          "midi": 87,
          "time": 182.78553150000258,
          "velocity": 0.7480314960629921,
          "duration": 0.21428549999998836
        },
        {
          "name": "D#7",
          "midi": 99,
          "time": 182.78553150000258,
          "velocity": 0.7480314960629921,
          "duration": 0.21428549999998836
        },
        {
          "name": "D4",
          "midi": 62,
          "time": 182.99981700000257,
          "velocity": 0.7480314960629921,
          "duration": 0.21428549999998836
        },
        {
          "name": "D5",
          "midi": 74,
          "time": 182.99981700000257,
          "velocity": 0.7480314960629921,
          "duration": 0.21428549999998836
        },
        {
          "name": "D6",
          "midi": 86,
          "time": 182.99981700000257,
          "velocity": 0.7480314960629921,
          "duration": 0.21428549999998836
        },
        {
          "name": "D7",
          "midi": 98,
          "time": 182.99981700000257,
          "velocity": 0.7480314960629921,
          "duration": 0.21428549999998836
        },
        {
          "name": "D#4",
          "midi": 63,
          "time": 183.21410250000255,
          "velocity": 0.7480314960629921,
          "duration": 0.21428549999998836
        },
        {
          "name": "D#5",
          "midi": 75,
          "time": 183.21410250000255,
          "velocity": 0.7480314960629921,
          "duration": 0.21428549999998836
        },
        {
          "name": "D#6",
          "midi": 87,
          "time": 183.21410250000255,
          "velocity": 0.7480314960629921,
          "duration": 0.21428549999998836
        },
        {
          "name": "D#7",
          "midi": 99,
          "time": 183.21410250000255,
          "velocity": 0.7480314960629921,
          "duration": 0.21428549999998836
        },
        {
          "name": "D4",
          "midi": 62,
          "time": 183.42838800000254,
          "velocity": 0.7480314960629921,
          "duration": 0.42857100000000514
        },
        {
          "name": "D5",
          "midi": 74,
          "time": 183.42838800000254,
          "velocity": 0.7480314960629921,
          "duration": 0.42857100000000514
        },
        {
          "name": "D6",
          "midi": 86,
          "time": 183.42838800000254,
          "velocity": 0.7480314960629921,
          "duration": 0.42857100000000514
        },
        {
          "name": "D7",
          "midi": 98,
          "time": 183.42838800000254,
          "velocity": 0.7480314960629921,
          "duration": 0.42857100000000514
        },
        {
          "name": "D#4",
          "midi": 63,
          "time": 183.85695900000255,
          "velocity": 0.7480314960629921,
          "duration": 0.21428549999998836
        },
        {
          "name": "D#5",
          "midi": 75,
          "time": 183.85695900000255,
          "velocity": 0.7480314960629921,
          "duration": 0.21428549999998836
        },
        {
          "name": "D#6",
          "midi": 87,
          "time": 183.85695900000255,
          "velocity": 0.7480314960629921,
          "duration": 0.21428549999998836
        },
        {
          "name": "D#7",
          "midi": 99,
          "time": 183.85695900000255,
          "velocity": 0.7480314960629921,
          "duration": 0.21428549999998836
        },
        {
          "name": "E4",
          "midi": 64,
          "time": 184.07124450000254,
          "velocity": 0.7480314960629921,
          "duration": 0.42857100000000514
        },
        {
          "name": "E5",
          "midi": 76,
          "time": 184.07124450000254,
          "velocity": 0.7480314960629921,
          "duration": 0.42857100000000514
        },
        {
          "name": "E6",
          "midi": 88,
          "time": 184.07124450000254,
          "velocity": 0.7480314960629921,
          "duration": 0.42857100000000514
        },
        {
          "name": "E7",
          "midi": 100,
          "time": 184.07124450000254,
          "velocity": 0.7480314960629921,
          "duration": 0.42857100000000514
        },
        {
          "name": "D#4",
          "midi": 63,
          "time": 184.49981550000254,
          "velocity": 0.7480314960629921,
          "duration": 0.21428549999998836
        },
        {
          "name": "D#5",
          "midi": 75,
          "time": 184.49981550000254,
          "velocity": 0.7480314960629921,
          "duration": 0.21428549999998836
        },
        {
          "name": "D#6",
          "midi": 87,
          "time": 184.49981550000254,
          "velocity": 0.7480314960629921,
          "duration": 0.21428549999998836
        },
        {
          "name": "D#7",
          "midi": 99,
          "time": 184.49981550000254,
          "velocity": 0.7480314960629921,
          "duration": 0.21428549999998836
        },
        {
          "name": "D4",
          "midi": 62,
          "time": 184.71410100000253,
          "velocity": 0.7480314960629921,
          "duration": 0.21428549999998836
        },
        {
          "name": "D5",
          "midi": 74,
          "time": 184.71410100000253,
          "velocity": 0.7480314960629921,
          "duration": 0.21428549999998836
        },
        {
          "name": "D6",
          "midi": 86,
          "time": 184.71410100000253,
          "velocity": 0.7480314960629921,
          "duration": 0.21428549999998836
        },
        {
          "name": "D7",
          "midi": 98,
          "time": 184.71410100000253,
          "velocity": 0.7480314960629921,
          "duration": 0.21428549999998836
        },
        {
          "name": "D#4",
          "midi": 63,
          "time": 184.92838650000252,
          "velocity": 0.7480314960629921,
          "duration": 0.21428549999998836
        },
        {
          "name": "D#5",
          "midi": 75,
          "time": 184.92838650000252,
          "velocity": 0.7480314960629921,
          "duration": 0.21428549999998836
        },
        {
          "name": "D#6",
          "midi": 87,
          "time": 184.92838650000252,
          "velocity": 0.7480314960629921,
          "duration": 0.21428549999998836
        },
        {
          "name": "D#7",
          "midi": 99,
          "time": 184.92838650000252,
          "velocity": 0.7480314960629921,
          "duration": 0.21428549999998836
        },
        {
          "name": "D4",
          "midi": 62,
          "time": 185.1426720000025,
          "velocity": 0.7480314960629921,
          "duration": 0.42857100000000514
        },
        {
          "name": "D5",
          "midi": 74,
          "time": 185.1426720000025,
          "velocity": 0.7480314960629921,
          "duration": 0.42857100000000514
        },
        {
          "name": "D6",
          "midi": 86,
          "time": 185.1426720000025,
          "velocity": 0.7480314960629921,
          "duration": 0.42857100000000514
        },
        {
          "name": "D7",
          "midi": 98,
          "time": 185.1426720000025,
          "velocity": 0.7480314960629921,
          "duration": 0.42857100000000514
        },
        {
          "name": "D#4",
          "midi": 63,
          "time": 185.5712430000025,
          "velocity": 0.7480314960629921,
          "duration": 0.21428549999998836
        },
        {
          "name": "D#5",
          "midi": 75,
          "time": 185.5712430000025,
          "velocity": 0.7480314960629921,
          "duration": 0.21428549999998836
        },
        {
          "name": "D#6",
          "midi": 87,
          "time": 185.5712430000025,
          "velocity": 0.7480314960629921,
          "duration": 0.21428549999998836
        },
        {
          "name": "D#7",
          "midi": 99,
          "time": 185.5712430000025,
          "velocity": 0.7480314960629921,
          "duration": 0.21428549999998836
        },
        {
          "name": "E4",
          "midi": 64,
          "time": 185.7855285000025,
          "velocity": 0.7480314960629921,
          "duration": 0.42857100000000514
        },
        {
          "name": "E5",
          "midi": 76,
          "time": 185.7855285000025,
          "velocity": 0.7480314960629921,
          "duration": 0.42857100000000514
        },
        {
          "name": "E6",
          "midi": 88,
          "time": 185.7855285000025,
          "velocity": 0.7480314960629921,
          "duration": 0.42857100000000514
        },
        {
          "name": "E7",
          "midi": 100,
          "time": 185.7855285000025,
          "velocity": 0.7480314960629921,
          "duration": 0.42857100000000514
        },
        {
          "name": "C#4",
          "midi": 61,
          "time": 186.2140995000025,
          "velocity": 0.7480314960629921,
          "duration": 0.21428549999998836
        },
        {
          "name": "C#5",
          "midi": 73,
          "time": 186.2140995000025,
          "velocity": 0.7480314960629921,
          "duration": 0.21428549999998836
        },
        {
          "name": "C#6",
          "midi": 85,
          "time": 186.2140995000025,
          "velocity": 0.7480314960629921,
          "duration": 0.21428549999998836
        },
        {
          "name": "C#7",
          "midi": 97,
          "time": 186.2140995000025,
          "velocity": 0.7480314960629921,
          "duration": 0.21428549999998836
        },
        {
          "name": "C4",
          "midi": 60,
          "time": 186.4283850000025,
          "velocity": 0.7480314960629921,
          "duration": 0.21428549999998836
        },
        {
          "name": "C5",
          "midi": 72,
          "time": 186.4283850000025,
          "velocity": 0.7480314960629921,
          "duration": 0.21428549999998836
        },
        {
          "name": "C6",
          "midi": 84,
          "time": 186.4283850000025,
          "velocity": 0.7480314960629921,
          "duration": 0.21428549999998836
        },
        {
          "name": "C7",
          "midi": 96,
          "time": 186.4283850000025,
          "velocity": 0.7480314960629921,
          "duration": 0.21428549999998836
        },
        {
          "name": "C#4",
          "midi": 61,
          "time": 186.64267050000248,
          "velocity": 0.7480314960629921,
          "duration": 0.21428549999998836
        },
        {
          "name": "C#5",
          "midi": 73,
          "time": 186.64267050000248,
          "velocity": 0.7480314960629921,
          "duration": 0.21428549999998836
        },
        {
          "name": "C#6",
          "midi": 85,
          "time": 186.64267050000248,
          "velocity": 0.7480314960629921,
          "duration": 0.21428549999998836
        },
        {
          "name": "C#7",
          "midi": 97,
          "time": 186.64267050000248,
          "velocity": 0.7480314960629921,
          "duration": 0.21428549999998836
        },
        {
          "name": "D4",
          "midi": 62,
          "time": 186.85695600000247,
          "velocity": 0.7480314960629921,
          "duration": 0.42857100000000514
        },
        {
          "name": "D5",
          "midi": 74,
          "time": 186.85695600000247,
          "velocity": 0.7480314960629921,
          "duration": 0.42857100000000514
        },
        {
          "name": "D6",
          "midi": 86,
          "time": 186.85695600000247,
          "velocity": 0.7480314960629921,
          "duration": 0.42857100000000514
        },
        {
          "name": "D7",
          "midi": 98,
          "time": 186.85695600000247,
          "velocity": 0.7480314960629921,
          "duration": 0.42857100000000514
        },
        {
          "name": "D#4",
          "midi": 63,
          "time": 187.28552700000247,
          "velocity": 0.7480314960629921,
          "duration": 0.21428549999998836
        },
        {
          "name": "D#5",
          "midi": 75,
          "time": 187.28552700000247,
          "velocity": 0.7480314960629921,
          "duration": 0.21428549999998836
        },
        {
          "name": "D#6",
          "midi": 87,
          "time": 187.28552700000247,
          "velocity": 0.7480314960629921,
          "duration": 0.21428549999998836
        },
        {
          "name": "D#7",
          "midi": 99,
          "time": 187.28552700000247,
          "velocity": 0.7480314960629921,
          "duration": 0.21428549999998836
        },
        {
          "name": "E4",
          "midi": 64,
          "time": 187.49981250000246,
          "velocity": 0.7480314960629921,
          "duration": 0.42857100000000514
        },
        {
          "name": "E5",
          "midi": 76,
          "time": 187.49981250000246,
          "velocity": 0.7480314960629921,
          "duration": 0.42857100000000514
        },
        {
          "name": "E6",
          "midi": 88,
          "time": 187.49981250000246,
          "velocity": 0.7480314960629921,
          "duration": 0.42857100000000514
        },
        {
          "name": "E7",
          "midi": 100,
          "time": 187.49981250000246,
          "velocity": 0.7480314960629921,
          "duration": 0.42857100000000514
        },
        {
          "name": "C#4",
          "midi": 61,
          "time": 187.92838350000247,
          "velocity": 0.7480314960629921,
          "duration": 0.21428549999998836
        },
        {
          "name": "C#5",
          "midi": 73,
          "time": 187.92838350000247,
          "velocity": 0.7480314960629921,
          "duration": 0.21428549999998836
        },
        {
          "name": "C#6",
          "midi": 85,
          "time": 187.92838350000247,
          "velocity": 0.7480314960629921,
          "duration": 0.21428549999998836
        },
        {
          "name": "C#7",
          "midi": 97,
          "time": 187.92838350000247,
          "velocity": 0.7480314960629921,
          "duration": 0.21428549999998836
        },
        {
          "name": "C4",
          "midi": 60,
          "time": 188.14266900000246,
          "velocity": 0.7480314960629921,
          "duration": 0.21428549999998836
        },
        {
          "name": "C5",
          "midi": 72,
          "time": 188.14266900000246,
          "velocity": 0.7480314960629921,
          "duration": 0.21428549999998836
        },
        {
          "name": "C6",
          "midi": 84,
          "time": 188.14266900000246,
          "velocity": 0.7480314960629921,
          "duration": 0.21428549999998836
        },
        {
          "name": "C7",
          "midi": 96,
          "time": 188.14266900000246,
          "velocity": 0.7480314960629921,
          "duration": 0.21428549999998836
        },
        {
          "name": "C#4",
          "midi": 61,
          "time": 188.35695450000244,
          "velocity": 0.7480314960629921,
          "duration": 0.21428549999998836
        },
        {
          "name": "C#5",
          "midi": 73,
          "time": 188.35695450000244,
          "velocity": 0.7480314960629921,
          "duration": 0.21428549999998836
        },
        {
          "name": "C#6",
          "midi": 85,
          "time": 188.35695450000244,
          "velocity": 0.7480314960629921,
          "duration": 0.21428549999998836
        },
        {
          "name": "C#7",
          "midi": 97,
          "time": 188.35695450000244,
          "velocity": 0.7480314960629921,
          "duration": 0.21428549999998836
        },
        {
          "name": "D4",
          "midi": 62,
          "time": 188.57124000000243,
          "velocity": 0.7480314960629921,
          "duration": 0.42857100000000514
        },
        {
          "name": "D5",
          "midi": 74,
          "time": 188.57124000000243,
          "velocity": 0.7480314960629921,
          "duration": 0.42857100000000514
        },
        {
          "name": "D6",
          "midi": 86,
          "time": 188.57124000000243,
          "velocity": 0.7480314960629921,
          "duration": 0.42857100000000514
        },
        {
          "name": "D7",
          "midi": 98,
          "time": 188.57124000000243,
          "velocity": 0.7480314960629921,
          "duration": 0.42857100000000514
        },
        {
          "name": "D#4",
          "midi": 63,
          "time": 188.99981100000244,
          "velocity": 0.7480314960629921,
          "duration": 0.21428549999998836
        },
        {
          "name": "D#5",
          "midi": 75,
          "time": 188.99981100000244,
          "velocity": 0.7480314960629921,
          "duration": 0.21428549999998836
        },
        {
          "name": "D#6",
          "midi": 87,
          "time": 188.99981100000244,
          "velocity": 0.7480314960629921,
          "duration": 0.21428549999998836
        },
        {
          "name": "D#7",
          "midi": 99,
          "time": 188.99981100000244,
          "velocity": 0.7480314960629921,
          "duration": 0.21428549999998836
        },
        {
          "name": "E4",
          "midi": 64,
          "time": 189.21409650000243,
          "velocity": 0.7480314960629921,
          "duration": 0.42857100000000514
        },
        {
          "name": "E5",
          "midi": 76,
          "time": 189.21409650000243,
          "velocity": 0.7480314960629921,
          "duration": 0.42857100000000514
        },
        {
          "name": "E6",
          "midi": 88,
          "time": 189.21409650000243,
          "velocity": 0.7480314960629921,
          "duration": 0.42857100000000514
        },
        {
          "name": "E7",
          "midi": 100,
          "time": 189.21409650000243,
          "velocity": 0.7480314960629921,
          "duration": 0.42857100000000514
        },
        {
          "name": "C#4",
          "midi": 61,
          "time": 189.64266750000243,
          "velocity": 0.7480314960629921,
          "duration": 0.21428549999998836
        },
        {
          "name": "C#5",
          "midi": 73,
          "time": 189.64266750000243,
          "velocity": 0.7480314960629921,
          "duration": 0.21428549999998836
        },
        {
          "name": "C#6",
          "midi": 85,
          "time": 189.64266750000243,
          "velocity": 0.7480314960629921,
          "duration": 0.21428549999998836
        },
        {
          "name": "C#7",
          "midi": 97,
          "time": 189.64266750000243,
          "velocity": 0.7480314960629921,
          "duration": 0.21428549999998836
        },
        {
          "name": "D4",
          "midi": 62,
          "time": 189.85695300000242,
          "velocity": 0.7480314960629921,
          "duration": 0.21428549999998836
        },
        {
          "name": "D5",
          "midi": 74,
          "time": 189.85695300000242,
          "velocity": 0.7480314960629921,
          "duration": 0.21428549999998836
        },
        {
          "name": "D6",
          "midi": 86,
          "time": 189.85695300000242,
          "velocity": 0.7480314960629921,
          "duration": 0.21428549999998836
        },
        {
          "name": "D7",
          "midi": 98,
          "time": 189.85695300000242,
          "velocity": 0.7480314960629921,
          "duration": 0.21428549999998836
        },
        {
          "name": "C#4",
          "midi": 61,
          "time": 190.0712385000024,
          "velocity": 0.7480314960629921,
          "duration": 0.21428549999998836
        },
        {
          "name": "C#5",
          "midi": 73,
          "time": 190.0712385000024,
          "velocity": 0.7480314960629921,
          "duration": 0.21428549999998836
        },
        {
          "name": "C#6",
          "midi": 85,
          "time": 190.0712385000024,
          "velocity": 0.7480314960629921,
          "duration": 0.21428549999998836
        },
        {
          "name": "C#7",
          "midi": 97,
          "time": 190.0712385000024,
          "velocity": 0.7480314960629921,
          "duration": 0.21428549999998836
        },
        {
          "name": "D4",
          "midi": 62,
          "time": 190.2855240000024,
          "velocity": 0.7480314960629921,
          "duration": 0.42857100000000514
        },
        {
          "name": "D5",
          "midi": 74,
          "time": 190.2855240000024,
          "velocity": 0.7480314960629921,
          "duration": 0.42857100000000514
        },
        {
          "name": "D6",
          "midi": 86,
          "time": 190.2855240000024,
          "velocity": 0.7480314960629921,
          "duration": 0.42857100000000514
        },
        {
          "name": "D7",
          "midi": 98,
          "time": 190.2855240000024,
          "velocity": 0.7480314960629921,
          "duration": 0.42857100000000514
        },
        {
          "name": "E4",
          "midi": 64,
          "time": 190.7140950000024,
          "velocity": 0.7480314960629921,
          "duration": 0.21428549999998836
        },
        {
          "name": "E5",
          "midi": 76,
          "time": 190.7140950000024,
          "velocity": 0.7480314960629921,
          "duration": 0.21428549999998836
        },
        {
          "name": "E6",
          "midi": 88,
          "time": 190.7140950000024,
          "velocity": 0.7480314960629921,
          "duration": 0.21428549999998836
        },
        {
          "name": "E7",
          "midi": 100,
          "time": 190.7140950000024,
          "velocity": 0.7480314960629921,
          "duration": 0.21428549999998836
        },
        {
          "name": "D4",
          "midi": 62,
          "time": 190.9283805000024,
          "velocity": 0.7480314960629921,
          "duration": 0.42857100000000514
        },
        {
          "name": "D5",
          "midi": 74,
          "time": 190.9283805000024,
          "velocity": 0.7480314960629921,
          "duration": 0.42857100000000514
        },
        {
          "name": "D6",
          "midi": 86,
          "time": 190.9283805000024,
          "velocity": 0.7480314960629921,
          "duration": 0.42857100000000514
        },
        {
          "name": "D7",
          "midi": 98,
          "time": 190.9283805000024,
          "velocity": 0.7480314960629921,
          "duration": 0.42857100000000514
        },
        {
          "name": "D#4",
          "midi": 63,
          "time": 191.3569515000024,
          "velocity": 0.7480314960629921,
          "duration": 0.21428549999998836
        },
        {
          "name": "D#5",
          "midi": 75,
          "time": 191.3569515000024,
          "velocity": 0.7480314960629921,
          "duration": 0.21428549999998836
        },
        {
          "name": "D#6",
          "midi": 87,
          "time": 191.3569515000024,
          "velocity": 0.7480314960629921,
          "duration": 0.21428549999998836
        },
        {
          "name": "D#7",
          "midi": 99,
          "time": 191.3569515000024,
          "velocity": 0.7480314960629921,
          "duration": 0.21428549999998836
        },
        {
          "name": "E4",
          "midi": 64,
          "time": 191.57123700000238,
          "velocity": 0.7480314960629921,
          "duration": 0.21428549999998836
        },
        {
          "name": "E5",
          "midi": 76,
          "time": 191.57123700000238,
          "velocity": 0.7480314960629921,
          "duration": 0.21428549999998836
        },
        {
          "name": "E6",
          "midi": 88,
          "time": 191.57123700000238,
          "velocity": 0.7480314960629921,
          "duration": 0.21428549999998836
        },
        {
          "name": "E7",
          "midi": 100,
          "time": 191.57123700000238,
          "velocity": 0.7480314960629921,
          "duration": 0.21428549999998836
        },
        {
          "name": "D#4",
          "midi": 63,
          "time": 191.78552250000237,
          "velocity": 0.7480314960629921,
          "duration": 0.21428549999998836
        },
        {
          "name": "D#5",
          "midi": 75,
          "time": 191.78552250000237,
          "velocity": 0.7480314960629921,
          "duration": 0.21428549999998836
        },
        {
          "name": "D#6",
          "midi": 87,
          "time": 191.78552250000237,
          "velocity": 0.7480314960629921,
          "duration": 0.21428549999998836
        },
        {
          "name": "D#7",
          "midi": 99,
          "time": 191.78552250000237,
          "velocity": 0.7480314960629921,
          "duration": 0.21428549999998836
        },
        {
          "name": "C4",
          "midi": 60,
          "time": 192.10070075625237,
          "velocity": 0.7480314960629921,
          "duration": 0.21428549999998836
        },
        {
          "name": "C5",
          "midi": 72,
          "time": 192.10070075625237,
          "velocity": 0.7480314960629921,
          "duration": 0.21428549999998836
        },
        {
          "name": "C6",
          "midi": 84,
          "time": 192.10070075625237,
          "velocity": 0.7480314960629921,
          "duration": 0.21428549999998836
        },
        {
          "name": "C7",
          "midi": 96,
          "time": 192.10070075625237,
          "velocity": 0.7480314960629921,
          "duration": 0.21428549999998836
        },
        {
          "name": "D4",
          "midi": 62,
          "time": 192.31498625625235,
          "velocity": 0.7480314960629921,
          "duration": 0.21428549999998836
        },
        {
          "name": "D5",
          "midi": 74,
          "time": 192.31498625625235,
          "velocity": 0.7480314960629921,
          "duration": 0.21428549999998836
        },
        {
          "name": "D6",
          "midi": 86,
          "time": 192.31498625625235,
          "velocity": 0.7480314960629921,
          "duration": 0.21428549999998836
        },
        {
          "name": "D7",
          "midi": 98,
          "time": 192.31498625625235,
          "velocity": 0.7480314960629921,
          "duration": 0.21428549999998836
        },
        {
          "name": "C4",
          "midi": 60,
          "time": 192.52927175625234,
          "velocity": 0.7480314960629921,
          "duration": 0.21428549999998836
        },
        {
          "name": "C5",
          "midi": 72,
          "time": 192.52927175625234,
          "velocity": 0.7480314960629921,
          "duration": 0.21428549999998836
        },
        {
          "name": "C6",
          "midi": 84,
          "time": 192.52927175625234,
          "velocity": 0.7480314960629921,
          "duration": 0.21428549999998836
        },
        {
          "name": "C7",
          "midi": 96,
          "time": 192.52927175625234,
          "velocity": 0.7480314960629921,
          "duration": 0.21428549999998836
        },
        {
          "name": "D4",
          "midi": 62,
          "time": 192.74355725625233,
          "velocity": 0.7480314960629921,
          "duration": 0.21428549999998836
        },
        {
          "name": "D5",
          "midi": 74,
          "time": 192.74355725625233,
          "velocity": 0.7480314960629921,
          "duration": 0.21428549999998836
        },
        {
          "name": "D6",
          "midi": 86,
          "time": 192.74355725625233,
          "velocity": 0.7480314960629921,
          "duration": 0.21428549999998836
        },
        {
          "name": "D7",
          "midi": 98,
          "time": 192.74355725625233,
          "velocity": 0.7480314960629921,
          "duration": 0.21428549999998836
        },
        {
          "name": "C#4",
          "midi": 61,
          "time": 192.95784275625232,
          "velocity": 0.7480314960629921,
          "duration": 0.21428549999998836
        },
        {
          "name": "C#5",
          "midi": 73,
          "time": 192.95784275625232,
          "velocity": 0.7480314960629921,
          "duration": 0.21428549999998836
        },
        {
          "name": "C#6",
          "midi": 85,
          "time": 192.95784275625232,
          "velocity": 0.7480314960629921,
          "duration": 0.21428549999998836
        },
        {
          "name": "C#7",
          "midi": 97,
          "time": 192.95784275625232,
          "velocity": 0.7480314960629921,
          "duration": 0.21428549999998836
        },
        {
          "name": "C4",
          "midi": 60,
          "time": 193.1721282562523,
          "velocity": 0.7480314960629921,
          "duration": 0.21428549999998836
        },
        {
          "name": "C5",
          "midi": 72,
          "time": 193.1721282562523,
          "velocity": 0.7480314960629921,
          "duration": 0.21428549999998836
        },
        {
          "name": "C6",
          "midi": 84,
          "time": 193.1721282562523,
          "velocity": 0.7480314960629921,
          "duration": 0.21428549999998836
        },
        {
          "name": "C7",
          "midi": 96,
          "time": 193.1721282562523,
          "velocity": 0.7480314960629921,
          "duration": 0.21428549999998836
        },
        {
          "name": "C4",
          "midi": 60,
          "time": 193.3864137562523,
          "velocity": 0.7480314960629921,
          "duration": 0.21428549999998836
        },
        {
          "name": "C5",
          "midi": 72,
          "time": 193.3864137562523,
          "velocity": 0.7480314960629921,
          "duration": 0.21428549999998836
        },
        {
          "name": "C6",
          "midi": 84,
          "time": 193.3864137562523,
          "velocity": 0.7480314960629921,
          "duration": 0.21428549999998836
        },
        {
          "name": "C7",
          "midi": 96,
          "time": 193.3864137562523,
          "velocity": 0.7480314960629921,
          "duration": 0.21428549999998836
        },
        {
          "name": "C4",
          "midi": 60,
          "time": 193.60069925625228,
          "velocity": 0.7480314960629921,
          "duration": 0.21428549999998836
        },
        {
          "name": "D4",
          "midi": 62,
          "time": 193.60069925625228,
          "velocity": 0.7480314960629921,
          "duration": 0.21428549999998836
        },
        {
          "name": "C5",
          "midi": 72,
          "time": 193.60069925625228,
          "velocity": 0.7480314960629921,
          "duration": 0.21428549999998836
        },
        {
          "name": "D5",
          "midi": 74,
          "time": 193.60069925625228,
          "velocity": 0.7480314960629921,
          "duration": 0.21428549999998836
        },
        {
          "name": "C6",
          "midi": 84,
          "time": 193.60069925625228,
          "velocity": 0.7480314960629921,
          "duration": 0.21428549999998836
        },
        {
          "name": "D6",
          "midi": 86,
          "time": 193.60069925625228,
          "velocity": 0.7480314960629921,
          "duration": 0.21428549999998836
        },
        {
          "name": "C7",
          "midi": 96,
          "time": 193.60069925625228,
          "velocity": 0.7480314960629921,
          "duration": 0.21428549999998836
        },
        {
          "name": "D7",
          "midi": 98,
          "time": 193.60069925625228,
          "velocity": 0.7480314960629921,
          "duration": 0.21428549999998836
        },
        {
          "name": "D4",
          "midi": 62,
          "time": 194.02927025625226,
          "velocity": 0.7480314960629921,
          "duration": 0.21428549999998836
        },
        {
          "name": "D5",
          "midi": 74,
          "time": 194.02927025625226,
          "velocity": 0.7480314960629921,
          "duration": 0.21428549999998836
        },
        {
          "name": "D6",
          "midi": 86,
          "time": 194.02927025625226,
          "velocity": 0.7480314960629921,
          "duration": 0.21428549999998836
        },
        {
          "name": "D7",
          "midi": 98,
          "time": 194.02927025625226,
          "velocity": 0.7480314960629921,
          "duration": 0.21428549999998836
        },
        {
          "name": "C4",
          "midi": 60,
          "time": 194.24355575625225,
          "velocity": 0.7480314960629921,
          "duration": 0.21428549999998836
        },
        {
          "name": "C5",
          "midi": 72,
          "time": 194.24355575625225,
          "velocity": 0.7480314960629921,
          "duration": 0.21428549999998836
        },
        {
          "name": "C6",
          "midi": 84,
          "time": 194.24355575625225,
          "velocity": 0.7480314960629921,
          "duration": 0.21428549999998836
        },
        {
          "name": "C7",
          "midi": 96,
          "time": 194.24355575625225,
          "velocity": 0.7480314960629921,
          "duration": 0.21428549999998836
        },
        {
          "name": "D4",
          "midi": 62,
          "time": 194.45784125625224,
          "velocity": 0.7480314960629921,
          "duration": 0.21428549999998836
        },
        {
          "name": "D5",
          "midi": 74,
          "time": 194.45784125625224,
          "velocity": 0.7480314960629921,
          "duration": 0.21428549999998836
        },
        {
          "name": "D6",
          "midi": 86,
          "time": 194.45784125625224,
          "velocity": 0.7480314960629921,
          "duration": 0.21428549999998836
        },
        {
          "name": "D7",
          "midi": 98,
          "time": 194.45784125625224,
          "velocity": 0.7480314960629921,
          "duration": 0.21428549999998836
        },
        {
          "name": "C#4",
          "midi": 61,
          "time": 194.67212675625223,
          "velocity": 0.7480314960629921,
          "duration": 0.21428549999998836
        },
        {
          "name": "C#5",
          "midi": 73,
          "time": 194.67212675625223,
          "velocity": 0.7480314960629921,
          "duration": 0.21428549999998836
        },
        {
          "name": "C#6",
          "midi": 85,
          "time": 194.67212675625223,
          "velocity": 0.7480314960629921,
          "duration": 0.21428549999998836
        },
        {
          "name": "C#7",
          "midi": 97,
          "time": 194.67212675625223,
          "velocity": 0.7480314960629921,
          "duration": 0.21428549999998836
        },
        {
          "name": "C4",
          "midi": 60,
          "time": 194.8864122562522,
          "velocity": 0.7480314960629921,
          "duration": 0.21428549999998836
        },
        {
          "name": "C5",
          "midi": 72,
          "time": 194.8864122562522,
          "velocity": 0.7480314960629921,
          "duration": 0.21428549999998836
        },
        {
          "name": "C6",
          "midi": 84,
          "time": 194.8864122562522,
          "velocity": 0.7480314960629921,
          "duration": 0.21428549999998836
        },
        {
          "name": "C7",
          "midi": 96,
          "time": 194.8864122562522,
          "velocity": 0.7480314960629921,
          "duration": 0.21428549999998836
        },
        {
          "name": "C4",
          "midi": 60,
          "time": 195.1006977562522,
          "velocity": 0.7480314960629921,
          "duration": 0.21428549999998836
        },
        {
          "name": "C5",
          "midi": 72,
          "time": 195.1006977562522,
          "velocity": 0.7480314960629921,
          "duration": 0.21428549999998836
        },
        {
          "name": "C6",
          "midi": 84,
          "time": 195.1006977562522,
          "velocity": 0.7480314960629921,
          "duration": 0.21428549999998836
        },
        {
          "name": "C7",
          "midi": 96,
          "time": 195.1006977562522,
          "velocity": 0.7480314960629921,
          "duration": 0.21428549999998836
        },
        {
          "name": "C4",
          "midi": 60,
          "time": 195.3149832562522,
          "velocity": 0.7480314960629921,
          "duration": 0.21428549999998836
        },
        {
          "name": "C5",
          "midi": 72,
          "time": 195.3149832562522,
          "velocity": 0.7480314960629921,
          "duration": 0.21428549999998836
        },
        {
          "name": "C6",
          "midi": 84,
          "time": 195.3149832562522,
          "velocity": 0.7480314960629921,
          "duration": 0.21428549999998836
        },
        {
          "name": "C7",
          "midi": 96,
          "time": 195.3149832562522,
          "velocity": 0.7480314960629921,
          "duration": 0.21428549999998836
        },
        {
          "name": "C4",
          "midi": 60,
          "time": 195.52926875625218,
          "velocity": 0.7480314960629921,
          "duration": 0.21428549999998836
        },
        {
          "name": "C5",
          "midi": 72,
          "time": 195.52926875625218,
          "velocity": 0.7480314960629921,
          "duration": 0.21428549999998836
        },
        {
          "name": "C6",
          "midi": 84,
          "time": 195.52926875625218,
          "velocity": 0.7480314960629921,
          "duration": 0.21428549999998836
        },
        {
          "name": "C7",
          "midi": 96,
          "time": 195.52926875625218,
          "velocity": 0.7480314960629921,
          "duration": 0.21428549999998836
        },
        {
          "name": "D4",
          "midi": 62,
          "time": 195.74355425625217,
          "velocity": 0.7480314960629921,
          "duration": 0.21428549999998836
        },
        {
          "name": "D5",
          "midi": 74,
          "time": 195.74355425625217,
          "velocity": 0.7480314960629921,
          "duration": 0.21428549999998836
        },
        {
          "name": "D6",
          "midi": 86,
          "time": 195.74355425625217,
          "velocity": 0.7480314960629921,
          "duration": 0.21428549999998836
        },
        {
          "name": "D7",
          "midi": 98,
          "time": 195.74355425625217,
          "velocity": 0.7480314960629921,
          "duration": 0.21428549999998836
        },
        {
          "name": "C4",
          "midi": 60,
          "time": 195.95783975625216,
          "velocity": 0.7480314960629921,
          "duration": 0.21428549999998836
        },
        {
          "name": "C5",
          "midi": 72,
          "time": 195.95783975625216,
          "velocity": 0.7480314960629921,
          "duration": 0.21428549999998836
        },
        {
          "name": "C6",
          "midi": 84,
          "time": 195.95783975625216,
          "velocity": 0.7480314960629921,
          "duration": 0.21428549999998836
        },
        {
          "name": "C7",
          "midi": 96,
          "time": 195.95783975625216,
          "velocity": 0.7480314960629921,
          "duration": 0.21428549999998836
        },
        {
          "name": "D4",
          "midi": 62,
          "time": 196.17212525625214,
          "velocity": 0.7480314960629921,
          "duration": 0.21428549999998836
        },
        {
          "name": "D5",
          "midi": 74,
          "time": 196.17212525625214,
          "velocity": 0.7480314960629921,
          "duration": 0.21428549999998836
        },
        {
          "name": "D6",
          "midi": 86,
          "time": 196.17212525625214,
          "velocity": 0.7480314960629921,
          "duration": 0.21428549999998836
        },
        {
          "name": "D7",
          "midi": 98,
          "time": 196.17212525625214,
          "velocity": 0.7480314960629921,
          "duration": 0.21428549999998836
        },
        {
          "name": "C#4",
          "midi": 61,
          "time": 196.38641075625213,
          "velocity": 0.7480314960629921,
          "duration": 0.21428549999998836
        },
        {
          "name": "C#5",
          "midi": 73,
          "time": 196.38641075625213,
          "velocity": 0.7480314960629921,
          "duration": 0.21428549999998836
        },
        {
          "name": "C#6",
          "midi": 85,
          "time": 196.38641075625213,
          "velocity": 0.7480314960629921,
          "duration": 0.21428549999998836
        },
        {
          "name": "C#7",
          "midi": 97,
          "time": 196.38641075625213,
          "velocity": 0.7480314960629921,
          "duration": 0.21428549999998836
        },
        {
          "name": "C4",
          "midi": 60,
          "time": 196.60069625625212,
          "velocity": 0.7480314960629921,
          "duration": 0.21428549999998836
        },
        {
          "name": "C5",
          "midi": 72,
          "time": 196.60069625625212,
          "velocity": 0.7480314960629921,
          "duration": 0.21428549999998836
        },
        {
          "name": "C6",
          "midi": 84,
          "time": 196.60069625625212,
          "velocity": 0.7480314960629921,
          "duration": 0.21428549999998836
        },
        {
          "name": "C7",
          "midi": 96,
          "time": 196.60069625625212,
          "velocity": 0.7480314960629921,
          "duration": 0.21428549999998836
        },
        {
          "name": "C4",
          "midi": 60,
          "time": 196.8149817562521,
          "velocity": 0.7480314960629921,
          "duration": 0.21428549999998836
        },
        {
          "name": "C5",
          "midi": 72,
          "time": 196.8149817562521,
          "velocity": 0.7480314960629921,
          "duration": 0.21428549999998836
        },
        {
          "name": "C6",
          "midi": 84,
          "time": 196.8149817562521,
          "velocity": 0.7480314960629921,
          "duration": 0.21428549999998836
        },
        {
          "name": "C7",
          "midi": 96,
          "time": 196.8149817562521,
          "velocity": 0.7480314960629921,
          "duration": 0.21428549999998836
        },
        {
          "name": "C4",
          "midi": 60,
          "time": 197.0292672562521,
          "velocity": 0.7480314960629921,
          "duration": 0.21428549999998836
        },
        {
          "name": "C5",
          "midi": 72,
          "time": 197.0292672562521,
          "velocity": 0.7480314960629921,
          "duration": 0.21428549999998836
        },
        {
          "name": "C6",
          "midi": 84,
          "time": 197.0292672562521,
          "velocity": 0.7480314960629921,
          "duration": 0.21428549999998836
        },
        {
          "name": "C7",
          "midi": 96,
          "time": 197.0292672562521,
          "velocity": 0.7480314960629921,
          "duration": 0.21428549999998836
        },
        {
          "name": "D4",
          "midi": 62,
          "time": 197.45783825625207,
          "velocity": 0.7480314960629921,
          "duration": 0.21428549999998836
        },
        {
          "name": "D5",
          "midi": 74,
          "time": 197.45783825625207,
          "velocity": 0.7480314960629921,
          "duration": 0.21428549999998836
        },
        {
          "name": "D6",
          "midi": 86,
          "time": 197.45783825625207,
          "velocity": 0.7480314960629921,
          "duration": 0.21428549999998836
        },
        {
          "name": "D7",
          "midi": 98,
          "time": 197.45783825625207,
          "velocity": 0.7480314960629921,
          "duration": 0.21428549999998836
        },
        {
          "name": "C4",
          "midi": 60,
          "time": 197.67212375625206,
          "velocity": 0.7480314960629921,
          "duration": 0.21428549999998836
        },
        {
          "name": "C5",
          "midi": 72,
          "time": 197.67212375625206,
          "velocity": 0.7480314960629921,
          "duration": 0.21428549999998836
        },
        {
          "name": "C6",
          "midi": 84,
          "time": 197.67212375625206,
          "velocity": 0.7480314960629921,
          "duration": 0.21428549999998836
        },
        {
          "name": "C7",
          "midi": 96,
          "time": 197.67212375625206,
          "velocity": 0.7480314960629921,
          "duration": 0.21428549999998836
        },
        {
          "name": "D4",
          "midi": 62,
          "time": 197.88640925625205,
          "velocity": 0.7480314960629921,
          "duration": 0.21428549999998836
        },
        {
          "name": "D5",
          "midi": 74,
          "time": 197.88640925625205,
          "velocity": 0.7480314960629921,
          "duration": 0.21428549999998836
        },
        {
          "name": "D6",
          "midi": 86,
          "time": 197.88640925625205,
          "velocity": 0.7480314960629921,
          "duration": 0.21428549999998836
        },
        {
          "name": "D7",
          "midi": 98,
          "time": 197.88640925625205,
          "velocity": 0.7480314960629921,
          "duration": 0.21428549999998836
        },
        {
          "name": "E4",
          "midi": 64,
          "time": 198.10069475625204,
          "velocity": 0.7480314960629921,
          "duration": 0.21428549999998836
        },
        {
          "name": "E5",
          "midi": 76,
          "time": 198.10069475625204,
          "velocity": 0.7480314960629921,
          "duration": 0.21428549999998836
        },
        {
          "name": "E6",
          "midi": 88,
          "time": 198.10069475625204,
          "velocity": 0.7480314960629921,
          "duration": 0.21428549999998836
        },
        {
          "name": "E7",
          "midi": 100,
          "time": 198.10069475625204,
          "velocity": 0.7480314960629921,
          "duration": 0.21428549999998836
        },
        {
          "name": "D4",
          "midi": 62,
          "time": 198.31498025625203,
          "velocity": 0.7480314960629921,
          "duration": 0.21428549999998836
        },
        {
          "name": "D5",
          "midi": 74,
          "time": 198.31498025625203,
          "velocity": 0.7480314960629921,
          "duration": 0.21428549999998836
        },
        {
          "name": "D6",
          "midi": 86,
          "time": 198.31498025625203,
          "velocity": 0.7480314960629921,
          "duration": 0.21428549999998836
        },
        {
          "name": "D7",
          "midi": 98,
          "time": 198.31498025625203,
          "velocity": 0.7480314960629921,
          "duration": 0.21428549999998836
        },
        {
          "name": "C#4",
          "midi": 61,
          "time": 198.52926575625202,
          "velocity": 0.7480314960629921,
          "duration": 0.21428549999998836
        },
        {
          "name": "C#5",
          "midi": 73,
          "time": 198.52926575625202,
          "velocity": 0.7480314960629921,
          "duration": 0.21428549999998836
        },
        {
          "name": "C#6",
          "midi": 85,
          "time": 198.52926575625202,
          "velocity": 0.7480314960629921,
          "duration": 0.21428549999998836
        },
        {
          "name": "C#7",
          "midi": 97,
          "time": 198.52926575625202,
          "velocity": 0.7480314960629921,
          "duration": 0.21428549999998836
        },
        {
          "name": "D4",
          "midi": 62,
          "time": 198.743551256252,
          "velocity": 0.7480314960629921,
          "duration": 0.21428549999998836
        },
        {
          "name": "D5",
          "midi": 74,
          "time": 198.743551256252,
          "velocity": 0.7480314960629921,
          "duration": 0.21428549999998836
        },
        {
          "name": "D6",
          "midi": 86,
          "time": 198.743551256252,
          "velocity": 0.7480314960629921,
          "duration": 0.21428549999998836
        },
        {
          "name": "D7",
          "midi": 98,
          "time": 198.743551256252,
          "velocity": 0.7480314960629921,
          "duration": 0.21428549999998836
        },
        {
          "name": "C4",
          "midi": 60,
          "time": 198.957836756252,
          "velocity": 0.7480314960629921,
          "duration": 0.21428549999998836
        },
        {
          "name": "C5",
          "midi": 72,
          "time": 198.957836756252,
          "velocity": 0.7480314960629921,
          "duration": 0.21428549999998836
        },
        {
          "name": "C6",
          "midi": 84,
          "time": 198.957836756252,
          "velocity": 0.7480314960629921,
          "duration": 0.21428549999998836
        },
        {
          "name": "C7",
          "midi": 96,
          "time": 198.957836756252,
          "velocity": 0.7480314960629921,
          "duration": 0.21428549999998836
        },
        {
          "name": "D4",
          "midi": 62,
          "time": 199.17212225625198,
          "velocity": 0.7480314960629921,
          "duration": 0.21428549999998836
        },
        {
          "name": "D5",
          "midi": 74,
          "time": 199.17212225625198,
          "velocity": 0.7480314960629921,
          "duration": 0.21428549999998836
        },
        {
          "name": "D6",
          "midi": 86,
          "time": 199.17212225625198,
          "velocity": 0.7480314960629921,
          "duration": 0.21428549999998836
        },
        {
          "name": "D7",
          "midi": 98,
          "time": 199.17212225625198,
          "velocity": 0.7480314960629921,
          "duration": 0.21428549999998836
        },
        {
          "name": "C4",
          "midi": 60,
          "time": 199.38640775625197,
          "velocity": 0.7480314960629921,
          "duration": 0.21428549999998836
        },
        {
          "name": "C5",
          "midi": 72,
          "time": 199.38640775625197,
          "velocity": 0.7480314960629921,
          "duration": 0.21428549999998836
        },
        {
          "name": "C6",
          "midi": 84,
          "time": 199.38640775625197,
          "velocity": 0.7480314960629921,
          "duration": 0.21428549999998836
        },
        {
          "name": "C7",
          "midi": 96,
          "time": 199.38640775625197,
          "velocity": 0.7480314960629921,
          "duration": 0.21428549999998836
        },
        {
          "name": "D4",
          "midi": 62,
          "time": 199.60069325625196,
          "velocity": 0.7480314960629921,
          "duration": 0.21428549999998836
        },
        {
          "name": "D5",
          "midi": 74,
          "time": 199.60069325625196,
          "velocity": 0.7480314960629921,
          "duration": 0.21428549999998836
        },
        {
          "name": "D6",
          "midi": 86,
          "time": 199.60069325625196,
          "velocity": 0.7480314960629921,
          "duration": 0.21428549999998836
        },
        {
          "name": "D7",
          "midi": 98,
          "time": 199.60069325625196,
          "velocity": 0.7480314960629921,
          "duration": 0.21428549999998836
        },
        {
          "name": "C#4",
          "midi": 61,
          "time": 199.81497875625195,
          "velocity": 0.7480314960629921,
          "duration": 0.21428549999998836
        },
        {
          "name": "C#5",
          "midi": 73,
          "time": 199.81497875625195,
          "velocity": 0.7480314960629921,
          "duration": 0.21428549999998836
        },
        {
          "name": "C#6",
          "midi": 85,
          "time": 199.81497875625195,
          "velocity": 0.7480314960629921,
          "duration": 0.21428549999998836
        },
        {
          "name": "C#7",
          "midi": 97,
          "time": 199.81497875625195,
          "velocity": 0.7480314960629921,
          "duration": 0.21428549999998836
        },
        {
          "name": "C4",
          "midi": 60,
          "time": 200.02926425625193,
          "velocity": 0.7480314960629921,
          "duration": 0.21428549999998836
        },
        {
          "name": "C5",
          "midi": 72,
          "time": 200.02926425625193,
          "velocity": 0.7480314960629921,
          "duration": 0.21428549999998836
        },
        {
          "name": "C6",
          "midi": 84,
          "time": 200.02926425625193,
          "velocity": 0.7480314960629921,
          "duration": 0.21428549999998836
        },
        {
          "name": "C7",
          "midi": 96,
          "time": 200.02926425625193,
          "velocity": 0.7480314960629921,
          "duration": 0.21428549999998836
        },
        {
          "name": "C4",
          "midi": 60,
          "time": 200.24354975625192,
          "velocity": 0.7480314960629921,
          "duration": 0.21428549999998836
        },
        {
          "name": "C5",
          "midi": 72,
          "time": 200.24354975625192,
          "velocity": 0.7480314960629921,
          "duration": 0.21428549999998836
        },
        {
          "name": "C6",
          "midi": 84,
          "time": 200.24354975625192,
          "velocity": 0.7480314960629921,
          "duration": 0.21428549999998836
        },
        {
          "name": "C7",
          "midi": 96,
          "time": 200.24354975625192,
          "velocity": 0.7480314960629921,
          "duration": 0.21428549999998836
        },
        {
          "name": "C4",
          "midi": 60,
          "time": 200.4578352562519,
          "velocity": 0.7480314960629921,
          "duration": 0.21428549999998836
        },
        {
          "name": "D4",
          "midi": 62,
          "time": 200.4578352562519,
          "velocity": 0.7480314960629921,
          "duration": 0.21428549999998836
        },
        {
          "name": "C5",
          "midi": 72,
          "time": 200.4578352562519,
          "velocity": 0.7480314960629921,
          "duration": 0.21428549999998836
        },
        {
          "name": "D5",
          "midi": 74,
          "time": 200.4578352562519,
          "velocity": 0.7480314960629921,
          "duration": 0.21428549999998836
        },
        {
          "name": "C6",
          "midi": 84,
          "time": 200.4578352562519,
          "velocity": 0.7480314960629921,
          "duration": 0.21428549999998836
        },
        {
          "name": "D6",
          "midi": 86,
          "time": 200.4578352562519,
          "velocity": 0.7480314960629921,
          "duration": 0.21428549999998836
        },
        {
          "name": "C7",
          "midi": 96,
          "time": 200.4578352562519,
          "velocity": 0.7480314960629921,
          "duration": 0.21428549999998836
        },
        {
          "name": "D7",
          "midi": 98,
          "time": 200.4578352562519,
          "velocity": 0.7480314960629921,
          "duration": 0.21428549999998836
        },
        {
          "name": "D4",
          "midi": 62,
          "time": 200.8864062562519,
          "velocity": 0.7480314960629921,
          "duration": 0.21428549999998836
        },
        {
          "name": "D5",
          "midi": 74,
          "time": 200.8864062562519,
          "velocity": 0.7480314960629921,
          "duration": 0.21428549999998836
        },
        {
          "name": "D6",
          "midi": 86,
          "time": 200.8864062562519,
          "velocity": 0.7480314960629921,
          "duration": 0.21428549999998836
        },
        {
          "name": "D7",
          "midi": 98,
          "time": 200.8864062562519,
          "velocity": 0.7480314960629921,
          "duration": 0.21428549999998836
        },
        {
          "name": "C4",
          "midi": 60,
          "time": 201.10069175625188,
          "velocity": 0.7480314960629921,
          "duration": 0.21428549999998836
        },
        {
          "name": "C5",
          "midi": 72,
          "time": 201.10069175625188,
          "velocity": 0.7480314960629921,
          "duration": 0.21428549999998836
        },
        {
          "name": "C6",
          "midi": 84,
          "time": 201.10069175625188,
          "velocity": 0.7480314960629921,
          "duration": 0.21428549999998836
        },
        {
          "name": "C7",
          "midi": 96,
          "time": 201.10069175625188,
          "velocity": 0.7480314960629921,
          "duration": 0.21428549999998836
        },
        {
          "name": "D4",
          "midi": 62,
          "time": 201.31497725625186,
          "velocity": 0.7480314960629921,
          "duration": 0.21428549999998836
        },
        {
          "name": "D5",
          "midi": 74,
          "time": 201.31497725625186,
          "velocity": 0.7480314960629921,
          "duration": 0.21428549999998836
        },
        {
          "name": "D6",
          "midi": 86,
          "time": 201.31497725625186,
          "velocity": 0.7480314960629921,
          "duration": 0.21428549999998836
        },
        {
          "name": "D7",
          "midi": 98,
          "time": 201.31497725625186,
          "velocity": 0.7480314960629921,
          "duration": 0.21428549999998836
        },
        {
          "name": "C#4",
          "midi": 61,
          "time": 201.52926275625185,
          "velocity": 0.7480314960629921,
          "duration": 0.21428549999998836
        },
        {
          "name": "C#5",
          "midi": 73,
          "time": 201.52926275625185,
          "velocity": 0.7480314960629921,
          "duration": 0.21428549999998836
        },
        {
          "name": "C#6",
          "midi": 85,
          "time": 201.52926275625185,
          "velocity": 0.7480314960629921,
          "duration": 0.21428549999998836
        },
        {
          "name": "C#7",
          "midi": 97,
          "time": 201.52926275625185,
          "velocity": 0.7480314960629921,
          "duration": 0.21428549999998836
        },
        {
          "name": "C4",
          "midi": 60,
          "time": 201.74354825625184,
          "velocity": 0.7480314960629921,
          "duration": 0.21428549999998836
        },
        {
          "name": "C5",
          "midi": 72,
          "time": 201.74354825625184,
          "velocity": 0.7480314960629921,
          "duration": 0.21428549999998836
        },
        {
          "name": "C6",
          "midi": 84,
          "time": 201.74354825625184,
          "velocity": 0.7480314960629921,
          "duration": 0.21428549999998836
        },
        {
          "name": "C7",
          "midi": 96,
          "time": 201.74354825625184,
          "velocity": 0.7480314960629921,
          "duration": 0.21428549999998836
        },
        {
          "name": "C4",
          "midi": 60,
          "time": 201.95783375625183,
          "velocity": 0.7480314960629921,
          "duration": 0.21428549999998836
        },
        {
          "name": "C5",
          "midi": 72,
          "time": 201.95783375625183,
          "velocity": 0.7480314960629921,
          "duration": 0.21428549999998836
        },
        {
          "name": "C6",
          "midi": 84,
          "time": 201.95783375625183,
          "velocity": 0.7480314960629921,
          "duration": 0.21428549999998836
        },
        {
          "name": "C7",
          "midi": 96,
          "time": 201.95783375625183,
          "velocity": 0.7480314960629921,
          "duration": 0.21428549999998836
        },
        {
          "name": "C4",
          "midi": 60,
          "time": 202.17211925625182,
          "velocity": 0.7480314960629921,
          "duration": 0.21428549999998836
        },
        {
          "name": "C5",
          "midi": 72,
          "time": 202.17211925625182,
          "velocity": 0.7480314960629921,
          "duration": 0.21428549999998836
        },
        {
          "name": "C6",
          "midi": 84,
          "time": 202.17211925625182,
          "velocity": 0.7480314960629921,
          "duration": 0.21428549999998836
        },
        {
          "name": "C7",
          "midi": 96,
          "time": 202.17211925625182,
          "velocity": 0.7480314960629921,
          "duration": 0.21428549999998836
        },
        {
          "name": "C4",
          "midi": 60,
          "time": 202.3864047562518,
          "velocity": 0.7480314960629921,
          "duration": 0.21428549999998836
        },
        {
          "name": "C5",
          "midi": 72,
          "time": 202.3864047562518,
          "velocity": 0.7480314960629921,
          "duration": 0.21428549999998836
        },
        {
          "name": "C6",
          "midi": 84,
          "time": 202.3864047562518,
          "velocity": 0.7480314960629921,
          "duration": 0.21428549999998836
        },
        {
          "name": "C7",
          "midi": 96,
          "time": 202.3864047562518,
          "velocity": 0.7480314960629921,
          "duration": 0.21428549999998836
        },
        {
          "name": "D4",
          "midi": 62,
          "time": 202.6006902562518,
          "velocity": 0.7480314960629921,
          "duration": 0.21428549999998836
        },
        {
          "name": "D5",
          "midi": 74,
          "time": 202.6006902562518,
          "velocity": 0.7480314960629921,
          "duration": 0.21428549999998836
        },
        {
          "name": "D6",
          "midi": 86,
          "time": 202.6006902562518,
          "velocity": 0.7480314960629921,
          "duration": 0.21428549999998836
        },
        {
          "name": "D7",
          "midi": 98,
          "time": 202.6006902562518,
          "velocity": 0.7480314960629921,
          "duration": 0.21428549999998836
        },
        {
          "name": "C4",
          "midi": 60,
          "time": 202.81497575625178,
          "velocity": 0.7480314960629921,
          "duration": 0.21428549999998836
        },
        {
          "name": "C5",
          "midi": 72,
          "time": 202.81497575625178,
          "velocity": 0.7480314960629921,
          "duration": 0.21428549999998836
        },
        {
          "name": "C6",
          "midi": 84,
          "time": 202.81497575625178,
          "velocity": 0.7480314960629921,
          "duration": 0.21428549999998836
        },
        {
          "name": "C7",
          "midi": 96,
          "time": 202.81497575625178,
          "velocity": 0.7480314960629921,
          "duration": 0.21428549999998836
        },
        {
          "name": "D4",
          "midi": 62,
          "time": 203.02926125625177,
          "velocity": 0.7480314960629921,
          "duration": 0.21428549999998836
        },
        {
          "name": "D5",
          "midi": 74,
          "time": 203.02926125625177,
          "velocity": 0.7480314960629921,
          "duration": 0.21428549999998836
        },
        {
          "name": "D6",
          "midi": 86,
          "time": 203.02926125625177,
          "velocity": 0.7480314960629921,
          "duration": 0.21428549999998836
        },
        {
          "name": "D7",
          "midi": 98,
          "time": 203.02926125625177,
          "velocity": 0.7480314960629921,
          "duration": 0.21428549999998836
        },
        {
          "name": "C#4",
          "midi": 61,
          "time": 203.24354675625176,
          "velocity": 0.7480314960629921,
          "duration": 0.21428549999998836
        },
        {
          "name": "C#5",
          "midi": 73,
          "time": 203.24354675625176,
          "velocity": 0.7480314960629921,
          "duration": 0.21428549999998836
        },
        {
          "name": "C#6",
          "midi": 85,
          "time": 203.24354675625176,
          "velocity": 0.7480314960629921,
          "duration": 0.21428549999998836
        },
        {
          "name": "C#7",
          "midi": 97,
          "time": 203.24354675625176,
          "velocity": 0.7480314960629921,
          "duration": 0.21428549999998836
        },
        {
          "name": "C4",
          "midi": 60,
          "time": 203.45783225625175,
          "velocity": 0.7480314960629921,
          "duration": 0.21428549999998836
        },
        {
          "name": "C5",
          "midi": 72,
          "time": 203.45783225625175,
          "velocity": 0.7480314960629921,
          "duration": 0.21428549999998836
        },
        {
          "name": "C6",
          "midi": 84,
          "time": 203.45783225625175,
          "velocity": 0.7480314960629921,
          "duration": 0.21428549999998836
        },
        {
          "name": "C7",
          "midi": 96,
          "time": 203.45783225625175,
          "velocity": 0.7480314960629921,
          "duration": 0.21428549999998836
        },
        {
          "name": "C4",
          "midi": 60,
          "time": 203.67211775625174,
          "velocity": 0.7480314960629921,
          "duration": 0.21428549999998836
        },
        {
          "name": "C5",
          "midi": 72,
          "time": 203.67211775625174,
          "velocity": 0.7480314960629921,
          "duration": 0.21428549999998836
        },
        {
          "name": "C6",
          "midi": 84,
          "time": 203.67211775625174,
          "velocity": 0.7480314960629921,
          "duration": 0.21428549999998836
        },
        {
          "name": "C7",
          "midi": 96,
          "time": 203.67211775625174,
          "velocity": 0.7480314960629921,
          "duration": 0.21428549999998836
        },
        {
          "name": "C4",
          "midi": 60,
          "time": 203.88640325625173,
          "velocity": 0.7480314960629921,
          "duration": 0.21428549999998836
        },
        {
          "name": "C5",
          "midi": 72,
          "time": 203.88640325625173,
          "velocity": 0.7480314960629921,
          "duration": 0.21428549999998836
        },
        {
          "name": "C6",
          "midi": 84,
          "time": 203.88640325625173,
          "velocity": 0.7480314960629921,
          "duration": 0.21428549999998836
        },
        {
          "name": "C7",
          "midi": 96,
          "time": 203.88640325625173,
          "velocity": 0.7480314960629921,
          "duration": 0.21428549999998836
        },
        {
          "name": "D4",
          "midi": 62,
          "time": 204.3149742562517,
          "velocity": 0.7480314960629921,
          "duration": 0.21428549999998836
        },
        {
          "name": "D5",
          "midi": 74,
          "time": 204.3149742562517,
          "velocity": 0.7480314960629921,
          "duration": 0.21428549999998836
        },
        {
          "name": "D6",
          "midi": 86,
          "time": 204.3149742562517,
          "velocity": 0.7480314960629921,
          "duration": 0.21428549999998836
        },
        {
          "name": "D7",
          "midi": 98,
          "time": 204.3149742562517,
          "velocity": 0.7480314960629921,
          "duration": 0.21428549999998836
        },
        {
          "name": "C4",
          "midi": 60,
          "time": 204.5292597562517,
          "velocity": 0.7480314960629921,
          "duration": 0.21428549999998836
        },
        {
          "name": "C5",
          "midi": 72,
          "time": 204.5292597562517,
          "velocity": 0.7480314960629921,
          "duration": 0.21428549999998836
        },
        {
          "name": "C6",
          "midi": 84,
          "time": 204.5292597562517,
          "velocity": 0.7480314960629921,
          "duration": 0.21428549999998836
        },
        {
          "name": "C7",
          "midi": 96,
          "time": 204.5292597562517,
          "velocity": 0.7480314960629921,
          "duration": 0.21428549999998836
        },
        {
          "name": "D4",
          "midi": 62,
          "time": 204.74354525625168,
          "velocity": 0.7480314960629921,
          "duration": 0.21428549999998836
        },
        {
          "name": "D5",
          "midi": 74,
          "time": 204.74354525625168,
          "velocity": 0.7480314960629921,
          "duration": 0.21428549999998836
        },
        {
          "name": "D6",
          "midi": 86,
          "time": 204.74354525625168,
          "velocity": 0.7480314960629921,
          "duration": 0.21428549999998836
        },
        {
          "name": "D7",
          "midi": 98,
          "time": 204.74354525625168,
          "velocity": 0.7480314960629921,
          "duration": 0.21428549999998836
        },
        {
          "name": "E4",
          "midi": 64,
          "time": 204.95783075625167,
          "velocity": 0.7480314960629921,
          "duration": 0.21428549999998836
        },
        {
          "name": "E5",
          "midi": 76,
          "time": 204.95783075625167,
          "velocity": 0.7480314960629921,
          "duration": 0.21428549999998836
        },
        {
          "name": "E6",
          "midi": 88,
          "time": 204.95783075625167,
          "velocity": 0.7480314960629921,
          "duration": 0.21428549999998836
        },
        {
          "name": "E7",
          "midi": 100,
          "time": 204.95783075625167,
          "velocity": 0.7480314960629921,
          "duration": 0.21428549999998836
        },
        {
          "name": "D4",
          "midi": 62,
          "time": 205.17211625625166,
          "velocity": 0.7480314960629921,
          "duration": 0.21428549999998836
        },
        {
          "name": "D5",
          "midi": 74,
          "time": 205.17211625625166,
          "velocity": 0.7480314960629921,
          "duration": 0.21428549999998836
        },
        {
          "name": "D6",
          "midi": 86,
          "time": 205.17211625625166,
          "velocity": 0.7480314960629921,
          "duration": 0.21428549999998836
        },
        {
          "name": "D7",
          "midi": 98,
          "time": 205.17211625625166,
          "velocity": 0.7480314960629921,
          "duration": 0.21428549999998836
        },
        {
          "name": "C#4",
          "midi": 61,
          "time": 205.39265175000165,
          "velocity": 0.7480314960629921,
          "duration": 0.21428549999998836
        },
        {
          "name": "C#5",
          "midi": 73,
          "time": 205.39265175000165,
          "velocity": 0.7480314960629921,
          "duration": 0.21428549999998836
        },
        {
          "name": "C#6",
          "midi": 85,
          "time": 205.39265175000165,
          "velocity": 0.7480314960629921,
          "duration": 0.21428549999998836
        },
        {
          "name": "C#7",
          "midi": 97,
          "time": 205.39265175000165,
          "velocity": 0.7480314960629921,
          "duration": 0.21428549999998836
        },
        {
          "name": "D4",
          "midi": 62,
          "time": 205.60693725000164,
          "velocity": 0.7480314960629921,
          "duration": 0.21428549999998836
        },
        {
          "name": "D5",
          "midi": 74,
          "time": 205.60693725000164,
          "velocity": 0.7480314960629921,
          "duration": 0.21428549999998836
        },
        {
          "name": "D6",
          "midi": 86,
          "time": 205.60693725000164,
          "velocity": 0.7480314960629921,
          "duration": 0.21428549999998836
        },
        {
          "name": "D7",
          "midi": 98,
          "time": 205.60693725000164,
          "velocity": 0.7480314960629921,
          "duration": 0.21428549999998836
        },
        {
          "name": "C4",
          "midi": 60,
          "time": 205.82122275000162,
          "velocity": 0.7480314960629921,
          "duration": 0.21428550000001678
        },
        {
          "name": "C5",
          "midi": 72,
          "time": 205.82122275000162,
          "velocity": 0.7480314960629921,
          "duration": 0.21428550000001678
        },
        {
          "name": "C6",
          "midi": 84,
          "time": 205.82122275000162,
          "velocity": 0.7480314960629921,
          "duration": 0.21428550000001678
        },
        {
          "name": "C7",
          "midi": 96,
          "time": 205.82122275000162,
          "velocity": 0.7480314960629921,
          "duration": 0.21428550000001678
        },
        {
          "name": "D4",
          "midi": 62,
          "time": 206.02925825625164,
          "velocity": 0.7480314960629921,
          "duration": 0.21428550000001678
        },
        {
          "name": "E4",
          "midi": 64,
          "time": 206.02925825625164,
          "velocity": 0.7480314960629921,
          "duration": 0.21428550000001678
        },
        {
          "name": "D5",
          "midi": 74,
          "time": 206.02925825625164,
          "velocity": 0.7480314960629921,
          "duration": 0.21428550000001678
        },
        {
          "name": "E5",
          "midi": 76,
          "time": 206.02925825625164,
          "velocity": 0.7480314960629921,
          "duration": 0.21428550000001678
        },
        {
          "name": "D6",
          "midi": 86,
          "time": 206.02925825625164,
          "velocity": 0.7480314960629921,
          "duration": 0.21428550000001678
        },
        {
          "name": "E6",
          "midi": 88,
          "time": 206.02925825625164,
          "velocity": 0.7480314960629921,
          "duration": 0.21428550000001678
        },
        {
          "name": "D7",
          "midi": 98,
          "time": 206.02925825625164,
          "velocity": 0.7480314960629921,
          "duration": 0.21428550000001678
        },
        {
          "name": "E7",
          "midi": 100,
          "time": 206.02925825625164,
          "velocity": 0.7480314960629921,
          "duration": 0.21428550000001678
        },
        {
          "name": "C4",
          "midi": 60,
          "time": 206.24354375625165,
          "velocity": 0.7480314960629921,
          "duration": 0.21428549999998836
        },
        {
          "name": "C5",
          "midi": 72,
          "time": 206.24354375625165,
          "velocity": 0.7480314960629921,
          "duration": 0.21428549999998836
        },
        {
          "name": "C6",
          "midi": 84,
          "time": 206.24354375625165,
          "velocity": 0.7480314960629921,
          "duration": 0.21428549999998836
        },
        {
          "name": "C7",
          "midi": 96,
          "time": 206.24354375625165,
          "velocity": 0.7480314960629921,
          "duration": 0.21428549999998836
        },
        {
          "name": "D4",
          "midi": 62,
          "time": 206.45782925625164,
          "velocity": 0.7480314960629921,
          "duration": 0.21428549999998836
        },
        {
          "name": "D5",
          "midi": 74,
          "time": 206.45782925625164,
          "velocity": 0.7480314960629921,
          "duration": 0.21428549999998836
        },
        {
          "name": "D6",
          "midi": 86,
          "time": 206.45782925625164,
          "velocity": 0.7480314960629921,
          "duration": 0.21428549999998836
        },
        {
          "name": "D7",
          "midi": 98,
          "time": 206.45782925625164,
          "velocity": 0.7480314960629921,
          "duration": 0.21428549999998836
        },
        {
          "name": "C#4",
          "midi": 61,
          "time": 206.67211475625163,
          "velocity": 0.7480314960629921,
          "duration": 0.21428549999998836
        },
        {
          "name": "C#5",
          "midi": 73,
          "time": 206.67211475625163,
          "velocity": 0.7480314960629921,
          "duration": 0.21428549999998836
        },
        {
          "name": "C#6",
          "midi": 85,
          "time": 206.67211475625163,
          "velocity": 0.7480314960629921,
          "duration": 0.21428549999998836
        },
        {
          "name": "C#7",
          "midi": 97,
          "time": 206.67211475625163,
          "velocity": 0.7480314960629921,
          "duration": 0.21428549999998836
        },
        {
          "name": "C4",
          "midi": 60,
          "time": 206.89265025000162,
          "velocity": 0.7480314960629921,
          "duration": 0.21428549999998836
        },
        {
          "name": "C5",
          "midi": 72,
          "time": 206.89265025000162,
          "velocity": 0.7480314960629921,
          "duration": 0.21428549999998836
        },
        {
          "name": "C6",
          "midi": 84,
          "time": 206.89265025000162,
          "velocity": 0.7480314960629921,
          "duration": 0.21428549999998836
        },
        {
          "name": "C7",
          "midi": 96,
          "time": 206.89265025000162,
          "velocity": 0.7480314960629921,
          "duration": 0.21428549999998836
        },
        {
          "name": "C4",
          "midi": 60,
          "time": 207.1069357500016,
          "velocity": 0.7480314960629921,
          "duration": 0.21428549999998836
        },
        {
          "name": "C5",
          "midi": 72,
          "time": 207.1069357500016,
          "velocity": 0.7480314960629921,
          "duration": 0.21428549999998836
        },
        {
          "name": "C6",
          "midi": 84,
          "time": 207.1069357500016,
          "velocity": 0.7480314960629921,
          "duration": 0.21428549999998836
        },
        {
          "name": "C7",
          "midi": 96,
          "time": 207.1069357500016,
          "velocity": 0.7480314960629921,
          "duration": 0.21428549999998836
        },
        {
          "name": "C#4",
          "midi": 61,
          "time": 207.3212212500016,
          "velocity": 0.7480314960629921,
          "duration": 0.21428549999998836
        },
        {
          "name": "D4",
          "midi": 62,
          "time": 207.3212212500016,
          "velocity": 0.7480314960629921,
          "duration": 0.21428549999998836
        },
        {
          "name": "E4",
          "midi": 64,
          "time": 207.3212212500016,
          "velocity": 0.7480314960629921,
          "duration": 0.21428549999998836
        },
        {
          "name": "C#5",
          "midi": 73,
          "time": 207.3212212500016,
          "velocity": 0.7480314960629921,
          "duration": 0.21428549999998836
        },
        {
          "name": "D5",
          "midi": 74,
          "time": 207.3212212500016,
          "velocity": 0.7480314960629921,
          "duration": 0.21428549999998836
        },
        {
          "name": "E5",
          "midi": 76,
          "time": 207.3212212500016,
          "velocity": 0.7480314960629921,
          "duration": 0.21428549999998836
        },
        {
          "name": "C#6",
          "midi": 85,
          "time": 207.3212212500016,
          "velocity": 0.7480314960629921,
          "duration": 0.21428549999998836
        },
        {
          "name": "D6",
          "midi": 86,
          "time": 207.3212212500016,
          "velocity": 0.7480314960629921,
          "duration": 0.21428549999998836
        },
        {
          "name": "E6",
          "midi": 88,
          "time": 207.3212212500016,
          "velocity": 0.7480314960629921,
          "duration": 0.21428549999998836
        },
        {
          "name": "C#7",
          "midi": 97,
          "time": 207.3212212500016,
          "velocity": 0.7480314960629921,
          "duration": 0.21428549999998836
        },
        {
          "name": "D7",
          "midi": 98,
          "time": 207.3212212500016,
          "velocity": 0.7480314960629921,
          "duration": 0.21428549999998836
        },
        {
          "name": "E7",
          "midi": 100,
          "time": 207.3212212500016,
          "velocity": 0.7480314960629921,
          "duration": 0.21428549999998836
        },
        {
          "name": "D4",
          "midi": 62,
          "time": 207.7435422562516,
          "velocity": 0.7480314960629921,
          "duration": 0.21428549999998836
        },
        {
          "name": "E4",
          "midi": 64,
          "time": 207.7435422562516,
          "velocity": 0.7480314960629921,
          "duration": 0.21428549999998836
        },
        {
          "name": "D5",
          "midi": 74,
          "time": 207.7435422562516,
          "velocity": 0.7480314960629921,
          "duration": 0.21428549999998836
        },
        {
          "name": "E5",
          "midi": 76,
          "time": 207.7435422562516,
          "velocity": 0.7480314960629921,
          "duration": 0.21428549999998836
        },
        {
          "name": "D6",
          "midi": 86,
          "time": 207.7435422562516,
          "velocity": 0.7480314960629921,
          "duration": 0.21428549999998836
        },
        {
          "name": "E6",
          "midi": 88,
          "time": 207.7435422562516,
          "velocity": 0.7480314960629921,
          "duration": 0.21428549999998836
        },
        {
          "name": "D7",
          "midi": 98,
          "time": 207.7435422562516,
          "velocity": 0.7480314960629921,
          "duration": 0.21428549999998836
        },
        {
          "name": "E7",
          "midi": 100,
          "time": 207.7435422562516,
          "velocity": 0.7480314960629921,
          "duration": 0.21428549999998836
        },
        {
          "name": "C4",
          "midi": 60,
          "time": 207.9578277562516,
          "velocity": 0.7480314960629921,
          "duration": 0.21428549999998836
        },
        {
          "name": "C5",
          "midi": 72,
          "time": 207.9578277562516,
          "velocity": 0.7480314960629921,
          "duration": 0.21428549999998836
        },
        {
          "name": "C6",
          "midi": 84,
          "time": 207.9578277562516,
          "velocity": 0.7480314960629921,
          "duration": 0.21428549999998836
        },
        {
          "name": "C7",
          "midi": 96,
          "time": 207.9578277562516,
          "velocity": 0.7480314960629921,
          "duration": 0.21428549999998836
        },
        {
          "name": "D4",
          "midi": 62,
          "time": 208.17211325625158,
          "velocity": 0.7480314960629921,
          "duration": 0.21428549999998836
        },
        {
          "name": "D5",
          "midi": 74,
          "time": 208.17211325625158,
          "velocity": 0.7480314960629921,
          "duration": 0.21428549999998836
        },
        {
          "name": "D6",
          "midi": 86,
          "time": 208.17211325625158,
          "velocity": 0.7480314960629921,
          "duration": 0.21428549999998836
        },
        {
          "name": "D7",
          "midi": 98,
          "time": 208.17211325625158,
          "velocity": 0.7480314960629921,
          "duration": 0.21428549999998836
        },
        {
          "name": "C#4",
          "midi": 61,
          "time": 208.38639875625157,
          "velocity": 0.7480314960629921,
          "duration": 0.21428549999998836
        },
        {
          "name": "C#5",
          "midi": 73,
          "time": 208.38639875625157,
          "velocity": 0.7480314960629921,
          "duration": 0.21428549999998836
        },
        {
          "name": "C#6",
          "midi": 85,
          "time": 208.38639875625157,
          "velocity": 0.7480314960629921,
          "duration": 0.21428549999998836
        },
        {
          "name": "C#7",
          "midi": 97,
          "time": 208.38639875625157,
          "velocity": 0.7480314960629921,
          "duration": 0.21428549999998836
        },
        {
          "name": "C4",
          "midi": 60,
          "time": 208.60068425625155,
          "velocity": 0.7480314960629921,
          "duration": 0.21428549999998836
        },
        {
          "name": "C5",
          "midi": 72,
          "time": 208.60068425625155,
          "velocity": 0.7480314960629921,
          "duration": 0.21428549999998836
        },
        {
          "name": "C6",
          "midi": 84,
          "time": 208.60068425625155,
          "velocity": 0.7480314960629921,
          "duration": 0.21428549999998836
        },
        {
          "name": "C7",
          "midi": 96,
          "time": 208.60068425625155,
          "velocity": 0.7480314960629921,
          "duration": 0.21428549999998836
        },
        {
          "name": "C4",
          "midi": 60,
          "time": 208.81496975625154,
          "velocity": 0.7480314960629921,
          "duration": 0.21428549999998836
        },
        {
          "name": "C5",
          "midi": 72,
          "time": 208.81496975625154,
          "velocity": 0.7480314960629921,
          "duration": 0.21428549999998836
        },
        {
          "name": "C6",
          "midi": 84,
          "time": 208.81496975625154,
          "velocity": 0.7480314960629921,
          "duration": 0.21428549999998836
        },
        {
          "name": "C7",
          "midi": 96,
          "time": 208.81496975625154,
          "velocity": 0.7480314960629921,
          "duration": 0.21428549999998836
        },
        {
          "name": "C4",
          "midi": 60,
          "time": 209.02925525625153,
          "velocity": 0.7480314960629921,
          "duration": 0.21428549999998836
        },
        {
          "name": "C5",
          "midi": 72,
          "time": 209.02925525625153,
          "velocity": 0.7480314960629921,
          "duration": 0.21428549999998836
        },
        {
          "name": "C6",
          "midi": 84,
          "time": 209.02925525625153,
          "velocity": 0.7480314960629921,
          "duration": 0.21428549999998836
        },
        {
          "name": "C7",
          "midi": 96,
          "time": 209.02925525625153,
          "velocity": 0.7480314960629921,
          "duration": 0.21428549999998836
        },
        {
          "name": "C4",
          "midi": 60,
          "time": 209.24354075625152,
          "velocity": 0.7480314960629921,
          "duration": 0.21428549999998836
        },
        {
          "name": "C5",
          "midi": 72,
          "time": 209.24354075625152,
          "velocity": 0.7480314960629921,
          "duration": 0.21428549999998836
        },
        {
          "name": "C6",
          "midi": 84,
          "time": 209.24354075625152,
          "velocity": 0.7480314960629921,
          "duration": 0.21428549999998836
        },
        {
          "name": "C7",
          "midi": 96,
          "time": 209.24354075625152,
          "velocity": 0.7480314960629921,
          "duration": 0.21428549999998836
        },
        {
          "name": "D4",
          "midi": 62,
          "time": 209.4578262562515,
          "velocity": 0.7480314960629921,
          "duration": 0.21428549999998836
        },
        {
          "name": "E4",
          "midi": 64,
          "time": 209.4578262562515,
          "velocity": 0.7480314960629921,
          "duration": 0.21428549999998836
        },
        {
          "name": "D5",
          "midi": 74,
          "time": 209.4578262562515,
          "velocity": 0.7480314960629921,
          "duration": 0.21428549999998836
        },
        {
          "name": "E5",
          "midi": 76,
          "time": 209.4578262562515,
          "velocity": 0.7480314960629921,
          "duration": 0.21428549999998836
        },
        {
          "name": "D6",
          "midi": 86,
          "time": 209.4578262562515,
          "velocity": 0.7480314960629921,
          "duration": 0.21428549999998836
        },
        {
          "name": "E6",
          "midi": 88,
          "time": 209.4578262562515,
          "velocity": 0.7480314960629921,
          "duration": 0.21428549999998836
        },
        {
          "name": "D7",
          "midi": 98,
          "time": 209.4578262562515,
          "velocity": 0.7480314960629921,
          "duration": 0.21428549999998836
        },
        {
          "name": "E7",
          "midi": 100,
          "time": 209.4578262562515,
          "velocity": 0.7480314960629921,
          "duration": 0.21428549999998836
        },
        {
          "name": "C4",
          "midi": 60,
          "time": 209.6721117562515,
          "velocity": 0.7480314960629921,
          "duration": 0.21428549999998836
        },
        {
          "name": "C5",
          "midi": 72,
          "time": 209.6721117562515,
          "velocity": 0.7480314960629921,
          "duration": 0.21428549999998836
        },
        {
          "name": "C6",
          "midi": 84,
          "time": 209.6721117562515,
          "velocity": 0.7480314960629921,
          "duration": 0.21428549999998836
        },
        {
          "name": "C7",
          "midi": 96,
          "time": 209.6721117562515,
          "velocity": 0.7480314960629921,
          "duration": 0.21428549999998836
        },
        {
          "name": "D4",
          "midi": 62,
          "time": 209.88639725625148,
          "velocity": 0.7480314960629921,
          "duration": 0.21428549999998836
        },
        {
          "name": "D5",
          "midi": 74,
          "time": 209.88639725625148,
          "velocity": 0.7480314960629921,
          "duration": 0.21428549999998836
        },
        {
          "name": "D6",
          "midi": 86,
          "time": 209.88639725625148,
          "velocity": 0.7480314960629921,
          "duration": 0.21428549999998836
        },
        {
          "name": "D7",
          "midi": 98,
          "time": 209.88639725625148,
          "velocity": 0.7480314960629921,
          "duration": 0.21428549999998836
        },
        {
          "name": "C#4",
          "midi": 61,
          "time": 210.10068275625147,
          "velocity": 0.7480314960629921,
          "duration": 0.21428549999998836
        },
        {
          "name": "C#5",
          "midi": 73,
          "time": 210.10068275625147,
          "velocity": 0.7480314960629921,
          "duration": 0.21428549999998836
        },
        {
          "name": "C#6",
          "midi": 85,
          "time": 210.10068275625147,
          "velocity": 0.7480314960629921,
          "duration": 0.21428549999998836
        },
        {
          "name": "C#7",
          "midi": 97,
          "time": 210.10068275625147,
          "velocity": 0.7480314960629921,
          "duration": 0.21428549999998836
        },
        {
          "name": "C4",
          "midi": 60,
          "time": 210.32121825000146,
          "velocity": 0.7480314960629921,
          "duration": 0.21428549999998836
        },
        {
          "name": "C5",
          "midi": 72,
          "time": 210.32121825000146,
          "velocity": 0.7480314960629921,
          "duration": 0.21428549999998836
        },
        {
          "name": "C6",
          "midi": 84,
          "time": 210.32121825000146,
          "velocity": 0.7480314960629921,
          "duration": 0.21428549999998836
        },
        {
          "name": "C7",
          "midi": 96,
          "time": 210.32121825000146,
          "velocity": 0.7480314960629921,
          "duration": 0.21428549999998836
        },
        {
          "name": "C4",
          "midi": 60,
          "time": 210.53550375000145,
          "velocity": 0.7480314960629921,
          "duration": 0.21428549999998836
        },
        {
          "name": "C5",
          "midi": 72,
          "time": 210.53550375000145,
          "velocity": 0.7480314960629921,
          "duration": 0.21428549999998836
        },
        {
          "name": "C6",
          "midi": 84,
          "time": 210.53550375000145,
          "velocity": 0.7480314960629921,
          "duration": 0.21428549999998836
        },
        {
          "name": "C7",
          "midi": 96,
          "time": 210.53550375000145,
          "velocity": 0.7480314960629921,
          "duration": 0.21428549999998836
        },
        {
          "name": "C#4",
          "midi": 61,
          "time": 210.74978925000144,
          "velocity": 0.7480314960629921,
          "duration": 0.21428549999998836
        },
        {
          "name": "D4",
          "midi": 62,
          "time": 210.74978925000144,
          "velocity": 0.7480314960629921,
          "duration": 0.21428549999998836
        },
        {
          "name": "E4",
          "midi": 64,
          "time": 210.74978925000144,
          "velocity": 0.7480314960629921,
          "duration": 0.21428549999998836
        },
        {
          "name": "C#5",
          "midi": 73,
          "time": 210.74978925000144,
          "velocity": 0.7480314960629921,
          "duration": 0.21428549999998836
        },
        {
          "name": "D5",
          "midi": 74,
          "time": 210.74978925000144,
          "velocity": 0.7480314960629921,
          "duration": 0.21428549999998836
        },
        {
          "name": "E5",
          "midi": 76,
          "time": 210.74978925000144,
          "velocity": 0.7480314960629921,
          "duration": 0.21428549999998836
        },
        {
          "name": "C#6",
          "midi": 85,
          "time": 210.74978925000144,
          "velocity": 0.7480314960629921,
          "duration": 0.21428549999998836
        },
        {
          "name": "D6",
          "midi": 86,
          "time": 210.74978925000144,
          "velocity": 0.7480314960629921,
          "duration": 0.21428549999998836
        },
        {
          "name": "E6",
          "midi": 88,
          "time": 210.74978925000144,
          "velocity": 0.7480314960629921,
          "duration": 0.21428549999998836
        },
        {
          "name": "C#7",
          "midi": 97,
          "time": 210.74978925000144,
          "velocity": 0.7480314960629921,
          "duration": 0.21428549999998836
        },
        {
          "name": "D7",
          "midi": 98,
          "time": 210.74978925000144,
          "velocity": 0.7480314960629921,
          "duration": 0.21428549999998836
        },
        {
          "name": "E7",
          "midi": 100,
          "time": 210.74978925000144,
          "velocity": 0.7480314960629921,
          "duration": 0.21428549999998836
        },
        {
          "name": "D4",
          "midi": 62,
          "time": 211.17211025625144,
          "velocity": 0.7480314960629921,
          "duration": 0.21428549999998836
        },
        {
          "name": "E4",
          "midi": 64,
          "time": 211.17211025625144,
          "velocity": 0.7480314960629921,
          "duration": 0.21428549999998836
        },
        {
          "name": "D5",
          "midi": 74,
          "time": 211.17211025625144,
          "velocity": 0.7480314960629921,
          "duration": 0.21428549999998836
        },
        {
          "name": "E5",
          "midi": 76,
          "time": 211.17211025625144,
          "velocity": 0.7480314960629921,
          "duration": 0.21428549999998836
        },
        {
          "name": "D6",
          "midi": 86,
          "time": 211.17211025625144,
          "velocity": 0.7480314960629921,
          "duration": 0.21428549999998836
        },
        {
          "name": "E6",
          "midi": 88,
          "time": 211.17211025625144,
          "velocity": 0.7480314960629921,
          "duration": 0.21428549999998836
        },
        {
          "name": "D7",
          "midi": 98,
          "time": 211.17211025625144,
          "velocity": 0.7480314960629921,
          "duration": 0.21428549999998836
        },
        {
          "name": "E7",
          "midi": 100,
          "time": 211.17211025625144,
          "velocity": 0.7480314960629921,
          "duration": 0.21428549999998836
        },
        {
          "name": "C4",
          "midi": 60,
          "time": 211.38639575625143,
          "velocity": 0.7480314960629921,
          "duration": 0.21428549999998836
        },
        {
          "name": "C5",
          "midi": 72,
          "time": 211.38639575625143,
          "velocity": 0.7480314960629921,
          "duration": 0.21428549999998836
        },
        {
          "name": "C6",
          "midi": 84,
          "time": 211.38639575625143,
          "velocity": 0.7480314960629921,
          "duration": 0.21428549999998836
        },
        {
          "name": "C7",
          "midi": 96,
          "time": 211.38639575625143,
          "velocity": 0.7480314960629921,
          "duration": 0.21428549999998836
        },
        {
          "name": "D4",
          "midi": 62,
          "time": 211.60068125625142,
          "velocity": 0.7480314960629921,
          "duration": 0.21428549999998836
        },
        {
          "name": "D5",
          "midi": 74,
          "time": 211.60068125625142,
          "velocity": 0.7480314960629921,
          "duration": 0.21428549999998836
        },
        {
          "name": "D6",
          "midi": 86,
          "time": 211.60068125625142,
          "velocity": 0.7480314960629921,
          "duration": 0.21428549999998836
        },
        {
          "name": "D7",
          "midi": 98,
          "time": 211.60068125625142,
          "velocity": 0.7480314960629921,
          "duration": 0.21428549999998836
        },
        {
          "name": "D#4",
          "midi": 63,
          "time": 211.8149667562514,
          "velocity": 0.7480314960629921,
          "duration": 0.21428549999998836
        },
        {
          "name": "E4",
          "midi": 64,
          "time": 211.8149667562514,
          "velocity": 0.7480314960629921,
          "duration": 0.21428549999998836
        },
        {
          "name": "D#5",
          "midi": 75,
          "time": 211.8149667562514,
          "velocity": 0.7480314960629921,
          "duration": 0.21428549999998836
        },
        {
          "name": "E5",
          "midi": 76,
          "time": 211.8149667562514,
          "velocity": 0.7480314960629921,
          "duration": 0.21428549999998836
        },
        {
          "name": "D#6",
          "midi": 87,
          "time": 211.8149667562514,
          "velocity": 0.7480314960629921,
          "duration": 0.21428549999998836
        },
        {
          "name": "E6",
          "midi": 88,
          "time": 211.8149667562514,
          "velocity": 0.7480314960629921,
          "duration": 0.21428549999998836
        },
        {
          "name": "D#7",
          "midi": 99,
          "time": 211.8149667562514,
          "velocity": 0.7480314960629921,
          "duration": 0.21428549999998836
        },
        {
          "name": "E7",
          "midi": 100,
          "time": 211.8149667562514,
          "velocity": 0.7480314960629921,
          "duration": 0.21428549999998836
        },
        {
          "name": "D4",
          "midi": 62,
          "time": 212.0292522562514,
          "velocity": 0.7480314960629921,
          "duration": 0.21428549999998836
        },
        {
          "name": "E4",
          "midi": 64,
          "time": 212.0292522562514,
          "velocity": 0.7480314960629921,
          "duration": 0.21428549999998836
        },
        {
          "name": "D5",
          "midi": 74,
          "time": 212.0292522562514,
          "velocity": 0.7480314960629921,
          "duration": 0.21428549999998836
        },
        {
          "name": "E5",
          "midi": 76,
          "time": 212.0292522562514,
          "velocity": 0.7480314960629921,
          "duration": 0.21428549999998836
        },
        {
          "name": "D6",
          "midi": 86,
          "time": 212.0292522562514,
          "velocity": 0.7480314960629921,
          "duration": 0.21428549999998836
        },
        {
          "name": "E6",
          "midi": 88,
          "time": 212.0292522562514,
          "velocity": 0.7480314960629921,
          "duration": 0.21428549999998836
        },
        {
          "name": "D7",
          "midi": 98,
          "time": 212.0292522562514,
          "velocity": 0.7480314960629921,
          "duration": 0.21428549999998836
        },
        {
          "name": "E7",
          "midi": 100,
          "time": 212.0292522562514,
          "velocity": 0.7480314960629921,
          "duration": 0.21428549999998836
        },
        {
          "name": "C#4",
          "midi": 61,
          "time": 212.24353775625138,
          "velocity": 0.7480314960629921,
          "duration": 0.21428549999998836
        },
        {
          "name": "D#4",
          "midi": 63,
          "time": 212.24353775625138,
          "velocity": 0.7480314960629921,
          "duration": 0.21428549999998836
        },
        {
          "name": "C#5",
          "midi": 73,
          "time": 212.24353775625138,
          "velocity": 0.7480314960629921,
          "duration": 0.21428549999998836
        },
        {
          "name": "D#5",
          "midi": 75,
          "time": 212.24353775625138,
          "velocity": 0.7480314960629921,
          "duration": 0.21428549999998836
        },
        {
          "name": "C#6",
          "midi": 85,
          "time": 212.24353775625138,
          "velocity": 0.7480314960629921,
          "duration": 0.21428549999998836
        },
        {
          "name": "D#6",
          "midi": 87,
          "time": 212.24353775625138,
          "velocity": 0.7480314960629921,
          "duration": 0.21428549999998836
        },
        {
          "name": "C#7",
          "midi": 97,
          "time": 212.24353775625138,
          "velocity": 0.7480314960629921,
          "duration": 0.21428549999998836
        },
        {
          "name": "D#7",
          "midi": 99,
          "time": 212.24353775625138,
          "velocity": 0.7480314960629921,
          "duration": 0.21428549999998836
        },
        {
          "name": "D4",
          "midi": 62,
          "time": 212.45782325625137,
          "velocity": 0.7480314960629921,
          "duration": 0.21428549999998836
        },
        {
          "name": "E4",
          "midi": 64,
          "time": 212.45782325625137,
          "velocity": 0.7480314960629921,
          "duration": 0.21428549999998836
        },
        {
          "name": "D5",
          "midi": 74,
          "time": 212.45782325625137,
          "velocity": 0.7480314960629921,
          "duration": 0.21428549999998836
        },
        {
          "name": "E5",
          "midi": 76,
          "time": 212.45782325625137,
          "velocity": 0.7480314960629921,
          "duration": 0.21428549999998836
        },
        {
          "name": "D6",
          "midi": 86,
          "time": 212.45782325625137,
          "velocity": 0.7480314960629921,
          "duration": 0.21428549999998836
        },
        {
          "name": "E6",
          "midi": 88,
          "time": 212.45782325625137,
          "velocity": 0.7480314960629921,
          "duration": 0.21428549999998836
        },
        {
          "name": "D7",
          "midi": 98,
          "time": 212.45782325625137,
          "velocity": 0.7480314960629921,
          "duration": 0.21428549999998836
        },
        {
          "name": "E7",
          "midi": 100,
          "time": 212.45782325625137,
          "velocity": 0.7480314960629921,
          "duration": 0.21428549999998836
        },
        {
          "name": "C4",
          "midi": 60,
          "time": 212.67210875625136,
          "velocity": 0.7480314960629921,
          "duration": 0.21428549999998836
        },
        {
          "name": "C5",
          "midi": 72,
          "time": 212.67210875625136,
          "velocity": 0.7480314960629921,
          "duration": 0.21428549999998836
        },
        {
          "name": "C6",
          "midi": 84,
          "time": 212.67210875625136,
          "velocity": 0.7480314960629921,
          "duration": 0.21428549999998836
        },
        {
          "name": "C7",
          "midi": 96,
          "time": 212.67210875625136,
          "velocity": 0.7480314960629921,
          "duration": 0.21428549999998836
        },
        {
          "name": "D4",
          "midi": 62,
          "time": 212.88639425625135,
          "velocity": 0.7480314960629921,
          "duration": 0.21428549999998836
        },
        {
          "name": "E4",
          "midi": 64,
          "time": 212.88639425625135,
          "velocity": 0.7480314960629921,
          "duration": 0.21428549999998836
        },
        {
          "name": "D5",
          "midi": 74,
          "time": 212.88639425625135,
          "velocity": 0.7480314960629921,
          "duration": 0.21428549999998836
        },
        {
          "name": "E5",
          "midi": 76,
          "time": 212.88639425625135,
          "velocity": 0.7480314960629921,
          "duration": 0.21428549999998836
        },
        {
          "name": "D6",
          "midi": 86,
          "time": 212.88639425625135,
          "velocity": 0.7480314960629921,
          "duration": 0.21428549999998836
        },
        {
          "name": "E6",
          "midi": 88,
          "time": 212.88639425625135,
          "velocity": 0.7480314960629921,
          "duration": 0.21428549999998836
        },
        {
          "name": "D7",
          "midi": 98,
          "time": 212.88639425625135,
          "velocity": 0.7480314960629921,
          "duration": 0.21428549999998836
        },
        {
          "name": "E7",
          "midi": 100,
          "time": 212.88639425625135,
          "velocity": 0.7480314960629921,
          "duration": 0.21428549999998836
        },
        {
          "name": "C4",
          "midi": 60,
          "time": 213.10067975625134,
          "velocity": 0.7480314960629921,
          "duration": 0.21428549999998836
        },
        {
          "name": "C5",
          "midi": 72,
          "time": 213.10067975625134,
          "velocity": 0.7480314960629921,
          "duration": 0.21428549999998836
        },
        {
          "name": "C6",
          "midi": 84,
          "time": 213.10067975625134,
          "velocity": 0.7480314960629921,
          "duration": 0.21428549999998836
        },
        {
          "name": "C7",
          "midi": 96,
          "time": 213.10067975625134,
          "velocity": 0.7480314960629921,
          "duration": 0.21428549999998836
        },
        {
          "name": "D4",
          "midi": 62,
          "time": 213.31496525625133,
          "velocity": 0.7480314960629921,
          "duration": 0.21428549999998836
        },
        {
          "name": "D5",
          "midi": 74,
          "time": 213.31496525625133,
          "velocity": 0.7480314960629921,
          "duration": 0.21428549999998836
        },
        {
          "name": "D6",
          "midi": 86,
          "time": 213.31496525625133,
          "velocity": 0.7480314960629921,
          "duration": 0.21428549999998836
        },
        {
          "name": "D7",
          "midi": 98,
          "time": 213.31496525625133,
          "velocity": 0.7480314960629921,
          "duration": 0.21428549999998836
        },
        {
          "name": "C#4",
          "midi": 61,
          "time": 213.52925075625132,
          "velocity": 0.7480314960629921,
          "duration": 0.21428549999998836
        },
        {
          "name": "C#5",
          "midi": 73,
          "time": 213.52925075625132,
          "velocity": 0.7480314960629921,
          "duration": 0.21428549999998836
        },
        {
          "name": "C#6",
          "midi": 85,
          "time": 213.52925075625132,
          "velocity": 0.7480314960629921,
          "duration": 0.21428549999998836
        },
        {
          "name": "C#7",
          "midi": 97,
          "time": 213.52925075625132,
          "velocity": 0.7480314960629921,
          "duration": 0.21428549999998836
        },
        {
          "name": "C4",
          "midi": 60,
          "time": 213.7435362562513,
          "velocity": 0.7480314960629921,
          "duration": 0.21428549999998836
        },
        {
          "name": "C5",
          "midi": 72,
          "time": 213.7435362562513,
          "velocity": 0.7480314960629921,
          "duration": 0.21428549999998836
        },
        {
          "name": "C6",
          "midi": 84,
          "time": 213.7435362562513,
          "velocity": 0.7480314960629921,
          "duration": 0.21428549999998836
        },
        {
          "name": "C7",
          "midi": 96,
          "time": 213.7435362562513,
          "velocity": 0.7480314960629921,
          "duration": 0.21428549999998836
        },
        {
          "name": "C4",
          "midi": 60,
          "time": 213.9578217562513,
          "velocity": 0.7480314960629921,
          "duration": 0.21428549999998836
        },
        {
          "name": "C5",
          "midi": 72,
          "time": 213.9578217562513,
          "velocity": 0.7480314960629921,
          "duration": 0.21428549999998836
        },
        {
          "name": "C6",
          "midi": 84,
          "time": 213.9578217562513,
          "velocity": 0.7480314960629921,
          "duration": 0.21428549999998836
        },
        {
          "name": "C7",
          "midi": 96,
          "time": 213.9578217562513,
          "velocity": 0.7480314960629921,
          "duration": 0.21428549999998836
        },
        {
          "name": "C#4",
          "midi": 61,
          "time": 214.17210725625128,
          "velocity": 0.7480314960629921,
          "duration": 0.21428549999998836
        },
        {
          "name": "D4",
          "midi": 62,
          "time": 214.17210725625128,
          "velocity": 0.7480314960629921,
          "duration": 0.21428549999998836
        },
        {
          "name": "E4",
          "midi": 64,
          "time": 214.17210725625128,
          "velocity": 0.7480314960629921,
          "duration": 0.21428549999998836
        },
        {
          "name": "C#5",
          "midi": 73,
          "time": 214.17210725625128,
          "velocity": 0.7480314960629921,
          "duration": 0.21428549999998836
        },
        {
          "name": "D5",
          "midi": 74,
          "time": 214.17210725625128,
          "velocity": 0.7480314960629921,
          "duration": 0.21428549999998836
        },
        {
          "name": "E5",
          "midi": 76,
          "time": 214.17210725625128,
          "velocity": 0.7480314960629921,
          "duration": 0.21428549999998836
        },
        {
          "name": "C#6",
          "midi": 85,
          "time": 214.17210725625128,
          "velocity": 0.7480314960629921,
          "duration": 0.21428549999998836
        },
        {
          "name": "D6",
          "midi": 86,
          "time": 214.17210725625128,
          "velocity": 0.7480314960629921,
          "duration": 0.21428549999998836
        },
        {
          "name": "E6",
          "midi": 88,
          "time": 214.17210725625128,
          "velocity": 0.7480314960629921,
          "duration": 0.21428549999998836
        },
        {
          "name": "C#7",
          "midi": 97,
          "time": 214.17210725625128,
          "velocity": 0.7480314960629921,
          "duration": 0.21428549999998836
        },
        {
          "name": "D7",
          "midi": 98,
          "time": 214.17210725625128,
          "velocity": 0.7480314960629921,
          "duration": 0.21428549999998836
        },
        {
          "name": "E7",
          "midi": 100,
          "time": 214.17210725625128,
          "velocity": 0.7480314960629921,
          "duration": 0.21428549999998836
        },
        {
          "name": "D4",
          "midi": 62,
          "time": 214.60067825625126,
          "velocity": 0.7480314960629921,
          "duration": 0.21428549999998836
        },
        {
          "name": "E4",
          "midi": 64,
          "time": 214.60067825625126,
          "velocity": 0.7480314960629921,
          "duration": 0.21428549999998836
        },
        {
          "name": "D5",
          "midi": 74,
          "time": 214.60067825625126,
          "velocity": 0.7480314960629921,
          "duration": 0.21428549999998836
        },
        {
          "name": "E5",
          "midi": 76,
          "time": 214.60067825625126,
          "velocity": 0.7480314960629921,
          "duration": 0.21428549999998836
        },
        {
          "name": "D6",
          "midi": 86,
          "time": 214.60067825625126,
          "velocity": 0.7480314960629921,
          "duration": 0.21428549999998836
        },
        {
          "name": "E6",
          "midi": 88,
          "time": 214.60067825625126,
          "velocity": 0.7480314960629921,
          "duration": 0.21428549999998836
        },
        {
          "name": "D7",
          "midi": 98,
          "time": 214.60067825625126,
          "velocity": 0.7480314960629921,
          "duration": 0.21428549999998836
        },
        {
          "name": "E7",
          "midi": 100,
          "time": 214.60067825625126,
          "velocity": 0.7480314960629921,
          "duration": 0.21428549999998836
        },
        {
          "name": "C4",
          "midi": 60,
          "time": 214.81496375625125,
          "velocity": 0.7480314960629921,
          "duration": 0.21428549999998836
        },
        {
          "name": "C5",
          "midi": 72,
          "time": 214.81496375625125,
          "velocity": 0.7480314960629921,
          "duration": 0.21428549999998836
        },
        {
          "name": "C6",
          "midi": 84,
          "time": 214.81496375625125,
          "velocity": 0.7480314960629921,
          "duration": 0.21428549999998836
        },
        {
          "name": "C7",
          "midi": 96,
          "time": 214.81496375625125,
          "velocity": 0.7480314960629921,
          "duration": 0.21428549999998836
        },
        {
          "name": "D4",
          "midi": 62,
          "time": 215.02924925625123,
          "velocity": 0.7480314960629921,
          "duration": 0.21428549999998836
        },
        {
          "name": "D5",
          "midi": 74,
          "time": 215.02924925625123,
          "velocity": 0.7480314960629921,
          "duration": 0.21428549999998836
        },
        {
          "name": "D6",
          "midi": 86,
          "time": 215.02924925625123,
          "velocity": 0.7480314960629921,
          "duration": 0.21428549999998836
        },
        {
          "name": "D7",
          "midi": 98,
          "time": 215.02924925625123,
          "velocity": 0.7480314960629921,
          "duration": 0.21428549999998836
        },
        {
          "name": "C#4",
          "midi": 61,
          "time": 215.24353475625122,
          "velocity": 0.7480314960629921,
          "duration": 0.21428549999998836
        },
        {
          "name": "C#5",
          "midi": 73,
          "time": 215.24353475625122,
          "velocity": 0.7480314960629921,
          "duration": 0.21428549999998836
        },
        {
          "name": "C#6",
          "midi": 85,
          "time": 215.24353475625122,
          "velocity": 0.7480314960629921,
          "duration": 0.21428549999998836
        },
        {
          "name": "C#7",
          "midi": 97,
          "time": 215.24353475625122,
          "velocity": 0.7480314960629921,
          "duration": 0.21428549999998836
        },
        {
          "name": "C4",
          "midi": 60,
          "time": 215.4578202562512,
          "velocity": 0.7480314960629921,
          "duration": 0.21428549999998836
        },
        {
          "name": "C5",
          "midi": 72,
          "time": 215.4578202562512,
          "velocity": 0.7480314960629921,
          "duration": 0.21428549999998836
        },
        {
          "name": "C6",
          "midi": 84,
          "time": 215.4578202562512,
          "velocity": 0.7480314960629921,
          "duration": 0.21428549999998836
        },
        {
          "name": "C7",
          "midi": 96,
          "time": 215.4578202562512,
          "velocity": 0.7480314960629921,
          "duration": 0.21428549999998836
        },
        {
          "name": "C4",
          "midi": 60,
          "time": 215.6721057562512,
          "velocity": 0.7480314960629921,
          "duration": 0.21428549999998836
        },
        {
          "name": "C5",
          "midi": 72,
          "time": 215.6721057562512,
          "velocity": 0.7480314960629921,
          "duration": 0.21428549999998836
        },
        {
          "name": "C6",
          "midi": 84,
          "time": 215.6721057562512,
          "velocity": 0.7480314960629921,
          "duration": 0.21428549999998836
        },
        {
          "name": "C7",
          "midi": 96,
          "time": 215.6721057562512,
          "velocity": 0.7480314960629921,
          "duration": 0.21428549999998836
        },
        {
          "name": "C4",
          "midi": 60,
          "time": 215.8863912562512,
          "velocity": 0.7480314960629921,
          "duration": 0.21428549999998836
        },
        {
          "name": "C5",
          "midi": 72,
          "time": 215.8863912562512,
          "velocity": 0.7480314960629921,
          "duration": 0.21428549999998836
        },
        {
          "name": "C6",
          "midi": 84,
          "time": 215.8863912562512,
          "velocity": 0.7480314960629921,
          "duration": 0.21428549999998836
        },
        {
          "name": "C7",
          "midi": 96,
          "time": 215.8863912562512,
          "velocity": 0.7480314960629921,
          "duration": 0.21428549999998836
        },
        {
          "name": "C4",
          "midi": 60,
          "time": 216.10067675625118,
          "velocity": 0.7480314960629921,
          "duration": 0.21428549999998836
        },
        {
          "name": "C5",
          "midi": 72,
          "time": 216.10067675625118,
          "velocity": 0.7480314960629921,
          "duration": 0.21428549999998836
        },
        {
          "name": "C6",
          "midi": 84,
          "time": 216.10067675625118,
          "velocity": 0.7480314960629921,
          "duration": 0.21428549999998836
        },
        {
          "name": "C7",
          "midi": 96,
          "time": 216.10067675625118,
          "velocity": 0.7480314960629921,
          "duration": 0.21428549999998836
        },
        {
          "name": "D4",
          "midi": 62,
          "time": 216.31496225625116,
          "velocity": 0.7480314960629921,
          "duration": 0.21428549999998836
        },
        {
          "name": "E4",
          "midi": 64,
          "time": 216.31496225625116,
          "velocity": 0.7480314960629921,
          "duration": 0.21428549999998836
        },
        {
          "name": "D5",
          "midi": 74,
          "time": 216.31496225625116,
          "velocity": 0.7480314960629921,
          "duration": 0.21428549999998836
        },
        {
          "name": "E5",
          "midi": 76,
          "time": 216.31496225625116,
          "velocity": 0.7480314960629921,
          "duration": 0.21428549999998836
        },
        {
          "name": "D6",
          "midi": 86,
          "time": 216.31496225625116,
          "velocity": 0.7480314960629921,
          "duration": 0.21428549999998836
        },
        {
          "name": "E6",
          "midi": 88,
          "time": 216.31496225625116,
          "velocity": 0.7480314960629921,
          "duration": 0.21428549999998836
        },
        {
          "name": "D7",
          "midi": 98,
          "time": 216.31496225625116,
          "velocity": 0.7480314960629921,
          "duration": 0.21428549999998836
        },
        {
          "name": "E7",
          "midi": 100,
          "time": 216.31496225625116,
          "velocity": 0.7480314960629921,
          "duration": 0.21428549999998836
        },
        {
          "name": "C4",
          "midi": 60,
          "time": 216.52924775625115,
          "velocity": 0.7480314960629921,
          "duration": 0.21428549999998836
        },
        {
          "name": "C5",
          "midi": 72,
          "time": 216.52924775625115,
          "velocity": 0.7480314960629921,
          "duration": 0.21428549999998836
        },
        {
          "name": "C6",
          "midi": 84,
          "time": 216.52924775625115,
          "velocity": 0.7480314960629921,
          "duration": 0.21428549999998836
        },
        {
          "name": "C7",
          "midi": 96,
          "time": 216.52924775625115,
          "velocity": 0.7480314960629921,
          "duration": 0.21428549999998836
        },
        {
          "name": "D4",
          "midi": 62,
          "time": 216.74353325625114,
          "velocity": 0.7480314960629921,
          "duration": 0.21428549999998836
        },
        {
          "name": "D5",
          "midi": 74,
          "time": 216.74353325625114,
          "velocity": 0.7480314960629921,
          "duration": 0.21428549999998836
        },
        {
          "name": "D6",
          "midi": 86,
          "time": 216.74353325625114,
          "velocity": 0.7480314960629921,
          "duration": 0.21428549999998836
        },
        {
          "name": "D7",
          "midi": 98,
          "time": 216.74353325625114,
          "velocity": 0.7480314960629921,
          "duration": 0.21428549999998836
        },
        {
          "name": "C#4",
          "midi": 61,
          "time": 216.95781875625113,
          "velocity": 0.7480314960629921,
          "duration": 0.21428549999998836
        },
        {
          "name": "C#5",
          "midi": 73,
          "time": 216.95781875625113,
          "velocity": 0.7480314960629921,
          "duration": 0.21428549999998836
        },
        {
          "name": "C#6",
          "midi": 85,
          "time": 216.95781875625113,
          "velocity": 0.7480314960629921,
          "duration": 0.21428549999998836
        },
        {
          "name": "C#7",
          "midi": 97,
          "time": 216.95781875625113,
          "velocity": 0.7480314960629921,
          "duration": 0.21428549999998836
        },
        {
          "name": "C4",
          "midi": 60,
          "time": 217.17210425625112,
          "velocity": 0.7480314960629921,
          "duration": 0.21428549999998836
        },
        {
          "name": "C5",
          "midi": 72,
          "time": 217.17210425625112,
          "velocity": 0.7480314960629921,
          "duration": 0.21428549999998836
        },
        {
          "name": "C6",
          "midi": 84,
          "time": 217.17210425625112,
          "velocity": 0.7480314960629921,
          "duration": 0.21428549999998836
        },
        {
          "name": "C7",
          "midi": 96,
          "time": 217.17210425625112,
          "velocity": 0.7480314960629921,
          "duration": 0.21428549999998836
        },
        {
          "name": "C4",
          "midi": 60,
          "time": 217.3863897562511,
          "velocity": 0.7480314960629921,
          "duration": 0.21428549999998836
        },
        {
          "name": "C5",
          "midi": 72,
          "time": 217.3863897562511,
          "velocity": 0.7480314960629921,
          "duration": 0.21428549999998836
        },
        {
          "name": "C6",
          "midi": 84,
          "time": 217.3863897562511,
          "velocity": 0.7480314960629921,
          "duration": 0.21428549999998836
        },
        {
          "name": "C7",
          "midi": 96,
          "time": 217.3863897562511,
          "velocity": 0.7480314960629921,
          "duration": 0.21428549999998836
        },
        {
          "name": "C#4",
          "midi": 61,
          "time": 217.6006752562511,
          "velocity": 0.7480314960629921,
          "duration": 0.21428549999998836
        },
        {
          "name": "D4",
          "midi": 62,
          "time": 217.6006752562511,
          "velocity": 0.7480314960629921,
          "duration": 0.21428549999998836
        },
        {
          "name": "E4",
          "midi": 64,
          "time": 217.6006752562511,
          "velocity": 0.7480314960629921,
          "duration": 0.21428549999998836
        },
        {
          "name": "C#5",
          "midi": 73,
          "time": 217.6006752562511,
          "velocity": 0.7480314960629921,
          "duration": 0.21428549999998836
        },
        {
          "name": "D5",
          "midi": 74,
          "time": 217.6006752562511,
          "velocity": 0.7480314960629921,
          "duration": 0.21428549999998836
        },
        {
          "name": "E5",
          "midi": 76,
          "time": 217.6006752562511,
          "velocity": 0.7480314960629921,
          "duration": 0.21428549999998836
        },
        {
          "name": "C#6",
          "midi": 85,
          "time": 217.6006752562511,
          "velocity": 0.7480314960629921,
          "duration": 0.21428549999998836
        },
        {
          "name": "D6",
          "midi": 86,
          "time": 217.6006752562511,
          "velocity": 0.7480314960629921,
          "duration": 0.21428549999998836
        },
        {
          "name": "E6",
          "midi": 88,
          "time": 217.6006752562511,
          "velocity": 0.7480314960629921,
          "duration": 0.21428549999998836
        },
        {
          "name": "C#7",
          "midi": 97,
          "time": 217.6006752562511,
          "velocity": 0.7480314960629921,
          "duration": 0.21428549999998836
        },
        {
          "name": "D7",
          "midi": 98,
          "time": 217.6006752562511,
          "velocity": 0.7480314960629921,
          "duration": 0.21428549999998836
        },
        {
          "name": "E7",
          "midi": 100,
          "time": 217.6006752562511,
          "velocity": 0.7480314960629921,
          "duration": 0.21428549999998836
        },
        {
          "name": "D4",
          "midi": 62,
          "time": 218.02924625625107,
          "velocity": 0.7480314960629921,
          "duration": 0.21428549999998836
        },
        {
          "name": "E4",
          "midi": 64,
          "time": 218.02924625625107,
          "velocity": 0.7480314960629921,
          "duration": 0.21428549999998836
        },
        {
          "name": "D5",
          "midi": 74,
          "time": 218.02924625625107,
          "velocity": 0.7480314960629921,
          "duration": 0.21428549999998836
        },
        {
          "name": "E5",
          "midi": 76,
          "time": 218.02924625625107,
          "velocity": 0.7480314960629921,
          "duration": 0.21428549999998836
        },
        {
          "name": "D6",
          "midi": 86,
          "time": 218.02924625625107,
          "velocity": 0.7480314960629921,
          "duration": 0.21428549999998836
        },
        {
          "name": "E6",
          "midi": 88,
          "time": 218.02924625625107,
          "velocity": 0.7480314960629921,
          "duration": 0.21428549999998836
        },
        {
          "name": "D7",
          "midi": 98,
          "time": 218.02924625625107,
          "velocity": 0.7480314960629921,
          "duration": 0.21428549999998836
        },
        {
          "name": "E7",
          "midi": 100,
          "time": 218.02924625625107,
          "velocity": 0.7480314960629921,
          "duration": 0.21428549999998836
        },
        {
          "name": "C4",
          "midi": 60,
          "time": 218.24353175625106,
          "velocity": 0.7480314960629921,
          "duration": 0.21428549999998836
        },
        {
          "name": "C5",
          "midi": 72,
          "time": 218.24353175625106,
          "velocity": 0.7480314960629921,
          "duration": 0.21428549999998836
        },
        {
          "name": "C6",
          "midi": 84,
          "time": 218.24353175625106,
          "velocity": 0.7480314960629921,
          "duration": 0.21428549999998836
        },
        {
          "name": "C7",
          "midi": 96,
          "time": 218.24353175625106,
          "velocity": 0.7480314960629921,
          "duration": 0.21428549999998836
        },
        {
          "name": "D4",
          "midi": 62,
          "time": 218.45781725625105,
          "velocity": 0.7480314960629921,
          "duration": 0.21428549999998836
        },
        {
          "name": "D5",
          "midi": 74,
          "time": 218.45781725625105,
          "velocity": 0.7480314960629921,
          "duration": 0.21428549999998836
        },
        {
          "name": "D6",
          "midi": 86,
          "time": 218.45781725625105,
          "velocity": 0.7480314960629921,
          "duration": 0.21428549999998836
        },
        {
          "name": "D7",
          "midi": 98,
          "time": 218.45781725625105,
          "velocity": 0.7480314960629921,
          "duration": 0.21428549999998836
        },
        {
          "name": "D#4",
          "midi": 63,
          "time": 218.67210275625104,
          "velocity": 0.7480314960629921,
          "duration": 0.21428549999998836
        },
        {
          "name": "E4",
          "midi": 64,
          "time": 218.67210275625104,
          "velocity": 0.7480314960629921,
          "duration": 0.21428549999998836
        },
        {
          "name": "D#5",
          "midi": 75,
          "time": 218.67210275625104,
          "velocity": 0.7480314960629921,
          "duration": 0.21428549999998836
        },
        {
          "name": "E5",
          "midi": 76,
          "time": 218.67210275625104,
          "velocity": 0.7480314960629921,
          "duration": 0.21428549999998836
        },
        {
          "name": "D#6",
          "midi": 87,
          "time": 218.67210275625104,
          "velocity": 0.7480314960629921,
          "duration": 0.21428549999998836
        },
        {
          "name": "E6",
          "midi": 88,
          "time": 218.67210275625104,
          "velocity": 0.7480314960629921,
          "duration": 0.21428549999998836
        },
        {
          "name": "D#7",
          "midi": 99,
          "time": 218.67210275625104,
          "velocity": 0.7480314960629921,
          "duration": 0.21428549999998836
        },
        {
          "name": "E7",
          "midi": 100,
          "time": 218.67210275625104,
          "velocity": 0.7480314960629921,
          "duration": 0.21428549999998836
        },
        {
          "name": "D4",
          "midi": 62,
          "time": 218.88638825625102,
          "velocity": 0.7480314960629921,
          "duration": 0.21428549999998836
        },
        {
          "name": "E4",
          "midi": 64,
          "time": 218.88638825625102,
          "velocity": 0.7480314960629921,
          "duration": 0.21428549999998836
        },
        {
          "name": "D5",
          "midi": 74,
          "time": 218.88638825625102,
          "velocity": 0.7480314960629921,
          "duration": 0.21428549999998836
        },
        {
          "name": "E5",
          "midi": 76,
          "time": 218.88638825625102,
          "velocity": 0.7480314960629921,
          "duration": 0.21428549999998836
        },
        {
          "name": "D6",
          "midi": 86,
          "time": 218.88638825625102,
          "velocity": 0.7480314960629921,
          "duration": 0.21428549999998836
        },
        {
          "name": "E6",
          "midi": 88,
          "time": 218.88638825625102,
          "velocity": 0.7480314960629921,
          "duration": 0.21428549999998836
        },
        {
          "name": "D7",
          "midi": 98,
          "time": 218.88638825625102,
          "velocity": 0.7480314960629921,
          "duration": 0.21428549999998836
        },
        {
          "name": "E7",
          "midi": 100,
          "time": 218.88638825625102,
          "velocity": 0.7480314960629921,
          "duration": 0.21428549999998836
        },
        {
          "name": "C#4",
          "midi": 61,
          "time": 219.100673756251,
          "velocity": 0.7480314960629921,
          "duration": 0.11339274375001196
        },
        {
          "name": "D#4",
          "midi": 63,
          "time": 219.100673756251,
          "velocity": 0.7480314960629921,
          "duration": 0.11339274375001196
        },
        {
          "name": "C#5",
          "midi": 73,
          "time": 219.100673756251,
          "velocity": 0.7480314960629921,
          "duration": 0.11339274375001196
        },
        {
          "name": "D#5",
          "midi": 75,
          "time": 219.100673756251,
          "velocity": 0.7480314960629921,
          "duration": 0.11339274375001196
        },
        {
          "name": "C#6",
          "midi": 85,
          "time": 219.100673756251,
          "velocity": 0.7480314960629921,
          "duration": 0.11339274375001196
        },
        {
          "name": "D#6",
          "midi": 87,
          "time": 219.100673756251,
          "velocity": 0.7480314960629921,
          "duration": 0.11339274375001196
        },
        {
          "name": "C#7",
          "midi": 97,
          "time": 219.100673756251,
          "velocity": 0.7480314960629921,
          "duration": 0.11339274375001196
        },
        {
          "name": "D#7",
          "midi": 99,
          "time": 219.100673756251,
          "velocity": 0.7480314960629921,
          "duration": 0.11339274375001196
        },
        {
          "name": "C4",
          "midi": 60,
          "time": 219.32120925000103,
          "velocity": 0.7480314960629921,
          "duration": 0.21428549999998836
        },
        {
          "name": "C5",
          "midi": 72,
          "time": 219.32120925000103,
          "velocity": 0.7480314960629921,
          "duration": 0.21428549999998836
        },
        {
          "name": "C6",
          "midi": 84,
          "time": 219.32120925000103,
          "velocity": 0.7480314960629921,
          "duration": 0.21428549999998836
        },
        {
          "name": "C7",
          "midi": 96,
          "time": 219.32120925000103,
          "velocity": 0.7480314960629921,
          "duration": 0.21428549999998836
        },
        {
          "name": "C4",
          "midi": 60,
          "time": 219.53549475000102,
          "velocity": 0.7480314960629921,
          "duration": 0.42857100000000514
        },
        {
          "name": "C5",
          "midi": 72,
          "time": 219.53549475000102,
          "velocity": 0.7480314960629921,
          "duration": 0.42857100000000514
        },
        {
          "name": "C6",
          "midi": 84,
          "time": 219.53549475000102,
          "velocity": 0.7480314960629921,
          "duration": 0.42857100000000514
        },
        {
          "name": "C7",
          "midi": 96,
          "time": 219.53549475000102,
          "velocity": 0.7480314960629921,
          "duration": 0.42857100000000514
        },
        {
          "name": "C4",
          "midi": 60,
          "time": 219.96406575000103,
          "velocity": 0.7480314960629921,
          "duration": 0.21428549999998836
        },
        {
          "name": "C5",
          "midi": 72,
          "time": 219.96406575000103,
          "velocity": 0.7480314960629921,
          "duration": 0.21428549999998836
        },
        {
          "name": "C6",
          "midi": 84,
          "time": 219.96406575000103,
          "velocity": 0.7480314960629921,
          "duration": 0.21428549999998836
        },
        {
          "name": "C7",
          "midi": 96,
          "time": 219.96406575000103,
          "velocity": 0.7480314960629921,
          "duration": 0.21428549999998836
        },
        {
          "name": "C#4",
          "midi": 61,
          "time": 220.17835125000101,
          "velocity": 0.7480314960629921,
          "duration": 0.21428549999998836
        },
        {
          "name": "C#5",
          "midi": 73,
          "time": 220.17835125000101,
          "velocity": 0.7480314960629921,
          "duration": 0.21428549999998836
        },
        {
          "name": "C#6",
          "midi": 85,
          "time": 220.17835125000101,
          "velocity": 0.7480314960629921,
          "duration": 0.21428549999998836
        },
        {
          "name": "C#7",
          "midi": 97,
          "time": 220.17835125000101,
          "velocity": 0.7480314960629921,
          "duration": 0.21428549999998836
        },
        {
          "name": "C#4",
          "midi": 61,
          "time": 220.392636750001,
          "velocity": 0.7480314960629921,
          "duration": 0.42857100000000514
        },
        {
          "name": "C#5",
          "midi": 73,
          "time": 220.392636750001,
          "velocity": 0.7480314960629921,
          "duration": 0.42857100000000514
        },
        {
          "name": "C#6",
          "midi": 85,
          "time": 220.392636750001,
          "velocity": 0.7480314960629921,
          "duration": 0.42857100000000514
        },
        {
          "name": "C#7",
          "midi": 97,
          "time": 220.392636750001,
          "velocity": 0.7480314960629921,
          "duration": 0.42857100000000514
        },
        {
          "name": "C#4",
          "midi": 61,
          "time": 220.821207750001,
          "velocity": 0.7480314960629921,
          "duration": 0.21428549999998836
        },
        {
          "name": "C#5",
          "midi": 73,
          "time": 220.821207750001,
          "velocity": 0.7480314960629921,
          "duration": 0.21428549999998836
        },
        {
          "name": "C#6",
          "midi": 85,
          "time": 220.821207750001,
          "velocity": 0.7480314960629921,
          "duration": 0.21428549999998836
        },
        {
          "name": "C#7",
          "midi": 97,
          "time": 220.821207750001,
          "velocity": 0.7480314960629921,
          "duration": 0.21428549999998836
        },
        {
          "name": "D4",
          "midi": 62,
          "time": 221.035493250001,
          "velocity": 0.7480314960629921,
          "duration": 0.21428549999998836
        },
        {
          "name": "D5",
          "midi": 74,
          "time": 221.035493250001,
          "velocity": 0.7480314960629921,
          "duration": 0.21428549999998836
        },
        {
          "name": "D6",
          "midi": 86,
          "time": 221.035493250001,
          "velocity": 0.7480314960629921,
          "duration": 0.21428549999998836
        },
        {
          "name": "D7",
          "midi": 98,
          "time": 221.035493250001,
          "velocity": 0.7480314960629921,
          "duration": 0.21428549999998836
        },
        {
          "name": "D4",
          "midi": 62,
          "time": 221.24977875000098,
          "velocity": 0.7480314960629921,
          "duration": 0.42857100000000514
        },
        {
          "name": "D5",
          "midi": 74,
          "time": 221.24977875000098,
          "velocity": 0.7480314960629921,
          "duration": 0.42857100000000514
        },
        {
          "name": "D6",
          "midi": 86,
          "time": 221.24977875000098,
          "velocity": 0.7480314960629921,
          "duration": 0.42857100000000514
        },
        {
          "name": "D7",
          "midi": 98,
          "time": 221.24977875000098,
          "velocity": 0.7480314960629921,
          "duration": 0.42857100000000514
        },
        {
          "name": "D4",
          "midi": 62,
          "time": 221.678349750001,
          "velocity": 0.7480314960629921,
          "duration": 0.21428549999998836
        },
        {
          "name": "D5",
          "midi": 74,
          "time": 221.678349750001,
          "velocity": 0.7480314960629921,
          "duration": 0.21428549999998836
        },
        {
          "name": "D6",
          "midi": 86,
          "time": 221.678349750001,
          "velocity": 0.7480314960629921,
          "duration": 0.21428549999998836
        },
        {
          "name": "D7",
          "midi": 98,
          "time": 221.678349750001,
          "velocity": 0.7480314960629921,
          "duration": 0.21428549999998836
        },
        {
          "name": "D#4",
          "midi": 63,
          "time": 221.89263525000098,
          "velocity": 0.7480314960629921,
          "duration": 0.21428549999998836
        },
        {
          "name": "D#5",
          "midi": 75,
          "time": 221.89263525000098,
          "velocity": 0.7480314960629921,
          "duration": 0.21428549999998836
        },
        {
          "name": "D#6",
          "midi": 87,
          "time": 221.89263525000098,
          "velocity": 0.7480314960629921,
          "duration": 0.21428549999998836
        },
        {
          "name": "D#7",
          "midi": 99,
          "time": 221.89263525000098,
          "velocity": 0.7480314960629921,
          "duration": 0.21428549999998836
        },
        {
          "name": "D#4",
          "midi": 63,
          "time": 222.10692075000097,
          "velocity": 0.7480314960629921,
          "duration": 0.42857100000000514
        },
        {
          "name": "D#5",
          "midi": 75,
          "time": 222.10692075000097,
          "velocity": 0.7480314960629921,
          "duration": 0.42857100000000514
        },
        {
          "name": "D#6",
          "midi": 87,
          "time": 222.10692075000097,
          "velocity": 0.7480314960629921,
          "duration": 0.42857100000000514
        },
        {
          "name": "D#7",
          "midi": 99,
          "time": 222.10692075000097,
          "velocity": 0.7480314960629921,
          "duration": 0.42857100000000514
        },
        {
          "name": "D#4",
          "midi": 63,
          "time": 222.53549175000097,
          "velocity": 0.7480314960629921,
          "duration": 0.21428549999998836
        },
        {
          "name": "D#5",
          "midi": 75,
          "time": 222.53549175000097,
          "velocity": 0.7480314960629921,
          "duration": 0.21428549999998836
        },
        {
          "name": "D#6",
          "midi": 87,
          "time": 222.53549175000097,
          "velocity": 0.7480314960629921,
          "duration": 0.21428549999998836
        },
        {
          "name": "D#7",
          "midi": 99,
          "time": 222.53549175000097,
          "velocity": 0.7480314960629921,
          "duration": 0.21428549999998836
        },
        {
          "name": "C4",
          "midi": 60,
          "time": 222.74977725000096,
          "velocity": 0.7480314960629921,
          "duration": 0.21428549999998836
        },
        {
          "name": "C5",
          "midi": 72,
          "time": 222.74977725000096,
          "velocity": 0.7480314960629921,
          "duration": 0.21428549999998836
        },
        {
          "name": "C6",
          "midi": 84,
          "time": 222.74977725000096,
          "velocity": 0.7480314960629921,
          "duration": 0.21428549999998836
        },
        {
          "name": "C7",
          "midi": 96,
          "time": 222.74977725000096,
          "velocity": 0.7480314960629921,
          "duration": 0.21428549999998836
        },
        {
          "name": "C4",
          "midi": 60,
          "time": 222.96406275000095,
          "velocity": 0.7480314960629921,
          "duration": 0.42857100000000514
        },
        {
          "name": "C5",
          "midi": 72,
          "time": 222.96406275000095,
          "velocity": 0.7480314960629921,
          "duration": 0.42857100000000514
        },
        {
          "name": "C6",
          "midi": 84,
          "time": 222.96406275000095,
          "velocity": 0.7480314960629921,
          "duration": 0.42857100000000514
        },
        {
          "name": "C7",
          "midi": 96,
          "time": 222.96406275000095,
          "velocity": 0.7480314960629921,
          "duration": 0.42857100000000514
        },
        {
          "name": "C4",
          "midi": 60,
          "time": 223.39263375000095,
          "velocity": 0.7480314960629921,
          "duration": 0.21428549999998836
        },
        {
          "name": "C5",
          "midi": 72,
          "time": 223.39263375000095,
          "velocity": 0.7480314960629921,
          "duration": 0.21428549999998836
        },
        {
          "name": "C6",
          "midi": 84,
          "time": 223.39263375000095,
          "velocity": 0.7480314960629921,
          "duration": 0.21428549999998836
        },
        {
          "name": "C7",
          "midi": 96,
          "time": 223.39263375000095,
          "velocity": 0.7480314960629921,
          "duration": 0.21428549999998836
        },
        {
          "name": "C#4",
          "midi": 61,
          "time": 223.60691925000094,
          "velocity": 0.7480314960629921,
          "duration": 0.21428549999998836
        },
        {
          "name": "C#5",
          "midi": 73,
          "time": 223.60691925000094,
          "velocity": 0.7480314960629921,
          "duration": 0.21428549999998836
        },
        {
          "name": "C#6",
          "midi": 85,
          "time": 223.60691925000094,
          "velocity": 0.7480314960629921,
          "duration": 0.21428549999998836
        },
        {
          "name": "C#7",
          "midi": 97,
          "time": 223.60691925000094,
          "velocity": 0.7480314960629921,
          "duration": 0.21428549999998836
        },
        {
          "name": "C#4",
          "midi": 61,
          "time": 223.82120475000093,
          "velocity": 0.7480314960629921,
          "duration": 0.42857100000000514
        },
        {
          "name": "C#5",
          "midi": 73,
          "time": 223.82120475000093,
          "velocity": 0.7480314960629921,
          "duration": 0.42857100000000514
        },
        {
          "name": "C#6",
          "midi": 85,
          "time": 223.82120475000093,
          "velocity": 0.7480314960629921,
          "duration": 0.42857100000000514
        },
        {
          "name": "C#7",
          "midi": 97,
          "time": 223.82120475000093,
          "velocity": 0.7480314960629921,
          "duration": 0.42857100000000514
        },
        {
          "name": "C#4",
          "midi": 61,
          "time": 224.24977575000094,
          "velocity": 0.7480314960629921,
          "duration": 0.21428549999998836
        },
        {
          "name": "C#5",
          "midi": 73,
          "time": 224.24977575000094,
          "velocity": 0.7480314960629921,
          "duration": 0.21428549999998836
        },
        {
          "name": "C#6",
          "midi": 85,
          "time": 224.24977575000094,
          "velocity": 0.7480314960629921,
          "duration": 0.21428549999998836
        },
        {
          "name": "C#7",
          "midi": 97,
          "time": 224.24977575000094,
          "velocity": 0.7480314960629921,
          "duration": 0.21428549999998836
        },
        {
          "name": "D4",
          "midi": 62,
          "time": 224.46406125000092,
          "velocity": 0.7480314960629921,
          "duration": 0.21428549999998836
        },
        {
          "name": "D5",
          "midi": 74,
          "time": 224.46406125000092,
          "velocity": 0.7480314960629921,
          "duration": 0.21428549999998836
        },
        {
          "name": "D6",
          "midi": 86,
          "time": 224.46406125000092,
          "velocity": 0.7480314960629921,
          "duration": 0.21428549999998836
        },
        {
          "name": "D7",
          "midi": 98,
          "time": 224.46406125000092,
          "velocity": 0.7480314960629921,
          "duration": 0.21428549999998836
        },
        {
          "name": "D4",
          "midi": 62,
          "time": 224.6783467500009,
          "velocity": 0.7480314960629921,
          "duration": 0.42857100000000514
        },
        {
          "name": "D5",
          "midi": 74,
          "time": 224.6783467500009,
          "velocity": 0.7480314960629921,
          "duration": 0.42857100000000514
        },
        {
          "name": "D6",
          "midi": 86,
          "time": 224.6783467500009,
          "velocity": 0.7480314960629921,
          "duration": 0.42857100000000514
        },
        {
          "name": "D7",
          "midi": 98,
          "time": 224.6783467500009,
          "velocity": 0.7480314960629921,
          "duration": 0.42857100000000514
        },
        {
          "name": "D4",
          "midi": 62,
          "time": 225.10691775000092,
          "velocity": 0.7480314960629921,
          "duration": 0.21428549999998836
        },
        {
          "name": "D5",
          "midi": 74,
          "time": 225.10691775000092,
          "velocity": 0.7480314960629921,
          "duration": 0.21428549999998836
        },
        {
          "name": "D6",
          "midi": 86,
          "time": 225.10691775000092,
          "velocity": 0.7480314960629921,
          "duration": 0.21428549999998836
        },
        {
          "name": "D7",
          "midi": 98,
          "time": 225.10691775000092,
          "velocity": 0.7480314960629921,
          "duration": 0.21428549999998836
        },
        {
          "name": "E4",
          "midi": 64,
          "time": 225.3212032500009,
          "velocity": 0.7480314960629921,
          "duration": 0.21428549999998836
        },
        {
          "name": "E5",
          "midi": 76,
          "time": 225.3212032500009,
          "velocity": 0.7480314960629921,
          "duration": 0.21428549999998836
        },
        {
          "name": "E6",
          "midi": 88,
          "time": 225.3212032500009,
          "velocity": 0.7480314960629921,
          "duration": 0.21428549999998836
        },
        {
          "name": "E7",
          "midi": 100,
          "time": 225.3212032500009,
          "velocity": 0.7480314960629921,
          "duration": 0.21428549999998836
        },
        {
          "name": "E4",
          "midi": 64,
          "time": 225.5354887500009,
          "velocity": 0.7480314960629921,
          "duration": 0.42857100000000514
        },
        {
          "name": "E5",
          "midi": 76,
          "time": 225.5354887500009,
          "velocity": 0.7480314960629921,
          "duration": 0.42857100000000514
        },
        {
          "name": "E6",
          "midi": 88,
          "time": 225.5354887500009,
          "velocity": 0.7480314960629921,
          "duration": 0.42857100000000514
        },
        {
          "name": "E7",
          "midi": 100,
          "time": 225.5354887500009,
          "velocity": 0.7480314960629921,
          "duration": 0.42857100000000514
        },
        {
          "name": "E4",
          "midi": 64,
          "time": 225.9640597500009,
          "velocity": 0.7480314960629921,
          "duration": 0.21428549999998836
        },
        {
          "name": "E5",
          "midi": 76,
          "time": 225.9640597500009,
          "velocity": 0.7480314960629921,
          "duration": 0.21428549999998836
        },
        {
          "name": "E6",
          "midi": 88,
          "time": 225.9640597500009,
          "velocity": 0.7480314960629921,
          "duration": 0.21428549999998836
        },
        {
          "name": "E7",
          "midi": 100,
          "time": 225.9640597500009,
          "velocity": 0.7480314960629921,
          "duration": 0.21428549999998836
        },
        {
          "name": "C4",
          "midi": 60,
          "time": 226.1783452500009,
          "velocity": 0.7480314960629921,
          "duration": 0.21428549999998836
        },
        {
          "name": "C5",
          "midi": 72,
          "time": 226.1783452500009,
          "velocity": 0.7480314960629921,
          "duration": 0.21428549999998836
        },
        {
          "name": "C6",
          "midi": 84,
          "time": 226.1783452500009,
          "velocity": 0.7480314960629921,
          "duration": 0.21428549999998836
        },
        {
          "name": "C7",
          "midi": 96,
          "time": 226.1783452500009,
          "velocity": 0.7480314960629921,
          "duration": 0.21428549999998836
        },
        {
          "name": "C4",
          "midi": 60,
          "time": 226.39263075000088,
          "velocity": 0.7480314960629921,
          "duration": 0.42857100000000514
        },
        {
          "name": "C5",
          "midi": 72,
          "time": 226.39263075000088,
          "velocity": 0.7480314960629921,
          "duration": 0.42857100000000514
        },
        {
          "name": "C6",
          "midi": 84,
          "time": 226.39263075000088,
          "velocity": 0.7480314960629921,
          "duration": 0.42857100000000514
        },
        {
          "name": "C7",
          "midi": 96,
          "time": 226.39263075000088,
          "velocity": 0.7480314960629921,
          "duration": 0.42857100000000514
        },
        {
          "name": "C4",
          "midi": 60,
          "time": 226.82120175000088,
          "velocity": 0.7480314960629921,
          "duration": 0.21428549999998836
        },
        {
          "name": "C5",
          "midi": 72,
          "time": 226.82120175000088,
          "velocity": 0.7480314960629921,
          "duration": 0.21428549999998836
        },
        {
          "name": "C6",
          "midi": 84,
          "time": 226.82120175000088,
          "velocity": 0.7480314960629921,
          "duration": 0.21428549999998836
        },
        {
          "name": "C7",
          "midi": 96,
          "time": 226.82120175000088,
          "velocity": 0.7480314960629921,
          "duration": 0.21428549999998836
        },
        {
          "name": "C#4",
          "midi": 61,
          "time": 227.03548725000087,
          "velocity": 0.7480314960629921,
          "duration": 0.21428549999998836
        },
        {
          "name": "C#5",
          "midi": 73,
          "time": 227.03548725000087,
          "velocity": 0.7480314960629921,
          "duration": 0.21428549999998836
        },
        {
          "name": "C#6",
          "midi": 85,
          "time": 227.03548725000087,
          "velocity": 0.7480314960629921,
          "duration": 0.21428549999998836
        },
        {
          "name": "C#7",
          "midi": 97,
          "time": 227.03548725000087,
          "velocity": 0.7480314960629921,
          "duration": 0.21428549999998836
        },
        {
          "name": "C#4",
          "midi": 61,
          "time": 227.24977275000086,
          "velocity": 0.7480314960629921,
          "duration": 0.42857100000000514
        },
        {
          "name": "C#5",
          "midi": 73,
          "time": 227.24977275000086,
          "velocity": 0.7480314960629921,
          "duration": 0.42857100000000514
        },
        {
          "name": "C#6",
          "midi": 85,
          "time": 227.24977275000086,
          "velocity": 0.7480314960629921,
          "duration": 0.42857100000000514
        },
        {
          "name": "C#7",
          "midi": 97,
          "time": 227.24977275000086,
          "velocity": 0.7480314960629921,
          "duration": 0.42857100000000514
        },
        {
          "name": "C#4",
          "midi": 61,
          "time": 227.67834375000086,
          "velocity": 0.7480314960629921,
          "duration": 0.21428549999998836
        },
        {
          "name": "C#5",
          "midi": 73,
          "time": 227.67834375000086,
          "velocity": 0.7480314960629921,
          "duration": 0.21428549999998836
        },
        {
          "name": "C#6",
          "midi": 85,
          "time": 227.67834375000086,
          "velocity": 0.7480314960629921,
          "duration": 0.21428549999998836
        },
        {
          "name": "C#7",
          "midi": 97,
          "time": 227.67834375000086,
          "velocity": 0.7480314960629921,
          "duration": 0.21428549999998836
        },
        {
          "name": "D4",
          "midi": 62,
          "time": 227.89262925000085,
          "velocity": 0.7480314960629921,
          "duration": 0.21428549999998836
        },
        {
          "name": "D5",
          "midi": 74,
          "time": 227.89262925000085,
          "velocity": 0.7480314960629921,
          "duration": 0.21428549999998836
        },
        {
          "name": "D6",
          "midi": 86,
          "time": 227.89262925000085,
          "velocity": 0.7480314960629921,
          "duration": 0.21428549999998836
        },
        {
          "name": "D7",
          "midi": 98,
          "time": 227.89262925000085,
          "velocity": 0.7480314960629921,
          "duration": 0.21428549999998836
        },
        {
          "name": "D4",
          "midi": 62,
          "time": 228.10691475000084,
          "velocity": 0.7480314960629921,
          "duration": 0.42857100000000514
        },
        {
          "name": "D5",
          "midi": 74,
          "time": 228.10691475000084,
          "velocity": 0.7480314960629921,
          "duration": 0.42857100000000514
        },
        {
          "name": "D6",
          "midi": 86,
          "time": 228.10691475000084,
          "velocity": 0.7480314960629921,
          "duration": 0.42857100000000514
        },
        {
          "name": "D7",
          "midi": 98,
          "time": 228.10691475000084,
          "velocity": 0.7480314960629921,
          "duration": 0.42857100000000514
        },
        {
          "name": "D4",
          "midi": 62,
          "time": 228.53548575000084,
          "velocity": 0.7480314960629921,
          "duration": 0.21428549999998836
        },
        {
          "name": "D5",
          "midi": 74,
          "time": 228.53548575000084,
          "velocity": 0.7480314960629921,
          "duration": 0.21428549999998836
        },
        {
          "name": "D6",
          "midi": 86,
          "time": 228.53548575000084,
          "velocity": 0.7480314960629921,
          "duration": 0.21428549999998836
        },
        {
          "name": "D7",
          "midi": 98,
          "time": 228.53548575000084,
          "velocity": 0.7480314960629921,
          "duration": 0.21428549999998836
        },
        {
          "name": "D#4",
          "midi": 63,
          "time": 228.74977125000083,
          "velocity": 0.7480314960629921,
          "duration": 0.21428549999998836
        },
        {
          "name": "D#5",
          "midi": 75,
          "time": 228.74977125000083,
          "velocity": 0.7480314960629921,
          "duration": 0.21428549999998836
        },
        {
          "name": "D#6",
          "midi": 87,
          "time": 228.74977125000083,
          "velocity": 0.7480314960629921,
          "duration": 0.21428549999998836
        },
        {
          "name": "D#7",
          "midi": 99,
          "time": 228.74977125000083,
          "velocity": 0.7480314960629921,
          "duration": 0.21428549999998836
        },
        {
          "name": "D#4",
          "midi": 63,
          "time": 228.96405675000082,
          "velocity": 0.7480314960629921,
          "duration": 0.42857100000000514
        },
        {
          "name": "D#5",
          "midi": 75,
          "time": 228.96405675000082,
          "velocity": 0.7480314960629921,
          "duration": 0.42857100000000514
        },
        {
          "name": "D#6",
          "midi": 87,
          "time": 228.96405675000082,
          "velocity": 0.7480314960629921,
          "duration": 0.42857100000000514
        },
        {
          "name": "D#7",
          "midi": 99,
          "time": 228.96405675000082,
          "velocity": 0.7480314960629921,
          "duration": 0.42857100000000514
        },
        {
          "name": "D#4",
          "midi": 63,
          "time": 229.39262775000083,
          "velocity": 0.7480314960629921,
          "duration": 0.21428549999998836
        },
        {
          "name": "D#5",
          "midi": 75,
          "time": 229.39262775000083,
          "velocity": 0.7480314960629921,
          "duration": 0.21428549999998836
        },
        {
          "name": "D#6",
          "midi": 87,
          "time": 229.39262775000083,
          "velocity": 0.7480314960629921,
          "duration": 0.21428549999998836
        },
        {
          "name": "D#7",
          "midi": 99,
          "time": 229.39262775000083,
          "velocity": 0.7480314960629921,
          "duration": 0.21428549999998836
        },
        {
          "name": "C4",
          "midi": 60,
          "time": 229.60691325000082,
          "velocity": 0.7480314960629921,
          "duration": 0.21428549999998836
        },
        {
          "name": "C5",
          "midi": 72,
          "time": 229.60691325000082,
          "velocity": 0.7480314960629921,
          "duration": 0.21428549999998836
        },
        {
          "name": "C6",
          "midi": 84,
          "time": 229.60691325000082,
          "velocity": 0.7480314960629921,
          "duration": 0.21428549999998836
        },
        {
          "name": "C7",
          "midi": 96,
          "time": 229.60691325000082,
          "velocity": 0.7480314960629921,
          "duration": 0.21428549999998836
        },
        {
          "name": "C4",
          "midi": 60,
          "time": 229.8211987500008,
          "velocity": 0.7480314960629921,
          "duration": 0.42857100000000514
        },
        {
          "name": "C5",
          "midi": 72,
          "time": 229.8211987500008,
          "velocity": 0.7480314960629921,
          "duration": 0.42857100000000514
        },
        {
          "name": "C6",
          "midi": 84,
          "time": 229.8211987500008,
          "velocity": 0.7480314960629921,
          "duration": 0.42857100000000514
        },
        {
          "name": "C7",
          "midi": 96,
          "time": 229.8211987500008,
          "velocity": 0.7480314960629921,
          "duration": 0.42857100000000514
        },
        {
          "name": "C4",
          "midi": 60,
          "time": 230.2497697500008,
          "velocity": 0.7480314960629921,
          "duration": 0.21428549999998836
        },
        {
          "name": "C5",
          "midi": 72,
          "time": 230.2497697500008,
          "velocity": 0.7480314960629921,
          "duration": 0.21428549999998836
        },
        {
          "name": "C6",
          "midi": 84,
          "time": 230.2497697500008,
          "velocity": 0.7480314960629921,
          "duration": 0.21428549999998836
        },
        {
          "name": "C7",
          "midi": 96,
          "time": 230.2497697500008,
          "velocity": 0.7480314960629921,
          "duration": 0.21428549999998836
        },
        {
          "name": "C#4",
          "midi": 61,
          "time": 230.4640552500008,
          "velocity": 0.7480314960629921,
          "duration": 0.21428549999998836
        },
        {
          "name": "C#5",
          "midi": 73,
          "time": 230.4640552500008,
          "velocity": 0.7480314960629921,
          "duration": 0.21428549999998836
        },
        {
          "name": "C#6",
          "midi": 85,
          "time": 230.4640552500008,
          "velocity": 0.7480314960629921,
          "duration": 0.21428549999998836
        },
        {
          "name": "C#7",
          "midi": 97,
          "time": 230.4640552500008,
          "velocity": 0.7480314960629921,
          "duration": 0.21428549999998836
        },
        {
          "name": "C#4",
          "midi": 61,
          "time": 230.67834075000079,
          "velocity": 0.7480314960629921,
          "duration": 0.42857100000000514
        },
        {
          "name": "C#5",
          "midi": 73,
          "time": 230.67834075000079,
          "velocity": 0.7480314960629921,
          "duration": 0.42857100000000514
        },
        {
          "name": "C#6",
          "midi": 85,
          "time": 230.67834075000079,
          "velocity": 0.7480314960629921,
          "duration": 0.42857100000000514
        },
        {
          "name": "C#7",
          "midi": 97,
          "time": 230.67834075000079,
          "velocity": 0.7480314960629921,
          "duration": 0.42857100000000514
        },
        {
          "name": "C#4",
          "midi": 61,
          "time": 231.1069117500008,
          "velocity": 0.7480314960629921,
          "duration": 0.21428549999998836
        },
        {
          "name": "C#5",
          "midi": 73,
          "time": 231.1069117500008,
          "velocity": 0.7480314960629921,
          "duration": 0.21428549999998836
        },
        {
          "name": "C#6",
          "midi": 85,
          "time": 231.1069117500008,
          "velocity": 0.7480314960629921,
          "duration": 0.21428549999998836
        },
        {
          "name": "C#7",
          "midi": 97,
          "time": 231.1069117500008,
          "velocity": 0.7480314960629921,
          "duration": 0.21428549999998836
        },
        {
          "name": "D4",
          "midi": 62,
          "time": 231.32119725000078,
          "velocity": 0.7480314960629921,
          "duration": 0.21428549999998836
        },
        {
          "name": "D5",
          "midi": 74,
          "time": 231.32119725000078,
          "velocity": 0.7480314960629921,
          "duration": 0.21428549999998836
        },
        {
          "name": "D6",
          "midi": 86,
          "time": 231.32119725000078,
          "velocity": 0.7480314960629921,
          "duration": 0.21428549999998836
        },
        {
          "name": "D7",
          "midi": 98,
          "time": 231.32119725000078,
          "velocity": 0.7480314960629921,
          "duration": 0.21428549999998836
        },
        {
          "name": "D4",
          "midi": 62,
          "time": 231.53548275000077,
          "velocity": 0.7480314960629921,
          "duration": 0.42857100000000514
        },
        {
          "name": "D5",
          "midi": 74,
          "time": 231.53548275000077,
          "velocity": 0.7480314960629921,
          "duration": 0.42857100000000514
        },
        {
          "name": "D6",
          "midi": 86,
          "time": 231.53548275000077,
          "velocity": 0.7480314960629921,
          "duration": 0.42857100000000514
        },
        {
          "name": "D7",
          "midi": 98,
          "time": 231.53548275000077,
          "velocity": 0.7480314960629921,
          "duration": 0.42857100000000514
        },
        {
          "name": "D4",
          "midi": 62,
          "time": 231.96405375000077,
          "velocity": 0.7480314960629921,
          "duration": 0.21428549999998836
        },
        {
          "name": "D5",
          "midi": 74,
          "time": 231.96405375000077,
          "velocity": 0.7480314960629921,
          "duration": 0.21428549999998836
        },
        {
          "name": "D6",
          "midi": 86,
          "time": 231.96405375000077,
          "velocity": 0.7480314960629921,
          "duration": 0.21428549999998836
        },
        {
          "name": "D7",
          "midi": 98,
          "time": 231.96405375000077,
          "velocity": 0.7480314960629921,
          "duration": 0.21428549999998836
        },
        {
          "name": "E4",
          "midi": 64,
          "time": 232.17833925000076,
          "velocity": 0.7480314960629921,
          "duration": 0.21428549999998836
        },
        {
          "name": "E5",
          "midi": 76,
          "time": 232.17833925000076,
          "velocity": 0.7480314960629921,
          "duration": 0.21428549999998836
        },
        {
          "name": "E6",
          "midi": 88,
          "time": 232.17833925000076,
          "velocity": 0.7480314960629921,
          "duration": 0.21428549999998836
        },
        {
          "name": "E7",
          "midi": 100,
          "time": 232.17833925000076,
          "velocity": 0.7480314960629921,
          "duration": 0.21428549999998836
        },
        {
          "name": "E4",
          "midi": 64,
          "time": 232.39262475000075,
          "velocity": 0.7480314960629921,
          "duration": 0.6428564999999935
        },
        {
          "name": "E5",
          "midi": 76,
          "time": 232.39262475000075,
          "velocity": 0.7480314960629921,
          "duration": 0.6428564999999935
        },
        {
          "name": "E6",
          "midi": 88,
          "time": 232.39262475000075,
          "velocity": 0.7480314960629921,
          "duration": 0.6428564999999935
        },
        {
          "name": "E7",
          "midi": 100,
          "time": 232.39262475000075,
          "velocity": 0.7480314960629921,
          "duration": 0.6428564999999935
        },
        {
          "name": "C4",
          "midi": 60,
          "time": 233.03548125000074,
          "velocity": 0.7480314960629921,
          "duration": 0.21428549999998836
        },
        {
          "name": "C5",
          "midi": 72,
          "time": 233.03548125000074,
          "velocity": 0.7480314960629921,
          "duration": 0.21428549999998836
        },
        {
          "name": "C6",
          "midi": 84,
          "time": 233.03548125000074,
          "velocity": 0.7480314960629921,
          "duration": 0.21428549999998836
        },
        {
          "name": "C7",
          "midi": 96,
          "time": 233.03548125000074,
          "velocity": 0.7480314960629921,
          "duration": 0.21428549999998836
        },
        {
          "name": "C4",
          "midi": 60,
          "time": 233.24976675000073,
          "velocity": 0.7480314960629921,
          "duration": 0.42857100000000514
        },
        {
          "name": "C5",
          "midi": 72,
          "time": 233.24976675000073,
          "velocity": 0.7480314960629921,
          "duration": 0.42857100000000514
        },
        {
          "name": "C6",
          "midi": 84,
          "time": 233.24976675000073,
          "velocity": 0.7480314960629921,
          "duration": 0.42857100000000514
        },
        {
          "name": "C7",
          "midi": 96,
          "time": 233.24976675000073,
          "velocity": 0.7480314960629921,
          "duration": 0.42857100000000514
        },
        {
          "name": "C4",
          "midi": 60,
          "time": 233.67833775000074,
          "velocity": 0.7480314960629921,
          "duration": 0.21428549999998836
        },
        {
          "name": "C5",
          "midi": 72,
          "time": 233.67833775000074,
          "velocity": 0.7480314960629921,
          "duration": 0.21428549999998836
        },
        {
          "name": "C6",
          "midi": 84,
          "time": 233.67833775000074,
          "velocity": 0.7480314960629921,
          "duration": 0.21428549999998836
        },
        {
          "name": "C7",
          "midi": 96,
          "time": 233.67833775000074,
          "velocity": 0.7480314960629921,
          "duration": 0.21428549999998836
        },
        {
          "name": "C#4",
          "midi": 61,
          "time": 233.89262325000072,
          "velocity": 0.7480314960629921,
          "duration": 0.21428549999998836
        },
        {
          "name": "C#5",
          "midi": 73,
          "time": 233.89262325000072,
          "velocity": 0.7480314960629921,
          "duration": 0.21428549999998836
        },
        {
          "name": "C#6",
          "midi": 85,
          "time": 233.89262325000072,
          "velocity": 0.7480314960629921,
          "duration": 0.21428549999998836
        },
        {
          "name": "C#7",
          "midi": 97,
          "time": 233.89262325000072,
          "velocity": 0.7480314960629921,
          "duration": 0.21428549999998836
        },
        {
          "name": "C#4",
          "midi": 61,
          "time": 234.1069087500007,
          "velocity": 0.7480314960629921,
          "duration": 0.42857100000000514
        },
        {
          "name": "C#5",
          "midi": 73,
          "time": 234.1069087500007,
          "velocity": 0.7480314960629921,
          "duration": 0.42857100000000514
        },
        {
          "name": "C#6",
          "midi": 85,
          "time": 234.1069087500007,
          "velocity": 0.7480314960629921,
          "duration": 0.42857100000000514
        },
        {
          "name": "C#7",
          "midi": 97,
          "time": 234.1069087500007,
          "velocity": 0.7480314960629921,
          "duration": 0.42857100000000514
        },
        {
          "name": "C#4",
          "midi": 61,
          "time": 234.53547975000072,
          "velocity": 0.7480314960629921,
          "duration": 0.21428549999998836
        },
        {
          "name": "C#5",
          "midi": 73,
          "time": 234.53547975000072,
          "velocity": 0.7480314960629921,
          "duration": 0.21428549999998836
        },
        {
          "name": "C#6",
          "midi": 85,
          "time": 234.53547975000072,
          "velocity": 0.7480314960629921,
          "duration": 0.21428549999998836
        },
        {
          "name": "C#7",
          "midi": 97,
          "time": 234.53547975000072,
          "velocity": 0.7480314960629921,
          "duration": 0.21428549999998836
        },
        {
          "name": "D4",
          "midi": 62,
          "time": 234.7497652500007,
          "velocity": 0.7480314960629921,
          "duration": 0.21428549999998836
        },
        {
          "name": "D5",
          "midi": 74,
          "time": 234.7497652500007,
          "velocity": 0.7480314960629921,
          "duration": 0.21428549999998836
        },
        {
          "name": "D6",
          "midi": 86,
          "time": 234.7497652500007,
          "velocity": 0.7480314960629921,
          "duration": 0.21428549999998836
        },
        {
          "name": "D7",
          "midi": 98,
          "time": 234.7497652500007,
          "velocity": 0.7480314960629921,
          "duration": 0.21428549999998836
        },
        {
          "name": "D4",
          "midi": 62,
          "time": 234.9640507500007,
          "velocity": 0.7480314960629921,
          "duration": 0.42857100000000514
        },
        {
          "name": "D5",
          "midi": 74,
          "time": 234.9640507500007,
          "velocity": 0.7480314960629921,
          "duration": 0.42857100000000514
        },
        {
          "name": "D6",
          "midi": 86,
          "time": 234.9640507500007,
          "velocity": 0.7480314960629921,
          "duration": 0.42857100000000514
        },
        {
          "name": "D7",
          "midi": 98,
          "time": 234.9640507500007,
          "velocity": 0.7480314960629921,
          "duration": 0.42857100000000514
        },
        {
          "name": "D4",
          "midi": 62,
          "time": 235.3926217500007,
          "velocity": 0.7480314960629921,
          "duration": 0.21428549999998836
        },
        {
          "name": "D5",
          "midi": 74,
          "time": 235.3926217500007,
          "velocity": 0.7480314960629921,
          "duration": 0.21428549999998836
        },
        {
          "name": "D6",
          "midi": 86,
          "time": 235.3926217500007,
          "velocity": 0.7480314960629921,
          "duration": 0.21428549999998836
        },
        {
          "name": "D7",
          "midi": 98,
          "time": 235.3926217500007,
          "velocity": 0.7480314960629921,
          "duration": 0.21428549999998836
        },
        {
          "name": "D#4",
          "midi": 63,
          "time": 235.6069072500007,
          "velocity": 0.7480314960629921,
          "duration": 0.21428549999998836
        },
        {
          "name": "D#5",
          "midi": 75,
          "time": 235.6069072500007,
          "velocity": 0.7480314960629921,
          "duration": 0.21428549999998836
        },
        {
          "name": "D#6",
          "midi": 87,
          "time": 235.6069072500007,
          "velocity": 0.7480314960629921,
          "duration": 0.21428549999998836
        },
        {
          "name": "D#7",
          "midi": 99,
          "time": 235.6069072500007,
          "velocity": 0.7480314960629921,
          "duration": 0.21428549999998836
        },
        {
          "name": "D#4",
          "midi": 63,
          "time": 235.82119275000068,
          "velocity": 0.7480314960629921,
          "duration": 0.42857100000000514
        },
        {
          "name": "D#5",
          "midi": 75,
          "time": 235.82119275000068,
          "velocity": 0.7480314960629921,
          "duration": 0.42857100000000514
        },
        {
          "name": "D#6",
          "midi": 87,
          "time": 235.82119275000068,
          "velocity": 0.7480314960629921,
          "duration": 0.42857100000000514
        },
        {
          "name": "D#7",
          "midi": 99,
          "time": 235.82119275000068,
          "velocity": 0.7480314960629921,
          "duration": 0.42857100000000514
        },
        {
          "name": "D#4",
          "midi": 63,
          "time": 236.24976375000068,
          "velocity": 0.7480314960629921,
          "duration": 0.21428549999998836
        },
        {
          "name": "D#5",
          "midi": 75,
          "time": 236.24976375000068,
          "velocity": 0.7480314960629921,
          "duration": 0.21428549999998836
        },
        {
          "name": "D#6",
          "midi": 87,
          "time": 236.24976375000068,
          "velocity": 0.7480314960629921,
          "duration": 0.21428549999998836
        },
        {
          "name": "D#7",
          "midi": 99,
          "time": 236.24976375000068,
          "velocity": 0.7480314960629921,
          "duration": 0.21428549999998836
        },
        {
          "name": "C4",
          "midi": 60,
          "time": 236.46404925000067,
          "velocity": 0.7480314960629921,
          "duration": 0.21428549999998836
        },
        {
          "name": "C5",
          "midi": 72,
          "time": 236.46404925000067,
          "velocity": 0.7480314960629921,
          "duration": 0.21428549999998836
        },
        {
          "name": "C6",
          "midi": 84,
          "time": 236.46404925000067,
          "velocity": 0.7480314960629921,
          "duration": 0.21428549999998836
        },
        {
          "name": "C7",
          "midi": 96,
          "time": 236.46404925000067,
          "velocity": 0.7480314960629921,
          "duration": 0.21428549999998836
        },
        {
          "name": "C4",
          "midi": 60,
          "time": 236.67833475000066,
          "velocity": 0.7480314960629921,
          "duration": 0.42857100000000514
        },
        {
          "name": "C5",
          "midi": 72,
          "time": 236.67833475000066,
          "velocity": 0.7480314960629921,
          "duration": 0.42857100000000514
        },
        {
          "name": "C6",
          "midi": 84,
          "time": 236.67833475000066,
          "velocity": 0.7480314960629921,
          "duration": 0.42857100000000514
        },
        {
          "name": "C7",
          "midi": 96,
          "time": 236.67833475000066,
          "velocity": 0.7480314960629921,
          "duration": 0.42857100000000514
        },
        {
          "name": "C4",
          "midi": 60,
          "time": 237.10690575000066,
          "velocity": 0.7480314960629921,
          "duration": 0.21428549999998836
        },
        {
          "name": "C5",
          "midi": 72,
          "time": 237.10690575000066,
          "velocity": 0.7480314960629921,
          "duration": 0.21428549999998836
        },
        {
          "name": "C6",
          "midi": 84,
          "time": 237.10690575000066,
          "velocity": 0.7480314960629921,
          "duration": 0.21428549999998836
        },
        {
          "name": "C7",
          "midi": 96,
          "time": 237.10690575000066,
          "velocity": 0.7480314960629921,
          "duration": 0.21428549999998836
        },
        {
          "name": "C#4",
          "midi": 61,
          "time": 237.32119125000065,
          "velocity": 0.7480314960629921,
          "duration": 0.21428549999998836
        },
        {
          "name": "C#5",
          "midi": 73,
          "time": 237.32119125000065,
          "velocity": 0.7480314960629921,
          "duration": 0.21428549999998836
        },
        {
          "name": "C#6",
          "midi": 85,
          "time": 237.32119125000065,
          "velocity": 0.7480314960629921,
          "duration": 0.21428549999998836
        },
        {
          "name": "C#7",
          "midi": 97,
          "time": 237.32119125000065,
          "velocity": 0.7480314960629921,
          "duration": 0.21428549999998836
        },
        {
          "name": "C#4",
          "midi": 61,
          "time": 237.53547675000064,
          "velocity": 0.7480314960629921,
          "duration": 0.42857100000000514
        },
        {
          "name": "C#5",
          "midi": 73,
          "time": 237.53547675000064,
          "velocity": 0.7480314960629921,
          "duration": 0.42857100000000514
        },
        {
          "name": "C#6",
          "midi": 85,
          "time": 237.53547675000064,
          "velocity": 0.7480314960629921,
          "duration": 0.42857100000000514
        },
        {
          "name": "C#7",
          "midi": 97,
          "time": 237.53547675000064,
          "velocity": 0.7480314960629921,
          "duration": 0.42857100000000514
        },
        {
          "name": "C#4",
          "midi": 61,
          "time": 237.96404775000065,
          "velocity": 0.7480314960629921,
          "duration": 0.21428549999998836
        },
        {
          "name": "C#5",
          "midi": 73,
          "time": 237.96404775000065,
          "velocity": 0.7480314960629921,
          "duration": 0.21428549999998836
        },
        {
          "name": "C#6",
          "midi": 85,
          "time": 237.96404775000065,
          "velocity": 0.7480314960629921,
          "duration": 0.21428549999998836
        },
        {
          "name": "C#7",
          "midi": 97,
          "time": 237.96404775000065,
          "velocity": 0.7480314960629921,
          "duration": 0.21428549999998836
        },
        {
          "name": "D4",
          "midi": 62,
          "time": 238.17833325000063,
          "velocity": 0.7480314960629921,
          "duration": 0.21428549999998836
        },
        {
          "name": "D5",
          "midi": 74,
          "time": 238.17833325000063,
          "velocity": 0.7480314960629921,
          "duration": 0.21428549999998836
        },
        {
          "name": "D6",
          "midi": 86,
          "time": 238.17833325000063,
          "velocity": 0.7480314960629921,
          "duration": 0.21428549999998836
        },
        {
          "name": "D7",
          "midi": 98,
          "time": 238.17833325000063,
          "velocity": 0.7480314960629921,
          "duration": 0.21428549999998836
        },
        {
          "name": "D4",
          "midi": 62,
          "time": 238.39261875000062,
          "velocity": 0.7480314960629921,
          "duration": 0.42857100000000514
        },
        {
          "name": "D5",
          "midi": 74,
          "time": 238.39261875000062,
          "velocity": 0.7480314960629921,
          "duration": 0.42857100000000514
        },
        {
          "name": "D6",
          "midi": 86,
          "time": 238.39261875000062,
          "velocity": 0.7480314960629921,
          "duration": 0.42857100000000514
        },
        {
          "name": "D7",
          "midi": 98,
          "time": 238.39261875000062,
          "velocity": 0.7480314960629921,
          "duration": 0.42857100000000514
        },
        {
          "name": "D4",
          "midi": 62,
          "time": 238.82118975000063,
          "velocity": 0.7480314960629921,
          "duration": 0.21428549999998836
        },
        {
          "name": "D5",
          "midi": 74,
          "time": 238.82118975000063,
          "velocity": 0.7480314960629921,
          "duration": 0.21428549999998836
        },
        {
          "name": "D6",
          "midi": 86,
          "time": 238.82118975000063,
          "velocity": 0.7480314960629921,
          "duration": 0.21428549999998836
        },
        {
          "name": "D7",
          "midi": 98,
          "time": 238.82118975000063,
          "velocity": 0.7480314960629921,
          "duration": 0.21428549999998836
        },
        {
          "name": "E4",
          "midi": 64,
          "time": 239.03547525000062,
          "velocity": 0.7480314960629921,
          "duration": 0.21428549999998836
        },
        {
          "name": "E5",
          "midi": 76,
          "time": 239.03547525000062,
          "velocity": 0.7480314960629921,
          "duration": 0.21428549999998836
        },
        {
          "name": "E6",
          "midi": 88,
          "time": 239.03547525000062,
          "velocity": 0.7480314960629921,
          "duration": 0.21428549999998836
        },
        {
          "name": "E7",
          "midi": 100,
          "time": 239.03547525000062,
          "velocity": 0.7480314960629921,
          "duration": 0.21428549999998836
        },
        {
          "name": "E4",
          "midi": 64,
          "time": 239.2497607500006,
          "velocity": 0.7480314960629921,
          "duration": 0.42857100000000514
        },
        {
          "name": "E5",
          "midi": 76,
          "time": 239.2497607500006,
          "velocity": 0.7480314960629921,
          "duration": 0.42857100000000514
        },
        {
          "name": "E6",
          "midi": 88,
          "time": 239.2497607500006,
          "velocity": 0.7480314960629921,
          "duration": 0.42857100000000514
        },
        {
          "name": "E7",
          "midi": 100,
          "time": 239.2497607500006,
          "velocity": 0.7480314960629921,
          "duration": 0.42857100000000514
        },
        {
          "name": "E4",
          "midi": 64,
          "time": 239.6783317500006,
          "velocity": 0.7480314960629921,
          "duration": 0.21428549999998836
        },
        {
          "name": "E5",
          "midi": 76,
          "time": 239.6783317500006,
          "velocity": 0.7480314960629921,
          "duration": 0.21428549999998836
        },
        {
          "name": "E6",
          "midi": 88,
          "time": 239.6783317500006,
          "velocity": 0.7480314960629921,
          "duration": 0.21428549999998836
        },
        {
          "name": "E7",
          "midi": 100,
          "time": 239.6783317500006,
          "velocity": 0.7480314960629921,
          "duration": 0.21428549999998836
        },
        {
          "name": "C4",
          "midi": 60,
          "time": 239.8926172500006,
          "velocity": 0.7480314960629921,
          "duration": 0.21428549999998836
        },
        {
          "name": "C5",
          "midi": 72,
          "time": 239.8926172500006,
          "velocity": 0.7480314960629921,
          "duration": 0.21428549999998836
        },
        {
          "name": "C6",
          "midi": 84,
          "time": 239.8926172500006,
          "velocity": 0.7480314960629921,
          "duration": 0.21428549999998836
        },
        {
          "name": "C7",
          "midi": 96,
          "time": 239.8926172500006,
          "velocity": 0.7480314960629921,
          "duration": 0.21428549999998836
        },
        {
          "name": "C4",
          "midi": 60,
          "time": 240.1069027500006,
          "velocity": 0.7480314960629921,
          "duration": 0.42857100000000514
        },
        {
          "name": "C5",
          "midi": 72,
          "time": 240.1069027500006,
          "velocity": 0.7480314960629921,
          "duration": 0.42857100000000514
        },
        {
          "name": "C6",
          "midi": 84,
          "time": 240.1069027500006,
          "velocity": 0.7480314960629921,
          "duration": 0.42857100000000514
        },
        {
          "name": "C7",
          "midi": 96,
          "time": 240.1069027500006,
          "velocity": 0.7480314960629921,
          "duration": 0.42857100000000514
        },
        {
          "name": "C4",
          "midi": 60,
          "time": 240.5354737500006,
          "velocity": 0.7480314960629921,
          "duration": 0.21428549999998836
        },
        {
          "name": "C5",
          "midi": 72,
          "time": 240.5354737500006,
          "velocity": 0.7480314960629921,
          "duration": 0.21428549999998836
        },
        {
          "name": "C6",
          "midi": 84,
          "time": 240.5354737500006,
          "velocity": 0.7480314960629921,
          "duration": 0.21428549999998836
        },
        {
          "name": "C7",
          "midi": 96,
          "time": 240.5354737500006,
          "velocity": 0.7480314960629921,
          "duration": 0.21428549999998836
        },
        {
          "name": "C#4",
          "midi": 61,
          "time": 240.74975925000058,
          "velocity": 0.7480314960629921,
          "duration": 0.21428549999998836
        },
        {
          "name": "C#5",
          "midi": 73,
          "time": 240.74975925000058,
          "velocity": 0.7480314960629921,
          "duration": 0.21428549999998836
        },
        {
          "name": "C#6",
          "midi": 85,
          "time": 240.74975925000058,
          "velocity": 0.7480314960629921,
          "duration": 0.21428549999998836
        },
        {
          "name": "C#7",
          "midi": 97,
          "time": 240.74975925000058,
          "velocity": 0.7480314960629921,
          "duration": 0.21428549999998836
        },
        {
          "name": "C#4",
          "midi": 61,
          "time": 240.96404475000057,
          "velocity": 0.7480314960629921,
          "duration": 0.42857100000000514
        },
        {
          "name": "C#5",
          "midi": 73,
          "time": 240.96404475000057,
          "velocity": 0.7480314960629921,
          "duration": 0.42857100000000514
        },
        {
          "name": "C#6",
          "midi": 85,
          "time": 240.96404475000057,
          "velocity": 0.7480314960629921,
          "duration": 0.42857100000000514
        },
        {
          "name": "C#7",
          "midi": 97,
          "time": 240.96404475000057,
          "velocity": 0.7480314960629921,
          "duration": 0.42857100000000514
        },
        {
          "name": "C#4",
          "midi": 61,
          "time": 241.39261575000057,
          "velocity": 0.7480314960629921,
          "duration": 0.21428549999998836
        },
        {
          "name": "C#5",
          "midi": 73,
          "time": 241.39261575000057,
          "velocity": 0.7480314960629921,
          "duration": 0.21428549999998836
        },
        {
          "name": "C#6",
          "midi": 85,
          "time": 241.39261575000057,
          "velocity": 0.7480314960629921,
          "duration": 0.21428549999998836
        },
        {
          "name": "C#7",
          "midi": 97,
          "time": 241.39261575000057,
          "velocity": 0.7480314960629921,
          "duration": 0.21428549999998836
        },
        {
          "name": "D4",
          "midi": 62,
          "time": 241.60690125000056,
          "velocity": 0.7480314960629921,
          "duration": 0.21428549999998836
        },
        {
          "name": "D5",
          "midi": 74,
          "time": 241.60690125000056,
          "velocity": 0.7480314960629921,
          "duration": 0.21428549999998836
        },
        {
          "name": "D6",
          "midi": 86,
          "time": 241.60690125000056,
          "velocity": 0.7480314960629921,
          "duration": 0.21428549999998836
        },
        {
          "name": "D7",
          "midi": 98,
          "time": 241.60690125000056,
          "velocity": 0.7480314960629921,
          "duration": 0.21428549999998836
        },
        {
          "name": "D4",
          "midi": 62,
          "time": 241.82118675000055,
          "velocity": 0.7480314960629921,
          "duration": 0.42857100000000514
        },
        {
          "name": "D5",
          "midi": 74,
          "time": 241.82118675000055,
          "velocity": 0.7480314960629921,
          "duration": 0.42857100000000514
        },
        {
          "name": "D6",
          "midi": 86,
          "time": 241.82118675000055,
          "velocity": 0.7480314960629921,
          "duration": 0.42857100000000514
        },
        {
          "name": "D7",
          "midi": 98,
          "time": 241.82118675000055,
          "velocity": 0.7480314960629921,
          "duration": 0.42857100000000514
        },
        {
          "name": "D4",
          "midi": 62,
          "time": 242.24975775000055,
          "velocity": 0.7480314960629921,
          "duration": 0.21428549999998836
        },
        {
          "name": "D5",
          "midi": 74,
          "time": 242.24975775000055,
          "velocity": 0.7480314960629921,
          "duration": 0.21428549999998836
        },
        {
          "name": "D6",
          "midi": 86,
          "time": 242.24975775000055,
          "velocity": 0.7480314960629921,
          "duration": 0.21428549999998836
        },
        {
          "name": "D7",
          "midi": 98,
          "time": 242.24975775000055,
          "velocity": 0.7480314960629921,
          "duration": 0.21428549999998836
        },
        {
          "name": "D#4",
          "midi": 63,
          "time": 242.46404325000054,
          "velocity": 0.7480314960629921,
          "duration": 0.21428549999998836
        },
        {
          "name": "D#5",
          "midi": 75,
          "time": 242.46404325000054,
          "velocity": 0.7480314960629921,
          "duration": 0.21428549999998836
        },
        {
          "name": "D#6",
          "midi": 87,
          "time": 242.46404325000054,
          "velocity": 0.7480314960629921,
          "duration": 0.21428549999998836
        },
        {
          "name": "D#7",
          "midi": 99,
          "time": 242.46404325000054,
          "velocity": 0.7480314960629921,
          "duration": 0.21428549999998836
        },
        {
          "name": "D#4",
          "midi": 63,
          "time": 242.67832875000053,
          "velocity": 0.7480314960629921,
          "duration": 0.42857100000000514
        },
        {
          "name": "D#5",
          "midi": 75,
          "time": 242.67832875000053,
          "velocity": 0.7480314960629921,
          "duration": 0.42857100000000514
        },
        {
          "name": "D#6",
          "midi": 87,
          "time": 242.67832875000053,
          "velocity": 0.7480314960629921,
          "duration": 0.42857100000000514
        },
        {
          "name": "D#7",
          "midi": 99,
          "time": 242.67832875000053,
          "velocity": 0.7480314960629921,
          "duration": 0.42857100000000514
        },
        {
          "name": "D#4",
          "midi": 63,
          "time": 243.10689975000054,
          "velocity": 0.7480314960629921,
          "duration": 0.21428549999998836
        },
        {
          "name": "D#5",
          "midi": 75,
          "time": 243.10689975000054,
          "velocity": 0.7480314960629921,
          "duration": 0.21428549999998836
        },
        {
          "name": "D#6",
          "midi": 87,
          "time": 243.10689975000054,
          "velocity": 0.7480314960629921,
          "duration": 0.21428549999998836
        },
        {
          "name": "D#7",
          "midi": 99,
          "time": 243.10689975000054,
          "velocity": 0.7480314960629921,
          "duration": 0.21428549999998836
        },
        {
          "name": "C4",
          "midi": 60,
          "time": 243.32118525000053,
          "velocity": 0.7480314960629921,
          "duration": 0.21428549999998836
        },
        {
          "name": "C5",
          "midi": 72,
          "time": 243.32118525000053,
          "velocity": 0.7480314960629921,
          "duration": 0.21428549999998836
        },
        {
          "name": "C6",
          "midi": 84,
          "time": 243.32118525000053,
          "velocity": 0.7480314960629921,
          "duration": 0.21428549999998836
        },
        {
          "name": "C7",
          "midi": 96,
          "time": 243.32118525000053,
          "velocity": 0.7480314960629921,
          "duration": 0.21428549999998836
        },
        {
          "name": "C4",
          "midi": 60,
          "time": 243.5354707500005,
          "velocity": 0.7480314960629921,
          "duration": 0.42857100000000514
        },
        {
          "name": "C5",
          "midi": 72,
          "time": 243.5354707500005,
          "velocity": 0.7480314960629921,
          "duration": 0.42857100000000514
        },
        {
          "name": "C6",
          "midi": 84,
          "time": 243.5354707500005,
          "velocity": 0.7480314960629921,
          "duration": 0.42857100000000514
        },
        {
          "name": "C7",
          "midi": 96,
          "time": 243.5354707500005,
          "velocity": 0.7480314960629921,
          "duration": 0.42857100000000514
        },
        {
          "name": "C4",
          "midi": 60,
          "time": 243.96404175000052,
          "velocity": 0.7480314960629921,
          "duration": 0.21428549999998836
        },
        {
          "name": "C5",
          "midi": 72,
          "time": 243.96404175000052,
          "velocity": 0.7480314960629921,
          "duration": 0.21428549999998836
        },
        {
          "name": "C6",
          "midi": 84,
          "time": 243.96404175000052,
          "velocity": 0.7480314960629921,
          "duration": 0.21428549999998836
        },
        {
          "name": "C7",
          "midi": 96,
          "time": 243.96404175000052,
          "velocity": 0.7480314960629921,
          "duration": 0.21428549999998836
        },
        {
          "name": "C#4",
          "midi": 61,
          "time": 244.1783272500005,
          "velocity": 0.7480314960629921,
          "duration": 0.21428549999998836
        },
        {
          "name": "C#5",
          "midi": 73,
          "time": 244.1783272500005,
          "velocity": 0.7480314960629921,
          "duration": 0.21428549999998836
        },
        {
          "name": "C#6",
          "midi": 85,
          "time": 244.1783272500005,
          "velocity": 0.7480314960629921,
          "duration": 0.21428549999998836
        },
        {
          "name": "C#7",
          "midi": 97,
          "time": 244.1783272500005,
          "velocity": 0.7480314960629921,
          "duration": 0.21428549999998836
        },
        {
          "name": "C#4",
          "midi": 61,
          "time": 244.3926127500005,
          "velocity": 0.7480314960629921,
          "duration": 0.42857100000000514
        },
        {
          "name": "C#5",
          "midi": 73,
          "time": 244.3926127500005,
          "velocity": 0.7480314960629921,
          "duration": 0.42857100000000514
        },
        {
          "name": "C#6",
          "midi": 85,
          "time": 244.3926127500005,
          "velocity": 0.7480314960629921,
          "duration": 0.42857100000000514
        },
        {
          "name": "C#7",
          "midi": 97,
          "time": 244.3926127500005,
          "velocity": 0.7480314960629921,
          "duration": 0.42857100000000514
        },
        {
          "name": "C#4",
          "midi": 61,
          "time": 244.8211837500005,
          "velocity": 0.7480314960629921,
          "duration": 0.21428549999998836
        },
        {
          "name": "C#5",
          "midi": 73,
          "time": 244.8211837500005,
          "velocity": 0.7480314960629921,
          "duration": 0.21428549999998836
        },
        {
          "name": "C#6",
          "midi": 85,
          "time": 244.8211837500005,
          "velocity": 0.7480314960629921,
          "duration": 0.21428549999998836
        },
        {
          "name": "C#7",
          "midi": 97,
          "time": 244.8211837500005,
          "velocity": 0.7480314960629921,
          "duration": 0.21428549999998836
        },
        {
          "name": "D4",
          "midi": 62,
          "time": 245.0354692500005,
          "velocity": 0.7480314960629921,
          "duration": 0.21428549999998836
        },
        {
          "name": "D5",
          "midi": 74,
          "time": 245.0354692500005,
          "velocity": 0.7480314960629921,
          "duration": 0.21428549999998836
        },
        {
          "name": "D6",
          "midi": 86,
          "time": 245.0354692500005,
          "velocity": 0.7480314960629921,
          "duration": 0.21428549999998836
        },
        {
          "name": "D7",
          "midi": 98,
          "time": 245.0354692500005,
          "velocity": 0.7480314960629921,
          "duration": 0.21428549999998836
        },
        {
          "name": "D4",
          "midi": 62,
          "time": 245.24975475000048,
          "velocity": 0.7480314960629921,
          "duration": 0.42857100000000514
        },
        {
          "name": "D5",
          "midi": 74,
          "time": 245.24975475000048,
          "velocity": 0.7480314960629921,
          "duration": 0.42857100000000514
        },
        {
          "name": "D6",
          "midi": 86,
          "time": 245.24975475000048,
          "velocity": 0.7480314960629921,
          "duration": 0.42857100000000514
        },
        {
          "name": "D7",
          "midi": 98,
          "time": 245.24975475000048,
          "velocity": 0.7480314960629921,
          "duration": 0.42857100000000514
        },
        {
          "name": "D4",
          "midi": 62,
          "time": 245.67832575000048,
          "velocity": 0.7480314960629921,
          "duration": 0.21428549999998836
        },
        {
          "name": "D5",
          "midi": 74,
          "time": 245.67832575000048,
          "velocity": 0.7480314960629921,
          "duration": 0.21428549999998836
        },
        {
          "name": "D6",
          "midi": 86,
          "time": 245.67832575000048,
          "velocity": 0.7480314960629921,
          "duration": 0.21428549999998836
        },
        {
          "name": "D7",
          "midi": 98,
          "time": 245.67832575000048,
          "velocity": 0.7480314960629921,
          "duration": 0.21428549999998836
        },
        {
          "name": "E4",
          "midi": 64,
          "time": 245.89261125000047,
          "velocity": 0.7480314960629921,
          "duration": 0.21428549999998836
        },
        {
          "name": "E5",
          "midi": 76,
          "time": 245.89261125000047,
          "velocity": 0.7480314960629921,
          "duration": 0.21428549999998836
        },
        {
          "name": "E6",
          "midi": 88,
          "time": 245.89261125000047,
          "velocity": 0.7480314960629921,
          "duration": 0.21428549999998836
        },
        {
          "name": "E7",
          "midi": 100,
          "time": 245.89261125000047,
          "velocity": 0.7480314960629921,
          "duration": 0.21428549999998836
        },
        {
          "name": "E4",
          "midi": 64,
          "time": 246.10689675000046,
          "velocity": 0.7480314960629921,
          "duration": 0.8571419999999819
        },
        {
          "name": "E5",
          "midi": 76,
          "time": 246.10689675000046,
          "velocity": 0.7480314960629921,
          "duration": 0.8571419999999819
        },
        {
          "name": "E6",
          "midi": 88,
          "time": 246.10689675000046,
          "velocity": 0.7480314960629921,
          "duration": 0.8571419999999819
        },
        {
          "name": "E7",
          "midi": 100,
          "time": 246.10689675000046,
          "velocity": 0.7480314960629921,
          "duration": 0.8571419999999819
        },
        {
          "name": "C4",
          "midi": 60,
          "time": 246.74975325000045,
          "velocity": 0.7480314960629921,
          "duration": 0.21428549999998836
        },
        {
          "name": "C5",
          "midi": 72,
          "time": 246.74975325000045,
          "velocity": 0.7480314960629921,
          "duration": 0.21428549999998836
        },
        {
          "name": "C6",
          "midi": 84,
          "time": 246.74975325000045,
          "velocity": 0.7480314960629921,
          "duration": 0.21428549999998836
        },
        {
          "name": "C7",
          "midi": 96,
          "time": 246.74975325000045,
          "velocity": 0.7480314960629921,
          "duration": 0.21428549999998836
        },
        {
          "name": "C4",
          "midi": 60,
          "time": 246.96403875000044,
          "velocity": 0.7480314960629921,
          "duration": 0.42857100000000514
        },
        {
          "name": "C5",
          "midi": 72,
          "time": 246.96403875000044,
          "velocity": 0.7480314960629921,
          "duration": 0.42857100000000514
        },
        {
          "name": "C6",
          "midi": 84,
          "time": 246.96403875000044,
          "velocity": 0.7480314960629921,
          "duration": 0.42857100000000514
        },
        {
          "name": "C7",
          "midi": 96,
          "time": 246.96403875000044,
          "velocity": 0.7480314960629921,
          "duration": 0.42857100000000514
        },
        {
          "name": "C4",
          "midi": 60,
          "time": 247.39260975000045,
          "velocity": 0.7480314960629921,
          "duration": 0.21428549999998836
        },
        {
          "name": "C5",
          "midi": 72,
          "time": 247.39260975000045,
          "velocity": 0.7480314960629921,
          "duration": 0.21428549999998836
        },
        {
          "name": "C6",
          "midi": 84,
          "time": 247.39260975000045,
          "velocity": 0.7480314960629921,
          "duration": 0.21428549999998836
        },
        {
          "name": "C7",
          "midi": 96,
          "time": 247.39260975000045,
          "velocity": 0.7480314960629921,
          "duration": 0.21428549999998836
        },
        {
          "name": "C#4",
          "midi": 61,
          "time": 247.60689525000043,
          "velocity": 0.7480314960629921,
          "duration": 0.21428549999998836
        },
        {
          "name": "C#5",
          "midi": 73,
          "time": 247.60689525000043,
          "velocity": 0.7480314960629921,
          "duration": 0.21428549999998836
        },
        {
          "name": "C#6",
          "midi": 85,
          "time": 247.60689525000043,
          "velocity": 0.7480314960629921,
          "duration": 0.21428549999998836
        },
        {
          "name": "C#7",
          "midi": 97,
          "time": 247.60689525000043,
          "velocity": 0.7480314960629921,
          "duration": 0.21428549999998836
        },
        {
          "name": "C#4",
          "midi": 61,
          "time": 247.82118075000042,
          "velocity": 0.7480314960629921,
          "duration": 0.42857100000000514
        },
        {
          "name": "C#5",
          "midi": 73,
          "time": 247.82118075000042,
          "velocity": 0.7480314960629921,
          "duration": 0.42857100000000514
        },
        {
          "name": "C#6",
          "midi": 85,
          "time": 247.82118075000042,
          "velocity": 0.7480314960629921,
          "duration": 0.42857100000000514
        },
        {
          "name": "C#7",
          "midi": 97,
          "time": 247.82118075000042,
          "velocity": 0.7480314960629921,
          "duration": 0.42857100000000514
        },
        {
          "name": "C#4",
          "midi": 61,
          "time": 248.24975175000043,
          "velocity": 0.7480314960629921,
          "duration": 0.21428549999998836
        },
        {
          "name": "C#5",
          "midi": 73,
          "time": 248.24975175000043,
          "velocity": 0.7480314960629921,
          "duration": 0.21428549999998836
        },
        {
          "name": "C#6",
          "midi": 85,
          "time": 248.24975175000043,
          "velocity": 0.7480314960629921,
          "duration": 0.21428549999998836
        },
        {
          "name": "C#7",
          "midi": 97,
          "time": 248.24975175000043,
          "velocity": 0.7480314960629921,
          "duration": 0.21428549999998836
        },
        {
          "name": "D4",
          "midi": 62,
          "time": 248.46403725000042,
          "velocity": 0.7480314960629921,
          "duration": 0.21428549999998836
        },
        {
          "name": "D5",
          "midi": 74,
          "time": 248.46403725000042,
          "velocity": 0.7480314960629921,
          "duration": 0.21428549999998836
        },
        {
          "name": "D6",
          "midi": 86,
          "time": 248.46403725000042,
          "velocity": 0.7480314960629921,
          "duration": 0.21428549999998836
        },
        {
          "name": "D7",
          "midi": 98,
          "time": 248.46403725000042,
          "velocity": 0.7480314960629921,
          "duration": 0.21428549999998836
        },
        {
          "name": "D4",
          "midi": 62,
          "time": 248.6783227500004,
          "velocity": 0.7480314960629921,
          "duration": 0.42857100000000514
        },
        {
          "name": "D5",
          "midi": 74,
          "time": 248.6783227500004,
          "velocity": 0.7480314960629921,
          "duration": 0.42857100000000514
        },
        {
          "name": "D6",
          "midi": 86,
          "time": 248.6783227500004,
          "velocity": 0.7480314960629921,
          "duration": 0.42857100000000514
        },
        {
          "name": "D7",
          "midi": 98,
          "time": 248.6783227500004,
          "velocity": 0.7480314960629921,
          "duration": 0.42857100000000514
        },
        {
          "name": "D4",
          "midi": 62,
          "time": 249.1068937500004,
          "velocity": 0.7480314960629921,
          "duration": 0.21428549999998836
        },
        {
          "name": "D5",
          "midi": 74,
          "time": 249.1068937500004,
          "velocity": 0.7480314960629921,
          "duration": 0.21428549999998836
        },
        {
          "name": "D6",
          "midi": 86,
          "time": 249.1068937500004,
          "velocity": 0.7480314960629921,
          "duration": 0.21428549999998836
        },
        {
          "name": "D7",
          "midi": 98,
          "time": 249.1068937500004,
          "velocity": 0.7480314960629921,
          "duration": 0.21428549999998836
        },
        {
          "name": "D#4",
          "midi": 63,
          "time": 249.3211792500004,
          "velocity": 0.7480314960629921,
          "duration": 0.21428549999998836
        },
        {
          "name": "D#5",
          "midi": 75,
          "time": 249.3211792500004,
          "velocity": 0.7480314960629921,
          "duration": 0.21428549999998836
        },
        {
          "name": "D#6",
          "midi": 87,
          "time": 249.3211792500004,
          "velocity": 0.7480314960629921,
          "duration": 0.21428549999998836
        },
        {
          "name": "D#7",
          "midi": 99,
          "time": 249.3211792500004,
          "velocity": 0.7480314960629921,
          "duration": 0.21428549999998836
        },
        {
          "name": "D#4",
          "midi": 63,
          "time": 249.5354647500004,
          "velocity": 0.7480314960629921,
          "duration": 0.42857100000000514
        },
        {
          "name": "D#5",
          "midi": 75,
          "time": 249.5354647500004,
          "velocity": 0.7480314960629921,
          "duration": 0.42857100000000514
        },
        {
          "name": "D#6",
          "midi": 87,
          "time": 249.5354647500004,
          "velocity": 0.7480314960629921,
          "duration": 0.42857100000000514
        },
        {
          "name": "D#7",
          "midi": 99,
          "time": 249.5354647500004,
          "velocity": 0.7480314960629921,
          "duration": 0.42857100000000514
        },
        {
          "name": "D#4",
          "midi": 63,
          "time": 249.9640357500004,
          "velocity": 0.7480314960629921,
          "duration": 0.21428549999998836
        },
        {
          "name": "D#5",
          "midi": 75,
          "time": 249.9640357500004,
          "velocity": 0.7480314960629921,
          "duration": 0.21428549999998836
        },
        {
          "name": "D#6",
          "midi": 87,
          "time": 249.9640357500004,
          "velocity": 0.7480314960629921,
          "duration": 0.21428549999998836
        },
        {
          "name": "D#7",
          "midi": 99,
          "time": 249.9640357500004,
          "velocity": 0.7480314960629921,
          "duration": 0.21428549999998836
        },
        {
          "name": "C4",
          "midi": 60,
          "time": 250.17832125000038,
          "velocity": 0.7480314960629921,
          "duration": 0.21428549999998836
        },
        {
          "name": "C5",
          "midi": 72,
          "time": 250.17832125000038,
          "velocity": 0.7480314960629921,
          "duration": 0.21428549999998836
        },
        {
          "name": "C6",
          "midi": 84,
          "time": 250.17832125000038,
          "velocity": 0.7480314960629921,
          "duration": 0.21428549999998836
        },
        {
          "name": "C7",
          "midi": 96,
          "time": 250.17832125000038,
          "velocity": 0.7480314960629921,
          "duration": 0.21428549999998836
        },
        {
          "name": "C4",
          "midi": 60,
          "time": 250.39260675000037,
          "velocity": 0.7480314960629921,
          "duration": 0.42857100000000514
        },
        {
          "name": "C5",
          "midi": 72,
          "time": 250.39260675000037,
          "velocity": 0.7480314960629921,
          "duration": 0.42857100000000514
        },
        {
          "name": "C6",
          "midi": 84,
          "time": 250.39260675000037,
          "velocity": 0.7480314960629921,
          "duration": 0.42857100000000514
        },
        {
          "name": "C7",
          "midi": 96,
          "time": 250.39260675000037,
          "velocity": 0.7480314960629921,
          "duration": 0.42857100000000514
        },
        {
          "name": "C4",
          "midi": 60,
          "time": 250.82117775000037,
          "velocity": 0.7480314960629921,
          "duration": 0.21428549999998836
        },
        {
          "name": "C5",
          "midi": 72,
          "time": 250.82117775000037,
          "velocity": 0.7480314960629921,
          "duration": 0.21428549999998836
        },
        {
          "name": "C6",
          "midi": 84,
          "time": 250.82117775000037,
          "velocity": 0.7480314960629921,
          "duration": 0.21428549999998836
        },
        {
          "name": "C7",
          "midi": 96,
          "time": 250.82117775000037,
          "velocity": 0.7480314960629921,
          "duration": 0.21428549999998836
        },
        {
          "name": "C#4",
          "midi": 61,
          "time": 251.03546325000036,
          "velocity": 0.7480314960629921,
          "duration": 0.21428549999998836
        },
        {
          "name": "C#5",
          "midi": 73,
          "time": 251.03546325000036,
          "velocity": 0.7480314960629921,
          "duration": 0.21428549999998836
        },
        {
          "name": "C#6",
          "midi": 85,
          "time": 251.03546325000036,
          "velocity": 0.7480314960629921,
          "duration": 0.21428549999998836
        },
        {
          "name": "C#7",
          "midi": 97,
          "time": 251.03546325000036,
          "velocity": 0.7480314960629921,
          "duration": 0.21428549999998836
        },
        {
          "name": "C#4",
          "midi": 61,
          "time": 251.24974875000035,
          "velocity": 0.7480314960629921,
          "duration": 0.42857100000000514
        },
        {
          "name": "C#5",
          "midi": 73,
          "time": 251.24974875000035,
          "velocity": 0.7480314960629921,
          "duration": 0.42857100000000514
        },
        {
          "name": "C#6",
          "midi": 85,
          "time": 251.24974875000035,
          "velocity": 0.7480314960629921,
          "duration": 0.42857100000000514
        },
        {
          "name": "C#7",
          "midi": 97,
          "time": 251.24974875000035,
          "velocity": 0.7480314960629921,
          "duration": 0.42857100000000514
        },
        {
          "name": "C#4",
          "midi": 61,
          "time": 251.67831975000036,
          "velocity": 0.7480314960629921,
          "duration": 0.21428549999998836
        },
        {
          "name": "C#5",
          "midi": 73,
          "time": 251.67831975000036,
          "velocity": 0.7480314960629921,
          "duration": 0.21428549999998836
        },
        {
          "name": "C#6",
          "midi": 85,
          "time": 251.67831975000036,
          "velocity": 0.7480314960629921,
          "duration": 0.21428549999998836
        },
        {
          "name": "C#7",
          "midi": 97,
          "time": 251.67831975000036,
          "velocity": 0.7480314960629921,
          "duration": 0.21428549999998836
        },
        {
          "name": "D4",
          "midi": 62,
          "time": 251.89260525000034,
          "velocity": 0.7480314960629921,
          "duration": 0.21428549999998836
        },
        {
          "name": "D5",
          "midi": 74,
          "time": 251.89260525000034,
          "velocity": 0.7480314960629921,
          "duration": 0.21428549999998836
        },
        {
          "name": "D6",
          "midi": 86,
          "time": 251.89260525000034,
          "velocity": 0.7480314960629921,
          "duration": 0.21428549999998836
        },
        {
          "name": "D7",
          "midi": 98,
          "time": 251.89260525000034,
          "velocity": 0.7480314960629921,
          "duration": 0.21428549999998836
        },
        {
          "name": "D4",
          "midi": 62,
          "time": 252.10689075000033,
          "velocity": 0.7480314960629921,
          "duration": 0.42857100000000514
        },
        {
          "name": "D5",
          "midi": 74,
          "time": 252.10689075000033,
          "velocity": 0.7480314960629921,
          "duration": 0.42857100000000514
        },
        {
          "name": "D6",
          "midi": 86,
          "time": 252.10689075000033,
          "velocity": 0.7480314960629921,
          "duration": 0.42857100000000514
        },
        {
          "name": "D7",
          "midi": 98,
          "time": 252.10689075000033,
          "velocity": 0.7480314960629921,
          "duration": 0.42857100000000514
        },
        {
          "name": "D4",
          "midi": 62,
          "time": 252.53546175000034,
          "velocity": 0.7480314960629921,
          "duration": 0.21428549999998836
        },
        {
          "name": "D5",
          "midi": 74,
          "time": 252.53546175000034,
          "velocity": 0.7480314960629921,
          "duration": 0.21428549999998836
        },
        {
          "name": "D6",
          "midi": 86,
          "time": 252.53546175000034,
          "velocity": 0.7480314960629921,
          "duration": 0.21428549999998836
        },
        {
          "name": "D7",
          "midi": 98,
          "time": 252.53546175000034,
          "velocity": 0.7480314960629921,
          "duration": 0.21428549999998836
        },
        {
          "name": "E4",
          "midi": 64,
          "time": 252.74974725000033,
          "velocity": 0.7480314960629921,
          "duration": 0.21428549999998836
        },
        {
          "name": "E5",
          "midi": 76,
          "time": 252.74974725000033,
          "velocity": 0.7480314960629921,
          "duration": 0.21428549999998836
        },
        {
          "name": "E6",
          "midi": 88,
          "time": 252.74974725000033,
          "velocity": 0.7480314960629921,
          "duration": 0.21428549999998836
        },
        {
          "name": "E7",
          "midi": 100,
          "time": 252.74974725000033,
          "velocity": 0.7480314960629921,
          "duration": 0.21428549999998836
        },
        {
          "name": "E4",
          "midi": 64,
          "time": 252.9640327500003,
          "velocity": 0.7480314960629921,
          "duration": 0.42857100000000514
        },
        {
          "name": "E5",
          "midi": 76,
          "time": 252.9640327500003,
          "velocity": 0.7480314960629921,
          "duration": 0.42857100000000514
        },
        {
          "name": "E6",
          "midi": 88,
          "time": 252.9640327500003,
          "velocity": 0.7480314960629921,
          "duration": 0.42857100000000514
        },
        {
          "name": "E7",
          "midi": 100,
          "time": 252.9640327500003,
          "velocity": 0.7480314960629921,
          "duration": 0.42857100000000514
        },
        {
          "name": "E4",
          "midi": 64,
          "time": 253.39260375000032,
          "velocity": 0.7480314960629921,
          "duration": 0.21428549999998836
        },
        {
          "name": "E5",
          "midi": 76,
          "time": 253.39260375000032,
          "velocity": 0.7480314960629921,
          "duration": 0.21428549999998836
        },
        {
          "name": "E6",
          "midi": 88,
          "time": 253.39260375000032,
          "velocity": 0.7480314960629921,
          "duration": 0.21428549999998836
        },
        {
          "name": "E7",
          "midi": 100,
          "time": 253.39260375000032,
          "velocity": 0.7480314960629921,
          "duration": 0.21428549999998836
        },
        {
          "name": "C4",
          "midi": 60,
          "time": 253.6068892500003,
          "velocity": 0.7480314960629921,
          "duration": 0.21428549999998836
        },
        {
          "name": "C5",
          "midi": 72,
          "time": 253.6068892500003,
          "velocity": 0.7480314960629921,
          "duration": 0.21428549999998836
        },
        {
          "name": "C6",
          "midi": 84,
          "time": 253.6068892500003,
          "velocity": 0.7480314960629921,
          "duration": 0.21428549999998836
        },
        {
          "name": "C7",
          "midi": 96,
          "time": 253.6068892500003,
          "velocity": 0.7480314960629921,
          "duration": 0.21428549999998836
        },
        {
          "name": "C4",
          "midi": 60,
          "time": 253.8211747500003,
          "velocity": 0.7480314960629921,
          "duration": 0.42857100000000514
        },
        {
          "name": "C5",
          "midi": 72,
          "time": 253.8211747500003,
          "velocity": 0.7480314960629921,
          "duration": 0.42857100000000514
        },
        {
          "name": "C6",
          "midi": 84,
          "time": 253.8211747500003,
          "velocity": 0.7480314960629921,
          "duration": 0.42857100000000514
        },
        {
          "name": "C7",
          "midi": 96,
          "time": 253.8211747500003,
          "velocity": 0.7480314960629921,
          "duration": 0.42857100000000514
        },
        {
          "name": "C4",
          "midi": 60,
          "time": 254.2497457500003,
          "velocity": 0.7480314960629921,
          "duration": 0.21428549999998836
        },
        {
          "name": "C5",
          "midi": 72,
          "time": 254.2497457500003,
          "velocity": 0.7480314960629921,
          "duration": 0.21428549999998836
        },
        {
          "name": "C6",
          "midi": 84,
          "time": 254.2497457500003,
          "velocity": 0.7480314960629921,
          "duration": 0.21428549999998836
        },
        {
          "name": "C7",
          "midi": 96,
          "time": 254.2497457500003,
          "velocity": 0.7480314960629921,
          "duration": 0.21428549999998836
        },
        {
          "name": "C#4",
          "midi": 61,
          "time": 254.4640312500003,
          "velocity": 0.7480314960629921,
          "duration": 0.21428549999998836
        },
        {
          "name": "C#5",
          "midi": 73,
          "time": 254.4640312500003,
          "velocity": 0.7480314960629921,
          "duration": 0.21428549999998836
        },
        {
          "name": "C#6",
          "midi": 85,
          "time": 254.4640312500003,
          "velocity": 0.7480314960629921,
          "duration": 0.21428549999998836
        },
        {
          "name": "C#7",
          "midi": 97,
          "time": 254.4640312500003,
          "velocity": 0.7480314960629921,
          "duration": 0.21428549999998836
        },
        {
          "name": "C#4",
          "midi": 61,
          "time": 254.67831675000028,
          "velocity": 0.7480314960629921,
          "duration": 0.42857100000000514
        },
        {
          "name": "C#5",
          "midi": 73,
          "time": 254.67831675000028,
          "velocity": 0.7480314960629921,
          "duration": 0.42857100000000514
        },
        {
          "name": "C#6",
          "midi": 85,
          "time": 254.67831675000028,
          "velocity": 0.7480314960629921,
          "duration": 0.42857100000000514
        },
        {
          "name": "C#7",
          "midi": 97,
          "time": 254.67831675000028,
          "velocity": 0.7480314960629921,
          "duration": 0.42857100000000514
        },
        {
          "name": "C#4",
          "midi": 61,
          "time": 255.10688775000028,
          "velocity": 0.7480314960629921,
          "duration": 0.21428549999998836
        },
        {
          "name": "C#5",
          "midi": 73,
          "time": 255.10688775000028,
          "velocity": 0.7480314960629921,
          "duration": 0.21428549999998836
        },
        {
          "name": "C#6",
          "midi": 85,
          "time": 255.10688775000028,
          "velocity": 0.7480314960629921,
          "duration": 0.21428549999998836
        },
        {
          "name": "C#7",
          "midi": 97,
          "time": 255.10688775000028,
          "velocity": 0.7480314960629921,
          "duration": 0.21428549999998836
        },
        {
          "name": "D4",
          "midi": 62,
          "time": 255.32117325000027,
          "velocity": 0.7480314960629921,
          "duration": 0.21428549999998836
        },
        {
          "name": "D5",
          "midi": 74,
          "time": 255.32117325000027,
          "velocity": 0.7480314960629921,
          "duration": 0.21428549999998836
        },
        {
          "name": "D6",
          "midi": 86,
          "time": 255.32117325000027,
          "velocity": 0.7480314960629921,
          "duration": 0.21428549999998836
        },
        {
          "name": "D7",
          "midi": 98,
          "time": 255.32117325000027,
          "velocity": 0.7480314960629921,
          "duration": 0.21428549999998836
        },
        {
          "name": "D4",
          "midi": 62,
          "time": 255.53545875000026,
          "velocity": 0.7480314960629921,
          "duration": 0.42857100000000514
        },
        {
          "name": "D5",
          "midi": 74,
          "time": 255.53545875000026,
          "velocity": 0.7480314960629921,
          "duration": 0.42857100000000514
        },
        {
          "name": "D6",
          "midi": 86,
          "time": 255.53545875000026,
          "velocity": 0.7480314960629921,
          "duration": 0.42857100000000514
        },
        {
          "name": "D7",
          "midi": 98,
          "time": 255.53545875000026,
          "velocity": 0.7480314960629921,
          "duration": 0.42857100000000514
        },
        {
          "name": "D4",
          "midi": 62,
          "time": 255.96402975000026,
          "velocity": 0.7480314960629921,
          "duration": 0.21428549999998836
        },
        {
          "name": "D5",
          "midi": 74,
          "time": 255.96402975000026,
          "velocity": 0.7480314960629921,
          "duration": 0.21428549999998836
        },
        {
          "name": "D6",
          "midi": 86,
          "time": 255.96402975000026,
          "velocity": 0.7480314960629921,
          "duration": 0.21428549999998836
        },
        {
          "name": "D7",
          "midi": 98,
          "time": 255.96402975000026,
          "velocity": 0.7480314960629921,
          "duration": 0.21428549999998836
        },
        {
          "name": "D#4",
          "midi": 63,
          "time": 256.17831525000025,
          "velocity": 0.7480314960629921,
          "duration": 0.21428550000001678
        },
        {
          "name": "D#5",
          "midi": 75,
          "time": 256.17831525000025,
          "velocity": 0.7480314960629921,
          "duration": 0.21428550000001678
        },
        {
          "name": "D#6",
          "midi": 87,
          "time": 256.17831525000025,
          "velocity": 0.7480314960629921,
          "duration": 0.21428550000001678
        },
        {
          "name": "D#7",
          "midi": 99,
          "time": 256.17831525000025,
          "velocity": 0.7480314960629921,
          "duration": 0.21428550000001678
        },
        {
          "name": "D#4",
          "midi": 63,
          "time": 256.39260075000027,
          "velocity": 0.7480314960629921,
          "duration": 0.4285709999999767
        },
        {
          "name": "D#5",
          "midi": 75,
          "time": 256.39260075000027,
          "velocity": 0.7480314960629921,
          "duration": 0.4285709999999767
        },
        {
          "name": "D#6",
          "midi": 87,
          "time": 256.39260075000027,
          "velocity": 0.7480314960629921,
          "duration": 0.4285709999999767
        },
        {
          "name": "D#7",
          "midi": 99,
          "time": 256.39260075000027,
          "velocity": 0.7480314960629921,
          "duration": 0.4285709999999767
        },
        {
          "name": "D#4",
          "midi": 63,
          "time": 256.82117175000025,
          "velocity": 0.7480314960629921,
          "duration": 0.21428550000001678
        },
        {
          "name": "D#5",
          "midi": 75,
          "time": 256.82117175000025,
          "velocity": 0.7480314960629921,
          "duration": 0.21428550000001678
        },
        {
          "name": "D#6",
          "midi": 87,
          "time": 256.82117175000025,
          "velocity": 0.7480314960629921,
          "duration": 0.21428550000001678
        },
        {
          "name": "D#7",
          "midi": 99,
          "time": 256.82117175000025,
          "velocity": 0.7480314960629921,
          "duration": 0.21428550000001678
        },
        {
          "name": "C4",
          "midi": 60,
          "time": 257.03545725000026,
          "velocity": 0.7480314960629921,
          "duration": 0.21428550000001678
        },
        {
          "name": "C5",
          "midi": 72,
          "time": 257.03545725000026,
          "velocity": 0.7480314960629921,
          "duration": 0.21428550000001678
        },
        {
          "name": "C6",
          "midi": 84,
          "time": 257.03545725000026,
          "velocity": 0.7480314960629921,
          "duration": 0.21428550000001678
        },
        {
          "name": "C7",
          "midi": 96,
          "time": 257.03545725000026,
          "velocity": 0.7480314960629921,
          "duration": 0.21428550000001678
        },
        {
          "name": "C4",
          "midi": 60,
          "time": 257.2497427500003,
          "velocity": 0.7480314960629921,
          "duration": 0.4285709999999767
        },
        {
          "name": "C5",
          "midi": 72,
          "time": 257.2497427500003,
          "velocity": 0.7480314960629921,
          "duration": 0.4285709999999767
        },
        {
          "name": "C6",
          "midi": 84,
          "time": 257.2497427500003,
          "velocity": 0.7480314960629921,
          "duration": 0.4285709999999767
        },
        {
          "name": "C7",
          "midi": 96,
          "time": 257.2497427500003,
          "velocity": 0.7480314960629921,
          "duration": 0.4285709999999767
        },
        {
          "name": "C4",
          "midi": 60,
          "time": 257.67831375000026,
          "velocity": 0.7480314960629921,
          "duration": 0.21428550000001678
        },
        {
          "name": "C5",
          "midi": 72,
          "time": 257.67831375000026,
          "velocity": 0.7480314960629921,
          "duration": 0.21428550000001678
        },
        {
          "name": "C6",
          "midi": 84,
          "time": 257.67831375000026,
          "velocity": 0.7480314960629921,
          "duration": 0.21428550000001678
        },
        {
          "name": "C7",
          "midi": 96,
          "time": 257.67831375000026,
          "velocity": 0.7480314960629921,
          "duration": 0.21428550000001678
        },
        {
          "name": "C#4",
          "midi": 61,
          "time": 257.8925992500003,
          "velocity": 0.7480314960629921,
          "duration": 0.21428550000001678
        },
        {
          "name": "C#5",
          "midi": 73,
          "time": 257.8925992500003,
          "velocity": 0.7480314960629921,
          "duration": 0.21428550000001678
        },
        {
          "name": "C#6",
          "midi": 85,
          "time": 257.8925992500003,
          "velocity": 0.7480314960629921,
          "duration": 0.21428550000001678
        },
        {
          "name": "C#7",
          "midi": 97,
          "time": 257.8925992500003,
          "velocity": 0.7480314960629921,
          "duration": 0.21428550000001678
        },
        {
          "name": "C#4",
          "midi": 61,
          "time": 258.1068847500003,
          "velocity": 0.7480314960629921,
          "duration": 0.4285709999999767
        },
        {
          "name": "C#5",
          "midi": 73,
          "time": 258.1068847500003,
          "velocity": 0.7480314960629921,
          "duration": 0.4285709999999767
        },
        {
          "name": "C#6",
          "midi": 85,
          "time": 258.1068847500003,
          "velocity": 0.7480314960629921,
          "duration": 0.4285709999999767
        },
        {
          "name": "C#7",
          "midi": 97,
          "time": 258.1068847500003,
          "velocity": 0.7480314960629921,
          "duration": 0.4285709999999767
        },
        {
          "name": "C#4",
          "midi": 61,
          "time": 258.53545575000027,
          "velocity": 0.7480314960629921,
          "duration": 0.21428550000001678
        },
        {
          "name": "C#5",
          "midi": 73,
          "time": 258.53545575000027,
          "velocity": 0.7480314960629921,
          "duration": 0.21428550000001678
        },
        {
          "name": "C#6",
          "midi": 85,
          "time": 258.53545575000027,
          "velocity": 0.7480314960629921,
          "duration": 0.21428550000001678
        },
        {
          "name": "C#7",
          "midi": 97,
          "time": 258.53545575000027,
          "velocity": 0.7480314960629921,
          "duration": 0.21428550000001678
        },
        {
          "name": "D4",
          "midi": 62,
          "time": 258.7497412500003,
          "velocity": 0.7480314960629921,
          "duration": 0.21428550000001678
        },
        {
          "name": "D5",
          "midi": 74,
          "time": 258.7497412500003,
          "velocity": 0.7480314960629921,
          "duration": 0.21428550000001678
        },
        {
          "name": "D6",
          "midi": 86,
          "time": 258.7497412500003,
          "velocity": 0.7480314960629921,
          "duration": 0.21428550000001678
        },
        {
          "name": "D7",
          "midi": 98,
          "time": 258.7497412500003,
          "velocity": 0.7480314960629921,
          "duration": 0.21428550000001678
        },
        {
          "name": "D4",
          "midi": 62,
          "time": 258.9640267500003,
          "velocity": 0.7480314960629921,
          "duration": 0.4285709999999767
        },
        {
          "name": "D5",
          "midi": 74,
          "time": 258.9640267500003,
          "velocity": 0.7480314960629921,
          "duration": 0.4285709999999767
        },
        {
          "name": "D6",
          "midi": 86,
          "time": 258.9640267500003,
          "velocity": 0.7480314960629921,
          "duration": 0.4285709999999767
        },
        {
          "name": "D7",
          "midi": 98,
          "time": 258.9640267500003,
          "velocity": 0.7480314960629921,
          "duration": 0.4285709999999767
        },
        {
          "name": "D4",
          "midi": 62,
          "time": 259.3925977500003,
          "velocity": 0.7480314960629921,
          "duration": 0.21428550000001678
        },
        {
          "name": "D5",
          "midi": 74,
          "time": 259.3925977500003,
          "velocity": 0.7480314960629921,
          "duration": 0.21428550000001678
        },
        {
          "name": "D6",
          "midi": 86,
          "time": 259.3925977500003,
          "velocity": 0.7480314960629921,
          "duration": 0.21428550000001678
        },
        {
          "name": "D7",
          "midi": 98,
          "time": 259.3925977500003,
          "velocity": 0.7480314960629921,
          "duration": 0.21428550000001678
        },
        {
          "name": "E4",
          "midi": 64,
          "time": 259.6068832500003,
          "velocity": 0.7480314960629921,
          "duration": 0.21428550000001678
        },
        {
          "name": "E5",
          "midi": 76,
          "time": 259.6068832500003,
          "velocity": 0.7480314960629921,
          "duration": 0.21428550000001678
        },
        {
          "name": "E6",
          "midi": 88,
          "time": 259.6068832500003,
          "velocity": 0.7480314960629921,
          "duration": 0.21428550000001678
        },
        {
          "name": "E7",
          "midi": 100,
          "time": 259.6068832500003,
          "velocity": 0.7480314960629921,
          "duration": 0.21428550000001678
        },
        {
          "name": "E4",
          "midi": 64,
          "time": 259.8211687500003,
          "velocity": 0.7480314960629921,
          "duration": 0.8571420000000103
        },
        {
          "name": "E5",
          "midi": 76,
          "time": 259.8211687500003,
          "velocity": 0.7480314960629921,
          "duration": 0.8571420000000103
        },
        {
          "name": "E6",
          "midi": 88,
          "time": 259.8211687500003,
          "velocity": 0.7480314960629921,
          "duration": 0.8571420000000103
        },
        {
          "name": "E7",
          "midi": 100,
          "time": 259.8211687500003,
          "velocity": 0.7480314960629921,
          "duration": 0.8571420000000103
        },
        {
          "name": "C#4",
          "midi": 61,
          "time": 261.71402400000034,
          "velocity": 0.7480314960629921,
          "duration": 0.21428550000001678
        },
        {
          "name": "C#5",
          "midi": 73,
          "time": 261.71402400000034,
          "velocity": 0.7480314960629921,
          "duration": 0.21428550000001678
        },
        {
          "name": "C#6",
          "midi": 85,
          "time": 261.71402400000034,
          "velocity": 0.7480314960629921,
          "duration": 0.21428550000001678
        },
        {
          "name": "C#7",
          "midi": 97,
          "time": 261.71402400000034,
          "velocity": 0.7480314960629921,
          "duration": 0.21428550000001678
        },
        {
          "name": "D#4",
          "midi": 63,
          "time": 261.92830950000035,
          "velocity": 0.7480314960629921,
          "duration": 0.21428550000001678
        },
        {
          "name": "D#5",
          "midi": 75,
          "time": 261.92830950000035,
          "velocity": 0.7480314960629921,
          "duration": 0.21428550000001678
        },
        {
          "name": "D#6",
          "midi": 87,
          "time": 261.92830950000035,
          "velocity": 0.7480314960629921,
          "duration": 0.21428550000001678
        },
        {
          "name": "D#7",
          "midi": 99,
          "time": 261.92830950000035,
          "velocity": 0.7480314960629921,
          "duration": 0.21428550000001678
        },
        {
          "name": "E4",
          "midi": 64,
          "time": 262.14259500000037,
          "velocity": 0.7480314960629921,
          "duration": 0.21428550000001678
        },
        {
          "name": "E5",
          "midi": 76,
          "time": 262.14259500000037,
          "velocity": 0.7480314960629921,
          "duration": 0.21428550000001678
        },
        {
          "name": "E6",
          "midi": 88,
          "time": 262.14259500000037,
          "velocity": 0.7480314960629921,
          "duration": 0.21428550000001678
        },
        {
          "name": "E7",
          "midi": 100,
          "time": 262.14259500000037,
          "velocity": 0.7480314960629921,
          "duration": 0.21428550000001678
        },
        {
          "name": "D#4",
          "midi": 63,
          "time": 262.3568805000004,
          "velocity": 0.7480314960629921,
          "duration": 0.21428550000001678
        },
        {
          "name": "D#5",
          "midi": 75,
          "time": 262.3568805000004,
          "velocity": 0.7480314960629921,
          "duration": 0.21428550000001678
        },
        {
          "name": "D#6",
          "midi": 87,
          "time": 262.3568805000004,
          "velocity": 0.7480314960629921,
          "duration": 0.21428550000001678
        },
        {
          "name": "D#7",
          "midi": 99,
          "time": 262.3568805000004,
          "velocity": 0.7480314960629921,
          "duration": 0.21428550000001678
        },
        {
          "name": "D4",
          "midi": 62,
          "time": 262.5711660000004,
          "velocity": 0.7480314960629921,
          "duration": 0.21428550000001678
        },
        {
          "name": "D5",
          "midi": 74,
          "time": 262.5711660000004,
          "velocity": 0.7480314960629921,
          "duration": 0.21428550000001678
        },
        {
          "name": "D6",
          "midi": 86,
          "time": 262.5711660000004,
          "velocity": 0.7480314960629921,
          "duration": 0.21428550000001678
        },
        {
          "name": "D7",
          "midi": 98,
          "time": 262.5711660000004,
          "velocity": 0.7480314960629921,
          "duration": 0.21428550000001678
        },
        {
          "name": "C#4",
          "midi": 61,
          "time": 262.7854515000004,
          "velocity": 0.7480314960629921,
          "duration": 0.21428550000001678
        },
        {
          "name": "C#5",
          "midi": 73,
          "time": 262.7854515000004,
          "velocity": 0.7480314960629921,
          "duration": 0.21428550000001678
        },
        {
          "name": "C#6",
          "midi": 85,
          "time": 262.7854515000004,
          "velocity": 0.7480314960629921,
          "duration": 0.21428550000001678
        },
        {
          "name": "C#7",
          "midi": 97,
          "time": 262.7854515000004,
          "velocity": 0.7480314960629921,
          "duration": 0.21428550000001678
        },
        {
          "name": "D#4",
          "midi": 63,
          "time": 262.99973700000044,
          "velocity": 0.7480314960629921,
          "duration": 0.4285709999999767
        },
        {
          "name": "D#5",
          "midi": 75,
          "time": 262.99973700000044,
          "velocity": 0.7480314960629921,
          "duration": 0.4285709999999767
        },
        {
          "name": "D#6",
          "midi": 87,
          "time": 262.99973700000044,
          "velocity": 0.7480314960629921,
          "duration": 0.4285709999999767
        },
        {
          "name": "D#7",
          "midi": 99,
          "time": 262.99973700000044,
          "velocity": 0.7480314960629921,
          "duration": 0.4285709999999767
        },
        {
          "name": "C#4",
          "midi": 61,
          "time": 263.4283080000004,
          "velocity": 0.7480314960629921,
          "duration": 0.21428550000001678
        },
        {
          "name": "C#5",
          "midi": 73,
          "time": 263.4283080000004,
          "velocity": 0.7480314960629921,
          "duration": 0.21428550000001678
        },
        {
          "name": "C#6",
          "midi": 85,
          "time": 263.4283080000004,
          "velocity": 0.7480314960629921,
          "duration": 0.21428550000001678
        },
        {
          "name": "C#7",
          "midi": 97,
          "time": 263.4283080000004,
          "velocity": 0.7480314960629921,
          "duration": 0.21428550000001678
        },
        {
          "name": "D#4",
          "midi": 63,
          "time": 263.64259350000043,
          "velocity": 0.7480314960629921,
          "duration": 0.21428550000001678
        },
        {
          "name": "D#5",
          "midi": 75,
          "time": 263.64259350000043,
          "velocity": 0.7480314960629921,
          "duration": 0.21428550000001678
        },
        {
          "name": "D#6",
          "midi": 87,
          "time": 263.64259350000043,
          "velocity": 0.7480314960629921,
          "duration": 0.21428550000001678
        },
        {
          "name": "D#7",
          "midi": 99,
          "time": 263.64259350000043,
          "velocity": 0.7480314960629921,
          "duration": 0.21428550000001678
        },
        {
          "name": "E4",
          "midi": 64,
          "time": 263.85687900000045,
          "velocity": 0.7480314960629921,
          "duration": 0.21428550000001678
        },
        {
          "name": "E5",
          "midi": 76,
          "time": 263.85687900000045,
          "velocity": 0.7480314960629921,
          "duration": 0.21428550000001678
        },
        {
          "name": "E6",
          "midi": 88,
          "time": 263.85687900000045,
          "velocity": 0.7480314960629921,
          "duration": 0.21428550000001678
        },
        {
          "name": "E7",
          "midi": 100,
          "time": 263.85687900000045,
          "velocity": 0.7480314960629921,
          "duration": 0.21428550000001678
        },
        {
          "name": "D#4",
          "midi": 63,
          "time": 264.07116450000046,
          "velocity": 0.7480314960629921,
          "duration": 0.21428550000001678
        },
        {
          "name": "D#5",
          "midi": 75,
          "time": 264.07116450000046,
          "velocity": 0.7480314960629921,
          "duration": 0.21428550000001678
        },
        {
          "name": "D#6",
          "midi": 87,
          "time": 264.07116450000046,
          "velocity": 0.7480314960629921,
          "duration": 0.21428550000001678
        },
        {
          "name": "D#7",
          "midi": 99,
          "time": 264.07116450000046,
          "velocity": 0.7480314960629921,
          "duration": 0.21428550000001678
        },
        {
          "name": "D4",
          "midi": 62,
          "time": 264.2854500000005,
          "velocity": 0.7480314960629921,
          "duration": 0.21428550000001678
        },
        {
          "name": "D5",
          "midi": 74,
          "time": 264.2854500000005,
          "velocity": 0.7480314960629921,
          "duration": 0.21428550000001678
        },
        {
          "name": "D6",
          "midi": 86,
          "time": 264.2854500000005,
          "velocity": 0.7480314960629921,
          "duration": 0.21428550000001678
        },
        {
          "name": "D7",
          "midi": 98,
          "time": 264.2854500000005,
          "velocity": 0.7480314960629921,
          "duration": 0.21428550000001678
        },
        {
          "name": "C#4",
          "midi": 61,
          "time": 264.4997355000005,
          "velocity": 0.7480314960629921,
          "duration": 0.21428550000001678
        },
        {
          "name": "C#5",
          "midi": 73,
          "time": 264.4997355000005,
          "velocity": 0.7480314960629921,
          "duration": 0.21428550000001678
        },
        {
          "name": "C#6",
          "midi": 85,
          "time": 264.4997355000005,
          "velocity": 0.7480314960629921,
          "duration": 0.21428550000001678
        },
        {
          "name": "C#7",
          "midi": 97,
          "time": 264.4997355000005,
          "velocity": 0.7480314960629921,
          "duration": 0.21428550000001678
        },
        {
          "name": "D#4",
          "midi": 63,
          "time": 264.7140210000005,
          "velocity": 0.7480314960629921,
          "duration": 0.4285709999999767
        },
        {
          "name": "D#5",
          "midi": 75,
          "time": 264.7140210000005,
          "velocity": 0.7480314960629921,
          "duration": 0.4285709999999767
        },
        {
          "name": "D#6",
          "midi": 87,
          "time": 264.7140210000005,
          "velocity": 0.7480314960629921,
          "duration": 0.4285709999999767
        },
        {
          "name": "D#7",
          "midi": 99,
          "time": 264.7140210000005,
          "velocity": 0.7480314960629921,
          "duration": 0.4285709999999767
        },
        {
          "name": "C#4",
          "midi": 61,
          "time": 265.1425920000005,
          "velocity": 0.7480314960629921,
          "duration": 0.21428550000001678
        },
        {
          "name": "C#5",
          "midi": 73,
          "time": 265.1425920000005,
          "velocity": 0.7480314960629921,
          "duration": 0.21428550000001678
        },
        {
          "name": "C#6",
          "midi": 85,
          "time": 265.1425920000005,
          "velocity": 0.7480314960629921,
          "duration": 0.21428550000001678
        },
        {
          "name": "C#7",
          "midi": 97,
          "time": 265.1425920000005,
          "velocity": 0.7480314960629921,
          "duration": 0.21428550000001678
        },
        {
          "name": "D#4",
          "midi": 63,
          "time": 265.3568775000005,
          "velocity": 0.7480314960629921,
          "duration": 0.21428550000001678
        },
        {
          "name": "D#5",
          "midi": 75,
          "time": 265.3568775000005,
          "velocity": 0.7480314960629921,
          "duration": 0.21428550000001678
        },
        {
          "name": "D#6",
          "midi": 87,
          "time": 265.3568775000005,
          "velocity": 0.7480314960629921,
          "duration": 0.21428550000001678
        },
        {
          "name": "D#7",
          "midi": 99,
          "time": 265.3568775000005,
          "velocity": 0.7480314960629921,
          "duration": 0.21428550000001678
        },
        {
          "name": "E4",
          "midi": 64,
          "time": 265.5711630000005,
          "velocity": 0.7480314960629921,
          "duration": 0.21428550000001678
        },
        {
          "name": "E5",
          "midi": 76,
          "time": 265.5711630000005,
          "velocity": 0.7480314960629921,
          "duration": 0.21428550000001678
        },
        {
          "name": "E6",
          "midi": 88,
          "time": 265.5711630000005,
          "velocity": 0.7480314960629921,
          "duration": 0.21428550000001678
        },
        {
          "name": "E7",
          "midi": 100,
          "time": 265.5711630000005,
          "velocity": 0.7480314960629921,
          "duration": 0.21428550000001678
        },
        {
          "name": "D#4",
          "midi": 63,
          "time": 265.78544850000054,
          "velocity": 0.7480314960629921,
          "duration": 0.21428550000001678
        },
        {
          "name": "D#5",
          "midi": 75,
          "time": 265.78544850000054,
          "velocity": 0.7480314960629921,
          "duration": 0.21428550000001678
        },
        {
          "name": "D#6",
          "midi": 87,
          "time": 265.78544850000054,
          "velocity": 0.7480314960629921,
          "duration": 0.21428550000001678
        },
        {
          "name": "D#7",
          "midi": 99,
          "time": 265.78544850000054,
          "velocity": 0.7480314960629921,
          "duration": 0.21428550000001678
        },
        {
          "name": "D4",
          "midi": 62,
          "time": 265.99973400000056,
          "velocity": 0.7480314960629921,
          "duration": 0.21428550000001678
        },
        {
          "name": "D5",
          "midi": 74,
          "time": 265.99973400000056,
          "velocity": 0.7480314960629921,
          "duration": 0.21428550000001678
        },
        {
          "name": "D6",
          "midi": 86,
          "time": 265.99973400000056,
          "velocity": 0.7480314960629921,
          "duration": 0.21428550000001678
        },
        {
          "name": "D7",
          "midi": 98,
          "time": 265.99973400000056,
          "velocity": 0.7480314960629921,
          "duration": 0.21428550000001678
        },
        {
          "name": "C#4",
          "midi": 61,
          "time": 266.2140195000006,
          "velocity": 0.7480314960629921,
          "duration": 0.21428550000001678
        },
        {
          "name": "C#5",
          "midi": 73,
          "time": 266.2140195000006,
          "velocity": 0.7480314960629921,
          "duration": 0.21428550000001678
        },
        {
          "name": "C#6",
          "midi": 85,
          "time": 266.2140195000006,
          "velocity": 0.7480314960629921,
          "duration": 0.21428550000001678
        },
        {
          "name": "C#7",
          "midi": 97,
          "time": 266.2140195000006,
          "velocity": 0.7480314960629921,
          "duration": 0.21428550000001678
        },
        {
          "name": "D#4",
          "midi": 63,
          "time": 266.4283050000006,
          "velocity": 0.7480314960629921,
          "duration": 0.4285709999999767
        },
        {
          "name": "D#5",
          "midi": 75,
          "time": 266.4283050000006,
          "velocity": 0.7480314960629921,
          "duration": 0.4285709999999767
        },
        {
          "name": "D#6",
          "midi": 87,
          "time": 266.4283050000006,
          "velocity": 0.7480314960629921,
          "duration": 0.4285709999999767
        },
        {
          "name": "D#7",
          "midi": 99,
          "time": 266.4283050000006,
          "velocity": 0.7480314960629921,
          "duration": 0.4285709999999767
        },
        {
          "name": "C#4",
          "midi": 61,
          "time": 266.85687600000057,
          "velocity": 0.7480314960629921,
          "duration": 0.21428550000001678
        },
        {
          "name": "C#5",
          "midi": 73,
          "time": 266.85687600000057,
          "velocity": 0.7480314960629921,
          "duration": 0.21428550000001678
        },
        {
          "name": "C#6",
          "midi": 85,
          "time": 266.85687600000057,
          "velocity": 0.7480314960629921,
          "duration": 0.21428550000001678
        },
        {
          "name": "C#7",
          "midi": 97,
          "time": 266.85687600000057,
          "velocity": 0.7480314960629921,
          "duration": 0.21428550000001678
        },
        {
          "name": "D#4",
          "midi": 63,
          "time": 267.0711615000006,
          "velocity": 0.7480314960629921,
          "duration": 0.21428550000001678
        },
        {
          "name": "D#5",
          "midi": 75,
          "time": 267.0711615000006,
          "velocity": 0.7480314960629921,
          "duration": 0.21428550000001678
        },
        {
          "name": "D#6",
          "midi": 87,
          "time": 267.0711615000006,
          "velocity": 0.7480314960629921,
          "duration": 0.21428550000001678
        },
        {
          "name": "D#7",
          "midi": 99,
          "time": 267.0711615000006,
          "velocity": 0.7480314960629921,
          "duration": 0.21428550000001678
        },
        {
          "name": "E4",
          "midi": 64,
          "time": 267.2854470000006,
          "velocity": 0.7480314960629921,
          "duration": 0.21428550000001678
        },
        {
          "name": "E5",
          "midi": 76,
          "time": 267.2854470000006,
          "velocity": 0.7480314960629921,
          "duration": 0.21428550000001678
        },
        {
          "name": "E6",
          "midi": 88,
          "time": 267.2854470000006,
          "velocity": 0.7480314960629921,
          "duration": 0.21428550000001678
        },
        {
          "name": "E7",
          "midi": 100,
          "time": 267.2854470000006,
          "velocity": 0.7480314960629921,
          "duration": 0.21428550000001678
        },
        {
          "name": "D#4",
          "midi": 63,
          "time": 267.4997325000006,
          "velocity": 0.7480314960629921,
          "duration": 0.21428550000001678
        },
        {
          "name": "D#5",
          "midi": 75,
          "time": 267.4997325000006,
          "velocity": 0.7480314960629921,
          "duration": 0.21428550000001678
        },
        {
          "name": "D#6",
          "midi": 87,
          "time": 267.4997325000006,
          "velocity": 0.7480314960629921,
          "duration": 0.21428550000001678
        },
        {
          "name": "D#7",
          "midi": 99,
          "time": 267.4997325000006,
          "velocity": 0.7480314960629921,
          "duration": 0.21428550000001678
        },
        {
          "name": "D4",
          "midi": 62,
          "time": 267.71401800000064,
          "velocity": 0.7480314960629921,
          "duration": 0.21428550000001678
        },
        {
          "name": "D5",
          "midi": 74,
          "time": 267.71401800000064,
          "velocity": 0.7480314960629921,
          "duration": 0.21428550000001678
        },
        {
          "name": "D6",
          "midi": 86,
          "time": 267.71401800000064,
          "velocity": 0.7480314960629921,
          "duration": 0.21428550000001678
        },
        {
          "name": "D7",
          "midi": 98,
          "time": 267.71401800000064,
          "velocity": 0.7480314960629921,
          "duration": 0.21428550000001678
        },
        {
          "name": "C4",
          "midi": 60,
          "time": 267.92830350000065,
          "velocity": 0.7480314960629921,
          "duration": 0.21428550000001678
        },
        {
          "name": "C5",
          "midi": 72,
          "time": 267.92830350000065,
          "velocity": 0.7480314960629921,
          "duration": 0.21428550000001678
        },
        {
          "name": "C6",
          "midi": 84,
          "time": 267.92830350000065,
          "velocity": 0.7480314960629921,
          "duration": 0.21428550000001678
        },
        {
          "name": "C7",
          "midi": 96,
          "time": 267.92830350000065,
          "velocity": 0.7480314960629921,
          "duration": 0.21428550000001678
        },
        {
          "name": "D4",
          "midi": 62,
          "time": 268.14258900000067,
          "velocity": 0.7480314960629921,
          "duration": 0.4285709999999767
        },
        {
          "name": "D5",
          "midi": 74,
          "time": 268.14258900000067,
          "velocity": 0.7480314960629921,
          "duration": 0.4285709999999767
        },
        {
          "name": "D6",
          "midi": 86,
          "time": 268.14258900000067,
          "velocity": 0.7480314960629921,
          "duration": 0.4285709999999767
        },
        {
          "name": "D7",
          "midi": 98,
          "time": 268.14258900000067,
          "velocity": 0.7480314960629921,
          "duration": 0.4285709999999767
        },
        {
          "name": "C4",
          "midi": 60,
          "time": 268.57116000000065,
          "velocity": 0.7480314960629921,
          "duration": 0.21428550000001678
        },
        {
          "name": "C5",
          "midi": 72,
          "time": 268.57116000000065,
          "velocity": 0.7480314960629921,
          "duration": 0.21428550000001678
        },
        {
          "name": "C6",
          "midi": 84,
          "time": 268.57116000000065,
          "velocity": 0.7480314960629921,
          "duration": 0.21428550000001678
        },
        {
          "name": "C7",
          "midi": 96,
          "time": 268.57116000000065,
          "velocity": 0.7480314960629921,
          "duration": 0.21428550000001678
        },
        {
          "name": "D#4",
          "midi": 63,
          "time": 268.78544550000066,
          "velocity": 0.7480314960629921,
          "duration": 0.21428550000001678
        },
        {
          "name": "D#5",
          "midi": 75,
          "time": 268.78544550000066,
          "velocity": 0.7480314960629921,
          "duration": 0.21428550000001678
        },
        {
          "name": "D#6",
          "midi": 87,
          "time": 268.78544550000066,
          "velocity": 0.7480314960629921,
          "duration": 0.21428550000001678
        },
        {
          "name": "D#7",
          "midi": 99,
          "time": 268.78544550000066,
          "velocity": 0.7480314960629921,
          "duration": 0.21428550000001678
        },
        {
          "name": "E4",
          "midi": 64,
          "time": 268.9997310000007,
          "velocity": 0.7480314960629921,
          "duration": 0.21428550000001678
        },
        {
          "name": "E5",
          "midi": 76,
          "time": 268.9997310000007,
          "velocity": 0.7480314960629921,
          "duration": 0.21428550000001678
        },
        {
          "name": "E6",
          "midi": 88,
          "time": 268.9997310000007,
          "velocity": 0.7480314960629921,
          "duration": 0.21428550000001678
        },
        {
          "name": "E7",
          "midi": 100,
          "time": 268.9997310000007,
          "velocity": 0.7480314960629921,
          "duration": 0.21428550000001678
        },
        {
          "name": "D#4",
          "midi": 63,
          "time": 269.2140165000007,
          "velocity": 0.7480314960629921,
          "duration": 0.21428550000001678
        },
        {
          "name": "D#5",
          "midi": 75,
          "time": 269.2140165000007,
          "velocity": 0.7480314960629921,
          "duration": 0.21428550000001678
        },
        {
          "name": "D#6",
          "midi": 87,
          "time": 269.2140165000007,
          "velocity": 0.7480314960629921,
          "duration": 0.21428550000001678
        },
        {
          "name": "D#7",
          "midi": 99,
          "time": 269.2140165000007,
          "velocity": 0.7480314960629921,
          "duration": 0.21428550000001678
        },
        {
          "name": "D4",
          "midi": 62,
          "time": 269.4283020000007,
          "velocity": 0.7480314960629921,
          "duration": 0.21428550000001678
        },
        {
          "name": "D5",
          "midi": 74,
          "time": 269.4283020000007,
          "velocity": 0.7480314960629921,
          "duration": 0.21428550000001678
        },
        {
          "name": "D6",
          "midi": 86,
          "time": 269.4283020000007,
          "velocity": 0.7480314960629921,
          "duration": 0.21428550000001678
        },
        {
          "name": "D7",
          "midi": 98,
          "time": 269.4283020000007,
          "velocity": 0.7480314960629921,
          "duration": 0.21428550000001678
        },
        {
          "name": "C4",
          "midi": 60,
          "time": 269.64258750000073,
          "velocity": 0.7480314960629921,
          "duration": 0.21428550000001678
        },
        {
          "name": "C5",
          "midi": 72,
          "time": 269.64258750000073,
          "velocity": 0.7480314960629921,
          "duration": 0.21428550000001678
        },
        {
          "name": "C6",
          "midi": 84,
          "time": 269.64258750000073,
          "velocity": 0.7480314960629921,
          "duration": 0.21428550000001678
        },
        {
          "name": "C7",
          "midi": 96,
          "time": 269.64258750000073,
          "velocity": 0.7480314960629921,
          "duration": 0.21428550000001678
        },
        {
          "name": "D4",
          "midi": 62,
          "time": 269.85687300000075,
          "velocity": 0.7480314960629921,
          "duration": 0.4285709999999767
        },
        {
          "name": "D5",
          "midi": 74,
          "time": 269.85687300000075,
          "velocity": 0.7480314960629921,
          "duration": 0.4285709999999767
        },
        {
          "name": "D6",
          "midi": 86,
          "time": 269.85687300000075,
          "velocity": 0.7480314960629921,
          "duration": 0.4285709999999767
        },
        {
          "name": "D7",
          "midi": 98,
          "time": 269.85687300000075,
          "velocity": 0.7480314960629921,
          "duration": 0.4285709999999767
        },
        {
          "name": "C4",
          "midi": 60,
          "time": 270.2854440000007,
          "velocity": 0.7480314960629921,
          "duration": 0.21428550000001678
        },
        {
          "name": "C5",
          "midi": 72,
          "time": 270.2854440000007,
          "velocity": 0.7480314960629921,
          "duration": 0.21428550000001678
        },
        {
          "name": "C6",
          "midi": 84,
          "time": 270.2854440000007,
          "velocity": 0.7480314960629921,
          "duration": 0.21428550000001678
        },
        {
          "name": "C7",
          "midi": 96,
          "time": 270.2854440000007,
          "velocity": 0.7480314960629921,
          "duration": 0.21428550000001678
        },
        {
          "name": "D#4",
          "midi": 63,
          "time": 270.49972950000074,
          "velocity": 0.7480314960629921,
          "duration": 0.21428550000001678
        },
        {
          "name": "D#5",
          "midi": 75,
          "time": 270.49972950000074,
          "velocity": 0.7480314960629921,
          "duration": 0.21428550000001678
        },
        {
          "name": "D#6",
          "midi": 87,
          "time": 270.49972950000074,
          "velocity": 0.7480314960629921,
          "duration": 0.21428550000001678
        },
        {
          "name": "D#7",
          "midi": 99,
          "time": 270.49972950000074,
          "velocity": 0.7480314960629921,
          "duration": 0.21428550000001678
        },
        {
          "name": "E4",
          "midi": 64,
          "time": 270.71401500000076,
          "velocity": 0.7480314960629921,
          "duration": 0.21428550000001678
        },
        {
          "name": "E5",
          "midi": 76,
          "time": 270.71401500000076,
          "velocity": 0.7480314960629921,
          "duration": 0.21428550000001678
        },
        {
          "name": "E6",
          "midi": 88,
          "time": 270.71401500000076,
          "velocity": 0.7480314960629921,
          "duration": 0.21428550000001678
        },
        {
          "name": "E7",
          "midi": 100,
          "time": 270.71401500000076,
          "velocity": 0.7480314960629921,
          "duration": 0.21428550000001678
        },
        {
          "name": "D#4",
          "midi": 63,
          "time": 270.9283005000008,
          "velocity": 0.7480314960629921,
          "duration": 0.21428550000001678
        },
        {
          "name": "D#5",
          "midi": 75,
          "time": 270.9283005000008,
          "velocity": 0.7480314960629921,
          "duration": 0.21428550000001678
        },
        {
          "name": "D#6",
          "midi": 87,
          "time": 270.9283005000008,
          "velocity": 0.7480314960629921,
          "duration": 0.21428550000001678
        },
        {
          "name": "D#7",
          "midi": 99,
          "time": 270.9283005000008,
          "velocity": 0.7480314960629921,
          "duration": 0.21428550000001678
        },
        {
          "name": "D4",
          "midi": 62,
          "time": 271.1425860000008,
          "velocity": 0.7480314960629921,
          "duration": 0.21428550000001678
        },
        {
          "name": "D5",
          "midi": 74,
          "time": 271.1425860000008,
          "velocity": 0.7480314960629921,
          "duration": 0.21428550000001678
        },
        {
          "name": "D6",
          "midi": 86,
          "time": 271.1425860000008,
          "velocity": 0.7480314960629921,
          "duration": 0.21428550000001678
        },
        {
          "name": "D7",
          "midi": 98,
          "time": 271.1425860000008,
          "velocity": 0.7480314960629921,
          "duration": 0.21428550000001678
        },
        {
          "name": "C4",
          "midi": 60,
          "time": 271.3568715000008,
          "velocity": 0.7480314960629921,
          "duration": 0.21428550000001678
        },
        {
          "name": "C5",
          "midi": 72,
          "time": 271.3568715000008,
          "velocity": 0.7480314960629921,
          "duration": 0.21428550000001678
        },
        {
          "name": "C6",
          "midi": 84,
          "time": 271.3568715000008,
          "velocity": 0.7480314960629921,
          "duration": 0.21428550000001678
        },
        {
          "name": "C7",
          "midi": 96,
          "time": 271.3568715000008,
          "velocity": 0.7480314960629921,
          "duration": 0.21428550000001678
        },
        {
          "name": "D4",
          "midi": 62,
          "time": 271.5711570000008,
          "velocity": 0.7480314960629921,
          "duration": 0.4285709999999767
        },
        {
          "name": "D5",
          "midi": 74,
          "time": 271.5711570000008,
          "velocity": 0.7480314960629921,
          "duration": 0.4285709999999767
        },
        {
          "name": "D6",
          "midi": 86,
          "time": 271.5711570000008,
          "velocity": 0.7480314960629921,
          "duration": 0.4285709999999767
        },
        {
          "name": "D7",
          "midi": 98,
          "time": 271.5711570000008,
          "velocity": 0.7480314960629921,
          "duration": 0.4285709999999767
        },
        {
          "name": "C4",
          "midi": 60,
          "time": 271.9997280000008,
          "velocity": 0.7480314960629921,
          "duration": 0.21428550000001678
        },
        {
          "name": "C5",
          "midi": 72,
          "time": 271.9997280000008,
          "velocity": 0.7480314960629921,
          "duration": 0.21428550000001678
        },
        {
          "name": "C6",
          "midi": 84,
          "time": 271.9997280000008,
          "velocity": 0.7480314960629921,
          "duration": 0.21428550000001678
        },
        {
          "name": "C7",
          "midi": 96,
          "time": 271.9997280000008,
          "velocity": 0.7480314960629921,
          "duration": 0.21428550000001678
        },
        {
          "name": "D#4",
          "midi": 63,
          "time": 272.2140135000008,
          "velocity": 0.7480314960629921,
          "duration": 0.21428550000001678
        },
        {
          "name": "D#5",
          "midi": 75,
          "time": 272.2140135000008,
          "velocity": 0.7480314960629921,
          "duration": 0.21428550000001678
        },
        {
          "name": "D#6",
          "midi": 87,
          "time": 272.2140135000008,
          "velocity": 0.7480314960629921,
          "duration": 0.21428550000001678
        },
        {
          "name": "D#7",
          "midi": 99,
          "time": 272.2140135000008,
          "velocity": 0.7480314960629921,
          "duration": 0.21428550000001678
        },
        {
          "name": "E4",
          "midi": 64,
          "time": 272.42829900000083,
          "velocity": 0.7480314960629921,
          "duration": 0.21428550000001678
        },
        {
          "name": "E5",
          "midi": 76,
          "time": 272.42829900000083,
          "velocity": 0.7480314960629921,
          "duration": 0.21428550000001678
        },
        {
          "name": "E6",
          "midi": 88,
          "time": 272.42829900000083,
          "velocity": 0.7480314960629921,
          "duration": 0.21428550000001678
        },
        {
          "name": "E7",
          "midi": 100,
          "time": 272.42829900000083,
          "velocity": 0.7480314960629921,
          "duration": 0.21428550000001678
        },
        {
          "name": "D#4",
          "midi": 63,
          "time": 272.64258450000085,
          "velocity": 0.7480314960629921,
          "duration": 0.21428550000001678
        },
        {
          "name": "D#5",
          "midi": 75,
          "time": 272.64258450000085,
          "velocity": 0.7480314960629921,
          "duration": 0.21428550000001678
        },
        {
          "name": "D#6",
          "midi": 87,
          "time": 272.64258450000085,
          "velocity": 0.7480314960629921,
          "duration": 0.21428550000001678
        },
        {
          "name": "D#7",
          "midi": 99,
          "time": 272.64258450000085,
          "velocity": 0.7480314960629921,
          "duration": 0.21428550000001678
        },
        {
          "name": "D4",
          "midi": 62,
          "time": 272.85687000000087,
          "velocity": 0.7480314960629921,
          "duration": 0.21428550000001678
        },
        {
          "name": "D5",
          "midi": 74,
          "time": 272.85687000000087,
          "velocity": 0.7480314960629921,
          "duration": 0.21428550000001678
        },
        {
          "name": "D6",
          "midi": 86,
          "time": 272.85687000000087,
          "velocity": 0.7480314960629921,
          "duration": 0.21428550000001678
        },
        {
          "name": "D7",
          "midi": 98,
          "time": 272.85687000000087,
          "velocity": 0.7480314960629921,
          "duration": 0.21428550000001678
        },
        {
          "name": "C4",
          "midi": 60,
          "time": 273.0711555000009,
          "velocity": 0.7480314960629921,
          "duration": 0.21428550000001678
        },
        {
          "name": "C5",
          "midi": 72,
          "time": 273.0711555000009,
          "velocity": 0.7480314960629921,
          "duration": 0.21428550000001678
        },
        {
          "name": "C6",
          "midi": 84,
          "time": 273.0711555000009,
          "velocity": 0.7480314960629921,
          "duration": 0.21428550000001678
        },
        {
          "name": "C7",
          "midi": 96,
          "time": 273.0711555000009,
          "velocity": 0.7480314960629921,
          "duration": 0.21428550000001678
        },
        {
          "name": "D4",
          "midi": 62,
          "time": 273.2854410000009,
          "velocity": 0.7480314960629921,
          "duration": 0.4285709999999767
        },
        {
          "name": "D5",
          "midi": 74,
          "time": 273.2854410000009,
          "velocity": 0.7480314960629921,
          "duration": 0.4285709999999767
        },
        {
          "name": "D6",
          "midi": 86,
          "time": 273.2854410000009,
          "velocity": 0.7480314960629921,
          "duration": 0.4285709999999767
        },
        {
          "name": "D7",
          "midi": 98,
          "time": 273.2854410000009,
          "velocity": 0.7480314960629921,
          "duration": 0.4285709999999767
        },
        {
          "name": "C#4",
          "midi": 61,
          "time": 273.7140120000009,
          "velocity": 0.7480314960629921,
          "duration": 0.21428550000001678
        },
        {
          "name": "C#5",
          "midi": 73,
          "time": 273.7140120000009,
          "velocity": 0.7480314960629921,
          "duration": 0.21428550000001678
        },
        {
          "name": "C#6",
          "midi": 85,
          "time": 273.7140120000009,
          "velocity": 0.7480314960629921,
          "duration": 0.21428550000001678
        },
        {
          "name": "C#7",
          "midi": 97,
          "time": 273.7140120000009,
          "velocity": 0.7480314960629921,
          "duration": 0.21428550000001678
        },
        {
          "name": "D#4",
          "midi": 63,
          "time": 273.9282975000009,
          "velocity": 0.7480314960629921,
          "duration": 0.21428550000001678
        },
        {
          "name": "D#5",
          "midi": 75,
          "time": 273.9282975000009,
          "velocity": 0.7480314960629921,
          "duration": 0.21428550000001678
        },
        {
          "name": "D#6",
          "midi": 87,
          "time": 273.9282975000009,
          "velocity": 0.7480314960629921,
          "duration": 0.21428550000001678
        },
        {
          "name": "D#7",
          "midi": 99,
          "time": 273.9282975000009,
          "velocity": 0.7480314960629921,
          "duration": 0.21428550000001678
        },
        {
          "name": "E4",
          "midi": 64,
          "time": 274.1425830000009,
          "velocity": 0.7480314960629921,
          "duration": 0.21428550000001678
        },
        {
          "name": "E5",
          "midi": 76,
          "time": 274.1425830000009,
          "velocity": 0.7480314960629921,
          "duration": 0.21428550000001678
        },
        {
          "name": "E6",
          "midi": 88,
          "time": 274.1425830000009,
          "velocity": 0.7480314960629921,
          "duration": 0.21428550000001678
        },
        {
          "name": "E7",
          "midi": 100,
          "time": 274.1425830000009,
          "velocity": 0.7480314960629921,
          "duration": 0.21428550000001678
        },
        {
          "name": "D#4",
          "midi": 63,
          "time": 274.3568685000009,
          "velocity": 0.7480314960629921,
          "duration": 0.21428550000001678
        },
        {
          "name": "D#5",
          "midi": 75,
          "time": 274.3568685000009,
          "velocity": 0.7480314960629921,
          "duration": 0.21428550000001678
        },
        {
          "name": "D#6",
          "midi": 87,
          "time": 274.3568685000009,
          "velocity": 0.7480314960629921,
          "duration": 0.21428550000001678
        },
        {
          "name": "D#7",
          "midi": 99,
          "time": 274.3568685000009,
          "velocity": 0.7480314960629921,
          "duration": 0.21428550000001678
        },
        {
          "name": "D4",
          "midi": 62,
          "time": 274.57115400000094,
          "velocity": 0.7480314960629921,
          "duration": 0.21428550000001678
        },
        {
          "name": "D5",
          "midi": 74,
          "time": 274.57115400000094,
          "velocity": 0.7480314960629921,
          "duration": 0.21428550000001678
        },
        {
          "name": "D6",
          "midi": 86,
          "time": 274.57115400000094,
          "velocity": 0.7480314960629921,
          "duration": 0.21428550000001678
        },
        {
          "name": "D7",
          "midi": 98,
          "time": 274.57115400000094,
          "velocity": 0.7480314960629921,
          "duration": 0.21428550000001678
        },
        {
          "name": "C#4",
          "midi": 61,
          "time": 274.78543950000096,
          "velocity": 0.7480314960629921,
          "duration": 0.21428550000001678
        },
        {
          "name": "C#5",
          "midi": 73,
          "time": 274.78543950000096,
          "velocity": 0.7480314960629921,
          "duration": 0.21428550000001678
        },
        {
          "name": "C#6",
          "midi": 85,
          "time": 274.78543950000096,
          "velocity": 0.7480314960629921,
          "duration": 0.21428550000001678
        },
        {
          "name": "C#7",
          "midi": 97,
          "time": 274.78543950000096,
          "velocity": 0.7480314960629921,
          "duration": 0.21428550000001678
        },
        {
          "name": "D#4",
          "midi": 63,
          "time": 274.999725000001,
          "velocity": 0.7480314960629921,
          "duration": 0.4285709999999767
        },
        {
          "name": "D#5",
          "midi": 75,
          "time": 274.999725000001,
          "velocity": 0.7480314960629921,
          "duration": 0.4285709999999767
        },
        {
          "name": "D#6",
          "midi": 87,
          "time": 274.999725000001,
          "velocity": 0.7480314960629921,
          "duration": 0.4285709999999767
        },
        {
          "name": "D#7",
          "midi": 99,
          "time": 274.999725000001,
          "velocity": 0.7480314960629921,
          "duration": 0.4285709999999767
        },
        {
          "name": "C#4",
          "midi": 61,
          "time": 275.42829600000096,
          "velocity": 0.7480314960629921,
          "duration": 0.21428550000001678
        },
        {
          "name": "C#5",
          "midi": 73,
          "time": 275.42829600000096,
          "velocity": 0.7480314960629921,
          "duration": 0.21428550000001678
        },
        {
          "name": "C#6",
          "midi": 85,
          "time": 275.42829600000096,
          "velocity": 0.7480314960629921,
          "duration": 0.21428550000001678
        },
        {
          "name": "C#7",
          "midi": 97,
          "time": 275.42829600000096,
          "velocity": 0.7480314960629921,
          "duration": 0.21428550000001678
        },
        {
          "name": "D#4",
          "midi": 63,
          "time": 275.642581500001,
          "velocity": 0.7480314960629921,
          "duration": 0.21428550000001678
        },
        {
          "name": "D#5",
          "midi": 75,
          "time": 275.642581500001,
          "velocity": 0.7480314960629921,
          "duration": 0.21428550000001678
        },
        {
          "name": "D#6",
          "midi": 87,
          "time": 275.642581500001,
          "velocity": 0.7480314960629921,
          "duration": 0.21428550000001678
        },
        {
          "name": "D#7",
          "midi": 99,
          "time": 275.642581500001,
          "velocity": 0.7480314960629921,
          "duration": 0.21428550000001678
        },
        {
          "name": "E4",
          "midi": 64,
          "time": 275.856867000001,
          "velocity": 0.7480314960629921,
          "duration": 0.21428550000001678
        },
        {
          "name": "E5",
          "midi": 76,
          "time": 275.856867000001,
          "velocity": 0.7480314960629921,
          "duration": 0.21428550000001678
        },
        {
          "name": "E6",
          "midi": 88,
          "time": 275.856867000001,
          "velocity": 0.7480314960629921,
          "duration": 0.21428550000001678
        },
        {
          "name": "E7",
          "midi": 100,
          "time": 275.856867000001,
          "velocity": 0.7480314960629921,
          "duration": 0.21428550000001678
        },
        {
          "name": "D#4",
          "midi": 63,
          "time": 276.071152500001,
          "velocity": 0.7480314960629921,
          "duration": 0.21428550000001678
        },
        {
          "name": "D#5",
          "midi": 75,
          "time": 276.071152500001,
          "velocity": 0.7480314960629921,
          "duration": 0.21428550000001678
        },
        {
          "name": "D#6",
          "midi": 87,
          "time": 276.071152500001,
          "velocity": 0.7480314960629921,
          "duration": 0.21428550000001678
        },
        {
          "name": "D#7",
          "midi": 99,
          "time": 276.071152500001,
          "velocity": 0.7480314960629921,
          "duration": 0.21428550000001678
        },
        {
          "name": "D4",
          "midi": 62,
          "time": 276.285438000001,
          "velocity": 0.7480314960629921,
          "duration": 0.21428550000001678
        },
        {
          "name": "D5",
          "midi": 74,
          "time": 276.285438000001,
          "velocity": 0.7480314960629921,
          "duration": 0.21428550000001678
        },
        {
          "name": "D6",
          "midi": 86,
          "time": 276.285438000001,
          "velocity": 0.7480314960629921,
          "duration": 0.21428550000001678
        },
        {
          "name": "D7",
          "midi": 98,
          "time": 276.285438000001,
          "velocity": 0.7480314960629921,
          "duration": 0.21428550000001678
        },
        {
          "name": "C#4",
          "midi": 61,
          "time": 276.49972350000104,
          "velocity": 0.7480314960629921,
          "duration": 0.21428550000001678
        },
        {
          "name": "C#5",
          "midi": 73,
          "time": 276.49972350000104,
          "velocity": 0.7480314960629921,
          "duration": 0.21428550000001678
        },
        {
          "name": "C#6",
          "midi": 85,
          "time": 276.49972350000104,
          "velocity": 0.7480314960629921,
          "duration": 0.21428550000001678
        },
        {
          "name": "C#7",
          "midi": 97,
          "time": 276.49972350000104,
          "velocity": 0.7480314960629921,
          "duration": 0.21428550000001678
        },
        {
          "name": "D#4",
          "midi": 63,
          "time": 276.71400900000106,
          "velocity": 0.7480314960629921,
          "duration": 0.4285709999999767
        },
        {
          "name": "D#5",
          "midi": 75,
          "time": 276.71400900000106,
          "velocity": 0.7480314960629921,
          "duration": 0.4285709999999767
        },
        {
          "name": "D#6",
          "midi": 87,
          "time": 276.71400900000106,
          "velocity": 0.7480314960629921,
          "duration": 0.4285709999999767
        },
        {
          "name": "D#7",
          "midi": 99,
          "time": 276.71400900000106,
          "velocity": 0.7480314960629921,
          "duration": 0.4285709999999767
        },
        {
          "name": "C#4",
          "midi": 61,
          "time": 277.14258000000103,
          "velocity": 0.7480314960629921,
          "duration": 0.21428550000001678
        },
        {
          "name": "C#5",
          "midi": 73,
          "time": 277.14258000000103,
          "velocity": 0.7480314960629921,
          "duration": 0.21428550000001678
        },
        {
          "name": "C#6",
          "midi": 85,
          "time": 277.14258000000103,
          "velocity": 0.7480314960629921,
          "duration": 0.21428550000001678
        },
        {
          "name": "C#7",
          "midi": 97,
          "time": 277.14258000000103,
          "velocity": 0.7480314960629921,
          "duration": 0.21428550000001678
        },
        {
          "name": "D#4",
          "midi": 63,
          "time": 277.35686550000105,
          "velocity": 0.7480314960629921,
          "duration": 0.21428550000001678
        },
        {
          "name": "D#5",
          "midi": 75,
          "time": 277.35686550000105,
          "velocity": 0.7480314960629921,
          "duration": 0.21428550000001678
        },
        {
          "name": "D#6",
          "midi": 87,
          "time": 277.35686550000105,
          "velocity": 0.7480314960629921,
          "duration": 0.21428550000001678
        },
        {
          "name": "D#7",
          "midi": 99,
          "time": 277.35686550000105,
          "velocity": 0.7480314960629921,
          "duration": 0.21428550000001678
        },
        {
          "name": "E4",
          "midi": 64,
          "time": 277.57115100000107,
          "velocity": 0.7480314960629921,
          "duration": 0.21428550000001678
        },
        {
          "name": "E5",
          "midi": 76,
          "time": 277.57115100000107,
          "velocity": 0.7480314960629921,
          "duration": 0.21428550000001678
        },
        {
          "name": "E6",
          "midi": 88,
          "time": 277.57115100000107,
          "velocity": 0.7480314960629921,
          "duration": 0.21428550000001678
        },
        {
          "name": "E7",
          "midi": 100,
          "time": 277.57115100000107,
          "velocity": 0.7480314960629921,
          "duration": 0.21428550000001678
        },
        {
          "name": "D#4",
          "midi": 63,
          "time": 277.7854365000011,
          "velocity": 0.7480314960629921,
          "duration": 0.21428550000001678
        },
        {
          "name": "D#5",
          "midi": 75,
          "time": 277.7854365000011,
          "velocity": 0.7480314960629921,
          "duration": 0.21428550000001678
        },
        {
          "name": "D#6",
          "midi": 87,
          "time": 277.7854365000011,
          "velocity": 0.7480314960629921,
          "duration": 0.21428550000001678
        },
        {
          "name": "D#7",
          "midi": 99,
          "time": 277.7854365000011,
          "velocity": 0.7480314960629921,
          "duration": 0.21428550000001678
        },
        {
          "name": "D4",
          "midi": 62,
          "time": 277.9997220000011,
          "velocity": 0.7480314960629921,
          "duration": 0.21428550000001678
        },
        {
          "name": "D5",
          "midi": 74,
          "time": 277.9997220000011,
          "velocity": 0.7480314960629921,
          "duration": 0.21428550000001678
        },
        {
          "name": "D6",
          "midi": 86,
          "time": 277.9997220000011,
          "velocity": 0.7480314960629921,
          "duration": 0.21428550000001678
        },
        {
          "name": "D7",
          "midi": 98,
          "time": 277.9997220000011,
          "velocity": 0.7480314960629921,
          "duration": 0.21428550000001678
        },
        {
          "name": "C#4",
          "midi": 61,
          "time": 278.2140075000011,
          "velocity": 0.7480314960629921,
          "duration": 0.21428550000001678
        },
        {
          "name": "C#5",
          "midi": 73,
          "time": 278.2140075000011,
          "velocity": 0.7480314960629921,
          "duration": 0.21428550000001678
        },
        {
          "name": "C#6",
          "midi": 85,
          "time": 278.2140075000011,
          "velocity": 0.7480314960629921,
          "duration": 0.21428550000001678
        },
        {
          "name": "C#7",
          "midi": 97,
          "time": 278.2140075000011,
          "velocity": 0.7480314960629921,
          "duration": 0.21428550000001678
        },
        {
          "name": "D#4",
          "midi": 63,
          "time": 278.42829300000113,
          "velocity": 0.7480314960629921,
          "duration": 0.4285709999999767
        },
        {
          "name": "D#5",
          "midi": 75,
          "time": 278.42829300000113,
          "velocity": 0.7480314960629921,
          "duration": 0.4285709999999767
        },
        {
          "name": "D#6",
          "midi": 87,
          "time": 278.42829300000113,
          "velocity": 0.7480314960629921,
          "duration": 0.4285709999999767
        },
        {
          "name": "D#7",
          "midi": 99,
          "time": 278.42829300000113,
          "velocity": 0.7480314960629921,
          "duration": 0.4285709999999767
        },
        {
          "name": "C#4",
          "midi": 61,
          "time": 278.8568640000011,
          "velocity": 0.7480314960629921,
          "duration": 0.21428550000001678
        },
        {
          "name": "C#5",
          "midi": 73,
          "time": 278.8568640000011,
          "velocity": 0.7480314960629921,
          "duration": 0.21428550000001678
        },
        {
          "name": "C#6",
          "midi": 85,
          "time": 278.8568640000011,
          "velocity": 0.7480314960629921,
          "duration": 0.21428550000001678
        },
        {
          "name": "C#7",
          "midi": 97,
          "time": 278.8568640000011,
          "velocity": 0.7480314960629921,
          "duration": 0.21428550000001678
        },
        {
          "name": "D#4",
          "midi": 63,
          "time": 279.0711495000011,
          "velocity": 0.7480314960629921,
          "duration": 0.21428550000001678
        },
        {
          "name": "D#5",
          "midi": 75,
          "time": 279.0711495000011,
          "velocity": 0.7480314960629921,
          "duration": 0.21428550000001678
        },
        {
          "name": "D#6",
          "midi": 87,
          "time": 279.0711495000011,
          "velocity": 0.7480314960629921,
          "duration": 0.21428550000001678
        },
        {
          "name": "D#7",
          "midi": 99,
          "time": 279.0711495000011,
          "velocity": 0.7480314960629921,
          "duration": 0.21428550000001678
        },
        {
          "name": "E4",
          "midi": 64,
          "time": 279.28543500000114,
          "velocity": 0.7480314960629921,
          "duration": 0.21428550000001678
        },
        {
          "name": "E5",
          "midi": 76,
          "time": 279.28543500000114,
          "velocity": 0.7480314960629921,
          "duration": 0.21428550000001678
        },
        {
          "name": "E6",
          "midi": 88,
          "time": 279.28543500000114,
          "velocity": 0.7480314960629921,
          "duration": 0.21428550000001678
        },
        {
          "name": "E7",
          "midi": 100,
          "time": 279.28543500000114,
          "velocity": 0.7480314960629921,
          "duration": 0.21428550000001678
        },
        {
          "name": "D#4",
          "midi": 63,
          "time": 279.49972050000116,
          "velocity": 0.7480314960629921,
          "duration": 0.21428550000001678
        },
        {
          "name": "D#5",
          "midi": 75,
          "time": 279.49972050000116,
          "velocity": 0.7480314960629921,
          "duration": 0.21428550000001678
        },
        {
          "name": "D#6",
          "midi": 87,
          "time": 279.49972050000116,
          "velocity": 0.7480314960629921,
          "duration": 0.21428550000001678
        },
        {
          "name": "D#7",
          "midi": 99,
          "time": 279.49972050000116,
          "velocity": 0.7480314960629921,
          "duration": 0.21428550000001678
        },
        {
          "name": "D4",
          "midi": 62,
          "time": 279.7140060000012,
          "velocity": 0.7480314960629921,
          "duration": 0.21428550000001678
        },
        {
          "name": "D5",
          "midi": 74,
          "time": 279.7140060000012,
          "velocity": 0.7480314960629921,
          "duration": 0.21428550000001678
        },
        {
          "name": "D6",
          "midi": 86,
          "time": 279.7140060000012,
          "velocity": 0.7480314960629921,
          "duration": 0.21428550000001678
        },
        {
          "name": "D7",
          "midi": 98,
          "time": 279.7140060000012,
          "velocity": 0.7480314960629921,
          "duration": 0.21428550000001678
        },
        {
          "name": "C#4",
          "midi": 61,
          "time": 279.9282915000012,
          "velocity": 0.7480314960629921,
          "duration": 0.21428550000001678
        },
        {
          "name": "C#5",
          "midi": 73,
          "time": 279.9282915000012,
          "velocity": 0.7480314960629921,
          "duration": 0.21428550000001678
        },
        {
          "name": "C#6",
          "midi": 85,
          "time": 279.9282915000012,
          "velocity": 0.7480314960629921,
          "duration": 0.21428550000001678
        },
        {
          "name": "C#7",
          "midi": 97,
          "time": 279.9282915000012,
          "velocity": 0.7480314960629921,
          "duration": 0.21428550000001678
        },
        {
          "name": "D#4",
          "midi": 63,
          "time": 280.1425770000012,
          "velocity": 0.7480314960629921,
          "duration": 0.4285709999999767
        },
        {
          "name": "D#5",
          "midi": 75,
          "time": 280.1425770000012,
          "velocity": 0.7480314960629921,
          "duration": 0.4285709999999767
        },
        {
          "name": "D#6",
          "midi": 87,
          "time": 280.1425770000012,
          "velocity": 0.7480314960629921,
          "duration": 0.4285709999999767
        },
        {
          "name": "D#7",
          "midi": 99,
          "time": 280.1425770000012,
          "velocity": 0.7480314960629921,
          "duration": 0.4285709999999767
        },
        {
          "name": "C#4",
          "midi": 61,
          "time": 280.5711480000012,
          "velocity": 0.7480314960629921,
          "duration": 0.21428550000001678
        },
        {
          "name": "C#5",
          "midi": 73,
          "time": 280.5711480000012,
          "velocity": 0.7480314960629921,
          "duration": 0.21428550000001678
        },
        {
          "name": "C#6",
          "midi": 85,
          "time": 280.5711480000012,
          "velocity": 0.7480314960629921,
          "duration": 0.21428550000001678
        },
        {
          "name": "C#7",
          "midi": 97,
          "time": 280.5711480000012,
          "velocity": 0.7480314960629921,
          "duration": 0.21428550000001678
        },
        {
          "name": "D#4",
          "midi": 63,
          "time": 280.7854335000012,
          "velocity": 0.7480314960629921,
          "duration": 0.21428550000001678
        },
        {
          "name": "D#5",
          "midi": 75,
          "time": 280.7854335000012,
          "velocity": 0.7480314960629921,
          "duration": 0.21428550000001678
        },
        {
          "name": "D#6",
          "midi": 87,
          "time": 280.7854335000012,
          "velocity": 0.7480314960629921,
          "duration": 0.21428550000001678
        },
        {
          "name": "D#7",
          "midi": 99,
          "time": 280.7854335000012,
          "velocity": 0.7480314960629921,
          "duration": 0.21428550000001678
        },
        {
          "name": "E4",
          "midi": 64,
          "time": 280.9997190000012,
          "velocity": 0.7480314960629921,
          "duration": 0.21428550000001678
        },
        {
          "name": "E5",
          "midi": 76,
          "time": 280.9997190000012,
          "velocity": 0.7480314960629921,
          "duration": 0.21428550000001678
        },
        {
          "name": "E6",
          "midi": 88,
          "time": 280.9997190000012,
          "velocity": 0.7480314960629921,
          "duration": 0.21428550000001678
        },
        {
          "name": "E7",
          "midi": 100,
          "time": 280.9997190000012,
          "velocity": 0.7480314960629921,
          "duration": 0.21428550000001678
        },
        {
          "name": "D#4",
          "midi": 63,
          "time": 281.21400450000124,
          "velocity": 0.7480314960629921,
          "duration": 0.21428550000001678
        },
        {
          "name": "D#5",
          "midi": 75,
          "time": 281.21400450000124,
          "velocity": 0.7480314960629921,
          "duration": 0.21428550000001678
        },
        {
          "name": "D#6",
          "midi": 87,
          "time": 281.21400450000124,
          "velocity": 0.7480314960629921,
          "duration": 0.21428550000001678
        },
        {
          "name": "D#7",
          "midi": 99,
          "time": 281.21400450000124,
          "velocity": 0.7480314960629921,
          "duration": 0.21428550000001678
        },
        {
          "name": "D4",
          "midi": 62,
          "time": 281.42829000000125,
          "velocity": 0.7480314960629921,
          "duration": 0.21428550000001678
        },
        {
          "name": "D5",
          "midi": 74,
          "time": 281.42829000000125,
          "velocity": 0.7480314960629921,
          "duration": 0.21428550000001678
        },
        {
          "name": "D6",
          "midi": 86,
          "time": 281.42829000000125,
          "velocity": 0.7480314960629921,
          "duration": 0.21428550000001678
        },
        {
          "name": "D7",
          "midi": 98,
          "time": 281.42829000000125,
          "velocity": 0.7480314960629921,
          "duration": 0.21428550000001678
        },
        {
          "name": "C4",
          "midi": 60,
          "time": 281.64257550000127,
          "velocity": 0.7480314960629921,
          "duration": 0.21428550000001678
        },
        {
          "name": "C5",
          "midi": 72,
          "time": 281.64257550000127,
          "velocity": 0.7480314960629921,
          "duration": 0.21428550000001678
        },
        {
          "name": "C6",
          "midi": 84,
          "time": 281.64257550000127,
          "velocity": 0.7480314960629921,
          "duration": 0.21428550000001678
        },
        {
          "name": "C7",
          "midi": 96,
          "time": 281.64257550000127,
          "velocity": 0.7480314960629921,
          "duration": 0.21428550000001678
        },
        {
          "name": "D4",
          "midi": 62,
          "time": 281.8568610000013,
          "velocity": 0.7480314960629921,
          "duration": 0.4285709999999767
        },
        {
          "name": "D5",
          "midi": 74,
          "time": 281.8568610000013,
          "velocity": 0.7480314960629921,
          "duration": 0.4285709999999767
        },
        {
          "name": "D6",
          "midi": 86,
          "time": 281.8568610000013,
          "velocity": 0.7480314960629921,
          "duration": 0.4285709999999767
        },
        {
          "name": "D7",
          "midi": 98,
          "time": 281.8568610000013,
          "velocity": 0.7480314960629921,
          "duration": 0.4285709999999767
        },
        {
          "name": "C4",
          "midi": 60,
          "time": 282.28543200000126,
          "velocity": 0.7480314960629921,
          "duration": 0.21428550000001678
        },
        {
          "name": "C5",
          "midi": 72,
          "time": 282.28543200000126,
          "velocity": 0.7480314960629921,
          "duration": 0.21428550000001678
        },
        {
          "name": "C6",
          "midi": 84,
          "time": 282.28543200000126,
          "velocity": 0.7480314960629921,
          "duration": 0.21428550000001678
        },
        {
          "name": "C7",
          "midi": 96,
          "time": 282.28543200000126,
          "velocity": 0.7480314960629921,
          "duration": 0.21428550000001678
        },
        {
          "name": "D#4",
          "midi": 63,
          "time": 282.4997175000013,
          "velocity": 0.7480314960629921,
          "duration": 0.21428550000001678
        },
        {
          "name": "D#5",
          "midi": 75,
          "time": 282.4997175000013,
          "velocity": 0.7480314960629921,
          "duration": 0.21428550000001678
        },
        {
          "name": "D#6",
          "midi": 87,
          "time": 282.4997175000013,
          "velocity": 0.7480314960629921,
          "duration": 0.21428550000001678
        },
        {
          "name": "D#7",
          "midi": 99,
          "time": 282.4997175000013,
          "velocity": 0.7480314960629921,
          "duration": 0.21428550000001678
        },
        {
          "name": "E4",
          "midi": 64,
          "time": 282.7140030000013,
          "velocity": 0.7480314960629921,
          "duration": 0.21428550000001678
        },
        {
          "name": "E5",
          "midi": 76,
          "time": 282.7140030000013,
          "velocity": 0.7480314960629921,
          "duration": 0.21428550000001678
        },
        {
          "name": "E6",
          "midi": 88,
          "time": 282.7140030000013,
          "velocity": 0.7480314960629921,
          "duration": 0.21428550000001678
        },
        {
          "name": "E7",
          "midi": 100,
          "time": 282.7140030000013,
          "velocity": 0.7480314960629921,
          "duration": 0.21428550000001678
        },
        {
          "name": "D#4",
          "midi": 63,
          "time": 282.9282885000013,
          "velocity": 0.7480314960629921,
          "duration": 0.21428550000001678
        },
        {
          "name": "D#5",
          "midi": 75,
          "time": 282.9282885000013,
          "velocity": 0.7480314960629921,
          "duration": 0.21428550000001678
        },
        {
          "name": "D#6",
          "midi": 87,
          "time": 282.9282885000013,
          "velocity": 0.7480314960629921,
          "duration": 0.21428550000001678
        },
        {
          "name": "D#7",
          "midi": 99,
          "time": 282.9282885000013,
          "velocity": 0.7480314960629921,
          "duration": 0.21428550000001678
        },
        {
          "name": "D4",
          "midi": 62,
          "time": 283.14257400000133,
          "velocity": 0.7480314960629921,
          "duration": 0.21428550000001678
        },
        {
          "name": "D5",
          "midi": 74,
          "time": 283.14257400000133,
          "velocity": 0.7480314960629921,
          "duration": 0.21428550000001678
        },
        {
          "name": "D6",
          "midi": 86,
          "time": 283.14257400000133,
          "velocity": 0.7480314960629921,
          "duration": 0.21428550000001678
        },
        {
          "name": "D7",
          "midi": 98,
          "time": 283.14257400000133,
          "velocity": 0.7480314960629921,
          "duration": 0.21428550000001678
        },
        {
          "name": "C4",
          "midi": 60,
          "time": 283.35685950000135,
          "velocity": 0.7480314960629921,
          "duration": 0.21428550000001678
        },
        {
          "name": "C5",
          "midi": 72,
          "time": 283.35685950000135,
          "velocity": 0.7480314960629921,
          "duration": 0.21428550000001678
        },
        {
          "name": "C6",
          "midi": 84,
          "time": 283.35685950000135,
          "velocity": 0.7480314960629921,
          "duration": 0.21428550000001678
        },
        {
          "name": "C7",
          "midi": 96,
          "time": 283.35685950000135,
          "velocity": 0.7480314960629921,
          "duration": 0.21428550000001678
        },
        {
          "name": "D4",
          "midi": 62,
          "time": 283.57114500000137,
          "velocity": 0.7480314960629921,
          "duration": 0.4285709999999767
        },
        {
          "name": "D5",
          "midi": 74,
          "time": 283.57114500000137,
          "velocity": 0.7480314960629921,
          "duration": 0.4285709999999767
        },
        {
          "name": "D6",
          "midi": 86,
          "time": 283.57114500000137,
          "velocity": 0.7480314960629921,
          "duration": 0.4285709999999767
        },
        {
          "name": "D7",
          "midi": 98,
          "time": 283.57114500000137,
          "velocity": 0.7480314960629921,
          "duration": 0.4285709999999767
        },
        {
          "name": "C4",
          "midi": 60,
          "time": 283.99971600000134,
          "velocity": 0.7480314960629921,
          "duration": 0.21428550000001678
        },
        {
          "name": "C5",
          "midi": 72,
          "time": 283.99971600000134,
          "velocity": 0.7480314960629921,
          "duration": 0.21428550000001678
        },
        {
          "name": "C6",
          "midi": 84,
          "time": 283.99971600000134,
          "velocity": 0.7480314960629921,
          "duration": 0.21428550000001678
        },
        {
          "name": "C7",
          "midi": 96,
          "time": 283.99971600000134,
          "velocity": 0.7480314960629921,
          "duration": 0.21428550000001678
        },
        {
          "name": "D#4",
          "midi": 63,
          "time": 284.21400150000136,
          "velocity": 0.7480314960629921,
          "duration": 0.21428550000001678
        },
        {
          "name": "D#5",
          "midi": 75,
          "time": 284.21400150000136,
          "velocity": 0.7480314960629921,
          "duration": 0.21428550000001678
        },
        {
          "name": "D#6",
          "midi": 87,
          "time": 284.21400150000136,
          "velocity": 0.7480314960629921,
          "duration": 0.21428550000001678
        },
        {
          "name": "D#7",
          "midi": 99,
          "time": 284.21400150000136,
          "velocity": 0.7480314960629921,
          "duration": 0.21428550000001678
        },
        {
          "name": "E4",
          "midi": 64,
          "time": 284.4282870000014,
          "velocity": 0.7480314960629921,
          "duration": 0.21428550000001678
        },
        {
          "name": "E5",
          "midi": 76,
          "time": 284.4282870000014,
          "velocity": 0.7480314960629921,
          "duration": 0.21428550000001678
        },
        {
          "name": "E6",
          "midi": 88,
          "time": 284.4282870000014,
          "velocity": 0.7480314960629921,
          "duration": 0.21428550000001678
        },
        {
          "name": "E7",
          "midi": 100,
          "time": 284.4282870000014,
          "velocity": 0.7480314960629921,
          "duration": 0.21428550000001678
        },
        {
          "name": "D#4",
          "midi": 63,
          "time": 284.6425725000014,
          "velocity": 0.7480314960629921,
          "duration": 0.21428550000001678
        },
        {
          "name": "D#5",
          "midi": 75,
          "time": 284.6425725000014,
          "velocity": 0.7480314960629921,
          "duration": 0.21428550000001678
        },
        {
          "name": "D#6",
          "midi": 87,
          "time": 284.6425725000014,
          "velocity": 0.7480314960629921,
          "duration": 0.21428550000001678
        },
        {
          "name": "D#7",
          "midi": 99,
          "time": 284.6425725000014,
          "velocity": 0.7480314960629921,
          "duration": 0.21428550000001678
        },
        {
          "name": "D4",
          "midi": 62,
          "time": 284.8568580000014,
          "velocity": 0.7480314960629921,
          "duration": 0.21428550000001678
        },
        {
          "name": "D5",
          "midi": 74,
          "time": 284.8568580000014,
          "velocity": 0.7480314960629921,
          "duration": 0.21428550000001678
        },
        {
          "name": "D6",
          "midi": 86,
          "time": 284.8568580000014,
          "velocity": 0.7480314960629921,
          "duration": 0.21428550000001678
        },
        {
          "name": "D7",
          "midi": 98,
          "time": 284.8568580000014,
          "velocity": 0.7480314960629921,
          "duration": 0.21428550000001678
        },
        {
          "name": "C4",
          "midi": 60,
          "time": 285.0711435000014,
          "velocity": 0.7480314960629921,
          "duration": 0.21428550000001678
        },
        {
          "name": "C5",
          "midi": 72,
          "time": 285.0711435000014,
          "velocity": 0.7480314960629921,
          "duration": 0.21428550000001678
        },
        {
          "name": "C6",
          "midi": 84,
          "time": 285.0711435000014,
          "velocity": 0.7480314960629921,
          "duration": 0.21428550000001678
        },
        {
          "name": "C7",
          "midi": 96,
          "time": 285.0711435000014,
          "velocity": 0.7480314960629921,
          "duration": 0.21428550000001678
        },
        {
          "name": "D4",
          "midi": 62,
          "time": 285.28542900000144,
          "velocity": 0.7480314960629921,
          "duration": 0.4285709999999767
        },
        {
          "name": "D5",
          "midi": 74,
          "time": 285.28542900000144,
          "velocity": 0.7480314960629921,
          "duration": 0.4285709999999767
        },
        {
          "name": "D6",
          "midi": 86,
          "time": 285.28542900000144,
          "velocity": 0.7480314960629921,
          "duration": 0.4285709999999767
        },
        {
          "name": "D7",
          "midi": 98,
          "time": 285.28542900000144,
          "velocity": 0.7480314960629921,
          "duration": 0.4285709999999767
        },
        {
          "name": "C4",
          "midi": 60,
          "time": 285.7140000000014,
          "velocity": 0.7480314960629921,
          "duration": 0.21428550000001678
        },
        {
          "name": "C5",
          "midi": 72,
          "time": 285.7140000000014,
          "velocity": 0.7480314960629921,
          "duration": 0.21428550000001678
        },
        {
          "name": "C6",
          "midi": 84,
          "time": 285.7140000000014,
          "velocity": 0.7480314960629921,
          "duration": 0.21428550000001678
        },
        {
          "name": "C7",
          "midi": 96,
          "time": 285.7140000000014,
          "velocity": 0.7480314960629921,
          "duration": 0.21428550000001678
        },
        {
          "name": "D#4",
          "midi": 63,
          "time": 285.92828550000144,
          "velocity": 0.7480314960629921,
          "duration": 0.21428550000001678
        },
        {
          "name": "D#5",
          "midi": 75,
          "time": 285.92828550000144,
          "velocity": 0.7480314960629921,
          "duration": 0.21428550000001678
        },
        {
          "name": "D#6",
          "midi": 87,
          "time": 285.92828550000144,
          "velocity": 0.7480314960629921,
          "duration": 0.21428550000001678
        },
        {
          "name": "D#7",
          "midi": 99,
          "time": 285.92828550000144,
          "velocity": 0.7480314960629921,
          "duration": 0.21428550000001678
        },
        {
          "name": "E4",
          "midi": 64,
          "time": 286.14257100000145,
          "velocity": 0.7480314960629921,
          "duration": 0.21428550000001678
        },
        {
          "name": "E5",
          "midi": 76,
          "time": 286.14257100000145,
          "velocity": 0.7480314960629921,
          "duration": 0.21428550000001678
        },
        {
          "name": "E6",
          "midi": 88,
          "time": 286.14257100000145,
          "velocity": 0.7480314960629921,
          "duration": 0.21428550000001678
        },
        {
          "name": "E7",
          "midi": 100,
          "time": 286.14257100000145,
          "velocity": 0.7480314960629921,
          "duration": 0.21428550000001678
        },
        {
          "name": "D#4",
          "midi": 63,
          "time": 286.35685650000147,
          "velocity": 0.7480314960629921,
          "duration": 0.21428550000001678
        },
        {
          "name": "D#5",
          "midi": 75,
          "time": 286.35685650000147,
          "velocity": 0.7480314960629921,
          "duration": 0.21428550000001678
        },
        {
          "name": "D#6",
          "midi": 87,
          "time": 286.35685650000147,
          "velocity": 0.7480314960629921,
          "duration": 0.21428550000001678
        },
        {
          "name": "D#7",
          "midi": 99,
          "time": 286.35685650000147,
          "velocity": 0.7480314960629921,
          "duration": 0.21428550000001678
        },
        {
          "name": "D4",
          "midi": 62,
          "time": 286.5711420000015,
          "velocity": 0.7480314960629921,
          "duration": 0.21428550000001678
        },
        {
          "name": "D5",
          "midi": 74,
          "time": 286.5711420000015,
          "velocity": 0.7480314960629921,
          "duration": 0.21428550000001678
        },
        {
          "name": "D6",
          "midi": 86,
          "time": 286.5711420000015,
          "velocity": 0.7480314960629921,
          "duration": 0.21428550000001678
        },
        {
          "name": "D7",
          "midi": 98,
          "time": 286.5711420000015,
          "velocity": 0.7480314960629921,
          "duration": 0.21428550000001678
        },
        {
          "name": "C4",
          "midi": 60,
          "time": 286.7854275000015,
          "velocity": 0.7480314960629921,
          "duration": 0.21428550000001678
        },
        {
          "name": "C5",
          "midi": 72,
          "time": 286.7854275000015,
          "velocity": 0.7480314960629921,
          "duration": 0.21428550000001678
        },
        {
          "name": "C6",
          "midi": 84,
          "time": 286.7854275000015,
          "velocity": 0.7480314960629921,
          "duration": 0.21428550000001678
        },
        {
          "name": "C7",
          "midi": 96,
          "time": 286.7854275000015,
          "velocity": 0.7480314960629921,
          "duration": 0.21428550000001678
        },
        {
          "name": "D4",
          "midi": 62,
          "time": 286.9997130000015,
          "velocity": 0.7480314960629921,
          "duration": 0.357142500000009
        },
        {
          "name": "D5",
          "midi": 74,
          "time": 286.9997130000015,
          "velocity": 0.7480314960629921,
          "duration": 0.357142500000009
        },
        {
          "name": "D6",
          "midi": 86,
          "time": 286.9997130000015,
          "velocity": 0.7480314960629921,
          "duration": 0.357142500000009
        },
        {
          "name": "D7",
          "midi": 98,
          "time": 286.9997130000015,
          "velocity": 0.7480314960629921,
          "duration": 0.357142500000009
        },
        {
          "name": "C#4",
          "midi": 61,
          "time": 287.57114100000155,
          "velocity": 0.7480314960629921,
          "duration": 0.21428550000001678
        },
        {
          "name": "C#5",
          "midi": 73,
          "time": 287.57114100000155,
          "velocity": 0.7480314960629921,
          "duration": 0.21428550000001678
        },
        {
          "name": "C#6",
          "midi": 85,
          "time": 287.57114100000155,
          "velocity": 0.7480314960629921,
          "duration": 0.21428550000001678
        },
        {
          "name": "C#7",
          "midi": 97,
          "time": 287.57114100000155,
          "velocity": 0.7480314960629921,
          "duration": 0.21428550000001678
        },
        {
          "name": "D#4",
          "midi": 63,
          "time": 287.78542650000156,
          "velocity": 0.7480314960629921,
          "duration": 0.21428550000001678
        },
        {
          "name": "D#5",
          "midi": 75,
          "time": 287.78542650000156,
          "velocity": 0.7480314960629921,
          "duration": 0.21428550000001678
        },
        {
          "name": "D#6",
          "midi": 87,
          "time": 287.78542650000156,
          "velocity": 0.7480314960629921,
          "duration": 0.21428550000001678
        },
        {
          "name": "D#7",
          "midi": 99,
          "time": 287.78542650000156,
          "velocity": 0.7480314960629921,
          "duration": 0.21428550000001678
        },
        {
          "name": "E4",
          "midi": 64,
          "time": 287.9997120000016,
          "velocity": 0.5511811023622047,
          "duration": 0.21428550000001678
        },
        {
          "name": "E5",
          "midi": 76,
          "time": 287.9997120000016,
          "velocity": 0.5511811023622047,
          "duration": 0.21428550000001678
        },
        {
          "name": "E6",
          "midi": 88,
          "time": 287.9997120000016,
          "velocity": 0.5511811023622047,
          "duration": 0.21428550000001678
        },
        {
          "name": "E7",
          "midi": 100,
          "time": 287.9997120000016,
          "velocity": 0.5511811023622047,
          "duration": 0.21428550000001678
        },
        {
          "name": "D#4",
          "midi": 63,
          "time": 288.2139975000016,
          "velocity": 0.5511811023622047,
          "duration": 0.21428550000001678
        },
        {
          "name": "D#5",
          "midi": 75,
          "time": 288.2139975000016,
          "velocity": 0.5511811023622047,
          "duration": 0.21428550000001678
        },
        {
          "name": "D#6",
          "midi": 87,
          "time": 288.2139975000016,
          "velocity": 0.5511811023622047,
          "duration": 0.21428550000001678
        },
        {
          "name": "D#7",
          "midi": 99,
          "time": 288.2139975000016,
          "velocity": 0.5511811023622047,
          "duration": 0.21428550000001678
        },
        {
          "name": "D4",
          "midi": 62,
          "time": 288.4282830000016,
          "velocity": 0.7480314960629921,
          "duration": 0.21428550000001678
        },
        {
          "name": "D5",
          "midi": 74,
          "time": 288.4282830000016,
          "velocity": 0.7480314960629921,
          "duration": 0.21428550000001678
        },
        {
          "name": "D6",
          "midi": 86,
          "time": 288.4282830000016,
          "velocity": 0.7480314960629921,
          "duration": 0.21428550000001678
        },
        {
          "name": "D7",
          "midi": 98,
          "time": 288.4282830000016,
          "velocity": 0.7480314960629921,
          "duration": 0.21428550000001678
        },
        {
          "name": "C#4",
          "midi": 61,
          "time": 288.64256850000163,
          "velocity": 0.7480314960629921,
          "duration": 0.21428550000001678
        },
        {
          "name": "C#5",
          "midi": 73,
          "time": 288.64256850000163,
          "velocity": 0.7480314960629921,
          "duration": 0.21428550000001678
        },
        {
          "name": "C#6",
          "midi": 85,
          "time": 288.64256850000163,
          "velocity": 0.7480314960629921,
          "duration": 0.21428550000001678
        },
        {
          "name": "C#7",
          "midi": 97,
          "time": 288.64256850000163,
          "velocity": 0.7480314960629921,
          "duration": 0.21428550000001678
        },
        {
          "name": "D4",
          "midi": 62,
          "time": 288.85685400000165,
          "velocity": 0.7480314960629921,
          "duration": 0.4285709999999767
        },
        {
          "name": "D5",
          "midi": 74,
          "time": 288.85685400000165,
          "velocity": 0.7480314960629921,
          "duration": 0.4285709999999767
        },
        {
          "name": "D6",
          "midi": 86,
          "time": 288.85685400000165,
          "velocity": 0.7480314960629921,
          "duration": 0.4285709999999767
        },
        {
          "name": "D7",
          "midi": 98,
          "time": 288.85685400000165,
          "velocity": 0.7480314960629921,
          "duration": 0.4285709999999767
        },
        {
          "name": "C#4",
          "midi": 61,
          "time": 289.2854250000016,
          "velocity": 0.7480314960629921,
          "duration": 0.21428550000001678
        },
        {
          "name": "C#5",
          "midi": 73,
          "time": 289.2854250000016,
          "velocity": 0.7480314960629921,
          "duration": 0.21428550000001678
        },
        {
          "name": "C#6",
          "midi": 85,
          "time": 289.2854250000016,
          "velocity": 0.7480314960629921,
          "duration": 0.21428550000001678
        },
        {
          "name": "C#7",
          "midi": 97,
          "time": 289.2854250000016,
          "velocity": 0.7480314960629921,
          "duration": 0.21428550000001678
        },
        {
          "name": "D#4",
          "midi": 63,
          "time": 289.49971050000164,
          "velocity": 0.7480314960629921,
          "duration": 0.21428550000001678
        },
        {
          "name": "D#5",
          "midi": 75,
          "time": 289.49971050000164,
          "velocity": 0.7480314960629921,
          "duration": 0.21428550000001678
        },
        {
          "name": "D#6",
          "midi": 87,
          "time": 289.49971050000164,
          "velocity": 0.7480314960629921,
          "duration": 0.21428550000001678
        },
        {
          "name": "D#7",
          "midi": 99,
          "time": 289.49971050000164,
          "velocity": 0.7480314960629921,
          "duration": 0.21428550000001678
        },
        {
          "name": "E4",
          "midi": 64,
          "time": 289.71399600000166,
          "velocity": 0.5511811023622047,
          "duration": 0.21428550000001678
        },
        {
          "name": "E5",
          "midi": 76,
          "time": 289.71399600000166,
          "velocity": 0.5511811023622047,
          "duration": 0.21428550000001678
        },
        {
          "name": "E6",
          "midi": 88,
          "time": 289.71399600000166,
          "velocity": 0.5511811023622047,
          "duration": 0.21428550000001678
        },
        {
          "name": "E7",
          "midi": 100,
          "time": 289.71399600000166,
          "velocity": 0.5511811023622047,
          "duration": 0.21428550000001678
        },
        {
          "name": "D#4",
          "midi": 63,
          "time": 289.9282815000017,
          "velocity": 0.5511811023622047,
          "duration": 0.21428550000001678
        },
        {
          "name": "D#5",
          "midi": 75,
          "time": 289.9282815000017,
          "velocity": 0.5511811023622047,
          "duration": 0.21428550000001678
        },
        {
          "name": "D#6",
          "midi": 87,
          "time": 289.9282815000017,
          "velocity": 0.5511811023622047,
          "duration": 0.21428550000001678
        },
        {
          "name": "D#7",
          "midi": 99,
          "time": 289.9282815000017,
          "velocity": 0.5511811023622047,
          "duration": 0.21428550000001678
        },
        {
          "name": "D4",
          "midi": 62,
          "time": 290.1425670000017,
          "velocity": 0.7480314960629921,
          "duration": 0.21428550000001678
        },
        {
          "name": "D5",
          "midi": 74,
          "time": 290.1425670000017,
          "velocity": 0.7480314960629921,
          "duration": 0.21428550000001678
        },
        {
          "name": "D6",
          "midi": 86,
          "time": 290.1425670000017,
          "velocity": 0.7480314960629921,
          "duration": 0.21428550000001678
        },
        {
          "name": "D7",
          "midi": 98,
          "time": 290.1425670000017,
          "velocity": 0.7480314960629921,
          "duration": 0.21428550000001678
        },
        {
          "name": "C#4",
          "midi": 61,
          "time": 290.3568525000017,
          "velocity": 0.7480314960629921,
          "duration": 0.21428550000001678
        },
        {
          "name": "C#5",
          "midi": 73,
          "time": 290.3568525000017,
          "velocity": 0.7480314960629921,
          "duration": 0.21428550000001678
        },
        {
          "name": "C#6",
          "midi": 85,
          "time": 290.3568525000017,
          "velocity": 0.7480314960629921,
          "duration": 0.21428550000001678
        },
        {
          "name": "C#7",
          "midi": 97,
          "time": 290.3568525000017,
          "velocity": 0.7480314960629921,
          "duration": 0.21428550000001678
        },
        {
          "name": "D4",
          "midi": 62,
          "time": 290.5711380000017,
          "velocity": 0.7480314960629921,
          "duration": 0.4285709999999767
        },
        {
          "name": "D5",
          "midi": 74,
          "time": 290.5711380000017,
          "velocity": 0.7480314960629921,
          "duration": 0.4285709999999767
        },
        {
          "name": "D6",
          "midi": 86,
          "time": 290.5711380000017,
          "velocity": 0.7480314960629921,
          "duration": 0.4285709999999767
        },
        {
          "name": "D7",
          "midi": 98,
          "time": 290.5711380000017,
          "velocity": 0.7480314960629921,
          "duration": 0.4285709999999767
        },
        {
          "name": "C#4",
          "midi": 61,
          "time": 290.9997090000017,
          "velocity": 0.7480314960629921,
          "duration": 0.21428550000001678
        },
        {
          "name": "C#5",
          "midi": 73,
          "time": 290.9997090000017,
          "velocity": 0.7480314960629921,
          "duration": 0.21428550000001678
        },
        {
          "name": "C#6",
          "midi": 85,
          "time": 290.9997090000017,
          "velocity": 0.7480314960629921,
          "duration": 0.21428550000001678
        },
        {
          "name": "C#7",
          "midi": 97,
          "time": 290.9997090000017,
          "velocity": 0.7480314960629921,
          "duration": 0.21428550000001678
        },
        {
          "name": "D#4",
          "midi": 63,
          "time": 291.2139945000017,
          "velocity": 0.7480314960629921,
          "duration": 0.21428550000001678
        },
        {
          "name": "D#5",
          "midi": 75,
          "time": 291.2139945000017,
          "velocity": 0.7480314960629921,
          "duration": 0.21428550000001678
        },
        {
          "name": "D#6",
          "midi": 87,
          "time": 291.2139945000017,
          "velocity": 0.7480314960629921,
          "duration": 0.21428550000001678
        },
        {
          "name": "D#7",
          "midi": 99,
          "time": 291.2139945000017,
          "velocity": 0.7480314960629921,
          "duration": 0.21428550000001678
        },
        {
          "name": "E4",
          "midi": 64,
          "time": 291.42828000000173,
          "velocity": 0.5511811023622047,
          "duration": 0.21428550000001678
        },
        {
          "name": "E5",
          "midi": 76,
          "time": 291.42828000000173,
          "velocity": 0.5511811023622047,
          "duration": 0.21428550000001678
        },
        {
          "name": "E6",
          "midi": 88,
          "time": 291.42828000000173,
          "velocity": 0.5511811023622047,
          "duration": 0.21428550000001678
        },
        {
          "name": "E7",
          "midi": 100,
          "time": 291.42828000000173,
          "velocity": 0.5511811023622047,
          "duration": 0.21428550000001678
        },
        {
          "name": "D#4",
          "midi": 63,
          "time": 291.64256550000175,
          "velocity": 0.5511811023622047,
          "duration": 0.21428550000001678
        },
        {
          "name": "D#5",
          "midi": 75,
          "time": 291.64256550000175,
          "velocity": 0.5511811023622047,
          "duration": 0.21428550000001678
        },
        {
          "name": "D#6",
          "midi": 87,
          "time": 291.64256550000175,
          "velocity": 0.5511811023622047,
          "duration": 0.21428550000001678
        },
        {
          "name": "D#7",
          "midi": 99,
          "time": 291.64256550000175,
          "velocity": 0.5511811023622047,
          "duration": 0.21428550000001678
        },
        {
          "name": "D4",
          "midi": 62,
          "time": 291.85685100000177,
          "velocity": 0.7480314960629921,
          "duration": 0.21428550000001678
        },
        {
          "name": "D5",
          "midi": 74,
          "time": 291.85685100000177,
          "velocity": 0.7480314960629921,
          "duration": 0.21428550000001678
        },
        {
          "name": "D6",
          "midi": 86,
          "time": 291.85685100000177,
          "velocity": 0.7480314960629921,
          "duration": 0.21428550000001678
        },
        {
          "name": "D7",
          "midi": 98,
          "time": 291.85685100000177,
          "velocity": 0.7480314960629921,
          "duration": 0.21428550000001678
        },
        {
          "name": "C#4",
          "midi": 61,
          "time": 292.0711365000018,
          "velocity": 0.7480314960629921,
          "duration": 0.21428550000001678
        },
        {
          "name": "C#5",
          "midi": 73,
          "time": 292.0711365000018,
          "velocity": 0.7480314960629921,
          "duration": 0.21428550000001678
        },
        {
          "name": "C#6",
          "midi": 85,
          "time": 292.0711365000018,
          "velocity": 0.7480314960629921,
          "duration": 0.21428550000001678
        },
        {
          "name": "C#7",
          "midi": 97,
          "time": 292.0711365000018,
          "velocity": 0.7480314960629921,
          "duration": 0.21428550000001678
        },
        {
          "name": "D4",
          "midi": 62,
          "time": 292.2854220000018,
          "velocity": 0.7480314960629921,
          "duration": 0.4285709999999767
        },
        {
          "name": "D5",
          "midi": 74,
          "time": 292.2854220000018,
          "velocity": 0.7480314960629921,
          "duration": 0.4285709999999767
        },
        {
          "name": "D6",
          "midi": 86,
          "time": 292.2854220000018,
          "velocity": 0.7480314960629921,
          "duration": 0.4285709999999767
        },
        {
          "name": "D7",
          "midi": 98,
          "time": 292.2854220000018,
          "velocity": 0.7480314960629921,
          "duration": 0.4285709999999767
        },
        {
          "name": "C#4",
          "midi": 61,
          "time": 292.7139930000018,
          "velocity": 0.7480314960629921,
          "duration": 0.21428550000001678
        },
        {
          "name": "C#5",
          "midi": 73,
          "time": 292.7139930000018,
          "velocity": 0.7480314960629921,
          "duration": 0.21428550000001678
        },
        {
          "name": "C#6",
          "midi": 85,
          "time": 292.7139930000018,
          "velocity": 0.7480314960629921,
          "duration": 0.21428550000001678
        },
        {
          "name": "C#7",
          "midi": 97,
          "time": 292.7139930000018,
          "velocity": 0.7480314960629921,
          "duration": 0.21428550000001678
        },
        {
          "name": "D#4",
          "midi": 63,
          "time": 292.9282785000018,
          "velocity": 0.7480314960629921,
          "duration": 0.21428550000001678
        },
        {
          "name": "D#5",
          "midi": 75,
          "time": 292.9282785000018,
          "velocity": 0.7480314960629921,
          "duration": 0.21428550000001678
        },
        {
          "name": "D#6",
          "midi": 87,
          "time": 292.9282785000018,
          "velocity": 0.7480314960629921,
          "duration": 0.21428550000001678
        },
        {
          "name": "D#7",
          "midi": 99,
          "time": 292.9282785000018,
          "velocity": 0.7480314960629921,
          "duration": 0.21428550000001678
        },
        {
          "name": "E4",
          "midi": 64,
          "time": 293.1425640000018,
          "velocity": 0.5511811023622047,
          "duration": 0.21428550000001678
        },
        {
          "name": "E5",
          "midi": 76,
          "time": 293.1425640000018,
          "velocity": 0.5511811023622047,
          "duration": 0.21428550000001678
        },
        {
          "name": "E6",
          "midi": 88,
          "time": 293.1425640000018,
          "velocity": 0.5511811023622047,
          "duration": 0.21428550000001678
        },
        {
          "name": "E7",
          "midi": 100,
          "time": 293.1425640000018,
          "velocity": 0.5511811023622047,
          "duration": 0.21428550000001678
        },
        {
          "name": "D#4",
          "midi": 63,
          "time": 293.35684950000183,
          "velocity": 0.5511811023622047,
          "duration": 0.21428550000001678
        },
        {
          "name": "D#5",
          "midi": 75,
          "time": 293.35684950000183,
          "velocity": 0.5511811023622047,
          "duration": 0.21428550000001678
        },
        {
          "name": "D#6",
          "midi": 87,
          "time": 293.35684950000183,
          "velocity": 0.5511811023622047,
          "duration": 0.21428550000001678
        },
        {
          "name": "D#7",
          "midi": 99,
          "time": 293.35684950000183,
          "velocity": 0.5511811023622047,
          "duration": 0.21428550000001678
        },
        {
          "name": "D4",
          "midi": 62,
          "time": 293.57113500000185,
          "velocity": 0.7480314960629921,
          "duration": 0.21428550000001678
        },
        {
          "name": "D5",
          "midi": 74,
          "time": 293.57113500000185,
          "velocity": 0.7480314960629921,
          "duration": 0.21428550000001678
        },
        {
          "name": "D6",
          "midi": 86,
          "time": 293.57113500000185,
          "velocity": 0.7480314960629921,
          "duration": 0.21428550000001678
        },
        {
          "name": "D7",
          "midi": 98,
          "time": 293.57113500000185,
          "velocity": 0.7480314960629921,
          "duration": 0.21428550000001678
        },
        {
          "name": "C#4",
          "midi": 61,
          "time": 293.78542050000186,
          "velocity": 0.7480314960629921,
          "duration": 0.21428550000001678
        },
        {
          "name": "C#5",
          "midi": 73,
          "time": 293.78542050000186,
          "velocity": 0.7480314960629921,
          "duration": 0.21428550000001678
        },
        {
          "name": "C#6",
          "midi": 85,
          "time": 293.78542050000186,
          "velocity": 0.7480314960629921,
          "duration": 0.21428550000001678
        },
        {
          "name": "C#7",
          "midi": 97,
          "time": 293.78542050000186,
          "velocity": 0.7480314960629921,
          "duration": 0.21428550000001678
        },
        {
          "name": "D4",
          "midi": 62,
          "time": 293.9997060000019,
          "velocity": 0.7480314960629921,
          "duration": 0.4285709999999767
        },
        {
          "name": "D5",
          "midi": 74,
          "time": 293.9997060000019,
          "velocity": 0.7480314960629921,
          "duration": 0.4285709999999767
        },
        {
          "name": "D6",
          "midi": 86,
          "time": 293.9997060000019,
          "velocity": 0.7480314960629921,
          "duration": 0.4285709999999767
        },
        {
          "name": "D7",
          "midi": 98,
          "time": 293.9997060000019,
          "velocity": 0.7480314960629921,
          "duration": 0.4285709999999767
        },
        {
          "name": "C#4",
          "midi": 61,
          "time": 294.42827700000186,
          "velocity": 0.7480314960629921,
          "duration": 0.21428550000001678
        },
        {
          "name": "C#5",
          "midi": 73,
          "time": 294.42827700000186,
          "velocity": 0.7480314960629921,
          "duration": 0.21428550000001678
        },
        {
          "name": "C#6",
          "midi": 85,
          "time": 294.42827700000186,
          "velocity": 0.7480314960629921,
          "duration": 0.21428550000001678
        },
        {
          "name": "C#7",
          "midi": 97,
          "time": 294.42827700000186,
          "velocity": 0.7480314960629921,
          "duration": 0.21428550000001678
        },
        {
          "name": "D#4",
          "midi": 63,
          "time": 294.6425625000019,
          "velocity": 0.7480314960629921,
          "duration": 0.21428550000001678
        },
        {
          "name": "D#5",
          "midi": 75,
          "time": 294.6425625000019,
          "velocity": 0.7480314960629921,
          "duration": 0.21428550000001678
        },
        {
          "name": "D#6",
          "midi": 87,
          "time": 294.6425625000019,
          "velocity": 0.7480314960629921,
          "duration": 0.21428550000001678
        },
        {
          "name": "D#7",
          "midi": 99,
          "time": 294.6425625000019,
          "velocity": 0.7480314960629921,
          "duration": 0.21428550000001678
        },
        {
          "name": "E4",
          "midi": 64,
          "time": 294.8568480000019,
          "velocity": 0.5511811023622047,
          "duration": 0.21428550000001678
        },
        {
          "name": "E5",
          "midi": 76,
          "time": 294.8568480000019,
          "velocity": 0.5511811023622047,
          "duration": 0.21428550000001678
        },
        {
          "name": "E6",
          "midi": 88,
          "time": 294.8568480000019,
          "velocity": 0.5511811023622047,
          "duration": 0.21428550000001678
        },
        {
          "name": "E7",
          "midi": 100,
          "time": 294.8568480000019,
          "velocity": 0.5511811023622047,
          "duration": 0.21428550000001678
        },
        {
          "name": "D#4",
          "midi": 63,
          "time": 295.0711335000019,
          "velocity": 0.5511811023622047,
          "duration": 0.21428550000001678
        },
        {
          "name": "D#5",
          "midi": 75,
          "time": 295.0711335000019,
          "velocity": 0.5511811023622047,
          "duration": 0.21428550000001678
        },
        {
          "name": "D#6",
          "midi": 87,
          "time": 295.0711335000019,
          "velocity": 0.5511811023622047,
          "duration": 0.21428550000001678
        },
        {
          "name": "D#7",
          "midi": 99,
          "time": 295.0711335000019,
          "velocity": 0.5511811023622047,
          "duration": 0.21428550000001678
        },
        {
          "name": "D4",
          "midi": 62,
          "time": 295.2854190000019,
          "velocity": 0.7480314960629921,
          "duration": 0.21428550000001678
        },
        {
          "name": "D5",
          "midi": 74,
          "time": 295.2854190000019,
          "velocity": 0.7480314960629921,
          "duration": 0.21428550000001678
        },
        {
          "name": "D6",
          "midi": 86,
          "time": 295.2854190000019,
          "velocity": 0.7480314960629921,
          "duration": 0.21428550000001678
        },
        {
          "name": "D7",
          "midi": 98,
          "time": 295.2854190000019,
          "velocity": 0.7480314960629921,
          "duration": 0.21428550000001678
        },
        {
          "name": "C4",
          "midi": 60,
          "time": 295.49970450000194,
          "velocity": 0.7480314960629921,
          "duration": 0.21428550000001678
        },
        {
          "name": "C5",
          "midi": 72,
          "time": 295.49970450000194,
          "velocity": 0.7480314960629921,
          "duration": 0.21428550000001678
        },
        {
          "name": "C6",
          "midi": 84,
          "time": 295.49970450000194,
          "velocity": 0.7480314960629921,
          "duration": 0.21428550000001678
        },
        {
          "name": "C7",
          "midi": 96,
          "time": 295.49970450000194,
          "velocity": 0.7480314960629921,
          "duration": 0.21428550000001678
        },
        {
          "name": "D4",
          "midi": 62,
          "time": 295.71399000000196,
          "velocity": 0.7480314960629921,
          "duration": 0.4285709999999767
        },
        {
          "name": "D5",
          "midi": 74,
          "time": 295.71399000000196,
          "velocity": 0.7480314960629921,
          "duration": 0.4285709999999767
        },
        {
          "name": "D6",
          "midi": 86,
          "time": 295.71399000000196,
          "velocity": 0.7480314960629921,
          "duration": 0.4285709999999767
        },
        {
          "name": "D7",
          "midi": 98,
          "time": 295.71399000000196,
          "velocity": 0.7480314960629921,
          "duration": 0.4285709999999767
        },
        {
          "name": "C4",
          "midi": 60,
          "time": 296.14256100000193,
          "velocity": 0.7480314960629921,
          "duration": 0.21428550000001678
        },
        {
          "name": "C5",
          "midi": 72,
          "time": 296.14256100000193,
          "velocity": 0.7480314960629921,
          "duration": 0.21428550000001678
        },
        {
          "name": "C6",
          "midi": 84,
          "time": 296.14256100000193,
          "velocity": 0.7480314960629921,
          "duration": 0.21428550000001678
        },
        {
          "name": "C7",
          "midi": 96,
          "time": 296.14256100000193,
          "velocity": 0.7480314960629921,
          "duration": 0.21428550000001678
        },
        {
          "name": "D#4",
          "midi": 63,
          "time": 296.35684650000195,
          "velocity": 0.7480314960629921,
          "duration": 0.21428550000001678
        },
        {
          "name": "D#5",
          "midi": 75,
          "time": 296.35684650000195,
          "velocity": 0.7480314960629921,
          "duration": 0.21428550000001678
        },
        {
          "name": "D#6",
          "midi": 87,
          "time": 296.35684650000195,
          "velocity": 0.7480314960629921,
          "duration": 0.21428550000001678
        },
        {
          "name": "D#7",
          "midi": 99,
          "time": 296.35684650000195,
          "velocity": 0.7480314960629921,
          "duration": 0.21428550000001678
        },
        {
          "name": "E4",
          "midi": 64,
          "time": 296.57113200000197,
          "velocity": 0.5511811023622047,
          "duration": 0.21428550000001678
        },
        {
          "name": "E5",
          "midi": 76,
          "time": 296.57113200000197,
          "velocity": 0.5511811023622047,
          "duration": 0.21428550000001678
        },
        {
          "name": "E6",
          "midi": 88,
          "time": 296.57113200000197,
          "velocity": 0.5511811023622047,
          "duration": 0.21428550000001678
        },
        {
          "name": "E7",
          "midi": 100,
          "time": 296.57113200000197,
          "velocity": 0.5511811023622047,
          "duration": 0.21428550000001678
        },
        {
          "name": "D#4",
          "midi": 63,
          "time": 296.785417500002,
          "velocity": 0.5511811023622047,
          "duration": 0.21428550000001678
        },
        {
          "name": "D#5",
          "midi": 75,
          "time": 296.785417500002,
          "velocity": 0.5511811023622047,
          "duration": 0.21428550000001678
        },
        {
          "name": "D#6",
          "midi": 87,
          "time": 296.785417500002,
          "velocity": 0.5511811023622047,
          "duration": 0.21428550000001678
        },
        {
          "name": "D#7",
          "midi": 99,
          "time": 296.785417500002,
          "velocity": 0.5511811023622047,
          "duration": 0.21428550000001678
        },
        {
          "name": "D4",
          "midi": 62,
          "time": 296.999703000002,
          "velocity": 0.7480314960629921,
          "duration": 0.21428550000001678
        },
        {
          "name": "D5",
          "midi": 74,
          "time": 296.999703000002,
          "velocity": 0.7480314960629921,
          "duration": 0.21428550000001678
        },
        {
          "name": "D6",
          "midi": 86,
          "time": 296.999703000002,
          "velocity": 0.7480314960629921,
          "duration": 0.21428550000001678
        },
        {
          "name": "D7",
          "midi": 98,
          "time": 296.999703000002,
          "velocity": 0.7480314960629921,
          "duration": 0.21428550000001678
        },
        {
          "name": "C4",
          "midi": 60,
          "time": 297.213988500002,
          "velocity": 0.7480314960629921,
          "duration": 0.21428550000001678
        },
        {
          "name": "C5",
          "midi": 72,
          "time": 297.213988500002,
          "velocity": 0.7480314960629921,
          "duration": 0.21428550000001678
        },
        {
          "name": "C6",
          "midi": 84,
          "time": 297.213988500002,
          "velocity": 0.7480314960629921,
          "duration": 0.21428550000001678
        },
        {
          "name": "C7",
          "midi": 96,
          "time": 297.213988500002,
          "velocity": 0.7480314960629921,
          "duration": 0.21428550000001678
        },
        {
          "name": "D4",
          "midi": 62,
          "time": 297.42827400000203,
          "velocity": 0.7480314960629921,
          "duration": 0.4285709999999767
        },
        {
          "name": "D5",
          "midi": 74,
          "time": 297.42827400000203,
          "velocity": 0.7480314960629921,
          "duration": 0.4285709999999767
        },
        {
          "name": "D6",
          "midi": 86,
          "time": 297.42827400000203,
          "velocity": 0.7480314960629921,
          "duration": 0.4285709999999767
        },
        {
          "name": "D7",
          "midi": 98,
          "time": 297.42827400000203,
          "velocity": 0.7480314960629921,
          "duration": 0.4285709999999767
        },
        {
          "name": "C4",
          "midi": 60,
          "time": 297.856845000002,
          "velocity": 0.7480314960629921,
          "duration": 0.21428550000001678
        },
        {
          "name": "C5",
          "midi": 72,
          "time": 297.856845000002,
          "velocity": 0.7480314960629921,
          "duration": 0.21428550000001678
        },
        {
          "name": "C6",
          "midi": 84,
          "time": 297.856845000002,
          "velocity": 0.7480314960629921,
          "duration": 0.21428550000001678
        },
        {
          "name": "C7",
          "midi": 96,
          "time": 297.856845000002,
          "velocity": 0.7480314960629921,
          "duration": 0.21428550000001678
        },
        {
          "name": "D4",
          "midi": 62,
          "time": 298.071130500002,
          "velocity": 0.7480314960629921,
          "duration": 0.21428550000001678
        },
        {
          "name": "D5",
          "midi": 74,
          "time": 298.071130500002,
          "velocity": 0.7480314960629921,
          "duration": 0.21428550000001678
        },
        {
          "name": "D6",
          "midi": 86,
          "time": 298.071130500002,
          "velocity": 0.7480314960629921,
          "duration": 0.21428550000001678
        },
        {
          "name": "D7",
          "midi": 98,
          "time": 298.071130500002,
          "velocity": 0.7480314960629921,
          "duration": 0.21428550000001678
        },
        {
          "name": "E4",
          "midi": 64,
          "time": 298.28541600000204,
          "velocity": 0.5511811023622047,
          "duration": 0.21428550000001678
        },
        {
          "name": "E5",
          "midi": 76,
          "time": 298.28541600000204,
          "velocity": 0.5511811023622047,
          "duration": 0.21428550000001678
        },
        {
          "name": "E6",
          "midi": 88,
          "time": 298.28541600000204,
          "velocity": 0.5511811023622047,
          "duration": 0.21428550000001678
        },
        {
          "name": "E7",
          "midi": 100,
          "time": 298.28541600000204,
          "velocity": 0.5511811023622047,
          "duration": 0.21428550000001678
        },
        {
          "name": "D4",
          "midi": 62,
          "time": 298.49970150000206,
          "velocity": 0.5511811023622047,
          "duration": 0.21428550000001678
        },
        {
          "name": "D5",
          "midi": 74,
          "time": 298.49970150000206,
          "velocity": 0.5511811023622047,
          "duration": 0.21428550000001678
        },
        {
          "name": "D6",
          "midi": 86,
          "time": 298.49970150000206,
          "velocity": 0.5511811023622047,
          "duration": 0.21428550000001678
        },
        {
          "name": "D7",
          "midi": 98,
          "time": 298.49970150000206,
          "velocity": 0.5511811023622047,
          "duration": 0.21428550000001678
        },
        {
          "name": "D4",
          "midi": 62,
          "time": 298.7139870000021,
          "velocity": 0.7480314960629921,
          "duration": 0.21428550000001678
        },
        {
          "name": "D5",
          "midi": 74,
          "time": 298.7139870000021,
          "velocity": 0.7480314960629921,
          "duration": 0.21428550000001678
        },
        {
          "name": "D6",
          "midi": 86,
          "time": 298.7139870000021,
          "velocity": 0.7480314960629921,
          "duration": 0.21428550000001678
        },
        {
          "name": "D7",
          "midi": 98,
          "time": 298.7139870000021,
          "velocity": 0.7480314960629921,
          "duration": 0.21428550000001678
        },
        {
          "name": "C#4",
          "midi": 61,
          "time": 298.9282725000021,
          "velocity": 0.7480314960629921,
          "duration": 0.21428550000001678
        },
        {
          "name": "C#5",
          "midi": 73,
          "time": 298.9282725000021,
          "velocity": 0.7480314960629921,
          "duration": 0.21428550000001678
        },
        {
          "name": "C#6",
          "midi": 85,
          "time": 298.9282725000021,
          "velocity": 0.7480314960629921,
          "duration": 0.21428550000001678
        },
        {
          "name": "C#7",
          "midi": 97,
          "time": 298.9282725000021,
          "velocity": 0.7480314960629921,
          "duration": 0.21428550000001678
        },
        {
          "name": "D4",
          "midi": 62,
          "time": 299.1425580000021,
          "velocity": 0.7480314960629921,
          "duration": 0.4285709999999767
        },
        {
          "name": "D5",
          "midi": 74,
          "time": 299.1425580000021,
          "velocity": 0.7480314960629921,
          "duration": 0.4285709999999767
        },
        {
          "name": "D6",
          "midi": 86,
          "time": 299.1425580000021,
          "velocity": 0.7480314960629921,
          "duration": 0.4285709999999767
        },
        {
          "name": "D7",
          "midi": 98,
          "time": 299.1425580000021,
          "velocity": 0.7480314960629921,
          "duration": 0.4285709999999767
        },
        {
          "name": "C#4",
          "midi": 61,
          "time": 299.5711290000021,
          "velocity": 0.7480314960629921,
          "duration": 0.21428550000001678
        },
        {
          "name": "C#5",
          "midi": 73,
          "time": 299.5711290000021,
          "velocity": 0.7480314960629921,
          "duration": 0.21428550000001678
        },
        {
          "name": "C#6",
          "midi": 85,
          "time": 299.5711290000021,
          "velocity": 0.7480314960629921,
          "duration": 0.21428550000001678
        },
        {
          "name": "C#7",
          "midi": 97,
          "time": 299.5711290000021,
          "velocity": 0.7480314960629921,
          "duration": 0.21428550000001678
        },
        {
          "name": "D4",
          "midi": 62,
          "time": 299.7854145000021,
          "velocity": 0.7480314960629921,
          "duration": 0.21428550000001678
        },
        {
          "name": "D5",
          "midi": 74,
          "time": 299.7854145000021,
          "velocity": 0.7480314960629921,
          "duration": 0.21428550000001678
        },
        {
          "name": "D6",
          "midi": 86,
          "time": 299.7854145000021,
          "velocity": 0.7480314960629921,
          "duration": 0.21428550000001678
        },
        {
          "name": "D7",
          "midi": 98,
          "time": 299.7854145000021,
          "velocity": 0.7480314960629921,
          "duration": 0.21428550000001678
        },
        {
          "name": "E4",
          "midi": 64,
          "time": 299.9997000000021,
          "velocity": 0.5511811023622047,
          "duration": 0.21428550000001678
        },
        {
          "name": "E5",
          "midi": 76,
          "time": 299.9997000000021,
          "velocity": 0.5511811023622047,
          "duration": 0.21428550000001678
        },
        {
          "name": "E6",
          "midi": 88,
          "time": 299.9997000000021,
          "velocity": 0.5511811023622047,
          "duration": 0.21428550000001678
        },
        {
          "name": "E7",
          "midi": 100,
          "time": 299.9997000000021,
          "velocity": 0.5511811023622047,
          "duration": 0.21428550000001678
        },
        {
          "name": "C#4",
          "midi": 61,
          "time": 300.21398550000214,
          "velocity": 0.5511811023622047,
          "duration": 0.21428550000001678
        },
        {
          "name": "C#5",
          "midi": 73,
          "time": 300.21398550000214,
          "velocity": 0.5511811023622047,
          "duration": 0.21428550000001678
        },
        {
          "name": "C#6",
          "midi": 85,
          "time": 300.21398550000214,
          "velocity": 0.5511811023622047,
          "duration": 0.21428550000001678
        },
        {
          "name": "C#7",
          "midi": 97,
          "time": 300.21398550000214,
          "velocity": 0.5511811023622047,
          "duration": 0.21428550000001678
        },
        {
          "name": "D4",
          "midi": 62,
          "time": 300.42827100000216,
          "velocity": 0.7480314960629921,
          "duration": 0.21428550000001678
        },
        {
          "name": "D5",
          "midi": 74,
          "time": 300.42827100000216,
          "velocity": 0.7480314960629921,
          "duration": 0.21428550000001678
        },
        {
          "name": "D6",
          "midi": 86,
          "time": 300.42827100000216,
          "velocity": 0.7480314960629921,
          "duration": 0.21428550000001678
        },
        {
          "name": "D7",
          "midi": 98,
          "time": 300.42827100000216,
          "velocity": 0.7480314960629921,
          "duration": 0.21428550000001678
        },
        {
          "name": "C#4",
          "midi": 61,
          "time": 300.6425565000022,
          "velocity": 0.7480314960629921,
          "duration": 0.21428550000001678
        },
        {
          "name": "C#5",
          "midi": 73,
          "time": 300.6425565000022,
          "velocity": 0.7480314960629921,
          "duration": 0.21428550000001678
        },
        {
          "name": "C#6",
          "midi": 85,
          "time": 300.6425565000022,
          "velocity": 0.7480314960629921,
          "duration": 0.21428550000001678
        },
        {
          "name": "C#7",
          "midi": 97,
          "time": 300.6425565000022,
          "velocity": 0.7480314960629921,
          "duration": 0.21428550000001678
        },
        {
          "name": "D4",
          "midi": 62,
          "time": 300.8568420000022,
          "velocity": 0.7480314960629921,
          "duration": 0.4285709999999767
        },
        {
          "name": "D5",
          "midi": 74,
          "time": 300.8568420000022,
          "velocity": 0.7480314960629921,
          "duration": 0.4285709999999767
        },
        {
          "name": "D6",
          "midi": 86,
          "time": 300.8568420000022,
          "velocity": 0.7480314960629921,
          "duration": 0.4285709999999767
        },
        {
          "name": "D7",
          "midi": 98,
          "time": 300.8568420000022,
          "velocity": 0.7480314960629921,
          "duration": 0.4285709999999767
        },
        {
          "name": "C#4",
          "midi": 61,
          "time": 301.28541300000217,
          "velocity": 0.7480314960629921,
          "duration": 0.10714274999997997
        },
        {
          "name": "C#5",
          "midi": 73,
          "time": 301.28541300000217,
          "velocity": 0.7480314960629921,
          "duration": 0.10714274999997997
        },
        {
          "name": "C#6",
          "midi": 85,
          "time": 301.28541300000217,
          "velocity": 0.7480314960629921,
          "duration": 0.10714274999997997
        },
        {
          "name": "C#7",
          "midi": 97,
          "time": 301.28541300000217,
          "velocity": 0.7480314960629921,
          "duration": 0.10714274999997997
        },
        {
          "name": "D#4",
          "midi": 63,
          "time": 301.39255575000215,
          "velocity": 0.7480314960629921,
          "duration": 0.21428550000001678
        },
        {
          "name": "D#5",
          "midi": 75,
          "time": 301.39255575000215,
          "velocity": 0.7480314960629921,
          "duration": 0.21428550000001678
        },
        {
          "name": "D#6",
          "midi": 87,
          "time": 301.39255575000215,
          "velocity": 0.7480314960629921,
          "duration": 0.21428550000001678
        },
        {
          "name": "D#7",
          "midi": 99,
          "time": 301.39255575000215,
          "velocity": 0.7480314960629921,
          "duration": 0.21428550000001678
        },
        {
          "name": "E4",
          "midi": 64,
          "time": 301.60684125000216,
          "velocity": 0.5511811023622047,
          "duration": 0.21428550000001678
        },
        {
          "name": "E5",
          "midi": 76,
          "time": 301.60684125000216,
          "velocity": 0.5511811023622047,
          "duration": 0.21428550000001678
        },
        {
          "name": "E6",
          "midi": 88,
          "time": 301.60684125000216,
          "velocity": 0.5511811023622047,
          "duration": 0.21428550000001678
        },
        {
          "name": "E7",
          "midi": 100,
          "time": 301.60684125000216,
          "velocity": 0.5511811023622047,
          "duration": 0.21428550000001678
        },
        {
          "name": "D#4",
          "midi": 63,
          "time": 301.8211267500022,
          "velocity": 0.7480314960629921,
          "duration": 0.21428550000001678
        },
        {
          "name": "D#5",
          "midi": 75,
          "time": 301.8211267500022,
          "velocity": 0.7480314960629921,
          "duration": 0.21428550000001678
        },
        {
          "name": "D#6",
          "midi": 87,
          "time": 301.8211267500022,
          "velocity": 0.7480314960629921,
          "duration": 0.21428550000001678
        },
        {
          "name": "D#7",
          "midi": 99,
          "time": 301.8211267500022,
          "velocity": 0.7480314960629921,
          "duration": 0.21428550000001678
        },
        {
          "name": "D4",
          "midi": 62,
          "time": 302.0354122500022,
          "velocity": 0.7480314960629921,
          "duration": 0.21428550000001678
        },
        {
          "name": "D5",
          "midi": 74,
          "time": 302.0354122500022,
          "velocity": 0.7480314960629921,
          "duration": 0.21428550000001678
        },
        {
          "name": "D6",
          "midi": 86,
          "time": 302.0354122500022,
          "velocity": 0.7480314960629921,
          "duration": 0.21428550000001678
        },
        {
          "name": "D7",
          "midi": 98,
          "time": 302.0354122500022,
          "velocity": 0.7480314960629921,
          "duration": 0.21428550000001678
        },
        {
          "name": "C#4",
          "midi": 61,
          "time": 302.2496977500022,
          "velocity": 0.7480314960629921,
          "duration": 0.21428550000001678
        },
        {
          "name": "C#5",
          "midi": 73,
          "time": 302.2496977500022,
          "velocity": 0.7480314960629921,
          "duration": 0.21428550000001678
        },
        {
          "name": "C#6",
          "midi": 85,
          "time": 302.2496977500022,
          "velocity": 0.7480314960629921,
          "duration": 0.21428550000001678
        },
        {
          "name": "C#7",
          "midi": 97,
          "time": 302.2496977500022,
          "velocity": 0.7480314960629921,
          "duration": 0.21428550000001678
        },
        {
          "name": "D#4",
          "midi": 63,
          "time": 302.46398325000223,
          "velocity": 0.7480314960629921,
          "duration": 0.4285709999999767
        },
        {
          "name": "D#5",
          "midi": 75,
          "time": 302.46398325000223,
          "velocity": 0.7480314960629921,
          "duration": 0.4285709999999767
        },
        {
          "name": "D#6",
          "midi": 87,
          "time": 302.46398325000223,
          "velocity": 0.7480314960629921,
          "duration": 0.4285709999999767
        },
        {
          "name": "D#7",
          "midi": 99,
          "time": 302.46398325000223,
          "velocity": 0.7480314960629921,
          "duration": 0.4285709999999767
        },
        {
          "name": "C#4",
          "midi": 61,
          "time": 302.8925542500022,
          "velocity": 0.7480314960629921,
          "duration": 0.21428550000001678
        },
        {
          "name": "C#5",
          "midi": 73,
          "time": 302.8925542500022,
          "velocity": 0.7480314960629921,
          "duration": 0.21428550000001678
        },
        {
          "name": "C#6",
          "midi": 85,
          "time": 302.8925542500022,
          "velocity": 0.7480314960629921,
          "duration": 0.21428550000001678
        },
        {
          "name": "C#7",
          "midi": 97,
          "time": 302.8925542500022,
          "velocity": 0.7480314960629921,
          "duration": 0.21428550000001678
        },
        {
          "name": "D#4",
          "midi": 63,
          "time": 303.1068397500022,
          "velocity": 0.7480314960629921,
          "duration": 0.21428550000001678
        },
        {
          "name": "D#5",
          "midi": 75,
          "time": 303.1068397500022,
          "velocity": 0.7480314960629921,
          "duration": 0.21428550000001678
        },
        {
          "name": "D#6",
          "midi": 87,
          "time": 303.1068397500022,
          "velocity": 0.7480314960629921,
          "duration": 0.21428550000001678
        },
        {
          "name": "D#7",
          "midi": 99,
          "time": 303.1068397500022,
          "velocity": 0.7480314960629921,
          "duration": 0.21428550000001678
        },
        {
          "name": "E4",
          "midi": 64,
          "time": 303.32112525000224,
          "velocity": 0.7480314960629921,
          "duration": 0.21428550000001678
        },
        {
          "name": "E5",
          "midi": 76,
          "time": 303.32112525000224,
          "velocity": 0.7480314960629921,
          "duration": 0.21428550000001678
        },
        {
          "name": "E6",
          "midi": 88,
          "time": 303.32112525000224,
          "velocity": 0.7480314960629921,
          "duration": 0.21428550000001678
        },
        {
          "name": "E7",
          "midi": 100,
          "time": 303.32112525000224,
          "velocity": 0.7480314960629921,
          "duration": 0.21428550000001678
        },
        {
          "name": "D#4",
          "midi": 63,
          "time": 303.53541075000226,
          "velocity": 0.7480314960629921,
          "duration": 0.21428550000001678
        },
        {
          "name": "D#5",
          "midi": 75,
          "time": 303.53541075000226,
          "velocity": 0.7480314960629921,
          "duration": 0.21428550000001678
        },
        {
          "name": "D#6",
          "midi": 87,
          "time": 303.53541075000226,
          "velocity": 0.7480314960629921,
          "duration": 0.21428550000001678
        },
        {
          "name": "D#7",
          "midi": 99,
          "time": 303.53541075000226,
          "velocity": 0.7480314960629921,
          "duration": 0.21428550000001678
        },
        {
          "name": "D4",
          "midi": 62,
          "time": 303.7496962500023,
          "velocity": 0.7480314960629921,
          "duration": 0.21428550000001678
        },
        {
          "name": "D5",
          "midi": 74,
          "time": 303.7496962500023,
          "velocity": 0.7480314960629921,
          "duration": 0.21428550000001678
        },
        {
          "name": "D6",
          "midi": 86,
          "time": 303.7496962500023,
          "velocity": 0.7480314960629921,
          "duration": 0.21428550000001678
        },
        {
          "name": "D7",
          "midi": 98,
          "time": 303.7496962500023,
          "velocity": 0.7480314960629921,
          "duration": 0.21428550000001678
        },
        {
          "name": "C#4",
          "midi": 61,
          "time": 303.9639817500023,
          "velocity": 0.7480314960629921,
          "duration": 0.21428550000001678
        },
        {
          "name": "C#5",
          "midi": 73,
          "time": 303.9639817500023,
          "velocity": 0.7480314960629921,
          "duration": 0.21428550000001678
        },
        {
          "name": "C#6",
          "midi": 85,
          "time": 303.9639817500023,
          "velocity": 0.7480314960629921,
          "duration": 0.21428550000001678
        },
        {
          "name": "C#7",
          "midi": 97,
          "time": 303.9639817500023,
          "velocity": 0.7480314960629921,
          "duration": 0.21428550000001678
        },
        {
          "name": "D#4",
          "midi": 63,
          "time": 304.1782672500023,
          "velocity": 0.7480314960629921,
          "duration": 0.4285709999999767
        },
        {
          "name": "D#5",
          "midi": 75,
          "time": 304.1782672500023,
          "velocity": 0.7480314960629921,
          "duration": 0.4285709999999767
        },
        {
          "name": "D#6",
          "midi": 87,
          "time": 304.1782672500023,
          "velocity": 0.7480314960629921,
          "duration": 0.4285709999999767
        },
        {
          "name": "D#7",
          "midi": 99,
          "time": 304.1782672500023,
          "velocity": 0.7480314960629921,
          "duration": 0.4285709999999767
        },
        {
          "name": "C#4",
          "midi": 61,
          "time": 304.6068382500023,
          "velocity": 0.7480314960629921,
          "duration": 0.21428550000001678
        },
        {
          "name": "C#5",
          "midi": 73,
          "time": 304.6068382500023,
          "velocity": 0.7480314960629921,
          "duration": 0.21428550000001678
        },
        {
          "name": "C#6",
          "midi": 85,
          "time": 304.6068382500023,
          "velocity": 0.7480314960629921,
          "duration": 0.21428550000001678
        },
        {
          "name": "C#7",
          "midi": 97,
          "time": 304.6068382500023,
          "velocity": 0.7480314960629921,
          "duration": 0.21428550000001678
        },
        {
          "name": "D#4",
          "midi": 63,
          "time": 304.8211237500023,
          "velocity": 0.7480314960629921,
          "duration": 0.21428550000001678
        },
        {
          "name": "D#5",
          "midi": 75,
          "time": 304.8211237500023,
          "velocity": 0.7480314960629921,
          "duration": 0.21428550000001678
        },
        {
          "name": "D#6",
          "midi": 87,
          "time": 304.8211237500023,
          "velocity": 0.7480314960629921,
          "duration": 0.21428550000001678
        },
        {
          "name": "D#7",
          "midi": 99,
          "time": 304.8211237500023,
          "velocity": 0.7480314960629921,
          "duration": 0.21428550000001678
        },
        {
          "name": "E4",
          "midi": 64,
          "time": 305.0354092500023,
          "velocity": 0.7480314960629921,
          "duration": 0.21428550000001678
        },
        {
          "name": "E5",
          "midi": 76,
          "time": 305.0354092500023,
          "velocity": 0.7480314960629921,
          "duration": 0.21428550000001678
        },
        {
          "name": "E6",
          "midi": 88,
          "time": 305.0354092500023,
          "velocity": 0.7480314960629921,
          "duration": 0.21428550000001678
        },
        {
          "name": "E7",
          "midi": 100,
          "time": 305.0354092500023,
          "velocity": 0.7480314960629921,
          "duration": 0.21428550000001678
        },
        {
          "name": "D#4",
          "midi": 63,
          "time": 305.24969475000233,
          "velocity": 0.7480314960629921,
          "duration": 0.21428550000001678
        },
        {
          "name": "D#5",
          "midi": 75,
          "time": 305.24969475000233,
          "velocity": 0.7480314960629921,
          "duration": 0.21428550000001678
        },
        {
          "name": "D#6",
          "midi": 87,
          "time": 305.24969475000233,
          "velocity": 0.7480314960629921,
          "duration": 0.21428550000001678
        },
        {
          "name": "D#7",
          "midi": 99,
          "time": 305.24969475000233,
          "velocity": 0.7480314960629921,
          "duration": 0.21428550000001678
        },
        {
          "name": "D4",
          "midi": 62,
          "time": 305.46398025000235,
          "velocity": 0.7480314960629921,
          "duration": 0.21428550000001678
        },
        {
          "name": "D5",
          "midi": 74,
          "time": 305.46398025000235,
          "velocity": 0.7480314960629921,
          "duration": 0.21428550000001678
        },
        {
          "name": "D6",
          "midi": 86,
          "time": 305.46398025000235,
          "velocity": 0.7480314960629921,
          "duration": 0.21428550000001678
        },
        {
          "name": "D7",
          "midi": 98,
          "time": 305.46398025000235,
          "velocity": 0.7480314960629921,
          "duration": 0.21428550000001678
        },
        {
          "name": "C#4",
          "midi": 61,
          "time": 305.67826575000237,
          "velocity": 0.7480314960629921,
          "duration": 0.21428550000001678
        },
        {
          "name": "C#5",
          "midi": 73,
          "time": 305.67826575000237,
          "velocity": 0.7480314960629921,
          "duration": 0.21428550000001678
        },
        {
          "name": "C#6",
          "midi": 85,
          "time": 305.67826575000237,
          "velocity": 0.7480314960629921,
          "duration": 0.21428550000001678
        },
        {
          "name": "C#7",
          "midi": 97,
          "time": 305.67826575000237,
          "velocity": 0.7480314960629921,
          "duration": 0.21428550000001678
        },
        {
          "name": "D#4",
          "midi": 63,
          "time": 305.8925512500024,
          "velocity": 0.2440944881889764,
          "duration": 0.4285709999999767
        },
        {
          "name": "D#5",
          "midi": 75,
          "time": 305.8925512500024,
          "velocity": 0.2440944881889764,
          "duration": 0.4285709999999767
        },
        {
          "name": "D#6",
          "midi": 87,
          "time": 305.8925512500024,
          "velocity": 0.2440944881889764,
          "duration": 0.4285709999999767
        },
        {
          "name": "D#7",
          "midi": 99,
          "time": 305.8925512500024,
          "velocity": 0.2440944881889764,
          "duration": 0.4285709999999767
        },
        {
          "name": "C#4",
          "midi": 61,
          "time": 306.32112225000236,
          "velocity": 0.7480314960629921,
          "duration": 0.21428550000001678
        },
        {
          "name": "C#5",
          "midi": 73,
          "time": 306.32112225000236,
          "velocity": 0.7480314960629921,
          "duration": 0.21428550000001678
        },
        {
          "name": "C#6",
          "midi": 85,
          "time": 306.32112225000236,
          "velocity": 0.7480314960629921,
          "duration": 0.21428550000001678
        },
        {
          "name": "C#7",
          "midi": 97,
          "time": 306.32112225000236,
          "velocity": 0.7480314960629921,
          "duration": 0.21428550000001678
        },
        {
          "name": "D#4",
          "midi": 63,
          "time": 306.5354077500024,
          "velocity": 0.7480314960629921,
          "duration": 0.21428550000001678
        },
        {
          "name": "D#5",
          "midi": 75,
          "time": 306.5354077500024,
          "velocity": 0.7480314960629921,
          "duration": 0.21428550000001678
        },
        {
          "name": "D#6",
          "midi": 87,
          "time": 306.5354077500024,
          "velocity": 0.7480314960629921,
          "duration": 0.21428550000001678
        },
        {
          "name": "D#7",
          "midi": 99,
          "time": 306.5354077500024,
          "velocity": 0.7480314960629921,
          "duration": 0.21428550000001678
        },
        {
          "name": "E4",
          "midi": 64,
          "time": 306.7496932500024,
          "velocity": 0.7480314960629921,
          "duration": 0.21428550000001678
        },
        {
          "name": "E5",
          "midi": 76,
          "time": 306.7496932500024,
          "velocity": 0.7480314960629921,
          "duration": 0.21428550000001678
        },
        {
          "name": "E6",
          "midi": 88,
          "time": 306.7496932500024,
          "velocity": 0.7480314960629921,
          "duration": 0.21428550000001678
        },
        {
          "name": "E7",
          "midi": 100,
          "time": 306.7496932500024,
          "velocity": 0.7480314960629921,
          "duration": 0.21428550000001678
        },
        {
          "name": "D#4",
          "midi": 63,
          "time": 306.9639787500024,
          "velocity": 0.7480314960629921,
          "duration": 0.21428550000001678
        },
        {
          "name": "D#5",
          "midi": 75,
          "time": 306.9639787500024,
          "velocity": 0.7480314960629921,
          "duration": 0.21428550000001678
        },
        {
          "name": "D#6",
          "midi": 87,
          "time": 306.9639787500024,
          "velocity": 0.7480314960629921,
          "duration": 0.21428550000001678
        },
        {
          "name": "D#7",
          "midi": 99,
          "time": 306.9639787500024,
          "velocity": 0.7480314960629921,
          "duration": 0.21428550000001678
        },
        {
          "name": "D4",
          "midi": 62,
          "time": 307.1782642500024,
          "velocity": 0.7480314960629921,
          "duration": 0.21428550000001678
        },
        {
          "name": "D5",
          "midi": 74,
          "time": 307.1782642500024,
          "velocity": 0.7480314960629921,
          "duration": 0.21428550000001678
        },
        {
          "name": "D6",
          "midi": 86,
          "time": 307.1782642500024,
          "velocity": 0.7480314960629921,
          "duration": 0.21428550000001678
        },
        {
          "name": "D7",
          "midi": 98,
          "time": 307.1782642500024,
          "velocity": 0.7480314960629921,
          "duration": 0.21428550000001678
        },
        {
          "name": "C#4",
          "midi": 61,
          "time": 307.39254975000244,
          "velocity": 0.7480314960629921,
          "duration": 0.21428550000001678
        },
        {
          "name": "C#5",
          "midi": 73,
          "time": 307.39254975000244,
          "velocity": 0.7480314960629921,
          "duration": 0.21428550000001678
        },
        {
          "name": "C#6",
          "midi": 85,
          "time": 307.39254975000244,
          "velocity": 0.7480314960629921,
          "duration": 0.21428550000001678
        },
        {
          "name": "C#7",
          "midi": 97,
          "time": 307.39254975000244,
          "velocity": 0.7480314960629921,
          "duration": 0.21428550000001678
        },
        {
          "name": "D#4",
          "midi": 63,
          "time": 307.60683525000246,
          "velocity": 0.7480314960629921,
          "duration": 0.4285709999999767
        },
        {
          "name": "D#5",
          "midi": 75,
          "time": 307.60683525000246,
          "velocity": 0.7480314960629921,
          "duration": 0.4285709999999767
        },
        {
          "name": "D#6",
          "midi": 87,
          "time": 307.60683525000246,
          "velocity": 0.7480314960629921,
          "duration": 0.4285709999999767
        },
        {
          "name": "D#7",
          "midi": 99,
          "time": 307.60683525000246,
          "velocity": 0.7480314960629921,
          "duration": 0.4285709999999767
        },
        {
          "name": "C#4",
          "midi": 61,
          "time": 308.03540625000244,
          "velocity": 0.7480314960629921,
          "duration": 0.21428550000001678
        },
        {
          "name": "C#5",
          "midi": 73,
          "time": 308.03540625000244,
          "velocity": 0.7480314960629921,
          "duration": 0.21428550000001678
        },
        {
          "name": "C#6",
          "midi": 85,
          "time": 308.03540625000244,
          "velocity": 0.7480314960629921,
          "duration": 0.21428550000001678
        },
        {
          "name": "C#7",
          "midi": 97,
          "time": 308.03540625000244,
          "velocity": 0.7480314960629921,
          "duration": 0.21428550000001678
        },
        {
          "name": "D#4",
          "midi": 63,
          "time": 308.24969175000246,
          "velocity": 0.7480314960629921,
          "duration": 0.21428550000001678
        },
        {
          "name": "D#5",
          "midi": 75,
          "time": 308.24969175000246,
          "velocity": 0.7480314960629921,
          "duration": 0.21428550000001678
        },
        {
          "name": "D#6",
          "midi": 87,
          "time": 308.24969175000246,
          "velocity": 0.7480314960629921,
          "duration": 0.21428550000001678
        },
        {
          "name": "D#7",
          "midi": 99,
          "time": 308.24969175000246,
          "velocity": 0.7480314960629921,
          "duration": 0.21428550000001678
        },
        {
          "name": "E4",
          "midi": 64,
          "time": 308.4639772500025,
          "velocity": 0.7480314960629921,
          "duration": 0.21428550000001678
        },
        {
          "name": "E5",
          "midi": 76,
          "time": 308.4639772500025,
          "velocity": 0.7480314960629921,
          "duration": 0.21428550000001678
        },
        {
          "name": "E6",
          "midi": 88,
          "time": 308.4639772500025,
          "velocity": 0.7480314960629921,
          "duration": 0.21428550000001678
        },
        {
          "name": "E7",
          "midi": 100,
          "time": 308.4639772500025,
          "velocity": 0.7480314960629921,
          "duration": 0.21428550000001678
        },
        {
          "name": "D#4",
          "midi": 63,
          "time": 308.6782627500025,
          "velocity": 0.7480314960629921,
          "duration": 0.21428550000001678
        },
        {
          "name": "D#5",
          "midi": 75,
          "time": 308.6782627500025,
          "velocity": 0.7480314960629921,
          "duration": 0.21428550000001678
        },
        {
          "name": "D#6",
          "midi": 87,
          "time": 308.6782627500025,
          "velocity": 0.7480314960629921,
          "duration": 0.21428550000001678
        },
        {
          "name": "D#7",
          "midi": 99,
          "time": 308.6782627500025,
          "velocity": 0.7480314960629921,
          "duration": 0.21428550000001678
        },
        {
          "name": "D4",
          "midi": 62,
          "time": 308.8925482500025,
          "velocity": 0.7480314960629921,
          "duration": 0.21428550000001678
        },
        {
          "name": "D5",
          "midi": 74,
          "time": 308.8925482500025,
          "velocity": 0.7480314960629921,
          "duration": 0.21428550000001678
        },
        {
          "name": "D6",
          "midi": 86,
          "time": 308.8925482500025,
          "velocity": 0.7480314960629921,
          "duration": 0.21428550000001678
        },
        {
          "name": "D7",
          "midi": 98,
          "time": 308.8925482500025,
          "velocity": 0.7480314960629921,
          "duration": 0.21428550000001678
        },
        {
          "name": "C4",
          "midi": 60,
          "time": 309.1068337500025,
          "velocity": 0.7480314960629921,
          "duration": 0.21428550000001678
        },
        {
          "name": "C5",
          "midi": 72,
          "time": 309.1068337500025,
          "velocity": 0.7480314960629921,
          "duration": 0.21428550000001678
        },
        {
          "name": "C6",
          "midi": 84,
          "time": 309.1068337500025,
          "velocity": 0.7480314960629921,
          "duration": 0.21428550000001678
        },
        {
          "name": "C7",
          "midi": 96,
          "time": 309.1068337500025,
          "velocity": 0.7480314960629921,
          "duration": 0.21428550000001678
        },
        {
          "name": "D4",
          "midi": 62,
          "time": 309.32111925000254,
          "velocity": 0.7480314960629921,
          "duration": 0.4285709999999767
        },
        {
          "name": "D5",
          "midi": 74,
          "time": 309.32111925000254,
          "velocity": 0.7480314960629921,
          "duration": 0.4285709999999767
        },
        {
          "name": "D6",
          "midi": 86,
          "time": 309.32111925000254,
          "velocity": 0.7480314960629921,
          "duration": 0.4285709999999767
        },
        {
          "name": "D7",
          "midi": 98,
          "time": 309.32111925000254,
          "velocity": 0.7480314960629921,
          "duration": 0.4285709999999767
        },
        {
          "name": "C4",
          "midi": 60,
          "time": 309.7496902500025,
          "velocity": 0.7480314960629921,
          "duration": 0.21428550000001678
        },
        {
          "name": "C5",
          "midi": 72,
          "time": 309.7496902500025,
          "velocity": 0.7480314960629921,
          "duration": 0.21428550000001678
        },
        {
          "name": "C6",
          "midi": 84,
          "time": 309.7496902500025,
          "velocity": 0.7480314960629921,
          "duration": 0.21428550000001678
        },
        {
          "name": "C7",
          "midi": 96,
          "time": 309.7496902500025,
          "velocity": 0.7480314960629921,
          "duration": 0.21428550000001678
        },
        {
          "name": "D#4",
          "midi": 63,
          "time": 309.96397575000253,
          "velocity": 0.7480314960629921,
          "duration": 0.21428550000001678
        },
        {
          "name": "D#5",
          "midi": 75,
          "time": 309.96397575000253,
          "velocity": 0.7480314960629921,
          "duration": 0.21428550000001678
        },
        {
          "name": "D#6",
          "midi": 87,
          "time": 309.96397575000253,
          "velocity": 0.7480314960629921,
          "duration": 0.21428550000001678
        },
        {
          "name": "D#7",
          "midi": 99,
          "time": 309.96397575000253,
          "velocity": 0.7480314960629921,
          "duration": 0.21428550000001678
        },
        {
          "name": "E4",
          "midi": 64,
          "time": 310.17826125000255,
          "velocity": 0.7480314960629921,
          "duration": 0.21428550000001678
        },
        {
          "name": "E5",
          "midi": 76,
          "time": 310.17826125000255,
          "velocity": 0.7480314960629921,
          "duration": 0.21428550000001678
        },
        {
          "name": "E6",
          "midi": 88,
          "time": 310.17826125000255,
          "velocity": 0.7480314960629921,
          "duration": 0.21428550000001678
        },
        {
          "name": "E7",
          "midi": 100,
          "time": 310.17826125000255,
          "velocity": 0.7480314960629921,
          "duration": 0.21428550000001678
        },
        {
          "name": "D#4",
          "midi": 63,
          "time": 310.39254675000257,
          "velocity": 0.7480314960629921,
          "duration": 0.21428550000001678
        },
        {
          "name": "D#5",
          "midi": 75,
          "time": 310.39254675000257,
          "velocity": 0.7480314960629921,
          "duration": 0.21428550000001678
        },
        {
          "name": "D#6",
          "midi": 87,
          "time": 310.39254675000257,
          "velocity": 0.7480314960629921,
          "duration": 0.21428550000001678
        },
        {
          "name": "D#7",
          "midi": 99,
          "time": 310.39254675000257,
          "velocity": 0.7480314960629921,
          "duration": 0.21428550000001678
        },
        {
          "name": "D4",
          "midi": 62,
          "time": 310.6068322500026,
          "velocity": 0.7480314960629921,
          "duration": 0.21428550000001678
        },
        {
          "name": "D5",
          "midi": 74,
          "time": 310.6068322500026,
          "velocity": 0.7480314960629921,
          "duration": 0.21428550000001678
        },
        {
          "name": "D6",
          "midi": 86,
          "time": 310.6068322500026,
          "velocity": 0.7480314960629921,
          "duration": 0.21428550000001678
        },
        {
          "name": "D7",
          "midi": 98,
          "time": 310.6068322500026,
          "velocity": 0.7480314960629921,
          "duration": 0.21428550000001678
        },
        {
          "name": "C4",
          "midi": 60,
          "time": 310.8211177500026,
          "velocity": 0.7480314960629921,
          "duration": 0.21428550000001678
        },
        {
          "name": "C5",
          "midi": 72,
          "time": 310.8211177500026,
          "velocity": 0.7480314960629921,
          "duration": 0.21428550000001678
        },
        {
          "name": "C6",
          "midi": 84,
          "time": 310.8211177500026,
          "velocity": 0.7480314960629921,
          "duration": 0.21428550000001678
        },
        {
          "name": "C7",
          "midi": 96,
          "time": 310.8211177500026,
          "velocity": 0.7480314960629921,
          "duration": 0.21428550000001678
        },
        {
          "name": "D4",
          "midi": 62,
          "time": 311.0354032500026,
          "velocity": 0.7480314960629921,
          "duration": 0.4285709999999767
        },
        {
          "name": "D5",
          "midi": 74,
          "time": 311.0354032500026,
          "velocity": 0.7480314960629921,
          "duration": 0.4285709999999767
        },
        {
          "name": "D6",
          "midi": 86,
          "time": 311.0354032500026,
          "velocity": 0.7480314960629921,
          "duration": 0.4285709999999767
        },
        {
          "name": "D7",
          "midi": 98,
          "time": 311.0354032500026,
          "velocity": 0.7480314960629921,
          "duration": 0.4285709999999767
        },
        {
          "name": "C4",
          "midi": 60,
          "time": 311.4639742500026,
          "velocity": 0.7480314960629921,
          "duration": 0.21428550000001678
        },
        {
          "name": "C5",
          "midi": 72,
          "time": 311.4639742500026,
          "velocity": 0.7480314960629921,
          "duration": 0.21428550000001678
        },
        {
          "name": "C6",
          "midi": 84,
          "time": 311.4639742500026,
          "velocity": 0.7480314960629921,
          "duration": 0.21428550000001678
        },
        {
          "name": "C7",
          "midi": 96,
          "time": 311.4639742500026,
          "velocity": 0.7480314960629921,
          "duration": 0.21428550000001678
        },
        {
          "name": "D#4",
          "midi": 63,
          "time": 311.6782597500026,
          "velocity": 0.7480314960629921,
          "duration": 0.21428550000001678
        },
        {
          "name": "D#5",
          "midi": 75,
          "time": 311.6782597500026,
          "velocity": 0.7480314960629921,
          "duration": 0.21428550000001678
        },
        {
          "name": "D#6",
          "midi": 87,
          "time": 311.6782597500026,
          "velocity": 0.7480314960629921,
          "duration": 0.21428550000001678
        },
        {
          "name": "D#7",
          "midi": 99,
          "time": 311.6782597500026,
          "velocity": 0.7480314960629921,
          "duration": 0.21428550000001678
        },
        {
          "name": "E4",
          "midi": 64,
          "time": 311.8925452500026,
          "velocity": 0.7480314960629921,
          "duration": 0.21428550000001678
        },
        {
          "name": "E5",
          "midi": 76,
          "time": 311.8925452500026,
          "velocity": 0.7480314960629921,
          "duration": 0.21428550000001678
        },
        {
          "name": "E6",
          "midi": 88,
          "time": 311.8925452500026,
          "velocity": 0.7480314960629921,
          "duration": 0.21428550000001678
        },
        {
          "name": "E7",
          "midi": 100,
          "time": 311.8925452500026,
          "velocity": 0.7480314960629921,
          "duration": 0.21428550000001678
        },
        {
          "name": "D#4",
          "midi": 63,
          "time": 312.10683075000264,
          "velocity": 0.7480314960629921,
          "duration": 0.21428550000001678
        },
        {
          "name": "D#5",
          "midi": 75,
          "time": 312.10683075000264,
          "velocity": 0.7480314960629921,
          "duration": 0.21428550000001678
        },
        {
          "name": "D#6",
          "midi": 87,
          "time": 312.10683075000264,
          "velocity": 0.7480314960629921,
          "duration": 0.21428550000001678
        },
        {
          "name": "D#7",
          "midi": 99,
          "time": 312.10683075000264,
          "velocity": 0.7480314960629921,
          "duration": 0.21428550000001678
        },
        {
          "name": "D4",
          "midi": 62,
          "time": 312.32111625000266,
          "velocity": 0.7480314960629921,
          "duration": 0.21428550000001678
        },
        {
          "name": "D5",
          "midi": 74,
          "time": 312.32111625000266,
          "velocity": 0.7480314960629921,
          "duration": 0.21428550000001678
        },
        {
          "name": "D6",
          "midi": 86,
          "time": 312.32111625000266,
          "velocity": 0.7480314960629921,
          "duration": 0.21428550000001678
        },
        {
          "name": "D7",
          "midi": 98,
          "time": 312.32111625000266,
          "velocity": 0.7480314960629921,
          "duration": 0.21428550000001678
        },
        {
          "name": "C#4",
          "midi": 61,
          "time": 312.5354017500027,
          "velocity": 0.7480314960629921,
          "duration": 0.21428550000001678
        },
        {
          "name": "C#5",
          "midi": 73,
          "time": 312.5354017500027,
          "velocity": 0.7480314960629921,
          "duration": 0.21428550000001678
        },
        {
          "name": "C#6",
          "midi": 85,
          "time": 312.5354017500027,
          "velocity": 0.7480314960629921,
          "duration": 0.21428550000001678
        },
        {
          "name": "C#7",
          "midi": 97,
          "time": 312.5354017500027,
          "velocity": 0.7480314960629921,
          "duration": 0.21428550000001678
        },
        {
          "name": "D4",
          "midi": 62,
          "time": 312.7496872500027,
          "velocity": 0.7480314960629921,
          "duration": 0.4285709999999767
        },
        {
          "name": "D5",
          "midi": 74,
          "time": 312.7496872500027,
          "velocity": 0.7480314960629921,
          "duration": 0.4285709999999767
        },
        {
          "name": "D6",
          "midi": 86,
          "time": 312.7496872500027,
          "velocity": 0.7480314960629921,
          "duration": 0.4285709999999767
        },
        {
          "name": "D7",
          "midi": 98,
          "time": 312.7496872500027,
          "velocity": 0.7480314960629921,
          "duration": 0.4285709999999767
        },
        {
          "name": "C#4",
          "midi": 61,
          "time": 313.17825825000267,
          "velocity": 0.7480314960629921,
          "duration": 0.21428550000001678
        },
        {
          "name": "C#5",
          "midi": 73,
          "time": 313.17825825000267,
          "velocity": 0.7480314960629921,
          "duration": 0.21428550000001678
        },
        {
          "name": "C#6",
          "midi": 85,
          "time": 313.17825825000267,
          "velocity": 0.7480314960629921,
          "duration": 0.21428550000001678
        },
        {
          "name": "C#7",
          "midi": 97,
          "time": 313.17825825000267,
          "velocity": 0.7480314960629921,
          "duration": 0.21428550000001678
        },
        {
          "name": "D#4",
          "midi": 63,
          "time": 313.3925437500027,
          "velocity": 0.7480314960629921,
          "duration": 0.21428550000001678
        },
        {
          "name": "D#5",
          "midi": 75,
          "time": 313.3925437500027,
          "velocity": 0.7480314960629921,
          "duration": 0.21428550000001678
        },
        {
          "name": "D#6",
          "midi": 87,
          "time": 313.3925437500027,
          "velocity": 0.7480314960629921,
          "duration": 0.21428550000001678
        },
        {
          "name": "D#7",
          "midi": 99,
          "time": 313.3925437500027,
          "velocity": 0.7480314960629921,
          "duration": 0.21428550000001678
        },
        {
          "name": "E4",
          "midi": 64,
          "time": 313.6068292500027,
          "velocity": 0.7480314960629921,
          "duration": 0.21428550000001678
        },
        {
          "name": "E5",
          "midi": 76,
          "time": 313.6068292500027,
          "velocity": 0.7480314960629921,
          "duration": 0.21428550000001678
        },
        {
          "name": "E6",
          "midi": 88,
          "time": 313.6068292500027,
          "velocity": 0.7480314960629921,
          "duration": 0.21428550000001678
        },
        {
          "name": "E7",
          "midi": 100,
          "time": 313.6068292500027,
          "velocity": 0.7480314960629921,
          "duration": 0.21428550000001678
        },
        {
          "name": "D4",
          "midi": 62,
          "time": 313.8211147500027,
          "velocity": 0.7480314960629921,
          "duration": 0.21428550000001678
        },
        {
          "name": "D5",
          "midi": 74,
          "time": 313.8211147500027,
          "velocity": 0.7480314960629921,
          "duration": 0.21428550000001678
        },
        {
          "name": "D6",
          "midi": 86,
          "time": 313.8211147500027,
          "velocity": 0.7480314960629921,
          "duration": 0.21428550000001678
        },
        {
          "name": "D7",
          "midi": 98,
          "time": 313.8211147500027,
          "velocity": 0.7480314960629921,
          "duration": 0.21428550000001678
        },
        {
          "name": "C#4",
          "midi": 61,
          "time": 314.03540025000274,
          "velocity": 0.7480314960629921,
          "duration": 0.21428550000001678
        },
        {
          "name": "C#5",
          "midi": 73,
          "time": 314.03540025000274,
          "velocity": 0.7480314960629921,
          "duration": 0.21428550000001678
        },
        {
          "name": "C#6",
          "midi": 85,
          "time": 314.03540025000274,
          "velocity": 0.7480314960629921,
          "duration": 0.21428550000001678
        },
        {
          "name": "C#7",
          "midi": 97,
          "time": 314.03540025000274,
          "velocity": 0.7480314960629921,
          "duration": 0.21428550000001678
        },
        {
          "name": "C4",
          "midi": 60,
          "time": 314.24968575000275,
          "velocity": 0.7480314960629921,
          "duration": 0.21428550000001678
        },
        {
          "name": "C5",
          "midi": 72,
          "time": 314.24968575000275,
          "velocity": 0.7480314960629921,
          "duration": 0.21428550000001678
        },
        {
          "name": "C6",
          "midi": 84,
          "time": 314.24968575000275,
          "velocity": 0.7480314960629921,
          "duration": 0.21428550000001678
        },
        {
          "name": "C7",
          "midi": 96,
          "time": 314.24968575000275,
          "velocity": 0.7480314960629921,
          "duration": 0.21428550000001678
        },
        {
          "name": "C#4",
          "midi": 61,
          "time": 314.46397125000277,
          "velocity": 0.7480314960629921,
          "duration": 0.4285709999999767
        },
        {
          "name": "C#5",
          "midi": 73,
          "time": 314.46397125000277,
          "velocity": 0.7480314960629921,
          "duration": 0.4285709999999767
        },
        {
          "name": "C#6",
          "midi": 85,
          "time": 314.46397125000277,
          "velocity": 0.7480314960629921,
          "duration": 0.4285709999999767
        },
        {
          "name": "C#7",
          "midi": 97,
          "time": 314.46397125000277,
          "velocity": 0.7480314960629921,
          "duration": 0.4285709999999767
        },
        {
          "name": "C#4",
          "midi": 61,
          "time": 315.10682775000276,
          "velocity": 0.7480314960629921,
          "duration": 0.21428550000001678
        },
        {
          "name": "C#5",
          "midi": 73,
          "time": 315.10682775000276,
          "velocity": 0.7480314960629921,
          "duration": 0.21428550000001678
        },
        {
          "name": "C#6",
          "midi": 85,
          "time": 315.10682775000276,
          "velocity": 0.7480314960629921,
          "duration": 0.21428550000001678
        },
        {
          "name": "C#7",
          "midi": 97,
          "time": 315.10682775000276,
          "velocity": 0.7480314960629921,
          "duration": 0.21428550000001678
        },
        {
          "name": "E4",
          "midi": 64,
          "time": 315.3211132500028,
          "velocity": 0.7480314960629921,
          "duration": 0.21428550000001678
        },
        {
          "name": "E5",
          "midi": 76,
          "time": 315.3211132500028,
          "velocity": 0.7480314960629921,
          "duration": 0.21428550000001678
        },
        {
          "name": "E6",
          "midi": 88,
          "time": 315.3211132500028,
          "velocity": 0.7480314960629921,
          "duration": 0.21428550000001678
        },
        {
          "name": "E7",
          "midi": 100,
          "time": 315.3211132500028,
          "velocity": 0.7480314960629921,
          "duration": 0.21428550000001678
        },
        {
          "name": "D#4",
          "midi": 63,
          "time": 315.5353987500028,
          "velocity": 0.7480314960629921,
          "duration": 0.21428550000001678
        },
        {
          "name": "D#5",
          "midi": 75,
          "time": 315.5353987500028,
          "velocity": 0.7480314960629921,
          "duration": 0.21428550000001678
        },
        {
          "name": "D#6",
          "midi": 87,
          "time": 315.5353987500028,
          "velocity": 0.7480314960629921,
          "duration": 0.21428550000001678
        },
        {
          "name": "D#7",
          "midi": 99,
          "time": 315.5353987500028,
          "velocity": 0.7480314960629921,
          "duration": 0.21428550000001678
        },
        {
          "name": "D4",
          "midi": 62,
          "time": 315.7496842500028,
          "velocity": 0.7480314960629921,
          "duration": 0.21428550000001678
        },
        {
          "name": "D5",
          "midi": 74,
          "time": 315.7496842500028,
          "velocity": 0.7480314960629921,
          "duration": 0.21428550000001678
        },
        {
          "name": "D6",
          "midi": 86,
          "time": 315.7496842500028,
          "velocity": 0.7480314960629921,
          "duration": 0.21428550000001678
        },
        {
          "name": "D7",
          "midi": 98,
          "time": 315.7496842500028,
          "velocity": 0.7480314960629921,
          "duration": 0.21428550000001678
        },
        {
          "name": "C#4",
          "midi": 61,
          "time": 315.96396975000283,
          "velocity": 0.7480314960629921,
          "duration": 0.21428550000001678
        },
        {
          "name": "C#5",
          "midi": 73,
          "time": 315.96396975000283,
          "velocity": 0.7480314960629921,
          "duration": 0.21428550000001678
        },
        {
          "name": "C#6",
          "midi": 85,
          "time": 315.96396975000283,
          "velocity": 0.7480314960629921,
          "duration": 0.21428550000001678
        },
        {
          "name": "C#7",
          "midi": 97,
          "time": 315.96396975000283,
          "velocity": 0.7480314960629921,
          "duration": 0.21428550000001678
        },
        {
          "name": "C4",
          "midi": 60,
          "time": 316.17825525000285,
          "velocity": 0.7480314960629921,
          "duration": 0.6428564999999935
        },
        {
          "name": "C5",
          "midi": 72,
          "time": 316.17825525000285,
          "velocity": 0.7480314960629921,
          "duration": 0.6428564999999935
        },
        {
          "name": "C6",
          "midi": 84,
          "time": 316.17825525000285,
          "velocity": 0.7480314960629921,
          "duration": 0.6428564999999935
        },
        {
          "name": "C7",
          "midi": 96,
          "time": 316.17825525000285,
          "velocity": 0.7480314960629921,
          "duration": 0.6428564999999935
        },
        {
          "name": "C#4",
          "midi": 61,
          "time": 316.82111175000284,
          "velocity": 0.7480314960629921,
          "duration": 0.21428550000001678
        },
        {
          "name": "C#5",
          "midi": 73,
          "time": 316.82111175000284,
          "velocity": 0.7480314960629921,
          "duration": 0.21428550000001678
        },
        {
          "name": "C#6",
          "midi": 85,
          "time": 316.82111175000284,
          "velocity": 0.7480314960629921,
          "duration": 0.21428550000001678
        },
        {
          "name": "C#7",
          "midi": 97,
          "time": 316.82111175000284,
          "velocity": 0.7480314960629921,
          "duration": 0.21428550000001678
        },
        {
          "name": "E4",
          "midi": 64,
          "time": 317.03539725000286,
          "velocity": 0.7480314960629921,
          "duration": 0.21428550000001678
        },
        {
          "name": "E5",
          "midi": 76,
          "time": 317.03539725000286,
          "velocity": 0.7480314960629921,
          "duration": 0.21428550000001678
        },
        {
          "name": "E6",
          "midi": 88,
          "time": 317.03539725000286,
          "velocity": 0.7480314960629921,
          "duration": 0.21428550000001678
        },
        {
          "name": "E7",
          "midi": 100,
          "time": 317.03539725000286,
          "velocity": 0.7480314960629921,
          "duration": 0.21428550000001678
        },
        {
          "name": "D#4",
          "midi": 63,
          "time": 317.2496827500029,
          "velocity": 0.7480314960629921,
          "duration": 0.21428550000001678
        },
        {
          "name": "D#5",
          "midi": 75,
          "time": 317.2496827500029,
          "velocity": 0.7480314960629921,
          "duration": 0.21428550000001678
        },
        {
          "name": "D#6",
          "midi": 87,
          "time": 317.2496827500029,
          "velocity": 0.7480314960629921,
          "duration": 0.21428550000001678
        },
        {
          "name": "D#7",
          "midi": 99,
          "time": 317.2496827500029,
          "velocity": 0.7480314960629921,
          "duration": 0.21428550000001678
        },
        {
          "name": "D4",
          "midi": 62,
          "time": 317.4639682500029,
          "velocity": 0.7480314960629921,
          "duration": 0.21428550000001678
        },
        {
          "name": "D5",
          "midi": 74,
          "time": 317.4639682500029,
          "velocity": 0.7480314960629921,
          "duration": 0.21428550000001678
        },
        {
          "name": "D6",
          "midi": 86,
          "time": 317.4639682500029,
          "velocity": 0.7480314960629921,
          "duration": 0.21428550000001678
        },
        {
          "name": "D7",
          "midi": 98,
          "time": 317.4639682500029,
          "velocity": 0.7480314960629921,
          "duration": 0.21428550000001678
        },
        {
          "name": "C#4",
          "midi": 61,
          "time": 317.6782537500029,
          "velocity": 0.7480314960629921,
          "duration": 0.4285709999999767
        },
        {
          "name": "C#5",
          "midi": 73,
          "time": 317.6782537500029,
          "velocity": 0.7480314960629921,
          "duration": 0.4285709999999767
        },
        {
          "name": "C#6",
          "midi": 85,
          "time": 317.6782537500029,
          "velocity": 0.7480314960629921,
          "duration": 0.4285709999999767
        },
        {
          "name": "C#7",
          "midi": 97,
          "time": 317.6782537500029,
          "velocity": 0.7480314960629921,
          "duration": 0.4285709999999767
        },
        {
          "name": "C4",
          "midi": 60,
          "time": 318.1068247500029,
          "velocity": 0.7480314960629921,
          "duration": 0.21428550000001678
        },
        {
          "name": "C5",
          "midi": 72,
          "time": 318.1068247500029,
          "velocity": 0.7480314960629921,
          "duration": 0.21428550000001678
        },
        {
          "name": "C6",
          "midi": 84,
          "time": 318.1068247500029,
          "velocity": 0.7480314960629921,
          "duration": 0.21428550000001678
        },
        {
          "name": "C7",
          "midi": 96,
          "time": 318.1068247500029,
          "velocity": 0.7480314960629921,
          "duration": 0.21428550000001678
        },
        {
          "name": "C#4",
          "midi": 61,
          "time": 318.5353957500029,
          "velocity": 0.7480314960629921,
          "duration": 0.21428550000001678
        },
        {
          "name": "C#5",
          "midi": 73,
          "time": 318.5353957500029,
          "velocity": 0.7480314960629921,
          "duration": 0.21428550000001678
        },
        {
          "name": "C#6",
          "midi": 85,
          "time": 318.5353957500029,
          "velocity": 0.7480314960629921,
          "duration": 0.21428550000001678
        },
        {
          "name": "C#7",
          "midi": 97,
          "time": 318.5353957500029,
          "velocity": 0.7480314960629921,
          "duration": 0.21428550000001678
        },
        {
          "name": "E4",
          "midi": 64,
          "time": 318.74968125000294,
          "velocity": 0.7480314960629921,
          "duration": 0.21428550000001678
        },
        {
          "name": "E5",
          "midi": 76,
          "time": 318.74968125000294,
          "velocity": 0.7480314960629921,
          "duration": 0.21428550000001678
        },
        {
          "name": "E6",
          "midi": 88,
          "time": 318.74968125000294,
          "velocity": 0.7480314960629921,
          "duration": 0.21428550000001678
        },
        {
          "name": "E7",
          "midi": 100,
          "time": 318.74968125000294,
          "velocity": 0.7480314960629921,
          "duration": 0.21428550000001678
        },
        {
          "name": "D#4",
          "midi": 63,
          "time": 318.96396675000295,
          "velocity": 0.7480314960629921,
          "duration": 0.21428550000001678
        },
        {
          "name": "D#5",
          "midi": 75,
          "time": 318.96396675000295,
          "velocity": 0.7480314960629921,
          "duration": 0.21428550000001678
        },
        {
          "name": "D#6",
          "midi": 87,
          "time": 318.96396675000295,
          "velocity": 0.7480314960629921,
          "duration": 0.21428550000001678
        },
        {
          "name": "D#7",
          "midi": 99,
          "time": 318.96396675000295,
          "velocity": 0.7480314960629921,
          "duration": 0.21428550000001678
        },
        {
          "name": "D4",
          "midi": 62,
          "time": 319.17825225000297,
          "velocity": 0.7480314960629921,
          "duration": 0.21428550000001678
        },
        {
          "name": "D5",
          "midi": 74,
          "time": 319.17825225000297,
          "velocity": 0.7480314960629921,
          "duration": 0.21428550000001678
        },
        {
          "name": "D6",
          "midi": 86,
          "time": 319.17825225000297,
          "velocity": 0.7480314960629921,
          "duration": 0.21428550000001678
        },
        {
          "name": "D7",
          "midi": 98,
          "time": 319.17825225000297,
          "velocity": 0.7480314960629921,
          "duration": 0.21428550000001678
        },
        {
          "name": "C#4",
          "midi": 61,
          "time": 319.392537750003,
          "velocity": 0.7480314960629921,
          "duration": 0.21428550000001678
        },
        {
          "name": "C#5",
          "midi": 73,
          "time": 319.392537750003,
          "velocity": 0.7480314960629921,
          "duration": 0.21428550000001678
        },
        {
          "name": "C#6",
          "midi": 85,
          "time": 319.392537750003,
          "velocity": 0.7480314960629921,
          "duration": 0.21428550000001678
        },
        {
          "name": "C#7",
          "midi": 97,
          "time": 319.392537750003,
          "velocity": 0.7480314960629921,
          "duration": 0.21428550000001678
        },
        {
          "name": "C4",
          "midi": 60,
          "time": 319.606823250003,
          "velocity": 0.7480314960629921,
          "duration": 0.6428564999999935
        },
        {
          "name": "C5",
          "midi": 72,
          "time": 319.606823250003,
          "velocity": 0.7480314960629921,
          "duration": 0.6428564999999935
        },
        {
          "name": "C6",
          "midi": 84,
          "time": 319.606823250003,
          "velocity": 0.7480314960629921,
          "duration": 0.6428564999999935
        },
        {
          "name": "C7",
          "midi": 96,
          "time": 319.606823250003,
          "velocity": 0.7480314960629921,
          "duration": 0.6428564999999935
        },
        {
          "name": "C#4",
          "midi": 61,
          "time": 320.249679750003,
          "velocity": 0.7480314960629921,
          "duration": 0.21428550000001678
        },
        {
          "name": "C#5",
          "midi": 73,
          "time": 320.249679750003,
          "velocity": 0.7480314960629921,
          "duration": 0.21428550000001678
        },
        {
          "name": "C#6",
          "midi": 85,
          "time": 320.249679750003,
          "velocity": 0.7480314960629921,
          "duration": 0.21428550000001678
        },
        {
          "name": "C#7",
          "midi": 97,
          "time": 320.249679750003,
          "velocity": 0.7480314960629921,
          "duration": 0.21428550000001678
        },
        {
          "name": "E4",
          "midi": 64,
          "time": 320.463965250003,
          "velocity": 0.7480314960629921,
          "duration": 0.21428550000001678
        },
        {
          "name": "E5",
          "midi": 76,
          "time": 320.463965250003,
          "velocity": 0.7480314960629921,
          "duration": 0.21428550000001678
        },
        {
          "name": "E6",
          "midi": 88,
          "time": 320.463965250003,
          "velocity": 0.7480314960629921,
          "duration": 0.21428550000001678
        },
        {
          "name": "E7",
          "midi": 100,
          "time": 320.463965250003,
          "velocity": 0.7480314960629921,
          "duration": 0.21428550000001678
        },
        {
          "name": "D#4",
          "midi": 63,
          "time": 320.67825075000303,
          "velocity": 0.7480314960629921,
          "duration": 0.21428550000001678
        },
        {
          "name": "D#5",
          "midi": 75,
          "time": 320.67825075000303,
          "velocity": 0.7480314960629921,
          "duration": 0.21428550000001678
        },
        {
          "name": "D#6",
          "midi": 87,
          "time": 320.67825075000303,
          "velocity": 0.7480314960629921,
          "duration": 0.21428550000001678
        },
        {
          "name": "D#7",
          "midi": 99,
          "time": 320.67825075000303,
          "velocity": 0.7480314960629921,
          "duration": 0.21428550000001678
        },
        {
          "name": "D4",
          "midi": 62,
          "time": 320.89253625000305,
          "velocity": 0.7480314960629921,
          "duration": 0.21428550000001678
        },
        {
          "name": "D5",
          "midi": 74,
          "time": 320.89253625000305,
          "velocity": 0.7480314960629921,
          "duration": 0.21428550000001678
        },
        {
          "name": "D6",
          "midi": 86,
          "time": 320.89253625000305,
          "velocity": 0.7480314960629921,
          "duration": 0.21428550000001678
        },
        {
          "name": "D7",
          "midi": 98,
          "time": 320.89253625000305,
          "velocity": 0.7480314960629921,
          "duration": 0.21428550000001678
        },
        {
          "name": "C#4",
          "midi": 61,
          "time": 321.10682175000306,
          "velocity": 0.7480314960629921,
          "duration": 0.21428550000001678
        },
        {
          "name": "C#5",
          "midi": 73,
          "time": 321.10682175000306,
          "velocity": 0.7480314960629921,
          "duration": 0.21428550000001678
        },
        {
          "name": "C#6",
          "midi": 85,
          "time": 321.10682175000306,
          "velocity": 0.7480314960629921,
          "duration": 0.21428550000001678
        },
        {
          "name": "C#7",
          "midi": 97,
          "time": 321.10682175000306,
          "velocity": 0.7480314960629921,
          "duration": 0.21428550000001678
        },
        {
          "name": "C#4",
          "midi": 61,
          "time": 321.74967825000306,
          "velocity": 0.7480314960629921,
          "duration": 0.21428550000001678
        },
        {
          "name": "C#5",
          "midi": 73,
          "time": 321.74967825000306,
          "velocity": 0.7480314960629921,
          "duration": 0.21428550000001678
        },
        {
          "name": "C#6",
          "midi": 85,
          "time": 321.74967825000306,
          "velocity": 0.7480314960629921,
          "duration": 0.21428550000001678
        },
        {
          "name": "C#7",
          "midi": 97,
          "time": 321.74967825000306,
          "velocity": 0.7480314960629921,
          "duration": 0.21428550000001678
        },
        {
          "name": "C#4",
          "midi": 61,
          "time": 321.9639637500031,
          "velocity": 0.7480314960629921,
          "duration": 0.21428550000001678
        },
        {
          "name": "C#5",
          "midi": 73,
          "time": 321.9639637500031,
          "velocity": 0.7480314960629921,
          "duration": 0.21428550000001678
        },
        {
          "name": "C#6",
          "midi": 85,
          "time": 321.9639637500031,
          "velocity": 0.7480314960629921,
          "duration": 0.21428550000001678
        },
        {
          "name": "C#7",
          "midi": 97,
          "time": 321.9639637500031,
          "velocity": 0.7480314960629921,
          "duration": 0.21428550000001678
        },
        {
          "name": "D#4",
          "midi": 63,
          "time": 322.1782492500031,
          "velocity": 0.7480314960629921,
          "duration": 0.21428550000001678
        },
        {
          "name": "D#5",
          "midi": 75,
          "time": 322.1782492500031,
          "velocity": 0.7480314960629921,
          "duration": 0.21428550000001678
        },
        {
          "name": "D#6",
          "midi": 87,
          "time": 322.1782492500031,
          "velocity": 0.7480314960629921,
          "duration": 0.21428550000001678
        },
        {
          "name": "D#7",
          "midi": 99,
          "time": 322.1782492500031,
          "velocity": 0.7480314960629921,
          "duration": 0.21428550000001678
        },
        {
          "name": "E4",
          "midi": 64,
          "time": 322.3925347500031,
          "velocity": 0.7480314960629921,
          "duration": 0.21428550000001678
        },
        {
          "name": "E5",
          "midi": 76,
          "time": 322.3925347500031,
          "velocity": 0.7480314960629921,
          "duration": 0.21428550000001678
        },
        {
          "name": "E6",
          "midi": 88,
          "time": 322.3925347500031,
          "velocity": 0.7480314960629921,
          "duration": 0.21428550000001678
        },
        {
          "name": "E7",
          "midi": 100,
          "time": 322.3925347500031,
          "velocity": 0.7480314960629921,
          "duration": 0.21428550000001678
        },
        {
          "name": "D#4",
          "midi": 63,
          "time": 322.6068202500031,
          "velocity": 0.7480314960629921,
          "duration": 0.21428550000001678
        },
        {
          "name": "D#5",
          "midi": 75,
          "time": 322.6068202500031,
          "velocity": 0.7480314960629921,
          "duration": 0.21428550000001678
        },
        {
          "name": "D#6",
          "midi": 87,
          "time": 322.6068202500031,
          "velocity": 0.7480314960629921,
          "duration": 0.21428550000001678
        },
        {
          "name": "D#7",
          "midi": 99,
          "time": 322.6068202500031,
          "velocity": 0.7480314960629921,
          "duration": 0.21428550000001678
        },
        {
          "name": "C#4",
          "midi": 61,
          "time": 322.82110575000314,
          "velocity": 0.7480314960629921,
          "duration": 0.21428550000001678
        },
        {
          "name": "C#5",
          "midi": 73,
          "time": 322.82110575000314,
          "velocity": 0.7480314960629921,
          "duration": 0.21428550000001678
        },
        {
          "name": "C#6",
          "midi": 85,
          "time": 322.82110575000314,
          "velocity": 0.7480314960629921,
          "duration": 0.21428550000001678
        },
        {
          "name": "C#7",
          "midi": 97,
          "time": 322.82110575000314,
          "velocity": 0.7480314960629921,
          "duration": 0.21428550000001678
        },
        {
          "name": "C4",
          "midi": 60,
          "time": 323.03539125000316,
          "velocity": 0.7480314960629921,
          "duration": 0.21428550000001678
        },
        {
          "name": "C5",
          "midi": 72,
          "time": 323.03539125000316,
          "velocity": 0.7480314960629921,
          "duration": 0.21428550000001678
        },
        {
          "name": "C6",
          "midi": 84,
          "time": 323.03539125000316,
          "velocity": 0.7480314960629921,
          "duration": 0.21428550000001678
        },
        {
          "name": "C7",
          "midi": 96,
          "time": 323.03539125000316,
          "velocity": 0.7480314960629921,
          "duration": 0.21428550000001678
        },
        {
          "name": "C#4",
          "midi": 61,
          "time": 323.2496767500032,
          "velocity": 0.7480314960629921,
          "duration": 0.21428550000001678
        },
        {
          "name": "C#5",
          "midi": 73,
          "time": 323.2496767500032,
          "velocity": 0.7480314960629921,
          "duration": 0.21428550000001678
        },
        {
          "name": "C#6",
          "midi": 85,
          "time": 323.2496767500032,
          "velocity": 0.7480314960629921,
          "duration": 0.21428550000001678
        },
        {
          "name": "C#7",
          "midi": 97,
          "time": 323.2496767500032,
          "velocity": 0.7480314960629921,
          "duration": 0.21428550000001678
        },
        {
          "name": "D#4",
          "midi": 63,
          "time": 323.4639622500032,
          "velocity": 0.7480314960629921,
          "duration": 0.21428550000001678
        },
        {
          "name": "D#5",
          "midi": 75,
          "time": 323.4639622500032,
          "velocity": 0.7480314960629921,
          "duration": 0.21428550000001678
        },
        {
          "name": "D#6",
          "midi": 87,
          "time": 323.4639622500032,
          "velocity": 0.7480314960629921,
          "duration": 0.21428550000001678
        },
        {
          "name": "D#7",
          "midi": 99,
          "time": 323.4639622500032,
          "velocity": 0.7480314960629921,
          "duration": 0.21428550000001678
        },
        {
          "name": "E4",
          "midi": 64,
          "time": 323.6782477500032,
          "velocity": 0.7480314960629921,
          "duration": 0.21428550000001678
        },
        {
          "name": "E5",
          "midi": 76,
          "time": 323.6782477500032,
          "velocity": 0.7480314960629921,
          "duration": 0.21428550000001678
        },
        {
          "name": "E6",
          "midi": 88,
          "time": 323.6782477500032,
          "velocity": 0.7480314960629921,
          "duration": 0.21428550000001678
        },
        {
          "name": "E7",
          "midi": 100,
          "time": 323.6782477500032,
          "velocity": 0.7480314960629921,
          "duration": 0.21428550000001678
        },
        {
          "name": "D#4",
          "midi": 63,
          "time": 323.8925332500032,
          "velocity": 0.7480314960629921,
          "duration": 0.21428550000001678
        },
        {
          "name": "D#5",
          "midi": 75,
          "time": 323.8925332500032,
          "velocity": 0.7480314960629921,
          "duration": 0.21428550000001678
        },
        {
          "name": "D#6",
          "midi": 87,
          "time": 323.8925332500032,
          "velocity": 0.7480314960629921,
          "duration": 0.21428550000001678
        },
        {
          "name": "D#7",
          "midi": 99,
          "time": 323.8925332500032,
          "velocity": 0.7480314960629921,
          "duration": 0.21428550000001678
        },
        {
          "name": "C#4",
          "midi": 61,
          "time": 324.10681875000324,
          "velocity": 0.7480314960629921,
          "duration": 0.10714274999997997
        },
        {
          "name": "C#5",
          "midi": 73,
          "time": 324.10681875000324,
          "velocity": 0.7480314960629921,
          "duration": 0.10714274999997997
        },
        {
          "name": "C#6",
          "midi": 85,
          "time": 324.10681875000324,
          "velocity": 0.7480314960629921,
          "duration": 0.10714274999997997
        },
        {
          "name": "C#7",
          "midi": 97,
          "time": 324.10681875000324,
          "velocity": 0.7480314960629921,
          "duration": 0.10714274999997997
        },
        {
          "name": "C4",
          "midi": 60,
          "time": 324.2139615000032,
          "velocity": 0.7480314960629921,
          "duration": 0.10714274999997997
        },
        {
          "name": "C5",
          "midi": 72,
          "time": 324.2139615000032,
          "velocity": 0.7480314960629921,
          "duration": 0.10714274999997997
        },
        {
          "name": "C6",
          "midi": 84,
          "time": 324.2139615000032,
          "velocity": 0.7480314960629921,
          "duration": 0.10714274999997997
        },
        {
          "name": "C7",
          "midi": 96,
          "time": 324.2139615000032,
          "velocity": 0.7480314960629921,
          "duration": 0.10714274999997997
        },
        {
          "name": "C#4",
          "midi": 61,
          "time": 324.3211042500032,
          "velocity": 0.7480314960629921,
          "duration": 0.10714274999997997
        },
        {
          "name": "C#5",
          "midi": 73,
          "time": 324.3211042500032,
          "velocity": 0.7480314960629921,
          "duration": 0.10714274999997997
        },
        {
          "name": "C#6",
          "midi": 85,
          "time": 324.3211042500032,
          "velocity": 0.7480314960629921,
          "duration": 0.10714274999997997
        },
        {
          "name": "C#7",
          "midi": 97,
          "time": 324.3211042500032,
          "velocity": 0.7480314960629921,
          "duration": 0.10714274999997997
        },
        {
          "name": "D#4",
          "midi": 63,
          "time": 324.4282470000032,
          "velocity": 0.7480314960629921,
          "duration": 0.10714274999997997
        },
        {
          "name": "D#5",
          "midi": 75,
          "time": 324.4282470000032,
          "velocity": 0.7480314960629921,
          "duration": 0.10714274999997997
        },
        {
          "name": "D#6",
          "midi": 87,
          "time": 324.4282470000032,
          "velocity": 0.7480314960629921,
          "duration": 0.10714274999997997
        },
        {
          "name": "D#7",
          "midi": 99,
          "time": 324.4282470000032,
          "velocity": 0.7480314960629921,
          "duration": 0.10714274999997997
        },
        {
          "name": "E4",
          "midi": 64,
          "time": 324.53538975000316,
          "velocity": 0.7480314960629921,
          "duration": 0.10714274999997997
        },
        {
          "name": "E5",
          "midi": 76,
          "time": 324.53538975000316,
          "velocity": 0.7480314960629921,
          "duration": 0.10714274999997997
        },
        {
          "name": "E6",
          "midi": 88,
          "time": 324.53538975000316,
          "velocity": 0.7480314960629921,
          "duration": 0.10714274999997997
        },
        {
          "name": "E7",
          "midi": 100,
          "time": 324.53538975000316,
          "velocity": 0.7480314960629921,
          "duration": 0.10714274999997997
        },
        {
          "name": "D#4",
          "midi": 63,
          "time": 324.64253250000314,
          "velocity": 0.7480314960629921,
          "duration": 0.10714274999997997
        },
        {
          "name": "D#5",
          "midi": 75,
          "time": 324.64253250000314,
          "velocity": 0.7480314960629921,
          "duration": 0.10714274999997997
        },
        {
          "name": "D#6",
          "midi": 87,
          "time": 324.64253250000314,
          "velocity": 0.7480314960629921,
          "duration": 0.10714274999997997
        },
        {
          "name": "D#7",
          "midi": 99,
          "time": 324.64253250000314,
          "velocity": 0.7480314960629921,
          "duration": 0.10714274999997997
        },
        {
          "name": "C#4",
          "midi": 61,
          "time": 324.7496752500031,
          "velocity": 0.7480314960629921,
          "duration": 0.10714274999997997
        },
        {
          "name": "C#5",
          "midi": 73,
          "time": 324.7496752500031,
          "velocity": 0.7480314960629921,
          "duration": 0.10714274999997997
        },
        {
          "name": "C#6",
          "midi": 85,
          "time": 324.7496752500031,
          "velocity": 0.7480314960629921,
          "duration": 0.10714274999997997
        },
        {
          "name": "C#7",
          "midi": 97,
          "time": 324.7496752500031,
          "velocity": 0.7480314960629921,
          "duration": 0.10714274999997997
        },
        {
          "name": "C4",
          "midi": 60,
          "time": 324.8568180000031,
          "velocity": 0.7480314960629921,
          "duration": 0.10714274999997997
        },
        {
          "name": "C5",
          "midi": 72,
          "time": 324.8568180000031,
          "velocity": 0.7480314960629921,
          "duration": 0.10714274999997997
        },
        {
          "name": "C6",
          "midi": 84,
          "time": 324.8568180000031,
          "velocity": 0.7480314960629921,
          "duration": 0.10714274999997997
        },
        {
          "name": "C7",
          "midi": 96,
          "time": 324.8568180000031,
          "velocity": 0.7480314960629921,
          "duration": 0.10714274999997997
        },
        {
          "name": "C#4",
          "midi": 61,
          "time": 324.9639607500031,
          "velocity": 0.7480314960629921,
          "duration": 0.10714274999997997
        },
        {
          "name": "C#5",
          "midi": 73,
          "time": 324.9639607500031,
          "velocity": 0.7480314960629921,
          "duration": 0.10714274999997997
        },
        {
          "name": "C#6",
          "midi": 85,
          "time": 324.9639607500031,
          "velocity": 0.7480314960629921,
          "duration": 0.10714274999997997
        },
        {
          "name": "C#7",
          "midi": 97,
          "time": 324.9639607500031,
          "velocity": 0.7480314960629921,
          "duration": 0.10714274999997997
        },
        {
          "name": "D#4",
          "midi": 63,
          "time": 325.07110350000306,
          "velocity": 0.7480314960629921,
          "duration": 0.10714274999997997
        },
        {
          "name": "D#5",
          "midi": 75,
          "time": 325.07110350000306,
          "velocity": 0.7480314960629921,
          "duration": 0.10714274999997997
        },
        {
          "name": "D#6",
          "midi": 87,
          "time": 325.07110350000306,
          "velocity": 0.7480314960629921,
          "duration": 0.10714274999997997
        },
        {
          "name": "D#7",
          "midi": 99,
          "time": 325.07110350000306,
          "velocity": 0.7480314960629921,
          "duration": 0.10714274999997997
        },
        {
          "name": "E4",
          "midi": 64,
          "time": 325.17824625000304,
          "velocity": 0.7480314960629921,
          "duration": 0.10714274999997997
        },
        {
          "name": "E5",
          "midi": 76,
          "time": 325.17824625000304,
          "velocity": 0.7480314960629921,
          "duration": 0.10714274999997997
        },
        {
          "name": "E6",
          "midi": 88,
          "time": 325.17824625000304,
          "velocity": 0.7480314960629921,
          "duration": 0.10714274999997997
        },
        {
          "name": "E7",
          "midi": 100,
          "time": 325.17824625000304,
          "velocity": 0.7480314960629921,
          "duration": 0.10714274999997997
        },
        {
          "name": "D#4",
          "midi": 63,
          "time": 325.285389000003,
          "velocity": 0.7480314960629921,
          "duration": 0.10714274999997997
        },
        {
          "name": "D#5",
          "midi": 75,
          "time": 325.285389000003,
          "velocity": 0.7480314960629921,
          "duration": 0.10714274999997997
        },
        {
          "name": "D#6",
          "midi": 87,
          "time": 325.285389000003,
          "velocity": 0.7480314960629921,
          "duration": 0.10714274999997997
        },
        {
          "name": "D#7",
          "midi": 99,
          "time": 325.285389000003,
          "velocity": 0.7480314960629921,
          "duration": 0.10714274999997997
        },
        {
          "name": "C#4",
          "midi": 61,
          "time": 325.392531750003,
          "velocity": 0.7480314960629921,
          "duration": 0.10714274999997997
        },
        {
          "name": "C#5",
          "midi": 73,
          "time": 325.392531750003,
          "velocity": 0.7480314960629921,
          "duration": 0.10714274999997997
        },
        {
          "name": "C#6",
          "midi": 85,
          "time": 325.392531750003,
          "velocity": 0.7480314960629921,
          "duration": 0.10714274999997997
        },
        {
          "name": "C#7",
          "midi": 97,
          "time": 325.392531750003,
          "velocity": 0.7480314960629921,
          "duration": 0.10714274999997997
        },
        {
          "name": "C4",
          "midi": 60,
          "time": 325.499674500003,
          "velocity": 0.7480314960629921,
          "duration": 0.10714274999997997
        },
        {
          "name": "C5",
          "midi": 72,
          "time": 325.499674500003,
          "velocity": 0.7480314960629921,
          "duration": 0.10714274999997997
        },
        {
          "name": "C6",
          "midi": 84,
          "time": 325.499674500003,
          "velocity": 0.7480314960629921,
          "duration": 0.10714274999997997
        },
        {
          "name": "C7",
          "midi": 96,
          "time": 325.499674500003,
          "velocity": 0.7480314960629921,
          "duration": 0.10714274999997997
        },
        {
          "name": "C#4",
          "midi": 61,
          "time": 325.60681725000296,
          "velocity": 0.7480314960629921,
          "duration": 0.10714274999997997
        },
        {
          "name": "C#5",
          "midi": 73,
          "time": 325.60681725000296,
          "velocity": 0.7480314960629921,
          "duration": 0.10714274999997997
        },
        {
          "name": "C#6",
          "midi": 85,
          "time": 325.60681725000296,
          "velocity": 0.7480314960629921,
          "duration": 0.10714274999997997
        },
        {
          "name": "C#7",
          "midi": 97,
          "time": 325.60681725000296,
          "velocity": 0.7480314960629921,
          "duration": 0.10714274999997997
        },
        {
          "name": "D#4",
          "midi": 63,
          "time": 325.71396000000294,
          "velocity": 0.7480314960629921,
          "duration": 0.10714274999997997
        },
        {
          "name": "D#5",
          "midi": 75,
          "time": 325.71396000000294,
          "velocity": 0.7480314960629921,
          "duration": 0.10714274999997997
        },
        {
          "name": "D#6",
          "midi": 87,
          "time": 325.71396000000294,
          "velocity": 0.7480314960629921,
          "duration": 0.10714274999997997
        },
        {
          "name": "D#7",
          "midi": 99,
          "time": 325.71396000000294,
          "velocity": 0.7480314960629921,
          "duration": 0.10714274999997997
        },
        {
          "name": "E4",
          "midi": 64,
          "time": 325.8211027500029,
          "velocity": 0.7480314960629921,
          "duration": 0.10714274999997997
        },
        {
          "name": "E5",
          "midi": 76,
          "time": 325.8211027500029,
          "velocity": 0.7480314960629921,
          "duration": 0.10714274999997997
        },
        {
          "name": "E6",
          "midi": 88,
          "time": 325.8211027500029,
          "velocity": 0.7480314960629921,
          "duration": 0.10714274999997997
        },
        {
          "name": "E7",
          "midi": 100,
          "time": 325.8211027500029,
          "velocity": 0.7480314960629921,
          "duration": 0.10714274999997997
        },
        {
          "name": "D#4",
          "midi": 63,
          "time": 325.9282455000029,
          "velocity": 0.7480314960629921,
          "duration": 0.10714274999997997
        },
        {
          "name": "D#5",
          "midi": 75,
          "time": 325.9282455000029,
          "velocity": 0.7480314960629921,
          "duration": 0.10714274999997997
        },
        {
          "name": "D#6",
          "midi": 87,
          "time": 325.9282455000029,
          "velocity": 0.7480314960629921,
          "duration": 0.10714274999997997
        },
        {
          "name": "D#7",
          "midi": 99,
          "time": 325.9282455000029,
          "velocity": 0.7480314960629921,
          "duration": 0.10714274999997997
        },
        {
          "name": "C#4",
          "midi": 61,
          "time": 326.0353882500029,
          "velocity": 0.7480314960629921,
          "duration": 0.10714274999997997
        },
        {
          "name": "C#5",
          "midi": 73,
          "time": 326.0353882500029,
          "velocity": 0.7480314960629921,
          "duration": 0.10714274999997997
        },
        {
          "name": "C#6",
          "midi": 85,
          "time": 326.0353882500029,
          "velocity": 0.7480314960629921,
          "duration": 0.10714274999997997
        },
        {
          "name": "C#7",
          "midi": 97,
          "time": 326.0353882500029,
          "velocity": 0.7480314960629921,
          "duration": 0.10714274999997997
        },
        {
          "name": "D#4",
          "midi": 63,
          "time": 326.14253100000286,
          "velocity": 0.7480314960629921,
          "duration": 0.10714274999997997
        },
        {
          "name": "D#5",
          "midi": 75,
          "time": 326.14253100000286,
          "velocity": 0.7480314960629921,
          "duration": 0.10714274999997997
        },
        {
          "name": "D#6",
          "midi": 87,
          "time": 326.14253100000286,
          "velocity": 0.7480314960629921,
          "duration": 0.10714274999997997
        },
        {
          "name": "D#7",
          "midi": 99,
          "time": 326.14253100000286,
          "velocity": 0.7480314960629921,
          "duration": 0.10714274999997997
        },
        {
          "name": "E4",
          "midi": 64,
          "time": 326.24967375000284,
          "velocity": 0.7480314960629921,
          "duration": 0.10714274999997997
        },
        {
          "name": "E5",
          "midi": 76,
          "time": 326.24967375000284,
          "velocity": 0.7480314960629921,
          "duration": 0.10714274999997997
        },
        {
          "name": "E6",
          "midi": 88,
          "time": 326.24967375000284,
          "velocity": 0.7480314960629921,
          "duration": 0.10714274999997997
        },
        {
          "name": "E7",
          "midi": 100,
          "time": 326.24967375000284,
          "velocity": 0.7480314960629921,
          "duration": 0.10714274999997997
        },
        {
          "name": "D#4",
          "midi": 63,
          "time": 326.3568165000028,
          "velocity": 0.7480314960629921,
          "duration": 0.10714274999997997
        },
        {
          "name": "D#5",
          "midi": 75,
          "time": 326.3568165000028,
          "velocity": 0.7480314960629921,
          "duration": 0.10714274999997997
        },
        {
          "name": "D#6",
          "midi": 87,
          "time": 326.3568165000028,
          "velocity": 0.7480314960629921,
          "duration": 0.10714274999997997
        },
        {
          "name": "D#7",
          "midi": 99,
          "time": 326.3568165000028,
          "velocity": 0.7480314960629921,
          "duration": 0.10714274999997997
        },
        {
          "name": "C#4",
          "midi": 61,
          "time": 326.4639592500028,
          "velocity": 0.7480314960629921,
          "duration": 0.10714274999997997
        },
        {
          "name": "C#5",
          "midi": 73,
          "time": 326.4639592500028,
          "velocity": 0.7480314960629921,
          "duration": 0.10714274999997997
        },
        {
          "name": "C#6",
          "midi": 85,
          "time": 326.4639592500028,
          "velocity": 0.7480314960629921,
          "duration": 0.10714274999997997
        },
        {
          "name": "C#7",
          "midi": 97,
          "time": 326.4639592500028,
          "velocity": 0.7480314960629921,
          "duration": 0.10714274999997997
        },
        {
          "name": "D#4",
          "midi": 63,
          "time": 326.5711020000028,
          "velocity": 0.7480314960629921,
          "duration": 0.10714274999997997
        },
        {
          "name": "D#5",
          "midi": 75,
          "time": 326.5711020000028,
          "velocity": 0.7480314960629921,
          "duration": 0.10714274999997997
        },
        {
          "name": "D#6",
          "midi": 87,
          "time": 326.5711020000028,
          "velocity": 0.7480314960629921,
          "duration": 0.10714274999997997
        },
        {
          "name": "D#7",
          "midi": 99,
          "time": 326.5711020000028,
          "velocity": 0.7480314960629921,
          "duration": 0.10714274999997997
        },
        {
          "name": "E4",
          "midi": 64,
          "time": 326.67824475000276,
          "velocity": 0.7480314960629921,
          "duration": 0.10714274999997997
        },
        {
          "name": "E5",
          "midi": 76,
          "time": 326.67824475000276,
          "velocity": 0.7480314960629921,
          "duration": 0.10714274999997997
        },
        {
          "name": "E6",
          "midi": 88,
          "time": 326.67824475000276,
          "velocity": 0.7480314960629921,
          "duration": 0.10714274999997997
        },
        {
          "name": "E7",
          "midi": 100,
          "time": 326.67824475000276,
          "velocity": 0.7480314960629921,
          "duration": 0.10714274999997997
        },
        {
          "name": "D#4",
          "midi": 63,
          "time": 326.78538750000274,
          "velocity": 0.7480314960629921,
          "duration": 0.10714274999997997
        },
        {
          "name": "D#5",
          "midi": 75,
          "time": 326.78538750000274,
          "velocity": 0.7480314960629921,
          "duration": 0.10714274999997997
        },
        {
          "name": "D#6",
          "midi": 87,
          "time": 326.78538750000274,
          "velocity": 0.7480314960629921,
          "duration": 0.10714274999997997
        },
        {
          "name": "D#7",
          "midi": 99,
          "time": 326.78538750000274,
          "velocity": 0.7480314960629921,
          "duration": 0.10714274999997997
        },
        {
          "name": "C#4",
          "midi": 61,
          "time": 326.8925302500027,
          "velocity": 0.7480314960629921,
          "duration": 0.10714274999997997
        },
        {
          "name": "C#5",
          "midi": 73,
          "time": 326.8925302500027,
          "velocity": 0.7480314960629921,
          "duration": 0.10714274999997997
        },
        {
          "name": "C#6",
          "midi": 85,
          "time": 326.8925302500027,
          "velocity": 0.7480314960629921,
          "duration": 0.10714274999997997
        },
        {
          "name": "C#7",
          "midi": 97,
          "time": 326.8925302500027,
          "velocity": 0.7480314960629921,
          "duration": 0.10714274999997997
        },
        {
          "name": "D#4",
          "midi": 63,
          "time": 326.9996730000027,
          "velocity": 0.7480314960629921,
          "duration": 0.10714274999997997
        },
        {
          "name": "D#5",
          "midi": 75,
          "time": 326.9996730000027,
          "velocity": 0.7480314960629921,
          "duration": 0.10714274999997997
        },
        {
          "name": "D#6",
          "midi": 87,
          "time": 326.9996730000027,
          "velocity": 0.7480314960629921,
          "duration": 0.10714274999997997
        },
        {
          "name": "D#7",
          "midi": 99,
          "time": 326.9996730000027,
          "velocity": 0.7480314960629921,
          "duration": 0.10714274999997997
        },
        {
          "name": "E4",
          "midi": 64,
          "time": 327.1068157500027,
          "velocity": 0.7480314960629921,
          "duration": 0.10714274999997997
        },
        {
          "name": "E5",
          "midi": 76,
          "time": 327.1068157500027,
          "velocity": 0.7480314960629921,
          "duration": 0.10714274999997997
        },
        {
          "name": "E6",
          "midi": 88,
          "time": 327.1068157500027,
          "velocity": 0.7480314960629921,
          "duration": 0.10714274999997997
        },
        {
          "name": "E7",
          "midi": 100,
          "time": 327.1068157500027,
          "velocity": 0.7480314960629921,
          "duration": 0.10714274999997997
        },
        {
          "name": "D#4",
          "midi": 63,
          "time": 327.21395850000266,
          "velocity": 0.7480314960629921,
          "duration": 0.10714274999997997
        },
        {
          "name": "D#5",
          "midi": 75,
          "time": 327.21395850000266,
          "velocity": 0.7480314960629921,
          "duration": 0.10714274999997997
        },
        {
          "name": "D#6",
          "midi": 87,
          "time": 327.21395850000266,
          "velocity": 0.7480314960629921,
          "duration": 0.10714274999997997
        },
        {
          "name": "D#7",
          "midi": 99,
          "time": 327.21395850000266,
          "velocity": 0.7480314960629921,
          "duration": 0.10714274999997997
        },
        {
          "name": "C#4",
          "midi": 61,
          "time": 327.32110125000264,
          "velocity": 0.7480314960629921,
          "duration": 0.10714274999997997
        },
        {
          "name": "C#5",
          "midi": 73,
          "time": 327.32110125000264,
          "velocity": 0.7480314960629921,
          "duration": 0.10714274999997997
        },
        {
          "name": "C#6",
          "midi": 85,
          "time": 327.32110125000264,
          "velocity": 0.7480314960629921,
          "duration": 0.10714274999997997
        },
        {
          "name": "C#7",
          "midi": 97,
          "time": 327.32110125000264,
          "velocity": 0.7480314960629921,
          "duration": 0.10714274999997997
        },
        {
          "name": "D#4",
          "midi": 63,
          "time": 327.4282440000026,
          "velocity": 0.7480314960629921,
          "duration": 0.10714274999997997
        },
        {
          "name": "D#5",
          "midi": 75,
          "time": 327.4282440000026,
          "velocity": 0.7480314960629921,
          "duration": 0.10714274999997997
        },
        {
          "name": "D#6",
          "midi": 87,
          "time": 327.4282440000026,
          "velocity": 0.7480314960629921,
          "duration": 0.10714274999997997
        },
        {
          "name": "D#7",
          "midi": 99,
          "time": 327.4282440000026,
          "velocity": 0.7480314960629921,
          "duration": 0.10714274999997997
        },
        {
          "name": "D4",
          "midi": 62,
          "time": 327.5353867500026,
          "velocity": 0.7480314960629921,
          "duration": 0.8571420000000103
        },
        {
          "name": "D5",
          "midi": 74,
          "time": 327.5353867500026,
          "velocity": 0.7480314960629921,
          "duration": 0.8571420000000103
        },
        {
          "name": "D6",
          "midi": 86,
          "time": 327.5353867500026,
          "velocity": 0.7480314960629921,
          "duration": 0.8571420000000103
        },
        {
          "name": "D7",
          "midi": 98,
          "time": 327.5353867500026,
          "velocity": 0.7480314960629921,
          "duration": 0.8571420000000103
        },
        {
          "name": "D#4",
          "midi": 63,
          "time": 328.3925287500026,
          "velocity": 0.7480314960629921,
          "duration": 0.4285709999999767
        },
        {
          "name": "D#5",
          "midi": 75,
          "time": 328.3925287500026,
          "velocity": 0.7480314960629921,
          "duration": 0.4285709999999767
        },
        {
          "name": "D#6",
          "midi": 87,
          "time": 328.3925287500026,
          "velocity": 0.7480314960629921,
          "duration": 0.4285709999999767
        },
        {
          "name": "D#7",
          "midi": 99,
          "time": 328.3925287500026,
          "velocity": 0.7480314960629921,
          "duration": 0.4285709999999767
        },
        {
          "name": "E4",
          "midi": 64,
          "time": 328.8210997500026,
          "velocity": 0.7480314960629921,
          "duration": 0.4285709999999767
        },
        {
          "name": "E5",
          "midi": 76,
          "time": 328.8210997500026,
          "velocity": 0.7480314960629921,
          "duration": 0.4285709999999767
        },
        {
          "name": "E6",
          "midi": 88,
          "time": 328.8210997500026,
          "velocity": 0.7480314960629921,
          "duration": 0.4285709999999767
        },
        {
          "name": "E7",
          "midi": 100,
          "time": 328.8210997500026,
          "velocity": 0.7480314960629921,
          "duration": 0.4285709999999767
        },
        {
          "name": "E4",
          "midi": 64,
          "time": 329.24967075000257,
          "velocity": 0.7480314960629921,
          "duration": 0.4285709999999767
        },
        {
          "name": "E5",
          "midi": 76,
          "time": 329.24967075000257,
          "velocity": 0.7480314960629921,
          "duration": 0.4285709999999767
        },
        {
          "name": "E6",
          "midi": 88,
          "time": 329.24967075000257,
          "velocity": 0.7480314960629921,
          "duration": 0.4285709999999767
        },
        {
          "name": "E7",
          "midi": 100,
          "time": 329.24967075000257,
          "velocity": 0.7480314960629921,
          "duration": 0.4285709999999767
        },
        {
          "name": "D#4",
          "midi": 63,
          "time": 329.67824175000254,
          "velocity": 0.7480314960629921,
          "duration": 0.21428550000001678
        },
        {
          "name": "D#5",
          "midi": 75,
          "time": 329.67824175000254,
          "velocity": 0.7480314960629921,
          "duration": 0.21428550000001678
        },
        {
          "name": "D#6",
          "midi": 87,
          "time": 329.67824175000254,
          "velocity": 0.7480314960629921,
          "duration": 0.21428550000001678
        },
        {
          "name": "D#7",
          "midi": 99,
          "time": 329.67824175000254,
          "velocity": 0.7480314960629921,
          "duration": 0.21428550000001678
        },
        {
          "name": "D4",
          "midi": 62,
          "time": 329.89252725000256,
          "velocity": 0.7480314960629921,
          "duration": 0.6428564999999935
        },
        {
          "name": "D5",
          "midi": 74,
          "time": 329.89252725000256,
          "velocity": 0.7480314960629921,
          "duration": 0.6428564999999935
        },
        {
          "name": "D6",
          "midi": 86,
          "time": 329.89252725000256,
          "velocity": 0.7480314960629921,
          "duration": 0.6428564999999935
        },
        {
          "name": "D7",
          "midi": 98,
          "time": 329.89252725000256,
          "velocity": 0.7480314960629921,
          "duration": 0.6428564999999935
        },
        {
          "name": "C#4",
          "midi": 61,
          "time": 330.53538375000255,
          "velocity": 0.7480314960629921,
          "duration": 1.285712999999987
        },
        {
          "name": "C#5",
          "midi": 73,
          "time": 330.53538375000255,
          "velocity": 0.7480314960629921,
          "duration": 1.285712999999987
        },
        {
          "name": "C#6",
          "midi": 85,
          "time": 330.53538375000255,
          "velocity": 0.7480314960629921,
          "duration": 1.285712999999987
        },
        {
          "name": "C#7",
          "midi": 97,
          "time": 330.53538375000255,
          "velocity": 0.7480314960629921,
          "duration": 1.285712999999987
        },
        {
          "name": "C#4",
          "midi": 61,
          "time": 331.82109675000254,
          "velocity": 0.7480314960629921,
          "duration": 0.4285709999999767
        },
        {
          "name": "C#5",
          "midi": 73,
          "time": 331.82109675000254,
          "velocity": 0.7480314960629921,
          "duration": 0.4285709999999767
        },
        {
          "name": "C#6",
          "midi": 85,
          "time": 331.82109675000254,
          "velocity": 0.7480314960629921,
          "duration": 0.4285709999999767
        },
        {
          "name": "C#7",
          "midi": 97,
          "time": 331.82109675000254,
          "velocity": 0.7480314960629921,
          "duration": 0.4285709999999767
        },
        {
          "name": "C4",
          "midi": 60,
          "time": 332.2496677500025,
          "velocity": 0.7480314960629921,
          "duration": 0.4285709999999767
        },
        {
          "name": "C5",
          "midi": 72,
          "time": 332.2496677500025,
          "velocity": 0.7480314960629921,
          "duration": 0.4285709999999767
        },
        {
          "name": "C6",
          "midi": 84,
          "time": 332.2496677500025,
          "velocity": 0.7480314960629921,
          "duration": 0.4285709999999767
        },
        {
          "name": "C7",
          "midi": 96,
          "time": 332.2496677500025,
          "velocity": 0.7480314960629921,
          "duration": 0.4285709999999767
        },
        {
          "name": "C4",
          "midi": 60,
          "time": 332.6782387500025,
          "velocity": 0.7480314960629921,
          "duration": 0.4285709999999767
        },
        {
          "name": "C5",
          "midi": 72,
          "time": 332.6782387500025,
          "velocity": 0.7480314960629921,
          "duration": 0.4285709999999767
        },
        {
          "name": "C6",
          "midi": 84,
          "time": 332.6782387500025,
          "velocity": 0.7480314960629921,
          "duration": 0.4285709999999767
        },
        {
          "name": "C7",
          "midi": 96,
          "time": 332.6782387500025,
          "velocity": 0.7480314960629921,
          "duration": 0.4285709999999767
        },
        {
          "name": "C#4",
          "midi": 61,
          "time": 333.10680975000247,
          "velocity": 0.7480314960629921,
          "duration": 0.21428550000001678
        },
        {
          "name": "C#5",
          "midi": 73,
          "time": 333.10680975000247,
          "velocity": 0.7480314960629921,
          "duration": 0.21428550000001678
        },
        {
          "name": "C#6",
          "midi": 85,
          "time": 333.10680975000247,
          "velocity": 0.7480314960629921,
          "duration": 0.21428550000001678
        },
        {
          "name": "C#7",
          "midi": 97,
          "time": 333.10680975000247,
          "velocity": 0.7480314960629921,
          "duration": 0.21428550000001678
        },
        {
          "name": "D4",
          "midi": 62,
          "time": 333.3210952500025,
          "velocity": 0.7480314960629921,
          "duration": 0.6428564999999935
        },
        {
          "name": "D5",
          "midi": 74,
          "time": 333.3210952500025,
          "velocity": 0.7480314960629921,
          "duration": 0.6428564999999935
        },
        {
          "name": "D6",
          "midi": 86,
          "time": 333.3210952500025,
          "velocity": 0.7480314960629921,
          "duration": 0.6428564999999935
        },
        {
          "name": "D7",
          "midi": 98,
          "time": 333.3210952500025,
          "velocity": 0.7480314960629921,
          "duration": 0.6428564999999935
        },
        {
          "name": "C4",
          "midi": 60,
          "time": 333.9639517500025,
          "velocity": 0.7480314960629921,
          "duration": 0.21428550000001678
        },
        {
          "name": "C5",
          "midi": 72,
          "time": 333.9639517500025,
          "velocity": 0.7480314960629921,
          "duration": 0.21428550000001678
        },
        {
          "name": "C6",
          "midi": 84,
          "time": 333.9639517500025,
          "velocity": 0.7480314960629921,
          "duration": 0.21428550000001678
        },
        {
          "name": "C7",
          "midi": 96,
          "time": 333.9639517500025,
          "velocity": 0.7480314960629921,
          "duration": 0.21428550000001678
        },
        {
          "name": "D4",
          "midi": 62,
          "time": 334.1782372500025,
          "velocity": 0.7480314960629921,
          "duration": 1.071427500000027
        },
        {
          "name": "D5",
          "midi": 74,
          "time": 334.1782372500025,
          "velocity": 0.7480314960629921,
          "duration": 1.071427500000027
        },
        {
          "name": "D6",
          "midi": 86,
          "time": 334.1782372500025,
          "velocity": 0.7480314960629921,
          "duration": 1.071427500000027
        },
        {
          "name": "D7",
          "midi": 98,
          "time": 334.1782372500025,
          "velocity": 0.7480314960629921,
          "duration": 1.071427500000027
        },
        {
          "name": "C4",
          "midi": 60,
          "time": 335.2496647500025,
          "velocity": 0.3700787401574803,
          "duration": 0.4285709999999767
        },
        {
          "name": "C5",
          "midi": 72,
          "time": 335.2496647500025,
          "velocity": 0.3700787401574803,
          "duration": 0.4285709999999767
        },
        {
          "name": "C6",
          "midi": 84,
          "time": 335.2496647500025,
          "velocity": 0.3700787401574803,
          "duration": 0.4285709999999767
        },
        {
          "name": "C7",
          "midi": 96,
          "time": 335.2496647500025,
          "velocity": 0.3700787401574803,
          "duration": 0.4285709999999767
        },
        {
          "name": "E4",
          "midi": 64,
          "time": 335.6782357500025,
          "velocity": 0.7480314960629921,
          "duration": 0.4285709999999767
        },
        {
          "name": "E5",
          "midi": 76,
          "time": 335.6782357500025,
          "velocity": 0.7480314960629921,
          "duration": 0.4285709999999767
        },
        {
          "name": "E6",
          "midi": 88,
          "time": 335.6782357500025,
          "velocity": 0.7480314960629921,
          "duration": 0.4285709999999767
        },
        {
          "name": "E7",
          "midi": 100,
          "time": 335.6782357500025,
          "velocity": 0.7480314960629921,
          "duration": 0.4285709999999767
        },
        {
          "name": "E4",
          "midi": 64,
          "time": 336.1068067500025,
          "velocity": 0.7480314960629921,
          "duration": 0.4285709999999767
        },
        {
          "name": "E5",
          "midi": 76,
          "time": 336.1068067500025,
          "velocity": 0.7480314960629921,
          "duration": 0.4285709999999767
        },
        {
          "name": "E6",
          "midi": 88,
          "time": 336.1068067500025,
          "velocity": 0.7480314960629921,
          "duration": 0.4285709999999767
        },
        {
          "name": "E7",
          "midi": 100,
          "time": 336.1068067500025,
          "velocity": 0.7480314960629921,
          "duration": 0.4285709999999767
        },
        {
          "name": "D#4",
          "midi": 63,
          "time": 336.53537775000245,
          "velocity": 0.7480314960629921,
          "duration": 0.21428550000001678
        },
        {
          "name": "D#5",
          "midi": 75,
          "time": 336.53537775000245,
          "velocity": 0.7480314960629921,
          "duration": 0.21428550000001678
        },
        {
          "name": "D#6",
          "midi": 87,
          "time": 336.53537775000245,
          "velocity": 0.7480314960629921,
          "duration": 0.21428550000001678
        },
        {
          "name": "D#7",
          "midi": 99,
          "time": 336.53537775000245,
          "velocity": 0.7480314960629921,
          "duration": 0.21428550000001678
        },
        {
          "name": "D4",
          "midi": 62,
          "time": 336.74966325000247,
          "velocity": 0.7480314960629921,
          "duration": 0.6428564999999935
        },
        {
          "name": "D5",
          "midi": 74,
          "time": 336.74966325000247,
          "velocity": 0.7480314960629921,
          "duration": 0.6428564999999935
        },
        {
          "name": "D6",
          "midi": 86,
          "time": 336.74966325000247,
          "velocity": 0.7480314960629921,
          "duration": 0.6428564999999935
        },
        {
          "name": "D7",
          "midi": 98,
          "time": 336.74966325000247,
          "velocity": 0.7480314960629921,
          "duration": 0.6428564999999935
        },
        {
          "name": "C#4",
          "midi": 61,
          "time": 337.39251975000246,
          "velocity": 0.7480314960629921,
          "duration": 0.21428550000001678
        },
        {
          "name": "C#5",
          "midi": 73,
          "time": 337.39251975000246,
          "velocity": 0.7480314960629921,
          "duration": 0.21428550000001678
        },
        {
          "name": "C#6",
          "midi": 85,
          "time": 337.39251975000246,
          "velocity": 0.7480314960629921,
          "duration": 0.21428550000001678
        },
        {
          "name": "C#7",
          "midi": 97,
          "time": 337.39251975000246,
          "velocity": 0.7480314960629921,
          "duration": 0.21428550000001678
        },
        {
          "name": "D4",
          "midi": 62,
          "time": 337.6068052500025,
          "velocity": 0.7480314960629921,
          "duration": 1.071427500000027
        },
        {
          "name": "D5",
          "midi": 74,
          "time": 337.6068052500025,
          "velocity": 0.7480314960629921,
          "duration": 1.071427500000027
        },
        {
          "name": "D6",
          "midi": 86,
          "time": 337.6068052500025,
          "velocity": 0.7480314960629921,
          "duration": 1.071427500000027
        },
        {
          "name": "D7",
          "midi": 98,
          "time": 337.6068052500025,
          "velocity": 0.7480314960629921,
          "duration": 1.071427500000027
        },
        {
          "name": "D4",
          "midi": 62,
          "time": 338.6782327500025,
          "velocity": 0.7480314960629921,
          "duration": 0.6428564999999935
        },
        {
          "name": "D5",
          "midi": 74,
          "time": 338.6782327500025,
          "velocity": 0.7480314960629921,
          "duration": 0.6428564999999935
        },
        {
          "name": "D6",
          "midi": 86,
          "time": 338.6782327500025,
          "velocity": 0.7480314960629921,
          "duration": 0.6428564999999935
        },
        {
          "name": "D7",
          "midi": 98,
          "time": 338.6782327500025,
          "velocity": 0.7480314960629921,
          "duration": 0.6428564999999935
        },
        {
          "name": "C#4",
          "midi": 61,
          "time": 339.3210892500025,
          "velocity": 0.7480314960629921,
          "duration": 0.21428550000001678
        },
        {
          "name": "C#5",
          "midi": 73,
          "time": 339.3210892500025,
          "velocity": 0.7480314960629921,
          "duration": 0.21428550000001678
        },
        {
          "name": "C#6",
          "midi": 85,
          "time": 339.3210892500025,
          "velocity": 0.7480314960629921,
          "duration": 0.21428550000001678
        },
        {
          "name": "C#7",
          "midi": 97,
          "time": 339.3210892500025,
          "velocity": 0.7480314960629921,
          "duration": 0.21428550000001678
        },
        {
          "name": "C#4",
          "midi": 61,
          "time": 339.5353747500025,
          "velocity": 0.7480314960629921,
          "duration": 0.4285709999999767
        },
        {
          "name": "C#5",
          "midi": 73,
          "time": 339.5353747500025,
          "velocity": 0.7480314960629921,
          "duration": 0.4285709999999767
        },
        {
          "name": "C#6",
          "midi": 85,
          "time": 339.5353747500025,
          "velocity": 0.7480314960629921,
          "duration": 0.4285709999999767
        },
        {
          "name": "C#7",
          "midi": 97,
          "time": 339.5353747500025,
          "velocity": 0.7480314960629921,
          "duration": 0.4285709999999767
        },
        {
          "name": "D4",
          "midi": 62,
          "time": 339.9639457500025,
          "velocity": 0.7480314960629921,
          "duration": 0.21428550000001678
        },
        {
          "name": "D5",
          "midi": 74,
          "time": 339.9639457500025,
          "velocity": 0.7480314960629921,
          "duration": 0.21428550000001678
        },
        {
          "name": "D6",
          "midi": 86,
          "time": 339.9639457500025,
          "velocity": 0.7480314960629921,
          "duration": 0.21428550000001678
        },
        {
          "name": "D7",
          "midi": 98,
          "time": 339.9639457500025,
          "velocity": 0.7480314960629921,
          "duration": 0.21428550000001678
        },
        {
          "name": "D4",
          "midi": 62,
          "time": 340.1782312500025,
          "velocity": 0.7480314960629921,
          "duration": 0.8571420000000103
        },
        {
          "name": "D5",
          "midi": 74,
          "time": 340.1782312500025,
          "velocity": 0.7480314960629921,
          "duration": 0.8571420000000103
        },
        {
          "name": "D6",
          "midi": 86,
          "time": 340.1782312500025,
          "velocity": 0.7480314960629921,
          "duration": 0.8571420000000103
        },
        {
          "name": "D7",
          "midi": 98,
          "time": 340.1782312500025,
          "velocity": 0.7480314960629921,
          "duration": 0.8571420000000103
        },
        {
          "name": "C#4",
          "midi": 61,
          "time": 341.0353732500025,
          "velocity": 0.3700787401574803,
          "duration": 1.285712999999987
        },
        {
          "name": "C#5",
          "midi": 73,
          "time": 341.0353732500025,
          "velocity": 0.3700787401574803,
          "duration": 1.285712999999987
        },
        {
          "name": "C#6",
          "midi": 85,
          "time": 341.0353732500025,
          "velocity": 0.3700787401574803,
          "duration": 1.285712999999987
        },
        {
          "name": "C#7",
          "midi": 97,
          "time": 341.0353732500025,
          "velocity": 0.3700787401574803,
          "duration": 1.285712999999987
        },
        {
          "name": "C#4",
          "midi": 61,
          "time": 342.3210862500025,
          "velocity": 0.7480314960629921,
          "duration": 0.21428550000001678
        },
        {
          "name": "C#5",
          "midi": 73,
          "time": 342.3210862500025,
          "velocity": 0.7480314960629921,
          "duration": 0.21428550000001678
        },
        {
          "name": "C#6",
          "midi": 85,
          "time": 342.3210862500025,
          "velocity": 0.7480314960629921,
          "duration": 0.21428550000001678
        },
        {
          "name": "C#7",
          "midi": 97,
          "time": 342.3210862500025,
          "velocity": 0.7480314960629921,
          "duration": 0.21428550000001678
        },
        {
          "name": "E4",
          "midi": 64,
          "time": 342.5353717500025,
          "velocity": 0.7480314960629921,
          "duration": 0.8571420000000103
        },
        {
          "name": "E5",
          "midi": 76,
          "time": 342.5353717500025,
          "velocity": 0.7480314960629921,
          "duration": 0.8571420000000103
        },
        {
          "name": "E6",
          "midi": 88,
          "time": 342.5353717500025,
          "velocity": 0.7480314960629921,
          "duration": 0.8571420000000103
        },
        {
          "name": "E7",
          "midi": 100,
          "time": 342.5353717500025,
          "velocity": 0.7480314960629921,
          "duration": 0.8571420000000103
        },
        {
          "name": "D#4",
          "midi": 63,
          "time": 343.39251375000254,
          "velocity": 0.7480314960629921,
          "duration": 0.21428550000001678
        },
        {
          "name": "D#5",
          "midi": 75,
          "time": 343.39251375000254,
          "velocity": 0.7480314960629921,
          "duration": 0.21428550000001678
        },
        {
          "name": "D#6",
          "midi": 87,
          "time": 343.39251375000254,
          "velocity": 0.7480314960629921,
          "duration": 0.21428550000001678
        },
        {
          "name": "D#7",
          "midi": 99,
          "time": 343.39251375000254,
          "velocity": 0.7480314960629921,
          "duration": 0.21428550000001678
        },
        {
          "name": "C#4",
          "midi": 61,
          "time": 343.60679925000255,
          "velocity": 0.7480314960629921,
          "duration": 0.6428564999999935
        },
        {
          "name": "C#5",
          "midi": 73,
          "time": 343.60679925000255,
          "velocity": 0.7480314960629921,
          "duration": 0.6428564999999935
        },
        {
          "name": "C#6",
          "midi": 85,
          "time": 343.60679925000255,
          "velocity": 0.7480314960629921,
          "duration": 0.6428564999999935
        },
        {
          "name": "C#7",
          "midi": 97,
          "time": 343.60679925000255,
          "velocity": 0.7480314960629921,
          "duration": 0.6428564999999935
        },
        {
          "name": "E4",
          "midi": 64,
          "time": 344.24965575000255,
          "velocity": 0.7480314960629921,
          "duration": 0.8571420000000103
        },
        {
          "name": "E5",
          "midi": 76,
          "time": 344.24965575000255,
          "velocity": 0.7480314960629921,
          "duration": 0.8571420000000103
        },
        {
          "name": "E6",
          "midi": 88,
          "time": 344.24965575000255,
          "velocity": 0.7480314960629921,
          "duration": 0.8571420000000103
        },
        {
          "name": "E7",
          "midi": 100,
          "time": 344.24965575000255,
          "velocity": 0.7480314960629921,
          "duration": 0.8571420000000103
        },
        {
          "name": "D#4",
          "midi": 63,
          "time": 345.10679775000256,
          "velocity": 0.7480314960629921,
          "duration": 0.21428550000001678
        },
        {
          "name": "D#5",
          "midi": 75,
          "time": 345.10679775000256,
          "velocity": 0.7480314960629921,
          "duration": 0.21428550000001678
        },
        {
          "name": "D#6",
          "midi": 87,
          "time": 345.10679775000256,
          "velocity": 0.7480314960629921,
          "duration": 0.21428550000001678
        },
        {
          "name": "D#7",
          "midi": 99,
          "time": 345.10679775000256,
          "velocity": 0.7480314960629921,
          "duration": 0.21428550000001678
        },
        {
          "name": "C#4",
          "midi": 61,
          "time": 345.3210832500026,
          "velocity": 0.7480314960629921,
          "duration": 0.6428564999999935
        },
        {
          "name": "C#5",
          "midi": 73,
          "time": 345.3210832500026,
          "velocity": 0.7480314960629921,
          "duration": 0.6428564999999935
        },
        {
          "name": "C#6",
          "midi": 85,
          "time": 345.3210832500026,
          "velocity": 0.7480314960629921,
          "duration": 0.6428564999999935
        },
        {
          "name": "C#7",
          "midi": 97,
          "time": 345.3210832500026,
          "velocity": 0.7480314960629921,
          "duration": 0.6428564999999935
        },
        {
          "name": "E4",
          "midi": 64,
          "time": 345.96393975000257,
          "velocity": 0.7480314960629921,
          "duration": 0.4285709999999767
        },
        {
          "name": "E5",
          "midi": 76,
          "time": 345.96393975000257,
          "velocity": 0.7480314960629921,
          "duration": 0.4285709999999767
        },
        {
          "name": "E6",
          "midi": 88,
          "time": 345.96393975000257,
          "velocity": 0.7480314960629921,
          "duration": 0.4285709999999767
        },
        {
          "name": "E7",
          "midi": 100,
          "time": 345.96393975000257,
          "velocity": 0.7480314960629921,
          "duration": 0.4285709999999767
        },
        {
          "name": "E4",
          "midi": 64,
          "time": 346.39251075000254,
          "velocity": 0.7480314960629921,
          "duration": 0.4285709999999767
        },
        {
          "name": "E5",
          "midi": 76,
          "time": 346.39251075000254,
          "velocity": 0.7480314960629921,
          "duration": 0.4285709999999767
        },
        {
          "name": "E6",
          "midi": 88,
          "time": 346.39251075000254,
          "velocity": 0.7480314960629921,
          "duration": 0.4285709999999767
        },
        {
          "name": "E7",
          "midi": 100,
          "time": 346.39251075000254,
          "velocity": 0.7480314960629921,
          "duration": 0.4285709999999767
        },
        {
          "name": "D#4",
          "midi": 63,
          "time": 346.8210817500025,
          "velocity": 0.7480314960629921,
          "duration": 0.21428550000001678
        },
        {
          "name": "D#5",
          "midi": 75,
          "time": 346.8210817500025,
          "velocity": 0.7480314960629921,
          "duration": 0.21428550000001678
        },
        {
          "name": "D#6",
          "midi": 87,
          "time": 346.8210817500025,
          "velocity": 0.7480314960629921,
          "duration": 0.21428550000001678
        },
        {
          "name": "D#7",
          "midi": 99,
          "time": 346.8210817500025,
          "velocity": 0.7480314960629921,
          "duration": 0.21428550000001678
        },
        {
          "name": "C#4",
          "midi": 61,
          "time": 347.03536725000254,
          "velocity": 0.7480314960629921,
          "duration": 0.8571420000000103
        },
        {
          "name": "C#5",
          "midi": 73,
          "time": 347.03536725000254,
          "velocity": 0.7480314960629921,
          "duration": 0.8571420000000103
        },
        {
          "name": "C#6",
          "midi": 85,
          "time": 347.03536725000254,
          "velocity": 0.7480314960629921,
          "duration": 0.8571420000000103
        },
        {
          "name": "C#7",
          "midi": 97,
          "time": 347.03536725000254,
          "velocity": 0.7480314960629921,
          "duration": 0.8571420000000103
        },
        {
          "name": "C4",
          "midi": 60,
          "time": 347.89250925000255,
          "velocity": 0.7480314960629921,
          "duration": 0.21428550000001678
        },
        {
          "name": "C5",
          "midi": 72,
          "time": 347.89250925000255,
          "velocity": 0.7480314960629921,
          "duration": 0.21428550000001678
        },
        {
          "name": "C6",
          "midi": 84,
          "time": 347.89250925000255,
          "velocity": 0.7480314960629921,
          "duration": 0.21428550000001678
        },
        {
          "name": "C7",
          "midi": 96,
          "time": 347.89250925000255,
          "velocity": 0.7480314960629921,
          "duration": 0.21428550000001678
        },
        {
          "name": "C#4",
          "midi": 61,
          "time": 348.10679475000256,
          "velocity": 0.5511811023622047,
          "duration": 0.21428550000001678
        },
        {
          "name": "C#5",
          "midi": 73,
          "time": 348.10679475000256,
          "velocity": 0.5511811023622047,
          "duration": 0.21428550000001678
        },
        {
          "name": "C#6",
          "midi": 85,
          "time": 348.10679475000256,
          "velocity": 0.5511811023622047,
          "duration": 0.21428550000001678
        },
        {
          "name": "C#7",
          "midi": 97,
          "time": 348.10679475000256,
          "velocity": 0.5511811023622047,
          "duration": 0.21428550000001678
        },
        {
          "name": "C4",
          "midi": 60,
          "time": 348.3210802500026,
          "velocity": 0.5511811023622047,
          "duration": 0.21428550000001678
        },
        {
          "name": "C5",
          "midi": 72,
          "time": 348.3210802500026,
          "velocity": 0.5511811023622047,
          "duration": 0.21428550000001678
        },
        {
          "name": "C6",
          "midi": 84,
          "time": 348.3210802500026,
          "velocity": 0.5511811023622047,
          "duration": 0.21428550000001678
        },
        {
          "name": "C7",
          "midi": 96,
          "time": 348.3210802500026,
          "velocity": 0.5511811023622047,
          "duration": 0.21428550000001678
        },
        {
          "name": "D4",
          "midi": 62,
          "time": 348.5353657500026,
          "velocity": 0.7480314960629921,
          "duration": 0.4285709999999767
        },
        {
          "name": "D5",
          "midi": 74,
          "time": 348.5353657500026,
          "velocity": 0.7480314960629921,
          "duration": 0.4285709999999767
        },
        {
          "name": "D6",
          "midi": 86,
          "time": 348.5353657500026,
          "velocity": 0.7480314960629921,
          "duration": 0.4285709999999767
        },
        {
          "name": "D7",
          "midi": 98,
          "time": 348.5353657500026,
          "velocity": 0.7480314960629921,
          "duration": 0.4285709999999767
        },
        {
          "name": "C4",
          "midi": 60,
          "time": 348.9639367500026,
          "velocity": 0.7480314960629921,
          "duration": 0.4285709999999767
        },
        {
          "name": "C5",
          "midi": 72,
          "time": 348.9639367500026,
          "velocity": 0.7480314960629921,
          "duration": 0.4285709999999767
        },
        {
          "name": "C6",
          "midi": 84,
          "time": 348.9639367500026,
          "velocity": 0.7480314960629921,
          "duration": 0.4285709999999767
        },
        {
          "name": "C7",
          "midi": 96,
          "time": 348.9639367500026,
          "velocity": 0.7480314960629921,
          "duration": 0.4285709999999767
        },
        {
          "name": "E4",
          "midi": 64,
          "time": 349.39250775000255,
          "velocity": 0.7480314960629921,
          "duration": 0.8571420000000103
        },
        {
          "name": "E5",
          "midi": 76,
          "time": 349.39250775000255,
          "velocity": 0.7480314960629921,
          "duration": 0.8571420000000103
        },
        {
          "name": "E6",
          "midi": 88,
          "time": 349.39250775000255,
          "velocity": 0.7480314960629921,
          "duration": 0.8571420000000103
        },
        {
          "name": "E7",
          "midi": 100,
          "time": 349.39250775000255,
          "velocity": 0.7480314960629921,
          "duration": 0.8571420000000103
        },
        {
          "name": "D#4",
          "midi": 63,
          "time": 350.24964975000256,
          "velocity": 0.7480314960629921,
          "duration": 0.21428550000001678
        },
        {
          "name": "D#5",
          "midi": 75,
          "time": 350.24964975000256,
          "velocity": 0.7480314960629921,
          "duration": 0.21428550000001678
        },
        {
          "name": "D#6",
          "midi": 87,
          "time": 350.24964975000256,
          "velocity": 0.7480314960629921,
          "duration": 0.21428550000001678
        },
        {
          "name": "D#7",
          "midi": 99,
          "time": 350.24964975000256,
          "velocity": 0.7480314960629921,
          "duration": 0.21428550000001678
        },
        {
          "name": "C4",
          "midi": 60,
          "time": 350.4639352500026,
          "velocity": 0.7480314960629921,
          "duration": 0.8571420000000103
        },
        {
          "name": "C5",
          "midi": 72,
          "time": 350.4639352500026,
          "velocity": 0.7480314960629921,
          "duration": 0.8571420000000103
        },
        {
          "name": "C6",
          "midi": 84,
          "time": 350.4639352500026,
          "velocity": 0.7480314960629921,
          "duration": 0.8571420000000103
        },
        {
          "name": "C7",
          "midi": 96,
          "time": 350.4639352500026,
          "velocity": 0.7480314960629921,
          "duration": 0.8571420000000103
        },
        {
          "name": "D#4",
          "midi": 63,
          "time": 351.3210772500026,
          "velocity": 0.7480314960629921,
          "duration": 0.8571420000000103
        },
        {
          "name": "D#5",
          "midi": 75,
          "time": 351.3210772500026,
          "velocity": 0.7480314960629921,
          "duration": 0.8571420000000103
        },
        {
          "name": "D#6",
          "midi": 87,
          "time": 351.3210772500026,
          "velocity": 0.7480314960629921,
          "duration": 0.8571420000000103
        },
        {
          "name": "D#7",
          "midi": 99,
          "time": 351.3210772500026,
          "velocity": 0.7480314960629921,
          "duration": 0.8571420000000103
        },
        {
          "name": "D#4",
          "midi": 63,
          "time": 352.1782192500026,
          "velocity": 0.7480314960629921,
          "duration": 0.6428564999999935
        },
        {
          "name": "D#5",
          "midi": 75,
          "time": 352.1782192500026,
          "velocity": 0.7480314960629921,
          "duration": 0.6428564999999935
        },
        {
          "name": "D#6",
          "midi": 87,
          "time": 352.1782192500026,
          "velocity": 0.7480314960629921,
          "duration": 0.6428564999999935
        },
        {
          "name": "D#7",
          "midi": 99,
          "time": 352.1782192500026,
          "velocity": 0.7480314960629921,
          "duration": 0.6428564999999935
        },
        {
          "name": "D4",
          "midi": 62,
          "time": 352.8210757500026,
          "velocity": 0.7480314960629921,
          "duration": 0.21428550000001678
        },
        {
          "name": "D5",
          "midi": 74,
          "time": 352.8210757500026,
          "velocity": 0.7480314960629921,
          "duration": 0.21428550000001678
        },
        {
          "name": "D6",
          "midi": 86,
          "time": 352.8210757500026,
          "velocity": 0.7480314960629921,
          "duration": 0.21428550000001678
        },
        {
          "name": "D7",
          "midi": 98,
          "time": 352.8210757500026,
          "velocity": 0.7480314960629921,
          "duration": 0.21428550000001678
        },
        {
          "name": "C#4",
          "midi": 61,
          "time": 353.0353612500026,
          "velocity": 0.7480314960629921,
          "duration": 3.2142825000000244
        },
        {
          "name": "C#5",
          "midi": 73,
          "time": 353.0353612500026,
          "velocity": 0.7480314960629921,
          "duration": 3.2142825000000244
        },
        {
          "name": "C#6",
          "midi": 85,
          "time": 353.0353612500026,
          "velocity": 0.7480314960629921,
          "duration": 3.2142825000000244
        },
        {
          "name": "C#7",
          "midi": 97,
          "time": 353.0353612500026,
          "velocity": 0.7480314960629921,
          "duration": 3.2142825000000244
        },
        {
          "name": "C#4",
          "midi": 61,
          "time": 356.24964375000263,
          "velocity": 0.7480314960629921,
          "duration": 0.32142824999999675
        },
        {
          "name": "C#5",
          "midi": 73,
          "time": 356.24964375000263,
          "velocity": 0.7480314960629921,
          "duration": 0.32142824999999675
        },
        {
          "name": "C#6",
          "midi": 85,
          "time": 356.24964375000263,
          "velocity": 0.7480314960629921,
          "duration": 0.32142824999999675
        },
        {
          "name": "C#7",
          "midi": 97,
          "time": 356.24964375000263,
          "velocity": 0.7480314960629921,
          "duration": 0.32142824999999675
        },
        {
          "name": "C4",
          "midi": 60,
          "time": 356.57107200000263,
          "velocity": 0.7480314960629921,
          "duration": 0.4285709999999767
        },
        {
          "name": "C5",
          "midi": 72,
          "time": 356.57107200000263,
          "velocity": 0.7480314960629921,
          "duration": 0.4285709999999767
        },
        {
          "name": "C6",
          "midi": 84,
          "time": 356.57107200000263,
          "velocity": 0.7480314960629921,
          "duration": 0.4285709999999767
        },
        {
          "name": "C7",
          "midi": 96,
          "time": 356.57107200000263,
          "velocity": 0.7480314960629921,
          "duration": 0.4285709999999767
        },
        {
          "name": "C#4",
          "midi": 61,
          "time": 356.9996430000026,
          "velocity": 0.7480314960629921,
          "duration": 0.4285709999999767
        },
        {
          "name": "C#5",
          "midi": 73,
          "time": 356.9996430000026,
          "velocity": 0.7480314960629921,
          "duration": 0.4285709999999767
        },
        {
          "name": "C#6",
          "midi": 85,
          "time": 356.9996430000026,
          "velocity": 0.7480314960629921,
          "duration": 0.4285709999999767
        },
        {
          "name": "C#7",
          "midi": 97,
          "time": 356.9996430000026,
          "velocity": 0.7480314960629921,
          "duration": 0.4285709999999767
        },
        {
          "name": "D4",
          "midi": 62,
          "time": 357.4282140000026,
          "velocity": 0.7480314960629921,
          "duration": 0.4285709999999767
        },
        {
          "name": "D5",
          "midi": 74,
          "time": 357.4282140000026,
          "velocity": 0.7480314960629921,
          "duration": 0.4285709999999767
        },
        {
          "name": "D6",
          "midi": 86,
          "time": 357.4282140000026,
          "velocity": 0.7480314960629921,
          "duration": 0.4285709999999767
        },
        {
          "name": "D7",
          "midi": 98,
          "time": 357.4282140000026,
          "velocity": 0.7480314960629921,
          "duration": 0.4285709999999767
        },
        {
          "name": "D#4",
          "midi": 63,
          "time": 357.85678500000256,
          "velocity": 0.7480314960629921,
          "duration": 0.4285709999999767
        },
        {
          "name": "D#5",
          "midi": 75,
          "time": 357.85678500000256,
          "velocity": 0.7480314960629921,
          "duration": 0.4285709999999767
        },
        {
          "name": "D#6",
          "midi": 87,
          "time": 357.85678500000256,
          "velocity": 0.7480314960629921,
          "duration": 0.4285709999999767
        },
        {
          "name": "D#7",
          "midi": 99,
          "time": 357.85678500000256,
          "velocity": 0.7480314960629921,
          "duration": 0.4285709999999767
        },
        {
          "name": "C4",
          "midi": 60,
          "time": 358.28535600000254,
          "velocity": 0.7480314960629921,
          "duration": 0.21428550000001678
        },
        {
          "name": "C5",
          "midi": 72,
          "time": 358.28535600000254,
          "velocity": 0.7480314960629921,
          "duration": 0.21428550000001678
        },
        {
          "name": "C6",
          "midi": 84,
          "time": 358.28535600000254,
          "velocity": 0.7480314960629921,
          "duration": 0.21428550000001678
        },
        {
          "name": "C7",
          "midi": 96,
          "time": 358.28535600000254,
          "velocity": 0.7480314960629921,
          "duration": 0.21428550000001678
        },
        {
          "name": "D4",
          "midi": 62,
          "time": 358.49964150000255,
          "velocity": 0.7480314960629921,
          "duration": 0.21428550000001678
        },
        {
          "name": "D5",
          "midi": 74,
          "time": 358.49964150000255,
          "velocity": 0.7480314960629921,
          "duration": 0.21428550000001678
        },
        {
          "name": "D6",
          "midi": 86,
          "time": 358.49964150000255,
          "velocity": 0.7480314960629921,
          "duration": 0.21428550000001678
        },
        {
          "name": "D7",
          "midi": 98,
          "time": 358.49964150000255,
          "velocity": 0.7480314960629921,
          "duration": 0.21428550000001678
        },
        {
          "name": "C4",
          "midi": 60,
          "time": 358.71392700000257,
          "velocity": 0.7480314960629921,
          "duration": 0.4285709999999767
        },
        {
          "name": "C5",
          "midi": 72,
          "time": 358.71392700000257,
          "velocity": 0.7480314960629921,
          "duration": 0.4285709999999767
        },
        {
          "name": "C6",
          "midi": 84,
          "time": 358.71392700000257,
          "velocity": 0.7480314960629921,
          "duration": 0.4285709999999767
        },
        {
          "name": "C7",
          "midi": 96,
          "time": 358.71392700000257,
          "velocity": 0.7480314960629921,
          "duration": 0.4285709999999767
        },
        {
          "name": "E4",
          "midi": 64,
          "time": 359.14249800000255,
          "velocity": 0.7480314960629921,
          "duration": 0.4285709999999767
        },
        {
          "name": "E5",
          "midi": 76,
          "time": 359.14249800000255,
          "velocity": 0.7480314960629921,
          "duration": 0.4285709999999767
        },
        {
          "name": "E6",
          "midi": 88,
          "time": 359.14249800000255,
          "velocity": 0.7480314960629921,
          "duration": 0.4285709999999767
        },
        {
          "name": "E7",
          "midi": 100,
          "time": 359.14249800000255,
          "velocity": 0.7480314960629921,
          "duration": 0.4285709999999767
        },
        {
          "name": "D4",
          "midi": 62,
          "time": 359.5710690000025,
          "velocity": 0.7480314960629921,
          "duration": 0.4285709999999767
        },
        {
          "name": "D5",
          "midi": 74,
          "time": 359.5710690000025,
          "velocity": 0.7480314960629921,
          "duration": 0.4285709999999767
        },
        {
          "name": "D6",
          "midi": 86,
          "time": 359.5710690000025,
          "velocity": 0.7480314960629921,
          "duration": 0.4285709999999767
        },
        {
          "name": "D7",
          "midi": 98,
          "time": 359.5710690000025,
          "velocity": 0.7480314960629921,
          "duration": 0.4285709999999767
        },
        {
          "name": "C4",
          "midi": 60,
          "time": 359.9996400000025,
          "velocity": 0.7480314960629921,
          "duration": 0.4285709999999767
        },
        {
          "name": "C5",
          "midi": 72,
          "time": 359.9996400000025,
          "velocity": 0.7480314960629921,
          "duration": 0.4285709999999767
        },
        {
          "name": "C6",
          "midi": 84,
          "time": 359.9996400000025,
          "velocity": 0.7480314960629921,
          "duration": 0.4285709999999767
        },
        {
          "name": "C7",
          "midi": 96,
          "time": 359.9996400000025,
          "velocity": 0.7480314960629921,
          "duration": 0.4285709999999767
        },
        {
          "name": "D4",
          "midi": 62,
          "time": 360.4282110000025,
          "velocity": 0.7480314960629921,
          "duration": 0.4285709999999767
        },
        {
          "name": "D5",
          "midi": 74,
          "time": 360.4282110000025,
          "velocity": 0.7480314960629921,
          "duration": 0.4285709999999767
        },
        {
          "name": "D6",
          "midi": 86,
          "time": 360.4282110000025,
          "velocity": 0.7480314960629921,
          "duration": 0.4285709999999767
        },
        {
          "name": "D7",
          "midi": 98,
          "time": 360.4282110000025,
          "velocity": 0.7480314960629921,
          "duration": 0.4285709999999767
        },
        {
          "name": "D#4",
          "midi": 63,
          "time": 360.85678200000245,
          "velocity": 0.7480314960629921,
          "duration": 0.4285709999999767
        },
        {
          "name": "D#5",
          "midi": 75,
          "time": 360.85678200000245,
          "velocity": 0.7480314960629921,
          "duration": 0.4285709999999767
        },
        {
          "name": "D#6",
          "midi": 87,
          "time": 360.85678200000245,
          "velocity": 0.7480314960629921,
          "duration": 0.4285709999999767
        },
        {
          "name": "D#7",
          "midi": 99,
          "time": 360.85678200000245,
          "velocity": 0.7480314960629921,
          "duration": 0.4285709999999767
        },
        {
          "name": "D4",
          "midi": 62,
          "time": 361.28535300000243,
          "velocity": 0.7480314960629921,
          "duration": 0.4285709999999767
        },
        {
          "name": "D5",
          "midi": 74,
          "time": 361.28535300000243,
          "velocity": 0.7480314960629921,
          "duration": 0.4285709999999767
        },
        {
          "name": "D6",
          "midi": 86,
          "time": 361.28535300000243,
          "velocity": 0.7480314960629921,
          "duration": 0.4285709999999767
        },
        {
          "name": "D7",
          "midi": 98,
          "time": 361.28535300000243,
          "velocity": 0.7480314960629921,
          "duration": 0.4285709999999767
        },
        {
          "name": "C#4",
          "midi": 61,
          "time": 361.7139240000024,
          "velocity": 0.7480314960629921,
          "duration": 0.21428550000001678
        },
        {
          "name": "C#5",
          "midi": 73,
          "time": 361.7139240000024,
          "velocity": 0.7480314960629921,
          "duration": 0.21428550000001678
        },
        {
          "name": "C#6",
          "midi": 85,
          "time": 361.7139240000024,
          "velocity": 0.7480314960629921,
          "duration": 0.21428550000001678
        },
        {
          "name": "C#7",
          "midi": 97,
          "time": 361.7139240000024,
          "velocity": 0.7480314960629921,
          "duration": 0.21428550000001678
        },
        {
          "name": "D4",
          "midi": 62,
          "time": 361.9282095000024,
          "velocity": 0.7480314960629921,
          "duration": 0.21428550000001678
        },
        {
          "name": "D5",
          "midi": 74,
          "time": 361.9282095000024,
          "velocity": 0.7480314960629921,
          "duration": 0.21428550000001678
        },
        {
          "name": "D6",
          "midi": 86,
          "time": 361.9282095000024,
          "velocity": 0.7480314960629921,
          "duration": 0.21428550000001678
        },
        {
          "name": "D7",
          "midi": 98,
          "time": 361.9282095000024,
          "velocity": 0.7480314960629921,
          "duration": 0.21428550000001678
        },
        {
          "name": "C#4",
          "midi": 61,
          "time": 362.14249500000244,
          "velocity": 0.7480314960629921,
          "duration": 0.4285709999999767
        },
        {
          "name": "C#5",
          "midi": 73,
          "time": 362.14249500000244,
          "velocity": 0.7480314960629921,
          "duration": 0.4285709999999767
        },
        {
          "name": "C#6",
          "midi": 85,
          "time": 362.14249500000244,
          "velocity": 0.7480314960629921,
          "duration": 0.4285709999999767
        },
        {
          "name": "C#7",
          "midi": 97,
          "time": 362.14249500000244,
          "velocity": 0.7480314960629921,
          "duration": 0.4285709999999767
        },
        {
          "name": "D#4",
          "midi": 63,
          "time": 362.5710660000024,
          "velocity": 0.7480314960629921,
          "duration": 0.4285709999999767
        },
        {
          "name": "D#5",
          "midi": 75,
          "time": 362.5710660000024,
          "velocity": 0.7480314960629921,
          "duration": 0.4285709999999767
        },
        {
          "name": "D#6",
          "midi": 87,
          "time": 362.5710660000024,
          "velocity": 0.7480314960629921,
          "duration": 0.4285709999999767
        },
        {
          "name": "D#7",
          "midi": 99,
          "time": 362.5710660000024,
          "velocity": 0.7480314960629921,
          "duration": 0.4285709999999767
        },
        {
          "name": "E4",
          "midi": 64,
          "time": 362.9996370000024,
          "velocity": 0.7480314960629921,
          "duration": 0.4285709999999767
        },
        {
          "name": "E5",
          "midi": 76,
          "time": 362.9996370000024,
          "velocity": 0.7480314960629921,
          "duration": 0.4285709999999767
        },
        {
          "name": "E6",
          "midi": 88,
          "time": 362.9996370000024,
          "velocity": 0.7480314960629921,
          "duration": 0.4285709999999767
        },
        {
          "name": "E7",
          "midi": 100,
          "time": 362.9996370000024,
          "velocity": 0.7480314960629921,
          "duration": 0.4285709999999767
        },
        {
          "name": "C4",
          "midi": 60,
          "time": 363.42820800000237,
          "velocity": 0.7480314960629921,
          "duration": 0.4285709999999767
        },
        {
          "name": "C5",
          "midi": 72,
          "time": 363.42820800000237,
          "velocity": 0.7480314960629921,
          "duration": 0.4285709999999767
        },
        {
          "name": "C6",
          "midi": 84,
          "time": 363.42820800000237,
          "velocity": 0.7480314960629921,
          "duration": 0.4285709999999767
        },
        {
          "name": "C7",
          "midi": 96,
          "time": 363.42820800000237,
          "velocity": 0.7480314960629921,
          "duration": 0.4285709999999767
        },
        {
          "name": "C#4",
          "midi": 61,
          "time": 363.85677900000235,
          "velocity": 0.7480314960629921,
          "duration": 0.4285709999999767
        },
        {
          "name": "C#5",
          "midi": 73,
          "time": 363.85677900000235,
          "velocity": 0.7480314960629921,
          "duration": 0.4285709999999767
        },
        {
          "name": "C#6",
          "midi": 85,
          "time": 363.85677900000235,
          "velocity": 0.7480314960629921,
          "duration": 0.4285709999999767
        },
        {
          "name": "C#7",
          "midi": 97,
          "time": 363.85677900000235,
          "velocity": 0.7480314960629921,
          "duration": 0.4285709999999767
        },
        {
          "name": "D4",
          "midi": 62,
          "time": 364.2853500000023,
          "velocity": 0.7480314960629921,
          "duration": 0.4285709999999767
        },
        {
          "name": "D5",
          "midi": 74,
          "time": 364.2853500000023,
          "velocity": 0.7480314960629921,
          "duration": 0.4285709999999767
        },
        {
          "name": "D6",
          "midi": 86,
          "time": 364.2853500000023,
          "velocity": 0.7480314960629921,
          "duration": 0.4285709999999767
        },
        {
          "name": "D7",
          "midi": 98,
          "time": 364.2853500000023,
          "velocity": 0.7480314960629921,
          "duration": 0.4285709999999767
        },
        {
          "name": "D#4",
          "midi": 63,
          "time": 364.7139210000023,
          "velocity": 0.7480314960629921,
          "duration": 0.4285709999999767
        },
        {
          "name": "D#5",
          "midi": 75,
          "time": 364.7139210000023,
          "velocity": 0.7480314960629921,
          "duration": 0.4285709999999767
        },
        {
          "name": "D#6",
          "midi": 87,
          "time": 364.7139210000023,
          "velocity": 0.7480314960629921,
          "duration": 0.4285709999999767
        },
        {
          "name": "D#7",
          "midi": 99,
          "time": 364.7139210000023,
          "velocity": 0.7480314960629921,
          "duration": 0.4285709999999767
        },
        {
          "name": "C4",
          "midi": 60,
          "time": 365.1424920000023,
          "velocity": 0.7480314960629921,
          "duration": 0.21428550000001678
        },
        {
          "name": "C5",
          "midi": 72,
          "time": 365.1424920000023,
          "velocity": 0.7480314960629921,
          "duration": 0.21428550000001678
        },
        {
          "name": "C6",
          "midi": 84,
          "time": 365.1424920000023,
          "velocity": 0.7480314960629921,
          "duration": 0.21428550000001678
        },
        {
          "name": "C7",
          "midi": 96,
          "time": 365.1424920000023,
          "velocity": 0.7480314960629921,
          "duration": 0.21428550000001678
        },
        {
          "name": "D4",
          "midi": 62,
          "time": 365.3567775000023,
          "velocity": 0.7480314960629921,
          "duration": 0.21428550000001678
        },
        {
          "name": "D5",
          "midi": 74,
          "time": 365.3567775000023,
          "velocity": 0.7480314960629921,
          "duration": 0.21428550000001678
        },
        {
          "name": "D6",
          "midi": 86,
          "time": 365.3567775000023,
          "velocity": 0.7480314960629921,
          "duration": 0.21428550000001678
        },
        {
          "name": "D7",
          "midi": 98,
          "time": 365.3567775000023,
          "velocity": 0.7480314960629921,
          "duration": 0.21428550000001678
        },
        {
          "name": "C4",
          "midi": 60,
          "time": 365.5710630000023,
          "velocity": 0.7480314960629921,
          "duration": 0.4285709999999767
        },
        {
          "name": "C5",
          "midi": 72,
          "time": 365.5710630000023,
          "velocity": 0.7480314960629921,
          "duration": 0.4285709999999767
        },
        {
          "name": "C6",
          "midi": 84,
          "time": 365.5710630000023,
          "velocity": 0.7480314960629921,
          "duration": 0.4285709999999767
        },
        {
          "name": "C7",
          "midi": 96,
          "time": 365.5710630000023,
          "velocity": 0.7480314960629921,
          "duration": 0.4285709999999767
        },
        {
          "name": "E4",
          "midi": 64,
          "time": 365.9996340000023,
          "velocity": 0.7480314960629921,
          "duration": 0.4285709999999767
        },
        {
          "name": "E5",
          "midi": 76,
          "time": 365.9996340000023,
          "velocity": 0.7480314960629921,
          "duration": 0.4285709999999767
        },
        {
          "name": "E6",
          "midi": 88,
          "time": 365.9996340000023,
          "velocity": 0.7480314960629921,
          "duration": 0.4285709999999767
        },
        {
          "name": "E7",
          "midi": 100,
          "time": 365.9996340000023,
          "velocity": 0.7480314960629921,
          "duration": 0.4285709999999767
        },
        {
          "name": "D4",
          "midi": 62,
          "time": 366.42820500000227,
          "velocity": 0.7480314960629921,
          "duration": 0.4285709999999767
        },
        {
          "name": "D5",
          "midi": 74,
          "time": 366.42820500000227,
          "velocity": 0.7480314960629921,
          "duration": 0.4285709999999767
        },
        {
          "name": "D6",
          "midi": 86,
          "time": 366.42820500000227,
          "velocity": 0.7480314960629921,
          "duration": 0.4285709999999767
        },
        {
          "name": "D7",
          "midi": 98,
          "time": 366.42820500000227,
          "velocity": 0.7480314960629921,
          "duration": 0.4285709999999767
        },
        {
          "name": "C4",
          "midi": 60,
          "time": 366.85677600000224,
          "velocity": 0.7480314960629921,
          "duration": 0.4285709999999767
        },
        {
          "name": "C5",
          "midi": 72,
          "time": 366.85677600000224,
          "velocity": 0.7480314960629921,
          "duration": 0.4285709999999767
        },
        {
          "name": "C6",
          "midi": 84,
          "time": 366.85677600000224,
          "velocity": 0.7480314960629921,
          "duration": 0.4285709999999767
        },
        {
          "name": "C7",
          "midi": 96,
          "time": 366.85677600000224,
          "velocity": 0.7480314960629921,
          "duration": 0.4285709999999767
        },
        {
          "name": "D4",
          "midi": 62,
          "time": 367.2853470000022,
          "velocity": 0.7480314960629921,
          "duration": 0.4285709999999767
        },
        {
          "name": "D5",
          "midi": 74,
          "time": 367.2853470000022,
          "velocity": 0.7480314960629921,
          "duration": 0.4285709999999767
        },
        {
          "name": "D6",
          "midi": 86,
          "time": 367.2853470000022,
          "velocity": 0.7480314960629921,
          "duration": 0.4285709999999767
        },
        {
          "name": "D7",
          "midi": 98,
          "time": 367.2853470000022,
          "velocity": 0.7480314960629921,
          "duration": 0.4285709999999767
        },
        {
          "name": "D#4",
          "midi": 63,
          "time": 367.7139180000022,
          "velocity": 0.7480314960629921,
          "duration": 0.4285709999999767
        },
        {
          "name": "D#5",
          "midi": 75,
          "time": 367.7139180000022,
          "velocity": 0.7480314960629921,
          "duration": 0.4285709999999767
        },
        {
          "name": "D#6",
          "midi": 87,
          "time": 367.7139180000022,
          "velocity": 0.7480314960629921,
          "duration": 0.4285709999999767
        },
        {
          "name": "D#7",
          "midi": 99,
          "time": 367.7139180000022,
          "velocity": 0.7480314960629921,
          "duration": 0.4285709999999767
        },
        {
          "name": "D4",
          "midi": 62,
          "time": 368.1424890000022,
          "velocity": 0.7480314960629921,
          "duration": 0.4285709999999767
        },
        {
          "name": "D5",
          "midi": 74,
          "time": 368.1424890000022,
          "velocity": 0.7480314960629921,
          "duration": 0.4285709999999767
        },
        {
          "name": "D6",
          "midi": 86,
          "time": 368.1424890000022,
          "velocity": 0.7480314960629921,
          "duration": 0.4285709999999767
        },
        {
          "name": "D7",
          "midi": 98,
          "time": 368.1424890000022,
          "velocity": 0.7480314960629921,
          "duration": 0.4285709999999767
        },
        {
          "name": "C#4",
          "midi": 61,
          "time": 368.57106000000215,
          "velocity": 0.7480314960629921,
          "duration": 0.21428550000001678
        },
        {
          "name": "C#5",
          "midi": 73,
          "time": 368.57106000000215,
          "velocity": 0.7480314960629921,
          "duration": 0.21428550000001678
        },
        {
          "name": "C#6",
          "midi": 85,
          "time": 368.57106000000215,
          "velocity": 0.7480314960629921,
          "duration": 0.21428550000001678
        },
        {
          "name": "C#7",
          "midi": 97,
          "time": 368.57106000000215,
          "velocity": 0.7480314960629921,
          "duration": 0.21428550000001678
        },
        {
          "name": "D4",
          "midi": 62,
          "time": 368.78534550000217,
          "velocity": 0.7480314960629921,
          "duration": 0.21428550000001678
        },
        {
          "name": "D5",
          "midi": 74,
          "time": 368.78534550000217,
          "velocity": 0.7480314960629921,
          "duration": 0.21428550000001678
        },
        {
          "name": "D6",
          "midi": 86,
          "time": 368.78534550000217,
          "velocity": 0.7480314960629921,
          "duration": 0.21428550000001678
        },
        {
          "name": "D7",
          "midi": 98,
          "time": 368.78534550000217,
          "velocity": 0.7480314960629921,
          "duration": 0.21428550000001678
        },
        {
          "name": "C#4",
          "midi": 61,
          "time": 368.9996310000022,
          "velocity": 0.7480314960629921,
          "duration": 0.4285709999999767
        },
        {
          "name": "C#5",
          "midi": 73,
          "time": 368.9996310000022,
          "velocity": 0.7480314960629921,
          "duration": 0.4285709999999767
        },
        {
          "name": "C#6",
          "midi": 85,
          "time": 368.9996310000022,
          "velocity": 0.7480314960629921,
          "duration": 0.4285709999999767
        },
        {
          "name": "C#7",
          "midi": 97,
          "time": 368.9996310000022,
          "velocity": 0.7480314960629921,
          "duration": 0.4285709999999767
        },
        {
          "name": "D#4",
          "midi": 63,
          "time": 369.42820200000216,
          "velocity": 0.7480314960629921,
          "duration": 0.4285709999999767
        },
        {
          "name": "D#5",
          "midi": 75,
          "time": 369.42820200000216,
          "velocity": 0.7480314960629921,
          "duration": 0.4285709999999767
        },
        {
          "name": "D#6",
          "midi": 87,
          "time": 369.42820200000216,
          "velocity": 0.7480314960629921,
          "duration": 0.4285709999999767
        },
        {
          "name": "D#7",
          "midi": 99,
          "time": 369.42820200000216,
          "velocity": 0.7480314960629921,
          "duration": 0.4285709999999767
        },
        {
          "name": "E4",
          "midi": 64,
          "time": 369.85677300000214,
          "velocity": 0.7480314960629921,
          "duration": 0.4285709999999767
        },
        {
          "name": "E5",
          "midi": 76,
          "time": 369.85677300000214,
          "velocity": 0.7480314960629921,
          "duration": 0.4285709999999767
        },
        {
          "name": "E6",
          "midi": 88,
          "time": 369.85677300000214,
          "velocity": 0.7480314960629921,
          "duration": 0.4285709999999767
        },
        {
          "name": "E7",
          "midi": 100,
          "time": 369.85677300000214,
          "velocity": 0.7480314960629921,
          "duration": 0.4285709999999767
        },
        {
          "name": "C4",
          "midi": 60,
          "time": 370.2853440000021,
          "velocity": 0.7559055118110236,
          "duration": 0.10714274999997997
        },
        {
          "name": "C5",
          "midi": 72,
          "time": 370.2853440000021,
          "velocity": 0.7559055118110236,
          "duration": 0.10714274999997997
        },
        {
          "name": "C6",
          "midi": 84,
          "time": 370.2853440000021,
          "velocity": 0.7559055118110236,
          "duration": 0.10714274999997997
        },
        {
          "name": "C7",
          "midi": 96,
          "time": 370.2853440000021,
          "velocity": 0.7559055118110236,
          "duration": 0.10714274999997997
        },
        {
          "name": "C4",
          "midi": 60,
          "time": 370.4996295000021,
          "velocity": 0.7559055118110236,
          "duration": 0.10714274999997997
        },
        {
          "name": "C5",
          "midi": 72,
          "time": 370.4996295000021,
          "velocity": 0.7559055118110236,
          "duration": 0.10714274999997997
        },
        {
          "name": "C6",
          "midi": 84,
          "time": 370.4996295000021,
          "velocity": 0.7559055118110236,
          "duration": 0.10714274999997997
        },
        {
          "name": "C7",
          "midi": 96,
          "time": 370.4996295000021,
          "velocity": 0.7559055118110236,
          "duration": 0.10714274999997997
        },
        {
          "name": "C4",
          "midi": 60,
          "time": 370.71391500000203,
          "velocity": 0.7559055118110236,
          "duration": 0.10714274999997997
        },
        {
          "name": "C5",
          "midi": 72,
          "time": 370.71391500000203,
          "velocity": 0.7559055118110236,
          "duration": 0.10714274999997997
        },
        {
          "name": "C6",
          "midi": 84,
          "time": 370.71391500000203,
          "velocity": 0.7559055118110236,
          "duration": 0.10714274999997997
        },
        {
          "name": "C7",
          "midi": 96,
          "time": 370.71391500000203,
          "velocity": 0.7559055118110236,
          "duration": 0.10714274999997997
        },
        {
          "name": "C4",
          "midi": 60,
          "time": 370.928200500002,
          "velocity": 0.7559055118110236,
          "duration": 0.10714274999997997
        },
        {
          "name": "C5",
          "midi": 72,
          "time": 370.928200500002,
          "velocity": 0.7559055118110236,
          "duration": 0.10714274999997997
        },
        {
          "name": "C6",
          "midi": 84,
          "time": 370.928200500002,
          "velocity": 0.7559055118110236,
          "duration": 0.10714274999997997
        },
        {
          "name": "C7",
          "midi": 96,
          "time": 370.928200500002,
          "velocity": 0.7559055118110236,
          "duration": 0.10714274999997997
        },
        {
          "name": "C4",
          "midi": 60,
          "time": 371.14248600000195,
          "velocity": 0.7559055118110236,
          "duration": 0.10714274999997997
        },
        {
          "name": "C5",
          "midi": 72,
          "time": 371.14248600000195,
          "velocity": 0.7559055118110236,
          "duration": 0.10714274999997997
        },
        {
          "name": "C6",
          "midi": 84,
          "time": 371.14248600000195,
          "velocity": 0.7559055118110236,
          "duration": 0.10714274999997997
        },
        {
          "name": "C7",
          "midi": 96,
          "time": 371.14248600000195,
          "velocity": 0.7559055118110236,
          "duration": 0.10714274999997997
        },
        {
          "name": "C4",
          "midi": 60,
          "time": 371.3567715000019,
          "velocity": 0.7559055118110236,
          "duration": 0.10714274999997997
        },
        {
          "name": "C5",
          "midi": 72,
          "time": 371.3567715000019,
          "velocity": 0.7559055118110236,
          "duration": 0.10714274999997997
        },
        {
          "name": "C6",
          "midi": 84,
          "time": 371.3567715000019,
          "velocity": 0.7559055118110236,
          "duration": 0.10714274999997997
        },
        {
          "name": "C7",
          "midi": 96,
          "time": 371.3567715000019,
          "velocity": 0.7559055118110236,
          "duration": 0.10714274999997997
        },
        {
          "name": "D#4",
          "midi": 63,
          "time": 371.5710570000019,
          "velocity": 0.7559055118110236,
          "duration": 0.10714274999997997
        },
        {
          "name": "D#5",
          "midi": 75,
          "time": 371.5710570000019,
          "velocity": 0.7559055118110236,
          "duration": 0.10714274999997997
        },
        {
          "name": "D#6",
          "midi": 87,
          "time": 371.5710570000019,
          "velocity": 0.7559055118110236,
          "duration": 0.10714274999997997
        },
        {
          "name": "D#7",
          "midi": 99,
          "time": 371.5710570000019,
          "velocity": 0.7559055118110236,
          "duration": 0.10714274999997997
        },
        {
          "name": "D#4",
          "midi": 63,
          "time": 371.78534250000183,
          "velocity": 0.7559055118110236,
          "duration": 0.10714274999997997
        },
        {
          "name": "D#5",
          "midi": 75,
          "time": 371.78534250000183,
          "velocity": 0.7559055118110236,
          "duration": 0.10714274999997997
        },
        {
          "name": "D#6",
          "midi": 87,
          "time": 371.78534250000183,
          "velocity": 0.7559055118110236,
          "duration": 0.10714274999997997
        },
        {
          "name": "D#7",
          "midi": 99,
          "time": 371.78534250000183,
          "velocity": 0.7559055118110236,
          "duration": 0.10714274999997997
        },
        {
          "name": "D#4",
          "midi": 63,
          "time": 371.9996280000018,
          "velocity": 0.7559055118110236,
          "duration": 0.10714274999997997
        },
        {
          "name": "D#5",
          "midi": 75,
          "time": 371.9996280000018,
          "velocity": 0.7559055118110236,
          "duration": 0.10714274999997997
        },
        {
          "name": "D#6",
          "midi": 87,
          "time": 371.9996280000018,
          "velocity": 0.7559055118110236,
          "duration": 0.10714274999997997
        },
        {
          "name": "D#7",
          "midi": 99,
          "time": 371.9996280000018,
          "velocity": 0.7559055118110236,
          "duration": 0.10714274999997997
        },
        {
          "name": "D#4",
          "midi": 63,
          "time": 372.21391350000175,
          "velocity": 0.7559055118110236,
          "duration": 0.10714274999997997
        },
        {
          "name": "D#5",
          "midi": 75,
          "time": 372.21391350000175,
          "velocity": 0.7559055118110236,
          "duration": 0.10714274999997997
        },
        {
          "name": "D#6",
          "midi": 87,
          "time": 372.21391350000175,
          "velocity": 0.7559055118110236,
          "duration": 0.10714274999997997
        },
        {
          "name": "D#7",
          "midi": 99,
          "time": 372.21391350000175,
          "velocity": 0.7559055118110236,
          "duration": 0.10714274999997997
        },
        {
          "name": "D#4",
          "midi": 63,
          "time": 372.4281990000017,
          "velocity": 0.7559055118110236,
          "duration": 0.10714274999997997
        },
        {
          "name": "D#5",
          "midi": 75,
          "time": 372.4281990000017,
          "velocity": 0.7559055118110236,
          "duration": 0.10714274999997997
        },
        {
          "name": "D#6",
          "midi": 87,
          "time": 372.4281990000017,
          "velocity": 0.7559055118110236,
          "duration": 0.10714274999997997
        },
        {
          "name": "D#7",
          "midi": 99,
          "time": 372.4281990000017,
          "velocity": 0.7559055118110236,
          "duration": 0.10714274999997997
        },
        {
          "name": "D#4",
          "midi": 63,
          "time": 372.6424845000017,
          "velocity": 0.7559055118110236,
          "duration": 0.10714274999997997
        },
        {
          "name": "D#5",
          "midi": 75,
          "time": 372.6424845000017,
          "velocity": 0.7559055118110236,
          "duration": 0.10714274999997997
        },
        {
          "name": "D#6",
          "midi": 87,
          "time": 372.6424845000017,
          "velocity": 0.7559055118110236,
          "duration": 0.10714274999997997
        },
        {
          "name": "D#7",
          "midi": 99,
          "time": 372.6424845000017,
          "velocity": 0.7559055118110236,
          "duration": 0.10714274999997997
        },
        {
          "name": "D#4",
          "midi": 63,
          "time": 372.85677000000163,
          "velocity": 0.7559055118110236,
          "duration": 0.10714274999997997
        },
        {
          "name": "D#5",
          "midi": 75,
          "time": 372.85677000000163,
          "velocity": 0.7559055118110236,
          "duration": 0.10714274999997997
        },
        {
          "name": "D#6",
          "midi": 87,
          "time": 372.85677000000163,
          "velocity": 0.7559055118110236,
          "duration": 0.10714274999997997
        },
        {
          "name": "D#7",
          "midi": 99,
          "time": 372.85677000000163,
          "velocity": 0.7559055118110236,
          "duration": 0.10714274999997997
        },
        {
          "name": "D#4",
          "midi": 63,
          "time": 373.0710555000016,
          "velocity": 0.7559055118110236,
          "duration": 0.10714274999997997
        },
        {
          "name": "D#5",
          "midi": 75,
          "time": 373.0710555000016,
          "velocity": 0.7559055118110236,
          "duration": 0.10714274999997997
        },
        {
          "name": "D#6",
          "midi": 87,
          "time": 373.0710555000016,
          "velocity": 0.7559055118110236,
          "duration": 0.10714274999997997
        },
        {
          "name": "D#7",
          "midi": 99,
          "time": 373.0710555000016,
          "velocity": 0.7559055118110236,
          "duration": 0.10714274999997997
        },
        {
          "name": "D#4",
          "midi": 63,
          "time": 373.28534100000155,
          "velocity": 0.7559055118110236,
          "duration": 0.10714274999997997
        },
        {
          "name": "D#5",
          "midi": 75,
          "time": 373.28534100000155,
          "velocity": 0.7559055118110236,
          "duration": 0.10714274999997997
        },
        {
          "name": "D#6",
          "midi": 87,
          "time": 373.28534100000155,
          "velocity": 0.7559055118110236,
          "duration": 0.10714274999997997
        },
        {
          "name": "D#7",
          "midi": 99,
          "time": 373.28534100000155,
          "velocity": 0.7559055118110236,
          "duration": 0.10714274999997997
        },
        {
          "name": "D#4",
          "midi": 63,
          "time": 373.4996265000015,
          "velocity": 0.7559055118110236,
          "duration": 0.10714274999997997
        },
        {
          "name": "D#5",
          "midi": 75,
          "time": 373.4996265000015,
          "velocity": 0.7559055118110236,
          "duration": 0.10714274999997997
        },
        {
          "name": "D#6",
          "midi": 87,
          "time": 373.4996265000015,
          "velocity": 0.7559055118110236,
          "duration": 0.10714274999997997
        },
        {
          "name": "D#7",
          "midi": 99,
          "time": 373.4996265000015,
          "velocity": 0.7559055118110236,
          "duration": 0.10714274999997997
        },
        {
          "name": "D#4",
          "midi": 63,
          "time": 373.71391200000147,
          "velocity": 0.7559055118110236,
          "duration": 0.10714274999997997
        },
        {
          "name": "D#5",
          "midi": 75,
          "time": 373.71391200000147,
          "velocity": 0.7559055118110236,
          "duration": 0.10714274999997997
        },
        {
          "name": "D#6",
          "midi": 87,
          "time": 373.71391200000147,
          "velocity": 0.7559055118110236,
          "duration": 0.10714274999997997
        },
        {
          "name": "D#7",
          "midi": 99,
          "time": 373.71391200000147,
          "velocity": 0.7559055118110236,
          "duration": 0.10714274999997997
        },
        {
          "name": "C#4",
          "midi": 61,
          "time": 373.92819750000143,
          "velocity": 0.7559055118110236,
          "duration": 0.10714274999997997
        },
        {
          "name": "C#5",
          "midi": 73,
          "time": 373.92819750000143,
          "velocity": 0.7559055118110236,
          "duration": 0.10714274999997997
        },
        {
          "name": "C#6",
          "midi": 85,
          "time": 373.92819750000143,
          "velocity": 0.7559055118110236,
          "duration": 0.10714274999997997
        },
        {
          "name": "C#7",
          "midi": 97,
          "time": 373.92819750000143,
          "velocity": 0.7559055118110236,
          "duration": 0.10714274999997997
        },
        {
          "name": "C#4",
          "midi": 61,
          "time": 374.1424830000014,
          "velocity": 0.7559055118110236,
          "duration": 0.10714274999997997
        },
        {
          "name": "C#5",
          "midi": 73,
          "time": 374.1424830000014,
          "velocity": 0.7559055118110236,
          "duration": 0.10714274999997997
        },
        {
          "name": "C#6",
          "midi": 85,
          "time": 374.1424830000014,
          "velocity": 0.7559055118110236,
          "duration": 0.10714274999997997
        },
        {
          "name": "C#7",
          "midi": 97,
          "time": 374.1424830000014,
          "velocity": 0.7559055118110236,
          "duration": 0.10714274999997997
        },
        {
          "name": "C#4",
          "midi": 61,
          "time": 374.35676850000135,
          "velocity": 0.7559055118110236,
          "duration": 0.10714274999997997
        },
        {
          "name": "C#5",
          "midi": 73,
          "time": 374.35676850000135,
          "velocity": 0.7559055118110236,
          "duration": 0.10714274999997997
        },
        {
          "name": "C#6",
          "midi": 85,
          "time": 374.35676850000135,
          "velocity": 0.7559055118110236,
          "duration": 0.10714274999997997
        },
        {
          "name": "C#7",
          "midi": 97,
          "time": 374.35676850000135,
          "velocity": 0.7559055118110236,
          "duration": 0.10714274999997997
        },
        {
          "name": "C#4",
          "midi": 61,
          "time": 374.5710540000013,
          "velocity": 0.7559055118110236,
          "duration": 0.10714274999997997
        },
        {
          "name": "C#5",
          "midi": 73,
          "time": 374.5710540000013,
          "velocity": 0.7559055118110236,
          "duration": 0.10714274999997997
        },
        {
          "name": "C#6",
          "midi": 85,
          "time": 374.5710540000013,
          "velocity": 0.7559055118110236,
          "duration": 0.10714274999997997
        },
        {
          "name": "C#7",
          "midi": 97,
          "time": 374.5710540000013,
          "velocity": 0.7559055118110236,
          "duration": 0.10714274999997997
        },
        {
          "name": "C#4",
          "midi": 61,
          "time": 374.78533950000127,
          "velocity": 0.7559055118110236,
          "duration": 0.10714274999997997
        },
        {
          "name": "C#5",
          "midi": 73,
          "time": 374.78533950000127,
          "velocity": 0.7559055118110236,
          "duration": 0.10714274999997997
        },
        {
          "name": "C#6",
          "midi": 85,
          "time": 374.78533950000127,
          "velocity": 0.7559055118110236,
          "duration": 0.10714274999997997
        },
        {
          "name": "C#7",
          "midi": 97,
          "time": 374.78533950000127,
          "velocity": 0.7559055118110236,
          "duration": 0.10714274999997997
        },
        {
          "name": "D4",
          "midi": 62,
          "time": 374.99962500000123,
          "velocity": 0.7559055118110236,
          "duration": 0.10714274999997997
        },
        {
          "name": "D5",
          "midi": 74,
          "time": 374.99962500000123,
          "velocity": 0.7559055118110236,
          "duration": 0.10714274999997997
        },
        {
          "name": "D6",
          "midi": 86,
          "time": 374.99962500000123,
          "velocity": 0.7559055118110236,
          "duration": 0.10714274999997997
        },
        {
          "name": "D7",
          "midi": 98,
          "time": 374.99962500000123,
          "velocity": 0.7559055118110236,
          "duration": 0.10714274999997997
        },
        {
          "name": "D4",
          "midi": 62,
          "time": 375.2139105000012,
          "velocity": 0.7559055118110236,
          "duration": 0.10714274999997997
        },
        {
          "name": "D5",
          "midi": 74,
          "time": 375.2139105000012,
          "velocity": 0.7559055118110236,
          "duration": 0.10714274999997997
        },
        {
          "name": "D6",
          "midi": 86,
          "time": 375.2139105000012,
          "velocity": 0.7559055118110236,
          "duration": 0.10714274999997997
        },
        {
          "name": "D7",
          "midi": 98,
          "time": 375.2139105000012,
          "velocity": 0.7559055118110236,
          "duration": 0.10714274999997997
        },
        {
          "name": "D4",
          "midi": 62,
          "time": 375.42819600000115,
          "velocity": 0.7559055118110236,
          "duration": 0.10714274999997997
        },
        {
          "name": "D5",
          "midi": 74,
          "time": 375.42819600000115,
          "velocity": 0.7559055118110236,
          "duration": 0.10714274999997997
        },
        {
          "name": "D6",
          "midi": 86,
          "time": 375.42819600000115,
          "velocity": 0.7559055118110236,
          "duration": 0.10714274999997997
        },
        {
          "name": "D7",
          "midi": 98,
          "time": 375.42819600000115,
          "velocity": 0.7559055118110236,
          "duration": 0.10714274999997997
        },
        {
          "name": "D4",
          "midi": 62,
          "time": 375.6424815000011,
          "velocity": 0.7559055118110236,
          "duration": 0.10714274999997997
        },
        {
          "name": "D5",
          "midi": 74,
          "time": 375.6424815000011,
          "velocity": 0.7559055118110236,
          "duration": 0.10714274999997997
        },
        {
          "name": "D6",
          "midi": 86,
          "time": 375.6424815000011,
          "velocity": 0.7559055118110236,
          "duration": 0.10714274999997997
        },
        {
          "name": "D7",
          "midi": 98,
          "time": 375.6424815000011,
          "velocity": 0.7559055118110236,
          "duration": 0.10714274999997997
        },
        {
          "name": "D4",
          "midi": 62,
          "time": 375.85676700000107,
          "velocity": 0.7559055118110236,
          "duration": 0.10714274999997997
        },
        {
          "name": "D5",
          "midi": 74,
          "time": 375.85676700000107,
          "velocity": 0.7559055118110236,
          "duration": 0.10714274999997997
        },
        {
          "name": "D6",
          "midi": 86,
          "time": 375.85676700000107,
          "velocity": 0.7559055118110236,
          "duration": 0.10714274999997997
        },
        {
          "name": "D7",
          "midi": 98,
          "time": 375.85676700000107,
          "velocity": 0.7559055118110236,
          "duration": 0.10714274999997997
        },
        {
          "name": "D#4",
          "midi": 63,
          "time": 376.07105250000103,
          "velocity": 0.7559055118110236,
          "duration": 0.10714274999997997
        },
        {
          "name": "D#5",
          "midi": 75,
          "time": 376.07105250000103,
          "velocity": 0.7559055118110236,
          "duration": 0.10714274999997997
        },
        {
          "name": "D#6",
          "midi": 87,
          "time": 376.07105250000103,
          "velocity": 0.7559055118110236,
          "duration": 0.10714274999997997
        },
        {
          "name": "D#7",
          "midi": 99,
          "time": 376.07105250000103,
          "velocity": 0.7559055118110236,
          "duration": 0.10714274999997997
        },
        {
          "name": "D#4",
          "midi": 63,
          "time": 376.285338000001,
          "velocity": 0.7559055118110236,
          "duration": 0.10714274999997997
        },
        {
          "name": "D#5",
          "midi": 75,
          "time": 376.285338000001,
          "velocity": 0.7559055118110236,
          "duration": 0.10714274999997997
        },
        {
          "name": "D#6",
          "midi": 87,
          "time": 376.285338000001,
          "velocity": 0.7559055118110236,
          "duration": 0.10714274999997997
        },
        {
          "name": "D#7",
          "midi": 99,
          "time": 376.285338000001,
          "velocity": 0.7559055118110236,
          "duration": 0.10714274999997997
        },
        {
          "name": "D#4",
          "midi": 63,
          "time": 376.49962350000095,
          "velocity": 0.7559055118110236,
          "duration": 0.10714274999997997
        },
        {
          "name": "D#5",
          "midi": 75,
          "time": 376.49962350000095,
          "velocity": 0.7559055118110236,
          "duration": 0.10714274999997997
        },
        {
          "name": "D#6",
          "midi": 87,
          "time": 376.49962350000095,
          "velocity": 0.7559055118110236,
          "duration": 0.10714274999997997
        },
        {
          "name": "D#7",
          "midi": 99,
          "time": 376.49962350000095,
          "velocity": 0.7559055118110236,
          "duration": 0.10714274999997997
        },
        {
          "name": "D#4",
          "midi": 63,
          "time": 376.7139090000009,
          "velocity": 0.7559055118110236,
          "duration": 0.10714274999997997
        },
        {
          "name": "D#5",
          "midi": 75,
          "time": 376.7139090000009,
          "velocity": 0.7559055118110236,
          "duration": 0.10714274999997997
        },
        {
          "name": "D#6",
          "midi": 87,
          "time": 376.7139090000009,
          "velocity": 0.7559055118110236,
          "duration": 0.10714274999997997
        },
        {
          "name": "D#7",
          "midi": 99,
          "time": 376.7139090000009,
          "velocity": 0.7559055118110236,
          "duration": 0.10714274999997997
        },
        {
          "name": "D#4",
          "midi": 63,
          "time": 376.92819450000087,
          "velocity": 0.7559055118110236,
          "duration": 0.10714274999997997
        },
        {
          "name": "D#5",
          "midi": 75,
          "time": 376.92819450000087,
          "velocity": 0.7559055118110236,
          "duration": 0.10714274999997997
        },
        {
          "name": "D#6",
          "midi": 87,
          "time": 376.92819450000087,
          "velocity": 0.7559055118110236,
          "duration": 0.10714274999997997
        },
        {
          "name": "D#7",
          "midi": 99,
          "time": 376.92819450000087,
          "velocity": 0.7559055118110236,
          "duration": 0.10714274999997997
        },
        {
          "name": "E4",
          "midi": 64,
          "time": 377.14248000000083,
          "velocity": 0.7559055118110236,
          "duration": 0.10714274999997997
        },
        {
          "name": "E5",
          "midi": 76,
          "time": 377.14248000000083,
          "velocity": 0.7559055118110236,
          "duration": 0.10714274999997997
        },
        {
          "name": "E6",
          "midi": 88,
          "time": 377.14248000000083,
          "velocity": 0.7559055118110236,
          "duration": 0.10714274999997997
        },
        {
          "name": "E7",
          "midi": 100,
          "time": 377.14248000000083,
          "velocity": 0.7559055118110236,
          "duration": 0.10714274999997997
        },
        {
          "name": "E4",
          "midi": 64,
          "time": 377.3567655000008,
          "velocity": 0.7559055118110236,
          "duration": 0.10714274999997997
        },
        {
          "name": "E5",
          "midi": 76,
          "time": 377.3567655000008,
          "velocity": 0.7559055118110236,
          "duration": 0.10714274999997997
        },
        {
          "name": "E6",
          "midi": 88,
          "time": 377.3567655000008,
          "velocity": 0.7559055118110236,
          "duration": 0.10714274999997997
        },
        {
          "name": "E7",
          "midi": 100,
          "time": 377.3567655000008,
          "velocity": 0.7559055118110236,
          "duration": 0.10714274999997997
        },
        {
          "name": "E4",
          "midi": 64,
          "time": 377.57105100000075,
          "velocity": 0.7559055118110236,
          "duration": 0.10714274999997997
        },
        {
          "name": "E5",
          "midi": 76,
          "time": 377.57105100000075,
          "velocity": 0.7559055118110236,
          "duration": 0.10714274999997997
        },
        {
          "name": "E6",
          "midi": 88,
          "time": 377.57105100000075,
          "velocity": 0.7559055118110236,
          "duration": 0.10714274999997997
        },
        {
          "name": "E7",
          "midi": 100,
          "time": 377.57105100000075,
          "velocity": 0.7559055118110236,
          "duration": 0.10714274999997997
        },
        {
          "name": "E4",
          "midi": 64,
          "time": 377.7853365000007,
          "velocity": 0.7559055118110236,
          "duration": 0.10714274999997997
        },
        {
          "name": "E5",
          "midi": 76,
          "time": 377.7853365000007,
          "velocity": 0.7559055118110236,
          "duration": 0.10714274999997997
        },
        {
          "name": "E6",
          "midi": 88,
          "time": 377.7853365000007,
          "velocity": 0.7559055118110236,
          "duration": 0.10714274999997997
        },
        {
          "name": "E7",
          "midi": 100,
          "time": 377.7853365000007,
          "velocity": 0.7559055118110236,
          "duration": 0.10714274999997997
        },
        {
          "name": "E4",
          "midi": 64,
          "time": 377.99962200000067,
          "velocity": 0.7559055118110236,
          "duration": 0.10714274999997997
        },
        {
          "name": "E5",
          "midi": 76,
          "time": 377.99962200000067,
          "velocity": 0.7559055118110236,
          "duration": 0.10714274999997997
        },
        {
          "name": "E6",
          "midi": 88,
          "time": 377.99962200000067,
          "velocity": 0.7559055118110236,
          "duration": 0.10714274999997997
        },
        {
          "name": "E7",
          "midi": 100,
          "time": 377.99962200000067,
          "velocity": 0.7559055118110236,
          "duration": 0.10714274999997997
        },
        {
          "name": "C#4",
          "midi": 61,
          "time": 378.21390750000063,
          "velocity": 0.7559055118110236,
          "duration": 0.10714274999997997
        },
        {
          "name": "C#5",
          "midi": 73,
          "time": 378.21390750000063,
          "velocity": 0.7559055118110236,
          "duration": 0.10714274999997997
        },
        {
          "name": "C#6",
          "midi": 85,
          "time": 378.21390750000063,
          "velocity": 0.7559055118110236,
          "duration": 0.10714274999997997
        },
        {
          "name": "C#7",
          "midi": 97,
          "time": 378.21390750000063,
          "velocity": 0.7559055118110236,
          "duration": 0.10714274999997997
        },
        {
          "name": "C#4",
          "midi": 61,
          "time": 378.4281930000006,
          "velocity": 0.7559055118110236,
          "duration": 0.10714274999997997
        },
        {
          "name": "C#5",
          "midi": 73,
          "time": 378.4281930000006,
          "velocity": 0.7559055118110236,
          "duration": 0.10714274999997997
        },
        {
          "name": "C#6",
          "midi": 85,
          "time": 378.4281930000006,
          "velocity": 0.7559055118110236,
          "duration": 0.10714274999997997
        },
        {
          "name": "C#7",
          "midi": 97,
          "time": 378.4281930000006,
          "velocity": 0.7559055118110236,
          "duration": 0.10714274999997997
        },
        {
          "name": "C#4",
          "midi": 61,
          "time": 378.64247850000055,
          "velocity": 0.7559055118110236,
          "duration": 0.10714274999997997
        },
        {
          "name": "C#5",
          "midi": 73,
          "time": 378.64247850000055,
          "velocity": 0.7559055118110236,
          "duration": 0.10714274999997997
        },
        {
          "name": "C#6",
          "midi": 85,
          "time": 378.64247850000055,
          "velocity": 0.7559055118110236,
          "duration": 0.10714274999997997
        },
        {
          "name": "C#7",
          "midi": 97,
          "time": 378.64247850000055,
          "velocity": 0.7559055118110236,
          "duration": 0.10714274999997997
        },
        {
          "name": "C#4",
          "midi": 61,
          "time": 378.8567640000005,
          "velocity": 0.7559055118110236,
          "duration": 0.10714274999997997
        },
        {
          "name": "C#5",
          "midi": 73,
          "time": 378.8567640000005,
          "velocity": 0.7559055118110236,
          "duration": 0.10714274999997997
        },
        {
          "name": "C#6",
          "midi": 85,
          "time": 378.8567640000005,
          "velocity": 0.7559055118110236,
          "duration": 0.10714274999997997
        },
        {
          "name": "C#7",
          "midi": 97,
          "time": 378.8567640000005,
          "velocity": 0.7559055118110236,
          "duration": 0.10714274999997997
        },
        {
          "name": "C#4",
          "midi": 61,
          "time": 379.07104950000047,
          "velocity": 0.7559055118110236,
          "duration": 0.10714274999997997
        },
        {
          "name": "C#5",
          "midi": 73,
          "time": 379.07104950000047,
          "velocity": 0.7559055118110236,
          "duration": 0.10714274999997997
        },
        {
          "name": "C#6",
          "midi": 85,
          "time": 379.07104950000047,
          "velocity": 0.7559055118110236,
          "duration": 0.10714274999997997
        },
        {
          "name": "C#7",
          "midi": 97,
          "time": 379.07104950000047,
          "velocity": 0.7559055118110236,
          "duration": 0.10714274999997997
        },
        {
          "name": "D4",
          "midi": 62,
          "time": 379.28533500000043,
          "velocity": 0.7559055118110236,
          "duration": 0.10714274999997997
        },
        {
          "name": "D5",
          "midi": 74,
          "time": 379.28533500000043,
          "velocity": 0.7559055118110236,
          "duration": 0.10714274999997997
        },
        {
          "name": "D6",
          "midi": 86,
          "time": 379.28533500000043,
          "velocity": 0.7559055118110236,
          "duration": 0.10714274999997997
        },
        {
          "name": "D7",
          "midi": 98,
          "time": 379.28533500000043,
          "velocity": 0.7559055118110236,
          "duration": 0.10714274999997997
        },
        {
          "name": "D4",
          "midi": 62,
          "time": 379.4996205000004,
          "velocity": 0.7559055118110236,
          "duration": 0.10714274999997997
        },
        {
          "name": "D5",
          "midi": 74,
          "time": 379.4996205000004,
          "velocity": 0.7559055118110236,
          "duration": 0.10714274999997997
        },
        {
          "name": "D6",
          "midi": 86,
          "time": 379.4996205000004,
          "velocity": 0.7559055118110236,
          "duration": 0.10714274999997997
        },
        {
          "name": "D7",
          "midi": 98,
          "time": 379.4996205000004,
          "velocity": 0.7559055118110236,
          "duration": 0.10714274999997997
        },
        {
          "name": "D4",
          "midi": 62,
          "time": 379.71390600000035,
          "velocity": 0.7559055118110236,
          "duration": 0.10714274999997997
        },
        {
          "name": "D5",
          "midi": 74,
          "time": 379.71390600000035,
          "velocity": 0.7559055118110236,
          "duration": 0.10714274999997997
        },
        {
          "name": "D6",
          "midi": 86,
          "time": 379.71390600000035,
          "velocity": 0.7559055118110236,
          "duration": 0.10714274999997997
        },
        {
          "name": "D7",
          "midi": 98,
          "time": 379.71390600000035,
          "velocity": 0.7559055118110236,
          "duration": 0.10714274999997997
        },
        {
          "name": "D4",
          "midi": 62,
          "time": 379.9281915000003,
          "velocity": 0.7559055118110236,
          "duration": 0.10714274999997997
        },
        {
          "name": "D5",
          "midi": 74,
          "time": 379.9281915000003,
          "velocity": 0.7559055118110236,
          "duration": 0.10714274999997997
        },
        {
          "name": "D6",
          "midi": 86,
          "time": 379.9281915000003,
          "velocity": 0.7559055118110236,
          "duration": 0.10714274999997997
        },
        {
          "name": "D7",
          "midi": 98,
          "time": 379.9281915000003,
          "velocity": 0.7559055118110236,
          "duration": 0.10714274999997997
        },
        {
          "name": "D4",
          "midi": 62,
          "time": 380.14247700000027,
          "velocity": 0.7559055118110236,
          "duration": 0.10714274999997997
        },
        {
          "name": "D5",
          "midi": 74,
          "time": 380.14247700000027,
          "velocity": 0.7559055118110236,
          "duration": 0.10714274999997997
        },
        {
          "name": "D6",
          "midi": 86,
          "time": 380.14247700000027,
          "velocity": 0.7559055118110236,
          "duration": 0.10714274999997997
        },
        {
          "name": "D7",
          "midi": 98,
          "time": 380.14247700000027,
          "velocity": 0.7559055118110236,
          "duration": 0.10714274999997997
        },
        {
          "name": "D#4",
          "midi": 63,
          "time": 380.35676250000023,
          "velocity": 0.7559055118110236,
          "duration": 0.10714274999997997
        },
        {
          "name": "D#5",
          "midi": 75,
          "time": 380.35676250000023,
          "velocity": 0.7559055118110236,
          "duration": 0.10714274999997997
        },
        {
          "name": "D#6",
          "midi": 87,
          "time": 380.35676250000023,
          "velocity": 0.7559055118110236,
          "duration": 0.10714274999997997
        },
        {
          "name": "D#7",
          "midi": 99,
          "time": 380.35676250000023,
          "velocity": 0.7559055118110236,
          "duration": 0.10714274999997997
        },
        {
          "name": "D#4",
          "midi": 63,
          "time": 380.5710480000002,
          "velocity": 0.7559055118110236,
          "duration": 0.10714274999997997
        },
        {
          "name": "D#5",
          "midi": 75,
          "time": 380.5710480000002,
          "velocity": 0.7559055118110236,
          "duration": 0.10714274999997997
        },
        {
          "name": "D#6",
          "midi": 87,
          "time": 380.5710480000002,
          "velocity": 0.7559055118110236,
          "duration": 0.10714274999997997
        },
        {
          "name": "D#7",
          "midi": 99,
          "time": 380.5710480000002,
          "velocity": 0.7559055118110236,
          "duration": 0.10714274999997997
        },
        {
          "name": "D#4",
          "midi": 63,
          "time": 380.78533350000015,
          "velocity": 0.7559055118110236,
          "duration": 0.10714274999997997
        },
        {
          "name": "D#5",
          "midi": 75,
          "time": 380.78533350000015,
          "velocity": 0.7559055118110236,
          "duration": 0.10714274999997997
        },
        {
          "name": "D#6",
          "midi": 87,
          "time": 380.78533350000015,
          "velocity": 0.7559055118110236,
          "duration": 0.10714274999997997
        },
        {
          "name": "D#7",
          "midi": 99,
          "time": 380.78533350000015,
          "velocity": 0.7559055118110236,
          "duration": 0.10714274999997997
        },
        {
          "name": "D#4",
          "midi": 63,
          "time": 380.9996190000001,
          "velocity": 0.7559055118110236,
          "duration": 0.10714274999997997
        },
        {
          "name": "D#5",
          "midi": 75,
          "time": 380.9996190000001,
          "velocity": 0.7559055118110236,
          "duration": 0.10714274999997997
        },
        {
          "name": "D#6",
          "midi": 87,
          "time": 380.9996190000001,
          "velocity": 0.7559055118110236,
          "duration": 0.10714274999997997
        },
        {
          "name": "D#7",
          "midi": 99,
          "time": 380.9996190000001,
          "velocity": 0.7559055118110236,
          "duration": 0.10714274999997997
        },
        {
          "name": "D#4",
          "midi": 63,
          "time": 381.21390450000007,
          "velocity": 0.7559055118110236,
          "duration": 0.10714274999997997
        },
        {
          "name": "D#5",
          "midi": 75,
          "time": 381.21390450000007,
          "velocity": 0.7559055118110236,
          "duration": 0.10714274999997997
        },
        {
          "name": "D#6",
          "midi": 87,
          "time": 381.21390450000007,
          "velocity": 0.7559055118110236,
          "duration": 0.10714274999997997
        },
        {
          "name": "D#7",
          "midi": 99,
          "time": 381.21390450000007,
          "velocity": 0.7559055118110236,
          "duration": 0.10714274999997997
        },
        {
          "name": "E4",
          "midi": 64,
          "time": 381.42819000000003,
          "velocity": 0.7559055118110236,
          "duration": 0.10714274999997997
        },
        {
          "name": "E5",
          "midi": 76,
          "time": 381.42819000000003,
          "velocity": 0.7559055118110236,
          "duration": 0.10714274999997997
        },
        {
          "name": "E6",
          "midi": 88,
          "time": 381.42819000000003,
          "velocity": 0.7559055118110236,
          "duration": 0.10714274999997997
        },
        {
          "name": "E7",
          "midi": 100,
          "time": 381.42819000000003,
          "velocity": 0.7559055118110236,
          "duration": 0.10714274999997997
        },
        {
          "name": "E4",
          "midi": 64,
          "time": 381.6424755,
          "velocity": 0.7559055118110236,
          "duration": 0.10714274999997997
        },
        {
          "name": "E5",
          "midi": 76,
          "time": 381.6424755,
          "velocity": 0.7559055118110236,
          "duration": 0.10714274999997997
        },
        {
          "name": "E6",
          "midi": 88,
          "time": 381.6424755,
          "velocity": 0.7559055118110236,
          "duration": 0.10714274999997997
        },
        {
          "name": "E7",
          "midi": 100,
          "time": 381.6424755,
          "velocity": 0.7559055118110236,
          "duration": 0.10714274999997997
        },
        {
          "name": "E4",
          "midi": 64,
          "time": 381.85676099999995,
          "velocity": 0.7559055118110236,
          "duration": 0.10714274999997997
        },
        {
          "name": "E5",
          "midi": 76,
          "time": 381.85676099999995,
          "velocity": 0.7559055118110236,
          "duration": 0.10714274999997997
        },
        {
          "name": "E6",
          "midi": 88,
          "time": 381.85676099999995,
          "velocity": 0.7559055118110236,
          "duration": 0.10714274999997997
        },
        {
          "name": "E7",
          "midi": 100,
          "time": 381.85676099999995,
          "velocity": 0.7559055118110236,
          "duration": 0.10714274999997997
        },
        {
          "name": "E4",
          "midi": 64,
          "time": 382.0710464999999,
          "velocity": 0.7559055118110236,
          "duration": 0.10714274999997997
        },
        {
          "name": "E5",
          "midi": 76,
          "time": 382.0710464999999,
          "velocity": 0.7559055118110236,
          "duration": 0.10714274999997997
        },
        {
          "name": "E6",
          "midi": 88,
          "time": 382.0710464999999,
          "velocity": 0.7559055118110236,
          "duration": 0.10714274999997997
        },
        {
          "name": "E7",
          "midi": 100,
          "time": 382.0710464999999,
          "velocity": 0.7559055118110236,
          "duration": 0.10714274999997997
        },
        {
          "name": "E4",
          "midi": 64,
          "time": 382.28533199999987,
          "velocity": 0.7559055118110236,
          "duration": 0.10714274999997997
        },
        {
          "name": "E5",
          "midi": 76,
          "time": 382.28533199999987,
          "velocity": 0.7559055118110236,
          "duration": 0.10714274999997997
        },
        {
          "name": "E6",
          "midi": 88,
          "time": 382.28533199999987,
          "velocity": 0.7559055118110236,
          "duration": 0.10714274999997997
        },
        {
          "name": "E7",
          "midi": 100,
          "time": 382.28533199999987,
          "velocity": 0.7559055118110236,
          "duration": 0.10714274999997997
        },
        {
          "name": "E4",
          "midi": 64,
          "time": 382.49961749999983,
          "velocity": 0.7559055118110236,
          "duration": 0.10714274999997997
        },
        {
          "name": "E5",
          "midi": 76,
          "time": 382.49961749999983,
          "velocity": 0.7559055118110236,
          "duration": 0.10714274999997997
        },
        {
          "name": "E6",
          "midi": 88,
          "time": 382.49961749999983,
          "velocity": 0.7559055118110236,
          "duration": 0.10714274999997997
        },
        {
          "name": "E7",
          "midi": 100,
          "time": 382.49961749999983,
          "velocity": 0.7559055118110236,
          "duration": 0.10714274999997997
        },
        {
          "name": "E4",
          "midi": 64,
          "time": 382.7139029999998,
          "velocity": 0.7559055118110236,
          "duration": 0.10714274999997997
        },
        {
          "name": "E5",
          "midi": 76,
          "time": 382.7139029999998,
          "velocity": 0.7559055118110236,
          "duration": 0.10714274999997997
        },
        {
          "name": "E6",
          "midi": 88,
          "time": 382.7139029999998,
          "velocity": 0.7559055118110236,
          "duration": 0.10714274999997997
        },
        {
          "name": "E7",
          "midi": 100,
          "time": 382.7139029999998,
          "velocity": 0.7559055118110236,
          "duration": 0.10714274999997997
        },
        {
          "name": "E4",
          "midi": 64,
          "time": 382.92818849999975,
          "velocity": 0.7559055118110236,
          "duration": 0.10714274999997997
        },
        {
          "name": "E5",
          "midi": 76,
          "time": 382.92818849999975,
          "velocity": 0.7559055118110236,
          "duration": 0.10714274999997997
        },
        {
          "name": "E6",
          "midi": 88,
          "time": 382.92818849999975,
          "velocity": 0.7559055118110236,
          "duration": 0.10714274999997997
        },
        {
          "name": "E7",
          "midi": 100,
          "time": 382.92818849999975,
          "velocity": 0.7559055118110236,
          "duration": 0.10714274999997997
        },
        {
          "name": "E4",
          "midi": 64,
          "time": 383.1424739999997,
          "velocity": 0.7559055118110236,
          "duration": 0.10714274999997997
        },
        {
          "name": "E5",
          "midi": 76,
          "time": 383.1424739999997,
          "velocity": 0.7559055118110236,
          "duration": 0.10714274999997997
        },
        {
          "name": "E6",
          "midi": 88,
          "time": 383.1424739999997,
          "velocity": 0.7559055118110236,
          "duration": 0.10714274999997997
        },
        {
          "name": "E7",
          "midi": 100,
          "time": 383.1424739999997,
          "velocity": 0.7559055118110236,
          "duration": 0.10714274999997997
        },
        {
          "name": "E4",
          "midi": 64,
          "time": 383.35675949999967,
          "velocity": 0.7559055118110236,
          "duration": 0.10714274999997997
        },
        {
          "name": "E5",
          "midi": 76,
          "time": 383.35675949999967,
          "velocity": 0.7559055118110236,
          "duration": 0.10714274999997997
        },
        {
          "name": "E6",
          "midi": 88,
          "time": 383.35675949999967,
          "velocity": 0.7559055118110236,
          "duration": 0.10714274999997997
        },
        {
          "name": "E7",
          "midi": 100,
          "time": 383.35675949999967,
          "velocity": 0.7559055118110236,
          "duration": 0.10714274999997997
        },
        {
          "name": "E4",
          "midi": 64,
          "time": 383.57104499999963,
          "velocity": 0.7559055118110236,
          "duration": 0.10714274999997997
        },
        {
          "name": "E5",
          "midi": 76,
          "time": 383.57104499999963,
          "velocity": 0.7559055118110236,
          "duration": 0.10714274999997997
        },
        {
          "name": "E6",
          "midi": 88,
          "time": 383.57104499999963,
          "velocity": 0.7559055118110236,
          "duration": 0.10714274999997997
        },
        {
          "name": "E7",
          "midi": 100,
          "time": 383.57104499999963,
          "velocity": 0.7559055118110236,
          "duration": 0.10714274999997997
        },
        {
          "name": "E4",
          "midi": 64,
          "time": 383.7853304999996,
          "velocity": 0.7559055118110236,
          "duration": 0.10714274999997997
        },
        {
          "name": "E5",
          "midi": 76,
          "time": 383.7853304999996,
          "velocity": 0.7559055118110236,
          "duration": 0.10714274999997997
        },
        {
          "name": "E6",
          "midi": 88,
          "time": 383.7853304999996,
          "velocity": 0.7559055118110236,
          "duration": 0.10714274999997997
        },
        {
          "name": "E7",
          "midi": 100,
          "time": 383.7853304999996,
          "velocity": 0.7559055118110236,
          "duration": 0.10714274999997997
        },
        {
          "name": "E4",
          "midi": 64,
          "time": 383.89247324999957,
          "velocity": 0.7559055118110236,
          "duration": 0.10714274999997997
        },
        {
          "name": "E5",
          "midi": 76,
          "time": 383.89247324999957,
          "velocity": 0.7559055118110236,
          "duration": 0.10714274999997997
        },
        {
          "name": "E6",
          "midi": 88,
          "time": 383.89247324999957,
          "velocity": 0.7559055118110236,
          "duration": 0.10714274999997997
        },
        {
          "name": "E7",
          "midi": 100,
          "time": 383.89247324999957,
          "velocity": 0.7559055118110236,
          "duration": 0.10714274999997997
        },
        {
          "name": "D4",
          "midi": 62,
          "time": 383.99961599999955,
          "velocity": 0.7559055118110236,
          "duration": 0.9642847499999903
        },
        {
          "name": "D5",
          "midi": 74,
          "time": 383.99961599999955,
          "velocity": 0.7559055118110236,
          "duration": 0.9642847499999903
        },
        {
          "name": "D6",
          "midi": 86,
          "time": 383.99961599999955,
          "velocity": 0.7559055118110236,
          "duration": 0.9642847499999903
        },
        {
          "name": "D7",
          "midi": 98,
          "time": 383.99961599999955,
          "velocity": 0.7559055118110236,
          "duration": 0.9642847499999903
        },
        {
          "name": "C#4",
          "midi": 61,
          "time": 384.96390074999954,
          "velocity": 0.7480314960629921,
          "duration": 1.285712999999987
        },
        {
          "name": "C#5",
          "midi": 73,
          "time": 384.96390074999954,
          "velocity": 0.7480314960629921,
          "duration": 1.285712999999987
        },
        {
          "name": "C#6",
          "midi": 85,
          "time": 384.96390074999954,
          "velocity": 0.7480314960629921,
          "duration": 1.285712999999987
        },
        {
          "name": "C#7",
          "midi": 97,
          "time": 384.96390074999954,
          "velocity": 0.7480314960629921,
          "duration": 1.285712999999987
        },
        {
          "name": "D4",
          "midi": 62,
          "time": 386.6781847499995,
          "velocity": 0.7480314960629921,
          "duration": 0.21428550000001678
        },
        {
          "name": "D5",
          "midi": 74,
          "time": 386.6781847499995,
          "velocity": 0.7480314960629921,
          "duration": 0.21428550000001678
        },
        {
          "name": "D6",
          "midi": 86,
          "time": 386.6781847499995,
          "velocity": 0.7480314960629921,
          "duration": 0.21428550000001678
        },
        {
          "name": "D7",
          "midi": 98,
          "time": 386.6781847499995,
          "velocity": 0.7480314960629921,
          "duration": 0.21428550000001678
        },
        {
          "name": "C#4",
          "midi": 61,
          "time": 386.8924702499995,
          "velocity": 0.7480314960629921,
          "duration": 0.21428550000001678
        },
        {
          "name": "C#5",
          "midi": 73,
          "time": 386.8924702499995,
          "velocity": 0.7480314960629921,
          "duration": 0.21428550000001678
        },
        {
          "name": "C#6",
          "midi": 85,
          "time": 386.8924702499995,
          "velocity": 0.7480314960629921,
          "duration": 0.21428550000001678
        },
        {
          "name": "C#7",
          "midi": 97,
          "time": 386.8924702499995,
          "velocity": 0.7480314960629921,
          "duration": 0.21428550000001678
        },
        {
          "name": "D4",
          "midi": 62,
          "time": 387.10675574999954,
          "velocity": 0.7480314960629921,
          "duration": 0.21428550000001678
        },
        {
          "name": "D5",
          "midi": 74,
          "time": 387.10675574999954,
          "velocity": 0.7480314960629921,
          "duration": 0.21428550000001678
        },
        {
          "name": "D6",
          "midi": 86,
          "time": 387.10675574999954,
          "velocity": 0.7480314960629921,
          "duration": 0.21428550000001678
        },
        {
          "name": "D7",
          "midi": 98,
          "time": 387.10675574999954,
          "velocity": 0.7480314960629921,
          "duration": 0.21428550000001678
        },
        {
          "name": "D#4",
          "midi": 63,
          "time": 387.32104124999955,
          "velocity": 0.7480314960629921,
          "duration": 0.21428550000001678
        },
        {
          "name": "D#5",
          "midi": 75,
          "time": 387.32104124999955,
          "velocity": 0.7480314960629921,
          "duration": 0.21428550000001678
        },
        {
          "name": "D#6",
          "midi": 87,
          "time": 387.32104124999955,
          "velocity": 0.7480314960629921,
          "duration": 0.21428550000001678
        },
        {
          "name": "D#7",
          "midi": 99,
          "time": 387.32104124999955,
          "velocity": 0.7480314960629921,
          "duration": 0.21428550000001678
        },
        {
          "name": "E4",
          "midi": 64,
          "time": 387.53532674999957,
          "velocity": 0.7480314960629921,
          "duration": 0.8571420000000103
        },
        {
          "name": "E5",
          "midi": 76,
          "time": 387.53532674999957,
          "velocity": 0.7480314960629921,
          "duration": 0.8571420000000103
        },
        {
          "name": "E6",
          "midi": 88,
          "time": 387.53532674999957,
          "velocity": 0.7480314960629921,
          "duration": 0.8571420000000103
        },
        {
          "name": "E7",
          "midi": 100,
          "time": 387.53532674999957,
          "velocity": 0.7480314960629921,
          "duration": 0.8571420000000103
        },
        {
          "name": "D#4",
          "midi": 63,
          "time": 388.3924687499996,
          "velocity": 0.7480314960629921,
          "duration": 0.8571420000000103
        },
        {
          "name": "D#5",
          "midi": 75,
          "time": 388.3924687499996,
          "velocity": 0.7480314960629921,
          "duration": 0.8571420000000103
        },
        {
          "name": "D#6",
          "midi": 87,
          "time": 388.3924687499996,
          "velocity": 0.7480314960629921,
          "duration": 0.8571420000000103
        },
        {
          "name": "D#7",
          "midi": 99,
          "time": 388.3924687499996,
          "velocity": 0.7480314960629921,
          "duration": 0.8571420000000103
        },
        {
          "name": "D4",
          "midi": 62,
          "time": 389.2496107499996,
          "velocity": 0.2440944881889764,
          "duration": 1.285712999999987
        },
        {
          "name": "E4",
          "midi": 64,
          "time": 389.2496107499996,
          "velocity": 0.7480314960629921,
          "duration": 1.285712999999987
        },
        {
          "name": "D5",
          "midi": 74,
          "time": 389.2496107499996,
          "velocity": 0.2440944881889764,
          "duration": 1.285712999999987
        },
        {
          "name": "E5",
          "midi": 76,
          "time": 389.2496107499996,
          "velocity": 0.7480314960629921,
          "duration": 1.285712999999987
        },
        {
          "name": "D6",
          "midi": 86,
          "time": 389.2496107499996,
          "velocity": 0.2440944881889764,
          "duration": 1.285712999999987
        },
        {
          "name": "E6",
          "midi": 88,
          "time": 389.2496107499996,
          "velocity": 0.7480314960629921,
          "duration": 1.285712999999987
        },
        {
          "name": "D7",
          "midi": 98,
          "time": 389.2496107499996,
          "velocity": 0.2440944881889764,
          "duration": 1.285712999999987
        },
        {
          "name": "E7",
          "midi": 100,
          "time": 389.2496107499996,
          "velocity": 0.7480314960629921,
          "duration": 1.285712999999987
        },
        {
          "name": "C#4",
          "midi": 61,
          "time": 390.5353237499996,
          "velocity": 0.7480314960629921,
          "duration": 0.21428550000001678
        },
        {
          "name": "C#5",
          "midi": 73,
          "time": 390.5353237499996,
          "velocity": 0.7480314960629921,
          "duration": 0.21428550000001678
        },
        {
          "name": "C#6",
          "midi": 85,
          "time": 390.5353237499996,
          "velocity": 0.7480314960629921,
          "duration": 0.21428550000001678
        },
        {
          "name": "C#7",
          "midi": 97,
          "time": 390.5353237499996,
          "velocity": 0.7480314960629921,
          "duration": 0.21428550000001678
        },
        {
          "name": "D#4",
          "midi": 63,
          "time": 390.7496092499996,
          "velocity": 0.7480314960629921,
          "duration": 0.21428550000001678
        },
        {
          "name": "D#5",
          "midi": 75,
          "time": 390.7496092499996,
          "velocity": 0.7480314960629921,
          "duration": 0.21428550000001678
        },
        {
          "name": "D#6",
          "midi": 87,
          "time": 390.7496092499996,
          "velocity": 0.7480314960629921,
          "duration": 0.21428550000001678
        },
        {
          "name": "D#7",
          "midi": 99,
          "time": 390.7496092499996,
          "velocity": 0.7480314960629921,
          "duration": 0.21428550000001678
        },
        {
          "name": "E4",
          "midi": 64,
          "time": 390.9638947499996,
          "velocity": 0.7480314960629921,
          "duration": 0.8571420000000103
        },
        {
          "name": "E5",
          "midi": 76,
          "time": 390.9638947499996,
          "velocity": 0.7480314960629921,
          "duration": 0.8571420000000103
        },
        {
          "name": "E6",
          "midi": 88,
          "time": 390.9638947499996,
          "velocity": 0.7480314960629921,
          "duration": 0.8571420000000103
        },
        {
          "name": "E7",
          "midi": 100,
          "time": 390.9638947499996,
          "velocity": 0.7480314960629921,
          "duration": 0.8571420000000103
        },
        {
          "name": "D#4",
          "midi": 63,
          "time": 391.8210367499996,
          "velocity": 0.7480314960629921,
          "duration": 0.4285709999999767
        },
        {
          "name": "D#5",
          "midi": 75,
          "time": 391.8210367499996,
          "velocity": 0.7480314960629921,
          "duration": 0.4285709999999767
        },
        {
          "name": "D#6",
          "midi": 87,
          "time": 391.8210367499996,
          "velocity": 0.7480314960629921,
          "duration": 0.4285709999999767
        },
        {
          "name": "D#7",
          "midi": 99,
          "time": 391.8210367499996,
          "velocity": 0.7480314960629921,
          "duration": 0.4285709999999767
        },
        {
          "name": "D4",
          "midi": 62,
          "time": 392.2496077499996,
          "velocity": 0.7480314960629921,
          "duration": 0.21428550000001678
        },
        {
          "name": "D5",
          "midi": 74,
          "time": 392.2496077499996,
          "velocity": 0.7480314960629921,
          "duration": 0.21428550000001678
        },
        {
          "name": "D6",
          "midi": 86,
          "time": 392.2496077499996,
          "velocity": 0.7480314960629921,
          "duration": 0.21428550000001678
        },
        {
          "name": "D7",
          "midi": 98,
          "time": 392.2496077499996,
          "velocity": 0.7480314960629921,
          "duration": 0.21428550000001678
        },
        {
          "name": "C#4",
          "midi": 61,
          "time": 392.4638932499996,
          "velocity": 0.7480314960629921,
          "duration": 0.21428550000001678
        },
        {
          "name": "C#5",
          "midi": 73,
          "time": 392.4638932499996,
          "velocity": 0.7480314960629921,
          "duration": 0.21428550000001678
        },
        {
          "name": "C#6",
          "midi": 85,
          "time": 392.4638932499996,
          "velocity": 0.7480314960629921,
          "duration": 0.21428550000001678
        },
        {
          "name": "C#7",
          "midi": 97,
          "time": 392.4638932499996,
          "velocity": 0.7480314960629921,
          "duration": 0.21428550000001678
        },
        {
          "name": "D4",
          "midi": 62,
          "time": 392.67817874999963,
          "velocity": 0.7480314960629921,
          "duration": 1.071427500000027
        },
        {
          "name": "D5",
          "midi": 74,
          "time": 392.67817874999963,
          "velocity": 0.7480314960629921,
          "duration": 1.071427500000027
        },
        {
          "name": "D6",
          "midi": 86,
          "time": 392.67817874999963,
          "velocity": 0.7480314960629921,
          "duration": 1.071427500000027
        },
        {
          "name": "D7",
          "midi": 98,
          "time": 392.67817874999963,
          "velocity": 0.7480314960629921,
          "duration": 1.071427500000027
        },
        {
          "name": "C#4",
          "midi": 61,
          "time": 393.74960624999966,
          "velocity": 0.7480314960629921,
          "duration": 0.21428550000001678
        },
        {
          "name": "C#5",
          "midi": 73,
          "time": 393.74960624999966,
          "velocity": 0.7480314960629921,
          "duration": 0.21428550000001678
        },
        {
          "name": "C#6",
          "midi": 85,
          "time": 393.74960624999966,
          "velocity": 0.7480314960629921,
          "duration": 0.21428550000001678
        },
        {
          "name": "C#7",
          "midi": 97,
          "time": 393.74960624999966,
          "velocity": 0.7480314960629921,
          "duration": 0.21428550000001678
        },
        {
          "name": "D4",
          "midi": 62,
          "time": 393.9638917499997,
          "velocity": 0.7480314960629921,
          "duration": 0.21428550000001678
        },
        {
          "name": "D5",
          "midi": 74,
          "time": 393.9638917499997,
          "velocity": 0.7480314960629921,
          "duration": 0.21428550000001678
        },
        {
          "name": "D6",
          "midi": 86,
          "time": 393.9638917499997,
          "velocity": 0.7480314960629921,
          "duration": 0.21428550000001678
        },
        {
          "name": "D7",
          "midi": 98,
          "time": 393.9638917499997,
          "velocity": 0.7480314960629921,
          "duration": 0.21428550000001678
        },
        {
          "name": "D#4",
          "midi": 63,
          "time": 394.1781772499997,
          "velocity": 0.7480314960629921,
          "duration": 0.21428550000001678
        },
        {
          "name": "D#5",
          "midi": 75,
          "time": 394.1781772499997,
          "velocity": 0.7480314960629921,
          "duration": 0.21428550000001678
        },
        {
          "name": "D#6",
          "midi": 87,
          "time": 394.1781772499997,
          "velocity": 0.7480314960629921,
          "duration": 0.21428550000001678
        },
        {
          "name": "D#7",
          "midi": 99,
          "time": 394.1781772499997,
          "velocity": 0.7480314960629921,
          "duration": 0.21428550000001678
        },
        {
          "name": "E4",
          "midi": 64,
          "time": 394.3924627499997,
          "velocity": 0.7480314960629921,
          "duration": 0.4285709999999767
        },
        {
          "name": "E5",
          "midi": 76,
          "time": 394.3924627499997,
          "velocity": 0.7480314960629921,
          "duration": 0.4285709999999767
        },
        {
          "name": "E6",
          "midi": 88,
          "time": 394.3924627499997,
          "velocity": 0.7480314960629921,
          "duration": 0.4285709999999767
        },
        {
          "name": "E7",
          "midi": 100,
          "time": 394.3924627499997,
          "velocity": 0.7480314960629921,
          "duration": 0.4285709999999767
        },
        {
          "name": "D#4",
          "midi": 63,
          "time": 394.8210337499997,
          "velocity": 0.7480314960629921,
          "duration": 0.21428550000001678
        },
        {
          "name": "D#5",
          "midi": 75,
          "time": 394.8210337499997,
          "velocity": 0.7480314960629921,
          "duration": 0.21428550000001678
        },
        {
          "name": "D#6",
          "midi": 87,
          "time": 394.8210337499997,
          "velocity": 0.7480314960629921,
          "duration": 0.21428550000001678
        },
        {
          "name": "D#7",
          "midi": 99,
          "time": 394.8210337499997,
          "velocity": 0.7480314960629921,
          "duration": 0.21428550000001678
        },
        {
          "name": "E4",
          "midi": 64,
          "time": 395.0353192499997,
          "velocity": 0.7480314960629921,
          "duration": 0.4285709999999767
        },
        {
          "name": "E5",
          "midi": 76,
          "time": 395.0353192499997,
          "velocity": 0.7480314960629921,
          "duration": 0.4285709999999767
        },
        {
          "name": "E6",
          "midi": 88,
          "time": 395.0353192499997,
          "velocity": 0.7480314960629921,
          "duration": 0.4285709999999767
        },
        {
          "name": "E7",
          "midi": 100,
          "time": 395.0353192499997,
          "velocity": 0.7480314960629921,
          "duration": 0.4285709999999767
        },
        {
          "name": "D#4",
          "midi": 63,
          "time": 395.4638902499997,
          "velocity": 0.7480314960629921,
          "duration": 0.21428550000001678
        },
        {
          "name": "D#5",
          "midi": 75,
          "time": 395.4638902499997,
          "velocity": 0.7480314960629921,
          "duration": 0.21428550000001678
        },
        {
          "name": "D#6",
          "midi": 87,
          "time": 395.4638902499997,
          "velocity": 0.7480314960629921,
          "duration": 0.21428550000001678
        },
        {
          "name": "D#7",
          "midi": 99,
          "time": 395.4638902499997,
          "velocity": 0.7480314960629921,
          "duration": 0.21428550000001678
        },
        {
          "name": "E4",
          "midi": 64,
          "time": 395.6781757499997,
          "velocity": 0.7480314960629921,
          "duration": 0.4285709999999767
        },
        {
          "name": "E5",
          "midi": 76,
          "time": 395.6781757499997,
          "velocity": 0.7480314960629921,
          "duration": 0.4285709999999767
        },
        {
          "name": "E6",
          "midi": 88,
          "time": 395.6781757499997,
          "velocity": 0.7480314960629921,
          "duration": 0.4285709999999767
        },
        {
          "name": "E7",
          "midi": 100,
          "time": 395.6781757499997,
          "velocity": 0.7480314960629921,
          "duration": 0.4285709999999767
        },
        {
          "name": "D#4",
          "midi": 63,
          "time": 396.1067467499997,
          "velocity": 0.7480314960629921,
          "duration": 0.21428550000001678
        },
        {
          "name": "D#5",
          "midi": 75,
          "time": 396.1067467499997,
          "velocity": 0.7480314960629921,
          "duration": 0.21428550000001678
        },
        {
          "name": "D#6",
          "midi": 87,
          "time": 396.1067467499997,
          "velocity": 0.7480314960629921,
          "duration": 0.21428550000001678
        },
        {
          "name": "D#7",
          "midi": 99,
          "time": 396.1067467499997,
          "velocity": 0.7480314960629921,
          "duration": 0.21428550000001678
        },
        {
          "name": "E4",
          "midi": 64,
          "time": 396.3210322499997,
          "velocity": 0.7480314960629921,
          "duration": 0.4285709999999767
        },
        {
          "name": "E5",
          "midi": 76,
          "time": 396.3210322499997,
          "velocity": 0.7480314960629921,
          "duration": 0.4285709999999767
        },
        {
          "name": "E6",
          "midi": 88,
          "time": 396.3210322499997,
          "velocity": 0.7480314960629921,
          "duration": 0.4285709999999767
        },
        {
          "name": "E7",
          "midi": 100,
          "time": 396.3210322499997,
          "velocity": 0.7480314960629921,
          "duration": 0.4285709999999767
        },
        {
          "name": "D#4",
          "midi": 63,
          "time": 396.74960324999967,
          "velocity": 0.7480314960629921,
          "duration": 0.21428550000001678
        },
        {
          "name": "D#5",
          "midi": 75,
          "time": 396.74960324999967,
          "velocity": 0.7480314960629921,
          "duration": 0.21428550000001678
        },
        {
          "name": "D#6",
          "midi": 87,
          "time": 396.74960324999967,
          "velocity": 0.7480314960629921,
          "duration": 0.21428550000001678
        },
        {
          "name": "D#7",
          "midi": 99,
          "time": 396.74960324999967,
          "velocity": 0.7480314960629921,
          "duration": 0.21428550000001678
        },
        {
          "name": "E4",
          "midi": 64,
          "time": 396.9638887499997,
          "velocity": 0.7480314960629921,
          "duration": 0.4285709999999767
        },
        {
          "name": "E5",
          "midi": 76,
          "time": 396.9638887499997,
          "velocity": 0.7480314960629921,
          "duration": 0.4285709999999767
        },
        {
          "name": "E6",
          "midi": 88,
          "time": 396.9638887499997,
          "velocity": 0.7480314960629921,
          "duration": 0.4285709999999767
        },
        {
          "name": "E7",
          "midi": 100,
          "time": 396.9638887499997,
          "velocity": 0.7480314960629921,
          "duration": 0.4285709999999767
        },
        {
          "name": "C#4",
          "midi": 61,
          "time": 397.39245974999966,
          "velocity": 0.7480314960629921,
          "duration": 0.21428550000001678
        },
        {
          "name": "C#5",
          "midi": 73,
          "time": 397.39245974999966,
          "velocity": 0.7480314960629921,
          "duration": 0.21428550000001678
        },
        {
          "name": "C#6",
          "midi": 85,
          "time": 397.39245974999966,
          "velocity": 0.7480314960629921,
          "duration": 0.21428550000001678
        },
        {
          "name": "C#7",
          "midi": 97,
          "time": 397.39245974999966,
          "velocity": 0.7480314960629921,
          "duration": 0.21428550000001678
        },
        {
          "name": "D#4",
          "midi": 63,
          "time": 397.6067452499997,
          "velocity": 0.7480314960629921,
          "duration": 0.21428550000001678
        },
        {
          "name": "D#5",
          "midi": 75,
          "time": 397.6067452499997,
          "velocity": 0.7480314960629921,
          "duration": 0.21428550000001678
        },
        {
          "name": "D#6",
          "midi": 87,
          "time": 397.6067452499997,
          "velocity": 0.7480314960629921,
          "duration": 0.21428550000001678
        },
        {
          "name": "D#7",
          "midi": 99,
          "time": 397.6067452499997,
          "velocity": 0.7480314960629921,
          "duration": 0.21428550000001678
        },
        {
          "name": "E4",
          "midi": 64,
          "time": 397.8210307499997,
          "velocity": 0.7480314960629921,
          "duration": 0.8571420000000103
        },
        {
          "name": "E5",
          "midi": 76,
          "time": 397.8210307499997,
          "velocity": 0.7480314960629921,
          "duration": 0.8571420000000103
        },
        {
          "name": "E6",
          "midi": 88,
          "time": 397.8210307499997,
          "velocity": 0.7480314960629921,
          "duration": 0.8571420000000103
        },
        {
          "name": "E7",
          "midi": 100,
          "time": 397.8210307499997,
          "velocity": 0.7480314960629921,
          "duration": 0.8571420000000103
        },
        {
          "name": "C4",
          "midi": 60,
          "time": 398.6781727499997,
          "velocity": 0.7480314960629921,
          "duration": 0.8571420000000103
        },
        {
          "name": "C5",
          "midi": 72,
          "time": 398.6781727499997,
          "velocity": 0.7480314960629921,
          "duration": 0.8571420000000103
        },
        {
          "name": "C6",
          "midi": 84,
          "time": 398.6781727499997,
          "velocity": 0.7480314960629921,
          "duration": 0.8571420000000103
        },
        {
          "name": "C7",
          "midi": 96,
          "time": 398.6781727499997,
          "velocity": 0.7480314960629921,
          "duration": 0.8571420000000103
        },
        {
          "name": "C4",
          "midi": 60,
          "time": 399.5353147499997,
          "velocity": 0.7480314960629921,
          "duration": 1.7142840000000206
        },
        {
          "name": "C5",
          "midi": 72,
          "time": 399.5353147499997,
          "velocity": 0.7480314960629921,
          "duration": 1.7142840000000206
        },
        {
          "name": "C6",
          "midi": 84,
          "time": 399.5353147499997,
          "velocity": 0.7480314960629921,
          "duration": 1.7142840000000206
        },
        {
          "name": "C7",
          "midi": 96,
          "time": 399.5353147499997,
          "velocity": 0.7480314960629921,
          "duration": 1.7142840000000206
        },
        {
          "name": "C#4",
          "midi": 61,
          "time": 401.24959874999973,
          "velocity": 0.7480314960629921,
          "duration": 1.7142840000000206
        },
        {
          "name": "C#5",
          "midi": 73,
          "time": 401.24959874999973,
          "velocity": 0.7480314960629921,
          "duration": 1.7142840000000206
        },
        {
          "name": "C#6",
          "midi": 85,
          "time": 401.24959874999973,
          "velocity": 0.7480314960629921,
          "duration": 1.7142840000000206
        },
        {
          "name": "C#7",
          "midi": 97,
          "time": 401.24959874999973,
          "velocity": 0.7480314960629921,
          "duration": 1.7142840000000206
        },
        {
          "name": "D4",
          "midi": 62,
          "time": 402.96388274999975,
          "velocity": 0.7480314960629921,
          "duration": 1.7142840000000206
        },
        {
          "name": "D5",
          "midi": 74,
          "time": 402.96388274999975,
          "velocity": 0.7480314960629921,
          "duration": 1.7142840000000206
        },
        {
          "name": "D6",
          "midi": 86,
          "time": 402.96388274999975,
          "velocity": 0.7480314960629921,
          "duration": 1.7142840000000206
        },
        {
          "name": "D7",
          "midi": 98,
          "time": 402.96388274999975,
          "velocity": 0.7480314960629921,
          "duration": 1.7142840000000206
        },
        {
          "name": "D#4",
          "midi": 63,
          "time": 404.6781667499998,
          "velocity": 0.7480314960629921,
          "duration": 0.4285709999999767
        },
        {
          "name": "D#5",
          "midi": 75,
          "time": 404.6781667499998,
          "velocity": 0.7480314960629921,
          "duration": 0.4285709999999767
        },
        {
          "name": "D#6",
          "midi": 87,
          "time": 404.6781667499998,
          "velocity": 0.7480314960629921,
          "duration": 0.4285709999999767
        },
        {
          "name": "D#7",
          "midi": 99,
          "time": 404.6781667499998,
          "velocity": 0.7480314960629921,
          "duration": 0.4285709999999767
        },
        {
          "name": "C#4",
          "midi": 61,
          "time": 405.10673774999975,
          "velocity": 0.7480314960629921,
          "duration": 0.21428550000001678
        },
        {
          "name": "C#5",
          "midi": 73,
          "time": 405.10673774999975,
          "velocity": 0.7480314960629921,
          "duration": 0.21428550000001678
        },
        {
          "name": "C#6",
          "midi": 85,
          "time": 405.10673774999975,
          "velocity": 0.7480314960629921,
          "duration": 0.21428550000001678
        },
        {
          "name": "C#7",
          "midi": 97,
          "time": 405.10673774999975,
          "velocity": 0.7480314960629921,
          "duration": 0.21428550000001678
        },
        {
          "name": "D#4",
          "midi": 63,
          "time": 405.32102324999977,
          "velocity": 0.7480314960629921,
          "duration": 0.4285709999999767
        },
        {
          "name": "D#5",
          "midi": 75,
          "time": 405.32102324999977,
          "velocity": 0.7480314960629921,
          "duration": 0.4285709999999767
        },
        {
          "name": "D#6",
          "midi": 87,
          "time": 405.32102324999977,
          "velocity": 0.7480314960629921,
          "duration": 0.4285709999999767
        },
        {
          "name": "D#7",
          "midi": 99,
          "time": 405.32102324999977,
          "velocity": 0.7480314960629921,
          "duration": 0.4285709999999767
        },
        {
          "name": "C#4",
          "midi": 61,
          "time": 405.74959424999975,
          "velocity": 0.7480314960629921,
          "duration": 0.21428550000001678
        },
        {
          "name": "C#5",
          "midi": 73,
          "time": 405.74959424999975,
          "velocity": 0.7480314960629921,
          "duration": 0.21428550000001678
        },
        {
          "name": "C#6",
          "midi": 85,
          "time": 405.74959424999975,
          "velocity": 0.7480314960629921,
          "duration": 0.21428550000001678
        },
        {
          "name": "C#7",
          "midi": 97,
          "time": 405.74959424999975,
          "velocity": 0.7480314960629921,
          "duration": 0.21428550000001678
        },
        {
          "name": "D#4",
          "midi": 63,
          "time": 405.96387974999976,
          "velocity": 0.7480314960629921,
          "duration": 0.4285709999999767
        },
        {
          "name": "D#5",
          "midi": 75,
          "time": 405.96387974999976,
          "velocity": 0.7480314960629921,
          "duration": 0.4285709999999767
        },
        {
          "name": "D#6",
          "midi": 87,
          "time": 405.96387974999976,
          "velocity": 0.7480314960629921,
          "duration": 0.4285709999999767
        },
        {
          "name": "D#7",
          "midi": 99,
          "time": 405.96387974999976,
          "velocity": 0.7480314960629921,
          "duration": 0.4285709999999767
        },
        {
          "name": "C#4",
          "midi": 61,
          "time": 406.39245074999974,
          "velocity": 0.7480314960629921,
          "duration": 0.21428550000001678
        },
        {
          "name": "C#5",
          "midi": 73,
          "time": 406.39245074999974,
          "velocity": 0.7480314960629921,
          "duration": 0.21428550000001678
        },
        {
          "name": "C#6",
          "midi": 85,
          "time": 406.39245074999974,
          "velocity": 0.7480314960629921,
          "duration": 0.21428550000001678
        },
        {
          "name": "C#7",
          "midi": 97,
          "time": 406.39245074999974,
          "velocity": 0.7480314960629921,
          "duration": 0.21428550000001678
        },
        {
          "name": "D#4",
          "midi": 63,
          "time": 406.60673624999976,
          "velocity": 0.7480314960629921,
          "duration": 0.4285709999999767
        },
        {
          "name": "D#5",
          "midi": 75,
          "time": 406.60673624999976,
          "velocity": 0.7480314960629921,
          "duration": 0.4285709999999767
        },
        {
          "name": "D#6",
          "midi": 87,
          "time": 406.60673624999976,
          "velocity": 0.7480314960629921,
          "duration": 0.4285709999999767
        },
        {
          "name": "D#7",
          "midi": 99,
          "time": 406.60673624999976,
          "velocity": 0.7480314960629921,
          "duration": 0.4285709999999767
        },
        {
          "name": "C#4",
          "midi": 61,
          "time": 407.03530724999973,
          "velocity": 0.7480314960629921,
          "duration": 0.21428550000001678
        },
        {
          "name": "C#5",
          "midi": 73,
          "time": 407.03530724999973,
          "velocity": 0.7480314960629921,
          "duration": 0.21428550000001678
        },
        {
          "name": "C#6",
          "midi": 85,
          "time": 407.03530724999973,
          "velocity": 0.7480314960629921,
          "duration": 0.21428550000001678
        },
        {
          "name": "C#7",
          "midi": 97,
          "time": 407.03530724999973,
          "velocity": 0.7480314960629921,
          "duration": 0.21428550000001678
        },
        {
          "name": "D#4",
          "midi": 63,
          "time": 407.24959274999975,
          "velocity": 0.7480314960629921,
          "duration": 0.4285709999999767
        },
        {
          "name": "D#5",
          "midi": 75,
          "time": 407.24959274999975,
          "velocity": 0.7480314960629921,
          "duration": 0.4285709999999767
        },
        {
          "name": "D#6",
          "midi": 87,
          "time": 407.24959274999975,
          "velocity": 0.7480314960629921,
          "duration": 0.4285709999999767
        },
        {
          "name": "D#7",
          "midi": 99,
          "time": 407.24959274999975,
          "velocity": 0.7480314960629921,
          "duration": 0.4285709999999767
        },
        {
          "name": "C#4",
          "midi": 61,
          "time": 407.6781637499997,
          "velocity": 0.7480314960629921,
          "duration": 0.21428550000001678
        },
        {
          "name": "C#5",
          "midi": 73,
          "time": 407.6781637499997,
          "velocity": 0.7480314960629921,
          "duration": 0.21428550000001678
        },
        {
          "name": "C#6",
          "midi": 85,
          "time": 407.6781637499997,
          "velocity": 0.7480314960629921,
          "duration": 0.21428550000001678
        },
        {
          "name": "C#7",
          "midi": 97,
          "time": 407.6781637499997,
          "velocity": 0.7480314960629921,
          "duration": 0.21428550000001678
        },
        {
          "name": "D#4",
          "midi": 63,
          "time": 407.89244924999974,
          "velocity": 0.7480314960629921,
          "duration": 0.21428550000001678
        },
        {
          "name": "D#5",
          "midi": 75,
          "time": 407.89244924999974,
          "velocity": 0.7480314960629921,
          "duration": 0.21428550000001678
        },
        {
          "name": "D#6",
          "midi": 87,
          "time": 407.89244924999974,
          "velocity": 0.7480314960629921,
          "duration": 0.21428550000001678
        },
        {
          "name": "D#7",
          "midi": 99,
          "time": 407.89244924999974,
          "velocity": 0.7480314960629921,
          "duration": 0.21428550000001678
        },
        {
          "name": "E4",
          "midi": 64,
          "time": 408.10673474999976,
          "velocity": 0.7480314960629921,
          "duration": 0.21428550000001678
        },
        {
          "name": "E5",
          "midi": 76,
          "time": 408.10673474999976,
          "velocity": 0.7480314960629921,
          "duration": 0.21428550000001678
        },
        {
          "name": "E6",
          "midi": 88,
          "time": 408.10673474999976,
          "velocity": 0.7480314960629921,
          "duration": 0.21428550000001678
        },
        {
          "name": "E7",
          "midi": 100,
          "time": 408.10673474999976,
          "velocity": 0.7480314960629921,
          "duration": 0.21428550000001678
        },
        {
          "name": "C#4",
          "midi": 61,
          "time": 408.3210202499998,
          "velocity": 0.7480314960629921,
          "duration": 0.21428550000001678
        },
        {
          "name": "C#5",
          "midi": 73,
          "time": 408.3210202499998,
          "velocity": 0.7480314960629921,
          "duration": 0.21428550000001678
        },
        {
          "name": "C#6",
          "midi": 85,
          "time": 408.3210202499998,
          "velocity": 0.7480314960629921,
          "duration": 0.21428550000001678
        },
        {
          "name": "C#7",
          "midi": 97,
          "time": 408.3210202499998,
          "velocity": 0.7480314960629921,
          "duration": 0.21428550000001678
        },
        {
          "name": "D#4",
          "midi": 63,
          "time": 408.5353057499998,
          "velocity": 0.7480314960629921,
          "duration": 0.21428550000001678
        },
        {
          "name": "D#5",
          "midi": 75,
          "time": 408.5353057499998,
          "velocity": 0.7480314960629921,
          "duration": 0.21428550000001678
        },
        {
          "name": "D#6",
          "midi": 87,
          "time": 408.5353057499998,
          "velocity": 0.7480314960629921,
          "duration": 0.21428550000001678
        },
        {
          "name": "D#7",
          "midi": 99,
          "time": 408.5353057499998,
          "velocity": 0.7480314960629921,
          "duration": 0.21428550000001678
        },
        {
          "name": "E4",
          "midi": 64,
          "time": 408.7495912499998,
          "velocity": 0.7480314960629921,
          "duration": 0.21428550000001678
        },
        {
          "name": "E5",
          "midi": 76,
          "time": 408.7495912499998,
          "velocity": 0.7480314960629921,
          "duration": 0.21428550000001678
        },
        {
          "name": "E6",
          "midi": 88,
          "time": 408.7495912499998,
          "velocity": 0.7480314960629921,
          "duration": 0.21428550000001678
        },
        {
          "name": "E7",
          "midi": 100,
          "time": 408.7495912499998,
          "velocity": 0.7480314960629921,
          "duration": 0.21428550000001678
        },
        {
          "name": "C#4",
          "midi": 61,
          "time": 408.9638767499998,
          "velocity": 0.7480314960629921,
          "duration": 0.21428550000001678
        },
        {
          "name": "C#5",
          "midi": 73,
          "time": 408.9638767499998,
          "velocity": 0.7480314960629921,
          "duration": 0.21428550000001678
        },
        {
          "name": "C#6",
          "midi": 85,
          "time": 408.9638767499998,
          "velocity": 0.7480314960629921,
          "duration": 0.21428550000001678
        },
        {
          "name": "C#7",
          "midi": 97,
          "time": 408.9638767499998,
          "velocity": 0.7480314960629921,
          "duration": 0.21428550000001678
        },
        {
          "name": "D#4",
          "midi": 63,
          "time": 409.17816224999984,
          "velocity": 0.7480314960629921,
          "duration": 0.21428550000001678
        },
        {
          "name": "D#5",
          "midi": 75,
          "time": 409.17816224999984,
          "velocity": 0.7480314960629921,
          "duration": 0.21428550000001678
        },
        {
          "name": "D#6",
          "midi": 87,
          "time": 409.17816224999984,
          "velocity": 0.7480314960629921,
          "duration": 0.21428550000001678
        },
        {
          "name": "D#7",
          "midi": 99,
          "time": 409.17816224999984,
          "velocity": 0.7480314960629921,
          "duration": 0.21428550000001678
        },
        {
          "name": "E4",
          "midi": 64,
          "time": 409.39244774999986,
          "velocity": 0.7480314960629921,
          "duration": 0.21428550000001678
        },
        {
          "name": "E5",
          "midi": 76,
          "time": 409.39244774999986,
          "velocity": 0.7480314960629921,
          "duration": 0.21428550000001678
        },
        {
          "name": "E6",
          "midi": 88,
          "time": 409.39244774999986,
          "velocity": 0.7480314960629921,
          "duration": 0.21428550000001678
        },
        {
          "name": "E7",
          "midi": 100,
          "time": 409.39244774999986,
          "velocity": 0.7480314960629921,
          "duration": 0.21428550000001678
        },
        {
          "name": "C#4",
          "midi": 61,
          "time": 409.6067332499999,
          "velocity": 0.7480314960629921,
          "duration": 0.10714274999997997
        },
        {
          "name": "C#5",
          "midi": 73,
          "time": 409.6067332499999,
          "velocity": 0.7480314960629921,
          "duration": 0.10714274999997997
        },
        {
          "name": "C#6",
          "midi": 85,
          "time": 409.6067332499999,
          "velocity": 0.7480314960629921,
          "duration": 0.10714274999997997
        },
        {
          "name": "C#7",
          "midi": 97,
          "time": 409.6067332499999,
          "velocity": 0.7480314960629921,
          "duration": 0.10714274999997997
        },
        {
          "name": "D#4",
          "midi": 63,
          "time": 409.71387599999986,
          "velocity": 0.7480314960629921,
          "duration": 0.10714274999997997
        },
        {
          "name": "D#5",
          "midi": 75,
          "time": 409.71387599999986,
          "velocity": 0.7480314960629921,
          "duration": 0.10714274999997997
        },
        {
          "name": "D#6",
          "midi": 87,
          "time": 409.71387599999986,
          "velocity": 0.7480314960629921,
          "duration": 0.10714274999997997
        },
        {
          "name": "D#7",
          "midi": 99,
          "time": 409.71387599999986,
          "velocity": 0.7480314960629921,
          "duration": 0.10714274999997997
        },
        {
          "name": "E4",
          "midi": 64,
          "time": 409.82101874999984,
          "velocity": 0.7480314960629921,
          "duration": 0.8571420000000103
        },
        {
          "name": "E5",
          "midi": 76,
          "time": 409.82101874999984,
          "velocity": 0.7480314960629921,
          "duration": 0.8571420000000103
        },
        {
          "name": "E6",
          "midi": 88,
          "time": 409.82101874999984,
          "velocity": 0.7480314960629921,
          "duration": 0.8571420000000103
        },
        {
          "name": "E7",
          "midi": 100,
          "time": 409.82101874999984,
          "velocity": 0.7480314960629921,
          "duration": 0.8571420000000103
        },
        {
          "name": "E4",
          "midi": 64,
          "time": 410.67816074999985,
          "velocity": 0.7480314960629921,
          "duration": 0.4285709999999767
        },
        {
          "name": "E5",
          "midi": 76,
          "time": 410.67816074999985,
          "velocity": 0.7480314960629921,
          "duration": 0.4285709999999767
        },
        {
          "name": "E6",
          "midi": 88,
          "time": 410.67816074999985,
          "velocity": 0.7480314960629921,
          "duration": 0.4285709999999767
        },
        {
          "name": "E7",
          "midi": 100,
          "time": 410.67816074999985,
          "velocity": 0.7480314960629921,
          "duration": 0.4285709999999767
        },
        {
          "name": "C#4",
          "midi": 61,
          "time": 411.1067317499998,
          "velocity": 0.7480314960629921,
          "duration": 0.21428550000001678
        },
        {
          "name": "C#5",
          "midi": 73,
          "time": 411.1067317499998,
          "velocity": 0.7480314960629921,
          "duration": 0.21428550000001678
        },
        {
          "name": "C#6",
          "midi": 85,
          "time": 411.1067317499998,
          "velocity": 0.7480314960629921,
          "duration": 0.21428550000001678
        },
        {
          "name": "C#7",
          "midi": 97,
          "time": 411.1067317499998,
          "velocity": 0.7480314960629921,
          "duration": 0.21428550000001678
        },
        {
          "name": "D#4",
          "midi": 63,
          "time": 411.32101724999984,
          "velocity": 0.7480314960629921,
          "duration": 0.21428550000001678
        },
        {
          "name": "D#5",
          "midi": 75,
          "time": 411.32101724999984,
          "velocity": 0.7480314960629921,
          "duration": 0.21428550000001678
        },
        {
          "name": "D#6",
          "midi": 87,
          "time": 411.32101724999984,
          "velocity": 0.7480314960629921,
          "duration": 0.21428550000001678
        },
        {
          "name": "D#7",
          "midi": 99,
          "time": 411.32101724999984,
          "velocity": 0.7480314960629921,
          "duration": 0.21428550000001678
        },
        {
          "name": "E4",
          "midi": 64,
          "time": 411.53530274999986,
          "velocity": 0.7480314960629921,
          "duration": 0.8571420000000103
        },
        {
          "name": "E5",
          "midi": 76,
          "time": 411.53530274999986,
          "velocity": 0.7480314960629921,
          "duration": 0.8571420000000103
        },
        {
          "name": "E6",
          "midi": 88,
          "time": 411.53530274999986,
          "velocity": 0.7480314960629921,
          "duration": 0.8571420000000103
        },
        {
          "name": "E7",
          "midi": 100,
          "time": 411.53530274999986,
          "velocity": 0.7480314960629921,
          "duration": 0.8571420000000103
        },
        {
          "name": "C#4",
          "midi": 61,
          "time": 412.39244474999987,
          "velocity": 0.7480314960629921,
          "duration": 1.285712999999987
        },
        {
          "name": "C#5",
          "midi": 73,
          "time": 412.39244474999987,
          "velocity": 0.7480314960629921,
          "duration": 1.285712999999987
        },
        {
          "name": "C#6",
          "midi": 85,
          "time": 412.39244474999987,
          "velocity": 0.7480314960629921,
          "duration": 1.285712999999987
        },
        {
          "name": "C#7",
          "midi": 97,
          "time": 412.39244474999987,
          "velocity": 0.7480314960629921,
          "duration": 1.285712999999987
        },
        {
          "name": "C#4",
          "midi": 61,
          "time": 414.10672874999983,
          "velocity": 0.7480314960629921,
          "duration": 0.21428550000001678
        },
        {
          "name": "C#5",
          "midi": 73,
          "time": 414.10672874999983,
          "velocity": 0.7480314960629921,
          "duration": 0.21428550000001678
        },
        {
          "name": "C#6",
          "midi": 85,
          "time": 414.10672874999983,
          "velocity": 0.7480314960629921,
          "duration": 0.21428550000001678
        },
        {
          "name": "C#7",
          "midi": 97,
          "time": 414.10672874999983,
          "velocity": 0.7480314960629921,
          "duration": 0.21428550000001678
        },
        {
          "name": "C4",
          "midi": 60,
          "time": 414.32101424999985,
          "velocity": 0.7480314960629921,
          "duration": 0.21428550000001678
        },
        {
          "name": "C5",
          "midi": 72,
          "time": 414.32101424999985,
          "velocity": 0.7480314960629921,
          "duration": 0.21428550000001678
        },
        {
          "name": "C6",
          "midi": 84,
          "time": 414.32101424999985,
          "velocity": 0.7480314960629921,
          "duration": 0.21428550000001678
        },
        {
          "name": "C7",
          "midi": 96,
          "time": 414.32101424999985,
          "velocity": 0.7480314960629921,
          "duration": 0.21428550000001678
        },
        {
          "name": "C#4",
          "midi": 61,
          "time": 414.53529974999987,
          "velocity": 0.7480314960629921,
          "duration": 0.21428550000001678
        },
        {
          "name": "C#5",
          "midi": 73,
          "time": 414.53529974999987,
          "velocity": 0.7480314960629921,
          "duration": 0.21428550000001678
        },
        {
          "name": "C#6",
          "midi": 85,
          "time": 414.53529974999987,
          "velocity": 0.7480314960629921,
          "duration": 0.21428550000001678
        },
        {
          "name": "C#7",
          "midi": 97,
          "time": 414.53529974999987,
          "velocity": 0.7480314960629921,
          "duration": 0.21428550000001678
        },
        {
          "name": "D4",
          "midi": 62,
          "time": 414.7495852499999,
          "velocity": 0.7480314960629921,
          "duration": 0.21428550000001678
        },
        {
          "name": "D5",
          "midi": 74,
          "time": 414.7495852499999,
          "velocity": 0.7480314960629921,
          "duration": 0.21428550000001678
        },
        {
          "name": "D6",
          "midi": 86,
          "time": 414.7495852499999,
          "velocity": 0.7480314960629921,
          "duration": 0.21428550000001678
        },
        {
          "name": "D7",
          "midi": 98,
          "time": 414.7495852499999,
          "velocity": 0.7480314960629921,
          "duration": 0.21428550000001678
        },
        {
          "name": "D#4",
          "midi": 63,
          "time": 414.9638707499999,
          "velocity": 0.7480314960629921,
          "duration": 0.8571420000000103
        },
        {
          "name": "D#5",
          "midi": 75,
          "time": 414.9638707499999,
          "velocity": 0.7480314960629921,
          "duration": 0.8571420000000103
        },
        {
          "name": "D#6",
          "midi": 87,
          "time": 414.9638707499999,
          "velocity": 0.7480314960629921,
          "duration": 0.8571420000000103
        },
        {
          "name": "D#7",
          "midi": 99,
          "time": 414.9638707499999,
          "velocity": 0.7480314960629921,
          "duration": 0.8571420000000103
        },
        {
          "name": "D4",
          "midi": 62,
          "time": 415.8210127499999,
          "velocity": 0.7480314960629921,
          "duration": 0.8571420000000103
        },
        {
          "name": "D5",
          "midi": 74,
          "time": 415.8210127499999,
          "velocity": 0.7480314960629921,
          "duration": 0.8571420000000103
        },
        {
          "name": "D6",
          "midi": 86,
          "time": 415.8210127499999,
          "velocity": 0.7480314960629921,
          "duration": 0.8571420000000103
        },
        {
          "name": "D7",
          "midi": 98,
          "time": 415.8210127499999,
          "velocity": 0.7480314960629921,
          "duration": 0.8571420000000103
        },
        {
          "name": "E4",
          "midi": 64,
          "time": 416.6781547499999,
          "velocity": 0.7480314960629921,
          "duration": 1.285712999999987
        },
        {
          "name": "E5",
          "midi": 76,
          "time": 416.6781547499999,
          "velocity": 0.7480314960629921,
          "duration": 1.285712999999987
        },
        {
          "name": "E6",
          "midi": 88,
          "time": 416.6781547499999,
          "velocity": 0.7480314960629921,
          "duration": 1.285712999999987
        },
        {
          "name": "E7",
          "midi": 100,
          "time": 416.6781547499999,
          "velocity": 0.7480314960629921,
          "duration": 1.285712999999987
        },
        {
          "name": "C4",
          "midi": 60,
          "time": 417.9638677499999,
          "velocity": 0.7480314960629921,
          "duration": 0.21428550000001678
        },
        {
          "name": "C5",
          "midi": 72,
          "time": 417.9638677499999,
          "velocity": 0.7480314960629921,
          "duration": 0.21428550000001678
        },
        {
          "name": "C6",
          "midi": 84,
          "time": 417.9638677499999,
          "velocity": 0.7480314960629921,
          "duration": 0.21428550000001678
        },
        {
          "name": "C7",
          "midi": 96,
          "time": 417.9638677499999,
          "velocity": 0.7480314960629921,
          "duration": 0.21428550000001678
        },
        {
          "name": "D4",
          "midi": 62,
          "time": 418.1781532499999,
          "velocity": 0.7480314960629921,
          "duration": 0.21428550000001678
        },
        {
          "name": "D5",
          "midi": 74,
          "time": 418.1781532499999,
          "velocity": 0.7480314960629921,
          "duration": 0.21428550000001678
        },
        {
          "name": "D6",
          "midi": 86,
          "time": 418.1781532499999,
          "velocity": 0.7480314960629921,
          "duration": 0.21428550000001678
        },
        {
          "name": "D7",
          "midi": 98,
          "time": 418.1781532499999,
          "velocity": 0.7480314960629921,
          "duration": 0.21428550000001678
        },
        {
          "name": "D#4",
          "midi": 63,
          "time": 418.39243874999994,
          "velocity": 0.7480314960629921,
          "duration": 0.8571420000000103
        },
        {
          "name": "D#5",
          "midi": 75,
          "time": 418.39243874999994,
          "velocity": 0.7480314960629921,
          "duration": 0.8571420000000103
        },
        {
          "name": "D#6",
          "midi": 87,
          "time": 418.39243874999994,
          "velocity": 0.7480314960629921,
          "duration": 0.8571420000000103
        },
        {
          "name": "D#7",
          "midi": 99,
          "time": 418.39243874999994,
          "velocity": 0.7480314960629921,
          "duration": 0.8571420000000103
        },
        {
          "name": "D4",
          "midi": 62,
          "time": 419.24958074999995,
          "velocity": 0.7480314960629921,
          "duration": 0.8571420000000103
        },
        {
          "name": "D5",
          "midi": 74,
          "time": 419.24958074999995,
          "velocity": 0.7480314960629921,
          "duration": 0.8571420000000103
        },
        {
          "name": "D6",
          "midi": 86,
          "time": 419.24958074999995,
          "velocity": 0.7480314960629921,
          "duration": 0.8571420000000103
        },
        {
          "name": "D7",
          "midi": 98,
          "time": 419.24958074999995,
          "velocity": 0.7480314960629921,
          "duration": 0.8571420000000103
        },
        {
          "name": "C#4",
          "midi": 61,
          "time": 420.10672274999996,
          "velocity": 0.7480314960629921,
          "duration": 1.071427500000027
        },
        {
          "name": "C#5",
          "midi": 73,
          "time": 420.10672274999996,
          "velocity": 0.7480314960629921,
          "duration": 1.071427500000027
        },
        {
          "name": "C#6",
          "midi": 85,
          "time": 420.10672274999996,
          "velocity": 0.7480314960629921,
          "duration": 1.071427500000027
        },
        {
          "name": "C#7",
          "midi": 97,
          "time": 420.10672274999996,
          "velocity": 0.7480314960629921,
          "duration": 1.071427500000027
        },
        {
          "name": "C4",
          "midi": 60,
          "time": 421.17815025,
          "velocity": 0.7480314960629921,
          "duration": 0.21428550000001678
        },
        {
          "name": "C5",
          "midi": 72,
          "time": 421.17815025,
          "velocity": 0.7480314960629921,
          "duration": 0.21428550000001678
        },
        {
          "name": "C6",
          "midi": 84,
          "time": 421.17815025,
          "velocity": 0.7480314960629921,
          "duration": 0.21428550000001678
        },
        {
          "name": "C7",
          "midi": 96,
          "time": 421.17815025,
          "velocity": 0.7480314960629921,
          "duration": 0.21428550000001678
        },
        {
          "name": "C#4",
          "midi": 61,
          "time": 421.39243575,
          "velocity": 0.7480314960629921,
          "duration": 0.21428550000001678
        },
        {
          "name": "C#5",
          "midi": 73,
          "time": 421.39243575,
          "velocity": 0.7480314960629921,
          "duration": 0.21428550000001678
        },
        {
          "name": "C#6",
          "midi": 85,
          "time": 421.39243575,
          "velocity": 0.7480314960629921,
          "duration": 0.21428550000001678
        },
        {
          "name": "C#7",
          "midi": 97,
          "time": 421.39243575,
          "velocity": 0.7480314960629921,
          "duration": 0.21428550000001678
        },
        {
          "name": "D#4",
          "midi": 63,
          "time": 421.60672125,
          "velocity": 0.7480314960629921,
          "duration": 0.21428550000001678
        },
        {
          "name": "D#5",
          "midi": 75,
          "time": 421.60672125,
          "velocity": 0.7480314960629921,
          "duration": 0.21428550000001678
        },
        {
          "name": "D#6",
          "midi": 87,
          "time": 421.60672125,
          "velocity": 0.7480314960629921,
          "duration": 0.21428550000001678
        },
        {
          "name": "D#7",
          "midi": 99,
          "time": 421.60672125,
          "velocity": 0.7480314960629921,
          "duration": 0.21428550000001678
        },
        {
          "name": "E4",
          "midi": 64,
          "time": 421.82100675000004,
          "velocity": 0.7480314960629921,
          "duration": 0.21428550000001678
        },
        {
          "name": "E5",
          "midi": 76,
          "time": 421.82100675000004,
          "velocity": 0.7480314960629921,
          "duration": 0.21428550000001678
        },
        {
          "name": "E6",
          "midi": 88,
          "time": 421.82100675000004,
          "velocity": 0.7480314960629921,
          "duration": 0.21428550000001678
        },
        {
          "name": "E7",
          "midi": 100,
          "time": 421.82100675000004,
          "velocity": 0.7480314960629921,
          "duration": 0.21428550000001678
        },
        {
          "name": "C#4",
          "midi": 61,
          "time": 422.03529225000005,
          "velocity": 0.7480314960629921,
          "duration": 0.21428550000001678
        },
        {
          "name": "C#5",
          "midi": 73,
          "time": 422.03529225000005,
          "velocity": 0.7480314960629921,
          "duration": 0.21428550000001678
        },
        {
          "name": "C#6",
          "midi": 85,
          "time": 422.03529225000005,
          "velocity": 0.7480314960629921,
          "duration": 0.21428550000001678
        },
        {
          "name": "C#7",
          "midi": 97,
          "time": 422.03529225000005,
          "velocity": 0.7480314960629921,
          "duration": 0.21428550000001678
        },
        {
          "name": "D#4",
          "midi": 63,
          "time": 422.24957775000007,
          "velocity": 0.7480314960629921,
          "duration": 0.21428550000001678
        },
        {
          "name": "D#5",
          "midi": 75,
          "time": 422.24957775000007,
          "velocity": 0.7480314960629921,
          "duration": 0.21428550000001678
        },
        {
          "name": "D#6",
          "midi": 87,
          "time": 422.24957775000007,
          "velocity": 0.7480314960629921,
          "duration": 0.21428550000001678
        },
        {
          "name": "D#7",
          "midi": 99,
          "time": 422.24957775000007,
          "velocity": 0.7480314960629921,
          "duration": 0.21428550000001678
        },
        {
          "name": "E4",
          "midi": 64,
          "time": 422.4638632500001,
          "velocity": 0.7480314960629921,
          "duration": 0.21428550000001678
        },
        {
          "name": "E5",
          "midi": 76,
          "time": 422.4638632500001,
          "velocity": 0.7480314960629921,
          "duration": 0.21428550000001678
        },
        {
          "name": "E6",
          "midi": 88,
          "time": 422.4638632500001,
          "velocity": 0.7480314960629921,
          "duration": 0.21428550000001678
        },
        {
          "name": "E7",
          "midi": 100,
          "time": 422.4638632500001,
          "velocity": 0.7480314960629921,
          "duration": 0.21428550000001678
        },
        {
          "name": "C#4",
          "midi": 61,
          "time": 422.6781487500001,
          "velocity": 0.7480314960629921,
          "duration": 0.21428550000001678
        },
        {
          "name": "C#5",
          "midi": 73,
          "time": 422.6781487500001,
          "velocity": 0.7480314960629921,
          "duration": 0.21428550000001678
        },
        {
          "name": "C#6",
          "midi": 85,
          "time": 422.6781487500001,
          "velocity": 0.7480314960629921,
          "duration": 0.21428550000001678
        },
        {
          "name": "C#7",
          "midi": 97,
          "time": 422.6781487500001,
          "velocity": 0.7480314960629921,
          "duration": 0.21428550000001678
        },
        {
          "name": "D#4",
          "midi": 63,
          "time": 422.8924342500001,
          "velocity": 0.7480314960629921,
          "duration": 0.21428550000001678
        },
        {
          "name": "D#5",
          "midi": 75,
          "time": 422.8924342500001,
          "velocity": 0.7480314960629921,
          "duration": 0.21428550000001678
        },
        {
          "name": "D#6",
          "midi": 87,
          "time": 422.8924342500001,
          "velocity": 0.7480314960629921,
          "duration": 0.21428550000001678
        },
        {
          "name": "D#7",
          "midi": 99,
          "time": 422.8924342500001,
          "velocity": 0.7480314960629921,
          "duration": 0.21428550000001678
        },
        {
          "name": "E4",
          "midi": 64,
          "time": 423.10671975000014,
          "velocity": 0.7480314960629921,
          "duration": 0.21428550000001678
        },
        {
          "name": "E5",
          "midi": 76,
          "time": 423.10671975000014,
          "velocity": 0.7480314960629921,
          "duration": 0.21428550000001678
        },
        {
          "name": "E6",
          "midi": 88,
          "time": 423.10671975000014,
          "velocity": 0.7480314960629921,
          "duration": 0.21428550000001678
        },
        {
          "name": "E7",
          "midi": 100,
          "time": 423.10671975000014,
          "velocity": 0.7480314960629921,
          "duration": 0.21428550000001678
        },
        {
          "name": "C#4",
          "midi": 61,
          "time": 423.32100525000016,
          "velocity": 0.7480314960629921,
          "duration": 0.10714274999997997
        },
        {
          "name": "C#5",
          "midi": 73,
          "time": 423.32100525000016,
          "velocity": 0.7480314960629921,
          "duration": 0.10714274999997997
        },
        {
          "name": "C#6",
          "midi": 85,
          "time": 423.32100525000016,
          "velocity": 0.7480314960629921,
          "duration": 0.10714274999997997
        },
        {
          "name": "C#7",
          "midi": 97,
          "time": 423.32100525000016,
          "velocity": 0.7480314960629921,
          "duration": 0.10714274999997997
        },
        {
          "name": "D#4",
          "midi": 63,
          "time": 423.42814800000014,
          "velocity": 0.7480314960629921,
          "duration": 0.10714274999997997
        },
        {
          "name": "D#5",
          "midi": 75,
          "time": 423.42814800000014,
          "velocity": 0.7480314960629921,
          "duration": 0.10714274999997997
        },
        {
          "name": "D#6",
          "midi": 87,
          "time": 423.42814800000014,
          "velocity": 0.7480314960629921,
          "duration": 0.10714274999997997
        },
        {
          "name": "D#7",
          "midi": 99,
          "time": 423.42814800000014,
          "velocity": 0.7480314960629921,
          "duration": 0.10714274999997997
        },
        {
          "name": "E4",
          "midi": 64,
          "time": 423.5352907500001,
          "velocity": 0.7480314960629921,
          "duration": 0.10714274999997997
        },
        {
          "name": "E5",
          "midi": 76,
          "time": 423.5352907500001,
          "velocity": 0.7480314960629921,
          "duration": 0.10714274999997997
        },
        {
          "name": "E6",
          "midi": 88,
          "time": 423.5352907500001,
          "velocity": 0.7480314960629921,
          "duration": 0.10714274999997997
        },
        {
          "name": "E7",
          "midi": 100,
          "time": 423.5352907500001,
          "velocity": 0.7480314960629921,
          "duration": 0.10714274999997997
        },
        {
          "name": "D#4",
          "midi": 63,
          "time": 423.6424335000001,
          "velocity": 0.7480314960629921,
          "duration": 0.10714274999997997
        },
        {
          "name": "D#5",
          "midi": 75,
          "time": 423.6424335000001,
          "velocity": 0.7480314960629921,
          "duration": 0.10714274999997997
        },
        {
          "name": "D#6",
          "midi": 87,
          "time": 423.6424335000001,
          "velocity": 0.7480314960629921,
          "duration": 0.10714274999997997
        },
        {
          "name": "D#7",
          "midi": 99,
          "time": 423.6424335000001,
          "velocity": 0.7480314960629921,
          "duration": 0.10714274999997997
        },
        {
          "name": "C#4",
          "midi": 61,
          "time": 423.7495762500001,
          "velocity": 0.7480314960629921,
          "duration": 0.10714274999997997
        },
        {
          "name": "C#5",
          "midi": 73,
          "time": 423.7495762500001,
          "velocity": 0.7480314960629921,
          "duration": 0.10714274999997997
        },
        {
          "name": "C#6",
          "midi": 85,
          "time": 423.7495762500001,
          "velocity": 0.7480314960629921,
          "duration": 0.10714274999997997
        },
        {
          "name": "C#7",
          "midi": 97,
          "time": 423.7495762500001,
          "velocity": 0.7480314960629921,
          "duration": 0.10714274999997997
        },
        {
          "name": "D#4",
          "midi": 63,
          "time": 423.85671900000006,
          "velocity": 0.7480314960629921,
          "duration": 0.10714274999997997
        },
        {
          "name": "D#5",
          "midi": 75,
          "time": 423.85671900000006,
          "velocity": 0.7480314960629921,
          "duration": 0.10714274999997997
        },
        {
          "name": "D#6",
          "midi": 87,
          "time": 423.85671900000006,
          "velocity": 0.7480314960629921,
          "duration": 0.10714274999997997
        },
        {
          "name": "D#7",
          "midi": 99,
          "time": 423.85671900000006,
          "velocity": 0.7480314960629921,
          "duration": 0.10714274999997997
        },
        {
          "name": "E4",
          "midi": 64,
          "time": 423.96386175000004,
          "velocity": 0.7480314960629921,
          "duration": 0.10714274999997997
        },
        {
          "name": "E5",
          "midi": 76,
          "time": 423.96386175000004,
          "velocity": 0.7480314960629921,
          "duration": 0.10714274999997997
        },
        {
          "name": "E6",
          "midi": 88,
          "time": 423.96386175000004,
          "velocity": 0.7480314960629921,
          "duration": 0.10714274999997997
        },
        {
          "name": "E7",
          "midi": 100,
          "time": 423.96386175000004,
          "velocity": 0.7480314960629921,
          "duration": 0.10714274999997997
        },
        {
          "name": "D#4",
          "midi": 63,
          "time": 424.0710045,
          "velocity": 0.7480314960629921,
          "duration": 0.10714274999997997
        },
        {
          "name": "D#5",
          "midi": 75,
          "time": 424.0710045,
          "velocity": 0.7480314960629921,
          "duration": 0.10714274999997997
        },
        {
          "name": "D#6",
          "midi": 87,
          "time": 424.0710045,
          "velocity": 0.7480314960629921,
          "duration": 0.10714274999997997
        },
        {
          "name": "D#7",
          "midi": 99,
          "time": 424.0710045,
          "velocity": 0.7480314960629921,
          "duration": 0.10714274999997997
        },
        {
          "name": "C#4",
          "midi": 61,
          "time": 424.17814725,
          "velocity": 0.7480314960629921,
          "duration": 0.10714274999997997
        },
        {
          "name": "C#5",
          "midi": 73,
          "time": 424.17814725,
          "velocity": 0.7480314960629921,
          "duration": 0.10714274999997997
        },
        {
          "name": "C#6",
          "midi": 85,
          "time": 424.17814725,
          "velocity": 0.7480314960629921,
          "duration": 0.10714274999997997
        },
        {
          "name": "C#7",
          "midi": 97,
          "time": 424.17814725,
          "velocity": 0.7480314960629921,
          "duration": 0.10714274999997997
        },
        {
          "name": "D#4",
          "midi": 63,
          "time": 424.28529,
          "velocity": 0.7480314960629921,
          "duration": 0.10714274999997997
        },
        {
          "name": "D#5",
          "midi": 75,
          "time": 424.28529,
          "velocity": 0.7480314960629921,
          "duration": 0.10714274999997997
        },
        {
          "name": "D#6",
          "midi": 87,
          "time": 424.28529,
          "velocity": 0.7480314960629921,
          "duration": 0.10714274999997997
        },
        {
          "name": "D#7",
          "midi": 99,
          "time": 424.28529,
          "velocity": 0.7480314960629921,
          "duration": 0.10714274999997997
        },
        {
          "name": "E4",
          "midi": 64,
          "time": 424.39243274999995,
          "velocity": 0.7480314960629921,
          "duration": 0.4285709999999767
        },
        {
          "name": "E5",
          "midi": 76,
          "time": 424.39243274999995,
          "velocity": 0.7480314960629921,
          "duration": 0.4285709999999767
        },
        {
          "name": "E6",
          "midi": 88,
          "time": 424.39243274999995,
          "velocity": 0.7480314960629921,
          "duration": 0.4285709999999767
        },
        {
          "name": "E7",
          "midi": 100,
          "time": 424.39243274999995,
          "velocity": 0.7480314960629921,
          "duration": 0.4285709999999767
        },
        {
          "name": "D#4",
          "midi": 63,
          "time": 424.82100374999993,
          "velocity": 0.7480314960629921,
          "duration": 0.4285709999999767
        },
        {
          "name": "D#5",
          "midi": 75,
          "time": 424.82100374999993,
          "velocity": 0.7480314960629921,
          "duration": 0.4285709999999767
        },
        {
          "name": "D#6",
          "midi": 87,
          "time": 424.82100374999993,
          "velocity": 0.7480314960629921,
          "duration": 0.4285709999999767
        },
        {
          "name": "D#7",
          "midi": 99,
          "time": 424.82100374999993,
          "velocity": 0.7480314960629921,
          "duration": 0.4285709999999767
        },
        {
          "name": "D4",
          "midi": 62,
          "time": 425.2495747499999,
          "velocity": 0.7480314960629921,
          "duration": 0.8571420000000103
        },
        {
          "name": "D5",
          "midi": 74,
          "time": 425.2495747499999,
          "velocity": 0.7480314960629921,
          "duration": 0.8571420000000103
        },
        {
          "name": "D6",
          "midi": 86,
          "time": 425.2495747499999,
          "velocity": 0.7480314960629921,
          "duration": 0.8571420000000103
        },
        {
          "name": "D7",
          "midi": 98,
          "time": 425.2495747499999,
          "velocity": 0.7480314960629921,
          "duration": 0.8571420000000103
        },
        {
          "name": "C4",
          "midi": 60,
          "time": 426.1067167499999,
          "velocity": 0.7480314960629921,
          "duration": 1.285712999999987
        },
        {
          "name": "C5",
          "midi": 72,
          "time": 426.1067167499999,
          "velocity": 0.7480314960629921,
          "duration": 1.285712999999987
        },
        {
          "name": "C6",
          "midi": 84,
          "time": 426.1067167499999,
          "velocity": 0.7480314960629921,
          "duration": 1.285712999999987
        },
        {
          "name": "C7",
          "midi": 96,
          "time": 426.1067167499999,
          "velocity": 0.7480314960629921,
          "duration": 1.285712999999987
        },
        {
          "name": "E4",
          "midi": 64,
          "time": 427.2852869999999,
          "velocity": 0.7480314960629921,
          "duration": 0.4285709999999767
        },
        {
          "name": "E5",
          "midi": 76,
          "time": 427.2852869999999,
          "velocity": 0.7480314960629921,
          "duration": 0.4285709999999767
        },
        {
          "name": "E6",
          "midi": 88,
          "time": 427.2852869999999,
          "velocity": 0.7480314960629921,
          "duration": 0.4285709999999767
        },
        {
          "name": "E7",
          "midi": 100,
          "time": 427.2852869999999,
          "velocity": 0.7480314960629921,
          "duration": 0.4285709999999767
        },
        {
          "name": "B4",
          "midi": 71,
          "time": 427.7138579999999,
          "velocity": 0.7480314960629921,
          "duration": 0.21428550000001678
        },
        {
          "name": "B5",
          "midi": 83,
          "time": 427.7138579999999,
          "velocity": 0.7480314960629921,
          "duration": 0.21428550000001678
        },
        {
          "name": "B6",
          "midi": 95,
          "time": 427.7138579999999,
          "velocity": 0.7480314960629921,
          "duration": 0.21428550000001678
        },
        {
          "name": "F7",
          "midi": 101,
          "time": 427.7138579999999,
          "velocity": 0.7480314960629921,
          "duration": 0.21428550000001678
        },
        {
          "name": "E4",
          "midi": 64,
          "time": 427.9281434999999,
          "velocity": 0.7480314960629921,
          "duration": 0.21428550000001678
        },
        {
          "name": "E5",
          "midi": 76,
          "time": 427.9281434999999,
          "velocity": 0.7480314960629921,
          "duration": 0.21428550000001678
        },
        {
          "name": "E6",
          "midi": 88,
          "time": 427.9281434999999,
          "velocity": 0.7480314960629921,
          "duration": 0.21428550000001678
        },
        {
          "name": "E7",
          "midi": 100,
          "time": 427.9281434999999,
          "velocity": 0.7480314960629921,
          "duration": 0.21428550000001678
        },
        {
          "name": "D#4",
          "midi": 63,
          "time": 428.14242899999994,
          "velocity": 0.7480314960629921,
          "duration": 0.21428550000001678
        },
        {
          "name": "D#5",
          "midi": 75,
          "time": 428.14242899999994,
          "velocity": 0.7480314960629921,
          "duration": 0.21428550000001678
        },
        {
          "name": "D#6",
          "midi": 87,
          "time": 428.14242899999994,
          "velocity": 0.7480314960629921,
          "duration": 0.21428550000001678
        },
        {
          "name": "D#7",
          "midi": 99,
          "time": 428.14242899999994,
          "velocity": 0.7480314960629921,
          "duration": 0.21428550000001678
        },
        {
          "name": "C#4",
          "midi": 61,
          "time": 428.35671449999995,
          "velocity": 0.7480314960629921,
          "duration": 0.21428550000001678
        },
        {
          "name": "C#5",
          "midi": 73,
          "time": 428.35671449999995,
          "velocity": 0.7480314960629921,
          "duration": 0.21428550000001678
        },
        {
          "name": "C#6",
          "midi": 85,
          "time": 428.35671449999995,
          "velocity": 0.7480314960629921,
          "duration": 0.21428550000001678
        },
        {
          "name": "C#7",
          "midi": 97,
          "time": 428.35671449999995,
          "velocity": 0.7480314960629921,
          "duration": 0.21428550000001678
        },
        {
          "name": "D4",
          "midi": 62,
          "time": 428.57099999999997,
          "velocity": 0.7480314960629921,
          "duration": 0.8571420000000103
        },
        {
          "name": "D5",
          "midi": 74,
          "time": 428.57099999999997,
          "velocity": 0.7480314960629921,
          "duration": 0.8571420000000103
        },
        {
          "name": "D6",
          "midi": 86,
          "time": 428.57099999999997,
          "velocity": 0.7480314960629921,
          "duration": 0.8571420000000103
        },
        {
          "name": "D7",
          "midi": 98,
          "time": 428.57099999999997,
          "velocity": 0.7480314960629921,
          "duration": 0.8571420000000103
        },
        {
          "name": "C#4",
          "midi": 61,
          "time": 429.428142,
          "velocity": 0.7480314960629921,
          "duration": 2.1428549999999973
        },
        {
          "name": "C#5",
          "midi": 73,
          "time": 429.428142,
          "velocity": 0.7480314960629921,
          "duration": 2.1428549999999973
        },
        {
          "name": "C#6",
          "midi": 85,
          "time": 429.428142,
          "velocity": 0.7480314960629921,
          "duration": 2.1428549999999973
        },
        {
          "name": "C#7",
          "midi": 97,
          "time": 429.428142,
          "velocity": 0.7480314960629921,
          "duration": 2.1428549999999973
        },
        {
          "name": "C4",
          "midi": 60,
          "time": 431.570997,
          "velocity": 0.7480314960629921,
          "duration": 0.21428550000001678
        },
        {
          "name": "C5",
          "midi": 72,
          "time": 431.570997,
          "velocity": 0.7480314960629921,
          "duration": 0.21428550000001678
        },
        {
          "name": "C6",
          "midi": 84,
          "time": 431.570997,
          "velocity": 0.7480314960629921,
          "duration": 0.21428550000001678
        },
        {
          "name": "C7",
          "midi": 96,
          "time": 431.570997,
          "velocity": 0.7480314960629921,
          "duration": 0.21428550000001678
        },
        {
          "name": "C#4",
          "midi": 61,
          "time": 431.7852825,
          "velocity": 0.7480314960629921,
          "duration": 0.21428550000001678
        },
        {
          "name": "C#5",
          "midi": 73,
          "time": 431.7852825,
          "velocity": 0.7480314960629921,
          "duration": 0.21428550000001678
        },
        {
          "name": "C#6",
          "midi": 85,
          "time": 431.7852825,
          "velocity": 0.7480314960629921,
          "duration": 0.21428550000001678
        },
        {
          "name": "C#7",
          "midi": 97,
          "time": 431.7852825,
          "velocity": 0.7480314960629921,
          "duration": 0.21428550000001678
        },
        {
          "name": "D4",
          "midi": 62,
          "time": 431.999568,
          "velocity": 0.7480314960629921,
          "duration": 0.8571420000000103
        },
        {
          "name": "D5",
          "midi": 74,
          "time": 431.999568,
          "velocity": 0.7480314960629921,
          "duration": 0.8571420000000103
        },
        {
          "name": "D6",
          "midi": 86,
          "time": 431.999568,
          "velocity": 0.7480314960629921,
          "duration": 0.8571420000000103
        },
        {
          "name": "D7",
          "midi": 98,
          "time": 431.999568,
          "velocity": 0.7480314960629921,
          "duration": 0.8571420000000103
        },
        {
          "name": "C#4",
          "midi": 61,
          "time": 432.85671,
          "velocity": 0.7480314960629921,
          "duration": 0.4285709999999767
        },
        {
          "name": "C#5",
          "midi": 73,
          "time": 432.85671,
          "velocity": 0.7480314960629921,
          "duration": 0.4285709999999767
        },
        {
          "name": "C#6",
          "midi": 85,
          "time": 432.85671,
          "velocity": 0.7480314960629921,
          "duration": 0.4285709999999767
        },
        {
          "name": "C#7",
          "midi": 97,
          "time": 432.85671,
          "velocity": 0.7480314960629921,
          "duration": 0.4285709999999767
        },
        {
          "name": "D4",
          "midi": 62,
          "time": 433.285281,
          "velocity": 0.7480314960629921,
          "duration": 0.8571420000000103
        },
        {
          "name": "D5",
          "midi": 74,
          "time": 433.285281,
          "velocity": 0.7480314960629921,
          "duration": 0.8571420000000103
        },
        {
          "name": "D6",
          "midi": 86,
          "time": 433.285281,
          "velocity": 0.7480314960629921,
          "duration": 0.8571420000000103
        },
        {
          "name": "D7",
          "midi": 98,
          "time": 433.285281,
          "velocity": 0.7480314960629921,
          "duration": 0.8571420000000103
        },
        {
          "name": "C#4",
          "midi": 61,
          "time": 434.142423,
          "velocity": 0.7480314960629921,
          "duration": 0.4285709999999767
        },
        {
          "name": "C#5",
          "midi": 73,
          "time": 434.142423,
          "velocity": 0.7480314960629921,
          "duration": 0.4285709999999767
        },
        {
          "name": "C#6",
          "midi": 85,
          "time": 434.142423,
          "velocity": 0.7480314960629921,
          "duration": 0.4285709999999767
        },
        {
          "name": "C#7",
          "midi": 97,
          "time": 434.142423,
          "velocity": 0.7480314960629921,
          "duration": 0.4285709999999767
        },
        {
          "name": "D4",
          "midi": 62,
          "time": 434.570994,
          "velocity": 0.7480314960629921,
          "duration": 0.6428564999999935
        },
        {
          "name": "D5",
          "midi": 74,
          "time": 434.570994,
          "velocity": 0.7480314960629921,
          "duration": 0.6428564999999935
        },
        {
          "name": "D6",
          "midi": 86,
          "time": 434.570994,
          "velocity": 0.7480314960629921,
          "duration": 0.6428564999999935
        },
        {
          "name": "D7",
          "midi": 98,
          "time": 434.570994,
          "velocity": 0.7480314960629921,
          "duration": 0.6428564999999935
        },
        {
          "name": "C#4",
          "midi": 61,
          "time": 435.2138505,
          "velocity": 0.7480314960629921,
          "duration": 0.6428564999999935
        },
        {
          "name": "C#5",
          "midi": 73,
          "time": 435.2138505,
          "velocity": 0.7480314960629921,
          "duration": 0.6428564999999935
        },
        {
          "name": "C#6",
          "midi": 85,
          "time": 435.2138505,
          "velocity": 0.7480314960629921,
          "duration": 0.6428564999999935
        },
        {
          "name": "C#7",
          "midi": 97,
          "time": 435.2138505,
          "velocity": 0.7480314960629921,
          "duration": 0.6428564999999935
        },
        {
          "name": "D4",
          "midi": 62,
          "time": 435.856707,
          "velocity": 0.7480314960629921,
          "duration": 0.6428564999999935
        },
        {
          "name": "D5",
          "midi": 74,
          "time": 435.856707,
          "velocity": 0.7480314960629921,
          "duration": 0.6428564999999935
        },
        {
          "name": "D6",
          "midi": 86,
          "time": 435.856707,
          "velocity": 0.7480314960629921,
          "duration": 0.6428564999999935
        },
        {
          "name": "D7",
          "midi": 98,
          "time": 435.856707,
          "velocity": 0.7480314960629921,
          "duration": 0.6428564999999935
        },
        {
          "name": "C#4",
          "midi": 61,
          "time": 436.49956349999997,
          "velocity": 0.7480314960629921,
          "duration": 0.6428564999999935
        },
        {
          "name": "C#5",
          "midi": 73,
          "time": 436.49956349999997,
          "velocity": 0.7480314960629921,
          "duration": 0.6428564999999935
        },
        {
          "name": "C#6",
          "midi": 85,
          "time": 436.49956349999997,
          "velocity": 0.7480314960629921,
          "duration": 0.6428564999999935
        },
        {
          "name": "C#7",
          "midi": 97,
          "time": 436.49956349999997,
          "velocity": 0.7480314960629921,
          "duration": 0.6428564999999935
        },
        {
          "name": "C4",
          "midi": 60,
          "time": 437.14241999999996,
          "velocity": 0.7480314960629921,
          "duration": 0.4285709999999767
        },
        {
          "name": "C5",
          "midi": 72,
          "time": 437.14241999999996,
          "velocity": 0.7480314960629921,
          "duration": 0.4285709999999767
        },
        {
          "name": "C6",
          "midi": 84,
          "time": 437.14241999999996,
          "velocity": 0.7480314960629921,
          "duration": 0.4285709999999767
        },
        {
          "name": "C7",
          "midi": 96,
          "time": 437.14241999999996,
          "velocity": 0.7480314960629921,
          "duration": 0.4285709999999767
        },
        {
          "name": "C4",
          "midi": 60,
          "time": 437.57099099999994,
          "velocity": 0.7480314960629921,
          "duration": 0.21428550000001678
        },
        {
          "name": "C5",
          "midi": 72,
          "time": 437.57099099999994,
          "velocity": 0.7480314960629921,
          "duration": 0.21428550000001678
        },
        {
          "name": "C6",
          "midi": 84,
          "time": 437.57099099999994,
          "velocity": 0.7480314960629921,
          "duration": 0.21428550000001678
        },
        {
          "name": "C7",
          "midi": 96,
          "time": 437.57099099999994,
          "velocity": 0.7480314960629921,
          "duration": 0.21428550000001678
        },
        {
          "name": "C4",
          "midi": 60,
          "time": 437.78527649999995,
          "velocity": 0.7480314960629921,
          "duration": 0.21428550000001678
        },
        {
          "name": "C5",
          "midi": 72,
          "time": 437.78527649999995,
          "velocity": 0.7480314960629921,
          "duration": 0.21428550000001678
        },
        {
          "name": "C6",
          "midi": 84,
          "time": 437.78527649999995,
          "velocity": 0.7480314960629921,
          "duration": 0.21428550000001678
        },
        {
          "name": "C7",
          "midi": 96,
          "time": 437.78527649999995,
          "velocity": 0.7480314960629921,
          "duration": 0.21428550000001678
        },
        {
          "name": "C4",
          "midi": 60,
          "time": 437.99956199999997,
          "velocity": 0.7480314960629921,
          "duration": 0.4285709999999767
        },
        {
          "name": "C5",
          "midi": 72,
          "time": 437.99956199999997,
          "velocity": 0.7480314960629921,
          "duration": 0.4285709999999767
        },
        {
          "name": "C6",
          "midi": 84,
          "time": 437.99956199999997,
          "velocity": 0.7480314960629921,
          "duration": 0.4285709999999767
        },
        {
          "name": "C7",
          "midi": 96,
          "time": 437.99956199999997,
          "velocity": 0.7480314960629921,
          "duration": 0.4285709999999767
        },
        {
          "name": "C4",
          "midi": 60,
          "time": 438.42813299999995,
          "velocity": 0.7480314960629921,
          "duration": 0.4285709999999767
        },
        {
          "name": "C5",
          "midi": 72,
          "time": 438.42813299999995,
          "velocity": 0.7480314960629921,
          "duration": 0.4285709999999767
        },
        {
          "name": "C6",
          "midi": 84,
          "time": 438.42813299999995,
          "velocity": 0.7480314960629921,
          "duration": 0.4285709999999767
        },
        {
          "name": "C7",
          "midi": 96,
          "time": 438.42813299999995,
          "velocity": 0.7480314960629921,
          "duration": 0.4285709999999767
        },
        {
          "name": "E4",
          "midi": 64,
          "time": 438.9638467499999,
          "velocity": 0.7480314960629921,
          "duration": 5.142852000000005
        },
        {
          "name": "E5",
          "midi": 76,
          "time": 438.9638467499999,
          "velocity": 0.7480314960629921,
          "duration": 5.142852000000005
        },
        {
          "name": "E6",
          "midi": 88,
          "time": 438.9638467499999,
          "velocity": 0.7480314960629921,
          "duration": 5.142852000000005
        },
        {
          "name": "E7",
          "midi": 100,
          "time": 438.9638467499999,
          "velocity": 0.7480314960629921,
          "duration": 5.142852000000005
        },
        {
          "name": "E4",
          "midi": 64,
          "time": 444.3209842499999,
          "velocity": 0.7480314960629921,
          "duration": 0.21428550000001678
        },
        {
          "name": "E5",
          "midi": 76,
          "time": 444.3209842499999,
          "velocity": 0.7480314960629921,
          "duration": 0.21428550000001678
        },
        {
          "name": "E6",
          "midi": 88,
          "time": 444.3209842499999,
          "velocity": 0.7480314960629921,
          "duration": 0.21428550000001678
        },
        {
          "name": "E7",
          "midi": 100,
          "time": 444.3209842499999,
          "velocity": 0.7480314960629921,
          "duration": 0.21428550000001678
        },
        {
          "name": "E4",
          "midi": 64,
          "time": 444.53526974999994,
          "velocity": 0.7480314960629921,
          "duration": 0.21428550000001678
        },
        {
          "name": "E5",
          "midi": 76,
          "time": 444.53526974999994,
          "velocity": 0.7480314960629921,
          "duration": 0.21428550000001678
        },
        {
          "name": "E6",
          "midi": 88,
          "time": 444.53526974999994,
          "velocity": 0.7480314960629921,
          "duration": 0.21428550000001678
        },
        {
          "name": "E7",
          "midi": 100,
          "time": 444.53526974999994,
          "velocity": 0.7480314960629921,
          "duration": 0.21428550000001678
        },
        {
          "name": "E4",
          "midi": 64,
          "time": 444.74955524999996,
          "velocity": 0.7480314960629921,
          "duration": 0.4285709999999767
        },
        {
          "name": "E5",
          "midi": 76,
          "time": 444.74955524999996,
          "velocity": 0.7480314960629921,
          "duration": 0.4285709999999767
        },
        {
          "name": "E6",
          "midi": 88,
          "time": 444.74955524999996,
          "velocity": 0.7480314960629921,
          "duration": 0.4285709999999767
        },
        {
          "name": "E7",
          "midi": 100,
          "time": 444.74955524999996,
          "velocity": 0.7480314960629921,
          "duration": 0.4285709999999767
        },
        {
          "name": "E4",
          "midi": 64,
          "time": 445.17812624999993,
          "velocity": 0.7480314960629921,
          "duration": 0.21428550000001678
        },
        {
          "name": "E5",
          "midi": 76,
          "time": 445.17812624999993,
          "velocity": 0.7480314960629921,
          "duration": 0.21428550000001678
        },
        {
          "name": "E6",
          "midi": 88,
          "time": 445.17812624999993,
          "velocity": 0.7480314960629921,
          "duration": 0.21428550000001678
        },
        {
          "name": "E7",
          "midi": 100,
          "time": 445.17812624999993,
          "velocity": 0.7480314960629921,
          "duration": 0.21428550000001678
        },
        {
          "name": "E4",
          "midi": 64,
          "time": 445.39241174999995,
          "velocity": 0.7480314960629921,
          "duration": 0.21428550000001678
        },
        {
          "name": "E5",
          "midi": 76,
          "time": 445.39241174999995,
          "velocity": 0.7480314960629921,
          "duration": 0.21428550000001678
        },
        {
          "name": "E6",
          "midi": 88,
          "time": 445.39241174999995,
          "velocity": 0.7480314960629921,
          "duration": 0.21428550000001678
        },
        {
          "name": "E7",
          "midi": 100,
          "time": 445.39241174999995,
          "velocity": 0.7480314960629921,
          "duration": 0.21428550000001678
        },
        {
          "name": "E4",
          "midi": 64,
          "time": 445.60669724999997,
          "velocity": 0.7480314960629921,
          "duration": 1.071427500000027
        },
        {
          "name": "E5",
          "midi": 76,
          "time": 445.60669724999997,
          "velocity": 0.7480314960629921,
          "duration": 1.071427500000027
        },
        {
          "name": "E6",
          "midi": 88,
          "time": 445.60669724999997,
          "velocity": 0.7480314960629921,
          "duration": 1.071427500000027
        },
        {
          "name": "E7",
          "midi": 100,
          "time": 445.60669724999997,
          "velocity": 0.7480314960629921,
          "duration": 1.071427500000027
        },
        {
          "name": "D#4",
          "midi": 63,
          "time": 446.67812475,
          "velocity": 0.7480314960629921,
          "duration": 0.4285709999999767
        },
        {
          "name": "D#5",
          "midi": 75,
          "time": 446.67812475,
          "velocity": 0.7480314960629921,
          "duration": 0.4285709999999767
        },
        {
          "name": "D#6",
          "midi": 87,
          "time": 446.67812475,
          "velocity": 0.7480314960629921,
          "duration": 0.4285709999999767
        },
        {
          "name": "D#7",
          "midi": 99,
          "time": 446.67812475,
          "velocity": 0.7480314960629921,
          "duration": 0.4285709999999767
        },
        {
          "name": "E4",
          "midi": 64,
          "time": 447.10669575,
          "velocity": 0.7480314960629921,
          "duration": 0.8571420000000103
        },
        {
          "name": "E5",
          "midi": 76,
          "time": 447.10669575,
          "velocity": 0.7480314960629921,
          "duration": 0.8571420000000103
        },
        {
          "name": "E6",
          "midi": 88,
          "time": 447.10669575,
          "velocity": 0.7480314960629921,
          "duration": 0.8571420000000103
        },
        {
          "name": "E7",
          "midi": 100,
          "time": 447.10669575,
          "velocity": 0.7480314960629921,
          "duration": 0.8571420000000103
        },
        {
          "name": "D4",
          "midi": 62,
          "time": 447.96383775,
          "velocity": 0.7480314960629921,
          "duration": 0.8571420000000103
        },
        {
          "name": "D5",
          "midi": 74,
          "time": 447.96383775,
          "velocity": 0.7480314960629921,
          "duration": 0.8571420000000103
        },
        {
          "name": "D6",
          "midi": 86,
          "time": 447.96383775,
          "velocity": 0.7480314960629921,
          "duration": 0.8571420000000103
        },
        {
          "name": "D7",
          "midi": 98,
          "time": 447.96383775,
          "velocity": 0.7480314960629921,
          "duration": 0.8571420000000103
        },
        {
          "name": "E4",
          "midi": 64,
          "time": 448.82097975,
          "velocity": 0.7480314960629921,
          "duration": 0.4285709999999767
        },
        {
          "name": "E5",
          "midi": 76,
          "time": 448.82097975,
          "velocity": 0.7480314960629921,
          "duration": 0.4285709999999767
        },
        {
          "name": "E6",
          "midi": 88,
          "time": 448.82097975,
          "velocity": 0.7480314960629921,
          "duration": 0.4285709999999767
        },
        {
          "name": "E7",
          "midi": 100,
          "time": 448.82097975,
          "velocity": 0.7480314960629921,
          "duration": 0.4285709999999767
        },
        {
          "name": "C#4",
          "midi": 61,
          "time": 449.24955074999997,
          "velocity": 0.7480314960629921,
          "duration": 2.1428549999999973
        },
        {
          "name": "C#5",
          "midi": 73,
          "time": 449.24955074999997,
          "velocity": 0.7480314960629921,
          "duration": 2.1428549999999973
        },
        {
          "name": "C#6",
          "midi": 85,
          "time": 449.24955074999997,
          "velocity": 0.7480314960629921,
          "duration": 2.1428549999999973
        },
        {
          "name": "C#7",
          "midi": 97,
          "time": 449.24955074999997,
          "velocity": 0.7480314960629921,
          "duration": 2.1428549999999973
        },
        {
          "name": "C#4",
          "midi": 61,
          "time": 451.39240574999997,
          "velocity": 0.7480314960629921,
          "duration": 0.4285709999999767
        },
        {
          "name": "C#5",
          "midi": 73,
          "time": 451.39240574999997,
          "velocity": 0.7480314960629921,
          "duration": 0.4285709999999767
        },
        {
          "name": "C#6",
          "midi": 85,
          "time": 451.39240574999997,
          "velocity": 0.7480314960629921,
          "duration": 0.4285709999999767
        },
        {
          "name": "C#7",
          "midi": 97,
          "time": 451.39240574999997,
          "velocity": 0.7480314960629921,
          "duration": 0.4285709999999767
        },
        {
          "name": "C4",
          "midi": 60,
          "time": 451.82097674999994,
          "velocity": 0.7480314960629921,
          "duration": 0.21428550000001678
        },
        {
          "name": "C5",
          "midi": 72,
          "time": 451.82097674999994,
          "velocity": 0.7480314960629921,
          "duration": 0.21428550000001678
        },
        {
          "name": "C6",
          "midi": 84,
          "time": 451.82097674999994,
          "velocity": 0.7480314960629921,
          "duration": 0.21428550000001678
        },
        {
          "name": "C7",
          "midi": 96,
          "time": 451.82097674999994,
          "velocity": 0.7480314960629921,
          "duration": 0.21428550000001678
        },
        {
          "name": "C#4",
          "midi": 61,
          "time": 452.03526224999996,
          "velocity": 0.7480314960629921,
          "duration": 0.21428550000001678
        },
        {
          "name": "C#5",
          "midi": 73,
          "time": 452.03526224999996,
          "velocity": 0.7480314960629921,
          "duration": 0.21428550000001678
        },
        {
          "name": "C#6",
          "midi": 85,
          "time": 452.03526224999996,
          "velocity": 0.7480314960629921,
          "duration": 0.21428550000001678
        },
        {
          "name": "C#7",
          "midi": 97,
          "time": 452.03526224999996,
          "velocity": 0.7480314960629921,
          "duration": 0.21428550000001678
        },
        {
          "name": "C4",
          "midi": 60,
          "time": 452.24954775,
          "velocity": 0.7480314960629921,
          "duration": 0.4285709999999767
        },
        {
          "name": "C5",
          "midi": 72,
          "time": 452.24954775,
          "velocity": 0.7480314960629921,
          "duration": 0.4285709999999767
        },
        {
          "name": "C6",
          "midi": 84,
          "time": 452.24954775,
          "velocity": 0.7480314960629921,
          "duration": 0.4285709999999767
        },
        {
          "name": "C7",
          "midi": 96,
          "time": 452.24954775,
          "velocity": 0.7480314960629921,
          "duration": 0.4285709999999767
        },
        {
          "name": "C#4",
          "midi": 61,
          "time": 452.67811874999995,
          "velocity": 0.7480314960629921,
          "duration": 6.857136000000025
        },
        {
          "name": "C#5",
          "midi": 73,
          "time": 452.67811874999995,
          "velocity": 0.7480314960629921,
          "duration": 6.857136000000025
        },
        {
          "name": "C#6",
          "midi": 85,
          "time": 452.67811874999995,
          "velocity": 0.7480314960629921,
          "duration": 6.857136000000025
        },
        {
          "name": "C#7",
          "midi": 97,
          "time": 452.67811874999995,
          "velocity": 0.7480314960629921,
          "duration": 6.857136000000025
        }
      ],
      "controlChanges": {},
      "id": 4,
      "name": "PART KEYS",
      "channelNumber": 0,
      "isPercussion": false
    },
    {
      "startTime": 0.6428565,
      "duration": 3.3214252500000003,
      "length": 3,
      "notes": [
        {
          "name": "C-1",
          "midi": 0,
          "time": 0.6428565,
          "velocity": 0.7559055118110236,
          "duration": 0.10714275000000006
        },
        {
          "name": "F-1",
          "midi": 5,
          "time": 1.4999985000000002,
          "velocity": 0.7559055118110236,
          "duration": 0.10714274999999995
        },
        {
          "name": "A-1",
          "midi": 9,
          "time": 3.2142825000000004,
          "velocity": 0.7559055118110236,
          "duration": 0.10714274999999995
        }
      ],
      "controlChanges": {},
      "id": 5,
      "name": "PART REAL_KEYS_E",
      "channelNumber": 0,
      "isPercussion": false
    },
    {
      "startTime": 0.6428565,
      "duration": 3.3214252500000003,
      "length": 3,
      "notes": [
        {
          "name": "C-1",
          "midi": 0,
          "time": 0.6428565,
          "velocity": 0.7559055118110236,
          "duration": 0.10714275000000006
        },
        {
          "name": "F-1",
          "midi": 5,
          "time": 1.4999985000000002,
          "velocity": 0.7559055118110236,
          "duration": 0.10714274999999995
        },
        {
          "name": "A-1",
          "midi": 9,
          "time": 3.2142825000000004,
          "velocity": 0.7559055118110236,
          "duration": 0.10714274999999995
        }
      ],
      "controlChanges": {},
      "id": 6,
      "name": "PART REAL_KEYS_M",
      "channelNumber": 0,
      "isPercussion": false
    },
    {
      "startTime": 0.6428565,
      "duration": 3.3214252500000003,
      "length": 3,
      "notes": [
        {
          "name": "C-1",
          "midi": 0,
          "time": 0.6428565,
          "velocity": 0.7559055118110236,
          "duration": 0.10714275000000006
        },
        {
          "name": "F-1",
          "midi": 5,
          "time": 1.4999985000000002,
          "velocity": 0.7559055118110236,
          "duration": 0.10714274999999995
        },
        {
          "name": "A-1",
          "midi": 9,
          "time": 3.2142825000000004,
          "velocity": 0.7559055118110236,
          "duration": 0.10714274999999995
        }
      ],
      "controlChanges": {},
      "id": 7,
      "name": "PART REAL_KEYS_H",
      "channelNumber": 0,
      "isPercussion": false
    },
    {
      "startTime": 0.6428565,
      "duration": 3.3214252500000003,
      "length": 3,
      "notes": [
        {
          "name": "C-1",
          "midi": 0,
          "time": 0.6428565,
          "velocity": 0.7559055118110236,
          "duration": 0.10714275000000006
        },
        {
          "name": "F-1",
          "midi": 5,
          "time": 1.4999985000000002,
          "velocity": 0.7559055118110236,
          "duration": 0.10714274999999995
        },
        {
          "name": "A-1",
          "midi": 9,
          "time": 3.2142825000000004,
          "velocity": 0.7559055118110236,
          "duration": 0.10714274999999995
        }
      ],
      "controlChanges": {},
      "id": 8,
      "name": "PART REAL_KEYS_X",
      "channelNumber": 0,
      "isPercussion": false
    },
    {
      "startTime": 0,
      "duration": 0,
      "length": 0,
      "notes": [],
      "controlChanges": {},
      "id": 9,
      "name": "PART KEYS_ANIM_LH"
    },
    {
      "startTime": 0,
      "duration": 0,
      "length": 0,
      "notes": [],
      "controlChanges": {},
      "id": 10,
      "name": "PART KEYS_ANIM_RH"
    },
    {
      "startTime": 0,
      "duration": 0,
      "length": 0,
      "notes": [],
      "controlChanges": {},
      "id": 11,
      "name": "EVENTS"
    },
    {
      "startTime": 0,
      "duration": 0,
      "length": 0,
      "notes": [],
      "controlChanges": {},
      "id": 12,
      "name": "VENUE"
    },
    {
      "startTime": 0,
      "duration": 520.3923367499868,
      "length": 1215,
      "notes": [
        {
          "name": "C0",
          "midi": 12,
          "time": 0,
          "velocity": 0.7874015748031497,
          "duration": 0.10714275000000001
        },
        {
          "name": "C#0",
          "midi": 13,
          "time": 0.42857100000000004,
          "velocity": 0.7874015748031497,
          "duration": 0.10714274999999995
        },
        {
          "name": "C#0",
          "midi": 13,
          "time": 0.8571420000000001,
          "velocity": 0.7874015748031497,
          "duration": 0.10714274999999995
        },
        {
          "name": "C#0",
          "midi": 13,
          "time": 1.285713,
          "velocity": 0.7874015748031497,
          "duration": 0.10714274999999995
        },
        {
          "name": "C0",
          "midi": 12,
          "time": 1.7142840000000001,
          "velocity": 0.7874015748031497,
          "duration": 0.10714274999999995
        },
        {
          "name": "C#0",
          "midi": 13,
          "time": 2.142855,
          "velocity": 0.7874015748031497,
          "duration": 0.10714274999999995
        },
        {
          "name": "C#0",
          "midi": 13,
          "time": 2.5714259999999998,
          "velocity": 0.7874015748031497,
          "duration": 0.10714274999999995
        },
        {
          "name": "C#0",
          "midi": 13,
          "time": 2.9999969999999996,
          "velocity": 0.7874015748031497,
          "duration": 0.10714274999999995
        },
        {
          "name": "C0",
          "midi": 12,
          "time": 3.4285679999999994,
          "velocity": 0.7874015748031497,
          "duration": 0.10714274999999995
        },
        {
          "name": "C#0",
          "midi": 13,
          "time": 3.857138999999999,
          "velocity": 0.7874015748031497,
          "duration": 0.10714274999999995
        },
        {
          "name": "C#0",
          "midi": 13,
          "time": 4.285709999999999,
          "velocity": 0.7874015748031497,
          "duration": 0.1071427500000004
        },
        {
          "name": "C#0",
          "midi": 13,
          "time": 4.714281,
          "velocity": 0.7874015748031497,
          "duration": 0.1071427500000004
        },
        {
          "name": "C0",
          "midi": 12,
          "time": 5.142852,
          "velocity": 0.7874015748031497,
          "duration": 0.1071427500000004
        },
        {
          "name": "C#0",
          "midi": 13,
          "time": 5.571423000000001,
          "velocity": 0.7874015748031497,
          "duration": 0.1071427500000004
        },
        {
          "name": "C#0",
          "midi": 13,
          "time": 5.999994000000002,
          "velocity": 0.7874015748031497,
          "duration": 0.1071427500000004
        },
        {
          "name": "C#0",
          "midi": 13,
          "time": 6.4285650000000025,
          "velocity": 0.7874015748031497,
          "duration": 0.1071427500000004
        },
        {
          "name": "C0",
          "midi": 12,
          "time": 6.857136000000003,
          "velocity": 0.7874015748031497,
          "duration": 0.1071427500000004
        },
        {
          "name": "C#0",
          "midi": 13,
          "time": 7.285707000000004,
          "velocity": 0.7874015748031497,
          "duration": 0.1071427500000004
        },
        {
          "name": "C#0",
          "midi": 13,
          "time": 7.714278000000005,
          "velocity": 0.7874015748031497,
          "duration": 0.1071427500000004
        },
        {
          "name": "C#0",
          "midi": 13,
          "time": 8.142849000000005,
          "velocity": 0.7874015748031497,
          "duration": 0.10714274999999951
        },
        {
          "name": "C0",
          "midi": 12,
          "time": 8.571420000000005,
          "velocity": 0.7874015748031497,
          "duration": 0.10714274999999951
        },
        {
          "name": "C#0",
          "midi": 13,
          "time": 8.999991000000005,
          "velocity": 0.7874015748031497,
          "duration": 0.10714274999999951
        },
        {
          "name": "C#0",
          "midi": 13,
          "time": 9.428562000000005,
          "velocity": 0.7874015748031497,
          "duration": 0.10714274999999951
        },
        {
          "name": "C#0",
          "midi": 13,
          "time": 9.857133000000005,
          "velocity": 0.7874015748031497,
          "duration": 0.10714274999999951
        },
        {
          "name": "C0",
          "midi": 12,
          "time": 10.285704000000004,
          "velocity": 0.7874015748031497,
          "duration": 0.10714274999999951
        },
        {
          "name": "C#0",
          "midi": 13,
          "time": 10.714275000000004,
          "velocity": 0.7874015748031497,
          "duration": 0.10714274999999951
        },
        {
          "name": "C#0",
          "midi": 13,
          "time": 11.142846000000004,
          "velocity": 0.7874015748031497,
          "duration": 0.10714274999999951
        },
        {
          "name": "C#0",
          "midi": 13,
          "time": 11.571417000000004,
          "velocity": 0.7874015748031497,
          "duration": 0.10714274999999951
        },
        {
          "name": "C0",
          "midi": 12,
          "time": 11.999988000000004,
          "velocity": 0.7874015748031497,
          "duration": 0.10714274999999951
        },
        {
          "name": "C#0",
          "midi": 13,
          "time": 12.428559000000003,
          "velocity": 0.7874015748031497,
          "duration": 0.10714274999999951
        },
        {
          "name": "C#0",
          "midi": 13,
          "time": 12.857130000000003,
          "velocity": 0.7874015748031497,
          "duration": 0.10714274999999951
        },
        {
          "name": "C#0",
          "midi": 13,
          "time": 13.285701000000003,
          "velocity": 0.7874015748031497,
          "duration": 0.10714274999999951
        },
        {
          "name": "C0",
          "midi": 12,
          "time": 13.714272000000003,
          "velocity": 0.7874015748031497,
          "duration": 0.10714274999999951
        },
        {
          "name": "C#0",
          "midi": 13,
          "time": 14.142843000000003,
          "velocity": 0.7874015748031497,
          "duration": 0.10714274999999951
        },
        {
          "name": "C#0",
          "midi": 13,
          "time": 14.571414000000003,
          "velocity": 0.7874015748031497,
          "duration": 0.10714274999999951
        },
        {
          "name": "C#0",
          "midi": 13,
          "time": 14.999985000000002,
          "velocity": 0.7874015748031497,
          "duration": 0.10714274999999951
        },
        {
          "name": "C0",
          "midi": 12,
          "time": 15.428556000000002,
          "velocity": 0.7874015748031497,
          "duration": 0.10714274999999951
        },
        {
          "name": "C#0",
          "midi": 13,
          "time": 15.857127000000002,
          "velocity": 0.7874015748031497,
          "duration": 0.10714274999999951
        },
        {
          "name": "C#0",
          "midi": 13,
          "time": 16.285698,
          "velocity": 0.7874015748031497,
          "duration": 0.10714275000000129
        },
        {
          "name": "C#0",
          "midi": 13,
          "time": 16.714269,
          "velocity": 0.7874015748031497,
          "duration": 0.10714275000000129
        },
        {
          "name": "C0",
          "midi": 12,
          "time": 17.142840000000003,
          "velocity": 0.7874015748031497,
          "duration": 0.10714275000000129
        },
        {
          "name": "C#0",
          "midi": 13,
          "time": 17.571411000000005,
          "velocity": 0.7874015748031497,
          "duration": 0.10714275000000129
        },
        {
          "name": "C#0",
          "midi": 13,
          "time": 17.999982000000006,
          "velocity": 0.7874015748031497,
          "duration": 0.10714275000000129
        },
        {
          "name": "C#0",
          "midi": 13,
          "time": 18.428553000000008,
          "velocity": 0.7874015748031497,
          "duration": 0.10714275000000129
        },
        {
          "name": "C0",
          "midi": 12,
          "time": 18.85712400000001,
          "velocity": 0.7874015748031497,
          "duration": 0.10714275000000129
        },
        {
          "name": "C#0",
          "midi": 13,
          "time": 19.28569500000001,
          "velocity": 0.7874015748031497,
          "duration": 0.10714275000000129
        },
        {
          "name": "C#0",
          "midi": 13,
          "time": 19.714266000000013,
          "velocity": 0.7874015748031497,
          "duration": 0.10714275000000129
        },
        {
          "name": "C#0",
          "midi": 13,
          "time": 20.142837000000014,
          "velocity": 0.7874015748031497,
          "duration": 0.10714275000000129
        },
        {
          "name": "C0",
          "midi": 12,
          "time": 20.571408000000016,
          "velocity": 0.7874015748031497,
          "duration": 0.10714275000000129
        },
        {
          "name": "C#0",
          "midi": 13,
          "time": 20.999979000000017,
          "velocity": 0.7874015748031497,
          "duration": 0.10714275000000129
        },
        {
          "name": "C#0",
          "midi": 13,
          "time": 21.42855000000002,
          "velocity": 0.7874015748031497,
          "duration": 0.10714275000000129
        },
        {
          "name": "C#0",
          "midi": 13,
          "time": 21.85712100000002,
          "velocity": 0.7874015748031497,
          "duration": 0.10714275000000129
        },
        {
          "name": "C0",
          "midi": 12,
          "time": 22.285692000000022,
          "velocity": 0.7874015748031497,
          "duration": 0.10714275000000129
        },
        {
          "name": "C#0",
          "midi": 13,
          "time": 22.714263000000024,
          "velocity": 0.7874015748031497,
          "duration": 0.10714275000000129
        },
        {
          "name": "C#0",
          "midi": 13,
          "time": 23.142834000000025,
          "velocity": 0.7874015748031497,
          "duration": 0.10714275000000129
        },
        {
          "name": "C#0",
          "midi": 13,
          "time": 23.571405000000027,
          "velocity": 0.7874015748031497,
          "duration": 0.10714275000000129
        },
        {
          "name": "C0",
          "midi": 12,
          "time": 23.99997600000003,
          "velocity": 0.7874015748031497,
          "duration": 0.10714275000000129
        },
        {
          "name": "C#0",
          "midi": 13,
          "time": 24.42854700000003,
          "velocity": 0.7874015748031497,
          "duration": 0.10714275000000129
        },
        {
          "name": "C#0",
          "midi": 13,
          "time": 24.857118000000032,
          "velocity": 0.7874015748031497,
          "duration": 0.10714275000000129
        },
        {
          "name": "C#0",
          "midi": 13,
          "time": 25.285689000000033,
          "velocity": 0.7874015748031497,
          "duration": 0.10714275000000129
        },
        {
          "name": "C0",
          "midi": 12,
          "time": 25.714260000000035,
          "velocity": 0.7874015748031497,
          "duration": 0.10714275000000129
        },
        {
          "name": "C#0",
          "midi": 13,
          "time": 26.142831000000037,
          "velocity": 0.7874015748031497,
          "duration": 0.10714275000000129
        },
        {
          "name": "C#0",
          "midi": 13,
          "time": 26.571402000000038,
          "velocity": 0.7874015748031497,
          "duration": 0.10714275000000129
        },
        {
          "name": "C#0",
          "midi": 13,
          "time": 26.99997300000004,
          "velocity": 0.7874015748031497,
          "duration": 0.10714275000000129
        },
        {
          "name": "C0",
          "midi": 12,
          "time": 27.42854400000004,
          "velocity": 0.7874015748031497,
          "duration": 0.10714275000000129
        },
        {
          "name": "C#0",
          "midi": 13,
          "time": 27.857115000000043,
          "velocity": 0.7874015748031497,
          "duration": 0.10714275000000129
        },
        {
          "name": "C#0",
          "midi": 13,
          "time": 28.285686000000045,
          "velocity": 0.7874015748031497,
          "duration": 0.10714275000000129
        },
        {
          "name": "C#0",
          "midi": 13,
          "time": 28.714257000000046,
          "velocity": 0.7874015748031497,
          "duration": 0.10714275000000129
        },
        {
          "name": "C0",
          "midi": 12,
          "time": 29.142828000000048,
          "velocity": 0.7874015748031497,
          "duration": 0.10714275000000129
        },
        {
          "name": "C#0",
          "midi": 13,
          "time": 29.57139900000005,
          "velocity": 0.7874015748031497,
          "duration": 0.10714275000000129
        },
        {
          "name": "C#0",
          "midi": 13,
          "time": 29.99997000000005,
          "velocity": 0.7874015748031497,
          "duration": 0.10714275000000129
        },
        {
          "name": "C#0",
          "midi": 13,
          "time": 30.428541000000052,
          "velocity": 0.7874015748031497,
          "duration": 0.10714275000000129
        },
        {
          "name": "C0",
          "midi": 12,
          "time": 30.857112000000054,
          "velocity": 0.7874015748031497,
          "duration": 0.10714275000000129
        },
        {
          "name": "C#0",
          "midi": 13,
          "time": 31.285683000000056,
          "velocity": 0.7874015748031497,
          "duration": 0.10714275000000129
        },
        {
          "name": "C#0",
          "midi": 13,
          "time": 31.714254000000057,
          "velocity": 0.7874015748031497,
          "duration": 0.10714275000000129
        },
        {
          "name": "C#0",
          "midi": 13,
          "time": 32.14282500000006,
          "velocity": 0.7874015748031497,
          "duration": 0.10714275000000129
        },
        {
          "name": "C0",
          "midi": 12,
          "time": 32.57139600000006,
          "velocity": 0.7874015748031497,
          "duration": 0.10714275000000129
        },
        {
          "name": "C#0",
          "midi": 13,
          "time": 32.999967000000055,
          "velocity": 0.7874015748031497,
          "duration": 0.10714275000000129
        },
        {
          "name": "C#0",
          "midi": 13,
          "time": 33.42853800000005,
          "velocity": 0.7874015748031497,
          "duration": 0.10714275000000129
        },
        {
          "name": "C#0",
          "midi": 13,
          "time": 33.85710900000005,
          "velocity": 0.7874015748031497,
          "duration": 0.10714275000000129
        },
        {
          "name": "C0",
          "midi": 12,
          "time": 34.28568000000005,
          "velocity": 0.7874015748031497,
          "duration": 0.10714275000000129
        },
        {
          "name": "C#0",
          "midi": 13,
          "time": 34.71425100000005,
          "velocity": 0.7874015748031497,
          "duration": 0.10714275000000129
        },
        {
          "name": "C#0",
          "midi": 13,
          "time": 35.142822000000045,
          "velocity": 0.7874015748031497,
          "duration": 0.10714275000000129
        },
        {
          "name": "C#0",
          "midi": 13,
          "time": 35.57139300000004,
          "velocity": 0.7874015748031497,
          "duration": 0.10714275000000129
        },
        {
          "name": "C0",
          "midi": 12,
          "time": 35.99996400000004,
          "velocity": 0.7874015748031497,
          "duration": 0.10714275000000129
        },
        {
          "name": "C#0",
          "midi": 13,
          "time": 36.42853500000004,
          "velocity": 0.7874015748031497,
          "duration": 0.10714275000000129
        },
        {
          "name": "C#0",
          "midi": 13,
          "time": 36.85710600000004,
          "velocity": 0.7874015748031497,
          "duration": 0.10714275000000129
        },
        {
          "name": "C#0",
          "midi": 13,
          "time": 37.285677000000035,
          "velocity": 0.7874015748031497,
          "duration": 0.10714275000000129
        },
        {
          "name": "C0",
          "midi": 12,
          "time": 37.71424800000003,
          "velocity": 0.7874015748031497,
          "duration": 0.10714275000000129
        },
        {
          "name": "C#0",
          "midi": 13,
          "time": 38.14281900000003,
          "velocity": 0.7874015748031497,
          "duration": 0.10714275000000129
        },
        {
          "name": "C#0",
          "midi": 13,
          "time": 38.57139000000003,
          "velocity": 0.7874015748031497,
          "duration": 0.10714275000000129
        },
        {
          "name": "C#0",
          "midi": 13,
          "time": 38.99996100000003,
          "velocity": 0.7874015748031497,
          "duration": 0.10714275000000129
        },
        {
          "name": "C0",
          "midi": 12,
          "time": 39.428532000000025,
          "velocity": 0.7874015748031497,
          "duration": 0.10714275000000129
        },
        {
          "name": "C#0",
          "midi": 13,
          "time": 39.85710300000002,
          "velocity": 0.7874015748031497,
          "duration": 0.10714275000000129
        },
        {
          "name": "C#0",
          "midi": 13,
          "time": 40.28567400000002,
          "velocity": 0.7874015748031497,
          "duration": 0.10714275000000129
        },
        {
          "name": "C#0",
          "midi": 13,
          "time": 40.71424500000002,
          "velocity": 0.7874015748031497,
          "duration": 0.10714275000000129
        },
        {
          "name": "C0",
          "midi": 12,
          "time": 41.14281600000002,
          "velocity": 0.7874015748031497,
          "duration": 0.10714275000000129
        },
        {
          "name": "C#0",
          "midi": 13,
          "time": 41.571387000000016,
          "velocity": 0.7874015748031497,
          "duration": 0.10714275000000129
        },
        {
          "name": "C#0",
          "midi": 13,
          "time": 41.999958000000014,
          "velocity": 0.7874015748031497,
          "duration": 0.10714275000000129
        },
        {
          "name": "C#0",
          "midi": 13,
          "time": 42.42852900000001,
          "velocity": 0.7874015748031497,
          "duration": 0.10714275000000129
        },
        {
          "name": "C0",
          "midi": 12,
          "time": 42.85710000000001,
          "velocity": 0.7874015748031497,
          "duration": 0.10714275000000129
        },
        {
          "name": "C#0",
          "midi": 13,
          "time": 43.28567100000001,
          "velocity": 0.7874015748031497,
          "duration": 0.10714275000000129
        },
        {
          "name": "C#0",
          "midi": 13,
          "time": 43.714242000000006,
          "velocity": 0.7874015748031497,
          "duration": 0.10714275000000129
        },
        {
          "name": "C#0",
          "midi": 13,
          "time": 44.142813000000004,
          "velocity": 0.7874015748031497,
          "duration": 0.10714275000000129
        },
        {
          "name": "C0",
          "midi": 12,
          "time": 44.571384,
          "velocity": 0.7874015748031497,
          "duration": 0.10714275000000129
        },
        {
          "name": "C#0",
          "midi": 13,
          "time": 44.999955,
          "velocity": 0.7874015748031497,
          "duration": 0.10714275000000129
        },
        {
          "name": "C#0",
          "midi": 13,
          "time": 45.428526,
          "velocity": 0.7874015748031497,
          "duration": 0.10714275000000129
        },
        {
          "name": "C#0",
          "midi": 13,
          "time": 45.857096999999996,
          "velocity": 0.7874015748031497,
          "duration": 0.10714275000000129
        },
        {
          "name": "C0",
          "midi": 12,
          "time": 46.285667999999994,
          "velocity": 0.7874015748031497,
          "duration": 0.10714275000000129
        },
        {
          "name": "C#0",
          "midi": 13,
          "time": 46.71423899999999,
          "velocity": 0.7874015748031497,
          "duration": 0.10714275000000129
        },
        {
          "name": "C#0",
          "midi": 13,
          "time": 47.14280999999999,
          "velocity": 0.7874015748031497,
          "duration": 0.10714275000000129
        },
        {
          "name": "C#0",
          "midi": 13,
          "time": 47.57138099999999,
          "velocity": 0.7874015748031497,
          "duration": 0.10714275000000129
        },
        {
          "name": "C0",
          "midi": 12,
          "time": 47.999951999999986,
          "velocity": 0.7874015748031497,
          "duration": 0.10714275000000129
        },
        {
          "name": "C#0",
          "midi": 13,
          "time": 48.428522999999984,
          "velocity": 0.7874015748031497,
          "duration": 0.10714275000000129
        },
        {
          "name": "C#0",
          "midi": 13,
          "time": 48.85709399999998,
          "velocity": 0.7874015748031497,
          "duration": 0.10714275000000129
        },
        {
          "name": "C#0",
          "midi": 13,
          "time": 49.28566499999998,
          "velocity": 0.7874015748031497,
          "duration": 0.10714275000000129
        },
        {
          "name": "C0",
          "midi": 12,
          "time": 49.71423599999998,
          "velocity": 0.7874015748031497,
          "duration": 0.10714275000000129
        },
        {
          "name": "C#0",
          "midi": 13,
          "time": 50.142806999999976,
          "velocity": 0.7874015748031497,
          "duration": 0.10714275000000129
        },
        {
          "name": "C#0",
          "midi": 13,
          "time": 50.571377999999974,
          "velocity": 0.7874015748031497,
          "duration": 0.10714275000000129
        },
        {
          "name": "C#0",
          "midi": 13,
          "time": 50.99994899999997,
          "velocity": 0.7874015748031497,
          "duration": 0.10714275000000129
        },
        {
          "name": "C0",
          "midi": 12,
          "time": 51.42851999999997,
          "velocity": 0.7874015748031497,
          "duration": 0.10714275000000129
        },
        {
          "name": "C#0",
          "midi": 13,
          "time": 51.85709099999997,
          "velocity": 0.7874015748031497,
          "duration": 0.10714275000000129
        },
        {
          "name": "C#0",
          "midi": 13,
          "time": 52.28566199999997,
          "velocity": 0.7874015748031497,
          "duration": 0.10714275000000129
        },
        {
          "name": "C#0",
          "midi": 13,
          "time": 52.714232999999965,
          "velocity": 0.7874015748031497,
          "duration": 0.10714275000000129
        },
        {
          "name": "C0",
          "midi": 12,
          "time": 53.14280399999996,
          "velocity": 0.7874015748031497,
          "duration": 0.10714275000000129
        },
        {
          "name": "C#0",
          "midi": 13,
          "time": 53.57137499999996,
          "velocity": 0.7874015748031497,
          "duration": 0.10714275000000129
        },
        {
          "name": "C#0",
          "midi": 13,
          "time": 53.99994599999996,
          "velocity": 0.7874015748031497,
          "duration": 0.10714275000000129
        },
        {
          "name": "C#0",
          "midi": 13,
          "time": 54.42851699999996,
          "velocity": 0.7874015748031497,
          "duration": 0.10714275000000129
        },
        {
          "name": "C0",
          "midi": 12,
          "time": 54.857087999999955,
          "velocity": 0.7874015748031497,
          "duration": 0.10714275000000129
        },
        {
          "name": "C#0",
          "midi": 13,
          "time": 55.28565899999995,
          "velocity": 0.7874015748031497,
          "duration": 0.10714275000000129
        },
        {
          "name": "C#0",
          "midi": 13,
          "time": 55.71422999999995,
          "velocity": 0.7874015748031497,
          "duration": 0.10714275000000129
        },
        {
          "name": "C#0",
          "midi": 13,
          "time": 56.14280099999995,
          "velocity": 0.7874015748031497,
          "duration": 0.10714275000000129
        },
        {
          "name": "C0",
          "midi": 12,
          "time": 56.57137199999995,
          "velocity": 0.7874015748031497,
          "duration": 0.10714275000000129
        },
        {
          "name": "C#0",
          "midi": 13,
          "time": 56.999942999999945,
          "velocity": 0.7874015748031497,
          "duration": 0.10714275000000129
        },
        {
          "name": "C#0",
          "midi": 13,
          "time": 57.42851399999994,
          "velocity": 0.7874015748031497,
          "duration": 0.10714275000000129
        },
        {
          "name": "C#0",
          "midi": 13,
          "time": 57.85708499999994,
          "velocity": 0.7874015748031497,
          "duration": 0.10714275000000129
        },
        {
          "name": "C0",
          "midi": 12,
          "time": 58.28565599999994,
          "velocity": 0.7874015748031497,
          "duration": 0.10714275000000129
        },
        {
          "name": "C#0",
          "midi": 13,
          "time": 58.71422699999994,
          "velocity": 0.7874015748031497,
          "duration": 0.10714275000000129
        },
        {
          "name": "C#0",
          "midi": 13,
          "time": 59.142797999999935,
          "velocity": 0.7874015748031497,
          "duration": 0.10714275000000129
        },
        {
          "name": "C#0",
          "midi": 13,
          "time": 59.57136899999993,
          "velocity": 0.7874015748031497,
          "duration": 0.10714275000000129
        },
        {
          "name": "C0",
          "midi": 12,
          "time": 59.99993999999993,
          "velocity": 0.7874015748031497,
          "duration": 0.10714275000000129
        },
        {
          "name": "C#0",
          "midi": 13,
          "time": 60.42851099999993,
          "velocity": 0.7874015748031497,
          "duration": 0.10714275000000129
        },
        {
          "name": "C#0",
          "midi": 13,
          "time": 60.85708199999993,
          "velocity": 0.7874015748031497,
          "duration": 0.10714275000000129
        },
        {
          "name": "C#0",
          "midi": 13,
          "time": 61.285652999999925,
          "velocity": 0.7874015748031497,
          "duration": 0.10714275000000129
        },
        {
          "name": "C0",
          "midi": 12,
          "time": 61.71422399999992,
          "velocity": 0.7874015748031497,
          "duration": 0.10714275000000129
        },
        {
          "name": "C#0",
          "midi": 13,
          "time": 62.14279499999992,
          "velocity": 0.7874015748031497,
          "duration": 0.10714275000000129
        },
        {
          "name": "C#0",
          "midi": 13,
          "time": 62.57136599999992,
          "velocity": 0.7874015748031497,
          "duration": 0.10714275000000129
        },
        {
          "name": "C#0",
          "midi": 13,
          "time": 62.99993699999992,
          "velocity": 0.7874015748031497,
          "duration": 0.10714275000000129
        },
        {
          "name": "C0",
          "midi": 12,
          "time": 63.428507999999916,
          "velocity": 0.7874015748031497,
          "duration": 0.10714275000000129
        },
        {
          "name": "C#0",
          "midi": 13,
          "time": 63.85707899999991,
          "velocity": 0.7874015748031497,
          "duration": 0.10714275000000129
        },
        {
          "name": "C#0",
          "midi": 13,
          "time": 64.28564999999992,
          "velocity": 0.7874015748031497,
          "duration": 0.10714274999999418
        },
        {
          "name": "C#0",
          "midi": 13,
          "time": 64.71422099999991,
          "velocity": 0.7874015748031497,
          "duration": 0.10714274999999418
        },
        {
          "name": "C0",
          "midi": 12,
          "time": 65.1427919999999,
          "velocity": 0.7874015748031497,
          "duration": 0.10714274999999418
        },
        {
          "name": "C#0",
          "midi": 13,
          "time": 65.57136299999989,
          "velocity": 0.7874015748031497,
          "duration": 0.10714274999999418
        },
        {
          "name": "C#0",
          "midi": 13,
          "time": 65.99993399999988,
          "velocity": 0.7874015748031497,
          "duration": 0.10714274999999418
        },
        {
          "name": "C#0",
          "midi": 13,
          "time": 66.42850499999987,
          "velocity": 0.7874015748031497,
          "duration": 0.10714274999999418
        },
        {
          "name": "C0",
          "midi": 12,
          "time": 66.85707599999986,
          "velocity": 0.7874015748031497,
          "duration": 0.10714274999999418
        },
        {
          "name": "C#0",
          "midi": 13,
          "time": 67.28564699999986,
          "velocity": 0.7874015748031497,
          "duration": 0.10714274999999418
        },
        {
          "name": "C#0",
          "midi": 13,
          "time": 67.71421799999985,
          "velocity": 0.7874015748031497,
          "duration": 0.10714274999999418
        },
        {
          "name": "C#0",
          "midi": 13,
          "time": 68.14278899999984,
          "velocity": 0.7874015748031497,
          "duration": 0.10714274999999418
        },
        {
          "name": "C0",
          "midi": 12,
          "time": 68.57135999999983,
          "velocity": 0.7874015748031497,
          "duration": 0.10714274999999418
        },
        {
          "name": "C#0",
          "midi": 13,
          "time": 68.99993099999982,
          "velocity": 0.7874015748031497,
          "duration": 0.10714274999999418
        },
        {
          "name": "C#0",
          "midi": 13,
          "time": 69.42850199999981,
          "velocity": 0.7874015748031497,
          "duration": 0.10714274999999418
        },
        {
          "name": "C#0",
          "midi": 13,
          "time": 69.8570729999998,
          "velocity": 0.7874015748031497,
          "duration": 0.10714274999999418
        },
        {
          "name": "C0",
          "midi": 12,
          "time": 70.28564399999979,
          "velocity": 0.7874015748031497,
          "duration": 0.10714274999999418
        },
        {
          "name": "C#0",
          "midi": 13,
          "time": 70.71421499999978,
          "velocity": 0.7874015748031497,
          "duration": 0.10714274999999418
        },
        {
          "name": "C#0",
          "midi": 13,
          "time": 71.14278599999977,
          "velocity": 0.7874015748031497,
          "duration": 0.10714274999999418
        },
        {
          "name": "C#0",
          "midi": 13,
          "time": 71.57135699999976,
          "velocity": 0.7874015748031497,
          "duration": 0.10714274999999418
        },
        {
          "name": "C0",
          "midi": 12,
          "time": 71.99992799999976,
          "velocity": 0.7874015748031497,
          "duration": 0.10714274999999418
        },
        {
          "name": "C#0",
          "midi": 13,
          "time": 72.42849899999975,
          "velocity": 0.7874015748031497,
          "duration": 0.10714274999999418
        },
        {
          "name": "C#0",
          "midi": 13,
          "time": 72.85706999999974,
          "velocity": 0.7874015748031497,
          "duration": 0.10714274999999418
        },
        {
          "name": "C#0",
          "midi": 13,
          "time": 73.28564099999973,
          "velocity": 0.7874015748031497,
          "duration": 0.10714274999999418
        },
        {
          "name": "C0",
          "midi": 12,
          "time": 73.71421199999972,
          "velocity": 0.7874015748031497,
          "duration": 0.10714274999999418
        },
        {
          "name": "C#0",
          "midi": 13,
          "time": 74.14278299999971,
          "velocity": 0.7874015748031497,
          "duration": 0.10714274999999418
        },
        {
          "name": "C#0",
          "midi": 13,
          "time": 74.5713539999997,
          "velocity": 0.7874015748031497,
          "duration": 0.10714274999999418
        },
        {
          "name": "C#0",
          "midi": 13,
          "time": 74.99992499999969,
          "velocity": 0.7874015748031497,
          "duration": 0.10714274999999418
        },
        {
          "name": "C0",
          "midi": 12,
          "time": 75.42849599999968,
          "velocity": 0.7874015748031497,
          "duration": 0.10714274999999418
        },
        {
          "name": "C#0",
          "midi": 13,
          "time": 75.85706699999967,
          "velocity": 0.7874015748031497,
          "duration": 0.10714274999999418
        },
        {
          "name": "C#0",
          "midi": 13,
          "time": 76.28563799999966,
          "velocity": 0.7874015748031497,
          "duration": 0.10714274999999418
        },
        {
          "name": "C#0",
          "midi": 13,
          "time": 76.71420899999966,
          "velocity": 0.7874015748031497,
          "duration": 0.10714274999999418
        },
        {
          "name": "C0",
          "midi": 12,
          "time": 77.14277999999965,
          "velocity": 0.7874015748031497,
          "duration": 0.10714274999999418
        },
        {
          "name": "C#0",
          "midi": 13,
          "time": 77.57135099999964,
          "velocity": 0.7874015748031497,
          "duration": 0.10714274999999418
        },
        {
          "name": "C#0",
          "midi": 13,
          "time": 77.99992199999963,
          "velocity": 0.7874015748031497,
          "duration": 0.10714274999999418
        },
        {
          "name": "C#0",
          "midi": 13,
          "time": 78.42849299999962,
          "velocity": 0.7874015748031497,
          "duration": 0.10714274999999418
        },
        {
          "name": "C0",
          "midi": 12,
          "time": 78.85706399999961,
          "velocity": 0.7874015748031497,
          "duration": 0.10714274999999418
        },
        {
          "name": "C#0",
          "midi": 13,
          "time": 79.2856349999996,
          "velocity": 0.7874015748031497,
          "duration": 0.10714274999999418
        },
        {
          "name": "C#0",
          "midi": 13,
          "time": 79.71420599999959,
          "velocity": 0.7874015748031497,
          "duration": 0.10714274999999418
        },
        {
          "name": "C#0",
          "midi": 13,
          "time": 80.14277699999958,
          "velocity": 0.7874015748031497,
          "duration": 0.10714274999999418
        },
        {
          "name": "C0",
          "midi": 12,
          "time": 80.57134799999957,
          "velocity": 0.7874015748031497,
          "duration": 0.10714274999999418
        },
        {
          "name": "C#0",
          "midi": 13,
          "time": 80.99991899999957,
          "velocity": 0.7874015748031497,
          "duration": 0.10714274999999418
        },
        {
          "name": "C#0",
          "midi": 13,
          "time": 81.42848999999956,
          "velocity": 0.7874015748031497,
          "duration": 0.10714274999999418
        },
        {
          "name": "C#0",
          "midi": 13,
          "time": 81.85706099999955,
          "velocity": 0.7874015748031497,
          "duration": 0.10714274999999418
        },
        {
          "name": "C0",
          "midi": 12,
          "time": 82.28563199999954,
          "velocity": 0.7874015748031497,
          "duration": 0.10714274999999418
        },
        {
          "name": "C#0",
          "midi": 13,
          "time": 82.71420299999953,
          "velocity": 0.7874015748031497,
          "duration": 0.10714274999999418
        },
        {
          "name": "C#0",
          "midi": 13,
          "time": 83.14277399999952,
          "velocity": 0.7874015748031497,
          "duration": 0.10714274999999418
        },
        {
          "name": "C#0",
          "midi": 13,
          "time": 83.57134499999951,
          "velocity": 0.7874015748031497,
          "duration": 0.10714274999999418
        },
        {
          "name": "C0",
          "midi": 12,
          "time": 83.9999159999995,
          "velocity": 0.7874015748031497,
          "duration": 0.10714274999999418
        },
        {
          "name": "C#0",
          "midi": 13,
          "time": 84.42848699999949,
          "velocity": 0.7874015748031497,
          "duration": 0.10714274999999418
        },
        {
          "name": "C#0",
          "midi": 13,
          "time": 84.85705799999948,
          "velocity": 0.7874015748031497,
          "duration": 0.10714274999999418
        },
        {
          "name": "C#0",
          "midi": 13,
          "time": 85.28562899999947,
          "velocity": 0.7874015748031497,
          "duration": 0.10714274999999418
        },
        {
          "name": "C0",
          "midi": 12,
          "time": 85.71419999999947,
          "velocity": 0.7874015748031497,
          "duration": 0.10714274999999418
        },
        {
          "name": "C#0",
          "midi": 13,
          "time": 86.14277099999946,
          "velocity": 0.7874015748031497,
          "duration": 0.10714274999999418
        },
        {
          "name": "C#0",
          "midi": 13,
          "time": 86.57134199999945,
          "velocity": 0.7874015748031497,
          "duration": 0.10714274999999418
        },
        {
          "name": "C#0",
          "midi": 13,
          "time": 86.99991299999944,
          "velocity": 0.7874015748031497,
          "duration": 0.10714274999999418
        },
        {
          "name": "C0",
          "midi": 12,
          "time": 87.42848399999943,
          "velocity": 0.7874015748031497,
          "duration": 0.10714274999999418
        },
        {
          "name": "C#0",
          "midi": 13,
          "time": 87.85705499999942,
          "velocity": 0.7874015748031497,
          "duration": 0.10714274999999418
        },
        {
          "name": "C#0",
          "midi": 13,
          "time": 88.28562599999941,
          "velocity": 0.7874015748031497,
          "duration": 0.10714274999999418
        },
        {
          "name": "C#0",
          "midi": 13,
          "time": 88.7141969999994,
          "velocity": 0.7874015748031497,
          "duration": 0.10714274999999418
        },
        {
          "name": "C0",
          "midi": 12,
          "time": 89.14276799999939,
          "velocity": 0.7874015748031497,
          "duration": 0.10714274999999418
        },
        {
          "name": "C#0",
          "midi": 13,
          "time": 89.57133899999938,
          "velocity": 0.7874015748031497,
          "duration": 0.10714274999999418
        },
        {
          "name": "C#0",
          "midi": 13,
          "time": 89.99990999999937,
          "velocity": 0.7874015748031497,
          "duration": 0.10714274999999418
        },
        {
          "name": "C#0",
          "midi": 13,
          "time": 90.42848099999937,
          "velocity": 0.7874015748031497,
          "duration": 0.10714274999999418
        },
        {
          "name": "C0",
          "midi": 12,
          "time": 90.85705199999936,
          "velocity": 0.7874015748031497,
          "duration": 0.10714274999999418
        },
        {
          "name": "C#0",
          "midi": 13,
          "time": 91.28562299999935,
          "velocity": 0.7874015748031497,
          "duration": 0.10714274999999418
        },
        {
          "name": "C#0",
          "midi": 13,
          "time": 91.71419399999934,
          "velocity": 0.7874015748031497,
          "duration": 0.10714274999999418
        },
        {
          "name": "C#0",
          "midi": 13,
          "time": 92.14276499999933,
          "velocity": 0.7874015748031497,
          "duration": 0.10714274999999418
        },
        {
          "name": "C0",
          "midi": 12,
          "time": 92.57133599999932,
          "velocity": 0.7874015748031497,
          "duration": 0.10714274999999418
        },
        {
          "name": "C#0",
          "midi": 13,
          "time": 92.99990699999931,
          "velocity": 0.7874015748031497,
          "duration": 0.10714274999999418
        },
        {
          "name": "C#0",
          "midi": 13,
          "time": 93.4284779999993,
          "velocity": 0.7874015748031497,
          "duration": 0.10714274999999418
        },
        {
          "name": "C#0",
          "midi": 13,
          "time": 93.8570489999993,
          "velocity": 0.7874015748031497,
          "duration": 0.10714274999999418
        },
        {
          "name": "C0",
          "midi": 12,
          "time": 94.28561999999928,
          "velocity": 0.7874015748031497,
          "duration": 0.10714274999999418
        },
        {
          "name": "C#0",
          "midi": 13,
          "time": 94.71419099999927,
          "velocity": 0.7874015748031497,
          "duration": 0.10714274999999418
        },
        {
          "name": "C#0",
          "midi": 13,
          "time": 95.14276199999927,
          "velocity": 0.7874015748031497,
          "duration": 0.10714274999999418
        },
        {
          "name": "C#0",
          "midi": 13,
          "time": 95.57133299999926,
          "velocity": 0.7874015748031497,
          "duration": 0.10714274999999418
        },
        {
          "name": "C0",
          "midi": 12,
          "time": 95.99990399999925,
          "velocity": 0.7874015748031497,
          "duration": 0.10714274999999418
        },
        {
          "name": "C#0",
          "midi": 13,
          "time": 96.42847499999924,
          "velocity": 0.7874015748031497,
          "duration": 0.10714274999999418
        },
        {
          "name": "C#0",
          "midi": 13,
          "time": 96.85704599999923,
          "velocity": 0.7874015748031497,
          "duration": 0.10714274999999418
        },
        {
          "name": "C#0",
          "midi": 13,
          "time": 97.28561699999922,
          "velocity": 0.7874015748031497,
          "duration": 0.10714274999999418
        },
        {
          "name": "C0",
          "midi": 12,
          "time": 97.71418799999921,
          "velocity": 0.7874015748031497,
          "duration": 0.10714274999999418
        },
        {
          "name": "C#0",
          "midi": 13,
          "time": 98.1427589999992,
          "velocity": 0.7874015748031497,
          "duration": 0.10714274999999418
        },
        {
          "name": "C#0",
          "midi": 13,
          "time": 98.5713299999992,
          "velocity": 0.7874015748031497,
          "duration": 0.10714274999999418
        },
        {
          "name": "C#0",
          "midi": 13,
          "time": 98.99990099999918,
          "velocity": 0.7874015748031497,
          "duration": 0.10714274999999418
        },
        {
          "name": "C0",
          "midi": 12,
          "time": 99.42847199999918,
          "velocity": 0.7874015748031497,
          "duration": 0.10714274999999418
        },
        {
          "name": "C#0",
          "midi": 13,
          "time": 99.85704299999917,
          "velocity": 0.7874015748031497,
          "duration": 0.10714274999999418
        },
        {
          "name": "C#0",
          "midi": 13,
          "time": 100.28561399999916,
          "velocity": 0.7874015748031497,
          "duration": 0.10714274999999418
        },
        {
          "name": "C#0",
          "midi": 13,
          "time": 100.71418499999915,
          "velocity": 0.7874015748031497,
          "duration": 0.10714274999999418
        },
        {
          "name": "C0",
          "midi": 12,
          "time": 101.14275599999914,
          "velocity": 0.7874015748031497,
          "duration": 0.10714274999999418
        },
        {
          "name": "C#0",
          "midi": 13,
          "time": 101.57132699999913,
          "velocity": 0.7874015748031497,
          "duration": 0.10714274999999418
        },
        {
          "name": "C#0",
          "midi": 13,
          "time": 101.99989799999912,
          "velocity": 0.7874015748031497,
          "duration": 0.10714274999999418
        },
        {
          "name": "C#0",
          "midi": 13,
          "time": 102.42846899999911,
          "velocity": 0.7874015748031497,
          "duration": 0.10714274999999418
        },
        {
          "name": "C0",
          "midi": 12,
          "time": 102.8570399999991,
          "velocity": 0.7874015748031497,
          "duration": 0.10714274999999418
        },
        {
          "name": "C#0",
          "midi": 13,
          "time": 103.2856109999991,
          "velocity": 0.7874015748031497,
          "duration": 0.10714274999999418
        },
        {
          "name": "C#0",
          "midi": 13,
          "time": 103.71418199999908,
          "velocity": 0.7874015748031497,
          "duration": 0.10714274999999418
        },
        {
          "name": "C#0",
          "midi": 13,
          "time": 104.14275299999908,
          "velocity": 0.7874015748031497,
          "duration": 0.10714274999999418
        },
        {
          "name": "C0",
          "midi": 12,
          "time": 104.57132399999907,
          "velocity": 0.7874015748031497,
          "duration": 0.10714274999999418
        },
        {
          "name": "C#0",
          "midi": 13,
          "time": 104.99989499999906,
          "velocity": 0.7874015748031497,
          "duration": 0.10714274999999418
        },
        {
          "name": "C#0",
          "midi": 13,
          "time": 105.42846599999905,
          "velocity": 0.7874015748031497,
          "duration": 0.10714274999999418
        },
        {
          "name": "C#0",
          "midi": 13,
          "time": 105.85703699999904,
          "velocity": 0.7874015748031497,
          "duration": 0.10714274999999418
        },
        {
          "name": "C0",
          "midi": 12,
          "time": 106.28560799999903,
          "velocity": 0.7874015748031497,
          "duration": 0.10714274999999418
        },
        {
          "name": "C#0",
          "midi": 13,
          "time": 106.71417899999902,
          "velocity": 0.7874015748031497,
          "duration": 0.10714274999999418
        },
        {
          "name": "C#0",
          "midi": 13,
          "time": 107.14274999999901,
          "velocity": 0.7874015748031497,
          "duration": 0.10714274999999418
        },
        {
          "name": "C#0",
          "midi": 13,
          "time": 107.571320999999,
          "velocity": 0.7874015748031497,
          "duration": 0.10714274999999418
        },
        {
          "name": "C0",
          "midi": 12,
          "time": 107.999891999999,
          "velocity": 0.7874015748031497,
          "duration": 0.10714274999999418
        },
        {
          "name": "C#0",
          "midi": 13,
          "time": 108.42846299999898,
          "velocity": 0.7874015748031497,
          "duration": 0.10714274999999418
        },
        {
          "name": "C#0",
          "midi": 13,
          "time": 108.85703399999898,
          "velocity": 0.7874015748031497,
          "duration": 0.10714274999999418
        },
        {
          "name": "C#0",
          "midi": 13,
          "time": 109.28560499999897,
          "velocity": 0.7874015748031497,
          "duration": 0.10714274999999418
        },
        {
          "name": "C0",
          "midi": 12,
          "time": 109.71417599999896,
          "velocity": 0.7874015748031497,
          "duration": 0.10714274999999418
        },
        {
          "name": "C#0",
          "midi": 13,
          "time": 110.14274699999895,
          "velocity": 0.7874015748031497,
          "duration": 0.10714274999999418
        },
        {
          "name": "C#0",
          "midi": 13,
          "time": 110.57131799999894,
          "velocity": 0.7874015748031497,
          "duration": 0.10714274999999418
        },
        {
          "name": "C#0",
          "midi": 13,
          "time": 110.99988899999893,
          "velocity": 0.7874015748031497,
          "duration": 0.10714274999999418
        },
        {
          "name": "C0",
          "midi": 12,
          "time": 111.42845999999892,
          "velocity": 0.7874015748031497,
          "duration": 0.10714274999999418
        },
        {
          "name": "C#0",
          "midi": 13,
          "time": 111.85703099999891,
          "velocity": 0.7874015748031497,
          "duration": 0.10714274999999418
        },
        {
          "name": "C#0",
          "midi": 13,
          "time": 112.2856019999989,
          "velocity": 0.7874015748031497,
          "duration": 0.10714274999999418
        },
        {
          "name": "C#0",
          "midi": 13,
          "time": 112.7141729999989,
          "velocity": 0.7874015748031497,
          "duration": 0.10714274999999418
        },
        {
          "name": "C0",
          "midi": 12,
          "time": 113.14274399999888,
          "velocity": 0.7874015748031497,
          "duration": 0.10714274999999418
        },
        {
          "name": "C#0",
          "midi": 13,
          "time": 113.57131499999888,
          "velocity": 0.7874015748031497,
          "duration": 0.10714274999999418
        },
        {
          "name": "C#0",
          "midi": 13,
          "time": 113.99988599999887,
          "velocity": 0.7874015748031497,
          "duration": 0.10714274999999418
        },
        {
          "name": "C#0",
          "midi": 13,
          "time": 114.42845699999886,
          "velocity": 0.7874015748031497,
          "duration": 0.10714274999999418
        },
        {
          "name": "C0",
          "midi": 12,
          "time": 114.85702799999885,
          "velocity": 0.7874015748031497,
          "duration": 0.10714274999999418
        },
        {
          "name": "C#0",
          "midi": 13,
          "time": 115.28559899999884,
          "velocity": 0.7874015748031497,
          "duration": 0.10714274999999418
        },
        {
          "name": "C#0",
          "midi": 13,
          "time": 115.71416999999883,
          "velocity": 0.7874015748031497,
          "duration": 0.10714274999999418
        },
        {
          "name": "C#0",
          "midi": 13,
          "time": 116.14274099999882,
          "velocity": 0.7874015748031497,
          "duration": 0.10714274999999418
        },
        {
          "name": "C0",
          "midi": 12,
          "time": 116.57131199999881,
          "velocity": 0.7874015748031497,
          "duration": 0.10714274999999418
        },
        {
          "name": "C#0",
          "midi": 13,
          "time": 116.9998829999988,
          "velocity": 0.7874015748031497,
          "duration": 0.10714274999999418
        },
        {
          "name": "C#0",
          "midi": 13,
          "time": 117.4284539999988,
          "velocity": 0.7874015748031497,
          "duration": 0.10714274999999418
        },
        {
          "name": "C#0",
          "midi": 13,
          "time": 117.85702499999879,
          "velocity": 0.7874015748031497,
          "duration": 0.10714274999999418
        },
        {
          "name": "C0",
          "midi": 12,
          "time": 118.28559599999878,
          "velocity": 0.7874015748031497,
          "duration": 0.10714274999999418
        },
        {
          "name": "C#0",
          "midi": 13,
          "time": 118.71416699999877,
          "velocity": 0.7874015748031497,
          "duration": 0.10714274999999418
        },
        {
          "name": "C#0",
          "midi": 13,
          "time": 119.14273799999876,
          "velocity": 0.7874015748031497,
          "duration": 0.10714274999999418
        },
        {
          "name": "C#0",
          "midi": 13,
          "time": 119.57130899999875,
          "velocity": 0.7874015748031497,
          "duration": 0.10714274999999418
        },
        {
          "name": "C0",
          "midi": 12,
          "time": 119.99987999999874,
          "velocity": 0.7874015748031497,
          "duration": 0.10714274999999418
        },
        {
          "name": "C#0",
          "midi": 13,
          "time": 120.42845099999873,
          "velocity": 0.7874015748031497,
          "duration": 0.10714274999999418
        },
        {
          "name": "C#0",
          "midi": 13,
          "time": 120.85702199999872,
          "velocity": 0.7874015748031497,
          "duration": 0.10714274999999418
        },
        {
          "name": "C#0",
          "midi": 13,
          "time": 121.28559299999871,
          "velocity": 0.7874015748031497,
          "duration": 0.10714274999999418
        },
        {
          "name": "C0",
          "midi": 12,
          "time": 121.7141639999987,
          "velocity": 0.7874015748031497,
          "duration": 0.10714274999999418
        },
        {
          "name": "C#0",
          "midi": 13,
          "time": 122.1427349999987,
          "velocity": 0.7874015748031497,
          "duration": 0.10714274999999418
        },
        {
          "name": "C#0",
          "midi": 13,
          "time": 122.57130599999869,
          "velocity": 0.7874015748031497,
          "duration": 0.10714274999999418
        },
        {
          "name": "C#0",
          "midi": 13,
          "time": 122.99987699999868,
          "velocity": 0.7874015748031497,
          "duration": 0.10714274999999418
        },
        {
          "name": "C0",
          "midi": 12,
          "time": 123.42844799999867,
          "velocity": 0.7874015748031497,
          "duration": 0.10714274999999418
        },
        {
          "name": "C#0",
          "midi": 13,
          "time": 123.85701899999866,
          "velocity": 0.7874015748031497,
          "duration": 0.10714274999999418
        },
        {
          "name": "C#0",
          "midi": 13,
          "time": 124.28558999999865,
          "velocity": 0.7874015748031497,
          "duration": 0.10714274999999418
        },
        {
          "name": "C#0",
          "midi": 13,
          "time": 124.71416099999864,
          "velocity": 0.7874015748031497,
          "duration": 0.10714274999999418
        },
        {
          "name": "C0",
          "midi": 12,
          "time": 125.14273199999863,
          "velocity": 0.7874015748031497,
          "duration": 0.10714274999999418
        },
        {
          "name": "C#0",
          "midi": 13,
          "time": 125.57130299999862,
          "velocity": 0.7874015748031497,
          "duration": 0.10714274999999418
        },
        {
          "name": "C#0",
          "midi": 13,
          "time": 125.99987399999861,
          "velocity": 0.7874015748031497,
          "duration": 0.10714274999999418
        },
        {
          "name": "C#0",
          "midi": 13,
          "time": 126.4284449999986,
          "velocity": 0.7874015748031497,
          "duration": 0.10714274999999418
        },
        {
          "name": "C0",
          "midi": 12,
          "time": 126.8570159999986,
          "velocity": 0.7874015748031497,
          "duration": 0.10714274999999418
        },
        {
          "name": "C#0",
          "midi": 13,
          "time": 127.28558699999859,
          "velocity": 0.7874015748031497,
          "duration": 0.10714274999999418
        },
        {
          "name": "C#0",
          "midi": 13,
          "time": 127.71415799999858,
          "velocity": 0.7874015748031497,
          "duration": 0.10714274999999418
        },
        {
          "name": "C#0",
          "midi": 13,
          "time": 128.14272899999858,
          "velocity": 0.7874015748031497,
          "duration": 0.10714275000000839
        },
        {
          "name": "C0",
          "midi": 12,
          "time": 128.5712999999986,
          "velocity": 0.7874015748031497,
          "duration": 0.10714275000000839
        },
        {
          "name": "C#0",
          "midi": 13,
          "time": 128.9998709999986,
          "velocity": 0.7874015748031497,
          "duration": 0.10714275000000839
        },
        {
          "name": "C#0",
          "midi": 13,
          "time": 129.4284419999986,
          "velocity": 0.7874015748031497,
          "duration": 0.10714275000000839
        },
        {
          "name": "C#0",
          "midi": 13,
          "time": 129.8570129999986,
          "velocity": 0.7874015748031497,
          "duration": 0.10714275000000839
        },
        {
          "name": "C0",
          "midi": 12,
          "time": 130.2855839999986,
          "velocity": 0.7874015748031497,
          "duration": 0.10714275000000839
        },
        {
          "name": "C#0",
          "midi": 13,
          "time": 130.7141549999986,
          "velocity": 0.7874015748031497,
          "duration": 0.10714275000000839
        },
        {
          "name": "C#0",
          "midi": 13,
          "time": 131.14272599999862,
          "velocity": 0.7874015748031497,
          "duration": 0.10714275000000839
        },
        {
          "name": "C#0",
          "midi": 13,
          "time": 131.57129699999862,
          "velocity": 0.7874015748031497,
          "duration": 0.10714275000000839
        },
        {
          "name": "C0",
          "midi": 12,
          "time": 131.99986799999863,
          "velocity": 0.7874015748031497,
          "duration": 0.10714275000000839
        },
        {
          "name": "C#0",
          "midi": 13,
          "time": 132.42843899999863,
          "velocity": 0.7874015748031497,
          "duration": 0.10714275000000839
        },
        {
          "name": "C#0",
          "midi": 13,
          "time": 132.85700999999864,
          "velocity": 0.7874015748031497,
          "duration": 0.10714275000000839
        },
        {
          "name": "C#0",
          "midi": 13,
          "time": 133.28558099999864,
          "velocity": 0.7874015748031497,
          "duration": 0.10714275000000839
        },
        {
          "name": "C0",
          "midi": 12,
          "time": 133.71415199999865,
          "velocity": 0.7874015748031497,
          "duration": 0.10714275000000839
        },
        {
          "name": "C#0",
          "midi": 13,
          "time": 134.14272299999865,
          "velocity": 0.7874015748031497,
          "duration": 0.10714275000000839
        },
        {
          "name": "C#0",
          "midi": 13,
          "time": 134.57129399999866,
          "velocity": 0.7874015748031497,
          "duration": 0.10714275000000839
        },
        {
          "name": "C#0",
          "midi": 13,
          "time": 134.99986499999866,
          "velocity": 0.7874015748031497,
          "duration": 0.10714275000000839
        },
        {
          "name": "C0",
          "midi": 12,
          "time": 135.42843599999867,
          "velocity": 0.7874015748031497,
          "duration": 0.10714275000000839
        },
        {
          "name": "C#0",
          "midi": 13,
          "time": 135.85700699999867,
          "velocity": 0.7874015748031497,
          "duration": 0.10714275000000839
        },
        {
          "name": "C#0",
          "midi": 13,
          "time": 136.28557799999868,
          "velocity": 0.7874015748031497,
          "duration": 0.10714275000000839
        },
        {
          "name": "C#0",
          "midi": 13,
          "time": 136.71414899999868,
          "velocity": 0.7874015748031497,
          "duration": 0.10714275000000839
        },
        {
          "name": "C0",
          "midi": 12,
          "time": 137.1427199999987,
          "velocity": 0.7874015748031497,
          "duration": 0.10714275000000839
        },
        {
          "name": "C#0",
          "midi": 13,
          "time": 137.5712909999987,
          "velocity": 0.7874015748031497,
          "duration": 0.10714275000000839
        },
        {
          "name": "C#0",
          "midi": 13,
          "time": 137.9998619999987,
          "velocity": 0.7874015748031497,
          "duration": 0.10714275000000839
        },
        {
          "name": "C#0",
          "midi": 13,
          "time": 138.4284329999987,
          "velocity": 0.7874015748031497,
          "duration": 0.10714275000000839
        },
        {
          "name": "C0",
          "midi": 12,
          "time": 138.8570039999987,
          "velocity": 0.7874015748031497,
          "duration": 0.10714275000000839
        },
        {
          "name": "C#0",
          "midi": 13,
          "time": 139.28557499999872,
          "velocity": 0.7874015748031497,
          "duration": 0.10714275000000839
        },
        {
          "name": "C#0",
          "midi": 13,
          "time": 139.71414599999872,
          "velocity": 0.7874015748031497,
          "duration": 0.10714275000000839
        },
        {
          "name": "C#0",
          "midi": 13,
          "time": 140.14271699999873,
          "velocity": 0.7874015748031497,
          "duration": 0.10714275000000839
        },
        {
          "name": "C0",
          "midi": 12,
          "time": 140.57128799999873,
          "velocity": 0.7874015748031497,
          "duration": 0.10714275000000839
        },
        {
          "name": "C#0",
          "midi": 13,
          "time": 140.99985899999874,
          "velocity": 0.7874015748031497,
          "duration": 0.10714275000000839
        },
        {
          "name": "C#0",
          "midi": 13,
          "time": 141.42842999999874,
          "velocity": 0.7874015748031497,
          "duration": 0.10714275000000839
        },
        {
          "name": "C#0",
          "midi": 13,
          "time": 141.85700099999875,
          "velocity": 0.7874015748031497,
          "duration": 0.10714275000000839
        },
        {
          "name": "C0",
          "midi": 12,
          "time": 142.28557199999875,
          "velocity": 0.7874015748031497,
          "duration": 0.10714275000000839
        },
        {
          "name": "C#0",
          "midi": 13,
          "time": 142.71414299999876,
          "velocity": 0.7874015748031497,
          "duration": 0.10714275000000839
        },
        {
          "name": "C#0",
          "midi": 13,
          "time": 143.14271399999876,
          "velocity": 0.7874015748031497,
          "duration": 0.10714275000000839
        },
        {
          "name": "C#0",
          "midi": 13,
          "time": 143.57128499999877,
          "velocity": 0.7874015748031497,
          "duration": 0.10714275000000839
        },
        {
          "name": "C0",
          "midi": 12,
          "time": 143.99985599999877,
          "velocity": 0.7874015748031497,
          "duration": 0.10714275000000839
        },
        {
          "name": "C#0",
          "midi": 13,
          "time": 144.42842699999878,
          "velocity": 0.7874015748031497,
          "duration": 0.10714275000000839
        },
        {
          "name": "C#0",
          "midi": 13,
          "time": 144.85699799999878,
          "velocity": 0.7874015748031497,
          "duration": 0.10714275000000839
        },
        {
          "name": "C#0",
          "midi": 13,
          "time": 145.2855689999988,
          "velocity": 0.7874015748031497,
          "duration": 0.10714275000000839
        },
        {
          "name": "C0",
          "midi": 12,
          "time": 145.7141399999988,
          "velocity": 0.7874015748031497,
          "duration": 0.10714275000000839
        },
        {
          "name": "C#0",
          "midi": 13,
          "time": 146.1427109999988,
          "velocity": 0.7874015748031497,
          "duration": 0.10714275000000839
        },
        {
          "name": "C#0",
          "midi": 13,
          "time": 146.5712819999988,
          "velocity": 0.7874015748031497,
          "duration": 0.10714275000000839
        },
        {
          "name": "C#0",
          "midi": 13,
          "time": 146.9998529999988,
          "velocity": 0.7874015748031497,
          "duration": 0.10714275000000839
        },
        {
          "name": "C0",
          "midi": 12,
          "time": 147.4284239999988,
          "velocity": 0.7874015748031497,
          "duration": 0.10714275000000839
        },
        {
          "name": "C#0",
          "midi": 13,
          "time": 147.85699499999882,
          "velocity": 0.7874015748031497,
          "duration": 0.10714275000000839
        },
        {
          "name": "C#0",
          "midi": 13,
          "time": 148.28556599999882,
          "velocity": 0.7874015748031497,
          "duration": 0.10714275000000839
        },
        {
          "name": "C#0",
          "midi": 13,
          "time": 148.71413699999883,
          "velocity": 0.7874015748031497,
          "duration": 0.10714275000000839
        },
        {
          "name": "C0",
          "midi": 12,
          "time": 149.14270799999883,
          "velocity": 0.7874015748031497,
          "duration": 0.10714275000000839
        },
        {
          "name": "C#0",
          "midi": 13,
          "time": 149.57127899999884,
          "velocity": 0.7874015748031497,
          "duration": 0.10714275000000839
        },
        {
          "name": "C#0",
          "midi": 13,
          "time": 149.99984999999884,
          "velocity": 0.7874015748031497,
          "duration": 0.10714275000000839
        },
        {
          "name": "C#0",
          "midi": 13,
          "time": 150.42842099999885,
          "velocity": 0.7874015748031497,
          "duration": 0.10714275000000839
        },
        {
          "name": "C0",
          "midi": 12,
          "time": 150.85699199999885,
          "velocity": 0.7874015748031497,
          "duration": 0.10714275000000839
        },
        {
          "name": "C#0",
          "midi": 13,
          "time": 151.28556299999886,
          "velocity": 0.7874015748031497,
          "duration": 0.10714275000000839
        },
        {
          "name": "C#0",
          "midi": 13,
          "time": 151.71413399999886,
          "velocity": 0.7874015748031497,
          "duration": 0.10714275000000839
        },
        {
          "name": "C#0",
          "midi": 13,
          "time": 152.14270499999887,
          "velocity": 0.7874015748031497,
          "duration": 0.10714275000000839
        },
        {
          "name": "C0",
          "midi": 12,
          "time": 152.57127599999887,
          "velocity": 0.7874015748031497,
          "duration": 0.10714275000000839
        },
        {
          "name": "C#0",
          "midi": 13,
          "time": 152.99984699999888,
          "velocity": 0.7874015748031497,
          "duration": 0.10714275000000839
        },
        {
          "name": "C#0",
          "midi": 13,
          "time": 153.42841799999889,
          "velocity": 0.7874015748031497,
          "duration": 0.10714275000000839
        },
        {
          "name": "C#0",
          "midi": 13,
          "time": 153.8569889999989,
          "velocity": 0.7874015748031497,
          "duration": 0.10714275000000839
        },
        {
          "name": "C0",
          "midi": 12,
          "time": 154.2855599999989,
          "velocity": 0.7874015748031497,
          "duration": 0.10714275000000839
        },
        {
          "name": "C#0",
          "midi": 13,
          "time": 154.7141309999989,
          "velocity": 0.7874015748031497,
          "duration": 0.10714275000000839
        },
        {
          "name": "C#0",
          "midi": 13,
          "time": 155.1427019999989,
          "velocity": 0.7874015748031497,
          "duration": 0.10714275000000839
        },
        {
          "name": "C#0",
          "midi": 13,
          "time": 155.5712729999989,
          "velocity": 0.7874015748031497,
          "duration": 0.10714275000000839
        },
        {
          "name": "C0",
          "midi": 12,
          "time": 155.99984399999892,
          "velocity": 0.7874015748031497,
          "duration": 0.10714275000000839
        },
        {
          "name": "C#0",
          "midi": 13,
          "time": 156.42841499999892,
          "velocity": 0.7874015748031497,
          "duration": 0.10714275000000839
        },
        {
          "name": "C#0",
          "midi": 13,
          "time": 156.85698599999893,
          "velocity": 0.7874015748031497,
          "duration": 0.10714275000000839
        },
        {
          "name": "C#0",
          "midi": 13,
          "time": 157.28555699999893,
          "velocity": 0.7874015748031497,
          "duration": 0.10714275000000839
        },
        {
          "name": "C0",
          "midi": 12,
          "time": 157.71412799999894,
          "velocity": 0.7874015748031497,
          "duration": 0.10714275000000839
        },
        {
          "name": "C#0",
          "midi": 13,
          "time": 158.14269899999894,
          "velocity": 0.7874015748031497,
          "duration": 0.10714275000000839
        },
        {
          "name": "C#0",
          "midi": 13,
          "time": 158.57126999999895,
          "velocity": 0.7874015748031497,
          "duration": 0.10714275000000839
        },
        {
          "name": "C#0",
          "midi": 13,
          "time": 158.99984099999895,
          "velocity": 0.7874015748031497,
          "duration": 0.10714275000000839
        },
        {
          "name": "C0",
          "midi": 12,
          "time": 159.42841199999896,
          "velocity": 0.7874015748031497,
          "duration": 0.10714275000000839
        },
        {
          "name": "C#0",
          "midi": 13,
          "time": 159.85698299999896,
          "velocity": 0.7874015748031497,
          "duration": 0.10714275000000839
        },
        {
          "name": "C#0",
          "midi": 13,
          "time": 160.28555399999897,
          "velocity": 0.7874015748031497,
          "duration": 0.10714275000000839
        },
        {
          "name": "C#0",
          "midi": 13,
          "time": 160.71412499999897,
          "velocity": 0.7874015748031497,
          "duration": 0.10714275000000839
        },
        {
          "name": "C0",
          "midi": 12,
          "time": 161.14269599999898,
          "velocity": 0.7874015748031497,
          "duration": 0.10714275000000839
        },
        {
          "name": "C#0",
          "midi": 13,
          "time": 161.57126699999898,
          "velocity": 0.7874015748031497,
          "duration": 0.10714275000000839
        },
        {
          "name": "C#0",
          "midi": 13,
          "time": 161.999837999999,
          "velocity": 0.7874015748031497,
          "duration": 0.10714275000000839
        },
        {
          "name": "C#0",
          "midi": 13,
          "time": 162.428408999999,
          "velocity": 0.7874015748031497,
          "duration": 0.10714275000000839
        },
        {
          "name": "C0",
          "midi": 12,
          "time": 162.856979999999,
          "velocity": 0.7874015748031497,
          "duration": 0.10714275000000839
        },
        {
          "name": "C#0",
          "midi": 13,
          "time": 163.285550999999,
          "velocity": 0.7874015748031497,
          "duration": 0.10714275000000839
        },
        {
          "name": "C#0",
          "midi": 13,
          "time": 163.714121999999,
          "velocity": 0.7874015748031497,
          "duration": 0.10714275000000839
        },
        {
          "name": "C#0",
          "midi": 13,
          "time": 164.142692999999,
          "velocity": 0.7874015748031497,
          "duration": 0.10714275000000839
        },
        {
          "name": "C0",
          "midi": 12,
          "time": 164.57126399999902,
          "velocity": 0.7874015748031497,
          "duration": 0.10714275000000839
        },
        {
          "name": "C#0",
          "midi": 13,
          "time": 164.99983499999902,
          "velocity": 0.7874015748031497,
          "duration": 0.10714275000000839
        },
        {
          "name": "C#0",
          "midi": 13,
          "time": 165.42840599999903,
          "velocity": 0.7874015748031497,
          "duration": 0.10714275000000839
        },
        {
          "name": "C#0",
          "midi": 13,
          "time": 165.85697699999903,
          "velocity": 0.7874015748031497,
          "duration": 0.10714275000000839
        },
        {
          "name": "C0",
          "midi": 12,
          "time": 166.28554799999904,
          "velocity": 0.7874015748031497,
          "duration": 0.10714275000000839
        },
        {
          "name": "C#0",
          "midi": 13,
          "time": 166.71411899999904,
          "velocity": 0.7874015748031497,
          "duration": 0.10714275000000839
        },
        {
          "name": "C#0",
          "midi": 13,
          "time": 167.14268999999905,
          "velocity": 0.7874015748031497,
          "duration": 0.10714275000000839
        },
        {
          "name": "C#0",
          "midi": 13,
          "time": 167.57126099999905,
          "velocity": 0.7874015748031497,
          "duration": 0.10714275000000839
        },
        {
          "name": "C0",
          "midi": 12,
          "time": 167.99983199999906,
          "velocity": 0.7874015748031497,
          "duration": 0.10714275000000839
        },
        {
          "name": "C#0",
          "midi": 13,
          "time": 168.42840299999907,
          "velocity": 0.7874015748031497,
          "duration": 0.10714275000000839
        },
        {
          "name": "C#0",
          "midi": 13,
          "time": 168.85697399999907,
          "velocity": 0.7874015748031497,
          "duration": 0.10714275000000839
        },
        {
          "name": "C#0",
          "midi": 13,
          "time": 169.28554499999908,
          "velocity": 0.7874015748031497,
          "duration": 0.10714275000000839
        },
        {
          "name": "C0",
          "midi": 12,
          "time": 169.71411599999908,
          "velocity": 0.7874015748031497,
          "duration": 0.10714275000000839
        },
        {
          "name": "C#0",
          "midi": 13,
          "time": 170.14268699999909,
          "velocity": 0.7874015748031497,
          "duration": 0.10714275000000839
        },
        {
          "name": "C#0",
          "midi": 13,
          "time": 170.5712579999991,
          "velocity": 0.7874015748031497,
          "duration": 0.10714275000000839
        },
        {
          "name": "C#0",
          "midi": 13,
          "time": 170.9998289999991,
          "velocity": 0.7874015748031497,
          "duration": 0.10714275000000839
        },
        {
          "name": "C0",
          "midi": 12,
          "time": 171.4283999999991,
          "velocity": 0.7874015748031497,
          "duration": 0.10714275000000839
        },
        {
          "name": "C#0",
          "midi": 13,
          "time": 171.8569709999991,
          "velocity": 0.7874015748031497,
          "duration": 0.10714275000000839
        },
        {
          "name": "C#0",
          "midi": 13,
          "time": 172.2855419999991,
          "velocity": 0.7874015748031497,
          "duration": 0.10714275000000839
        },
        {
          "name": "C#0",
          "midi": 13,
          "time": 172.71411299999912,
          "velocity": 0.7874015748031497,
          "duration": 0.10714275000000839
        },
        {
          "name": "C0",
          "midi": 12,
          "time": 173.14268399999912,
          "velocity": 0.7874015748031497,
          "duration": 0.10714275000000839
        },
        {
          "name": "C#0",
          "midi": 13,
          "time": 173.57125499999913,
          "velocity": 0.7874015748031497,
          "duration": 0.10714275000000839
        },
        {
          "name": "C#0",
          "midi": 13,
          "time": 173.99982599999913,
          "velocity": 0.7874015748031497,
          "duration": 0.10714275000000839
        },
        {
          "name": "C#0",
          "midi": 13,
          "time": 174.42839699999914,
          "velocity": 0.7874015748031497,
          "duration": 0.10714275000000839
        },
        {
          "name": "C0",
          "midi": 12,
          "time": 174.85696799999914,
          "velocity": 0.7874015748031497,
          "duration": 0.10714275000000839
        },
        {
          "name": "C#0",
          "midi": 13,
          "time": 175.28553899999915,
          "velocity": 0.7874015748031497,
          "duration": 0.10714275000000839
        },
        {
          "name": "C#0",
          "midi": 13,
          "time": 175.71410999999915,
          "velocity": 0.7874015748031497,
          "duration": 0.10714275000000839
        },
        {
          "name": "C#0",
          "midi": 13,
          "time": 176.14268099999916,
          "velocity": 0.7874015748031497,
          "duration": 0.10714275000000839
        },
        {
          "name": "C0",
          "midi": 12,
          "time": 176.57125199999916,
          "velocity": 0.7874015748031497,
          "duration": 0.10714275000000839
        },
        {
          "name": "C#0",
          "midi": 13,
          "time": 176.99982299999917,
          "velocity": 0.7874015748031497,
          "duration": 0.10714275000000839
        },
        {
          "name": "C#0",
          "midi": 13,
          "time": 177.42839399999917,
          "velocity": 0.7874015748031497,
          "duration": 0.10714275000000839
        },
        {
          "name": "C#0",
          "midi": 13,
          "time": 177.85696499999918,
          "velocity": 0.7874015748031497,
          "duration": 0.10714275000000839
        },
        {
          "name": "C0",
          "midi": 12,
          "time": 178.28553599999918,
          "velocity": 0.7874015748031497,
          "duration": 0.10714275000000839
        },
        {
          "name": "C#0",
          "midi": 13,
          "time": 178.7141069999992,
          "velocity": 0.7874015748031497,
          "duration": 0.10714275000000839
        },
        {
          "name": "C#0",
          "midi": 13,
          "time": 179.1426779999992,
          "velocity": 0.7874015748031497,
          "duration": 0.10714275000000839
        },
        {
          "name": "C#0",
          "midi": 13,
          "time": 179.5712489999992,
          "velocity": 0.7874015748031497,
          "duration": 0.10714275000000839
        },
        {
          "name": "C0",
          "midi": 12,
          "time": 179.9998199999992,
          "velocity": 0.7874015748031497,
          "duration": 0.10714275000000839
        },
        {
          "name": "C#0",
          "midi": 13,
          "time": 180.4283909999992,
          "velocity": 0.7874015748031497,
          "duration": 0.10714275000000839
        },
        {
          "name": "C#0",
          "midi": 13,
          "time": 180.8569619999992,
          "velocity": 0.7874015748031497,
          "duration": 0.10714275000000839
        },
        {
          "name": "C#0",
          "midi": 13,
          "time": 181.28553299999922,
          "velocity": 0.7874015748031497,
          "duration": 0.10714275000000839
        },
        {
          "name": "C0",
          "midi": 12,
          "time": 181.71410399999922,
          "velocity": 0.7874015748031497,
          "duration": 0.10714275000000839
        },
        {
          "name": "C#0",
          "midi": 13,
          "time": 182.14267499999923,
          "velocity": 0.7874015748031497,
          "duration": 0.10714275000000839
        },
        {
          "name": "C#0",
          "midi": 13,
          "time": 182.57124599999923,
          "velocity": 0.7874015748031497,
          "duration": 0.10714275000000839
        },
        {
          "name": "C#0",
          "midi": 13,
          "time": 182.99981699999924,
          "velocity": 0.7874015748031497,
          "duration": 0.10714275000000839
        },
        {
          "name": "C0",
          "midi": 12,
          "time": 183.42838799999925,
          "velocity": 0.7874015748031497,
          "duration": 0.10714275000000839
        },
        {
          "name": "C#0",
          "midi": 13,
          "time": 183.85695899999925,
          "velocity": 0.7874015748031497,
          "duration": 0.10714275000000839
        },
        {
          "name": "C#0",
          "midi": 13,
          "time": 184.28552999999926,
          "velocity": 0.7874015748031497,
          "duration": 0.10714275000000839
        },
        {
          "name": "C#0",
          "midi": 13,
          "time": 184.71410099999926,
          "velocity": 0.7874015748031497,
          "duration": 0.10714275000000839
        },
        {
          "name": "C0",
          "midi": 12,
          "time": 185.14267199999927,
          "velocity": 0.7874015748031497,
          "duration": 0.10714275000000839
        },
        {
          "name": "C#0",
          "midi": 13,
          "time": 185.57124299999927,
          "velocity": 0.7874015748031497,
          "duration": 0.10714275000000839
        },
        {
          "name": "C#0",
          "midi": 13,
          "time": 185.99981399999928,
          "velocity": 0.7874015748031497,
          "duration": 0.10714275000000839
        },
        {
          "name": "C#0",
          "midi": 13,
          "time": 186.42838499999928,
          "velocity": 0.7874015748031497,
          "duration": 0.10714275000000839
        },
        {
          "name": "C0",
          "midi": 12,
          "time": 186.8569559999993,
          "velocity": 0.7874015748031497,
          "duration": 0.10714275000000839
        },
        {
          "name": "C#0",
          "midi": 13,
          "time": 187.2855269999993,
          "velocity": 0.7874015748031497,
          "duration": 0.10714275000000839
        },
        {
          "name": "C#0",
          "midi": 13,
          "time": 187.7140979999993,
          "velocity": 0.7874015748031497,
          "duration": 0.10714275000000839
        },
        {
          "name": "C#0",
          "midi": 13,
          "time": 188.1426689999993,
          "velocity": 0.7874015748031497,
          "duration": 0.10714275000000839
        },
        {
          "name": "C0",
          "midi": 12,
          "time": 188.5712399999993,
          "velocity": 0.7874015748031497,
          "duration": 0.10714275000000839
        },
        {
          "name": "C#0",
          "midi": 13,
          "time": 188.9998109999993,
          "velocity": 0.7874015748031497,
          "duration": 0.10714275000000839
        },
        {
          "name": "C#0",
          "midi": 13,
          "time": 189.42838199999932,
          "velocity": 0.7874015748031497,
          "duration": 0.10714275000000839
        },
        {
          "name": "C#0",
          "midi": 13,
          "time": 189.85695299999932,
          "velocity": 0.7874015748031497,
          "duration": 0.10714275000000839
        },
        {
          "name": "C0",
          "midi": 12,
          "time": 190.28552399999933,
          "velocity": 0.7874015748031497,
          "duration": 0.10714275000000839
        },
        {
          "name": "C#0",
          "midi": 13,
          "time": 190.71409499999933,
          "velocity": 0.7874015748031497,
          "duration": 0.10714275000000839
        },
        {
          "name": "C#0",
          "midi": 13,
          "time": 191.14266599999934,
          "velocity": 0.7874015748031497,
          "duration": 0.10714275000000839
        },
        {
          "name": "C#0",
          "midi": 13,
          "time": 191.57123699999934,
          "velocity": 0.7874015748031497,
          "duration": 0.10714275000000839
        },
        {
          "name": "C0",
          "midi": 12,
          "time": 191.99980799999935,
          "velocity": 0.7874015748031497,
          "duration": 0.10714275000000839
        },
        {
          "name": "C#0",
          "midi": 13,
          "time": 192.42837899999935,
          "velocity": 0.7874015748031497,
          "duration": 0.10714275000000839
        },
        {
          "name": "C#0",
          "midi": 13,
          "time": 192.85694999999936,
          "velocity": 0.7874015748031497,
          "duration": 0.10714275000000839
        },
        {
          "name": "C#0",
          "midi": 13,
          "time": 193.28552099999936,
          "velocity": 0.7874015748031497,
          "duration": 0.10714275000000839
        },
        {
          "name": "C0",
          "midi": 12,
          "time": 193.71409199999937,
          "velocity": 0.7874015748031497,
          "duration": 0.10714275000000839
        },
        {
          "name": "C#0",
          "midi": 13,
          "time": 194.14266299999937,
          "velocity": 0.7874015748031497,
          "duration": 0.10714275000000839
        },
        {
          "name": "C#0",
          "midi": 13,
          "time": 194.57123399999938,
          "velocity": 0.7874015748031497,
          "duration": 0.10714275000000839
        },
        {
          "name": "C#0",
          "midi": 13,
          "time": 194.99980499999938,
          "velocity": 0.7874015748031497,
          "duration": 0.10714275000000839
        },
        {
          "name": "C0",
          "midi": 12,
          "time": 195.4283759999994,
          "velocity": 0.7874015748031497,
          "duration": 0.10714275000000839
        },
        {
          "name": "C#0",
          "midi": 13,
          "time": 195.8569469999994,
          "velocity": 0.7874015748031497,
          "duration": 0.10714275000000839
        },
        {
          "name": "C#0",
          "midi": 13,
          "time": 196.2855179999994,
          "velocity": 0.7874015748031497,
          "duration": 0.10714275000000839
        },
        {
          "name": "C#0",
          "midi": 13,
          "time": 196.7140889999994,
          "velocity": 0.7874015748031497,
          "duration": 0.10714275000000839
        },
        {
          "name": "C0",
          "midi": 12,
          "time": 197.1426599999994,
          "velocity": 0.7874015748031497,
          "duration": 0.10714275000000839
        },
        {
          "name": "C#0",
          "midi": 13,
          "time": 197.57123099999941,
          "velocity": 0.7874015748031497,
          "duration": 0.10714275000000839
        },
        {
          "name": "C#0",
          "midi": 13,
          "time": 197.99980199999942,
          "velocity": 0.7874015748031497,
          "duration": 0.10714275000000839
        },
        {
          "name": "C#0",
          "midi": 13,
          "time": 198.42837299999943,
          "velocity": 0.7874015748031497,
          "duration": 0.10714275000000839
        },
        {
          "name": "C0",
          "midi": 12,
          "time": 198.85694399999943,
          "velocity": 0.7874015748031497,
          "duration": 0.10714275000000839
        },
        {
          "name": "C#0",
          "midi": 13,
          "time": 199.28551499999944,
          "velocity": 0.7874015748031497,
          "duration": 0.10714275000000839
        },
        {
          "name": "C#0",
          "midi": 13,
          "time": 199.71408599999944,
          "velocity": 0.7874015748031497,
          "duration": 0.10714275000000839
        },
        {
          "name": "C#0",
          "midi": 13,
          "time": 200.14265699999945,
          "velocity": 0.7874015748031497,
          "duration": 0.10714275000000839
        },
        {
          "name": "C0",
          "midi": 12,
          "time": 200.57122799999945,
          "velocity": 0.7874015748031497,
          "duration": 0.10714275000000839
        },
        {
          "name": "C#0",
          "midi": 13,
          "time": 200.99979899999946,
          "velocity": 0.7874015748031497,
          "duration": 0.10714275000000839
        },
        {
          "name": "C#0",
          "midi": 13,
          "time": 201.42836999999946,
          "velocity": 0.7874015748031497,
          "duration": 0.10714275000000839
        },
        {
          "name": "C#0",
          "midi": 13,
          "time": 201.85694099999947,
          "velocity": 0.7874015748031497,
          "duration": 0.10714275000000839
        },
        {
          "name": "C0",
          "midi": 12,
          "time": 202.28551199999947,
          "velocity": 0.7874015748031497,
          "duration": 0.10714275000000839
        },
        {
          "name": "C#0",
          "midi": 13,
          "time": 202.71408299999948,
          "velocity": 0.7874015748031497,
          "duration": 0.10714275000000839
        },
        {
          "name": "C#0",
          "midi": 13,
          "time": 203.14265399999948,
          "velocity": 0.7874015748031497,
          "duration": 0.10714275000000839
        },
        {
          "name": "C#0",
          "midi": 13,
          "time": 203.5712249999995,
          "velocity": 0.7874015748031497,
          "duration": 0.10714275000000839
        },
        {
          "name": "C0",
          "midi": 12,
          "time": 203.9997959999995,
          "velocity": 0.7874015748031497,
          "duration": 0.10714275000000839
        },
        {
          "name": "C#0",
          "midi": 13,
          "time": 204.4283669999995,
          "velocity": 0.7874015748031497,
          "duration": 0.10714275000000839
        },
        {
          "name": "C#0",
          "midi": 13,
          "time": 204.8569379999995,
          "velocity": 0.7874015748031497,
          "duration": 0.10714275000000839
        },
        {
          "name": "C#0",
          "midi": 13,
          "time": 205.2855089999995,
          "velocity": 0.7874015748031497,
          "duration": 0.10714275000000839
        },
        {
          "name": "C0",
          "midi": 12,
          "time": 205.7140799999995,
          "velocity": 0.7874015748031497,
          "duration": 0.10714275000000839
        },
        {
          "name": "C#0",
          "midi": 13,
          "time": 206.14265099999952,
          "velocity": 0.7874015748031497,
          "duration": 0.10714275000000839
        },
        {
          "name": "C#0",
          "midi": 13,
          "time": 206.57122199999952,
          "velocity": 0.7874015748031497,
          "duration": 0.10714275000000839
        },
        {
          "name": "C#0",
          "midi": 13,
          "time": 206.99979299999953,
          "velocity": 0.7874015748031497,
          "duration": 0.10714275000000839
        },
        {
          "name": "C0",
          "midi": 12,
          "time": 207.42836399999953,
          "velocity": 0.7874015748031497,
          "duration": 0.10714275000000839
        },
        {
          "name": "C#0",
          "midi": 13,
          "time": 207.85693499999954,
          "velocity": 0.7874015748031497,
          "duration": 0.10714275000000839
        },
        {
          "name": "C#0",
          "midi": 13,
          "time": 208.28550599999954,
          "velocity": 0.7874015748031497,
          "duration": 0.10714275000000839
        },
        {
          "name": "C#0",
          "midi": 13,
          "time": 208.71407699999955,
          "velocity": 0.7874015748031497,
          "duration": 0.10714275000000839
        },
        {
          "name": "C0",
          "midi": 12,
          "time": 209.14264799999955,
          "velocity": 0.7874015748031497,
          "duration": 0.10714275000000839
        },
        {
          "name": "C#0",
          "midi": 13,
          "time": 209.57121899999956,
          "velocity": 0.7874015748031497,
          "duration": 0.10714275000000839
        },
        {
          "name": "C#0",
          "midi": 13,
          "time": 209.99978999999956,
          "velocity": 0.7874015748031497,
          "duration": 0.10714275000000839
        },
        {
          "name": "C#0",
          "midi": 13,
          "time": 210.42836099999957,
          "velocity": 0.7874015748031497,
          "duration": 0.10714275000000839
        },
        {
          "name": "C0",
          "midi": 12,
          "time": 210.85693199999957,
          "velocity": 0.7874015748031497,
          "duration": 0.10714275000000839
        },
        {
          "name": "C#0",
          "midi": 13,
          "time": 211.28550299999958,
          "velocity": 0.7874015748031497,
          "duration": 0.10714275000000839
        },
        {
          "name": "C#0",
          "midi": 13,
          "time": 211.71407399999958,
          "velocity": 0.7874015748031497,
          "duration": 0.10714275000000839
        },
        {
          "name": "C#0",
          "midi": 13,
          "time": 212.1426449999996,
          "velocity": 0.7874015748031497,
          "duration": 0.10714275000000839
        },
        {
          "name": "C0",
          "midi": 12,
          "time": 212.5712159999996,
          "velocity": 0.7874015748031497,
          "duration": 0.10714275000000839
        },
        {
          "name": "C#0",
          "midi": 13,
          "time": 212.9997869999996,
          "velocity": 0.7874015748031497,
          "duration": 0.10714275000000839
        },
        {
          "name": "C#0",
          "midi": 13,
          "time": 213.4283579999996,
          "velocity": 0.7874015748031497,
          "duration": 0.10714275000000839
        },
        {
          "name": "C#0",
          "midi": 13,
          "time": 213.8569289999996,
          "velocity": 0.7874015748031497,
          "duration": 0.10714275000000839
        },
        {
          "name": "C0",
          "midi": 12,
          "time": 214.28549999999962,
          "velocity": 0.7874015748031497,
          "duration": 0.10714275000000839
        },
        {
          "name": "C#0",
          "midi": 13,
          "time": 214.71407099999962,
          "velocity": 0.7874015748031497,
          "duration": 0.10714275000000839
        },
        {
          "name": "C#0",
          "midi": 13,
          "time": 215.14264199999963,
          "velocity": 0.7874015748031497,
          "duration": 0.10714275000000839
        },
        {
          "name": "C#0",
          "midi": 13,
          "time": 215.57121299999963,
          "velocity": 0.7874015748031497,
          "duration": 0.10714275000000839
        },
        {
          "name": "C0",
          "midi": 12,
          "time": 215.99978399999964,
          "velocity": 0.7874015748031497,
          "duration": 0.10714275000000839
        },
        {
          "name": "C#0",
          "midi": 13,
          "time": 216.42835499999964,
          "velocity": 0.7874015748031497,
          "duration": 0.10714275000000839
        },
        {
          "name": "C#0",
          "midi": 13,
          "time": 216.85692599999965,
          "velocity": 0.7874015748031497,
          "duration": 0.10714275000000839
        },
        {
          "name": "C#0",
          "midi": 13,
          "time": 217.28549699999965,
          "velocity": 0.7874015748031497,
          "duration": 0.10714275000000839
        },
        {
          "name": "C0",
          "midi": 12,
          "time": 217.71406799999966,
          "velocity": 0.7874015748031497,
          "duration": 0.10714275000000839
        },
        {
          "name": "C#0",
          "midi": 13,
          "time": 218.14263899999966,
          "velocity": 0.7874015748031497,
          "duration": 0.10714275000000839
        },
        {
          "name": "C#0",
          "midi": 13,
          "time": 218.57120999999967,
          "velocity": 0.7874015748031497,
          "duration": 0.10714275000000839
        },
        {
          "name": "C#0",
          "midi": 13,
          "time": 218.99978099999967,
          "velocity": 0.7874015748031497,
          "duration": 0.10714275000000839
        },
        {
          "name": "C0",
          "midi": 12,
          "time": 219.42835199999968,
          "velocity": 0.7874015748031497,
          "duration": 0.10714275000000839
        },
        {
          "name": "C#0",
          "midi": 13,
          "time": 219.85692299999968,
          "velocity": 0.7874015748031497,
          "duration": 0.10714275000000839
        },
        {
          "name": "C#0",
          "midi": 13,
          "time": 220.2854939999997,
          "velocity": 0.7874015748031497,
          "duration": 0.10714275000000839
        },
        {
          "name": "C#0",
          "midi": 13,
          "time": 220.7140649999997,
          "velocity": 0.7874015748031497,
          "duration": 0.10714275000000839
        },
        {
          "name": "C0",
          "midi": 12,
          "time": 221.1426359999997,
          "velocity": 0.7874015748031497,
          "duration": 0.10714275000000839
        },
        {
          "name": "C#0",
          "midi": 13,
          "time": 221.5712069999997,
          "velocity": 0.7874015748031497,
          "duration": 0.10714275000000839
        },
        {
          "name": "C#0",
          "midi": 13,
          "time": 221.9997779999997,
          "velocity": 0.7874015748031497,
          "duration": 0.10714275000000839
        },
        {
          "name": "C#0",
          "midi": 13,
          "time": 222.4283489999997,
          "velocity": 0.7874015748031497,
          "duration": 0.10714275000000839
        },
        {
          "name": "C0",
          "midi": 12,
          "time": 222.85691999999972,
          "velocity": 0.7874015748031497,
          "duration": 0.10714275000000839
        },
        {
          "name": "C#0",
          "midi": 13,
          "time": 223.28549099999972,
          "velocity": 0.7874015748031497,
          "duration": 0.10714275000000839
        },
        {
          "name": "C#0",
          "midi": 13,
          "time": 223.71406199999973,
          "velocity": 0.7874015748031497,
          "duration": 0.10714275000000839
        },
        {
          "name": "C#0",
          "midi": 13,
          "time": 224.14263299999973,
          "velocity": 0.7874015748031497,
          "duration": 0.10714275000000839
        },
        {
          "name": "C0",
          "midi": 12,
          "time": 224.57120399999974,
          "velocity": 0.7874015748031497,
          "duration": 0.10714275000000839
        },
        {
          "name": "C#0",
          "midi": 13,
          "time": 224.99977499999974,
          "velocity": 0.7874015748031497,
          "duration": 0.10714275000000839
        },
        {
          "name": "C#0",
          "midi": 13,
          "time": 225.42834599999975,
          "velocity": 0.7874015748031497,
          "duration": 0.10714275000000839
        },
        {
          "name": "C#0",
          "midi": 13,
          "time": 225.85691699999975,
          "velocity": 0.7874015748031497,
          "duration": 0.10714275000000839
        },
        {
          "name": "C0",
          "midi": 12,
          "time": 226.28548799999976,
          "velocity": 0.7874015748031497,
          "duration": 0.10714275000000839
        },
        {
          "name": "C#0",
          "midi": 13,
          "time": 226.71405899999976,
          "velocity": 0.7874015748031497,
          "duration": 0.10714275000000839
        },
        {
          "name": "C#0",
          "midi": 13,
          "time": 227.14262999999977,
          "velocity": 0.7874015748031497,
          "duration": 0.10714275000000839
        },
        {
          "name": "C#0",
          "midi": 13,
          "time": 227.57120099999977,
          "velocity": 0.7874015748031497,
          "duration": 0.10714275000000839
        },
        {
          "name": "C0",
          "midi": 12,
          "time": 227.99977199999978,
          "velocity": 0.7874015748031497,
          "duration": 0.10714275000000839
        },
        {
          "name": "C#0",
          "midi": 13,
          "time": 228.42834299999978,
          "velocity": 0.7874015748031497,
          "duration": 0.10714275000000839
        },
        {
          "name": "C#0",
          "midi": 13,
          "time": 228.8569139999998,
          "velocity": 0.7874015748031497,
          "duration": 0.10714275000000839
        },
        {
          "name": "C#0",
          "midi": 13,
          "time": 229.2854849999998,
          "velocity": 0.7874015748031497,
          "duration": 0.10714275000000839
        },
        {
          "name": "C0",
          "midi": 12,
          "time": 229.7140559999998,
          "velocity": 0.7874015748031497,
          "duration": 0.10714275000000839
        },
        {
          "name": "C#0",
          "midi": 13,
          "time": 230.1426269999998,
          "velocity": 0.7874015748031497,
          "duration": 0.10714275000000839
        },
        {
          "name": "C#0",
          "midi": 13,
          "time": 230.5711979999998,
          "velocity": 0.7874015748031497,
          "duration": 0.10714275000000839
        },
        {
          "name": "C#0",
          "midi": 13,
          "time": 230.99976899999982,
          "velocity": 0.7874015748031497,
          "duration": 0.10714275000000839
        },
        {
          "name": "C0",
          "midi": 12,
          "time": 231.42833999999982,
          "velocity": 0.7874015748031497,
          "duration": 0.10714275000000839
        },
        {
          "name": "C#0",
          "midi": 13,
          "time": 231.85691099999983,
          "velocity": 0.7874015748031497,
          "duration": 0.10714275000000839
        },
        {
          "name": "C#0",
          "midi": 13,
          "time": 232.28548199999983,
          "velocity": 0.7874015748031497,
          "duration": 0.10714275000000839
        },
        {
          "name": "C#0",
          "midi": 13,
          "time": 232.71405299999984,
          "velocity": 0.7874015748031497,
          "duration": 0.10714275000000839
        },
        {
          "name": "C0",
          "midi": 12,
          "time": 233.14262399999984,
          "velocity": 0.7874015748031497,
          "duration": 0.10714275000000839
        },
        {
          "name": "C#0",
          "midi": 13,
          "time": 233.57119499999985,
          "velocity": 0.7874015748031497,
          "duration": 0.10714275000000839
        },
        {
          "name": "C#0",
          "midi": 13,
          "time": 233.99976599999985,
          "velocity": 0.7874015748031497,
          "duration": 0.10714275000000839
        },
        {
          "name": "C#0",
          "midi": 13,
          "time": 234.42833699999986,
          "velocity": 0.7874015748031497,
          "duration": 0.10714275000000839
        },
        {
          "name": "C0",
          "midi": 12,
          "time": 234.85690799999986,
          "velocity": 0.7874015748031497,
          "duration": 0.10714275000000839
        },
        {
          "name": "C#0",
          "midi": 13,
          "time": 235.28547899999987,
          "velocity": 0.7874015748031497,
          "duration": 0.10714275000000839
        },
        {
          "name": "C#0",
          "midi": 13,
          "time": 235.71404999999987,
          "velocity": 0.7874015748031497,
          "duration": 0.10714275000000839
        },
        {
          "name": "C#0",
          "midi": 13,
          "time": 236.14262099999988,
          "velocity": 0.7874015748031497,
          "duration": 0.10714275000000839
        },
        {
          "name": "C0",
          "midi": 12,
          "time": 236.57119199999988,
          "velocity": 0.7874015748031497,
          "duration": 0.10714275000000839
        },
        {
          "name": "C#0",
          "midi": 13,
          "time": 236.9997629999999,
          "velocity": 0.7874015748031497,
          "duration": 0.10714275000000839
        },
        {
          "name": "C#0",
          "midi": 13,
          "time": 237.4283339999999,
          "velocity": 0.7874015748031497,
          "duration": 0.10714275000000839
        },
        {
          "name": "C#0",
          "midi": 13,
          "time": 237.8569049999999,
          "velocity": 0.7874015748031497,
          "duration": 0.10714275000000839
        },
        {
          "name": "C0",
          "midi": 12,
          "time": 238.2854759999999,
          "velocity": 0.7874015748031497,
          "duration": 0.10714275000000839
        },
        {
          "name": "C#0",
          "midi": 13,
          "time": 238.7140469999999,
          "velocity": 0.7874015748031497,
          "duration": 0.10714275000000839
        },
        {
          "name": "C#0",
          "midi": 13,
          "time": 239.1426179999999,
          "velocity": 0.7874015748031497,
          "duration": 0.10714275000000839
        },
        {
          "name": "C#0",
          "midi": 13,
          "time": 239.57118899999992,
          "velocity": 0.7874015748031497,
          "duration": 0.10714275000000839
        },
        {
          "name": "C0",
          "midi": 12,
          "time": 239.99975999999992,
          "velocity": 0.7874015748031497,
          "duration": 0.10714275000000839
        },
        {
          "name": "C#0",
          "midi": 13,
          "time": 240.42833099999993,
          "velocity": 0.7874015748031497,
          "duration": 0.10714275000000839
        },
        {
          "name": "C#0",
          "midi": 13,
          "time": 240.85690199999993,
          "velocity": 0.7874015748031497,
          "duration": 0.10714275000000839
        },
        {
          "name": "C#0",
          "midi": 13,
          "time": 241.28547299999994,
          "velocity": 0.7874015748031497,
          "duration": 0.10714275000000839
        },
        {
          "name": "C0",
          "midi": 12,
          "time": 241.71404399999994,
          "velocity": 0.7874015748031497,
          "duration": 0.10714275000000839
        },
        {
          "name": "C#0",
          "midi": 13,
          "time": 242.14261499999995,
          "velocity": 0.7874015748031497,
          "duration": 0.10714275000000839
        },
        {
          "name": "C#0",
          "midi": 13,
          "time": 242.57118599999995,
          "velocity": 0.7874015748031497,
          "duration": 0.10714275000000839
        },
        {
          "name": "C#0",
          "midi": 13,
          "time": 242.99975699999996,
          "velocity": 0.7874015748031497,
          "duration": 0.10714275000000839
        },
        {
          "name": "C0",
          "midi": 12,
          "time": 243.42832799999996,
          "velocity": 0.7874015748031497,
          "duration": 0.10714275000000839
        },
        {
          "name": "C#0",
          "midi": 13,
          "time": 243.85689899999997,
          "velocity": 0.7874015748031497,
          "duration": 0.10714275000000839
        },
        {
          "name": "C#0",
          "midi": 13,
          "time": 244.28546999999998,
          "velocity": 0.7874015748031497,
          "duration": 0.10714275000000839
        },
        {
          "name": "C#0",
          "midi": 13,
          "time": 244.71404099999998,
          "velocity": 0.7874015748031497,
          "duration": 0.10714275000000839
        },
        {
          "name": "C0",
          "midi": 12,
          "time": 245.14261199999999,
          "velocity": 0.7874015748031497,
          "duration": 0.10714275000000839
        },
        {
          "name": "C#0",
          "midi": 13,
          "time": 245.571183,
          "velocity": 0.7874015748031497,
          "duration": 0.10714275000000839
        },
        {
          "name": "C#0",
          "midi": 13,
          "time": 245.999754,
          "velocity": 0.7874015748031497,
          "duration": 0.10714275000000839
        },
        {
          "name": "C#0",
          "midi": 13,
          "time": 246.428325,
          "velocity": 0.7874015748031497,
          "duration": 0.10714275000000839
        },
        {
          "name": "C0",
          "midi": 12,
          "time": 246.856896,
          "velocity": 0.7874015748031497,
          "duration": 0.10714275000000839
        },
        {
          "name": "C#0",
          "midi": 13,
          "time": 247.285467,
          "velocity": 0.7874015748031497,
          "duration": 0.10714275000000839
        },
        {
          "name": "C#0",
          "midi": 13,
          "time": 247.71403800000002,
          "velocity": 0.7874015748031497,
          "duration": 0.10714275000000839
        },
        {
          "name": "C#0",
          "midi": 13,
          "time": 248.14260900000002,
          "velocity": 0.7874015748031497,
          "duration": 0.10714275000000839
        },
        {
          "name": "C0",
          "midi": 12,
          "time": 248.57118000000003,
          "velocity": 0.7874015748031497,
          "duration": 0.10714275000000839
        },
        {
          "name": "C#0",
          "midi": 13,
          "time": 248.99975100000003,
          "velocity": 0.7874015748031497,
          "duration": 0.10714275000000839
        },
        {
          "name": "C#0",
          "midi": 13,
          "time": 249.42832200000004,
          "velocity": 0.7874015748031497,
          "duration": 0.10714275000000839
        },
        {
          "name": "C#0",
          "midi": 13,
          "time": 249.85689300000004,
          "velocity": 0.7874015748031497,
          "duration": 0.10714275000000839
        },
        {
          "name": "C0",
          "midi": 12,
          "time": 250.28546400000005,
          "velocity": 0.7874015748031497,
          "duration": 0.10714275000000839
        },
        {
          "name": "C#0",
          "midi": 13,
          "time": 250.71403500000005,
          "velocity": 0.7874015748031497,
          "duration": 0.10714275000000839
        },
        {
          "name": "C#0",
          "midi": 13,
          "time": 251.14260600000006,
          "velocity": 0.7874015748031497,
          "duration": 0.10714275000000839
        },
        {
          "name": "C#0",
          "midi": 13,
          "time": 251.57117700000006,
          "velocity": 0.7874015748031497,
          "duration": 0.10714275000000839
        },
        {
          "name": "C0",
          "midi": 12,
          "time": 251.99974800000007,
          "velocity": 0.7874015748031497,
          "duration": 0.10714275000000839
        },
        {
          "name": "C#0",
          "midi": 13,
          "time": 252.42831900000007,
          "velocity": 0.7874015748031497,
          "duration": 0.10714275000000839
        },
        {
          "name": "C#0",
          "midi": 13,
          "time": 252.85689000000008,
          "velocity": 0.7874015748031497,
          "duration": 0.10714275000000839
        },
        {
          "name": "C#0",
          "midi": 13,
          "time": 253.28546100000008,
          "velocity": 0.7874015748031497,
          "duration": 0.10714275000000839
        },
        {
          "name": "C0",
          "midi": 12,
          "time": 253.7140320000001,
          "velocity": 0.7874015748031497,
          "duration": 0.10714275000000839
        },
        {
          "name": "C#0",
          "midi": 13,
          "time": 254.1426030000001,
          "velocity": 0.7874015748031497,
          "duration": 0.10714275000000839
        },
        {
          "name": "C#0",
          "midi": 13,
          "time": 254.5711740000001,
          "velocity": 0.7874015748031497,
          "duration": 0.10714275000000839
        },
        {
          "name": "C#0",
          "midi": 13,
          "time": 254.9997450000001,
          "velocity": 0.7874015748031497,
          "duration": 0.10714275000000839
        },
        {
          "name": "C0",
          "midi": 12,
          "time": 255.4283160000001,
          "velocity": 0.7874015748031497,
          "duration": 0.10714275000000839
        },
        {
          "name": "C#0",
          "midi": 13,
          "time": 255.8568870000001,
          "velocity": 0.7874015748031497,
          "duration": 0.10714275000000839
        },
        {
          "name": "C#0",
          "midi": 13,
          "time": 256.2854580000001,
          "velocity": 0.7874015748031497,
          "duration": 0.10714274999997997
        },
        {
          "name": "C#0",
          "midi": 13,
          "time": 256.7140290000001,
          "velocity": 0.7874015748031497,
          "duration": 0.10714274999997997
        },
        {
          "name": "C0",
          "midi": 12,
          "time": 257.1426000000001,
          "velocity": 0.7874015748031497,
          "duration": 0.10714274999997997
        },
        {
          "name": "C#0",
          "midi": 13,
          "time": 257.57117100000005,
          "velocity": 0.7874015748031497,
          "duration": 0.10714274999997997
        },
        {
          "name": "C#0",
          "midi": 13,
          "time": 257.999742,
          "velocity": 0.7874015748031497,
          "duration": 0.10714274999997997
        },
        {
          "name": "C#0",
          "midi": 13,
          "time": 258.428313,
          "velocity": 0.7874015748031497,
          "duration": 0.10714274999997997
        },
        {
          "name": "C0",
          "midi": 12,
          "time": 258.856884,
          "velocity": 0.7874015748031497,
          "duration": 0.10714274999997997
        },
        {
          "name": "C#0",
          "midi": 13,
          "time": 259.28545499999996,
          "velocity": 0.7874015748031497,
          "duration": 0.10714274999997997
        },
        {
          "name": "C#0",
          "midi": 13,
          "time": 259.71402599999993,
          "velocity": 0.7874015748031497,
          "duration": 0.10714274999997997
        },
        {
          "name": "C#0",
          "midi": 13,
          "time": 260.1425969999999,
          "velocity": 0.7874015748031497,
          "duration": 0.10714274999997997
        },
        {
          "name": "C0",
          "midi": 12,
          "time": 260.5711679999999,
          "velocity": 0.7874015748031497,
          "duration": 0.10714274999997997
        },
        {
          "name": "C#0",
          "midi": 13,
          "time": 260.99973899999986,
          "velocity": 0.7874015748031497,
          "duration": 0.10714274999997997
        },
        {
          "name": "C#0",
          "midi": 13,
          "time": 261.42830999999984,
          "velocity": 0.7874015748031497,
          "duration": 0.10714274999997997
        },
        {
          "name": "C#0",
          "midi": 13,
          "time": 261.8568809999998,
          "velocity": 0.7874015748031497,
          "duration": 0.10714274999997997
        },
        {
          "name": "C0",
          "midi": 12,
          "time": 262.2854519999998,
          "velocity": 0.7874015748031497,
          "duration": 0.10714274999997997
        },
        {
          "name": "C#0",
          "midi": 13,
          "time": 262.71402299999977,
          "velocity": 0.7874015748031497,
          "duration": 0.10714274999997997
        },
        {
          "name": "C#0",
          "midi": 13,
          "time": 263.14259399999975,
          "velocity": 0.7874015748031497,
          "duration": 0.10714274999997997
        },
        {
          "name": "C#0",
          "midi": 13,
          "time": 263.5711649999997,
          "velocity": 0.7874015748031497,
          "duration": 0.10714274999997997
        },
        {
          "name": "C0",
          "midi": 12,
          "time": 263.9997359999997,
          "velocity": 0.7874015748031497,
          "duration": 0.10714274999997997
        },
        {
          "name": "C#0",
          "midi": 13,
          "time": 264.4283069999997,
          "velocity": 0.7874015748031497,
          "duration": 0.10714274999997997
        },
        {
          "name": "C#0",
          "midi": 13,
          "time": 264.85687799999965,
          "velocity": 0.7874015748031497,
          "duration": 0.10714274999997997
        },
        {
          "name": "C#0",
          "midi": 13,
          "time": 265.28544899999963,
          "velocity": 0.7874015748031497,
          "duration": 0.10714274999997997
        },
        {
          "name": "C0",
          "midi": 12,
          "time": 265.7140199999996,
          "velocity": 0.7874015748031497,
          "duration": 0.10714274999997997
        },
        {
          "name": "C#0",
          "midi": 13,
          "time": 266.1425909999996,
          "velocity": 0.7874015748031497,
          "duration": 0.10714274999997997
        },
        {
          "name": "C#0",
          "midi": 13,
          "time": 266.57116199999956,
          "velocity": 0.7874015748031497,
          "duration": 0.10714274999997997
        },
        {
          "name": "C#0",
          "midi": 13,
          "time": 266.99973299999954,
          "velocity": 0.7874015748031497,
          "duration": 0.10714274999997997
        },
        {
          "name": "C0",
          "midi": 12,
          "time": 267.4283039999995,
          "velocity": 0.7874015748031497,
          "duration": 0.10714274999997997
        },
        {
          "name": "C#0",
          "midi": 13,
          "time": 267.8568749999995,
          "velocity": 0.7874015748031497,
          "duration": 0.10714274999997997
        },
        {
          "name": "C#0",
          "midi": 13,
          "time": 268.28544599999947,
          "velocity": 0.7874015748031497,
          "duration": 0.10714274999997997
        },
        {
          "name": "C#0",
          "midi": 13,
          "time": 268.71401699999944,
          "velocity": 0.7874015748031497,
          "duration": 0.10714274999997997
        },
        {
          "name": "C0",
          "midi": 12,
          "time": 269.1425879999994,
          "velocity": 0.7874015748031497,
          "duration": 0.10714274999997997
        },
        {
          "name": "C#0",
          "midi": 13,
          "time": 269.5711589999994,
          "velocity": 0.7874015748031497,
          "duration": 0.10714274999997997
        },
        {
          "name": "C#0",
          "midi": 13,
          "time": 269.9997299999994,
          "velocity": 0.7874015748031497,
          "duration": 0.10714274999997997
        },
        {
          "name": "C#0",
          "midi": 13,
          "time": 270.42830099999935,
          "velocity": 0.7874015748031497,
          "duration": 0.10714274999997997
        },
        {
          "name": "C0",
          "midi": 12,
          "time": 270.8568719999993,
          "velocity": 0.7874015748031497,
          "duration": 0.10714274999997997
        },
        {
          "name": "C#0",
          "midi": 13,
          "time": 271.2854429999993,
          "velocity": 0.7874015748031497,
          "duration": 0.10714274999997997
        },
        {
          "name": "C#0",
          "midi": 13,
          "time": 271.7140139999993,
          "velocity": 0.7874015748031497,
          "duration": 0.10714274999997997
        },
        {
          "name": "C#0",
          "midi": 13,
          "time": 272.14258499999926,
          "velocity": 0.7874015748031497,
          "duration": 0.10714274999997997
        },
        {
          "name": "C0",
          "midi": 12,
          "time": 272.57115599999923,
          "velocity": 0.7874015748031497,
          "duration": 0.10714274999997997
        },
        {
          "name": "C#0",
          "midi": 13,
          "time": 272.9997269999992,
          "velocity": 0.7874015748031497,
          "duration": 0.10714274999997997
        },
        {
          "name": "C#0",
          "midi": 13,
          "time": 273.4282979999992,
          "velocity": 0.7874015748031497,
          "duration": 0.10714274999997997
        },
        {
          "name": "C#0",
          "midi": 13,
          "time": 273.85686899999916,
          "velocity": 0.7874015748031497,
          "duration": 0.10714274999997997
        },
        {
          "name": "C0",
          "midi": 12,
          "time": 274.28543999999914,
          "velocity": 0.7874015748031497,
          "duration": 0.10714274999997997
        },
        {
          "name": "C#0",
          "midi": 13,
          "time": 274.7140109999991,
          "velocity": 0.7874015748031497,
          "duration": 0.10714274999997997
        },
        {
          "name": "C#0",
          "midi": 13,
          "time": 275.1425819999991,
          "velocity": 0.7874015748031497,
          "duration": 0.10714274999997997
        },
        {
          "name": "C#0",
          "midi": 13,
          "time": 275.5711529999991,
          "velocity": 0.7874015748031497,
          "duration": 0.10714274999997997
        },
        {
          "name": "C0",
          "midi": 12,
          "time": 275.99972399999905,
          "velocity": 0.7874015748031497,
          "duration": 0.10714274999997997
        },
        {
          "name": "C#0",
          "midi": 13,
          "time": 276.428294999999,
          "velocity": 0.7874015748031497,
          "duration": 0.10714274999997997
        },
        {
          "name": "C#0",
          "midi": 13,
          "time": 276.856865999999,
          "velocity": 0.7874015748031497,
          "duration": 0.10714274999997997
        },
        {
          "name": "C#0",
          "midi": 13,
          "time": 277.285436999999,
          "velocity": 0.7874015748031497,
          "duration": 0.10714274999997997
        },
        {
          "name": "C0",
          "midi": 12,
          "time": 277.71400799999896,
          "velocity": 0.7874015748031497,
          "duration": 0.10714274999997997
        },
        {
          "name": "C#0",
          "midi": 13,
          "time": 278.14257899999893,
          "velocity": 0.7874015748031497,
          "duration": 0.10714274999997997
        },
        {
          "name": "C#0",
          "midi": 13,
          "time": 278.5711499999989,
          "velocity": 0.7874015748031497,
          "duration": 0.10714274999997997
        },
        {
          "name": "C#0",
          "midi": 13,
          "time": 278.9997209999989,
          "velocity": 0.7874015748031497,
          "duration": 0.10714274999997997
        },
        {
          "name": "C0",
          "midi": 12,
          "time": 279.42829199999886,
          "velocity": 0.7874015748031497,
          "duration": 0.10714274999997997
        },
        {
          "name": "C#0",
          "midi": 13,
          "time": 279.85686299999884,
          "velocity": 0.7874015748031497,
          "duration": 0.10714274999997997
        },
        {
          "name": "C#0",
          "midi": 13,
          "time": 280.2854339999988,
          "velocity": 0.7874015748031497,
          "duration": 0.10714274999997997
        },
        {
          "name": "C#0",
          "midi": 13,
          "time": 280.7140049999988,
          "velocity": 0.7874015748031497,
          "duration": 0.10714274999997997
        },
        {
          "name": "C0",
          "midi": 12,
          "time": 281.14257599999877,
          "velocity": 0.7874015748031497,
          "duration": 0.10714274999997997
        },
        {
          "name": "C#0",
          "midi": 13,
          "time": 281.57114699999875,
          "velocity": 0.7874015748031497,
          "duration": 0.10714274999997997
        },
        {
          "name": "C#0",
          "midi": 13,
          "time": 281.9997179999987,
          "velocity": 0.7874015748031497,
          "duration": 0.10714274999997997
        },
        {
          "name": "C#0",
          "midi": 13,
          "time": 282.4282889999987,
          "velocity": 0.7874015748031497,
          "duration": 0.10714274999997997
        },
        {
          "name": "C0",
          "midi": 12,
          "time": 282.8568599999987,
          "velocity": 0.7874015748031497,
          "duration": 0.10714274999997997
        },
        {
          "name": "C#0",
          "midi": 13,
          "time": 283.28543099999865,
          "velocity": 0.7874015748031497,
          "duration": 0.10714274999997997
        },
        {
          "name": "C#0",
          "midi": 13,
          "time": 283.71400199999863,
          "velocity": 0.7874015748031497,
          "duration": 0.10714274999997997
        },
        {
          "name": "C#0",
          "midi": 13,
          "time": 284.1425729999986,
          "velocity": 0.7874015748031497,
          "duration": 0.10714274999997997
        },
        {
          "name": "C0",
          "midi": 12,
          "time": 284.5711439999986,
          "velocity": 0.7874015748031497,
          "duration": 0.10714274999997997
        },
        {
          "name": "C#0",
          "midi": 13,
          "time": 284.99971499999856,
          "velocity": 0.7874015748031497,
          "duration": 0.10714274999997997
        },
        {
          "name": "C#0",
          "midi": 13,
          "time": 285.42828599999854,
          "velocity": 0.7874015748031497,
          "duration": 0.10714274999997997
        },
        {
          "name": "C#0",
          "midi": 13,
          "time": 285.8568569999985,
          "velocity": 0.7874015748031497,
          "duration": 0.10714274999997997
        },
        {
          "name": "C0",
          "midi": 12,
          "time": 286.2854279999985,
          "velocity": 0.7874015748031497,
          "duration": 0.10714274999997997
        },
        {
          "name": "C#0",
          "midi": 13,
          "time": 286.71399899999847,
          "velocity": 0.7874015748031497,
          "duration": 0.10714274999997997
        },
        {
          "name": "C#0",
          "midi": 13,
          "time": 287.14256999999844,
          "velocity": 0.7874015748031497,
          "duration": 0.10714274999997997
        },
        {
          "name": "C#0",
          "midi": 13,
          "time": 287.5711409999984,
          "velocity": 0.7874015748031497,
          "duration": 0.10714274999997997
        },
        {
          "name": "C0",
          "midi": 12,
          "time": 287.9997119999984,
          "velocity": 0.7874015748031497,
          "duration": 0.10714274999997997
        },
        {
          "name": "C#0",
          "midi": 13,
          "time": 288.4282829999984,
          "velocity": 0.7874015748031497,
          "duration": 0.10714274999997997
        },
        {
          "name": "C#0",
          "midi": 13,
          "time": 288.85685399999835,
          "velocity": 0.7874015748031497,
          "duration": 0.10714274999997997
        },
        {
          "name": "C#0",
          "midi": 13,
          "time": 289.2854249999983,
          "velocity": 0.7874015748031497,
          "duration": 0.10714274999997997
        },
        {
          "name": "C0",
          "midi": 12,
          "time": 289.7139959999983,
          "velocity": 0.7874015748031497,
          "duration": 0.10714274999997997
        },
        {
          "name": "C#0",
          "midi": 13,
          "time": 290.1425669999983,
          "velocity": 0.7874015748031497,
          "duration": 0.10714274999997997
        },
        {
          "name": "C#0",
          "midi": 13,
          "time": 290.57113799999826,
          "velocity": 0.7874015748031497,
          "duration": 0.10714274999997997
        },
        {
          "name": "C#0",
          "midi": 13,
          "time": 290.99970899999823,
          "velocity": 0.7874015748031497,
          "duration": 0.10714274999997997
        },
        {
          "name": "C0",
          "midi": 12,
          "time": 291.4282799999982,
          "velocity": 0.7874015748031497,
          "duration": 0.10714274999997997
        },
        {
          "name": "C#0",
          "midi": 13,
          "time": 291.8568509999982,
          "velocity": 0.7874015748031497,
          "duration": 0.10714274999997997
        },
        {
          "name": "C#0",
          "midi": 13,
          "time": 292.28542199999816,
          "velocity": 0.7874015748031497,
          "duration": 0.10714274999997997
        },
        {
          "name": "C#0",
          "midi": 13,
          "time": 292.71399299999814,
          "velocity": 0.7874015748031497,
          "duration": 0.10714274999997997
        },
        {
          "name": "C0",
          "midi": 12,
          "time": 293.1425639999981,
          "velocity": 0.7874015748031497,
          "duration": 0.10714274999997997
        },
        {
          "name": "C#0",
          "midi": 13,
          "time": 293.5711349999981,
          "velocity": 0.7874015748031497,
          "duration": 0.10714274999997997
        },
        {
          "name": "C#0",
          "midi": 13,
          "time": 293.99970599999807,
          "velocity": 0.7874015748031497,
          "duration": 0.10714274999997997
        },
        {
          "name": "C#0",
          "midi": 13,
          "time": 294.42827699999805,
          "velocity": 0.7874015748031497,
          "duration": 0.10714274999997997
        },
        {
          "name": "C0",
          "midi": 12,
          "time": 294.856847999998,
          "velocity": 0.7874015748031497,
          "duration": 0.10714274999997997
        },
        {
          "name": "C#0",
          "midi": 13,
          "time": 295.285418999998,
          "velocity": 0.7874015748031497,
          "duration": 0.10714274999997997
        },
        {
          "name": "C#0",
          "midi": 13,
          "time": 295.713989999998,
          "velocity": 0.7874015748031497,
          "duration": 0.10714274999997997
        },
        {
          "name": "C#0",
          "midi": 13,
          "time": 296.14256099999795,
          "velocity": 0.7874015748031497,
          "duration": 0.10714274999997997
        },
        {
          "name": "C0",
          "midi": 12,
          "time": 296.57113199999793,
          "velocity": 0.7874015748031497,
          "duration": 0.10714274999997997
        },
        {
          "name": "C#0",
          "midi": 13,
          "time": 296.9997029999979,
          "velocity": 0.7874015748031497,
          "duration": 0.10714274999997997
        },
        {
          "name": "C#0",
          "midi": 13,
          "time": 297.4282739999979,
          "velocity": 0.7874015748031497,
          "duration": 0.10714274999997997
        },
        {
          "name": "C#0",
          "midi": 13,
          "time": 297.85684499999786,
          "velocity": 0.7874015748031497,
          "duration": 0.10714274999997997
        },
        {
          "name": "C0",
          "midi": 12,
          "time": 298.28541599999784,
          "velocity": 0.7874015748031497,
          "duration": 0.10714274999997997
        },
        {
          "name": "C#0",
          "midi": 13,
          "time": 298.7139869999978,
          "velocity": 0.7874015748031497,
          "duration": 0.10714274999997997
        },
        {
          "name": "C#0",
          "midi": 13,
          "time": 299.1425579999978,
          "velocity": 0.7874015748031497,
          "duration": 0.10714274999997997
        },
        {
          "name": "C#0",
          "midi": 13,
          "time": 299.57112899999777,
          "velocity": 0.7874015748031497,
          "duration": 0.10714274999997997
        },
        {
          "name": "C0",
          "midi": 12,
          "time": 299.99969999999774,
          "velocity": 0.7874015748031497,
          "duration": 0.10714274999997997
        },
        {
          "name": "C#0",
          "midi": 13,
          "time": 300.4282709999977,
          "velocity": 0.7874015748031497,
          "duration": 0.10714274999997997
        },
        {
          "name": "C#0",
          "midi": 13,
          "time": 300.8568419999977,
          "velocity": 0.7874015748031497,
          "duration": 0.10714274999997997
        },
        {
          "name": "C#0",
          "midi": 13,
          "time": 301.2854129999977,
          "velocity": 0.7874015748031497,
          "duration": 0.10714274999997997
        },
        {
          "name": "C0",
          "midi": 12,
          "time": 301.71398399999765,
          "velocity": 0.7874015748031497,
          "duration": 0.10714274999997997
        },
        {
          "name": "C#0",
          "midi": 13,
          "time": 302.1425549999976,
          "velocity": 0.7874015748031497,
          "duration": 0.10714274999997997
        },
        {
          "name": "C#0",
          "midi": 13,
          "time": 302.5711259999976,
          "velocity": 0.7874015748031497,
          "duration": 0.10714274999997997
        },
        {
          "name": "C#0",
          "midi": 13,
          "time": 302.9996969999976,
          "velocity": 0.7874015748031497,
          "duration": 0.10714274999997997
        },
        {
          "name": "C0",
          "midi": 12,
          "time": 303.42826799999756,
          "velocity": 0.7874015748031497,
          "duration": 0.10714274999997997
        },
        {
          "name": "C#0",
          "midi": 13,
          "time": 303.85683899999754,
          "velocity": 0.7874015748031497,
          "duration": 0.10714274999997997
        },
        {
          "name": "C#0",
          "midi": 13,
          "time": 304.2854099999975,
          "velocity": 0.7874015748031497,
          "duration": 0.10714274999997997
        },
        {
          "name": "C#0",
          "midi": 13,
          "time": 304.7139809999975,
          "velocity": 0.7874015748031497,
          "duration": 0.10714274999997997
        },
        {
          "name": "C0",
          "midi": 12,
          "time": 305.14255199999747,
          "velocity": 0.7874015748031497,
          "duration": 0.10714274999997997
        },
        {
          "name": "C#0",
          "midi": 13,
          "time": 305.57112299999744,
          "velocity": 0.7874015748031497,
          "duration": 0.10714274999997997
        },
        {
          "name": "C#0",
          "midi": 13,
          "time": 305.9996939999974,
          "velocity": 0.7874015748031497,
          "duration": 0.10714274999997997
        },
        {
          "name": "C#0",
          "midi": 13,
          "time": 306.4282649999974,
          "velocity": 0.7874015748031497,
          "duration": 0.10714274999997997
        },
        {
          "name": "C0",
          "midi": 12,
          "time": 306.8568359999974,
          "velocity": 0.7874015748031497,
          "duration": 0.10714274999997997
        },
        {
          "name": "C#0",
          "midi": 13,
          "time": 307.28540699999735,
          "velocity": 0.7874015748031497,
          "duration": 0.10714274999997997
        },
        {
          "name": "C#0",
          "midi": 13,
          "time": 307.7139779999973,
          "velocity": 0.7874015748031497,
          "duration": 0.10714274999997997
        },
        {
          "name": "C#0",
          "midi": 13,
          "time": 308.1425489999973,
          "velocity": 0.7874015748031497,
          "duration": 0.10714274999997997
        },
        {
          "name": "C0",
          "midi": 12,
          "time": 308.5711199999973,
          "velocity": 0.7874015748031497,
          "duration": 0.10714274999997997
        },
        {
          "name": "C#0",
          "midi": 13,
          "time": 308.99969099999726,
          "velocity": 0.7874015748031497,
          "duration": 0.10714274999997997
        },
        {
          "name": "C#0",
          "midi": 13,
          "time": 309.42826199999723,
          "velocity": 0.7874015748031497,
          "duration": 0.10714274999997997
        },
        {
          "name": "C#0",
          "midi": 13,
          "time": 309.8568329999972,
          "velocity": 0.7874015748031497,
          "duration": 0.10714274999997997
        },
        {
          "name": "C0",
          "midi": 12,
          "time": 310.2854039999972,
          "velocity": 0.7874015748031497,
          "duration": 0.10714274999997997
        },
        {
          "name": "C#0",
          "midi": 13,
          "time": 310.71397499999716,
          "velocity": 0.7874015748031497,
          "duration": 0.10714274999997997
        },
        {
          "name": "C#0",
          "midi": 13,
          "time": 311.14254599999714,
          "velocity": 0.7874015748031497,
          "duration": 0.10714274999997997
        },
        {
          "name": "C#0",
          "midi": 13,
          "time": 311.5711169999971,
          "velocity": 0.7874015748031497,
          "duration": 0.10714274999997997
        },
        {
          "name": "C0",
          "midi": 12,
          "time": 311.9996879999971,
          "velocity": 0.7874015748031497,
          "duration": 0.10714274999997997
        },
        {
          "name": "C#0",
          "midi": 13,
          "time": 312.42825899999707,
          "velocity": 0.7874015748031497,
          "duration": 0.10714274999997997
        },
        {
          "name": "C#0",
          "midi": 13,
          "time": 312.85682999999705,
          "velocity": 0.7874015748031497,
          "duration": 0.10714274999997997
        },
        {
          "name": "C#0",
          "midi": 13,
          "time": 313.285400999997,
          "velocity": 0.7874015748031497,
          "duration": 0.10714274999997997
        },
        {
          "name": "C0",
          "midi": 12,
          "time": 313.713971999997,
          "velocity": 0.7874015748031497,
          "duration": 0.10714274999997997
        },
        {
          "name": "C#0",
          "midi": 13,
          "time": 314.142542999997,
          "velocity": 0.7874015748031497,
          "duration": 0.10714274999997997
        },
        {
          "name": "C#0",
          "midi": 13,
          "time": 314.57111399999695,
          "velocity": 0.7874015748031497,
          "duration": 0.10714274999997997
        },
        {
          "name": "C#0",
          "midi": 13,
          "time": 314.99968499999693,
          "velocity": 0.7874015748031497,
          "duration": 0.10714274999997997
        },
        {
          "name": "C0",
          "midi": 12,
          "time": 315.4282559999969,
          "velocity": 0.7874015748031497,
          "duration": 0.10714274999997997
        },
        {
          "name": "C#0",
          "midi": 13,
          "time": 315.8568269999969,
          "velocity": 0.7874015748031497,
          "duration": 0.10714274999997997
        },
        {
          "name": "C#0",
          "midi": 13,
          "time": 316.28539799999686,
          "velocity": 0.7874015748031497,
          "duration": 0.10714274999997997
        },
        {
          "name": "C#0",
          "midi": 13,
          "time": 316.71396899999684,
          "velocity": 0.7874015748031497,
          "duration": 0.10714274999997997
        },
        {
          "name": "C0",
          "midi": 12,
          "time": 317.1425399999968,
          "velocity": 0.7874015748031497,
          "duration": 0.10714274999997997
        },
        {
          "name": "C#0",
          "midi": 13,
          "time": 317.5711109999968,
          "velocity": 0.7874015748031497,
          "duration": 0.10714274999997997
        },
        {
          "name": "C#0",
          "midi": 13,
          "time": 317.99968199999677,
          "velocity": 0.7874015748031497,
          "duration": 0.10714274999997997
        },
        {
          "name": "C#0",
          "midi": 13,
          "time": 318.42825299999674,
          "velocity": 0.7874015748031497,
          "duration": 0.10714274999997997
        },
        {
          "name": "C0",
          "midi": 12,
          "time": 318.8568239999967,
          "velocity": 0.7874015748031497,
          "duration": 0.10714274999997997
        },
        {
          "name": "C#0",
          "midi": 13,
          "time": 319.2853949999967,
          "velocity": 0.7874015748031497,
          "duration": 0.10714274999997997
        },
        {
          "name": "C#0",
          "midi": 13,
          "time": 319.7139659999967,
          "velocity": 0.7874015748031497,
          "duration": 0.10714274999997997
        },
        {
          "name": "C#0",
          "midi": 13,
          "time": 320.14253699999665,
          "velocity": 0.7874015748031497,
          "duration": 0.10714274999997997
        },
        {
          "name": "C0",
          "midi": 12,
          "time": 320.5711079999966,
          "velocity": 0.7874015748031497,
          "duration": 0.10714274999997997
        },
        {
          "name": "C#0",
          "midi": 13,
          "time": 320.9996789999966,
          "velocity": 0.7874015748031497,
          "duration": 0.10714274999997997
        },
        {
          "name": "C#0",
          "midi": 13,
          "time": 321.4282499999966,
          "velocity": 0.7874015748031497,
          "duration": 0.10714274999997997
        },
        {
          "name": "C#0",
          "midi": 13,
          "time": 321.85682099999656,
          "velocity": 0.7874015748031497,
          "duration": 0.10714274999997997
        },
        {
          "name": "C0",
          "midi": 12,
          "time": 322.28539199999653,
          "velocity": 0.7874015748031497,
          "duration": 0.10714274999997997
        },
        {
          "name": "C#0",
          "midi": 13,
          "time": 322.7139629999965,
          "velocity": 0.7874015748031497,
          "duration": 0.10714274999997997
        },
        {
          "name": "C#0",
          "midi": 13,
          "time": 323.1425339999965,
          "velocity": 0.7874015748031497,
          "duration": 0.10714274999997997
        },
        {
          "name": "C#0",
          "midi": 13,
          "time": 323.57110499999646,
          "velocity": 0.7874015748031497,
          "duration": 0.10714274999997997
        },
        {
          "name": "C0",
          "midi": 12,
          "time": 323.99967599999644,
          "velocity": 0.7874015748031497,
          "duration": 0.10714274999997997
        },
        {
          "name": "C#0",
          "midi": 13,
          "time": 324.4282469999964,
          "velocity": 0.7874015748031497,
          "duration": 0.10714274999997997
        },
        {
          "name": "C#0",
          "midi": 13,
          "time": 324.8568179999964,
          "velocity": 0.7874015748031497,
          "duration": 0.10714274999997997
        },
        {
          "name": "C#0",
          "midi": 13,
          "time": 325.28538899999637,
          "velocity": 0.7874015748031497,
          "duration": 0.10714274999997997
        },
        {
          "name": "C0",
          "midi": 12,
          "time": 325.71395999999635,
          "velocity": 0.7874015748031497,
          "duration": 0.10714274999997997
        },
        {
          "name": "C#0",
          "midi": 13,
          "time": 326.1425309999963,
          "velocity": 0.7874015748031497,
          "duration": 0.10714274999997997
        },
        {
          "name": "C#0",
          "midi": 13,
          "time": 326.5711019999963,
          "velocity": 0.7874015748031497,
          "duration": 0.10714274999997997
        },
        {
          "name": "C#0",
          "midi": 13,
          "time": 326.9996729999963,
          "velocity": 0.7874015748031497,
          "duration": 0.10714274999997997
        },
        {
          "name": "C0",
          "midi": 12,
          "time": 327.42824399999625,
          "velocity": 0.7874015748031497,
          "duration": 0.10714274999997997
        },
        {
          "name": "C#0",
          "midi": 13,
          "time": 327.85681499999623,
          "velocity": 0.7874015748031497,
          "duration": 0.10714274999997997
        },
        {
          "name": "C#0",
          "midi": 13,
          "time": 328.2853859999962,
          "velocity": 0.7874015748031497,
          "duration": 0.10714274999997997
        },
        {
          "name": "C#0",
          "midi": 13,
          "time": 328.7139569999962,
          "velocity": 0.7874015748031497,
          "duration": 0.10714274999997997
        },
        {
          "name": "C0",
          "midi": 12,
          "time": 329.14252799999616,
          "velocity": 0.7874015748031497,
          "duration": 0.10714274999997997
        },
        {
          "name": "C#0",
          "midi": 13,
          "time": 329.57109899999614,
          "velocity": 0.7874015748031497,
          "duration": 0.10714274999997997
        },
        {
          "name": "C#0",
          "midi": 13,
          "time": 329.9996699999961,
          "velocity": 0.7874015748031497,
          "duration": 0.10714274999997997
        },
        {
          "name": "C#0",
          "midi": 13,
          "time": 330.4282409999961,
          "velocity": 0.7874015748031497,
          "duration": 0.10714274999997997
        },
        {
          "name": "C0",
          "midi": 12,
          "time": 330.85681199999607,
          "velocity": 0.7874015748031497,
          "duration": 0.10714274999997997
        },
        {
          "name": "C#0",
          "midi": 13,
          "time": 331.28538299999605,
          "velocity": 0.7874015748031497,
          "duration": 0.10714274999997997
        },
        {
          "name": "C#0",
          "midi": 13,
          "time": 331.713953999996,
          "velocity": 0.7874015748031497,
          "duration": 0.10714274999997997
        },
        {
          "name": "C#0",
          "midi": 13,
          "time": 332.142524999996,
          "velocity": 0.7874015748031497,
          "duration": 0.10714274999997997
        },
        {
          "name": "C0",
          "midi": 12,
          "time": 332.571095999996,
          "velocity": 0.7874015748031497,
          "duration": 0.10714274999997997
        },
        {
          "name": "C#0",
          "midi": 13,
          "time": 332.99966699999595,
          "velocity": 0.7874015748031497,
          "duration": 0.10714274999997997
        },
        {
          "name": "C#0",
          "midi": 13,
          "time": 333.42823799999593,
          "velocity": 0.7874015748031497,
          "duration": 0.10714274999997997
        },
        {
          "name": "C#0",
          "midi": 13,
          "time": 333.8568089999959,
          "velocity": 0.7874015748031497,
          "duration": 0.10714274999997997
        },
        {
          "name": "C0",
          "midi": 12,
          "time": 334.2853799999959,
          "velocity": 0.7874015748031497,
          "duration": 0.10714274999997997
        },
        {
          "name": "C#0",
          "midi": 13,
          "time": 334.71395099999586,
          "velocity": 0.7874015748031497,
          "duration": 0.10714274999997997
        },
        {
          "name": "C#0",
          "midi": 13,
          "time": 335.14252199999584,
          "velocity": 0.7874015748031497,
          "duration": 0.10714274999997997
        },
        {
          "name": "C#0",
          "midi": 13,
          "time": 335.5710929999958,
          "velocity": 0.7874015748031497,
          "duration": 0.10714274999997997
        },
        {
          "name": "C0",
          "midi": 12,
          "time": 335.9996639999958,
          "velocity": 0.7874015748031497,
          "duration": 0.10714274999997997
        },
        {
          "name": "C#0",
          "midi": 13,
          "time": 336.42823499999577,
          "velocity": 0.7874015748031497,
          "duration": 0.10714274999997997
        },
        {
          "name": "C#0",
          "midi": 13,
          "time": 336.85680599999574,
          "velocity": 0.7874015748031497,
          "duration": 0.10714274999997997
        },
        {
          "name": "C#0",
          "midi": 13,
          "time": 337.2853769999957,
          "velocity": 0.7874015748031497,
          "duration": 0.10714274999997997
        },
        {
          "name": "C0",
          "midi": 12,
          "time": 337.7139479999957,
          "velocity": 0.7874015748031497,
          "duration": 0.10714274999997997
        },
        {
          "name": "C#0",
          "midi": 13,
          "time": 338.1425189999957,
          "velocity": 0.7874015748031497,
          "duration": 0.10714274999997997
        },
        {
          "name": "C#0",
          "midi": 13,
          "time": 338.57108999999565,
          "velocity": 0.7874015748031497,
          "duration": 0.10714274999997997
        },
        {
          "name": "C#0",
          "midi": 13,
          "time": 338.9996609999956,
          "velocity": 0.7874015748031497,
          "duration": 0.10714274999997997
        },
        {
          "name": "C0",
          "midi": 12,
          "time": 339.4282319999956,
          "velocity": 0.7874015748031497,
          "duration": 0.10714274999997997
        },
        {
          "name": "C#0",
          "midi": 13,
          "time": 339.8568029999956,
          "velocity": 0.7874015748031497,
          "duration": 0.10714274999997997
        },
        {
          "name": "C#0",
          "midi": 13,
          "time": 340.28537399999556,
          "velocity": 0.7874015748031497,
          "duration": 0.10714274999997997
        },
        {
          "name": "C#0",
          "midi": 13,
          "time": 340.71394499999553,
          "velocity": 0.7874015748031497,
          "duration": 0.10714274999997997
        },
        {
          "name": "C0",
          "midi": 12,
          "time": 341.1425159999955,
          "velocity": 0.7874015748031497,
          "duration": 0.10714274999997997
        },
        {
          "name": "C#0",
          "midi": 13,
          "time": 341.5710869999955,
          "velocity": 0.7874015748031497,
          "duration": 0.10714274999997997
        },
        {
          "name": "C#0",
          "midi": 13,
          "time": 341.99965799999546,
          "velocity": 0.7874015748031497,
          "duration": 0.10714274999997997
        },
        {
          "name": "C#0",
          "midi": 13,
          "time": 342.42822899999544,
          "velocity": 0.7874015748031497,
          "duration": 0.10714274999997997
        },
        {
          "name": "C0",
          "midi": 12,
          "time": 342.8567999999954,
          "velocity": 0.7874015748031497,
          "duration": 0.10714274999997997
        },
        {
          "name": "C#0",
          "midi": 13,
          "time": 343.2853709999954,
          "velocity": 0.7874015748031497,
          "duration": 0.10714274999997997
        },
        {
          "name": "C#0",
          "midi": 13,
          "time": 343.71394199999537,
          "velocity": 0.7874015748031497,
          "duration": 0.10714274999997997
        },
        {
          "name": "C#0",
          "midi": 13,
          "time": 344.14251299999535,
          "velocity": 0.7874015748031497,
          "duration": 0.10714274999997997
        },
        {
          "name": "C0",
          "midi": 12,
          "time": 344.5710839999953,
          "velocity": 0.7874015748031497,
          "duration": 0.10714274999997997
        },
        {
          "name": "C#0",
          "midi": 13,
          "time": 344.9996549999953,
          "velocity": 0.7874015748031497,
          "duration": 0.10714274999997997
        },
        {
          "name": "C#0",
          "midi": 13,
          "time": 345.4282259999953,
          "velocity": 0.7874015748031497,
          "duration": 0.10714274999997997
        },
        {
          "name": "C#0",
          "midi": 13,
          "time": 345.85679699999525,
          "velocity": 0.7874015748031497,
          "duration": 0.10714274999997997
        },
        {
          "name": "C0",
          "midi": 12,
          "time": 346.28536799999523,
          "velocity": 0.7874015748031497,
          "duration": 0.10714274999997997
        },
        {
          "name": "C#0",
          "midi": 13,
          "time": 346.7139389999952,
          "velocity": 0.7874015748031497,
          "duration": 0.10714274999997997
        },
        {
          "name": "C#0",
          "midi": 13,
          "time": 347.1425099999952,
          "velocity": 0.7874015748031497,
          "duration": 0.10714274999997997
        },
        {
          "name": "C#0",
          "midi": 13,
          "time": 347.57108099999516,
          "velocity": 0.7874015748031497,
          "duration": 0.10714274999997997
        },
        {
          "name": "C0",
          "midi": 12,
          "time": 347.99965199999514,
          "velocity": 0.7874015748031497,
          "duration": 0.10714274999997997
        },
        {
          "name": "C#0",
          "midi": 13,
          "time": 348.4282229999951,
          "velocity": 0.7874015748031497,
          "duration": 0.10714274999997997
        },
        {
          "name": "C#0",
          "midi": 13,
          "time": 348.8567939999951,
          "velocity": 0.7874015748031497,
          "duration": 0.10714274999997997
        },
        {
          "name": "C#0",
          "midi": 13,
          "time": 349.28536499999507,
          "velocity": 0.7874015748031497,
          "duration": 0.10714274999997997
        },
        {
          "name": "C0",
          "midi": 12,
          "time": 349.71393599999504,
          "velocity": 0.7874015748031497,
          "duration": 0.10714274999997997
        },
        {
          "name": "C#0",
          "midi": 13,
          "time": 350.142506999995,
          "velocity": 0.7874015748031497,
          "duration": 0.10714274999997997
        },
        {
          "name": "C#0",
          "midi": 13,
          "time": 350.571077999995,
          "velocity": 0.7874015748031497,
          "duration": 0.10714274999997997
        },
        {
          "name": "C#0",
          "midi": 13,
          "time": 350.999648999995,
          "velocity": 0.7874015748031497,
          "duration": 0.10714274999997997
        },
        {
          "name": "C0",
          "midi": 12,
          "time": 351.42821999999495,
          "velocity": 0.7874015748031497,
          "duration": 0.10714274999997997
        },
        {
          "name": "C#0",
          "midi": 13,
          "time": 351.8567909999949,
          "velocity": 0.7874015748031497,
          "duration": 0.10714274999997997
        },
        {
          "name": "C#0",
          "midi": 13,
          "time": 352.2853619999949,
          "velocity": 0.7874015748031497,
          "duration": 0.10714274999997997
        },
        {
          "name": "C#0",
          "midi": 13,
          "time": 352.7139329999949,
          "velocity": 0.7874015748031497,
          "duration": 0.10714274999997997
        },
        {
          "name": "C0",
          "midi": 12,
          "time": 353.14250399999486,
          "velocity": 0.7874015748031497,
          "duration": 0.10714274999997997
        },
        {
          "name": "C#0",
          "midi": 13,
          "time": 353.57107499999483,
          "velocity": 0.7874015748031497,
          "duration": 0.10714274999997997
        },
        {
          "name": "C#0",
          "midi": 13,
          "time": 353.9996459999948,
          "velocity": 0.7874015748031497,
          "duration": 0.10714274999997997
        },
        {
          "name": "C#0",
          "midi": 13,
          "time": 354.4282169999948,
          "velocity": 0.7874015748031497,
          "duration": 0.10714274999997997
        },
        {
          "name": "C0",
          "midi": 12,
          "time": 354.85678799999476,
          "velocity": 0.7874015748031497,
          "duration": 0.10714274999997997
        },
        {
          "name": "C#0",
          "midi": 13,
          "time": 355.28535899999474,
          "velocity": 0.7874015748031497,
          "duration": 0.10714274999997997
        },
        {
          "name": "C#0",
          "midi": 13,
          "time": 355.7139299999947,
          "velocity": 0.7874015748031497,
          "duration": 0.10714274999997997
        },
        {
          "name": "C#0",
          "midi": 13,
          "time": 356.1425009999947,
          "velocity": 0.7874015748031497,
          "duration": 0.10714274999997997
        },
        {
          "name": "C0",
          "midi": 12,
          "time": 356.5710719999947,
          "velocity": 0.7874015748031497,
          "duration": 0.10714274999997997
        },
        {
          "name": "C#0",
          "midi": 13,
          "time": 356.99964299999465,
          "velocity": 0.7874015748031497,
          "duration": 0.10714274999997997
        },
        {
          "name": "C#0",
          "midi": 13,
          "time": 357.4282139999946,
          "velocity": 0.7874015748031497,
          "duration": 0.10714274999997997
        },
        {
          "name": "C#0",
          "midi": 13,
          "time": 357.8567849999946,
          "velocity": 0.7874015748031497,
          "duration": 0.10714274999997997
        },
        {
          "name": "C0",
          "midi": 12,
          "time": 358.2853559999946,
          "velocity": 0.7874015748031497,
          "duration": 0.10714274999997997
        },
        {
          "name": "C#0",
          "midi": 13,
          "time": 358.71392699999456,
          "velocity": 0.7874015748031497,
          "duration": 0.10714274999997997
        },
        {
          "name": "C#0",
          "midi": 13,
          "time": 359.14249799999453,
          "velocity": 0.7874015748031497,
          "duration": 0.10714274999997997
        },
        {
          "name": "C#0",
          "midi": 13,
          "time": 359.5710689999945,
          "velocity": 0.7874015748031497,
          "duration": 0.10714274999997997
        },
        {
          "name": "C0",
          "midi": 12,
          "time": 359.9996399999945,
          "velocity": 0.7874015748031497,
          "duration": 0.10714274999997997
        },
        {
          "name": "C#0",
          "midi": 13,
          "time": 360.42821099999446,
          "velocity": 0.7874015748031497,
          "duration": 0.10714274999997997
        },
        {
          "name": "C#0",
          "midi": 13,
          "time": 360.85678199999444,
          "velocity": 0.7874015748031497,
          "duration": 0.10714274999997997
        },
        {
          "name": "C#0",
          "midi": 13,
          "time": 361.2853529999944,
          "velocity": 0.7874015748031497,
          "duration": 0.10714274999997997
        },
        {
          "name": "C0",
          "midi": 12,
          "time": 361.7139239999944,
          "velocity": 0.7874015748031497,
          "duration": 0.10714274999997997
        },
        {
          "name": "C#0",
          "midi": 13,
          "time": 362.14249499999437,
          "velocity": 0.7874015748031497,
          "duration": 0.10714274999997997
        },
        {
          "name": "C#0",
          "midi": 13,
          "time": 362.57106599999435,
          "velocity": 0.7874015748031497,
          "duration": 0.10714274999997997
        },
        {
          "name": "C#0",
          "midi": 13,
          "time": 362.9996369999943,
          "velocity": 0.7874015748031497,
          "duration": 0.10714274999997997
        },
        {
          "name": "C0",
          "midi": 12,
          "time": 363.4282079999943,
          "velocity": 0.7874015748031497,
          "duration": 0.10714274999997997
        },
        {
          "name": "C#0",
          "midi": 13,
          "time": 363.8567789999943,
          "velocity": 0.7874015748031497,
          "duration": 0.10714274999997997
        },
        {
          "name": "C#0",
          "midi": 13,
          "time": 364.28534999999425,
          "velocity": 0.7874015748031497,
          "duration": 0.10714274999997997
        },
        {
          "name": "C#0",
          "midi": 13,
          "time": 364.71392099999423,
          "velocity": 0.7874015748031497,
          "duration": 0.10714274999997997
        },
        {
          "name": "C0",
          "midi": 12,
          "time": 365.1424919999942,
          "velocity": 0.7874015748031497,
          "duration": 0.10714274999997997
        },
        {
          "name": "C#0",
          "midi": 13,
          "time": 365.5710629999942,
          "velocity": 0.7874015748031497,
          "duration": 0.10714274999997997
        },
        {
          "name": "C#0",
          "midi": 13,
          "time": 365.99963399999416,
          "velocity": 0.7874015748031497,
          "duration": 0.10714274999997997
        },
        {
          "name": "C#0",
          "midi": 13,
          "time": 366.42820499999414,
          "velocity": 0.7874015748031497,
          "duration": 0.10714274999997997
        },
        {
          "name": "C0",
          "midi": 12,
          "time": 366.8567759999941,
          "velocity": 0.7874015748031497,
          "duration": 0.10714274999997997
        },
        {
          "name": "C#0",
          "midi": 13,
          "time": 367.2853469999941,
          "velocity": 0.7874015748031497,
          "duration": 0.10714274999997997
        },
        {
          "name": "C#0",
          "midi": 13,
          "time": 367.71391799999407,
          "velocity": 0.7874015748031497,
          "duration": 0.10714274999997997
        },
        {
          "name": "C#0",
          "midi": 13,
          "time": 368.14248899999404,
          "velocity": 0.7874015748031497,
          "duration": 0.10714274999997997
        },
        {
          "name": "C0",
          "midi": 12,
          "time": 368.571059999994,
          "velocity": 0.7874015748031497,
          "duration": 0.10714274999997997
        },
        {
          "name": "C#0",
          "midi": 13,
          "time": 368.999630999994,
          "velocity": 0.7874015748031497,
          "duration": 0.10714274999997997
        },
        {
          "name": "C#0",
          "midi": 13,
          "time": 369.428201999994,
          "velocity": 0.7874015748031497,
          "duration": 0.10714274999997997
        },
        {
          "name": "C#0",
          "midi": 13,
          "time": 369.85677299999395,
          "velocity": 0.7874015748031497,
          "duration": 0.10714274999997997
        },
        {
          "name": "C0",
          "midi": 12,
          "time": 370.2853439999939,
          "velocity": 0.7874015748031497,
          "duration": 0.10714274999997997
        },
        {
          "name": "C#0",
          "midi": 13,
          "time": 370.7139149999939,
          "velocity": 0.7874015748031497,
          "duration": 0.10714274999997997
        },
        {
          "name": "C#0",
          "midi": 13,
          "time": 371.1424859999939,
          "velocity": 0.7874015748031497,
          "duration": 0.10714274999997997
        },
        {
          "name": "C#0",
          "midi": 13,
          "time": 371.57105699999386,
          "velocity": 0.7874015748031497,
          "duration": 0.10714274999997997
        },
        {
          "name": "C0",
          "midi": 12,
          "time": 371.99962799999383,
          "velocity": 0.7874015748031497,
          "duration": 0.10714274999997997
        },
        {
          "name": "C#0",
          "midi": 13,
          "time": 372.4281989999938,
          "velocity": 0.7874015748031497,
          "duration": 0.10714274999997997
        },
        {
          "name": "C#0",
          "midi": 13,
          "time": 372.8567699999938,
          "velocity": 0.7874015748031497,
          "duration": 0.10714274999997997
        },
        {
          "name": "C#0",
          "midi": 13,
          "time": 373.28534099999376,
          "velocity": 0.7874015748031497,
          "duration": 0.10714274999997997
        },
        {
          "name": "C0",
          "midi": 12,
          "time": 373.71391199999374,
          "velocity": 0.7874015748031497,
          "duration": 0.10714274999997997
        },
        {
          "name": "C#0",
          "midi": 13,
          "time": 374.1424829999937,
          "velocity": 0.7874015748031497,
          "duration": 0.10714274999997997
        },
        {
          "name": "C#0",
          "midi": 13,
          "time": 374.5710539999937,
          "velocity": 0.7874015748031497,
          "duration": 0.10714274999997997
        },
        {
          "name": "C#0",
          "midi": 13,
          "time": 374.99962499999367,
          "velocity": 0.7874015748031497,
          "duration": 0.10714274999997997
        },
        {
          "name": "C0",
          "midi": 12,
          "time": 375.42819599999365,
          "velocity": 0.7874015748031497,
          "duration": 0.10714274999997997
        },
        {
          "name": "C#0",
          "midi": 13,
          "time": 375.8567669999936,
          "velocity": 0.7874015748031497,
          "duration": 0.10714274999997997
        },
        {
          "name": "C#0",
          "midi": 13,
          "time": 376.2853379999936,
          "velocity": 0.7874015748031497,
          "duration": 0.10714274999997997
        },
        {
          "name": "C#0",
          "midi": 13,
          "time": 376.7139089999936,
          "velocity": 0.7874015748031497,
          "duration": 0.10714274999997997
        },
        {
          "name": "C0",
          "midi": 12,
          "time": 377.14247999999355,
          "velocity": 0.7874015748031497,
          "duration": 0.10714274999997997
        },
        {
          "name": "C#0",
          "midi": 13,
          "time": 377.57105099999353,
          "velocity": 0.7874015748031497,
          "duration": 0.10714274999997997
        },
        {
          "name": "C#0",
          "midi": 13,
          "time": 377.9996219999935,
          "velocity": 0.7874015748031497,
          "duration": 0.10714274999997997
        },
        {
          "name": "C#0",
          "midi": 13,
          "time": 378.4281929999935,
          "velocity": 0.7874015748031497,
          "duration": 0.10714274999997997
        },
        {
          "name": "C0",
          "midi": 12,
          "time": 378.85676399999346,
          "velocity": 0.7874015748031497,
          "duration": 0.10714274999997997
        },
        {
          "name": "C#0",
          "midi": 13,
          "time": 379.28533499999344,
          "velocity": 0.7874015748031497,
          "duration": 0.10714274999997997
        },
        {
          "name": "C#0",
          "midi": 13,
          "time": 379.7139059999934,
          "velocity": 0.7874015748031497,
          "duration": 0.10714274999997997
        },
        {
          "name": "C#0",
          "midi": 13,
          "time": 380.1424769999934,
          "velocity": 0.7874015748031497,
          "duration": 0.10714274999997997
        },
        {
          "name": "C0",
          "midi": 12,
          "time": 380.57104799999337,
          "velocity": 0.7874015748031497,
          "duration": 0.10714274999997997
        },
        {
          "name": "C#0",
          "midi": 13,
          "time": 380.99961899999334,
          "velocity": 0.7874015748031497,
          "duration": 0.10714274999997997
        },
        {
          "name": "C#0",
          "midi": 13,
          "time": 381.4281899999933,
          "velocity": 0.7874015748031497,
          "duration": 0.10714274999997997
        },
        {
          "name": "C#0",
          "midi": 13,
          "time": 381.8567609999933,
          "velocity": 0.7874015748031497,
          "duration": 0.10714274999997997
        },
        {
          "name": "C0",
          "midi": 12,
          "time": 382.2853319999933,
          "velocity": 0.7874015748031497,
          "duration": 0.10714274999997997
        },
        {
          "name": "C#0",
          "midi": 13,
          "time": 382.71390299999325,
          "velocity": 0.7874015748031497,
          "duration": 0.10714274999997997
        },
        {
          "name": "C#0",
          "midi": 13,
          "time": 383.14247399999323,
          "velocity": 0.7874015748031497,
          "duration": 0.10714274999997997
        },
        {
          "name": "C#0",
          "midi": 13,
          "time": 383.5710449999932,
          "velocity": 0.7874015748031497,
          "duration": 0.10714274999997997
        },
        {
          "name": "C0",
          "midi": 12,
          "time": 383.9996159999932,
          "velocity": 0.7874015748031497,
          "duration": 0.10714274999997997
        },
        {
          "name": "C#0",
          "midi": 13,
          "time": 384.42818699999316,
          "velocity": 0.7874015748031497,
          "duration": 0.10714274999997997
        },
        {
          "name": "C#0",
          "midi": 13,
          "time": 384.85675799999314,
          "velocity": 0.7874015748031497,
          "duration": 0.10714274999997997
        },
        {
          "name": "C#0",
          "midi": 13,
          "time": 385.2853289999931,
          "velocity": 0.7874015748031497,
          "duration": 0.10714274999997997
        },
        {
          "name": "C0",
          "midi": 12,
          "time": 385.7138999999931,
          "velocity": 0.7874015748031497,
          "duration": 0.10714274999997997
        },
        {
          "name": "C#0",
          "midi": 13,
          "time": 386.14247099999307,
          "velocity": 0.7874015748031497,
          "duration": 0.10714274999997997
        },
        {
          "name": "C#0",
          "midi": 13,
          "time": 386.57104199999304,
          "velocity": 0.7874015748031497,
          "duration": 0.10714274999997997
        },
        {
          "name": "C#0",
          "midi": 13,
          "time": 386.999612999993,
          "velocity": 0.7874015748031497,
          "duration": 0.10714274999997997
        },
        {
          "name": "C0",
          "midi": 12,
          "time": 387.428183999993,
          "velocity": 0.7874015748031497,
          "duration": 0.10714274999997997
        },
        {
          "name": "C#0",
          "midi": 13,
          "time": 387.856754999993,
          "velocity": 0.7874015748031497,
          "duration": 0.10714274999997997
        },
        {
          "name": "C#0",
          "midi": 13,
          "time": 388.28532599999295,
          "velocity": 0.7874015748031497,
          "duration": 0.10714274999997997
        },
        {
          "name": "C#0",
          "midi": 13,
          "time": 388.7138969999929,
          "velocity": 0.7874015748031497,
          "duration": 0.10714274999997997
        },
        {
          "name": "C0",
          "midi": 12,
          "time": 389.1424679999929,
          "velocity": 0.7874015748031497,
          "duration": 0.10714274999997997
        },
        {
          "name": "C#0",
          "midi": 13,
          "time": 389.5710389999929,
          "velocity": 0.7874015748031497,
          "duration": 0.10714274999997997
        },
        {
          "name": "C#0",
          "midi": 13,
          "time": 389.99960999999286,
          "velocity": 0.7874015748031497,
          "duration": 0.10714274999997997
        },
        {
          "name": "C#0",
          "midi": 13,
          "time": 390.42818099999283,
          "velocity": 0.7874015748031497,
          "duration": 0.10714274999997997
        },
        {
          "name": "C0",
          "midi": 12,
          "time": 390.8567519999928,
          "velocity": 0.7874015748031497,
          "duration": 0.10714274999997997
        },
        {
          "name": "C#0",
          "midi": 13,
          "time": 391.2853229999928,
          "velocity": 0.7874015748031497,
          "duration": 0.10714274999997997
        },
        {
          "name": "C#0",
          "midi": 13,
          "time": 391.71389399999276,
          "velocity": 0.7874015748031497,
          "duration": 0.10714274999997997
        },
        {
          "name": "C#0",
          "midi": 13,
          "time": 392.14246499999274,
          "velocity": 0.7874015748031497,
          "duration": 0.10714274999997997
        },
        {
          "name": "C0",
          "midi": 12,
          "time": 392.5710359999927,
          "velocity": 0.7874015748031497,
          "duration": 0.10714274999997997
        },
        {
          "name": "C#0",
          "midi": 13,
          "time": 392.9996069999927,
          "velocity": 0.7874015748031497,
          "duration": 0.10714274999997997
        },
        {
          "name": "C#0",
          "midi": 13,
          "time": 393.42817799999267,
          "velocity": 0.7874015748031497,
          "duration": 0.10714274999997997
        },
        {
          "name": "C#0",
          "midi": 13,
          "time": 393.85674899999265,
          "velocity": 0.7874015748031497,
          "duration": 0.10714274999997997
        },
        {
          "name": "C0",
          "midi": 12,
          "time": 394.2853199999926,
          "velocity": 0.7874015748031497,
          "duration": 0.10714274999997997
        },
        {
          "name": "C#0",
          "midi": 13,
          "time": 394.7138909999926,
          "velocity": 0.7874015748031497,
          "duration": 0.10714274999997997
        },
        {
          "name": "C#0",
          "midi": 13,
          "time": 395.1424619999926,
          "velocity": 0.7874015748031497,
          "duration": 0.10714274999997997
        },
        {
          "name": "C#0",
          "midi": 13,
          "time": 395.57103299999255,
          "velocity": 0.7874015748031497,
          "duration": 0.10714274999997997
        },
        {
          "name": "C0",
          "midi": 12,
          "time": 395.99960399999253,
          "velocity": 0.7874015748031497,
          "duration": 0.10714274999997997
        },
        {
          "name": "C#0",
          "midi": 13,
          "time": 396.4281749999925,
          "velocity": 0.7874015748031497,
          "duration": 0.10714274999997997
        },
        {
          "name": "C#0",
          "midi": 13,
          "time": 396.8567459999925,
          "velocity": 0.7874015748031497,
          "duration": 0.10714274999997997
        },
        {
          "name": "C#0",
          "midi": 13,
          "time": 397.28531699999246,
          "velocity": 0.7874015748031497,
          "duration": 0.10714274999997997
        },
        {
          "name": "C0",
          "midi": 12,
          "time": 397.71388799999244,
          "velocity": 0.7874015748031497,
          "duration": 0.10714274999997997
        },
        {
          "name": "C#0",
          "midi": 13,
          "time": 398.1424589999924,
          "velocity": 0.7874015748031497,
          "duration": 0.10714274999997997
        },
        {
          "name": "C#0",
          "midi": 13,
          "time": 398.5710299999924,
          "velocity": 0.7874015748031497,
          "duration": 0.10714274999997997
        },
        {
          "name": "C#0",
          "midi": 13,
          "time": 398.99960099999237,
          "velocity": 0.7874015748031497,
          "duration": 0.10714274999997997
        },
        {
          "name": "C0",
          "midi": 12,
          "time": 399.42817199999234,
          "velocity": 0.7874015748031497,
          "duration": 0.10714274999997997
        },
        {
          "name": "C#0",
          "midi": 13,
          "time": 399.8567429999923,
          "velocity": 0.7874015748031497,
          "duration": 0.10714274999997997
        },
        {
          "name": "C#0",
          "midi": 13,
          "time": 400.2853139999923,
          "velocity": 0.7874015748031497,
          "duration": 0.10714274999997997
        },
        {
          "name": "C#0",
          "midi": 13,
          "time": 400.7138849999923,
          "velocity": 0.7874015748031497,
          "duration": 0.10714274999997997
        },
        {
          "name": "C0",
          "midi": 12,
          "time": 401.14245599999225,
          "velocity": 0.7874015748031497,
          "duration": 0.10714274999997997
        },
        {
          "name": "C#0",
          "midi": 13,
          "time": 401.5710269999922,
          "velocity": 0.7874015748031497,
          "duration": 0.10714274999997997
        },
        {
          "name": "C#0",
          "midi": 13,
          "time": 401.9995979999922,
          "velocity": 0.7874015748031497,
          "duration": 0.10714274999997997
        },
        {
          "name": "C#0",
          "midi": 13,
          "time": 402.4281689999922,
          "velocity": 0.7874015748031497,
          "duration": 0.10714274999997997
        },
        {
          "name": "C0",
          "midi": 12,
          "time": 402.85673999999216,
          "velocity": 0.7874015748031497,
          "duration": 0.10714274999997997
        },
        {
          "name": "C#0",
          "midi": 13,
          "time": 403.28531099999213,
          "velocity": 0.7874015748031497,
          "duration": 0.10714274999997997
        },
        {
          "name": "C#0",
          "midi": 13,
          "time": 403.7138819999921,
          "velocity": 0.7874015748031497,
          "duration": 0.10714274999997997
        },
        {
          "name": "C#0",
          "midi": 13,
          "time": 404.1424529999921,
          "velocity": 0.7874015748031497,
          "duration": 0.10714274999997997
        },
        {
          "name": "C0",
          "midi": 12,
          "time": 404.57102399999206,
          "velocity": 0.7874015748031497,
          "duration": 0.10714274999997997
        },
        {
          "name": "C#0",
          "midi": 13,
          "time": 404.99959499999204,
          "velocity": 0.7874015748031497,
          "duration": 0.10714274999997997
        },
        {
          "name": "C#0",
          "midi": 13,
          "time": 405.428165999992,
          "velocity": 0.7874015748031497,
          "duration": 0.10714274999997997
        },
        {
          "name": "C#0",
          "midi": 13,
          "time": 405.856736999992,
          "velocity": 0.7874015748031497,
          "duration": 0.10714274999997997
        },
        {
          "name": "C0",
          "midi": 12,
          "time": 406.28530799999197,
          "velocity": 0.7874015748031497,
          "duration": 0.10714274999997997
        },
        {
          "name": "C#0",
          "midi": 13,
          "time": 406.71387899999195,
          "velocity": 0.7874015748031497,
          "duration": 0.10714274999997997
        },
        {
          "name": "C#0",
          "midi": 13,
          "time": 407.1424499999919,
          "velocity": 0.7874015748031497,
          "duration": 0.10714274999997997
        },
        {
          "name": "C#0",
          "midi": 13,
          "time": 407.5710209999919,
          "velocity": 0.7874015748031497,
          "duration": 0.10714274999997997
        },
        {
          "name": "C0",
          "midi": 12,
          "time": 407.9995919999919,
          "velocity": 0.7874015748031497,
          "duration": 0.10714274999997997
        },
        {
          "name": "C#0",
          "midi": 13,
          "time": 408.42816299999186,
          "velocity": 0.7874015748031497,
          "duration": 0.10714274999997997
        },
        {
          "name": "C#0",
          "midi": 13,
          "time": 408.85673399999183,
          "velocity": 0.7874015748031497,
          "duration": 0.10714274999997997
        },
        {
          "name": "C#0",
          "midi": 13,
          "time": 409.2853049999918,
          "velocity": 0.7874015748031497,
          "duration": 0.10714274999997997
        },
        {
          "name": "C0",
          "midi": 12,
          "time": 409.7138759999918,
          "velocity": 0.7874015748031497,
          "duration": 0.10714274999997997
        },
        {
          "name": "C#0",
          "midi": 13,
          "time": 410.14244699999176,
          "velocity": 0.7874015748031497,
          "duration": 0.10714274999997997
        },
        {
          "name": "C#0",
          "midi": 13,
          "time": 410.57101799999174,
          "velocity": 0.7874015748031497,
          "duration": 0.10714274999997997
        },
        {
          "name": "C#0",
          "midi": 13,
          "time": 410.9995889999917,
          "velocity": 0.7874015748031497,
          "duration": 0.10714274999997997
        },
        {
          "name": "C0",
          "midi": 12,
          "time": 411.4281599999917,
          "velocity": 0.7874015748031497,
          "duration": 0.10714274999997997
        },
        {
          "name": "C#0",
          "midi": 13,
          "time": 411.85673099999167,
          "velocity": 0.7874015748031497,
          "duration": 0.10714274999997997
        },
        {
          "name": "C#0",
          "midi": 13,
          "time": 412.28530199999165,
          "velocity": 0.7874015748031497,
          "duration": 0.10714274999997997
        },
        {
          "name": "C#0",
          "midi": 13,
          "time": 412.7138729999916,
          "velocity": 0.7874015748031497,
          "duration": 0.10714274999997997
        },
        {
          "name": "C0",
          "midi": 12,
          "time": 413.1424439999916,
          "velocity": 0.7874015748031497,
          "duration": 0.10714274999997997
        },
        {
          "name": "C#0",
          "midi": 13,
          "time": 413.5710149999916,
          "velocity": 0.7874015748031497,
          "duration": 0.10714274999997997
        },
        {
          "name": "C#0",
          "midi": 13,
          "time": 413.99958599999155,
          "velocity": 0.7874015748031497,
          "duration": 0.10714274999997997
        },
        {
          "name": "C#0",
          "midi": 13,
          "time": 414.42815699999153,
          "velocity": 0.7874015748031497,
          "duration": 0.10714274999997997
        },
        {
          "name": "C0",
          "midi": 12,
          "time": 414.8567279999915,
          "velocity": 0.7874015748031497,
          "duration": 0.10714274999997997
        },
        {
          "name": "C#0",
          "midi": 13,
          "time": 415.2852989999915,
          "velocity": 0.7874015748031497,
          "duration": 0.10714274999997997
        },
        {
          "name": "C#0",
          "midi": 13,
          "time": 415.71386999999146,
          "velocity": 0.7874015748031497,
          "duration": 0.10714274999997997
        },
        {
          "name": "C#0",
          "midi": 13,
          "time": 416.14244099999144,
          "velocity": 0.7874015748031497,
          "duration": 0.10714274999997997
        },
        {
          "name": "C0",
          "midi": 12,
          "time": 416.5710119999914,
          "velocity": 0.7874015748031497,
          "duration": 0.10714274999997997
        },
        {
          "name": "C#0",
          "midi": 13,
          "time": 416.9995829999914,
          "velocity": 0.7874015748031497,
          "duration": 0.10714274999997997
        },
        {
          "name": "C#0",
          "midi": 13,
          "time": 417.42815399999137,
          "velocity": 0.7874015748031497,
          "duration": 0.10714274999997997
        },
        {
          "name": "C#0",
          "midi": 13,
          "time": 417.85672499999134,
          "velocity": 0.7874015748031497,
          "duration": 0.10714274999997997
        },
        {
          "name": "C0",
          "midi": 12,
          "time": 418.2852959999913,
          "velocity": 0.7874015748031497,
          "duration": 0.10714274999997997
        },
        {
          "name": "C#0",
          "midi": 13,
          "time": 418.7138669999913,
          "velocity": 0.7874015748031497,
          "duration": 0.10714274999997997
        },
        {
          "name": "C#0",
          "midi": 13,
          "time": 419.1424379999913,
          "velocity": 0.7874015748031497,
          "duration": 0.10714274999997997
        },
        {
          "name": "C#0",
          "midi": 13,
          "time": 419.57100899999125,
          "velocity": 0.7874015748031497,
          "duration": 0.10714274999997997
        },
        {
          "name": "C0",
          "midi": 12,
          "time": 419.9995799999912,
          "velocity": 0.7874015748031497,
          "duration": 0.10714274999997997
        },
        {
          "name": "C#0",
          "midi": 13,
          "time": 420.4281509999912,
          "velocity": 0.7874015748031497,
          "duration": 0.10714274999997997
        },
        {
          "name": "C#0",
          "midi": 13,
          "time": 420.8567219999912,
          "velocity": 0.7874015748031497,
          "duration": 0.10714274999997997
        },
        {
          "name": "C#0",
          "midi": 13,
          "time": 421.28529299999116,
          "velocity": 0.7874015748031497,
          "duration": 0.10714274999997997
        },
        {
          "name": "C0",
          "midi": 12,
          "time": 421.71386399999113,
          "velocity": 0.7874015748031497,
          "duration": 0.10714274999997997
        },
        {
          "name": "C#0",
          "midi": 13,
          "time": 422.1424349999911,
          "velocity": 0.7874015748031497,
          "duration": 0.10714274999997997
        },
        {
          "name": "C#0",
          "midi": 13,
          "time": 422.5710059999911,
          "velocity": 0.7874015748031497,
          "duration": 0.10714274999997997
        },
        {
          "name": "C#0",
          "midi": 13,
          "time": 422.99957699999106,
          "velocity": 0.7874015748031497,
          "duration": 0.10714274999997997
        },
        {
          "name": "C0",
          "midi": 12,
          "time": 423.42814799999104,
          "velocity": 0.7874015748031497,
          "duration": 0.10714274999997997
        },
        {
          "name": "C#0",
          "midi": 13,
          "time": 423.856718999991,
          "velocity": 0.7874015748031497,
          "duration": 0.10714274999997997
        },
        {
          "name": "C#0",
          "midi": 13,
          "time": 424.285289999991,
          "velocity": 0.7874015748031497,
          "duration": 0.10714274999997997
        },
        {
          "name": "C#0",
          "midi": 13,
          "time": 424.71386099999097,
          "velocity": 0.7874015748031497,
          "duration": 0.10714274999997997
        },
        {
          "name": "C0",
          "midi": 12,
          "time": 425.14243199999095,
          "velocity": 0.7874015748031497,
          "duration": 0.10714274999997997
        },
        {
          "name": "C#0",
          "midi": 13,
          "time": 425.5710029999909,
          "velocity": 0.7874015748031497,
          "duration": 0.10714274999997997
        },
        {
          "name": "C#0",
          "midi": 13,
          "time": 425.9995739999909,
          "velocity": 0.7874015748031497,
          "duration": 0.10714274999997997
        },
        {
          "name": "C#0",
          "midi": 13,
          "time": 426.4281449999909,
          "velocity": 0.7874015748031497,
          "duration": 0.10714274999997997
        },
        {
          "name": "C0",
          "midi": 12,
          "time": 426.85671599999085,
          "velocity": 0.7874015748031497,
          "duration": 0.10714274999997997
        },
        {
          "name": "C#0",
          "midi": 13,
          "time": 427.28528699999083,
          "velocity": 0.7874015748031497,
          "duration": 0.10714274999997997
        },
        {
          "name": "C#0",
          "midi": 13,
          "time": 427.7138579999908,
          "velocity": 0.7874015748031497,
          "duration": 0.10714274999997997
        },
        {
          "name": "C#0",
          "midi": 13,
          "time": 428.1424289999908,
          "velocity": 0.7874015748031497,
          "duration": 0.10714274999997997
        },
        {
          "name": "C0",
          "midi": 12,
          "time": 428.57099999999076,
          "velocity": 0.7874015748031497,
          "duration": 0.10714274999997997
        },
        {
          "name": "C#0",
          "midi": 13,
          "time": 428.99957099999074,
          "velocity": 0.7874015748031497,
          "duration": 0.10714274999997997
        },
        {
          "name": "C#0",
          "midi": 13,
          "time": 429.4281419999907,
          "velocity": 0.7874015748031497,
          "duration": 0.10714274999997997
        },
        {
          "name": "C#0",
          "midi": 13,
          "time": 429.8567129999907,
          "velocity": 0.7874015748031497,
          "duration": 0.10714274999997997
        },
        {
          "name": "C0",
          "midi": 12,
          "time": 430.28528399999067,
          "velocity": 0.7874015748031497,
          "duration": 0.10714274999997997
        },
        {
          "name": "C#0",
          "midi": 13,
          "time": 430.71385499999064,
          "velocity": 0.7874015748031497,
          "duration": 0.10714274999997997
        },
        {
          "name": "C#0",
          "midi": 13,
          "time": 431.1424259999906,
          "velocity": 0.7874015748031497,
          "duration": 0.10714274999997997
        },
        {
          "name": "C#0",
          "midi": 13,
          "time": 431.5709969999906,
          "velocity": 0.7874015748031497,
          "duration": 0.10714274999997997
        },
        {
          "name": "C0",
          "midi": 12,
          "time": 431.9995679999906,
          "velocity": 0.7874015748031497,
          "duration": 0.10714274999997997
        },
        {
          "name": "C#0",
          "midi": 13,
          "time": 432.42813899999055,
          "velocity": 0.7874015748031497,
          "duration": 0.10714274999997997
        },
        {
          "name": "C#0",
          "midi": 13,
          "time": 432.8567099999905,
          "velocity": 0.7874015748031497,
          "duration": 0.10714274999997997
        },
        {
          "name": "C#0",
          "midi": 13,
          "time": 433.2852809999905,
          "velocity": 0.7874015748031497,
          "duration": 0.10714274999997997
        },
        {
          "name": "C0",
          "midi": 12,
          "time": 433.7138519999905,
          "velocity": 0.7874015748031497,
          "duration": 0.10714274999997997
        },
        {
          "name": "C#0",
          "midi": 13,
          "time": 434.14242299999046,
          "velocity": 0.7874015748031497,
          "duration": 0.10714274999997997
        },
        {
          "name": "C#0",
          "midi": 13,
          "time": 434.57099399999043,
          "velocity": 0.7874015748031497,
          "duration": 0.10714274999997997
        },
        {
          "name": "C#0",
          "midi": 13,
          "time": 434.9995649999904,
          "velocity": 0.7874015748031497,
          "duration": 0.10714274999997997
        },
        {
          "name": "C0",
          "midi": 12,
          "time": 435.4281359999904,
          "velocity": 0.7874015748031497,
          "duration": 0.10714274999997997
        },
        {
          "name": "C#0",
          "midi": 13,
          "time": 435.85670699999037,
          "velocity": 0.7874015748031497,
          "duration": 0.10714274999997997
        },
        {
          "name": "C#0",
          "midi": 13,
          "time": 436.28527799999034,
          "velocity": 0.7874015748031497,
          "duration": 0.10714274999997997
        },
        {
          "name": "C#0",
          "midi": 13,
          "time": 436.7138489999903,
          "velocity": 0.7874015748031497,
          "duration": 0.10714274999997997
        },
        {
          "name": "C0",
          "midi": 12,
          "time": 437.1424199999903,
          "velocity": 0.7874015748031497,
          "duration": 0.10714274999997997
        },
        {
          "name": "C#0",
          "midi": 13,
          "time": 437.5709909999903,
          "velocity": 0.7874015748031497,
          "duration": 0.10714274999997997
        },
        {
          "name": "C#0",
          "midi": 13,
          "time": 437.99956199999025,
          "velocity": 0.7874015748031497,
          "duration": 0.10714274999997997
        },
        {
          "name": "C#0",
          "midi": 13,
          "time": 438.4281329999902,
          "velocity": 0.7874015748031497,
          "duration": 0.10714274999997997
        },
        {
          "name": "C0",
          "midi": 12,
          "time": 438.8567039999902,
          "velocity": 0.7874015748031497,
          "duration": 0.10714274999997997
        },
        {
          "name": "C#0",
          "midi": 13,
          "time": 439.2852749999902,
          "velocity": 0.7874015748031497,
          "duration": 0.10714274999997997
        },
        {
          "name": "C#0",
          "midi": 13,
          "time": 439.71384599999016,
          "velocity": 0.7874015748031497,
          "duration": 0.10714274999997997
        },
        {
          "name": "C#0",
          "midi": 13,
          "time": 440.14241699999013,
          "velocity": 0.7874015748031497,
          "duration": 0.10714274999997997
        },
        {
          "name": "C0",
          "midi": 12,
          "time": 440.5709879999901,
          "velocity": 0.7874015748031497,
          "duration": 0.10714274999997997
        },
        {
          "name": "C#0",
          "midi": 13,
          "time": 440.9995589999901,
          "velocity": 0.7874015748031497,
          "duration": 0.10714274999997997
        },
        {
          "name": "C#0",
          "midi": 13,
          "time": 441.42812999999006,
          "velocity": 0.7874015748031497,
          "duration": 0.10714274999997997
        },
        {
          "name": "C#0",
          "midi": 13,
          "time": 441.85670099999004,
          "velocity": 0.7874015748031497,
          "duration": 0.10714274999997997
        },
        {
          "name": "C0",
          "midi": 12,
          "time": 442.28527199999,
          "velocity": 0.7874015748031497,
          "duration": 0.10714274999997997
        },
        {
          "name": "C#0",
          "midi": 13,
          "time": 442.71384299999,
          "velocity": 0.7874015748031497,
          "duration": 0.10714274999997997
        },
        {
          "name": "C#0",
          "midi": 13,
          "time": 443.14241399998997,
          "velocity": 0.7874015748031497,
          "duration": 0.10714274999997997
        },
        {
          "name": "C#0",
          "midi": 13,
          "time": 443.57098499998995,
          "velocity": 0.7874015748031497,
          "duration": 0.10714274999997997
        },
        {
          "name": "C0",
          "midi": 12,
          "time": 443.9995559999899,
          "velocity": 0.7874015748031497,
          "duration": 0.10714274999997997
        },
        {
          "name": "C#0",
          "midi": 13,
          "time": 444.4281269999899,
          "velocity": 0.7874015748031497,
          "duration": 0.10714274999997997
        },
        {
          "name": "C#0",
          "midi": 13,
          "time": 444.8566979999899,
          "velocity": 0.7874015748031497,
          "duration": 0.10714274999997997
        },
        {
          "name": "C#0",
          "midi": 13,
          "time": 445.28526899998985,
          "velocity": 0.7874015748031497,
          "duration": 0.10714274999997997
        },
        {
          "name": "C0",
          "midi": 12,
          "time": 445.71383999998983,
          "velocity": 0.7874015748031497,
          "duration": 0.10714274999997997
        },
        {
          "name": "C#0",
          "midi": 13,
          "time": 446.1424109999898,
          "velocity": 0.7874015748031497,
          "duration": 0.10714274999997997
        },
        {
          "name": "C#0",
          "midi": 13,
          "time": 446.5709819999898,
          "velocity": 0.7874015748031497,
          "duration": 0.10714274999997997
        },
        {
          "name": "C#0",
          "midi": 13,
          "time": 446.99955299998976,
          "velocity": 0.7874015748031497,
          "duration": 0.10714274999997997
        },
        {
          "name": "C0",
          "midi": 12,
          "time": 447.42812399998974,
          "velocity": 0.7874015748031497,
          "duration": 0.10714274999997997
        },
        {
          "name": "C#0",
          "midi": 13,
          "time": 447.8566949999897,
          "velocity": 0.7874015748031497,
          "duration": 0.10714274999997997
        },
        {
          "name": "C#0",
          "midi": 13,
          "time": 448.2852659999897,
          "velocity": 0.7874015748031497,
          "duration": 0.10714274999997997
        },
        {
          "name": "C#0",
          "midi": 13,
          "time": 448.71383699998967,
          "velocity": 0.7874015748031497,
          "duration": 0.10714274999997997
        },
        {
          "name": "C0",
          "midi": 12,
          "time": 449.14240799998964,
          "velocity": 0.7874015748031497,
          "duration": 0.10714274999997997
        },
        {
          "name": "C#0",
          "midi": 13,
          "time": 449.5709789999896,
          "velocity": 0.7874015748031497,
          "duration": 0.10714274999997997
        },
        {
          "name": "C#0",
          "midi": 13,
          "time": 449.9995499999896,
          "velocity": 0.7874015748031497,
          "duration": 0.10714274999997997
        },
        {
          "name": "C#0",
          "midi": 13,
          "time": 450.4281209999896,
          "velocity": 0.7874015748031497,
          "duration": 0.10714274999997997
        },
        {
          "name": "C0",
          "midi": 12,
          "time": 450.85669199998955,
          "velocity": 0.7874015748031497,
          "duration": 0.10714274999997997
        },
        {
          "name": "C#0",
          "midi": 13,
          "time": 451.2852629999895,
          "velocity": 0.7874015748031497,
          "duration": 0.10714274999997997
        },
        {
          "name": "C#0",
          "midi": 13,
          "time": 451.7138339999895,
          "velocity": 0.7874015748031497,
          "duration": 0.10714274999997997
        },
        {
          "name": "C#0",
          "midi": 13,
          "time": 452.1424049999895,
          "velocity": 0.7874015748031497,
          "duration": 0.10714274999997997
        },
        {
          "name": "C0",
          "midi": 12,
          "time": 452.57097599998946,
          "velocity": 0.7874015748031497,
          "duration": 0.10714274999997997
        },
        {
          "name": "C#0",
          "midi": 13,
          "time": 452.99954699998943,
          "velocity": 0.7874015748031497,
          "duration": 0.10714274999997997
        },
        {
          "name": "C#0",
          "midi": 13,
          "time": 453.4281179999894,
          "velocity": 0.7874015748031497,
          "duration": 0.10714274999997997
        },
        {
          "name": "C#0",
          "midi": 13,
          "time": 453.8566889999894,
          "velocity": 0.7874015748031497,
          "duration": 0.10714274999997997
        },
        {
          "name": "C0",
          "midi": 12,
          "time": 454.28525999998936,
          "velocity": 0.7874015748031497,
          "duration": 0.10714274999997997
        },
        {
          "name": "C#0",
          "midi": 13,
          "time": 454.71383099998934,
          "velocity": 0.7874015748031497,
          "duration": 0.10714274999997997
        },
        {
          "name": "C#0",
          "midi": 13,
          "time": 455.1424019999893,
          "velocity": 0.7874015748031497,
          "duration": 0.10714274999997997
        },
        {
          "name": "C#0",
          "midi": 13,
          "time": 455.5709729999893,
          "velocity": 0.7874015748031497,
          "duration": 0.10714274999997997
        },
        {
          "name": "C0",
          "midi": 12,
          "time": 455.99954399998927,
          "velocity": 0.7874015748031497,
          "duration": 0.10714274999997997
        },
        {
          "name": "C#0",
          "midi": 13,
          "time": 456.42811499998925,
          "velocity": 0.7874015748031497,
          "duration": 0.10714274999997997
        },
        {
          "name": "C#0",
          "midi": 13,
          "time": 456.8566859999892,
          "velocity": 0.7874015748031497,
          "duration": 0.10714274999997997
        },
        {
          "name": "C#0",
          "midi": 13,
          "time": 457.2852569999892,
          "velocity": 0.7874015748031497,
          "duration": 0.10714274999997997
        },
        {
          "name": "C0",
          "midi": 12,
          "time": 457.7138279999892,
          "velocity": 0.7874015748031497,
          "duration": 0.10714274999997997
        },
        {
          "name": "C#0",
          "midi": 13,
          "time": 458.14239899998915,
          "velocity": 0.7874015748031497,
          "duration": 0.10714274999997997
        },
        {
          "name": "C#0",
          "midi": 13,
          "time": 458.57096999998913,
          "velocity": 0.7874015748031497,
          "duration": 0.10714274999997997
        },
        {
          "name": "C#0",
          "midi": 13,
          "time": 458.9995409999891,
          "velocity": 0.7874015748031497,
          "duration": 0.10714274999997997
        },
        {
          "name": "C0",
          "midi": 12,
          "time": 459.4281119999891,
          "velocity": 0.7874015748031497,
          "duration": 0.10714274999997997
        },
        {
          "name": "C#0",
          "midi": 13,
          "time": 459.85668299998906,
          "velocity": 0.7874015748031497,
          "duration": 0.10714274999997997
        },
        {
          "name": "C#0",
          "midi": 13,
          "time": 460.28525399998904,
          "velocity": 0.7874015748031497,
          "duration": 0.10714274999997997
        },
        {
          "name": "C#0",
          "midi": 13,
          "time": 460.713824999989,
          "velocity": 0.7874015748031497,
          "duration": 0.10714274999997997
        },
        {
          "name": "C0",
          "midi": 12,
          "time": 461.142395999989,
          "velocity": 0.7874015748031497,
          "duration": 0.10714274999997997
        },
        {
          "name": "C#0",
          "midi": 13,
          "time": 461.57096699998897,
          "velocity": 0.7874015748031497,
          "duration": 0.10714274999997997
        },
        {
          "name": "C#0",
          "midi": 13,
          "time": 461.99953799998895,
          "velocity": 0.7874015748031497,
          "duration": 0.10714274999997997
        },
        {
          "name": "C#0",
          "midi": 13,
          "time": 462.4281089999889,
          "velocity": 0.7874015748031497,
          "duration": 0.10714274999997997
        },
        {
          "name": "C0",
          "midi": 12,
          "time": 462.8566799999889,
          "velocity": 0.7874015748031497,
          "duration": 0.10714274999997997
        },
        {
          "name": "C#0",
          "midi": 13,
          "time": 463.2852509999889,
          "velocity": 0.7874015748031497,
          "duration": 0.10714274999997997
        },
        {
          "name": "C#0",
          "midi": 13,
          "time": 463.71382199998885,
          "velocity": 0.7874015748031497,
          "duration": 0.10714274999997997
        },
        {
          "name": "C#0",
          "midi": 13,
          "time": 464.14239299998883,
          "velocity": 0.7874015748031497,
          "duration": 0.10714274999997997
        },
        {
          "name": "C0",
          "midi": 12,
          "time": 464.5709639999888,
          "velocity": 0.7874015748031497,
          "duration": 0.10714274999997997
        },
        {
          "name": "C#0",
          "midi": 13,
          "time": 464.9995349999888,
          "velocity": 0.7874015748031497,
          "duration": 0.10714274999997997
        },
        {
          "name": "C#0",
          "midi": 13,
          "time": 465.42810599998876,
          "velocity": 0.7874015748031497,
          "duration": 0.10714274999997997
        },
        {
          "name": "C#0",
          "midi": 13,
          "time": 465.85667699998874,
          "velocity": 0.7874015748031497,
          "duration": 0.10714274999997997
        },
        {
          "name": "C0",
          "midi": 12,
          "time": 466.2852479999887,
          "velocity": 0.7874015748031497,
          "duration": 0.10714274999997997
        },
        {
          "name": "C#0",
          "midi": 13,
          "time": 466.7138189999887,
          "velocity": 0.7874015748031497,
          "duration": 0.10714274999997997
        },
        {
          "name": "C#0",
          "midi": 13,
          "time": 467.14238999998867,
          "velocity": 0.7874015748031497,
          "duration": 0.10714274999997997
        },
        {
          "name": "C#0",
          "midi": 13,
          "time": 467.57096099998864,
          "velocity": 0.7874015748031497,
          "duration": 0.10714274999997997
        },
        {
          "name": "C0",
          "midi": 12,
          "time": 467.9995319999886,
          "velocity": 0.7874015748031497,
          "duration": 0.10714274999997997
        },
        {
          "name": "C#0",
          "midi": 13,
          "time": 468.4281029999886,
          "velocity": 0.7874015748031497,
          "duration": 0.10714274999997997
        },
        {
          "name": "C#0",
          "midi": 13,
          "time": 468.8566739999886,
          "velocity": 0.7874015748031497,
          "duration": 0.10714274999997997
        },
        {
          "name": "C#0",
          "midi": 13,
          "time": 469.28524499998855,
          "velocity": 0.7874015748031497,
          "duration": 0.10714274999997997
        },
        {
          "name": "C0",
          "midi": 12,
          "time": 469.7138159999885,
          "velocity": 0.7874015748031497,
          "duration": 0.10714274999997997
        },
        {
          "name": "C#0",
          "midi": 13,
          "time": 470.1423869999885,
          "velocity": 0.7874015748031497,
          "duration": 0.10714274999997997
        },
        {
          "name": "C#0",
          "midi": 13,
          "time": 470.5709579999885,
          "velocity": 0.7874015748031497,
          "duration": 0.10714274999997997
        },
        {
          "name": "C#0",
          "midi": 13,
          "time": 470.99952899998846,
          "velocity": 0.7874015748031497,
          "duration": 0.10714274999997997
        },
        {
          "name": "C0",
          "midi": 12,
          "time": 471.42809999998843,
          "velocity": 0.7874015748031497,
          "duration": 0.10714274999997997
        },
        {
          "name": "C#0",
          "midi": 13,
          "time": 471.8566709999884,
          "velocity": 0.7874015748031497,
          "duration": 0.10714274999997997
        },
        {
          "name": "C#0",
          "midi": 13,
          "time": 472.2852419999884,
          "velocity": 0.7874015748031497,
          "duration": 0.10714274999997997
        },
        {
          "name": "C#0",
          "midi": 13,
          "time": 472.71381299998836,
          "velocity": 0.7874015748031497,
          "duration": 0.10714274999997997
        },
        {
          "name": "C0",
          "midi": 12,
          "time": 473.14238399998834,
          "velocity": 0.7874015748031497,
          "duration": 0.10714274999997997
        },
        {
          "name": "C#0",
          "midi": 13,
          "time": 473.5709549999883,
          "velocity": 0.7874015748031497,
          "duration": 0.10714274999997997
        },
        {
          "name": "C#0",
          "midi": 13,
          "time": 473.9995259999883,
          "velocity": 0.7874015748031497,
          "duration": 0.10714274999997997
        },
        {
          "name": "C#0",
          "midi": 13,
          "time": 474.42809699998827,
          "velocity": 0.7874015748031497,
          "duration": 0.10714274999997997
        },
        {
          "name": "C0",
          "midi": 12,
          "time": 474.85666799998825,
          "velocity": 0.7874015748031497,
          "duration": 0.10714274999997997
        },
        {
          "name": "C#0",
          "midi": 13,
          "time": 475.2852389999882,
          "velocity": 0.7874015748031497,
          "duration": 0.10714274999997997
        },
        {
          "name": "C#0",
          "midi": 13,
          "time": 475.7138099999882,
          "velocity": 0.7874015748031497,
          "duration": 0.10714274999997997
        },
        {
          "name": "C#0",
          "midi": 13,
          "time": 476.1423809999882,
          "velocity": 0.7874015748031497,
          "duration": 0.10714274999997997
        },
        {
          "name": "C0",
          "midi": 12,
          "time": 476.57095199998815,
          "velocity": 0.7874015748031497,
          "duration": 0.10714274999997997
        },
        {
          "name": "C#0",
          "midi": 13,
          "time": 476.99952299998813,
          "velocity": 0.7874015748031497,
          "duration": 0.10714274999997997
        },
        {
          "name": "C#0",
          "midi": 13,
          "time": 477.4280939999881,
          "velocity": 0.7874015748031497,
          "duration": 0.10714274999997997
        },
        {
          "name": "C#0",
          "midi": 13,
          "time": 477.8566649999881,
          "velocity": 0.7874015748031497,
          "duration": 0.10714274999997997
        },
        {
          "name": "C0",
          "midi": 12,
          "time": 478.28523599998806,
          "velocity": 0.7874015748031497,
          "duration": 0.10714274999997997
        },
        {
          "name": "C#0",
          "midi": 13,
          "time": 478.71380699998804,
          "velocity": 0.7874015748031497,
          "duration": 0.10714274999997997
        },
        {
          "name": "C#0",
          "midi": 13,
          "time": 479.142377999988,
          "velocity": 0.7874015748031497,
          "duration": 0.10714274999997997
        },
        {
          "name": "C#0",
          "midi": 13,
          "time": 479.570948999988,
          "velocity": 0.7874015748031497,
          "duration": 0.10714274999997997
        },
        {
          "name": "C0",
          "midi": 12,
          "time": 479.99951999998797,
          "velocity": 0.7874015748031497,
          "duration": 0.10714274999997997
        },
        {
          "name": "C#0",
          "midi": 13,
          "time": 480.42809099998794,
          "velocity": 0.7874015748031497,
          "duration": 0.10714274999997997
        },
        {
          "name": "C#0",
          "midi": 13,
          "time": 480.8566619999879,
          "velocity": 0.7874015748031497,
          "duration": 0.10714274999997997
        },
        {
          "name": "C#0",
          "midi": 13,
          "time": 481.2852329999879,
          "velocity": 0.7874015748031497,
          "duration": 0.10714274999997997
        },
        {
          "name": "C0",
          "midi": 12,
          "time": 481.7138039999879,
          "velocity": 0.7874015748031497,
          "duration": 0.10714274999997997
        },
        {
          "name": "C#0",
          "midi": 13,
          "time": 482.14237499998785,
          "velocity": 0.7874015748031497,
          "duration": 0.10714274999997997
        },
        {
          "name": "C#0",
          "midi": 13,
          "time": 482.5709459999878,
          "velocity": 0.7874015748031497,
          "duration": 0.10714274999997997
        },
        {
          "name": "C#0",
          "midi": 13,
          "time": 482.9995169999878,
          "velocity": 0.7874015748031497,
          "duration": 0.10714274999997997
        },
        {
          "name": "C0",
          "midi": 12,
          "time": 483.4280879999878,
          "velocity": 0.7874015748031497,
          "duration": 0.10714274999997997
        },
        {
          "name": "C#0",
          "midi": 13,
          "time": 483.85665899998776,
          "velocity": 0.7874015748031497,
          "duration": 0.10714274999997997
        },
        {
          "name": "C#0",
          "midi": 13,
          "time": 484.28522999998773,
          "velocity": 0.7874015748031497,
          "duration": 0.10714274999997997
        },
        {
          "name": "C#0",
          "midi": 13,
          "time": 484.7138009999877,
          "velocity": 0.7874015748031497,
          "duration": 0.10714274999997997
        },
        {
          "name": "C0",
          "midi": 12,
          "time": 485.1423719999877,
          "velocity": 0.7874015748031497,
          "duration": 0.10714274999997997
        },
        {
          "name": "C#0",
          "midi": 13,
          "time": 485.57094299998766,
          "velocity": 0.7874015748031497,
          "duration": 0.10714274999997997
        },
        {
          "name": "C#0",
          "midi": 13,
          "time": 485.99951399998764,
          "velocity": 0.7874015748031497,
          "duration": 0.10714274999997997
        },
        {
          "name": "C#0",
          "midi": 13,
          "time": 486.4280849999876,
          "velocity": 0.7874015748031497,
          "duration": 0.10714274999997997
        },
        {
          "name": "C0",
          "midi": 12,
          "time": 486.8566559999876,
          "velocity": 0.7874015748031497,
          "duration": 0.10714274999997997
        },
        {
          "name": "C#0",
          "midi": 13,
          "time": 487.2852269999876,
          "velocity": 0.7874015748031497,
          "duration": 0.10714274999997997
        },
        {
          "name": "C#0",
          "midi": 13,
          "time": 487.71379799998755,
          "velocity": 0.7874015748031497,
          "duration": 0.10714274999997997
        },
        {
          "name": "C#0",
          "midi": 13,
          "time": 488.1423689999875,
          "velocity": 0.7874015748031497,
          "duration": 0.10714274999997997
        },
        {
          "name": "C0",
          "midi": 12,
          "time": 488.5709399999875,
          "velocity": 0.7874015748031497,
          "duration": 0.10714274999997997
        },
        {
          "name": "C#0",
          "midi": 13,
          "time": 488.9995109999875,
          "velocity": 0.7874015748031497,
          "duration": 0.10714274999997997
        },
        {
          "name": "C#0",
          "midi": 13,
          "time": 489.42808199998746,
          "velocity": 0.7874015748031497,
          "duration": 0.10714274999997997
        },
        {
          "name": "C#0",
          "midi": 13,
          "time": 489.85665299998743,
          "velocity": 0.7874015748031497,
          "duration": 0.10714274999997997
        },
        {
          "name": "C0",
          "midi": 12,
          "time": 490.2852239999874,
          "velocity": 0.7874015748031497,
          "duration": 0.10714274999997997
        },
        {
          "name": "C#0",
          "midi": 13,
          "time": 490.7137949999874,
          "velocity": 0.7874015748031497,
          "duration": 0.10714274999997997
        },
        {
          "name": "C#0",
          "midi": 13,
          "time": 491.14236599998736,
          "velocity": 0.7874015748031497,
          "duration": 0.10714274999997997
        },
        {
          "name": "C#0",
          "midi": 13,
          "time": 491.57093699998734,
          "velocity": 0.7874015748031497,
          "duration": 0.10714274999997997
        },
        {
          "name": "C0",
          "midi": 12,
          "time": 491.9995079999873,
          "velocity": 0.7874015748031497,
          "duration": 0.10714274999997997
        },
        {
          "name": "C#0",
          "midi": 13,
          "time": 492.4280789999873,
          "velocity": 0.7874015748031497,
          "duration": 0.10714274999997997
        },
        {
          "name": "C#0",
          "midi": 13,
          "time": 492.85664999998727,
          "velocity": 0.7874015748031497,
          "duration": 0.10714274999997997
        },
        {
          "name": "C#0",
          "midi": 13,
          "time": 493.28522099998725,
          "velocity": 0.7874015748031497,
          "duration": 0.10714274999997997
        },
        {
          "name": "C0",
          "midi": 12,
          "time": 493.7137919999872,
          "velocity": 0.7874015748031497,
          "duration": 0.10714274999997997
        },
        {
          "name": "C#0",
          "midi": 13,
          "time": 494.1423629999872,
          "velocity": 0.7874015748031497,
          "duration": 0.10714274999997997
        },
        {
          "name": "C#0",
          "midi": 13,
          "time": 494.5709339999872,
          "velocity": 0.7874015748031497,
          "duration": 0.10714274999997997
        },
        {
          "name": "C#0",
          "midi": 13,
          "time": 494.99950499998715,
          "velocity": 0.7874015748031497,
          "duration": 0.10714274999997997
        },
        {
          "name": "C0",
          "midi": 12,
          "time": 495.42807599998713,
          "velocity": 0.7874015748031497,
          "duration": 0.10714274999997997
        },
        {
          "name": "C#0",
          "midi": 13,
          "time": 495.8566469999871,
          "velocity": 0.7874015748031497,
          "duration": 0.10714274999997997
        },
        {
          "name": "C#0",
          "midi": 13,
          "time": 496.2852179999871,
          "velocity": 0.7874015748031497,
          "duration": 0.10714274999997997
        },
        {
          "name": "C#0",
          "midi": 13,
          "time": 496.71378899998706,
          "velocity": 0.7874015748031497,
          "duration": 0.10714274999997997
        },
        {
          "name": "C0",
          "midi": 12,
          "time": 497.14235999998704,
          "velocity": 0.7874015748031497,
          "duration": 0.10714274999997997
        },
        {
          "name": "C#0",
          "midi": 13,
          "time": 497.570930999987,
          "velocity": 0.7874015748031497,
          "duration": 0.10714274999997997
        },
        {
          "name": "C#0",
          "midi": 13,
          "time": 497.999501999987,
          "velocity": 0.7874015748031497,
          "duration": 0.10714274999997997
        },
        {
          "name": "C#0",
          "midi": 13,
          "time": 498.42807299998697,
          "velocity": 0.7874015748031497,
          "duration": 0.10714274999997997
        },
        {
          "name": "C0",
          "midi": 12,
          "time": 498.85664399998694,
          "velocity": 0.7874015748031497,
          "duration": 0.10714274999997997
        },
        {
          "name": "C#0",
          "midi": 13,
          "time": 499.2852149999869,
          "velocity": 0.7874015748031497,
          "duration": 0.10714274999997997
        },
        {
          "name": "C#0",
          "midi": 13,
          "time": 499.7137859999869,
          "velocity": 0.7874015748031497,
          "duration": 0.10714274999997997
        },
        {
          "name": "C#0",
          "midi": 13,
          "time": 500.1423569999869,
          "velocity": 0.7874015748031497,
          "duration": 0.10714274999997997
        },
        {
          "name": "C0",
          "midi": 12,
          "time": 500.57092799998685,
          "velocity": 0.7874015748031497,
          "duration": 0.10714274999997997
        },
        {
          "name": "C#0",
          "midi": 13,
          "time": 500.9994989999868,
          "velocity": 0.7874015748031497,
          "duration": 0.10714274999997997
        },
        {
          "name": "C#0",
          "midi": 13,
          "time": 501.4280699999868,
          "velocity": 0.7874015748031497,
          "duration": 0.10714274999997997
        },
        {
          "name": "C#0",
          "midi": 13,
          "time": 501.8566409999868,
          "velocity": 0.7874015748031497,
          "duration": 0.10714274999997997
        },
        {
          "name": "C0",
          "midi": 12,
          "time": 502.28521199998676,
          "velocity": 0.7874015748031497,
          "duration": 0.10714274999997997
        },
        {
          "name": "C#0",
          "midi": 13,
          "time": 502.71378299998673,
          "velocity": 0.7874015748031497,
          "duration": 0.10714274999997997
        },
        {
          "name": "C#0",
          "midi": 13,
          "time": 503.1423539999867,
          "velocity": 0.7874015748031497,
          "duration": 0.10714274999997997
        },
        {
          "name": "C#0",
          "midi": 13,
          "time": 503.5709249999867,
          "velocity": 0.7874015748031497,
          "duration": 0.10714274999997997
        },
        {
          "name": "C0",
          "midi": 12,
          "time": 503.99949599998666,
          "velocity": 0.7874015748031497,
          "duration": 0.10714274999997997
        },
        {
          "name": "C#0",
          "midi": 13,
          "time": 504.42806699998664,
          "velocity": 0.7874015748031497,
          "duration": 0.10714274999997997
        },
        {
          "name": "C#0",
          "midi": 13,
          "time": 504.8566379999866,
          "velocity": 0.7874015748031497,
          "duration": 0.10714274999997997
        },
        {
          "name": "C#0",
          "midi": 13,
          "time": 505.2852089999866,
          "velocity": 0.7874015748031497,
          "duration": 0.10714274999997997
        },
        {
          "name": "C0",
          "midi": 12,
          "time": 505.71377999998657,
          "velocity": 0.7874015748031497,
          "duration": 0.10714274999997997
        },
        {
          "name": "C#0",
          "midi": 13,
          "time": 506.14235099998655,
          "velocity": 0.7874015748031497,
          "duration": 0.10714274999997997
        },
        {
          "name": "C#0",
          "midi": 13,
          "time": 506.5709219999865,
          "velocity": 0.7874015748031497,
          "duration": 0.10714274999997997
        },
        {
          "name": "C#0",
          "midi": 13,
          "time": 506.9994929999865,
          "velocity": 0.7874015748031497,
          "duration": 0.10714274999997997
        },
        {
          "name": "C0",
          "midi": 12,
          "time": 507.4280639999865,
          "velocity": 0.7874015748031497,
          "duration": 0.10714274999997997
        },
        {
          "name": "C#0",
          "midi": 13,
          "time": 507.85663499998645,
          "velocity": 0.7874015748031497,
          "duration": 0.10714274999997997
        },
        {
          "name": "C#0",
          "midi": 13,
          "time": 508.28520599998643,
          "velocity": 0.7874015748031497,
          "duration": 0.10714274999997997
        },
        {
          "name": "C#0",
          "midi": 13,
          "time": 508.7137769999864,
          "velocity": 0.7874015748031497,
          "duration": 0.10714274999997997
        },
        {
          "name": "C0",
          "midi": 12,
          "time": 509.1423479999864,
          "velocity": 0.7874015748031497,
          "duration": 0.10714274999997997
        },
        {
          "name": "C#0",
          "midi": 13,
          "time": 509.57091899998636,
          "velocity": 0.7874015748031497,
          "duration": 0.10714274999997997
        },
        {
          "name": "C#0",
          "midi": 13,
          "time": 509.99948999998634,
          "velocity": 0.7874015748031497,
          "duration": 0.10714274999997997
        },
        {
          "name": "C#0",
          "midi": 13,
          "time": 510.4280609999863,
          "velocity": 0.7874015748031497,
          "duration": 0.10714274999997997
        },
        {
          "name": "C0",
          "midi": 12,
          "time": 510.8566319999863,
          "velocity": 0.7874015748031497,
          "duration": 0.10714274999997997
        },
        {
          "name": "C#0",
          "midi": 13,
          "time": 511.28520299998627,
          "velocity": 0.7874015748031497,
          "duration": 0.10714274999997997
        },
        {
          "name": "C#0",
          "midi": 13,
          "time": 511.71377399998624,
          "velocity": 0.7874015748031497,
          "duration": 0.10714274999997997
        },
        {
          "name": "C#0",
          "midi": 13,
          "time": 512.1423449999862,
          "velocity": 0.7874015748031497,
          "duration": 0.10714274999997997
        },
        {
          "name": "C0",
          "midi": 12,
          "time": 512.5709159999863,
          "velocity": 0.7874015748031497,
          "duration": 0.10714274999997997
        },
        {
          "name": "C#0",
          "midi": 13,
          "time": 512.9994869999863,
          "velocity": 0.7874015748031497,
          "duration": 0.10714274999997997
        },
        {
          "name": "C#0",
          "midi": 13,
          "time": 513.4280579999863,
          "velocity": 0.7874015748031497,
          "duration": 0.10714274999997997
        },
        {
          "name": "C#0",
          "midi": 13,
          "time": 513.8566289999864,
          "velocity": 0.7874015748031497,
          "duration": 0.10714274999997997
        },
        {
          "name": "C0",
          "midi": 12,
          "time": 514.2851999999864,
          "velocity": 0.7874015748031497,
          "duration": 0.10714274999997997
        },
        {
          "name": "C#0",
          "midi": 13,
          "time": 514.7137709999864,
          "velocity": 0.7874015748031497,
          "duration": 0.10714274999997997
        },
        {
          "name": "C#0",
          "midi": 13,
          "time": 515.1423419999865,
          "velocity": 0.7874015748031497,
          "duration": 0.10714274999997997
        },
        {
          "name": "C#0",
          "midi": 13,
          "time": 515.5709129999865,
          "velocity": 0.7874015748031497,
          "duration": 0.10714274999997997
        },
        {
          "name": "C0",
          "midi": 12,
          "time": 515.9994839999865,
          "velocity": 0.7874015748031497,
          "duration": 0.10714274999997997
        },
        {
          "name": "C#0",
          "midi": 13,
          "time": 516.4280549999866,
          "velocity": 0.7874015748031497,
          "duration": 0.10714274999997997
        },
        {
          "name": "C#0",
          "midi": 13,
          "time": 516.8566259999866,
          "velocity": 0.7874015748031497,
          "duration": 0.10714274999997997
        },
        {
          "name": "C#0",
          "midi": 13,
          "time": 517.2851969999866,
          "velocity": 0.7874015748031497,
          "duration": 0.10714274999997997
        },
        {
          "name": "C0",
          "midi": 12,
          "time": 517.7137679999867,
          "velocity": 0.7874015748031497,
          "duration": 0.10714274999997997
        },
        {
          "name": "C#0",
          "midi": 13,
          "time": 518.1423389999867,
          "velocity": 0.7874015748031497,
          "duration": 0.10714274999997997
        },
        {
          "name": "C#0",
          "midi": 13,
          "time": 518.5709099999867,
          "velocity": 0.7874015748031497,
          "duration": 0.10714274999997997
        },
        {
          "name": "C#0",
          "midi": 13,
          "time": 518.9994809999868,
          "velocity": 0.7874015748031497,
          "duration": 0.10714274999997997
        },
        {
          "name": "C0",
          "midi": 12,
          "time": 519.4280519999868,
          "velocity": 0.7874015748031497,
          "duration": 0.10714274999997997
        },
        {
          "name": "C#0",
          "midi": 13,
          "time": 519.8566229999868,
          "velocity": 0.7874015748031497,
          "duration": 0.10714274999997997
        },
        {
          "name": "C#0",
          "midi": 13,
          "time": 520.2851939999869,
          "velocity": 0.7874015748031497,
          "duration": 0.10714274999997997
        }
      ],
      "controlChanges": {},
      "id": 13,
      "name": "BEAT",
      "channelNumber": 6,
      "isPercussion": false
    }
  ]
}