{
  "header": {
    "PPQ": 192,
    "timeSignature": [
      4,
      4
    ],
    "bpm": 120,
    "name": "Satanismo Putaria Muita Droga e Violencia"
  },
  "startTime": 0,
  "duration": 89.7526041666667,
  "tracks": [
    {
      "startTime": 0,
      "duration": 0,
      "length": 0,
      "notes": [],
      "controlChanges": {},
      "id": 0,
      "name": "Satanismo Putaria Muita Droga e Violencia"
    },
    {
      "startTime": 0,
      "duration": 0,
      "length": 0,
      "notes": [],
      "controlChanges": {},
      "id": 1,
      "name": "EVENTS"
    },
    {
      "startTime": 1,
      "duration": 89.7526041666667,
      "length": 441,
      "notes": [
        {
          "name": "C7",
          "midi": 96,
          "time": 1,
          "velocity": 0.7874015748031497,
          "duration": 0.16666666666666674
        },
        {
          "name": "D7",
          "midi": 98,
          "time": 1.5,
          "velocity": 0.7874015748031497,
          "duration": 0.0026041666666667407
        },
        {
          "name": "C#7",
          "midi": 97,
          "time": 1.6666666666666667,
          "velocity": 0.7874015748031497,
          "duration": 0.0026041666666667407
        },
        {
          "name": "C#7",
          "midi": 97,
          "time": 1.8333333333333335,
          "velocity": 0.7874015748031497,
          "duration": 0.0026041666666667407
        },
        {
          "name": "C7",
          "midi": 96,
          "time": 2,
          "velocity": 0.7874015748031497,
          "duration": 0.0026041666666665186
        },
        {
          "name": "C#7",
          "midi": 97,
          "time": 2.1666666666666665,
          "velocity": 0.7874015748031497,
          "duration": 0.0026041666666665186
        },
        {
          "name": "D7",
          "midi": 98,
          "time": 2.333333333333333,
          "velocity": 0.7874015748031497,
          "duration": 0.0026041666666665186
        },
        {
          "name": "C#7",
          "midi": 97,
          "time": 2.4999999999999996,
          "velocity": 0.7874015748031497,
          "duration": 0.0026041666666665186
        },
        {
          "name": "D7",
          "midi": 98,
          "time": 2.666666666666666,
          "velocity": 0.7874015748031497,
          "duration": 0.0026041666666665186
        },
        {
          "name": "C7",
          "midi": 96,
          "time": 2.8333333333333326,
          "velocity": 0.7874015748031497,
          "duration": 0.0026041666666665186
        },
        {
          "name": "C7",
          "midi": 96,
          "time": 3.1666666666666656,
          "velocity": 0.7874015748031497,
          "duration": 2.8333333333333335
        },
        {
          "name": "D7",
          "midi": 98,
          "time": 3.1666666666666656,
          "velocity": 0.7874015748031497,
          "duration": 2.8333333333333335
        },
        {
          "name": "C7",
          "midi": 96,
          "time": 5.999999999999999,
          "velocity": 0.7874015748031497,
          "duration": 0.0026041666666669627
        },
        {
          "name": "D7",
          "midi": 98,
          "time": 5.999999999999999,
          "velocity": 0.7874015748031497,
          "duration": 0.0026041666666669627
        },
        {
          "name": "C7",
          "midi": 96,
          "time": 6.166666666666666,
          "velocity": 0.7874015748031497,
          "duration": 0.0026041666666669627
        },
        {
          "name": "D7",
          "midi": 98,
          "time": 6.166666666666666,
          "velocity": 0.7874015748031497,
          "duration": 0.0026041666666669627
        },
        {
          "name": "C#7",
          "midi": 97,
          "time": 6.5,
          "velocity": 0.7874015748031497,
          "duration": 0.0026041666666669627
        },
        {
          "name": "C#7",
          "midi": 97,
          "time": 6.833333333333334,
          "velocity": 0.7874015748031497,
          "duration": 0.0026041666666669627
        },
        {
          "name": "C#7",
          "midi": 97,
          "time": 7.333333333333334,
          "velocity": 0.7874015748031497,
          "duration": 0.0026041666666669627
        },
        {
          "name": "D7",
          "midi": 98,
          "time": 7.500000000000001,
          "velocity": 0.7874015748031497,
          "duration": 0.0026041666666669627
        },
        {
          "name": "C#7",
          "midi": 97,
          "time": 7.750000000000001,
          "velocity": 0.7874015748031497,
          "duration": 0.0026041666666669627
        },
        {
          "name": "D7",
          "midi": 98,
          "time": 8.000000000000002,
          "velocity": 0.7874015748031497,
          "duration": 0.0026041666666660745
        },
        {
          "name": "C#7",
          "midi": 97,
          "time": 8.125000000000002,
          "velocity": 0.7874015748031497,
          "duration": 0.0026041666666660745
        },
        {
          "name": "C7",
          "midi": 96,
          "time": 8.500000000000002,
          "velocity": 0.7874015748031497,
          "duration": 0.0026041666666660745
        },
        {
          "name": "C#7",
          "midi": 97,
          "time": 8.583333333333334,
          "velocity": 0.7874015748031497,
          "duration": 0.0026041666666660745
        },
        {
          "name": "D7",
          "midi": 98,
          "time": 8.75,
          "velocity": 0.7874015748031497,
          "duration": 0.0026041666666660745
        },
        {
          "name": "C#7",
          "midi": 97,
          "time": 9,
          "velocity": 0.7874015748031497,
          "duration": 0.0026041666666660745
        },
        {
          "name": "D7",
          "midi": 98,
          "time": 9.25,
          "velocity": 0.7874015748031497,
          "duration": 0.0026041666666660745
        },
        {
          "name": "C7",
          "midi": 96,
          "time": 9.5,
          "velocity": 0.7874015748031497,
          "duration": 0.0026041666666660745
        },
        {
          "name": "C7",
          "midi": 96,
          "time": 9.75,
          "velocity": 0.7874015748031497,
          "duration": 0.0026041666666660745
        },
        {
          "name": "C#7",
          "midi": 97,
          "time": 10,
          "velocity": 0.7874015748031497,
          "duration": 0.0026041666666660745
        },
        {
          "name": "C7",
          "midi": 96,
          "time": 10.25,
          "velocity": 0.7874015748031497,
          "duration": 0.0026041666666660745
        },
        {
          "name": "C#7",
          "midi": 97,
          "time": 10.5,
          "velocity": 0.7874015748031497,
          "duration": 0.0026041666666660745
        },
        {
          "name": "C7",
          "midi": 96,
          "time": 10.75,
          "velocity": 0.7874015748031497,
          "duration": 0.0026041666666660745
        },
        {
          "name": "C#7",
          "midi": 97,
          "time": 11,
          "velocity": 0.7874015748031497,
          "duration": 0.0026041666666660745
        },
        {
          "name": "C7",
          "midi": 96,
          "time": 11.25,
          "velocity": 0.7874015748031497,
          "duration": 0.0026041666666660745
        },
        {
          "name": "C#7",
          "midi": 97,
          "time": 11.3125,
          "velocity": 0.7874015748031497,
          "duration": 0.0026041666666660745
        },
        {
          "name": "D7",
          "midi": 98,
          "time": 11.375,
          "velocity": 0.7874015748031497,
          "duration": 0.0026041666666660745
        },
        {
          "name": "D7",
          "midi": 98,
          "time": 11.5625,
          "velocity": 0.7874015748031497,
          "duration": 0.0026041666666660745
        },
        {
          "name": "C#7",
          "midi": 97,
          "time": 11.916666666666666,
          "velocity": 0.7874015748031497,
          "duration": 0.0026041666666660745
        },
        {
          "name": "D7",
          "midi": 98,
          "time": 12.166666666666666,
          "velocity": 0.7874015748031497,
          "duration": 0.0026041666666660745
        },
        {
          "name": "C7",
          "midi": 96,
          "time": 12.333333333333332,
          "velocity": 0.7874015748031497,
          "duration": 0.0026041666666660745
        },
        {
          "name": "C7",
          "midi": 96,
          "time": 12.583333333333332,
          "velocity": 0.7874015748031497,
          "duration": 0.0026041666666660745
        },
        {
          "name": "C#7",
          "midi": 97,
          "time": 12.833333333333332,
          "velocity": 0.7874015748031497,
          "duration": 0.0026041666666660745
        },
        {
          "name": "C7",
          "midi": 96,
          "time": 13.083333333333332,
          "velocity": 0.7874015748031497,
          "duration": 0.0026041666666660745
        },
        {
          "name": "C#7",
          "midi": 97,
          "time": 13.333333333333332,
          "velocity": 0.7874015748031497,
          "duration": 0.0026041666666660745
        },
        {
          "name": "C7",
          "midi": 96,
          "time": 13.583333333333332,
          "velocity": 0.7874015748031497,
          "duration": 0.0026041666666660745
        },
        {
          "name": "C#7",
          "midi": 97,
          "time": 13.833333333333332,
          "velocity": 0.7874015748031497,
          "duration": 0.0026041666666660745
        },
        {
          "name": "C7",
          "midi": 96,
          "time": 14.083333333333332,
          "velocity": 0.7874015748031497,
          "duration": 0.0026041666666660745
        },
        {
          "name": "C#7",
          "midi": 97,
          "time": 14.145833333333332,
          "velocity": 0.7874015748031497,
          "duration": 0.0026041666666660745
        },
        {
          "name": "D7",
          "midi": 98,
          "time": 14.208333333333332,
          "velocity": 0.7874015748031497,
          "duration": 0.0026041666666660745
        },
        {
          "name": "D7",
          "midi": 98,
          "time": 14.395833333333332,
          "velocity": 0.7874015748031497,
          "duration": 0.0026041666666660745
        },
        {
          "name": "C#7",
          "midi": 97,
          "time": 14.624999999999998,
          "velocity": 0.7874015748031497,
          "duration": 0.0026041666666660745
        },
        {
          "name": "C#7",
          "midi": 97,
          "time": 14.999999999999998,
          "velocity": 0.7874015748031497,
          "duration": 0.0026041666666660745
        },
        {
          "name": "D7",
          "midi": 98,
          "time": 15.249999999999998,
          "velocity": 0.7874015748031497,
          "duration": 0.0026041666666660745
        },
        {
          "name": "C7",
          "midi": 96,
          "time": 15.499999999999998,
          "velocity": 0.7874015748031497,
          "duration": 0.0026041666666660745
        },
        {
          "name": "C7",
          "midi": 96,
          "time": 15.749999999999998,
          "velocity": 0.7874015748031497,
          "duration": 0.0026041666666660745
        },
        {
          "name": "C#7",
          "midi": 97,
          "time": 15.999999999999998,
          "velocity": 0.7874015748031497,
          "duration": 0.0026041666666660745
        },
        {
          "name": "C7",
          "midi": 96,
          "time": 16.249999999999996,
          "velocity": 0.7874015748031497,
          "duration": 0.002604166666667851
        },
        {
          "name": "C#7",
          "midi": 97,
          "time": 16.499999999999996,
          "velocity": 0.7874015748031497,
          "duration": 0.002604166666667851
        },
        {
          "name": "C7",
          "midi": 96,
          "time": 16.749999999999996,
          "velocity": 0.7874015748031497,
          "duration": 0.002604166666667851
        },
        {
          "name": "C#7",
          "midi": 97,
          "time": 16.999999999999996,
          "velocity": 0.7874015748031497,
          "duration": 0.002604166666667851
        },
        {
          "name": "C7",
          "midi": 96,
          "time": 17.249999999999996,
          "velocity": 0.7874015748031497,
          "duration": 0.002604166666667851
        },
        {
          "name": "C#7",
          "midi": 97,
          "time": 17.312499999999996,
          "velocity": 0.7874015748031497,
          "duration": 0.002604166666667851
        },
        {
          "name": "D7",
          "midi": 98,
          "time": 17.374999999999996,
          "velocity": 0.7874015748031497,
          "duration": 0.002604166666667851
        },
        {
          "name": "D7",
          "midi": 98,
          "time": 17.562499999999996,
          "velocity": 0.7874015748031497,
          "duration": 0.002604166666667851
        },
        {
          "name": "C#7",
          "midi": 97,
          "time": 17.749999999999996,
          "velocity": 0.7874015748031497,
          "duration": 0.002604166666667851
        },
        {
          "name": "D7",
          "midi": 98,
          "time": 18.124999999999996,
          "velocity": 0.7874015748031497,
          "duration": 0.002604166666667851
        },
        {
          "name": "C#7",
          "midi": 97,
          "time": 18.374999999999996,
          "velocity": 0.7874015748031497,
          "duration": 0.002604166666667851
        },
        {
          "name": "C7",
          "midi": 96,
          "time": 18.749999999999996,
          "velocity": 0.7874015748031497,
          "duration": 0.002604166666667851
        },
        {
          "name": "C#7",
          "midi": 97,
          "time": 18.812499999999996,
          "velocity": 0.7874015748031497,
          "duration": 0.002604166666667851
        },
        {
          "name": "D7",
          "midi": 98,
          "time": 18.937499999999996,
          "velocity": 0.7874015748031497,
          "duration": 0.002604166666667851
        },
        {
          "name": "C#7",
          "midi": 97,
          "time": 19.062499999999996,
          "velocity": 0.7874015748031497,
          "duration": 0.002604166666667851
        },
        {
          "name": "C7",
          "midi": 96,
          "time": 19.187499999999996,
          "velocity": 0.7874015748031497,
          "duration": 0.002604166666667851
        },
        {
          "name": "C#7",
          "midi": 97,
          "time": 19.374999999999996,
          "velocity": 0.7874015748031497,
          "duration": 0.002604166666667851
        },
        {
          "name": "C7",
          "midi": 96,
          "time": 19.583333333333332,
          "velocity": 0.7874015748031497,
          "duration": 0.002604166666667851
        },
        {
          "name": "C#7",
          "midi": 97,
          "time": 19.65625,
          "velocity": 0.7874015748031497,
          "duration": 0.002604166666667851
        },
        {
          "name": "D7",
          "midi": 98,
          "time": 19.71875,
          "velocity": 0.7874015748031497,
          "duration": 0.002604166666667851
        },
        {
          "name": "D7",
          "midi": 98,
          "time": 20,
          "velocity": 0.7874015748031497,
          "duration": 0.002604166666667851
        },
        {
          "name": "C#7",
          "midi": 97,
          "time": 20.125,
          "velocity": 0.7874015748031497,
          "duration": 0.002604166666667851
        },
        {
          "name": "C7",
          "midi": 96,
          "time": 20.416666666666668,
          "velocity": 0.7874015748031497,
          "duration": 0.002604166666667851
        },
        {
          "name": "D7",
          "midi": 98,
          "time": 20.416666666666668,
          "velocity": 0.7874015748031497,
          "duration": 0.002604166666667851
        },
        {
          "name": "C7",
          "midi": 96,
          "time": 20.500000000000004,
          "velocity": 0.7874015748031497,
          "duration": 0.002604166666667851
        },
        {
          "name": "D7",
          "midi": 98,
          "time": 20.500000000000004,
          "velocity": 0.7874015748031497,
          "duration": 0.002604166666667851
        },
        {
          "name": "C#7",
          "midi": 97,
          "time": 21.250000000000004,
          "velocity": 0.7874015748031497,
          "duration": 0.002604166666667851
        },
        {
          "name": "C7",
          "midi": 96,
          "time": 21.625000000000004,
          "velocity": 0.7874015748031497,
          "duration": 0.002604166666667851
        },
        {
          "name": "C#7",
          "midi": 97,
          "time": 21.687500000000004,
          "velocity": 0.7874015748031497,
          "duration": 0.002604166666667851
        },
        {
          "name": "D7",
          "midi": 98,
          "time": 21.812500000000004,
          "velocity": 0.7874015748031497,
          "duration": 0.002604166666667851
        },
        {
          "name": "C#7",
          "midi": 97,
          "time": 21.937500000000004,
          "velocity": 0.7874015748031497,
          "duration": 0.002604166666667851
        },
        {
          "name": "C7",
          "midi": 96,
          "time": 22.062500000000004,
          "velocity": 0.7874015748031497,
          "duration": 0.002604166666667851
        },
        {
          "name": "C#7",
          "midi": 97,
          "time": 22.250000000000004,
          "velocity": 0.7874015748031497,
          "duration": 0.002604166666667851
        },
        {
          "name": "C7",
          "midi": 96,
          "time": 22.45833333333334,
          "velocity": 0.7874015748031497,
          "duration": 0.002604166666667851
        },
        {
          "name": "C#7",
          "midi": 97,
          "time": 22.531250000000007,
          "velocity": 0.7874015748031497,
          "duration": 0.002604166666667851
        },
        {
          "name": "D7",
          "midi": 98,
          "time": 22.593750000000007,
          "velocity": 0.7874015748031497,
          "duration": 0.002604166666667851
        },
        {
          "name": "D7",
          "midi": 98,
          "time": 22.875000000000007,
          "velocity": 0.7874015748031497,
          "duration": 0.002604166666667851
        },
        {
          "name": "C#7",
          "midi": 97,
          "time": 23.000000000000007,
          "velocity": 0.7874015748031497,
          "duration": 0.002604166666667851
        },
        {
          "name": "C7",
          "midi": 96,
          "time": 23.291666666666675,
          "velocity": 0.7874015748031497,
          "duration": 0.002604166666667851
        },
        {
          "name": "D7",
          "midi": 98,
          "time": 23.291666666666675,
          "velocity": 0.7874015748031497,
          "duration": 0.002604166666667851
        },
        {
          "name": "C7",
          "midi": 96,
          "time": 23.37500000000001,
          "velocity": 0.7874015748031497,
          "duration": 0.002604166666667851
        },
        {
          "name": "D7",
          "midi": 98,
          "time": 23.37500000000001,
          "velocity": 0.7874015748031497,
          "duration": 0.002604166666667851
        },
        {
          "name": "C#7",
          "midi": 97,
          "time": 24.12500000000001,
          "velocity": 0.7874015748031497,
          "duration": 0.002604166666667851
        },
        {
          "name": "C7",
          "midi": 96,
          "time": 24.50000000000001,
          "velocity": 0.7874015748031497,
          "duration": 0.002604166666667851
        },
        {
          "name": "C#7",
          "midi": 97,
          "time": 24.56250000000001,
          "velocity": 0.7874015748031497,
          "duration": 0.002604166666667851
        },
        {
          "name": "D7",
          "midi": 98,
          "time": 24.68750000000001,
          "velocity": 0.7874015748031497,
          "duration": 0.002604166666667851
        },
        {
          "name": "C#7",
          "midi": 97,
          "time": 24.81250000000001,
          "velocity": 0.7874015748031497,
          "duration": 0.002604166666667851
        },
        {
          "name": "C7",
          "midi": 96,
          "time": 24.93750000000001,
          "velocity": 0.7874015748031497,
          "duration": 0.002604166666667851
        },
        {
          "name": "C#7",
          "midi": 97,
          "time": 25.12500000000001,
          "velocity": 0.7874015748031497,
          "duration": 0.002604166666667851
        },
        {
          "name": "C7",
          "midi": 96,
          "time": 25.333333333333346,
          "velocity": 0.7874015748031497,
          "duration": 0.002604166666667851
        },
        {
          "name": "C#7",
          "midi": 97,
          "time": 25.406250000000014,
          "velocity": 0.7874015748031497,
          "duration": 0.002604166666667851
        },
        {
          "name": "D7",
          "midi": 98,
          "time": 25.468750000000014,
          "velocity": 0.7874015748031497,
          "duration": 0.002604166666667851
        },
        {
          "name": "D7",
          "midi": 98,
          "time": 25.750000000000014,
          "velocity": 0.7874015748031497,
          "duration": 0.002604166666667851
        },
        {
          "name": "C#7",
          "midi": 97,
          "time": 25.875000000000014,
          "velocity": 0.7874015748031497,
          "duration": 0.002604166666667851
        },
        {
          "name": "C7",
          "midi": 96,
          "time": 26.166666666666682,
          "velocity": 0.7874015748031497,
          "duration": 0.002604166666667851
        },
        {
          "name": "D7",
          "midi": 98,
          "time": 26.166666666666682,
          "velocity": 0.7874015748031497,
          "duration": 0.002604166666667851
        },
        {
          "name": "C7",
          "midi": 96,
          "time": 26.250000000000018,
          "velocity": 0.7874015748031497,
          "duration": 0.002604166666667851
        },
        {
          "name": "D7",
          "midi": 98,
          "time": 26.250000000000018,
          "velocity": 0.7874015748031497,
          "duration": 0.002604166666667851
        },
        {
          "name": "C#7",
          "midi": 97,
          "time": 27.000000000000018,
          "velocity": 0.7874015748031497,
          "duration": 0.002604166666667851
        },
        {
          "name": "C7",
          "midi": 96,
          "time": 27.375000000000018,
          "velocity": 0.7874015748031497,
          "duration": 0.002604166666667851
        },
        {
          "name": "C#7",
          "midi": 97,
          "time": 27.437500000000018,
          "velocity": 0.7874015748031497,
          "duration": 0.002604166666667851
        },
        {
          "name": "D7",
          "midi": 98,
          "time": 27.562500000000018,
          "velocity": 0.7874015748031497,
          "duration": 0.002604166666667851
        },
        {
          "name": "C#7",
          "midi": 97,
          "time": 27.687500000000018,
          "velocity": 0.7874015748031497,
          "duration": 0.002604166666667851
        },
        {
          "name": "C7",
          "midi": 96,
          "time": 27.812500000000018,
          "velocity": 0.7874015748031497,
          "duration": 0.002604166666667851
        },
        {
          "name": "C#7",
          "midi": 97,
          "time": 28.000000000000018,
          "velocity": 0.7874015748031497,
          "duration": 0.002604166666667851
        },
        {
          "name": "C7",
          "midi": 96,
          "time": 28.208333333333353,
          "velocity": 0.7874015748031497,
          "duration": 0.002604166666667851
        },
        {
          "name": "C#7",
          "midi": 97,
          "time": 28.28125000000002,
          "velocity": 0.7874015748031497,
          "duration": 0.002604166666667851
        },
        {
          "name": "D7",
          "midi": 98,
          "time": 28.34375000000002,
          "velocity": 0.7874015748031497,
          "duration": 0.002604166666667851
        },
        {
          "name": "D7",
          "midi": 98,
          "time": 28.62500000000002,
          "velocity": 0.7874015748031497,
          "duration": 0.002604166666667851
        },
        {
          "name": "C#7",
          "midi": 97,
          "time": 28.75000000000002,
          "velocity": 0.7874015748031497,
          "duration": 0.002604166666667851
        },
        {
          "name": "C7",
          "midi": 96,
          "time": 29.04166666666669,
          "velocity": 0.7874015748031497,
          "duration": 0.002604166666667851
        },
        {
          "name": "D7",
          "midi": 98,
          "time": 29.04166666666669,
          "velocity": 0.7874015748031497,
          "duration": 0.002604166666667851
        },
        {
          "name": "C7",
          "midi": 96,
          "time": 29.125000000000025,
          "velocity": 0.7874015748031497,
          "duration": 0.002604166666667851
        },
        {
          "name": "D7",
          "midi": 98,
          "time": 29.125000000000025,
          "velocity": 0.7874015748031497,
          "duration": 0.002604166666667851
        },
        {
          "name": "D7",
          "midi": 98,
          "time": 29.375000000000025,
          "velocity": 0.7874015748031497,
          "duration": 0.002604166666667851
        },
        {
          "name": "C7",
          "midi": 96,
          "time": 29.500000000000025,
          "velocity": 0.7874015748031497,
          "duration": 0.002604166666667851
        },
        {
          "name": "D7",
          "midi": 98,
          "time": 30.000000000000025,
          "velocity": 0.7874015748031497,
          "duration": 0.002604166666667851
        },
        {
          "name": "C7",
          "midi": 96,
          "time": 30.250000000000025,
          "velocity": 0.7874015748031497,
          "duration": 0.002604166666667851
        },
        {
          "name": "D7",
          "midi": 98,
          "time": 30.500000000000025,
          "velocity": 0.7874015748031497,
          "duration": 0.002604166666667851
        },
        {
          "name": "C7",
          "midi": 96,
          "time": 30.625000000000025,
          "velocity": 0.7874015748031497,
          "duration": 0.002604166666667851
        },
        {
          "name": "D7",
          "midi": 98,
          "time": 30.750000000000025,
          "velocity": 0.7874015748031497,
          "duration": 0.002604166666667851
        },
        {
          "name": "C7",
          "midi": 96,
          "time": 30.875000000000025,
          "velocity": 0.7874015748031497,
          "duration": 0.002604166666667851
        },
        {
          "name": "C#7",
          "midi": 97,
          "time": 31.000000000000025,
          "velocity": 0.7874015748031497,
          "duration": 0.002604166666667851
        },
        {
          "name": "D7",
          "midi": 98,
          "time": 31.125000000000025,
          "velocity": 0.7874015748031497,
          "duration": 0.002604166666667851
        },
        {
          "name": "C7",
          "midi": 96,
          "time": 31.250000000000025,
          "velocity": 0.7874015748031497,
          "duration": 0.002604166666667851
        },
        {
          "name": "D7",
          "midi": 98,
          "time": 31.375000000000025,
          "velocity": 0.7874015748031497,
          "duration": 0.002604166666667851
        },
        {
          "name": "C7",
          "midi": 96,
          "time": 31.500000000000025,
          "velocity": 0.7874015748031497,
          "duration": 0.002604166666667851
        },
        {
          "name": "C#7",
          "midi": 97,
          "time": 31.625000000000025,
          "velocity": 0.7874015748031497,
          "duration": 0.002604166666667851
        },
        {
          "name": "C7",
          "midi": 96,
          "time": 31.750000000000025,
          "velocity": 0.7874015748031497,
          "duration": 0.002604166666667851
        },
        {
          "name": "C#7",
          "midi": 97,
          "time": 31.875000000000025,
          "velocity": 0.7874015748031497,
          "duration": 0.002604166666667851
        },
        {
          "name": "D7",
          "midi": 98,
          "time": 32.00000000000003,
          "velocity": 0.7874015748031497,
          "duration": 0.002604166666664298
        },
        {
          "name": "C7",
          "midi": 96,
          "time": 32.12500000000003,
          "velocity": 0.7874015748031497,
          "duration": 0.002604166666664298
        },
        {
          "name": "C#7",
          "midi": 97,
          "time": 32.25000000000003,
          "velocity": 0.7874015748031497,
          "duration": 0.002604166666664298
        },
        {
          "name": "D7",
          "midi": 98,
          "time": 32.37500000000003,
          "velocity": 0.7874015748031497,
          "duration": 0.002604166666664298
        },
        {
          "name": "C#7",
          "midi": 97,
          "time": 32.50000000000003,
          "velocity": 0.7874015748031497,
          "duration": 0.002604166666664298
        },
        {
          "name": "C7",
          "midi": 96,
          "time": 32.62500000000003,
          "velocity": 0.7874015748031497,
          "duration": 0.002604166666664298
        },
        {
          "name": "D7",
          "midi": 98,
          "time": 32.75000000000003,
          "velocity": 0.7874015748031497,
          "duration": 0.002604166666664298
        },
        {
          "name": "C7",
          "midi": 96,
          "time": 33.00000000000003,
          "velocity": 0.7874015748031497,
          "duration": 0.002604166666664298
        },
        {
          "name": "C#7",
          "midi": 97,
          "time": 33.25000000000003,
          "velocity": 0.7874015748031497,
          "duration": 0.002604166666664298
        },
        {
          "name": "C7",
          "midi": 96,
          "time": 33.50000000000003,
          "velocity": 0.7874015748031497,
          "duration": 0.002604166666664298
        },
        {
          "name": "C#7",
          "midi": 97,
          "time": 33.75000000000003,
          "velocity": 0.7874015748031497,
          "duration": 0.002604166666664298
        },
        {
          "name": "C7",
          "midi": 96,
          "time": 34.00000000000003,
          "velocity": 0.7874015748031497,
          "duration": 0.002604166666664298
        },
        {
          "name": "C#7",
          "midi": 97,
          "time": 34.25000000000003,
          "velocity": 0.7874015748031497,
          "duration": 0.002604166666664298
        },
        {
          "name": "C7",
          "midi": 96,
          "time": 34.50000000000003,
          "velocity": 0.7874015748031497,
          "duration": 0.002604166666664298
        },
        {
          "name": "C#7",
          "midi": 97,
          "time": 34.75000000000003,
          "velocity": 0.7874015748031497,
          "duration": 0.002604166666664298
        },
        {
          "name": "C7",
          "midi": 96,
          "time": 35.00000000000003,
          "velocity": 0.7874015748031497,
          "duration": 0.002604166666664298
        },
        {
          "name": "C#7",
          "midi": 97,
          "time": 35.25000000000003,
          "velocity": 0.7874015748031497,
          "duration": 0.002604166666664298
        },
        {
          "name": "C7",
          "midi": 96,
          "time": 35.37500000000003,
          "velocity": 0.7874015748031497,
          "duration": 0.002604166666664298
        },
        {
          "name": "C#7",
          "midi": 97,
          "time": 35.50000000000003,
          "velocity": 0.7874015748031497,
          "duration": 0.002604166666664298
        },
        {
          "name": "C7",
          "midi": 96,
          "time": 35.62500000000003,
          "velocity": 0.7874015748031497,
          "duration": 0.002604166666664298
        },
        {
          "name": "C#7",
          "midi": 97,
          "time": 35.75000000000003,
          "velocity": 0.7874015748031497,
          "duration": 0.002604166666664298
        },
        {
          "name": "C7",
          "midi": 96,
          "time": 35.87500000000003,
          "velocity": 0.7874015748031497,
          "duration": 0.002604166666664298
        },
        {
          "name": "C#7",
          "midi": 97,
          "time": 36.12500000000003,
          "velocity": 0.7874015748031497,
          "duration": 0.002604166666664298
        },
        {
          "name": "D7",
          "midi": 98,
          "time": 36.37500000000003,
          "velocity": 0.7874015748031497,
          "duration": 0.002604166666664298
        },
        {
          "name": "C#7",
          "midi": 97,
          "time": 36.62500000000003,
          "velocity": 0.7874015748031497,
          "duration": 0.002604166666664298
        },
        {
          "name": "D7",
          "midi": 98,
          "time": 36.87500000000003,
          "velocity": 0.7874015748031497,
          "duration": 0.002604166666664298
        },
        {
          "name": "C#7",
          "midi": 97,
          "time": 37.12500000000003,
          "velocity": 0.7874015748031497,
          "duration": 0.002604166666664298
        },
        {
          "name": "D7",
          "midi": 98,
          "time": 37.37500000000003,
          "velocity": 0.7874015748031497,
          "duration": 0.002604166666664298
        },
        {
          "name": "C#7",
          "midi": 97,
          "time": 37.62500000000003,
          "velocity": 0.7874015748031497,
          "duration": 0.002604166666664298
        },
        {
          "name": "D7",
          "midi": 98,
          "time": 37.87500000000003,
          "velocity": 0.7874015748031497,
          "duration": 0.002604166666664298
        },
        {
          "name": "C#7",
          "midi": 97,
          "time": 38.12500000000003,
          "velocity": 0.7874015748031497,
          "duration": 0.002604166666664298
        },
        {
          "name": "D7",
          "midi": 98,
          "time": 38.37500000000003,
          "velocity": 0.7874015748031497,
          "duration": 0.002604166666664298
        },
        {
          "name": "C#7",
          "midi": 97,
          "time": 38.50000000000003,
          "velocity": 0.7874015748031497,
          "duration": 0.002604166666664298
        },
        {
          "name": "D7",
          "midi": 98,
          "time": 38.62500000000003,
          "velocity": 0.7874015748031497,
          "duration": 0.002604166666664298
        },
        {
          "name": "C#7",
          "midi": 97,
          "time": 38.75000000000003,
          "velocity": 0.7874015748031497,
          "duration": 0.002604166666664298
        },
        {
          "name": "D7",
          "midi": 98,
          "time": 38.87500000000003,
          "velocity": 0.7874015748031497,
          "duration": 0.002604166666664298
        },
        {
          "name": "C7",
          "midi": 96,
          "time": 39.00000000000003,
          "velocity": 0.7874015748031497,
          "duration": 0.002604166666664298
        },
        {
          "name": "C#7",
          "midi": 97,
          "time": 39.25000000000003,
          "velocity": 0.7874015748031497,
          "duration": 0.002604166666664298
        },
        {
          "name": "C7",
          "midi": 96,
          "time": 39.50000000000003,
          "velocity": 0.7874015748031497,
          "duration": 0.002604166666664298
        },
        {
          "name": "C#7",
          "midi": 97,
          "time": 39.75000000000003,
          "velocity": 0.7874015748031497,
          "duration": 0.002604166666664298
        },
        {
          "name": "C7",
          "midi": 96,
          "time": 40.00000000000003,
          "velocity": 0.7874015748031497,
          "duration": 0.002604166666664298
        },
        {
          "name": "C#7",
          "midi": 97,
          "time": 40.25000000000003,
          "velocity": 0.7874015748031497,
          "duration": 0.002604166666664298
        },
        {
          "name": "C7",
          "midi": 96,
          "time": 40.50000000000003,
          "velocity": 0.7874015748031497,
          "duration": 0.002604166666664298
        },
        {
          "name": "C#7",
          "midi": 97,
          "time": 40.75000000000003,
          "velocity": 0.7874015748031497,
          "duration": 0.002604166666664298
        },
        {
          "name": "C7",
          "midi": 96,
          "time": 41.00000000000003,
          "velocity": 0.7874015748031497,
          "duration": 0.002604166666664298
        },
        {
          "name": "C#7",
          "midi": 97,
          "time": 41.25000000000003,
          "velocity": 0.7874015748031497,
          "duration": 0.002604166666664298
        },
        {
          "name": "C7",
          "midi": 96,
          "time": 41.37500000000003,
          "velocity": 0.7874015748031497,
          "duration": 0.002604166666664298
        },
        {
          "name": "C#7",
          "midi": 97,
          "time": 41.50000000000003,
          "velocity": 0.7874015748031497,
          "duration": 0.002604166666664298
        },
        {
          "name": "C7",
          "midi": 96,
          "time": 41.62500000000003,
          "velocity": 0.7874015748031497,
          "duration": 0.002604166666664298
        },
        {
          "name": "C#7",
          "midi": 97,
          "time": 41.75000000000003,
          "velocity": 0.7874015748031497,
          "duration": 0.002604166666664298
        },
        {
          "name": "D7",
          "midi": 98,
          "time": 42.00000000000003,
          "velocity": 0.7874015748031497,
          "duration": 0.002604166666664298
        },
        {
          "name": "C7",
          "midi": 96,
          "time": 42.25000000000003,
          "velocity": 0.7874015748031497,
          "duration": 0.002604166666664298
        },
        {
          "name": "D7",
          "midi": 98,
          "time": 42.37500000000003,
          "velocity": 0.7874015748031497,
          "duration": 0.002604166666664298
        },
        {
          "name": "C7",
          "midi": 96,
          "time": 42.62500000000003,
          "velocity": 0.7874015748031497,
          "duration": 0.002604166666664298
        },
        {
          "name": "C#7",
          "midi": 97,
          "time": 42.75000000000003,
          "velocity": 0.7874015748031497,
          "duration": 0.002604166666664298
        },
        {
          "name": "D7",
          "midi": 98,
          "time": 42.87500000000003,
          "velocity": 0.7874015748031497,
          "duration": 0.002604166666664298
        },
        {
          "name": "D7",
          "midi": 98,
          "time": 43.12500000000003,
          "velocity": 0.7874015748031497,
          "duration": 0.002604166666664298
        },
        {
          "name": "C#7",
          "midi": 97,
          "time": 43.25000000000003,
          "velocity": 0.7874015748031497,
          "duration": 0.002604166666664298
        },
        {
          "name": "C7",
          "midi": 96,
          "time": 43.37500000000003,
          "velocity": 0.7874015748031497,
          "duration": 0.002604166666664298
        },
        {
          "name": "C#7",
          "midi": 97,
          "time": 43.62500000000003,
          "velocity": 0.7874015748031497,
          "duration": 0.002604166666664298
        },
        {
          "name": "C7",
          "midi": 96,
          "time": 43.75000000000003,
          "velocity": 0.7874015748031497,
          "duration": 0.002604166666664298
        },
        {
          "name": "C#7",
          "midi": 97,
          "time": 43.87500000000003,
          "velocity": 0.7874015748031497,
          "duration": 0.002604166666664298
        },
        {
          "name": "C7",
          "midi": 96,
          "time": 44.00000000000003,
          "velocity": 0.7874015748031497,
          "duration": 0.002604166666664298
        },
        {
          "name": "D7",
          "midi": 98,
          "time": 44.12500000000003,
          "velocity": 0.7874015748031497,
          "duration": 0.002604166666664298
        },
        {
          "name": "C7",
          "midi": 96,
          "time": 44.25000000000003,
          "velocity": 0.7874015748031497,
          "duration": 0.002604166666664298
        },
        {
          "name": "C#7",
          "midi": 97,
          "time": 44.37500000000003,
          "velocity": 0.7874015748031497,
          "duration": 0.25
        },
        {
          "name": "D7",
          "midi": 98,
          "time": 45.00000000000003,
          "velocity": 0.7874015748031497,
          "duration": 0.002604166666664298
        },
        {
          "name": "C7",
          "midi": 96,
          "time": 45.12500000000003,
          "velocity": 0.7874015748031497,
          "duration": 0.002604166666664298
        },
        {
          "name": "D7",
          "midi": 98,
          "time": 45.25000000000003,
          "velocity": 0.7874015748031497,
          "duration": 0.002604166666664298
        },
        {
          "name": "C7",
          "midi": 96,
          "time": 45.50000000000003,
          "velocity": 0.7874015748031497,
          "duration": 0.002604166666664298
        },
        {
          "name": "C#7",
          "midi": 97,
          "time": 45.62500000000003,
          "velocity": 0.7874015748031497,
          "duration": 0.002604166666664298
        },
        {
          "name": "D7",
          "midi": 98,
          "time": 45.75000000000003,
          "velocity": 0.7874015748031497,
          "duration": 0.002604166666664298
        },
        {
          "name": "D7",
          "midi": 98,
          "time": 46.00000000000003,
          "velocity": 0.7874015748031497,
          "duration": 0.002604166666664298
        },
        {
          "name": "C#7",
          "midi": 97,
          "time": 46.12500000000003,
          "velocity": 0.7874015748031497,
          "duration": 0.002604166666664298
        },
        {
          "name": "C7",
          "midi": 96,
          "time": 46.25000000000003,
          "velocity": 0.7874015748031497,
          "duration": 0.002604166666664298
        },
        {
          "name": "C#7",
          "midi": 97,
          "time": 46.50000000000003,
          "velocity": 0.7874015748031497,
          "duration": 0.002604166666664298
        },
        {
          "name": "C7",
          "midi": 96,
          "time": 46.62500000000003,
          "velocity": 0.7874015748031497,
          "duration": 0.002604166666664298
        },
        {
          "name": "C#7",
          "midi": 97,
          "time": 46.75000000000003,
          "velocity": 0.7874015748031497,
          "duration": 0.002604166666664298
        },
        {
          "name": "C7",
          "midi": 96,
          "time": 46.87500000000003,
          "velocity": 0.7874015748031497,
          "duration": 0.002604166666664298
        },
        {
          "name": "D7",
          "midi": 98,
          "time": 47.00000000000003,
          "velocity": 0.7874015748031497,
          "duration": 0.002604166666664298
        },
        {
          "name": "C7",
          "midi": 96,
          "time": 47.12500000000003,
          "velocity": 0.7874015748031497,
          "duration": 0.002604166666664298
        },
        {
          "name": "C7",
          "midi": 96,
          "time": 47.25000000000003,
          "velocity": 0.7874015748031497,
          "duration": 0.25
        },
        {
          "name": "D7",
          "midi": 98,
          "time": 47.87500000000003,
          "velocity": 0.7874015748031497,
          "duration": 0.002604166666664298
        },
        {
          "name": "C7",
          "midi": 96,
          "time": 48.00000000000003,
          "velocity": 0.7874015748031497,
          "duration": 0.002604166666664298
        },
        {
          "name": "D7",
          "midi": 98,
          "time": 48.12500000000003,
          "velocity": 0.7874015748031497,
          "duration": 0.002604166666664298
        },
        {
          "name": "C7",
          "midi": 96,
          "time": 48.37500000000003,
          "velocity": 0.7874015748031497,
          "duration": 0.002604166666664298
        },
        {
          "name": "C#7",
          "midi": 97,
          "time": 48.50000000000003,
          "velocity": 0.7874015748031497,
          "duration": 0.002604166666664298
        },
        {
          "name": "D7",
          "midi": 98,
          "time": 48.62500000000003,
          "velocity": 0.7874015748031497,
          "duration": 0.002604166666664298
        },
        {
          "name": "D7",
          "midi": 98,
          "time": 48.87500000000003,
          "velocity": 0.7874015748031497,
          "duration": 0.002604166666664298
        },
        {
          "name": "C#7",
          "midi": 97,
          "time": 49.00000000000003,
          "velocity": 0.7874015748031497,
          "duration": 0.002604166666664298
        },
        {
          "name": "C7",
          "midi": 96,
          "time": 49.12500000000003,
          "velocity": 0.7874015748031497,
          "duration": 0.002604166666664298
        },
        {
          "name": "C#7",
          "midi": 97,
          "time": 49.37500000000003,
          "velocity": 0.7874015748031497,
          "duration": 0.002604166666664298
        },
        {
          "name": "C7",
          "midi": 96,
          "time": 49.50000000000003,
          "velocity": 0.7874015748031497,
          "duration": 0.002604166666664298
        },
        {
          "name": "C#7",
          "midi": 97,
          "time": 49.62500000000003,
          "velocity": 0.7874015748031497,
          "duration": 0.002604166666664298
        },
        {
          "name": "C7",
          "midi": 96,
          "time": 49.75000000000003,
          "velocity": 0.7874015748031497,
          "duration": 0.002604166666664298
        },
        {
          "name": "D7",
          "midi": 98,
          "time": 49.87500000000003,
          "velocity": 0.7874015748031497,
          "duration": 0.002604166666664298
        },
        {
          "name": "C7",
          "midi": 96,
          "time": 50.00000000000003,
          "velocity": 0.7874015748031497,
          "duration": 0.002604166666664298
        },
        {
          "name": "C#7",
          "midi": 97,
          "time": 50.12500000000003,
          "velocity": 0.7874015748031497,
          "duration": 0.002604166666664298
        },
        {
          "name": "D7",
          "midi": 98,
          "time": 50.37500000000003,
          "velocity": 0.7874015748031497,
          "duration": 0.002604166666664298
        },
        {
          "name": "C7",
          "midi": 96,
          "time": 50.50000000000003,
          "velocity": 0.7874015748031497,
          "duration": 0.002604166666664298
        },
        {
          "name": "D7",
          "midi": 98,
          "time": 50.62500000000003,
          "velocity": 0.7874015748031497,
          "duration": 0.25
        },
        {
          "name": "D7",
          "midi": 98,
          "time": 51.25000000000003,
          "velocity": 0.7874015748031497,
          "duration": 0.002604166666664298
        },
        {
          "name": "C7",
          "midi": 96,
          "time": 51.50000000000003,
          "velocity": 0.7874015748031497,
          "duration": 0.002604166666664298
        },
        {
          "name": "C#7",
          "midi": 97,
          "time": 51.62500000000003,
          "velocity": 0.7874015748031497,
          "duration": 0.002604166666664298
        },
        {
          "name": "D7",
          "midi": 98,
          "time": 51.75000000000003,
          "velocity": 0.7874015748031497,
          "duration": 0.002604166666664298
        },
        {
          "name": "D7",
          "midi": 98,
          "time": 52.00000000000003,
          "velocity": 0.7874015748031497,
          "duration": 0.002604166666664298
        },
        {
          "name": "C#7",
          "midi": 97,
          "time": 52.12500000000003,
          "velocity": 0.7874015748031497,
          "duration": 0.002604166666664298
        },
        {
          "name": "C7",
          "midi": 96,
          "time": 52.25000000000003,
          "velocity": 0.7874015748031497,
          "duration": 0.002604166666664298
        },
        {
          "name": "C#7",
          "midi": 97,
          "time": 52.50000000000003,
          "velocity": 0.7874015748031497,
          "duration": 0.002604166666664298
        },
        {
          "name": "C7",
          "midi": 96,
          "time": 52.62500000000003,
          "velocity": 0.7874015748031497,
          "duration": 0.002604166666664298
        },
        {
          "name": "C#7",
          "midi": 97,
          "time": 52.75000000000003,
          "velocity": 0.7874015748031497,
          "duration": 0.002604166666664298
        },
        {
          "name": "C7",
          "midi": 96,
          "time": 52.87500000000003,
          "velocity": 0.7874015748031497,
          "duration": 0.002604166666664298
        },
        {
          "name": "D7",
          "midi": 98,
          "time": 53.00000000000003,
          "velocity": 0.7874015748031497,
          "duration": 0.002604166666664298
        },
        {
          "name": "C7",
          "midi": 96,
          "time": 53.12500000000003,
          "velocity": 0.7874015748031497,
          "duration": 0.002604166666664298
        },
        {
          "name": "C#7",
          "midi": 97,
          "time": 53.25000000000003,
          "velocity": 0.7874015748031497,
          "duration": 0.002604166666664298
        },
        {
          "name": "D7",
          "midi": 98,
          "time": 53.50000000000003,
          "velocity": 0.7874015748031497,
          "duration": 0.002604166666664298
        },
        {
          "name": "C7",
          "midi": 96,
          "time": 53.62500000000003,
          "velocity": 0.7874015748031497,
          "duration": 0.002604166666664298
        },
        {
          "name": "D7",
          "midi": 98,
          "time": 54.00000000000003,
          "velocity": 0.7874015748031497,
          "duration": 0.002604166666664298
        },
        {
          "name": "C7",
          "midi": 96,
          "time": 54.25000000000003,
          "velocity": 0.7874015748031497,
          "duration": 0.002604166666664298
        },
        {
          "name": "C7",
          "midi": 96,
          "time": 54.50000000000003,
          "velocity": 0.7874015748031497,
          "duration": 0.002604166666664298
        },
        {
          "name": "C#7",
          "midi": 97,
          "time": 54.75000000000003,
          "velocity": 0.7874015748031497,
          "duration": 0.002604166666664298
        },
        {
          "name": "C7",
          "midi": 96,
          "time": 55.00000000000003,
          "velocity": 0.7874015748031497,
          "duration": 0.002604166666664298
        },
        {
          "name": "C#7",
          "midi": 97,
          "time": 55.25000000000003,
          "velocity": 0.7874015748031497,
          "duration": 0.002604166666664298
        },
        {
          "name": "C7",
          "midi": 96,
          "time": 55.50000000000003,
          "velocity": 0.7874015748031497,
          "duration": 0.002604166666664298
        },
        {
          "name": "C#7",
          "midi": 97,
          "time": 55.75000000000003,
          "velocity": 0.7874015748031497,
          "duration": 0.002604166666664298
        },
        {
          "name": "C7",
          "midi": 96,
          "time": 56.00000000000003,
          "velocity": 0.7874015748031497,
          "duration": 0.002604166666664298
        },
        {
          "name": "C#7",
          "midi": 97,
          "time": 56.06250000000003,
          "velocity": 0.7874015748031497,
          "duration": 0.002604166666664298
        },
        {
          "name": "D7",
          "midi": 98,
          "time": 56.12500000000003,
          "velocity": 0.7874015748031497,
          "duration": 0.002604166666664298
        },
        {
          "name": "D7",
          "midi": 98,
          "time": 56.31250000000003,
          "velocity": 0.7874015748031497,
          "duration": 0.002604166666664298
        },
        {
          "name": "C7",
          "midi": 96,
          "time": 56.50000000000003,
          "velocity": 0.7874015748031497,
          "duration": 0.002604166666664298
        },
        {
          "name": "D7",
          "midi": 98,
          "time": 57.00000000000003,
          "velocity": 0.7874015748031497,
          "duration": 0.002604166666664298
        },
        {
          "name": "C7",
          "midi": 96,
          "time": 57.25000000000003,
          "velocity": 0.7874015748031497,
          "duration": 0.002604166666664298
        },
        {
          "name": "C7",
          "midi": 96,
          "time": 57.50000000000003,
          "velocity": 0.7874015748031497,
          "duration": 0.002604166666664298
        },
        {
          "name": "C#7",
          "midi": 97,
          "time": 57.75000000000003,
          "velocity": 0.7874015748031497,
          "duration": 0.002604166666664298
        },
        {
          "name": "C7",
          "midi": 96,
          "time": 58.00000000000003,
          "velocity": 0.7874015748031497,
          "duration": 0.002604166666664298
        },
        {
          "name": "C#7",
          "midi": 97,
          "time": 58.25000000000003,
          "velocity": 0.7874015748031497,
          "duration": 0.002604166666664298
        },
        {
          "name": "C7",
          "midi": 96,
          "time": 58.50000000000003,
          "velocity": 0.7874015748031497,
          "duration": 0.002604166666664298
        },
        {
          "name": "C#7",
          "midi": 97,
          "time": 58.75000000000003,
          "velocity": 0.7874015748031497,
          "duration": 0.002604166666664298
        },
        {
          "name": "C7",
          "midi": 96,
          "time": 59.00000000000003,
          "velocity": 0.7874015748031497,
          "duration": 0.002604166666664298
        },
        {
          "name": "C#7",
          "midi": 97,
          "time": 59.06250000000003,
          "velocity": 0.7874015748031497,
          "duration": 0.002604166666664298
        },
        {
          "name": "D7",
          "midi": 98,
          "time": 59.12500000000003,
          "velocity": 0.7874015748031497,
          "duration": 0.002604166666664298
        },
        {
          "name": "D7",
          "midi": 98,
          "time": 59.31250000000003,
          "velocity": 0.7874015748031497,
          "duration": 0.002604166666664298
        },
        {
          "name": "C#7",
          "midi": 97,
          "time": 59.50000000000003,
          "velocity": 0.7874015748031497,
          "duration": 0.002604166666664298
        },
        {
          "name": "D7",
          "midi": 98,
          "time": 60.00000000000003,
          "velocity": 0.7874015748031497,
          "duration": 0.002604166666664298
        },
        {
          "name": "C7",
          "midi": 96,
          "time": 60.25000000000003,
          "velocity": 0.7874015748031497,
          "duration": 0.002604166666664298
        },
        {
          "name": "C7",
          "midi": 96,
          "time": 60.50000000000003,
          "velocity": 0.7874015748031497,
          "duration": 0.002604166666664298
        },
        {
          "name": "C#7",
          "midi": 97,
          "time": 60.75000000000003,
          "velocity": 0.7874015748031497,
          "duration": 0.002604166666664298
        },
        {
          "name": "C7",
          "midi": 96,
          "time": 61.00000000000003,
          "velocity": 0.7874015748031497,
          "duration": 0.002604166666664298
        },
        {
          "name": "C#7",
          "midi": 97,
          "time": 61.25000000000003,
          "velocity": 0.7874015748031497,
          "duration": 0.002604166666664298
        },
        {
          "name": "C7",
          "midi": 96,
          "time": 61.50000000000003,
          "velocity": 0.7874015748031497,
          "duration": 0.002604166666664298
        },
        {
          "name": "C#7",
          "midi": 97,
          "time": 61.75000000000003,
          "velocity": 0.7874015748031497,
          "duration": 0.002604166666664298
        },
        {
          "name": "C7",
          "midi": 96,
          "time": 62.00000000000003,
          "velocity": 0.7874015748031497,
          "duration": 0.002604166666664298
        },
        {
          "name": "C#7",
          "midi": 97,
          "time": 62.06250000000003,
          "velocity": 0.7874015748031497,
          "duration": 0.002604166666664298
        },
        {
          "name": "D7",
          "midi": 98,
          "time": 62.12500000000003,
          "velocity": 0.7874015748031497,
          "duration": 0.002604166666664298
        },
        {
          "name": "C7",
          "midi": 96,
          "time": 62.31250000000003,
          "velocity": 0.7874015748031497,
          "duration": 0.002604166666664298
        },
        {
          "name": "C#7",
          "midi": 97,
          "time": 62.50000000000003,
          "velocity": 0.7874015748031497,
          "duration": 0.002604166666664298
        },
        {
          "name": "D7",
          "midi": 98,
          "time": 63.00000000000003,
          "velocity": 0.7874015748031497,
          "duration": 0.002604166666664298
        },
        {
          "name": "C7",
          "midi": 96,
          "time": 63.25000000000003,
          "velocity": 0.7874015748031497,
          "duration": 0.002604166666664298
        },
        {
          "name": "C7",
          "midi": 96,
          "time": 63.50000000000003,
          "velocity": 0.7874015748031497,
          "duration": 0.002604166666664298
        },
        {
          "name": "C#7",
          "midi": 97,
          "time": 63.75000000000003,
          "velocity": 0.7874015748031497,
          "duration": 0.002604166666664298
        },
        {
          "name": "C7",
          "midi": 96,
          "time": 64.00000000000003,
          "velocity": 0.7874015748031497,
          "duration": 0.0026041666666714036
        },
        {
          "name": "C#7",
          "midi": 97,
          "time": 64.25000000000003,
          "velocity": 0.7874015748031497,
          "duration": 0.0026041666666714036
        },
        {
          "name": "C7",
          "midi": 96,
          "time": 64.50000000000003,
          "velocity": 0.7874015748031497,
          "duration": 0.0026041666666714036
        },
        {
          "name": "C#7",
          "midi": 97,
          "time": 64.75000000000003,
          "velocity": 0.7874015748031497,
          "duration": 0.0026041666666714036
        },
        {
          "name": "C7",
          "midi": 96,
          "time": 65.00000000000003,
          "velocity": 0.7874015748031497,
          "duration": 0.0026041666666714036
        },
        {
          "name": "C#7",
          "midi": 97,
          "time": 65.06250000000003,
          "velocity": 0.7874015748031497,
          "duration": 0.0026041666666714036
        },
        {
          "name": "D7",
          "midi": 98,
          "time": 65.12500000000003,
          "velocity": 0.7874015748031497,
          "duration": 0.0026041666666714036
        },
        {
          "name": "D7",
          "midi": 98,
          "time": 65.31250000000003,
          "velocity": 0.7874015748031497,
          "duration": 0.0026041666666714036
        },
        {
          "name": "C7",
          "midi": 96,
          "time": 65.50000000000003,
          "velocity": 0.7874015748031497,
          "duration": 0.0026041666666714036
        },
        {
          "name": "C#7",
          "midi": 97,
          "time": 66.00000000000003,
          "velocity": 0.7874015748031497,
          "duration": 0.0026041666666714036
        },
        {
          "name": "D7",
          "midi": 98,
          "time": 66.25000000000003,
          "velocity": 0.7874015748031497,
          "duration": 0.0026041666666714036
        },
        {
          "name": "C#7",
          "midi": 97,
          "time": 66.50000000000003,
          "velocity": 0.7874015748031497,
          "duration": 0.0026041666666714036
        },
        {
          "name": "D7",
          "midi": 98,
          "time": 66.75000000000003,
          "velocity": 0.7874015748031497,
          "duration": 0.0026041666666714036
        },
        {
          "name": "C#7",
          "midi": 97,
          "time": 67.00000000000003,
          "velocity": 0.7874015748031497,
          "duration": 0.0026041666666714036
        },
        {
          "name": "D7",
          "midi": 98,
          "time": 67.25000000000003,
          "velocity": 0.7874015748031497,
          "duration": 0.0026041666666714036
        },
        {
          "name": "C#7",
          "midi": 97,
          "time": 67.50000000000003,
          "velocity": 0.7874015748031497,
          "duration": 0.0026041666666714036
        },
        {
          "name": "D7",
          "midi": 98,
          "time": 67.75000000000003,
          "velocity": 0.7874015748031497,
          "duration": 0.0026041666666714036
        },
        {
          "name": "C#7",
          "midi": 97,
          "time": 68.00000000000003,
          "velocity": 0.7874015748031497,
          "duration": 0.0026041666666714036
        },
        {
          "name": "D7",
          "midi": 98,
          "time": 68.25000000000003,
          "velocity": 0.7874015748031497,
          "duration": 0.0026041666666714036
        },
        {
          "name": "C#7",
          "midi": 97,
          "time": 68.37500000000003,
          "velocity": 0.7874015748031497,
          "duration": 0.0026041666666714036
        },
        {
          "name": "D7",
          "midi": 98,
          "time": 68.50000000000003,
          "velocity": 0.7874015748031497,
          "duration": 0.0026041666666714036
        },
        {
          "name": "C#7",
          "midi": 97,
          "time": 68.62500000000003,
          "velocity": 0.7874015748031497,
          "duration": 0.25
        },
        {
          "name": "C7",
          "midi": 96,
          "time": 69.00000000000003,
          "velocity": 0.7874015748031497,
          "duration": 0.0026041666666714036
        },
        {
          "name": "C#7",
          "midi": 97,
          "time": 69.25000000000003,
          "velocity": 0.7874015748031497,
          "duration": 0.0026041666666714036
        },
        {
          "name": "C7",
          "midi": 96,
          "time": 69.50000000000003,
          "velocity": 0.7874015748031497,
          "duration": 0.0026041666666714036
        },
        {
          "name": "C#7",
          "midi": 97,
          "time": 69.75000000000003,
          "velocity": 0.7874015748031497,
          "duration": 0.0026041666666714036
        },
        {
          "name": "C7",
          "midi": 96,
          "time": 70.00000000000003,
          "velocity": 0.7874015748031497,
          "duration": 0.0026041666666714036
        },
        {
          "name": "C#7",
          "midi": 97,
          "time": 70.25000000000003,
          "velocity": 0.7874015748031497,
          "duration": 0.0026041666666714036
        },
        {
          "name": "C7",
          "midi": 96,
          "time": 70.50000000000003,
          "velocity": 0.7874015748031497,
          "duration": 0.0026041666666714036
        },
        {
          "name": "C#7",
          "midi": 97,
          "time": 70.75000000000003,
          "velocity": 0.7874015748031497,
          "duration": 0.0026041666666714036
        },
        {
          "name": "C7",
          "midi": 96,
          "time": 71.00000000000003,
          "velocity": 0.7874015748031497,
          "duration": 0.0026041666666714036
        },
        {
          "name": "C#7",
          "midi": 97,
          "time": 71.25000000000003,
          "velocity": 0.7874015748031497,
          "duration": 0.0026041666666714036
        },
        {
          "name": "C7",
          "midi": 96,
          "time": 71.37500000000003,
          "velocity": 0.7874015748031497,
          "duration": 0.0026041666666714036
        },
        {
          "name": "C#7",
          "midi": 97,
          "time": 71.50000000000003,
          "velocity": 0.7874015748031497,
          "duration": 0.0026041666666714036
        },
        {
          "name": "C7",
          "midi": 96,
          "time": 71.62500000000003,
          "velocity": 0.7874015748031497,
          "duration": 0.25
        },
        {
          "name": "C#7",
          "midi": 97,
          "time": 72.00000000000003,
          "velocity": 0.7874015748031497,
          "duration": 0.0026041666666714036
        },
        {
          "name": "D7",
          "midi": 98,
          "time": 72.25000000000003,
          "velocity": 0.7874015748031497,
          "duration": 0.0026041666666714036
        },
        {
          "name": "C#7",
          "midi": 97,
          "time": 72.50000000000003,
          "velocity": 0.7874015748031497,
          "duration": 0.0026041666666714036
        },
        {
          "name": "D7",
          "midi": 98,
          "time": 72.75000000000003,
          "velocity": 0.7874015748031497,
          "duration": 0.0026041666666714036
        },
        {
          "name": "C#7",
          "midi": 97,
          "time": 73.00000000000003,
          "velocity": 0.7874015748031497,
          "duration": 0.0026041666666714036
        },
        {
          "name": "D7",
          "midi": 98,
          "time": 73.25000000000003,
          "velocity": 0.7874015748031497,
          "duration": 0.0026041666666714036
        },
        {
          "name": "C#7",
          "midi": 97,
          "time": 73.50000000000003,
          "velocity": 0.7874015748031497,
          "duration": 0.0026041666666714036
        },
        {
          "name": "D7",
          "midi": 98,
          "time": 73.75000000000003,
          "velocity": 0.7874015748031497,
          "duration": 0.0026041666666714036
        },
        {
          "name": "C#7",
          "midi": 97,
          "time": 74.00000000000003,
          "velocity": 0.7874015748031497,
          "duration": 0.0026041666666714036
        },
        {
          "name": "D7",
          "midi": 98,
          "time": 74.25000000000003,
          "velocity": 0.7874015748031497,
          "duration": 0.0026041666666714036
        },
        {
          "name": "C#7",
          "midi": 97,
          "time": 74.37500000000003,
          "velocity": 0.7874015748031497,
          "duration": 0.0026041666666714036
        },
        {
          "name": "D7",
          "midi": 98,
          "time": 74.50000000000003,
          "velocity": 0.7874015748031497,
          "duration": 0.0026041666666714036
        },
        {
          "name": "C#7",
          "midi": 97,
          "time": 74.62500000000003,
          "velocity": 0.7874015748031497,
          "duration": 0.25
        },
        {
          "name": "C7",
          "midi": 96,
          "time": 75.00000000000003,
          "velocity": 0.7874015748031497,
          "duration": 0.0026041666666714036
        },
        {
          "name": "D7",
          "midi": 98,
          "time": 75.25000000000003,
          "velocity": 0.7874015748031497,
          "duration": 0.0026041666666714036
        },
        {
          "name": "C7",
          "midi": 96,
          "time": 75.50000000000003,
          "velocity": 0.7874015748031497,
          "duration": 0.0026041666666714036
        },
        {
          "name": "D7",
          "midi": 98,
          "time": 75.75000000000003,
          "velocity": 0.7874015748031497,
          "duration": 0.0026041666666714036
        },
        {
          "name": "C7",
          "midi": 96,
          "time": 76.00000000000003,
          "velocity": 0.7874015748031497,
          "duration": 0.0026041666666714036
        },
        {
          "name": "D7",
          "midi": 98,
          "time": 76.25000000000003,
          "velocity": 0.7874015748031497,
          "duration": 0.0026041666666714036
        },
        {
          "name": "C7",
          "midi": 96,
          "time": 76.50000000000003,
          "velocity": 0.7874015748031497,
          "duration": 0.0026041666666714036
        },
        {
          "name": "D7",
          "midi": 98,
          "time": 76.75000000000003,
          "velocity": 0.7874015748031497,
          "duration": 0.0026041666666714036
        },
        {
          "name": "C7",
          "midi": 96,
          "time": 77.00000000000003,
          "velocity": 0.7874015748031497,
          "duration": 0.0026041666666714036
        },
        {
          "name": "D7",
          "midi": 98,
          "time": 77.25000000000003,
          "velocity": 0.7874015748031497,
          "duration": 0.0026041666666714036
        },
        {
          "name": "C7",
          "midi": 96,
          "time": 77.37500000000003,
          "velocity": 0.7874015748031497,
          "duration": 0.0026041666666714036
        },
        {
          "name": "D7",
          "midi": 98,
          "time": 77.50000000000003,
          "velocity": 0.7874015748031497,
          "duration": 0.0026041666666714036
        },
        {
          "name": "C7",
          "midi": 96,
          "time": 77.62500000000003,
          "velocity": 0.7874015748031497,
          "duration": 0.25
        },
        {
          "name": "D7",
          "midi": 98,
          "time": 78.00000000000003,
          "velocity": 0.7874015748031497,
          "duration": 0.0026041666666714036
        },
        {
          "name": "C7",
          "midi": 96,
          "time": 78.25000000000003,
          "velocity": 0.7874015748031497,
          "duration": 0.0026041666666714036
        },
        {
          "name": "D7",
          "midi": 98,
          "time": 78.37500000000003,
          "velocity": 0.7874015748031497,
          "duration": 0.0026041666666714036
        },
        {
          "name": "C7",
          "midi": 96,
          "time": 78.62500000000003,
          "velocity": 0.7874015748031497,
          "duration": 0.0026041666666714036
        },
        {
          "name": "C#7",
          "midi": 97,
          "time": 78.75000000000003,
          "velocity": 0.7874015748031497,
          "duration": 0.0026041666666714036
        },
        {
          "name": "D7",
          "midi": 98,
          "time": 78.87500000000003,
          "velocity": 0.7874015748031497,
          "duration": 0.0026041666666714036
        },
        {
          "name": "D7",
          "midi": 98,
          "time": 79.12500000000003,
          "velocity": 0.7874015748031497,
          "duration": 0.0026041666666714036
        },
        {
          "name": "C#7",
          "midi": 97,
          "time": 79.25000000000003,
          "velocity": 0.7874015748031497,
          "duration": 0.0026041666666714036
        },
        {
          "name": "C7",
          "midi": 96,
          "time": 79.37500000000003,
          "velocity": 0.7874015748031497,
          "duration": 0.0026041666666714036
        },
        {
          "name": "C#7",
          "midi": 97,
          "time": 79.62500000000003,
          "velocity": 0.7874015748031497,
          "duration": 0.0026041666666714036
        },
        {
          "name": "C7",
          "midi": 96,
          "time": 79.75000000000003,
          "velocity": 0.7874015748031497,
          "duration": 0.0026041666666714036
        },
        {
          "name": "C#7",
          "midi": 97,
          "time": 79.87500000000003,
          "velocity": 0.7874015748031497,
          "duration": 0.0026041666666714036
        },
        {
          "name": "C7",
          "midi": 96,
          "time": 80.00000000000003,
          "velocity": 0.7874015748031497,
          "duration": 0.0026041666666714036
        },
        {
          "name": "D7",
          "midi": 98,
          "time": 80.12500000000003,
          "velocity": 0.7874015748031497,
          "duration": 0.0026041666666714036
        },
        {
          "name": "C7",
          "midi": 96,
          "time": 80.25000000000003,
          "velocity": 0.7874015748031497,
          "duration": 0.0026041666666714036
        },
        {
          "name": "C#7",
          "midi": 97,
          "time": 80.37500000000003,
          "velocity": 0.7874015748031497,
          "duration": 0.0026041666666714036
        },
        {
          "name": "D7",
          "midi": 98,
          "time": 80.62500000000003,
          "velocity": 0.7874015748031497,
          "duration": 0.0026041666666714036
        },
        {
          "name": "C7",
          "midi": 96,
          "time": 80.75000000000003,
          "velocity": 0.7874015748031497,
          "duration": 0.0026041666666714036
        },
        {
          "name": "D7",
          "midi": 98,
          "time": 81.00000000000003,
          "velocity": 0.7874015748031497,
          "duration": 0.0026041666666714036
        },
        {
          "name": "C7",
          "midi": 96,
          "time": 81.25000000000003,
          "velocity": 0.7874015748031497,
          "duration": 0.0026041666666714036
        },
        {
          "name": "D7",
          "midi": 98,
          "time": 81.37500000000003,
          "velocity": 0.7874015748031497,
          "duration": 0.0026041666666714036
        },
        {
          "name": "C#7",
          "midi": 97,
          "time": 81.62500000000003,
          "velocity": 0.7874015748031497,
          "duration": 0.0026041666666714036
        },
        {
          "name": "C7",
          "midi": 96,
          "time": 81.75000000000003,
          "velocity": 0.7874015748031497,
          "duration": 0.0026041666666714036
        },
        {
          "name": "C7",
          "midi": 96,
          "time": 81.87500000000003,
          "velocity": 0.7874015748031497,
          "duration": 0.0026041666666714036
        },
        {
          "name": "C#7",
          "midi": 97,
          "time": 82.12500000000003,
          "velocity": 0.7874015748031497,
          "duration": 0.0026041666666714036
        },
        {
          "name": "D7",
          "midi": 98,
          "time": 82.25000000000003,
          "velocity": 0.7874015748031497,
          "duration": 0.0026041666666714036
        },
        {
          "name": "C#7",
          "midi": 97,
          "time": 82.37500000000003,
          "velocity": 0.7874015748031497,
          "duration": 0.0026041666666714036
        },
        {
          "name": "C7",
          "midi": 96,
          "time": 82.62500000000003,
          "velocity": 0.7874015748031497,
          "duration": 0.0026041666666714036
        },
        {
          "name": "C#7",
          "midi": 97,
          "time": 82.75000000000003,
          "velocity": 0.7874015748031497,
          "duration": 0.0026041666666714036
        },
        {
          "name": "C7",
          "midi": 96,
          "time": 82.87500000000003,
          "velocity": 0.7874015748031497,
          "duration": 0.0026041666666714036
        },
        {
          "name": "C#7",
          "midi": 97,
          "time": 83.00000000000003,
          "velocity": 0.7874015748031497,
          "duration": 0.0026041666666714036
        },
        {
          "name": "D7",
          "midi": 98,
          "time": 83.12500000000003,
          "velocity": 0.7874015748031497,
          "duration": 0.0026041666666714036
        },
        {
          "name": "C7",
          "midi": 96,
          "time": 83.25000000000003,
          "velocity": 0.7874015748031497,
          "duration": 0.0026041666666714036
        },
        {
          "name": "C#7",
          "midi": 97,
          "time": 83.37500000000003,
          "velocity": 0.7874015748031497,
          "duration": 0.0026041666666714036
        },
        {
          "name": "D7",
          "midi": 98,
          "time": 83.62500000000003,
          "velocity": 0.7874015748031497,
          "duration": 0.0026041666666714036
        },
        {
          "name": "C7",
          "midi": 96,
          "time": 83.75000000000003,
          "velocity": 0.7874015748031497,
          "duration": 0.0026041666666714036
        },
        {
          "name": "D7",
          "midi": 98,
          "time": 84.00000000000003,
          "velocity": 0.7874015748031497,
          "duration": 0.0026041666666714036
        },
        {
          "name": "C7",
          "midi": 96,
          "time": 84.25000000000003,
          "velocity": 0.7874015748031497,
          "duration": 0.0026041666666714036
        },
        {
          "name": "D7",
          "midi": 98,
          "time": 84.37500000000003,
          "velocity": 0.7874015748031497,
          "duration": 0.0026041666666714036
        },
        {
          "name": "C7",
          "midi": 96,
          "time": 84.62500000000003,
          "velocity": 0.7874015748031497,
          "duration": 0.0026041666666714036
        },
        {
          "name": "C#7",
          "midi": 97,
          "time": 84.75000000000003,
          "velocity": 0.7874015748031497,
          "duration": 0.0026041666666714036
        },
        {
          "name": "D7",
          "midi": 98,
          "time": 84.87500000000003,
          "velocity": 0.7874015748031497,
          "duration": 0.0026041666666714036
        },
        {
          "name": "D7",
          "midi": 98,
          "time": 85.12500000000003,
          "velocity": 0.7874015748031497,
          "duration": 0.0026041666666714036
        },
        {
          "name": "C#7",
          "midi": 97,
          "time": 85.25000000000003,
          "velocity": 0.7874015748031497,
          "duration": 0.0026041666666714036
        },
        {
          "name": "C7",
          "midi": 96,
          "time": 85.37500000000003,
          "velocity": 0.7874015748031497,
          "duration": 0.0026041666666714036
        },
        {
          "name": "C#7",
          "midi": 97,
          "time": 85.62500000000003,
          "velocity": 0.7874015748031497,
          "duration": 0.0026041666666714036
        },
        {
          "name": "C7",
          "midi": 96,
          "time": 85.75000000000003,
          "velocity": 0.7874015748031497,
          "duration": 0.0026041666666714036
        },
        {
          "name": "C#7",
          "midi": 97,
          "time": 85.87500000000003,
          "velocity": 0.7874015748031497,
          "duration": 0.0026041666666714036
        },
        {
          "name": "C7",
          "midi": 96,
          "time": 86.00000000000003,
          "velocity": 0.7874015748031497,
          "duration": 0.0026041666666714036
        },
        {
          "name": "D7",
          "midi": 98,
          "time": 86.12500000000003,
          "velocity": 0.7874015748031497,
          "duration": 0.0026041666666714036
        },
        {
          "name": "C7",
          "midi": 96,
          "time": 86.25000000000003,
          "velocity": 0.7874015748031497,
          "duration": 0.0026041666666714036
        },
        {
          "name": "C#7",
          "midi": 97,
          "time": 86.37500000000003,
          "velocity": 0.7874015748031497,
          "duration": 0.0026041666666714036
        },
        {
          "name": "D7",
          "midi": 98,
          "time": 86.62500000000003,
          "velocity": 0.7874015748031497,
          "duration": 0.0026041666666714036
        },
        {
          "name": "C7",
          "midi": 96,
          "time": 86.75000000000003,
          "velocity": 0.7874015748031497,
          "duration": 0.0026041666666714036
        },
        {
          "name": "C7",
          "midi": 96,
          "time": 87.00000000000003,
          "velocity": 0.7874015748031497,
          "duration": 0.0026041666666714036
        },
        {
          "name": "C#7",
          "midi": 97,
          "time": 87.25000000000003,
          "velocity": 0.7874015748031497,
          "duration": 0.0026041666666714036
        },
        {
          "name": "D7",
          "midi": 98,
          "time": 87.37500000000003,
          "velocity": 0.7874015748031497,
          "duration": 0.0026041666666714036
        },
        {
          "name": "C7",
          "midi": 96,
          "time": 87.62500000000003,
          "velocity": 0.7874015748031497,
          "duration": 0.0026041666666714036
        },
        {
          "name": "C#7",
          "midi": 97,
          "time": 87.75000000000003,
          "velocity": 0.7874015748031497,
          "duration": 0.0026041666666714036
        },
        {
          "name": "D7",
          "midi": 98,
          "time": 87.87500000000003,
          "velocity": 0.7874015748031497,
          "duration": 0.0026041666666714036
        },
        {
          "name": "D7",
          "midi": 98,
          "time": 88.12500000000003,
          "velocity": 0.7874015748031497,
          "duration": 0.0026041666666714036
        },
        {
          "name": "C#7",
          "midi": 97,
          "time": 88.25000000000003,
          "velocity": 0.7874015748031497,
          "duration": 0.0026041666666714036
        },
        {
          "name": "C7",
          "midi": 96,
          "time": 88.37500000000003,
          "velocity": 0.7874015748031497,
          "duration": 0.0026041666666714036
        },
        {
          "name": "C#7",
          "midi": 97,
          "time": 88.62500000000003,
          "velocity": 0.7874015748031497,
          "duration": 0.0026041666666714036
        },
        {
          "name": "D7",
          "midi": 98,
          "time": 88.75000000000003,
          "velocity": 0.7874015748031497,
          "duration": 0.0026041666666714036
        },
        {
          "name": "C#7",
          "midi": 97,
          "time": 88.87500000000003,
          "velocity": 0.7874015748031497,
          "duration": 0.0026041666666714036
        },
        {
          "name": "D7",
          "midi": 98,
          "time": 89.00000000000003,
          "velocity": 0.7874015748031497,
          "duration": 0.0026041666666714036
        },
        {
          "name": "C7",
          "midi": 96,
          "time": 89.12500000000003,
          "velocity": 0.7874015748031497,
          "duration": 0.0026041666666714036
        },
        {
          "name": "D7",
          "midi": 98,
          "time": 89.25000000000003,
          "velocity": 0.7874015748031497,
          "duration": 0.0026041666666714036
        },
        {
          "name": "C#7",
          "midi": 97,
          "time": 89.37500000000003,
          "velocity": 0.7874015748031497,
          "duration": 0.0026041666666714036
        },
        {
          "name": "D7",
          "midi": 98,
          "time": 89.62500000000003,
          "velocity": 0.7874015748031497,
          "duration": 0.0026041666666714036
        },
        {
          "name": "C7",
          "midi": 96,
          "time": 89.75000000000003,
          "velocity": 0.7874015748031497,
          "duration": 0.0026041666666714036
        }
      ],
      "controlChanges": {},
      "id": 2,
      "name": "PART GUITAR",
      "channelNumber": 1,
      "isPercussion": false
    }
  ]
}
