{
  "header": {
    "PPQ": 480,
    "bpm": 140.00014000014,
    "name": "EVENTS"
  },
  "startTime": 0,
  "duration": 95.24544046875093,
  "tracks": [
    {
      "startTime": 0,
      "duration": 0,
      "length": 0,
      "notes": [],
      "controlChanges": {},
      "id": 0
    },
    {
      "startTime": 0,
      "duration": 0,
      "length": 0,
      "notes": [],
      "controlChanges": {},
      "id": 1,
      "name": "EVENTS"
    },
    {
      "startTime": 9.968740031250002,
      "duration": 95.24544046875093,
      "length": 1784,
      "notes": [
        {
          "name": "D#5",
          "midi": 75,
          "time": 9.968740031250002,
          "velocity": 0.7874015748031497,
          "duration": 0.4196424374999985
        },
        {
          "name": "D#6",
          "midi": 87,
          "time": 9.968740031250002,
          "velocity": 0.7874015748031497,
          "duration": 0.4196424374999985
        },
        {
          "name": "E7",
          "midi": 100,
          "time": 9.968740031250002,
          "velocity": 0.7874015748031497,
          "duration": 0.04464281249999935
        },
        {
          "name": "D4",
          "midi": 62,
          "time": 9.973204312500002,
          "velocity": 0.7874015748031497,
          "duration": 0.4196424374999985
        },
        {
          "name": "D#7",
          "midi": 99,
          "time": 10.022311406250001,
          "velocity": 0.7874015748031497,
          "duration": 0.36607106249999966
        },
        {
          "name": "C4",
          "midi": 60,
          "time": 10.39731103125,
          "velocity": 0.7874015748031497,
          "duration": 0.13392843749999983
        },
        {
          "name": "C5",
          "midi": 72,
          "time": 10.39731103125,
          "velocity": 0.7874015748031497,
          "duration": 0.13392843749999983
        },
        {
          "name": "C6",
          "midi": 84,
          "time": 10.39731103125,
          "velocity": 0.7874015748031497,
          "duration": 0.13392843749999983
        },
        {
          "name": "C7",
          "midi": 96,
          "time": 10.39731103125,
          "velocity": 0.7874015748031497,
          "duration": 0.13392843749999983
        },
        {
          "name": "C6",
          "midi": 84,
          "time": 10.54016803125,
          "velocity": 0.7874015748031497,
          "duration": 0.13392843749999983
        },
        {
          "name": "C7",
          "midi": 96,
          "time": 10.54016803125,
          "velocity": 0.7874015748031497,
          "duration": 0.13392843749999983
        },
        {
          "name": "C4",
          "midi": 60,
          "time": 10.683025031249999,
          "velocity": 0.7874015748031497,
          "duration": 0.13392843749999983
        },
        {
          "name": "C5",
          "midi": 72,
          "time": 10.683025031249999,
          "velocity": 0.7874015748031497,
          "duration": 0.13392843749999983
        },
        {
          "name": "C6",
          "midi": 84,
          "time": 10.683025031249999,
          "velocity": 0.7874015748031497,
          "duration": 0.13392843749999983
        },
        {
          "name": "C7",
          "midi": 96,
          "time": 10.683025031249999,
          "velocity": 0.7874015748031497,
          "duration": 0.13392843749999983
        },
        {
          "name": "D4",
          "midi": 62,
          "time": 10.825882031249998,
          "velocity": 0.7874015748031497,
          "duration": 0.13392843749999983
        },
        {
          "name": "D5",
          "midi": 74,
          "time": 10.825882031249998,
          "velocity": 0.7874015748031497,
          "duration": 0.13392843749999983
        },
        {
          "name": "D6",
          "midi": 86,
          "time": 10.825882031249998,
          "velocity": 0.7874015748031497,
          "duration": 0.13392843749999983
        },
        {
          "name": "D7",
          "midi": 98,
          "time": 10.825882031249998,
          "velocity": 0.7874015748031497,
          "duration": 0.13392843749999983
        },
        {
          "name": "C#4",
          "midi": 61,
          "time": 10.968739031249997,
          "velocity": 0.7874015748031497,
          "duration": 0.13392843749999983
        },
        {
          "name": "C#5",
          "midi": 73,
          "time": 10.968739031249997,
          "velocity": 0.7874015748031497,
          "duration": 0.13392843749999983
        },
        {
          "name": "C#6",
          "midi": 85,
          "time": 10.968739031249997,
          "velocity": 0.7874015748031497,
          "duration": 0.13392843749999983
        },
        {
          "name": "C#7",
          "midi": 97,
          "time": 10.968739031249997,
          "velocity": 0.7874015748031497,
          "duration": 0.13392843749999983
        },
        {
          "name": "C4",
          "midi": 60,
          "time": 11.111596031249997,
          "velocity": 0.7874015748031497,
          "duration": 0.13482129375000085
        },
        {
          "name": "C5",
          "midi": 72,
          "time": 11.111596031249997,
          "velocity": 0.7874015748031497,
          "duration": 0.13482129375000085
        },
        {
          "name": "C6",
          "midi": 84,
          "time": 11.111596031249997,
          "velocity": 0.7874015748031497,
          "duration": 0.13482129375000085
        },
        {
          "name": "C7",
          "midi": 96,
          "time": 11.111596031249997,
          "velocity": 0.7874015748031497,
          "duration": 0.13482129375000085
        },
        {
          "name": "D4",
          "midi": 62,
          "time": 11.253560174999997,
          "velocity": 0.7874015748031497,
          "duration": 0.2776782937499984
        },
        {
          "name": "D#5",
          "midi": 75,
          "time": 11.253560174999997,
          "velocity": 0.7874015748031497,
          "duration": 0.2776782937499984
        },
        {
          "name": "E6",
          "midi": 88,
          "time": 11.253560174999997,
          "velocity": 0.7874015748031497,
          "duration": 0.2776782937499984
        },
        {
          "name": "D#7",
          "midi": 99,
          "time": 11.253560174999997,
          "velocity": 0.7874015748031497,
          "duration": 0.0633927937499994
        },
        {
          "name": "E7",
          "midi": 100,
          "time": 11.325881531249996,
          "velocity": 0.7874015748031497,
          "duration": 0.06249993750000016
        },
        {
          "name": "D#7",
          "midi": 99,
          "time": 11.397310031249996,
          "velocity": 0.7874015748031497,
          "duration": 0.13392843749999983
        },
        {
          "name": "D5",
          "midi": 74,
          "time": 11.540167031249995,
          "velocity": 0.7874015748031497,
          "duration": 0.13392843749999983
        },
        {
          "name": "D6",
          "midi": 86,
          "time": 11.540167031249995,
          "velocity": 0.7874015748031497,
          "duration": 0.13392843749999983
        },
        {
          "name": "D7",
          "midi": 98,
          "time": 11.540167031249995,
          "velocity": 0.7874015748031497,
          "duration": 0.13392843749999983
        },
        {
          "name": "D4",
          "midi": 62,
          "time": 11.683024031249994,
          "velocity": 0.7874015748031497,
          "duration": 0.13392843749999983
        },
        {
          "name": "D#5",
          "midi": 75,
          "time": 11.683024031249994,
          "velocity": 0.7874015748031497,
          "duration": 0.13392843749999983
        },
        {
          "name": "D#6",
          "midi": 87,
          "time": 11.683024031249994,
          "velocity": 0.7874015748031497,
          "duration": 0.13392843749999983
        },
        {
          "name": "D#7",
          "midi": 99,
          "time": 11.683024031249994,
          "velocity": 0.7874015748031497,
          "duration": 0.13392843749999983
        },
        {
          "name": "C#4",
          "midi": 61,
          "time": 11.825881031249994,
          "velocity": 0.7874015748031497,
          "duration": 0.13392843749999983
        },
        {
          "name": "D5",
          "midi": 74,
          "time": 11.825881031249994,
          "velocity": 0.7874015748031497,
          "duration": 0.13392843749999983
        },
        {
          "name": "D6",
          "midi": 86,
          "time": 11.825881031249994,
          "velocity": 0.7874015748031497,
          "duration": 0.13392843749999983
        },
        {
          "name": "D7",
          "midi": 98,
          "time": 11.825881031249994,
          "velocity": 0.7874015748031497,
          "duration": 0.13392843749999983
        },
        {
          "name": "C4",
          "midi": 60,
          "time": 11.968738031249993,
          "velocity": 0.7874015748031497,
          "duration": 0.13392843749999983
        },
        {
          "name": "C#5",
          "midi": 73,
          "time": 11.968738031249993,
          "velocity": 0.7874015748031497,
          "duration": 0.13392843749999983
        },
        {
          "name": "C#6",
          "midi": 85,
          "time": 11.968738031249993,
          "velocity": 0.7874015748031497,
          "duration": 0.13392843749999983
        },
        {
          "name": "C#7",
          "midi": 97,
          "time": 11.968738031249993,
          "velocity": 0.7874015748031497,
          "duration": 0.13392843749999983
        },
        {
          "name": "C5",
          "midi": 72,
          "time": 12.111595031249992,
          "velocity": 0.7874015748031497,
          "duration": 0.13482129375000085
        },
        {
          "name": "C6",
          "midi": 84,
          "time": 12.111595031249992,
          "velocity": 0.7874015748031497,
          "duration": 0.13482129375000085
        },
        {
          "name": "C7",
          "midi": 96,
          "time": 12.111595031249992,
          "velocity": 0.7874015748031497,
          "duration": 0.13482129375000085
        },
        {
          "name": "C6",
          "midi": 84,
          "time": 12.253559174999992,
          "velocity": 0.7874015748031497,
          "duration": 0.13482129375000085
        },
        {
          "name": "C7",
          "midi": 96,
          "time": 12.253559174999992,
          "velocity": 0.7874015748031497,
          "duration": 0.13482129375000085
        },
        {
          "name": "C4",
          "midi": 60,
          "time": 12.397309031249993,
          "velocity": 0.7874015748031497,
          "duration": 0.13392843749999983
        },
        {
          "name": "C5",
          "midi": 72,
          "time": 12.397309031249993,
          "velocity": 0.7874015748031497,
          "duration": 0.13392843749999983
        },
        {
          "name": "C6",
          "midi": 84,
          "time": 12.397309031249993,
          "velocity": 0.7874015748031497,
          "duration": 0.13392843749999983
        },
        {
          "name": "C7",
          "midi": 96,
          "time": 12.397309031249993,
          "velocity": 0.7874015748031497,
          "duration": 0.13392843749999983
        },
        {
          "name": "D4",
          "midi": 62,
          "time": 12.540166031249992,
          "velocity": 0.7874015748031497,
          "duration": 0.13392843749999983
        },
        {
          "name": "D5",
          "midi": 74,
          "time": 12.540166031249992,
          "velocity": 0.7874015748031497,
          "duration": 0.13392843749999983
        },
        {
          "name": "D6",
          "midi": 86,
          "time": 12.540166031249992,
          "velocity": 0.7874015748031497,
          "duration": 0.13392843749999983
        },
        {
          "name": "D7",
          "midi": 98,
          "time": 12.540166031249992,
          "velocity": 0.7874015748031497,
          "duration": 0.13392843749999983
        },
        {
          "name": "C#4",
          "midi": 61,
          "time": 12.683023031249991,
          "velocity": 0.7874015748031497,
          "duration": 0.13392843749999983
        },
        {
          "name": "C#5",
          "midi": 73,
          "time": 12.683023031249991,
          "velocity": 0.7874015748031497,
          "duration": 0.13392843749999983
        },
        {
          "name": "C#6",
          "midi": 85,
          "time": 12.683023031249991,
          "velocity": 0.7874015748031497,
          "duration": 0.13392843749999983
        },
        {
          "name": "C#7",
          "midi": 97,
          "time": 12.683023031249991,
          "velocity": 0.7874015748031497,
          "duration": 0.13392843749999983
        },
        {
          "name": "C4",
          "midi": 60,
          "time": 12.82588003124999,
          "velocity": 0.7874015748031497,
          "duration": 0.13392843749999983
        },
        {
          "name": "C5",
          "midi": 72,
          "time": 12.82588003124999,
          "velocity": 0.7874015748031497,
          "duration": 0.13392843749999983
        },
        {
          "name": "C6",
          "midi": 84,
          "time": 12.82588003124999,
          "velocity": 0.7874015748031497,
          "duration": 0.13392843749999983
        },
        {
          "name": "C7",
          "midi": 96,
          "time": 12.82588003124999,
          "velocity": 0.7874015748031497,
          "duration": 0.13392843749999983
        },
        {
          "name": "D4",
          "midi": 62,
          "time": 12.96873703124999,
          "velocity": 0.7874015748031497,
          "duration": 0.4196424375000003
        },
        {
          "name": "D5",
          "midi": 74,
          "time": 12.96873703124999,
          "velocity": 0.7874015748031497,
          "duration": 0.4196424375000003
        },
        {
          "name": "D#5",
          "midi": 75,
          "time": 12.96873703124999,
          "velocity": 0.7874015748031497,
          "duration": 0.4196424375000003
        },
        {
          "name": "D6",
          "midi": 86,
          "time": 12.96873703124999,
          "velocity": 0.7874015748031497,
          "duration": 0.4196424375000003
        },
        {
          "name": "E6",
          "midi": 88,
          "time": 12.96873703124999,
          "velocity": 0.7874015748031497,
          "duration": 0.4196424375000003
        },
        {
          "name": "D7",
          "midi": 98,
          "time": 12.96873703124999,
          "velocity": 0.7874015748031497,
          "duration": 0.4196424375000003
        },
        {
          "name": "E7",
          "midi": 100,
          "time": 12.96873703124999,
          "velocity": 0.7874015748031497,
          "duration": 0.4196424375000003
        },
        {
          "name": "C#4",
          "midi": 61,
          "time": 13.39730803124999,
          "velocity": 0.7874015748031497,
          "duration": 0.4196424375000003
        },
        {
          "name": "C#5",
          "midi": 73,
          "time": 13.39730803124999,
          "velocity": 0.7874015748031497,
          "duration": 0.4196424375000003
        },
        {
          "name": "D5",
          "midi": 74,
          "time": 13.39730803124999,
          "velocity": 0.7874015748031497,
          "duration": 0.4196424375000003
        },
        {
          "name": "C#6",
          "midi": 85,
          "time": 13.39730803124999,
          "velocity": 0.7874015748031497,
          "duration": 0.4196424375000003
        },
        {
          "name": "D#6",
          "midi": 87,
          "time": 13.39730803124999,
          "velocity": 0.7874015748031497,
          "duration": 0.4196424375000003
        },
        {
          "name": "C#7",
          "midi": 97,
          "time": 13.39730803124999,
          "velocity": 0.7874015748031497,
          "duration": 0.4196424375000003
        },
        {
          "name": "D#7",
          "midi": 99,
          "time": 13.39730803124999,
          "velocity": 0.7874015748031497,
          "duration": 0.4196424375000003
        },
        {
          "name": "C4",
          "midi": 60,
          "time": 13.82587903124999,
          "velocity": 0.7874015748031497,
          "duration": 0.13392843749999983
        },
        {
          "name": "C5",
          "midi": 72,
          "time": 13.82587903124999,
          "velocity": 0.7874015748031497,
          "duration": 0.13392843749999983
        },
        {
          "name": "C6",
          "midi": 84,
          "time": 13.82587903124999,
          "velocity": 0.7874015748031497,
          "duration": 0.13392843749999983
        },
        {
          "name": "C7",
          "midi": 96,
          "time": 13.82587903124999,
          "velocity": 0.7874015748031497,
          "duration": 0.13392843749999983
        },
        {
          "name": "C6",
          "midi": 84,
          "time": 13.968736031249989,
          "velocity": 0.7874015748031497,
          "duration": 0.13392843749999983
        },
        {
          "name": "C7",
          "midi": 96,
          "time": 13.968736031249989,
          "velocity": 0.7874015748031497,
          "duration": 0.13392843749999983
        },
        {
          "name": "C4",
          "midi": 60,
          "time": 14.111593031249988,
          "velocity": 0.7874015748031497,
          "duration": 0.13482129375000085
        },
        {
          "name": "C5",
          "midi": 72,
          "time": 14.111593031249988,
          "velocity": 0.7874015748031497,
          "duration": 0.13482129375000085
        },
        {
          "name": "C6",
          "midi": 84,
          "time": 14.111593031249988,
          "velocity": 0.7874015748031497,
          "duration": 0.13482129375000085
        },
        {
          "name": "C7",
          "midi": 96,
          "time": 14.111593031249988,
          "velocity": 0.7874015748031497,
          "duration": 0.13482129375000085
        },
        {
          "name": "D4",
          "midi": 62,
          "time": 14.253557174999989,
          "velocity": 0.7874015748031497,
          "duration": 0.13482129375000085
        },
        {
          "name": "D5",
          "midi": 74,
          "time": 14.253557174999989,
          "velocity": 0.7874015748031497,
          "duration": 0.13482129375000085
        },
        {
          "name": "D6",
          "midi": 86,
          "time": 14.253557174999989,
          "velocity": 0.7874015748031497,
          "duration": 0.13482129375000085
        },
        {
          "name": "D7",
          "midi": 98,
          "time": 14.253557174999989,
          "velocity": 0.7874015748031497,
          "duration": 0.13482129375000085
        },
        {
          "name": "C#4",
          "midi": 61,
          "time": 14.397307031249989,
          "velocity": 0.7874015748031497,
          "duration": 0.13392843749999983
        },
        {
          "name": "C#5",
          "midi": 73,
          "time": 14.397307031249989,
          "velocity": 0.7874015748031497,
          "duration": 0.13392843749999983
        },
        {
          "name": "C#6",
          "midi": 85,
          "time": 14.397307031249989,
          "velocity": 0.7874015748031497,
          "duration": 0.13392843749999983
        },
        {
          "name": "C#7",
          "midi": 97,
          "time": 14.397307031249989,
          "velocity": 0.7874015748031497,
          "duration": 0.13392843749999983
        },
        {
          "name": "C4",
          "midi": 60,
          "time": 14.540164031249988,
          "velocity": 0.7874015748031497,
          "duration": 0.13392843749999983
        },
        {
          "name": "C5",
          "midi": 72,
          "time": 14.540164031249988,
          "velocity": 0.7874015748031497,
          "duration": 0.13392843749999983
        },
        {
          "name": "C6",
          "midi": 84,
          "time": 14.540164031249988,
          "velocity": 0.7874015748031497,
          "duration": 0.13392843749999983
        },
        {
          "name": "C7",
          "midi": 96,
          "time": 14.540164031249988,
          "velocity": 0.7874015748031497,
          "duration": 0.13392843749999983
        },
        {
          "name": "D4",
          "midi": 62,
          "time": 14.683021031249988,
          "velocity": 0.7874015748031497,
          "duration": 0.2767854374999974
        },
        {
          "name": "D#5",
          "midi": 75,
          "time": 14.683021031249988,
          "velocity": 0.7874015748031497,
          "duration": 0.2767854374999974
        },
        {
          "name": "E6",
          "midi": 88,
          "time": 14.683021031249988,
          "velocity": 0.7874015748031497,
          "duration": 0.2767854374999974
        },
        {
          "name": "D#7",
          "midi": 99,
          "time": 14.683021031249988,
          "velocity": 0.7874015748031497,
          "duration": 0.0633927937499994
        },
        {
          "name": "E7",
          "midi": 100,
          "time": 14.753556674999986,
          "velocity": 0.7874015748031497,
          "duration": 0.0633927937499994
        },
        {
          "name": "D#7",
          "midi": 99,
          "time": 14.825878031249985,
          "velocity": 0.7874015748031497,
          "duration": 0.13392843749999983
        },
        {
          "name": "D5",
          "midi": 74,
          "time": 14.968735031249985,
          "velocity": 0.7874015748031497,
          "duration": 0.13392843749999983
        },
        {
          "name": "D6",
          "midi": 86,
          "time": 14.968735031249985,
          "velocity": 0.7874015748031497,
          "duration": 0.13392843749999983
        },
        {
          "name": "D7",
          "midi": 98,
          "time": 14.968735031249985,
          "velocity": 0.7874015748031497,
          "duration": 0.13392843749999983
        },
        {
          "name": "D4",
          "midi": 62,
          "time": 15.111592031249984,
          "velocity": 0.7874015748031497,
          "duration": 0.13482129375000085
        },
        {
          "name": "D#5",
          "midi": 75,
          "time": 15.111592031249984,
          "velocity": 0.7874015748031497,
          "duration": 0.13482129375000085
        },
        {
          "name": "D#6",
          "midi": 87,
          "time": 15.111592031249984,
          "velocity": 0.7874015748031497,
          "duration": 0.13482129375000085
        },
        {
          "name": "D#7",
          "midi": 99,
          "time": 15.111592031249984,
          "velocity": 0.7874015748031497,
          "duration": 0.13482129375000085
        },
        {
          "name": "C#4",
          "midi": 61,
          "time": 15.253556174999984,
          "velocity": 0.7874015748031497,
          "duration": 0.13482129375000085
        },
        {
          "name": "D5",
          "midi": 74,
          "time": 15.253556174999984,
          "velocity": 0.7874015748031497,
          "duration": 0.13482129375000085
        },
        {
          "name": "D6",
          "midi": 86,
          "time": 15.253556174999984,
          "velocity": 0.7874015748031497,
          "duration": 0.13482129375000085
        },
        {
          "name": "D7",
          "midi": 98,
          "time": 15.253556174999984,
          "velocity": 0.7874015748031497,
          "duration": 0.13482129375000085
        },
        {
          "name": "C4",
          "midi": 60,
          "time": 15.397306031249984,
          "velocity": 0.7874015748031497,
          "duration": 0.13392843749999983
        },
        {
          "name": "C#5",
          "midi": 73,
          "time": 15.397306031249984,
          "velocity": 0.7874015748031497,
          "duration": 0.13392843749999983
        },
        {
          "name": "C#6",
          "midi": 85,
          "time": 15.397306031249984,
          "velocity": 0.7874015748031497,
          "duration": 0.13392843749999983
        },
        {
          "name": "C#7",
          "midi": 97,
          "time": 15.397306031249984,
          "velocity": 0.7874015748031497,
          "duration": 0.13392843749999983
        },
        {
          "name": "C5",
          "midi": 72,
          "time": 15.540163031249984,
          "velocity": 0.7874015748031497,
          "duration": 0.13392843749999983
        },
        {
          "name": "C6",
          "midi": 84,
          "time": 15.540163031249984,
          "velocity": 0.7874015748031497,
          "duration": 0.13392843749999983
        },
        {
          "name": "C7",
          "midi": 96,
          "time": 15.540163031249984,
          "velocity": 0.7874015748031497,
          "duration": 0.13392843749999983
        },
        {
          "name": "D4",
          "midi": 62,
          "time": 15.683020031249983,
          "velocity": 0.7874015748031497,
          "duration": 0.13392843749999983
        },
        {
          "name": "D5",
          "midi": 74,
          "time": 15.683020031249983,
          "velocity": 0.7874015748031497,
          "duration": 0.13392843749999983
        },
        {
          "name": "D#5",
          "midi": 75,
          "time": 15.683020031249983,
          "velocity": 0.7874015748031497,
          "duration": 0.13392843749999983
        },
        {
          "name": "D6",
          "midi": 86,
          "time": 15.683020031249983,
          "velocity": 0.7874015748031497,
          "duration": 0.13392843749999983
        },
        {
          "name": "E6",
          "midi": 88,
          "time": 15.683020031249983,
          "velocity": 0.7874015748031497,
          "duration": 0.13392843749999983
        },
        {
          "name": "D7",
          "midi": 98,
          "time": 15.683020031249983,
          "velocity": 0.7874015748031497,
          "duration": 0.13392843749999983
        },
        {
          "name": "E7",
          "midi": 100,
          "time": 15.683020031249983,
          "velocity": 0.7874015748031497,
          "duration": 0.13392843749999983
        },
        {
          "name": "D4",
          "midi": 62,
          "time": 15.968734031249983,
          "velocity": 0.7874015748031497,
          "duration": 0.4196424374999985
        },
        {
          "name": "D5",
          "midi": 74,
          "time": 15.968734031249983,
          "velocity": 0.7874015748031497,
          "duration": 0.4196424374999985
        },
        {
          "name": "D#5",
          "midi": 75,
          "time": 15.968734031249983,
          "velocity": 0.7874015748031497,
          "duration": 0.4196424374999985
        },
        {
          "name": "D6",
          "midi": 86,
          "time": 15.968734031249983,
          "velocity": 0.7874015748031497,
          "duration": 0.4196424374999985
        },
        {
          "name": "E6",
          "midi": 88,
          "time": 15.968734031249983,
          "velocity": 0.7874015748031497,
          "duration": 0.4196424374999985
        },
        {
          "name": "D7",
          "midi": 98,
          "time": 15.968734031249983,
          "velocity": 0.7874015748031497,
          "duration": 0.4196424374999985
        },
        {
          "name": "E7",
          "midi": 100,
          "time": 15.968734031249983,
          "velocity": 0.7874015748031497,
          "duration": 0.4196424374999985
        },
        {
          "name": "C4",
          "midi": 60,
          "time": 16.39730503124998,
          "velocity": 0.7874015748031497,
          "duration": 0.13392843749999983
        },
        {
          "name": "C5",
          "midi": 72,
          "time": 16.39730503124998,
          "velocity": 0.7874015748031497,
          "duration": 0.13392843749999983
        },
        {
          "name": "C6",
          "midi": 84,
          "time": 16.39730503124998,
          "velocity": 0.7874015748031497,
          "duration": 0.13392843749999983
        },
        {
          "name": "C7",
          "midi": 96,
          "time": 16.39730503124998,
          "velocity": 0.7874015748031497,
          "duration": 0.13392843749999983
        },
        {
          "name": "C#4",
          "midi": 61,
          "time": 16.54016203124998,
          "velocity": 0.7874015748031497,
          "duration": 0.13392843749999983
        },
        {
          "name": "C#5",
          "midi": 73,
          "time": 16.54016203124998,
          "velocity": 0.7874015748031497,
          "duration": 0.13392843749999983
        },
        {
          "name": "D5",
          "midi": 74,
          "time": 16.54016203124998,
          "velocity": 0.7874015748031497,
          "duration": 0.13392843749999983
        },
        {
          "name": "C#6",
          "midi": 85,
          "time": 16.54016203124998,
          "velocity": 0.7874015748031497,
          "duration": 0.13392843749999983
        },
        {
          "name": "D#6",
          "midi": 87,
          "time": 16.54016203124998,
          "velocity": 0.7874015748031497,
          "duration": 0.13392843749999983
        },
        {
          "name": "C#7",
          "midi": 97,
          "time": 16.54016203124998,
          "velocity": 0.7874015748031497,
          "duration": 0.13392843749999983
        },
        {
          "name": "D#7",
          "midi": 99,
          "time": 16.54016203124998,
          "velocity": 0.7874015748031497,
          "duration": 0.13392843749999983
        },
        {
          "name": "C#4",
          "midi": 61,
          "time": 16.82587603124998,
          "velocity": 0.7874015748031497,
          "duration": 0.42053529374999954
        },
        {
          "name": "C#5",
          "midi": 73,
          "time": 16.82587603124998,
          "velocity": 0.7874015748031497,
          "duration": 0.42053529374999954
        },
        {
          "name": "D5",
          "midi": 74,
          "time": 16.82587603124998,
          "velocity": 0.7874015748031497,
          "duration": 0.42053529374999954
        },
        {
          "name": "C#6",
          "midi": 85,
          "time": 16.82587603124998,
          "velocity": 0.7874015748031497,
          "duration": 0.42053529374999954
        },
        {
          "name": "D#6",
          "midi": 87,
          "time": 16.82587603124998,
          "velocity": 0.7874015748031497,
          "duration": 0.42053529374999954
        },
        {
          "name": "C#7",
          "midi": 97,
          "time": 16.82587603124998,
          "velocity": 0.7874015748031497,
          "duration": 0.42053529374999954
        },
        {
          "name": "D#7",
          "midi": 99,
          "time": 16.82587603124998,
          "velocity": 0.7874015748031497,
          "duration": 0.42053529374999954
        },
        {
          "name": "C4",
          "midi": 60,
          "time": 17.25355417499998,
          "velocity": 0.7874015748031497,
          "duration": 0.13482129375000085
        },
        {
          "name": "C5",
          "midi": 72,
          "time": 17.25355417499998,
          "velocity": 0.7874015748031497,
          "duration": 0.13482129375000085
        },
        {
          "name": "C6",
          "midi": 84,
          "time": 17.25355417499998,
          "velocity": 0.7874015748031497,
          "duration": 0.13482129375000085
        },
        {
          "name": "C7",
          "midi": 96,
          "time": 17.25355417499998,
          "velocity": 0.7874015748031497,
          "duration": 0.13482129375000085
        },
        {
          "name": "C6",
          "midi": 84,
          "time": 17.39730403124998,
          "velocity": 0.7874015748031497,
          "duration": 0.13392843749999983
        },
        {
          "name": "C7",
          "midi": 96,
          "time": 17.39730403124998,
          "velocity": 0.7874015748031497,
          "duration": 0.13392843749999983
        },
        {
          "name": "C4",
          "midi": 60,
          "time": 17.54016103124998,
          "velocity": 0.7874015748031497,
          "duration": 0.13392843749999983
        },
        {
          "name": "C5",
          "midi": 72,
          "time": 17.54016103124998,
          "velocity": 0.7874015748031497,
          "duration": 0.13392843749999983
        },
        {
          "name": "C6",
          "midi": 84,
          "time": 17.54016103124998,
          "velocity": 0.7874015748031497,
          "duration": 0.13392843749999983
        },
        {
          "name": "C7",
          "midi": 96,
          "time": 17.54016103124998,
          "velocity": 0.7874015748031497,
          "duration": 0.13392843749999983
        },
        {
          "name": "D4",
          "midi": 62,
          "time": 17.68301803124998,
          "velocity": 0.7874015748031497,
          "duration": 0.13392843749999983
        },
        {
          "name": "D5",
          "midi": 74,
          "time": 17.68301803124998,
          "velocity": 0.7874015748031497,
          "duration": 0.13392843749999983
        },
        {
          "name": "D6",
          "midi": 86,
          "time": 17.68301803124998,
          "velocity": 0.7874015748031497,
          "duration": 0.13392843749999983
        },
        {
          "name": "D7",
          "midi": 98,
          "time": 17.68301803124998,
          "velocity": 0.7874015748031497,
          "duration": 0.13392843749999983
        },
        {
          "name": "C#4",
          "midi": 61,
          "time": 17.82587503124998,
          "velocity": 0.7874015748031497,
          "duration": 0.13392843749999983
        },
        {
          "name": "C#5",
          "midi": 73,
          "time": 17.82587503124998,
          "velocity": 0.7874015748031497,
          "duration": 0.13392843749999983
        },
        {
          "name": "C#6",
          "midi": 85,
          "time": 17.82587503124998,
          "velocity": 0.7874015748031497,
          "duration": 0.13392843749999983
        },
        {
          "name": "C#7",
          "midi": 97,
          "time": 17.82587503124998,
          "velocity": 0.7874015748031497,
          "duration": 0.13392843749999983
        },
        {
          "name": "C4",
          "midi": 60,
          "time": 17.968732031249978,
          "velocity": 0.7874015748031497,
          "duration": 0.13392843749999983
        },
        {
          "name": "C5",
          "midi": 72,
          "time": 17.968732031249978,
          "velocity": 0.7874015748031497,
          "duration": 0.13392843749999983
        },
        {
          "name": "C6",
          "midi": 84,
          "time": 17.968732031249978,
          "velocity": 0.7874015748031497,
          "duration": 0.13392843749999983
        },
        {
          "name": "C7",
          "midi": 96,
          "time": 17.968732031249978,
          "velocity": 0.7874015748031497,
          "duration": 0.13392843749999983
        },
        {
          "name": "D4",
          "midi": 62,
          "time": 18.111589031249977,
          "velocity": 0.7874015748031497,
          "duration": 0.2767854374999992
        },
        {
          "name": "D#5",
          "midi": 75,
          "time": 18.111589031249977,
          "velocity": 0.7874015748031497,
          "duration": 0.2767854374999992
        },
        {
          "name": "E6",
          "midi": 88,
          "time": 18.111589031249977,
          "velocity": 0.7874015748031497,
          "duration": 0.2767854374999992
        },
        {
          "name": "D#7",
          "midi": 99,
          "time": 18.111589031249977,
          "velocity": 0.7874015748031497,
          "duration": 0.06249993750000016
        },
        {
          "name": "E7",
          "midi": 100,
          "time": 18.183017531249977,
          "velocity": 0.7874015748031497,
          "duration": 0.06339279375000118
        },
        {
          "name": "D#7",
          "midi": 99,
          "time": 18.254446031249977,
          "velocity": 0.7874015748031497,
          "duration": 0.13392843749999983
        },
        {
          "name": "D5",
          "midi": 74,
          "time": 18.397303031249976,
          "velocity": 0.7874015748031497,
          "duration": 0.13392843749999983
        },
        {
          "name": "D6",
          "midi": 86,
          "time": 18.397303031249976,
          "velocity": 0.7874015748031497,
          "duration": 0.13392843749999983
        },
        {
          "name": "D7",
          "midi": 98,
          "time": 18.397303031249976,
          "velocity": 0.7874015748031497,
          "duration": 0.13392843749999983
        },
        {
          "name": "D4",
          "midi": 62,
          "time": 18.540160031249975,
          "velocity": 0.7874015748031497,
          "duration": 0.13392843749999983
        },
        {
          "name": "D#5",
          "midi": 75,
          "time": 18.540160031249975,
          "velocity": 0.7874015748031497,
          "duration": 0.13392843749999983
        },
        {
          "name": "D#6",
          "midi": 87,
          "time": 18.540160031249975,
          "velocity": 0.7874015748031497,
          "duration": 0.13392843749999983
        },
        {
          "name": "D#7",
          "midi": 99,
          "time": 18.540160031249975,
          "velocity": 0.7874015748031497,
          "duration": 0.13392843749999983
        },
        {
          "name": "C#4",
          "midi": 61,
          "time": 18.683017031249975,
          "velocity": 0.7874015748031497,
          "duration": 0.13392843749999983
        },
        {
          "name": "D5",
          "midi": 74,
          "time": 18.683017031249975,
          "velocity": 0.7874015748031497,
          "duration": 0.13392843749999983
        },
        {
          "name": "D6",
          "midi": 86,
          "time": 18.683017031249975,
          "velocity": 0.7874015748031497,
          "duration": 0.13392843749999983
        },
        {
          "name": "D7",
          "midi": 98,
          "time": 18.683017031249975,
          "velocity": 0.7874015748031497,
          "duration": 0.13392843749999983
        },
        {
          "name": "C4",
          "midi": 60,
          "time": 18.825874031249974,
          "velocity": 0.7874015748031497,
          "duration": 0.13392843749999983
        },
        {
          "name": "C#5",
          "midi": 73,
          "time": 18.825874031249974,
          "velocity": 0.7874015748031497,
          "duration": 0.13392843749999983
        },
        {
          "name": "C#6",
          "midi": 85,
          "time": 18.825874031249974,
          "velocity": 0.7874015748031497,
          "duration": 0.13392843749999983
        },
        {
          "name": "C#7",
          "midi": 97,
          "time": 18.825874031249974,
          "velocity": 0.7874015748031497,
          "duration": 0.13392843749999983
        },
        {
          "name": "C5",
          "midi": 72,
          "time": 18.968731031249973,
          "velocity": 0.7874015748031497,
          "duration": 0.13392843749999983
        },
        {
          "name": "C6",
          "midi": 84,
          "time": 18.968731031249973,
          "velocity": 0.7874015748031497,
          "duration": 0.13392843749999983
        },
        {
          "name": "C7",
          "midi": 96,
          "time": 18.968731031249973,
          "velocity": 0.7874015748031497,
          "duration": 0.13392843749999983
        },
        {
          "name": "C6",
          "midi": 84,
          "time": 19.111588031249973,
          "velocity": 0.7874015748031497,
          "duration": 0.13482129375000085
        },
        {
          "name": "C7",
          "midi": 96,
          "time": 19.111588031249973,
          "velocity": 0.7874015748031497,
          "duration": 0.13482129375000085
        },
        {
          "name": "C4",
          "midi": 60,
          "time": 19.254445031249972,
          "velocity": 0.7874015748031497,
          "duration": 0.13392843749999983
        },
        {
          "name": "C5",
          "midi": 72,
          "time": 19.254445031249972,
          "velocity": 0.7874015748031497,
          "duration": 0.13392843749999983
        },
        {
          "name": "C6",
          "midi": 84,
          "time": 19.254445031249972,
          "velocity": 0.7874015748031497,
          "duration": 0.13392843749999983
        },
        {
          "name": "C7",
          "midi": 96,
          "time": 19.254445031249972,
          "velocity": 0.7874015748031497,
          "duration": 0.13392843749999983
        },
        {
          "name": "D4",
          "midi": 62,
          "time": 19.39730203124997,
          "velocity": 0.7874015748031497,
          "duration": 0.13392843749999983
        },
        {
          "name": "D5",
          "midi": 74,
          "time": 19.39730203124997,
          "velocity": 0.7874015748031497,
          "duration": 0.13392843749999983
        },
        {
          "name": "D6",
          "midi": 86,
          "time": 19.39730203124997,
          "velocity": 0.7874015748031497,
          "duration": 0.13392843749999983
        },
        {
          "name": "D7",
          "midi": 98,
          "time": 19.39730203124997,
          "velocity": 0.7874015748031497,
          "duration": 0.13392843749999983
        },
        {
          "name": "C#4",
          "midi": 61,
          "time": 19.54015903124997,
          "velocity": 0.7874015748031497,
          "duration": 0.13392843749999983
        },
        {
          "name": "C#5",
          "midi": 73,
          "time": 19.54015903124997,
          "velocity": 0.7874015748031497,
          "duration": 0.13392843749999983
        },
        {
          "name": "C#6",
          "midi": 85,
          "time": 19.54015903124997,
          "velocity": 0.7874015748031497,
          "duration": 0.13392843749999983
        },
        {
          "name": "C#7",
          "midi": 97,
          "time": 19.54015903124997,
          "velocity": 0.7874015748031497,
          "duration": 0.13392843749999983
        },
        {
          "name": "C4",
          "midi": 60,
          "time": 19.68301603124997,
          "velocity": 0.7874015748031497,
          "duration": 0.13392843749999983
        },
        {
          "name": "C5",
          "midi": 72,
          "time": 19.68301603124997,
          "velocity": 0.7874015748031497,
          "duration": 0.13392843749999983
        },
        {
          "name": "C6",
          "midi": 84,
          "time": 19.68301603124997,
          "velocity": 0.7874015748031497,
          "duration": 0.13392843749999983
        },
        {
          "name": "C7",
          "midi": 96,
          "time": 19.68301603124997,
          "velocity": 0.7874015748031497,
          "duration": 0.13392843749999983
        },
        {
          "name": "D4",
          "midi": 62,
          "time": 19.82587303124997,
          "velocity": 0.7874015748031497,
          "duration": 0.42053529374999954
        },
        {
          "name": "D5",
          "midi": 74,
          "time": 19.82587303124997,
          "velocity": 0.7874015748031497,
          "duration": 0.42053529374999954
        },
        {
          "name": "D#5",
          "midi": 75,
          "time": 19.82587303124997,
          "velocity": 0.7874015748031497,
          "duration": 0.42053529374999954
        },
        {
          "name": "D6",
          "midi": 86,
          "time": 19.82587303124997,
          "velocity": 0.7874015748031497,
          "duration": 0.42053529374999954
        },
        {
          "name": "E6",
          "midi": 88,
          "time": 19.82587303124997,
          "velocity": 0.7874015748031497,
          "duration": 0.42053529374999954
        },
        {
          "name": "D7",
          "midi": 98,
          "time": 19.82587303124997,
          "velocity": 0.7874015748031497,
          "duration": 0.42053529374999954
        },
        {
          "name": "E7",
          "midi": 100,
          "time": 19.82587303124997,
          "velocity": 0.7874015748031497,
          "duration": 0.42053529374999954
        },
        {
          "name": "C#4",
          "midi": 61,
          "time": 20.254444031249967,
          "velocity": 0.7874015748031497,
          "duration": 0.4196424374999985
        },
        {
          "name": "C#5",
          "midi": 73,
          "time": 20.254444031249967,
          "velocity": 0.7874015748031497,
          "duration": 0.4196424374999985
        },
        {
          "name": "D5",
          "midi": 74,
          "time": 20.254444031249967,
          "velocity": 0.7874015748031497,
          "duration": 0.4196424374999985
        },
        {
          "name": "C#6",
          "midi": 85,
          "time": 20.254444031249967,
          "velocity": 0.7874015748031497,
          "duration": 0.4196424374999985
        },
        {
          "name": "D#6",
          "midi": 87,
          "time": 20.254444031249967,
          "velocity": 0.7874015748031497,
          "duration": 0.4196424374999985
        },
        {
          "name": "C#7",
          "midi": 97,
          "time": 20.254444031249967,
          "velocity": 0.7874015748031497,
          "duration": 0.4196424374999985
        },
        {
          "name": "D#7",
          "midi": 99,
          "time": 20.254444031249967,
          "velocity": 0.7874015748031497,
          "duration": 0.4196424374999985
        },
        {
          "name": "C4",
          "midi": 60,
          "time": 20.683015031249965,
          "velocity": 0.7874015748031497,
          "duration": 0.13392843749999983
        },
        {
          "name": "C5",
          "midi": 72,
          "time": 20.683015031249965,
          "velocity": 0.7874015748031497,
          "duration": 0.13392843749999983
        },
        {
          "name": "C6",
          "midi": 84,
          "time": 20.683015031249965,
          "velocity": 0.7874015748031497,
          "duration": 0.13392843749999983
        },
        {
          "name": "C7",
          "midi": 96,
          "time": 20.683015031249965,
          "velocity": 0.7874015748031497,
          "duration": 0.13392843749999983
        },
        {
          "name": "C6",
          "midi": 84,
          "time": 20.825872031249965,
          "velocity": 0.7874015748031497,
          "duration": 0.13392843749999983
        },
        {
          "name": "C7",
          "midi": 96,
          "time": 20.825872031249965,
          "velocity": 0.7874015748031497,
          "duration": 0.13392843749999983
        },
        {
          "name": "C4",
          "midi": 60,
          "time": 20.968729031249964,
          "velocity": 0.7874015748031497,
          "duration": 0.13392843749999983
        },
        {
          "name": "C5",
          "midi": 72,
          "time": 20.968729031249964,
          "velocity": 0.7874015748031497,
          "duration": 0.13392843749999983
        },
        {
          "name": "C6",
          "midi": 84,
          "time": 20.968729031249964,
          "velocity": 0.7874015748031497,
          "duration": 0.13392843749999983
        },
        {
          "name": "C7",
          "midi": 96,
          "time": 20.968729031249964,
          "velocity": 0.7874015748031497,
          "duration": 0.13392843749999983
        },
        {
          "name": "D4",
          "midi": 62,
          "time": 21.111586031249963,
          "velocity": 0.7874015748031497,
          "duration": 0.13482129375000085
        },
        {
          "name": "D5",
          "midi": 74,
          "time": 21.111586031249963,
          "velocity": 0.7874015748031497,
          "duration": 0.13482129375000085
        },
        {
          "name": "D6",
          "midi": 86,
          "time": 21.111586031249963,
          "velocity": 0.7874015748031497,
          "duration": 0.13482129375000085
        },
        {
          "name": "D7",
          "midi": 98,
          "time": 21.111586031249963,
          "velocity": 0.7874015748031497,
          "duration": 0.13482129375000085
        },
        {
          "name": "C#4",
          "midi": 61,
          "time": 21.254443031249963,
          "velocity": 0.7874015748031497,
          "duration": 0.13392843749999983
        },
        {
          "name": "C#5",
          "midi": 73,
          "time": 21.254443031249963,
          "velocity": 0.7874015748031497,
          "duration": 0.13392843749999983
        },
        {
          "name": "C#6",
          "midi": 85,
          "time": 21.254443031249963,
          "velocity": 0.7874015748031497,
          "duration": 0.13392843749999983
        },
        {
          "name": "C#7",
          "midi": 97,
          "time": 21.254443031249963,
          "velocity": 0.7874015748031497,
          "duration": 0.13392843749999983
        },
        {
          "name": "C4",
          "midi": 60,
          "time": 21.397300031249962,
          "velocity": 0.7874015748031497,
          "duration": 0.13392843749999983
        },
        {
          "name": "C5",
          "midi": 72,
          "time": 21.397300031249962,
          "velocity": 0.7874015748031497,
          "duration": 0.13392843749999983
        },
        {
          "name": "C6",
          "midi": 84,
          "time": 21.397300031249962,
          "velocity": 0.7874015748031497,
          "duration": 0.13392843749999983
        },
        {
          "name": "C7",
          "midi": 96,
          "time": 21.397300031249962,
          "velocity": 0.7874015748031497,
          "duration": 0.13392843749999983
        },
        {
          "name": "D4",
          "midi": 62,
          "time": 21.54015703124996,
          "velocity": 0.7874015748031497,
          "duration": 0.2767854374999992
        },
        {
          "name": "D#5",
          "midi": 75,
          "time": 21.54015703124996,
          "velocity": 0.7874015748031497,
          "duration": 0.2767854374999992
        },
        {
          "name": "E6",
          "midi": 88,
          "time": 21.54015703124996,
          "velocity": 0.7874015748031497,
          "duration": 0.2767854374999992
        },
        {
          "name": "D#7",
          "midi": 99,
          "time": 21.54015703124996,
          "velocity": 0.7874015748031497,
          "duration": 0.06249993750000016
        },
        {
          "name": "E7",
          "midi": 100,
          "time": 21.61158553124996,
          "velocity": 0.7874015748031497,
          "duration": 0.06249993750000016
        },
        {
          "name": "D#7",
          "midi": 99,
          "time": 21.68301403124996,
          "velocity": 0.7874015748031497,
          "duration": 0.13392843749999983
        },
        {
          "name": "D5",
          "midi": 74,
          "time": 21.82587103124996,
          "velocity": 0.7874015748031497,
          "duration": 0.13392843749999983
        },
        {
          "name": "D6",
          "midi": 86,
          "time": 21.82587103124996,
          "velocity": 0.7874015748031497,
          "duration": 0.13392843749999983
        },
        {
          "name": "D7",
          "midi": 98,
          "time": 21.82587103124996,
          "velocity": 0.7874015748031497,
          "duration": 0.13392843749999983
        },
        {
          "name": "D4",
          "midi": 62,
          "time": 21.96872803124996,
          "velocity": 0.7874015748031497,
          "duration": 0.13392843749999983
        },
        {
          "name": "D#5",
          "midi": 75,
          "time": 21.96872803124996,
          "velocity": 0.7874015748031497,
          "duration": 0.13392843749999983
        },
        {
          "name": "D#6",
          "midi": 87,
          "time": 21.96872803124996,
          "velocity": 0.7874015748031497,
          "duration": 0.13392843749999983
        },
        {
          "name": "D#7",
          "midi": 99,
          "time": 21.96872803124996,
          "velocity": 0.7874015748031497,
          "duration": 0.13392843749999983
        },
        {
          "name": "C#4",
          "midi": 61,
          "time": 22.11158503124996,
          "velocity": 0.7874015748031497,
          "duration": 0.13482129375000085
        },
        {
          "name": "D5",
          "midi": 74,
          "time": 22.11158503124996,
          "velocity": 0.7874015748031497,
          "duration": 0.13482129375000085
        },
        {
          "name": "D6",
          "midi": 86,
          "time": 22.11158503124996,
          "velocity": 0.7874015748031497,
          "duration": 0.13482129375000085
        },
        {
          "name": "D7",
          "midi": 98,
          "time": 22.11158503124996,
          "velocity": 0.7874015748031497,
          "duration": 0.13482129375000085
        },
        {
          "name": "C4",
          "midi": 60,
          "time": 22.25444203124996,
          "velocity": 0.7874015748031497,
          "duration": 0.13392843749999983
        },
        {
          "name": "C#5",
          "midi": 73,
          "time": 22.25444203124996,
          "velocity": 0.7874015748031497,
          "duration": 0.13392843749999983
        },
        {
          "name": "C#6",
          "midi": 85,
          "time": 22.25444203124996,
          "velocity": 0.7874015748031497,
          "duration": 0.13392843749999983
        },
        {
          "name": "C#7",
          "midi": 97,
          "time": 22.25444203124996,
          "velocity": 0.7874015748031497,
          "duration": 0.13392843749999983
        },
        {
          "name": "C5",
          "midi": 72,
          "time": 22.397299031249958,
          "velocity": 0.7874015748031497,
          "duration": 0.13392843749999983
        },
        {
          "name": "C6",
          "midi": 84,
          "time": 22.397299031249958,
          "velocity": 0.7874015748031497,
          "duration": 0.13392843749999983
        },
        {
          "name": "C7",
          "midi": 96,
          "time": 22.397299031249958,
          "velocity": 0.7874015748031497,
          "duration": 0.13392843749999983
        },
        {
          "name": "D4",
          "midi": 62,
          "time": 22.540156031249957,
          "velocity": 0.7874015748031497,
          "duration": 0.13392843749999983
        },
        {
          "name": "D5",
          "midi": 74,
          "time": 22.540156031249957,
          "velocity": 0.7874015748031497,
          "duration": 0.13392843749999983
        },
        {
          "name": "D#5",
          "midi": 75,
          "time": 22.540156031249957,
          "velocity": 0.7874015748031497,
          "duration": 0.13392843749999983
        },
        {
          "name": "D6",
          "midi": 86,
          "time": 22.540156031249957,
          "velocity": 0.7874015748031497,
          "duration": 0.13392843749999983
        },
        {
          "name": "E6",
          "midi": 88,
          "time": 22.540156031249957,
          "velocity": 0.7874015748031497,
          "duration": 0.13392843749999983
        },
        {
          "name": "D7",
          "midi": 98,
          "time": 22.540156031249957,
          "velocity": 0.7874015748031497,
          "duration": 0.13392843749999983
        },
        {
          "name": "E7",
          "midi": 100,
          "time": 22.540156031249957,
          "velocity": 0.7874015748031497,
          "duration": 0.13392843749999983
        },
        {
          "name": "D4",
          "midi": 62,
          "time": 22.825870031249956,
          "velocity": 0.7874015748031497,
          "duration": 0.42053529374999954
        },
        {
          "name": "D5",
          "midi": 74,
          "time": 22.825870031249956,
          "velocity": 0.7874015748031497,
          "duration": 0.42053529374999954
        },
        {
          "name": "D#5",
          "midi": 75,
          "time": 22.825870031249956,
          "velocity": 0.7874015748031497,
          "duration": 0.42053529374999954
        },
        {
          "name": "D6",
          "midi": 86,
          "time": 22.825870031249956,
          "velocity": 0.7874015748031497,
          "duration": 0.42053529374999954
        },
        {
          "name": "E6",
          "midi": 88,
          "time": 22.825870031249956,
          "velocity": 0.7874015748031497,
          "duration": 0.42053529374999954
        },
        {
          "name": "D7",
          "midi": 98,
          "time": 22.825870031249956,
          "velocity": 0.7874015748031497,
          "duration": 0.42053529374999954
        },
        {
          "name": "E7",
          "midi": 100,
          "time": 22.825870031249956,
          "velocity": 0.7874015748031497,
          "duration": 0.42053529374999954
        },
        {
          "name": "C4",
          "midi": 60,
          "time": 23.254441031249954,
          "velocity": 0.7874015748031497,
          "duration": 0.13392843749999983
        },
        {
          "name": "C5",
          "midi": 72,
          "time": 23.254441031249954,
          "velocity": 0.7874015748031497,
          "duration": 0.13392843749999983
        },
        {
          "name": "C6",
          "midi": 84,
          "time": 23.254441031249954,
          "velocity": 0.7874015748031497,
          "duration": 0.13392843749999983
        },
        {
          "name": "C7",
          "midi": 96,
          "time": 23.254441031249954,
          "velocity": 0.7874015748031497,
          "duration": 0.13392843749999983
        },
        {
          "name": "C#4",
          "midi": 61,
          "time": 23.397298031249953,
          "velocity": 0.7874015748031497,
          "duration": 0.13392843749999983
        },
        {
          "name": "C#5",
          "midi": 73,
          "time": 23.397298031249953,
          "velocity": 0.7874015748031497,
          "duration": 0.13392843749999983
        },
        {
          "name": "D5",
          "midi": 74,
          "time": 23.397298031249953,
          "velocity": 0.7874015748031497,
          "duration": 0.13392843749999983
        },
        {
          "name": "C#6",
          "midi": 85,
          "time": 23.397298031249953,
          "velocity": 0.7874015748031497,
          "duration": 0.13392843749999983
        },
        {
          "name": "D#6",
          "midi": 87,
          "time": 23.397298031249953,
          "velocity": 0.7874015748031497,
          "duration": 0.13392843749999983
        },
        {
          "name": "C#7",
          "midi": 97,
          "time": 23.397298031249953,
          "velocity": 0.7874015748031497,
          "duration": 0.13392843749999983
        },
        {
          "name": "D#7",
          "midi": 99,
          "time": 23.397298031249953,
          "velocity": 0.7874015748031497,
          "duration": 0.13392843749999983
        },
        {
          "name": "C#4",
          "midi": 61,
          "time": 23.68301203124995,
          "velocity": 0.7874015748031497,
          "duration": 0.4196424374999985
        },
        {
          "name": "C#5",
          "midi": 73,
          "time": 23.68301203124995,
          "velocity": 0.7874015748031497,
          "duration": 0.4196424374999985
        },
        {
          "name": "D5",
          "midi": 74,
          "time": 23.68301203124995,
          "velocity": 0.7874015748031497,
          "duration": 0.4196424374999985
        },
        {
          "name": "C#6",
          "midi": 85,
          "time": 23.68301203124995,
          "velocity": 0.7874015748031497,
          "duration": 0.4196424374999985
        },
        {
          "name": "D#6",
          "midi": 87,
          "time": 23.68301203124995,
          "velocity": 0.7874015748031497,
          "duration": 0.4196424374999985
        },
        {
          "name": "C#7",
          "midi": 97,
          "time": 23.68301203124995,
          "velocity": 0.7874015748031497,
          "duration": 0.4196424374999985
        },
        {
          "name": "D#7",
          "midi": 99,
          "time": 23.68301203124995,
          "velocity": 0.7874015748031497,
          "duration": 0.4196424374999985
        },
        {
          "name": "D4",
          "midi": 62,
          "time": 24.11158303124995,
          "velocity": 0.7874015748031497,
          "duration": 0.4196424374999985
        },
        {
          "name": "D5",
          "midi": 74,
          "time": 24.11158303124995,
          "velocity": 0.7874015748031497,
          "duration": 0.4196424374999985
        },
        {
          "name": "D#5",
          "midi": 75,
          "time": 24.11158303124995,
          "velocity": 0.7874015748031497,
          "duration": 0.4196424374999985
        },
        {
          "name": "D6",
          "midi": 86,
          "time": 24.11158303124995,
          "velocity": 0.7874015748031497,
          "duration": 0.4196424374999985
        },
        {
          "name": "E6",
          "midi": 88,
          "time": 24.11158303124995,
          "velocity": 0.7874015748031497,
          "duration": 0.4196424374999985
        },
        {
          "name": "D7",
          "midi": 98,
          "time": 24.11158303124995,
          "velocity": 0.7874015748031497,
          "duration": 0.4196424374999985
        },
        {
          "name": "E7",
          "midi": 100,
          "time": 24.11158303124995,
          "velocity": 0.7874015748031497,
          "duration": 0.4196424374999985
        },
        {
          "name": "C#4",
          "midi": 61,
          "time": 24.540154031249948,
          "velocity": 0.7874015748031497,
          "duration": 0.13392843749999983
        },
        {
          "name": "D5",
          "midi": 74,
          "time": 24.540154031249948,
          "velocity": 0.7874015748031497,
          "duration": 0.13392843749999983
        },
        {
          "name": "D6",
          "midi": 86,
          "time": 24.540154031249948,
          "velocity": 0.7874015748031497,
          "duration": 0.13392843749999983
        },
        {
          "name": "D7",
          "midi": 98,
          "time": 24.540154031249948,
          "velocity": 0.7874015748031497,
          "duration": 0.13392843749999983
        },
        {
          "name": "D6",
          "midi": 86,
          "time": 24.683011031249947,
          "velocity": 0.7874015748031497,
          "duration": 0.13392843749999983
        },
        {
          "name": "D7",
          "midi": 98,
          "time": 24.683011031249947,
          "velocity": 0.7874015748031497,
          "duration": 0.13392843749999983
        },
        {
          "name": "C#4",
          "midi": 61,
          "time": 24.825868031249946,
          "velocity": 0.7874015748031497,
          "duration": 0.13392843749999983
        },
        {
          "name": "D5",
          "midi": 74,
          "time": 24.825868031249946,
          "velocity": 0.7874015748031497,
          "duration": 0.13392843749999983
        },
        {
          "name": "D6",
          "midi": 86,
          "time": 24.825868031249946,
          "velocity": 0.7874015748031497,
          "duration": 0.13392843749999983
        },
        {
          "name": "D7",
          "midi": 98,
          "time": 24.825868031249946,
          "velocity": 0.7874015748031497,
          "duration": 0.13392843749999983
        },
        {
          "name": "D4",
          "midi": 62,
          "time": 24.968725031249946,
          "velocity": 0.7874015748031497,
          "duration": 0.4196424374999985
        },
        {
          "name": "D5",
          "midi": 74,
          "time": 24.968725031249946,
          "velocity": 0.7874015748031497,
          "duration": 0.4196424374999985
        },
        {
          "name": "D#5",
          "midi": 75,
          "time": 24.968725031249946,
          "velocity": 0.7874015748031497,
          "duration": 0.4196424374999985
        },
        {
          "name": "D6",
          "midi": 86,
          "time": 24.968725031249946,
          "velocity": 0.7874015748031497,
          "duration": 0.4196424374999985
        },
        {
          "name": "E6",
          "midi": 88,
          "time": 24.968725031249946,
          "velocity": 0.7874015748031497,
          "duration": 0.4196424374999985
        },
        {
          "name": "D7",
          "midi": 98,
          "time": 24.968725031249946,
          "velocity": 0.7874015748031497,
          "duration": 0.4196424374999985
        },
        {
          "name": "E7",
          "midi": 100,
          "time": 24.968725031249946,
          "velocity": 0.7874015748031497,
          "duration": 0.4196424374999985
        },
        {
          "name": "C#4",
          "midi": 61,
          "time": 25.397296031249944,
          "velocity": 0.7874015748031497,
          "duration": 0.13392843749999983
        },
        {
          "name": "D5",
          "midi": 74,
          "time": 25.397296031249944,
          "velocity": 0.7874015748031497,
          "duration": 0.13392843749999983
        },
        {
          "name": "D6",
          "midi": 86,
          "time": 25.397296031249944,
          "velocity": 0.7874015748031497,
          "duration": 0.13392843749999983
        },
        {
          "name": "D7",
          "midi": 98,
          "time": 25.397296031249944,
          "velocity": 0.7874015748031497,
          "duration": 0.13392843749999983
        },
        {
          "name": "D6",
          "midi": 86,
          "time": 25.540153031249943,
          "velocity": 0.7874015748031497,
          "duration": 0.13392843749999983
        },
        {
          "name": "D7",
          "midi": 98,
          "time": 25.540153031249943,
          "velocity": 0.7874015748031497,
          "duration": 0.13392843749999983
        },
        {
          "name": "D4",
          "midi": 62,
          "time": 25.683010031249943,
          "velocity": 0.7874015748031497,
          "duration": 0.13392843749999983
        },
        {
          "name": "D5",
          "midi": 74,
          "time": 25.683010031249943,
          "velocity": 0.7874015748031497,
          "duration": 0.13392843749999983
        },
        {
          "name": "D6",
          "midi": 86,
          "time": 25.683010031249943,
          "velocity": 0.7874015748031497,
          "duration": 0.13392843749999983
        },
        {
          "name": "D7",
          "midi": 98,
          "time": 25.683010031249943,
          "velocity": 0.7874015748031497,
          "duration": 0.13392843749999983
        },
        {
          "name": "D4",
          "midi": 62,
          "time": 25.825867031249942,
          "velocity": 0.7874015748031497,
          "duration": 0.42053529374999954
        },
        {
          "name": "C#5",
          "midi": 73,
          "time": 25.825867031249942,
          "velocity": 0.7874015748031497,
          "duration": 0.42053529374999954
        },
        {
          "name": "D5",
          "midi": 74,
          "time": 25.825867031249942,
          "velocity": 0.7874015748031497,
          "duration": 0.42053529374999954
        },
        {
          "name": "C#6",
          "midi": 85,
          "time": 25.825867031249942,
          "velocity": 0.7874015748031497,
          "duration": 0.42053529374999954
        },
        {
          "name": "D#6",
          "midi": 87,
          "time": 25.825867031249942,
          "velocity": 0.7874015748031497,
          "duration": 0.42053529374999954
        },
        {
          "name": "C#7",
          "midi": 97,
          "time": 25.825867031249942,
          "velocity": 0.7874015748031497,
          "duration": 0.42053529374999954
        },
        {
          "name": "D#7",
          "midi": 99,
          "time": 25.825867031249942,
          "velocity": 0.7874015748031497,
          "duration": 0.42053529374999954
        },
        {
          "name": "C#4",
          "midi": 61,
          "time": 26.25443803124994,
          "velocity": 0.7874015748031497,
          "duration": 0.13392843749999983
        },
        {
          "name": "C#5",
          "midi": 73,
          "time": 26.25443803124994,
          "velocity": 0.7874015748031497,
          "duration": 0.13392843749999983
        },
        {
          "name": "C#6",
          "midi": 85,
          "time": 26.25443803124994,
          "velocity": 0.7874015748031497,
          "duration": 0.13392843749999983
        },
        {
          "name": "C#7",
          "midi": 97,
          "time": 26.25443803124994,
          "velocity": 0.7874015748031497,
          "duration": 0.13392843749999983
        },
        {
          "name": "C#6",
          "midi": 85,
          "time": 26.39729503124994,
          "velocity": 0.7874015748031497,
          "duration": 0.13392843749999983
        },
        {
          "name": "C#7",
          "midi": 97,
          "time": 26.39729503124994,
          "velocity": 0.7874015748031497,
          "duration": 0.13392843749999983
        },
        {
          "name": "C#4",
          "midi": 61,
          "time": 26.54015203124994,
          "velocity": 0.7874015748031497,
          "duration": 0.13392843749999983
        },
        {
          "name": "C#5",
          "midi": 73,
          "time": 26.54015203124994,
          "velocity": 0.7874015748031497,
          "duration": 0.13392843749999983
        },
        {
          "name": "C#6",
          "midi": 85,
          "time": 26.54015203124994,
          "velocity": 0.7874015748031497,
          "duration": 0.13392843749999983
        },
        {
          "name": "C#7",
          "midi": 97,
          "time": 26.54015203124994,
          "velocity": 0.7874015748031497,
          "duration": 0.13392843749999983
        },
        {
          "name": "D4",
          "midi": 62,
          "time": 26.683009031249938,
          "velocity": 0.7874015748031497,
          "duration": 0.4196424374999985
        },
        {
          "name": "C#5",
          "midi": 73,
          "time": 26.683009031249938,
          "velocity": 0.7874015748031497,
          "duration": 0.4196424374999985
        },
        {
          "name": "D5",
          "midi": 74,
          "time": 26.683009031249938,
          "velocity": 0.7874015748031497,
          "duration": 0.4196424374999985
        },
        {
          "name": "C#6",
          "midi": 85,
          "time": 26.683009031249938,
          "velocity": 0.7874015748031497,
          "duration": 0.4196424374999985
        },
        {
          "name": "D#6",
          "midi": 87,
          "time": 26.683009031249938,
          "velocity": 0.7874015748031497,
          "duration": 0.4196424374999985
        },
        {
          "name": "C#7",
          "midi": 97,
          "time": 26.683009031249938,
          "velocity": 0.7874015748031497,
          "duration": 0.4196424374999985
        },
        {
          "name": "D#7",
          "midi": 99,
          "time": 26.683009031249938,
          "velocity": 0.7874015748031497,
          "duration": 0.4196424374999985
        },
        {
          "name": "C#4",
          "midi": 61,
          "time": 27.111580031249936,
          "velocity": 0.7874015748031497,
          "duration": 0.13482129375000085
        },
        {
          "name": "C#5",
          "midi": 73,
          "time": 27.111580031249936,
          "velocity": 0.7874015748031497,
          "duration": 0.13482129375000085
        },
        {
          "name": "C#6",
          "midi": 85,
          "time": 27.111580031249936,
          "velocity": 0.7874015748031497,
          "duration": 0.13482129375000085
        },
        {
          "name": "C#7",
          "midi": 97,
          "time": 27.111580031249936,
          "velocity": 0.7874015748031497,
          "duration": 0.13482129375000085
        },
        {
          "name": "C#6",
          "midi": 85,
          "time": 27.254437031249935,
          "velocity": 0.7874015748031497,
          "duration": 0.13392843749999983
        },
        {
          "name": "C#7",
          "midi": 97,
          "time": 27.254437031249935,
          "velocity": 0.7874015748031497,
          "duration": 0.13392843749999983
        },
        {
          "name": "C#4",
          "midi": 61,
          "time": 27.397294031249935,
          "velocity": 0.7874015748031497,
          "duration": 0.13392843749999983
        },
        {
          "name": "C#5",
          "midi": 73,
          "time": 27.397294031249935,
          "velocity": 0.7874015748031497,
          "duration": 0.13392843749999983
        },
        {
          "name": "C#6",
          "midi": 85,
          "time": 27.397294031249935,
          "velocity": 0.7874015748031497,
          "duration": 0.13392843749999983
        },
        {
          "name": "C#7",
          "midi": 97,
          "time": 27.397294031249935,
          "velocity": 0.7874015748031497,
          "duration": 0.13392843749999983
        },
        {
          "name": "D4",
          "midi": 62,
          "time": 27.540151031249934,
          "velocity": 0.7874015748031497,
          "duration": 0.4196424374999985
        },
        {
          "name": "D5",
          "midi": 74,
          "time": 27.540151031249934,
          "velocity": 0.7874015748031497,
          "duration": 0.4196424374999985
        },
        {
          "name": "D#5",
          "midi": 75,
          "time": 27.540151031249934,
          "velocity": 0.7874015748031497,
          "duration": 0.4196424374999985
        },
        {
          "name": "D6",
          "midi": 86,
          "time": 27.540151031249934,
          "velocity": 0.7874015748031497,
          "duration": 0.4196424374999985
        },
        {
          "name": "E6",
          "midi": 88,
          "time": 27.540151031249934,
          "velocity": 0.7874015748031497,
          "duration": 0.4196424374999985
        },
        {
          "name": "D7",
          "midi": 98,
          "time": 27.540151031249934,
          "velocity": 0.7874015748031497,
          "duration": 0.4196424374999985
        },
        {
          "name": "E7",
          "midi": 100,
          "time": 27.540151031249934,
          "velocity": 0.7874015748031497,
          "duration": 0.4196424374999985
        },
        {
          "name": "D4",
          "midi": 62,
          "time": 27.968722031249932,
          "velocity": 0.7874015748031497,
          "duration": 0.13392843749999983
        },
        {
          "name": "D5",
          "midi": 74,
          "time": 27.968722031249932,
          "velocity": 0.7874015748031497,
          "duration": 0.13392843749999983
        },
        {
          "name": "D6",
          "midi": 86,
          "time": 27.968722031249932,
          "velocity": 0.7874015748031497,
          "duration": 0.13392843749999983
        },
        {
          "name": "D7",
          "midi": 98,
          "time": 27.968722031249932,
          "velocity": 0.7874015748031497,
          "duration": 0.13392843749999983
        },
        {
          "name": "D6",
          "midi": 86,
          "time": 28.11157903124993,
          "velocity": 0.7874015748031497,
          "duration": 0.13482129375000085
        },
        {
          "name": "D7",
          "midi": 98,
          "time": 28.11157903124993,
          "velocity": 0.7874015748031497,
          "duration": 0.13482129375000085
        },
        {
          "name": "C#4",
          "midi": 61,
          "time": 28.25443603124993,
          "velocity": 0.7874015748031497,
          "duration": 0.13392843749999983
        },
        {
          "name": "D5",
          "midi": 74,
          "time": 28.25443603124993,
          "velocity": 0.7874015748031497,
          "duration": 0.13392843749999983
        },
        {
          "name": "D6",
          "midi": 86,
          "time": 28.25443603124993,
          "velocity": 0.7874015748031497,
          "duration": 0.13392843749999983
        },
        {
          "name": "D7",
          "midi": 98,
          "time": 28.25443603124993,
          "velocity": 0.7874015748031497,
          "duration": 0.13392843749999983
        },
        {
          "name": "D4",
          "midi": 62,
          "time": 28.39729303124993,
          "velocity": 0.7874015748031497,
          "duration": 0.4196424374999985
        },
        {
          "name": "D5",
          "midi": 74,
          "time": 28.39729303124993,
          "velocity": 0.7874015748031497,
          "duration": 0.4196424374999985
        },
        {
          "name": "D#5",
          "midi": 75,
          "time": 28.39729303124993,
          "velocity": 0.7874015748031497,
          "duration": 0.4196424374999985
        },
        {
          "name": "D6",
          "midi": 86,
          "time": 28.39729303124993,
          "velocity": 0.7874015748031497,
          "duration": 0.4196424374999985
        },
        {
          "name": "E6",
          "midi": 88,
          "time": 28.39729303124993,
          "velocity": 0.7874015748031497,
          "duration": 0.4196424374999985
        },
        {
          "name": "D7",
          "midi": 98,
          "time": 28.39729303124993,
          "velocity": 0.7874015748031497,
          "duration": 0.4196424374999985
        },
        {
          "name": "E7",
          "midi": 100,
          "time": 28.39729303124993,
          "velocity": 0.7874015748031497,
          "duration": 0.4196424374999985
        },
        {
          "name": "C#4",
          "midi": 61,
          "time": 28.825864031249928,
          "velocity": 0.7874015748031497,
          "duration": 0.13392843749999983
        },
        {
          "name": "D5",
          "midi": 74,
          "time": 28.825864031249928,
          "velocity": 0.7874015748031497,
          "duration": 0.13392843749999983
        },
        {
          "name": "D6",
          "midi": 86,
          "time": 28.825864031249928,
          "velocity": 0.7874015748031497,
          "duration": 0.13392843749999983
        },
        {
          "name": "D7",
          "midi": 98,
          "time": 28.825864031249928,
          "velocity": 0.7874015748031497,
          "duration": 0.13392843749999983
        },
        {
          "name": "D6",
          "midi": 86,
          "time": 28.968721031249927,
          "velocity": 0.7874015748031497,
          "duration": 0.13392843749999983
        },
        {
          "name": "D7",
          "midi": 98,
          "time": 28.968721031249927,
          "velocity": 0.7874015748031497,
          "duration": 0.13392843749999983
        },
        {
          "name": "D4",
          "midi": 62,
          "time": 29.111578031249927,
          "velocity": 0.7874015748031497,
          "duration": 0.13482129375000085
        },
        {
          "name": "D5",
          "midi": 74,
          "time": 29.111578031249927,
          "velocity": 0.7874015748031497,
          "duration": 0.13482129375000085
        },
        {
          "name": "D6",
          "midi": 86,
          "time": 29.111578031249927,
          "velocity": 0.7874015748031497,
          "duration": 0.13482129375000085
        },
        {
          "name": "D7",
          "midi": 98,
          "time": 29.111578031249927,
          "velocity": 0.7874015748031497,
          "duration": 0.13482129375000085
        },
        {
          "name": "D4",
          "midi": 62,
          "time": 29.254435031249926,
          "velocity": 0.7874015748031497,
          "duration": 0.4196424374999985
        },
        {
          "name": "C#5",
          "midi": 73,
          "time": 29.254435031249926,
          "velocity": 0.7874015748031497,
          "duration": 0.4196424374999985
        },
        {
          "name": "D5",
          "midi": 74,
          "time": 29.254435031249926,
          "velocity": 0.7874015748031497,
          "duration": 0.4196424374999985
        },
        {
          "name": "C#6",
          "midi": 85,
          "time": 29.254435031249926,
          "velocity": 0.7874015748031497,
          "duration": 0.4196424374999985
        },
        {
          "name": "D#6",
          "midi": 87,
          "time": 29.254435031249926,
          "velocity": 0.7874015748031497,
          "duration": 0.4196424374999985
        },
        {
          "name": "C#7",
          "midi": 97,
          "time": 29.254435031249926,
          "velocity": 0.7874015748031497,
          "duration": 0.4196424374999985
        },
        {
          "name": "D#7",
          "midi": 99,
          "time": 29.254435031249926,
          "velocity": 0.7874015748031497,
          "duration": 0.4196424374999985
        },
        {
          "name": "C#4",
          "midi": 61,
          "time": 29.683006031249924,
          "velocity": 0.7874015748031497,
          "duration": 0.13392843749999983
        },
        {
          "name": "C#5",
          "midi": 73,
          "time": 29.683006031249924,
          "velocity": 0.7874015748031497,
          "duration": 0.13392843749999983
        },
        {
          "name": "C#6",
          "midi": 85,
          "time": 29.683006031249924,
          "velocity": 0.7874015748031497,
          "duration": 0.13392843749999983
        },
        {
          "name": "C#7",
          "midi": 97,
          "time": 29.683006031249924,
          "velocity": 0.7874015748031497,
          "duration": 0.13392843749999983
        },
        {
          "name": "C#6",
          "midi": 85,
          "time": 29.825863031249924,
          "velocity": 0.7874015748031497,
          "duration": 0.13392843749999983
        },
        {
          "name": "C#7",
          "midi": 97,
          "time": 29.825863031249924,
          "velocity": 0.7874015748031497,
          "duration": 0.13392843749999983
        },
        {
          "name": "C#4",
          "midi": 61,
          "time": 29.968720031249923,
          "velocity": 0.7874015748031497,
          "duration": 0.13392843749999983
        },
        {
          "name": "C#5",
          "midi": 73,
          "time": 29.968720031249923,
          "velocity": 0.7874015748031497,
          "duration": 0.13392843749999983
        },
        {
          "name": "C#6",
          "midi": 85,
          "time": 29.968720031249923,
          "velocity": 0.7874015748031497,
          "duration": 0.13392843749999983
        },
        {
          "name": "C#7",
          "midi": 97,
          "time": 29.968720031249923,
          "velocity": 0.7874015748031497,
          "duration": 0.13392843749999983
        },
        {
          "name": "D4",
          "midi": 62,
          "time": 30.111577031249922,
          "velocity": 0.7874015748031497,
          "duration": 0.4196424374999985
        },
        {
          "name": "C#5",
          "midi": 73,
          "time": 30.111577031249922,
          "velocity": 0.7874015748031497,
          "duration": 0.4196424374999985
        },
        {
          "name": "D5",
          "midi": 74,
          "time": 30.111577031249922,
          "velocity": 0.7874015748031497,
          "duration": 0.4196424374999985
        },
        {
          "name": "C#6",
          "midi": 85,
          "time": 30.111577031249922,
          "velocity": 0.7874015748031497,
          "duration": 0.4196424374999985
        },
        {
          "name": "D#6",
          "midi": 87,
          "time": 30.111577031249922,
          "velocity": 0.7874015748031497,
          "duration": 0.4196424374999985
        },
        {
          "name": "C#7",
          "midi": 97,
          "time": 30.111577031249922,
          "velocity": 0.7874015748031497,
          "duration": 0.4196424374999985
        },
        {
          "name": "D#7",
          "midi": 99,
          "time": 30.111577031249922,
          "velocity": 0.7874015748031497,
          "duration": 0.4196424374999985
        },
        {
          "name": "C#4",
          "midi": 61,
          "time": 30.54014803124992,
          "velocity": 0.7874015748031497,
          "duration": 0.13392843749999983
        },
        {
          "name": "C#5",
          "midi": 73,
          "time": 30.54014803124992,
          "velocity": 0.7874015748031497,
          "duration": 0.13392843749999983
        },
        {
          "name": "C#6",
          "midi": 85,
          "time": 30.54014803124992,
          "velocity": 0.7874015748031497,
          "duration": 0.13392843749999983
        },
        {
          "name": "C#7",
          "midi": 97,
          "time": 30.54014803124992,
          "velocity": 0.7874015748031497,
          "duration": 0.13392843749999983
        },
        {
          "name": "C#6",
          "midi": 85,
          "time": 30.68300503124992,
          "velocity": 0.7874015748031497,
          "duration": 0.13392843749999983
        },
        {
          "name": "C#7",
          "midi": 97,
          "time": 30.68300503124992,
          "velocity": 0.7874015748031497,
          "duration": 0.13392843749999983
        },
        {
          "name": "C#4",
          "midi": 61,
          "time": 30.82586203124992,
          "velocity": 0.7874015748031497,
          "duration": 0.13392843749999983
        },
        {
          "name": "C#5",
          "midi": 73,
          "time": 30.82586203124992,
          "velocity": 0.7874015748031497,
          "duration": 0.13392843749999983
        },
        {
          "name": "C#6",
          "midi": 85,
          "time": 30.82586203124992,
          "velocity": 0.7874015748031497,
          "duration": 0.13392843749999983
        },
        {
          "name": "C#7",
          "midi": 97,
          "time": 30.82586203124992,
          "velocity": 0.7874015748031497,
          "duration": 0.13392843749999983
        },
        {
          "name": "C#4",
          "midi": 61,
          "time": 30.96871903124992,
          "velocity": 0.7874015748031497,
          "duration": 0.4196424374999985
        },
        {
          "name": "C5",
          "midi": 72,
          "time": 30.96871903124992,
          "velocity": 0.7874015748031497,
          "duration": 0.4196424374999985
        },
        {
          "name": "C#5",
          "midi": 73,
          "time": 30.96871903124992,
          "velocity": 0.7874015748031497,
          "duration": 0.4196424374999985
        },
        {
          "name": "C6",
          "midi": 84,
          "time": 30.96871903124992,
          "velocity": 0.7874015748031497,
          "duration": 0.4196424374999985
        },
        {
          "name": "D6",
          "midi": 86,
          "time": 30.96871903124992,
          "velocity": 0.7874015748031497,
          "duration": 0.4196424374999985
        },
        {
          "name": "C7",
          "midi": 96,
          "time": 30.96871903124992,
          "velocity": 0.7874015748031497,
          "duration": 0.4196424374999985
        },
        {
          "name": "D7",
          "midi": 98,
          "time": 30.96871903124992,
          "velocity": 0.7874015748031497,
          "duration": 0.4196424374999985
        },
        {
          "name": "C4",
          "midi": 60,
          "time": 31.397290031249916,
          "velocity": 0.7874015748031497,
          "duration": 0.13392843749999983
        },
        {
          "name": "C5",
          "midi": 72,
          "time": 31.397290031249916,
          "velocity": 0.7874015748031497,
          "duration": 0.13392843749999983
        },
        {
          "name": "C6",
          "midi": 84,
          "time": 31.397290031249916,
          "velocity": 0.7874015748031497,
          "duration": 0.13392843749999983
        },
        {
          "name": "C7",
          "midi": 96,
          "time": 31.397290031249916,
          "velocity": 0.7874015748031497,
          "duration": 0.13392843749999983
        },
        {
          "name": "C6",
          "midi": 84,
          "time": 31.540147031249916,
          "velocity": 0.7874015748031497,
          "duration": 0.13392843749999983
        },
        {
          "name": "C7",
          "midi": 96,
          "time": 31.540147031249916,
          "velocity": 0.7874015748031497,
          "duration": 0.13392843749999983
        },
        {
          "name": "C4",
          "midi": 60,
          "time": 31.683004031249915,
          "velocity": 0.7874015748031497,
          "duration": 0.13392843749999983
        },
        {
          "name": "C5",
          "midi": 72,
          "time": 31.683004031249915,
          "velocity": 0.7874015748031497,
          "duration": 0.13392843749999983
        },
        {
          "name": "C6",
          "midi": 84,
          "time": 31.683004031249915,
          "velocity": 0.7874015748031497,
          "duration": 0.13392843749999983
        },
        {
          "name": "C7",
          "midi": 96,
          "time": 31.683004031249915,
          "velocity": 0.7874015748031497,
          "duration": 0.13392843749999983
        },
        {
          "name": "C#4",
          "midi": 61,
          "time": 31.825861031249914,
          "velocity": 0.7874015748031497,
          "duration": 0.42053529374999954
        },
        {
          "name": "C5",
          "midi": 72,
          "time": 31.825861031249914,
          "velocity": 0.7874015748031497,
          "duration": 0.42053529374999954
        },
        {
          "name": "C#5",
          "midi": 73,
          "time": 31.825861031249914,
          "velocity": 0.7874015748031497,
          "duration": 0.42053529374999954
        },
        {
          "name": "C6",
          "midi": 84,
          "time": 31.825861031249914,
          "velocity": 0.7874015748031497,
          "duration": 0.42053529374999954
        },
        {
          "name": "D6",
          "midi": 86,
          "time": 31.825861031249914,
          "velocity": 0.7874015748031497,
          "duration": 0.42053529374999954
        },
        {
          "name": "C7",
          "midi": 96,
          "time": 31.825861031249914,
          "velocity": 0.7874015748031497,
          "duration": 0.42053529374999954
        },
        {
          "name": "D7",
          "midi": 98,
          "time": 31.825861031249914,
          "velocity": 0.7874015748031497,
          "duration": 0.42053529374999954
        },
        {
          "name": "C4",
          "midi": 60,
          "time": 32.25443203124991,
          "velocity": 0.7874015748031497,
          "duration": 0.13392843750000338
        },
        {
          "name": "C5",
          "midi": 72,
          "time": 32.25443203124991,
          "velocity": 0.7874015748031497,
          "duration": 0.13392843750000338
        },
        {
          "name": "C6",
          "midi": 84,
          "time": 32.25443203124991,
          "velocity": 0.7874015748031497,
          "duration": 0.13392843750000338
        },
        {
          "name": "C7",
          "midi": 96,
          "time": 32.25443203124991,
          "velocity": 0.7874015748031497,
          "duration": 0.13392843750000338
        },
        {
          "name": "C6",
          "midi": 84,
          "time": 32.39728903124992,
          "velocity": 0.7874015748031497,
          "duration": 0.13392843750000338
        },
        {
          "name": "C7",
          "midi": 96,
          "time": 32.39728903124992,
          "velocity": 0.7874015748031497,
          "duration": 0.13392843750000338
        },
        {
          "name": "C4",
          "midi": 60,
          "time": 32.540146031249925,
          "velocity": 0.7874015748031497,
          "duration": 0.13392843750000338
        },
        {
          "name": "C5",
          "midi": 72,
          "time": 32.540146031249925,
          "velocity": 0.7874015748031497,
          "duration": 0.13392843750000338
        },
        {
          "name": "C6",
          "midi": 84,
          "time": 32.540146031249925,
          "velocity": 0.7874015748031497,
          "duration": 0.13392843750000338
        },
        {
          "name": "C7",
          "midi": 96,
          "time": 32.540146031249925,
          "velocity": 0.7874015748031497,
          "duration": 0.13392843750000338
        },
        {
          "name": "D4",
          "midi": 62,
          "time": 32.68300303124993,
          "velocity": 0.7874015748031497,
          "duration": 0.4196424375000021
        },
        {
          "name": "C#5",
          "midi": 73,
          "time": 32.68300303124993,
          "velocity": 0.7874015748031497,
          "duration": 0.4196424375000021
        },
        {
          "name": "D5",
          "midi": 74,
          "time": 32.68300303124993,
          "velocity": 0.7874015748031497,
          "duration": 0.4196424375000021
        },
        {
          "name": "C#6",
          "midi": 85,
          "time": 32.68300303124993,
          "velocity": 0.7874015748031497,
          "duration": 0.4196424375000021
        },
        {
          "name": "D#6",
          "midi": 87,
          "time": 32.68300303124993,
          "velocity": 0.7874015748031497,
          "duration": 0.4196424375000021
        },
        {
          "name": "C#7",
          "midi": 97,
          "time": 32.68300303124993,
          "velocity": 0.7874015748031497,
          "duration": 0.4196424375000021
        },
        {
          "name": "D#7",
          "midi": 99,
          "time": 32.68300303124993,
          "velocity": 0.7874015748031497,
          "duration": 0.4196424375000021
        },
        {
          "name": "C#4",
          "midi": 61,
          "time": 33.11157403124994,
          "velocity": 0.7874015748031497,
          "duration": 0.13482129375000085
        },
        {
          "name": "C#5",
          "midi": 73,
          "time": 33.11157403124994,
          "velocity": 0.7874015748031497,
          "duration": 0.13482129375000085
        },
        {
          "name": "C#6",
          "midi": 85,
          "time": 33.11157403124994,
          "velocity": 0.7874015748031497,
          "duration": 0.13482129375000085
        },
        {
          "name": "C#7",
          "midi": 97,
          "time": 33.11157403124994,
          "velocity": 0.7874015748031497,
          "duration": 0.13482129375000085
        },
        {
          "name": "C#6",
          "midi": 85,
          "time": 33.254431031249936,
          "velocity": 0.7874015748031497,
          "duration": 0.13392843750000338
        },
        {
          "name": "C#7",
          "midi": 97,
          "time": 33.254431031249936,
          "velocity": 0.7874015748031497,
          "duration": 0.13392843750000338
        },
        {
          "name": "C#4",
          "midi": 61,
          "time": 33.39728803124994,
          "velocity": 0.7874015748031497,
          "duration": 0.13392843750000338
        },
        {
          "name": "C#5",
          "midi": 73,
          "time": 33.39728803124994,
          "velocity": 0.7874015748031497,
          "duration": 0.13392843750000338
        },
        {
          "name": "C#6",
          "midi": 85,
          "time": 33.39728803124994,
          "velocity": 0.7874015748031497,
          "duration": 0.13392843750000338
        },
        {
          "name": "C#7",
          "midi": 97,
          "time": 33.39728803124994,
          "velocity": 0.7874015748031497,
          "duration": 0.13392843750000338
        },
        {
          "name": "D4",
          "midi": 62,
          "time": 33.54014503124995,
          "velocity": 0.7874015748031497,
          "duration": 0.4196424375000021
        },
        {
          "name": "C#5",
          "midi": 73,
          "time": 33.54014503124995,
          "velocity": 0.7874015748031497,
          "duration": 0.4196424375000021
        },
        {
          "name": "D5",
          "midi": 74,
          "time": 33.54014503124995,
          "velocity": 0.7874015748031497,
          "duration": 0.4196424375000021
        },
        {
          "name": "C#6",
          "midi": 85,
          "time": 33.54014503124995,
          "velocity": 0.7874015748031497,
          "duration": 0.4196424375000021
        },
        {
          "name": "D#6",
          "midi": 87,
          "time": 33.54014503124995,
          "velocity": 0.7874015748031497,
          "duration": 0.4196424375000021
        },
        {
          "name": "C#7",
          "midi": 97,
          "time": 33.54014503124995,
          "velocity": 0.7874015748031497,
          "duration": 0.4196424375000021
        },
        {
          "name": "D#7",
          "midi": 99,
          "time": 33.54014503124995,
          "velocity": 0.7874015748031497,
          "duration": 0.4196424375000021
        },
        {
          "name": "D4",
          "midi": 62,
          "time": 33.968716031249954,
          "velocity": 0.7874015748031497,
          "duration": 0.4196424375000021
        },
        {
          "name": "D5",
          "midi": 74,
          "time": 33.968716031249954,
          "velocity": 0.7874015748031497,
          "duration": 0.4196424375000021
        },
        {
          "name": "D#6",
          "midi": 87,
          "time": 33.968716031249954,
          "velocity": 0.7874015748031497,
          "duration": 0.4196424375000021
        },
        {
          "name": "E7",
          "midi": 100,
          "time": 33.968716031249954,
          "velocity": 0.7874015748031497,
          "duration": 0.04464281250000113
        },
        {
          "name": "D#7",
          "midi": 99,
          "time": 34.02228740624996,
          "velocity": 0.7874015748031497,
          "duration": 0.3660710624999979
        },
        {
          "name": "C4",
          "midi": 60,
          "time": 34.39728703124996,
          "velocity": 0.7874015748031497,
          "duration": 0.13392843750000338
        },
        {
          "name": "C5",
          "midi": 72,
          "time": 34.39728703124996,
          "velocity": 0.7874015748031497,
          "duration": 0.13392843750000338
        },
        {
          "name": "C6",
          "midi": 84,
          "time": 34.39728703124996,
          "velocity": 0.7874015748031497,
          "duration": 0.13392843750000338
        },
        {
          "name": "C7",
          "midi": 96,
          "time": 34.39728703124996,
          "velocity": 0.7874015748031497,
          "duration": 0.13392843750000338
        },
        {
          "name": "C6",
          "midi": 84,
          "time": 34.540144031249966,
          "velocity": 0.7874015748031497,
          "duration": 0.13392843750000338
        },
        {
          "name": "C7",
          "midi": 96,
          "time": 34.540144031249966,
          "velocity": 0.7874015748031497,
          "duration": 0.13392843750000338
        },
        {
          "name": "C4",
          "midi": 60,
          "time": 34.68300103124997,
          "velocity": 0.7874015748031497,
          "duration": 0.13392843750000338
        },
        {
          "name": "C5",
          "midi": 72,
          "time": 34.68300103124997,
          "velocity": 0.7874015748031497,
          "duration": 0.13392843750000338
        },
        {
          "name": "C6",
          "midi": 84,
          "time": 34.68300103124997,
          "velocity": 0.7874015748031497,
          "duration": 0.13392843750000338
        },
        {
          "name": "C7",
          "midi": 96,
          "time": 34.68300103124997,
          "velocity": 0.7874015748031497,
          "duration": 0.13392843750000338
        },
        {
          "name": "D4",
          "midi": 62,
          "time": 34.82585803124998,
          "velocity": 0.7874015748031497,
          "duration": 0.13392843750000338
        },
        {
          "name": "D5",
          "midi": 74,
          "time": 34.82585803124998,
          "velocity": 0.7874015748031497,
          "duration": 0.13392843750000338
        },
        {
          "name": "D6",
          "midi": 86,
          "time": 34.82585803124998,
          "velocity": 0.7874015748031497,
          "duration": 0.13392843750000338
        },
        {
          "name": "D7",
          "midi": 98,
          "time": 34.82585803124998,
          "velocity": 0.7874015748031497,
          "duration": 0.13392843750000338
        },
        {
          "name": "C#4",
          "midi": 61,
          "time": 34.968715031249985,
          "velocity": 0.7874015748031497,
          "duration": 0.13392843750000338
        },
        {
          "name": "C#5",
          "midi": 73,
          "time": 34.968715031249985,
          "velocity": 0.7874015748031497,
          "duration": 0.13392843750000338
        },
        {
          "name": "C#6",
          "midi": 85,
          "time": 34.968715031249985,
          "velocity": 0.7874015748031497,
          "duration": 0.13392843750000338
        },
        {
          "name": "C#7",
          "midi": 97,
          "time": 34.968715031249985,
          "velocity": 0.7874015748031497,
          "duration": 0.13392843750000338
        },
        {
          "name": "C4",
          "midi": 60,
          "time": 35.11157203124999,
          "velocity": 0.7874015748031497,
          "duration": 0.13482129375000085
        },
        {
          "name": "C5",
          "midi": 72,
          "time": 35.11157203124999,
          "velocity": 0.7874015748031497,
          "duration": 0.13482129375000085
        },
        {
          "name": "C6",
          "midi": 84,
          "time": 35.11157203124999,
          "velocity": 0.7874015748031497,
          "duration": 0.13482129375000085
        },
        {
          "name": "C7",
          "midi": 96,
          "time": 35.11157203124999,
          "velocity": 0.7874015748031497,
          "duration": 0.13482129375000085
        },
        {
          "name": "D4",
          "midi": 62,
          "time": 35.25442903124999,
          "velocity": 0.7874015748031497,
          "duration": 0.27678543750000983
        },
        {
          "name": "D#5",
          "midi": 75,
          "time": 35.25442903124999,
          "velocity": 0.7874015748031497,
          "duration": 0.27678543750000983
        },
        {
          "name": "E6",
          "midi": 88,
          "time": 35.25442903124999,
          "velocity": 0.7874015748031497,
          "duration": 0.27678543750000983
        },
        {
          "name": "D#7",
          "midi": 99,
          "time": 35.25442903124999,
          "velocity": 0.7874015748031497,
          "duration": 0.06249993750000016
        },
        {
          "name": "E7",
          "midi": 100,
          "time": 35.325857531249994,
          "velocity": 0.7874015748031497,
          "duration": 0.06249993750000016
        },
        {
          "name": "D#7",
          "midi": 99,
          "time": 35.39728603125,
          "velocity": 0.7874015748031497,
          "duration": 0.13392843750000338
        },
        {
          "name": "D5",
          "midi": 74,
          "time": 35.540143031250004,
          "velocity": 0.7874015748031497,
          "duration": 0.13392843750000338
        },
        {
          "name": "D6",
          "midi": 86,
          "time": 35.540143031250004,
          "velocity": 0.7874015748031497,
          "duration": 0.13392843750000338
        },
        {
          "name": "D7",
          "midi": 98,
          "time": 35.540143031250004,
          "velocity": 0.7874015748031497,
          "duration": 0.13392843750000338
        },
        {
          "name": "D4",
          "midi": 62,
          "time": 35.68300003125001,
          "velocity": 0.7874015748031497,
          "duration": 0.13392843750000338
        },
        {
          "name": "D#5",
          "midi": 75,
          "time": 35.68300003125001,
          "velocity": 0.7874015748031497,
          "duration": 0.13392843750000338
        },
        {
          "name": "D#6",
          "midi": 87,
          "time": 35.68300003125001,
          "velocity": 0.7874015748031497,
          "duration": 0.13392843750000338
        },
        {
          "name": "D#7",
          "midi": 99,
          "time": 35.68300003125001,
          "velocity": 0.7874015748031497,
          "duration": 0.13392843750000338
        },
        {
          "name": "C#4",
          "midi": 61,
          "time": 35.82585703125002,
          "velocity": 0.7874015748031497,
          "duration": 0.13392843750000338
        },
        {
          "name": "D5",
          "midi": 74,
          "time": 35.82585703125002,
          "velocity": 0.7874015748031497,
          "duration": 0.13392843750000338
        },
        {
          "name": "D6",
          "midi": 86,
          "time": 35.82585703125002,
          "velocity": 0.7874015748031497,
          "duration": 0.13392843750000338
        },
        {
          "name": "D7",
          "midi": 98,
          "time": 35.82585703125002,
          "velocity": 0.7874015748031497,
          "duration": 0.13392843750000338
        },
        {
          "name": "C4",
          "midi": 60,
          "time": 35.96871403125002,
          "velocity": 0.7874015748031497,
          "duration": 0.13392843750000338
        },
        {
          "name": "C#5",
          "midi": 73,
          "time": 35.96871403125002,
          "velocity": 0.7874015748031497,
          "duration": 0.13392843750000338
        },
        {
          "name": "C#6",
          "midi": 85,
          "time": 35.96871403125002,
          "velocity": 0.7874015748031497,
          "duration": 0.13392843750000338
        },
        {
          "name": "C#7",
          "midi": 97,
          "time": 35.96871403125002,
          "velocity": 0.7874015748031497,
          "duration": 0.13392843750000338
        },
        {
          "name": "C5",
          "midi": 72,
          "time": 36.11157103125003,
          "velocity": 0.7874015748031497,
          "duration": 0.1330355812499988
        },
        {
          "name": "C6",
          "midi": 84,
          "time": 36.11157103125003,
          "velocity": 0.7874015748031497,
          "duration": 0.1330355812499988
        },
        {
          "name": "C7",
          "midi": 96,
          "time": 36.11157103125003,
          "velocity": 0.7874015748031497,
          "duration": 0.1330355812499988
        },
        {
          "name": "D4",
          "midi": 62,
          "time": 36.25442803125003,
          "velocity": 0.7874015748031497,
          "duration": 0.13392843750000338
        },
        {
          "name": "D5",
          "midi": 74,
          "time": 36.25442803125003,
          "velocity": 0.7874015748031497,
          "duration": 0.13392843750000338
        },
        {
          "name": "D#5",
          "midi": 75,
          "time": 36.25442803125003,
          "velocity": 0.7874015748031497,
          "duration": 0.13392843750000338
        },
        {
          "name": "D6",
          "midi": 86,
          "time": 36.25442803125003,
          "velocity": 0.7874015748031497,
          "duration": 0.13392843750000338
        },
        {
          "name": "E6",
          "midi": 88,
          "time": 36.25442803125003,
          "velocity": 0.7874015748031497,
          "duration": 0.13392843750000338
        },
        {
          "name": "D7",
          "midi": 98,
          "time": 36.25442803125003,
          "velocity": 0.7874015748031497,
          "duration": 0.13392843750000338
        },
        {
          "name": "E7",
          "midi": 100,
          "time": 36.25442803125003,
          "velocity": 0.7874015748031497,
          "duration": 0.13392843750000338
        },
        {
          "name": "D4",
          "midi": 62,
          "time": 36.540142031250035,
          "velocity": 0.7874015748031497,
          "duration": 0.4196424375000021
        },
        {
          "name": "D5",
          "midi": 74,
          "time": 36.540142031250035,
          "velocity": 0.7874015748031497,
          "duration": 0.4196424375000021
        },
        {
          "name": "D#5",
          "midi": 75,
          "time": 36.540142031250035,
          "velocity": 0.7874015748031497,
          "duration": 0.4196424375000021
        },
        {
          "name": "D6",
          "midi": 86,
          "time": 36.540142031250035,
          "velocity": 0.7874015748031497,
          "duration": 0.4196424375000021
        },
        {
          "name": "E6",
          "midi": 88,
          "time": 36.540142031250035,
          "velocity": 0.7874015748031497,
          "duration": 0.4196424375000021
        },
        {
          "name": "D7",
          "midi": 98,
          "time": 36.540142031250035,
          "velocity": 0.7874015748031497,
          "duration": 0.4196424375000021
        },
        {
          "name": "E7",
          "midi": 100,
          "time": 36.540142031250035,
          "velocity": 0.7874015748031497,
          "duration": 0.4196424375000021
        },
        {
          "name": "C4",
          "midi": 60,
          "time": 36.96871303125004,
          "velocity": 0.7874015748031497,
          "duration": 0.13392843750000338
        },
        {
          "name": "C5",
          "midi": 72,
          "time": 36.96871303125004,
          "velocity": 0.7874015748031497,
          "duration": 0.13392843750000338
        },
        {
          "name": "C6",
          "midi": 84,
          "time": 36.96871303125004,
          "velocity": 0.7874015748031497,
          "duration": 0.13392843750000338
        },
        {
          "name": "C7",
          "midi": 96,
          "time": 36.96871303125004,
          "velocity": 0.7874015748031497,
          "duration": 0.13392843750000338
        },
        {
          "name": "C#4",
          "midi": 61,
          "time": 37.11157003125005,
          "velocity": 0.7874015748031497,
          "duration": 0.1330355812499988
        },
        {
          "name": "C#5",
          "midi": 73,
          "time": 37.11157003125005,
          "velocity": 0.7874015748031497,
          "duration": 0.1330355812499988
        },
        {
          "name": "D5",
          "midi": 74,
          "time": 37.11157003125005,
          "velocity": 0.7874015748031497,
          "duration": 0.1330355812499988
        },
        {
          "name": "C#6",
          "midi": 85,
          "time": 37.11157003125005,
          "velocity": 0.7874015748031497,
          "duration": 0.1330355812499988
        },
        {
          "name": "D#6",
          "midi": 87,
          "time": 37.11157003125005,
          "velocity": 0.7874015748031497,
          "duration": 0.1330355812499988
        },
        {
          "name": "C#7",
          "midi": 97,
          "time": 37.11157003125005,
          "velocity": 0.7874015748031497,
          "duration": 0.1330355812499988
        },
        {
          "name": "D#7",
          "midi": 99,
          "time": 37.11157003125005,
          "velocity": 0.7874015748031497,
          "duration": 0.1330355812499988
        },
        {
          "name": "C#4",
          "midi": 61,
          "time": 37.397284031250045,
          "velocity": 0.7874015748031497,
          "duration": 0.4196424375000021
        },
        {
          "name": "C#5",
          "midi": 73,
          "time": 37.397284031250045,
          "velocity": 0.7874015748031497,
          "duration": 0.4196424375000021
        },
        {
          "name": "D5",
          "midi": 74,
          "time": 37.397284031250045,
          "velocity": 0.7874015748031497,
          "duration": 0.4196424375000021
        },
        {
          "name": "C#6",
          "midi": 85,
          "time": 37.397284031250045,
          "velocity": 0.7874015748031497,
          "duration": 0.4196424375000021
        },
        {
          "name": "D#6",
          "midi": 87,
          "time": 37.397284031250045,
          "velocity": 0.7874015748031497,
          "duration": 0.4196424375000021
        },
        {
          "name": "C#7",
          "midi": 97,
          "time": 37.397284031250045,
          "velocity": 0.7874015748031497,
          "duration": 0.4196424375000021
        },
        {
          "name": "D#7",
          "midi": 99,
          "time": 37.397284031250045,
          "velocity": 0.7874015748031497,
          "duration": 0.4196424375000021
        },
        {
          "name": "D4",
          "midi": 62,
          "time": 37.82585503125005,
          "velocity": 0.7874015748031497,
          "duration": 0.4187495812499975
        },
        {
          "name": "D5",
          "midi": 74,
          "time": 37.82585503125005,
          "velocity": 0.7874015748031497,
          "duration": 0.4187495812499975
        },
        {
          "name": "D#5",
          "midi": 75,
          "time": 37.82585503125005,
          "velocity": 0.7874015748031497,
          "duration": 0.4187495812499975
        },
        {
          "name": "D6",
          "midi": 86,
          "time": 37.82585503125005,
          "velocity": 0.7874015748031497,
          "duration": 0.4187495812499975
        },
        {
          "name": "E6",
          "midi": 88,
          "time": 37.82585503125005,
          "velocity": 0.7874015748031497,
          "duration": 0.4187495812499975
        },
        {
          "name": "D7",
          "midi": 98,
          "time": 37.82585503125005,
          "velocity": 0.7874015748031497,
          "duration": 0.4187495812499975
        },
        {
          "name": "E7",
          "midi": 100,
          "time": 37.82585503125005,
          "velocity": 0.7874015748031497,
          "duration": 0.4187495812499975
        },
        {
          "name": "D4",
          "midi": 62,
          "time": 38.25442603125005,
          "velocity": 0.7874015748031497,
          "duration": 0.13392843750000338
        },
        {
          "name": "D5",
          "midi": 74,
          "time": 38.25442603125005,
          "velocity": 0.7874015748031497,
          "duration": 0.13392843750000338
        },
        {
          "name": "D6",
          "midi": 86,
          "time": 38.25442603125005,
          "velocity": 0.7874015748031497,
          "duration": 0.13392843750000338
        },
        {
          "name": "D7",
          "midi": 98,
          "time": 38.25442603125005,
          "velocity": 0.7874015748031497,
          "duration": 0.13392843750000338
        },
        {
          "name": "D6",
          "midi": 86,
          "time": 38.397283031250055,
          "velocity": 0.7874015748031497,
          "duration": 0.13392843750000338
        },
        {
          "name": "D7",
          "midi": 98,
          "time": 38.397283031250055,
          "velocity": 0.7874015748031497,
          "duration": 0.13392843750000338
        },
        {
          "name": "C#4",
          "midi": 61,
          "time": 38.54014003125006,
          "velocity": 0.7874015748031497,
          "duration": 0.13392843750000338
        },
        {
          "name": "D5",
          "midi": 74,
          "time": 38.54014003125006,
          "velocity": 0.7874015748031497,
          "duration": 0.13392843750000338
        },
        {
          "name": "D6",
          "midi": 86,
          "time": 38.54014003125006,
          "velocity": 0.7874015748031497,
          "duration": 0.13392843750000338
        },
        {
          "name": "D7",
          "midi": 98,
          "time": 38.54014003125006,
          "velocity": 0.7874015748031497,
          "duration": 0.13392843750000338
        },
        {
          "name": "D4",
          "midi": 62,
          "time": 38.68299703125007,
          "velocity": 0.7874015748031497,
          "duration": 0.4196424375000021
        },
        {
          "name": "D5",
          "midi": 74,
          "time": 38.68299703125007,
          "velocity": 0.7874015748031497,
          "duration": 0.4196424375000021
        },
        {
          "name": "D#5",
          "midi": 75,
          "time": 38.68299703125007,
          "velocity": 0.7874015748031497,
          "duration": 0.4196424375000021
        },
        {
          "name": "D6",
          "midi": 86,
          "time": 38.68299703125007,
          "velocity": 0.7874015748031497,
          "duration": 0.4196424375000021
        },
        {
          "name": "E6",
          "midi": 88,
          "time": 38.68299703125007,
          "velocity": 0.7874015748031497,
          "duration": 0.4196424375000021
        },
        {
          "name": "D7",
          "midi": 98,
          "time": 38.68299703125007,
          "velocity": 0.7874015748031497,
          "duration": 0.4196424375000021
        },
        {
          "name": "E7",
          "midi": 100,
          "time": 38.68299703125007,
          "velocity": 0.7874015748031497,
          "duration": 0.4196424375000021
        },
        {
          "name": "C#4",
          "midi": 61,
          "time": 39.11156803125007,
          "velocity": 0.7874015748031497,
          "duration": 0.1330355812499988
        },
        {
          "name": "D5",
          "midi": 74,
          "time": 39.11156803125007,
          "velocity": 0.7874015748031497,
          "duration": 0.1330355812499988
        },
        {
          "name": "D6",
          "midi": 86,
          "time": 39.11156803125007,
          "velocity": 0.7874015748031497,
          "duration": 0.1330355812499988
        },
        {
          "name": "D7",
          "midi": 98,
          "time": 39.11156803125007,
          "velocity": 0.7874015748031497,
          "duration": 0.1330355812499988
        },
        {
          "name": "D6",
          "midi": 86,
          "time": 39.25442503125007,
          "velocity": 0.7874015748031497,
          "duration": 0.13392843750000338
        },
        {
          "name": "D7",
          "midi": 98,
          "time": 39.25442503125007,
          "velocity": 0.7874015748031497,
          "duration": 0.13392843750000338
        },
        {
          "name": "D4",
          "midi": 62,
          "time": 39.39728203125008,
          "velocity": 0.7874015748031497,
          "duration": 0.13392843750000338
        },
        {
          "name": "D5",
          "midi": 74,
          "time": 39.39728203125008,
          "velocity": 0.7874015748031497,
          "duration": 0.13392843750000338
        },
        {
          "name": "D6",
          "midi": 86,
          "time": 39.39728203125008,
          "velocity": 0.7874015748031497,
          "duration": 0.13392843750000338
        },
        {
          "name": "D7",
          "midi": 98,
          "time": 39.39728203125008,
          "velocity": 0.7874015748031497,
          "duration": 0.13392843750000338
        },
        {
          "name": "D4",
          "midi": 62,
          "time": 39.540139031250085,
          "velocity": 0.7874015748031497,
          "duration": 0.4196424375000021
        },
        {
          "name": "C#5",
          "midi": 73,
          "time": 39.540139031250085,
          "velocity": 0.7874015748031497,
          "duration": 0.4196424375000021
        },
        {
          "name": "D5",
          "midi": 74,
          "time": 39.540139031250085,
          "velocity": 0.7874015748031497,
          "duration": 0.4196424375000021
        },
        {
          "name": "C#6",
          "midi": 85,
          "time": 39.540139031250085,
          "velocity": 0.7874015748031497,
          "duration": 0.4196424375000021
        },
        {
          "name": "D#6",
          "midi": 87,
          "time": 39.540139031250085,
          "velocity": 0.7874015748031497,
          "duration": 0.4196424375000021
        },
        {
          "name": "C#7",
          "midi": 97,
          "time": 39.540139031250085,
          "velocity": 0.7874015748031497,
          "duration": 0.4196424375000021
        },
        {
          "name": "D#7",
          "midi": 99,
          "time": 39.540139031250085,
          "velocity": 0.7874015748031497,
          "duration": 0.4196424375000021
        },
        {
          "name": "C#4",
          "midi": 61,
          "time": 39.96871003125009,
          "velocity": 0.7874015748031497,
          "duration": 0.13392843750000338
        },
        {
          "name": "C#5",
          "midi": 73,
          "time": 39.96871003125009,
          "velocity": 0.7874015748031497,
          "duration": 0.13392843750000338
        },
        {
          "name": "C#6",
          "midi": 85,
          "time": 39.96871003125009,
          "velocity": 0.7874015748031497,
          "duration": 0.13392843750000338
        },
        {
          "name": "C#7",
          "midi": 97,
          "time": 39.96871003125009,
          "velocity": 0.7874015748031497,
          "duration": 0.13392843750000338
        },
        {
          "name": "C#6",
          "midi": 85,
          "time": 40.1115670312501,
          "velocity": 0.7874015748031497,
          "duration": 0.1330355812499988
        },
        {
          "name": "C#7",
          "midi": 97,
          "time": 40.1115670312501,
          "velocity": 0.7874015748031497,
          "duration": 0.1330355812499988
        },
        {
          "name": "C#4",
          "midi": 61,
          "time": 40.254424031250096,
          "velocity": 0.7874015748031497,
          "duration": 0.13392843750000338
        },
        {
          "name": "C#5",
          "midi": 73,
          "time": 40.254424031250096,
          "velocity": 0.7874015748031497,
          "duration": 0.13392843750000338
        },
        {
          "name": "C#6",
          "midi": 85,
          "time": 40.254424031250096,
          "velocity": 0.7874015748031497,
          "duration": 0.13392843750000338
        },
        {
          "name": "C#7",
          "midi": 97,
          "time": 40.254424031250096,
          "velocity": 0.7874015748031497,
          "duration": 0.13392843750000338
        },
        {
          "name": "D4",
          "midi": 62,
          "time": 40.3972810312501,
          "velocity": 0.7874015748031497,
          "duration": 0.4196424375000021
        },
        {
          "name": "C#5",
          "midi": 73,
          "time": 40.3972810312501,
          "velocity": 0.7874015748031497,
          "duration": 0.4196424375000021
        },
        {
          "name": "D5",
          "midi": 74,
          "time": 40.3972810312501,
          "velocity": 0.7874015748031497,
          "duration": 0.4196424375000021
        },
        {
          "name": "C#6",
          "midi": 85,
          "time": 40.3972810312501,
          "velocity": 0.7874015748031497,
          "duration": 0.4196424375000021
        },
        {
          "name": "D#6",
          "midi": 87,
          "time": 40.3972810312501,
          "velocity": 0.7874015748031497,
          "duration": 0.4196424375000021
        },
        {
          "name": "C#7",
          "midi": 97,
          "time": 40.3972810312501,
          "velocity": 0.7874015748031497,
          "duration": 0.4196424375000021
        },
        {
          "name": "D#7",
          "midi": 99,
          "time": 40.3972810312501,
          "velocity": 0.7874015748031497,
          "duration": 0.4196424375000021
        },
        {
          "name": "C#4",
          "midi": 61,
          "time": 40.82585203125011,
          "velocity": 0.7874015748031497,
          "duration": 0.13392843750000338
        },
        {
          "name": "C#5",
          "midi": 73,
          "time": 40.82585203125011,
          "velocity": 0.7874015748031497,
          "duration": 0.13392843750000338
        },
        {
          "name": "C#6",
          "midi": 85,
          "time": 40.82585203125011,
          "velocity": 0.7874015748031497,
          "duration": 0.13392843750000338
        },
        {
          "name": "C#7",
          "midi": 97,
          "time": 40.82585203125011,
          "velocity": 0.7874015748031497,
          "duration": 0.13392843750000338
        },
        {
          "name": "C#6",
          "midi": 85,
          "time": 40.968709031250114,
          "velocity": 0.7874015748031497,
          "duration": 0.13392843750000338
        },
        {
          "name": "C#7",
          "midi": 97,
          "time": 40.968709031250114,
          "velocity": 0.7874015748031497,
          "duration": 0.13392843750000338
        },
        {
          "name": "C#4",
          "midi": 61,
          "time": 41.11156603125012,
          "velocity": 0.7874015748031497,
          "duration": 0.1330355812499988
        },
        {
          "name": "C#5",
          "midi": 73,
          "time": 41.11156603125012,
          "velocity": 0.7874015748031497,
          "duration": 0.1330355812499988
        },
        {
          "name": "C#6",
          "midi": 85,
          "time": 41.11156603125012,
          "velocity": 0.7874015748031497,
          "duration": 0.1330355812499988
        },
        {
          "name": "C#7",
          "midi": 97,
          "time": 41.11156603125012,
          "velocity": 0.7874015748031497,
          "duration": 0.1330355812499988
        },
        {
          "name": "D4",
          "midi": 62,
          "time": 41.25442303125012,
          "velocity": 0.7874015748031497,
          "duration": 0.4196424375000021
        },
        {
          "name": "D5",
          "midi": 74,
          "time": 41.25442303125012,
          "velocity": 0.7874015748031497,
          "duration": 0.4196424375000021
        },
        {
          "name": "D#5",
          "midi": 75,
          "time": 41.25442303125012,
          "velocity": 0.7874015748031497,
          "duration": 0.4196424375000021
        },
        {
          "name": "D6",
          "midi": 86,
          "time": 41.25442303125012,
          "velocity": 0.7874015748031497,
          "duration": 0.4196424375000021
        },
        {
          "name": "E6",
          "midi": 88,
          "time": 41.25442303125012,
          "velocity": 0.7874015748031497,
          "duration": 0.4196424375000021
        },
        {
          "name": "D7",
          "midi": 98,
          "time": 41.25442303125012,
          "velocity": 0.7874015748031497,
          "duration": 0.4196424375000021
        },
        {
          "name": "E7",
          "midi": 100,
          "time": 41.25442303125012,
          "velocity": 0.7874015748031497,
          "duration": 0.4196424375000021
        },
        {
          "name": "D4",
          "midi": 62,
          "time": 41.682994031250125,
          "velocity": 0.7874015748031497,
          "duration": 0.13392843750000338
        },
        {
          "name": "D5",
          "midi": 74,
          "time": 41.682994031250125,
          "velocity": 0.7874015748031497,
          "duration": 0.13392843750000338
        },
        {
          "name": "D6",
          "midi": 86,
          "time": 41.682994031250125,
          "velocity": 0.7874015748031497,
          "duration": 0.13392843750000338
        },
        {
          "name": "D7",
          "midi": 98,
          "time": 41.682994031250125,
          "velocity": 0.7874015748031497,
          "duration": 0.13392843750000338
        },
        {
          "name": "D6",
          "midi": 86,
          "time": 41.82585103125013,
          "velocity": 0.7874015748031497,
          "duration": 0.13392843750000338
        },
        {
          "name": "D7",
          "midi": 98,
          "time": 41.82585103125013,
          "velocity": 0.7874015748031497,
          "duration": 0.13392843750000338
        },
        {
          "name": "C#4",
          "midi": 61,
          "time": 41.96870803125014,
          "velocity": 0.7874015748031497,
          "duration": 0.13392843750000338
        },
        {
          "name": "D5",
          "midi": 74,
          "time": 41.96870803125014,
          "velocity": 0.7874015748031497,
          "duration": 0.13392843750000338
        },
        {
          "name": "D6",
          "midi": 86,
          "time": 41.96870803125014,
          "velocity": 0.7874015748031497,
          "duration": 0.13392843750000338
        },
        {
          "name": "D7",
          "midi": 98,
          "time": 41.96870803125014,
          "velocity": 0.7874015748031497,
          "duration": 0.13392843750000338
        },
        {
          "name": "D4",
          "midi": 62,
          "time": 42.111565031250144,
          "velocity": 0.7874015748031497,
          "duration": 0.4196424375000021
        },
        {
          "name": "D5",
          "midi": 74,
          "time": 42.111565031250144,
          "velocity": 0.7874015748031497,
          "duration": 0.4196424375000021
        },
        {
          "name": "D#5",
          "midi": 75,
          "time": 42.111565031250144,
          "velocity": 0.7874015748031497,
          "duration": 0.4196424375000021
        },
        {
          "name": "D6",
          "midi": 86,
          "time": 42.111565031250144,
          "velocity": 0.7874015748031497,
          "duration": 0.4196424375000021
        },
        {
          "name": "E6",
          "midi": 88,
          "time": 42.111565031250144,
          "velocity": 0.7874015748031497,
          "duration": 0.4196424375000021
        },
        {
          "name": "D7",
          "midi": 98,
          "time": 42.111565031250144,
          "velocity": 0.7874015748031497,
          "duration": 0.4196424375000021
        },
        {
          "name": "E7",
          "midi": 100,
          "time": 42.111565031250144,
          "velocity": 0.7874015748031497,
          "duration": 0.4196424375000021
        },
        {
          "name": "C#4",
          "midi": 61,
          "time": 42.54013603125015,
          "velocity": 0.7874015748031497,
          "duration": 0.13392843750000338
        },
        {
          "name": "D5",
          "midi": 74,
          "time": 42.54013603125015,
          "velocity": 0.7874015748031497,
          "duration": 0.13392843750000338
        },
        {
          "name": "D6",
          "midi": 86,
          "time": 42.54013603125015,
          "velocity": 0.7874015748031497,
          "duration": 0.13392843750000338
        },
        {
          "name": "D7",
          "midi": 98,
          "time": 42.54013603125015,
          "velocity": 0.7874015748031497,
          "duration": 0.13392843750000338
        },
        {
          "name": "D6",
          "midi": 86,
          "time": 42.682993031250156,
          "velocity": 0.7874015748031497,
          "duration": 0.13392843750000338
        },
        {
          "name": "D7",
          "midi": 98,
          "time": 42.682993031250156,
          "velocity": 0.7874015748031497,
          "duration": 0.13392843750000338
        },
        {
          "name": "D4",
          "midi": 62,
          "time": 42.82585003125016,
          "velocity": 0.7874015748031497,
          "duration": 0.13392843750000338
        },
        {
          "name": "D5",
          "midi": 74,
          "time": 42.82585003125016,
          "velocity": 0.7874015748031497,
          "duration": 0.13392843750000338
        },
        {
          "name": "D6",
          "midi": 86,
          "time": 42.82585003125016,
          "velocity": 0.7874015748031497,
          "duration": 0.13392843750000338
        },
        {
          "name": "D7",
          "midi": 98,
          "time": 42.82585003125016,
          "velocity": 0.7874015748031497,
          "duration": 0.13392843750000338
        },
        {
          "name": "D4",
          "midi": 62,
          "time": 42.96870703125017,
          "velocity": 0.7874015748031497,
          "duration": 0.4196424375000021
        },
        {
          "name": "C#5",
          "midi": 73,
          "time": 42.96870703125017,
          "velocity": 0.7874015748031497,
          "duration": 0.4196424375000021
        },
        {
          "name": "D5",
          "midi": 74,
          "time": 42.96870703125017,
          "velocity": 0.7874015748031497,
          "duration": 0.4196424375000021
        },
        {
          "name": "C#6",
          "midi": 85,
          "time": 42.96870703125017,
          "velocity": 0.7874015748031497,
          "duration": 0.4196424375000021
        },
        {
          "name": "D#6",
          "midi": 87,
          "time": 42.96870703125017,
          "velocity": 0.7874015748031497,
          "duration": 0.4196424375000021
        },
        {
          "name": "C#7",
          "midi": 97,
          "time": 42.96870703125017,
          "velocity": 0.7874015748031497,
          "duration": 0.4196424375000021
        },
        {
          "name": "D#7",
          "midi": 99,
          "time": 42.96870703125017,
          "velocity": 0.7874015748031497,
          "duration": 0.4196424375000021
        },
        {
          "name": "C#4",
          "midi": 61,
          "time": 43.397278031250174,
          "velocity": 0.7874015748031497,
          "duration": 0.13392843750000338
        },
        {
          "name": "C#5",
          "midi": 73,
          "time": 43.397278031250174,
          "velocity": 0.7874015748031497,
          "duration": 0.13392843750000338
        },
        {
          "name": "C#6",
          "midi": 85,
          "time": 43.397278031250174,
          "velocity": 0.7874015748031497,
          "duration": 0.13392843750000338
        },
        {
          "name": "C#7",
          "midi": 97,
          "time": 43.397278031250174,
          "velocity": 0.7874015748031497,
          "duration": 0.13392843750000338
        },
        {
          "name": "C#6",
          "midi": 85,
          "time": 43.54013503125018,
          "velocity": 0.7874015748031497,
          "duration": 0.13392843750000338
        },
        {
          "name": "C#7",
          "midi": 97,
          "time": 43.54013503125018,
          "velocity": 0.7874015748031497,
          "duration": 0.13392843750000338
        },
        {
          "name": "C#4",
          "midi": 61,
          "time": 43.68299203125019,
          "velocity": 0.7874015748031497,
          "duration": 0.13392843750000338
        },
        {
          "name": "C#5",
          "midi": 73,
          "time": 43.68299203125019,
          "velocity": 0.7874015748031497,
          "duration": 0.13392843750000338
        },
        {
          "name": "C#6",
          "midi": 85,
          "time": 43.68299203125019,
          "velocity": 0.7874015748031497,
          "duration": 0.13392843750000338
        },
        {
          "name": "C#7",
          "midi": 97,
          "time": 43.68299203125019,
          "velocity": 0.7874015748031497,
          "duration": 0.13392843750000338
        },
        {
          "name": "D4",
          "midi": 62,
          "time": 43.82584903125019,
          "velocity": 0.7874015748031497,
          "duration": 0.4187495812499975
        },
        {
          "name": "C#5",
          "midi": 73,
          "time": 43.82584903125019,
          "velocity": 0.7874015748031497,
          "duration": 0.4187495812499975
        },
        {
          "name": "D5",
          "midi": 74,
          "time": 43.82584903125019,
          "velocity": 0.7874015748031497,
          "duration": 0.4187495812499975
        },
        {
          "name": "C#6",
          "midi": 85,
          "time": 43.82584903125019,
          "velocity": 0.7874015748031497,
          "duration": 0.4187495812499975
        },
        {
          "name": "D#6",
          "midi": 87,
          "time": 43.82584903125019,
          "velocity": 0.7874015748031497,
          "duration": 0.4187495812499975
        },
        {
          "name": "C#7",
          "midi": 97,
          "time": 43.82584903125019,
          "velocity": 0.7874015748031497,
          "duration": 0.4187495812499975
        },
        {
          "name": "D#7",
          "midi": 99,
          "time": 43.82584903125019,
          "velocity": 0.7874015748031497,
          "duration": 0.4187495812499975
        },
        {
          "name": "C#4",
          "midi": 61,
          "time": 44.25442003125019,
          "velocity": 0.7874015748031497,
          "duration": 0.13392843750000338
        },
        {
          "name": "C#5",
          "midi": 73,
          "time": 44.25442003125019,
          "velocity": 0.7874015748031497,
          "duration": 0.13392843750000338
        },
        {
          "name": "C#6",
          "midi": 85,
          "time": 44.25442003125019,
          "velocity": 0.7874015748031497,
          "duration": 0.13392843750000338
        },
        {
          "name": "C#7",
          "midi": 97,
          "time": 44.25442003125019,
          "velocity": 0.7874015748031497,
          "duration": 0.13392843750000338
        },
        {
          "name": "C#6",
          "midi": 85,
          "time": 44.3972770312502,
          "velocity": 0.7874015748031497,
          "duration": 0.13392843750000338
        },
        {
          "name": "C#7",
          "midi": 97,
          "time": 44.3972770312502,
          "velocity": 0.7874015748031497,
          "duration": 0.13392843750000338
        },
        {
          "name": "C#4",
          "midi": 61,
          "time": 44.540134031250204,
          "velocity": 0.7874015748031497,
          "duration": 0.13392843750000338
        },
        {
          "name": "C#5",
          "midi": 73,
          "time": 44.540134031250204,
          "velocity": 0.7874015748031497,
          "duration": 0.13392843750000338
        },
        {
          "name": "C#6",
          "midi": 85,
          "time": 44.540134031250204,
          "velocity": 0.7874015748031497,
          "duration": 0.13392843750000338
        },
        {
          "name": "C#7",
          "midi": 97,
          "time": 44.540134031250204,
          "velocity": 0.7874015748031497,
          "duration": 0.13392843750000338
        },
        {
          "name": "C#4",
          "midi": 61,
          "time": 44.68299103125021,
          "velocity": 0.7874015748031497,
          "duration": 0.4196424375000021
        },
        {
          "name": "C5",
          "midi": 72,
          "time": 44.68299103125021,
          "velocity": 0.7874015748031497,
          "duration": 0.4196424375000021
        },
        {
          "name": "C#5",
          "midi": 73,
          "time": 44.68299103125021,
          "velocity": 0.7874015748031497,
          "duration": 0.4196424375000021
        },
        {
          "name": "C6",
          "midi": 84,
          "time": 44.68299103125021,
          "velocity": 0.7874015748031497,
          "duration": 0.4196424375000021
        },
        {
          "name": "D6",
          "midi": 86,
          "time": 44.68299103125021,
          "velocity": 0.7874015748031497,
          "duration": 0.4196424375000021
        },
        {
          "name": "C7",
          "midi": 96,
          "time": 44.68299103125021,
          "velocity": 0.7874015748031497,
          "duration": 0.4196424375000021
        },
        {
          "name": "D7",
          "midi": 98,
          "time": 44.68299103125021,
          "velocity": 0.7874015748031497,
          "duration": 0.4196424375000021
        },
        {
          "name": "C4",
          "midi": 60,
          "time": 45.111562031250216,
          "velocity": 0.7874015748031497,
          "duration": 0.1330355812499988
        },
        {
          "name": "C5",
          "midi": 72,
          "time": 45.111562031250216,
          "velocity": 0.7874015748031497,
          "duration": 0.1330355812499988
        },
        {
          "name": "C6",
          "midi": 84,
          "time": 45.111562031250216,
          "velocity": 0.7874015748031497,
          "duration": 0.1330355812499988
        },
        {
          "name": "C7",
          "midi": 96,
          "time": 45.111562031250216,
          "velocity": 0.7874015748031497,
          "duration": 0.1330355812499988
        },
        {
          "name": "C6",
          "midi": 84,
          "time": 45.254419031250215,
          "velocity": 0.7874015748031497,
          "duration": 0.13392843750000338
        },
        {
          "name": "C7",
          "midi": 96,
          "time": 45.254419031250215,
          "velocity": 0.7874015748031497,
          "duration": 0.13392843750000338
        },
        {
          "name": "C4",
          "midi": 60,
          "time": 45.39727603125022,
          "velocity": 0.7874015748031497,
          "duration": 0.13392843750000338
        },
        {
          "name": "C5",
          "midi": 72,
          "time": 45.39727603125022,
          "velocity": 0.7874015748031497,
          "duration": 0.13392843750000338
        },
        {
          "name": "C6",
          "midi": 84,
          "time": 45.39727603125022,
          "velocity": 0.7874015748031497,
          "duration": 0.13392843750000338
        },
        {
          "name": "C7",
          "midi": 96,
          "time": 45.39727603125022,
          "velocity": 0.7874015748031497,
          "duration": 0.13392843750000338
        },
        {
          "name": "C#4",
          "midi": 61,
          "time": 45.54013303125023,
          "velocity": 0.7874015748031497,
          "duration": 0.4196424375000021
        },
        {
          "name": "C5",
          "midi": 72,
          "time": 45.54013303125023,
          "velocity": 0.7874015748031497,
          "duration": 0.4196424375000021
        },
        {
          "name": "C#5",
          "midi": 73,
          "time": 45.54013303125023,
          "velocity": 0.7874015748031497,
          "duration": 0.4196424375000021
        },
        {
          "name": "C6",
          "midi": 84,
          "time": 45.54013303125023,
          "velocity": 0.7874015748031497,
          "duration": 0.4196424375000021
        },
        {
          "name": "D6",
          "midi": 86,
          "time": 45.54013303125023,
          "velocity": 0.7874015748031497,
          "duration": 0.4196424375000021
        },
        {
          "name": "C7",
          "midi": 96,
          "time": 45.54013303125023,
          "velocity": 0.7874015748031497,
          "duration": 0.4196424375000021
        },
        {
          "name": "D7",
          "midi": 98,
          "time": 45.54013303125023,
          "velocity": 0.7874015748031497,
          "duration": 0.4196424375000021
        },
        {
          "name": "C4",
          "midi": 60,
          "time": 45.96870403125023,
          "velocity": 0.7874015748031497,
          "duration": 0.13392843750000338
        },
        {
          "name": "C5",
          "midi": 72,
          "time": 45.96870403125023,
          "velocity": 0.7874015748031497,
          "duration": 0.13392843750000338
        },
        {
          "name": "C6",
          "midi": 84,
          "time": 45.96870403125023,
          "velocity": 0.7874015748031497,
          "duration": 0.13392843750000338
        },
        {
          "name": "C7",
          "midi": 96,
          "time": 45.96870403125023,
          "velocity": 0.7874015748031497,
          "duration": 0.13392843750000338
        },
        {
          "name": "C6",
          "midi": 84,
          "time": 46.11156103125024,
          "velocity": 0.7874015748031497,
          "duration": 0.1330355812499988
        },
        {
          "name": "C7",
          "midi": 96,
          "time": 46.11156103125024,
          "velocity": 0.7874015748031497,
          "duration": 0.1330355812499988
        },
        {
          "name": "C4",
          "midi": 60,
          "time": 46.25441803125024,
          "velocity": 0.7874015748031497,
          "duration": 0.13392843750000338
        },
        {
          "name": "C5",
          "midi": 72,
          "time": 46.25441803125024,
          "velocity": 0.7874015748031497,
          "duration": 0.13392843750000338
        },
        {
          "name": "C6",
          "midi": 84,
          "time": 46.25441803125024,
          "velocity": 0.7874015748031497,
          "duration": 0.13392843750000338
        },
        {
          "name": "C7",
          "midi": 96,
          "time": 46.25441803125024,
          "velocity": 0.7874015748031497,
          "duration": 0.13392843750000338
        },
        {
          "name": "D4",
          "midi": 62,
          "time": 46.397275031250246,
          "velocity": 0.7874015748031497,
          "duration": 0.4196424375000021
        },
        {
          "name": "C#5",
          "midi": 73,
          "time": 46.397275031250246,
          "velocity": 0.7874015748031497,
          "duration": 0.4196424375000021
        },
        {
          "name": "D5",
          "midi": 74,
          "time": 46.397275031250246,
          "velocity": 0.7874015748031497,
          "duration": 0.4196424375000021
        },
        {
          "name": "C#6",
          "midi": 85,
          "time": 46.397275031250246,
          "velocity": 0.7874015748031497,
          "duration": 0.4196424375000021
        },
        {
          "name": "D#6",
          "midi": 87,
          "time": 46.397275031250246,
          "velocity": 0.7874015748031497,
          "duration": 0.4196424375000021
        },
        {
          "name": "C#7",
          "midi": 97,
          "time": 46.397275031250246,
          "velocity": 0.7874015748031497,
          "duration": 0.4196424375000021
        },
        {
          "name": "D#7",
          "midi": 99,
          "time": 46.397275031250246,
          "velocity": 0.7874015748031497,
          "duration": 0.4196424375000021
        },
        {
          "name": "C#4",
          "midi": 61,
          "time": 46.82584603125025,
          "velocity": 0.7874015748031497,
          "duration": 0.13392843750000338
        },
        {
          "name": "C#5",
          "midi": 73,
          "time": 46.82584603125025,
          "velocity": 0.7874015748031497,
          "duration": 0.13392843750000338
        },
        {
          "name": "C#6",
          "midi": 85,
          "time": 46.82584603125025,
          "velocity": 0.7874015748031497,
          "duration": 0.13392843750000338
        },
        {
          "name": "C#7",
          "midi": 97,
          "time": 46.82584603125025,
          "velocity": 0.7874015748031497,
          "duration": 0.13392843750000338
        },
        {
          "name": "C#6",
          "midi": 85,
          "time": 46.96870303125026,
          "velocity": 0.7874015748031497,
          "duration": 0.13392843750000338
        },
        {
          "name": "C#7",
          "midi": 97,
          "time": 46.96870303125026,
          "velocity": 0.7874015748031497,
          "duration": 0.13392843750000338
        },
        {
          "name": "C#4",
          "midi": 61,
          "time": 47.111560031250264,
          "velocity": 0.7874015748031497,
          "duration": 0.1330355812499988
        },
        {
          "name": "C#5",
          "midi": 73,
          "time": 47.111560031250264,
          "velocity": 0.7874015748031497,
          "duration": 0.1330355812499988
        },
        {
          "name": "C#6",
          "midi": 85,
          "time": 47.111560031250264,
          "velocity": 0.7874015748031497,
          "duration": 0.1330355812499988
        },
        {
          "name": "C#7",
          "midi": 97,
          "time": 47.111560031250264,
          "velocity": 0.7874015748031497,
          "duration": 0.1330355812499988
        },
        {
          "name": "D4",
          "midi": 62,
          "time": 47.25441703125026,
          "velocity": 0.7874015748031497,
          "duration": 0.4196424375000021
        },
        {
          "name": "C#5",
          "midi": 73,
          "time": 47.25441703125026,
          "velocity": 0.7874015748031497,
          "duration": 0.4196424375000021
        },
        {
          "name": "D5",
          "midi": 74,
          "time": 47.25441703125026,
          "velocity": 0.7874015748031497,
          "duration": 0.4196424375000021
        },
        {
          "name": "C#6",
          "midi": 85,
          "time": 47.25441703125026,
          "velocity": 0.7874015748031497,
          "duration": 0.4196424375000021
        },
        {
          "name": "D#6",
          "midi": 87,
          "time": 47.25441703125026,
          "velocity": 0.7874015748031497,
          "duration": 0.4196424375000021
        },
        {
          "name": "C#7",
          "midi": 97,
          "time": 47.25441703125026,
          "velocity": 0.7874015748031497,
          "duration": 0.4196424375000021
        },
        {
          "name": "D#7",
          "midi": 99,
          "time": 47.25441703125026,
          "velocity": 0.7874015748031497,
          "duration": 0.4196424375000021
        },
        {
          "name": "D4",
          "midi": 62,
          "time": 47.68298803125027,
          "velocity": 0.7874015748031497,
          "duration": 0.4196424375000021
        },
        {
          "name": "D5",
          "midi": 74,
          "time": 47.68298803125027,
          "velocity": 0.7874015748031497,
          "duration": 0.4196424375000021
        },
        {
          "name": "D#6",
          "midi": 87,
          "time": 47.68298803125027,
          "velocity": 0.7874015748031497,
          "duration": 0.4196424375000021
        },
        {
          "name": "E7",
          "midi": 100,
          "time": 47.68298803125027,
          "velocity": 0.7874015748031497,
          "duration": 0.04464281250000113
        },
        {
          "name": "D#7",
          "midi": 99,
          "time": 47.73655940625027,
          "velocity": 0.7874015748031497,
          "duration": 0.3660710624999979
        },
        {
          "name": "C4",
          "midi": 60,
          "time": 48.11155903125027,
          "velocity": 0.7874015748031497,
          "duration": 0.1330355812499988
        },
        {
          "name": "C5",
          "midi": 72,
          "time": 48.11155903125027,
          "velocity": 0.7874015748031497,
          "duration": 0.1330355812499988
        },
        {
          "name": "C6",
          "midi": 84,
          "time": 48.11155903125027,
          "velocity": 0.7874015748031497,
          "duration": 0.1330355812499988
        },
        {
          "name": "C7",
          "midi": 96,
          "time": 48.11155903125027,
          "velocity": 0.7874015748031497,
          "duration": 0.1330355812499988
        },
        {
          "name": "C6",
          "midi": 84,
          "time": 48.25441603125027,
          "velocity": 0.7874015748031497,
          "duration": 0.13392843750000338
        },
        {
          "name": "C7",
          "midi": 96,
          "time": 48.25441603125027,
          "velocity": 0.7874015748031497,
          "duration": 0.13392843750000338
        },
        {
          "name": "C4",
          "midi": 60,
          "time": 48.39727303125028,
          "velocity": 0.7874015748031497,
          "duration": 0.13392843750000338
        },
        {
          "name": "C5",
          "midi": 72,
          "time": 48.39727303125028,
          "velocity": 0.7874015748031497,
          "duration": 0.13392843750000338
        },
        {
          "name": "C6",
          "midi": 84,
          "time": 48.39727303125028,
          "velocity": 0.7874015748031497,
          "duration": 0.13392843750000338
        },
        {
          "name": "C7",
          "midi": 96,
          "time": 48.39727303125028,
          "velocity": 0.7874015748031497,
          "duration": 0.13392843750000338
        },
        {
          "name": "D4",
          "midi": 62,
          "time": 48.540130031250285,
          "velocity": 0.7874015748031497,
          "duration": 0.13392843750000338
        },
        {
          "name": "D5",
          "midi": 74,
          "time": 48.540130031250285,
          "velocity": 0.7874015748031497,
          "duration": 0.13392843750000338
        },
        {
          "name": "D6",
          "midi": 86,
          "time": 48.540130031250285,
          "velocity": 0.7874015748031497,
          "duration": 0.13392843750000338
        },
        {
          "name": "D7",
          "midi": 98,
          "time": 48.540130031250285,
          "velocity": 0.7874015748031497,
          "duration": 0.13392843750000338
        },
        {
          "name": "C#4",
          "midi": 61,
          "time": 48.68298703125029,
          "velocity": 0.7874015748031497,
          "duration": 0.13392843750000338
        },
        {
          "name": "C#5",
          "midi": 73,
          "time": 48.68298703125029,
          "velocity": 0.7874015748031497,
          "duration": 0.13392843750000338
        },
        {
          "name": "C#6",
          "midi": 85,
          "time": 48.68298703125029,
          "velocity": 0.7874015748031497,
          "duration": 0.13392843750000338
        },
        {
          "name": "C#7",
          "midi": 97,
          "time": 48.68298703125029,
          "velocity": 0.7874015748031497,
          "duration": 0.13392843750000338
        },
        {
          "name": "C4",
          "midi": 60,
          "time": 48.8258440312503,
          "velocity": 0.7874015748031497,
          "duration": 0.13392843750000338
        },
        {
          "name": "C5",
          "midi": 72,
          "time": 48.8258440312503,
          "velocity": 0.7874015748031497,
          "duration": 0.13392843750000338
        },
        {
          "name": "C6",
          "midi": 84,
          "time": 48.8258440312503,
          "velocity": 0.7874015748031497,
          "duration": 0.13392843750000338
        },
        {
          "name": "C7",
          "midi": 96,
          "time": 48.8258440312503,
          "velocity": 0.7874015748031497,
          "duration": 0.13392843750000338
        },
        {
          "name": "D4",
          "midi": 62,
          "time": 48.968701031250305,
          "velocity": 0.7874015748031497,
          "duration": 0.27589258125000526
        },
        {
          "name": "D#5",
          "midi": 75,
          "time": 48.968701031250305,
          "velocity": 0.7874015748031497,
          "duration": 0.27589258125000526
        },
        {
          "name": "E6",
          "midi": 88,
          "time": 48.968701031250305,
          "velocity": 0.7874015748031497,
          "duration": 0.27589258125000526
        },
        {
          "name": "D#7",
          "midi": 99,
          "time": 48.968701031250305,
          "velocity": 0.7874015748031497,
          "duration": 0.06249993750000016
        },
        {
          "name": "E7",
          "midi": 100,
          "time": 49.04012953125031,
          "velocity": 0.7874015748031497,
          "duration": 0.06249993750000016
        },
        {
          "name": "D#7",
          "midi": 99,
          "time": 49.11155803125031,
          "velocity": 0.7874015748031497,
          "duration": 0.1330355812499988
        },
        {
          "name": "D5",
          "midi": 74,
          "time": 49.25441503125031,
          "velocity": 0.7874015748031497,
          "duration": 0.13392843750000338
        },
        {
          "name": "D6",
          "midi": 86,
          "time": 49.25441503125031,
          "velocity": 0.7874015748031497,
          "duration": 0.13392843750000338
        },
        {
          "name": "D7",
          "midi": 98,
          "time": 49.25441503125031,
          "velocity": 0.7874015748031497,
          "duration": 0.13392843750000338
        },
        {
          "name": "D4",
          "midi": 62,
          "time": 49.39727203125032,
          "velocity": 0.7874015748031497,
          "duration": 0.13392843750000338
        },
        {
          "name": "D#5",
          "midi": 75,
          "time": 49.39727203125032,
          "velocity": 0.7874015748031497,
          "duration": 0.13392843750000338
        },
        {
          "name": "D#6",
          "midi": 87,
          "time": 49.39727203125032,
          "velocity": 0.7874015748031497,
          "duration": 0.13392843750000338
        },
        {
          "name": "D#7",
          "midi": 99,
          "time": 49.39727203125032,
          "velocity": 0.7874015748031497,
          "duration": 0.13392843750000338
        },
        {
          "name": "C#4",
          "midi": 61,
          "time": 49.54012903125032,
          "velocity": 0.7874015748031497,
          "duration": 0.13392843750000338
        },
        {
          "name": "D5",
          "midi": 74,
          "time": 49.54012903125032,
          "velocity": 0.7874015748031497,
          "duration": 0.13392843750000338
        },
        {
          "name": "D6",
          "midi": 86,
          "time": 49.54012903125032,
          "velocity": 0.7874015748031497,
          "duration": 0.13392843750000338
        },
        {
          "name": "D7",
          "midi": 98,
          "time": 49.54012903125032,
          "velocity": 0.7874015748031497,
          "duration": 0.13392843750000338
        },
        {
          "name": "C4",
          "midi": 60,
          "time": 49.68298603125033,
          "velocity": 0.7874015748031497,
          "duration": 0.13392843750000338
        },
        {
          "name": "C#5",
          "midi": 73,
          "time": 49.68298603125033,
          "velocity": 0.7874015748031497,
          "duration": 0.13392843750000338
        },
        {
          "name": "C#6",
          "midi": 85,
          "time": 49.68298603125033,
          "velocity": 0.7874015748031497,
          "duration": 0.13392843750000338
        },
        {
          "name": "C#7",
          "midi": 97,
          "time": 49.68298603125033,
          "velocity": 0.7874015748031497,
          "duration": 0.13392843750000338
        },
        {
          "name": "C5",
          "midi": 72,
          "time": 49.825843031250336,
          "velocity": 0.7874015748031497,
          "duration": 0.13392843750000338
        },
        {
          "name": "C6",
          "midi": 84,
          "time": 49.825843031250336,
          "velocity": 0.7874015748031497,
          "duration": 0.13392843750000338
        },
        {
          "name": "C7",
          "midi": 96,
          "time": 49.825843031250336,
          "velocity": 0.7874015748031497,
          "duration": 0.13392843750000338
        },
        {
          "name": "C#4",
          "midi": 61,
          "time": 49.96870003125034,
          "velocity": 0.7874015748031497,
          "duration": 0.13392843750000338
        },
        {
          "name": "C#5",
          "midi": 73,
          "time": 49.96870003125034,
          "velocity": 0.7874015748031497,
          "duration": 0.13392843750000338
        },
        {
          "name": "D5",
          "midi": 74,
          "time": 49.96870003125034,
          "velocity": 0.7874015748031497,
          "duration": 0.13392843750000338
        },
        {
          "name": "C#6",
          "midi": 85,
          "time": 49.96870003125034,
          "velocity": 0.7874015748031497,
          "duration": 0.13392843750000338
        },
        {
          "name": "D#6",
          "midi": 87,
          "time": 49.96870003125034,
          "velocity": 0.7874015748031497,
          "duration": 0.13392843750000338
        },
        {
          "name": "C#7",
          "midi": 97,
          "time": 49.96870003125034,
          "velocity": 0.7874015748031497,
          "duration": 0.13392843750000338
        },
        {
          "name": "D#7",
          "midi": 99,
          "time": 49.96870003125034,
          "velocity": 0.7874015748031497,
          "duration": 0.13392843750000338
        },
        {
          "name": "C#4",
          "midi": 61,
          "time": 50.25441403125035,
          "velocity": 0.7874015748031497,
          "duration": 0.4196424375000021
        },
        {
          "name": "C#5",
          "midi": 73,
          "time": 50.25441403125035,
          "velocity": 0.7874015748031497,
          "duration": 0.4196424375000021
        },
        {
          "name": "D5",
          "midi": 74,
          "time": 50.25441403125035,
          "velocity": 0.7874015748031497,
          "duration": 0.4196424375000021
        },
        {
          "name": "C#6",
          "midi": 85,
          "time": 50.25441403125035,
          "velocity": 0.7874015748031497,
          "duration": 0.4196424375000021
        },
        {
          "name": "D#6",
          "midi": 87,
          "time": 50.25441403125035,
          "velocity": 0.7874015748031497,
          "duration": 0.4196424375000021
        },
        {
          "name": "C#7",
          "midi": 97,
          "time": 50.25441403125035,
          "velocity": 0.7874015748031497,
          "duration": 0.4196424375000021
        },
        {
          "name": "D#7",
          "midi": 99,
          "time": 50.25441403125035,
          "velocity": 0.7874015748031497,
          "duration": 0.4196424375000021
        },
        {
          "name": "C4",
          "midi": 60,
          "time": 50.682985031250354,
          "velocity": 0.7874015748031497,
          "duration": 0.13392843750000338
        },
        {
          "name": "C5",
          "midi": 72,
          "time": 50.682985031250354,
          "velocity": 0.7874015748031497,
          "duration": 0.13392843750000338
        },
        {
          "name": "C6",
          "midi": 84,
          "time": 50.682985031250354,
          "velocity": 0.7874015748031497,
          "duration": 0.13392843750000338
        },
        {
          "name": "C7",
          "midi": 96,
          "time": 50.682985031250354,
          "velocity": 0.7874015748031497,
          "duration": 0.13392843750000338
        },
        {
          "name": "D4",
          "midi": 62,
          "time": 50.82584203125036,
          "velocity": 0.7874015748031497,
          "duration": 0.13392843750000338
        },
        {
          "name": "D5",
          "midi": 74,
          "time": 50.82584203125036,
          "velocity": 0.7874015748031497,
          "duration": 0.13392843750000338
        },
        {
          "name": "D#5",
          "midi": 75,
          "time": 50.82584203125036,
          "velocity": 0.7874015748031497,
          "duration": 0.13392843750000338
        },
        {
          "name": "D6",
          "midi": 86,
          "time": 50.82584203125036,
          "velocity": 0.7874015748031497,
          "duration": 0.13392843750000338
        },
        {
          "name": "E6",
          "midi": 88,
          "time": 50.82584203125036,
          "velocity": 0.7874015748031497,
          "duration": 0.13392843750000338
        },
        {
          "name": "D7",
          "midi": 98,
          "time": 50.82584203125036,
          "velocity": 0.7874015748031497,
          "duration": 0.13392843750000338
        },
        {
          "name": "E7",
          "midi": 100,
          "time": 50.82584203125036,
          "velocity": 0.7874015748031497,
          "duration": 0.13392843750000338
        },
        {
          "name": "D4",
          "midi": 62,
          "time": 51.111556031250366,
          "velocity": 0.7874015748031497,
          "duration": 0.4196424375000021
        },
        {
          "name": "D5",
          "midi": 74,
          "time": 51.111556031250366,
          "velocity": 0.7874015748031497,
          "duration": 0.4196424375000021
        },
        {
          "name": "D#5",
          "midi": 75,
          "time": 51.111556031250366,
          "velocity": 0.7874015748031497,
          "duration": 0.4196424375000021
        },
        {
          "name": "D6",
          "midi": 86,
          "time": 51.111556031250366,
          "velocity": 0.7874015748031497,
          "duration": 0.4196424375000021
        },
        {
          "name": "E6",
          "midi": 88,
          "time": 51.111556031250366,
          "velocity": 0.7874015748031497,
          "duration": 0.4196424375000021
        },
        {
          "name": "D7",
          "midi": 98,
          "time": 51.111556031250366,
          "velocity": 0.7874015748031497,
          "duration": 0.4196424375000021
        },
        {
          "name": "E7",
          "midi": 100,
          "time": 51.111556031250366,
          "velocity": 0.7874015748031497,
          "duration": 0.4196424375000021
        },
        {
          "name": "D4",
          "midi": 62,
          "time": 51.54012703125037,
          "velocity": 0.7874015748031497,
          "duration": 0.13392843750000338
        },
        {
          "name": "D5",
          "midi": 74,
          "time": 51.54012703125037,
          "velocity": 0.7874015748031497,
          "duration": 0.13392843750000338
        },
        {
          "name": "D6",
          "midi": 86,
          "time": 51.54012703125037,
          "velocity": 0.7874015748031497,
          "duration": 0.13392843750000338
        },
        {
          "name": "D7",
          "midi": 98,
          "time": 51.54012703125037,
          "velocity": 0.7874015748031497,
          "duration": 0.13392843750000338
        },
        {
          "name": "D6",
          "midi": 86,
          "time": 51.68298403125038,
          "velocity": 0.7874015748031497,
          "duration": 0.13392843750000338
        },
        {
          "name": "D7",
          "midi": 98,
          "time": 51.68298403125038,
          "velocity": 0.7874015748031497,
          "duration": 0.13392843750000338
        },
        {
          "name": "D4",
          "midi": 62,
          "time": 51.825841031250384,
          "velocity": 0.7874015748031497,
          "duration": 0.13392843750000338
        },
        {
          "name": "D5",
          "midi": 74,
          "time": 51.825841031250384,
          "velocity": 0.7874015748031497,
          "duration": 0.13392843750000338
        },
        {
          "name": "D6",
          "midi": 86,
          "time": 51.825841031250384,
          "velocity": 0.7874015748031497,
          "duration": 0.13392843750000338
        },
        {
          "name": "D7",
          "midi": 98,
          "time": 51.825841031250384,
          "velocity": 0.7874015748031497,
          "duration": 0.13392843750000338
        },
        {
          "name": "D6",
          "midi": 86,
          "time": 51.96869803125039,
          "velocity": 0.7874015748031497,
          "duration": 0.13392843750000338
        },
        {
          "name": "D7",
          "midi": 98,
          "time": 51.96869803125039,
          "velocity": 0.7874015748031497,
          "duration": 0.13392843750000338
        },
        {
          "name": "D4",
          "midi": 62,
          "time": 52.1115550312504,
          "velocity": 0.7874015748031497,
          "duration": 0.1330355812499988
        },
        {
          "name": "D5",
          "midi": 74,
          "time": 52.1115550312504,
          "velocity": 0.7874015748031497,
          "duration": 0.1330355812499988
        },
        {
          "name": "D6",
          "midi": 86,
          "time": 52.1115550312504,
          "velocity": 0.7874015748031497,
          "duration": 0.1330355812499988
        },
        {
          "name": "D7",
          "midi": 98,
          "time": 52.1115550312504,
          "velocity": 0.7874015748031497,
          "duration": 0.1330355812499988
        },
        {
          "name": "D6",
          "midi": 86,
          "time": 52.254412031250396,
          "velocity": 0.7874015748031497,
          "duration": 0.13392843750000338
        },
        {
          "name": "D7",
          "midi": 98,
          "time": 52.254412031250396,
          "velocity": 0.7874015748031497,
          "duration": 0.13392843750000338
        },
        {
          "name": "D4",
          "midi": 62,
          "time": 52.3972690312504,
          "velocity": 0.7874015748031497,
          "duration": 0.27678543750000273
        },
        {
          "name": "D5",
          "midi": 74,
          "time": 52.3972690312504,
          "velocity": 0.7874015748031497,
          "duration": 0.27678543750000273
        },
        {
          "name": "D6",
          "midi": 86,
          "time": 52.3972690312504,
          "velocity": 0.7874015748031497,
          "duration": 0.27678543750000273
        },
        {
          "name": "D7",
          "midi": 98,
          "time": 52.3972690312504,
          "velocity": 0.7874015748031497,
          "duration": 0.27678543750000273
        },
        {
          "name": "D4",
          "midi": 62,
          "time": 52.68298303125041,
          "velocity": 0.7874015748031497,
          "duration": 0.13392843750000338
        },
        {
          "name": "D5",
          "midi": 74,
          "time": 52.68298303125041,
          "velocity": 0.7874015748031497,
          "duration": 0.13392843750000338
        },
        {
          "name": "D6",
          "midi": 86,
          "time": 52.68298303125041,
          "velocity": 0.7874015748031497,
          "duration": 0.13392843750000338
        },
        {
          "name": "D7",
          "midi": 98,
          "time": 52.68298303125041,
          "velocity": 0.7874015748031497,
          "duration": 0.13392843750000338
        },
        {
          "name": "D6",
          "midi": 86,
          "time": 52.825840031250415,
          "velocity": 0.7874015748031497,
          "duration": 0.13392843750000338
        },
        {
          "name": "D7",
          "midi": 98,
          "time": 52.825840031250415,
          "velocity": 0.7874015748031497,
          "duration": 0.13392843750000338
        },
        {
          "name": "D4",
          "midi": 62,
          "time": 52.96869703125042,
          "velocity": 0.7874015748031497,
          "duration": 0.13392843750000338
        },
        {
          "name": "D5",
          "midi": 74,
          "time": 52.96869703125042,
          "velocity": 0.7874015748031497,
          "duration": 0.13392843750000338
        },
        {
          "name": "D6",
          "midi": 86,
          "time": 52.96869703125042,
          "velocity": 0.7874015748031497,
          "duration": 0.13392843750000338
        },
        {
          "name": "D7",
          "midi": 98,
          "time": 52.96869703125042,
          "velocity": 0.7874015748031497,
          "duration": 0.13392843750000338
        },
        {
          "name": "D6",
          "midi": 86,
          "time": 53.11155403125043,
          "velocity": 0.7874015748031497,
          "duration": 0.1330355812499988
        },
        {
          "name": "D7",
          "midi": 98,
          "time": 53.11155403125043,
          "velocity": 0.7874015748031497,
          "duration": 0.1330355812499988
        },
        {
          "name": "D4",
          "midi": 62,
          "time": 53.25441103125043,
          "velocity": 0.7874015748031497,
          "duration": 0.27678543750000273
        },
        {
          "name": "D5",
          "midi": 74,
          "time": 53.25441103125043,
          "velocity": 0.7874015748031497,
          "duration": 0.27678543750000273
        },
        {
          "name": "D6",
          "midi": 86,
          "time": 53.25441103125043,
          "velocity": 0.7874015748031497,
          "duration": 0.27678543750000273
        },
        {
          "name": "D7",
          "midi": 98,
          "time": 53.25441103125043,
          "velocity": 0.7874015748031497,
          "duration": 0.27678543750000273
        },
        {
          "name": "D4",
          "midi": 62,
          "time": 53.54012503125043,
          "velocity": 0.7874015748031497,
          "duration": 0.13392843750000338
        },
        {
          "name": "D5",
          "midi": 74,
          "time": 53.54012503125043,
          "velocity": 0.7874015748031497,
          "duration": 0.13392843750000338
        },
        {
          "name": "D6",
          "midi": 86,
          "time": 53.54012503125043,
          "velocity": 0.7874015748031497,
          "duration": 0.13392843750000338
        },
        {
          "name": "D7",
          "midi": 98,
          "time": 53.54012503125043,
          "velocity": 0.7874015748031497,
          "duration": 0.13392843750000338
        },
        {
          "name": "D6",
          "midi": 86,
          "time": 53.68298203125044,
          "velocity": 0.7874015748031497,
          "duration": 0.13392843750000338
        },
        {
          "name": "D7",
          "midi": 98,
          "time": 53.68298203125044,
          "velocity": 0.7874015748031497,
          "duration": 0.13392843750000338
        },
        {
          "name": "D4",
          "midi": 62,
          "time": 53.825839031250446,
          "velocity": 0.7874015748031497,
          "duration": 0.13392843750000338
        },
        {
          "name": "D5",
          "midi": 74,
          "time": 53.825839031250446,
          "velocity": 0.7874015748031497,
          "duration": 0.13392843750000338
        },
        {
          "name": "D6",
          "midi": 86,
          "time": 53.825839031250446,
          "velocity": 0.7874015748031497,
          "duration": 0.13392843750000338
        },
        {
          "name": "D7",
          "midi": 98,
          "time": 53.825839031250446,
          "velocity": 0.7874015748031497,
          "duration": 0.13392843750000338
        },
        {
          "name": "D6",
          "midi": 86,
          "time": 53.96869603125045,
          "velocity": 0.7874015748031497,
          "duration": 0.13392843750000338
        },
        {
          "name": "D7",
          "midi": 98,
          "time": 53.96869603125045,
          "velocity": 0.7874015748031497,
          "duration": 0.13392843750000338
        },
        {
          "name": "D4",
          "midi": 62,
          "time": 54.112445887500456,
          "velocity": 0.7874015748031497,
          "duration": 0.27589258124999816
        },
        {
          "name": "D5",
          "midi": 74,
          "time": 54.112445887500456,
          "velocity": 0.7874015748031497,
          "duration": 0.27589258124999816
        },
        {
          "name": "D6",
          "midi": 86,
          "time": 54.112445887500456,
          "velocity": 0.7874015748031497,
          "duration": 0.27589258124999816
        },
        {
          "name": "D7",
          "midi": 98,
          "time": 54.112445887500456,
          "velocity": 0.7874015748031497,
          "duration": 0.27589258124999816
        },
        {
          "name": "D4",
          "midi": 62,
          "time": 54.39726703125046,
          "velocity": 0.7874015748031497,
          "duration": 0.13392843750000338
        },
        {
          "name": "D5",
          "midi": 74,
          "time": 54.39726703125046,
          "velocity": 0.7874015748031497,
          "duration": 0.13392843750000338
        },
        {
          "name": "D6",
          "midi": 86,
          "time": 54.39726703125046,
          "velocity": 0.7874015748031497,
          "duration": 0.13392843750000338
        },
        {
          "name": "D7",
          "midi": 98,
          "time": 54.39726703125046,
          "velocity": 0.7874015748031497,
          "duration": 0.13392843750000338
        },
        {
          "name": "D6",
          "midi": 86,
          "time": 54.540124031250464,
          "velocity": 0.7874015748031497,
          "duration": 0.13392843750000338
        },
        {
          "name": "D7",
          "midi": 98,
          "time": 54.540124031250464,
          "velocity": 0.7874015748031497,
          "duration": 0.13392843750000338
        },
        {
          "name": "D4",
          "midi": 62,
          "time": 54.68298103125047,
          "velocity": 0.7874015748031497,
          "duration": 0.13392843750000338
        },
        {
          "name": "D5",
          "midi": 74,
          "time": 54.68298103125047,
          "velocity": 0.7874015748031497,
          "duration": 0.13392843750000338
        },
        {
          "name": "D6",
          "midi": 86,
          "time": 54.68298103125047,
          "velocity": 0.7874015748031497,
          "duration": 0.13392843750000338
        },
        {
          "name": "D7",
          "midi": 98,
          "time": 54.68298103125047,
          "velocity": 0.7874015748031497,
          "duration": 0.13392843750000338
        },
        {
          "name": "D6",
          "midi": 86,
          "time": 54.82583803125048,
          "velocity": 0.7874015748031497,
          "duration": 0.13392843750000338
        },
        {
          "name": "D7",
          "midi": 98,
          "time": 54.82583803125048,
          "velocity": 0.7874015748031497,
          "duration": 0.13392843750000338
        },
        {
          "name": "C#4",
          "midi": 61,
          "time": 54.96869503125048,
          "velocity": 0.7874015748031497,
          "duration": 0.13392843750000338
        },
        {
          "name": "C#5",
          "midi": 73,
          "time": 54.96869503125048,
          "velocity": 0.7874015748031497,
          "duration": 0.13392843750000338
        },
        {
          "name": "C#6",
          "midi": 85,
          "time": 54.96869503125048,
          "velocity": 0.7874015748031497,
          "duration": 0.13392843750000338
        },
        {
          "name": "C#7",
          "midi": 97,
          "time": 54.96869503125048,
          "velocity": 0.7874015748031497,
          "duration": 0.13392843750000338
        },
        {
          "name": "C#4",
          "midi": 61,
          "time": 55.25440903125049,
          "velocity": 0.7874015748031497,
          "duration": 0.13392843750000338
        },
        {
          "name": "C#5",
          "midi": 73,
          "time": 55.25440903125049,
          "velocity": 0.7874015748031497,
          "duration": 0.13392843750000338
        },
        {
          "name": "C#6",
          "midi": 85,
          "time": 55.25440903125049,
          "velocity": 0.7874015748031497,
          "duration": 0.13392843750000338
        },
        {
          "name": "C#7",
          "midi": 97,
          "time": 55.25440903125049,
          "velocity": 0.7874015748031497,
          "duration": 0.13392843750000338
        },
        {
          "name": "C#6",
          "midi": 85,
          "time": 55.397266031250496,
          "velocity": 0.7874015748031497,
          "duration": 0.13392843750000338
        },
        {
          "name": "C#7",
          "midi": 97,
          "time": 55.397266031250496,
          "velocity": 0.7874015748031497,
          "duration": 0.13392843750000338
        },
        {
          "name": "C#4",
          "midi": 61,
          "time": 55.5401230312505,
          "velocity": 0.7874015748031497,
          "duration": 0.13392843750000338
        },
        {
          "name": "C#5",
          "midi": 73,
          "time": 55.5401230312505,
          "velocity": 0.7874015748031497,
          "duration": 0.13392843750000338
        },
        {
          "name": "C#6",
          "midi": 85,
          "time": 55.5401230312505,
          "velocity": 0.7874015748031497,
          "duration": 0.13392843750000338
        },
        {
          "name": "C#7",
          "midi": 97,
          "time": 55.5401230312505,
          "velocity": 0.7874015748031497,
          "duration": 0.13392843750000338
        },
        {
          "name": "C#6",
          "midi": 85,
          "time": 55.68298003125051,
          "velocity": 0.7874015748031497,
          "duration": 0.13392843750000338
        },
        {
          "name": "C#7",
          "midi": 97,
          "time": 55.68298003125051,
          "velocity": 0.7874015748031497,
          "duration": 0.13392843750000338
        },
        {
          "name": "C#4",
          "midi": 61,
          "time": 55.825837031250515,
          "velocity": 0.7874015748031497,
          "duration": 0.27678543750000273
        },
        {
          "name": "C#5",
          "midi": 73,
          "time": 55.825837031250515,
          "velocity": 0.7874015748031497,
          "duration": 0.27678543750000273
        },
        {
          "name": "C#6",
          "midi": 85,
          "time": 55.825837031250515,
          "velocity": 0.7874015748031497,
          "duration": 0.27678543750000273
        },
        {
          "name": "C#7",
          "midi": 97,
          "time": 55.825837031250515,
          "velocity": 0.7874015748031497,
          "duration": 0.27678543750000273
        },
        {
          "name": "C#4",
          "midi": 61,
          "time": 56.11244388750052,
          "velocity": 0.7874015748031497,
          "duration": 0.13214272500000135
        },
        {
          "name": "C#5",
          "midi": 73,
          "time": 56.11244388750052,
          "velocity": 0.7874015748031497,
          "duration": 0.13214272500000135
        },
        {
          "name": "C#6",
          "midi": 85,
          "time": 56.11244388750052,
          "velocity": 0.7874015748031497,
          "duration": 0.13214272500000135
        },
        {
          "name": "C#7",
          "midi": 97,
          "time": 56.11244388750052,
          "velocity": 0.7874015748031497,
          "duration": 0.13214272500000135
        },
        {
          "name": "C#6",
          "midi": 85,
          "time": 56.25440803125052,
          "velocity": 0.7874015748031497,
          "duration": 0.13392843750000338
        },
        {
          "name": "C#7",
          "midi": 97,
          "time": 56.25440803125052,
          "velocity": 0.7874015748031497,
          "duration": 0.13392843750000338
        },
        {
          "name": "C#4",
          "midi": 61,
          "time": 56.39726503125053,
          "velocity": 0.7874015748031497,
          "duration": 0.13392843750000338
        },
        {
          "name": "C#5",
          "midi": 73,
          "time": 56.39726503125053,
          "velocity": 0.7874015748031497,
          "duration": 0.13392843750000338
        },
        {
          "name": "C#6",
          "midi": 85,
          "time": 56.39726503125053,
          "velocity": 0.7874015748031497,
          "duration": 0.13392843750000338
        },
        {
          "name": "C#7",
          "midi": 97,
          "time": 56.39726503125053,
          "velocity": 0.7874015748031497,
          "duration": 0.13392843750000338
        },
        {
          "name": "C#6",
          "midi": 85,
          "time": 56.54012203125053,
          "velocity": 0.7874015748031497,
          "duration": 0.13392843750000338
        },
        {
          "name": "C#7",
          "midi": 97,
          "time": 56.54012203125053,
          "velocity": 0.7874015748031497,
          "duration": 0.13392843750000338
        },
        {
          "name": "C4",
          "midi": 60,
          "time": 56.68297903125054,
          "velocity": 0.7874015748031497,
          "duration": 0.4196424375000021
        },
        {
          "name": "C5",
          "midi": 72,
          "time": 56.68297903125054,
          "velocity": 0.7874015748031497,
          "duration": 0.4196424375000021
        },
        {
          "name": "C6",
          "midi": 84,
          "time": 56.68297903125054,
          "velocity": 0.7874015748031497,
          "duration": 0.4196424375000021
        },
        {
          "name": "C7",
          "midi": 96,
          "time": 56.68297903125054,
          "velocity": 0.7874015748031497,
          "duration": 0.4196424375000021
        },
        {
          "name": "C#4",
          "midi": 61,
          "time": 57.11244288750054,
          "velocity": 0.7874015748031497,
          "duration": 0.4187495812499975
        },
        {
          "name": "C#5",
          "midi": 73,
          "time": 57.11244288750054,
          "velocity": 0.7874015748031497,
          "duration": 0.4187495812499975
        },
        {
          "name": "C#6",
          "midi": 85,
          "time": 57.11244288750054,
          "velocity": 0.7874015748031497,
          "duration": 0.4187495812499975
        },
        {
          "name": "C#7",
          "midi": 97,
          "time": 57.11244288750054,
          "velocity": 0.7874015748031497,
          "duration": 0.4187495812499975
        },
        {
          "name": "D4",
          "midi": 62,
          "time": 57.54012103125054,
          "velocity": 0.7874015748031497,
          "duration": 0.4196424375000021
        },
        {
          "name": "D5",
          "midi": 74,
          "time": 57.54012103125054,
          "velocity": 0.7874015748031497,
          "duration": 0.4196424375000021
        },
        {
          "name": "D6",
          "midi": 86,
          "time": 57.54012103125054,
          "velocity": 0.7874015748031497,
          "duration": 0.4196424375000021
        },
        {
          "name": "D7",
          "midi": 98,
          "time": 57.54012103125054,
          "velocity": 0.7874015748031497,
          "duration": 0.4196424375000021
        },
        {
          "name": "D4",
          "midi": 62,
          "time": 57.96869203125055,
          "velocity": 0.7874015748031497,
          "duration": 0.4196424375000021
        },
        {
          "name": "D5",
          "midi": 74,
          "time": 57.96869203125055,
          "velocity": 0.7874015748031497,
          "duration": 0.4196424375000021
        },
        {
          "name": "D#6",
          "midi": 87,
          "time": 57.96869203125055,
          "velocity": 0.7874015748031497,
          "duration": 0.4196424375000021
        },
        {
          "name": "D#7",
          "midi": 99,
          "time": 57.96869203125055,
          "velocity": 0.7874015748031497,
          "duration": 0.4196424375000021
        },
        {
          "name": "C#4",
          "midi": 61,
          "time": 58.39726303125055,
          "velocity": 0.7874015748031497,
          "duration": 0.4196424375000021
        },
        {
          "name": "C5",
          "midi": 72,
          "time": 58.39726303125055,
          "velocity": 0.7874015748031497,
          "duration": 0.4196424375000021
        },
        {
          "name": "C#5",
          "midi": 73,
          "time": 58.39726303125055,
          "velocity": 0.7874015748031497,
          "duration": 0.4196424375000021
        },
        {
          "name": "C6",
          "midi": 84,
          "time": 58.39726303125055,
          "velocity": 0.7874015748031497,
          "duration": 0.4196424375000021
        },
        {
          "name": "D6",
          "midi": 86,
          "time": 58.39726303125055,
          "velocity": 0.7874015748031497,
          "duration": 0.4196424375000021
        },
        {
          "name": "C7",
          "midi": 96,
          "time": 58.39726303125055,
          "velocity": 0.7874015748031497,
          "duration": 0.4196424375000021
        },
        {
          "name": "D7",
          "midi": 98,
          "time": 58.39726303125055,
          "velocity": 0.7874015748031497,
          "duration": 0.4196424375000021
        },
        {
          "name": "C4",
          "midi": 60,
          "time": 58.82583403125056,
          "velocity": 0.7874015748031497,
          "duration": 0.13392843750000338
        },
        {
          "name": "C5",
          "midi": 72,
          "time": 58.82583403125056,
          "velocity": 0.7874015748031497,
          "duration": 0.13392843750000338
        },
        {
          "name": "C6",
          "midi": 84,
          "time": 58.82583403125056,
          "velocity": 0.7874015748031497,
          "duration": 0.13392843750000338
        },
        {
          "name": "C7",
          "midi": 96,
          "time": 58.82583403125056,
          "velocity": 0.7874015748031497,
          "duration": 0.13392843750000338
        },
        {
          "name": "C6",
          "midi": 84,
          "time": 58.968691031250565,
          "velocity": 0.7874015748031497,
          "duration": 0.13392843750000338
        },
        {
          "name": "C7",
          "midi": 96,
          "time": 58.968691031250565,
          "velocity": 0.7874015748031497,
          "duration": 0.13392843750000338
        },
        {
          "name": "C4",
          "midi": 60,
          "time": 59.11244088750057,
          "velocity": 0.7874015748031497,
          "duration": 0.13214272500000135
        },
        {
          "name": "C5",
          "midi": 72,
          "time": 59.11244088750057,
          "velocity": 0.7874015748031497,
          "duration": 0.13214272500000135
        },
        {
          "name": "C6",
          "midi": 84,
          "time": 59.11244088750057,
          "velocity": 0.7874015748031497,
          "duration": 0.13214272500000135
        },
        {
          "name": "C7",
          "midi": 96,
          "time": 59.11244088750057,
          "velocity": 0.7874015748031497,
          "duration": 0.13214272500000135
        },
        {
          "name": "C#4",
          "midi": 61,
          "time": 59.25440503125057,
          "velocity": 0.7874015748031497,
          "duration": 0.4196424375000021
        },
        {
          "name": "C5",
          "midi": 72,
          "time": 59.25440503125057,
          "velocity": 0.7874015748031497,
          "duration": 0.4196424375000021
        },
        {
          "name": "C#5",
          "midi": 73,
          "time": 59.25440503125057,
          "velocity": 0.7874015748031497,
          "duration": 0.4196424375000021
        },
        {
          "name": "C6",
          "midi": 84,
          "time": 59.25440503125057,
          "velocity": 0.7874015748031497,
          "duration": 0.4196424375000021
        },
        {
          "name": "D6",
          "midi": 86,
          "time": 59.25440503125057,
          "velocity": 0.7874015748031497,
          "duration": 0.4196424375000021
        },
        {
          "name": "C7",
          "midi": 96,
          "time": 59.25440503125057,
          "velocity": 0.7874015748031497,
          "duration": 0.4196424375000021
        },
        {
          "name": "D7",
          "midi": 98,
          "time": 59.25440503125057,
          "velocity": 0.7874015748031497,
          "duration": 0.4196424375000021
        },
        {
          "name": "C4",
          "midi": 60,
          "time": 59.682976031250575,
          "velocity": 0.7874015748031497,
          "duration": 0.13392843750000338
        },
        {
          "name": "C5",
          "midi": 72,
          "time": 59.682976031250575,
          "velocity": 0.7874015748031497,
          "duration": 0.13392843750000338
        },
        {
          "name": "C6",
          "midi": 84,
          "time": 59.682976031250575,
          "velocity": 0.7874015748031497,
          "duration": 0.13392843750000338
        },
        {
          "name": "C7",
          "midi": 96,
          "time": 59.682976031250575,
          "velocity": 0.7874015748031497,
          "duration": 0.13392843750000338
        },
        {
          "name": "C6",
          "midi": 84,
          "time": 59.82583303125058,
          "velocity": 0.7874015748031497,
          "duration": 0.13392843750000338
        },
        {
          "name": "C7",
          "midi": 96,
          "time": 59.82583303125058,
          "velocity": 0.7874015748031497,
          "duration": 0.13392843750000338
        },
        {
          "name": "C4",
          "midi": 60,
          "time": 59.96869003125059,
          "velocity": 0.7874015748031497,
          "duration": 0.13392843750000338
        },
        {
          "name": "C5",
          "midi": 72,
          "time": 59.96869003125059,
          "velocity": 0.7874015748031497,
          "duration": 0.13392843750000338
        },
        {
          "name": "C6",
          "midi": 84,
          "time": 59.96869003125059,
          "velocity": 0.7874015748031497,
          "duration": 0.13392843750000338
        },
        {
          "name": "C7",
          "midi": 96,
          "time": 59.96869003125059,
          "velocity": 0.7874015748031497,
          "duration": 0.13392843750000338
        },
        {
          "name": "C#4",
          "midi": 61,
          "time": 60.11243988750059,
          "velocity": 0.7874015748031497,
          "duration": 0.4187495812499975
        },
        {
          "name": "C#5",
          "midi": 73,
          "time": 60.11243988750059,
          "velocity": 0.7874015748031497,
          "duration": 0.4187495812499975
        },
        {
          "name": "D5",
          "midi": 74,
          "time": 60.11243988750059,
          "velocity": 0.7874015748031497,
          "duration": 0.4187495812499975
        },
        {
          "name": "C#6",
          "midi": 85,
          "time": 60.11243988750059,
          "velocity": 0.7874015748031497,
          "duration": 0.4187495812499975
        },
        {
          "name": "D#6",
          "midi": 87,
          "time": 60.11243988750059,
          "velocity": 0.7874015748031497,
          "duration": 0.4187495812499975
        },
        {
          "name": "C#7",
          "midi": 97,
          "time": 60.11243988750059,
          "velocity": 0.7874015748031497,
          "duration": 0.4187495812499975
        },
        {
          "name": "D#7",
          "midi": 99,
          "time": 60.11243988750059,
          "velocity": 0.7874015748031497,
          "duration": 0.4187495812499975
        },
        {
          "name": "C#4",
          "midi": 61,
          "time": 60.54011803125059,
          "velocity": 0.7874015748031497,
          "duration": 0.13392843750000338
        },
        {
          "name": "C#5",
          "midi": 73,
          "time": 60.54011803125059,
          "velocity": 0.7874015748031497,
          "duration": 0.13392843750000338
        },
        {
          "name": "C#6",
          "midi": 85,
          "time": 60.54011803125059,
          "velocity": 0.7874015748031497,
          "duration": 0.13392843750000338
        },
        {
          "name": "C#7",
          "midi": 97,
          "time": 60.54011803125059,
          "velocity": 0.7874015748031497,
          "duration": 0.13392843750000338
        },
        {
          "name": "C#6",
          "midi": 85,
          "time": 60.6829750312506,
          "velocity": 0.7874015748031497,
          "duration": 0.13392843750000338
        },
        {
          "name": "C#7",
          "midi": 97,
          "time": 60.6829750312506,
          "velocity": 0.7874015748031497,
          "duration": 0.13392843750000338
        },
        {
          "name": "C#4",
          "midi": 61,
          "time": 60.825832031250606,
          "velocity": 0.7874015748031497,
          "duration": 0.13392843750000338
        },
        {
          "name": "C#5",
          "midi": 73,
          "time": 60.825832031250606,
          "velocity": 0.7874015748031497,
          "duration": 0.13392843750000338
        },
        {
          "name": "C#6",
          "midi": 85,
          "time": 60.825832031250606,
          "velocity": 0.7874015748031497,
          "duration": 0.13392843750000338
        },
        {
          "name": "C#7",
          "midi": 97,
          "time": 60.825832031250606,
          "velocity": 0.7874015748031497,
          "duration": 0.13392843750000338
        },
        {
          "name": "D4",
          "midi": 62,
          "time": 60.96868903125061,
          "velocity": 0.7874015748031497,
          "duration": 0.4196424375000021
        },
        {
          "name": "C#5",
          "midi": 73,
          "time": 60.96868903125061,
          "velocity": 0.7874015748031497,
          "duration": 0.4196424375000021
        },
        {
          "name": "D5",
          "midi": 74,
          "time": 60.96868903125061,
          "velocity": 0.7874015748031497,
          "duration": 0.4196424375000021
        },
        {
          "name": "C#6",
          "midi": 85,
          "time": 60.96868903125061,
          "velocity": 0.7874015748031497,
          "duration": 0.4196424375000021
        },
        {
          "name": "D#6",
          "midi": 87,
          "time": 60.96868903125061,
          "velocity": 0.7874015748031497,
          "duration": 0.4196424375000021
        },
        {
          "name": "C#7",
          "midi": 97,
          "time": 60.96868903125061,
          "velocity": 0.7874015748031497,
          "duration": 0.4196424375000021
        },
        {
          "name": "D#7",
          "midi": 99,
          "time": 60.96868903125061,
          "velocity": 0.7874015748031497,
          "duration": 0.4196424375000021
        },
        {
          "name": "C#4",
          "midi": 61,
          "time": 61.39726003125062,
          "velocity": 0.7874015748031497,
          "duration": 0.13392843750000338
        },
        {
          "name": "C#5",
          "midi": 73,
          "time": 61.39726003125062,
          "velocity": 0.7874015748031497,
          "duration": 0.13392843750000338
        },
        {
          "name": "C#6",
          "midi": 85,
          "time": 61.39726003125062,
          "velocity": 0.7874015748031497,
          "duration": 0.13392843750000338
        },
        {
          "name": "C#7",
          "midi": 97,
          "time": 61.39726003125062,
          "velocity": 0.7874015748031497,
          "duration": 0.13392843750000338
        },
        {
          "name": "C#6",
          "midi": 85,
          "time": 61.540117031250624,
          "velocity": 0.7874015748031497,
          "duration": 0.13392843750000338
        },
        {
          "name": "C#7",
          "midi": 97,
          "time": 61.540117031250624,
          "velocity": 0.7874015748031497,
          "duration": 0.13392843750000338
        },
        {
          "name": "C#4",
          "midi": 61,
          "time": 61.68297403125063,
          "velocity": 0.7874015748031497,
          "duration": 0.13392843750000338
        },
        {
          "name": "C#5",
          "midi": 73,
          "time": 61.68297403125063,
          "velocity": 0.7874015748031497,
          "duration": 0.13392843750000338
        },
        {
          "name": "C#6",
          "midi": 85,
          "time": 61.68297403125063,
          "velocity": 0.7874015748031497,
          "duration": 0.13392843750000338
        },
        {
          "name": "C#7",
          "midi": 97,
          "time": 61.68297403125063,
          "velocity": 0.7874015748031497,
          "duration": 0.13392843750000338
        },
        {
          "name": "D4",
          "midi": 62,
          "time": 61.82583103125064,
          "velocity": 0.7874015748031497,
          "duration": 0.4187495812499975
        },
        {
          "name": "D5",
          "midi": 74,
          "time": 61.82583103125064,
          "velocity": 0.7874015748031497,
          "duration": 0.4187495812499975
        },
        {
          "name": "D#5",
          "midi": 75,
          "time": 61.82583103125064,
          "velocity": 0.7874015748031497,
          "duration": 0.4187495812499975
        },
        {
          "name": "D6",
          "midi": 86,
          "time": 61.82583103125064,
          "velocity": 0.7874015748031497,
          "duration": 0.4187495812499975
        },
        {
          "name": "E6",
          "midi": 88,
          "time": 61.82583103125064,
          "velocity": 0.7874015748031497,
          "duration": 0.4187495812499975
        },
        {
          "name": "D7",
          "midi": 98,
          "time": 61.82583103125064,
          "velocity": 0.7874015748031497,
          "duration": 0.4187495812499975
        },
        {
          "name": "E7",
          "midi": 100,
          "time": 61.82583103125064,
          "velocity": 0.7874015748031497,
          "duration": 0.4187495812499975
        },
        {
          "name": "D4",
          "midi": 62,
          "time": 62.254402031250635,
          "velocity": 0.7874015748031497,
          "duration": 0.13392843750000338
        },
        {
          "name": "D5",
          "midi": 74,
          "time": 62.254402031250635,
          "velocity": 0.7874015748031497,
          "duration": 0.13392843750000338
        },
        {
          "name": "D6",
          "midi": 86,
          "time": 62.254402031250635,
          "velocity": 0.7874015748031497,
          "duration": 0.13392843750000338
        },
        {
          "name": "D7",
          "midi": 98,
          "time": 62.254402031250635,
          "velocity": 0.7874015748031497,
          "duration": 0.13392843750000338
        },
        {
          "name": "D6",
          "midi": 86,
          "time": 62.39725903125064,
          "velocity": 0.7874015748031497,
          "duration": 0.13392843750000338
        },
        {
          "name": "D7",
          "midi": 98,
          "time": 62.39725903125064,
          "velocity": 0.7874015748031497,
          "duration": 0.13392843750000338
        },
        {
          "name": "C#4",
          "midi": 61,
          "time": 62.54011603125065,
          "velocity": 0.7874015748031497,
          "duration": 0.13392843750000338
        },
        {
          "name": "D5",
          "midi": 74,
          "time": 62.54011603125065,
          "velocity": 0.7874015748031497,
          "duration": 0.13392843750000338
        },
        {
          "name": "D6",
          "midi": 86,
          "time": 62.54011603125065,
          "velocity": 0.7874015748031497,
          "duration": 0.13392843750000338
        },
        {
          "name": "D7",
          "midi": 98,
          "time": 62.54011603125065,
          "velocity": 0.7874015748031497,
          "duration": 0.13392843750000338
        },
        {
          "name": "D4",
          "midi": 62,
          "time": 62.682973031250654,
          "velocity": 0.7874015748031497,
          "duration": 0.27678543750000273
        },
        {
          "name": "D5",
          "midi": 74,
          "time": 62.682973031250654,
          "velocity": 0.7874015748031497,
          "duration": 0.27678543750000273
        },
        {
          "name": "D#5",
          "midi": 75,
          "time": 62.682973031250654,
          "velocity": 0.7874015748031497,
          "duration": 0.27678543750000273
        },
        {
          "name": "D6",
          "midi": 86,
          "time": 62.682973031250654,
          "velocity": 0.7874015748031497,
          "duration": 0.27678543750000273
        },
        {
          "name": "E6",
          "midi": 88,
          "time": 62.682973031250654,
          "velocity": 0.7874015748031497,
          "duration": 0.27678543750000273
        },
        {
          "name": "D7",
          "midi": 98,
          "time": 62.682973031250654,
          "velocity": 0.7874015748031497,
          "duration": 0.27678543750000273
        },
        {
          "name": "E7",
          "midi": 100,
          "time": 62.682973031250654,
          "velocity": 0.7874015748031497,
          "duration": 0.27678543750000273
        },
        {
          "name": "C#4",
          "midi": 61,
          "time": 62.96868703125066,
          "velocity": 0.7874015748031497,
          "duration": 0.13392843750000338
        },
        {
          "name": "D5",
          "midi": 74,
          "time": 62.96868703125066,
          "velocity": 0.7874015748031497,
          "duration": 0.13392843750000338
        },
        {
          "name": "D6",
          "midi": 86,
          "time": 62.96868703125066,
          "velocity": 0.7874015748031497,
          "duration": 0.13392843750000338
        },
        {
          "name": "D7",
          "midi": 98,
          "time": 62.96868703125066,
          "velocity": 0.7874015748031497,
          "duration": 0.13392843750000338
        },
        {
          "name": "D6",
          "midi": 86,
          "time": 63.112436887500664,
          "velocity": 0.7874015748031497,
          "duration": 0.13214272500000135
        },
        {
          "name": "D7",
          "midi": 98,
          "time": 63.112436887500664,
          "velocity": 0.7874015748031497,
          "duration": 0.13214272500000135
        },
        {
          "name": "D4",
          "midi": 62,
          "time": 63.254401031250666,
          "velocity": 0.7874015748031497,
          "duration": 0.13392843750000338
        },
        {
          "name": "D5",
          "midi": 74,
          "time": 63.254401031250666,
          "velocity": 0.7874015748031497,
          "duration": 0.13392843750000338
        },
        {
          "name": "D6",
          "midi": 86,
          "time": 63.254401031250666,
          "velocity": 0.7874015748031497,
          "duration": 0.13392843750000338
        },
        {
          "name": "D7",
          "midi": 98,
          "time": 63.254401031250666,
          "velocity": 0.7874015748031497,
          "duration": 0.13392843750000338
        },
        {
          "name": "D6",
          "midi": 86,
          "time": 63.39725803125067,
          "velocity": 0.7874015748031497,
          "duration": 0.13392843750000338
        },
        {
          "name": "D7",
          "midi": 98,
          "time": 63.39725803125067,
          "velocity": 0.7874015748031497,
          "duration": 0.13392843750000338
        },
        {
          "name": "C#4",
          "midi": 61,
          "time": 63.54011503125068,
          "velocity": 0.7874015748031497,
          "duration": 0.13392843750000338
        },
        {
          "name": "C#5",
          "midi": 73,
          "time": 63.54011503125068,
          "velocity": 0.7874015748031497,
          "duration": 0.13392843750000338
        },
        {
          "name": "D5",
          "midi": 74,
          "time": 63.54011503125068,
          "velocity": 0.7874015748031497,
          "duration": 0.13392843750000338
        },
        {
          "name": "C6",
          "midi": 84,
          "time": 63.54011503125068,
          "velocity": 0.7874015748031497,
          "duration": 0.13392843750000338
        },
        {
          "name": "D6",
          "midi": 86,
          "time": 63.54011503125068,
          "velocity": 0.7874015748031497,
          "duration": 0.13392843750000338
        },
        {
          "name": "C7",
          "midi": 96,
          "time": 63.54011503125068,
          "velocity": 0.7874015748031497,
          "duration": 0.13392843750000338
        },
        {
          "name": "D7",
          "midi": 98,
          "time": 63.54011503125068,
          "velocity": 0.7874015748031497,
          "duration": 0.13392843750000338
        },
        {
          "name": "D#7",
          "midi": 99,
          "time": 63.54011503125068,
          "velocity": 0.7874015748031497,
          "duration": 0.13392843750000338
        },
        {
          "name": "C#4",
          "midi": 61,
          "time": 63.825829031250684,
          "velocity": 0.7874015748031497,
          "duration": 0.13392843750000338
        },
        {
          "name": "C#5",
          "midi": 73,
          "time": 63.825829031250684,
          "velocity": 0.7874015748031497,
          "duration": 0.13392843750000338
        },
        {
          "name": "D5",
          "midi": 74,
          "time": 63.825829031250684,
          "velocity": 0.7874015748031497,
          "duration": 0.13392843750000338
        },
        {
          "name": "C6",
          "midi": 84,
          "time": 63.825829031250684,
          "velocity": 0.7874015748031497,
          "duration": 0.13392843750000338
        },
        {
          "name": "D6",
          "midi": 86,
          "time": 63.825829031250684,
          "velocity": 0.7874015748031497,
          "duration": 0.13392843750000338
        },
        {
          "name": "C7",
          "midi": 96,
          "time": 63.825829031250684,
          "velocity": 0.7874015748031497,
          "duration": 0.13392843750000338
        },
        {
          "name": "D7",
          "midi": 98,
          "time": 63.825829031250684,
          "velocity": 0.7874015748031497,
          "duration": 0.13392843750000338
        },
        {
          "name": "D#7",
          "midi": 99,
          "time": 63.825829031250684,
          "velocity": 0.7874015748031497,
          "duration": 0.13392843750000338
        },
        {
          "name": "C#4",
          "midi": 61,
          "time": 64.1124358875007,
          "velocity": 0.7874015748031497,
          "duration": 0.13214272499999424
        },
        {
          "name": "C#5",
          "midi": 73,
          "time": 64.1124358875007,
          "velocity": 0.7874015748031497,
          "duration": 0.13214272499999424
        },
        {
          "name": "D5",
          "midi": 74,
          "time": 64.1124358875007,
          "velocity": 0.7874015748031497,
          "duration": 0.13214272499999424
        },
        {
          "name": "C6",
          "midi": 84,
          "time": 64.1124358875007,
          "velocity": 0.7874015748031497,
          "duration": 0.13214272499999424
        },
        {
          "name": "D6",
          "midi": 86,
          "time": 64.1124358875007,
          "velocity": 0.7874015748031497,
          "duration": 0.13214272499999424
        },
        {
          "name": "C7",
          "midi": 96,
          "time": 64.1124358875007,
          "velocity": 0.7874015748031497,
          "duration": 0.13214272499999424
        },
        {
          "name": "D7",
          "midi": 98,
          "time": 64.1124358875007,
          "velocity": 0.7874015748031497,
          "duration": 0.13214272499999424
        },
        {
          "name": "D#7",
          "midi": 99,
          "time": 64.1124358875007,
          "velocity": 0.7874015748031497,
          "duration": 0.13214272499999424
        },
        {
          "name": "C#4",
          "midi": 61,
          "time": 64.39725703125069,
          "velocity": 0.7874015748031497,
          "duration": 0.4196424375000021
        },
        {
          "name": "C#5",
          "midi": 73,
          "time": 64.39725703125069,
          "velocity": 0.7874015748031497,
          "duration": 0.4196424375000021
        },
        {
          "name": "D5",
          "midi": 74,
          "time": 64.39725703125069,
          "velocity": 0.7874015748031497,
          "duration": 0.4196424375000021
        },
        {
          "name": "C6",
          "midi": 84,
          "time": 64.39725703125069,
          "velocity": 0.7874015748031497,
          "duration": 0.4196424375000021
        },
        {
          "name": "D6",
          "midi": 86,
          "time": 64.39725703125069,
          "velocity": 0.7874015748031497,
          "duration": 0.4196424375000021
        },
        {
          "name": "C7",
          "midi": 96,
          "time": 64.39725703125069,
          "velocity": 0.7874015748031497,
          "duration": 0.4196424375000021
        },
        {
          "name": "D7",
          "midi": 98,
          "time": 64.39725703125069,
          "velocity": 0.7874015748031497,
          "duration": 0.4196424375000021
        },
        {
          "name": "D#7",
          "midi": 99,
          "time": 64.39725703125069,
          "velocity": 0.7874015748031497,
          "duration": 0.4196424375000021
        },
        {
          "name": "C#4",
          "midi": 61,
          "time": 65.25439903125068,
          "velocity": 0.7874015748031497,
          "duration": 0.2767854374999956
        },
        {
          "name": "C5",
          "midi": 72,
          "time": 65.25439903125068,
          "velocity": 0.7874015748031497,
          "duration": 0.2767854374999956
        },
        {
          "name": "C#5",
          "midi": 73,
          "time": 65.25439903125068,
          "velocity": 0.7874015748031497,
          "duration": 0.2767854374999956
        },
        {
          "name": "C6",
          "midi": 84,
          "time": 65.25439903125068,
          "velocity": 0.7874015748031497,
          "duration": 0.2767854374999956
        },
        {
          "name": "C#6",
          "midi": 85,
          "time": 65.25439903125068,
          "velocity": 0.7874015748031497,
          "duration": 0.2767854374999956
        },
        {
          "name": "C7",
          "midi": 96,
          "time": 65.25439903125068,
          "velocity": 0.7874015748031497,
          "duration": 0.2767854374999956
        },
        {
          "name": "C#7",
          "midi": 97,
          "time": 65.25439903125068,
          "velocity": 0.7874015748031497,
          "duration": 0.2767854374999956
        },
        {
          "name": "C4",
          "midi": 60,
          "time": 65.54011303125068,
          "velocity": 0.7874015748031497,
          "duration": 0.13392843750000338
        },
        {
          "name": "C5",
          "midi": 72,
          "time": 65.54011303125068,
          "velocity": 0.7874015748031497,
          "duration": 0.13392843750000338
        },
        {
          "name": "C6",
          "midi": 84,
          "time": 65.54011303125068,
          "velocity": 0.7874015748031497,
          "duration": 0.13392843750000338
        },
        {
          "name": "C7",
          "midi": 96,
          "time": 65.54011303125068,
          "velocity": 0.7874015748031497,
          "duration": 0.13392843750000338
        },
        {
          "name": "C6",
          "midi": 84,
          "time": 65.68297003125069,
          "velocity": 0.7874015748031497,
          "duration": 0.13392843750000338
        },
        {
          "name": "C7",
          "midi": 96,
          "time": 65.68297003125069,
          "velocity": 0.7874015748031497,
          "duration": 0.13392843750000338
        },
        {
          "name": "C4",
          "midi": 60,
          "time": 65.8258270312507,
          "velocity": 0.7874015748031497,
          "duration": 0.13392843750000338
        },
        {
          "name": "C5",
          "midi": 72,
          "time": 65.8258270312507,
          "velocity": 0.7874015748031497,
          "duration": 0.13392843750000338
        },
        {
          "name": "C6",
          "midi": 84,
          "time": 65.8258270312507,
          "velocity": 0.7874015748031497,
          "duration": 0.13392843750000338
        },
        {
          "name": "C7",
          "midi": 96,
          "time": 65.8258270312507,
          "velocity": 0.7874015748031497,
          "duration": 0.13392843750000338
        },
        {
          "name": "C6",
          "midi": 84,
          "time": 65.9686840312507,
          "velocity": 0.7874015748031497,
          "duration": 0.13392843750000338
        },
        {
          "name": "C7",
          "midi": 96,
          "time": 65.9686840312507,
          "velocity": 0.7874015748031497,
          "duration": 0.13392843750000338
        },
        {
          "name": "D4",
          "midi": 62,
          "time": 66.1124338875007,
          "velocity": 0.7874015748031497,
          "duration": 0.4187495812499975
        },
        {
          "name": "C#5",
          "midi": 73,
          "time": 66.1124338875007,
          "velocity": 0.7874015748031497,
          "duration": 0.4187495812499975
        },
        {
          "name": "D5",
          "midi": 74,
          "time": 66.1124338875007,
          "velocity": 0.7874015748031497,
          "duration": 0.4187495812499975
        },
        {
          "name": "C#6",
          "midi": 85,
          "time": 66.1124338875007,
          "velocity": 0.7874015748031497,
          "duration": 0.4187495812499975
        },
        {
          "name": "D6",
          "midi": 86,
          "time": 66.1124338875007,
          "velocity": 0.7874015748031497,
          "duration": 0.4187495812499975
        },
        {
          "name": "C#7",
          "midi": 97,
          "time": 66.1124338875007,
          "velocity": 0.7874015748031497,
          "duration": 0.4187495812499975
        },
        {
          "name": "D7",
          "midi": 98,
          "time": 66.1124338875007,
          "velocity": 0.7874015748031497,
          "duration": 0.4187495812499975
        },
        {
          "name": "C#4",
          "midi": 61,
          "time": 66.5401120312507,
          "velocity": 0.7874015748031497,
          "duration": 0.13392843750000338
        },
        {
          "name": "C#5",
          "midi": 73,
          "time": 66.5401120312507,
          "velocity": 0.7874015748031497,
          "duration": 0.13392843750000338
        },
        {
          "name": "C#6",
          "midi": 85,
          "time": 66.5401120312507,
          "velocity": 0.7874015748031497,
          "duration": 0.13392843750000338
        },
        {
          "name": "C#7",
          "midi": 97,
          "time": 66.5401120312507,
          "velocity": 0.7874015748031497,
          "duration": 0.13392843750000338
        },
        {
          "name": "C#6",
          "midi": 85,
          "time": 66.6829690312507,
          "velocity": 0.7874015748031497,
          "duration": 0.13392843750000338
        },
        {
          "name": "C#7",
          "midi": 97,
          "time": 66.6829690312507,
          "velocity": 0.7874015748031497,
          "duration": 0.13392843750000338
        },
        {
          "name": "C#4",
          "midi": 61,
          "time": 66.82582603125071,
          "velocity": 0.7874015748031497,
          "duration": 0.13392843750000338
        },
        {
          "name": "C#5",
          "midi": 73,
          "time": 66.82582603125071,
          "velocity": 0.7874015748031497,
          "duration": 0.13392843750000338
        },
        {
          "name": "C#6",
          "midi": 85,
          "time": 66.82582603125071,
          "velocity": 0.7874015748031497,
          "duration": 0.13392843750000338
        },
        {
          "name": "C#7",
          "midi": 97,
          "time": 66.82582603125071,
          "velocity": 0.7874015748031497,
          "duration": 0.13392843750000338
        },
        {
          "name": "D4",
          "midi": 62,
          "time": 66.96868303125072,
          "velocity": 0.7874015748031497,
          "duration": 0.4196424375000021
        },
        {
          "name": "D5",
          "midi": 74,
          "time": 66.96868303125072,
          "velocity": 0.7874015748031497,
          "duration": 0.4196424375000021
        },
        {
          "name": "D#5",
          "midi": 75,
          "time": 66.96868303125072,
          "velocity": 0.7874015748031497,
          "duration": 0.4196424375000021
        },
        {
          "name": "D6",
          "midi": 86,
          "time": 66.96868303125072,
          "velocity": 0.7874015748031497,
          "duration": 0.4196424375000021
        },
        {
          "name": "D#6",
          "midi": 87,
          "time": 66.96868303125072,
          "velocity": 0.7874015748031497,
          "duration": 0.4196424375000021
        },
        {
          "name": "D7",
          "midi": 98,
          "time": 66.96868303125072,
          "velocity": 0.7874015748031497,
          "duration": 0.4196424375000021
        },
        {
          "name": "D#7",
          "midi": 99,
          "time": 66.96868303125072,
          "velocity": 0.7874015748031497,
          "duration": 0.4196424375000021
        },
        {
          "name": "D4",
          "midi": 62,
          "time": 67.39725403125072,
          "velocity": 0.7874015748031497,
          "duration": 0.13392843750000338
        },
        {
          "name": "D5",
          "midi": 74,
          "time": 67.39725403125072,
          "velocity": 0.7874015748031497,
          "duration": 0.13392843750000338
        },
        {
          "name": "D6",
          "midi": 86,
          "time": 67.39725403125072,
          "velocity": 0.7874015748031497,
          "duration": 0.13392843750000338
        },
        {
          "name": "D7",
          "midi": 98,
          "time": 67.39725403125072,
          "velocity": 0.7874015748031497,
          "duration": 0.13392843750000338
        },
        {
          "name": "D6",
          "midi": 86,
          "time": 67.54011103125073,
          "velocity": 0.7874015748031497,
          "duration": 0.13392843750000338
        },
        {
          "name": "D7",
          "midi": 98,
          "time": 67.54011103125073,
          "velocity": 0.7874015748031497,
          "duration": 0.13392843750000338
        },
        {
          "name": "C#4",
          "midi": 61,
          "time": 67.68296803125074,
          "velocity": 0.7874015748031497,
          "duration": 0.13392843750000338
        },
        {
          "name": "D5",
          "midi": 74,
          "time": 67.68296803125074,
          "velocity": 0.7874015748031497,
          "duration": 0.13392843750000338
        },
        {
          "name": "D6",
          "midi": 86,
          "time": 67.68296803125074,
          "velocity": 0.7874015748031497,
          "duration": 0.13392843750000338
        },
        {
          "name": "D7",
          "midi": 98,
          "time": 67.68296803125074,
          "velocity": 0.7874015748031497,
          "duration": 0.13392843750000338
        },
        {
          "name": "D4",
          "midi": 62,
          "time": 67.82582503125074,
          "velocity": 0.7874015748031497,
          "duration": 0.4187495812499975
        },
        {
          "name": "D5",
          "midi": 74,
          "time": 67.82582503125074,
          "velocity": 0.7874015748031497,
          "duration": 0.4187495812499975
        },
        {
          "name": "D#5",
          "midi": 75,
          "time": 67.82582503125074,
          "velocity": 0.7874015748031497,
          "duration": 0.4187495812499975
        },
        {
          "name": "D6",
          "midi": 86,
          "time": 67.82582503125074,
          "velocity": 0.7874015748031497,
          "duration": 0.4187495812499975
        },
        {
          "name": "D#6",
          "midi": 87,
          "time": 67.82582503125074,
          "velocity": 0.7874015748031497,
          "duration": 0.4187495812499975
        },
        {
          "name": "D7",
          "midi": 98,
          "time": 67.82582503125074,
          "velocity": 0.7874015748031497,
          "duration": 0.4187495812499975
        },
        {
          "name": "D#7",
          "midi": 99,
          "time": 67.82582503125074,
          "velocity": 0.7874015748031497,
          "duration": 0.4187495812499975
        },
        {
          "name": "C#4",
          "midi": 61,
          "time": 68.25439603125074,
          "velocity": 0.7874015748031497,
          "duration": 0.13392843750000338
        },
        {
          "name": "D5",
          "midi": 74,
          "time": 68.25439603125074,
          "velocity": 0.7874015748031497,
          "duration": 0.13392843750000338
        },
        {
          "name": "D6",
          "midi": 86,
          "time": 68.25439603125074,
          "velocity": 0.7874015748031497,
          "duration": 0.13392843750000338
        },
        {
          "name": "D7",
          "midi": 98,
          "time": 68.25439603125074,
          "velocity": 0.7874015748031497,
          "duration": 0.13392843750000338
        },
        {
          "name": "D6",
          "midi": 86,
          "time": 68.39725303125074,
          "velocity": 0.7874015748031497,
          "duration": 0.13392843750000338
        },
        {
          "name": "D7",
          "midi": 98,
          "time": 68.39725303125074,
          "velocity": 0.7874015748031497,
          "duration": 0.13392843750000338
        },
        {
          "name": "C#4",
          "midi": 61,
          "time": 68.54011003125075,
          "velocity": 0.7874015748031497,
          "duration": 0.13392843750000338
        },
        {
          "name": "D5",
          "midi": 74,
          "time": 68.54011003125075,
          "velocity": 0.7874015748031497,
          "duration": 0.13392843750000338
        },
        {
          "name": "D6",
          "midi": 86,
          "time": 68.54011003125075,
          "velocity": 0.7874015748031497,
          "duration": 0.13392843750000338
        },
        {
          "name": "D7",
          "midi": 98,
          "time": 68.54011003125075,
          "velocity": 0.7874015748031497,
          "duration": 0.13392843750000338
        },
        {
          "name": "D4",
          "midi": 62,
          "time": 68.68296703125075,
          "velocity": 0.7874015748031497,
          "duration": 0.4196424375000021
        },
        {
          "name": "D#5",
          "midi": 75,
          "time": 68.68296703125075,
          "velocity": 0.7874015748031497,
          "duration": 0.4196424375000021
        },
        {
          "name": "D#6",
          "midi": 87,
          "time": 68.68296703125075,
          "velocity": 0.7874015748031497,
          "duration": 0.4196424375000021
        },
        {
          "name": "E6",
          "midi": 88,
          "time": 68.68296703125075,
          "velocity": 0.7874015748031497,
          "duration": 0.4196424375000021
        },
        {
          "name": "D#7",
          "midi": 99,
          "time": 68.68296703125075,
          "velocity": 0.7874015748031497,
          "duration": 0.4196424375000021
        },
        {
          "name": "E7",
          "midi": 100,
          "time": 68.68296703125075,
          "velocity": 0.7874015748031497,
          "duration": 0.4196424375000021
        },
        {
          "name": "C#4",
          "midi": 61,
          "time": 69.11243088750075,
          "velocity": 0.7874015748031497,
          "duration": 0.13214272499999424
        },
        {
          "name": "D5",
          "midi": 74,
          "time": 69.11243088750075,
          "velocity": 0.7874015748031497,
          "duration": 0.13214272499999424
        },
        {
          "name": "D#5",
          "midi": 75,
          "time": 69.11243088750075,
          "velocity": 0.7874015748031497,
          "duration": 0.13214272499999424
        },
        {
          "name": "D#6",
          "midi": 87,
          "time": 69.11243088750075,
          "velocity": 0.7874015748031497,
          "duration": 0.13214272499999424
        },
        {
          "name": "D#7",
          "midi": 99,
          "time": 69.11243088750075,
          "velocity": 0.7874015748031497,
          "duration": 0.13214272499999424
        },
        {
          "name": "D#6",
          "midi": 87,
          "time": 69.25439503125074,
          "velocity": 0.7874015748031497,
          "duration": 0.13392843750000338
        },
        {
          "name": "D#7",
          "midi": 99,
          "time": 69.25439503125074,
          "velocity": 0.7874015748031497,
          "duration": 0.13392843750000338
        },
        {
          "name": "C#4",
          "midi": 61,
          "time": 69.39725203125074,
          "velocity": 0.7874015748031497,
          "duration": 0.13392843750000338
        },
        {
          "name": "D5",
          "midi": 74,
          "time": 69.39725203125074,
          "velocity": 0.7874015748031497,
          "duration": 0.13392843750000338
        },
        {
          "name": "D#5",
          "midi": 75,
          "time": 69.39725203125074,
          "velocity": 0.7874015748031497,
          "duration": 0.13392843750000338
        },
        {
          "name": "D#6",
          "midi": 87,
          "time": 69.39725203125074,
          "velocity": 0.7874015748031497,
          "duration": 0.13392843750000338
        },
        {
          "name": "D#7",
          "midi": 99,
          "time": 69.39725203125074,
          "velocity": 0.7874015748031497,
          "duration": 0.13392843750000338
        },
        {
          "name": "C#4",
          "midi": 61,
          "time": 69.54010903125075,
          "velocity": 0.7874015748031497,
          "duration": 0.4196424375000021
        },
        {
          "name": "D4",
          "midi": 62,
          "time": 69.54010903125075,
          "velocity": 0.7874015748031497,
          "duration": 0.4196424375000021
        },
        {
          "name": "C#5",
          "midi": 73,
          "time": 69.54010903125075,
          "velocity": 0.7874015748031497,
          "duration": 0.4196424375000021
        },
        {
          "name": "D#5",
          "midi": 75,
          "time": 69.54010903125075,
          "velocity": 0.7874015748031497,
          "duration": 0.4196424375000021
        },
        {
          "name": "D6",
          "midi": 86,
          "time": 69.54010903125075,
          "velocity": 0.7874015748031497,
          "duration": 0.4196424375000021
        },
        {
          "name": "D#6",
          "midi": 87,
          "time": 69.54010903125075,
          "velocity": 0.7874015748031497,
          "duration": 0.4196424375000021
        },
        {
          "name": "D7",
          "midi": 98,
          "time": 69.54010903125075,
          "velocity": 0.7874015748031497,
          "duration": 0.4196424375000021
        },
        {
          "name": "D#7",
          "midi": 99,
          "time": 69.54010903125075,
          "velocity": 0.7874015748031497,
          "duration": 0.4196424375000021
        },
        {
          "name": "C#4",
          "midi": 61,
          "time": 69.96868003125076,
          "velocity": 0.7874015748031497,
          "duration": 0.13392843750000338
        },
        {
          "name": "C#5",
          "midi": 73,
          "time": 69.96868003125076,
          "velocity": 0.7874015748031497,
          "duration": 0.13392843750000338
        },
        {
          "name": "D6",
          "midi": 86,
          "time": 69.96868003125076,
          "velocity": 0.7874015748031497,
          "duration": 0.13392843750000338
        },
        {
          "name": "D7",
          "midi": 98,
          "time": 69.96868003125076,
          "velocity": 0.7874015748031497,
          "duration": 0.13392843750000338
        },
        {
          "name": "D6",
          "midi": 86,
          "time": 70.11242988750075,
          "velocity": 0.7874015748031497,
          "duration": 0.13214272499999424
        },
        {
          "name": "D7",
          "midi": 98,
          "time": 70.11242988750075,
          "velocity": 0.7874015748031497,
          "duration": 0.13214272499999424
        },
        {
          "name": "C#4",
          "midi": 61,
          "time": 70.25439403125074,
          "velocity": 0.7874015748031497,
          "duration": 0.13392843750000338
        },
        {
          "name": "C#5",
          "midi": 73,
          "time": 70.25439403125074,
          "velocity": 0.7874015748031497,
          "duration": 0.13392843750000338
        },
        {
          "name": "D6",
          "midi": 86,
          "time": 70.25439403125074,
          "velocity": 0.7874015748031497,
          "duration": 0.13392843750000338
        },
        {
          "name": "D7",
          "midi": 98,
          "time": 70.25439403125074,
          "velocity": 0.7874015748031497,
          "duration": 0.13392843750000338
        },
        {
          "name": "D4",
          "midi": 62,
          "time": 70.39725103125075,
          "velocity": 0.7874015748031497,
          "duration": 0.4196424375000021
        },
        {
          "name": "D#5",
          "midi": 75,
          "time": 70.39725103125075,
          "velocity": 0.7874015748031497,
          "duration": 0.4196424375000021
        },
        {
          "name": "D#6",
          "midi": 87,
          "time": 70.39725103125075,
          "velocity": 0.7874015748031497,
          "duration": 0.4196424375000021
        },
        {
          "name": "E6",
          "midi": 88,
          "time": 70.39725103125075,
          "velocity": 0.7874015748031497,
          "duration": 0.4196424375000021
        },
        {
          "name": "D#7",
          "midi": 99,
          "time": 70.39725103125075,
          "velocity": 0.7874015748031497,
          "duration": 0.4196424375000021
        },
        {
          "name": "E7",
          "midi": 100,
          "time": 70.39725103125075,
          "velocity": 0.7874015748031497,
          "duration": 0.4196424375000021
        },
        {
          "name": "C#4",
          "midi": 61,
          "time": 70.82582203125075,
          "velocity": 0.7874015748031497,
          "duration": 0.13392843750000338
        },
        {
          "name": "D5",
          "midi": 74,
          "time": 70.82582203125075,
          "velocity": 0.7874015748031497,
          "duration": 0.13392843750000338
        },
        {
          "name": "D#5",
          "midi": 75,
          "time": 70.82582203125075,
          "velocity": 0.7874015748031497,
          "duration": 0.13392843750000338
        },
        {
          "name": "D#6",
          "midi": 87,
          "time": 70.82582203125075,
          "velocity": 0.7874015748031497,
          "duration": 0.13392843750000338
        },
        {
          "name": "D#7",
          "midi": 99,
          "time": 70.82582203125075,
          "velocity": 0.7874015748031497,
          "duration": 0.13392843750000338
        },
        {
          "name": "D#6",
          "midi": 87,
          "time": 70.96867903125076,
          "velocity": 0.7874015748031497,
          "duration": 0.13392843750000338
        },
        {
          "name": "D#7",
          "midi": 99,
          "time": 70.96867903125076,
          "velocity": 0.7874015748031497,
          "duration": 0.13392843750000338
        },
        {
          "name": "D4",
          "midi": 62,
          "time": 71.11242888750076,
          "velocity": 0.7874015748031497,
          "duration": 0.13214272499999424
        },
        {
          "name": "D5",
          "midi": 74,
          "time": 71.11242888750076,
          "velocity": 0.7874015748031497,
          "duration": 0.13214272499999424
        },
        {
          "name": "D#5",
          "midi": 75,
          "time": 71.11242888750076,
          "velocity": 0.7874015748031497,
          "duration": 0.13214272499999424
        },
        {
          "name": "D#6",
          "midi": 87,
          "time": 71.11242888750076,
          "velocity": 0.7874015748031497,
          "duration": 0.13214272499999424
        },
        {
          "name": "D#7",
          "midi": 99,
          "time": 71.11242888750076,
          "velocity": 0.7874015748031497,
          "duration": 0.13214272499999424
        },
        {
          "name": "C#4",
          "midi": 61,
          "time": 71.25439303125074,
          "velocity": 0.7874015748031497,
          "duration": 0.4196424375000021
        },
        {
          "name": "C#5",
          "midi": 73,
          "time": 71.25439303125074,
          "velocity": 0.7874015748031497,
          "duration": 0.4196424375000021
        },
        {
          "name": "D5",
          "midi": 74,
          "time": 71.25439303125074,
          "velocity": 0.7874015748031497,
          "duration": 0.4196424375000021
        },
        {
          "name": "C#6",
          "midi": 85,
          "time": 71.25439303125074,
          "velocity": 0.7874015748031497,
          "duration": 0.4196424375000021
        },
        {
          "name": "D6",
          "midi": 86,
          "time": 71.25439303125074,
          "velocity": 0.7874015748031497,
          "duration": 0.4196424375000021
        },
        {
          "name": "C#7",
          "midi": 97,
          "time": 71.25439303125074,
          "velocity": 0.7874015748031497,
          "duration": 0.4196424375000021
        },
        {
          "name": "D7",
          "midi": 98,
          "time": 71.25439303125074,
          "velocity": 0.7874015748031497,
          "duration": 0.4196424375000021
        },
        {
          "name": "C#4",
          "midi": 61,
          "time": 71.68296403125075,
          "velocity": 0.7874015748031497,
          "duration": 0.13392843750000338
        },
        {
          "name": "C#5",
          "midi": 73,
          "time": 71.68296403125075,
          "velocity": 0.7874015748031497,
          "duration": 0.13392843750000338
        },
        {
          "name": "C#6",
          "midi": 85,
          "time": 71.68296403125075,
          "velocity": 0.7874015748031497,
          "duration": 0.13392843750000338
        },
        {
          "name": "C#7",
          "midi": 97,
          "time": 71.68296403125075,
          "velocity": 0.7874015748031497,
          "duration": 0.13392843750000338
        },
        {
          "name": "C#6",
          "midi": 85,
          "time": 71.82582103125075,
          "velocity": 0.7874015748031497,
          "duration": 0.13392843750000338
        },
        {
          "name": "C#7",
          "midi": 97,
          "time": 71.82582103125075,
          "velocity": 0.7874015748031497,
          "duration": 0.13392843750000338
        },
        {
          "name": "C#4",
          "midi": 61,
          "time": 71.96867803125076,
          "velocity": 0.7874015748031497,
          "duration": 0.13392843750000338
        },
        {
          "name": "C#5",
          "midi": 73,
          "time": 71.96867803125076,
          "velocity": 0.7874015748031497,
          "duration": 0.13392843750000338
        },
        {
          "name": "C#6",
          "midi": 85,
          "time": 71.96867803125076,
          "velocity": 0.7874015748031497,
          "duration": 0.13392843750000338
        },
        {
          "name": "C#7",
          "midi": 97,
          "time": 71.96867803125076,
          "velocity": 0.7874015748031497,
          "duration": 0.13392843750000338
        },
        {
          "name": "C4",
          "midi": 60,
          "time": 72.11242788750076,
          "velocity": 0.7874015748031497,
          "duration": 0.27589258125000526
        },
        {
          "name": "C5",
          "midi": 72,
          "time": 72.11242788750076,
          "velocity": 0.7874015748031497,
          "duration": 0.27589258125000526
        },
        {
          "name": "C#5",
          "midi": 73,
          "time": 72.11242788750076,
          "velocity": 0.7874015748031497,
          "duration": 0.27589258125000526
        },
        {
          "name": "C6",
          "midi": 84,
          "time": 72.11242788750076,
          "velocity": 0.7874015748031497,
          "duration": 0.27589258125000526
        },
        {
          "name": "C#6",
          "midi": 85,
          "time": 72.11242788750076,
          "velocity": 0.7874015748031497,
          "duration": 0.27589258125000526
        },
        {
          "name": "C7",
          "midi": 96,
          "time": 72.11242788750076,
          "velocity": 0.7874015748031497,
          "duration": 0.27589258125000526
        },
        {
          "name": "C#7",
          "midi": 97,
          "time": 72.11242788750076,
          "velocity": 0.7874015748031497,
          "duration": 0.27589258125000526
        },
        {
          "name": "C4",
          "midi": 60,
          "time": 72.39724903125077,
          "velocity": 0.7874015748031497,
          "duration": 0.13392843750000338
        },
        {
          "name": "C5",
          "midi": 72,
          "time": 72.39724903125077,
          "velocity": 0.7874015748031497,
          "duration": 0.13392843750000338
        },
        {
          "name": "C6",
          "midi": 84,
          "time": 72.39724903125077,
          "velocity": 0.7874015748031497,
          "duration": 0.13392843750000338
        },
        {
          "name": "C7",
          "midi": 96,
          "time": 72.39724903125077,
          "velocity": 0.7874015748031497,
          "duration": 0.13392843750000338
        },
        {
          "name": "C6",
          "midi": 84,
          "time": 72.54010603125077,
          "velocity": 0.7874015748031497,
          "duration": 0.13392843750000338
        },
        {
          "name": "C7",
          "midi": 96,
          "time": 72.54010603125077,
          "velocity": 0.7874015748031497,
          "duration": 0.13392843750000338
        },
        {
          "name": "C4",
          "midi": 60,
          "time": 72.68296303125078,
          "velocity": 0.7874015748031497,
          "duration": 0.13392843750000338
        },
        {
          "name": "C5",
          "midi": 72,
          "time": 72.68296303125078,
          "velocity": 0.7874015748031497,
          "duration": 0.13392843750000338
        },
        {
          "name": "C6",
          "midi": 84,
          "time": 72.68296303125078,
          "velocity": 0.7874015748031497,
          "duration": 0.13392843750000338
        },
        {
          "name": "C7",
          "midi": 96,
          "time": 72.68296303125078,
          "velocity": 0.7874015748031497,
          "duration": 0.13392843750000338
        },
        {
          "name": "C6",
          "midi": 84,
          "time": 72.82582003125079,
          "velocity": 0.7874015748031497,
          "duration": 0.13392843750000338
        },
        {
          "name": "C7",
          "midi": 96,
          "time": 72.82582003125079,
          "velocity": 0.7874015748031497,
          "duration": 0.13392843750000338
        },
        {
          "name": "C#4",
          "midi": 61,
          "time": 72.96867703125079,
          "velocity": 0.7874015748031497,
          "duration": 0.4196424375000021
        },
        {
          "name": "C#5",
          "midi": 73,
          "time": 72.96867703125079,
          "velocity": 0.7874015748031497,
          "duration": 0.4196424375000021
        },
        {
          "name": "D5",
          "midi": 74,
          "time": 72.96867703125079,
          "velocity": 0.7874015748031497,
          "duration": 0.4196424375000021
        },
        {
          "name": "C#6",
          "midi": 85,
          "time": 72.96867703125079,
          "velocity": 0.7874015748031497,
          "duration": 0.4196424375000021
        },
        {
          "name": "D6",
          "midi": 86,
          "time": 72.96867703125079,
          "velocity": 0.7874015748031497,
          "duration": 0.4196424375000021
        },
        {
          "name": "C#7",
          "midi": 97,
          "time": 72.96867703125079,
          "velocity": 0.7874015748031497,
          "duration": 0.4196424375000021
        },
        {
          "name": "D7",
          "midi": 98,
          "time": 72.96867703125079,
          "velocity": 0.7874015748031497,
          "duration": 0.4196424375000021
        },
        {
          "name": "C#4",
          "midi": 61,
          "time": 73.3972480312508,
          "velocity": 0.7874015748031497,
          "duration": 0.13392843750000338
        },
        {
          "name": "C#5",
          "midi": 73,
          "time": 73.3972480312508,
          "velocity": 0.7874015748031497,
          "duration": 0.13392843750000338
        },
        {
          "name": "C#6",
          "midi": 85,
          "time": 73.3972480312508,
          "velocity": 0.7874015748031497,
          "duration": 0.13392843750000338
        },
        {
          "name": "C#7",
          "midi": 97,
          "time": 73.3972480312508,
          "velocity": 0.7874015748031497,
          "duration": 0.13392843750000338
        },
        {
          "name": "C#6",
          "midi": 85,
          "time": 73.5401050312508,
          "velocity": 0.7874015748031497,
          "duration": 0.13392843750000338
        },
        {
          "name": "C#7",
          "midi": 97,
          "time": 73.5401050312508,
          "velocity": 0.7874015748031497,
          "duration": 0.13392843750000338
        },
        {
          "name": "C#4",
          "midi": 61,
          "time": 73.68296203125081,
          "velocity": 0.7874015748031497,
          "duration": 0.13392843750000338
        },
        {
          "name": "C#5",
          "midi": 73,
          "time": 73.68296203125081,
          "velocity": 0.7874015748031497,
          "duration": 0.13392843750000338
        },
        {
          "name": "C#6",
          "midi": 85,
          "time": 73.68296203125081,
          "velocity": 0.7874015748031497,
          "duration": 0.13392843750000338
        },
        {
          "name": "C#7",
          "midi": 97,
          "time": 73.68296203125081,
          "velocity": 0.7874015748031497,
          "duration": 0.13392843750000338
        },
        {
          "name": "D4",
          "midi": 62,
          "time": 73.82581903125082,
          "velocity": 0.7874015748031497,
          "duration": 0.4187495812499975
        },
        {
          "name": "D5",
          "midi": 74,
          "time": 73.82581903125082,
          "velocity": 0.7874015748031497,
          "duration": 0.4187495812499975
        },
        {
          "name": "D#5",
          "midi": 75,
          "time": 73.82581903125082,
          "velocity": 0.7874015748031497,
          "duration": 0.4187495812499975
        },
        {
          "name": "D6",
          "midi": 86,
          "time": 73.82581903125082,
          "velocity": 0.7874015748031497,
          "duration": 0.4187495812499975
        },
        {
          "name": "D#6",
          "midi": 87,
          "time": 73.82581903125082,
          "velocity": 0.7874015748031497,
          "duration": 0.4187495812499975
        },
        {
          "name": "D7",
          "midi": 98,
          "time": 73.82581903125082,
          "velocity": 0.7874015748031497,
          "duration": 0.4187495812499975
        },
        {
          "name": "D#7",
          "midi": 99,
          "time": 73.82581903125082,
          "velocity": 0.7874015748031497,
          "duration": 0.4187495812499975
        },
        {
          "name": "D4",
          "midi": 62,
          "time": 74.25439003125081,
          "velocity": 0.7874015748031497,
          "duration": 0.13392843750000338
        },
        {
          "name": "D5",
          "midi": 74,
          "time": 74.25439003125081,
          "velocity": 0.7874015748031497,
          "duration": 0.13392843750000338
        },
        {
          "name": "D6",
          "midi": 86,
          "time": 74.25439003125081,
          "velocity": 0.7874015748031497,
          "duration": 0.13392843750000338
        },
        {
          "name": "D7",
          "midi": 98,
          "time": 74.25439003125081,
          "velocity": 0.7874015748031497,
          "duration": 0.13392843750000338
        },
        {
          "name": "D6",
          "midi": 86,
          "time": 74.39724703125081,
          "velocity": 0.7874015748031497,
          "duration": 0.13392843750000338
        },
        {
          "name": "D7",
          "midi": 98,
          "time": 74.39724703125081,
          "velocity": 0.7874015748031497,
          "duration": 0.13392843750000338
        },
        {
          "name": "C#4",
          "midi": 61,
          "time": 74.54010403125082,
          "velocity": 0.7874015748031497,
          "duration": 0.13392843750000338
        },
        {
          "name": "D5",
          "midi": 74,
          "time": 74.54010403125082,
          "velocity": 0.7874015748031497,
          "duration": 0.13392843750000338
        },
        {
          "name": "D6",
          "midi": 86,
          "time": 74.54010403125082,
          "velocity": 0.7874015748031497,
          "duration": 0.13392843750000338
        },
        {
          "name": "D7",
          "midi": 98,
          "time": 74.54010403125082,
          "velocity": 0.7874015748031497,
          "duration": 0.13392843750000338
        },
        {
          "name": "D4",
          "midi": 62,
          "time": 74.68296103125083,
          "velocity": 0.7874015748031497,
          "duration": 0.4196424375000021
        },
        {
          "name": "D5",
          "midi": 74,
          "time": 74.68296103125083,
          "velocity": 0.7874015748031497,
          "duration": 0.4196424375000021
        },
        {
          "name": "D#5",
          "midi": 75,
          "time": 74.68296103125083,
          "velocity": 0.7874015748031497,
          "duration": 0.4196424375000021
        },
        {
          "name": "D6",
          "midi": 86,
          "time": 74.68296103125083,
          "velocity": 0.7874015748031497,
          "duration": 0.4196424375000021
        },
        {
          "name": "D#6",
          "midi": 87,
          "time": 74.68296103125083,
          "velocity": 0.7874015748031497,
          "duration": 0.4196424375000021
        },
        {
          "name": "D7",
          "midi": 98,
          "time": 74.68296103125083,
          "velocity": 0.7874015748031497,
          "duration": 0.4196424375000021
        },
        {
          "name": "D#7",
          "midi": 99,
          "time": 74.68296103125083,
          "velocity": 0.7874015748031497,
          "duration": 0.4196424375000021
        },
        {
          "name": "C#4",
          "midi": 61,
          "time": 75.11242488750082,
          "velocity": 0.7874015748031497,
          "duration": 0.13214272499999424
        },
        {
          "name": "D5",
          "midi": 74,
          "time": 75.11242488750082,
          "velocity": 0.7874015748031497,
          "duration": 0.13214272499999424
        },
        {
          "name": "D6",
          "midi": 86,
          "time": 75.11242488750082,
          "velocity": 0.7874015748031497,
          "duration": 0.13214272499999424
        },
        {
          "name": "D7",
          "midi": 98,
          "time": 75.11242488750082,
          "velocity": 0.7874015748031497,
          "duration": 0.13214272499999424
        },
        {
          "name": "D6",
          "midi": 86,
          "time": 75.25438903125081,
          "velocity": 0.7874015748031497,
          "duration": 0.13392843750000338
        },
        {
          "name": "D7",
          "midi": 98,
          "time": 75.25438903125081,
          "velocity": 0.7874015748031497,
          "duration": 0.13392843750000338
        },
        {
          "name": "D4",
          "midi": 62,
          "time": 75.39724603125082,
          "velocity": 0.7874015748031497,
          "duration": 0.13392843750000338
        },
        {
          "name": "D5",
          "midi": 74,
          "time": 75.39724603125082,
          "velocity": 0.7874015748031497,
          "duration": 0.13392843750000338
        },
        {
          "name": "D6",
          "midi": 86,
          "time": 75.39724603125082,
          "velocity": 0.7874015748031497,
          "duration": 0.13392843750000338
        },
        {
          "name": "D7",
          "midi": 98,
          "time": 75.39724603125082,
          "velocity": 0.7874015748031497,
          "duration": 0.13392843750000338
        },
        {
          "name": "D4",
          "midi": 62,
          "time": 75.54010303125082,
          "velocity": 0.7874015748031497,
          "duration": 0.4196424375000021
        },
        {
          "name": "C#5",
          "midi": 73,
          "time": 75.54010303125082,
          "velocity": 0.7874015748031497,
          "duration": 0.4196424375000021
        },
        {
          "name": "D5",
          "midi": 74,
          "time": 75.54010303125082,
          "velocity": 0.7874015748031497,
          "duration": 0.4196424375000021
        },
        {
          "name": "C#6",
          "midi": 85,
          "time": 75.54010303125082,
          "velocity": 0.7874015748031497,
          "duration": 0.4196424375000021
        },
        {
          "name": "D6",
          "midi": 86,
          "time": 75.54010303125082,
          "velocity": 0.7874015748031497,
          "duration": 0.4196424375000021
        },
        {
          "name": "C#7",
          "midi": 97,
          "time": 75.54010303125082,
          "velocity": 0.7874015748031497,
          "duration": 0.4196424375000021
        },
        {
          "name": "D7",
          "midi": 98,
          "time": 75.54010303125082,
          "velocity": 0.7874015748031497,
          "duration": 0.4196424375000021
        },
        {
          "name": "C#4",
          "midi": 61,
          "time": 75.96867403125083,
          "velocity": 0.7874015748031497,
          "duration": 0.13392843750000338
        },
        {
          "name": "C#5",
          "midi": 73,
          "time": 75.96867403125083,
          "velocity": 0.7874015748031497,
          "duration": 0.13392843750000338
        },
        {
          "name": "C#6",
          "midi": 85,
          "time": 75.96867403125083,
          "velocity": 0.7874015748031497,
          "duration": 0.13392843750000338
        },
        {
          "name": "C#7",
          "midi": 97,
          "time": 75.96867403125083,
          "velocity": 0.7874015748031497,
          "duration": 0.13392843750000338
        },
        {
          "name": "C#6",
          "midi": 85,
          "time": 76.11242388750082,
          "velocity": 0.7874015748031497,
          "duration": 0.13214272499999424
        },
        {
          "name": "C#7",
          "midi": 97,
          "time": 76.11242388750082,
          "velocity": 0.7874015748031497,
          "duration": 0.13214272499999424
        },
        {
          "name": "C#4",
          "midi": 61,
          "time": 76.25438803125081,
          "velocity": 0.7874015748031497,
          "duration": 0.13392843750000338
        },
        {
          "name": "C#5",
          "midi": 73,
          "time": 76.25438803125081,
          "velocity": 0.7874015748031497,
          "duration": 0.13392843750000338
        },
        {
          "name": "C#6",
          "midi": 85,
          "time": 76.25438803125081,
          "velocity": 0.7874015748031497,
          "duration": 0.13392843750000338
        },
        {
          "name": "C#7",
          "midi": 97,
          "time": 76.25438803125081,
          "velocity": 0.7874015748031497,
          "duration": 0.13392843750000338
        },
        {
          "name": "D4",
          "midi": 62,
          "time": 76.39724503125082,
          "velocity": 0.7874015748031497,
          "duration": 0.4196424375000021
        },
        {
          "name": "D#5",
          "midi": 75,
          "time": 76.39724503125082,
          "velocity": 0.7874015748031497,
          "duration": 0.4196424375000021
        },
        {
          "name": "D#6",
          "midi": 87,
          "time": 76.39724503125082,
          "velocity": 0.7874015748031497,
          "duration": 0.4196424375000021
        },
        {
          "name": "E6",
          "midi": 88,
          "time": 76.39724503125082,
          "velocity": 0.7874015748031497,
          "duration": 0.4196424375000021
        },
        {
          "name": "D#7",
          "midi": 99,
          "time": 76.39724503125082,
          "velocity": 0.7874015748031497,
          "duration": 0.4196424375000021
        },
        {
          "name": "E7",
          "midi": 100,
          "time": 76.39724503125082,
          "velocity": 0.7874015748031497,
          "duration": 0.4196424375000021
        },
        {
          "name": "C#4",
          "midi": 61,
          "time": 76.82581603125082,
          "velocity": 0.7874015748031497,
          "duration": 0.13392843750000338
        },
        {
          "name": "D4",
          "midi": 62,
          "time": 76.82581603125082,
          "velocity": 0.7874015748031497,
          "duration": 0.13392843750000338
        },
        {
          "name": "D5",
          "midi": 74,
          "time": 76.82581603125082,
          "velocity": 0.7874015748031497,
          "duration": 0.13392843750000338
        },
        {
          "name": "D#5",
          "midi": 75,
          "time": 76.82581603125082,
          "velocity": 0.7874015748031497,
          "duration": 0.13392843750000338
        },
        {
          "name": "D#6",
          "midi": 87,
          "time": 76.82581603125082,
          "velocity": 0.7874015748031497,
          "duration": 0.13392843750000338
        },
        {
          "name": "D#7",
          "midi": 99,
          "time": 76.82581603125082,
          "velocity": 0.7874015748031497,
          "duration": 0.13392843750000338
        },
        {
          "name": "D#6",
          "midi": 87,
          "time": 76.96867303125083,
          "velocity": 0.7874015748031497,
          "duration": 0.13392843750000338
        },
        {
          "name": "D#7",
          "midi": 99,
          "time": 76.96867303125083,
          "velocity": 0.7874015748031497,
          "duration": 0.13392843750000338
        },
        {
          "name": "D5",
          "midi": 74,
          "time": 77.11242288750083,
          "velocity": 0.7874015748031497,
          "duration": 0.13214272499999424
        },
        {
          "name": "D#5",
          "midi": 75,
          "time": 77.11242288750083,
          "velocity": 0.7874015748031497,
          "duration": 0.13214272499999424
        },
        {
          "name": "D#6",
          "midi": 87,
          "time": 77.11242288750083,
          "velocity": 0.7874015748031497,
          "duration": 0.13214272499999424
        },
        {
          "name": "D#7",
          "midi": 99,
          "time": 77.11242288750083,
          "velocity": 0.7874015748031497,
          "duration": 0.13214272499999424
        },
        {
          "name": "C#4",
          "midi": 61,
          "time": 77.25438703125081,
          "velocity": 0.7874015748031497,
          "duration": 0.13392843750000338
        },
        {
          "name": "D4",
          "midi": 62,
          "time": 77.25438703125081,
          "velocity": 0.7874015748031497,
          "duration": 0.13392843750000338
        },
        {
          "name": "C#5",
          "midi": 73,
          "time": 77.25438703125081,
          "velocity": 0.7874015748031497,
          "duration": 0.13392843750000338
        },
        {
          "name": "D#5",
          "midi": 75,
          "time": 77.25438703125081,
          "velocity": 0.7874015748031497,
          "duration": 0.13392843750000338
        },
        {
          "name": "C#6",
          "midi": 85,
          "time": 77.25438703125081,
          "velocity": 0.7874015748031497,
          "duration": 0.13392843750000338
        },
        {
          "name": "D#6",
          "midi": 87,
          "time": 77.25438703125081,
          "velocity": 0.7874015748031497,
          "duration": 0.13392843750000338
        },
        {
          "name": "C#7",
          "midi": 97,
          "time": 77.25438703125081,
          "velocity": 0.7874015748031497,
          "duration": 0.13392843750000338
        },
        {
          "name": "D#7",
          "midi": 99,
          "time": 77.25438703125081,
          "velocity": 0.7874015748031497,
          "duration": 0.13392843750000338
        },
        {
          "name": "E7",
          "midi": 100,
          "time": 77.25438703125081,
          "velocity": 0.7874015748031497,
          "duration": 0.13392843750000338
        },
        {
          "name": "C#4",
          "midi": 61,
          "time": 77.54010103125081,
          "velocity": 0.7874015748031497,
          "duration": 0.13392843750000338
        },
        {
          "name": "D4",
          "midi": 62,
          "time": 77.54010103125081,
          "velocity": 0.7874015748031497,
          "duration": 0.13392843750000338
        },
        {
          "name": "C#5",
          "midi": 73,
          "time": 77.54010103125081,
          "velocity": 0.7874015748031497,
          "duration": 0.13392843750000338
        },
        {
          "name": "D#5",
          "midi": 75,
          "time": 77.54010103125081,
          "velocity": 0.7874015748031497,
          "duration": 0.13392843750000338
        },
        {
          "name": "C#6",
          "midi": 85,
          "time": 77.54010103125081,
          "velocity": 0.7874015748031497,
          "duration": 0.13392843750000338
        },
        {
          "name": "D#6",
          "midi": 87,
          "time": 77.54010103125081,
          "velocity": 0.7874015748031497,
          "duration": 0.13392843750000338
        },
        {
          "name": "C#7",
          "midi": 97,
          "time": 77.54010103125081,
          "velocity": 0.7874015748031497,
          "duration": 0.13392843750000338
        },
        {
          "name": "D#7",
          "midi": 99,
          "time": 77.54010103125081,
          "velocity": 0.7874015748031497,
          "duration": 0.13392843750000338
        },
        {
          "name": "E7",
          "midi": 100,
          "time": 77.54010103125081,
          "velocity": 0.7874015748031497,
          "duration": 0.13392843750000338
        },
        {
          "name": "C#4",
          "midi": 61,
          "time": 77.82581503125081,
          "velocity": 0.7874015748031497,
          "duration": 0.13392843750000338
        },
        {
          "name": "D4",
          "midi": 62,
          "time": 77.82581503125081,
          "velocity": 0.7874015748031497,
          "duration": 0.13392843750000338
        },
        {
          "name": "C#5",
          "midi": 73,
          "time": 77.82581503125081,
          "velocity": 0.7874015748031497,
          "duration": 0.13392843750000338
        },
        {
          "name": "D#5",
          "midi": 75,
          "time": 77.82581503125081,
          "velocity": 0.7874015748031497,
          "duration": 0.13392843750000338
        },
        {
          "name": "C#6",
          "midi": 85,
          "time": 77.82581503125081,
          "velocity": 0.7874015748031497,
          "duration": 0.13392843750000338
        },
        {
          "name": "D#6",
          "midi": 87,
          "time": 77.82581503125081,
          "velocity": 0.7874015748031497,
          "duration": 0.13392843750000338
        },
        {
          "name": "C#7",
          "midi": 97,
          "time": 77.82581503125081,
          "velocity": 0.7874015748031497,
          "duration": 0.13392843750000338
        },
        {
          "name": "D#7",
          "midi": 99,
          "time": 77.82581503125081,
          "velocity": 0.7874015748031497,
          "duration": 0.13392843750000338
        },
        {
          "name": "E7",
          "midi": 100,
          "time": 77.82581503125081,
          "velocity": 0.7874015748031497,
          "duration": 0.13392843750000338
        },
        {
          "name": "C#4",
          "midi": 61,
          "time": 78.11242188750082,
          "velocity": 0.7874015748031497,
          "duration": 0.4187495812499975
        },
        {
          "name": "D4",
          "midi": 62,
          "time": 78.11242188750082,
          "velocity": 0.7874015748031497,
          "duration": 0.4187495812499975
        },
        {
          "name": "C#5",
          "midi": 73,
          "time": 78.11242188750082,
          "velocity": 0.7874015748031497,
          "duration": 0.4187495812499975
        },
        {
          "name": "D#5",
          "midi": 75,
          "time": 78.11242188750082,
          "velocity": 0.7874015748031497,
          "duration": 0.4187495812499975
        },
        {
          "name": "C#6",
          "midi": 85,
          "time": 78.11242188750082,
          "velocity": 0.7874015748031497,
          "duration": 0.4187495812499975
        },
        {
          "name": "D#6",
          "midi": 87,
          "time": 78.11242188750082,
          "velocity": 0.7874015748031497,
          "duration": 0.4187495812499975
        },
        {
          "name": "C#7",
          "midi": 97,
          "time": 78.11242188750082,
          "velocity": 0.7874015748031497,
          "duration": 0.4187495812499975
        },
        {
          "name": "D#7",
          "midi": 99,
          "time": 78.11242188750082,
          "velocity": 0.7874015748031497,
          "duration": 0.4187495812499975
        },
        {
          "name": "E7",
          "midi": 100,
          "time": 78.11242188750082,
          "velocity": 0.7874015748031497,
          "duration": 0.4187495812499975
        },
        {
          "name": "D4",
          "midi": 62,
          "time": 78.54010003125082,
          "velocity": 0.7874015748031497,
          "duration": 0.4196424375000021
        },
        {
          "name": "D#5",
          "midi": 75,
          "time": 78.54010003125082,
          "velocity": 0.7874015748031497,
          "duration": 0.4196424375000021
        },
        {
          "name": "D#6",
          "midi": 87,
          "time": 78.54010003125082,
          "velocity": 0.7874015748031497,
          "duration": 0.4196424375000021
        },
        {
          "name": "E7",
          "midi": 100,
          "time": 78.54010003125082,
          "velocity": 0.7874015748031497,
          "duration": 0.04464281250000113
        },
        {
          "name": "D#7",
          "midi": 99,
          "time": 78.59367140625082,
          "velocity": 0.7874015748031497,
          "duration": 0.3660710624999979
        },
        {
          "name": "C4",
          "midi": 60,
          "time": 78.96867103125082,
          "velocity": 0.7874015748031497,
          "duration": 0.13392843750000338
        },
        {
          "name": "C5",
          "midi": 72,
          "time": 78.96867103125082,
          "velocity": 0.7874015748031497,
          "duration": 0.13392843750000338
        },
        {
          "name": "C6",
          "midi": 84,
          "time": 78.96867103125082,
          "velocity": 0.7874015748031497,
          "duration": 0.13392843750000338
        },
        {
          "name": "C7",
          "midi": 96,
          "time": 78.96867103125082,
          "velocity": 0.7874015748031497,
          "duration": 0.13392843750000338
        },
        {
          "name": "C6",
          "midi": 84,
          "time": 79.11242088750082,
          "velocity": 0.7874015748031497,
          "duration": 0.13214272499999424
        },
        {
          "name": "C7",
          "midi": 96,
          "time": 79.11242088750082,
          "velocity": 0.7874015748031497,
          "duration": 0.13214272499999424
        },
        {
          "name": "C4",
          "midi": 60,
          "time": 79.2543850312508,
          "velocity": 0.7874015748031497,
          "duration": 0.13392843750000338
        },
        {
          "name": "C5",
          "midi": 72,
          "time": 79.2543850312508,
          "velocity": 0.7874015748031497,
          "duration": 0.13392843750000338
        },
        {
          "name": "C6",
          "midi": 84,
          "time": 79.2543850312508,
          "velocity": 0.7874015748031497,
          "duration": 0.13392843750000338
        },
        {
          "name": "C7",
          "midi": 96,
          "time": 79.2543850312508,
          "velocity": 0.7874015748031497,
          "duration": 0.13392843750000338
        },
        {
          "name": "D4",
          "midi": 62,
          "time": 79.39724203125081,
          "velocity": 0.7874015748031497,
          "duration": 0.13392843750000338
        },
        {
          "name": "D5",
          "midi": 74,
          "time": 79.39724203125081,
          "velocity": 0.7874015748031497,
          "duration": 0.13392843750000338
        },
        {
          "name": "D6",
          "midi": 86,
          "time": 79.39724203125081,
          "velocity": 0.7874015748031497,
          "duration": 0.13392843750000338
        },
        {
          "name": "D7",
          "midi": 98,
          "time": 79.39724203125081,
          "velocity": 0.7874015748031497,
          "duration": 0.13392843750000338
        },
        {
          "name": "C#4",
          "midi": 61,
          "time": 79.54009903125082,
          "velocity": 0.7874015748031497,
          "duration": 0.13392843750000338
        },
        {
          "name": "C#5",
          "midi": 73,
          "time": 79.54009903125082,
          "velocity": 0.7874015748031497,
          "duration": 0.13392843750000338
        },
        {
          "name": "C#6",
          "midi": 85,
          "time": 79.54009903125082,
          "velocity": 0.7874015748031497,
          "duration": 0.13392843750000338
        },
        {
          "name": "C#7",
          "midi": 97,
          "time": 79.54009903125082,
          "velocity": 0.7874015748031497,
          "duration": 0.13392843750000338
        },
        {
          "name": "C4",
          "midi": 60,
          "time": 79.68295603125082,
          "velocity": 0.7874015748031497,
          "duration": 0.13392843750000338
        },
        {
          "name": "C5",
          "midi": 72,
          "time": 79.68295603125082,
          "velocity": 0.7874015748031497,
          "duration": 0.13392843750000338
        },
        {
          "name": "C6",
          "midi": 84,
          "time": 79.68295603125082,
          "velocity": 0.7874015748031497,
          "duration": 0.13392843750000338
        },
        {
          "name": "C7",
          "midi": 96,
          "time": 79.68295603125082,
          "velocity": 0.7874015748031497,
          "duration": 0.13392843750000338
        },
        {
          "name": "D4",
          "midi": 62,
          "time": 79.82581303125083,
          "velocity": 0.7874015748031497,
          "duration": 0.2767854374999956
        },
        {
          "name": "D#5",
          "midi": 75,
          "time": 79.82581303125083,
          "velocity": 0.7874015748031497,
          "duration": 0.2767854374999956
        },
        {
          "name": "E6",
          "midi": 88,
          "time": 79.82581303125083,
          "velocity": 0.7874015748031497,
          "duration": 0.2767854374999956
        },
        {
          "name": "D#7",
          "midi": 99,
          "time": 79.82581303125083,
          "velocity": 0.7874015748031497,
          "duration": 0.06249993749999305
        },
        {
          "name": "E7",
          "midi": 100,
          "time": 79.89724153125083,
          "velocity": 0.7874015748031497,
          "duration": 0.06249993749999305
        },
        {
          "name": "D#7",
          "midi": 99,
          "time": 79.96867003125082,
          "velocity": 0.7874015748031497,
          "duration": 0.13392843750000338
        },
        {
          "name": "D5",
          "midi": 74,
          "time": 80.11241988750082,
          "velocity": 0.7874015748031497,
          "duration": 0.13214272499999424
        },
        {
          "name": "D6",
          "midi": 86,
          "time": 80.11241988750082,
          "velocity": 0.7874015748031497,
          "duration": 0.13214272499999424
        },
        {
          "name": "D7",
          "midi": 98,
          "time": 80.11241988750082,
          "velocity": 0.7874015748031497,
          "duration": 0.13214272499999424
        },
        {
          "name": "D4",
          "midi": 62,
          "time": 80.25438403125081,
          "velocity": 0.7874015748031497,
          "duration": 0.13392843750000338
        },
        {
          "name": "D#5",
          "midi": 75,
          "time": 80.25438403125081,
          "velocity": 0.7874015748031497,
          "duration": 0.13392843750000338
        },
        {
          "name": "D#6",
          "midi": 87,
          "time": 80.25438403125081,
          "velocity": 0.7874015748031497,
          "duration": 0.13392843750000338
        },
        {
          "name": "D#7",
          "midi": 99,
          "time": 80.25438403125081,
          "velocity": 0.7874015748031497,
          "duration": 0.13392843750000338
        },
        {
          "name": "C#4",
          "midi": 61,
          "time": 80.39724103125081,
          "velocity": 0.7874015748031497,
          "duration": 0.13392843750000338
        },
        {
          "name": "D5",
          "midi": 74,
          "time": 80.39724103125081,
          "velocity": 0.7874015748031497,
          "duration": 0.13392843750000338
        },
        {
          "name": "D6",
          "midi": 86,
          "time": 80.39724103125081,
          "velocity": 0.7874015748031497,
          "duration": 0.13392843750000338
        },
        {
          "name": "D7",
          "midi": 98,
          "time": 80.39724103125081,
          "velocity": 0.7874015748031497,
          "duration": 0.13392843750000338
        },
        {
          "name": "C4",
          "midi": 60,
          "time": 80.54009803125082,
          "velocity": 0.7874015748031497,
          "duration": 0.13392843750000338
        },
        {
          "name": "C#5",
          "midi": 73,
          "time": 80.54009803125082,
          "velocity": 0.7874015748031497,
          "duration": 0.13392843750000338
        },
        {
          "name": "C#6",
          "midi": 85,
          "time": 80.54009803125082,
          "velocity": 0.7874015748031497,
          "duration": 0.13392843750000338
        },
        {
          "name": "C#7",
          "midi": 97,
          "time": 80.54009803125082,
          "velocity": 0.7874015748031497,
          "duration": 0.13392843750000338
        },
        {
          "name": "C5",
          "midi": 72,
          "time": 80.68295503125083,
          "velocity": 0.7874015748031497,
          "duration": 0.13392843750000338
        },
        {
          "name": "C6",
          "midi": 84,
          "time": 80.68295503125083,
          "velocity": 0.7874015748031497,
          "duration": 0.13392843750000338
        },
        {
          "name": "C7",
          "midi": 96,
          "time": 80.68295503125083,
          "velocity": 0.7874015748031497,
          "duration": 0.13392843750000338
        },
        {
          "name": "C6",
          "midi": 84,
          "time": 80.82581203125083,
          "velocity": 0.7874015748031497,
          "duration": 0.13392843750000338
        },
        {
          "name": "C7",
          "midi": 96,
          "time": 80.82581203125083,
          "velocity": 0.7874015748031497,
          "duration": 0.13392843750000338
        },
        {
          "name": "C4",
          "midi": 60,
          "time": 80.96866903125084,
          "velocity": 0.7874015748031497,
          "duration": 0.13392843750000338
        },
        {
          "name": "C5",
          "midi": 72,
          "time": 80.96866903125084,
          "velocity": 0.7874015748031497,
          "duration": 0.13392843750000338
        },
        {
          "name": "C6",
          "midi": 84,
          "time": 80.96866903125084,
          "velocity": 0.7874015748031497,
          "duration": 0.13392843750000338
        },
        {
          "name": "C7",
          "midi": 96,
          "time": 80.96866903125084,
          "velocity": 0.7874015748031497,
          "duration": 0.13392843750000338
        },
        {
          "name": "D4",
          "midi": 62,
          "time": 81.11241888750084,
          "velocity": 0.7874015748031497,
          "duration": 0.13214272499999424
        },
        {
          "name": "D5",
          "midi": 74,
          "time": 81.11241888750084,
          "velocity": 0.7874015748031497,
          "duration": 0.13214272499999424
        },
        {
          "name": "D6",
          "midi": 86,
          "time": 81.11241888750084,
          "velocity": 0.7874015748031497,
          "duration": 0.13214272499999424
        },
        {
          "name": "D7",
          "midi": 98,
          "time": 81.11241888750084,
          "velocity": 0.7874015748031497,
          "duration": 0.13214272499999424
        },
        {
          "name": "C#4",
          "midi": 61,
          "time": 81.25438303125082,
          "velocity": 0.7874015748031497,
          "duration": 0.13392843750000338
        },
        {
          "name": "C#5",
          "midi": 73,
          "time": 81.25438303125082,
          "velocity": 0.7874015748031497,
          "duration": 0.13392843750000338
        },
        {
          "name": "C#6",
          "midi": 85,
          "time": 81.25438303125082,
          "velocity": 0.7874015748031497,
          "duration": 0.13392843750000338
        },
        {
          "name": "C#7",
          "midi": 97,
          "time": 81.25438303125082,
          "velocity": 0.7874015748031497,
          "duration": 0.13392843750000338
        },
        {
          "name": "C4",
          "midi": 60,
          "time": 81.39724003125083,
          "velocity": 0.7874015748031497,
          "duration": 0.13392843750000338
        },
        {
          "name": "C5",
          "midi": 72,
          "time": 81.39724003125083,
          "velocity": 0.7874015748031497,
          "duration": 0.13392843750000338
        },
        {
          "name": "C6",
          "midi": 84,
          "time": 81.39724003125083,
          "velocity": 0.7874015748031497,
          "duration": 0.13392843750000338
        },
        {
          "name": "C7",
          "midi": 96,
          "time": 81.39724003125083,
          "velocity": 0.7874015748031497,
          "duration": 0.13392843750000338
        },
        {
          "name": "D4",
          "midi": 62,
          "time": 81.54009703125084,
          "velocity": 0.7874015748031497,
          "duration": 0.4196424375000021
        },
        {
          "name": "D5",
          "midi": 74,
          "time": 81.54009703125084,
          "velocity": 0.7874015748031497,
          "duration": 0.4196424375000021
        },
        {
          "name": "D#5",
          "midi": 75,
          "time": 81.54009703125084,
          "velocity": 0.7874015748031497,
          "duration": 0.4196424375000021
        },
        {
          "name": "D6",
          "midi": 86,
          "time": 81.54009703125084,
          "velocity": 0.7874015748031497,
          "duration": 0.4196424375000021
        },
        {
          "name": "E6",
          "midi": 88,
          "time": 81.54009703125084,
          "velocity": 0.7874015748031497,
          "duration": 0.4196424375000021
        },
        {
          "name": "D7",
          "midi": 98,
          "time": 81.54009703125084,
          "velocity": 0.7874015748031497,
          "duration": 0.4196424375000021
        },
        {
          "name": "E7",
          "midi": 100,
          "time": 81.54009703125084,
          "velocity": 0.7874015748031497,
          "duration": 0.4196424375000021
        },
        {
          "name": "C#4",
          "midi": 61,
          "time": 81.96866803125084,
          "velocity": 0.7874015748031497,
          "duration": 0.4196424375000021
        },
        {
          "name": "C#5",
          "midi": 73,
          "time": 81.96866803125084,
          "velocity": 0.7874015748031497,
          "duration": 0.4196424375000021
        },
        {
          "name": "D5",
          "midi": 74,
          "time": 81.96866803125084,
          "velocity": 0.7874015748031497,
          "duration": 0.4196424375000021
        },
        {
          "name": "C#6",
          "midi": 85,
          "time": 81.96866803125084,
          "velocity": 0.7874015748031497,
          "duration": 0.4196424375000021
        },
        {
          "name": "D#6",
          "midi": 87,
          "time": 81.96866803125084,
          "velocity": 0.7874015748031497,
          "duration": 0.4196424375000021
        },
        {
          "name": "C#7",
          "midi": 97,
          "time": 81.96866803125084,
          "velocity": 0.7874015748031497,
          "duration": 0.4196424375000021
        },
        {
          "name": "D#7",
          "midi": 99,
          "time": 81.96866803125084,
          "velocity": 0.7874015748031497,
          "duration": 0.4196424375000021
        },
        {
          "name": "C4",
          "midi": 60,
          "time": 82.39723903125085,
          "velocity": 0.7874015748031497,
          "duration": 0.13392843750000338
        },
        {
          "name": "C5",
          "midi": 72,
          "time": 82.39723903125085,
          "velocity": 0.7874015748031497,
          "duration": 0.13392843750000338
        },
        {
          "name": "C6",
          "midi": 84,
          "time": 82.39723903125085,
          "velocity": 0.7874015748031497,
          "duration": 0.13392843750000338
        },
        {
          "name": "C7",
          "midi": 96,
          "time": 82.39723903125085,
          "velocity": 0.7874015748031497,
          "duration": 0.13392843750000338
        },
        {
          "name": "C6",
          "midi": 84,
          "time": 82.54009603125085,
          "velocity": 0.7874015748031497,
          "duration": 0.13392843750000338
        },
        {
          "name": "C7",
          "midi": 96,
          "time": 82.54009603125085,
          "velocity": 0.7874015748031497,
          "duration": 0.13392843750000338
        },
        {
          "name": "C4",
          "midi": 60,
          "time": 82.68295303125086,
          "velocity": 0.7874015748031497,
          "duration": 0.13392843750000338
        },
        {
          "name": "C5",
          "midi": 72,
          "time": 82.68295303125086,
          "velocity": 0.7874015748031497,
          "duration": 0.13392843750000338
        },
        {
          "name": "C6",
          "midi": 84,
          "time": 82.68295303125086,
          "velocity": 0.7874015748031497,
          "duration": 0.13392843750000338
        },
        {
          "name": "C7",
          "midi": 96,
          "time": 82.68295303125086,
          "velocity": 0.7874015748031497,
          "duration": 0.13392843750000338
        },
        {
          "name": "D4",
          "midi": 62,
          "time": 82.82581003125087,
          "velocity": 0.7874015748031497,
          "duration": 0.13392843750000338
        },
        {
          "name": "D5",
          "midi": 74,
          "time": 82.82581003125087,
          "velocity": 0.7874015748031497,
          "duration": 0.13392843750000338
        },
        {
          "name": "D6",
          "midi": 86,
          "time": 82.82581003125087,
          "velocity": 0.7874015748031497,
          "duration": 0.13392843750000338
        },
        {
          "name": "D7",
          "midi": 98,
          "time": 82.82581003125087,
          "velocity": 0.7874015748031497,
          "duration": 0.13392843750000338
        },
        {
          "name": "C#4",
          "midi": 61,
          "time": 82.96866703125087,
          "velocity": 0.7874015748031497,
          "duration": 0.13392843750000338
        },
        {
          "name": "C#5",
          "midi": 73,
          "time": 82.96866703125087,
          "velocity": 0.7874015748031497,
          "duration": 0.13392843750000338
        },
        {
          "name": "C#6",
          "midi": 85,
          "time": 82.96866703125087,
          "velocity": 0.7874015748031497,
          "duration": 0.13392843750000338
        },
        {
          "name": "C#7",
          "midi": 97,
          "time": 82.96866703125087,
          "velocity": 0.7874015748031497,
          "duration": 0.13392843750000338
        },
        {
          "name": "C4",
          "midi": 60,
          "time": 83.11241688750087,
          "velocity": 0.7874015748031497,
          "duration": 0.13214272499999424
        },
        {
          "name": "C5",
          "midi": 72,
          "time": 83.11241688750087,
          "velocity": 0.7874015748031497,
          "duration": 0.13214272499999424
        },
        {
          "name": "C6",
          "midi": 84,
          "time": 83.11241688750087,
          "velocity": 0.7874015748031497,
          "duration": 0.13214272499999424
        },
        {
          "name": "C7",
          "midi": 96,
          "time": 83.11241688750087,
          "velocity": 0.7874015748031497,
          "duration": 0.13214272499999424
        },
        {
          "name": "D4",
          "midi": 62,
          "time": 83.25438103125086,
          "velocity": 0.7874015748031497,
          "duration": 0.2767854374999956
        },
        {
          "name": "D#5",
          "midi": 75,
          "time": 83.25438103125086,
          "velocity": 0.7874015748031497,
          "duration": 0.2767854374999956
        },
        {
          "name": "E6",
          "midi": 88,
          "time": 83.25438103125086,
          "velocity": 0.7874015748031497,
          "duration": 0.2767854374999956
        },
        {
          "name": "D#7",
          "midi": 99,
          "time": 83.25438103125086,
          "velocity": 0.7874015748031497,
          "duration": 0.06249993749999305
        },
        {
          "name": "E7",
          "midi": 100,
          "time": 83.32580953125085,
          "velocity": 0.7874015748031497,
          "duration": 0.06249993749999305
        },
        {
          "name": "D#7",
          "midi": 99,
          "time": 83.39723803125085,
          "velocity": 0.7874015748031497,
          "duration": 0.13392843750000338
        },
        {
          "name": "D5",
          "midi": 74,
          "time": 83.54009503125086,
          "velocity": 0.7874015748031497,
          "duration": 0.13392843750000338
        },
        {
          "name": "D6",
          "midi": 86,
          "time": 83.54009503125086,
          "velocity": 0.7874015748031497,
          "duration": 0.13392843750000338
        },
        {
          "name": "D7",
          "midi": 98,
          "time": 83.54009503125086,
          "velocity": 0.7874015748031497,
          "duration": 0.13392843750000338
        },
        {
          "name": "D4",
          "midi": 62,
          "time": 83.68295203125086,
          "velocity": 0.7874015748031497,
          "duration": 0.13392843750000338
        },
        {
          "name": "D#5",
          "midi": 75,
          "time": 83.68295203125086,
          "velocity": 0.7874015748031497,
          "duration": 0.13392843750000338
        },
        {
          "name": "D#6",
          "midi": 87,
          "time": 83.68295203125086,
          "velocity": 0.7874015748031497,
          "duration": 0.13392843750000338
        },
        {
          "name": "D#7",
          "midi": 99,
          "time": 83.68295203125086,
          "velocity": 0.7874015748031497,
          "duration": 0.13392843750000338
        },
        {
          "name": "C#4",
          "midi": 61,
          "time": 83.82580903125087,
          "velocity": 0.7874015748031497,
          "duration": 0.13392843750000338
        },
        {
          "name": "D5",
          "midi": 74,
          "time": 83.82580903125087,
          "velocity": 0.7874015748031497,
          "duration": 0.13392843750000338
        },
        {
          "name": "D6",
          "midi": 86,
          "time": 83.82580903125087,
          "velocity": 0.7874015748031497,
          "duration": 0.13392843750000338
        },
        {
          "name": "D7",
          "midi": 98,
          "time": 83.82580903125087,
          "velocity": 0.7874015748031497,
          "duration": 0.13392843750000338
        },
        {
          "name": "C4",
          "midi": 60,
          "time": 83.96866603125088,
          "velocity": 0.7874015748031497,
          "duration": 0.13392843750000338
        },
        {
          "name": "C#5",
          "midi": 73,
          "time": 83.96866603125088,
          "velocity": 0.7874015748031497,
          "duration": 0.13392843750000338
        },
        {
          "name": "C#6",
          "midi": 85,
          "time": 83.96866603125088,
          "velocity": 0.7874015748031497,
          "duration": 0.13392843750000338
        },
        {
          "name": "C#7",
          "midi": 97,
          "time": 83.96866603125088,
          "velocity": 0.7874015748031497,
          "duration": 0.13392843750000338
        },
        {
          "name": "C5",
          "midi": 72,
          "time": 84.11241588750087,
          "velocity": 0.7874015748031497,
          "duration": 0.13214272499999424
        },
        {
          "name": "C6",
          "midi": 84,
          "time": 84.11241588750087,
          "velocity": 0.7874015748031497,
          "duration": 0.13214272499999424
        },
        {
          "name": "C7",
          "midi": 96,
          "time": 84.11241588750087,
          "velocity": 0.7874015748031497,
          "duration": 0.13214272499999424
        },
        {
          "name": "D4",
          "midi": 62,
          "time": 84.25438003125086,
          "velocity": 0.7874015748031497,
          "duration": 0.13392843750000338
        },
        {
          "name": "D5",
          "midi": 74,
          "time": 84.25438003125086,
          "velocity": 0.7874015748031497,
          "duration": 0.13392843750000338
        },
        {
          "name": "D#5",
          "midi": 75,
          "time": 84.25438003125086,
          "velocity": 0.7874015748031497,
          "duration": 0.13392843750000338
        },
        {
          "name": "D6",
          "midi": 86,
          "time": 84.25438003125086,
          "velocity": 0.7874015748031497,
          "duration": 0.13392843750000338
        },
        {
          "name": "E6",
          "midi": 88,
          "time": 84.25438003125086,
          "velocity": 0.7874015748031497,
          "duration": 0.13392843750000338
        },
        {
          "name": "D7",
          "midi": 98,
          "time": 84.25438003125086,
          "velocity": 0.7874015748031497,
          "duration": 0.13392843750000338
        },
        {
          "name": "E7",
          "midi": 100,
          "time": 84.25438003125086,
          "velocity": 0.7874015748031497,
          "duration": 0.13392843750000338
        },
        {
          "name": "D4",
          "midi": 62,
          "time": 84.54009403125086,
          "velocity": 0.7874015748031497,
          "duration": 0.4196424375000021
        },
        {
          "name": "D5",
          "midi": 74,
          "time": 84.54009403125086,
          "velocity": 0.7874015748031497,
          "duration": 0.4196424375000021
        },
        {
          "name": "D#5",
          "midi": 75,
          "time": 84.54009403125086,
          "velocity": 0.7874015748031497,
          "duration": 0.4196424375000021
        },
        {
          "name": "D6",
          "midi": 86,
          "time": 84.54009403125086,
          "velocity": 0.7874015748031497,
          "duration": 0.4196424375000021
        },
        {
          "name": "E6",
          "midi": 88,
          "time": 84.54009403125086,
          "velocity": 0.7874015748031497,
          "duration": 0.4196424375000021
        },
        {
          "name": "D7",
          "midi": 98,
          "time": 84.54009403125086,
          "velocity": 0.7874015748031497,
          "duration": 0.4196424375000021
        },
        {
          "name": "E7",
          "midi": 100,
          "time": 84.54009403125086,
          "velocity": 0.7874015748031497,
          "duration": 0.4196424375000021
        },
        {
          "name": "C4",
          "midi": 60,
          "time": 84.96866503125086,
          "velocity": 0.7874015748031497,
          "duration": 0.13392843750000338
        },
        {
          "name": "C5",
          "midi": 72,
          "time": 84.96866503125086,
          "velocity": 0.7874015748031497,
          "duration": 0.13392843750000338
        },
        {
          "name": "C6",
          "midi": 84,
          "time": 84.96866503125086,
          "velocity": 0.7874015748031497,
          "duration": 0.13392843750000338
        },
        {
          "name": "C7",
          "midi": 96,
          "time": 84.96866503125086,
          "velocity": 0.7874015748031497,
          "duration": 0.13392843750000338
        },
        {
          "name": "C#4",
          "midi": 61,
          "time": 85.11241488750086,
          "velocity": 0.7874015748031497,
          "duration": 0.13214272499999424
        },
        {
          "name": "C#5",
          "midi": 73,
          "time": 85.11241488750086,
          "velocity": 0.7874015748031497,
          "duration": 0.13214272499999424
        },
        {
          "name": "D5",
          "midi": 74,
          "time": 85.11241488750086,
          "velocity": 0.7874015748031497,
          "duration": 0.13214272499999424
        },
        {
          "name": "C#6",
          "midi": 85,
          "time": 85.11241488750086,
          "velocity": 0.7874015748031497,
          "duration": 0.13214272499999424
        },
        {
          "name": "D#6",
          "midi": 87,
          "time": 85.11241488750086,
          "velocity": 0.7874015748031497,
          "duration": 0.13214272499999424
        },
        {
          "name": "C#7",
          "midi": 97,
          "time": 85.11241488750086,
          "velocity": 0.7874015748031497,
          "duration": 0.13214272499999424
        },
        {
          "name": "D#7",
          "midi": 99,
          "time": 85.11241488750086,
          "velocity": 0.7874015748031497,
          "duration": 0.13214272499999424
        },
        {
          "name": "C#4",
          "midi": 61,
          "time": 85.39723603125086,
          "velocity": 0.7874015748031497,
          "duration": 0.4196424375000021
        },
        {
          "name": "C#5",
          "midi": 73,
          "time": 85.39723603125086,
          "velocity": 0.7874015748031497,
          "duration": 0.4196424375000021
        },
        {
          "name": "D5",
          "midi": 74,
          "time": 85.39723603125086,
          "velocity": 0.7874015748031497,
          "duration": 0.4196424375000021
        },
        {
          "name": "C#6",
          "midi": 85,
          "time": 85.39723603125086,
          "velocity": 0.7874015748031497,
          "duration": 0.4196424375000021
        },
        {
          "name": "D#6",
          "midi": 87,
          "time": 85.39723603125086,
          "velocity": 0.7874015748031497,
          "duration": 0.4196424375000021
        },
        {
          "name": "C#7",
          "midi": 97,
          "time": 85.39723603125086,
          "velocity": 0.7874015748031497,
          "duration": 0.4196424375000021
        },
        {
          "name": "D#7",
          "midi": 99,
          "time": 85.39723603125086,
          "velocity": 0.7874015748031497,
          "duration": 0.4196424375000021
        },
        {
          "name": "C4",
          "midi": 60,
          "time": 85.82580703125086,
          "velocity": 0.7874015748031497,
          "duration": 0.13392843750000338
        },
        {
          "name": "C5",
          "midi": 72,
          "time": 85.82580703125086,
          "velocity": 0.7874015748031497,
          "duration": 0.13392843750000338
        },
        {
          "name": "C6",
          "midi": 84,
          "time": 85.82580703125086,
          "velocity": 0.7874015748031497,
          "duration": 0.13392843750000338
        },
        {
          "name": "C7",
          "midi": 96,
          "time": 85.82580703125086,
          "velocity": 0.7874015748031497,
          "duration": 0.13392843750000338
        },
        {
          "name": "C6",
          "midi": 84,
          "time": 85.96866403125087,
          "velocity": 0.7874015748031497,
          "duration": 0.13392843750000338
        },
        {
          "name": "C7",
          "midi": 96,
          "time": 85.96866403125087,
          "velocity": 0.7874015748031497,
          "duration": 0.13392843750000338
        },
        {
          "name": "C4",
          "midi": 60,
          "time": 86.11241388750086,
          "velocity": 0.7874015748031497,
          "duration": 0.13214272499999424
        },
        {
          "name": "C5",
          "midi": 72,
          "time": 86.11241388750086,
          "velocity": 0.7874015748031497,
          "duration": 0.13214272499999424
        },
        {
          "name": "C6",
          "midi": 84,
          "time": 86.11241388750086,
          "velocity": 0.7874015748031497,
          "duration": 0.13214272499999424
        },
        {
          "name": "C7",
          "midi": 96,
          "time": 86.11241388750086,
          "velocity": 0.7874015748031497,
          "duration": 0.13214272499999424
        },
        {
          "name": "D4",
          "midi": 62,
          "time": 86.25437803125085,
          "velocity": 0.7874015748031497,
          "duration": 0.13392843750000338
        },
        {
          "name": "D5",
          "midi": 74,
          "time": 86.25437803125085,
          "velocity": 0.7874015748031497,
          "duration": 0.13392843750000338
        },
        {
          "name": "D6",
          "midi": 86,
          "time": 86.25437803125085,
          "velocity": 0.7874015748031497,
          "duration": 0.13392843750000338
        },
        {
          "name": "D7",
          "midi": 98,
          "time": 86.25437803125085,
          "velocity": 0.7874015748031497,
          "duration": 0.13392843750000338
        },
        {
          "name": "C#4",
          "midi": 61,
          "time": 86.39723503125086,
          "velocity": 0.7874015748031497,
          "duration": 0.13392843750000338
        },
        {
          "name": "C#5",
          "midi": 73,
          "time": 86.39723503125086,
          "velocity": 0.7874015748031497,
          "duration": 0.13392843750000338
        },
        {
          "name": "C#6",
          "midi": 85,
          "time": 86.39723503125086,
          "velocity": 0.7874015748031497,
          "duration": 0.13392843750000338
        },
        {
          "name": "C#7",
          "midi": 97,
          "time": 86.39723503125086,
          "velocity": 0.7874015748031497,
          "duration": 0.13392843750000338
        },
        {
          "name": "C4",
          "midi": 60,
          "time": 86.54009203125086,
          "velocity": 0.7874015748031497,
          "duration": 0.13392843750000338
        },
        {
          "name": "C5",
          "midi": 72,
          "time": 86.54009203125086,
          "velocity": 0.7874015748031497,
          "duration": 0.13392843750000338
        },
        {
          "name": "C6",
          "midi": 84,
          "time": 86.54009203125086,
          "velocity": 0.7874015748031497,
          "duration": 0.13392843750000338
        },
        {
          "name": "C7",
          "midi": 96,
          "time": 86.54009203125086,
          "velocity": 0.7874015748031497,
          "duration": 0.13392843750000338
        },
        {
          "name": "D4",
          "midi": 62,
          "time": 86.68294903125087,
          "velocity": 0.7874015748031497,
          "duration": 0.2767854374999956
        },
        {
          "name": "D#5",
          "midi": 75,
          "time": 86.68294903125087,
          "velocity": 0.7874015748031497,
          "duration": 0.2767854374999956
        },
        {
          "name": "E6",
          "midi": 88,
          "time": 86.68294903125087,
          "velocity": 0.7874015748031497,
          "duration": 0.2767854374999956
        },
        {
          "name": "D#7",
          "midi": 99,
          "time": 86.68294903125087,
          "velocity": 0.7874015748031497,
          "duration": 0.06160708125000269
        },
        {
          "name": "E7",
          "midi": 100,
          "time": 86.75437753125087,
          "velocity": 0.7874015748031497,
          "duration": 0.06249993749999305
        },
        {
          "name": "D#7",
          "midi": 99,
          "time": 86.82580603125086,
          "velocity": 0.7874015748031497,
          "duration": 0.13392843750000338
        },
        {
          "name": "D5",
          "midi": 74,
          "time": 86.96866303125087,
          "velocity": 0.7874015748031497,
          "duration": 0.13392843750000338
        },
        {
          "name": "D6",
          "midi": 86,
          "time": 86.96866303125087,
          "velocity": 0.7874015748031497,
          "duration": 0.13392843750000338
        },
        {
          "name": "D7",
          "midi": 98,
          "time": 86.96866303125087,
          "velocity": 0.7874015748031497,
          "duration": 0.13392843750000338
        },
        {
          "name": "D4",
          "midi": 62,
          "time": 87.11241288750087,
          "velocity": 0.7874015748031497,
          "duration": 0.13214272499999424
        },
        {
          "name": "D#5",
          "midi": 75,
          "time": 87.11241288750087,
          "velocity": 0.7874015748031497,
          "duration": 0.13214272499999424
        },
        {
          "name": "D#6",
          "midi": 87,
          "time": 87.11241288750087,
          "velocity": 0.7874015748031497,
          "duration": 0.13214272499999424
        },
        {
          "name": "D#7",
          "midi": 99,
          "time": 87.11241288750087,
          "velocity": 0.7874015748031497,
          "duration": 0.13214272499999424
        },
        {
          "name": "C#4",
          "midi": 61,
          "time": 87.25437703125085,
          "velocity": 0.7874015748031497,
          "duration": 0.13392843750000338
        },
        {
          "name": "D5",
          "midi": 74,
          "time": 87.25437703125085,
          "velocity": 0.7874015748031497,
          "duration": 0.13392843750000338
        },
        {
          "name": "D6",
          "midi": 86,
          "time": 87.25437703125085,
          "velocity": 0.7874015748031497,
          "duration": 0.13392843750000338
        },
        {
          "name": "D7",
          "midi": 98,
          "time": 87.25437703125085,
          "velocity": 0.7874015748031497,
          "duration": 0.13392843750000338
        },
        {
          "name": "C4",
          "midi": 60,
          "time": 87.39723403125086,
          "velocity": 0.7874015748031497,
          "duration": 0.13392843750000338
        },
        {
          "name": "C#5",
          "midi": 73,
          "time": 87.39723403125086,
          "velocity": 0.7874015748031497,
          "duration": 0.13392843750000338
        },
        {
          "name": "C#6",
          "midi": 85,
          "time": 87.39723403125086,
          "velocity": 0.7874015748031497,
          "duration": 0.13392843750000338
        },
        {
          "name": "C#7",
          "midi": 97,
          "time": 87.39723403125086,
          "velocity": 0.7874015748031497,
          "duration": 0.13392843750000338
        },
        {
          "name": "C5",
          "midi": 72,
          "time": 87.54009103125087,
          "velocity": 0.7874015748031497,
          "duration": 0.13392843750000338
        },
        {
          "name": "C6",
          "midi": 84,
          "time": 87.54009103125087,
          "velocity": 0.7874015748031497,
          "duration": 0.13392843750000338
        },
        {
          "name": "C7",
          "midi": 96,
          "time": 87.54009103125087,
          "velocity": 0.7874015748031497,
          "duration": 0.13392843750000338
        },
        {
          "name": "C6",
          "midi": 84,
          "time": 87.68294803125087,
          "velocity": 0.7874015748031497,
          "duration": 0.13392843750000338
        },
        {
          "name": "C7",
          "midi": 96,
          "time": 87.68294803125087,
          "velocity": 0.7874015748031497,
          "duration": 0.13392843750000338
        },
        {
          "name": "C4",
          "midi": 60,
          "time": 87.82580503125088,
          "velocity": 0.7874015748031497,
          "duration": 0.13392843750000338
        },
        {
          "name": "C5",
          "midi": 72,
          "time": 87.82580503125088,
          "velocity": 0.7874015748031497,
          "duration": 0.13392843750000338
        },
        {
          "name": "C6",
          "midi": 84,
          "time": 87.82580503125088,
          "velocity": 0.7874015748031497,
          "duration": 0.13392843750000338
        },
        {
          "name": "C7",
          "midi": 96,
          "time": 87.82580503125088,
          "velocity": 0.7874015748031497,
          "duration": 0.13392843750000338
        },
        {
          "name": "D4",
          "midi": 62,
          "time": 87.96866203125089,
          "velocity": 0.7874015748031497,
          "duration": 0.13392843750000338
        },
        {
          "name": "D5",
          "midi": 74,
          "time": 87.96866203125089,
          "velocity": 0.7874015748031497,
          "duration": 0.13392843750000338
        },
        {
          "name": "D6",
          "midi": 86,
          "time": 87.96866203125089,
          "velocity": 0.7874015748031497,
          "duration": 0.13392843750000338
        },
        {
          "name": "D7",
          "midi": 98,
          "time": 87.96866203125089,
          "velocity": 0.7874015748031497,
          "duration": 0.13392843750000338
        },
        {
          "name": "C#4",
          "midi": 61,
          "time": 88.11241188750088,
          "velocity": 0.7874015748031497,
          "duration": 0.13214272499999424
        },
        {
          "name": "C#5",
          "midi": 73,
          "time": 88.11241188750088,
          "velocity": 0.7874015748031497,
          "duration": 0.13214272499999424
        },
        {
          "name": "C#6",
          "midi": 85,
          "time": 88.11241188750088,
          "velocity": 0.7874015748031497,
          "duration": 0.13214272499999424
        },
        {
          "name": "C#7",
          "midi": 97,
          "time": 88.11241188750088,
          "velocity": 0.7874015748031497,
          "duration": 0.13214272499999424
        },
        {
          "name": "C4",
          "midi": 60,
          "time": 88.25437603125087,
          "velocity": 0.7874015748031497,
          "duration": 0.13392843750000338
        },
        {
          "name": "C5",
          "midi": 72,
          "time": 88.25437603125087,
          "velocity": 0.7874015748031497,
          "duration": 0.13392843750000338
        },
        {
          "name": "C6",
          "midi": 84,
          "time": 88.25437603125087,
          "velocity": 0.7874015748031497,
          "duration": 0.13392843750000338
        },
        {
          "name": "C7",
          "midi": 96,
          "time": 88.25437603125087,
          "velocity": 0.7874015748031497,
          "duration": 0.13392843750000338
        },
        {
          "name": "D4",
          "midi": 62,
          "time": 88.39723303125088,
          "velocity": 0.7874015748031497,
          "duration": 0.4196424375000021
        },
        {
          "name": "D5",
          "midi": 74,
          "time": 88.39723303125088,
          "velocity": 0.7874015748031497,
          "duration": 0.4196424375000021
        },
        {
          "name": "D#5",
          "midi": 75,
          "time": 88.39723303125088,
          "velocity": 0.7874015748031497,
          "duration": 0.4196424375000021
        },
        {
          "name": "D6",
          "midi": 86,
          "time": 88.39723303125088,
          "velocity": 0.7874015748031497,
          "duration": 0.4196424375000021
        },
        {
          "name": "E6",
          "midi": 88,
          "time": 88.39723303125088,
          "velocity": 0.7874015748031497,
          "duration": 0.4196424375000021
        },
        {
          "name": "D7",
          "midi": 98,
          "time": 88.39723303125088,
          "velocity": 0.7874015748031497,
          "duration": 0.4196424375000021
        },
        {
          "name": "E7",
          "midi": 100,
          "time": 88.39723303125088,
          "velocity": 0.7874015748031497,
          "duration": 0.4196424375000021
        },
        {
          "name": "C#4",
          "midi": 61,
          "time": 88.82580403125088,
          "velocity": 0.7874015748031497,
          "duration": 0.4187495812499975
        },
        {
          "name": "C#5",
          "midi": 73,
          "time": 88.82580403125088,
          "velocity": 0.7874015748031497,
          "duration": 0.4187495812499975
        },
        {
          "name": "D5",
          "midi": 74,
          "time": 88.82580403125088,
          "velocity": 0.7874015748031497,
          "duration": 0.4187495812499975
        },
        {
          "name": "C#6",
          "midi": 85,
          "time": 88.82580403125088,
          "velocity": 0.7874015748031497,
          "duration": 0.4187495812499975
        },
        {
          "name": "D#6",
          "midi": 87,
          "time": 88.82580403125088,
          "velocity": 0.7874015748031497,
          "duration": 0.4187495812499975
        },
        {
          "name": "C#7",
          "midi": 97,
          "time": 88.82580403125088,
          "velocity": 0.7874015748031497,
          "duration": 0.4187495812499975
        },
        {
          "name": "D#7",
          "midi": 99,
          "time": 88.82580403125088,
          "velocity": 0.7874015748031497,
          "duration": 0.4187495812499975
        },
        {
          "name": "C4",
          "midi": 60,
          "time": 89.25437503125087,
          "velocity": 0.7874015748031497,
          "duration": 0.13392843750000338
        },
        {
          "name": "C5",
          "midi": 72,
          "time": 89.25437503125087,
          "velocity": 0.7874015748031497,
          "duration": 0.13392843750000338
        },
        {
          "name": "C6",
          "midi": 84,
          "time": 89.25437503125087,
          "velocity": 0.7874015748031497,
          "duration": 0.13392843750000338
        },
        {
          "name": "C7",
          "midi": 96,
          "time": 89.25437503125087,
          "velocity": 0.7874015748031497,
          "duration": 0.13392843750000338
        },
        {
          "name": "C6",
          "midi": 84,
          "time": 89.39723203125088,
          "velocity": 0.7874015748031497,
          "duration": 0.13392843750000338
        },
        {
          "name": "C7",
          "midi": 96,
          "time": 89.39723203125088,
          "velocity": 0.7874015748031497,
          "duration": 0.13392843750000338
        },
        {
          "name": "C4",
          "midi": 60,
          "time": 89.54008903125089,
          "velocity": 0.7874015748031497,
          "duration": 0.13392843750000338
        },
        {
          "name": "C5",
          "midi": 72,
          "time": 89.54008903125089,
          "velocity": 0.7874015748031497,
          "duration": 0.13392843750000338
        },
        {
          "name": "C6",
          "midi": 84,
          "time": 89.54008903125089,
          "velocity": 0.7874015748031497,
          "duration": 0.13392843750000338
        },
        {
          "name": "C7",
          "midi": 96,
          "time": 89.54008903125089,
          "velocity": 0.7874015748031497,
          "duration": 0.13392843750000338
        },
        {
          "name": "D4",
          "midi": 62,
          "time": 89.68294603125089,
          "velocity": 0.7874015748031497,
          "duration": 0.13392843750000338
        },
        {
          "name": "D5",
          "midi": 74,
          "time": 89.68294603125089,
          "velocity": 0.7874015748031497,
          "duration": 0.13392843750000338
        },
        {
          "name": "D6",
          "midi": 86,
          "time": 89.68294603125089,
          "velocity": 0.7874015748031497,
          "duration": 0.13392843750000338
        },
        {
          "name": "D7",
          "midi": 98,
          "time": 89.68294603125089,
          "velocity": 0.7874015748031497,
          "duration": 0.13392843750000338
        },
        {
          "name": "C#4",
          "midi": 61,
          "time": 89.8258030312509,
          "velocity": 0.7874015748031497,
          "duration": 0.13392843750000338
        },
        {
          "name": "C#5",
          "midi": 73,
          "time": 89.8258030312509,
          "velocity": 0.7874015748031497,
          "duration": 0.13392843750000338
        },
        {
          "name": "C#6",
          "midi": 85,
          "time": 89.8258030312509,
          "velocity": 0.7874015748031497,
          "duration": 0.13392843750000338
        },
        {
          "name": "C#7",
          "midi": 97,
          "time": 89.8258030312509,
          "velocity": 0.7874015748031497,
          "duration": 0.13392843750000338
        },
        {
          "name": "C4",
          "midi": 60,
          "time": 89.9686600312509,
          "velocity": 0.7874015748031497,
          "duration": 0.13392843750000338
        },
        {
          "name": "C5",
          "midi": 72,
          "time": 89.9686600312509,
          "velocity": 0.7874015748031497,
          "duration": 0.13392843750000338
        },
        {
          "name": "C6",
          "midi": 84,
          "time": 89.9686600312509,
          "velocity": 0.7874015748031497,
          "duration": 0.13392843750000338
        },
        {
          "name": "C7",
          "midi": 96,
          "time": 89.9686600312509,
          "velocity": 0.7874015748031497,
          "duration": 0.13392843750000338
        },
        {
          "name": "D4",
          "midi": 62,
          "time": 90.1124098875009,
          "velocity": 0.7874015748031497,
          "duration": 0.27589258125000526
        },
        {
          "name": "D#5",
          "midi": 75,
          "time": 90.1124098875009,
          "velocity": 0.7874015748031497,
          "duration": 0.27589258125000526
        },
        {
          "name": "E6",
          "midi": 88,
          "time": 90.1124098875009,
          "velocity": 0.7874015748031497,
          "duration": 0.27589258125000526
        },
        {
          "name": "D#7",
          "midi": 99,
          "time": 90.1124098875009,
          "velocity": 0.7874015748031497,
          "duration": 0.06160708125000269
        },
        {
          "name": "E7",
          "midi": 100,
          "time": 90.18294553125091,
          "velocity": 0.7874015748031497,
          "duration": 0.06249993749999305
        },
        {
          "name": "D#7",
          "midi": 99,
          "time": 90.2543740312509,
          "velocity": 0.7874015748031497,
          "duration": 0.13392843750000338
        },
        {
          "name": "D5",
          "midi": 74,
          "time": 90.39723103125091,
          "velocity": 0.7874015748031497,
          "duration": 0.13392843750000338
        },
        {
          "name": "D6",
          "midi": 86,
          "time": 90.39723103125091,
          "velocity": 0.7874015748031497,
          "duration": 0.13392843750000338
        },
        {
          "name": "D7",
          "midi": 98,
          "time": 90.39723103125091,
          "velocity": 0.7874015748031497,
          "duration": 0.13392843750000338
        },
        {
          "name": "D4",
          "midi": 62,
          "time": 90.54008803125092,
          "velocity": 0.7874015748031497,
          "duration": 0.13392843750000338
        },
        {
          "name": "D#5",
          "midi": 75,
          "time": 90.54008803125092,
          "velocity": 0.7874015748031497,
          "duration": 0.13392843750000338
        },
        {
          "name": "D#6",
          "midi": 87,
          "time": 90.54008803125092,
          "velocity": 0.7874015748031497,
          "duration": 0.13392843750000338
        },
        {
          "name": "D#7",
          "midi": 99,
          "time": 90.54008803125092,
          "velocity": 0.7874015748031497,
          "duration": 0.13392843750000338
        },
        {
          "name": "C#4",
          "midi": 61,
          "time": 90.68294503125092,
          "velocity": 0.7874015748031497,
          "duration": 0.13392843750000338
        },
        {
          "name": "D5",
          "midi": 74,
          "time": 90.68294503125092,
          "velocity": 0.7874015748031497,
          "duration": 0.13392843750000338
        },
        {
          "name": "D6",
          "midi": 86,
          "time": 90.68294503125092,
          "velocity": 0.7874015748031497,
          "duration": 0.13392843750000338
        },
        {
          "name": "D7",
          "midi": 98,
          "time": 90.68294503125092,
          "velocity": 0.7874015748031497,
          "duration": 0.13392843750000338
        },
        {
          "name": "C4",
          "midi": 60,
          "time": 90.82580203125093,
          "velocity": 0.7874015748031497,
          "duration": 0.13392843750000338
        },
        {
          "name": "C#5",
          "midi": 73,
          "time": 90.82580203125093,
          "velocity": 0.7874015748031497,
          "duration": 0.13392843750000338
        },
        {
          "name": "C#6",
          "midi": 85,
          "time": 90.82580203125093,
          "velocity": 0.7874015748031497,
          "duration": 0.13392843750000338
        },
        {
          "name": "C#7",
          "midi": 97,
          "time": 90.82580203125093,
          "velocity": 0.7874015748031497,
          "duration": 0.13392843750000338
        },
        {
          "name": "C5",
          "midi": 72,
          "time": 90.96865903125094,
          "velocity": 0.7874015748031497,
          "duration": 0.13392843750000338
        },
        {
          "name": "C6",
          "midi": 84,
          "time": 90.96865903125094,
          "velocity": 0.7874015748031497,
          "duration": 0.13392843750000338
        },
        {
          "name": "C7",
          "midi": 96,
          "time": 90.96865903125094,
          "velocity": 0.7874015748031497,
          "duration": 0.13392843750000338
        },
        {
          "name": "D4",
          "midi": 62,
          "time": 91.11240888750093,
          "velocity": 0.7874015748031497,
          "duration": 0.1330355812499988
        },
        {
          "name": "D5",
          "midi": 74,
          "time": 91.11240888750093,
          "velocity": 0.7874015748031497,
          "duration": 0.1330355812499988
        },
        {
          "name": "D#5",
          "midi": 75,
          "time": 91.11240888750093,
          "velocity": 0.7874015748031497,
          "duration": 0.1330355812499988
        },
        {
          "name": "D6",
          "midi": 86,
          "time": 91.11240888750093,
          "velocity": 0.7874015748031497,
          "duration": 0.1330355812499988
        },
        {
          "name": "E6",
          "midi": 88,
          "time": 91.11240888750093,
          "velocity": 0.7874015748031497,
          "duration": 0.1330355812499988
        },
        {
          "name": "D7",
          "midi": 98,
          "time": 91.11240888750093,
          "velocity": 0.7874015748031497,
          "duration": 0.1330355812499988
        },
        {
          "name": "E7",
          "midi": 100,
          "time": 91.11240888750093,
          "velocity": 0.7874015748031497,
          "duration": 0.1330355812499988
        },
        {
          "name": "D4",
          "midi": 62,
          "time": 91.39723003125093,
          "velocity": 0.7874015748031497,
          "duration": 0.4196424375000021
        },
        {
          "name": "D5",
          "midi": 74,
          "time": 91.39723003125093,
          "velocity": 0.7874015748031497,
          "duration": 0.4196424375000021
        },
        {
          "name": "D#5",
          "midi": 75,
          "time": 91.39723003125093,
          "velocity": 0.7874015748031497,
          "duration": 0.4196424375000021
        },
        {
          "name": "D6",
          "midi": 86,
          "time": 91.39723003125093,
          "velocity": 0.7874015748031497,
          "duration": 0.4196424375000021
        },
        {
          "name": "E6",
          "midi": 88,
          "time": 91.39723003125093,
          "velocity": 0.7874015748031497,
          "duration": 0.4196424375000021
        },
        {
          "name": "D7",
          "midi": 98,
          "time": 91.39723003125093,
          "velocity": 0.7874015748031497,
          "duration": 0.4196424375000021
        },
        {
          "name": "E7",
          "midi": 100,
          "time": 91.39723003125093,
          "velocity": 0.7874015748031497,
          "duration": 0.4196424375000021
        },
        {
          "name": "C4",
          "midi": 60,
          "time": 91.82580103125093,
          "velocity": 0.7874015748031497,
          "duration": 0.13392843750000338
        },
        {
          "name": "C5",
          "midi": 72,
          "time": 91.82580103125093,
          "velocity": 0.7874015748031497,
          "duration": 0.13392843750000338
        },
        {
          "name": "C6",
          "midi": 84,
          "time": 91.82580103125093,
          "velocity": 0.7874015748031497,
          "duration": 0.13392843750000338
        },
        {
          "name": "C7",
          "midi": 96,
          "time": 91.82580103125093,
          "velocity": 0.7874015748031497,
          "duration": 0.13392843750000338
        },
        {
          "name": "C#4",
          "midi": 61,
          "time": 91.96865803125094,
          "velocity": 0.7874015748031497,
          "duration": 0.13392843750000338
        },
        {
          "name": "C#5",
          "midi": 73,
          "time": 91.96865803125094,
          "velocity": 0.7874015748031497,
          "duration": 0.13392843750000338
        },
        {
          "name": "D5",
          "midi": 74,
          "time": 91.96865803125094,
          "velocity": 0.7874015748031497,
          "duration": 0.13392843750000338
        },
        {
          "name": "C#6",
          "midi": 85,
          "time": 91.96865803125094,
          "velocity": 0.7874015748031497,
          "duration": 0.13392843750000338
        },
        {
          "name": "D#6",
          "midi": 87,
          "time": 91.96865803125094,
          "velocity": 0.7874015748031497,
          "duration": 0.13392843750000338
        },
        {
          "name": "C#7",
          "midi": 97,
          "time": 91.96865803125094,
          "velocity": 0.7874015748031497,
          "duration": 0.13392843750000338
        },
        {
          "name": "D#7",
          "midi": 99,
          "time": 91.96865803125094,
          "velocity": 0.7874015748031497,
          "duration": 0.13392843750000338
        },
        {
          "name": "C#4",
          "midi": 61,
          "time": 92.25437203125094,
          "velocity": 0.7874015748031497,
          "duration": 0.4196424375000021
        },
        {
          "name": "D4",
          "midi": 62,
          "time": 92.25437203125094,
          "velocity": 0.7874015748031497,
          "duration": 0.4196424375000021
        },
        {
          "name": "C#5",
          "midi": 73,
          "time": 92.25437203125094,
          "velocity": 0.7874015748031497,
          "duration": 0.4196424375000021
        },
        {
          "name": "D5",
          "midi": 74,
          "time": 92.25437203125094,
          "velocity": 0.7874015748031497,
          "duration": 0.4196424375000021
        },
        {
          "name": "C#6",
          "midi": 85,
          "time": 92.25437203125094,
          "velocity": 0.7874015748031497,
          "duration": 0.4196424375000021
        },
        {
          "name": "D#6",
          "midi": 87,
          "time": 92.25437203125094,
          "velocity": 0.7874015748031497,
          "duration": 0.4196424375000021
        },
        {
          "name": "C#7",
          "midi": 97,
          "time": 92.25437203125094,
          "velocity": 0.7874015748031497,
          "duration": 0.4196424375000021
        },
        {
          "name": "D#7",
          "midi": 99,
          "time": 92.25437203125094,
          "velocity": 0.7874015748031497,
          "duration": 0.4196424375000021
        },
        {
          "name": "C#4",
          "midi": 61,
          "time": 92.68294303125094,
          "velocity": 0.7874015748031497,
          "duration": 0.13392843750000338
        },
        {
          "name": "D4",
          "midi": 62,
          "time": 92.68294303125094,
          "velocity": 0.7874015748031497,
          "duration": 0.13392843750000338
        },
        {
          "name": "C#5",
          "midi": 73,
          "time": 92.68294303125094,
          "velocity": 0.7874015748031497,
          "duration": 0.13392843750000338
        },
        {
          "name": "D5",
          "midi": 74,
          "time": 92.68294303125094,
          "velocity": 0.7874015748031497,
          "duration": 0.13392843750000338
        },
        {
          "name": "C#6",
          "midi": 85,
          "time": 92.68294303125094,
          "velocity": 0.7874015748031497,
          "duration": 0.13392843750000338
        },
        {
          "name": "D#6",
          "midi": 87,
          "time": 92.68294303125094,
          "velocity": 0.7874015748031497,
          "duration": 0.13392843750000338
        },
        {
          "name": "C#7",
          "midi": 97,
          "time": 92.68294303125094,
          "velocity": 0.7874015748031497,
          "duration": 0.13392843750000338
        },
        {
          "name": "D#7",
          "midi": 99,
          "time": 92.68294303125094,
          "velocity": 0.7874015748031497,
          "duration": 0.13392843750000338
        },
        {
          "name": "E7",
          "midi": 100,
          "time": 92.68294303125094,
          "velocity": 0.7874015748031497,
          "duration": 0.13392843750000338
        },
        {
          "name": "C#4",
          "midi": 61,
          "time": 92.96865703125094,
          "velocity": 0.7874015748031497,
          "duration": 0.13392843750000338
        },
        {
          "name": "D4",
          "midi": 62,
          "time": 92.96865703125094,
          "velocity": 0.7874015748031497,
          "duration": 0.13392843750000338
        },
        {
          "name": "C#5",
          "midi": 73,
          "time": 92.96865703125094,
          "velocity": 0.7874015748031497,
          "duration": 0.13392843750000338
        },
        {
          "name": "D5",
          "midi": 74,
          "time": 92.96865703125094,
          "velocity": 0.7874015748031497,
          "duration": 0.13392843750000338
        },
        {
          "name": "C#6",
          "midi": 85,
          "time": 92.96865703125094,
          "velocity": 0.7874015748031497,
          "duration": 0.13392843750000338
        },
        {
          "name": "D#6",
          "midi": 87,
          "time": 92.96865703125094,
          "velocity": 0.7874015748031497,
          "duration": 0.13392843750000338
        },
        {
          "name": "C#7",
          "midi": 97,
          "time": 92.96865703125094,
          "velocity": 0.7874015748031497,
          "duration": 0.13392843750000338
        },
        {
          "name": "D#7",
          "midi": 99,
          "time": 92.96865703125094,
          "velocity": 0.7874015748031497,
          "duration": 0.13392843750000338
        },
        {
          "name": "E7",
          "midi": 100,
          "time": 92.96865703125094,
          "velocity": 0.7874015748031497,
          "duration": 0.13392843750000338
        },
        {
          "name": "C#4",
          "midi": 61,
          "time": 93.25437103125094,
          "velocity": 0.7874015748031497,
          "duration": 0.13392843750000338
        },
        {
          "name": "D4",
          "midi": 62,
          "time": 93.25437103125094,
          "velocity": 0.7874015748031497,
          "duration": 0.13392843750000338
        },
        {
          "name": "C#5",
          "midi": 73,
          "time": 93.25437103125094,
          "velocity": 0.7874015748031497,
          "duration": 0.13392843750000338
        },
        {
          "name": "D5",
          "midi": 74,
          "time": 93.25437103125094,
          "velocity": 0.7874015748031497,
          "duration": 0.13392843750000338
        },
        {
          "name": "C#6",
          "midi": 85,
          "time": 93.25437103125094,
          "velocity": 0.7874015748031497,
          "duration": 0.13392843750000338
        },
        {
          "name": "D#6",
          "midi": 87,
          "time": 93.25437103125094,
          "velocity": 0.7874015748031497,
          "duration": 0.13392843750000338
        },
        {
          "name": "C#7",
          "midi": 97,
          "time": 93.25437103125094,
          "velocity": 0.7874015748031497,
          "duration": 0.13392843750000338
        },
        {
          "name": "D#7",
          "midi": 99,
          "time": 93.25437103125094,
          "velocity": 0.7874015748031497,
          "duration": 0.13392843750000338
        },
        {
          "name": "E7",
          "midi": 100,
          "time": 93.25437103125094,
          "velocity": 0.7874015748031497,
          "duration": 0.13392843750000338
        },
        {
          "name": "C#4",
          "midi": 61,
          "time": 93.54008503125094,
          "velocity": 0.7874015748031497,
          "duration": 0.13392843750000338
        },
        {
          "name": "D4",
          "midi": 62,
          "time": 93.54008503125094,
          "velocity": 0.7874015748031497,
          "duration": 0.13392843750000338
        },
        {
          "name": "C#5",
          "midi": 73,
          "time": 93.54008503125094,
          "velocity": 0.7874015748031497,
          "duration": 0.13392843750000338
        },
        {
          "name": "D5",
          "midi": 74,
          "time": 93.54008503125094,
          "velocity": 0.7874015748031497,
          "duration": 0.13392843750000338
        },
        {
          "name": "C#6",
          "midi": 85,
          "time": 93.54008503125094,
          "velocity": 0.7874015748031497,
          "duration": 0.13392843750000338
        },
        {
          "name": "D#6",
          "midi": 87,
          "time": 93.54008503125094,
          "velocity": 0.7874015748031497,
          "duration": 0.13392843750000338
        },
        {
          "name": "C#7",
          "midi": 97,
          "time": 93.54008503125094,
          "velocity": 0.7874015748031497,
          "duration": 0.13392843750000338
        },
        {
          "name": "D#7",
          "midi": 99,
          "time": 93.54008503125094,
          "velocity": 0.7874015748031497,
          "duration": 0.13392843750000338
        },
        {
          "name": "E7",
          "midi": 100,
          "time": 93.54008503125094,
          "velocity": 0.7874015748031497,
          "duration": 0.13392843750000338
        },
        {
          "name": "C#4",
          "midi": 61,
          "time": 93.82579903125094,
          "velocity": 0.7874015748031497,
          "duration": 0.13392843750000338
        },
        {
          "name": "D4",
          "midi": 62,
          "time": 93.82579903125094,
          "velocity": 0.7874015748031497,
          "duration": 0.13392843750000338
        },
        {
          "name": "C#5",
          "midi": 73,
          "time": 93.82579903125094,
          "velocity": 0.7874015748031497,
          "duration": 0.13392843750000338
        },
        {
          "name": "D5",
          "midi": 74,
          "time": 93.82579903125094,
          "velocity": 0.7874015748031497,
          "duration": 0.13392843750000338
        },
        {
          "name": "C#6",
          "midi": 85,
          "time": 93.82579903125094,
          "velocity": 0.7874015748031497,
          "duration": 0.13392843750000338
        },
        {
          "name": "D#6",
          "midi": 87,
          "time": 93.82579903125094,
          "velocity": 0.7874015748031497,
          "duration": 0.13392843750000338
        },
        {
          "name": "C#7",
          "midi": 97,
          "time": 93.82579903125094,
          "velocity": 0.7874015748031497,
          "duration": 0.13392843750000338
        },
        {
          "name": "D#7",
          "midi": 99,
          "time": 93.82579903125094,
          "velocity": 0.7874015748031497,
          "duration": 0.13392843750000338
        },
        {
          "name": "E7",
          "midi": 100,
          "time": 93.82579903125094,
          "velocity": 0.7874015748031497,
          "duration": 0.13392843750000338
        },
        {
          "name": "C#4",
          "midi": 61,
          "time": 94.11240588750094,
          "velocity": 0.7874015748031497,
          "duration": 0.1330355812499988
        },
        {
          "name": "D4",
          "midi": 62,
          "time": 94.11240588750094,
          "velocity": 0.7874015748031497,
          "duration": 0.1330355812499988
        },
        {
          "name": "C#5",
          "midi": 73,
          "time": 94.11240588750094,
          "velocity": 0.7874015748031497,
          "duration": 0.1330355812499988
        },
        {
          "name": "D5",
          "midi": 74,
          "time": 94.11240588750094,
          "velocity": 0.7874015748031497,
          "duration": 0.1330355812499988
        },
        {
          "name": "C#6",
          "midi": 85,
          "time": 94.11240588750094,
          "velocity": 0.7874015748031497,
          "duration": 0.1330355812499988
        },
        {
          "name": "D#6",
          "midi": 87,
          "time": 94.11240588750094,
          "velocity": 0.7874015748031497,
          "duration": 0.1330355812499988
        },
        {
          "name": "C#7",
          "midi": 97,
          "time": 94.11240588750094,
          "velocity": 0.7874015748031497,
          "duration": 0.1330355812499988
        },
        {
          "name": "D#7",
          "midi": 99,
          "time": 94.11240588750094,
          "velocity": 0.7874015748031497,
          "duration": 0.1330355812499988
        },
        {
          "name": "E7",
          "midi": 100,
          "time": 94.11240588750094,
          "velocity": 0.7874015748031497,
          "duration": 0.1330355812499988
        },
        {
          "name": "C#4",
          "midi": 61,
          "time": 94.39722703125094,
          "velocity": 0.7874015748031497,
          "duration": 0.848213437499993
        },
        {
          "name": "D4",
          "midi": 62,
          "time": 94.39722703125094,
          "velocity": 0.7874015748031497,
          "duration": 0.848213437499993
        },
        {
          "name": "C#5",
          "midi": 73,
          "time": 94.39722703125094,
          "velocity": 0.7874015748031497,
          "duration": 0.848213437499993
        },
        {
          "name": "D5",
          "midi": 74,
          "time": 94.39722703125094,
          "velocity": 0.7874015748031497,
          "duration": 0.848213437499993
        },
        {
          "name": "C#6",
          "midi": 85,
          "time": 94.39722703125094,
          "velocity": 0.7874015748031497,
          "duration": 0.848213437499993
        },
        {
          "name": "D#6",
          "midi": 87,
          "time": 94.39722703125094,
          "velocity": 0.7874015748031497,
          "duration": 0.848213437499993
        },
        {
          "name": "C#7",
          "midi": 97,
          "time": 94.39722703125094,
          "velocity": 0.7874015748031497,
          "duration": 0.848213437499993
        },
        {
          "name": "D#7",
          "midi": 99,
          "time": 94.39722703125094,
          "velocity": 0.7874015748031497,
          "duration": 0.848213437499993
        },
        {
          "name": "E7",
          "midi": 100,
          "time": 94.39722703125094,
          "velocity": 0.7874015748031497,
          "duration": 0.848213437499993
        }
      ],
      "controlChanges": {},
      "id": 2,
      "name": "PART GUITAR",
      "channelNumber": 0,
      "isPercussion": false
    }
  ]
}
