{
  "header": {
    "PPQ": 480,
    "bpm": 169.4915254237288,
    "timeSignature": [
      4,
      4
    ],
    "name": "EVENTS"
  },
  "startTime": 0,
  "duration": 297.71326250000135,
  "tracks": [
    {
      "startTime": 0,
      "duration": 0,
      "length": 0,
      "notes": [],
      "controlChanges": {},
      "id": 0
    },
    {
      "startTime": 0,
      "duration": 0,
      "length": 0,
      "notes": [],
      "controlChanges": {},
      "id": 1,
      "name": "EVENTS"
    },
    {
      "startTime": 14.160000000000002,
      "duration": 297.71326250000135,
      "length": 5504,
      "notes": [
        {
          "name": "C4",
          "midi": 60,
          "time": 14.160000000000002,
          "velocity": 0.7874015748031497,
          "duration": 0.04351250000000029
        },
        {
          "name": "F#4",
          "midi": 66,
          "time": 14.160000000000002,
          "velocity": 0.7874015748031497,
          "duration": 0.04351250000000029
        },
        {
          "name": "C5",
          "midi": 72,
          "time": 14.160000000000002,
          "velocity": 0.7874015748031497,
          "duration": 0.04351250000000029
        },
        {
          "name": "F#5",
          "midi": 78,
          "time": 14.160000000000002,
          "velocity": 0.7874015748031497,
          "duration": 0.04351250000000029
        },
        {
          "name": "C6",
          "midi": 84,
          "time": 14.160000000000002,
          "velocity": 0.7874015748031497,
          "duration": 0.04351250000000029
        },
        {
          "name": "F#6",
          "midi": 90,
          "time": 14.160000000000002,
          "velocity": 0.7874015748031497,
          "duration": 0.04351250000000029
        },
        {
          "name": "C7",
          "midi": 96,
          "time": 14.160000000000002,
          "velocity": 0.7874015748031497,
          "duration": 0.04351250000000029
        },
        {
          "name": "F#7",
          "midi": 102,
          "time": 14.160000000000002,
          "velocity": 0.7874015748031497,
          "duration": 0.04351250000000029
        },
        {
          "name": "C5",
          "midi": 72,
          "time": 14.336262500000002,
          "velocity": 0.7874015748031497,
          "duration": 0.04351250000000029
        },
        {
          "name": "F#5",
          "midi": 78,
          "time": 14.336262500000002,
          "velocity": 0.7874015748031497,
          "duration": 0.04351250000000029
        },
        {
          "name": "C6",
          "midi": 84,
          "time": 14.336262500000002,
          "velocity": 0.7874015748031497,
          "duration": 0.354000000000001
        },
        {
          "name": "F#6",
          "midi": 90,
          "time": 14.336262500000002,
          "velocity": 0.7874015748031497,
          "duration": 0.354000000000001
        },
        {
          "name": "C7",
          "midi": 96,
          "time": 14.336262500000002,
          "velocity": 0.7874015748031497,
          "duration": 0.35178750000000036
        },
        {
          "name": "F#7",
          "midi": 102,
          "time": 14.336262500000002,
          "velocity": 0.7874015748031497,
          "duration": 0.35178750000000036
        },
        {
          "name": "C7",
          "midi": 96,
          "time": 14.690262500000003,
          "velocity": 0.7874015748031497,
          "duration": 0.04351250000000029
        },
        {
          "name": "F#7",
          "midi": 102,
          "time": 14.690262500000003,
          "velocity": 0.7874015748031497,
          "duration": 0.04351250000000029
        },
        {
          "name": "D4",
          "midi": 62,
          "time": 14.868000000000004,
          "velocity": 0.7874015748031497,
          "duration": 2.1217875000000017
        },
        {
          "name": "F#4",
          "midi": 66,
          "time": 14.868000000000004,
          "velocity": 0.7874015748031497,
          "duration": 2.1217875000000017
        },
        {
          "name": "D5",
          "midi": 74,
          "time": 14.868000000000004,
          "velocity": 0.7874015748031497,
          "duration": 2.1217875000000017
        },
        {
          "name": "D#5",
          "midi": 75,
          "time": 14.868000000000004,
          "velocity": 0.7874015748031497,
          "duration": 2.1217875000000017
        },
        {
          "name": "F#5",
          "midi": 78,
          "time": 14.868000000000004,
          "velocity": 0.7874015748031497,
          "duration": 2.1217875000000017
        },
        {
          "name": "D6",
          "midi": 86,
          "time": 14.868000000000004,
          "velocity": 0.7874015748031497,
          "duration": 2.1217875000000017
        },
        {
          "name": "E6",
          "midi": 88,
          "time": 14.868000000000004,
          "velocity": 0.7874015748031497,
          "duration": 2.1217875000000017
        },
        {
          "name": "F#6",
          "midi": 90,
          "time": 14.868000000000004,
          "velocity": 0.7874015748031497,
          "duration": 2.1217875000000017
        },
        {
          "name": "D7",
          "midi": 98,
          "time": 14.868000000000004,
          "velocity": 0.7874015748031497,
          "duration": 2.1217875000000017
        },
        {
          "name": "D#7",
          "midi": 99,
          "time": 14.868000000000004,
          "velocity": 0.7874015748031497,
          "duration": 2.1217875000000017
        },
        {
          "name": "E7",
          "midi": 100,
          "time": 14.868000000000004,
          "velocity": 0.7874015748031497,
          "duration": 2.1217875000000017
        },
        {
          "name": "F#7",
          "midi": 102,
          "time": 14.868000000000004,
          "velocity": 0.7874015748031497,
          "duration": 2.1217875000000017
        },
        {
          "name": "C4",
          "midi": 60,
          "time": 16.992000000000004,
          "velocity": 0.7874015748031497,
          "duration": 0.04351249999999851
        },
        {
          "name": "F#4",
          "midi": 66,
          "time": 16.992000000000004,
          "velocity": 0.7874015748031497,
          "duration": 0.04351249999999851
        },
        {
          "name": "C5",
          "midi": 72,
          "time": 16.992000000000004,
          "velocity": 0.7874015748031497,
          "duration": 0.04351249999999851
        },
        {
          "name": "F#5",
          "midi": 78,
          "time": 16.992000000000004,
          "velocity": 0.7874015748031497,
          "duration": 0.04351249999999851
        },
        {
          "name": "C6",
          "midi": 84,
          "time": 16.992000000000004,
          "velocity": 0.7874015748031497,
          "duration": 0.04351249999999851
        },
        {
          "name": "F#6",
          "midi": 90,
          "time": 16.992000000000004,
          "velocity": 0.7874015748031497,
          "duration": 0.04351249999999851
        },
        {
          "name": "C7",
          "midi": 96,
          "time": 16.992000000000004,
          "velocity": 0.7874015748031497,
          "duration": 0.04351249999999851
        },
        {
          "name": "F#7",
          "midi": 102,
          "time": 16.992000000000004,
          "velocity": 0.7874015748031497,
          "duration": 0.04351249999999851
        },
        {
          "name": "C5",
          "midi": 72,
          "time": 17.169000000000004,
          "velocity": 0.7874015748031497,
          "duration": 0.04351249999999851
        },
        {
          "name": "F#5",
          "midi": 78,
          "time": 17.169000000000004,
          "velocity": 0.7874015748031497,
          "duration": 0.04351249999999851
        },
        {
          "name": "C6",
          "midi": 84,
          "time": 17.169000000000004,
          "velocity": 0.7874015748031497,
          "duration": 0.3532624999999996
        },
        {
          "name": "F#6",
          "midi": 90,
          "time": 17.169000000000004,
          "velocity": 0.7874015748031497,
          "duration": 0.3532624999999996
        },
        {
          "name": "C7",
          "midi": 96,
          "time": 17.169000000000004,
          "velocity": 0.7874015748031497,
          "duration": 0.352525
        },
        {
          "name": "F#7",
          "midi": 102,
          "time": 17.169000000000004,
          "velocity": 0.7874015748031497,
          "duration": 0.352525
        },
        {
          "name": "C7",
          "midi": 96,
          "time": 17.523737500000003,
          "velocity": 0.7874015748031497,
          "duration": 0.0427749999999989
        },
        {
          "name": "F#7",
          "midi": 102,
          "time": 17.523737500000003,
          "velocity": 0.7874015748031497,
          "duration": 0.0427749999999989
        },
        {
          "name": "C#4",
          "midi": 61,
          "time": 17.700000000000003,
          "velocity": 0.7874015748031497,
          "duration": 2.1217875
        },
        {
          "name": "F#4",
          "midi": 66,
          "time": 17.700000000000003,
          "velocity": 0.7874015748031497,
          "duration": 2.1217875
        },
        {
          "name": "C#5",
          "midi": 73,
          "time": 17.700000000000003,
          "velocity": 0.7874015748031497,
          "duration": 2.1217875
        },
        {
          "name": "D5",
          "midi": 74,
          "time": 17.700000000000003,
          "velocity": 0.7874015748031497,
          "duration": 2.1217875
        },
        {
          "name": "F#5",
          "midi": 78,
          "time": 17.700000000000003,
          "velocity": 0.7874015748031497,
          "duration": 2.1217875
        },
        {
          "name": "C#6",
          "midi": 85,
          "time": 17.700000000000003,
          "velocity": 0.7874015748031497,
          "duration": 2.1217875
        },
        {
          "name": "E6",
          "midi": 88,
          "time": 17.700000000000003,
          "velocity": 0.7874015748031497,
          "duration": 2.1217875
        },
        {
          "name": "F#6",
          "midi": 90,
          "time": 17.700000000000003,
          "velocity": 0.7874015748031497,
          "duration": 2.1217875
        },
        {
          "name": "C#7",
          "midi": 97,
          "time": 17.700000000000003,
          "velocity": 0.7874015748031497,
          "duration": 2.1217875
        },
        {
          "name": "D#7",
          "midi": 99,
          "time": 17.700000000000003,
          "velocity": 0.7874015748031497,
          "duration": 2.1217875
        },
        {
          "name": "E7",
          "midi": 100,
          "time": 17.700000000000003,
          "velocity": 0.7874015748031497,
          "duration": 2.1217875
        },
        {
          "name": "F#7",
          "midi": 102,
          "time": 17.700000000000003,
          "velocity": 0.7874015748031497,
          "duration": 2.1217875
        },
        {
          "name": "G#8",
          "midi": 116,
          "time": 19.824,
          "velocity": 0.7874015748031497,
          "duration": 5.663262499999991
        },
        {
          "name": "C4",
          "midi": 60,
          "time": 19.824,
          "velocity": 0.7874015748031497,
          "duration": 0.04351249999999851
        },
        {
          "name": "F#4",
          "midi": 66,
          "time": 19.824,
          "velocity": 0.7874015748031497,
          "duration": 0.04351249999999851
        },
        {
          "name": "C5",
          "midi": 72,
          "time": 19.824,
          "velocity": 0.7874015748031497,
          "duration": 0.04351249999999851
        },
        {
          "name": "F#5",
          "midi": 78,
          "time": 19.824,
          "velocity": 0.7874015748031497,
          "duration": 0.04351249999999851
        },
        {
          "name": "C6",
          "midi": 84,
          "time": 19.824,
          "velocity": 0.7874015748031497,
          "duration": 0.04351249999999851
        },
        {
          "name": "F#6",
          "midi": 90,
          "time": 19.824,
          "velocity": 0.7874015748031497,
          "duration": 0.04351249999999851
        },
        {
          "name": "C7",
          "midi": 96,
          "time": 19.824,
          "velocity": 0.7874015748031497,
          "duration": 0.04351249999999851
        },
        {
          "name": "F#7",
          "midi": 102,
          "time": 19.824,
          "velocity": 0.7874015748031497,
          "duration": 0.04351249999999851
        },
        {
          "name": "C5",
          "midi": 72,
          "time": 20.001,
          "velocity": 0.7874015748031497,
          "duration": 0.04351249999999851
        },
        {
          "name": "F#5",
          "midi": 78,
          "time": 20.001,
          "velocity": 0.7874015748031497,
          "duration": 0.04351249999999851
        },
        {
          "name": "C6",
          "midi": 84,
          "time": 20.001,
          "velocity": 0.7874015748031497,
          "duration": 0.35326249999999604
        },
        {
          "name": "F#6",
          "midi": 90,
          "time": 20.001,
          "velocity": 0.7874015748031497,
          "duration": 0.35326249999999604
        },
        {
          "name": "C7",
          "midi": 96,
          "time": 20.001,
          "velocity": 0.7874015748031497,
          "duration": 0.3517874999999968
        },
        {
          "name": "F#7",
          "midi": 102,
          "time": 20.001,
          "velocity": 0.7874015748031497,
          "duration": 0.3517874999999968
        },
        {
          "name": "C7",
          "midi": 96,
          "time": 20.354262499999997,
          "velocity": 0.7874015748031497,
          "duration": 0.04351249999999851
        },
        {
          "name": "F#7",
          "midi": 102,
          "time": 20.354262499999997,
          "velocity": 0.7874015748031497,
          "duration": 0.04351249999999851
        },
        {
          "name": "C4",
          "midi": 60,
          "time": 20.531999999999996,
          "velocity": 0.7874015748031497,
          "duration": 2.1217875
        },
        {
          "name": "F#4",
          "midi": 66,
          "time": 20.531999999999996,
          "velocity": 0.7874015748031497,
          "duration": 2.1217875
        },
        {
          "name": "C5",
          "midi": 72,
          "time": 20.531999999999996,
          "velocity": 0.7874015748031497,
          "duration": 2.1217875
        },
        {
          "name": "C#5",
          "midi": 73,
          "time": 20.531999999999996,
          "velocity": 0.7874015748031497,
          "duration": 2.1217875
        },
        {
          "name": "F#5",
          "midi": 78,
          "time": 20.531999999999996,
          "velocity": 0.7874015748031497,
          "duration": 2.1217875
        },
        {
          "name": "C6",
          "midi": 84,
          "time": 20.531999999999996,
          "velocity": 0.7874015748031497,
          "duration": 2.1217875
        },
        {
          "name": "D#6",
          "midi": 87,
          "time": 20.531999999999996,
          "velocity": 0.7874015748031497,
          "duration": 2.1217875
        },
        {
          "name": "F#6",
          "midi": 90,
          "time": 20.531999999999996,
          "velocity": 0.7874015748031497,
          "duration": 2.1217875
        },
        {
          "name": "C7",
          "midi": 96,
          "time": 20.531999999999996,
          "velocity": 0.7874015748031497,
          "duration": 2.1217875
        },
        {
          "name": "C#7",
          "midi": 97,
          "time": 20.531999999999996,
          "velocity": 0.7874015748031497,
          "duration": 2.1217875
        },
        {
          "name": "D#7",
          "midi": 99,
          "time": 20.531999999999996,
          "velocity": 0.7874015748031497,
          "duration": 2.1217875
        },
        {
          "name": "F#7",
          "midi": 102,
          "time": 20.531999999999996,
          "velocity": 0.7874015748031497,
          "duration": 2.1217875
        },
        {
          "name": "C4",
          "midi": 60,
          "time": 22.655999999999995,
          "velocity": 0.7874015748031497,
          "duration": 0.04351249999999851
        },
        {
          "name": "F#4",
          "midi": 66,
          "time": 22.655999999999995,
          "velocity": 0.7874015748031497,
          "duration": 0.04351249999999851
        },
        {
          "name": "C5",
          "midi": 72,
          "time": 22.655999999999995,
          "velocity": 0.7874015748031497,
          "duration": 0.04351249999999851
        },
        {
          "name": "F#5",
          "midi": 78,
          "time": 22.655999999999995,
          "velocity": 0.7874015748031497,
          "duration": 0.04351249999999851
        },
        {
          "name": "C6",
          "midi": 84,
          "time": 22.655999999999995,
          "velocity": 0.7874015748031497,
          "duration": 0.04351249999999851
        },
        {
          "name": "F#6",
          "midi": 90,
          "time": 22.655999999999995,
          "velocity": 0.7874015748031497,
          "duration": 0.04351249999999851
        },
        {
          "name": "C7",
          "midi": 96,
          "time": 22.655999999999995,
          "velocity": 0.7874015748031497,
          "duration": 0.04351249999999851
        },
        {
          "name": "F#7",
          "midi": 102,
          "time": 22.655999999999995,
          "velocity": 0.7874015748031497,
          "duration": 0.04351249999999851
        },
        {
          "name": "C5",
          "midi": 72,
          "time": 22.832262499999995,
          "velocity": 0.7874015748031497,
          "duration": 0.04351249999999851
        },
        {
          "name": "F#5",
          "midi": 78,
          "time": 22.832262499999995,
          "velocity": 0.7874015748031497,
          "duration": 0.04351249999999851
        },
        {
          "name": "C6",
          "midi": 84,
          "time": 22.832262499999995,
          "velocity": 0.7874015748031497,
          "duration": 0.3539999999999992
        },
        {
          "name": "F#6",
          "midi": 90,
          "time": 22.832262499999995,
          "velocity": 0.7874015748031497,
          "duration": 0.3539999999999992
        },
        {
          "name": "C7",
          "midi": 96,
          "time": 22.832262499999995,
          "velocity": 0.7874015748031497,
          "duration": 0.352525
        },
        {
          "name": "F#7",
          "midi": 102,
          "time": 22.832262499999995,
          "velocity": 0.7874015748031497,
          "duration": 0.352525
        },
        {
          "name": "C7",
          "midi": 96,
          "time": 23.186262499999994,
          "velocity": 0.7874015748031497,
          "duration": 0.04351249999999851
        },
        {
          "name": "F#7",
          "midi": 102,
          "time": 23.186262499999994,
          "velocity": 0.7874015748031497,
          "duration": 0.04351249999999851
        },
        {
          "name": "C#4",
          "midi": 61,
          "time": 23.363999999999994,
          "velocity": 0.7874015748031497,
          "duration": 2.1217875
        },
        {
          "name": "F#4",
          "midi": 66,
          "time": 23.363999999999994,
          "velocity": 0.7874015748031497,
          "duration": 2.1217875
        },
        {
          "name": "C5",
          "midi": 72,
          "time": 23.363999999999994,
          "velocity": 0.7874015748031497,
          "duration": 2.1217875
        },
        {
          "name": "D5",
          "midi": 74,
          "time": 23.363999999999994,
          "velocity": 0.7874015748031497,
          "duration": 2.1217875
        },
        {
          "name": "F#5",
          "midi": 78,
          "time": 23.363999999999994,
          "velocity": 0.7874015748031497,
          "duration": 2.1217875
        },
        {
          "name": "C#6",
          "midi": 85,
          "time": 23.363999999999994,
          "velocity": 0.7874015748031497,
          "duration": 2.1217875
        },
        {
          "name": "D#6",
          "midi": 87,
          "time": 23.363999999999994,
          "velocity": 0.7874015748031497,
          "duration": 2.1217875
        },
        {
          "name": "F#6",
          "midi": 90,
          "time": 23.363999999999994,
          "velocity": 0.7874015748031497,
          "duration": 2.1217875
        },
        {
          "name": "C#7",
          "midi": 97,
          "time": 23.363999999999994,
          "velocity": 0.7874015748031497,
          "duration": 2.1217875
        },
        {
          "name": "D7",
          "midi": 98,
          "time": 23.363999999999994,
          "velocity": 0.7874015748031497,
          "duration": 2.1217875
        },
        {
          "name": "D#7",
          "midi": 99,
          "time": 23.363999999999994,
          "velocity": 0.7874015748031497,
          "duration": 2.1217875
        },
        {
          "name": "F#7",
          "midi": 102,
          "time": 23.363999999999994,
          "velocity": 0.7874015748031497,
          "duration": 2.1217875
        },
        {
          "name": "C4",
          "midi": 60,
          "time": 25.487999999999992,
          "velocity": 0.7874015748031497,
          "duration": 0.04425000000000168
        },
        {
          "name": "F#4",
          "midi": 66,
          "time": 25.487999999999992,
          "velocity": 0.7874015748031497,
          "duration": 0.04425000000000168
        },
        {
          "name": "C5",
          "midi": 72,
          "time": 25.487999999999992,
          "velocity": 0.7874015748031497,
          "duration": 0.04425000000000168
        },
        {
          "name": "F#5",
          "midi": 78,
          "time": 25.487999999999992,
          "velocity": 0.7874015748031497,
          "duration": 0.04425000000000168
        },
        {
          "name": "C6",
          "midi": 84,
          "time": 25.487999999999992,
          "velocity": 0.7874015748031497,
          "duration": 0.04425000000000168
        },
        {
          "name": "F#6",
          "midi": 90,
          "time": 25.487999999999992,
          "velocity": 0.7874015748031497,
          "duration": 0.04425000000000168
        },
        {
          "name": "C7",
          "midi": 96,
          "time": 25.487999999999992,
          "velocity": 0.7874015748031497,
          "duration": 0.04425000000000168
        },
        {
          "name": "F#7",
          "midi": 102,
          "time": 25.487999999999992,
          "velocity": 0.7874015748031497,
          "duration": 0.04425000000000168
        },
        {
          "name": "C5",
          "midi": 72,
          "time": 25.664999999999996,
          "velocity": 0.7874015748031497,
          "duration": 0.04425000000000168
        },
        {
          "name": "F#5",
          "midi": 78,
          "time": 25.664999999999996,
          "velocity": 0.7874015748031497,
          "duration": 0.04425000000000168
        },
        {
          "name": "C6",
          "midi": 84,
          "time": 25.664999999999996,
          "velocity": 0.7874015748031497,
          "duration": 0.3532624999999996
        },
        {
          "name": "F#6",
          "midi": 90,
          "time": 25.664999999999996,
          "velocity": 0.7874015748031497,
          "duration": 0.3532624999999996
        },
        {
          "name": "C7",
          "midi": 96,
          "time": 25.664999999999996,
          "velocity": 0.7874015748031497,
          "duration": 0.35178750000000036
        },
        {
          "name": "F#7",
          "midi": 102,
          "time": 25.664999999999996,
          "velocity": 0.7874015748031497,
          "duration": 0.35178750000000036
        },
        {
          "name": "C7",
          "midi": 96,
          "time": 26.018262499999995,
          "velocity": 0.7874015748031497,
          "duration": 0.04425000000000168
        },
        {
          "name": "F#7",
          "midi": 102,
          "time": 26.018262499999995,
          "velocity": 0.7874015748031497,
          "duration": 0.04425000000000168
        },
        {
          "name": "D4",
          "midi": 62,
          "time": 26.195999999999998,
          "velocity": 0.7874015748031497,
          "duration": 2.1217875
        },
        {
          "name": "F#4",
          "midi": 66,
          "time": 26.195999999999998,
          "velocity": 0.7874015748031497,
          "duration": 2.1217875
        },
        {
          "name": "D5",
          "midi": 74,
          "time": 26.195999999999998,
          "velocity": 0.7874015748031497,
          "duration": 2.1217875
        },
        {
          "name": "D#5",
          "midi": 75,
          "time": 26.195999999999998,
          "velocity": 0.7874015748031497,
          "duration": 2.1217875
        },
        {
          "name": "F#5",
          "midi": 78,
          "time": 26.195999999999998,
          "velocity": 0.7874015748031497,
          "duration": 2.1217875
        },
        {
          "name": "D6",
          "midi": 86,
          "time": 26.195999999999998,
          "velocity": 0.7874015748031497,
          "duration": 2.1217875
        },
        {
          "name": "E6",
          "midi": 88,
          "time": 26.195999999999998,
          "velocity": 0.7874015748031497,
          "duration": 2.1217875
        },
        {
          "name": "F#6",
          "midi": 90,
          "time": 26.195999999999998,
          "velocity": 0.7874015748031497,
          "duration": 2.1217875
        },
        {
          "name": "D7",
          "midi": 98,
          "time": 26.195999999999998,
          "velocity": 0.7874015748031497,
          "duration": 2.1217875
        },
        {
          "name": "D#7",
          "midi": 99,
          "time": 26.195999999999998,
          "velocity": 0.7874015748031497,
          "duration": 2.1217875
        },
        {
          "name": "E7",
          "midi": 100,
          "time": 26.195999999999998,
          "velocity": 0.7874015748031497,
          "duration": 2.1217875
        },
        {
          "name": "F#7",
          "midi": 102,
          "time": 26.195999999999998,
          "velocity": 0.7874015748031497,
          "duration": 2.1217875
        },
        {
          "name": "C4",
          "midi": 60,
          "time": 28.319999999999997,
          "velocity": 0.7874015748031497,
          "duration": 0.04351249999999851
        },
        {
          "name": "F#4",
          "midi": 66,
          "time": 28.319999999999997,
          "velocity": 0.7874015748031497,
          "duration": 0.04351249999999851
        },
        {
          "name": "C5",
          "midi": 72,
          "time": 28.319999999999997,
          "velocity": 0.7874015748031497,
          "duration": 0.04351249999999851
        },
        {
          "name": "F#5",
          "midi": 78,
          "time": 28.319999999999997,
          "velocity": 0.7874015748031497,
          "duration": 0.04351249999999851
        },
        {
          "name": "C6",
          "midi": 84,
          "time": 28.319999999999997,
          "velocity": 0.7874015748031497,
          "duration": 0.04351249999999851
        },
        {
          "name": "F#6",
          "midi": 90,
          "time": 28.319999999999997,
          "velocity": 0.7874015748031497,
          "duration": 0.04351249999999851
        },
        {
          "name": "C7",
          "midi": 96,
          "time": 28.319999999999997,
          "velocity": 0.7874015748031497,
          "duration": 0.04351249999999851
        },
        {
          "name": "F#7",
          "midi": 102,
          "time": 28.319999999999997,
          "velocity": 0.7874015748031497,
          "duration": 0.04351249999999851
        },
        {
          "name": "C5",
          "midi": 72,
          "time": 28.496262499999997,
          "velocity": 0.7874015748031497,
          "duration": 0.04351249999999851
        },
        {
          "name": "F#5",
          "midi": 78,
          "time": 28.496262499999997,
          "velocity": 0.7874015748031497,
          "duration": 0.04351249999999851
        },
        {
          "name": "C6",
          "midi": 84,
          "time": 28.496262499999997,
          "velocity": 0.7874015748031497,
          "duration": 0.3539999999999992
        },
        {
          "name": "F#6",
          "midi": 90,
          "time": 28.496262499999997,
          "velocity": 0.7874015748031497,
          "duration": 0.3539999999999992
        },
        {
          "name": "C7",
          "midi": 96,
          "time": 28.496262499999997,
          "velocity": 0.7874015748031497,
          "duration": 0.352525
        },
        {
          "name": "F#7",
          "midi": 102,
          "time": 28.496262499999997,
          "velocity": 0.7874015748031497,
          "duration": 0.352525
        },
        {
          "name": "C7",
          "midi": 96,
          "time": 28.850999999999996,
          "velocity": 0.7874015748031497,
          "duration": 0.04351249999999851
        },
        {
          "name": "F#7",
          "midi": 102,
          "time": 28.850999999999996,
          "velocity": 0.7874015748031497,
          "duration": 0.04351249999999851
        },
        {
          "name": "C#4",
          "midi": 61,
          "time": 29.027999999999995,
          "velocity": 0.7874015748031497,
          "duration": 2.1217875
        },
        {
          "name": "F#4",
          "midi": 66,
          "time": 29.027999999999995,
          "velocity": 0.7874015748031497,
          "duration": 2.1217875
        },
        {
          "name": "C#5",
          "midi": 73,
          "time": 29.027999999999995,
          "velocity": 0.7874015748031497,
          "duration": 2.1217875
        },
        {
          "name": "D5",
          "midi": 74,
          "time": 29.027999999999995,
          "velocity": 0.7874015748031497,
          "duration": 2.1217875
        },
        {
          "name": "F#5",
          "midi": 78,
          "time": 29.027999999999995,
          "velocity": 0.7874015748031497,
          "duration": 2.1217875
        },
        {
          "name": "C#6",
          "midi": 85,
          "time": 29.027999999999995,
          "velocity": 0.7874015748031497,
          "duration": 2.1217875
        },
        {
          "name": "E6",
          "midi": 88,
          "time": 29.027999999999995,
          "velocity": 0.7874015748031497,
          "duration": 2.1217875
        },
        {
          "name": "F#6",
          "midi": 90,
          "time": 29.027999999999995,
          "velocity": 0.7874015748031497,
          "duration": 2.1217875
        },
        {
          "name": "C#7",
          "midi": 97,
          "time": 29.027999999999995,
          "velocity": 0.7874015748031497,
          "duration": 2.1217875
        },
        {
          "name": "D#7",
          "midi": 99,
          "time": 29.027999999999995,
          "velocity": 0.7874015748031497,
          "duration": 2.1217875
        },
        {
          "name": "E7",
          "midi": 100,
          "time": 29.027999999999995,
          "velocity": 0.7874015748031497,
          "duration": 2.1217875
        },
        {
          "name": "F#7",
          "midi": 102,
          "time": 29.027999999999995,
          "velocity": 0.7874015748031497,
          "duration": 2.1217875
        },
        {
          "name": "C4",
          "midi": 60,
          "time": 31.151999999999994,
          "velocity": 0.7874015748031497,
          "duration": 0.04351249999999851
        },
        {
          "name": "F#4",
          "midi": 66,
          "time": 31.151999999999994,
          "velocity": 0.7874015748031497,
          "duration": 0.04351249999999851
        },
        {
          "name": "C5",
          "midi": 72,
          "time": 31.151999999999994,
          "velocity": 0.7874015748031497,
          "duration": 0.04351249999999851
        },
        {
          "name": "F#5",
          "midi": 78,
          "time": 31.151999999999994,
          "velocity": 0.7874015748031497,
          "duration": 0.04351249999999851
        },
        {
          "name": "C6",
          "midi": 84,
          "time": 31.151999999999994,
          "velocity": 0.7874015748031497,
          "duration": 0.04351249999999851
        },
        {
          "name": "F#6",
          "midi": 90,
          "time": 31.151999999999994,
          "velocity": 0.7874015748031497,
          "duration": 0.04351249999999851
        },
        {
          "name": "C7",
          "midi": 96,
          "time": 31.151999999999994,
          "velocity": 0.7874015748031497,
          "duration": 0.04351249999999851
        },
        {
          "name": "F#7",
          "midi": 102,
          "time": 31.151999999999994,
          "velocity": 0.7874015748031497,
          "duration": 0.04351249999999851
        },
        {
          "name": "C5",
          "midi": 72,
          "time": 31.328999999999994,
          "velocity": 0.7874015748031497,
          "duration": 0.04351249999999851
        },
        {
          "name": "F#5",
          "midi": 78,
          "time": 31.328999999999994,
          "velocity": 0.7874015748031497,
          "duration": 0.04351249999999851
        },
        {
          "name": "C6",
          "midi": 84,
          "time": 31.328999999999994,
          "velocity": 0.7874015748031497,
          "duration": 0.35326249999999604
        },
        {
          "name": "F#6",
          "midi": 90,
          "time": 31.328999999999994,
          "velocity": 0.7874015748031497,
          "duration": 0.35326249999999604
        },
        {
          "name": "C7",
          "midi": 96,
          "time": 31.328999999999994,
          "velocity": 0.7874015748031497,
          "duration": 0.3517874999999968
        },
        {
          "name": "F#7",
          "midi": 102,
          "time": 31.328999999999994,
          "velocity": 0.7874015748031497,
          "duration": 0.3517874999999968
        },
        {
          "name": "C7",
          "midi": 96,
          "time": 31.68299999999999,
          "velocity": 0.7874015748031497,
          "duration": 0.04351249999999851
        },
        {
          "name": "F#7",
          "midi": 102,
          "time": 31.68299999999999,
          "velocity": 0.7874015748031497,
          "duration": 0.04351249999999851
        },
        {
          "name": "C4",
          "midi": 60,
          "time": 31.85999999999999,
          "velocity": 0.7874015748031497,
          "duration": 2.1217875
        },
        {
          "name": "F#4",
          "midi": 66,
          "time": 31.85999999999999,
          "velocity": 0.7874015748031497,
          "duration": 2.1217875
        },
        {
          "name": "C5",
          "midi": 72,
          "time": 31.85999999999999,
          "velocity": 0.7874015748031497,
          "duration": 2.1217875
        },
        {
          "name": "C#5",
          "midi": 73,
          "time": 31.85999999999999,
          "velocity": 0.7874015748031497,
          "duration": 2.1217875
        },
        {
          "name": "F#5",
          "midi": 78,
          "time": 31.85999999999999,
          "velocity": 0.7874015748031497,
          "duration": 2.1217875
        },
        {
          "name": "C6",
          "midi": 84,
          "time": 31.85999999999999,
          "velocity": 0.7874015748031497,
          "duration": 2.1217875
        },
        {
          "name": "D#6",
          "midi": 87,
          "time": 31.85999999999999,
          "velocity": 0.7874015748031497,
          "duration": 2.1217875
        },
        {
          "name": "F#6",
          "midi": 90,
          "time": 31.85999999999999,
          "velocity": 0.7874015748031497,
          "duration": 2.1217875
        },
        {
          "name": "C7",
          "midi": 96,
          "time": 31.85999999999999,
          "velocity": 0.7874015748031497,
          "duration": 2.1217875
        },
        {
          "name": "C#7",
          "midi": 97,
          "time": 31.85999999999999,
          "velocity": 0.7874015748031497,
          "duration": 2.1217875
        },
        {
          "name": "D#7",
          "midi": 99,
          "time": 31.85999999999999,
          "velocity": 0.7874015748031497,
          "duration": 2.1217875
        },
        {
          "name": "F#7",
          "midi": 102,
          "time": 31.85999999999999,
          "velocity": 0.7874015748031497,
          "duration": 2.1217875
        },
        {
          "name": "C4",
          "midi": 60,
          "time": 33.98399999999999,
          "velocity": 0.7874015748031497,
          "duration": 0.04351249999999851
        },
        {
          "name": "F#4",
          "midi": 66,
          "time": 33.98399999999999,
          "velocity": 0.7874015748031497,
          "duration": 0.04351249999999851
        },
        {
          "name": "C5",
          "midi": 72,
          "time": 33.98399999999999,
          "velocity": 0.7874015748031497,
          "duration": 0.04351249999999851
        },
        {
          "name": "F#5",
          "midi": 78,
          "time": 33.98399999999999,
          "velocity": 0.7874015748031497,
          "duration": 0.04351249999999851
        },
        {
          "name": "C6",
          "midi": 84,
          "time": 33.98399999999999,
          "velocity": 0.7874015748031497,
          "duration": 0.04351249999999851
        },
        {
          "name": "F#6",
          "midi": 90,
          "time": 33.98399999999999,
          "velocity": 0.7874015748031497,
          "duration": 0.04351249999999851
        },
        {
          "name": "C7",
          "midi": 96,
          "time": 33.98399999999999,
          "velocity": 0.7874015748031497,
          "duration": 0.04351249999999851
        },
        {
          "name": "F#7",
          "midi": 102,
          "time": 33.98399999999999,
          "velocity": 0.7874015748031497,
          "duration": 0.04351249999999851
        },
        {
          "name": "C5",
          "midi": 72,
          "time": 34.16099999999999,
          "velocity": 0.7874015748031497,
          "duration": 0.04351249999999851
        },
        {
          "name": "F#5",
          "midi": 78,
          "time": 34.16099999999999,
          "velocity": 0.7874015748031497,
          "duration": 0.04351249999999851
        },
        {
          "name": "C6",
          "midi": 84,
          "time": 34.16099999999999,
          "velocity": 0.7874015748031497,
          "duration": 0.3532624999999996
        },
        {
          "name": "F#6",
          "midi": 90,
          "time": 34.16099999999999,
          "velocity": 0.7874015748031497,
          "duration": 0.3532624999999996
        },
        {
          "name": "C7",
          "midi": 96,
          "time": 34.16099999999999,
          "velocity": 0.7874015748031497,
          "duration": 0.352525
        },
        {
          "name": "F#7",
          "midi": 102,
          "time": 34.16099999999999,
          "velocity": 0.7874015748031497,
          "duration": 0.352525
        },
        {
          "name": "C7",
          "midi": 96,
          "time": 34.515737499999986,
          "velocity": 0.7874015748031497,
          "duration": 0.0427749999999989
        },
        {
          "name": "F#7",
          "midi": 102,
          "time": 34.515737499999986,
          "velocity": 0.7874015748031497,
          "duration": 0.0427749999999989
        },
        {
          "name": "C#4",
          "midi": 61,
          "time": 34.691999999999986,
          "velocity": 0.7874015748031497,
          "duration": 1.7677874999999972
        },
        {
          "name": "F#4",
          "midi": 66,
          "time": 34.691999999999986,
          "velocity": 0.7874015748031497,
          "duration": 1.7677874999999972
        },
        {
          "name": "C5",
          "midi": 72,
          "time": 34.691999999999986,
          "velocity": 0.7874015748031497,
          "duration": 1.7677874999999972
        },
        {
          "name": "D5",
          "midi": 74,
          "time": 34.691999999999986,
          "velocity": 0.7874015748031497,
          "duration": 1.7677874999999972
        },
        {
          "name": "F#5",
          "midi": 78,
          "time": 34.691999999999986,
          "velocity": 0.7874015748031497,
          "duration": 1.7677874999999972
        },
        {
          "name": "C#6",
          "midi": 85,
          "time": 34.691999999999986,
          "velocity": 0.7874015748031497,
          "duration": 1.7677874999999972
        },
        {
          "name": "D#6",
          "midi": 87,
          "time": 34.691999999999986,
          "velocity": 0.7874015748031497,
          "duration": 1.7677874999999972
        },
        {
          "name": "F#6",
          "midi": 90,
          "time": 34.691999999999986,
          "velocity": 0.7874015748031497,
          "duration": 1.7677874999999972
        },
        {
          "name": "C#7",
          "midi": 97,
          "time": 34.691999999999986,
          "velocity": 0.7874015748031497,
          "duration": 1.7677874999999972
        },
        {
          "name": "D7",
          "midi": 98,
          "time": 34.691999999999986,
          "velocity": 0.7874015748031497,
          "duration": 1.7677874999999972
        },
        {
          "name": "D#7",
          "midi": 99,
          "time": 34.691999999999986,
          "velocity": 0.7874015748031497,
          "duration": 1.7677874999999972
        },
        {
          "name": "F#7",
          "midi": 102,
          "time": 34.691999999999986,
          "velocity": 0.7874015748031497,
          "duration": 1.7677874999999972
        },
        {
          "name": "C4",
          "midi": 60,
          "time": 36.46199999999998,
          "velocity": 0.7874015748031497,
          "duration": 0.04351249999999851
        },
        {
          "name": "F#4",
          "midi": 66,
          "time": 36.46199999999998,
          "velocity": 0.7874015748031497,
          "duration": 0.04351249999999851
        },
        {
          "name": "C5",
          "midi": 72,
          "time": 36.46199999999998,
          "velocity": 0.7874015748031497,
          "duration": 0.04351249999999851
        },
        {
          "name": "F#5",
          "midi": 78,
          "time": 36.46199999999998,
          "velocity": 0.7874015748031497,
          "duration": 0.04351249999999851
        },
        {
          "name": "C6",
          "midi": 84,
          "time": 36.46199999999998,
          "velocity": 0.7874015748031497,
          "duration": 0.35178750000000036
        },
        {
          "name": "F#6",
          "midi": 90,
          "time": 36.46199999999998,
          "velocity": 0.7874015748031497,
          "duration": 0.35178750000000036
        },
        {
          "name": "C7",
          "midi": 96,
          "time": 36.46199999999998,
          "velocity": 0.7874015748031497,
          "duration": 0.35178750000000036
        },
        {
          "name": "F#7",
          "midi": 102,
          "time": 36.46199999999998,
          "velocity": 0.7874015748031497,
          "duration": 0.35178750000000036
        },
        {
          "name": "D4",
          "midi": 62,
          "time": 36.81599999999998,
          "velocity": 0.7874015748031497,
          "duration": 0.5287875
        },
        {
          "name": "F#4",
          "midi": 66,
          "time": 36.81599999999998,
          "velocity": 0.7874015748031497,
          "duration": 0.5287875
        },
        {
          "name": "C5",
          "midi": 72,
          "time": 36.81599999999998,
          "velocity": 0.7874015748031497,
          "duration": 0.5287875
        },
        {
          "name": "D5",
          "midi": 74,
          "time": 36.81599999999998,
          "velocity": 0.7874015748031497,
          "duration": 0.5287875
        },
        {
          "name": "F#5",
          "midi": 78,
          "time": 36.81599999999998,
          "velocity": 0.7874015748031497,
          "duration": 0.5287875
        },
        {
          "name": "C#6",
          "midi": 85,
          "time": 36.81599999999998,
          "velocity": 0.7874015748031497,
          "duration": 0.5287875
        },
        {
          "name": "D#6",
          "midi": 87,
          "time": 36.81599999999998,
          "velocity": 0.7874015748031497,
          "duration": 0.5287875
        },
        {
          "name": "F#6",
          "midi": 90,
          "time": 36.81599999999998,
          "velocity": 0.7874015748031497,
          "duration": 0.5287875
        },
        {
          "name": "C#7",
          "midi": 97,
          "time": 36.81599999999998,
          "velocity": 0.7874015748031497,
          "duration": 0.5287875
        },
        {
          "name": "D7",
          "midi": 98,
          "time": 36.81599999999998,
          "velocity": 0.7874015748031497,
          "duration": 0.5287875
        },
        {
          "name": "D#7",
          "midi": 99,
          "time": 36.81599999999998,
          "velocity": 0.7874015748031497,
          "duration": 0.5287875
        },
        {
          "name": "F#7",
          "midi": 102,
          "time": 36.81599999999998,
          "velocity": 0.7874015748031497,
          "duration": 0.5287875
        },
        {
          "name": "C#4",
          "midi": 61,
          "time": 37.34699999999998,
          "velocity": 0.7874015748031497,
          "duration": 0.5287875
        },
        {
          "name": "F#4",
          "midi": 66,
          "time": 37.34699999999998,
          "velocity": 0.7874015748031497,
          "duration": 0.5287875
        },
        {
          "name": "C5",
          "midi": 72,
          "time": 37.34699999999998,
          "velocity": 0.7874015748031497,
          "duration": 0.5287875
        },
        {
          "name": "C#5",
          "midi": 73,
          "time": 37.34699999999998,
          "velocity": 0.7874015748031497,
          "duration": 0.5287875
        },
        {
          "name": "F#5",
          "midi": 78,
          "time": 37.34699999999998,
          "velocity": 0.7874015748031497,
          "duration": 0.5287875
        },
        {
          "name": "C6",
          "midi": 84,
          "time": 37.34699999999998,
          "velocity": 0.7874015748031497,
          "duration": 0.5287875
        },
        {
          "name": "D#6",
          "midi": 87,
          "time": 37.34699999999998,
          "velocity": 0.7874015748031497,
          "duration": 0.5287875
        },
        {
          "name": "F#6",
          "midi": 90,
          "time": 37.34699999999998,
          "velocity": 0.7874015748031497,
          "duration": 0.5287875
        },
        {
          "name": "C7",
          "midi": 96,
          "time": 37.34699999999998,
          "velocity": 0.7874015748031497,
          "duration": 0.5287875
        },
        {
          "name": "D7",
          "midi": 98,
          "time": 37.34699999999998,
          "velocity": 0.7874015748031497,
          "duration": 0.5287875
        },
        {
          "name": "D#7",
          "midi": 99,
          "time": 37.34699999999998,
          "velocity": 0.7874015748031497,
          "duration": 0.5287875
        },
        {
          "name": "F#7",
          "midi": 102,
          "time": 37.34699999999998,
          "velocity": 0.7874015748031497,
          "duration": 0.5287875
        },
        {
          "name": "C4",
          "midi": 60,
          "time": 37.87799999999998,
          "velocity": 0.7874015748031497,
          "duration": 0.5287875
        },
        {
          "name": "F#4",
          "midi": 66,
          "time": 37.87799999999998,
          "velocity": 0.7874015748031497,
          "duration": 0.5287875
        },
        {
          "name": "C5",
          "midi": 72,
          "time": 37.87799999999998,
          "velocity": 0.7874015748031497,
          "duration": 0.5287875
        },
        {
          "name": "F#5",
          "midi": 78,
          "time": 37.87799999999998,
          "velocity": 0.7874015748031497,
          "duration": 0.5287875
        },
        {
          "name": "C6",
          "midi": 84,
          "time": 37.87799999999998,
          "velocity": 0.7874015748031497,
          "duration": 0.5287875
        },
        {
          "name": "D6",
          "midi": 86,
          "time": 37.87799999999998,
          "velocity": 0.7874015748031497,
          "duration": 0.5287875
        },
        {
          "name": "F#6",
          "midi": 90,
          "time": 37.87799999999998,
          "velocity": 0.7874015748031497,
          "duration": 0.5287875
        },
        {
          "name": "C7",
          "midi": 96,
          "time": 37.87799999999998,
          "velocity": 0.7874015748031497,
          "duration": 0.5287875
        },
        {
          "name": "C#7",
          "midi": 97,
          "time": 37.87799999999998,
          "velocity": 0.7874015748031497,
          "duration": 0.5287875
        },
        {
          "name": "D#7",
          "midi": 99,
          "time": 37.87799999999998,
          "velocity": 0.7874015748031497,
          "duration": 0.5287875
        },
        {
          "name": "F#7",
          "midi": 102,
          "time": 37.87799999999998,
          "velocity": 0.7874015748031497,
          "duration": 0.5287875
        },
        {
          "name": "D4",
          "midi": 62,
          "time": 38.40899999999998,
          "velocity": 0.7874015748031497,
          "duration": 0.5287875
        },
        {
          "name": "F#4",
          "midi": 66,
          "time": 38.40899999999998,
          "velocity": 0.7874015748031497,
          "duration": 0.5287875
        },
        {
          "name": "C5",
          "midi": 72,
          "time": 38.40899999999998,
          "velocity": 0.7874015748031497,
          "duration": 0.5287875
        },
        {
          "name": "D5",
          "midi": 74,
          "time": 38.40899999999998,
          "velocity": 0.7874015748031497,
          "duration": 0.5287875
        },
        {
          "name": "F#5",
          "midi": 78,
          "time": 38.40899999999998,
          "velocity": 0.7874015748031497,
          "duration": 0.5287875
        },
        {
          "name": "C#6",
          "midi": 85,
          "time": 38.40899999999998,
          "velocity": 0.7874015748031497,
          "duration": 0.5287875
        },
        {
          "name": "D#6",
          "midi": 87,
          "time": 38.40899999999998,
          "velocity": 0.7874015748031497,
          "duration": 0.5287875
        },
        {
          "name": "F#6",
          "midi": 90,
          "time": 38.40899999999998,
          "velocity": 0.7874015748031497,
          "duration": 0.5287875
        },
        {
          "name": "C#7",
          "midi": 97,
          "time": 38.40899999999998,
          "velocity": 0.7874015748031497,
          "duration": 0.5287875
        },
        {
          "name": "D7",
          "midi": 98,
          "time": 38.40899999999998,
          "velocity": 0.7874015748031497,
          "duration": 0.5287875
        },
        {
          "name": "D#7",
          "midi": 99,
          "time": 38.40899999999998,
          "velocity": 0.7874015748031497,
          "duration": 0.5287875
        },
        {
          "name": "F#7",
          "midi": 102,
          "time": 38.40899999999998,
          "velocity": 0.7874015748031497,
          "duration": 0.5287875
        },
        {
          "name": "C#4",
          "midi": 61,
          "time": 38.939999999999976,
          "velocity": 0.7874015748031497,
          "duration": 0.044249999999998124
        },
        {
          "name": "F#4",
          "midi": 66,
          "time": 38.939999999999976,
          "velocity": 0.7874015748031497,
          "duration": 0.044249999999998124
        },
        {
          "name": "C5",
          "midi": 72,
          "time": 38.939999999999976,
          "velocity": 0.7874015748031497,
          "duration": 0.044249999999998124
        },
        {
          "name": "C#5",
          "midi": 73,
          "time": 38.939999999999976,
          "velocity": 0.7874015748031497,
          "duration": 0.044249999999998124
        },
        {
          "name": "F#5",
          "midi": 78,
          "time": 38.939999999999976,
          "velocity": 0.7874015748031497,
          "duration": 0.044249999999998124
        },
        {
          "name": "C6",
          "midi": 84,
          "time": 38.939999999999976,
          "velocity": 0.7874015748031497,
          "duration": 0.35178750000000036
        },
        {
          "name": "D#6",
          "midi": 87,
          "time": 38.939999999999976,
          "velocity": 0.7874015748031497,
          "duration": 0.35178750000000036
        },
        {
          "name": "F#6",
          "midi": 90,
          "time": 38.939999999999976,
          "velocity": 0.7874015748031497,
          "duration": 0.35178750000000036
        },
        {
          "name": "C7",
          "midi": 96,
          "time": 38.939999999999976,
          "velocity": 0.7874015748031497,
          "duration": 0.35178750000000036
        },
        {
          "name": "D7",
          "midi": 98,
          "time": 38.939999999999976,
          "velocity": 0.7874015748031497,
          "duration": 0.35178750000000036
        },
        {
          "name": "D#7",
          "midi": 99,
          "time": 38.939999999999976,
          "velocity": 0.7874015748031497,
          "duration": 0.35178750000000036
        },
        {
          "name": "F#7",
          "midi": 102,
          "time": 38.939999999999976,
          "velocity": 0.7874015748031497,
          "duration": 0.35178750000000036
        },
        {
          "name": "C4",
          "midi": 60,
          "time": 39.293999999999976,
          "velocity": 0.7874015748031497,
          "duration": 0.044249999999998124
        },
        {
          "name": "F#4",
          "midi": 66,
          "time": 39.293999999999976,
          "velocity": 0.7874015748031497,
          "duration": 0.044249999999998124
        },
        {
          "name": "C5",
          "midi": 72,
          "time": 39.293999999999976,
          "velocity": 0.7874015748031497,
          "duration": 0.044249999999998124
        },
        {
          "name": "F#5",
          "midi": 78,
          "time": 39.293999999999976,
          "velocity": 0.7874015748031497,
          "duration": 0.044249999999998124
        },
        {
          "name": "C6",
          "midi": 84,
          "time": 39.293999999999976,
          "velocity": 0.7874015748031497,
          "duration": 0.35178750000000036
        },
        {
          "name": "D6",
          "midi": 86,
          "time": 39.293999999999976,
          "velocity": 0.7874015748031497,
          "duration": 0.35178750000000036
        },
        {
          "name": "F#6",
          "midi": 90,
          "time": 39.293999999999976,
          "velocity": 0.7874015748031497,
          "duration": 0.35178750000000036
        },
        {
          "name": "C7",
          "midi": 96,
          "time": 39.293999999999976,
          "velocity": 0.7874015748031497,
          "duration": 0.35178750000000036
        },
        {
          "name": "C#7",
          "midi": 97,
          "time": 39.293999999999976,
          "velocity": 0.7874015748031497,
          "duration": 0.35178750000000036
        },
        {
          "name": "D#7",
          "midi": 99,
          "time": 39.293999999999976,
          "velocity": 0.7874015748031497,
          "duration": 0.35178750000000036
        },
        {
          "name": "F#7",
          "midi": 102,
          "time": 39.293999999999976,
          "velocity": 0.7874015748031497,
          "duration": 0.35178750000000036
        },
        {
          "name": "C4",
          "midi": 60,
          "time": 39.647999999999975,
          "velocity": 0.7874015748031497,
          "duration": 0.04351249999999851
        },
        {
          "name": "F#4",
          "midi": 66,
          "time": 39.647999999999975,
          "velocity": 0.7874015748031497,
          "duration": 0.04351249999999851
        },
        {
          "name": "C5",
          "midi": 72,
          "time": 39.647999999999975,
          "velocity": 0.7874015748031497,
          "duration": 0.04351249999999851
        },
        {
          "name": "F#5",
          "midi": 78,
          "time": 39.647999999999975,
          "velocity": 0.7874015748031497,
          "duration": 0.04351249999999851
        },
        {
          "name": "C6",
          "midi": 84,
          "time": 39.647999999999975,
          "velocity": 0.7874015748031497,
          "duration": 0.04351249999999851
        },
        {
          "name": "F#6",
          "midi": 90,
          "time": 39.647999999999975,
          "velocity": 0.7874015748031497,
          "duration": 0.04351249999999851
        },
        {
          "name": "C7",
          "midi": 96,
          "time": 39.647999999999975,
          "velocity": 0.7874015748031497,
          "duration": 0.04351249999999851
        },
        {
          "name": "F#7",
          "midi": 102,
          "time": 39.647999999999975,
          "velocity": 0.7874015748031497,
          "duration": 0.04351249999999851
        },
        {
          "name": "C5",
          "midi": 72,
          "time": 39.824262499999975,
          "velocity": 0.7874015748031497,
          "duration": 0.04351249999999851
        },
        {
          "name": "F#5",
          "midi": 78,
          "time": 39.824262499999975,
          "velocity": 0.7874015748031497,
          "duration": 0.04351249999999851
        },
        {
          "name": "C6",
          "midi": 84,
          "time": 39.824262499999975,
          "velocity": 0.7874015748031497,
          "duration": 0.3539999999999992
        },
        {
          "name": "F#6",
          "midi": 90,
          "time": 39.824262499999975,
          "velocity": 0.7874015748031497,
          "duration": 0.3539999999999992
        },
        {
          "name": "C7",
          "midi": 96,
          "time": 39.824262499999975,
          "velocity": 0.7874015748031497,
          "duration": 0.35178750000000036
        },
        {
          "name": "F#7",
          "midi": 102,
          "time": 39.824262499999975,
          "velocity": 0.7874015748031497,
          "duration": 0.35178750000000036
        },
        {
          "name": "C7",
          "midi": 96,
          "time": 40.178262499999974,
          "velocity": 0.7874015748031497,
          "duration": 0.04351249999999851
        },
        {
          "name": "F#7",
          "midi": 102,
          "time": 40.178262499999974,
          "velocity": 0.7874015748031497,
          "duration": 0.04351249999999851
        },
        {
          "name": "D4",
          "midi": 62,
          "time": 40.35599999999997,
          "velocity": 0.7874015748031497,
          "duration": 0.7079999999999984
        },
        {
          "name": "F#4",
          "midi": 66,
          "time": 40.35599999999997,
          "velocity": 0.7874015748031497,
          "duration": 0.7079999999999984
        },
        {
          "name": "D5",
          "midi": 74,
          "time": 40.35599999999997,
          "velocity": 0.7874015748031497,
          "duration": 0.7079999999999984
        },
        {
          "name": "D#5",
          "midi": 75,
          "time": 40.35599999999997,
          "velocity": 0.7874015748031497,
          "duration": 0.7079999999999984
        },
        {
          "name": "F#5",
          "midi": 78,
          "time": 40.35599999999997,
          "velocity": 0.7874015748031497,
          "duration": 0.7079999999999984
        },
        {
          "name": "D6",
          "midi": 86,
          "time": 40.35599999999997,
          "velocity": 0.7874015748031497,
          "duration": 0.7079999999999984
        },
        {
          "name": "D#6",
          "midi": 87,
          "time": 40.35599999999997,
          "velocity": 0.7874015748031497,
          "duration": 0.7079999999999984
        },
        {
          "name": "F#6",
          "midi": 90,
          "time": 40.35599999999997,
          "velocity": 0.7874015748031497,
          "duration": 0.7079999999999984
        },
        {
          "name": "D7",
          "midi": 98,
          "time": 40.35599999999997,
          "velocity": 0.7874015748031497,
          "duration": 0.7057874999999996
        },
        {
          "name": "D#7",
          "midi": 99,
          "time": 40.35599999999997,
          "velocity": 0.7874015748031497,
          "duration": 0.7057874999999996
        },
        {
          "name": "F#7",
          "midi": 102,
          "time": 40.35599999999997,
          "velocity": 0.7874015748031497,
          "duration": 0.7057874999999996
        },
        {
          "name": "D7",
          "midi": 98,
          "time": 41.06399999999997,
          "velocity": 0.7874015748031497,
          "duration": 0.044249999999998124
        },
        {
          "name": "F#7",
          "midi": 102,
          "time": 41.06399999999997,
          "velocity": 0.7874015748031497,
          "duration": 0.044249999999998124
        },
        {
          "name": "D4",
          "midi": 62,
          "time": 41.24099999999997,
          "velocity": 0.7874015748031497,
          "duration": 0.5287875
        },
        {
          "name": "F#4",
          "midi": 66,
          "time": 41.24099999999997,
          "velocity": 0.7874015748031497,
          "duration": 0.5287875
        },
        {
          "name": "D5",
          "midi": 74,
          "time": 41.24099999999997,
          "velocity": 0.7874015748031497,
          "duration": 0.5287875
        },
        {
          "name": "D#5",
          "midi": 75,
          "time": 41.24099999999997,
          "velocity": 0.7874015748031497,
          "duration": 0.5287875
        },
        {
          "name": "F#5",
          "midi": 78,
          "time": 41.24099999999997,
          "velocity": 0.7874015748031497,
          "duration": 0.5287875
        },
        {
          "name": "D6",
          "midi": 86,
          "time": 41.24099999999997,
          "velocity": 0.7874015748031497,
          "duration": 0.5287875
        },
        {
          "name": "D#6",
          "midi": 87,
          "time": 41.24099999999997,
          "velocity": 0.7874015748031497,
          "duration": 0.5287875
        },
        {
          "name": "F#6",
          "midi": 90,
          "time": 41.24099999999997,
          "velocity": 0.7874015748031497,
          "duration": 0.5287875
        },
        {
          "name": "D7",
          "midi": 98,
          "time": 41.24099999999997,
          "velocity": 0.7874015748031497,
          "duration": 0.5287875
        },
        {
          "name": "D#7",
          "midi": 99,
          "time": 41.24099999999997,
          "velocity": 0.7874015748031497,
          "duration": 0.5287875
        },
        {
          "name": "F#7",
          "midi": 102,
          "time": 41.24099999999997,
          "velocity": 0.7874015748031497,
          "duration": 0.5287875
        },
        {
          "name": "D4",
          "midi": 62,
          "time": 41.77199999999997,
          "velocity": 0.7874015748031497,
          "duration": 0.044249999999998124
        },
        {
          "name": "F#4",
          "midi": 66,
          "time": 41.77199999999997,
          "velocity": 0.7874015748031497,
          "duration": 0.044249999999998124
        },
        {
          "name": "D5",
          "midi": 74,
          "time": 41.77199999999997,
          "velocity": 0.7874015748031497,
          "duration": 0.044249999999998124
        },
        {
          "name": "D#5",
          "midi": 75,
          "time": 41.77199999999997,
          "velocity": 0.7874015748031497,
          "duration": 0.044249999999998124
        },
        {
          "name": "F#5",
          "midi": 78,
          "time": 41.77199999999997,
          "velocity": 0.7874015748031497,
          "duration": 0.044249999999998124
        },
        {
          "name": "D6",
          "midi": 86,
          "time": 41.77199999999997,
          "velocity": 0.7874015748031497,
          "duration": 0.044249999999998124
        },
        {
          "name": "D#6",
          "midi": 87,
          "time": 41.77199999999997,
          "velocity": 0.7874015748031497,
          "duration": 0.044249999999998124
        },
        {
          "name": "F#6",
          "midi": 90,
          "time": 41.77199999999997,
          "velocity": 0.7874015748031497,
          "duration": 0.044249999999998124
        },
        {
          "name": "D7",
          "midi": 98,
          "time": 41.77199999999997,
          "velocity": 0.7874015748031497,
          "duration": 0.044249999999998124
        },
        {
          "name": "D#7",
          "midi": 99,
          "time": 41.77199999999997,
          "velocity": 0.7874015748031497,
          "duration": 0.044249999999998124
        },
        {
          "name": "F#7",
          "midi": 102,
          "time": 41.77199999999997,
          "velocity": 0.7874015748031497,
          "duration": 0.044249999999998124
        },
        {
          "name": "E6",
          "midi": 88,
          "time": 41.94899999999997,
          "velocity": 0.7874015748031497,
          "duration": 0.044249999999998124
        },
        {
          "name": "F6",
          "midi": 89,
          "time": 41.94899999999997,
          "velocity": 0.7874015748031497,
          "duration": 0.044249999999998124
        },
        {
          "name": "D7",
          "midi": 98,
          "time": 41.94899999999997,
          "velocity": 0.7874015748031497,
          "duration": 0.044249999999998124
        },
        {
          "name": "E7",
          "midi": 100,
          "time": 41.94899999999997,
          "velocity": 0.7874015748031497,
          "duration": 0.044249999999998124
        },
        {
          "name": "F#7",
          "midi": 102,
          "time": 41.94899999999997,
          "velocity": 0.7874015748031497,
          "duration": 0.044249999999998124
        },
        {
          "name": "D4",
          "midi": 62,
          "time": 42.12599999999997,
          "velocity": 0.7874015748031497,
          "duration": 0.044249999999998124
        },
        {
          "name": "F#4",
          "midi": 66,
          "time": 42.12599999999997,
          "velocity": 0.7874015748031497,
          "duration": 0.044249999999998124
        },
        {
          "name": "D5",
          "midi": 74,
          "time": 42.12599999999997,
          "velocity": 0.7874015748031497,
          "duration": 0.044249999999998124
        },
        {
          "name": "D#5",
          "midi": 75,
          "time": 42.12599999999997,
          "velocity": 0.7874015748031497,
          "duration": 0.044249999999998124
        },
        {
          "name": "F#5",
          "midi": 78,
          "time": 42.12599999999997,
          "velocity": 0.7874015748031497,
          "duration": 0.044249999999998124
        },
        {
          "name": "D6",
          "midi": 86,
          "time": 42.12599999999997,
          "velocity": 0.7874015748031497,
          "duration": 0.35178750000000036
        },
        {
          "name": "D#6",
          "midi": 87,
          "time": 42.12599999999997,
          "velocity": 0.7874015748031497,
          "duration": 0.35178750000000036
        },
        {
          "name": "F#6",
          "midi": 90,
          "time": 42.12599999999997,
          "velocity": 0.7874015748031497,
          "duration": 0.35178750000000036
        },
        {
          "name": "D7",
          "midi": 98,
          "time": 42.12599999999997,
          "velocity": 0.7874015748031497,
          "duration": 0.35178750000000036
        },
        {
          "name": "D#7",
          "midi": 99,
          "time": 42.12599999999997,
          "velocity": 0.7874015748031497,
          "duration": 0.35178750000000036
        },
        {
          "name": "F#7",
          "midi": 102,
          "time": 42.12599999999997,
          "velocity": 0.7874015748031497,
          "duration": 0.35178750000000036
        },
        {
          "name": "C4",
          "midi": 60,
          "time": 42.47999999999997,
          "velocity": 0.7874015748031497,
          "duration": 0.04351249999999851
        },
        {
          "name": "F#4",
          "midi": 66,
          "time": 42.47999999999997,
          "velocity": 0.7874015748031497,
          "duration": 0.04351249999999851
        },
        {
          "name": "C5",
          "midi": 72,
          "time": 42.47999999999997,
          "velocity": 0.7874015748031497,
          "duration": 0.04351249999999851
        },
        {
          "name": "F#5",
          "midi": 78,
          "time": 42.47999999999997,
          "velocity": 0.7874015748031497,
          "duration": 0.04351249999999851
        },
        {
          "name": "C6",
          "midi": 84,
          "time": 42.47999999999997,
          "velocity": 0.7874015748031497,
          "duration": 0.04351249999999851
        },
        {
          "name": "F#6",
          "midi": 90,
          "time": 42.47999999999997,
          "velocity": 0.7874015748031497,
          "duration": 0.04351249999999851
        },
        {
          "name": "C7",
          "midi": 96,
          "time": 42.47999999999997,
          "velocity": 0.7874015748031497,
          "duration": 0.04351249999999851
        },
        {
          "name": "F#7",
          "midi": 102,
          "time": 42.47999999999997,
          "velocity": 0.7874015748031497,
          "duration": 0.04351249999999851
        },
        {
          "name": "C5",
          "midi": 72,
          "time": 42.65699999999997,
          "velocity": 0.7874015748031497,
          "duration": 0.04351249999999851
        },
        {
          "name": "F#5",
          "midi": 78,
          "time": 42.65699999999997,
          "velocity": 0.7874015748031497,
          "duration": 0.04351249999999851
        },
        {
          "name": "C6",
          "midi": 84,
          "time": 42.65699999999997,
          "velocity": 0.7874015748031497,
          "duration": 0.3532624999999996
        },
        {
          "name": "F#6",
          "midi": 90,
          "time": 42.65699999999997,
          "velocity": 0.7874015748031497,
          "duration": 0.3532624999999996
        },
        {
          "name": "C7",
          "midi": 96,
          "time": 42.65699999999997,
          "velocity": 0.7874015748031497,
          "duration": 0.352525
        },
        {
          "name": "F#7",
          "midi": 102,
          "time": 42.65699999999997,
          "velocity": 0.7874015748031497,
          "duration": 0.352525
        },
        {
          "name": "C7",
          "midi": 96,
          "time": 43.01173749999997,
          "velocity": 0.7874015748031497,
          "duration": 0.04351249999999851
        },
        {
          "name": "F#7",
          "midi": 102,
          "time": 43.01173749999997,
          "velocity": 0.7874015748031497,
          "duration": 0.04351249999999851
        },
        {
          "name": "C#4",
          "midi": 61,
          "time": 43.18799999999997,
          "velocity": 0.7874015748031497,
          "duration": 0.8827874999999992
        },
        {
          "name": "F#4",
          "midi": 66,
          "time": 43.18799999999997,
          "velocity": 0.7874015748031497,
          "duration": 0.8827874999999992
        },
        {
          "name": "C#5",
          "midi": 73,
          "time": 43.18799999999997,
          "velocity": 0.7874015748031497,
          "duration": 0.8827874999999992
        },
        {
          "name": "D5",
          "midi": 74,
          "time": 43.18799999999997,
          "velocity": 0.7874015748031497,
          "duration": 0.8827874999999992
        },
        {
          "name": "F#5",
          "midi": 78,
          "time": 43.18799999999997,
          "velocity": 0.7874015748031497,
          "duration": 0.8827874999999992
        },
        {
          "name": "C#6",
          "midi": 85,
          "time": 43.18799999999997,
          "velocity": 0.7874015748031497,
          "duration": 0.8827874999999992
        },
        {
          "name": "E6",
          "midi": 88,
          "time": 43.18799999999997,
          "velocity": 0.7874015748031497,
          "duration": 0.8827874999999992
        },
        {
          "name": "F#6",
          "midi": 90,
          "time": 43.18799999999997,
          "velocity": 0.7874015748031497,
          "duration": 0.8827874999999992
        },
        {
          "name": "C#7",
          "midi": 97,
          "time": 43.18799999999997,
          "velocity": 0.7874015748031497,
          "duration": 0.8827874999999992
        },
        {
          "name": "D#7",
          "midi": 99,
          "time": 43.18799999999997,
          "velocity": 0.7874015748031497,
          "duration": 0.8827874999999992
        },
        {
          "name": "E7",
          "midi": 100,
          "time": 43.18799999999997,
          "velocity": 0.7874015748031497,
          "duration": 0.8827874999999992
        },
        {
          "name": "F#7",
          "midi": 102,
          "time": 43.18799999999997,
          "velocity": 0.7874015748031497,
          "duration": 0.8827874999999992
        },
        {
          "name": "C#4",
          "midi": 61,
          "time": 44.072999999999965,
          "velocity": 0.7874015748031497,
          "duration": 0.5287875
        },
        {
          "name": "F#4",
          "midi": 66,
          "time": 44.072999999999965,
          "velocity": 0.7874015748031497,
          "duration": 0.5287875
        },
        {
          "name": "C#5",
          "midi": 73,
          "time": 44.072999999999965,
          "velocity": 0.7874015748031497,
          "duration": 0.5287875
        },
        {
          "name": "F#5",
          "midi": 78,
          "time": 44.072999999999965,
          "velocity": 0.7874015748031497,
          "duration": 0.5287875
        },
        {
          "name": "C#6",
          "midi": 85,
          "time": 44.072999999999965,
          "velocity": 0.7874015748031497,
          "duration": 0.5287875
        },
        {
          "name": "D#6",
          "midi": 87,
          "time": 44.072999999999965,
          "velocity": 0.7874015748031497,
          "duration": 0.5287875
        },
        {
          "name": "F#6",
          "midi": 90,
          "time": 44.072999999999965,
          "velocity": 0.7874015748031497,
          "duration": 0.5287875
        },
        {
          "name": "C#7",
          "midi": 97,
          "time": 44.072999999999965,
          "velocity": 0.7874015748031497,
          "duration": 0.5287875
        },
        {
          "name": "D7",
          "midi": 98,
          "time": 44.072999999999965,
          "velocity": 0.7874015748031497,
          "duration": 0.5287875
        },
        {
          "name": "E7",
          "midi": 100,
          "time": 44.072999999999965,
          "velocity": 0.7874015748031497,
          "duration": 0.5287875
        },
        {
          "name": "F#7",
          "midi": 102,
          "time": 44.072999999999965,
          "velocity": 0.7874015748031497,
          "duration": 0.5287875
        },
        {
          "name": "C#4",
          "midi": 61,
          "time": 44.603999999999964,
          "velocity": 0.7874015748031497,
          "duration": 0.7057874999999996
        },
        {
          "name": "F#4",
          "midi": 66,
          "time": 44.603999999999964,
          "velocity": 0.7874015748031497,
          "duration": 0.7057874999999996
        },
        {
          "name": "C#5",
          "midi": 73,
          "time": 44.603999999999964,
          "velocity": 0.7874015748031497,
          "duration": 0.7057874999999996
        },
        {
          "name": "F#5",
          "midi": 78,
          "time": 44.603999999999964,
          "velocity": 0.7874015748031497,
          "duration": 0.7057874999999996
        },
        {
          "name": "C#6",
          "midi": 85,
          "time": 44.603999999999964,
          "velocity": 0.7874015748031497,
          "duration": 0.7057874999999996
        },
        {
          "name": "D#6",
          "midi": 87,
          "time": 44.603999999999964,
          "velocity": 0.7874015748031497,
          "duration": 0.7057874999999996
        },
        {
          "name": "F#6",
          "midi": 90,
          "time": 44.603999999999964,
          "velocity": 0.7874015748031497,
          "duration": 0.7057874999999996
        },
        {
          "name": "C#7",
          "midi": 97,
          "time": 44.603999999999964,
          "velocity": 0.7874015748031497,
          "duration": 0.7057874999999996
        },
        {
          "name": "D7",
          "midi": 98,
          "time": 44.603999999999964,
          "velocity": 0.7874015748031497,
          "duration": 0.7057874999999996
        },
        {
          "name": "E7",
          "midi": 100,
          "time": 44.603999999999964,
          "velocity": 0.7874015748031497,
          "duration": 0.7057874999999996
        },
        {
          "name": "F#7",
          "midi": 102,
          "time": 44.603999999999964,
          "velocity": 0.7874015748031497,
          "duration": 0.7057874999999996
        },
        {
          "name": "C4",
          "midi": 60,
          "time": 45.31199999999996,
          "velocity": 0.7874015748031497,
          "duration": 0.044249999999998124
        },
        {
          "name": "F#4",
          "midi": 66,
          "time": 45.31199999999996,
          "velocity": 0.7874015748031497,
          "duration": 0.044249999999998124
        },
        {
          "name": "C5",
          "midi": 72,
          "time": 45.31199999999996,
          "velocity": 0.7874015748031497,
          "duration": 0.044249999999998124
        },
        {
          "name": "F#5",
          "midi": 78,
          "time": 45.31199999999996,
          "velocity": 0.7874015748031497,
          "duration": 0.044249999999998124
        },
        {
          "name": "C6",
          "midi": 84,
          "time": 45.31199999999996,
          "velocity": 0.7874015748031497,
          "duration": 0.044249999999998124
        },
        {
          "name": "F#6",
          "midi": 90,
          "time": 45.31199999999996,
          "velocity": 0.7874015748031497,
          "duration": 0.044249999999998124
        },
        {
          "name": "C7",
          "midi": 96,
          "time": 45.31199999999996,
          "velocity": 0.7874015748031497,
          "duration": 0.044249999999998124
        },
        {
          "name": "F#7",
          "midi": 102,
          "time": 45.31199999999996,
          "velocity": 0.7874015748031497,
          "duration": 0.044249999999998124
        },
        {
          "name": "C5",
          "midi": 72,
          "time": 45.48899999999996,
          "velocity": 0.7874015748031497,
          "duration": 0.044249999999998124
        },
        {
          "name": "F#5",
          "midi": 78,
          "time": 45.48899999999996,
          "velocity": 0.7874015748031497,
          "duration": 0.044249999999998124
        },
        {
          "name": "C6",
          "midi": 84,
          "time": 45.48899999999996,
          "velocity": 0.7874015748031497,
          "duration": 0.352525
        },
        {
          "name": "F#6",
          "midi": 90,
          "time": 45.48899999999996,
          "velocity": 0.7874015748031497,
          "duration": 0.352525
        },
        {
          "name": "C7",
          "midi": 96,
          "time": 45.48899999999996,
          "velocity": 0.7874015748031497,
          "duration": 0.352525
        },
        {
          "name": "F#7",
          "midi": 102,
          "time": 45.48899999999996,
          "velocity": 0.7874015748031497,
          "duration": 0.352525
        },
        {
          "name": "C6",
          "midi": 84,
          "time": 45.84373749999996,
          "velocity": 0.7874015748031497,
          "duration": 0.044249999999998124
        },
        {
          "name": "D#6",
          "midi": 87,
          "time": 45.84373749999996,
          "velocity": 0.7874015748031497,
          "duration": 0.044249999999998124
        },
        {
          "name": "F#6",
          "midi": 90,
          "time": 45.84373749999996,
          "velocity": 0.7874015748031497,
          "duration": 0.044249999999998124
        },
        {
          "name": "C7",
          "midi": 96,
          "time": 45.84373749999996,
          "velocity": 0.7874015748031497,
          "duration": 0.044249999999998124
        },
        {
          "name": "C#7",
          "midi": 97,
          "time": 45.84373749999996,
          "velocity": 0.7874015748031497,
          "duration": 0.044249999999998124
        },
        {
          "name": "D#7",
          "midi": 99,
          "time": 45.84373749999996,
          "velocity": 0.7874015748031497,
          "duration": 0.044249999999998124
        },
        {
          "name": "F#7",
          "midi": 102,
          "time": 45.84373749999996,
          "velocity": 0.7874015748031497,
          "duration": 0.044249999999998124
        },
        {
          "name": "C7",
          "midi": 96,
          "time": 45.93149999999996,
          "velocity": 0.7874015748031497,
          "duration": 0.044249999999998124
        },
        {
          "name": "C#7",
          "midi": 97,
          "time": 45.93149999999996,
          "velocity": 0.7874015748031497,
          "duration": 0.044249999999998124
        },
        {
          "name": "D#7",
          "midi": 99,
          "time": 45.93149999999996,
          "velocity": 0.7874015748031497,
          "duration": 0.044249999999998124
        },
        {
          "name": "F#7",
          "midi": 102,
          "time": 45.93149999999996,
          "velocity": 0.7874015748031497,
          "duration": 0.044249999999998124
        },
        {
          "name": "C4",
          "midi": 60,
          "time": 46.01999999999995,
          "velocity": 0.7874015748031497,
          "duration": 0.8827874999999992
        },
        {
          "name": "F#4",
          "midi": 66,
          "time": 46.01999999999995,
          "velocity": 0.7874015748031497,
          "duration": 0.8827874999999992
        },
        {
          "name": "C5",
          "midi": 72,
          "time": 46.01999999999995,
          "velocity": 0.7874015748031497,
          "duration": 0.8827874999999992
        },
        {
          "name": "D5",
          "midi": 74,
          "time": 46.01999999999995,
          "velocity": 0.7874015748031497,
          "duration": 0.8827874999999992
        },
        {
          "name": "F#5",
          "midi": 78,
          "time": 46.01999999999995,
          "velocity": 0.7874015748031497,
          "duration": 0.8827874999999992
        },
        {
          "name": "C6",
          "midi": 84,
          "time": 46.01999999999995,
          "velocity": 0.7874015748031497,
          "duration": 0.8827874999999992
        },
        {
          "name": "D#6",
          "midi": 87,
          "time": 46.01999999999995,
          "velocity": 0.7874015748031497,
          "duration": 0.8827874999999992
        },
        {
          "name": "F#6",
          "midi": 90,
          "time": 46.01999999999995,
          "velocity": 0.7874015748031497,
          "duration": 0.8827874999999992
        },
        {
          "name": "C7",
          "midi": 96,
          "time": 46.01999999999995,
          "velocity": 0.7874015748031497,
          "duration": 0.8827874999999992
        },
        {
          "name": "C#7",
          "midi": 97,
          "time": 46.01999999999995,
          "velocity": 0.7874015748031497,
          "duration": 0.8827874999999992
        },
        {
          "name": "D#7",
          "midi": 99,
          "time": 46.01999999999995,
          "velocity": 0.7874015748031497,
          "duration": 0.8827874999999992
        },
        {
          "name": "F#7",
          "midi": 102,
          "time": 46.01999999999995,
          "velocity": 0.7874015748031497,
          "duration": 0.8827874999999992
        },
        {
          "name": "C#4",
          "midi": 61,
          "time": 46.90499999999995,
          "velocity": 0.7874015748031497,
          "duration": 0.5287875
        },
        {
          "name": "F#4",
          "midi": 66,
          "time": 46.90499999999995,
          "velocity": 0.7874015748031497,
          "duration": 0.5287875
        },
        {
          "name": "C5",
          "midi": 72,
          "time": 46.90499999999995,
          "velocity": 0.7874015748031497,
          "duration": 0.5287875
        },
        {
          "name": "C#5",
          "midi": 73,
          "time": 46.90499999999995,
          "velocity": 0.7874015748031497,
          "duration": 0.5287875
        },
        {
          "name": "F#5",
          "midi": 78,
          "time": 46.90499999999995,
          "velocity": 0.7874015748031497,
          "duration": 0.5287875
        },
        {
          "name": "C6",
          "midi": 84,
          "time": 46.90499999999995,
          "velocity": 0.7874015748031497,
          "duration": 0.5287875
        },
        {
          "name": "D6",
          "midi": 86,
          "time": 46.90499999999995,
          "velocity": 0.7874015748031497,
          "duration": 0.5287875
        },
        {
          "name": "F#6",
          "midi": 90,
          "time": 46.90499999999995,
          "velocity": 0.7874015748031497,
          "duration": 0.5287875
        },
        {
          "name": "C7",
          "midi": 96,
          "time": 46.90499999999995,
          "velocity": 0.7874015748031497,
          "duration": 0.5287875
        },
        {
          "name": "D7",
          "midi": 98,
          "time": 46.90499999999995,
          "velocity": 0.7874015748031497,
          "duration": 0.5287875
        },
        {
          "name": "F#7",
          "midi": 102,
          "time": 46.90499999999995,
          "velocity": 0.7874015748031497,
          "duration": 0.5287875
        },
        {
          "name": "C4",
          "midi": 60,
          "time": 47.43599999999995,
          "velocity": 0.7874015748031497,
          "duration": 0.35178750000000036
        },
        {
          "name": "F#4",
          "midi": 66,
          "time": 47.43599999999995,
          "velocity": 0.7874015748031497,
          "duration": 0.35178750000000036
        },
        {
          "name": "C5",
          "midi": 72,
          "time": 47.43599999999995,
          "velocity": 0.7874015748031497,
          "duration": 0.35178750000000036
        },
        {
          "name": "F#5",
          "midi": 78,
          "time": 47.43599999999995,
          "velocity": 0.7874015748031497,
          "duration": 0.35178750000000036
        },
        {
          "name": "C6",
          "midi": 84,
          "time": 47.43599999999995,
          "velocity": 0.7874015748031497,
          "duration": 0.35178750000000036
        },
        {
          "name": "C#6",
          "midi": 85,
          "time": 47.43599999999995,
          "velocity": 0.7874015748031497,
          "duration": 0.35178750000000036
        },
        {
          "name": "F#6",
          "midi": 90,
          "time": 47.43599999999995,
          "velocity": 0.7874015748031497,
          "duration": 0.35178750000000036
        },
        {
          "name": "C7",
          "midi": 96,
          "time": 47.43599999999995,
          "velocity": 0.7874015748031497,
          "duration": 0.35178750000000036
        },
        {
          "name": "C#7",
          "midi": 97,
          "time": 47.43599999999995,
          "velocity": 0.7874015748031497,
          "duration": 0.35178750000000036
        },
        {
          "name": "F#7",
          "midi": 102,
          "time": 47.43599999999995,
          "velocity": 0.7874015748031497,
          "duration": 0.35178750000000036
        },
        {
          "name": "C4",
          "midi": 60,
          "time": 47.78999999999995,
          "velocity": 0.7874015748031497,
          "duration": 0.35178750000000036
        },
        {
          "name": "F#4",
          "midi": 66,
          "time": 47.78999999999995,
          "velocity": 0.7874015748031497,
          "duration": 0.35178750000000036
        },
        {
          "name": "C5",
          "midi": 72,
          "time": 47.78999999999995,
          "velocity": 0.7874015748031497,
          "duration": 0.35178750000000036
        },
        {
          "name": "F#5",
          "midi": 78,
          "time": 47.78999999999995,
          "velocity": 0.7874015748031497,
          "duration": 0.35178750000000036
        },
        {
          "name": "C6",
          "midi": 84,
          "time": 47.78999999999995,
          "velocity": 0.7874015748031497,
          "duration": 0.35178750000000036
        },
        {
          "name": "F#6",
          "midi": 90,
          "time": 47.78999999999995,
          "velocity": 0.7874015748031497,
          "duration": 0.35178750000000036
        },
        {
          "name": "C7",
          "midi": 96,
          "time": 47.78999999999995,
          "velocity": 0.7874015748031497,
          "duration": 0.35178750000000036
        },
        {
          "name": "F#7",
          "midi": 102,
          "time": 47.78999999999995,
          "velocity": 0.7874015748031497,
          "duration": 0.35178750000000036
        },
        {
          "name": "G#8",
          "midi": 116,
          "time": 48.14399999999995,
          "velocity": 0.7874015748031497,
          "duration": 2.875512499999992
        },
        {
          "name": "D4",
          "midi": 62,
          "time": 48.14399999999995,
          "velocity": 0.7874015748031497,
          "duration": 0.5287875
        },
        {
          "name": "F#4",
          "midi": 66,
          "time": 48.14399999999995,
          "velocity": 0.7874015748031497,
          "duration": 0.5287875
        },
        {
          "name": "C5",
          "midi": 72,
          "time": 48.14399999999995,
          "velocity": 0.7874015748031497,
          "duration": 0.5287875
        },
        {
          "name": "D5",
          "midi": 74,
          "time": 48.14399999999995,
          "velocity": 0.7874015748031497,
          "duration": 0.5287875
        },
        {
          "name": "F#5",
          "midi": 78,
          "time": 48.14399999999995,
          "velocity": 0.7874015748031497,
          "duration": 0.5287875
        },
        {
          "name": "C#6",
          "midi": 85,
          "time": 48.14399999999995,
          "velocity": 0.7874015748031497,
          "duration": 0.5287875
        },
        {
          "name": "D#6",
          "midi": 87,
          "time": 48.14399999999995,
          "velocity": 0.7874015748031497,
          "duration": 0.5287875
        },
        {
          "name": "F#6",
          "midi": 90,
          "time": 48.14399999999995,
          "velocity": 0.7874015748031497,
          "duration": 0.5287875
        },
        {
          "name": "C#7",
          "midi": 97,
          "time": 48.14399999999995,
          "velocity": 0.7874015748031497,
          "duration": 0.5287875
        },
        {
          "name": "D7",
          "midi": 98,
          "time": 48.14399999999995,
          "velocity": 0.7874015748031497,
          "duration": 0.5287875
        },
        {
          "name": "D#7",
          "midi": 99,
          "time": 48.14399999999995,
          "velocity": 0.7874015748031497,
          "duration": 0.5287875
        },
        {
          "name": "F#7",
          "midi": 102,
          "time": 48.14399999999995,
          "velocity": 0.7874015748031497,
          "duration": 0.5287875
        },
        {
          "name": "C#4",
          "midi": 61,
          "time": 48.67426249999995,
          "velocity": 0.7874015748031497,
          "duration": 0.5295249999999996
        },
        {
          "name": "F#4",
          "midi": 66,
          "time": 48.67426249999995,
          "velocity": 0.7874015748031497,
          "duration": 0.5295249999999996
        },
        {
          "name": "C5",
          "midi": 72,
          "time": 48.67426249999995,
          "velocity": 0.7874015748031497,
          "duration": 0.5295249999999996
        },
        {
          "name": "C#5",
          "midi": 73,
          "time": 48.67426249999995,
          "velocity": 0.7874015748031497,
          "duration": 0.5295249999999996
        },
        {
          "name": "F#5",
          "midi": 78,
          "time": 48.67426249999995,
          "velocity": 0.7874015748031497,
          "duration": 0.5295249999999996
        },
        {
          "name": "C6",
          "midi": 84,
          "time": 48.67426249999995,
          "velocity": 0.7874015748031497,
          "duration": 0.5295249999999996
        },
        {
          "name": "D#6",
          "midi": 87,
          "time": 48.67426249999995,
          "velocity": 0.7874015748031497,
          "duration": 0.5295249999999996
        },
        {
          "name": "F#6",
          "midi": 90,
          "time": 48.67426249999995,
          "velocity": 0.7874015748031497,
          "duration": 0.5295249999999996
        },
        {
          "name": "C7",
          "midi": 96,
          "time": 48.67426249999995,
          "velocity": 0.7874015748031497,
          "duration": 0.5295249999999996
        },
        {
          "name": "D7",
          "midi": 98,
          "time": 48.67426249999995,
          "velocity": 0.7874015748031497,
          "duration": 0.5295249999999996
        },
        {
          "name": "D#7",
          "midi": 99,
          "time": 48.67426249999995,
          "velocity": 0.7874015748031497,
          "duration": 0.5295249999999996
        },
        {
          "name": "F#7",
          "midi": 102,
          "time": 48.67426249999995,
          "velocity": 0.7874015748031497,
          "duration": 0.5295249999999996
        },
        {
          "name": "C4",
          "midi": 60,
          "time": 49.205999999999946,
          "velocity": 0.7874015748031497,
          "duration": 0.5287875
        },
        {
          "name": "F#4",
          "midi": 66,
          "time": 49.205999999999946,
          "velocity": 0.7874015748031497,
          "duration": 0.5287875
        },
        {
          "name": "C5",
          "midi": 72,
          "time": 49.205999999999946,
          "velocity": 0.7874015748031497,
          "duration": 0.5287875
        },
        {
          "name": "F#5",
          "midi": 78,
          "time": 49.205999999999946,
          "velocity": 0.7874015748031497,
          "duration": 0.5287875
        },
        {
          "name": "C6",
          "midi": 84,
          "time": 49.205999999999946,
          "velocity": 0.7874015748031497,
          "duration": 0.5287875
        },
        {
          "name": "D6",
          "midi": 86,
          "time": 49.205999999999946,
          "velocity": 0.7874015748031497,
          "duration": 0.5287875
        },
        {
          "name": "F#6",
          "midi": 90,
          "time": 49.205999999999946,
          "velocity": 0.7874015748031497,
          "duration": 0.5287875
        },
        {
          "name": "C7",
          "midi": 96,
          "time": 49.205999999999946,
          "velocity": 0.7874015748031497,
          "duration": 0.5287875
        },
        {
          "name": "C#7",
          "midi": 97,
          "time": 49.205999999999946,
          "velocity": 0.7874015748031497,
          "duration": 0.5287875
        },
        {
          "name": "D#7",
          "midi": 99,
          "time": 49.205999999999946,
          "velocity": 0.7874015748031497,
          "duration": 0.5287875
        },
        {
          "name": "F#7",
          "midi": 102,
          "time": 49.205999999999946,
          "velocity": 0.7874015748031497,
          "duration": 0.5287875
        },
        {
          "name": "D4",
          "midi": 62,
          "time": 49.736999999999945,
          "velocity": 0.7874015748031497,
          "duration": 0.5287875
        },
        {
          "name": "F#4",
          "midi": 66,
          "time": 49.736999999999945,
          "velocity": 0.7874015748031497,
          "duration": 0.5287875
        },
        {
          "name": "C5",
          "midi": 72,
          "time": 49.736999999999945,
          "velocity": 0.7874015748031497,
          "duration": 0.5287875
        },
        {
          "name": "D5",
          "midi": 74,
          "time": 49.736999999999945,
          "velocity": 0.7874015748031497,
          "duration": 0.5287875
        },
        {
          "name": "F#5",
          "midi": 78,
          "time": 49.736999999999945,
          "velocity": 0.7874015748031497,
          "duration": 0.5287875
        },
        {
          "name": "C#6",
          "midi": 85,
          "time": 49.736999999999945,
          "velocity": 0.7874015748031497,
          "duration": 0.5287875
        },
        {
          "name": "D#6",
          "midi": 87,
          "time": 49.736999999999945,
          "velocity": 0.7874015748031497,
          "duration": 0.5287875
        },
        {
          "name": "F#6",
          "midi": 90,
          "time": 49.736999999999945,
          "velocity": 0.7874015748031497,
          "duration": 0.5287875
        },
        {
          "name": "C#7",
          "midi": 97,
          "time": 49.736999999999945,
          "velocity": 0.7874015748031497,
          "duration": 0.5287875
        },
        {
          "name": "D7",
          "midi": 98,
          "time": 49.736999999999945,
          "velocity": 0.7874015748031497,
          "duration": 0.5287875
        },
        {
          "name": "D#7",
          "midi": 99,
          "time": 49.736999999999945,
          "velocity": 0.7874015748031497,
          "duration": 0.5287875
        },
        {
          "name": "F#7",
          "midi": 102,
          "time": 49.736999999999945,
          "velocity": 0.7874015748031497,
          "duration": 0.5287875
        },
        {
          "name": "C#4",
          "midi": 61,
          "time": 50.267999999999944,
          "velocity": 0.7874015748031497,
          "duration": 0.04351249999999851
        },
        {
          "name": "F#4",
          "midi": 66,
          "time": 50.267999999999944,
          "velocity": 0.7874015748031497,
          "duration": 0.04351249999999851
        },
        {
          "name": "C5",
          "midi": 72,
          "time": 50.267999999999944,
          "velocity": 0.7874015748031497,
          "duration": 0.04351249999999851
        },
        {
          "name": "C#5",
          "midi": 73,
          "time": 50.267999999999944,
          "velocity": 0.7874015748031497,
          "duration": 0.04351249999999851
        },
        {
          "name": "F#5",
          "midi": 78,
          "time": 50.267999999999944,
          "velocity": 0.7874015748031497,
          "duration": 0.04351249999999851
        },
        {
          "name": "C6",
          "midi": 84,
          "time": 50.267999999999944,
          "velocity": 0.7874015748031497,
          "duration": 0.35178750000000036
        },
        {
          "name": "D#6",
          "midi": 87,
          "time": 50.267999999999944,
          "velocity": 0.7874015748031497,
          "duration": 0.35178750000000036
        },
        {
          "name": "F#6",
          "midi": 90,
          "time": 50.267999999999944,
          "velocity": 0.7874015748031497,
          "duration": 0.35178750000000036
        },
        {
          "name": "C7",
          "midi": 96,
          "time": 50.267999999999944,
          "velocity": 0.7874015748031497,
          "duration": 0.35178750000000036
        },
        {
          "name": "D7",
          "midi": 98,
          "time": 50.267999999999944,
          "velocity": 0.7874015748031497,
          "duration": 0.35178750000000036
        },
        {
          "name": "D#7",
          "midi": 99,
          "time": 50.267999999999944,
          "velocity": 0.7874015748031497,
          "duration": 0.35178750000000036
        },
        {
          "name": "F#7",
          "midi": 102,
          "time": 50.267999999999944,
          "velocity": 0.7874015748031497,
          "duration": 0.35178750000000036
        },
        {
          "name": "D4",
          "midi": 62,
          "time": 50.62199999999994,
          "velocity": 0.7874015748031497,
          "duration": 0.04351249999999851
        },
        {
          "name": "F#4",
          "midi": 66,
          "time": 50.62199999999994,
          "velocity": 0.7874015748031497,
          "duration": 0.04351249999999851
        },
        {
          "name": "D5",
          "midi": 74,
          "time": 50.62199999999994,
          "velocity": 0.7874015748031497,
          "duration": 0.04351249999999851
        },
        {
          "name": "F#5",
          "midi": 78,
          "time": 50.62199999999994,
          "velocity": 0.7874015748031497,
          "duration": 0.04351249999999851
        },
        {
          "name": "C#6",
          "midi": 85,
          "time": 50.62199999999994,
          "velocity": 0.7874015748031497,
          "duration": 0.04351249999999851
        },
        {
          "name": "F#6",
          "midi": 90,
          "time": 50.62199999999994,
          "velocity": 0.7874015748031497,
          "duration": 0.04351249999999851
        },
        {
          "name": "D7",
          "midi": 98,
          "time": 50.62199999999994,
          "velocity": 0.7874015748031497,
          "duration": 0.04351249999999851
        },
        {
          "name": "F#7",
          "midi": 102,
          "time": 50.62199999999994,
          "velocity": 0.7874015748031497,
          "duration": 0.04351249999999851
        },
        {
          "name": "D6",
          "midi": 86,
          "time": 50.79973749999994,
          "velocity": 0.7874015748031497,
          "duration": 0.04351249999999851
        },
        {
          "name": "F6",
          "midi": 89,
          "time": 50.79973749999994,
          "velocity": 0.7874015748031497,
          "duration": 0.04351249999999851
        },
        {
          "name": "D#7",
          "midi": 99,
          "time": 50.79973749999994,
          "velocity": 0.7874015748031497,
          "duration": 0.04351249999999851
        },
        {
          "name": "F7",
          "midi": 101,
          "time": 50.79973749999994,
          "velocity": 0.7874015748031497,
          "duration": 0.04351249999999851
        },
        {
          "name": "C4",
          "midi": 60,
          "time": 50.97599999999994,
          "velocity": 0.7874015748031497,
          "duration": 0.04351249999999851
        },
        {
          "name": "F#4",
          "midi": 66,
          "time": 50.97599999999994,
          "velocity": 0.7874015748031497,
          "duration": 0.04351249999999851
        },
        {
          "name": "C5",
          "midi": 72,
          "time": 50.97599999999994,
          "velocity": 0.7874015748031497,
          "duration": 0.04351249999999851
        },
        {
          "name": "F#5",
          "midi": 78,
          "time": 50.97599999999994,
          "velocity": 0.7874015748031497,
          "duration": 0.04351249999999851
        },
        {
          "name": "C6",
          "midi": 84,
          "time": 50.97599999999994,
          "velocity": 0.7874015748031497,
          "duration": 0.04351249999999851
        },
        {
          "name": "F#6",
          "midi": 90,
          "time": 50.97599999999994,
          "velocity": 0.7874015748031497,
          "duration": 0.04351249999999851
        },
        {
          "name": "C7",
          "midi": 96,
          "time": 50.97599999999994,
          "velocity": 0.7874015748031497,
          "duration": 0.04351249999999851
        },
        {
          "name": "F#7",
          "midi": 102,
          "time": 50.97599999999994,
          "velocity": 0.7874015748031497,
          "duration": 0.04351249999999851
        },
        {
          "name": "D#6",
          "midi": 87,
          "time": 51.15226249999994,
          "velocity": 0.7874015748031497,
          "duration": 0.044249999999998124
        },
        {
          "name": "F6",
          "midi": 89,
          "time": 51.15226249999994,
          "velocity": 0.7874015748031497,
          "duration": 0.044249999999998124
        },
        {
          "name": "D#7",
          "midi": 99,
          "time": 51.15226249999994,
          "velocity": 0.7874015748031497,
          "duration": 0.044249999999998124
        },
        {
          "name": "F#7",
          "midi": 102,
          "time": 51.15226249999994,
          "velocity": 0.7874015748031497,
          "duration": 0.044249999999998124
        },
        {
          "name": "D4",
          "midi": 62,
          "time": 51.32999999999994,
          "velocity": 0.7874015748031497,
          "duration": 0.044249999999998124
        },
        {
          "name": "F#4",
          "midi": 66,
          "time": 51.32999999999994,
          "velocity": 0.7874015748031497,
          "duration": 0.044249999999998124
        },
        {
          "name": "D#5",
          "midi": 75,
          "time": 51.32999999999994,
          "velocity": 0.7874015748031497,
          "duration": 0.044249999999998124
        },
        {
          "name": "F#5",
          "midi": 78,
          "time": 51.32999999999994,
          "velocity": 0.7874015748031497,
          "duration": 0.044249999999998124
        },
        {
          "name": "E6",
          "midi": 88,
          "time": 51.32999999999994,
          "velocity": 0.7874015748031497,
          "duration": 0.044249999999998124
        },
        {
          "name": "F6",
          "midi": 89,
          "time": 51.32999999999994,
          "velocity": 0.7874015748031497,
          "duration": 0.044249999999998124
        },
        {
          "name": "E7",
          "midi": 100,
          "time": 51.32999999999994,
          "velocity": 0.7874015748031497,
          "duration": 0.044249999999998124
        },
        {
          "name": "F#7",
          "midi": 102,
          "time": 51.32999999999994,
          "velocity": 0.7874015748031497,
          "duration": 0.044249999999998124
        },
        {
          "name": "C#4",
          "midi": 61,
          "time": 51.50699999999994,
          "velocity": 0.7874015748031497,
          "duration": 0.044249999999998124
        },
        {
          "name": "F4",
          "midi": 65,
          "time": 51.50699999999994,
          "velocity": 0.7874015748031497,
          "duration": 0.044249999999998124
        },
        {
          "name": "C#5",
          "midi": 73,
          "time": 51.50699999999994,
          "velocity": 0.7874015748031497,
          "duration": 0.044249999999998124
        },
        {
          "name": "F5",
          "midi": 77,
          "time": 51.50699999999994,
          "velocity": 0.7874015748031497,
          "duration": 0.044249999999998124
        },
        {
          "name": "C#6",
          "midi": 85,
          "time": 51.50699999999994,
          "velocity": 0.7874015748031497,
          "duration": 0.352525
        },
        {
          "name": "F#6",
          "midi": 90,
          "time": 51.50699999999994,
          "velocity": 0.7874015748031497,
          "duration": 0.352525
        },
        {
          "name": "C#7",
          "midi": 97,
          "time": 51.50699999999994,
          "velocity": 0.7874015748031497,
          "duration": 0.352525
        },
        {
          "name": "F#7",
          "midi": 102,
          "time": 51.50699999999994,
          "velocity": 0.7874015748031497,
          "duration": 0.352525
        },
        {
          "name": "D#6",
          "midi": 87,
          "time": 51.86173749999994,
          "velocity": 0.7874015748031497,
          "duration": 0.04351249999999851
        },
        {
          "name": "F#6",
          "midi": 90,
          "time": 51.86173749999994,
          "velocity": 0.7874015748031497,
          "duration": 0.04351249999999851
        },
        {
          "name": "D#7",
          "midi": 99,
          "time": 51.86173749999994,
          "velocity": 0.7874015748031497,
          "duration": 0.04351249999999851
        },
        {
          "name": "F#7",
          "midi": 102,
          "time": 51.86173749999994,
          "velocity": 0.7874015748031497,
          "duration": 0.04351249999999851
        },
        {
          "name": "D4",
          "midi": 62,
          "time": 52.03799999999994,
          "velocity": 0.7874015748031497,
          "duration": 0.04351249999999851
        },
        {
          "name": "F#4",
          "midi": 66,
          "time": 52.03799999999994,
          "velocity": 0.7874015748031497,
          "duration": 0.04351249999999851
        },
        {
          "name": "D#5",
          "midi": 75,
          "time": 52.03799999999994,
          "velocity": 0.7874015748031497,
          "duration": 0.04351249999999851
        },
        {
          "name": "F#5",
          "midi": 78,
          "time": 52.03799999999994,
          "velocity": 0.7874015748031497,
          "duration": 0.04351249999999851
        },
        {
          "name": "E6",
          "midi": 88,
          "time": 52.03799999999994,
          "velocity": 0.7874015748031497,
          "duration": 0.04351249999999851
        },
        {
          "name": "F6",
          "midi": 89,
          "time": 52.03799999999994,
          "velocity": 0.7874015748031497,
          "duration": 0.04351249999999851
        },
        {
          "name": "E7",
          "midi": 100,
          "time": 52.03799999999994,
          "velocity": 0.7874015748031497,
          "duration": 0.04351249999999851
        },
        {
          "name": "F#7",
          "midi": 102,
          "time": 52.03799999999994,
          "velocity": 0.7874015748031497,
          "duration": 0.04351249999999851
        },
        {
          "name": "D#7",
          "midi": 99,
          "time": 52.21499999999994,
          "velocity": 0.7874015748031497,
          "duration": 0.04351249999999851
        },
        {
          "name": "F#7",
          "midi": 102,
          "time": 52.21499999999994,
          "velocity": 0.7874015748031497,
          "duration": 0.04351249999999851
        },
        {
          "name": "C#4",
          "midi": 61,
          "time": 52.39199999999994,
          "velocity": 0.7874015748031497,
          "duration": 0.044249999999998124
        },
        {
          "name": "F#4",
          "midi": 66,
          "time": 52.39199999999994,
          "velocity": 0.7874015748031497,
          "duration": 0.044249999999998124
        },
        {
          "name": "D5",
          "midi": 74,
          "time": 52.39199999999994,
          "velocity": 0.7874015748031497,
          "duration": 0.044249999999998124
        },
        {
          "name": "F#5",
          "midi": 78,
          "time": 52.39199999999994,
          "velocity": 0.7874015748031497,
          "duration": 0.044249999999998124
        },
        {
          "name": "D6",
          "midi": 86,
          "time": 52.39199999999994,
          "velocity": 0.7874015748031497,
          "duration": 0.35178750000000036
        },
        {
          "name": "F#6",
          "midi": 90,
          "time": 52.39199999999994,
          "velocity": 0.7874015748031497,
          "duration": 0.35178750000000036
        },
        {
          "name": "D7",
          "midi": 98,
          "time": 52.39199999999994,
          "velocity": 0.7874015748031497,
          "duration": 0.35178750000000036
        },
        {
          "name": "F#7",
          "midi": 102,
          "time": 52.39199999999994,
          "velocity": 0.7874015748031497,
          "duration": 0.35178750000000036
        },
        {
          "name": "D4",
          "midi": 62,
          "time": 52.74599999999994,
          "velocity": 0.7874015748031497,
          "duration": 0.04351249999999851
        },
        {
          "name": "F#4",
          "midi": 66,
          "time": 52.74599999999994,
          "velocity": 0.7874015748031497,
          "duration": 0.04351249999999851
        },
        {
          "name": "D#5",
          "midi": 75,
          "time": 52.74599999999994,
          "velocity": 0.7874015748031497,
          "duration": 0.04351249999999851
        },
        {
          "name": "F#5",
          "midi": 78,
          "time": 52.74599999999994,
          "velocity": 0.7874015748031497,
          "duration": 0.04351249999999851
        },
        {
          "name": "E6",
          "midi": 88,
          "time": 52.74599999999994,
          "velocity": 0.7874015748031497,
          "duration": 0.04351249999999851
        },
        {
          "name": "F#6",
          "midi": 90,
          "time": 52.74599999999994,
          "velocity": 0.7874015748031497,
          "duration": 0.04351249999999851
        },
        {
          "name": "E7",
          "midi": 100,
          "time": 52.74599999999994,
          "velocity": 0.7874015748031497,
          "duration": 0.04351249999999851
        },
        {
          "name": "F#7",
          "midi": 102,
          "time": 52.74599999999994,
          "velocity": 0.7874015748031497,
          "duration": 0.04351249999999851
        },
        {
          "name": "C#4",
          "midi": 61,
          "time": 52.92373749999994,
          "velocity": 0.7874015748031497,
          "duration": 0.0427749999999989
        },
        {
          "name": "F4",
          "midi": 65,
          "time": 52.92373749999994,
          "velocity": 0.7874015748031497,
          "duration": 0.0427749999999989
        },
        {
          "name": "C#5",
          "midi": 73,
          "time": 52.92373749999994,
          "velocity": 0.7874015748031497,
          "duration": 0.0427749999999989
        },
        {
          "name": "F5",
          "midi": 77,
          "time": 52.92373749999994,
          "velocity": 0.7874015748031497,
          "duration": 0.0427749999999989
        },
        {
          "name": "C#6",
          "midi": 85,
          "time": 52.92373749999994,
          "velocity": 0.7874015748031497,
          "duration": 0.35178750000000036
        },
        {
          "name": "F#6",
          "midi": 90,
          "time": 52.92373749999994,
          "velocity": 0.7874015748031497,
          "duration": 0.35178750000000036
        },
        {
          "name": "C#7",
          "midi": 97,
          "time": 52.92373749999994,
          "velocity": 0.7874015748031497,
          "duration": 0.35178750000000036
        },
        {
          "name": "F#7",
          "midi": 102,
          "time": 52.92373749999994,
          "velocity": 0.7874015748031497,
          "duration": 0.35178750000000036
        },
        {
          "name": "D#6",
          "midi": 87,
          "time": 53.27773749999994,
          "velocity": 0.7874015748031497,
          "duration": 0.0427749999999989
        },
        {
          "name": "F#6",
          "midi": 90,
          "time": 53.27773749999994,
          "velocity": 0.7874015748031497,
          "duration": 0.0427749999999989
        },
        {
          "name": "D#7",
          "midi": 99,
          "time": 53.27773749999994,
          "velocity": 0.7874015748031497,
          "duration": 0.0427749999999989
        },
        {
          "name": "F#7",
          "midi": 102,
          "time": 53.27773749999994,
          "velocity": 0.7874015748031497,
          "duration": 0.0427749999999989
        },
        {
          "name": "D4",
          "midi": 62,
          "time": 53.45399999999994,
          "velocity": 0.7874015748031497,
          "duration": 0.04351249999999851
        },
        {
          "name": "F#4",
          "midi": 66,
          "time": 53.45399999999994,
          "velocity": 0.7874015748031497,
          "duration": 0.04351249999999851
        },
        {
          "name": "D#5",
          "midi": 75,
          "time": 53.45399999999994,
          "velocity": 0.7874015748031497,
          "duration": 0.04351249999999851
        },
        {
          "name": "F#5",
          "midi": 78,
          "time": 53.45399999999994,
          "velocity": 0.7874015748031497,
          "duration": 0.04351249999999851
        },
        {
          "name": "E6",
          "midi": 88,
          "time": 53.45399999999994,
          "velocity": 0.7874015748031497,
          "duration": 0.35178750000000036
        },
        {
          "name": "F6",
          "midi": 89,
          "time": 53.45399999999994,
          "velocity": 0.7874015748031497,
          "duration": 0.35178750000000036
        },
        {
          "name": "E7",
          "midi": 100,
          "time": 53.45399999999994,
          "velocity": 0.7874015748031497,
          "duration": 0.35178750000000036
        },
        {
          "name": "F#7",
          "midi": 102,
          "time": 53.45399999999994,
          "velocity": 0.7874015748031497,
          "duration": 0.35178750000000036
        },
        {
          "name": "C4",
          "midi": 60,
          "time": 53.807999999999936,
          "velocity": 0.7874015748031497,
          "duration": 0.044249999999998124
        },
        {
          "name": "F#4",
          "midi": 66,
          "time": 53.807999999999936,
          "velocity": 0.7874015748031497,
          "duration": 0.044249999999998124
        },
        {
          "name": "C5",
          "midi": 72,
          "time": 53.807999999999936,
          "velocity": 0.7874015748031497,
          "duration": 0.044249999999998124
        },
        {
          "name": "F#5",
          "midi": 78,
          "time": 53.807999999999936,
          "velocity": 0.7874015748031497,
          "duration": 0.044249999999998124
        },
        {
          "name": "C6",
          "midi": 84,
          "time": 53.807999999999936,
          "velocity": 0.7874015748031497,
          "duration": 0.044249999999998124
        },
        {
          "name": "F#6",
          "midi": 90,
          "time": 53.807999999999936,
          "velocity": 0.7874015748031497,
          "duration": 0.044249999999998124
        },
        {
          "name": "C7",
          "midi": 96,
          "time": 53.807999999999936,
          "velocity": 0.7874015748031497,
          "duration": 0.044249999999998124
        },
        {
          "name": "F#7",
          "midi": 102,
          "time": 53.807999999999936,
          "velocity": 0.7874015748031497,
          "duration": 0.044249999999998124
        },
        {
          "name": "D#6",
          "midi": 87,
          "time": 53.985737499999935,
          "velocity": 0.7874015748031497,
          "duration": 0.044249999999998124
        },
        {
          "name": "F6",
          "midi": 89,
          "time": 53.985737499999935,
          "velocity": 0.7874015748031497,
          "duration": 0.044249999999998124
        },
        {
          "name": "D#7",
          "midi": 99,
          "time": 53.985737499999935,
          "velocity": 0.7874015748031497,
          "duration": 0.044249999999998124
        },
        {
          "name": "F#7",
          "midi": 102,
          "time": 53.985737499999935,
          "velocity": 0.7874015748031497,
          "duration": 0.044249999999998124
        },
        {
          "name": "D4",
          "midi": 62,
          "time": 54.161999999999935,
          "velocity": 0.7874015748031497,
          "duration": 0.044249999999998124
        },
        {
          "name": "F#4",
          "midi": 66,
          "time": 54.161999999999935,
          "velocity": 0.7874015748031497,
          "duration": 0.044249999999998124
        },
        {
          "name": "D#5",
          "midi": 75,
          "time": 54.161999999999935,
          "velocity": 0.7874015748031497,
          "duration": 0.044249999999998124
        },
        {
          "name": "F#5",
          "midi": 78,
          "time": 54.161999999999935,
          "velocity": 0.7874015748031497,
          "duration": 0.044249999999998124
        },
        {
          "name": "E6",
          "midi": 88,
          "time": 54.161999999999935,
          "velocity": 0.7874015748031497,
          "duration": 0.044249999999998124
        },
        {
          "name": "F6",
          "midi": 89,
          "time": 54.161999999999935,
          "velocity": 0.7874015748031497,
          "duration": 0.044249999999998124
        },
        {
          "name": "E7",
          "midi": 100,
          "time": 54.161999999999935,
          "velocity": 0.7874015748031497,
          "duration": 0.044249999999998124
        },
        {
          "name": "F#7",
          "midi": 102,
          "time": 54.161999999999935,
          "velocity": 0.7874015748031497,
          "duration": 0.044249999999998124
        },
        {
          "name": "C#4",
          "midi": 61,
          "time": 54.339737499999934,
          "velocity": 0.7874015748031497,
          "duration": 0.044249999999998124
        },
        {
          "name": "F4",
          "midi": 65,
          "time": 54.339737499999934,
          "velocity": 0.7874015748031497,
          "duration": 0.044249999999998124
        },
        {
          "name": "D5",
          "midi": 74,
          "time": 54.339737499999934,
          "velocity": 0.7874015748031497,
          "duration": 0.044249999999998124
        },
        {
          "name": "F5",
          "midi": 77,
          "time": 54.339737499999934,
          "velocity": 0.7874015748031497,
          "duration": 0.044249999999998124
        },
        {
          "name": "D6",
          "midi": 86,
          "time": 54.339737499999934,
          "velocity": 0.7874015748031497,
          "duration": 0.35178750000000036
        },
        {
          "name": "F#6",
          "midi": 90,
          "time": 54.339737499999934,
          "velocity": 0.7874015748031497,
          "duration": 0.35178750000000036
        },
        {
          "name": "D7",
          "midi": 98,
          "time": 54.339737499999934,
          "velocity": 0.7874015748031497,
          "duration": 0.35178750000000036
        },
        {
          "name": "F#7",
          "midi": 102,
          "time": 54.339737499999934,
          "velocity": 0.7874015748031497,
          "duration": 0.35178750000000036
        },
        {
          "name": "D#6",
          "midi": 87,
          "time": 54.69373749999993,
          "velocity": 0.7874015748031497,
          "duration": 0.04351249999999851
        },
        {
          "name": "F#6",
          "midi": 90,
          "time": 54.69373749999993,
          "velocity": 0.7874015748031497,
          "duration": 0.04351249999999851
        },
        {
          "name": "D#7",
          "midi": 99,
          "time": 54.69373749999993,
          "velocity": 0.7874015748031497,
          "duration": 0.04351249999999851
        },
        {
          "name": "F#7",
          "midi": 102,
          "time": 54.69373749999993,
          "velocity": 0.7874015748031497,
          "duration": 0.04351249999999851
        },
        {
          "name": "D4",
          "midi": 62,
          "time": 54.86999999999993,
          "velocity": 0.7874015748031497,
          "duration": 0.04351249999999851
        },
        {
          "name": "F#4",
          "midi": 66,
          "time": 54.86999999999993,
          "velocity": 0.7874015748031497,
          "duration": 0.04351249999999851
        },
        {
          "name": "D#5",
          "midi": 75,
          "time": 54.86999999999993,
          "velocity": 0.7874015748031497,
          "duration": 0.04351249999999851
        },
        {
          "name": "F#5",
          "midi": 78,
          "time": 54.86999999999993,
          "velocity": 0.7874015748031497,
          "duration": 0.04351249999999851
        },
        {
          "name": "E6",
          "midi": 88,
          "time": 54.86999999999993,
          "velocity": 0.7874015748031497,
          "duration": 0.35178750000000036
        },
        {
          "name": "F6",
          "midi": 89,
          "time": 54.86999999999993,
          "velocity": 0.7874015748031497,
          "duration": 0.35178750000000036
        },
        {
          "name": "E7",
          "midi": 100,
          "time": 54.86999999999993,
          "velocity": 0.7874015748031497,
          "duration": 0.35178750000000036
        },
        {
          "name": "F#7",
          "midi": 102,
          "time": 54.86999999999993,
          "velocity": 0.7874015748031497,
          "duration": 0.35178750000000036
        },
        {
          "name": "C#4",
          "midi": 61,
          "time": 55.22399999999993,
          "velocity": 0.7874015748031497,
          "duration": 0.04351249999999851
        },
        {
          "name": "F#4",
          "midi": 66,
          "time": 55.22399999999993,
          "velocity": 0.7874015748031497,
          "duration": 0.04351249999999851
        },
        {
          "name": "C#5",
          "midi": 73,
          "time": 55.22399999999993,
          "velocity": 0.7874015748031497,
          "duration": 0.04351249999999851
        },
        {
          "name": "F#5",
          "midi": 78,
          "time": 55.22399999999993,
          "velocity": 0.7874015748031497,
          "duration": 0.04351249999999851
        },
        {
          "name": "C#6",
          "midi": 85,
          "time": 55.22399999999993,
          "velocity": 0.7874015748031497,
          "duration": 0.04351249999999851
        },
        {
          "name": "F#6",
          "midi": 90,
          "time": 55.22399999999993,
          "velocity": 0.7874015748031497,
          "duration": 0.04351249999999851
        },
        {
          "name": "C#7",
          "midi": 97,
          "time": 55.22399999999993,
          "velocity": 0.7874015748031497,
          "duration": 0.04351249999999851
        },
        {
          "name": "F#7",
          "midi": 102,
          "time": 55.22399999999993,
          "velocity": 0.7874015748031497,
          "duration": 0.04351249999999851
        },
        {
          "name": "D#6",
          "midi": 87,
          "time": 55.40173749999993,
          "velocity": 0.7874015748031497,
          "duration": 0.0427749999999989
        },
        {
          "name": "F6",
          "midi": 89,
          "time": 55.40173749999993,
          "velocity": 0.7874015748031497,
          "duration": 0.0427749999999989
        },
        {
          "name": "D#7",
          "midi": 99,
          "time": 55.40173749999993,
          "velocity": 0.7874015748031497,
          "duration": 0.0427749999999989
        },
        {
          "name": "F#7",
          "midi": 102,
          "time": 55.40173749999993,
          "velocity": 0.7874015748031497,
          "duration": 0.0427749999999989
        },
        {
          "name": "D4",
          "midi": 62,
          "time": 55.57799999999993,
          "velocity": 0.7874015748031497,
          "duration": 0.04351249999999851
        },
        {
          "name": "F#4",
          "midi": 66,
          "time": 55.57799999999993,
          "velocity": 0.7874015748031497,
          "duration": 0.04351249999999851
        },
        {
          "name": "D#5",
          "midi": 75,
          "time": 55.57799999999993,
          "velocity": 0.7874015748031497,
          "duration": 0.04351249999999851
        },
        {
          "name": "F#5",
          "midi": 78,
          "time": 55.57799999999993,
          "velocity": 0.7874015748031497,
          "duration": 0.04351249999999851
        },
        {
          "name": "E6",
          "midi": 88,
          "time": 55.57799999999993,
          "velocity": 0.7874015748031497,
          "duration": 0.04351249999999851
        },
        {
          "name": "F6",
          "midi": 89,
          "time": 55.57799999999993,
          "velocity": 0.7874015748031497,
          "duration": 0.04351249999999851
        },
        {
          "name": "E7",
          "midi": 100,
          "time": 55.57799999999993,
          "velocity": 0.7874015748031497,
          "duration": 0.04351249999999851
        },
        {
          "name": "F#7",
          "midi": 102,
          "time": 55.57799999999993,
          "velocity": 0.7874015748031497,
          "duration": 0.04351249999999851
        },
        {
          "name": "C#4",
          "midi": 61,
          "time": 55.75573749999993,
          "velocity": 0.7874015748031497,
          "duration": 0.0427749999999989
        },
        {
          "name": "F4",
          "midi": 65,
          "time": 55.75573749999993,
          "velocity": 0.7874015748031497,
          "duration": 0.0427749999999989
        },
        {
          "name": "D5",
          "midi": 74,
          "time": 55.75573749999993,
          "velocity": 0.7874015748031497,
          "duration": 0.0427749999999989
        },
        {
          "name": "F5",
          "midi": 77,
          "time": 55.75573749999993,
          "velocity": 0.7874015748031497,
          "duration": 0.0427749999999989
        },
        {
          "name": "D6",
          "midi": 86,
          "time": 55.75573749999993,
          "velocity": 0.7874015748031497,
          "duration": 0.35105000000000075
        },
        {
          "name": "F#6",
          "midi": 90,
          "time": 55.75573749999993,
          "velocity": 0.7874015748031497,
          "duration": 0.35105000000000075
        },
        {
          "name": "D7",
          "midi": 98,
          "time": 55.75573749999993,
          "velocity": 0.7874015748031497,
          "duration": 0.35105000000000075
        },
        {
          "name": "F#7",
          "midi": 102,
          "time": 55.75573749999993,
          "velocity": 0.7874015748031497,
          "duration": 0.35105000000000075
        },
        {
          "name": "D#6",
          "midi": 87,
          "time": 56.10899999999993,
          "velocity": 0.7874015748031497,
          "duration": 0.044249999999998124
        },
        {
          "name": "F#6",
          "midi": 90,
          "time": 56.10899999999993,
          "velocity": 0.7874015748031497,
          "duration": 0.044249999999998124
        },
        {
          "name": "D#7",
          "midi": 99,
          "time": 56.10899999999993,
          "velocity": 0.7874015748031497,
          "duration": 0.044249999999998124
        },
        {
          "name": "F#7",
          "midi": 102,
          "time": 56.10899999999993,
          "velocity": 0.7874015748031497,
          "duration": 0.044249999999998124
        },
        {
          "name": "C#4",
          "midi": 61,
          "time": 56.28599999999993,
          "velocity": 0.7874015748031497,
          "duration": 0.04351249999999851
        },
        {
          "name": "F#4",
          "midi": 66,
          "time": 56.28599999999993,
          "velocity": 0.7874015748031497,
          "duration": 0.04351249999999851
        },
        {
          "name": "C#5",
          "midi": 73,
          "time": 56.28599999999993,
          "velocity": 0.7874015748031497,
          "duration": 0.04351249999999851
        },
        {
          "name": "F#5",
          "midi": 78,
          "time": 56.28599999999993,
          "velocity": 0.7874015748031497,
          "duration": 0.04351249999999851
        },
        {
          "name": "C#6",
          "midi": 85,
          "time": 56.28599999999993,
          "velocity": 0.7874015748031497,
          "duration": 0.35178750000000036
        },
        {
          "name": "F6",
          "midi": 89,
          "time": 56.28599999999993,
          "velocity": 0.7874015748031497,
          "duration": 0.35178750000000036
        },
        {
          "name": "C#7",
          "midi": 97,
          "time": 56.28599999999993,
          "velocity": 0.7874015748031497,
          "duration": 0.35178750000000036
        },
        {
          "name": "F#7",
          "midi": 102,
          "time": 56.28599999999993,
          "velocity": 0.7874015748031497,
          "duration": 0.35178750000000036
        },
        {
          "name": "C4",
          "midi": 60,
          "time": 56.63999999999993,
          "velocity": 0.7874015748031497,
          "duration": 0.04351249999999851
        },
        {
          "name": "F#4",
          "midi": 66,
          "time": 56.63999999999993,
          "velocity": 0.7874015748031497,
          "duration": 0.04351249999999851
        },
        {
          "name": "C5",
          "midi": 72,
          "time": 56.63999999999993,
          "velocity": 0.7874015748031497,
          "duration": 0.04351249999999851
        },
        {
          "name": "F#5",
          "midi": 78,
          "time": 56.63999999999993,
          "velocity": 0.7874015748031497,
          "duration": 0.04351249999999851
        },
        {
          "name": "C6",
          "midi": 84,
          "time": 56.63999999999993,
          "velocity": 0.7874015748031497,
          "duration": 0.04351249999999851
        },
        {
          "name": "F#6",
          "midi": 90,
          "time": 56.63999999999993,
          "velocity": 0.7874015748031497,
          "duration": 0.04351249999999851
        },
        {
          "name": "C7",
          "midi": 96,
          "time": 56.63999999999993,
          "velocity": 0.7874015748031497,
          "duration": 0.04351249999999851
        },
        {
          "name": "F#7",
          "midi": 102,
          "time": 56.63999999999993,
          "velocity": 0.7874015748031497,
          "duration": 0.04351249999999851
        },
        {
          "name": "D#6",
          "midi": 87,
          "time": 56.81699999999993,
          "velocity": 0.7874015748031497,
          "duration": 0.04351249999999851
        },
        {
          "name": "F6",
          "midi": 89,
          "time": 56.81699999999993,
          "velocity": 0.7874015748031497,
          "duration": 0.04351249999999851
        },
        {
          "name": "D#7",
          "midi": 99,
          "time": 56.81699999999993,
          "velocity": 0.7874015748031497,
          "duration": 0.04351249999999851
        },
        {
          "name": "F#7",
          "midi": 102,
          "time": 56.81699999999993,
          "velocity": 0.7874015748031497,
          "duration": 0.04351249999999851
        },
        {
          "name": "D4",
          "midi": 62,
          "time": 56.99399999999993,
          "velocity": 0.7874015748031497,
          "duration": 0.04351249999999851
        },
        {
          "name": "F#4",
          "midi": 66,
          "time": 56.99399999999993,
          "velocity": 0.7874015748031497,
          "duration": 0.04351249999999851
        },
        {
          "name": "D#5",
          "midi": 75,
          "time": 56.99399999999993,
          "velocity": 0.7874015748031497,
          "duration": 0.04351249999999851
        },
        {
          "name": "F#5",
          "midi": 78,
          "time": 56.99399999999993,
          "velocity": 0.7874015748031497,
          "duration": 0.04351249999999851
        },
        {
          "name": "E6",
          "midi": 88,
          "time": 56.99399999999993,
          "velocity": 0.7874015748031497,
          "duration": 0.04351249999999851
        },
        {
          "name": "F6",
          "midi": 89,
          "time": 56.99399999999993,
          "velocity": 0.7874015748031497,
          "duration": 0.04351249999999851
        },
        {
          "name": "E7",
          "midi": 100,
          "time": 56.99399999999993,
          "velocity": 0.7874015748031497,
          "duration": 0.04351249999999851
        },
        {
          "name": "F#7",
          "midi": 102,
          "time": 56.99399999999993,
          "velocity": 0.7874015748031497,
          "duration": 0.04351249999999851
        },
        {
          "name": "C#4",
          "midi": 61,
          "time": 57.17099999999993,
          "velocity": 0.7874015748031497,
          "duration": 0.04351249999999851
        },
        {
          "name": "F4",
          "midi": 65,
          "time": 57.17099999999993,
          "velocity": 0.7874015748031497,
          "duration": 0.04351249999999851
        },
        {
          "name": "C#5",
          "midi": 73,
          "time": 57.17099999999993,
          "velocity": 0.7874015748031497,
          "duration": 0.04351249999999851
        },
        {
          "name": "F5",
          "midi": 77,
          "time": 57.17099999999993,
          "velocity": 0.7874015748031497,
          "duration": 0.04351249999999851
        },
        {
          "name": "C#6",
          "midi": 85,
          "time": 57.17099999999993,
          "velocity": 0.7874015748031497,
          "duration": 0.35178750000000036
        },
        {
          "name": "F#6",
          "midi": 90,
          "time": 57.17099999999993,
          "velocity": 0.7874015748031497,
          "duration": 0.35178750000000036
        },
        {
          "name": "C#7",
          "midi": 97,
          "time": 57.17099999999993,
          "velocity": 0.7874015748031497,
          "duration": 0.35178750000000036
        },
        {
          "name": "F#7",
          "midi": 102,
          "time": 57.17099999999993,
          "velocity": 0.7874015748031497,
          "duration": 0.35178750000000036
        },
        {
          "name": "D#6",
          "midi": 87,
          "time": 57.52499999999993,
          "velocity": 0.7874015748031497,
          "duration": 0.044249999999998124
        },
        {
          "name": "F#6",
          "midi": 90,
          "time": 57.52499999999993,
          "velocity": 0.7874015748031497,
          "duration": 0.044249999999998124
        },
        {
          "name": "D#7",
          "midi": 99,
          "time": 57.52499999999993,
          "velocity": 0.7874015748031497,
          "duration": 0.044249999999998124
        },
        {
          "name": "F#7",
          "midi": 102,
          "time": 57.52499999999993,
          "velocity": 0.7874015748031497,
          "duration": 0.044249999999998124
        },
        {
          "name": "D4",
          "midi": 62,
          "time": 57.70199999999993,
          "velocity": 0.7874015748031497,
          "duration": 0.044249999999998124
        },
        {
          "name": "F#4",
          "midi": 66,
          "time": 57.70199999999993,
          "velocity": 0.7874015748031497,
          "duration": 0.044249999999998124
        },
        {
          "name": "D#5",
          "midi": 75,
          "time": 57.70199999999993,
          "velocity": 0.7874015748031497,
          "duration": 0.044249999999998124
        },
        {
          "name": "F#5",
          "midi": 78,
          "time": 57.70199999999993,
          "velocity": 0.7874015748031497,
          "duration": 0.044249999999998124
        },
        {
          "name": "E6",
          "midi": 88,
          "time": 57.70199999999993,
          "velocity": 0.7874015748031497,
          "duration": 0.044249999999998124
        },
        {
          "name": "F6",
          "midi": 89,
          "time": 57.70199999999993,
          "velocity": 0.7874015748031497,
          "duration": 0.044249999999998124
        },
        {
          "name": "E7",
          "midi": 100,
          "time": 57.70199999999993,
          "velocity": 0.7874015748031497,
          "duration": 0.044249999999998124
        },
        {
          "name": "F#7",
          "midi": 102,
          "time": 57.70199999999993,
          "velocity": 0.7874015748031497,
          "duration": 0.044249999999998124
        },
        {
          "name": "D#7",
          "midi": 99,
          "time": 57.87899999999993,
          "velocity": 0.7874015748031497,
          "duration": 0.044249999999998124
        },
        {
          "name": "F#7",
          "midi": 102,
          "time": 57.87899999999993,
          "velocity": 0.7874015748031497,
          "duration": 0.044249999999998124
        },
        {
          "name": "C#4",
          "midi": 61,
          "time": 58.055999999999926,
          "velocity": 0.7874015748031497,
          "duration": 0.04351249999999851
        },
        {
          "name": "F#4",
          "midi": 66,
          "time": 58.055999999999926,
          "velocity": 0.7874015748031497,
          "duration": 0.04351249999999851
        },
        {
          "name": "D5",
          "midi": 74,
          "time": 58.055999999999926,
          "velocity": 0.7874015748031497,
          "duration": 0.04351249999999851
        },
        {
          "name": "F#5",
          "midi": 78,
          "time": 58.055999999999926,
          "velocity": 0.7874015748031497,
          "duration": 0.04351249999999851
        },
        {
          "name": "D6",
          "midi": 86,
          "time": 58.055999999999926,
          "velocity": 0.7874015748031497,
          "duration": 0.04351249999999851
        },
        {
          "name": "F#6",
          "midi": 90,
          "time": 58.055999999999926,
          "velocity": 0.7874015748031497,
          "duration": 0.04351249999999851
        },
        {
          "name": "D7",
          "midi": 98,
          "time": 58.055999999999926,
          "velocity": 0.7874015748031497,
          "duration": 0.04351249999999851
        },
        {
          "name": "F#7",
          "midi": 102,
          "time": 58.055999999999926,
          "velocity": 0.7874015748031497,
          "duration": 0.04351249999999851
        },
        {
          "name": "D#6",
          "midi": 87,
          "time": 58.233737499999926,
          "velocity": 0.7874015748031497,
          "duration": 0.04351249999999851
        },
        {
          "name": "F6",
          "midi": 89,
          "time": 58.233737499999926,
          "velocity": 0.7874015748031497,
          "duration": 0.04351249999999851
        },
        {
          "name": "D#7",
          "midi": 99,
          "time": 58.233737499999926,
          "velocity": 0.7874015748031497,
          "duration": 0.04351249999999851
        },
        {
          "name": "F#7",
          "midi": 102,
          "time": 58.233737499999926,
          "velocity": 0.7874015748031497,
          "duration": 0.04351249999999851
        },
        {
          "name": "D4",
          "midi": 62,
          "time": 58.409999999999926,
          "velocity": 0.7874015748031497,
          "duration": 0.04351249999999851
        },
        {
          "name": "F#4",
          "midi": 66,
          "time": 58.409999999999926,
          "velocity": 0.7874015748031497,
          "duration": 0.04351249999999851
        },
        {
          "name": "D#5",
          "midi": 75,
          "time": 58.409999999999926,
          "velocity": 0.7874015748031497,
          "duration": 0.04351249999999851
        },
        {
          "name": "F#5",
          "midi": 78,
          "time": 58.409999999999926,
          "velocity": 0.7874015748031497,
          "duration": 0.04351249999999851
        },
        {
          "name": "E6",
          "midi": 88,
          "time": 58.409999999999926,
          "velocity": 0.7874015748031497,
          "duration": 0.04351249999999851
        },
        {
          "name": "F6",
          "midi": 89,
          "time": 58.409999999999926,
          "velocity": 0.7874015748031497,
          "duration": 0.04351249999999851
        },
        {
          "name": "E7",
          "midi": 100,
          "time": 58.409999999999926,
          "velocity": 0.7874015748031497,
          "duration": 0.04351249999999851
        },
        {
          "name": "F#7",
          "midi": 102,
          "time": 58.409999999999926,
          "velocity": 0.7874015748031497,
          "duration": 0.04351249999999851
        },
        {
          "name": "C#4",
          "midi": 61,
          "time": 58.586999999999925,
          "velocity": 0.7874015748031497,
          "duration": 0.04351249999999851
        },
        {
          "name": "F4",
          "midi": 65,
          "time": 58.586999999999925,
          "velocity": 0.7874015748031497,
          "duration": 0.04351249999999851
        },
        {
          "name": "C#5",
          "midi": 73,
          "time": 58.586999999999925,
          "velocity": 0.7874015748031497,
          "duration": 0.04351249999999851
        },
        {
          "name": "F5",
          "midi": 77,
          "time": 58.586999999999925,
          "velocity": 0.7874015748031497,
          "duration": 0.04351249999999851
        },
        {
          "name": "C#6",
          "midi": 85,
          "time": 58.586999999999925,
          "velocity": 0.7874015748031497,
          "duration": 0.35178750000000036
        },
        {
          "name": "F#6",
          "midi": 90,
          "time": 58.586999999999925,
          "velocity": 0.7874015748031497,
          "duration": 0.35178750000000036
        },
        {
          "name": "C#7",
          "midi": 97,
          "time": 58.586999999999925,
          "velocity": 0.7874015748031497,
          "duration": 0.35178750000000036
        },
        {
          "name": "F#7",
          "midi": 102,
          "time": 58.586999999999925,
          "velocity": 0.7874015748031497,
          "duration": 0.35178750000000036
        },
        {
          "name": "D#6",
          "midi": 87,
          "time": 58.940999999999924,
          "velocity": 0.7874015748031497,
          "duration": 0.044249999999998124
        },
        {
          "name": "F#6",
          "midi": 90,
          "time": 58.940999999999924,
          "velocity": 0.7874015748031497,
          "duration": 0.044249999999998124
        },
        {
          "name": "D#7",
          "midi": 99,
          "time": 58.940999999999924,
          "velocity": 0.7874015748031497,
          "duration": 0.044249999999998124
        },
        {
          "name": "F#7",
          "midi": 102,
          "time": 58.940999999999924,
          "velocity": 0.7874015748031497,
          "duration": 0.044249999999998124
        },
        {
          "name": "D4",
          "midi": 62,
          "time": 59.117999999999924,
          "velocity": 0.7874015748031497,
          "duration": 0.044249999999998124
        },
        {
          "name": "F#4",
          "midi": 66,
          "time": 59.117999999999924,
          "velocity": 0.7874015748031497,
          "duration": 0.044249999999998124
        },
        {
          "name": "D#5",
          "midi": 75,
          "time": 59.117999999999924,
          "velocity": 0.7874015748031497,
          "duration": 0.044249999999998124
        },
        {
          "name": "F#5",
          "midi": 78,
          "time": 59.117999999999924,
          "velocity": 0.7874015748031497,
          "duration": 0.044249999999998124
        },
        {
          "name": "E6",
          "midi": 88,
          "time": 59.117999999999924,
          "velocity": 0.7874015748031497,
          "duration": 0.35178750000000036
        },
        {
          "name": "F6",
          "midi": 89,
          "time": 59.117999999999924,
          "velocity": 0.7874015748031497,
          "duration": 0.35178750000000036
        },
        {
          "name": "E7",
          "midi": 100,
          "time": 59.117999999999924,
          "velocity": 0.7874015748031497,
          "duration": 0.35178750000000036
        },
        {
          "name": "F#7",
          "midi": 102,
          "time": 59.117999999999924,
          "velocity": 0.7874015748031497,
          "duration": 0.35178750000000036
        },
        {
          "name": "C4",
          "midi": 60,
          "time": 59.47199999999992,
          "velocity": 0.7874015748031497,
          "duration": 0.044249999999998124
        },
        {
          "name": "F#4",
          "midi": 66,
          "time": 59.47199999999992,
          "velocity": 0.7874015748031497,
          "duration": 0.044249999999998124
        },
        {
          "name": "C5",
          "midi": 72,
          "time": 59.47199999999992,
          "velocity": 0.7874015748031497,
          "duration": 0.044249999999998124
        },
        {
          "name": "F#5",
          "midi": 78,
          "time": 59.47199999999992,
          "velocity": 0.7874015748031497,
          "duration": 0.044249999999998124
        },
        {
          "name": "C6",
          "midi": 84,
          "time": 59.47199999999992,
          "velocity": 0.7874015748031497,
          "duration": 0.044249999999998124
        },
        {
          "name": "F#6",
          "midi": 90,
          "time": 59.47199999999992,
          "velocity": 0.7874015748031497,
          "duration": 0.044249999999998124
        },
        {
          "name": "C7",
          "midi": 96,
          "time": 59.47199999999992,
          "velocity": 0.7874015748031497,
          "duration": 0.044249999999998124
        },
        {
          "name": "F#7",
          "midi": 102,
          "time": 59.47199999999992,
          "velocity": 0.7874015748031497,
          "duration": 0.044249999999998124
        },
        {
          "name": "D#6",
          "midi": 87,
          "time": 59.64973749999992,
          "velocity": 0.7874015748031497,
          "duration": 0.044249999999998124
        },
        {
          "name": "F6",
          "midi": 89,
          "time": 59.64973749999992,
          "velocity": 0.7874015748031497,
          "duration": 0.044249999999998124
        },
        {
          "name": "D#7",
          "midi": 99,
          "time": 59.64973749999992,
          "velocity": 0.7874015748031497,
          "duration": 0.044249999999998124
        },
        {
          "name": "F#7",
          "midi": 102,
          "time": 59.64973749999992,
          "velocity": 0.7874015748031497,
          "duration": 0.044249999999998124
        },
        {
          "name": "D4",
          "midi": 62,
          "time": 59.82599999999992,
          "velocity": 0.7874015748031497,
          "duration": 0.044249999999998124
        },
        {
          "name": "F#4",
          "midi": 66,
          "time": 59.82599999999992,
          "velocity": 0.7874015748031497,
          "duration": 0.044249999999998124
        },
        {
          "name": "D#5",
          "midi": 75,
          "time": 59.82599999999992,
          "velocity": 0.7874015748031497,
          "duration": 0.044249999999998124
        },
        {
          "name": "F#5",
          "midi": 78,
          "time": 59.82599999999992,
          "velocity": 0.7874015748031497,
          "duration": 0.044249999999998124
        },
        {
          "name": "E6",
          "midi": 88,
          "time": 59.82599999999992,
          "velocity": 0.7874015748031497,
          "duration": 0.044249999999998124
        },
        {
          "name": "F6",
          "midi": 89,
          "time": 59.82599999999992,
          "velocity": 0.7874015748031497,
          "duration": 0.044249999999998124
        },
        {
          "name": "E7",
          "midi": 100,
          "time": 59.82599999999992,
          "velocity": 0.7874015748031497,
          "duration": 0.044249999999998124
        },
        {
          "name": "F#7",
          "midi": 102,
          "time": 59.82599999999992,
          "velocity": 0.7874015748031497,
          "duration": 0.044249999999998124
        },
        {
          "name": "C#4",
          "midi": 61,
          "time": 60.00299999999992,
          "velocity": 0.7874015748031497,
          "duration": 0.044249999999998124
        },
        {
          "name": "F4",
          "midi": 65,
          "time": 60.00299999999992,
          "velocity": 0.7874015748031497,
          "duration": 0.044249999999998124
        },
        {
          "name": "D5",
          "midi": 74,
          "time": 60.00299999999992,
          "velocity": 0.7874015748031497,
          "duration": 0.044249999999998124
        },
        {
          "name": "F5",
          "midi": 77,
          "time": 60.00299999999992,
          "velocity": 0.7874015748031497,
          "duration": 0.044249999999998124
        },
        {
          "name": "D6",
          "midi": 86,
          "time": 60.00299999999992,
          "velocity": 0.7874015748031497,
          "duration": 0.35178750000000036
        },
        {
          "name": "F#6",
          "midi": 90,
          "time": 60.00299999999992,
          "velocity": 0.7874015748031497,
          "duration": 0.35178750000000036
        },
        {
          "name": "D7",
          "midi": 98,
          "time": 60.00299999999992,
          "velocity": 0.7874015748031497,
          "duration": 0.35178750000000036
        },
        {
          "name": "F#7",
          "midi": 102,
          "time": 60.00299999999992,
          "velocity": 0.7874015748031497,
          "duration": 0.35178750000000036
        },
        {
          "name": "D#6",
          "midi": 87,
          "time": 60.35626249999992,
          "velocity": 0.7874015748031497,
          "duration": 0.044249999999998124
        },
        {
          "name": "F#6",
          "midi": 90,
          "time": 60.35626249999992,
          "velocity": 0.7874015748031497,
          "duration": 0.044249999999998124
        },
        {
          "name": "D#7",
          "midi": 99,
          "time": 60.35626249999992,
          "velocity": 0.7874015748031497,
          "duration": 0.044249999999998124
        },
        {
          "name": "F#7",
          "midi": 102,
          "time": 60.35626249999992,
          "velocity": 0.7874015748031497,
          "duration": 0.044249999999998124
        },
        {
          "name": "D4",
          "midi": 62,
          "time": 60.53399999999992,
          "velocity": 0.7874015748031497,
          "duration": 0.04351249999999851
        },
        {
          "name": "F#4",
          "midi": 66,
          "time": 60.53399999999992,
          "velocity": 0.7874015748031497,
          "duration": 0.04351249999999851
        },
        {
          "name": "D#5",
          "midi": 75,
          "time": 60.53399999999992,
          "velocity": 0.7874015748031497,
          "duration": 0.04351249999999851
        },
        {
          "name": "F#5",
          "midi": 78,
          "time": 60.53399999999992,
          "velocity": 0.7874015748031497,
          "duration": 0.04351249999999851
        },
        {
          "name": "E6",
          "midi": 88,
          "time": 60.53399999999992,
          "velocity": 0.7874015748031497,
          "duration": 0.35178750000000036
        },
        {
          "name": "F6",
          "midi": 89,
          "time": 60.53399999999992,
          "velocity": 0.7874015748031497,
          "duration": 0.35178750000000036
        },
        {
          "name": "E7",
          "midi": 100,
          "time": 60.53399999999992,
          "velocity": 0.7874015748031497,
          "duration": 0.35178750000000036
        },
        {
          "name": "F#7",
          "midi": 102,
          "time": 60.53399999999992,
          "velocity": 0.7874015748031497,
          "duration": 0.35178750000000036
        },
        {
          "name": "C#4",
          "midi": 61,
          "time": 60.88799999999992,
          "velocity": 0.7874015748031497,
          "duration": 0.04351249999999851
        },
        {
          "name": "F#4",
          "midi": 66,
          "time": 60.88799999999992,
          "velocity": 0.7874015748031497,
          "duration": 0.04351249999999851
        },
        {
          "name": "C#5",
          "midi": 73,
          "time": 60.88799999999992,
          "velocity": 0.7874015748031497,
          "duration": 0.04351249999999851
        },
        {
          "name": "F#5",
          "midi": 78,
          "time": 60.88799999999992,
          "velocity": 0.7874015748031497,
          "duration": 0.04351249999999851
        },
        {
          "name": "C#6",
          "midi": 85,
          "time": 60.88799999999992,
          "velocity": 0.7874015748031497,
          "duration": 0.04351249999999851
        },
        {
          "name": "F#6",
          "midi": 90,
          "time": 60.88799999999992,
          "velocity": 0.7874015748031497,
          "duration": 0.04351249999999851
        },
        {
          "name": "C#7",
          "midi": 97,
          "time": 60.88799999999992,
          "velocity": 0.7874015748031497,
          "duration": 0.04351249999999851
        },
        {
          "name": "F#7",
          "midi": 102,
          "time": 60.88799999999992,
          "velocity": 0.7874015748031497,
          "duration": 0.04351249999999851
        },
        {
          "name": "D#6",
          "midi": 87,
          "time": 61.06426249999992,
          "velocity": 0.7874015748031497,
          "duration": 0.044249999999998124
        },
        {
          "name": "F6",
          "midi": 89,
          "time": 61.06426249999992,
          "velocity": 0.7874015748031497,
          "duration": 0.044249999999998124
        },
        {
          "name": "D#7",
          "midi": 99,
          "time": 61.06426249999992,
          "velocity": 0.7874015748031497,
          "duration": 0.044249999999998124
        },
        {
          "name": "F#7",
          "midi": 102,
          "time": 61.06426249999992,
          "velocity": 0.7874015748031497,
          "duration": 0.044249999999998124
        },
        {
          "name": "D4",
          "midi": 62,
          "time": 61.24199999999992,
          "velocity": 0.7874015748031497,
          "duration": 0.04351249999999851
        },
        {
          "name": "F#4",
          "midi": 66,
          "time": 61.24199999999992,
          "velocity": 0.7874015748031497,
          "duration": 0.04351249999999851
        },
        {
          "name": "D#5",
          "midi": 75,
          "time": 61.24199999999992,
          "velocity": 0.7874015748031497,
          "duration": 0.04351249999999851
        },
        {
          "name": "F#5",
          "midi": 78,
          "time": 61.24199999999992,
          "velocity": 0.7874015748031497,
          "duration": 0.04351249999999851
        },
        {
          "name": "E6",
          "midi": 88,
          "time": 61.24199999999992,
          "velocity": 0.7874015748031497,
          "duration": 0.04351249999999851
        },
        {
          "name": "F6",
          "midi": 89,
          "time": 61.24199999999992,
          "velocity": 0.7874015748031497,
          "duration": 0.04351249999999851
        },
        {
          "name": "E7",
          "midi": 100,
          "time": 61.24199999999992,
          "velocity": 0.7874015748031497,
          "duration": 0.04351249999999851
        },
        {
          "name": "F#7",
          "midi": 102,
          "time": 61.24199999999992,
          "velocity": 0.7874015748031497,
          "duration": 0.04351249999999851
        },
        {
          "name": "C#4",
          "midi": 61,
          "time": 61.41826249999992,
          "velocity": 0.7874015748031497,
          "duration": 0.044249999999998124
        },
        {
          "name": "F4",
          "midi": 65,
          "time": 61.41826249999992,
          "velocity": 0.7874015748031497,
          "duration": 0.044249999999998124
        },
        {
          "name": "D5",
          "midi": 74,
          "time": 61.41826249999992,
          "velocity": 0.7874015748031497,
          "duration": 0.044249999999998124
        },
        {
          "name": "F5",
          "midi": 77,
          "time": 61.41826249999992,
          "velocity": 0.7874015748031497,
          "duration": 0.044249999999998124
        },
        {
          "name": "D6",
          "midi": 86,
          "time": 61.41826249999992,
          "velocity": 0.7874015748031497,
          "duration": 0.35178750000000036
        },
        {
          "name": "F#6",
          "midi": 90,
          "time": 61.41826249999992,
          "velocity": 0.7874015748031497,
          "duration": 0.35178750000000036
        },
        {
          "name": "D7",
          "midi": 98,
          "time": 61.41826249999992,
          "velocity": 0.7874015748031497,
          "duration": 0.35178750000000036
        },
        {
          "name": "F#7",
          "midi": 102,
          "time": 61.41826249999992,
          "velocity": 0.7874015748031497,
          "duration": 0.35178750000000036
        },
        {
          "name": "D#6",
          "midi": 87,
          "time": 61.77226249999992,
          "velocity": 0.7874015748031497,
          "duration": 0.044249999999998124
        },
        {
          "name": "F#6",
          "midi": 90,
          "time": 61.77226249999992,
          "velocity": 0.7874015748031497,
          "duration": 0.044249999999998124
        },
        {
          "name": "D#7",
          "midi": 99,
          "time": 61.77226249999992,
          "velocity": 0.7874015748031497,
          "duration": 0.044249999999998124
        },
        {
          "name": "F#7",
          "midi": 102,
          "time": 61.77226249999992,
          "velocity": 0.7874015748031497,
          "duration": 0.044249999999998124
        },
        {
          "name": "C#4",
          "midi": 61,
          "time": 61.94999999999992,
          "velocity": 0.7874015748031497,
          "duration": 0.04351249999999851
        },
        {
          "name": "F#4",
          "midi": 66,
          "time": 61.94999999999992,
          "velocity": 0.7874015748031497,
          "duration": 0.04351249999999851
        },
        {
          "name": "C#5",
          "midi": 73,
          "time": 61.94999999999992,
          "velocity": 0.7874015748031497,
          "duration": 0.04351249999999851
        },
        {
          "name": "F#5",
          "midi": 78,
          "time": 61.94999999999992,
          "velocity": 0.7874015748031497,
          "duration": 0.04351249999999851
        },
        {
          "name": "C#6",
          "midi": 85,
          "time": 61.94999999999992,
          "velocity": 0.7874015748031497,
          "duration": 0.35178750000000036
        },
        {
          "name": "F6",
          "midi": 89,
          "time": 61.94999999999992,
          "velocity": 0.7874015748031497,
          "duration": 0.35178750000000036
        },
        {
          "name": "C#7",
          "midi": 97,
          "time": 61.94999999999992,
          "velocity": 0.7874015748031497,
          "duration": 0.35178750000000036
        },
        {
          "name": "F#7",
          "midi": 102,
          "time": 61.94999999999992,
          "velocity": 0.7874015748031497,
          "duration": 0.35178750000000036
        },
        {
          "name": "C4",
          "midi": 60,
          "time": 62.30399999999992,
          "velocity": 0.7874015748031497,
          "duration": 0.04351249999999851
        },
        {
          "name": "F#4",
          "midi": 66,
          "time": 62.30399999999992,
          "velocity": 0.7874015748031497,
          "duration": 0.04351249999999851
        },
        {
          "name": "C5",
          "midi": 72,
          "time": 62.30399999999992,
          "velocity": 0.7874015748031497,
          "duration": 0.04351249999999851
        },
        {
          "name": "F#5",
          "midi": 78,
          "time": 62.30399999999992,
          "velocity": 0.7874015748031497,
          "duration": 0.04351249999999851
        },
        {
          "name": "C6",
          "midi": 84,
          "time": 62.30399999999992,
          "velocity": 0.7874015748031497,
          "duration": 0.04351249999999851
        },
        {
          "name": "F#6",
          "midi": 90,
          "time": 62.30399999999992,
          "velocity": 0.7874015748031497,
          "duration": 0.04351249999999851
        },
        {
          "name": "C7",
          "midi": 96,
          "time": 62.30399999999992,
          "velocity": 0.7874015748031497,
          "duration": 0.04351249999999851
        },
        {
          "name": "F#7",
          "midi": 102,
          "time": 62.30399999999992,
          "velocity": 0.7874015748031497,
          "duration": 0.04351249999999851
        },
        {
          "name": "D#6",
          "midi": 87,
          "time": 62.48026249999992,
          "velocity": 0.7874015748031497,
          "duration": 0.044249999999998124
        },
        {
          "name": "F6",
          "midi": 89,
          "time": 62.48026249999992,
          "velocity": 0.7874015748031497,
          "duration": 0.044249999999998124
        },
        {
          "name": "D#7",
          "midi": 99,
          "time": 62.48026249999992,
          "velocity": 0.7874015748031497,
          "duration": 0.044249999999998124
        },
        {
          "name": "F#7",
          "midi": 102,
          "time": 62.48026249999992,
          "velocity": 0.7874015748031497,
          "duration": 0.044249999999998124
        },
        {
          "name": "D4",
          "midi": 62,
          "time": 62.657999999999916,
          "velocity": 0.7874015748031497,
          "duration": 0.044249999999998124
        },
        {
          "name": "F#4",
          "midi": 66,
          "time": 62.657999999999916,
          "velocity": 0.7874015748031497,
          "duration": 0.044249999999998124
        },
        {
          "name": "D#5",
          "midi": 75,
          "time": 62.657999999999916,
          "velocity": 0.7874015748031497,
          "duration": 0.044249999999998124
        },
        {
          "name": "F#5",
          "midi": 78,
          "time": 62.657999999999916,
          "velocity": 0.7874015748031497,
          "duration": 0.044249999999998124
        },
        {
          "name": "E6",
          "midi": 88,
          "time": 62.657999999999916,
          "velocity": 0.7874015748031497,
          "duration": 0.044249999999998124
        },
        {
          "name": "F6",
          "midi": 89,
          "time": 62.657999999999916,
          "velocity": 0.7874015748031497,
          "duration": 0.044249999999998124
        },
        {
          "name": "E7",
          "midi": 100,
          "time": 62.657999999999916,
          "velocity": 0.7874015748031497,
          "duration": 0.044249999999998124
        },
        {
          "name": "F#7",
          "midi": 102,
          "time": 62.657999999999916,
          "velocity": 0.7874015748031497,
          "duration": 0.044249999999998124
        },
        {
          "name": "C#4",
          "midi": 61,
          "time": 62.834999999999916,
          "velocity": 0.7874015748031497,
          "duration": 0.044249999999998124
        },
        {
          "name": "F4",
          "midi": 65,
          "time": 62.834999999999916,
          "velocity": 0.7874015748031497,
          "duration": 0.044249999999998124
        },
        {
          "name": "C#5",
          "midi": 73,
          "time": 62.834999999999916,
          "velocity": 0.7874015748031497,
          "duration": 0.044249999999998124
        },
        {
          "name": "F5",
          "midi": 77,
          "time": 62.834999999999916,
          "velocity": 0.7874015748031497,
          "duration": 0.044249999999998124
        },
        {
          "name": "C#6",
          "midi": 85,
          "time": 62.834999999999916,
          "velocity": 0.7874015748031497,
          "duration": 0.352525
        },
        {
          "name": "F#6",
          "midi": 90,
          "time": 62.834999999999916,
          "velocity": 0.7874015748031497,
          "duration": 0.352525
        },
        {
          "name": "C#7",
          "midi": 97,
          "time": 62.834999999999916,
          "velocity": 0.7874015748031497,
          "duration": 0.352525
        },
        {
          "name": "F#7",
          "midi": 102,
          "time": 62.834999999999916,
          "velocity": 0.7874015748031497,
          "duration": 0.352525
        },
        {
          "name": "D#6",
          "midi": 87,
          "time": 63.189737499999914,
          "velocity": 0.7874015748031497,
          "duration": 0.04351249999999851
        },
        {
          "name": "F#6",
          "midi": 90,
          "time": 63.189737499999914,
          "velocity": 0.7874015748031497,
          "duration": 0.04351249999999851
        },
        {
          "name": "D#7",
          "midi": 99,
          "time": 63.189737499999914,
          "velocity": 0.7874015748031497,
          "duration": 0.04351249999999851
        },
        {
          "name": "F#7",
          "midi": 102,
          "time": 63.189737499999914,
          "velocity": 0.7874015748031497,
          "duration": 0.04351249999999851
        },
        {
          "name": "D4",
          "midi": 62,
          "time": 63.365999999999914,
          "velocity": 0.7874015748031497,
          "duration": 0.04351249999999851
        },
        {
          "name": "F#4",
          "midi": 66,
          "time": 63.365999999999914,
          "velocity": 0.7874015748031497,
          "duration": 0.04351249999999851
        },
        {
          "name": "D#5",
          "midi": 75,
          "time": 63.365999999999914,
          "velocity": 0.7874015748031497,
          "duration": 0.04351249999999851
        },
        {
          "name": "F#5",
          "midi": 78,
          "time": 63.365999999999914,
          "velocity": 0.7874015748031497,
          "duration": 0.04351249999999851
        },
        {
          "name": "E6",
          "midi": 88,
          "time": 63.365999999999914,
          "velocity": 0.7874015748031497,
          "duration": 0.04351249999999851
        },
        {
          "name": "F6",
          "midi": 89,
          "time": 63.365999999999914,
          "velocity": 0.7874015748031497,
          "duration": 0.04351249999999851
        },
        {
          "name": "E7",
          "midi": 100,
          "time": 63.365999999999914,
          "velocity": 0.7874015748031497,
          "duration": 0.04351249999999851
        },
        {
          "name": "F#7",
          "midi": 102,
          "time": 63.365999999999914,
          "velocity": 0.7874015748031497,
          "duration": 0.04351249999999851
        },
        {
          "name": "D#7",
          "midi": 99,
          "time": 63.542262499999914,
          "velocity": 0.7874015748031497,
          "duration": 0.04351249999999851
        },
        {
          "name": "F#7",
          "midi": 102,
          "time": 63.542262499999914,
          "velocity": 0.7874015748031497,
          "duration": 0.04351249999999851
        },
        {
          "name": "C#4",
          "midi": 61,
          "time": 63.719999999999914,
          "velocity": 0.7874015748031497,
          "duration": 0.04351249999999851
        },
        {
          "name": "F#4",
          "midi": 66,
          "time": 63.719999999999914,
          "velocity": 0.7874015748031497,
          "duration": 0.04351249999999851
        },
        {
          "name": "D5",
          "midi": 74,
          "time": 63.719999999999914,
          "velocity": 0.7874015748031497,
          "duration": 0.04351249999999851
        },
        {
          "name": "F#5",
          "midi": 78,
          "time": 63.719999999999914,
          "velocity": 0.7874015748031497,
          "duration": 0.04351249999999851
        },
        {
          "name": "D6",
          "midi": 86,
          "time": 63.719999999999914,
          "velocity": 0.7874015748031497,
          "duration": 0.04351249999999851
        },
        {
          "name": "F#6",
          "midi": 90,
          "time": 63.719999999999914,
          "velocity": 0.7874015748031497,
          "duration": 0.04351249999999851
        },
        {
          "name": "D7",
          "midi": 98,
          "time": 63.719999999999914,
          "velocity": 0.7874015748031497,
          "duration": 0.04351249999999851
        },
        {
          "name": "F#7",
          "midi": 102,
          "time": 63.719999999999914,
          "velocity": 0.7874015748031497,
          "duration": 0.04351249999999851
        },
        {
          "name": "D#6",
          "midi": 87,
          "time": 63.896262499999914,
          "velocity": 0.7874015748031497,
          "duration": 0.044249999999998124
        },
        {
          "name": "F6",
          "midi": 89,
          "time": 63.896262499999914,
          "velocity": 0.7874015748031497,
          "duration": 0.044249999999998124
        },
        {
          "name": "D#7",
          "midi": 99,
          "time": 63.896262499999914,
          "velocity": 0.7874015748031497,
          "duration": 0.044249999999998124
        },
        {
          "name": "F#7",
          "midi": 102,
          "time": 63.896262499999914,
          "velocity": 0.7874015748031497,
          "duration": 0.044249999999998124
        },
        {
          "name": "D4",
          "midi": 62,
          "time": 64.07399999999991,
          "velocity": 0.7874015748031497,
          "duration": 0.043512500000005616
        },
        {
          "name": "F#4",
          "midi": 66,
          "time": 64.07399999999991,
          "velocity": 0.7874015748031497,
          "duration": 0.043512500000005616
        },
        {
          "name": "D#5",
          "midi": 75,
          "time": 64.07399999999991,
          "velocity": 0.7874015748031497,
          "duration": 0.043512500000005616
        },
        {
          "name": "F#5",
          "midi": 78,
          "time": 64.07399999999991,
          "velocity": 0.7874015748031497,
          "duration": 0.043512500000005616
        },
        {
          "name": "E6",
          "midi": 88,
          "time": 64.07399999999991,
          "velocity": 0.7874015748031497,
          "duration": 0.043512500000005616
        },
        {
          "name": "F6",
          "midi": 89,
          "time": 64.07399999999991,
          "velocity": 0.7874015748031497,
          "duration": 0.043512500000005616
        },
        {
          "name": "E7",
          "midi": 100,
          "time": 64.07399999999991,
          "velocity": 0.7874015748031497,
          "duration": 0.043512500000005616
        },
        {
          "name": "F#7",
          "midi": 102,
          "time": 64.07399999999991,
          "velocity": 0.7874015748031497,
          "duration": 0.043512500000005616
        },
        {
          "name": "C#4",
          "midi": 61,
          "time": 64.25026249999992,
          "velocity": 0.7874015748031497,
          "duration": 0.04425000000000523
        },
        {
          "name": "F4",
          "midi": 65,
          "time": 64.25026249999992,
          "velocity": 0.7874015748031497,
          "duration": 0.04425000000000523
        },
        {
          "name": "C#5",
          "midi": 73,
          "time": 64.25026249999992,
          "velocity": 0.7874015748031497,
          "duration": 0.04425000000000523
        },
        {
          "name": "F5",
          "midi": 77,
          "time": 64.25026249999992,
          "velocity": 0.7874015748031497,
          "duration": 0.04425000000000523
        },
        {
          "name": "C#6",
          "midi": 85,
          "time": 64.25026249999992,
          "velocity": 0.7874015748031497,
          "duration": 0.352525
        },
        {
          "name": "F#6",
          "midi": 90,
          "time": 64.25026249999992,
          "velocity": 0.7874015748031497,
          "duration": 0.352525
        },
        {
          "name": "C#7",
          "midi": 97,
          "time": 64.25026249999992,
          "velocity": 0.7874015748031497,
          "duration": 0.352525
        },
        {
          "name": "F#7",
          "midi": 102,
          "time": 64.25026249999992,
          "velocity": 0.7874015748031497,
          "duration": 0.352525
        },
        {
          "name": "D#6",
          "midi": 87,
          "time": 64.60499999999992,
          "velocity": 0.7874015748031497,
          "duration": 0.043512500000005616
        },
        {
          "name": "F#6",
          "midi": 90,
          "time": 64.60499999999992,
          "velocity": 0.7874015748031497,
          "duration": 0.043512500000005616
        },
        {
          "name": "D#7",
          "midi": 99,
          "time": 64.60499999999992,
          "velocity": 0.7874015748031497,
          "duration": 0.043512500000005616
        },
        {
          "name": "F#7",
          "midi": 102,
          "time": 64.60499999999992,
          "velocity": 0.7874015748031497,
          "duration": 0.043512500000005616
        },
        {
          "name": "D4",
          "midi": 62,
          "time": 64.78199999999993,
          "velocity": 0.7874015748031497,
          "duration": 0.043512500000005616
        },
        {
          "name": "F#4",
          "midi": 66,
          "time": 64.78199999999993,
          "velocity": 0.7874015748031497,
          "duration": 0.043512500000005616
        },
        {
          "name": "D#5",
          "midi": 75,
          "time": 64.78199999999993,
          "velocity": 0.7874015748031497,
          "duration": 0.043512500000005616
        },
        {
          "name": "F#5",
          "midi": 78,
          "time": 64.78199999999993,
          "velocity": 0.7874015748031497,
          "duration": 0.043512500000005616
        },
        {
          "name": "E6",
          "midi": 88,
          "time": 64.78199999999993,
          "velocity": 0.7874015748031497,
          "duration": 0.35178750000000036
        },
        {
          "name": "F6",
          "midi": 89,
          "time": 64.78199999999993,
          "velocity": 0.7874015748031497,
          "duration": 0.35178750000000036
        },
        {
          "name": "E7",
          "midi": 100,
          "time": 64.78199999999993,
          "velocity": 0.7874015748031497,
          "duration": 0.35178750000000036
        },
        {
          "name": "F#7",
          "midi": 102,
          "time": 64.78199999999993,
          "velocity": 0.7874015748031497,
          "duration": 0.35178750000000036
        },
        {
          "name": "C4",
          "midi": 60,
          "time": 65.13599999999992,
          "velocity": 0.7874015748031497,
          "duration": 0.04425000000000523
        },
        {
          "name": "F#4",
          "midi": 66,
          "time": 65.13599999999992,
          "velocity": 0.7874015748031497,
          "duration": 0.04425000000000523
        },
        {
          "name": "C5",
          "midi": 72,
          "time": 65.13599999999992,
          "velocity": 0.7874015748031497,
          "duration": 0.04425000000000523
        },
        {
          "name": "F#5",
          "midi": 78,
          "time": 65.13599999999992,
          "velocity": 0.7874015748031497,
          "duration": 0.04425000000000523
        },
        {
          "name": "C6",
          "midi": 84,
          "time": 65.13599999999992,
          "velocity": 0.7874015748031497,
          "duration": 0.04425000000000523
        },
        {
          "name": "F#6",
          "midi": 90,
          "time": 65.13599999999992,
          "velocity": 0.7874015748031497,
          "duration": 0.04425000000000523
        },
        {
          "name": "C7",
          "midi": 96,
          "time": 65.13599999999992,
          "velocity": 0.7874015748031497,
          "duration": 0.04425000000000523
        },
        {
          "name": "F#7",
          "midi": 102,
          "time": 65.13599999999992,
          "velocity": 0.7874015748031497,
          "duration": 0.04425000000000523
        },
        {
          "name": "D#6",
          "midi": 87,
          "time": 65.31226249999993,
          "velocity": 0.7874015748031497,
          "duration": 0.04425000000000523
        },
        {
          "name": "F6",
          "midi": 89,
          "time": 65.31226249999993,
          "velocity": 0.7874015748031497,
          "duration": 0.04425000000000523
        },
        {
          "name": "D#7",
          "midi": 99,
          "time": 65.31226249999993,
          "velocity": 0.7874015748031497,
          "duration": 0.04425000000000523
        },
        {
          "name": "F#7",
          "midi": 102,
          "time": 65.31226249999993,
          "velocity": 0.7874015748031497,
          "duration": 0.04425000000000523
        },
        {
          "name": "D4",
          "midi": 62,
          "time": 65.48999999999994,
          "velocity": 0.7874015748031497,
          "duration": 0.04425000000000523
        },
        {
          "name": "F#4",
          "midi": 66,
          "time": 65.48999999999994,
          "velocity": 0.7874015748031497,
          "duration": 0.04425000000000523
        },
        {
          "name": "D#5",
          "midi": 75,
          "time": 65.48999999999994,
          "velocity": 0.7874015748031497,
          "duration": 0.04425000000000523
        },
        {
          "name": "F#5",
          "midi": 78,
          "time": 65.48999999999994,
          "velocity": 0.7874015748031497,
          "duration": 0.04425000000000523
        },
        {
          "name": "E6",
          "midi": 88,
          "time": 65.48999999999994,
          "velocity": 0.7874015748031497,
          "duration": 0.04425000000000523
        },
        {
          "name": "F6",
          "midi": 89,
          "time": 65.48999999999994,
          "velocity": 0.7874015748031497,
          "duration": 0.04425000000000523
        },
        {
          "name": "E7",
          "midi": 100,
          "time": 65.48999999999994,
          "velocity": 0.7874015748031497,
          "duration": 0.04425000000000523
        },
        {
          "name": "F#7",
          "midi": 102,
          "time": 65.48999999999994,
          "velocity": 0.7874015748031497,
          "duration": 0.04425000000000523
        },
        {
          "name": "C#4",
          "midi": 61,
          "time": 65.66626249999995,
          "velocity": 0.7874015748031497,
          "duration": 0.04425000000000523
        },
        {
          "name": "F4",
          "midi": 65,
          "time": 65.66626249999995,
          "velocity": 0.7874015748031497,
          "duration": 0.04425000000000523
        },
        {
          "name": "D5",
          "midi": 74,
          "time": 65.66626249999995,
          "velocity": 0.7874015748031497,
          "duration": 0.04425000000000523
        },
        {
          "name": "F5",
          "midi": 77,
          "time": 65.66626249999995,
          "velocity": 0.7874015748031497,
          "duration": 0.04425000000000523
        },
        {
          "name": "D6",
          "midi": 86,
          "time": 65.66626249999995,
          "velocity": 0.7874015748031497,
          "duration": 0.352525
        },
        {
          "name": "F#6",
          "midi": 90,
          "time": 65.66626249999995,
          "velocity": 0.7874015748031497,
          "duration": 0.352525
        },
        {
          "name": "D7",
          "midi": 98,
          "time": 65.66626249999995,
          "velocity": 0.7874015748031497,
          "duration": 0.352525
        },
        {
          "name": "F#7",
          "midi": 102,
          "time": 65.66626249999995,
          "velocity": 0.7874015748031497,
          "duration": 0.352525
        },
        {
          "name": "D#6",
          "midi": 87,
          "time": 66.02026249999994,
          "velocity": 0.7874015748031497,
          "duration": 0.043512500000005616
        },
        {
          "name": "F#6",
          "midi": 90,
          "time": 66.02026249999994,
          "velocity": 0.7874015748031497,
          "duration": 0.043512500000005616
        },
        {
          "name": "D#7",
          "midi": 99,
          "time": 66.02026249999994,
          "velocity": 0.7874015748031497,
          "duration": 0.043512500000005616
        },
        {
          "name": "F#7",
          "midi": 102,
          "time": 66.02026249999994,
          "velocity": 0.7874015748031497,
          "duration": 0.043512500000005616
        },
        {
          "name": "D4",
          "midi": 62,
          "time": 66.19799999999995,
          "velocity": 0.7874015748031497,
          "duration": 0.043512500000005616
        },
        {
          "name": "F#4",
          "midi": 66,
          "time": 66.19799999999995,
          "velocity": 0.7874015748031497,
          "duration": 0.043512500000005616
        },
        {
          "name": "D#5",
          "midi": 75,
          "time": 66.19799999999995,
          "velocity": 0.7874015748031497,
          "duration": 0.043512500000005616
        },
        {
          "name": "F#5",
          "midi": 78,
          "time": 66.19799999999995,
          "velocity": 0.7874015748031497,
          "duration": 0.043512500000005616
        },
        {
          "name": "E6",
          "midi": 88,
          "time": 66.19799999999995,
          "velocity": 0.7874015748031497,
          "duration": 0.35178750000000036
        },
        {
          "name": "F6",
          "midi": 89,
          "time": 66.19799999999995,
          "velocity": 0.7874015748031497,
          "duration": 0.35178750000000036
        },
        {
          "name": "E7",
          "midi": 100,
          "time": 66.19799999999995,
          "velocity": 0.7874015748031497,
          "duration": 0.35178750000000036
        },
        {
          "name": "F#7",
          "midi": 102,
          "time": 66.19799999999995,
          "velocity": 0.7874015748031497,
          "duration": 0.35178750000000036
        },
        {
          "name": "C#4",
          "midi": 61,
          "time": 66.55199999999995,
          "velocity": 0.7874015748031497,
          "duration": 0.043512500000005616
        },
        {
          "name": "F#4",
          "midi": 66,
          "time": 66.55199999999995,
          "velocity": 0.7874015748031497,
          "duration": 0.043512500000005616
        },
        {
          "name": "C#5",
          "midi": 73,
          "time": 66.55199999999995,
          "velocity": 0.7874015748031497,
          "duration": 0.043512500000005616
        },
        {
          "name": "F#5",
          "midi": 78,
          "time": 66.55199999999995,
          "velocity": 0.7874015748031497,
          "duration": 0.043512500000005616
        },
        {
          "name": "C#6",
          "midi": 85,
          "time": 66.55199999999995,
          "velocity": 0.7874015748031497,
          "duration": 0.043512500000005616
        },
        {
          "name": "F#6",
          "midi": 90,
          "time": 66.55199999999995,
          "velocity": 0.7874015748031497,
          "duration": 0.043512500000005616
        },
        {
          "name": "C#7",
          "midi": 97,
          "time": 66.55199999999995,
          "velocity": 0.7874015748031497,
          "duration": 0.043512500000005616
        },
        {
          "name": "F#7",
          "midi": 102,
          "time": 66.55199999999995,
          "velocity": 0.7874015748031497,
          "duration": 0.043512500000005616
        },
        {
          "name": "D#6",
          "midi": 87,
          "time": 66.72899999999996,
          "velocity": 0.7874015748031497,
          "duration": 0.043512500000005616
        },
        {
          "name": "F6",
          "midi": 89,
          "time": 66.72899999999996,
          "velocity": 0.7874015748031497,
          "duration": 0.043512500000005616
        },
        {
          "name": "D#7",
          "midi": 99,
          "time": 66.72899999999996,
          "velocity": 0.7874015748031497,
          "duration": 0.043512500000005616
        },
        {
          "name": "F#7",
          "midi": 102,
          "time": 66.72899999999996,
          "velocity": 0.7874015748031497,
          "duration": 0.043512500000005616
        },
        {
          "name": "D4",
          "midi": 62,
          "time": 66.90599999999996,
          "velocity": 0.7874015748031497,
          "duration": 0.043512500000005616
        },
        {
          "name": "F#4",
          "midi": 66,
          "time": 66.90599999999996,
          "velocity": 0.7874015748031497,
          "duration": 0.043512500000005616
        },
        {
          "name": "D#5",
          "midi": 75,
          "time": 66.90599999999996,
          "velocity": 0.7874015748031497,
          "duration": 0.043512500000005616
        },
        {
          "name": "F#5",
          "midi": 78,
          "time": 66.90599999999996,
          "velocity": 0.7874015748031497,
          "duration": 0.043512500000005616
        },
        {
          "name": "E6",
          "midi": 88,
          "time": 66.90599999999996,
          "velocity": 0.7874015748031497,
          "duration": 0.043512500000005616
        },
        {
          "name": "F6",
          "midi": 89,
          "time": 66.90599999999996,
          "velocity": 0.7874015748031497,
          "duration": 0.043512500000005616
        },
        {
          "name": "E7",
          "midi": 100,
          "time": 66.90599999999996,
          "velocity": 0.7874015748031497,
          "duration": 0.043512500000005616
        },
        {
          "name": "F#7",
          "midi": 102,
          "time": 66.90599999999996,
          "velocity": 0.7874015748031497,
          "duration": 0.043512500000005616
        },
        {
          "name": "C#4",
          "midi": 61,
          "time": 67.08373749999997,
          "velocity": 0.7874015748031497,
          "duration": 0.042775000000006
        },
        {
          "name": "F4",
          "midi": 65,
          "time": 67.08373749999997,
          "velocity": 0.7874015748031497,
          "duration": 0.042775000000006
        },
        {
          "name": "D5",
          "midi": 74,
          "time": 67.08373749999997,
          "velocity": 0.7874015748031497,
          "duration": 0.042775000000006
        },
        {
          "name": "F5",
          "midi": 77,
          "time": 67.08373749999997,
          "velocity": 0.7874015748031497,
          "duration": 0.042775000000006
        },
        {
          "name": "D6",
          "midi": 86,
          "time": 67.08373749999997,
          "velocity": 0.7874015748031497,
          "duration": 0.35105000000000075
        },
        {
          "name": "F#6",
          "midi": 90,
          "time": 67.08373749999997,
          "velocity": 0.7874015748031497,
          "duration": 0.35105000000000075
        },
        {
          "name": "D7",
          "midi": 98,
          "time": 67.08373749999997,
          "velocity": 0.7874015748031497,
          "duration": 0.35105000000000075
        },
        {
          "name": "F#7",
          "midi": 102,
          "time": 67.08373749999997,
          "velocity": 0.7874015748031497,
          "duration": 0.35105000000000075
        },
        {
          "name": "D#6",
          "midi": 87,
          "time": 67.43699999999997,
          "velocity": 0.7874015748031497,
          "duration": 0.04425000000000523
        },
        {
          "name": "F#6",
          "midi": 90,
          "time": 67.43699999999997,
          "velocity": 0.7874015748031497,
          "duration": 0.04425000000000523
        },
        {
          "name": "D#7",
          "midi": 99,
          "time": 67.43699999999997,
          "velocity": 0.7874015748031497,
          "duration": 0.04425000000000523
        },
        {
          "name": "F#7",
          "midi": 102,
          "time": 67.43699999999997,
          "velocity": 0.7874015748031497,
          "duration": 0.04425000000000523
        },
        {
          "name": "C#4",
          "midi": 61,
          "time": 67.61399999999998,
          "velocity": 0.7874015748031497,
          "duration": 0.04425000000000523
        },
        {
          "name": "F#4",
          "midi": 66,
          "time": 67.61399999999998,
          "velocity": 0.7874015748031497,
          "duration": 0.04425000000000523
        },
        {
          "name": "C#5",
          "midi": 73,
          "time": 67.61399999999998,
          "velocity": 0.7874015748031497,
          "duration": 0.04425000000000523
        },
        {
          "name": "F#5",
          "midi": 78,
          "time": 67.61399999999998,
          "velocity": 0.7874015748031497,
          "duration": 0.04425000000000523
        },
        {
          "name": "C#6",
          "midi": 85,
          "time": 67.61399999999998,
          "velocity": 0.7874015748031497,
          "duration": 0.35178750000000036
        },
        {
          "name": "F6",
          "midi": 89,
          "time": 67.61399999999998,
          "velocity": 0.7874015748031497,
          "duration": 0.35178750000000036
        },
        {
          "name": "C#7",
          "midi": 97,
          "time": 67.61399999999998,
          "velocity": 0.7874015748031497,
          "duration": 0.35178750000000036
        },
        {
          "name": "F#7",
          "midi": 102,
          "time": 67.61399999999998,
          "velocity": 0.7874015748031497,
          "duration": 0.35178750000000036
        },
        {
          "name": "C4",
          "midi": 60,
          "time": 67.96799999999998,
          "velocity": 0.7874015748031497,
          "duration": 0.04425000000000523
        },
        {
          "name": "F#4",
          "midi": 66,
          "time": 67.96799999999998,
          "velocity": 0.7874015748031497,
          "duration": 0.04425000000000523
        },
        {
          "name": "C5",
          "midi": 72,
          "time": 67.96799999999998,
          "velocity": 0.7874015748031497,
          "duration": 0.04425000000000523
        },
        {
          "name": "F#5",
          "midi": 78,
          "time": 67.96799999999998,
          "velocity": 0.7874015748031497,
          "duration": 0.04425000000000523
        },
        {
          "name": "C6",
          "midi": 84,
          "time": 67.96799999999998,
          "velocity": 0.7874015748031497,
          "duration": 0.04425000000000523
        },
        {
          "name": "F#6",
          "midi": 90,
          "time": 67.96799999999998,
          "velocity": 0.7874015748031497,
          "duration": 0.04425000000000523
        },
        {
          "name": "C7",
          "midi": 96,
          "time": 67.96799999999998,
          "velocity": 0.7874015748031497,
          "duration": 0.04425000000000523
        },
        {
          "name": "F#7",
          "midi": 102,
          "time": 67.96799999999998,
          "velocity": 0.7874015748031497,
          "duration": 0.04425000000000523
        },
        {
          "name": "D#6",
          "midi": 87,
          "time": 68.14573749999998,
          "velocity": 0.7874015748031497,
          "duration": 0.04425000000000523
        },
        {
          "name": "F6",
          "midi": 89,
          "time": 68.14573749999998,
          "velocity": 0.7874015748031497,
          "duration": 0.04425000000000523
        },
        {
          "name": "D#7",
          "midi": 99,
          "time": 68.14573749999998,
          "velocity": 0.7874015748031497,
          "duration": 0.04425000000000523
        },
        {
          "name": "F#7",
          "midi": 102,
          "time": 68.14573749999998,
          "velocity": 0.7874015748031497,
          "duration": 0.04425000000000523
        },
        {
          "name": "D4",
          "midi": 62,
          "time": 68.32199999999999,
          "velocity": 0.7874015748031497,
          "duration": 0.04425000000000523
        },
        {
          "name": "F#4",
          "midi": 66,
          "time": 68.32199999999999,
          "velocity": 0.7874015748031497,
          "duration": 0.04425000000000523
        },
        {
          "name": "D#5",
          "midi": 75,
          "time": 68.32199999999999,
          "velocity": 0.7874015748031497,
          "duration": 0.04425000000000523
        },
        {
          "name": "F#5",
          "midi": 78,
          "time": 68.32199999999999,
          "velocity": 0.7874015748031497,
          "duration": 0.04425000000000523
        },
        {
          "name": "E6",
          "midi": 88,
          "time": 68.32199999999999,
          "velocity": 0.7874015748031497,
          "duration": 0.04425000000000523
        },
        {
          "name": "F6",
          "midi": 89,
          "time": 68.32199999999999,
          "velocity": 0.7874015748031497,
          "duration": 0.04425000000000523
        },
        {
          "name": "E7",
          "midi": 100,
          "time": 68.32199999999999,
          "velocity": 0.7874015748031497,
          "duration": 0.04425000000000523
        },
        {
          "name": "F#7",
          "midi": 102,
          "time": 68.32199999999999,
          "velocity": 0.7874015748031497,
          "duration": 0.04425000000000523
        },
        {
          "name": "C#4",
          "midi": 61,
          "time": 68.4997375,
          "velocity": 0.7874015748031497,
          "duration": 0.04425000000000523
        },
        {
          "name": "F4",
          "midi": 65,
          "time": 68.4997375,
          "velocity": 0.7874015748031497,
          "duration": 0.04425000000000523
        },
        {
          "name": "C#5",
          "midi": 73,
          "time": 68.4997375,
          "velocity": 0.7874015748031497,
          "duration": 0.04425000000000523
        },
        {
          "name": "F5",
          "midi": 77,
          "time": 68.4997375,
          "velocity": 0.7874015748031497,
          "duration": 0.04425000000000523
        },
        {
          "name": "C#6",
          "midi": 85,
          "time": 68.4997375,
          "velocity": 0.7874015748031497,
          "duration": 0.35178750000000036
        },
        {
          "name": "F#6",
          "midi": 90,
          "time": 68.4997375,
          "velocity": 0.7874015748031497,
          "duration": 0.35178750000000036
        },
        {
          "name": "C#7",
          "midi": 97,
          "time": 68.4997375,
          "velocity": 0.7874015748031497,
          "duration": 0.35178750000000036
        },
        {
          "name": "F#7",
          "midi": 102,
          "time": 68.4997375,
          "velocity": 0.7874015748031497,
          "duration": 0.35178750000000036
        },
        {
          "name": "D#6",
          "midi": 87,
          "time": 68.8537375,
          "velocity": 0.7874015748031497,
          "duration": 0.04425000000000523
        },
        {
          "name": "F#6",
          "midi": 90,
          "time": 68.8537375,
          "velocity": 0.7874015748031497,
          "duration": 0.04425000000000523
        },
        {
          "name": "D#7",
          "midi": 99,
          "time": 68.8537375,
          "velocity": 0.7874015748031497,
          "duration": 0.04425000000000523
        },
        {
          "name": "F#7",
          "midi": 102,
          "time": 68.8537375,
          "velocity": 0.7874015748031497,
          "duration": 0.04425000000000523
        },
        {
          "name": "D4",
          "midi": 62,
          "time": 69.03,
          "velocity": 0.7874015748031497,
          "duration": 0.04425000000000523
        },
        {
          "name": "F#4",
          "midi": 66,
          "time": 69.03,
          "velocity": 0.7874015748031497,
          "duration": 0.04425000000000523
        },
        {
          "name": "D#5",
          "midi": 75,
          "time": 69.03,
          "velocity": 0.7874015748031497,
          "duration": 0.04425000000000523
        },
        {
          "name": "F#5",
          "midi": 78,
          "time": 69.03,
          "velocity": 0.7874015748031497,
          "duration": 0.04425000000000523
        },
        {
          "name": "E6",
          "midi": 88,
          "time": 69.03,
          "velocity": 0.7874015748031497,
          "duration": 0.35178750000000036
        },
        {
          "name": "F6",
          "midi": 89,
          "time": 69.03,
          "velocity": 0.7874015748031497,
          "duration": 0.35178750000000036
        },
        {
          "name": "E7",
          "midi": 100,
          "time": 69.03,
          "velocity": 0.7874015748031497,
          "duration": 0.35178750000000036
        },
        {
          "name": "F#7",
          "midi": 102,
          "time": 69.03,
          "velocity": 0.7874015748031497,
          "duration": 0.35178750000000036
        },
        {
          "name": "C#4",
          "midi": 61,
          "time": 69.384,
          "velocity": 0.7874015748031497,
          "duration": 0.04425000000000523
        },
        {
          "name": "F#4",
          "midi": 66,
          "time": 69.384,
          "velocity": 0.7874015748031497,
          "duration": 0.04425000000000523
        },
        {
          "name": "D5",
          "midi": 74,
          "time": 69.384,
          "velocity": 0.7874015748031497,
          "duration": 0.04425000000000523
        },
        {
          "name": "F#5",
          "midi": 78,
          "time": 69.384,
          "velocity": 0.7874015748031497,
          "duration": 0.04425000000000523
        },
        {
          "name": "D6",
          "midi": 86,
          "time": 69.384,
          "velocity": 0.7874015748031497,
          "duration": 0.04425000000000523
        },
        {
          "name": "F#6",
          "midi": 90,
          "time": 69.384,
          "velocity": 0.7874015748031497,
          "duration": 0.04425000000000523
        },
        {
          "name": "D7",
          "midi": 98,
          "time": 69.384,
          "velocity": 0.7874015748031497,
          "duration": 0.04425000000000523
        },
        {
          "name": "F#7",
          "midi": 102,
          "time": 69.384,
          "velocity": 0.7874015748031497,
          "duration": 0.04425000000000523
        },
        {
          "name": "D#6",
          "midi": 87,
          "time": 69.5617375,
          "velocity": 0.7874015748031497,
          "duration": 0.04425000000000523
        },
        {
          "name": "F6",
          "midi": 89,
          "time": 69.5617375,
          "velocity": 0.7874015748031497,
          "duration": 0.04425000000000523
        },
        {
          "name": "D#7",
          "midi": 99,
          "time": 69.5617375,
          "velocity": 0.7874015748031497,
          "duration": 0.04425000000000523
        },
        {
          "name": "F#7",
          "midi": 102,
          "time": 69.5617375,
          "velocity": 0.7874015748031497,
          "duration": 0.04425000000000523
        },
        {
          "name": "D4",
          "midi": 62,
          "time": 69.73800000000001,
          "velocity": 0.7874015748031497,
          "duration": 0.04425000000000523
        },
        {
          "name": "F#4",
          "midi": 66,
          "time": 69.73800000000001,
          "velocity": 0.7874015748031497,
          "duration": 0.04425000000000523
        },
        {
          "name": "D#5",
          "midi": 75,
          "time": 69.73800000000001,
          "velocity": 0.7874015748031497,
          "duration": 0.04425000000000523
        },
        {
          "name": "F#5",
          "midi": 78,
          "time": 69.73800000000001,
          "velocity": 0.7874015748031497,
          "duration": 0.04425000000000523
        },
        {
          "name": "E6",
          "midi": 88,
          "time": 69.73800000000001,
          "velocity": 0.7874015748031497,
          "duration": 0.04425000000000523
        },
        {
          "name": "F6",
          "midi": 89,
          "time": 69.73800000000001,
          "velocity": 0.7874015748031497,
          "duration": 0.04425000000000523
        },
        {
          "name": "E7",
          "midi": 100,
          "time": 69.73800000000001,
          "velocity": 0.7874015748031497,
          "duration": 0.04425000000000523
        },
        {
          "name": "F#7",
          "midi": 102,
          "time": 69.73800000000001,
          "velocity": 0.7874015748031497,
          "duration": 0.04425000000000523
        },
        {
          "name": "C#4",
          "midi": 61,
          "time": 69.91500000000002,
          "velocity": 0.7874015748031497,
          "duration": 0.04425000000000523
        },
        {
          "name": "F4",
          "midi": 65,
          "time": 69.91500000000002,
          "velocity": 0.7874015748031497,
          "duration": 0.04425000000000523
        },
        {
          "name": "C#5",
          "midi": 73,
          "time": 69.91500000000002,
          "velocity": 0.7874015748031497,
          "duration": 0.04425000000000523
        },
        {
          "name": "F5",
          "midi": 77,
          "time": 69.91500000000002,
          "velocity": 0.7874015748031497,
          "duration": 0.04425000000000523
        },
        {
          "name": "C#6",
          "midi": 85,
          "time": 69.91500000000002,
          "velocity": 0.7874015748031497,
          "duration": 0.35178750000000036
        },
        {
          "name": "F#6",
          "midi": 90,
          "time": 69.91500000000002,
          "velocity": 0.7874015748031497,
          "duration": 0.35178750000000036
        },
        {
          "name": "C#7",
          "midi": 97,
          "time": 69.91500000000002,
          "velocity": 0.7874015748031497,
          "duration": 0.35178750000000036
        },
        {
          "name": "F#7",
          "midi": 102,
          "time": 69.91500000000002,
          "velocity": 0.7874015748031497,
          "duration": 0.35178750000000036
        },
        {
          "name": "D#6",
          "midi": 87,
          "time": 70.26900000000002,
          "velocity": 0.7874015748031497,
          "duration": 0.043512500000005616
        },
        {
          "name": "F#6",
          "midi": 90,
          "time": 70.26900000000002,
          "velocity": 0.7874015748031497,
          "duration": 0.043512500000005616
        },
        {
          "name": "D#7",
          "midi": 99,
          "time": 70.26900000000002,
          "velocity": 0.7874015748031497,
          "duration": 0.043512500000005616
        },
        {
          "name": "F#7",
          "midi": 102,
          "time": 70.26900000000002,
          "velocity": 0.7874015748031497,
          "duration": 0.043512500000005616
        },
        {
          "name": "D4",
          "midi": 62,
          "time": 70.44600000000003,
          "velocity": 0.7874015748031497,
          "duration": 0.043512500000005616
        },
        {
          "name": "F#4",
          "midi": 66,
          "time": 70.44600000000003,
          "velocity": 0.7874015748031497,
          "duration": 0.043512500000005616
        },
        {
          "name": "D#5",
          "midi": 75,
          "time": 70.44600000000003,
          "velocity": 0.7874015748031497,
          "duration": 0.043512500000005616
        },
        {
          "name": "F#5",
          "midi": 78,
          "time": 70.44600000000003,
          "velocity": 0.7874015748031497,
          "duration": 0.043512500000005616
        },
        {
          "name": "E6",
          "midi": 88,
          "time": 70.44600000000003,
          "velocity": 0.7874015748031497,
          "duration": 0.35178750000000036
        },
        {
          "name": "F6",
          "midi": 89,
          "time": 70.44600000000003,
          "velocity": 0.7874015748031497,
          "duration": 0.35178750000000036
        },
        {
          "name": "E7",
          "midi": 100,
          "time": 70.44600000000003,
          "velocity": 0.7874015748031497,
          "duration": 0.35178750000000036
        },
        {
          "name": "F#7",
          "midi": 102,
          "time": 70.44600000000003,
          "velocity": 0.7874015748031497,
          "duration": 0.35178750000000036
        },
        {
          "name": "C4",
          "midi": 60,
          "time": 70.80000000000003,
          "velocity": 0.7874015748031497,
          "duration": 0.043512500000005616
        },
        {
          "name": "F#4",
          "midi": 66,
          "time": 70.80000000000003,
          "velocity": 0.7874015748031497,
          "duration": 0.043512500000005616
        },
        {
          "name": "C5",
          "midi": 72,
          "time": 70.80000000000003,
          "velocity": 0.7874015748031497,
          "duration": 0.043512500000005616
        },
        {
          "name": "F#5",
          "midi": 78,
          "time": 70.80000000000003,
          "velocity": 0.7874015748031497,
          "duration": 0.043512500000005616
        },
        {
          "name": "C6",
          "midi": 84,
          "time": 70.80000000000003,
          "velocity": 0.7874015748031497,
          "duration": 0.043512500000005616
        },
        {
          "name": "F#6",
          "midi": 90,
          "time": 70.80000000000003,
          "velocity": 0.7874015748031497,
          "duration": 0.043512500000005616
        },
        {
          "name": "C7",
          "midi": 96,
          "time": 70.80000000000003,
          "velocity": 0.7874015748031497,
          "duration": 0.043512500000005616
        },
        {
          "name": "F#7",
          "midi": 102,
          "time": 70.80000000000003,
          "velocity": 0.7874015748031497,
          "duration": 0.043512500000005616
        },
        {
          "name": "D#6",
          "midi": 87,
          "time": 70.97700000000003,
          "velocity": 0.7874015748031497,
          "duration": 0.043512500000005616
        },
        {
          "name": "F6",
          "midi": 89,
          "time": 70.97700000000003,
          "velocity": 0.7874015748031497,
          "duration": 0.043512500000005616
        },
        {
          "name": "D#7",
          "midi": 99,
          "time": 70.97700000000003,
          "velocity": 0.7874015748031497,
          "duration": 0.043512500000005616
        },
        {
          "name": "F#7",
          "midi": 102,
          "time": 70.97700000000003,
          "velocity": 0.7874015748031497,
          "duration": 0.043512500000005616
        },
        {
          "name": "D4",
          "midi": 62,
          "time": 71.15400000000004,
          "velocity": 0.7874015748031497,
          "duration": 0.043512500000005616
        },
        {
          "name": "F#4",
          "midi": 66,
          "time": 71.15400000000004,
          "velocity": 0.7874015748031497,
          "duration": 0.043512500000005616
        },
        {
          "name": "D#5",
          "midi": 75,
          "time": 71.15400000000004,
          "velocity": 0.7874015748031497,
          "duration": 0.043512500000005616
        },
        {
          "name": "F#5",
          "midi": 78,
          "time": 71.15400000000004,
          "velocity": 0.7874015748031497,
          "duration": 0.043512500000005616
        },
        {
          "name": "E6",
          "midi": 88,
          "time": 71.15400000000004,
          "velocity": 0.7874015748031497,
          "duration": 0.043512500000005616
        },
        {
          "name": "F6",
          "midi": 89,
          "time": 71.15400000000004,
          "velocity": 0.7874015748031497,
          "duration": 0.043512500000005616
        },
        {
          "name": "E7",
          "midi": 100,
          "time": 71.15400000000004,
          "velocity": 0.7874015748031497,
          "duration": 0.043512500000005616
        },
        {
          "name": "F#7",
          "midi": 102,
          "time": 71.15400000000004,
          "velocity": 0.7874015748031497,
          "duration": 0.043512500000005616
        },
        {
          "name": "C#4",
          "midi": 61,
          "time": 71.33173750000005,
          "velocity": 0.7874015748031497,
          "duration": 0.043512500000005616
        },
        {
          "name": "F4",
          "midi": 65,
          "time": 71.33173750000005,
          "velocity": 0.7874015748031497,
          "duration": 0.043512500000005616
        },
        {
          "name": "D5",
          "midi": 74,
          "time": 71.33173750000005,
          "velocity": 0.7874015748031497,
          "duration": 0.043512500000005616
        },
        {
          "name": "F5",
          "midi": 77,
          "time": 71.33173750000005,
          "velocity": 0.7874015748031497,
          "duration": 0.043512500000005616
        },
        {
          "name": "D6",
          "midi": 86,
          "time": 71.33173750000005,
          "velocity": 0.7874015748031497,
          "duration": 0.35178750000000036
        },
        {
          "name": "F#6",
          "midi": 90,
          "time": 71.33173750000005,
          "velocity": 0.7874015748031497,
          "duration": 0.35178750000000036
        },
        {
          "name": "D7",
          "midi": 98,
          "time": 71.33173750000005,
          "velocity": 0.7874015748031497,
          "duration": 0.35178750000000036
        },
        {
          "name": "F#7",
          "midi": 102,
          "time": 71.33173750000005,
          "velocity": 0.7874015748031497,
          "duration": 0.35178750000000036
        },
        {
          "name": "D#6",
          "midi": 87,
          "time": 71.68573750000004,
          "velocity": 0.7874015748031497,
          "duration": 0.04425000000000523
        },
        {
          "name": "F#6",
          "midi": 90,
          "time": 71.68573750000004,
          "velocity": 0.7874015748031497,
          "duration": 0.04425000000000523
        },
        {
          "name": "D#7",
          "midi": 99,
          "time": 71.68573750000004,
          "velocity": 0.7874015748031497,
          "duration": 0.04425000000000523
        },
        {
          "name": "F#7",
          "midi": 102,
          "time": 71.68573750000004,
          "velocity": 0.7874015748031497,
          "duration": 0.04425000000000523
        },
        {
          "name": "D4",
          "midi": 62,
          "time": 71.86200000000005,
          "velocity": 0.7874015748031497,
          "duration": 0.04425000000000523
        },
        {
          "name": "F#4",
          "midi": 66,
          "time": 71.86200000000005,
          "velocity": 0.7874015748031497,
          "duration": 0.04425000000000523
        },
        {
          "name": "D#5",
          "midi": 75,
          "time": 71.86200000000005,
          "velocity": 0.7874015748031497,
          "duration": 0.04425000000000523
        },
        {
          "name": "F#5",
          "midi": 78,
          "time": 71.86200000000005,
          "velocity": 0.7874015748031497,
          "duration": 0.04425000000000523
        },
        {
          "name": "E6",
          "midi": 88,
          "time": 71.86200000000005,
          "velocity": 0.7874015748031497,
          "duration": 0.35178750000000036
        },
        {
          "name": "F6",
          "midi": 89,
          "time": 71.86200000000005,
          "velocity": 0.7874015748031497,
          "duration": 0.35178750000000036
        },
        {
          "name": "E7",
          "midi": 100,
          "time": 71.86200000000005,
          "velocity": 0.7874015748031497,
          "duration": 0.35178750000000036
        },
        {
          "name": "F#7",
          "midi": 102,
          "time": 71.86200000000005,
          "velocity": 0.7874015748031497,
          "duration": 0.35178750000000036
        },
        {
          "name": "C#4",
          "midi": 61,
          "time": 72.21600000000005,
          "velocity": 0.7874015748031497,
          "duration": 0.04425000000000523
        },
        {
          "name": "F#4",
          "midi": 66,
          "time": 72.21600000000005,
          "velocity": 0.7874015748031497,
          "duration": 0.04425000000000523
        },
        {
          "name": "C#5",
          "midi": 73,
          "time": 72.21600000000005,
          "velocity": 0.7874015748031497,
          "duration": 0.04425000000000523
        },
        {
          "name": "F#5",
          "midi": 78,
          "time": 72.21600000000005,
          "velocity": 0.7874015748031497,
          "duration": 0.04425000000000523
        },
        {
          "name": "C#6",
          "midi": 85,
          "time": 72.21600000000005,
          "velocity": 0.7874015748031497,
          "duration": 0.04425000000000523
        },
        {
          "name": "F#6",
          "midi": 90,
          "time": 72.21600000000005,
          "velocity": 0.7874015748031497,
          "duration": 0.04425000000000523
        },
        {
          "name": "C#7",
          "midi": 97,
          "time": 72.21600000000005,
          "velocity": 0.7874015748031497,
          "duration": 0.04425000000000523
        },
        {
          "name": "F#7",
          "midi": 102,
          "time": 72.21600000000005,
          "velocity": 0.7874015748031497,
          "duration": 0.04425000000000523
        },
        {
          "name": "D#6",
          "midi": 87,
          "time": 72.39300000000006,
          "velocity": 0.7874015748031497,
          "duration": 0.04425000000000523
        },
        {
          "name": "F6",
          "midi": 89,
          "time": 72.39300000000006,
          "velocity": 0.7874015748031497,
          "duration": 0.04425000000000523
        },
        {
          "name": "D#7",
          "midi": 99,
          "time": 72.39300000000006,
          "velocity": 0.7874015748031497,
          "duration": 0.04425000000000523
        },
        {
          "name": "F#7",
          "midi": 102,
          "time": 72.39300000000006,
          "velocity": 0.7874015748031497,
          "duration": 0.04425000000000523
        },
        {
          "name": "D4",
          "midi": 62,
          "time": 72.57000000000006,
          "velocity": 0.7874015748031497,
          "duration": 0.04425000000000523
        },
        {
          "name": "F#4",
          "midi": 66,
          "time": 72.57000000000006,
          "velocity": 0.7874015748031497,
          "duration": 0.04425000000000523
        },
        {
          "name": "D#5",
          "midi": 75,
          "time": 72.57000000000006,
          "velocity": 0.7874015748031497,
          "duration": 0.04425000000000523
        },
        {
          "name": "F#5",
          "midi": 78,
          "time": 72.57000000000006,
          "velocity": 0.7874015748031497,
          "duration": 0.04425000000000523
        },
        {
          "name": "E6",
          "midi": 88,
          "time": 72.57000000000006,
          "velocity": 0.7874015748031497,
          "duration": 0.04425000000000523
        },
        {
          "name": "F6",
          "midi": 89,
          "time": 72.57000000000006,
          "velocity": 0.7874015748031497,
          "duration": 0.04425000000000523
        },
        {
          "name": "E7",
          "midi": 100,
          "time": 72.57000000000006,
          "velocity": 0.7874015748031497,
          "duration": 0.04425000000000523
        },
        {
          "name": "F#7",
          "midi": 102,
          "time": 72.57000000000006,
          "velocity": 0.7874015748031497,
          "duration": 0.04425000000000523
        },
        {
          "name": "C#4",
          "midi": 61,
          "time": 72.74773750000007,
          "velocity": 0.7874015748031497,
          "duration": 0.5295250000000067
        },
        {
          "name": "F4",
          "midi": 65,
          "time": 72.74773750000007,
          "velocity": 0.7874015748031497,
          "duration": 0.5295250000000067
        },
        {
          "name": "C#5",
          "midi": 73,
          "time": 72.74773750000007,
          "velocity": 0.7874015748031497,
          "duration": 0.5295250000000067
        },
        {
          "name": "F5",
          "midi": 77,
          "time": 72.74773750000007,
          "velocity": 0.7874015748031497,
          "duration": 0.5295250000000067
        },
        {
          "name": "C#6",
          "midi": 85,
          "time": 72.74773750000007,
          "velocity": 0.7874015748031497,
          "duration": 0.5295250000000067
        },
        {
          "name": "F#6",
          "midi": 90,
          "time": 72.74773750000007,
          "velocity": 0.7874015748031497,
          "duration": 0.5287875000000071
        },
        {
          "name": "C#7",
          "midi": 97,
          "time": 72.74773750000007,
          "velocity": 0.7874015748031497,
          "duration": 0.5295250000000067
        },
        {
          "name": "F#7",
          "midi": 102,
          "time": 72.74773750000007,
          "velocity": 0.7874015748031497,
          "duration": 0.5287875000000071
        },
        {
          "name": "C#4",
          "midi": 61,
          "time": 73.27800000000008,
          "velocity": 0.7874015748031497,
          "duration": 0.04498750000000484
        },
        {
          "name": "F#4",
          "midi": 66,
          "time": 73.27800000000008,
          "velocity": 0.7874015748031497,
          "duration": 0.04498750000000484
        },
        {
          "name": "C#5",
          "midi": 73,
          "time": 73.27800000000008,
          "velocity": 0.7874015748031497,
          "duration": 0.04498750000000484
        },
        {
          "name": "D5",
          "midi": 74,
          "time": 73.27800000000008,
          "velocity": 0.7874015748031497,
          "duration": 0.04498750000000484
        },
        {
          "name": "F#5",
          "midi": 78,
          "time": 73.27800000000008,
          "velocity": 0.7874015748031497,
          "duration": 0.04498750000000484
        },
        {
          "name": "C#6",
          "midi": 85,
          "time": 73.27800000000008,
          "velocity": 0.7874015748031497,
          "duration": 0.35178750000000036
        },
        {
          "name": "D#6",
          "midi": 87,
          "time": 73.27800000000008,
          "velocity": 0.7874015748031497,
          "duration": 0.35178750000000036
        },
        {
          "name": "F#6",
          "midi": 90,
          "time": 73.27800000000008,
          "velocity": 0.7874015748031497,
          "duration": 0.35178750000000036
        },
        {
          "name": "C#7",
          "midi": 97,
          "time": 73.27800000000008,
          "velocity": 0.7874015748031497,
          "duration": 0.35178750000000036
        },
        {
          "name": "D7",
          "midi": 98,
          "time": 73.27800000000008,
          "velocity": 0.7874015748031497,
          "duration": 0.35178750000000036
        },
        {
          "name": "D#7",
          "midi": 99,
          "time": 73.27800000000008,
          "velocity": 0.7874015748031497,
          "duration": 0.35178750000000036
        },
        {
          "name": "F#7",
          "midi": 102,
          "time": 73.27800000000008,
          "velocity": 0.7874015748031497,
          "duration": 0.35178750000000036
        },
        {
          "name": "D4",
          "midi": 62,
          "time": 73.63200000000008,
          "velocity": 0.7874015748031497,
          "duration": 2.4757874999999956
        },
        {
          "name": "F#4",
          "midi": 66,
          "time": 73.63200000000008,
          "velocity": 0.7874015748031497,
          "duration": 2.4757874999999956
        },
        {
          "name": "C#5",
          "midi": 73,
          "time": 73.63200000000008,
          "velocity": 0.7874015748031497,
          "duration": 2.4757874999999956
        },
        {
          "name": "D#5",
          "midi": 75,
          "time": 73.63200000000008,
          "velocity": 0.7874015748031497,
          "duration": 2.4757874999999956
        },
        {
          "name": "F#5",
          "midi": 78,
          "time": 73.63200000000008,
          "velocity": 0.7874015748031497,
          "duration": 2.4757874999999956
        },
        {
          "name": "C#6",
          "midi": 85,
          "time": 73.63200000000008,
          "velocity": 0.7874015748031497,
          "duration": 2.4757874999999956
        },
        {
          "name": "E6",
          "midi": 88,
          "time": 73.63200000000008,
          "velocity": 0.7874015748031497,
          "duration": 2.4757874999999956
        },
        {
          "name": "F#6",
          "midi": 90,
          "time": 73.63200000000008,
          "velocity": 0.7874015748031497,
          "duration": 2.4757874999999956
        },
        {
          "name": "C#7",
          "midi": 97,
          "time": 73.63200000000008,
          "velocity": 0.7874015748031497,
          "duration": 2.4757874999999956
        },
        {
          "name": "D7",
          "midi": 98,
          "time": 73.63200000000008,
          "velocity": 0.7874015748031497,
          "duration": 2.4757874999999956
        },
        {
          "name": "E7",
          "midi": 100,
          "time": 73.63200000000008,
          "velocity": 0.7874015748031497,
          "duration": 2.4757874999999956
        },
        {
          "name": "F#7",
          "midi": 102,
          "time": 73.63200000000008,
          "velocity": 0.7874015748031497,
          "duration": 2.4757874999999956
        },
        {
          "name": "D4",
          "midi": 62,
          "time": 76.11000000000007,
          "velocity": 0.7874015748031497,
          "duration": 0.043512500000005616
        },
        {
          "name": "F#4",
          "midi": 66,
          "time": 76.11000000000007,
          "velocity": 0.7874015748031497,
          "duration": 0.043512500000005616
        },
        {
          "name": "C#5",
          "midi": 73,
          "time": 76.11000000000007,
          "velocity": 0.7874015748031497,
          "duration": 0.043512500000005616
        },
        {
          "name": "D#5",
          "midi": 75,
          "time": 76.11000000000007,
          "velocity": 0.7874015748031497,
          "duration": 0.043512500000005616
        },
        {
          "name": "F#5",
          "midi": 78,
          "time": 76.11000000000007,
          "velocity": 0.7874015748031497,
          "duration": 0.043512500000005616
        },
        {
          "name": "C#6",
          "midi": 85,
          "time": 76.11000000000007,
          "velocity": 0.7874015748031497,
          "duration": 0.043512500000005616
        },
        {
          "name": "E6",
          "midi": 88,
          "time": 76.11000000000007,
          "velocity": 0.7874015748031497,
          "duration": 0.043512500000005616
        },
        {
          "name": "F#6",
          "midi": 90,
          "time": 76.11000000000007,
          "velocity": 0.7874015748031497,
          "duration": 0.043512500000005616
        },
        {
          "name": "C#7",
          "midi": 97,
          "time": 76.11000000000007,
          "velocity": 0.7874015748031497,
          "duration": 0.043512500000005616
        },
        {
          "name": "D7",
          "midi": 98,
          "time": 76.11000000000007,
          "velocity": 0.7874015748031497,
          "duration": 0.043512500000005616
        },
        {
          "name": "E7",
          "midi": 100,
          "time": 76.11000000000007,
          "velocity": 0.7874015748031497,
          "duration": 0.043512500000005616
        },
        {
          "name": "F#7",
          "midi": 102,
          "time": 76.11000000000007,
          "velocity": 0.7874015748031497,
          "duration": 0.043512500000005616
        },
        {
          "name": "C#7",
          "midi": 97,
          "time": 76.28700000000008,
          "velocity": 0.7874015748031497,
          "duration": 0.043512500000005616
        },
        {
          "name": "D7",
          "midi": 98,
          "time": 76.28700000000008,
          "velocity": 0.7874015748031497,
          "duration": 0.043512500000005616
        },
        {
          "name": "E7",
          "midi": 100,
          "time": 76.28700000000008,
          "velocity": 0.7874015748031497,
          "duration": 0.043512500000005616
        },
        {
          "name": "F#7",
          "midi": 102,
          "time": 76.28700000000008,
          "velocity": 0.7874015748031497,
          "duration": 0.043512500000005616
        },
        {
          "name": "D4",
          "midi": 62,
          "time": 76.46400000000008,
          "velocity": 0.7874015748031497,
          "duration": 1.0597874999999988
        },
        {
          "name": "F#4",
          "midi": 66,
          "time": 76.46400000000008,
          "velocity": 0.7874015748031497,
          "duration": 1.0597874999999988
        },
        {
          "name": "C#5",
          "midi": 73,
          "time": 76.46400000000008,
          "velocity": 0.7874015748031497,
          "duration": 1.0597874999999988
        },
        {
          "name": "D#5",
          "midi": 75,
          "time": 76.46400000000008,
          "velocity": 0.7874015748031497,
          "duration": 1.0597874999999988
        },
        {
          "name": "F#5",
          "midi": 78,
          "time": 76.46400000000008,
          "velocity": 0.7874015748031497,
          "duration": 1.0597874999999988
        },
        {
          "name": "C#6",
          "midi": 85,
          "time": 76.46400000000008,
          "velocity": 0.7874015748031497,
          "duration": 1.0597874999999988
        },
        {
          "name": "E6",
          "midi": 88,
          "time": 76.46400000000008,
          "velocity": 0.7874015748031497,
          "duration": 1.0597874999999988
        },
        {
          "name": "F#6",
          "midi": 90,
          "time": 76.46400000000008,
          "velocity": 0.7874015748031497,
          "duration": 1.0597874999999988
        },
        {
          "name": "C#7",
          "midi": 97,
          "time": 76.46400000000008,
          "velocity": 0.7874015748031497,
          "duration": 1.0597874999999988
        },
        {
          "name": "D7",
          "midi": 98,
          "time": 76.46400000000008,
          "velocity": 0.7874015748031497,
          "duration": 1.0597874999999988
        },
        {
          "name": "E7",
          "midi": 100,
          "time": 76.46400000000008,
          "velocity": 0.7874015748031497,
          "duration": 1.0597874999999988
        },
        {
          "name": "F#7",
          "midi": 102,
          "time": 76.46400000000008,
          "velocity": 0.7874015748031497,
          "duration": 1.0597874999999988
        },
        {
          "name": "G#8",
          "midi": 116,
          "time": 77.52600000000008,
          "velocity": 0.7874015748031497,
          "duration": 4.9552625000000035
        },
        {
          "name": "D4",
          "midi": 62,
          "time": 77.52600000000008,
          "velocity": 0.7874015748031497,
          "duration": 0.043512500000005616
        },
        {
          "name": "F#4",
          "midi": 66,
          "time": 77.52600000000008,
          "velocity": 0.7874015748031497,
          "duration": 0.043512500000005616
        },
        {
          "name": "C#5",
          "midi": 73,
          "time": 77.52600000000008,
          "velocity": 0.7874015748031497,
          "duration": 0.043512500000005616
        },
        {
          "name": "D#5",
          "midi": 75,
          "time": 77.52600000000008,
          "velocity": 0.7874015748031497,
          "duration": 0.043512500000005616
        },
        {
          "name": "F#5",
          "midi": 78,
          "time": 77.52600000000008,
          "velocity": 0.7874015748031497,
          "duration": 0.043512500000005616
        },
        {
          "name": "C#6",
          "midi": 85,
          "time": 77.52600000000008,
          "velocity": 0.7874015748031497,
          "duration": 0.043512500000005616
        },
        {
          "name": "E6",
          "midi": 88,
          "time": 77.52600000000008,
          "velocity": 0.7874015748031497,
          "duration": 0.043512500000005616
        },
        {
          "name": "F#6",
          "midi": 90,
          "time": 77.52600000000008,
          "velocity": 0.7874015748031497,
          "duration": 0.043512500000005616
        },
        {
          "name": "C#7",
          "midi": 97,
          "time": 77.52600000000008,
          "velocity": 0.7874015748031497,
          "duration": 0.043512500000005616
        },
        {
          "name": "D7",
          "midi": 98,
          "time": 77.52600000000008,
          "velocity": 0.7874015748031497,
          "duration": 0.043512500000005616
        },
        {
          "name": "E7",
          "midi": 100,
          "time": 77.52600000000008,
          "velocity": 0.7874015748031497,
          "duration": 0.043512500000005616
        },
        {
          "name": "F#7",
          "midi": 102,
          "time": 77.52600000000008,
          "velocity": 0.7874015748031497,
          "duration": 0.043512500000005616
        },
        {
          "name": "C#7",
          "midi": 97,
          "time": 77.70226250000009,
          "velocity": 0.7874015748031497,
          "duration": 0.043512500000005616
        },
        {
          "name": "D7",
          "midi": 98,
          "time": 77.70226250000009,
          "velocity": 0.7874015748031497,
          "duration": 0.043512500000005616
        },
        {
          "name": "E7",
          "midi": 100,
          "time": 77.70226250000009,
          "velocity": 0.7874015748031497,
          "duration": 0.043512500000005616
        },
        {
          "name": "F#7",
          "midi": 102,
          "time": 77.70226250000009,
          "velocity": 0.7874015748031497,
          "duration": 0.043512500000005616
        },
        {
          "name": "D4",
          "midi": 62,
          "time": 77.8800000000001,
          "velocity": 0.7874015748031497,
          "duration": 1.0597874999999988
        },
        {
          "name": "F#4",
          "midi": 66,
          "time": 77.8800000000001,
          "velocity": 0.7874015748031497,
          "duration": 1.0597874999999988
        },
        {
          "name": "C#5",
          "midi": 73,
          "time": 77.8800000000001,
          "velocity": 0.7874015748031497,
          "duration": 1.0597874999999988
        },
        {
          "name": "D#5",
          "midi": 75,
          "time": 77.8800000000001,
          "velocity": 0.7874015748031497,
          "duration": 1.0597874999999988
        },
        {
          "name": "F#5",
          "midi": 78,
          "time": 77.8800000000001,
          "velocity": 0.7874015748031497,
          "duration": 1.0597874999999988
        },
        {
          "name": "C#6",
          "midi": 85,
          "time": 77.8800000000001,
          "velocity": 0.7874015748031497,
          "duration": 1.0597874999999988
        },
        {
          "name": "E6",
          "midi": 88,
          "time": 77.8800000000001,
          "velocity": 0.7874015748031497,
          "duration": 1.0597874999999988
        },
        {
          "name": "F#6",
          "midi": 90,
          "time": 77.8800000000001,
          "velocity": 0.7874015748031497,
          "duration": 1.0597874999999988
        },
        {
          "name": "C#7",
          "midi": 97,
          "time": 77.8800000000001,
          "velocity": 0.7874015748031497,
          "duration": 1.0597874999999988
        },
        {
          "name": "D7",
          "midi": 98,
          "time": 77.8800000000001,
          "velocity": 0.7874015748031497,
          "duration": 1.0597874999999988
        },
        {
          "name": "E7",
          "midi": 100,
          "time": 77.8800000000001,
          "velocity": 0.7874015748031497,
          "duration": 1.0597874999999988
        },
        {
          "name": "F#7",
          "midi": 102,
          "time": 77.8800000000001,
          "velocity": 0.7874015748031497,
          "duration": 1.0597874999999988
        },
        {
          "name": "D4",
          "midi": 62,
          "time": 78.94200000000009,
          "velocity": 0.7874015748031497,
          "duration": 0.043512500000005616
        },
        {
          "name": "F#4",
          "midi": 66,
          "time": 78.94200000000009,
          "velocity": 0.7874015748031497,
          "duration": 0.043512500000005616
        },
        {
          "name": "C#5",
          "midi": 73,
          "time": 78.94200000000009,
          "velocity": 0.7874015748031497,
          "duration": 0.043512500000005616
        },
        {
          "name": "D#5",
          "midi": 75,
          "time": 78.94200000000009,
          "velocity": 0.7874015748031497,
          "duration": 0.043512500000005616
        },
        {
          "name": "F#5",
          "midi": 78,
          "time": 78.94200000000009,
          "velocity": 0.7874015748031497,
          "duration": 0.043512500000005616
        },
        {
          "name": "C#6",
          "midi": 85,
          "time": 78.94200000000009,
          "velocity": 0.7874015748031497,
          "duration": 0.35178750000000036
        },
        {
          "name": "E6",
          "midi": 88,
          "time": 78.94200000000009,
          "velocity": 0.7874015748031497,
          "duration": 0.35178750000000036
        },
        {
          "name": "F#6",
          "midi": 90,
          "time": 78.94200000000009,
          "velocity": 0.7874015748031497,
          "duration": 0.35178750000000036
        },
        {
          "name": "C#7",
          "midi": 97,
          "time": 78.94200000000009,
          "velocity": 0.7874015748031497,
          "duration": 0.35178750000000036
        },
        {
          "name": "D7",
          "midi": 98,
          "time": 78.94200000000009,
          "velocity": 0.7874015748031497,
          "duration": 0.35178750000000036
        },
        {
          "name": "E7",
          "midi": 100,
          "time": 78.94200000000009,
          "velocity": 0.7874015748031497,
          "duration": 0.35178750000000036
        },
        {
          "name": "F#7",
          "midi": 102,
          "time": 78.94200000000009,
          "velocity": 0.7874015748031497,
          "duration": 0.35178750000000036
        },
        {
          "name": "C#4",
          "midi": 61,
          "time": 79.29600000000009,
          "velocity": 0.7874015748031497,
          "duration": 0.043512500000005616
        },
        {
          "name": "F#4",
          "midi": 66,
          "time": 79.29600000000009,
          "velocity": 0.7874015748031497,
          "duration": 0.043512500000005616
        },
        {
          "name": "C#5",
          "midi": 73,
          "time": 79.29600000000009,
          "velocity": 0.7874015748031497,
          "duration": 0.043512500000005616
        },
        {
          "name": "D5",
          "midi": 74,
          "time": 79.29600000000009,
          "velocity": 0.7874015748031497,
          "duration": 0.043512500000005616
        },
        {
          "name": "F#5",
          "midi": 78,
          "time": 79.29600000000009,
          "velocity": 0.7874015748031497,
          "duration": 0.043512500000005616
        },
        {
          "name": "C#6",
          "midi": 85,
          "time": 79.29600000000009,
          "velocity": 0.7874015748031497,
          "duration": 0.35178750000000036
        },
        {
          "name": "D#6",
          "midi": 87,
          "time": 79.29600000000009,
          "velocity": 0.7874015748031497,
          "duration": 0.35178750000000036
        },
        {
          "name": "F#6",
          "midi": 90,
          "time": 79.29600000000009,
          "velocity": 0.7874015748031497,
          "duration": 0.35178750000000036
        },
        {
          "name": "C#7",
          "midi": 97,
          "time": 79.29600000000009,
          "velocity": 0.7874015748031497,
          "duration": 0.35178750000000036
        },
        {
          "name": "D7",
          "midi": 98,
          "time": 79.29600000000009,
          "velocity": 0.7874015748031497,
          "duration": 0.35178750000000036
        },
        {
          "name": "D#7",
          "midi": 99,
          "time": 79.29600000000009,
          "velocity": 0.7874015748031497,
          "duration": 0.35178750000000036
        },
        {
          "name": "F#7",
          "midi": 102,
          "time": 79.29600000000009,
          "velocity": 0.7874015748031497,
          "duration": 0.35178750000000036
        },
        {
          "name": "C#4",
          "midi": 61,
          "time": 79.65000000000009,
          "velocity": 0.7874015748031497,
          "duration": 0.043512500000005616
        },
        {
          "name": "F#4",
          "midi": 66,
          "time": 79.65000000000009,
          "velocity": 0.7874015748031497,
          "duration": 0.043512500000005616
        },
        {
          "name": "C#5",
          "midi": 73,
          "time": 79.65000000000009,
          "velocity": 0.7874015748031497,
          "duration": 0.043512500000005616
        },
        {
          "name": "D5",
          "midi": 74,
          "time": 79.65000000000009,
          "velocity": 0.7874015748031497,
          "duration": 0.043512500000005616
        },
        {
          "name": "F#5",
          "midi": 78,
          "time": 79.65000000000009,
          "velocity": 0.7874015748031497,
          "duration": 0.043512500000005616
        },
        {
          "name": "C#6",
          "midi": 85,
          "time": 79.65000000000009,
          "velocity": 0.7874015748031497,
          "duration": 0.3532624999999996
        },
        {
          "name": "D#6",
          "midi": 87,
          "time": 79.65000000000009,
          "velocity": 0.7874015748031497,
          "duration": 0.3532624999999996
        },
        {
          "name": "F#6",
          "midi": 90,
          "time": 79.65000000000009,
          "velocity": 0.7874015748031497,
          "duration": 0.352525
        },
        {
          "name": "C#7",
          "midi": 97,
          "time": 79.65000000000009,
          "velocity": 0.7874015748031497,
          "duration": 0.3532624999999996
        },
        {
          "name": "D7",
          "midi": 98,
          "time": 79.65000000000009,
          "velocity": 0.7874015748031497,
          "duration": 0.3532624999999996
        },
        {
          "name": "D#7",
          "midi": 99,
          "time": 79.65000000000009,
          "velocity": 0.7874015748031497,
          "duration": 0.3532624999999996
        },
        {
          "name": "F#7",
          "midi": 102,
          "time": 79.65000000000009,
          "velocity": 0.7874015748031497,
          "duration": 0.352525
        },
        {
          "name": "C#4",
          "midi": 61,
          "time": 80.00400000000009,
          "velocity": 0.7874015748031497,
          "duration": 0.04425000000000523
        },
        {
          "name": "F#4",
          "midi": 66,
          "time": 80.00400000000009,
          "velocity": 0.7874015748031497,
          "duration": 0.04425000000000523
        },
        {
          "name": "C#5",
          "midi": 73,
          "time": 80.00400000000009,
          "velocity": 0.7874015748031497,
          "duration": 0.04425000000000523
        },
        {
          "name": "D5",
          "midi": 74,
          "time": 80.00400000000009,
          "velocity": 0.7874015748031497,
          "duration": 0.04425000000000523
        },
        {
          "name": "F#5",
          "midi": 78,
          "time": 80.00400000000009,
          "velocity": 0.7874015748031497,
          "duration": 0.04425000000000523
        },
        {
          "name": "C#6",
          "midi": 85,
          "time": 80.00400000000009,
          "velocity": 0.7874015748031497,
          "duration": 0.35178750000000036
        },
        {
          "name": "D#6",
          "midi": 87,
          "time": 80.00400000000009,
          "velocity": 0.7874015748031497,
          "duration": 0.35178750000000036
        },
        {
          "name": "F#6",
          "midi": 90,
          "time": 80.00400000000009,
          "velocity": 0.7874015748031497,
          "duration": 0.35178750000000036
        },
        {
          "name": "C#7",
          "midi": 97,
          "time": 80.00400000000009,
          "velocity": 0.7874015748031497,
          "duration": 0.35178750000000036
        },
        {
          "name": "D7",
          "midi": 98,
          "time": 80.00400000000009,
          "velocity": 0.7874015748031497,
          "duration": 0.35178750000000036
        },
        {
          "name": "D#7",
          "midi": 99,
          "time": 80.00400000000009,
          "velocity": 0.7874015748031497,
          "duration": 0.35178750000000036
        },
        {
          "name": "F#7",
          "midi": 102,
          "time": 80.00400000000009,
          "velocity": 0.7874015748031497,
          "duration": 0.35178750000000036
        },
        {
          "name": "C#4",
          "midi": 61,
          "time": 80.35800000000009,
          "velocity": 0.7874015748031497,
          "duration": 0.043512500000005616
        },
        {
          "name": "F#4",
          "midi": 66,
          "time": 80.35800000000009,
          "velocity": 0.7874015748031497,
          "duration": 0.043512500000005616
        },
        {
          "name": "C#5",
          "midi": 73,
          "time": 80.35800000000009,
          "velocity": 0.7874015748031497,
          "duration": 0.043512500000005616
        },
        {
          "name": "D5",
          "midi": 74,
          "time": 80.35800000000009,
          "velocity": 0.7874015748031497,
          "duration": 0.043512500000005616
        },
        {
          "name": "F#5",
          "midi": 78,
          "time": 80.35800000000009,
          "velocity": 0.7874015748031497,
          "duration": 0.043512500000005616
        },
        {
          "name": "C#6",
          "midi": 85,
          "time": 80.35800000000009,
          "velocity": 0.7874015748031497,
          "duration": 0.35178750000000036
        },
        {
          "name": "D#6",
          "midi": 87,
          "time": 80.35800000000009,
          "velocity": 0.7874015748031497,
          "duration": 0.35178750000000036
        },
        {
          "name": "F#6",
          "midi": 90,
          "time": 80.35800000000009,
          "velocity": 0.7874015748031497,
          "duration": 0.35178750000000036
        },
        {
          "name": "C#7",
          "midi": 97,
          "time": 80.35800000000009,
          "velocity": 0.7874015748031497,
          "duration": 0.35178750000000036
        },
        {
          "name": "D7",
          "midi": 98,
          "time": 80.35800000000009,
          "velocity": 0.7874015748031497,
          "duration": 0.35178750000000036
        },
        {
          "name": "D#7",
          "midi": 99,
          "time": 80.35800000000009,
          "velocity": 0.7874015748031497,
          "duration": 0.35178750000000036
        },
        {
          "name": "F#7",
          "midi": 102,
          "time": 80.35800000000009,
          "velocity": 0.7874015748031497,
          "duration": 0.35178750000000036
        },
        {
          "name": "C4",
          "midi": 60,
          "time": 80.71200000000009,
          "velocity": 0.7874015748031497,
          "duration": 0.043512500000005616
        },
        {
          "name": "F#4",
          "midi": 66,
          "time": 80.71200000000009,
          "velocity": 0.7874015748031497,
          "duration": 0.043512500000005616
        },
        {
          "name": "C5",
          "midi": 72,
          "time": 80.71200000000009,
          "velocity": 0.7874015748031497,
          "duration": 0.043512500000005616
        },
        {
          "name": "C#5",
          "midi": 73,
          "time": 80.71200000000009,
          "velocity": 0.7874015748031497,
          "duration": 0.043512500000005616
        },
        {
          "name": "F#5",
          "midi": 78,
          "time": 80.71200000000009,
          "velocity": 0.7874015748031497,
          "duration": 0.043512500000005616
        },
        {
          "name": "C6",
          "midi": 84,
          "time": 80.71200000000009,
          "velocity": 0.7874015748031497,
          "duration": 0.35178750000000036
        },
        {
          "name": "D#6",
          "midi": 87,
          "time": 80.71200000000009,
          "velocity": 0.7874015748031497,
          "duration": 0.35178750000000036
        },
        {
          "name": "F#6",
          "midi": 90,
          "time": 80.71200000000009,
          "velocity": 0.7874015748031497,
          "duration": 0.35178750000000036
        },
        {
          "name": "C7",
          "midi": 96,
          "time": 80.71200000000009,
          "velocity": 0.7874015748031497,
          "duration": 0.35178750000000036
        },
        {
          "name": "D7",
          "midi": 98,
          "time": 80.71200000000009,
          "velocity": 0.7874015748031497,
          "duration": 0.35178750000000036
        },
        {
          "name": "D#7",
          "midi": 99,
          "time": 80.71200000000009,
          "velocity": 0.7874015748031497,
          "duration": 0.35178750000000036
        },
        {
          "name": "F#7",
          "midi": 102,
          "time": 80.71200000000009,
          "velocity": 0.7874015748031497,
          "duration": 0.35178750000000036
        },
        {
          "name": "C4",
          "midi": 60,
          "time": 81.06600000000009,
          "velocity": 0.7874015748031497,
          "duration": 0.043512500000005616
        },
        {
          "name": "F#4",
          "midi": 66,
          "time": 81.06600000000009,
          "velocity": 0.7874015748031497,
          "duration": 0.043512500000005616
        },
        {
          "name": "C5",
          "midi": 72,
          "time": 81.06600000000009,
          "velocity": 0.7874015748031497,
          "duration": 0.043512500000005616
        },
        {
          "name": "C#5",
          "midi": 73,
          "time": 81.06600000000009,
          "velocity": 0.7874015748031497,
          "duration": 0.043512500000005616
        },
        {
          "name": "F#5",
          "midi": 78,
          "time": 81.06600000000009,
          "velocity": 0.7874015748031497,
          "duration": 0.043512500000005616
        },
        {
          "name": "C6",
          "midi": 84,
          "time": 81.06600000000009,
          "velocity": 0.7874015748031497,
          "duration": 0.35178750000000036
        },
        {
          "name": "D#6",
          "midi": 87,
          "time": 81.06600000000009,
          "velocity": 0.7874015748031497,
          "duration": 0.35178750000000036
        },
        {
          "name": "F#6",
          "midi": 90,
          "time": 81.06600000000009,
          "velocity": 0.7874015748031497,
          "duration": 0.35178750000000036
        },
        {
          "name": "C7",
          "midi": 96,
          "time": 81.06600000000009,
          "velocity": 0.7874015748031497,
          "duration": 0.35178750000000036
        },
        {
          "name": "D7",
          "midi": 98,
          "time": 81.06600000000009,
          "velocity": 0.7874015748031497,
          "duration": 0.35178750000000036
        },
        {
          "name": "D#7",
          "midi": 99,
          "time": 81.06600000000009,
          "velocity": 0.7874015748031497,
          "duration": 0.35178750000000036
        },
        {
          "name": "F#7",
          "midi": 102,
          "time": 81.06600000000009,
          "velocity": 0.7874015748031497,
          "duration": 0.35178750000000036
        },
        {
          "name": "C4",
          "midi": 60,
          "time": 81.42000000000009,
          "velocity": 0.7874015748031497,
          "duration": 0.043512500000005616
        },
        {
          "name": "F#4",
          "midi": 66,
          "time": 81.42000000000009,
          "velocity": 0.7874015748031497,
          "duration": 0.043512500000005616
        },
        {
          "name": "C5",
          "midi": 72,
          "time": 81.42000000000009,
          "velocity": 0.7874015748031497,
          "duration": 0.043512500000005616
        },
        {
          "name": "C#5",
          "midi": 73,
          "time": 81.42000000000009,
          "velocity": 0.7874015748031497,
          "duration": 0.043512500000005616
        },
        {
          "name": "F#5",
          "midi": 78,
          "time": 81.42000000000009,
          "velocity": 0.7874015748031497,
          "duration": 0.043512500000005616
        },
        {
          "name": "C6",
          "midi": 84,
          "time": 81.42000000000009,
          "velocity": 0.7874015748031497,
          "duration": 0.35178750000000036
        },
        {
          "name": "D#6",
          "midi": 87,
          "time": 81.42000000000009,
          "velocity": 0.7874015748031497,
          "duration": 0.35178750000000036
        },
        {
          "name": "F#6",
          "midi": 90,
          "time": 81.42000000000009,
          "velocity": 0.7874015748031497,
          "duration": 0.35178750000000036
        },
        {
          "name": "C7",
          "midi": 96,
          "time": 81.42000000000009,
          "velocity": 0.7874015748031497,
          "duration": 0.35178750000000036
        },
        {
          "name": "D7",
          "midi": 98,
          "time": 81.42000000000009,
          "velocity": 0.7874015748031497,
          "duration": 0.35178750000000036
        },
        {
          "name": "D#7",
          "midi": 99,
          "time": 81.42000000000009,
          "velocity": 0.7874015748031497,
          "duration": 0.35178750000000036
        },
        {
          "name": "F#7",
          "midi": 102,
          "time": 81.42000000000009,
          "velocity": 0.7874015748031497,
          "duration": 0.35178750000000036
        },
        {
          "name": "D4",
          "midi": 62,
          "time": 81.77400000000009,
          "velocity": 0.7874015748031497,
          "duration": 0.7057874999999996
        },
        {
          "name": "F#4",
          "midi": 66,
          "time": 81.77400000000009,
          "velocity": 0.7874015748031497,
          "duration": 0.7057874999999996
        },
        {
          "name": "C#5",
          "midi": 73,
          "time": 81.77400000000009,
          "velocity": 0.7874015748031497,
          "duration": 0.7057874999999996
        },
        {
          "name": "D#5",
          "midi": 75,
          "time": 81.77400000000009,
          "velocity": 0.7874015748031497,
          "duration": 0.7057874999999996
        },
        {
          "name": "F#5",
          "midi": 78,
          "time": 81.77400000000009,
          "velocity": 0.7874015748031497,
          "duration": 0.7057874999999996
        },
        {
          "name": "C#6",
          "midi": 85,
          "time": 81.77400000000009,
          "velocity": 0.7874015748031497,
          "duration": 0.7057874999999996
        },
        {
          "name": "E6",
          "midi": 88,
          "time": 81.77400000000009,
          "velocity": 0.7874015748031497,
          "duration": 0.7057874999999996
        },
        {
          "name": "F#6",
          "midi": 90,
          "time": 81.77400000000009,
          "velocity": 0.7874015748031497,
          "duration": 0.7057874999999996
        },
        {
          "name": "C#7",
          "midi": 97,
          "time": 81.77400000000009,
          "velocity": 0.7874015748031497,
          "duration": 0.7057874999999996
        },
        {
          "name": "D7",
          "midi": 98,
          "time": 81.77400000000009,
          "velocity": 0.7874015748031497,
          "duration": 0.7057874999999996
        },
        {
          "name": "E7",
          "midi": 100,
          "time": 81.77400000000009,
          "velocity": 0.7874015748031497,
          "duration": 0.7057874999999996
        },
        {
          "name": "F#7",
          "midi": 102,
          "time": 81.77400000000009,
          "velocity": 0.7874015748031497,
          "duration": 0.7057874999999996
        },
        {
          "name": "D4",
          "midi": 62,
          "time": 82.48200000000008,
          "velocity": 0.7874015748031497,
          "duration": 0.043512500000005616
        },
        {
          "name": "F#4",
          "midi": 66,
          "time": 82.48200000000008,
          "velocity": 0.7874015748031497,
          "duration": 0.043512500000005616
        },
        {
          "name": "C#5",
          "midi": 73,
          "time": 82.48200000000008,
          "velocity": 0.7874015748031497,
          "duration": 0.043512500000005616
        },
        {
          "name": "D#5",
          "midi": 75,
          "time": 82.48200000000008,
          "velocity": 0.7874015748031497,
          "duration": 0.043512500000005616
        },
        {
          "name": "F#5",
          "midi": 78,
          "time": 82.48200000000008,
          "velocity": 0.7874015748031497,
          "duration": 0.043512500000005616
        },
        {
          "name": "C#6",
          "midi": 85,
          "time": 82.48200000000008,
          "velocity": 0.7874015748031497,
          "duration": 0.35178750000000036
        },
        {
          "name": "E6",
          "midi": 88,
          "time": 82.48200000000008,
          "velocity": 0.7874015748031497,
          "duration": 0.35178750000000036
        },
        {
          "name": "F#6",
          "midi": 90,
          "time": 82.48200000000008,
          "velocity": 0.7874015748031497,
          "duration": 0.35178750000000036
        },
        {
          "name": "C#7",
          "midi": 97,
          "time": 82.48200000000008,
          "velocity": 0.7874015748031497,
          "duration": 0.35178750000000036
        },
        {
          "name": "D7",
          "midi": 98,
          "time": 82.48200000000008,
          "velocity": 0.7874015748031497,
          "duration": 0.35178750000000036
        },
        {
          "name": "E7",
          "midi": 100,
          "time": 82.48200000000008,
          "velocity": 0.7874015748031497,
          "duration": 0.35178750000000036
        },
        {
          "name": "F#7",
          "midi": 102,
          "time": 82.48200000000008,
          "velocity": 0.7874015748031497,
          "duration": 0.35178750000000036
        },
        {
          "name": "D4",
          "midi": 62,
          "time": 82.83600000000008,
          "velocity": 0.7874015748031497,
          "duration": 0.043512500000005616
        },
        {
          "name": "F#4",
          "midi": 66,
          "time": 82.83600000000008,
          "velocity": 0.7874015748031497,
          "duration": 0.043512500000005616
        },
        {
          "name": "C#5",
          "midi": 73,
          "time": 82.83600000000008,
          "velocity": 0.7874015748031497,
          "duration": 0.043512500000005616
        },
        {
          "name": "D#5",
          "midi": 75,
          "time": 82.83600000000008,
          "velocity": 0.7874015748031497,
          "duration": 0.043512500000005616
        },
        {
          "name": "F#5",
          "midi": 78,
          "time": 82.83600000000008,
          "velocity": 0.7874015748031497,
          "duration": 0.043512500000005616
        },
        {
          "name": "C#6",
          "midi": 85,
          "time": 82.83600000000008,
          "velocity": 0.7874015748031497,
          "duration": 0.35178750000000036
        },
        {
          "name": "E6",
          "midi": 88,
          "time": 82.83600000000008,
          "velocity": 0.7874015748031497,
          "duration": 0.35178750000000036
        },
        {
          "name": "F#6",
          "midi": 90,
          "time": 82.83600000000008,
          "velocity": 0.7874015748031497,
          "duration": 0.35178750000000036
        },
        {
          "name": "C#7",
          "midi": 97,
          "time": 82.83600000000008,
          "velocity": 0.7874015748031497,
          "duration": 0.35178750000000036
        },
        {
          "name": "D7",
          "midi": 98,
          "time": 82.83600000000008,
          "velocity": 0.7874015748031497,
          "duration": 0.35178750000000036
        },
        {
          "name": "E7",
          "midi": 100,
          "time": 82.83600000000008,
          "velocity": 0.7874015748031497,
          "duration": 0.35178750000000036
        },
        {
          "name": "F#7",
          "midi": 102,
          "time": 82.83600000000008,
          "velocity": 0.7874015748031497,
          "duration": 0.35178750000000036
        },
        {
          "name": "D4",
          "midi": 62,
          "time": 83.19000000000008,
          "velocity": 0.7874015748031497,
          "duration": 0.043512500000005616
        },
        {
          "name": "F#4",
          "midi": 66,
          "time": 83.19000000000008,
          "velocity": 0.7874015748031497,
          "duration": 0.043512500000005616
        },
        {
          "name": "C#5",
          "midi": 73,
          "time": 83.19000000000008,
          "velocity": 0.7874015748031497,
          "duration": 0.043512500000005616
        },
        {
          "name": "D#5",
          "midi": 75,
          "time": 83.19000000000008,
          "velocity": 0.7874015748031497,
          "duration": 0.043512500000005616
        },
        {
          "name": "F#5",
          "midi": 78,
          "time": 83.19000000000008,
          "velocity": 0.7874015748031497,
          "duration": 0.043512500000005616
        },
        {
          "name": "C#6",
          "midi": 85,
          "time": 83.19000000000008,
          "velocity": 0.7874015748031497,
          "duration": 0.35178750000000036
        },
        {
          "name": "E6",
          "midi": 88,
          "time": 83.19000000000008,
          "velocity": 0.7874015748031497,
          "duration": 0.35178750000000036
        },
        {
          "name": "F#6",
          "midi": 90,
          "time": 83.19000000000008,
          "velocity": 0.7874015748031497,
          "duration": 0.35178750000000036
        },
        {
          "name": "C#7",
          "midi": 97,
          "time": 83.19000000000008,
          "velocity": 0.7874015748031497,
          "duration": 0.35178750000000036
        },
        {
          "name": "D7",
          "midi": 98,
          "time": 83.19000000000008,
          "velocity": 0.7874015748031497,
          "duration": 0.35178750000000036
        },
        {
          "name": "E7",
          "midi": 100,
          "time": 83.19000000000008,
          "velocity": 0.7874015748031497,
          "duration": 0.35178750000000036
        },
        {
          "name": "F#7",
          "midi": 102,
          "time": 83.19000000000008,
          "velocity": 0.7874015748031497,
          "duration": 0.35178750000000036
        },
        {
          "name": "C#4",
          "midi": 61,
          "time": 83.54400000000008,
          "velocity": 0.7874015748031497,
          "duration": 0.043512500000005616
        },
        {
          "name": "F#4",
          "midi": 66,
          "time": 83.54400000000008,
          "velocity": 0.7874015748031497,
          "duration": 0.043512500000005616
        },
        {
          "name": "C#5",
          "midi": 73,
          "time": 83.54400000000008,
          "velocity": 0.7874015748031497,
          "duration": 0.043512500000005616
        },
        {
          "name": "D5",
          "midi": 74,
          "time": 83.54400000000008,
          "velocity": 0.7874015748031497,
          "duration": 0.043512500000005616
        },
        {
          "name": "F#5",
          "midi": 78,
          "time": 83.54400000000008,
          "velocity": 0.7874015748031497,
          "duration": 0.043512500000005616
        },
        {
          "name": "C#6",
          "midi": 85,
          "time": 83.54400000000008,
          "velocity": 0.7874015748031497,
          "duration": 0.35178750000000036
        },
        {
          "name": "D#6",
          "midi": 87,
          "time": 83.54400000000008,
          "velocity": 0.7874015748031497,
          "duration": 0.35178750000000036
        },
        {
          "name": "F#6",
          "midi": 90,
          "time": 83.54400000000008,
          "velocity": 0.7874015748031497,
          "duration": 0.35178750000000036
        },
        {
          "name": "C#7",
          "midi": 97,
          "time": 83.54400000000008,
          "velocity": 0.7874015748031497,
          "duration": 0.35178750000000036
        },
        {
          "name": "D7",
          "midi": 98,
          "time": 83.54400000000008,
          "velocity": 0.7874015748031497,
          "duration": 0.35178750000000036
        },
        {
          "name": "D#7",
          "midi": 99,
          "time": 83.54400000000008,
          "velocity": 0.7874015748031497,
          "duration": 0.35178750000000036
        },
        {
          "name": "F#7",
          "midi": 102,
          "time": 83.54400000000008,
          "velocity": 0.7874015748031497,
          "duration": 0.35178750000000036
        },
        {
          "name": "C#4",
          "midi": 61,
          "time": 83.89800000000008,
          "velocity": 0.7874015748031497,
          "duration": 0.043512500000005616
        },
        {
          "name": "F#4",
          "midi": 66,
          "time": 83.89800000000008,
          "velocity": 0.7874015748031497,
          "duration": 0.043512500000005616
        },
        {
          "name": "C#5",
          "midi": 73,
          "time": 83.89800000000008,
          "velocity": 0.7874015748031497,
          "duration": 0.043512500000005616
        },
        {
          "name": "D5",
          "midi": 74,
          "time": 83.89800000000008,
          "velocity": 0.7874015748031497,
          "duration": 0.043512500000005616
        },
        {
          "name": "F#5",
          "midi": 78,
          "time": 83.89800000000008,
          "velocity": 0.7874015748031497,
          "duration": 0.043512500000005616
        },
        {
          "name": "C#6",
          "midi": 85,
          "time": 83.89800000000008,
          "velocity": 0.7874015748031497,
          "duration": 0.35178750000000036
        },
        {
          "name": "D#6",
          "midi": 87,
          "time": 83.89800000000008,
          "velocity": 0.7874015748031497,
          "duration": 0.35178750000000036
        },
        {
          "name": "F#6",
          "midi": 90,
          "time": 83.89800000000008,
          "velocity": 0.7874015748031497,
          "duration": 0.35178750000000036
        },
        {
          "name": "C#7",
          "midi": 97,
          "time": 83.89800000000008,
          "velocity": 0.7874015748031497,
          "duration": 0.35178750000000036
        },
        {
          "name": "D7",
          "midi": 98,
          "time": 83.89800000000008,
          "velocity": 0.7874015748031497,
          "duration": 0.35178750000000036
        },
        {
          "name": "D#7",
          "midi": 99,
          "time": 83.89800000000008,
          "velocity": 0.7874015748031497,
          "duration": 0.35178750000000036
        },
        {
          "name": "F#7",
          "midi": 102,
          "time": 83.89800000000008,
          "velocity": 0.7874015748031497,
          "duration": 0.35178750000000036
        },
        {
          "name": "C#4",
          "midi": 61,
          "time": 84.25200000000008,
          "velocity": 0.7874015748031497,
          "duration": 0.04425000000000523
        },
        {
          "name": "F#4",
          "midi": 66,
          "time": 84.25200000000008,
          "velocity": 0.7874015748031497,
          "duration": 0.04425000000000523
        },
        {
          "name": "C#5",
          "midi": 73,
          "time": 84.25200000000008,
          "velocity": 0.7874015748031497,
          "duration": 0.04425000000000523
        },
        {
          "name": "D5",
          "midi": 74,
          "time": 84.25200000000008,
          "velocity": 0.7874015748031497,
          "duration": 0.04425000000000523
        },
        {
          "name": "F#5",
          "midi": 78,
          "time": 84.25200000000008,
          "velocity": 0.7874015748031497,
          "duration": 0.04425000000000523
        },
        {
          "name": "C#6",
          "midi": 85,
          "time": 84.25200000000008,
          "velocity": 0.7874015748031497,
          "duration": 0.35178750000000036
        },
        {
          "name": "D#6",
          "midi": 87,
          "time": 84.25200000000008,
          "velocity": 0.7874015748031497,
          "duration": 0.35178750000000036
        },
        {
          "name": "F#6",
          "midi": 90,
          "time": 84.25200000000008,
          "velocity": 0.7874015748031497,
          "duration": 0.35178750000000036
        },
        {
          "name": "C#7",
          "midi": 97,
          "time": 84.25200000000008,
          "velocity": 0.7874015748031497,
          "duration": 0.35178750000000036
        },
        {
          "name": "D7",
          "midi": 98,
          "time": 84.25200000000008,
          "velocity": 0.7874015748031497,
          "duration": 0.35178750000000036
        },
        {
          "name": "D#7",
          "midi": 99,
          "time": 84.25200000000008,
          "velocity": 0.7874015748031497,
          "duration": 0.35178750000000036
        },
        {
          "name": "F#7",
          "midi": 102,
          "time": 84.25200000000008,
          "velocity": 0.7874015748031497,
          "duration": 0.35178750000000036
        },
        {
          "name": "C#4",
          "midi": 61,
          "time": 84.60600000000008,
          "velocity": 0.7874015748031497,
          "duration": 0.043512500000005616
        },
        {
          "name": "F#4",
          "midi": 66,
          "time": 84.60600000000008,
          "velocity": 0.7874015748031497,
          "duration": 0.043512500000005616
        },
        {
          "name": "C#5",
          "midi": 73,
          "time": 84.60600000000008,
          "velocity": 0.7874015748031497,
          "duration": 0.043512500000005616
        },
        {
          "name": "D5",
          "midi": 74,
          "time": 84.60600000000008,
          "velocity": 0.7874015748031497,
          "duration": 0.043512500000005616
        },
        {
          "name": "F#5",
          "midi": 78,
          "time": 84.60600000000008,
          "velocity": 0.7874015748031497,
          "duration": 0.043512500000005616
        },
        {
          "name": "C#6",
          "midi": 85,
          "time": 84.60600000000008,
          "velocity": 0.7874015748031497,
          "duration": 0.35178750000000036
        },
        {
          "name": "D#6",
          "midi": 87,
          "time": 84.60600000000008,
          "velocity": 0.7874015748031497,
          "duration": 0.35178750000000036
        },
        {
          "name": "F#6",
          "midi": 90,
          "time": 84.60600000000008,
          "velocity": 0.7874015748031497,
          "duration": 0.35178750000000036
        },
        {
          "name": "C#7",
          "midi": 97,
          "time": 84.60600000000008,
          "velocity": 0.7874015748031497,
          "duration": 0.35178750000000036
        },
        {
          "name": "D7",
          "midi": 98,
          "time": 84.60600000000008,
          "velocity": 0.7874015748031497,
          "duration": 0.35178750000000036
        },
        {
          "name": "D#7",
          "midi": 99,
          "time": 84.60600000000008,
          "velocity": 0.7874015748031497,
          "duration": 0.35178750000000036
        },
        {
          "name": "F#7",
          "midi": 102,
          "time": 84.60600000000008,
          "velocity": 0.7874015748031497,
          "duration": 0.35178750000000036
        },
        {
          "name": "C4",
          "midi": 60,
          "time": 84.96000000000008,
          "velocity": 0.7874015748031497,
          "duration": 0.043512500000005616
        },
        {
          "name": "F#4",
          "midi": 66,
          "time": 84.96000000000008,
          "velocity": 0.7874015748031497,
          "duration": 0.043512500000005616
        },
        {
          "name": "C5",
          "midi": 72,
          "time": 84.96000000000008,
          "velocity": 0.7874015748031497,
          "duration": 0.043512500000005616
        },
        {
          "name": "C#5",
          "midi": 73,
          "time": 84.96000000000008,
          "velocity": 0.7874015748031497,
          "duration": 0.043512500000005616
        },
        {
          "name": "F#5",
          "midi": 78,
          "time": 84.96000000000008,
          "velocity": 0.7874015748031497,
          "duration": 0.043512500000005616
        },
        {
          "name": "C6",
          "midi": 84,
          "time": 84.96000000000008,
          "velocity": 0.7874015748031497,
          "duration": 0.35178750000000036
        },
        {
          "name": "D#6",
          "midi": 87,
          "time": 84.96000000000008,
          "velocity": 0.7874015748031497,
          "duration": 0.35178750000000036
        },
        {
          "name": "F#6",
          "midi": 90,
          "time": 84.96000000000008,
          "velocity": 0.7874015748031497,
          "duration": 0.35178750000000036
        },
        {
          "name": "C7",
          "midi": 96,
          "time": 84.96000000000008,
          "velocity": 0.7874015748031497,
          "duration": 0.35178750000000036
        },
        {
          "name": "D7",
          "midi": 98,
          "time": 84.96000000000008,
          "velocity": 0.7874015748031497,
          "duration": 0.35178750000000036
        },
        {
          "name": "D#7",
          "midi": 99,
          "time": 84.96000000000008,
          "velocity": 0.7874015748031497,
          "duration": 0.35178750000000036
        },
        {
          "name": "F#7",
          "midi": 102,
          "time": 84.96000000000008,
          "velocity": 0.7874015748031497,
          "duration": 0.35178750000000036
        },
        {
          "name": "C4",
          "midi": 60,
          "time": 85.31400000000008,
          "velocity": 0.7874015748031497,
          "duration": 0.043512500000005616
        },
        {
          "name": "F#4",
          "midi": 66,
          "time": 85.31400000000008,
          "velocity": 0.7874015748031497,
          "duration": 0.043512500000005616
        },
        {
          "name": "C5",
          "midi": 72,
          "time": 85.31400000000008,
          "velocity": 0.7874015748031497,
          "duration": 0.043512500000005616
        },
        {
          "name": "C#5",
          "midi": 73,
          "time": 85.31400000000008,
          "velocity": 0.7874015748031497,
          "duration": 0.043512500000005616
        },
        {
          "name": "F#5",
          "midi": 78,
          "time": 85.31400000000008,
          "velocity": 0.7874015748031497,
          "duration": 0.043512500000005616
        },
        {
          "name": "C6",
          "midi": 84,
          "time": 85.31400000000008,
          "velocity": 0.7874015748031497,
          "duration": 0.35178750000000036
        },
        {
          "name": "D#6",
          "midi": 87,
          "time": 85.31400000000008,
          "velocity": 0.7874015748031497,
          "duration": 0.35178750000000036
        },
        {
          "name": "F#6",
          "midi": 90,
          "time": 85.31400000000008,
          "velocity": 0.7874015748031497,
          "duration": 0.35178750000000036
        },
        {
          "name": "C7",
          "midi": 96,
          "time": 85.31400000000008,
          "velocity": 0.7874015748031497,
          "duration": 0.35178750000000036
        },
        {
          "name": "D7",
          "midi": 98,
          "time": 85.31400000000008,
          "velocity": 0.7874015748031497,
          "duration": 0.35178750000000036
        },
        {
          "name": "D#7",
          "midi": 99,
          "time": 85.31400000000008,
          "velocity": 0.7874015748031497,
          "duration": 0.35178750000000036
        },
        {
          "name": "F#7",
          "midi": 102,
          "time": 85.31400000000008,
          "velocity": 0.7874015748031497,
          "duration": 0.35178750000000036
        },
        {
          "name": "C4",
          "midi": 60,
          "time": 85.66800000000008,
          "velocity": 0.7874015748031497,
          "duration": 0.043512500000005616
        },
        {
          "name": "F#4",
          "midi": 66,
          "time": 85.66800000000008,
          "velocity": 0.7874015748031497,
          "duration": 0.043512500000005616
        },
        {
          "name": "C5",
          "midi": 72,
          "time": 85.66800000000008,
          "velocity": 0.7874015748031497,
          "duration": 0.043512500000005616
        },
        {
          "name": "C#5",
          "midi": 73,
          "time": 85.66800000000008,
          "velocity": 0.7874015748031497,
          "duration": 0.043512500000005616
        },
        {
          "name": "F#5",
          "midi": 78,
          "time": 85.66800000000008,
          "velocity": 0.7874015748031497,
          "duration": 0.043512500000005616
        },
        {
          "name": "C6",
          "midi": 84,
          "time": 85.66800000000008,
          "velocity": 0.7874015748031497,
          "duration": 0.35178750000000036
        },
        {
          "name": "D#6",
          "midi": 87,
          "time": 85.66800000000008,
          "velocity": 0.7874015748031497,
          "duration": 0.35178750000000036
        },
        {
          "name": "F#6",
          "midi": 90,
          "time": 85.66800000000008,
          "velocity": 0.7874015748031497,
          "duration": 0.35178750000000036
        },
        {
          "name": "C7",
          "midi": 96,
          "time": 85.66800000000008,
          "velocity": 0.7874015748031497,
          "duration": 0.35178750000000036
        },
        {
          "name": "D7",
          "midi": 98,
          "time": 85.66800000000008,
          "velocity": 0.7874015748031497,
          "duration": 0.35178750000000036
        },
        {
          "name": "D#7",
          "midi": 99,
          "time": 85.66800000000008,
          "velocity": 0.7874015748031497,
          "duration": 0.35178750000000036
        },
        {
          "name": "F#7",
          "midi": 102,
          "time": 85.66800000000008,
          "velocity": 0.7874015748031497,
          "duration": 0.35178750000000036
        },
        {
          "name": "C4",
          "midi": 60,
          "time": 86.02200000000008,
          "velocity": 0.7874015748031497,
          "duration": 0.043512500000005616
        },
        {
          "name": "F#4",
          "midi": 66,
          "time": 86.02200000000008,
          "velocity": 0.7874015748031497,
          "duration": 0.043512500000005616
        },
        {
          "name": "C5",
          "midi": 72,
          "time": 86.02200000000008,
          "velocity": 0.7874015748031497,
          "duration": 0.043512500000005616
        },
        {
          "name": "C#5",
          "midi": 73,
          "time": 86.02200000000008,
          "velocity": 0.7874015748031497,
          "duration": 0.043512500000005616
        },
        {
          "name": "F#5",
          "midi": 78,
          "time": 86.02200000000008,
          "velocity": 0.7874015748031497,
          "duration": 0.043512500000005616
        },
        {
          "name": "C6",
          "midi": 84,
          "time": 86.02200000000008,
          "velocity": 0.7874015748031497,
          "duration": 0.35178750000000036
        },
        {
          "name": "D#6",
          "midi": 87,
          "time": 86.02200000000008,
          "velocity": 0.7874015748031497,
          "duration": 0.35178750000000036
        },
        {
          "name": "F#6",
          "midi": 90,
          "time": 86.02200000000008,
          "velocity": 0.7874015748031497,
          "duration": 0.35178750000000036
        },
        {
          "name": "C7",
          "midi": 96,
          "time": 86.02200000000008,
          "velocity": 0.7874015748031497,
          "duration": 0.35178750000000036
        },
        {
          "name": "D7",
          "midi": 98,
          "time": 86.02200000000008,
          "velocity": 0.7874015748031497,
          "duration": 0.35178750000000036
        },
        {
          "name": "D#7",
          "midi": 99,
          "time": 86.02200000000008,
          "velocity": 0.7874015748031497,
          "duration": 0.35178750000000036
        },
        {
          "name": "F#7",
          "midi": 102,
          "time": 86.02200000000008,
          "velocity": 0.7874015748031497,
          "duration": 0.35178750000000036
        },
        {
          "name": "C#4",
          "midi": 61,
          "time": 86.37600000000008,
          "velocity": 0.7874015748031497,
          "duration": 0.043512500000005616
        },
        {
          "name": "F#4",
          "midi": 66,
          "time": 86.37600000000008,
          "velocity": 0.7874015748031497,
          "duration": 0.043512500000005616
        },
        {
          "name": "C#5",
          "midi": 73,
          "time": 86.37600000000008,
          "velocity": 0.7874015748031497,
          "duration": 0.043512500000005616
        },
        {
          "name": "D5",
          "midi": 74,
          "time": 86.37600000000008,
          "velocity": 0.7874015748031497,
          "duration": 0.043512500000005616
        },
        {
          "name": "F#5",
          "midi": 78,
          "time": 86.37600000000008,
          "velocity": 0.7874015748031497,
          "duration": 0.043512500000005616
        },
        {
          "name": "C#6",
          "midi": 85,
          "time": 86.37600000000008,
          "velocity": 0.7874015748031497,
          "duration": 0.35178750000000036
        },
        {
          "name": "D#6",
          "midi": 87,
          "time": 86.37600000000008,
          "velocity": 0.7874015748031497,
          "duration": 0.35178750000000036
        },
        {
          "name": "F#6",
          "midi": 90,
          "time": 86.37600000000008,
          "velocity": 0.7874015748031497,
          "duration": 0.35178750000000036
        },
        {
          "name": "C#7",
          "midi": 97,
          "time": 86.37600000000008,
          "velocity": 0.7874015748031497,
          "duration": 0.35178750000000036
        },
        {
          "name": "D7",
          "midi": 98,
          "time": 86.37600000000008,
          "velocity": 0.7874015748031497,
          "duration": 0.35178750000000036
        },
        {
          "name": "D#7",
          "midi": 99,
          "time": 86.37600000000008,
          "velocity": 0.7874015748031497,
          "duration": 0.35178750000000036
        },
        {
          "name": "F#7",
          "midi": 102,
          "time": 86.37600000000008,
          "velocity": 0.7874015748031497,
          "duration": 0.35178750000000036
        },
        {
          "name": "C#4",
          "midi": 61,
          "time": 86.73000000000008,
          "velocity": 0.7874015748031497,
          "duration": 0.043512500000005616
        },
        {
          "name": "F#4",
          "midi": 66,
          "time": 86.73000000000008,
          "velocity": 0.7874015748031497,
          "duration": 0.043512500000005616
        },
        {
          "name": "C#5",
          "midi": 73,
          "time": 86.73000000000008,
          "velocity": 0.7874015748031497,
          "duration": 0.043512500000005616
        },
        {
          "name": "D5",
          "midi": 74,
          "time": 86.73000000000008,
          "velocity": 0.7874015748031497,
          "duration": 0.043512500000005616
        },
        {
          "name": "F#5",
          "midi": 78,
          "time": 86.73000000000008,
          "velocity": 0.7874015748031497,
          "duration": 0.043512500000005616
        },
        {
          "name": "C#6",
          "midi": 85,
          "time": 86.73000000000008,
          "velocity": 0.7874015748031497,
          "duration": 0.3532624999999996
        },
        {
          "name": "D#6",
          "midi": 87,
          "time": 86.73000000000008,
          "velocity": 0.7874015748031497,
          "duration": 0.3532624999999996
        },
        {
          "name": "F#6",
          "midi": 90,
          "time": 86.73000000000008,
          "velocity": 0.7874015748031497,
          "duration": 0.352525
        },
        {
          "name": "C#7",
          "midi": 97,
          "time": 86.73000000000008,
          "velocity": 0.7874015748031497,
          "duration": 0.3532624999999996
        },
        {
          "name": "D7",
          "midi": 98,
          "time": 86.73000000000008,
          "velocity": 0.7874015748031497,
          "duration": 0.3532624999999996
        },
        {
          "name": "D#7",
          "midi": 99,
          "time": 86.73000000000008,
          "velocity": 0.7874015748031497,
          "duration": 0.3532624999999996
        },
        {
          "name": "F#7",
          "midi": 102,
          "time": 86.73000000000008,
          "velocity": 0.7874015748031497,
          "duration": 0.352525
        },
        {
          "name": "C#4",
          "midi": 61,
          "time": 87.08400000000007,
          "velocity": 0.7874015748031497,
          "duration": 0.04498750000000484
        },
        {
          "name": "F#4",
          "midi": 66,
          "time": 87.08400000000007,
          "velocity": 0.7874015748031497,
          "duration": 0.04498750000000484
        },
        {
          "name": "C#5",
          "midi": 73,
          "time": 87.08400000000007,
          "velocity": 0.7874015748031497,
          "duration": 0.04498750000000484
        },
        {
          "name": "D5",
          "midi": 74,
          "time": 87.08400000000007,
          "velocity": 0.7874015748031497,
          "duration": 0.04498750000000484
        },
        {
          "name": "F#5",
          "midi": 78,
          "time": 87.08400000000007,
          "velocity": 0.7874015748031497,
          "duration": 0.04498750000000484
        },
        {
          "name": "C#6",
          "midi": 85,
          "time": 87.08400000000007,
          "velocity": 0.7874015748031497,
          "duration": 0.35178750000000036
        },
        {
          "name": "D#6",
          "midi": 87,
          "time": 87.08400000000007,
          "velocity": 0.7874015748031497,
          "duration": 0.35178750000000036
        },
        {
          "name": "F#6",
          "midi": 90,
          "time": 87.08400000000007,
          "velocity": 0.7874015748031497,
          "duration": 0.35178750000000036
        },
        {
          "name": "C#7",
          "midi": 97,
          "time": 87.08400000000007,
          "velocity": 0.7874015748031497,
          "duration": 0.35178750000000036
        },
        {
          "name": "D7",
          "midi": 98,
          "time": 87.08400000000007,
          "velocity": 0.7874015748031497,
          "duration": 0.35178750000000036
        },
        {
          "name": "D#7",
          "midi": 99,
          "time": 87.08400000000007,
          "velocity": 0.7874015748031497,
          "duration": 0.35178750000000036
        },
        {
          "name": "F#7",
          "midi": 102,
          "time": 87.08400000000007,
          "velocity": 0.7874015748031497,
          "duration": 0.35178750000000036
        },
        {
          "name": "C#4",
          "midi": 61,
          "time": 87.43800000000007,
          "velocity": 0.7874015748031497,
          "duration": 0.043512500000005616
        },
        {
          "name": "F#4",
          "midi": 66,
          "time": 87.43800000000007,
          "velocity": 0.7874015748031497,
          "duration": 0.043512500000005616
        },
        {
          "name": "C#5",
          "midi": 73,
          "time": 87.43800000000007,
          "velocity": 0.7874015748031497,
          "duration": 0.043512500000005616
        },
        {
          "name": "D5",
          "midi": 74,
          "time": 87.43800000000007,
          "velocity": 0.7874015748031497,
          "duration": 0.043512500000005616
        },
        {
          "name": "F#5",
          "midi": 78,
          "time": 87.43800000000007,
          "velocity": 0.7874015748031497,
          "duration": 0.043512500000005616
        },
        {
          "name": "C#6",
          "midi": 85,
          "time": 87.43800000000007,
          "velocity": 0.7874015748031497,
          "duration": 0.35178750000000036
        },
        {
          "name": "D#6",
          "midi": 87,
          "time": 87.43800000000007,
          "velocity": 0.7874015748031497,
          "duration": 0.35178750000000036
        },
        {
          "name": "F#6",
          "midi": 90,
          "time": 87.43800000000007,
          "velocity": 0.7874015748031497,
          "duration": 0.35178750000000036
        },
        {
          "name": "C#7",
          "midi": 97,
          "time": 87.43800000000007,
          "velocity": 0.7874015748031497,
          "duration": 0.35178750000000036
        },
        {
          "name": "D7",
          "midi": 98,
          "time": 87.43800000000007,
          "velocity": 0.7874015748031497,
          "duration": 0.35178750000000036
        },
        {
          "name": "D#7",
          "midi": 99,
          "time": 87.43800000000007,
          "velocity": 0.7874015748031497,
          "duration": 0.35178750000000036
        },
        {
          "name": "F#7",
          "midi": 102,
          "time": 87.43800000000007,
          "velocity": 0.7874015748031497,
          "duration": 0.35178750000000036
        },
        {
          "name": "C4",
          "midi": 60,
          "time": 87.79200000000007,
          "velocity": 0.7874015748031497,
          "duration": 0.043512500000005616
        },
        {
          "name": "F#4",
          "midi": 66,
          "time": 87.79200000000007,
          "velocity": 0.7874015748031497,
          "duration": 0.043512500000005616
        },
        {
          "name": "C5",
          "midi": 72,
          "time": 87.79200000000007,
          "velocity": 0.7874015748031497,
          "duration": 0.043512500000005616
        },
        {
          "name": "C#5",
          "midi": 73,
          "time": 87.79200000000007,
          "velocity": 0.7874015748031497,
          "duration": 0.043512500000005616
        },
        {
          "name": "F#5",
          "midi": 78,
          "time": 87.79200000000007,
          "velocity": 0.7874015748031497,
          "duration": 0.043512500000005616
        },
        {
          "name": "C6",
          "midi": 84,
          "time": 87.79200000000007,
          "velocity": 0.7874015748031497,
          "duration": 0.043512500000005616
        },
        {
          "name": "C#6",
          "midi": 85,
          "time": 87.79200000000007,
          "velocity": 0.7874015748031497,
          "duration": 0.043512500000005616
        },
        {
          "name": "F#6",
          "midi": 90,
          "time": 87.79200000000007,
          "velocity": 0.7874015748031497,
          "duration": 0.043512500000005616
        },
        {
          "name": "C7",
          "midi": 96,
          "time": 87.79200000000007,
          "velocity": 0.7874015748031497,
          "duration": 0.043512500000005616
        },
        {
          "name": "C#7",
          "midi": 97,
          "time": 87.79200000000007,
          "velocity": 0.7874015748031497,
          "duration": 0.043512500000005616
        },
        {
          "name": "F#7",
          "midi": 102,
          "time": 87.79200000000007,
          "velocity": 0.7874015748031497,
          "duration": 0.043512500000005616
        },
        {
          "name": "C5",
          "midi": 72,
          "time": 87.96973750000008,
          "velocity": 0.7874015748031497,
          "duration": 0.042775000000006
        },
        {
          "name": "C#5",
          "midi": 73,
          "time": 87.96973750000008,
          "velocity": 0.7874015748031497,
          "duration": 0.042775000000006
        },
        {
          "name": "F#5",
          "midi": 78,
          "time": 87.96973750000008,
          "velocity": 0.7874015748031497,
          "duration": 0.042775000000006
        },
        {
          "name": "C6",
          "midi": 84,
          "time": 87.96973750000008,
          "velocity": 0.7874015748031497,
          "duration": 0.3539999999999992
        },
        {
          "name": "C#6",
          "midi": 85,
          "time": 87.96973750000008,
          "velocity": 0.7874015748031497,
          "duration": 0.3539999999999992
        },
        {
          "name": "F#6",
          "midi": 90,
          "time": 87.96973750000008,
          "velocity": 0.7874015748031497,
          "duration": 0.3539999999999992
        },
        {
          "name": "C7",
          "midi": 96,
          "time": 87.96973750000008,
          "velocity": 0.7874015748031497,
          "duration": 0.35178750000000036
        },
        {
          "name": "C#7",
          "midi": 97,
          "time": 87.96973750000008,
          "velocity": 0.7874015748031497,
          "duration": 0.35178750000000036
        },
        {
          "name": "F#7",
          "midi": 102,
          "time": 87.96973750000008,
          "velocity": 0.7874015748031497,
          "duration": 0.35178750000000036
        },
        {
          "name": "C7",
          "midi": 96,
          "time": 88.32373750000008,
          "velocity": 0.7874015748031497,
          "duration": 0.042775000000006
        },
        {
          "name": "C#7",
          "midi": 97,
          "time": 88.32373750000008,
          "velocity": 0.7874015748031497,
          "duration": 0.042775000000006
        },
        {
          "name": "F#7",
          "midi": 102,
          "time": 88.32373750000008,
          "velocity": 0.7874015748031497,
          "duration": 0.042775000000006
        },
        {
          "name": "D4",
          "midi": 62,
          "time": 88.50000000000009,
          "velocity": 0.7874015748031497,
          "duration": 10.617787500000006
        },
        {
          "name": "F#4",
          "midi": 66,
          "time": 88.50000000000009,
          "velocity": 0.7874015748031497,
          "duration": 10.617787500000006
        },
        {
          "name": "D5",
          "midi": 74,
          "time": 88.50000000000009,
          "velocity": 0.7874015748031497,
          "duration": 10.617787500000006
        },
        {
          "name": "D#5",
          "midi": 75,
          "time": 88.50000000000009,
          "velocity": 0.7874015748031497,
          "duration": 10.617787500000006
        },
        {
          "name": "F#5",
          "midi": 78,
          "time": 88.50000000000009,
          "velocity": 0.7874015748031497,
          "duration": 10.617787500000006
        },
        {
          "name": "D6",
          "midi": 86,
          "time": 88.50000000000009,
          "velocity": 0.7874015748031497,
          "duration": 10.617787500000006
        },
        {
          "name": "E6",
          "midi": 88,
          "time": 88.50000000000009,
          "velocity": 0.7874015748031497,
          "duration": 10.617787500000006
        },
        {
          "name": "F#6",
          "midi": 90,
          "time": 88.50000000000009,
          "velocity": 0.7874015748031497,
          "duration": 10.617787500000006
        },
        {
          "name": "D7",
          "midi": 98,
          "time": 88.50000000000009,
          "velocity": 0.7874015748031497,
          "duration": 10.617787500000006
        },
        {
          "name": "D#7",
          "midi": 99,
          "time": 88.50000000000009,
          "velocity": 0.7874015748031497,
          "duration": 10.617787500000006
        },
        {
          "name": "E7",
          "midi": 100,
          "time": 88.50000000000009,
          "velocity": 0.7874015748031497,
          "duration": 10.617787500000006
        },
        {
          "name": "F#7",
          "midi": 102,
          "time": 88.50000000000009,
          "velocity": 0.7874015748031497,
          "duration": 10.617787500000006
        },
        {
          "name": "D4",
          "midi": 62,
          "time": 99.12000000000009,
          "velocity": 0.7874015748031497,
          "duration": 0.043512500000005616
        },
        {
          "name": "F#4",
          "midi": 66,
          "time": 99.12000000000009,
          "velocity": 0.7874015748031497,
          "duration": 0.043512500000005616
        },
        {
          "name": "D#5",
          "midi": 75,
          "time": 99.12000000000009,
          "velocity": 0.7874015748031497,
          "duration": 0.043512500000005616
        },
        {
          "name": "F#5",
          "midi": 78,
          "time": 99.12000000000009,
          "velocity": 0.7874015748031497,
          "duration": 0.043512500000005616
        },
        {
          "name": "E6",
          "midi": 88,
          "time": 99.12000000000009,
          "velocity": 0.7874015748031497,
          "duration": 0.043512500000005616
        },
        {
          "name": "F#6",
          "midi": 90,
          "time": 99.12000000000009,
          "velocity": 0.7874015748031497,
          "duration": 0.043512500000005616
        },
        {
          "name": "E7",
          "midi": 100,
          "time": 99.12000000000009,
          "velocity": 0.7874015748031497,
          "duration": 0.043512500000005616
        },
        {
          "name": "F#7",
          "midi": 102,
          "time": 99.12000000000009,
          "velocity": 0.7874015748031497,
          "duration": 0.043512500000005616
        },
        {
          "name": "C#5",
          "midi": 73,
          "time": 99.2962625000001,
          "velocity": 0.7874015748031497,
          "duration": 0.04425000000000523
        },
        {
          "name": "F#5",
          "midi": 78,
          "time": 99.2962625000001,
          "velocity": 0.7874015748031497,
          "duration": 0.04425000000000523
        },
        {
          "name": "D6",
          "midi": 86,
          "time": 99.2962625000001,
          "velocity": 0.7874015748031497,
          "duration": 0.04425000000000523
        },
        {
          "name": "F#6",
          "midi": 90,
          "time": 99.2962625000001,
          "velocity": 0.7874015748031497,
          "duration": 0.04425000000000523
        },
        {
          "name": "D7",
          "midi": 98,
          "time": 99.2962625000001,
          "velocity": 0.7874015748031497,
          "duration": 0.04425000000000523
        },
        {
          "name": "F#7",
          "midi": 102,
          "time": 99.2962625000001,
          "velocity": 0.7874015748031497,
          "duration": 0.04425000000000523
        },
        {
          "name": "C#4",
          "midi": 61,
          "time": 99.4740000000001,
          "velocity": 0.7874015748031497,
          "duration": 0.043512500000005616
        },
        {
          "name": "F#4",
          "midi": 66,
          "time": 99.4740000000001,
          "velocity": 0.7874015748031497,
          "duration": 0.043512500000005616
        },
        {
          "name": "D5",
          "midi": 74,
          "time": 99.4740000000001,
          "velocity": 0.7874015748031497,
          "duration": 0.043512500000005616
        },
        {
          "name": "F#5",
          "midi": 78,
          "time": 99.4740000000001,
          "velocity": 0.7874015748031497,
          "duration": 0.043512500000005616
        },
        {
          "name": "D#6",
          "midi": 87,
          "time": 99.4740000000001,
          "velocity": 0.7874015748031497,
          "duration": 0.043512500000005616
        },
        {
          "name": "F#6",
          "midi": 90,
          "time": 99.4740000000001,
          "velocity": 0.7874015748031497,
          "duration": 0.043512500000005616
        },
        {
          "name": "D#7",
          "midi": 99,
          "time": 99.4740000000001,
          "velocity": 0.7874015748031497,
          "duration": 0.043512500000005616
        },
        {
          "name": "F#7",
          "midi": 102,
          "time": 99.4740000000001,
          "velocity": 0.7874015748031497,
          "duration": 0.043512500000005616
        },
        {
          "name": "C#7",
          "midi": 97,
          "time": 99.65100000000011,
          "velocity": 0.7874015748031497,
          "duration": 0.043512500000005616
        },
        {
          "name": "F#7",
          "midi": 102,
          "time": 99.65100000000011,
          "velocity": 0.7874015748031497,
          "duration": 0.043512500000005616
        },
        {
          "name": "C#4",
          "midi": 61,
          "time": 99.82800000000012,
          "velocity": 0.7874015748031497,
          "duration": 0.043512500000005616
        },
        {
          "name": "F#4",
          "midi": 66,
          "time": 99.82800000000012,
          "velocity": 0.7874015748031497,
          "duration": 0.043512500000005616
        },
        {
          "name": "D5",
          "midi": 74,
          "time": 99.82800000000012,
          "velocity": 0.7874015748031497,
          "duration": 0.043512500000005616
        },
        {
          "name": "F#5",
          "midi": 78,
          "time": 99.82800000000012,
          "velocity": 0.7874015748031497,
          "duration": 0.043512500000005616
        },
        {
          "name": "D6",
          "midi": 86,
          "time": 99.82800000000012,
          "velocity": 0.7874015748031497,
          "duration": 0.043512500000005616
        },
        {
          "name": "F#6",
          "midi": 90,
          "time": 99.82800000000012,
          "velocity": 0.7874015748031497,
          "duration": 0.043512500000005616
        },
        {
          "name": "D7",
          "midi": 98,
          "time": 99.82800000000012,
          "velocity": 0.7874015748031497,
          "duration": 0.043512500000005616
        },
        {
          "name": "F#7",
          "midi": 102,
          "time": 99.82800000000012,
          "velocity": 0.7874015748031497,
          "duration": 0.043512500000005616
        },
        {
          "name": "C4",
          "midi": 60,
          "time": 100.00426250000012,
          "velocity": 0.7874015748031497,
          "duration": 0.043512500000005616
        },
        {
          "name": "F#4",
          "midi": 66,
          "time": 100.00426250000012,
          "velocity": 0.7874015748031497,
          "duration": 0.043512500000005616
        },
        {
          "name": "C#5",
          "midi": 73,
          "time": 100.00426250000012,
          "velocity": 0.7874015748031497,
          "duration": 0.043512500000005616
        },
        {
          "name": "F#5",
          "midi": 78,
          "time": 100.00426250000012,
          "velocity": 0.7874015748031497,
          "duration": 0.043512500000005616
        },
        {
          "name": "C#6",
          "midi": 85,
          "time": 100.00426250000012,
          "velocity": 0.7874015748031497,
          "duration": 0.3532624999999996
        },
        {
          "name": "F#6",
          "midi": 90,
          "time": 100.00426250000012,
          "velocity": 0.7874015748031497,
          "duration": 0.3532624999999996
        },
        {
          "name": "C#7",
          "midi": 97,
          "time": 100.00426250000012,
          "velocity": 0.7874015748031497,
          "duration": 0.3532624999999996
        },
        {
          "name": "F#7",
          "midi": 102,
          "time": 100.00426250000012,
          "velocity": 0.7874015748031497,
          "duration": 0.3532624999999996
        },
        {
          "name": "D4",
          "midi": 62,
          "time": 100.35973750000012,
          "velocity": 0.7874015748031497,
          "duration": 0.043512500000005616
        },
        {
          "name": "F#4",
          "midi": 66,
          "time": 100.35973750000012,
          "velocity": 0.7874015748031497,
          "duration": 0.043512500000005616
        },
        {
          "name": "D#5",
          "midi": 75,
          "time": 100.35973750000012,
          "velocity": 0.7874015748031497,
          "duration": 0.043512500000005616
        },
        {
          "name": "F#5",
          "midi": 78,
          "time": 100.35973750000012,
          "velocity": 0.7874015748031497,
          "duration": 0.043512500000005616
        },
        {
          "name": "E6",
          "midi": 88,
          "time": 100.35973750000012,
          "velocity": 0.7874015748031497,
          "duration": 0.35178750000000036
        },
        {
          "name": "F#6",
          "midi": 90,
          "time": 100.35973750000012,
          "velocity": 0.7874015748031497,
          "duration": 0.35178750000000036
        },
        {
          "name": "E7",
          "midi": 100,
          "time": 100.35973750000012,
          "velocity": 0.7874015748031497,
          "duration": 0.35178750000000036
        },
        {
          "name": "F#7",
          "midi": 102,
          "time": 100.35973750000012,
          "velocity": 0.7874015748031497,
          "duration": 0.35178750000000036
        },
        {
          "name": "C#5",
          "midi": 73,
          "time": 100.71373750000012,
          "velocity": 0.7874015748031497,
          "duration": 0.043512500000005616
        },
        {
          "name": "F#5",
          "midi": 78,
          "time": 100.71373750000012,
          "velocity": 0.7874015748031497,
          "duration": 0.043512500000005616
        },
        {
          "name": "D6",
          "midi": 86,
          "time": 100.71373750000012,
          "velocity": 0.7874015748031497,
          "duration": 0.043512500000005616
        },
        {
          "name": "F#6",
          "midi": 90,
          "time": 100.71373750000012,
          "velocity": 0.7874015748031497,
          "duration": 0.043512500000005616
        },
        {
          "name": "D7",
          "midi": 98,
          "time": 100.71373750000012,
          "velocity": 0.7874015748031497,
          "duration": 0.043512500000005616
        },
        {
          "name": "F#7",
          "midi": 102,
          "time": 100.71373750000012,
          "velocity": 0.7874015748031497,
          "duration": 0.043512500000005616
        },
        {
          "name": "C#4",
          "midi": 61,
          "time": 100.89000000000013,
          "velocity": 0.7874015748031497,
          "duration": 0.043512500000005616
        },
        {
          "name": "F#4",
          "midi": 66,
          "time": 100.89000000000013,
          "velocity": 0.7874015748031497,
          "duration": 0.043512500000005616
        },
        {
          "name": "D5",
          "midi": 74,
          "time": 100.89000000000013,
          "velocity": 0.7874015748031497,
          "duration": 0.043512500000005616
        },
        {
          "name": "F#5",
          "midi": 78,
          "time": 100.89000000000013,
          "velocity": 0.7874015748031497,
          "duration": 0.043512500000005616
        },
        {
          "name": "D#6",
          "midi": 87,
          "time": 100.89000000000013,
          "velocity": 0.7874015748031497,
          "duration": 0.043512500000005616
        },
        {
          "name": "F#6",
          "midi": 90,
          "time": 100.89000000000013,
          "velocity": 0.7874015748031497,
          "duration": 0.043512500000005616
        },
        {
          "name": "D#7",
          "midi": 99,
          "time": 100.89000000000013,
          "velocity": 0.7874015748031497,
          "duration": 0.043512500000005616
        },
        {
          "name": "F#7",
          "midi": 102,
          "time": 100.89000000000013,
          "velocity": 0.7874015748031497,
          "duration": 0.043512500000005616
        },
        {
          "name": "C#7",
          "midi": 97,
          "time": 101.06700000000014,
          "velocity": 0.7874015748031497,
          "duration": 0.043512500000005616
        },
        {
          "name": "F#7",
          "midi": 102,
          "time": 101.06700000000014,
          "velocity": 0.7874015748031497,
          "duration": 0.043512500000005616
        },
        {
          "name": "C4",
          "midi": 60,
          "time": 101.24400000000014,
          "velocity": 0.7874015748031497,
          "duration": 0.043512500000005616
        },
        {
          "name": "F#4",
          "midi": 66,
          "time": 101.24400000000014,
          "velocity": 0.7874015748031497,
          "duration": 0.043512500000005616
        },
        {
          "name": "C#5",
          "midi": 73,
          "time": 101.24400000000014,
          "velocity": 0.7874015748031497,
          "duration": 0.043512500000005616
        },
        {
          "name": "F#5",
          "midi": 78,
          "time": 101.24400000000014,
          "velocity": 0.7874015748031497,
          "duration": 0.043512500000005616
        },
        {
          "name": "D6",
          "midi": 86,
          "time": 101.24400000000014,
          "velocity": 0.7874015748031497,
          "duration": 0.043512500000005616
        },
        {
          "name": "F#6",
          "midi": 90,
          "time": 101.24400000000014,
          "velocity": 0.7874015748031497,
          "duration": 0.043512500000005616
        },
        {
          "name": "D7",
          "midi": 98,
          "time": 101.24400000000014,
          "velocity": 0.7874015748031497,
          "duration": 0.043512500000005616
        },
        {
          "name": "F#7",
          "midi": 102,
          "time": 101.24400000000014,
          "velocity": 0.7874015748031497,
          "duration": 0.043512500000005616
        },
        {
          "name": "C6",
          "midi": 84,
          "time": 101.42026250000015,
          "velocity": 0.7874015748031497,
          "duration": 0.04425000000000523
        },
        {
          "name": "F#6",
          "midi": 90,
          "time": 101.42026250000015,
          "velocity": 0.7874015748031497,
          "duration": 0.04425000000000523
        },
        {
          "name": "C7",
          "midi": 96,
          "time": 101.42026250000015,
          "velocity": 0.7874015748031497,
          "duration": 0.04425000000000523
        },
        {
          "name": "F#7",
          "midi": 102,
          "time": 101.42026250000015,
          "velocity": 0.7874015748031497,
          "duration": 0.04425000000000523
        },
        {
          "name": "D4",
          "midi": 62,
          "time": 101.59800000000016,
          "velocity": 0.7874015748031497,
          "duration": 0.043512500000005616
        },
        {
          "name": "F#4",
          "midi": 66,
          "time": 101.59800000000016,
          "velocity": 0.7874015748031497,
          "duration": 0.043512500000005616
        },
        {
          "name": "D#5",
          "midi": 75,
          "time": 101.59800000000016,
          "velocity": 0.7874015748031497,
          "duration": 0.043512500000005616
        },
        {
          "name": "F#5",
          "midi": 78,
          "time": 101.59800000000016,
          "velocity": 0.7874015748031497,
          "duration": 0.043512500000005616
        },
        {
          "name": "E6",
          "midi": 88,
          "time": 101.59800000000016,
          "velocity": 0.7874015748031497,
          "duration": 0.043512500000005616
        },
        {
          "name": "F#6",
          "midi": 90,
          "time": 101.59800000000016,
          "velocity": 0.7874015748031497,
          "duration": 0.043512500000005616
        },
        {
          "name": "E7",
          "midi": 100,
          "time": 101.59800000000016,
          "velocity": 0.7874015748031497,
          "duration": 0.043512500000005616
        },
        {
          "name": "F#7",
          "midi": 102,
          "time": 101.59800000000016,
          "velocity": 0.7874015748031497,
          "duration": 0.043512500000005616
        },
        {
          "name": "C#5",
          "midi": 73,
          "time": 101.77426250000016,
          "velocity": 0.7874015748031497,
          "duration": 0.04425000000000523
        },
        {
          "name": "F#5",
          "midi": 78,
          "time": 101.77426250000016,
          "velocity": 0.7874015748031497,
          "duration": 0.04425000000000523
        },
        {
          "name": "D6",
          "midi": 86,
          "time": 101.77426250000016,
          "velocity": 0.7874015748031497,
          "duration": 0.04425000000000523
        },
        {
          "name": "F#6",
          "midi": 90,
          "time": 101.77426250000016,
          "velocity": 0.7874015748031497,
          "duration": 0.04425000000000523
        },
        {
          "name": "D7",
          "midi": 98,
          "time": 101.77426250000016,
          "velocity": 0.7874015748031497,
          "duration": 0.04425000000000523
        },
        {
          "name": "F#7",
          "midi": 102,
          "time": 101.77426250000016,
          "velocity": 0.7874015748031497,
          "duration": 0.04425000000000523
        },
        {
          "name": "C#4",
          "midi": 61,
          "time": 101.95200000000017,
          "velocity": 0.7874015748031497,
          "duration": 0.043512500000005616
        },
        {
          "name": "F#4",
          "midi": 66,
          "time": 101.95200000000017,
          "velocity": 0.7874015748031497,
          "duration": 0.043512500000005616
        },
        {
          "name": "D5",
          "midi": 74,
          "time": 101.95200000000017,
          "velocity": 0.7874015748031497,
          "duration": 0.043512500000005616
        },
        {
          "name": "F#5",
          "midi": 78,
          "time": 101.95200000000017,
          "velocity": 0.7874015748031497,
          "duration": 0.043512500000005616
        },
        {
          "name": "D#6",
          "midi": 87,
          "time": 101.95200000000017,
          "velocity": 0.7874015748031497,
          "duration": 0.043512500000005616
        },
        {
          "name": "F#6",
          "midi": 90,
          "time": 101.95200000000017,
          "velocity": 0.7874015748031497,
          "duration": 0.043512500000005616
        },
        {
          "name": "D#7",
          "midi": 99,
          "time": 101.95200000000017,
          "velocity": 0.7874015748031497,
          "duration": 0.043512500000005616
        },
        {
          "name": "F#7",
          "midi": 102,
          "time": 101.95200000000017,
          "velocity": 0.7874015748031497,
          "duration": 0.043512500000005616
        },
        {
          "name": "C#7",
          "midi": 97,
          "time": 102.12900000000018,
          "velocity": 0.7874015748031497,
          "duration": 0.043512500000005616
        },
        {
          "name": "F#7",
          "midi": 102,
          "time": 102.12900000000018,
          "velocity": 0.7874015748031497,
          "duration": 0.043512500000005616
        },
        {
          "name": "C#4",
          "midi": 61,
          "time": 102.30600000000018,
          "velocity": 0.7874015748031497,
          "duration": 0.043512500000005616
        },
        {
          "name": "F#4",
          "midi": 66,
          "time": 102.30600000000018,
          "velocity": 0.7874015748031497,
          "duration": 0.043512500000005616
        },
        {
          "name": "D5",
          "midi": 74,
          "time": 102.30600000000018,
          "velocity": 0.7874015748031497,
          "duration": 0.043512500000005616
        },
        {
          "name": "F#5",
          "midi": 78,
          "time": 102.30600000000018,
          "velocity": 0.7874015748031497,
          "duration": 0.043512500000005616
        },
        {
          "name": "D6",
          "midi": 86,
          "time": 102.30600000000018,
          "velocity": 0.7874015748031497,
          "duration": 0.043512500000005616
        },
        {
          "name": "F#6",
          "midi": 90,
          "time": 102.30600000000018,
          "velocity": 0.7874015748031497,
          "duration": 0.043512500000005616
        },
        {
          "name": "D7",
          "midi": 98,
          "time": 102.30600000000018,
          "velocity": 0.7874015748031497,
          "duration": 0.043512500000005616
        },
        {
          "name": "F#7",
          "midi": 102,
          "time": 102.30600000000018,
          "velocity": 0.7874015748031497,
          "duration": 0.043512500000005616
        },
        {
          "name": "C4",
          "midi": 60,
          "time": 102.48226250000019,
          "velocity": 0.7874015748031497,
          "duration": 0.043512500000005616
        },
        {
          "name": "F#4",
          "midi": 66,
          "time": 102.48226250000019,
          "velocity": 0.7874015748031497,
          "duration": 0.043512500000005616
        },
        {
          "name": "C#5",
          "midi": 73,
          "time": 102.48226250000019,
          "velocity": 0.7874015748031497,
          "duration": 0.043512500000005616
        },
        {
          "name": "F#5",
          "midi": 78,
          "time": 102.48226250000019,
          "velocity": 0.7874015748031497,
          "duration": 0.043512500000005616
        },
        {
          "name": "C#6",
          "midi": 85,
          "time": 102.48226250000019,
          "velocity": 0.7874015748031497,
          "duration": 0.352525
        },
        {
          "name": "F#6",
          "midi": 90,
          "time": 102.48226250000019,
          "velocity": 0.7874015748031497,
          "duration": 0.352525
        },
        {
          "name": "C#7",
          "midi": 97,
          "time": 102.48226250000019,
          "velocity": 0.7874015748031497,
          "duration": 0.352525
        },
        {
          "name": "F#7",
          "midi": 102,
          "time": 102.48226250000019,
          "velocity": 0.7874015748031497,
          "duration": 0.352525
        },
        {
          "name": "D4",
          "midi": 62,
          "time": 102.83700000000019,
          "velocity": 0.7874015748031497,
          "duration": 0.043512500000005616
        },
        {
          "name": "F#4",
          "midi": 66,
          "time": 102.83700000000019,
          "velocity": 0.7874015748031497,
          "duration": 0.043512500000005616
        },
        {
          "name": "D#5",
          "midi": 75,
          "time": 102.83700000000019,
          "velocity": 0.7874015748031497,
          "duration": 0.043512500000005616
        },
        {
          "name": "F#5",
          "midi": 78,
          "time": 102.83700000000019,
          "velocity": 0.7874015748031497,
          "duration": 0.043512500000005616
        },
        {
          "name": "E6",
          "midi": 88,
          "time": 102.83700000000019,
          "velocity": 0.7874015748031497,
          "duration": 0.35178750000000036
        },
        {
          "name": "F#6",
          "midi": 90,
          "time": 102.83700000000019,
          "velocity": 0.7874015748031497,
          "duration": 0.35178750000000036
        },
        {
          "name": "E7",
          "midi": 100,
          "time": 102.83700000000019,
          "velocity": 0.7874015748031497,
          "duration": 0.35178750000000036
        },
        {
          "name": "F#7",
          "midi": 102,
          "time": 102.83700000000019,
          "velocity": 0.7874015748031497,
          "duration": 0.35178750000000036
        },
        {
          "name": "C#5",
          "midi": 73,
          "time": 103.19100000000019,
          "velocity": 0.7874015748031497,
          "duration": 0.043512500000005616
        },
        {
          "name": "F#5",
          "midi": 78,
          "time": 103.19100000000019,
          "velocity": 0.7874015748031497,
          "duration": 0.043512500000005616
        },
        {
          "name": "D6",
          "midi": 86,
          "time": 103.19100000000019,
          "velocity": 0.7874015748031497,
          "duration": 0.043512500000005616
        },
        {
          "name": "F#6",
          "midi": 90,
          "time": 103.19100000000019,
          "velocity": 0.7874015748031497,
          "duration": 0.043512500000005616
        },
        {
          "name": "D7",
          "midi": 98,
          "time": 103.19100000000019,
          "velocity": 0.7874015748031497,
          "duration": 0.043512500000005616
        },
        {
          "name": "F#7",
          "midi": 102,
          "time": 103.19100000000019,
          "velocity": 0.7874015748031497,
          "duration": 0.043512500000005616
        },
        {
          "name": "C#4",
          "midi": 61,
          "time": 103.3680000000002,
          "velocity": 0.7874015748031497,
          "duration": 0.043512500000005616
        },
        {
          "name": "F#4",
          "midi": 66,
          "time": 103.3680000000002,
          "velocity": 0.7874015748031497,
          "duration": 0.043512500000005616
        },
        {
          "name": "D5",
          "midi": 74,
          "time": 103.3680000000002,
          "velocity": 0.7874015748031497,
          "duration": 0.043512500000005616
        },
        {
          "name": "F#5",
          "midi": 78,
          "time": 103.3680000000002,
          "velocity": 0.7874015748031497,
          "duration": 0.043512500000005616
        },
        {
          "name": "D#6",
          "midi": 87,
          "time": 103.3680000000002,
          "velocity": 0.7874015748031497,
          "duration": 0.043512500000005616
        },
        {
          "name": "F#6",
          "midi": 90,
          "time": 103.3680000000002,
          "velocity": 0.7874015748031497,
          "duration": 0.043512500000005616
        },
        {
          "name": "D#7",
          "midi": 99,
          "time": 103.3680000000002,
          "velocity": 0.7874015748031497,
          "duration": 0.043512500000005616
        },
        {
          "name": "F#7",
          "midi": 102,
          "time": 103.3680000000002,
          "velocity": 0.7874015748031497,
          "duration": 0.043512500000005616
        },
        {
          "name": "C#7",
          "midi": 97,
          "time": 103.5457375000002,
          "velocity": 0.7874015748031497,
          "duration": 0.042775000000006
        },
        {
          "name": "F#7",
          "midi": 102,
          "time": 103.5457375000002,
          "velocity": 0.7874015748031497,
          "duration": 0.042775000000006
        },
        {
          "name": "C4",
          "midi": 60,
          "time": 103.72200000000021,
          "velocity": 0.7874015748031497,
          "duration": 0.043512500000005616
        },
        {
          "name": "F#4",
          "midi": 66,
          "time": 103.72200000000021,
          "velocity": 0.7874015748031497,
          "duration": 0.043512500000005616
        },
        {
          "name": "C#5",
          "midi": 73,
          "time": 103.72200000000021,
          "velocity": 0.7874015748031497,
          "duration": 0.043512500000005616
        },
        {
          "name": "F#5",
          "midi": 78,
          "time": 103.72200000000021,
          "velocity": 0.7874015748031497,
          "duration": 0.043512500000005616
        },
        {
          "name": "D6",
          "midi": 86,
          "time": 103.72200000000021,
          "velocity": 0.7874015748031497,
          "duration": 0.043512500000005616
        },
        {
          "name": "F#6",
          "midi": 90,
          "time": 103.72200000000021,
          "velocity": 0.7874015748031497,
          "duration": 0.043512500000005616
        },
        {
          "name": "D7",
          "midi": 98,
          "time": 103.72200000000021,
          "velocity": 0.7874015748031497,
          "duration": 0.043512500000005616
        },
        {
          "name": "F#7",
          "midi": 102,
          "time": 103.72200000000021,
          "velocity": 0.7874015748031497,
          "duration": 0.043512500000005616
        },
        {
          "name": "C6",
          "midi": 84,
          "time": 103.89826250000021,
          "velocity": 0.7874015748031497,
          "duration": 0.04425000000000523
        },
        {
          "name": "F#6",
          "midi": 90,
          "time": 103.89826250000021,
          "velocity": 0.7874015748031497,
          "duration": 0.04425000000000523
        },
        {
          "name": "C7",
          "midi": 96,
          "time": 103.89826250000021,
          "velocity": 0.7874015748031497,
          "duration": 0.04425000000000523
        },
        {
          "name": "F#7",
          "midi": 102,
          "time": 103.89826250000021,
          "velocity": 0.7874015748031497,
          "duration": 0.04425000000000523
        },
        {
          "name": "G#8",
          "midi": 116,
          "time": 104.07600000000022,
          "velocity": 0.7874015748031497,
          "duration": 4.8232500000001295
        },
        {
          "name": "D4",
          "midi": 62,
          "time": 104.07600000000022,
          "velocity": 0.7874015748031497,
          "duration": 0.04425000000000523
        },
        {
          "name": "F#4",
          "midi": 66,
          "time": 104.07600000000022,
          "velocity": 0.7874015748031497,
          "duration": 0.04425000000000523
        },
        {
          "name": "D#5",
          "midi": 75,
          "time": 104.07600000000022,
          "velocity": 0.7874015748031497,
          "duration": 0.04425000000000523
        },
        {
          "name": "F#5",
          "midi": 78,
          "time": 104.07600000000022,
          "velocity": 0.7874015748031497,
          "duration": 0.04425000000000523
        },
        {
          "name": "E6",
          "midi": 88,
          "time": 104.07600000000022,
          "velocity": 0.7874015748031497,
          "duration": 0.04425000000000523
        },
        {
          "name": "F#6",
          "midi": 90,
          "time": 104.07600000000022,
          "velocity": 0.7874015748031497,
          "duration": 0.04425000000000523
        },
        {
          "name": "E7",
          "midi": 100,
          "time": 104.07600000000022,
          "velocity": 0.7874015748031497,
          "duration": 0.04425000000000523
        },
        {
          "name": "F#7",
          "midi": 102,
          "time": 104.07600000000022,
          "velocity": 0.7874015748031497,
          "duration": 0.04425000000000523
        },
        {
          "name": "C#5",
          "midi": 73,
          "time": 104.25300000000023,
          "velocity": 0.7874015748031497,
          "duration": 0.04425000000000523
        },
        {
          "name": "F#5",
          "midi": 78,
          "time": 104.25300000000023,
          "velocity": 0.7874015748031497,
          "duration": 0.04425000000000523
        },
        {
          "name": "D6",
          "midi": 86,
          "time": 104.25300000000023,
          "velocity": 0.7874015748031497,
          "duration": 0.04425000000000523
        },
        {
          "name": "F#6",
          "midi": 90,
          "time": 104.25300000000023,
          "velocity": 0.7874015748031497,
          "duration": 0.04425000000000523
        },
        {
          "name": "D7",
          "midi": 98,
          "time": 104.25300000000023,
          "velocity": 0.7874015748031497,
          "duration": 0.04425000000000523
        },
        {
          "name": "F#7",
          "midi": 102,
          "time": 104.25300000000023,
          "velocity": 0.7874015748031497,
          "duration": 0.04425000000000523
        },
        {
          "name": "C#4",
          "midi": 61,
          "time": 104.43000000000023,
          "velocity": 0.7874015748031497,
          "duration": 0.043512500000005616
        },
        {
          "name": "F#4",
          "midi": 66,
          "time": 104.43000000000023,
          "velocity": 0.7874015748031497,
          "duration": 0.043512500000005616
        },
        {
          "name": "D5",
          "midi": 74,
          "time": 104.43000000000023,
          "velocity": 0.7874015748031497,
          "duration": 0.043512500000005616
        },
        {
          "name": "F#5",
          "midi": 78,
          "time": 104.43000000000023,
          "velocity": 0.7874015748031497,
          "duration": 0.043512500000005616
        },
        {
          "name": "D#6",
          "midi": 87,
          "time": 104.43000000000023,
          "velocity": 0.7874015748031497,
          "duration": 0.043512500000005616
        },
        {
          "name": "F#6",
          "midi": 90,
          "time": 104.43000000000023,
          "velocity": 0.7874015748031497,
          "duration": 0.043512500000005616
        },
        {
          "name": "D#7",
          "midi": 99,
          "time": 104.43000000000023,
          "velocity": 0.7874015748031497,
          "duration": 0.043512500000005616
        },
        {
          "name": "F#7",
          "midi": 102,
          "time": 104.43000000000023,
          "velocity": 0.7874015748031497,
          "duration": 0.043512500000005616
        },
        {
          "name": "C#7",
          "midi": 97,
          "time": 104.60773750000024,
          "velocity": 0.7874015748031497,
          "duration": 0.043512500000005616
        },
        {
          "name": "F#7",
          "midi": 102,
          "time": 104.60773750000024,
          "velocity": 0.7874015748031497,
          "duration": 0.043512500000005616
        },
        {
          "name": "C#4",
          "midi": 61,
          "time": 104.78400000000025,
          "velocity": 0.7874015748031497,
          "duration": 0.04425000000000523
        },
        {
          "name": "F#4",
          "midi": 66,
          "time": 104.78400000000025,
          "velocity": 0.7874015748031497,
          "duration": 0.04425000000000523
        },
        {
          "name": "D5",
          "midi": 74,
          "time": 104.78400000000025,
          "velocity": 0.7874015748031497,
          "duration": 0.04425000000000523
        },
        {
          "name": "F#5",
          "midi": 78,
          "time": 104.78400000000025,
          "velocity": 0.7874015748031497,
          "duration": 0.04425000000000523
        },
        {
          "name": "D6",
          "midi": 86,
          "time": 104.78400000000025,
          "velocity": 0.7874015748031497,
          "duration": 0.04425000000000523
        },
        {
          "name": "F#6",
          "midi": 90,
          "time": 104.78400000000025,
          "velocity": 0.7874015748031497,
          "duration": 0.04425000000000523
        },
        {
          "name": "D7",
          "midi": 98,
          "time": 104.78400000000025,
          "velocity": 0.7874015748031497,
          "duration": 0.04425000000000523
        },
        {
          "name": "F#7",
          "midi": 102,
          "time": 104.78400000000025,
          "velocity": 0.7874015748031497,
          "duration": 0.04425000000000523
        },
        {
          "name": "C4",
          "midi": 60,
          "time": 104.96100000000025,
          "velocity": 0.7874015748031497,
          "duration": 0.04425000000000523
        },
        {
          "name": "F#4",
          "midi": 66,
          "time": 104.96100000000025,
          "velocity": 0.7874015748031497,
          "duration": 0.04425000000000523
        },
        {
          "name": "C#5",
          "midi": 73,
          "time": 104.96100000000025,
          "velocity": 0.7874015748031497,
          "duration": 0.04425000000000523
        },
        {
          "name": "F#5",
          "midi": 78,
          "time": 104.96100000000025,
          "velocity": 0.7874015748031497,
          "duration": 0.04425000000000523
        },
        {
          "name": "C#6",
          "midi": 85,
          "time": 104.96100000000025,
          "velocity": 0.7874015748031497,
          "duration": 0.352525
        },
        {
          "name": "F#6",
          "midi": 90,
          "time": 104.96100000000025,
          "velocity": 0.7874015748031497,
          "duration": 0.352525
        },
        {
          "name": "C#7",
          "midi": 97,
          "time": 104.96100000000025,
          "velocity": 0.7874015748031497,
          "duration": 0.352525
        },
        {
          "name": "F#7",
          "midi": 102,
          "time": 104.96100000000025,
          "velocity": 0.7874015748031497,
          "duration": 0.352525
        },
        {
          "name": "D4",
          "midi": 62,
          "time": 105.31573750000025,
          "velocity": 0.7874015748031497,
          "duration": 0.043512500000005616
        },
        {
          "name": "F#4",
          "midi": 66,
          "time": 105.31573750000025,
          "velocity": 0.7874015748031497,
          "duration": 0.043512500000005616
        },
        {
          "name": "D#5",
          "midi": 75,
          "time": 105.31573750000025,
          "velocity": 0.7874015748031497,
          "duration": 0.043512500000005616
        },
        {
          "name": "F#5",
          "midi": 78,
          "time": 105.31573750000025,
          "velocity": 0.7874015748031497,
          "duration": 0.043512500000005616
        },
        {
          "name": "E6",
          "midi": 88,
          "time": 105.31573750000025,
          "velocity": 0.7874015748031497,
          "duration": 0.35105000000000075
        },
        {
          "name": "F#6",
          "midi": 90,
          "time": 105.31573750000025,
          "velocity": 0.7874015748031497,
          "duration": 0.35105000000000075
        },
        {
          "name": "E7",
          "midi": 100,
          "time": 105.31573750000025,
          "velocity": 0.7874015748031497,
          "duration": 0.35105000000000075
        },
        {
          "name": "F#7",
          "midi": 102,
          "time": 105.31573750000025,
          "velocity": 0.7874015748031497,
          "duration": 0.35105000000000075
        },
        {
          "name": "C#5",
          "midi": 73,
          "time": 105.66900000000025,
          "velocity": 0.7874015748031497,
          "duration": 0.04425000000000523
        },
        {
          "name": "F#5",
          "midi": 78,
          "time": 105.66900000000025,
          "velocity": 0.7874015748031497,
          "duration": 0.04425000000000523
        },
        {
          "name": "D6",
          "midi": 86,
          "time": 105.66900000000025,
          "velocity": 0.7874015748031497,
          "duration": 0.04425000000000523
        },
        {
          "name": "F#6",
          "midi": 90,
          "time": 105.66900000000025,
          "velocity": 0.7874015748031497,
          "duration": 0.04425000000000523
        },
        {
          "name": "D7",
          "midi": 98,
          "time": 105.66900000000025,
          "velocity": 0.7874015748031497,
          "duration": 0.04425000000000523
        },
        {
          "name": "F#7",
          "midi": 102,
          "time": 105.66900000000025,
          "velocity": 0.7874015748031497,
          "duration": 0.04425000000000523
        },
        {
          "name": "C#4",
          "midi": 61,
          "time": 105.84600000000026,
          "velocity": 0.7874015748031497,
          "duration": 0.043512500000005616
        },
        {
          "name": "F#4",
          "midi": 66,
          "time": 105.84600000000026,
          "velocity": 0.7874015748031497,
          "duration": 0.043512500000005616
        },
        {
          "name": "D5",
          "midi": 74,
          "time": 105.84600000000026,
          "velocity": 0.7874015748031497,
          "duration": 0.043512500000005616
        },
        {
          "name": "F#5",
          "midi": 78,
          "time": 105.84600000000026,
          "velocity": 0.7874015748031497,
          "duration": 0.043512500000005616
        },
        {
          "name": "D#6",
          "midi": 87,
          "time": 105.84600000000026,
          "velocity": 0.7874015748031497,
          "duration": 0.043512500000005616
        },
        {
          "name": "F#6",
          "midi": 90,
          "time": 105.84600000000026,
          "velocity": 0.7874015748031497,
          "duration": 0.043512500000005616
        },
        {
          "name": "D#7",
          "midi": 99,
          "time": 105.84600000000026,
          "velocity": 0.7874015748031497,
          "duration": 0.043512500000005616
        },
        {
          "name": "F#7",
          "midi": 102,
          "time": 105.84600000000026,
          "velocity": 0.7874015748031497,
          "duration": 0.043512500000005616
        },
        {
          "name": "C#7",
          "midi": 97,
          "time": 106.02300000000027,
          "velocity": 0.7874015748031497,
          "duration": 0.043512500000005616
        },
        {
          "name": "F#7",
          "midi": 102,
          "time": 106.02300000000027,
          "velocity": 0.7874015748031497,
          "duration": 0.043512500000005616
        },
        {
          "name": "C4",
          "midi": 60,
          "time": 106.20000000000027,
          "velocity": 0.7874015748031497,
          "duration": 0.043512500000005616
        },
        {
          "name": "F#4",
          "midi": 66,
          "time": 106.20000000000027,
          "velocity": 0.7874015748031497,
          "duration": 0.043512500000005616
        },
        {
          "name": "C#5",
          "midi": 73,
          "time": 106.20000000000027,
          "velocity": 0.7874015748031497,
          "duration": 0.043512500000005616
        },
        {
          "name": "F#5",
          "midi": 78,
          "time": 106.20000000000027,
          "velocity": 0.7874015748031497,
          "duration": 0.043512500000005616
        },
        {
          "name": "D6",
          "midi": 86,
          "time": 106.20000000000027,
          "velocity": 0.7874015748031497,
          "duration": 0.043512500000005616
        },
        {
          "name": "F#6",
          "midi": 90,
          "time": 106.20000000000027,
          "velocity": 0.7874015748031497,
          "duration": 0.043512500000005616
        },
        {
          "name": "D7",
          "midi": 98,
          "time": 106.20000000000027,
          "velocity": 0.7874015748031497,
          "duration": 0.043512500000005616
        },
        {
          "name": "F#7",
          "midi": 102,
          "time": 106.20000000000027,
          "velocity": 0.7874015748031497,
          "duration": 0.043512500000005616
        },
        {
          "name": "C6",
          "midi": 84,
          "time": 106.37700000000028,
          "velocity": 0.7874015748031497,
          "duration": 0.043512500000005616
        },
        {
          "name": "F#6",
          "midi": 90,
          "time": 106.37700000000028,
          "velocity": 0.7874015748031497,
          "duration": 0.043512500000005616
        },
        {
          "name": "C7",
          "midi": 96,
          "time": 106.37700000000028,
          "velocity": 0.7874015748031497,
          "duration": 0.043512500000005616
        },
        {
          "name": "F#7",
          "midi": 102,
          "time": 106.37700000000028,
          "velocity": 0.7874015748031497,
          "duration": 0.043512500000005616
        },
        {
          "name": "D4",
          "midi": 62,
          "time": 106.55400000000029,
          "velocity": 0.7874015748031497,
          "duration": 0.043512500000005616
        },
        {
          "name": "F#4",
          "midi": 66,
          "time": 106.55400000000029,
          "velocity": 0.7874015748031497,
          "duration": 0.043512500000005616
        },
        {
          "name": "D#5",
          "midi": 75,
          "time": 106.55400000000029,
          "velocity": 0.7874015748031497,
          "duration": 0.043512500000005616
        },
        {
          "name": "F#5",
          "midi": 78,
          "time": 106.55400000000029,
          "velocity": 0.7874015748031497,
          "duration": 0.043512500000005616
        },
        {
          "name": "E6",
          "midi": 88,
          "time": 106.55400000000029,
          "velocity": 0.7874015748031497,
          "duration": 0.043512500000005616
        },
        {
          "name": "F#6",
          "midi": 90,
          "time": 106.55400000000029,
          "velocity": 0.7874015748031497,
          "duration": 0.043512500000005616
        },
        {
          "name": "E7",
          "midi": 100,
          "time": 106.55400000000029,
          "velocity": 0.7874015748031497,
          "duration": 0.043512500000005616
        },
        {
          "name": "F#7",
          "midi": 102,
          "time": 106.55400000000029,
          "velocity": 0.7874015748031497,
          "duration": 0.043512500000005616
        },
        {
          "name": "C#5",
          "midi": 73,
          "time": 106.7310000000003,
          "velocity": 0.7874015748031497,
          "duration": 0.043512500000005616
        },
        {
          "name": "F#5",
          "midi": 78,
          "time": 106.7310000000003,
          "velocity": 0.7874015748031497,
          "duration": 0.043512500000005616
        },
        {
          "name": "D6",
          "midi": 86,
          "time": 106.7310000000003,
          "velocity": 0.7874015748031497,
          "duration": 0.043512500000005616
        },
        {
          "name": "F#6",
          "midi": 90,
          "time": 106.7310000000003,
          "velocity": 0.7874015748031497,
          "duration": 0.043512500000005616
        },
        {
          "name": "D7",
          "midi": 98,
          "time": 106.7310000000003,
          "velocity": 0.7874015748031497,
          "duration": 0.043512500000005616
        },
        {
          "name": "F#7",
          "midi": 102,
          "time": 106.7310000000003,
          "velocity": 0.7874015748031497,
          "duration": 0.043512500000005616
        },
        {
          "name": "C#4",
          "midi": 61,
          "time": 106.9080000000003,
          "velocity": 0.7874015748031497,
          "duration": 0.043512500000005616
        },
        {
          "name": "F#4",
          "midi": 66,
          "time": 106.9080000000003,
          "velocity": 0.7874015748031497,
          "duration": 0.043512500000005616
        },
        {
          "name": "D5",
          "midi": 74,
          "time": 106.9080000000003,
          "velocity": 0.7874015748031497,
          "duration": 0.043512500000005616
        },
        {
          "name": "F#5",
          "midi": 78,
          "time": 106.9080000000003,
          "velocity": 0.7874015748031497,
          "duration": 0.043512500000005616
        },
        {
          "name": "D#6",
          "midi": 87,
          "time": 106.9080000000003,
          "velocity": 0.7874015748031497,
          "duration": 0.043512500000005616
        },
        {
          "name": "F#6",
          "midi": 90,
          "time": 106.9080000000003,
          "velocity": 0.7874015748031497,
          "duration": 0.043512500000005616
        },
        {
          "name": "D#7",
          "midi": 99,
          "time": 106.9080000000003,
          "velocity": 0.7874015748031497,
          "duration": 0.043512500000005616
        },
        {
          "name": "F#7",
          "midi": 102,
          "time": 106.9080000000003,
          "velocity": 0.7874015748031497,
          "duration": 0.043512500000005616
        },
        {
          "name": "C#7",
          "midi": 97,
          "time": 107.0857375000003,
          "velocity": 0.7874015748031497,
          "duration": 0.043512500000005616
        },
        {
          "name": "F#7",
          "midi": 102,
          "time": 107.0857375000003,
          "velocity": 0.7874015748031497,
          "duration": 0.043512500000005616
        },
        {
          "name": "C#4",
          "midi": 61,
          "time": 107.26200000000031,
          "velocity": 0.7874015748031497,
          "duration": 0.043512500000005616
        },
        {
          "name": "F#4",
          "midi": 66,
          "time": 107.26200000000031,
          "velocity": 0.7874015748031497,
          "duration": 0.043512500000005616
        },
        {
          "name": "D5",
          "midi": 74,
          "time": 107.26200000000031,
          "velocity": 0.7874015748031497,
          "duration": 0.043512500000005616
        },
        {
          "name": "F#5",
          "midi": 78,
          "time": 107.26200000000031,
          "velocity": 0.7874015748031497,
          "duration": 0.043512500000005616
        },
        {
          "name": "D6",
          "midi": 86,
          "time": 107.26200000000031,
          "velocity": 0.7874015748031497,
          "duration": 0.043512500000005616
        },
        {
          "name": "F#6",
          "midi": 90,
          "time": 107.26200000000031,
          "velocity": 0.7874015748031497,
          "duration": 0.043512500000005616
        },
        {
          "name": "D7",
          "midi": 98,
          "time": 107.26200000000031,
          "velocity": 0.7874015748031497,
          "duration": 0.043512500000005616
        },
        {
          "name": "F#7",
          "midi": 102,
          "time": 107.26200000000031,
          "velocity": 0.7874015748031497,
          "duration": 0.043512500000005616
        },
        {
          "name": "C4",
          "midi": 60,
          "time": 107.43973750000032,
          "velocity": 0.7874015748031497,
          "duration": 0.042775000000006
        },
        {
          "name": "F#4",
          "midi": 66,
          "time": 107.43973750000032,
          "velocity": 0.7874015748031497,
          "duration": 0.042775000000006
        },
        {
          "name": "C#5",
          "midi": 73,
          "time": 107.43973750000032,
          "velocity": 0.7874015748031497,
          "duration": 0.042775000000006
        },
        {
          "name": "F#5",
          "midi": 78,
          "time": 107.43973750000032,
          "velocity": 0.7874015748031497,
          "duration": 0.042775000000006
        },
        {
          "name": "C#6",
          "midi": 85,
          "time": 107.43973750000032,
          "velocity": 0.7874015748031497,
          "duration": 0.35105000000000075
        },
        {
          "name": "F#6",
          "midi": 90,
          "time": 107.43973750000032,
          "velocity": 0.7874015748031497,
          "duration": 0.35105000000000075
        },
        {
          "name": "C#7",
          "midi": 97,
          "time": 107.43973750000032,
          "velocity": 0.7874015748031497,
          "duration": 0.35105000000000075
        },
        {
          "name": "F#7",
          "midi": 102,
          "time": 107.43973750000032,
          "velocity": 0.7874015748031497,
          "duration": 0.35105000000000075
        },
        {
          "name": "D4",
          "midi": 62,
          "time": 107.79300000000032,
          "velocity": 0.7874015748031497,
          "duration": 0.043512500000005616
        },
        {
          "name": "F#4",
          "midi": 66,
          "time": 107.79300000000032,
          "velocity": 0.7874015748031497,
          "duration": 0.043512500000005616
        },
        {
          "name": "D#5",
          "midi": 75,
          "time": 107.79300000000032,
          "velocity": 0.7874015748031497,
          "duration": 0.043512500000005616
        },
        {
          "name": "F#5",
          "midi": 78,
          "time": 107.79300000000032,
          "velocity": 0.7874015748031497,
          "duration": 0.043512500000005616
        },
        {
          "name": "E6",
          "midi": 88,
          "time": 107.79300000000032,
          "velocity": 0.7874015748031497,
          "duration": 0.35178750000000036
        },
        {
          "name": "F#6",
          "midi": 90,
          "time": 107.79300000000032,
          "velocity": 0.7874015748031497,
          "duration": 0.35178750000000036
        },
        {
          "name": "E7",
          "midi": 100,
          "time": 107.79300000000032,
          "velocity": 0.7874015748031497,
          "duration": 0.35178750000000036
        },
        {
          "name": "F#7",
          "midi": 102,
          "time": 107.79300000000032,
          "velocity": 0.7874015748031497,
          "duration": 0.35178750000000036
        },
        {
          "name": "C#5",
          "midi": 73,
          "time": 108.14700000000032,
          "velocity": 0.7874015748031497,
          "duration": 0.043512500000005616
        },
        {
          "name": "F#5",
          "midi": 78,
          "time": 108.14700000000032,
          "velocity": 0.7874015748031497,
          "duration": 0.043512500000005616
        },
        {
          "name": "D6",
          "midi": 86,
          "time": 108.14700000000032,
          "velocity": 0.7874015748031497,
          "duration": 0.043512500000005616
        },
        {
          "name": "F#6",
          "midi": 90,
          "time": 108.14700000000032,
          "velocity": 0.7874015748031497,
          "duration": 0.043512500000005616
        },
        {
          "name": "D7",
          "midi": 98,
          "time": 108.14700000000032,
          "velocity": 0.7874015748031497,
          "duration": 0.043512500000005616
        },
        {
          "name": "F#7",
          "midi": 102,
          "time": 108.14700000000032,
          "velocity": 0.7874015748031497,
          "duration": 0.043512500000005616
        },
        {
          "name": "C#4",
          "midi": 61,
          "time": 108.32400000000032,
          "velocity": 0.7874015748031497,
          "duration": 0.043512500000005616
        },
        {
          "name": "F#4",
          "midi": 66,
          "time": 108.32400000000032,
          "velocity": 0.7874015748031497,
          "duration": 0.043512500000005616
        },
        {
          "name": "D5",
          "midi": 74,
          "time": 108.32400000000032,
          "velocity": 0.7874015748031497,
          "duration": 0.043512500000005616
        },
        {
          "name": "F#5",
          "midi": 78,
          "time": 108.32400000000032,
          "velocity": 0.7874015748031497,
          "duration": 0.043512500000005616
        },
        {
          "name": "D#6",
          "midi": 87,
          "time": 108.32400000000032,
          "velocity": 0.7874015748031497,
          "duration": 0.043512500000005616
        },
        {
          "name": "F#6",
          "midi": 90,
          "time": 108.32400000000032,
          "velocity": 0.7874015748031497,
          "duration": 0.043512500000005616
        },
        {
          "name": "D#7",
          "midi": 99,
          "time": 108.32400000000032,
          "velocity": 0.7874015748031497,
          "duration": 0.043512500000005616
        },
        {
          "name": "F#7",
          "midi": 102,
          "time": 108.32400000000032,
          "velocity": 0.7874015748031497,
          "duration": 0.043512500000005616
        },
        {
          "name": "C#7",
          "midi": 97,
          "time": 108.50100000000033,
          "velocity": 0.7874015748031497,
          "duration": 0.043512500000005616
        },
        {
          "name": "F#7",
          "midi": 102,
          "time": 108.50100000000033,
          "velocity": 0.7874015748031497,
          "duration": 0.043512500000005616
        },
        {
          "name": "C4",
          "midi": 60,
          "time": 108.67800000000034,
          "velocity": 0.7874015748031497,
          "duration": 0.043512500000005616
        },
        {
          "name": "F#4",
          "midi": 66,
          "time": 108.67800000000034,
          "velocity": 0.7874015748031497,
          "duration": 0.043512500000005616
        },
        {
          "name": "C#5",
          "midi": 73,
          "time": 108.67800000000034,
          "velocity": 0.7874015748031497,
          "duration": 0.043512500000005616
        },
        {
          "name": "F#5",
          "midi": 78,
          "time": 108.67800000000034,
          "velocity": 0.7874015748031497,
          "duration": 0.043512500000005616
        },
        {
          "name": "D6",
          "midi": 86,
          "time": 108.67800000000034,
          "velocity": 0.7874015748031497,
          "duration": 0.043512500000005616
        },
        {
          "name": "F#6",
          "midi": 90,
          "time": 108.67800000000034,
          "velocity": 0.7874015748031497,
          "duration": 0.043512500000005616
        },
        {
          "name": "D7",
          "midi": 98,
          "time": 108.67800000000034,
          "velocity": 0.7874015748031497,
          "duration": 0.043512500000005616
        },
        {
          "name": "F#7",
          "midi": 102,
          "time": 108.67800000000034,
          "velocity": 0.7874015748031497,
          "duration": 0.043512500000005616
        },
        {
          "name": "C6",
          "midi": 84,
          "time": 108.85573750000034,
          "velocity": 0.7874015748031497,
          "duration": 0.043512500000005616
        },
        {
          "name": "F#6",
          "midi": 90,
          "time": 108.85573750000034,
          "velocity": 0.7874015748031497,
          "duration": 0.043512500000005616
        },
        {
          "name": "C7",
          "midi": 96,
          "time": 108.85573750000034,
          "velocity": 0.7874015748031497,
          "duration": 0.043512500000005616
        },
        {
          "name": "F#7",
          "midi": 102,
          "time": 108.85573750000034,
          "velocity": 0.7874015748031497,
          "duration": 0.043512500000005616
        },
        {
          "name": "C4",
          "midi": 60,
          "time": 109.03200000000035,
          "velocity": 0.7874015748031497,
          "duration": 0.043512500000005616
        },
        {
          "name": "F#4",
          "midi": 66,
          "time": 109.03200000000035,
          "velocity": 0.7874015748031497,
          "duration": 0.043512500000005616
        },
        {
          "name": "C5",
          "midi": 72,
          "time": 109.03200000000035,
          "velocity": 0.7874015748031497,
          "duration": 0.043512500000005616
        },
        {
          "name": "F#5",
          "midi": 78,
          "time": 109.03200000000035,
          "velocity": 0.7874015748031497,
          "duration": 0.043512500000005616
        },
        {
          "name": "C6",
          "midi": 84,
          "time": 109.03200000000035,
          "velocity": 0.7874015748031497,
          "duration": 0.35178750000000036
        },
        {
          "name": "F#6",
          "midi": 90,
          "time": 109.03200000000035,
          "velocity": 0.7874015748031497,
          "duration": 0.35178750000000036
        },
        {
          "name": "C7",
          "midi": 96,
          "time": 109.03200000000035,
          "velocity": 0.7874015748031497,
          "duration": 1.0597874999999988
        },
        {
          "name": "F#7",
          "midi": 102,
          "time": 109.03200000000035,
          "velocity": 0.7874015748031497,
          "duration": 1.0605249999999984
        },
        {
          "name": "C4",
          "midi": 60,
          "time": 109.38600000000035,
          "velocity": 0.7874015748031497,
          "duration": 0.043512500000005616
        },
        {
          "name": "F#4",
          "midi": 66,
          "time": 109.38600000000035,
          "velocity": 0.7874015748031497,
          "duration": 0.043512500000005616
        },
        {
          "name": "C#5",
          "midi": 73,
          "time": 109.38600000000035,
          "velocity": 0.7874015748031497,
          "duration": 0.043512500000005616
        },
        {
          "name": "F#5",
          "midi": 78,
          "time": 109.38600000000035,
          "velocity": 0.7874015748031497,
          "duration": 0.043512500000005616
        },
        {
          "name": "D6",
          "midi": 86,
          "time": 109.38600000000035,
          "velocity": 0.7874015748031497,
          "duration": 0.35178750000000036
        },
        {
          "name": "F#6",
          "midi": 90,
          "time": 109.38600000000035,
          "velocity": 0.7874015748031497,
          "duration": 0.35178750000000036
        },
        {
          "name": "D7",
          "midi": 98,
          "time": 109.38600000000035,
          "velocity": 0.7874015748031497,
          "duration": 0.7072624999999988
        },
        {
          "name": "C#4",
          "midi": 61,
          "time": 109.74000000000035,
          "velocity": 0.7874015748031497,
          "duration": 0.043512500000005616
        },
        {
          "name": "F#4",
          "midi": 66,
          "time": 109.74000000000035,
          "velocity": 0.7874015748031497,
          "duration": 0.043512500000005616
        },
        {
          "name": "D5",
          "midi": 74,
          "time": 109.74000000000035,
          "velocity": 0.7874015748031497,
          "duration": 0.043512500000005616
        },
        {
          "name": "F#5",
          "midi": 78,
          "time": 109.74000000000035,
          "velocity": 0.7874015748031497,
          "duration": 0.043512500000005616
        },
        {
          "name": "D#6",
          "midi": 87,
          "time": 109.74000000000035,
          "velocity": 0.7874015748031497,
          "duration": 0.35178750000000036
        },
        {
          "name": "F#6",
          "midi": 90,
          "time": 109.74000000000035,
          "velocity": 0.7874015748031497,
          "duration": 0.35178750000000036
        },
        {
          "name": "D#7",
          "midi": 99,
          "time": 109.74000000000035,
          "velocity": 0.7874015748031497,
          "duration": 0.3532624999999996
        },
        {
          "name": "C6",
          "midi": 84,
          "time": 110.09400000000035,
          "velocity": 0.7874015748031497,
          "duration": 0.043512500000005616
        },
        {
          "name": "F#6",
          "midi": 90,
          "time": 110.09400000000035,
          "velocity": 0.7874015748031497,
          "duration": 0.043512500000005616
        },
        {
          "name": "C7",
          "midi": 96,
          "time": 110.09400000000035,
          "velocity": 0.7874015748031497,
          "duration": 0.043512500000005616
        },
        {
          "name": "F#7",
          "midi": 102,
          "time": 110.09400000000035,
          "velocity": 0.7874015748031497,
          "duration": 0.043512500000005616
        },
        {
          "name": "C4",
          "midi": 60,
          "time": 110.27100000000036,
          "velocity": 0.7874015748031497,
          "duration": 0.5287875000000071
        },
        {
          "name": "F#4",
          "midi": 66,
          "time": 110.27100000000036,
          "velocity": 0.7874015748031497,
          "duration": 0.5287875000000071
        },
        {
          "name": "C#5",
          "midi": 73,
          "time": 110.27100000000036,
          "velocity": 0.7874015748031497,
          "duration": 0.5287875000000071
        },
        {
          "name": "F#5",
          "midi": 78,
          "time": 110.27100000000036,
          "velocity": 0.7874015748031497,
          "duration": 0.5287875000000071
        },
        {
          "name": "C#6",
          "midi": 85,
          "time": 110.27100000000036,
          "velocity": 0.7874015748031497,
          "duration": 0.5287875000000071
        },
        {
          "name": "F#6",
          "midi": 90,
          "time": 110.27100000000036,
          "velocity": 0.7874015748031497,
          "duration": 0.5287875000000071
        },
        {
          "name": "C#7",
          "midi": 97,
          "time": 110.27100000000036,
          "velocity": 0.7874015748031497,
          "duration": 1.2390000000000043
        },
        {
          "name": "F#7",
          "midi": 102,
          "time": 110.27100000000036,
          "velocity": 0.7874015748031497,
          "duration": 1.2390000000000043
        },
        {
          "name": "C#4",
          "midi": 61,
          "time": 110.80200000000036,
          "velocity": 0.7874015748031497,
          "duration": 0.04425000000000523
        },
        {
          "name": "F#4",
          "midi": 66,
          "time": 110.80200000000036,
          "velocity": 0.7874015748031497,
          "duration": 0.04425000000000523
        },
        {
          "name": "D5",
          "midi": 74,
          "time": 110.80200000000036,
          "velocity": 0.7874015748031497,
          "duration": 0.04425000000000523
        },
        {
          "name": "F#5",
          "midi": 78,
          "time": 110.80200000000036,
          "velocity": 0.7874015748031497,
          "duration": 0.04425000000000523
        },
        {
          "name": "D#6",
          "midi": 87,
          "time": 110.80200000000036,
          "velocity": 0.7874015748031497,
          "duration": 0.35178750000000036
        },
        {
          "name": "F#6",
          "midi": 90,
          "time": 110.80200000000036,
          "velocity": 0.7874015748031497,
          "duration": 0.35178750000000036
        },
        {
          "name": "D#7",
          "midi": 99,
          "time": 110.80200000000036,
          "velocity": 0.7874015748031497,
          "duration": 0.7072624999999988
        },
        {
          "name": "D4",
          "midi": 62,
          "time": 111.15600000000036,
          "velocity": 0.7874015748031497,
          "duration": 0.043512500000005616
        },
        {
          "name": "F#4",
          "midi": 66,
          "time": 111.15600000000036,
          "velocity": 0.7874015748031497,
          "duration": 0.043512500000005616
        },
        {
          "name": "D#5",
          "midi": 75,
          "time": 111.15600000000036,
          "velocity": 0.7874015748031497,
          "duration": 0.043512500000005616
        },
        {
          "name": "F#5",
          "midi": 78,
          "time": 111.15600000000036,
          "velocity": 0.7874015748031497,
          "duration": 0.043512500000005616
        },
        {
          "name": "E6",
          "midi": 88,
          "time": 111.15600000000036,
          "velocity": 0.7874015748031497,
          "duration": 0.35178750000000036
        },
        {
          "name": "F#6",
          "midi": 90,
          "time": 111.15600000000036,
          "velocity": 0.7874015748031497,
          "duration": 0.35178750000000036
        },
        {
          "name": "E7",
          "midi": 100,
          "time": 111.15600000000036,
          "velocity": 0.7874015748031497,
          "duration": 0.3532624999999996
        },
        {
          "name": "C4",
          "midi": 60,
          "time": 111.51000000000036,
          "velocity": 0.7874015748031497,
          "duration": 0.043512500000005616
        },
        {
          "name": "F#4",
          "midi": 66,
          "time": 111.51000000000036,
          "velocity": 0.7874015748031497,
          "duration": 0.043512500000005616
        },
        {
          "name": "C5",
          "midi": 72,
          "time": 111.51000000000036,
          "velocity": 0.7874015748031497,
          "duration": 0.043512500000005616
        },
        {
          "name": "F#5",
          "midi": 78,
          "time": 111.51000000000036,
          "velocity": 0.7874015748031497,
          "duration": 0.043512500000005616
        },
        {
          "name": "C6",
          "midi": 84,
          "time": 111.51000000000036,
          "velocity": 0.7874015748031497,
          "duration": 0.35178750000000036
        },
        {
          "name": "F#6",
          "midi": 90,
          "time": 111.51000000000036,
          "velocity": 0.7874015748031497,
          "duration": 0.35178750000000036
        },
        {
          "name": "C7",
          "midi": 96,
          "time": 111.51000000000036,
          "velocity": 0.7874015748031497,
          "duration": 1.0597874999999988
        },
        {
          "name": "F#7",
          "midi": 102,
          "time": 111.51000000000036,
          "velocity": 0.7874015748031497,
          "duration": 1.0619999999999976
        },
        {
          "name": "C4",
          "midi": 60,
          "time": 111.86400000000036,
          "velocity": 0.7874015748031497,
          "duration": 0.043512500000005616
        },
        {
          "name": "F#4",
          "midi": 66,
          "time": 111.86400000000036,
          "velocity": 0.7874015748031497,
          "duration": 0.043512500000005616
        },
        {
          "name": "C#5",
          "midi": 73,
          "time": 111.86400000000036,
          "velocity": 0.7874015748031497,
          "duration": 0.043512500000005616
        },
        {
          "name": "F#5",
          "midi": 78,
          "time": 111.86400000000036,
          "velocity": 0.7874015748031497,
          "duration": 0.043512500000005616
        },
        {
          "name": "D6",
          "midi": 86,
          "time": 111.86400000000036,
          "velocity": 0.7874015748031497,
          "duration": 0.35178750000000036
        },
        {
          "name": "F#6",
          "midi": 90,
          "time": 111.86400000000036,
          "velocity": 0.7874015748031497,
          "duration": 0.35178750000000036
        },
        {
          "name": "D7",
          "midi": 98,
          "time": 111.86400000000036,
          "velocity": 0.7874015748031497,
          "duration": 0.7079999999999984
        },
        {
          "name": "C#4",
          "midi": 61,
          "time": 112.21800000000036,
          "velocity": 0.7874015748031497,
          "duration": 0.043512500000005616
        },
        {
          "name": "F#4",
          "midi": 66,
          "time": 112.21800000000036,
          "velocity": 0.7874015748031497,
          "duration": 0.043512500000005616
        },
        {
          "name": "D5",
          "midi": 74,
          "time": 112.21800000000036,
          "velocity": 0.7874015748031497,
          "duration": 0.043512500000005616
        },
        {
          "name": "F#5",
          "midi": 78,
          "time": 112.21800000000036,
          "velocity": 0.7874015748031497,
          "duration": 0.043512500000005616
        },
        {
          "name": "D#6",
          "midi": 87,
          "time": 112.21800000000036,
          "velocity": 0.7874015748031497,
          "duration": 0.35178750000000036
        },
        {
          "name": "F#6",
          "midi": 90,
          "time": 112.21800000000036,
          "velocity": 0.7874015748031497,
          "duration": 0.35178750000000036
        },
        {
          "name": "D#7",
          "midi": 99,
          "time": 112.21800000000036,
          "velocity": 0.7874015748031497,
          "duration": 0.3539999999999992
        },
        {
          "name": "C6",
          "midi": 84,
          "time": 112.57200000000036,
          "velocity": 0.7874015748031497,
          "duration": 0.043512500000005616
        },
        {
          "name": "F#6",
          "midi": 90,
          "time": 112.57200000000036,
          "velocity": 0.7874015748031497,
          "duration": 0.043512500000005616
        },
        {
          "name": "C7",
          "midi": 96,
          "time": 112.57200000000036,
          "velocity": 0.7874015748031497,
          "duration": 0.043512500000005616
        },
        {
          "name": "F#7",
          "midi": 102,
          "time": 112.57200000000036,
          "velocity": 0.7874015748031497,
          "duration": 0.043512500000005616
        },
        {
          "name": "C4",
          "midi": 60,
          "time": 112.74973750000036,
          "velocity": 0.7874015748031497,
          "duration": 0.043512500000005616
        },
        {
          "name": "F#4",
          "midi": 66,
          "time": 112.74973750000036,
          "velocity": 0.7874015748031497,
          "duration": 0.043512500000005616
        },
        {
          "name": "C#5",
          "midi": 73,
          "time": 112.74973750000036,
          "velocity": 0.7874015748031497,
          "duration": 0.043512500000005616
        },
        {
          "name": "F#5",
          "midi": 78,
          "time": 112.74973750000036,
          "velocity": 0.7874015748031497,
          "duration": 0.043512500000005616
        },
        {
          "name": "C#6",
          "midi": 85,
          "time": 112.74973750000036,
          "velocity": 0.7874015748031497,
          "duration": 0.35178750000000036
        },
        {
          "name": "F#6",
          "midi": 90,
          "time": 112.74973750000036,
          "velocity": 0.7874015748031497,
          "duration": 0.35178750000000036
        },
        {
          "name": "C#7",
          "midi": 97,
          "time": 112.74973750000036,
          "velocity": 0.7874015748031497,
          "duration": 1.2375249999999909
        },
        {
          "name": "F#7",
          "midi": 102,
          "time": 112.74973750000036,
          "velocity": 0.7874015748031497,
          "duration": 1.2367874999999913
        },
        {
          "name": "C#4",
          "midi": 61,
          "time": 113.10373750000036,
          "velocity": 0.7874015748031497,
          "duration": 0.5280499999999932
        },
        {
          "name": "F#4",
          "midi": 66,
          "time": 113.10373750000036,
          "velocity": 0.7874015748031497,
          "duration": 0.5280499999999932
        },
        {
          "name": "D5",
          "midi": 74,
          "time": 113.10373750000036,
          "velocity": 0.7874015748031497,
          "duration": 0.5280499999999932
        },
        {
          "name": "F#5",
          "midi": 78,
          "time": 113.10373750000036,
          "velocity": 0.7874015748031497,
          "duration": 0.5280499999999932
        },
        {
          "name": "D#6",
          "midi": 87,
          "time": 113.10373750000036,
          "velocity": 0.7874015748031497,
          "duration": 0.5280499999999932
        },
        {
          "name": "F#6",
          "midi": 90,
          "time": 113.10373750000036,
          "velocity": 0.7874015748031497,
          "duration": 0.5280499999999932
        },
        {
          "name": "D#7",
          "midi": 99,
          "time": 113.10373750000036,
          "velocity": 0.7874015748031497,
          "duration": 0.8835249999999917
        },
        {
          "name": "D4",
          "midi": 62,
          "time": 113.63400000000036,
          "velocity": 0.7874015748031497,
          "duration": 0.043512500000005616
        },
        {
          "name": "F#4",
          "midi": 66,
          "time": 113.63400000000036,
          "velocity": 0.7874015748031497,
          "duration": 0.043512500000005616
        },
        {
          "name": "D#5",
          "midi": 75,
          "time": 113.63400000000036,
          "velocity": 0.7874015748031497,
          "duration": 0.043512500000005616
        },
        {
          "name": "F#5",
          "midi": 78,
          "time": 113.63400000000036,
          "velocity": 0.7874015748031497,
          "duration": 0.043512500000005616
        },
        {
          "name": "E6",
          "midi": 88,
          "time": 113.63400000000036,
          "velocity": 0.7874015748031497,
          "duration": 0.35178750000000036
        },
        {
          "name": "F#6",
          "midi": 90,
          "time": 113.63400000000036,
          "velocity": 0.7874015748031497,
          "duration": 0.35178750000000036
        },
        {
          "name": "E7",
          "midi": 100,
          "time": 113.63400000000036,
          "velocity": 0.7874015748031497,
          "duration": 0.3532624999999996
        },
        {
          "name": "C4",
          "midi": 60,
          "time": 113.98800000000035,
          "velocity": 0.7874015748031497,
          "duration": 0.04425000000000523
        },
        {
          "name": "F#4",
          "midi": 66,
          "time": 113.98800000000035,
          "velocity": 0.7874015748031497,
          "duration": 0.04425000000000523
        },
        {
          "name": "C5",
          "midi": 72,
          "time": 113.98800000000035,
          "velocity": 0.7874015748031497,
          "duration": 0.04425000000000523
        },
        {
          "name": "F#5",
          "midi": 78,
          "time": 113.98800000000035,
          "velocity": 0.7874015748031497,
          "duration": 0.04425000000000523
        },
        {
          "name": "C6",
          "midi": 84,
          "time": 113.98800000000035,
          "velocity": 0.7874015748031497,
          "duration": 0.35178750000000036
        },
        {
          "name": "F#6",
          "midi": 90,
          "time": 113.98800000000035,
          "velocity": 0.7874015748031497,
          "duration": 0.35178750000000036
        },
        {
          "name": "C7",
          "midi": 96,
          "time": 113.98800000000035,
          "velocity": 0.7874015748031497,
          "duration": 1.0597874999999988
        },
        {
          "name": "F#7",
          "midi": 102,
          "time": 113.98800000000035,
          "velocity": 0.7874015748031497,
          "duration": 1.0605249999999984
        },
        {
          "name": "C4",
          "midi": 60,
          "time": 114.34200000000035,
          "velocity": 0.7874015748031497,
          "duration": 0.043512500000005616
        },
        {
          "name": "F#4",
          "midi": 66,
          "time": 114.34200000000035,
          "velocity": 0.7874015748031497,
          "duration": 0.043512500000005616
        },
        {
          "name": "C#5",
          "midi": 73,
          "time": 114.34200000000035,
          "velocity": 0.7874015748031497,
          "duration": 0.043512500000005616
        },
        {
          "name": "F#5",
          "midi": 78,
          "time": 114.34200000000035,
          "velocity": 0.7874015748031497,
          "duration": 0.043512500000005616
        },
        {
          "name": "D6",
          "midi": 86,
          "time": 114.34200000000035,
          "velocity": 0.7874015748031497,
          "duration": 0.35178750000000036
        },
        {
          "name": "F#6",
          "midi": 90,
          "time": 114.34200000000035,
          "velocity": 0.7874015748031497,
          "duration": 0.35178750000000036
        },
        {
          "name": "D7",
          "midi": 98,
          "time": 114.34200000000035,
          "velocity": 0.7874015748031497,
          "duration": 0.7072624999999988
        },
        {
          "name": "C#4",
          "midi": 61,
          "time": 114.69600000000035,
          "velocity": 0.7874015748031497,
          "duration": 0.043512500000005616
        },
        {
          "name": "F#4",
          "midi": 66,
          "time": 114.69600000000035,
          "velocity": 0.7874015748031497,
          "duration": 0.043512500000005616
        },
        {
          "name": "D5",
          "midi": 74,
          "time": 114.69600000000035,
          "velocity": 0.7874015748031497,
          "duration": 0.043512500000005616
        },
        {
          "name": "F#5",
          "midi": 78,
          "time": 114.69600000000035,
          "velocity": 0.7874015748031497,
          "duration": 0.043512500000005616
        },
        {
          "name": "D#6",
          "midi": 87,
          "time": 114.69600000000035,
          "velocity": 0.7874015748031497,
          "duration": 0.35178750000000036
        },
        {
          "name": "F#6",
          "midi": 90,
          "time": 114.69600000000035,
          "velocity": 0.7874015748031497,
          "duration": 0.35178750000000036
        },
        {
          "name": "D#7",
          "midi": 99,
          "time": 114.69600000000035,
          "velocity": 0.7874015748031497,
          "duration": 0.3532624999999996
        },
        {
          "name": "C6",
          "midi": 84,
          "time": 115.05000000000035,
          "velocity": 0.7874015748031497,
          "duration": 0.043512500000005616
        },
        {
          "name": "F#6",
          "midi": 90,
          "time": 115.05000000000035,
          "velocity": 0.7874015748031497,
          "duration": 0.043512500000005616
        },
        {
          "name": "C7",
          "midi": 96,
          "time": 115.05000000000035,
          "velocity": 0.7874015748031497,
          "duration": 0.043512500000005616
        },
        {
          "name": "F#7",
          "midi": 102,
          "time": 115.05000000000035,
          "velocity": 0.7874015748031497,
          "duration": 0.043512500000005616
        },
        {
          "name": "C4",
          "midi": 60,
          "time": 115.22700000000036,
          "velocity": 0.7874015748031497,
          "duration": 0.5287875000000071
        },
        {
          "name": "F#4",
          "midi": 66,
          "time": 115.22700000000036,
          "velocity": 0.7874015748031497,
          "duration": 0.5287875000000071
        },
        {
          "name": "C#5",
          "midi": 73,
          "time": 115.22700000000036,
          "velocity": 0.7874015748031497,
          "duration": 0.5287875000000071
        },
        {
          "name": "F#5",
          "midi": 78,
          "time": 115.22700000000036,
          "velocity": 0.7874015748031497,
          "duration": 0.5287875000000071
        },
        {
          "name": "C#6",
          "midi": 85,
          "time": 115.22700000000036,
          "velocity": 0.7874015748031497,
          "duration": 0.5287875000000071
        },
        {
          "name": "F#6",
          "midi": 90,
          "time": 115.22700000000036,
          "velocity": 0.7874015748031497,
          "duration": 0.5287875000000071
        },
        {
          "name": "C#7",
          "midi": 97,
          "time": 115.22700000000036,
          "velocity": 0.7874015748031497,
          "duration": 1.2382625000000047
        },
        {
          "name": "F#7",
          "midi": 102,
          "time": 115.22700000000036,
          "velocity": 0.7874015748031497,
          "duration": 1.2390000000000043
        },
        {
          "name": "C#4",
          "midi": 61,
          "time": 115.75800000000037,
          "velocity": 0.7874015748031497,
          "duration": 0.043512500000005616
        },
        {
          "name": "F#4",
          "midi": 66,
          "time": 115.75800000000037,
          "velocity": 0.7874015748031497,
          "duration": 0.043512500000005616
        },
        {
          "name": "D5",
          "midi": 74,
          "time": 115.75800000000037,
          "velocity": 0.7874015748031497,
          "duration": 0.043512500000005616
        },
        {
          "name": "F#5",
          "midi": 78,
          "time": 115.75800000000037,
          "velocity": 0.7874015748031497,
          "duration": 0.043512500000005616
        },
        {
          "name": "D#6",
          "midi": 87,
          "time": 115.75800000000037,
          "velocity": 0.7874015748031497,
          "duration": 0.35178750000000036
        },
        {
          "name": "F#6",
          "midi": 90,
          "time": 115.75800000000037,
          "velocity": 0.7874015748031497,
          "duration": 0.35178750000000036
        },
        {
          "name": "D#7",
          "midi": 99,
          "time": 115.75800000000037,
          "velocity": 0.7874015748031497,
          "duration": 0.7072624999999988
        },
        {
          "name": "D4",
          "midi": 62,
          "time": 116.11200000000036,
          "velocity": 0.7874015748031497,
          "duration": 0.04425000000000523
        },
        {
          "name": "F#4",
          "midi": 66,
          "time": 116.11200000000036,
          "velocity": 0.7874015748031497,
          "duration": 0.04425000000000523
        },
        {
          "name": "D#5",
          "midi": 75,
          "time": 116.11200000000036,
          "velocity": 0.7874015748031497,
          "duration": 0.04425000000000523
        },
        {
          "name": "F#5",
          "midi": 78,
          "time": 116.11200000000036,
          "velocity": 0.7874015748031497,
          "duration": 0.04425000000000523
        },
        {
          "name": "E6",
          "midi": 88,
          "time": 116.11200000000036,
          "velocity": 0.7874015748031497,
          "duration": 0.35178750000000036
        },
        {
          "name": "F#6",
          "midi": 90,
          "time": 116.11200000000036,
          "velocity": 0.7874015748031497,
          "duration": 0.35178750000000036
        },
        {
          "name": "E7",
          "midi": 100,
          "time": 116.11200000000036,
          "velocity": 0.7874015748031497,
          "duration": 0.3539999999999992
        },
        {
          "name": "C4",
          "midi": 60,
          "time": 116.46600000000036,
          "velocity": 0.7874015748031497,
          "duration": 0.04425000000000523
        },
        {
          "name": "F#4",
          "midi": 66,
          "time": 116.46600000000036,
          "velocity": 0.7874015748031497,
          "duration": 0.04425000000000523
        },
        {
          "name": "C5",
          "midi": 72,
          "time": 116.46600000000036,
          "velocity": 0.7874015748031497,
          "duration": 0.04425000000000523
        },
        {
          "name": "F#5",
          "midi": 78,
          "time": 116.46600000000036,
          "velocity": 0.7874015748031497,
          "duration": 0.04425000000000523
        },
        {
          "name": "C6",
          "midi": 84,
          "time": 116.46600000000036,
          "velocity": 0.7874015748031497,
          "duration": 0.35178750000000036
        },
        {
          "name": "F#6",
          "midi": 90,
          "time": 116.46600000000036,
          "velocity": 0.7874015748031497,
          "duration": 0.35178750000000036
        },
        {
          "name": "C7",
          "midi": 96,
          "time": 116.46600000000036,
          "velocity": 0.7874015748031497,
          "duration": 1.0597874999999988
        },
        {
          "name": "F#7",
          "midi": 102,
          "time": 116.46600000000036,
          "velocity": 0.7874015748031497,
          "duration": 1.1062500000000028
        },
        {
          "name": "C4",
          "midi": 60,
          "time": 116.82000000000036,
          "velocity": 0.7874015748031497,
          "duration": 0.04425000000000523
        },
        {
          "name": "F#4",
          "midi": 66,
          "time": 116.82000000000036,
          "velocity": 0.7874015748031497,
          "duration": 0.04425000000000523
        },
        {
          "name": "C#5",
          "midi": 73,
          "time": 116.82000000000036,
          "velocity": 0.7874015748031497,
          "duration": 0.04425000000000523
        },
        {
          "name": "F#5",
          "midi": 78,
          "time": 116.82000000000036,
          "velocity": 0.7874015748031497,
          "duration": 0.04425000000000523
        },
        {
          "name": "D6",
          "midi": 86,
          "time": 116.82000000000036,
          "velocity": 0.7874015748031497,
          "duration": 0.35178750000000036
        },
        {
          "name": "F#6",
          "midi": 90,
          "time": 116.82000000000036,
          "velocity": 0.7874015748031497,
          "duration": 0.35178750000000036
        },
        {
          "name": "D7",
          "midi": 98,
          "time": 116.82000000000036,
          "velocity": 0.7874015748031497,
          "duration": 0.7079999999999984
        },
        {
          "name": "C#4",
          "midi": 61,
          "time": 117.17400000000036,
          "velocity": 0.7874015748031497,
          "duration": 0.04425000000000523
        },
        {
          "name": "F#4",
          "midi": 66,
          "time": 117.17400000000036,
          "velocity": 0.7874015748031497,
          "duration": 0.04425000000000523
        },
        {
          "name": "D5",
          "midi": 74,
          "time": 117.17400000000036,
          "velocity": 0.7874015748031497,
          "duration": 0.04425000000000523
        },
        {
          "name": "F#5",
          "midi": 78,
          "time": 117.17400000000036,
          "velocity": 0.7874015748031497,
          "duration": 0.04425000000000523
        },
        {
          "name": "D#6",
          "midi": 87,
          "time": 117.17400000000036,
          "velocity": 0.7874015748031497,
          "duration": 0.35178750000000036
        },
        {
          "name": "F#6",
          "midi": 90,
          "time": 117.17400000000036,
          "velocity": 0.7874015748031497,
          "duration": 0.35178750000000036
        },
        {
          "name": "D#7",
          "midi": 99,
          "time": 117.17400000000036,
          "velocity": 0.7874015748031497,
          "duration": 0.3539999999999992
        },
        {
          "name": "C6",
          "midi": 84,
          "time": 117.52800000000036,
          "velocity": 0.7874015748031497,
          "duration": 0.04425000000000523
        },
        {
          "name": "F#6",
          "midi": 90,
          "time": 117.52800000000036,
          "velocity": 0.7874015748031497,
          "duration": 0.04425000000000523
        },
        {
          "name": "C7",
          "midi": 96,
          "time": 117.52800000000036,
          "velocity": 0.7874015748031497,
          "duration": 0.04425000000000523
        },
        {
          "name": "C4",
          "midi": 60,
          "time": 117.70573750000037,
          "velocity": 0.7874015748031497,
          "duration": 0.04425000000000523
        },
        {
          "name": "F#4",
          "midi": 66,
          "time": 117.70573750000037,
          "velocity": 0.7874015748031497,
          "duration": 0.04425000000000523
        },
        {
          "name": "C#5",
          "midi": 73,
          "time": 117.70573750000037,
          "velocity": 0.7874015748031497,
          "duration": 0.04425000000000523
        },
        {
          "name": "F#5",
          "midi": 78,
          "time": 117.70573750000037,
          "velocity": 0.7874015748031497,
          "duration": 0.04425000000000523
        },
        {
          "name": "C#6",
          "midi": 85,
          "time": 117.70573750000037,
          "velocity": 0.7874015748031497,
          "duration": 0.35178750000000036
        },
        {
          "name": "F#6",
          "midi": 90,
          "time": 117.70573750000037,
          "velocity": 0.7874015748031497,
          "duration": 0.35178750000000036
        },
        {
          "name": "C#7",
          "midi": 97,
          "time": 117.70573750000037,
          "velocity": 0.7874015748031497,
          "duration": 1.2382624999999905
        },
        {
          "name": "F#7",
          "midi": 102,
          "time": 117.70573750000037,
          "velocity": 0.7874015748031497,
          "duration": 1.2382624999999905
        },
        {
          "name": "C#4",
          "midi": 61,
          "time": 118.05973750000037,
          "velocity": 0.7874015748031497,
          "duration": 0.5280499999999932
        },
        {
          "name": "F#4",
          "midi": 66,
          "time": 118.05973750000037,
          "velocity": 0.7874015748031497,
          "duration": 0.5280499999999932
        },
        {
          "name": "D5",
          "midi": 74,
          "time": 118.05973750000037,
          "velocity": 0.7874015748031497,
          "duration": 0.5280499999999932
        },
        {
          "name": "F#5",
          "midi": 78,
          "time": 118.05973750000037,
          "velocity": 0.7874015748031497,
          "duration": 0.5280499999999932
        },
        {
          "name": "D#6",
          "midi": 87,
          "time": 118.05973750000037,
          "velocity": 0.7874015748031497,
          "duration": 0.5280499999999932
        },
        {
          "name": "F#6",
          "midi": 90,
          "time": 118.05973750000037,
          "velocity": 0.7874015748031497,
          "duration": 0.5280499999999932
        },
        {
          "name": "D#7",
          "midi": 99,
          "time": 118.05973750000037,
          "velocity": 0.7874015748031497,
          "duration": 0.8835249999999917
        },
        {
          "name": "D4",
          "midi": 62,
          "time": 118.59000000000036,
          "velocity": 0.7874015748031497,
          "duration": 0.043512500000005616
        },
        {
          "name": "F#4",
          "midi": 66,
          "time": 118.59000000000036,
          "velocity": 0.7874015748031497,
          "duration": 0.043512500000005616
        },
        {
          "name": "D#5",
          "midi": 75,
          "time": 118.59000000000036,
          "velocity": 0.7874015748031497,
          "duration": 0.043512500000005616
        },
        {
          "name": "F#5",
          "midi": 78,
          "time": 118.59000000000036,
          "velocity": 0.7874015748031497,
          "duration": 0.043512500000005616
        },
        {
          "name": "E6",
          "midi": 88,
          "time": 118.59000000000036,
          "velocity": 0.7874015748031497,
          "duration": 0.35178750000000036
        },
        {
          "name": "F#6",
          "midi": 90,
          "time": 118.59000000000036,
          "velocity": 0.7874015748031497,
          "duration": 0.35178750000000036
        },
        {
          "name": "E7",
          "midi": 100,
          "time": 118.59000000000036,
          "velocity": 0.7874015748031497,
          "duration": 0.35178750000000036
        },
        {
          "name": "D4",
          "midi": 62,
          "time": 118.94400000000036,
          "velocity": 0.7874015748031497,
          "duration": 0.04425000000000523
        },
        {
          "name": "F#4",
          "midi": 66,
          "time": 118.94400000000036,
          "velocity": 0.7874015748031497,
          "duration": 0.04425000000000523
        },
        {
          "name": "D#5",
          "midi": 75,
          "time": 118.94400000000036,
          "velocity": 0.7874015748031497,
          "duration": 0.04425000000000523
        },
        {
          "name": "F#5",
          "midi": 78,
          "time": 118.94400000000036,
          "velocity": 0.7874015748031497,
          "duration": 0.04425000000000523
        },
        {
          "name": "E6",
          "midi": 88,
          "time": 118.94400000000036,
          "velocity": 0.7874015748031497,
          "duration": 0.04425000000000523
        },
        {
          "name": "F#6",
          "midi": 90,
          "time": 118.94400000000036,
          "velocity": 0.7874015748031497,
          "duration": 0.04425000000000523
        },
        {
          "name": "E7",
          "midi": 100,
          "time": 118.94400000000036,
          "velocity": 0.7874015748031497,
          "duration": 0.04425000000000523
        },
        {
          "name": "F#7",
          "midi": 102,
          "time": 118.94400000000036,
          "velocity": 0.7874015748031497,
          "duration": 0.04425000000000523
        },
        {
          "name": "C#5",
          "midi": 73,
          "time": 119.12100000000036,
          "velocity": 0.7874015748031497,
          "duration": 0.04425000000000523
        },
        {
          "name": "F5",
          "midi": 77,
          "time": 119.12100000000036,
          "velocity": 0.7874015748031497,
          "duration": 0.04425000000000523
        },
        {
          "name": "D6",
          "midi": 86,
          "time": 119.12100000000036,
          "velocity": 0.7874015748031497,
          "duration": 0.04425000000000523
        },
        {
          "name": "F6",
          "midi": 89,
          "time": 119.12100000000036,
          "velocity": 0.7874015748031497,
          "duration": 0.04425000000000523
        },
        {
          "name": "D7",
          "midi": 98,
          "time": 119.12100000000036,
          "velocity": 0.7874015748031497,
          "duration": 0.04425000000000523
        },
        {
          "name": "F#7",
          "midi": 102,
          "time": 119.12100000000036,
          "velocity": 0.7874015748031497,
          "duration": 0.04425000000000523
        },
        {
          "name": "C#4",
          "midi": 61,
          "time": 119.29800000000037,
          "velocity": 0.7874015748031497,
          "duration": 0.04425000000000523
        },
        {
          "name": "F#4",
          "midi": 66,
          "time": 119.29800000000037,
          "velocity": 0.7874015748031497,
          "duration": 0.04425000000000523
        },
        {
          "name": "D5",
          "midi": 74,
          "time": 119.29800000000037,
          "velocity": 0.7874015748031497,
          "duration": 0.04425000000000523
        },
        {
          "name": "F5",
          "midi": 77,
          "time": 119.29800000000037,
          "velocity": 0.7874015748031497,
          "duration": 0.04425000000000523
        },
        {
          "name": "D#6",
          "midi": 87,
          "time": 119.29800000000037,
          "velocity": 0.7874015748031497,
          "duration": 0.04425000000000523
        },
        {
          "name": "F6",
          "midi": 89,
          "time": 119.29800000000037,
          "velocity": 0.7874015748031497,
          "duration": 0.04425000000000523
        },
        {
          "name": "D#7",
          "midi": 99,
          "time": 119.29800000000037,
          "velocity": 0.7874015748031497,
          "duration": 0.04425000000000523
        },
        {
          "name": "F#7",
          "midi": 102,
          "time": 119.29800000000037,
          "velocity": 0.7874015748031497,
          "duration": 0.04425000000000523
        },
        {
          "name": "C#7",
          "midi": 97,
          "time": 119.47500000000038,
          "velocity": 0.7874015748031497,
          "duration": 0.04425000000000523
        },
        {
          "name": "F#7",
          "midi": 102,
          "time": 119.47500000000038,
          "velocity": 0.7874015748031497,
          "duration": 0.04425000000000523
        },
        {
          "name": "C#4",
          "midi": 61,
          "time": 119.65200000000038,
          "velocity": 0.7874015748031497,
          "duration": 0.043512500000005616
        },
        {
          "name": "F#4",
          "midi": 66,
          "time": 119.65200000000038,
          "velocity": 0.7874015748031497,
          "duration": 0.043512500000005616
        },
        {
          "name": "D5",
          "midi": 74,
          "time": 119.65200000000038,
          "velocity": 0.7874015748031497,
          "duration": 0.043512500000005616
        },
        {
          "name": "F#5",
          "midi": 78,
          "time": 119.65200000000038,
          "velocity": 0.7874015748031497,
          "duration": 0.043512500000005616
        },
        {
          "name": "D6",
          "midi": 86,
          "time": 119.65200000000038,
          "velocity": 0.7874015748031497,
          "duration": 0.043512500000005616
        },
        {
          "name": "F#6",
          "midi": 90,
          "time": 119.65200000000038,
          "velocity": 0.7874015748031497,
          "duration": 0.043512500000005616
        },
        {
          "name": "D7",
          "midi": 98,
          "time": 119.65200000000038,
          "velocity": 0.7874015748031497,
          "duration": 0.043512500000005616
        },
        {
          "name": "F#7",
          "midi": 102,
          "time": 119.65200000000038,
          "velocity": 0.7874015748031497,
          "duration": 0.043512500000005616
        },
        {
          "name": "C4",
          "midi": 60,
          "time": 119.82973750000039,
          "velocity": 0.7874015748031497,
          "duration": 0.043512500000005616
        },
        {
          "name": "F4",
          "midi": 65,
          "time": 119.82973750000039,
          "velocity": 0.7874015748031497,
          "duration": 0.043512500000005616
        },
        {
          "name": "C#5",
          "midi": 73,
          "time": 119.82973750000039,
          "velocity": 0.7874015748031497,
          "duration": 0.043512500000005616
        },
        {
          "name": "F5",
          "midi": 77,
          "time": 119.82973750000039,
          "velocity": 0.7874015748031497,
          "duration": 0.043512500000005616
        },
        {
          "name": "C#6",
          "midi": 85,
          "time": 119.82973750000039,
          "velocity": 0.7874015748031497,
          "duration": 0.35105000000000075
        },
        {
          "name": "F6",
          "midi": 89,
          "time": 119.82973750000039,
          "velocity": 0.7874015748031497,
          "duration": 0.35105000000000075
        },
        {
          "name": "C#7",
          "midi": 97,
          "time": 119.82973750000039,
          "velocity": 0.7874015748031497,
          "duration": 0.35105000000000075
        },
        {
          "name": "F#7",
          "midi": 102,
          "time": 119.82973750000039,
          "velocity": 0.7874015748031497,
          "duration": 0.35105000000000075
        },
        {
          "name": "D4",
          "midi": 62,
          "time": 120.18300000000039,
          "velocity": 0.7874015748031497,
          "duration": 0.043512500000005616
        },
        {
          "name": "F#4",
          "midi": 66,
          "time": 120.18300000000039,
          "velocity": 0.7874015748031497,
          "duration": 0.043512500000005616
        },
        {
          "name": "D#5",
          "midi": 75,
          "time": 120.18300000000039,
          "velocity": 0.7874015748031497,
          "duration": 0.043512500000005616
        },
        {
          "name": "F#5",
          "midi": 78,
          "time": 120.18300000000039,
          "velocity": 0.7874015748031497,
          "duration": 0.043512500000005616
        },
        {
          "name": "E6",
          "midi": 88,
          "time": 120.18300000000039,
          "velocity": 0.7874015748031497,
          "duration": 0.35105000000000075
        },
        {
          "name": "F#6",
          "midi": 90,
          "time": 120.18300000000039,
          "velocity": 0.7874015748031497,
          "duration": 0.35105000000000075
        },
        {
          "name": "E7",
          "midi": 100,
          "time": 120.18300000000039,
          "velocity": 0.7874015748031497,
          "duration": 0.35105000000000075
        },
        {
          "name": "F#7",
          "midi": 102,
          "time": 120.18300000000039,
          "velocity": 0.7874015748031497,
          "duration": 0.35105000000000075
        },
        {
          "name": "C#5",
          "midi": 73,
          "time": 120.53626250000039,
          "velocity": 0.7874015748031497,
          "duration": 0.04425000000000523
        },
        {
          "name": "F#5",
          "midi": 78,
          "time": 120.53626250000039,
          "velocity": 0.7874015748031497,
          "duration": 0.04425000000000523
        },
        {
          "name": "D6",
          "midi": 86,
          "time": 120.53626250000039,
          "velocity": 0.7874015748031497,
          "duration": 0.04425000000000523
        },
        {
          "name": "F#6",
          "midi": 90,
          "time": 120.53626250000039,
          "velocity": 0.7874015748031497,
          "duration": 0.04425000000000523
        },
        {
          "name": "D7",
          "midi": 98,
          "time": 120.53626250000039,
          "velocity": 0.7874015748031497,
          "duration": 0.04425000000000523
        },
        {
          "name": "F#7",
          "midi": 102,
          "time": 120.53626250000039,
          "velocity": 0.7874015748031497,
          "duration": 0.04425000000000523
        },
        {
          "name": "C#4",
          "midi": 61,
          "time": 120.7140000000004,
          "velocity": 0.7874015748031497,
          "duration": 0.043512500000005616
        },
        {
          "name": "F#4",
          "midi": 66,
          "time": 120.7140000000004,
          "velocity": 0.7874015748031497,
          "duration": 0.043512500000005616
        },
        {
          "name": "D5",
          "midi": 74,
          "time": 120.7140000000004,
          "velocity": 0.7874015748031497,
          "duration": 0.043512500000005616
        },
        {
          "name": "F5",
          "midi": 77,
          "time": 120.7140000000004,
          "velocity": 0.7874015748031497,
          "duration": 0.043512500000005616
        },
        {
          "name": "D#6",
          "midi": 87,
          "time": 120.7140000000004,
          "velocity": 0.7874015748031497,
          "duration": 0.043512500000005616
        },
        {
          "name": "F6",
          "midi": 89,
          "time": 120.7140000000004,
          "velocity": 0.7874015748031497,
          "duration": 0.043512500000005616
        },
        {
          "name": "D#7",
          "midi": 99,
          "time": 120.7140000000004,
          "velocity": 0.7874015748031497,
          "duration": 0.043512500000005616
        },
        {
          "name": "F#7",
          "midi": 102,
          "time": 120.7140000000004,
          "velocity": 0.7874015748031497,
          "duration": 0.043512500000005616
        },
        {
          "name": "D7",
          "midi": 98,
          "time": 120.8910000000004,
          "velocity": 0.7874015748031497,
          "duration": 0.043512500000005616
        },
        {
          "name": "F#7",
          "midi": 102,
          "time": 120.8910000000004,
          "velocity": 0.7874015748031497,
          "duration": 0.043512500000005616
        },
        {
          "name": "C4",
          "midi": 60,
          "time": 121.06800000000041,
          "velocity": 0.7874015748031497,
          "duration": 0.04425000000000523
        },
        {
          "name": "F#4",
          "midi": 66,
          "time": 121.06800000000041,
          "velocity": 0.7874015748031497,
          "duration": 0.04425000000000523
        },
        {
          "name": "C#5",
          "midi": 73,
          "time": 121.06800000000041,
          "velocity": 0.7874015748031497,
          "duration": 0.04425000000000523
        },
        {
          "name": "F#5",
          "midi": 78,
          "time": 121.06800000000041,
          "velocity": 0.7874015748031497,
          "duration": 0.04425000000000523
        },
        {
          "name": "C#6",
          "midi": 85,
          "time": 121.06800000000041,
          "velocity": 0.7874015748031497,
          "duration": 0.04425000000000523
        },
        {
          "name": "F#6",
          "midi": 90,
          "time": 121.06800000000041,
          "velocity": 0.7874015748031497,
          "duration": 0.04425000000000523
        },
        {
          "name": "C#7",
          "midi": 97,
          "time": 121.06800000000041,
          "velocity": 0.7874015748031497,
          "duration": 0.04425000000000523
        },
        {
          "name": "F#7",
          "midi": 102,
          "time": 121.06800000000041,
          "velocity": 0.7874015748031497,
          "duration": 0.04425000000000523
        },
        {
          "name": "C6",
          "midi": 84,
          "time": 121.24426250000042,
          "velocity": 0.7874015748031497,
          "duration": 0.04425000000000523
        },
        {
          "name": "F6",
          "midi": 89,
          "time": 121.24426250000042,
          "velocity": 0.7874015748031497,
          "duration": 0.04425000000000523
        },
        {
          "name": "C7",
          "midi": 96,
          "time": 121.24426250000042,
          "velocity": 0.7874015748031497,
          "duration": 0.04425000000000523
        },
        {
          "name": "F#7",
          "midi": 102,
          "time": 121.24426250000042,
          "velocity": 0.7874015748031497,
          "duration": 0.04425000000000523
        },
        {
          "name": "D4",
          "midi": 62,
          "time": 121.42200000000042,
          "velocity": 0.7874015748031497,
          "duration": 0.04425000000000523
        },
        {
          "name": "F#4",
          "midi": 66,
          "time": 121.42200000000042,
          "velocity": 0.7874015748031497,
          "duration": 0.04425000000000523
        },
        {
          "name": "D#5",
          "midi": 75,
          "time": 121.42200000000042,
          "velocity": 0.7874015748031497,
          "duration": 0.04425000000000523
        },
        {
          "name": "F#5",
          "midi": 78,
          "time": 121.42200000000042,
          "velocity": 0.7874015748031497,
          "duration": 0.04425000000000523
        },
        {
          "name": "E6",
          "midi": 88,
          "time": 121.42200000000042,
          "velocity": 0.7874015748031497,
          "duration": 0.04425000000000523
        },
        {
          "name": "F#6",
          "midi": 90,
          "time": 121.42200000000042,
          "velocity": 0.7874015748031497,
          "duration": 0.04425000000000523
        },
        {
          "name": "E7",
          "midi": 100,
          "time": 121.42200000000042,
          "velocity": 0.7874015748031497,
          "duration": 0.04425000000000523
        },
        {
          "name": "F#7",
          "midi": 102,
          "time": 121.42200000000042,
          "velocity": 0.7874015748031497,
          "duration": 0.04425000000000523
        },
        {
          "name": "C#5",
          "midi": 73,
          "time": 121.59900000000043,
          "velocity": 0.7874015748031497,
          "duration": 0.04425000000000523
        },
        {
          "name": "F5",
          "midi": 77,
          "time": 121.59900000000043,
          "velocity": 0.7874015748031497,
          "duration": 0.04425000000000523
        },
        {
          "name": "D6",
          "midi": 86,
          "time": 121.59900000000043,
          "velocity": 0.7874015748031497,
          "duration": 0.04425000000000523
        },
        {
          "name": "F6",
          "midi": 89,
          "time": 121.59900000000043,
          "velocity": 0.7874015748031497,
          "duration": 0.04425000000000523
        },
        {
          "name": "D7",
          "midi": 98,
          "time": 121.59900000000043,
          "velocity": 0.7874015748031497,
          "duration": 0.04425000000000523
        },
        {
          "name": "F#7",
          "midi": 102,
          "time": 121.59900000000043,
          "velocity": 0.7874015748031497,
          "duration": 0.04425000000000523
        },
        {
          "name": "C#4",
          "midi": 61,
          "time": 121.77600000000044,
          "velocity": 0.7874015748031497,
          "duration": 0.04425000000000523
        },
        {
          "name": "F#4",
          "midi": 66,
          "time": 121.77600000000044,
          "velocity": 0.7874015748031497,
          "duration": 0.04425000000000523
        },
        {
          "name": "D5",
          "midi": 74,
          "time": 121.77600000000044,
          "velocity": 0.7874015748031497,
          "duration": 0.04425000000000523
        },
        {
          "name": "F5",
          "midi": 77,
          "time": 121.77600000000044,
          "velocity": 0.7874015748031497,
          "duration": 0.04425000000000523
        },
        {
          "name": "D#6",
          "midi": 87,
          "time": 121.77600000000044,
          "velocity": 0.7874015748031497,
          "duration": 0.04425000000000523
        },
        {
          "name": "F6",
          "midi": 89,
          "time": 121.77600000000044,
          "velocity": 0.7874015748031497,
          "duration": 0.04425000000000523
        },
        {
          "name": "D#7",
          "midi": 99,
          "time": 121.77600000000044,
          "velocity": 0.7874015748031497,
          "duration": 0.04425000000000523
        },
        {
          "name": "F#7",
          "midi": 102,
          "time": 121.77600000000044,
          "velocity": 0.7874015748031497,
          "duration": 0.04425000000000523
        },
        {
          "name": "C#7",
          "midi": 97,
          "time": 121.95373750000044,
          "velocity": 0.7874015748031497,
          "duration": 0.04425000000000523
        },
        {
          "name": "F#7",
          "midi": 102,
          "time": 121.95373750000044,
          "velocity": 0.7874015748031497,
          "duration": 0.04425000000000523
        },
        {
          "name": "C#4",
          "midi": 61,
          "time": 122.13000000000045,
          "velocity": 0.7874015748031497,
          "duration": 0.043512500000005616
        },
        {
          "name": "F#4",
          "midi": 66,
          "time": 122.13000000000045,
          "velocity": 0.7874015748031497,
          "duration": 0.043512500000005616
        },
        {
          "name": "D5",
          "midi": 74,
          "time": 122.13000000000045,
          "velocity": 0.7874015748031497,
          "duration": 0.043512500000005616
        },
        {
          "name": "F#5",
          "midi": 78,
          "time": 122.13000000000045,
          "velocity": 0.7874015748031497,
          "duration": 0.043512500000005616
        },
        {
          "name": "D6",
          "midi": 86,
          "time": 122.13000000000045,
          "velocity": 0.7874015748031497,
          "duration": 0.043512500000005616
        },
        {
          "name": "F#6",
          "midi": 90,
          "time": 122.13000000000045,
          "velocity": 0.7874015748031497,
          "duration": 0.043512500000005616
        },
        {
          "name": "D7",
          "midi": 98,
          "time": 122.13000000000045,
          "velocity": 0.7874015748031497,
          "duration": 0.043512500000005616
        },
        {
          "name": "F#7",
          "midi": 102,
          "time": 122.13000000000045,
          "velocity": 0.7874015748031497,
          "duration": 0.043512500000005616
        },
        {
          "name": "C4",
          "midi": 60,
          "time": 122.30700000000046,
          "velocity": 0.7874015748031497,
          "duration": 0.043512500000005616
        },
        {
          "name": "F4",
          "midi": 65,
          "time": 122.30700000000046,
          "velocity": 0.7874015748031497,
          "duration": 0.043512500000005616
        },
        {
          "name": "C#5",
          "midi": 73,
          "time": 122.30700000000046,
          "velocity": 0.7874015748031497,
          "duration": 0.043512500000005616
        },
        {
          "name": "F5",
          "midi": 77,
          "time": 122.30700000000046,
          "velocity": 0.7874015748031497,
          "duration": 0.043512500000005616
        },
        {
          "name": "C#6",
          "midi": 85,
          "time": 122.30700000000046,
          "velocity": 0.7874015748031497,
          "duration": 0.35178750000000036
        },
        {
          "name": "F6",
          "midi": 89,
          "time": 122.30700000000046,
          "velocity": 0.7874015748031497,
          "duration": 0.35178750000000036
        },
        {
          "name": "C#7",
          "midi": 97,
          "time": 122.30700000000046,
          "velocity": 0.7874015748031497,
          "duration": 0.35178750000000036
        },
        {
          "name": "F#7",
          "midi": 102,
          "time": 122.30700000000046,
          "velocity": 0.7874015748031497,
          "duration": 0.35178750000000036
        },
        {
          "name": "D4",
          "midi": 62,
          "time": 122.66100000000046,
          "velocity": 0.7874015748031497,
          "duration": 0.043512500000005616
        },
        {
          "name": "F#4",
          "midi": 66,
          "time": 122.66100000000046,
          "velocity": 0.7874015748031497,
          "duration": 0.043512500000005616
        },
        {
          "name": "D#5",
          "midi": 75,
          "time": 122.66100000000046,
          "velocity": 0.7874015748031497,
          "duration": 0.043512500000005616
        },
        {
          "name": "F#5",
          "midi": 78,
          "time": 122.66100000000046,
          "velocity": 0.7874015748031497,
          "duration": 0.043512500000005616
        },
        {
          "name": "E6",
          "midi": 88,
          "time": 122.66100000000046,
          "velocity": 0.7874015748031497,
          "duration": 0.35178750000000036
        },
        {
          "name": "F#6",
          "midi": 90,
          "time": 122.66100000000046,
          "velocity": 0.7874015748031497,
          "duration": 0.35178750000000036
        },
        {
          "name": "E7",
          "midi": 100,
          "time": 122.66100000000046,
          "velocity": 0.7874015748031497,
          "duration": 0.35178750000000036
        },
        {
          "name": "F#7",
          "midi": 102,
          "time": 122.66100000000046,
          "velocity": 0.7874015748031497,
          "duration": 0.35178750000000036
        },
        {
          "name": "C#5",
          "midi": 73,
          "time": 123.01426250000046,
          "velocity": 0.7874015748031497,
          "duration": 0.043512500000005616
        },
        {
          "name": "F#5",
          "midi": 78,
          "time": 123.01426250000046,
          "velocity": 0.7874015748031497,
          "duration": 0.043512500000005616
        },
        {
          "name": "D6",
          "midi": 86,
          "time": 123.01426250000046,
          "velocity": 0.7874015748031497,
          "duration": 0.043512500000005616
        },
        {
          "name": "F#6",
          "midi": 90,
          "time": 123.01426250000046,
          "velocity": 0.7874015748031497,
          "duration": 0.043512500000005616
        },
        {
          "name": "D7",
          "midi": 98,
          "time": 123.01426250000046,
          "velocity": 0.7874015748031497,
          "duration": 0.043512500000005616
        },
        {
          "name": "F#7",
          "midi": 102,
          "time": 123.01426250000046,
          "velocity": 0.7874015748031497,
          "duration": 0.043512500000005616
        },
        {
          "name": "C#4",
          "midi": 61,
          "time": 123.19200000000046,
          "velocity": 0.7874015748031497,
          "duration": 0.043512500000005616
        },
        {
          "name": "F#4",
          "midi": 66,
          "time": 123.19200000000046,
          "velocity": 0.7874015748031497,
          "duration": 0.043512500000005616
        },
        {
          "name": "D5",
          "midi": 74,
          "time": 123.19200000000046,
          "velocity": 0.7874015748031497,
          "duration": 0.043512500000005616
        },
        {
          "name": "F5",
          "midi": 77,
          "time": 123.19200000000046,
          "velocity": 0.7874015748031497,
          "duration": 0.043512500000005616
        },
        {
          "name": "D#6",
          "midi": 87,
          "time": 123.19200000000046,
          "velocity": 0.7874015748031497,
          "duration": 0.043512500000005616
        },
        {
          "name": "F6",
          "midi": 89,
          "time": 123.19200000000046,
          "velocity": 0.7874015748031497,
          "duration": 0.043512500000005616
        },
        {
          "name": "D#7",
          "midi": 99,
          "time": 123.19200000000046,
          "velocity": 0.7874015748031497,
          "duration": 0.043512500000005616
        },
        {
          "name": "F#7",
          "midi": 102,
          "time": 123.19200000000046,
          "velocity": 0.7874015748031497,
          "duration": 0.043512500000005616
        },
        {
          "name": "D7",
          "midi": 98,
          "time": 123.36900000000047,
          "velocity": 0.7874015748031497,
          "duration": 0.043512500000005616
        },
        {
          "name": "F#7",
          "midi": 102,
          "time": 123.36900000000047,
          "velocity": 0.7874015748031497,
          "duration": 0.043512500000005616
        },
        {
          "name": "C4",
          "midi": 60,
          "time": 123.54600000000048,
          "velocity": 0.7874015748031497,
          "duration": 0.04425000000000523
        },
        {
          "name": "F#4",
          "midi": 66,
          "time": 123.54600000000048,
          "velocity": 0.7874015748031497,
          "duration": 0.04425000000000523
        },
        {
          "name": "C#5",
          "midi": 73,
          "time": 123.54600000000048,
          "velocity": 0.7874015748031497,
          "duration": 0.04425000000000523
        },
        {
          "name": "F#5",
          "midi": 78,
          "time": 123.54600000000048,
          "velocity": 0.7874015748031497,
          "duration": 0.04425000000000523
        },
        {
          "name": "C#6",
          "midi": 85,
          "time": 123.54600000000048,
          "velocity": 0.7874015748031497,
          "duration": 0.04425000000000523
        },
        {
          "name": "F#6",
          "midi": 90,
          "time": 123.54600000000048,
          "velocity": 0.7874015748031497,
          "duration": 0.04425000000000523
        },
        {
          "name": "C#7",
          "midi": 97,
          "time": 123.54600000000048,
          "velocity": 0.7874015748031497,
          "duration": 0.04425000000000523
        },
        {
          "name": "F#7",
          "midi": 102,
          "time": 123.54600000000048,
          "velocity": 0.7874015748031497,
          "duration": 0.04425000000000523
        },
        {
          "name": "C6",
          "midi": 84,
          "time": 123.72226250000048,
          "velocity": 0.7874015748031497,
          "duration": 0.04425000000000523
        },
        {
          "name": "F6",
          "midi": 89,
          "time": 123.72226250000048,
          "velocity": 0.7874015748031497,
          "duration": 0.04425000000000523
        },
        {
          "name": "C7",
          "midi": 96,
          "time": 123.72226250000048,
          "velocity": 0.7874015748031497,
          "duration": 0.04425000000000523
        },
        {
          "name": "F#7",
          "midi": 102,
          "time": 123.72226250000048,
          "velocity": 0.7874015748031497,
          "duration": 0.04425000000000523
        },
        {
          "name": "C#4",
          "midi": 61,
          "time": 123.90000000000049,
          "velocity": 0.7874015748031497,
          "duration": 0.04425000000000523
        },
        {
          "name": "F#4",
          "midi": 66,
          "time": 123.90000000000049,
          "velocity": 0.7874015748031497,
          "duration": 0.04425000000000523
        },
        {
          "name": "D5",
          "midi": 74,
          "time": 123.90000000000049,
          "velocity": 0.7874015748031497,
          "duration": 0.04425000000000523
        },
        {
          "name": "F#5",
          "midi": 78,
          "time": 123.90000000000049,
          "velocity": 0.7874015748031497,
          "duration": 0.04425000000000523
        },
        {
          "name": "D6",
          "midi": 86,
          "time": 123.90000000000049,
          "velocity": 0.7874015748031497,
          "duration": 0.04425000000000523
        },
        {
          "name": "F#6",
          "midi": 90,
          "time": 123.90000000000049,
          "velocity": 0.7874015748031497,
          "duration": 0.04425000000000523
        },
        {
          "name": "D7",
          "midi": 98,
          "time": 123.90000000000049,
          "velocity": 0.7874015748031497,
          "duration": 0.04425000000000523
        },
        {
          "name": "F#7",
          "midi": 102,
          "time": 123.90000000000049,
          "velocity": 0.7874015748031497,
          "duration": 0.04425000000000523
        },
        {
          "name": "C#7",
          "midi": 97,
          "time": 123.9885000000005,
          "velocity": 0.7874015748031497,
          "duration": 0.043512500000005616
        },
        {
          "name": "F7",
          "midi": 101,
          "time": 123.9885000000005,
          "velocity": 0.7874015748031497,
          "duration": 0.043512500000005616
        },
        {
          "name": "C#5",
          "midi": 73,
          "time": 124.07626250000051,
          "velocity": 0.7874015748031497,
          "duration": 0.04425000000000523
        },
        {
          "name": "F#5",
          "midi": 78,
          "time": 124.07626250000051,
          "velocity": 0.7874015748031497,
          "duration": 0.04425000000000523
        },
        {
          "name": "C#6",
          "midi": 85,
          "time": 124.07626250000051,
          "velocity": 0.7874015748031497,
          "duration": 0.04425000000000523
        },
        {
          "name": "F#6",
          "midi": 90,
          "time": 124.07626250000051,
          "velocity": 0.7874015748031497,
          "duration": 0.04425000000000523
        },
        {
          "name": "D7",
          "midi": 98,
          "time": 124.07626250000051,
          "velocity": 0.7874015748031497,
          "duration": 0.04425000000000523
        },
        {
          "name": "F7",
          "midi": 101,
          "time": 124.07626250000051,
          "velocity": 0.7874015748031497,
          "duration": 0.04425000000000523
        },
        {
          "name": "C#7",
          "midi": 97,
          "time": 124.16550000000052,
          "velocity": 0.7874015748031497,
          "duration": 0.04425000000000523
        },
        {
          "name": "F7",
          "midi": 101,
          "time": 124.16550000000052,
          "velocity": 0.7874015748031497,
          "duration": 0.04425000000000523
        },
        {
          "name": "C4",
          "midi": 60,
          "time": 124.25400000000053,
          "velocity": 0.7874015748031497,
          "duration": 0.04425000000000523
        },
        {
          "name": "F#4",
          "midi": 66,
          "time": 124.25400000000053,
          "velocity": 0.7874015748031497,
          "duration": 0.04425000000000523
        },
        {
          "name": "D5",
          "midi": 74,
          "time": 124.25400000000053,
          "velocity": 0.7874015748031497,
          "duration": 0.04425000000000523
        },
        {
          "name": "F#5",
          "midi": 78,
          "time": 124.25400000000053,
          "velocity": 0.7874015748031497,
          "duration": 0.04425000000000523
        },
        {
          "name": "D6",
          "midi": 86,
          "time": 124.25400000000053,
          "velocity": 0.7874015748031497,
          "duration": 0.04425000000000523
        },
        {
          "name": "F#6",
          "midi": 90,
          "time": 124.25400000000053,
          "velocity": 0.7874015748031497,
          "duration": 0.04425000000000523
        },
        {
          "name": "D7",
          "midi": 98,
          "time": 124.25400000000053,
          "velocity": 0.7874015748031497,
          "duration": 0.04425000000000523
        },
        {
          "name": "F7",
          "midi": 101,
          "time": 124.25400000000053,
          "velocity": 0.7874015748031497,
          "duration": 0.04425000000000523
        },
        {
          "name": "C#7",
          "midi": 97,
          "time": 124.34250000000054,
          "velocity": 0.7874015748031497,
          "duration": 0.043512500000005616
        },
        {
          "name": "F7",
          "midi": 101,
          "time": 124.34250000000054,
          "velocity": 0.7874015748031497,
          "duration": 0.043512500000005616
        },
        {
          "name": "C#6",
          "midi": 85,
          "time": 124.43173750000055,
          "velocity": 0.7874015748031497,
          "duration": 0.04425000000000523
        },
        {
          "name": "F#6",
          "midi": 90,
          "time": 124.43173750000055,
          "velocity": 0.7874015748031497,
          "duration": 0.04425000000000523
        },
        {
          "name": "D7",
          "midi": 98,
          "time": 124.43173750000055,
          "velocity": 0.7874015748031497,
          "duration": 0.04425000000000523
        },
        {
          "name": "F7",
          "midi": 101,
          "time": 124.43173750000055,
          "velocity": 0.7874015748031497,
          "duration": 0.04425000000000523
        },
        {
          "name": "C#7",
          "midi": 97,
          "time": 124.51950000000056,
          "velocity": 0.7874015748031497,
          "duration": 0.04425000000000523
        },
        {
          "name": "F7",
          "midi": 101,
          "time": 124.51950000000056,
          "velocity": 0.7874015748031497,
          "duration": 0.04425000000000523
        },
        {
          "name": "C#4",
          "midi": 61,
          "time": 124.60800000000057,
          "velocity": 0.7874015748031497,
          "duration": 0.043512500000005616
        },
        {
          "name": "F#4",
          "midi": 66,
          "time": 124.60800000000057,
          "velocity": 0.7874015748031497,
          "duration": 0.043512500000005616
        },
        {
          "name": "D#5",
          "midi": 75,
          "time": 124.60800000000057,
          "velocity": 0.7874015748031497,
          "duration": 0.043512500000005616
        },
        {
          "name": "F#5",
          "midi": 78,
          "time": 124.60800000000057,
          "velocity": 0.7874015748031497,
          "duration": 0.043512500000005616
        },
        {
          "name": "D#6",
          "midi": 87,
          "time": 124.60800000000057,
          "velocity": 0.7874015748031497,
          "duration": 0.043512500000005616
        },
        {
          "name": "F#6",
          "midi": 90,
          "time": 124.60800000000057,
          "velocity": 0.7874015748031497,
          "duration": 0.043512500000005616
        },
        {
          "name": "D#7",
          "midi": 99,
          "time": 124.60800000000057,
          "velocity": 0.7874015748031497,
          "duration": 0.043512500000005616
        },
        {
          "name": "F7",
          "midi": 101,
          "time": 124.60800000000057,
          "velocity": 0.7874015748031497,
          "duration": 0.043512500000005616
        },
        {
          "name": "C#7",
          "midi": 97,
          "time": 124.69650000000058,
          "velocity": 0.7874015748031497,
          "duration": 0.04425000000000523
        },
        {
          "name": "F7",
          "midi": 101,
          "time": 124.69650000000058,
          "velocity": 0.7874015748031497,
          "duration": 0.04425000000000523
        },
        {
          "name": "C#5",
          "midi": 73,
          "time": 124.7857375000006,
          "velocity": 0.7874015748031497,
          "duration": 0.043512500000005616
        },
        {
          "name": "F#5",
          "midi": 78,
          "time": 124.7857375000006,
          "velocity": 0.7874015748031497,
          "duration": 0.043512500000005616
        },
        {
          "name": "C#6",
          "midi": 85,
          "time": 124.7857375000006,
          "velocity": 0.7874015748031497,
          "duration": 0.043512500000005616
        },
        {
          "name": "F#6",
          "midi": 90,
          "time": 124.7857375000006,
          "velocity": 0.7874015748031497,
          "duration": 0.043512500000005616
        },
        {
          "name": "D#7",
          "midi": 99,
          "time": 124.7857375000006,
          "velocity": 0.7874015748031497,
          "duration": 0.043512500000005616
        },
        {
          "name": "F7",
          "midi": 101,
          "time": 124.7857375000006,
          "velocity": 0.7874015748031497,
          "duration": 0.043512500000005616
        },
        {
          "name": "C#7",
          "midi": 97,
          "time": 124.8742375000006,
          "velocity": 0.7874015748031497,
          "duration": 0.04425000000000523
        },
        {
          "name": "F7",
          "midi": 101,
          "time": 124.8742375000006,
          "velocity": 0.7874015748031497,
          "duration": 0.04425000000000523
        },
        {
          "name": "C4",
          "midi": 60,
          "time": 124.96200000000061,
          "velocity": 0.7874015748031497,
          "duration": 0.043512500000005616
        },
        {
          "name": "F#4",
          "midi": 66,
          "time": 124.96200000000061,
          "velocity": 0.7874015748031497,
          "duration": 0.043512500000005616
        },
        {
          "name": "D#5",
          "midi": 75,
          "time": 124.96200000000061,
          "velocity": 0.7874015748031497,
          "duration": 0.043512500000005616
        },
        {
          "name": "F#5",
          "midi": 78,
          "time": 124.96200000000061,
          "velocity": 0.7874015748031497,
          "duration": 0.043512500000005616
        },
        {
          "name": "D#6",
          "midi": 87,
          "time": 124.96200000000061,
          "velocity": 0.7874015748031497,
          "duration": 0.043512500000005616
        },
        {
          "name": "F#6",
          "midi": 90,
          "time": 124.96200000000061,
          "velocity": 0.7874015748031497,
          "duration": 0.043512500000005616
        },
        {
          "name": "D#7",
          "midi": 99,
          "time": 124.96200000000061,
          "velocity": 0.7874015748031497,
          "duration": 0.043512500000005616
        },
        {
          "name": "F7",
          "midi": 101,
          "time": 124.96200000000061,
          "velocity": 0.7874015748031497,
          "duration": 0.043512500000005616
        },
        {
          "name": "C#7",
          "midi": 97,
          "time": 125.05050000000062,
          "velocity": 0.7874015748031497,
          "duration": 0.04425000000000523
        },
        {
          "name": "F7",
          "midi": 101,
          "time": 125.05050000000062,
          "velocity": 0.7874015748031497,
          "duration": 0.04425000000000523
        },
        {
          "name": "C#6",
          "midi": 85,
          "time": 125.13973750000063,
          "velocity": 0.7874015748031497,
          "duration": 0.043512500000005616
        },
        {
          "name": "F#6",
          "midi": 90,
          "time": 125.13973750000063,
          "velocity": 0.7874015748031497,
          "duration": 0.043512500000005616
        },
        {
          "name": "D#7",
          "midi": 99,
          "time": 125.13973750000063,
          "velocity": 0.7874015748031497,
          "duration": 0.043512500000005616
        },
        {
          "name": "F7",
          "midi": 101,
          "time": 125.13973750000063,
          "velocity": 0.7874015748031497,
          "duration": 0.043512500000005616
        },
        {
          "name": "C#7",
          "midi": 97,
          "time": 125.22750000000065,
          "velocity": 0.7874015748031497,
          "duration": 0.043512500000005616
        },
        {
          "name": "F7",
          "midi": 101,
          "time": 125.22750000000065,
          "velocity": 0.7874015748031497,
          "duration": 0.043512500000005616
        },
        {
          "name": "D4",
          "midi": 62,
          "time": 125.31600000000066,
          "velocity": 0.7874015748031497,
          "duration": 0.043512500000005616
        },
        {
          "name": "F#4",
          "midi": 66,
          "time": 125.31600000000066,
          "velocity": 0.7874015748031497,
          "duration": 0.043512500000005616
        },
        {
          "name": "D#5",
          "midi": 75,
          "time": 125.31600000000066,
          "velocity": 0.7874015748031497,
          "duration": 0.043512500000005616
        },
        {
          "name": "F#5",
          "midi": 78,
          "time": 125.31600000000066,
          "velocity": 0.7874015748031497,
          "duration": 0.043512500000005616
        },
        {
          "name": "D#6",
          "midi": 87,
          "time": 125.31600000000066,
          "velocity": 0.7874015748031497,
          "duration": 0.043512500000005616
        },
        {
          "name": "F#6",
          "midi": 90,
          "time": 125.31600000000066,
          "velocity": 0.7874015748031497,
          "duration": 0.043512500000005616
        },
        {
          "name": "D#7",
          "midi": 99,
          "time": 125.31600000000066,
          "velocity": 0.7874015748031497,
          "duration": 0.043512500000005616
        },
        {
          "name": "F7",
          "midi": 101,
          "time": 125.31600000000066,
          "velocity": 0.7874015748031497,
          "duration": 0.043512500000005616
        },
        {
          "name": "C#7",
          "midi": 97,
          "time": 125.40450000000067,
          "velocity": 0.7874015748031497,
          "duration": 0.04425000000000523
        },
        {
          "name": "F7",
          "midi": 101,
          "time": 125.40450000000067,
          "velocity": 0.7874015748031497,
          "duration": 0.04425000000000523
        },
        {
          "name": "C#5",
          "midi": 73,
          "time": 125.49226250000068,
          "velocity": 0.7874015748031497,
          "duration": 0.04425000000000523
        },
        {
          "name": "F#5",
          "midi": 78,
          "time": 125.49226250000068,
          "velocity": 0.7874015748031497,
          "duration": 0.04425000000000523
        },
        {
          "name": "C#6",
          "midi": 85,
          "time": 125.49226250000068,
          "velocity": 0.7874015748031497,
          "duration": 0.04425000000000523
        },
        {
          "name": "F#6",
          "midi": 90,
          "time": 125.49226250000068,
          "velocity": 0.7874015748031497,
          "duration": 0.04425000000000523
        },
        {
          "name": "D#7",
          "midi": 99,
          "time": 125.49226250000068,
          "velocity": 0.7874015748031497,
          "duration": 0.04425000000000523
        },
        {
          "name": "F7",
          "midi": 101,
          "time": 125.49226250000068,
          "velocity": 0.7874015748031497,
          "duration": 0.04425000000000523
        },
        {
          "name": "C#7",
          "midi": 97,
          "time": 125.58150000000069,
          "velocity": 0.7874015748031497,
          "duration": 0.043512500000005616
        },
        {
          "name": "F7",
          "midi": 101,
          "time": 125.58150000000069,
          "velocity": 0.7874015748031497,
          "duration": 0.043512500000005616
        },
        {
          "name": "C4",
          "midi": 60,
          "time": 125.6700000000007,
          "velocity": 0.7874015748031497,
          "duration": 0.04425000000000523
        },
        {
          "name": "F#4",
          "midi": 66,
          "time": 125.6700000000007,
          "velocity": 0.7874015748031497,
          "duration": 0.04425000000000523
        },
        {
          "name": "D#5",
          "midi": 75,
          "time": 125.6700000000007,
          "velocity": 0.7874015748031497,
          "duration": 0.04425000000000523
        },
        {
          "name": "F#5",
          "midi": 78,
          "time": 125.6700000000007,
          "velocity": 0.7874015748031497,
          "duration": 0.04425000000000523
        },
        {
          "name": "D#6",
          "midi": 87,
          "time": 125.6700000000007,
          "velocity": 0.7874015748031497,
          "duration": 0.04425000000000523
        },
        {
          "name": "F#6",
          "midi": 90,
          "time": 125.6700000000007,
          "velocity": 0.7874015748031497,
          "duration": 0.04425000000000523
        },
        {
          "name": "D#7",
          "midi": 99,
          "time": 125.6700000000007,
          "velocity": 0.7874015748031497,
          "duration": 0.04425000000000523
        },
        {
          "name": "F7",
          "midi": 101,
          "time": 125.6700000000007,
          "velocity": 0.7874015748031497,
          "duration": 0.04425000000000523
        },
        {
          "name": "C#7",
          "midi": 97,
          "time": 125.75776250000071,
          "velocity": 0.7874015748031497,
          "duration": 0.04425000000000523
        },
        {
          "name": "F7",
          "midi": 101,
          "time": 125.75776250000071,
          "velocity": 0.7874015748031497,
          "duration": 0.04425000000000523
        },
        {
          "name": "C#6",
          "midi": 85,
          "time": 125.84700000000072,
          "velocity": 0.7874015748031497,
          "duration": 0.04425000000000523
        },
        {
          "name": "F#6",
          "midi": 90,
          "time": 125.84700000000072,
          "velocity": 0.7874015748031497,
          "duration": 0.04425000000000523
        },
        {
          "name": "D#7",
          "midi": 99,
          "time": 125.84700000000072,
          "velocity": 0.7874015748031497,
          "duration": 0.04425000000000523
        },
        {
          "name": "F7",
          "midi": 101,
          "time": 125.84700000000072,
          "velocity": 0.7874015748031497,
          "duration": 0.04425000000000523
        },
        {
          "name": "C#7",
          "midi": 97,
          "time": 125.93623750000073,
          "velocity": 0.7874015748031497,
          "duration": 0.043512500000005616
        },
        {
          "name": "F7",
          "midi": 101,
          "time": 125.93623750000073,
          "velocity": 0.7874015748031497,
          "duration": 0.043512500000005616
        },
        {
          "name": "D4",
          "midi": 62,
          "time": 126.02400000000074,
          "velocity": 0.7874015748031497,
          "duration": 0.043512500000005616
        },
        {
          "name": "F#4",
          "midi": 66,
          "time": 126.02400000000074,
          "velocity": 0.7874015748031497,
          "duration": 0.043512500000005616
        },
        {
          "name": "D#5",
          "midi": 75,
          "time": 126.02400000000074,
          "velocity": 0.7874015748031497,
          "duration": 0.043512500000005616
        },
        {
          "name": "F#5",
          "midi": 78,
          "time": 126.02400000000074,
          "velocity": 0.7874015748031497,
          "duration": 0.043512500000005616
        },
        {
          "name": "E6",
          "midi": 88,
          "time": 126.02400000000074,
          "velocity": 0.7874015748031497,
          "duration": 0.043512500000005616
        },
        {
          "name": "F#6",
          "midi": 90,
          "time": 126.02400000000074,
          "velocity": 0.7874015748031497,
          "duration": 0.043512500000005616
        },
        {
          "name": "E7",
          "midi": 100,
          "time": 126.02400000000074,
          "velocity": 0.7874015748031497,
          "duration": 0.043512500000005616
        },
        {
          "name": "F7",
          "midi": 101,
          "time": 126.02400000000074,
          "velocity": 0.7874015748031497,
          "duration": 0.043512500000005616
        },
        {
          "name": "C#7",
          "midi": 97,
          "time": 126.11250000000075,
          "velocity": 0.7874015748031497,
          "duration": 0.043512500000005616
        },
        {
          "name": "F7",
          "midi": 101,
          "time": 126.11250000000075,
          "velocity": 0.7874015748031497,
          "duration": 0.043512500000005616
        },
        {
          "name": "C#5",
          "midi": 73,
          "time": 126.20100000000076,
          "velocity": 0.7874015748031497,
          "duration": 0.043512500000005616
        },
        {
          "name": "F#5",
          "midi": 78,
          "time": 126.20100000000076,
          "velocity": 0.7874015748031497,
          "duration": 0.043512500000005616
        },
        {
          "name": "C#6",
          "midi": 85,
          "time": 126.20100000000076,
          "velocity": 0.7874015748031497,
          "duration": 0.043512500000005616
        },
        {
          "name": "F#6",
          "midi": 90,
          "time": 126.20100000000076,
          "velocity": 0.7874015748031497,
          "duration": 0.043512500000005616
        },
        {
          "name": "E7",
          "midi": 100,
          "time": 126.20100000000076,
          "velocity": 0.7874015748031497,
          "duration": 0.043512500000005616
        },
        {
          "name": "F7",
          "midi": 101,
          "time": 126.20100000000076,
          "velocity": 0.7874015748031497,
          "duration": 0.043512500000005616
        },
        {
          "name": "C#7",
          "midi": 97,
          "time": 126.28950000000077,
          "velocity": 0.7874015748031497,
          "duration": 0.043512500000005616
        },
        {
          "name": "F7",
          "midi": 101,
          "time": 126.28950000000077,
          "velocity": 0.7874015748031497,
          "duration": 0.043512500000005616
        },
        {
          "name": "C4",
          "midi": 60,
          "time": 126.37800000000078,
          "velocity": 0.7874015748031497,
          "duration": 0.8835250000000059
        },
        {
          "name": "F#4",
          "midi": 66,
          "time": 126.37800000000078,
          "velocity": 0.7874015748031497,
          "duration": 0.8835250000000059
        },
        {
          "name": "C5",
          "midi": 72,
          "time": 126.37800000000078,
          "velocity": 0.7874015748031497,
          "duration": 0.8835250000000059
        },
        {
          "name": "F#5",
          "midi": 78,
          "time": 126.37800000000078,
          "velocity": 0.7874015748031497,
          "duration": 0.8835250000000059
        },
        {
          "name": "C6",
          "midi": 84,
          "time": 126.37800000000078,
          "velocity": 0.7874015748031497,
          "duration": 0.8835250000000059
        },
        {
          "name": "F#6",
          "midi": 90,
          "time": 126.37800000000078,
          "velocity": 0.7874015748031497,
          "duration": 0.8835250000000059
        },
        {
          "name": "C7",
          "midi": 96,
          "time": 126.37800000000078,
          "velocity": 0.7874015748031497,
          "duration": 0.8835250000000059
        },
        {
          "name": "F#7",
          "midi": 102,
          "time": 126.37800000000078,
          "velocity": 0.7874015748031497,
          "duration": 0.8835250000000059
        },
        {
          "name": "G7",
          "midi": 103,
          "time": 126.37800000000078,
          "velocity": 0.7874015748031497,
          "duration": 33.80552499999982
        },
        {
          "name": "C#4",
          "midi": 61,
          "time": 127.26373750000079,
          "velocity": 0.7874015748031497,
          "duration": 0.439549999999997
        },
        {
          "name": "F4",
          "midi": 65,
          "time": 127.26373750000079,
          "velocity": 0.7874015748031497,
          "duration": 0.439549999999997
        },
        {
          "name": "C#5",
          "midi": 73,
          "time": 127.26373750000079,
          "velocity": 0.7874015748031497,
          "duration": 0.439549999999997
        },
        {
          "name": "F5",
          "midi": 77,
          "time": 127.26373750000079,
          "velocity": 0.7874015748031497,
          "duration": 0.439549999999997
        },
        {
          "name": "C#6",
          "midi": 85,
          "time": 127.26373750000079,
          "velocity": 0.7874015748031497,
          "duration": 0.439549999999997
        },
        {
          "name": "F6",
          "midi": 89,
          "time": 127.26373750000079,
          "velocity": 0.7874015748031497,
          "duration": 0.439549999999997
        },
        {
          "name": "C#7",
          "midi": 97,
          "time": 127.26373750000079,
          "velocity": 0.7874015748031497,
          "duration": 0.439549999999997
        },
        {
          "name": "F7",
          "midi": 101,
          "time": 127.26373750000079,
          "velocity": 0.7874015748031497,
          "duration": 0.439549999999997
        },
        {
          "name": "D4",
          "midi": 62,
          "time": 127.70550000000078,
          "velocity": 0.7874015748031497,
          "duration": 1.4152624999999972
        },
        {
          "name": "F4",
          "midi": 65,
          "time": 127.70550000000078,
          "velocity": 0.7874015748031497,
          "duration": 1.4152624999999972
        },
        {
          "name": "D5",
          "midi": 74,
          "time": 127.70550000000078,
          "velocity": 0.7874015748031497,
          "duration": 1.4152624999999972
        },
        {
          "name": "F5",
          "midi": 77,
          "time": 127.70550000000078,
          "velocity": 0.7874015748031497,
          "duration": 1.4152624999999972
        },
        {
          "name": "D6",
          "midi": 86,
          "time": 127.70550000000078,
          "velocity": 0.7874015748031497,
          "duration": 1.4152624999999972
        },
        {
          "name": "F6",
          "midi": 89,
          "time": 127.70550000000078,
          "velocity": 0.7874015748031497,
          "duration": 1.4152624999999972
        },
        {
          "name": "D7",
          "midi": 98,
          "time": 127.70550000000078,
          "velocity": 0.7874015748031497,
          "duration": 1.4152624999999972
        },
        {
          "name": "F7",
          "midi": 101,
          "time": 127.70550000000078,
          "velocity": 0.7874015748031497,
          "duration": 1.4152624999999972
        },
        {
          "name": "C#4",
          "midi": 61,
          "time": 129.47550000000078,
          "velocity": 0.7874015748031497,
          "duration": 0.04425000000000523
        },
        {
          "name": "F#4",
          "midi": 66,
          "time": 129.47550000000078,
          "velocity": 0.7874015748031497,
          "duration": 0.04425000000000523
        },
        {
          "name": "D5",
          "midi": 74,
          "time": 129.47550000000078,
          "velocity": 0.7874015748031497,
          "duration": 0.04425000000000523
        },
        {
          "name": "F#5",
          "midi": 78,
          "time": 129.47550000000078,
          "velocity": 0.7874015748031497,
          "duration": 0.04425000000000523
        },
        {
          "name": "D#6",
          "midi": 87,
          "time": 129.47550000000078,
          "velocity": 0.7874015748031497,
          "duration": 0.04425000000000523
        },
        {
          "name": "F#6",
          "midi": 90,
          "time": 129.47550000000078,
          "velocity": 0.7874015748031497,
          "duration": 0.04425000000000523
        },
        {
          "name": "D#7",
          "midi": 99,
          "time": 129.47550000000078,
          "velocity": 0.7874015748031497,
          "duration": 0.04425000000000523
        },
        {
          "name": "F#7",
          "midi": 102,
          "time": 129.47550000000078,
          "velocity": 0.7874015748031497,
          "duration": 0.04425000000000523
        },
        {
          "name": "C#5",
          "midi": 73,
          "time": 129.65323750000078,
          "velocity": 0.7874015748031497,
          "duration": 0.043512499999991405
        },
        {
          "name": "F5",
          "midi": 77,
          "time": 129.65323750000078,
          "velocity": 0.7874015748031497,
          "duration": 0.043512499999991405
        },
        {
          "name": "D6",
          "midi": 86,
          "time": 129.67536250000077,
          "velocity": 0.7874015748031497,
          "duration": 0.043512499999991405
        },
        {
          "name": "F6",
          "midi": 89,
          "time": 129.67536250000077,
          "velocity": 0.7874015748031497,
          "duration": 0.043512499999991405
        },
        {
          "name": "D7",
          "midi": 98,
          "time": 129.67536250000077,
          "velocity": 0.7874015748031497,
          "duration": 0.043512499999991405
        },
        {
          "name": "F7",
          "midi": 101,
          "time": 129.67536250000077,
          "velocity": 0.7874015748031497,
          "duration": 0.043512499999991405
        },
        {
          "name": "D#7",
          "midi": 99,
          "time": 129.78525000000076,
          "velocity": 0.7874015748031497,
          "duration": 0.043512499999991405
        },
        {
          "name": "F7",
          "midi": 101,
          "time": 129.78525000000076,
          "velocity": 0.7874015748031497,
          "duration": 0.043512499999991405
        },
        {
          "name": "D#6",
          "midi": 87,
          "time": 129.83023750000075,
          "velocity": 0.7874015748031497,
          "duration": 0.043512499999991405
        },
        {
          "name": "F6",
          "midi": 89,
          "time": 129.83023750000075,
          "velocity": 0.7874015748031497,
          "duration": 0.043512499999991405
        },
        {
          "name": "D4",
          "midi": 62,
          "time": 129.91800000000075,
          "velocity": 0.7874015748031497,
          "duration": 0.043512499999991405
        },
        {
          "name": "F#4",
          "midi": 66,
          "time": 129.91800000000075,
          "velocity": 0.7874015748031497,
          "duration": 0.043512499999991405
        },
        {
          "name": "D#5",
          "midi": 75,
          "time": 129.91800000000075,
          "velocity": 0.7874015748031497,
          "duration": 0.043512499999991405
        },
        {
          "name": "F5",
          "midi": 77,
          "time": 129.91800000000075,
          "velocity": 0.7874015748031497,
          "duration": 0.043512499999991405
        },
        {
          "name": "E6",
          "midi": 88,
          "time": 129.98511250000072,
          "velocity": 0.7874015748031497,
          "duration": 0.043512499999991405
        },
        {
          "name": "F6",
          "midi": 89,
          "time": 129.98511250000072,
          "velocity": 0.7874015748031497,
          "duration": 0.043512499999991405
        },
        {
          "name": "E7",
          "midi": 100,
          "time": 129.98511250000072,
          "velocity": 0.7874015748031497,
          "duration": 0.043512499999991405
        },
        {
          "name": "F7",
          "midi": 101,
          "time": 129.98511250000072,
          "velocity": 0.7874015748031497,
          "duration": 0.043512499999991405
        },
        {
          "name": "D#6",
          "midi": 87,
          "time": 130.18350000000072,
          "velocity": 0.7874015748031497,
          "duration": 0.043512499999991405
        },
        {
          "name": "F#6",
          "midi": 90,
          "time": 130.18350000000072,
          "velocity": 0.7874015748031497,
          "duration": 0.043512499999991405
        },
        {
          "name": "D#7",
          "midi": 99,
          "time": 130.18350000000072,
          "velocity": 0.7874015748031497,
          "duration": 0.043512499999991405
        },
        {
          "name": "F#7",
          "midi": 102,
          "time": 130.18350000000072,
          "velocity": 0.7874015748031497,
          "duration": 0.043512499999991405
        },
        {
          "name": "D7",
          "midi": 98,
          "time": 130.3826250000007,
          "velocity": 0.7874015748031497,
          "duration": 0.04425000000000523
        },
        {
          "name": "F#7",
          "midi": 102,
          "time": 130.3826250000007,
          "velocity": 0.7874015748031497,
          "duration": 0.04425000000000523
        },
        {
          "name": "C#4",
          "midi": 61,
          "time": 130.4497375000007,
          "velocity": 0.7874015748031497,
          "duration": 0.043512499999991405
        },
        {
          "name": "F#4",
          "midi": 66,
          "time": 130.4497375000007,
          "velocity": 0.7874015748031497,
          "duration": 0.043512499999991405
        },
        {
          "name": "D5",
          "midi": 74,
          "time": 130.4497375000007,
          "velocity": 0.7874015748031497,
          "duration": 0.043512499999991405
        },
        {
          "name": "F#5",
          "midi": 78,
          "time": 130.4497375000007,
          "velocity": 0.7874015748031497,
          "duration": 0.043512499999991405
        },
        {
          "name": "D#6",
          "midi": 87,
          "time": 130.4497375000007,
          "velocity": 0.7874015748031497,
          "duration": 0.043512499999991405
        },
        {
          "name": "F#6",
          "midi": 90,
          "time": 130.4497375000007,
          "velocity": 0.7874015748031497,
          "duration": 0.043512499999991405
        },
        {
          "name": "D#7",
          "midi": 99,
          "time": 130.4932500000007,
          "velocity": 0.7874015748031497,
          "duration": 0.04425000000000523
        },
        {
          "name": "F7",
          "midi": 101,
          "time": 130.4932500000007,
          "velocity": 0.7874015748031497,
          "duration": 0.04425000000000523
        },
        {
          "name": "D6",
          "midi": 86,
          "time": 130.6038750000007,
          "velocity": 0.7874015748031497,
          "duration": 0.04425000000000523
        },
        {
          "name": "F6",
          "midi": 89,
          "time": 130.6038750000007,
          "velocity": 0.7874015748031497,
          "duration": 0.04425000000000523
        },
        {
          "name": "D7",
          "midi": 98,
          "time": 130.6038750000007,
          "velocity": 0.7874015748031497,
          "duration": 0.04425000000000523
        },
        {
          "name": "F7",
          "midi": 101,
          "time": 130.6038750000007,
          "velocity": 0.7874015748031497,
          "duration": 0.04425000000000523
        },
        {
          "name": "C4",
          "midi": 60,
          "time": 130.7145000000007,
          "velocity": 0.7874015748031497,
          "duration": 0.04425000000000523
        },
        {
          "name": "F4",
          "midi": 65,
          "time": 130.7145000000007,
          "velocity": 0.7874015748031497,
          "duration": 0.04425000000000523
        },
        {
          "name": "C5",
          "midi": 72,
          "time": 130.7145000000007,
          "velocity": 0.7874015748031497,
          "duration": 0.04425000000000523
        },
        {
          "name": "F5",
          "midi": 77,
          "time": 130.7145000000007,
          "velocity": 0.7874015748031497,
          "duration": 0.04425000000000523
        },
        {
          "name": "C#6",
          "midi": 85,
          "time": 130.7587500000007,
          "velocity": 0.7874015748031497,
          "duration": 0.043512499999991405
        },
        {
          "name": "F6",
          "midi": 89,
          "time": 130.7587500000007,
          "velocity": 0.7874015748031497,
          "duration": 0.043512499999991405
        },
        {
          "name": "C#7",
          "midi": 97,
          "time": 130.7587500000007,
          "velocity": 0.7874015748031497,
          "duration": 0.043512499999991405
        },
        {
          "name": "F7",
          "midi": 101,
          "time": 130.7587500000007,
          "velocity": 0.7874015748031497,
          "duration": 0.043512499999991405
        },
        {
          "name": "C#4",
          "midi": 61,
          "time": 130.9800000000007,
          "velocity": 0.7874015748031497,
          "duration": 0.44176250000001005
        },
        {
          "name": "F4",
          "midi": 65,
          "time": 130.9800000000007,
          "velocity": 0.7874015748031497,
          "duration": 0.44176250000001005
        },
        {
          "name": "C#5",
          "midi": 73,
          "time": 130.9800000000007,
          "velocity": 0.7874015748031497,
          "duration": 0.44176250000001005
        },
        {
          "name": "F5",
          "midi": 77,
          "time": 130.9800000000007,
          "velocity": 0.7874015748031497,
          "duration": 0.44176250000001005
        },
        {
          "name": "D6",
          "midi": 86,
          "time": 130.9800000000007,
          "velocity": 0.7874015748031497,
          "duration": 0.44176250000001005
        },
        {
          "name": "F6",
          "midi": 89,
          "time": 130.9800000000007,
          "velocity": 0.7874015748031497,
          "duration": 0.44176250000001005
        },
        {
          "name": "D7",
          "midi": 98,
          "time": 130.9800000000007,
          "velocity": 0.7874015748031497,
          "duration": 0.44176250000001005
        },
        {
          "name": "F7",
          "midi": 101,
          "time": 130.9800000000007,
          "velocity": 0.7874015748031497,
          "duration": 0.44176250000001005
        },
        {
          "name": "C#4",
          "midi": 61,
          "time": 131.5110000000007,
          "velocity": 0.7874015748031497,
          "duration": 0.043512499999991405
        },
        {
          "name": "F#4",
          "midi": 66,
          "time": 131.5110000000007,
          "velocity": 0.7874015748031497,
          "duration": 0.043512499999991405
        },
        {
          "name": "D5",
          "midi": 74,
          "time": 131.5110000000007,
          "velocity": 0.7874015748031497,
          "duration": 0.043512499999991405
        },
        {
          "name": "F#5",
          "midi": 78,
          "time": 131.5110000000007,
          "velocity": 0.7874015748031497,
          "duration": 0.043512499999991405
        },
        {
          "name": "D#6",
          "midi": 87,
          "time": 131.5552500000007,
          "velocity": 0.7874015748031497,
          "duration": 0.043512499999991405
        },
        {
          "name": "F#6",
          "midi": 90,
          "time": 131.5552500000007,
          "velocity": 0.7874015748031497,
          "duration": 0.043512499999991405
        },
        {
          "name": "D#7",
          "midi": 99,
          "time": 131.5552500000007,
          "velocity": 0.7874015748031497,
          "duration": 0.043512499999991405
        },
        {
          "name": "F#7",
          "midi": 102,
          "time": 131.5552500000007,
          "velocity": 0.7874015748031497,
          "duration": 0.043512499999991405
        },
        {
          "name": "C4",
          "midi": 60,
          "time": 131.7757625000007,
          "velocity": 0.7874015748031497,
          "duration": 0.043512499999991405
        },
        {
          "name": "F4",
          "midi": 65,
          "time": 131.7757625000007,
          "velocity": 0.7874015748031497,
          "duration": 0.043512499999991405
        },
        {
          "name": "C#5",
          "midi": 73,
          "time": 131.7757625000007,
          "velocity": 0.7874015748031497,
          "duration": 0.043512499999991405
        },
        {
          "name": "F5",
          "midi": 77,
          "time": 131.7757625000007,
          "velocity": 0.7874015748031497,
          "duration": 0.043512499999991405
        },
        {
          "name": "D6",
          "midi": 86,
          "time": 131.7757625000007,
          "velocity": 0.7874015748031497,
          "duration": 0.043512499999991405
        },
        {
          "name": "F6",
          "midi": 89,
          "time": 131.7757625000007,
          "velocity": 0.7874015748031497,
          "duration": 0.043512499999991405
        },
        {
          "name": "D7",
          "midi": 98,
          "time": 131.7757625000007,
          "velocity": 0.7874015748031497,
          "duration": 0.043512499999991405
        },
        {
          "name": "F7",
          "midi": 101,
          "time": 131.7757625000007,
          "velocity": 0.7874015748031497,
          "duration": 0.043512499999991405
        },
        {
          "name": "D#6",
          "midi": 87,
          "time": 131.9306375000007,
          "velocity": 0.7874015748031497,
          "duration": 0.043512499999991405
        },
        {
          "name": "F6",
          "midi": 89,
          "time": 131.9306375000007,
          "velocity": 0.7874015748031497,
          "duration": 0.043512499999991405
        },
        {
          "name": "D#7",
          "midi": 99,
          "time": 131.9306375000007,
          "velocity": 0.7874015748031497,
          "duration": 0.043512499999991405
        },
        {
          "name": "F7",
          "midi": 101,
          "time": 131.9306375000007,
          "velocity": 0.7874015748031497,
          "duration": 0.043512499999991405
        },
        {
          "name": "D4",
          "midi": 62,
          "time": 132.04200000000068,
          "velocity": 0.7874015748031497,
          "duration": 0.5295249999999783
        },
        {
          "name": "F4",
          "midi": 65,
          "time": 132.04200000000068,
          "velocity": 0.7874015748031497,
          "duration": 0.5295249999999783
        },
        {
          "name": "D#5",
          "midi": 75,
          "time": 132.04200000000068,
          "velocity": 0.7874015748031497,
          "duration": 0.5295249999999783
        },
        {
          "name": "F5",
          "midi": 77,
          "time": 132.04200000000068,
          "velocity": 0.7874015748031497,
          "duration": 0.5295249999999783
        },
        {
          "name": "E6",
          "midi": 88,
          "time": 132.08551250000068,
          "velocity": 0.7874015748031497,
          "duration": 0.48601249999998686
        },
        {
          "name": "F6",
          "midi": 89,
          "time": 132.08551250000068,
          "velocity": 0.7874015748031497,
          "duration": 0.48601249999998686
        },
        {
          "name": "E7",
          "midi": 100,
          "time": 132.08551250000068,
          "velocity": 0.7874015748031497,
          "duration": 0.48601249999998686
        },
        {
          "name": "F7",
          "midi": 101,
          "time": 132.08551250000068,
          "velocity": 0.7874015748031497,
          "duration": 0.48601249999998686
        },
        {
          "name": "G#8",
          "midi": 116,
          "time": 132.57373750000068,
          "velocity": 0.7874015748031497,
          "duration": 4.645512499999995
        },
        {
          "name": "C4",
          "midi": 60,
          "time": 132.57373750000068,
          "velocity": 0.7874015748031497,
          "duration": 0.043512499999991405
        },
        {
          "name": "F#4",
          "midi": 66,
          "time": 132.57373750000068,
          "velocity": 0.7874015748031497,
          "duration": 0.043512499999991405
        },
        {
          "name": "C5",
          "midi": 72,
          "time": 132.57373750000068,
          "velocity": 0.7874015748031497,
          "duration": 0.043512499999991405
        },
        {
          "name": "F#5",
          "midi": 78,
          "time": 132.57373750000068,
          "velocity": 0.7874015748031497,
          "duration": 0.043512499999991405
        },
        {
          "name": "C6",
          "midi": 84,
          "time": 132.57373750000068,
          "velocity": 0.7874015748031497,
          "duration": 0.5265749999999798
        },
        {
          "name": "F#6",
          "midi": 90,
          "time": 132.57373750000068,
          "velocity": 0.7874015748031497,
          "duration": 0.5265749999999798
        },
        {
          "name": "C7",
          "midi": 96,
          "time": 132.57373750000068,
          "velocity": 0.7874015748031497,
          "duration": 0.5265749999999798
        },
        {
          "name": "F#7",
          "midi": 102,
          "time": 132.57373750000068,
          "velocity": 0.7874015748031497,
          "duration": 0.5265749999999798
        },
        {
          "name": "C#4",
          "midi": 61,
          "time": 133.10400000000067,
          "velocity": 0.7874015748031497,
          "duration": 0.08776249999999663
        },
        {
          "name": "F#4",
          "midi": 66,
          "time": 133.10400000000067,
          "velocity": 0.7874015748031497,
          "duration": 0.08776249999999663
        },
        {
          "name": "C#5",
          "midi": 73,
          "time": 133.10400000000067,
          "velocity": 0.7874015748031497,
          "duration": 0.08776249999999663
        },
        {
          "name": "F#5",
          "midi": 78,
          "time": 133.10400000000067,
          "velocity": 0.7874015748031497,
          "duration": 0.08776249999999663
        },
        {
          "name": "C#6",
          "midi": 85,
          "time": 133.10400000000067,
          "velocity": 0.7874015748031497,
          "duration": 0.7043124999999861
        },
        {
          "name": "F#6",
          "midi": 90,
          "time": 133.10400000000067,
          "velocity": 0.7874015748031497,
          "duration": 0.7043124999999861
        },
        {
          "name": "C#7",
          "midi": 97,
          "time": 133.10400000000067,
          "velocity": 0.7874015748031497,
          "duration": 0.7043124999999861
        },
        {
          "name": "F#7",
          "midi": 102,
          "time": 133.10400000000067,
          "velocity": 0.7874015748031497,
          "duration": 0.7043124999999861
        },
        {
          "name": "D4",
          "midi": 62,
          "time": 133.81200000000067,
          "velocity": 0.7874015748031497,
          "duration": 0.08776249999999663
        },
        {
          "name": "F#4",
          "midi": 66,
          "time": 133.81200000000067,
          "velocity": 0.7874015748031497,
          "duration": 0.08776249999999663
        },
        {
          "name": "D5",
          "midi": 74,
          "time": 133.81200000000067,
          "velocity": 0.7874015748031497,
          "duration": 0.08776249999999663
        },
        {
          "name": "F#5",
          "midi": 78,
          "time": 133.81200000000067,
          "velocity": 0.7874015748031497,
          "duration": 0.08776249999999663
        },
        {
          "name": "D6",
          "midi": 86,
          "time": 133.81200000000067,
          "velocity": 0.7874015748031497,
          "duration": 0.7057874999999854
        },
        {
          "name": "F#6",
          "midi": 90,
          "time": 133.81200000000067,
          "velocity": 0.7874015748031497,
          "duration": 0.7057874999999854
        },
        {
          "name": "D7",
          "midi": 98,
          "time": 133.81200000000067,
          "velocity": 0.7874015748031497,
          "duration": 0.7057874999999854
        },
        {
          "name": "F#7",
          "midi": 102,
          "time": 133.81200000000067,
          "velocity": 0.7874015748031497,
          "duration": 0.7057874999999854
        },
        {
          "name": "D4",
          "midi": 62,
          "time": 134.60850000000065,
          "velocity": 0.7874015748031497,
          "duration": 0.6172875000000033
        },
        {
          "name": "F#4",
          "midi": 66,
          "time": 134.60850000000065,
          "velocity": 0.7874015748031497,
          "duration": 0.6172875000000033
        },
        {
          "name": "D#5",
          "midi": 75,
          "time": 134.60850000000065,
          "velocity": 0.7874015748031497,
          "duration": 0.6172875000000033
        },
        {
          "name": "F#5",
          "midi": 78,
          "time": 134.60850000000065,
          "velocity": 0.7874015748031497,
          "duration": 0.6172875000000033
        },
        {
          "name": "D#6",
          "midi": 87,
          "time": 134.60850000000065,
          "velocity": 0.7874015748031497,
          "duration": 0.6172875000000033
        },
        {
          "name": "F#6",
          "midi": 90,
          "time": 134.60850000000065,
          "velocity": 0.7874015748031497,
          "duration": 0.6172875000000033
        },
        {
          "name": "D#7",
          "midi": 99,
          "time": 134.60850000000065,
          "velocity": 0.7874015748031497,
          "duration": 0.6172875000000033
        },
        {
          "name": "F#7",
          "midi": 102,
          "time": 134.60850000000065,
          "velocity": 0.7874015748031497,
          "duration": 0.6172875000000033
        },
        {
          "name": "C4",
          "midi": 60,
          "time": 135.22800000000066,
          "velocity": 0.7874015748031497,
          "duration": 0.04425000000000523
        },
        {
          "name": "F#4",
          "midi": 66,
          "time": 135.22800000000066,
          "velocity": 0.7874015748031497,
          "duration": 0.04425000000000523
        },
        {
          "name": "C#5",
          "midi": 73,
          "time": 135.22800000000066,
          "velocity": 0.7874015748031497,
          "duration": 0.04425000000000523
        },
        {
          "name": "F#5",
          "midi": 78,
          "time": 135.22800000000066,
          "velocity": 0.7874015748031497,
          "duration": 0.04425000000000523
        },
        {
          "name": "C#6",
          "midi": 85,
          "time": 135.22800000000066,
          "velocity": 0.7874015748031497,
          "duration": 0.04425000000000523
        },
        {
          "name": "F#6",
          "midi": 90,
          "time": 135.22800000000066,
          "velocity": 0.7874015748031497,
          "duration": 0.04425000000000523
        },
        {
          "name": "C#7",
          "midi": 97,
          "time": 135.22800000000066,
          "velocity": 0.7874015748031497,
          "duration": 0.04425000000000523
        },
        {
          "name": "F#7",
          "midi": 102,
          "time": 135.22800000000066,
          "velocity": 0.7874015748031497,
          "duration": 0.04425000000000523
        },
        {
          "name": "C6",
          "midi": 84,
          "time": 135.36148750000066,
          "velocity": 0.7874015748031497,
          "duration": 0.04425000000000523
        },
        {
          "name": "F6",
          "midi": 89,
          "time": 135.36148750000066,
          "velocity": 0.7874015748031497,
          "duration": 0.04425000000000523
        },
        {
          "name": "C7",
          "midi": 96,
          "time": 135.36148750000066,
          "velocity": 0.7874015748031497,
          "duration": 0.04425000000000523
        },
        {
          "name": "F7",
          "midi": 101,
          "time": 135.36148750000066,
          "velocity": 0.7874015748031497,
          "duration": 0.04425000000000523
        },
        {
          "name": "D6",
          "midi": 86,
          "time": 135.47137500000068,
          "velocity": 0.7874015748031497,
          "duration": 0.37391249999998877
        },
        {
          "name": "F6",
          "midi": 89,
          "time": 135.47137500000068,
          "velocity": 0.7874015748031497,
          "duration": 0.37391249999998877
        },
        {
          "name": "D7",
          "midi": 98,
          "time": 135.47137500000068,
          "velocity": 0.7874015748031497,
          "duration": 0.37391249999998877
        },
        {
          "name": "F7",
          "midi": 101,
          "time": 135.47137500000068,
          "velocity": 0.7874015748031497,
          "duration": 0.37391249999998877
        },
        {
          "name": "C#4",
          "midi": 61,
          "time": 135.49350000000067,
          "velocity": 0.7874015748031497,
          "duration": 0.04425000000000523
        },
        {
          "name": "F4",
          "midi": 65,
          "time": 135.49350000000067,
          "velocity": 0.7874015748031497,
          "duration": 0.04425000000000523
        },
        {
          "name": "D5",
          "midi": 74,
          "time": 135.49350000000067,
          "velocity": 0.7874015748031497,
          "duration": 0.04425000000000523
        },
        {
          "name": "F#5",
          "midi": 78,
          "time": 135.49350000000067,
          "velocity": 0.7874015748031497,
          "duration": 0.04425000000000523
        },
        {
          "name": "D4",
          "midi": 62,
          "time": 135.84676250000066,
          "velocity": 0.7874015748031497,
          "duration": 1.3717499999999916
        },
        {
          "name": "F4",
          "midi": 65,
          "time": 135.84676250000066,
          "velocity": 0.7874015748031497,
          "duration": 1.3717499999999916
        },
        {
          "name": "D#5",
          "midi": 75,
          "time": 135.84676250000066,
          "velocity": 0.7874015748031497,
          "duration": 1.3717499999999916
        },
        {
          "name": "F#5",
          "midi": 78,
          "time": 135.84676250000066,
          "velocity": 0.7874015748031497,
          "duration": 1.3717499999999916
        },
        {
          "name": "D#6",
          "midi": 87,
          "time": 135.84676250000066,
          "velocity": 0.7874015748031497,
          "duration": 1.3717499999999916
        },
        {
          "name": "F#6",
          "midi": 90,
          "time": 135.84676250000066,
          "velocity": 0.7874015748031497,
          "duration": 1.3717499999999916
        },
        {
          "name": "D7",
          "midi": 98,
          "time": 135.84676250000066,
          "velocity": 0.7874015748031497,
          "duration": 0.04425000000000523
        },
        {
          "name": "F#7",
          "midi": 102,
          "time": 135.84676250000066,
          "velocity": 0.7874015748031497,
          "duration": 0.04425000000000523
        },
        {
          "name": "D#7",
          "midi": 99,
          "time": 135.91313750000066,
          "velocity": 0.7874015748031497,
          "duration": 1.3038999999999987
        },
        {
          "name": "F7",
          "midi": 101,
          "time": 135.91313750000066,
          "velocity": 0.7874015748031497,
          "duration": 1.3038999999999987
        },
        {
          "name": "C#7",
          "midi": 97,
          "time": 137.21925000000067,
          "velocity": 0.7874015748031497,
          "duration": 0.04425000000000523
        },
        {
          "name": "F#7",
          "midi": 102,
          "time": 137.21925000000067,
          "velocity": 0.7874015748031497,
          "duration": 0.04425000000000523
        },
        {
          "name": "D7",
          "midi": 98,
          "time": 137.28488750000068,
          "velocity": 0.7874015748031497,
          "duration": 0.04425000000000523
        },
        {
          "name": "F7",
          "midi": 101,
          "time": 137.28488750000068,
          "velocity": 0.7874015748031497,
          "duration": 0.04425000000000523
        },
        {
          "name": "D4",
          "midi": 62,
          "time": 137.3520000000007,
          "velocity": 0.7874015748031497,
          "duration": 0.043512499999991405
        },
        {
          "name": "F#4",
          "midi": 66,
          "time": 137.3520000000007,
          "velocity": 0.7874015748031497,
          "duration": 0.043512499999991405
        },
        {
          "name": "D5",
          "midi": 74,
          "time": 137.3520000000007,
          "velocity": 0.7874015748031497,
          "duration": 0.043512499999991405
        },
        {
          "name": "F#5",
          "midi": 78,
          "time": 137.3520000000007,
          "velocity": 0.7874015748031497,
          "duration": 0.043512499999991405
        },
        {
          "name": "D#6",
          "midi": 87,
          "time": 137.3520000000007,
          "velocity": 0.7874015748031497,
          "duration": 0.043512499999991405
        },
        {
          "name": "F#6",
          "midi": 90,
          "time": 137.3520000000007,
          "velocity": 0.7874015748031497,
          "duration": 0.043512499999991405
        },
        {
          "name": "D#7",
          "midi": 99,
          "time": 137.3520000000007,
          "velocity": 0.7874015748031497,
          "duration": 0.043512499999991405
        },
        {
          "name": "F7",
          "midi": 101,
          "time": 137.3520000000007,
          "velocity": 0.7874015748031497,
          "duration": 0.043512499999991405
        },
        {
          "name": "D#5",
          "midi": 75,
          "time": 137.52900000000068,
          "velocity": 0.7874015748031497,
          "duration": 0.043512499999991405
        },
        {
          "name": "F5",
          "midi": 77,
          "time": 137.52900000000068,
          "velocity": 0.7874015748031497,
          "duration": 0.043512499999991405
        },
        {
          "name": "E6",
          "midi": 88,
          "time": 137.52900000000068,
          "velocity": 0.7874015748031497,
          "duration": 0.043512499999991405
        },
        {
          "name": "F6",
          "midi": 89,
          "time": 137.52900000000068,
          "velocity": 0.7874015748031497,
          "duration": 0.043512499999991405
        },
        {
          "name": "E7",
          "midi": 100,
          "time": 137.52900000000068,
          "velocity": 0.7874015748031497,
          "duration": 0.043512499999991405
        },
        {
          "name": "F7",
          "midi": 101,
          "time": 137.52900000000068,
          "velocity": 0.7874015748031497,
          "duration": 0.043512499999991405
        },
        {
          "name": "C#4",
          "midi": 61,
          "time": 137.70600000000067,
          "velocity": 0.7874015748031497,
          "duration": 0.043512499999991405
        },
        {
          "name": "F#4",
          "midi": 66,
          "time": 137.70600000000067,
          "velocity": 0.7874015748031497,
          "duration": 0.043512499999991405
        },
        {
          "name": "D5",
          "midi": 74,
          "time": 137.70600000000067,
          "velocity": 0.7874015748031497,
          "duration": 0.043512499999991405
        },
        {
          "name": "F5",
          "midi": 77,
          "time": 137.70600000000067,
          "velocity": 0.7874015748031497,
          "duration": 0.043512499999991405
        },
        {
          "name": "D#6",
          "midi": 87,
          "time": 137.70600000000067,
          "velocity": 0.7874015748031497,
          "duration": 0.043512499999991405
        },
        {
          "name": "F6",
          "midi": 89,
          "time": 137.70600000000067,
          "velocity": 0.7874015748031497,
          "duration": 0.043512499999991405
        },
        {
          "name": "D#7",
          "midi": 99,
          "time": 137.70600000000067,
          "velocity": 0.7874015748031497,
          "duration": 0.043512499999991405
        },
        {
          "name": "F7",
          "midi": 101,
          "time": 137.70600000000067,
          "velocity": 0.7874015748031497,
          "duration": 0.043512499999991405
        },
        {
          "name": "C#4",
          "midi": 61,
          "time": 138.06000000000066,
          "velocity": 0.7874015748031497,
          "duration": 0.043512499999991405
        },
        {
          "name": "F#4",
          "midi": 66,
          "time": 138.06000000000066,
          "velocity": 0.7874015748031497,
          "duration": 0.043512499999991405
        },
        {
          "name": "D#5",
          "midi": 75,
          "time": 138.06000000000066,
          "velocity": 0.7874015748031497,
          "duration": 0.043512499999991405
        },
        {
          "name": "F#5",
          "midi": 78,
          "time": 138.06000000000066,
          "velocity": 0.7874015748031497,
          "duration": 0.043512499999991405
        },
        {
          "name": "D#6",
          "midi": 87,
          "time": 138.06000000000066,
          "velocity": 0.7874015748031497,
          "duration": 0.043512499999991405
        },
        {
          "name": "F#6",
          "midi": 90,
          "time": 138.06000000000066,
          "velocity": 0.7874015748031497,
          "duration": 0.043512499999991405
        },
        {
          "name": "D#7",
          "midi": 99,
          "time": 138.06000000000066,
          "velocity": 0.7874015748031497,
          "duration": 0.043512499999991405
        },
        {
          "name": "F#7",
          "midi": 102,
          "time": 138.06000000000066,
          "velocity": 0.7874015748031497,
          "duration": 0.043512499999991405
        },
        {
          "name": "C#5",
          "midi": 73,
          "time": 138.23700000000065,
          "velocity": 0.7874015748031497,
          "duration": 0.043512499999991405
        },
        {
          "name": "F5",
          "midi": 77,
          "time": 138.23700000000065,
          "velocity": 0.7874015748031497,
          "duration": 0.043512499999991405
        },
        {
          "name": "C#6",
          "midi": 85,
          "time": 138.23700000000065,
          "velocity": 0.7874015748031497,
          "duration": 0.043512499999991405
        },
        {
          "name": "F6",
          "midi": 89,
          "time": 138.23700000000065,
          "velocity": 0.7874015748031497,
          "duration": 0.043512499999991405
        },
        {
          "name": "C#7",
          "midi": 97,
          "time": 138.23700000000065,
          "velocity": 0.7874015748031497,
          "duration": 0.043512499999991405
        },
        {
          "name": "F#7",
          "midi": 102,
          "time": 138.23700000000065,
          "velocity": 0.7874015748031497,
          "duration": 0.043512499999991405
        },
        {
          "name": "C4",
          "midi": 60,
          "time": 138.41400000000064,
          "velocity": 0.7874015748031497,
          "duration": 0.043512499999991405
        },
        {
          "name": "F#4",
          "midi": 66,
          "time": 138.41400000000064,
          "velocity": 0.7874015748031497,
          "duration": 0.043512499999991405
        },
        {
          "name": "D5",
          "midi": 74,
          "time": 138.41400000000064,
          "velocity": 0.7874015748031497,
          "duration": 0.043512499999991405
        },
        {
          "name": "F5",
          "midi": 77,
          "time": 138.41400000000064,
          "velocity": 0.7874015748031497,
          "duration": 0.043512499999991405
        },
        {
          "name": "D6",
          "midi": 86,
          "time": 138.41400000000064,
          "velocity": 0.7874015748031497,
          "duration": 0.043512499999991405
        },
        {
          "name": "F6",
          "midi": 89,
          "time": 138.41400000000064,
          "velocity": 0.7874015748031497,
          "duration": 0.043512499999991405
        },
        {
          "name": "D7",
          "midi": 98,
          "time": 138.41400000000064,
          "velocity": 0.7874015748031497,
          "duration": 0.043512499999991405
        },
        {
          "name": "F#7",
          "midi": 102,
          "time": 138.41400000000064,
          "velocity": 0.7874015748031497,
          "duration": 0.043512499999991405
        },
        {
          "name": "C#6",
          "midi": 85,
          "time": 138.55855000000062,
          "velocity": 0.7874015748031497,
          "duration": 0.042775000000006
        },
        {
          "name": "F6",
          "midi": 89,
          "time": 138.55855000000062,
          "velocity": 0.7874015748031497,
          "duration": 0.042775000000006
        },
        {
          "name": "C#7",
          "midi": 97,
          "time": 138.55855000000062,
          "velocity": 0.7874015748031497,
          "duration": 0.042775000000006
        },
        {
          "name": "F7",
          "midi": 101,
          "time": 138.55855000000062,
          "velocity": 0.7874015748031497,
          "duration": 0.042775000000006
        },
        {
          "name": "C7",
          "midi": 96,
          "time": 138.70162500000063,
          "velocity": 0.7874015748031497,
          "duration": 0.043512499999991405
        },
        {
          "name": "F7",
          "midi": 101,
          "time": 138.70162500000063,
          "velocity": 0.7874015748031497,
          "duration": 0.043512499999991405
        },
        {
          "name": "C4",
          "midi": 60,
          "time": 138.85576250000062,
          "velocity": 0.7874015748031497,
          "duration": 0.04425000000000523
        },
        {
          "name": "F#4",
          "midi": 66,
          "time": 138.85576250000062,
          "velocity": 0.7874015748031497,
          "duration": 0.04425000000000523
        },
        {
          "name": "C#5",
          "midi": 73,
          "time": 138.85576250000062,
          "velocity": 0.7874015748031497,
          "duration": 0.04425000000000523
        },
        {
          "name": "F#5",
          "midi": 78,
          "time": 138.85576250000062,
          "velocity": 0.7874015748031497,
          "duration": 0.04425000000000523
        },
        {
          "name": "C#6",
          "midi": 85,
          "time": 138.85576250000062,
          "velocity": 0.7874015748031497,
          "duration": 0.04425000000000523
        },
        {
          "name": "F#6",
          "midi": 90,
          "time": 138.85576250000062,
          "velocity": 0.7874015748031497,
          "duration": 0.04425000000000523
        },
        {
          "name": "C#7",
          "midi": 97,
          "time": 138.85576250000062,
          "velocity": 0.7874015748031497,
          "duration": 0.04425000000000523
        },
        {
          "name": "F#7",
          "midi": 102,
          "time": 138.85576250000062,
          "velocity": 0.7874015748031497,
          "duration": 0.04425000000000523
        },
        {
          "name": "C#4",
          "midi": 61,
          "time": 139.07701250000062,
          "velocity": 0.7874015748031497,
          "duration": 0.04425000000000523
        },
        {
          "name": "F4",
          "midi": 65,
          "time": 139.07701250000062,
          "velocity": 0.7874015748031497,
          "duration": 0.04425000000000523
        },
        {
          "name": "D5",
          "midi": 74,
          "time": 139.07701250000062,
          "velocity": 0.7874015748031497,
          "duration": 0.04425000000000523
        },
        {
          "name": "F5",
          "midi": 77,
          "time": 139.07701250000062,
          "velocity": 0.7874015748031497,
          "duration": 0.04425000000000523
        },
        {
          "name": "D6",
          "midi": 86,
          "time": 139.07701250000062,
          "velocity": 0.7874015748031497,
          "duration": 0.04425000000000523
        },
        {
          "name": "F#6",
          "midi": 90,
          "time": 139.07701250000062,
          "velocity": 0.7874015748031497,
          "duration": 0.04425000000000523
        },
        {
          "name": "D7",
          "midi": 98,
          "time": 139.07701250000062,
          "velocity": 0.7874015748031497,
          "duration": 0.04425000000000523
        },
        {
          "name": "F#7",
          "midi": 102,
          "time": 139.07701250000062,
          "velocity": 0.7874015748031497,
          "duration": 0.04425000000000523
        },
        {
          "name": "D4",
          "midi": 62,
          "time": 139.29826250000062,
          "velocity": 0.7874015748031497,
          "duration": 0.043512499999991405
        },
        {
          "name": "F4",
          "midi": 65,
          "time": 139.29826250000062,
          "velocity": 0.7874015748031497,
          "duration": 0.043512499999991405
        },
        {
          "name": "D#5",
          "midi": 75,
          "time": 139.29826250000062,
          "velocity": 0.7874015748031497,
          "duration": 0.043512499999991405
        },
        {
          "name": "F5",
          "midi": 77,
          "time": 139.29826250000062,
          "velocity": 0.7874015748031497,
          "duration": 0.043512499999991405
        },
        {
          "name": "D#6",
          "midi": 87,
          "time": 139.29826250000062,
          "velocity": 0.7874015748031497,
          "duration": 0.30827499999998054
        },
        {
          "name": "F#6",
          "midi": 90,
          "time": 139.29826250000062,
          "velocity": 0.7874015748031497,
          "duration": 0.30827499999998054
        },
        {
          "name": "D#7",
          "midi": 99,
          "time": 139.29826250000062,
          "velocity": 0.7874015748031497,
          "duration": 0.30827499999998054
        },
        {
          "name": "F#7",
          "midi": 102,
          "time": 139.29826250000062,
          "velocity": 0.7874015748031497,
          "duration": 0.30827499999998054
        },
        {
          "name": "E6",
          "midi": 88,
          "time": 139.6087500000006,
          "velocity": 0.7874015748031497,
          "duration": 0.043512499999991405
        },
        {
          "name": "F6",
          "midi": 89,
          "time": 139.6087500000006,
          "velocity": 0.7874015748031497,
          "duration": 0.043512499999991405
        },
        {
          "name": "E7",
          "midi": 100,
          "time": 139.6087500000006,
          "velocity": 0.7874015748031497,
          "duration": 0.043512499999991405
        },
        {
          "name": "F7",
          "midi": 101,
          "time": 139.6087500000006,
          "velocity": 0.7874015748031497,
          "duration": 0.043512499999991405
        },
        {
          "name": "C7",
          "midi": 96,
          "time": 139.8300000000006,
          "velocity": 0.7874015748031497,
          "duration": 0.043512499999991405
        },
        {
          "name": "F7",
          "midi": 101,
          "time": 139.8300000000006,
          "velocity": 0.7874015748031497,
          "duration": 0.043512499999991405
        },
        {
          "name": "D4",
          "midi": 62,
          "time": 140.3610000000006,
          "velocity": 0.7874015748031497,
          "duration": 0.043512499999991405
        },
        {
          "name": "F#4",
          "midi": 66,
          "time": 140.3610000000006,
          "velocity": 0.7874015748031497,
          "duration": 0.043512499999991405
        },
        {
          "name": "D5",
          "midi": 74,
          "time": 140.3610000000006,
          "velocity": 0.7874015748031497,
          "duration": 0.043512499999991405
        },
        {
          "name": "F#5",
          "midi": 78,
          "time": 140.3610000000006,
          "velocity": 0.7874015748031497,
          "duration": 0.043512499999991405
        },
        {
          "name": "D#6",
          "midi": 87,
          "time": 140.3610000000006,
          "velocity": 0.7874015748031497,
          "duration": 0.043512499999991405
        },
        {
          "name": "F#6",
          "midi": 90,
          "time": 140.3610000000006,
          "velocity": 0.7874015748031497,
          "duration": 0.043512499999991405
        },
        {
          "name": "D#7",
          "midi": 99,
          "time": 140.3610000000006,
          "velocity": 0.7874015748031497,
          "duration": 0.043512499999991405
        },
        {
          "name": "F#7",
          "midi": 102,
          "time": 140.3610000000006,
          "velocity": 0.7874015748031497,
          "duration": 0.043512499999991405
        },
        {
          "name": "D7",
          "midi": 98,
          "time": 140.49375000000057,
          "velocity": 0.7874015748031497,
          "duration": 0.043512499999991405
        },
        {
          "name": "F7",
          "midi": 101,
          "time": 140.49375000000057,
          "velocity": 0.7874015748031497,
          "duration": 0.043512499999991405
        },
        {
          "name": "C#6",
          "midi": 85,
          "time": 140.53800000000058,
          "velocity": 0.7874015748031497,
          "duration": 0.043512499999991405
        },
        {
          "name": "F6",
          "midi": 89,
          "time": 140.53800000000058,
          "velocity": 0.7874015748031497,
          "duration": 0.043512499999991405
        },
        {
          "name": "C#7",
          "midi": 97,
          "time": 140.61617500000057,
          "velocity": 0.7874015748031497,
          "duration": 0.043512499999991405
        },
        {
          "name": "F7",
          "midi": 101,
          "time": 140.61617500000057,
          "velocity": 0.7874015748031497,
          "duration": 0.043512499999991405
        },
        {
          "name": "C#4",
          "midi": 61,
          "time": 140.71573750000056,
          "velocity": 0.7874015748031497,
          "duration": 0.043512499999991405
        },
        {
          "name": "F#4",
          "midi": 66,
          "time": 140.71573750000056,
          "velocity": 0.7874015748031497,
          "duration": 0.043512499999991405
        },
        {
          "name": "C#5",
          "midi": 73,
          "time": 140.71573750000056,
          "velocity": 0.7874015748031497,
          "duration": 0.043512499999991405
        },
        {
          "name": "F#5",
          "midi": 78,
          "time": 140.71573750000056,
          "velocity": 0.7874015748031497,
          "duration": 0.043512499999991405
        },
        {
          "name": "D6",
          "midi": 86,
          "time": 140.73712500000056,
          "velocity": 0.7874015748031497,
          "duration": 0.043512499999991405
        },
        {
          "name": "F6",
          "midi": 89,
          "time": 140.73712500000056,
          "velocity": 0.7874015748031497,
          "duration": 0.043512499999991405
        },
        {
          "name": "D7",
          "midi": 98,
          "time": 140.73712500000056,
          "velocity": 0.7874015748031497,
          "duration": 0.043512499999991405
        },
        {
          "name": "F#7",
          "midi": 102,
          "time": 140.73712500000056,
          "velocity": 0.7874015748031497,
          "duration": 0.043512499999991405
        },
        {
          "name": "D#5",
          "midi": 75,
          "time": 140.89200000000056,
          "velocity": 0.7874015748031497,
          "duration": 0.043512499999991405
        },
        {
          "name": "F5",
          "midi": 77,
          "time": 140.89200000000056,
          "velocity": 0.7874015748031497,
          "duration": 0.043512499999991405
        },
        {
          "name": "E6",
          "midi": 88,
          "time": 140.93625000000057,
          "velocity": 0.7874015748031497,
          "duration": 0.043512499999991405
        },
        {
          "name": "F6",
          "midi": 89,
          "time": 140.93625000000057,
          "velocity": 0.7874015748031497,
          "duration": 0.043512499999991405
        },
        {
          "name": "E7",
          "midi": 100,
          "time": 140.93625000000057,
          "velocity": 0.7874015748031497,
          "duration": 0.043512499999991405
        },
        {
          "name": "F#7",
          "midi": 102,
          "time": 140.93625000000057,
          "velocity": 0.7874015748031497,
          "duration": 0.043512499999991405
        },
        {
          "name": "C#4",
          "midi": 61,
          "time": 141.06900000000056,
          "velocity": 0.7874015748031497,
          "duration": 0.44176250000001005
        },
        {
          "name": "F#4",
          "midi": 66,
          "time": 141.06900000000056,
          "velocity": 0.7874015748031497,
          "duration": 0.44176250000001005
        },
        {
          "name": "C#5",
          "midi": 73,
          "time": 141.06900000000056,
          "velocity": 0.7874015748031497,
          "duration": 0.44176250000001005
        },
        {
          "name": "F5",
          "midi": 77,
          "time": 141.06900000000056,
          "velocity": 0.7874015748031497,
          "duration": 0.44176250000001005
        },
        {
          "name": "D6",
          "midi": 86,
          "time": 141.11325000000056,
          "velocity": 0.7874015748031497,
          "duration": 0.39825000000001864
        },
        {
          "name": "F6",
          "midi": 89,
          "time": 141.11325000000056,
          "velocity": 0.7874015748031497,
          "duration": 0.39825000000001864
        },
        {
          "name": "D7",
          "midi": 98,
          "time": 141.11325000000056,
          "velocity": 0.7874015748031497,
          "duration": 0.396774999999991
        },
        {
          "name": "F#7",
          "midi": 102,
          "time": 141.11325000000056,
          "velocity": 0.7874015748031497,
          "duration": 0.396774999999991
        },
        {
          "name": "C#7",
          "midi": 97,
          "time": 141.51150000000058,
          "velocity": 0.7874015748031497,
          "duration": 0.043512499999991405
        },
        {
          "name": "F#7",
          "midi": 102,
          "time": 141.51150000000058,
          "velocity": 0.7874015748031497,
          "duration": 0.043512499999991405
        },
        {
          "name": "D4",
          "midi": 62,
          "time": 141.60000000000056,
          "velocity": 0.7874015748031497,
          "duration": 0.043512499999991405
        },
        {
          "name": "F#4",
          "midi": 66,
          "time": 141.60000000000056,
          "velocity": 0.7874015748031497,
          "duration": 0.043512499999991405
        },
        {
          "name": "D5",
          "midi": 74,
          "time": 141.60000000000056,
          "velocity": 0.7874015748031497,
          "duration": 0.043512499999991405
        },
        {
          "name": "F#5",
          "midi": 78,
          "time": 141.60000000000056,
          "velocity": 0.7874015748031497,
          "duration": 0.043512499999991405
        },
        {
          "name": "D#6",
          "midi": 87,
          "time": 141.60000000000056,
          "velocity": 0.7874015748031497,
          "duration": 0.043512499999991405
        },
        {
          "name": "F#6",
          "midi": 90,
          "time": 141.60000000000056,
          "velocity": 0.7874015748031497,
          "duration": 0.043512499999991405
        },
        {
          "name": "D#7",
          "midi": 99,
          "time": 141.62212500000055,
          "velocity": 0.7874015748031497,
          "duration": 0.043512499999991405
        },
        {
          "name": "F7",
          "midi": 101,
          "time": 141.62212500000055,
          "velocity": 0.7874015748031497,
          "duration": 0.043512499999991405
        },
        {
          "name": "C#6",
          "midi": 85,
          "time": 141.73275000000055,
          "velocity": 0.7874015748031497,
          "duration": 0.043512499999991405
        },
        {
          "name": "F6",
          "midi": 89,
          "time": 141.73275000000055,
          "velocity": 0.7874015748031497,
          "duration": 0.043512499999991405
        },
        {
          "name": "C#7",
          "midi": 97,
          "time": 141.73275000000055,
          "velocity": 0.7874015748031497,
          "duration": 0.043512499999991405
        },
        {
          "name": "F7",
          "midi": 101,
          "time": 141.73275000000055,
          "velocity": 0.7874015748031497,
          "duration": 0.043512499999991405
        },
        {
          "name": "D#7",
          "midi": 99,
          "time": 141.84337500000055,
          "velocity": 0.7874015748031497,
          "duration": 0.043512499999991405
        },
        {
          "name": "F7",
          "midi": 101,
          "time": 141.84337500000055,
          "velocity": 0.7874015748031497,
          "duration": 0.043512499999991405
        },
        {
          "name": "D4",
          "midi": 62,
          "time": 141.86550000000054,
          "velocity": 0.7874015748031497,
          "duration": 0.043512499999991405
        },
        {
          "name": "F#4",
          "midi": 66,
          "time": 141.86550000000054,
          "velocity": 0.7874015748031497,
          "duration": 0.043512499999991405
        },
        {
          "name": "D5",
          "midi": 74,
          "time": 141.86550000000054,
          "velocity": 0.7874015748031497,
          "duration": 0.043512499999991405
        },
        {
          "name": "F#5",
          "midi": 78,
          "time": 141.86550000000054,
          "velocity": 0.7874015748031497,
          "duration": 0.043512499999991405
        },
        {
          "name": "D#6",
          "midi": 87,
          "time": 141.86550000000054,
          "velocity": 0.7874015748031497,
          "duration": 0.043512499999991405
        },
        {
          "name": "F6",
          "midi": 89,
          "time": 141.86550000000054,
          "velocity": 0.7874015748031497,
          "duration": 0.043512499999991405
        },
        {
          "name": "C#7",
          "midi": 97,
          "time": 141.95400000000052,
          "velocity": 0.7874015748031497,
          "duration": 0.043512499999991405
        },
        {
          "name": "F7",
          "midi": 101,
          "time": 141.95400000000052,
          "velocity": 0.7874015748031497,
          "duration": 0.043512499999991405
        },
        {
          "name": "C#4",
          "midi": 61,
          "time": 142.1310000000005,
          "velocity": 0.7874015748031497,
          "duration": 0.043512499999991405
        },
        {
          "name": "F#4",
          "midi": 66,
          "time": 142.1310000000005,
          "velocity": 0.7874015748031497,
          "duration": 0.043512499999991405
        },
        {
          "name": "C#5",
          "midi": 73,
          "time": 142.1310000000005,
          "velocity": 0.7874015748031497,
          "duration": 0.043512499999991405
        },
        {
          "name": "F#5",
          "midi": 78,
          "time": 142.1310000000005,
          "velocity": 0.7874015748031497,
          "duration": 0.043512499999991405
        },
        {
          "name": "D6",
          "midi": 86,
          "time": 142.1310000000005,
          "velocity": 0.7874015748031497,
          "duration": 0.043512499999991405
        },
        {
          "name": "F#6",
          "midi": 90,
          "time": 142.1310000000005,
          "velocity": 0.7874015748031497,
          "duration": 0.043512499999991405
        },
        {
          "name": "D7",
          "midi": 98,
          "time": 142.1310000000005,
          "velocity": 0.7874015748031497,
          "duration": 0.043512499999991405
        },
        {
          "name": "F#7",
          "midi": 102,
          "time": 142.1310000000005,
          "velocity": 0.7874015748031497,
          "duration": 0.043512499999991405
        },
        {
          "name": "E6",
          "midi": 88,
          "time": 142.28587500000052,
          "velocity": 0.7874015748031497,
          "duration": 0.043512499999991405
        },
        {
          "name": "F6",
          "midi": 89,
          "time": 142.28587500000052,
          "velocity": 0.7874015748031497,
          "duration": 0.043512499999991405
        },
        {
          "name": "E7",
          "midi": 100,
          "time": 142.28587500000052,
          "velocity": 0.7874015748031497,
          "duration": 0.043512499999991405
        },
        {
          "name": "F#7",
          "midi": 102,
          "time": 142.28587500000052,
          "velocity": 0.7874015748031497,
          "duration": 0.043512499999991405
        },
        {
          "name": "D#5",
          "midi": 75,
          "time": 142.3080000000005,
          "velocity": 0.7874015748031497,
          "duration": 0.04425000000000523
        },
        {
          "name": "F5",
          "midi": 77,
          "time": 142.3080000000005,
          "velocity": 0.7874015748031497,
          "duration": 0.04425000000000523
        },
        {
          "name": "D6",
          "midi": 86,
          "time": 142.44075000000052,
          "velocity": 0.7874015748031497,
          "duration": 0.3975125000000048
        },
        {
          "name": "F6",
          "midi": 89,
          "time": 142.44075000000052,
          "velocity": 0.7874015748031497,
          "duration": 0.3975125000000048
        },
        {
          "name": "D7",
          "midi": 98,
          "time": 142.44075000000052,
          "velocity": 0.7874015748031497,
          "duration": 0.3975125000000048
        },
        {
          "name": "F#7",
          "midi": 102,
          "time": 142.44075000000052,
          "velocity": 0.7874015748031497,
          "duration": 0.3975125000000048
        },
        {
          "name": "C#4",
          "midi": 61,
          "time": 142.48500000000053,
          "velocity": 0.7874015748031497,
          "duration": 0.04425000000000523
        },
        {
          "name": "F#4",
          "midi": 66,
          "time": 142.48500000000053,
          "velocity": 0.7874015748031497,
          "duration": 0.04425000000000523
        },
        {
          "name": "C#5",
          "midi": 73,
          "time": 142.48500000000053,
          "velocity": 0.7874015748031497,
          "duration": 0.04425000000000523
        },
        {
          "name": "F5",
          "midi": 77,
          "time": 142.48500000000053,
          "velocity": 0.7874015748031497,
          "duration": 0.04425000000000523
        },
        {
          "name": "C#4",
          "midi": 61,
          "time": 142.92750000000052,
          "velocity": 0.7874015748031497,
          "duration": 0.04425000000000523
        },
        {
          "name": "F#4",
          "midi": 66,
          "time": 142.92750000000052,
          "velocity": 0.7874015748031497,
          "duration": 0.04425000000000523
        },
        {
          "name": "C#5",
          "midi": 73,
          "time": 142.92750000000052,
          "velocity": 0.7874015748031497,
          "duration": 0.04425000000000523
        },
        {
          "name": "F#5",
          "midi": 78,
          "time": 142.92750000000052,
          "velocity": 0.7874015748031497,
          "duration": 0.04425000000000523
        },
        {
          "name": "D6",
          "midi": 86,
          "time": 142.92750000000052,
          "velocity": 0.7874015748031497,
          "duration": 0.04425000000000523
        },
        {
          "name": "F#6",
          "midi": 90,
          "time": 142.92750000000052,
          "velocity": 0.7874015748031497,
          "duration": 0.04425000000000523
        },
        {
          "name": "D7",
          "midi": 98,
          "time": 142.92750000000052,
          "velocity": 0.7874015748031497,
          "duration": 0.04425000000000523
        },
        {
          "name": "F#7",
          "midi": 102,
          "time": 142.92750000000052,
          "velocity": 0.7874015748031497,
          "duration": 0.04425000000000523
        },
        {
          "name": "C#6",
          "midi": 85,
          "time": 143.06025000000054,
          "velocity": 0.7874015748031497,
          "duration": 0.04425000000000523
        },
        {
          "name": "F6",
          "midi": 89,
          "time": 143.06025000000054,
          "velocity": 0.7874015748031497,
          "duration": 0.04425000000000523
        },
        {
          "name": "C#7",
          "midi": 97,
          "time": 143.06025000000054,
          "velocity": 0.7874015748031497,
          "duration": 0.04425000000000523
        },
        {
          "name": "F7",
          "midi": 101,
          "time": 143.06025000000054,
          "velocity": 0.7874015748031497,
          "duration": 0.04425000000000523
        },
        {
          "name": "C4",
          "midi": 60,
          "time": 143.19300000000055,
          "velocity": 0.7874015748031497,
          "duration": 0.04425000000000523
        },
        {
          "name": "F#4",
          "midi": 66,
          "time": 143.19300000000055,
          "velocity": 0.7874015748031497,
          "duration": 0.04425000000000523
        },
        {
          "name": "C5",
          "midi": 72,
          "time": 143.19300000000055,
          "velocity": 0.7874015748031497,
          "duration": 0.04425000000000523
        },
        {
          "name": "F#5",
          "midi": 78,
          "time": 143.19300000000055,
          "velocity": 0.7874015748031497,
          "duration": 0.04425000000000523
        },
        {
          "name": "C6",
          "midi": 84,
          "time": 143.19300000000055,
          "velocity": 0.7874015748031497,
          "duration": 0.5273124999999936
        },
        {
          "name": "F6",
          "midi": 89,
          "time": 143.19300000000055,
          "velocity": 0.7874015748031497,
          "duration": 0.5273124999999936
        },
        {
          "name": "C7",
          "midi": 96,
          "time": 143.19300000000055,
          "velocity": 0.7874015748031497,
          "duration": 0.5273124999999936
        },
        {
          "name": "F7",
          "midi": 101,
          "time": 143.19300000000055,
          "velocity": 0.7874015748031497,
          "duration": 0.5273124999999936
        },
        {
          "name": "C#4",
          "midi": 61,
          "time": 143.72400000000056,
          "velocity": 0.7874015748031497,
          "duration": 0.08850000000001046
        },
        {
          "name": "F#4",
          "midi": 66,
          "time": 143.72400000000056,
          "velocity": 0.7874015748031497,
          "duration": 0.08850000000001046
        },
        {
          "name": "C#5",
          "midi": 73,
          "time": 143.72400000000056,
          "velocity": 0.7874015748031497,
          "duration": 0.08850000000001046
        },
        {
          "name": "F#5",
          "midi": 78,
          "time": 143.72400000000056,
          "velocity": 0.7874015748031497,
          "duration": 0.08850000000001046
        },
        {
          "name": "C#6",
          "midi": 85,
          "time": 143.72400000000056,
          "velocity": 0.7874015748031497,
          "duration": 0.7043125000000146
        },
        {
          "name": "F#6",
          "midi": 90,
          "time": 143.72400000000056,
          "velocity": 0.7874015748031497,
          "duration": 0.7043125000000146
        },
        {
          "name": "C#7",
          "midi": 97,
          "time": 143.72400000000056,
          "velocity": 0.7874015748031497,
          "duration": 0.7043125000000146
        },
        {
          "name": "F#7",
          "midi": 102,
          "time": 143.72400000000056,
          "velocity": 0.7874015748031497,
          "duration": 0.7043125000000146
        },
        {
          "name": "C#4",
          "midi": 61,
          "time": 144.43200000000058,
          "velocity": 0.7874015748031497,
          "duration": 0.7043125000000146
        },
        {
          "name": "F#4",
          "midi": 66,
          "time": 144.43200000000058,
          "velocity": 0.7874015748031497,
          "duration": 0.7043125000000146
        },
        {
          "name": "D5",
          "midi": 74,
          "time": 144.43200000000058,
          "velocity": 0.7874015748031497,
          "duration": 0.08850000000001046
        },
        {
          "name": "F#5",
          "midi": 78,
          "time": 144.43200000000058,
          "velocity": 0.7874015748031497,
          "duration": 0.08850000000001046
        },
        {
          "name": "D6",
          "midi": 86,
          "time": 144.43200000000058,
          "velocity": 0.7874015748031497,
          "duration": 0.7043125000000146
        },
        {
          "name": "F#6",
          "midi": 90,
          "time": 144.43200000000058,
          "velocity": 0.7874015748031497,
          "duration": 0.7043125000000146
        },
        {
          "name": "D7",
          "midi": 98,
          "time": 144.43200000000058,
          "velocity": 0.7874015748031497,
          "duration": 0.7043125000000146
        },
        {
          "name": "F#7",
          "midi": 102,
          "time": 144.43200000000058,
          "velocity": 0.7874015748031497,
          "duration": 0.7043125000000146
        },
        {
          "name": "D4",
          "midi": 62,
          "time": 145.1400000000006,
          "velocity": 0.7874015748031497,
          "duration": 0.5730374999999981
        },
        {
          "name": "F4",
          "midi": 65,
          "time": 145.1400000000006,
          "velocity": 0.7874015748031497,
          "duration": 0.5730374999999981
        },
        {
          "name": "D#5",
          "midi": 75,
          "time": 145.1400000000006,
          "velocity": 0.7874015748031497,
          "duration": 0.5730374999999981
        },
        {
          "name": "F5",
          "midi": 77,
          "time": 145.1400000000006,
          "velocity": 0.7874015748031497,
          "duration": 0.5730374999999981
        },
        {
          "name": "D#6",
          "midi": 87,
          "time": 145.1400000000006,
          "velocity": 0.7874015748031497,
          "duration": 0.5730374999999981
        },
        {
          "name": "F6",
          "midi": 89,
          "time": 145.1400000000006,
          "velocity": 0.7874015748031497,
          "duration": 0.5730374999999981
        },
        {
          "name": "D#7",
          "midi": 99,
          "time": 145.1400000000006,
          "velocity": 0.7874015748031497,
          "duration": 0.5730374999999981
        },
        {
          "name": "F7",
          "midi": 101,
          "time": 145.1400000000006,
          "velocity": 0.7874015748031497,
          "duration": 0.5730374999999981
        },
        {
          "name": "C#4",
          "midi": 61,
          "time": 145.71525000000062,
          "velocity": 0.7874015748031497,
          "duration": 0.04425000000000523
        },
        {
          "name": "F4",
          "midi": 65,
          "time": 145.71525000000062,
          "velocity": 0.7874015748031497,
          "duration": 0.04425000000000523
        },
        {
          "name": "D5",
          "midi": 74,
          "time": 145.71525000000062,
          "velocity": 0.7874015748031497,
          "duration": 0.04425000000000523
        },
        {
          "name": "F5",
          "midi": 77,
          "time": 145.71525000000062,
          "velocity": 0.7874015748031497,
          "duration": 0.04425000000000523
        },
        {
          "name": "D6",
          "midi": 86,
          "time": 145.71525000000062,
          "velocity": 0.7874015748031497,
          "duration": 0.30753749999999513
        },
        {
          "name": "F6",
          "midi": 89,
          "time": 145.71525000000062,
          "velocity": 0.7874015748031497,
          "duration": 0.30753749999999513
        },
        {
          "name": "D7",
          "midi": 98,
          "time": 145.71525000000062,
          "velocity": 0.7874015748031497,
          "duration": 0.30753749999999513
        },
        {
          "name": "F7",
          "midi": 101,
          "time": 145.71525000000062,
          "velocity": 0.7874015748031497,
          "duration": 0.30753749999999513
        },
        {
          "name": "C4",
          "midi": 60,
          "time": 146.02500000000063,
          "velocity": 0.7874015748031497,
          "duration": 0.5287874999999929
        },
        {
          "name": "F#4",
          "midi": 66,
          "time": 146.02500000000063,
          "velocity": 0.7874015748031497,
          "duration": 0.5287874999999929
        },
        {
          "name": "C5",
          "midi": 72,
          "time": 146.02500000000063,
          "velocity": 0.7874015748031497,
          "duration": 0.5287874999999929
        },
        {
          "name": "F#5",
          "midi": 78,
          "time": 146.02500000000063,
          "velocity": 0.7874015748031497,
          "duration": 0.5287874999999929
        },
        {
          "name": "C6",
          "midi": 84,
          "time": 146.02500000000063,
          "velocity": 0.7874015748031497,
          "duration": 0.5287874999999929
        },
        {
          "name": "F#6",
          "midi": 90,
          "time": 146.02500000000063,
          "velocity": 0.7874015748031497,
          "duration": 0.5287874999999929
        },
        {
          "name": "C7",
          "midi": 96,
          "time": 146.02500000000063,
          "velocity": 0.7874015748031497,
          "duration": 0.5287874999999929
        },
        {
          "name": "F#7",
          "midi": 102,
          "time": 146.02500000000063,
          "velocity": 0.7874015748031497,
          "duration": 0.5287874999999929
        },
        {
          "name": "C#4",
          "midi": 61,
          "time": 146.55600000000064,
          "velocity": 0.7874015748031497,
          "duration": 0.7057875000000138
        },
        {
          "name": "F#4",
          "midi": 66,
          "time": 146.55600000000064,
          "velocity": 0.7874015748031497,
          "duration": 0.7057875000000138
        },
        {
          "name": "C#5",
          "midi": 73,
          "time": 146.55600000000064,
          "velocity": 0.7874015748031497,
          "duration": 0.7057875000000138
        },
        {
          "name": "F#5",
          "midi": 78,
          "time": 146.55600000000064,
          "velocity": 0.7874015748031497,
          "duration": 0.7057875000000138
        },
        {
          "name": "C#6",
          "midi": 85,
          "time": 146.55600000000064,
          "velocity": 0.7874015748031497,
          "duration": 0.7057875000000138
        },
        {
          "name": "F#6",
          "midi": 90,
          "time": 146.55600000000064,
          "velocity": 0.7874015748031497,
          "duration": 0.7057875000000138
        },
        {
          "name": "C#7",
          "midi": 97,
          "time": 146.55600000000064,
          "velocity": 0.7874015748031497,
          "duration": 0.7057875000000138
        },
        {
          "name": "F#7",
          "midi": 102,
          "time": 146.55600000000064,
          "velocity": 0.7874015748031497,
          "duration": 0.7057875000000138
        },
        {
          "name": "D4",
          "midi": 62,
          "time": 147.26400000000066,
          "velocity": 0.7874015748031497,
          "duration": 0.3540000000000134
        },
        {
          "name": "F4",
          "midi": 65,
          "time": 147.26400000000066,
          "velocity": 0.7874015748031497,
          "duration": 0.3540000000000134
        },
        {
          "name": "D5",
          "midi": 74,
          "time": 147.26400000000066,
          "velocity": 0.7874015748031497,
          "duration": 0.3540000000000134
        },
        {
          "name": "F5",
          "midi": 77,
          "time": 147.26400000000066,
          "velocity": 0.7874015748031497,
          "duration": 0.3540000000000134
        },
        {
          "name": "D6",
          "midi": 86,
          "time": 147.26400000000066,
          "velocity": 0.7874015748031497,
          "duration": 0.3540000000000134
        },
        {
          "name": "F6",
          "midi": 89,
          "time": 147.26400000000066,
          "velocity": 0.7874015748031497,
          "duration": 0.3540000000000134
        },
        {
          "name": "D7",
          "midi": 98,
          "time": 147.26400000000066,
          "velocity": 0.7874015748031497,
          "duration": 0.3540000000000134
        },
        {
          "name": "F7",
          "midi": 101,
          "time": 147.26400000000066,
          "velocity": 0.7874015748031497,
          "duration": 0.3540000000000134
        },
        {
          "name": "C4",
          "midi": 60,
          "time": 148.14973750000067,
          "velocity": 0.7874015748031497,
          "duration": 0.043512499999991405
        },
        {
          "name": "F#4",
          "midi": 66,
          "time": 148.14973750000067,
          "velocity": 0.7874015748031497,
          "duration": 0.043512499999991405
        },
        {
          "name": "C#5",
          "midi": 73,
          "time": 148.14973750000067,
          "velocity": 0.7874015748031497,
          "duration": 0.043512499999991405
        },
        {
          "name": "F#5",
          "midi": 78,
          "time": 148.14973750000067,
          "velocity": 0.7874015748031497,
          "duration": 0.043512499999991405
        },
        {
          "name": "C#6",
          "midi": 85,
          "time": 148.14973750000067,
          "velocity": 0.7874015748031497,
          "duration": 0.043512499999991405
        },
        {
          "name": "F#6",
          "midi": 90,
          "time": 148.14973750000067,
          "velocity": 0.7874015748031497,
          "duration": 0.043512499999991405
        },
        {
          "name": "C#7",
          "midi": 97,
          "time": 148.14973750000067,
          "velocity": 0.7874015748031497,
          "duration": 0.043512499999991405
        },
        {
          "name": "F#7",
          "midi": 102,
          "time": 148.14973750000067,
          "velocity": 0.7874015748031497,
          "duration": 0.043512499999991405
        },
        {
          "name": "D6",
          "midi": 86,
          "time": 148.27068750000066,
          "velocity": 0.7874015748031497,
          "duration": 0.04425000000000523
        },
        {
          "name": "F6",
          "midi": 89,
          "time": 148.27068750000066,
          "velocity": 0.7874015748031497,
          "duration": 0.04425000000000523
        },
        {
          "name": "D7",
          "midi": 98,
          "time": 148.27068750000066,
          "velocity": 0.7874015748031497,
          "duration": 0.04425000000000523
        },
        {
          "name": "F7",
          "midi": 101,
          "time": 148.27068750000066,
          "velocity": 0.7874015748031497,
          "duration": 0.04425000000000523
        },
        {
          "name": "D#5",
          "midi": 75,
          "time": 148.36508750000067,
          "velocity": 0.7874015748031497,
          "duration": 0.043512499999991405
        },
        {
          "name": "F5",
          "midi": 77,
          "time": 148.36508750000067,
          "velocity": 0.7874015748031497,
          "duration": 0.043512499999991405
        },
        {
          "name": "D#6",
          "midi": 87,
          "time": 148.39237500000067,
          "velocity": 0.7874015748031497,
          "duration": 0.043512499999991405
        },
        {
          "name": "F6",
          "midi": 89,
          "time": 148.39237500000067,
          "velocity": 0.7874015748031497,
          "duration": 0.043512499999991405
        },
        {
          "name": "D#7",
          "midi": 99,
          "time": 148.39237500000067,
          "velocity": 0.7874015748031497,
          "duration": 0.043512499999991405
        },
        {
          "name": "F7",
          "midi": 101,
          "time": 148.39237500000067,
          "velocity": 0.7874015748031497,
          "duration": 0.043512499999991405
        },
        {
          "name": "D4",
          "midi": 62,
          "time": 148.50373750000065,
          "velocity": 0.7874015748031497,
          "duration": 0.04351250000001983
        },
        {
          "name": "F4",
          "midi": 65,
          "time": 148.50373750000065,
          "velocity": 0.7874015748031497,
          "duration": 0.04351250000001983
        },
        {
          "name": "D6",
          "midi": 86,
          "time": 148.51480000000066,
          "velocity": 0.7874015748031497,
          "duration": 0.04351250000001983
        },
        {
          "name": "F6",
          "midi": 89,
          "time": 148.51480000000066,
          "velocity": 0.7874015748031497,
          "duration": 0.04351250000001983
        },
        {
          "name": "D7",
          "midi": 98,
          "time": 148.51480000000066,
          "velocity": 0.7874015748031497,
          "duration": 0.04351250000001983
        },
        {
          "name": "F7",
          "midi": 101,
          "time": 148.51480000000066,
          "velocity": 0.7874015748031497,
          "duration": 0.04351250000001983
        },
        {
          "name": "C#5",
          "midi": 73,
          "time": 148.57970000000068,
          "velocity": 0.7874015748031497,
          "duration": 0.04425000000000523
        },
        {
          "name": "F5",
          "midi": 77,
          "time": 148.57970000000068,
          "velocity": 0.7874015748031497,
          "duration": 0.04425000000000523
        },
        {
          "name": "C#6",
          "midi": 85,
          "time": 148.6364875000007,
          "velocity": 0.7874015748031497,
          "duration": 0.043512499999991405
        },
        {
          "name": "F6",
          "midi": 89,
          "time": 148.6364875000007,
          "velocity": 0.7874015748031497,
          "duration": 0.043512499999991405
        },
        {
          "name": "C#7",
          "midi": 97,
          "time": 148.6364875000007,
          "velocity": 0.7874015748031497,
          "duration": 0.043512499999991405
        },
        {
          "name": "F7",
          "midi": 101,
          "time": 148.6364875000007,
          "velocity": 0.7874015748031497,
          "duration": 0.043512499999991405
        },
        {
          "name": "D7",
          "midi": 98,
          "time": 148.74637500000068,
          "velocity": 0.7874015748031497,
          "duration": 0.043512499999991405
        },
        {
          "name": "F7",
          "midi": 101,
          "time": 148.74637500000068,
          "velocity": 0.7874015748031497,
          "duration": 0.043512499999991405
        },
        {
          "name": "D#5",
          "midi": 75,
          "time": 148.79505000000069,
          "velocity": 0.7874015748031497,
          "duration": 0.04425000000000523
        },
        {
          "name": "F5",
          "midi": 77,
          "time": 148.79505000000069,
          "velocity": 0.7874015748031497,
          "duration": 0.04425000000000523
        },
        {
          "name": "C4",
          "midi": 60,
          "time": 148.8577375000007,
          "velocity": 0.7874015748031497,
          "duration": 0.043512499999991405
        },
        {
          "name": "F4",
          "midi": 65,
          "time": 148.8577375000007,
          "velocity": 0.7874015748031497,
          "duration": 0.043512499999991405
        },
        {
          "name": "D#6",
          "midi": 87,
          "time": 148.8577375000007,
          "velocity": 0.7874015748031497,
          "duration": 0.043512499999991405
        },
        {
          "name": "F6",
          "midi": 89,
          "time": 148.8577375000007,
          "velocity": 0.7874015748031497,
          "duration": 0.043512499999991405
        },
        {
          "name": "D#7",
          "midi": 99,
          "time": 148.8577375000007,
          "velocity": 0.7874015748031497,
          "duration": 0.043512499999991405
        },
        {
          "name": "F7",
          "midi": 101,
          "time": 148.8577375000007,
          "velocity": 0.7874015748031497,
          "duration": 0.043512499999991405
        },
        {
          "name": "D6",
          "midi": 86,
          "time": 148.96762500000068,
          "velocity": 0.7874015748031497,
          "duration": 0.04425000000000523
        },
        {
          "name": "F6",
          "midi": 89,
          "time": 148.96762500000068,
          "velocity": 0.7874015748031497,
          "duration": 0.04425000000000523
        },
        {
          "name": "D7",
          "midi": 98,
          "time": 148.96762500000068,
          "velocity": 0.7874015748031497,
          "duration": 0.04425000000000523
        },
        {
          "name": "F7",
          "midi": 101,
          "time": 148.96762500000068,
          "velocity": 0.7874015748031497,
          "duration": 0.04425000000000523
        },
        {
          "name": "C#5",
          "midi": 73,
          "time": 149.0104000000007,
          "velocity": 0.7874015748031497,
          "duration": 0.04425000000000523
        },
        {
          "name": "F5",
          "midi": 77,
          "time": 149.0104000000007,
          "velocity": 0.7874015748031497,
          "duration": 0.04425000000000523
        },
        {
          "name": "C#6",
          "midi": 85,
          "time": 149.0789875000007,
          "velocity": 0.7874015748031497,
          "duration": 0.043512499999991405
        },
        {
          "name": "F6",
          "midi": 89,
          "time": 149.0789875000007,
          "velocity": 0.7874015748031497,
          "duration": 0.043512499999991405
        },
        {
          "name": "C#7",
          "midi": 97,
          "time": 149.0789875000007,
          "velocity": 0.7874015748031497,
          "duration": 0.043512499999991405
        },
        {
          "name": "F7",
          "midi": 101,
          "time": 149.0789875000007,
          "velocity": 0.7874015748031497,
          "duration": 0.043512499999991405
        },
        {
          "name": "D7",
          "midi": 98,
          "time": 149.1667500000007,
          "velocity": 0.7874015748031497,
          "duration": 0.043512499999991405
        },
        {
          "name": "F7",
          "midi": 101,
          "time": 149.1667500000007,
          "velocity": 0.7874015748031497,
          "duration": 0.043512499999991405
        },
        {
          "name": "D4",
          "midi": 62,
          "time": 149.21173750000068,
          "velocity": 0.7874015748031497,
          "duration": 0.04351250000001983
        },
        {
          "name": "F4",
          "midi": 65,
          "time": 149.21173750000068,
          "velocity": 0.7874015748031497,
          "duration": 0.04351250000001983
        },
        {
          "name": "D#5",
          "midi": 75,
          "time": 149.2257500000007,
          "velocity": 0.7874015748031497,
          "duration": 0.04425000000000523
        },
        {
          "name": "F5",
          "midi": 77,
          "time": 149.2257500000007,
          "velocity": 0.7874015748031497,
          "duration": 0.04425000000000523
        },
        {
          "name": "C#7",
          "midi": 97,
          "time": 149.2552500000007,
          "velocity": 0.7874015748031497,
          "duration": 0.04425000000000523
        },
        {
          "name": "F7",
          "midi": 101,
          "time": 149.2552500000007,
          "velocity": 0.7874015748031497,
          "duration": 0.04425000000000523
        },
        {
          "name": "D#6",
          "midi": 87,
          "time": 149.3444875000007,
          "velocity": 0.7874015748031497,
          "duration": 0.043512499999991405
        },
        {
          "name": "F6",
          "midi": 89,
          "time": 149.3444875000007,
          "velocity": 0.7874015748031497,
          "duration": 0.043512499999991405
        },
        {
          "name": "D#7",
          "midi": 99,
          "time": 149.3444875000007,
          "velocity": 0.7874015748031497,
          "duration": 0.043512499999991405
        },
        {
          "name": "F7",
          "midi": 101,
          "time": 149.3444875000007,
          "velocity": 0.7874015748031497,
          "duration": 0.043512499999991405
        },
        {
          "name": "C#5",
          "midi": 73,
          "time": 149.4411000000007,
          "velocity": 0.7874015748031497,
          "duration": 0.04425000000000523
        },
        {
          "name": "F5",
          "midi": 77,
          "time": 149.4411000000007,
          "velocity": 0.7874015748031497,
          "duration": 0.04425000000000523
        },
        {
          "name": "D6",
          "midi": 86,
          "time": 149.4433125000007,
          "velocity": 0.7874015748031497,
          "duration": 0.04425000000000523
        },
        {
          "name": "F6",
          "midi": 89,
          "time": 149.4433125000007,
          "velocity": 0.7874015748031497,
          "duration": 0.04425000000000523
        },
        {
          "name": "D7",
          "midi": 98,
          "time": 149.4433125000007,
          "velocity": 0.7874015748031497,
          "duration": 0.04425000000000523
        },
        {
          "name": "F7",
          "midi": 101,
          "time": 149.4433125000007,
          "velocity": 0.7874015748031497,
          "duration": 0.04425000000000523
        },
        {
          "name": "C#6",
          "midi": 85,
          "time": 149.5436125000007,
          "velocity": 0.7874015748031497,
          "duration": 0.04425000000000523
        },
        {
          "name": "F6",
          "midi": 89,
          "time": 149.5436125000007,
          "velocity": 0.7874015748031497,
          "duration": 0.04425000000000523
        },
        {
          "name": "C#7",
          "midi": 97,
          "time": 149.5436125000007,
          "velocity": 0.7874015748031497,
          "duration": 0.04425000000000523
        },
        {
          "name": "F7",
          "midi": 101,
          "time": 149.5436125000007,
          "velocity": 0.7874015748031497,
          "duration": 0.04425000000000523
        },
        {
          "name": "C4",
          "midi": 60,
          "time": 149.5650000000007,
          "velocity": 0.7874015748031497,
          "duration": 0.04425000000000523
        },
        {
          "name": "F4",
          "midi": 65,
          "time": 149.5650000000007,
          "velocity": 0.7874015748031497,
          "duration": 0.04425000000000523
        },
        {
          "name": "C#7",
          "midi": 97,
          "time": 149.6240000000007,
          "velocity": 0.7874015748031497,
          "duration": 0.04425000000000523
        },
        {
          "name": "F#7",
          "midi": 102,
          "time": 149.6240000000007,
          "velocity": 0.7874015748031497,
          "duration": 0.04425000000000523
        },
        {
          "name": "D5",
          "midi": 74,
          "time": 149.6571875000007,
          "velocity": 0.7874015748031497,
          "duration": 0.04425000000003365
        },
        {
          "name": "F5",
          "midi": 77,
          "time": 149.6571875000007,
          "velocity": 0.7874015748031497,
          "duration": 0.04425000000003365
        },
        {
          "name": "D#6",
          "midi": 87,
          "time": 149.69775000000072,
          "velocity": 0.7874015748031497,
          "duration": 0.04425000000003365
        },
        {
          "name": "F6",
          "midi": 89,
          "time": 149.69775000000072,
          "velocity": 0.7874015748031497,
          "duration": 0.04425000000003365
        },
        {
          "name": "D7",
          "midi": 98,
          "time": 149.70512500000075,
          "velocity": 0.7874015748031497,
          "duration": 0.04425000000000523
        },
        {
          "name": "F7",
          "midi": 101,
          "time": 149.70512500000075,
          "velocity": 0.7874015748031497,
          "duration": 0.04425000000000523
        },
        {
          "name": "D#7",
          "midi": 99,
          "time": 149.78698750000075,
          "velocity": 0.7874015748031497,
          "duration": 0.04425000000000523
        },
        {
          "name": "F7",
          "midi": 101,
          "time": 149.78698750000075,
          "velocity": 0.7874015748031497,
          "duration": 0.04425000000000523
        },
        {
          "name": "D#5",
          "midi": 75,
          "time": 149.87475000000074,
          "velocity": 0.7874015748031497,
          "duration": 0.5730374999999981
        },
        {
          "name": "F5",
          "midi": 77,
          "time": 149.87475000000074,
          "velocity": 0.7874015748031497,
          "duration": 0.5730374999999981
        },
        {
          "name": "E6",
          "midi": 88,
          "time": 149.87475000000074,
          "velocity": 0.7874015748031497,
          "duration": 0.5730374999999981
        },
        {
          "name": "F6",
          "midi": 89,
          "time": 149.87475000000074,
          "velocity": 0.7874015748031497,
          "duration": 0.5730374999999981
        },
        {
          "name": "E7",
          "midi": 100,
          "time": 149.87475000000074,
          "velocity": 0.7874015748031497,
          "duration": 0.5730374999999981
        },
        {
          "name": "F7",
          "midi": 101,
          "time": 149.87475000000074,
          "velocity": 0.7874015748031497,
          "duration": 0.5730374999999981
        },
        {
          "name": "D4",
          "midi": 62,
          "time": 149.91900000000075,
          "velocity": 0.7874015748031497,
          "duration": 0.5287874999999929
        },
        {
          "name": "F4",
          "midi": 65,
          "time": 149.91900000000075,
          "velocity": 0.7874015748031497,
          "duration": 0.5287874999999929
        },
        {
          "name": "D4",
          "midi": 62,
          "time": 150.45000000000076,
          "velocity": 0.7874015748031497,
          "duration": 0.04425000000000523
        },
        {
          "name": "F#4",
          "midi": 66,
          "time": 150.45000000000076,
          "velocity": 0.7874015748031497,
          "duration": 0.04425000000000523
        },
        {
          "name": "D#5",
          "midi": 75,
          "time": 150.45000000000076,
          "velocity": 0.7874015748031497,
          "duration": 0.04425000000000523
        },
        {
          "name": "F#5",
          "midi": 78,
          "time": 150.45000000000076,
          "velocity": 0.7874015748031497,
          "duration": 0.04425000000000523
        },
        {
          "name": "E6",
          "midi": 88,
          "time": 150.45000000000076,
          "velocity": 0.7874015748031497,
          "duration": 0.04425000000000523
        },
        {
          "name": "F#6",
          "midi": 90,
          "time": 150.45000000000076,
          "velocity": 0.7874015748031497,
          "duration": 0.04425000000000523
        },
        {
          "name": "E7",
          "midi": 100,
          "time": 150.45000000000076,
          "velocity": 0.7874015748031497,
          "duration": 0.04425000000000523
        },
        {
          "name": "F#7",
          "midi": 102,
          "time": 150.45000000000076,
          "velocity": 0.7874015748031497,
          "duration": 0.04425000000000523
        },
        {
          "name": "D#5",
          "midi": 75,
          "time": 150.62700000000075,
          "velocity": 0.7874015748031497,
          "duration": 0.04425000000000523
        },
        {
          "name": "F#5",
          "midi": 78,
          "time": 150.62700000000075,
          "velocity": 0.7874015748031497,
          "duration": 0.04425000000000523
        },
        {
          "name": "E6",
          "midi": 88,
          "time": 150.62700000000075,
          "velocity": 0.7874015748031497,
          "duration": 0.04425000000000523
        },
        {
          "name": "F#6",
          "midi": 90,
          "time": 150.62700000000075,
          "velocity": 0.7874015748031497,
          "duration": 0.04425000000000523
        },
        {
          "name": "E7",
          "midi": 100,
          "time": 150.62700000000075,
          "velocity": 0.7874015748031497,
          "duration": 0.04425000000000523
        },
        {
          "name": "F#7",
          "midi": 102,
          "time": 150.62700000000075,
          "velocity": 0.7874015748031497,
          "duration": 0.04425000000000523
        },
        {
          "name": "D#7",
          "midi": 99,
          "time": 150.78261250000077,
          "velocity": 0.7874015748031497,
          "duration": 0.041300000000006776
        },
        {
          "name": "F#7",
          "midi": 102,
          "time": 150.78261250000077,
          "velocity": 0.7874015748031497,
          "duration": 0.041300000000006776
        },
        {
          "name": "D4",
          "midi": 62,
          "time": 150.80400000000077,
          "velocity": 0.7874015748031497,
          "duration": 0.04351250000001983
        },
        {
          "name": "F#4",
          "midi": 66,
          "time": 150.80400000000077,
          "velocity": 0.7874015748031497,
          "duration": 0.04351250000001983
        },
        {
          "name": "D#5",
          "midi": 75,
          "time": 150.80400000000077,
          "velocity": 0.7874015748031497,
          "duration": 0.04351250000001983
        },
        {
          "name": "F#5",
          "midi": 78,
          "time": 150.80400000000077,
          "velocity": 0.7874015748031497,
          "duration": 0.04351250000001983
        },
        {
          "name": "E6",
          "midi": 88,
          "time": 150.80400000000077,
          "velocity": 0.7874015748031497,
          "duration": 0.353262500000028
        },
        {
          "name": "F#6",
          "midi": 90,
          "time": 150.80400000000077,
          "velocity": 0.7874015748031497,
          "duration": 0.353262500000028
        },
        {
          "name": "E7",
          "midi": 100,
          "time": 150.8261250000008,
          "velocity": 0.7874015748031497,
          "duration": 0.3311375000000112
        },
        {
          "name": "F7",
          "midi": 101,
          "time": 150.8261250000008,
          "velocity": 0.7874015748031497,
          "duration": 0.3311375000000112
        },
        {
          "name": "D4",
          "midi": 62,
          "time": 151.3350000000008,
          "velocity": 0.7874015748031497,
          "duration": 0.043512499999991405
        },
        {
          "name": "F#4",
          "midi": 66,
          "time": 151.3350000000008,
          "velocity": 0.7874015748031497,
          "duration": 0.043512499999991405
        },
        {
          "name": "D#5",
          "midi": 75,
          "time": 151.3350000000008,
          "velocity": 0.7874015748031497,
          "duration": 0.043512499999991405
        },
        {
          "name": "F#5",
          "midi": 78,
          "time": 151.3350000000008,
          "velocity": 0.7874015748031497,
          "duration": 0.043512499999991405
        },
        {
          "name": "E6",
          "midi": 88,
          "time": 151.3350000000008,
          "velocity": 0.7874015748031497,
          "duration": 0.35178750000000036
        },
        {
          "name": "F#6",
          "midi": 90,
          "time": 151.3350000000008,
          "velocity": 0.7874015748031497,
          "duration": 0.35178750000000036
        },
        {
          "name": "D#7",
          "midi": 99,
          "time": 151.3350000000008,
          "velocity": 0.7874015748031497,
          "duration": 0.043512499999991405
        },
        {
          "name": "F#7",
          "midi": 102,
          "time": 151.3350000000008,
          "velocity": 0.7874015748031497,
          "duration": 0.043512499999991405
        },
        {
          "name": "E7",
          "midi": 100,
          "time": 151.4013750000008,
          "velocity": 0.7874015748031497,
          "duration": 0.28541250000000673
        },
        {
          "name": "F7",
          "midi": 101,
          "time": 151.4013750000008,
          "velocity": 0.7874015748031497,
          "duration": 0.28541250000000673
        },
        {
          "name": "E6",
          "midi": 88,
          "time": 151.6882625000008,
          "velocity": 0.7874015748031497,
          "duration": 0.043512499999991405
        },
        {
          "name": "F#6",
          "midi": 90,
          "time": 151.6882625000008,
          "velocity": 0.7874015748031497,
          "duration": 0.043512499999991405
        },
        {
          "name": "E7",
          "midi": 100,
          "time": 151.6882625000008,
          "velocity": 0.7874015748031497,
          "duration": 0.043512499999991405
        },
        {
          "name": "F#7",
          "midi": 102,
          "time": 151.6882625000008,
          "velocity": 0.7874015748031497,
          "duration": 0.043512499999991405
        },
        {
          "name": "D4",
          "midi": 62,
          "time": 151.86600000000078,
          "velocity": 0.7874015748031497,
          "duration": 0.04425000000000523
        },
        {
          "name": "F#4",
          "midi": 66,
          "time": 151.86600000000078,
          "velocity": 0.7874015748031497,
          "duration": 0.04425000000000523
        },
        {
          "name": "D#5",
          "midi": 75,
          "time": 151.86600000000078,
          "velocity": 0.7874015748031497,
          "duration": 0.04425000000000523
        },
        {
          "name": "F#5",
          "midi": 78,
          "time": 151.86600000000078,
          "velocity": 0.7874015748031497,
          "duration": 0.04425000000000523
        },
        {
          "name": "E6",
          "midi": 88,
          "time": 151.86600000000078,
          "velocity": 0.7874015748031497,
          "duration": 0.04425000000000523
        },
        {
          "name": "F#6",
          "midi": 90,
          "time": 151.86600000000078,
          "velocity": 0.7874015748031497,
          "duration": 0.04425000000000523
        },
        {
          "name": "E7",
          "midi": 100,
          "time": 151.86600000000078,
          "velocity": 0.7874015748031497,
          "duration": 0.04425000000000523
        },
        {
          "name": "F#7",
          "midi": 102,
          "time": 151.86600000000078,
          "velocity": 0.7874015748031497,
          "duration": 0.04425000000000523
        },
        {
          "name": "D#5",
          "midi": 75,
          "time": 152.04300000000077,
          "velocity": 0.7874015748031497,
          "duration": 0.04425000000000523
        },
        {
          "name": "F#5",
          "midi": 78,
          "time": 152.04300000000077,
          "velocity": 0.7874015748031497,
          "duration": 0.04425000000000523
        },
        {
          "name": "E6",
          "midi": 88,
          "time": 152.04300000000077,
          "velocity": 0.7874015748031497,
          "duration": 0.04425000000000523
        },
        {
          "name": "F#6",
          "midi": 90,
          "time": 152.04300000000077,
          "velocity": 0.7874015748031497,
          "duration": 0.04425000000000523
        },
        {
          "name": "E7",
          "midi": 100,
          "time": 152.04300000000077,
          "velocity": 0.7874015748031497,
          "duration": 0.04425000000000523
        },
        {
          "name": "F#7",
          "midi": 102,
          "time": 152.04300000000077,
          "velocity": 0.7874015748031497,
          "duration": 0.04425000000000523
        },
        {
          "name": "D4",
          "midi": 62,
          "time": 152.22000000000077,
          "velocity": 0.7874015748031497,
          "duration": 0.043512499999991405
        },
        {
          "name": "F#4",
          "midi": 66,
          "time": 152.22000000000077,
          "velocity": 0.7874015748031497,
          "duration": 0.043512499999991405
        },
        {
          "name": "D#5",
          "midi": 75,
          "time": 152.22000000000077,
          "velocity": 0.7874015748031497,
          "duration": 0.043512499999991405
        },
        {
          "name": "F#5",
          "midi": 78,
          "time": 152.22000000000077,
          "velocity": 0.7874015748031497,
          "duration": 0.043512499999991405
        },
        {
          "name": "E6",
          "midi": 88,
          "time": 152.22000000000077,
          "velocity": 0.7874015748031497,
          "duration": 0.043512499999991405
        },
        {
          "name": "F#6",
          "midi": 90,
          "time": 152.22000000000077,
          "velocity": 0.7874015748031497,
          "duration": 0.043512499999991405
        },
        {
          "name": "E7",
          "midi": 100,
          "time": 152.22000000000077,
          "velocity": 0.7874015748031497,
          "duration": 0.043512499999991405
        },
        {
          "name": "F#7",
          "midi": 102,
          "time": 152.22000000000077,
          "velocity": 0.7874015748031497,
          "duration": 0.043512499999991405
        },
        {
          "name": "E7",
          "midi": 100,
          "time": 152.39700000000076,
          "velocity": 0.7874015748031497,
          "duration": 0.043512499999991405
        },
        {
          "name": "F#7",
          "midi": 102,
          "time": 152.39700000000076,
          "velocity": 0.7874015748031497,
          "duration": 0.043512499999991405
        },
        {
          "name": "D4",
          "midi": 62,
          "time": 152.57400000000075,
          "velocity": 0.7874015748031497,
          "duration": 0.043512499999991405
        },
        {
          "name": "F#4",
          "midi": 66,
          "time": 152.57400000000075,
          "velocity": 0.7874015748031497,
          "duration": 0.043512499999991405
        },
        {
          "name": "D#5",
          "midi": 75,
          "time": 152.57400000000075,
          "velocity": 0.7874015748031497,
          "duration": 0.043512499999991405
        },
        {
          "name": "F#5",
          "midi": 78,
          "time": 152.57400000000075,
          "velocity": 0.7874015748031497,
          "duration": 0.043512499999991405
        },
        {
          "name": "E6",
          "midi": 88,
          "time": 152.57400000000075,
          "velocity": 0.7874015748031497,
          "duration": 0.35178750000000036
        },
        {
          "name": "F#6",
          "midi": 90,
          "time": 152.57400000000075,
          "velocity": 0.7874015748031497,
          "duration": 0.35178750000000036
        },
        {
          "name": "D#7",
          "midi": 99,
          "time": 152.57400000000075,
          "velocity": 0.7874015748031497,
          "duration": 0.043512499999991405
        },
        {
          "name": "F#7",
          "midi": 102,
          "time": 152.57400000000075,
          "velocity": 0.7874015748031497,
          "duration": 0.043512499999991405
        },
        {
          "name": "E7",
          "midi": 100,
          "time": 152.64037500000074,
          "velocity": 0.7874015748031497,
          "duration": 0.28541250000000673
        },
        {
          "name": "F7",
          "midi": 101,
          "time": 152.64037500000074,
          "velocity": 0.7874015748031497,
          "duration": 0.28541250000000673
        },
        {
          "name": "D4",
          "midi": 62,
          "time": 152.92800000000076,
          "velocity": 0.7874015748031497,
          "duration": 0.043512499999991405
        },
        {
          "name": "F#4",
          "midi": 66,
          "time": 152.92800000000076,
          "velocity": 0.7874015748031497,
          "duration": 0.043512499999991405
        },
        {
          "name": "D#5",
          "midi": 75,
          "time": 152.92800000000076,
          "velocity": 0.7874015748031497,
          "duration": 0.043512499999991405
        },
        {
          "name": "F#5",
          "midi": 78,
          "time": 152.92800000000076,
          "velocity": 0.7874015748031497,
          "duration": 0.043512499999991405
        },
        {
          "name": "E6",
          "midi": 88,
          "time": 152.92800000000076,
          "velocity": 0.7874015748031497,
          "duration": 0.35178749999997194
        },
        {
          "name": "F#6",
          "midi": 90,
          "time": 152.92800000000076,
          "velocity": 0.7874015748031497,
          "duration": 0.35178749999997194
        },
        {
          "name": "D#7",
          "midi": 99,
          "time": 152.92800000000076,
          "velocity": 0.7874015748031497,
          "duration": 0.043512499999991405
        },
        {
          "name": "F#7",
          "midi": 102,
          "time": 152.92800000000076,
          "velocity": 0.7874015748031497,
          "duration": 0.043512499999991405
        },
        {
          "name": "E7",
          "midi": 100,
          "time": 152.99363750000074,
          "velocity": 0.7874015748031497,
          "duration": 0.28614999999999213
        },
        {
          "name": "F7",
          "midi": 101,
          "time": 152.99363750000074,
          "velocity": 0.7874015748031497,
          "duration": 0.28614999999999213
        },
        {
          "name": "D4",
          "midi": 62,
          "time": 153.28200000000075,
          "velocity": 0.7874015748031497,
          "duration": 0.5295250000000067
        },
        {
          "name": "F#4",
          "midi": 66,
          "time": 153.28200000000075,
          "velocity": 0.7874015748031497,
          "duration": 0.5295250000000067
        },
        {
          "name": "D#5",
          "midi": 75,
          "time": 153.28200000000075,
          "velocity": 0.7874015748031497,
          "duration": 0.5295250000000067
        },
        {
          "name": "F#5",
          "midi": 78,
          "time": 153.28200000000075,
          "velocity": 0.7874015748031497,
          "duration": 0.5295250000000067
        },
        {
          "name": "E6",
          "midi": 88,
          "time": 153.28200000000075,
          "velocity": 0.7874015748031497,
          "duration": 0.5295250000000067
        },
        {
          "name": "F#6",
          "midi": 90,
          "time": 153.28200000000075,
          "velocity": 0.7874015748031497,
          "duration": 0.5295250000000067
        },
        {
          "name": "D#7",
          "midi": 99,
          "time": 153.28200000000075,
          "velocity": 0.7874015748031497,
          "duration": 0.041300000000006776
        },
        {
          "name": "F#7",
          "midi": 102,
          "time": 153.28200000000075,
          "velocity": 0.7874015748031497,
          "duration": 0.041300000000006776
        },
        {
          "name": "E7",
          "midi": 100,
          "time": 153.32551250000077,
          "velocity": 0.7874015748031497,
          "duration": 0.48601249999998686
        },
        {
          "name": "F7",
          "midi": 101,
          "time": 153.32551250000077,
          "velocity": 0.7874015748031497,
          "duration": 0.48601249999998686
        },
        {
          "name": "D4",
          "midi": 62,
          "time": 153.81373750000077,
          "velocity": 0.7874015748031497,
          "duration": 0.042775000000006
        },
        {
          "name": "F#4",
          "midi": 66,
          "time": 153.81373750000077,
          "velocity": 0.7874015748031497,
          "duration": 0.042775000000006
        },
        {
          "name": "D#5",
          "midi": 75,
          "time": 153.81373750000077,
          "velocity": 0.7874015748031497,
          "duration": 0.042775000000006
        },
        {
          "name": "F#5",
          "midi": 78,
          "time": 153.81373750000077,
          "velocity": 0.7874015748031497,
          "duration": 0.042775000000006
        },
        {
          "name": "E6",
          "midi": 88,
          "time": 153.81373750000077,
          "velocity": 0.7874015748031497,
          "duration": 0.35178750000000036
        },
        {
          "name": "F#6",
          "midi": 90,
          "time": 153.81373750000077,
          "velocity": 0.7874015748031497,
          "duration": 0.35178750000000036
        },
        {
          "name": "D#7",
          "midi": 99,
          "time": 153.81373750000077,
          "velocity": 0.7874015748031497,
          "duration": 0.042775000000006
        },
        {
          "name": "F#7",
          "midi": 102,
          "time": 153.81373750000077,
          "velocity": 0.7874015748031497,
          "duration": 0.042775000000006
        },
        {
          "name": "E7",
          "midi": 100,
          "time": 153.87937500000078,
          "velocity": 0.7874015748031497,
          "duration": 0.28614999999999213
        },
        {
          "name": "F7",
          "midi": 101,
          "time": 153.87937500000078,
          "velocity": 0.7874015748031497,
          "duration": 0.28614999999999213
        },
        {
          "name": "E6",
          "midi": 88,
          "time": 154.16773750000078,
          "velocity": 0.7874015748031497,
          "duration": 0.042775000000006
        },
        {
          "name": "F#6",
          "midi": 90,
          "time": 154.16773750000078,
          "velocity": 0.7874015748031497,
          "duration": 0.042775000000006
        },
        {
          "name": "E7",
          "midi": 100,
          "time": 154.16773750000078,
          "velocity": 0.7874015748031497,
          "duration": 0.042775000000006
        },
        {
          "name": "F#7",
          "midi": 102,
          "time": 154.16773750000078,
          "velocity": 0.7874015748031497,
          "duration": 0.042775000000006
        },
        {
          "name": "D4",
          "midi": 62,
          "time": 154.3440000000008,
          "velocity": 0.7874015748031497,
          "duration": 0.043512499999991405
        },
        {
          "name": "F#4",
          "midi": 66,
          "time": 154.3440000000008,
          "velocity": 0.7874015748031497,
          "duration": 0.043512499999991405
        },
        {
          "name": "D#5",
          "midi": 75,
          "time": 154.3440000000008,
          "velocity": 0.7874015748031497,
          "duration": 0.043512499999991405
        },
        {
          "name": "F#5",
          "midi": 78,
          "time": 154.3440000000008,
          "velocity": 0.7874015748031497,
          "duration": 0.043512499999991405
        },
        {
          "name": "E6",
          "midi": 88,
          "time": 154.3440000000008,
          "velocity": 0.7874015748031497,
          "duration": 0.043512499999991405
        },
        {
          "name": "F#6",
          "midi": 90,
          "time": 154.3440000000008,
          "velocity": 0.7874015748031497,
          "duration": 0.043512499999991405
        },
        {
          "name": "E7",
          "midi": 100,
          "time": 154.3440000000008,
          "velocity": 0.7874015748031497,
          "duration": 0.043512499999991405
        },
        {
          "name": "F#7",
          "midi": 102,
          "time": 154.3440000000008,
          "velocity": 0.7874015748031497,
          "duration": 0.043512499999991405
        },
        {
          "name": "D#5",
          "midi": 75,
          "time": 154.52100000000078,
          "velocity": 0.7874015748031497,
          "duration": 0.043512499999991405
        },
        {
          "name": "F#5",
          "midi": 78,
          "time": 154.52100000000078,
          "velocity": 0.7874015748031497,
          "duration": 0.043512499999991405
        },
        {
          "name": "E6",
          "midi": 88,
          "time": 154.52100000000078,
          "velocity": 0.7874015748031497,
          "duration": 0.043512499999991405
        },
        {
          "name": "F#6",
          "midi": 90,
          "time": 154.52100000000078,
          "velocity": 0.7874015748031497,
          "duration": 0.043512499999991405
        },
        {
          "name": "E7",
          "midi": 100,
          "time": 154.52100000000078,
          "velocity": 0.7874015748031497,
          "duration": 0.043512499999991405
        },
        {
          "name": "F#7",
          "midi": 102,
          "time": 154.52100000000078,
          "velocity": 0.7874015748031497,
          "duration": 0.043512499999991405
        },
        {
          "name": "D4",
          "midi": 62,
          "time": 154.69800000000077,
          "velocity": 0.7874015748031497,
          "duration": 0.043512499999991405
        },
        {
          "name": "F#4",
          "midi": 66,
          "time": 154.69800000000077,
          "velocity": 0.7874015748031497,
          "duration": 0.043512499999991405
        },
        {
          "name": "D#5",
          "midi": 75,
          "time": 154.69800000000077,
          "velocity": 0.7874015748031497,
          "duration": 0.043512499999991405
        },
        {
          "name": "F#5",
          "midi": 78,
          "time": 154.69800000000077,
          "velocity": 0.7874015748031497,
          "duration": 0.043512499999991405
        },
        {
          "name": "E6",
          "midi": 88,
          "time": 154.69800000000077,
          "velocity": 0.7874015748031497,
          "duration": 0.043512499999991405
        },
        {
          "name": "F#6",
          "midi": 90,
          "time": 154.69800000000077,
          "velocity": 0.7874015748031497,
          "duration": 0.043512499999991405
        },
        {
          "name": "E7",
          "midi": 100,
          "time": 154.69800000000077,
          "velocity": 0.7874015748031497,
          "duration": 0.043512499999991405
        },
        {
          "name": "F#7",
          "midi": 102,
          "time": 154.69800000000077,
          "velocity": 0.7874015748031497,
          "duration": 0.043512499999991405
        },
        {
          "name": "D#7",
          "midi": 99,
          "time": 154.78650000000076,
          "velocity": 0.7874015748031497,
          "duration": 0.043512499999991405
        },
        {
          "name": "F7",
          "midi": 101,
          "time": 154.78650000000076,
          "velocity": 0.7874015748031497,
          "duration": 0.043512499999991405
        },
        {
          "name": "D7",
          "midi": 98,
          "time": 154.87500000000074,
          "velocity": 0.7874015748031497,
          "duration": 0.043512499999991405
        },
        {
          "name": "F7",
          "midi": 101,
          "time": 154.87500000000074,
          "velocity": 0.7874015748031497,
          "duration": 0.043512499999991405
        },
        {
          "name": "C#7",
          "midi": 97,
          "time": 154.96350000000072,
          "velocity": 0.7874015748031497,
          "duration": 0.043512499999991405
        },
        {
          "name": "F7",
          "midi": 101,
          "time": 154.96350000000072,
          "velocity": 0.7874015748031497,
          "duration": 0.043512499999991405
        },
        {
          "name": "D4",
          "midi": 62,
          "time": 155.0520000000007,
          "velocity": 0.7874015748031497,
          "duration": 0.043512499999991405
        },
        {
          "name": "F#4",
          "midi": 66,
          "time": 155.0520000000007,
          "velocity": 0.7874015748031497,
          "duration": 0.043512499999991405
        },
        {
          "name": "D#5",
          "midi": 75,
          "time": 155.0520000000007,
          "velocity": 0.7874015748031497,
          "duration": 0.043512499999991405
        },
        {
          "name": "F#5",
          "midi": 78,
          "time": 155.0520000000007,
          "velocity": 0.7874015748031497,
          "duration": 0.043512499999991405
        },
        {
          "name": "E6",
          "midi": 88,
          "time": 155.0520000000007,
          "velocity": 0.7874015748031497,
          "duration": 0.043512499999991405
        },
        {
          "name": "F#6",
          "midi": 90,
          "time": 155.0520000000007,
          "velocity": 0.7874015748031497,
          "duration": 0.043512499999991405
        },
        {
          "name": "E7",
          "midi": 100,
          "time": 155.0520000000007,
          "velocity": 0.7874015748031497,
          "duration": 0.043512499999991405
        },
        {
          "name": "F#7",
          "midi": 102,
          "time": 155.0520000000007,
          "velocity": 0.7874015748031497,
          "duration": 0.043512499999991405
        },
        {
          "name": "C#5",
          "midi": 73,
          "time": 155.2290000000007,
          "velocity": 0.7874015748031497,
          "duration": 0.043512499999991405
        },
        {
          "name": "F5",
          "midi": 77,
          "time": 155.2290000000007,
          "velocity": 0.7874015748031497,
          "duration": 0.043512499999991405
        },
        {
          "name": "D6",
          "midi": 86,
          "time": 155.2290000000007,
          "velocity": 0.7874015748031497,
          "duration": 0.043512499999991405
        },
        {
          "name": "F6",
          "midi": 89,
          "time": 155.2290000000007,
          "velocity": 0.7874015748031497,
          "duration": 0.043512499999991405
        },
        {
          "name": "D7",
          "midi": 98,
          "time": 155.2290000000007,
          "velocity": 0.7874015748031497,
          "duration": 0.043512499999991405
        },
        {
          "name": "F#7",
          "midi": 102,
          "time": 155.2290000000007,
          "velocity": 0.7874015748031497,
          "duration": 0.043512499999991405
        },
        {
          "name": "C#4",
          "midi": 61,
          "time": 155.4060000000007,
          "velocity": 0.7874015748031497,
          "duration": 0.043512499999991405
        },
        {
          "name": "F#4",
          "midi": 66,
          "time": 155.4060000000007,
          "velocity": 0.7874015748031497,
          "duration": 0.043512499999991405
        },
        {
          "name": "D5",
          "midi": 74,
          "time": 155.4060000000007,
          "velocity": 0.7874015748031497,
          "duration": 0.043512499999991405
        },
        {
          "name": "F5",
          "midi": 77,
          "time": 155.4060000000007,
          "velocity": 0.7874015748031497,
          "duration": 0.043512499999991405
        },
        {
          "name": "D#6",
          "midi": 87,
          "time": 155.4060000000007,
          "velocity": 0.7874015748031497,
          "duration": 0.043512499999991405
        },
        {
          "name": "F6",
          "midi": 89,
          "time": 155.4060000000007,
          "velocity": 0.7874015748031497,
          "duration": 0.043512499999991405
        },
        {
          "name": "D#7",
          "midi": 99,
          "time": 155.4060000000007,
          "velocity": 0.7874015748031497,
          "duration": 0.043512499999991405
        },
        {
          "name": "F#7",
          "midi": 102,
          "time": 155.4060000000007,
          "velocity": 0.7874015748031497,
          "duration": 0.043512499999991405
        },
        {
          "name": "C#7",
          "midi": 97,
          "time": 155.58226250000067,
          "velocity": 0.7874015748031497,
          "duration": 0.04425000000000523
        },
        {
          "name": "F#7",
          "midi": 102,
          "time": 155.58226250000067,
          "velocity": 0.7874015748031497,
          "duration": 0.04425000000000523
        },
        {
          "name": "C#4",
          "midi": 61,
          "time": 155.76000000000067,
          "velocity": 0.7874015748031497,
          "duration": 0.043512499999991405
        },
        {
          "name": "F#4",
          "midi": 66,
          "time": 155.76000000000067,
          "velocity": 0.7874015748031497,
          "duration": 0.043512499999991405
        },
        {
          "name": "D5",
          "midi": 74,
          "time": 155.76000000000067,
          "velocity": 0.7874015748031497,
          "duration": 0.043512499999991405
        },
        {
          "name": "F#5",
          "midi": 78,
          "time": 155.76000000000067,
          "velocity": 0.7874015748031497,
          "duration": 0.043512499999991405
        },
        {
          "name": "D6",
          "midi": 86,
          "time": 155.76000000000067,
          "velocity": 0.7874015748031497,
          "duration": 0.043512499999991405
        },
        {
          "name": "F#6",
          "midi": 90,
          "time": 155.76000000000067,
          "velocity": 0.7874015748031497,
          "duration": 0.043512499999991405
        },
        {
          "name": "D7",
          "midi": 98,
          "time": 155.76000000000067,
          "velocity": 0.7874015748031497,
          "duration": 0.043512499999991405
        },
        {
          "name": "F#7",
          "midi": 102,
          "time": 155.76000000000067,
          "velocity": 0.7874015748031497,
          "duration": 0.043512499999991405
        },
        {
          "name": "C4",
          "midi": 60,
          "time": 155.93700000000067,
          "velocity": 0.7874015748031497,
          "duration": 0.043512499999991405
        },
        {
          "name": "F4",
          "midi": 65,
          "time": 155.93700000000067,
          "velocity": 0.7874015748031497,
          "duration": 0.043512499999991405
        },
        {
          "name": "C#5",
          "midi": 73,
          "time": 155.93700000000067,
          "velocity": 0.7874015748031497,
          "duration": 0.043512499999991405
        },
        {
          "name": "F5",
          "midi": 77,
          "time": 155.93700000000067,
          "velocity": 0.7874015748031497,
          "duration": 0.043512499999991405
        },
        {
          "name": "C#6",
          "midi": 85,
          "time": 155.93700000000067,
          "velocity": 0.7874015748031497,
          "duration": 0.35178750000000036
        },
        {
          "name": "F6",
          "midi": 89,
          "time": 155.93700000000067,
          "velocity": 0.7874015748031497,
          "duration": 0.35178750000000036
        },
        {
          "name": "C#7",
          "midi": 97,
          "time": 155.93700000000067,
          "velocity": 0.7874015748031497,
          "duration": 0.35178750000000036
        },
        {
          "name": "F#7",
          "midi": 102,
          "time": 155.93700000000067,
          "velocity": 0.7874015748031497,
          "duration": 0.35178750000000036
        },
        {
          "name": "D4",
          "midi": 62,
          "time": 156.29026250000067,
          "velocity": 0.7874015748031497,
          "duration": 0.04425000000000523
        },
        {
          "name": "F#4",
          "midi": 66,
          "time": 156.29026250000067,
          "velocity": 0.7874015748031497,
          "duration": 0.04425000000000523
        },
        {
          "name": "D#5",
          "midi": 75,
          "time": 156.29026250000067,
          "velocity": 0.7874015748031497,
          "duration": 0.04425000000000523
        },
        {
          "name": "F#5",
          "midi": 78,
          "time": 156.29026250000067,
          "velocity": 0.7874015748031497,
          "duration": 0.04425000000000523
        },
        {
          "name": "E6",
          "midi": 88,
          "time": 156.29026250000067,
          "velocity": 0.7874015748031497,
          "duration": 0.3525250000000142
        },
        {
          "name": "F#6",
          "midi": 90,
          "time": 156.29026250000067,
          "velocity": 0.7874015748031497,
          "duration": 0.3525250000000142
        },
        {
          "name": "E7",
          "midi": 100,
          "time": 156.29026250000067,
          "velocity": 0.7874015748031497,
          "duration": 0.3525250000000142
        },
        {
          "name": "F#7",
          "midi": 102,
          "time": 156.29026250000067,
          "velocity": 0.7874015748031497,
          "duration": 0.3525250000000142
        },
        {
          "name": "C#5",
          "midi": 73,
          "time": 156.6450000000007,
          "velocity": 0.7874015748031497,
          "duration": 0.043512499999991405
        },
        {
          "name": "F#5",
          "midi": 78,
          "time": 156.6450000000007,
          "velocity": 0.7874015748031497,
          "duration": 0.043512499999991405
        },
        {
          "name": "D6",
          "midi": 86,
          "time": 156.6450000000007,
          "velocity": 0.7874015748031497,
          "duration": 0.043512499999991405
        },
        {
          "name": "F#6",
          "midi": 90,
          "time": 156.6450000000007,
          "velocity": 0.7874015748031497,
          "duration": 0.043512499999991405
        },
        {
          "name": "D7",
          "midi": 98,
          "time": 156.6450000000007,
          "velocity": 0.7874015748031497,
          "duration": 0.043512499999991405
        },
        {
          "name": "F#7",
          "midi": 102,
          "time": 156.6450000000007,
          "velocity": 0.7874015748031497,
          "duration": 0.043512499999991405
        },
        {
          "name": "C#4",
          "midi": 61,
          "time": 156.82200000000068,
          "velocity": 0.7874015748031497,
          "duration": 0.043512499999991405
        },
        {
          "name": "F#4",
          "midi": 66,
          "time": 156.82200000000068,
          "velocity": 0.7874015748031497,
          "duration": 0.043512499999991405
        },
        {
          "name": "D5",
          "midi": 74,
          "time": 156.82200000000068,
          "velocity": 0.7874015748031497,
          "duration": 0.043512499999991405
        },
        {
          "name": "F5",
          "midi": 77,
          "time": 156.82200000000068,
          "velocity": 0.7874015748031497,
          "duration": 0.043512499999991405
        },
        {
          "name": "D#6",
          "midi": 87,
          "time": 156.82200000000068,
          "velocity": 0.7874015748031497,
          "duration": 0.043512499999991405
        },
        {
          "name": "F6",
          "midi": 89,
          "time": 156.82200000000068,
          "velocity": 0.7874015748031497,
          "duration": 0.043512499999991405
        },
        {
          "name": "D#7",
          "midi": 99,
          "time": 156.82200000000068,
          "velocity": 0.7874015748031497,
          "duration": 0.043512499999991405
        },
        {
          "name": "F#7",
          "midi": 102,
          "time": 156.82200000000068,
          "velocity": 0.7874015748031497,
          "duration": 0.043512499999991405
        },
        {
          "name": "D7",
          "midi": 98,
          "time": 156.99900000000068,
          "velocity": 0.7874015748031497,
          "duration": 0.043512499999991405
        },
        {
          "name": "F#7",
          "midi": 102,
          "time": 156.99900000000068,
          "velocity": 0.7874015748031497,
          "duration": 0.043512499999991405
        },
        {
          "name": "C4",
          "midi": 60,
          "time": 157.17600000000067,
          "velocity": 0.7874015748031497,
          "duration": 0.043512499999991405
        },
        {
          "name": "F#4",
          "midi": 66,
          "time": 157.17600000000067,
          "velocity": 0.7874015748031497,
          "duration": 0.043512499999991405
        },
        {
          "name": "C#5",
          "midi": 73,
          "time": 157.17600000000067,
          "velocity": 0.7874015748031497,
          "duration": 0.043512499999991405
        },
        {
          "name": "F#5",
          "midi": 78,
          "time": 157.17600000000067,
          "velocity": 0.7874015748031497,
          "duration": 0.043512499999991405
        },
        {
          "name": "C#6",
          "midi": 85,
          "time": 157.17600000000067,
          "velocity": 0.7874015748031497,
          "duration": 0.043512499999991405
        },
        {
          "name": "F#6",
          "midi": 90,
          "time": 157.17600000000067,
          "velocity": 0.7874015748031497,
          "duration": 0.043512499999991405
        },
        {
          "name": "C#7",
          "midi": 97,
          "time": 157.17600000000067,
          "velocity": 0.7874015748031497,
          "duration": 0.043512499999991405
        },
        {
          "name": "F#7",
          "midi": 102,
          "time": 157.17600000000067,
          "velocity": 0.7874015748031497,
          "duration": 0.043512499999991405
        },
        {
          "name": "C6",
          "midi": 84,
          "time": 157.35226250000065,
          "velocity": 0.7874015748031497,
          "duration": 0.043512499999991405
        },
        {
          "name": "F6",
          "midi": 89,
          "time": 157.35226250000065,
          "velocity": 0.7874015748031497,
          "duration": 0.043512499999991405
        },
        {
          "name": "C7",
          "midi": 96,
          "time": 157.35226250000065,
          "velocity": 0.7874015748031497,
          "duration": 0.043512499999991405
        },
        {
          "name": "F#7",
          "midi": 102,
          "time": 157.35226250000065,
          "velocity": 0.7874015748031497,
          "duration": 0.043512499999991405
        },
        {
          "name": "D4",
          "midi": 62,
          "time": 157.53000000000063,
          "velocity": 0.7874015748031497,
          "duration": 0.043512499999991405
        },
        {
          "name": "F#4",
          "midi": 66,
          "time": 157.53000000000063,
          "velocity": 0.7874015748031497,
          "duration": 0.043512499999991405
        },
        {
          "name": "D#5",
          "midi": 75,
          "time": 157.53000000000063,
          "velocity": 0.7874015748031497,
          "duration": 0.043512499999991405
        },
        {
          "name": "F#5",
          "midi": 78,
          "time": 157.53000000000063,
          "velocity": 0.7874015748031497,
          "duration": 0.043512499999991405
        },
        {
          "name": "E6",
          "midi": 88,
          "time": 157.53000000000063,
          "velocity": 0.7874015748031497,
          "duration": 0.043512499999991405
        },
        {
          "name": "F#6",
          "midi": 90,
          "time": 157.53000000000063,
          "velocity": 0.7874015748031497,
          "duration": 0.043512499999991405
        },
        {
          "name": "E7",
          "midi": 100,
          "time": 157.53000000000063,
          "velocity": 0.7874015748031497,
          "duration": 0.043512499999991405
        },
        {
          "name": "F#7",
          "midi": 102,
          "time": 157.53000000000063,
          "velocity": 0.7874015748031497,
          "duration": 0.043512499999991405
        },
        {
          "name": "C#5",
          "midi": 73,
          "time": 157.70700000000062,
          "velocity": 0.7874015748031497,
          "duration": 0.043512499999991405
        },
        {
          "name": "F5",
          "midi": 77,
          "time": 157.70700000000062,
          "velocity": 0.7874015748031497,
          "duration": 0.043512499999991405
        },
        {
          "name": "D6",
          "midi": 86,
          "time": 157.70700000000062,
          "velocity": 0.7874015748031497,
          "duration": 0.043512499999991405
        },
        {
          "name": "F6",
          "midi": 89,
          "time": 157.70700000000062,
          "velocity": 0.7874015748031497,
          "duration": 0.043512499999991405
        },
        {
          "name": "D7",
          "midi": 98,
          "time": 157.70700000000062,
          "velocity": 0.7874015748031497,
          "duration": 0.043512499999991405
        },
        {
          "name": "F#7",
          "midi": 102,
          "time": 157.70700000000062,
          "velocity": 0.7874015748031497,
          "duration": 0.043512499999991405
        },
        {
          "name": "C#4",
          "midi": 61,
          "time": 157.8840000000006,
          "velocity": 0.7874015748031497,
          "duration": 0.043512499999991405
        },
        {
          "name": "F#4",
          "midi": 66,
          "time": 157.8840000000006,
          "velocity": 0.7874015748031497,
          "duration": 0.043512499999991405
        },
        {
          "name": "D5",
          "midi": 74,
          "time": 157.8840000000006,
          "velocity": 0.7874015748031497,
          "duration": 0.043512499999991405
        },
        {
          "name": "F5",
          "midi": 77,
          "time": 157.8840000000006,
          "velocity": 0.7874015748031497,
          "duration": 0.043512499999991405
        },
        {
          "name": "D#6",
          "midi": 87,
          "time": 157.8840000000006,
          "velocity": 0.7874015748031497,
          "duration": 0.043512499999991405
        },
        {
          "name": "F6",
          "midi": 89,
          "time": 157.8840000000006,
          "velocity": 0.7874015748031497,
          "duration": 0.043512499999991405
        },
        {
          "name": "D#7",
          "midi": 99,
          "time": 157.8840000000006,
          "velocity": 0.7874015748031497,
          "duration": 0.043512499999991405
        },
        {
          "name": "F#7",
          "midi": 102,
          "time": 157.8840000000006,
          "velocity": 0.7874015748031497,
          "duration": 0.043512499999991405
        },
        {
          "name": "C#7",
          "midi": 97,
          "time": 158.0617375000006,
          "velocity": 0.7874015748031497,
          "duration": 0.043512499999991405
        },
        {
          "name": "F#7",
          "midi": 102,
          "time": 158.0617375000006,
          "velocity": 0.7874015748031497,
          "duration": 0.043512499999991405
        },
        {
          "name": "C#4",
          "midi": 61,
          "time": 158.23800000000057,
          "velocity": 0.7874015748031497,
          "duration": 0.043512499999991405
        },
        {
          "name": "F#4",
          "midi": 66,
          "time": 158.23800000000057,
          "velocity": 0.7874015748031497,
          "duration": 0.043512499999991405
        },
        {
          "name": "D5",
          "midi": 74,
          "time": 158.23800000000057,
          "velocity": 0.7874015748031497,
          "duration": 0.043512499999991405
        },
        {
          "name": "F#5",
          "midi": 78,
          "time": 158.23800000000057,
          "velocity": 0.7874015748031497,
          "duration": 0.043512499999991405
        },
        {
          "name": "D6",
          "midi": 86,
          "time": 158.23800000000057,
          "velocity": 0.7874015748031497,
          "duration": 0.043512499999991405
        },
        {
          "name": "F#6",
          "midi": 90,
          "time": 158.23800000000057,
          "velocity": 0.7874015748031497,
          "duration": 0.043512499999991405
        },
        {
          "name": "D7",
          "midi": 98,
          "time": 158.23800000000057,
          "velocity": 0.7874015748031497,
          "duration": 0.043512499999991405
        },
        {
          "name": "F#7",
          "midi": 102,
          "time": 158.23800000000057,
          "velocity": 0.7874015748031497,
          "duration": 0.043512499999991405
        },
        {
          "name": "C4",
          "midi": 60,
          "time": 158.41500000000056,
          "velocity": 0.7874015748031497,
          "duration": 0.043512499999991405
        },
        {
          "name": "F4",
          "midi": 65,
          "time": 158.41500000000056,
          "velocity": 0.7874015748031497,
          "duration": 0.043512499999991405
        },
        {
          "name": "C#5",
          "midi": 73,
          "time": 158.41500000000056,
          "velocity": 0.7874015748031497,
          "duration": 0.043512499999991405
        },
        {
          "name": "F5",
          "midi": 77,
          "time": 158.41500000000056,
          "velocity": 0.7874015748031497,
          "duration": 0.043512499999991405
        },
        {
          "name": "C#6",
          "midi": 85,
          "time": 158.41500000000056,
          "velocity": 0.7874015748031497,
          "duration": 0.043512499999991405
        },
        {
          "name": "F6",
          "midi": 89,
          "time": 158.41500000000056,
          "velocity": 0.7874015748031497,
          "duration": 0.043512499999991405
        },
        {
          "name": "C#7",
          "midi": 97,
          "time": 158.41500000000056,
          "velocity": 0.7874015748031497,
          "duration": 0.043512499999991405
        },
        {
          "name": "F#7",
          "midi": 102,
          "time": 158.41500000000056,
          "velocity": 0.7874015748031497,
          "duration": 0.043512499999991405
        },
        {
          "name": "C#7",
          "midi": 97,
          "time": 158.59200000000055,
          "velocity": 0.7874015748031497,
          "duration": 0.04425000000000523
        },
        {
          "name": "F#7",
          "midi": 102,
          "time": 158.59200000000055,
          "velocity": 0.7874015748031497,
          "duration": 0.04425000000000523
        },
        {
          "name": "G#8",
          "midi": 116,
          "time": 158.76826250000056,
          "velocity": 0.7874015748031497,
          "duration": 4.071000000000055
        },
        {
          "name": "C4",
          "midi": 60,
          "time": 158.76826250000056,
          "velocity": 0.7874015748031497,
          "duration": 0.04425000000000523
        },
        {
          "name": "F#4",
          "midi": 66,
          "time": 158.76826250000056,
          "velocity": 0.7874015748031497,
          "duration": 0.04425000000000523
        },
        {
          "name": "C5",
          "midi": 72,
          "time": 158.76826250000056,
          "velocity": 0.7874015748031497,
          "duration": 0.04425000000000523
        },
        {
          "name": "F#5",
          "midi": 78,
          "time": 158.76826250000056,
          "velocity": 0.7874015748031497,
          "duration": 0.04425000000000523
        },
        {
          "name": "C6",
          "midi": 84,
          "time": 158.76826250000056,
          "velocity": 0.7874015748031497,
          "duration": 0.3525250000000142
        },
        {
          "name": "F#6",
          "midi": 90,
          "time": 158.76826250000056,
          "velocity": 0.7874015748031497,
          "duration": 0.3525250000000142
        },
        {
          "name": "C7",
          "midi": 96,
          "time": 158.76826250000056,
          "velocity": 0.7874015748031497,
          "duration": 0.3525250000000142
        },
        {
          "name": "F#7",
          "midi": 102,
          "time": 158.76826250000056,
          "velocity": 0.7874015748031497,
          "duration": 0.3525250000000142
        },
        {
          "name": "C#4",
          "midi": 61,
          "time": 159.12226250000057,
          "velocity": 0.7874015748031497,
          "duration": 0.04425000000000523
        },
        {
          "name": "F#4",
          "midi": 66,
          "time": 159.12226250000057,
          "velocity": 0.7874015748031497,
          "duration": 0.04425000000000523
        },
        {
          "name": "C#5",
          "midi": 73,
          "time": 159.12226250000057,
          "velocity": 0.7874015748031497,
          "duration": 0.04425000000000523
        },
        {
          "name": "F#5",
          "midi": 78,
          "time": 159.12226250000057,
          "velocity": 0.7874015748031497,
          "duration": 0.04425000000000523
        },
        {
          "name": "C#6",
          "midi": 85,
          "time": 159.12226250000057,
          "velocity": 0.7874015748031497,
          "duration": 0.3525250000000142
        },
        {
          "name": "F#6",
          "midi": 90,
          "time": 159.12226250000057,
          "velocity": 0.7874015748031497,
          "duration": 0.3525250000000142
        },
        {
          "name": "C#7",
          "midi": 97,
          "time": 159.12226250000057,
          "velocity": 0.7874015748031497,
          "duration": 0.3525250000000142
        },
        {
          "name": "F#7",
          "midi": 102,
          "time": 159.12226250000057,
          "velocity": 0.7874015748031497,
          "duration": 0.3525250000000142
        },
        {
          "name": "C4",
          "midi": 60,
          "time": 159.4762625000006,
          "velocity": 0.7874015748031497,
          "duration": 0.04425000000000523
        },
        {
          "name": "F#4",
          "midi": 66,
          "time": 159.4762625000006,
          "velocity": 0.7874015748031497,
          "duration": 0.04425000000000523
        },
        {
          "name": "D5",
          "midi": 74,
          "time": 159.4762625000006,
          "velocity": 0.7874015748031497,
          "duration": 0.04425000000000523
        },
        {
          "name": "F#5",
          "midi": 78,
          "time": 159.4762625000006,
          "velocity": 0.7874015748031497,
          "duration": 0.04425000000000523
        },
        {
          "name": "D6",
          "midi": 86,
          "time": 159.4762625000006,
          "velocity": 0.7874015748031497,
          "duration": 0.3532624999999996
        },
        {
          "name": "F#6",
          "midi": 90,
          "time": 159.4762625000006,
          "velocity": 0.7874015748031497,
          "duration": 0.3532624999999996
        },
        {
          "name": "D7",
          "midi": 98,
          "time": 159.4762625000006,
          "velocity": 0.7874015748031497,
          "duration": 0.3532624999999996
        },
        {
          "name": "F#7",
          "midi": 102,
          "time": 159.4762625000006,
          "velocity": 0.7874015748031497,
          "duration": 0.3532624999999996
        },
        {
          "name": "D4",
          "midi": 62,
          "time": 159.8317375000006,
          "velocity": 0.7874015748031497,
          "duration": 0.043512499999991405
        },
        {
          "name": "F#4",
          "midi": 66,
          "time": 159.8317375000006,
          "velocity": 0.7874015748031497,
          "duration": 0.043512499999991405
        },
        {
          "name": "D#5",
          "midi": 75,
          "time": 159.8317375000006,
          "velocity": 0.7874015748031497,
          "duration": 0.043512499999991405
        },
        {
          "name": "F#5",
          "midi": 78,
          "time": 159.8317375000006,
          "velocity": 0.7874015748031497,
          "duration": 0.043512499999991405
        },
        {
          "name": "D#6",
          "midi": 87,
          "time": 159.8317375000006,
          "velocity": 0.7874015748031497,
          "duration": 0.35178750000000036
        },
        {
          "name": "F#6",
          "midi": 90,
          "time": 159.8317375000006,
          "velocity": 0.7874015748031497,
          "duration": 0.35178750000000036
        },
        {
          "name": "D#7",
          "midi": 99,
          "time": 159.8317375000006,
          "velocity": 0.7874015748031497,
          "duration": 0.35178750000000036
        },
        {
          "name": "F#7",
          "midi": 102,
          "time": 159.8317375000006,
          "velocity": 0.7874015748031497,
          "duration": 0.35178750000000036
        },
        {
          "name": "C4",
          "midi": 60,
          "time": 160.1857375000006,
          "velocity": 0.7874015748031497,
          "duration": 0.043512499999991405
        },
        {
          "name": "F#4",
          "midi": 66,
          "time": 160.1857375000006,
          "velocity": 0.7874015748031497,
          "duration": 0.043512499999991405
        },
        {
          "name": "C5",
          "midi": 72,
          "time": 160.1857375000006,
          "velocity": 0.7874015748031497,
          "duration": 0.043512499999991405
        },
        {
          "name": "F#5",
          "midi": 78,
          "time": 160.1857375000006,
          "velocity": 0.7874015748031497,
          "duration": 0.043512499999991405
        },
        {
          "name": "C6",
          "midi": 84,
          "time": 160.1857375000006,
          "velocity": 0.7874015748031497,
          "duration": 0.043512499999991405
        },
        {
          "name": "F#6",
          "midi": 90,
          "time": 160.1857375000006,
          "velocity": 0.7874015748031497,
          "duration": 0.043512499999991405
        },
        {
          "name": "C7",
          "midi": 96,
          "time": 160.1857375000006,
          "velocity": 0.7874015748031497,
          "duration": 0.043512499999991405
        },
        {
          "name": "F#7",
          "midi": 102,
          "time": 160.1857375000006,
          "velocity": 0.7874015748031497,
          "duration": 0.043512499999991405
        },
        {
          "name": "C5",
          "midi": 72,
          "time": 160.3620000000006,
          "velocity": 0.7874015748031497,
          "duration": 0.043512499999991405
        },
        {
          "name": "F#5",
          "midi": 78,
          "time": 160.3620000000006,
          "velocity": 0.7874015748031497,
          "duration": 0.043512499999991405
        },
        {
          "name": "C6",
          "midi": 84,
          "time": 160.3620000000006,
          "velocity": 0.7874015748031497,
          "duration": 0.3532624999999996
        },
        {
          "name": "F#6",
          "midi": 90,
          "time": 160.3620000000006,
          "velocity": 0.7874015748031497,
          "duration": 0.3532624999999996
        },
        {
          "name": "C7",
          "midi": 96,
          "time": 160.3620000000006,
          "velocity": 0.7874015748031497,
          "duration": 0.35178750000000036
        },
        {
          "name": "F#7",
          "midi": 102,
          "time": 160.3620000000006,
          "velocity": 0.7874015748031497,
          "duration": 0.35178750000000036
        },
        {
          "name": "C7",
          "midi": 96,
          "time": 160.7160000000006,
          "velocity": 0.7874015748031497,
          "duration": 0.04425000000000523
        },
        {
          "name": "F#7",
          "midi": 102,
          "time": 160.7160000000006,
          "velocity": 0.7874015748031497,
          "duration": 0.04425000000000523
        },
        {
          "name": "D4",
          "midi": 62,
          "time": 160.8937375000006,
          "velocity": 0.7874015748031497,
          "duration": 1.9440500000000043
        },
        {
          "name": "F#4",
          "midi": 66,
          "time": 160.8937375000006,
          "velocity": 0.7874015748031497,
          "duration": 1.9440500000000043
        },
        {
          "name": "D5",
          "midi": 74,
          "time": 160.8937375000006,
          "velocity": 0.7874015748031497,
          "duration": 1.9440500000000043
        },
        {
          "name": "D#5",
          "midi": 75,
          "time": 160.8937375000006,
          "velocity": 0.7874015748031497,
          "duration": 1.9440500000000043
        },
        {
          "name": "F#5",
          "midi": 78,
          "time": 160.8937375000006,
          "velocity": 0.7874015748031497,
          "duration": 1.9440500000000043
        },
        {
          "name": "D6",
          "midi": 86,
          "time": 160.8937375000006,
          "velocity": 0.7874015748031497,
          "duration": 1.9440500000000043
        },
        {
          "name": "E6",
          "midi": 88,
          "time": 160.8937375000006,
          "velocity": 0.7874015748031497,
          "duration": 1.9440500000000043
        },
        {
          "name": "F#6",
          "midi": 90,
          "time": 160.8937375000006,
          "velocity": 0.7874015748031497,
          "duration": 1.9440500000000043
        },
        {
          "name": "D7",
          "midi": 98,
          "time": 160.8937375000006,
          "velocity": 0.7874015748031497,
          "duration": 1.9440500000000043
        },
        {
          "name": "D#7",
          "midi": 99,
          "time": 160.8937375000006,
          "velocity": 0.7874015748031497,
          "duration": 1.9440500000000043
        },
        {
          "name": "E7",
          "midi": 100,
          "time": 160.8937375000006,
          "velocity": 0.7874015748031497,
          "duration": 1.9440500000000043
        },
        {
          "name": "F#7",
          "midi": 102,
          "time": 160.8937375000006,
          "velocity": 0.7874015748031497,
          "duration": 1.9440500000000043
        },
        {
          "name": "C4",
          "midi": 60,
          "time": 162.84000000000063,
          "velocity": 0.7874015748031497,
          "duration": 0.043512499999991405
        },
        {
          "name": "F#4",
          "midi": 66,
          "time": 162.84000000000063,
          "velocity": 0.7874015748031497,
          "duration": 0.043512499999991405
        },
        {
          "name": "C5",
          "midi": 72,
          "time": 162.84000000000063,
          "velocity": 0.7874015748031497,
          "duration": 0.043512499999991405
        },
        {
          "name": "F#5",
          "midi": 78,
          "time": 162.84000000000063,
          "velocity": 0.7874015748031497,
          "duration": 0.043512499999991405
        },
        {
          "name": "C6",
          "midi": 84,
          "time": 162.84000000000063,
          "velocity": 0.7874015748031497,
          "duration": 0.043512499999991405
        },
        {
          "name": "F#6",
          "midi": 90,
          "time": 162.84000000000063,
          "velocity": 0.7874015748031497,
          "duration": 0.043512499999991405
        },
        {
          "name": "C7",
          "midi": 96,
          "time": 162.84000000000063,
          "velocity": 0.7874015748031497,
          "duration": 0.043512499999991405
        },
        {
          "name": "F#7",
          "midi": 102,
          "time": 162.84000000000063,
          "velocity": 0.7874015748031497,
          "duration": 0.043512499999991405
        },
        {
          "name": "C5",
          "midi": 72,
          "time": 163.0177375000006,
          "velocity": 0.7874015748031497,
          "duration": 0.043512499999991405
        },
        {
          "name": "F#5",
          "midi": 78,
          "time": 163.0177375000006,
          "velocity": 0.7874015748031497,
          "duration": 0.043512499999991405
        },
        {
          "name": "C6",
          "midi": 84,
          "time": 163.0177375000006,
          "velocity": 0.7874015748031497,
          "duration": 0.3532624999999996
        },
        {
          "name": "F#6",
          "midi": 90,
          "time": 163.0177375000006,
          "velocity": 0.7874015748031497,
          "duration": 0.3532624999999996
        },
        {
          "name": "C7",
          "midi": 96,
          "time": 163.0177375000006,
          "velocity": 0.7874015748031497,
          "duration": 0.35104999999998654
        },
        {
          "name": "F#7",
          "midi": 102,
          "time": 163.0177375000006,
          "velocity": 0.7874015748031497,
          "duration": 0.35104999999998654
        },
        {
          "name": "C7",
          "midi": 96,
          "time": 163.3710000000006,
          "velocity": 0.7874015748031497,
          "duration": 0.043512499999991405
        },
        {
          "name": "F#7",
          "midi": 102,
          "time": 163.3710000000006,
          "velocity": 0.7874015748031497,
          "duration": 0.043512499999991405
        },
        {
          "name": "C#4",
          "midi": 61,
          "time": 163.5480000000006,
          "velocity": 0.7874015748031497,
          "duration": 2.1217875000000106
        },
        {
          "name": "F#4",
          "midi": 66,
          "time": 163.5480000000006,
          "velocity": 0.7874015748031497,
          "duration": 2.1217875000000106
        },
        {
          "name": "C#5",
          "midi": 73,
          "time": 163.5480000000006,
          "velocity": 0.7874015748031497,
          "duration": 2.1217875000000106
        },
        {
          "name": "D5",
          "midi": 74,
          "time": 163.5480000000006,
          "velocity": 0.7874015748031497,
          "duration": 2.1217875000000106
        },
        {
          "name": "F#5",
          "midi": 78,
          "time": 163.5480000000006,
          "velocity": 0.7874015748031497,
          "duration": 2.1217875000000106
        },
        {
          "name": "C#6",
          "midi": 85,
          "time": 163.5480000000006,
          "velocity": 0.7874015748031497,
          "duration": 2.1217875000000106
        },
        {
          "name": "E6",
          "midi": 88,
          "time": 163.5480000000006,
          "velocity": 0.7874015748031497,
          "duration": 2.1217875000000106
        },
        {
          "name": "F#6",
          "midi": 90,
          "time": 163.5480000000006,
          "velocity": 0.7874015748031497,
          "duration": 2.1217875000000106
        },
        {
          "name": "C#7",
          "midi": 97,
          "time": 163.5480000000006,
          "velocity": 0.7874015748031497,
          "duration": 2.1217875000000106
        },
        {
          "name": "D#7",
          "midi": 99,
          "time": 163.5480000000006,
          "velocity": 0.7874015748031497,
          "duration": 2.1217875000000106
        },
        {
          "name": "E7",
          "midi": 100,
          "time": 163.5480000000006,
          "velocity": 0.7874015748031497,
          "duration": 2.1217875000000106
        },
        {
          "name": "F#7",
          "midi": 102,
          "time": 163.5480000000006,
          "velocity": 0.7874015748031497,
          "duration": 2.1217875000000106
        },
        {
          "name": "C4",
          "midi": 60,
          "time": 165.67200000000062,
          "velocity": 0.7874015748031497,
          "duration": 0.043512499999991405
        },
        {
          "name": "F#4",
          "midi": 66,
          "time": 165.67200000000062,
          "velocity": 0.7874015748031497,
          "duration": 0.043512499999991405
        },
        {
          "name": "C5",
          "midi": 72,
          "time": 165.67200000000062,
          "velocity": 0.7874015748031497,
          "duration": 0.043512499999991405
        },
        {
          "name": "F#5",
          "midi": 78,
          "time": 165.67200000000062,
          "velocity": 0.7874015748031497,
          "duration": 0.043512499999991405
        },
        {
          "name": "C6",
          "midi": 84,
          "time": 165.67200000000062,
          "velocity": 0.7874015748031497,
          "duration": 0.043512499999991405
        },
        {
          "name": "F#6",
          "midi": 90,
          "time": 165.67200000000062,
          "velocity": 0.7874015748031497,
          "duration": 0.043512499999991405
        },
        {
          "name": "C7",
          "midi": 96,
          "time": 165.67200000000062,
          "velocity": 0.7874015748031497,
          "duration": 0.043512499999991405
        },
        {
          "name": "F#7",
          "midi": 102,
          "time": 165.67200000000062,
          "velocity": 0.7874015748031497,
          "duration": 0.043512499999991405
        },
        {
          "name": "C5",
          "midi": 72,
          "time": 165.84900000000061,
          "velocity": 0.7874015748031497,
          "duration": 0.043512499999991405
        },
        {
          "name": "F#5",
          "midi": 78,
          "time": 165.84900000000061,
          "velocity": 0.7874015748031497,
          "duration": 0.043512499999991405
        },
        {
          "name": "C6",
          "midi": 84,
          "time": 165.84900000000061,
          "velocity": 0.7874015748031497,
          "duration": 0.3532624999999996
        },
        {
          "name": "F#6",
          "midi": 90,
          "time": 165.84900000000061,
          "velocity": 0.7874015748031497,
          "duration": 0.3532624999999996
        },
        {
          "name": "C7",
          "midi": 96,
          "time": 165.84900000000061,
          "velocity": 0.7874015748031497,
          "duration": 0.35252499999998577
        },
        {
          "name": "F#7",
          "midi": 102,
          "time": 165.84900000000061,
          "velocity": 0.7874015748031497,
          "duration": 0.35252499999998577
        },
        {
          "name": "C7",
          "midi": 96,
          "time": 166.2037375000006,
          "velocity": 0.7874015748031497,
          "duration": 0.042775000000006
        },
        {
          "name": "F#7",
          "midi": 102,
          "time": 166.2037375000006,
          "velocity": 0.7874015748031497,
          "duration": 0.042775000000006
        },
        {
          "name": "C4",
          "midi": 60,
          "time": 166.38000000000062,
          "velocity": 0.7874015748031497,
          "duration": 2.1217875000000106
        },
        {
          "name": "F#4",
          "midi": 66,
          "time": 166.38000000000062,
          "velocity": 0.7874015748031497,
          "duration": 2.1217875000000106
        },
        {
          "name": "C5",
          "midi": 72,
          "time": 166.38000000000062,
          "velocity": 0.7874015748031497,
          "duration": 2.1217875000000106
        },
        {
          "name": "C#5",
          "midi": 73,
          "time": 166.38000000000062,
          "velocity": 0.7874015748031497,
          "duration": 2.1217875000000106
        },
        {
          "name": "F#5",
          "midi": 78,
          "time": 166.38000000000062,
          "velocity": 0.7874015748031497,
          "duration": 2.1217875000000106
        },
        {
          "name": "C6",
          "midi": 84,
          "time": 166.38000000000062,
          "velocity": 0.7874015748031497,
          "duration": 2.1217875000000106
        },
        {
          "name": "D#6",
          "midi": 87,
          "time": 166.38000000000062,
          "velocity": 0.7874015748031497,
          "duration": 2.1217875000000106
        },
        {
          "name": "F#6",
          "midi": 90,
          "time": 166.38000000000062,
          "velocity": 0.7874015748031497,
          "duration": 2.1217875000000106
        },
        {
          "name": "C7",
          "midi": 96,
          "time": 166.38000000000062,
          "velocity": 0.7874015748031497,
          "duration": 2.1217875000000106
        },
        {
          "name": "C#7",
          "midi": 97,
          "time": 166.38000000000062,
          "velocity": 0.7874015748031497,
          "duration": 2.1217875000000106
        },
        {
          "name": "D#7",
          "midi": 99,
          "time": 166.38000000000062,
          "velocity": 0.7874015748031497,
          "duration": 2.1217875000000106
        },
        {
          "name": "F#7",
          "midi": 102,
          "time": 166.38000000000062,
          "velocity": 0.7874015748031497,
          "duration": 2.1217875000000106
        },
        {
          "name": "C4",
          "midi": 60,
          "time": 168.50400000000064,
          "velocity": 0.7874015748031497,
          "duration": 0.043512499999991405
        },
        {
          "name": "F#4",
          "midi": 66,
          "time": 168.50400000000064,
          "velocity": 0.7874015748031497,
          "duration": 0.043512499999991405
        },
        {
          "name": "C5",
          "midi": 72,
          "time": 168.50400000000064,
          "velocity": 0.7874015748031497,
          "duration": 0.043512499999991405
        },
        {
          "name": "F#5",
          "midi": 78,
          "time": 168.50400000000064,
          "velocity": 0.7874015748031497,
          "duration": 0.043512499999991405
        },
        {
          "name": "C6",
          "midi": 84,
          "time": 168.50400000000064,
          "velocity": 0.7874015748031497,
          "duration": 0.043512499999991405
        },
        {
          "name": "F#6",
          "midi": 90,
          "time": 168.50400000000064,
          "velocity": 0.7874015748031497,
          "duration": 0.043512499999991405
        },
        {
          "name": "C7",
          "midi": 96,
          "time": 168.50400000000064,
          "velocity": 0.7874015748031497,
          "duration": 0.043512499999991405
        },
        {
          "name": "F#7",
          "midi": 102,
          "time": 168.50400000000064,
          "velocity": 0.7874015748031497,
          "duration": 0.043512499999991405
        },
        {
          "name": "C5",
          "midi": 72,
          "time": 168.68026250000062,
          "velocity": 0.7874015748031497,
          "duration": 0.04425000000000523
        },
        {
          "name": "F#5",
          "midi": 78,
          "time": 168.68026250000062,
          "velocity": 0.7874015748031497,
          "duration": 0.04425000000000523
        },
        {
          "name": "C6",
          "midi": 84,
          "time": 168.68026250000062,
          "velocity": 0.7874015748031497,
          "duration": 0.3540000000000134
        },
        {
          "name": "F#6",
          "midi": 90,
          "time": 168.68026250000062,
          "velocity": 0.7874015748031497,
          "duration": 0.3540000000000134
        },
        {
          "name": "C7",
          "midi": 96,
          "time": 168.68026250000062,
          "velocity": 0.7874015748031497,
          "duration": 0.3532624999999996
        },
        {
          "name": "F#7",
          "midi": 102,
          "time": 168.68026250000062,
          "velocity": 0.7874015748031497,
          "duration": 0.3532624999999996
        },
        {
          "name": "C7",
          "midi": 96,
          "time": 169.03573750000064,
          "velocity": 0.7874015748031497,
          "duration": 0.043512499999991405
        },
        {
          "name": "F#7",
          "midi": 102,
          "time": 169.03573750000064,
          "velocity": 0.7874015748031497,
          "duration": 0.043512499999991405
        },
        {
          "name": "C#4",
          "midi": 61,
          "time": 169.21200000000061,
          "velocity": 0.7874015748031497,
          "duration": 2.1217875000000106
        },
        {
          "name": "F#4",
          "midi": 66,
          "time": 169.21200000000061,
          "velocity": 0.7874015748031497,
          "duration": 2.1217875000000106
        },
        {
          "name": "C5",
          "midi": 72,
          "time": 169.21200000000061,
          "velocity": 0.7874015748031497,
          "duration": 2.1217875000000106
        },
        {
          "name": "D5",
          "midi": 74,
          "time": 169.21200000000061,
          "velocity": 0.7874015748031497,
          "duration": 2.1217875000000106
        },
        {
          "name": "F#5",
          "midi": 78,
          "time": 169.21200000000061,
          "velocity": 0.7874015748031497,
          "duration": 2.1217875000000106
        },
        {
          "name": "C#6",
          "midi": 85,
          "time": 169.21200000000061,
          "velocity": 0.7874015748031497,
          "duration": 2.1217875000000106
        },
        {
          "name": "D#6",
          "midi": 87,
          "time": 169.21200000000061,
          "velocity": 0.7874015748031497,
          "duration": 2.1217875000000106
        },
        {
          "name": "F#6",
          "midi": 90,
          "time": 169.21200000000061,
          "velocity": 0.7874015748031497,
          "duration": 2.1217875000000106
        },
        {
          "name": "C#7",
          "midi": 97,
          "time": 169.21200000000061,
          "velocity": 0.7874015748031497,
          "duration": 2.1217875000000106
        },
        {
          "name": "D7",
          "midi": 98,
          "time": 169.21200000000061,
          "velocity": 0.7874015748031497,
          "duration": 2.1217875000000106
        },
        {
          "name": "D#7",
          "midi": 99,
          "time": 169.21200000000061,
          "velocity": 0.7874015748031497,
          "duration": 2.1217875000000106
        },
        {
          "name": "F#7",
          "midi": 102,
          "time": 169.21200000000061,
          "velocity": 0.7874015748031497,
          "duration": 2.1217875000000106
        },
        {
          "name": "C4",
          "midi": 60,
          "time": 171.33600000000064,
          "velocity": 0.7874015748031497,
          "duration": 0.043512499999991405
        },
        {
          "name": "F#4",
          "midi": 66,
          "time": 171.33600000000064,
          "velocity": 0.7874015748031497,
          "duration": 0.043512499999991405
        },
        {
          "name": "C5",
          "midi": 72,
          "time": 171.33600000000064,
          "velocity": 0.7874015748031497,
          "duration": 0.043512499999991405
        },
        {
          "name": "F#5",
          "midi": 78,
          "time": 171.33600000000064,
          "velocity": 0.7874015748031497,
          "duration": 0.043512499999991405
        },
        {
          "name": "C6",
          "midi": 84,
          "time": 171.33600000000064,
          "velocity": 0.7874015748031497,
          "duration": 0.043512499999991405
        },
        {
          "name": "F#6",
          "midi": 90,
          "time": 171.33600000000064,
          "velocity": 0.7874015748031497,
          "duration": 0.043512499999991405
        },
        {
          "name": "C7",
          "midi": 96,
          "time": 171.33600000000064,
          "velocity": 0.7874015748031497,
          "duration": 0.043512499999991405
        },
        {
          "name": "F#7",
          "midi": 102,
          "time": 171.33600000000064,
          "velocity": 0.7874015748031497,
          "duration": 0.043512499999991405
        },
        {
          "name": "C5",
          "midi": 72,
          "time": 171.51300000000063,
          "velocity": 0.7874015748031497,
          "duration": 0.043512499999991405
        },
        {
          "name": "F#5",
          "midi": 78,
          "time": 171.51300000000063,
          "velocity": 0.7874015748031497,
          "duration": 0.043512499999991405
        },
        {
          "name": "C6",
          "midi": 84,
          "time": 171.51300000000063,
          "velocity": 0.7874015748031497,
          "duration": 0.3532624999999996
        },
        {
          "name": "F#6",
          "midi": 90,
          "time": 171.51300000000063,
          "velocity": 0.7874015748031497,
          "duration": 0.3532624999999996
        },
        {
          "name": "C7",
          "midi": 96,
          "time": 171.51300000000063,
          "velocity": 0.7874015748031497,
          "duration": 0.35252499999998577
        },
        {
          "name": "F#7",
          "midi": 102,
          "time": 171.51300000000063,
          "velocity": 0.7874015748031497,
          "duration": 0.35252499999998577
        },
        {
          "name": "C7",
          "midi": 96,
          "time": 171.86773750000063,
          "velocity": 0.7874015748031497,
          "duration": 0.042775000000006
        },
        {
          "name": "F#7",
          "midi": 102,
          "time": 171.86773750000063,
          "velocity": 0.7874015748031497,
          "duration": 0.042775000000006
        },
        {
          "name": "D4",
          "midi": 62,
          "time": 172.04400000000064,
          "velocity": 0.7874015748031497,
          "duration": 2.1217875000000106
        },
        {
          "name": "F#4",
          "midi": 66,
          "time": 172.04400000000064,
          "velocity": 0.7874015748031497,
          "duration": 2.1217875000000106
        },
        {
          "name": "D5",
          "midi": 74,
          "time": 172.04400000000064,
          "velocity": 0.7874015748031497,
          "duration": 2.1217875000000106
        },
        {
          "name": "D#5",
          "midi": 75,
          "time": 172.04400000000064,
          "velocity": 0.7874015748031497,
          "duration": 2.1217875000000106
        },
        {
          "name": "F#5",
          "midi": 78,
          "time": 172.04400000000064,
          "velocity": 0.7874015748031497,
          "duration": 2.1217875000000106
        },
        {
          "name": "D6",
          "midi": 86,
          "time": 172.04400000000064,
          "velocity": 0.7874015748031497,
          "duration": 2.1217875000000106
        },
        {
          "name": "E6",
          "midi": 88,
          "time": 172.04400000000064,
          "velocity": 0.7874015748031497,
          "duration": 2.1217875000000106
        },
        {
          "name": "F#6",
          "midi": 90,
          "time": 172.04400000000064,
          "velocity": 0.7874015748031497,
          "duration": 2.1217875000000106
        },
        {
          "name": "D7",
          "midi": 98,
          "time": 172.04400000000064,
          "velocity": 0.7874015748031497,
          "duration": 2.1217875000000106
        },
        {
          "name": "D#7",
          "midi": 99,
          "time": 172.04400000000064,
          "velocity": 0.7874015748031497,
          "duration": 2.1217875000000106
        },
        {
          "name": "E7",
          "midi": 100,
          "time": 172.04400000000064,
          "velocity": 0.7874015748031497,
          "duration": 2.1217875000000106
        },
        {
          "name": "F#7",
          "midi": 102,
          "time": 172.04400000000064,
          "velocity": 0.7874015748031497,
          "duration": 2.1217875000000106
        },
        {
          "name": "C4",
          "midi": 60,
          "time": 174.16800000000066,
          "velocity": 0.7874015748031497,
          "duration": 0.043512499999991405
        },
        {
          "name": "F#4",
          "midi": 66,
          "time": 174.16800000000066,
          "velocity": 0.7874015748031497,
          "duration": 0.043512499999991405
        },
        {
          "name": "C5",
          "midi": 72,
          "time": 174.16800000000066,
          "velocity": 0.7874015748031497,
          "duration": 0.043512499999991405
        },
        {
          "name": "F#5",
          "midi": 78,
          "time": 174.16800000000066,
          "velocity": 0.7874015748031497,
          "duration": 0.043512499999991405
        },
        {
          "name": "C6",
          "midi": 84,
          "time": 174.16800000000066,
          "velocity": 0.7874015748031497,
          "duration": 0.043512499999991405
        },
        {
          "name": "F#6",
          "midi": 90,
          "time": 174.16800000000066,
          "velocity": 0.7874015748031497,
          "duration": 0.043512499999991405
        },
        {
          "name": "C7",
          "midi": 96,
          "time": 174.16800000000066,
          "velocity": 0.7874015748031497,
          "duration": 0.043512499999991405
        },
        {
          "name": "F#7",
          "midi": 102,
          "time": 174.16800000000066,
          "velocity": 0.7874015748031497,
          "duration": 0.043512499999991405
        },
        {
          "name": "C5",
          "midi": 72,
          "time": 174.34500000000065,
          "velocity": 0.7874015748031497,
          "duration": 0.043512499999991405
        },
        {
          "name": "F#5",
          "midi": 78,
          "time": 174.34500000000065,
          "velocity": 0.7874015748031497,
          "duration": 0.043512499999991405
        },
        {
          "name": "C6",
          "midi": 84,
          "time": 174.34500000000065,
          "velocity": 0.7874015748031497,
          "duration": 0.3540000000000134
        },
        {
          "name": "F#6",
          "midi": 90,
          "time": 174.34500000000065,
          "velocity": 0.7874015748031497,
          "duration": 0.3540000000000134
        },
        {
          "name": "C7",
          "midi": 96,
          "time": 174.34500000000065,
          "velocity": 0.7874015748031497,
          "duration": 0.35178750000000036
        },
        {
          "name": "F#7",
          "midi": 102,
          "time": 174.34500000000065,
          "velocity": 0.7874015748031497,
          "duration": 0.35178750000000036
        },
        {
          "name": "C7",
          "midi": 96,
          "time": 174.69900000000067,
          "velocity": 0.7874015748031497,
          "duration": 0.043512499999991405
        },
        {
          "name": "F#7",
          "midi": 102,
          "time": 174.69900000000067,
          "velocity": 0.7874015748031497,
          "duration": 0.043512499999991405
        },
        {
          "name": "C#4",
          "midi": 61,
          "time": 174.87600000000066,
          "velocity": 0.7874015748031497,
          "duration": 2.1217875000000106
        },
        {
          "name": "F#4",
          "midi": 66,
          "time": 174.87600000000066,
          "velocity": 0.7874015748031497,
          "duration": 2.1217875000000106
        },
        {
          "name": "C#5",
          "midi": 73,
          "time": 174.87600000000066,
          "velocity": 0.7874015748031497,
          "duration": 2.1217875000000106
        },
        {
          "name": "D5",
          "midi": 74,
          "time": 174.87600000000066,
          "velocity": 0.7874015748031497,
          "duration": 2.1217875000000106
        },
        {
          "name": "F#5",
          "midi": 78,
          "time": 174.87600000000066,
          "velocity": 0.7874015748031497,
          "duration": 2.1217875000000106
        },
        {
          "name": "C#6",
          "midi": 85,
          "time": 174.87600000000066,
          "velocity": 0.7874015748031497,
          "duration": 2.1217875000000106
        },
        {
          "name": "E6",
          "midi": 88,
          "time": 174.87600000000066,
          "velocity": 0.7874015748031497,
          "duration": 2.1217875000000106
        },
        {
          "name": "F#6",
          "midi": 90,
          "time": 174.87600000000066,
          "velocity": 0.7874015748031497,
          "duration": 2.1217875000000106
        },
        {
          "name": "C#7",
          "midi": 97,
          "time": 174.87600000000066,
          "velocity": 0.7874015748031497,
          "duration": 2.1217875000000106
        },
        {
          "name": "D#7",
          "midi": 99,
          "time": 174.87600000000066,
          "velocity": 0.7874015748031497,
          "duration": 2.1217875000000106
        },
        {
          "name": "E7",
          "midi": 100,
          "time": 174.87600000000066,
          "velocity": 0.7874015748031497,
          "duration": 2.1217875000000106
        },
        {
          "name": "F#7",
          "midi": 102,
          "time": 174.87600000000066,
          "velocity": 0.7874015748031497,
          "duration": 2.1217875000000106
        },
        {
          "name": "C4",
          "midi": 60,
          "time": 177.00000000000068,
          "velocity": 0.7874015748031497,
          "duration": 0.04425000000000523
        },
        {
          "name": "F#4",
          "midi": 66,
          "time": 177.00000000000068,
          "velocity": 0.7874015748031497,
          "duration": 0.04425000000000523
        },
        {
          "name": "C5",
          "midi": 72,
          "time": 177.00000000000068,
          "velocity": 0.7874015748031497,
          "duration": 0.04425000000000523
        },
        {
          "name": "F#5",
          "midi": 78,
          "time": 177.00000000000068,
          "velocity": 0.7874015748031497,
          "duration": 0.04425000000000523
        },
        {
          "name": "C6",
          "midi": 84,
          "time": 177.00000000000068,
          "velocity": 0.7874015748031497,
          "duration": 0.04425000000000523
        },
        {
          "name": "F#6",
          "midi": 90,
          "time": 177.00000000000068,
          "velocity": 0.7874015748031497,
          "duration": 0.04425000000000523
        },
        {
          "name": "C7",
          "midi": 96,
          "time": 177.00000000000068,
          "velocity": 0.7874015748031497,
          "duration": 0.04425000000000523
        },
        {
          "name": "F#7",
          "midi": 102,
          "time": 177.00000000000068,
          "velocity": 0.7874015748031497,
          "duration": 0.04425000000000523
        },
        {
          "name": "C5",
          "midi": 72,
          "time": 177.17700000000067,
          "velocity": 0.7874015748031497,
          "duration": 0.04425000000000523
        },
        {
          "name": "F#5",
          "midi": 78,
          "time": 177.17700000000067,
          "velocity": 0.7874015748031497,
          "duration": 0.04425000000000523
        },
        {
          "name": "C6",
          "midi": 84,
          "time": 177.17700000000067,
          "velocity": 0.7874015748031497,
          "duration": 0.3540000000000134
        },
        {
          "name": "F#6",
          "midi": 90,
          "time": 177.17700000000067,
          "velocity": 0.7874015748031497,
          "duration": 0.3540000000000134
        },
        {
          "name": "C7",
          "midi": 96,
          "time": 177.17700000000067,
          "velocity": 0.7874015748031497,
          "duration": 0.35178750000000036
        },
        {
          "name": "F#7",
          "midi": 102,
          "time": 177.17700000000067,
          "velocity": 0.7874015748031497,
          "duration": 0.35178750000000036
        },
        {
          "name": "C7",
          "midi": 96,
          "time": 177.5310000000007,
          "velocity": 0.7874015748031497,
          "duration": 0.04425000000000523
        },
        {
          "name": "F#7",
          "midi": 102,
          "time": 177.5310000000007,
          "velocity": 0.7874015748031497,
          "duration": 0.04425000000000523
        },
        {
          "name": "C4",
          "midi": 60,
          "time": 177.70800000000068,
          "velocity": 0.7874015748031497,
          "duration": 2.1217875000000106
        },
        {
          "name": "F#4",
          "midi": 66,
          "time": 177.70800000000068,
          "velocity": 0.7874015748031497,
          "duration": 2.1217875000000106
        },
        {
          "name": "C5",
          "midi": 72,
          "time": 177.70800000000068,
          "velocity": 0.7874015748031497,
          "duration": 2.1217875000000106
        },
        {
          "name": "C#5",
          "midi": 73,
          "time": 177.70800000000068,
          "velocity": 0.7874015748031497,
          "duration": 2.1217875000000106
        },
        {
          "name": "F#5",
          "midi": 78,
          "time": 177.70800000000068,
          "velocity": 0.7874015748031497,
          "duration": 2.1217875000000106
        },
        {
          "name": "C6",
          "midi": 84,
          "time": 177.70800000000068,
          "velocity": 0.7874015748031497,
          "duration": 2.1217875000000106
        },
        {
          "name": "D#6",
          "midi": 87,
          "time": 177.70800000000068,
          "velocity": 0.7874015748031497,
          "duration": 2.1217875000000106
        },
        {
          "name": "F#6",
          "midi": 90,
          "time": 177.70800000000068,
          "velocity": 0.7874015748031497,
          "duration": 2.1217875000000106
        },
        {
          "name": "C7",
          "midi": 96,
          "time": 177.70800000000068,
          "velocity": 0.7874015748031497,
          "duration": 2.1217875000000106
        },
        {
          "name": "C#7",
          "midi": 97,
          "time": 177.70800000000068,
          "velocity": 0.7874015748031497,
          "duration": 2.1217875000000106
        },
        {
          "name": "D#7",
          "midi": 99,
          "time": 177.70800000000068,
          "velocity": 0.7874015748031497,
          "duration": 2.1217875000000106
        },
        {
          "name": "F#7",
          "midi": 102,
          "time": 177.70800000000068,
          "velocity": 0.7874015748031497,
          "duration": 2.1217875000000106
        },
        {
          "name": "C4",
          "midi": 60,
          "time": 179.8320000000007,
          "velocity": 0.7874015748031497,
          "duration": 0.04425000000000523
        },
        {
          "name": "F#4",
          "midi": 66,
          "time": 179.8320000000007,
          "velocity": 0.7874015748031497,
          "duration": 0.04425000000000523
        },
        {
          "name": "C5",
          "midi": 72,
          "time": 179.8320000000007,
          "velocity": 0.7874015748031497,
          "duration": 0.04425000000000523
        },
        {
          "name": "F#5",
          "midi": 78,
          "time": 179.8320000000007,
          "velocity": 0.7874015748031497,
          "duration": 0.04425000000000523
        },
        {
          "name": "C6",
          "midi": 84,
          "time": 179.8320000000007,
          "velocity": 0.7874015748031497,
          "duration": 0.04425000000000523
        },
        {
          "name": "F#6",
          "midi": 90,
          "time": 179.8320000000007,
          "velocity": 0.7874015748031497,
          "duration": 0.04425000000000523
        },
        {
          "name": "C7",
          "midi": 96,
          "time": 179.8320000000007,
          "velocity": 0.7874015748031497,
          "duration": 0.04425000000000523
        },
        {
          "name": "F#7",
          "midi": 102,
          "time": 179.8320000000007,
          "velocity": 0.7874015748031497,
          "duration": 0.04425000000000523
        },
        {
          "name": "C5",
          "midi": 72,
          "time": 180.0090000000007,
          "velocity": 0.7874015748031497,
          "duration": 0.04425000000000523
        },
        {
          "name": "F#5",
          "midi": 78,
          "time": 180.0090000000007,
          "velocity": 0.7874015748031497,
          "duration": 0.04425000000000523
        },
        {
          "name": "C6",
          "midi": 84,
          "time": 180.0090000000007,
          "velocity": 0.7874015748031497,
          "duration": 0.3532624999999996
        },
        {
          "name": "F#6",
          "midi": 90,
          "time": 180.0090000000007,
          "velocity": 0.7874015748031497,
          "duration": 0.3532624999999996
        },
        {
          "name": "C7",
          "midi": 96,
          "time": 180.0090000000007,
          "velocity": 0.7874015748031497,
          "duration": 0.35178750000000036
        },
        {
          "name": "F#7",
          "midi": 102,
          "time": 180.0090000000007,
          "velocity": 0.7874015748031497,
          "duration": 0.35178750000000036
        },
        {
          "name": "C7",
          "midi": 96,
          "time": 180.3630000000007,
          "velocity": 0.7874015748031497,
          "duration": 0.04425000000000523
        },
        {
          "name": "F#7",
          "midi": 102,
          "time": 180.3630000000007,
          "velocity": 0.7874015748031497,
          "duration": 0.04425000000000523
        },
        {
          "name": "C#4",
          "midi": 61,
          "time": 180.5400000000007,
          "velocity": 0.7874015748031497,
          "duration": 1.7677874999999972
        },
        {
          "name": "F#4",
          "midi": 66,
          "time": 180.5400000000007,
          "velocity": 0.7874015748031497,
          "duration": 1.7677874999999972
        },
        {
          "name": "C5",
          "midi": 72,
          "time": 180.5400000000007,
          "velocity": 0.7874015748031497,
          "duration": 1.7677874999999972
        },
        {
          "name": "D5",
          "midi": 74,
          "time": 180.5400000000007,
          "velocity": 0.7874015748031497,
          "duration": 1.7677874999999972
        },
        {
          "name": "F#5",
          "midi": 78,
          "time": 180.5400000000007,
          "velocity": 0.7874015748031497,
          "duration": 1.7677874999999972
        },
        {
          "name": "C#6",
          "midi": 85,
          "time": 180.5400000000007,
          "velocity": 0.7874015748031497,
          "duration": 1.7677874999999972
        },
        {
          "name": "D#6",
          "midi": 87,
          "time": 180.5400000000007,
          "velocity": 0.7874015748031497,
          "duration": 1.7677874999999972
        },
        {
          "name": "F#6",
          "midi": 90,
          "time": 180.5400000000007,
          "velocity": 0.7874015748031497,
          "duration": 1.7677874999999972
        },
        {
          "name": "C#7",
          "midi": 97,
          "time": 180.5400000000007,
          "velocity": 0.7874015748031497,
          "duration": 1.7677874999999972
        },
        {
          "name": "D7",
          "midi": 98,
          "time": 180.5400000000007,
          "velocity": 0.7874015748031497,
          "duration": 1.7677874999999972
        },
        {
          "name": "D#7",
          "midi": 99,
          "time": 180.5400000000007,
          "velocity": 0.7874015748031497,
          "duration": 1.7677874999999972
        },
        {
          "name": "F#7",
          "midi": 102,
          "time": 180.5400000000007,
          "velocity": 0.7874015748031497,
          "duration": 1.7677874999999972
        },
        {
          "name": "C4",
          "midi": 60,
          "time": 182.3100000000007,
          "velocity": 0.7874015748031497,
          "duration": 0.043512499999991405
        },
        {
          "name": "F#4",
          "midi": 66,
          "time": 182.3100000000007,
          "velocity": 0.7874015748031497,
          "duration": 0.043512499999991405
        },
        {
          "name": "C5",
          "midi": 72,
          "time": 182.3100000000007,
          "velocity": 0.7874015748031497,
          "duration": 0.043512499999991405
        },
        {
          "name": "F#5",
          "midi": 78,
          "time": 182.3100000000007,
          "velocity": 0.7874015748031497,
          "duration": 0.043512499999991405
        },
        {
          "name": "C6",
          "midi": 84,
          "time": 182.3100000000007,
          "velocity": 0.7874015748031497,
          "duration": 0.043512499999991405
        },
        {
          "name": "F#6",
          "midi": 90,
          "time": 182.3100000000007,
          "velocity": 0.7874015748031497,
          "duration": 0.043512499999991405
        },
        {
          "name": "C7",
          "midi": 96,
          "time": 182.3100000000007,
          "velocity": 0.7874015748031497,
          "duration": 0.043512499999991405
        },
        {
          "name": "F#7",
          "midi": 102,
          "time": 182.3100000000007,
          "velocity": 0.7874015748031497,
          "duration": 0.043512499999991405
        },
        {
          "name": "C7",
          "midi": 96,
          "time": 182.4877375000007,
          "velocity": 0.7874015748031497,
          "duration": 0.043512499999991405
        },
        {
          "name": "F#7",
          "midi": 102,
          "time": 182.4877375000007,
          "velocity": 0.7874015748031497,
          "duration": 0.043512499999991405
        },
        {
          "name": "D4",
          "midi": 62,
          "time": 182.66400000000067,
          "velocity": 0.7874015748031497,
          "duration": 0.5287874999999929
        },
        {
          "name": "F#4",
          "midi": 66,
          "time": 182.66400000000067,
          "velocity": 0.7874015748031497,
          "duration": 0.5287874999999929
        },
        {
          "name": "C5",
          "midi": 72,
          "time": 182.66400000000067,
          "velocity": 0.7874015748031497,
          "duration": 0.5287874999999929
        },
        {
          "name": "D5",
          "midi": 74,
          "time": 182.66400000000067,
          "velocity": 0.7874015748031497,
          "duration": 0.5287874999999929
        },
        {
          "name": "F#5",
          "midi": 78,
          "time": 182.66400000000067,
          "velocity": 0.7874015748031497,
          "duration": 0.5287874999999929
        },
        {
          "name": "C#6",
          "midi": 85,
          "time": 182.66400000000067,
          "velocity": 0.7874015748031497,
          "duration": 0.5287874999999929
        },
        {
          "name": "D#6",
          "midi": 87,
          "time": 182.66400000000067,
          "velocity": 0.7874015748031497,
          "duration": 0.5287874999999929
        },
        {
          "name": "F#6",
          "midi": 90,
          "time": 182.66400000000067,
          "velocity": 0.7874015748031497,
          "duration": 0.5287874999999929
        },
        {
          "name": "C#7",
          "midi": 97,
          "time": 182.66400000000067,
          "velocity": 0.7874015748031497,
          "duration": 0.5287874999999929
        },
        {
          "name": "D7",
          "midi": 98,
          "time": 182.66400000000067,
          "velocity": 0.7874015748031497,
          "duration": 0.5287874999999929
        },
        {
          "name": "D#7",
          "midi": 99,
          "time": 182.66400000000067,
          "velocity": 0.7874015748031497,
          "duration": 0.5287874999999929
        },
        {
          "name": "F#7",
          "midi": 102,
          "time": 182.66400000000067,
          "velocity": 0.7874015748031497,
          "duration": 0.5287874999999929
        },
        {
          "name": "C#4",
          "midi": 61,
          "time": 183.19500000000068,
          "velocity": 0.7874015748031497,
          "duration": 0.5287874999999929
        },
        {
          "name": "F#4",
          "midi": 66,
          "time": 183.19500000000068,
          "velocity": 0.7874015748031497,
          "duration": 0.5287874999999929
        },
        {
          "name": "C5",
          "midi": 72,
          "time": 183.19500000000068,
          "velocity": 0.7874015748031497,
          "duration": 0.5287874999999929
        },
        {
          "name": "C#5",
          "midi": 73,
          "time": 183.19500000000068,
          "velocity": 0.7874015748031497,
          "duration": 0.5287874999999929
        },
        {
          "name": "F#5",
          "midi": 78,
          "time": 183.19500000000068,
          "velocity": 0.7874015748031497,
          "duration": 0.5287874999999929
        },
        {
          "name": "C6",
          "midi": 84,
          "time": 183.19500000000068,
          "velocity": 0.7874015748031497,
          "duration": 0.5287874999999929
        },
        {
          "name": "D#6",
          "midi": 87,
          "time": 183.19500000000068,
          "velocity": 0.7874015748031497,
          "duration": 0.5287874999999929
        },
        {
          "name": "F#6",
          "midi": 90,
          "time": 183.19500000000068,
          "velocity": 0.7874015748031497,
          "duration": 0.5287874999999929
        },
        {
          "name": "C7",
          "midi": 96,
          "time": 183.19500000000068,
          "velocity": 0.7874015748031497,
          "duration": 0.5287874999999929
        },
        {
          "name": "D7",
          "midi": 98,
          "time": 183.19500000000068,
          "velocity": 0.7874015748031497,
          "duration": 0.5287874999999929
        },
        {
          "name": "D#7",
          "midi": 99,
          "time": 183.19500000000068,
          "velocity": 0.7874015748031497,
          "duration": 0.5287874999999929
        },
        {
          "name": "F#7",
          "midi": 102,
          "time": 183.19500000000068,
          "velocity": 0.7874015748031497,
          "duration": 0.5287874999999929
        },
        {
          "name": "C4",
          "midi": 60,
          "time": 183.72600000000068,
          "velocity": 0.7874015748031497,
          "duration": 0.5295250000000067
        },
        {
          "name": "F#4",
          "midi": 66,
          "time": 183.72600000000068,
          "velocity": 0.7874015748031497,
          "duration": 0.5295250000000067
        },
        {
          "name": "C5",
          "midi": 72,
          "time": 183.72600000000068,
          "velocity": 0.7874015748031497,
          "duration": 0.5295250000000067
        },
        {
          "name": "F#5",
          "midi": 78,
          "time": 183.72600000000068,
          "velocity": 0.7874015748031497,
          "duration": 0.5295250000000067
        },
        {
          "name": "C6",
          "midi": 84,
          "time": 183.72600000000068,
          "velocity": 0.7874015748031497,
          "duration": 0.5295250000000067
        },
        {
          "name": "D6",
          "midi": 86,
          "time": 183.72600000000068,
          "velocity": 0.7874015748031497,
          "duration": 0.5295250000000067
        },
        {
          "name": "F#6",
          "midi": 90,
          "time": 183.72600000000068,
          "velocity": 0.7874015748031497,
          "duration": 0.5295250000000067
        },
        {
          "name": "C7",
          "midi": 96,
          "time": 183.72600000000068,
          "velocity": 0.7874015748031497,
          "duration": 0.5295250000000067
        },
        {
          "name": "C#7",
          "midi": 97,
          "time": 183.72600000000068,
          "velocity": 0.7874015748031497,
          "duration": 0.5295250000000067
        },
        {
          "name": "D#7",
          "midi": 99,
          "time": 183.72600000000068,
          "velocity": 0.7874015748031497,
          "duration": 0.5295250000000067
        },
        {
          "name": "F#7",
          "midi": 102,
          "time": 183.72600000000068,
          "velocity": 0.7874015748031497,
          "duration": 0.5295250000000067
        },
        {
          "name": "D4",
          "midi": 62,
          "time": 184.2577375000007,
          "velocity": 0.7874015748031497,
          "duration": 0.5280500000000075
        },
        {
          "name": "F#4",
          "midi": 66,
          "time": 184.2577375000007,
          "velocity": 0.7874015748031497,
          "duration": 0.5280500000000075
        },
        {
          "name": "C5",
          "midi": 72,
          "time": 184.2577375000007,
          "velocity": 0.7874015748031497,
          "duration": 0.5280500000000075
        },
        {
          "name": "D5",
          "midi": 74,
          "time": 184.2577375000007,
          "velocity": 0.7874015748031497,
          "duration": 0.5280500000000075
        },
        {
          "name": "F#5",
          "midi": 78,
          "time": 184.2577375000007,
          "velocity": 0.7874015748031497,
          "duration": 0.5280500000000075
        },
        {
          "name": "C#6",
          "midi": 85,
          "time": 184.2577375000007,
          "velocity": 0.7874015748031497,
          "duration": 0.5280500000000075
        },
        {
          "name": "D#6",
          "midi": 87,
          "time": 184.2577375000007,
          "velocity": 0.7874015748031497,
          "duration": 0.5280500000000075
        },
        {
          "name": "F#6",
          "midi": 90,
          "time": 184.2577375000007,
          "velocity": 0.7874015748031497,
          "duration": 0.5280500000000075
        },
        {
          "name": "C#7",
          "midi": 97,
          "time": 184.2577375000007,
          "velocity": 0.7874015748031497,
          "duration": 0.5280500000000075
        },
        {
          "name": "D7",
          "midi": 98,
          "time": 184.2577375000007,
          "velocity": 0.7874015748031497,
          "duration": 0.5280500000000075
        },
        {
          "name": "D#7",
          "midi": 99,
          "time": 184.2577375000007,
          "velocity": 0.7874015748031497,
          "duration": 0.5280500000000075
        },
        {
          "name": "F#7",
          "midi": 102,
          "time": 184.2577375000007,
          "velocity": 0.7874015748031497,
          "duration": 0.5280500000000075
        },
        {
          "name": "C#4",
          "midi": 61,
          "time": 184.78800000000072,
          "velocity": 0.7874015748031497,
          "duration": 0.043512499999991405
        },
        {
          "name": "F#4",
          "midi": 66,
          "time": 184.78800000000072,
          "velocity": 0.7874015748031497,
          "duration": 0.043512499999991405
        },
        {
          "name": "C5",
          "midi": 72,
          "time": 184.78800000000072,
          "velocity": 0.7874015748031497,
          "duration": 0.043512499999991405
        },
        {
          "name": "C#5",
          "midi": 73,
          "time": 184.78800000000072,
          "velocity": 0.7874015748031497,
          "duration": 0.043512499999991405
        },
        {
          "name": "F#5",
          "midi": 78,
          "time": 184.78800000000072,
          "velocity": 0.7874015748031497,
          "duration": 0.043512499999991405
        },
        {
          "name": "C6",
          "midi": 84,
          "time": 184.78800000000072,
          "velocity": 0.7874015748031497,
          "duration": 0.35178750000000036
        },
        {
          "name": "D#6",
          "midi": 87,
          "time": 184.78800000000072,
          "velocity": 0.7874015748031497,
          "duration": 0.35178750000000036
        },
        {
          "name": "F#6",
          "midi": 90,
          "time": 184.78800000000072,
          "velocity": 0.7874015748031497,
          "duration": 0.35178750000000036
        },
        {
          "name": "C7",
          "midi": 96,
          "time": 184.78800000000072,
          "velocity": 0.7874015748031497,
          "duration": 0.35178750000000036
        },
        {
          "name": "D7",
          "midi": 98,
          "time": 184.78800000000072,
          "velocity": 0.7874015748031497,
          "duration": 0.35178750000000036
        },
        {
          "name": "D#7",
          "midi": 99,
          "time": 184.78800000000072,
          "velocity": 0.7874015748031497,
          "duration": 0.35178750000000036
        },
        {
          "name": "F#7",
          "midi": 102,
          "time": 184.78800000000072,
          "velocity": 0.7874015748031497,
          "duration": 0.35178750000000036
        },
        {
          "name": "C4",
          "midi": 60,
          "time": 185.14200000000073,
          "velocity": 0.7874015748031497,
          "duration": 0.043512499999991405
        },
        {
          "name": "F#4",
          "midi": 66,
          "time": 185.14200000000073,
          "velocity": 0.7874015748031497,
          "duration": 0.043512499999991405
        },
        {
          "name": "C5",
          "midi": 72,
          "time": 185.14200000000073,
          "velocity": 0.7874015748031497,
          "duration": 0.043512499999991405
        },
        {
          "name": "F#5",
          "midi": 78,
          "time": 185.14200000000073,
          "velocity": 0.7874015748031497,
          "duration": 0.043512499999991405
        },
        {
          "name": "C6",
          "midi": 84,
          "time": 185.14200000000073,
          "velocity": 0.7874015748031497,
          "duration": 0.35178750000000036
        },
        {
          "name": "D6",
          "midi": 86,
          "time": 185.14200000000073,
          "velocity": 0.7874015748031497,
          "duration": 0.35178750000000036
        },
        {
          "name": "F#6",
          "midi": 90,
          "time": 185.14200000000073,
          "velocity": 0.7874015748031497,
          "duration": 0.35178750000000036
        },
        {
          "name": "C7",
          "midi": 96,
          "time": 185.14200000000073,
          "velocity": 0.7874015748031497,
          "duration": 0.35178750000000036
        },
        {
          "name": "C#7",
          "midi": 97,
          "time": 185.14200000000073,
          "velocity": 0.7874015748031497,
          "duration": 0.35178750000000036
        },
        {
          "name": "D#7",
          "midi": 99,
          "time": 185.14200000000073,
          "velocity": 0.7874015748031497,
          "duration": 0.35178750000000036
        },
        {
          "name": "F#7",
          "midi": 102,
          "time": 185.14200000000073,
          "velocity": 0.7874015748031497,
          "duration": 0.35178750000000036
        },
        {
          "name": "C4",
          "midi": 60,
          "time": 185.49600000000075,
          "velocity": 0.7874015748031497,
          "duration": 0.043512499999991405
        },
        {
          "name": "F#4",
          "midi": 66,
          "time": 185.49600000000075,
          "velocity": 0.7874015748031497,
          "duration": 0.043512499999991405
        },
        {
          "name": "C5",
          "midi": 72,
          "time": 185.49600000000075,
          "velocity": 0.7874015748031497,
          "duration": 0.043512499999991405
        },
        {
          "name": "F#5",
          "midi": 78,
          "time": 185.49600000000075,
          "velocity": 0.7874015748031497,
          "duration": 0.043512499999991405
        },
        {
          "name": "C6",
          "midi": 84,
          "time": 185.49600000000075,
          "velocity": 0.7874015748031497,
          "duration": 0.043512499999991405
        },
        {
          "name": "F#6",
          "midi": 90,
          "time": 185.49600000000075,
          "velocity": 0.7874015748031497,
          "duration": 0.043512499999991405
        },
        {
          "name": "C7",
          "midi": 96,
          "time": 185.49600000000075,
          "velocity": 0.7874015748031497,
          "duration": 0.043512499999991405
        },
        {
          "name": "F#7",
          "midi": 102,
          "time": 185.49600000000075,
          "velocity": 0.7874015748031497,
          "duration": 0.043512499999991405
        },
        {
          "name": "C5",
          "midi": 72,
          "time": 185.67300000000074,
          "velocity": 0.7874015748031497,
          "duration": 0.043512499999991405
        },
        {
          "name": "F#5",
          "midi": 78,
          "time": 185.67300000000074,
          "velocity": 0.7874015748031497,
          "duration": 0.043512499999991405
        },
        {
          "name": "C6",
          "midi": 84,
          "time": 185.67300000000074,
          "velocity": 0.7874015748031497,
          "duration": 0.3532624999999996
        },
        {
          "name": "F#6",
          "midi": 90,
          "time": 185.67300000000074,
          "velocity": 0.7874015748031497,
          "duration": 0.3532624999999996
        },
        {
          "name": "C7",
          "midi": 96,
          "time": 185.67300000000074,
          "velocity": 0.7874015748031497,
          "duration": 0.35178750000000036
        },
        {
          "name": "F#7",
          "midi": 102,
          "time": 185.67300000000074,
          "velocity": 0.7874015748031497,
          "duration": 0.35178750000000036
        },
        {
          "name": "C7",
          "midi": 96,
          "time": 186.02700000000075,
          "velocity": 0.7874015748031497,
          "duration": 0.043512499999991405
        },
        {
          "name": "F#7",
          "midi": 102,
          "time": 186.02700000000075,
          "velocity": 0.7874015748031497,
          "duration": 0.043512499999991405
        },
        {
          "name": "D4",
          "midi": 62,
          "time": 186.20400000000075,
          "velocity": 0.7874015748031497,
          "duration": 0.707262500000013
        },
        {
          "name": "F#4",
          "midi": 66,
          "time": 186.20400000000075,
          "velocity": 0.7874015748031497,
          "duration": 0.707262500000013
        },
        {
          "name": "D5",
          "midi": 74,
          "time": 186.20400000000075,
          "velocity": 0.7874015748031497,
          "duration": 0.707262500000013
        },
        {
          "name": "D#5",
          "midi": 75,
          "time": 186.20400000000075,
          "velocity": 0.7874015748031497,
          "duration": 0.707262500000013
        },
        {
          "name": "F#5",
          "midi": 78,
          "time": 186.20400000000075,
          "velocity": 0.7874015748031497,
          "duration": 0.707262500000013
        },
        {
          "name": "D6",
          "midi": 86,
          "time": 186.20400000000075,
          "velocity": 0.7874015748031497,
          "duration": 0.707262500000013
        },
        {
          "name": "D#6",
          "midi": 87,
          "time": 186.20400000000075,
          "velocity": 0.7874015748031497,
          "duration": 0.707262500000013
        },
        {
          "name": "F#6",
          "midi": 90,
          "time": 186.20400000000075,
          "velocity": 0.7874015748031497,
          "duration": 0.707262500000013
        },
        {
          "name": "D7",
          "midi": 98,
          "time": 186.20400000000075,
          "velocity": 0.7874015748031497,
          "duration": 0.7057875000000138
        },
        {
          "name": "D#7",
          "midi": 99,
          "time": 186.20400000000075,
          "velocity": 0.7874015748031497,
          "duration": 0.7057875000000138
        },
        {
          "name": "F#7",
          "midi": 102,
          "time": 186.20400000000075,
          "velocity": 0.7874015748031497,
          "duration": 0.7057875000000138
        },
        {
          "name": "D7",
          "midi": 98,
          "time": 186.91200000000077,
          "velocity": 0.7874015748031497,
          "duration": 0.043512499999991405
        },
        {
          "name": "F#7",
          "midi": 102,
          "time": 186.91200000000077,
          "velocity": 0.7874015748031497,
          "duration": 0.043512499999991405
        },
        {
          "name": "D4",
          "midi": 62,
          "time": 187.08826250000075,
          "velocity": 0.7874015748031497,
          "duration": 0.5295250000000067
        },
        {
          "name": "F#4",
          "midi": 66,
          "time": 187.08826250000075,
          "velocity": 0.7874015748031497,
          "duration": 0.5295250000000067
        },
        {
          "name": "D5",
          "midi": 74,
          "time": 187.08826250000075,
          "velocity": 0.7874015748031497,
          "duration": 0.5295250000000067
        },
        {
          "name": "D#5",
          "midi": 75,
          "time": 187.08826250000075,
          "velocity": 0.7874015748031497,
          "duration": 0.5295250000000067
        },
        {
          "name": "F#5",
          "midi": 78,
          "time": 187.08826250000075,
          "velocity": 0.7874015748031497,
          "duration": 0.5295250000000067
        },
        {
          "name": "D6",
          "midi": 86,
          "time": 187.08826250000075,
          "velocity": 0.7874015748031497,
          "duration": 0.5295250000000067
        },
        {
          "name": "D#6",
          "midi": 87,
          "time": 187.08826250000075,
          "velocity": 0.7874015748031497,
          "duration": 0.5295250000000067
        },
        {
          "name": "F#6",
          "midi": 90,
          "time": 187.08826250000075,
          "velocity": 0.7874015748031497,
          "duration": 0.5295250000000067
        },
        {
          "name": "D7",
          "midi": 98,
          "time": 187.08826250000075,
          "velocity": 0.7874015748031497,
          "duration": 0.5295250000000067
        },
        {
          "name": "D#7",
          "midi": 99,
          "time": 187.08826250000075,
          "velocity": 0.7874015748031497,
          "duration": 0.5295250000000067
        },
        {
          "name": "F#7",
          "midi": 102,
          "time": 187.08826250000075,
          "velocity": 0.7874015748031497,
          "duration": 0.5295250000000067
        },
        {
          "name": "D4",
          "midi": 62,
          "time": 187.62000000000077,
          "velocity": 0.7874015748031497,
          "duration": 0.043512499999991405
        },
        {
          "name": "F#4",
          "midi": 66,
          "time": 187.62000000000077,
          "velocity": 0.7874015748031497,
          "duration": 0.043512499999991405
        },
        {
          "name": "D5",
          "midi": 74,
          "time": 187.62000000000077,
          "velocity": 0.7874015748031497,
          "duration": 0.043512499999991405
        },
        {
          "name": "D#5",
          "midi": 75,
          "time": 187.62000000000077,
          "velocity": 0.7874015748031497,
          "duration": 0.043512499999991405
        },
        {
          "name": "F#5",
          "midi": 78,
          "time": 187.62000000000077,
          "velocity": 0.7874015748031497,
          "duration": 0.043512499999991405
        },
        {
          "name": "D6",
          "midi": 86,
          "time": 187.62000000000077,
          "velocity": 0.7874015748031497,
          "duration": 0.043512499999991405
        },
        {
          "name": "D#6",
          "midi": 87,
          "time": 187.62000000000077,
          "velocity": 0.7874015748031497,
          "duration": 0.043512499999991405
        },
        {
          "name": "F#6",
          "midi": 90,
          "time": 187.62000000000077,
          "velocity": 0.7874015748031497,
          "duration": 0.043512499999991405
        },
        {
          "name": "D7",
          "midi": 98,
          "time": 187.62000000000077,
          "velocity": 0.7874015748031497,
          "duration": 0.043512499999991405
        },
        {
          "name": "D#7",
          "midi": 99,
          "time": 187.62000000000077,
          "velocity": 0.7874015748031497,
          "duration": 0.043512499999991405
        },
        {
          "name": "F#7",
          "midi": 102,
          "time": 187.62000000000077,
          "velocity": 0.7874015748031497,
          "duration": 0.043512499999991405
        },
        {
          "name": "E6",
          "midi": 88,
          "time": 187.79626250000075,
          "velocity": 0.7874015748031497,
          "duration": 0.043512499999991405
        },
        {
          "name": "F6",
          "midi": 89,
          "time": 187.79626250000075,
          "velocity": 0.7874015748031497,
          "duration": 0.043512499999991405
        },
        {
          "name": "D7",
          "midi": 98,
          "time": 187.79626250000075,
          "velocity": 0.7874015748031497,
          "duration": 0.043512499999991405
        },
        {
          "name": "E7",
          "midi": 100,
          "time": 187.79626250000075,
          "velocity": 0.7874015748031497,
          "duration": 0.043512499999991405
        },
        {
          "name": "F#7",
          "midi": 102,
          "time": 187.79626250000075,
          "velocity": 0.7874015748031497,
          "duration": 0.043512499999991405
        },
        {
          "name": "D4",
          "midi": 62,
          "time": 187.97400000000073,
          "velocity": 0.7874015748031497,
          "duration": 0.043512499999991405
        },
        {
          "name": "F#4",
          "midi": 66,
          "time": 187.97400000000073,
          "velocity": 0.7874015748031497,
          "duration": 0.043512499999991405
        },
        {
          "name": "D5",
          "midi": 74,
          "time": 187.97400000000073,
          "velocity": 0.7874015748031497,
          "duration": 0.043512499999991405
        },
        {
          "name": "D#5",
          "midi": 75,
          "time": 187.97400000000073,
          "velocity": 0.7874015748031497,
          "duration": 0.043512499999991405
        },
        {
          "name": "F#5",
          "midi": 78,
          "time": 187.97400000000073,
          "velocity": 0.7874015748031497,
          "duration": 0.043512499999991405
        },
        {
          "name": "D6",
          "midi": 86,
          "time": 187.97400000000073,
          "velocity": 0.7874015748031497,
          "duration": 0.35178750000000036
        },
        {
          "name": "D#6",
          "midi": 87,
          "time": 187.97400000000073,
          "velocity": 0.7874015748031497,
          "duration": 0.35178750000000036
        },
        {
          "name": "F#6",
          "midi": 90,
          "time": 187.97400000000073,
          "velocity": 0.7874015748031497,
          "duration": 0.35178750000000036
        },
        {
          "name": "D7",
          "midi": 98,
          "time": 187.97400000000073,
          "velocity": 0.7874015748031497,
          "duration": 0.35178750000000036
        },
        {
          "name": "D#7",
          "midi": 99,
          "time": 187.97400000000073,
          "velocity": 0.7874015748031497,
          "duration": 0.35178750000000036
        },
        {
          "name": "F#7",
          "midi": 102,
          "time": 187.97400000000073,
          "velocity": 0.7874015748031497,
          "duration": 0.35178750000000036
        },
        {
          "name": "C4",
          "midi": 60,
          "time": 188.32800000000074,
          "velocity": 0.7874015748031497,
          "duration": 0.043512499999991405
        },
        {
          "name": "F#4",
          "midi": 66,
          "time": 188.32800000000074,
          "velocity": 0.7874015748031497,
          "duration": 0.043512499999991405
        },
        {
          "name": "C5",
          "midi": 72,
          "time": 188.32800000000074,
          "velocity": 0.7874015748031497,
          "duration": 0.043512499999991405
        },
        {
          "name": "F#5",
          "midi": 78,
          "time": 188.32800000000074,
          "velocity": 0.7874015748031497,
          "duration": 0.043512499999991405
        },
        {
          "name": "C6",
          "midi": 84,
          "time": 188.32800000000074,
          "velocity": 0.7874015748031497,
          "duration": 0.043512499999991405
        },
        {
          "name": "F#6",
          "midi": 90,
          "time": 188.32800000000074,
          "velocity": 0.7874015748031497,
          "duration": 0.043512499999991405
        },
        {
          "name": "C7",
          "midi": 96,
          "time": 188.32800000000074,
          "velocity": 0.7874015748031497,
          "duration": 0.043512499999991405
        },
        {
          "name": "F#7",
          "midi": 102,
          "time": 188.32800000000074,
          "velocity": 0.7874015748031497,
          "duration": 0.043512499999991405
        },
        {
          "name": "C5",
          "midi": 72,
          "time": 188.50426250000072,
          "velocity": 0.7874015748031497,
          "duration": 0.04425000000000523
        },
        {
          "name": "F#5",
          "midi": 78,
          "time": 188.50426250000072,
          "velocity": 0.7874015748031497,
          "duration": 0.04425000000000523
        },
        {
          "name": "C6",
          "midi": 84,
          "time": 188.50426250000072,
          "velocity": 0.7874015748031497,
          "duration": 0.3540000000000134
        },
        {
          "name": "F#6",
          "midi": 90,
          "time": 188.50426250000072,
          "velocity": 0.7874015748031497,
          "duration": 0.3540000000000134
        },
        {
          "name": "C7",
          "midi": 96,
          "time": 188.50426250000072,
          "velocity": 0.7874015748031497,
          "duration": 0.35178750000000036
        },
        {
          "name": "F#7",
          "midi": 102,
          "time": 188.50426250000072,
          "velocity": 0.7874015748031497,
          "duration": 0.35178750000000036
        },
        {
          "name": "C7",
          "midi": 96,
          "time": 188.85826250000073,
          "velocity": 0.7874015748031497,
          "duration": 0.04425000000000523
        },
        {
          "name": "F#7",
          "midi": 102,
          "time": 188.85826250000073,
          "velocity": 0.7874015748031497,
          "duration": 0.04425000000000523
        },
        {
          "name": "C#4",
          "midi": 61,
          "time": 189.03600000000074,
          "velocity": 0.7874015748031497,
          "duration": 0.8835249999999917
        },
        {
          "name": "F#4",
          "midi": 66,
          "time": 189.03600000000074,
          "velocity": 0.7874015748031497,
          "duration": 0.8835249999999917
        },
        {
          "name": "C#5",
          "midi": 73,
          "time": 189.03600000000074,
          "velocity": 0.7874015748031497,
          "duration": 0.8835249999999917
        },
        {
          "name": "D5",
          "midi": 74,
          "time": 189.03600000000074,
          "velocity": 0.7874015748031497,
          "duration": 0.8835249999999917
        },
        {
          "name": "F#5",
          "midi": 78,
          "time": 189.03600000000074,
          "velocity": 0.7874015748031497,
          "duration": 0.8835249999999917
        },
        {
          "name": "C#6",
          "midi": 85,
          "time": 189.03600000000074,
          "velocity": 0.7874015748031497,
          "duration": 0.8835249999999917
        },
        {
          "name": "E6",
          "midi": 88,
          "time": 189.03600000000074,
          "velocity": 0.7874015748031497,
          "duration": 0.8835249999999917
        },
        {
          "name": "F#6",
          "midi": 90,
          "time": 189.03600000000074,
          "velocity": 0.7874015748031497,
          "duration": 0.8835249999999917
        },
        {
          "name": "C#7",
          "midi": 97,
          "time": 189.03600000000074,
          "velocity": 0.7874015748031497,
          "duration": 0.8835249999999917
        },
        {
          "name": "D#7",
          "midi": 99,
          "time": 189.03600000000074,
          "velocity": 0.7874015748031497,
          "duration": 0.8835249999999917
        },
        {
          "name": "E7",
          "midi": 100,
          "time": 189.03600000000074,
          "velocity": 0.7874015748031497,
          "duration": 0.8835249999999917
        },
        {
          "name": "F#7",
          "midi": 102,
          "time": 189.03600000000074,
          "velocity": 0.7874015748031497,
          "duration": 0.8835249999999917
        },
        {
          "name": "C#4",
          "midi": 61,
          "time": 189.92173750000075,
          "velocity": 0.7874015748031497,
          "duration": 0.5280500000000075
        },
        {
          "name": "F#4",
          "midi": 66,
          "time": 189.92173750000075,
          "velocity": 0.7874015748031497,
          "duration": 0.5280500000000075
        },
        {
          "name": "C#5",
          "midi": 73,
          "time": 189.92173750000075,
          "velocity": 0.7874015748031497,
          "duration": 0.5280500000000075
        },
        {
          "name": "F#5",
          "midi": 78,
          "time": 189.92173750000075,
          "velocity": 0.7874015748031497,
          "duration": 0.5280500000000075
        },
        {
          "name": "C#6",
          "midi": 85,
          "time": 189.92173750000075,
          "velocity": 0.7874015748031497,
          "duration": 0.5280500000000075
        },
        {
          "name": "D#6",
          "midi": 87,
          "time": 189.92173750000075,
          "velocity": 0.7874015748031497,
          "duration": 0.5280500000000075
        },
        {
          "name": "F#6",
          "midi": 90,
          "time": 189.92173750000075,
          "velocity": 0.7874015748031497,
          "duration": 0.5280500000000075
        },
        {
          "name": "C#7",
          "midi": 97,
          "time": 189.92173750000075,
          "velocity": 0.7874015748031497,
          "duration": 0.5280500000000075
        },
        {
          "name": "D7",
          "midi": 98,
          "time": 189.92173750000075,
          "velocity": 0.7874015748031497,
          "duration": 0.5280500000000075
        },
        {
          "name": "E7",
          "midi": 100,
          "time": 189.92173750000075,
          "velocity": 0.7874015748031497,
          "duration": 0.5280500000000075
        },
        {
          "name": "F#7",
          "midi": 102,
          "time": 189.92173750000075,
          "velocity": 0.7874015748031497,
          "duration": 0.5280500000000075
        },
        {
          "name": "C#4",
          "midi": 61,
          "time": 190.45200000000077,
          "velocity": 0.7874015748031497,
          "duration": 0.7057875000000138
        },
        {
          "name": "F#4",
          "midi": 66,
          "time": 190.45200000000077,
          "velocity": 0.7874015748031497,
          "duration": 0.7057875000000138
        },
        {
          "name": "C#5",
          "midi": 73,
          "time": 190.45200000000077,
          "velocity": 0.7874015748031497,
          "duration": 0.7057875000000138
        },
        {
          "name": "F#5",
          "midi": 78,
          "time": 190.45200000000077,
          "velocity": 0.7874015748031497,
          "duration": 0.7057875000000138
        },
        {
          "name": "C#6",
          "midi": 85,
          "time": 190.45200000000077,
          "velocity": 0.7874015748031497,
          "duration": 0.7057875000000138
        },
        {
          "name": "D#6",
          "midi": 87,
          "time": 190.45200000000077,
          "velocity": 0.7874015748031497,
          "duration": 0.7057875000000138
        },
        {
          "name": "F#6",
          "midi": 90,
          "time": 190.45200000000077,
          "velocity": 0.7874015748031497,
          "duration": 0.7057875000000138
        },
        {
          "name": "C#7",
          "midi": 97,
          "time": 190.45200000000077,
          "velocity": 0.7874015748031497,
          "duration": 0.7057875000000138
        },
        {
          "name": "D7",
          "midi": 98,
          "time": 190.45200000000077,
          "velocity": 0.7874015748031497,
          "duration": 0.7057875000000138
        },
        {
          "name": "E7",
          "midi": 100,
          "time": 190.45200000000077,
          "velocity": 0.7874015748031497,
          "duration": 0.7057875000000138
        },
        {
          "name": "F#7",
          "midi": 102,
          "time": 190.45200000000077,
          "velocity": 0.7874015748031497,
          "duration": 0.7057875000000138
        },
        {
          "name": "G#8",
          "midi": 116,
          "time": 191.1600000000008,
          "velocity": 0.7874015748031497,
          "duration": 5.708250000000106
        },
        {
          "name": "C4",
          "midi": 60,
          "time": 191.1600000000008,
          "velocity": 0.7874015748031497,
          "duration": 0.043512499999991405
        },
        {
          "name": "F#4",
          "midi": 66,
          "time": 191.1600000000008,
          "velocity": 0.7874015748031497,
          "duration": 0.043512499999991405
        },
        {
          "name": "C5",
          "midi": 72,
          "time": 191.1600000000008,
          "velocity": 0.7874015748031497,
          "duration": 0.043512499999991405
        },
        {
          "name": "F#5",
          "midi": 78,
          "time": 191.1600000000008,
          "velocity": 0.7874015748031497,
          "duration": 0.043512499999991405
        },
        {
          "name": "C6",
          "midi": 84,
          "time": 191.1600000000008,
          "velocity": 0.7874015748031497,
          "duration": 0.043512499999991405
        },
        {
          "name": "F#6",
          "midi": 90,
          "time": 191.1600000000008,
          "velocity": 0.7874015748031497,
          "duration": 0.043512499999991405
        },
        {
          "name": "C7",
          "midi": 96,
          "time": 191.1600000000008,
          "velocity": 0.7874015748031497,
          "duration": 0.043512499999991405
        },
        {
          "name": "F#7",
          "midi": 102,
          "time": 191.1600000000008,
          "velocity": 0.7874015748031497,
          "duration": 0.043512499999991405
        },
        {
          "name": "C5",
          "midi": 72,
          "time": 191.33700000000078,
          "velocity": 0.7874015748031497,
          "duration": 0.043512499999991405
        },
        {
          "name": "F#5",
          "midi": 78,
          "time": 191.33700000000078,
          "velocity": 0.7874015748031497,
          "duration": 0.043512499999991405
        },
        {
          "name": "C6",
          "midi": 84,
          "time": 191.33700000000078,
          "velocity": 0.7874015748031497,
          "duration": 0.35178750000000036
        },
        {
          "name": "F#6",
          "midi": 90,
          "time": 191.33700000000078,
          "velocity": 0.7874015748031497,
          "duration": 0.35178750000000036
        },
        {
          "name": "C7",
          "midi": 96,
          "time": 191.33700000000078,
          "velocity": 0.7874015748031497,
          "duration": 0.35178750000000036
        },
        {
          "name": "F#7",
          "midi": 102,
          "time": 191.33700000000078,
          "velocity": 0.7874015748031497,
          "duration": 0.35178750000000036
        },
        {
          "name": "C6",
          "midi": 84,
          "time": 191.69026250000078,
          "velocity": 0.7874015748031497,
          "duration": 0.043512499999991405
        },
        {
          "name": "D#6",
          "midi": 87,
          "time": 191.69026250000078,
          "velocity": 0.7874015748031497,
          "duration": 0.043512499999991405
        },
        {
          "name": "F#6",
          "midi": 90,
          "time": 191.69026250000078,
          "velocity": 0.7874015748031497,
          "duration": 0.043512499999991405
        },
        {
          "name": "C7",
          "midi": 96,
          "time": 191.69026250000078,
          "velocity": 0.7874015748031497,
          "duration": 0.043512499999991405
        },
        {
          "name": "C#7",
          "midi": 97,
          "time": 191.69026250000078,
          "velocity": 0.7874015748031497,
          "duration": 0.043512499999991405
        },
        {
          "name": "D#7",
          "midi": 99,
          "time": 191.69026250000078,
          "velocity": 0.7874015748031497,
          "duration": 0.043512499999991405
        },
        {
          "name": "F#7",
          "midi": 102,
          "time": 191.69026250000078,
          "velocity": 0.7874015748031497,
          "duration": 0.043512499999991405
        },
        {
          "name": "C7",
          "midi": 96,
          "time": 191.77950000000078,
          "velocity": 0.7874015748031497,
          "duration": 0.042775000000006
        },
        {
          "name": "C#7",
          "midi": 97,
          "time": 191.77950000000078,
          "velocity": 0.7874015748031497,
          "duration": 0.042775000000006
        },
        {
          "name": "D#7",
          "midi": 99,
          "time": 191.77950000000078,
          "velocity": 0.7874015748031497,
          "duration": 0.042775000000006
        },
        {
          "name": "F#7",
          "midi": 102,
          "time": 191.77950000000078,
          "velocity": 0.7874015748031497,
          "duration": 0.042775000000006
        },
        {
          "name": "C4",
          "midi": 60,
          "time": 191.8680000000008,
          "velocity": 0.7874015748031497,
          "duration": 0.8835249999999917
        },
        {
          "name": "F#4",
          "midi": 66,
          "time": 191.8680000000008,
          "velocity": 0.7874015748031497,
          "duration": 0.8835249999999917
        },
        {
          "name": "C5",
          "midi": 72,
          "time": 191.8680000000008,
          "velocity": 0.7874015748031497,
          "duration": 0.8835249999999917
        },
        {
          "name": "D5",
          "midi": 74,
          "time": 191.8680000000008,
          "velocity": 0.7874015748031497,
          "duration": 0.8835249999999917
        },
        {
          "name": "F#5",
          "midi": 78,
          "time": 191.8680000000008,
          "velocity": 0.7874015748031497,
          "duration": 0.8835249999999917
        },
        {
          "name": "C6",
          "midi": 84,
          "time": 191.8680000000008,
          "velocity": 0.7874015748031497,
          "duration": 0.8835249999999917
        },
        {
          "name": "D#6",
          "midi": 87,
          "time": 191.8680000000008,
          "velocity": 0.7874015748031497,
          "duration": 0.8835249999999917
        },
        {
          "name": "F#6",
          "midi": 90,
          "time": 191.8680000000008,
          "velocity": 0.7874015748031497,
          "duration": 0.8835249999999917
        },
        {
          "name": "C7",
          "midi": 96,
          "time": 191.8680000000008,
          "velocity": 0.7874015748031497,
          "duration": 0.8835249999999917
        },
        {
          "name": "C#7",
          "midi": 97,
          "time": 191.8680000000008,
          "velocity": 0.7874015748031497,
          "duration": 0.8835249999999917
        },
        {
          "name": "D#7",
          "midi": 99,
          "time": 191.8680000000008,
          "velocity": 0.7874015748031497,
          "duration": 0.8835249999999917
        },
        {
          "name": "F#7",
          "midi": 102,
          "time": 191.8680000000008,
          "velocity": 0.7874015748031497,
          "duration": 0.8835249999999917
        },
        {
          "name": "C#4",
          "midi": 61,
          "time": 192.7537375000008,
          "velocity": 0.7874015748031497,
          "duration": 0.5280500000000075
        },
        {
          "name": "F#4",
          "midi": 66,
          "time": 192.7537375000008,
          "velocity": 0.7874015748031497,
          "duration": 0.5280500000000075
        },
        {
          "name": "C5",
          "midi": 72,
          "time": 192.7537375000008,
          "velocity": 0.7874015748031497,
          "duration": 0.5280500000000075
        },
        {
          "name": "C#5",
          "midi": 73,
          "time": 192.7537375000008,
          "velocity": 0.7874015748031497,
          "duration": 0.5280500000000075
        },
        {
          "name": "F#5",
          "midi": 78,
          "time": 192.7537375000008,
          "velocity": 0.7874015748031497,
          "duration": 0.5280500000000075
        },
        {
          "name": "C6",
          "midi": 84,
          "time": 192.7537375000008,
          "velocity": 0.7874015748031497,
          "duration": 0.5280500000000075
        },
        {
          "name": "D6",
          "midi": 86,
          "time": 192.7537375000008,
          "velocity": 0.7874015748031497,
          "duration": 0.5280500000000075
        },
        {
          "name": "F#6",
          "midi": 90,
          "time": 192.7537375000008,
          "velocity": 0.7874015748031497,
          "duration": 0.5280500000000075
        },
        {
          "name": "C7",
          "midi": 96,
          "time": 192.7537375000008,
          "velocity": 0.7874015748031497,
          "duration": 0.5280500000000075
        },
        {
          "name": "D7",
          "midi": 98,
          "time": 192.7537375000008,
          "velocity": 0.7874015748031497,
          "duration": 0.5280500000000075
        },
        {
          "name": "F#7",
          "midi": 102,
          "time": 192.7537375000008,
          "velocity": 0.7874015748031497,
          "duration": 0.5280500000000075
        },
        {
          "name": "C4",
          "midi": 60,
          "time": 193.28400000000082,
          "velocity": 0.7874015748031497,
          "duration": 0.04425000000000523
        },
        {
          "name": "F#4",
          "midi": 66,
          "time": 193.28400000000082,
          "velocity": 0.7874015748031497,
          "duration": 0.04425000000000523
        },
        {
          "name": "C5",
          "midi": 72,
          "time": 193.28400000000082,
          "velocity": 0.7874015748031497,
          "duration": 0.04425000000000523
        },
        {
          "name": "F#5",
          "midi": 78,
          "time": 193.28400000000082,
          "velocity": 0.7874015748031497,
          "duration": 0.04425000000000523
        },
        {
          "name": "C6",
          "midi": 84,
          "time": 193.28400000000082,
          "velocity": 0.7874015748031497,
          "duration": 0.35178750000000036
        },
        {
          "name": "C#6",
          "midi": 85,
          "time": 193.28400000000082,
          "velocity": 0.7874015748031497,
          "duration": 0.35178750000000036
        },
        {
          "name": "F#6",
          "midi": 90,
          "time": 193.28400000000082,
          "velocity": 0.7874015748031497,
          "duration": 0.35178750000000036
        },
        {
          "name": "C7",
          "midi": 96,
          "time": 193.28400000000082,
          "velocity": 0.7874015748031497,
          "duration": 0.35178750000000036
        },
        {
          "name": "C#7",
          "midi": 97,
          "time": 193.28400000000082,
          "velocity": 0.7874015748031497,
          "duration": 0.35178750000000036
        },
        {
          "name": "F#7",
          "midi": 102,
          "time": 193.28400000000082,
          "velocity": 0.7874015748031497,
          "duration": 0.35178750000000036
        },
        {
          "name": "C4",
          "midi": 60,
          "time": 193.63800000000083,
          "velocity": 0.7874015748031497,
          "duration": 0.043512499999991405
        },
        {
          "name": "F#4",
          "midi": 66,
          "time": 193.63800000000083,
          "velocity": 0.7874015748031497,
          "duration": 0.043512499999991405
        },
        {
          "name": "C5",
          "midi": 72,
          "time": 193.63800000000083,
          "velocity": 0.7874015748031497,
          "duration": 0.043512499999991405
        },
        {
          "name": "F#5",
          "midi": 78,
          "time": 193.63800000000083,
          "velocity": 0.7874015748031497,
          "duration": 0.043512499999991405
        },
        {
          "name": "C6",
          "midi": 84,
          "time": 193.63800000000083,
          "velocity": 0.7874015748031497,
          "duration": 0.043512499999991405
        },
        {
          "name": "F#6",
          "midi": 90,
          "time": 193.63800000000083,
          "velocity": 0.7874015748031497,
          "duration": 0.043512499999991405
        },
        {
          "name": "C7",
          "midi": 96,
          "time": 193.63800000000083,
          "velocity": 0.7874015748031497,
          "duration": 0.043512499999991405
        },
        {
          "name": "F#7",
          "midi": 102,
          "time": 193.63800000000083,
          "velocity": 0.7874015748031497,
          "duration": 0.043512499999991405
        },
        {
          "name": "C7",
          "midi": 96,
          "time": 193.81500000000082,
          "velocity": 0.7874015748031497,
          "duration": 0.043512499999991405
        },
        {
          "name": "F#7",
          "midi": 102,
          "time": 193.81500000000082,
          "velocity": 0.7874015748031497,
          "duration": 0.043512499999991405
        },
        {
          "name": "D4",
          "midi": 62,
          "time": 193.99200000000081,
          "velocity": 0.7874015748031497,
          "duration": 0.5295250000000067
        },
        {
          "name": "F#4",
          "midi": 66,
          "time": 193.99200000000081,
          "velocity": 0.7874015748031497,
          "duration": 0.5295250000000067
        },
        {
          "name": "C5",
          "midi": 72,
          "time": 193.99200000000081,
          "velocity": 0.7874015748031497,
          "duration": 0.5295250000000067
        },
        {
          "name": "D5",
          "midi": 74,
          "time": 193.99200000000081,
          "velocity": 0.7874015748031497,
          "duration": 0.5295250000000067
        },
        {
          "name": "F#5",
          "midi": 78,
          "time": 193.99200000000081,
          "velocity": 0.7874015748031497,
          "duration": 0.5295250000000067
        },
        {
          "name": "C#6",
          "midi": 85,
          "time": 193.99200000000081,
          "velocity": 0.7874015748031497,
          "duration": 0.5295250000000067
        },
        {
          "name": "D#6",
          "midi": 87,
          "time": 193.99200000000081,
          "velocity": 0.7874015748031497,
          "duration": 0.5295250000000067
        },
        {
          "name": "F#6",
          "midi": 90,
          "time": 193.99200000000081,
          "velocity": 0.7874015748031497,
          "duration": 0.5295250000000067
        },
        {
          "name": "C#7",
          "midi": 97,
          "time": 193.99200000000081,
          "velocity": 0.7874015748031497,
          "duration": 0.5295250000000067
        },
        {
          "name": "D7",
          "midi": 98,
          "time": 193.99200000000081,
          "velocity": 0.7874015748031497,
          "duration": 0.5295250000000067
        },
        {
          "name": "D#7",
          "midi": 99,
          "time": 193.99200000000081,
          "velocity": 0.7874015748031497,
          "duration": 0.5295250000000067
        },
        {
          "name": "F#7",
          "midi": 102,
          "time": 193.99200000000081,
          "velocity": 0.7874015748031497,
          "duration": 0.5295250000000067
        },
        {
          "name": "C#4",
          "midi": 61,
          "time": 194.52373750000083,
          "velocity": 0.7874015748031497,
          "duration": 0.5280500000000075
        },
        {
          "name": "F#4",
          "midi": 66,
          "time": 194.52373750000083,
          "velocity": 0.7874015748031497,
          "duration": 0.5280500000000075
        },
        {
          "name": "C5",
          "midi": 72,
          "time": 194.52373750000083,
          "velocity": 0.7874015748031497,
          "duration": 0.5280500000000075
        },
        {
          "name": "C#5",
          "midi": 73,
          "time": 194.52373750000083,
          "velocity": 0.7874015748031497,
          "duration": 0.5280500000000075
        },
        {
          "name": "F#5",
          "midi": 78,
          "time": 194.52373750000083,
          "velocity": 0.7874015748031497,
          "duration": 0.5280500000000075
        },
        {
          "name": "C6",
          "midi": 84,
          "time": 194.52373750000083,
          "velocity": 0.7874015748031497,
          "duration": 0.5280500000000075
        },
        {
          "name": "D#6",
          "midi": 87,
          "time": 194.52373750000083,
          "velocity": 0.7874015748031497,
          "duration": 0.5280500000000075
        },
        {
          "name": "F#6",
          "midi": 90,
          "time": 194.52373750000083,
          "velocity": 0.7874015748031497,
          "duration": 0.5280500000000075
        },
        {
          "name": "C7",
          "midi": 96,
          "time": 194.52373750000083,
          "velocity": 0.7874015748031497,
          "duration": 0.5280500000000075
        },
        {
          "name": "D7",
          "midi": 98,
          "time": 194.52373750000083,
          "velocity": 0.7874015748031497,
          "duration": 0.5280500000000075
        },
        {
          "name": "D#7",
          "midi": 99,
          "time": 194.52373750000083,
          "velocity": 0.7874015748031497,
          "duration": 0.5280500000000075
        },
        {
          "name": "F#7",
          "midi": 102,
          "time": 194.52373750000083,
          "velocity": 0.7874015748031497,
          "duration": 0.5280500000000075
        },
        {
          "name": "C4",
          "midi": 60,
          "time": 195.05400000000085,
          "velocity": 0.7874015748031497,
          "duration": 0.5287874999999929
        },
        {
          "name": "F#4",
          "midi": 66,
          "time": 195.05400000000085,
          "velocity": 0.7874015748031497,
          "duration": 0.5287874999999929
        },
        {
          "name": "C5",
          "midi": 72,
          "time": 195.05400000000085,
          "velocity": 0.7874015748031497,
          "duration": 0.5287874999999929
        },
        {
          "name": "F#5",
          "midi": 78,
          "time": 195.05400000000085,
          "velocity": 0.7874015748031497,
          "duration": 0.5287874999999929
        },
        {
          "name": "C6",
          "midi": 84,
          "time": 195.05400000000085,
          "velocity": 0.7874015748031497,
          "duration": 0.5287874999999929
        },
        {
          "name": "D6",
          "midi": 86,
          "time": 195.05400000000085,
          "velocity": 0.7874015748031497,
          "duration": 0.5287874999999929
        },
        {
          "name": "F#6",
          "midi": 90,
          "time": 195.05400000000085,
          "velocity": 0.7874015748031497,
          "duration": 0.5287874999999929
        },
        {
          "name": "C7",
          "midi": 96,
          "time": 195.05400000000085,
          "velocity": 0.7874015748031497,
          "duration": 0.5287874999999929
        },
        {
          "name": "C#7",
          "midi": 97,
          "time": 195.05400000000085,
          "velocity": 0.7874015748031497,
          "duration": 0.5287874999999929
        },
        {
          "name": "D#7",
          "midi": 99,
          "time": 195.05400000000085,
          "velocity": 0.7874015748031497,
          "duration": 0.5287874999999929
        },
        {
          "name": "F#7",
          "midi": 102,
          "time": 195.05400000000085,
          "velocity": 0.7874015748031497,
          "duration": 0.5287874999999929
        },
        {
          "name": "D4",
          "midi": 62,
          "time": 195.58426250000085,
          "velocity": 0.7874015748031497,
          "duration": 0.5295250000000067
        },
        {
          "name": "F#4",
          "midi": 66,
          "time": 195.58426250000085,
          "velocity": 0.7874015748031497,
          "duration": 0.5295250000000067
        },
        {
          "name": "C5",
          "midi": 72,
          "time": 195.58426250000085,
          "velocity": 0.7874015748031497,
          "duration": 0.5295250000000067
        },
        {
          "name": "D5",
          "midi": 74,
          "time": 195.58426250000085,
          "velocity": 0.7874015748031497,
          "duration": 0.5295250000000067
        },
        {
          "name": "F#5",
          "midi": 78,
          "time": 195.58426250000085,
          "velocity": 0.7874015748031497,
          "duration": 0.5295250000000067
        },
        {
          "name": "C#6",
          "midi": 85,
          "time": 195.58426250000085,
          "velocity": 0.7874015748031497,
          "duration": 0.5295250000000067
        },
        {
          "name": "D#6",
          "midi": 87,
          "time": 195.58426250000085,
          "velocity": 0.7874015748031497,
          "duration": 0.5295250000000067
        },
        {
          "name": "F#6",
          "midi": 90,
          "time": 195.58426250000085,
          "velocity": 0.7874015748031497,
          "duration": 0.5295250000000067
        },
        {
          "name": "C#7",
          "midi": 97,
          "time": 195.58426250000085,
          "velocity": 0.7874015748031497,
          "duration": 0.5295250000000067
        },
        {
          "name": "D7",
          "midi": 98,
          "time": 195.58426250000085,
          "velocity": 0.7874015748031497,
          "duration": 0.5295250000000067
        },
        {
          "name": "D#7",
          "midi": 99,
          "time": 195.58426250000085,
          "velocity": 0.7874015748031497,
          "duration": 0.5295250000000067
        },
        {
          "name": "F#7",
          "midi": 102,
          "time": 195.58426250000085,
          "velocity": 0.7874015748031497,
          "duration": 0.5295250000000067
        },
        {
          "name": "C#4",
          "midi": 61,
          "time": 196.11600000000087,
          "velocity": 0.7874015748031497,
          "duration": 0.04425000000000523
        },
        {
          "name": "F#4",
          "midi": 66,
          "time": 196.11600000000087,
          "velocity": 0.7874015748031497,
          "duration": 0.04425000000000523
        },
        {
          "name": "C5",
          "midi": 72,
          "time": 196.11600000000087,
          "velocity": 0.7874015748031497,
          "duration": 0.04425000000000523
        },
        {
          "name": "C#5",
          "midi": 73,
          "time": 196.11600000000087,
          "velocity": 0.7874015748031497,
          "duration": 0.04425000000000523
        },
        {
          "name": "F#5",
          "midi": 78,
          "time": 196.11600000000087,
          "velocity": 0.7874015748031497,
          "duration": 0.04425000000000523
        },
        {
          "name": "C6",
          "midi": 84,
          "time": 196.11600000000087,
          "velocity": 0.7874015748031497,
          "duration": 0.35178750000000036
        },
        {
          "name": "D#6",
          "midi": 87,
          "time": 196.11600000000087,
          "velocity": 0.7874015748031497,
          "duration": 0.35178750000000036
        },
        {
          "name": "F#6",
          "midi": 90,
          "time": 196.11600000000087,
          "velocity": 0.7874015748031497,
          "duration": 0.35178750000000036
        },
        {
          "name": "C7",
          "midi": 96,
          "time": 196.11600000000087,
          "velocity": 0.7874015748031497,
          "duration": 0.35178750000000036
        },
        {
          "name": "D7",
          "midi": 98,
          "time": 196.11600000000087,
          "velocity": 0.7874015748031497,
          "duration": 0.35178750000000036
        },
        {
          "name": "D#7",
          "midi": 99,
          "time": 196.11600000000087,
          "velocity": 0.7874015748031497,
          "duration": 0.35178750000000036
        },
        {
          "name": "F#7",
          "midi": 102,
          "time": 196.11600000000087,
          "velocity": 0.7874015748031497,
          "duration": 0.35178750000000036
        },
        {
          "name": "C4",
          "midi": 60,
          "time": 196.47000000000088,
          "velocity": 0.7874015748031497,
          "duration": 0.04425000000000523
        },
        {
          "name": "F#4",
          "midi": 66,
          "time": 196.47000000000088,
          "velocity": 0.7874015748031497,
          "duration": 0.04425000000000523
        },
        {
          "name": "C5",
          "midi": 72,
          "time": 196.47000000000088,
          "velocity": 0.7874015748031497,
          "duration": 0.04425000000000523
        },
        {
          "name": "F#5",
          "midi": 78,
          "time": 196.47000000000088,
          "velocity": 0.7874015748031497,
          "duration": 0.04425000000000523
        },
        {
          "name": "C6",
          "midi": 84,
          "time": 196.47000000000088,
          "velocity": 0.7874015748031497,
          "duration": 0.35178750000000036
        },
        {
          "name": "D6",
          "midi": 86,
          "time": 196.47000000000088,
          "velocity": 0.7874015748031497,
          "duration": 0.35178750000000036
        },
        {
          "name": "F#6",
          "midi": 90,
          "time": 196.47000000000088,
          "velocity": 0.7874015748031497,
          "duration": 0.35178750000000036
        },
        {
          "name": "C7",
          "midi": 96,
          "time": 196.47000000000088,
          "velocity": 0.7874015748031497,
          "duration": 0.35178750000000036
        },
        {
          "name": "C#7",
          "midi": 97,
          "time": 196.47000000000088,
          "velocity": 0.7874015748031497,
          "duration": 0.35178750000000036
        },
        {
          "name": "D#7",
          "midi": 99,
          "time": 196.47000000000088,
          "velocity": 0.7874015748031497,
          "duration": 0.35178750000000036
        },
        {
          "name": "F#7",
          "midi": 102,
          "time": 196.47000000000088,
          "velocity": 0.7874015748031497,
          "duration": 0.35178750000000036
        },
        {
          "name": "C4",
          "midi": 60,
          "time": 196.8240000000009,
          "velocity": 0.7874015748031497,
          "duration": 0.04425000000000523
        },
        {
          "name": "F#4",
          "midi": 66,
          "time": 196.8240000000009,
          "velocity": 0.7874015748031497,
          "duration": 0.04425000000000523
        },
        {
          "name": "C5",
          "midi": 72,
          "time": 196.8240000000009,
          "velocity": 0.7874015748031497,
          "duration": 0.04425000000000523
        },
        {
          "name": "F#5",
          "midi": 78,
          "time": 196.8240000000009,
          "velocity": 0.7874015748031497,
          "duration": 0.04425000000000523
        },
        {
          "name": "C6",
          "midi": 84,
          "time": 196.8240000000009,
          "velocity": 0.7874015748031497,
          "duration": 0.04425000000000523
        },
        {
          "name": "F#6",
          "midi": 90,
          "time": 196.8240000000009,
          "velocity": 0.7874015748031497,
          "duration": 0.04425000000000523
        },
        {
          "name": "C7",
          "midi": 96,
          "time": 196.8240000000009,
          "velocity": 0.7874015748031497,
          "duration": 0.04425000000000523
        },
        {
          "name": "F#7",
          "midi": 102,
          "time": 196.8240000000009,
          "velocity": 0.7874015748031497,
          "duration": 0.04425000000000523
        },
        {
          "name": "D#6",
          "midi": 87,
          "time": 197.0010000000009,
          "velocity": 0.7874015748031497,
          "duration": 0.04425000000000523
        },
        {
          "name": "F6",
          "midi": 89,
          "time": 197.0010000000009,
          "velocity": 0.7874015748031497,
          "duration": 0.04425000000000523
        },
        {
          "name": "D#7",
          "midi": 99,
          "time": 197.0010000000009,
          "velocity": 0.7874015748031497,
          "duration": 0.04425000000000523
        },
        {
          "name": "F#7",
          "midi": 102,
          "time": 197.0010000000009,
          "velocity": 0.7874015748031497,
          "duration": 0.04425000000000523
        },
        {
          "name": "D4",
          "midi": 62,
          "time": 197.17800000000088,
          "velocity": 0.7874015748031497,
          "duration": 0.04425000000000523
        },
        {
          "name": "F#4",
          "midi": 66,
          "time": 197.17800000000088,
          "velocity": 0.7874015748031497,
          "duration": 0.04425000000000523
        },
        {
          "name": "D#5",
          "midi": 75,
          "time": 197.17800000000088,
          "velocity": 0.7874015748031497,
          "duration": 0.04425000000000523
        },
        {
          "name": "F#5",
          "midi": 78,
          "time": 197.17800000000088,
          "velocity": 0.7874015748031497,
          "duration": 0.04425000000000523
        },
        {
          "name": "E6",
          "midi": 88,
          "time": 197.17800000000088,
          "velocity": 0.7874015748031497,
          "duration": 0.04425000000000523
        },
        {
          "name": "F6",
          "midi": 89,
          "time": 197.17800000000088,
          "velocity": 0.7874015748031497,
          "duration": 0.04425000000000523
        },
        {
          "name": "E7",
          "midi": 100,
          "time": 197.17800000000088,
          "velocity": 0.7874015748031497,
          "duration": 0.04425000000000523
        },
        {
          "name": "F#7",
          "midi": 102,
          "time": 197.17800000000088,
          "velocity": 0.7874015748031497,
          "duration": 0.04425000000000523
        },
        {
          "name": "C#4",
          "midi": 61,
          "time": 197.35500000000087,
          "velocity": 0.7874015748031497,
          "duration": 0.04425000000000523
        },
        {
          "name": "F4",
          "midi": 65,
          "time": 197.35500000000087,
          "velocity": 0.7874015748031497,
          "duration": 0.04425000000000523
        },
        {
          "name": "C#5",
          "midi": 73,
          "time": 197.35500000000087,
          "velocity": 0.7874015748031497,
          "duration": 0.04425000000000523
        },
        {
          "name": "F5",
          "midi": 77,
          "time": 197.35500000000087,
          "velocity": 0.7874015748031497,
          "duration": 0.04425000000000523
        },
        {
          "name": "C#6",
          "midi": 85,
          "time": 197.35500000000087,
          "velocity": 0.7874015748031497,
          "duration": 0.35178750000000036
        },
        {
          "name": "F#6",
          "midi": 90,
          "time": 197.35500000000087,
          "velocity": 0.7874015748031497,
          "duration": 0.35178750000000036
        },
        {
          "name": "C#7",
          "midi": 97,
          "time": 197.35500000000087,
          "velocity": 0.7874015748031497,
          "duration": 0.35178750000000036
        },
        {
          "name": "F#7",
          "midi": 102,
          "time": 197.35500000000087,
          "velocity": 0.7874015748031497,
          "duration": 0.35178750000000036
        },
        {
          "name": "D#6",
          "midi": 87,
          "time": 197.70900000000088,
          "velocity": 0.7874015748031497,
          "duration": 0.04425000000000523
        },
        {
          "name": "F#6",
          "midi": 90,
          "time": 197.70900000000088,
          "velocity": 0.7874015748031497,
          "duration": 0.04425000000000523
        },
        {
          "name": "D#7",
          "midi": 99,
          "time": 197.70900000000088,
          "velocity": 0.7874015748031497,
          "duration": 0.04425000000000523
        },
        {
          "name": "F#7",
          "midi": 102,
          "time": 197.70900000000088,
          "velocity": 0.7874015748031497,
          "duration": 0.04425000000000523
        },
        {
          "name": "D4",
          "midi": 62,
          "time": 197.88600000000088,
          "velocity": 0.7874015748031497,
          "duration": 0.04425000000000523
        },
        {
          "name": "F#4",
          "midi": 66,
          "time": 197.88600000000088,
          "velocity": 0.7874015748031497,
          "duration": 0.04425000000000523
        },
        {
          "name": "D#5",
          "midi": 75,
          "time": 197.88600000000088,
          "velocity": 0.7874015748031497,
          "duration": 0.04425000000000523
        },
        {
          "name": "F#5",
          "midi": 78,
          "time": 197.88600000000088,
          "velocity": 0.7874015748031497,
          "duration": 0.04425000000000523
        },
        {
          "name": "E6",
          "midi": 88,
          "time": 197.88600000000088,
          "velocity": 0.7874015748031497,
          "duration": 0.35178750000000036
        },
        {
          "name": "F6",
          "midi": 89,
          "time": 197.88600000000088,
          "velocity": 0.7874015748031497,
          "duration": 0.35178750000000036
        },
        {
          "name": "E7",
          "midi": 100,
          "time": 197.88600000000088,
          "velocity": 0.7874015748031497,
          "duration": 0.35178750000000036
        },
        {
          "name": "F#7",
          "midi": 102,
          "time": 197.88600000000088,
          "velocity": 0.7874015748031497,
          "duration": 0.35178750000000036
        },
        {
          "name": "C#4",
          "midi": 61,
          "time": 198.2400000000009,
          "velocity": 0.7874015748031497,
          "duration": 0.04425000000000523
        },
        {
          "name": "F#4",
          "midi": 66,
          "time": 198.2400000000009,
          "velocity": 0.7874015748031497,
          "duration": 0.04425000000000523
        },
        {
          "name": "D5",
          "midi": 74,
          "time": 198.2400000000009,
          "velocity": 0.7874015748031497,
          "duration": 0.04425000000000523
        },
        {
          "name": "F#5",
          "midi": 78,
          "time": 198.2400000000009,
          "velocity": 0.7874015748031497,
          "duration": 0.04425000000000523
        },
        {
          "name": "D6",
          "midi": 86,
          "time": 198.2400000000009,
          "velocity": 0.7874015748031497,
          "duration": 0.04425000000000523
        },
        {
          "name": "F#6",
          "midi": 90,
          "time": 198.2400000000009,
          "velocity": 0.7874015748031497,
          "duration": 0.04425000000000523
        },
        {
          "name": "D7",
          "midi": 98,
          "time": 198.2400000000009,
          "velocity": 0.7874015748031497,
          "duration": 0.04425000000000523
        },
        {
          "name": "F#7",
          "midi": 102,
          "time": 198.2400000000009,
          "velocity": 0.7874015748031497,
          "duration": 0.04425000000000523
        },
        {
          "name": "D#6",
          "midi": 87,
          "time": 198.41700000000088,
          "velocity": 0.7874015748031497,
          "duration": 0.04425000000000523
        },
        {
          "name": "F6",
          "midi": 89,
          "time": 198.41700000000088,
          "velocity": 0.7874015748031497,
          "duration": 0.04425000000000523
        },
        {
          "name": "D#7",
          "midi": 99,
          "time": 198.41700000000088,
          "velocity": 0.7874015748031497,
          "duration": 0.04425000000000523
        },
        {
          "name": "F#7",
          "midi": 102,
          "time": 198.41700000000088,
          "velocity": 0.7874015748031497,
          "duration": 0.04425000000000523
        },
        {
          "name": "D4",
          "midi": 62,
          "time": 198.59400000000088,
          "velocity": 0.7874015748031497,
          "duration": 0.04425000000000523
        },
        {
          "name": "F#4",
          "midi": 66,
          "time": 198.59400000000088,
          "velocity": 0.7874015748031497,
          "duration": 0.04425000000000523
        },
        {
          "name": "D#5",
          "midi": 75,
          "time": 198.59400000000088,
          "velocity": 0.7874015748031497,
          "duration": 0.04425000000000523
        },
        {
          "name": "F#5",
          "midi": 78,
          "time": 198.59400000000088,
          "velocity": 0.7874015748031497,
          "duration": 0.04425000000000523
        },
        {
          "name": "E6",
          "midi": 88,
          "time": 198.59400000000088,
          "velocity": 0.7874015748031497,
          "duration": 0.04425000000000523
        },
        {
          "name": "F6",
          "midi": 89,
          "time": 198.59400000000088,
          "velocity": 0.7874015748031497,
          "duration": 0.04425000000000523
        },
        {
          "name": "E7",
          "midi": 100,
          "time": 198.59400000000088,
          "velocity": 0.7874015748031497,
          "duration": 0.04425000000000523
        },
        {
          "name": "F#7",
          "midi": 102,
          "time": 198.59400000000088,
          "velocity": 0.7874015748031497,
          "duration": 0.04425000000000523
        },
        {
          "name": "C#4",
          "midi": 61,
          "time": 198.77026250000088,
          "velocity": 0.7874015748031497,
          "duration": 0.04425000000000523
        },
        {
          "name": "F4",
          "midi": 65,
          "time": 198.77026250000088,
          "velocity": 0.7874015748031497,
          "duration": 0.04425000000000523
        },
        {
          "name": "C#5",
          "midi": 73,
          "time": 198.77026250000088,
          "velocity": 0.7874015748031497,
          "duration": 0.04425000000000523
        },
        {
          "name": "F5",
          "midi": 77,
          "time": 198.77026250000088,
          "velocity": 0.7874015748031497,
          "duration": 0.04425000000000523
        },
        {
          "name": "C#6",
          "midi": 85,
          "time": 198.77026250000088,
          "velocity": 0.7874015748031497,
          "duration": 0.3525250000000142
        },
        {
          "name": "F#6",
          "midi": 90,
          "time": 198.77026250000088,
          "velocity": 0.7874015748031497,
          "duration": 0.3525250000000142
        },
        {
          "name": "C#7",
          "midi": 97,
          "time": 198.77026250000088,
          "velocity": 0.7874015748031497,
          "duration": 0.3525250000000142
        },
        {
          "name": "F#7",
          "midi": 102,
          "time": 198.77026250000088,
          "velocity": 0.7874015748031497,
          "duration": 0.3525250000000142
        },
        {
          "name": "D#6",
          "midi": 87,
          "time": 199.1250000000009,
          "velocity": 0.7874015748031497,
          "duration": 0.043512499999991405
        },
        {
          "name": "F#6",
          "midi": 90,
          "time": 199.1250000000009,
          "velocity": 0.7874015748031497,
          "duration": 0.043512499999991405
        },
        {
          "name": "D#7",
          "midi": 99,
          "time": 199.1250000000009,
          "velocity": 0.7874015748031497,
          "duration": 0.043512499999991405
        },
        {
          "name": "F#7",
          "midi": 102,
          "time": 199.1250000000009,
          "velocity": 0.7874015748031497,
          "duration": 0.043512499999991405
        },
        {
          "name": "D4",
          "midi": 62,
          "time": 199.3020000000009,
          "velocity": 0.7874015748031497,
          "duration": 0.043512499999991405
        },
        {
          "name": "F#4",
          "midi": 66,
          "time": 199.3020000000009,
          "velocity": 0.7874015748031497,
          "duration": 0.043512499999991405
        },
        {
          "name": "D#5",
          "midi": 75,
          "time": 199.3020000000009,
          "velocity": 0.7874015748031497,
          "duration": 0.043512499999991405
        },
        {
          "name": "F#5",
          "midi": 78,
          "time": 199.3020000000009,
          "velocity": 0.7874015748031497,
          "duration": 0.043512499999991405
        },
        {
          "name": "E6",
          "midi": 88,
          "time": 199.3020000000009,
          "velocity": 0.7874015748031497,
          "duration": 0.35178750000000036
        },
        {
          "name": "F6",
          "midi": 89,
          "time": 199.3020000000009,
          "velocity": 0.7874015748031497,
          "duration": 0.35178750000000036
        },
        {
          "name": "E7",
          "midi": 100,
          "time": 199.3020000000009,
          "velocity": 0.7874015748031497,
          "duration": 0.35178750000000036
        },
        {
          "name": "F#7",
          "midi": 102,
          "time": 199.3020000000009,
          "velocity": 0.7874015748031497,
          "duration": 0.35178750000000036
        },
        {
          "name": "C4",
          "midi": 60,
          "time": 199.65600000000092,
          "velocity": 0.7874015748031497,
          "duration": 0.04425000000000523
        },
        {
          "name": "F#4",
          "midi": 66,
          "time": 199.65600000000092,
          "velocity": 0.7874015748031497,
          "duration": 0.04425000000000523
        },
        {
          "name": "C5",
          "midi": 72,
          "time": 199.65600000000092,
          "velocity": 0.7874015748031497,
          "duration": 0.04425000000000523
        },
        {
          "name": "F#5",
          "midi": 78,
          "time": 199.65600000000092,
          "velocity": 0.7874015748031497,
          "duration": 0.04425000000000523
        },
        {
          "name": "C6",
          "midi": 84,
          "time": 199.65600000000092,
          "velocity": 0.7874015748031497,
          "duration": 0.04425000000000523
        },
        {
          "name": "F#6",
          "midi": 90,
          "time": 199.65600000000092,
          "velocity": 0.7874015748031497,
          "duration": 0.04425000000000523
        },
        {
          "name": "C7",
          "midi": 96,
          "time": 199.65600000000092,
          "velocity": 0.7874015748031497,
          "duration": 0.04425000000000523
        },
        {
          "name": "F#7",
          "midi": 102,
          "time": 199.65600000000092,
          "velocity": 0.7874015748031497,
          "duration": 0.04425000000000523
        },
        {
          "name": "D#6",
          "midi": 87,
          "time": 199.83373750000092,
          "velocity": 0.7874015748031497,
          "duration": 0.04425000000000523
        },
        {
          "name": "F6",
          "midi": 89,
          "time": 199.83373750000092,
          "velocity": 0.7874015748031497,
          "duration": 0.04425000000000523
        },
        {
          "name": "D#7",
          "midi": 99,
          "time": 199.83373750000092,
          "velocity": 0.7874015748031497,
          "duration": 0.04425000000000523
        },
        {
          "name": "F#7",
          "midi": 102,
          "time": 199.83373750000092,
          "velocity": 0.7874015748031497,
          "duration": 0.04425000000000523
        },
        {
          "name": "D4",
          "midi": 62,
          "time": 200.01000000000093,
          "velocity": 0.7874015748031497,
          "duration": 0.04425000000000523
        },
        {
          "name": "F#4",
          "midi": 66,
          "time": 200.01000000000093,
          "velocity": 0.7874015748031497,
          "duration": 0.04425000000000523
        },
        {
          "name": "D#5",
          "midi": 75,
          "time": 200.01000000000093,
          "velocity": 0.7874015748031497,
          "duration": 0.04425000000000523
        },
        {
          "name": "F#5",
          "midi": 78,
          "time": 200.01000000000093,
          "velocity": 0.7874015748031497,
          "duration": 0.04425000000000523
        },
        {
          "name": "E6",
          "midi": 88,
          "time": 200.01000000000093,
          "velocity": 0.7874015748031497,
          "duration": 0.04425000000000523
        },
        {
          "name": "F6",
          "midi": 89,
          "time": 200.01000000000093,
          "velocity": 0.7874015748031497,
          "duration": 0.04425000000000523
        },
        {
          "name": "E7",
          "midi": 100,
          "time": 200.01000000000093,
          "velocity": 0.7874015748031497,
          "duration": 0.04425000000000523
        },
        {
          "name": "F#7",
          "midi": 102,
          "time": 200.01000000000093,
          "velocity": 0.7874015748031497,
          "duration": 0.04425000000000523
        },
        {
          "name": "C#4",
          "midi": 61,
          "time": 200.18773750000094,
          "velocity": 0.7874015748031497,
          "duration": 0.04425000000000523
        },
        {
          "name": "F4",
          "midi": 65,
          "time": 200.18773750000094,
          "velocity": 0.7874015748031497,
          "duration": 0.04425000000000523
        },
        {
          "name": "D5",
          "midi": 74,
          "time": 200.18773750000094,
          "velocity": 0.7874015748031497,
          "duration": 0.04425000000000523
        },
        {
          "name": "F5",
          "midi": 77,
          "time": 200.18773750000094,
          "velocity": 0.7874015748031497,
          "duration": 0.04425000000000523
        },
        {
          "name": "D6",
          "midi": 86,
          "time": 200.18773750000094,
          "velocity": 0.7874015748031497,
          "duration": 0.35178750000000036
        },
        {
          "name": "F#6",
          "midi": 90,
          "time": 200.18773750000094,
          "velocity": 0.7874015748031497,
          "duration": 0.35178750000000036
        },
        {
          "name": "D7",
          "midi": 98,
          "time": 200.18773750000094,
          "velocity": 0.7874015748031497,
          "duration": 0.35178750000000036
        },
        {
          "name": "F#7",
          "midi": 102,
          "time": 200.18773750000094,
          "velocity": 0.7874015748031497,
          "duration": 0.35178750000000036
        },
        {
          "name": "D#6",
          "midi": 87,
          "time": 200.54173750000095,
          "velocity": 0.7874015748031497,
          "duration": 0.04425000000000523
        },
        {
          "name": "F#6",
          "midi": 90,
          "time": 200.54173750000095,
          "velocity": 0.7874015748031497,
          "duration": 0.04425000000000523
        },
        {
          "name": "D#7",
          "midi": 99,
          "time": 200.54173750000095,
          "velocity": 0.7874015748031497,
          "duration": 0.04425000000000523
        },
        {
          "name": "F#7",
          "midi": 102,
          "time": 200.54173750000095,
          "velocity": 0.7874015748031497,
          "duration": 0.04425000000000523
        },
        {
          "name": "D4",
          "midi": 62,
          "time": 200.71800000000096,
          "velocity": 0.7874015748031497,
          "duration": 0.04425000000000523
        },
        {
          "name": "F#4",
          "midi": 66,
          "time": 200.71800000000096,
          "velocity": 0.7874015748031497,
          "duration": 0.04425000000000523
        },
        {
          "name": "D#5",
          "midi": 75,
          "time": 200.71800000000096,
          "velocity": 0.7874015748031497,
          "duration": 0.04425000000000523
        },
        {
          "name": "F#5",
          "midi": 78,
          "time": 200.71800000000096,
          "velocity": 0.7874015748031497,
          "duration": 0.04425000000000523
        },
        {
          "name": "E6",
          "midi": 88,
          "time": 200.71800000000096,
          "velocity": 0.7874015748031497,
          "duration": 0.04425000000000523
        },
        {
          "name": "F6",
          "midi": 89,
          "time": 200.71800000000096,
          "velocity": 0.7874015748031497,
          "duration": 0.04425000000000523
        },
        {
          "name": "E7",
          "midi": 100,
          "time": 200.71800000000096,
          "velocity": 0.7874015748031497,
          "duration": 0.04425000000000523
        },
        {
          "name": "F#7",
          "midi": 102,
          "time": 200.71800000000096,
          "velocity": 0.7874015748031497,
          "duration": 0.04425000000000523
        },
        {
          "name": "D#7",
          "midi": 99,
          "time": 200.89573750000096,
          "velocity": 0.7874015748031497,
          "duration": 0.04425000000000523
        },
        {
          "name": "F#7",
          "midi": 102,
          "time": 200.89573750000096,
          "velocity": 0.7874015748031497,
          "duration": 0.04425000000000523
        },
        {
          "name": "C#4",
          "midi": 61,
          "time": 201.07200000000097,
          "velocity": 0.7874015748031497,
          "duration": 0.04425000000000523
        },
        {
          "name": "F#4",
          "midi": 66,
          "time": 201.07200000000097,
          "velocity": 0.7874015748031497,
          "duration": 0.04425000000000523
        },
        {
          "name": "C#5",
          "midi": 73,
          "time": 201.07200000000097,
          "velocity": 0.7874015748031497,
          "duration": 0.04425000000000523
        },
        {
          "name": "F#5",
          "midi": 78,
          "time": 201.07200000000097,
          "velocity": 0.7874015748031497,
          "duration": 0.04425000000000523
        },
        {
          "name": "C#6",
          "midi": 85,
          "time": 201.07200000000097,
          "velocity": 0.7874015748031497,
          "duration": 0.04425000000000523
        },
        {
          "name": "F#6",
          "midi": 90,
          "time": 201.07200000000097,
          "velocity": 0.7874015748031497,
          "duration": 0.04425000000000523
        },
        {
          "name": "C#7",
          "midi": 97,
          "time": 201.07200000000097,
          "velocity": 0.7874015748031497,
          "duration": 0.04425000000000523
        },
        {
          "name": "F#7",
          "midi": 102,
          "time": 201.07200000000097,
          "velocity": 0.7874015748031497,
          "duration": 0.04425000000000523
        },
        {
          "name": "D#6",
          "midi": 87,
          "time": 201.24973750000098,
          "velocity": 0.7874015748031497,
          "duration": 0.04425000000000523
        },
        {
          "name": "F6",
          "midi": 89,
          "time": 201.24973750000098,
          "velocity": 0.7874015748031497,
          "duration": 0.04425000000000523
        },
        {
          "name": "D#7",
          "midi": 99,
          "time": 201.24973750000098,
          "velocity": 0.7874015748031497,
          "duration": 0.04425000000000523
        },
        {
          "name": "F#7",
          "midi": 102,
          "time": 201.24973750000098,
          "velocity": 0.7874015748031497,
          "duration": 0.04425000000000523
        },
        {
          "name": "D4",
          "midi": 62,
          "time": 201.42600000000098,
          "velocity": 0.7874015748031497,
          "duration": 0.04425000000000523
        },
        {
          "name": "F#4",
          "midi": 66,
          "time": 201.42600000000098,
          "velocity": 0.7874015748031497,
          "duration": 0.04425000000000523
        },
        {
          "name": "D#5",
          "midi": 75,
          "time": 201.42600000000098,
          "velocity": 0.7874015748031497,
          "duration": 0.04425000000000523
        },
        {
          "name": "F#5",
          "midi": 78,
          "time": 201.42600000000098,
          "velocity": 0.7874015748031497,
          "duration": 0.04425000000000523
        },
        {
          "name": "E6",
          "midi": 88,
          "time": 201.42600000000098,
          "velocity": 0.7874015748031497,
          "duration": 0.04425000000000523
        },
        {
          "name": "F6",
          "midi": 89,
          "time": 201.42600000000098,
          "velocity": 0.7874015748031497,
          "duration": 0.04425000000000523
        },
        {
          "name": "E7",
          "midi": 100,
          "time": 201.42600000000098,
          "velocity": 0.7874015748031497,
          "duration": 0.04425000000000523
        },
        {
          "name": "F#7",
          "midi": 102,
          "time": 201.42600000000098,
          "velocity": 0.7874015748031497,
          "duration": 0.04425000000000523
        },
        {
          "name": "C#4",
          "midi": 61,
          "time": 201.603737500001,
          "velocity": 0.7874015748031497,
          "duration": 0.04425000000000523
        },
        {
          "name": "F4",
          "midi": 65,
          "time": 201.603737500001,
          "velocity": 0.7874015748031497,
          "duration": 0.04425000000000523
        },
        {
          "name": "D5",
          "midi": 74,
          "time": 201.603737500001,
          "velocity": 0.7874015748031497,
          "duration": 0.04425000000000523
        },
        {
          "name": "F5",
          "midi": 77,
          "time": 201.603737500001,
          "velocity": 0.7874015748031497,
          "duration": 0.04425000000000523
        },
        {
          "name": "D6",
          "midi": 86,
          "time": 201.603737500001,
          "velocity": 0.7874015748031497,
          "duration": 0.35178750000000036
        },
        {
          "name": "F#6",
          "midi": 90,
          "time": 201.603737500001,
          "velocity": 0.7874015748031497,
          "duration": 0.35178750000000036
        },
        {
          "name": "D7",
          "midi": 98,
          "time": 201.603737500001,
          "velocity": 0.7874015748031497,
          "duration": 0.35178750000000036
        },
        {
          "name": "F#7",
          "midi": 102,
          "time": 201.603737500001,
          "velocity": 0.7874015748031497,
          "duration": 0.35178750000000036
        },
        {
          "name": "D#6",
          "midi": 87,
          "time": 201.957737500001,
          "velocity": 0.7874015748031497,
          "duration": 0.042775000000006
        },
        {
          "name": "F#6",
          "midi": 90,
          "time": 201.957737500001,
          "velocity": 0.7874015748031497,
          "duration": 0.042775000000006
        },
        {
          "name": "D#7",
          "midi": 99,
          "time": 201.957737500001,
          "velocity": 0.7874015748031497,
          "duration": 0.042775000000006
        },
        {
          "name": "F#7",
          "midi": 102,
          "time": 201.957737500001,
          "velocity": 0.7874015748031497,
          "duration": 0.042775000000006
        },
        {
          "name": "C#4",
          "midi": 61,
          "time": 202.134000000001,
          "velocity": 0.7874015748031497,
          "duration": 0.043512499999991405
        },
        {
          "name": "F#4",
          "midi": 66,
          "time": 202.134000000001,
          "velocity": 0.7874015748031497,
          "duration": 0.043512499999991405
        },
        {
          "name": "C#5",
          "midi": 73,
          "time": 202.134000000001,
          "velocity": 0.7874015748031497,
          "duration": 0.043512499999991405
        },
        {
          "name": "F#5",
          "midi": 78,
          "time": 202.134000000001,
          "velocity": 0.7874015748031497,
          "duration": 0.043512499999991405
        },
        {
          "name": "C#6",
          "midi": 85,
          "time": 202.134000000001,
          "velocity": 0.7874015748031497,
          "duration": 0.35178750000000036
        },
        {
          "name": "F6",
          "midi": 89,
          "time": 202.134000000001,
          "velocity": 0.7874015748031497,
          "duration": 0.35178750000000036
        },
        {
          "name": "C#7",
          "midi": 97,
          "time": 202.134000000001,
          "velocity": 0.7874015748031497,
          "duration": 0.35178750000000036
        },
        {
          "name": "F#7",
          "midi": 102,
          "time": 202.134000000001,
          "velocity": 0.7874015748031497,
          "duration": 0.35178750000000036
        },
        {
          "name": "C4",
          "midi": 60,
          "time": 202.48800000000102,
          "velocity": 0.7874015748031497,
          "duration": 0.043512499999991405
        },
        {
          "name": "F#4",
          "midi": 66,
          "time": 202.48800000000102,
          "velocity": 0.7874015748031497,
          "duration": 0.043512499999991405
        },
        {
          "name": "C5",
          "midi": 72,
          "time": 202.48800000000102,
          "velocity": 0.7874015748031497,
          "duration": 0.043512499999991405
        },
        {
          "name": "F#5",
          "midi": 78,
          "time": 202.48800000000102,
          "velocity": 0.7874015748031497,
          "duration": 0.043512499999991405
        },
        {
          "name": "C6",
          "midi": 84,
          "time": 202.48800000000102,
          "velocity": 0.7874015748031497,
          "duration": 0.043512499999991405
        },
        {
          "name": "F#6",
          "midi": 90,
          "time": 202.48800000000102,
          "velocity": 0.7874015748031497,
          "duration": 0.043512499999991405
        },
        {
          "name": "C7",
          "midi": 96,
          "time": 202.48800000000102,
          "velocity": 0.7874015748031497,
          "duration": 0.043512499999991405
        },
        {
          "name": "F#7",
          "midi": 102,
          "time": 202.48800000000102,
          "velocity": 0.7874015748031497,
          "duration": 0.043512499999991405
        },
        {
          "name": "D#6",
          "midi": 87,
          "time": 202.665737500001,
          "velocity": 0.7874015748031497,
          "duration": 0.043512499999991405
        },
        {
          "name": "F6",
          "midi": 89,
          "time": 202.665737500001,
          "velocity": 0.7874015748031497,
          "duration": 0.043512499999991405
        },
        {
          "name": "D#7",
          "midi": 99,
          "time": 202.665737500001,
          "velocity": 0.7874015748031497,
          "duration": 0.043512499999991405
        },
        {
          "name": "F#7",
          "midi": 102,
          "time": 202.665737500001,
          "velocity": 0.7874015748031497,
          "duration": 0.043512499999991405
        },
        {
          "name": "D4",
          "midi": 62,
          "time": 202.84200000000098,
          "velocity": 0.7874015748031497,
          "duration": 0.04498749999999063
        },
        {
          "name": "F#4",
          "midi": 66,
          "time": 202.84200000000098,
          "velocity": 0.7874015748031497,
          "duration": 0.04498749999999063
        },
        {
          "name": "D#5",
          "midi": 75,
          "time": 202.84200000000098,
          "velocity": 0.7874015748031497,
          "duration": 0.04498749999999063
        },
        {
          "name": "F#5",
          "midi": 78,
          "time": 202.84200000000098,
          "velocity": 0.7874015748031497,
          "duration": 0.04498749999999063
        },
        {
          "name": "E6",
          "midi": 88,
          "time": 202.84200000000098,
          "velocity": 0.7874015748031497,
          "duration": 0.04498749999999063
        },
        {
          "name": "F6",
          "midi": 89,
          "time": 202.84200000000098,
          "velocity": 0.7874015748031497,
          "duration": 0.04498749999999063
        },
        {
          "name": "E7",
          "midi": 100,
          "time": 202.84200000000098,
          "velocity": 0.7874015748031497,
          "duration": 0.04498749999999063
        },
        {
          "name": "F#7",
          "midi": 102,
          "time": 202.84200000000098,
          "velocity": 0.7874015748031497,
          "duration": 0.04498749999999063
        },
        {
          "name": "C#4",
          "midi": 61,
          "time": 203.01900000000097,
          "velocity": 0.7874015748031497,
          "duration": 0.043512499999991405
        },
        {
          "name": "F4",
          "midi": 65,
          "time": 203.01900000000097,
          "velocity": 0.7874015748031497,
          "duration": 0.043512499999991405
        },
        {
          "name": "C#5",
          "midi": 73,
          "time": 203.01900000000097,
          "velocity": 0.7874015748031497,
          "duration": 0.043512499999991405
        },
        {
          "name": "F5",
          "midi": 77,
          "time": 203.01900000000097,
          "velocity": 0.7874015748031497,
          "duration": 0.043512499999991405
        },
        {
          "name": "C#6",
          "midi": 85,
          "time": 203.01900000000097,
          "velocity": 0.7874015748031497,
          "duration": 0.35178750000000036
        },
        {
          "name": "F#6",
          "midi": 90,
          "time": 203.01900000000097,
          "velocity": 0.7874015748031497,
          "duration": 0.35178750000000036
        },
        {
          "name": "C#7",
          "midi": 97,
          "time": 203.01900000000097,
          "velocity": 0.7874015748031497,
          "duration": 0.35178750000000036
        },
        {
          "name": "F#7",
          "midi": 102,
          "time": 203.01900000000097,
          "velocity": 0.7874015748031497,
          "duration": 0.35178750000000036
        },
        {
          "name": "D#6",
          "midi": 87,
          "time": 203.37300000000099,
          "velocity": 0.7874015748031497,
          "duration": 0.04425000000000523
        },
        {
          "name": "F#6",
          "midi": 90,
          "time": 203.37300000000099,
          "velocity": 0.7874015748031497,
          "duration": 0.04425000000000523
        },
        {
          "name": "D#7",
          "midi": 99,
          "time": 203.37300000000099,
          "velocity": 0.7874015748031497,
          "duration": 0.04425000000000523
        },
        {
          "name": "F#7",
          "midi": 102,
          "time": 203.37300000000099,
          "velocity": 0.7874015748031497,
          "duration": 0.04425000000000523
        },
        {
          "name": "D4",
          "midi": 62,
          "time": 203.55000000000098,
          "velocity": 0.7874015748031497,
          "duration": 0.043512499999991405
        },
        {
          "name": "F#4",
          "midi": 66,
          "time": 203.55000000000098,
          "velocity": 0.7874015748031497,
          "duration": 0.043512499999991405
        },
        {
          "name": "D#5",
          "midi": 75,
          "time": 203.55000000000098,
          "velocity": 0.7874015748031497,
          "duration": 0.043512499999991405
        },
        {
          "name": "F#5",
          "midi": 78,
          "time": 203.55000000000098,
          "velocity": 0.7874015748031497,
          "duration": 0.043512499999991405
        },
        {
          "name": "E6",
          "midi": 88,
          "time": 203.55000000000098,
          "velocity": 0.7874015748031497,
          "duration": 0.043512499999991405
        },
        {
          "name": "F6",
          "midi": 89,
          "time": 203.55000000000098,
          "velocity": 0.7874015748031497,
          "duration": 0.043512499999991405
        },
        {
          "name": "E7",
          "midi": 100,
          "time": 203.55000000000098,
          "velocity": 0.7874015748031497,
          "duration": 0.043512499999991405
        },
        {
          "name": "F#7",
          "midi": 102,
          "time": 203.55000000000098,
          "velocity": 0.7874015748031497,
          "duration": 0.043512499999991405
        },
        {
          "name": "D#7",
          "midi": 99,
          "time": 203.72773750000096,
          "velocity": 0.7874015748031497,
          "duration": 0.043512499999991405
        },
        {
          "name": "F#7",
          "midi": 102,
          "time": 203.72773750000096,
          "velocity": 0.7874015748031497,
          "duration": 0.043512499999991405
        },
        {
          "name": "C#4",
          "midi": 61,
          "time": 203.90400000000093,
          "velocity": 0.7874015748031497,
          "duration": 0.043512499999991405
        },
        {
          "name": "F#4",
          "midi": 66,
          "time": 203.90400000000093,
          "velocity": 0.7874015748031497,
          "duration": 0.043512499999991405
        },
        {
          "name": "D5",
          "midi": 74,
          "time": 203.90400000000093,
          "velocity": 0.7874015748031497,
          "duration": 0.043512499999991405
        },
        {
          "name": "F#5",
          "midi": 78,
          "time": 203.90400000000093,
          "velocity": 0.7874015748031497,
          "duration": 0.043512499999991405
        },
        {
          "name": "D6",
          "midi": 86,
          "time": 203.90400000000093,
          "velocity": 0.7874015748031497,
          "duration": 0.043512499999991405
        },
        {
          "name": "F#6",
          "midi": 90,
          "time": 203.90400000000093,
          "velocity": 0.7874015748031497,
          "duration": 0.043512499999991405
        },
        {
          "name": "D7",
          "midi": 98,
          "time": 203.90400000000093,
          "velocity": 0.7874015748031497,
          "duration": 0.043512499999991405
        },
        {
          "name": "F#7",
          "midi": 102,
          "time": 203.90400000000093,
          "velocity": 0.7874015748031497,
          "duration": 0.043512499999991405
        },
        {
          "name": "D#6",
          "midi": 87,
          "time": 204.0817375000009,
          "velocity": 0.7874015748031497,
          "duration": 0.042775000000006
        },
        {
          "name": "F6",
          "midi": 89,
          "time": 204.0817375000009,
          "velocity": 0.7874015748031497,
          "duration": 0.042775000000006
        },
        {
          "name": "D#7",
          "midi": 99,
          "time": 204.0817375000009,
          "velocity": 0.7874015748031497,
          "duration": 0.042775000000006
        },
        {
          "name": "F#7",
          "midi": 102,
          "time": 204.0817375000009,
          "velocity": 0.7874015748031497,
          "duration": 0.042775000000006
        },
        {
          "name": "D4",
          "midi": 62,
          "time": 204.25800000000092,
          "velocity": 0.7874015748031497,
          "duration": 0.043512499999991405
        },
        {
          "name": "F#4",
          "midi": 66,
          "time": 204.25800000000092,
          "velocity": 0.7874015748031497,
          "duration": 0.043512499999991405
        },
        {
          "name": "D#5",
          "midi": 75,
          "time": 204.25800000000092,
          "velocity": 0.7874015748031497,
          "duration": 0.043512499999991405
        },
        {
          "name": "F#5",
          "midi": 78,
          "time": 204.25800000000092,
          "velocity": 0.7874015748031497,
          "duration": 0.043512499999991405
        },
        {
          "name": "E6",
          "midi": 88,
          "time": 204.25800000000092,
          "velocity": 0.7874015748031497,
          "duration": 0.043512499999991405
        },
        {
          "name": "F6",
          "midi": 89,
          "time": 204.25800000000092,
          "velocity": 0.7874015748031497,
          "duration": 0.043512499999991405
        },
        {
          "name": "E7",
          "midi": 100,
          "time": 204.25800000000092,
          "velocity": 0.7874015748031497,
          "duration": 0.043512499999991405
        },
        {
          "name": "F#7",
          "midi": 102,
          "time": 204.25800000000092,
          "velocity": 0.7874015748031497,
          "duration": 0.043512499999991405
        },
        {
          "name": "C#4",
          "midi": 61,
          "time": 204.4357375000009,
          "velocity": 0.7874015748031497,
          "duration": 0.042775000000006
        },
        {
          "name": "F4",
          "midi": 65,
          "time": 204.4357375000009,
          "velocity": 0.7874015748031497,
          "duration": 0.042775000000006
        },
        {
          "name": "C#5",
          "midi": 73,
          "time": 204.4357375000009,
          "velocity": 0.7874015748031497,
          "duration": 0.042775000000006
        },
        {
          "name": "F5",
          "midi": 77,
          "time": 204.4357375000009,
          "velocity": 0.7874015748031497,
          "duration": 0.042775000000006
        },
        {
          "name": "C#6",
          "midi": 85,
          "time": 204.4357375000009,
          "velocity": 0.7874015748031497,
          "duration": 0.35178750000000036
        },
        {
          "name": "F#6",
          "midi": 90,
          "time": 204.4357375000009,
          "velocity": 0.7874015748031497,
          "duration": 0.35178750000000036
        },
        {
          "name": "C#7",
          "midi": 97,
          "time": 204.4357375000009,
          "velocity": 0.7874015748031497,
          "duration": 0.35178750000000036
        },
        {
          "name": "F#7",
          "midi": 102,
          "time": 204.4357375000009,
          "velocity": 0.7874015748031497,
          "duration": 0.35178750000000036
        },
        {
          "name": "D#6",
          "midi": 87,
          "time": 204.7897375000009,
          "velocity": 0.7874015748031497,
          "duration": 0.043512499999991405
        },
        {
          "name": "F#6",
          "midi": 90,
          "time": 204.7897375000009,
          "velocity": 0.7874015748031497,
          "duration": 0.043512499999991405
        },
        {
          "name": "D#7",
          "midi": 99,
          "time": 204.7897375000009,
          "velocity": 0.7874015748031497,
          "duration": 0.043512499999991405
        },
        {
          "name": "F#7",
          "midi": 102,
          "time": 204.7897375000009,
          "velocity": 0.7874015748031497,
          "duration": 0.043512499999991405
        },
        {
          "name": "D4",
          "midi": 62,
          "time": 204.9660000000009,
          "velocity": 0.7874015748031497,
          "duration": 0.043512499999991405
        },
        {
          "name": "F#4",
          "midi": 66,
          "time": 204.9660000000009,
          "velocity": 0.7874015748031497,
          "duration": 0.043512499999991405
        },
        {
          "name": "D#5",
          "midi": 75,
          "time": 204.9660000000009,
          "velocity": 0.7874015748031497,
          "duration": 0.043512499999991405
        },
        {
          "name": "F#5",
          "midi": 78,
          "time": 204.9660000000009,
          "velocity": 0.7874015748031497,
          "duration": 0.043512499999991405
        },
        {
          "name": "E6",
          "midi": 88,
          "time": 204.9660000000009,
          "velocity": 0.7874015748031497,
          "duration": 0.35178750000000036
        },
        {
          "name": "F6",
          "midi": 89,
          "time": 204.9660000000009,
          "velocity": 0.7874015748031497,
          "duration": 0.35178750000000036
        },
        {
          "name": "E7",
          "midi": 100,
          "time": 204.9660000000009,
          "velocity": 0.7874015748031497,
          "duration": 0.35178750000000036
        },
        {
          "name": "F#7",
          "midi": 102,
          "time": 204.9660000000009,
          "velocity": 0.7874015748031497,
          "duration": 0.35178750000000036
        },
        {
          "name": "C4",
          "midi": 60,
          "time": 205.3200000000009,
          "velocity": 0.7874015748031497,
          "duration": 0.043512499999991405
        },
        {
          "name": "F#4",
          "midi": 66,
          "time": 205.3200000000009,
          "velocity": 0.7874015748031497,
          "duration": 0.043512499999991405
        },
        {
          "name": "C5",
          "midi": 72,
          "time": 205.3200000000009,
          "velocity": 0.7874015748031497,
          "duration": 0.043512499999991405
        },
        {
          "name": "F#5",
          "midi": 78,
          "time": 205.3200000000009,
          "velocity": 0.7874015748031497,
          "duration": 0.043512499999991405
        },
        {
          "name": "C6",
          "midi": 84,
          "time": 205.3200000000009,
          "velocity": 0.7874015748031497,
          "duration": 0.043512499999991405
        },
        {
          "name": "F#6",
          "midi": 90,
          "time": 205.3200000000009,
          "velocity": 0.7874015748031497,
          "duration": 0.043512499999991405
        },
        {
          "name": "C7",
          "midi": 96,
          "time": 205.3200000000009,
          "velocity": 0.7874015748031497,
          "duration": 0.043512499999991405
        },
        {
          "name": "F#7",
          "midi": 102,
          "time": 205.3200000000009,
          "velocity": 0.7874015748031497,
          "duration": 0.043512499999991405
        },
        {
          "name": "D#6",
          "midi": 87,
          "time": 205.49773750000088,
          "velocity": 0.7874015748031497,
          "duration": 0.043512499999991405
        },
        {
          "name": "F6",
          "midi": 89,
          "time": 205.49773750000088,
          "velocity": 0.7874015748031497,
          "duration": 0.043512499999991405
        },
        {
          "name": "D#7",
          "midi": 99,
          "time": 205.49773750000088,
          "velocity": 0.7874015748031497,
          "duration": 0.043512499999991405
        },
        {
          "name": "F#7",
          "midi": 102,
          "time": 205.49773750000088,
          "velocity": 0.7874015748031497,
          "duration": 0.043512499999991405
        },
        {
          "name": "D4",
          "midi": 62,
          "time": 205.67400000000086,
          "velocity": 0.7874015748031497,
          "duration": 0.04498749999999063
        },
        {
          "name": "F#4",
          "midi": 66,
          "time": 205.67400000000086,
          "velocity": 0.7874015748031497,
          "duration": 0.04498749999999063
        },
        {
          "name": "D#5",
          "midi": 75,
          "time": 205.67400000000086,
          "velocity": 0.7874015748031497,
          "duration": 0.04498749999999063
        },
        {
          "name": "F#5",
          "midi": 78,
          "time": 205.67400000000086,
          "velocity": 0.7874015748031497,
          "duration": 0.04498749999999063
        },
        {
          "name": "E6",
          "midi": 88,
          "time": 205.67400000000086,
          "velocity": 0.7874015748031497,
          "duration": 0.04498749999999063
        },
        {
          "name": "F6",
          "midi": 89,
          "time": 205.67400000000086,
          "velocity": 0.7874015748031497,
          "duration": 0.04498749999999063
        },
        {
          "name": "E7",
          "midi": 100,
          "time": 205.67400000000086,
          "velocity": 0.7874015748031497,
          "duration": 0.04498749999999063
        },
        {
          "name": "F#7",
          "midi": 102,
          "time": 205.67400000000086,
          "velocity": 0.7874015748031497,
          "duration": 0.04498749999999063
        },
        {
          "name": "C#4",
          "midi": 61,
          "time": 205.85100000000085,
          "velocity": 0.7874015748031497,
          "duration": 0.043512499999991405
        },
        {
          "name": "F4",
          "midi": 65,
          "time": 205.85100000000085,
          "velocity": 0.7874015748031497,
          "duration": 0.043512499999991405
        },
        {
          "name": "D5",
          "midi": 74,
          "time": 205.85100000000085,
          "velocity": 0.7874015748031497,
          "duration": 0.043512499999991405
        },
        {
          "name": "F5",
          "midi": 77,
          "time": 205.85100000000085,
          "velocity": 0.7874015748031497,
          "duration": 0.043512499999991405
        },
        {
          "name": "D6",
          "midi": 86,
          "time": 205.85100000000085,
          "velocity": 0.7874015748031497,
          "duration": 0.35252499999998577
        },
        {
          "name": "F#6",
          "midi": 90,
          "time": 205.85100000000085,
          "velocity": 0.7874015748031497,
          "duration": 0.35252499999998577
        },
        {
          "name": "D7",
          "midi": 98,
          "time": 205.85100000000085,
          "velocity": 0.7874015748031497,
          "duration": 0.35252499999998577
        },
        {
          "name": "F#7",
          "midi": 102,
          "time": 205.85100000000085,
          "velocity": 0.7874015748031497,
          "duration": 0.35252499999998577
        },
        {
          "name": "D#6",
          "midi": 87,
          "time": 206.20573750000085,
          "velocity": 0.7874015748031497,
          "duration": 0.04425000000000523
        },
        {
          "name": "F#6",
          "midi": 90,
          "time": 206.20573750000085,
          "velocity": 0.7874015748031497,
          "duration": 0.04425000000000523
        },
        {
          "name": "D#7",
          "midi": 99,
          "time": 206.20573750000085,
          "velocity": 0.7874015748031497,
          "duration": 0.04425000000000523
        },
        {
          "name": "F#7",
          "midi": 102,
          "time": 206.20573750000085,
          "velocity": 0.7874015748031497,
          "duration": 0.04425000000000523
        },
        {
          "name": "D4",
          "midi": 62,
          "time": 206.38200000000086,
          "velocity": 0.7874015748031497,
          "duration": 0.04425000000000523
        },
        {
          "name": "F#4",
          "midi": 66,
          "time": 206.38200000000086,
          "velocity": 0.7874015748031497,
          "duration": 0.04425000000000523
        },
        {
          "name": "D#5",
          "midi": 75,
          "time": 206.38200000000086,
          "velocity": 0.7874015748031497,
          "duration": 0.04425000000000523
        },
        {
          "name": "F#5",
          "midi": 78,
          "time": 206.38200000000086,
          "velocity": 0.7874015748031497,
          "duration": 0.04425000000000523
        },
        {
          "name": "E6",
          "midi": 88,
          "time": 206.38200000000086,
          "velocity": 0.7874015748031497,
          "duration": 0.35178750000000036
        },
        {
          "name": "F6",
          "midi": 89,
          "time": 206.38200000000086,
          "velocity": 0.7874015748031497,
          "duration": 0.35178750000000036
        },
        {
          "name": "E7",
          "midi": 100,
          "time": 206.38200000000086,
          "velocity": 0.7874015748031497,
          "duration": 0.35178750000000036
        },
        {
          "name": "F#7",
          "midi": 102,
          "time": 206.38200000000086,
          "velocity": 0.7874015748031497,
          "duration": 0.35178750000000036
        },
        {
          "name": "C#4",
          "midi": 61,
          "time": 206.73600000000087,
          "velocity": 0.7874015748031497,
          "duration": 0.043512499999991405
        },
        {
          "name": "F#4",
          "midi": 66,
          "time": 206.73600000000087,
          "velocity": 0.7874015748031497,
          "duration": 0.043512499999991405
        },
        {
          "name": "C#5",
          "midi": 73,
          "time": 206.73600000000087,
          "velocity": 0.7874015748031497,
          "duration": 0.043512499999991405
        },
        {
          "name": "F#5",
          "midi": 78,
          "time": 206.73600000000087,
          "velocity": 0.7874015748031497,
          "duration": 0.043512499999991405
        },
        {
          "name": "C#6",
          "midi": 85,
          "time": 206.73600000000087,
          "velocity": 0.7874015748031497,
          "duration": 0.043512499999991405
        },
        {
          "name": "F#6",
          "midi": 90,
          "time": 206.73600000000087,
          "velocity": 0.7874015748031497,
          "duration": 0.043512499999991405
        },
        {
          "name": "C#7",
          "midi": 97,
          "time": 206.73600000000087,
          "velocity": 0.7874015748031497,
          "duration": 0.043512499999991405
        },
        {
          "name": "F#7",
          "midi": 102,
          "time": 206.73600000000087,
          "velocity": 0.7874015748031497,
          "duration": 0.043512499999991405
        },
        {
          "name": "D#6",
          "midi": 87,
          "time": 206.91300000000086,
          "velocity": 0.7874015748031497,
          "duration": 0.043512499999991405
        },
        {
          "name": "F6",
          "midi": 89,
          "time": 206.91300000000086,
          "velocity": 0.7874015748031497,
          "duration": 0.043512499999991405
        },
        {
          "name": "D#7",
          "midi": 99,
          "time": 206.91300000000086,
          "velocity": 0.7874015748031497,
          "duration": 0.043512499999991405
        },
        {
          "name": "F#7",
          "midi": 102,
          "time": 206.91300000000086,
          "velocity": 0.7874015748031497,
          "duration": 0.043512499999991405
        },
        {
          "name": "D4",
          "midi": 62,
          "time": 207.09000000000086,
          "velocity": 0.7874015748031497,
          "duration": 0.043512499999991405
        },
        {
          "name": "F#4",
          "midi": 66,
          "time": 207.09000000000086,
          "velocity": 0.7874015748031497,
          "duration": 0.043512499999991405
        },
        {
          "name": "D#5",
          "midi": 75,
          "time": 207.09000000000086,
          "velocity": 0.7874015748031497,
          "duration": 0.043512499999991405
        },
        {
          "name": "F#5",
          "midi": 78,
          "time": 207.09000000000086,
          "velocity": 0.7874015748031497,
          "duration": 0.043512499999991405
        },
        {
          "name": "E6",
          "midi": 88,
          "time": 207.09000000000086,
          "velocity": 0.7874015748031497,
          "duration": 0.043512499999991405
        },
        {
          "name": "F6",
          "midi": 89,
          "time": 207.09000000000086,
          "velocity": 0.7874015748031497,
          "duration": 0.043512499999991405
        },
        {
          "name": "E7",
          "midi": 100,
          "time": 207.09000000000086,
          "velocity": 0.7874015748031497,
          "duration": 0.043512499999991405
        },
        {
          "name": "F#7",
          "midi": 102,
          "time": 207.09000000000086,
          "velocity": 0.7874015748031497,
          "duration": 0.043512499999991405
        },
        {
          "name": "C#4",
          "midi": 61,
          "time": 207.26626250000083,
          "velocity": 0.7874015748031497,
          "duration": 0.043512499999991405
        },
        {
          "name": "F4",
          "midi": 65,
          "time": 207.26626250000083,
          "velocity": 0.7874015748031497,
          "duration": 0.043512499999991405
        },
        {
          "name": "D5",
          "midi": 74,
          "time": 207.26626250000083,
          "velocity": 0.7874015748031497,
          "duration": 0.043512499999991405
        },
        {
          "name": "F5",
          "midi": 77,
          "time": 207.26626250000083,
          "velocity": 0.7874015748031497,
          "duration": 0.043512499999991405
        },
        {
          "name": "D6",
          "midi": 86,
          "time": 207.26626250000083,
          "velocity": 0.7874015748031497,
          "duration": 0.3532624999999996
        },
        {
          "name": "F#6",
          "midi": 90,
          "time": 207.26626250000083,
          "velocity": 0.7874015748031497,
          "duration": 0.3532624999999996
        },
        {
          "name": "D7",
          "midi": 98,
          "time": 207.26626250000083,
          "velocity": 0.7874015748031497,
          "duration": 0.3532624999999996
        },
        {
          "name": "F#7",
          "midi": 102,
          "time": 207.26626250000083,
          "velocity": 0.7874015748031497,
          "duration": 0.3532624999999996
        },
        {
          "name": "D#6",
          "midi": 87,
          "time": 207.62173750000085,
          "velocity": 0.7874015748031497,
          "duration": 0.043512499999991405
        },
        {
          "name": "F#6",
          "midi": 90,
          "time": 207.62173750000085,
          "velocity": 0.7874015748031497,
          "duration": 0.043512499999991405
        },
        {
          "name": "D#7",
          "midi": 99,
          "time": 207.62173750000085,
          "velocity": 0.7874015748031497,
          "duration": 0.043512499999991405
        },
        {
          "name": "F#7",
          "midi": 102,
          "time": 207.62173750000085,
          "velocity": 0.7874015748031497,
          "duration": 0.043512499999991405
        },
        {
          "name": "C#4",
          "midi": 61,
          "time": 207.79800000000083,
          "velocity": 0.7874015748031497,
          "duration": 0.043512499999991405
        },
        {
          "name": "F#4",
          "midi": 66,
          "time": 207.79800000000083,
          "velocity": 0.7874015748031497,
          "duration": 0.043512499999991405
        },
        {
          "name": "C#5",
          "midi": 73,
          "time": 207.79800000000083,
          "velocity": 0.7874015748031497,
          "duration": 0.043512499999991405
        },
        {
          "name": "F#5",
          "midi": 78,
          "time": 207.79800000000083,
          "velocity": 0.7874015748031497,
          "duration": 0.043512499999991405
        },
        {
          "name": "C#6",
          "midi": 85,
          "time": 207.79800000000083,
          "velocity": 0.7874015748031497,
          "duration": 0.35178750000000036
        },
        {
          "name": "F6",
          "midi": 89,
          "time": 207.79800000000083,
          "velocity": 0.7874015748031497,
          "duration": 0.35178750000000036
        },
        {
          "name": "C#7",
          "midi": 97,
          "time": 207.79800000000083,
          "velocity": 0.7874015748031497,
          "duration": 0.35178750000000036
        },
        {
          "name": "F#7",
          "midi": 102,
          "time": 207.79800000000083,
          "velocity": 0.7874015748031497,
          "duration": 0.35178750000000036
        },
        {
          "name": "C4",
          "midi": 60,
          "time": 208.15200000000084,
          "velocity": 0.7874015748031497,
          "duration": 0.04425000000000523
        },
        {
          "name": "F#4",
          "midi": 66,
          "time": 208.15200000000084,
          "velocity": 0.7874015748031497,
          "duration": 0.04425000000000523
        },
        {
          "name": "C5",
          "midi": 72,
          "time": 208.15200000000084,
          "velocity": 0.7874015748031497,
          "duration": 0.04425000000000523
        },
        {
          "name": "F#5",
          "midi": 78,
          "time": 208.15200000000084,
          "velocity": 0.7874015748031497,
          "duration": 0.04425000000000523
        },
        {
          "name": "C6",
          "midi": 84,
          "time": 208.15200000000084,
          "velocity": 0.7874015748031497,
          "duration": 0.04425000000000523
        },
        {
          "name": "F#6",
          "midi": 90,
          "time": 208.15200000000084,
          "velocity": 0.7874015748031497,
          "duration": 0.04425000000000523
        },
        {
          "name": "C7",
          "midi": 96,
          "time": 208.15200000000084,
          "velocity": 0.7874015748031497,
          "duration": 0.04425000000000523
        },
        {
          "name": "F#7",
          "midi": 102,
          "time": 208.15200000000084,
          "velocity": 0.7874015748031497,
          "duration": 0.04425000000000523
        },
        {
          "name": "D#6",
          "midi": 87,
          "time": 208.32900000000083,
          "velocity": 0.7874015748031497,
          "duration": 0.04425000000000523
        },
        {
          "name": "F6",
          "midi": 89,
          "time": 208.32900000000083,
          "velocity": 0.7874015748031497,
          "duration": 0.04425000000000523
        },
        {
          "name": "D#7",
          "midi": 99,
          "time": 208.32900000000083,
          "velocity": 0.7874015748031497,
          "duration": 0.04425000000000523
        },
        {
          "name": "F#7",
          "midi": 102,
          "time": 208.32900000000083,
          "velocity": 0.7874015748031497,
          "duration": 0.04425000000000523
        },
        {
          "name": "D4",
          "midi": 62,
          "time": 208.50600000000082,
          "velocity": 0.7874015748031497,
          "duration": 0.04425000000000523
        },
        {
          "name": "F#4",
          "midi": 66,
          "time": 208.50600000000082,
          "velocity": 0.7874015748031497,
          "duration": 0.04425000000000523
        },
        {
          "name": "D#5",
          "midi": 75,
          "time": 208.50600000000082,
          "velocity": 0.7874015748031497,
          "duration": 0.04425000000000523
        },
        {
          "name": "F#5",
          "midi": 78,
          "time": 208.50600000000082,
          "velocity": 0.7874015748031497,
          "duration": 0.04425000000000523
        },
        {
          "name": "E6",
          "midi": 88,
          "time": 208.50600000000082,
          "velocity": 0.7874015748031497,
          "duration": 0.04425000000000523
        },
        {
          "name": "F6",
          "midi": 89,
          "time": 208.50600000000082,
          "velocity": 0.7874015748031497,
          "duration": 0.04425000000000523
        },
        {
          "name": "E7",
          "midi": 100,
          "time": 208.50600000000082,
          "velocity": 0.7874015748031497,
          "duration": 0.04425000000000523
        },
        {
          "name": "F#7",
          "midi": 102,
          "time": 208.50600000000082,
          "velocity": 0.7874015748031497,
          "duration": 0.04425000000000523
        },
        {
          "name": "C#4",
          "midi": 61,
          "time": 208.68300000000082,
          "velocity": 0.7874015748031497,
          "duration": 0.04425000000000523
        },
        {
          "name": "F4",
          "midi": 65,
          "time": 208.68300000000082,
          "velocity": 0.7874015748031497,
          "duration": 0.04425000000000523
        },
        {
          "name": "C#5",
          "midi": 73,
          "time": 208.68300000000082,
          "velocity": 0.7874015748031497,
          "duration": 0.04425000000000523
        },
        {
          "name": "F5",
          "midi": 77,
          "time": 208.68300000000082,
          "velocity": 0.7874015748031497,
          "duration": 0.04425000000000523
        },
        {
          "name": "C#6",
          "midi": 85,
          "time": 208.68300000000082,
          "velocity": 0.7874015748031497,
          "duration": 0.3525250000000142
        },
        {
          "name": "F#6",
          "midi": 90,
          "time": 208.68300000000082,
          "velocity": 0.7874015748031497,
          "duration": 0.3525250000000142
        },
        {
          "name": "C#7",
          "midi": 97,
          "time": 208.68300000000082,
          "velocity": 0.7874015748031497,
          "duration": 0.3525250000000142
        },
        {
          "name": "F#7",
          "midi": 102,
          "time": 208.68300000000082,
          "velocity": 0.7874015748031497,
          "duration": 0.3525250000000142
        },
        {
          "name": "D#6",
          "midi": 87,
          "time": 209.03773750000084,
          "velocity": 0.7874015748031497,
          "duration": 0.042775000000006
        },
        {
          "name": "F#6",
          "midi": 90,
          "time": 209.03773750000084,
          "velocity": 0.7874015748031497,
          "duration": 0.042775000000006
        },
        {
          "name": "D#7",
          "midi": 99,
          "time": 209.03773750000084,
          "velocity": 0.7874015748031497,
          "duration": 0.042775000000006
        },
        {
          "name": "F#7",
          "midi": 102,
          "time": 209.03773750000084,
          "velocity": 0.7874015748031497,
          "duration": 0.042775000000006
        },
        {
          "name": "D4",
          "midi": 62,
          "time": 209.21400000000085,
          "velocity": 0.7874015748031497,
          "duration": 0.043512499999991405
        },
        {
          "name": "F#4",
          "midi": 66,
          "time": 209.21400000000085,
          "velocity": 0.7874015748031497,
          "duration": 0.043512499999991405
        },
        {
          "name": "D#5",
          "midi": 75,
          "time": 209.21400000000085,
          "velocity": 0.7874015748031497,
          "duration": 0.043512499999991405
        },
        {
          "name": "F#5",
          "midi": 78,
          "time": 209.21400000000085,
          "velocity": 0.7874015748031497,
          "duration": 0.043512499999991405
        },
        {
          "name": "E6",
          "midi": 88,
          "time": 209.21400000000085,
          "velocity": 0.7874015748031497,
          "duration": 0.043512499999991405
        },
        {
          "name": "F6",
          "midi": 89,
          "time": 209.21400000000085,
          "velocity": 0.7874015748031497,
          "duration": 0.043512499999991405
        },
        {
          "name": "E7",
          "midi": 100,
          "time": 209.21400000000085,
          "velocity": 0.7874015748031497,
          "duration": 0.043512499999991405
        },
        {
          "name": "F#7",
          "midi": 102,
          "time": 209.21400000000085,
          "velocity": 0.7874015748031497,
          "duration": 0.043512499999991405
        },
        {
          "name": "D#7",
          "midi": 99,
          "time": 209.39100000000084,
          "velocity": 0.7874015748031497,
          "duration": 0.043512499999991405
        },
        {
          "name": "F#7",
          "midi": 102,
          "time": 209.39100000000084,
          "velocity": 0.7874015748031497,
          "duration": 0.043512499999991405
        },
        {
          "name": "C#4",
          "midi": 61,
          "time": 209.56800000000084,
          "velocity": 0.7874015748031497,
          "duration": 0.043512499999991405
        },
        {
          "name": "F#4",
          "midi": 66,
          "time": 209.56800000000084,
          "velocity": 0.7874015748031497,
          "duration": 0.043512499999991405
        },
        {
          "name": "D5",
          "midi": 74,
          "time": 209.56800000000084,
          "velocity": 0.7874015748031497,
          "duration": 0.043512499999991405
        },
        {
          "name": "F#5",
          "midi": 78,
          "time": 209.56800000000084,
          "velocity": 0.7874015748031497,
          "duration": 0.043512499999991405
        },
        {
          "name": "D6",
          "midi": 86,
          "time": 209.56800000000084,
          "velocity": 0.7874015748031497,
          "duration": 0.043512499999991405
        },
        {
          "name": "F#6",
          "midi": 90,
          "time": 209.56800000000084,
          "velocity": 0.7874015748031497,
          "duration": 0.043512499999991405
        },
        {
          "name": "D7",
          "midi": 98,
          "time": 209.56800000000084,
          "velocity": 0.7874015748031497,
          "duration": 0.043512499999991405
        },
        {
          "name": "F#7",
          "midi": 102,
          "time": 209.56800000000084,
          "velocity": 0.7874015748031497,
          "duration": 0.043512499999991405
        },
        {
          "name": "D#6",
          "midi": 87,
          "time": 209.74426250000081,
          "velocity": 0.7874015748031497,
          "duration": 0.043512499999991405
        },
        {
          "name": "F6",
          "midi": 89,
          "time": 209.74426250000081,
          "velocity": 0.7874015748031497,
          "duration": 0.043512499999991405
        },
        {
          "name": "D#7",
          "midi": 99,
          "time": 209.74426250000081,
          "velocity": 0.7874015748031497,
          "duration": 0.043512499999991405
        },
        {
          "name": "F#7",
          "midi": 102,
          "time": 209.74426250000081,
          "velocity": 0.7874015748031497,
          "duration": 0.043512499999991405
        },
        {
          "name": "D4",
          "midi": 62,
          "time": 209.9220000000008,
          "velocity": 0.7874015748031497,
          "duration": 0.043512499999991405
        },
        {
          "name": "F#4",
          "midi": 66,
          "time": 209.9220000000008,
          "velocity": 0.7874015748031497,
          "duration": 0.043512499999991405
        },
        {
          "name": "D#5",
          "midi": 75,
          "time": 209.9220000000008,
          "velocity": 0.7874015748031497,
          "duration": 0.043512499999991405
        },
        {
          "name": "F#5",
          "midi": 78,
          "time": 209.9220000000008,
          "velocity": 0.7874015748031497,
          "duration": 0.043512499999991405
        },
        {
          "name": "E6",
          "midi": 88,
          "time": 209.9220000000008,
          "velocity": 0.7874015748031497,
          "duration": 0.043512499999991405
        },
        {
          "name": "F6",
          "midi": 89,
          "time": 209.9220000000008,
          "velocity": 0.7874015748031497,
          "duration": 0.043512499999991405
        },
        {
          "name": "E7",
          "midi": 100,
          "time": 209.9220000000008,
          "velocity": 0.7874015748031497,
          "duration": 0.043512499999991405
        },
        {
          "name": "F#7",
          "midi": 102,
          "time": 209.9220000000008,
          "velocity": 0.7874015748031497,
          "duration": 0.043512499999991405
        },
        {
          "name": "C#4",
          "midi": 61,
          "time": 210.09973750000077,
          "velocity": 0.7874015748031497,
          "duration": 0.042775000000006
        },
        {
          "name": "F4",
          "midi": 65,
          "time": 210.09973750000077,
          "velocity": 0.7874015748031497,
          "duration": 0.042775000000006
        },
        {
          "name": "C#5",
          "midi": 73,
          "time": 210.09973750000077,
          "velocity": 0.7874015748031497,
          "duration": 0.042775000000006
        },
        {
          "name": "F5",
          "midi": 77,
          "time": 210.09973750000077,
          "velocity": 0.7874015748031497,
          "duration": 0.042775000000006
        },
        {
          "name": "C#6",
          "midi": 85,
          "time": 210.09973750000077,
          "velocity": 0.7874015748031497,
          "duration": 0.35178750000000036
        },
        {
          "name": "F#6",
          "midi": 90,
          "time": 210.09973750000077,
          "velocity": 0.7874015748031497,
          "duration": 0.35178750000000036
        },
        {
          "name": "C#7",
          "midi": 97,
          "time": 210.09973750000077,
          "velocity": 0.7874015748031497,
          "duration": 0.35178750000000036
        },
        {
          "name": "F#7",
          "midi": 102,
          "time": 210.09973750000077,
          "velocity": 0.7874015748031497,
          "duration": 0.35178750000000036
        },
        {
          "name": "D#6",
          "midi": 87,
          "time": 210.45373750000078,
          "velocity": 0.7874015748031497,
          "duration": 0.042775000000006
        },
        {
          "name": "F#6",
          "midi": 90,
          "time": 210.45373750000078,
          "velocity": 0.7874015748031497,
          "duration": 0.042775000000006
        },
        {
          "name": "D#7",
          "midi": 99,
          "time": 210.45373750000078,
          "velocity": 0.7874015748031497,
          "duration": 0.042775000000006
        },
        {
          "name": "F#7",
          "midi": 102,
          "time": 210.45373750000078,
          "velocity": 0.7874015748031497,
          "duration": 0.042775000000006
        },
        {
          "name": "D4",
          "midi": 62,
          "time": 210.6300000000008,
          "velocity": 0.7874015748031497,
          "duration": 0.043512499999991405
        },
        {
          "name": "F#4",
          "midi": 66,
          "time": 210.6300000000008,
          "velocity": 0.7874015748031497,
          "duration": 0.043512499999991405
        },
        {
          "name": "D#5",
          "midi": 75,
          "time": 210.6300000000008,
          "velocity": 0.7874015748031497,
          "duration": 0.043512499999991405
        },
        {
          "name": "F#5",
          "midi": 78,
          "time": 210.6300000000008,
          "velocity": 0.7874015748031497,
          "duration": 0.043512499999991405
        },
        {
          "name": "E6",
          "midi": 88,
          "time": 210.6300000000008,
          "velocity": 0.7874015748031497,
          "duration": 0.043512499999991405
        },
        {
          "name": "F6",
          "midi": 89,
          "time": 210.6300000000008,
          "velocity": 0.7874015748031497,
          "duration": 0.043512499999991405
        },
        {
          "name": "E7",
          "midi": 100,
          "time": 210.6300000000008,
          "velocity": 0.7874015748031497,
          "duration": 0.043512499999991405
        },
        {
          "name": "F#7",
          "midi": 102,
          "time": 210.6300000000008,
          "velocity": 0.7874015748031497,
          "duration": 0.043512499999991405
        },
        {
          "name": "D#7",
          "midi": 99,
          "time": 210.80700000000078,
          "velocity": 0.7874015748031497,
          "duration": 0.043512499999991405
        },
        {
          "name": "F#7",
          "midi": 102,
          "time": 210.80700000000078,
          "velocity": 0.7874015748031497,
          "duration": 0.043512499999991405
        },
        {
          "name": "C4",
          "midi": 60,
          "time": 210.98400000000078,
          "velocity": 0.7874015748031497,
          "duration": 0.043512499999991405
        },
        {
          "name": "F#4",
          "midi": 66,
          "time": 210.98400000000078,
          "velocity": 0.7874015748031497,
          "duration": 0.043512499999991405
        },
        {
          "name": "C5",
          "midi": 72,
          "time": 210.98400000000078,
          "velocity": 0.7874015748031497,
          "duration": 0.043512499999991405
        },
        {
          "name": "F#5",
          "midi": 78,
          "time": 210.98400000000078,
          "velocity": 0.7874015748031497,
          "duration": 0.043512499999991405
        },
        {
          "name": "C6",
          "midi": 84,
          "time": 210.98400000000078,
          "velocity": 0.7874015748031497,
          "duration": 0.043512499999991405
        },
        {
          "name": "F#6",
          "midi": 90,
          "time": 210.98400000000078,
          "velocity": 0.7874015748031497,
          "duration": 0.043512499999991405
        },
        {
          "name": "C7",
          "midi": 96,
          "time": 210.98400000000078,
          "velocity": 0.7874015748031497,
          "duration": 0.043512499999991405
        },
        {
          "name": "F#7",
          "midi": 102,
          "time": 210.98400000000078,
          "velocity": 0.7874015748031497,
          "duration": 0.043512499999991405
        },
        {
          "name": "D#6",
          "midi": 87,
          "time": 211.16173750000075,
          "velocity": 0.7874015748031497,
          "duration": 0.043512499999991405
        },
        {
          "name": "F6",
          "midi": 89,
          "time": 211.16173750000075,
          "velocity": 0.7874015748031497,
          "duration": 0.043512499999991405
        },
        {
          "name": "D#7",
          "midi": 99,
          "time": 211.16173750000075,
          "velocity": 0.7874015748031497,
          "duration": 0.043512499999991405
        },
        {
          "name": "F#7",
          "midi": 102,
          "time": 211.16173750000075,
          "velocity": 0.7874015748031497,
          "duration": 0.043512499999991405
        },
        {
          "name": "D4",
          "midi": 62,
          "time": 211.33800000000073,
          "velocity": 0.7874015748031497,
          "duration": 0.04498749999999063
        },
        {
          "name": "F#4",
          "midi": 66,
          "time": 211.33800000000073,
          "velocity": 0.7874015748031497,
          "duration": 0.04498749999999063
        },
        {
          "name": "D#5",
          "midi": 75,
          "time": 211.33800000000073,
          "velocity": 0.7874015748031497,
          "duration": 0.04498749999999063
        },
        {
          "name": "F#5",
          "midi": 78,
          "time": 211.33800000000073,
          "velocity": 0.7874015748031497,
          "duration": 0.04498749999999063
        },
        {
          "name": "E6",
          "midi": 88,
          "time": 211.33800000000073,
          "velocity": 0.7874015748031497,
          "duration": 0.04498749999999063
        },
        {
          "name": "F6",
          "midi": 89,
          "time": 211.33800000000073,
          "velocity": 0.7874015748031497,
          "duration": 0.04498749999999063
        },
        {
          "name": "E7",
          "midi": 100,
          "time": 211.33800000000073,
          "velocity": 0.7874015748031497,
          "duration": 0.04498749999999063
        },
        {
          "name": "F#7",
          "midi": 102,
          "time": 211.33800000000073,
          "velocity": 0.7874015748031497,
          "duration": 0.04498749999999063
        },
        {
          "name": "C#4",
          "midi": 61,
          "time": 211.51500000000073,
          "velocity": 0.7874015748031497,
          "duration": 0.043512499999991405
        },
        {
          "name": "F4",
          "midi": 65,
          "time": 211.51500000000073,
          "velocity": 0.7874015748031497,
          "duration": 0.043512499999991405
        },
        {
          "name": "D5",
          "midi": 74,
          "time": 211.51500000000073,
          "velocity": 0.7874015748031497,
          "duration": 0.043512499999991405
        },
        {
          "name": "F5",
          "midi": 77,
          "time": 211.51500000000073,
          "velocity": 0.7874015748031497,
          "duration": 0.043512499999991405
        },
        {
          "name": "D6",
          "midi": 86,
          "time": 211.51500000000073,
          "velocity": 0.7874015748031497,
          "duration": 0.35178750000000036
        },
        {
          "name": "F#6",
          "midi": 90,
          "time": 211.51500000000073,
          "velocity": 0.7874015748031497,
          "duration": 0.35178750000000036
        },
        {
          "name": "D7",
          "midi": 98,
          "time": 211.51500000000073,
          "velocity": 0.7874015748031497,
          "duration": 0.35178750000000036
        },
        {
          "name": "F#7",
          "midi": 102,
          "time": 211.51500000000073,
          "velocity": 0.7874015748031497,
          "duration": 0.35178750000000036
        },
        {
          "name": "D#6",
          "midi": 87,
          "time": 211.86900000000074,
          "velocity": 0.7874015748031497,
          "duration": 0.043512499999991405
        },
        {
          "name": "F#6",
          "midi": 90,
          "time": 211.86900000000074,
          "velocity": 0.7874015748031497,
          "duration": 0.043512499999991405
        },
        {
          "name": "D#7",
          "midi": 99,
          "time": 211.86900000000074,
          "velocity": 0.7874015748031497,
          "duration": 0.043512499999991405
        },
        {
          "name": "F#7",
          "midi": 102,
          "time": 211.86900000000074,
          "velocity": 0.7874015748031497,
          "duration": 0.043512499999991405
        },
        {
          "name": "D4",
          "midi": 62,
          "time": 212.04600000000073,
          "velocity": 0.7874015748031497,
          "duration": 0.043512499999991405
        },
        {
          "name": "F#4",
          "midi": 66,
          "time": 212.04600000000073,
          "velocity": 0.7874015748031497,
          "duration": 0.043512499999991405
        },
        {
          "name": "D#5",
          "midi": 75,
          "time": 212.04600000000073,
          "velocity": 0.7874015748031497,
          "duration": 0.043512499999991405
        },
        {
          "name": "F#5",
          "midi": 78,
          "time": 212.04600000000073,
          "velocity": 0.7874015748031497,
          "duration": 0.043512499999991405
        },
        {
          "name": "E6",
          "midi": 88,
          "time": 212.04600000000073,
          "velocity": 0.7874015748031497,
          "duration": 0.35178750000000036
        },
        {
          "name": "F6",
          "midi": 89,
          "time": 212.04600000000073,
          "velocity": 0.7874015748031497,
          "duration": 0.35178750000000036
        },
        {
          "name": "E7",
          "midi": 100,
          "time": 212.04600000000073,
          "velocity": 0.7874015748031497,
          "duration": 0.35178750000000036
        },
        {
          "name": "F#7",
          "midi": 102,
          "time": 212.04600000000073,
          "velocity": 0.7874015748031497,
          "duration": 0.35178750000000036
        },
        {
          "name": "C#4",
          "midi": 61,
          "time": 212.40000000000074,
          "velocity": 0.7874015748031497,
          "duration": 0.043512499999991405
        },
        {
          "name": "F#4",
          "midi": 66,
          "time": 212.40000000000074,
          "velocity": 0.7874015748031497,
          "duration": 0.043512499999991405
        },
        {
          "name": "C#5",
          "midi": 73,
          "time": 212.40000000000074,
          "velocity": 0.7874015748031497,
          "duration": 0.043512499999991405
        },
        {
          "name": "F#5",
          "midi": 78,
          "time": 212.40000000000074,
          "velocity": 0.7874015748031497,
          "duration": 0.043512499999991405
        },
        {
          "name": "C#6",
          "midi": 85,
          "time": 212.40000000000074,
          "velocity": 0.7874015748031497,
          "duration": 0.043512499999991405
        },
        {
          "name": "F#6",
          "midi": 90,
          "time": 212.40000000000074,
          "velocity": 0.7874015748031497,
          "duration": 0.043512499999991405
        },
        {
          "name": "C#7",
          "midi": 97,
          "time": 212.40000000000074,
          "velocity": 0.7874015748031497,
          "duration": 0.043512499999991405
        },
        {
          "name": "F#7",
          "midi": 102,
          "time": 212.40000000000074,
          "velocity": 0.7874015748031497,
          "duration": 0.043512499999991405
        },
        {
          "name": "D#6",
          "midi": 87,
          "time": 212.57700000000074,
          "velocity": 0.7874015748031497,
          "duration": 0.043512499999991405
        },
        {
          "name": "F6",
          "midi": 89,
          "time": 212.57700000000074,
          "velocity": 0.7874015748031497,
          "duration": 0.043512499999991405
        },
        {
          "name": "D#7",
          "midi": 99,
          "time": 212.57700000000074,
          "velocity": 0.7874015748031497,
          "duration": 0.043512499999991405
        },
        {
          "name": "F#7",
          "midi": 102,
          "time": 212.57700000000074,
          "velocity": 0.7874015748031497,
          "duration": 0.043512499999991405
        },
        {
          "name": "D4",
          "midi": 62,
          "time": 212.75400000000073,
          "velocity": 0.7874015748031497,
          "duration": 0.043512499999991405
        },
        {
          "name": "F#4",
          "midi": 66,
          "time": 212.75400000000073,
          "velocity": 0.7874015748031497,
          "duration": 0.043512499999991405
        },
        {
          "name": "D#5",
          "midi": 75,
          "time": 212.75400000000073,
          "velocity": 0.7874015748031497,
          "duration": 0.043512499999991405
        },
        {
          "name": "F#5",
          "midi": 78,
          "time": 212.75400000000073,
          "velocity": 0.7874015748031497,
          "duration": 0.043512499999991405
        },
        {
          "name": "E6",
          "midi": 88,
          "time": 212.75400000000073,
          "velocity": 0.7874015748031497,
          "duration": 0.043512499999991405
        },
        {
          "name": "F6",
          "midi": 89,
          "time": 212.75400000000073,
          "velocity": 0.7874015748031497,
          "duration": 0.043512499999991405
        },
        {
          "name": "E7",
          "midi": 100,
          "time": 212.75400000000073,
          "velocity": 0.7874015748031497,
          "duration": 0.043512499999991405
        },
        {
          "name": "F#7",
          "midi": 102,
          "time": 212.75400000000073,
          "velocity": 0.7874015748031497,
          "duration": 0.043512499999991405
        },
        {
          "name": "C#4",
          "midi": 61,
          "time": 212.93100000000072,
          "velocity": 0.7874015748031497,
          "duration": 0.043512499999991405
        },
        {
          "name": "F4",
          "midi": 65,
          "time": 212.93100000000072,
          "velocity": 0.7874015748031497,
          "duration": 0.043512499999991405
        },
        {
          "name": "D5",
          "midi": 74,
          "time": 212.93100000000072,
          "velocity": 0.7874015748031497,
          "duration": 0.043512499999991405
        },
        {
          "name": "F5",
          "midi": 77,
          "time": 212.93100000000072,
          "velocity": 0.7874015748031497,
          "duration": 0.043512499999991405
        },
        {
          "name": "D6",
          "midi": 86,
          "time": 212.93100000000072,
          "velocity": 0.7874015748031497,
          "duration": 0.35178750000000036
        },
        {
          "name": "F#6",
          "midi": 90,
          "time": 212.93100000000072,
          "velocity": 0.7874015748031497,
          "duration": 0.35178750000000036
        },
        {
          "name": "D7",
          "midi": 98,
          "time": 212.93100000000072,
          "velocity": 0.7874015748031497,
          "duration": 0.35178750000000036
        },
        {
          "name": "F#7",
          "midi": 102,
          "time": 212.93100000000072,
          "velocity": 0.7874015748031497,
          "duration": 0.35178750000000036
        },
        {
          "name": "D#6",
          "midi": 87,
          "time": 213.28500000000074,
          "velocity": 0.7874015748031497,
          "duration": 0.043512499999991405
        },
        {
          "name": "F#6",
          "midi": 90,
          "time": 213.28500000000074,
          "velocity": 0.7874015748031497,
          "duration": 0.043512499999991405
        },
        {
          "name": "D#7",
          "midi": 99,
          "time": 213.28500000000074,
          "velocity": 0.7874015748031497,
          "duration": 0.043512499999991405
        },
        {
          "name": "F#7",
          "midi": 102,
          "time": 213.28500000000074,
          "velocity": 0.7874015748031497,
          "duration": 0.043512499999991405
        },
        {
          "name": "C#4",
          "midi": 61,
          "time": 213.46200000000073,
          "velocity": 0.7874015748031497,
          "duration": 0.043512499999991405
        },
        {
          "name": "F#4",
          "midi": 66,
          "time": 213.46200000000073,
          "velocity": 0.7874015748031497,
          "duration": 0.043512499999991405
        },
        {
          "name": "C#5",
          "midi": 73,
          "time": 213.46200000000073,
          "velocity": 0.7874015748031497,
          "duration": 0.043512499999991405
        },
        {
          "name": "F#5",
          "midi": 78,
          "time": 213.46200000000073,
          "velocity": 0.7874015748031497,
          "duration": 0.043512499999991405
        },
        {
          "name": "C#6",
          "midi": 85,
          "time": 213.46200000000073,
          "velocity": 0.7874015748031497,
          "duration": 0.35178750000000036
        },
        {
          "name": "F6",
          "midi": 89,
          "time": 213.46200000000073,
          "velocity": 0.7874015748031497,
          "duration": 0.35178750000000036
        },
        {
          "name": "C#7",
          "midi": 97,
          "time": 213.46200000000073,
          "velocity": 0.7874015748031497,
          "duration": 0.35178750000000036
        },
        {
          "name": "F#7",
          "midi": 102,
          "time": 213.46200000000073,
          "velocity": 0.7874015748031497,
          "duration": 0.35178750000000036
        },
        {
          "name": "C4",
          "midi": 60,
          "time": 213.81600000000074,
          "velocity": 0.7874015748031497,
          "duration": 0.043512499999991405
        },
        {
          "name": "F#4",
          "midi": 66,
          "time": 213.81600000000074,
          "velocity": 0.7874015748031497,
          "duration": 0.043512499999991405
        },
        {
          "name": "C5",
          "midi": 72,
          "time": 213.81600000000074,
          "velocity": 0.7874015748031497,
          "duration": 0.043512499999991405
        },
        {
          "name": "F#5",
          "midi": 78,
          "time": 213.81600000000074,
          "velocity": 0.7874015748031497,
          "duration": 0.043512499999991405
        },
        {
          "name": "C6",
          "midi": 84,
          "time": 213.81600000000074,
          "velocity": 0.7874015748031497,
          "duration": 0.043512499999991405
        },
        {
          "name": "F#6",
          "midi": 90,
          "time": 213.81600000000074,
          "velocity": 0.7874015748031497,
          "duration": 0.043512499999991405
        },
        {
          "name": "C7",
          "midi": 96,
          "time": 213.81600000000074,
          "velocity": 0.7874015748031497,
          "duration": 0.043512499999991405
        },
        {
          "name": "F#7",
          "midi": 102,
          "time": 213.81600000000074,
          "velocity": 0.7874015748031497,
          "duration": 0.043512499999991405
        },
        {
          "name": "D#6",
          "midi": 87,
          "time": 213.99300000000073,
          "velocity": 0.7874015748031497,
          "duration": 0.043512499999991405
        },
        {
          "name": "F6",
          "midi": 89,
          "time": 213.99300000000073,
          "velocity": 0.7874015748031497,
          "duration": 0.043512499999991405
        },
        {
          "name": "D#7",
          "midi": 99,
          "time": 213.99300000000073,
          "velocity": 0.7874015748031497,
          "duration": 0.043512499999991405
        },
        {
          "name": "F#7",
          "midi": 102,
          "time": 213.99300000000073,
          "velocity": 0.7874015748031497,
          "duration": 0.043512499999991405
        },
        {
          "name": "D4",
          "midi": 62,
          "time": 214.17000000000073,
          "velocity": 0.7874015748031497,
          "duration": 0.043512499999991405
        },
        {
          "name": "F#4",
          "midi": 66,
          "time": 214.17000000000073,
          "velocity": 0.7874015748031497,
          "duration": 0.043512499999991405
        },
        {
          "name": "D#5",
          "midi": 75,
          "time": 214.17000000000073,
          "velocity": 0.7874015748031497,
          "duration": 0.043512499999991405
        },
        {
          "name": "F#5",
          "midi": 78,
          "time": 214.17000000000073,
          "velocity": 0.7874015748031497,
          "duration": 0.043512499999991405
        },
        {
          "name": "E6",
          "midi": 88,
          "time": 214.17000000000073,
          "velocity": 0.7874015748031497,
          "duration": 0.043512499999991405
        },
        {
          "name": "F6",
          "midi": 89,
          "time": 214.17000000000073,
          "velocity": 0.7874015748031497,
          "duration": 0.043512499999991405
        },
        {
          "name": "E7",
          "midi": 100,
          "time": 214.17000000000073,
          "velocity": 0.7874015748031497,
          "duration": 0.043512499999991405
        },
        {
          "name": "F#7",
          "midi": 102,
          "time": 214.17000000000073,
          "velocity": 0.7874015748031497,
          "duration": 0.043512499999991405
        },
        {
          "name": "C#4",
          "midi": 61,
          "time": 214.34700000000072,
          "velocity": 0.7874015748031497,
          "duration": 0.043512499999991405
        },
        {
          "name": "F4",
          "midi": 65,
          "time": 214.34700000000072,
          "velocity": 0.7874015748031497,
          "duration": 0.043512499999991405
        },
        {
          "name": "C#5",
          "midi": 73,
          "time": 214.34700000000072,
          "velocity": 0.7874015748031497,
          "duration": 0.043512499999991405
        },
        {
          "name": "F5",
          "midi": 77,
          "time": 214.34700000000072,
          "velocity": 0.7874015748031497,
          "duration": 0.043512499999991405
        },
        {
          "name": "C#6",
          "midi": 85,
          "time": 214.34700000000072,
          "velocity": 0.7874015748031497,
          "duration": 0.35252499999998577
        },
        {
          "name": "F#6",
          "midi": 90,
          "time": 214.34700000000072,
          "velocity": 0.7874015748031497,
          "duration": 0.35252499999998577
        },
        {
          "name": "C#7",
          "midi": 97,
          "time": 214.34700000000072,
          "velocity": 0.7874015748031497,
          "duration": 0.35252499999998577
        },
        {
          "name": "F#7",
          "midi": 102,
          "time": 214.34700000000072,
          "velocity": 0.7874015748031497,
          "duration": 0.35252499999998577
        },
        {
          "name": "D#6",
          "midi": 87,
          "time": 214.70173750000072,
          "velocity": 0.7874015748031497,
          "duration": 0.043512499999991405
        },
        {
          "name": "F#6",
          "midi": 90,
          "time": 214.70173750000072,
          "velocity": 0.7874015748031497,
          "duration": 0.043512499999991405
        },
        {
          "name": "D#7",
          "midi": 99,
          "time": 214.70173750000072,
          "velocity": 0.7874015748031497,
          "duration": 0.043512499999991405
        },
        {
          "name": "F#7",
          "midi": 102,
          "time": 214.70173750000072,
          "velocity": 0.7874015748031497,
          "duration": 0.043512499999991405
        },
        {
          "name": "D4",
          "midi": 62,
          "time": 214.8780000000007,
          "velocity": 0.7874015748031497,
          "duration": 0.043512499999991405
        },
        {
          "name": "F#4",
          "midi": 66,
          "time": 214.8780000000007,
          "velocity": 0.7874015748031497,
          "duration": 0.043512499999991405
        },
        {
          "name": "D#5",
          "midi": 75,
          "time": 214.8780000000007,
          "velocity": 0.7874015748031497,
          "duration": 0.043512499999991405
        },
        {
          "name": "F#5",
          "midi": 78,
          "time": 214.8780000000007,
          "velocity": 0.7874015748031497,
          "duration": 0.043512499999991405
        },
        {
          "name": "E6",
          "midi": 88,
          "time": 214.8780000000007,
          "velocity": 0.7874015748031497,
          "duration": 0.043512499999991405
        },
        {
          "name": "F6",
          "midi": 89,
          "time": 214.8780000000007,
          "velocity": 0.7874015748031497,
          "duration": 0.043512499999991405
        },
        {
          "name": "E7",
          "midi": 100,
          "time": 214.8780000000007,
          "velocity": 0.7874015748031497,
          "duration": 0.043512499999991405
        },
        {
          "name": "F#7",
          "midi": 102,
          "time": 214.8780000000007,
          "velocity": 0.7874015748031497,
          "duration": 0.043512499999991405
        },
        {
          "name": "D#7",
          "midi": 99,
          "time": 215.05573750000067,
          "velocity": 0.7874015748031497,
          "duration": 0.043512499999991405
        },
        {
          "name": "F#7",
          "midi": 102,
          "time": 215.05573750000067,
          "velocity": 0.7874015748031497,
          "duration": 0.043512499999991405
        },
        {
          "name": "C#4",
          "midi": 61,
          "time": 215.23200000000065,
          "velocity": 0.7874015748031497,
          "duration": 0.043512499999991405
        },
        {
          "name": "F#4",
          "midi": 66,
          "time": 215.23200000000065,
          "velocity": 0.7874015748031497,
          "duration": 0.043512499999991405
        },
        {
          "name": "D5",
          "midi": 74,
          "time": 215.23200000000065,
          "velocity": 0.7874015748031497,
          "duration": 0.043512499999991405
        },
        {
          "name": "F#5",
          "midi": 78,
          "time": 215.23200000000065,
          "velocity": 0.7874015748031497,
          "duration": 0.043512499999991405
        },
        {
          "name": "D6",
          "midi": 86,
          "time": 215.23200000000065,
          "velocity": 0.7874015748031497,
          "duration": 0.043512499999991405
        },
        {
          "name": "F#6",
          "midi": 90,
          "time": 215.23200000000065,
          "velocity": 0.7874015748031497,
          "duration": 0.043512499999991405
        },
        {
          "name": "D7",
          "midi": 98,
          "time": 215.23200000000065,
          "velocity": 0.7874015748031497,
          "duration": 0.043512499999991405
        },
        {
          "name": "F#7",
          "midi": 102,
          "time": 215.23200000000065,
          "velocity": 0.7874015748031497,
          "duration": 0.043512499999991405
        },
        {
          "name": "D#6",
          "midi": 87,
          "time": 215.40900000000065,
          "velocity": 0.7874015748031497,
          "duration": 0.043512499999991405
        },
        {
          "name": "F6",
          "midi": 89,
          "time": 215.40900000000065,
          "velocity": 0.7874015748031497,
          "duration": 0.043512499999991405
        },
        {
          "name": "D#7",
          "midi": 99,
          "time": 215.40900000000065,
          "velocity": 0.7874015748031497,
          "duration": 0.043512499999991405
        },
        {
          "name": "F#7",
          "midi": 102,
          "time": 215.40900000000065,
          "velocity": 0.7874015748031497,
          "duration": 0.043512499999991405
        },
        {
          "name": "D4",
          "midi": 62,
          "time": 215.58600000000064,
          "velocity": 0.7874015748031497,
          "duration": 0.043512499999991405
        },
        {
          "name": "F#4",
          "midi": 66,
          "time": 215.58600000000064,
          "velocity": 0.7874015748031497,
          "duration": 0.043512499999991405
        },
        {
          "name": "D#5",
          "midi": 75,
          "time": 215.58600000000064,
          "velocity": 0.7874015748031497,
          "duration": 0.043512499999991405
        },
        {
          "name": "F#5",
          "midi": 78,
          "time": 215.58600000000064,
          "velocity": 0.7874015748031497,
          "duration": 0.043512499999991405
        },
        {
          "name": "E6",
          "midi": 88,
          "time": 215.58600000000064,
          "velocity": 0.7874015748031497,
          "duration": 0.043512499999991405
        },
        {
          "name": "F6",
          "midi": 89,
          "time": 215.58600000000064,
          "velocity": 0.7874015748031497,
          "duration": 0.043512499999991405
        },
        {
          "name": "E7",
          "midi": 100,
          "time": 215.58600000000064,
          "velocity": 0.7874015748031497,
          "duration": 0.043512499999991405
        },
        {
          "name": "F#7",
          "midi": 102,
          "time": 215.58600000000064,
          "velocity": 0.7874015748031497,
          "duration": 0.043512499999991405
        },
        {
          "name": "C#4",
          "midi": 61,
          "time": 215.76373750000062,
          "velocity": 0.7874015748031497,
          "duration": 0.043512499999991405
        },
        {
          "name": "F4",
          "midi": 65,
          "time": 215.76373750000062,
          "velocity": 0.7874015748031497,
          "duration": 0.043512499999991405
        },
        {
          "name": "C#5",
          "midi": 73,
          "time": 215.76373750000062,
          "velocity": 0.7874015748031497,
          "duration": 0.043512499999991405
        },
        {
          "name": "F5",
          "midi": 77,
          "time": 215.76373750000062,
          "velocity": 0.7874015748031497,
          "duration": 0.043512499999991405
        },
        {
          "name": "C#6",
          "midi": 85,
          "time": 215.76373750000062,
          "velocity": 0.7874015748031497,
          "duration": 0.35178750000000036
        },
        {
          "name": "F#6",
          "midi": 90,
          "time": 215.76373750000062,
          "velocity": 0.7874015748031497,
          "duration": 0.35178750000000036
        },
        {
          "name": "C#7",
          "midi": 97,
          "time": 215.76373750000062,
          "velocity": 0.7874015748031497,
          "duration": 0.35178750000000036
        },
        {
          "name": "F#7",
          "midi": 102,
          "time": 215.76373750000062,
          "velocity": 0.7874015748031497,
          "duration": 0.35178750000000036
        },
        {
          "name": "D#6",
          "midi": 87,
          "time": 216.11773750000063,
          "velocity": 0.7874015748031497,
          "duration": 0.042775000000006
        },
        {
          "name": "F#6",
          "midi": 90,
          "time": 216.11773750000063,
          "velocity": 0.7874015748031497,
          "duration": 0.042775000000006
        },
        {
          "name": "D#7",
          "midi": 99,
          "time": 216.11773750000063,
          "velocity": 0.7874015748031497,
          "duration": 0.042775000000006
        },
        {
          "name": "F#7",
          "midi": 102,
          "time": 216.11773750000063,
          "velocity": 0.7874015748031497,
          "duration": 0.042775000000006
        },
        {
          "name": "D4",
          "midi": 62,
          "time": 216.29400000000064,
          "velocity": 0.7874015748031497,
          "duration": 0.043512499999991405
        },
        {
          "name": "F#4",
          "midi": 66,
          "time": 216.29400000000064,
          "velocity": 0.7874015748031497,
          "duration": 0.043512499999991405
        },
        {
          "name": "D#5",
          "midi": 75,
          "time": 216.29400000000064,
          "velocity": 0.7874015748031497,
          "duration": 0.043512499999991405
        },
        {
          "name": "F#5",
          "midi": 78,
          "time": 216.29400000000064,
          "velocity": 0.7874015748031497,
          "duration": 0.043512499999991405
        },
        {
          "name": "E6",
          "midi": 88,
          "time": 216.29400000000064,
          "velocity": 0.7874015748031497,
          "duration": 0.35178750000000036
        },
        {
          "name": "F6",
          "midi": 89,
          "time": 216.29400000000064,
          "velocity": 0.7874015748031497,
          "duration": 0.35178750000000036
        },
        {
          "name": "E7",
          "midi": 100,
          "time": 216.29400000000064,
          "velocity": 0.7874015748031497,
          "duration": 0.35178750000000036
        },
        {
          "name": "F#7",
          "midi": 102,
          "time": 216.29400000000064,
          "velocity": 0.7874015748031497,
          "duration": 0.35178750000000036
        },
        {
          "name": "G#8",
          "midi": 116,
          "time": 216.64800000000065,
          "velocity": 0.7874015748031497,
          "duration": 6.725262499999843
        },
        {
          "name": "C4",
          "midi": 60,
          "time": 216.64800000000065,
          "velocity": 0.7874015748031497,
          "duration": 0.043512499999991405
        },
        {
          "name": "F#4",
          "midi": 66,
          "time": 216.64800000000065,
          "velocity": 0.7874015748031497,
          "duration": 0.043512499999991405
        },
        {
          "name": "C5",
          "midi": 72,
          "time": 216.64800000000065,
          "velocity": 0.7874015748031497,
          "duration": 0.043512499999991405
        },
        {
          "name": "F#5",
          "midi": 78,
          "time": 216.64800000000065,
          "velocity": 0.7874015748031497,
          "duration": 0.043512499999991405
        },
        {
          "name": "C6",
          "midi": 84,
          "time": 216.64800000000065,
          "velocity": 0.7874015748031497,
          "duration": 0.043512499999991405
        },
        {
          "name": "F#6",
          "midi": 90,
          "time": 216.64800000000065,
          "velocity": 0.7874015748031497,
          "duration": 0.043512499999991405
        },
        {
          "name": "C7",
          "midi": 96,
          "time": 216.64800000000065,
          "velocity": 0.7874015748031497,
          "duration": 0.043512499999991405
        },
        {
          "name": "F#7",
          "midi": 102,
          "time": 216.64800000000065,
          "velocity": 0.7874015748031497,
          "duration": 0.043512499999991405
        },
        {
          "name": "D#6",
          "midi": 87,
          "time": 216.82500000000064,
          "velocity": 0.7874015748031497,
          "duration": 0.043512499999991405
        },
        {
          "name": "F6",
          "midi": 89,
          "time": 216.82500000000064,
          "velocity": 0.7874015748031497,
          "duration": 0.043512499999991405
        },
        {
          "name": "D#7",
          "midi": 99,
          "time": 216.82500000000064,
          "velocity": 0.7874015748031497,
          "duration": 0.043512499999991405
        },
        {
          "name": "F#7",
          "midi": 102,
          "time": 216.82500000000064,
          "velocity": 0.7874015748031497,
          "duration": 0.043512499999991405
        },
        {
          "name": "D4",
          "midi": 62,
          "time": 217.00200000000063,
          "velocity": 0.7874015748031497,
          "duration": 0.043512499999991405
        },
        {
          "name": "F#4",
          "midi": 66,
          "time": 217.00200000000063,
          "velocity": 0.7874015748031497,
          "duration": 0.043512499999991405
        },
        {
          "name": "D#5",
          "midi": 75,
          "time": 217.00200000000063,
          "velocity": 0.7874015748031497,
          "duration": 0.043512499999991405
        },
        {
          "name": "F#5",
          "midi": 78,
          "time": 217.00200000000063,
          "velocity": 0.7874015748031497,
          "duration": 0.043512499999991405
        },
        {
          "name": "E6",
          "midi": 88,
          "time": 217.00200000000063,
          "velocity": 0.7874015748031497,
          "duration": 0.043512499999991405
        },
        {
          "name": "F6",
          "midi": 89,
          "time": 217.00200000000063,
          "velocity": 0.7874015748031497,
          "duration": 0.043512499999991405
        },
        {
          "name": "E7",
          "midi": 100,
          "time": 217.00200000000063,
          "velocity": 0.7874015748031497,
          "duration": 0.043512499999991405
        },
        {
          "name": "F#7",
          "midi": 102,
          "time": 217.00200000000063,
          "velocity": 0.7874015748031497,
          "duration": 0.043512499999991405
        },
        {
          "name": "C#4",
          "midi": 61,
          "time": 217.17900000000063,
          "velocity": 0.7874015748031497,
          "duration": 0.043512499999991405
        },
        {
          "name": "F4",
          "midi": 65,
          "time": 217.17900000000063,
          "velocity": 0.7874015748031497,
          "duration": 0.043512499999991405
        },
        {
          "name": "D5",
          "midi": 74,
          "time": 217.17900000000063,
          "velocity": 0.7874015748031497,
          "duration": 0.043512499999991405
        },
        {
          "name": "F5",
          "midi": 77,
          "time": 217.17900000000063,
          "velocity": 0.7874015748031497,
          "duration": 0.043512499999991405
        },
        {
          "name": "D6",
          "midi": 86,
          "time": 217.17900000000063,
          "velocity": 0.7874015748031497,
          "duration": 0.35178750000000036
        },
        {
          "name": "F#6",
          "midi": 90,
          "time": 217.17900000000063,
          "velocity": 0.7874015748031497,
          "duration": 0.35178750000000036
        },
        {
          "name": "D7",
          "midi": 98,
          "time": 217.17900000000063,
          "velocity": 0.7874015748031497,
          "duration": 0.35178750000000036
        },
        {
          "name": "F#7",
          "midi": 102,
          "time": 217.17900000000063,
          "velocity": 0.7874015748031497,
          "duration": 0.35178750000000036
        },
        {
          "name": "D#6",
          "midi": 87,
          "time": 217.53300000000064,
          "velocity": 0.7874015748031497,
          "duration": 0.043512499999991405
        },
        {
          "name": "F#6",
          "midi": 90,
          "time": 217.53300000000064,
          "velocity": 0.7874015748031497,
          "duration": 0.043512499999991405
        },
        {
          "name": "D#7",
          "midi": 99,
          "time": 217.53300000000064,
          "velocity": 0.7874015748031497,
          "duration": 0.043512499999991405
        },
        {
          "name": "F#7",
          "midi": 102,
          "time": 217.53300000000064,
          "velocity": 0.7874015748031497,
          "duration": 0.043512499999991405
        },
        {
          "name": "D4",
          "midi": 62,
          "time": 217.71000000000063,
          "velocity": 0.7874015748031497,
          "duration": 0.043512499999991405
        },
        {
          "name": "F#4",
          "midi": 66,
          "time": 217.71000000000063,
          "velocity": 0.7874015748031497,
          "duration": 0.043512499999991405
        },
        {
          "name": "D#5",
          "midi": 75,
          "time": 217.71000000000063,
          "velocity": 0.7874015748031497,
          "duration": 0.043512499999991405
        },
        {
          "name": "F#5",
          "midi": 78,
          "time": 217.71000000000063,
          "velocity": 0.7874015748031497,
          "duration": 0.043512499999991405
        },
        {
          "name": "E6",
          "midi": 88,
          "time": 217.71000000000063,
          "velocity": 0.7874015748031497,
          "duration": 0.043512499999991405
        },
        {
          "name": "F6",
          "midi": 89,
          "time": 217.71000000000063,
          "velocity": 0.7874015748031497,
          "duration": 0.043512499999991405
        },
        {
          "name": "E7",
          "midi": 100,
          "time": 217.71000000000063,
          "velocity": 0.7874015748031497,
          "duration": 0.043512499999991405
        },
        {
          "name": "F#7",
          "midi": 102,
          "time": 217.71000000000063,
          "velocity": 0.7874015748031497,
          "duration": 0.043512499999991405
        },
        {
          "name": "D#7",
          "midi": 99,
          "time": 217.8877375000006,
          "velocity": 0.7874015748031497,
          "duration": 0.043512499999991405
        },
        {
          "name": "F#7",
          "midi": 102,
          "time": 217.8877375000006,
          "velocity": 0.7874015748031497,
          "duration": 0.043512499999991405
        },
        {
          "name": "C#4",
          "midi": 61,
          "time": 218.0640000000006,
          "velocity": 0.7874015748031497,
          "duration": 0.043512499999991405
        },
        {
          "name": "F#4",
          "midi": 66,
          "time": 218.0640000000006,
          "velocity": 0.7874015748031497,
          "duration": 0.043512499999991405
        },
        {
          "name": "C#5",
          "midi": 73,
          "time": 218.0640000000006,
          "velocity": 0.7874015748031497,
          "duration": 0.043512499999991405
        },
        {
          "name": "F#5",
          "midi": 78,
          "time": 218.0640000000006,
          "velocity": 0.7874015748031497,
          "duration": 0.043512499999991405
        },
        {
          "name": "C#6",
          "midi": 85,
          "time": 218.0640000000006,
          "velocity": 0.7874015748031497,
          "duration": 0.043512499999991405
        },
        {
          "name": "F#6",
          "midi": 90,
          "time": 218.0640000000006,
          "velocity": 0.7874015748031497,
          "duration": 0.043512499999991405
        },
        {
          "name": "C#7",
          "midi": 97,
          "time": 218.0640000000006,
          "velocity": 0.7874015748031497,
          "duration": 0.043512499999991405
        },
        {
          "name": "F#7",
          "midi": 102,
          "time": 218.0640000000006,
          "velocity": 0.7874015748031497,
          "duration": 0.043512499999991405
        },
        {
          "name": "D#6",
          "midi": 87,
          "time": 218.24026250000057,
          "velocity": 0.7874015748031497,
          "duration": 0.043512499999991405
        },
        {
          "name": "F6",
          "midi": 89,
          "time": 218.24026250000057,
          "velocity": 0.7874015748031497,
          "duration": 0.043512499999991405
        },
        {
          "name": "D#7",
          "midi": 99,
          "time": 218.24026250000057,
          "velocity": 0.7874015748031497,
          "duration": 0.043512499999991405
        },
        {
          "name": "F#7",
          "midi": 102,
          "time": 218.24026250000057,
          "velocity": 0.7874015748031497,
          "duration": 0.043512499999991405
        },
        {
          "name": "D4",
          "midi": 62,
          "time": 218.41800000000055,
          "velocity": 0.7874015748031497,
          "duration": 0.043512499999991405
        },
        {
          "name": "F#4",
          "midi": 66,
          "time": 218.41800000000055,
          "velocity": 0.7874015748031497,
          "duration": 0.043512499999991405
        },
        {
          "name": "D#5",
          "midi": 75,
          "time": 218.41800000000055,
          "velocity": 0.7874015748031497,
          "duration": 0.043512499999991405
        },
        {
          "name": "F#5",
          "midi": 78,
          "time": 218.41800000000055,
          "velocity": 0.7874015748031497,
          "duration": 0.043512499999991405
        },
        {
          "name": "E6",
          "midi": 88,
          "time": 218.41800000000055,
          "velocity": 0.7874015748031497,
          "duration": 0.043512499999991405
        },
        {
          "name": "F6",
          "midi": 89,
          "time": 218.41800000000055,
          "velocity": 0.7874015748031497,
          "duration": 0.043512499999991405
        },
        {
          "name": "E7",
          "midi": 100,
          "time": 218.41800000000055,
          "velocity": 0.7874015748031497,
          "duration": 0.043512499999991405
        },
        {
          "name": "F#7",
          "midi": 102,
          "time": 218.41800000000055,
          "velocity": 0.7874015748031497,
          "duration": 0.043512499999991405
        },
        {
          "name": "C#4",
          "midi": 61,
          "time": 218.59500000000054,
          "velocity": 0.7874015748031497,
          "duration": 0.35178750000000036
        },
        {
          "name": "F4",
          "midi": 65,
          "time": 218.59500000000054,
          "velocity": 0.7874015748031497,
          "duration": 0.35178750000000036
        },
        {
          "name": "C#5",
          "midi": 73,
          "time": 218.59500000000054,
          "velocity": 0.7874015748031497,
          "duration": 0.043512499999991405
        },
        {
          "name": "F5",
          "midi": 77,
          "time": 218.59500000000054,
          "velocity": 0.7874015748031497,
          "duration": 0.043512499999991405
        },
        {
          "name": "C#6",
          "midi": 85,
          "time": 218.59500000000054,
          "velocity": 0.7874015748031497,
          "duration": 0.35178750000000036
        },
        {
          "name": "F#6",
          "midi": 90,
          "time": 218.59500000000054,
          "velocity": 0.7874015748031497,
          "duration": 0.35178750000000036
        },
        {
          "name": "C#7",
          "midi": 97,
          "time": 218.59500000000054,
          "velocity": 0.7874015748031497,
          "duration": 0.35178750000000036
        },
        {
          "name": "F#7",
          "midi": 102,
          "time": 218.59500000000054,
          "velocity": 0.7874015748031497,
          "duration": 0.35178750000000036
        },
        {
          "name": "C#4",
          "midi": 61,
          "time": 218.94826250000054,
          "velocity": 0.7874015748031497,
          "duration": 0.043512499999991405
        },
        {
          "name": "F#4",
          "midi": 66,
          "time": 218.94826250000054,
          "velocity": 0.7874015748031497,
          "duration": 0.043512499999991405
        },
        {
          "name": "C#5",
          "midi": 73,
          "time": 218.94826250000054,
          "velocity": 0.7874015748031497,
          "duration": 0.043512499999991405
        },
        {
          "name": "D5",
          "midi": 74,
          "time": 218.94826250000054,
          "velocity": 0.7874015748031497,
          "duration": 0.043512499999991405
        },
        {
          "name": "F#5",
          "midi": 78,
          "time": 218.94826250000054,
          "velocity": 0.7874015748031497,
          "duration": 0.043512499999991405
        },
        {
          "name": "C#6",
          "midi": 85,
          "time": 218.94826250000054,
          "velocity": 0.7874015748031497,
          "duration": 0.043512499999991405
        },
        {
          "name": "D#6",
          "midi": 87,
          "time": 218.94826250000054,
          "velocity": 0.7874015748031497,
          "duration": 0.043512499999991405
        },
        {
          "name": "F#6",
          "midi": 90,
          "time": 218.94826250000054,
          "velocity": 0.7874015748031497,
          "duration": 0.043512499999991405
        },
        {
          "name": "C#7",
          "midi": 97,
          "time": 218.94826250000054,
          "velocity": 0.7874015748031497,
          "duration": 0.043512499999991405
        },
        {
          "name": "D7",
          "midi": 98,
          "time": 218.94826250000054,
          "velocity": 0.7874015748031497,
          "duration": 0.043512499999991405
        },
        {
          "name": "D#7",
          "midi": 99,
          "time": 218.94826250000054,
          "velocity": 0.7874015748031497,
          "duration": 0.043512499999991405
        },
        {
          "name": "F#7",
          "midi": 102,
          "time": 218.94826250000054,
          "velocity": 0.7874015748031497,
          "duration": 0.043512499999991405
        },
        {
          "name": "C#4",
          "midi": 61,
          "time": 219.21523750000054,
          "velocity": 0.7874015748031497,
          "duration": 0.043512499999991405
        },
        {
          "name": "F#4",
          "midi": 66,
          "time": 219.21523750000054,
          "velocity": 0.7874015748031497,
          "duration": 0.043512499999991405
        },
        {
          "name": "C#5",
          "midi": 73,
          "time": 219.21523750000054,
          "velocity": 0.7874015748031497,
          "duration": 0.043512499999991405
        },
        {
          "name": "D5",
          "midi": 74,
          "time": 219.21523750000054,
          "velocity": 0.7874015748031497,
          "duration": 0.043512499999991405
        },
        {
          "name": "F#5",
          "midi": 78,
          "time": 219.21523750000054,
          "velocity": 0.7874015748031497,
          "duration": 0.043512499999991405
        },
        {
          "name": "C#6",
          "midi": 85,
          "time": 219.21523750000054,
          "velocity": 0.7874015748031497,
          "duration": 0.043512499999991405
        },
        {
          "name": "D#6",
          "midi": 87,
          "time": 219.21523750000054,
          "velocity": 0.7874015748031497,
          "duration": 0.043512499999991405
        },
        {
          "name": "F#6",
          "midi": 90,
          "time": 219.21523750000054,
          "velocity": 0.7874015748031497,
          "duration": 0.043512499999991405
        },
        {
          "name": "C#7",
          "midi": 97,
          "time": 219.21523750000054,
          "velocity": 0.7874015748031497,
          "duration": 0.043512499999991405
        },
        {
          "name": "D7",
          "midi": 98,
          "time": 219.21523750000054,
          "velocity": 0.7874015748031497,
          "duration": 0.043512499999991405
        },
        {
          "name": "D#7",
          "midi": 99,
          "time": 219.21523750000054,
          "velocity": 0.7874015748031497,
          "duration": 0.043512499999991405
        },
        {
          "name": "F#7",
          "midi": 102,
          "time": 219.21523750000054,
          "velocity": 0.7874015748031497,
          "duration": 0.043512499999991405
        },
        {
          "name": "D4",
          "midi": 62,
          "time": 219.48000000000053,
          "velocity": 0.7874015748031497,
          "duration": 2.4757874999999956
        },
        {
          "name": "F#4",
          "midi": 66,
          "time": 219.48000000000053,
          "velocity": 0.7874015748031497,
          "duration": 2.4757874999999956
        },
        {
          "name": "C#5",
          "midi": 73,
          "time": 219.48000000000053,
          "velocity": 0.7874015748031497,
          "duration": 2.4757874999999956
        },
        {
          "name": "D#5",
          "midi": 75,
          "time": 219.48000000000053,
          "velocity": 0.7874015748031497,
          "duration": 2.4757874999999956
        },
        {
          "name": "F#5",
          "midi": 78,
          "time": 219.48000000000053,
          "velocity": 0.7874015748031497,
          "duration": 2.4757874999999956
        },
        {
          "name": "C#6",
          "midi": 85,
          "time": 219.48000000000053,
          "velocity": 0.7874015748031497,
          "duration": 2.4757874999999956
        },
        {
          "name": "E6",
          "midi": 88,
          "time": 219.48000000000053,
          "velocity": 0.7874015748031497,
          "duration": 2.4757874999999956
        },
        {
          "name": "F#6",
          "midi": 90,
          "time": 219.48000000000053,
          "velocity": 0.7874015748031497,
          "duration": 2.4757874999999956
        },
        {
          "name": "C#7",
          "midi": 97,
          "time": 219.48000000000053,
          "velocity": 0.7874015748031497,
          "duration": 2.4757874999999956
        },
        {
          "name": "D7",
          "midi": 98,
          "time": 219.48000000000053,
          "velocity": 0.7874015748031497,
          "duration": 2.4757874999999956
        },
        {
          "name": "E7",
          "midi": 100,
          "time": 219.48000000000053,
          "velocity": 0.7874015748031497,
          "duration": 2.4757874999999956
        },
        {
          "name": "F#7",
          "midi": 102,
          "time": 219.48000000000053,
          "velocity": 0.7874015748031497,
          "duration": 2.4757874999999956
        },
        {
          "name": "D4",
          "midi": 62,
          "time": 221.95800000000054,
          "velocity": 0.7874015748031497,
          "duration": 0.043512499999991405
        },
        {
          "name": "F#4",
          "midi": 66,
          "time": 221.95800000000054,
          "velocity": 0.7874015748031497,
          "duration": 0.043512499999991405
        },
        {
          "name": "C#5",
          "midi": 73,
          "time": 221.95800000000054,
          "velocity": 0.7874015748031497,
          "duration": 0.043512499999991405
        },
        {
          "name": "D#5",
          "midi": 75,
          "time": 221.95800000000054,
          "velocity": 0.7874015748031497,
          "duration": 0.043512499999991405
        },
        {
          "name": "F#5",
          "midi": 78,
          "time": 221.95800000000054,
          "velocity": 0.7874015748031497,
          "duration": 0.043512499999991405
        },
        {
          "name": "C#6",
          "midi": 85,
          "time": 221.95800000000054,
          "velocity": 0.7874015748031497,
          "duration": 0.043512499999991405
        },
        {
          "name": "E6",
          "midi": 88,
          "time": 221.95800000000054,
          "velocity": 0.7874015748031497,
          "duration": 0.043512499999991405
        },
        {
          "name": "F#6",
          "midi": 90,
          "time": 221.95800000000054,
          "velocity": 0.7874015748031497,
          "duration": 0.043512499999991405
        },
        {
          "name": "C#7",
          "midi": 97,
          "time": 221.95800000000054,
          "velocity": 0.7874015748031497,
          "duration": 0.043512499999991405
        },
        {
          "name": "D7",
          "midi": 98,
          "time": 221.95800000000054,
          "velocity": 0.7874015748031497,
          "duration": 0.043512499999991405
        },
        {
          "name": "E7",
          "midi": 100,
          "time": 221.95800000000054,
          "velocity": 0.7874015748031497,
          "duration": 0.043512499999991405
        },
        {
          "name": "F#7",
          "midi": 102,
          "time": 221.95800000000054,
          "velocity": 0.7874015748031497,
          "duration": 0.043512499999991405
        },
        {
          "name": "C#7",
          "midi": 97,
          "time": 222.13573750000052,
          "velocity": 0.7874015748031497,
          "duration": 0.043512499999991405
        },
        {
          "name": "D7",
          "midi": 98,
          "time": 222.13573750000052,
          "velocity": 0.7874015748031497,
          "duration": 0.043512499999991405
        },
        {
          "name": "E7",
          "midi": 100,
          "time": 222.13573750000052,
          "velocity": 0.7874015748031497,
          "duration": 0.043512499999991405
        },
        {
          "name": "F#7",
          "midi": 102,
          "time": 222.13573750000052,
          "velocity": 0.7874015748031497,
          "duration": 0.043512499999991405
        },
        {
          "name": "D4",
          "midi": 62,
          "time": 222.3120000000005,
          "velocity": 0.7874015748031497,
          "duration": 1.0597874999999988
        },
        {
          "name": "F#4",
          "midi": 66,
          "time": 222.3120000000005,
          "velocity": 0.7874015748031497,
          "duration": 1.0597874999999988
        },
        {
          "name": "C#5",
          "midi": 73,
          "time": 222.3120000000005,
          "velocity": 0.7874015748031497,
          "duration": 1.0597874999999988
        },
        {
          "name": "D#5",
          "midi": 75,
          "time": 222.3120000000005,
          "velocity": 0.7874015748031497,
          "duration": 1.0597874999999988
        },
        {
          "name": "F#5",
          "midi": 78,
          "time": 222.3120000000005,
          "velocity": 0.7874015748031497,
          "duration": 1.0597874999999988
        },
        {
          "name": "C#6",
          "midi": 85,
          "time": 222.3120000000005,
          "velocity": 0.7874015748031497,
          "duration": 1.0597874999999988
        },
        {
          "name": "E6",
          "midi": 88,
          "time": 222.3120000000005,
          "velocity": 0.7874015748031497,
          "duration": 1.0597874999999988
        },
        {
          "name": "F#6",
          "midi": 90,
          "time": 222.3120000000005,
          "velocity": 0.7874015748031497,
          "duration": 1.0597874999999988
        },
        {
          "name": "C#7",
          "midi": 97,
          "time": 222.3120000000005,
          "velocity": 0.7874015748031497,
          "duration": 1.0597874999999988
        },
        {
          "name": "D7",
          "midi": 98,
          "time": 222.3120000000005,
          "velocity": 0.7874015748031497,
          "duration": 1.0597874999999988
        },
        {
          "name": "E7",
          "midi": 100,
          "time": 222.3120000000005,
          "velocity": 0.7874015748031497,
          "duration": 1.0597874999999988
        },
        {
          "name": "F#7",
          "midi": 102,
          "time": 222.3120000000005,
          "velocity": 0.7874015748031497,
          "duration": 1.0597874999999988
        },
        {
          "name": "D4",
          "midi": 62,
          "time": 223.3740000000005,
          "velocity": 0.7874015748031497,
          "duration": 0.043512499999991405
        },
        {
          "name": "F#4",
          "midi": 66,
          "time": 223.3740000000005,
          "velocity": 0.7874015748031497,
          "duration": 0.043512499999991405
        },
        {
          "name": "C#5",
          "midi": 73,
          "time": 223.3740000000005,
          "velocity": 0.7874015748031497,
          "duration": 0.043512499999991405
        },
        {
          "name": "D#5",
          "midi": 75,
          "time": 223.3740000000005,
          "velocity": 0.7874015748031497,
          "duration": 0.043512499999991405
        },
        {
          "name": "F#5",
          "midi": 78,
          "time": 223.3740000000005,
          "velocity": 0.7874015748031497,
          "duration": 0.043512499999991405
        },
        {
          "name": "C#6",
          "midi": 85,
          "time": 223.3740000000005,
          "velocity": 0.7874015748031497,
          "duration": 0.35178750000000036
        },
        {
          "name": "E6",
          "midi": 88,
          "time": 223.3740000000005,
          "velocity": 0.7874015748031497,
          "duration": 0.35178750000000036
        },
        {
          "name": "F#6",
          "midi": 90,
          "time": 223.3740000000005,
          "velocity": 0.7874015748031497,
          "duration": 0.35178750000000036
        },
        {
          "name": "C#7",
          "midi": 97,
          "time": 223.3740000000005,
          "velocity": 0.7874015748031497,
          "duration": 0.35178750000000036
        },
        {
          "name": "D7",
          "midi": 98,
          "time": 223.3740000000005,
          "velocity": 0.7874015748031497,
          "duration": 0.35178750000000036
        },
        {
          "name": "E7",
          "midi": 100,
          "time": 223.3740000000005,
          "velocity": 0.7874015748031497,
          "duration": 0.35178750000000036
        },
        {
          "name": "F#7",
          "midi": 102,
          "time": 223.3740000000005,
          "velocity": 0.7874015748031497,
          "duration": 0.35178750000000036
        },
        {
          "name": "D4",
          "midi": 62,
          "time": 223.72800000000052,
          "velocity": 0.7874015748031497,
          "duration": 1.0597874999999988
        },
        {
          "name": "F#4",
          "midi": 66,
          "time": 223.72800000000052,
          "velocity": 0.7874015748031497,
          "duration": 1.0597874999999988
        },
        {
          "name": "C#5",
          "midi": 73,
          "time": 223.72800000000052,
          "velocity": 0.7874015748031497,
          "duration": 1.0597874999999988
        },
        {
          "name": "D#5",
          "midi": 75,
          "time": 223.72800000000052,
          "velocity": 0.7874015748031497,
          "duration": 1.0597874999999988
        },
        {
          "name": "F#5",
          "midi": 78,
          "time": 223.72800000000052,
          "velocity": 0.7874015748031497,
          "duration": 1.0597874999999988
        },
        {
          "name": "C#6",
          "midi": 85,
          "time": 223.72800000000052,
          "velocity": 0.7874015748031497,
          "duration": 1.0597874999999988
        },
        {
          "name": "E6",
          "midi": 88,
          "time": 223.72800000000052,
          "velocity": 0.7874015748031497,
          "duration": 1.0597874999999988
        },
        {
          "name": "F#6",
          "midi": 90,
          "time": 223.72800000000052,
          "velocity": 0.7874015748031497,
          "duration": 1.0597874999999988
        },
        {
          "name": "C#7",
          "midi": 97,
          "time": 223.72800000000052,
          "velocity": 0.7874015748031497,
          "duration": 1.0597874999999988
        },
        {
          "name": "D7",
          "midi": 98,
          "time": 223.72800000000052,
          "velocity": 0.7874015748031497,
          "duration": 1.0597874999999988
        },
        {
          "name": "E7",
          "midi": 100,
          "time": 223.72800000000052,
          "velocity": 0.7874015748031497,
          "duration": 1.0597874999999988
        },
        {
          "name": "F#7",
          "midi": 102,
          "time": 223.72800000000052,
          "velocity": 0.7874015748031497,
          "duration": 1.0597874999999988
        },
        {
          "name": "D4",
          "midi": 62,
          "time": 224.79000000000053,
          "velocity": 0.7874015748031497,
          "duration": 0.04425000000000523
        },
        {
          "name": "F#4",
          "midi": 66,
          "time": 224.79000000000053,
          "velocity": 0.7874015748031497,
          "duration": 0.04425000000000523
        },
        {
          "name": "C#5",
          "midi": 73,
          "time": 224.79000000000053,
          "velocity": 0.7874015748031497,
          "duration": 0.04425000000000523
        },
        {
          "name": "D#5",
          "midi": 75,
          "time": 224.79000000000053,
          "velocity": 0.7874015748031497,
          "duration": 0.04425000000000523
        },
        {
          "name": "F#5",
          "midi": 78,
          "time": 224.79000000000053,
          "velocity": 0.7874015748031497,
          "duration": 0.04425000000000523
        },
        {
          "name": "C#6",
          "midi": 85,
          "time": 224.79000000000053,
          "velocity": 0.7874015748031497,
          "duration": 0.35178750000000036
        },
        {
          "name": "E6",
          "midi": 88,
          "time": 224.79000000000053,
          "velocity": 0.7874015748031497,
          "duration": 0.35178750000000036
        },
        {
          "name": "F#6",
          "midi": 90,
          "time": 224.79000000000053,
          "velocity": 0.7874015748031497,
          "duration": 0.35178750000000036
        },
        {
          "name": "C#7",
          "midi": 97,
          "time": 224.79000000000053,
          "velocity": 0.7874015748031497,
          "duration": 0.35178750000000036
        },
        {
          "name": "D7",
          "midi": 98,
          "time": 224.79000000000053,
          "velocity": 0.7874015748031497,
          "duration": 0.35178750000000036
        },
        {
          "name": "E7",
          "midi": 100,
          "time": 224.79000000000053,
          "velocity": 0.7874015748031497,
          "duration": 0.35178750000000036
        },
        {
          "name": "F#7",
          "midi": 102,
          "time": 224.79000000000053,
          "velocity": 0.7874015748031497,
          "duration": 0.35178750000000036
        },
        {
          "name": "C#4",
          "midi": 61,
          "time": 225.14400000000055,
          "velocity": 0.7874015748031497,
          "duration": 0.04425000000000523
        },
        {
          "name": "F#4",
          "midi": 66,
          "time": 225.14400000000055,
          "velocity": 0.7874015748031497,
          "duration": 0.04425000000000523
        },
        {
          "name": "C#5",
          "midi": 73,
          "time": 225.14400000000055,
          "velocity": 0.7874015748031497,
          "duration": 0.04425000000000523
        },
        {
          "name": "D5",
          "midi": 74,
          "time": 225.14400000000055,
          "velocity": 0.7874015748031497,
          "duration": 0.04425000000000523
        },
        {
          "name": "F#5",
          "midi": 78,
          "time": 225.14400000000055,
          "velocity": 0.7874015748031497,
          "duration": 0.04425000000000523
        },
        {
          "name": "C#6",
          "midi": 85,
          "time": 225.14400000000055,
          "velocity": 0.7874015748031497,
          "duration": 0.35178750000000036
        },
        {
          "name": "D#6",
          "midi": 87,
          "time": 225.14400000000055,
          "velocity": 0.7874015748031497,
          "duration": 0.35178750000000036
        },
        {
          "name": "F#6",
          "midi": 90,
          "time": 225.14400000000055,
          "velocity": 0.7874015748031497,
          "duration": 0.35178750000000036
        },
        {
          "name": "C#7",
          "midi": 97,
          "time": 225.14400000000055,
          "velocity": 0.7874015748031497,
          "duration": 0.35178750000000036
        },
        {
          "name": "D7",
          "midi": 98,
          "time": 225.14400000000055,
          "velocity": 0.7874015748031497,
          "duration": 0.35178750000000036
        },
        {
          "name": "D#7",
          "midi": 99,
          "time": 225.14400000000055,
          "velocity": 0.7874015748031497,
          "duration": 0.35178750000000036
        },
        {
          "name": "F#7",
          "midi": 102,
          "time": 225.14400000000055,
          "velocity": 0.7874015748031497,
          "duration": 0.35178750000000036
        },
        {
          "name": "C#4",
          "midi": 61,
          "time": 225.49800000000056,
          "velocity": 0.7874015748031497,
          "duration": 0.04425000000000523
        },
        {
          "name": "F#4",
          "midi": 66,
          "time": 225.49800000000056,
          "velocity": 0.7874015748031497,
          "duration": 0.04425000000000523
        },
        {
          "name": "C#5",
          "midi": 73,
          "time": 225.49800000000056,
          "velocity": 0.7874015748031497,
          "duration": 0.04425000000000523
        },
        {
          "name": "D5",
          "midi": 74,
          "time": 225.49800000000056,
          "velocity": 0.7874015748031497,
          "duration": 0.04425000000000523
        },
        {
          "name": "F#5",
          "midi": 78,
          "time": 225.49800000000056,
          "velocity": 0.7874015748031497,
          "duration": 0.04425000000000523
        },
        {
          "name": "C#6",
          "midi": 85,
          "time": 225.49800000000056,
          "velocity": 0.7874015748031497,
          "duration": 0.35178750000000036
        },
        {
          "name": "D#6",
          "midi": 87,
          "time": 225.49800000000056,
          "velocity": 0.7874015748031497,
          "duration": 0.35178750000000036
        },
        {
          "name": "F#6",
          "midi": 90,
          "time": 225.49800000000056,
          "velocity": 0.7874015748031497,
          "duration": 0.35178750000000036
        },
        {
          "name": "C#7",
          "midi": 97,
          "time": 225.49800000000056,
          "velocity": 0.7874015748031497,
          "duration": 0.35178750000000036
        },
        {
          "name": "D7",
          "midi": 98,
          "time": 225.49800000000056,
          "velocity": 0.7874015748031497,
          "duration": 0.35178750000000036
        },
        {
          "name": "D#7",
          "midi": 99,
          "time": 225.49800000000056,
          "velocity": 0.7874015748031497,
          "duration": 0.35178750000000036
        },
        {
          "name": "F#7",
          "midi": 102,
          "time": 225.49800000000056,
          "velocity": 0.7874015748031497,
          "duration": 0.35178750000000036
        },
        {
          "name": "C#4",
          "midi": 61,
          "time": 225.85200000000057,
          "velocity": 0.7874015748031497,
          "duration": 0.04425000000000523
        },
        {
          "name": "F#4",
          "midi": 66,
          "time": 225.85200000000057,
          "velocity": 0.7874015748031497,
          "duration": 0.04425000000000523
        },
        {
          "name": "C#5",
          "midi": 73,
          "time": 225.85200000000057,
          "velocity": 0.7874015748031497,
          "duration": 0.04425000000000523
        },
        {
          "name": "D5",
          "midi": 74,
          "time": 225.85200000000057,
          "velocity": 0.7874015748031497,
          "duration": 0.04425000000000523
        },
        {
          "name": "F#5",
          "midi": 78,
          "time": 225.85200000000057,
          "velocity": 0.7874015748031497,
          "duration": 0.04425000000000523
        },
        {
          "name": "C#6",
          "midi": 85,
          "time": 225.85200000000057,
          "velocity": 0.7874015748031497,
          "duration": 0.35178750000000036
        },
        {
          "name": "D#6",
          "midi": 87,
          "time": 225.85200000000057,
          "velocity": 0.7874015748031497,
          "duration": 0.35178750000000036
        },
        {
          "name": "F#6",
          "midi": 90,
          "time": 225.85200000000057,
          "velocity": 0.7874015748031497,
          "duration": 0.35178750000000036
        },
        {
          "name": "C#7",
          "midi": 97,
          "time": 225.85200000000057,
          "velocity": 0.7874015748031497,
          "duration": 0.35178750000000036
        },
        {
          "name": "D7",
          "midi": 98,
          "time": 225.85200000000057,
          "velocity": 0.7874015748031497,
          "duration": 0.35178750000000036
        },
        {
          "name": "D#7",
          "midi": 99,
          "time": 225.85200000000057,
          "velocity": 0.7874015748031497,
          "duration": 0.35178750000000036
        },
        {
          "name": "F#7",
          "midi": 102,
          "time": 225.85200000000057,
          "velocity": 0.7874015748031497,
          "duration": 0.35178750000000036
        },
        {
          "name": "C#4",
          "midi": 61,
          "time": 226.20600000000059,
          "velocity": 0.7874015748031497,
          "duration": 0.04425000000000523
        },
        {
          "name": "F#4",
          "midi": 66,
          "time": 226.20600000000059,
          "velocity": 0.7874015748031497,
          "duration": 0.04425000000000523
        },
        {
          "name": "C#5",
          "midi": 73,
          "time": 226.20600000000059,
          "velocity": 0.7874015748031497,
          "duration": 0.04425000000000523
        },
        {
          "name": "D5",
          "midi": 74,
          "time": 226.20600000000059,
          "velocity": 0.7874015748031497,
          "duration": 0.04425000000000523
        },
        {
          "name": "F#5",
          "midi": 78,
          "time": 226.20600000000059,
          "velocity": 0.7874015748031497,
          "duration": 0.04425000000000523
        },
        {
          "name": "C#6",
          "midi": 85,
          "time": 226.20600000000059,
          "velocity": 0.7874015748031497,
          "duration": 0.35178750000000036
        },
        {
          "name": "D#6",
          "midi": 87,
          "time": 226.20600000000059,
          "velocity": 0.7874015748031497,
          "duration": 0.35178750000000036
        },
        {
          "name": "F#6",
          "midi": 90,
          "time": 226.20600000000059,
          "velocity": 0.7874015748031497,
          "duration": 0.35178750000000036
        },
        {
          "name": "C#7",
          "midi": 97,
          "time": 226.20600000000059,
          "velocity": 0.7874015748031497,
          "duration": 0.35178750000000036
        },
        {
          "name": "D7",
          "midi": 98,
          "time": 226.20600000000059,
          "velocity": 0.7874015748031497,
          "duration": 0.35178750000000036
        },
        {
          "name": "D#7",
          "midi": 99,
          "time": 226.20600000000059,
          "velocity": 0.7874015748031497,
          "duration": 0.35178750000000036
        },
        {
          "name": "F#7",
          "midi": 102,
          "time": 226.20600000000059,
          "velocity": 0.7874015748031497,
          "duration": 0.35178750000000036
        },
        {
          "name": "C4",
          "midi": 60,
          "time": 226.5600000000006,
          "velocity": 0.7874015748031497,
          "duration": 0.04425000000000523
        },
        {
          "name": "F#4",
          "midi": 66,
          "time": 226.5600000000006,
          "velocity": 0.7874015748031497,
          "duration": 0.04425000000000523
        },
        {
          "name": "C5",
          "midi": 72,
          "time": 226.5600000000006,
          "velocity": 0.7874015748031497,
          "duration": 0.04425000000000523
        },
        {
          "name": "C#5",
          "midi": 73,
          "time": 226.5600000000006,
          "velocity": 0.7874015748031497,
          "duration": 0.04425000000000523
        },
        {
          "name": "F#5",
          "midi": 78,
          "time": 226.5600000000006,
          "velocity": 0.7874015748031497,
          "duration": 0.04425000000000523
        },
        {
          "name": "C6",
          "midi": 84,
          "time": 226.5600000000006,
          "velocity": 0.7874015748031497,
          "duration": 0.35178750000000036
        },
        {
          "name": "D#6",
          "midi": 87,
          "time": 226.5600000000006,
          "velocity": 0.7874015748031497,
          "duration": 0.35178750000000036
        },
        {
          "name": "F#6",
          "midi": 90,
          "time": 226.5600000000006,
          "velocity": 0.7874015748031497,
          "duration": 0.35178750000000036
        },
        {
          "name": "C7",
          "midi": 96,
          "time": 226.5600000000006,
          "velocity": 0.7874015748031497,
          "duration": 0.35178750000000036
        },
        {
          "name": "D7",
          "midi": 98,
          "time": 226.5600000000006,
          "velocity": 0.7874015748031497,
          "duration": 0.35178750000000036
        },
        {
          "name": "D#7",
          "midi": 99,
          "time": 226.5600000000006,
          "velocity": 0.7874015748031497,
          "duration": 0.35178750000000036
        },
        {
          "name": "F#7",
          "midi": 102,
          "time": 226.5600000000006,
          "velocity": 0.7874015748031497,
          "duration": 0.35178750000000036
        },
        {
          "name": "C4",
          "midi": 60,
          "time": 226.9140000000006,
          "velocity": 0.7874015748031497,
          "duration": 0.04425000000000523
        },
        {
          "name": "F#4",
          "midi": 66,
          "time": 226.9140000000006,
          "velocity": 0.7874015748031497,
          "duration": 0.04425000000000523
        },
        {
          "name": "C5",
          "midi": 72,
          "time": 226.9140000000006,
          "velocity": 0.7874015748031497,
          "duration": 0.04425000000000523
        },
        {
          "name": "C#5",
          "midi": 73,
          "time": 226.9140000000006,
          "velocity": 0.7874015748031497,
          "duration": 0.04425000000000523
        },
        {
          "name": "F#5",
          "midi": 78,
          "time": 226.9140000000006,
          "velocity": 0.7874015748031497,
          "duration": 0.04425000000000523
        },
        {
          "name": "C6",
          "midi": 84,
          "time": 226.9140000000006,
          "velocity": 0.7874015748031497,
          "duration": 0.35178750000000036
        },
        {
          "name": "D#6",
          "midi": 87,
          "time": 226.9140000000006,
          "velocity": 0.7874015748031497,
          "duration": 0.35178750000000036
        },
        {
          "name": "F#6",
          "midi": 90,
          "time": 226.9140000000006,
          "velocity": 0.7874015748031497,
          "duration": 0.35178750000000036
        },
        {
          "name": "C7",
          "midi": 96,
          "time": 226.9140000000006,
          "velocity": 0.7874015748031497,
          "duration": 0.35178750000000036
        },
        {
          "name": "D7",
          "midi": 98,
          "time": 226.9140000000006,
          "velocity": 0.7874015748031497,
          "duration": 0.35178750000000036
        },
        {
          "name": "D#7",
          "midi": 99,
          "time": 226.9140000000006,
          "velocity": 0.7874015748031497,
          "duration": 0.35178750000000036
        },
        {
          "name": "F#7",
          "midi": 102,
          "time": 226.9140000000006,
          "velocity": 0.7874015748031497,
          "duration": 0.35178750000000036
        },
        {
          "name": "C4",
          "midi": 60,
          "time": 227.26800000000063,
          "velocity": 0.7874015748031497,
          "duration": 0.04425000000000523
        },
        {
          "name": "F#4",
          "midi": 66,
          "time": 227.26800000000063,
          "velocity": 0.7874015748031497,
          "duration": 0.04425000000000523
        },
        {
          "name": "C5",
          "midi": 72,
          "time": 227.26800000000063,
          "velocity": 0.7874015748031497,
          "duration": 0.04425000000000523
        },
        {
          "name": "C#5",
          "midi": 73,
          "time": 227.26800000000063,
          "velocity": 0.7874015748031497,
          "duration": 0.04425000000000523
        },
        {
          "name": "F#5",
          "midi": 78,
          "time": 227.26800000000063,
          "velocity": 0.7874015748031497,
          "duration": 0.04425000000000523
        },
        {
          "name": "C6",
          "midi": 84,
          "time": 227.26800000000063,
          "velocity": 0.7874015748031497,
          "duration": 0.35178750000000036
        },
        {
          "name": "D#6",
          "midi": 87,
          "time": 227.26800000000063,
          "velocity": 0.7874015748031497,
          "duration": 0.35178750000000036
        },
        {
          "name": "F#6",
          "midi": 90,
          "time": 227.26800000000063,
          "velocity": 0.7874015748031497,
          "duration": 0.35178750000000036
        },
        {
          "name": "C7",
          "midi": 96,
          "time": 227.26800000000063,
          "velocity": 0.7874015748031497,
          "duration": 0.35178750000000036
        },
        {
          "name": "D7",
          "midi": 98,
          "time": 227.26800000000063,
          "velocity": 0.7874015748031497,
          "duration": 0.35178750000000036
        },
        {
          "name": "D#7",
          "midi": 99,
          "time": 227.26800000000063,
          "velocity": 0.7874015748031497,
          "duration": 0.35178750000000036
        },
        {
          "name": "F#7",
          "midi": 102,
          "time": 227.26800000000063,
          "velocity": 0.7874015748031497,
          "duration": 0.35178750000000036
        },
        {
          "name": "D4",
          "midi": 62,
          "time": 227.62200000000064,
          "velocity": 0.7874015748031497,
          "duration": 0.7057875000000138
        },
        {
          "name": "F#4",
          "midi": 66,
          "time": 227.62200000000064,
          "velocity": 0.7874015748031497,
          "duration": 0.7057875000000138
        },
        {
          "name": "C#5",
          "midi": 73,
          "time": 227.62200000000064,
          "velocity": 0.7874015748031497,
          "duration": 0.7057875000000138
        },
        {
          "name": "D#5",
          "midi": 75,
          "time": 227.62200000000064,
          "velocity": 0.7874015748031497,
          "duration": 0.7057875000000138
        },
        {
          "name": "F#5",
          "midi": 78,
          "time": 227.62200000000064,
          "velocity": 0.7874015748031497,
          "duration": 0.7057875000000138
        },
        {
          "name": "C#6",
          "midi": 85,
          "time": 227.62200000000064,
          "velocity": 0.7874015748031497,
          "duration": 0.7057875000000138
        },
        {
          "name": "E6",
          "midi": 88,
          "time": 227.62200000000064,
          "velocity": 0.7874015748031497,
          "duration": 0.7057875000000138
        },
        {
          "name": "F#6",
          "midi": 90,
          "time": 227.62200000000064,
          "velocity": 0.7874015748031497,
          "duration": 0.7057875000000138
        },
        {
          "name": "C#7",
          "midi": 97,
          "time": 227.62200000000064,
          "velocity": 0.7874015748031497,
          "duration": 0.7057875000000138
        },
        {
          "name": "D7",
          "midi": 98,
          "time": 227.62200000000064,
          "velocity": 0.7874015748031497,
          "duration": 0.7057875000000138
        },
        {
          "name": "E7",
          "midi": 100,
          "time": 227.62200000000064,
          "velocity": 0.7874015748031497,
          "duration": 0.7057875000000138
        },
        {
          "name": "F#7",
          "midi": 102,
          "time": 227.62200000000064,
          "velocity": 0.7874015748031497,
          "duration": 0.7057875000000138
        },
        {
          "name": "D4",
          "midi": 62,
          "time": 228.33000000000067,
          "velocity": 0.7874015748031497,
          "duration": 0.043512499999991405
        },
        {
          "name": "F#4",
          "midi": 66,
          "time": 228.33000000000067,
          "velocity": 0.7874015748031497,
          "duration": 0.043512499999991405
        },
        {
          "name": "C#5",
          "midi": 73,
          "time": 228.33000000000067,
          "velocity": 0.7874015748031497,
          "duration": 0.043512499999991405
        },
        {
          "name": "D#5",
          "midi": 75,
          "time": 228.33000000000067,
          "velocity": 0.7874015748031497,
          "duration": 0.043512499999991405
        },
        {
          "name": "F#5",
          "midi": 78,
          "time": 228.33000000000067,
          "velocity": 0.7874015748031497,
          "duration": 0.043512499999991405
        },
        {
          "name": "C#6",
          "midi": 85,
          "time": 228.33000000000067,
          "velocity": 0.7874015748031497,
          "duration": 0.35178750000000036
        },
        {
          "name": "E6",
          "midi": 88,
          "time": 228.33000000000067,
          "velocity": 0.7874015748031497,
          "duration": 0.35178750000000036
        },
        {
          "name": "F#6",
          "midi": 90,
          "time": 228.33000000000067,
          "velocity": 0.7874015748031497,
          "duration": 0.35178750000000036
        },
        {
          "name": "C#7",
          "midi": 97,
          "time": 228.33000000000067,
          "velocity": 0.7874015748031497,
          "duration": 0.35178750000000036
        },
        {
          "name": "D7",
          "midi": 98,
          "time": 228.33000000000067,
          "velocity": 0.7874015748031497,
          "duration": 0.35178750000000036
        },
        {
          "name": "E7",
          "midi": 100,
          "time": 228.33000000000067,
          "velocity": 0.7874015748031497,
          "duration": 0.35178750000000036
        },
        {
          "name": "F#7",
          "midi": 102,
          "time": 228.33000000000067,
          "velocity": 0.7874015748031497,
          "duration": 0.35178750000000036
        },
        {
          "name": "D4",
          "midi": 62,
          "time": 228.68400000000068,
          "velocity": 0.7874015748031497,
          "duration": 0.043512499999991405
        },
        {
          "name": "F#4",
          "midi": 66,
          "time": 228.68400000000068,
          "velocity": 0.7874015748031497,
          "duration": 0.043512499999991405
        },
        {
          "name": "C#5",
          "midi": 73,
          "time": 228.68400000000068,
          "velocity": 0.7874015748031497,
          "duration": 0.043512499999991405
        },
        {
          "name": "D#5",
          "midi": 75,
          "time": 228.68400000000068,
          "velocity": 0.7874015748031497,
          "duration": 0.043512499999991405
        },
        {
          "name": "F#5",
          "midi": 78,
          "time": 228.68400000000068,
          "velocity": 0.7874015748031497,
          "duration": 0.043512499999991405
        },
        {
          "name": "C#6",
          "midi": 85,
          "time": 228.68400000000068,
          "velocity": 0.7874015748031497,
          "duration": 0.35178750000000036
        },
        {
          "name": "E6",
          "midi": 88,
          "time": 228.68400000000068,
          "velocity": 0.7874015748031497,
          "duration": 0.35178750000000036
        },
        {
          "name": "F#6",
          "midi": 90,
          "time": 228.68400000000068,
          "velocity": 0.7874015748031497,
          "duration": 0.35178750000000036
        },
        {
          "name": "C#7",
          "midi": 97,
          "time": 228.68400000000068,
          "velocity": 0.7874015748031497,
          "duration": 0.35178750000000036
        },
        {
          "name": "D7",
          "midi": 98,
          "time": 228.68400000000068,
          "velocity": 0.7874015748031497,
          "duration": 0.35178750000000036
        },
        {
          "name": "E7",
          "midi": 100,
          "time": 228.68400000000068,
          "velocity": 0.7874015748031497,
          "duration": 0.35178750000000036
        },
        {
          "name": "F#7",
          "midi": 102,
          "time": 228.68400000000068,
          "velocity": 0.7874015748031497,
          "duration": 0.35178750000000036
        },
        {
          "name": "D4",
          "midi": 62,
          "time": 229.0380000000007,
          "velocity": 0.7874015748031497,
          "duration": 0.043512499999991405
        },
        {
          "name": "F#4",
          "midi": 66,
          "time": 229.0380000000007,
          "velocity": 0.7874015748031497,
          "duration": 0.043512499999991405
        },
        {
          "name": "C#5",
          "midi": 73,
          "time": 229.0380000000007,
          "velocity": 0.7874015748031497,
          "duration": 0.043512499999991405
        },
        {
          "name": "D#5",
          "midi": 75,
          "time": 229.0380000000007,
          "velocity": 0.7874015748031497,
          "duration": 0.043512499999991405
        },
        {
          "name": "F#5",
          "midi": 78,
          "time": 229.0380000000007,
          "velocity": 0.7874015748031497,
          "duration": 0.043512499999991405
        },
        {
          "name": "C#6",
          "midi": 85,
          "time": 229.0380000000007,
          "velocity": 0.7874015748031497,
          "duration": 0.35178750000000036
        },
        {
          "name": "E6",
          "midi": 88,
          "time": 229.0380000000007,
          "velocity": 0.7874015748031497,
          "duration": 0.35178750000000036
        },
        {
          "name": "F#6",
          "midi": 90,
          "time": 229.0380000000007,
          "velocity": 0.7874015748031497,
          "duration": 0.35178750000000036
        },
        {
          "name": "C#7",
          "midi": 97,
          "time": 229.0380000000007,
          "velocity": 0.7874015748031497,
          "duration": 0.35178750000000036
        },
        {
          "name": "D7",
          "midi": 98,
          "time": 229.0380000000007,
          "velocity": 0.7874015748031497,
          "duration": 0.35178750000000036
        },
        {
          "name": "E7",
          "midi": 100,
          "time": 229.0380000000007,
          "velocity": 0.7874015748031497,
          "duration": 0.35178750000000036
        },
        {
          "name": "F#7",
          "midi": 102,
          "time": 229.0380000000007,
          "velocity": 0.7874015748031497,
          "duration": 0.35178750000000036
        },
        {
          "name": "C#4",
          "midi": 61,
          "time": 229.3920000000007,
          "velocity": 0.7874015748031497,
          "duration": 0.043512499999991405
        },
        {
          "name": "F#4",
          "midi": 66,
          "time": 229.3920000000007,
          "velocity": 0.7874015748031497,
          "duration": 0.043512499999991405
        },
        {
          "name": "C#5",
          "midi": 73,
          "time": 229.3920000000007,
          "velocity": 0.7874015748031497,
          "duration": 0.043512499999991405
        },
        {
          "name": "D5",
          "midi": 74,
          "time": 229.3920000000007,
          "velocity": 0.7874015748031497,
          "duration": 0.043512499999991405
        },
        {
          "name": "F#5",
          "midi": 78,
          "time": 229.3920000000007,
          "velocity": 0.7874015748031497,
          "duration": 0.043512499999991405
        },
        {
          "name": "C#6",
          "midi": 85,
          "time": 229.3920000000007,
          "velocity": 0.7874015748031497,
          "duration": 0.35178750000000036
        },
        {
          "name": "D#6",
          "midi": 87,
          "time": 229.3920000000007,
          "velocity": 0.7874015748031497,
          "duration": 0.35178750000000036
        },
        {
          "name": "F#6",
          "midi": 90,
          "time": 229.3920000000007,
          "velocity": 0.7874015748031497,
          "duration": 0.35178750000000036
        },
        {
          "name": "C#7",
          "midi": 97,
          "time": 229.3920000000007,
          "velocity": 0.7874015748031497,
          "duration": 0.35178750000000036
        },
        {
          "name": "D7",
          "midi": 98,
          "time": 229.3920000000007,
          "velocity": 0.7874015748031497,
          "duration": 0.35178750000000036
        },
        {
          "name": "D#7",
          "midi": 99,
          "time": 229.3920000000007,
          "velocity": 0.7874015748031497,
          "duration": 0.35178750000000036
        },
        {
          "name": "F#7",
          "midi": 102,
          "time": 229.3920000000007,
          "velocity": 0.7874015748031497,
          "duration": 0.35178750000000036
        },
        {
          "name": "C#4",
          "midi": 61,
          "time": 229.74600000000072,
          "velocity": 0.7874015748031497,
          "duration": 0.043512499999991405
        },
        {
          "name": "F#4",
          "midi": 66,
          "time": 229.74600000000072,
          "velocity": 0.7874015748031497,
          "duration": 0.043512499999991405
        },
        {
          "name": "C#5",
          "midi": 73,
          "time": 229.74600000000072,
          "velocity": 0.7874015748031497,
          "duration": 0.043512499999991405
        },
        {
          "name": "D5",
          "midi": 74,
          "time": 229.74600000000072,
          "velocity": 0.7874015748031497,
          "duration": 0.043512499999991405
        },
        {
          "name": "F#5",
          "midi": 78,
          "time": 229.74600000000072,
          "velocity": 0.7874015748031497,
          "duration": 0.043512499999991405
        },
        {
          "name": "C#6",
          "midi": 85,
          "time": 229.74600000000072,
          "velocity": 0.7874015748031497,
          "duration": 0.35178750000000036
        },
        {
          "name": "D#6",
          "midi": 87,
          "time": 229.74600000000072,
          "velocity": 0.7874015748031497,
          "duration": 0.35178750000000036
        },
        {
          "name": "F#6",
          "midi": 90,
          "time": 229.74600000000072,
          "velocity": 0.7874015748031497,
          "duration": 0.35178750000000036
        },
        {
          "name": "C#7",
          "midi": 97,
          "time": 229.74600000000072,
          "velocity": 0.7874015748031497,
          "duration": 0.35178750000000036
        },
        {
          "name": "D7",
          "midi": 98,
          "time": 229.74600000000072,
          "velocity": 0.7874015748031497,
          "duration": 0.35178750000000036
        },
        {
          "name": "D#7",
          "midi": 99,
          "time": 229.74600000000072,
          "velocity": 0.7874015748031497,
          "duration": 0.35178750000000036
        },
        {
          "name": "F#7",
          "midi": 102,
          "time": 229.74600000000072,
          "velocity": 0.7874015748031497,
          "duration": 0.35178750000000036
        },
        {
          "name": "C#4",
          "midi": 61,
          "time": 230.10000000000073,
          "velocity": 0.7874015748031497,
          "duration": 0.04425000000000523
        },
        {
          "name": "F#4",
          "midi": 66,
          "time": 230.10000000000073,
          "velocity": 0.7874015748031497,
          "duration": 0.04425000000000523
        },
        {
          "name": "C#5",
          "midi": 73,
          "time": 230.10000000000073,
          "velocity": 0.7874015748031497,
          "duration": 0.04425000000000523
        },
        {
          "name": "D5",
          "midi": 74,
          "time": 230.10000000000073,
          "velocity": 0.7874015748031497,
          "duration": 0.04425000000000523
        },
        {
          "name": "F#5",
          "midi": 78,
          "time": 230.10000000000073,
          "velocity": 0.7874015748031497,
          "duration": 0.04425000000000523
        },
        {
          "name": "C#6",
          "midi": 85,
          "time": 230.10000000000073,
          "velocity": 0.7874015748031497,
          "duration": 0.35178750000000036
        },
        {
          "name": "D#6",
          "midi": 87,
          "time": 230.10000000000073,
          "velocity": 0.7874015748031497,
          "duration": 0.35178750000000036
        },
        {
          "name": "F#6",
          "midi": 90,
          "time": 230.10000000000073,
          "velocity": 0.7874015748031497,
          "duration": 0.35178750000000036
        },
        {
          "name": "C#7",
          "midi": 97,
          "time": 230.10000000000073,
          "velocity": 0.7874015748031497,
          "duration": 0.35178750000000036
        },
        {
          "name": "D7",
          "midi": 98,
          "time": 230.10000000000073,
          "velocity": 0.7874015748031497,
          "duration": 0.35178750000000036
        },
        {
          "name": "D#7",
          "midi": 99,
          "time": 230.10000000000073,
          "velocity": 0.7874015748031497,
          "duration": 0.35178750000000036
        },
        {
          "name": "F#7",
          "midi": 102,
          "time": 230.10000000000073,
          "velocity": 0.7874015748031497,
          "duration": 0.35178750000000036
        },
        {
          "name": "C#4",
          "midi": 61,
          "time": 230.45400000000075,
          "velocity": 0.7874015748031497,
          "duration": 0.043512499999991405
        },
        {
          "name": "F#4",
          "midi": 66,
          "time": 230.45400000000075,
          "velocity": 0.7874015748031497,
          "duration": 0.043512499999991405
        },
        {
          "name": "C#5",
          "midi": 73,
          "time": 230.45400000000075,
          "velocity": 0.7874015748031497,
          "duration": 0.043512499999991405
        },
        {
          "name": "D5",
          "midi": 74,
          "time": 230.45400000000075,
          "velocity": 0.7874015748031497,
          "duration": 0.043512499999991405
        },
        {
          "name": "F#5",
          "midi": 78,
          "time": 230.45400000000075,
          "velocity": 0.7874015748031497,
          "duration": 0.043512499999991405
        },
        {
          "name": "C#6",
          "midi": 85,
          "time": 230.45400000000075,
          "velocity": 0.7874015748031497,
          "duration": 0.35178750000000036
        },
        {
          "name": "D#6",
          "midi": 87,
          "time": 230.45400000000075,
          "velocity": 0.7874015748031497,
          "duration": 0.35178750000000036
        },
        {
          "name": "F#6",
          "midi": 90,
          "time": 230.45400000000075,
          "velocity": 0.7874015748031497,
          "duration": 0.35178750000000036
        },
        {
          "name": "C#7",
          "midi": 97,
          "time": 230.45400000000075,
          "velocity": 0.7874015748031497,
          "duration": 0.35178750000000036
        },
        {
          "name": "D7",
          "midi": 98,
          "time": 230.45400000000075,
          "velocity": 0.7874015748031497,
          "duration": 0.35178750000000036
        },
        {
          "name": "D#7",
          "midi": 99,
          "time": 230.45400000000075,
          "velocity": 0.7874015748031497,
          "duration": 0.35178750000000036
        },
        {
          "name": "F#7",
          "midi": 102,
          "time": 230.45400000000075,
          "velocity": 0.7874015748031497,
          "duration": 0.35178750000000036
        },
        {
          "name": "C4",
          "midi": 60,
          "time": 230.80800000000076,
          "velocity": 0.7874015748031497,
          "duration": 0.04425000000000523
        },
        {
          "name": "F#4",
          "midi": 66,
          "time": 230.80800000000076,
          "velocity": 0.7874015748031497,
          "duration": 0.04425000000000523
        },
        {
          "name": "C5",
          "midi": 72,
          "time": 230.80800000000076,
          "velocity": 0.7874015748031497,
          "duration": 0.04425000000000523
        },
        {
          "name": "C#5",
          "midi": 73,
          "time": 230.80800000000076,
          "velocity": 0.7874015748031497,
          "duration": 0.04425000000000523
        },
        {
          "name": "F#5",
          "midi": 78,
          "time": 230.80800000000076,
          "velocity": 0.7874015748031497,
          "duration": 0.04425000000000523
        },
        {
          "name": "C6",
          "midi": 84,
          "time": 230.80800000000076,
          "velocity": 0.7874015748031497,
          "duration": 0.35178750000000036
        },
        {
          "name": "D#6",
          "midi": 87,
          "time": 230.80800000000076,
          "velocity": 0.7874015748031497,
          "duration": 0.35178750000000036
        },
        {
          "name": "F#6",
          "midi": 90,
          "time": 230.80800000000076,
          "velocity": 0.7874015748031497,
          "duration": 0.35178750000000036
        },
        {
          "name": "C7",
          "midi": 96,
          "time": 230.80800000000076,
          "velocity": 0.7874015748031497,
          "duration": 0.35178750000000036
        },
        {
          "name": "D7",
          "midi": 98,
          "time": 230.80800000000076,
          "velocity": 0.7874015748031497,
          "duration": 0.35178750000000036
        },
        {
          "name": "D#7",
          "midi": 99,
          "time": 230.80800000000076,
          "velocity": 0.7874015748031497,
          "duration": 0.35178750000000036
        },
        {
          "name": "F#7",
          "midi": 102,
          "time": 230.80800000000076,
          "velocity": 0.7874015748031497,
          "duration": 0.35178750000000036
        },
        {
          "name": "C4",
          "midi": 60,
          "time": 231.16200000000077,
          "velocity": 0.7874015748031497,
          "duration": 0.04425000000000523
        },
        {
          "name": "F#4",
          "midi": 66,
          "time": 231.16200000000077,
          "velocity": 0.7874015748031497,
          "duration": 0.04425000000000523
        },
        {
          "name": "C5",
          "midi": 72,
          "time": 231.16200000000077,
          "velocity": 0.7874015748031497,
          "duration": 0.04425000000000523
        },
        {
          "name": "C#5",
          "midi": 73,
          "time": 231.16200000000077,
          "velocity": 0.7874015748031497,
          "duration": 0.04425000000000523
        },
        {
          "name": "F#5",
          "midi": 78,
          "time": 231.16200000000077,
          "velocity": 0.7874015748031497,
          "duration": 0.04425000000000523
        },
        {
          "name": "C6",
          "midi": 84,
          "time": 231.16200000000077,
          "velocity": 0.7874015748031497,
          "duration": 0.35178750000000036
        },
        {
          "name": "D#6",
          "midi": 87,
          "time": 231.16200000000077,
          "velocity": 0.7874015748031497,
          "duration": 0.35178750000000036
        },
        {
          "name": "F#6",
          "midi": 90,
          "time": 231.16200000000077,
          "velocity": 0.7874015748031497,
          "duration": 0.35178750000000036
        },
        {
          "name": "C7",
          "midi": 96,
          "time": 231.16200000000077,
          "velocity": 0.7874015748031497,
          "duration": 0.35178750000000036
        },
        {
          "name": "D7",
          "midi": 98,
          "time": 231.16200000000077,
          "velocity": 0.7874015748031497,
          "duration": 0.35178750000000036
        },
        {
          "name": "D#7",
          "midi": 99,
          "time": 231.16200000000077,
          "velocity": 0.7874015748031497,
          "duration": 0.35178750000000036
        },
        {
          "name": "F#7",
          "midi": 102,
          "time": 231.16200000000077,
          "velocity": 0.7874015748031497,
          "duration": 0.35178750000000036
        },
        {
          "name": "C4",
          "midi": 60,
          "time": 231.5160000000008,
          "velocity": 0.7874015748031497,
          "duration": 0.043512499999991405
        },
        {
          "name": "F#4",
          "midi": 66,
          "time": 231.5160000000008,
          "velocity": 0.7874015748031497,
          "duration": 0.043512499999991405
        },
        {
          "name": "C5",
          "midi": 72,
          "time": 231.5160000000008,
          "velocity": 0.7874015748031497,
          "duration": 0.043512499999991405
        },
        {
          "name": "C#5",
          "midi": 73,
          "time": 231.5160000000008,
          "velocity": 0.7874015748031497,
          "duration": 0.043512499999991405
        },
        {
          "name": "F#5",
          "midi": 78,
          "time": 231.5160000000008,
          "velocity": 0.7874015748031497,
          "duration": 0.043512499999991405
        },
        {
          "name": "C6",
          "midi": 84,
          "time": 231.5160000000008,
          "velocity": 0.7874015748031497,
          "duration": 0.35178750000000036
        },
        {
          "name": "D#6",
          "midi": 87,
          "time": 231.5160000000008,
          "velocity": 0.7874015748031497,
          "duration": 0.35178750000000036
        },
        {
          "name": "F#6",
          "midi": 90,
          "time": 231.5160000000008,
          "velocity": 0.7874015748031497,
          "duration": 0.35178750000000036
        },
        {
          "name": "C7",
          "midi": 96,
          "time": 231.5160000000008,
          "velocity": 0.7874015748031497,
          "duration": 0.35178750000000036
        },
        {
          "name": "D7",
          "midi": 98,
          "time": 231.5160000000008,
          "velocity": 0.7874015748031497,
          "duration": 0.35178750000000036
        },
        {
          "name": "D#7",
          "midi": 99,
          "time": 231.5160000000008,
          "velocity": 0.7874015748031497,
          "duration": 0.35178750000000036
        },
        {
          "name": "F#7",
          "midi": 102,
          "time": 231.5160000000008,
          "velocity": 0.7874015748031497,
          "duration": 0.35178750000000036
        },
        {
          "name": "C4",
          "midi": 60,
          "time": 231.8700000000008,
          "velocity": 0.7874015748031497,
          "duration": 0.043512499999991405
        },
        {
          "name": "F#4",
          "midi": 66,
          "time": 231.8700000000008,
          "velocity": 0.7874015748031497,
          "duration": 0.043512499999991405
        },
        {
          "name": "C5",
          "midi": 72,
          "time": 231.8700000000008,
          "velocity": 0.7874015748031497,
          "duration": 0.043512499999991405
        },
        {
          "name": "C#5",
          "midi": 73,
          "time": 231.8700000000008,
          "velocity": 0.7874015748031497,
          "duration": 0.043512499999991405
        },
        {
          "name": "F#5",
          "midi": 78,
          "time": 231.8700000000008,
          "velocity": 0.7874015748031497,
          "duration": 0.043512499999991405
        },
        {
          "name": "C6",
          "midi": 84,
          "time": 231.8700000000008,
          "velocity": 0.7874015748031497,
          "duration": 0.35178750000000036
        },
        {
          "name": "D#6",
          "midi": 87,
          "time": 231.8700000000008,
          "velocity": 0.7874015748031497,
          "duration": 0.35178750000000036
        },
        {
          "name": "F#6",
          "midi": 90,
          "time": 231.8700000000008,
          "velocity": 0.7874015748031497,
          "duration": 0.35178750000000036
        },
        {
          "name": "C7",
          "midi": 96,
          "time": 231.8700000000008,
          "velocity": 0.7874015748031497,
          "duration": 0.35178750000000036
        },
        {
          "name": "D7",
          "midi": 98,
          "time": 231.8700000000008,
          "velocity": 0.7874015748031497,
          "duration": 0.35178750000000036
        },
        {
          "name": "D#7",
          "midi": 99,
          "time": 231.8700000000008,
          "velocity": 0.7874015748031497,
          "duration": 0.35178750000000036
        },
        {
          "name": "F#7",
          "midi": 102,
          "time": 231.8700000000008,
          "velocity": 0.7874015748031497,
          "duration": 0.35178750000000036
        },
        {
          "name": "C#4",
          "midi": 61,
          "time": 232.2240000000008,
          "velocity": 0.7874015748031497,
          "duration": 0.043512499999991405
        },
        {
          "name": "F#4",
          "midi": 66,
          "time": 232.2240000000008,
          "velocity": 0.7874015748031497,
          "duration": 0.043512499999991405
        },
        {
          "name": "C#5",
          "midi": 73,
          "time": 232.2240000000008,
          "velocity": 0.7874015748031497,
          "duration": 0.043512499999991405
        },
        {
          "name": "D5",
          "midi": 74,
          "time": 232.2240000000008,
          "velocity": 0.7874015748031497,
          "duration": 0.043512499999991405
        },
        {
          "name": "F#5",
          "midi": 78,
          "time": 232.2240000000008,
          "velocity": 0.7874015748031497,
          "duration": 0.043512499999991405
        },
        {
          "name": "C#6",
          "midi": 85,
          "time": 232.2240000000008,
          "velocity": 0.7874015748031497,
          "duration": 0.35178750000000036
        },
        {
          "name": "D#6",
          "midi": 87,
          "time": 232.2240000000008,
          "velocity": 0.7874015748031497,
          "duration": 0.35178750000000036
        },
        {
          "name": "F#6",
          "midi": 90,
          "time": 232.2240000000008,
          "velocity": 0.7874015748031497,
          "duration": 0.35178750000000036
        },
        {
          "name": "C#7",
          "midi": 97,
          "time": 232.2240000000008,
          "velocity": 0.7874015748031497,
          "duration": 0.35178750000000036
        },
        {
          "name": "D7",
          "midi": 98,
          "time": 232.2240000000008,
          "velocity": 0.7874015748031497,
          "duration": 0.35178750000000036
        },
        {
          "name": "D#7",
          "midi": 99,
          "time": 232.2240000000008,
          "velocity": 0.7874015748031497,
          "duration": 0.35178750000000036
        },
        {
          "name": "F#7",
          "midi": 102,
          "time": 232.2240000000008,
          "velocity": 0.7874015748031497,
          "duration": 0.35178750000000036
        },
        {
          "name": "C#4",
          "midi": 61,
          "time": 232.57800000000083,
          "velocity": 0.7874015748031497,
          "duration": 0.043512499999991405
        },
        {
          "name": "F#4",
          "midi": 66,
          "time": 232.57800000000083,
          "velocity": 0.7874015748031497,
          "duration": 0.043512499999991405
        },
        {
          "name": "C#5",
          "midi": 73,
          "time": 232.57800000000083,
          "velocity": 0.7874015748031497,
          "duration": 0.043512499999991405
        },
        {
          "name": "D5",
          "midi": 74,
          "time": 232.57800000000083,
          "velocity": 0.7874015748031497,
          "duration": 0.043512499999991405
        },
        {
          "name": "F#5",
          "midi": 78,
          "time": 232.57800000000083,
          "velocity": 0.7874015748031497,
          "duration": 0.043512499999991405
        },
        {
          "name": "C#6",
          "midi": 85,
          "time": 232.57800000000083,
          "velocity": 0.7874015748031497,
          "duration": 0.35178750000000036
        },
        {
          "name": "D#6",
          "midi": 87,
          "time": 232.57800000000083,
          "velocity": 0.7874015748031497,
          "duration": 0.35178750000000036
        },
        {
          "name": "F#6",
          "midi": 90,
          "time": 232.57800000000083,
          "velocity": 0.7874015748031497,
          "duration": 0.35178750000000036
        },
        {
          "name": "C#7",
          "midi": 97,
          "time": 232.57800000000083,
          "velocity": 0.7874015748031497,
          "duration": 0.35178750000000036
        },
        {
          "name": "D7",
          "midi": 98,
          "time": 232.57800000000083,
          "velocity": 0.7874015748031497,
          "duration": 0.35178750000000036
        },
        {
          "name": "D#7",
          "midi": 99,
          "time": 232.57800000000083,
          "velocity": 0.7874015748031497,
          "duration": 0.35178750000000036
        },
        {
          "name": "F#7",
          "midi": 102,
          "time": 232.57800000000083,
          "velocity": 0.7874015748031497,
          "duration": 0.35178750000000036
        },
        {
          "name": "C#4",
          "midi": 61,
          "time": 232.93200000000084,
          "velocity": 0.7874015748031497,
          "duration": 0.043512499999991405
        },
        {
          "name": "F#4",
          "midi": 66,
          "time": 232.93200000000084,
          "velocity": 0.7874015748031497,
          "duration": 0.043512499999991405
        },
        {
          "name": "C#5",
          "midi": 73,
          "time": 232.93200000000084,
          "velocity": 0.7874015748031497,
          "duration": 0.043512499999991405
        },
        {
          "name": "D5",
          "midi": 74,
          "time": 232.93200000000084,
          "velocity": 0.7874015748031497,
          "duration": 0.043512499999991405
        },
        {
          "name": "F#5",
          "midi": 78,
          "time": 232.93200000000084,
          "velocity": 0.7874015748031497,
          "duration": 0.043512499999991405
        },
        {
          "name": "C#6",
          "midi": 85,
          "time": 232.93200000000084,
          "velocity": 0.7874015748031497,
          "duration": 0.35178750000000036
        },
        {
          "name": "D#6",
          "midi": 87,
          "time": 232.93200000000084,
          "velocity": 0.7874015748031497,
          "duration": 0.35178750000000036
        },
        {
          "name": "F#6",
          "midi": 90,
          "time": 232.93200000000084,
          "velocity": 0.7874015748031497,
          "duration": 0.35178750000000036
        },
        {
          "name": "C#7",
          "midi": 97,
          "time": 232.93200000000084,
          "velocity": 0.7874015748031497,
          "duration": 0.35178750000000036
        },
        {
          "name": "D7",
          "midi": 98,
          "time": 232.93200000000084,
          "velocity": 0.7874015748031497,
          "duration": 0.35178750000000036
        },
        {
          "name": "D#7",
          "midi": 99,
          "time": 232.93200000000084,
          "velocity": 0.7874015748031497,
          "duration": 0.35178750000000036
        },
        {
          "name": "F#7",
          "midi": 102,
          "time": 232.93200000000084,
          "velocity": 0.7874015748031497,
          "duration": 0.35178750000000036
        },
        {
          "name": "C#4",
          "midi": 61,
          "time": 233.28600000000085,
          "velocity": 0.7874015748031497,
          "duration": 0.043512499999991405
        },
        {
          "name": "F#4",
          "midi": 66,
          "time": 233.28600000000085,
          "velocity": 0.7874015748031497,
          "duration": 0.043512499999991405
        },
        {
          "name": "C#5",
          "midi": 73,
          "time": 233.28600000000085,
          "velocity": 0.7874015748031497,
          "duration": 0.043512499999991405
        },
        {
          "name": "D5",
          "midi": 74,
          "time": 233.28600000000085,
          "velocity": 0.7874015748031497,
          "duration": 0.043512499999991405
        },
        {
          "name": "F#5",
          "midi": 78,
          "time": 233.28600000000085,
          "velocity": 0.7874015748031497,
          "duration": 0.043512499999991405
        },
        {
          "name": "C#6",
          "midi": 85,
          "time": 233.28600000000085,
          "velocity": 0.7874015748031497,
          "duration": 0.35178750000000036
        },
        {
          "name": "D#6",
          "midi": 87,
          "time": 233.28600000000085,
          "velocity": 0.7874015748031497,
          "duration": 0.35178750000000036
        },
        {
          "name": "F#6",
          "midi": 90,
          "time": 233.28600000000085,
          "velocity": 0.7874015748031497,
          "duration": 0.35178750000000036
        },
        {
          "name": "C#7",
          "midi": 97,
          "time": 233.28600000000085,
          "velocity": 0.7874015748031497,
          "duration": 0.35178750000000036
        },
        {
          "name": "D7",
          "midi": 98,
          "time": 233.28600000000085,
          "velocity": 0.7874015748031497,
          "duration": 0.35178750000000036
        },
        {
          "name": "D#7",
          "midi": 99,
          "time": 233.28600000000085,
          "velocity": 0.7874015748031497,
          "duration": 0.35178750000000036
        },
        {
          "name": "F#7",
          "midi": 102,
          "time": 233.28600000000085,
          "velocity": 0.7874015748031497,
          "duration": 0.35178750000000036
        },
        {
          "name": "C4",
          "midi": 60,
          "time": 233.64000000000087,
          "velocity": 0.7874015748031497,
          "duration": 0.043512499999991405
        },
        {
          "name": "F#4",
          "midi": 66,
          "time": 233.64000000000087,
          "velocity": 0.7874015748031497,
          "duration": 0.043512499999991405
        },
        {
          "name": "C5",
          "midi": 72,
          "time": 233.64000000000087,
          "velocity": 0.7874015748031497,
          "duration": 0.043512499999991405
        },
        {
          "name": "C#5",
          "midi": 73,
          "time": 233.64000000000087,
          "velocity": 0.7874015748031497,
          "duration": 0.043512499999991405
        },
        {
          "name": "F#5",
          "midi": 78,
          "time": 233.64000000000087,
          "velocity": 0.7874015748031497,
          "duration": 0.043512499999991405
        },
        {
          "name": "C6",
          "midi": 84,
          "time": 233.64000000000087,
          "velocity": 0.7874015748031497,
          "duration": 0.043512499999991405
        },
        {
          "name": "C#6",
          "midi": 85,
          "time": 233.64000000000087,
          "velocity": 0.7874015748031497,
          "duration": 0.043512499999991405
        },
        {
          "name": "F#6",
          "midi": 90,
          "time": 233.64000000000087,
          "velocity": 0.7874015748031497,
          "duration": 0.043512499999991405
        },
        {
          "name": "C7",
          "midi": 96,
          "time": 233.64000000000087,
          "velocity": 0.7874015748031497,
          "duration": 0.043512499999991405
        },
        {
          "name": "C#7",
          "midi": 97,
          "time": 233.64000000000087,
          "velocity": 0.7874015748031497,
          "duration": 0.043512499999991405
        },
        {
          "name": "F#7",
          "midi": 102,
          "time": 233.64000000000087,
          "velocity": 0.7874015748031497,
          "duration": 0.043512499999991405
        },
        {
          "name": "C5",
          "midi": 72,
          "time": 233.81626250000085,
          "velocity": 0.7874015748031497,
          "duration": 0.043512499999991405
        },
        {
          "name": "C#5",
          "midi": 73,
          "time": 233.81626250000085,
          "velocity": 0.7874015748031497,
          "duration": 0.043512499999991405
        },
        {
          "name": "F#5",
          "midi": 78,
          "time": 233.81626250000085,
          "velocity": 0.7874015748031497,
          "duration": 0.043512499999991405
        },
        {
          "name": "C6",
          "midi": 84,
          "time": 233.81626250000085,
          "velocity": 0.7874015748031497,
          "duration": 0.3540000000000134
        },
        {
          "name": "C#6",
          "midi": 85,
          "time": 233.81626250000085,
          "velocity": 0.7874015748031497,
          "duration": 0.3540000000000134
        },
        {
          "name": "F#6",
          "midi": 90,
          "time": 233.81626250000085,
          "velocity": 0.7874015748031497,
          "duration": 0.3540000000000134
        },
        {
          "name": "C7",
          "midi": 96,
          "time": 233.81626250000085,
          "velocity": 0.7874015748031497,
          "duration": 0.35178750000000036
        },
        {
          "name": "C#7",
          "midi": 97,
          "time": 233.81626250000085,
          "velocity": 0.7874015748031497,
          "duration": 0.35178750000000036
        },
        {
          "name": "F#7",
          "midi": 102,
          "time": 233.81626250000085,
          "velocity": 0.7874015748031497,
          "duration": 0.35178750000000036
        },
        {
          "name": "C7",
          "midi": 96,
          "time": 234.17026250000086,
          "velocity": 0.7874015748031497,
          "duration": 0.043512499999991405
        },
        {
          "name": "C#7",
          "midi": 97,
          "time": 234.17026250000086,
          "velocity": 0.7874015748031497,
          "duration": 0.043512499999991405
        },
        {
          "name": "F#7",
          "midi": 102,
          "time": 234.17026250000086,
          "velocity": 0.7874015748031497,
          "duration": 0.043512499999991405
        },
        {
          "name": "D4",
          "midi": 62,
          "time": 234.34800000000084,
          "velocity": 0.7874015748031497,
          "duration": 13.449787500000014
        },
        {
          "name": "F#4",
          "midi": 66,
          "time": 234.34800000000084,
          "velocity": 0.7874015748031497,
          "duration": 13.449787500000014
        },
        {
          "name": "D5",
          "midi": 74,
          "time": 234.34800000000084,
          "velocity": 0.7874015748031497,
          "duration": 13.449787500000014
        },
        {
          "name": "D#5",
          "midi": 75,
          "time": 234.34800000000084,
          "velocity": 0.7874015748031497,
          "duration": 13.449787500000014
        },
        {
          "name": "F#5",
          "midi": 78,
          "time": 234.34800000000084,
          "velocity": 0.7874015748031497,
          "duration": 13.449787500000014
        },
        {
          "name": "D6",
          "midi": 86,
          "time": 234.34800000000084,
          "velocity": 0.7874015748031497,
          "duration": 13.449787500000014
        },
        {
          "name": "E6",
          "midi": 88,
          "time": 234.34800000000084,
          "velocity": 0.7874015748031497,
          "duration": 13.449787500000014
        },
        {
          "name": "F#6",
          "midi": 90,
          "time": 234.34800000000084,
          "velocity": 0.7874015748031497,
          "duration": 13.449787500000014
        },
        {
          "name": "D7",
          "midi": 98,
          "time": 234.34800000000084,
          "velocity": 0.7874015748031497,
          "duration": 13.449787500000014
        },
        {
          "name": "D#7",
          "midi": 99,
          "time": 234.34800000000084,
          "velocity": 0.7874015748031497,
          "duration": 13.449787500000014
        },
        {
          "name": "E7",
          "midi": 100,
          "time": 234.34800000000084,
          "velocity": 0.7874015748031497,
          "duration": 13.449787500000014
        },
        {
          "name": "F#7",
          "midi": 102,
          "time": 234.34800000000084,
          "velocity": 0.7874015748031497,
          "duration": 13.449787500000014
        },
        {
          "name": "C4",
          "midi": 60,
          "time": 247.80000000000086,
          "velocity": 0.7874015748031497,
          "duration": 0.04425000000000523
        },
        {
          "name": "F#4",
          "midi": 66,
          "time": 247.80000000000086,
          "velocity": 0.7874015748031497,
          "duration": 0.04425000000000523
        },
        {
          "name": "C5",
          "midi": 72,
          "time": 247.80000000000086,
          "velocity": 0.7874015748031497,
          "duration": 0.04425000000000523
        },
        {
          "name": "F#5",
          "midi": 78,
          "time": 247.80000000000086,
          "velocity": 0.7874015748031497,
          "duration": 0.04425000000000523
        },
        {
          "name": "C6",
          "midi": 84,
          "time": 247.80000000000086,
          "velocity": 0.7874015748031497,
          "duration": 0.35178750000000036
        },
        {
          "name": "F#6",
          "midi": 90,
          "time": 247.80000000000086,
          "velocity": 0.7874015748031497,
          "duration": 0.35178750000000036
        },
        {
          "name": "C7",
          "midi": 96,
          "time": 247.80000000000086,
          "velocity": 0.7874015748031497,
          "duration": 1.0597875000000272
        },
        {
          "name": "F#7",
          "midi": 102,
          "time": 247.80000000000086,
          "velocity": 0.7874015748031497,
          "duration": 1.060525000000041
        },
        {
          "name": "C4",
          "midi": 60,
          "time": 248.15400000000088,
          "velocity": 0.7874015748031497,
          "duration": 0.04425000000000523
        },
        {
          "name": "F#4",
          "midi": 66,
          "time": 248.15400000000088,
          "velocity": 0.7874015748031497,
          "duration": 0.04425000000000523
        },
        {
          "name": "C#5",
          "midi": 73,
          "time": 248.15400000000088,
          "velocity": 0.7874015748031497,
          "duration": 0.04425000000000523
        },
        {
          "name": "F#5",
          "midi": 78,
          "time": 248.15400000000088,
          "velocity": 0.7874015748031497,
          "duration": 0.04425000000000523
        },
        {
          "name": "D6",
          "midi": 86,
          "time": 248.15400000000088,
          "velocity": 0.7874015748031497,
          "duration": 0.35178750000000036
        },
        {
          "name": "F#6",
          "midi": 90,
          "time": 248.15400000000088,
          "velocity": 0.7874015748031497,
          "duration": 0.35178750000000036
        },
        {
          "name": "D7",
          "midi": 98,
          "time": 248.15400000000088,
          "velocity": 0.7874015748031497,
          "duration": 0.7072625000000414
        },
        {
          "name": "C#4",
          "midi": 61,
          "time": 248.5080000000009,
          "velocity": 0.7874015748031497,
          "duration": 0.04425000000000523
        },
        {
          "name": "F#4",
          "midi": 66,
          "time": 248.5080000000009,
          "velocity": 0.7874015748031497,
          "duration": 0.04425000000000523
        },
        {
          "name": "D5",
          "midi": 74,
          "time": 248.5080000000009,
          "velocity": 0.7874015748031497,
          "duration": 0.04425000000000523
        },
        {
          "name": "F#5",
          "midi": 78,
          "time": 248.5080000000009,
          "velocity": 0.7874015748031497,
          "duration": 0.04425000000000523
        },
        {
          "name": "D#6",
          "midi": 87,
          "time": 248.5080000000009,
          "velocity": 0.7874015748031497,
          "duration": 0.35178750000000036
        },
        {
          "name": "F#6",
          "midi": 90,
          "time": 248.5080000000009,
          "velocity": 0.7874015748031497,
          "duration": 0.35178750000000036
        },
        {
          "name": "D#7",
          "midi": 99,
          "time": 248.5080000000009,
          "velocity": 0.7874015748031497,
          "duration": 0.353262500000028
        },
        {
          "name": "C6",
          "midi": 84,
          "time": 248.86200000000093,
          "velocity": 0.7874015748031497,
          "duration": 0.04425000000000523
        },
        {
          "name": "F#6",
          "midi": 90,
          "time": 248.86200000000093,
          "velocity": 0.7874015748031497,
          "duration": 0.04425000000000523
        },
        {
          "name": "C7",
          "midi": 96,
          "time": 248.86200000000093,
          "velocity": 0.7874015748031497,
          "duration": 0.04425000000000523
        },
        {
          "name": "F#7",
          "midi": 102,
          "time": 248.86200000000093,
          "velocity": 0.7874015748031497,
          "duration": 0.04425000000000523
        },
        {
          "name": "C4",
          "midi": 60,
          "time": 249.03900000000093,
          "velocity": 0.7874015748031497,
          "duration": 0.5287874999999929
        },
        {
          "name": "F#4",
          "midi": 66,
          "time": 249.03900000000093,
          "velocity": 0.7874015748031497,
          "duration": 0.5287874999999929
        },
        {
          "name": "C#5",
          "midi": 73,
          "time": 249.03900000000093,
          "velocity": 0.7874015748031497,
          "duration": 0.5287874999999929
        },
        {
          "name": "F#5",
          "midi": 78,
          "time": 249.03900000000093,
          "velocity": 0.7874015748031497,
          "duration": 0.5287874999999929
        },
        {
          "name": "C#6",
          "midi": 85,
          "time": 249.03900000000093,
          "velocity": 0.7874015748031497,
          "duration": 0.5287874999999929
        },
        {
          "name": "F#6",
          "midi": 90,
          "time": 249.03900000000093,
          "velocity": 0.7874015748031497,
          "duration": 0.5287874999999929
        },
        {
          "name": "C#7",
          "midi": 97,
          "time": 249.03900000000093,
          "velocity": 0.7874015748031497,
          "duration": 1.2390000000000327
        },
        {
          "name": "F#7",
          "midi": 102,
          "time": 249.03900000000093,
          "velocity": 0.7874015748031497,
          "duration": 1.2825125000000241
        },
        {
          "name": "C#4",
          "midi": 61,
          "time": 249.57000000000093,
          "velocity": 0.7874015748031497,
          "duration": 0.043512499999991405
        },
        {
          "name": "F#4",
          "midi": 66,
          "time": 249.57000000000093,
          "velocity": 0.7874015748031497,
          "duration": 0.043512499999991405
        },
        {
          "name": "D5",
          "midi": 74,
          "time": 249.57000000000093,
          "velocity": 0.7874015748031497,
          "duration": 0.043512499999991405
        },
        {
          "name": "F#5",
          "midi": 78,
          "time": 249.57000000000093,
          "velocity": 0.7874015748031497,
          "duration": 0.043512499999991405
        },
        {
          "name": "D#6",
          "midi": 87,
          "time": 249.57000000000093,
          "velocity": 0.7874015748031497,
          "duration": 0.35178750000000036
        },
        {
          "name": "F#6",
          "midi": 90,
          "time": 249.57000000000093,
          "velocity": 0.7874015748031497,
          "duration": 0.35178750000000036
        },
        {
          "name": "D#7",
          "midi": 99,
          "time": 249.57000000000093,
          "velocity": 0.7874015748031497,
          "duration": 0.7080000000000268
        },
        {
          "name": "D4",
          "midi": 62,
          "time": 249.92400000000094,
          "velocity": 0.7874015748031497,
          "duration": 0.04425000000000523
        },
        {
          "name": "F#4",
          "midi": 66,
          "time": 249.92400000000094,
          "velocity": 0.7874015748031497,
          "duration": 0.04425000000000523
        },
        {
          "name": "D#5",
          "midi": 75,
          "time": 249.92400000000094,
          "velocity": 0.7874015748031497,
          "duration": 0.04425000000000523
        },
        {
          "name": "F#5",
          "midi": 78,
          "time": 249.92400000000094,
          "velocity": 0.7874015748031497,
          "duration": 0.04425000000000523
        },
        {
          "name": "E6",
          "midi": 88,
          "time": 249.92400000000094,
          "velocity": 0.7874015748031497,
          "duration": 0.35178750000000036
        },
        {
          "name": "F#6",
          "midi": 90,
          "time": 249.92400000000094,
          "velocity": 0.7874015748031497,
          "duration": 0.35178750000000036
        },
        {
          "name": "E7",
          "midi": 100,
          "time": 249.92400000000094,
          "velocity": 0.7874015748031497,
          "duration": 0.35178750000000036
        },
        {
          "name": "G#8",
          "midi": 116,
          "time": 250.27800000000096,
          "velocity": 0.7874015748031497,
          "duration": 3.7155249999999853
        },
        {
          "name": "D4",
          "midi": 62,
          "time": 250.27800000000096,
          "velocity": 0.7874015748031497,
          "duration": 0.043512499999991405
        },
        {
          "name": "F#4",
          "midi": 66,
          "time": 250.27800000000096,
          "velocity": 0.7874015748031497,
          "duration": 0.043512499999991405
        },
        {
          "name": "D#5",
          "midi": 75,
          "time": 250.27800000000096,
          "velocity": 0.7874015748031497,
          "duration": 0.043512499999991405
        },
        {
          "name": "F#5",
          "midi": 78,
          "time": 250.27800000000096,
          "velocity": 0.7874015748031497,
          "duration": 0.043512499999991405
        },
        {
          "name": "E6",
          "midi": 88,
          "time": 250.27800000000096,
          "velocity": 0.7874015748031497,
          "duration": 0.043512499999991405
        },
        {
          "name": "F#6",
          "midi": 90,
          "time": 250.27800000000096,
          "velocity": 0.7874015748031497,
          "duration": 0.043512499999991405
        },
        {
          "name": "E7",
          "midi": 100,
          "time": 250.27800000000096,
          "velocity": 0.7874015748031497,
          "duration": 0.043512499999991405
        },
        {
          "name": "C#5",
          "midi": 73,
          "time": 250.45500000000095,
          "velocity": 0.7874015748031497,
          "duration": 0.043512499999991405
        },
        {
          "name": "F#5",
          "midi": 78,
          "time": 250.45500000000095,
          "velocity": 0.7874015748031497,
          "duration": 0.043512499999991405
        },
        {
          "name": "D6",
          "midi": 86,
          "time": 250.45500000000095,
          "velocity": 0.7874015748031497,
          "duration": 0.043512499999991405
        },
        {
          "name": "F#6",
          "midi": 90,
          "time": 250.45500000000095,
          "velocity": 0.7874015748031497,
          "duration": 0.043512499999991405
        },
        {
          "name": "D7",
          "midi": 98,
          "time": 250.45500000000095,
          "velocity": 0.7874015748031497,
          "duration": 0.043512499999991405
        },
        {
          "name": "F#7",
          "midi": 102,
          "time": 250.45500000000095,
          "velocity": 0.7874015748031497,
          "duration": 0.043512499999991405
        },
        {
          "name": "C4",
          "midi": 60,
          "time": 250.63200000000094,
          "velocity": 0.7874015748031497,
          "duration": 0.043512499999991405
        },
        {
          "name": "F#4",
          "midi": 66,
          "time": 250.63200000000094,
          "velocity": 0.7874015748031497,
          "duration": 0.043512499999991405
        },
        {
          "name": "D5",
          "midi": 74,
          "time": 250.63200000000094,
          "velocity": 0.7874015748031497,
          "duration": 0.043512499999991405
        },
        {
          "name": "F#5",
          "midi": 78,
          "time": 250.63200000000094,
          "velocity": 0.7874015748031497,
          "duration": 0.043512499999991405
        },
        {
          "name": "D#6",
          "midi": 87,
          "time": 250.63200000000094,
          "velocity": 0.7874015748031497,
          "duration": 0.043512499999991405
        },
        {
          "name": "F#6",
          "midi": 90,
          "time": 250.63200000000094,
          "velocity": 0.7874015748031497,
          "duration": 0.043512499999991405
        },
        {
          "name": "D#7",
          "midi": 99,
          "time": 250.63200000000094,
          "velocity": 0.7874015748031497,
          "duration": 0.043512499999991405
        },
        {
          "name": "F#7",
          "midi": 102,
          "time": 250.63200000000094,
          "velocity": 0.7874015748031497,
          "duration": 0.043512499999991405
        },
        {
          "name": "C#7",
          "midi": 97,
          "time": 250.80900000000094,
          "velocity": 0.7874015748031497,
          "duration": 0.043512499999991405
        },
        {
          "name": "F#7",
          "midi": 102,
          "time": 250.80900000000094,
          "velocity": 0.7874015748031497,
          "duration": 0.043512499999991405
        },
        {
          "name": "C#4",
          "midi": 61,
          "time": 250.98600000000093,
          "velocity": 0.7874015748031497,
          "duration": 1.7677874999999972
        },
        {
          "name": "F#4",
          "midi": 66,
          "time": 250.98600000000093,
          "velocity": 0.7874015748031497,
          "duration": 1.7677874999999972
        },
        {
          "name": "C#5",
          "midi": 73,
          "time": 250.98600000000093,
          "velocity": 0.7874015748031497,
          "duration": 1.7677874999999972
        },
        {
          "name": "F#5",
          "midi": 78,
          "time": 250.98600000000093,
          "velocity": 0.7874015748031497,
          "duration": 1.7677874999999972
        },
        {
          "name": "D6",
          "midi": 86,
          "time": 250.98600000000093,
          "velocity": 0.7874015748031497,
          "duration": 1.7677874999999972
        },
        {
          "name": "F#6",
          "midi": 90,
          "time": 250.98600000000093,
          "velocity": 0.7874015748031497,
          "duration": 1.7677874999999972
        },
        {
          "name": "D7",
          "midi": 98,
          "time": 250.98600000000093,
          "velocity": 0.7874015748031497,
          "duration": 1.7677874999999972
        },
        {
          "name": "F#7",
          "midi": 102,
          "time": 250.98600000000093,
          "velocity": 0.7874015748031497,
          "duration": 1.7677874999999972
        },
        {
          "name": "C4",
          "midi": 60,
          "time": 252.75600000000094,
          "velocity": 0.7874015748031497,
          "duration": 1.2360500000000059
        },
        {
          "name": "F#4",
          "midi": 66,
          "time": 252.75600000000094,
          "velocity": 0.7874015748031497,
          "duration": 1.2360500000000059
        },
        {
          "name": "C5",
          "midi": 72,
          "time": 252.75600000000094,
          "velocity": 0.7874015748031497,
          "duration": 1.2360500000000059
        },
        {
          "name": "F#5",
          "midi": 78,
          "time": 252.75600000000094,
          "velocity": 0.7874015748031497,
          "duration": 1.2360500000000059
        },
        {
          "name": "C#6",
          "midi": 85,
          "time": 252.75600000000094,
          "velocity": 0.7874015748031497,
          "duration": 1.2360500000000059
        },
        {
          "name": "F#6",
          "midi": 90,
          "time": 252.75600000000094,
          "velocity": 0.7874015748031497,
          "duration": 1.2360500000000059
        },
        {
          "name": "C#7",
          "midi": 97,
          "time": 252.75600000000094,
          "velocity": 0.7874015748031497,
          "duration": 1.2360500000000059
        },
        {
          "name": "F#7",
          "midi": 102,
          "time": 252.75600000000094,
          "velocity": 0.7874015748031497,
          "duration": 1.2360500000000059
        },
        {
          "name": "C4",
          "midi": 60,
          "time": 253.99426250000096,
          "velocity": 0.7874015748031497,
          "duration": 0.5295250000000067
        },
        {
          "name": "F#4",
          "midi": 66,
          "time": 253.99426250000096,
          "velocity": 0.7874015748031497,
          "duration": 0.5295250000000067
        },
        {
          "name": "C#5",
          "midi": 73,
          "time": 253.99426250000096,
          "velocity": 0.7874015748031497,
          "duration": 0.5295250000000067
        },
        {
          "name": "F#5",
          "midi": 78,
          "time": 253.99426250000096,
          "velocity": 0.7874015748031497,
          "duration": 0.5295250000000067
        },
        {
          "name": "C#6",
          "midi": 85,
          "time": 253.99426250000096,
          "velocity": 0.7874015748031497,
          "duration": 0.5295250000000067
        },
        {
          "name": "F#6",
          "midi": 90,
          "time": 253.99426250000096,
          "velocity": 0.7874015748031497,
          "duration": 0.5295250000000067
        },
        {
          "name": "C#7",
          "midi": 97,
          "time": 253.99426250000096,
          "velocity": 0.7874015748031497,
          "duration": 1.2397375000000466
        },
        {
          "name": "F#7",
          "midi": 102,
          "time": 253.99426250000096,
          "velocity": 0.7874015748031497,
          "duration": 2.345987500000092
        },
        {
          "name": "C#4",
          "midi": 61,
          "time": 254.52600000000098,
          "velocity": 0.7874015748031497,
          "duration": 0.043512499999991405
        },
        {
          "name": "F#4",
          "midi": 66,
          "time": 254.52600000000098,
          "velocity": 0.7874015748031497,
          "duration": 0.043512499999991405
        },
        {
          "name": "D5",
          "midi": 74,
          "time": 254.52600000000098,
          "velocity": 0.7874015748031497,
          "duration": 0.043512499999991405
        },
        {
          "name": "F#5",
          "midi": 78,
          "time": 254.52600000000098,
          "velocity": 0.7874015748031497,
          "duration": 0.043512499999991405
        },
        {
          "name": "D#6",
          "midi": 87,
          "time": 254.52600000000098,
          "velocity": 0.7874015748031497,
          "duration": 0.35178750000000036
        },
        {
          "name": "F#6",
          "midi": 90,
          "time": 254.52600000000098,
          "velocity": 0.7874015748031497,
          "duration": 0.35178750000000036
        },
        {
          "name": "D#7",
          "midi": 99,
          "time": 254.52600000000098,
          "velocity": 0.7874015748031497,
          "duration": 0.7080000000000268
        },
        {
          "name": "D4",
          "midi": 62,
          "time": 254.880000000001,
          "velocity": 0.7874015748031497,
          "duration": 0.043512499999991405
        },
        {
          "name": "F#4",
          "midi": 66,
          "time": 254.880000000001,
          "velocity": 0.7874015748031497,
          "duration": 0.043512499999991405
        },
        {
          "name": "D#5",
          "midi": 75,
          "time": 254.880000000001,
          "velocity": 0.7874015748031497,
          "duration": 0.043512499999991405
        },
        {
          "name": "F#5",
          "midi": 78,
          "time": 254.880000000001,
          "velocity": 0.7874015748031497,
          "duration": 0.043512499999991405
        },
        {
          "name": "E6",
          "midi": 88,
          "time": 254.880000000001,
          "velocity": 0.7874015748031497,
          "duration": 0.35178750000000036
        },
        {
          "name": "F#6",
          "midi": 90,
          "time": 254.880000000001,
          "velocity": 0.7874015748031497,
          "duration": 0.35178750000000036
        },
        {
          "name": "E7",
          "midi": 100,
          "time": 254.880000000001,
          "velocity": 0.7874015748031497,
          "duration": 0.3540000000000134
        },
        {
          "name": "C4",
          "midi": 60,
          "time": 255.234000000001,
          "velocity": 0.7874015748031497,
          "duration": 0.043512499999991405
        },
        {
          "name": "F#4",
          "midi": 66,
          "time": 255.234000000001,
          "velocity": 0.7874015748031497,
          "duration": 0.043512499999991405
        },
        {
          "name": "C5",
          "midi": 72,
          "time": 255.234000000001,
          "velocity": 0.7874015748031497,
          "duration": 0.043512499999991405
        },
        {
          "name": "F#5",
          "midi": 78,
          "time": 255.234000000001,
          "velocity": 0.7874015748031497,
          "duration": 0.043512499999991405
        },
        {
          "name": "C6",
          "midi": 84,
          "time": 255.234000000001,
          "velocity": 0.7874015748031497,
          "duration": 0.35178750000000036
        },
        {
          "name": "F#6",
          "midi": 90,
          "time": 255.234000000001,
          "velocity": 0.7874015748031497,
          "duration": 0.35178750000000036
        },
        {
          "name": "C7",
          "midi": 96,
          "time": 255.234000000001,
          "velocity": 0.7874015748031497,
          "duration": 1.0597875000000272
        },
        {
          "name": "C4",
          "midi": 60,
          "time": 255.58800000000102,
          "velocity": 0.7874015748031497,
          "duration": 0.043512499999991405
        },
        {
          "name": "F#4",
          "midi": 66,
          "time": 255.58800000000102,
          "velocity": 0.7874015748031497,
          "duration": 0.043512499999991405
        },
        {
          "name": "C#5",
          "midi": 73,
          "time": 255.58800000000102,
          "velocity": 0.7874015748031497,
          "duration": 0.043512499999991405
        },
        {
          "name": "F#5",
          "midi": 78,
          "time": 255.58800000000102,
          "velocity": 0.7874015748031497,
          "duration": 0.043512499999991405
        },
        {
          "name": "D6",
          "midi": 86,
          "time": 255.58800000000102,
          "velocity": 0.7874015748031497,
          "duration": 0.35178750000000036
        },
        {
          "name": "F#6",
          "midi": 90,
          "time": 255.58800000000102,
          "velocity": 0.7874015748031497,
          "duration": 0.35178750000000036
        },
        {
          "name": "D7",
          "midi": 98,
          "time": 255.58800000000102,
          "velocity": 0.7874015748031497,
          "duration": 0.7080000000000553
        },
        {
          "name": "C#4",
          "midi": 61,
          "time": 255.94200000000103,
          "velocity": 0.7874015748031497,
          "duration": 0.043512499999991405
        },
        {
          "name": "F#4",
          "midi": 66,
          "time": 255.94200000000103,
          "velocity": 0.7874015748031497,
          "duration": 0.043512499999991405
        },
        {
          "name": "D5",
          "midi": 74,
          "time": 255.94200000000103,
          "velocity": 0.7874015748031497,
          "duration": 0.043512499999991405
        },
        {
          "name": "F#5",
          "midi": 78,
          "time": 255.94200000000103,
          "velocity": 0.7874015748031497,
          "duration": 0.043512499999991405
        },
        {
          "name": "D#6",
          "midi": 87,
          "time": 255.94200000000103,
          "velocity": 0.7874015748031497,
          "duration": 0.35178750000000036
        },
        {
          "name": "F#6",
          "midi": 90,
          "time": 255.94200000000103,
          "velocity": 0.7874015748031497,
          "duration": 0.35178750000000036
        },
        {
          "name": "D#7",
          "midi": 99,
          "time": 255.94200000000103,
          "velocity": 0.7874015748031497,
          "duration": 0.353262500000028
        },
        {
          "name": "C6",
          "midi": 84,
          "time": 256.2960000000011,
          "velocity": 0.7874015748031497,
          "duration": 0.04424999999997681
        },
        {
          "name": "F#6",
          "midi": 90,
          "time": 256.2960000000011,
          "velocity": 0.7874015748031497,
          "duration": 0.04424999999997681
        },
        {
          "name": "C7",
          "midi": 96,
          "time": 256.2960000000011,
          "velocity": 0.7874015748031497,
          "duration": 0.04424999999997681
        },
        {
          "name": "C4",
          "midi": 60,
          "time": 256.47300000000104,
          "velocity": 0.7874015748031497,
          "duration": 0.04424999999997681
        },
        {
          "name": "F#4",
          "midi": 66,
          "time": 256.47300000000104,
          "velocity": 0.7874015748031497,
          "duration": 0.04424999999997681
        },
        {
          "name": "C#5",
          "midi": 73,
          "time": 256.47300000000104,
          "velocity": 0.7874015748031497,
          "duration": 0.04424999999997681
        },
        {
          "name": "F#5",
          "midi": 78,
          "time": 256.47300000000104,
          "velocity": 0.7874015748031497,
          "duration": 0.04424999999997681
        },
        {
          "name": "C#6",
          "midi": 85,
          "time": 256.47300000000104,
          "velocity": 0.7874015748031497,
          "duration": 0.5273124999999936
        },
        {
          "name": "F#6",
          "midi": 90,
          "time": 256.47300000000104,
          "velocity": 0.7874015748031497,
          "duration": 0.5273124999999936
        },
        {
          "name": "C#7",
          "midi": 97,
          "time": 256.47300000000104,
          "velocity": 0.7874015748031497,
          "duration": 1.9470000000000596
        },
        {
          "name": "F#7",
          "midi": 102,
          "time": 256.47300000000104,
          "velocity": 0.7874015748031497,
          "duration": 1.9905125000000794
        },
        {
          "name": "C#4",
          "midi": 61,
          "time": 257.00400000000104,
          "velocity": 0.7874015748031497,
          "duration": 0.08776249999999663
        },
        {
          "name": "F#4",
          "midi": 66,
          "time": 257.00400000000104,
          "velocity": 0.7874015748031497,
          "duration": 0.08776249999999663
        },
        {
          "name": "D5",
          "midi": 74,
          "time": 257.00400000000104,
          "velocity": 0.7874015748031497,
          "duration": 0.08776249999999663
        },
        {
          "name": "F#5",
          "midi": 78,
          "time": 257.00400000000104,
          "velocity": 0.7874015748031497,
          "duration": 0.08776249999999663
        },
        {
          "name": "D#6",
          "midi": 87,
          "time": 257.00400000000104,
          "velocity": 0.7874015748031497,
          "duration": 0.7043125000000146
        },
        {
          "name": "F#6",
          "midi": 90,
          "time": 257.00400000000104,
          "velocity": 0.7874015748031497,
          "duration": 0.7043125000000146
        },
        {
          "name": "D#7",
          "midi": 99,
          "time": 257.00400000000104,
          "velocity": 0.7874015748031497,
          "duration": 1.413787500000069
        },
        {
          "name": "D4",
          "midi": 62,
          "time": 257.71200000000107,
          "velocity": 0.7874015748031497,
          "duration": 0.08776249999999663
        },
        {
          "name": "F#4",
          "midi": 66,
          "time": 257.71200000000107,
          "velocity": 0.7874015748031497,
          "duration": 0.08776249999999663
        },
        {
          "name": "D#5",
          "midi": 75,
          "time": 257.71200000000107,
          "velocity": 0.7874015748031497,
          "duration": 0.08776249999999663
        },
        {
          "name": "F#5",
          "midi": 78,
          "time": 257.71200000000107,
          "velocity": 0.7874015748031497,
          "duration": 0.08776249999999663
        },
        {
          "name": "E6",
          "midi": 88,
          "time": 257.71200000000107,
          "velocity": 0.7874015748031497,
          "duration": 0.7043125000000146
        },
        {
          "name": "F#6",
          "midi": 90,
          "time": 257.71200000000107,
          "velocity": 0.7874015748031497,
          "duration": 0.7043125000000146
        },
        {
          "name": "E7",
          "midi": 100,
          "time": 257.71200000000107,
          "velocity": 0.7874015748031497,
          "duration": 0.7043125000000146
        },
        {
          "name": "D4",
          "midi": 62,
          "time": 258.4200000000011,
          "velocity": 0.7874015748031497,
          "duration": 0.04351250000001983
        },
        {
          "name": "F#4",
          "midi": 66,
          "time": 258.4200000000011,
          "velocity": 0.7874015748031497,
          "duration": 0.04351250000001983
        },
        {
          "name": "D#5",
          "midi": 75,
          "time": 258.4200000000011,
          "velocity": 0.7874015748031497,
          "duration": 0.04351250000001983
        },
        {
          "name": "F#5",
          "midi": 78,
          "time": 258.4200000000011,
          "velocity": 0.7874015748031497,
          "duration": 0.04351250000001983
        },
        {
          "name": "E6",
          "midi": 88,
          "time": 258.4200000000011,
          "velocity": 0.7874015748031497,
          "duration": 0.04351250000001983
        },
        {
          "name": "F#6",
          "midi": 90,
          "time": 258.4200000000011,
          "velocity": 0.7874015748031497,
          "duration": 0.04351250000001983
        },
        {
          "name": "E7",
          "midi": 100,
          "time": 258.4200000000011,
          "velocity": 0.7874015748031497,
          "duration": 0.04351250000001983
        },
        {
          "name": "C#5",
          "midi": 73,
          "time": 258.59773750000113,
          "velocity": 0.7874015748031497,
          "duration": 0.04351250000001983
        },
        {
          "name": "F#5",
          "midi": 78,
          "time": 258.59773750000113,
          "velocity": 0.7874015748031497,
          "duration": 0.04351250000001983
        },
        {
          "name": "D6",
          "midi": 86,
          "time": 258.59773750000113,
          "velocity": 0.7874015748031497,
          "duration": 0.04351250000001983
        },
        {
          "name": "F#6",
          "midi": 90,
          "time": 258.59773750000113,
          "velocity": 0.7874015748031497,
          "duration": 0.04351250000001983
        },
        {
          "name": "D7",
          "midi": 98,
          "time": 258.59773750000113,
          "velocity": 0.7874015748031497,
          "duration": 0.04351250000001983
        },
        {
          "name": "F#7",
          "midi": 102,
          "time": 258.59773750000113,
          "velocity": 0.7874015748031497,
          "duration": 0.04351250000001983
        },
        {
          "name": "C#4",
          "midi": 61,
          "time": 258.77400000000114,
          "velocity": 0.7874015748031497,
          "duration": 0.04351250000001983
        },
        {
          "name": "F#4",
          "midi": 66,
          "time": 258.77400000000114,
          "velocity": 0.7874015748031497,
          "duration": 0.04351250000001983
        },
        {
          "name": "D5",
          "midi": 74,
          "time": 258.77400000000114,
          "velocity": 0.7874015748031497,
          "duration": 0.04351250000001983
        },
        {
          "name": "F#5",
          "midi": 78,
          "time": 258.77400000000114,
          "velocity": 0.7874015748031497,
          "duration": 0.04351250000001983
        },
        {
          "name": "D#6",
          "midi": 87,
          "time": 258.77400000000114,
          "velocity": 0.7874015748031497,
          "duration": 0.04351250000001983
        },
        {
          "name": "F#6",
          "midi": 90,
          "time": 258.77400000000114,
          "velocity": 0.7874015748031497,
          "duration": 0.04351250000001983
        },
        {
          "name": "D#7",
          "midi": 99,
          "time": 258.77400000000114,
          "velocity": 0.7874015748031497,
          "duration": 0.04351250000001983
        },
        {
          "name": "F#7",
          "midi": 102,
          "time": 258.77400000000114,
          "velocity": 0.7874015748031497,
          "duration": 0.04351250000001983
        },
        {
          "name": "C#7",
          "midi": 97,
          "time": 258.95026250000114,
          "velocity": 0.7874015748031497,
          "duration": 0.04424999999997681
        },
        {
          "name": "F#7",
          "midi": 102,
          "time": 258.95026250000114,
          "velocity": 0.7874015748031497,
          "duration": 0.04424999999997681
        },
        {
          "name": "C4",
          "midi": 60,
          "time": 259.1280000000011,
          "velocity": 0.7874015748031497,
          "duration": 1.5465374999999995
        },
        {
          "name": "F#4",
          "midi": 66,
          "time": 259.1280000000011,
          "velocity": 0.7874015748031497,
          "duration": 1.5465374999999995
        },
        {
          "name": "C#5",
          "midi": 73,
          "time": 259.1280000000011,
          "velocity": 0.7874015748031497,
          "duration": 1.5465374999999995
        },
        {
          "name": "F#5",
          "midi": 78,
          "time": 259.1280000000011,
          "velocity": 0.7874015748031497,
          "duration": 1.5465374999999995
        },
        {
          "name": "D6",
          "midi": 86,
          "time": 259.1280000000011,
          "velocity": 0.7874015748031497,
          "duration": 1.5465374999999995
        },
        {
          "name": "F#6",
          "midi": 90,
          "time": 259.1280000000011,
          "velocity": 0.7874015748031497,
          "duration": 1.5465374999999995
        },
        {
          "name": "D7",
          "midi": 98,
          "time": 259.1280000000011,
          "velocity": 0.7874015748031497,
          "duration": 1.5465374999999995
        },
        {
          "name": "F#7",
          "midi": 102,
          "time": 259.1280000000011,
          "velocity": 0.7874015748031497,
          "duration": 1.5465374999999995
        },
        {
          "name": "C#4",
          "midi": 61,
          "time": 260.6767500000011,
          "velocity": 0.7874015748031497,
          "duration": 0.04351250000001983
        },
        {
          "name": "F#4",
          "midi": 66,
          "time": 260.6767500000011,
          "velocity": 0.7874015748031497,
          "duration": 0.04351250000001983
        },
        {
          "name": "D5",
          "midi": 74,
          "time": 260.6767500000011,
          "velocity": 0.7874015748031497,
          "duration": 0.04351250000001983
        },
        {
          "name": "F#5",
          "midi": 78,
          "time": 260.6767500000011,
          "velocity": 0.7874015748031497,
          "duration": 0.04351250000001983
        },
        {
          "name": "D#6",
          "midi": 87,
          "time": 260.6767500000011,
          "velocity": 0.7874015748031497,
          "duration": 0.04351250000001983
        },
        {
          "name": "F#6",
          "midi": 90,
          "time": 260.6767500000011,
          "velocity": 0.7874015748031497,
          "duration": 0.04351250000001983
        },
        {
          "name": "D#7",
          "midi": 99,
          "time": 260.6767500000011,
          "velocity": 0.7874015748031497,
          "duration": 0.04351250000001983
        },
        {
          "name": "F#7",
          "midi": 102,
          "time": 260.6767500000011,
          "velocity": 0.7874015748031497,
          "duration": 0.04351250000001983
        },
        {
          "name": "D6",
          "midi": 86,
          "time": 260.7866375000011,
          "velocity": 0.7874015748031497,
          "duration": 0.04351250000001983
        },
        {
          "name": "F6",
          "midi": 89,
          "time": 260.7866375000011,
          "velocity": 0.7874015748031497,
          "duration": 0.04351250000001983
        },
        {
          "name": "D7",
          "midi": 98,
          "time": 260.7866375000011,
          "velocity": 0.7874015748031497,
          "duration": 0.04351250000001983
        },
        {
          "name": "F7",
          "midi": 101,
          "time": 260.7866375000011,
          "velocity": 0.7874015748031497,
          "duration": 0.04351250000001983
        },
        {
          "name": "C4",
          "midi": 60,
          "time": 260.89800000000116,
          "velocity": 0.7874015748031497,
          "duration": 1.2367874999999913
        },
        {
          "name": "F#4",
          "midi": 66,
          "time": 260.89800000000116,
          "velocity": 0.7874015748031497,
          "duration": 1.2367874999999913
        },
        {
          "name": "C5",
          "midi": 72,
          "time": 260.89800000000116,
          "velocity": 0.7874015748031497,
          "duration": 1.2367874999999913
        },
        {
          "name": "F#5",
          "midi": 78,
          "time": 260.89800000000116,
          "velocity": 0.7874015748031497,
          "duration": 1.2367874999999913
        },
        {
          "name": "C#6",
          "midi": 85,
          "time": 260.89800000000116,
          "velocity": 0.7874015748031497,
          "duration": 1.2367874999999913
        },
        {
          "name": "F6",
          "midi": 89,
          "time": 260.89800000000116,
          "velocity": 0.7874015748031497,
          "duration": 1.2367874999999913
        },
        {
          "name": "C#7",
          "midi": 97,
          "time": 260.89800000000116,
          "velocity": 0.7874015748031497,
          "duration": 1.2367874999999913
        },
        {
          "name": "F7",
          "midi": 101,
          "time": 260.89800000000116,
          "velocity": 0.7874015748031497,
          "duration": 1.2367874999999913
        },
        {
          "name": "C4",
          "midi": 60,
          "time": 262.1370000000012,
          "velocity": 0.7874015748031497,
          "duration": 0.5287875000000213
        },
        {
          "name": "F#4",
          "midi": 66,
          "time": 262.1370000000012,
          "velocity": 0.7874015748031497,
          "duration": 0.5287875000000213
        },
        {
          "name": "C#5",
          "midi": 73,
          "time": 262.1370000000012,
          "velocity": 0.7874015748031497,
          "duration": 0.5287875000000213
        },
        {
          "name": "F#5",
          "midi": 78,
          "time": 262.1370000000012,
          "velocity": 0.7874015748031497,
          "duration": 0.5287875000000213
        },
        {
          "name": "C#6",
          "midi": 85,
          "time": 262.1370000000012,
          "velocity": 0.7874015748031497,
          "duration": 0.5287875000000213
        },
        {
          "name": "F#6",
          "midi": 90,
          "time": 262.1370000000012,
          "velocity": 0.7874015748031497,
          "duration": 0.5287875000000213
        },
        {
          "name": "C#7",
          "midi": 97,
          "time": 262.1370000000012,
          "velocity": 0.7874015748031497,
          "duration": 1.238262500000019
        },
        {
          "name": "F#7",
          "midi": 102,
          "time": 262.1370000000012,
          "velocity": 0.7874015748031497,
          "duration": 2.3445125000000075
        },
        {
          "name": "C#4",
          "midi": 61,
          "time": 262.6680000000012,
          "velocity": 0.7874015748031497,
          "duration": 0.04424999999997681
        },
        {
          "name": "F#4",
          "midi": 66,
          "time": 262.6680000000012,
          "velocity": 0.7874015748031497,
          "duration": 0.04424999999997681
        },
        {
          "name": "D5",
          "midi": 74,
          "time": 262.6680000000012,
          "velocity": 0.7874015748031497,
          "duration": 0.04424999999997681
        },
        {
          "name": "F#5",
          "midi": 78,
          "time": 262.6680000000012,
          "velocity": 0.7874015748031497,
          "duration": 0.04424999999997681
        },
        {
          "name": "D#6",
          "midi": 87,
          "time": 262.6680000000012,
          "velocity": 0.7874015748031497,
          "duration": 0.35178750000000036
        },
        {
          "name": "F#6",
          "midi": 90,
          "time": 262.6680000000012,
          "velocity": 0.7874015748031497,
          "duration": 0.35178750000000036
        },
        {
          "name": "D#7",
          "midi": 99,
          "time": 262.6680000000012,
          "velocity": 0.7874015748031497,
          "duration": 0.707262500000013
        },
        {
          "name": "D4",
          "midi": 62,
          "time": 263.0220000000012,
          "velocity": 0.7874015748031497,
          "duration": 0.04424999999997681
        },
        {
          "name": "F#4",
          "midi": 66,
          "time": 263.0220000000012,
          "velocity": 0.7874015748031497,
          "duration": 0.04424999999997681
        },
        {
          "name": "D#5",
          "midi": 75,
          "time": 263.0220000000012,
          "velocity": 0.7874015748031497,
          "duration": 0.04424999999997681
        },
        {
          "name": "F#5",
          "midi": 78,
          "time": 263.0220000000012,
          "velocity": 0.7874015748031497,
          "duration": 0.04424999999997681
        },
        {
          "name": "E6",
          "midi": 88,
          "time": 263.0220000000012,
          "velocity": 0.7874015748031497,
          "duration": 0.35178750000000036
        },
        {
          "name": "F#6",
          "midi": 90,
          "time": 263.0220000000012,
          "velocity": 0.7874015748031497,
          "duration": 0.35178750000000036
        },
        {
          "name": "E7",
          "midi": 100,
          "time": 263.0220000000012,
          "velocity": 0.7874015748031497,
          "duration": 0.35400000000004184
        },
        {
          "name": "C4",
          "midi": 60,
          "time": 263.3760000000012,
          "velocity": 0.7874015748031497,
          "duration": 0.04351250000001983
        },
        {
          "name": "F#4",
          "midi": 66,
          "time": 263.3760000000012,
          "velocity": 0.7874015748031497,
          "duration": 0.04351250000001983
        },
        {
          "name": "C5",
          "midi": 72,
          "time": 263.3760000000012,
          "velocity": 0.7874015748031497,
          "duration": 0.04351250000001983
        },
        {
          "name": "F#5",
          "midi": 78,
          "time": 263.3760000000012,
          "velocity": 0.7874015748031497,
          "duration": 0.04351250000001983
        },
        {
          "name": "C6",
          "midi": 84,
          "time": 263.3760000000012,
          "velocity": 0.7874015748031497,
          "duration": 0.35178750000000036
        },
        {
          "name": "F#6",
          "midi": 90,
          "time": 263.3760000000012,
          "velocity": 0.7874015748031497,
          "duration": 0.35178750000000036
        },
        {
          "name": "C7",
          "midi": 96,
          "time": 263.3760000000012,
          "velocity": 0.7874015748031497,
          "duration": 1.0597874999999704
        },
        {
          "name": "C4",
          "midi": 60,
          "time": 263.7300000000012,
          "velocity": 0.7874015748031497,
          "duration": 0.04351250000001983
        },
        {
          "name": "F#4",
          "midi": 66,
          "time": 263.7300000000012,
          "velocity": 0.7874015748031497,
          "duration": 0.04351250000001983
        },
        {
          "name": "C#5",
          "midi": 73,
          "time": 263.7300000000012,
          "velocity": 0.7874015748031497,
          "duration": 0.04351250000001983
        },
        {
          "name": "F#5",
          "midi": 78,
          "time": 263.7300000000012,
          "velocity": 0.7874015748031497,
          "duration": 0.04351250000001983
        },
        {
          "name": "D6",
          "midi": 86,
          "time": 263.7300000000012,
          "velocity": 0.7874015748031497,
          "duration": 0.35178750000000036
        },
        {
          "name": "F#6",
          "midi": 90,
          "time": 263.7300000000012,
          "velocity": 0.7874015748031497,
          "duration": 0.35178750000000036
        },
        {
          "name": "D7",
          "midi": 98,
          "time": 263.7300000000012,
          "velocity": 0.7874015748031497,
          "duration": 0.70799999999997
        },
        {
          "name": "C#4",
          "midi": 61,
          "time": 264.0840000000012,
          "velocity": 0.7874015748031497,
          "duration": 0.04351250000001983
        },
        {
          "name": "F#4",
          "midi": 66,
          "time": 264.0840000000012,
          "velocity": 0.7874015748031497,
          "duration": 0.04351250000001983
        },
        {
          "name": "D5",
          "midi": 74,
          "time": 264.0840000000012,
          "velocity": 0.7874015748031497,
          "duration": 0.04351250000001983
        },
        {
          "name": "F#5",
          "midi": 78,
          "time": 264.0840000000012,
          "velocity": 0.7874015748031497,
          "duration": 0.04351250000001983
        },
        {
          "name": "D#6",
          "midi": 87,
          "time": 264.0840000000012,
          "velocity": 0.7874015748031497,
          "duration": 0.35178750000000036
        },
        {
          "name": "F#6",
          "midi": 90,
          "time": 264.0840000000012,
          "velocity": 0.7874015748031497,
          "duration": 0.35178750000000036
        },
        {
          "name": "D#7",
          "midi": 99,
          "time": 264.0840000000012,
          "velocity": 0.7874015748031497,
          "duration": 0.353999999999985
        },
        {
          "name": "C6",
          "midi": 84,
          "time": 264.4380000000012,
          "velocity": 0.7874015748031497,
          "duration": 0.04351250000001983
        },
        {
          "name": "F#6",
          "midi": 90,
          "time": 264.4380000000012,
          "velocity": 0.7874015748031497,
          "duration": 0.04351250000001983
        },
        {
          "name": "C7",
          "midi": 96,
          "time": 264.4380000000012,
          "velocity": 0.7874015748031497,
          "duration": 0.04351250000001983
        },
        {
          "name": "C4",
          "midi": 60,
          "time": 264.6150000000012,
          "velocity": 0.7874015748031497,
          "duration": 0.5287875000000213
        },
        {
          "name": "F#4",
          "midi": 66,
          "time": 264.6150000000012,
          "velocity": 0.7874015748031497,
          "duration": 0.5287875000000213
        },
        {
          "name": "C#5",
          "midi": 73,
          "time": 264.6150000000012,
          "velocity": 0.7874015748031497,
          "duration": 0.5287875000000213
        },
        {
          "name": "F#5",
          "midi": 78,
          "time": 264.6150000000012,
          "velocity": 0.7874015748031497,
          "duration": 0.5287875000000213
        },
        {
          "name": "C#6",
          "midi": 85,
          "time": 264.6150000000012,
          "velocity": 0.7874015748031497,
          "duration": 0.5287875000000213
        },
        {
          "name": "F#6",
          "midi": 90,
          "time": 264.6150000000012,
          "velocity": 0.7874015748031497,
          "duration": 0.5287875000000213
        },
        {
          "name": "C#7",
          "midi": 97,
          "time": 264.6150000000012,
          "velocity": 0.7874015748031497,
          "duration": 1.238262500000019
        },
        {
          "name": "F#7",
          "midi": 102,
          "time": 264.6150000000012,
          "velocity": 0.7874015748031497,
          "duration": 1.237525000000005
        },
        {
          "name": "C#4",
          "midi": 61,
          "time": 265.1460000000012,
          "velocity": 0.7874015748031497,
          "duration": 0.04351250000001983
        },
        {
          "name": "F#4",
          "midi": 66,
          "time": 265.1460000000012,
          "velocity": 0.7874015748031497,
          "duration": 0.04351250000001983
        },
        {
          "name": "D5",
          "midi": 74,
          "time": 265.1460000000012,
          "velocity": 0.7874015748031497,
          "duration": 0.04351250000001983
        },
        {
          "name": "F#5",
          "midi": 78,
          "time": 265.1460000000012,
          "velocity": 0.7874015748031497,
          "duration": 0.04351250000001983
        },
        {
          "name": "D#6",
          "midi": 87,
          "time": 265.1460000000012,
          "velocity": 0.7874015748031497,
          "duration": 0.35178750000000036
        },
        {
          "name": "F#6",
          "midi": 90,
          "time": 265.1460000000012,
          "velocity": 0.7874015748031497,
          "duration": 0.35178750000000036
        },
        {
          "name": "D#7",
          "midi": 99,
          "time": 265.1460000000012,
          "velocity": 0.7874015748031497,
          "duration": 0.707262500000013
        },
        {
          "name": "D4",
          "midi": 62,
          "time": 265.5000000000012,
          "velocity": 0.7874015748031497,
          "duration": 0.04351250000001983
        },
        {
          "name": "F#4",
          "midi": 66,
          "time": 265.5000000000012,
          "velocity": 0.7874015748031497,
          "duration": 0.04351250000001983
        },
        {
          "name": "D#5",
          "midi": 75,
          "time": 265.5000000000012,
          "velocity": 0.7874015748031497,
          "duration": 0.04351250000001983
        },
        {
          "name": "F#5",
          "midi": 78,
          "time": 265.5000000000012,
          "velocity": 0.7874015748031497,
          "duration": 0.04351250000001983
        },
        {
          "name": "E6",
          "midi": 88,
          "time": 265.5000000000012,
          "velocity": 0.7874015748031497,
          "duration": 0.35178750000000036
        },
        {
          "name": "F#6",
          "midi": 90,
          "time": 265.5000000000012,
          "velocity": 0.7874015748031497,
          "duration": 0.35178750000000036
        },
        {
          "name": "E7",
          "midi": 100,
          "time": 265.5000000000012,
          "velocity": 0.7874015748031497,
          "duration": 0.35178750000000036
        },
        {
          "name": "D4",
          "midi": 62,
          "time": 265.85400000000124,
          "velocity": 0.7874015748031497,
          "duration": 0.04424999999997681
        },
        {
          "name": "F#4",
          "midi": 66,
          "time": 265.85400000000124,
          "velocity": 0.7874015748031497,
          "duration": 0.04424999999997681
        },
        {
          "name": "D#5",
          "midi": 75,
          "time": 265.85400000000124,
          "velocity": 0.7874015748031497,
          "duration": 0.04424999999997681
        },
        {
          "name": "F#5",
          "midi": 78,
          "time": 265.85400000000124,
          "velocity": 0.7874015748031497,
          "duration": 0.04424999999997681
        },
        {
          "name": "E6",
          "midi": 88,
          "time": 265.85400000000124,
          "velocity": 0.7874015748031497,
          "duration": 0.04424999999997681
        },
        {
          "name": "F#6",
          "midi": 90,
          "time": 265.85400000000124,
          "velocity": 0.7874015748031497,
          "duration": 0.04424999999997681
        },
        {
          "name": "E7",
          "midi": 100,
          "time": 265.85400000000124,
          "velocity": 0.7874015748031497,
          "duration": 0.04424999999997681
        },
        {
          "name": "F#7",
          "midi": 102,
          "time": 265.85400000000124,
          "velocity": 0.7874015748031497,
          "duration": 0.04424999999997681
        },
        {
          "name": "C#5",
          "midi": 73,
          "time": 266.0310000000012,
          "velocity": 0.7874015748031497,
          "duration": 0.04424999999997681
        },
        {
          "name": "F#5",
          "midi": 78,
          "time": 266.0310000000012,
          "velocity": 0.7874015748031497,
          "duration": 0.04424999999997681
        },
        {
          "name": "D6",
          "midi": 86,
          "time": 266.0310000000012,
          "velocity": 0.7874015748031497,
          "duration": 0.04424999999997681
        },
        {
          "name": "F#6",
          "midi": 90,
          "time": 266.0310000000012,
          "velocity": 0.7874015748031497,
          "duration": 0.04424999999997681
        },
        {
          "name": "D7",
          "midi": 98,
          "time": 266.0310000000012,
          "velocity": 0.7874015748031497,
          "duration": 0.04424999999997681
        },
        {
          "name": "F#7",
          "midi": 102,
          "time": 266.0310000000012,
          "velocity": 0.7874015748031497,
          "duration": 0.04424999999997681
        },
        {
          "name": "C#4",
          "midi": 61,
          "time": 266.20800000000116,
          "velocity": 0.7874015748031497,
          "duration": 0.04351250000001983
        },
        {
          "name": "F#4",
          "midi": 66,
          "time": 266.20800000000116,
          "velocity": 0.7874015748031497,
          "duration": 0.04351250000001983
        },
        {
          "name": "D5",
          "midi": 74,
          "time": 266.20800000000116,
          "velocity": 0.7874015748031497,
          "duration": 0.04351250000001983
        },
        {
          "name": "F#5",
          "midi": 78,
          "time": 266.20800000000116,
          "velocity": 0.7874015748031497,
          "duration": 0.04351250000001983
        },
        {
          "name": "D#6",
          "midi": 87,
          "time": 266.20800000000116,
          "velocity": 0.7874015748031497,
          "duration": 0.04351250000001983
        },
        {
          "name": "F#6",
          "midi": 90,
          "time": 266.20800000000116,
          "velocity": 0.7874015748031497,
          "duration": 0.04351250000001983
        },
        {
          "name": "D#7",
          "midi": 99,
          "time": 266.20800000000116,
          "velocity": 0.7874015748031497,
          "duration": 0.04351250000001983
        },
        {
          "name": "F#7",
          "midi": 102,
          "time": 266.20800000000116,
          "velocity": 0.7874015748031497,
          "duration": 0.04351250000001983
        },
        {
          "name": "C#7",
          "midi": 97,
          "time": 266.3850000000012,
          "velocity": 0.7874015748031497,
          "duration": 0.04351250000001983
        },
        {
          "name": "F#7",
          "midi": 102,
          "time": 266.3850000000012,
          "velocity": 0.7874015748031497,
          "duration": 0.04351250000001983
        },
        {
          "name": "C#4",
          "midi": 61,
          "time": 266.5620000000012,
          "velocity": 0.7874015748031497,
          "duration": 0.04351250000001983
        },
        {
          "name": "F#4",
          "midi": 66,
          "time": 266.5620000000012,
          "velocity": 0.7874015748031497,
          "duration": 0.04351250000001983
        },
        {
          "name": "D5",
          "midi": 74,
          "time": 266.5620000000012,
          "velocity": 0.7874015748031497,
          "duration": 0.04351250000001983
        },
        {
          "name": "F#5",
          "midi": 78,
          "time": 266.5620000000012,
          "velocity": 0.7874015748031497,
          "duration": 0.04351250000001983
        },
        {
          "name": "D6",
          "midi": 86,
          "time": 266.5620000000012,
          "velocity": 0.7874015748031497,
          "duration": 0.04351250000001983
        },
        {
          "name": "F#6",
          "midi": 90,
          "time": 266.5620000000012,
          "velocity": 0.7874015748031497,
          "duration": 0.04351250000001983
        },
        {
          "name": "D7",
          "midi": 98,
          "time": 266.5620000000012,
          "velocity": 0.7874015748031497,
          "duration": 0.04351250000001983
        },
        {
          "name": "F#7",
          "midi": 102,
          "time": 266.5620000000012,
          "velocity": 0.7874015748031497,
          "duration": 0.04351250000001983
        },
        {
          "name": "C4",
          "midi": 60,
          "time": 266.7390000000012,
          "velocity": 0.7874015748031497,
          "duration": 0.04351250000001983
        },
        {
          "name": "F#4",
          "midi": 66,
          "time": 266.7390000000012,
          "velocity": 0.7874015748031497,
          "duration": 0.04351250000001983
        },
        {
          "name": "C5",
          "midi": 72,
          "time": 266.7390000000012,
          "velocity": 0.7874015748031497,
          "duration": 0.04351250000001983
        },
        {
          "name": "F#5",
          "midi": 78,
          "time": 266.7390000000012,
          "velocity": 0.7874015748031497,
          "duration": 0.04351250000001983
        },
        {
          "name": "C6",
          "midi": 84,
          "time": 266.7390000000012,
          "velocity": 0.7874015748031497,
          "duration": 0.35178750000000036
        },
        {
          "name": "F#6",
          "midi": 90,
          "time": 266.7390000000012,
          "velocity": 0.7874015748031497,
          "duration": 0.35178750000000036
        },
        {
          "name": "C7",
          "midi": 96,
          "time": 266.7390000000012,
          "velocity": 0.7874015748031497,
          "duration": 0.35178750000000036
        },
        {
          "name": "F#7",
          "midi": 102,
          "time": 266.7390000000012,
          "velocity": 0.7874015748031497,
          "duration": 0.35178750000000036
        },
        {
          "name": "C#4",
          "midi": 61,
          "time": 267.0930000000012,
          "velocity": 0.7874015748031497,
          "duration": 4.421312499999999
        },
        {
          "name": "F#4",
          "midi": 66,
          "time": 267.0930000000012,
          "velocity": 0.7874015748031497,
          "duration": 4.421312499999999
        },
        {
          "name": "C#5",
          "midi": 73,
          "time": 267.0930000000012,
          "velocity": 0.7874015748031497,
          "duration": 4.421312499999999
        },
        {
          "name": "F#5",
          "midi": 78,
          "time": 267.0930000000012,
          "velocity": 0.7874015748031497,
          "duration": 4.421312499999999
        },
        {
          "name": "C#6",
          "midi": 85,
          "time": 267.0930000000012,
          "velocity": 0.7874015748031497,
          "duration": 4.421312499999999
        },
        {
          "name": "F#6",
          "midi": 90,
          "time": 267.0930000000012,
          "velocity": 0.7874015748031497,
          "duration": 4.421312499999999
        },
        {
          "name": "C#7",
          "midi": 97,
          "time": 267.0930000000012,
          "velocity": 0.7874015748031497,
          "duration": 4.421312499999999
        },
        {
          "name": "F#7",
          "midi": 102,
          "time": 267.0930000000012,
          "velocity": 0.7874015748031497,
          "duration": 4.421312499999999
        },
        {
          "name": "C4",
          "midi": 60,
          "time": 271.5180000000012,
          "velocity": 0.7874015748031497,
          "duration": 0.04424999999997681
        },
        {
          "name": "F#4",
          "midi": 66,
          "time": 271.5180000000012,
          "velocity": 0.7874015748031497,
          "duration": 0.04424999999997681
        },
        {
          "name": "C5",
          "midi": 72,
          "time": 271.5180000000012,
          "velocity": 0.7874015748031497,
          "duration": 0.04424999999997681
        },
        {
          "name": "F#5",
          "midi": 78,
          "time": 271.5180000000012,
          "velocity": 0.7874015748031497,
          "duration": 0.04424999999997681
        },
        {
          "name": "C6",
          "midi": 84,
          "time": 271.5180000000012,
          "velocity": 0.7874015748031497,
          "duration": 0.35178750000000036
        },
        {
          "name": "F#6",
          "midi": 90,
          "time": 271.5180000000012,
          "velocity": 0.7874015748031497,
          "duration": 0.35178750000000036
        },
        {
          "name": "C7",
          "midi": 96,
          "time": 271.5180000000012,
          "velocity": 0.7874015748031497,
          "duration": 1.0597874999999704
        },
        {
          "name": "F#7",
          "midi": 102,
          "time": 271.5180000000012,
          "velocity": 0.7874015748031497,
          "duration": 1.061999999999955
        },
        {
          "name": "C4",
          "midi": 60,
          "time": 271.8720000000012,
          "velocity": 0.7874015748031497,
          "duration": 0.04424999999997681
        },
        {
          "name": "F#4",
          "midi": 66,
          "time": 271.8720000000012,
          "velocity": 0.7874015748031497,
          "duration": 0.04424999999997681
        },
        {
          "name": "C#5",
          "midi": 73,
          "time": 271.8720000000012,
          "velocity": 0.7874015748031497,
          "duration": 0.04424999999997681
        },
        {
          "name": "F#5",
          "midi": 78,
          "time": 271.8720000000012,
          "velocity": 0.7874015748031497,
          "duration": 0.04424999999997681
        },
        {
          "name": "D6",
          "midi": 86,
          "time": 271.8720000000012,
          "velocity": 0.7874015748031497,
          "duration": 0.35178750000000036
        },
        {
          "name": "F#6",
          "midi": 90,
          "time": 271.8720000000012,
          "velocity": 0.7874015748031497,
          "duration": 0.35178750000000036
        },
        {
          "name": "D7",
          "midi": 98,
          "time": 271.8720000000012,
          "velocity": 0.7874015748031497,
          "duration": 0.70799999999997
        },
        {
          "name": "C#4",
          "midi": 61,
          "time": 272.2260000000012,
          "velocity": 0.7874015748031497,
          "duration": 0.04351250000001983
        },
        {
          "name": "F#4",
          "midi": 66,
          "time": 272.2260000000012,
          "velocity": 0.7874015748031497,
          "duration": 0.04351250000001983
        },
        {
          "name": "D5",
          "midi": 74,
          "time": 272.2260000000012,
          "velocity": 0.7874015748031497,
          "duration": 0.04351250000001983
        },
        {
          "name": "F#5",
          "midi": 78,
          "time": 272.2260000000012,
          "velocity": 0.7874015748031497,
          "duration": 0.04351250000001983
        },
        {
          "name": "D#6",
          "midi": 87,
          "time": 272.2260000000012,
          "velocity": 0.7874015748031497,
          "duration": 0.35178750000000036
        },
        {
          "name": "F#6",
          "midi": 90,
          "time": 272.2260000000012,
          "velocity": 0.7874015748031497,
          "duration": 0.35178750000000036
        },
        {
          "name": "D#7",
          "midi": 99,
          "time": 272.2260000000012,
          "velocity": 0.7874015748031497,
          "duration": 0.353999999999985
        },
        {
          "name": "C6",
          "midi": 84,
          "time": 272.5800000000012,
          "velocity": 0.7874015748031497,
          "duration": 0.04351250000001983
        },
        {
          "name": "F#6",
          "midi": 90,
          "time": 272.5800000000012,
          "velocity": 0.7874015748031497,
          "duration": 0.04351250000001983
        },
        {
          "name": "C7",
          "midi": 96,
          "time": 272.5800000000012,
          "velocity": 0.7874015748031497,
          "duration": 0.04351250000001983
        },
        {
          "name": "F#7",
          "midi": 102,
          "time": 272.5800000000012,
          "velocity": 0.7874015748031497,
          "duration": 0.04351250000001983
        },
        {
          "name": "C4",
          "midi": 60,
          "time": 272.7562625000012,
          "velocity": 0.7874015748031497,
          "duration": 0.5295249999999783
        },
        {
          "name": "F#4",
          "midi": 66,
          "time": 272.7562625000012,
          "velocity": 0.7874015748031497,
          "duration": 0.5295249999999783
        },
        {
          "name": "C#5",
          "midi": 73,
          "time": 272.7562625000012,
          "velocity": 0.7874015748031497,
          "duration": 0.5295249999999783
        },
        {
          "name": "F#5",
          "midi": 78,
          "time": 272.7562625000012,
          "velocity": 0.7874015748031497,
          "duration": 0.5295249999999783
        },
        {
          "name": "C#6",
          "midi": 85,
          "time": 272.7562625000012,
          "velocity": 0.7874015748031497,
          "duration": 0.5295249999999783
        },
        {
          "name": "F#6",
          "midi": 90,
          "time": 272.7562625000012,
          "velocity": 0.7874015748031497,
          "duration": 0.5295249999999783
        },
        {
          "name": "C#7",
          "midi": 97,
          "time": 272.7562625000012,
          "velocity": 0.7874015748031497,
          "duration": 1.238999999999976
        },
        {
          "name": "F#7",
          "midi": 102,
          "time": 272.7562625000012,
          "velocity": 0.7874015748031497,
          "duration": 2.3452500000000214
        },
        {
          "name": "C#4",
          "midi": 61,
          "time": 273.28800000000115,
          "velocity": 0.7874015748031497,
          "duration": 0.04351250000001983
        },
        {
          "name": "F#4",
          "midi": 66,
          "time": 273.28800000000115,
          "velocity": 0.7874015748031497,
          "duration": 0.04351250000001983
        },
        {
          "name": "D5",
          "midi": 74,
          "time": 273.28800000000115,
          "velocity": 0.7874015748031497,
          "duration": 0.04351250000001983
        },
        {
          "name": "F#5",
          "midi": 78,
          "time": 273.28800000000115,
          "velocity": 0.7874015748031497,
          "duration": 0.04351250000001983
        },
        {
          "name": "D#6",
          "midi": 87,
          "time": 273.28800000000115,
          "velocity": 0.7874015748031497,
          "duration": 0.35178750000000036
        },
        {
          "name": "F#6",
          "midi": 90,
          "time": 273.28800000000115,
          "velocity": 0.7874015748031497,
          "duration": 0.35178750000000036
        },
        {
          "name": "D#7",
          "midi": 99,
          "time": 273.28800000000115,
          "velocity": 0.7874015748031497,
          "duration": 0.7080000000000268
        },
        {
          "name": "D4",
          "midi": 62,
          "time": 273.64200000000113,
          "velocity": 0.7874015748031497,
          "duration": 0.04351250000001983
        },
        {
          "name": "F#4",
          "midi": 66,
          "time": 273.64200000000113,
          "velocity": 0.7874015748031497,
          "duration": 0.04351250000001983
        },
        {
          "name": "D#5",
          "midi": 75,
          "time": 273.64200000000113,
          "velocity": 0.7874015748031497,
          "duration": 0.04351250000001983
        },
        {
          "name": "F#5",
          "midi": 78,
          "time": 273.64200000000113,
          "velocity": 0.7874015748031497,
          "duration": 0.04351250000001983
        },
        {
          "name": "E6",
          "midi": 88,
          "time": 273.64200000000113,
          "velocity": 0.7874015748031497,
          "duration": 0.35178750000000036
        },
        {
          "name": "F#6",
          "midi": 90,
          "time": 273.64200000000113,
          "velocity": 0.7874015748031497,
          "duration": 0.35178750000000036
        },
        {
          "name": "E7",
          "midi": 100,
          "time": 273.64200000000113,
          "velocity": 0.7874015748031497,
          "duration": 0.35400000000004184
        },
        {
          "name": "C4",
          "midi": 60,
          "time": 273.9960000000012,
          "velocity": 0.7874015748031497,
          "duration": 0.04351250000001983
        },
        {
          "name": "F#4",
          "midi": 66,
          "time": 273.9960000000012,
          "velocity": 0.7874015748031497,
          "duration": 0.04351250000001983
        },
        {
          "name": "C5",
          "midi": 72,
          "time": 273.9960000000012,
          "velocity": 0.7874015748031497,
          "duration": 0.04351250000001983
        },
        {
          "name": "F#5",
          "midi": 78,
          "time": 273.9960000000012,
          "velocity": 0.7874015748031497,
          "duration": 0.04351250000001983
        },
        {
          "name": "C6",
          "midi": 84,
          "time": 273.9960000000012,
          "velocity": 0.7874015748031497,
          "duration": 0.35178750000000036
        },
        {
          "name": "F#6",
          "midi": 90,
          "time": 273.9960000000012,
          "velocity": 0.7874015748031497,
          "duration": 0.35178750000000036
        },
        {
          "name": "C7",
          "midi": 96,
          "time": 273.9960000000012,
          "velocity": 0.7874015748031497,
          "duration": 1.0597874999999704
        },
        {
          "name": "C4",
          "midi": 60,
          "time": 274.35000000000116,
          "velocity": 0.7874015748031497,
          "duration": 0.04351250000001983
        },
        {
          "name": "F#4",
          "midi": 66,
          "time": 274.35000000000116,
          "velocity": 0.7874015748031497,
          "duration": 0.04351250000001983
        },
        {
          "name": "C#5",
          "midi": 73,
          "time": 274.35000000000116,
          "velocity": 0.7874015748031497,
          "duration": 0.04351250000001983
        },
        {
          "name": "F#5",
          "midi": 78,
          "time": 274.35000000000116,
          "velocity": 0.7874015748031497,
          "duration": 0.04351250000001983
        },
        {
          "name": "D6",
          "midi": 86,
          "time": 274.35000000000116,
          "velocity": 0.7874015748031497,
          "duration": 0.35178750000000036
        },
        {
          "name": "F#6",
          "midi": 90,
          "time": 274.35000000000116,
          "velocity": 0.7874015748031497,
          "duration": 0.35178750000000036
        },
        {
          "name": "D7",
          "midi": 98,
          "time": 274.35000000000116,
          "velocity": 0.7874015748031497,
          "duration": 0.7080000000000268
        },
        {
          "name": "C#4",
          "midi": 61,
          "time": 274.70400000000114,
          "velocity": 0.7874015748031497,
          "duration": 0.04351250000001983
        },
        {
          "name": "F#4",
          "midi": 66,
          "time": 274.70400000000114,
          "velocity": 0.7874015748031497,
          "duration": 0.04351250000001983
        },
        {
          "name": "D5",
          "midi": 74,
          "time": 274.70400000000114,
          "velocity": 0.7874015748031497,
          "duration": 0.04351250000001983
        },
        {
          "name": "F#5",
          "midi": 78,
          "time": 274.70400000000114,
          "velocity": 0.7874015748031497,
          "duration": 0.04351250000001983
        },
        {
          "name": "D#6",
          "midi": 87,
          "time": 274.70400000000114,
          "velocity": 0.7874015748031497,
          "duration": 0.35178750000000036
        },
        {
          "name": "F#6",
          "midi": 90,
          "time": 274.70400000000114,
          "velocity": 0.7874015748031497,
          "duration": 0.35178750000000036
        },
        {
          "name": "D#7",
          "midi": 99,
          "time": 274.70400000000114,
          "velocity": 0.7874015748031497,
          "duration": 0.353262500000028
        },
        {
          "name": "C6",
          "midi": 84,
          "time": 275.0580000000012,
          "velocity": 0.7874015748031497,
          "duration": 0.04351250000001983
        },
        {
          "name": "F#6",
          "midi": 90,
          "time": 275.0580000000012,
          "velocity": 0.7874015748031497,
          "duration": 0.04351250000001983
        },
        {
          "name": "C7",
          "midi": 96,
          "time": 275.0580000000012,
          "velocity": 0.7874015748031497,
          "duration": 0.04351250000001983
        },
        {
          "name": "C4",
          "midi": 60,
          "time": 275.2357375000012,
          "velocity": 0.7874015748031497,
          "duration": 0.5280500000000075
        },
        {
          "name": "F#4",
          "midi": 66,
          "time": 275.2357375000012,
          "velocity": 0.7874015748031497,
          "duration": 0.5280500000000075
        },
        {
          "name": "C#5",
          "midi": 73,
          "time": 275.2357375000012,
          "velocity": 0.7874015748031497,
          "duration": 0.5280500000000075
        },
        {
          "name": "F#5",
          "midi": 78,
          "time": 275.2357375000012,
          "velocity": 0.7874015748031497,
          "duration": 0.5280500000000075
        },
        {
          "name": "C#6",
          "midi": 85,
          "time": 275.2357375000012,
          "velocity": 0.7874015748031497,
          "duration": 0.5280500000000075
        },
        {
          "name": "F#6",
          "midi": 90,
          "time": 275.2357375000012,
          "velocity": 0.7874015748031497,
          "duration": 0.5280500000000075
        },
        {
          "name": "C#7",
          "midi": 97,
          "time": 275.2357375000012,
          "velocity": 0.7874015748031497,
          "duration": 1.238262499999962
        },
        {
          "name": "F#7",
          "midi": 102,
          "time": 275.2357375000012,
          "velocity": 0.7874015748031497,
          "duration": 2.300262499999974
        },
        {
          "name": "C#4",
          "midi": 61,
          "time": 275.7660000000012,
          "velocity": 0.7874015748031497,
          "duration": 0.04424999999997681
        },
        {
          "name": "F#4",
          "midi": 66,
          "time": 275.7660000000012,
          "velocity": 0.7874015748031497,
          "duration": 0.04424999999997681
        },
        {
          "name": "D5",
          "midi": 74,
          "time": 275.7660000000012,
          "velocity": 0.7874015748031497,
          "duration": 0.04424999999997681
        },
        {
          "name": "F#5",
          "midi": 78,
          "time": 275.7660000000012,
          "velocity": 0.7874015748031497,
          "duration": 0.04424999999997681
        },
        {
          "name": "D#6",
          "midi": 87,
          "time": 275.7660000000012,
          "velocity": 0.7874015748031497,
          "duration": 0.35178750000000036
        },
        {
          "name": "F#6",
          "midi": 90,
          "time": 275.7660000000012,
          "velocity": 0.7874015748031497,
          "duration": 0.35178750000000036
        },
        {
          "name": "D#7",
          "midi": 99,
          "time": 275.7660000000012,
          "velocity": 0.7874015748031497,
          "duration": 0.70799999999997
        },
        {
          "name": "D4",
          "midi": 62,
          "time": 276.1200000000012,
          "velocity": 0.7874015748031497,
          "duration": 0.04424999999997681
        },
        {
          "name": "F#4",
          "midi": 66,
          "time": 276.1200000000012,
          "velocity": 0.7874015748031497,
          "duration": 0.04424999999997681
        },
        {
          "name": "D#5",
          "midi": 75,
          "time": 276.1200000000012,
          "velocity": 0.7874015748031497,
          "duration": 0.04424999999997681
        },
        {
          "name": "F#5",
          "midi": 78,
          "time": 276.1200000000012,
          "velocity": 0.7874015748031497,
          "duration": 0.04424999999997681
        },
        {
          "name": "E6",
          "midi": 88,
          "time": 276.1200000000012,
          "velocity": 0.7874015748031497,
          "duration": 0.35178750000000036
        },
        {
          "name": "F#6",
          "midi": 90,
          "time": 276.1200000000012,
          "velocity": 0.7874015748031497,
          "duration": 0.35178750000000036
        },
        {
          "name": "E7",
          "midi": 100,
          "time": 276.1200000000012,
          "velocity": 0.7874015748031497,
          "duration": 0.353999999999985
        },
        {
          "name": "G#8",
          "midi": 116,
          "time": 276.4740000000012,
          "velocity": 0.7874015748031497,
          "duration": 4.95526250000006
        },
        {
          "name": "C4",
          "midi": 60,
          "time": 276.4740000000012,
          "velocity": 0.7874015748031497,
          "duration": 0.04351250000001983
        },
        {
          "name": "F#4",
          "midi": 66,
          "time": 276.4740000000012,
          "velocity": 0.7874015748031497,
          "duration": 0.04351250000001983
        },
        {
          "name": "C5",
          "midi": 72,
          "time": 276.4740000000012,
          "velocity": 0.7874015748031497,
          "duration": 0.04351250000001983
        },
        {
          "name": "F#5",
          "midi": 78,
          "time": 276.4740000000012,
          "velocity": 0.7874015748031497,
          "duration": 0.04351250000001983
        },
        {
          "name": "C6",
          "midi": 84,
          "time": 276.4740000000012,
          "velocity": 0.7874015748031497,
          "duration": 0.35178750000000036
        },
        {
          "name": "F#6",
          "midi": 90,
          "time": 276.4740000000012,
          "velocity": 0.7874015748031497,
          "duration": 0.35178750000000036
        },
        {
          "name": "C7",
          "midi": 96,
          "time": 276.4740000000012,
          "velocity": 0.7874015748031497,
          "duration": 1.0597874999999704
        },
        {
          "name": "C4",
          "midi": 60,
          "time": 276.82800000000117,
          "velocity": 0.7874015748031497,
          "duration": 0.04351250000001983
        },
        {
          "name": "F#4",
          "midi": 66,
          "time": 276.82800000000117,
          "velocity": 0.7874015748031497,
          "duration": 0.04351250000001983
        },
        {
          "name": "C#5",
          "midi": 73,
          "time": 276.82800000000117,
          "velocity": 0.7874015748031497,
          "duration": 0.04351250000001983
        },
        {
          "name": "F#5",
          "midi": 78,
          "time": 276.82800000000117,
          "velocity": 0.7874015748031497,
          "duration": 0.04351250000001983
        },
        {
          "name": "D6",
          "midi": 86,
          "time": 276.82800000000117,
          "velocity": 0.7874015748031497,
          "duration": 0.35178750000000036
        },
        {
          "name": "F#6",
          "midi": 90,
          "time": 276.82800000000117,
          "velocity": 0.7874015748031497,
          "duration": 0.35178750000000036
        },
        {
          "name": "D7",
          "midi": 98,
          "time": 276.82800000000117,
          "velocity": 0.7874015748031497,
          "duration": 0.7080000000000268
        },
        {
          "name": "C#4",
          "midi": 61,
          "time": 277.18200000000115,
          "velocity": 0.7874015748031497,
          "duration": 0.04351250000001983
        },
        {
          "name": "F#4",
          "midi": 66,
          "time": 277.18200000000115,
          "velocity": 0.7874015748031497,
          "duration": 0.04351250000001983
        },
        {
          "name": "D5",
          "midi": 74,
          "time": 277.18200000000115,
          "velocity": 0.7874015748031497,
          "duration": 0.04351250000001983
        },
        {
          "name": "F#5",
          "midi": 78,
          "time": 277.18200000000115,
          "velocity": 0.7874015748031497,
          "duration": 0.04351250000001983
        },
        {
          "name": "D#6",
          "midi": 87,
          "time": 277.18200000000115,
          "velocity": 0.7874015748031497,
          "duration": 0.35178750000000036
        },
        {
          "name": "F#6",
          "midi": 90,
          "time": 277.18200000000115,
          "velocity": 0.7874015748031497,
          "duration": 0.35178750000000036
        },
        {
          "name": "D#7",
          "midi": 99,
          "time": 277.18200000000115,
          "velocity": 0.7874015748031497,
          "duration": 0.353262500000028
        },
        {
          "name": "C6",
          "midi": 84,
          "time": 277.5360000000012,
          "velocity": 0.7874015748031497,
          "duration": 0.04351250000001983
        },
        {
          "name": "F#6",
          "midi": 90,
          "time": 277.5360000000012,
          "velocity": 0.7874015748031497,
          "duration": 0.04351250000001983
        },
        {
          "name": "C7",
          "midi": 96,
          "time": 277.5360000000012,
          "velocity": 0.7874015748031497,
          "duration": 0.04351250000001983
        },
        {
          "name": "F#7",
          "midi": 102,
          "time": 277.5360000000012,
          "velocity": 0.7874015748031497,
          "duration": 0.04351250000001983
        },
        {
          "name": "C4",
          "midi": 60,
          "time": 277.7130000000012,
          "velocity": 0.7874015748031497,
          "duration": 0.5287875000000213
        },
        {
          "name": "F#4",
          "midi": 66,
          "time": 277.7130000000012,
          "velocity": 0.7874015748031497,
          "duration": 0.5287875000000213
        },
        {
          "name": "C#5",
          "midi": 73,
          "time": 277.7130000000012,
          "velocity": 0.7874015748031497,
          "duration": 0.5287875000000213
        },
        {
          "name": "F#5",
          "midi": 78,
          "time": 277.7130000000012,
          "velocity": 0.7874015748031497,
          "duration": 0.5287875000000213
        },
        {
          "name": "C#6",
          "midi": 85,
          "time": 277.7130000000012,
          "velocity": 0.7874015748031497,
          "duration": 0.5287875000000213
        },
        {
          "name": "F#6",
          "midi": 90,
          "time": 277.7130000000012,
          "velocity": 0.7874015748031497,
          "duration": 0.5287875000000213
        },
        {
          "name": "C#7",
          "midi": 97,
          "time": 277.7130000000012,
          "velocity": 0.7874015748031497,
          "duration": 1.238262500000019
        },
        {
          "name": "F#7",
          "midi": 102,
          "time": 277.7130000000012,
          "velocity": 0.7874015748031497,
          "duration": 2.3445125000000075
        },
        {
          "name": "C#4",
          "midi": 61,
          "time": 278.2440000000012,
          "velocity": 0.7874015748031497,
          "duration": 0.04424999999997681
        },
        {
          "name": "F#4",
          "midi": 66,
          "time": 278.2440000000012,
          "velocity": 0.7874015748031497,
          "duration": 0.04424999999997681
        },
        {
          "name": "D5",
          "midi": 74,
          "time": 278.2440000000012,
          "velocity": 0.7874015748031497,
          "duration": 0.04424999999997681
        },
        {
          "name": "F#5",
          "midi": 78,
          "time": 278.2440000000012,
          "velocity": 0.7874015748031497,
          "duration": 0.04424999999997681
        },
        {
          "name": "D#6",
          "midi": 87,
          "time": 278.2440000000012,
          "velocity": 0.7874015748031497,
          "duration": 0.35178750000000036
        },
        {
          "name": "F#6",
          "midi": 90,
          "time": 278.2440000000012,
          "velocity": 0.7874015748031497,
          "duration": 0.35178750000000036
        },
        {
          "name": "D#7",
          "midi": 99,
          "time": 278.2440000000012,
          "velocity": 0.7874015748031497,
          "duration": 0.7080000000000268
        },
        {
          "name": "D4",
          "midi": 62,
          "time": 278.5980000000012,
          "velocity": 0.7874015748031497,
          "duration": 0.04424999999997681
        },
        {
          "name": "F#4",
          "midi": 66,
          "time": 278.5980000000012,
          "velocity": 0.7874015748031497,
          "duration": 0.04424999999997681
        },
        {
          "name": "D#5",
          "midi": 75,
          "time": 278.5980000000012,
          "velocity": 0.7874015748031497,
          "duration": 0.04424999999997681
        },
        {
          "name": "F#5",
          "midi": 78,
          "time": 278.5980000000012,
          "velocity": 0.7874015748031497,
          "duration": 0.04424999999997681
        },
        {
          "name": "E6",
          "midi": 88,
          "time": 278.5980000000012,
          "velocity": 0.7874015748031497,
          "duration": 0.35178750000000036
        },
        {
          "name": "F#6",
          "midi": 90,
          "time": 278.5980000000012,
          "velocity": 0.7874015748031497,
          "duration": 0.35178750000000036
        },
        {
          "name": "E7",
          "midi": 100,
          "time": 278.5980000000012,
          "velocity": 0.7874015748031497,
          "duration": 0.35400000000004184
        },
        {
          "name": "C4",
          "midi": 60,
          "time": 278.95200000000125,
          "velocity": 0.7874015748031497,
          "duration": 0.04351250000001983
        },
        {
          "name": "F#4",
          "midi": 66,
          "time": 278.95200000000125,
          "velocity": 0.7874015748031497,
          "duration": 0.04351250000001983
        },
        {
          "name": "C5",
          "midi": 72,
          "time": 278.95200000000125,
          "velocity": 0.7874015748031497,
          "duration": 0.04351250000001983
        },
        {
          "name": "F#5",
          "midi": 78,
          "time": 278.95200000000125,
          "velocity": 0.7874015748031497,
          "duration": 0.04351250000001983
        },
        {
          "name": "C6",
          "midi": 84,
          "time": 278.95200000000125,
          "velocity": 0.7874015748031497,
          "duration": 0.35178750000000036
        },
        {
          "name": "F#6",
          "midi": 90,
          "time": 278.95200000000125,
          "velocity": 0.7874015748031497,
          "duration": 0.35178750000000036
        },
        {
          "name": "C7",
          "midi": 96,
          "time": 278.95200000000125,
          "velocity": 0.7874015748031497,
          "duration": 1.0597874999999704
        },
        {
          "name": "C4",
          "midi": 60,
          "time": 279.30600000000123,
          "velocity": 0.7874015748031497,
          "duration": 0.04351250000001983
        },
        {
          "name": "F#4",
          "midi": 66,
          "time": 279.30600000000123,
          "velocity": 0.7874015748031497,
          "duration": 0.04351250000001983
        },
        {
          "name": "C#5",
          "midi": 73,
          "time": 279.30600000000123,
          "velocity": 0.7874015748031497,
          "duration": 0.04351250000001983
        },
        {
          "name": "F#5",
          "midi": 78,
          "time": 279.30600000000123,
          "velocity": 0.7874015748031497,
          "duration": 0.04351250000001983
        },
        {
          "name": "D6",
          "midi": 86,
          "time": 279.30600000000123,
          "velocity": 0.7874015748031497,
          "duration": 0.35178750000000036
        },
        {
          "name": "F#6",
          "midi": 90,
          "time": 279.30600000000123,
          "velocity": 0.7874015748031497,
          "duration": 0.35178750000000036
        },
        {
          "name": "D7",
          "midi": 98,
          "time": 279.30600000000123,
          "velocity": 0.7874015748031497,
          "duration": 0.70799999999997
        },
        {
          "name": "C#4",
          "midi": 61,
          "time": 279.6600000000012,
          "velocity": 0.7874015748031497,
          "duration": 0.04351250000001983
        },
        {
          "name": "F#4",
          "midi": 66,
          "time": 279.6600000000012,
          "velocity": 0.7874015748031497,
          "duration": 0.04351250000001983
        },
        {
          "name": "D5",
          "midi": 74,
          "time": 279.6600000000012,
          "velocity": 0.7874015748031497,
          "duration": 0.04351250000001983
        },
        {
          "name": "F#5",
          "midi": 78,
          "time": 279.6600000000012,
          "velocity": 0.7874015748031497,
          "duration": 0.04351250000001983
        },
        {
          "name": "D#6",
          "midi": 87,
          "time": 279.6600000000012,
          "velocity": 0.7874015748031497,
          "duration": 0.35178750000000036
        },
        {
          "name": "F#6",
          "midi": 90,
          "time": 279.6600000000012,
          "velocity": 0.7874015748031497,
          "duration": 0.35178750000000036
        },
        {
          "name": "D#7",
          "midi": 99,
          "time": 279.6600000000012,
          "velocity": 0.7874015748031497,
          "duration": 0.353999999999985
        },
        {
          "name": "C6",
          "midi": 84,
          "time": 280.0140000000012,
          "velocity": 0.7874015748031497,
          "duration": 0.04351250000001983
        },
        {
          "name": "F#6",
          "midi": 90,
          "time": 280.0140000000012,
          "velocity": 0.7874015748031497,
          "duration": 0.04351250000001983
        },
        {
          "name": "C7",
          "midi": 96,
          "time": 280.0140000000012,
          "velocity": 0.7874015748031497,
          "duration": 0.04351250000001983
        },
        {
          "name": "C4",
          "midi": 60,
          "time": 280.1910000000012,
          "velocity": 0.7874015748031497,
          "duration": 0.5287875000000213
        },
        {
          "name": "F#4",
          "midi": 66,
          "time": 280.1910000000012,
          "velocity": 0.7874015748031497,
          "duration": 0.5287875000000213
        },
        {
          "name": "C#5",
          "midi": 73,
          "time": 280.1910000000012,
          "velocity": 0.7874015748031497,
          "duration": 0.5287875000000213
        },
        {
          "name": "F#5",
          "midi": 78,
          "time": 280.1910000000012,
          "velocity": 0.7874015748031497,
          "duration": 0.5287875000000213
        },
        {
          "name": "C#6",
          "midi": 85,
          "time": 280.1910000000012,
          "velocity": 0.7874015748031497,
          "duration": 0.5287875000000213
        },
        {
          "name": "F#6",
          "midi": 90,
          "time": 280.1910000000012,
          "velocity": 0.7874015748031497,
          "duration": 0.5287875000000213
        },
        {
          "name": "C#7",
          "midi": 97,
          "time": 280.1910000000012,
          "velocity": 0.7874015748031497,
          "duration": 1.2390000000000327
        },
        {
          "name": "F#7",
          "midi": 102,
          "time": 280.1910000000012,
          "velocity": 0.7874015748031497,
          "duration": 1.2390000000000327
        },
        {
          "name": "C#4",
          "midi": 61,
          "time": 280.72200000000123,
          "velocity": 0.7874015748031497,
          "duration": 0.04351250000001983
        },
        {
          "name": "F#4",
          "midi": 66,
          "time": 280.72200000000123,
          "velocity": 0.7874015748031497,
          "duration": 0.04351250000001983
        },
        {
          "name": "D5",
          "midi": 74,
          "time": 280.72200000000123,
          "velocity": 0.7874015748031497,
          "duration": 0.04351250000001983
        },
        {
          "name": "F#5",
          "midi": 78,
          "time": 280.72200000000123,
          "velocity": 0.7874015748031497,
          "duration": 0.04351250000001983
        },
        {
          "name": "D#6",
          "midi": 87,
          "time": 280.72200000000123,
          "velocity": 0.7874015748031497,
          "duration": 0.35178750000000036
        },
        {
          "name": "F#6",
          "midi": 90,
          "time": 280.72200000000123,
          "velocity": 0.7874015748031497,
          "duration": 0.35178750000000036
        },
        {
          "name": "D#7",
          "midi": 99,
          "time": 280.72200000000123,
          "velocity": 0.7874015748031497,
          "duration": 0.7080000000000268
        },
        {
          "name": "D4",
          "midi": 62,
          "time": 281.0760000000012,
          "velocity": 0.7874015748031497,
          "duration": 0.04351250000001983
        },
        {
          "name": "F#4",
          "midi": 66,
          "time": 281.0760000000012,
          "velocity": 0.7874015748031497,
          "duration": 0.04351250000001983
        },
        {
          "name": "D#5",
          "midi": 75,
          "time": 281.0760000000012,
          "velocity": 0.7874015748031497,
          "duration": 0.04351250000001983
        },
        {
          "name": "F#5",
          "midi": 78,
          "time": 281.0760000000012,
          "velocity": 0.7874015748031497,
          "duration": 0.04351250000001983
        },
        {
          "name": "E6",
          "midi": 88,
          "time": 281.0760000000012,
          "velocity": 0.7874015748031497,
          "duration": 0.35178750000000036
        },
        {
          "name": "F#6",
          "midi": 90,
          "time": 281.0760000000012,
          "velocity": 0.7874015748031497,
          "duration": 0.35178750000000036
        },
        {
          "name": "E7",
          "midi": 100,
          "time": 281.0760000000012,
          "velocity": 0.7874015748031497,
          "duration": 0.35400000000004184
        },
        {
          "name": "C4",
          "midi": 60,
          "time": 281.43000000000126,
          "velocity": 0.7874015748031497,
          "duration": 0.04351250000001983
        },
        {
          "name": "F#4",
          "midi": 66,
          "time": 281.43000000000126,
          "velocity": 0.7874015748031497,
          "duration": 0.04351250000001983
        },
        {
          "name": "C5",
          "midi": 72,
          "time": 281.43000000000126,
          "velocity": 0.7874015748031497,
          "duration": 0.04351250000001983
        },
        {
          "name": "F#5",
          "midi": 78,
          "time": 281.43000000000126,
          "velocity": 0.7874015748031497,
          "duration": 0.04351250000001983
        },
        {
          "name": "C6",
          "midi": 84,
          "time": 281.43000000000126,
          "velocity": 0.7874015748031497,
          "duration": 0.35178750000000036
        },
        {
          "name": "F#6",
          "midi": 90,
          "time": 281.43000000000126,
          "velocity": 0.7874015748031497,
          "duration": 0.35178750000000036
        },
        {
          "name": "C7",
          "midi": 96,
          "time": 281.43000000000126,
          "velocity": 0.7874015748031497,
          "duration": 1.0597874999999704
        },
        {
          "name": "F#7",
          "midi": 102,
          "time": 281.43000000000126,
          "velocity": 0.7874015748031497,
          "duration": 1.0605249999999842
        },
        {
          "name": "C4",
          "midi": 60,
          "time": 281.78400000000124,
          "velocity": 0.7874015748031497,
          "duration": 0.04424999999997681
        },
        {
          "name": "F#4",
          "midi": 66,
          "time": 281.78400000000124,
          "velocity": 0.7874015748031497,
          "duration": 0.04424999999997681
        },
        {
          "name": "C#5",
          "midi": 73,
          "time": 281.78400000000124,
          "velocity": 0.7874015748031497,
          "duration": 0.04424999999997681
        },
        {
          "name": "F#5",
          "midi": 78,
          "time": 281.78400000000124,
          "velocity": 0.7874015748031497,
          "duration": 0.04424999999997681
        },
        {
          "name": "D6",
          "midi": 86,
          "time": 281.78400000000124,
          "velocity": 0.7874015748031497,
          "duration": 0.35178750000000036
        },
        {
          "name": "F#6",
          "midi": 90,
          "time": 281.78400000000124,
          "velocity": 0.7874015748031497,
          "duration": 0.35178750000000036
        },
        {
          "name": "D7",
          "midi": 98,
          "time": 281.78400000000124,
          "velocity": 0.7874015748031497,
          "duration": 0.707262500000013
        },
        {
          "name": "C#4",
          "midi": 61,
          "time": 282.1380000000012,
          "velocity": 0.7874015748031497,
          "duration": 0.04424999999997681
        },
        {
          "name": "F#4",
          "midi": 66,
          "time": 282.1380000000012,
          "velocity": 0.7874015748031497,
          "duration": 0.04424999999997681
        },
        {
          "name": "D5",
          "midi": 74,
          "time": 282.1380000000012,
          "velocity": 0.7874015748031497,
          "duration": 0.04424999999997681
        },
        {
          "name": "F#5",
          "midi": 78,
          "time": 282.1380000000012,
          "velocity": 0.7874015748031497,
          "duration": 0.04424999999997681
        },
        {
          "name": "D#6",
          "midi": 87,
          "time": 282.1380000000012,
          "velocity": 0.7874015748031497,
          "duration": 0.35178750000000036
        },
        {
          "name": "F#6",
          "midi": 90,
          "time": 282.1380000000012,
          "velocity": 0.7874015748031497,
          "duration": 0.35178750000000036
        },
        {
          "name": "D#7",
          "midi": 99,
          "time": 282.1380000000012,
          "velocity": 0.7874015748031497,
          "duration": 0.353262500000028
        },
        {
          "name": "C6",
          "midi": 84,
          "time": 282.49200000000127,
          "velocity": 0.7874015748031497,
          "duration": 0.04424999999997681
        },
        {
          "name": "F#6",
          "midi": 90,
          "time": 282.49200000000127,
          "velocity": 0.7874015748031497,
          "duration": 0.04424999999997681
        },
        {
          "name": "C7",
          "midi": 96,
          "time": 282.49200000000127,
          "velocity": 0.7874015748031497,
          "duration": 0.04424999999997681
        },
        {
          "name": "F#7",
          "midi": 102,
          "time": 282.49200000000127,
          "velocity": 0.7874015748031497,
          "duration": 0.04424999999997681
        },
        {
          "name": "C4",
          "midi": 60,
          "time": 282.6682625000012,
          "velocity": 0.7874015748031497,
          "duration": 0.04424999999997681
        },
        {
          "name": "F#4",
          "midi": 66,
          "time": 282.6682625000012,
          "velocity": 0.7874015748031497,
          "duration": 0.04424999999997681
        },
        {
          "name": "C#5",
          "midi": 73,
          "time": 282.6682625000012,
          "velocity": 0.7874015748031497,
          "duration": 0.04424999999997681
        },
        {
          "name": "F#5",
          "midi": 78,
          "time": 282.6682625000012,
          "velocity": 0.7874015748031497,
          "duration": 0.04424999999997681
        },
        {
          "name": "C#6",
          "midi": 85,
          "time": 282.6682625000012,
          "velocity": 0.7874015748031497,
          "duration": 0.5280499999999506
        },
        {
          "name": "F#6",
          "midi": 90,
          "time": 282.6682625000012,
          "velocity": 0.7874015748031497,
          "duration": 0.5280499999999506
        },
        {
          "name": "C#7",
          "midi": 97,
          "time": 282.6682625000012,
          "velocity": 0.7874015748031497,
          "duration": 1.945525000000032
        },
        {
          "name": "F#7",
          "midi": 102,
          "time": 282.6682625000012,
          "velocity": 0.7874015748031497,
          "duration": 1.945525000000032
        },
        {
          "name": "C#4",
          "midi": 61,
          "time": 283.2000000000012,
          "velocity": 0.7874015748031497,
          "duration": 0.08776249999999663
        },
        {
          "name": "F#4",
          "midi": 66,
          "time": 283.2000000000012,
          "velocity": 0.7874015748031497,
          "duration": 0.08776249999999663
        },
        {
          "name": "D5",
          "midi": 74,
          "time": 283.2000000000012,
          "velocity": 0.7874015748031497,
          "duration": 0.08776249999999663
        },
        {
          "name": "F#5",
          "midi": 78,
          "time": 283.2000000000012,
          "velocity": 0.7874015748031497,
          "duration": 0.08776249999999663
        },
        {
          "name": "D#6",
          "midi": 87,
          "time": 283.2000000000012,
          "velocity": 0.7874015748031497,
          "duration": 0.7043125000000146
        },
        {
          "name": "F#6",
          "midi": 90,
          "time": 283.2000000000012,
          "velocity": 0.7874015748031497,
          "duration": 0.7043125000000146
        },
        {
          "name": "D#7",
          "midi": 99,
          "time": 283.2000000000012,
          "velocity": 0.7874015748031497,
          "duration": 1.413787500000069
        },
        {
          "name": "D4",
          "midi": 62,
          "time": 283.9080000000012,
          "velocity": 0.7874015748031497,
          "duration": 0.08776249999999663
        },
        {
          "name": "F#4",
          "midi": 66,
          "time": 283.9080000000012,
          "velocity": 0.7874015748031497,
          "duration": 0.08776249999999663
        },
        {
          "name": "D#5",
          "midi": 75,
          "time": 283.9080000000012,
          "velocity": 0.7874015748031497,
          "duration": 0.08776249999999663
        },
        {
          "name": "F#5",
          "midi": 78,
          "time": 283.9080000000012,
          "velocity": 0.7874015748031497,
          "duration": 0.08776249999999663
        },
        {
          "name": "E6",
          "midi": 88,
          "time": 283.9080000000012,
          "velocity": 0.7874015748031497,
          "duration": 0.7043125000000146
        },
        {
          "name": "F#6",
          "midi": 90,
          "time": 283.9080000000012,
          "velocity": 0.7874015748031497,
          "duration": 0.7043125000000146
        },
        {
          "name": "E7",
          "midi": 100,
          "time": 283.9080000000012,
          "velocity": 0.7874015748031497,
          "duration": 0.7043125000000146
        },
        {
          "name": "D4",
          "midi": 62,
          "time": 284.61600000000124,
          "velocity": 0.7874015748031497,
          "duration": 0.04351250000001983
        },
        {
          "name": "F#4",
          "midi": 66,
          "time": 284.61600000000124,
          "velocity": 0.7874015748031497,
          "duration": 0.04351250000001983
        },
        {
          "name": "D#5",
          "midi": 75,
          "time": 284.61600000000124,
          "velocity": 0.7874015748031497,
          "duration": 0.04351250000001983
        },
        {
          "name": "F#5",
          "midi": 78,
          "time": 284.61600000000124,
          "velocity": 0.7874015748031497,
          "duration": 0.04351250000001983
        },
        {
          "name": "E6",
          "midi": 88,
          "time": 284.61600000000124,
          "velocity": 0.7874015748031497,
          "duration": 0.04351250000001983
        },
        {
          "name": "F#6",
          "midi": 90,
          "time": 284.61600000000124,
          "velocity": 0.7874015748031497,
          "duration": 0.04351250000001983
        },
        {
          "name": "E7",
          "midi": 100,
          "time": 284.61600000000124,
          "velocity": 0.7874015748031497,
          "duration": 0.04351250000001983
        },
        {
          "name": "F#7",
          "midi": 102,
          "time": 284.61600000000124,
          "velocity": 0.7874015748031497,
          "duration": 0.04351250000001983
        },
        {
          "name": "C#5",
          "midi": 73,
          "time": 284.79300000000126,
          "velocity": 0.7874015748031497,
          "duration": 0.04351250000001983
        },
        {
          "name": "F5",
          "midi": 77,
          "time": 284.79300000000126,
          "velocity": 0.7874015748031497,
          "duration": 0.04351250000001983
        },
        {
          "name": "D6",
          "midi": 86,
          "time": 284.79300000000126,
          "velocity": 0.7874015748031497,
          "duration": 0.04351250000001983
        },
        {
          "name": "F6",
          "midi": 89,
          "time": 284.79300000000126,
          "velocity": 0.7874015748031497,
          "duration": 0.04351250000001983
        },
        {
          "name": "D7",
          "midi": 98,
          "time": 284.79300000000126,
          "velocity": 0.7874015748031497,
          "duration": 0.04351250000001983
        },
        {
          "name": "F#7",
          "midi": 102,
          "time": 284.79300000000126,
          "velocity": 0.7874015748031497,
          "duration": 0.04351250000001983
        },
        {
          "name": "C#4",
          "midi": 61,
          "time": 284.9700000000013,
          "velocity": 0.7874015748031497,
          "duration": 0.04351250000001983
        },
        {
          "name": "F#4",
          "midi": 66,
          "time": 284.9700000000013,
          "velocity": 0.7874015748031497,
          "duration": 0.04351250000001983
        },
        {
          "name": "D5",
          "midi": 74,
          "time": 284.9700000000013,
          "velocity": 0.7874015748031497,
          "duration": 0.04351250000001983
        },
        {
          "name": "F5",
          "midi": 77,
          "time": 284.9700000000013,
          "velocity": 0.7874015748031497,
          "duration": 0.04351250000001983
        },
        {
          "name": "D#6",
          "midi": 87,
          "time": 284.9700000000013,
          "velocity": 0.7874015748031497,
          "duration": 0.04351250000001983
        },
        {
          "name": "F6",
          "midi": 89,
          "time": 284.9700000000013,
          "velocity": 0.7874015748031497,
          "duration": 0.04351250000001983
        },
        {
          "name": "D#7",
          "midi": 99,
          "time": 284.9700000000013,
          "velocity": 0.7874015748031497,
          "duration": 0.04351250000001983
        },
        {
          "name": "F#7",
          "midi": 102,
          "time": 284.9700000000013,
          "velocity": 0.7874015748031497,
          "duration": 0.04351250000001983
        },
        {
          "name": "C#7",
          "midi": 97,
          "time": 285.1470000000013,
          "velocity": 0.7874015748031497,
          "duration": 0.04351250000001983
        },
        {
          "name": "F#7",
          "midi": 102,
          "time": 285.1470000000013,
          "velocity": 0.7874015748031497,
          "duration": 0.04351250000001983
        },
        {
          "name": "C#4",
          "midi": 61,
          "time": 285.3240000000013,
          "velocity": 0.7874015748031497,
          "duration": 0.04351250000001983
        },
        {
          "name": "F#4",
          "midi": 66,
          "time": 285.3240000000013,
          "velocity": 0.7874015748031497,
          "duration": 0.04351250000001983
        },
        {
          "name": "D5",
          "midi": 74,
          "time": 285.3240000000013,
          "velocity": 0.7874015748031497,
          "duration": 0.04351250000001983
        },
        {
          "name": "F#5",
          "midi": 78,
          "time": 285.3240000000013,
          "velocity": 0.7874015748031497,
          "duration": 0.04351250000001983
        },
        {
          "name": "D6",
          "midi": 86,
          "time": 285.3240000000013,
          "velocity": 0.7874015748031497,
          "duration": 0.04351250000001983
        },
        {
          "name": "F#6",
          "midi": 90,
          "time": 285.3240000000013,
          "velocity": 0.7874015748031497,
          "duration": 0.04351250000001983
        },
        {
          "name": "D7",
          "midi": 98,
          "time": 285.3240000000013,
          "velocity": 0.7874015748031497,
          "duration": 0.04351250000001983
        },
        {
          "name": "F#7",
          "midi": 102,
          "time": 285.3240000000013,
          "velocity": 0.7874015748031497,
          "duration": 0.04351250000001983
        },
        {
          "name": "C4",
          "midi": 60,
          "time": 285.50100000000134,
          "velocity": 0.7874015748031497,
          "duration": 0.04351250000001983
        },
        {
          "name": "F4",
          "midi": 65,
          "time": 285.50100000000134,
          "velocity": 0.7874015748031497,
          "duration": 0.04351250000001983
        },
        {
          "name": "C#5",
          "midi": 73,
          "time": 285.50100000000134,
          "velocity": 0.7874015748031497,
          "duration": 0.04351250000001983
        },
        {
          "name": "F5",
          "midi": 77,
          "time": 285.50100000000134,
          "velocity": 0.7874015748031497,
          "duration": 0.04351250000001983
        },
        {
          "name": "C#6",
          "midi": 85,
          "time": 285.50100000000134,
          "velocity": 0.7874015748031497,
          "duration": 0.3525250000000142
        },
        {
          "name": "F6",
          "midi": 89,
          "time": 285.50100000000134,
          "velocity": 0.7874015748031497,
          "duration": 0.3525250000000142
        },
        {
          "name": "C#7",
          "midi": 97,
          "time": 285.50100000000134,
          "velocity": 0.7874015748031497,
          "duration": 0.3525250000000142
        },
        {
          "name": "F#7",
          "midi": 102,
          "time": 285.50100000000134,
          "velocity": 0.7874015748031497,
          "duration": 0.3525250000000142
        },
        {
          "name": "D4",
          "midi": 62,
          "time": 285.85573750000134,
          "velocity": 0.7874015748031497,
          "duration": 0.04351250000001983
        },
        {
          "name": "F#4",
          "midi": 66,
          "time": 285.85573750000134,
          "velocity": 0.7874015748031497,
          "duration": 0.04351250000001983
        },
        {
          "name": "D#5",
          "midi": 75,
          "time": 285.85573750000134,
          "velocity": 0.7874015748031497,
          "duration": 0.04351250000001983
        },
        {
          "name": "F#5",
          "midi": 78,
          "time": 285.85573750000134,
          "velocity": 0.7874015748031497,
          "duration": 0.04351250000001983
        },
        {
          "name": "E6",
          "midi": 88,
          "time": 285.85573750000134,
          "velocity": 0.7874015748031497,
          "duration": 0.3510500000000434
        },
        {
          "name": "F#6",
          "midi": 90,
          "time": 285.85573750000134,
          "velocity": 0.7874015748031497,
          "duration": 0.3510500000000434
        },
        {
          "name": "E7",
          "midi": 100,
          "time": 285.85573750000134,
          "velocity": 0.7874015748031497,
          "duration": 0.3510500000000434
        },
        {
          "name": "F#7",
          "midi": 102,
          "time": 285.85573750000134,
          "velocity": 0.7874015748031497,
          "duration": 0.3510500000000434
        },
        {
          "name": "C#5",
          "midi": 73,
          "time": 286.2082625000014,
          "velocity": 0.7874015748031497,
          "duration": 0.04351250000001983
        },
        {
          "name": "F#5",
          "midi": 78,
          "time": 286.2082625000014,
          "velocity": 0.7874015748031497,
          "duration": 0.04351250000001983
        },
        {
          "name": "D6",
          "midi": 86,
          "time": 286.2082625000014,
          "velocity": 0.7874015748031497,
          "duration": 0.04351250000001983
        },
        {
          "name": "F#6",
          "midi": 90,
          "time": 286.2082625000014,
          "velocity": 0.7874015748031497,
          "duration": 0.04351250000001983
        },
        {
          "name": "D7",
          "midi": 98,
          "time": 286.2082625000014,
          "velocity": 0.7874015748031497,
          "duration": 0.04351250000001983
        },
        {
          "name": "F#7",
          "midi": 102,
          "time": 286.2082625000014,
          "velocity": 0.7874015748031497,
          "duration": 0.04351250000001983
        },
        {
          "name": "C#4",
          "midi": 61,
          "time": 286.38600000000145,
          "velocity": 0.7874015748031497,
          "duration": 0.04351250000001983
        },
        {
          "name": "F#4",
          "midi": 66,
          "time": 286.38600000000145,
          "velocity": 0.7874015748031497,
          "duration": 0.04351250000001983
        },
        {
          "name": "D5",
          "midi": 74,
          "time": 286.38600000000145,
          "velocity": 0.7874015748031497,
          "duration": 0.04351250000001983
        },
        {
          "name": "F5",
          "midi": 77,
          "time": 286.38600000000145,
          "velocity": 0.7874015748031497,
          "duration": 0.04351250000001983
        },
        {
          "name": "D#6",
          "midi": 87,
          "time": 286.38600000000145,
          "velocity": 0.7874015748031497,
          "duration": 0.04351250000001983
        },
        {
          "name": "F6",
          "midi": 89,
          "time": 286.38600000000145,
          "velocity": 0.7874015748031497,
          "duration": 0.04351250000001983
        },
        {
          "name": "D#7",
          "midi": 99,
          "time": 286.38600000000145,
          "velocity": 0.7874015748031497,
          "duration": 0.04351250000001983
        },
        {
          "name": "F#7",
          "midi": 102,
          "time": 286.38600000000145,
          "velocity": 0.7874015748031497,
          "duration": 0.04351250000001983
        },
        {
          "name": "D7",
          "midi": 98,
          "time": 286.56300000000147,
          "velocity": 0.7874015748031497,
          "duration": 0.04351250000001983
        },
        {
          "name": "F#7",
          "midi": 102,
          "time": 286.56300000000147,
          "velocity": 0.7874015748031497,
          "duration": 0.04351250000001983
        },
        {
          "name": "C4",
          "midi": 60,
          "time": 286.7400000000015,
          "velocity": 0.7874015748031497,
          "duration": 0.04351250000001983
        },
        {
          "name": "F#4",
          "midi": 66,
          "time": 286.7400000000015,
          "velocity": 0.7874015748031497,
          "duration": 0.04351250000001983
        },
        {
          "name": "C#5",
          "midi": 73,
          "time": 286.7400000000015,
          "velocity": 0.7874015748031497,
          "duration": 0.04351250000001983
        },
        {
          "name": "F#5",
          "midi": 78,
          "time": 286.7400000000015,
          "velocity": 0.7874015748031497,
          "duration": 0.04351250000001983
        },
        {
          "name": "C#6",
          "midi": 85,
          "time": 286.7400000000015,
          "velocity": 0.7874015748031497,
          "duration": 0.04351250000001983
        },
        {
          "name": "F#6",
          "midi": 90,
          "time": 286.7400000000015,
          "velocity": 0.7874015748031497,
          "duration": 0.04351250000001983
        },
        {
          "name": "C#7",
          "midi": 97,
          "time": 286.7400000000015,
          "velocity": 0.7874015748031497,
          "duration": 0.04351250000001983
        },
        {
          "name": "F#7",
          "midi": 102,
          "time": 286.7400000000015,
          "velocity": 0.7874015748031497,
          "duration": 0.04351250000001983
        },
        {
          "name": "C6",
          "midi": 84,
          "time": 286.9177375000015,
          "velocity": 0.7874015748031497,
          "duration": 0.042775000000006
        },
        {
          "name": "F6",
          "midi": 89,
          "time": 286.9177375000015,
          "velocity": 0.7874015748031497,
          "duration": 0.042775000000006
        },
        {
          "name": "C7",
          "midi": 96,
          "time": 286.9177375000015,
          "velocity": 0.7874015748031497,
          "duration": 0.042775000000006
        },
        {
          "name": "F#7",
          "midi": 102,
          "time": 286.9177375000015,
          "velocity": 0.7874015748031497,
          "duration": 0.042775000000006
        },
        {
          "name": "D4",
          "midi": 62,
          "time": 287.09400000000153,
          "velocity": 0.7874015748031497,
          "duration": 0.04424999999997681
        },
        {
          "name": "F#4",
          "midi": 66,
          "time": 287.09400000000153,
          "velocity": 0.7874015748031497,
          "duration": 0.04424999999997681
        },
        {
          "name": "D#5",
          "midi": 75,
          "time": 287.09400000000153,
          "velocity": 0.7874015748031497,
          "duration": 0.04424999999997681
        },
        {
          "name": "F#5",
          "midi": 78,
          "time": 287.09400000000153,
          "velocity": 0.7874015748031497,
          "duration": 0.04424999999997681
        },
        {
          "name": "E6",
          "midi": 88,
          "time": 287.09400000000153,
          "velocity": 0.7874015748031497,
          "duration": 0.04424999999997681
        },
        {
          "name": "F#6",
          "midi": 90,
          "time": 287.09400000000153,
          "velocity": 0.7874015748031497,
          "duration": 0.04424999999997681
        },
        {
          "name": "E7",
          "midi": 100,
          "time": 287.09400000000153,
          "velocity": 0.7874015748031497,
          "duration": 0.04424999999997681
        },
        {
          "name": "F#7",
          "midi": 102,
          "time": 287.09400000000153,
          "velocity": 0.7874015748031497,
          "duration": 0.04424999999997681
        },
        {
          "name": "C#5",
          "midi": 73,
          "time": 287.2710000000015,
          "velocity": 0.7874015748031497,
          "duration": 0.04424999999997681
        },
        {
          "name": "F5",
          "midi": 77,
          "time": 287.2710000000015,
          "velocity": 0.7874015748031497,
          "duration": 0.04424999999997681
        },
        {
          "name": "D6",
          "midi": 86,
          "time": 287.2710000000015,
          "velocity": 0.7874015748031497,
          "duration": 0.04424999999997681
        },
        {
          "name": "F6",
          "midi": 89,
          "time": 287.2710000000015,
          "velocity": 0.7874015748031497,
          "duration": 0.04424999999997681
        },
        {
          "name": "D7",
          "midi": 98,
          "time": 287.2710000000015,
          "velocity": 0.7874015748031497,
          "duration": 0.04424999999997681
        },
        {
          "name": "F#7",
          "midi": 102,
          "time": 287.2710000000015,
          "velocity": 0.7874015748031497,
          "duration": 0.04424999999997681
        },
        {
          "name": "C#4",
          "midi": 61,
          "time": 287.44800000000146,
          "velocity": 0.7874015748031497,
          "duration": 0.04351250000001983
        },
        {
          "name": "F#4",
          "midi": 66,
          "time": 287.44800000000146,
          "velocity": 0.7874015748031497,
          "duration": 0.04351250000001983
        },
        {
          "name": "D5",
          "midi": 74,
          "time": 287.44800000000146,
          "velocity": 0.7874015748031497,
          "duration": 0.04351250000001983
        },
        {
          "name": "F5",
          "midi": 77,
          "time": 287.44800000000146,
          "velocity": 0.7874015748031497,
          "duration": 0.04351250000001983
        },
        {
          "name": "D#6",
          "midi": 87,
          "time": 287.44800000000146,
          "velocity": 0.7874015748031497,
          "duration": 0.04351250000001983
        },
        {
          "name": "F6",
          "midi": 89,
          "time": 287.44800000000146,
          "velocity": 0.7874015748031497,
          "duration": 0.04351250000001983
        },
        {
          "name": "D#7",
          "midi": 99,
          "time": 287.44800000000146,
          "velocity": 0.7874015748031497,
          "duration": 0.04351250000001983
        },
        {
          "name": "F#7",
          "midi": 102,
          "time": 287.44800000000146,
          "velocity": 0.7874015748031497,
          "duration": 0.04351250000001983
        },
        {
          "name": "C#7",
          "midi": 97,
          "time": 287.6250000000015,
          "velocity": 0.7874015748031497,
          "duration": 0.04351250000001983
        },
        {
          "name": "F#7",
          "midi": 102,
          "time": 287.6250000000015,
          "velocity": 0.7874015748031497,
          "duration": 0.04351250000001983
        },
        {
          "name": "C#4",
          "midi": 61,
          "time": 287.8020000000015,
          "velocity": 0.7874015748031497,
          "duration": 0.04424999999997681
        },
        {
          "name": "F#4",
          "midi": 66,
          "time": 287.8020000000015,
          "velocity": 0.7874015748031497,
          "duration": 0.04424999999997681
        },
        {
          "name": "D5",
          "midi": 74,
          "time": 287.8020000000015,
          "velocity": 0.7874015748031497,
          "duration": 0.04424999999997681
        },
        {
          "name": "F#5",
          "midi": 78,
          "time": 287.8020000000015,
          "velocity": 0.7874015748031497,
          "duration": 0.04424999999997681
        },
        {
          "name": "D6",
          "midi": 86,
          "time": 287.8020000000015,
          "velocity": 0.7874015748031497,
          "duration": 0.04424999999997681
        },
        {
          "name": "F#6",
          "midi": 90,
          "time": 287.8020000000015,
          "velocity": 0.7874015748031497,
          "duration": 0.04424999999997681
        },
        {
          "name": "D7",
          "midi": 98,
          "time": 287.8020000000015,
          "velocity": 0.7874015748031497,
          "duration": 0.04424999999997681
        },
        {
          "name": "F#7",
          "midi": 102,
          "time": 287.8020000000015,
          "velocity": 0.7874015748031497,
          "duration": 0.04424999999997681
        },
        {
          "name": "C4",
          "midi": 60,
          "time": 287.9797375000015,
          "velocity": 0.7874015748031497,
          "duration": 0.04351250000001983
        },
        {
          "name": "F4",
          "midi": 65,
          "time": 287.9797375000015,
          "velocity": 0.7874015748031497,
          "duration": 0.04351250000001983
        },
        {
          "name": "C#5",
          "midi": 73,
          "time": 287.9797375000015,
          "velocity": 0.7874015748031497,
          "duration": 0.04351250000001983
        },
        {
          "name": "F5",
          "midi": 77,
          "time": 287.9797375000015,
          "velocity": 0.7874015748031497,
          "duration": 0.04351250000001983
        },
        {
          "name": "C#6",
          "midi": 85,
          "time": 287.9797375000015,
          "velocity": 0.7874015748031497,
          "duration": 0.04351250000001983
        },
        {
          "name": "F6",
          "midi": 89,
          "time": 287.9797375000015,
          "velocity": 0.7874015748031497,
          "duration": 0.04351250000001983
        },
        {
          "name": "C#7",
          "midi": 97,
          "time": 287.9797375000015,
          "velocity": 0.7874015748031497,
          "duration": 0.04351250000001983
        },
        {
          "name": "F#7",
          "midi": 102,
          "time": 287.9797375000015,
          "velocity": 0.7874015748031497,
          "duration": 0.04351250000001983
        },
        {
          "name": "C#7",
          "midi": 97,
          "time": 288.1560000000015,
          "velocity": 0.7874015748031497,
          "duration": 0.04424999999997681
        },
        {
          "name": "F#7",
          "midi": 102,
          "time": 288.1560000000015,
          "velocity": 0.7874015748031497,
          "duration": 0.04424999999997681
        },
        {
          "name": "C4",
          "midi": 60,
          "time": 288.33300000000145,
          "velocity": 0.7874015748031497,
          "duration": 0.04424999999997681
        },
        {
          "name": "F#4",
          "midi": 66,
          "time": 288.33300000000145,
          "velocity": 0.7874015748031497,
          "duration": 0.04424999999997681
        },
        {
          "name": "C5",
          "midi": 72,
          "time": 288.33300000000145,
          "velocity": 0.7874015748031497,
          "duration": 0.04424999999997681
        },
        {
          "name": "F#5",
          "midi": 78,
          "time": 288.33300000000145,
          "velocity": 0.7874015748031497,
          "duration": 0.04424999999997681
        },
        {
          "name": "C6",
          "midi": 84,
          "time": 288.33300000000145,
          "velocity": 0.7874015748031497,
          "duration": 0.35178750000000036
        },
        {
          "name": "F#6",
          "midi": 90,
          "time": 288.33300000000145,
          "velocity": 0.7874015748031497,
          "duration": 0.35178750000000036
        },
        {
          "name": "C7",
          "midi": 96,
          "time": 288.33300000000145,
          "velocity": 0.7874015748031497,
          "duration": 0.35178750000000036
        },
        {
          "name": "F#7",
          "midi": 102,
          "time": 288.33300000000145,
          "velocity": 0.7874015748031497,
          "duration": 0.35178750000000036
        },
        {
          "name": "C#4",
          "midi": 61,
          "time": 288.68700000000143,
          "velocity": 0.7874015748031497,
          "duration": 0.04424999999997681
        },
        {
          "name": "F#4",
          "midi": 66,
          "time": 288.68700000000143,
          "velocity": 0.7874015748031497,
          "duration": 0.04424999999997681
        },
        {
          "name": "C#5",
          "midi": 73,
          "time": 288.68700000000143,
          "velocity": 0.7874015748031497,
          "duration": 0.04424999999997681
        },
        {
          "name": "F#5",
          "midi": 78,
          "time": 288.68700000000143,
          "velocity": 0.7874015748031497,
          "duration": 0.04424999999997681
        },
        {
          "name": "C#6",
          "midi": 85,
          "time": 288.68700000000143,
          "velocity": 0.7874015748031497,
          "duration": 0.35252499999995734
        },
        {
          "name": "F#6",
          "midi": 90,
          "time": 288.68700000000143,
          "velocity": 0.7874015748031497,
          "duration": 0.35252499999995734
        },
        {
          "name": "C#7",
          "midi": 97,
          "time": 288.68700000000143,
          "velocity": 0.7874015748031497,
          "duration": 0.35252499999995734
        },
        {
          "name": "F#7",
          "midi": 102,
          "time": 288.68700000000143,
          "velocity": 0.7874015748031497,
          "duration": 0.35252499999995734
        },
        {
          "name": "C4",
          "midi": 60,
          "time": 289.0417375000014,
          "velocity": 0.7874015748031497,
          "duration": 0.04351250000001983
        },
        {
          "name": "F#4",
          "midi": 66,
          "time": 289.0417375000014,
          "velocity": 0.7874015748031497,
          "duration": 0.04351250000001983
        },
        {
          "name": "D5",
          "midi": 74,
          "time": 289.0417375000014,
          "velocity": 0.7874015748031497,
          "duration": 0.04351250000001983
        },
        {
          "name": "F#5",
          "midi": 78,
          "time": 289.0417375000014,
          "velocity": 0.7874015748031497,
          "duration": 0.04351250000001983
        },
        {
          "name": "D6",
          "midi": 86,
          "time": 289.0417375000014,
          "velocity": 0.7874015748031497,
          "duration": 0.3510500000000434
        },
        {
          "name": "F#6",
          "midi": 90,
          "time": 289.0417375000014,
          "velocity": 0.7874015748031497,
          "duration": 0.3510500000000434
        },
        {
          "name": "D7",
          "midi": 98,
          "time": 289.0417375000014,
          "velocity": 0.7874015748031497,
          "duration": 0.3510500000000434
        },
        {
          "name": "F#7",
          "midi": 102,
          "time": 289.0417375000014,
          "velocity": 0.7874015748031497,
          "duration": 0.3510500000000434
        },
        {
          "name": "D4",
          "midi": 62,
          "time": 289.3950000000014,
          "velocity": 0.7874015748031497,
          "duration": 0.04424999999997681
        },
        {
          "name": "F#4",
          "midi": 66,
          "time": 289.3950000000014,
          "velocity": 0.7874015748031497,
          "duration": 0.04424999999997681
        },
        {
          "name": "D#5",
          "midi": 75,
          "time": 289.3950000000014,
          "velocity": 0.7874015748031497,
          "duration": 0.04424999999997681
        },
        {
          "name": "F#5",
          "midi": 78,
          "time": 289.3950000000014,
          "velocity": 0.7874015748031497,
          "duration": 0.04424999999997681
        },
        {
          "name": "D#6",
          "midi": 87,
          "time": 289.3950000000014,
          "velocity": 0.7874015748031497,
          "duration": 0.35178750000000036
        },
        {
          "name": "F#6",
          "midi": 90,
          "time": 289.3950000000014,
          "velocity": 0.7874015748031497,
          "duration": 0.35178750000000036
        },
        {
          "name": "D#7",
          "midi": 99,
          "time": 289.3950000000014,
          "velocity": 0.7874015748031497,
          "duration": 0.35178750000000036
        },
        {
          "name": "F#7",
          "midi": 102,
          "time": 289.3950000000014,
          "velocity": 0.7874015748031497,
          "duration": 0.35178750000000036
        },
        {
          "name": "C4",
          "midi": 60,
          "time": 289.7490000000014,
          "velocity": 0.7874015748031497,
          "duration": 0.04424999999997681
        },
        {
          "name": "F#4",
          "midi": 66,
          "time": 289.7490000000014,
          "velocity": 0.7874015748031497,
          "duration": 0.04424999999997681
        },
        {
          "name": "C5",
          "midi": 72,
          "time": 289.7490000000014,
          "velocity": 0.7874015748031497,
          "duration": 0.04424999999997681
        },
        {
          "name": "F#5",
          "midi": 78,
          "time": 289.7490000000014,
          "velocity": 0.7874015748031497,
          "duration": 0.04424999999997681
        },
        {
          "name": "C6",
          "midi": 84,
          "time": 289.7490000000014,
          "velocity": 0.7874015748031497,
          "duration": 0.04424999999997681
        },
        {
          "name": "F#6",
          "midi": 90,
          "time": 289.7490000000014,
          "velocity": 0.7874015748031497,
          "duration": 0.04424999999997681
        },
        {
          "name": "C7",
          "midi": 96,
          "time": 289.7490000000014,
          "velocity": 0.7874015748031497,
          "duration": 0.04424999999997681
        },
        {
          "name": "F#7",
          "midi": 102,
          "time": 289.7490000000014,
          "velocity": 0.7874015748031497,
          "duration": 0.04424999999997681
        },
        {
          "name": "C5",
          "midi": 72,
          "time": 289.92600000000135,
          "velocity": 0.7874015748031497,
          "duration": 0.04351250000001983
        },
        {
          "name": "F#5",
          "midi": 78,
          "time": 289.92600000000135,
          "velocity": 0.7874015748031497,
          "duration": 0.04351250000001983
        },
        {
          "name": "C6",
          "midi": 84,
          "time": 289.92600000000135,
          "velocity": 0.7874015748031497,
          "duration": 0.353262500000028
        },
        {
          "name": "F#6",
          "midi": 90,
          "time": 289.92600000000135,
          "velocity": 0.7874015748031497,
          "duration": 0.353262500000028
        },
        {
          "name": "C7",
          "midi": 96,
          "time": 289.92600000000135,
          "velocity": 0.7874015748031497,
          "duration": 0.35178750000000036
        },
        {
          "name": "F#7",
          "midi": 102,
          "time": 289.92600000000135,
          "velocity": 0.7874015748031497,
          "duration": 0.35178750000000036
        },
        {
          "name": "C7",
          "midi": 96,
          "time": 290.2800000000014,
          "velocity": 0.7874015748031497,
          "duration": 0.04424999999997681
        },
        {
          "name": "F#7",
          "midi": 102,
          "time": 290.2800000000014,
          "velocity": 0.7874015748031497,
          "duration": 0.04424999999997681
        },
        {
          "name": "D4",
          "midi": 62,
          "time": 290.45700000000136,
          "velocity": 0.7874015748031497,
          "duration": 7.256262499999991
        },
        {
          "name": "F#4",
          "midi": 66,
          "time": 290.45700000000136,
          "velocity": 0.7874015748031497,
          "duration": 7.256262499999991
        },
        {
          "name": "D5",
          "midi": 74,
          "time": 290.45700000000136,
          "velocity": 0.7874015748031497,
          "duration": 7.256262499999991
        },
        {
          "name": "D#5",
          "midi": 75,
          "time": 290.45700000000136,
          "velocity": 0.7874015748031497,
          "duration": 7.256262499999991
        },
        {
          "name": "F#5",
          "midi": 78,
          "time": 290.45700000000136,
          "velocity": 0.7874015748031497,
          "duration": 7.256262499999991
        },
        {
          "name": "D6",
          "midi": 86,
          "time": 290.45700000000136,
          "velocity": 0.7874015748031497,
          "duration": 7.256262499999991
        },
        {
          "name": "E6",
          "midi": 88,
          "time": 290.45700000000136,
          "velocity": 0.7874015748031497,
          "duration": 7.256262499999991
        },
        {
          "name": "F#6",
          "midi": 90,
          "time": 290.45700000000136,
          "velocity": 0.7874015748031497,
          "duration": 7.256262499999991
        },
        {
          "name": "D7",
          "midi": 98,
          "time": 290.45700000000136,
          "velocity": 0.7874015748031497,
          "duration": 7.256262499999991
        },
        {
          "name": "D#7",
          "midi": 99,
          "time": 290.45700000000136,
          "velocity": 0.7874015748031497,
          "duration": 7.256262499999991
        },
        {
          "name": "E7",
          "midi": 100,
          "time": 290.45700000000136,
          "velocity": 0.7874015748031497,
          "duration": 7.256262499999991
        },
        {
          "name": "F#7",
          "midi": 102,
          "time": 290.45700000000136,
          "velocity": 0.7874015748031497,
          "duration": 7.256262499999991
        }
      ],
      "controlChanges": {},
      "id": 2,
      "name": "PART GUITAR",
      "channelNumber": 0,
      "isPercussion": false
    },
    {
      "startTime": 2.8320000000000003,
      "duration": 292.49176249999954,
      "length": 3173,
      "notes": [
        {
          "name": "C4",
          "midi": 60,
          "time": 2.8320000000000003,
          "velocity": 0.7874015748031497,
          "duration": 11.3257875
        },
        {
          "name": "F#4",
          "midi": 66,
          "time": 2.8320000000000003,
          "velocity": 0.7874015748031497,
          "duration": 11.3257875
        },
        {
          "name": "C5",
          "midi": 72,
          "time": 2.8320000000000003,
          "velocity": 0.7874015748031497,
          "duration": 11.3257875
        },
        {
          "name": "C6",
          "midi": 84,
          "time": 2.8320000000000003,
          "velocity": 0.7874015748031497,
          "duration": 11.3257875
        },
        {
          "name": "C7",
          "midi": 96,
          "time": 2.8320000000000003,
          "velocity": 0.7874015748031497,
          "duration": 11.3257875
        },
        {
          "name": "C4",
          "midi": 60,
          "time": 14.160000000000002,
          "velocity": 0.7874015748031497,
          "duration": 0.04351250000000029
        },
        {
          "name": "F#4",
          "midi": 66,
          "time": 14.160000000000002,
          "velocity": 0.7874015748031497,
          "duration": 0.04351250000000029
        },
        {
          "name": "C5",
          "midi": 72,
          "time": 14.160000000000002,
          "velocity": 0.7874015748031497,
          "duration": 0.04351250000000029
        },
        {
          "name": "C6",
          "midi": 84,
          "time": 14.160000000000002,
          "velocity": 0.7874015748031497,
          "duration": 0.04351250000000029
        },
        {
          "name": "C7",
          "midi": 96,
          "time": 14.160000000000002,
          "velocity": 0.7874015748031497,
          "duration": 0.04351250000000029
        },
        {
          "name": "C5",
          "midi": 72,
          "time": 14.336262500000002,
          "velocity": 0.7874015748031497,
          "duration": 0.04351250000000029
        },
        {
          "name": "C6",
          "midi": 84,
          "time": 14.336262500000002,
          "velocity": 0.7874015748031497,
          "duration": 0.35178750000000036
        },
        {
          "name": "C7",
          "midi": 96,
          "time": 14.336262500000002,
          "velocity": 0.7874015748031497,
          "duration": 0.35178750000000036
        },
        {
          "name": "C6",
          "midi": 84,
          "time": 14.690262500000003,
          "velocity": 0.7874015748031497,
          "duration": 0.04351250000000029
        },
        {
          "name": "C7",
          "midi": 96,
          "time": 14.690262500000003,
          "velocity": 0.7874015748031497,
          "duration": 0.04351250000000029
        },
        {
          "name": "C#4",
          "midi": 61,
          "time": 14.868000000000004,
          "velocity": 0.7874015748031497,
          "duration": 2.1217875000000017
        },
        {
          "name": "F#4",
          "midi": 66,
          "time": 14.868000000000004,
          "velocity": 0.7874015748031497,
          "duration": 2.1217875000000017
        },
        {
          "name": "C#5",
          "midi": 73,
          "time": 14.868000000000004,
          "velocity": 0.7874015748031497,
          "duration": 2.1217875000000017
        },
        {
          "name": "F#5",
          "midi": 78,
          "time": 14.868000000000004,
          "velocity": 0.7874015748031497,
          "duration": 2.1217875000000017
        },
        {
          "name": "D6",
          "midi": 86,
          "time": 14.868000000000004,
          "velocity": 0.7874015748031497,
          "duration": 2.1217875000000017
        },
        {
          "name": "F#6",
          "midi": 90,
          "time": 14.868000000000004,
          "velocity": 0.7874015748031497,
          "duration": 2.1217875000000017
        },
        {
          "name": "D7",
          "midi": 98,
          "time": 14.868000000000004,
          "velocity": 0.7874015748031497,
          "duration": 2.1217875000000017
        },
        {
          "name": "F#7",
          "midi": 102,
          "time": 14.868000000000004,
          "velocity": 0.7874015748031497,
          "duration": 2.1217875000000017
        },
        {
          "name": "C4",
          "midi": 60,
          "time": 16.992000000000004,
          "velocity": 0.7874015748031497,
          "duration": 0.04351249999999851
        },
        {
          "name": "F#4",
          "midi": 66,
          "time": 16.992000000000004,
          "velocity": 0.7874015748031497,
          "duration": 0.04351249999999851
        },
        {
          "name": "C5",
          "midi": 72,
          "time": 16.992000000000004,
          "velocity": 0.7874015748031497,
          "duration": 0.04351249999999851
        },
        {
          "name": "C6",
          "midi": 84,
          "time": 16.992000000000004,
          "velocity": 0.7874015748031497,
          "duration": 0.04351249999999851
        },
        {
          "name": "C7",
          "midi": 96,
          "time": 16.992000000000004,
          "velocity": 0.7874015748031497,
          "duration": 0.04351249999999851
        },
        {
          "name": "C5",
          "midi": 72,
          "time": 17.169000000000004,
          "velocity": 0.7874015748031497,
          "duration": 0.04351249999999851
        },
        {
          "name": "C6",
          "midi": 84,
          "time": 17.169000000000004,
          "velocity": 0.7874015748031497,
          "duration": 0.352525
        },
        {
          "name": "C7",
          "midi": 96,
          "time": 17.169000000000004,
          "velocity": 0.7874015748031497,
          "duration": 0.352525
        },
        {
          "name": "C6",
          "midi": 84,
          "time": 17.523737500000003,
          "velocity": 0.7874015748031497,
          "duration": 0.0427749999999989
        },
        {
          "name": "C7",
          "midi": 96,
          "time": 17.523737500000003,
          "velocity": 0.7874015748031497,
          "duration": 0.0427749999999989
        },
        {
          "name": "C4",
          "midi": 60,
          "time": 17.700000000000003,
          "velocity": 0.7874015748031497,
          "duration": 2.1217875
        },
        {
          "name": "F#4",
          "midi": 66,
          "time": 17.700000000000003,
          "velocity": 0.7874015748031497,
          "duration": 2.1217875
        },
        {
          "name": "C5",
          "midi": 72,
          "time": 17.700000000000003,
          "velocity": 0.7874015748031497,
          "duration": 2.1217875
        },
        {
          "name": "F#5",
          "midi": 78,
          "time": 17.700000000000003,
          "velocity": 0.7874015748031497,
          "duration": 2.1217875
        },
        {
          "name": "C#6",
          "midi": 85,
          "time": 17.700000000000003,
          "velocity": 0.7874015748031497,
          "duration": 2.1217875
        },
        {
          "name": "F#6",
          "midi": 90,
          "time": 17.700000000000003,
          "velocity": 0.7874015748031497,
          "duration": 2.1217875
        },
        {
          "name": "C#7",
          "midi": 97,
          "time": 17.700000000000003,
          "velocity": 0.7874015748031497,
          "duration": 2.1217875
        },
        {
          "name": "F#7",
          "midi": 102,
          "time": 17.700000000000003,
          "velocity": 0.7874015748031497,
          "duration": 2.1217875
        },
        {
          "name": "G#8",
          "midi": 116,
          "time": 19.824,
          "velocity": 0.7874015748031497,
          "duration": 5.663262499999991
        },
        {
          "name": "C4",
          "midi": 60,
          "time": 19.824,
          "velocity": 0.7874015748031497,
          "duration": 0.04351249999999851
        },
        {
          "name": "F#4",
          "midi": 66,
          "time": 19.824,
          "velocity": 0.7874015748031497,
          "duration": 0.04351249999999851
        },
        {
          "name": "C5",
          "midi": 72,
          "time": 19.824,
          "velocity": 0.7874015748031497,
          "duration": 0.04351249999999851
        },
        {
          "name": "C6",
          "midi": 84,
          "time": 19.824,
          "velocity": 0.7874015748031497,
          "duration": 0.04351249999999851
        },
        {
          "name": "C7",
          "midi": 96,
          "time": 19.824,
          "velocity": 0.7874015748031497,
          "duration": 0.04351249999999851
        },
        {
          "name": "C5",
          "midi": 72,
          "time": 20.001,
          "velocity": 0.7874015748031497,
          "duration": 0.04351249999999851
        },
        {
          "name": "C6",
          "midi": 84,
          "time": 20.001,
          "velocity": 0.7874015748031497,
          "duration": 0.3517874999999968
        },
        {
          "name": "C7",
          "midi": 96,
          "time": 20.001,
          "velocity": 0.7874015748031497,
          "duration": 0.3517874999999968
        },
        {
          "name": "C6",
          "midi": 84,
          "time": 20.354262499999997,
          "velocity": 0.7874015748031497,
          "duration": 0.04351249999999851
        },
        {
          "name": "C7",
          "midi": 96,
          "time": 20.354262499999997,
          "velocity": 0.7874015748031497,
          "duration": 0.04351249999999851
        },
        {
          "name": "C#4",
          "midi": 61,
          "time": 20.531999999999996,
          "velocity": 0.7874015748031497,
          "duration": 2.1217875
        },
        {
          "name": "F#4",
          "midi": 66,
          "time": 20.531999999999996,
          "velocity": 0.7874015748031497,
          "duration": 2.1217875
        },
        {
          "name": "D5",
          "midi": 74,
          "time": 20.531999999999996,
          "velocity": 0.7874015748031497,
          "duration": 2.1217875
        },
        {
          "name": "F#5",
          "midi": 78,
          "time": 20.531999999999996,
          "velocity": 0.7874015748031497,
          "duration": 2.1217875
        },
        {
          "name": "D#6",
          "midi": 87,
          "time": 20.531999999999996,
          "velocity": 0.7874015748031497,
          "duration": 2.1217875
        },
        {
          "name": "F#6",
          "midi": 90,
          "time": 20.531999999999996,
          "velocity": 0.7874015748031497,
          "duration": 2.1217875
        },
        {
          "name": "D#7",
          "midi": 99,
          "time": 20.531999999999996,
          "velocity": 0.7874015748031497,
          "duration": 2.1217875
        },
        {
          "name": "F#7",
          "midi": 102,
          "time": 20.531999999999996,
          "velocity": 0.7874015748031497,
          "duration": 2.1217875
        },
        {
          "name": "C4",
          "midi": 60,
          "time": 22.655999999999995,
          "velocity": 0.7874015748031497,
          "duration": 0.04351249999999851
        },
        {
          "name": "F#4",
          "midi": 66,
          "time": 22.655999999999995,
          "velocity": 0.7874015748031497,
          "duration": 0.04351249999999851
        },
        {
          "name": "C5",
          "midi": 72,
          "time": 22.655999999999995,
          "velocity": 0.7874015748031497,
          "duration": 0.04351249999999851
        },
        {
          "name": "C6",
          "midi": 84,
          "time": 22.655999999999995,
          "velocity": 0.7874015748031497,
          "duration": 0.04351249999999851
        },
        {
          "name": "C7",
          "midi": 96,
          "time": 22.655999999999995,
          "velocity": 0.7874015748031497,
          "duration": 0.04351249999999851
        },
        {
          "name": "C5",
          "midi": 72,
          "time": 22.832262499999995,
          "velocity": 0.7874015748031497,
          "duration": 0.04351249999999851
        },
        {
          "name": "C6",
          "midi": 84,
          "time": 22.832262499999995,
          "velocity": 0.7874015748031497,
          "duration": 0.352525
        },
        {
          "name": "C7",
          "midi": 96,
          "time": 22.832262499999995,
          "velocity": 0.7874015748031497,
          "duration": 0.352525
        },
        {
          "name": "C6",
          "midi": 84,
          "time": 23.186262499999994,
          "velocity": 0.7874015748031497,
          "duration": 0.04351249999999851
        },
        {
          "name": "C7",
          "midi": 96,
          "time": 23.186262499999994,
          "velocity": 0.7874015748031497,
          "duration": 0.04351249999999851
        },
        {
          "name": "D4",
          "midi": 62,
          "time": 23.363999999999994,
          "velocity": 0.7874015748031497,
          "duration": 2.1217875
        },
        {
          "name": "F#4",
          "midi": 66,
          "time": 23.363999999999994,
          "velocity": 0.7874015748031497,
          "duration": 2.1217875
        },
        {
          "name": "D#5",
          "midi": 75,
          "time": 23.363999999999994,
          "velocity": 0.7874015748031497,
          "duration": 2.1217875
        },
        {
          "name": "F#5",
          "midi": 78,
          "time": 23.363999999999994,
          "velocity": 0.7874015748031497,
          "duration": 2.1217875
        },
        {
          "name": "E6",
          "midi": 88,
          "time": 23.363999999999994,
          "velocity": 0.7874015748031497,
          "duration": 2.1217875
        },
        {
          "name": "F#6",
          "midi": 90,
          "time": 23.363999999999994,
          "velocity": 0.7874015748031497,
          "duration": 2.1217875
        },
        {
          "name": "E7",
          "midi": 100,
          "time": 23.363999999999994,
          "velocity": 0.7874015748031497,
          "duration": 2.1217875
        },
        {
          "name": "F#7",
          "midi": 102,
          "time": 23.363999999999994,
          "velocity": 0.7874015748031497,
          "duration": 2.1217875
        },
        {
          "name": "C4",
          "midi": 60,
          "time": 25.487999999999992,
          "velocity": 0.7874015748031497,
          "duration": 0.04425000000000168
        },
        {
          "name": "F#4",
          "midi": 66,
          "time": 25.487999999999992,
          "velocity": 0.7874015748031497,
          "duration": 0.04425000000000168
        },
        {
          "name": "C5",
          "midi": 72,
          "time": 25.487999999999992,
          "velocity": 0.7874015748031497,
          "duration": 0.04425000000000168
        },
        {
          "name": "C6",
          "midi": 84,
          "time": 25.487999999999992,
          "velocity": 0.7874015748031497,
          "duration": 0.04425000000000168
        },
        {
          "name": "C7",
          "midi": 96,
          "time": 25.487999999999992,
          "velocity": 0.7874015748031497,
          "duration": 0.04425000000000168
        },
        {
          "name": "C5",
          "midi": 72,
          "time": 25.664999999999996,
          "velocity": 0.7874015748031497,
          "duration": 0.04425000000000168
        },
        {
          "name": "C6",
          "midi": 84,
          "time": 25.664999999999996,
          "velocity": 0.7874015748031497,
          "duration": 0.04425000000000168
        },
        {
          "name": "C7",
          "midi": 96,
          "time": 25.664999999999996,
          "velocity": 0.7874015748031497,
          "duration": 0.04425000000000168
        },
        {
          "name": "C6",
          "midi": 84,
          "time": 26.0182625,
          "velocity": 0.7874015748031497,
          "duration": 0.04425000000000168
        },
        {
          "name": "C7",
          "midi": 96,
          "time": 26.0182625,
          "velocity": 0.7874015748031497,
          "duration": 0.04425000000000168
        },
        {
          "name": "C#4",
          "midi": 61,
          "time": 26.196,
          "velocity": 0.7874015748031497,
          "duration": 2.1217875
        },
        {
          "name": "F#4",
          "midi": 66,
          "time": 26.196,
          "velocity": 0.7874015748031497,
          "duration": 2.1217875
        },
        {
          "name": "C#5",
          "midi": 73,
          "time": 26.196,
          "velocity": 0.7874015748031497,
          "duration": 2.1217875
        },
        {
          "name": "F#5",
          "midi": 78,
          "time": 26.196,
          "velocity": 0.7874015748031497,
          "duration": 2.1217875
        },
        {
          "name": "D6",
          "midi": 86,
          "time": 26.196,
          "velocity": 0.7874015748031497,
          "duration": 2.1217875
        },
        {
          "name": "F#6",
          "midi": 90,
          "time": 26.196,
          "velocity": 0.7874015748031497,
          "duration": 2.1217875
        },
        {
          "name": "D7",
          "midi": 98,
          "time": 26.196,
          "velocity": 0.7874015748031497,
          "duration": 2.1217875
        },
        {
          "name": "F#7",
          "midi": 102,
          "time": 26.196,
          "velocity": 0.7874015748031497,
          "duration": 2.1217875
        },
        {
          "name": "C4",
          "midi": 60,
          "time": 28.32,
          "velocity": 0.7874015748031497,
          "duration": 0.04351249999999851
        },
        {
          "name": "F#4",
          "midi": 66,
          "time": 28.32,
          "velocity": 0.7874015748031497,
          "duration": 0.04351249999999851
        },
        {
          "name": "C5",
          "midi": 72,
          "time": 28.32,
          "velocity": 0.7874015748031497,
          "duration": 0.04351249999999851
        },
        {
          "name": "C6",
          "midi": 84,
          "time": 28.32,
          "velocity": 0.7874015748031497,
          "duration": 0.04351249999999851
        },
        {
          "name": "C7",
          "midi": 96,
          "time": 28.32,
          "velocity": 0.7874015748031497,
          "duration": 0.04351249999999851
        },
        {
          "name": "C5",
          "midi": 72,
          "time": 28.4962625,
          "velocity": 0.7874015748031497,
          "duration": 0.04351249999999851
        },
        {
          "name": "C6",
          "midi": 84,
          "time": 28.4962625,
          "velocity": 0.7874015748031497,
          "duration": 0.04351249999999851
        },
        {
          "name": "C7",
          "midi": 96,
          "time": 28.4962625,
          "velocity": 0.7874015748031497,
          "duration": 0.04351249999999851
        },
        {
          "name": "C6",
          "midi": 84,
          "time": 28.851,
          "velocity": 0.7874015748031497,
          "duration": 0.04351249999999851
        },
        {
          "name": "C7",
          "midi": 96,
          "time": 28.851,
          "velocity": 0.7874015748031497,
          "duration": 0.04351249999999851
        },
        {
          "name": "C4",
          "midi": 60,
          "time": 29.028,
          "velocity": 0.7874015748031497,
          "duration": 2.1217875
        },
        {
          "name": "F#4",
          "midi": 66,
          "time": 29.028,
          "velocity": 0.7874015748031497,
          "duration": 2.1217875
        },
        {
          "name": "C5",
          "midi": 72,
          "time": 29.028,
          "velocity": 0.7874015748031497,
          "duration": 2.1217875
        },
        {
          "name": "F#5",
          "midi": 78,
          "time": 29.028,
          "velocity": 0.7874015748031497,
          "duration": 2.1217875
        },
        {
          "name": "C#6",
          "midi": 85,
          "time": 29.028,
          "velocity": 0.7874015748031497,
          "duration": 2.1217875
        },
        {
          "name": "F#6",
          "midi": 90,
          "time": 29.028,
          "velocity": 0.7874015748031497,
          "duration": 2.1217875
        },
        {
          "name": "C#7",
          "midi": 97,
          "time": 29.028,
          "velocity": 0.7874015748031497,
          "duration": 2.1217875
        },
        {
          "name": "F#7",
          "midi": 102,
          "time": 29.028,
          "velocity": 0.7874015748031497,
          "duration": 2.1217875
        },
        {
          "name": "C4",
          "midi": 60,
          "time": 31.151999999999997,
          "velocity": 0.7874015748031497,
          "duration": 0.04351249999999851
        },
        {
          "name": "F#4",
          "midi": 66,
          "time": 31.151999999999997,
          "velocity": 0.7874015748031497,
          "duration": 0.04351249999999851
        },
        {
          "name": "C5",
          "midi": 72,
          "time": 31.151999999999997,
          "velocity": 0.7874015748031497,
          "duration": 0.04351249999999851
        },
        {
          "name": "C6",
          "midi": 84,
          "time": 31.151999999999997,
          "velocity": 0.7874015748031497,
          "duration": 0.04351249999999851
        },
        {
          "name": "C7",
          "midi": 96,
          "time": 31.151999999999997,
          "velocity": 0.7874015748031497,
          "duration": 0.04351249999999851
        },
        {
          "name": "C5",
          "midi": 72,
          "time": 31.328999999999997,
          "velocity": 0.7874015748031497,
          "duration": 0.04351249999999851
        },
        {
          "name": "C6",
          "midi": 84,
          "time": 31.328999999999997,
          "velocity": 0.7874015748031497,
          "duration": 0.3517874999999968
        },
        {
          "name": "C7",
          "midi": 96,
          "time": 31.328999999999997,
          "velocity": 0.7874015748031497,
          "duration": 0.3517874999999968
        },
        {
          "name": "C6",
          "midi": 84,
          "time": 31.682999999999993,
          "velocity": 0.7874015748031497,
          "duration": 0.04351249999999851
        },
        {
          "name": "C7",
          "midi": 96,
          "time": 31.682999999999993,
          "velocity": 0.7874015748031497,
          "duration": 0.04351249999999851
        },
        {
          "name": "C#4",
          "midi": 61,
          "time": 31.859999999999992,
          "velocity": 0.7874015748031497,
          "duration": 2.1217875000000035
        },
        {
          "name": "F#4",
          "midi": 66,
          "time": 31.859999999999992,
          "velocity": 0.7874015748031497,
          "duration": 2.1217875000000035
        },
        {
          "name": "D5",
          "midi": 74,
          "time": 31.859999999999992,
          "velocity": 0.7874015748031497,
          "duration": 2.1217875000000035
        },
        {
          "name": "F#5",
          "midi": 78,
          "time": 31.859999999999992,
          "velocity": 0.7874015748031497,
          "duration": 2.1217875000000035
        },
        {
          "name": "D#6",
          "midi": 87,
          "time": 31.859999999999992,
          "velocity": 0.7874015748031497,
          "duration": 2.1217875000000035
        },
        {
          "name": "F#6",
          "midi": 90,
          "time": 31.859999999999992,
          "velocity": 0.7874015748031497,
          "duration": 2.1217875000000035
        },
        {
          "name": "D#7",
          "midi": 99,
          "time": 31.859999999999992,
          "velocity": 0.7874015748031497,
          "duration": 2.1217875000000035
        },
        {
          "name": "F#7",
          "midi": 102,
          "time": 31.859999999999992,
          "velocity": 0.7874015748031497,
          "duration": 2.1217875000000035
        },
        {
          "name": "C4",
          "midi": 60,
          "time": 33.983999999999995,
          "velocity": 0.7874015748031497,
          "duration": 0.04351249999999851
        },
        {
          "name": "F#4",
          "midi": 66,
          "time": 33.983999999999995,
          "velocity": 0.7874015748031497,
          "duration": 0.04351249999999851
        },
        {
          "name": "C5",
          "midi": 72,
          "time": 33.983999999999995,
          "velocity": 0.7874015748031497,
          "duration": 0.04351249999999851
        },
        {
          "name": "C6",
          "midi": 84,
          "time": 33.983999999999995,
          "velocity": 0.7874015748031497,
          "duration": 0.04351249999999851
        },
        {
          "name": "C7",
          "midi": 96,
          "time": 33.983999999999995,
          "velocity": 0.7874015748031497,
          "duration": 0.04351249999999851
        },
        {
          "name": "C5",
          "midi": 72,
          "time": 34.160999999999994,
          "velocity": 0.7874015748031497,
          "duration": 0.04351249999999851
        },
        {
          "name": "C6",
          "midi": 84,
          "time": 34.160999999999994,
          "velocity": 0.7874015748031497,
          "duration": 0.04351249999999851
        },
        {
          "name": "C7",
          "midi": 96,
          "time": 34.160999999999994,
          "velocity": 0.7874015748031497,
          "duration": 0.04351249999999851
        },
        {
          "name": "C6",
          "midi": 84,
          "time": 34.51573749999999,
          "velocity": 0.7874015748031497,
          "duration": 0.0427749999999989
        },
        {
          "name": "C7",
          "midi": 96,
          "time": 34.51573749999999,
          "velocity": 0.7874015748031497,
          "duration": 0.0427749999999989
        },
        {
          "name": "D4",
          "midi": 62,
          "time": 34.69199999999999,
          "velocity": 0.7874015748031497,
          "duration": 2.1217875000000035
        },
        {
          "name": "F#4",
          "midi": 66,
          "time": 34.69199999999999,
          "velocity": 0.7874015748031497,
          "duration": 2.1217875000000035
        },
        {
          "name": "D#5",
          "midi": 75,
          "time": 34.69199999999999,
          "velocity": 0.7874015748031497,
          "duration": 2.1217875000000035
        },
        {
          "name": "F#5",
          "midi": 78,
          "time": 34.69199999999999,
          "velocity": 0.7874015748031497,
          "duration": 2.1217875000000035
        },
        {
          "name": "E6",
          "midi": 88,
          "time": 34.69199999999999,
          "velocity": 0.7874015748031497,
          "duration": 2.1217875000000035
        },
        {
          "name": "F#6",
          "midi": 90,
          "time": 34.69199999999999,
          "velocity": 0.7874015748031497,
          "duration": 2.1217875000000035
        },
        {
          "name": "E7",
          "midi": 100,
          "time": 34.69199999999999,
          "velocity": 0.7874015748031497,
          "duration": 2.1217875000000035
        },
        {
          "name": "F#7",
          "midi": 102,
          "time": 34.69199999999999,
          "velocity": 0.7874015748031497,
          "duration": 2.1217875000000035
        },
        {
          "name": "D4",
          "midi": 62,
          "time": 36.815999999999995,
          "velocity": 0.7874015748031497,
          "duration": 0.5287875
        },
        {
          "name": "F#4",
          "midi": 66,
          "time": 36.815999999999995,
          "velocity": 0.7874015748031497,
          "duration": 0.5287875
        },
        {
          "name": "D#5",
          "midi": 75,
          "time": 36.815999999999995,
          "velocity": 0.7874015748031497,
          "duration": 0.5287875
        },
        {
          "name": "F#5",
          "midi": 78,
          "time": 36.815999999999995,
          "velocity": 0.7874015748031497,
          "duration": 0.5287875
        },
        {
          "name": "E6",
          "midi": 88,
          "time": 36.815999999999995,
          "velocity": 0.7874015748031497,
          "duration": 0.5287875
        },
        {
          "name": "F#6",
          "midi": 90,
          "time": 36.815999999999995,
          "velocity": 0.7874015748031497,
          "duration": 0.5287875
        },
        {
          "name": "E7",
          "midi": 100,
          "time": 36.815999999999995,
          "velocity": 0.7874015748031497,
          "duration": 0.5287875
        },
        {
          "name": "F#7",
          "midi": 102,
          "time": 36.815999999999995,
          "velocity": 0.7874015748031497,
          "duration": 0.5287875
        },
        {
          "name": "C#4",
          "midi": 61,
          "time": 37.346999999999994,
          "velocity": 0.7874015748031497,
          "duration": 0.5287875
        },
        {
          "name": "F#4",
          "midi": 66,
          "time": 37.346999999999994,
          "velocity": 0.7874015748031497,
          "duration": 0.5287875
        },
        {
          "name": "D5",
          "midi": 74,
          "time": 37.346999999999994,
          "velocity": 0.7874015748031497,
          "duration": 0.5287875
        },
        {
          "name": "F#5",
          "midi": 78,
          "time": 37.346999999999994,
          "velocity": 0.7874015748031497,
          "duration": 0.5287875
        },
        {
          "name": "D#6",
          "midi": 87,
          "time": 37.346999999999994,
          "velocity": 0.7874015748031497,
          "duration": 0.5287875
        },
        {
          "name": "F#6",
          "midi": 90,
          "time": 37.346999999999994,
          "velocity": 0.7874015748031497,
          "duration": 0.5287875
        },
        {
          "name": "D#7",
          "midi": 99,
          "time": 37.346999999999994,
          "velocity": 0.7874015748031497,
          "duration": 0.5287875
        },
        {
          "name": "F#7",
          "midi": 102,
          "time": 37.346999999999994,
          "velocity": 0.7874015748031497,
          "duration": 0.5287875
        },
        {
          "name": "C4",
          "midi": 60,
          "time": 37.87799999999999,
          "velocity": 0.7874015748031497,
          "duration": 0.5287875
        },
        {
          "name": "F#4",
          "midi": 66,
          "time": 37.87799999999999,
          "velocity": 0.7874015748031497,
          "duration": 0.5287875
        },
        {
          "name": "C#5",
          "midi": 73,
          "time": 37.87799999999999,
          "velocity": 0.7874015748031497,
          "duration": 0.5287875
        },
        {
          "name": "F#5",
          "midi": 78,
          "time": 37.87799999999999,
          "velocity": 0.7874015748031497,
          "duration": 0.5287875
        },
        {
          "name": "D6",
          "midi": 86,
          "time": 37.87799999999999,
          "velocity": 0.7874015748031497,
          "duration": 0.5287875
        },
        {
          "name": "F#6",
          "midi": 90,
          "time": 37.87799999999999,
          "velocity": 0.7874015748031497,
          "duration": 0.5287875
        },
        {
          "name": "D7",
          "midi": 98,
          "time": 37.87799999999999,
          "velocity": 0.7874015748031497,
          "duration": 0.5287875
        },
        {
          "name": "F#7",
          "midi": 102,
          "time": 37.87799999999999,
          "velocity": 0.7874015748031497,
          "duration": 0.5287875
        },
        {
          "name": "D4",
          "midi": 62,
          "time": 38.40899999999999,
          "velocity": 0.7874015748031497,
          "duration": 0.5287875
        },
        {
          "name": "F#4",
          "midi": 66,
          "time": 38.40899999999999,
          "velocity": 0.7874015748031497,
          "duration": 0.5287875
        },
        {
          "name": "D#5",
          "midi": 75,
          "time": 38.40899999999999,
          "velocity": 0.7874015748031497,
          "duration": 0.5287875
        },
        {
          "name": "F#5",
          "midi": 78,
          "time": 38.40899999999999,
          "velocity": 0.7874015748031497,
          "duration": 0.5287875
        },
        {
          "name": "E6",
          "midi": 88,
          "time": 38.40899999999999,
          "velocity": 0.7874015748031497,
          "duration": 0.5287875
        },
        {
          "name": "F#6",
          "midi": 90,
          "time": 38.40899999999999,
          "velocity": 0.7874015748031497,
          "duration": 0.5287875
        },
        {
          "name": "E7",
          "midi": 100,
          "time": 38.40899999999999,
          "velocity": 0.7874015748031497,
          "duration": 0.5287875
        },
        {
          "name": "F#7",
          "midi": 102,
          "time": 38.40899999999999,
          "velocity": 0.7874015748031497,
          "duration": 0.5287875
        },
        {
          "name": "C#4",
          "midi": 61,
          "time": 38.93999999999999,
          "velocity": 0.7874015748031497,
          "duration": 0.044249999999998124
        },
        {
          "name": "F#4",
          "midi": 66,
          "time": 38.93999999999999,
          "velocity": 0.7874015748031497,
          "duration": 0.044249999999998124
        },
        {
          "name": "D5",
          "midi": 74,
          "time": 38.93999999999999,
          "velocity": 0.7874015748031497,
          "duration": 0.044249999999998124
        },
        {
          "name": "F#5",
          "midi": 78,
          "time": 38.93999999999999,
          "velocity": 0.7874015748031497,
          "duration": 0.044249999999998124
        },
        {
          "name": "D#6",
          "midi": 87,
          "time": 38.93999999999999,
          "velocity": 0.7874015748031497,
          "duration": 0.35178750000000036
        },
        {
          "name": "F#6",
          "midi": 90,
          "time": 38.93999999999999,
          "velocity": 0.7874015748031497,
          "duration": 0.35178750000000036
        },
        {
          "name": "D#7",
          "midi": 99,
          "time": 38.93999999999999,
          "velocity": 0.7874015748031497,
          "duration": 0.35178750000000036
        },
        {
          "name": "F#7",
          "midi": 102,
          "time": 38.93999999999999,
          "velocity": 0.7874015748031497,
          "duration": 0.35178750000000036
        },
        {
          "name": "C4",
          "midi": 60,
          "time": 39.29399999999999,
          "velocity": 0.7874015748031497,
          "duration": 0.044249999999998124
        },
        {
          "name": "F#4",
          "midi": 66,
          "time": 39.29399999999999,
          "velocity": 0.7874015748031497,
          "duration": 0.044249999999998124
        },
        {
          "name": "C#5",
          "midi": 73,
          "time": 39.29399999999999,
          "velocity": 0.7874015748031497,
          "duration": 0.044249999999998124
        },
        {
          "name": "F#5",
          "midi": 78,
          "time": 39.29399999999999,
          "velocity": 0.7874015748031497,
          "duration": 0.044249999999998124
        },
        {
          "name": "D6",
          "midi": 86,
          "time": 39.29399999999999,
          "velocity": 0.7874015748031497,
          "duration": 0.35178750000000036
        },
        {
          "name": "F#6",
          "midi": 90,
          "time": 39.29399999999999,
          "velocity": 0.7874015748031497,
          "duration": 0.35178750000000036
        },
        {
          "name": "D7",
          "midi": 98,
          "time": 39.29399999999999,
          "velocity": 0.7874015748031497,
          "duration": 0.35178750000000036
        },
        {
          "name": "F#7",
          "midi": 102,
          "time": 39.29399999999999,
          "velocity": 0.7874015748031497,
          "duration": 0.35178750000000036
        },
        {
          "name": "C4",
          "midi": 60,
          "time": 39.64799999999999,
          "velocity": 0.7874015748031497,
          "duration": 0.04351249999999851
        },
        {
          "name": "F#4",
          "midi": 66,
          "time": 39.64799999999999,
          "velocity": 0.7874015748031497,
          "duration": 0.04351249999999851
        },
        {
          "name": "C5",
          "midi": 72,
          "time": 39.64799999999999,
          "velocity": 0.7874015748031497,
          "duration": 0.04351249999999851
        },
        {
          "name": "C6",
          "midi": 84,
          "time": 39.64799999999999,
          "velocity": 0.7874015748031497,
          "duration": 0.04351249999999851
        },
        {
          "name": "C7",
          "midi": 96,
          "time": 39.64799999999999,
          "velocity": 0.7874015748031497,
          "duration": 0.04351249999999851
        },
        {
          "name": "C5",
          "midi": 72,
          "time": 39.82426249999999,
          "velocity": 0.7874015748031497,
          "duration": 0.04351249999999851
        },
        {
          "name": "C6",
          "midi": 84,
          "time": 39.82426249999999,
          "velocity": 0.7874015748031497,
          "duration": 0.04351249999999851
        },
        {
          "name": "C7",
          "midi": 96,
          "time": 39.82426249999999,
          "velocity": 0.7874015748031497,
          "duration": 0.04351249999999851
        },
        {
          "name": "C6",
          "midi": 84,
          "time": 40.17826249999999,
          "velocity": 0.7874015748031497,
          "duration": 0.04351249999999851
        },
        {
          "name": "C7",
          "midi": 96,
          "time": 40.17826249999999,
          "velocity": 0.7874015748031497,
          "duration": 0.04351249999999851
        },
        {
          "name": "C#4",
          "midi": 61,
          "time": 40.35599999999999,
          "velocity": 0.7874015748031497,
          "duration": 0.5287875
        },
        {
          "name": "F#4",
          "midi": 66,
          "time": 40.35599999999999,
          "velocity": 0.7874015748031497,
          "duration": 0.5287875
        },
        {
          "name": "C#5",
          "midi": 73,
          "time": 40.35599999999999,
          "velocity": 0.7874015748031497,
          "duration": 0.5287875
        },
        {
          "name": "F#5",
          "midi": 78,
          "time": 40.35599999999999,
          "velocity": 0.7874015748031497,
          "duration": 0.5287875
        },
        {
          "name": "D6",
          "midi": 86,
          "time": 40.35599999999999,
          "velocity": 0.7874015748031497,
          "duration": 0.5287875
        },
        {
          "name": "F#6",
          "midi": 90,
          "time": 40.35599999999999,
          "velocity": 0.7874015748031497,
          "duration": 0.5287875
        },
        {
          "name": "D7",
          "midi": 98,
          "time": 40.35599999999999,
          "velocity": 0.7874015748031497,
          "duration": 0.5287875
        },
        {
          "name": "F#7",
          "midi": 102,
          "time": 40.35599999999999,
          "velocity": 0.7874015748031497,
          "duration": 0.5287875
        },
        {
          "name": "C4",
          "midi": 60,
          "time": 40.886999999999986,
          "velocity": 0.7874015748031497,
          "duration": 0.04351249999999851
        },
        {
          "name": "F#4",
          "midi": 66,
          "time": 40.886999999999986,
          "velocity": 0.7874015748031497,
          "duration": 0.04351249999999851
        },
        {
          "name": "C5",
          "midi": 72,
          "time": 40.886999999999986,
          "velocity": 0.7874015748031497,
          "duration": 0.04351249999999851
        },
        {
          "name": "C6",
          "midi": 84,
          "time": 40.886999999999986,
          "velocity": 0.7874015748031497,
          "duration": 0.35178750000000036
        },
        {
          "name": "C7",
          "midi": 96,
          "time": 40.886999999999986,
          "velocity": 0.7874015748031497,
          "duration": 0.35178750000000036
        },
        {
          "name": "C4",
          "midi": 60,
          "time": 41.240999999999985,
          "velocity": 0.7874015748031497,
          "duration": 0.044249999999998124
        },
        {
          "name": "F#4",
          "midi": 66,
          "time": 41.240999999999985,
          "velocity": 0.7874015748031497,
          "duration": 0.044249999999998124
        },
        {
          "name": "C5",
          "midi": 72,
          "time": 41.240999999999985,
          "velocity": 0.7874015748031497,
          "duration": 0.044249999999998124
        },
        {
          "name": "C6",
          "midi": 84,
          "time": 41.240999999999985,
          "velocity": 0.7874015748031497,
          "duration": 0.3532624999999996
        },
        {
          "name": "C7",
          "midi": 96,
          "time": 41.240999999999985,
          "velocity": 0.7874015748031497,
          "duration": 0.352525
        },
        {
          "name": "C7",
          "midi": 96,
          "time": 41.595737499999984,
          "velocity": 0.7874015748031497,
          "duration": 0.044249999999998124
        },
        {
          "name": "D4",
          "midi": 62,
          "time": 41.771999999999984,
          "velocity": 0.7874015748031497,
          "duration": 0.044249999999998124
        },
        {
          "name": "F#4",
          "midi": 66,
          "time": 41.771999999999984,
          "velocity": 0.7874015748031497,
          "duration": 0.044249999999998124
        },
        {
          "name": "D5",
          "midi": 74,
          "time": 41.771999999999984,
          "velocity": 0.7874015748031497,
          "duration": 0.044249999999998124
        },
        {
          "name": "F#5",
          "midi": 78,
          "time": 41.771999999999984,
          "velocity": 0.7874015748031497,
          "duration": 0.044249999999998124
        },
        {
          "name": "D#6",
          "midi": 87,
          "time": 41.771999999999984,
          "velocity": 0.7874015748031497,
          "duration": 0.044249999999998124
        },
        {
          "name": "F#6",
          "midi": 90,
          "time": 41.771999999999984,
          "velocity": 0.7874015748031497,
          "duration": 0.044249999999998124
        },
        {
          "name": "D#7",
          "midi": 99,
          "time": 41.771999999999984,
          "velocity": 0.7874015748031497,
          "duration": 0.044249999999998124
        },
        {
          "name": "F#7",
          "midi": 102,
          "time": 41.771999999999984,
          "velocity": 0.7874015748031497,
          "duration": 0.044249999999998124
        },
        {
          "name": "D#5",
          "midi": 75,
          "time": 41.948999999999984,
          "velocity": 0.7874015748031497,
          "duration": 0.044249999999998124
        },
        {
          "name": "F5",
          "midi": 77,
          "time": 41.948999999999984,
          "velocity": 0.7874015748031497,
          "duration": 0.044249999999998124
        },
        {
          "name": "E6",
          "midi": 88,
          "time": 41.948999999999984,
          "velocity": 0.7874015748031497,
          "duration": 0.044249999999998124
        },
        {
          "name": "F6",
          "midi": 89,
          "time": 41.948999999999984,
          "velocity": 0.7874015748031497,
          "duration": 0.044249999999998124
        },
        {
          "name": "E7",
          "midi": 100,
          "time": 41.948999999999984,
          "velocity": 0.7874015748031497,
          "duration": 0.044249999999998124
        },
        {
          "name": "F#7",
          "midi": 102,
          "time": 41.948999999999984,
          "velocity": 0.7874015748031497,
          "duration": 0.044249999999998124
        },
        {
          "name": "C#4",
          "midi": 61,
          "time": 42.12599999999998,
          "velocity": 0.7874015748031497,
          "duration": 0.044249999999998124
        },
        {
          "name": "F4",
          "midi": 65,
          "time": 42.12599999999998,
          "velocity": 0.7874015748031497,
          "duration": 0.044249999999998124
        },
        {
          "name": "D5",
          "midi": 74,
          "time": 42.12599999999998,
          "velocity": 0.7874015748031497,
          "duration": 0.044249999999998124
        },
        {
          "name": "F5",
          "midi": 77,
          "time": 42.12599999999998,
          "velocity": 0.7874015748031497,
          "duration": 0.044249999999998124
        },
        {
          "name": "D#6",
          "midi": 87,
          "time": 42.12599999999998,
          "velocity": 0.7874015748031497,
          "duration": 0.35178750000000036
        },
        {
          "name": "F6",
          "midi": 89,
          "time": 42.12599999999998,
          "velocity": 0.7874015748031497,
          "duration": 0.35178750000000036
        },
        {
          "name": "D#7",
          "midi": 99,
          "time": 42.12599999999998,
          "velocity": 0.7874015748031497,
          "duration": 0.35178750000000036
        },
        {
          "name": "F#7",
          "midi": 102,
          "time": 42.12599999999998,
          "velocity": 0.7874015748031497,
          "duration": 0.35178750000000036
        },
        {
          "name": "C#4",
          "midi": 61,
          "time": 42.47999999999998,
          "velocity": 0.7874015748031497,
          "duration": 0.04351249999999851
        },
        {
          "name": "F#4",
          "midi": 66,
          "time": 42.47999999999998,
          "velocity": 0.7874015748031497,
          "duration": 0.04351249999999851
        },
        {
          "name": "C5",
          "midi": 72,
          "time": 42.47999999999998,
          "velocity": 0.7874015748031497,
          "duration": 0.04351249999999851
        },
        {
          "name": "F#5",
          "midi": 78,
          "time": 42.47999999999998,
          "velocity": 0.7874015748031497,
          "duration": 0.04351249999999851
        },
        {
          "name": "C#6",
          "midi": 85,
          "time": 42.47999999999998,
          "velocity": 0.7874015748031497,
          "duration": 0.04351249999999851
        },
        {
          "name": "F#6",
          "midi": 90,
          "time": 42.47999999999998,
          "velocity": 0.7874015748031497,
          "duration": 0.04351249999999851
        },
        {
          "name": "C#7",
          "midi": 97,
          "time": 42.47999999999998,
          "velocity": 0.7874015748031497,
          "duration": 0.04351249999999851
        },
        {
          "name": "F#7",
          "midi": 102,
          "time": 42.47999999999998,
          "velocity": 0.7874015748031497,
          "duration": 0.04351249999999851
        },
        {
          "name": "C5",
          "midi": 72,
          "time": 42.65699999999998,
          "velocity": 0.7874015748031497,
          "duration": 0.04351249999999851
        },
        {
          "name": "F#5",
          "midi": 78,
          "time": 42.65699999999998,
          "velocity": 0.7874015748031497,
          "duration": 0.04351249999999851
        },
        {
          "name": "C#6",
          "midi": 85,
          "time": 42.65699999999998,
          "velocity": 0.7874015748031497,
          "duration": 0.04351249999999851
        },
        {
          "name": "F#6",
          "midi": 90,
          "time": 42.65699999999998,
          "velocity": 0.7874015748031497,
          "duration": 0.04351249999999851
        },
        {
          "name": "C#7",
          "midi": 97,
          "time": 42.65699999999998,
          "velocity": 0.7874015748031497,
          "duration": 0.04351249999999851
        },
        {
          "name": "F#7",
          "midi": 102,
          "time": 42.65699999999998,
          "velocity": 0.7874015748031497,
          "duration": 0.04351249999999851
        },
        {
          "name": "C#6",
          "midi": 85,
          "time": 43.01173749999998,
          "velocity": 0.7874015748031497,
          "duration": 0.04351249999999851
        },
        {
          "name": "F#6",
          "midi": 90,
          "time": 43.01173749999998,
          "velocity": 0.7874015748031497,
          "duration": 0.04351249999999851
        },
        {
          "name": "C#7",
          "midi": 97,
          "time": 43.01173749999998,
          "velocity": 0.7874015748031497,
          "duration": 0.04351249999999851
        },
        {
          "name": "F#7",
          "midi": 102,
          "time": 43.01173749999998,
          "velocity": 0.7874015748031497,
          "duration": 0.04351249999999851
        },
        {
          "name": "D4",
          "midi": 62,
          "time": 43.18799999999998,
          "velocity": 0.7874015748031497,
          "duration": 0.5287875
        },
        {
          "name": "F#4",
          "midi": 66,
          "time": 43.18799999999998,
          "velocity": 0.7874015748031497,
          "duration": 0.5287875
        },
        {
          "name": "D#5",
          "midi": 75,
          "time": 43.18799999999998,
          "velocity": 0.7874015748031497,
          "duration": 0.5287875
        },
        {
          "name": "F#5",
          "midi": 78,
          "time": 43.18799999999998,
          "velocity": 0.7874015748031497,
          "duration": 0.5287875
        },
        {
          "name": "E6",
          "midi": 88,
          "time": 43.18799999999998,
          "velocity": 0.7874015748031497,
          "duration": 0.5287875
        },
        {
          "name": "F#6",
          "midi": 90,
          "time": 43.18799999999998,
          "velocity": 0.7874015748031497,
          "duration": 0.5287875
        },
        {
          "name": "E7",
          "midi": 100,
          "time": 43.18799999999998,
          "velocity": 0.7874015748031497,
          "duration": 0.5287875
        },
        {
          "name": "F#7",
          "midi": 102,
          "time": 43.18799999999998,
          "velocity": 0.7874015748031497,
          "duration": 0.5287875
        },
        {
          "name": "C#4",
          "midi": 61,
          "time": 43.71826249999998,
          "velocity": 0.7874015748031497,
          "duration": 0.04351249999999851
        },
        {
          "name": "F#4",
          "midi": 66,
          "time": 43.71826249999998,
          "velocity": 0.7874015748031497,
          "duration": 0.04351249999999851
        },
        {
          "name": "C5",
          "midi": 72,
          "time": 43.71826249999998,
          "velocity": 0.7874015748031497,
          "duration": 0.04351249999999851
        },
        {
          "name": "F#5",
          "midi": 78,
          "time": 43.71826249999998,
          "velocity": 0.7874015748031497,
          "duration": 0.04351249999999851
        },
        {
          "name": "C#6",
          "midi": 85,
          "time": 43.71826249999998,
          "velocity": 0.7874015748031497,
          "duration": 0.04351249999999851
        },
        {
          "name": "F#6",
          "midi": 90,
          "time": 43.71826249999998,
          "velocity": 0.7874015748031497,
          "duration": 0.04351249999999851
        },
        {
          "name": "C#7",
          "midi": 97,
          "time": 43.71826249999998,
          "velocity": 0.7874015748031497,
          "duration": 0.04351249999999851
        },
        {
          "name": "F#7",
          "midi": 102,
          "time": 43.71826249999998,
          "velocity": 0.7874015748031497,
          "duration": 0.04351249999999851
        },
        {
          "name": "C#4",
          "midi": 61,
          "time": 44.07299999999998,
          "velocity": 0.7874015748031497,
          "duration": 0.04351249999999851
        },
        {
          "name": "F#4",
          "midi": 66,
          "time": 44.07299999999998,
          "velocity": 0.7874015748031497,
          "duration": 0.04351249999999851
        },
        {
          "name": "C5",
          "midi": 72,
          "time": 44.07299999999998,
          "velocity": 0.7874015748031497,
          "duration": 0.04351249999999851
        },
        {
          "name": "F#5",
          "midi": 78,
          "time": 44.07299999999998,
          "velocity": 0.7874015748031497,
          "duration": 0.04351249999999851
        },
        {
          "name": "C#6",
          "midi": 85,
          "time": 44.07299999999998,
          "velocity": 0.7874015748031497,
          "duration": 0.35178750000000036
        },
        {
          "name": "F#6",
          "midi": 90,
          "time": 44.07299999999998,
          "velocity": 0.7874015748031497,
          "duration": 0.35178750000000036
        },
        {
          "name": "C#7",
          "midi": 97,
          "time": 44.07299999999998,
          "velocity": 0.7874015748031497,
          "duration": 0.35178750000000036
        },
        {
          "name": "F#7",
          "midi": 102,
          "time": 44.07299999999998,
          "velocity": 0.7874015748031497,
          "duration": 0.35178750000000036
        },
        {
          "name": "C#6",
          "midi": 85,
          "time": 44.42626249999998,
          "velocity": 0.7874015748031497,
          "duration": 0.04351249999999851
        },
        {
          "name": "F#6",
          "midi": 90,
          "time": 44.42626249999998,
          "velocity": 0.7874015748031497,
          "duration": 0.04351249999999851
        },
        {
          "name": "C#7",
          "midi": 97,
          "time": 44.42626249999998,
          "velocity": 0.7874015748031497,
          "duration": 0.04351249999999851
        },
        {
          "name": "F#7",
          "midi": 102,
          "time": 44.42626249999998,
          "velocity": 0.7874015748031497,
          "duration": 0.04351249999999851
        },
        {
          "name": "D4",
          "midi": 62,
          "time": 44.60399999999998,
          "velocity": 0.7874015748031497,
          "duration": 0.04351249999999851
        },
        {
          "name": "F#4",
          "midi": 66,
          "time": 44.60399999999998,
          "velocity": 0.7874015748031497,
          "duration": 0.04351249999999851
        },
        {
          "name": "D#5",
          "midi": 75,
          "time": 44.60399999999998,
          "velocity": 0.7874015748031497,
          "duration": 0.04351249999999851
        },
        {
          "name": "F#5",
          "midi": 78,
          "time": 44.60399999999998,
          "velocity": 0.7874015748031497,
          "duration": 0.04351249999999851
        },
        {
          "name": "E6",
          "midi": 88,
          "time": 44.60399999999998,
          "velocity": 0.7874015748031497,
          "duration": 0.04351249999999851
        },
        {
          "name": "F#6",
          "midi": 90,
          "time": 44.60399999999998,
          "velocity": 0.7874015748031497,
          "duration": 0.04351249999999851
        },
        {
          "name": "E7",
          "midi": 100,
          "time": 44.60399999999998,
          "velocity": 0.7874015748031497,
          "duration": 0.04351249999999851
        },
        {
          "name": "F#7",
          "midi": 102,
          "time": 44.60399999999998,
          "velocity": 0.7874015748031497,
          "duration": 0.04351249999999851
        },
        {
          "name": "C#7",
          "midi": 97,
          "time": 44.78099999999998,
          "velocity": 0.7874015748031497,
          "duration": 0.04351249999999851
        },
        {
          "name": "F#7",
          "midi": 102,
          "time": 44.78099999999998,
          "velocity": 0.7874015748031497,
          "duration": 0.04351249999999851
        },
        {
          "name": "D4",
          "midi": 62,
          "time": 44.95799999999998,
          "velocity": 0.7874015748031497,
          "duration": 0.04351249999999851
        },
        {
          "name": "F#4",
          "midi": 66,
          "time": 44.95799999999998,
          "velocity": 0.7874015748031497,
          "duration": 0.04351249999999851
        },
        {
          "name": "D#5",
          "midi": 75,
          "time": 44.95799999999998,
          "velocity": 0.7874015748031497,
          "duration": 0.04351249999999851
        },
        {
          "name": "F#5",
          "midi": 78,
          "time": 44.95799999999998,
          "velocity": 0.7874015748031497,
          "duration": 0.04351249999999851
        },
        {
          "name": "E6",
          "midi": 88,
          "time": 44.95799999999998,
          "velocity": 0.7874015748031497,
          "duration": 0.35178750000000036
        },
        {
          "name": "F#6",
          "midi": 90,
          "time": 44.95799999999998,
          "velocity": 0.7874015748031497,
          "duration": 0.35178750000000036
        },
        {
          "name": "E7",
          "midi": 100,
          "time": 44.95799999999998,
          "velocity": 0.7874015748031497,
          "duration": 0.35178750000000036
        },
        {
          "name": "F#7",
          "midi": 102,
          "time": 44.95799999999998,
          "velocity": 0.7874015748031497,
          "duration": 0.35178750000000036
        },
        {
          "name": "C4",
          "midi": 60,
          "time": 45.311999999999976,
          "velocity": 0.7874015748031497,
          "duration": 0.044249999999998124
        },
        {
          "name": "F#4",
          "midi": 66,
          "time": 45.311999999999976,
          "velocity": 0.7874015748031497,
          "duration": 0.044249999999998124
        },
        {
          "name": "C5",
          "midi": 72,
          "time": 45.311999999999976,
          "velocity": 0.7874015748031497,
          "duration": 0.044249999999998124
        },
        {
          "name": "F#5",
          "midi": 78,
          "time": 45.311999999999976,
          "velocity": 0.7874015748031497,
          "duration": 0.044249999999998124
        },
        {
          "name": "C6",
          "midi": 84,
          "time": 45.311999999999976,
          "velocity": 0.7874015748031497,
          "duration": 0.044249999999998124
        },
        {
          "name": "F#6",
          "midi": 90,
          "time": 45.311999999999976,
          "velocity": 0.7874015748031497,
          "duration": 0.044249999999998124
        },
        {
          "name": "C7",
          "midi": 96,
          "time": 45.311999999999976,
          "velocity": 0.7874015748031497,
          "duration": 0.044249999999998124
        },
        {
          "name": "F#7",
          "midi": 102,
          "time": 45.311999999999976,
          "velocity": 0.7874015748031497,
          "duration": 0.044249999999998124
        },
        {
          "name": "C5",
          "midi": 72,
          "time": 45.488999999999976,
          "velocity": 0.7874015748031497,
          "duration": 0.044249999999998124
        },
        {
          "name": "F#5",
          "midi": 78,
          "time": 45.488999999999976,
          "velocity": 0.7874015748031497,
          "duration": 0.044249999999998124
        },
        {
          "name": "C6",
          "midi": 84,
          "time": 45.488999999999976,
          "velocity": 0.7874015748031497,
          "duration": 0.044249999999998124
        },
        {
          "name": "F#6",
          "midi": 90,
          "time": 45.488999999999976,
          "velocity": 0.7874015748031497,
          "duration": 0.044249999999998124
        },
        {
          "name": "C7",
          "midi": 96,
          "time": 45.488999999999976,
          "velocity": 0.7874015748031497,
          "duration": 0.044249999999998124
        },
        {
          "name": "F#7",
          "midi": 102,
          "time": 45.488999999999976,
          "velocity": 0.7874015748031497,
          "duration": 0.044249999999998124
        },
        {
          "name": "C6",
          "midi": 84,
          "time": 45.843737499999975,
          "velocity": 0.7874015748031497,
          "duration": 0.044249999999998124
        },
        {
          "name": "F#6",
          "midi": 90,
          "time": 45.843737499999975,
          "velocity": 0.7874015748031497,
          "duration": 0.044249999999998124
        },
        {
          "name": "C7",
          "midi": 96,
          "time": 45.843737499999975,
          "velocity": 0.7874015748031497,
          "duration": 0.044249999999998124
        },
        {
          "name": "F#7",
          "midi": 102,
          "time": 45.843737499999975,
          "velocity": 0.7874015748031497,
          "duration": 0.044249999999998124
        },
        {
          "name": "C#4",
          "midi": 61,
          "time": 46.019999999999975,
          "velocity": 0.7874015748031497,
          "duration": 0.5287875
        },
        {
          "name": "F#4",
          "midi": 66,
          "time": 46.019999999999975,
          "velocity": 0.7874015748031497,
          "duration": 0.5287875
        },
        {
          "name": "D5",
          "midi": 74,
          "time": 46.019999999999975,
          "velocity": 0.7874015748031497,
          "duration": 0.5287875
        },
        {
          "name": "F#5",
          "midi": 78,
          "time": 46.019999999999975,
          "velocity": 0.7874015748031497,
          "duration": 0.5287875
        },
        {
          "name": "D#6",
          "midi": 87,
          "time": 46.019999999999975,
          "velocity": 0.7874015748031497,
          "duration": 0.5287875
        },
        {
          "name": "F#6",
          "midi": 90,
          "time": 46.019999999999975,
          "velocity": 0.7874015748031497,
          "duration": 0.5287875
        },
        {
          "name": "D#7",
          "midi": 99,
          "time": 46.019999999999975,
          "velocity": 0.7874015748031497,
          "duration": 0.5287875
        },
        {
          "name": "F#7",
          "midi": 102,
          "time": 46.019999999999975,
          "velocity": 0.7874015748031497,
          "duration": 0.5287875
        },
        {
          "name": "C4",
          "midi": 60,
          "time": 46.550262499999974,
          "velocity": 0.7874015748031497,
          "duration": 0.044249999999998124
        },
        {
          "name": "F#4",
          "midi": 66,
          "time": 46.550262499999974,
          "velocity": 0.7874015748031497,
          "duration": 0.044249999999998124
        },
        {
          "name": "C5",
          "midi": 72,
          "time": 46.550262499999974,
          "velocity": 0.7874015748031497,
          "duration": 0.044249999999998124
        },
        {
          "name": "F#5",
          "midi": 78,
          "time": 46.550262499999974,
          "velocity": 0.7874015748031497,
          "duration": 0.044249999999998124
        },
        {
          "name": "C6",
          "midi": 84,
          "time": 46.550262499999974,
          "velocity": 0.7874015748031497,
          "duration": 0.352525
        },
        {
          "name": "F#6",
          "midi": 90,
          "time": 46.550262499999974,
          "velocity": 0.7874015748031497,
          "duration": 0.352525
        },
        {
          "name": "C7",
          "midi": 96,
          "time": 46.550262499999974,
          "velocity": 0.7874015748031497,
          "duration": 0.352525
        },
        {
          "name": "F#7",
          "midi": 102,
          "time": 46.550262499999974,
          "velocity": 0.7874015748031497,
          "duration": 0.352525
        },
        {
          "name": "C4",
          "midi": 60,
          "time": 46.90499999999997,
          "velocity": 0.7874015748031497,
          "duration": 0.044249999999998124
        },
        {
          "name": "F#4",
          "midi": 66,
          "time": 46.90499999999997,
          "velocity": 0.7874015748031497,
          "duration": 0.044249999999998124
        },
        {
          "name": "C5",
          "midi": 72,
          "time": 46.90499999999997,
          "velocity": 0.7874015748031497,
          "duration": 0.044249999999998124
        },
        {
          "name": "F#5",
          "midi": 78,
          "time": 46.90499999999997,
          "velocity": 0.7874015748031497,
          "duration": 0.044249999999998124
        },
        {
          "name": "C6",
          "midi": 84,
          "time": 46.90499999999997,
          "velocity": 0.7874015748031497,
          "duration": 0.35178750000000036
        },
        {
          "name": "F#6",
          "midi": 90,
          "time": 46.90499999999997,
          "velocity": 0.7874015748031497,
          "duration": 0.35178750000000036
        },
        {
          "name": "C7",
          "midi": 96,
          "time": 46.90499999999997,
          "velocity": 0.7874015748031497,
          "duration": 0.35178750000000036
        },
        {
          "name": "F#7",
          "midi": 102,
          "time": 46.90499999999997,
          "velocity": 0.7874015748031497,
          "duration": 0.35178750000000036
        },
        {
          "name": "C6",
          "midi": 84,
          "time": 47.25826249999997,
          "velocity": 0.7874015748031497,
          "duration": 0.044249999999998124
        },
        {
          "name": "F#6",
          "midi": 90,
          "time": 47.25826249999997,
          "velocity": 0.7874015748031497,
          "duration": 0.044249999999998124
        },
        {
          "name": "C7",
          "midi": 96,
          "time": 47.25826249999997,
          "velocity": 0.7874015748031497,
          "duration": 0.044249999999998124
        },
        {
          "name": "F#7",
          "midi": 102,
          "time": 47.25826249999997,
          "velocity": 0.7874015748031497,
          "duration": 0.044249999999998124
        },
        {
          "name": "G#8",
          "midi": 116,
          "time": 47.43599999999997,
          "velocity": 0.7874015748031497,
          "duration": 4.070999999999991
        },
        {
          "name": "C#4",
          "midi": 61,
          "time": 47.43599999999997,
          "velocity": 0.7874015748031497,
          "duration": 0.04351249999999851
        },
        {
          "name": "F#4",
          "midi": 66,
          "time": 47.43599999999997,
          "velocity": 0.7874015748031497,
          "duration": 0.04351249999999851
        },
        {
          "name": "D5",
          "midi": 74,
          "time": 47.43599999999997,
          "velocity": 0.7874015748031497,
          "duration": 0.04351249999999851
        },
        {
          "name": "F#5",
          "midi": 78,
          "time": 47.43599999999997,
          "velocity": 0.7874015748031497,
          "duration": 0.04351249999999851
        },
        {
          "name": "D#6",
          "midi": 87,
          "time": 47.43599999999997,
          "velocity": 0.7874015748031497,
          "duration": 0.04351249999999851
        },
        {
          "name": "F#6",
          "midi": 90,
          "time": 47.43599999999997,
          "velocity": 0.7874015748031497,
          "duration": 0.04351249999999851
        },
        {
          "name": "D#7",
          "midi": 99,
          "time": 47.43599999999997,
          "velocity": 0.7874015748031497,
          "duration": 0.04351249999999851
        },
        {
          "name": "F#7",
          "midi": 102,
          "time": 47.43599999999997,
          "velocity": 0.7874015748031497,
          "duration": 0.04351249999999851
        },
        {
          "name": "C7",
          "midi": 96,
          "time": 47.61373749999997,
          "velocity": 0.7874015748031497,
          "duration": 0.04351249999999851
        },
        {
          "name": "F#7",
          "midi": 102,
          "time": 47.61373749999997,
          "velocity": 0.7874015748031497,
          "duration": 0.04351249999999851
        },
        {
          "name": "C#4",
          "midi": 61,
          "time": 47.78999999999997,
          "velocity": 0.7874015748031497,
          "duration": 0.04351249999999851
        },
        {
          "name": "F#4",
          "midi": 66,
          "time": 47.78999999999997,
          "velocity": 0.7874015748031497,
          "duration": 0.04351249999999851
        },
        {
          "name": "D5",
          "midi": 74,
          "time": 47.78999999999997,
          "velocity": 0.7874015748031497,
          "duration": 0.04351249999999851
        },
        {
          "name": "F#5",
          "midi": 78,
          "time": 47.78999999999997,
          "velocity": 0.7874015748031497,
          "duration": 0.04351249999999851
        },
        {
          "name": "D#6",
          "midi": 87,
          "time": 47.78999999999997,
          "velocity": 0.7874015748031497,
          "duration": 0.35178750000000036
        },
        {
          "name": "F#6",
          "midi": 90,
          "time": 47.78999999999997,
          "velocity": 0.7874015748031497,
          "duration": 0.35178750000000036
        },
        {
          "name": "D#7",
          "midi": 99,
          "time": 47.78999999999997,
          "velocity": 0.7874015748031497,
          "duration": 0.35178750000000036
        },
        {
          "name": "F#7",
          "midi": 102,
          "time": 47.78999999999997,
          "velocity": 0.7874015748031497,
          "duration": 0.35178750000000036
        },
        {
          "name": "D4",
          "midi": 62,
          "time": 48.14399999999997,
          "velocity": 0.7874015748031497,
          "duration": 0.5287875
        },
        {
          "name": "F#4",
          "midi": 66,
          "time": 48.14399999999997,
          "velocity": 0.7874015748031497,
          "duration": 0.5287875
        },
        {
          "name": "D#5",
          "midi": 75,
          "time": 48.14399999999997,
          "velocity": 0.7874015748031497,
          "duration": 0.5287875
        },
        {
          "name": "F#5",
          "midi": 78,
          "time": 48.14399999999997,
          "velocity": 0.7874015748031497,
          "duration": 0.5287875
        },
        {
          "name": "E6",
          "midi": 88,
          "time": 48.14399999999997,
          "velocity": 0.7874015748031497,
          "duration": 0.5287875
        },
        {
          "name": "F#6",
          "midi": 90,
          "time": 48.14399999999997,
          "velocity": 0.7874015748031497,
          "duration": 0.5287875
        },
        {
          "name": "E7",
          "midi": 100,
          "time": 48.14399999999997,
          "velocity": 0.7874015748031497,
          "duration": 0.5287875
        },
        {
          "name": "F#7",
          "midi": 102,
          "time": 48.14399999999997,
          "velocity": 0.7874015748031497,
          "duration": 0.5287875
        },
        {
          "name": "C#4",
          "midi": 61,
          "time": 48.67426249999997,
          "velocity": 0.7874015748031497,
          "duration": 0.5295249999999996
        },
        {
          "name": "F#4",
          "midi": 66,
          "time": 48.67426249999997,
          "velocity": 0.7874015748031497,
          "duration": 0.5295249999999996
        },
        {
          "name": "D5",
          "midi": 74,
          "time": 48.67426249999997,
          "velocity": 0.7874015748031497,
          "duration": 0.5295249999999996
        },
        {
          "name": "F#5",
          "midi": 78,
          "time": 48.67426249999997,
          "velocity": 0.7874015748031497,
          "duration": 0.5295249999999996
        },
        {
          "name": "D#6",
          "midi": 87,
          "time": 48.67426249999997,
          "velocity": 0.7874015748031497,
          "duration": 0.5295249999999996
        },
        {
          "name": "F#6",
          "midi": 90,
          "time": 48.67426249999997,
          "velocity": 0.7874015748031497,
          "duration": 0.5295249999999996
        },
        {
          "name": "D#7",
          "midi": 99,
          "time": 48.67426249999997,
          "velocity": 0.7874015748031497,
          "duration": 0.5295249999999996
        },
        {
          "name": "F#7",
          "midi": 102,
          "time": 48.67426249999997,
          "velocity": 0.7874015748031497,
          "duration": 0.5295249999999996
        },
        {
          "name": "C4",
          "midi": 60,
          "time": 49.20599999999997,
          "velocity": 0.7874015748031497,
          "duration": 0.5287875
        },
        {
          "name": "F#4",
          "midi": 66,
          "time": 49.20599999999997,
          "velocity": 0.7874015748031497,
          "duration": 0.5287875
        },
        {
          "name": "C#5",
          "midi": 73,
          "time": 49.20599999999997,
          "velocity": 0.7874015748031497,
          "duration": 0.5287875
        },
        {
          "name": "F#5",
          "midi": 78,
          "time": 49.20599999999997,
          "velocity": 0.7874015748031497,
          "duration": 0.5287875
        },
        {
          "name": "D6",
          "midi": 86,
          "time": 49.20599999999997,
          "velocity": 0.7874015748031497,
          "duration": 0.5287875
        },
        {
          "name": "F#6",
          "midi": 90,
          "time": 49.20599999999997,
          "velocity": 0.7874015748031497,
          "duration": 0.5287875
        },
        {
          "name": "D7",
          "midi": 98,
          "time": 49.20599999999997,
          "velocity": 0.7874015748031497,
          "duration": 0.5287875
        },
        {
          "name": "F#7",
          "midi": 102,
          "time": 49.20599999999997,
          "velocity": 0.7874015748031497,
          "duration": 0.5287875
        },
        {
          "name": "D4",
          "midi": 62,
          "time": 49.736999999999966,
          "velocity": 0.7874015748031497,
          "duration": 0.5287875
        },
        {
          "name": "F#4",
          "midi": 66,
          "time": 49.736999999999966,
          "velocity": 0.7874015748031497,
          "duration": 0.5287875
        },
        {
          "name": "D5",
          "midi": 74,
          "time": 49.736999999999966,
          "velocity": 0.7874015748031497,
          "duration": 0.5287875
        },
        {
          "name": "F#5",
          "midi": 78,
          "time": 49.736999999999966,
          "velocity": 0.7874015748031497,
          "duration": 0.5287875
        },
        {
          "name": "D#6",
          "midi": 87,
          "time": 49.736999999999966,
          "velocity": 0.7874015748031497,
          "duration": 0.5287875
        },
        {
          "name": "F#6",
          "midi": 90,
          "time": 49.736999999999966,
          "velocity": 0.7874015748031497,
          "duration": 0.5287875
        },
        {
          "name": "D#7",
          "midi": 99,
          "time": 49.736999999999966,
          "velocity": 0.7874015748031497,
          "duration": 0.5287875
        },
        {
          "name": "F#7",
          "midi": 102,
          "time": 49.736999999999966,
          "velocity": 0.7874015748031497,
          "duration": 0.5287875
        },
        {
          "name": "C#4",
          "midi": 61,
          "time": 50.267999999999965,
          "velocity": 0.7874015748031497,
          "duration": 0.04351249999999851
        },
        {
          "name": "F#4",
          "midi": 66,
          "time": 50.267999999999965,
          "velocity": 0.7874015748031497,
          "duration": 0.04351249999999851
        },
        {
          "name": "C#5",
          "midi": 73,
          "time": 50.267999999999965,
          "velocity": 0.7874015748031497,
          "duration": 0.04351249999999851
        },
        {
          "name": "F#5",
          "midi": 78,
          "time": 50.267999999999965,
          "velocity": 0.7874015748031497,
          "duration": 0.04351249999999851
        },
        {
          "name": "D6",
          "midi": 86,
          "time": 50.267999999999965,
          "velocity": 0.7874015748031497,
          "duration": 0.35178750000000036
        },
        {
          "name": "F#6",
          "midi": 90,
          "time": 50.267999999999965,
          "velocity": 0.7874015748031497,
          "duration": 0.35178750000000036
        },
        {
          "name": "D7",
          "midi": 98,
          "time": 50.267999999999965,
          "velocity": 0.7874015748031497,
          "duration": 0.35178750000000036
        },
        {
          "name": "F#7",
          "midi": 102,
          "time": 50.267999999999965,
          "velocity": 0.7874015748031497,
          "duration": 0.35178750000000036
        },
        {
          "name": "C4",
          "midi": 60,
          "time": 50.621999999999964,
          "velocity": 0.7874015748031497,
          "duration": 0.04351249999999851
        },
        {
          "name": "F#4",
          "midi": 66,
          "time": 50.621999999999964,
          "velocity": 0.7874015748031497,
          "duration": 0.04351249999999851
        },
        {
          "name": "C5",
          "midi": 72,
          "time": 50.621999999999964,
          "velocity": 0.7874015748031497,
          "duration": 0.04351249999999851
        },
        {
          "name": "F#5",
          "midi": 78,
          "time": 50.621999999999964,
          "velocity": 0.7874015748031497,
          "duration": 0.04351249999999851
        },
        {
          "name": "C#6",
          "midi": 85,
          "time": 50.621999999999964,
          "velocity": 0.7874015748031497,
          "duration": 0.35178750000000036
        },
        {
          "name": "F#6",
          "midi": 90,
          "time": 50.621999999999964,
          "velocity": 0.7874015748031497,
          "duration": 0.35178750000000036
        },
        {
          "name": "C#7",
          "midi": 97,
          "time": 50.621999999999964,
          "velocity": 0.7874015748031497,
          "duration": 0.35178750000000036
        },
        {
          "name": "F#7",
          "midi": 102,
          "time": 50.621999999999964,
          "velocity": 0.7874015748031497,
          "duration": 0.35178750000000036
        },
        {
          "name": "C4",
          "midi": 60,
          "time": 50.975999999999964,
          "velocity": 0.7874015748031497,
          "duration": 0.5287875
        },
        {
          "name": "F#4",
          "midi": 66,
          "time": 50.975999999999964,
          "velocity": 0.7874015748031497,
          "duration": 0.5287875
        },
        {
          "name": "C5",
          "midi": 72,
          "time": 50.975999999999964,
          "velocity": 0.7874015748031497,
          "duration": 0.5287875
        },
        {
          "name": "C6",
          "midi": 84,
          "time": 50.975999999999964,
          "velocity": 0.7874015748031497,
          "duration": 0.5287875
        },
        {
          "name": "C7",
          "midi": 96,
          "time": 50.975999999999964,
          "velocity": 0.7874015748031497,
          "duration": 0.5287875
        },
        {
          "name": "C#4",
          "midi": 61,
          "time": 51.50699999999996,
          "velocity": 0.7874015748031497,
          "duration": 0.5302624999999992
        },
        {
          "name": "F#4",
          "midi": 66,
          "time": 51.50699999999996,
          "velocity": 0.7874015748031497,
          "duration": 0.5302624999999992
        },
        {
          "name": "C5",
          "midi": 72,
          "time": 51.50699999999996,
          "velocity": 0.7874015748031497,
          "duration": 0.5302624999999992
        },
        {
          "name": "F#5",
          "midi": 78,
          "time": 51.50699999999996,
          "velocity": 0.7874015748031497,
          "duration": 0.5302624999999992
        },
        {
          "name": "C6",
          "midi": 84,
          "time": 51.50699999999996,
          "velocity": 0.7874015748031497,
          "duration": 0.5287875
        },
        {
          "name": "F#6",
          "midi": 90,
          "time": 51.50699999999996,
          "velocity": 0.7874015748031497,
          "duration": 0.5287875
        },
        {
          "name": "C7",
          "midi": 96,
          "time": 51.50699999999996,
          "velocity": 0.7874015748031497,
          "duration": 0.5287875
        },
        {
          "name": "F#7",
          "midi": 102,
          "time": 51.50699999999996,
          "velocity": 0.7874015748031497,
          "duration": 0.5287875
        },
        {
          "name": "C6",
          "midi": 84,
          "time": 52.03799999999996,
          "velocity": 0.7874015748031497,
          "duration": 0.04351249999999851
        },
        {
          "name": "C7",
          "midi": 96,
          "time": 52.03799999999996,
          "velocity": 0.7874015748031497,
          "duration": 0.04351249999999851
        },
        {
          "name": "C7",
          "midi": 96,
          "time": 52.21499999999996,
          "velocity": 0.7874015748031497,
          "duration": 0.04351249999999851
        },
        {
          "name": "F#7",
          "midi": 102,
          "time": 52.21499999999996,
          "velocity": 0.7874015748031497,
          "duration": 0.04351249999999851
        },
        {
          "name": "C4",
          "midi": 60,
          "time": 52.39199999999996,
          "velocity": 0.7874015748031497,
          "duration": 0.5295249999999996
        },
        {
          "name": "F#4",
          "midi": 66,
          "time": 52.39199999999996,
          "velocity": 0.7874015748031497,
          "duration": 0.5295249999999996
        },
        {
          "name": "C#5",
          "midi": 73,
          "time": 52.39199999999996,
          "velocity": 0.7874015748031497,
          "duration": 0.5295249999999996
        },
        {
          "name": "F#5",
          "midi": 78,
          "time": 52.39199999999996,
          "velocity": 0.7874015748031497,
          "duration": 0.5295249999999996
        },
        {
          "name": "C#6",
          "midi": 85,
          "time": 52.39199999999996,
          "velocity": 0.7874015748031497,
          "duration": 0.5295249999999996
        },
        {
          "name": "F#6",
          "midi": 90,
          "time": 52.39199999999996,
          "velocity": 0.7874015748031497,
          "duration": 0.5295249999999996
        },
        {
          "name": "C#7",
          "midi": 97,
          "time": 52.39199999999996,
          "velocity": 0.7874015748031497,
          "duration": 0.5295249999999996
        },
        {
          "name": "F#7",
          "midi": 102,
          "time": 52.39199999999996,
          "velocity": 0.7874015748031497,
          "duration": 0.5295249999999996
        },
        {
          "name": "D4",
          "midi": 62,
          "time": 52.92373749999996,
          "velocity": 0.7874015748031497,
          "duration": 0.0427749999999989
        },
        {
          "name": "F#4",
          "midi": 66,
          "time": 52.92373749999996,
          "velocity": 0.7874015748031497,
          "duration": 0.0427749999999989
        },
        {
          "name": "D5",
          "midi": 74,
          "time": 52.92373749999996,
          "velocity": 0.7874015748031497,
          "duration": 0.0427749999999989
        },
        {
          "name": "F#5",
          "midi": 78,
          "time": 52.92373749999996,
          "velocity": 0.7874015748031497,
          "duration": 0.0427749999999989
        },
        {
          "name": "D6",
          "midi": 86,
          "time": 52.92373749999996,
          "velocity": 0.7874015748031497,
          "duration": 0.0427749999999989
        },
        {
          "name": "F#6",
          "midi": 90,
          "time": 52.92373749999996,
          "velocity": 0.7874015748031497,
          "duration": 0.0427749999999989
        },
        {
          "name": "D7",
          "midi": 98,
          "time": 52.92373749999996,
          "velocity": 0.7874015748031497,
          "duration": 0.0427749999999989
        },
        {
          "name": "F#7",
          "midi": 102,
          "time": 52.92373749999996,
          "velocity": 0.7874015748031497,
          "duration": 0.0427749999999989
        },
        {
          "name": "D5",
          "midi": 74,
          "time": 53.27773749999996,
          "velocity": 0.7874015748031497,
          "duration": 0.0427749999999989
        },
        {
          "name": "F#5",
          "midi": 78,
          "time": 53.27773749999996,
          "velocity": 0.7874015748031497,
          "duration": 0.0427749999999989
        },
        {
          "name": "D6",
          "midi": 86,
          "time": 53.27773749999996,
          "velocity": 0.7874015748031497,
          "duration": 0.0427749999999989
        },
        {
          "name": "F#6",
          "midi": 90,
          "time": 53.27773749999996,
          "velocity": 0.7874015748031497,
          "duration": 0.0427749999999989
        },
        {
          "name": "D7",
          "midi": 98,
          "time": 53.27773749999996,
          "velocity": 0.7874015748031497,
          "duration": 0.0427749999999989
        },
        {
          "name": "F#7",
          "midi": 102,
          "time": 53.27773749999996,
          "velocity": 0.7874015748031497,
          "duration": 0.0427749999999989
        },
        {
          "name": "C#4",
          "midi": 61,
          "time": 53.45399999999996,
          "velocity": 0.7874015748031497,
          "duration": 0.04351249999999851
        },
        {
          "name": "F#4",
          "midi": 66,
          "time": 53.45399999999996,
          "velocity": 0.7874015748031497,
          "duration": 0.04351249999999851
        },
        {
          "name": "C#5",
          "midi": 73,
          "time": 53.45399999999996,
          "velocity": 0.7874015748031497,
          "duration": 0.04351249999999851
        },
        {
          "name": "F5",
          "midi": 77,
          "time": 53.45399999999996,
          "velocity": 0.7874015748031497,
          "duration": 0.04351249999999851
        },
        {
          "name": "C#6",
          "midi": 85,
          "time": 53.45399999999996,
          "velocity": 0.7874015748031497,
          "duration": 0.04351249999999851
        },
        {
          "name": "F6",
          "midi": 89,
          "time": 53.45399999999996,
          "velocity": 0.7874015748031497,
          "duration": 0.04351249999999851
        },
        {
          "name": "C#7",
          "midi": 97,
          "time": 53.45399999999996,
          "velocity": 0.7874015748031497,
          "duration": 0.04351249999999851
        },
        {
          "name": "F#7",
          "midi": 102,
          "time": 53.45399999999996,
          "velocity": 0.7874015748031497,
          "duration": 0.04351249999999851
        },
        {
          "name": "D7",
          "midi": 98,
          "time": 53.63099999999996,
          "velocity": 0.7874015748031497,
          "duration": 0.04351249999999851
        },
        {
          "name": "F#7",
          "midi": 102,
          "time": 53.63099999999996,
          "velocity": 0.7874015748031497,
          "duration": 0.04351249999999851
        },
        {
          "name": "D4",
          "midi": 62,
          "time": 53.80799999999996,
          "velocity": 0.7874015748031497,
          "duration": 0.5295249999999996
        },
        {
          "name": "F#4",
          "midi": 66,
          "time": 53.80799999999996,
          "velocity": 0.7874015748031497,
          "duration": 0.5295249999999996
        },
        {
          "name": "D#5",
          "midi": 75,
          "time": 53.80799999999996,
          "velocity": 0.7874015748031497,
          "duration": 0.5295249999999996
        },
        {
          "name": "F#5",
          "midi": 78,
          "time": 53.80799999999996,
          "velocity": 0.7874015748031497,
          "duration": 0.5295249999999996
        },
        {
          "name": "E6",
          "midi": 88,
          "time": 53.80799999999996,
          "velocity": 0.7874015748031497,
          "duration": 0.5295249999999996
        },
        {
          "name": "F#6",
          "midi": 90,
          "time": 53.80799999999996,
          "velocity": 0.7874015748031497,
          "duration": 0.5295249999999996
        },
        {
          "name": "E7",
          "midi": 100,
          "time": 53.80799999999996,
          "velocity": 0.7874015748031497,
          "duration": 0.5295249999999996
        },
        {
          "name": "F#7",
          "midi": 102,
          "time": 53.80799999999996,
          "velocity": 0.7874015748031497,
          "duration": 0.5295249999999996
        },
        {
          "name": "C#4",
          "midi": 61,
          "time": 54.339737499999956,
          "velocity": 0.7874015748031497,
          "duration": 0.5302624999999992
        },
        {
          "name": "F#4",
          "midi": 66,
          "time": 54.339737499999956,
          "velocity": 0.7874015748031497,
          "duration": 0.5302624999999992
        },
        {
          "name": "D5",
          "midi": 74,
          "time": 54.339737499999956,
          "velocity": 0.7874015748031497,
          "duration": 0.5280500000000004
        },
        {
          "name": "F#5",
          "midi": 78,
          "time": 54.339737499999956,
          "velocity": 0.7874015748031497,
          "duration": 0.5280500000000004
        },
        {
          "name": "D#6",
          "midi": 87,
          "time": 54.339737499999956,
          "velocity": 0.7874015748031497,
          "duration": 0.5280500000000004
        },
        {
          "name": "F#6",
          "midi": 90,
          "time": 54.339737499999956,
          "velocity": 0.7874015748031497,
          "duration": 0.5280500000000004
        },
        {
          "name": "D#7",
          "midi": 99,
          "time": 54.339737499999956,
          "velocity": 0.7874015748031497,
          "duration": 0.5280500000000004
        },
        {
          "name": "F#7",
          "midi": 102,
          "time": 54.339737499999956,
          "velocity": 0.7874015748031497,
          "duration": 0.5280500000000004
        },
        {
          "name": "C#5",
          "midi": 73,
          "time": 54.869999999999955,
          "velocity": 0.7874015748031497,
          "duration": 0.04351249999999851
        },
        {
          "name": "F#5",
          "midi": 78,
          "time": 54.869999999999955,
          "velocity": 0.7874015748031497,
          "duration": 0.04351249999999851
        },
        {
          "name": "D6",
          "midi": 86,
          "time": 54.869999999999955,
          "velocity": 0.7874015748031497,
          "duration": 0.04351249999999851
        },
        {
          "name": "F#6",
          "midi": 90,
          "time": 54.869999999999955,
          "velocity": 0.7874015748031497,
          "duration": 0.04351249999999851
        },
        {
          "name": "C#7",
          "midi": 97,
          "time": 54.869999999999955,
          "velocity": 0.7874015748031497,
          "duration": 0.04351249999999851
        },
        {
          "name": "F#7",
          "midi": 102,
          "time": 54.869999999999955,
          "velocity": 0.7874015748031497,
          "duration": 0.04351249999999851
        },
        {
          "name": "D#7",
          "midi": 99,
          "time": 55.047737499999954,
          "velocity": 0.7874015748031497,
          "duration": 0.04351249999999851
        },
        {
          "name": "F#7",
          "midi": 102,
          "time": 55.047737499999954,
          "velocity": 0.7874015748031497,
          "duration": 0.04351249999999851
        },
        {
          "name": "D4",
          "midi": 62,
          "time": 55.223999999999954,
          "velocity": 0.7874015748031497,
          "duration": 0.5295249999999996
        },
        {
          "name": "F#4",
          "midi": 66,
          "time": 55.223999999999954,
          "velocity": 0.7874015748031497,
          "duration": 0.5295249999999996
        },
        {
          "name": "C#5",
          "midi": 73,
          "time": 55.223999999999954,
          "velocity": 0.7874015748031497,
          "duration": 0.5295249999999996
        },
        {
          "name": "F#5",
          "midi": 78,
          "time": 55.223999999999954,
          "velocity": 0.7874015748031497,
          "duration": 0.5295249999999996
        },
        {
          "name": "D6",
          "midi": 86,
          "time": 55.223999999999954,
          "velocity": 0.7874015748031497,
          "duration": 0.5295249999999996
        },
        {
          "name": "F#6",
          "midi": 90,
          "time": 55.223999999999954,
          "velocity": 0.7874015748031497,
          "duration": 0.5295249999999996
        },
        {
          "name": "D7",
          "midi": 98,
          "time": 55.223999999999954,
          "velocity": 0.7874015748031497,
          "duration": 0.5295249999999996
        },
        {
          "name": "F#7",
          "midi": 102,
          "time": 55.223999999999954,
          "velocity": 0.7874015748031497,
          "duration": 0.5295249999999996
        },
        {
          "name": "C4",
          "midi": 60,
          "time": 55.75573749999995,
          "velocity": 0.7874015748031497,
          "duration": 0.5302624999999992
        },
        {
          "name": "F#4",
          "midi": 66,
          "time": 55.75573749999995,
          "velocity": 0.7874015748031497,
          "duration": 0.5302624999999992
        },
        {
          "name": "C5",
          "midi": 72,
          "time": 55.75573749999995,
          "velocity": 0.7874015748031497,
          "duration": 0.5280500000000004
        },
        {
          "name": "F#5",
          "midi": 78,
          "time": 55.75573749999995,
          "velocity": 0.7874015748031497,
          "duration": 0.5280500000000004
        },
        {
          "name": "C#6",
          "midi": 85,
          "time": 55.75573749999995,
          "velocity": 0.7874015748031497,
          "duration": 0.5280500000000004
        },
        {
          "name": "F#6",
          "midi": 90,
          "time": 55.75573749999995,
          "velocity": 0.7874015748031497,
          "duration": 0.5280500000000004
        },
        {
          "name": "C#7",
          "midi": 97,
          "time": 55.75573749999995,
          "velocity": 0.7874015748031497,
          "duration": 0.5280500000000004
        },
        {
          "name": "F#7",
          "midi": 102,
          "time": 55.75573749999995,
          "velocity": 0.7874015748031497,
          "duration": 0.5280500000000004
        },
        {
          "name": "C5",
          "midi": 72,
          "time": 56.28599999999995,
          "velocity": 0.7874015748031497,
          "duration": 0.04351249999999851
        },
        {
          "name": "F#5",
          "midi": 78,
          "time": 56.28599999999995,
          "velocity": 0.7874015748031497,
          "duration": 0.04351249999999851
        },
        {
          "name": "C6",
          "midi": 84,
          "time": 56.28599999999995,
          "velocity": 0.7874015748031497,
          "duration": 0.04351249999999851
        },
        {
          "name": "F#6",
          "midi": 90,
          "time": 56.28599999999995,
          "velocity": 0.7874015748031497,
          "duration": 0.04351249999999851
        },
        {
          "name": "C#7",
          "midi": 97,
          "time": 56.28599999999995,
          "velocity": 0.7874015748031497,
          "duration": 0.04351249999999851
        },
        {
          "name": "F#7",
          "midi": 102,
          "time": 56.28599999999995,
          "velocity": 0.7874015748031497,
          "duration": 0.04351249999999851
        },
        {
          "name": "C7",
          "midi": 96,
          "time": 56.46373749999995,
          "velocity": 0.7874015748031497,
          "duration": 0.04351249999999851
        },
        {
          "name": "F#7",
          "midi": 102,
          "time": 56.46373749999995,
          "velocity": 0.7874015748031497,
          "duration": 0.04351249999999851
        },
        {
          "name": "C4",
          "midi": 60,
          "time": 56.63999999999995,
          "velocity": 0.7874015748031497,
          "duration": 0.5287875
        },
        {
          "name": "F#4",
          "midi": 66,
          "time": 56.63999999999995,
          "velocity": 0.7874015748031497,
          "duration": 0.5287875
        },
        {
          "name": "C5",
          "midi": 72,
          "time": 56.63999999999995,
          "velocity": 0.7874015748031497,
          "duration": 0.5287875
        },
        {
          "name": "C6",
          "midi": 84,
          "time": 56.63999999999995,
          "velocity": 0.7874015748031497,
          "duration": 0.5287875
        },
        {
          "name": "C7",
          "midi": 96,
          "time": 56.63999999999995,
          "velocity": 0.7874015748031497,
          "duration": 0.5287875
        },
        {
          "name": "C#4",
          "midi": 61,
          "time": 57.17099999999995,
          "velocity": 0.7874015748031497,
          "duration": 0.8827874999999992
        },
        {
          "name": "F#4",
          "midi": 66,
          "time": 57.17099999999995,
          "velocity": 0.7874015748031497,
          "duration": 0.8827874999999992
        },
        {
          "name": "C5",
          "midi": 72,
          "time": 57.17099999999995,
          "velocity": 0.7874015748031497,
          "duration": 0.8827874999999992
        },
        {
          "name": "F#5",
          "midi": 78,
          "time": 57.17099999999995,
          "velocity": 0.7874015748031497,
          "duration": 0.8827874999999992
        },
        {
          "name": "C6",
          "midi": 84,
          "time": 57.17099999999995,
          "velocity": 0.7874015748031497,
          "duration": 0.8827874999999992
        },
        {
          "name": "F#6",
          "midi": 90,
          "time": 57.17099999999995,
          "velocity": 0.7874015748031497,
          "duration": 0.8827874999999992
        },
        {
          "name": "C7",
          "midi": 96,
          "time": 57.17099999999995,
          "velocity": 0.7874015748031497,
          "duration": 0.8827874999999992
        },
        {
          "name": "F#7",
          "midi": 102,
          "time": 57.17099999999995,
          "velocity": 0.7874015748031497,
          "duration": 0.8827874999999992
        },
        {
          "name": "C4",
          "midi": 60,
          "time": 58.05599999999995,
          "velocity": 0.7874015748031497,
          "duration": 0.5287875
        },
        {
          "name": "F#4",
          "midi": 66,
          "time": 58.05599999999995,
          "velocity": 0.7874015748031497,
          "duration": 0.5287875
        },
        {
          "name": "C#5",
          "midi": 73,
          "time": 58.05599999999995,
          "velocity": 0.7874015748031497,
          "duration": 0.5287875
        },
        {
          "name": "F#5",
          "midi": 78,
          "time": 58.05599999999995,
          "velocity": 0.7874015748031497,
          "duration": 0.5287875
        },
        {
          "name": "C#6",
          "midi": 85,
          "time": 58.05599999999995,
          "velocity": 0.7874015748031497,
          "duration": 0.5287875
        },
        {
          "name": "F#6",
          "midi": 90,
          "time": 58.05599999999995,
          "velocity": 0.7874015748031497,
          "duration": 0.5287875
        },
        {
          "name": "C#7",
          "midi": 97,
          "time": 58.05599999999995,
          "velocity": 0.7874015748031497,
          "duration": 0.5287875
        },
        {
          "name": "F#7",
          "midi": 102,
          "time": 58.05599999999995,
          "velocity": 0.7874015748031497,
          "duration": 0.5287875
        },
        {
          "name": "D4",
          "midi": 62,
          "time": 58.58699999999995,
          "velocity": 0.7874015748031497,
          "duration": 0.8827874999999992
        },
        {
          "name": "F#4",
          "midi": 66,
          "time": 58.58699999999995,
          "velocity": 0.7874015748031497,
          "duration": 0.8827874999999992
        },
        {
          "name": "D5",
          "midi": 74,
          "time": 58.58699999999995,
          "velocity": 0.7874015748031497,
          "duration": 0.8827874999999992
        },
        {
          "name": "F#5",
          "midi": 78,
          "time": 58.58699999999995,
          "velocity": 0.7874015748031497,
          "duration": 0.8827874999999992
        },
        {
          "name": "D6",
          "midi": 86,
          "time": 58.58699999999995,
          "velocity": 0.7874015748031497,
          "duration": 0.8827874999999992
        },
        {
          "name": "F#6",
          "midi": 90,
          "time": 58.58699999999995,
          "velocity": 0.7874015748031497,
          "duration": 0.8827874999999992
        },
        {
          "name": "D7",
          "midi": 98,
          "time": 58.58699999999995,
          "velocity": 0.7874015748031497,
          "duration": 0.8827874999999992
        },
        {
          "name": "F#7",
          "midi": 102,
          "time": 58.58699999999995,
          "velocity": 0.7874015748031497,
          "duration": 0.8827874999999992
        },
        {
          "name": "D4",
          "midi": 62,
          "time": 59.471999999999944,
          "velocity": 0.7874015748031497,
          "duration": 0.5287875
        },
        {
          "name": "F#4",
          "midi": 66,
          "time": 59.471999999999944,
          "velocity": 0.7874015748031497,
          "duration": 0.5287875
        },
        {
          "name": "D#5",
          "midi": 75,
          "time": 59.471999999999944,
          "velocity": 0.7874015748031497,
          "duration": 0.5287875
        },
        {
          "name": "F#5",
          "midi": 78,
          "time": 59.471999999999944,
          "velocity": 0.7874015748031497,
          "duration": 0.5287875
        },
        {
          "name": "E6",
          "midi": 88,
          "time": 59.471999999999944,
          "velocity": 0.7874015748031497,
          "duration": 0.5287875
        },
        {
          "name": "F#6",
          "midi": 90,
          "time": 59.471999999999944,
          "velocity": 0.7874015748031497,
          "duration": 0.5287875
        },
        {
          "name": "E7",
          "midi": 100,
          "time": 59.471999999999944,
          "velocity": 0.7874015748031497,
          "duration": 0.5287875
        },
        {
          "name": "F#7",
          "midi": 102,
          "time": 59.471999999999944,
          "velocity": 0.7874015748031497,
          "duration": 0.5287875
        },
        {
          "name": "C#4",
          "midi": 61,
          "time": 60.00299999999994,
          "velocity": 0.7874015748031497,
          "duration": 0.8827874999999992
        },
        {
          "name": "F#4",
          "midi": 66,
          "time": 60.00299999999994,
          "velocity": 0.7874015748031497,
          "duration": 0.8827874999999992
        },
        {
          "name": "D5",
          "midi": 74,
          "time": 60.00299999999994,
          "velocity": 0.7874015748031497,
          "duration": 0.8827874999999992
        },
        {
          "name": "F#5",
          "midi": 78,
          "time": 60.00299999999994,
          "velocity": 0.7874015748031497,
          "duration": 0.8827874999999992
        },
        {
          "name": "D#6",
          "midi": 87,
          "time": 60.00299999999994,
          "velocity": 0.7874015748031497,
          "duration": 0.8827874999999992
        },
        {
          "name": "F#6",
          "midi": 90,
          "time": 60.00299999999994,
          "velocity": 0.7874015748031497,
          "duration": 0.8827874999999992
        },
        {
          "name": "D#7",
          "midi": 99,
          "time": 60.00299999999994,
          "velocity": 0.7874015748031497,
          "duration": 0.8827874999999992
        },
        {
          "name": "F#7",
          "midi": 102,
          "time": 60.00299999999994,
          "velocity": 0.7874015748031497,
          "duration": 0.8827874999999992
        },
        {
          "name": "D4",
          "midi": 62,
          "time": 60.88799999999994,
          "velocity": 0.7874015748031497,
          "duration": 0.5280500000000004
        },
        {
          "name": "F#4",
          "midi": 66,
          "time": 60.88799999999994,
          "velocity": 0.7874015748031497,
          "duration": 0.5280500000000004
        },
        {
          "name": "C#5",
          "midi": 73,
          "time": 60.88799999999994,
          "velocity": 0.7874015748031497,
          "duration": 0.5280500000000004
        },
        {
          "name": "F#5",
          "midi": 78,
          "time": 60.88799999999994,
          "velocity": 0.7874015748031497,
          "duration": 0.5280500000000004
        },
        {
          "name": "D6",
          "midi": 86,
          "time": 60.88799999999994,
          "velocity": 0.7874015748031497,
          "duration": 0.5280500000000004
        },
        {
          "name": "F#6",
          "midi": 90,
          "time": 60.88799999999994,
          "velocity": 0.7874015748031497,
          "duration": 0.5280500000000004
        },
        {
          "name": "D7",
          "midi": 98,
          "time": 60.88799999999994,
          "velocity": 0.7874015748031497,
          "duration": 0.5280500000000004
        },
        {
          "name": "F#7",
          "midi": 102,
          "time": 60.88799999999994,
          "velocity": 0.7874015748031497,
          "duration": 0.5280500000000004
        },
        {
          "name": "C4",
          "midi": 60,
          "time": 61.41826249999994,
          "velocity": 0.7874015748031497,
          "duration": 0.5309999999999988
        },
        {
          "name": "F#4",
          "midi": 66,
          "time": 61.41826249999994,
          "velocity": 0.7874015748031497,
          "duration": 0.5309999999999988
        },
        {
          "name": "C5",
          "midi": 72,
          "time": 61.41826249999994,
          "velocity": 0.7874015748031497,
          "duration": 0.5295249999999996
        },
        {
          "name": "F#5",
          "midi": 78,
          "time": 61.41826249999994,
          "velocity": 0.7874015748031497,
          "duration": 0.5295249999999996
        },
        {
          "name": "C#6",
          "midi": 85,
          "time": 61.41826249999994,
          "velocity": 0.7874015748031497,
          "duration": 0.5295249999999996
        },
        {
          "name": "F#6",
          "midi": 90,
          "time": 61.41826249999994,
          "velocity": 0.7874015748031497,
          "duration": 0.5295249999999996
        },
        {
          "name": "C#7",
          "midi": 97,
          "time": 61.41826249999994,
          "velocity": 0.7874015748031497,
          "duration": 0.5295249999999996
        },
        {
          "name": "F#7",
          "midi": 102,
          "time": 61.41826249999994,
          "velocity": 0.7874015748031497,
          "duration": 0.5295249999999996
        },
        {
          "name": "C5",
          "midi": 72,
          "time": 61.94999999999994,
          "velocity": 0.7874015748031497,
          "duration": 0.04351249999999851
        },
        {
          "name": "F#5",
          "midi": 78,
          "time": 61.94999999999994,
          "velocity": 0.7874015748031497,
          "duration": 0.04351249999999851
        },
        {
          "name": "C6",
          "midi": 84,
          "time": 61.94999999999994,
          "velocity": 0.7874015748031497,
          "duration": 0.04351249999999851
        },
        {
          "name": "F#6",
          "midi": 90,
          "time": 61.94999999999994,
          "velocity": 0.7874015748031497,
          "duration": 0.04351249999999851
        },
        {
          "name": "C#7",
          "midi": 97,
          "time": 61.94999999999994,
          "velocity": 0.7874015748031497,
          "duration": 0.04351249999999851
        },
        {
          "name": "F#7",
          "midi": 102,
          "time": 61.94999999999994,
          "velocity": 0.7874015748031497,
          "duration": 0.04351249999999851
        },
        {
          "name": "C7",
          "midi": 96,
          "time": 62.12626249999994,
          "velocity": 0.7874015748031497,
          "duration": 0.044249999999998124
        },
        {
          "name": "F#7",
          "midi": 102,
          "time": 62.12626249999994,
          "velocity": 0.7874015748031497,
          "duration": 0.044249999999998124
        },
        {
          "name": "C4",
          "midi": 60,
          "time": 62.30399999999994,
          "velocity": 0.7874015748031497,
          "duration": 0.5287875
        },
        {
          "name": "F#4",
          "midi": 66,
          "time": 62.30399999999994,
          "velocity": 0.7874015748031497,
          "duration": 0.5287875
        },
        {
          "name": "C5",
          "midi": 72,
          "time": 62.30399999999994,
          "velocity": 0.7874015748031497,
          "duration": 0.5287875
        },
        {
          "name": "C6",
          "midi": 84,
          "time": 62.30399999999994,
          "velocity": 0.7874015748031497,
          "duration": 0.5287875
        },
        {
          "name": "C7",
          "midi": 96,
          "time": 62.30399999999994,
          "velocity": 0.7874015748031497,
          "duration": 0.5287875
        },
        {
          "name": "C#4",
          "midi": 61,
          "time": 62.83499999999994,
          "velocity": 0.7874015748031497,
          "duration": 0.8827874999999992
        },
        {
          "name": "F#4",
          "midi": 66,
          "time": 62.83499999999994,
          "velocity": 0.7874015748031497,
          "duration": 0.8827874999999992
        },
        {
          "name": "C5",
          "midi": 72,
          "time": 62.83499999999994,
          "velocity": 0.7874015748031497,
          "duration": 0.8827874999999992
        },
        {
          "name": "F#5",
          "midi": 78,
          "time": 62.83499999999994,
          "velocity": 0.7874015748031497,
          "duration": 0.8827874999999992
        },
        {
          "name": "C6",
          "midi": 84,
          "time": 62.83499999999994,
          "velocity": 0.7874015748031497,
          "duration": 0.8827874999999992
        },
        {
          "name": "F#6",
          "midi": 90,
          "time": 62.83499999999994,
          "velocity": 0.7874015748031497,
          "duration": 0.8827874999999992
        },
        {
          "name": "C7",
          "midi": 96,
          "time": 62.83499999999994,
          "velocity": 0.7874015748031497,
          "duration": 0.8827874999999992
        },
        {
          "name": "F#7",
          "midi": 102,
          "time": 62.83499999999994,
          "velocity": 0.7874015748031497,
          "duration": 0.8827874999999992
        },
        {
          "name": "C4",
          "midi": 60,
          "time": 63.719999999999935,
          "velocity": 0.7874015748031497,
          "duration": 0.5280500000000004
        },
        {
          "name": "F#4",
          "midi": 66,
          "time": 63.719999999999935,
          "velocity": 0.7874015748031497,
          "duration": 0.5280500000000004
        },
        {
          "name": "C#5",
          "midi": 73,
          "time": 63.719999999999935,
          "velocity": 0.7874015748031497,
          "duration": 0.5280500000000004
        },
        {
          "name": "F#5",
          "midi": 78,
          "time": 63.719999999999935,
          "velocity": 0.7874015748031497,
          "duration": 0.5280500000000004
        },
        {
          "name": "C#6",
          "midi": 85,
          "time": 63.719999999999935,
          "velocity": 0.7874015748031497,
          "duration": 0.5280500000000004
        },
        {
          "name": "F#6",
          "midi": 90,
          "time": 63.719999999999935,
          "velocity": 0.7874015748031497,
          "duration": 0.5280500000000004
        },
        {
          "name": "C#7",
          "midi": 97,
          "time": 63.719999999999935,
          "velocity": 0.7874015748031497,
          "duration": 0.5280500000000004
        },
        {
          "name": "F#7",
          "midi": 102,
          "time": 63.719999999999935,
          "velocity": 0.7874015748031497,
          "duration": 0.5280500000000004
        },
        {
          "name": "D4",
          "midi": 62,
          "time": 64.25026249999993,
          "velocity": 0.7874015748031497,
          "duration": 0.8835250000000059
        },
        {
          "name": "F#4",
          "midi": 66,
          "time": 64.25026249999993,
          "velocity": 0.7874015748031497,
          "duration": 0.8835250000000059
        },
        {
          "name": "D5",
          "midi": 74,
          "time": 64.25026249999993,
          "velocity": 0.7874015748031497,
          "duration": 0.8835250000000059
        },
        {
          "name": "F#5",
          "midi": 78,
          "time": 64.25026249999993,
          "velocity": 0.7874015748031497,
          "duration": 0.8835250000000059
        },
        {
          "name": "D6",
          "midi": 86,
          "time": 64.25026249999993,
          "velocity": 0.7874015748031497,
          "duration": 0.8835250000000059
        },
        {
          "name": "F#6",
          "midi": 90,
          "time": 64.25026249999993,
          "velocity": 0.7874015748031497,
          "duration": 0.8835250000000059
        },
        {
          "name": "D7",
          "midi": 98,
          "time": 64.25026249999993,
          "velocity": 0.7874015748031497,
          "duration": 0.8835250000000059
        },
        {
          "name": "F#7",
          "midi": 102,
          "time": 64.25026249999993,
          "velocity": 0.7874015748031497,
          "duration": 0.8835250000000059
        },
        {
          "name": "D4",
          "midi": 62,
          "time": 65.13599999999994,
          "velocity": 0.7874015748031497,
          "duration": 0.5280499999999932
        },
        {
          "name": "F#4",
          "midi": 66,
          "time": 65.13599999999994,
          "velocity": 0.7874015748031497,
          "duration": 0.5280499999999932
        },
        {
          "name": "D#5",
          "midi": 75,
          "time": 65.13599999999994,
          "velocity": 0.7874015748031497,
          "duration": 0.5280499999999932
        },
        {
          "name": "F#5",
          "midi": 78,
          "time": 65.13599999999994,
          "velocity": 0.7874015748031497,
          "duration": 0.5280499999999932
        },
        {
          "name": "E6",
          "midi": 88,
          "time": 65.13599999999994,
          "velocity": 0.7874015748031497,
          "duration": 0.5280499999999932
        },
        {
          "name": "F#6",
          "midi": 90,
          "time": 65.13599999999994,
          "velocity": 0.7874015748031497,
          "duration": 0.5280499999999932
        },
        {
          "name": "E7",
          "midi": 100,
          "time": 65.13599999999994,
          "velocity": 0.7874015748031497,
          "duration": 0.5280499999999932
        },
        {
          "name": "F#7",
          "midi": 102,
          "time": 65.13599999999994,
          "velocity": 0.7874015748031497,
          "duration": 0.5280499999999932
        },
        {
          "name": "C#4",
          "midi": 61,
          "time": 65.66626249999993,
          "velocity": 0.7874015748031497,
          "duration": 0.8835250000000059
        },
        {
          "name": "F#4",
          "midi": 66,
          "time": 65.66626249999993,
          "velocity": 0.7874015748031497,
          "duration": 0.8835250000000059
        },
        {
          "name": "D5",
          "midi": 74,
          "time": 65.66626249999993,
          "velocity": 0.7874015748031497,
          "duration": 0.8835250000000059
        },
        {
          "name": "F#5",
          "midi": 78,
          "time": 65.66626249999993,
          "velocity": 0.7874015748031497,
          "duration": 0.8835250000000059
        },
        {
          "name": "D#6",
          "midi": 87,
          "time": 65.66626249999993,
          "velocity": 0.7874015748031497,
          "duration": 0.8835250000000059
        },
        {
          "name": "F#6",
          "midi": 90,
          "time": 65.66626249999993,
          "velocity": 0.7874015748031497,
          "duration": 0.8835250000000059
        },
        {
          "name": "D#7",
          "midi": 99,
          "time": 65.66626249999993,
          "velocity": 0.7874015748031497,
          "duration": 0.8835250000000059
        },
        {
          "name": "F#7",
          "midi": 102,
          "time": 65.66626249999993,
          "velocity": 0.7874015748031497,
          "duration": 0.8835250000000059
        },
        {
          "name": "D4",
          "midi": 62,
          "time": 66.55199999999994,
          "velocity": 0.7874015748031497,
          "duration": 0.5295250000000067
        },
        {
          "name": "F#4",
          "midi": 66,
          "time": 66.55199999999994,
          "velocity": 0.7874015748031497,
          "duration": 0.5295250000000067
        },
        {
          "name": "C#5",
          "midi": 73,
          "time": 66.55199999999994,
          "velocity": 0.7874015748031497,
          "duration": 0.5295250000000067
        },
        {
          "name": "F#5",
          "midi": 78,
          "time": 66.55199999999994,
          "velocity": 0.7874015748031497,
          "duration": 0.5295250000000067
        },
        {
          "name": "D6",
          "midi": 86,
          "time": 66.55199999999994,
          "velocity": 0.7874015748031497,
          "duration": 0.5295250000000067
        },
        {
          "name": "F#6",
          "midi": 90,
          "time": 66.55199999999994,
          "velocity": 0.7874015748031497,
          "duration": 0.5295250000000067
        },
        {
          "name": "D7",
          "midi": 98,
          "time": 66.55199999999994,
          "velocity": 0.7874015748031497,
          "duration": 0.5295250000000067
        },
        {
          "name": "F#7",
          "midi": 102,
          "time": 66.55199999999994,
          "velocity": 0.7874015748031497,
          "duration": 0.5295250000000067
        },
        {
          "name": "C4",
          "midi": 60,
          "time": 67.08373749999994,
          "velocity": 0.7874015748031497,
          "duration": 0.5302624999999921
        },
        {
          "name": "F#4",
          "midi": 66,
          "time": 67.08373749999994,
          "velocity": 0.7874015748031497,
          "duration": 0.5302624999999921
        },
        {
          "name": "C5",
          "midi": 72,
          "time": 67.08373749999994,
          "velocity": 0.7874015748031497,
          "duration": 0.5280499999999932
        },
        {
          "name": "F#5",
          "midi": 78,
          "time": 67.08373749999994,
          "velocity": 0.7874015748031497,
          "duration": 0.5280499999999932
        },
        {
          "name": "C#6",
          "midi": 85,
          "time": 67.08373749999994,
          "velocity": 0.7874015748031497,
          "duration": 0.5280499999999932
        },
        {
          "name": "F#6",
          "midi": 90,
          "time": 67.08373749999994,
          "velocity": 0.7874015748031497,
          "duration": 0.5280499999999932
        },
        {
          "name": "C#7",
          "midi": 97,
          "time": 67.08373749999994,
          "velocity": 0.7874015748031497,
          "duration": 0.5280499999999932
        },
        {
          "name": "F#7",
          "midi": 102,
          "time": 67.08373749999994,
          "velocity": 0.7874015748031497,
          "duration": 0.5280499999999932
        },
        {
          "name": "C5",
          "midi": 72,
          "time": 67.61399999999993,
          "velocity": 0.7874015748031497,
          "duration": 0.04425000000000523
        },
        {
          "name": "F#5",
          "midi": 78,
          "time": 67.61399999999993,
          "velocity": 0.7874015748031497,
          "duration": 0.04425000000000523
        },
        {
          "name": "C6",
          "midi": 84,
          "time": 67.61399999999993,
          "velocity": 0.7874015748031497,
          "duration": 0.04425000000000523
        },
        {
          "name": "F#6",
          "midi": 90,
          "time": 67.61399999999993,
          "velocity": 0.7874015748031497,
          "duration": 0.04425000000000523
        },
        {
          "name": "C#7",
          "midi": 97,
          "time": 67.61399999999993,
          "velocity": 0.7874015748031497,
          "duration": 0.04425000000000523
        },
        {
          "name": "F#7",
          "midi": 102,
          "time": 67.61399999999993,
          "velocity": 0.7874015748031497,
          "duration": 0.04425000000000523
        },
        {
          "name": "C7",
          "midi": 96,
          "time": 67.79099999999994,
          "velocity": 0.7874015748031497,
          "duration": 0.04425000000000523
        },
        {
          "name": "F#7",
          "midi": 102,
          "time": 67.79099999999994,
          "velocity": 0.7874015748031497,
          "duration": 0.04425000000000523
        },
        {
          "name": "C4",
          "midi": 60,
          "time": 67.96799999999995,
          "velocity": 0.7874015748031497,
          "duration": 0.5295250000000067
        },
        {
          "name": "F#4",
          "midi": 66,
          "time": 67.96799999999995,
          "velocity": 0.7874015748031497,
          "duration": 0.5295250000000067
        },
        {
          "name": "C5",
          "midi": 72,
          "time": 67.96799999999995,
          "velocity": 0.7874015748031497,
          "duration": 0.5295250000000067
        },
        {
          "name": "C6",
          "midi": 84,
          "time": 67.96799999999995,
          "velocity": 0.7874015748031497,
          "duration": 0.5295250000000067
        },
        {
          "name": "C7",
          "midi": 96,
          "time": 67.96799999999995,
          "velocity": 0.7874015748031497,
          "duration": 0.5295250000000067
        },
        {
          "name": "C#4",
          "midi": 61,
          "time": 68.49973749999995,
          "velocity": 0.7874015748031497,
          "duration": 0.5302624999999921
        },
        {
          "name": "F#4",
          "midi": 66,
          "time": 68.49973749999995,
          "velocity": 0.7874015748031497,
          "duration": 0.5302624999999921
        },
        {
          "name": "C5",
          "midi": 72,
          "time": 68.49973749999995,
          "velocity": 0.7874015748031497,
          "duration": 0.5280499999999932
        },
        {
          "name": "F#5",
          "midi": 78,
          "time": 68.49973749999995,
          "velocity": 0.7874015748031497,
          "duration": 0.5280499999999932
        },
        {
          "name": "C6",
          "midi": 84,
          "time": 68.49973749999995,
          "velocity": 0.7874015748031497,
          "duration": 0.5280499999999932
        },
        {
          "name": "F#6",
          "midi": 90,
          "time": 68.49973749999995,
          "velocity": 0.7874015748031497,
          "duration": 0.5280499999999932
        },
        {
          "name": "C7",
          "midi": 96,
          "time": 68.49973749999995,
          "velocity": 0.7874015748031497,
          "duration": 0.5280499999999932
        },
        {
          "name": "F#7",
          "midi": 102,
          "time": 68.49973749999995,
          "velocity": 0.7874015748031497,
          "duration": 0.5280499999999932
        },
        {
          "name": "C5",
          "midi": 72,
          "time": 69.02999999999994,
          "velocity": 0.7874015748031497,
          "duration": 0.04425000000000523
        },
        {
          "name": "C6",
          "midi": 84,
          "time": 69.02999999999994,
          "velocity": 0.7874015748031497,
          "duration": 0.04425000000000523
        },
        {
          "name": "C7",
          "midi": 96,
          "time": 69.02999999999994,
          "velocity": 0.7874015748031497,
          "duration": 0.04425000000000523
        },
        {
          "name": "C7",
          "midi": 96,
          "time": 69.20699999999995,
          "velocity": 0.7874015748031497,
          "duration": 0.04425000000000523
        },
        {
          "name": "F#7",
          "midi": 102,
          "time": 69.20699999999995,
          "velocity": 0.7874015748031497,
          "duration": 0.04425000000000523
        },
        {
          "name": "C4",
          "midi": 60,
          "time": 69.38399999999996,
          "velocity": 0.7874015748031497,
          "duration": 0.5287875000000071
        },
        {
          "name": "F#4",
          "midi": 66,
          "time": 69.38399999999996,
          "velocity": 0.7874015748031497,
          "duration": 0.5287875000000071
        },
        {
          "name": "C#5",
          "midi": 73,
          "time": 69.38399999999996,
          "velocity": 0.7874015748031497,
          "duration": 0.5287875000000071
        },
        {
          "name": "F#5",
          "midi": 78,
          "time": 69.38399999999996,
          "velocity": 0.7874015748031497,
          "duration": 0.5287875000000071
        },
        {
          "name": "C#6",
          "midi": 85,
          "time": 69.38399999999996,
          "velocity": 0.7874015748031497,
          "duration": 0.5287875000000071
        },
        {
          "name": "F#6",
          "midi": 90,
          "time": 69.38399999999996,
          "velocity": 0.7874015748031497,
          "duration": 0.5287875000000071
        },
        {
          "name": "C#7",
          "midi": 97,
          "time": 69.38399999999996,
          "velocity": 0.7874015748031497,
          "duration": 0.5287875000000071
        },
        {
          "name": "F#7",
          "midi": 102,
          "time": 69.38399999999996,
          "velocity": 0.7874015748031497,
          "duration": 0.5287875000000071
        },
        {
          "name": "D4",
          "midi": 62,
          "time": 69.91499999999996,
          "velocity": 0.7874015748031497,
          "duration": 0.04425000000000523
        },
        {
          "name": "F#4",
          "midi": 66,
          "time": 69.91499999999996,
          "velocity": 0.7874015748031497,
          "duration": 0.04425000000000523
        },
        {
          "name": "D5",
          "midi": 74,
          "time": 69.91499999999996,
          "velocity": 0.7874015748031497,
          "duration": 0.04425000000000523
        },
        {
          "name": "F#5",
          "midi": 78,
          "time": 69.91499999999996,
          "velocity": 0.7874015748031497,
          "duration": 0.04425000000000523
        },
        {
          "name": "D6",
          "midi": 86,
          "time": 69.91499999999996,
          "velocity": 0.7874015748031497,
          "duration": 0.04425000000000523
        },
        {
          "name": "F#6",
          "midi": 90,
          "time": 69.91499999999996,
          "velocity": 0.7874015748031497,
          "duration": 0.04425000000000523
        },
        {
          "name": "D7",
          "midi": 98,
          "time": 69.91499999999996,
          "velocity": 0.7874015748031497,
          "duration": 0.04425000000000523
        },
        {
          "name": "F#7",
          "midi": 102,
          "time": 69.91499999999996,
          "velocity": 0.7874015748031497,
          "duration": 0.04425000000000523
        },
        {
          "name": "D5",
          "midi": 74,
          "time": 70.26899999999996,
          "velocity": 0.7874015748031497,
          "duration": 0.043512500000005616
        },
        {
          "name": "F#5",
          "midi": 78,
          "time": 70.26899999999996,
          "velocity": 0.7874015748031497,
          "duration": 0.043512500000005616
        },
        {
          "name": "D6",
          "midi": 86,
          "time": 70.26899999999996,
          "velocity": 0.7874015748031497,
          "duration": 0.043512500000005616
        },
        {
          "name": "F#6",
          "midi": 90,
          "time": 70.26899999999996,
          "velocity": 0.7874015748031497,
          "duration": 0.043512500000005616
        },
        {
          "name": "D7",
          "midi": 98,
          "time": 70.26899999999996,
          "velocity": 0.7874015748031497,
          "duration": 0.043512500000005616
        },
        {
          "name": "F#7",
          "midi": 102,
          "time": 70.26899999999996,
          "velocity": 0.7874015748031497,
          "duration": 0.043512500000005616
        },
        {
          "name": "G#8",
          "midi": 116,
          "time": 70.44599999999997,
          "velocity": 0.7874015748031497,
          "duration": 2.8320000000000505
        },
        {
          "name": "C#4",
          "midi": 61,
          "time": 70.44599999999997,
          "velocity": 0.7874015748031497,
          "duration": 0.043512500000005616
        },
        {
          "name": "F#4",
          "midi": 66,
          "time": 70.44599999999997,
          "velocity": 0.7874015748031497,
          "duration": 0.043512500000005616
        },
        {
          "name": "C#5",
          "midi": 73,
          "time": 70.44599999999997,
          "velocity": 0.7874015748031497,
          "duration": 0.043512500000005616
        },
        {
          "name": "F5",
          "midi": 77,
          "time": 70.44599999999997,
          "velocity": 0.7874015748031497,
          "duration": 0.043512500000005616
        },
        {
          "name": "C#6",
          "midi": 85,
          "time": 70.44599999999997,
          "velocity": 0.7874015748031497,
          "duration": 0.043512500000005616
        },
        {
          "name": "F6",
          "midi": 89,
          "time": 70.44599999999997,
          "velocity": 0.7874015748031497,
          "duration": 0.043512500000005616
        },
        {
          "name": "C#7",
          "midi": 97,
          "time": 70.44599999999997,
          "velocity": 0.7874015748031497,
          "duration": 0.043512500000005616
        },
        {
          "name": "F#7",
          "midi": 102,
          "time": 70.44599999999997,
          "velocity": 0.7874015748031497,
          "duration": 0.043512500000005616
        },
        {
          "name": "D7",
          "midi": 98,
          "time": 70.62299999999998,
          "velocity": 0.7874015748031497,
          "duration": 0.043512500000005616
        },
        {
          "name": "F#7",
          "midi": 102,
          "time": 70.62299999999998,
          "velocity": 0.7874015748031497,
          "duration": 0.043512500000005616
        },
        {
          "name": "D4",
          "midi": 62,
          "time": 70.79999999999998,
          "velocity": 0.7874015748031497,
          "duration": 0.5295250000000067
        },
        {
          "name": "F#4",
          "midi": 66,
          "time": 70.79999999999998,
          "velocity": 0.7874015748031497,
          "duration": 0.5295250000000067
        },
        {
          "name": "D#5",
          "midi": 75,
          "time": 70.79999999999998,
          "velocity": 0.7874015748031497,
          "duration": 0.5295250000000067
        },
        {
          "name": "F#5",
          "midi": 78,
          "time": 70.79999999999998,
          "velocity": 0.7874015748031497,
          "duration": 0.5295250000000067
        },
        {
          "name": "E6",
          "midi": 88,
          "time": 70.79999999999998,
          "velocity": 0.7874015748031497,
          "duration": 0.5295250000000067
        },
        {
          "name": "F#6",
          "midi": 90,
          "time": 70.79999999999998,
          "velocity": 0.7874015748031497,
          "duration": 0.5295250000000067
        },
        {
          "name": "E7",
          "midi": 100,
          "time": 70.79999999999998,
          "velocity": 0.7874015748031497,
          "duration": 0.5295250000000067
        },
        {
          "name": "F#7",
          "midi": 102,
          "time": 70.79999999999998,
          "velocity": 0.7874015748031497,
          "duration": 0.5295250000000067
        },
        {
          "name": "C#4",
          "midi": 61,
          "time": 71.33173749999999,
          "velocity": 0.7874015748031497,
          "duration": 0.5302624999999921
        },
        {
          "name": "F#4",
          "midi": 66,
          "time": 71.33173749999999,
          "velocity": 0.7874015748031497,
          "duration": 0.5302624999999921
        },
        {
          "name": "D5",
          "midi": 74,
          "time": 71.33173749999999,
          "velocity": 0.7874015748031497,
          "duration": 0.5302624999999921
        },
        {
          "name": "F#5",
          "midi": 78,
          "time": 71.33173749999999,
          "velocity": 0.7874015748031497,
          "duration": 0.5302624999999921
        },
        {
          "name": "D#6",
          "midi": 87,
          "time": 71.33173749999999,
          "velocity": 0.7874015748031497,
          "duration": 0.5302624999999921
        },
        {
          "name": "F#6",
          "midi": 90,
          "time": 71.33173749999999,
          "velocity": 0.7874015748031497,
          "duration": 0.5302624999999921
        },
        {
          "name": "D#7",
          "midi": 99,
          "time": 71.33173749999999,
          "velocity": 0.7874015748031497,
          "duration": 0.5280499999999932
        },
        {
          "name": "F#7",
          "midi": 102,
          "time": 71.33173749999999,
          "velocity": 0.7874015748031497,
          "duration": 0.5280499999999932
        },
        {
          "name": "C7",
          "midi": 96,
          "time": 71.86199999999998,
          "velocity": 0.7874015748031497,
          "duration": 0.04425000000000523
        },
        {
          "name": "F#7",
          "midi": 102,
          "time": 71.86199999999998,
          "velocity": 0.7874015748031497,
          "duration": 0.04425000000000523
        },
        {
          "name": "D#6",
          "midi": 87,
          "time": 72.03826249999999,
          "velocity": 0.7874015748031497,
          "duration": 0.04425000000000523
        },
        {
          "name": "F#6",
          "midi": 90,
          "time": 72.03826249999999,
          "velocity": 0.7874015748031497,
          "duration": 0.04425000000000523
        },
        {
          "name": "D#7",
          "midi": 99,
          "time": 72.03826249999999,
          "velocity": 0.7874015748031497,
          "duration": 0.04425000000000523
        },
        {
          "name": "F#7",
          "midi": 102,
          "time": 72.03826249999999,
          "velocity": 0.7874015748031497,
          "duration": 0.04425000000000523
        },
        {
          "name": "D4",
          "midi": 62,
          "time": 72.216,
          "velocity": 0.7874015748031497,
          "duration": 0.04425000000000523
        },
        {
          "name": "F#4",
          "midi": 66,
          "time": 72.216,
          "velocity": 0.7874015748031497,
          "duration": 0.04425000000000523
        },
        {
          "name": "C#5",
          "midi": 73,
          "time": 72.216,
          "velocity": 0.7874015748031497,
          "duration": 0.04425000000000523
        },
        {
          "name": "F#5",
          "midi": 78,
          "time": 72.216,
          "velocity": 0.7874015748031497,
          "duration": 0.04425000000000523
        },
        {
          "name": "D6",
          "midi": 86,
          "time": 72.216,
          "velocity": 0.7874015748031497,
          "duration": 0.04425000000000523
        },
        {
          "name": "F6",
          "midi": 89,
          "time": 72.216,
          "velocity": 0.7874015748031497,
          "duration": 0.04425000000000523
        },
        {
          "name": "D7",
          "midi": 98,
          "time": 72.216,
          "velocity": 0.7874015748031497,
          "duration": 0.04425000000000523
        },
        {
          "name": "F#7",
          "midi": 102,
          "time": 72.216,
          "velocity": 0.7874015748031497,
          "duration": 0.04425000000000523
        },
        {
          "name": "C7",
          "midi": 96,
          "time": 72.393,
          "velocity": 0.7874015748031497,
          "duration": 0.04425000000000523
        },
        {
          "name": "F#7",
          "midi": 102,
          "time": 72.393,
          "velocity": 0.7874015748031497,
          "duration": 0.04425000000000523
        },
        {
          "name": "C#5",
          "midi": 73,
          "time": 72.57000000000001,
          "velocity": 0.7874015748031497,
          "duration": 0.04425000000000523
        },
        {
          "name": "F#5",
          "midi": 78,
          "time": 72.57000000000001,
          "velocity": 0.7874015748031497,
          "duration": 0.04425000000000523
        },
        {
          "name": "D6",
          "midi": 86,
          "time": 72.57000000000001,
          "velocity": 0.7874015748031497,
          "duration": 0.04425000000000523
        },
        {
          "name": "F#6",
          "midi": 90,
          "time": 72.57000000000001,
          "velocity": 0.7874015748031497,
          "duration": 0.04425000000000523
        },
        {
          "name": "D7",
          "midi": 98,
          "time": 72.57000000000001,
          "velocity": 0.7874015748031497,
          "duration": 0.04425000000000523
        },
        {
          "name": "F#7",
          "midi": 102,
          "time": 72.57000000000001,
          "velocity": 0.7874015748031497,
          "duration": 0.04425000000000523
        },
        {
          "name": "C4",
          "midi": 60,
          "time": 72.74773750000001,
          "velocity": 0.7874015748031497,
          "duration": 0.04425000000000523
        },
        {
          "name": "F#4",
          "midi": 66,
          "time": 72.74773750000001,
          "velocity": 0.7874015748031497,
          "duration": 0.04425000000000523
        },
        {
          "name": "C5",
          "midi": 72,
          "time": 72.74773750000001,
          "velocity": 0.7874015748031497,
          "duration": 0.04425000000000523
        },
        {
          "name": "F5",
          "midi": 77,
          "time": 72.74773750000001,
          "velocity": 0.7874015748031497,
          "duration": 0.04425000000000523
        },
        {
          "name": "C#6",
          "midi": 85,
          "time": 72.74773750000001,
          "velocity": 0.7874015748031497,
          "duration": 0.04425000000000523
        },
        {
          "name": "F6",
          "midi": 89,
          "time": 72.74773750000001,
          "velocity": 0.7874015748031497,
          "duration": 0.04425000000000523
        },
        {
          "name": "C#7",
          "midi": 97,
          "time": 72.74773750000001,
          "velocity": 0.7874015748031497,
          "duration": 0.04425000000000523
        },
        {
          "name": "F#7",
          "midi": 102,
          "time": 72.74773750000001,
          "velocity": 0.7874015748031497,
          "duration": 0.04425000000000523
        },
        {
          "name": "C4",
          "midi": 60,
          "time": 73.27800000000002,
          "velocity": 0.7874015748031497,
          "duration": 0.04498750000000484
        },
        {
          "name": "F#4",
          "midi": 66,
          "time": 73.27800000000002,
          "velocity": 0.7874015748031497,
          "duration": 0.04498750000000484
        },
        {
          "name": "C5",
          "midi": 72,
          "time": 73.27800000000002,
          "velocity": 0.7874015748031497,
          "duration": 0.04498750000000484
        },
        {
          "name": "F#5",
          "midi": 78,
          "time": 73.27800000000002,
          "velocity": 0.7874015748031497,
          "duration": 0.04498750000000484
        },
        {
          "name": "C#6",
          "midi": 85,
          "time": 73.27800000000002,
          "velocity": 0.7874015748031497,
          "duration": 0.35178750000000036
        },
        {
          "name": "F#6",
          "midi": 90,
          "time": 73.27800000000002,
          "velocity": 0.7874015748031497,
          "duration": 0.35178750000000036
        },
        {
          "name": "C#7",
          "midi": 97,
          "time": 73.27800000000002,
          "velocity": 0.7874015748031497,
          "duration": 0.35178750000000036
        },
        {
          "name": "F#7",
          "midi": 102,
          "time": 73.27800000000002,
          "velocity": 0.7874015748031497,
          "duration": 0.35178750000000036
        },
        {
          "name": "D4",
          "midi": 62,
          "time": 73.63200000000002,
          "velocity": 0.7874015748031497,
          "duration": 5.661787500000003
        },
        {
          "name": "F#4",
          "midi": 66,
          "time": 73.63200000000002,
          "velocity": 0.7874015748031497,
          "duration": 5.661787500000003
        },
        {
          "name": "D5",
          "midi": 74,
          "time": 73.63200000000002,
          "velocity": 0.7874015748031497,
          "duration": 5.661787500000003
        },
        {
          "name": "F#5",
          "midi": 78,
          "time": 73.63200000000002,
          "velocity": 0.7874015748031497,
          "duration": 5.661787500000003
        },
        {
          "name": "D6",
          "midi": 86,
          "time": 73.63200000000002,
          "velocity": 0.7874015748031497,
          "duration": 5.661787500000003
        },
        {
          "name": "F#6",
          "midi": 90,
          "time": 73.63200000000002,
          "velocity": 0.7874015748031497,
          "duration": 5.661787500000003
        },
        {
          "name": "D7",
          "midi": 98,
          "time": 73.63200000000002,
          "velocity": 0.7874015748031497,
          "duration": 5.661787500000003
        },
        {
          "name": "F#7",
          "midi": 102,
          "time": 73.63200000000002,
          "velocity": 0.7874015748031497,
          "duration": 5.661787500000003
        },
        {
          "name": "C#4",
          "midi": 61,
          "time": 79.29600000000002,
          "velocity": 0.7874015748031497,
          "duration": 1.413787499999998
        },
        {
          "name": "F#4",
          "midi": 66,
          "time": 79.29600000000002,
          "velocity": 0.7874015748031497,
          "duration": 1.413787499999998
        },
        {
          "name": "C#5",
          "midi": 73,
          "time": 79.29600000000002,
          "velocity": 0.7874015748031497,
          "duration": 1.413787499999998
        },
        {
          "name": "F#5",
          "midi": 78,
          "time": 79.29600000000002,
          "velocity": 0.7874015748031497,
          "duration": 1.413787499999998
        },
        {
          "name": "C#6",
          "midi": 85,
          "time": 79.29600000000002,
          "velocity": 0.7874015748031497,
          "duration": 1.413787499999998
        },
        {
          "name": "F#6",
          "midi": 90,
          "time": 79.29600000000002,
          "velocity": 0.7874015748031497,
          "duration": 1.413787499999998
        },
        {
          "name": "C#7",
          "midi": 97,
          "time": 79.29600000000002,
          "velocity": 0.7874015748031497,
          "duration": 1.413787499999998
        },
        {
          "name": "F#7",
          "midi": 102,
          "time": 79.29600000000002,
          "velocity": 0.7874015748031497,
          "duration": 1.413787499999998
        },
        {
          "name": "C4",
          "midi": 60,
          "time": 80.71200000000002,
          "velocity": 0.7874015748031497,
          "duration": 1.0597874999999988
        },
        {
          "name": "F#4",
          "midi": 66,
          "time": 80.71200000000002,
          "velocity": 0.7874015748031497,
          "duration": 1.0597874999999988
        },
        {
          "name": "C5",
          "midi": 72,
          "time": 80.71200000000002,
          "velocity": 0.7874015748031497,
          "duration": 1.0597874999999988
        },
        {
          "name": "F#5",
          "midi": 78,
          "time": 80.71200000000002,
          "velocity": 0.7874015748031497,
          "duration": 1.0597874999999988
        },
        {
          "name": "C6",
          "midi": 84,
          "time": 80.71200000000002,
          "velocity": 0.7874015748031497,
          "duration": 1.0597874999999988
        },
        {
          "name": "F#6",
          "midi": 90,
          "time": 80.71200000000002,
          "velocity": 0.7874015748031497,
          "duration": 1.0597874999999988
        },
        {
          "name": "C7",
          "midi": 96,
          "time": 80.71200000000002,
          "velocity": 0.7874015748031497,
          "duration": 1.0597874999999988
        },
        {
          "name": "F#7",
          "midi": 102,
          "time": 80.71200000000002,
          "velocity": 0.7874015748031497,
          "duration": 1.0597874999999988
        },
        {
          "name": "D4",
          "midi": 62,
          "time": 81.77400000000002,
          "velocity": 0.7874015748031497,
          "duration": 1.7677874999999972
        },
        {
          "name": "F#4",
          "midi": 66,
          "time": 81.77400000000002,
          "velocity": 0.7874015748031497,
          "duration": 1.7677874999999972
        },
        {
          "name": "D5",
          "midi": 74,
          "time": 81.77400000000002,
          "velocity": 0.7874015748031497,
          "duration": 1.7677874999999972
        },
        {
          "name": "F#5",
          "midi": 78,
          "time": 81.77400000000002,
          "velocity": 0.7874015748031497,
          "duration": 1.7677874999999972
        },
        {
          "name": "D6",
          "midi": 86,
          "time": 81.77400000000002,
          "velocity": 0.7874015748031497,
          "duration": 1.7677874999999972
        },
        {
          "name": "F#6",
          "midi": 90,
          "time": 81.77400000000002,
          "velocity": 0.7874015748031497,
          "duration": 1.7677874999999972
        },
        {
          "name": "D7",
          "midi": 98,
          "time": 81.77400000000002,
          "velocity": 0.7874015748031497,
          "duration": 1.7677874999999972
        },
        {
          "name": "F#7",
          "midi": 102,
          "time": 81.77400000000002,
          "velocity": 0.7874015748031497,
          "duration": 1.7677874999999972
        },
        {
          "name": "C#4",
          "midi": 61,
          "time": 83.54400000000001,
          "velocity": 0.7874015748031497,
          "duration": 1.413787499999998
        },
        {
          "name": "F#4",
          "midi": 66,
          "time": 83.54400000000001,
          "velocity": 0.7874015748031497,
          "duration": 1.413787499999998
        },
        {
          "name": "C#5",
          "midi": 73,
          "time": 83.54400000000001,
          "velocity": 0.7874015748031497,
          "duration": 1.413787499999998
        },
        {
          "name": "F#5",
          "midi": 78,
          "time": 83.54400000000001,
          "velocity": 0.7874015748031497,
          "duration": 1.413787499999998
        },
        {
          "name": "C#6",
          "midi": 85,
          "time": 83.54400000000001,
          "velocity": 0.7874015748031497,
          "duration": 1.413787499999998
        },
        {
          "name": "F#6",
          "midi": 90,
          "time": 83.54400000000001,
          "velocity": 0.7874015748031497,
          "duration": 1.413787499999998
        },
        {
          "name": "C#7",
          "midi": 97,
          "time": 83.54400000000001,
          "velocity": 0.7874015748031497,
          "duration": 1.413787499999998
        },
        {
          "name": "F#7",
          "midi": 102,
          "time": 83.54400000000001,
          "velocity": 0.7874015748031497,
          "duration": 1.413787499999998
        },
        {
          "name": "C4",
          "midi": 60,
          "time": 84.96000000000001,
          "velocity": 0.7874015748031497,
          "duration": 1.413787499999998
        },
        {
          "name": "F#4",
          "midi": 66,
          "time": 84.96000000000001,
          "velocity": 0.7874015748031497,
          "duration": 1.413787499999998
        },
        {
          "name": "C5",
          "midi": 72,
          "time": 84.96000000000001,
          "velocity": 0.7874015748031497,
          "duration": 1.413787499999998
        },
        {
          "name": "F#5",
          "midi": 78,
          "time": 84.96000000000001,
          "velocity": 0.7874015748031497,
          "duration": 1.413787499999998
        },
        {
          "name": "C6",
          "midi": 84,
          "time": 84.96000000000001,
          "velocity": 0.7874015748031497,
          "duration": 1.413787499999998
        },
        {
          "name": "F#6",
          "midi": 90,
          "time": 84.96000000000001,
          "velocity": 0.7874015748031497,
          "duration": 1.413787499999998
        },
        {
          "name": "C7",
          "midi": 96,
          "time": 84.96000000000001,
          "velocity": 0.7874015748031497,
          "duration": 1.413787499999998
        },
        {
          "name": "F#7",
          "midi": 102,
          "time": 84.96000000000001,
          "velocity": 0.7874015748031497,
          "duration": 1.413787499999998
        },
        {
          "name": "C#4",
          "midi": 61,
          "time": 86.376,
          "velocity": 0.7874015748031497,
          "duration": 1.413787499999998
        },
        {
          "name": "F#4",
          "midi": 66,
          "time": 86.376,
          "velocity": 0.7874015748031497,
          "duration": 1.413787499999998
        },
        {
          "name": "C#5",
          "midi": 73,
          "time": 86.376,
          "velocity": 0.7874015748031497,
          "duration": 1.413787499999998
        },
        {
          "name": "F#5",
          "midi": 78,
          "time": 86.376,
          "velocity": 0.7874015748031497,
          "duration": 1.413787499999998
        },
        {
          "name": "C#6",
          "midi": 85,
          "time": 86.376,
          "velocity": 0.7874015748031497,
          "duration": 1.413787499999998
        },
        {
          "name": "F#6",
          "midi": 90,
          "time": 86.376,
          "velocity": 0.7874015748031497,
          "duration": 1.413787499999998
        },
        {
          "name": "C#7",
          "midi": 97,
          "time": 86.376,
          "velocity": 0.7874015748031497,
          "duration": 1.413787499999998
        },
        {
          "name": "F#7",
          "midi": 102,
          "time": 86.376,
          "velocity": 0.7874015748031497,
          "duration": 1.413787499999998
        },
        {
          "name": "C4",
          "midi": 60,
          "time": 87.792,
          "velocity": 0.7874015748031497,
          "duration": 11.325787500000004
        },
        {
          "name": "F#4",
          "midi": 66,
          "time": 87.792,
          "velocity": 0.7874015748031497,
          "duration": 11.325787500000004
        },
        {
          "name": "C5",
          "midi": 72,
          "time": 87.792,
          "velocity": 0.7874015748031497,
          "duration": 11.325787500000004
        },
        {
          "name": "C6",
          "midi": 84,
          "time": 87.792,
          "velocity": 0.7874015748031497,
          "duration": 11.325787500000004
        },
        {
          "name": "C7",
          "midi": 96,
          "time": 87.792,
          "velocity": 0.7874015748031497,
          "duration": 11.325787500000004
        },
        {
          "name": "C4",
          "midi": 60,
          "time": 99.12,
          "velocity": 0.7874015748031497,
          "duration": 9.909787499999993
        },
        {
          "name": "F#4",
          "midi": 66,
          "time": 99.12,
          "velocity": 0.7874015748031497,
          "duration": 9.909787499999993
        },
        {
          "name": "C5",
          "midi": 72,
          "time": 99.12,
          "velocity": 0.7874015748031497,
          "duration": 9.909787499999993
        },
        {
          "name": "C6",
          "midi": 84,
          "time": 99.12,
          "velocity": 0.7874015748031497,
          "duration": 9.909787499999993
        },
        {
          "name": "C7",
          "midi": 96,
          "time": 99.12,
          "velocity": 0.7874015748031497,
          "duration": 9.909787499999993
        },
        {
          "name": "C4",
          "midi": 60,
          "time": 109.032,
          "velocity": 0.7874015748031497,
          "duration": 4.9552625000000035
        },
        {
          "name": "F#4",
          "midi": 66,
          "time": 109.032,
          "velocity": 0.7874015748031497,
          "duration": 4.9552625000000035
        },
        {
          "name": "C5",
          "midi": 72,
          "time": 109.032,
          "velocity": 0.7874015748031497,
          "duration": 4.9552625000000035
        },
        {
          "name": "C6",
          "midi": 84,
          "time": 109.032,
          "velocity": 0.7874015748031497,
          "duration": 4.9552625000000035
        },
        {
          "name": "C7",
          "midi": 96,
          "time": 109.032,
          "velocity": 0.7874015748031497,
          "duration": 4.9552625000000035
        },
        {
          "name": "G#8",
          "midi": 116,
          "time": 123.9,
          "velocity": 0.7874015748031497,
          "duration": 5.000250000000051
        },
        {
          "name": "D4",
          "midi": 62,
          "time": 123.9,
          "velocity": 0.7874015748031497,
          "duration": 0.04425000000000523
        },
        {
          "name": "F#4",
          "midi": 66,
          "time": 123.9,
          "velocity": 0.7874015748031497,
          "duration": 0.04425000000000523
        },
        {
          "name": "D#5",
          "midi": 75,
          "time": 123.9,
          "velocity": 0.7874015748031497,
          "duration": 0.04425000000000523
        },
        {
          "name": "F#5",
          "midi": 78,
          "time": 123.9,
          "velocity": 0.7874015748031497,
          "duration": 0.04425000000000523
        },
        {
          "name": "E6",
          "midi": 88,
          "time": 123.9,
          "velocity": 0.7874015748031497,
          "duration": 0.04425000000000523
        },
        {
          "name": "F#6",
          "midi": 90,
          "time": 123.9,
          "velocity": 0.7874015748031497,
          "duration": 0.04425000000000523
        },
        {
          "name": "E7",
          "midi": 100,
          "time": 123.9,
          "velocity": 0.7874015748031497,
          "duration": 0.04425000000000523
        },
        {
          "name": "F#7",
          "midi": 102,
          "time": 123.9,
          "velocity": 0.7874015748031497,
          "duration": 0.04425000000000523
        },
        {
          "name": "C#5",
          "midi": 73,
          "time": 124.07626250000001,
          "velocity": 0.7874015748031497,
          "duration": 0.04425000000000523
        },
        {
          "name": "F5",
          "midi": 77,
          "time": 124.07626250000001,
          "velocity": 0.7874015748031497,
          "duration": 0.04425000000000523
        },
        {
          "name": "D6",
          "midi": 86,
          "time": 124.07626250000001,
          "velocity": 0.7874015748031497,
          "duration": 0.04425000000000523
        },
        {
          "name": "F6",
          "midi": 89,
          "time": 124.07626250000001,
          "velocity": 0.7874015748031497,
          "duration": 0.04425000000000523
        },
        {
          "name": "D7",
          "midi": 98,
          "time": 124.07626250000001,
          "velocity": 0.7874015748031497,
          "duration": 0.04425000000000523
        },
        {
          "name": "F#7",
          "midi": 102,
          "time": 124.07626250000001,
          "velocity": 0.7874015748031497,
          "duration": 0.04425000000000523
        },
        {
          "name": "C#4",
          "midi": 61,
          "time": 124.25400000000002,
          "velocity": 0.7874015748031497,
          "duration": 0.04425000000000523
        },
        {
          "name": "F#4",
          "midi": 66,
          "time": 124.25400000000002,
          "velocity": 0.7874015748031497,
          "duration": 0.04425000000000523
        },
        {
          "name": "D5",
          "midi": 74,
          "time": 124.25400000000002,
          "velocity": 0.7874015748031497,
          "duration": 0.04425000000000523
        },
        {
          "name": "F5",
          "midi": 77,
          "time": 124.25400000000002,
          "velocity": 0.7874015748031497,
          "duration": 0.04425000000000523
        },
        {
          "name": "D#6",
          "midi": 87,
          "time": 124.25400000000002,
          "velocity": 0.7874015748031497,
          "duration": 0.04425000000000523
        },
        {
          "name": "F6",
          "midi": 89,
          "time": 124.25400000000002,
          "velocity": 0.7874015748031497,
          "duration": 0.04425000000000523
        },
        {
          "name": "D#7",
          "midi": 99,
          "time": 124.25400000000002,
          "velocity": 0.7874015748031497,
          "duration": 0.04425000000000523
        },
        {
          "name": "F#7",
          "midi": 102,
          "time": 124.25400000000002,
          "velocity": 0.7874015748031497,
          "duration": 0.04425000000000523
        },
        {
          "name": "D7",
          "midi": 98,
          "time": 124.43173750000003,
          "velocity": 0.7874015748031497,
          "duration": 0.04425000000000523
        },
        {
          "name": "F#7",
          "midi": 102,
          "time": 124.43173750000003,
          "velocity": 0.7874015748031497,
          "duration": 0.04425000000000523
        },
        {
          "name": "C#4",
          "midi": 61,
          "time": 124.60800000000003,
          "velocity": 0.7874015748031497,
          "duration": 0.043512500000005616
        },
        {
          "name": "F#4",
          "midi": 66,
          "time": 124.60800000000003,
          "velocity": 0.7874015748031497,
          "duration": 0.043512500000005616
        },
        {
          "name": "C#5",
          "midi": 73,
          "time": 124.60800000000003,
          "velocity": 0.7874015748031497,
          "duration": 0.043512500000005616
        },
        {
          "name": "F#5",
          "midi": 78,
          "time": 124.60800000000003,
          "velocity": 0.7874015748031497,
          "duration": 0.043512500000005616
        },
        {
          "name": "C#6",
          "midi": 85,
          "time": 124.60800000000003,
          "velocity": 0.7874015748031497,
          "duration": 0.043512500000005616
        },
        {
          "name": "F#6",
          "midi": 90,
          "time": 124.60800000000003,
          "velocity": 0.7874015748031497,
          "duration": 0.043512500000005616
        },
        {
          "name": "C#7",
          "midi": 97,
          "time": 124.60800000000003,
          "velocity": 0.7874015748031497,
          "duration": 0.043512500000005616
        },
        {
          "name": "F#7",
          "midi": 102,
          "time": 124.60800000000003,
          "velocity": 0.7874015748031497,
          "duration": 0.043512500000005616
        },
        {
          "name": "C4",
          "midi": 60,
          "time": 124.78573750000004,
          "velocity": 0.7874015748031497,
          "duration": 0.043512500000005616
        },
        {
          "name": "F4",
          "midi": 65,
          "time": 124.78573750000004,
          "velocity": 0.7874015748031497,
          "duration": 0.043512500000005616
        },
        {
          "name": "C5",
          "midi": 72,
          "time": 124.78573750000004,
          "velocity": 0.7874015748031497,
          "duration": 0.043512500000005616
        },
        {
          "name": "F5",
          "midi": 77,
          "time": 124.78573750000004,
          "velocity": 0.7874015748031497,
          "duration": 0.043512500000005616
        },
        {
          "name": "C6",
          "midi": 84,
          "time": 124.78573750000004,
          "velocity": 0.7874015748031497,
          "duration": 0.043512500000005616
        },
        {
          "name": "F6",
          "midi": 89,
          "time": 124.78573750000004,
          "velocity": 0.7874015748031497,
          "duration": 0.043512500000005616
        },
        {
          "name": "C7",
          "midi": 96,
          "time": 124.78573750000004,
          "velocity": 0.7874015748031497,
          "duration": 0.35178750000000036
        },
        {
          "name": "F#7",
          "midi": 102,
          "time": 124.78573750000004,
          "velocity": 0.7874015748031497,
          "duration": 0.35178750000000036
        },
        {
          "name": "D4",
          "midi": 62,
          "time": 125.13973750000004,
          "velocity": 0.7874015748031497,
          "duration": 0.043512500000005616
        },
        {
          "name": "F#4",
          "midi": 66,
          "time": 125.13973750000004,
          "velocity": 0.7874015748031497,
          "duration": 0.043512500000005616
        },
        {
          "name": "D#5",
          "midi": 75,
          "time": 125.13973750000004,
          "velocity": 0.7874015748031497,
          "duration": 0.043512500000005616
        },
        {
          "name": "F#5",
          "midi": 78,
          "time": 125.13973750000004,
          "velocity": 0.7874015748031497,
          "duration": 0.043512500000005616
        },
        {
          "name": "E6",
          "midi": 88,
          "time": 125.13973750000004,
          "velocity": 0.7874015748031497,
          "duration": 0.35031250000000114
        },
        {
          "name": "F#6",
          "midi": 90,
          "time": 125.13973750000004,
          "velocity": 0.7874015748031497,
          "duration": 0.35031250000000114
        },
        {
          "name": "E7",
          "midi": 100,
          "time": 125.13973750000004,
          "velocity": 0.7874015748031497,
          "duration": 0.35031250000000114
        },
        {
          "name": "F#7",
          "midi": 102,
          "time": 125.13973750000004,
          "velocity": 0.7874015748031497,
          "duration": 0.35031250000000114
        },
        {
          "name": "C#5",
          "midi": 73,
          "time": 125.49226250000004,
          "velocity": 0.7874015748031497,
          "duration": 0.04425000000000523
        },
        {
          "name": "F#5",
          "midi": 78,
          "time": 125.49226250000004,
          "velocity": 0.7874015748031497,
          "duration": 0.04425000000000523
        },
        {
          "name": "D6",
          "midi": 86,
          "time": 125.49226250000004,
          "velocity": 0.7874015748031497,
          "duration": 0.04425000000000523
        },
        {
          "name": "F#6",
          "midi": 90,
          "time": 125.49226250000004,
          "velocity": 0.7874015748031497,
          "duration": 0.04425000000000523
        },
        {
          "name": "D7",
          "midi": 98,
          "time": 125.49226250000004,
          "velocity": 0.7874015748031497,
          "duration": 0.04425000000000523
        },
        {
          "name": "F#7",
          "midi": 102,
          "time": 125.49226250000004,
          "velocity": 0.7874015748031497,
          "duration": 0.04425000000000523
        },
        {
          "name": "C#4",
          "midi": 61,
          "time": 125.67000000000004,
          "velocity": 0.7874015748031497,
          "duration": 0.04425000000000523
        },
        {
          "name": "F#4",
          "midi": 66,
          "time": 125.67000000000004,
          "velocity": 0.7874015748031497,
          "duration": 0.04425000000000523
        },
        {
          "name": "D5",
          "midi": 74,
          "time": 125.67000000000004,
          "velocity": 0.7874015748031497,
          "duration": 0.04425000000000523
        },
        {
          "name": "F5",
          "midi": 77,
          "time": 125.67000000000004,
          "velocity": 0.7874015748031497,
          "duration": 0.04425000000000523
        },
        {
          "name": "D#6",
          "midi": 87,
          "time": 125.67000000000004,
          "velocity": 0.7874015748031497,
          "duration": 0.04425000000000523
        },
        {
          "name": "F6",
          "midi": 89,
          "time": 125.67000000000004,
          "velocity": 0.7874015748031497,
          "duration": 0.04425000000000523
        },
        {
          "name": "D#7",
          "midi": 99,
          "time": 125.67000000000004,
          "velocity": 0.7874015748031497,
          "duration": 0.04425000000000523
        },
        {
          "name": "F#7",
          "midi": 102,
          "time": 125.67000000000004,
          "velocity": 0.7874015748031497,
          "duration": 0.04425000000000523
        },
        {
          "name": "D7",
          "midi": 98,
          "time": 125.84700000000005,
          "velocity": 0.7874015748031497,
          "duration": 0.04425000000000523
        },
        {
          "name": "F#7",
          "midi": 102,
          "time": 125.84700000000005,
          "velocity": 0.7874015748031497,
          "duration": 0.04425000000000523
        },
        {
          "name": "C4",
          "midi": 60,
          "time": 126.02400000000006,
          "velocity": 0.7874015748031497,
          "duration": 0.043512500000005616
        },
        {
          "name": "F#4",
          "midi": 66,
          "time": 126.02400000000006,
          "velocity": 0.7874015748031497,
          "duration": 0.043512500000005616
        },
        {
          "name": "C#5",
          "midi": 73,
          "time": 126.02400000000006,
          "velocity": 0.7874015748031497,
          "duration": 0.043512500000005616
        },
        {
          "name": "F#5",
          "midi": 78,
          "time": 126.02400000000006,
          "velocity": 0.7874015748031497,
          "duration": 0.043512500000005616
        },
        {
          "name": "C#6",
          "midi": 85,
          "time": 126.02400000000006,
          "velocity": 0.7874015748031497,
          "duration": 0.043512500000005616
        },
        {
          "name": "F#6",
          "midi": 90,
          "time": 126.02400000000006,
          "velocity": 0.7874015748031497,
          "duration": 0.043512500000005616
        },
        {
          "name": "C#7",
          "midi": 97,
          "time": 126.02400000000006,
          "velocity": 0.7874015748031497,
          "duration": 0.043512500000005616
        },
        {
          "name": "F#7",
          "midi": 102,
          "time": 126.02400000000006,
          "velocity": 0.7874015748031497,
          "duration": 0.043512500000005616
        },
        {
          "name": "C6",
          "midi": 84,
          "time": 126.20100000000006,
          "velocity": 0.7874015748031497,
          "duration": 0.043512500000005616
        },
        {
          "name": "F6",
          "midi": 89,
          "time": 126.20100000000006,
          "velocity": 0.7874015748031497,
          "duration": 0.043512500000005616
        },
        {
          "name": "C7",
          "midi": 96,
          "time": 126.20100000000006,
          "velocity": 0.7874015748031497,
          "duration": 0.043512500000005616
        },
        {
          "name": "F#7",
          "midi": 102,
          "time": 126.20100000000006,
          "velocity": 0.7874015748031497,
          "duration": 0.043512500000005616
        },
        {
          "name": "D4",
          "midi": 62,
          "time": 126.37800000000007,
          "velocity": 0.7874015748031497,
          "duration": 0.04498750000000484
        },
        {
          "name": "F#4",
          "midi": 66,
          "time": 126.37800000000007,
          "velocity": 0.7874015748031497,
          "duration": 0.04498750000000484
        },
        {
          "name": "D#5",
          "midi": 75,
          "time": 126.37800000000007,
          "velocity": 0.7874015748031497,
          "duration": 0.04498750000000484
        },
        {
          "name": "F#5",
          "midi": 78,
          "time": 126.37800000000007,
          "velocity": 0.7874015748031497,
          "duration": 0.04498750000000484
        },
        {
          "name": "E6",
          "midi": 88,
          "time": 126.37800000000007,
          "velocity": 0.7874015748031497,
          "duration": 0.04498750000000484
        },
        {
          "name": "F#6",
          "midi": 90,
          "time": 126.37800000000007,
          "velocity": 0.7874015748031497,
          "duration": 0.04498750000000484
        },
        {
          "name": "E7",
          "midi": 100,
          "time": 126.37800000000007,
          "velocity": 0.7874015748031497,
          "duration": 0.04498750000000484
        },
        {
          "name": "F#7",
          "midi": 102,
          "time": 126.37800000000007,
          "velocity": 0.7874015748031497,
          "duration": 0.04498750000000484
        },
        {
          "name": "C#5",
          "midi": 73,
          "time": 126.55573750000008,
          "velocity": 0.7874015748031497,
          "duration": 0.043512500000005616
        },
        {
          "name": "F5",
          "midi": 77,
          "time": 126.55573750000008,
          "velocity": 0.7874015748031497,
          "duration": 0.043512500000005616
        },
        {
          "name": "D6",
          "midi": 86,
          "time": 126.55573750000008,
          "velocity": 0.7874015748031497,
          "duration": 0.043512500000005616
        },
        {
          "name": "F6",
          "midi": 89,
          "time": 126.55573750000008,
          "velocity": 0.7874015748031497,
          "duration": 0.043512500000005616
        },
        {
          "name": "D7",
          "midi": 98,
          "time": 126.55573750000008,
          "velocity": 0.7874015748031497,
          "duration": 0.043512500000005616
        },
        {
          "name": "F#7",
          "midi": 102,
          "time": 126.55573750000008,
          "velocity": 0.7874015748031497,
          "duration": 0.043512500000005616
        },
        {
          "name": "C#4",
          "midi": 61,
          "time": 126.73200000000008,
          "velocity": 0.7874015748031497,
          "duration": 0.043512500000005616
        },
        {
          "name": "F#4",
          "midi": 66,
          "time": 126.73200000000008,
          "velocity": 0.7874015748031497,
          "duration": 0.043512500000005616
        },
        {
          "name": "D5",
          "midi": 74,
          "time": 126.73200000000008,
          "velocity": 0.7874015748031497,
          "duration": 0.043512500000005616
        },
        {
          "name": "F5",
          "midi": 77,
          "time": 126.73200000000008,
          "velocity": 0.7874015748031497,
          "duration": 0.043512500000005616
        },
        {
          "name": "D#6",
          "midi": 87,
          "time": 126.73200000000008,
          "velocity": 0.7874015748031497,
          "duration": 0.043512500000005616
        },
        {
          "name": "F6",
          "midi": 89,
          "time": 126.73200000000008,
          "velocity": 0.7874015748031497,
          "duration": 0.043512500000005616
        },
        {
          "name": "D#7",
          "midi": 99,
          "time": 126.73200000000008,
          "velocity": 0.7874015748031497,
          "duration": 0.043512500000005616
        },
        {
          "name": "F#7",
          "midi": 102,
          "time": 126.73200000000008,
          "velocity": 0.7874015748031497,
          "duration": 0.043512500000005616
        },
        {
          "name": "D7",
          "midi": 98,
          "time": 126.90900000000009,
          "velocity": 0.7874015748031497,
          "duration": 0.043512500000005616
        },
        {
          "name": "F#7",
          "midi": 102,
          "time": 126.90900000000009,
          "velocity": 0.7874015748031497,
          "duration": 0.043512500000005616
        },
        {
          "name": "C#4",
          "midi": 61,
          "time": 127.0860000000001,
          "velocity": 0.7874015748031497,
          "duration": 0.04425000000000523
        },
        {
          "name": "F#4",
          "midi": 66,
          "time": 127.0860000000001,
          "velocity": 0.7874015748031497,
          "duration": 0.04425000000000523
        },
        {
          "name": "C#5",
          "midi": 73,
          "time": 127.0860000000001,
          "velocity": 0.7874015748031497,
          "duration": 0.04425000000000523
        },
        {
          "name": "F#5",
          "midi": 78,
          "time": 127.0860000000001,
          "velocity": 0.7874015748031497,
          "duration": 0.04425000000000523
        },
        {
          "name": "C#6",
          "midi": 85,
          "time": 127.0860000000001,
          "velocity": 0.7874015748031497,
          "duration": 0.04425000000000523
        },
        {
          "name": "F#6",
          "midi": 90,
          "time": 127.0860000000001,
          "velocity": 0.7874015748031497,
          "duration": 0.04425000000000523
        },
        {
          "name": "C#7",
          "midi": 97,
          "time": 127.0860000000001,
          "velocity": 0.7874015748031497,
          "duration": 0.04425000000000523
        },
        {
          "name": "F#7",
          "midi": 102,
          "time": 127.0860000000001,
          "velocity": 0.7874015748031497,
          "duration": 0.04425000000000523
        },
        {
          "name": "C4",
          "midi": 60,
          "time": 127.2637375000001,
          "velocity": 0.7874015748031497,
          "duration": 0.04425000000000523
        },
        {
          "name": "F4",
          "midi": 65,
          "time": 127.2637375000001,
          "velocity": 0.7874015748031497,
          "duration": 0.04425000000000523
        },
        {
          "name": "C5",
          "midi": 72,
          "time": 127.2637375000001,
          "velocity": 0.7874015748031497,
          "duration": 0.04425000000000523
        },
        {
          "name": "F5",
          "midi": 77,
          "time": 127.2637375000001,
          "velocity": 0.7874015748031497,
          "duration": 0.04425000000000523
        },
        {
          "name": "C6",
          "midi": 84,
          "time": 127.2637375000001,
          "velocity": 0.7874015748031497,
          "duration": 0.04425000000000523
        },
        {
          "name": "F6",
          "midi": 89,
          "time": 127.2637375000001,
          "velocity": 0.7874015748031497,
          "duration": 0.04425000000000523
        },
        {
          "name": "C7",
          "midi": 96,
          "time": 127.2637375000001,
          "velocity": 0.7874015748031497,
          "duration": 0.35105000000000075
        },
        {
          "name": "F#7",
          "midi": 102,
          "time": 127.2637375000001,
          "velocity": 0.7874015748031497,
          "duration": 0.35105000000000075
        },
        {
          "name": "D4",
          "midi": 62,
          "time": 127.6170000000001,
          "velocity": 0.7874015748031497,
          "duration": 0.043512500000005616
        },
        {
          "name": "F#4",
          "midi": 66,
          "time": 127.6170000000001,
          "velocity": 0.7874015748031497,
          "duration": 0.043512500000005616
        },
        {
          "name": "D#5",
          "midi": 75,
          "time": 127.6170000000001,
          "velocity": 0.7874015748031497,
          "duration": 0.043512500000005616
        },
        {
          "name": "F#5",
          "midi": 78,
          "time": 127.6170000000001,
          "velocity": 0.7874015748031497,
          "duration": 0.043512500000005616
        },
        {
          "name": "E6",
          "midi": 88,
          "time": 127.6170000000001,
          "velocity": 0.7874015748031497,
          "duration": 0.35178750000000036
        },
        {
          "name": "F#6",
          "midi": 90,
          "time": 127.6170000000001,
          "velocity": 0.7874015748031497,
          "duration": 0.35178750000000036
        },
        {
          "name": "E7",
          "midi": 100,
          "time": 127.6170000000001,
          "velocity": 0.7874015748031497,
          "duration": 0.35178750000000036
        },
        {
          "name": "F#7",
          "midi": 102,
          "time": 127.6170000000001,
          "velocity": 0.7874015748031497,
          "duration": 0.35178750000000036
        },
        {
          "name": "C#5",
          "midi": 73,
          "time": 127.9702625000001,
          "velocity": 0.7874015748031497,
          "duration": 0.043512499999991405
        },
        {
          "name": "F#5",
          "midi": 78,
          "time": 127.9702625000001,
          "velocity": 0.7874015748031497,
          "duration": 0.043512499999991405
        },
        {
          "name": "D6",
          "midi": 86,
          "time": 127.9702625000001,
          "velocity": 0.7874015748031497,
          "duration": 0.043512499999991405
        },
        {
          "name": "F#6",
          "midi": 90,
          "time": 127.9702625000001,
          "velocity": 0.7874015748031497,
          "duration": 0.043512499999991405
        },
        {
          "name": "D7",
          "midi": 98,
          "time": 127.9702625000001,
          "velocity": 0.7874015748031497,
          "duration": 0.043512499999991405
        },
        {
          "name": "F#7",
          "midi": 102,
          "time": 127.9702625000001,
          "velocity": 0.7874015748031497,
          "duration": 0.043512499999991405
        },
        {
          "name": "C#4",
          "midi": 61,
          "time": 128.14800000000008,
          "velocity": 0.7874015748031497,
          "duration": 0.043512499999991405
        },
        {
          "name": "F#4",
          "midi": 66,
          "time": 128.14800000000008,
          "velocity": 0.7874015748031497,
          "duration": 0.043512499999991405
        },
        {
          "name": "D5",
          "midi": 74,
          "time": 128.14800000000008,
          "velocity": 0.7874015748031497,
          "duration": 0.043512499999991405
        },
        {
          "name": "F5",
          "midi": 77,
          "time": 128.14800000000008,
          "velocity": 0.7874015748031497,
          "duration": 0.043512499999991405
        },
        {
          "name": "D#6",
          "midi": 87,
          "time": 128.14800000000008,
          "velocity": 0.7874015748031497,
          "duration": 0.043512499999991405
        },
        {
          "name": "F6",
          "midi": 89,
          "time": 128.14800000000008,
          "velocity": 0.7874015748031497,
          "duration": 0.043512499999991405
        },
        {
          "name": "D#7",
          "midi": 99,
          "time": 128.14800000000008,
          "velocity": 0.7874015748031497,
          "duration": 0.043512499999991405
        },
        {
          "name": "F#7",
          "midi": 102,
          "time": 128.14800000000008,
          "velocity": 0.7874015748031497,
          "duration": 0.043512499999991405
        },
        {
          "name": "D7",
          "midi": 98,
          "time": 128.32500000000007,
          "velocity": 0.7874015748031497,
          "duration": 0.043512499999991405
        },
        {
          "name": "F#7",
          "midi": 102,
          "time": 128.32500000000007,
          "velocity": 0.7874015748031497,
          "duration": 0.043512499999991405
        },
        {
          "name": "C4",
          "midi": 60,
          "time": 128.50200000000007,
          "velocity": 0.7874015748031497,
          "duration": 0.04425000000000523
        },
        {
          "name": "F#4",
          "midi": 66,
          "time": 128.50200000000007,
          "velocity": 0.7874015748031497,
          "duration": 0.04425000000000523
        },
        {
          "name": "C#5",
          "midi": 73,
          "time": 128.50200000000007,
          "velocity": 0.7874015748031497,
          "duration": 0.04425000000000523
        },
        {
          "name": "F#5",
          "midi": 78,
          "time": 128.50200000000007,
          "velocity": 0.7874015748031497,
          "duration": 0.04425000000000523
        },
        {
          "name": "C#6",
          "midi": 85,
          "time": 128.50200000000007,
          "velocity": 0.7874015748031497,
          "duration": 0.04425000000000523
        },
        {
          "name": "F#6",
          "midi": 90,
          "time": 128.50200000000007,
          "velocity": 0.7874015748031497,
          "duration": 0.04425000000000523
        },
        {
          "name": "C#7",
          "midi": 97,
          "time": 128.50200000000007,
          "velocity": 0.7874015748031497,
          "duration": 0.04425000000000523
        },
        {
          "name": "F#7",
          "midi": 102,
          "time": 128.50200000000007,
          "velocity": 0.7874015748031497,
          "duration": 0.04425000000000523
        },
        {
          "name": "C6",
          "midi": 84,
          "time": 128.67900000000006,
          "velocity": 0.7874015748031497,
          "duration": 0.04425000000000523
        },
        {
          "name": "F6",
          "midi": 89,
          "time": 128.67900000000006,
          "velocity": 0.7874015748031497,
          "duration": 0.04425000000000523
        },
        {
          "name": "C7",
          "midi": 96,
          "time": 128.67900000000006,
          "velocity": 0.7874015748031497,
          "duration": 0.04425000000000523
        },
        {
          "name": "F#7",
          "midi": 102,
          "time": 128.67900000000006,
          "velocity": 0.7874015748031497,
          "duration": 0.04425000000000523
        },
        {
          "name": "D4",
          "midi": 62,
          "time": 128.85600000000005,
          "velocity": 0.7874015748031497,
          "duration": 0.04425000000000523
        },
        {
          "name": "F#4",
          "midi": 66,
          "time": 128.85600000000005,
          "velocity": 0.7874015748031497,
          "duration": 0.04425000000000523
        },
        {
          "name": "D#5",
          "midi": 75,
          "time": 128.85600000000005,
          "velocity": 0.7874015748031497,
          "duration": 0.04425000000000523
        },
        {
          "name": "F#5",
          "midi": 78,
          "time": 128.85600000000005,
          "velocity": 0.7874015748031497,
          "duration": 0.04425000000000523
        },
        {
          "name": "E6",
          "midi": 88,
          "time": 128.85600000000005,
          "velocity": 0.7874015748031497,
          "duration": 0.04425000000000523
        },
        {
          "name": "F#6",
          "midi": 90,
          "time": 128.85600000000005,
          "velocity": 0.7874015748031497,
          "duration": 0.04425000000000523
        },
        {
          "name": "E7",
          "midi": 100,
          "time": 128.85600000000005,
          "velocity": 0.7874015748031497,
          "duration": 0.04425000000000523
        },
        {
          "name": "F#7",
          "midi": 102,
          "time": 128.85600000000005,
          "velocity": 0.7874015748031497,
          "duration": 0.04425000000000523
        },
        {
          "name": "C#5",
          "midi": 73,
          "time": 129.03300000000004,
          "velocity": 0.7874015748031497,
          "duration": 0.04425000000000523
        },
        {
          "name": "F5",
          "midi": 77,
          "time": 129.03300000000004,
          "velocity": 0.7874015748031497,
          "duration": 0.04425000000000523
        },
        {
          "name": "D6",
          "midi": 86,
          "time": 129.03300000000004,
          "velocity": 0.7874015748031497,
          "duration": 0.04425000000000523
        },
        {
          "name": "F6",
          "midi": 89,
          "time": 129.03300000000004,
          "velocity": 0.7874015748031497,
          "duration": 0.04425000000000523
        },
        {
          "name": "D7",
          "midi": 98,
          "time": 129.03300000000004,
          "velocity": 0.7874015748031497,
          "duration": 0.04425000000000523
        },
        {
          "name": "F#7",
          "midi": 102,
          "time": 129.03300000000004,
          "velocity": 0.7874015748031497,
          "duration": 0.04425000000000523
        },
        {
          "name": "C#4",
          "midi": 61,
          "time": 129.21000000000004,
          "velocity": 0.7874015748031497,
          "duration": 0.04425000000000523
        },
        {
          "name": "F#4",
          "midi": 66,
          "time": 129.21000000000004,
          "velocity": 0.7874015748031497,
          "duration": 0.04425000000000523
        },
        {
          "name": "D5",
          "midi": 74,
          "time": 129.21000000000004,
          "velocity": 0.7874015748031497,
          "duration": 0.04425000000000523
        },
        {
          "name": "F5",
          "midi": 77,
          "time": 129.21000000000004,
          "velocity": 0.7874015748031497,
          "duration": 0.04425000000000523
        },
        {
          "name": "D#6",
          "midi": 87,
          "time": 129.21000000000004,
          "velocity": 0.7874015748031497,
          "duration": 0.04425000000000523
        },
        {
          "name": "F6",
          "midi": 89,
          "time": 129.21000000000004,
          "velocity": 0.7874015748031497,
          "duration": 0.04425000000000523
        },
        {
          "name": "D#7",
          "midi": 99,
          "time": 129.21000000000004,
          "velocity": 0.7874015748031497,
          "duration": 0.04425000000000523
        },
        {
          "name": "F#7",
          "midi": 102,
          "time": 129.21000000000004,
          "velocity": 0.7874015748031497,
          "duration": 0.04425000000000523
        },
        {
          "name": "D7",
          "midi": 98,
          "time": 129.38773750000004,
          "velocity": 0.7874015748031497,
          "duration": 0.04425000000000523
        },
        {
          "name": "F#7",
          "midi": 102,
          "time": 129.38773750000004,
          "velocity": 0.7874015748031497,
          "duration": 0.04425000000000523
        },
        {
          "name": "C#4",
          "midi": 61,
          "time": 129.56400000000005,
          "velocity": 0.7874015748031497,
          "duration": 0.04425000000000523
        },
        {
          "name": "F#4",
          "midi": 66,
          "time": 129.56400000000005,
          "velocity": 0.7874015748031497,
          "duration": 0.04425000000000523
        },
        {
          "name": "C#5",
          "midi": 73,
          "time": 129.56400000000005,
          "velocity": 0.7874015748031497,
          "duration": 0.04425000000000523
        },
        {
          "name": "F#5",
          "midi": 78,
          "time": 129.56400000000005,
          "velocity": 0.7874015748031497,
          "duration": 0.04425000000000523
        },
        {
          "name": "C#6",
          "midi": 85,
          "time": 129.56400000000005,
          "velocity": 0.7874015748031497,
          "duration": 0.04425000000000523
        },
        {
          "name": "F#6",
          "midi": 90,
          "time": 129.56400000000005,
          "velocity": 0.7874015748031497,
          "duration": 0.04425000000000523
        },
        {
          "name": "C#7",
          "midi": 97,
          "time": 129.56400000000005,
          "velocity": 0.7874015748031497,
          "duration": 0.04425000000000523
        },
        {
          "name": "F#7",
          "midi": 102,
          "time": 129.56400000000005,
          "velocity": 0.7874015748031497,
          "duration": 0.04425000000000523
        },
        {
          "name": "C4",
          "midi": 60,
          "time": 129.74100000000004,
          "velocity": 0.7874015748031497,
          "duration": 0.04425000000000523
        },
        {
          "name": "F4",
          "midi": 65,
          "time": 129.74100000000004,
          "velocity": 0.7874015748031497,
          "duration": 0.04425000000000523
        },
        {
          "name": "C5",
          "midi": 72,
          "time": 129.74100000000004,
          "velocity": 0.7874015748031497,
          "duration": 0.04425000000000523
        },
        {
          "name": "F5",
          "midi": 77,
          "time": 129.74100000000004,
          "velocity": 0.7874015748031497,
          "duration": 0.04425000000000523
        },
        {
          "name": "C6",
          "midi": 84,
          "time": 129.74100000000004,
          "velocity": 0.7874015748031497,
          "duration": 0.04425000000000523
        },
        {
          "name": "F6",
          "midi": 89,
          "time": 129.74100000000004,
          "velocity": 0.7874015748031497,
          "duration": 0.04425000000000523
        },
        {
          "name": "C7",
          "midi": 96,
          "time": 129.74100000000004,
          "velocity": 0.7874015748031497,
          "duration": 0.3525250000000142
        },
        {
          "name": "F#7",
          "midi": 102,
          "time": 129.74100000000004,
          "velocity": 0.7874015748031497,
          "duration": 0.3525250000000142
        },
        {
          "name": "D4",
          "midi": 62,
          "time": 130.09573750000007,
          "velocity": 0.7874015748031497,
          "duration": 0.043512499999991405
        },
        {
          "name": "F#4",
          "midi": 66,
          "time": 130.09573750000007,
          "velocity": 0.7874015748031497,
          "duration": 0.043512499999991405
        },
        {
          "name": "D#5",
          "midi": 75,
          "time": 130.09573750000007,
          "velocity": 0.7874015748031497,
          "duration": 0.043512499999991405
        },
        {
          "name": "F#5",
          "midi": 78,
          "time": 130.09573750000007,
          "velocity": 0.7874015748031497,
          "duration": 0.043512499999991405
        },
        {
          "name": "E6",
          "midi": 88,
          "time": 130.09573750000007,
          "velocity": 0.7874015748031497,
          "duration": 0.35178750000000036
        },
        {
          "name": "F#6",
          "midi": 90,
          "time": 130.09573750000007,
          "velocity": 0.7874015748031497,
          "duration": 0.35178750000000036
        },
        {
          "name": "E7",
          "midi": 100,
          "time": 130.09573750000007,
          "velocity": 0.7874015748031497,
          "duration": 0.35178750000000036
        },
        {
          "name": "F#7",
          "midi": 102,
          "time": 130.09573750000007,
          "velocity": 0.7874015748031497,
          "duration": 0.35178750000000036
        },
        {
          "name": "C#5",
          "midi": 73,
          "time": 130.44973750000008,
          "velocity": 0.7874015748031497,
          "duration": 0.043512499999991405
        },
        {
          "name": "F#5",
          "midi": 78,
          "time": 130.44973750000008,
          "velocity": 0.7874015748031497,
          "duration": 0.043512499999991405
        },
        {
          "name": "D6",
          "midi": 86,
          "time": 130.44973750000008,
          "velocity": 0.7874015748031497,
          "duration": 0.043512499999991405
        },
        {
          "name": "F#6",
          "midi": 90,
          "time": 130.44973750000008,
          "velocity": 0.7874015748031497,
          "duration": 0.043512499999991405
        },
        {
          "name": "D7",
          "midi": 98,
          "time": 130.44973750000008,
          "velocity": 0.7874015748031497,
          "duration": 0.043512499999991405
        },
        {
          "name": "F#7",
          "midi": 102,
          "time": 130.44973750000008,
          "velocity": 0.7874015748031497,
          "duration": 0.043512499999991405
        },
        {
          "name": "C#4",
          "midi": 61,
          "time": 130.62600000000006,
          "velocity": 0.7874015748031497,
          "duration": 0.043512499999991405
        },
        {
          "name": "F#4",
          "midi": 66,
          "time": 130.62600000000006,
          "velocity": 0.7874015748031497,
          "duration": 0.043512499999991405
        },
        {
          "name": "D5",
          "midi": 74,
          "time": 130.62600000000006,
          "velocity": 0.7874015748031497,
          "duration": 0.043512499999991405
        },
        {
          "name": "F5",
          "midi": 77,
          "time": 130.62600000000006,
          "velocity": 0.7874015748031497,
          "duration": 0.043512499999991405
        },
        {
          "name": "D#6",
          "midi": 87,
          "time": 130.62600000000006,
          "velocity": 0.7874015748031497,
          "duration": 0.043512499999991405
        },
        {
          "name": "F6",
          "midi": 89,
          "time": 130.62600000000006,
          "velocity": 0.7874015748031497,
          "duration": 0.043512499999991405
        },
        {
          "name": "D#7",
          "midi": 99,
          "time": 130.62600000000006,
          "velocity": 0.7874015748031497,
          "duration": 0.043512499999991405
        },
        {
          "name": "F#7",
          "midi": 102,
          "time": 130.62600000000006,
          "velocity": 0.7874015748031497,
          "duration": 0.043512499999991405
        },
        {
          "name": "D7",
          "midi": 98,
          "time": 130.80373750000004,
          "velocity": 0.7874015748031497,
          "duration": 0.043512499999991405
        },
        {
          "name": "F#7",
          "midi": 102,
          "time": 130.80373750000004,
          "velocity": 0.7874015748031497,
          "duration": 0.043512499999991405
        },
        {
          "name": "C4",
          "midi": 60,
          "time": 130.98000000000002,
          "velocity": 0.7874015748031497,
          "duration": 0.043512499999991405
        },
        {
          "name": "F#4",
          "midi": 66,
          "time": 130.98000000000002,
          "velocity": 0.7874015748031497,
          "duration": 0.043512499999991405
        },
        {
          "name": "C#5",
          "midi": 73,
          "time": 130.98000000000002,
          "velocity": 0.7874015748031497,
          "duration": 0.043512499999991405
        },
        {
          "name": "F#5",
          "midi": 78,
          "time": 130.98000000000002,
          "velocity": 0.7874015748031497,
          "duration": 0.043512499999991405
        },
        {
          "name": "C#6",
          "midi": 85,
          "time": 130.98000000000002,
          "velocity": 0.7874015748031497,
          "duration": 0.043512499999991405
        },
        {
          "name": "F#6",
          "midi": 90,
          "time": 130.98000000000002,
          "velocity": 0.7874015748031497,
          "duration": 0.043512499999991405
        },
        {
          "name": "C#7",
          "midi": 97,
          "time": 130.98000000000002,
          "velocity": 0.7874015748031497,
          "duration": 0.043512499999991405
        },
        {
          "name": "F#7",
          "midi": 102,
          "time": 130.98000000000002,
          "velocity": 0.7874015748031497,
          "duration": 0.043512499999991405
        },
        {
          "name": "C6",
          "midi": 84,
          "time": 131.1577375,
          "velocity": 0.7874015748031497,
          "duration": 0.043512499999991405
        },
        {
          "name": "F6",
          "midi": 89,
          "time": 131.1577375,
          "velocity": 0.7874015748031497,
          "duration": 0.043512499999991405
        },
        {
          "name": "C7",
          "midi": 96,
          "time": 131.1577375,
          "velocity": 0.7874015748031497,
          "duration": 0.043512499999991405
        },
        {
          "name": "F#7",
          "midi": 102,
          "time": 131.1577375,
          "velocity": 0.7874015748031497,
          "duration": 0.043512499999991405
        },
        {
          "name": "D4",
          "midi": 62,
          "time": 131.33399999999997,
          "velocity": 0.7874015748031497,
          "duration": 0.043512499999991405
        },
        {
          "name": "F#4",
          "midi": 66,
          "time": 131.33399999999997,
          "velocity": 0.7874015748031497,
          "duration": 0.043512499999991405
        },
        {
          "name": "D#5",
          "midi": 75,
          "time": 131.33399999999997,
          "velocity": 0.7874015748031497,
          "duration": 0.043512499999991405
        },
        {
          "name": "F#5",
          "midi": 78,
          "time": 131.33399999999997,
          "velocity": 0.7874015748031497,
          "duration": 0.043512499999991405
        },
        {
          "name": "E6",
          "midi": 88,
          "time": 131.33399999999997,
          "velocity": 0.7874015748031497,
          "duration": 0.043512499999991405
        },
        {
          "name": "F#6",
          "midi": 90,
          "time": 131.33399999999997,
          "velocity": 0.7874015748031497,
          "duration": 0.043512499999991405
        },
        {
          "name": "E7",
          "midi": 100,
          "time": 131.33399999999997,
          "velocity": 0.7874015748031497,
          "duration": 0.043512499999991405
        },
        {
          "name": "F#7",
          "midi": 102,
          "time": 131.33399999999997,
          "velocity": 0.7874015748031497,
          "duration": 0.043512499999991405
        },
        {
          "name": "C#5",
          "midi": 73,
          "time": 131.51099999999997,
          "velocity": 0.7874015748031497,
          "duration": 0.043512499999991405
        },
        {
          "name": "F5",
          "midi": 77,
          "time": 131.51099999999997,
          "velocity": 0.7874015748031497,
          "duration": 0.043512499999991405
        },
        {
          "name": "D6",
          "midi": 86,
          "time": 131.51099999999997,
          "velocity": 0.7874015748031497,
          "duration": 0.043512499999991405
        },
        {
          "name": "F6",
          "midi": 89,
          "time": 131.51099999999997,
          "velocity": 0.7874015748031497,
          "duration": 0.043512499999991405
        },
        {
          "name": "D7",
          "midi": 98,
          "time": 131.51099999999997,
          "velocity": 0.7874015748031497,
          "duration": 0.043512499999991405
        },
        {
          "name": "F#7",
          "midi": 102,
          "time": 131.51099999999997,
          "velocity": 0.7874015748031497,
          "duration": 0.043512499999991405
        },
        {
          "name": "C#4",
          "midi": 61,
          "time": 131.68799999999996,
          "velocity": 0.7874015748031497,
          "duration": 0.043512499999991405
        },
        {
          "name": "F#4",
          "midi": 66,
          "time": 131.68799999999996,
          "velocity": 0.7874015748031497,
          "duration": 0.043512499999991405
        },
        {
          "name": "D5",
          "midi": 74,
          "time": 131.68799999999996,
          "velocity": 0.7874015748031497,
          "duration": 0.043512499999991405
        },
        {
          "name": "F5",
          "midi": 77,
          "time": 131.68799999999996,
          "velocity": 0.7874015748031497,
          "duration": 0.043512499999991405
        },
        {
          "name": "D#6",
          "midi": 87,
          "time": 131.68799999999996,
          "velocity": 0.7874015748031497,
          "duration": 0.043512499999991405
        },
        {
          "name": "F6",
          "midi": 89,
          "time": 131.68799999999996,
          "velocity": 0.7874015748031497,
          "duration": 0.043512499999991405
        },
        {
          "name": "D#7",
          "midi": 99,
          "time": 131.68799999999996,
          "velocity": 0.7874015748031497,
          "duration": 0.043512499999991405
        },
        {
          "name": "F#7",
          "midi": 102,
          "time": 131.68799999999996,
          "velocity": 0.7874015748031497,
          "duration": 0.043512499999991405
        },
        {
          "name": "D7",
          "midi": 98,
          "time": 131.86426249999994,
          "velocity": 0.7874015748031497,
          "duration": 0.043512499999991405
        },
        {
          "name": "F#7",
          "midi": 102,
          "time": 131.86426249999994,
          "velocity": 0.7874015748031497,
          "duration": 0.043512499999991405
        },
        {
          "name": "C#4",
          "midi": 61,
          "time": 132.04199999999992,
          "velocity": 0.7874015748031497,
          "duration": 0.043512499999991405
        },
        {
          "name": "F#4",
          "midi": 66,
          "time": 132.04199999999992,
          "velocity": 0.7874015748031497,
          "duration": 0.043512499999991405
        },
        {
          "name": "C#5",
          "midi": 73,
          "time": 132.04199999999992,
          "velocity": 0.7874015748031497,
          "duration": 0.043512499999991405
        },
        {
          "name": "F#5",
          "midi": 78,
          "time": 132.04199999999992,
          "velocity": 0.7874015748031497,
          "duration": 0.043512499999991405
        },
        {
          "name": "D6",
          "midi": 86,
          "time": 132.04199999999992,
          "velocity": 0.7874015748031497,
          "duration": 0.043512499999991405
        },
        {
          "name": "F#6",
          "midi": 90,
          "time": 132.04199999999992,
          "velocity": 0.7874015748031497,
          "duration": 0.043512499999991405
        },
        {
          "name": "C#7",
          "midi": 97,
          "time": 132.04199999999992,
          "velocity": 0.7874015748031497,
          "duration": 0.043512499999991405
        },
        {
          "name": "F#7",
          "midi": 102,
          "time": 132.04199999999992,
          "velocity": 0.7874015748031497,
          "duration": 0.043512499999991405
        },
        {
          "name": "D7",
          "midi": 98,
          "time": 132.1083749999999,
          "velocity": 0.7874015748031497,
          "duration": 0.043512499999991405
        },
        {
          "name": "F7",
          "midi": 101,
          "time": 132.1083749999999,
          "velocity": 0.7874015748031497,
          "duration": 0.043512499999991405
        },
        {
          "name": "C4",
          "midi": 60,
          "time": 132.2189999999999,
          "velocity": 0.7874015748031497,
          "duration": 0.043512499999991405
        },
        {
          "name": "F4",
          "midi": 65,
          "time": 132.2189999999999,
          "velocity": 0.7874015748031497,
          "duration": 0.043512499999991405
        },
        {
          "name": "C5",
          "midi": 72,
          "time": 132.2189999999999,
          "velocity": 0.7874015748031497,
          "duration": 0.043512499999991405
        },
        {
          "name": "F5",
          "midi": 77,
          "time": 132.2189999999999,
          "velocity": 0.7874015748031497,
          "duration": 0.043512499999991405
        },
        {
          "name": "C#6",
          "midi": 85,
          "time": 132.2189999999999,
          "velocity": 0.7874015748031497,
          "duration": 0.043512499999991405
        },
        {
          "name": "F6",
          "midi": 89,
          "time": 132.2189999999999,
          "velocity": 0.7874015748031497,
          "duration": 0.043512499999991405
        },
        {
          "name": "C#7",
          "midi": 97,
          "time": 132.2189999999999,
          "velocity": 0.7874015748031497,
          "duration": 0.043512499999991405
        },
        {
          "name": "F#7",
          "midi": 102,
          "time": 132.2189999999999,
          "velocity": 0.7874015748031497,
          "duration": 0.043512499999991405
        },
        {
          "name": "C7",
          "midi": 96,
          "time": 132.3959999999999,
          "velocity": 0.7874015748031497,
          "duration": 0.04425000000000523
        },
        {
          "name": "F#7",
          "midi": 102,
          "time": 132.3959999999999,
          "velocity": 0.7874015748031497,
          "duration": 0.04425000000000523
        },
        {
          "name": "C4",
          "midi": 60,
          "time": 132.5737374999999,
          "velocity": 0.7874015748031497,
          "duration": 0.043512499999991405
        },
        {
          "name": "F#4",
          "midi": 66,
          "time": 132.5737374999999,
          "velocity": 0.7874015748031497,
          "duration": 0.043512499999991405
        },
        {
          "name": "C5",
          "midi": 72,
          "time": 132.5737374999999,
          "velocity": 0.7874015748031497,
          "duration": 0.043512499999991405
        },
        {
          "name": "C6",
          "midi": 84,
          "time": 132.5737374999999,
          "velocity": 0.7874015748031497,
          "duration": 0.5265749999999798
        },
        {
          "name": "C7",
          "midi": 96,
          "time": 132.5737374999999,
          "velocity": 0.7874015748031497,
          "duration": 0.5265749999999798
        },
        {
          "name": "C#4",
          "midi": 61,
          "time": 133.1039999999999,
          "velocity": 0.7874015748031497,
          "duration": 0.08776249999999663
        },
        {
          "name": "F#4",
          "midi": 66,
          "time": 133.1039999999999,
          "velocity": 0.7874015748031497,
          "duration": 0.08776249999999663
        },
        {
          "name": "C5",
          "midi": 72,
          "time": 133.1039999999999,
          "velocity": 0.7874015748031497,
          "duration": 0.08776249999999663
        },
        {
          "name": "F#5",
          "midi": 78,
          "time": 133.1039999999999,
          "velocity": 0.7874015748031497,
          "duration": 0.08776249999999663
        },
        {
          "name": "C6",
          "midi": 84,
          "time": 133.1039999999999,
          "velocity": 0.7874015748031497,
          "duration": 0.7043124999999861
        },
        {
          "name": "F#6",
          "midi": 90,
          "time": 133.1039999999999,
          "velocity": 0.7874015748031497,
          "duration": 0.7043124999999861
        },
        {
          "name": "C7",
          "midi": 96,
          "time": 133.1039999999999,
          "velocity": 0.7874015748031497,
          "duration": 0.7043124999999861
        },
        {
          "name": "F#7",
          "midi": 102,
          "time": 133.1039999999999,
          "velocity": 0.7874015748031497,
          "duration": 0.7043124999999861
        },
        {
          "name": "D4",
          "midi": 62,
          "time": 133.8119999999999,
          "velocity": 0.7874015748031497,
          "duration": 0.08776249999999663
        },
        {
          "name": "F#4",
          "midi": 66,
          "time": 133.8119999999999,
          "velocity": 0.7874015748031497,
          "duration": 0.08776249999999663
        },
        {
          "name": "C#5",
          "midi": 73,
          "time": 133.8119999999999,
          "velocity": 0.7874015748031497,
          "duration": 0.08776249999999663
        },
        {
          "name": "F#5",
          "midi": 78,
          "time": 133.8119999999999,
          "velocity": 0.7874015748031497,
          "duration": 0.08776249999999663
        },
        {
          "name": "C#6",
          "midi": 85,
          "time": 133.8119999999999,
          "velocity": 0.7874015748031497,
          "duration": 0.7043124999999861
        },
        {
          "name": "F#6",
          "midi": 90,
          "time": 133.8119999999999,
          "velocity": 0.7874015748031497,
          "duration": 0.7043124999999861
        },
        {
          "name": "C#7",
          "midi": 97,
          "time": 133.8119999999999,
          "velocity": 0.7874015748031497,
          "duration": 0.7043124999999861
        },
        {
          "name": "F#7",
          "midi": 102,
          "time": 133.8119999999999,
          "velocity": 0.7874015748031497,
          "duration": 0.7043124999999861
        },
        {
          "name": "D4",
          "midi": 62,
          "time": 134.5199999999999,
          "velocity": 0.7874015748031497,
          "duration": 0.04425000000000523
        },
        {
          "name": "F#4",
          "midi": 66,
          "time": 134.5199999999999,
          "velocity": 0.7874015748031497,
          "duration": 0.04425000000000523
        },
        {
          "name": "D#5",
          "midi": 75,
          "time": 134.5199999999999,
          "velocity": 0.7874015748031497,
          "duration": 0.04425000000000523
        },
        {
          "name": "F#5",
          "midi": 78,
          "time": 134.5199999999999,
          "velocity": 0.7874015748031497,
          "duration": 0.04425000000000523
        },
        {
          "name": "E6",
          "midi": 88,
          "time": 134.5199999999999,
          "velocity": 0.7874015748031497,
          "duration": 0.04425000000000523
        },
        {
          "name": "F#6",
          "midi": 90,
          "time": 134.5199999999999,
          "velocity": 0.7874015748031497,
          "duration": 0.04425000000000523
        },
        {
          "name": "E7",
          "midi": 100,
          "time": 134.5199999999999,
          "velocity": 0.7874015748031497,
          "duration": 0.04425000000000523
        },
        {
          "name": "F#7",
          "midi": 102,
          "time": 134.5199999999999,
          "velocity": 0.7874015748031497,
          "duration": 0.04425000000000523
        },
        {
          "name": "C#5",
          "midi": 73,
          "time": 134.6962624999999,
          "velocity": 0.7874015748031497,
          "duration": 0.04425000000000523
        },
        {
          "name": "F5",
          "midi": 77,
          "time": 134.6962624999999,
          "velocity": 0.7874015748031497,
          "duration": 0.04425000000000523
        },
        {
          "name": "D6",
          "midi": 86,
          "time": 134.6962624999999,
          "velocity": 0.7874015748031497,
          "duration": 0.04425000000000523
        },
        {
          "name": "F6",
          "midi": 89,
          "time": 134.6962624999999,
          "velocity": 0.7874015748031497,
          "duration": 0.04425000000000523
        },
        {
          "name": "D7",
          "midi": 98,
          "time": 134.6962624999999,
          "velocity": 0.7874015748031497,
          "duration": 0.04425000000000523
        },
        {
          "name": "F#7",
          "midi": 102,
          "time": 134.6962624999999,
          "velocity": 0.7874015748031497,
          "duration": 0.04425000000000523
        },
        {
          "name": "C#4",
          "midi": 61,
          "time": 134.8739999999999,
          "velocity": 0.7874015748031497,
          "duration": 0.04425000000000523
        },
        {
          "name": "F#4",
          "midi": 66,
          "time": 134.8739999999999,
          "velocity": 0.7874015748031497,
          "duration": 0.04425000000000523
        },
        {
          "name": "D5",
          "midi": 74,
          "time": 134.8739999999999,
          "velocity": 0.7874015748031497,
          "duration": 0.04425000000000523
        },
        {
          "name": "F5",
          "midi": 77,
          "time": 134.8739999999999,
          "velocity": 0.7874015748031497,
          "duration": 0.04425000000000523
        },
        {
          "name": "D#6",
          "midi": 87,
          "time": 134.8739999999999,
          "velocity": 0.7874015748031497,
          "duration": 0.04425000000000523
        },
        {
          "name": "F6",
          "midi": 89,
          "time": 134.8739999999999,
          "velocity": 0.7874015748031497,
          "duration": 0.04425000000000523
        },
        {
          "name": "D#7",
          "midi": 99,
          "time": 134.8739999999999,
          "velocity": 0.7874015748031497,
          "duration": 0.04425000000000523
        },
        {
          "name": "F#7",
          "midi": 102,
          "time": 134.8739999999999,
          "velocity": 0.7874015748031497,
          "duration": 0.04425000000000523
        },
        {
          "name": "D7",
          "midi": 98,
          "time": 135.05026249999992,
          "velocity": 0.7874015748031497,
          "duration": 0.04425000000000523
        },
        {
          "name": "F#7",
          "midi": 102,
          "time": 135.05026249999992,
          "velocity": 0.7874015748031497,
          "duration": 0.04425000000000523
        },
        {
          "name": "C#4",
          "midi": 61,
          "time": 135.22799999999992,
          "velocity": 0.7874015748031497,
          "duration": 0.04425000000000523
        },
        {
          "name": "F#4",
          "midi": 66,
          "time": 135.22799999999992,
          "velocity": 0.7874015748031497,
          "duration": 0.04425000000000523
        },
        {
          "name": "C#5",
          "midi": 73,
          "time": 135.22799999999992,
          "velocity": 0.7874015748031497,
          "duration": 0.04425000000000523
        },
        {
          "name": "F#5",
          "midi": 78,
          "time": 135.22799999999992,
          "velocity": 0.7874015748031497,
          "duration": 0.04425000000000523
        },
        {
          "name": "C#6",
          "midi": 85,
          "time": 135.22799999999992,
          "velocity": 0.7874015748031497,
          "duration": 0.04425000000000523
        },
        {
          "name": "F#6",
          "midi": 90,
          "time": 135.22799999999992,
          "velocity": 0.7874015748031497,
          "duration": 0.04425000000000523
        },
        {
          "name": "C#7",
          "midi": 97,
          "time": 135.22799999999992,
          "velocity": 0.7874015748031497,
          "duration": 0.04425000000000523
        },
        {
          "name": "F#7",
          "midi": 102,
          "time": 135.22799999999992,
          "velocity": 0.7874015748031497,
          "duration": 0.04425000000000523
        },
        {
          "name": "C4",
          "midi": 60,
          "time": 135.40573749999993,
          "velocity": 0.7874015748031497,
          "duration": 0.04425000000000523
        },
        {
          "name": "F4",
          "midi": 65,
          "time": 135.40573749999993,
          "velocity": 0.7874015748031497,
          "duration": 0.04425000000000523
        },
        {
          "name": "C5",
          "midi": 72,
          "time": 135.40573749999993,
          "velocity": 0.7874015748031497,
          "duration": 0.04425000000000523
        },
        {
          "name": "F5",
          "midi": 77,
          "time": 135.40573749999993,
          "velocity": 0.7874015748031497,
          "duration": 0.04425000000000523
        },
        {
          "name": "C6",
          "midi": 84,
          "time": 135.40573749999993,
          "velocity": 0.7874015748031497,
          "duration": 0.04425000000000523
        },
        {
          "name": "F6",
          "midi": 89,
          "time": 135.40573749999993,
          "velocity": 0.7874015748031497,
          "duration": 0.04425000000000523
        },
        {
          "name": "C7",
          "midi": 96,
          "time": 135.40573749999993,
          "velocity": 0.7874015748031497,
          "duration": 0.35105000000001496
        },
        {
          "name": "F#7",
          "midi": 102,
          "time": 135.40573749999993,
          "velocity": 0.7874015748031497,
          "duration": 0.35105000000001496
        },
        {
          "name": "D4",
          "midi": 62,
          "time": 135.75899999999996,
          "velocity": 0.7874015748031497,
          "duration": 0.04425000000000523
        },
        {
          "name": "F#4",
          "midi": 66,
          "time": 135.75899999999996,
          "velocity": 0.7874015748031497,
          "duration": 0.04425000000000523
        },
        {
          "name": "D#5",
          "midi": 75,
          "time": 135.75899999999996,
          "velocity": 0.7874015748031497,
          "duration": 0.04425000000000523
        },
        {
          "name": "F#5",
          "midi": 78,
          "time": 135.75899999999996,
          "velocity": 0.7874015748031497,
          "duration": 0.04425000000000523
        },
        {
          "name": "E6",
          "midi": 88,
          "time": 135.75899999999996,
          "velocity": 0.7874015748031497,
          "duration": 0.35178750000000036
        },
        {
          "name": "F#6",
          "midi": 90,
          "time": 135.75899999999996,
          "velocity": 0.7874015748031497,
          "duration": 0.35178750000000036
        },
        {
          "name": "E7",
          "midi": 100,
          "time": 135.75899999999996,
          "velocity": 0.7874015748031497,
          "duration": 0.35178750000000036
        },
        {
          "name": "F#7",
          "midi": 102,
          "time": 135.75899999999996,
          "velocity": 0.7874015748031497,
          "duration": 0.35178750000000036
        },
        {
          "name": "C#5",
          "midi": 73,
          "time": 136.11226249999996,
          "velocity": 0.7874015748031497,
          "duration": 0.04425000000000523
        },
        {
          "name": "F#5",
          "midi": 78,
          "time": 136.11226249999996,
          "velocity": 0.7874015748031497,
          "duration": 0.04425000000000523
        },
        {
          "name": "D6",
          "midi": 86,
          "time": 136.11226249999996,
          "velocity": 0.7874015748031497,
          "duration": 0.04425000000000523
        },
        {
          "name": "F#6",
          "midi": 90,
          "time": 136.11226249999996,
          "velocity": 0.7874015748031497,
          "duration": 0.04425000000000523
        },
        {
          "name": "D7",
          "midi": 98,
          "time": 136.11226249999996,
          "velocity": 0.7874015748031497,
          "duration": 0.04425000000000523
        },
        {
          "name": "F#7",
          "midi": 102,
          "time": 136.11226249999996,
          "velocity": 0.7874015748031497,
          "duration": 0.04425000000000523
        },
        {
          "name": "C#4",
          "midi": 61,
          "time": 136.28999999999996,
          "velocity": 0.7874015748031497,
          "duration": 0.04425000000000523
        },
        {
          "name": "F#4",
          "midi": 66,
          "time": 136.28999999999996,
          "velocity": 0.7874015748031497,
          "duration": 0.04425000000000523
        },
        {
          "name": "D5",
          "midi": 74,
          "time": 136.28999999999996,
          "velocity": 0.7874015748031497,
          "duration": 0.04425000000000523
        },
        {
          "name": "F5",
          "midi": 77,
          "time": 136.28999999999996,
          "velocity": 0.7874015748031497,
          "duration": 0.04425000000000523
        },
        {
          "name": "D#6",
          "midi": 87,
          "time": 136.28999999999996,
          "velocity": 0.7874015748031497,
          "duration": 0.04425000000000523
        },
        {
          "name": "F6",
          "midi": 89,
          "time": 136.28999999999996,
          "velocity": 0.7874015748031497,
          "duration": 0.04425000000000523
        },
        {
          "name": "D#7",
          "midi": 99,
          "time": 136.28999999999996,
          "velocity": 0.7874015748031497,
          "duration": 0.04425000000000523
        },
        {
          "name": "F#7",
          "midi": 102,
          "time": 136.28999999999996,
          "velocity": 0.7874015748031497,
          "duration": 0.04425000000000523
        },
        {
          "name": "D7",
          "midi": 98,
          "time": 136.46626249999997,
          "velocity": 0.7874015748031497,
          "duration": 0.04425000000000523
        },
        {
          "name": "F#7",
          "midi": 102,
          "time": 136.46626249999997,
          "velocity": 0.7874015748031497,
          "duration": 0.04425000000000523
        },
        {
          "name": "C4",
          "midi": 60,
          "time": 136.64399999999998,
          "velocity": 0.7874015748031497,
          "duration": 0.04425000000000523
        },
        {
          "name": "F#4",
          "midi": 66,
          "time": 136.64399999999998,
          "velocity": 0.7874015748031497,
          "duration": 0.04425000000000523
        },
        {
          "name": "C#5",
          "midi": 73,
          "time": 136.64399999999998,
          "velocity": 0.7874015748031497,
          "duration": 0.04425000000000523
        },
        {
          "name": "F#5",
          "midi": 78,
          "time": 136.64399999999998,
          "velocity": 0.7874015748031497,
          "duration": 0.04425000000000523
        },
        {
          "name": "C#6",
          "midi": 85,
          "time": 136.64399999999998,
          "velocity": 0.7874015748031497,
          "duration": 0.04425000000000523
        },
        {
          "name": "F#6",
          "midi": 90,
          "time": 136.64399999999998,
          "velocity": 0.7874015748031497,
          "duration": 0.04425000000000523
        },
        {
          "name": "C#7",
          "midi": 97,
          "time": 136.64399999999998,
          "velocity": 0.7874015748031497,
          "duration": 0.04425000000000523
        },
        {
          "name": "F#7",
          "midi": 102,
          "time": 136.64399999999998,
          "velocity": 0.7874015748031497,
          "duration": 0.04425000000000523
        },
        {
          "name": "C6",
          "midi": 84,
          "time": 136.82099999999997,
          "velocity": 0.7874015748031497,
          "duration": 0.04425000000000523
        },
        {
          "name": "F6",
          "midi": 89,
          "time": 136.82099999999997,
          "velocity": 0.7874015748031497,
          "duration": 0.04425000000000523
        },
        {
          "name": "C7",
          "midi": 96,
          "time": 136.82099999999997,
          "velocity": 0.7874015748031497,
          "duration": 0.04425000000000523
        },
        {
          "name": "F#7",
          "midi": 102,
          "time": 136.82099999999997,
          "velocity": 0.7874015748031497,
          "duration": 0.04425000000000523
        },
        {
          "name": "D4",
          "midi": 62,
          "time": 136.99799999999996,
          "velocity": 0.7874015748031497,
          "duration": 0.043512499999991405
        },
        {
          "name": "F#4",
          "midi": 66,
          "time": 136.99799999999996,
          "velocity": 0.7874015748031497,
          "duration": 0.043512499999991405
        },
        {
          "name": "D#5",
          "midi": 75,
          "time": 136.99799999999996,
          "velocity": 0.7874015748031497,
          "duration": 0.043512499999991405
        },
        {
          "name": "F#5",
          "midi": 78,
          "time": 136.99799999999996,
          "velocity": 0.7874015748031497,
          "duration": 0.043512499999991405
        },
        {
          "name": "E6",
          "midi": 88,
          "time": 136.99799999999996,
          "velocity": 0.7874015748031497,
          "duration": 0.043512499999991405
        },
        {
          "name": "F#6",
          "midi": 90,
          "time": 136.99799999999996,
          "velocity": 0.7874015748031497,
          "duration": 0.043512499999991405
        },
        {
          "name": "E7",
          "midi": 100,
          "time": 136.99799999999996,
          "velocity": 0.7874015748031497,
          "duration": 0.043512499999991405
        },
        {
          "name": "F#7",
          "midi": 102,
          "time": 136.99799999999996,
          "velocity": 0.7874015748031497,
          "duration": 0.043512499999991405
        },
        {
          "name": "C#5",
          "midi": 73,
          "time": 137.17573749999994,
          "velocity": 0.7874015748031497,
          "duration": 0.043512499999991405
        },
        {
          "name": "F5",
          "midi": 77,
          "time": 137.17573749999994,
          "velocity": 0.7874015748031497,
          "duration": 0.043512499999991405
        },
        {
          "name": "D6",
          "midi": 86,
          "time": 137.17573749999994,
          "velocity": 0.7874015748031497,
          "duration": 0.043512499999991405
        },
        {
          "name": "F6",
          "midi": 89,
          "time": 137.17573749999994,
          "velocity": 0.7874015748031497,
          "duration": 0.043512499999991405
        },
        {
          "name": "D7",
          "midi": 98,
          "time": 137.17573749999994,
          "velocity": 0.7874015748031497,
          "duration": 0.043512499999991405
        },
        {
          "name": "F#7",
          "midi": 102,
          "time": 137.17573749999994,
          "velocity": 0.7874015748031497,
          "duration": 0.043512499999991405
        },
        {
          "name": "C#4",
          "midi": 61,
          "time": 137.35199999999992,
          "velocity": 0.7874015748031497,
          "duration": 0.043512499999991405
        },
        {
          "name": "F#4",
          "midi": 66,
          "time": 137.35199999999992,
          "velocity": 0.7874015748031497,
          "duration": 0.043512499999991405
        },
        {
          "name": "D5",
          "midi": 74,
          "time": 137.35199999999992,
          "velocity": 0.7874015748031497,
          "duration": 0.043512499999991405
        },
        {
          "name": "F5",
          "midi": 77,
          "time": 137.35199999999992,
          "velocity": 0.7874015748031497,
          "duration": 0.043512499999991405
        },
        {
          "name": "D#6",
          "midi": 87,
          "time": 137.35199999999992,
          "velocity": 0.7874015748031497,
          "duration": 0.043512499999991405
        },
        {
          "name": "F6",
          "midi": 89,
          "time": 137.35199999999992,
          "velocity": 0.7874015748031497,
          "duration": 0.043512499999991405
        },
        {
          "name": "D#7",
          "midi": 99,
          "time": 137.35199999999992,
          "velocity": 0.7874015748031497,
          "duration": 0.043512499999991405
        },
        {
          "name": "F#7",
          "midi": 102,
          "time": 137.35199999999992,
          "velocity": 0.7874015748031497,
          "duration": 0.043512499999991405
        },
        {
          "name": "D7",
          "midi": 98,
          "time": 137.5289999999999,
          "velocity": 0.7874015748031497,
          "duration": 0.043512499999991405
        },
        {
          "name": "F#7",
          "midi": 102,
          "time": 137.5289999999999,
          "velocity": 0.7874015748031497,
          "duration": 0.043512499999991405
        },
        {
          "name": "C#4",
          "midi": 61,
          "time": 137.7059999999999,
          "velocity": 0.7874015748031497,
          "duration": 0.043512499999991405
        },
        {
          "name": "F#4",
          "midi": 66,
          "time": 137.7059999999999,
          "velocity": 0.7874015748031497,
          "duration": 0.043512499999991405
        },
        {
          "name": "C#5",
          "midi": 73,
          "time": 137.7059999999999,
          "velocity": 0.7874015748031497,
          "duration": 0.043512499999991405
        },
        {
          "name": "F#5",
          "midi": 78,
          "time": 137.7059999999999,
          "velocity": 0.7874015748031497,
          "duration": 0.043512499999991405
        },
        {
          "name": "C#6",
          "midi": 85,
          "time": 137.7059999999999,
          "velocity": 0.7874015748031497,
          "duration": 0.043512499999991405
        },
        {
          "name": "F#6",
          "midi": 90,
          "time": 137.7059999999999,
          "velocity": 0.7874015748031497,
          "duration": 0.043512499999991405
        },
        {
          "name": "C#7",
          "midi": 97,
          "time": 137.7059999999999,
          "velocity": 0.7874015748031497,
          "duration": 0.043512499999991405
        },
        {
          "name": "F#7",
          "midi": 102,
          "time": 137.7059999999999,
          "velocity": 0.7874015748031497,
          "duration": 0.043512499999991405
        },
        {
          "name": "C4",
          "midi": 60,
          "time": 137.8829999999999,
          "velocity": 0.7874015748031497,
          "duration": 0.043512499999991405
        },
        {
          "name": "F4",
          "midi": 65,
          "time": 137.8829999999999,
          "velocity": 0.7874015748031497,
          "duration": 0.043512499999991405
        },
        {
          "name": "C5",
          "midi": 72,
          "time": 137.8829999999999,
          "velocity": 0.7874015748031497,
          "duration": 0.043512499999991405
        },
        {
          "name": "F5",
          "midi": 77,
          "time": 137.8829999999999,
          "velocity": 0.7874015748031497,
          "duration": 0.043512499999991405
        },
        {
          "name": "C6",
          "midi": 84,
          "time": 137.8829999999999,
          "velocity": 0.7874015748031497,
          "duration": 0.043512499999991405
        },
        {
          "name": "F6",
          "midi": 89,
          "time": 137.8829999999999,
          "velocity": 0.7874015748031497,
          "duration": 0.043512499999991405
        },
        {
          "name": "C7",
          "midi": 96,
          "time": 137.8829999999999,
          "velocity": 0.7874015748031497,
          "duration": 0.35178750000000036
        },
        {
          "name": "F#7",
          "midi": 102,
          "time": 137.8829999999999,
          "velocity": 0.7874015748031497,
          "duration": 0.35178750000000036
        },
        {
          "name": "D4",
          "midi": 62,
          "time": 138.2369999999999,
          "velocity": 0.7874015748031497,
          "duration": 0.043512499999991405
        },
        {
          "name": "F#4",
          "midi": 66,
          "time": 138.2369999999999,
          "velocity": 0.7874015748031497,
          "duration": 0.043512499999991405
        },
        {
          "name": "D#5",
          "midi": 75,
          "time": 138.2369999999999,
          "velocity": 0.7874015748031497,
          "duration": 0.043512499999991405
        },
        {
          "name": "F#5",
          "midi": 78,
          "time": 138.2369999999999,
          "velocity": 0.7874015748031497,
          "duration": 0.043512499999991405
        },
        {
          "name": "E6",
          "midi": 88,
          "time": 138.2369999999999,
          "velocity": 0.7874015748031497,
          "duration": 0.35252499999998577
        },
        {
          "name": "F#6",
          "midi": 90,
          "time": 138.2369999999999,
          "velocity": 0.7874015748031497,
          "duration": 0.35252499999998577
        },
        {
          "name": "E7",
          "midi": 100,
          "time": 138.2369999999999,
          "velocity": 0.7874015748031497,
          "duration": 0.35252499999998577
        },
        {
          "name": "F#7",
          "midi": 102,
          "time": 138.2369999999999,
          "velocity": 0.7874015748031497,
          "duration": 0.35252499999998577
        },
        {
          "name": "C#5",
          "midi": 73,
          "time": 138.5917374999999,
          "velocity": 0.7874015748031497,
          "duration": 0.042775000000006
        },
        {
          "name": "F#5",
          "midi": 78,
          "time": 138.5917374999999,
          "velocity": 0.7874015748031497,
          "duration": 0.042775000000006
        },
        {
          "name": "D6",
          "midi": 86,
          "time": 138.5917374999999,
          "velocity": 0.7874015748031497,
          "duration": 0.042775000000006
        },
        {
          "name": "F#6",
          "midi": 90,
          "time": 138.5917374999999,
          "velocity": 0.7874015748031497,
          "duration": 0.042775000000006
        },
        {
          "name": "D7",
          "midi": 98,
          "time": 138.5917374999999,
          "velocity": 0.7874015748031497,
          "duration": 0.042775000000006
        },
        {
          "name": "F#7",
          "midi": 102,
          "time": 138.5917374999999,
          "velocity": 0.7874015748031497,
          "duration": 0.042775000000006
        },
        {
          "name": "C#4",
          "midi": 61,
          "time": 138.76799999999992,
          "velocity": 0.7874015748031497,
          "duration": 0.04425000000000523
        },
        {
          "name": "F#4",
          "midi": 66,
          "time": 138.76799999999992,
          "velocity": 0.7874015748031497,
          "duration": 0.04425000000000523
        },
        {
          "name": "D5",
          "midi": 74,
          "time": 138.76799999999992,
          "velocity": 0.7874015748031497,
          "duration": 0.04425000000000523
        },
        {
          "name": "F5",
          "midi": 77,
          "time": 138.76799999999992,
          "velocity": 0.7874015748031497,
          "duration": 0.04425000000000523
        },
        {
          "name": "D#6",
          "midi": 87,
          "time": 138.76799999999992,
          "velocity": 0.7874015748031497,
          "duration": 0.04425000000000523
        },
        {
          "name": "F6",
          "midi": 89,
          "time": 138.76799999999992,
          "velocity": 0.7874015748031497,
          "duration": 0.04425000000000523
        },
        {
          "name": "D#7",
          "midi": 99,
          "time": 138.76799999999992,
          "velocity": 0.7874015748031497,
          "duration": 0.04425000000000523
        },
        {
          "name": "F#7",
          "midi": 102,
          "time": 138.76799999999992,
          "velocity": 0.7874015748031497,
          "duration": 0.04425000000000523
        },
        {
          "name": "D7",
          "midi": 98,
          "time": 138.9449999999999,
          "velocity": 0.7874015748031497,
          "duration": 0.04425000000000523
        },
        {
          "name": "F#7",
          "midi": 102,
          "time": 138.9449999999999,
          "velocity": 0.7874015748031497,
          "duration": 0.04425000000000523
        },
        {
          "name": "C4",
          "midi": 60,
          "time": 139.1219999999999,
          "velocity": 0.7874015748031497,
          "duration": 0.043512499999991405
        },
        {
          "name": "F#4",
          "midi": 66,
          "time": 139.1219999999999,
          "velocity": 0.7874015748031497,
          "duration": 0.043512499999991405
        },
        {
          "name": "C#5",
          "midi": 73,
          "time": 139.1219999999999,
          "velocity": 0.7874015748031497,
          "duration": 0.043512499999991405
        },
        {
          "name": "F#5",
          "midi": 78,
          "time": 139.1219999999999,
          "velocity": 0.7874015748031497,
          "duration": 0.043512499999991405
        },
        {
          "name": "C#6",
          "midi": 85,
          "time": 139.1219999999999,
          "velocity": 0.7874015748031497,
          "duration": 0.043512499999991405
        },
        {
          "name": "F#6",
          "midi": 90,
          "time": 139.1219999999999,
          "velocity": 0.7874015748031497,
          "duration": 0.043512499999991405
        },
        {
          "name": "C#7",
          "midi": 97,
          "time": 139.1219999999999,
          "velocity": 0.7874015748031497,
          "duration": 0.043512499999991405
        },
        {
          "name": "F#7",
          "midi": 102,
          "time": 139.1219999999999,
          "velocity": 0.7874015748031497,
          "duration": 0.043512499999991405
        },
        {
          "name": "C6",
          "midi": 84,
          "time": 139.29826249999988,
          "velocity": 0.7874015748031497,
          "duration": 0.043512499999991405
        },
        {
          "name": "F6",
          "midi": 89,
          "time": 139.29826249999988,
          "velocity": 0.7874015748031497,
          "duration": 0.043512499999991405
        },
        {
          "name": "C7",
          "midi": 96,
          "time": 139.29826249999988,
          "velocity": 0.7874015748031497,
          "duration": 0.043512499999991405
        },
        {
          "name": "F#7",
          "midi": 102,
          "time": 139.29826249999988,
          "velocity": 0.7874015748031497,
          "duration": 0.043512499999991405
        },
        {
          "name": "D4",
          "midi": 62,
          "time": 139.47599999999986,
          "velocity": 0.7874015748031497,
          "duration": 0.043512499999991405
        },
        {
          "name": "F#4",
          "midi": 66,
          "time": 139.47599999999986,
          "velocity": 0.7874015748031497,
          "duration": 0.043512499999991405
        },
        {
          "name": "D#5",
          "midi": 75,
          "time": 139.47599999999986,
          "velocity": 0.7874015748031497,
          "duration": 0.043512499999991405
        },
        {
          "name": "F#5",
          "midi": 78,
          "time": 139.47599999999986,
          "velocity": 0.7874015748031497,
          "duration": 0.043512499999991405
        },
        {
          "name": "E6",
          "midi": 88,
          "time": 139.47599999999986,
          "velocity": 0.7874015748031497,
          "duration": 0.043512499999991405
        },
        {
          "name": "F#6",
          "midi": 90,
          "time": 139.47599999999986,
          "velocity": 0.7874015748031497,
          "duration": 0.043512499999991405
        },
        {
          "name": "E7",
          "midi": 100,
          "time": 139.47599999999986,
          "velocity": 0.7874015748031497,
          "duration": 0.043512499999991405
        },
        {
          "name": "F#7",
          "midi": 102,
          "time": 139.47599999999986,
          "velocity": 0.7874015748031497,
          "duration": 0.043512499999991405
        },
        {
          "name": "C#5",
          "midi": 73,
          "time": 139.65299999999985,
          "velocity": 0.7874015748031497,
          "duration": 0.043512499999991405
        },
        {
          "name": "F5",
          "midi": 77,
          "time": 139.65299999999985,
          "velocity": 0.7874015748031497,
          "duration": 0.043512499999991405
        },
        {
          "name": "D6",
          "midi": 86,
          "time": 139.65299999999985,
          "velocity": 0.7874015748031497,
          "duration": 0.043512499999991405
        },
        {
          "name": "F6",
          "midi": 89,
          "time": 139.65299999999985,
          "velocity": 0.7874015748031497,
          "duration": 0.043512499999991405
        },
        {
          "name": "D7",
          "midi": 98,
          "time": 139.65299999999985,
          "velocity": 0.7874015748031497,
          "duration": 0.043512499999991405
        },
        {
          "name": "F#7",
          "midi": 102,
          "time": 139.65299999999985,
          "velocity": 0.7874015748031497,
          "duration": 0.043512499999991405
        },
        {
          "name": "C#4",
          "midi": 61,
          "time": 139.82999999999984,
          "velocity": 0.7874015748031497,
          "duration": 0.043512499999991405
        },
        {
          "name": "F#4",
          "midi": 66,
          "time": 139.82999999999984,
          "velocity": 0.7874015748031497,
          "duration": 0.043512499999991405
        },
        {
          "name": "D5",
          "midi": 74,
          "time": 139.82999999999984,
          "velocity": 0.7874015748031497,
          "duration": 0.043512499999991405
        },
        {
          "name": "F5",
          "midi": 77,
          "time": 139.82999999999984,
          "velocity": 0.7874015748031497,
          "duration": 0.043512499999991405
        },
        {
          "name": "D#6",
          "midi": 87,
          "time": 139.82999999999984,
          "velocity": 0.7874015748031497,
          "duration": 0.043512499999991405
        },
        {
          "name": "F6",
          "midi": 89,
          "time": 139.82999999999984,
          "velocity": 0.7874015748031497,
          "duration": 0.043512499999991405
        },
        {
          "name": "D#7",
          "midi": 99,
          "time": 139.82999999999984,
          "velocity": 0.7874015748031497,
          "duration": 0.043512499999991405
        },
        {
          "name": "F#7",
          "midi": 102,
          "time": 139.82999999999984,
          "velocity": 0.7874015748031497,
          "duration": 0.043512499999991405
        },
        {
          "name": "D7",
          "midi": 98,
          "time": 140.00773749999982,
          "velocity": 0.7874015748031497,
          "duration": 0.043512499999991405
        },
        {
          "name": "F#7",
          "midi": 102,
          "time": 140.00773749999982,
          "velocity": 0.7874015748031497,
          "duration": 0.043512499999991405
        },
        {
          "name": "C#4",
          "midi": 61,
          "time": 140.1839999999998,
          "velocity": 0.7874015748031497,
          "duration": 0.043512499999991405
        },
        {
          "name": "F#4",
          "midi": 66,
          "time": 140.1839999999998,
          "velocity": 0.7874015748031497,
          "duration": 0.043512499999991405
        },
        {
          "name": "C#5",
          "midi": 73,
          "time": 140.1839999999998,
          "velocity": 0.7874015748031497,
          "duration": 0.043512499999991405
        },
        {
          "name": "F#5",
          "midi": 78,
          "time": 140.1839999999998,
          "velocity": 0.7874015748031497,
          "duration": 0.043512499999991405
        },
        {
          "name": "C#6",
          "midi": 85,
          "time": 140.1839999999998,
          "velocity": 0.7874015748031497,
          "duration": 0.043512499999991405
        },
        {
          "name": "F#6",
          "midi": 90,
          "time": 140.1839999999998,
          "velocity": 0.7874015748031497,
          "duration": 0.043512499999991405
        },
        {
          "name": "C#7",
          "midi": 97,
          "time": 140.1839999999998,
          "velocity": 0.7874015748031497,
          "duration": 0.043512499999991405
        },
        {
          "name": "F#7",
          "midi": 102,
          "time": 140.1839999999998,
          "velocity": 0.7874015748031497,
          "duration": 0.043512499999991405
        },
        {
          "name": "C4",
          "midi": 60,
          "time": 140.3609999999998,
          "velocity": 0.7874015748031497,
          "duration": 0.043512499999991405
        },
        {
          "name": "F4",
          "midi": 65,
          "time": 140.3609999999998,
          "velocity": 0.7874015748031497,
          "duration": 0.043512499999991405
        },
        {
          "name": "C5",
          "midi": 72,
          "time": 140.3609999999998,
          "velocity": 0.7874015748031497,
          "duration": 0.043512499999991405
        },
        {
          "name": "F5",
          "midi": 77,
          "time": 140.3609999999998,
          "velocity": 0.7874015748031497,
          "duration": 0.043512499999991405
        },
        {
          "name": "C6",
          "midi": 84,
          "time": 140.3609999999998,
          "velocity": 0.7874015748031497,
          "duration": 0.043512499999991405
        },
        {
          "name": "F6",
          "midi": 89,
          "time": 140.3609999999998,
          "velocity": 0.7874015748031497,
          "duration": 0.043512499999991405
        },
        {
          "name": "C7",
          "midi": 96,
          "time": 140.3609999999998,
          "velocity": 0.7874015748031497,
          "duration": 0.35252499999998577
        },
        {
          "name": "F#7",
          "midi": 102,
          "time": 140.3609999999998,
          "velocity": 0.7874015748031497,
          "duration": 0.35252499999998577
        },
        {
          "name": "D4",
          "midi": 62,
          "time": 140.7157374999998,
          "velocity": 0.7874015748031497,
          "duration": 0.043512499999991405
        },
        {
          "name": "F#4",
          "midi": 66,
          "time": 140.7157374999998,
          "velocity": 0.7874015748031497,
          "duration": 0.043512499999991405
        },
        {
          "name": "D#5",
          "midi": 75,
          "time": 140.7157374999998,
          "velocity": 0.7874015748031497,
          "duration": 0.043512499999991405
        },
        {
          "name": "F#5",
          "midi": 78,
          "time": 140.7157374999998,
          "velocity": 0.7874015748031497,
          "duration": 0.043512499999991405
        },
        {
          "name": "E6",
          "midi": 88,
          "time": 140.7157374999998,
          "velocity": 0.7874015748031497,
          "duration": 0.35104999999998654
        },
        {
          "name": "F#6",
          "midi": 90,
          "time": 140.7157374999998,
          "velocity": 0.7874015748031497,
          "duration": 0.35104999999998654
        },
        {
          "name": "E7",
          "midi": 100,
          "time": 140.7157374999998,
          "velocity": 0.7874015748031497,
          "duration": 0.35104999999998654
        },
        {
          "name": "F#7",
          "midi": 102,
          "time": 140.7157374999998,
          "velocity": 0.7874015748031497,
          "duration": 0.35104999999998654
        },
        {
          "name": "C#5",
          "midi": 73,
          "time": 141.0689999999998,
          "velocity": 0.7874015748031497,
          "duration": 0.043512499999991405
        },
        {
          "name": "F#5",
          "midi": 78,
          "time": 141.0689999999998,
          "velocity": 0.7874015748031497,
          "duration": 0.043512499999991405
        },
        {
          "name": "D6",
          "midi": 86,
          "time": 141.0689999999998,
          "velocity": 0.7874015748031497,
          "duration": 0.043512499999991405
        },
        {
          "name": "F#6",
          "midi": 90,
          "time": 141.0689999999998,
          "velocity": 0.7874015748031497,
          "duration": 0.043512499999991405
        },
        {
          "name": "D7",
          "midi": 98,
          "time": 141.0689999999998,
          "velocity": 0.7874015748031497,
          "duration": 0.043512499999991405
        },
        {
          "name": "F#7",
          "midi": 102,
          "time": 141.0689999999998,
          "velocity": 0.7874015748031497,
          "duration": 0.043512499999991405
        },
        {
          "name": "C#4",
          "midi": 61,
          "time": 141.24599999999978,
          "velocity": 0.7874015748031497,
          "duration": 0.043512499999991405
        },
        {
          "name": "F#4",
          "midi": 66,
          "time": 141.24599999999978,
          "velocity": 0.7874015748031497,
          "duration": 0.043512499999991405
        },
        {
          "name": "D5",
          "midi": 74,
          "time": 141.24599999999978,
          "velocity": 0.7874015748031497,
          "duration": 0.043512499999991405
        },
        {
          "name": "F5",
          "midi": 77,
          "time": 141.24599999999978,
          "velocity": 0.7874015748031497,
          "duration": 0.043512499999991405
        },
        {
          "name": "D#6",
          "midi": 87,
          "time": 141.24599999999978,
          "velocity": 0.7874015748031497,
          "duration": 0.043512499999991405
        },
        {
          "name": "F6",
          "midi": 89,
          "time": 141.24599999999978,
          "velocity": 0.7874015748031497,
          "duration": 0.043512499999991405
        },
        {
          "name": "D#7",
          "midi": 99,
          "time": 141.24599999999978,
          "velocity": 0.7874015748031497,
          "duration": 0.043512499999991405
        },
        {
          "name": "F#7",
          "midi": 102,
          "time": 141.24599999999978,
          "velocity": 0.7874015748031497,
          "duration": 0.043512499999991405
        },
        {
          "name": "D7",
          "midi": 98,
          "time": 141.42373749999976,
          "velocity": 0.7874015748031497,
          "duration": 0.043512499999991405
        },
        {
          "name": "F#7",
          "midi": 102,
          "time": 141.42373749999976,
          "velocity": 0.7874015748031497,
          "duration": 0.043512499999991405
        },
        {
          "name": "C4",
          "midi": 60,
          "time": 141.59999999999974,
          "velocity": 0.7874015748031497,
          "duration": 0.043512499999991405
        },
        {
          "name": "F#4",
          "midi": 66,
          "time": 141.59999999999974,
          "velocity": 0.7874015748031497,
          "duration": 0.043512499999991405
        },
        {
          "name": "C#5",
          "midi": 73,
          "time": 141.59999999999974,
          "velocity": 0.7874015748031497,
          "duration": 0.043512499999991405
        },
        {
          "name": "F#5",
          "midi": 78,
          "time": 141.59999999999974,
          "velocity": 0.7874015748031497,
          "duration": 0.043512499999991405
        },
        {
          "name": "C#6",
          "midi": 85,
          "time": 141.59999999999974,
          "velocity": 0.7874015748031497,
          "duration": 0.043512499999991405
        },
        {
          "name": "F#6",
          "midi": 90,
          "time": 141.59999999999974,
          "velocity": 0.7874015748031497,
          "duration": 0.043512499999991405
        },
        {
          "name": "C#7",
          "midi": 97,
          "time": 141.59999999999974,
          "velocity": 0.7874015748031497,
          "duration": 0.043512499999991405
        },
        {
          "name": "F#7",
          "midi": 102,
          "time": 141.59999999999974,
          "velocity": 0.7874015748031497,
          "duration": 0.043512499999991405
        },
        {
          "name": "C6",
          "midi": 84,
          "time": 141.77773749999972,
          "velocity": 0.7874015748031497,
          "duration": 0.043512499999991405
        },
        {
          "name": "F6",
          "midi": 89,
          "time": 141.77773749999972,
          "velocity": 0.7874015748031497,
          "duration": 0.043512499999991405
        },
        {
          "name": "C7",
          "midi": 96,
          "time": 141.77773749999972,
          "velocity": 0.7874015748031497,
          "duration": 0.043512499999991405
        },
        {
          "name": "F#7",
          "midi": 102,
          "time": 141.77773749999972,
          "velocity": 0.7874015748031497,
          "duration": 0.043512499999991405
        },
        {
          "name": "D4",
          "midi": 62,
          "time": 141.9539999999997,
          "velocity": 0.7874015748031497,
          "duration": 0.043512499999991405
        },
        {
          "name": "F#4",
          "midi": 66,
          "time": 141.9539999999997,
          "velocity": 0.7874015748031497,
          "duration": 0.043512499999991405
        },
        {
          "name": "D#5",
          "midi": 75,
          "time": 141.9539999999997,
          "velocity": 0.7874015748031497,
          "duration": 0.043512499999991405
        },
        {
          "name": "F#5",
          "midi": 78,
          "time": 141.9539999999997,
          "velocity": 0.7874015748031497,
          "duration": 0.043512499999991405
        },
        {
          "name": "E6",
          "midi": 88,
          "time": 141.9539999999997,
          "velocity": 0.7874015748031497,
          "duration": 0.043512499999991405
        },
        {
          "name": "F#6",
          "midi": 90,
          "time": 141.9539999999997,
          "velocity": 0.7874015748031497,
          "duration": 0.043512499999991405
        },
        {
          "name": "E7",
          "midi": 100,
          "time": 141.9539999999997,
          "velocity": 0.7874015748031497,
          "duration": 0.043512499999991405
        },
        {
          "name": "F#7",
          "midi": 102,
          "time": 141.9539999999997,
          "velocity": 0.7874015748031497,
          "duration": 0.043512499999991405
        },
        {
          "name": "C#5",
          "midi": 73,
          "time": 142.1309999999997,
          "velocity": 0.7874015748031497,
          "duration": 0.043512499999991405
        },
        {
          "name": "F5",
          "midi": 77,
          "time": 142.1309999999997,
          "velocity": 0.7874015748031497,
          "duration": 0.043512499999991405
        },
        {
          "name": "D6",
          "midi": 86,
          "time": 142.1309999999997,
          "velocity": 0.7874015748031497,
          "duration": 0.043512499999991405
        },
        {
          "name": "F6",
          "midi": 89,
          "time": 142.1309999999997,
          "velocity": 0.7874015748031497,
          "duration": 0.043512499999991405
        },
        {
          "name": "D7",
          "midi": 98,
          "time": 142.1309999999997,
          "velocity": 0.7874015748031497,
          "duration": 0.043512499999991405
        },
        {
          "name": "F#7",
          "midi": 102,
          "time": 142.1309999999997,
          "velocity": 0.7874015748031497,
          "duration": 0.043512499999991405
        },
        {
          "name": "C#4",
          "midi": 61,
          "time": 142.30799999999968,
          "velocity": 0.7874015748031497,
          "duration": 0.04425000000000523
        },
        {
          "name": "F#4",
          "midi": 66,
          "time": 142.30799999999968,
          "velocity": 0.7874015748031497,
          "duration": 0.04425000000000523
        },
        {
          "name": "D5",
          "midi": 74,
          "time": 142.30799999999968,
          "velocity": 0.7874015748031497,
          "duration": 0.04425000000000523
        },
        {
          "name": "F5",
          "midi": 77,
          "time": 142.30799999999968,
          "velocity": 0.7874015748031497,
          "duration": 0.04425000000000523
        },
        {
          "name": "D#6",
          "midi": 87,
          "time": 142.30799999999968,
          "velocity": 0.7874015748031497,
          "duration": 0.04425000000000523
        },
        {
          "name": "F6",
          "midi": 89,
          "time": 142.30799999999968,
          "velocity": 0.7874015748031497,
          "duration": 0.04425000000000523
        },
        {
          "name": "D#7",
          "midi": 99,
          "time": 142.30799999999968,
          "velocity": 0.7874015748031497,
          "duration": 0.04425000000000523
        },
        {
          "name": "F#7",
          "midi": 102,
          "time": 142.30799999999968,
          "velocity": 0.7874015748031497,
          "duration": 0.04425000000000523
        },
        {
          "name": "D7",
          "midi": 98,
          "time": 142.48499999999967,
          "velocity": 0.7874015748031497,
          "duration": 0.04425000000000523
        },
        {
          "name": "F#7",
          "midi": 102,
          "time": 142.48499999999967,
          "velocity": 0.7874015748031497,
          "duration": 0.04425000000000523
        },
        {
          "name": "C#4",
          "midi": 61,
          "time": 142.66199999999967,
          "velocity": 0.7874015748031497,
          "duration": 0.04425000000000523
        },
        {
          "name": "F#4",
          "midi": 66,
          "time": 142.66199999999967,
          "velocity": 0.7874015748031497,
          "duration": 0.04425000000000523
        },
        {
          "name": "C#5",
          "midi": 73,
          "time": 142.66199999999967,
          "velocity": 0.7874015748031497,
          "duration": 0.04425000000000523
        },
        {
          "name": "F#5",
          "midi": 78,
          "time": 142.66199999999967,
          "velocity": 0.7874015748031497,
          "duration": 0.04425000000000523
        },
        {
          "name": "D6",
          "midi": 86,
          "time": 142.66199999999967,
          "velocity": 0.7874015748031497,
          "duration": 0.04425000000000523
        },
        {
          "name": "F#6",
          "midi": 90,
          "time": 142.66199999999967,
          "velocity": 0.7874015748031497,
          "duration": 0.04425000000000523
        },
        {
          "name": "C#7",
          "midi": 97,
          "time": 142.66199999999967,
          "velocity": 0.7874015748031497,
          "duration": 0.04425000000000523
        },
        {
          "name": "F#7",
          "midi": 102,
          "time": 142.66199999999967,
          "velocity": 0.7874015748031497,
          "duration": 0.04425000000000523
        },
        {
          "name": "D7",
          "midi": 98,
          "time": 142.72837499999966,
          "velocity": 0.7874015748031497,
          "duration": 0.04425000000000523
        },
        {
          "name": "F7",
          "midi": 101,
          "time": 142.72837499999966,
          "velocity": 0.7874015748031497,
          "duration": 0.04425000000000523
        },
        {
          "name": "C4",
          "midi": 60,
          "time": 142.83973749999967,
          "velocity": 0.7874015748031497,
          "duration": 0.043512499999991405
        },
        {
          "name": "F4",
          "midi": 65,
          "time": 142.83973749999967,
          "velocity": 0.7874015748031497,
          "duration": 0.043512499999991405
        },
        {
          "name": "C5",
          "midi": 72,
          "time": 142.83973749999967,
          "velocity": 0.7874015748031497,
          "duration": 0.043512499999991405
        },
        {
          "name": "F5",
          "midi": 77,
          "time": 142.83973749999967,
          "velocity": 0.7874015748031497,
          "duration": 0.043512499999991405
        },
        {
          "name": "C#6",
          "midi": 85,
          "time": 142.83973749999967,
          "velocity": 0.7874015748031497,
          "duration": 0.043512499999991405
        },
        {
          "name": "F6",
          "midi": 89,
          "time": 142.83973749999967,
          "velocity": 0.7874015748031497,
          "duration": 0.043512499999991405
        },
        {
          "name": "C#7",
          "midi": 97,
          "time": 142.83973749999967,
          "velocity": 0.7874015748031497,
          "duration": 0.043512499999991405
        },
        {
          "name": "F#7",
          "midi": 102,
          "time": 142.83973749999967,
          "velocity": 0.7874015748031497,
          "duration": 0.043512499999991405
        },
        {
          "name": "C7",
          "midi": 96,
          "time": 143.01599999999965,
          "velocity": 0.7874015748031497,
          "duration": 0.04425000000000523
        },
        {
          "name": "F#7",
          "midi": 102,
          "time": 143.01599999999965,
          "velocity": 0.7874015748031497,
          "duration": 0.04425000000000523
        },
        {
          "name": "C4",
          "midi": 60,
          "time": 143.19299999999964,
          "velocity": 0.7874015748031497,
          "duration": 0.04425000000000523
        },
        {
          "name": "F#4",
          "midi": 66,
          "time": 143.19299999999964,
          "velocity": 0.7874015748031497,
          "duration": 0.04425000000000523
        },
        {
          "name": "C5",
          "midi": 72,
          "time": 143.19299999999964,
          "velocity": 0.7874015748031497,
          "duration": 0.04425000000000523
        },
        {
          "name": "C6",
          "midi": 84,
          "time": 143.19299999999964,
          "velocity": 0.7874015748031497,
          "duration": 0.5273124999999936
        },
        {
          "name": "C7",
          "midi": 96,
          "time": 143.19299999999964,
          "velocity": 0.7874015748031497,
          "duration": 0.5273124999999936
        },
        {
          "name": "C#4",
          "midi": 61,
          "time": 143.72399999999965,
          "velocity": 0.7874015748031497,
          "duration": 0.08850000000001046
        },
        {
          "name": "F#4",
          "midi": 66,
          "time": 143.72399999999965,
          "velocity": 0.7874015748031497,
          "duration": 0.08850000000001046
        },
        {
          "name": "C5",
          "midi": 72,
          "time": 143.72399999999965,
          "velocity": 0.7874015748031497,
          "duration": 0.08850000000001046
        },
        {
          "name": "F#5",
          "midi": 78,
          "time": 143.72399999999965,
          "velocity": 0.7874015748031497,
          "duration": 0.08850000000001046
        },
        {
          "name": "C6",
          "midi": 84,
          "time": 143.72399999999965,
          "velocity": 0.7874015748031497,
          "duration": 0.7043125000000146
        },
        {
          "name": "F#6",
          "midi": 90,
          "time": 143.72399999999965,
          "velocity": 0.7874015748031497,
          "duration": 0.7043125000000146
        },
        {
          "name": "C7",
          "midi": 96,
          "time": 143.72399999999965,
          "velocity": 0.7874015748031497,
          "duration": 0.7043125000000146
        },
        {
          "name": "F#7",
          "midi": 102,
          "time": 143.72399999999965,
          "velocity": 0.7874015748031497,
          "duration": 0.7043125000000146
        },
        {
          "name": "D4",
          "midi": 62,
          "time": 144.43199999999968,
          "velocity": 0.7874015748031497,
          "duration": 0.08850000000001046
        },
        {
          "name": "F#4",
          "midi": 66,
          "time": 144.43199999999968,
          "velocity": 0.7874015748031497,
          "duration": 0.08850000000001046
        },
        {
          "name": "C#5",
          "midi": 73,
          "time": 144.43199999999968,
          "velocity": 0.7874015748031497,
          "duration": 0.08850000000001046
        },
        {
          "name": "F#5",
          "midi": 78,
          "time": 144.43199999999968,
          "velocity": 0.7874015748031497,
          "duration": 0.08850000000001046
        },
        {
          "name": "C#6",
          "midi": 85,
          "time": 144.43199999999968,
          "velocity": 0.7874015748031497,
          "duration": 0.7043125000000146
        },
        {
          "name": "F#6",
          "midi": 90,
          "time": 144.43199999999968,
          "velocity": 0.7874015748031497,
          "duration": 0.7043125000000146
        },
        {
          "name": "C#7",
          "midi": 97,
          "time": 144.43199999999968,
          "velocity": 0.7874015748031497,
          "duration": 0.7043125000000146
        },
        {
          "name": "F#7",
          "midi": 102,
          "time": 144.43199999999968,
          "velocity": 0.7874015748031497,
          "duration": 0.7043125000000146
        },
        {
          "name": "D4",
          "midi": 62,
          "time": 145.1399999999997,
          "velocity": 0.7874015748031497,
          "duration": 0.04425000000000523
        },
        {
          "name": "F#4",
          "midi": 66,
          "time": 145.1399999999997,
          "velocity": 0.7874015748031497,
          "duration": 0.04425000000000523
        },
        {
          "name": "D#5",
          "midi": 75,
          "time": 145.1399999999997,
          "velocity": 0.7874015748031497,
          "duration": 0.04425000000000523
        },
        {
          "name": "F#5",
          "midi": 78,
          "time": 145.1399999999997,
          "velocity": 0.7874015748031497,
          "duration": 0.04425000000000523
        },
        {
          "name": "E6",
          "midi": 88,
          "time": 145.1399999999997,
          "velocity": 0.7874015748031497,
          "duration": 0.04425000000000523
        },
        {
          "name": "F#6",
          "midi": 90,
          "time": 145.1399999999997,
          "velocity": 0.7874015748031497,
          "duration": 0.04425000000000523
        },
        {
          "name": "E7",
          "midi": 100,
          "time": 145.1399999999997,
          "velocity": 0.7874015748031497,
          "duration": 0.04425000000000523
        },
        {
          "name": "F#7",
          "midi": 102,
          "time": 145.1399999999997,
          "velocity": 0.7874015748031497,
          "duration": 0.04425000000000523
        },
        {
          "name": "C#5",
          "midi": 73,
          "time": 145.3162624999997,
          "velocity": 0.7874015748031497,
          "duration": 0.04425000000000523
        },
        {
          "name": "F5",
          "midi": 77,
          "time": 145.3162624999997,
          "velocity": 0.7874015748031497,
          "duration": 0.04425000000000523
        },
        {
          "name": "D6",
          "midi": 86,
          "time": 145.3162624999997,
          "velocity": 0.7874015748031497,
          "duration": 0.04425000000000523
        },
        {
          "name": "F6",
          "midi": 89,
          "time": 145.3162624999997,
          "velocity": 0.7874015748031497,
          "duration": 0.04425000000000523
        },
        {
          "name": "D7",
          "midi": 98,
          "time": 145.3162624999997,
          "velocity": 0.7874015748031497,
          "duration": 0.04425000000000523
        },
        {
          "name": "F#7",
          "midi": 102,
          "time": 145.3162624999997,
          "velocity": 0.7874015748031497,
          "duration": 0.04425000000000523
        },
        {
          "name": "C#4",
          "midi": 61,
          "time": 145.49399999999972,
          "velocity": 0.7874015748031497,
          "duration": 0.04425000000000523
        },
        {
          "name": "F#4",
          "midi": 66,
          "time": 145.49399999999972,
          "velocity": 0.7874015748031497,
          "duration": 0.04425000000000523
        },
        {
          "name": "D5",
          "midi": 74,
          "time": 145.49399999999972,
          "velocity": 0.7874015748031497,
          "duration": 0.04425000000000523
        },
        {
          "name": "F5",
          "midi": 77,
          "time": 145.49399999999972,
          "velocity": 0.7874015748031497,
          "duration": 0.04425000000000523
        },
        {
          "name": "D#6",
          "midi": 87,
          "time": 145.49399999999972,
          "velocity": 0.7874015748031497,
          "duration": 0.04425000000000523
        },
        {
          "name": "F6",
          "midi": 89,
          "time": 145.49399999999972,
          "velocity": 0.7874015748031497,
          "duration": 0.04425000000000523
        },
        {
          "name": "D#7",
          "midi": 99,
          "time": 145.49399999999972,
          "velocity": 0.7874015748031497,
          "duration": 0.04425000000000523
        },
        {
          "name": "F#7",
          "midi": 102,
          "time": 145.49399999999972,
          "velocity": 0.7874015748031497,
          "duration": 0.04425000000000523
        },
        {
          "name": "D7",
          "midi": 98,
          "time": 145.6709999999997,
          "velocity": 0.7874015748031497,
          "duration": 0.04425000000000523
        },
        {
          "name": "F#7",
          "midi": 102,
          "time": 145.6709999999997,
          "velocity": 0.7874015748031497,
          "duration": 0.04425000000000523
        },
        {
          "name": "C#4",
          "midi": 61,
          "time": 145.8479999999997,
          "velocity": 0.7874015748031497,
          "duration": 0.043512499999991405
        },
        {
          "name": "F#4",
          "midi": 66,
          "time": 145.8479999999997,
          "velocity": 0.7874015748031497,
          "duration": 0.043512499999991405
        },
        {
          "name": "C#5",
          "midi": 73,
          "time": 145.8479999999997,
          "velocity": 0.7874015748031497,
          "duration": 0.043512499999991405
        },
        {
          "name": "F#5",
          "midi": 78,
          "time": 145.8479999999997,
          "velocity": 0.7874015748031497,
          "duration": 0.043512499999991405
        },
        {
          "name": "C#6",
          "midi": 85,
          "time": 145.8479999999997,
          "velocity": 0.7874015748031497,
          "duration": 0.043512499999991405
        },
        {
          "name": "F#6",
          "midi": 90,
          "time": 145.8479999999997,
          "velocity": 0.7874015748031497,
          "duration": 0.043512499999991405
        },
        {
          "name": "C#7",
          "midi": 97,
          "time": 145.8479999999997,
          "velocity": 0.7874015748031497,
          "duration": 0.043512499999991405
        },
        {
          "name": "F#7",
          "midi": 102,
          "time": 145.8479999999997,
          "velocity": 0.7874015748031497,
          "duration": 0.043512499999991405
        },
        {
          "name": "C4",
          "midi": 60,
          "time": 146.0249999999997,
          "velocity": 0.7874015748031497,
          "duration": 0.043512499999991405
        },
        {
          "name": "F4",
          "midi": 65,
          "time": 146.0249999999997,
          "velocity": 0.7874015748031497,
          "duration": 0.043512499999991405
        },
        {
          "name": "C5",
          "midi": 72,
          "time": 146.0249999999997,
          "velocity": 0.7874015748031497,
          "duration": 0.043512499999991405
        },
        {
          "name": "F5",
          "midi": 77,
          "time": 146.0249999999997,
          "velocity": 0.7874015748031497,
          "duration": 0.043512499999991405
        },
        {
          "name": "C6",
          "midi": 84,
          "time": 146.0249999999997,
          "velocity": 0.7874015748031497,
          "duration": 0.043512499999991405
        },
        {
          "name": "F6",
          "midi": 89,
          "time": 146.0249999999997,
          "velocity": 0.7874015748031497,
          "duration": 0.043512499999991405
        },
        {
          "name": "C7",
          "midi": 96,
          "time": 146.0249999999997,
          "velocity": 0.7874015748031497,
          "duration": 0.35178750000000036
        },
        {
          "name": "F#7",
          "midi": 102,
          "time": 146.0249999999997,
          "velocity": 0.7874015748031497,
          "duration": 0.35178750000000036
        },
        {
          "name": "D4",
          "midi": 62,
          "time": 146.3789999999997,
          "velocity": 0.7874015748031497,
          "duration": 0.043512499999991405
        },
        {
          "name": "F#4",
          "midi": 66,
          "time": 146.3789999999997,
          "velocity": 0.7874015748031497,
          "duration": 0.043512499999991405
        },
        {
          "name": "D#5",
          "midi": 75,
          "time": 146.3789999999997,
          "velocity": 0.7874015748031497,
          "duration": 0.043512499999991405
        },
        {
          "name": "F#5",
          "midi": 78,
          "time": 146.3789999999997,
          "velocity": 0.7874015748031497,
          "duration": 0.043512499999991405
        },
        {
          "name": "E6",
          "midi": 88,
          "time": 146.3789999999997,
          "velocity": 0.7874015748031497,
          "duration": 0.35178750000000036
        },
        {
          "name": "F#6",
          "midi": 90,
          "time": 146.3789999999997,
          "velocity": 0.7874015748031497,
          "duration": 0.35178750000000036
        },
        {
          "name": "E7",
          "midi": 100,
          "time": 146.3789999999997,
          "velocity": 0.7874015748031497,
          "duration": 0.35178750000000036
        },
        {
          "name": "F#7",
          "midi": 102,
          "time": 146.3789999999997,
          "velocity": 0.7874015748031497,
          "duration": 0.35178750000000036
        },
        {
          "name": "C#5",
          "midi": 73,
          "time": 146.73299999999972,
          "velocity": 0.7874015748031497,
          "duration": 0.043512499999991405
        },
        {
          "name": "F#5",
          "midi": 78,
          "time": 146.73299999999972,
          "velocity": 0.7874015748031497,
          "duration": 0.043512499999991405
        },
        {
          "name": "D6",
          "midi": 86,
          "time": 146.73299999999972,
          "velocity": 0.7874015748031497,
          "duration": 0.043512499999991405
        },
        {
          "name": "F#6",
          "midi": 90,
          "time": 146.73299999999972,
          "velocity": 0.7874015748031497,
          "duration": 0.043512499999991405
        },
        {
          "name": "D7",
          "midi": 98,
          "time": 146.73299999999972,
          "velocity": 0.7874015748031497,
          "duration": 0.043512499999991405
        },
        {
          "name": "F#7",
          "midi": 102,
          "time": 146.73299999999972,
          "velocity": 0.7874015748031497,
          "duration": 0.043512499999991405
        },
        {
          "name": "C#4",
          "midi": 61,
          "time": 146.9099999999997,
          "velocity": 0.7874015748031497,
          "duration": 0.043512499999991405
        },
        {
          "name": "F#4",
          "midi": 66,
          "time": 146.9099999999997,
          "velocity": 0.7874015748031497,
          "duration": 0.043512499999991405
        },
        {
          "name": "D5",
          "midi": 74,
          "time": 146.9099999999997,
          "velocity": 0.7874015748031497,
          "duration": 0.043512499999991405
        },
        {
          "name": "F5",
          "midi": 77,
          "time": 146.9099999999997,
          "velocity": 0.7874015748031497,
          "duration": 0.043512499999991405
        },
        {
          "name": "D#6",
          "midi": 87,
          "time": 146.9099999999997,
          "velocity": 0.7874015748031497,
          "duration": 0.043512499999991405
        },
        {
          "name": "F6",
          "midi": 89,
          "time": 146.9099999999997,
          "velocity": 0.7874015748031497,
          "duration": 0.043512499999991405
        },
        {
          "name": "D#7",
          "midi": 99,
          "time": 146.9099999999997,
          "velocity": 0.7874015748031497,
          "duration": 0.043512499999991405
        },
        {
          "name": "F#7",
          "midi": 102,
          "time": 146.9099999999997,
          "velocity": 0.7874015748031497,
          "duration": 0.043512499999991405
        },
        {
          "name": "D7",
          "midi": 98,
          "time": 147.0869999999997,
          "velocity": 0.7874015748031497,
          "duration": 0.043512499999991405
        },
        {
          "name": "F#7",
          "midi": 102,
          "time": 147.0869999999997,
          "velocity": 0.7874015748031497,
          "duration": 0.043512499999991405
        },
        {
          "name": "C4",
          "midi": 60,
          "time": 147.2639999999997,
          "velocity": 0.7874015748031497,
          "duration": 0.043512499999991405
        },
        {
          "name": "F#4",
          "midi": 66,
          "time": 147.2639999999997,
          "velocity": 0.7874015748031497,
          "duration": 0.043512499999991405
        },
        {
          "name": "C#5",
          "midi": 73,
          "time": 147.2639999999997,
          "velocity": 0.7874015748031497,
          "duration": 0.043512499999991405
        },
        {
          "name": "F#5",
          "midi": 78,
          "time": 147.2639999999997,
          "velocity": 0.7874015748031497,
          "duration": 0.043512499999991405
        },
        {
          "name": "C#6",
          "midi": 85,
          "time": 147.2639999999997,
          "velocity": 0.7874015748031497,
          "duration": 0.043512499999991405
        },
        {
          "name": "F#6",
          "midi": 90,
          "time": 147.2639999999997,
          "velocity": 0.7874015748031497,
          "duration": 0.043512499999991405
        },
        {
          "name": "C#7",
          "midi": 97,
          "time": 147.2639999999997,
          "velocity": 0.7874015748031497,
          "duration": 0.043512499999991405
        },
        {
          "name": "F#7",
          "midi": 102,
          "time": 147.2639999999997,
          "velocity": 0.7874015748031497,
          "duration": 0.043512499999991405
        },
        {
          "name": "C6",
          "midi": 84,
          "time": 147.44173749999968,
          "velocity": 0.7874015748031497,
          "duration": 0.043512499999991405
        },
        {
          "name": "F6",
          "midi": 89,
          "time": 147.44173749999968,
          "velocity": 0.7874015748031497,
          "duration": 0.043512499999991405
        },
        {
          "name": "C7",
          "midi": 96,
          "time": 147.44173749999968,
          "velocity": 0.7874015748031497,
          "duration": 0.043512499999991405
        },
        {
          "name": "F#7",
          "midi": 102,
          "time": 147.44173749999968,
          "velocity": 0.7874015748031497,
          "duration": 0.043512499999991405
        },
        {
          "name": "D4",
          "midi": 62,
          "time": 147.61799999999965,
          "velocity": 0.7874015748031497,
          "duration": 0.043512499999991405
        },
        {
          "name": "F#4",
          "midi": 66,
          "time": 147.61799999999965,
          "velocity": 0.7874015748031497,
          "duration": 0.043512499999991405
        },
        {
          "name": "D#5",
          "midi": 75,
          "time": 147.61799999999965,
          "velocity": 0.7874015748031497,
          "duration": 0.043512499999991405
        },
        {
          "name": "F#5",
          "midi": 78,
          "time": 147.61799999999965,
          "velocity": 0.7874015748031497,
          "duration": 0.043512499999991405
        },
        {
          "name": "E6",
          "midi": 88,
          "time": 147.61799999999965,
          "velocity": 0.7874015748031497,
          "duration": 0.043512499999991405
        },
        {
          "name": "F#6",
          "midi": 90,
          "time": 147.61799999999965,
          "velocity": 0.7874015748031497,
          "duration": 0.043512499999991405
        },
        {
          "name": "E7",
          "midi": 100,
          "time": 147.61799999999965,
          "velocity": 0.7874015748031497,
          "duration": 0.043512499999991405
        },
        {
          "name": "F#7",
          "midi": 102,
          "time": 147.61799999999965,
          "velocity": 0.7874015748031497,
          "duration": 0.043512499999991405
        },
        {
          "name": "C#5",
          "midi": 73,
          "time": 147.79573749999963,
          "velocity": 0.7874015748031497,
          "duration": 0.043512499999991405
        },
        {
          "name": "F5",
          "midi": 77,
          "time": 147.79573749999963,
          "velocity": 0.7874015748031497,
          "duration": 0.043512499999991405
        },
        {
          "name": "D6",
          "midi": 86,
          "time": 147.79573749999963,
          "velocity": 0.7874015748031497,
          "duration": 0.043512499999991405
        },
        {
          "name": "F6",
          "midi": 89,
          "time": 147.79573749999963,
          "velocity": 0.7874015748031497,
          "duration": 0.043512499999991405
        },
        {
          "name": "D7",
          "midi": 98,
          "time": 147.79573749999963,
          "velocity": 0.7874015748031497,
          "duration": 0.043512499999991405
        },
        {
          "name": "F#7",
          "midi": 102,
          "time": 147.79573749999963,
          "velocity": 0.7874015748031497,
          "duration": 0.043512499999991405
        },
        {
          "name": "C#4",
          "midi": 61,
          "time": 147.9719999999996,
          "velocity": 0.7874015748031497,
          "duration": 0.043512499999991405
        },
        {
          "name": "F#4",
          "midi": 66,
          "time": 147.9719999999996,
          "velocity": 0.7874015748031497,
          "duration": 0.043512499999991405
        },
        {
          "name": "D5",
          "midi": 74,
          "time": 147.9719999999996,
          "velocity": 0.7874015748031497,
          "duration": 0.043512499999991405
        },
        {
          "name": "F5",
          "midi": 77,
          "time": 147.9719999999996,
          "velocity": 0.7874015748031497,
          "duration": 0.043512499999991405
        },
        {
          "name": "D#6",
          "midi": 87,
          "time": 147.9719999999996,
          "velocity": 0.7874015748031497,
          "duration": 0.043512499999991405
        },
        {
          "name": "F6",
          "midi": 89,
          "time": 147.9719999999996,
          "velocity": 0.7874015748031497,
          "duration": 0.043512499999991405
        },
        {
          "name": "D#7",
          "midi": 99,
          "time": 147.9719999999996,
          "velocity": 0.7874015748031497,
          "duration": 0.043512499999991405
        },
        {
          "name": "F#7",
          "midi": 102,
          "time": 147.9719999999996,
          "velocity": 0.7874015748031497,
          "duration": 0.043512499999991405
        },
        {
          "name": "D7",
          "midi": 98,
          "time": 148.1497374999996,
          "velocity": 0.7874015748031497,
          "duration": 0.043512499999991405
        },
        {
          "name": "F#7",
          "midi": 102,
          "time": 148.1497374999996,
          "velocity": 0.7874015748031497,
          "duration": 0.043512499999991405
        },
        {
          "name": "C#4",
          "midi": 61,
          "time": 148.32599999999957,
          "velocity": 0.7874015748031497,
          "duration": 0.043512499999991405
        },
        {
          "name": "F#4",
          "midi": 66,
          "time": 148.32599999999957,
          "velocity": 0.7874015748031497,
          "duration": 0.043512499999991405
        },
        {
          "name": "C#5",
          "midi": 73,
          "time": 148.32599999999957,
          "velocity": 0.7874015748031497,
          "duration": 0.043512499999991405
        },
        {
          "name": "F#5",
          "midi": 78,
          "time": 148.32599999999957,
          "velocity": 0.7874015748031497,
          "duration": 0.043512499999991405
        },
        {
          "name": "C#6",
          "midi": 85,
          "time": 148.32599999999957,
          "velocity": 0.7874015748031497,
          "duration": 0.043512499999991405
        },
        {
          "name": "F#6",
          "midi": 90,
          "time": 148.32599999999957,
          "velocity": 0.7874015748031497,
          "duration": 0.043512499999991405
        },
        {
          "name": "C#7",
          "midi": 97,
          "time": 148.32599999999957,
          "velocity": 0.7874015748031497,
          "duration": 0.043512499999991405
        },
        {
          "name": "F#7",
          "midi": 102,
          "time": 148.32599999999957,
          "velocity": 0.7874015748031497,
          "duration": 0.043512499999991405
        },
        {
          "name": "C4",
          "midi": 60,
          "time": 148.50373749999954,
          "velocity": 0.7874015748031497,
          "duration": 0.043512499999991405
        },
        {
          "name": "F4",
          "midi": 65,
          "time": 148.50373749999954,
          "velocity": 0.7874015748031497,
          "duration": 0.043512499999991405
        },
        {
          "name": "C5",
          "midi": 72,
          "time": 148.50373749999954,
          "velocity": 0.7874015748031497,
          "duration": 0.043512499999991405
        },
        {
          "name": "F5",
          "midi": 77,
          "time": 148.50373749999954,
          "velocity": 0.7874015748031497,
          "duration": 0.043512499999991405
        },
        {
          "name": "C6",
          "midi": 84,
          "time": 148.50373749999954,
          "velocity": 0.7874015748031497,
          "duration": 0.043512499999991405
        },
        {
          "name": "F6",
          "midi": 89,
          "time": 148.50373749999954,
          "velocity": 0.7874015748031497,
          "duration": 0.043512499999991405
        },
        {
          "name": "C7",
          "midi": 96,
          "time": 148.50373749999954,
          "velocity": 0.7874015748031497,
          "duration": 0.35178750000000036
        },
        {
          "name": "F#7",
          "midi": 102,
          "time": 148.50373749999954,
          "velocity": 0.7874015748031497,
          "duration": 0.35178750000000036
        },
        {
          "name": "D4",
          "midi": 62,
          "time": 148.85773749999956,
          "velocity": 0.7874015748031497,
          "duration": 0.043512499999991405
        },
        {
          "name": "F#4",
          "midi": 66,
          "time": 148.85773749999956,
          "velocity": 0.7874015748031497,
          "duration": 0.043512499999991405
        },
        {
          "name": "D#5",
          "midi": 75,
          "time": 148.85773749999956,
          "velocity": 0.7874015748031497,
          "duration": 0.043512499999991405
        },
        {
          "name": "F#5",
          "midi": 78,
          "time": 148.85773749999956,
          "velocity": 0.7874015748031497,
          "duration": 0.043512499999991405
        },
        {
          "name": "E6",
          "midi": 88,
          "time": 148.85773749999956,
          "velocity": 0.7874015748031497,
          "duration": 0.35178750000000036
        },
        {
          "name": "F#6",
          "midi": 90,
          "time": 148.85773749999956,
          "velocity": 0.7874015748031497,
          "duration": 0.35178750000000036
        },
        {
          "name": "E7",
          "midi": 100,
          "time": 148.85773749999956,
          "velocity": 0.7874015748031497,
          "duration": 0.35178750000000036
        },
        {
          "name": "F#7",
          "midi": 102,
          "time": 148.85773749999956,
          "velocity": 0.7874015748031497,
          "duration": 0.35178750000000036
        },
        {
          "name": "C#5",
          "midi": 73,
          "time": 149.21173749999957,
          "velocity": 0.7874015748031497,
          "duration": 0.043512499999991405
        },
        {
          "name": "F#5",
          "midi": 78,
          "time": 149.21173749999957,
          "velocity": 0.7874015748031497,
          "duration": 0.043512499999991405
        },
        {
          "name": "D6",
          "midi": 86,
          "time": 149.21173749999957,
          "velocity": 0.7874015748031497,
          "duration": 0.043512499999991405
        },
        {
          "name": "F#6",
          "midi": 90,
          "time": 149.21173749999957,
          "velocity": 0.7874015748031497,
          "duration": 0.043512499999991405
        },
        {
          "name": "D7",
          "midi": 98,
          "time": 149.21173749999957,
          "velocity": 0.7874015748031497,
          "duration": 0.043512499999991405
        },
        {
          "name": "F#7",
          "midi": 102,
          "time": 149.21173749999957,
          "velocity": 0.7874015748031497,
          "duration": 0.043512499999991405
        },
        {
          "name": "C#4",
          "midi": 61,
          "time": 149.38799999999955,
          "velocity": 0.7874015748031497,
          "duration": 0.04425000000000523
        },
        {
          "name": "F#4",
          "midi": 66,
          "time": 149.38799999999955,
          "velocity": 0.7874015748031497,
          "duration": 0.04425000000000523
        },
        {
          "name": "D5",
          "midi": 74,
          "time": 149.38799999999955,
          "velocity": 0.7874015748031497,
          "duration": 0.04425000000000523
        },
        {
          "name": "F5",
          "midi": 77,
          "time": 149.38799999999955,
          "velocity": 0.7874015748031497,
          "duration": 0.04425000000000523
        },
        {
          "name": "D#6",
          "midi": 87,
          "time": 149.38799999999955,
          "velocity": 0.7874015748031497,
          "duration": 0.04425000000000523
        },
        {
          "name": "F6",
          "midi": 89,
          "time": 149.38799999999955,
          "velocity": 0.7874015748031497,
          "duration": 0.04425000000000523
        },
        {
          "name": "D#7",
          "midi": 99,
          "time": 149.38799999999955,
          "velocity": 0.7874015748031497,
          "duration": 0.04425000000000523
        },
        {
          "name": "F#7",
          "midi": 102,
          "time": 149.38799999999955,
          "velocity": 0.7874015748031497,
          "duration": 0.04425000000000523
        },
        {
          "name": "D7",
          "midi": 98,
          "time": 149.56499999999954,
          "velocity": 0.7874015748031497,
          "duration": 0.04425000000000523
        },
        {
          "name": "F#7",
          "midi": 102,
          "time": 149.56499999999954,
          "velocity": 0.7874015748031497,
          "duration": 0.04425000000000523
        },
        {
          "name": "C4",
          "midi": 60,
          "time": 149.74199999999954,
          "velocity": 0.7874015748031497,
          "duration": 0.04425000000000523
        },
        {
          "name": "F#4",
          "midi": 66,
          "time": 149.74199999999954,
          "velocity": 0.7874015748031497,
          "duration": 0.04425000000000523
        },
        {
          "name": "C#5",
          "midi": 73,
          "time": 149.74199999999954,
          "velocity": 0.7874015748031497,
          "duration": 0.04425000000000523
        },
        {
          "name": "F#5",
          "midi": 78,
          "time": 149.74199999999954,
          "velocity": 0.7874015748031497,
          "duration": 0.04425000000000523
        },
        {
          "name": "C#6",
          "midi": 85,
          "time": 149.74199999999954,
          "velocity": 0.7874015748031497,
          "duration": 0.04425000000000523
        },
        {
          "name": "F#6",
          "midi": 90,
          "time": 149.74199999999954,
          "velocity": 0.7874015748031497,
          "duration": 0.04425000000000523
        },
        {
          "name": "C#7",
          "midi": 97,
          "time": 149.74199999999954,
          "velocity": 0.7874015748031497,
          "duration": 0.04425000000000523
        },
        {
          "name": "F#7",
          "midi": 102,
          "time": 149.74199999999954,
          "velocity": 0.7874015748031497,
          "duration": 0.04425000000000523
        },
        {
          "name": "C6",
          "midi": 84,
          "time": 149.91899999999953,
          "velocity": 0.7874015748031497,
          "duration": 0.04425000000000523
        },
        {
          "name": "F6",
          "midi": 89,
          "time": 149.91899999999953,
          "velocity": 0.7874015748031497,
          "duration": 0.04425000000000523
        },
        {
          "name": "C7",
          "midi": 96,
          "time": 149.91899999999953,
          "velocity": 0.7874015748031497,
          "duration": 0.04425000000000523
        },
        {
          "name": "F#7",
          "midi": 102,
          "time": 149.91899999999953,
          "velocity": 0.7874015748031497,
          "duration": 0.04425000000000523
        },
        {
          "name": "D4",
          "midi": 62,
          "time": 150.09599999999952,
          "velocity": 0.7874015748031497,
          "duration": 0.04425000000000523
        },
        {
          "name": "F#4",
          "midi": 66,
          "time": 150.09599999999952,
          "velocity": 0.7874015748031497,
          "duration": 0.04425000000000523
        },
        {
          "name": "D#5",
          "midi": 75,
          "time": 150.09599999999952,
          "velocity": 0.7874015748031497,
          "duration": 0.04425000000000523
        },
        {
          "name": "F#5",
          "midi": 78,
          "time": 150.09599999999952,
          "velocity": 0.7874015748031497,
          "duration": 0.04425000000000523
        },
        {
          "name": "D#6",
          "midi": 87,
          "time": 150.09599999999952,
          "velocity": 0.7874015748031497,
          "duration": 0.04425000000000523
        },
        {
          "name": "F#6",
          "midi": 90,
          "time": 150.09599999999952,
          "velocity": 0.7874015748031497,
          "duration": 0.04425000000000523
        },
        {
          "name": "D#7",
          "midi": 99,
          "time": 150.09599999999952,
          "velocity": 0.7874015748031497,
          "duration": 0.04425000000000523
        },
        {
          "name": "F#7",
          "midi": 102,
          "time": 150.09599999999952,
          "velocity": 0.7874015748031497,
          "duration": 0.04425000000000523
        },
        {
          "name": "D5",
          "midi": 74,
          "time": 150.2729999999995,
          "velocity": 0.7874015748031497,
          "duration": 0.04425000000000523
        },
        {
          "name": "F5",
          "midi": 77,
          "time": 150.2729999999995,
          "velocity": 0.7874015748031497,
          "duration": 0.04425000000000523
        },
        {
          "name": "D6",
          "midi": 86,
          "time": 150.2729999999995,
          "velocity": 0.7874015748031497,
          "duration": 0.04425000000000523
        },
        {
          "name": "F6",
          "midi": 89,
          "time": 150.2729999999995,
          "velocity": 0.7874015748031497,
          "duration": 0.04425000000000523
        },
        {
          "name": "D7",
          "midi": 98,
          "time": 150.2729999999995,
          "velocity": 0.7874015748031497,
          "duration": 0.04425000000000523
        },
        {
          "name": "F#7",
          "midi": 102,
          "time": 150.2729999999995,
          "velocity": 0.7874015748031497,
          "duration": 0.04425000000000523
        },
        {
          "name": "C#4",
          "midi": 61,
          "time": 150.4499999999995,
          "velocity": 0.7874015748031497,
          "duration": 0.04425000000000523
        },
        {
          "name": "F#4",
          "midi": 66,
          "time": 150.4499999999995,
          "velocity": 0.7874015748031497,
          "duration": 0.04425000000000523
        },
        {
          "name": "D#5",
          "midi": 75,
          "time": 150.4499999999995,
          "velocity": 0.7874015748031497,
          "duration": 0.04425000000000523
        },
        {
          "name": "F5",
          "midi": 77,
          "time": 150.4499999999995,
          "velocity": 0.7874015748031497,
          "duration": 0.04425000000000523
        },
        {
          "name": "E6",
          "midi": 88,
          "time": 150.4499999999995,
          "velocity": 0.7874015748031497,
          "duration": 0.04425000000000523
        },
        {
          "name": "F6",
          "midi": 89,
          "time": 150.4499999999995,
          "velocity": 0.7874015748031497,
          "duration": 0.04425000000000523
        },
        {
          "name": "E7",
          "midi": 100,
          "time": 150.4499999999995,
          "velocity": 0.7874015748031497,
          "duration": 0.04425000000000523
        },
        {
          "name": "F#7",
          "midi": 102,
          "time": 150.4499999999995,
          "velocity": 0.7874015748031497,
          "duration": 0.04425000000000523
        },
        {
          "name": "D#7",
          "midi": 99,
          "time": 150.6269999999995,
          "velocity": 0.7874015748031497,
          "duration": 0.04425000000000523
        },
        {
          "name": "F#7",
          "midi": 102,
          "time": 150.6269999999995,
          "velocity": 0.7874015748031497,
          "duration": 0.04425000000000523
        },
        {
          "name": "C#4",
          "midi": 61,
          "time": 150.8039999999995,
          "velocity": 0.7874015748031497,
          "duration": 0.043512499999991405
        },
        {
          "name": "F#4",
          "midi": 66,
          "time": 150.8039999999995,
          "velocity": 0.7874015748031497,
          "duration": 0.043512499999991405
        },
        {
          "name": "D5",
          "midi": 74,
          "time": 150.8039999999995,
          "velocity": 0.7874015748031497,
          "duration": 0.043512499999991405
        },
        {
          "name": "F#5",
          "midi": 78,
          "time": 150.8039999999995,
          "velocity": 0.7874015748031497,
          "duration": 0.043512499999991405
        },
        {
          "name": "D6",
          "midi": 86,
          "time": 150.8039999999995,
          "velocity": 0.7874015748031497,
          "duration": 0.043512499999991405
        },
        {
          "name": "F#6",
          "midi": 90,
          "time": 150.8039999999995,
          "velocity": 0.7874015748031497,
          "duration": 0.043512499999991405
        },
        {
          "name": "D7",
          "midi": 98,
          "time": 150.8039999999995,
          "velocity": 0.7874015748031497,
          "duration": 0.043512499999991405
        },
        {
          "name": "F#7",
          "midi": 102,
          "time": 150.8039999999995,
          "velocity": 0.7874015748031497,
          "duration": 0.043512499999991405
        },
        {
          "name": "C4",
          "midi": 60,
          "time": 150.98099999999948,
          "velocity": 0.7874015748031497,
          "duration": 0.043512499999991405
        },
        {
          "name": "F4",
          "midi": 65,
          "time": 150.98099999999948,
          "velocity": 0.7874015748031497,
          "duration": 0.043512499999991405
        },
        {
          "name": "C#5",
          "midi": 73,
          "time": 150.98099999999948,
          "velocity": 0.7874015748031497,
          "duration": 0.043512499999991405
        },
        {
          "name": "F5",
          "midi": 77,
          "time": 150.98099999999948,
          "velocity": 0.7874015748031497,
          "duration": 0.043512499999991405
        },
        {
          "name": "C#6",
          "midi": 85,
          "time": 150.98099999999948,
          "velocity": 0.7874015748031497,
          "duration": 0.35178750000000036
        },
        {
          "name": "F6",
          "midi": 89,
          "time": 150.98099999999948,
          "velocity": 0.7874015748031497,
          "duration": 0.35178750000000036
        },
        {
          "name": "C#7",
          "midi": 97,
          "time": 150.98099999999948,
          "velocity": 0.7874015748031497,
          "duration": 0.35178750000000036
        },
        {
          "name": "F#7",
          "midi": 102,
          "time": 150.98099999999948,
          "velocity": 0.7874015748031497,
          "duration": 0.35178750000000036
        },
        {
          "name": "D4",
          "midi": 62,
          "time": 151.3349999999995,
          "velocity": 0.7874015748031497,
          "duration": 0.043512499999991405
        },
        {
          "name": "F#4",
          "midi": 66,
          "time": 151.3349999999995,
          "velocity": 0.7874015748031497,
          "duration": 0.043512499999991405
        },
        {
          "name": "D#5",
          "midi": 75,
          "time": 151.3349999999995,
          "velocity": 0.7874015748031497,
          "duration": 0.043512499999991405
        },
        {
          "name": "F#5",
          "midi": 78,
          "time": 151.3349999999995,
          "velocity": 0.7874015748031497,
          "duration": 0.043512499999991405
        },
        {
          "name": "D#6",
          "midi": 87,
          "time": 151.3349999999995,
          "velocity": 0.7874015748031497,
          "duration": 0.35178750000000036
        },
        {
          "name": "F#6",
          "midi": 90,
          "time": 151.3349999999995,
          "velocity": 0.7874015748031497,
          "duration": 0.35178750000000036
        },
        {
          "name": "D#7",
          "midi": 99,
          "time": 151.3349999999995,
          "velocity": 0.7874015748031497,
          "duration": 0.35178750000000036
        },
        {
          "name": "F#7",
          "midi": 102,
          "time": 151.3349999999995,
          "velocity": 0.7874015748031497,
          "duration": 0.35178750000000036
        },
        {
          "name": "D5",
          "midi": 74,
          "time": 151.6882624999995,
          "velocity": 0.7874015748031497,
          "duration": 0.043512499999991405
        },
        {
          "name": "F#5",
          "midi": 78,
          "time": 151.6882624999995,
          "velocity": 0.7874015748031497,
          "duration": 0.043512499999991405
        },
        {
          "name": "D6",
          "midi": 86,
          "time": 151.6882624999995,
          "velocity": 0.7874015748031497,
          "duration": 0.043512499999991405
        },
        {
          "name": "F#6",
          "midi": 90,
          "time": 151.6882624999995,
          "velocity": 0.7874015748031497,
          "duration": 0.043512499999991405
        },
        {
          "name": "D7",
          "midi": 98,
          "time": 151.6882624999995,
          "velocity": 0.7874015748031497,
          "duration": 0.043512499999991405
        },
        {
          "name": "F#7",
          "midi": 102,
          "time": 151.6882624999995,
          "velocity": 0.7874015748031497,
          "duration": 0.043512499999991405
        },
        {
          "name": "C#4",
          "midi": 61,
          "time": 151.86599999999947,
          "velocity": 0.7874015748031497,
          "duration": 0.04425000000000523
        },
        {
          "name": "F4",
          "midi": 65,
          "time": 151.86599999999947,
          "velocity": 0.7874015748031497,
          "duration": 0.04425000000000523
        },
        {
          "name": "D#5",
          "midi": 75,
          "time": 151.86599999999947,
          "velocity": 0.7874015748031497,
          "duration": 0.04425000000000523
        },
        {
          "name": "F5",
          "midi": 77,
          "time": 151.86599999999947,
          "velocity": 0.7874015748031497,
          "duration": 0.04425000000000523
        },
        {
          "name": "E6",
          "midi": 88,
          "time": 151.86599999999947,
          "velocity": 0.7874015748031497,
          "duration": 0.04425000000000523
        },
        {
          "name": "F6",
          "midi": 89,
          "time": 151.86599999999947,
          "velocity": 0.7874015748031497,
          "duration": 0.04425000000000523
        },
        {
          "name": "E7",
          "midi": 100,
          "time": 151.86599999999947,
          "velocity": 0.7874015748031497,
          "duration": 0.04425000000000523
        },
        {
          "name": "F#7",
          "midi": 102,
          "time": 151.86599999999947,
          "velocity": 0.7874015748031497,
          "duration": 0.04425000000000523
        },
        {
          "name": "D#7",
          "midi": 99,
          "time": 152.04299999999947,
          "velocity": 0.7874015748031497,
          "duration": 0.04425000000000523
        },
        {
          "name": "F#7",
          "midi": 102,
          "time": 152.04299999999947,
          "velocity": 0.7874015748031497,
          "duration": 0.04425000000000523
        },
        {
          "name": "C4",
          "midi": 60,
          "time": 152.21999999999946,
          "velocity": 0.7874015748031497,
          "duration": 0.043512499999991405
        },
        {
          "name": "F#4",
          "midi": 66,
          "time": 152.21999999999946,
          "velocity": 0.7874015748031497,
          "duration": 0.043512499999991405
        },
        {
          "name": "D5",
          "midi": 74,
          "time": 152.21999999999946,
          "velocity": 0.7874015748031497,
          "duration": 0.043512499999991405
        },
        {
          "name": "F#5",
          "midi": 78,
          "time": 152.21999999999946,
          "velocity": 0.7874015748031497,
          "duration": 0.043512499999991405
        },
        {
          "name": "D6",
          "midi": 86,
          "time": 152.21999999999946,
          "velocity": 0.7874015748031497,
          "duration": 0.043512499999991405
        },
        {
          "name": "F#6",
          "midi": 90,
          "time": 152.21999999999946,
          "velocity": 0.7874015748031497,
          "duration": 0.043512499999991405
        },
        {
          "name": "D7",
          "midi": 98,
          "time": 152.21999999999946,
          "velocity": 0.7874015748031497,
          "duration": 0.043512499999991405
        },
        {
          "name": "F#7",
          "midi": 102,
          "time": 152.21999999999946,
          "velocity": 0.7874015748031497,
          "duration": 0.043512499999991405
        },
        {
          "name": "C#6",
          "midi": 85,
          "time": 152.39699999999945,
          "velocity": 0.7874015748031497,
          "duration": 0.043512499999991405
        },
        {
          "name": "F6",
          "midi": 89,
          "time": 152.39699999999945,
          "velocity": 0.7874015748031497,
          "duration": 0.043512499999991405
        },
        {
          "name": "C#7",
          "midi": 97,
          "time": 152.39699999999945,
          "velocity": 0.7874015748031497,
          "duration": 0.043512499999991405
        },
        {
          "name": "F#7",
          "midi": 102,
          "time": 152.39699999999945,
          "velocity": 0.7874015748031497,
          "duration": 0.043512499999991405
        },
        {
          "name": "D4",
          "midi": 62,
          "time": 152.57399999999944,
          "velocity": 0.7874015748031497,
          "duration": 0.043512499999991405
        },
        {
          "name": "F#4",
          "midi": 66,
          "time": 152.57399999999944,
          "velocity": 0.7874015748031497,
          "duration": 0.043512499999991405
        },
        {
          "name": "D#5",
          "midi": 75,
          "time": 152.57399999999944,
          "velocity": 0.7874015748031497,
          "duration": 0.043512499999991405
        },
        {
          "name": "F#5",
          "midi": 78,
          "time": 152.57399999999944,
          "velocity": 0.7874015748031497,
          "duration": 0.043512499999991405
        },
        {
          "name": "D#6",
          "midi": 87,
          "time": 152.57399999999944,
          "velocity": 0.7874015748031497,
          "duration": 0.043512499999991405
        },
        {
          "name": "F#6",
          "midi": 90,
          "time": 152.57399999999944,
          "velocity": 0.7874015748031497,
          "duration": 0.043512499999991405
        },
        {
          "name": "D#7",
          "midi": 99,
          "time": 152.57399999999944,
          "velocity": 0.7874015748031497,
          "duration": 0.043512499999991405
        },
        {
          "name": "F#7",
          "midi": 102,
          "time": 152.57399999999944,
          "velocity": 0.7874015748031497,
          "duration": 0.043512499999991405
        },
        {
          "name": "D5",
          "midi": 74,
          "time": 152.75026249999942,
          "velocity": 0.7874015748031497,
          "duration": 0.043512499999991405
        },
        {
          "name": "F5",
          "midi": 77,
          "time": 152.75026249999942,
          "velocity": 0.7874015748031497,
          "duration": 0.043512499999991405
        },
        {
          "name": "D6",
          "midi": 86,
          "time": 152.75026249999942,
          "velocity": 0.7874015748031497,
          "duration": 0.043512499999991405
        },
        {
          "name": "F6",
          "midi": 89,
          "time": 152.75026249999942,
          "velocity": 0.7874015748031497,
          "duration": 0.043512499999991405
        },
        {
          "name": "D7",
          "midi": 98,
          "time": 152.75026249999942,
          "velocity": 0.7874015748031497,
          "duration": 0.043512499999991405
        },
        {
          "name": "F#7",
          "midi": 102,
          "time": 152.75026249999942,
          "velocity": 0.7874015748031497,
          "duration": 0.043512499999991405
        },
        {
          "name": "C#4",
          "midi": 61,
          "time": 152.9279999999994,
          "velocity": 0.7874015748031497,
          "duration": 0.043512499999991405
        },
        {
          "name": "F#4",
          "midi": 66,
          "time": 152.9279999999994,
          "velocity": 0.7874015748031497,
          "duration": 0.043512499999991405
        },
        {
          "name": "D#5",
          "midi": 75,
          "time": 152.9279999999994,
          "velocity": 0.7874015748031497,
          "duration": 0.043512499999991405
        },
        {
          "name": "F5",
          "midi": 77,
          "time": 152.9279999999994,
          "velocity": 0.7874015748031497,
          "duration": 0.043512499999991405
        },
        {
          "name": "E6",
          "midi": 88,
          "time": 152.9279999999994,
          "velocity": 0.7874015748031497,
          "duration": 0.043512499999991405
        },
        {
          "name": "F6",
          "midi": 89,
          "time": 152.9279999999994,
          "velocity": 0.7874015748031497,
          "duration": 0.043512499999991405
        },
        {
          "name": "E7",
          "midi": 100,
          "time": 152.9279999999994,
          "velocity": 0.7874015748031497,
          "duration": 0.043512499999991405
        },
        {
          "name": "F#7",
          "midi": 102,
          "time": 152.9279999999994,
          "velocity": 0.7874015748031497,
          "duration": 0.043512499999991405
        },
        {
          "name": "D#7",
          "midi": 99,
          "time": 153.1049999999994,
          "velocity": 0.7874015748031497,
          "duration": 0.043512499999991405
        },
        {
          "name": "F#7",
          "midi": 102,
          "time": 153.1049999999994,
          "velocity": 0.7874015748031497,
          "duration": 0.043512499999991405
        },
        {
          "name": "C#4",
          "midi": 61,
          "time": 153.28199999999939,
          "velocity": 0.7874015748031497,
          "duration": 0.043512499999991405
        },
        {
          "name": "F#4",
          "midi": 66,
          "time": 153.28199999999939,
          "velocity": 0.7874015748031497,
          "duration": 0.043512499999991405
        },
        {
          "name": "D5",
          "midi": 74,
          "time": 153.28199999999939,
          "velocity": 0.7874015748031497,
          "duration": 0.043512499999991405
        },
        {
          "name": "F#5",
          "midi": 78,
          "time": 153.28199999999939,
          "velocity": 0.7874015748031497,
          "duration": 0.043512499999991405
        },
        {
          "name": "D6",
          "midi": 86,
          "time": 153.28199999999939,
          "velocity": 0.7874015748031497,
          "duration": 0.043512499999991405
        },
        {
          "name": "F#6",
          "midi": 90,
          "time": 153.28199999999939,
          "velocity": 0.7874015748031497,
          "duration": 0.043512499999991405
        },
        {
          "name": "D7",
          "midi": 98,
          "time": 153.28199999999939,
          "velocity": 0.7874015748031497,
          "duration": 0.043512499999991405
        },
        {
          "name": "F#7",
          "midi": 102,
          "time": 153.28199999999939,
          "velocity": 0.7874015748031497,
          "duration": 0.043512499999991405
        },
        {
          "name": "C4",
          "midi": 60,
          "time": 153.45826249999936,
          "velocity": 0.7874015748031497,
          "duration": 0.043512499999991405
        },
        {
          "name": "F4",
          "midi": 65,
          "time": 153.45826249999936,
          "velocity": 0.7874015748031497,
          "duration": 0.043512499999991405
        },
        {
          "name": "C#5",
          "midi": 73,
          "time": 153.45826249999936,
          "velocity": 0.7874015748031497,
          "duration": 0.043512499999991405
        },
        {
          "name": "F5",
          "midi": 77,
          "time": 153.45826249999936,
          "velocity": 0.7874015748031497,
          "duration": 0.043512499999991405
        },
        {
          "name": "C#6",
          "midi": 85,
          "time": 153.45826249999936,
          "velocity": 0.7874015748031497,
          "duration": 0.3532624999999996
        },
        {
          "name": "F6",
          "midi": 89,
          "time": 153.45826249999936,
          "velocity": 0.7874015748031497,
          "duration": 0.3532624999999996
        },
        {
          "name": "C#7",
          "midi": 97,
          "time": 153.45826249999936,
          "velocity": 0.7874015748031497,
          "duration": 0.3532624999999996
        },
        {
          "name": "F#7",
          "midi": 102,
          "time": 153.45826249999936,
          "velocity": 0.7874015748031497,
          "duration": 0.3532624999999996
        },
        {
          "name": "D4",
          "midi": 62,
          "time": 153.81373749999938,
          "velocity": 0.7874015748031497,
          "duration": 0.042775000000006
        },
        {
          "name": "F#4",
          "midi": 66,
          "time": 153.81373749999938,
          "velocity": 0.7874015748031497,
          "duration": 0.042775000000006
        },
        {
          "name": "D#5",
          "midi": 75,
          "time": 153.81373749999938,
          "velocity": 0.7874015748031497,
          "duration": 0.042775000000006
        },
        {
          "name": "F#5",
          "midi": 78,
          "time": 153.81373749999938,
          "velocity": 0.7874015748031497,
          "duration": 0.042775000000006
        },
        {
          "name": "D#6",
          "midi": 87,
          "time": 153.81373749999938,
          "velocity": 0.7874015748031497,
          "duration": 0.35178750000000036
        },
        {
          "name": "F#6",
          "midi": 90,
          "time": 153.81373749999938,
          "velocity": 0.7874015748031497,
          "duration": 0.35178750000000036
        },
        {
          "name": "D#7",
          "midi": 99,
          "time": 153.81373749999938,
          "velocity": 0.7874015748031497,
          "duration": 0.35178750000000036
        },
        {
          "name": "F#7",
          "midi": 102,
          "time": 153.81373749999938,
          "velocity": 0.7874015748031497,
          "duration": 0.35178750000000036
        },
        {
          "name": "D5",
          "midi": 74,
          "time": 154.1677374999994,
          "velocity": 0.7874015748031497,
          "duration": 0.042775000000006
        },
        {
          "name": "F#5",
          "midi": 78,
          "time": 154.1677374999994,
          "velocity": 0.7874015748031497,
          "duration": 0.042775000000006
        },
        {
          "name": "D6",
          "midi": 86,
          "time": 154.1677374999994,
          "velocity": 0.7874015748031497,
          "duration": 0.042775000000006
        },
        {
          "name": "F#6",
          "midi": 90,
          "time": 154.1677374999994,
          "velocity": 0.7874015748031497,
          "duration": 0.042775000000006
        },
        {
          "name": "D7",
          "midi": 98,
          "time": 154.1677374999994,
          "velocity": 0.7874015748031497,
          "duration": 0.042775000000006
        },
        {
          "name": "F#7",
          "midi": 102,
          "time": 154.1677374999994,
          "velocity": 0.7874015748031497,
          "duration": 0.042775000000006
        },
        {
          "name": "C#4",
          "midi": 61,
          "time": 154.3439999999994,
          "velocity": 0.7874015748031497,
          "duration": 0.043512499999991405
        },
        {
          "name": "F#4",
          "midi": 66,
          "time": 154.3439999999994,
          "velocity": 0.7874015748031497,
          "duration": 0.043512499999991405
        },
        {
          "name": "D#5",
          "midi": 75,
          "time": 154.3439999999994,
          "velocity": 0.7874015748031497,
          "duration": 0.043512499999991405
        },
        {
          "name": "F5",
          "midi": 77,
          "time": 154.3439999999994,
          "velocity": 0.7874015748031497,
          "duration": 0.043512499999991405
        },
        {
          "name": "E6",
          "midi": 88,
          "time": 154.3439999999994,
          "velocity": 0.7874015748031497,
          "duration": 0.043512499999991405
        },
        {
          "name": "F6",
          "midi": 89,
          "time": 154.3439999999994,
          "velocity": 0.7874015748031497,
          "duration": 0.043512499999991405
        },
        {
          "name": "E7",
          "midi": 100,
          "time": 154.3439999999994,
          "velocity": 0.7874015748031497,
          "duration": 0.043512499999991405
        },
        {
          "name": "F#7",
          "midi": 102,
          "time": 154.3439999999994,
          "velocity": 0.7874015748031497,
          "duration": 0.043512499999991405
        },
        {
          "name": "D#7",
          "midi": 99,
          "time": 154.5209999999994,
          "velocity": 0.7874015748031497,
          "duration": 0.043512499999991405
        },
        {
          "name": "F#7",
          "midi": 102,
          "time": 154.5209999999994,
          "velocity": 0.7874015748031497,
          "duration": 0.043512499999991405
        },
        {
          "name": "C4",
          "midi": 60,
          "time": 154.69799999999938,
          "velocity": 0.7874015748031497,
          "duration": 0.043512499999991405
        },
        {
          "name": "F#4",
          "midi": 66,
          "time": 154.69799999999938,
          "velocity": 0.7874015748031497,
          "duration": 0.043512499999991405
        },
        {
          "name": "D5",
          "midi": 74,
          "time": 154.69799999999938,
          "velocity": 0.7874015748031497,
          "duration": 0.043512499999991405
        },
        {
          "name": "F#5",
          "midi": 78,
          "time": 154.69799999999938,
          "velocity": 0.7874015748031497,
          "duration": 0.043512499999991405
        },
        {
          "name": "D6",
          "midi": 86,
          "time": 154.69799999999938,
          "velocity": 0.7874015748031497,
          "duration": 0.043512499999991405
        },
        {
          "name": "F#6",
          "midi": 90,
          "time": 154.69799999999938,
          "velocity": 0.7874015748031497,
          "duration": 0.043512499999991405
        },
        {
          "name": "D7",
          "midi": 98,
          "time": 154.69799999999938,
          "velocity": 0.7874015748031497,
          "duration": 0.043512499999991405
        },
        {
          "name": "F#7",
          "midi": 102,
          "time": 154.69799999999938,
          "velocity": 0.7874015748031497,
          "duration": 0.043512499999991405
        },
        {
          "name": "C#6",
          "midi": 85,
          "time": 154.87499999999937,
          "velocity": 0.7874015748031497,
          "duration": 0.043512499999991405
        },
        {
          "name": "F6",
          "midi": 89,
          "time": 154.87499999999937,
          "velocity": 0.7874015748031497,
          "duration": 0.043512499999991405
        },
        {
          "name": "C#7",
          "midi": 97,
          "time": 154.87499999999937,
          "velocity": 0.7874015748031497,
          "duration": 0.043512499999991405
        },
        {
          "name": "F#7",
          "midi": 102,
          "time": 154.87499999999937,
          "velocity": 0.7874015748031497,
          "duration": 0.043512499999991405
        },
        {
          "name": "D4",
          "midi": 62,
          "time": 155.05199999999937,
          "velocity": 0.7874015748031497,
          "duration": 0.043512499999991405
        },
        {
          "name": "F#4",
          "midi": 66,
          "time": 155.05199999999937,
          "velocity": 0.7874015748031497,
          "duration": 0.043512499999991405
        },
        {
          "name": "D#5",
          "midi": 75,
          "time": 155.05199999999937,
          "velocity": 0.7874015748031497,
          "duration": 0.043512499999991405
        },
        {
          "name": "F#5",
          "midi": 78,
          "time": 155.05199999999937,
          "velocity": 0.7874015748031497,
          "duration": 0.043512499999991405
        },
        {
          "name": "E6",
          "midi": 88,
          "time": 155.05199999999937,
          "velocity": 0.7874015748031497,
          "duration": 0.043512499999991405
        },
        {
          "name": "F#6",
          "midi": 90,
          "time": 155.05199999999937,
          "velocity": 0.7874015748031497,
          "duration": 0.043512499999991405
        },
        {
          "name": "E7",
          "midi": 100,
          "time": 155.05199999999937,
          "velocity": 0.7874015748031497,
          "duration": 0.043512499999991405
        },
        {
          "name": "F#7",
          "midi": 102,
          "time": 155.05199999999937,
          "velocity": 0.7874015748031497,
          "duration": 0.043512499999991405
        },
        {
          "name": "C#5",
          "midi": 73,
          "time": 155.22899999999936,
          "velocity": 0.7874015748031497,
          "duration": 0.043512499999991405
        },
        {
          "name": "F5",
          "midi": 77,
          "time": 155.22899999999936,
          "velocity": 0.7874015748031497,
          "duration": 0.043512499999991405
        },
        {
          "name": "D6",
          "midi": 86,
          "time": 155.22899999999936,
          "velocity": 0.7874015748031497,
          "duration": 0.043512499999991405
        },
        {
          "name": "F6",
          "midi": 89,
          "time": 155.22899999999936,
          "velocity": 0.7874015748031497,
          "duration": 0.043512499999991405
        },
        {
          "name": "D7",
          "midi": 98,
          "time": 155.22899999999936,
          "velocity": 0.7874015748031497,
          "duration": 0.043512499999991405
        },
        {
          "name": "F#7",
          "midi": 102,
          "time": 155.22899999999936,
          "velocity": 0.7874015748031497,
          "duration": 0.043512499999991405
        },
        {
          "name": "C#4",
          "midi": 61,
          "time": 155.40599999999935,
          "velocity": 0.7874015748031497,
          "duration": 0.043512499999991405
        },
        {
          "name": "F#4",
          "midi": 66,
          "time": 155.40599999999935,
          "velocity": 0.7874015748031497,
          "duration": 0.043512499999991405
        },
        {
          "name": "D5",
          "midi": 74,
          "time": 155.40599999999935,
          "velocity": 0.7874015748031497,
          "duration": 0.043512499999991405
        },
        {
          "name": "F5",
          "midi": 77,
          "time": 155.40599999999935,
          "velocity": 0.7874015748031497,
          "duration": 0.043512499999991405
        },
        {
          "name": "D#6",
          "midi": 87,
          "time": 155.40599999999935,
          "velocity": 0.7874015748031497,
          "duration": 0.043512499999991405
        },
        {
          "name": "F6",
          "midi": 89,
          "time": 155.40599999999935,
          "velocity": 0.7874015748031497,
          "duration": 0.043512499999991405
        },
        {
          "name": "D#7",
          "midi": 99,
          "time": 155.40599999999935,
          "velocity": 0.7874015748031497,
          "duration": 0.043512499999991405
        },
        {
          "name": "F#7",
          "midi": 102,
          "time": 155.40599999999935,
          "velocity": 0.7874015748031497,
          "duration": 0.043512499999991405
        },
        {
          "name": "D7",
          "midi": 98,
          "time": 155.58226249999933,
          "velocity": 0.7874015748031497,
          "duration": 0.04425000000000523
        },
        {
          "name": "F#7",
          "midi": 102,
          "time": 155.58226249999933,
          "velocity": 0.7874015748031497,
          "duration": 0.04425000000000523
        },
        {
          "name": "C#4",
          "midi": 61,
          "time": 155.75999999999934,
          "velocity": 0.7874015748031497,
          "duration": 0.043512499999991405
        },
        {
          "name": "F#4",
          "midi": 66,
          "time": 155.75999999999934,
          "velocity": 0.7874015748031497,
          "duration": 0.043512499999991405
        },
        {
          "name": "C#5",
          "midi": 73,
          "time": 155.75999999999934,
          "velocity": 0.7874015748031497,
          "duration": 0.043512499999991405
        },
        {
          "name": "F#5",
          "midi": 78,
          "time": 155.75999999999934,
          "velocity": 0.7874015748031497,
          "duration": 0.043512499999991405
        },
        {
          "name": "C#6",
          "midi": 85,
          "time": 155.75999999999934,
          "velocity": 0.7874015748031497,
          "duration": 0.043512499999991405
        },
        {
          "name": "F#6",
          "midi": 90,
          "time": 155.75999999999934,
          "velocity": 0.7874015748031497,
          "duration": 0.043512499999991405
        },
        {
          "name": "C#7",
          "midi": 97,
          "time": 155.75999999999934,
          "velocity": 0.7874015748031497,
          "duration": 0.043512499999991405
        },
        {
          "name": "F#7",
          "midi": 102,
          "time": 155.75999999999934,
          "velocity": 0.7874015748031497,
          "duration": 0.043512499999991405
        },
        {
          "name": "C4",
          "midi": 60,
          "time": 155.93699999999933,
          "velocity": 0.7874015748031497,
          "duration": 0.043512499999991405
        },
        {
          "name": "F4",
          "midi": 65,
          "time": 155.93699999999933,
          "velocity": 0.7874015748031497,
          "duration": 0.043512499999991405
        },
        {
          "name": "C5",
          "midi": 72,
          "time": 155.93699999999933,
          "velocity": 0.7874015748031497,
          "duration": 0.043512499999991405
        },
        {
          "name": "F5",
          "midi": 77,
          "time": 155.93699999999933,
          "velocity": 0.7874015748031497,
          "duration": 0.043512499999991405
        },
        {
          "name": "C6",
          "midi": 84,
          "time": 155.93699999999933,
          "velocity": 0.7874015748031497,
          "duration": 0.043512499999991405
        },
        {
          "name": "F6",
          "midi": 89,
          "time": 155.93699999999933,
          "velocity": 0.7874015748031497,
          "duration": 0.043512499999991405
        },
        {
          "name": "C7",
          "midi": 96,
          "time": 155.93699999999933,
          "velocity": 0.7874015748031497,
          "duration": 0.35178750000000036
        },
        {
          "name": "F#7",
          "midi": 102,
          "time": 155.93699999999933,
          "velocity": 0.7874015748031497,
          "duration": 0.35178750000000036
        },
        {
          "name": "D4",
          "midi": 62,
          "time": 156.29026249999933,
          "velocity": 0.7874015748031497,
          "duration": 0.04425000000000523
        },
        {
          "name": "F#4",
          "midi": 66,
          "time": 156.29026249999933,
          "velocity": 0.7874015748031497,
          "duration": 0.04425000000000523
        },
        {
          "name": "D#5",
          "midi": 75,
          "time": 156.29026249999933,
          "velocity": 0.7874015748031497,
          "duration": 0.04425000000000523
        },
        {
          "name": "F#5",
          "midi": 78,
          "time": 156.29026249999933,
          "velocity": 0.7874015748031497,
          "duration": 0.04425000000000523
        },
        {
          "name": "E6",
          "midi": 88,
          "time": 156.29026249999933,
          "velocity": 0.7874015748031497,
          "duration": 0.3525250000000142
        },
        {
          "name": "F#6",
          "midi": 90,
          "time": 156.29026249999933,
          "velocity": 0.7874015748031497,
          "duration": 0.3525250000000142
        },
        {
          "name": "E7",
          "midi": 100,
          "time": 156.29026249999933,
          "velocity": 0.7874015748031497,
          "duration": 0.3525250000000142
        },
        {
          "name": "F#7",
          "midi": 102,
          "time": 156.29026249999933,
          "velocity": 0.7874015748031497,
          "duration": 0.3525250000000142
        },
        {
          "name": "C#5",
          "midi": 73,
          "time": 156.64499999999936,
          "velocity": 0.7874015748031497,
          "duration": 0.043512499999991405
        },
        {
          "name": "F#5",
          "midi": 78,
          "time": 156.64499999999936,
          "velocity": 0.7874015748031497,
          "duration": 0.043512499999991405
        },
        {
          "name": "D6",
          "midi": 86,
          "time": 156.64499999999936,
          "velocity": 0.7874015748031497,
          "duration": 0.043512499999991405
        },
        {
          "name": "F#6",
          "midi": 90,
          "time": 156.64499999999936,
          "velocity": 0.7874015748031497,
          "duration": 0.043512499999991405
        },
        {
          "name": "D7",
          "midi": 98,
          "time": 156.64499999999936,
          "velocity": 0.7874015748031497,
          "duration": 0.043512499999991405
        },
        {
          "name": "F#7",
          "midi": 102,
          "time": 156.64499999999936,
          "velocity": 0.7874015748031497,
          "duration": 0.043512499999991405
        },
        {
          "name": "C#4",
          "midi": 61,
          "time": 156.82199999999935,
          "velocity": 0.7874015748031497,
          "duration": 0.043512499999991405
        },
        {
          "name": "F#4",
          "midi": 66,
          "time": 156.82199999999935,
          "velocity": 0.7874015748031497,
          "duration": 0.043512499999991405
        },
        {
          "name": "D5",
          "midi": 74,
          "time": 156.82199999999935,
          "velocity": 0.7874015748031497,
          "duration": 0.043512499999991405
        },
        {
          "name": "F5",
          "midi": 77,
          "time": 156.82199999999935,
          "velocity": 0.7874015748031497,
          "duration": 0.043512499999991405
        },
        {
          "name": "D#6",
          "midi": 87,
          "time": 156.82199999999935,
          "velocity": 0.7874015748031497,
          "duration": 0.043512499999991405
        },
        {
          "name": "F6",
          "midi": 89,
          "time": 156.82199999999935,
          "velocity": 0.7874015748031497,
          "duration": 0.043512499999991405
        },
        {
          "name": "D#7",
          "midi": 99,
          "time": 156.82199999999935,
          "velocity": 0.7874015748031497,
          "duration": 0.043512499999991405
        },
        {
          "name": "F#7",
          "midi": 102,
          "time": 156.82199999999935,
          "velocity": 0.7874015748031497,
          "duration": 0.043512499999991405
        },
        {
          "name": "D7",
          "midi": 98,
          "time": 156.99899999999934,
          "velocity": 0.7874015748031497,
          "duration": 0.043512499999991405
        },
        {
          "name": "F#7",
          "midi": 102,
          "time": 156.99899999999934,
          "velocity": 0.7874015748031497,
          "duration": 0.043512499999991405
        },
        {
          "name": "C4",
          "midi": 60,
          "time": 157.17599999999933,
          "velocity": 0.7874015748031497,
          "duration": 0.043512499999991405
        },
        {
          "name": "F#4",
          "midi": 66,
          "time": 157.17599999999933,
          "velocity": 0.7874015748031497,
          "duration": 0.043512499999991405
        },
        {
          "name": "C#5",
          "midi": 73,
          "time": 157.17599999999933,
          "velocity": 0.7874015748031497,
          "duration": 0.043512499999991405
        },
        {
          "name": "F#5",
          "midi": 78,
          "time": 157.17599999999933,
          "velocity": 0.7874015748031497,
          "duration": 0.043512499999991405
        },
        {
          "name": "C#6",
          "midi": 85,
          "time": 157.17599999999933,
          "velocity": 0.7874015748031497,
          "duration": 0.043512499999991405
        },
        {
          "name": "F#6",
          "midi": 90,
          "time": 157.17599999999933,
          "velocity": 0.7874015748031497,
          "duration": 0.043512499999991405
        },
        {
          "name": "C#7",
          "midi": 97,
          "time": 157.17599999999933,
          "velocity": 0.7874015748031497,
          "duration": 0.043512499999991405
        },
        {
          "name": "F#7",
          "midi": 102,
          "time": 157.17599999999933,
          "velocity": 0.7874015748031497,
          "duration": 0.043512499999991405
        },
        {
          "name": "C6",
          "midi": 84,
          "time": 157.3522624999993,
          "velocity": 0.7874015748031497,
          "duration": 0.043512499999991405
        },
        {
          "name": "F6",
          "midi": 89,
          "time": 157.3522624999993,
          "velocity": 0.7874015748031497,
          "duration": 0.043512499999991405
        },
        {
          "name": "C7",
          "midi": 96,
          "time": 157.3522624999993,
          "velocity": 0.7874015748031497,
          "duration": 0.043512499999991405
        },
        {
          "name": "F#7",
          "midi": 102,
          "time": 157.3522624999993,
          "velocity": 0.7874015748031497,
          "duration": 0.043512499999991405
        },
        {
          "name": "G#8",
          "midi": 116,
          "time": 157.5299999999993,
          "velocity": 0.7874015748031497,
          "duration": 5.3092624999999884
        },
        {
          "name": "D4",
          "midi": 62,
          "time": 157.5299999999993,
          "velocity": 0.7874015748031497,
          "duration": 0.043512499999991405
        },
        {
          "name": "F#4",
          "midi": 66,
          "time": 157.5299999999993,
          "velocity": 0.7874015748031497,
          "duration": 0.043512499999991405
        },
        {
          "name": "D#5",
          "midi": 75,
          "time": 157.5299999999993,
          "velocity": 0.7874015748031497,
          "duration": 0.043512499999991405
        },
        {
          "name": "F#5",
          "midi": 78,
          "time": 157.5299999999993,
          "velocity": 0.7874015748031497,
          "duration": 0.043512499999991405
        },
        {
          "name": "E6",
          "midi": 88,
          "time": 157.5299999999993,
          "velocity": 0.7874015748031497,
          "duration": 0.043512499999991405
        },
        {
          "name": "F#6",
          "midi": 90,
          "time": 157.5299999999993,
          "velocity": 0.7874015748031497,
          "duration": 0.043512499999991405
        },
        {
          "name": "E7",
          "midi": 100,
          "time": 157.5299999999993,
          "velocity": 0.7874015748031497,
          "duration": 0.043512499999991405
        },
        {
          "name": "F#7",
          "midi": 102,
          "time": 157.5299999999993,
          "velocity": 0.7874015748031497,
          "duration": 0.043512499999991405
        },
        {
          "name": "C#5",
          "midi": 73,
          "time": 157.70699999999928,
          "velocity": 0.7874015748031497,
          "duration": 0.043512499999991405
        },
        {
          "name": "F5",
          "midi": 77,
          "time": 157.70699999999928,
          "velocity": 0.7874015748031497,
          "duration": 0.043512499999991405
        },
        {
          "name": "D6",
          "midi": 86,
          "time": 157.70699999999928,
          "velocity": 0.7874015748031497,
          "duration": 0.043512499999991405
        },
        {
          "name": "F6",
          "midi": 89,
          "time": 157.70699999999928,
          "velocity": 0.7874015748031497,
          "duration": 0.043512499999991405
        },
        {
          "name": "D7",
          "midi": 98,
          "time": 157.70699999999928,
          "velocity": 0.7874015748031497,
          "duration": 0.043512499999991405
        },
        {
          "name": "F#7",
          "midi": 102,
          "time": 157.70699999999928,
          "velocity": 0.7874015748031497,
          "duration": 0.043512499999991405
        },
        {
          "name": "C#4",
          "midi": 61,
          "time": 157.88399999999928,
          "velocity": 0.7874015748031497,
          "duration": 0.043512499999991405
        },
        {
          "name": "F#4",
          "midi": 66,
          "time": 157.88399999999928,
          "velocity": 0.7874015748031497,
          "duration": 0.043512499999991405
        },
        {
          "name": "D5",
          "midi": 74,
          "time": 157.88399999999928,
          "velocity": 0.7874015748031497,
          "duration": 0.043512499999991405
        },
        {
          "name": "F5",
          "midi": 77,
          "time": 157.88399999999928,
          "velocity": 0.7874015748031497,
          "duration": 0.043512499999991405
        },
        {
          "name": "D#6",
          "midi": 87,
          "time": 157.88399999999928,
          "velocity": 0.7874015748031497,
          "duration": 0.043512499999991405
        },
        {
          "name": "F6",
          "midi": 89,
          "time": 157.88399999999928,
          "velocity": 0.7874015748031497,
          "duration": 0.043512499999991405
        },
        {
          "name": "D#7",
          "midi": 99,
          "time": 157.88399999999928,
          "velocity": 0.7874015748031497,
          "duration": 0.043512499999991405
        },
        {
          "name": "F#7",
          "midi": 102,
          "time": 157.88399999999928,
          "velocity": 0.7874015748031497,
          "duration": 0.043512499999991405
        },
        {
          "name": "D7",
          "midi": 98,
          "time": 158.06173749999925,
          "velocity": 0.7874015748031497,
          "duration": 0.043512499999991405
        },
        {
          "name": "F#7",
          "midi": 102,
          "time": 158.06173749999925,
          "velocity": 0.7874015748031497,
          "duration": 0.043512499999991405
        },
        {
          "name": "C#4",
          "midi": 61,
          "time": 158.23799999999923,
          "velocity": 0.7874015748031497,
          "duration": 0.043512499999991405
        },
        {
          "name": "F#4",
          "midi": 66,
          "time": 158.23799999999923,
          "velocity": 0.7874015748031497,
          "duration": 0.043512499999991405
        },
        {
          "name": "C#5",
          "midi": 73,
          "time": 158.23799999999923,
          "velocity": 0.7874015748031497,
          "duration": 0.043512499999991405
        },
        {
          "name": "F#5",
          "midi": 78,
          "time": 158.23799999999923,
          "velocity": 0.7874015748031497,
          "duration": 0.043512499999991405
        },
        {
          "name": "D6",
          "midi": 86,
          "time": 158.23799999999923,
          "velocity": 0.7874015748031497,
          "duration": 0.043512499999991405
        },
        {
          "name": "F#6",
          "midi": 90,
          "time": 158.23799999999923,
          "velocity": 0.7874015748031497,
          "duration": 0.043512499999991405
        },
        {
          "name": "C#7",
          "midi": 97,
          "time": 158.23799999999923,
          "velocity": 0.7874015748031497,
          "duration": 0.043512499999991405
        },
        {
          "name": "F#7",
          "midi": 102,
          "time": 158.23799999999923,
          "velocity": 0.7874015748031497,
          "duration": 0.043512499999991405
        },
        {
          "name": "D7",
          "midi": 98,
          "time": 158.30437499999923,
          "velocity": 0.7874015748031497,
          "duration": 0.04425000000000523
        },
        {
          "name": "F7",
          "midi": 101,
          "time": 158.30437499999923,
          "velocity": 0.7874015748031497,
          "duration": 0.04425000000000523
        },
        {
          "name": "C4",
          "midi": 60,
          "time": 158.41499999999922,
          "velocity": 0.7874015748031497,
          "duration": 0.043512499999991405
        },
        {
          "name": "F4",
          "midi": 65,
          "time": 158.41499999999922,
          "velocity": 0.7874015748031497,
          "duration": 0.043512499999991405
        },
        {
          "name": "C5",
          "midi": 72,
          "time": 158.41499999999922,
          "velocity": 0.7874015748031497,
          "duration": 0.043512499999991405
        },
        {
          "name": "F5",
          "midi": 77,
          "time": 158.41499999999922,
          "velocity": 0.7874015748031497,
          "duration": 0.043512499999991405
        },
        {
          "name": "C#6",
          "midi": 85,
          "time": 158.41499999999922,
          "velocity": 0.7874015748031497,
          "duration": 0.043512499999991405
        },
        {
          "name": "F6",
          "midi": 89,
          "time": 158.41499999999922,
          "velocity": 0.7874015748031497,
          "duration": 0.043512499999991405
        },
        {
          "name": "C#7",
          "midi": 97,
          "time": 158.41499999999922,
          "velocity": 0.7874015748031497,
          "duration": 0.043512499999991405
        },
        {
          "name": "F#7",
          "midi": 102,
          "time": 158.41499999999922,
          "velocity": 0.7874015748031497,
          "duration": 0.043512499999991405
        },
        {
          "name": "C7",
          "midi": 96,
          "time": 158.59199999999922,
          "velocity": 0.7874015748031497,
          "duration": 0.04425000000000523
        },
        {
          "name": "F#7",
          "midi": 102,
          "time": 158.59199999999922,
          "velocity": 0.7874015748031497,
          "duration": 0.04425000000000523
        },
        {
          "name": "C4",
          "midi": 60,
          "time": 158.76826249999922,
          "velocity": 0.7874015748031497,
          "duration": 0.04425000000000523
        },
        {
          "name": "F#4",
          "midi": 66,
          "time": 158.76826249999922,
          "velocity": 0.7874015748031497,
          "duration": 0.04425000000000523
        },
        {
          "name": "C5",
          "midi": 72,
          "time": 158.76826249999922,
          "velocity": 0.7874015748031497,
          "duration": 0.04425000000000523
        },
        {
          "name": "C6",
          "midi": 84,
          "time": 158.76826249999922,
          "velocity": 0.7874015748031497,
          "duration": 0.3525250000000142
        },
        {
          "name": "C7",
          "midi": 96,
          "time": 158.76826249999922,
          "velocity": 0.7874015748031497,
          "duration": 0.3525250000000142
        },
        {
          "name": "C#4",
          "midi": 61,
          "time": 159.12226249999924,
          "velocity": 0.7874015748031497,
          "duration": 0.04425000000000523
        },
        {
          "name": "F#4",
          "midi": 66,
          "time": 159.12226249999924,
          "velocity": 0.7874015748031497,
          "duration": 0.04425000000000523
        },
        {
          "name": "C5",
          "midi": 72,
          "time": 159.12226249999924,
          "velocity": 0.7874015748031497,
          "duration": 0.04425000000000523
        },
        {
          "name": "F#5",
          "midi": 78,
          "time": 159.12226249999924,
          "velocity": 0.7874015748031497,
          "duration": 0.04425000000000523
        },
        {
          "name": "C6",
          "midi": 84,
          "time": 159.12226249999924,
          "velocity": 0.7874015748031497,
          "duration": 0.3525250000000142
        },
        {
          "name": "F#6",
          "midi": 90,
          "time": 159.12226249999924,
          "velocity": 0.7874015748031497,
          "duration": 0.3525250000000142
        },
        {
          "name": "C7",
          "midi": 96,
          "time": 159.12226249999924,
          "velocity": 0.7874015748031497,
          "duration": 0.3525250000000142
        },
        {
          "name": "F#7",
          "midi": 102,
          "time": 159.12226249999924,
          "velocity": 0.7874015748031497,
          "duration": 0.3525250000000142
        },
        {
          "name": "C4",
          "midi": 60,
          "time": 159.47626249999925,
          "velocity": 0.7874015748031497,
          "duration": 0.04425000000000523
        },
        {
          "name": "F#4",
          "midi": 66,
          "time": 159.47626249999925,
          "velocity": 0.7874015748031497,
          "duration": 0.04425000000000523
        },
        {
          "name": "C#5",
          "midi": 73,
          "time": 159.47626249999925,
          "velocity": 0.7874015748031497,
          "duration": 0.04425000000000523
        },
        {
          "name": "F#5",
          "midi": 78,
          "time": 159.47626249999925,
          "velocity": 0.7874015748031497,
          "duration": 0.04425000000000523
        },
        {
          "name": "C#6",
          "midi": 85,
          "time": 159.47626249999925,
          "velocity": 0.7874015748031497,
          "duration": 0.3532624999999996
        },
        {
          "name": "F#6",
          "midi": 90,
          "time": 159.47626249999925,
          "velocity": 0.7874015748031497,
          "duration": 0.3532624999999996
        },
        {
          "name": "C#7",
          "midi": 97,
          "time": 159.47626249999925,
          "velocity": 0.7874015748031497,
          "duration": 0.3532624999999996
        },
        {
          "name": "F#7",
          "midi": 102,
          "time": 159.47626249999925,
          "velocity": 0.7874015748031497,
          "duration": 0.3532624999999996
        },
        {
          "name": "D4",
          "midi": 62,
          "time": 159.83173749999926,
          "velocity": 0.7874015748031497,
          "duration": 0.043512499999991405
        },
        {
          "name": "F#4",
          "midi": 66,
          "time": 159.83173749999926,
          "velocity": 0.7874015748031497,
          "duration": 0.043512499999991405
        },
        {
          "name": "D5",
          "midi": 74,
          "time": 159.83173749999926,
          "velocity": 0.7874015748031497,
          "duration": 0.043512499999991405
        },
        {
          "name": "F#5",
          "midi": 78,
          "time": 159.83173749999926,
          "velocity": 0.7874015748031497,
          "duration": 0.043512499999991405
        },
        {
          "name": "D6",
          "midi": 86,
          "time": 159.83173749999926,
          "velocity": 0.7874015748031497,
          "duration": 0.35178750000000036
        },
        {
          "name": "F#6",
          "midi": 90,
          "time": 159.83173749999926,
          "velocity": 0.7874015748031497,
          "duration": 0.35178750000000036
        },
        {
          "name": "D7",
          "midi": 98,
          "time": 159.83173749999926,
          "velocity": 0.7874015748031497,
          "duration": 0.35178750000000036
        },
        {
          "name": "F#7",
          "midi": 102,
          "time": 159.83173749999926,
          "velocity": 0.7874015748031497,
          "duration": 0.35178750000000036
        },
        {
          "name": "C4",
          "midi": 60,
          "time": 160.18573749999928,
          "velocity": 0.7874015748031497,
          "duration": 0.043512499999991405
        },
        {
          "name": "F#4",
          "midi": 66,
          "time": 160.18573749999928,
          "velocity": 0.7874015748031497,
          "duration": 0.043512499999991405
        },
        {
          "name": "C5",
          "midi": 72,
          "time": 160.18573749999928,
          "velocity": 0.7874015748031497,
          "duration": 0.043512499999991405
        },
        {
          "name": "C6",
          "midi": 84,
          "time": 160.18573749999928,
          "velocity": 0.7874015748031497,
          "duration": 0.043512499999991405
        },
        {
          "name": "C7",
          "midi": 96,
          "time": 160.18573749999928,
          "velocity": 0.7874015748031497,
          "duration": 0.043512499999991405
        },
        {
          "name": "C5",
          "midi": 72,
          "time": 160.36199999999926,
          "velocity": 0.7874015748031497,
          "duration": 0.043512499999991405
        },
        {
          "name": "C6",
          "midi": 84,
          "time": 160.36199999999926,
          "velocity": 0.7874015748031497,
          "duration": 0.35178750000000036
        },
        {
          "name": "C7",
          "midi": 96,
          "time": 160.36199999999926,
          "velocity": 0.7874015748031497,
          "duration": 0.35178750000000036
        },
        {
          "name": "C6",
          "midi": 84,
          "time": 160.71599999999927,
          "velocity": 0.7874015748031497,
          "duration": 0.04425000000000523
        },
        {
          "name": "C7",
          "midi": 96,
          "time": 160.71599999999927,
          "velocity": 0.7874015748031497,
          "duration": 0.04425000000000523
        },
        {
          "name": "C#4",
          "midi": 61,
          "time": 160.89373749999928,
          "velocity": 0.7874015748031497,
          "duration": 1.9440500000000043
        },
        {
          "name": "F#4",
          "midi": 66,
          "time": 160.89373749999928,
          "velocity": 0.7874015748031497,
          "duration": 1.9440500000000043
        },
        {
          "name": "C#5",
          "midi": 73,
          "time": 160.89373749999928,
          "velocity": 0.7874015748031497,
          "duration": 1.9440500000000043
        },
        {
          "name": "F#5",
          "midi": 78,
          "time": 160.89373749999928,
          "velocity": 0.7874015748031497,
          "duration": 1.9440500000000043
        },
        {
          "name": "D6",
          "midi": 86,
          "time": 160.89373749999928,
          "velocity": 0.7874015748031497,
          "duration": 1.9440500000000043
        },
        {
          "name": "F#6",
          "midi": 90,
          "time": 160.89373749999928,
          "velocity": 0.7874015748031497,
          "duration": 1.9440500000000043
        },
        {
          "name": "D7",
          "midi": 98,
          "time": 160.89373749999928,
          "velocity": 0.7874015748031497,
          "duration": 1.9440500000000043
        },
        {
          "name": "F#7",
          "midi": 102,
          "time": 160.89373749999928,
          "velocity": 0.7874015748031497,
          "duration": 1.9440500000000043
        },
        {
          "name": "C4",
          "midi": 60,
          "time": 162.8399999999993,
          "velocity": 0.7874015748031497,
          "duration": 0.043512499999991405
        },
        {
          "name": "F#4",
          "midi": 66,
          "time": 162.8399999999993,
          "velocity": 0.7874015748031497,
          "duration": 0.043512499999991405
        },
        {
          "name": "C5",
          "midi": 72,
          "time": 162.8399999999993,
          "velocity": 0.7874015748031497,
          "duration": 0.043512499999991405
        },
        {
          "name": "C6",
          "midi": 84,
          "time": 162.8399999999993,
          "velocity": 0.7874015748031497,
          "duration": 0.043512499999991405
        },
        {
          "name": "C7",
          "midi": 96,
          "time": 162.8399999999993,
          "velocity": 0.7874015748031497,
          "duration": 0.043512499999991405
        },
        {
          "name": "C5",
          "midi": 72,
          "time": 163.01773749999927,
          "velocity": 0.7874015748031497,
          "duration": 0.043512499999991405
        },
        {
          "name": "C6",
          "midi": 84,
          "time": 163.01773749999927,
          "velocity": 0.7874015748031497,
          "duration": 0.043512499999991405
        },
        {
          "name": "C7",
          "midi": 96,
          "time": 163.01773749999927,
          "velocity": 0.7874015748031497,
          "duration": 0.043512499999991405
        },
        {
          "name": "C7",
          "midi": 96,
          "time": 163.19399999999925,
          "velocity": 0.7874015748031497,
          "duration": 0.043512499999991405
        },
        {
          "name": "C6",
          "midi": 84,
          "time": 163.37099999999924,
          "velocity": 0.7874015748031497,
          "duration": 0.043512499999991405
        },
        {
          "name": "C7",
          "midi": 96,
          "time": 163.37099999999924,
          "velocity": 0.7874015748031497,
          "duration": 0.043512499999991405
        },
        {
          "name": "C4",
          "midi": 60,
          "time": 163.54799999999923,
          "velocity": 0.7874015748031497,
          "duration": 2.1217875000000106
        },
        {
          "name": "F#4",
          "midi": 66,
          "time": 163.54799999999923,
          "velocity": 0.7874015748031497,
          "duration": 2.1217875000000106
        },
        {
          "name": "C5",
          "midi": 72,
          "time": 163.54799999999923,
          "velocity": 0.7874015748031497,
          "duration": 2.1217875000000106
        },
        {
          "name": "F#5",
          "midi": 78,
          "time": 163.54799999999923,
          "velocity": 0.7874015748031497,
          "duration": 2.1217875000000106
        },
        {
          "name": "C#6",
          "midi": 85,
          "time": 163.54799999999923,
          "velocity": 0.7874015748031497,
          "duration": 2.1217875000000106
        },
        {
          "name": "F#6",
          "midi": 90,
          "time": 163.54799999999923,
          "velocity": 0.7874015748031497,
          "duration": 2.1217875000000106
        },
        {
          "name": "C#7",
          "midi": 97,
          "time": 163.54799999999923,
          "velocity": 0.7874015748031497,
          "duration": 2.1217875000000106
        },
        {
          "name": "F#7",
          "midi": 102,
          "time": 163.54799999999923,
          "velocity": 0.7874015748031497,
          "duration": 2.1217875000000106
        },
        {
          "name": "C4",
          "midi": 60,
          "time": 165.67199999999926,
          "velocity": 0.7874015748031497,
          "duration": 0.043512499999991405
        },
        {
          "name": "F#4",
          "midi": 66,
          "time": 165.67199999999926,
          "velocity": 0.7874015748031497,
          "duration": 0.043512499999991405
        },
        {
          "name": "C5",
          "midi": 72,
          "time": 165.67199999999926,
          "velocity": 0.7874015748031497,
          "duration": 0.043512499999991405
        },
        {
          "name": "C6",
          "midi": 84,
          "time": 165.67199999999926,
          "velocity": 0.7874015748031497,
          "duration": 0.043512499999991405
        },
        {
          "name": "C7",
          "midi": 96,
          "time": 165.67199999999926,
          "velocity": 0.7874015748031497,
          "duration": 0.043512499999991405
        },
        {
          "name": "C5",
          "midi": 72,
          "time": 165.84899999999925,
          "velocity": 0.7874015748031497,
          "duration": 0.043512499999991405
        },
        {
          "name": "C6",
          "midi": 84,
          "time": 165.84899999999925,
          "velocity": 0.7874015748031497,
          "duration": 0.043512499999991405
        },
        {
          "name": "C7",
          "midi": 96,
          "time": 165.84899999999925,
          "velocity": 0.7874015748031497,
          "duration": 0.043512499999991405
        },
        {
          "name": "C6",
          "midi": 84,
          "time": 166.20373749999925,
          "velocity": 0.7874015748031497,
          "duration": 0.042775000000006
        },
        {
          "name": "C7",
          "midi": 96,
          "time": 166.20373749999925,
          "velocity": 0.7874015748031497,
          "duration": 0.042775000000006
        },
        {
          "name": "C#4",
          "midi": 61,
          "time": 166.37999999999926,
          "velocity": 0.7874015748031497,
          "duration": 0.7057875000000138
        },
        {
          "name": "F#4",
          "midi": 66,
          "time": 166.37999999999926,
          "velocity": 0.7874015748031497,
          "duration": 0.7057875000000138
        },
        {
          "name": "D5",
          "midi": 74,
          "time": 166.37999999999926,
          "velocity": 0.7874015748031497,
          "duration": 0.7057875000000138
        },
        {
          "name": "F#5",
          "midi": 78,
          "time": 166.37999999999926,
          "velocity": 0.7874015748031497,
          "duration": 0.7057875000000138
        },
        {
          "name": "D#6",
          "midi": 87,
          "time": 166.37999999999926,
          "velocity": 0.7874015748031497,
          "duration": 0.7057875000000138
        },
        {
          "name": "F#6",
          "midi": 90,
          "time": 166.37999999999926,
          "velocity": 0.7874015748031497,
          "duration": 0.7057875000000138
        },
        {
          "name": "D#7",
          "midi": 99,
          "time": 166.37999999999926,
          "velocity": 0.7874015748031497,
          "duration": 0.7057875000000138
        },
        {
          "name": "F#7",
          "midi": 102,
          "time": 166.37999999999926,
          "velocity": 0.7874015748031497,
          "duration": 0.7057875000000138
        },
        {
          "name": "C4",
          "midi": 60,
          "time": 167.08799999999928,
          "velocity": 0.7874015748031497,
          "duration": 0.04425000000000523
        },
        {
          "name": "F#4",
          "midi": 66,
          "time": 167.08799999999928,
          "velocity": 0.7874015748031497,
          "duration": 0.04425000000000523
        },
        {
          "name": "C5",
          "midi": 72,
          "time": 167.08799999999928,
          "velocity": 0.7874015748031497,
          "duration": 0.04425000000000523
        },
        {
          "name": "F#5",
          "midi": 78,
          "time": 167.08799999999928,
          "velocity": 0.7874015748031497,
          "duration": 0.04425000000000523
        },
        {
          "name": "C6",
          "midi": 84,
          "time": 167.08799999999928,
          "velocity": 0.7874015748031497,
          "duration": 0.26402500000000373
        },
        {
          "name": "F#6",
          "midi": 90,
          "time": 167.08799999999928,
          "velocity": 0.7874015748031497,
          "duration": 0.26402500000000373
        },
        {
          "name": "C7",
          "midi": 96,
          "time": 167.08799999999928,
          "velocity": 0.7874015748031497,
          "duration": 0.2625500000000045
        },
        {
          "name": "F#7",
          "midi": 102,
          "time": 167.08799999999928,
          "velocity": 0.7874015748031497,
          "duration": 0.2625500000000045
        },
        {
          "name": "C7",
          "midi": 96,
          "time": 167.3527624999993,
          "velocity": 0.7874015748031497,
          "duration": 0.2632874999999899
        },
        {
          "name": "F#7",
          "midi": 102,
          "time": 167.3527624999993,
          "velocity": 0.7874015748031497,
          "duration": 0.2632874999999899
        },
        {
          "name": "C4",
          "midi": 60,
          "time": 167.6182624999993,
          "velocity": 0.7874015748031497,
          "duration": 0.04425000000000523
        },
        {
          "name": "F#4",
          "midi": 66,
          "time": 167.6182624999993,
          "velocity": 0.7874015748031497,
          "duration": 0.04425000000000523
        },
        {
          "name": "C5",
          "midi": 72,
          "time": 167.6182624999993,
          "velocity": 0.7874015748031497,
          "duration": 0.04425000000000523
        },
        {
          "name": "F#5",
          "midi": 78,
          "time": 167.6182624999993,
          "velocity": 0.7874015748031497,
          "duration": 0.04425000000000523
        },
        {
          "name": "C6",
          "midi": 84,
          "time": 167.6182624999993,
          "velocity": 0.7874015748031497,
          "duration": 0.35178750000000036
        },
        {
          "name": "F#6",
          "midi": 90,
          "time": 167.6182624999993,
          "velocity": 0.7874015748031497,
          "duration": 0.35178750000000036
        },
        {
          "name": "C7",
          "midi": 96,
          "time": 167.6182624999993,
          "velocity": 0.7874015748031497,
          "duration": 0.35178750000000036
        },
        {
          "name": "F#7",
          "midi": 102,
          "time": 167.6182624999993,
          "velocity": 0.7874015748031497,
          "duration": 0.35178750000000036
        },
        {
          "name": "C6",
          "midi": 84,
          "time": 167.97226249999932,
          "velocity": 0.7874015748031497,
          "duration": 0.04425000000000523
        },
        {
          "name": "F#6",
          "midi": 90,
          "time": 167.97226249999932,
          "velocity": 0.7874015748031497,
          "duration": 0.04425000000000523
        },
        {
          "name": "C7",
          "midi": 96,
          "time": 167.97226249999932,
          "velocity": 0.7874015748031497,
          "duration": 0.04425000000000523
        },
        {
          "name": "F#7",
          "midi": 102,
          "time": 167.97226249999932,
          "velocity": 0.7874015748031497,
          "duration": 0.04425000000000523
        },
        {
          "name": "C4",
          "midi": 60,
          "time": 168.14999999999932,
          "velocity": 0.7874015748031497,
          "duration": 0.04425000000000523
        },
        {
          "name": "F#4",
          "midi": 66,
          "time": 168.14999999999932,
          "velocity": 0.7874015748031497,
          "duration": 0.04425000000000523
        },
        {
          "name": "C5",
          "midi": 72,
          "time": 168.14999999999932,
          "velocity": 0.7874015748031497,
          "duration": 0.04425000000000523
        },
        {
          "name": "F#5",
          "midi": 78,
          "time": 168.14999999999932,
          "velocity": 0.7874015748031497,
          "duration": 0.04425000000000523
        },
        {
          "name": "C6",
          "midi": 84,
          "time": 168.14999999999932,
          "velocity": 0.7874015748031497,
          "duration": 0.35178750000000036
        },
        {
          "name": "F#6",
          "midi": 90,
          "time": 168.14999999999932,
          "velocity": 0.7874015748031497,
          "duration": 0.35178750000000036
        },
        {
          "name": "C7",
          "midi": 96,
          "time": 168.14999999999932,
          "velocity": 0.7874015748031497,
          "duration": 0.35178750000000036
        },
        {
          "name": "F#7",
          "midi": 102,
          "time": 168.14999999999932,
          "velocity": 0.7874015748031497,
          "duration": 0.35178750000000036
        },
        {
          "name": "C4",
          "midi": 60,
          "time": 168.50399999999934,
          "velocity": 0.7874015748031497,
          "duration": 0.043512499999991405
        },
        {
          "name": "F#4",
          "midi": 66,
          "time": 168.50399999999934,
          "velocity": 0.7874015748031497,
          "duration": 0.043512499999991405
        },
        {
          "name": "C5",
          "midi": 72,
          "time": 168.50399999999934,
          "velocity": 0.7874015748031497,
          "duration": 0.043512499999991405
        },
        {
          "name": "C6",
          "midi": 84,
          "time": 168.50399999999934,
          "velocity": 0.7874015748031497,
          "duration": 0.043512499999991405
        },
        {
          "name": "C7",
          "midi": 96,
          "time": 168.50399999999934,
          "velocity": 0.7874015748031497,
          "duration": 0.043512499999991405
        },
        {
          "name": "C5",
          "midi": 72,
          "time": 168.68026249999932,
          "velocity": 0.7874015748031497,
          "duration": 0.04425000000000523
        },
        {
          "name": "C6",
          "midi": 84,
          "time": 168.68026249999932,
          "velocity": 0.7874015748031497,
          "duration": 0.04425000000000523
        },
        {
          "name": "C7",
          "midi": 96,
          "time": 168.68026249999932,
          "velocity": 0.7874015748031497,
          "duration": 0.04425000000000523
        },
        {
          "name": "C7",
          "midi": 96,
          "time": 168.85799999999932,
          "velocity": 0.7874015748031497,
          "duration": 0.043512499999991405
        },
        {
          "name": "C6",
          "midi": 84,
          "time": 169.0357374999993,
          "velocity": 0.7874015748031497,
          "duration": 0.043512499999991405
        },
        {
          "name": "C7",
          "midi": 96,
          "time": 169.0357374999993,
          "velocity": 0.7874015748031497,
          "duration": 0.043512499999991405
        },
        {
          "name": "D4",
          "midi": 62,
          "time": 169.21199999999928,
          "velocity": 0.7874015748031497,
          "duration": 0.7057875000000138
        },
        {
          "name": "F#4",
          "midi": 66,
          "time": 169.21199999999928,
          "velocity": 0.7874015748031497,
          "duration": 0.7057875000000138
        },
        {
          "name": "D#5",
          "midi": 75,
          "time": 169.21199999999928,
          "velocity": 0.7874015748031497,
          "duration": 0.7057875000000138
        },
        {
          "name": "F#5",
          "midi": 78,
          "time": 169.21199999999928,
          "velocity": 0.7874015748031497,
          "duration": 0.7057875000000138
        },
        {
          "name": "E6",
          "midi": 88,
          "time": 169.21199999999928,
          "velocity": 0.7874015748031497,
          "duration": 0.7057875000000138
        },
        {
          "name": "F#6",
          "midi": 90,
          "time": 169.21199999999928,
          "velocity": 0.7874015748031497,
          "duration": 0.7057875000000138
        },
        {
          "name": "E7",
          "midi": 100,
          "time": 169.21199999999928,
          "velocity": 0.7874015748031497,
          "duration": 0.7057875000000138
        },
        {
          "name": "F#7",
          "midi": 102,
          "time": 169.21199999999928,
          "velocity": 0.7874015748031497,
          "duration": 0.7057875000000138
        },
        {
          "name": "D4",
          "midi": 62,
          "time": 169.9199999999993,
          "velocity": 0.7874015748031497,
          "duration": 0.5295250000000067
        },
        {
          "name": "F#4",
          "midi": 66,
          "time": 169.9199999999993,
          "velocity": 0.7874015748031497,
          "duration": 0.5295250000000067
        },
        {
          "name": "D5",
          "midi": 74,
          "time": 169.9199999999993,
          "velocity": 0.7874015748031497,
          "duration": 0.5295250000000067
        },
        {
          "name": "F#5",
          "midi": 78,
          "time": 169.9199999999993,
          "velocity": 0.7874015748031497,
          "duration": 0.5295250000000067
        },
        {
          "name": "D6",
          "midi": 86,
          "time": 169.9199999999993,
          "velocity": 0.7874015748031497,
          "duration": 0.5295250000000067
        },
        {
          "name": "F#6",
          "midi": 90,
          "time": 169.9199999999993,
          "velocity": 0.7874015748031497,
          "duration": 0.5295250000000067
        },
        {
          "name": "D7",
          "midi": 98,
          "time": 169.9199999999993,
          "velocity": 0.7874015748031497,
          "duration": 0.5295250000000067
        },
        {
          "name": "F#7",
          "midi": 102,
          "time": 169.9199999999993,
          "velocity": 0.7874015748031497,
          "duration": 0.5295250000000067
        },
        {
          "name": "C#4",
          "midi": 61,
          "time": 170.45173749999933,
          "velocity": 0.7874015748031497,
          "duration": 0.5280500000000075
        },
        {
          "name": "F#4",
          "midi": 66,
          "time": 170.45173749999933,
          "velocity": 0.7874015748031497,
          "duration": 0.5280500000000075
        },
        {
          "name": "C#5",
          "midi": 73,
          "time": 170.45173749999933,
          "velocity": 0.7874015748031497,
          "duration": 0.5280500000000075
        },
        {
          "name": "F#5",
          "midi": 78,
          "time": 170.45173749999933,
          "velocity": 0.7874015748031497,
          "duration": 0.5280500000000075
        },
        {
          "name": "C#6",
          "midi": 85,
          "time": 170.45173749999933,
          "velocity": 0.7874015748031497,
          "duration": 0.5280500000000075
        },
        {
          "name": "F#6",
          "midi": 90,
          "time": 170.45173749999933,
          "velocity": 0.7874015748031497,
          "duration": 0.5280500000000075
        },
        {
          "name": "C#7",
          "midi": 97,
          "time": 170.45173749999933,
          "velocity": 0.7874015748031497,
          "duration": 0.5280500000000075
        },
        {
          "name": "F#7",
          "midi": 102,
          "time": 170.45173749999933,
          "velocity": 0.7874015748031497,
          "duration": 0.5280500000000075
        },
        {
          "name": "C4",
          "midi": 60,
          "time": 170.98199999999935,
          "velocity": 0.7874015748031497,
          "duration": 0.043512499999991405
        },
        {
          "name": "F#4",
          "midi": 66,
          "time": 170.98199999999935,
          "velocity": 0.7874015748031497,
          "duration": 0.043512499999991405
        },
        {
          "name": "C5",
          "midi": 72,
          "time": 170.98199999999935,
          "velocity": 0.7874015748031497,
          "duration": 0.043512499999991405
        },
        {
          "name": "F#5",
          "midi": 78,
          "time": 170.98199999999935,
          "velocity": 0.7874015748031497,
          "duration": 0.043512499999991405
        },
        {
          "name": "C6",
          "midi": 84,
          "time": 170.98199999999935,
          "velocity": 0.7874015748031497,
          "duration": 0.35178750000000036
        },
        {
          "name": "F#6",
          "midi": 90,
          "time": 170.98199999999935,
          "velocity": 0.7874015748031497,
          "duration": 0.35178750000000036
        },
        {
          "name": "C7",
          "midi": 96,
          "time": 170.98199999999935,
          "velocity": 0.7874015748031497,
          "duration": 0.35178750000000036
        },
        {
          "name": "F#7",
          "midi": 102,
          "time": 170.98199999999935,
          "velocity": 0.7874015748031497,
          "duration": 0.35178750000000036
        },
        {
          "name": "C4",
          "midi": 60,
          "time": 171.33599999999936,
          "velocity": 0.7874015748031497,
          "duration": 0.043512499999991405
        },
        {
          "name": "F#4",
          "midi": 66,
          "time": 171.33599999999936,
          "velocity": 0.7874015748031497,
          "duration": 0.043512499999991405
        },
        {
          "name": "C5",
          "midi": 72,
          "time": 171.33599999999936,
          "velocity": 0.7874015748031497,
          "duration": 0.043512499999991405
        },
        {
          "name": "C6",
          "midi": 84,
          "time": 171.33599999999936,
          "velocity": 0.7874015748031497,
          "duration": 0.043512499999991405
        },
        {
          "name": "C7",
          "midi": 96,
          "time": 171.33599999999936,
          "velocity": 0.7874015748031497,
          "duration": 0.043512499999991405
        },
        {
          "name": "C5",
          "midi": 72,
          "time": 171.51299999999935,
          "velocity": 0.7874015748031497,
          "duration": 0.043512499999991405
        },
        {
          "name": "C6",
          "midi": 84,
          "time": 171.51299999999935,
          "velocity": 0.7874015748031497,
          "duration": 0.043512499999991405
        },
        {
          "name": "C7",
          "midi": 96,
          "time": 171.51299999999935,
          "velocity": 0.7874015748031497,
          "duration": 0.043512499999991405
        },
        {
          "name": "C6",
          "midi": 84,
          "time": 171.86773749999935,
          "velocity": 0.7874015748031497,
          "duration": 0.042775000000006
        },
        {
          "name": "C7",
          "midi": 96,
          "time": 171.86773749999935,
          "velocity": 0.7874015748031497,
          "duration": 0.042775000000006
        },
        {
          "name": "C#4",
          "midi": 61,
          "time": 172.04399999999936,
          "velocity": 0.7874015748031497,
          "duration": 2.1217875000000106
        },
        {
          "name": "F#4",
          "midi": 66,
          "time": 172.04399999999936,
          "velocity": 0.7874015748031497,
          "duration": 2.1217875000000106
        },
        {
          "name": "C#5",
          "midi": 73,
          "time": 172.04399999999936,
          "velocity": 0.7874015748031497,
          "duration": 2.1217875000000106
        },
        {
          "name": "F#5",
          "midi": 78,
          "time": 172.04399999999936,
          "velocity": 0.7874015748031497,
          "duration": 2.1217875000000106
        },
        {
          "name": "D6",
          "midi": 86,
          "time": 172.04399999999936,
          "velocity": 0.7874015748031497,
          "duration": 2.1217875000000106
        },
        {
          "name": "F#6",
          "midi": 90,
          "time": 172.04399999999936,
          "velocity": 0.7874015748031497,
          "duration": 2.1217875000000106
        },
        {
          "name": "D7",
          "midi": 98,
          "time": 172.04399999999936,
          "velocity": 0.7874015748031497,
          "duration": 2.1217875000000106
        },
        {
          "name": "F#7",
          "midi": 102,
          "time": 172.04399999999936,
          "velocity": 0.7874015748031497,
          "duration": 2.1217875000000106
        },
        {
          "name": "C4",
          "midi": 60,
          "time": 174.16799999999938,
          "velocity": 0.7874015748031497,
          "duration": 0.043512499999991405
        },
        {
          "name": "F#4",
          "midi": 66,
          "time": 174.16799999999938,
          "velocity": 0.7874015748031497,
          "duration": 0.043512499999991405
        },
        {
          "name": "C5",
          "midi": 72,
          "time": 174.16799999999938,
          "velocity": 0.7874015748031497,
          "duration": 0.043512499999991405
        },
        {
          "name": "C6",
          "midi": 84,
          "time": 174.16799999999938,
          "velocity": 0.7874015748031497,
          "duration": 0.043512499999991405
        },
        {
          "name": "C7",
          "midi": 96,
          "time": 174.16799999999938,
          "velocity": 0.7874015748031497,
          "duration": 0.043512499999991405
        },
        {
          "name": "C5",
          "midi": 72,
          "time": 174.34499999999937,
          "velocity": 0.7874015748031497,
          "duration": 0.043512499999991405
        },
        {
          "name": "C6",
          "midi": 84,
          "time": 174.34499999999937,
          "velocity": 0.7874015748031497,
          "duration": 0.043512499999991405
        },
        {
          "name": "C7",
          "midi": 96,
          "time": 174.34499999999937,
          "velocity": 0.7874015748031497,
          "duration": 0.043512499999991405
        },
        {
          "name": "C6",
          "midi": 84,
          "time": 174.69899999999936,
          "velocity": 0.7874015748031497,
          "duration": 0.043512499999991405
        },
        {
          "name": "C7",
          "midi": 96,
          "time": 174.69899999999936,
          "velocity": 0.7874015748031497,
          "duration": 0.043512499999991405
        },
        {
          "name": "C4",
          "midi": 60,
          "time": 174.87599999999935,
          "velocity": 0.7874015748031497,
          "duration": 2.1217875000000106
        },
        {
          "name": "F#4",
          "midi": 66,
          "time": 174.87599999999935,
          "velocity": 0.7874015748031497,
          "duration": 2.1217875000000106
        },
        {
          "name": "C5",
          "midi": 72,
          "time": 174.87599999999935,
          "velocity": 0.7874015748031497,
          "duration": 2.1217875000000106
        },
        {
          "name": "F#5",
          "midi": 78,
          "time": 174.87599999999935,
          "velocity": 0.7874015748031497,
          "duration": 2.1217875000000106
        },
        {
          "name": "C#6",
          "midi": 85,
          "time": 174.87599999999935,
          "velocity": 0.7874015748031497,
          "duration": 2.1217875000000106
        },
        {
          "name": "F#6",
          "midi": 90,
          "time": 174.87599999999935,
          "velocity": 0.7874015748031497,
          "duration": 2.1217875000000106
        },
        {
          "name": "C#7",
          "midi": 97,
          "time": 174.87599999999935,
          "velocity": 0.7874015748031497,
          "duration": 2.1217875000000106
        },
        {
          "name": "F#7",
          "midi": 102,
          "time": 174.87599999999935,
          "velocity": 0.7874015748031497,
          "duration": 2.1217875000000106
        },
        {
          "name": "C4",
          "midi": 60,
          "time": 176.99999999999937,
          "velocity": 0.7874015748031497,
          "duration": 0.04425000000000523
        },
        {
          "name": "F#4",
          "midi": 66,
          "time": 176.99999999999937,
          "velocity": 0.7874015748031497,
          "duration": 0.04425000000000523
        },
        {
          "name": "C5",
          "midi": 72,
          "time": 176.99999999999937,
          "velocity": 0.7874015748031497,
          "duration": 0.04425000000000523
        },
        {
          "name": "C6",
          "midi": 84,
          "time": 176.99999999999937,
          "velocity": 0.7874015748031497,
          "duration": 0.04425000000000523
        },
        {
          "name": "C7",
          "midi": 96,
          "time": 176.99999999999937,
          "velocity": 0.7874015748031497,
          "duration": 0.04425000000000523
        },
        {
          "name": "C5",
          "midi": 72,
          "time": 177.17699999999937,
          "velocity": 0.7874015748031497,
          "duration": 0.04425000000000523
        },
        {
          "name": "C6",
          "midi": 84,
          "time": 177.17699999999937,
          "velocity": 0.7874015748031497,
          "duration": 0.04425000000000523
        },
        {
          "name": "C7",
          "midi": 96,
          "time": 177.17699999999937,
          "velocity": 0.7874015748031497,
          "duration": 0.04425000000000523
        },
        {
          "name": "C6",
          "midi": 84,
          "time": 177.53099999999938,
          "velocity": 0.7874015748031497,
          "duration": 0.04425000000000523
        },
        {
          "name": "C7",
          "midi": 96,
          "time": 177.53099999999938,
          "velocity": 0.7874015748031497,
          "duration": 0.04425000000000523
        },
        {
          "name": "C#4",
          "midi": 61,
          "time": 177.70799999999937,
          "velocity": 0.7874015748031497,
          "duration": 2.1217875000000106
        },
        {
          "name": "F#4",
          "midi": 66,
          "time": 177.70799999999937,
          "velocity": 0.7874015748031497,
          "duration": 2.1217875000000106
        },
        {
          "name": "D5",
          "midi": 74,
          "time": 177.70799999999937,
          "velocity": 0.7874015748031497,
          "duration": 2.1217875000000106
        },
        {
          "name": "F#5",
          "midi": 78,
          "time": 177.70799999999937,
          "velocity": 0.7874015748031497,
          "duration": 2.1217875000000106
        },
        {
          "name": "D#6",
          "midi": 87,
          "time": 177.70799999999937,
          "velocity": 0.7874015748031497,
          "duration": 2.1217875000000106
        },
        {
          "name": "F#6",
          "midi": 90,
          "time": 177.70799999999937,
          "velocity": 0.7874015748031497,
          "duration": 2.1217875000000106
        },
        {
          "name": "D#7",
          "midi": 99,
          "time": 177.70799999999937,
          "velocity": 0.7874015748031497,
          "duration": 2.1217875000000106
        },
        {
          "name": "F#7",
          "midi": 102,
          "time": 177.70799999999937,
          "velocity": 0.7874015748031497,
          "duration": 2.1217875000000106
        },
        {
          "name": "C4",
          "midi": 60,
          "time": 179.8319999999994,
          "velocity": 0.7874015748031497,
          "duration": 0.04425000000000523
        },
        {
          "name": "F#4",
          "midi": 66,
          "time": 179.8319999999994,
          "velocity": 0.7874015748031497,
          "duration": 0.04425000000000523
        },
        {
          "name": "C5",
          "midi": 72,
          "time": 179.8319999999994,
          "velocity": 0.7874015748031497,
          "duration": 0.04425000000000523
        },
        {
          "name": "C6",
          "midi": 84,
          "time": 179.8319999999994,
          "velocity": 0.7874015748031497,
          "duration": 0.04425000000000523
        },
        {
          "name": "C7",
          "midi": 96,
          "time": 179.8319999999994,
          "velocity": 0.7874015748031497,
          "duration": 0.04425000000000523
        },
        {
          "name": "C5",
          "midi": 72,
          "time": 180.0089999999994,
          "velocity": 0.7874015748031497,
          "duration": 0.04425000000000523
        },
        {
          "name": "C6",
          "midi": 84,
          "time": 180.0089999999994,
          "velocity": 0.7874015748031497,
          "duration": 0.04425000000000523
        },
        {
          "name": "C7",
          "midi": 96,
          "time": 180.0089999999994,
          "velocity": 0.7874015748031497,
          "duration": 0.04425000000000523
        },
        {
          "name": "C6",
          "midi": 84,
          "time": 180.3629999999994,
          "velocity": 0.7874015748031497,
          "duration": 0.04425000000000523
        },
        {
          "name": "C7",
          "midi": 96,
          "time": 180.3629999999994,
          "velocity": 0.7874015748031497,
          "duration": 0.04425000000000523
        },
        {
          "name": "D4",
          "midi": 62,
          "time": 180.5399999999994,
          "velocity": 0.7874015748031497,
          "duration": 0.8827875000000063
        },
        {
          "name": "F#4",
          "midi": 66,
          "time": 180.5399999999994,
          "velocity": 0.7874015748031497,
          "duration": 0.8827875000000063
        },
        {
          "name": "D#5",
          "midi": 75,
          "time": 180.5399999999994,
          "velocity": 0.7874015748031497,
          "duration": 0.8827875000000063
        },
        {
          "name": "F#5",
          "midi": 78,
          "time": 180.5399999999994,
          "velocity": 0.7874015748031497,
          "duration": 0.8827875000000063
        },
        {
          "name": "E6",
          "midi": 88,
          "time": 180.5399999999994,
          "velocity": 0.7874015748031497,
          "duration": 0.8827875000000063
        },
        {
          "name": "F#6",
          "midi": 90,
          "time": 180.5399999999994,
          "velocity": 0.7874015748031497,
          "duration": 0.8827875000000063
        },
        {
          "name": "E7",
          "midi": 100,
          "time": 180.5399999999994,
          "velocity": 0.7874015748031497,
          "duration": 0.8827875000000063
        },
        {
          "name": "F#7",
          "midi": 102,
          "time": 180.5399999999994,
          "velocity": 0.7874015748031497,
          "duration": 0.8827875000000063
        },
        {
          "name": "D4",
          "midi": 62,
          "time": 181.42499999999941,
          "velocity": 0.7874015748031497,
          "duration": 0.043512499999991405
        },
        {
          "name": "F#4",
          "midi": 66,
          "time": 181.42499999999941,
          "velocity": 0.7874015748031497,
          "duration": 0.043512499999991405
        },
        {
          "name": "D#5",
          "midi": 75,
          "time": 181.42499999999941,
          "velocity": 0.7874015748031497,
          "duration": 0.043512499999991405
        },
        {
          "name": "F#5",
          "midi": 78,
          "time": 181.42499999999941,
          "velocity": 0.7874015748031497,
          "duration": 0.043512499999991405
        },
        {
          "name": "E6",
          "midi": 88,
          "time": 181.42499999999941,
          "velocity": 0.7874015748031497,
          "duration": 0.3532624999999996
        },
        {
          "name": "F#6",
          "midi": 90,
          "time": 181.42499999999941,
          "velocity": 0.7874015748031497,
          "duration": 0.3532624999999996
        },
        {
          "name": "E7",
          "midi": 100,
          "time": 181.42499999999941,
          "velocity": 0.7874015748031497,
          "duration": 0.35178750000000036
        },
        {
          "name": "F#7",
          "midi": 102,
          "time": 181.42499999999941,
          "velocity": 0.7874015748031497,
          "duration": 0.35178750000000036
        },
        {
          "name": "C#7",
          "midi": 97,
          "time": 181.77899999999943,
          "velocity": 0.7874015748031497,
          "duration": 0.043512499999991405
        },
        {
          "name": "F#7",
          "midi": 102,
          "time": 181.77899999999943,
          "velocity": 0.7874015748031497,
          "duration": 0.043512499999991405
        },
        {
          "name": "D4",
          "midi": 62,
          "time": 181.95599999999942,
          "velocity": 0.7874015748031497,
          "duration": 0.04425000000000523
        },
        {
          "name": "F#4",
          "midi": 66,
          "time": 181.95599999999942,
          "velocity": 0.7874015748031497,
          "duration": 0.04425000000000523
        },
        {
          "name": "D#5",
          "midi": 75,
          "time": 181.95599999999942,
          "velocity": 0.7874015748031497,
          "duration": 0.04425000000000523
        },
        {
          "name": "F#5",
          "midi": 78,
          "time": 181.95599999999942,
          "velocity": 0.7874015748031497,
          "duration": 0.04425000000000523
        },
        {
          "name": "E6",
          "midi": 88,
          "time": 181.95599999999942,
          "velocity": 0.7874015748031497,
          "duration": 0.04425000000000523
        },
        {
          "name": "F#6",
          "midi": 90,
          "time": 181.95599999999942,
          "velocity": 0.7874015748031497,
          "duration": 0.04425000000000523
        },
        {
          "name": "E7",
          "midi": 100,
          "time": 181.95599999999942,
          "velocity": 0.7874015748031497,
          "duration": 0.04425000000000523
        },
        {
          "name": "F#7",
          "midi": 102,
          "time": 181.95599999999942,
          "velocity": 0.7874015748031497,
          "duration": 0.04425000000000523
        },
        {
          "name": "E7",
          "midi": 100,
          "time": 182.1329999999994,
          "velocity": 0.7874015748031497,
          "duration": 0.04425000000000523
        },
        {
          "name": "F#7",
          "midi": 102,
          "time": 182.1329999999994,
          "velocity": 0.7874015748031497,
          "duration": 0.04425000000000523
        },
        {
          "name": "C4",
          "midi": 60,
          "time": 182.3099999999994,
          "velocity": 0.7874015748031497,
          "duration": 0.043512499999991405
        },
        {
          "name": "F#4",
          "midi": 66,
          "time": 182.3099999999994,
          "velocity": 0.7874015748031497,
          "duration": 0.043512499999991405
        },
        {
          "name": "C5",
          "midi": 72,
          "time": 182.3099999999994,
          "velocity": 0.7874015748031497,
          "duration": 0.043512499999991405
        },
        {
          "name": "F#5",
          "midi": 78,
          "time": 182.3099999999994,
          "velocity": 0.7874015748031497,
          "duration": 0.043512499999991405
        },
        {
          "name": "C6",
          "midi": 84,
          "time": 182.3099999999994,
          "velocity": 0.7874015748031497,
          "duration": 0.043512499999991405
        },
        {
          "name": "F#6",
          "midi": 90,
          "time": 182.3099999999994,
          "velocity": 0.7874015748031497,
          "duration": 0.043512499999991405
        },
        {
          "name": "C7",
          "midi": 96,
          "time": 182.3099999999994,
          "velocity": 0.7874015748031497,
          "duration": 0.043512499999991405
        },
        {
          "name": "F#7",
          "midi": 102,
          "time": 182.3099999999994,
          "velocity": 0.7874015748031497,
          "duration": 0.043512499999991405
        },
        {
          "name": "C7",
          "midi": 96,
          "time": 182.48773749999938,
          "velocity": 0.7874015748031497,
          "duration": 0.043512499999991405
        },
        {
          "name": "F#7",
          "midi": 102,
          "time": 182.48773749999938,
          "velocity": 0.7874015748031497,
          "duration": 0.043512499999991405
        },
        {
          "name": "D4",
          "midi": 62,
          "time": 182.66399999999936,
          "velocity": 0.7874015748031497,
          "duration": 0.5287874999999929
        },
        {
          "name": "F#4",
          "midi": 66,
          "time": 182.66399999999936,
          "velocity": 0.7874015748031497,
          "duration": 0.5287874999999929
        },
        {
          "name": "D#5",
          "midi": 75,
          "time": 182.66399999999936,
          "velocity": 0.7874015748031497,
          "duration": 0.5287874999999929
        },
        {
          "name": "F#5",
          "midi": 78,
          "time": 182.66399999999936,
          "velocity": 0.7874015748031497,
          "duration": 0.5287874999999929
        },
        {
          "name": "E6",
          "midi": 88,
          "time": 182.66399999999936,
          "velocity": 0.7874015748031497,
          "duration": 0.5287874999999929
        },
        {
          "name": "F#6",
          "midi": 90,
          "time": 182.66399999999936,
          "velocity": 0.7874015748031497,
          "duration": 0.5287874999999929
        },
        {
          "name": "E7",
          "midi": 100,
          "time": 182.66399999999936,
          "velocity": 0.7874015748031497,
          "duration": 0.5287874999999929
        },
        {
          "name": "F#7",
          "midi": 102,
          "time": 182.66399999999936,
          "velocity": 0.7874015748031497,
          "duration": 0.5287874999999929
        },
        {
          "name": "C#4",
          "midi": 61,
          "time": 183.19499999999937,
          "velocity": 0.7874015748031497,
          "duration": 0.5287874999999929
        },
        {
          "name": "F#4",
          "midi": 66,
          "time": 183.19499999999937,
          "velocity": 0.7874015748031497,
          "duration": 0.5287874999999929
        },
        {
          "name": "D5",
          "midi": 74,
          "time": 183.19499999999937,
          "velocity": 0.7874015748031497,
          "duration": 0.5287874999999929
        },
        {
          "name": "F#5",
          "midi": 78,
          "time": 183.19499999999937,
          "velocity": 0.7874015748031497,
          "duration": 0.5287874999999929
        },
        {
          "name": "D#6",
          "midi": 87,
          "time": 183.19499999999937,
          "velocity": 0.7874015748031497,
          "duration": 0.5287874999999929
        },
        {
          "name": "F#6",
          "midi": 90,
          "time": 183.19499999999937,
          "velocity": 0.7874015748031497,
          "duration": 0.5287874999999929
        },
        {
          "name": "D#7",
          "midi": 99,
          "time": 183.19499999999937,
          "velocity": 0.7874015748031497,
          "duration": 0.5287874999999929
        },
        {
          "name": "F#7",
          "midi": 102,
          "time": 183.19499999999937,
          "velocity": 0.7874015748031497,
          "duration": 0.5287874999999929
        },
        {
          "name": "C4",
          "midi": 60,
          "time": 183.72599999999937,
          "velocity": 0.7874015748031497,
          "duration": 0.5295250000000067
        },
        {
          "name": "F#4",
          "midi": 66,
          "time": 183.72599999999937,
          "velocity": 0.7874015748031497,
          "duration": 0.5295250000000067
        },
        {
          "name": "C#5",
          "midi": 73,
          "time": 183.72599999999937,
          "velocity": 0.7874015748031497,
          "duration": 0.5295250000000067
        },
        {
          "name": "F#5",
          "midi": 78,
          "time": 183.72599999999937,
          "velocity": 0.7874015748031497,
          "duration": 0.5295250000000067
        },
        {
          "name": "D6",
          "midi": 86,
          "time": 183.72599999999937,
          "velocity": 0.7874015748031497,
          "duration": 0.5295250000000067
        },
        {
          "name": "F#6",
          "midi": 90,
          "time": 183.72599999999937,
          "velocity": 0.7874015748031497,
          "duration": 0.5295250000000067
        },
        {
          "name": "D7",
          "midi": 98,
          "time": 183.72599999999937,
          "velocity": 0.7874015748031497,
          "duration": 0.5295250000000067
        },
        {
          "name": "F#7",
          "midi": 102,
          "time": 183.72599999999937,
          "velocity": 0.7874015748031497,
          "duration": 0.5295250000000067
        },
        {
          "name": "G#8",
          "midi": 116,
          "time": 184.2577374999994,
          "velocity": 0.7874015748031497,
          "duration": 3.759774999999877
        },
        {
          "name": "D4",
          "midi": 62,
          "time": 184.2577374999994,
          "velocity": 0.7874015748031497,
          "duration": 0.043512499999991405
        },
        {
          "name": "F#4",
          "midi": 66,
          "time": 184.2577374999994,
          "velocity": 0.7874015748031497,
          "duration": 0.043512499999991405
        },
        {
          "name": "D#5",
          "midi": 75,
          "time": 184.2577374999994,
          "velocity": 0.7874015748031497,
          "duration": 0.043512499999991405
        },
        {
          "name": "F#5",
          "midi": 78,
          "time": 184.2577374999994,
          "velocity": 0.7874015748031497,
          "duration": 0.043512499999991405
        },
        {
          "name": "E6",
          "midi": 88,
          "time": 184.2577374999994,
          "velocity": 0.7874015748031497,
          "duration": 0.043512499999991405
        },
        {
          "name": "F#6",
          "midi": 90,
          "time": 184.2577374999994,
          "velocity": 0.7874015748031497,
          "duration": 0.043512499999991405
        },
        {
          "name": "E7",
          "midi": 100,
          "time": 184.2577374999994,
          "velocity": 0.7874015748031497,
          "duration": 0.043512499999991405
        },
        {
          "name": "F#7",
          "midi": 102,
          "time": 184.2577374999994,
          "velocity": 0.7874015748031497,
          "duration": 0.043512499999991405
        },
        {
          "name": "D#5",
          "midi": 75,
          "time": 184.43399999999937,
          "velocity": 0.7874015748031497,
          "duration": 0.043512499999991405
        },
        {
          "name": "F#5",
          "midi": 78,
          "time": 184.43399999999937,
          "velocity": 0.7874015748031497,
          "duration": 0.043512499999991405
        },
        {
          "name": "E6",
          "midi": 88,
          "time": 184.43399999999937,
          "velocity": 0.7874015748031497,
          "duration": 0.043512499999991405
        },
        {
          "name": "F#6",
          "midi": 90,
          "time": 184.43399999999937,
          "velocity": 0.7874015748031497,
          "duration": 0.043512499999991405
        },
        {
          "name": "E7",
          "midi": 100,
          "time": 184.43399999999937,
          "velocity": 0.7874015748031497,
          "duration": 0.043512499999991405
        },
        {
          "name": "F#7",
          "midi": 102,
          "time": 184.43399999999937,
          "velocity": 0.7874015748031497,
          "duration": 0.043512499999991405
        },
        {
          "name": "E7",
          "midi": 100,
          "time": 184.61173749999935,
          "velocity": 0.7874015748031497,
          "duration": 0.043512499999991405
        },
        {
          "name": "F#7",
          "midi": 102,
          "time": 184.61173749999935,
          "velocity": 0.7874015748031497,
          "duration": 0.043512499999991405
        },
        {
          "name": "C#4",
          "midi": 61,
          "time": 184.78799999999933,
          "velocity": 0.7874015748031497,
          "duration": 0.043512499999991405
        },
        {
          "name": "F#4",
          "midi": 66,
          "time": 184.78799999999933,
          "velocity": 0.7874015748031497,
          "duration": 0.043512499999991405
        },
        {
          "name": "D5",
          "midi": 74,
          "time": 184.78799999999933,
          "velocity": 0.7874015748031497,
          "duration": 0.043512499999991405
        },
        {
          "name": "F#5",
          "midi": 78,
          "time": 184.78799999999933,
          "velocity": 0.7874015748031497,
          "duration": 0.043512499999991405
        },
        {
          "name": "D#6",
          "midi": 87,
          "time": 184.78799999999933,
          "velocity": 0.7874015748031497,
          "duration": 0.043512499999991405
        },
        {
          "name": "F#6",
          "midi": 90,
          "time": 184.78799999999933,
          "velocity": 0.7874015748031497,
          "duration": 0.043512499999991405
        },
        {
          "name": "D#7",
          "midi": 99,
          "time": 184.78799999999933,
          "velocity": 0.7874015748031497,
          "duration": 0.043512499999991405
        },
        {
          "name": "F#7",
          "midi": 102,
          "time": 184.78799999999933,
          "velocity": 0.7874015748031497,
          "duration": 0.043512499999991405
        },
        {
          "name": "D#6",
          "midi": 87,
          "time": 184.9657374999993,
          "velocity": 0.7874015748031497,
          "duration": 0.043512499999991405
        },
        {
          "name": "F#6",
          "midi": 90,
          "time": 184.9657374999993,
          "velocity": 0.7874015748031497,
          "duration": 0.043512499999991405
        },
        {
          "name": "D#7",
          "midi": 99,
          "time": 184.9657374999993,
          "velocity": 0.7874015748031497,
          "duration": 0.043512499999991405
        },
        {
          "name": "F#7",
          "midi": 102,
          "time": 184.9657374999993,
          "velocity": 0.7874015748031497,
          "duration": 0.043512499999991405
        },
        {
          "name": "C4",
          "midi": 60,
          "time": 185.14199999999929,
          "velocity": 0.7874015748031497,
          "duration": 0.043512499999991405
        },
        {
          "name": "F#4",
          "midi": 66,
          "time": 185.14199999999929,
          "velocity": 0.7874015748031497,
          "duration": 0.043512499999991405
        },
        {
          "name": "C#5",
          "midi": 73,
          "time": 185.14199999999929,
          "velocity": 0.7874015748031497,
          "duration": 0.043512499999991405
        },
        {
          "name": "F#5",
          "midi": 78,
          "time": 185.14199999999929,
          "velocity": 0.7874015748031497,
          "duration": 0.043512499999991405
        },
        {
          "name": "D6",
          "midi": 86,
          "time": 185.14199999999929,
          "velocity": 0.7874015748031497,
          "duration": 0.35178750000000036
        },
        {
          "name": "F#6",
          "midi": 90,
          "time": 185.14199999999929,
          "velocity": 0.7874015748031497,
          "duration": 0.35178750000000036
        },
        {
          "name": "D7",
          "midi": 98,
          "time": 185.14199999999929,
          "velocity": 0.7874015748031497,
          "duration": 0.35178750000000036
        },
        {
          "name": "F#7",
          "midi": 102,
          "time": 185.14199999999929,
          "velocity": 0.7874015748031497,
          "duration": 0.35178750000000036
        },
        {
          "name": "C4",
          "midi": 60,
          "time": 185.4959999999993,
          "velocity": 0.7874015748031497,
          "duration": 0.043512499999991405
        },
        {
          "name": "F#4",
          "midi": 66,
          "time": 185.4959999999993,
          "velocity": 0.7874015748031497,
          "duration": 0.043512499999991405
        },
        {
          "name": "C5",
          "midi": 72,
          "time": 185.4959999999993,
          "velocity": 0.7874015748031497,
          "duration": 0.043512499999991405
        },
        {
          "name": "C6",
          "midi": 84,
          "time": 185.4959999999993,
          "velocity": 0.7874015748031497,
          "duration": 0.043512499999991405
        },
        {
          "name": "C7",
          "midi": 96,
          "time": 185.4959999999993,
          "velocity": 0.7874015748031497,
          "duration": 0.043512499999991405
        },
        {
          "name": "C5",
          "midi": 72,
          "time": 185.6729999999993,
          "velocity": 0.7874015748031497,
          "duration": 0.043512499999991405
        },
        {
          "name": "C6",
          "midi": 84,
          "time": 185.6729999999993,
          "velocity": 0.7874015748031497,
          "duration": 0.35178750000000036
        },
        {
          "name": "C7",
          "midi": 96,
          "time": 185.6729999999993,
          "velocity": 0.7874015748031497,
          "duration": 0.35178750000000036
        },
        {
          "name": "C6",
          "midi": 84,
          "time": 186.0269999999993,
          "velocity": 0.7874015748031497,
          "duration": 0.043512499999991405
        },
        {
          "name": "C7",
          "midi": 96,
          "time": 186.0269999999993,
          "velocity": 0.7874015748031497,
          "duration": 0.043512499999991405
        },
        {
          "name": "C#4",
          "midi": 61,
          "time": 186.2039999999993,
          "velocity": 0.7874015748031497,
          "duration": 0.5280500000000075
        },
        {
          "name": "F#4",
          "midi": 66,
          "time": 186.2039999999993,
          "velocity": 0.7874015748031497,
          "duration": 0.5280500000000075
        },
        {
          "name": "C#5",
          "midi": 73,
          "time": 186.2039999999993,
          "velocity": 0.7874015748031497,
          "duration": 0.5280500000000075
        },
        {
          "name": "F#5",
          "midi": 78,
          "time": 186.2039999999993,
          "velocity": 0.7874015748031497,
          "duration": 0.5280500000000075
        },
        {
          "name": "D6",
          "midi": 86,
          "time": 186.2039999999993,
          "velocity": 0.7874015748031497,
          "duration": 0.5280500000000075
        },
        {
          "name": "F#6",
          "midi": 90,
          "time": 186.2039999999993,
          "velocity": 0.7874015748031497,
          "duration": 0.5280500000000075
        },
        {
          "name": "D7",
          "midi": 98,
          "time": 186.2039999999993,
          "velocity": 0.7874015748031497,
          "duration": 0.5280500000000075
        },
        {
          "name": "F#7",
          "midi": 102,
          "time": 186.2039999999993,
          "velocity": 0.7874015748031497,
          "duration": 0.5280500000000075
        },
        {
          "name": "C4",
          "midi": 60,
          "time": 186.73426249999932,
          "velocity": 0.7874015748031497,
          "duration": 0.043512499999991405
        },
        {
          "name": "F#4",
          "midi": 66,
          "time": 186.73426249999932,
          "velocity": 0.7874015748031497,
          "duration": 0.043512499999991405
        },
        {
          "name": "C5",
          "midi": 72,
          "time": 186.73426249999932,
          "velocity": 0.7874015748031497,
          "duration": 0.043512499999991405
        },
        {
          "name": "C6",
          "midi": 84,
          "time": 186.73426249999932,
          "velocity": 0.7874015748031497,
          "duration": 0.35178750000000036
        },
        {
          "name": "C7",
          "midi": 96,
          "time": 186.73426249999932,
          "velocity": 0.7874015748031497,
          "duration": 0.35178750000000036
        },
        {
          "name": "C4",
          "midi": 60,
          "time": 187.08826249999933,
          "velocity": 0.7874015748031497,
          "duration": 0.043512499999991405
        },
        {
          "name": "F#4",
          "midi": 66,
          "time": 187.08826249999933,
          "velocity": 0.7874015748031497,
          "duration": 0.043512499999991405
        },
        {
          "name": "C5",
          "midi": 72,
          "time": 187.08826249999933,
          "velocity": 0.7874015748031497,
          "duration": 0.043512499999991405
        },
        {
          "name": "C6",
          "midi": 84,
          "time": 187.08826249999933,
          "velocity": 0.7874015748031497,
          "duration": 0.3532624999999996
        },
        {
          "name": "C7",
          "midi": 96,
          "time": 187.08826249999933,
          "velocity": 0.7874015748031497,
          "duration": 0.35178750000000036
        },
        {
          "name": "C7",
          "midi": 96,
          "time": 187.44226249999934,
          "velocity": 0.7874015748031497,
          "duration": 0.043512499999991405
        },
        {
          "name": "D4",
          "midi": 62,
          "time": 187.61999999999932,
          "velocity": 0.7874015748031497,
          "duration": 0.043512499999991405
        },
        {
          "name": "F#4",
          "midi": 66,
          "time": 187.61999999999932,
          "velocity": 0.7874015748031497,
          "duration": 0.043512499999991405
        },
        {
          "name": "D5",
          "midi": 74,
          "time": 187.61999999999932,
          "velocity": 0.7874015748031497,
          "duration": 0.043512499999991405
        },
        {
          "name": "F#5",
          "midi": 78,
          "time": 187.61999999999932,
          "velocity": 0.7874015748031497,
          "duration": 0.043512499999991405
        },
        {
          "name": "D#6",
          "midi": 87,
          "time": 187.61999999999932,
          "velocity": 0.7874015748031497,
          "duration": 0.043512499999991405
        },
        {
          "name": "F#6",
          "midi": 90,
          "time": 187.61999999999932,
          "velocity": 0.7874015748031497,
          "duration": 0.043512499999991405
        },
        {
          "name": "D#7",
          "midi": 99,
          "time": 187.61999999999932,
          "velocity": 0.7874015748031497,
          "duration": 0.043512499999991405
        },
        {
          "name": "F#7",
          "midi": 102,
          "time": 187.61999999999932,
          "velocity": 0.7874015748031497,
          "duration": 0.043512499999991405
        },
        {
          "name": "D#5",
          "midi": 75,
          "time": 187.7962624999993,
          "velocity": 0.7874015748031497,
          "duration": 0.043512499999991405
        },
        {
          "name": "F5",
          "midi": 77,
          "time": 187.7962624999993,
          "velocity": 0.7874015748031497,
          "duration": 0.043512499999991405
        },
        {
          "name": "E6",
          "midi": 88,
          "time": 187.7962624999993,
          "velocity": 0.7874015748031497,
          "duration": 0.043512499999991405
        },
        {
          "name": "F6",
          "midi": 89,
          "time": 187.7962624999993,
          "velocity": 0.7874015748031497,
          "duration": 0.043512499999991405
        },
        {
          "name": "E7",
          "midi": 100,
          "time": 187.7962624999993,
          "velocity": 0.7874015748031497,
          "duration": 0.043512499999991405
        },
        {
          "name": "F#7",
          "midi": 102,
          "time": 187.7962624999993,
          "velocity": 0.7874015748031497,
          "duration": 0.043512499999991405
        },
        {
          "name": "C#4",
          "midi": 61,
          "time": 187.97399999999928,
          "velocity": 0.7874015748031497,
          "duration": 0.043512499999991405
        },
        {
          "name": "F4",
          "midi": 65,
          "time": 187.97399999999928,
          "velocity": 0.7874015748031497,
          "duration": 0.043512499999991405
        },
        {
          "name": "D5",
          "midi": 74,
          "time": 187.97399999999928,
          "velocity": 0.7874015748031497,
          "duration": 0.043512499999991405
        },
        {
          "name": "F5",
          "midi": 77,
          "time": 187.97399999999928,
          "velocity": 0.7874015748031497,
          "duration": 0.043512499999991405
        },
        {
          "name": "D#6",
          "midi": 87,
          "time": 187.97399999999928,
          "velocity": 0.7874015748031497,
          "duration": 0.043512499999991405
        },
        {
          "name": "F6",
          "midi": 89,
          "time": 187.97399999999928,
          "velocity": 0.7874015748031497,
          "duration": 0.043512499999991405
        },
        {
          "name": "D#7",
          "midi": 99,
          "time": 187.97399999999928,
          "velocity": 0.7874015748031497,
          "duration": 0.043512499999991405
        },
        {
          "name": "F#7",
          "midi": 102,
          "time": 187.97399999999928,
          "velocity": 0.7874015748031497,
          "duration": 0.043512499999991405
        },
        {
          "name": "D#7",
          "midi": 99,
          "time": 188.15026249999926,
          "velocity": 0.7874015748031497,
          "duration": 0.043512499999991405
        },
        {
          "name": "F#7",
          "midi": 102,
          "time": 188.15026249999926,
          "velocity": 0.7874015748031497,
          "duration": 0.043512499999991405
        },
        {
          "name": "C7",
          "midi": 96,
          "time": 188.23876249999924,
          "velocity": 0.7874015748031497,
          "duration": 0.043512499999991405
        },
        {
          "name": "C4",
          "midi": 60,
          "time": 188.32799999999924,
          "velocity": 0.7874015748031497,
          "duration": 0.043512499999991405
        },
        {
          "name": "F#4",
          "midi": 66,
          "time": 188.32799999999924,
          "velocity": 0.7874015748031497,
          "duration": 0.043512499999991405
        },
        {
          "name": "C5",
          "midi": 72,
          "time": 188.32799999999924,
          "velocity": 0.7874015748031497,
          "duration": 0.043512499999991405
        },
        {
          "name": "F#5",
          "midi": 78,
          "time": 188.32799999999924,
          "velocity": 0.7874015748031497,
          "duration": 0.043512499999991405
        },
        {
          "name": "C#6",
          "midi": 85,
          "time": 188.32799999999924,
          "velocity": 0.7874015748031497,
          "duration": 0.043512499999991405
        },
        {
          "name": "F#6",
          "midi": 90,
          "time": 188.32799999999924,
          "velocity": 0.7874015748031497,
          "duration": 0.043512499999991405
        },
        {
          "name": "C#7",
          "midi": 97,
          "time": 188.32799999999924,
          "velocity": 0.7874015748031497,
          "duration": 0.043512499999991405
        },
        {
          "name": "F#7",
          "midi": 102,
          "time": 188.32799999999924,
          "velocity": 0.7874015748031497,
          "duration": 0.043512499999991405
        },
        {
          "name": "C5",
          "midi": 72,
          "time": 188.50426249999921,
          "velocity": 0.7874015748031497,
          "duration": 0.04425000000000523
        },
        {
          "name": "F#5",
          "midi": 78,
          "time": 188.50426249999921,
          "velocity": 0.7874015748031497,
          "duration": 0.04425000000000523
        },
        {
          "name": "C#6",
          "midi": 85,
          "time": 188.50426249999921,
          "velocity": 0.7874015748031497,
          "duration": 0.35178750000000036
        },
        {
          "name": "F#6",
          "midi": 90,
          "time": 188.50426249999921,
          "velocity": 0.7874015748031497,
          "duration": 0.35178750000000036
        },
        {
          "name": "C#7",
          "midi": 97,
          "time": 188.50426249999921,
          "velocity": 0.7874015748031497,
          "duration": 0.35178750000000036
        },
        {
          "name": "F#7",
          "midi": 102,
          "time": 188.50426249999921,
          "velocity": 0.7874015748031497,
          "duration": 0.35178750000000036
        },
        {
          "name": "C#6",
          "midi": 85,
          "time": 188.85826249999923,
          "velocity": 0.7874015748031497,
          "duration": 0.04425000000000523
        },
        {
          "name": "F#6",
          "midi": 90,
          "time": 188.85826249999923,
          "velocity": 0.7874015748031497,
          "duration": 0.04425000000000523
        },
        {
          "name": "C#7",
          "midi": 97,
          "time": 188.85826249999923,
          "velocity": 0.7874015748031497,
          "duration": 0.04425000000000523
        },
        {
          "name": "F#7",
          "midi": 102,
          "time": 188.85826249999923,
          "velocity": 0.7874015748031497,
          "duration": 0.04425000000000523
        },
        {
          "name": "D4",
          "midi": 62,
          "time": 189.03599999999923,
          "velocity": 0.7874015748031497,
          "duration": 0.043512499999991405
        },
        {
          "name": "F#4",
          "midi": 66,
          "time": 189.03599999999923,
          "velocity": 0.7874015748031497,
          "duration": 0.043512499999991405
        },
        {
          "name": "D#5",
          "midi": 75,
          "time": 189.03599999999923,
          "velocity": 0.7874015748031497,
          "duration": 0.043512499999991405
        },
        {
          "name": "F#5",
          "midi": 78,
          "time": 189.03599999999923,
          "velocity": 0.7874015748031497,
          "duration": 0.043512499999991405
        },
        {
          "name": "E6",
          "midi": 88,
          "time": 189.03599999999923,
          "velocity": 0.7874015748031497,
          "duration": 0.35178750000000036
        },
        {
          "name": "F#6",
          "midi": 90,
          "time": 189.03599999999923,
          "velocity": 0.7874015748031497,
          "duration": 0.35178750000000036
        },
        {
          "name": "E7",
          "midi": 100,
          "time": 189.03599999999923,
          "velocity": 0.7874015748031497,
          "duration": 0.35178750000000036
        },
        {
          "name": "F#7",
          "midi": 102,
          "time": 189.03599999999923,
          "velocity": 0.7874015748031497,
          "duration": 0.35178750000000036
        },
        {
          "name": "E6",
          "midi": 88,
          "time": 189.38999999999925,
          "velocity": 0.7874015748031497,
          "duration": 0.043512499999991405
        },
        {
          "name": "F#6",
          "midi": 90,
          "time": 189.38999999999925,
          "velocity": 0.7874015748031497,
          "duration": 0.043512499999991405
        },
        {
          "name": "E7",
          "midi": 100,
          "time": 189.38999999999925,
          "velocity": 0.7874015748031497,
          "duration": 0.043512499999991405
        },
        {
          "name": "F#7",
          "midi": 102,
          "time": 189.38999999999925,
          "velocity": 0.7874015748031497,
          "duration": 0.043512499999991405
        },
        {
          "name": "C#4",
          "midi": 61,
          "time": 189.56699999999924,
          "velocity": 0.7874015748031497,
          "duration": 0.043512499999991405
        },
        {
          "name": "F#4",
          "midi": 66,
          "time": 189.56699999999924,
          "velocity": 0.7874015748031497,
          "duration": 0.043512499999991405
        },
        {
          "name": "C5",
          "midi": 72,
          "time": 189.56699999999924,
          "velocity": 0.7874015748031497,
          "duration": 0.043512499999991405
        },
        {
          "name": "F#5",
          "midi": 78,
          "time": 189.56699999999924,
          "velocity": 0.7874015748031497,
          "duration": 0.043512499999991405
        },
        {
          "name": "C#6",
          "midi": 85,
          "time": 189.56699999999924,
          "velocity": 0.7874015748031497,
          "duration": 0.35252499999998577
        },
        {
          "name": "F#6",
          "midi": 90,
          "time": 189.56699999999924,
          "velocity": 0.7874015748031497,
          "duration": 0.35252499999998577
        },
        {
          "name": "C#7",
          "midi": 97,
          "time": 189.56699999999924,
          "velocity": 0.7874015748031497,
          "duration": 0.35252499999998577
        },
        {
          "name": "F#7",
          "midi": 102,
          "time": 189.56699999999924,
          "velocity": 0.7874015748031497,
          "duration": 0.35252499999998577
        },
        {
          "name": "C#6",
          "midi": 85,
          "time": 189.92173749999924,
          "velocity": 0.7874015748031497,
          "duration": 0.043512499999991405
        },
        {
          "name": "F#6",
          "midi": 90,
          "time": 189.92173749999924,
          "velocity": 0.7874015748031497,
          "duration": 0.043512499999991405
        },
        {
          "name": "C#7",
          "midi": 97,
          "time": 189.92173749999924,
          "velocity": 0.7874015748031497,
          "duration": 0.043512499999991405
        },
        {
          "name": "F#7",
          "midi": 102,
          "time": 189.92173749999924,
          "velocity": 0.7874015748031497,
          "duration": 0.043512499999991405
        },
        {
          "name": "D4",
          "midi": 62,
          "time": 190.09799999999922,
          "velocity": 0.7874015748031497,
          "duration": 0.043512499999991405
        },
        {
          "name": "F#4",
          "midi": 66,
          "time": 190.09799999999922,
          "velocity": 0.7874015748031497,
          "duration": 0.043512499999991405
        },
        {
          "name": "D#5",
          "midi": 75,
          "time": 190.09799999999922,
          "velocity": 0.7874015748031497,
          "duration": 0.043512499999991405
        },
        {
          "name": "F#5",
          "midi": 78,
          "time": 190.09799999999922,
          "velocity": 0.7874015748031497,
          "duration": 0.043512499999991405
        },
        {
          "name": "E6",
          "midi": 88,
          "time": 190.09799999999922,
          "velocity": 0.7874015748031497,
          "duration": 0.043512499999991405
        },
        {
          "name": "F#6",
          "midi": 90,
          "time": 190.09799999999922,
          "velocity": 0.7874015748031497,
          "duration": 0.043512499999991405
        },
        {
          "name": "E7",
          "midi": 100,
          "time": 190.09799999999922,
          "velocity": 0.7874015748031497,
          "duration": 0.043512499999991405
        },
        {
          "name": "F#7",
          "midi": 102,
          "time": 190.09799999999922,
          "velocity": 0.7874015748031497,
          "duration": 0.043512499999991405
        },
        {
          "name": "C#7",
          "midi": 97,
          "time": 190.2749999999992,
          "velocity": 0.7874015748031497,
          "duration": 0.043512499999991405
        },
        {
          "name": "F#7",
          "midi": 102,
          "time": 190.2749999999992,
          "velocity": 0.7874015748031497,
          "duration": 0.043512499999991405
        },
        {
          "name": "D4",
          "midi": 62,
          "time": 190.4519999999992,
          "velocity": 0.7874015748031497,
          "duration": 0.043512499999991405
        },
        {
          "name": "F#4",
          "midi": 66,
          "time": 190.4519999999992,
          "velocity": 0.7874015748031497,
          "duration": 0.043512499999991405
        },
        {
          "name": "D#5",
          "midi": 75,
          "time": 190.4519999999992,
          "velocity": 0.7874015748031497,
          "duration": 0.043512499999991405
        },
        {
          "name": "F#5",
          "midi": 78,
          "time": 190.4519999999992,
          "velocity": 0.7874015748031497,
          "duration": 0.043512499999991405
        },
        {
          "name": "E6",
          "midi": 88,
          "time": 190.4519999999992,
          "velocity": 0.7874015748031497,
          "duration": 0.043512499999991405
        },
        {
          "name": "F#6",
          "midi": 90,
          "time": 190.4519999999992,
          "velocity": 0.7874015748031497,
          "duration": 0.043512499999991405
        },
        {
          "name": "E7",
          "midi": 100,
          "time": 190.4519999999992,
          "velocity": 0.7874015748031497,
          "duration": 0.043512499999991405
        },
        {
          "name": "F#7",
          "midi": 102,
          "time": 190.4519999999992,
          "velocity": 0.7874015748031497,
          "duration": 0.043512499999991405
        },
        {
          "name": "C#7",
          "midi": 97,
          "time": 190.62826249999918,
          "velocity": 0.7874015748031497,
          "duration": 0.043512499999991405
        },
        {
          "name": "F#7",
          "midi": 102,
          "time": 190.62826249999918,
          "velocity": 0.7874015748031497,
          "duration": 0.043512499999991405
        },
        {
          "name": "D4",
          "midi": 62,
          "time": 190.80599999999916,
          "velocity": 0.7874015748031497,
          "duration": 0.043512499999991405
        },
        {
          "name": "F#4",
          "midi": 66,
          "time": 190.80599999999916,
          "velocity": 0.7874015748031497,
          "duration": 0.043512499999991405
        },
        {
          "name": "D#5",
          "midi": 75,
          "time": 190.80599999999916,
          "velocity": 0.7874015748031497,
          "duration": 0.043512499999991405
        },
        {
          "name": "F#5",
          "midi": 78,
          "time": 190.80599999999916,
          "velocity": 0.7874015748031497,
          "duration": 0.043512499999991405
        },
        {
          "name": "E6",
          "midi": 88,
          "time": 190.80599999999916,
          "velocity": 0.7874015748031497,
          "duration": 0.35178750000000036
        },
        {
          "name": "F#6",
          "midi": 90,
          "time": 190.80599999999916,
          "velocity": 0.7874015748031497,
          "duration": 0.35178750000000036
        },
        {
          "name": "E7",
          "midi": 100,
          "time": 190.80599999999916,
          "velocity": 0.7874015748031497,
          "duration": 0.35178750000000036
        },
        {
          "name": "F#7",
          "midi": 102,
          "time": 190.80599999999916,
          "velocity": 0.7874015748031497,
          "duration": 0.35178750000000036
        },
        {
          "name": "C4",
          "midi": 60,
          "time": 191.15999999999917,
          "velocity": 0.7874015748031497,
          "duration": 0.043512499999991405
        },
        {
          "name": "F#4",
          "midi": 66,
          "time": 191.15999999999917,
          "velocity": 0.7874015748031497,
          "duration": 0.043512499999991405
        },
        {
          "name": "C5",
          "midi": 72,
          "time": 191.15999999999917,
          "velocity": 0.7874015748031497,
          "duration": 0.043512499999991405
        },
        {
          "name": "F#5",
          "midi": 78,
          "time": 191.15999999999917,
          "velocity": 0.7874015748031497,
          "duration": 0.043512499999991405
        },
        {
          "name": "C6",
          "midi": 84,
          "time": 191.15999999999917,
          "velocity": 0.7874015748031497,
          "duration": 0.043512499999991405
        },
        {
          "name": "F#6",
          "midi": 90,
          "time": 191.15999999999917,
          "velocity": 0.7874015748031497,
          "duration": 0.043512499999991405
        },
        {
          "name": "C7",
          "midi": 96,
          "time": 191.15999999999917,
          "velocity": 0.7874015748031497,
          "duration": 0.043512499999991405
        },
        {
          "name": "F#7",
          "midi": 102,
          "time": 191.15999999999917,
          "velocity": 0.7874015748031497,
          "duration": 0.043512499999991405
        },
        {
          "name": "C5",
          "midi": 72,
          "time": 191.33699999999916,
          "velocity": 0.7874015748031497,
          "duration": 0.043512499999991405
        },
        {
          "name": "F#5",
          "midi": 78,
          "time": 191.33699999999916,
          "velocity": 0.7874015748031497,
          "duration": 0.043512499999991405
        },
        {
          "name": "C6",
          "midi": 84,
          "time": 191.33699999999916,
          "velocity": 0.7874015748031497,
          "duration": 0.35178750000000036
        },
        {
          "name": "F#6",
          "midi": 90,
          "time": 191.33699999999916,
          "velocity": 0.7874015748031497,
          "duration": 0.35178750000000036
        },
        {
          "name": "C7",
          "midi": 96,
          "time": 191.33699999999916,
          "velocity": 0.7874015748031497,
          "duration": 0.35178750000000036
        },
        {
          "name": "F#7",
          "midi": 102,
          "time": 191.33699999999916,
          "velocity": 0.7874015748031497,
          "duration": 0.35178750000000036
        },
        {
          "name": "C6",
          "midi": 84,
          "time": 191.69026249999916,
          "velocity": 0.7874015748031497,
          "duration": 0.043512499999991405
        },
        {
          "name": "F#6",
          "midi": 90,
          "time": 191.69026249999916,
          "velocity": 0.7874015748031497,
          "duration": 0.043512499999991405
        },
        {
          "name": "C7",
          "midi": 96,
          "time": 191.69026249999916,
          "velocity": 0.7874015748031497,
          "duration": 0.043512499999991405
        },
        {
          "name": "F#7",
          "midi": 102,
          "time": 191.69026249999916,
          "velocity": 0.7874015748031497,
          "duration": 0.043512499999991405
        },
        {
          "name": "C#4",
          "midi": 61,
          "time": 191.86799999999914,
          "velocity": 0.7874015748031497,
          "duration": 0.043512499999991405
        },
        {
          "name": "F#4",
          "midi": 66,
          "time": 191.86799999999914,
          "velocity": 0.7874015748031497,
          "duration": 0.043512499999991405
        },
        {
          "name": "D5",
          "midi": 74,
          "time": 191.86799999999914,
          "velocity": 0.7874015748031497,
          "duration": 0.043512499999991405
        },
        {
          "name": "F#5",
          "midi": 78,
          "time": 191.86799999999914,
          "velocity": 0.7874015748031497,
          "duration": 0.043512499999991405
        },
        {
          "name": "D#6",
          "midi": 87,
          "time": 191.86799999999914,
          "velocity": 0.7874015748031497,
          "duration": 0.35178750000000036
        },
        {
          "name": "F#6",
          "midi": 90,
          "time": 191.86799999999914,
          "velocity": 0.7874015748031497,
          "duration": 0.35178750000000036
        },
        {
          "name": "D#7",
          "midi": 99,
          "time": 191.86799999999914,
          "velocity": 0.7874015748031497,
          "duration": 0.35178750000000036
        },
        {
          "name": "F#7",
          "midi": 102,
          "time": 191.86799999999914,
          "velocity": 0.7874015748031497,
          "duration": 0.35178750000000036
        },
        {
          "name": "D#6",
          "midi": 87,
          "time": 192.22199999999916,
          "velocity": 0.7874015748031497,
          "duration": 0.043512499999991405
        },
        {
          "name": "F#6",
          "midi": 90,
          "time": 192.22199999999916,
          "velocity": 0.7874015748031497,
          "duration": 0.043512499999991405
        },
        {
          "name": "D#7",
          "midi": 99,
          "time": 192.22199999999916,
          "velocity": 0.7874015748031497,
          "duration": 0.043512499999991405
        },
        {
          "name": "F#7",
          "midi": 102,
          "time": 192.22199999999916,
          "velocity": 0.7874015748031497,
          "duration": 0.043512499999991405
        },
        {
          "name": "C4",
          "midi": 60,
          "time": 192.39899999999915,
          "velocity": 0.7874015748031497,
          "duration": 0.043512499999991405
        },
        {
          "name": "F#4",
          "midi": 66,
          "time": 192.39899999999915,
          "velocity": 0.7874015748031497,
          "duration": 0.043512499999991405
        },
        {
          "name": "C5",
          "midi": 72,
          "time": 192.39899999999915,
          "velocity": 0.7874015748031497,
          "duration": 0.043512499999991405
        },
        {
          "name": "F#5",
          "midi": 78,
          "time": 192.39899999999915,
          "velocity": 0.7874015748031497,
          "duration": 0.043512499999991405
        },
        {
          "name": "C6",
          "midi": 84,
          "time": 192.39899999999915,
          "velocity": 0.7874015748031497,
          "duration": 0.35252499999998577
        },
        {
          "name": "F#6",
          "midi": 90,
          "time": 192.39899999999915,
          "velocity": 0.7874015748031497,
          "duration": 0.35252499999998577
        },
        {
          "name": "C7",
          "midi": 96,
          "time": 192.39899999999915,
          "velocity": 0.7874015748031497,
          "duration": 0.35252499999998577
        },
        {
          "name": "F#7",
          "midi": 102,
          "time": 192.39899999999915,
          "velocity": 0.7874015748031497,
          "duration": 0.35252499999998577
        },
        {
          "name": "C6",
          "midi": 84,
          "time": 192.75373749999915,
          "velocity": 0.7874015748031497,
          "duration": 0.042775000000006
        },
        {
          "name": "F#6",
          "midi": 90,
          "time": 192.75373749999915,
          "velocity": 0.7874015748031497,
          "duration": 0.042775000000006
        },
        {
          "name": "C7",
          "midi": 96,
          "time": 192.75373749999915,
          "velocity": 0.7874015748031497,
          "duration": 0.042775000000006
        },
        {
          "name": "F#7",
          "midi": 102,
          "time": 192.75373749999915,
          "velocity": 0.7874015748031497,
          "duration": 0.042775000000006
        },
        {
          "name": "C#4",
          "midi": 61,
          "time": 192.92999999999915,
          "velocity": 0.7874015748031497,
          "duration": 0.04425000000000523
        },
        {
          "name": "F#4",
          "midi": 66,
          "time": 192.92999999999915,
          "velocity": 0.7874015748031497,
          "duration": 0.04425000000000523
        },
        {
          "name": "D5",
          "midi": 74,
          "time": 192.92999999999915,
          "velocity": 0.7874015748031497,
          "duration": 0.04425000000000523
        },
        {
          "name": "F#5",
          "midi": 78,
          "time": 192.92999999999915,
          "velocity": 0.7874015748031497,
          "duration": 0.04425000000000523
        },
        {
          "name": "D#6",
          "midi": 87,
          "time": 192.92999999999915,
          "velocity": 0.7874015748031497,
          "duration": 0.04425000000000523
        },
        {
          "name": "F#6",
          "midi": 90,
          "time": 192.92999999999915,
          "velocity": 0.7874015748031497,
          "duration": 0.04425000000000523
        },
        {
          "name": "D#7",
          "midi": 99,
          "time": 192.92999999999915,
          "velocity": 0.7874015748031497,
          "duration": 0.04425000000000523
        },
        {
          "name": "F#7",
          "midi": 102,
          "time": 192.92999999999915,
          "velocity": 0.7874015748031497,
          "duration": 0.04425000000000523
        },
        {
          "name": "C7",
          "midi": 96,
          "time": 193.10699999999915,
          "velocity": 0.7874015748031497,
          "duration": 0.04425000000000523
        },
        {
          "name": "F#7",
          "midi": 102,
          "time": 193.10699999999915,
          "velocity": 0.7874015748031497,
          "duration": 0.04425000000000523
        },
        {
          "name": "C6",
          "midi": 84,
          "time": 193.28399999999914,
          "velocity": 0.7874015748031497,
          "duration": 0.04425000000000523
        },
        {
          "name": "F#6",
          "midi": 90,
          "time": 193.28399999999914,
          "velocity": 0.7874015748031497,
          "duration": 0.04425000000000523
        },
        {
          "name": "C7",
          "midi": 96,
          "time": 193.28399999999914,
          "velocity": 0.7874015748031497,
          "duration": 0.04425000000000523
        },
        {
          "name": "F#7",
          "midi": 102,
          "time": 193.28399999999914,
          "velocity": 0.7874015748031497,
          "duration": 0.04425000000000523
        },
        {
          "name": "D#6",
          "midi": 87,
          "time": 193.46099999999913,
          "velocity": 0.7874015748031497,
          "duration": 0.04425000000000523
        },
        {
          "name": "F#6",
          "midi": 90,
          "time": 193.46099999999913,
          "velocity": 0.7874015748031497,
          "duration": 0.04425000000000523
        },
        {
          "name": "D#7",
          "midi": 99,
          "time": 193.46099999999913,
          "velocity": 0.7874015748031497,
          "duration": 0.04425000000000523
        },
        {
          "name": "F#7",
          "midi": 102,
          "time": 193.46099999999913,
          "velocity": 0.7874015748031497,
          "duration": 0.04425000000000523
        },
        {
          "name": "C#4",
          "midi": 61,
          "time": 193.63799999999912,
          "velocity": 0.7874015748031497,
          "duration": 0.043512499999991405
        },
        {
          "name": "F#4",
          "midi": 66,
          "time": 193.63799999999912,
          "velocity": 0.7874015748031497,
          "duration": 0.043512499999991405
        },
        {
          "name": "D5",
          "midi": 74,
          "time": 193.63799999999912,
          "velocity": 0.7874015748031497,
          "duration": 0.043512499999991405
        },
        {
          "name": "F#5",
          "midi": 78,
          "time": 193.63799999999912,
          "velocity": 0.7874015748031497,
          "duration": 0.043512499999991405
        },
        {
          "name": "D#6",
          "midi": 87,
          "time": 193.63799999999912,
          "velocity": 0.7874015748031497,
          "duration": 0.043512499999991405
        },
        {
          "name": "F#6",
          "midi": 90,
          "time": 193.63799999999912,
          "velocity": 0.7874015748031497,
          "duration": 0.043512499999991405
        },
        {
          "name": "D#7",
          "midi": 99,
          "time": 193.63799999999912,
          "velocity": 0.7874015748031497,
          "duration": 0.043512499999991405
        },
        {
          "name": "F#7",
          "midi": 102,
          "time": 193.63799999999912,
          "velocity": 0.7874015748031497,
          "duration": 0.043512499999991405
        },
        {
          "name": "D#7",
          "midi": 99,
          "time": 193.81499999999912,
          "velocity": 0.7874015748031497,
          "duration": 0.043512499999991405
        },
        {
          "name": "F#7",
          "midi": 102,
          "time": 193.81499999999912,
          "velocity": 0.7874015748031497,
          "duration": 0.043512499999991405
        },
        {
          "name": "D4",
          "midi": 62,
          "time": 193.9919999999991,
          "velocity": 0.7874015748031497,
          "duration": 0.5295250000000067
        },
        {
          "name": "F#4",
          "midi": 66,
          "time": 193.9919999999991,
          "velocity": 0.7874015748031497,
          "duration": 0.5295250000000067
        },
        {
          "name": "D#5",
          "midi": 75,
          "time": 193.9919999999991,
          "velocity": 0.7874015748031497,
          "duration": 0.5295250000000067
        },
        {
          "name": "F#5",
          "midi": 78,
          "time": 193.9919999999991,
          "velocity": 0.7874015748031497,
          "duration": 0.5295250000000067
        },
        {
          "name": "E6",
          "midi": 88,
          "time": 193.9919999999991,
          "velocity": 0.7874015748031497,
          "duration": 0.5295250000000067
        },
        {
          "name": "F#6",
          "midi": 90,
          "time": 193.9919999999991,
          "velocity": 0.7874015748031497,
          "duration": 0.5295250000000067
        },
        {
          "name": "E7",
          "midi": 100,
          "time": 193.9919999999991,
          "velocity": 0.7874015748031497,
          "duration": 0.5295250000000067
        },
        {
          "name": "F#7",
          "midi": 102,
          "time": 193.9919999999991,
          "velocity": 0.7874015748031497,
          "duration": 0.5295250000000067
        },
        {
          "name": "C#4",
          "midi": 61,
          "time": 194.52373749999913,
          "velocity": 0.7874015748031497,
          "duration": 0.5280500000000075
        },
        {
          "name": "F#4",
          "midi": 66,
          "time": 194.52373749999913,
          "velocity": 0.7874015748031497,
          "duration": 0.5280500000000075
        },
        {
          "name": "D5",
          "midi": 74,
          "time": 194.52373749999913,
          "velocity": 0.7874015748031497,
          "duration": 0.5280500000000075
        },
        {
          "name": "F#5",
          "midi": 78,
          "time": 194.52373749999913,
          "velocity": 0.7874015748031497,
          "duration": 0.5280500000000075
        },
        {
          "name": "D#6",
          "midi": 87,
          "time": 194.52373749999913,
          "velocity": 0.7874015748031497,
          "duration": 0.5280500000000075
        },
        {
          "name": "F#6",
          "midi": 90,
          "time": 194.52373749999913,
          "velocity": 0.7874015748031497,
          "duration": 0.5280500000000075
        },
        {
          "name": "D#7",
          "midi": 99,
          "time": 194.52373749999913,
          "velocity": 0.7874015748031497,
          "duration": 0.5280500000000075
        },
        {
          "name": "F#7",
          "midi": 102,
          "time": 194.52373749999913,
          "velocity": 0.7874015748031497,
          "duration": 0.5280500000000075
        },
        {
          "name": "C4",
          "midi": 60,
          "time": 195.05399999999915,
          "velocity": 0.7874015748031497,
          "duration": 0.5287874999999929
        },
        {
          "name": "F#4",
          "midi": 66,
          "time": 195.05399999999915,
          "velocity": 0.7874015748031497,
          "duration": 0.5287874999999929
        },
        {
          "name": "C#5",
          "midi": 73,
          "time": 195.05399999999915,
          "velocity": 0.7874015748031497,
          "duration": 0.5287874999999929
        },
        {
          "name": "F#5",
          "midi": 78,
          "time": 195.05399999999915,
          "velocity": 0.7874015748031497,
          "duration": 0.5287874999999929
        },
        {
          "name": "D6",
          "midi": 86,
          "time": 195.05399999999915,
          "velocity": 0.7874015748031497,
          "duration": 0.5287874999999929
        },
        {
          "name": "F#6",
          "midi": 90,
          "time": 195.05399999999915,
          "velocity": 0.7874015748031497,
          "duration": 0.5287874999999929
        },
        {
          "name": "D7",
          "midi": 98,
          "time": 195.05399999999915,
          "velocity": 0.7874015748031497,
          "duration": 0.5287874999999929
        },
        {
          "name": "F#7",
          "midi": 102,
          "time": 195.05399999999915,
          "velocity": 0.7874015748031497,
          "duration": 0.5287874999999929
        },
        {
          "name": "D4",
          "midi": 62,
          "time": 195.58426249999914,
          "velocity": 0.7874015748031497,
          "duration": 0.5295250000000067
        },
        {
          "name": "F#4",
          "midi": 66,
          "time": 195.58426249999914,
          "velocity": 0.7874015748031497,
          "duration": 0.5295250000000067
        },
        {
          "name": "D5",
          "midi": 74,
          "time": 195.58426249999914,
          "velocity": 0.7874015748031497,
          "duration": 0.5295250000000067
        },
        {
          "name": "F#5",
          "midi": 78,
          "time": 195.58426249999914,
          "velocity": 0.7874015748031497,
          "duration": 0.5295250000000067
        },
        {
          "name": "D#6",
          "midi": 87,
          "time": 195.58426249999914,
          "velocity": 0.7874015748031497,
          "duration": 0.5295250000000067
        },
        {
          "name": "F#6",
          "midi": 90,
          "time": 195.58426249999914,
          "velocity": 0.7874015748031497,
          "duration": 0.5295250000000067
        },
        {
          "name": "D#7",
          "midi": 99,
          "time": 195.58426249999914,
          "velocity": 0.7874015748031497,
          "duration": 0.5295250000000067
        },
        {
          "name": "F#7",
          "midi": 102,
          "time": 195.58426249999914,
          "velocity": 0.7874015748031497,
          "duration": 0.5295250000000067
        },
        {
          "name": "D4",
          "midi": 62,
          "time": 196.11599999999916,
          "velocity": 0.7874015748031497,
          "duration": 0.04425000000000523
        },
        {
          "name": "F#4",
          "midi": 66,
          "time": 196.11599999999916,
          "velocity": 0.7874015748031497,
          "duration": 0.04425000000000523
        },
        {
          "name": "D5",
          "midi": 74,
          "time": 196.11599999999916,
          "velocity": 0.7874015748031497,
          "duration": 0.04425000000000523
        },
        {
          "name": "F#5",
          "midi": 78,
          "time": 196.11599999999916,
          "velocity": 0.7874015748031497,
          "duration": 0.04425000000000523
        },
        {
          "name": "D#6",
          "midi": 87,
          "time": 196.11599999999916,
          "velocity": 0.7874015748031497,
          "duration": 0.04425000000000523
        },
        {
          "name": "F#6",
          "midi": 90,
          "time": 196.11599999999916,
          "velocity": 0.7874015748031497,
          "duration": 0.04425000000000523
        },
        {
          "name": "D#7",
          "midi": 99,
          "time": 196.11599999999916,
          "velocity": 0.7874015748031497,
          "duration": 0.04425000000000523
        },
        {
          "name": "F#7",
          "midi": 102,
          "time": 196.11599999999916,
          "velocity": 0.7874015748031497,
          "duration": 0.04425000000000523
        },
        {
          "name": "D7",
          "midi": 98,
          "time": 196.29226249999917,
          "velocity": 0.7874015748031497,
          "duration": 0.04425000000000523
        },
        {
          "name": "F#7",
          "midi": 102,
          "time": 196.29226249999917,
          "velocity": 0.7874015748031497,
          "duration": 0.04425000000000523
        },
        {
          "name": "C#4",
          "midi": 61,
          "time": 196.46999999999917,
          "velocity": 0.7874015748031497,
          "duration": 0.04425000000000523
        },
        {
          "name": "F#4",
          "midi": 66,
          "time": 196.46999999999917,
          "velocity": 0.7874015748031497,
          "duration": 0.04425000000000523
        },
        {
          "name": "C5",
          "midi": 72,
          "time": 196.46999999999917,
          "velocity": 0.7874015748031497,
          "duration": 0.04425000000000523
        },
        {
          "name": "F#5",
          "midi": 78,
          "time": 196.46999999999917,
          "velocity": 0.7874015748031497,
          "duration": 0.04425000000000523
        },
        {
          "name": "C#6",
          "midi": 85,
          "time": 196.46999999999917,
          "velocity": 0.7874015748031497,
          "duration": 0.35178750000000036
        },
        {
          "name": "F#6",
          "midi": 90,
          "time": 196.46999999999917,
          "velocity": 0.7874015748031497,
          "duration": 0.35178750000000036
        },
        {
          "name": "C#7",
          "midi": 97,
          "time": 196.46999999999917,
          "velocity": 0.7874015748031497,
          "duration": 0.35178750000000036
        },
        {
          "name": "F#7",
          "midi": 102,
          "time": 196.46999999999917,
          "velocity": 0.7874015748031497,
          "duration": 0.35178750000000036
        },
        {
          "name": "C4",
          "midi": 60,
          "time": 196.8239999999992,
          "velocity": 0.7874015748031497,
          "duration": 0.5287874999999929
        },
        {
          "name": "F#4",
          "midi": 66,
          "time": 196.8239999999992,
          "velocity": 0.7874015748031497,
          "duration": 0.5287874999999929
        },
        {
          "name": "C5",
          "midi": 72,
          "time": 196.8239999999992,
          "velocity": 0.7874015748031497,
          "duration": 0.5287874999999929
        },
        {
          "name": "C6",
          "midi": 84,
          "time": 196.8239999999992,
          "velocity": 0.7874015748031497,
          "duration": 0.5287874999999929
        },
        {
          "name": "C7",
          "midi": 96,
          "time": 196.8239999999992,
          "velocity": 0.7874015748031497,
          "duration": 0.5287874999999929
        },
        {
          "name": "C#4",
          "midi": 61,
          "time": 197.3549999999992,
          "velocity": 0.7874015748031497,
          "duration": 0.5310000000000059
        },
        {
          "name": "F#4",
          "midi": 66,
          "time": 197.3549999999992,
          "velocity": 0.7874015748031497,
          "duration": 0.5310000000000059
        },
        {
          "name": "C5",
          "midi": 72,
          "time": 197.3549999999992,
          "velocity": 0.7874015748031497,
          "duration": 0.5310000000000059
        },
        {
          "name": "F#5",
          "midi": 78,
          "time": 197.3549999999992,
          "velocity": 0.7874015748031497,
          "duration": 0.5310000000000059
        },
        {
          "name": "C6",
          "midi": 84,
          "time": 197.3549999999992,
          "velocity": 0.7874015748031497,
          "duration": 0.5287874999999929
        },
        {
          "name": "F#6",
          "midi": 90,
          "time": 197.3549999999992,
          "velocity": 0.7874015748031497,
          "duration": 0.5287874999999929
        },
        {
          "name": "C7",
          "midi": 96,
          "time": 197.3549999999992,
          "velocity": 0.7874015748031497,
          "duration": 0.5287874999999929
        },
        {
          "name": "F#7",
          "midi": 102,
          "time": 197.3549999999992,
          "velocity": 0.7874015748031497,
          "duration": 0.5287874999999929
        },
        {
          "name": "C6",
          "midi": 84,
          "time": 197.8859999999992,
          "velocity": 0.7874015748031497,
          "duration": 0.04425000000000523
        },
        {
          "name": "C7",
          "midi": 96,
          "time": 197.8859999999992,
          "velocity": 0.7874015748031497,
          "duration": 0.04425000000000523
        },
        {
          "name": "C7",
          "midi": 96,
          "time": 198.0629999999992,
          "velocity": 0.7874015748031497,
          "duration": 0.04425000000000523
        },
        {
          "name": "F#7",
          "midi": 102,
          "time": 198.0629999999992,
          "velocity": 0.7874015748031497,
          "duration": 0.04425000000000523
        },
        {
          "name": "C4",
          "midi": 60,
          "time": 198.23999999999918,
          "velocity": 0.7874015748031497,
          "duration": 0.5287874999999929
        },
        {
          "name": "F#4",
          "midi": 66,
          "time": 198.23999999999918,
          "velocity": 0.7874015748031497,
          "duration": 0.5287874999999929
        },
        {
          "name": "C#5",
          "midi": 73,
          "time": 198.23999999999918,
          "velocity": 0.7874015748031497,
          "duration": 0.5287874999999929
        },
        {
          "name": "F#5",
          "midi": 78,
          "time": 198.23999999999918,
          "velocity": 0.7874015748031497,
          "duration": 0.5287874999999929
        },
        {
          "name": "C#6",
          "midi": 85,
          "time": 198.23999999999918,
          "velocity": 0.7874015748031497,
          "duration": 0.5287874999999929
        },
        {
          "name": "F#6",
          "midi": 90,
          "time": 198.23999999999918,
          "velocity": 0.7874015748031497,
          "duration": 0.5287874999999929
        },
        {
          "name": "C#7",
          "midi": 97,
          "time": 198.23999999999918,
          "velocity": 0.7874015748031497,
          "duration": 0.5287874999999929
        },
        {
          "name": "F#7",
          "midi": 102,
          "time": 198.23999999999918,
          "velocity": 0.7874015748031497,
          "duration": 0.5287874999999929
        },
        {
          "name": "D4",
          "midi": 62,
          "time": 198.77026249999918,
          "velocity": 0.7874015748031497,
          "duration": 0.5310000000000059
        },
        {
          "name": "F#4",
          "midi": 66,
          "time": 198.77026249999918,
          "velocity": 0.7874015748031497,
          "duration": 0.5310000000000059
        },
        {
          "name": "D5",
          "midi": 74,
          "time": 198.77026249999918,
          "velocity": 0.7874015748031497,
          "duration": 0.5310000000000059
        },
        {
          "name": "F#5",
          "midi": 78,
          "time": 198.77026249999918,
          "velocity": 0.7874015748031497,
          "duration": 0.5310000000000059
        },
        {
          "name": "D6",
          "midi": 86,
          "time": 198.77026249999918,
          "velocity": 0.7874015748031497,
          "duration": 0.5295250000000067
        },
        {
          "name": "F#6",
          "midi": 90,
          "time": 198.77026249999918,
          "velocity": 0.7874015748031497,
          "duration": 0.5295250000000067
        },
        {
          "name": "D7",
          "midi": 98,
          "time": 198.77026249999918,
          "velocity": 0.7874015748031497,
          "duration": 0.5295250000000067
        },
        {
          "name": "F#7",
          "midi": 102,
          "time": 198.77026249999918,
          "velocity": 0.7874015748031497,
          "duration": 0.5295250000000067
        },
        {
          "name": "C#6",
          "midi": 85,
          "time": 199.3019999999992,
          "velocity": 0.7874015748031497,
          "duration": 0.043512499999991405
        },
        {
          "name": "F#6",
          "midi": 90,
          "time": 199.3019999999992,
          "velocity": 0.7874015748031497,
          "duration": 0.043512499999991405
        },
        {
          "name": "C#7",
          "midi": 97,
          "time": 199.3019999999992,
          "velocity": 0.7874015748031497,
          "duration": 0.043512499999991405
        },
        {
          "name": "F#7",
          "midi": 102,
          "time": 199.3019999999992,
          "velocity": 0.7874015748031497,
          "duration": 0.043512499999991405
        },
        {
          "name": "D7",
          "midi": 98,
          "time": 199.47973749999917,
          "velocity": 0.7874015748031497,
          "duration": 0.043512499999991405
        },
        {
          "name": "F#7",
          "midi": 102,
          "time": 199.47973749999917,
          "velocity": 0.7874015748031497,
          "duration": 0.043512499999991405
        },
        {
          "name": "D4",
          "midi": 62,
          "time": 199.65599999999915,
          "velocity": 0.7874015748031497,
          "duration": 0.5295250000000067
        },
        {
          "name": "F#4",
          "midi": 66,
          "time": 199.65599999999915,
          "velocity": 0.7874015748031497,
          "duration": 0.5295250000000067
        },
        {
          "name": "D#5",
          "midi": 75,
          "time": 199.65599999999915,
          "velocity": 0.7874015748031497,
          "duration": 0.5295250000000067
        },
        {
          "name": "F#5",
          "midi": 78,
          "time": 199.65599999999915,
          "velocity": 0.7874015748031497,
          "duration": 0.5295250000000067
        },
        {
          "name": "D#6",
          "midi": 87,
          "time": 199.65599999999915,
          "velocity": 0.7874015748031497,
          "duration": 0.5295250000000067
        },
        {
          "name": "F#6",
          "midi": 90,
          "time": 199.65599999999915,
          "velocity": 0.7874015748031497,
          "duration": 0.5295250000000067
        },
        {
          "name": "D#7",
          "midi": 99,
          "time": 199.65599999999915,
          "velocity": 0.7874015748031497,
          "duration": 0.5295250000000067
        },
        {
          "name": "F#7",
          "midi": 102,
          "time": 199.65599999999915,
          "velocity": 0.7874015748031497,
          "duration": 0.5295250000000067
        },
        {
          "name": "C#4",
          "midi": 61,
          "time": 200.18773749999917,
          "velocity": 0.7874015748031497,
          "duration": 0.5280500000000075
        },
        {
          "name": "F#4",
          "midi": 66,
          "time": 200.18773749999917,
          "velocity": 0.7874015748031497,
          "duration": 0.5280500000000075
        },
        {
          "name": "D5",
          "midi": 74,
          "time": 200.18773749999917,
          "velocity": 0.7874015748031497,
          "duration": 0.5280500000000075
        },
        {
          "name": "F#5",
          "midi": 78,
          "time": 200.18773749999917,
          "velocity": 0.7874015748031497,
          "duration": 0.5280500000000075
        },
        {
          "name": "D6",
          "midi": 86,
          "time": 200.18773749999917,
          "velocity": 0.7874015748031497,
          "duration": 0.5280500000000075
        },
        {
          "name": "F#6",
          "midi": 90,
          "time": 200.18773749999917,
          "velocity": 0.7874015748031497,
          "duration": 0.5280500000000075
        },
        {
          "name": "D7",
          "midi": 98,
          "time": 200.18773749999917,
          "velocity": 0.7874015748031497,
          "duration": 0.5280500000000075
        },
        {
          "name": "F#7",
          "midi": 102,
          "time": 200.18773749999917,
          "velocity": 0.7874015748031497,
          "duration": 0.5280500000000075
        },
        {
          "name": "C4",
          "midi": 60,
          "time": 200.7179999999992,
          "velocity": 0.7874015748031497,
          "duration": 0.04425000000000523
        },
        {
          "name": "F#4",
          "midi": 66,
          "time": 200.7179999999992,
          "velocity": 0.7874015748031497,
          "duration": 0.04425000000000523
        },
        {
          "name": "C#5",
          "midi": 73,
          "time": 200.7179999999992,
          "velocity": 0.7874015748031497,
          "duration": 0.04425000000000523
        },
        {
          "name": "F#5",
          "midi": 78,
          "time": 200.7179999999992,
          "velocity": 0.7874015748031497,
          "duration": 0.04425000000000523
        },
        {
          "name": "C#6",
          "midi": 85,
          "time": 200.7179999999992,
          "velocity": 0.7874015748031497,
          "duration": 0.04425000000000523
        },
        {
          "name": "F#6",
          "midi": 90,
          "time": 200.7179999999992,
          "velocity": 0.7874015748031497,
          "duration": 0.04425000000000523
        },
        {
          "name": "C#7",
          "midi": 97,
          "time": 200.7179999999992,
          "velocity": 0.7874015748031497,
          "duration": 0.04425000000000523
        },
        {
          "name": "F#7",
          "midi": 102,
          "time": 200.7179999999992,
          "velocity": 0.7874015748031497,
          "duration": 0.04425000000000523
        },
        {
          "name": "E7",
          "midi": 100,
          "time": 200.8957374999992,
          "velocity": 0.7874015748031497,
          "duration": 0.04425000000000523
        },
        {
          "name": "F#7",
          "midi": 102,
          "time": 200.8957374999992,
          "velocity": 0.7874015748031497,
          "duration": 0.04425000000000523
        },
        {
          "name": "D4",
          "midi": 62,
          "time": 201.0719999999992,
          "velocity": 0.7874015748031497,
          "duration": 0.5295250000000067
        },
        {
          "name": "F#4",
          "midi": 66,
          "time": 201.0719999999992,
          "velocity": 0.7874015748031497,
          "duration": 0.5295250000000067
        },
        {
          "name": "D5",
          "midi": 74,
          "time": 201.0719999999992,
          "velocity": 0.7874015748031497,
          "duration": 0.5295250000000067
        },
        {
          "name": "F#5",
          "midi": 78,
          "time": 201.0719999999992,
          "velocity": 0.7874015748031497,
          "duration": 0.5295250000000067
        },
        {
          "name": "D#6",
          "midi": 87,
          "time": 201.0719999999992,
          "velocity": 0.7874015748031497,
          "duration": 0.5295250000000067
        },
        {
          "name": "F#6",
          "midi": 90,
          "time": 201.0719999999992,
          "velocity": 0.7874015748031497,
          "duration": 0.5295250000000067
        },
        {
          "name": "D#7",
          "midi": 99,
          "time": 201.0719999999992,
          "velocity": 0.7874015748031497,
          "duration": 0.5295250000000067
        },
        {
          "name": "F#7",
          "midi": 102,
          "time": 201.0719999999992,
          "velocity": 0.7874015748031497,
          "duration": 0.5295250000000067
        },
        {
          "name": "C#4",
          "midi": 61,
          "time": 201.60373749999923,
          "velocity": 0.7874015748031497,
          "duration": 0.04425000000000523
        },
        {
          "name": "F#4",
          "midi": 66,
          "time": 201.60373749999923,
          "velocity": 0.7874015748031497,
          "duration": 0.04425000000000523
        },
        {
          "name": "C#5",
          "midi": 73,
          "time": 201.60373749999923,
          "velocity": 0.7874015748031497,
          "duration": 0.04425000000000523
        },
        {
          "name": "F#5",
          "midi": 78,
          "time": 201.60373749999923,
          "velocity": 0.7874015748031497,
          "duration": 0.04425000000000523
        },
        {
          "name": "D6",
          "midi": 86,
          "time": 201.60373749999923,
          "velocity": 0.7874015748031497,
          "duration": 0.35178750000000036
        },
        {
          "name": "F#6",
          "midi": 90,
          "time": 201.60373749999923,
          "velocity": 0.7874015748031497,
          "duration": 0.35178750000000036
        },
        {
          "name": "D7",
          "midi": 98,
          "time": 201.60373749999923,
          "velocity": 0.7874015748031497,
          "duration": 0.35178750000000036
        },
        {
          "name": "F#7",
          "midi": 102,
          "time": 201.60373749999923,
          "velocity": 0.7874015748031497,
          "duration": 0.35178750000000036
        },
        {
          "name": "D6",
          "midi": 86,
          "time": 201.95773749999924,
          "velocity": 0.7874015748031497,
          "duration": 0.042775000000006
        },
        {
          "name": "F#6",
          "midi": 90,
          "time": 201.95773749999924,
          "velocity": 0.7874015748031497,
          "duration": 0.042775000000006
        },
        {
          "name": "D7",
          "midi": 98,
          "time": 201.95773749999924,
          "velocity": 0.7874015748031497,
          "duration": 0.042775000000006
        },
        {
          "name": "F#7",
          "midi": 102,
          "time": 201.95773749999924,
          "velocity": 0.7874015748031497,
          "duration": 0.042775000000006
        },
        {
          "name": "C#4",
          "midi": 61,
          "time": 202.13399999999925,
          "velocity": 0.7874015748031497,
          "duration": 0.043512499999991405
        },
        {
          "name": "F#4",
          "midi": 66,
          "time": 202.13399999999925,
          "velocity": 0.7874015748031497,
          "duration": 0.043512499999991405
        },
        {
          "name": "C5",
          "midi": 72,
          "time": 202.13399999999925,
          "velocity": 0.7874015748031497,
          "duration": 0.043512499999991405
        },
        {
          "name": "F#5",
          "midi": 78,
          "time": 202.13399999999925,
          "velocity": 0.7874015748031497,
          "duration": 0.043512499999991405
        },
        {
          "name": "C#6",
          "midi": 85,
          "time": 202.13399999999925,
          "velocity": 0.7874015748031497,
          "duration": 0.043512499999991405
        },
        {
          "name": "F6",
          "midi": 89,
          "time": 202.13399999999925,
          "velocity": 0.7874015748031497,
          "duration": 0.043512499999991405
        },
        {
          "name": "C#7",
          "midi": 97,
          "time": 202.13399999999925,
          "velocity": 0.7874015748031497,
          "duration": 0.043512499999991405
        },
        {
          "name": "F#7",
          "midi": 102,
          "time": 202.13399999999925,
          "velocity": 0.7874015748031497,
          "duration": 0.043512499999991405
        },
        {
          "name": "C7",
          "midi": 96,
          "time": 202.31099999999924,
          "velocity": 0.7874015748031497,
          "duration": 0.043512499999991405
        },
        {
          "name": "F#7",
          "midi": 102,
          "time": 202.31099999999924,
          "velocity": 0.7874015748031497,
          "duration": 0.043512499999991405
        },
        {
          "name": "C4",
          "midi": 60,
          "time": 202.48799999999923,
          "velocity": 0.7874015748031497,
          "duration": 0.5287874999999929
        },
        {
          "name": "F#4",
          "midi": 66,
          "time": 202.48799999999923,
          "velocity": 0.7874015748031497,
          "duration": 0.5287874999999929
        },
        {
          "name": "C5",
          "midi": 72,
          "time": 202.48799999999923,
          "velocity": 0.7874015748031497,
          "duration": 0.5287874999999929
        },
        {
          "name": "C6",
          "midi": 84,
          "time": 202.48799999999923,
          "velocity": 0.7874015748031497,
          "duration": 0.5287874999999929
        },
        {
          "name": "C7",
          "midi": 96,
          "time": 202.48799999999923,
          "velocity": 0.7874015748031497,
          "duration": 0.5287874999999929
        },
        {
          "name": "C#4",
          "midi": 61,
          "time": 203.01899999999924,
          "velocity": 0.7874015748031497,
          "duration": 0.8827875000000063
        },
        {
          "name": "F#4",
          "midi": 66,
          "time": 203.01899999999924,
          "velocity": 0.7874015748031497,
          "duration": 0.8827875000000063
        },
        {
          "name": "C5",
          "midi": 72,
          "time": 203.01899999999924,
          "velocity": 0.7874015748031497,
          "duration": 0.8827875000000063
        },
        {
          "name": "F#5",
          "midi": 78,
          "time": 203.01899999999924,
          "velocity": 0.7874015748031497,
          "duration": 0.8827875000000063
        },
        {
          "name": "C6",
          "midi": 84,
          "time": 203.01899999999924,
          "velocity": 0.7874015748031497,
          "duration": 0.8827875000000063
        },
        {
          "name": "F#6",
          "midi": 90,
          "time": 203.01899999999924,
          "velocity": 0.7874015748031497,
          "duration": 0.8827875000000063
        },
        {
          "name": "C7",
          "midi": 96,
          "time": 203.01899999999924,
          "velocity": 0.7874015748031497,
          "duration": 0.8827875000000063
        },
        {
          "name": "F#7",
          "midi": 102,
          "time": 203.01899999999924,
          "velocity": 0.7874015748031497,
          "duration": 0.8827875000000063
        },
        {
          "name": "C4",
          "midi": 60,
          "time": 203.90399999999926,
          "velocity": 0.7874015748031497,
          "duration": 0.5295250000000067
        },
        {
          "name": "F#4",
          "midi": 66,
          "time": 203.90399999999926,
          "velocity": 0.7874015748031497,
          "duration": 0.5295250000000067
        },
        {
          "name": "C#5",
          "midi": 73,
          "time": 203.90399999999926,
          "velocity": 0.7874015748031497,
          "duration": 0.5295250000000067
        },
        {
          "name": "F#5",
          "midi": 78,
          "time": 203.90399999999926,
          "velocity": 0.7874015748031497,
          "duration": 0.5295250000000067
        },
        {
          "name": "C#6",
          "midi": 85,
          "time": 203.90399999999926,
          "velocity": 0.7874015748031497,
          "duration": 0.5295250000000067
        },
        {
          "name": "F#6",
          "midi": 90,
          "time": 203.90399999999926,
          "velocity": 0.7874015748031497,
          "duration": 0.5295250000000067
        },
        {
          "name": "C#7",
          "midi": 97,
          "time": 203.90399999999926,
          "velocity": 0.7874015748031497,
          "duration": 0.5295250000000067
        },
        {
          "name": "F#7",
          "midi": 102,
          "time": 203.90399999999926,
          "velocity": 0.7874015748031497,
          "duration": 0.5295250000000067
        },
        {
          "name": "D4",
          "midi": 62,
          "time": 204.43573749999928,
          "velocity": 0.7874015748031497,
          "duration": 0.8820499999999925
        },
        {
          "name": "F#4",
          "midi": 66,
          "time": 204.43573749999928,
          "velocity": 0.7874015748031497,
          "duration": 0.8820499999999925
        },
        {
          "name": "D5",
          "midi": 74,
          "time": 204.43573749999928,
          "velocity": 0.7874015748031497,
          "duration": 0.8820499999999925
        },
        {
          "name": "F#5",
          "midi": 78,
          "time": 204.43573749999928,
          "velocity": 0.7874015748031497,
          "duration": 0.8820499999999925
        },
        {
          "name": "D6",
          "midi": 86,
          "time": 204.43573749999928,
          "velocity": 0.7874015748031497,
          "duration": 0.8820499999999925
        },
        {
          "name": "F#6",
          "midi": 90,
          "time": 204.43573749999928,
          "velocity": 0.7874015748031497,
          "duration": 0.8820499999999925
        },
        {
          "name": "D7",
          "midi": 98,
          "time": 204.43573749999928,
          "velocity": 0.7874015748031497,
          "duration": 0.8820499999999925
        },
        {
          "name": "F#7",
          "midi": 102,
          "time": 204.43573749999928,
          "velocity": 0.7874015748031497,
          "duration": 0.8820499999999925
        },
        {
          "name": "D4",
          "midi": 62,
          "time": 205.31999999999928,
          "velocity": 0.7874015748031497,
          "duration": 0.5287874999999929
        },
        {
          "name": "F#4",
          "midi": 66,
          "time": 205.31999999999928,
          "velocity": 0.7874015748031497,
          "duration": 0.5287874999999929
        },
        {
          "name": "D#5",
          "midi": 75,
          "time": 205.31999999999928,
          "velocity": 0.7874015748031497,
          "duration": 0.5287874999999929
        },
        {
          "name": "F#5",
          "midi": 78,
          "time": 205.31999999999928,
          "velocity": 0.7874015748031497,
          "duration": 0.5287874999999929
        },
        {
          "name": "E6",
          "midi": 88,
          "time": 205.31999999999928,
          "velocity": 0.7874015748031497,
          "duration": 0.5287874999999929
        },
        {
          "name": "F#6",
          "midi": 90,
          "time": 205.31999999999928,
          "velocity": 0.7874015748031497,
          "duration": 0.5287874999999929
        },
        {
          "name": "E7",
          "midi": 100,
          "time": 205.31999999999928,
          "velocity": 0.7874015748031497,
          "duration": 0.5287874999999929
        },
        {
          "name": "F#7",
          "midi": 102,
          "time": 205.31999999999928,
          "velocity": 0.7874015748031497,
          "duration": 0.5287874999999929
        },
        {
          "name": "C#4",
          "midi": 61,
          "time": 205.8509999999993,
          "velocity": 0.7874015748031497,
          "duration": 0.8827875000000063
        },
        {
          "name": "F#4",
          "midi": 66,
          "time": 205.8509999999993,
          "velocity": 0.7874015748031497,
          "duration": 0.8827875000000063
        },
        {
          "name": "D5",
          "midi": 74,
          "time": 205.8509999999993,
          "velocity": 0.7874015748031497,
          "duration": 0.8827875000000063
        },
        {
          "name": "F#5",
          "midi": 78,
          "time": 205.8509999999993,
          "velocity": 0.7874015748031497,
          "duration": 0.8827875000000063
        },
        {
          "name": "D#6",
          "midi": 87,
          "time": 205.8509999999993,
          "velocity": 0.7874015748031497,
          "duration": 0.8827875000000063
        },
        {
          "name": "F#6",
          "midi": 90,
          "time": 205.8509999999993,
          "velocity": 0.7874015748031497,
          "duration": 0.8827875000000063
        },
        {
          "name": "D#7",
          "midi": 99,
          "time": 205.8509999999993,
          "velocity": 0.7874015748031497,
          "duration": 0.8827875000000063
        },
        {
          "name": "F#7",
          "midi": 102,
          "time": 205.8509999999993,
          "velocity": 0.7874015748031497,
          "duration": 0.8827875000000063
        },
        {
          "name": "D4",
          "midi": 62,
          "time": 206.7359999999993,
          "velocity": 0.7874015748031497,
          "duration": 0.5280500000000075
        },
        {
          "name": "F#4",
          "midi": 66,
          "time": 206.7359999999993,
          "velocity": 0.7874015748031497,
          "duration": 0.5280500000000075
        },
        {
          "name": "C#5",
          "midi": 73,
          "time": 206.7359999999993,
          "velocity": 0.7874015748031497,
          "duration": 0.5280500000000075
        },
        {
          "name": "F#5",
          "midi": 78,
          "time": 206.7359999999993,
          "velocity": 0.7874015748031497,
          "duration": 0.5280500000000075
        },
        {
          "name": "D6",
          "midi": 86,
          "time": 206.7359999999993,
          "velocity": 0.7874015748031497,
          "duration": 0.5280500000000075
        },
        {
          "name": "F#6",
          "midi": 90,
          "time": 206.7359999999993,
          "velocity": 0.7874015748031497,
          "duration": 0.5280500000000075
        },
        {
          "name": "D7",
          "midi": 98,
          "time": 206.7359999999993,
          "velocity": 0.7874015748031497,
          "duration": 0.5280500000000075
        },
        {
          "name": "F#7",
          "midi": 102,
          "time": 206.7359999999993,
          "velocity": 0.7874015748031497,
          "duration": 0.5280500000000075
        },
        {
          "name": "C4",
          "midi": 60,
          "time": 207.26626249999933,
          "velocity": 0.7874015748031497,
          "duration": 0.5295250000000067
        },
        {
          "name": "F#4",
          "midi": 66,
          "time": 207.26626249999933,
          "velocity": 0.7874015748031497,
          "duration": 0.5295250000000067
        },
        {
          "name": "C5",
          "midi": 72,
          "time": 207.26626249999933,
          "velocity": 0.7874015748031497,
          "duration": 0.5295250000000067
        },
        {
          "name": "F#5",
          "midi": 78,
          "time": 207.26626249999933,
          "velocity": 0.7874015748031497,
          "duration": 0.5295250000000067
        },
        {
          "name": "C#6",
          "midi": 85,
          "time": 207.26626249999933,
          "velocity": 0.7874015748031497,
          "duration": 0.5295250000000067
        },
        {
          "name": "F#6",
          "midi": 90,
          "time": 207.26626249999933,
          "velocity": 0.7874015748031497,
          "duration": 0.5295250000000067
        },
        {
          "name": "C#7",
          "midi": 97,
          "time": 207.26626249999933,
          "velocity": 0.7874015748031497,
          "duration": 0.5295250000000067
        },
        {
          "name": "F#7",
          "midi": 102,
          "time": 207.26626249999933,
          "velocity": 0.7874015748031497,
          "duration": 0.5295250000000067
        },
        {
          "name": "C4",
          "midi": 60,
          "time": 207.79799999999935,
          "velocity": 0.7874015748031497,
          "duration": 0.043512499999991405
        },
        {
          "name": "F#4",
          "midi": 66,
          "time": 207.79799999999935,
          "velocity": 0.7874015748031497,
          "duration": 0.043512499999991405
        },
        {
          "name": "C5",
          "midi": 72,
          "time": 207.79799999999935,
          "velocity": 0.7874015748031497,
          "duration": 0.043512499999991405
        },
        {
          "name": "F#5",
          "midi": 78,
          "time": 207.79799999999935,
          "velocity": 0.7874015748031497,
          "duration": 0.043512499999991405
        },
        {
          "name": "C#6",
          "midi": 85,
          "time": 207.79799999999935,
          "velocity": 0.7874015748031497,
          "duration": 0.043512499999991405
        },
        {
          "name": "F#6",
          "midi": 90,
          "time": 207.79799999999935,
          "velocity": 0.7874015748031497,
          "duration": 0.043512499999991405
        },
        {
          "name": "C#7",
          "midi": 97,
          "time": 207.79799999999935,
          "velocity": 0.7874015748031497,
          "duration": 0.043512499999991405
        },
        {
          "name": "F#7",
          "midi": 102,
          "time": 207.79799999999935,
          "velocity": 0.7874015748031497,
          "duration": 0.043512499999991405
        },
        {
          "name": "C7",
          "midi": 96,
          "time": 207.97573749999933,
          "velocity": 0.7874015748031497,
          "duration": 0.043512499999991405
        },
        {
          "name": "F#7",
          "midi": 102,
          "time": 207.97573749999933,
          "velocity": 0.7874015748031497,
          "duration": 0.043512499999991405
        },
        {
          "name": "C4",
          "midi": 60,
          "time": 208.1519999999993,
          "velocity": 0.7874015748031497,
          "duration": 0.5287874999999929
        },
        {
          "name": "F#4",
          "midi": 66,
          "time": 208.1519999999993,
          "velocity": 0.7874015748031497,
          "duration": 0.5287874999999929
        },
        {
          "name": "C5",
          "midi": 72,
          "time": 208.1519999999993,
          "velocity": 0.7874015748031497,
          "duration": 0.5287874999999929
        },
        {
          "name": "C6",
          "midi": 84,
          "time": 208.1519999999993,
          "velocity": 0.7874015748031497,
          "duration": 0.5287874999999929
        },
        {
          "name": "C7",
          "midi": 96,
          "time": 208.1519999999993,
          "velocity": 0.7874015748031497,
          "duration": 0.5287874999999929
        },
        {
          "name": "C#4",
          "midi": 61,
          "time": 208.6829999999993,
          "velocity": 0.7874015748031497,
          "duration": 0.8827875000000063
        },
        {
          "name": "F#4",
          "midi": 66,
          "time": 208.6829999999993,
          "velocity": 0.7874015748031497,
          "duration": 0.8827875000000063
        },
        {
          "name": "C5",
          "midi": 72,
          "time": 208.6829999999993,
          "velocity": 0.7874015748031497,
          "duration": 0.8827875000000063
        },
        {
          "name": "F#5",
          "midi": 78,
          "time": 208.6829999999993,
          "velocity": 0.7874015748031497,
          "duration": 0.8827875000000063
        },
        {
          "name": "C6",
          "midi": 84,
          "time": 208.6829999999993,
          "velocity": 0.7874015748031497,
          "duration": 0.8827875000000063
        },
        {
          "name": "F#6",
          "midi": 90,
          "time": 208.6829999999993,
          "velocity": 0.7874015748031497,
          "duration": 0.8827875000000063
        },
        {
          "name": "C7",
          "midi": 96,
          "time": 208.6829999999993,
          "velocity": 0.7874015748031497,
          "duration": 0.8827875000000063
        },
        {
          "name": "F#7",
          "midi": 102,
          "time": 208.6829999999993,
          "velocity": 0.7874015748031497,
          "duration": 0.8827875000000063
        },
        {
          "name": "C4",
          "midi": 60,
          "time": 209.56799999999933,
          "velocity": 0.7874015748031497,
          "duration": 0.5295250000000067
        },
        {
          "name": "F#4",
          "midi": 66,
          "time": 209.56799999999933,
          "velocity": 0.7874015748031497,
          "duration": 0.5295250000000067
        },
        {
          "name": "C#5",
          "midi": 73,
          "time": 209.56799999999933,
          "velocity": 0.7874015748031497,
          "duration": 0.5295250000000067
        },
        {
          "name": "F#5",
          "midi": 78,
          "time": 209.56799999999933,
          "velocity": 0.7874015748031497,
          "duration": 0.5295250000000067
        },
        {
          "name": "C#6",
          "midi": 85,
          "time": 209.56799999999933,
          "velocity": 0.7874015748031497,
          "duration": 0.5295250000000067
        },
        {
          "name": "F#6",
          "midi": 90,
          "time": 209.56799999999933,
          "velocity": 0.7874015748031497,
          "duration": 0.5295250000000067
        },
        {
          "name": "C#7",
          "midi": 97,
          "time": 209.56799999999933,
          "velocity": 0.7874015748031497,
          "duration": 0.5295250000000067
        },
        {
          "name": "F#7",
          "midi": 102,
          "time": 209.56799999999933,
          "velocity": 0.7874015748031497,
          "duration": 0.5295250000000067
        },
        {
          "name": "D4",
          "midi": 62,
          "time": 210.09973749999935,
          "velocity": 0.7874015748031497,
          "duration": 0.8820499999999925
        },
        {
          "name": "F#4",
          "midi": 66,
          "time": 210.09973749999935,
          "velocity": 0.7874015748031497,
          "duration": 0.8820499999999925
        },
        {
          "name": "D5",
          "midi": 74,
          "time": 210.09973749999935,
          "velocity": 0.7874015748031497,
          "duration": 0.8820499999999925
        },
        {
          "name": "F#5",
          "midi": 78,
          "time": 210.09973749999935,
          "velocity": 0.7874015748031497,
          "duration": 0.8820499999999925
        },
        {
          "name": "D6",
          "midi": 86,
          "time": 210.09973749999935,
          "velocity": 0.7874015748031497,
          "duration": 0.8820499999999925
        },
        {
          "name": "F#6",
          "midi": 90,
          "time": 210.09973749999935,
          "velocity": 0.7874015748031497,
          "duration": 0.8820499999999925
        },
        {
          "name": "D7",
          "midi": 98,
          "time": 210.09973749999935,
          "velocity": 0.7874015748031497,
          "duration": 0.8820499999999925
        },
        {
          "name": "F#7",
          "midi": 102,
          "time": 210.09973749999935,
          "velocity": 0.7874015748031497,
          "duration": 0.8820499999999925
        },
        {
          "name": "D4",
          "midi": 62,
          "time": 210.98399999999936,
          "velocity": 0.7874015748031497,
          "duration": 0.5287874999999929
        },
        {
          "name": "F#4",
          "midi": 66,
          "time": 210.98399999999936,
          "velocity": 0.7874015748031497,
          "duration": 0.5287874999999929
        },
        {
          "name": "D#5",
          "midi": 75,
          "time": 210.98399999999936,
          "velocity": 0.7874015748031497,
          "duration": 0.5287874999999929
        },
        {
          "name": "F#5",
          "midi": 78,
          "time": 210.98399999999936,
          "velocity": 0.7874015748031497,
          "duration": 0.5287874999999929
        },
        {
          "name": "E6",
          "midi": 88,
          "time": 210.98399999999936,
          "velocity": 0.7874015748031497,
          "duration": 0.5287874999999929
        },
        {
          "name": "F#6",
          "midi": 90,
          "time": 210.98399999999936,
          "velocity": 0.7874015748031497,
          "duration": 0.5287874999999929
        },
        {
          "name": "E7",
          "midi": 100,
          "time": 210.98399999999936,
          "velocity": 0.7874015748031497,
          "duration": 0.5287874999999929
        },
        {
          "name": "F#7",
          "midi": 102,
          "time": 210.98399999999936,
          "velocity": 0.7874015748031497,
          "duration": 0.5287874999999929
        },
        {
          "name": "C#4",
          "midi": 61,
          "time": 211.51499999999936,
          "velocity": 0.7874015748031497,
          "duration": 0.8827875000000063
        },
        {
          "name": "F#4",
          "midi": 66,
          "time": 211.51499999999936,
          "velocity": 0.7874015748031497,
          "duration": 0.8827875000000063
        },
        {
          "name": "D5",
          "midi": 74,
          "time": 211.51499999999936,
          "velocity": 0.7874015748031497,
          "duration": 0.8827875000000063
        },
        {
          "name": "F#5",
          "midi": 78,
          "time": 211.51499999999936,
          "velocity": 0.7874015748031497,
          "duration": 0.8827875000000063
        },
        {
          "name": "D#6",
          "midi": 87,
          "time": 211.51499999999936,
          "velocity": 0.7874015748031497,
          "duration": 0.8827875000000063
        },
        {
          "name": "F#6",
          "midi": 90,
          "time": 211.51499999999936,
          "velocity": 0.7874015748031497,
          "duration": 0.8827875000000063
        },
        {
          "name": "D#7",
          "midi": 99,
          "time": 211.51499999999936,
          "velocity": 0.7874015748031497,
          "duration": 0.8827875000000063
        },
        {
          "name": "F#7",
          "midi": 102,
          "time": 211.51499999999936,
          "velocity": 0.7874015748031497,
          "duration": 0.8827875000000063
        },
        {
          "name": "D4",
          "midi": 62,
          "time": 212.39999999999938,
          "velocity": 0.7874015748031497,
          "duration": 0.5287874999999929
        },
        {
          "name": "F#4",
          "midi": 66,
          "time": 212.39999999999938,
          "velocity": 0.7874015748031497,
          "duration": 0.5287874999999929
        },
        {
          "name": "C#5",
          "midi": 73,
          "time": 212.39999999999938,
          "velocity": 0.7874015748031497,
          "duration": 0.5287874999999929
        },
        {
          "name": "F#5",
          "midi": 78,
          "time": 212.39999999999938,
          "velocity": 0.7874015748031497,
          "duration": 0.5287874999999929
        },
        {
          "name": "D6",
          "midi": 86,
          "time": 212.39999999999938,
          "velocity": 0.7874015748031497,
          "duration": 0.5287874999999929
        },
        {
          "name": "F#6",
          "midi": 90,
          "time": 212.39999999999938,
          "velocity": 0.7874015748031497,
          "duration": 0.5287874999999929
        },
        {
          "name": "D7",
          "midi": 98,
          "time": 212.39999999999938,
          "velocity": 0.7874015748031497,
          "duration": 0.5287874999999929
        },
        {
          "name": "F#7",
          "midi": 102,
          "time": 212.39999999999938,
          "velocity": 0.7874015748031497,
          "duration": 0.5287874999999929
        },
        {
          "name": "C4",
          "midi": 60,
          "time": 212.9309999999994,
          "velocity": 0.7874015748031497,
          "duration": 0.043512499999991405
        },
        {
          "name": "F#4",
          "midi": 66,
          "time": 212.9309999999994,
          "velocity": 0.7874015748031497,
          "duration": 0.043512499999991405
        },
        {
          "name": "C5",
          "midi": 72,
          "time": 212.9309999999994,
          "velocity": 0.7874015748031497,
          "duration": 0.043512499999991405
        },
        {
          "name": "F#5",
          "midi": 78,
          "time": 212.9309999999994,
          "velocity": 0.7874015748031497,
          "duration": 0.043512499999991405
        },
        {
          "name": "C#6",
          "midi": 85,
          "time": 212.9309999999994,
          "velocity": 0.7874015748031497,
          "duration": 0.35178750000000036
        },
        {
          "name": "F#6",
          "midi": 90,
          "time": 212.9309999999994,
          "velocity": 0.7874015748031497,
          "duration": 0.35178750000000036
        },
        {
          "name": "C#7",
          "midi": 97,
          "time": 212.9309999999994,
          "velocity": 0.7874015748031497,
          "duration": 0.35178750000000036
        },
        {
          "name": "F#7",
          "midi": 102,
          "time": 212.9309999999994,
          "velocity": 0.7874015748031497,
          "duration": 0.35178750000000036
        },
        {
          "name": "C#4",
          "midi": 61,
          "time": 213.2849999999994,
          "velocity": 0.7874015748031497,
          "duration": 0.043512499999991405
        },
        {
          "name": "F#4",
          "midi": 66,
          "time": 213.2849999999994,
          "velocity": 0.7874015748031497,
          "duration": 0.043512499999991405
        },
        {
          "name": "C#5",
          "midi": 73,
          "time": 213.2849999999994,
          "velocity": 0.7874015748031497,
          "duration": 0.043512499999991405
        },
        {
          "name": "F#5",
          "midi": 78,
          "time": 213.2849999999994,
          "velocity": 0.7874015748031497,
          "duration": 0.043512499999991405
        },
        {
          "name": "C#6",
          "midi": 85,
          "time": 213.2849999999994,
          "velocity": 0.7874015748031497,
          "duration": 0.2632874999999899
        },
        {
          "name": "F#6",
          "midi": 90,
          "time": 213.2849999999994,
          "velocity": 0.7874015748031497,
          "duration": 0.2632874999999899
        },
        {
          "name": "C#7",
          "midi": 97,
          "time": 213.2849999999994,
          "velocity": 0.7874015748031497,
          "duration": 0.2632874999999899
        },
        {
          "name": "F#7",
          "midi": 102,
          "time": 213.2849999999994,
          "velocity": 0.7874015748031497,
          "duration": 0.2632874999999899
        },
        {
          "name": "C6",
          "midi": 84,
          "time": 213.5504999999994,
          "velocity": 0.7874015748031497,
          "duration": 0.2632874999999899
        },
        {
          "name": "F#6",
          "midi": 90,
          "time": 213.5504999999994,
          "velocity": 0.7874015748031497,
          "duration": 0.2632874999999899
        },
        {
          "name": "C7",
          "midi": 96,
          "time": 213.5504999999994,
          "velocity": 0.7874015748031497,
          "duration": 0.2632874999999899
        },
        {
          "name": "F#7",
          "midi": 102,
          "time": 213.5504999999994,
          "velocity": 0.7874015748031497,
          "duration": 0.2632874999999899
        },
        {
          "name": "G#8",
          "midi": 116,
          "time": 213.8159999999994,
          "velocity": 0.7874015748031497,
          "duration": 4.8225124999999025
        },
        {
          "name": "C4",
          "midi": 60,
          "time": 213.8159999999994,
          "velocity": 0.7874015748031497,
          "duration": 0.5287874999999929
        },
        {
          "name": "F#4",
          "midi": 66,
          "time": 213.8159999999994,
          "velocity": 0.7874015748031497,
          "duration": 0.5287874999999929
        },
        {
          "name": "C5",
          "midi": 72,
          "time": 213.8159999999994,
          "velocity": 0.7874015748031497,
          "duration": 0.5287874999999929
        },
        {
          "name": "C6",
          "midi": 84,
          "time": 213.8159999999994,
          "velocity": 0.7874015748031497,
          "duration": 0.5287874999999929
        },
        {
          "name": "C7",
          "midi": 96,
          "time": 213.8159999999994,
          "velocity": 0.7874015748031497,
          "duration": 0.5287874999999929
        },
        {
          "name": "C#4",
          "midi": 61,
          "time": 214.3469999999994,
          "velocity": 0.7874015748031497,
          "duration": 0.5310000000000059
        },
        {
          "name": "F#4",
          "midi": 66,
          "time": 214.3469999999994,
          "velocity": 0.7874015748031497,
          "duration": 0.5310000000000059
        },
        {
          "name": "C5",
          "midi": 72,
          "time": 214.3469999999994,
          "velocity": 0.7874015748031497,
          "duration": 0.5310000000000059
        },
        {
          "name": "F#5",
          "midi": 78,
          "time": 214.3469999999994,
          "velocity": 0.7874015748031497,
          "duration": 0.5310000000000059
        },
        {
          "name": "C6",
          "midi": 84,
          "time": 214.3469999999994,
          "velocity": 0.7874015748031497,
          "duration": 0.5287874999999929
        },
        {
          "name": "F#6",
          "midi": 90,
          "time": 214.3469999999994,
          "velocity": 0.7874015748031497,
          "duration": 0.5287874999999929
        },
        {
          "name": "C7",
          "midi": 96,
          "time": 214.3469999999994,
          "velocity": 0.7874015748031497,
          "duration": 0.5287874999999929
        },
        {
          "name": "F#7",
          "midi": 102,
          "time": 214.3469999999994,
          "velocity": 0.7874015748031497,
          "duration": 0.5287874999999929
        },
        {
          "name": "C6",
          "midi": 84,
          "time": 214.87799999999942,
          "velocity": 0.7874015748031497,
          "duration": 0.043512499999991405
        },
        {
          "name": "C7",
          "midi": 96,
          "time": 214.87799999999942,
          "velocity": 0.7874015748031497,
          "duration": 0.043512499999991405
        },
        {
          "name": "C7",
          "midi": 96,
          "time": 215.0557374999994,
          "velocity": 0.7874015748031497,
          "duration": 0.043512499999991405
        },
        {
          "name": "F#7",
          "midi": 102,
          "time": 215.0557374999994,
          "velocity": 0.7874015748031497,
          "duration": 0.043512499999991405
        },
        {
          "name": "C4",
          "midi": 60,
          "time": 215.23199999999937,
          "velocity": 0.7874015748031497,
          "duration": 0.5295250000000067
        },
        {
          "name": "F#4",
          "midi": 66,
          "time": 215.23199999999937,
          "velocity": 0.7874015748031497,
          "duration": 0.5295250000000067
        },
        {
          "name": "C#5",
          "midi": 73,
          "time": 215.23199999999937,
          "velocity": 0.7874015748031497,
          "duration": 0.5295250000000067
        },
        {
          "name": "F#5",
          "midi": 78,
          "time": 215.23199999999937,
          "velocity": 0.7874015748031497,
          "duration": 0.5295250000000067
        },
        {
          "name": "C#6",
          "midi": 85,
          "time": 215.23199999999937,
          "velocity": 0.7874015748031497,
          "duration": 0.5295250000000067
        },
        {
          "name": "F#6",
          "midi": 90,
          "time": 215.23199999999937,
          "velocity": 0.7874015748031497,
          "duration": 0.5295250000000067
        },
        {
          "name": "C#7",
          "midi": 97,
          "time": 215.23199999999937,
          "velocity": 0.7874015748031497,
          "duration": 0.5295250000000067
        },
        {
          "name": "F#7",
          "midi": 102,
          "time": 215.23199999999937,
          "velocity": 0.7874015748031497,
          "duration": 0.5295250000000067
        },
        {
          "name": "D4",
          "midi": 62,
          "time": 215.7637374999994,
          "velocity": 0.7874015748031497,
          "duration": 0.043512499999991405
        },
        {
          "name": "F#4",
          "midi": 66,
          "time": 215.7637374999994,
          "velocity": 0.7874015748031497,
          "duration": 0.043512499999991405
        },
        {
          "name": "D5",
          "midi": 74,
          "time": 215.7637374999994,
          "velocity": 0.7874015748031497,
          "duration": 0.043512499999991405
        },
        {
          "name": "F#5",
          "midi": 78,
          "time": 215.7637374999994,
          "velocity": 0.7874015748031497,
          "duration": 0.043512499999991405
        },
        {
          "name": "D6",
          "midi": 86,
          "time": 215.7637374999994,
          "velocity": 0.7874015748031497,
          "duration": 0.35178750000000036
        },
        {
          "name": "F#6",
          "midi": 90,
          "time": 215.7637374999994,
          "velocity": 0.7874015748031497,
          "duration": 0.35178750000000036
        },
        {
          "name": "D7",
          "midi": 98,
          "time": 215.7637374999994,
          "velocity": 0.7874015748031497,
          "duration": 0.35178750000000036
        },
        {
          "name": "F#7",
          "midi": 102,
          "time": 215.7637374999994,
          "velocity": 0.7874015748031497,
          "duration": 0.35178750000000036
        },
        {
          "name": "D6",
          "midi": 86,
          "time": 216.1177374999994,
          "velocity": 0.7874015748031497,
          "duration": 0.042775000000006
        },
        {
          "name": "F#6",
          "midi": 90,
          "time": 216.1177374999994,
          "velocity": 0.7874015748031497,
          "duration": 0.042775000000006
        },
        {
          "name": "D7",
          "midi": 98,
          "time": 216.1177374999994,
          "velocity": 0.7874015748031497,
          "duration": 0.042775000000006
        },
        {
          "name": "F#7",
          "midi": 102,
          "time": 216.1177374999994,
          "velocity": 0.7874015748031497,
          "duration": 0.042775000000006
        },
        {
          "name": "C4",
          "midi": 60,
          "time": 216.29399999999941,
          "velocity": 0.7874015748031497,
          "duration": 0.043512499999991405
        },
        {
          "name": "F#4",
          "midi": 66,
          "time": 216.29399999999941,
          "velocity": 0.7874015748031497,
          "duration": 0.043512499999991405
        },
        {
          "name": "C#5",
          "midi": 73,
          "time": 216.29399999999941,
          "velocity": 0.7874015748031497,
          "duration": 0.043512499999991405
        },
        {
          "name": "F#5",
          "midi": 78,
          "time": 216.29399999999941,
          "velocity": 0.7874015748031497,
          "duration": 0.043512499999991405
        },
        {
          "name": "C#6",
          "midi": 85,
          "time": 216.29399999999941,
          "velocity": 0.7874015748031497,
          "duration": 0.043512499999991405
        },
        {
          "name": "F6",
          "midi": 89,
          "time": 216.29399999999941,
          "velocity": 0.7874015748031497,
          "duration": 0.043512499999991405
        },
        {
          "name": "C#7",
          "midi": 97,
          "time": 216.29399999999941,
          "velocity": 0.7874015748031497,
          "duration": 0.043512499999991405
        },
        {
          "name": "F#7",
          "midi": 102,
          "time": 216.29399999999941,
          "velocity": 0.7874015748031497,
          "duration": 0.043512499999991405
        },
        {
          "name": "D7",
          "midi": 98,
          "time": 216.4709999999994,
          "velocity": 0.7874015748031497,
          "duration": 0.043512499999991405
        },
        {
          "name": "F#7",
          "midi": 102,
          "time": 216.4709999999994,
          "velocity": 0.7874015748031497,
          "duration": 0.043512499999991405
        },
        {
          "name": "D4",
          "midi": 62,
          "time": 216.6479999999994,
          "velocity": 0.7874015748031497,
          "duration": 0.5287874999999929
        },
        {
          "name": "F#4",
          "midi": 66,
          "time": 216.6479999999994,
          "velocity": 0.7874015748031497,
          "duration": 0.5287874999999929
        },
        {
          "name": "D#5",
          "midi": 75,
          "time": 216.6479999999994,
          "velocity": 0.7874015748031497,
          "duration": 0.5287874999999929
        },
        {
          "name": "F#5",
          "midi": 78,
          "time": 216.6479999999994,
          "velocity": 0.7874015748031497,
          "duration": 0.5287874999999929
        },
        {
          "name": "E6",
          "midi": 88,
          "time": 216.6479999999994,
          "velocity": 0.7874015748031497,
          "duration": 0.5287874999999929
        },
        {
          "name": "F#6",
          "midi": 90,
          "time": 216.6479999999994,
          "velocity": 0.7874015748031497,
          "duration": 0.5287874999999929
        },
        {
          "name": "E7",
          "midi": 100,
          "time": 216.6479999999994,
          "velocity": 0.7874015748031497,
          "duration": 0.5287874999999929
        },
        {
          "name": "F#7",
          "midi": 102,
          "time": 216.6479999999994,
          "velocity": 0.7874015748031497,
          "duration": 0.5287874999999929
        },
        {
          "name": "C#4",
          "midi": 61,
          "time": 217.1789999999994,
          "velocity": 0.7874015748031497,
          "duration": 0.5302624999999921
        },
        {
          "name": "F#4",
          "midi": 66,
          "time": 217.1789999999994,
          "velocity": 0.7874015748031497,
          "duration": 0.5302624999999921
        },
        {
          "name": "D5",
          "midi": 74,
          "time": 217.1789999999994,
          "velocity": 0.7874015748031497,
          "duration": 0.5302624999999921
        },
        {
          "name": "F#5",
          "midi": 78,
          "time": 217.1789999999994,
          "velocity": 0.7874015748031497,
          "duration": 0.5302624999999921
        },
        {
          "name": "D#6",
          "midi": 87,
          "time": 217.1789999999994,
          "velocity": 0.7874015748031497,
          "duration": 0.5302624999999921
        },
        {
          "name": "F#6",
          "midi": 90,
          "time": 217.1789999999994,
          "velocity": 0.7874015748031497,
          "duration": 0.5302624999999921
        },
        {
          "name": "D#7",
          "midi": 99,
          "time": 217.1789999999994,
          "velocity": 0.7874015748031497,
          "duration": 0.5287874999999929
        },
        {
          "name": "F#7",
          "midi": 102,
          "time": 217.1789999999994,
          "velocity": 0.7874015748031497,
          "duration": 0.5287874999999929
        },
        {
          "name": "C7",
          "midi": 96,
          "time": 217.7099999999994,
          "velocity": 0.7874015748031497,
          "duration": 0.043512499999991405
        },
        {
          "name": "F#7",
          "midi": 102,
          "time": 217.7099999999994,
          "velocity": 0.7874015748031497,
          "duration": 0.043512499999991405
        },
        {
          "name": "D#6",
          "midi": 87,
          "time": 217.8877374999994,
          "velocity": 0.7874015748031497,
          "duration": 0.043512499999991405
        },
        {
          "name": "F#6",
          "midi": 90,
          "time": 217.8877374999994,
          "velocity": 0.7874015748031497,
          "duration": 0.043512499999991405
        },
        {
          "name": "D#7",
          "midi": 99,
          "time": 217.8877374999994,
          "velocity": 0.7874015748031497,
          "duration": 0.043512499999991405
        },
        {
          "name": "F#7",
          "midi": 102,
          "time": 217.8877374999994,
          "velocity": 0.7874015748031497,
          "duration": 0.043512499999991405
        },
        {
          "name": "C#4",
          "midi": 61,
          "time": 218.06399999999937,
          "velocity": 0.7874015748031497,
          "duration": 0.043512499999991405
        },
        {
          "name": "F#4",
          "midi": 66,
          "time": 218.06399999999937,
          "velocity": 0.7874015748031497,
          "duration": 0.043512499999991405
        },
        {
          "name": "C#5",
          "midi": 73,
          "time": 218.06399999999937,
          "velocity": 0.7874015748031497,
          "duration": 0.043512499999991405
        },
        {
          "name": "F#5",
          "midi": 78,
          "time": 218.06399999999937,
          "velocity": 0.7874015748031497,
          "duration": 0.043512499999991405
        },
        {
          "name": "D6",
          "midi": 86,
          "time": 218.06399999999937,
          "velocity": 0.7874015748031497,
          "duration": 0.043512499999991405
        },
        {
          "name": "F6",
          "midi": 89,
          "time": 218.06399999999937,
          "velocity": 0.7874015748031497,
          "duration": 0.043512499999991405
        },
        {
          "name": "D7",
          "midi": 98,
          "time": 218.06399999999937,
          "velocity": 0.7874015748031497,
          "duration": 0.043512499999991405
        },
        {
          "name": "F#7",
          "midi": 102,
          "time": 218.06399999999937,
          "velocity": 0.7874015748031497,
          "duration": 0.043512499999991405
        },
        {
          "name": "C7",
          "midi": 96,
          "time": 218.24026249999935,
          "velocity": 0.7874015748031497,
          "duration": 0.043512499999991405
        },
        {
          "name": "F#7",
          "midi": 102,
          "time": 218.24026249999935,
          "velocity": 0.7874015748031497,
          "duration": 0.043512499999991405
        },
        {
          "name": "D6",
          "midi": 86,
          "time": 218.41799999999932,
          "velocity": 0.7874015748031497,
          "duration": 0.043512499999991405
        },
        {
          "name": "F#6",
          "midi": 90,
          "time": 218.41799999999932,
          "velocity": 0.7874015748031497,
          "duration": 0.043512499999991405
        },
        {
          "name": "D7",
          "midi": 98,
          "time": 218.41799999999932,
          "velocity": 0.7874015748031497,
          "duration": 0.043512499999991405
        },
        {
          "name": "F#7",
          "midi": 102,
          "time": 218.41799999999932,
          "velocity": 0.7874015748031497,
          "duration": 0.043512499999991405
        },
        {
          "name": "C4",
          "midi": 60,
          "time": 218.59499999999932,
          "velocity": 0.7874015748031497,
          "duration": 0.043512499999991405
        },
        {
          "name": "F#4",
          "midi": 66,
          "time": 218.59499999999932,
          "velocity": 0.7874015748031497,
          "duration": 0.043512499999991405
        },
        {
          "name": "C5",
          "midi": 72,
          "time": 218.59499999999932,
          "velocity": 0.7874015748031497,
          "duration": 0.043512499999991405
        },
        {
          "name": "F#5",
          "midi": 78,
          "time": 218.59499999999932,
          "velocity": 0.7874015748031497,
          "duration": 0.043512499999991405
        },
        {
          "name": "C#6",
          "midi": 85,
          "time": 218.59499999999932,
          "velocity": 0.7874015748031497,
          "duration": 0.043512499999991405
        },
        {
          "name": "F6",
          "midi": 89,
          "time": 218.59499999999932,
          "velocity": 0.7874015748031497,
          "duration": 0.043512499999991405
        },
        {
          "name": "C#7",
          "midi": 97,
          "time": 218.59499999999932,
          "velocity": 0.7874015748031497,
          "duration": 0.043512499999991405
        },
        {
          "name": "F#7",
          "midi": 102,
          "time": 218.59499999999932,
          "velocity": 0.7874015748031497,
          "duration": 0.043512499999991405
        },
        {
          "name": "C4",
          "midi": 60,
          "time": 218.94826249999932,
          "velocity": 0.7874015748031497,
          "duration": 0.043512499999991405
        },
        {
          "name": "F#4",
          "midi": 66,
          "time": 218.94826249999932,
          "velocity": 0.7874015748031497,
          "duration": 0.043512499999991405
        },
        {
          "name": "C5",
          "midi": 72,
          "time": 218.94826249999932,
          "velocity": 0.7874015748031497,
          "duration": 0.043512499999991405
        },
        {
          "name": "F#5",
          "midi": 78,
          "time": 218.94826249999932,
          "velocity": 0.7874015748031497,
          "duration": 0.043512499999991405
        },
        {
          "name": "C#6",
          "midi": 85,
          "time": 218.94826249999932,
          "velocity": 0.7874015748031497,
          "duration": 0.043512499999991405
        },
        {
          "name": "F#6",
          "midi": 90,
          "time": 218.94826249999932,
          "velocity": 0.7874015748031497,
          "duration": 0.043512499999991405
        },
        {
          "name": "C#7",
          "midi": 97,
          "time": 218.94826249999932,
          "velocity": 0.7874015748031497,
          "duration": 0.043512499999991405
        },
        {
          "name": "F#7",
          "midi": 102,
          "time": 218.94826249999932,
          "velocity": 0.7874015748031497,
          "duration": 0.043512499999991405
        },
        {
          "name": "C4",
          "midi": 60,
          "time": 219.21523749999932,
          "velocity": 0.7874015748031497,
          "duration": 0.043512499999991405
        },
        {
          "name": "F#4",
          "midi": 66,
          "time": 219.21523749999932,
          "velocity": 0.7874015748031497,
          "duration": 0.043512499999991405
        },
        {
          "name": "C5",
          "midi": 72,
          "time": 219.21523749999932,
          "velocity": 0.7874015748031497,
          "duration": 0.043512499999991405
        },
        {
          "name": "F#5",
          "midi": 78,
          "time": 219.21523749999932,
          "velocity": 0.7874015748031497,
          "duration": 0.043512499999991405
        },
        {
          "name": "C#6",
          "midi": 85,
          "time": 219.21523749999932,
          "velocity": 0.7874015748031497,
          "duration": 0.043512499999991405
        },
        {
          "name": "F#6",
          "midi": 90,
          "time": 219.21523749999932,
          "velocity": 0.7874015748031497,
          "duration": 0.043512499999991405
        },
        {
          "name": "C#7",
          "midi": 97,
          "time": 219.21523749999932,
          "velocity": 0.7874015748031497,
          "duration": 0.043512499999991405
        },
        {
          "name": "F#7",
          "midi": 102,
          "time": 219.21523749999932,
          "velocity": 0.7874015748031497,
          "duration": 0.043512499999991405
        },
        {
          "name": "D4",
          "midi": 62,
          "time": 219.4799999999993,
          "velocity": 0.7874015748031497,
          "duration": 5.661787500000003
        },
        {
          "name": "F#4",
          "midi": 66,
          "time": 219.4799999999993,
          "velocity": 0.7874015748031497,
          "duration": 5.661787500000003
        },
        {
          "name": "D5",
          "midi": 74,
          "time": 219.4799999999993,
          "velocity": 0.7874015748031497,
          "duration": 5.661787500000003
        },
        {
          "name": "F#5",
          "midi": 78,
          "time": 219.4799999999993,
          "velocity": 0.7874015748031497,
          "duration": 5.661787500000003
        },
        {
          "name": "D6",
          "midi": 86,
          "time": 219.4799999999993,
          "velocity": 0.7874015748031497,
          "duration": 5.661787500000003
        },
        {
          "name": "F#6",
          "midi": 90,
          "time": 219.4799999999993,
          "velocity": 0.7874015748031497,
          "duration": 5.661787500000003
        },
        {
          "name": "D7",
          "midi": 98,
          "time": 219.4799999999993,
          "velocity": 0.7874015748031497,
          "duration": 5.661787500000003
        },
        {
          "name": "F#7",
          "midi": 102,
          "time": 219.4799999999993,
          "velocity": 0.7874015748031497,
          "duration": 5.661787500000003
        },
        {
          "name": "C#4",
          "midi": 61,
          "time": 225.14399999999932,
          "velocity": 0.7874015748031497,
          "duration": 1.4137875000000122
        },
        {
          "name": "F#4",
          "midi": 66,
          "time": 225.14399999999932,
          "velocity": 0.7874015748031497,
          "duration": 1.4137875000000122
        },
        {
          "name": "C#5",
          "midi": 73,
          "time": 225.14399999999932,
          "velocity": 0.7874015748031497,
          "duration": 1.4137875000000122
        },
        {
          "name": "F#5",
          "midi": 78,
          "time": 225.14399999999932,
          "velocity": 0.7874015748031497,
          "duration": 1.4137875000000122
        },
        {
          "name": "C#6",
          "midi": 85,
          "time": 225.14399999999932,
          "velocity": 0.7874015748031497,
          "duration": 1.4137875000000122
        },
        {
          "name": "F#6",
          "midi": 90,
          "time": 225.14399999999932,
          "velocity": 0.7874015748031497,
          "duration": 1.4137875000000122
        },
        {
          "name": "C#7",
          "midi": 97,
          "time": 225.14399999999932,
          "velocity": 0.7874015748031497,
          "duration": 1.4137875000000122
        },
        {
          "name": "F#7",
          "midi": 102,
          "time": 225.14399999999932,
          "velocity": 0.7874015748031497,
          "duration": 1.4137875000000122
        },
        {
          "name": "C4",
          "midi": 60,
          "time": 226.55999999999935,
          "velocity": 0.7874015748031497,
          "duration": 1.0597874999999988
        },
        {
          "name": "F#4",
          "midi": 66,
          "time": 226.55999999999935,
          "velocity": 0.7874015748031497,
          "duration": 1.0597874999999988
        },
        {
          "name": "C5",
          "midi": 72,
          "time": 226.55999999999935,
          "velocity": 0.7874015748031497,
          "duration": 1.0597874999999988
        },
        {
          "name": "F#5",
          "midi": 78,
          "time": 226.55999999999935,
          "velocity": 0.7874015748031497,
          "duration": 1.0597874999999988
        },
        {
          "name": "C6",
          "midi": 84,
          "time": 226.55999999999935,
          "velocity": 0.7874015748031497,
          "duration": 1.0597874999999988
        },
        {
          "name": "F#6",
          "midi": 90,
          "time": 226.55999999999935,
          "velocity": 0.7874015748031497,
          "duration": 1.0597874999999988
        },
        {
          "name": "C7",
          "midi": 96,
          "time": 226.55999999999935,
          "velocity": 0.7874015748031497,
          "duration": 1.0597874999999988
        },
        {
          "name": "F#7",
          "midi": 102,
          "time": 226.55999999999935,
          "velocity": 0.7874015748031497,
          "duration": 1.0597874999999988
        },
        {
          "name": "D4",
          "midi": 62,
          "time": 227.62199999999936,
          "velocity": 0.7874015748031497,
          "duration": 1.7677874999999972
        },
        {
          "name": "F#4",
          "midi": 66,
          "time": 227.62199999999936,
          "velocity": 0.7874015748031497,
          "duration": 1.7677874999999972
        },
        {
          "name": "D5",
          "midi": 74,
          "time": 227.62199999999936,
          "velocity": 0.7874015748031497,
          "duration": 1.7677874999999972
        },
        {
          "name": "F#5",
          "midi": 78,
          "time": 227.62199999999936,
          "velocity": 0.7874015748031497,
          "duration": 1.7677874999999972
        },
        {
          "name": "D6",
          "midi": 86,
          "time": 227.62199999999936,
          "velocity": 0.7874015748031497,
          "duration": 1.7677874999999972
        },
        {
          "name": "F#6",
          "midi": 90,
          "time": 227.62199999999936,
          "velocity": 0.7874015748031497,
          "duration": 1.7677874999999972
        },
        {
          "name": "D7",
          "midi": 98,
          "time": 227.62199999999936,
          "velocity": 0.7874015748031497,
          "duration": 1.7677874999999972
        },
        {
          "name": "F#7",
          "midi": 102,
          "time": 227.62199999999936,
          "velocity": 0.7874015748031497,
          "duration": 1.7677874999999972
        },
        {
          "name": "C#4",
          "midi": 61,
          "time": 229.39199999999937,
          "velocity": 0.7874015748031497,
          "duration": 1.4137875000000122
        },
        {
          "name": "F#4",
          "midi": 66,
          "time": 229.39199999999937,
          "velocity": 0.7874015748031497,
          "duration": 1.4137875000000122
        },
        {
          "name": "C#5",
          "midi": 73,
          "time": 229.39199999999937,
          "velocity": 0.7874015748031497,
          "duration": 1.4137875000000122
        },
        {
          "name": "F#5",
          "midi": 78,
          "time": 229.39199999999937,
          "velocity": 0.7874015748031497,
          "duration": 1.4137875000000122
        },
        {
          "name": "C#6",
          "midi": 85,
          "time": 229.39199999999937,
          "velocity": 0.7874015748031497,
          "duration": 1.4137875000000122
        },
        {
          "name": "F#6",
          "midi": 90,
          "time": 229.39199999999937,
          "velocity": 0.7874015748031497,
          "duration": 1.4137875000000122
        },
        {
          "name": "C#7",
          "midi": 97,
          "time": 229.39199999999937,
          "velocity": 0.7874015748031497,
          "duration": 1.4137875000000122
        },
        {
          "name": "F#7",
          "midi": 102,
          "time": 229.39199999999937,
          "velocity": 0.7874015748031497,
          "duration": 1.4137875000000122
        },
        {
          "name": "C4",
          "midi": 60,
          "time": 230.8079999999994,
          "velocity": 0.7874015748031497,
          "duration": 1.4137875000000122
        },
        {
          "name": "F#4",
          "midi": 66,
          "time": 230.8079999999994,
          "velocity": 0.7874015748031497,
          "duration": 1.4137875000000122
        },
        {
          "name": "C5",
          "midi": 72,
          "time": 230.8079999999994,
          "velocity": 0.7874015748031497,
          "duration": 1.4137875000000122
        },
        {
          "name": "F#5",
          "midi": 78,
          "time": 230.8079999999994,
          "velocity": 0.7874015748031497,
          "duration": 1.4137875000000122
        },
        {
          "name": "C6",
          "midi": 84,
          "time": 230.8079999999994,
          "velocity": 0.7874015748031497,
          "duration": 1.4137875000000122
        },
        {
          "name": "F#6",
          "midi": 90,
          "time": 230.8079999999994,
          "velocity": 0.7874015748031497,
          "duration": 1.4137875000000122
        },
        {
          "name": "C7",
          "midi": 96,
          "time": 230.8079999999994,
          "velocity": 0.7874015748031497,
          "duration": 1.4137875000000122
        },
        {
          "name": "F#7",
          "midi": 102,
          "time": 230.8079999999994,
          "velocity": 0.7874015748031497,
          "duration": 1.4137875000000122
        },
        {
          "name": "C#4",
          "midi": 61,
          "time": 232.22399999999942,
          "velocity": 0.7874015748031497,
          "duration": 1.4137875000000122
        },
        {
          "name": "F#4",
          "midi": 66,
          "time": 232.22399999999942,
          "velocity": 0.7874015748031497,
          "duration": 1.4137875000000122
        },
        {
          "name": "C#5",
          "midi": 73,
          "time": 232.22399999999942,
          "velocity": 0.7874015748031497,
          "duration": 1.4137875000000122
        },
        {
          "name": "F#5",
          "midi": 78,
          "time": 232.22399999999942,
          "velocity": 0.7874015748031497,
          "duration": 1.4137875000000122
        },
        {
          "name": "C#6",
          "midi": 85,
          "time": 232.22399999999942,
          "velocity": 0.7874015748031497,
          "duration": 1.4137875000000122
        },
        {
          "name": "F#6",
          "midi": 90,
          "time": 232.22399999999942,
          "velocity": 0.7874015748031497,
          "duration": 1.4137875000000122
        },
        {
          "name": "C#7",
          "midi": 97,
          "time": 232.22399999999942,
          "velocity": 0.7874015748031497,
          "duration": 1.4137875000000122
        },
        {
          "name": "F#7",
          "midi": 102,
          "time": 232.22399999999942,
          "velocity": 0.7874015748031497,
          "duration": 1.4137875000000122
        },
        {
          "name": "C4",
          "midi": 60,
          "time": 233.63999999999945,
          "velocity": 0.7874015748031497,
          "duration": 8.493787499999996
        },
        {
          "name": "F#4",
          "midi": 66,
          "time": 233.63999999999945,
          "velocity": 0.7874015748031497,
          "duration": 8.493787499999996
        },
        {
          "name": "C5",
          "midi": 72,
          "time": 233.63999999999945,
          "velocity": 0.7874015748031497,
          "duration": 8.493787499999996
        },
        {
          "name": "C6",
          "midi": 84,
          "time": 233.63999999999945,
          "velocity": 0.7874015748031497,
          "duration": 8.493787499999996
        },
        {
          "name": "C7",
          "midi": 96,
          "time": 233.63999999999945,
          "velocity": 0.7874015748031497,
          "duration": 8.493787499999996
        },
        {
          "name": "C4",
          "midi": 60,
          "time": 242.13599999999946,
          "velocity": 0.7874015748031497,
          "duration": 5.661787500000003
        },
        {
          "name": "F#4",
          "midi": 66,
          "time": 242.13599999999946,
          "velocity": 0.7874015748031497,
          "duration": 5.661787500000003
        },
        {
          "name": "C5",
          "midi": 72,
          "time": 242.13599999999946,
          "velocity": 0.7874015748031497,
          "duration": 5.661787500000003
        },
        {
          "name": "C6",
          "midi": 84,
          "time": 242.13599999999946,
          "velocity": 0.7874015748031497,
          "duration": 5.661787500000003
        },
        {
          "name": "C7",
          "midi": 96,
          "time": 242.13599999999946,
          "velocity": 0.7874015748031497,
          "duration": 5.661787500000003
        },
        {
          "name": "C4",
          "midi": 60,
          "time": 247.79999999999947,
          "velocity": 0.7874015748031497,
          "duration": 4.955999999999989
        },
        {
          "name": "F#4",
          "midi": 66,
          "time": 247.79999999999947,
          "velocity": 0.7874015748031497,
          "duration": 4.955999999999989
        },
        {
          "name": "C5",
          "midi": 72,
          "time": 247.79999999999947,
          "velocity": 0.7874015748031497,
          "duration": 4.955999999999989
        },
        {
          "name": "C6",
          "midi": 84,
          "time": 247.79999999999947,
          "velocity": 0.7874015748031497,
          "duration": 4.955999999999989
        },
        {
          "name": "C7",
          "midi": 96,
          "time": 247.79999999999947,
          "velocity": 0.7874015748031497,
          "duration": 4.955999999999989
        },
        {
          "name": "G#8",
          "midi": 116,
          "time": 268.3319999999995,
          "velocity": 0.7874015748031497,
          "duration": 8.141262499999982
        },
        {
          "name": "C4",
          "midi": 60,
          "time": 268.3319999999995,
          "velocity": 0.7874015748031497,
          "duration": 1.2367874999999913
        },
        {
          "name": "F#4",
          "midi": 66,
          "time": 268.3319999999995,
          "velocity": 0.7874015748031497,
          "duration": 1.2367874999999913
        },
        {
          "name": "C5",
          "midi": 72,
          "time": 268.3319999999995,
          "velocity": 0.7874015748031497,
          "duration": 1.2367874999999913
        },
        {
          "name": "C6",
          "midi": 84,
          "time": 268.3319999999995,
          "velocity": 0.7874015748031497,
          "duration": 1.2367874999999913
        },
        {
          "name": "C7",
          "midi": 96,
          "time": 268.3319999999995,
          "velocity": 0.7874015748031497,
          "duration": 1.2367874999999913
        },
        {
          "name": "C4",
          "midi": 60,
          "time": 269.5702624999995,
          "velocity": 0.7874015748031497,
          "duration": 0.04424999999997681
        },
        {
          "name": "F#4",
          "midi": 66,
          "time": 269.5702624999995,
          "velocity": 0.7874015748031497,
          "duration": 0.04424999999997681
        },
        {
          "name": "C5",
          "midi": 72,
          "time": 269.5702624999995,
          "velocity": 0.7874015748031497,
          "duration": 0.04424999999997681
        },
        {
          "name": "F#5",
          "midi": 78,
          "time": 269.5702624999995,
          "velocity": 0.7874015748031497,
          "duration": 0.04424999999997681
        },
        {
          "name": "C6",
          "midi": 84,
          "time": 269.5702624999995,
          "velocity": 0.7874015748031497,
          "duration": 0.5280499999999506
        },
        {
          "name": "F#6",
          "midi": 90,
          "time": 269.5702624999995,
          "velocity": 0.7874015748031497,
          "duration": 0.5280499999999506
        },
        {
          "name": "C7",
          "midi": 96,
          "time": 269.5702624999995,
          "velocity": 0.7874015748031497,
          "duration": 0.5280499999999506
        },
        {
          "name": "F#7",
          "midi": 102,
          "time": 269.5702624999995,
          "velocity": 0.7874015748031497,
          "duration": 0.5280499999999506
        },
        {
          "name": "C#4",
          "midi": 61,
          "time": 270.10199999999946,
          "velocity": 0.7874015748031497,
          "duration": 0.08776249999999663
        },
        {
          "name": "F#4",
          "midi": 66,
          "time": 270.10199999999946,
          "velocity": 0.7874015748031497,
          "duration": 0.08776249999999663
        },
        {
          "name": "C#5",
          "midi": 73,
          "time": 270.10199999999946,
          "velocity": 0.7874015748031497,
          "duration": 0.08776249999999663
        },
        {
          "name": "F#5",
          "midi": 78,
          "time": 270.10199999999946,
          "velocity": 0.7874015748031497,
          "duration": 0.08776249999999663
        },
        {
          "name": "C#6",
          "midi": 85,
          "time": 270.10199999999946,
          "velocity": 0.7874015748031497,
          "duration": 0.7043125000000146
        },
        {
          "name": "F#6",
          "midi": 90,
          "time": 270.10199999999946,
          "velocity": 0.7874015748031497,
          "duration": 0.7043125000000146
        },
        {
          "name": "C#7",
          "midi": 97,
          "time": 270.10199999999946,
          "velocity": 0.7874015748031497,
          "duration": 0.7043125000000146
        },
        {
          "name": "F#7",
          "midi": 102,
          "time": 270.10199999999946,
          "velocity": 0.7874015748031497,
          "duration": 0.7043125000000146
        },
        {
          "name": "D4",
          "midi": 62,
          "time": 270.8099999999995,
          "velocity": 0.7874015748031497,
          "duration": 0.08776249999999663
        },
        {
          "name": "F#4",
          "midi": 66,
          "time": 270.8099999999995,
          "velocity": 0.7874015748031497,
          "duration": 0.08776249999999663
        },
        {
          "name": "D5",
          "midi": 74,
          "time": 270.8099999999995,
          "velocity": 0.7874015748031497,
          "duration": 0.08776249999999663
        },
        {
          "name": "F#5",
          "midi": 78,
          "time": 270.8099999999995,
          "velocity": 0.7874015748031497,
          "duration": 0.08776249999999663
        },
        {
          "name": "D6",
          "midi": 86,
          "time": 270.8099999999995,
          "velocity": 0.7874015748031497,
          "duration": 0.7043125000000146
        },
        {
          "name": "F#6",
          "midi": 90,
          "time": 270.8099999999995,
          "velocity": 0.7874015748031497,
          "duration": 0.7043125000000146
        },
        {
          "name": "D7",
          "midi": 98,
          "time": 270.8099999999995,
          "velocity": 0.7874015748031497,
          "duration": 0.7043125000000146
        },
        {
          "name": "F#7",
          "midi": 102,
          "time": 270.8099999999995,
          "velocity": 0.7874015748031497,
          "duration": 0.7043125000000146
        },
        {
          "name": "C4",
          "midi": 60,
          "time": 271.5179999999995,
          "velocity": 0.7874015748031497,
          "duration": 1.2367874999999913
        },
        {
          "name": "F#4",
          "midi": 66,
          "time": 271.5179999999995,
          "velocity": 0.7874015748031497,
          "duration": 1.2367874999999913
        },
        {
          "name": "C5",
          "midi": 72,
          "time": 271.5179999999995,
          "velocity": 0.7874015748031497,
          "duration": 1.2367874999999913
        },
        {
          "name": "C6",
          "midi": 84,
          "time": 271.5179999999995,
          "velocity": 0.7874015748031497,
          "duration": 1.2367874999999913
        },
        {
          "name": "C7",
          "midi": 96,
          "time": 271.5179999999995,
          "velocity": 0.7874015748031497,
          "duration": 1.2367874999999913
        },
        {
          "name": "C4",
          "midi": 60,
          "time": 272.75626249999954,
          "velocity": 0.7874015748031497,
          "duration": 0.5295249999999783
        },
        {
          "name": "F#4",
          "midi": 66,
          "time": 272.75626249999954,
          "velocity": 0.7874015748031497,
          "duration": 0.5295249999999783
        },
        {
          "name": "C5",
          "midi": 72,
          "time": 272.75626249999954,
          "velocity": 0.7874015748031497,
          "duration": 0.5295249999999783
        },
        {
          "name": "F#5",
          "midi": 78,
          "time": 272.75626249999954,
          "velocity": 0.7874015748031497,
          "duration": 0.5295249999999783
        },
        {
          "name": "C6",
          "midi": 84,
          "time": 272.75626249999954,
          "velocity": 0.7874015748031497,
          "duration": 0.5295249999999783
        },
        {
          "name": "F#6",
          "midi": 90,
          "time": 272.75626249999954,
          "velocity": 0.7874015748031497,
          "duration": 0.5295249999999783
        },
        {
          "name": "C7",
          "midi": 96,
          "time": 272.75626249999954,
          "velocity": 0.7874015748031497,
          "duration": 0.5295249999999783
        },
        {
          "name": "F#7",
          "midi": 102,
          "time": 272.75626249999954,
          "velocity": 0.7874015748031497,
          "duration": 0.5295249999999783
        },
        {
          "name": "C#4",
          "midi": 61,
          "time": 273.2879999999995,
          "velocity": 0.7874015748031497,
          "duration": 0.04351250000001983
        },
        {
          "name": "F#4",
          "midi": 66,
          "time": 273.2879999999995,
          "velocity": 0.7874015748031497,
          "duration": 0.04351250000001983
        },
        {
          "name": "C#5",
          "midi": 73,
          "time": 273.2879999999995,
          "velocity": 0.7874015748031497,
          "duration": 0.04351250000001983
        },
        {
          "name": "F#5",
          "midi": 78,
          "time": 273.2879999999995,
          "velocity": 0.7874015748031497,
          "duration": 0.04351250000001983
        },
        {
          "name": "C#6",
          "midi": 85,
          "time": 273.2879999999995,
          "velocity": 0.7874015748031497,
          "duration": 0.35178750000000036
        },
        {
          "name": "F#6",
          "midi": 90,
          "time": 273.2879999999995,
          "velocity": 0.7874015748031497,
          "duration": 0.35178750000000036
        },
        {
          "name": "C#7",
          "midi": 97,
          "time": 273.2879999999995,
          "velocity": 0.7874015748031497,
          "duration": 0.35178750000000036
        },
        {
          "name": "F#7",
          "midi": 102,
          "time": 273.2879999999995,
          "velocity": 0.7874015748031497,
          "duration": 0.35178750000000036
        },
        {
          "name": "D4",
          "midi": 62,
          "time": 273.6419999999995,
          "velocity": 0.7874015748031497,
          "duration": 0.04351250000001983
        },
        {
          "name": "F#4",
          "midi": 66,
          "time": 273.6419999999995,
          "velocity": 0.7874015748031497,
          "duration": 0.04351250000001983
        },
        {
          "name": "D5",
          "midi": 74,
          "time": 273.6419999999995,
          "velocity": 0.7874015748031497,
          "duration": 0.04351250000001983
        },
        {
          "name": "F#5",
          "midi": 78,
          "time": 273.6419999999995,
          "velocity": 0.7874015748031497,
          "duration": 0.04351250000001983
        },
        {
          "name": "D6",
          "midi": 86,
          "time": 273.6419999999995,
          "velocity": 0.7874015748031497,
          "duration": 0.35178750000000036
        },
        {
          "name": "F#6",
          "midi": 90,
          "time": 273.6419999999995,
          "velocity": 0.7874015748031497,
          "duration": 0.35178750000000036
        },
        {
          "name": "D7",
          "midi": 98,
          "time": 273.6419999999995,
          "velocity": 0.7874015748031497,
          "duration": 0.35178750000000036
        },
        {
          "name": "F#7",
          "midi": 102,
          "time": 273.6419999999995,
          "velocity": 0.7874015748031497,
          "duration": 0.35178750000000036
        },
        {
          "name": "C4",
          "midi": 60,
          "time": 273.99599999999947,
          "velocity": 0.7874015748031497,
          "duration": 1.237525000000005
        },
        {
          "name": "F#4",
          "midi": 66,
          "time": 273.99599999999947,
          "velocity": 0.7874015748031497,
          "duration": 1.237525000000005
        },
        {
          "name": "C5",
          "midi": 72,
          "time": 273.99599999999947,
          "velocity": 0.7874015748031497,
          "duration": 1.237525000000005
        },
        {
          "name": "C6",
          "midi": 84,
          "time": 273.99599999999947,
          "velocity": 0.7874015748031497,
          "duration": 1.237525000000005
        },
        {
          "name": "C7",
          "midi": 96,
          "time": 273.99599999999947,
          "velocity": 0.7874015748031497,
          "duration": 1.237525000000005
        },
        {
          "name": "C4",
          "midi": 60,
          "time": 275.23573749999946,
          "velocity": 0.7874015748031497,
          "duration": 0.5280500000000075
        },
        {
          "name": "F#4",
          "midi": 66,
          "time": 275.23573749999946,
          "velocity": 0.7874015748031497,
          "duration": 0.5280500000000075
        },
        {
          "name": "C5",
          "midi": 72,
          "time": 275.23573749999946,
          "velocity": 0.7874015748031497,
          "duration": 0.5280500000000075
        },
        {
          "name": "F#5",
          "midi": 78,
          "time": 275.23573749999946,
          "velocity": 0.7874015748031497,
          "duration": 0.5280500000000075
        },
        {
          "name": "C6",
          "midi": 84,
          "time": 275.23573749999946,
          "velocity": 0.7874015748031497,
          "duration": 0.5280500000000075
        },
        {
          "name": "F#6",
          "midi": 90,
          "time": 275.23573749999946,
          "velocity": 0.7874015748031497,
          "duration": 0.5280500000000075
        },
        {
          "name": "C7",
          "midi": 96,
          "time": 275.23573749999946,
          "velocity": 0.7874015748031497,
          "duration": 0.5280500000000075
        },
        {
          "name": "F#7",
          "midi": 102,
          "time": 275.23573749999946,
          "velocity": 0.7874015748031497,
          "duration": 0.5280500000000075
        },
        {
          "name": "C#4",
          "midi": 61,
          "time": 275.76599999999945,
          "velocity": 0.7874015748031497,
          "duration": 0.04424999999997681
        },
        {
          "name": "F#4",
          "midi": 66,
          "time": 275.76599999999945,
          "velocity": 0.7874015748031497,
          "duration": 0.04424999999997681
        },
        {
          "name": "C#5",
          "midi": 73,
          "time": 275.76599999999945,
          "velocity": 0.7874015748031497,
          "duration": 0.04424999999997681
        },
        {
          "name": "F#5",
          "midi": 78,
          "time": 275.76599999999945,
          "velocity": 0.7874015748031497,
          "duration": 0.04424999999997681
        },
        {
          "name": "C#6",
          "midi": 85,
          "time": 275.76599999999945,
          "velocity": 0.7874015748031497,
          "duration": 0.35178750000000036
        },
        {
          "name": "F#6",
          "midi": 90,
          "time": 275.76599999999945,
          "velocity": 0.7874015748031497,
          "duration": 0.35178750000000036
        },
        {
          "name": "C#7",
          "midi": 97,
          "time": 275.76599999999945,
          "velocity": 0.7874015748031497,
          "duration": 0.35178750000000036
        },
        {
          "name": "F#7",
          "midi": 102,
          "time": 275.76599999999945,
          "velocity": 0.7874015748031497,
          "duration": 0.35178750000000036
        },
        {
          "name": "D4",
          "midi": 62,
          "time": 276.11999999999944,
          "velocity": 0.7874015748031497,
          "duration": 0.04424999999997681
        },
        {
          "name": "F#4",
          "midi": 66,
          "time": 276.11999999999944,
          "velocity": 0.7874015748031497,
          "duration": 0.04424999999997681
        },
        {
          "name": "D5",
          "midi": 74,
          "time": 276.11999999999944,
          "velocity": 0.7874015748031497,
          "duration": 0.04424999999997681
        },
        {
          "name": "F#5",
          "midi": 78,
          "time": 276.11999999999944,
          "velocity": 0.7874015748031497,
          "duration": 0.04424999999997681
        },
        {
          "name": "D6",
          "midi": 86,
          "time": 276.11999999999944,
          "velocity": 0.7874015748031497,
          "duration": 0.35178750000000036
        },
        {
          "name": "F#6",
          "midi": 90,
          "time": 276.11999999999944,
          "velocity": 0.7874015748031497,
          "duration": 0.35178750000000036
        },
        {
          "name": "D7",
          "midi": 98,
          "time": 276.11999999999944,
          "velocity": 0.7874015748031497,
          "duration": 0.35178750000000036
        },
        {
          "name": "F#7",
          "midi": 102,
          "time": 276.11999999999944,
          "velocity": 0.7874015748031497,
          "duration": 0.35178750000000036
        },
        {
          "name": "C4",
          "midi": 60,
          "time": 276.4739999999995,
          "velocity": 0.7874015748031497,
          "duration": 1.2367874999999913
        },
        {
          "name": "F#4",
          "midi": 66,
          "time": 276.4739999999995,
          "velocity": 0.7874015748031497,
          "duration": 1.2367874999999913
        },
        {
          "name": "C5",
          "midi": 72,
          "time": 276.4739999999995,
          "velocity": 0.7874015748031497,
          "duration": 1.2367874999999913
        },
        {
          "name": "C6",
          "midi": 84,
          "time": 276.4739999999995,
          "velocity": 0.7874015748031497,
          "duration": 1.2367874999999913
        },
        {
          "name": "C7",
          "midi": 96,
          "time": 276.4739999999995,
          "velocity": 0.7874015748031497,
          "duration": 1.2367874999999913
        },
        {
          "name": "C4",
          "midi": 60,
          "time": 277.71299999999945,
          "velocity": 0.7874015748031497,
          "duration": 0.5287875000000213
        },
        {
          "name": "F#4",
          "midi": 66,
          "time": 277.71299999999945,
          "velocity": 0.7874015748031497,
          "duration": 0.5287875000000213
        },
        {
          "name": "C5",
          "midi": 72,
          "time": 277.71299999999945,
          "velocity": 0.7874015748031497,
          "duration": 0.5287875000000213
        },
        {
          "name": "F#5",
          "midi": 78,
          "time": 277.71299999999945,
          "velocity": 0.7874015748031497,
          "duration": 0.5287875000000213
        },
        {
          "name": "C6",
          "midi": 84,
          "time": 277.71299999999945,
          "velocity": 0.7874015748031497,
          "duration": 0.5287875000000213
        },
        {
          "name": "F#6",
          "midi": 90,
          "time": 277.71299999999945,
          "velocity": 0.7874015748031497,
          "duration": 0.5287875000000213
        },
        {
          "name": "C7",
          "midi": 96,
          "time": 277.71299999999945,
          "velocity": 0.7874015748031497,
          "duration": 0.5287875000000213
        },
        {
          "name": "F#7",
          "midi": 102,
          "time": 277.71299999999945,
          "velocity": 0.7874015748031497,
          "duration": 0.5287875000000213
        },
        {
          "name": "C#4",
          "midi": 61,
          "time": 278.24399999999946,
          "velocity": 0.7874015748031497,
          "duration": 0.04424999999997681
        },
        {
          "name": "F#4",
          "midi": 66,
          "time": 278.24399999999946,
          "velocity": 0.7874015748031497,
          "duration": 0.04424999999997681
        },
        {
          "name": "C#5",
          "midi": 73,
          "time": 278.24399999999946,
          "velocity": 0.7874015748031497,
          "duration": 0.04424999999997681
        },
        {
          "name": "F#5",
          "midi": 78,
          "time": 278.24399999999946,
          "velocity": 0.7874015748031497,
          "duration": 0.04424999999997681
        },
        {
          "name": "C#6",
          "midi": 85,
          "time": 278.24399999999946,
          "velocity": 0.7874015748031497,
          "duration": 0.35178750000000036
        },
        {
          "name": "F#6",
          "midi": 90,
          "time": 278.24399999999946,
          "velocity": 0.7874015748031497,
          "duration": 0.35178750000000036
        },
        {
          "name": "C#7",
          "midi": 97,
          "time": 278.24399999999946,
          "velocity": 0.7874015748031497,
          "duration": 0.35178750000000036
        },
        {
          "name": "F#7",
          "midi": 102,
          "time": 278.24399999999946,
          "velocity": 0.7874015748031497,
          "duration": 0.35178750000000036
        },
        {
          "name": "D4",
          "midi": 62,
          "time": 278.59799999999944,
          "velocity": 0.7874015748031497,
          "duration": 0.04424999999997681
        },
        {
          "name": "F#4",
          "midi": 66,
          "time": 278.59799999999944,
          "velocity": 0.7874015748031497,
          "duration": 0.04424999999997681
        },
        {
          "name": "D5",
          "midi": 74,
          "time": 278.59799999999944,
          "velocity": 0.7874015748031497,
          "duration": 0.04424999999997681
        },
        {
          "name": "F#5",
          "midi": 78,
          "time": 278.59799999999944,
          "velocity": 0.7874015748031497,
          "duration": 0.04424999999997681
        },
        {
          "name": "D6",
          "midi": 86,
          "time": 278.59799999999944,
          "velocity": 0.7874015748031497,
          "duration": 0.35178750000000036
        },
        {
          "name": "F#6",
          "midi": 90,
          "time": 278.59799999999944,
          "velocity": 0.7874015748031497,
          "duration": 0.35178750000000036
        },
        {
          "name": "D7",
          "midi": 98,
          "time": 278.59799999999944,
          "velocity": 0.7874015748031497,
          "duration": 0.35178750000000036
        },
        {
          "name": "F#7",
          "midi": 102,
          "time": 278.59799999999944,
          "velocity": 0.7874015748031497,
          "duration": 0.35178750000000036
        },
        {
          "name": "C4",
          "midi": 60,
          "time": 278.95199999999943,
          "velocity": 0.7874015748031497,
          "duration": 1.2367874999999913
        },
        {
          "name": "F#4",
          "midi": 66,
          "time": 278.95199999999943,
          "velocity": 0.7874015748031497,
          "duration": 1.2367874999999913
        },
        {
          "name": "C5",
          "midi": 72,
          "time": 278.95199999999943,
          "velocity": 0.7874015748031497,
          "duration": 1.2367874999999913
        },
        {
          "name": "C6",
          "midi": 84,
          "time": 278.95199999999943,
          "velocity": 0.7874015748031497,
          "duration": 1.2367874999999913
        },
        {
          "name": "C7",
          "midi": 96,
          "time": 278.95199999999943,
          "velocity": 0.7874015748031497,
          "duration": 1.2367874999999913
        },
        {
          "name": "C4",
          "midi": 60,
          "time": 280.1909999999994,
          "velocity": 0.7874015748031497,
          "duration": 0.5287875000000213
        },
        {
          "name": "F#4",
          "midi": 66,
          "time": 280.1909999999994,
          "velocity": 0.7874015748031497,
          "duration": 0.5287875000000213
        },
        {
          "name": "C5",
          "midi": 72,
          "time": 280.1909999999994,
          "velocity": 0.7874015748031497,
          "duration": 0.5287875000000213
        },
        {
          "name": "F#5",
          "midi": 78,
          "time": 280.1909999999994,
          "velocity": 0.7874015748031497,
          "duration": 0.5287875000000213
        },
        {
          "name": "C6",
          "midi": 84,
          "time": 280.1909999999994,
          "velocity": 0.7874015748031497,
          "duration": 0.5287875000000213
        },
        {
          "name": "F#6",
          "midi": 90,
          "time": 280.1909999999994,
          "velocity": 0.7874015748031497,
          "duration": 0.5287875000000213
        },
        {
          "name": "C7",
          "midi": 96,
          "time": 280.1909999999994,
          "velocity": 0.7874015748031497,
          "duration": 0.5287875000000213
        },
        {
          "name": "F#7",
          "midi": 102,
          "time": 280.1909999999994,
          "velocity": 0.7874015748031497,
          "duration": 0.5287875000000213
        },
        {
          "name": "C#4",
          "midi": 61,
          "time": 280.7219999999994,
          "velocity": 0.7874015748031497,
          "duration": 0.04351250000001983
        },
        {
          "name": "F#4",
          "midi": 66,
          "time": 280.7219999999994,
          "velocity": 0.7874015748031497,
          "duration": 0.04351250000001983
        },
        {
          "name": "C#5",
          "midi": 73,
          "time": 280.7219999999994,
          "velocity": 0.7874015748031497,
          "duration": 0.04351250000001983
        },
        {
          "name": "F#5",
          "midi": 78,
          "time": 280.7219999999994,
          "velocity": 0.7874015748031497,
          "duration": 0.04351250000001983
        },
        {
          "name": "C#6",
          "midi": 85,
          "time": 280.7219999999994,
          "velocity": 0.7874015748031497,
          "duration": 0.35178750000000036
        },
        {
          "name": "F#6",
          "midi": 90,
          "time": 280.7219999999994,
          "velocity": 0.7874015748031497,
          "duration": 0.35178750000000036
        },
        {
          "name": "C#7",
          "midi": 97,
          "time": 280.7219999999994,
          "velocity": 0.7874015748031497,
          "duration": 0.35178750000000036
        },
        {
          "name": "F#7",
          "midi": 102,
          "time": 280.7219999999994,
          "velocity": 0.7874015748031497,
          "duration": 0.35178750000000036
        },
        {
          "name": "D4",
          "midi": 62,
          "time": 281.0759999999994,
          "velocity": 0.7874015748031497,
          "duration": 0.04351250000001983
        },
        {
          "name": "F#4",
          "midi": 66,
          "time": 281.0759999999994,
          "velocity": 0.7874015748031497,
          "duration": 0.04351250000001983
        },
        {
          "name": "D5",
          "midi": 74,
          "time": 281.0759999999994,
          "velocity": 0.7874015748031497,
          "duration": 0.04351250000001983
        },
        {
          "name": "F#5",
          "midi": 78,
          "time": 281.0759999999994,
          "velocity": 0.7874015748031497,
          "duration": 0.04351250000001983
        },
        {
          "name": "D6",
          "midi": 86,
          "time": 281.0759999999994,
          "velocity": 0.7874015748031497,
          "duration": 0.35178750000000036
        },
        {
          "name": "F#6",
          "midi": 90,
          "time": 281.0759999999994,
          "velocity": 0.7874015748031497,
          "duration": 0.35178750000000036
        },
        {
          "name": "D7",
          "midi": 98,
          "time": 281.0759999999994,
          "velocity": 0.7874015748031497,
          "duration": 0.35178750000000036
        },
        {
          "name": "F#7",
          "midi": 102,
          "time": 281.0759999999994,
          "velocity": 0.7874015748031497,
          "duration": 0.35178750000000036
        },
        {
          "name": "C4",
          "midi": 60,
          "time": 281.4299999999994,
          "velocity": 0.7874015748031497,
          "duration": 1.2367874999999913
        },
        {
          "name": "F#4",
          "midi": 66,
          "time": 281.4299999999994,
          "velocity": 0.7874015748031497,
          "duration": 1.2367874999999913
        },
        {
          "name": "C5",
          "midi": 72,
          "time": 281.4299999999994,
          "velocity": 0.7874015748031497,
          "duration": 1.2367874999999913
        },
        {
          "name": "C6",
          "midi": 84,
          "time": 281.4299999999994,
          "velocity": 0.7874015748031497,
          "duration": 1.2367874999999913
        },
        {
          "name": "C7",
          "midi": 96,
          "time": 281.4299999999994,
          "velocity": 0.7874015748031497,
          "duration": 1.2367874999999913
        },
        {
          "name": "C4",
          "midi": 60,
          "time": 282.6682624999994,
          "velocity": 0.7874015748031497,
          "duration": 0.04424999999997681
        },
        {
          "name": "F#4",
          "midi": 66,
          "time": 282.6682624999994,
          "velocity": 0.7874015748031497,
          "duration": 0.04424999999997681
        },
        {
          "name": "C5",
          "midi": 72,
          "time": 282.6682624999994,
          "velocity": 0.7874015748031497,
          "duration": 0.04424999999997681
        },
        {
          "name": "F#5",
          "midi": 78,
          "time": 282.6682624999994,
          "velocity": 0.7874015748031497,
          "duration": 0.04424999999997681
        },
        {
          "name": "C6",
          "midi": 84,
          "time": 282.6682624999994,
          "velocity": 0.7874015748031497,
          "duration": 0.5280499999999506
        },
        {
          "name": "F#6",
          "midi": 90,
          "time": 282.6682624999994,
          "velocity": 0.7874015748031497,
          "duration": 0.5280499999999506
        },
        {
          "name": "C7",
          "midi": 96,
          "time": 282.6682624999994,
          "velocity": 0.7874015748031497,
          "duration": 0.5280499999999506
        },
        {
          "name": "F#7",
          "midi": 102,
          "time": 282.6682624999994,
          "velocity": 0.7874015748031497,
          "duration": 0.5280499999999506
        },
        {
          "name": "C#4",
          "midi": 61,
          "time": 283.19999999999936,
          "velocity": 0.7874015748031497,
          "duration": 0.08776249999999663
        },
        {
          "name": "F#4",
          "midi": 66,
          "time": 283.19999999999936,
          "velocity": 0.7874015748031497,
          "duration": 0.08776249999999663
        },
        {
          "name": "C#5",
          "midi": 73,
          "time": 283.19999999999936,
          "velocity": 0.7874015748031497,
          "duration": 0.08776249999999663
        },
        {
          "name": "F#5",
          "midi": 78,
          "time": 283.19999999999936,
          "velocity": 0.7874015748031497,
          "duration": 0.08776249999999663
        },
        {
          "name": "C#6",
          "midi": 85,
          "time": 283.19999999999936,
          "velocity": 0.7874015748031497,
          "duration": 0.7043125000000146
        },
        {
          "name": "F#6",
          "midi": 90,
          "time": 283.19999999999936,
          "velocity": 0.7874015748031497,
          "duration": 0.7043125000000146
        },
        {
          "name": "C#7",
          "midi": 97,
          "time": 283.19999999999936,
          "velocity": 0.7874015748031497,
          "duration": 0.7043125000000146
        },
        {
          "name": "F#7",
          "midi": 102,
          "time": 283.19999999999936,
          "velocity": 0.7874015748031497,
          "duration": 0.7043125000000146
        },
        {
          "name": "D4",
          "midi": 62,
          "time": 283.9079999999994,
          "velocity": 0.7874015748031497,
          "duration": 0.08776249999999663
        },
        {
          "name": "F#4",
          "midi": 66,
          "time": 283.9079999999994,
          "velocity": 0.7874015748031497,
          "duration": 0.08776249999999663
        },
        {
          "name": "D5",
          "midi": 74,
          "time": 283.9079999999994,
          "velocity": 0.7874015748031497,
          "duration": 0.08776249999999663
        },
        {
          "name": "F#5",
          "midi": 78,
          "time": 283.9079999999994,
          "velocity": 0.7874015748031497,
          "duration": 0.08776249999999663
        },
        {
          "name": "D6",
          "midi": 86,
          "time": 283.9079999999994,
          "velocity": 0.7874015748031497,
          "duration": 0.7043125000000146
        },
        {
          "name": "F#6",
          "midi": 90,
          "time": 283.9079999999994,
          "velocity": 0.7874015748031497,
          "duration": 0.7043125000000146
        },
        {
          "name": "D7",
          "midi": 98,
          "time": 283.9079999999994,
          "velocity": 0.7874015748031497,
          "duration": 0.7043125000000146
        },
        {
          "name": "F#7",
          "midi": 102,
          "time": 283.9079999999994,
          "velocity": 0.7874015748031497,
          "duration": 0.7043125000000146
        },
        {
          "name": "D4",
          "midi": 62,
          "time": 284.6159999999994,
          "velocity": 0.7874015748031497,
          "duration": 0.04351250000001983
        },
        {
          "name": "F#4",
          "midi": 66,
          "time": 284.6159999999994,
          "velocity": 0.7874015748031497,
          "duration": 0.04351250000001983
        },
        {
          "name": "D#5",
          "midi": 75,
          "time": 284.6159999999994,
          "velocity": 0.7874015748031497,
          "duration": 0.04351250000001983
        },
        {
          "name": "F#5",
          "midi": 78,
          "time": 284.6159999999994,
          "velocity": 0.7874015748031497,
          "duration": 0.04351250000001983
        },
        {
          "name": "E6",
          "midi": 88,
          "time": 284.6159999999994,
          "velocity": 0.7874015748031497,
          "duration": 0.04351250000001983
        },
        {
          "name": "F#6",
          "midi": 90,
          "time": 284.6159999999994,
          "velocity": 0.7874015748031497,
          "duration": 0.04351250000001983
        },
        {
          "name": "E7",
          "midi": 100,
          "time": 284.6159999999994,
          "velocity": 0.7874015748031497,
          "duration": 0.04351250000001983
        },
        {
          "name": "F#7",
          "midi": 102,
          "time": 284.6159999999994,
          "velocity": 0.7874015748031497,
          "duration": 0.04351250000001983
        },
        {
          "name": "C#5",
          "midi": 73,
          "time": 284.79299999999944,
          "velocity": 0.7874015748031497,
          "duration": 0.04351250000001983
        },
        {
          "name": "F5",
          "midi": 77,
          "time": 284.79299999999944,
          "velocity": 0.7874015748031497,
          "duration": 0.04351250000001983
        },
        {
          "name": "D6",
          "midi": 86,
          "time": 284.79299999999944,
          "velocity": 0.7874015748031497,
          "duration": 0.04351250000001983
        },
        {
          "name": "F6",
          "midi": 89,
          "time": 284.79299999999944,
          "velocity": 0.7874015748031497,
          "duration": 0.04351250000001983
        },
        {
          "name": "D7",
          "midi": 98,
          "time": 284.79299999999944,
          "velocity": 0.7874015748031497,
          "duration": 0.04351250000001983
        },
        {
          "name": "F#7",
          "midi": 102,
          "time": 284.79299999999944,
          "velocity": 0.7874015748031497,
          "duration": 0.04351250000001983
        },
        {
          "name": "C#4",
          "midi": 61,
          "time": 284.96999999999946,
          "velocity": 0.7874015748031497,
          "duration": 0.04351250000001983
        },
        {
          "name": "F#4",
          "midi": 66,
          "time": 284.96999999999946,
          "velocity": 0.7874015748031497,
          "duration": 0.04351250000001983
        },
        {
          "name": "D5",
          "midi": 74,
          "time": 284.96999999999946,
          "velocity": 0.7874015748031497,
          "duration": 0.04351250000001983
        },
        {
          "name": "F5",
          "midi": 77,
          "time": 284.96999999999946,
          "velocity": 0.7874015748031497,
          "duration": 0.04351250000001983
        },
        {
          "name": "D#6",
          "midi": 87,
          "time": 284.96999999999946,
          "velocity": 0.7874015748031497,
          "duration": 0.04351250000001983
        },
        {
          "name": "F6",
          "midi": 89,
          "time": 284.96999999999946,
          "velocity": 0.7874015748031497,
          "duration": 0.04351250000001983
        },
        {
          "name": "D#7",
          "midi": 99,
          "time": 284.96999999999946,
          "velocity": 0.7874015748031497,
          "duration": 0.04351250000001983
        },
        {
          "name": "F#7",
          "midi": 102,
          "time": 284.96999999999946,
          "velocity": 0.7874015748031497,
          "duration": 0.04351250000001983
        },
        {
          "name": "D7",
          "midi": 98,
          "time": 285.1469999999995,
          "velocity": 0.7874015748031497,
          "duration": 0.04351250000001983
        },
        {
          "name": "F#7",
          "midi": 102,
          "time": 285.1469999999995,
          "velocity": 0.7874015748031497,
          "duration": 0.04351250000001983
        },
        {
          "name": "C#4",
          "midi": 61,
          "time": 285.3239999999995,
          "velocity": 0.7874015748031497,
          "duration": 0.04351250000001983
        },
        {
          "name": "F#4",
          "midi": 66,
          "time": 285.3239999999995,
          "velocity": 0.7874015748031497,
          "duration": 0.04351250000001983
        },
        {
          "name": "C#5",
          "midi": 73,
          "time": 285.3239999999995,
          "velocity": 0.7874015748031497,
          "duration": 0.04351250000001983
        },
        {
          "name": "F#5",
          "midi": 78,
          "time": 285.3239999999995,
          "velocity": 0.7874015748031497,
          "duration": 0.04351250000001983
        },
        {
          "name": "C#6",
          "midi": 85,
          "time": 285.3239999999995,
          "velocity": 0.7874015748031497,
          "duration": 0.04351250000001983
        },
        {
          "name": "F#6",
          "midi": 90,
          "time": 285.3239999999995,
          "velocity": 0.7874015748031497,
          "duration": 0.04351250000001983
        },
        {
          "name": "C#7",
          "midi": 97,
          "time": 285.3239999999995,
          "velocity": 0.7874015748031497,
          "duration": 0.04351250000001983
        },
        {
          "name": "F#7",
          "midi": 102,
          "time": 285.3239999999995,
          "velocity": 0.7874015748031497,
          "duration": 0.04351250000001983
        },
        {
          "name": "C4",
          "midi": 60,
          "time": 285.5009999999995,
          "velocity": 0.7874015748031497,
          "duration": 0.04351250000001983
        },
        {
          "name": "F4",
          "midi": 65,
          "time": 285.5009999999995,
          "velocity": 0.7874015748031497,
          "duration": 0.04351250000001983
        },
        {
          "name": "C5",
          "midi": 72,
          "time": 285.5009999999995,
          "velocity": 0.7874015748031497,
          "duration": 0.04351250000001983
        },
        {
          "name": "F5",
          "midi": 77,
          "time": 285.5009999999995,
          "velocity": 0.7874015748031497,
          "duration": 0.04351250000001983
        },
        {
          "name": "C6",
          "midi": 84,
          "time": 285.5009999999995,
          "velocity": 0.7874015748031497,
          "duration": 0.3525250000000142
        },
        {
          "name": "F6",
          "midi": 89,
          "time": 285.5009999999995,
          "velocity": 0.7874015748031497,
          "duration": 0.3525250000000142
        },
        {
          "name": "C7",
          "midi": 96,
          "time": 285.5009999999995,
          "velocity": 0.7874015748031497,
          "duration": 0.3525250000000142
        },
        {
          "name": "F#7",
          "midi": 102,
          "time": 285.5009999999995,
          "velocity": 0.7874015748031497,
          "duration": 0.3525250000000142
        },
        {
          "name": "D4",
          "midi": 62,
          "time": 285.8557374999995,
          "velocity": 0.7874015748031497,
          "duration": 0.04351250000001983
        },
        {
          "name": "F#4",
          "midi": 66,
          "time": 285.8557374999995,
          "velocity": 0.7874015748031497,
          "duration": 0.04351250000001983
        },
        {
          "name": "D#5",
          "midi": 75,
          "time": 285.8557374999995,
          "velocity": 0.7874015748031497,
          "duration": 0.04351250000001983
        },
        {
          "name": "F#5",
          "midi": 78,
          "time": 285.8557374999995,
          "velocity": 0.7874015748031497,
          "duration": 0.04351250000001983
        },
        {
          "name": "E6",
          "midi": 88,
          "time": 285.8557374999995,
          "velocity": 0.7874015748031497,
          "duration": 0.3510500000000434
        },
        {
          "name": "F#6",
          "midi": 90,
          "time": 285.8557374999995,
          "velocity": 0.7874015748031497,
          "duration": 0.3510500000000434
        },
        {
          "name": "E7",
          "midi": 100,
          "time": 285.8557374999995,
          "velocity": 0.7874015748031497,
          "duration": 0.3510500000000434
        },
        {
          "name": "F#7",
          "midi": 102,
          "time": 285.8557374999995,
          "velocity": 0.7874015748031497,
          "duration": 0.3510500000000434
        },
        {
          "name": "C#5",
          "midi": 73,
          "time": 286.2082624999996,
          "velocity": 0.7874015748031497,
          "duration": 0.04351250000001983
        },
        {
          "name": "F#5",
          "midi": 78,
          "time": 286.2082624999996,
          "velocity": 0.7874015748031497,
          "duration": 0.04351250000001983
        },
        {
          "name": "D6",
          "midi": 86,
          "time": 286.2082624999996,
          "velocity": 0.7874015748031497,
          "duration": 0.04351250000001983
        },
        {
          "name": "F#6",
          "midi": 90,
          "time": 286.2082624999996,
          "velocity": 0.7874015748031497,
          "duration": 0.04351250000001983
        },
        {
          "name": "D7",
          "midi": 98,
          "time": 286.2082624999996,
          "velocity": 0.7874015748031497,
          "duration": 0.04351250000001983
        },
        {
          "name": "F#7",
          "midi": 102,
          "time": 286.2082624999996,
          "velocity": 0.7874015748031497,
          "duration": 0.04351250000001983
        },
        {
          "name": "C#4",
          "midi": 61,
          "time": 286.3859999999996,
          "velocity": 0.7874015748031497,
          "duration": 0.04351250000001983
        },
        {
          "name": "F#4",
          "midi": 66,
          "time": 286.3859999999996,
          "velocity": 0.7874015748031497,
          "duration": 0.04351250000001983
        },
        {
          "name": "D5",
          "midi": 74,
          "time": 286.3859999999996,
          "velocity": 0.7874015748031497,
          "duration": 0.04351250000001983
        },
        {
          "name": "F5",
          "midi": 77,
          "time": 286.3859999999996,
          "velocity": 0.7874015748031497,
          "duration": 0.04351250000001983
        },
        {
          "name": "D#6",
          "midi": 87,
          "time": 286.3859999999996,
          "velocity": 0.7874015748031497,
          "duration": 0.04351250000001983
        },
        {
          "name": "F6",
          "midi": 89,
          "time": 286.3859999999996,
          "velocity": 0.7874015748031497,
          "duration": 0.04351250000001983
        },
        {
          "name": "D#7",
          "midi": 99,
          "time": 286.3859999999996,
          "velocity": 0.7874015748031497,
          "duration": 0.04351250000001983
        },
        {
          "name": "F#7",
          "midi": 102,
          "time": 286.3859999999996,
          "velocity": 0.7874015748031497,
          "duration": 0.04351250000001983
        },
        {
          "name": "D7",
          "midi": 98,
          "time": 286.56299999999965,
          "velocity": 0.7874015748031497,
          "duration": 0.04351250000001983
        },
        {
          "name": "F#7",
          "midi": 102,
          "time": 286.56299999999965,
          "velocity": 0.7874015748031497,
          "duration": 0.04351250000001983
        },
        {
          "name": "C4",
          "midi": 60,
          "time": 286.73999999999967,
          "velocity": 0.7874015748031497,
          "duration": 0.04351250000001983
        },
        {
          "name": "F#4",
          "midi": 66,
          "time": 286.73999999999967,
          "velocity": 0.7874015748031497,
          "duration": 0.04351250000001983
        },
        {
          "name": "C#5",
          "midi": 73,
          "time": 286.73999999999967,
          "velocity": 0.7874015748031497,
          "duration": 0.04351250000001983
        },
        {
          "name": "F#5",
          "midi": 78,
          "time": 286.73999999999967,
          "velocity": 0.7874015748031497,
          "duration": 0.04351250000001983
        },
        {
          "name": "C#6",
          "midi": 85,
          "time": 286.73999999999967,
          "velocity": 0.7874015748031497,
          "duration": 0.04351250000001983
        },
        {
          "name": "F#6",
          "midi": 90,
          "time": 286.73999999999967,
          "velocity": 0.7874015748031497,
          "duration": 0.04351250000001983
        },
        {
          "name": "C#7",
          "midi": 97,
          "time": 286.73999999999967,
          "velocity": 0.7874015748031497,
          "duration": 0.04351250000001983
        },
        {
          "name": "F#7",
          "midi": 102,
          "time": 286.73999999999967,
          "velocity": 0.7874015748031497,
          "duration": 0.04351250000001983
        },
        {
          "name": "C6",
          "midi": 84,
          "time": 286.9177374999997,
          "velocity": 0.7874015748031497,
          "duration": 0.042775000000006
        },
        {
          "name": "F6",
          "midi": 89,
          "time": 286.9177374999997,
          "velocity": 0.7874015748031497,
          "duration": 0.042775000000006
        },
        {
          "name": "C7",
          "midi": 96,
          "time": 286.9177374999997,
          "velocity": 0.7874015748031497,
          "duration": 0.042775000000006
        },
        {
          "name": "F#7",
          "midi": 102,
          "time": 286.9177374999997,
          "velocity": 0.7874015748031497,
          "duration": 0.042775000000006
        },
        {
          "name": "D4",
          "midi": 62,
          "time": 287.0939999999997,
          "velocity": 0.7874015748031497,
          "duration": 0.04424999999997681
        },
        {
          "name": "F#4",
          "midi": 66,
          "time": 287.0939999999997,
          "velocity": 0.7874015748031497,
          "duration": 0.04424999999997681
        },
        {
          "name": "D#5",
          "midi": 75,
          "time": 287.0939999999997,
          "velocity": 0.7874015748031497,
          "duration": 0.04424999999997681
        },
        {
          "name": "F#5",
          "midi": 78,
          "time": 287.0939999999997,
          "velocity": 0.7874015748031497,
          "duration": 0.04424999999997681
        },
        {
          "name": "E6",
          "midi": 88,
          "time": 287.0939999999997,
          "velocity": 0.7874015748031497,
          "duration": 0.04424999999997681
        },
        {
          "name": "F#6",
          "midi": 90,
          "time": 287.0939999999997,
          "velocity": 0.7874015748031497,
          "duration": 0.04424999999997681
        },
        {
          "name": "E7",
          "midi": 100,
          "time": 287.0939999999997,
          "velocity": 0.7874015748031497,
          "duration": 0.04424999999997681
        },
        {
          "name": "F#7",
          "midi": 102,
          "time": 287.0939999999997,
          "velocity": 0.7874015748031497,
          "duration": 0.04424999999997681
        },
        {
          "name": "C#5",
          "midi": 73,
          "time": 287.2709999999997,
          "velocity": 0.7874015748031497,
          "duration": 0.04424999999997681
        },
        {
          "name": "F5",
          "midi": 77,
          "time": 287.2709999999997,
          "velocity": 0.7874015748031497,
          "duration": 0.04424999999997681
        },
        {
          "name": "D6",
          "midi": 86,
          "time": 287.2709999999997,
          "velocity": 0.7874015748031497,
          "duration": 0.04424999999997681
        },
        {
          "name": "F6",
          "midi": 89,
          "time": 287.2709999999997,
          "velocity": 0.7874015748031497,
          "duration": 0.04424999999997681
        },
        {
          "name": "D7",
          "midi": 98,
          "time": 287.2709999999997,
          "velocity": 0.7874015748031497,
          "duration": 0.04424999999997681
        },
        {
          "name": "F#7",
          "midi": 102,
          "time": 287.2709999999997,
          "velocity": 0.7874015748031497,
          "duration": 0.04424999999997681
        },
        {
          "name": "C#4",
          "midi": 61,
          "time": 287.44799999999964,
          "velocity": 0.7874015748031497,
          "duration": 0.04351250000001983
        },
        {
          "name": "F#4",
          "midi": 66,
          "time": 287.44799999999964,
          "velocity": 0.7874015748031497,
          "duration": 0.04351250000001983
        },
        {
          "name": "D5",
          "midi": 74,
          "time": 287.44799999999964,
          "velocity": 0.7874015748031497,
          "duration": 0.04351250000001983
        },
        {
          "name": "F5",
          "midi": 77,
          "time": 287.44799999999964,
          "velocity": 0.7874015748031497,
          "duration": 0.04351250000001983
        },
        {
          "name": "D#6",
          "midi": 87,
          "time": 287.44799999999964,
          "velocity": 0.7874015748031497,
          "duration": 0.04351250000001983
        },
        {
          "name": "F6",
          "midi": 89,
          "time": 287.44799999999964,
          "velocity": 0.7874015748031497,
          "duration": 0.04351250000001983
        },
        {
          "name": "D#7",
          "midi": 99,
          "time": 287.44799999999964,
          "velocity": 0.7874015748031497,
          "duration": 0.04351250000001983
        },
        {
          "name": "F#7",
          "midi": 102,
          "time": 287.44799999999964,
          "velocity": 0.7874015748031497,
          "duration": 0.04351250000001983
        },
        {
          "name": "D7",
          "midi": 98,
          "time": 287.62499999999966,
          "velocity": 0.7874015748031497,
          "duration": 0.04351250000001983
        },
        {
          "name": "F#7",
          "midi": 102,
          "time": 287.62499999999966,
          "velocity": 0.7874015748031497,
          "duration": 0.04351250000001983
        },
        {
          "name": "C#4",
          "midi": 61,
          "time": 287.8019999999997,
          "velocity": 0.7874015748031497,
          "duration": 0.04424999999997681
        },
        {
          "name": "F#4",
          "midi": 66,
          "time": 287.8019999999997,
          "velocity": 0.7874015748031497,
          "duration": 0.04424999999997681
        },
        {
          "name": "C#5",
          "midi": 73,
          "time": 287.8019999999997,
          "velocity": 0.7874015748031497,
          "duration": 0.04424999999997681
        },
        {
          "name": "F#5",
          "midi": 78,
          "time": 287.8019999999997,
          "velocity": 0.7874015748031497,
          "duration": 0.04424999999997681
        },
        {
          "name": "D6",
          "midi": 86,
          "time": 287.8019999999997,
          "velocity": 0.7874015748031497,
          "duration": 0.04424999999997681
        },
        {
          "name": "F#6",
          "midi": 90,
          "time": 287.8019999999997,
          "velocity": 0.7874015748031497,
          "duration": 0.04424999999997681
        },
        {
          "name": "C#7",
          "midi": 97,
          "time": 287.8019999999997,
          "velocity": 0.7874015748031497,
          "duration": 0.04424999999997681
        },
        {
          "name": "F#7",
          "midi": 102,
          "time": 287.8019999999997,
          "velocity": 0.7874015748031497,
          "duration": 0.04424999999997681
        },
        {
          "name": "D7",
          "midi": 98,
          "time": 287.8683749999997,
          "velocity": 0.7874015748031497,
          "duration": 0.04351250000001983
        },
        {
          "name": "F7",
          "midi": 101,
          "time": 287.8683749999997,
          "velocity": 0.7874015748031497,
          "duration": 0.04351250000001983
        },
        {
          "name": "C4",
          "midi": 60,
          "time": 287.9797374999997,
          "velocity": 0.7874015748031497,
          "duration": 0.04351250000001983
        },
        {
          "name": "F4",
          "midi": 65,
          "time": 287.9797374999997,
          "velocity": 0.7874015748031497,
          "duration": 0.04351250000001983
        },
        {
          "name": "C5",
          "midi": 72,
          "time": 287.9797374999997,
          "velocity": 0.7874015748031497,
          "duration": 0.04351250000001983
        },
        {
          "name": "F5",
          "midi": 77,
          "time": 287.9797374999997,
          "velocity": 0.7874015748031497,
          "duration": 0.04351250000001983
        },
        {
          "name": "C#6",
          "midi": 85,
          "time": 287.9797374999997,
          "velocity": 0.7874015748031497,
          "duration": 0.04351250000001983
        },
        {
          "name": "F6",
          "midi": 89,
          "time": 287.9797374999997,
          "velocity": 0.7874015748031497,
          "duration": 0.04351250000001983
        },
        {
          "name": "C#7",
          "midi": 97,
          "time": 287.9797374999997,
          "velocity": 0.7874015748031497,
          "duration": 0.04351250000001983
        },
        {
          "name": "F#7",
          "midi": 102,
          "time": 287.9797374999997,
          "velocity": 0.7874015748031497,
          "duration": 0.04351250000001983
        },
        {
          "name": "C7",
          "midi": 96,
          "time": 288.1559999999997,
          "velocity": 0.7874015748031497,
          "duration": 0.04424999999997681
        },
        {
          "name": "F#7",
          "midi": 102,
          "time": 288.1559999999997,
          "velocity": 0.7874015748031497,
          "duration": 0.04424999999997681
        },
        {
          "name": "C4",
          "midi": 60,
          "time": 288.3329999999997,
          "velocity": 0.7874015748031497,
          "duration": 0.04424999999997681
        },
        {
          "name": "F#4",
          "midi": 66,
          "time": 288.3329999999997,
          "velocity": 0.7874015748031497,
          "duration": 0.04424999999997681
        },
        {
          "name": "C5",
          "midi": 72,
          "time": 288.3329999999997,
          "velocity": 0.7874015748031497,
          "duration": 0.04424999999997681
        },
        {
          "name": "C6",
          "midi": 84,
          "time": 288.3329999999997,
          "velocity": 0.7874015748031497,
          "duration": 0.35178750000000036
        },
        {
          "name": "C7",
          "midi": 96,
          "time": 288.3329999999997,
          "velocity": 0.7874015748031497,
          "duration": 0.35178750000000036
        },
        {
          "name": "C#4",
          "midi": 61,
          "time": 288.68699999999967,
          "velocity": 0.7874015748031497,
          "duration": 0.04424999999997681
        },
        {
          "name": "F#4",
          "midi": 66,
          "time": 288.68699999999967,
          "velocity": 0.7874015748031497,
          "duration": 0.04424999999997681
        },
        {
          "name": "C5",
          "midi": 72,
          "time": 288.68699999999967,
          "velocity": 0.7874015748031497,
          "duration": 0.04424999999997681
        },
        {
          "name": "F#5",
          "midi": 78,
          "time": 288.68699999999967,
          "velocity": 0.7874015748031497,
          "duration": 0.04424999999997681
        },
        {
          "name": "C6",
          "midi": 84,
          "time": 288.68699999999967,
          "velocity": 0.7874015748031497,
          "duration": 0.35252499999995734
        },
        {
          "name": "F#6",
          "midi": 90,
          "time": 288.68699999999967,
          "velocity": 0.7874015748031497,
          "duration": 0.35252499999995734
        },
        {
          "name": "C7",
          "midi": 96,
          "time": 288.68699999999967,
          "velocity": 0.7874015748031497,
          "duration": 0.35252499999995734
        },
        {
          "name": "F#7",
          "midi": 102,
          "time": 288.68699999999967,
          "velocity": 0.7874015748031497,
          "duration": 0.35252499999995734
        },
        {
          "name": "C#4",
          "midi": 61,
          "time": 289.0417374999996,
          "velocity": 0.7874015748031497,
          "duration": 0.04351250000001983
        },
        {
          "name": "F#4",
          "midi": 66,
          "time": 289.0417374999996,
          "velocity": 0.7874015748031497,
          "duration": 0.04351250000001983
        },
        {
          "name": "C#5",
          "midi": 73,
          "time": 289.0417374999996,
          "velocity": 0.7874015748031497,
          "duration": 0.04351250000001983
        },
        {
          "name": "F#5",
          "midi": 78,
          "time": 289.0417374999996,
          "velocity": 0.7874015748031497,
          "duration": 0.04351250000001983
        },
        {
          "name": "C#6",
          "midi": 85,
          "time": 289.0417374999996,
          "velocity": 0.7874015748031497,
          "duration": 0.3510500000000434
        },
        {
          "name": "F#6",
          "midi": 90,
          "time": 289.0417374999996,
          "velocity": 0.7874015748031497,
          "duration": 0.3510500000000434
        },
        {
          "name": "C#7",
          "midi": 97,
          "time": 289.0417374999996,
          "velocity": 0.7874015748031497,
          "duration": 0.3510500000000434
        },
        {
          "name": "F#7",
          "midi": 102,
          "time": 289.0417374999996,
          "velocity": 0.7874015748031497,
          "duration": 0.3510500000000434
        },
        {
          "name": "D4",
          "midi": 62,
          "time": 289.39499999999964,
          "velocity": 0.7874015748031497,
          "duration": 0.04424999999997681
        },
        {
          "name": "F#4",
          "midi": 66,
          "time": 289.39499999999964,
          "velocity": 0.7874015748031497,
          "duration": 0.04424999999997681
        },
        {
          "name": "D5",
          "midi": 74,
          "time": 289.39499999999964,
          "velocity": 0.7874015748031497,
          "duration": 0.04424999999997681
        },
        {
          "name": "F#5",
          "midi": 78,
          "time": 289.39499999999964,
          "velocity": 0.7874015748031497,
          "duration": 0.04424999999997681
        },
        {
          "name": "D6",
          "midi": 86,
          "time": 289.39499999999964,
          "velocity": 0.7874015748031497,
          "duration": 0.35178750000000036
        },
        {
          "name": "F#6",
          "midi": 90,
          "time": 289.39499999999964,
          "velocity": 0.7874015748031497,
          "duration": 0.35178750000000036
        },
        {
          "name": "D7",
          "midi": 98,
          "time": 289.39499999999964,
          "velocity": 0.7874015748031497,
          "duration": 0.35178750000000036
        },
        {
          "name": "F#7",
          "midi": 102,
          "time": 289.39499999999964,
          "velocity": 0.7874015748031497,
          "duration": 0.35178750000000036
        },
        {
          "name": "C4",
          "midi": 60,
          "time": 289.7489999999996,
          "velocity": 0.7874015748031497,
          "duration": 0.04424999999997681
        },
        {
          "name": "F#4",
          "midi": 66,
          "time": 289.7489999999996,
          "velocity": 0.7874015748031497,
          "duration": 0.04424999999997681
        },
        {
          "name": "C5",
          "midi": 72,
          "time": 289.7489999999996,
          "velocity": 0.7874015748031497,
          "duration": 0.04424999999997681
        },
        {
          "name": "C6",
          "midi": 84,
          "time": 289.7489999999996,
          "velocity": 0.7874015748031497,
          "duration": 0.04424999999997681
        },
        {
          "name": "C7",
          "midi": 96,
          "time": 289.7489999999996,
          "velocity": 0.7874015748031497,
          "duration": 0.04424999999997681
        },
        {
          "name": "C5",
          "midi": 72,
          "time": 289.9259999999996,
          "velocity": 0.7874015748031497,
          "duration": 0.04351250000001983
        },
        {
          "name": "C6",
          "midi": 84,
          "time": 289.9259999999996,
          "velocity": 0.7874015748031497,
          "duration": 0.35178750000000036
        },
        {
          "name": "C7",
          "midi": 96,
          "time": 289.9259999999996,
          "velocity": 0.7874015748031497,
          "duration": 0.35178750000000036
        },
        {
          "name": "C6",
          "midi": 84,
          "time": 290.2799999999996,
          "velocity": 0.7874015748031497,
          "duration": 0.04424999999997681
        },
        {
          "name": "C7",
          "midi": 96,
          "time": 290.2799999999996,
          "velocity": 0.7874015748031497,
          "duration": 0.04424999999997681
        },
        {
          "name": "C#4",
          "midi": 61,
          "time": 290.45699999999954,
          "velocity": 0.7874015748031497,
          "duration": 2.0347624999999994
        },
        {
          "name": "F#4",
          "midi": 66,
          "time": 290.45699999999954,
          "velocity": 0.7874015748031497,
          "duration": 2.0347624999999994
        },
        {
          "name": "D5",
          "midi": 74,
          "time": 290.45699999999954,
          "velocity": 0.7874015748031497,
          "duration": 2.0347624999999994
        },
        {
          "name": "F#5",
          "midi": 78,
          "time": 290.45699999999954,
          "velocity": 0.7874015748031497,
          "duration": 2.0347624999999994
        },
        {
          "name": "D6",
          "midi": 86,
          "time": 290.45699999999954,
          "velocity": 0.7874015748031497,
          "duration": 2.0347624999999994
        },
        {
          "name": "F#6",
          "midi": 90,
          "time": 290.45699999999954,
          "velocity": 0.7874015748031497,
          "duration": 2.0347624999999994
        },
        {
          "name": "D7",
          "midi": 98,
          "time": 290.45699999999954,
          "velocity": 0.7874015748031497,
          "duration": 2.0347624999999994
        },
        {
          "name": "F#7",
          "midi": 102,
          "time": 290.45699999999954,
          "velocity": 0.7874015748031497,
          "duration": 2.0347624999999994
        }
      ],
      "controlChanges": {},
      "id": 3,
      "name": "PART BASS",
      "channelNumber": 0,
      "isPercussion": false
    },
    {
      "startTime": 2.8320000000000003,
      "duration": 290.45773750001416,
      "length": 6120,
      "notes": [
        {
          "name": "E4",
          "midi": 64,
          "time": 2.8320000000000003,
          "velocity": 0.7874015748031497,
          "duration": 0.0007375000000000576
        },
        {
          "name": "C5",
          "midi": 72,
          "time": 2.8320000000000003,
          "velocity": 0.7874015748031497,
          "duration": 0.0007375000000000576
        },
        {
          "name": "E5",
          "midi": 76,
          "time": 2.8320000000000003,
          "velocity": 0.7874015748031497,
          "duration": 0.0007375000000000576
        },
        {
          "name": "C6",
          "midi": 84,
          "time": 2.8320000000000003,
          "velocity": 0.7874015748031497,
          "duration": 0.0007375000000000576
        },
        {
          "name": "E6",
          "midi": 88,
          "time": 2.8320000000000003,
          "velocity": 0.7874015748031497,
          "duration": 0.0007375000000000576
        },
        {
          "name": "C7",
          "midi": 96,
          "time": 2.8320000000000003,
          "velocity": 0.7874015748031497,
          "duration": 0.0007375000000000576
        },
        {
          "name": "E7",
          "midi": 100,
          "time": 2.8320000000000003,
          "velocity": 0.7874015748031497,
          "duration": 0.0007375000000000576
        },
        {
          "name": "D4",
          "midi": 62,
          "time": 3.1860000000000004,
          "velocity": 0.7874015748031497,
          "duration": 0.0007375000000000576
        },
        {
          "name": "D5",
          "midi": 74,
          "time": 3.1860000000000004,
          "velocity": 0.7874015748031497,
          "duration": 0.0007375000000000576
        },
        {
          "name": "D6",
          "midi": 86,
          "time": 3.1860000000000004,
          "velocity": 0.7874015748031497,
          "duration": 0.0007375000000000576
        },
        {
          "name": "D7",
          "midi": 98,
          "time": 3.1860000000000004,
          "velocity": 0.7874015748031497,
          "duration": 0.0007375000000000576
        },
        {
          "name": "C#4",
          "midi": 61,
          "time": 3.5400000000000005,
          "velocity": 0.7874015748031497,
          "duration": 0.0007375000000000576
        },
        {
          "name": "C#5",
          "midi": 73,
          "time": 3.5400000000000005,
          "velocity": 0.7874015748031497,
          "duration": 0.0007375000000000576
        },
        {
          "name": "D5",
          "midi": 74,
          "time": 3.5400000000000005,
          "velocity": 0.7874015748031497,
          "duration": 0.0007375000000000576
        },
        {
          "name": "C#6",
          "midi": 85,
          "time": 3.5400000000000005,
          "velocity": 0.7874015748031497,
          "duration": 0.0007375000000000576
        },
        {
          "name": "D6",
          "midi": 86,
          "time": 3.5400000000000005,
          "velocity": 0.7874015748031497,
          "duration": 0.0007375000000000576
        },
        {
          "name": "C#7",
          "midi": 97,
          "time": 3.5400000000000005,
          "velocity": 0.7874015748031497,
          "duration": 0.0007375000000000576
        },
        {
          "name": "D7",
          "midi": 98,
          "time": 3.5400000000000005,
          "velocity": 0.7874015748031497,
          "duration": 0.0007375000000000576
        },
        {
          "name": "D7",
          "midi": 98,
          "time": 3.7170000000000005,
          "velocity": 0.7874015748031497,
          "duration": 0.0007375000000000576
        },
        {
          "name": "D4",
          "midi": 62,
          "time": 3.8940000000000006,
          "velocity": 0.7874015748031497,
          "duration": 0.0007375000000000576
        },
        {
          "name": "D5",
          "midi": 74,
          "time": 3.8940000000000006,
          "velocity": 0.7874015748031497,
          "duration": 0.0007375000000000576
        },
        {
          "name": "D6",
          "midi": 86,
          "time": 3.8940000000000006,
          "velocity": 0.7874015748031497,
          "duration": 0.0007375000000000576
        },
        {
          "name": "D7",
          "midi": 98,
          "time": 3.8940000000000006,
          "velocity": 0.7874015748031497,
          "duration": 0.0007375000000000576
        },
        {
          "name": "D7",
          "midi": 98,
          "time": 4.071000000000001,
          "velocity": 0.7874015748031497,
          "duration": 0.0007374999999996135
        },
        {
          "name": "D4",
          "midi": 62,
          "time": 4.248,
          "velocity": 0.7874015748031497,
          "duration": 0.0007374999999996135
        },
        {
          "name": "D5",
          "midi": 74,
          "time": 4.248,
          "velocity": 0.7874015748031497,
          "duration": 0.0007374999999996135
        },
        {
          "name": "D6",
          "midi": 86,
          "time": 4.248,
          "velocity": 0.7874015748031497,
          "duration": 0.0007374999999996135
        },
        {
          "name": "D7",
          "midi": 98,
          "time": 4.248,
          "velocity": 0.7874015748031497,
          "duration": 0.0007374999999996135
        },
        {
          "name": "D7",
          "midi": 98,
          "time": 4.425737499999999,
          "velocity": 0.7874015748031497,
          "duration": 0.0007374999999996135
        },
        {
          "name": "D4",
          "midi": 62,
          "time": 4.601999999999999,
          "velocity": 0.7874015748031497,
          "duration": 0.0007374999999996135
        },
        {
          "name": "C5",
          "midi": 72,
          "time": 4.601999999999999,
          "velocity": 0.7874015748031497,
          "duration": 0.0007374999999996135
        },
        {
          "name": "D5",
          "midi": 74,
          "time": 4.601999999999999,
          "velocity": 0.7874015748031497,
          "duration": 0.0007374999999996135
        },
        {
          "name": "C6",
          "midi": 84,
          "time": 4.601999999999999,
          "velocity": 0.7874015748031497,
          "duration": 0.0007374999999996135
        },
        {
          "name": "D6",
          "midi": 86,
          "time": 4.601999999999999,
          "velocity": 0.7874015748031497,
          "duration": 0.0007374999999996135
        },
        {
          "name": "C7",
          "midi": 96,
          "time": 4.601999999999999,
          "velocity": 0.7874015748031497,
          "duration": 0.0007374999999996135
        },
        {
          "name": "D7",
          "midi": 98,
          "time": 4.601999999999999,
          "velocity": 0.7874015748031497,
          "duration": 0.0007374999999996135
        },
        {
          "name": "D7",
          "midi": 98,
          "time": 4.778999999999999,
          "velocity": 0.7874015748031497,
          "duration": 0.0007374999999996135
        },
        {
          "name": "C#4",
          "midi": 61,
          "time": 4.955999999999999,
          "velocity": 0.7874015748031497,
          "duration": 0.0007374999999996135
        },
        {
          "name": "C#5",
          "midi": 73,
          "time": 4.955999999999999,
          "velocity": 0.7874015748031497,
          "duration": 0.0007374999999996135
        },
        {
          "name": "D5",
          "midi": 74,
          "time": 4.955999999999999,
          "velocity": 0.7874015748031497,
          "duration": 0.0007374999999996135
        },
        {
          "name": "C#6",
          "midi": 85,
          "time": 4.955999999999999,
          "velocity": 0.7874015748031497,
          "duration": 0.0007374999999996135
        },
        {
          "name": "D6",
          "midi": 86,
          "time": 4.955999999999999,
          "velocity": 0.7874015748031497,
          "duration": 0.0007374999999996135
        },
        {
          "name": "C#7",
          "midi": 97,
          "time": 4.955999999999999,
          "velocity": 0.7874015748031497,
          "duration": 0.0007374999999996135
        },
        {
          "name": "D7",
          "midi": 98,
          "time": 4.955999999999999,
          "velocity": 0.7874015748031497,
          "duration": 0.0007374999999996135
        },
        {
          "name": "D7",
          "midi": 98,
          "time": 5.132999999999998,
          "velocity": 0.7874015748031497,
          "duration": 0.0007374999999996135
        },
        {
          "name": "D4",
          "midi": 62,
          "time": 5.309999999999998,
          "velocity": 0.7874015748031497,
          "duration": 0.0007374999999996135
        },
        {
          "name": "D5",
          "midi": 74,
          "time": 5.309999999999998,
          "velocity": 0.7874015748031497,
          "duration": 0.0007374999999996135
        },
        {
          "name": "D6",
          "midi": 86,
          "time": 5.309999999999998,
          "velocity": 0.7874015748031497,
          "duration": 0.0007374999999996135
        },
        {
          "name": "D7",
          "midi": 98,
          "time": 5.309999999999998,
          "velocity": 0.7874015748031497,
          "duration": 0.0007374999999996135
        },
        {
          "name": "D7",
          "midi": 98,
          "time": 5.486262499999998,
          "velocity": 0.7874015748031497,
          "duration": 0.0007374999999996135
        },
        {
          "name": "C4",
          "midi": 60,
          "time": 5.663999999999997,
          "velocity": 0.7874015748031497,
          "duration": 0.0007374999999996135
        },
        {
          "name": "C5",
          "midi": 72,
          "time": 5.663999999999997,
          "velocity": 0.7874015748031497,
          "duration": 0.0007374999999996135
        },
        {
          "name": "D5",
          "midi": 74,
          "time": 5.663999999999997,
          "velocity": 0.7874015748031497,
          "duration": 0.0007374999999996135
        },
        {
          "name": "C6",
          "midi": 84,
          "time": 5.663999999999997,
          "velocity": 0.7874015748031497,
          "duration": 0.0007374999999996135
        },
        {
          "name": "D6",
          "midi": 86,
          "time": 5.663999999999997,
          "velocity": 0.7874015748031497,
          "duration": 0.0007374999999996135
        },
        {
          "name": "C7",
          "midi": 96,
          "time": 5.663999999999997,
          "velocity": 0.7874015748031497,
          "duration": 0.0007374999999996135
        },
        {
          "name": "D7",
          "midi": 98,
          "time": 5.663999999999997,
          "velocity": 0.7874015748031497,
          "duration": 0.0007374999999996135
        },
        {
          "name": "D7",
          "midi": 98,
          "time": 5.840999999999997,
          "velocity": 0.7874015748031497,
          "duration": 0.0007374999999996135
        },
        {
          "name": "D4",
          "midi": 62,
          "time": 6.017999999999996,
          "velocity": 0.7874015748031497,
          "duration": 0.0007374999999996135
        },
        {
          "name": "D5",
          "midi": 74,
          "time": 6.017999999999996,
          "velocity": 0.7874015748031497,
          "duration": 0.0007374999999996135
        },
        {
          "name": "D6",
          "midi": 86,
          "time": 6.017999999999996,
          "velocity": 0.7874015748031497,
          "duration": 0.0007374999999996135
        },
        {
          "name": "D7",
          "midi": 98,
          "time": 6.017999999999996,
          "velocity": 0.7874015748031497,
          "duration": 0.0007374999999996135
        },
        {
          "name": "D7",
          "midi": 98,
          "time": 6.194262499999996,
          "velocity": 0.7874015748031497,
          "duration": 0.0007374999999996135
        },
        {
          "name": "C#4",
          "midi": 61,
          "time": 6.3719999999999954,
          "velocity": 0.7874015748031497,
          "duration": 0.0007374999999996135
        },
        {
          "name": "C#5",
          "midi": 73,
          "time": 6.3719999999999954,
          "velocity": 0.7874015748031497,
          "duration": 0.0007374999999996135
        },
        {
          "name": "D5",
          "midi": 74,
          "time": 6.3719999999999954,
          "velocity": 0.7874015748031497,
          "duration": 0.0007374999999996135
        },
        {
          "name": "C#6",
          "midi": 85,
          "time": 6.3719999999999954,
          "velocity": 0.7874015748031497,
          "duration": 0.0007374999999996135
        },
        {
          "name": "D6",
          "midi": 86,
          "time": 6.3719999999999954,
          "velocity": 0.7874015748031497,
          "duration": 0.0007374999999996135
        },
        {
          "name": "C#7",
          "midi": 97,
          "time": 6.3719999999999954,
          "velocity": 0.7874015748031497,
          "duration": 0.0007374999999996135
        },
        {
          "name": "D7",
          "midi": 98,
          "time": 6.3719999999999954,
          "velocity": 0.7874015748031497,
          "duration": 0.0007374999999996135
        },
        {
          "name": "D7",
          "midi": 98,
          "time": 6.548999999999995,
          "velocity": 0.7874015748031497,
          "duration": 0.0007374999999996135
        },
        {
          "name": "D4",
          "midi": 62,
          "time": 6.725999999999995,
          "velocity": 0.7874015748031497,
          "duration": 0.0007374999999996135
        },
        {
          "name": "D5",
          "midi": 74,
          "time": 6.725999999999995,
          "velocity": 0.7874015748031497,
          "duration": 0.0007374999999996135
        },
        {
          "name": "D6",
          "midi": 86,
          "time": 6.725999999999995,
          "velocity": 0.7874015748031497,
          "duration": 0.0007374999999996135
        },
        {
          "name": "D7",
          "midi": 98,
          "time": 6.725999999999995,
          "velocity": 0.7874015748031497,
          "duration": 0.0007374999999996135
        },
        {
          "name": "D7",
          "midi": 98,
          "time": 6.902999999999994,
          "velocity": 0.7874015748031497,
          "duration": 0.0007374999999996135
        },
        {
          "name": "D4",
          "midi": 62,
          "time": 7.079999999999994,
          "velocity": 0.7874015748031497,
          "duration": 0.0007374999999996135
        },
        {
          "name": "D5",
          "midi": 74,
          "time": 7.079999999999994,
          "velocity": 0.7874015748031497,
          "duration": 0.0007374999999996135
        },
        {
          "name": "D6",
          "midi": 86,
          "time": 7.079999999999994,
          "velocity": 0.7874015748031497,
          "duration": 0.0007374999999996135
        },
        {
          "name": "D7",
          "midi": 98,
          "time": 7.079999999999994,
          "velocity": 0.7874015748031497,
          "duration": 0.0007374999999996135
        },
        {
          "name": "D7",
          "midi": 98,
          "time": 7.2569999999999935,
          "velocity": 0.7874015748031497,
          "duration": 0.0007374999999996135
        },
        {
          "name": "D4",
          "midi": 62,
          "time": 7.433999999999993,
          "velocity": 0.7874015748031497,
          "duration": 0.0007374999999996135
        },
        {
          "name": "C5",
          "midi": 72,
          "time": 7.433999999999993,
          "velocity": 0.7874015748031497,
          "duration": 0.0007374999999996135
        },
        {
          "name": "D5",
          "midi": 74,
          "time": 7.433999999999993,
          "velocity": 0.7874015748031497,
          "duration": 0.0007374999999996135
        },
        {
          "name": "C6",
          "midi": 84,
          "time": 7.433999999999993,
          "velocity": 0.7874015748031497,
          "duration": 0.0007374999999996135
        },
        {
          "name": "D6",
          "midi": 86,
          "time": 7.433999999999993,
          "velocity": 0.7874015748031497,
          "duration": 0.0007374999999996135
        },
        {
          "name": "C7",
          "midi": 96,
          "time": 7.433999999999993,
          "velocity": 0.7874015748031497,
          "duration": 0.0007374999999996135
        },
        {
          "name": "D7",
          "midi": 98,
          "time": 7.433999999999993,
          "velocity": 0.7874015748031497,
          "duration": 0.0007374999999996135
        },
        {
          "name": "D7",
          "midi": 98,
          "time": 7.610999999999993,
          "velocity": 0.7874015748031497,
          "duration": 0.0007374999999996135
        },
        {
          "name": "C#4",
          "midi": 61,
          "time": 7.787999999999992,
          "velocity": 0.7874015748031497,
          "duration": 0.0007374999999996135
        },
        {
          "name": "C#5",
          "midi": 73,
          "time": 7.787999999999992,
          "velocity": 0.7874015748031497,
          "duration": 0.0007374999999996135
        },
        {
          "name": "D5",
          "midi": 74,
          "time": 7.787999999999992,
          "velocity": 0.7874015748031497,
          "duration": 0.0007374999999996135
        },
        {
          "name": "C#6",
          "midi": 85,
          "time": 7.787999999999992,
          "velocity": 0.7874015748031497,
          "duration": 0.0007374999999996135
        },
        {
          "name": "D6",
          "midi": 86,
          "time": 7.787999999999992,
          "velocity": 0.7874015748031497,
          "duration": 0.0007374999999996135
        },
        {
          "name": "C#7",
          "midi": 97,
          "time": 7.787999999999992,
          "velocity": 0.7874015748031497,
          "duration": 0.0007374999999996135
        },
        {
          "name": "D7",
          "midi": 98,
          "time": 7.787999999999992,
          "velocity": 0.7874015748031497,
          "duration": 0.0007374999999996135
        },
        {
          "name": "C6",
          "midi": 84,
          "time": 7.964999999999992,
          "velocity": 0.7874015748031497,
          "duration": 0.0007374999999996135
        },
        {
          "name": "D6",
          "midi": 86,
          "time": 7.964999999999992,
          "velocity": 0.7874015748031497,
          "duration": 0.0007374999999996135
        },
        {
          "name": "C7",
          "midi": 96,
          "time": 7.964999999999992,
          "velocity": 0.7874015748031497,
          "duration": 0.0007374999999996135
        },
        {
          "name": "D7",
          "midi": 98,
          "time": 7.964999999999992,
          "velocity": 0.7874015748031497,
          "duration": 0.0007374999999996135
        },
        {
          "name": "D4",
          "midi": 62,
          "time": 8.141999999999992,
          "velocity": 0.7874015748031497,
          "duration": 0.0007374999999996135
        },
        {
          "name": "D5",
          "midi": 74,
          "time": 8.141999999999992,
          "velocity": 0.7874015748031497,
          "duration": 0.0007374999999996135
        },
        {
          "name": "D7",
          "midi": 98,
          "time": 8.141999999999992,
          "velocity": 0.7874015748031497,
          "duration": 0.0007374999999996135
        },
        {
          "name": "D7",
          "midi": 98,
          "time": 8.319737499999992,
          "velocity": 0.7874015748031497,
          "duration": 0.0007374999999996135
        },
        {
          "name": "C4",
          "midi": 60,
          "time": 8.495999999999992,
          "velocity": 0.7874015748031497,
          "duration": 0.0007374999999996135
        },
        {
          "name": "C5",
          "midi": 72,
          "time": 8.495999999999992,
          "velocity": 0.7874015748031497,
          "duration": 0.0007374999999996135
        },
        {
          "name": "D5",
          "midi": 74,
          "time": 8.495999999999992,
          "velocity": 0.7874015748031497,
          "duration": 0.0007374999999996135
        },
        {
          "name": "C6",
          "midi": 84,
          "time": 8.495999999999992,
          "velocity": 0.7874015748031497,
          "duration": 0.0007374999999996135
        },
        {
          "name": "D6",
          "midi": 86,
          "time": 8.495999999999992,
          "velocity": 0.7874015748031497,
          "duration": 0.0007374999999996135
        },
        {
          "name": "C7",
          "midi": 96,
          "time": 8.495999999999992,
          "velocity": 0.7874015748031497,
          "duration": 0.0007374999999996135
        },
        {
          "name": "D7",
          "midi": 98,
          "time": 8.495999999999992,
          "velocity": 0.7874015748031497,
          "duration": 0.0007374999999996135
        },
        {
          "name": "D7",
          "midi": 98,
          "time": 8.672999999999991,
          "velocity": 0.7874015748031497,
          "duration": 0.0007374999999996135
        },
        {
          "name": "D4",
          "midi": 62,
          "time": 8.84999999999999,
          "velocity": 0.7874015748031497,
          "duration": 0.0007374999999996135
        },
        {
          "name": "D5",
          "midi": 74,
          "time": 8.84999999999999,
          "velocity": 0.7874015748031497,
          "duration": 0.0007374999999996135
        },
        {
          "name": "D6",
          "midi": 86,
          "time": 8.84999999999999,
          "velocity": 0.7874015748031497,
          "duration": 0.0007374999999996135
        },
        {
          "name": "D7",
          "midi": 98,
          "time": 8.84999999999999,
          "velocity": 0.7874015748031497,
          "duration": 0.0007374999999996135
        },
        {
          "name": "D7",
          "midi": 98,
          "time": 9.02699999999999,
          "velocity": 0.7874015748031497,
          "duration": 0.0007374999999996135
        },
        {
          "name": "C#4",
          "midi": 61,
          "time": 9.20399999999999,
          "velocity": 0.7874015748031497,
          "duration": 0.0007374999999996135
        },
        {
          "name": "C#5",
          "midi": 73,
          "time": 9.20399999999999,
          "velocity": 0.7874015748031497,
          "duration": 0.0007374999999996135
        },
        {
          "name": "D5",
          "midi": 74,
          "time": 9.20399999999999,
          "velocity": 0.7874015748031497,
          "duration": 0.0007374999999996135
        },
        {
          "name": "C#6",
          "midi": 85,
          "time": 9.20399999999999,
          "velocity": 0.7874015748031497,
          "duration": 0.0007374999999996135
        },
        {
          "name": "D6",
          "midi": 86,
          "time": 9.20399999999999,
          "velocity": 0.7874015748031497,
          "duration": 0.0007374999999996135
        },
        {
          "name": "C#7",
          "midi": 97,
          "time": 9.20399999999999,
          "velocity": 0.7874015748031497,
          "duration": 0.0007374999999996135
        },
        {
          "name": "D7",
          "midi": 98,
          "time": 9.20399999999999,
          "velocity": 0.7874015748031497,
          "duration": 0.0007374999999996135
        },
        {
          "name": "D7",
          "midi": 98,
          "time": 9.38173749999999,
          "velocity": 0.7874015748031497,
          "duration": 0.0007374999999996135
        },
        {
          "name": "D4",
          "midi": 62,
          "time": 9.55799999999999,
          "velocity": 0.7874015748031497,
          "duration": 0.0007374999999996135
        },
        {
          "name": "D5",
          "midi": 74,
          "time": 9.55799999999999,
          "velocity": 0.7874015748031497,
          "duration": 0.0007374999999996135
        },
        {
          "name": "D6",
          "midi": 86,
          "time": 9.55799999999999,
          "velocity": 0.7874015748031497,
          "duration": 0.0007374999999996135
        },
        {
          "name": "D7",
          "midi": 98,
          "time": 9.55799999999999,
          "velocity": 0.7874015748031497,
          "duration": 0.0007374999999996135
        },
        {
          "name": "D7",
          "midi": 98,
          "time": 9.73426249999999,
          "velocity": 0.7874015748031497,
          "duration": 0.0007374999999996135
        },
        {
          "name": "D4",
          "midi": 62,
          "time": 9.911999999999988,
          "velocity": 0.7874015748031497,
          "duration": 0.0007374999999996135
        },
        {
          "name": "C5",
          "midi": 72,
          "time": 9.911999999999988,
          "velocity": 0.7874015748031497,
          "duration": 0.0007374999999996135
        },
        {
          "name": "D5",
          "midi": 74,
          "time": 9.911999999999988,
          "velocity": 0.7874015748031497,
          "duration": 0.0007374999999996135
        },
        {
          "name": "C6",
          "midi": 84,
          "time": 9.911999999999988,
          "velocity": 0.7874015748031497,
          "duration": 0.0007374999999996135
        },
        {
          "name": "D6",
          "midi": 86,
          "time": 9.911999999999988,
          "velocity": 0.7874015748031497,
          "duration": 0.0007374999999996135
        },
        {
          "name": "C7",
          "midi": 96,
          "time": 9.911999999999988,
          "velocity": 0.7874015748031497,
          "duration": 0.0007374999999996135
        },
        {
          "name": "D7",
          "midi": 98,
          "time": 9.911999999999988,
          "velocity": 0.7874015748031497,
          "duration": 0.0007374999999996135
        },
        {
          "name": "D7",
          "midi": 98,
          "time": 10.088262499999988,
          "velocity": 0.7874015748031497,
          "duration": 0.0007374999999996135
        },
        {
          "name": "D4",
          "midi": 62,
          "time": 10.265999999999988,
          "velocity": 0.7874015748031497,
          "duration": 0.0007374999999996135
        },
        {
          "name": "D5",
          "midi": 74,
          "time": 10.265999999999988,
          "velocity": 0.7874015748031497,
          "duration": 0.0007374999999996135
        },
        {
          "name": "C6",
          "midi": 84,
          "time": 10.265999999999988,
          "velocity": 0.7874015748031497,
          "duration": 0.0007374999999996135
        },
        {
          "name": "D6",
          "midi": 86,
          "time": 10.265999999999988,
          "velocity": 0.7874015748031497,
          "duration": 0.0007374999999996135
        },
        {
          "name": "C7",
          "midi": 96,
          "time": 10.265999999999988,
          "velocity": 0.7874015748031497,
          "duration": 0.0007374999999996135
        },
        {
          "name": "D7",
          "midi": 98,
          "time": 10.265999999999988,
          "velocity": 0.7874015748031497,
          "duration": 0.0007374999999996135
        },
        {
          "name": "D7",
          "midi": 98,
          "time": 10.442999999999987,
          "velocity": 0.7874015748031497,
          "duration": 0.0007374999999996135
        },
        {
          "name": "C#4",
          "midi": 61,
          "time": 10.619999999999987,
          "velocity": 0.7874015748031497,
          "duration": 0.0007374999999996135
        },
        {
          "name": "C#5",
          "midi": 73,
          "time": 10.619999999999987,
          "velocity": 0.7874015748031497,
          "duration": 0.0007374999999996135
        },
        {
          "name": "D5",
          "midi": 74,
          "time": 10.619999999999987,
          "velocity": 0.7874015748031497,
          "duration": 0.0007374999999996135
        },
        {
          "name": "C#6",
          "midi": 85,
          "time": 10.619999999999987,
          "velocity": 0.7874015748031497,
          "duration": 0.0007374999999996135
        },
        {
          "name": "D6",
          "midi": 86,
          "time": 10.619999999999987,
          "velocity": 0.7874015748031497,
          "duration": 0.0007374999999996135
        },
        {
          "name": "C#7",
          "midi": 97,
          "time": 10.619999999999987,
          "velocity": 0.7874015748031497,
          "duration": 0.0007374999999996135
        },
        {
          "name": "D7",
          "midi": 98,
          "time": 10.619999999999987,
          "velocity": 0.7874015748031497,
          "duration": 0.0007374999999996135
        },
        {
          "name": "D7",
          "midi": 98,
          "time": 10.796999999999986,
          "velocity": 0.7874015748031497,
          "duration": 0.0007374999999996135
        },
        {
          "name": "D4",
          "midi": 62,
          "time": 10.973999999999986,
          "velocity": 0.7874015748031497,
          "duration": 0.0007374999999996135
        },
        {
          "name": "D5",
          "midi": 74,
          "time": 10.973999999999986,
          "velocity": 0.7874015748031497,
          "duration": 0.0007374999999996135
        },
        {
          "name": "D6",
          "midi": 86,
          "time": 10.973999999999986,
          "velocity": 0.7874015748031497,
          "duration": 0.0007374999999996135
        },
        {
          "name": "D7",
          "midi": 98,
          "time": 10.973999999999986,
          "velocity": 0.7874015748031497,
          "duration": 0.0007374999999996135
        },
        {
          "name": "D7",
          "midi": 98,
          "time": 11.150262499999986,
          "velocity": 0.7874015748031497,
          "duration": 0.0007374999999996135
        },
        {
          "name": "C4",
          "midi": 60,
          "time": 11.327999999999985,
          "velocity": 0.7874015748031497,
          "duration": 0.0007374999999996135
        },
        {
          "name": "C5",
          "midi": 72,
          "time": 11.327999999999985,
          "velocity": 0.7874015748031497,
          "duration": 0.0007374999999996135
        },
        {
          "name": "D5",
          "midi": 74,
          "time": 11.327999999999985,
          "velocity": 0.7874015748031497,
          "duration": 0.0007374999999996135
        },
        {
          "name": "C6",
          "midi": 84,
          "time": 11.327999999999985,
          "velocity": 0.7874015748031497,
          "duration": 0.0007374999999996135
        },
        {
          "name": "D6",
          "midi": 86,
          "time": 11.327999999999985,
          "velocity": 0.7874015748031497,
          "duration": 0.0007374999999996135
        },
        {
          "name": "C7",
          "midi": 96,
          "time": 11.327999999999985,
          "velocity": 0.7874015748031497,
          "duration": 0.0007374999999996135
        },
        {
          "name": "D7",
          "midi": 98,
          "time": 11.327999999999985,
          "velocity": 0.7874015748031497,
          "duration": 0.0007374999999996135
        },
        {
          "name": "D7",
          "midi": 98,
          "time": 11.505737499999984,
          "velocity": 0.7874015748031497,
          "duration": 0.0007374999999996135
        },
        {
          "name": "D4",
          "midi": 62,
          "time": 11.681999999999984,
          "velocity": 0.7874015748031497,
          "duration": 0.0007374999999996135
        },
        {
          "name": "D5",
          "midi": 74,
          "time": 11.681999999999984,
          "velocity": 0.7874015748031497,
          "duration": 0.0007374999999996135
        },
        {
          "name": "D6",
          "midi": 86,
          "time": 11.681999999999984,
          "velocity": 0.7874015748031497,
          "duration": 0.0007374999999996135
        },
        {
          "name": "D7",
          "midi": 98,
          "time": 11.681999999999984,
          "velocity": 0.7874015748031497,
          "duration": 0.0007374999999996135
        },
        {
          "name": "D7",
          "midi": 98,
          "time": 11.859737499999984,
          "velocity": 0.7874015748031497,
          "duration": 0.0007374999999996135
        },
        {
          "name": "C#4",
          "midi": 61,
          "time": 12.035999999999984,
          "velocity": 0.7874015748031497,
          "duration": 0.0007374999999996135
        },
        {
          "name": "C#5",
          "midi": 73,
          "time": 12.035999999999984,
          "velocity": 0.7874015748031497,
          "duration": 0.0007374999999996135
        },
        {
          "name": "D5",
          "midi": 74,
          "time": 12.035999999999984,
          "velocity": 0.7874015748031497,
          "duration": 0.0007374999999996135
        },
        {
          "name": "C#6",
          "midi": 85,
          "time": 12.035999999999984,
          "velocity": 0.7874015748031497,
          "duration": 0.0007374999999996135
        },
        {
          "name": "D6",
          "midi": 86,
          "time": 12.035999999999984,
          "velocity": 0.7874015748031497,
          "duration": 0.0007374999999996135
        },
        {
          "name": "C#7",
          "midi": 97,
          "time": 12.035999999999984,
          "velocity": 0.7874015748031497,
          "duration": 0.0007374999999996135
        },
        {
          "name": "D7",
          "midi": 98,
          "time": 12.035999999999984,
          "velocity": 0.7874015748031497,
          "duration": 0.0007374999999996135
        },
        {
          "name": "D7",
          "midi": 98,
          "time": 12.212999999999983,
          "velocity": 0.7874015748031497,
          "duration": 0.0007374999999996135
        },
        {
          "name": "D4",
          "midi": 62,
          "time": 12.389999999999983,
          "velocity": 0.7874015748031497,
          "duration": 0.0007374999999996135
        },
        {
          "name": "D5",
          "midi": 74,
          "time": 12.389999999999983,
          "velocity": 0.7874015748031497,
          "duration": 0.0007374999999996135
        },
        {
          "name": "D6",
          "midi": 86,
          "time": 12.389999999999983,
          "velocity": 0.7874015748031497,
          "duration": 0.0007374999999996135
        },
        {
          "name": "D7",
          "midi": 98,
          "time": 12.389999999999983,
          "velocity": 0.7874015748031497,
          "duration": 0.0007374999999996135
        },
        {
          "name": "D7",
          "midi": 98,
          "time": 12.566999999999982,
          "velocity": 0.7874015748031497,
          "duration": 0.0007374999999996135
        },
        {
          "name": "G#8",
          "midi": 116,
          "time": 12.743999999999982,
          "velocity": 0.7874015748031497,
          "duration": 2.212499999999995
        },
        {
          "name": "D4",
          "midi": 62,
          "time": 12.743999999999982,
          "velocity": 0.7874015748031497,
          "duration": 0.0007374999999996135
        },
        {
          "name": "C5",
          "midi": 72,
          "time": 12.743999999999982,
          "velocity": 0.7874015748031497,
          "duration": 0.0007374999999996135
        },
        {
          "name": "D5",
          "midi": 74,
          "time": 12.743999999999982,
          "velocity": 0.7874015748031497,
          "duration": 0.0007374999999996135
        },
        {
          "name": "C6",
          "midi": 84,
          "time": 12.743999999999982,
          "velocity": 0.7874015748031497,
          "duration": 0.0007374999999996135
        },
        {
          "name": "D6",
          "midi": 86,
          "time": 12.743999999999982,
          "velocity": 0.7874015748031497,
          "duration": 0.0007374999999996135
        },
        {
          "name": "C7",
          "midi": 96,
          "time": 12.743999999999982,
          "velocity": 0.7874015748031497,
          "duration": 0.0007374999999996135
        },
        {
          "name": "D7",
          "midi": 98,
          "time": 12.743999999999982,
          "velocity": 0.7874015748031497,
          "duration": 0.0007374999999996135
        },
        {
          "name": "D7",
          "midi": 98,
          "time": 12.920262499999982,
          "velocity": 0.7874015748031497,
          "duration": 0.0007374999999996135
        },
        {
          "name": "D4",
          "midi": 62,
          "time": 13.097999999999981,
          "velocity": 0.7874015748031497,
          "duration": 0.0007374999999996135
        },
        {
          "name": "D5",
          "midi": 74,
          "time": 13.097999999999981,
          "velocity": 0.7874015748031497,
          "duration": 0.0007374999999996135
        },
        {
          "name": "C6",
          "midi": 84,
          "time": 13.097999999999981,
          "velocity": 0.7874015748031497,
          "duration": 0.0007374999999996135
        },
        {
          "name": "D6",
          "midi": 86,
          "time": 13.097999999999981,
          "velocity": 0.7874015748031497,
          "duration": 0.0007374999999996135
        },
        {
          "name": "C7",
          "midi": 96,
          "time": 13.097999999999981,
          "velocity": 0.7874015748031497,
          "duration": 0.0007374999999996135
        },
        {
          "name": "D7",
          "midi": 98,
          "time": 13.097999999999981,
          "velocity": 0.7874015748031497,
          "duration": 0.0007374999999996135
        },
        {
          "name": "D7",
          "midi": 98,
          "time": 13.27499999999998,
          "velocity": 0.7874015748031497,
          "duration": 0.0007374999999996135
        },
        {
          "name": "C#4",
          "midi": 61,
          "time": 13.45199999999998,
          "velocity": 0.7874015748031497,
          "duration": 0.0007374999999996135
        },
        {
          "name": "C#5",
          "midi": 73,
          "time": 13.45199999999998,
          "velocity": 0.7874015748031497,
          "duration": 0.0007374999999996135
        },
        {
          "name": "D5",
          "midi": 74,
          "time": 13.45199999999998,
          "velocity": 0.7874015748031497,
          "duration": 0.0007374999999996135
        },
        {
          "name": "C#6",
          "midi": 85,
          "time": 13.45199999999998,
          "velocity": 0.7874015748031497,
          "duration": 0.0007374999999996135
        },
        {
          "name": "D6",
          "midi": 86,
          "time": 13.45199999999998,
          "velocity": 0.7874015748031497,
          "duration": 0.0007374999999996135
        },
        {
          "name": "C#7",
          "midi": 97,
          "time": 13.45199999999998,
          "velocity": 0.7874015748031497,
          "duration": 0.0007374999999996135
        },
        {
          "name": "D7",
          "midi": 98,
          "time": 13.45199999999998,
          "velocity": 0.7874015748031497,
          "duration": 0.0007374999999996135
        },
        {
          "name": "C6",
          "midi": 84,
          "time": 13.62973749999998,
          "velocity": 0.7874015748031497,
          "duration": 0.0007374999999996135
        },
        {
          "name": "D6",
          "midi": 86,
          "time": 13.62973749999998,
          "velocity": 0.7874015748031497,
          "duration": 0.0007374999999996135
        },
        {
          "name": "C7",
          "midi": 96,
          "time": 13.62973749999998,
          "velocity": 0.7874015748031497,
          "duration": 0.0007374999999996135
        },
        {
          "name": "D7",
          "midi": 98,
          "time": 13.62973749999998,
          "velocity": 0.7874015748031497,
          "duration": 0.0007374999999996135
        },
        {
          "name": "D4",
          "midi": 62,
          "time": 13.80599999999998,
          "velocity": 0.7874015748031497,
          "duration": 0.0007374999999996135
        },
        {
          "name": "D5",
          "midi": 74,
          "time": 13.80599999999998,
          "velocity": 0.7874015748031497,
          "duration": 0.0007374999999996135
        },
        {
          "name": "D7",
          "midi": 98,
          "time": 13.80599999999998,
          "velocity": 0.7874015748031497,
          "duration": 0.0007374999999996135
        },
        {
          "name": "D7",
          "midi": 98,
          "time": 13.98299999999998,
          "velocity": 0.7874015748031497,
          "duration": 0.0007374999999996135
        },
        {
          "name": "C4",
          "midi": 60,
          "time": 14.159999999999979,
          "velocity": 0.7874015748031497,
          "duration": 0.0007374999999996135
        },
        {
          "name": "C5",
          "midi": 72,
          "time": 14.159999999999979,
          "velocity": 0.7874015748031497,
          "duration": 0.0007374999999996135
        },
        {
          "name": "D5",
          "midi": 74,
          "time": 14.159999999999979,
          "velocity": 0.7874015748031497,
          "duration": 0.0007374999999996135
        },
        {
          "name": "C6",
          "midi": 84,
          "time": 14.159999999999979,
          "velocity": 0.7874015748031497,
          "duration": 0.0007374999999996135
        },
        {
          "name": "D6",
          "midi": 86,
          "time": 14.159999999999979,
          "velocity": 0.7874015748031497,
          "duration": 0.0007374999999996135
        },
        {
          "name": "C7",
          "midi": 96,
          "time": 14.159999999999979,
          "velocity": 0.7874015748031497,
          "duration": 0.0007374999999996135
        },
        {
          "name": "D7",
          "midi": 98,
          "time": 14.159999999999979,
          "velocity": 0.7874015748031497,
          "duration": 0.0007374999999996135
        },
        {
          "name": "C6",
          "midi": 84,
          "time": 14.336262499999979,
          "velocity": 0.7874015748031497,
          "duration": 0.0007374999999996135
        },
        {
          "name": "C7",
          "midi": 96,
          "time": 14.336262499999979,
          "velocity": 0.7874015748031497,
          "duration": 0.0007374999999996135
        },
        {
          "name": "D7",
          "midi": 98,
          "time": 14.336262499999979,
          "velocity": 0.7874015748031497,
          "duration": 0.0007374999999996135
        },
        {
          "name": "D4",
          "midi": 62,
          "time": 14.513999999999978,
          "velocity": 0.7874015748031497,
          "duration": 0.0007374999999996135
        },
        {
          "name": "D5",
          "midi": 74,
          "time": 14.513999999999978,
          "velocity": 0.7874015748031497,
          "duration": 0.0007374999999996135
        },
        {
          "name": "D6",
          "midi": 86,
          "time": 14.513999999999978,
          "velocity": 0.7874015748031497,
          "duration": 0.0007374999999996135
        },
        {
          "name": "D7",
          "midi": 98,
          "time": 14.513999999999978,
          "velocity": 0.7874015748031497,
          "duration": 0.0007374999999996135
        },
        {
          "name": "C6",
          "midi": 84,
          "time": 14.690262499999978,
          "velocity": 0.7874015748031497,
          "duration": 0.0007374999999996135
        },
        {
          "name": "C7",
          "midi": 96,
          "time": 14.690262499999978,
          "velocity": 0.7874015748031497,
          "duration": 0.0007374999999996135
        },
        {
          "name": "D7",
          "midi": 98,
          "time": 14.690262499999978,
          "velocity": 0.7874015748031497,
          "duration": 0.0007374999999996135
        },
        {
          "name": "C#4",
          "midi": 61,
          "time": 14.867999999999977,
          "velocity": 0.7874015748031497,
          "duration": 0.0007374999999996135
        },
        {
          "name": "C#5",
          "midi": 73,
          "time": 14.867999999999977,
          "velocity": 0.7874015748031497,
          "duration": 0.0007374999999996135
        },
        {
          "name": "E5",
          "midi": 76,
          "time": 14.867999999999977,
          "velocity": 0.7874015748031497,
          "duration": 0.0007374999999996135
        },
        {
          "name": "C#6",
          "midi": 85,
          "time": 14.867999999999977,
          "velocity": 0.7874015748031497,
          "duration": 0.0007374999999996135
        },
        {
          "name": "E6",
          "midi": 88,
          "time": 14.867999999999977,
          "velocity": 0.7874015748031497,
          "duration": 0.0007374999999996135
        },
        {
          "name": "C#7",
          "midi": 97,
          "time": 14.867999999999977,
          "velocity": 0.7874015748031497,
          "duration": 0.0007374999999996135
        },
        {
          "name": "E7",
          "midi": 100,
          "time": 14.867999999999977,
          "velocity": 0.7874015748031497,
          "duration": 0.0007374999999996135
        },
        {
          "name": "D4",
          "midi": 62,
          "time": 15.221999999999976,
          "velocity": 0.7874015748031497,
          "duration": 0.0007374999999996135
        },
        {
          "name": "D5",
          "midi": 74,
          "time": 15.221999999999976,
          "velocity": 0.7874015748031497,
          "duration": 0.0007374999999996135
        },
        {
          "name": "D6",
          "midi": 86,
          "time": 15.221999999999976,
          "velocity": 0.7874015748031497,
          "duration": 0.0007374999999996135
        },
        {
          "name": "D7",
          "midi": 98,
          "time": 15.221999999999976,
          "velocity": 0.7874015748031497,
          "duration": 0.0007374999999996135
        },
        {
          "name": "D7",
          "midi": 98,
          "time": 15.398999999999976,
          "velocity": 0.7874015748031497,
          "duration": 0.0007374999999996135
        },
        {
          "name": "D4",
          "midi": 62,
          "time": 15.575999999999976,
          "velocity": 0.7874015748031497,
          "duration": 0.0007374999999996135
        },
        {
          "name": "D5",
          "midi": 74,
          "time": 15.575999999999976,
          "velocity": 0.7874015748031497,
          "duration": 0.0007374999999996135
        },
        {
          "name": "D6",
          "midi": 86,
          "time": 15.575999999999976,
          "velocity": 0.7874015748031497,
          "duration": 0.0007374999999996135
        },
        {
          "name": "D7",
          "midi": 98,
          "time": 15.575999999999976,
          "velocity": 0.7874015748031497,
          "duration": 0.0007374999999996135
        },
        {
          "name": "D7",
          "midi": 98,
          "time": 15.752999999999975,
          "velocity": 0.7874015748031497,
          "duration": 0.0007374999999996135
        },
        {
          "name": "D4",
          "midi": 62,
          "time": 15.929999999999975,
          "velocity": 0.7874015748031497,
          "duration": 0.0007374999999996135
        },
        {
          "name": "C5",
          "midi": 72,
          "time": 15.929999999999975,
          "velocity": 0.7874015748031497,
          "duration": 0.0007374999999996135
        },
        {
          "name": "D5",
          "midi": 74,
          "time": 15.929999999999975,
          "velocity": 0.7874015748031497,
          "duration": 0.0007374999999996135
        },
        {
          "name": "C6",
          "midi": 84,
          "time": 15.929999999999975,
          "velocity": 0.7874015748031497,
          "duration": 0.0007374999999996135
        },
        {
          "name": "D6",
          "midi": 86,
          "time": 15.929999999999975,
          "velocity": 0.7874015748031497,
          "duration": 0.0007374999999996135
        },
        {
          "name": "C7",
          "midi": 96,
          "time": 15.929999999999975,
          "velocity": 0.7874015748031497,
          "duration": 0.0007374999999996135
        },
        {
          "name": "D7",
          "midi": 98,
          "time": 15.929999999999975,
          "velocity": 0.7874015748031497,
          "duration": 0.0007374999999996135
        },
        {
          "name": "D7",
          "midi": 98,
          "time": 16.106999999999974,
          "velocity": 0.7874015748031497,
          "duration": 0.0007374999999996135
        },
        {
          "name": "C#4",
          "midi": 61,
          "time": 16.283999999999974,
          "velocity": 0.7874015748031497,
          "duration": 0.0007374999999996135
        },
        {
          "name": "C#5",
          "midi": 73,
          "time": 16.283999999999974,
          "velocity": 0.7874015748031497,
          "duration": 0.0007374999999996135
        },
        {
          "name": "D5",
          "midi": 74,
          "time": 16.283999999999974,
          "velocity": 0.7874015748031497,
          "duration": 0.0007374999999996135
        },
        {
          "name": "C#6",
          "midi": 85,
          "time": 16.283999999999974,
          "velocity": 0.7874015748031497,
          "duration": 0.0007374999999996135
        },
        {
          "name": "D6",
          "midi": 86,
          "time": 16.283999999999974,
          "velocity": 0.7874015748031497,
          "duration": 0.0007374999999996135
        },
        {
          "name": "C#7",
          "midi": 97,
          "time": 16.283999999999974,
          "velocity": 0.7874015748031497,
          "duration": 0.0007374999999996135
        },
        {
          "name": "D7",
          "midi": 98,
          "time": 16.283999999999974,
          "velocity": 0.7874015748031497,
          "duration": 0.0007374999999996135
        },
        {
          "name": "D7",
          "midi": 98,
          "time": 16.461737499999973,
          "velocity": 0.7874015748031497,
          "duration": 0.0007374999999996135
        },
        {
          "name": "D4",
          "midi": 62,
          "time": 16.637999999999973,
          "velocity": 0.7874015748031497,
          "duration": 0.0007374999999996135
        },
        {
          "name": "D5",
          "midi": 74,
          "time": 16.637999999999973,
          "velocity": 0.7874015748031497,
          "duration": 0.0007374999999996135
        },
        {
          "name": "D6",
          "midi": 86,
          "time": 16.637999999999973,
          "velocity": 0.7874015748031497,
          "duration": 0.0007374999999996135
        },
        {
          "name": "D7",
          "midi": 98,
          "time": 16.637999999999973,
          "velocity": 0.7874015748031497,
          "duration": 0.0007374999999996135
        },
        {
          "name": "D7",
          "midi": 98,
          "time": 16.814999999999973,
          "velocity": 0.7874015748031497,
          "duration": 0.0007374999999996135
        },
        {
          "name": "C4",
          "midi": 60,
          "time": 16.991999999999972,
          "velocity": 0.7874015748031497,
          "duration": 0.0007374999999996135
        },
        {
          "name": "C5",
          "midi": 72,
          "time": 16.991999999999972,
          "velocity": 0.7874015748031497,
          "duration": 0.0007374999999996135
        },
        {
          "name": "D5",
          "midi": 74,
          "time": 16.991999999999972,
          "velocity": 0.7874015748031497,
          "duration": 0.0007374999999996135
        },
        {
          "name": "C6",
          "midi": 84,
          "time": 16.991999999999972,
          "velocity": 0.7874015748031497,
          "duration": 0.0007374999999996135
        },
        {
          "name": "D6",
          "midi": 86,
          "time": 16.991999999999972,
          "velocity": 0.7874015748031497,
          "duration": 0.0007374999999996135
        },
        {
          "name": "C7",
          "midi": 96,
          "time": 16.991999999999972,
          "velocity": 0.7874015748031497,
          "duration": 0.0007374999999996135
        },
        {
          "name": "D7",
          "midi": 98,
          "time": 16.991999999999972,
          "velocity": 0.7874015748031497,
          "duration": 0.0007374999999996135
        },
        {
          "name": "C6",
          "midi": 84,
          "time": 17.168999999999972,
          "velocity": 0.7874015748031497,
          "duration": 0.0007374999999996135
        },
        {
          "name": "D6",
          "midi": 86,
          "time": 17.168999999999972,
          "velocity": 0.7874015748031497,
          "duration": 0.0007374999999996135
        },
        {
          "name": "C7",
          "midi": 96,
          "time": 17.168999999999972,
          "velocity": 0.7874015748031497,
          "duration": 0.0007374999999996135
        },
        {
          "name": "D7",
          "midi": 98,
          "time": 17.168999999999972,
          "velocity": 0.7874015748031497,
          "duration": 0.0007374999999996135
        },
        {
          "name": "D4",
          "midi": 62,
          "time": 17.34599999999997,
          "velocity": 0.7874015748031497,
          "duration": 0.0007374999999996135
        },
        {
          "name": "D5",
          "midi": 74,
          "time": 17.34599999999997,
          "velocity": 0.7874015748031497,
          "duration": 0.0007374999999996135
        },
        {
          "name": "D7",
          "midi": 98,
          "time": 17.34599999999997,
          "velocity": 0.7874015748031497,
          "duration": 0.0007374999999996135
        },
        {
          "name": "C6",
          "midi": 84,
          "time": 17.52373749999997,
          "velocity": 0.7874015748031497,
          "duration": 0.0007374999999996135
        },
        {
          "name": "C7",
          "midi": 96,
          "time": 17.52373749999997,
          "velocity": 0.7874015748031497,
          "duration": 0.0007374999999996135
        },
        {
          "name": "D7",
          "midi": 98,
          "time": 17.52373749999997,
          "velocity": 0.7874015748031497,
          "duration": 0.0007374999999996135
        },
        {
          "name": "C#4",
          "midi": 61,
          "time": 17.69999999999997,
          "velocity": 0.7874015748031497,
          "duration": 0.0007374999999996135
        },
        {
          "name": "C#5",
          "midi": 73,
          "time": 17.69999999999997,
          "velocity": 0.7874015748031497,
          "duration": 0.0007374999999996135
        },
        {
          "name": "E5",
          "midi": 76,
          "time": 17.69999999999997,
          "velocity": 0.7874015748031497,
          "duration": 0.0007374999999996135
        },
        {
          "name": "C#6",
          "midi": 85,
          "time": 17.69999999999997,
          "velocity": 0.7874015748031497,
          "duration": 0.0007374999999996135
        },
        {
          "name": "E6",
          "midi": 88,
          "time": 17.69999999999997,
          "velocity": 0.7874015748031497,
          "duration": 0.0007374999999996135
        },
        {
          "name": "C#7",
          "midi": 97,
          "time": 17.69999999999997,
          "velocity": 0.7874015748031497,
          "duration": 0.0007374999999996135
        },
        {
          "name": "E7",
          "midi": 100,
          "time": 17.69999999999997,
          "velocity": 0.7874015748031497,
          "duration": 0.0007374999999996135
        },
        {
          "name": "D4",
          "midi": 62,
          "time": 18.05399999999997,
          "velocity": 0.7874015748031497,
          "duration": 0.0007374999999996135
        },
        {
          "name": "D5",
          "midi": 74,
          "time": 18.05399999999997,
          "velocity": 0.7874015748031497,
          "duration": 0.0007374999999996135
        },
        {
          "name": "D6",
          "midi": 86,
          "time": 18.05399999999997,
          "velocity": 0.7874015748031497,
          "duration": 0.0007374999999996135
        },
        {
          "name": "D7",
          "midi": 98,
          "time": 18.05399999999997,
          "velocity": 0.7874015748031497,
          "duration": 0.0007374999999996135
        },
        {
          "name": "D7",
          "midi": 98,
          "time": 18.23026249999997,
          "velocity": 0.7874015748031497,
          "duration": 0.0007374999999996135
        },
        {
          "name": "D4",
          "midi": 62,
          "time": 18.40799999999997,
          "velocity": 0.7874015748031497,
          "duration": 0.0007374999999996135
        },
        {
          "name": "D5",
          "midi": 74,
          "time": 18.40799999999997,
          "velocity": 0.7874015748031497,
          "duration": 0.0007374999999996135
        },
        {
          "name": "D6",
          "midi": 86,
          "time": 18.40799999999997,
          "velocity": 0.7874015748031497,
          "duration": 0.0007374999999996135
        },
        {
          "name": "D7",
          "midi": 98,
          "time": 18.40799999999997,
          "velocity": 0.7874015748031497,
          "duration": 0.0007374999999996135
        },
        {
          "name": "D7",
          "midi": 98,
          "time": 18.58499999999997,
          "velocity": 0.7874015748031497,
          "duration": 0.0007374999999996135
        },
        {
          "name": "D4",
          "midi": 62,
          "time": 18.76199999999997,
          "velocity": 0.7874015748031497,
          "duration": 0.0007374999999996135
        },
        {
          "name": "C5",
          "midi": 72,
          "time": 18.76199999999997,
          "velocity": 0.7874015748031497,
          "duration": 0.0007374999999996135
        },
        {
          "name": "D5",
          "midi": 74,
          "time": 18.76199999999997,
          "velocity": 0.7874015748031497,
          "duration": 0.0007374999999996135
        },
        {
          "name": "C6",
          "midi": 84,
          "time": 18.76199999999997,
          "velocity": 0.7874015748031497,
          "duration": 0.0007374999999996135
        },
        {
          "name": "D6",
          "midi": 86,
          "time": 18.76199999999997,
          "velocity": 0.7874015748031497,
          "duration": 0.0007374999999996135
        },
        {
          "name": "C7",
          "midi": 96,
          "time": 18.76199999999997,
          "velocity": 0.7874015748031497,
          "duration": 0.0007374999999996135
        },
        {
          "name": "D7",
          "midi": 98,
          "time": 18.76199999999997,
          "velocity": 0.7874015748031497,
          "duration": 0.0007374999999996135
        },
        {
          "name": "D7",
          "midi": 98,
          "time": 18.93826249999997,
          "velocity": 0.7874015748031497,
          "duration": 0.0007374999999996135
        },
        {
          "name": "C#4",
          "midi": 61,
          "time": 19.115999999999968,
          "velocity": 0.7874015748031497,
          "duration": 0.0007374999999996135
        },
        {
          "name": "C#5",
          "midi": 73,
          "time": 19.115999999999968,
          "velocity": 0.7874015748031497,
          "duration": 0.0007374999999996135
        },
        {
          "name": "D5",
          "midi": 74,
          "time": 19.115999999999968,
          "velocity": 0.7874015748031497,
          "duration": 0.0007374999999996135
        },
        {
          "name": "C#6",
          "midi": 85,
          "time": 19.115999999999968,
          "velocity": 0.7874015748031497,
          "duration": 0.0007374999999996135
        },
        {
          "name": "D6",
          "midi": 86,
          "time": 19.115999999999968,
          "velocity": 0.7874015748031497,
          "duration": 0.0007374999999996135
        },
        {
          "name": "C#7",
          "midi": 97,
          "time": 19.115999999999968,
          "velocity": 0.7874015748031497,
          "duration": 0.0007374999999996135
        },
        {
          "name": "D7",
          "midi": 98,
          "time": 19.115999999999968,
          "velocity": 0.7874015748031497,
          "duration": 0.0007374999999996135
        },
        {
          "name": "C6",
          "midi": 84,
          "time": 19.293737499999967,
          "velocity": 0.7874015748031497,
          "duration": 0.0007374999999996135
        },
        {
          "name": "D6",
          "midi": 86,
          "time": 19.293737499999967,
          "velocity": 0.7874015748031497,
          "duration": 0.0007374999999996135
        },
        {
          "name": "C7",
          "midi": 96,
          "time": 19.293737499999967,
          "velocity": 0.7874015748031497,
          "duration": 0.0007374999999996135
        },
        {
          "name": "D7",
          "midi": 98,
          "time": 19.293737499999967,
          "velocity": 0.7874015748031497,
          "duration": 0.0007374999999996135
        },
        {
          "name": "D4",
          "midi": 62,
          "time": 19.469999999999967,
          "velocity": 0.7874015748031497,
          "duration": 0.0007374999999996135
        },
        {
          "name": "D5",
          "midi": 74,
          "time": 19.469999999999967,
          "velocity": 0.7874015748031497,
          "duration": 0.0007374999999996135
        },
        {
          "name": "D7",
          "midi": 98,
          "time": 19.469999999999967,
          "velocity": 0.7874015748031497,
          "duration": 0.0007374999999996135
        },
        {
          "name": "D7",
          "midi": 98,
          "time": 19.647737499999966,
          "velocity": 0.7874015748031497,
          "duration": 0.0007374999999996135
        },
        {
          "name": "C4",
          "midi": 60,
          "time": 19.823999999999966,
          "velocity": 0.7874015748031497,
          "duration": 0.0007374999999996135
        },
        {
          "name": "C5",
          "midi": 72,
          "time": 19.823999999999966,
          "velocity": 0.7874015748031497,
          "duration": 0.0007374999999996135
        },
        {
          "name": "D5",
          "midi": 74,
          "time": 19.823999999999966,
          "velocity": 0.7874015748031497,
          "duration": 0.0007374999999996135
        },
        {
          "name": "C6",
          "midi": 84,
          "time": 19.823999999999966,
          "velocity": 0.7874015748031497,
          "duration": 0.0007374999999996135
        },
        {
          "name": "D6",
          "midi": 86,
          "time": 19.823999999999966,
          "velocity": 0.7874015748031497,
          "duration": 0.0007374999999996135
        },
        {
          "name": "C7",
          "midi": 96,
          "time": 19.823999999999966,
          "velocity": 0.7874015748031497,
          "duration": 0.0007374999999996135
        },
        {
          "name": "D7",
          "midi": 98,
          "time": 19.823999999999966,
          "velocity": 0.7874015748031497,
          "duration": 0.0007374999999996135
        },
        {
          "name": "C6",
          "midi": 84,
          "time": 20.000999999999966,
          "velocity": 0.7874015748031497,
          "duration": 0.0007374999999996135
        },
        {
          "name": "D6",
          "midi": 86,
          "time": 20.000999999999966,
          "velocity": 0.7874015748031497,
          "duration": 0.0007374999999996135
        },
        {
          "name": "C7",
          "midi": 96,
          "time": 20.000999999999966,
          "velocity": 0.7874015748031497,
          "duration": 0.0007374999999996135
        },
        {
          "name": "D7",
          "midi": 98,
          "time": 20.000999999999966,
          "velocity": 0.7874015748031497,
          "duration": 0.0007374999999996135
        },
        {
          "name": "D4",
          "midi": 62,
          "time": 20.177999999999965,
          "velocity": 0.7874015748031497,
          "duration": 0.0007374999999996135
        },
        {
          "name": "D5",
          "midi": 74,
          "time": 20.177999999999965,
          "velocity": 0.7874015748031497,
          "duration": 0.0007374999999996135
        },
        {
          "name": "D7",
          "midi": 98,
          "time": 20.177999999999965,
          "velocity": 0.7874015748031497,
          "duration": 0.0007374999999996135
        },
        {
          "name": "C6",
          "midi": 84,
          "time": 20.354262499999965,
          "velocity": 0.7874015748031497,
          "duration": 0.0007374999999996135
        },
        {
          "name": "C7",
          "midi": 96,
          "time": 20.354262499999965,
          "velocity": 0.7874015748031497,
          "duration": 0.0007374999999996135
        },
        {
          "name": "D7",
          "midi": 98,
          "time": 20.354262499999965,
          "velocity": 0.7874015748031497,
          "duration": 0.0007374999999996135
        },
        {
          "name": "C#4",
          "midi": 61,
          "time": 20.531999999999965,
          "velocity": 0.7874015748031497,
          "duration": 0.0007374999999996135
        },
        {
          "name": "C#5",
          "midi": 73,
          "time": 20.531999999999965,
          "velocity": 0.7874015748031497,
          "duration": 0.0007374999999996135
        },
        {
          "name": "E5",
          "midi": 76,
          "time": 20.531999999999965,
          "velocity": 0.7874015748031497,
          "duration": 0.0007374999999996135
        },
        {
          "name": "C#6",
          "midi": 85,
          "time": 20.531999999999965,
          "velocity": 0.7874015748031497,
          "duration": 0.0007374999999996135
        },
        {
          "name": "E6",
          "midi": 88,
          "time": 20.531999999999965,
          "velocity": 0.7874015748031497,
          "duration": 0.0007374999999996135
        },
        {
          "name": "C#7",
          "midi": 97,
          "time": 20.531999999999965,
          "velocity": 0.7874015748031497,
          "duration": 0.0007374999999996135
        },
        {
          "name": "E7",
          "midi": 100,
          "time": 20.531999999999965,
          "velocity": 0.7874015748031497,
          "duration": 0.0007374999999996135
        },
        {
          "name": "D4",
          "midi": 62,
          "time": 20.885999999999964,
          "velocity": 0.7874015748031497,
          "duration": 0.0007374999999996135
        },
        {
          "name": "D5",
          "midi": 74,
          "time": 20.885999999999964,
          "velocity": 0.7874015748031497,
          "duration": 0.0007374999999996135
        },
        {
          "name": "D6",
          "midi": 86,
          "time": 20.885999999999964,
          "velocity": 0.7874015748031497,
          "duration": 0.0007374999999996135
        },
        {
          "name": "D7",
          "midi": 98,
          "time": 20.885999999999964,
          "velocity": 0.7874015748031497,
          "duration": 0.0007374999999996135
        },
        {
          "name": "D7",
          "midi": 98,
          "time": 21.063737499999963,
          "velocity": 0.7874015748031497,
          "duration": 0.0007374999999996135
        },
        {
          "name": "D4",
          "midi": 62,
          "time": 21.239999999999963,
          "velocity": 0.7874015748031497,
          "duration": 0.0007374999999996135
        },
        {
          "name": "D5",
          "midi": 74,
          "time": 21.239999999999963,
          "velocity": 0.7874015748031497,
          "duration": 0.0007374999999996135
        },
        {
          "name": "D6",
          "midi": 86,
          "time": 21.239999999999963,
          "velocity": 0.7874015748031497,
          "duration": 0.0007374999999996135
        },
        {
          "name": "D7",
          "midi": 98,
          "time": 21.239999999999963,
          "velocity": 0.7874015748031497,
          "duration": 0.0007374999999996135
        },
        {
          "name": "D7",
          "midi": 98,
          "time": 21.416999999999963,
          "velocity": 0.7874015748031497,
          "duration": 0.0007374999999996135
        },
        {
          "name": "D4",
          "midi": 62,
          "time": 21.593999999999962,
          "velocity": 0.7874015748031497,
          "duration": 0.0007374999999996135
        },
        {
          "name": "C5",
          "midi": 72,
          "time": 21.593999999999962,
          "velocity": 0.7874015748031497,
          "duration": 0.0007374999999996135
        },
        {
          "name": "D5",
          "midi": 74,
          "time": 21.593999999999962,
          "velocity": 0.7874015748031497,
          "duration": 0.0007374999999996135
        },
        {
          "name": "C6",
          "midi": 84,
          "time": 21.593999999999962,
          "velocity": 0.7874015748031497,
          "duration": 0.0007374999999996135
        },
        {
          "name": "D6",
          "midi": 86,
          "time": 21.593999999999962,
          "velocity": 0.7874015748031497,
          "duration": 0.0007374999999996135
        },
        {
          "name": "C7",
          "midi": 96,
          "time": 21.593999999999962,
          "velocity": 0.7874015748031497,
          "duration": 0.0007374999999996135
        },
        {
          "name": "D7",
          "midi": 98,
          "time": 21.593999999999962,
          "velocity": 0.7874015748031497,
          "duration": 0.0007374999999996135
        },
        {
          "name": "C6",
          "midi": 84,
          "time": 21.770262499999962,
          "velocity": 0.7874015748031497,
          "duration": 0.0007374999999996135
        },
        {
          "name": "D6",
          "midi": 86,
          "time": 21.770262499999962,
          "velocity": 0.7874015748031497,
          "duration": 0.0007374999999996135
        },
        {
          "name": "C7",
          "midi": 96,
          "time": 21.770262499999962,
          "velocity": 0.7874015748031497,
          "duration": 0.0007374999999996135
        },
        {
          "name": "D7",
          "midi": 98,
          "time": 21.770262499999962,
          "velocity": 0.7874015748031497,
          "duration": 0.0007374999999996135
        },
        {
          "name": "C#4",
          "midi": 61,
          "time": 21.94799999999996,
          "velocity": 0.7874015748031497,
          "duration": 0.0007374999999996135
        },
        {
          "name": "C#5",
          "midi": 73,
          "time": 21.94799999999996,
          "velocity": 0.7874015748031497,
          "duration": 0.0007374999999996135
        },
        {
          "name": "D5",
          "midi": 74,
          "time": 21.94799999999996,
          "velocity": 0.7874015748031497,
          "duration": 0.0007374999999996135
        },
        {
          "name": "C#6",
          "midi": 85,
          "time": 21.94799999999996,
          "velocity": 0.7874015748031497,
          "duration": 0.0007374999999996135
        },
        {
          "name": "D6",
          "midi": 86,
          "time": 21.94799999999996,
          "velocity": 0.7874015748031497,
          "duration": 0.0007374999999996135
        },
        {
          "name": "C#7",
          "midi": 97,
          "time": 21.94799999999996,
          "velocity": 0.7874015748031497,
          "duration": 0.0007374999999996135
        },
        {
          "name": "D7",
          "midi": 98,
          "time": 21.94799999999996,
          "velocity": 0.7874015748031497,
          "duration": 0.0007374999999996135
        },
        {
          "name": "D7",
          "midi": 98,
          "time": 22.12426249999996,
          "velocity": 0.7874015748031497,
          "duration": 0.0007374999999996135
        },
        {
          "name": "D4",
          "midi": 62,
          "time": 22.30199999999996,
          "velocity": 0.7874015748031497,
          "duration": 0.0007374999999996135
        },
        {
          "name": "D5",
          "midi": 74,
          "time": 22.30199999999996,
          "velocity": 0.7874015748031497,
          "duration": 0.0007374999999996135
        },
        {
          "name": "C6",
          "midi": 84,
          "time": 22.30199999999996,
          "velocity": 0.7874015748031497,
          "duration": 0.0007374999999996135
        },
        {
          "name": "D6",
          "midi": 86,
          "time": 22.30199999999996,
          "velocity": 0.7874015748031497,
          "duration": 0.0007374999999996135
        },
        {
          "name": "C7",
          "midi": 96,
          "time": 22.30199999999996,
          "velocity": 0.7874015748031497,
          "duration": 0.0007374999999996135
        },
        {
          "name": "D7",
          "midi": 98,
          "time": 22.30199999999996,
          "velocity": 0.7874015748031497,
          "duration": 0.0007374999999996135
        },
        {
          "name": "D7",
          "midi": 98,
          "time": 22.47826249999996,
          "velocity": 0.7874015748031497,
          "duration": 0.0007374999999996135
        },
        {
          "name": "C4",
          "midi": 60,
          "time": 22.65599999999996,
          "velocity": 0.7874015748031497,
          "duration": 0.0007374999999996135
        },
        {
          "name": "C5",
          "midi": 72,
          "time": 22.65599999999996,
          "velocity": 0.7874015748031497,
          "duration": 0.0007374999999996135
        },
        {
          "name": "D5",
          "midi": 74,
          "time": 22.65599999999996,
          "velocity": 0.7874015748031497,
          "duration": 0.0007374999999996135
        },
        {
          "name": "C6",
          "midi": 84,
          "time": 22.65599999999996,
          "velocity": 0.7874015748031497,
          "duration": 0.0007374999999996135
        },
        {
          "name": "D6",
          "midi": 86,
          "time": 22.65599999999996,
          "velocity": 0.7874015748031497,
          "duration": 0.0007374999999996135
        },
        {
          "name": "C7",
          "midi": 96,
          "time": 22.65599999999996,
          "velocity": 0.7874015748031497,
          "duration": 0.0007374999999996135
        },
        {
          "name": "D7",
          "midi": 98,
          "time": 22.65599999999996,
          "velocity": 0.7874015748031497,
          "duration": 0.0007374999999996135
        },
        {
          "name": "C6",
          "midi": 84,
          "time": 22.83226249999996,
          "velocity": 0.7874015748031497,
          "duration": 0.0007374999999996135
        },
        {
          "name": "D6",
          "midi": 86,
          "time": 22.83226249999996,
          "velocity": 0.7874015748031497,
          "duration": 0.0007374999999996135
        },
        {
          "name": "C7",
          "midi": 96,
          "time": 22.83226249999996,
          "velocity": 0.7874015748031497,
          "duration": 0.0007374999999996135
        },
        {
          "name": "D7",
          "midi": 98,
          "time": 22.83226249999996,
          "velocity": 0.7874015748031497,
          "duration": 0.0007374999999996135
        },
        {
          "name": "D4",
          "midi": 62,
          "time": 23.00999999999996,
          "velocity": 0.7874015748031497,
          "duration": 0.0007374999999996135
        },
        {
          "name": "D5",
          "midi": 74,
          "time": 23.00999999999996,
          "velocity": 0.7874015748031497,
          "duration": 0.0007374999999996135
        },
        {
          "name": "D7",
          "midi": 98,
          "time": 23.00999999999996,
          "velocity": 0.7874015748031497,
          "duration": 0.0007374999999996135
        },
        {
          "name": "C6",
          "midi": 84,
          "time": 23.18626249999996,
          "velocity": 0.7874015748031497,
          "duration": 0.0007374999999996135
        },
        {
          "name": "C7",
          "midi": 96,
          "time": 23.18626249999996,
          "velocity": 0.7874015748031497,
          "duration": 0.0007374999999996135
        },
        {
          "name": "D7",
          "midi": 98,
          "time": 23.18626249999996,
          "velocity": 0.7874015748031497,
          "duration": 0.0007374999999996135
        },
        {
          "name": "C#4",
          "midi": 61,
          "time": 23.363999999999958,
          "velocity": 0.7874015748031497,
          "duration": 0.0007374999999996135
        },
        {
          "name": "C#5",
          "midi": 73,
          "time": 23.363999999999958,
          "velocity": 0.7874015748031497,
          "duration": 0.0007374999999996135
        },
        {
          "name": "E5",
          "midi": 76,
          "time": 23.363999999999958,
          "velocity": 0.7874015748031497,
          "duration": 0.0007374999999996135
        },
        {
          "name": "C#6",
          "midi": 85,
          "time": 23.363999999999958,
          "velocity": 0.7874015748031497,
          "duration": 0.0007374999999996135
        },
        {
          "name": "E6",
          "midi": 88,
          "time": 23.363999999999958,
          "velocity": 0.7874015748031497,
          "duration": 0.0007374999999996135
        },
        {
          "name": "C#7",
          "midi": 97,
          "time": 23.363999999999958,
          "velocity": 0.7874015748031497,
          "duration": 0.0007374999999996135
        },
        {
          "name": "E7",
          "midi": 100,
          "time": 23.363999999999958,
          "velocity": 0.7874015748031497,
          "duration": 0.0007374999999996135
        },
        {
          "name": "D4",
          "midi": 62,
          "time": 23.717999999999957,
          "velocity": 0.7874015748031497,
          "duration": 0.0007374999999996135
        },
        {
          "name": "D5",
          "midi": 74,
          "time": 23.717999999999957,
          "velocity": 0.7874015748031497,
          "duration": 0.0007374999999996135
        },
        {
          "name": "D6",
          "midi": 86,
          "time": 23.717999999999957,
          "velocity": 0.7874015748031497,
          "duration": 0.0007374999999996135
        },
        {
          "name": "D7",
          "midi": 98,
          "time": 23.717999999999957,
          "velocity": 0.7874015748031497,
          "duration": 0.0007374999999996135
        },
        {
          "name": "D7",
          "midi": 98,
          "time": 23.895737499999957,
          "velocity": 0.7874015748031497,
          "duration": 0.0007374999999996135
        },
        {
          "name": "D4",
          "midi": 62,
          "time": 24.071999999999957,
          "velocity": 0.7874015748031497,
          "duration": 0.0007374999999996135
        },
        {
          "name": "D5",
          "midi": 74,
          "time": 24.071999999999957,
          "velocity": 0.7874015748031497,
          "duration": 0.0007374999999996135
        },
        {
          "name": "D6",
          "midi": 86,
          "time": 24.071999999999957,
          "velocity": 0.7874015748031497,
          "duration": 0.0007374999999996135
        },
        {
          "name": "D7",
          "midi": 98,
          "time": 24.071999999999957,
          "velocity": 0.7874015748031497,
          "duration": 0.0007374999999996135
        },
        {
          "name": "D7",
          "midi": 98,
          "time": 24.249737499999956,
          "velocity": 0.7874015748031497,
          "duration": 0.0007374999999996135
        },
        {
          "name": "D4",
          "midi": 62,
          "time": 24.425999999999956,
          "velocity": 0.7874015748031497,
          "duration": 0.0007374999999996135
        },
        {
          "name": "C5",
          "midi": 72,
          "time": 24.425999999999956,
          "velocity": 0.7874015748031497,
          "duration": 0.0007374999999996135
        },
        {
          "name": "D5",
          "midi": 74,
          "time": 24.425999999999956,
          "velocity": 0.7874015748031497,
          "duration": 0.0007374999999996135
        },
        {
          "name": "C6",
          "midi": 84,
          "time": 24.425999999999956,
          "velocity": 0.7874015748031497,
          "duration": 0.0007374999999996135
        },
        {
          "name": "D6",
          "midi": 86,
          "time": 24.425999999999956,
          "velocity": 0.7874015748031497,
          "duration": 0.0007374999999996135
        },
        {
          "name": "C7",
          "midi": 96,
          "time": 24.425999999999956,
          "velocity": 0.7874015748031497,
          "duration": 0.0007374999999996135
        },
        {
          "name": "D7",
          "midi": 98,
          "time": 24.425999999999956,
          "velocity": 0.7874015748031497,
          "duration": 0.0007374999999996135
        },
        {
          "name": "C6",
          "midi": 84,
          "time": 24.602262499999956,
          "velocity": 0.7874015748031497,
          "duration": 0.0007374999999996135
        },
        {
          "name": "D6",
          "midi": 86,
          "time": 24.602262499999956,
          "velocity": 0.7874015748031497,
          "duration": 0.0007374999999996135
        },
        {
          "name": "C7",
          "midi": 96,
          "time": 24.602262499999956,
          "velocity": 0.7874015748031497,
          "duration": 0.0007374999999996135
        },
        {
          "name": "D7",
          "midi": 98,
          "time": 24.602262499999956,
          "velocity": 0.7874015748031497,
          "duration": 0.0007374999999996135
        },
        {
          "name": "C#4",
          "midi": 61,
          "time": 24.779999999999955,
          "velocity": 0.7874015748031497,
          "duration": 0.0007374999999996135
        },
        {
          "name": "C#5",
          "midi": 73,
          "time": 24.779999999999955,
          "velocity": 0.7874015748031497,
          "duration": 0.0007374999999996135
        },
        {
          "name": "D5",
          "midi": 74,
          "time": 24.779999999999955,
          "velocity": 0.7874015748031497,
          "duration": 0.0007374999999996135
        },
        {
          "name": "C#6",
          "midi": 85,
          "time": 24.779999999999955,
          "velocity": 0.7874015748031497,
          "duration": 0.0007374999999996135
        },
        {
          "name": "D6",
          "midi": 86,
          "time": 24.779999999999955,
          "velocity": 0.7874015748031497,
          "duration": 0.0007374999999996135
        },
        {
          "name": "C#7",
          "midi": 97,
          "time": 24.779999999999955,
          "velocity": 0.7874015748031497,
          "duration": 0.0007374999999996135
        },
        {
          "name": "D7",
          "midi": 98,
          "time": 24.779999999999955,
          "velocity": 0.7874015748031497,
          "duration": 0.0007374999999996135
        },
        {
          "name": "C6",
          "midi": 84,
          "time": 24.956999999999955,
          "velocity": 0.7874015748031497,
          "duration": 0.0007374999999996135
        },
        {
          "name": "C7",
          "midi": 96,
          "time": 24.956999999999955,
          "velocity": 0.7874015748031497,
          "duration": 0.0007374999999996135
        },
        {
          "name": "D7",
          "midi": 98,
          "time": 24.956999999999955,
          "velocity": 0.7874015748031497,
          "duration": 0.0007374999999996135
        },
        {
          "name": "D4",
          "midi": 62,
          "time": 25.133999999999954,
          "velocity": 0.7874015748031497,
          "duration": 0.0007374999999996135
        },
        {
          "name": "D5",
          "midi": 74,
          "time": 25.133999999999954,
          "velocity": 0.7874015748031497,
          "duration": 0.0007374999999996135
        },
        {
          "name": "C6",
          "midi": 84,
          "time": 25.133999999999954,
          "velocity": 0.7874015748031497,
          "duration": 0.0007374999999996135
        },
        {
          "name": "D6",
          "midi": 86,
          "time": 25.133999999999954,
          "velocity": 0.7874015748031497,
          "duration": 0.0007374999999996135
        },
        {
          "name": "C7",
          "midi": 96,
          "time": 25.133999999999954,
          "velocity": 0.7874015748031497,
          "duration": 0.0007374999999996135
        },
        {
          "name": "D7",
          "midi": 98,
          "time": 25.133999999999954,
          "velocity": 0.7874015748031497,
          "duration": 0.0007374999999996135
        },
        {
          "name": "D7",
          "midi": 98,
          "time": 25.310262499999954,
          "velocity": 0.7874015748031497,
          "duration": 0.0007374999999996135
        },
        {
          "name": "C4",
          "midi": 60,
          "time": 25.487999999999953,
          "velocity": 0.7874015748031497,
          "duration": 0.0007374999999996135
        },
        {
          "name": "C5",
          "midi": 72,
          "time": 25.487999999999953,
          "velocity": 0.7874015748031497,
          "duration": 0.0007374999999996135
        },
        {
          "name": "D5",
          "midi": 74,
          "time": 25.487999999999953,
          "velocity": 0.7874015748031497,
          "duration": 0.0007374999999996135
        },
        {
          "name": "C6",
          "midi": 84,
          "time": 25.487999999999953,
          "velocity": 0.7874015748031497,
          "duration": 0.0007374999999996135
        },
        {
          "name": "D6",
          "midi": 86,
          "time": 25.487999999999953,
          "velocity": 0.7874015748031497,
          "duration": 0.0007374999999996135
        },
        {
          "name": "C7",
          "midi": 96,
          "time": 25.487999999999953,
          "velocity": 0.7874015748031497,
          "duration": 0.0007374999999996135
        },
        {
          "name": "D7",
          "midi": 98,
          "time": 25.487999999999953,
          "velocity": 0.7874015748031497,
          "duration": 0.0007374999999996135
        },
        {
          "name": "C6",
          "midi": 84,
          "time": 25.664999999999953,
          "velocity": 0.7874015748031497,
          "duration": 0.0007374999999996135
        },
        {
          "name": "C7",
          "midi": 96,
          "time": 25.664999999999953,
          "velocity": 0.7874015748031497,
          "duration": 0.0007374999999996135
        },
        {
          "name": "D7",
          "midi": 98,
          "time": 25.664999999999953,
          "velocity": 0.7874015748031497,
          "duration": 0.0007374999999996135
        },
        {
          "name": "D4",
          "midi": 62,
          "time": 25.841999999999953,
          "velocity": 0.7874015748031497,
          "duration": 0.0007374999999996135
        },
        {
          "name": "D5",
          "midi": 74,
          "time": 25.841999999999953,
          "velocity": 0.7874015748031497,
          "duration": 0.0007374999999996135
        },
        {
          "name": "D6",
          "midi": 86,
          "time": 25.841999999999953,
          "velocity": 0.7874015748031497,
          "duration": 0.0007374999999996135
        },
        {
          "name": "D7",
          "midi": 98,
          "time": 25.841999999999953,
          "velocity": 0.7874015748031497,
          "duration": 0.0007374999999996135
        },
        {
          "name": "C6",
          "midi": 84,
          "time": 26.018262499999953,
          "velocity": 0.7874015748031497,
          "duration": 0.0007374999999996135
        },
        {
          "name": "C7",
          "midi": 96,
          "time": 26.018262499999953,
          "velocity": 0.7874015748031497,
          "duration": 0.0007374999999996135
        },
        {
          "name": "D7",
          "midi": 98,
          "time": 26.018262499999953,
          "velocity": 0.7874015748031497,
          "duration": 0.0007374999999996135
        },
        {
          "name": "C#4",
          "midi": 61,
          "time": 26.19599999999995,
          "velocity": 0.7874015748031497,
          "duration": 0.0007374999999996135
        },
        {
          "name": "C#5",
          "midi": 73,
          "time": 26.19599999999995,
          "velocity": 0.7874015748031497,
          "duration": 0.0007374999999996135
        },
        {
          "name": "E5",
          "midi": 76,
          "time": 26.19599999999995,
          "velocity": 0.7874015748031497,
          "duration": 0.0007374999999996135
        },
        {
          "name": "C#6",
          "midi": 85,
          "time": 26.19599999999995,
          "velocity": 0.7874015748031497,
          "duration": 0.0007374999999996135
        },
        {
          "name": "E6",
          "midi": 88,
          "time": 26.19599999999995,
          "velocity": 0.7874015748031497,
          "duration": 0.0007374999999996135
        },
        {
          "name": "C#7",
          "midi": 97,
          "time": 26.19599999999995,
          "velocity": 0.7874015748031497,
          "duration": 0.0007374999999996135
        },
        {
          "name": "E7",
          "midi": 100,
          "time": 26.19599999999995,
          "velocity": 0.7874015748031497,
          "duration": 0.0007374999999996135
        },
        {
          "name": "D4",
          "midi": 62,
          "time": 26.54999999999995,
          "velocity": 0.7874015748031497,
          "duration": 0.0007374999999996135
        },
        {
          "name": "D5",
          "midi": 74,
          "time": 26.54999999999995,
          "velocity": 0.7874015748031497,
          "duration": 0.0007374999999996135
        },
        {
          "name": "D6",
          "midi": 86,
          "time": 26.54999999999995,
          "velocity": 0.7874015748031497,
          "duration": 0.0007374999999996135
        },
        {
          "name": "D7",
          "midi": 98,
          "time": 26.54999999999995,
          "velocity": 0.7874015748031497,
          "duration": 0.0007374999999996135
        },
        {
          "name": "D7",
          "midi": 98,
          "time": 26.72773749999995,
          "velocity": 0.7874015748031497,
          "duration": 0.0007374999999996135
        },
        {
          "name": "D4",
          "midi": 62,
          "time": 26.90399999999995,
          "velocity": 0.7874015748031497,
          "duration": 0.0007374999999996135
        },
        {
          "name": "D5",
          "midi": 74,
          "time": 26.90399999999995,
          "velocity": 0.7874015748031497,
          "duration": 0.0007374999999996135
        },
        {
          "name": "D6",
          "midi": 86,
          "time": 26.90399999999995,
          "velocity": 0.7874015748031497,
          "duration": 0.0007374999999996135
        },
        {
          "name": "D7",
          "midi": 98,
          "time": 26.90399999999995,
          "velocity": 0.7874015748031497,
          "duration": 0.0007374999999996135
        },
        {
          "name": "D7",
          "midi": 98,
          "time": 27.08099999999995,
          "velocity": 0.7874015748031497,
          "duration": 0.0007374999999996135
        },
        {
          "name": "D4",
          "midi": 62,
          "time": 27.25799999999995,
          "velocity": 0.7874015748031497,
          "duration": 0.0007374999999996135
        },
        {
          "name": "C5",
          "midi": 72,
          "time": 27.25799999999995,
          "velocity": 0.7874015748031497,
          "duration": 0.0007374999999996135
        },
        {
          "name": "D5",
          "midi": 74,
          "time": 27.25799999999995,
          "velocity": 0.7874015748031497,
          "duration": 0.0007374999999996135
        },
        {
          "name": "C6",
          "midi": 84,
          "time": 27.25799999999995,
          "velocity": 0.7874015748031497,
          "duration": 0.0007374999999996135
        },
        {
          "name": "D6",
          "midi": 86,
          "time": 27.25799999999995,
          "velocity": 0.7874015748031497,
          "duration": 0.0007374999999996135
        },
        {
          "name": "C7",
          "midi": 96,
          "time": 27.25799999999995,
          "velocity": 0.7874015748031497,
          "duration": 0.0007374999999996135
        },
        {
          "name": "D7",
          "midi": 98,
          "time": 27.25799999999995,
          "velocity": 0.7874015748031497,
          "duration": 0.0007374999999996135
        },
        {
          "name": "D7",
          "midi": 98,
          "time": 27.43499999999995,
          "velocity": 0.7874015748031497,
          "duration": 0.0007374999999996135
        },
        {
          "name": "C#4",
          "midi": 61,
          "time": 27.61199999999995,
          "velocity": 0.7874015748031497,
          "duration": 0.0007374999999996135
        },
        {
          "name": "C#5",
          "midi": 73,
          "time": 27.61199999999995,
          "velocity": 0.7874015748031497,
          "duration": 0.0007374999999996135
        },
        {
          "name": "D5",
          "midi": 74,
          "time": 27.61199999999995,
          "velocity": 0.7874015748031497,
          "duration": 0.0007374999999996135
        },
        {
          "name": "C#6",
          "midi": 85,
          "time": 27.61199999999995,
          "velocity": 0.7874015748031497,
          "duration": 0.0007374999999996135
        },
        {
          "name": "D6",
          "midi": 86,
          "time": 27.61199999999995,
          "velocity": 0.7874015748031497,
          "duration": 0.0007374999999996135
        },
        {
          "name": "C#7",
          "midi": 97,
          "time": 27.61199999999995,
          "velocity": 0.7874015748031497,
          "duration": 0.0007374999999996135
        },
        {
          "name": "D7",
          "midi": 98,
          "time": 27.61199999999995,
          "velocity": 0.7874015748031497,
          "duration": 0.0007374999999996135
        },
        {
          "name": "D7",
          "midi": 98,
          "time": 27.788999999999948,
          "velocity": 0.7874015748031497,
          "duration": 0.0007374999999996135
        },
        {
          "name": "D4",
          "midi": 62,
          "time": 27.965999999999948,
          "velocity": 0.7874015748031497,
          "duration": 0.0007374999999996135
        },
        {
          "name": "D5",
          "midi": 74,
          "time": 27.965999999999948,
          "velocity": 0.7874015748031497,
          "duration": 0.0007374999999996135
        },
        {
          "name": "D6",
          "midi": 86,
          "time": 27.965999999999948,
          "velocity": 0.7874015748031497,
          "duration": 0.0007374999999996135
        },
        {
          "name": "D7",
          "midi": 98,
          "time": 27.965999999999948,
          "velocity": 0.7874015748031497,
          "duration": 0.0007374999999996135
        },
        {
          "name": "D7",
          "midi": 98,
          "time": 28.142999999999947,
          "velocity": 0.7874015748031497,
          "duration": 0.0007374999999996135
        },
        {
          "name": "C4",
          "midi": 60,
          "time": 28.319999999999947,
          "velocity": 0.7874015748031497,
          "duration": 0.0007374999999996135
        },
        {
          "name": "C5",
          "midi": 72,
          "time": 28.319999999999947,
          "velocity": 0.7874015748031497,
          "duration": 0.0007374999999996135
        },
        {
          "name": "D5",
          "midi": 74,
          "time": 28.319999999999947,
          "velocity": 0.7874015748031497,
          "duration": 0.0007374999999996135
        },
        {
          "name": "C6",
          "midi": 84,
          "time": 28.319999999999947,
          "velocity": 0.7874015748031497,
          "duration": 0.0007374999999996135
        },
        {
          "name": "D6",
          "midi": 86,
          "time": 28.319999999999947,
          "velocity": 0.7874015748031497,
          "duration": 0.0007374999999996135
        },
        {
          "name": "C7",
          "midi": 96,
          "time": 28.319999999999947,
          "velocity": 0.7874015748031497,
          "duration": 0.0007374999999996135
        },
        {
          "name": "D7",
          "midi": 98,
          "time": 28.319999999999947,
          "velocity": 0.7874015748031497,
          "duration": 0.0007374999999996135
        },
        {
          "name": "C6",
          "midi": 84,
          "time": 28.496262499999947,
          "velocity": 0.7874015748031497,
          "duration": 0.0007374999999996135
        },
        {
          "name": "D6",
          "midi": 86,
          "time": 28.496262499999947,
          "velocity": 0.7874015748031497,
          "duration": 0.0007374999999996135
        },
        {
          "name": "C7",
          "midi": 96,
          "time": 28.496262499999947,
          "velocity": 0.7874015748031497,
          "duration": 0.0007374999999996135
        },
        {
          "name": "D7",
          "midi": 98,
          "time": 28.496262499999947,
          "velocity": 0.7874015748031497,
          "duration": 0.0007374999999996135
        },
        {
          "name": "D4",
          "midi": 62,
          "time": 28.673999999999946,
          "velocity": 0.7874015748031497,
          "duration": 0.0007374999999996135
        },
        {
          "name": "D5",
          "midi": 74,
          "time": 28.673999999999946,
          "velocity": 0.7874015748031497,
          "duration": 0.0007374999999996135
        },
        {
          "name": "D7",
          "midi": 98,
          "time": 28.673999999999946,
          "velocity": 0.7874015748031497,
          "duration": 0.0007374999999996135
        },
        {
          "name": "C6",
          "midi": 84,
          "time": 28.850999999999946,
          "velocity": 0.7874015748031497,
          "duration": 0.0007374999999996135
        },
        {
          "name": "C7",
          "midi": 96,
          "time": 28.850999999999946,
          "velocity": 0.7874015748031497,
          "duration": 0.0007374999999996135
        },
        {
          "name": "D7",
          "midi": 98,
          "time": 28.850999999999946,
          "velocity": 0.7874015748031497,
          "duration": 0.0007374999999996135
        },
        {
          "name": "C#4",
          "midi": 61,
          "time": 29.027999999999945,
          "velocity": 0.7874015748031497,
          "duration": 0.0007374999999996135
        },
        {
          "name": "C#5",
          "midi": 73,
          "time": 29.027999999999945,
          "velocity": 0.7874015748031497,
          "duration": 0.0007374999999996135
        },
        {
          "name": "D5",
          "midi": 74,
          "time": 29.027999999999945,
          "velocity": 0.7874015748031497,
          "duration": 0.0007374999999996135
        },
        {
          "name": "C#6",
          "midi": 85,
          "time": 29.027999999999945,
          "velocity": 0.7874015748031497,
          "duration": 0.0007374999999996135
        },
        {
          "name": "D6",
          "midi": 86,
          "time": 29.027999999999945,
          "velocity": 0.7874015748031497,
          "duration": 0.0007374999999996135
        },
        {
          "name": "C#7",
          "midi": 97,
          "time": 29.027999999999945,
          "velocity": 0.7874015748031497,
          "duration": 0.0007374999999996135
        },
        {
          "name": "D7",
          "midi": 98,
          "time": 29.027999999999945,
          "velocity": 0.7874015748031497,
          "duration": 0.0007374999999996135
        },
        {
          "name": "D7",
          "midi": 98,
          "time": 29.204999999999945,
          "velocity": 0.7874015748031497,
          "duration": 0.0007374999999996135
        },
        {
          "name": "D4",
          "midi": 62,
          "time": 29.381999999999945,
          "velocity": 0.7874015748031497,
          "duration": 0.0007374999999996135
        },
        {
          "name": "D5",
          "midi": 74,
          "time": 29.381999999999945,
          "velocity": 0.7874015748031497,
          "duration": 0.0007374999999996135
        },
        {
          "name": "D6",
          "midi": 86,
          "time": 29.381999999999945,
          "velocity": 0.7874015748031497,
          "duration": 0.0007374999999996135
        },
        {
          "name": "D7",
          "midi": 98,
          "time": 29.381999999999945,
          "velocity": 0.7874015748031497,
          "duration": 0.0007374999999996135
        },
        {
          "name": "D7",
          "midi": 98,
          "time": 29.559737499999944,
          "velocity": 0.7874015748031497,
          "duration": 0.0007374999999996135
        },
        {
          "name": "D4",
          "midi": 62,
          "time": 29.735999999999944,
          "velocity": 0.7874015748031497,
          "duration": 0.0007374999999996135
        },
        {
          "name": "D5",
          "midi": 74,
          "time": 29.735999999999944,
          "velocity": 0.7874015748031497,
          "duration": 0.0007374999999996135
        },
        {
          "name": "D6",
          "midi": 86,
          "time": 29.735999999999944,
          "velocity": 0.7874015748031497,
          "duration": 0.0007374999999996135
        },
        {
          "name": "D7",
          "midi": 98,
          "time": 29.735999999999944,
          "velocity": 0.7874015748031497,
          "duration": 0.0007374999999996135
        },
        {
          "name": "D7",
          "midi": 98,
          "time": 29.912999999999943,
          "velocity": 0.7874015748031497,
          "duration": 0.0007374999999996135
        },
        {
          "name": "D4",
          "midi": 62,
          "time": 30.089999999999943,
          "velocity": 0.7874015748031497,
          "duration": 0.0007374999999996135
        },
        {
          "name": "C5",
          "midi": 72,
          "time": 30.089999999999943,
          "velocity": 0.7874015748031497,
          "duration": 0.0007374999999996135
        },
        {
          "name": "D5",
          "midi": 74,
          "time": 30.089999999999943,
          "velocity": 0.7874015748031497,
          "duration": 0.0007374999999996135
        },
        {
          "name": "C6",
          "midi": 84,
          "time": 30.089999999999943,
          "velocity": 0.7874015748031497,
          "duration": 0.0007374999999996135
        },
        {
          "name": "D6",
          "midi": 86,
          "time": 30.089999999999943,
          "velocity": 0.7874015748031497,
          "duration": 0.0007374999999996135
        },
        {
          "name": "C7",
          "midi": 96,
          "time": 30.089999999999943,
          "velocity": 0.7874015748031497,
          "duration": 0.0007374999999996135
        },
        {
          "name": "D7",
          "midi": 98,
          "time": 30.089999999999943,
          "velocity": 0.7874015748031497,
          "duration": 0.0007374999999996135
        },
        {
          "name": "D7",
          "midi": 98,
          "time": 30.266999999999943,
          "velocity": 0.7874015748031497,
          "duration": 0.0007374999999996135
        },
        {
          "name": "C#4",
          "midi": 61,
          "time": 30.443999999999942,
          "velocity": 0.7874015748031497,
          "duration": 0.0007374999999996135
        },
        {
          "name": "C#5",
          "midi": 73,
          "time": 30.443999999999942,
          "velocity": 0.7874015748031497,
          "duration": 0.0007374999999996135
        },
        {
          "name": "D5",
          "midi": 74,
          "time": 30.443999999999942,
          "velocity": 0.7874015748031497,
          "duration": 0.0007374999999996135
        },
        {
          "name": "C#6",
          "midi": 85,
          "time": 30.443999999999942,
          "velocity": 0.7874015748031497,
          "duration": 0.0007374999999996135
        },
        {
          "name": "D6",
          "midi": 86,
          "time": 30.443999999999942,
          "velocity": 0.7874015748031497,
          "duration": 0.0007374999999996135
        },
        {
          "name": "C#7",
          "midi": 97,
          "time": 30.443999999999942,
          "velocity": 0.7874015748031497,
          "duration": 0.0007374999999996135
        },
        {
          "name": "D7",
          "midi": 98,
          "time": 30.443999999999942,
          "velocity": 0.7874015748031497,
          "duration": 0.0007374999999996135
        },
        {
          "name": "C6",
          "midi": 84,
          "time": 30.620999999999942,
          "velocity": 0.7874015748031497,
          "duration": 0.0007374999999996135
        },
        {
          "name": "D6",
          "midi": 86,
          "time": 30.620999999999942,
          "velocity": 0.7874015748031497,
          "duration": 0.0007374999999996135
        },
        {
          "name": "C7",
          "midi": 96,
          "time": 30.620999999999942,
          "velocity": 0.7874015748031497,
          "duration": 0.0007374999999996135
        },
        {
          "name": "D7",
          "midi": 98,
          "time": 30.620999999999942,
          "velocity": 0.7874015748031497,
          "duration": 0.0007374999999996135
        },
        {
          "name": "D4",
          "midi": 62,
          "time": 30.79799999999994,
          "velocity": 0.7874015748031497,
          "duration": 0.0007374999999996135
        },
        {
          "name": "D5",
          "midi": 74,
          "time": 30.79799999999994,
          "velocity": 0.7874015748031497,
          "duration": 0.0007374999999996135
        },
        {
          "name": "D7",
          "midi": 98,
          "time": 30.79799999999994,
          "velocity": 0.7874015748031497,
          "duration": 0.0007374999999996135
        },
        {
          "name": "D7",
          "midi": 98,
          "time": 30.97426249999994,
          "velocity": 0.7874015748031497,
          "duration": 0.0007374999999996135
        },
        {
          "name": "C4",
          "midi": 60,
          "time": 31.15199999999994,
          "velocity": 0.7874015748031497,
          "duration": 0.0007374999999996135
        },
        {
          "name": "C5",
          "midi": 72,
          "time": 31.15199999999994,
          "velocity": 0.7874015748031497,
          "duration": 0.0007374999999996135
        },
        {
          "name": "D5",
          "midi": 74,
          "time": 31.15199999999994,
          "velocity": 0.7874015748031497,
          "duration": 0.0007374999999996135
        },
        {
          "name": "C6",
          "midi": 84,
          "time": 31.15199999999994,
          "velocity": 0.7874015748031497,
          "duration": 0.0007374999999996135
        },
        {
          "name": "D6",
          "midi": 86,
          "time": 31.15199999999994,
          "velocity": 0.7874015748031497,
          "duration": 0.0007374999999996135
        },
        {
          "name": "C7",
          "midi": 96,
          "time": 31.15199999999994,
          "velocity": 0.7874015748031497,
          "duration": 0.0007374999999996135
        },
        {
          "name": "D7",
          "midi": 98,
          "time": 31.15199999999994,
          "velocity": 0.7874015748031497,
          "duration": 0.0007374999999996135
        },
        {
          "name": "C6",
          "midi": 84,
          "time": 31.32899999999994,
          "velocity": 0.7874015748031497,
          "duration": 0.0007374999999996135
        },
        {
          "name": "C7",
          "midi": 96,
          "time": 31.32899999999994,
          "velocity": 0.7874015748031497,
          "duration": 0.0007374999999996135
        },
        {
          "name": "D7",
          "midi": 98,
          "time": 31.32899999999994,
          "velocity": 0.7874015748031497,
          "duration": 0.0007374999999996135
        },
        {
          "name": "D4",
          "midi": 62,
          "time": 31.50599999999994,
          "velocity": 0.7874015748031497,
          "duration": 0.0007374999999996135
        },
        {
          "name": "D5",
          "midi": 74,
          "time": 31.50599999999994,
          "velocity": 0.7874015748031497,
          "duration": 0.0007374999999996135
        },
        {
          "name": "D6",
          "midi": 86,
          "time": 31.50599999999994,
          "velocity": 0.7874015748031497,
          "duration": 0.0007374999999996135
        },
        {
          "name": "D7",
          "midi": 98,
          "time": 31.50599999999994,
          "velocity": 0.7874015748031497,
          "duration": 0.0007374999999996135
        },
        {
          "name": "C6",
          "midi": 84,
          "time": 31.68299999999994,
          "velocity": 0.7874015748031497,
          "duration": 0.0007374999999996135
        },
        {
          "name": "C7",
          "midi": 96,
          "time": 31.68299999999994,
          "velocity": 0.7874015748031497,
          "duration": 0.0007374999999996135
        },
        {
          "name": "D7",
          "midi": 98,
          "time": 31.68299999999994,
          "velocity": 0.7874015748031497,
          "duration": 0.0007374999999996135
        },
        {
          "name": "C#4",
          "midi": 61,
          "time": 31.85999999999994,
          "velocity": 0.7874015748031497,
          "duration": 0.0007374999999996135
        },
        {
          "name": "C#5",
          "midi": 73,
          "time": 31.85999999999994,
          "velocity": 0.7874015748031497,
          "duration": 0.0007374999999996135
        },
        {
          "name": "D5",
          "midi": 74,
          "time": 31.85999999999994,
          "velocity": 0.7874015748031497,
          "duration": 0.0007374999999996135
        },
        {
          "name": "C#6",
          "midi": 85,
          "time": 31.85999999999994,
          "velocity": 0.7874015748031497,
          "duration": 0.0007374999999996135
        },
        {
          "name": "D6",
          "midi": 86,
          "time": 31.85999999999994,
          "velocity": 0.7874015748031497,
          "duration": 0.0007374999999996135
        },
        {
          "name": "C#7",
          "midi": 97,
          "time": 31.85999999999994,
          "velocity": 0.7874015748031497,
          "duration": 0.0007374999999996135
        },
        {
          "name": "D7",
          "midi": 98,
          "time": 31.85999999999994,
          "velocity": 0.7874015748031497,
          "duration": 0.0007374999999996135
        },
        {
          "name": "D7",
          "midi": 98,
          "time": 32.03699999999994,
          "velocity": 0.7874015748031497,
          "duration": 0.0007374999999996135
        },
        {
          "name": "D4",
          "midi": 62,
          "time": 32.21399999999994,
          "velocity": 0.7874015748031497,
          "duration": 0.0007374999999996135
        },
        {
          "name": "D5",
          "midi": 74,
          "time": 32.21399999999994,
          "velocity": 0.7874015748031497,
          "duration": 0.0007374999999996135
        },
        {
          "name": "D6",
          "midi": 86,
          "time": 32.21399999999994,
          "velocity": 0.7874015748031497,
          "duration": 0.0007374999999996135
        },
        {
          "name": "D7",
          "midi": 98,
          "time": 32.21399999999994,
          "velocity": 0.7874015748031497,
          "duration": 0.0007374999999996135
        },
        {
          "name": "D7",
          "midi": 98,
          "time": 32.39026249999994,
          "velocity": 0.7874015748031497,
          "duration": 0.0007374999999996135
        },
        {
          "name": "D4",
          "midi": 62,
          "time": 32.56799999999994,
          "velocity": 0.7874015748031497,
          "duration": 0.0007374999999996135
        },
        {
          "name": "D5",
          "midi": 74,
          "time": 32.56799999999994,
          "velocity": 0.7874015748031497,
          "duration": 0.0007374999999996135
        },
        {
          "name": "D6",
          "midi": 86,
          "time": 32.56799999999994,
          "velocity": 0.7874015748031497,
          "duration": 0.0007374999999996135
        },
        {
          "name": "D7",
          "midi": 98,
          "time": 32.56799999999994,
          "velocity": 0.7874015748031497,
          "duration": 0.0007374999999996135
        },
        {
          "name": "D7",
          "midi": 98,
          "time": 32.74499999999994,
          "velocity": 0.7874015748031497,
          "duration": 0.0007374999999996135
        },
        {
          "name": "D4",
          "midi": 62,
          "time": 32.92199999999994,
          "velocity": 0.7874015748031497,
          "duration": 0.0007374999999996135
        },
        {
          "name": "C5",
          "midi": 72,
          "time": 32.92199999999994,
          "velocity": 0.7874015748031497,
          "duration": 0.0007374999999996135
        },
        {
          "name": "D5",
          "midi": 74,
          "time": 32.92199999999994,
          "velocity": 0.7874015748031497,
          "duration": 0.0007374999999996135
        },
        {
          "name": "C6",
          "midi": 84,
          "time": 32.92199999999994,
          "velocity": 0.7874015748031497,
          "duration": 0.0007374999999996135
        },
        {
          "name": "D6",
          "midi": 86,
          "time": 32.92199999999994,
          "velocity": 0.7874015748031497,
          "duration": 0.0007374999999996135
        },
        {
          "name": "C7",
          "midi": 96,
          "time": 32.92199999999994,
          "velocity": 0.7874015748031497,
          "duration": 0.0007374999999996135
        },
        {
          "name": "D7",
          "midi": 98,
          "time": 32.92199999999994,
          "velocity": 0.7874015748031497,
          "duration": 0.0007374999999996135
        },
        {
          "name": "C6",
          "midi": 84,
          "time": 33.09899999999994,
          "velocity": 0.7874015748031497,
          "duration": 0.0007374999999996135
        },
        {
          "name": "C7",
          "midi": 96,
          "time": 33.09899999999994,
          "velocity": 0.7874015748031497,
          "duration": 0.0007374999999996135
        },
        {
          "name": "D7",
          "midi": 98,
          "time": 33.09899999999994,
          "velocity": 0.7874015748031497,
          "duration": 0.0007374999999996135
        },
        {
          "name": "C#4",
          "midi": 61,
          "time": 33.27599999999994,
          "velocity": 0.7874015748031497,
          "duration": 0.0007374999999996135
        },
        {
          "name": "C#5",
          "midi": 73,
          "time": 33.27599999999994,
          "velocity": 0.7874015748031497,
          "duration": 0.0007374999999996135
        },
        {
          "name": "D5",
          "midi": 74,
          "time": 33.27599999999994,
          "velocity": 0.7874015748031497,
          "duration": 0.0007374999999996135
        },
        {
          "name": "C#6",
          "midi": 85,
          "time": 33.27599999999994,
          "velocity": 0.7874015748031497,
          "duration": 0.0007374999999996135
        },
        {
          "name": "D6",
          "midi": 86,
          "time": 33.27599999999994,
          "velocity": 0.7874015748031497,
          "duration": 0.0007374999999996135
        },
        {
          "name": "C#7",
          "midi": 97,
          "time": 33.27599999999994,
          "velocity": 0.7874015748031497,
          "duration": 0.0007374999999996135
        },
        {
          "name": "D7",
          "midi": 98,
          "time": 33.27599999999994,
          "velocity": 0.7874015748031497,
          "duration": 0.0007374999999996135
        },
        {
          "name": "D7",
          "midi": 98,
          "time": 33.45299999999994,
          "velocity": 0.7874015748031497,
          "duration": 0.0007374999999996135
        },
        {
          "name": "D4",
          "midi": 62,
          "time": 33.62999999999994,
          "velocity": 0.7874015748031497,
          "duration": 0.0007374999999996135
        },
        {
          "name": "D5",
          "midi": 74,
          "time": 33.62999999999994,
          "velocity": 0.7874015748031497,
          "duration": 0.0007374999999996135
        },
        {
          "name": "C6",
          "midi": 84,
          "time": 33.62999999999994,
          "velocity": 0.7874015748031497,
          "duration": 0.0007374999999996135
        },
        {
          "name": "D6",
          "midi": 86,
          "time": 33.62999999999994,
          "velocity": 0.7874015748031497,
          "duration": 0.0007374999999996135
        },
        {
          "name": "C7",
          "midi": 96,
          "time": 33.62999999999994,
          "velocity": 0.7874015748031497,
          "duration": 0.0007374999999996135
        },
        {
          "name": "D7",
          "midi": 98,
          "time": 33.62999999999994,
          "velocity": 0.7874015748031497,
          "duration": 0.0007374999999996135
        },
        {
          "name": "D7",
          "midi": 98,
          "time": 33.80699999999994,
          "velocity": 0.7874015748031497,
          "duration": 0.0007374999999996135
        },
        {
          "name": "C4",
          "midi": 60,
          "time": 33.98399999999994,
          "velocity": 0.7874015748031497,
          "duration": 0.0007374999999996135
        },
        {
          "name": "C5",
          "midi": 72,
          "time": 33.98399999999994,
          "velocity": 0.7874015748031497,
          "duration": 0.0007374999999996135
        },
        {
          "name": "D5",
          "midi": 74,
          "time": 33.98399999999994,
          "velocity": 0.7874015748031497,
          "duration": 0.0007374999999996135
        },
        {
          "name": "C6",
          "midi": 84,
          "time": 33.98399999999994,
          "velocity": 0.7874015748031497,
          "duration": 0.0007374999999996135
        },
        {
          "name": "D6",
          "midi": 86,
          "time": 33.98399999999994,
          "velocity": 0.7874015748031497,
          "duration": 0.0007374999999996135
        },
        {
          "name": "C7",
          "midi": 96,
          "time": 33.98399999999994,
          "velocity": 0.7874015748031497,
          "duration": 0.0007374999999996135
        },
        {
          "name": "D7",
          "midi": 98,
          "time": 33.98399999999994,
          "velocity": 0.7874015748031497,
          "duration": 0.0007374999999996135
        },
        {
          "name": "C6",
          "midi": 84,
          "time": 34.16099999999994,
          "velocity": 0.7874015748031497,
          "duration": 0.0007374999999996135
        },
        {
          "name": "C7",
          "midi": 96,
          "time": 34.16099999999994,
          "velocity": 0.7874015748031497,
          "duration": 0.0007374999999996135
        },
        {
          "name": "D7",
          "midi": 98,
          "time": 34.16099999999994,
          "velocity": 0.7874015748031497,
          "duration": 0.0007374999999996135
        },
        {
          "name": "D4",
          "midi": 62,
          "time": 34.33799999999994,
          "velocity": 0.7874015748031497,
          "duration": 0.0007374999999996135
        },
        {
          "name": "D5",
          "midi": 74,
          "time": 34.33799999999994,
          "velocity": 0.7874015748031497,
          "duration": 0.0007374999999996135
        },
        {
          "name": "D6",
          "midi": 86,
          "time": 34.33799999999994,
          "velocity": 0.7874015748031497,
          "duration": 0.0007374999999996135
        },
        {
          "name": "D7",
          "midi": 98,
          "time": 34.33799999999994,
          "velocity": 0.7874015748031497,
          "duration": 0.0007374999999996135
        },
        {
          "name": "C6",
          "midi": 84,
          "time": 34.515737499999936,
          "velocity": 0.7874015748031497,
          "duration": 0.0007374999999996135
        },
        {
          "name": "C7",
          "midi": 96,
          "time": 34.515737499999936,
          "velocity": 0.7874015748031497,
          "duration": 0.0007374999999996135
        },
        {
          "name": "D7",
          "midi": 98,
          "time": 34.515737499999936,
          "velocity": 0.7874015748031497,
          "duration": 0.0007374999999996135
        },
        {
          "name": "C#4",
          "midi": 61,
          "time": 34.691999999999936,
          "velocity": 0.7874015748031497,
          "duration": 0.0007374999999996135
        },
        {
          "name": "C#5",
          "midi": 73,
          "time": 34.691999999999936,
          "velocity": 0.7874015748031497,
          "duration": 0.0007374999999996135
        },
        {
          "name": "D5",
          "midi": 74,
          "time": 34.691999999999936,
          "velocity": 0.7874015748031497,
          "duration": 0.0007374999999996135
        },
        {
          "name": "C#6",
          "midi": 85,
          "time": 34.691999999999936,
          "velocity": 0.7874015748031497,
          "duration": 0.0007374999999996135
        },
        {
          "name": "D6",
          "midi": 86,
          "time": 34.691999999999936,
          "velocity": 0.7874015748031497,
          "duration": 0.0007374999999996135
        },
        {
          "name": "C#7",
          "midi": 97,
          "time": 34.691999999999936,
          "velocity": 0.7874015748031497,
          "duration": 0.0007374999999996135
        },
        {
          "name": "D7",
          "midi": 98,
          "time": 34.691999999999936,
          "velocity": 0.7874015748031497,
          "duration": 0.0007374999999996135
        },
        {
          "name": "D7",
          "midi": 98,
          "time": 34.868262499999936,
          "velocity": 0.7874015748031497,
          "duration": 0.0007374999999996135
        },
        {
          "name": "D4",
          "midi": 62,
          "time": 35.045999999999935,
          "velocity": 0.7874015748031497,
          "duration": 0.0007374999999996135
        },
        {
          "name": "D5",
          "midi": 74,
          "time": 35.045999999999935,
          "velocity": 0.7874015748031497,
          "duration": 0.0007374999999996135
        },
        {
          "name": "D6",
          "midi": 86,
          "time": 35.045999999999935,
          "velocity": 0.7874015748031497,
          "duration": 0.0007374999999996135
        },
        {
          "name": "D7",
          "midi": 98,
          "time": 35.045999999999935,
          "velocity": 0.7874015748031497,
          "duration": 0.0007374999999996135
        },
        {
          "name": "D7",
          "midi": 98,
          "time": 35.222999999999935,
          "velocity": 0.7874015748031497,
          "duration": 0.0007374999999996135
        },
        {
          "name": "D4",
          "midi": 62,
          "time": 35.399999999999935,
          "velocity": 0.7874015748031497,
          "duration": 0.0007374999999996135
        },
        {
          "name": "D5",
          "midi": 74,
          "time": 35.399999999999935,
          "velocity": 0.7874015748031497,
          "duration": 0.0007374999999996135
        },
        {
          "name": "D6",
          "midi": 86,
          "time": 35.399999999999935,
          "velocity": 0.7874015748031497,
          "duration": 0.0007374999999996135
        },
        {
          "name": "D7",
          "midi": 98,
          "time": 35.399999999999935,
          "velocity": 0.7874015748031497,
          "duration": 0.0007374999999996135
        },
        {
          "name": "D7",
          "midi": 98,
          "time": 35.576262499999935,
          "velocity": 0.7874015748031497,
          "duration": 0.0007374999999996135
        },
        {
          "name": "D4",
          "midi": 62,
          "time": 35.753999999999934,
          "velocity": 0.7874015748031497,
          "duration": 0.0007374999999996135
        },
        {
          "name": "C5",
          "midi": 72,
          "time": 35.753999999999934,
          "velocity": 0.7874015748031497,
          "duration": 0.0007374999999996135
        },
        {
          "name": "D5",
          "midi": 74,
          "time": 35.753999999999934,
          "velocity": 0.7874015748031497,
          "duration": 0.0007374999999996135
        },
        {
          "name": "C6",
          "midi": 84,
          "time": 35.753999999999934,
          "velocity": 0.7874015748031497,
          "duration": 0.0007374999999996135
        },
        {
          "name": "D6",
          "midi": 86,
          "time": 35.753999999999934,
          "velocity": 0.7874015748031497,
          "duration": 0.0007374999999996135
        },
        {
          "name": "C7",
          "midi": 96,
          "time": 35.753999999999934,
          "velocity": 0.7874015748031497,
          "duration": 0.0007374999999996135
        },
        {
          "name": "D7",
          "midi": 98,
          "time": 35.753999999999934,
          "velocity": 0.7874015748031497,
          "duration": 0.0007374999999996135
        },
        {
          "name": "C6",
          "midi": 84,
          "time": 35.93099999999993,
          "velocity": 0.7874015748031497,
          "duration": 0.0007374999999996135
        },
        {
          "name": "C7",
          "midi": 96,
          "time": 35.93099999999993,
          "velocity": 0.7874015748031497,
          "duration": 0.0007374999999996135
        },
        {
          "name": "D7",
          "midi": 98,
          "time": 35.93099999999993,
          "velocity": 0.7874015748031497,
          "duration": 0.0007374999999996135
        },
        {
          "name": "C#4",
          "midi": 61,
          "time": 36.10799999999993,
          "velocity": 0.7874015748031497,
          "duration": 0.0007374999999996135
        },
        {
          "name": "C#5",
          "midi": 73,
          "time": 36.10799999999993,
          "velocity": 0.7874015748031497,
          "duration": 0.0007374999999996135
        },
        {
          "name": "D5",
          "midi": 74,
          "time": 36.10799999999993,
          "velocity": 0.7874015748031497,
          "duration": 0.0007374999999996135
        },
        {
          "name": "C#6",
          "midi": 85,
          "time": 36.10799999999993,
          "velocity": 0.7874015748031497,
          "duration": 0.0007374999999996135
        },
        {
          "name": "D6",
          "midi": 86,
          "time": 36.10799999999993,
          "velocity": 0.7874015748031497,
          "duration": 0.0007374999999996135
        },
        {
          "name": "C#7",
          "midi": 97,
          "time": 36.10799999999993,
          "velocity": 0.7874015748031497,
          "duration": 0.0007374999999996135
        },
        {
          "name": "D7",
          "midi": 98,
          "time": 36.10799999999993,
          "velocity": 0.7874015748031497,
          "duration": 0.0007374999999996135
        },
        {
          "name": "C6",
          "midi": 84,
          "time": 36.28426249999993,
          "velocity": 0.7874015748031497,
          "duration": 0.0007374999999996135
        },
        {
          "name": "C7",
          "midi": 96,
          "time": 36.28426249999993,
          "velocity": 0.7874015748031497,
          "duration": 0.0007374999999996135
        },
        {
          "name": "D7",
          "midi": 98,
          "time": 36.28426249999993,
          "velocity": 0.7874015748031497,
          "duration": 0.0007374999999996135
        },
        {
          "name": "D4",
          "midi": 62,
          "time": 36.46199999999993,
          "velocity": 0.7874015748031497,
          "duration": 0.0007374999999996135
        },
        {
          "name": "C5",
          "midi": 72,
          "time": 36.46199999999993,
          "velocity": 0.7874015748031497,
          "duration": 0.0007374999999996135
        },
        {
          "name": "D5",
          "midi": 74,
          "time": 36.46199999999993,
          "velocity": 0.7874015748031497,
          "duration": 0.0007374999999996135
        },
        {
          "name": "C6",
          "midi": 84,
          "time": 36.46199999999993,
          "velocity": 0.7874015748031497,
          "duration": 0.0007374999999996135
        },
        {
          "name": "D6",
          "midi": 86,
          "time": 36.46199999999993,
          "velocity": 0.7874015748031497,
          "duration": 0.0007374999999996135
        },
        {
          "name": "C7",
          "midi": 96,
          "time": 36.46199999999993,
          "velocity": 0.7874015748031497,
          "duration": 0.0007374999999996135
        },
        {
          "name": "D7",
          "midi": 98,
          "time": 36.46199999999993,
          "velocity": 0.7874015748031497,
          "duration": 0.0007374999999996135
        },
        {
          "name": "D7",
          "midi": 98,
          "time": 36.63899999999993,
          "velocity": 0.7874015748031497,
          "duration": 0.0007374999999996135
        },
        {
          "name": "E4",
          "midi": 64,
          "time": 36.81599999999993,
          "velocity": 0.7874015748031497,
          "duration": 0.0007374999999996135
        },
        {
          "name": "C5",
          "midi": 72,
          "time": 36.81599999999993,
          "velocity": 0.7874015748031497,
          "duration": 0.0007374999999996135
        },
        {
          "name": "E5",
          "midi": 76,
          "time": 36.81599999999993,
          "velocity": 0.7874015748031497,
          "duration": 0.0007374999999996135
        },
        {
          "name": "C6",
          "midi": 84,
          "time": 36.81599999999993,
          "velocity": 0.7874015748031497,
          "duration": 0.0007374999999996135
        },
        {
          "name": "E6",
          "midi": 88,
          "time": 36.81599999999993,
          "velocity": 0.7874015748031497,
          "duration": 0.0007374999999996135
        },
        {
          "name": "C7",
          "midi": 96,
          "time": 36.81599999999993,
          "velocity": 0.7874015748031497,
          "duration": 0.0007374999999996135
        },
        {
          "name": "E7",
          "midi": 100,
          "time": 36.81599999999993,
          "velocity": 0.7874015748031497,
          "duration": 0.0007374999999996135
        },
        {
          "name": "C#4",
          "midi": 61,
          "time": 37.16999999999993,
          "velocity": 0.7874015748031497,
          "duration": 0.0007374999999996135
        },
        {
          "name": "C#5",
          "midi": 73,
          "time": 37.16999999999993,
          "velocity": 0.7874015748031497,
          "duration": 0.0007374999999996135
        },
        {
          "name": "C#6",
          "midi": 85,
          "time": 37.16999999999993,
          "velocity": 0.7874015748031497,
          "duration": 0.0007374999999996135
        },
        {
          "name": "C#7",
          "midi": 97,
          "time": 37.16999999999993,
          "velocity": 0.7874015748031497,
          "duration": 0.0007374999999996135
        },
        {
          "name": "E4",
          "midi": 64,
          "time": 37.34699999999993,
          "velocity": 0.7874015748031497,
          "duration": 0.0007374999999996135
        },
        {
          "name": "C5",
          "midi": 72,
          "time": 37.34699999999993,
          "velocity": 0.7874015748031497,
          "duration": 0.0007374999999996135
        },
        {
          "name": "E5",
          "midi": 76,
          "time": 37.34699999999993,
          "velocity": 0.7874015748031497,
          "duration": 0.0007374999999996135
        },
        {
          "name": "C6",
          "midi": 84,
          "time": 37.34699999999993,
          "velocity": 0.7874015748031497,
          "duration": 0.0007374999999996135
        },
        {
          "name": "E6",
          "midi": 88,
          "time": 37.34699999999993,
          "velocity": 0.7874015748031497,
          "duration": 0.0007374999999996135
        },
        {
          "name": "C7",
          "midi": 96,
          "time": 37.34699999999993,
          "velocity": 0.7874015748031497,
          "duration": 0.0007374999999996135
        },
        {
          "name": "D7",
          "midi": 98,
          "time": 37.34699999999993,
          "velocity": 0.7874015748031497,
          "duration": 0.0007374999999996135
        },
        {
          "name": "E4",
          "midi": 64,
          "time": 37.87799999999993,
          "velocity": 0.7874015748031497,
          "duration": 0.0007374999999996135
        },
        {
          "name": "C5",
          "midi": 72,
          "time": 37.87799999999993,
          "velocity": 0.7874015748031497,
          "duration": 0.0007374999999996135
        },
        {
          "name": "E5",
          "midi": 76,
          "time": 37.87799999999993,
          "velocity": 0.7874015748031497,
          "duration": 0.0007374999999996135
        },
        {
          "name": "C6",
          "midi": 84,
          "time": 37.87799999999993,
          "velocity": 0.7874015748031497,
          "duration": 0.0007374999999996135
        },
        {
          "name": "E6",
          "midi": 88,
          "time": 37.87799999999993,
          "velocity": 0.7874015748031497,
          "duration": 0.0007374999999996135
        },
        {
          "name": "C7",
          "midi": 96,
          "time": 37.87799999999993,
          "velocity": 0.7874015748031497,
          "duration": 0.0007374999999996135
        },
        {
          "name": "E7",
          "midi": 100,
          "time": 37.87799999999993,
          "velocity": 0.7874015748031497,
          "duration": 0.0007374999999996135
        },
        {
          "name": "C#4",
          "midi": 61,
          "time": 38.23199999999993,
          "velocity": 0.7874015748031497,
          "duration": 0.0007374999999996135
        },
        {
          "name": "C#5",
          "midi": 73,
          "time": 38.23199999999993,
          "velocity": 0.7874015748031497,
          "duration": 0.0007374999999996135
        },
        {
          "name": "C#6",
          "midi": 85,
          "time": 38.23199999999993,
          "velocity": 0.7874015748031497,
          "duration": 0.0007374999999996135
        },
        {
          "name": "C#7",
          "midi": 97,
          "time": 38.23199999999993,
          "velocity": 0.7874015748031497,
          "duration": 0.0007374999999996135
        },
        {
          "name": "E4",
          "midi": 64,
          "time": 38.40899999999993,
          "velocity": 0.7874015748031497,
          "duration": 0.0007374999999996135
        },
        {
          "name": "C5",
          "midi": 72,
          "time": 38.40899999999993,
          "velocity": 0.7874015748031497,
          "duration": 0.0007374999999996135
        },
        {
          "name": "E5",
          "midi": 76,
          "time": 38.40899999999993,
          "velocity": 0.7874015748031497,
          "duration": 0.0007374999999996135
        },
        {
          "name": "C6",
          "midi": 84,
          "time": 38.40899999999993,
          "velocity": 0.7874015748031497,
          "duration": 0.0007374999999996135
        },
        {
          "name": "E6",
          "midi": 88,
          "time": 38.40899999999993,
          "velocity": 0.7874015748031497,
          "duration": 0.0007374999999996135
        },
        {
          "name": "C7",
          "midi": 96,
          "time": 38.40899999999993,
          "velocity": 0.7874015748031497,
          "duration": 0.0007374999999996135
        },
        {
          "name": "D7",
          "midi": 98,
          "time": 38.40899999999993,
          "velocity": 0.7874015748031497,
          "duration": 0.0007374999999996135
        },
        {
          "name": "C#4",
          "midi": 61,
          "time": 38.76299999999993,
          "velocity": 0.7874015748031497,
          "duration": 0.0007374999999996135
        },
        {
          "name": "C#5",
          "midi": 73,
          "time": 38.76299999999993,
          "velocity": 0.7874015748031497,
          "duration": 0.0007374999999996135
        },
        {
          "name": "C#6",
          "midi": 85,
          "time": 38.76299999999993,
          "velocity": 0.7874015748031497,
          "duration": 0.0007374999999996135
        },
        {
          "name": "C#7",
          "midi": 97,
          "time": 38.76299999999993,
          "velocity": 0.7874015748031497,
          "duration": 0.0007374999999996135
        },
        {
          "name": "E4",
          "midi": 64,
          "time": 38.93999999999993,
          "velocity": 0.7874015748031497,
          "duration": 0.0007374999999996135
        },
        {
          "name": "C5",
          "midi": 72,
          "time": 38.93999999999993,
          "velocity": 0.7874015748031497,
          "duration": 0.0007374999999996135
        },
        {
          "name": "E5",
          "midi": 76,
          "time": 38.93999999999993,
          "velocity": 0.7874015748031497,
          "duration": 0.0007374999999996135
        },
        {
          "name": "C6",
          "midi": 84,
          "time": 38.93999999999993,
          "velocity": 0.7874015748031497,
          "duration": 0.0007374999999996135
        },
        {
          "name": "E6",
          "midi": 88,
          "time": 38.93999999999993,
          "velocity": 0.7874015748031497,
          "duration": 0.0007374999999996135
        },
        {
          "name": "C7",
          "midi": 96,
          "time": 38.93999999999993,
          "velocity": 0.7874015748031497,
          "duration": 0.0007374999999996135
        },
        {
          "name": "E7",
          "midi": 100,
          "time": 38.93999999999993,
          "velocity": 0.7874015748031497,
          "duration": 0.0007374999999996135
        },
        {
          "name": "C6",
          "midi": 84,
          "time": 39.11626249999993,
          "velocity": 0.7874015748031497,
          "duration": 0.0007374999999996135
        },
        {
          "name": "C7",
          "midi": 96,
          "time": 39.11626249999993,
          "velocity": 0.7874015748031497,
          "duration": 0.0007374999999996135
        },
        {
          "name": "C#4",
          "midi": 61,
          "time": 39.293999999999926,
          "velocity": 0.7874015748031497,
          "duration": 0.0007374999999996135
        },
        {
          "name": "C#5",
          "midi": 73,
          "time": 39.293999999999926,
          "velocity": 0.7874015748031497,
          "duration": 0.0007374999999996135
        },
        {
          "name": "C#6",
          "midi": 85,
          "time": 39.293999999999926,
          "velocity": 0.7874015748031497,
          "duration": 0.0007374999999996135
        },
        {
          "name": "C#7",
          "midi": 97,
          "time": 39.293999999999926,
          "velocity": 0.7874015748031497,
          "duration": 0.0007374999999996135
        },
        {
          "name": "C#4",
          "midi": 61,
          "time": 39.470999999999925,
          "velocity": 0.7874015748031497,
          "duration": 0.0007374999999996135
        },
        {
          "name": "C#5",
          "midi": 73,
          "time": 39.470999999999925,
          "velocity": 0.7874015748031497,
          "duration": 0.0007374999999996135
        },
        {
          "name": "C#6",
          "midi": 85,
          "time": 39.470999999999925,
          "velocity": 0.7874015748031497,
          "duration": 0.0007374999999996135
        },
        {
          "name": "C#7",
          "midi": 97,
          "time": 39.470999999999925,
          "velocity": 0.7874015748031497,
          "duration": 0.0007374999999996135
        },
        {
          "name": "D4",
          "midi": 62,
          "time": 39.647999999999925,
          "velocity": 0.7874015748031497,
          "duration": 0.0007374999999996135
        },
        {
          "name": "C5",
          "midi": 72,
          "time": 39.647999999999925,
          "velocity": 0.7874015748031497,
          "duration": 0.0007374999999996135
        },
        {
          "name": "D5",
          "midi": 74,
          "time": 39.647999999999925,
          "velocity": 0.7874015748031497,
          "duration": 0.0007374999999996135
        },
        {
          "name": "C6",
          "midi": 84,
          "time": 39.647999999999925,
          "velocity": 0.7874015748031497,
          "duration": 0.0007374999999996135
        },
        {
          "name": "D6",
          "midi": 86,
          "time": 39.647999999999925,
          "velocity": 0.7874015748031497,
          "duration": 0.0007374999999996135
        },
        {
          "name": "C7",
          "midi": 96,
          "time": 39.647999999999925,
          "velocity": 0.7874015748031497,
          "duration": 0.0007374999999996135
        },
        {
          "name": "D7",
          "midi": 98,
          "time": 39.647999999999925,
          "velocity": 0.7874015748031497,
          "duration": 0.0007374999999996135
        },
        {
          "name": "E4",
          "midi": 64,
          "time": 40.001999999999924,
          "velocity": 0.7874015748031497,
          "duration": 0.0007374999999996135
        },
        {
          "name": "E5",
          "midi": 76,
          "time": 40.001999999999924,
          "velocity": 0.7874015748031497,
          "duration": 0.0007374999999996135
        },
        {
          "name": "E6",
          "midi": 88,
          "time": 40.001999999999924,
          "velocity": 0.7874015748031497,
          "duration": 0.0007374999999996135
        },
        {
          "name": "E7",
          "midi": 100,
          "time": 40.001999999999924,
          "velocity": 0.7874015748031497,
          "duration": 0.0007374999999996135
        },
        {
          "name": "C6",
          "midi": 84,
          "time": 40.178262499999924,
          "velocity": 0.7874015748031497,
          "duration": 0.0007374999999996135
        },
        {
          "name": "C7",
          "midi": 96,
          "time": 40.178262499999924,
          "velocity": 0.7874015748031497,
          "duration": 0.0007374999999996135
        },
        {
          "name": "E7",
          "midi": 100,
          "time": 40.178262499999924,
          "velocity": 0.7874015748031497,
          "duration": 0.0007374999999996135
        },
        {
          "name": "C#4",
          "midi": 61,
          "time": 40.35599999999992,
          "velocity": 0.7874015748031497,
          "duration": 0.0007374999999996135
        },
        {
          "name": "C#5",
          "midi": 73,
          "time": 40.35599999999992,
          "velocity": 0.7874015748031497,
          "duration": 0.0007374999999996135
        },
        {
          "name": "E5",
          "midi": 76,
          "time": 40.35599999999992,
          "velocity": 0.7874015748031497,
          "duration": 0.0007374999999996135
        },
        {
          "name": "C#6",
          "midi": 85,
          "time": 40.35599999999992,
          "velocity": 0.7874015748031497,
          "duration": 0.0007374999999996135
        },
        {
          "name": "E6",
          "midi": 88,
          "time": 40.35599999999992,
          "velocity": 0.7874015748031497,
          "duration": 0.0007374999999996135
        },
        {
          "name": "C#7",
          "midi": 97,
          "time": 40.35599999999992,
          "velocity": 0.7874015748031497,
          "duration": 0.0007374999999996135
        },
        {
          "name": "E7",
          "midi": 100,
          "time": 40.35599999999992,
          "velocity": 0.7874015748031497,
          "duration": 0.0007374999999996135
        },
        {
          "name": "E7",
          "midi": 100,
          "time": 40.53299999999992,
          "velocity": 0.7874015748031497,
          "duration": 0.0007374999999996135
        },
        {
          "name": "E4",
          "midi": 64,
          "time": 40.70999999999992,
          "velocity": 0.7874015748031497,
          "duration": 0.0007374999999996135
        },
        {
          "name": "E5",
          "midi": 76,
          "time": 40.70999999999992,
          "velocity": 0.7874015748031497,
          "duration": 0.0007374999999996135
        },
        {
          "name": "E6",
          "midi": 88,
          "time": 40.70999999999992,
          "velocity": 0.7874015748031497,
          "duration": 0.0007374999999996135
        },
        {
          "name": "E7",
          "midi": 100,
          "time": 40.70999999999992,
          "velocity": 0.7874015748031497,
          "duration": 0.0007374999999996135
        },
        {
          "name": "C6",
          "midi": 84,
          "time": 40.88699999999992,
          "velocity": 0.7874015748031497,
          "duration": 0.0007374999999996135
        },
        {
          "name": "C7",
          "midi": 96,
          "time": 40.88699999999992,
          "velocity": 0.7874015748031497,
          "duration": 0.0007374999999996135
        },
        {
          "name": "E7",
          "midi": 100,
          "time": 40.88699999999992,
          "velocity": 0.7874015748031497,
          "duration": 0.0007374999999996135
        },
        {
          "name": "E4",
          "midi": 64,
          "time": 41.06399999999992,
          "velocity": 0.7874015748031497,
          "duration": 0.0007374999999996135
        },
        {
          "name": "C5",
          "midi": 72,
          "time": 41.06399999999992,
          "velocity": 0.7874015748031497,
          "duration": 0.0007374999999996135
        },
        {
          "name": "E5",
          "midi": 76,
          "time": 41.06399999999992,
          "velocity": 0.7874015748031497,
          "duration": 0.0007374999999996135
        },
        {
          "name": "C6",
          "midi": 84,
          "time": 41.06399999999992,
          "velocity": 0.7874015748031497,
          "duration": 0.0007374999999996135
        },
        {
          "name": "E6",
          "midi": 88,
          "time": 41.06399999999992,
          "velocity": 0.7874015748031497,
          "duration": 0.0007374999999996135
        },
        {
          "name": "C7",
          "midi": 96,
          "time": 41.06399999999992,
          "velocity": 0.7874015748031497,
          "duration": 0.0007374999999996135
        },
        {
          "name": "E7",
          "midi": 100,
          "time": 41.06399999999992,
          "velocity": 0.7874015748031497,
          "duration": 0.0007374999999996135
        },
        {
          "name": "C#4",
          "midi": 61,
          "time": 41.24099999999992,
          "velocity": 0.7874015748031497,
          "duration": 0.0007374999999996135
        },
        {
          "name": "C#5",
          "midi": 73,
          "time": 41.24099999999992,
          "velocity": 0.7874015748031497,
          "duration": 0.0007374999999996135
        },
        {
          "name": "C#6",
          "midi": 85,
          "time": 41.24099999999992,
          "velocity": 0.7874015748031497,
          "duration": 0.0007374999999996135
        },
        {
          "name": "C#7",
          "midi": 97,
          "time": 41.24099999999992,
          "velocity": 0.7874015748031497,
          "duration": 0.0007374999999996135
        },
        {
          "name": "E7",
          "midi": 100,
          "time": 41.24099999999992,
          "velocity": 0.7874015748031497,
          "duration": 0.0007374999999996135
        },
        {
          "name": "E4",
          "midi": 64,
          "time": 41.41799999999992,
          "velocity": 0.7874015748031497,
          "duration": 0.0007374999999996135
        },
        {
          "name": "E5",
          "midi": 76,
          "time": 41.41799999999992,
          "velocity": 0.7874015748031497,
          "duration": 0.0007374999999996135
        },
        {
          "name": "E6",
          "midi": 88,
          "time": 41.41799999999992,
          "velocity": 0.7874015748031497,
          "duration": 0.0007374999999996135
        },
        {
          "name": "E7",
          "midi": 100,
          "time": 41.41799999999992,
          "velocity": 0.7874015748031497,
          "duration": 0.0007374999999996135
        },
        {
          "name": "C6",
          "midi": 84,
          "time": 41.59573749999992,
          "velocity": 0.7874015748031497,
          "duration": 0.0007374999999996135
        },
        {
          "name": "C7",
          "midi": 96,
          "time": 41.59573749999992,
          "velocity": 0.7874015748031497,
          "duration": 0.0007374999999996135
        },
        {
          "name": "E7",
          "midi": 100,
          "time": 41.59573749999992,
          "velocity": 0.7874015748031497,
          "duration": 0.0007374999999996135
        },
        {
          "name": "C#4",
          "midi": 61,
          "time": 41.77199999999992,
          "velocity": 0.7874015748031497,
          "duration": 0.0007374999999996135
        },
        {
          "name": "C#5",
          "midi": 73,
          "time": 41.77199999999992,
          "velocity": 0.7874015748031497,
          "duration": 0.0007374999999996135
        },
        {
          "name": "E5",
          "midi": 76,
          "time": 41.77199999999992,
          "velocity": 0.7874015748031497,
          "duration": 0.0007374999999996135
        },
        {
          "name": "C#6",
          "midi": 85,
          "time": 41.77199999999992,
          "velocity": 0.7874015748031497,
          "duration": 0.0007374999999996135
        },
        {
          "name": "E6",
          "midi": 88,
          "time": 41.77199999999992,
          "velocity": 0.7874015748031497,
          "duration": 0.0007374999999996135
        },
        {
          "name": "C#7",
          "midi": 97,
          "time": 41.77199999999992,
          "velocity": 0.7874015748031497,
          "duration": 0.0007374999999996135
        },
        {
          "name": "E7",
          "midi": 100,
          "time": 41.77199999999992,
          "velocity": 0.7874015748031497,
          "duration": 0.0007374999999996135
        },
        {
          "name": "C6",
          "midi": 84,
          "time": 41.94899999999992,
          "velocity": 0.7874015748031497,
          "duration": 0.0007374999999996135
        },
        {
          "name": "C7",
          "midi": 96,
          "time": 41.94899999999992,
          "velocity": 0.7874015748031497,
          "duration": 0.0007374999999996135
        },
        {
          "name": "E7",
          "midi": 100,
          "time": 41.94899999999992,
          "velocity": 0.7874015748031497,
          "duration": 0.0007374999999996135
        },
        {
          "name": "C#4",
          "midi": 61,
          "time": 42.12599999999992,
          "velocity": 0.7874015748031497,
          "duration": 0.0007374999999996135
        },
        {
          "name": "C#5",
          "midi": 73,
          "time": 42.12599999999992,
          "velocity": 0.7874015748031497,
          "duration": 0.0007374999999996135
        },
        {
          "name": "E5",
          "midi": 76,
          "time": 42.12599999999992,
          "velocity": 0.7874015748031497,
          "duration": 0.0007374999999996135
        },
        {
          "name": "C#6",
          "midi": 85,
          "time": 42.12599999999992,
          "velocity": 0.7874015748031497,
          "duration": 0.0007374999999996135
        },
        {
          "name": "E6",
          "midi": 88,
          "time": 42.12599999999992,
          "velocity": 0.7874015748031497,
          "duration": 0.0007374999999996135
        },
        {
          "name": "C#7",
          "midi": 97,
          "time": 42.12599999999992,
          "velocity": 0.7874015748031497,
          "duration": 0.0007374999999996135
        },
        {
          "name": "E7",
          "midi": 100,
          "time": 42.12599999999992,
          "velocity": 0.7874015748031497,
          "duration": 0.0007374999999996135
        },
        {
          "name": "E7",
          "midi": 100,
          "time": 42.30299999999992,
          "velocity": 0.7874015748031497,
          "duration": 0.0007374999999996135
        },
        {
          "name": "E4",
          "midi": 64,
          "time": 42.47999999999992,
          "velocity": 0.7874015748031497,
          "duration": 0.0007374999999996135
        },
        {
          "name": "C5",
          "midi": 72,
          "time": 42.47999999999992,
          "velocity": 0.7874015748031497,
          "duration": 0.0007374999999996135
        },
        {
          "name": "E5",
          "midi": 76,
          "time": 42.47999999999992,
          "velocity": 0.7874015748031497,
          "duration": 0.0007374999999996135
        },
        {
          "name": "C6",
          "midi": 84,
          "time": 42.47999999999992,
          "velocity": 0.7874015748031497,
          "duration": 0.0007374999999996135
        },
        {
          "name": "E6",
          "midi": 88,
          "time": 42.47999999999992,
          "velocity": 0.7874015748031497,
          "duration": 0.0007374999999996135
        },
        {
          "name": "C7",
          "midi": 96,
          "time": 42.47999999999992,
          "velocity": 0.7874015748031497,
          "duration": 0.0007374999999996135
        },
        {
          "name": "E7",
          "midi": 100,
          "time": 42.47999999999992,
          "velocity": 0.7874015748031497,
          "duration": 0.0007374999999996135
        },
        {
          "name": "C6",
          "midi": 84,
          "time": 42.65699999999992,
          "velocity": 0.7874015748031497,
          "duration": 0.0007374999999996135
        },
        {
          "name": "C7",
          "midi": 96,
          "time": 42.65699999999992,
          "velocity": 0.7874015748031497,
          "duration": 0.0007374999999996135
        },
        {
          "name": "E7",
          "midi": 100,
          "time": 42.65699999999992,
          "velocity": 0.7874015748031497,
          "duration": 0.0007374999999996135
        },
        {
          "name": "E4",
          "midi": 64,
          "time": 42.83399999999992,
          "velocity": 0.7874015748031497,
          "duration": 0.0007374999999996135
        },
        {
          "name": "E5",
          "midi": 76,
          "time": 42.83399999999992,
          "velocity": 0.7874015748031497,
          "duration": 0.0007374999999996135
        },
        {
          "name": "E6",
          "midi": 88,
          "time": 42.83399999999992,
          "velocity": 0.7874015748031497,
          "duration": 0.0007374999999996135
        },
        {
          "name": "E7",
          "midi": 100,
          "time": 42.83399999999992,
          "velocity": 0.7874015748031497,
          "duration": 0.0007374999999996135
        },
        {
          "name": "C6",
          "midi": 84,
          "time": 43.01173749999992,
          "velocity": 0.7874015748031497,
          "duration": 0.0007374999999996135
        },
        {
          "name": "B6",
          "midi": 95,
          "time": 43.01173749999992,
          "velocity": 0.7874015748031497,
          "duration": 0.0007374999999996135
        },
        {
          "name": "E7",
          "midi": 100,
          "time": 43.01173749999992,
          "velocity": 0.7874015748031497,
          "duration": 0.0007374999999996135
        },
        {
          "name": "C7",
          "midi": 96,
          "time": 43.099499999999914,
          "velocity": 0.7874015748031497,
          "duration": 0.0007374999999996135
        },
        {
          "name": "C#4",
          "midi": 61,
          "time": 43.18799999999991,
          "velocity": 0.7874015748031497,
          "duration": 0.0007374999999996135
        },
        {
          "name": "C#5",
          "midi": 73,
          "time": 43.18799999999991,
          "velocity": 0.7874015748031497,
          "duration": 0.0007374999999996135
        },
        {
          "name": "E5",
          "midi": 76,
          "time": 43.18799999999991,
          "velocity": 0.7874015748031497,
          "duration": 0.0007374999999996135
        },
        {
          "name": "C#6",
          "midi": 85,
          "time": 43.18799999999991,
          "velocity": 0.7874015748031497,
          "duration": 0.0007374999999996135
        },
        {
          "name": "E6",
          "midi": 88,
          "time": 43.18799999999991,
          "velocity": 0.7874015748031497,
          "duration": 0.0007374999999996135
        },
        {
          "name": "C#7",
          "midi": 97,
          "time": 43.18799999999991,
          "velocity": 0.7874015748031497,
          "duration": 0.0007374999999996135
        },
        {
          "name": "E7",
          "midi": 100,
          "time": 43.18799999999991,
          "velocity": 0.7874015748031497,
          "duration": 0.0007374999999996135
        },
        {
          "name": "C7",
          "midi": 96,
          "time": 43.36499999999991,
          "velocity": 0.7874015748031497,
          "duration": 0.0007374999999996135
        },
        {
          "name": "E7",
          "midi": 100,
          "time": 43.36499999999991,
          "velocity": 0.7874015748031497,
          "duration": 0.0007374999999996135
        },
        {
          "name": "E4",
          "midi": 64,
          "time": 43.54199999999991,
          "velocity": 0.7874015748031497,
          "duration": 0.0007374999999996135
        },
        {
          "name": "C5",
          "midi": 72,
          "time": 43.54199999999991,
          "velocity": 0.7874015748031497,
          "duration": 0.0007374999999996135
        },
        {
          "name": "E5",
          "midi": 76,
          "time": 43.54199999999991,
          "velocity": 0.7874015748031497,
          "duration": 0.0007374999999996135
        },
        {
          "name": "C6",
          "midi": 84,
          "time": 43.54199999999991,
          "velocity": 0.7874015748031497,
          "duration": 0.0007374999999996135
        },
        {
          "name": "E6",
          "midi": 88,
          "time": 43.54199999999991,
          "velocity": 0.7874015748031497,
          "duration": 0.0007374999999996135
        },
        {
          "name": "C7",
          "midi": 96,
          "time": 43.54199999999991,
          "velocity": 0.7874015748031497,
          "duration": 0.0007374999999996135
        },
        {
          "name": "E7",
          "midi": 100,
          "time": 43.54199999999991,
          "velocity": 0.7874015748031497,
          "duration": 0.0007374999999996135
        },
        {
          "name": "C6",
          "midi": 84,
          "time": 43.71826249999991,
          "velocity": 0.7874015748031497,
          "duration": 0.0007374999999996135
        },
        {
          "name": "C7",
          "midi": 96,
          "time": 43.71826249999991,
          "velocity": 0.7874015748031497,
          "duration": 0.0007374999999996135
        },
        {
          "name": "E7",
          "midi": 100,
          "time": 43.71826249999991,
          "velocity": 0.7874015748031497,
          "duration": 0.0007374999999996135
        },
        {
          "name": "E4",
          "midi": 64,
          "time": 43.89599999999991,
          "velocity": 0.7874015748031497,
          "duration": 0.0007374999999996135
        },
        {
          "name": "E5",
          "midi": 76,
          "time": 43.89599999999991,
          "velocity": 0.7874015748031497,
          "duration": 0.0007374999999996135
        },
        {
          "name": "E6",
          "midi": 88,
          "time": 43.89599999999991,
          "velocity": 0.7874015748031497,
          "duration": 0.0007374999999996135
        },
        {
          "name": "E7",
          "midi": 100,
          "time": 43.89599999999991,
          "velocity": 0.7874015748031497,
          "duration": 0.0007374999999996135
        },
        {
          "name": "C#4",
          "midi": 61,
          "time": 44.07299999999991,
          "velocity": 0.7874015748031497,
          "duration": 0.0007374999999996135
        },
        {
          "name": "C#5",
          "midi": 73,
          "time": 44.07299999999991,
          "velocity": 0.7874015748031497,
          "duration": 0.0007374999999996135
        },
        {
          "name": "C#6",
          "midi": 85,
          "time": 44.07299999999991,
          "velocity": 0.7874015748031497,
          "duration": 0.0007374999999996135
        },
        {
          "name": "C#7",
          "midi": 97,
          "time": 44.07299999999991,
          "velocity": 0.7874015748031497,
          "duration": 0.0007374999999996135
        },
        {
          "name": "E7",
          "midi": 100,
          "time": 44.07299999999991,
          "velocity": 0.7874015748031497,
          "duration": 0.0007374999999996135
        },
        {
          "name": "E4",
          "midi": 64,
          "time": 44.24999999999991,
          "velocity": 0.7874015748031497,
          "duration": 0.0007374999999996135
        },
        {
          "name": "E5",
          "midi": 76,
          "time": 44.24999999999991,
          "velocity": 0.7874015748031497,
          "duration": 0.0007374999999996135
        },
        {
          "name": "E6",
          "midi": 88,
          "time": 44.24999999999991,
          "velocity": 0.7874015748031497,
          "duration": 0.0007374999999996135
        },
        {
          "name": "E7",
          "midi": 100,
          "time": 44.24999999999991,
          "velocity": 0.7874015748031497,
          "duration": 0.0007374999999996135
        },
        {
          "name": "G#8",
          "midi": 116,
          "time": 44.42626249999991,
          "velocity": 0.7874015748031497,
          "duration": 1.6822374999999852
        },
        {
          "name": "C6",
          "midi": 84,
          "time": 44.42626249999991,
          "velocity": 0.7874015748031497,
          "duration": 0.0007374999999996135
        },
        {
          "name": "C7",
          "midi": 96,
          "time": 44.42626249999991,
          "velocity": 0.7874015748031497,
          "duration": 0.0007374999999996135
        },
        {
          "name": "E7",
          "midi": 100,
          "time": 44.42626249999991,
          "velocity": 0.7874015748031497,
          "duration": 0.0007374999999996135
        },
        {
          "name": "C#4",
          "midi": 61,
          "time": 44.60399999999991,
          "velocity": 0.7874015748031497,
          "duration": 0.0007374999999996135
        },
        {
          "name": "C#5",
          "midi": 73,
          "time": 44.60399999999991,
          "velocity": 0.7874015748031497,
          "duration": 0.0007374999999996135
        },
        {
          "name": "E5",
          "midi": 76,
          "time": 44.60399999999991,
          "velocity": 0.7874015748031497,
          "duration": 0.0007374999999996135
        },
        {
          "name": "C#6",
          "midi": 85,
          "time": 44.60399999999991,
          "velocity": 0.7874015748031497,
          "duration": 0.0007374999999996135
        },
        {
          "name": "E6",
          "midi": 88,
          "time": 44.60399999999991,
          "velocity": 0.7874015748031497,
          "duration": 0.0007374999999996135
        },
        {
          "name": "C#7",
          "midi": 97,
          "time": 44.60399999999991,
          "velocity": 0.7874015748031497,
          "duration": 0.0007374999999996135
        },
        {
          "name": "E7",
          "midi": 100,
          "time": 44.60399999999991,
          "velocity": 0.7874015748031497,
          "duration": 0.0007374999999996135
        },
        {
          "name": "C6",
          "midi": 84,
          "time": 44.780999999999906,
          "velocity": 0.7874015748031497,
          "duration": 0.0007374999999996135
        },
        {
          "name": "C7",
          "midi": 96,
          "time": 44.780999999999906,
          "velocity": 0.7874015748031497,
          "duration": 0.0007374999999996135
        },
        {
          "name": "E7",
          "midi": 100,
          "time": 44.780999999999906,
          "velocity": 0.7874015748031497,
          "duration": 0.0007374999999996135
        },
        {
          "name": "C#4",
          "midi": 61,
          "time": 44.957999999999906,
          "velocity": 0.7874015748031497,
          "duration": 0.0007374999999996135
        },
        {
          "name": "C#5",
          "midi": 73,
          "time": 44.957999999999906,
          "velocity": 0.7874015748031497,
          "duration": 0.0007374999999996135
        },
        {
          "name": "E5",
          "midi": 76,
          "time": 44.957999999999906,
          "velocity": 0.7874015748031497,
          "duration": 0.0007374999999996135
        },
        {
          "name": "C#6",
          "midi": 85,
          "time": 44.957999999999906,
          "velocity": 0.7874015748031497,
          "duration": 0.0007374999999996135
        },
        {
          "name": "E6",
          "midi": 88,
          "time": 44.957999999999906,
          "velocity": 0.7874015748031497,
          "duration": 0.0007374999999996135
        },
        {
          "name": "C#7",
          "midi": 97,
          "time": 44.957999999999906,
          "velocity": 0.7874015748031497,
          "duration": 0.0007374999999996135
        },
        {
          "name": "E7",
          "midi": 100,
          "time": 44.957999999999906,
          "velocity": 0.7874015748031497,
          "duration": 0.0007374999999996135
        },
        {
          "name": "E7",
          "midi": 100,
          "time": 45.135737499999905,
          "velocity": 0.7874015748031497,
          "duration": 0.0007374999999996135
        },
        {
          "name": "E4",
          "midi": 64,
          "time": 45.311999999999905,
          "velocity": 0.7874015748031497,
          "duration": 0.0007374999999996135
        },
        {
          "name": "C5",
          "midi": 72,
          "time": 45.311999999999905,
          "velocity": 0.7874015748031497,
          "duration": 0.0007374999999996135
        },
        {
          "name": "E5",
          "midi": 76,
          "time": 45.311999999999905,
          "velocity": 0.7874015748031497,
          "duration": 0.0007374999999996135
        },
        {
          "name": "C6",
          "midi": 84,
          "time": 45.311999999999905,
          "velocity": 0.7874015748031497,
          "duration": 0.0007374999999996135
        },
        {
          "name": "E6",
          "midi": 88,
          "time": 45.311999999999905,
          "velocity": 0.7874015748031497,
          "duration": 0.0007374999999996135
        },
        {
          "name": "C7",
          "midi": 96,
          "time": 45.311999999999905,
          "velocity": 0.7874015748031497,
          "duration": 0.0007374999999996135
        },
        {
          "name": "E7",
          "midi": 100,
          "time": 45.311999999999905,
          "velocity": 0.7874015748031497,
          "duration": 0.0007374999999996135
        },
        {
          "name": "C6",
          "midi": 84,
          "time": 45.488999999999905,
          "velocity": 0.7874015748031497,
          "duration": 0.0007374999999996135
        },
        {
          "name": "C7",
          "midi": 96,
          "time": 45.488999999999905,
          "velocity": 0.7874015748031497,
          "duration": 0.0007374999999996135
        },
        {
          "name": "E7",
          "midi": 100,
          "time": 45.488999999999905,
          "velocity": 0.7874015748031497,
          "duration": 0.0007374999999996135
        },
        {
          "name": "E4",
          "midi": 64,
          "time": 45.665999999999904,
          "velocity": 0.7874015748031497,
          "duration": 0.0007374999999996135
        },
        {
          "name": "E5",
          "midi": 76,
          "time": 45.665999999999904,
          "velocity": 0.7874015748031497,
          "duration": 0.0007374999999996135
        },
        {
          "name": "E6",
          "midi": 88,
          "time": 45.665999999999904,
          "velocity": 0.7874015748031497,
          "duration": 0.0007374999999996135
        },
        {
          "name": "E7",
          "midi": 100,
          "time": 45.665999999999904,
          "velocity": 0.7874015748031497,
          "duration": 0.0007374999999996135
        },
        {
          "name": "C6",
          "midi": 84,
          "time": 45.843737499999904,
          "velocity": 0.7874015748031497,
          "duration": 0.0007374999999996135
        },
        {
          "name": "B6",
          "midi": 95,
          "time": 45.843737499999904,
          "velocity": 0.7874015748031497,
          "duration": 0.0007374999999996135
        },
        {
          "name": "E7",
          "midi": 100,
          "time": 45.843737499999904,
          "velocity": 0.7874015748031497,
          "duration": 0.0007374999999996135
        },
        {
          "name": "C7",
          "midi": 96,
          "time": 45.9314999999999,
          "velocity": 0.7874015748031497,
          "duration": 0.0007374999999996135
        },
        {
          "name": "C#4",
          "midi": 61,
          "time": 46.0199999999999,
          "velocity": 0.7874015748031497,
          "duration": 0.0007374999999996135
        },
        {
          "name": "C#5",
          "midi": 73,
          "time": 46.0199999999999,
          "velocity": 0.7874015748031497,
          "duration": 0.0007374999999996135
        },
        {
          "name": "E5",
          "midi": 76,
          "time": 46.0199999999999,
          "velocity": 0.7874015748031497,
          "duration": 0.0007374999999996135
        },
        {
          "name": "C#6",
          "midi": 85,
          "time": 46.0199999999999,
          "velocity": 0.7874015748031497,
          "duration": 0.0007374999999996135
        },
        {
          "name": "E6",
          "midi": 88,
          "time": 46.0199999999999,
          "velocity": 0.7874015748031497,
          "duration": 0.0007374999999996135
        },
        {
          "name": "C#7",
          "midi": 97,
          "time": 46.0199999999999,
          "velocity": 0.7874015748031497,
          "duration": 0.0007374999999996135
        },
        {
          "name": "E7",
          "midi": 100,
          "time": 46.0199999999999,
          "velocity": 0.7874015748031497,
          "duration": 0.0007374999999996135
        },
        {
          "name": "C7",
          "midi": 96,
          "time": 46.197737499999896,
          "velocity": 0.7874015748031497,
          "duration": 0.0007374999999996135
        },
        {
          "name": "E7",
          "midi": 100,
          "time": 46.197737499999896,
          "velocity": 0.7874015748031497,
          "duration": 0.0007374999999996135
        },
        {
          "name": "E4",
          "midi": 64,
          "time": 46.373999999999896,
          "velocity": 0.7874015748031497,
          "duration": 0.0007374999999996135
        },
        {
          "name": "C5",
          "midi": 72,
          "time": 46.373999999999896,
          "velocity": 0.7874015748031497,
          "duration": 0.0007374999999996135
        },
        {
          "name": "E5",
          "midi": 76,
          "time": 46.373999999999896,
          "velocity": 0.7874015748031497,
          "duration": 0.0007374999999996135
        },
        {
          "name": "C6",
          "midi": 84,
          "time": 46.373999999999896,
          "velocity": 0.7874015748031497,
          "duration": 0.0007374999999996135
        },
        {
          "name": "E6",
          "midi": 88,
          "time": 46.373999999999896,
          "velocity": 0.7874015748031497,
          "duration": 0.0007374999999996135
        },
        {
          "name": "C7",
          "midi": 96,
          "time": 46.373999999999896,
          "velocity": 0.7874015748031497,
          "duration": 0.0007374999999996135
        },
        {
          "name": "E7",
          "midi": 100,
          "time": 46.373999999999896,
          "velocity": 0.7874015748031497,
          "duration": 0.0007374999999996135
        },
        {
          "name": "C6",
          "midi": 84,
          "time": 46.550262499999896,
          "velocity": 0.7874015748031497,
          "duration": 0.0007374999999996135
        },
        {
          "name": "C7",
          "midi": 96,
          "time": 46.550262499999896,
          "velocity": 0.7874015748031497,
          "duration": 0.0007374999999996135
        },
        {
          "name": "E7",
          "midi": 100,
          "time": 46.550262499999896,
          "velocity": 0.7874015748031497,
          "duration": 0.0007374999999996135
        },
        {
          "name": "E4",
          "midi": 64,
          "time": 46.727999999999895,
          "velocity": 0.7874015748031497,
          "duration": 0.0007374999999996135
        },
        {
          "name": "E5",
          "midi": 76,
          "time": 46.727999999999895,
          "velocity": 0.7874015748031497,
          "duration": 0.0007374999999996135
        },
        {
          "name": "E6",
          "midi": 88,
          "time": 46.727999999999895,
          "velocity": 0.7874015748031497,
          "duration": 0.0007374999999996135
        },
        {
          "name": "E7",
          "midi": 100,
          "time": 46.727999999999895,
          "velocity": 0.7874015748031497,
          "duration": 0.0007374999999996135
        },
        {
          "name": "C#4",
          "midi": 61,
          "time": 46.904999999999895,
          "velocity": 0.7874015748031497,
          "duration": 0.0007374999999996135
        },
        {
          "name": "C#5",
          "midi": 73,
          "time": 46.904999999999895,
          "velocity": 0.7874015748031497,
          "duration": 0.0007374999999996135
        },
        {
          "name": "C#6",
          "midi": 85,
          "time": 46.904999999999895,
          "velocity": 0.7874015748031497,
          "duration": 0.0007374999999996135
        },
        {
          "name": "C#7",
          "midi": 97,
          "time": 46.904999999999895,
          "velocity": 0.7874015748031497,
          "duration": 0.0007374999999996135
        },
        {
          "name": "E7",
          "midi": 100,
          "time": 46.904999999999895,
          "velocity": 0.7874015748031497,
          "duration": 0.0007374999999996135
        },
        {
          "name": "E4",
          "midi": 64,
          "time": 47.081999999999894,
          "velocity": 0.7874015748031497,
          "duration": 0.0007374999999996135
        },
        {
          "name": "E5",
          "midi": 76,
          "time": 47.081999999999894,
          "velocity": 0.7874015748031497,
          "duration": 0.0007374999999996135
        },
        {
          "name": "E6",
          "midi": 88,
          "time": 47.081999999999894,
          "velocity": 0.7874015748031497,
          "duration": 0.0007374999999996135
        },
        {
          "name": "E7",
          "midi": 100,
          "time": 47.081999999999894,
          "velocity": 0.7874015748031497,
          "duration": 0.0007374999999996135
        },
        {
          "name": "C6",
          "midi": 84,
          "time": 47.258262499999894,
          "velocity": 0.7874015748031497,
          "duration": 0.0007374999999996135
        },
        {
          "name": "C7",
          "midi": 96,
          "time": 47.258262499999894,
          "velocity": 0.7874015748031497,
          "duration": 0.0007374999999996135
        },
        {
          "name": "E7",
          "midi": 100,
          "time": 47.258262499999894,
          "velocity": 0.7874015748031497,
          "duration": 0.0007374999999996135
        },
        {
          "name": "C#4",
          "midi": 61,
          "time": 47.43599999999989,
          "velocity": 0.7874015748031497,
          "duration": 0.0007374999999996135
        },
        {
          "name": "C#5",
          "midi": 73,
          "time": 47.43599999999989,
          "velocity": 0.7874015748031497,
          "duration": 0.0007374999999996135
        },
        {
          "name": "E5",
          "midi": 76,
          "time": 47.43599999999989,
          "velocity": 0.7874015748031497,
          "duration": 0.0007374999999996135
        },
        {
          "name": "C#6",
          "midi": 85,
          "time": 47.43599999999989,
          "velocity": 0.7874015748031497,
          "duration": 0.0007374999999996135
        },
        {
          "name": "E6",
          "midi": 88,
          "time": 47.43599999999989,
          "velocity": 0.7874015748031497,
          "duration": 0.0007374999999996135
        },
        {
          "name": "C#7",
          "midi": 97,
          "time": 47.43599999999989,
          "velocity": 0.7874015748031497,
          "duration": 0.0007374999999996135
        },
        {
          "name": "E7",
          "midi": 100,
          "time": 47.43599999999989,
          "velocity": 0.7874015748031497,
          "duration": 0.0007374999999996135
        },
        {
          "name": "C6",
          "midi": 84,
          "time": 47.61373749999989,
          "velocity": 0.7874015748031497,
          "duration": 0.0007374999999996135
        },
        {
          "name": "C7",
          "midi": 96,
          "time": 47.61373749999989,
          "velocity": 0.7874015748031497,
          "duration": 0.0007374999999996135
        },
        {
          "name": "E7",
          "midi": 100,
          "time": 47.61373749999989,
          "velocity": 0.7874015748031497,
          "duration": 0.0007374999999996135
        },
        {
          "name": "C#4",
          "midi": 61,
          "time": 47.78999999999989,
          "velocity": 0.7874015748031497,
          "duration": 0.0007374999999996135
        },
        {
          "name": "C#5",
          "midi": 73,
          "time": 47.78999999999989,
          "velocity": 0.7874015748031497,
          "duration": 0.0007374999999996135
        },
        {
          "name": "E5",
          "midi": 76,
          "time": 47.78999999999989,
          "velocity": 0.7874015748031497,
          "duration": 0.0007374999999996135
        },
        {
          "name": "C#6",
          "midi": 85,
          "time": 47.78999999999989,
          "velocity": 0.7874015748031497,
          "duration": 0.0007374999999996135
        },
        {
          "name": "E6",
          "midi": 88,
          "time": 47.78999999999989,
          "velocity": 0.7874015748031497,
          "duration": 0.0007374999999996135
        },
        {
          "name": "C#7",
          "midi": 97,
          "time": 47.78999999999989,
          "velocity": 0.7874015748031497,
          "duration": 0.0007374999999996135
        },
        {
          "name": "E7",
          "midi": 100,
          "time": 47.78999999999989,
          "velocity": 0.7874015748031497,
          "duration": 0.0007374999999996135
        },
        {
          "name": "E7",
          "midi": 100,
          "time": 47.96699999999989,
          "velocity": 0.7874015748031497,
          "duration": 0.0007374999999996135
        },
        {
          "name": "D4",
          "midi": 62,
          "time": 48.14399999999989,
          "velocity": 0.7874015748031497,
          "duration": 0.0007374999999996135
        },
        {
          "name": "C5",
          "midi": 72,
          "time": 48.14399999999989,
          "velocity": 0.7874015748031497,
          "duration": 0.0007374999999996135
        },
        {
          "name": "D5",
          "midi": 74,
          "time": 48.14399999999989,
          "velocity": 0.7874015748031497,
          "duration": 0.0007374999999996135
        },
        {
          "name": "C6",
          "midi": 84,
          "time": 48.14399999999989,
          "velocity": 0.7874015748031497,
          "duration": 0.0007374999999996135
        },
        {
          "name": "D6",
          "midi": 86,
          "time": 48.14399999999989,
          "velocity": 0.7874015748031497,
          "duration": 0.0007374999999996135
        },
        {
          "name": "C7",
          "midi": 96,
          "time": 48.14399999999989,
          "velocity": 0.7874015748031497,
          "duration": 0.0007374999999996135
        },
        {
          "name": "D7",
          "midi": 98,
          "time": 48.14399999999989,
          "velocity": 0.7874015748031497,
          "duration": 0.0007374999999996135
        },
        {
          "name": "C#4",
          "midi": 61,
          "time": 48.32026249999989,
          "velocity": 0.7874015748031497,
          "duration": 0.0007374999999996135
        },
        {
          "name": "C#5",
          "midi": 73,
          "time": 48.32026249999989,
          "velocity": 0.7874015748031497,
          "duration": 0.0007374999999996135
        },
        {
          "name": "C#6",
          "midi": 85,
          "time": 48.32026249999989,
          "velocity": 0.7874015748031497,
          "duration": 0.0007374999999996135
        },
        {
          "name": "C#7",
          "midi": 97,
          "time": 48.32026249999989,
          "velocity": 0.7874015748031497,
          "duration": 0.0007374999999996135
        },
        {
          "name": "C#4",
          "midi": 61,
          "time": 48.49799999999989,
          "velocity": 0.7874015748031497,
          "duration": 0.0007374999999996135
        },
        {
          "name": "C#5",
          "midi": 73,
          "time": 48.49799999999989,
          "velocity": 0.7874015748031497,
          "duration": 0.0007374999999996135
        },
        {
          "name": "C#6",
          "midi": 85,
          "time": 48.49799999999989,
          "velocity": 0.7874015748031497,
          "duration": 0.0007374999999996135
        },
        {
          "name": "C#7",
          "midi": 97,
          "time": 48.49799999999989,
          "velocity": 0.7874015748031497,
          "duration": 0.0007374999999996135
        },
        {
          "name": "D4",
          "midi": 62,
          "time": 48.67426249999989,
          "velocity": 0.7874015748031497,
          "duration": 0.0007374999999996135
        },
        {
          "name": "C5",
          "midi": 72,
          "time": 48.67426249999989,
          "velocity": 0.7874015748031497,
          "duration": 0.0007374999999996135
        },
        {
          "name": "D5",
          "midi": 74,
          "time": 48.67426249999989,
          "velocity": 0.7874015748031497,
          "duration": 0.0007374999999996135
        },
        {
          "name": "C6",
          "midi": 84,
          "time": 48.67426249999989,
          "velocity": 0.7874015748031497,
          "duration": 0.0007374999999996135
        },
        {
          "name": "D6",
          "midi": 86,
          "time": 48.67426249999989,
          "velocity": 0.7874015748031497,
          "duration": 0.0007374999999996135
        },
        {
          "name": "C7",
          "midi": 96,
          "time": 48.67426249999989,
          "velocity": 0.7874015748031497,
          "duration": 0.0007374999999996135
        },
        {
          "name": "D7",
          "midi": 98,
          "time": 48.67426249999989,
          "velocity": 0.7874015748031497,
          "duration": 0.0007374999999996135
        },
        {
          "name": "C#4",
          "midi": 61,
          "time": 49.02973749999989,
          "velocity": 0.7874015748031497,
          "duration": 0.0007374999999996135
        },
        {
          "name": "C#5",
          "midi": 73,
          "time": 49.02973749999989,
          "velocity": 0.7874015748031497,
          "duration": 0.0007374999999996135
        },
        {
          "name": "C#6",
          "midi": 85,
          "time": 49.02973749999989,
          "velocity": 0.7874015748031497,
          "duration": 0.0007374999999996135
        },
        {
          "name": "C#7",
          "midi": 97,
          "time": 49.02973749999989,
          "velocity": 0.7874015748031497,
          "duration": 0.0007374999999996135
        },
        {
          "name": "D4",
          "midi": 62,
          "time": 49.20599999999989,
          "velocity": 0.7874015748031497,
          "duration": 0.0007374999999996135
        },
        {
          "name": "C5",
          "midi": 72,
          "time": 49.20599999999989,
          "velocity": 0.7874015748031497,
          "duration": 0.0007374999999996135
        },
        {
          "name": "D5",
          "midi": 74,
          "time": 49.20599999999989,
          "velocity": 0.7874015748031497,
          "duration": 0.0007374999999996135
        },
        {
          "name": "C6",
          "midi": 84,
          "time": 49.20599999999989,
          "velocity": 0.7874015748031497,
          "duration": 0.0007374999999996135
        },
        {
          "name": "D6",
          "midi": 86,
          "time": 49.20599999999989,
          "velocity": 0.7874015748031497,
          "duration": 0.0007374999999996135
        },
        {
          "name": "C7",
          "midi": 96,
          "time": 49.20599999999989,
          "velocity": 0.7874015748031497,
          "duration": 0.0007374999999996135
        },
        {
          "name": "D7",
          "midi": 98,
          "time": 49.20599999999989,
          "velocity": 0.7874015748031497,
          "duration": 0.0007374999999996135
        },
        {
          "name": "C#4",
          "midi": 61,
          "time": 49.38373749999989,
          "velocity": 0.7874015748031497,
          "duration": 0.0007374999999996135
        },
        {
          "name": "C#5",
          "midi": 73,
          "time": 49.38373749999989,
          "velocity": 0.7874015748031497,
          "duration": 0.0007374999999996135
        },
        {
          "name": "C#6",
          "midi": 85,
          "time": 49.38373749999989,
          "velocity": 0.7874015748031497,
          "duration": 0.0007374999999996135
        },
        {
          "name": "C#7",
          "midi": 97,
          "time": 49.38373749999989,
          "velocity": 0.7874015748031497,
          "duration": 0.0007374999999996135
        },
        {
          "name": "C#4",
          "midi": 61,
          "time": 49.55999999999989,
          "velocity": 0.7874015748031497,
          "duration": 0.0007374999999996135
        },
        {
          "name": "C#5",
          "midi": 73,
          "time": 49.55999999999989,
          "velocity": 0.7874015748031497,
          "duration": 0.0007374999999996135
        },
        {
          "name": "C#6",
          "midi": 85,
          "time": 49.55999999999989,
          "velocity": 0.7874015748031497,
          "duration": 0.0007374999999996135
        },
        {
          "name": "C#7",
          "midi": 97,
          "time": 49.55999999999989,
          "velocity": 0.7874015748031497,
          "duration": 0.0007374999999996135
        },
        {
          "name": "D4",
          "midi": 62,
          "time": 49.73699999999989,
          "velocity": 0.7874015748031497,
          "duration": 0.0007374999999996135
        },
        {
          "name": "C5",
          "midi": 72,
          "time": 49.73699999999989,
          "velocity": 0.7874015748031497,
          "duration": 0.0007374999999996135
        },
        {
          "name": "D5",
          "midi": 74,
          "time": 49.73699999999989,
          "velocity": 0.7874015748031497,
          "duration": 0.0007374999999996135
        },
        {
          "name": "C6",
          "midi": 84,
          "time": 49.73699999999989,
          "velocity": 0.7874015748031497,
          "duration": 0.0007374999999996135
        },
        {
          "name": "D6",
          "midi": 86,
          "time": 49.73699999999989,
          "velocity": 0.7874015748031497,
          "duration": 0.0007374999999996135
        },
        {
          "name": "C7",
          "midi": 96,
          "time": 49.73699999999989,
          "velocity": 0.7874015748031497,
          "duration": 0.0007374999999996135
        },
        {
          "name": "D7",
          "midi": 98,
          "time": 49.73699999999989,
          "velocity": 0.7874015748031497,
          "duration": 0.0007374999999996135
        },
        {
          "name": "C#4",
          "midi": 61,
          "time": 50.09099999999989,
          "velocity": 0.7874015748031497,
          "duration": 0.0007374999999996135
        },
        {
          "name": "C#5",
          "midi": 73,
          "time": 50.09099999999989,
          "velocity": 0.7874015748031497,
          "duration": 0.0007374999999996135
        },
        {
          "name": "C#6",
          "midi": 85,
          "time": 50.09099999999989,
          "velocity": 0.7874015748031497,
          "duration": 0.0007374999999996135
        },
        {
          "name": "C#7",
          "midi": 97,
          "time": 50.09099999999989,
          "velocity": 0.7874015748031497,
          "duration": 0.0007374999999996135
        },
        {
          "name": "D4",
          "midi": 62,
          "time": 50.26799999999989,
          "velocity": 0.7874015748031497,
          "duration": 0.0007374999999996135
        },
        {
          "name": "C5",
          "midi": 72,
          "time": 50.26799999999989,
          "velocity": 0.7874015748031497,
          "duration": 0.0007374999999996135
        },
        {
          "name": "D5",
          "midi": 74,
          "time": 50.26799999999989,
          "velocity": 0.7874015748031497,
          "duration": 0.0007374999999996135
        },
        {
          "name": "C6",
          "midi": 84,
          "time": 50.26799999999989,
          "velocity": 0.7874015748031497,
          "duration": 0.0007374999999996135
        },
        {
          "name": "D6",
          "midi": 86,
          "time": 50.26799999999989,
          "velocity": 0.7874015748031497,
          "duration": 0.0007374999999996135
        },
        {
          "name": "C7",
          "midi": 96,
          "time": 50.26799999999989,
          "velocity": 0.7874015748031497,
          "duration": 0.0007374999999996135
        },
        {
          "name": "D7",
          "midi": 98,
          "time": 50.26799999999989,
          "velocity": 0.7874015748031497,
          "duration": 0.0007374999999996135
        },
        {
          "name": "C7",
          "midi": 96,
          "time": 50.44499999999989,
          "velocity": 0.7874015748031497,
          "duration": 0.0007374999999996135
        },
        {
          "name": "C#4",
          "midi": 61,
          "time": 50.621999999999886,
          "velocity": 0.7874015748031497,
          "duration": 0.0007374999999996135
        },
        {
          "name": "C#5",
          "midi": 73,
          "time": 50.621999999999886,
          "velocity": 0.7874015748031497,
          "duration": 0.0007374999999996135
        },
        {
          "name": "C#6",
          "midi": 85,
          "time": 50.621999999999886,
          "velocity": 0.7874015748031497,
          "duration": 0.0007374999999996135
        },
        {
          "name": "C#7",
          "midi": 97,
          "time": 50.621999999999886,
          "velocity": 0.7874015748031497,
          "duration": 0.0007374999999996135
        },
        {
          "name": "C#4",
          "midi": 61,
          "time": 50.799737499999885,
          "velocity": 0.7874015748031497,
          "duration": 0.0007374999999996135
        },
        {
          "name": "C#5",
          "midi": 73,
          "time": 50.799737499999885,
          "velocity": 0.7874015748031497,
          "duration": 0.0007374999999996135
        },
        {
          "name": "C#6",
          "midi": 85,
          "time": 50.799737499999885,
          "velocity": 0.7874015748031497,
          "duration": 0.0007374999999996135
        },
        {
          "name": "C#7",
          "midi": 97,
          "time": 50.799737499999885,
          "velocity": 0.7874015748031497,
          "duration": 0.0007374999999996135
        },
        {
          "name": "E4",
          "midi": 64,
          "time": 50.975999999999885,
          "velocity": 0.7874015748031497,
          "duration": 0.0007374999999996135
        },
        {
          "name": "C5",
          "midi": 72,
          "time": 50.975999999999885,
          "velocity": 0.7874015748031497,
          "duration": 0.0007374999999996135
        },
        {
          "name": "E5",
          "midi": 76,
          "time": 50.975999999999885,
          "velocity": 0.7874015748031497,
          "duration": 0.0007374999999996135
        },
        {
          "name": "C6",
          "midi": 84,
          "time": 50.975999999999885,
          "velocity": 0.7874015748031497,
          "duration": 0.0007374999999996135
        },
        {
          "name": "E6",
          "midi": 88,
          "time": 50.975999999999885,
          "velocity": 0.7874015748031497,
          "duration": 0.0007374999999996135
        },
        {
          "name": "C7",
          "midi": 96,
          "time": 50.975999999999885,
          "velocity": 0.7874015748031497,
          "duration": 0.0007374999999996135
        },
        {
          "name": "E7",
          "midi": 100,
          "time": 50.975999999999885,
          "velocity": 0.7874015748031497,
          "duration": 0.0007374999999996135
        },
        {
          "name": "D4",
          "midi": 62,
          "time": 51.329999999999885,
          "velocity": 0.7874015748031497,
          "duration": 0.0007374999999996135
        },
        {
          "name": "D5",
          "midi": 74,
          "time": 51.329999999999885,
          "velocity": 0.7874015748031497,
          "duration": 0.0007374999999996135
        },
        {
          "name": "D6",
          "midi": 86,
          "time": 51.329999999999885,
          "velocity": 0.7874015748031497,
          "duration": 0.0007374999999996135
        },
        {
          "name": "D7",
          "midi": 98,
          "time": 51.329999999999885,
          "velocity": 0.7874015748031497,
          "duration": 0.0007374999999996135
        },
        {
          "name": "C6",
          "midi": 84,
          "time": 51.506999999999884,
          "velocity": 0.7874015748031497,
          "duration": 0.0007374999999996135
        },
        {
          "name": "C7",
          "midi": 96,
          "time": 51.506999999999884,
          "velocity": 0.7874015748031497,
          "duration": 0.0007374999999996135
        },
        {
          "name": "D7",
          "midi": 98,
          "time": 51.506999999999884,
          "velocity": 0.7874015748031497,
          "duration": 0.0007374999999996135
        },
        {
          "name": "C#4",
          "midi": 61,
          "time": 51.683999999999884,
          "velocity": 0.7874015748031497,
          "duration": 0.0007374999999996135
        },
        {
          "name": "C#5",
          "midi": 73,
          "time": 51.683999999999884,
          "velocity": 0.7874015748031497,
          "duration": 0.0007374999999996135
        },
        {
          "name": "D5",
          "midi": 74,
          "time": 51.683999999999884,
          "velocity": 0.7874015748031497,
          "duration": 0.0007374999999996135
        },
        {
          "name": "C#6",
          "midi": 85,
          "time": 51.683999999999884,
          "velocity": 0.7874015748031497,
          "duration": 0.0007374999999996135
        },
        {
          "name": "D6",
          "midi": 86,
          "time": 51.683999999999884,
          "velocity": 0.7874015748031497,
          "duration": 0.0007374999999996135
        },
        {
          "name": "C#7",
          "midi": 97,
          "time": 51.683999999999884,
          "velocity": 0.7874015748031497,
          "duration": 0.0007374999999996135
        },
        {
          "name": "D7",
          "midi": 98,
          "time": 51.683999999999884,
          "velocity": 0.7874015748031497,
          "duration": 0.0007374999999996135
        },
        {
          "name": "D7",
          "midi": 98,
          "time": 51.86173749999988,
          "velocity": 0.7874015748031497,
          "duration": 0.0007374999999996135
        },
        {
          "name": "D4",
          "midi": 62,
          "time": 52.03799999999988,
          "velocity": 0.7874015748031497,
          "duration": 0.0007374999999996135
        },
        {
          "name": "D5",
          "midi": 74,
          "time": 52.03799999999988,
          "velocity": 0.7874015748031497,
          "duration": 0.0007374999999996135
        },
        {
          "name": "D6",
          "midi": 86,
          "time": 52.03799999999988,
          "velocity": 0.7874015748031497,
          "duration": 0.0007374999999996135
        },
        {
          "name": "D7",
          "midi": 98,
          "time": 52.03799999999988,
          "velocity": 0.7874015748031497,
          "duration": 0.0007374999999996135
        },
        {
          "name": "C6",
          "midi": 84,
          "time": 52.21499999999988,
          "velocity": 0.7874015748031497,
          "duration": 0.0007374999999996135
        },
        {
          "name": "C7",
          "midi": 96,
          "time": 52.21499999999988,
          "velocity": 0.7874015748031497,
          "duration": 0.0007374999999996135
        },
        {
          "name": "D7",
          "midi": 98,
          "time": 52.21499999999988,
          "velocity": 0.7874015748031497,
          "duration": 0.0007374999999996135
        },
        {
          "name": "D4",
          "midi": 62,
          "time": 52.39199999999988,
          "velocity": 0.7874015748031497,
          "duration": 0.0007374999999996135
        },
        {
          "name": "C5",
          "midi": 72,
          "time": 52.39199999999988,
          "velocity": 0.7874015748031497,
          "duration": 0.0007374999999996135
        },
        {
          "name": "D5",
          "midi": 74,
          "time": 52.39199999999988,
          "velocity": 0.7874015748031497,
          "duration": 0.0007374999999996135
        },
        {
          "name": "C6",
          "midi": 84,
          "time": 52.39199999999988,
          "velocity": 0.7874015748031497,
          "duration": 0.0007374999999996135
        },
        {
          "name": "D6",
          "midi": 86,
          "time": 52.39199999999988,
          "velocity": 0.7874015748031497,
          "duration": 0.0007374999999996135
        },
        {
          "name": "C7",
          "midi": 96,
          "time": 52.39199999999988,
          "velocity": 0.7874015748031497,
          "duration": 0.0007374999999996135
        },
        {
          "name": "D7",
          "midi": 98,
          "time": 52.39199999999988,
          "velocity": 0.7874015748031497,
          "duration": 0.0007374999999996135
        },
        {
          "name": "D7",
          "midi": 98,
          "time": 52.56973749999988,
          "velocity": 0.7874015748031497,
          "duration": 0.0007374999999996135
        },
        {
          "name": "D4",
          "midi": 62,
          "time": 52.74599999999988,
          "velocity": 0.7874015748031497,
          "duration": 0.0007374999999996135
        },
        {
          "name": "D5",
          "midi": 74,
          "time": 52.74599999999988,
          "velocity": 0.7874015748031497,
          "duration": 0.0007374999999996135
        },
        {
          "name": "D6",
          "midi": 86,
          "time": 52.74599999999988,
          "velocity": 0.7874015748031497,
          "duration": 0.0007374999999996135
        },
        {
          "name": "D7",
          "midi": 98,
          "time": 52.74599999999988,
          "velocity": 0.7874015748031497,
          "duration": 0.0007374999999996135
        },
        {
          "name": "C6",
          "midi": 84,
          "time": 52.92373749999988,
          "velocity": 0.7874015748031497,
          "duration": 0.0007374999999996135
        },
        {
          "name": "C7",
          "midi": 96,
          "time": 52.92373749999988,
          "velocity": 0.7874015748031497,
          "duration": 0.0007374999999996135
        },
        {
          "name": "D7",
          "midi": 98,
          "time": 52.92373749999988,
          "velocity": 0.7874015748031497,
          "duration": 0.0007374999999996135
        },
        {
          "name": "C#4",
          "midi": 61,
          "time": 53.09999999999988,
          "velocity": 0.7874015748031497,
          "duration": 0.0007374999999996135
        },
        {
          "name": "C#5",
          "midi": 73,
          "time": 53.09999999999988,
          "velocity": 0.7874015748031497,
          "duration": 0.0007374999999996135
        },
        {
          "name": "D5",
          "midi": 74,
          "time": 53.09999999999988,
          "velocity": 0.7874015748031497,
          "duration": 0.0007374999999996135
        },
        {
          "name": "C#6",
          "midi": 85,
          "time": 53.09999999999988,
          "velocity": 0.7874015748031497,
          "duration": 0.0007374999999996135
        },
        {
          "name": "D6",
          "midi": 86,
          "time": 53.09999999999988,
          "velocity": 0.7874015748031497,
          "duration": 0.0007374999999996135
        },
        {
          "name": "C#7",
          "midi": 97,
          "time": 53.09999999999988,
          "velocity": 0.7874015748031497,
          "duration": 0.0007374999999996135
        },
        {
          "name": "D7",
          "midi": 98,
          "time": 53.09999999999988,
          "velocity": 0.7874015748031497,
          "duration": 0.0007374999999996135
        },
        {
          "name": "C6",
          "midi": 84,
          "time": 53.27773749999988,
          "velocity": 0.7874015748031497,
          "duration": 0.0007374999999996135
        },
        {
          "name": "C7",
          "midi": 96,
          "time": 53.27773749999988,
          "velocity": 0.7874015748031497,
          "duration": 0.0007374999999996135
        },
        {
          "name": "D7",
          "midi": 98,
          "time": 53.27773749999988,
          "velocity": 0.7874015748031497,
          "duration": 0.0007374999999996135
        },
        {
          "name": "D4",
          "midi": 62,
          "time": 53.45399999999988,
          "velocity": 0.7874015748031497,
          "duration": 0.0007374999999996135
        },
        {
          "name": "D5",
          "midi": 74,
          "time": 53.45399999999988,
          "velocity": 0.7874015748031497,
          "duration": 0.0007374999999996135
        },
        {
          "name": "D6",
          "midi": 86,
          "time": 53.45399999999988,
          "velocity": 0.7874015748031497,
          "duration": 0.0007374999999996135
        },
        {
          "name": "D7",
          "midi": 98,
          "time": 53.45399999999988,
          "velocity": 0.7874015748031497,
          "duration": 0.0007374999999996135
        },
        {
          "name": "C6",
          "midi": 84,
          "time": 53.63099999999988,
          "velocity": 0.7874015748031497,
          "duration": 0.0007374999999996135
        },
        {
          "name": "C7",
          "midi": 96,
          "time": 53.63099999999988,
          "velocity": 0.7874015748031497,
          "duration": 0.0007374999999996135
        },
        {
          "name": "D7",
          "midi": 98,
          "time": 53.63099999999988,
          "velocity": 0.7874015748031497,
          "duration": 0.0007374999999996135
        },
        {
          "name": "C4",
          "midi": 60,
          "time": 53.80799999999988,
          "velocity": 0.7874015748031497,
          "duration": 0.0007374999999996135
        },
        {
          "name": "C5",
          "midi": 72,
          "time": 53.80799999999988,
          "velocity": 0.7874015748031497,
          "duration": 0.0007374999999996135
        },
        {
          "name": "D5",
          "midi": 74,
          "time": 53.80799999999988,
          "velocity": 0.7874015748031497,
          "duration": 0.0007374999999996135
        },
        {
          "name": "C6",
          "midi": 84,
          "time": 53.80799999999988,
          "velocity": 0.7874015748031497,
          "duration": 0.0007374999999996135
        },
        {
          "name": "D6",
          "midi": 86,
          "time": 53.80799999999988,
          "velocity": 0.7874015748031497,
          "duration": 0.0007374999999996135
        },
        {
          "name": "C7",
          "midi": 96,
          "time": 53.80799999999988,
          "velocity": 0.7874015748031497,
          "duration": 0.0007374999999996135
        },
        {
          "name": "D7",
          "midi": 98,
          "time": 53.80799999999988,
          "velocity": 0.7874015748031497,
          "duration": 0.0007374999999996135
        },
        {
          "name": "D7",
          "midi": 98,
          "time": 53.98573749999988,
          "velocity": 0.7874015748031497,
          "duration": 0.0007374999999996135
        },
        {
          "name": "D4",
          "midi": 62,
          "time": 54.16199999999988,
          "velocity": 0.7874015748031497,
          "duration": 0.0007374999999996135
        },
        {
          "name": "D5",
          "midi": 74,
          "time": 54.16199999999988,
          "velocity": 0.7874015748031497,
          "duration": 0.0007374999999996135
        },
        {
          "name": "D6",
          "midi": 86,
          "time": 54.16199999999988,
          "velocity": 0.7874015748031497,
          "duration": 0.0007374999999996135
        },
        {
          "name": "D7",
          "midi": 98,
          "time": 54.16199999999988,
          "velocity": 0.7874015748031497,
          "duration": 0.0007374999999996135
        },
        {
          "name": "C6",
          "midi": 84,
          "time": 54.33973749999988,
          "velocity": 0.7874015748031497,
          "duration": 0.0007374999999996135
        },
        {
          "name": "C7",
          "midi": 96,
          "time": 54.33973749999988,
          "velocity": 0.7874015748031497,
          "duration": 0.0007374999999996135
        },
        {
          "name": "D7",
          "midi": 98,
          "time": 54.33973749999988,
          "velocity": 0.7874015748031497,
          "duration": 0.0007374999999996135
        },
        {
          "name": "C#4",
          "midi": 61,
          "time": 54.51599999999988,
          "velocity": 0.7874015748031497,
          "duration": 0.0007374999999996135
        },
        {
          "name": "C#5",
          "midi": 73,
          "time": 54.51599999999988,
          "velocity": 0.7874015748031497,
          "duration": 0.0007374999999996135
        },
        {
          "name": "D5",
          "midi": 74,
          "time": 54.51599999999988,
          "velocity": 0.7874015748031497,
          "duration": 0.0007374999999996135
        },
        {
          "name": "C#6",
          "midi": 85,
          "time": 54.51599999999988,
          "velocity": 0.7874015748031497,
          "duration": 0.0007374999999996135
        },
        {
          "name": "D6",
          "midi": 86,
          "time": 54.51599999999988,
          "velocity": 0.7874015748031497,
          "duration": 0.0007374999999996135
        },
        {
          "name": "C#7",
          "midi": 97,
          "time": 54.51599999999988,
          "velocity": 0.7874015748031497,
          "duration": 0.0007374999999996135
        },
        {
          "name": "D7",
          "midi": 98,
          "time": 54.51599999999988,
          "velocity": 0.7874015748031497,
          "duration": 0.0007374999999996135
        },
        {
          "name": "D7",
          "midi": 98,
          "time": 54.69373749999988,
          "velocity": 0.7874015748031497,
          "duration": 0.0007374999999996135
        },
        {
          "name": "D4",
          "midi": 62,
          "time": 54.86999999999988,
          "velocity": 0.7874015748031497,
          "duration": 0.0007374999999996135
        },
        {
          "name": "D5",
          "midi": 74,
          "time": 54.86999999999988,
          "velocity": 0.7874015748031497,
          "duration": 0.0007374999999996135
        },
        {
          "name": "D6",
          "midi": 86,
          "time": 54.86999999999988,
          "velocity": 0.7874015748031497,
          "duration": 0.0007374999999996135
        },
        {
          "name": "D7",
          "midi": 98,
          "time": 54.86999999999988,
          "velocity": 0.7874015748031497,
          "duration": 0.0007374999999996135
        },
        {
          "name": "C6",
          "midi": 84,
          "time": 55.047737499999876,
          "velocity": 0.7874015748031497,
          "duration": 0.0007374999999996135
        },
        {
          "name": "C7",
          "midi": 96,
          "time": 55.047737499999876,
          "velocity": 0.7874015748031497,
          "duration": 0.0007374999999996135
        },
        {
          "name": "D7",
          "midi": 98,
          "time": 55.047737499999876,
          "velocity": 0.7874015748031497,
          "duration": 0.0007374999999996135
        },
        {
          "name": "D4",
          "midi": 62,
          "time": 55.223999999999876,
          "velocity": 0.7874015748031497,
          "duration": 0.0007374999999996135
        },
        {
          "name": "C5",
          "midi": 72,
          "time": 55.223999999999876,
          "velocity": 0.7874015748031497,
          "duration": 0.0007374999999996135
        },
        {
          "name": "D5",
          "midi": 74,
          "time": 55.223999999999876,
          "velocity": 0.7874015748031497,
          "duration": 0.0007374999999996135
        },
        {
          "name": "C6",
          "midi": 84,
          "time": 55.223999999999876,
          "velocity": 0.7874015748031497,
          "duration": 0.0007374999999996135
        },
        {
          "name": "D6",
          "midi": 86,
          "time": 55.223999999999876,
          "velocity": 0.7874015748031497,
          "duration": 0.0007374999999996135
        },
        {
          "name": "C7",
          "midi": 96,
          "time": 55.223999999999876,
          "velocity": 0.7874015748031497,
          "duration": 0.0007374999999996135
        },
        {
          "name": "D7",
          "midi": 98,
          "time": 55.223999999999876,
          "velocity": 0.7874015748031497,
          "duration": 0.0007374999999996135
        },
        {
          "name": "D7",
          "midi": 98,
          "time": 55.401737499999875,
          "velocity": 0.7874015748031497,
          "duration": 0.0007374999999996135
        },
        {
          "name": "D4",
          "midi": 62,
          "time": 55.577999999999875,
          "velocity": 0.7874015748031497,
          "duration": 0.0007374999999996135
        },
        {
          "name": "D5",
          "midi": 74,
          "time": 55.577999999999875,
          "velocity": 0.7874015748031497,
          "duration": 0.0007374999999996135
        },
        {
          "name": "D6",
          "midi": 86,
          "time": 55.577999999999875,
          "velocity": 0.7874015748031497,
          "duration": 0.0007374999999996135
        },
        {
          "name": "D7",
          "midi": 98,
          "time": 55.577999999999875,
          "velocity": 0.7874015748031497,
          "duration": 0.0007374999999996135
        },
        {
          "name": "C6",
          "midi": 84,
          "time": 55.755737499999874,
          "velocity": 0.7874015748031497,
          "duration": 0.0007374999999996135
        },
        {
          "name": "C7",
          "midi": 96,
          "time": 55.755737499999874,
          "velocity": 0.7874015748031497,
          "duration": 0.0007374999999996135
        },
        {
          "name": "D7",
          "midi": 98,
          "time": 55.755737499999874,
          "velocity": 0.7874015748031497,
          "duration": 0.0007374999999996135
        },
        {
          "name": "C#4",
          "midi": 61,
          "time": 55.931999999999874,
          "velocity": 0.7874015748031497,
          "duration": 0.0007374999999996135
        },
        {
          "name": "C#5",
          "midi": 73,
          "time": 55.931999999999874,
          "velocity": 0.7874015748031497,
          "duration": 0.0007374999999996135
        },
        {
          "name": "D5",
          "midi": 74,
          "time": 55.931999999999874,
          "velocity": 0.7874015748031497,
          "duration": 0.0007374999999996135
        },
        {
          "name": "C#6",
          "midi": 85,
          "time": 55.931999999999874,
          "velocity": 0.7874015748031497,
          "duration": 0.0007374999999996135
        },
        {
          "name": "D6",
          "midi": 86,
          "time": 55.931999999999874,
          "velocity": 0.7874015748031497,
          "duration": 0.0007374999999996135
        },
        {
          "name": "C#7",
          "midi": 97,
          "time": 55.931999999999874,
          "velocity": 0.7874015748031497,
          "duration": 0.0007374999999996135
        },
        {
          "name": "D7",
          "midi": 98,
          "time": 55.931999999999874,
          "velocity": 0.7874015748031497,
          "duration": 0.0007374999999996135
        },
        {
          "name": "D7",
          "midi": 98,
          "time": 56.108999999999874,
          "velocity": 0.7874015748031497,
          "duration": 0.0007374999999996135
        },
        {
          "name": "D#4",
          "midi": 63,
          "time": 56.28599999999987,
          "velocity": 0.7874015748031497,
          "duration": 0.0007374999999996135
        },
        {
          "name": "D#5",
          "midi": 75,
          "time": 56.28599999999987,
          "velocity": 0.7874015748031497,
          "duration": 0.0007374999999996135
        },
        {
          "name": "D#6",
          "midi": 87,
          "time": 56.28599999999987,
          "velocity": 0.7874015748031497,
          "duration": 0.0007374999999996135
        },
        {
          "name": "D#7",
          "midi": 99,
          "time": 56.28599999999987,
          "velocity": 0.7874015748031497,
          "duration": 0.0007374999999996135
        },
        {
          "name": "D#6",
          "midi": 87,
          "time": 56.37449999999987,
          "velocity": 0.7874015748031497,
          "duration": 0.0007374999999996135
        },
        {
          "name": "D#7",
          "midi": 99,
          "time": 56.37449999999987,
          "velocity": 0.7874015748031497,
          "duration": 0.0007374999999996135
        },
        {
          "name": "D#4",
          "midi": 63,
          "time": 56.46373749999987,
          "velocity": 0.7874015748031497,
          "duration": 0.0007374999999996135
        },
        {
          "name": "D#5",
          "midi": 75,
          "time": 56.46373749999987,
          "velocity": 0.7874015748031497,
          "duration": 0.0007374999999996135
        },
        {
          "name": "D#6",
          "midi": 87,
          "time": 56.46373749999987,
          "velocity": 0.7874015748031497,
          "duration": 0.0007374999999996135
        },
        {
          "name": "D#7",
          "midi": 99,
          "time": 56.46373749999987,
          "velocity": 0.7874015748031497,
          "duration": 0.0007374999999996135
        },
        {
          "name": "D#6",
          "midi": 87,
          "time": 56.55149999999987,
          "velocity": 0.7874015748031497,
          "duration": 0.0007374999999996135
        },
        {
          "name": "D#7",
          "midi": 99,
          "time": 56.55149999999987,
          "velocity": 0.7874015748031497,
          "duration": 0.0007374999999996135
        },
        {
          "name": "E4",
          "midi": 64,
          "time": 56.639999999999866,
          "velocity": 0.7874015748031497,
          "duration": 0.0007374999999996135
        },
        {
          "name": "C5",
          "midi": 72,
          "time": 56.639999999999866,
          "velocity": 0.7874015748031497,
          "duration": 0.0007374999999996135
        },
        {
          "name": "E5",
          "midi": 76,
          "time": 56.639999999999866,
          "velocity": 0.7874015748031497,
          "duration": 0.0007374999999996135
        },
        {
          "name": "C6",
          "midi": 84,
          "time": 56.639999999999866,
          "velocity": 0.7874015748031497,
          "duration": 0.0007374999999996135
        },
        {
          "name": "E6",
          "midi": 88,
          "time": 56.639999999999866,
          "velocity": 0.7874015748031497,
          "duration": 0.0007374999999996135
        },
        {
          "name": "C7",
          "midi": 96,
          "time": 56.639999999999866,
          "velocity": 0.7874015748031497,
          "duration": 0.0007374999999996135
        },
        {
          "name": "E7",
          "midi": 100,
          "time": 56.639999999999866,
          "velocity": 0.7874015748031497,
          "duration": 0.0007374999999996135
        },
        {
          "name": "D4",
          "midi": 62,
          "time": 56.993999999999865,
          "velocity": 0.7874015748031497,
          "duration": 0.0007374999999996135
        },
        {
          "name": "D5",
          "midi": 74,
          "time": 56.993999999999865,
          "velocity": 0.7874015748031497,
          "duration": 0.0007374999999996135
        },
        {
          "name": "D6",
          "midi": 86,
          "time": 56.993999999999865,
          "velocity": 0.7874015748031497,
          "duration": 0.0007374999999996135
        },
        {
          "name": "D7",
          "midi": 98,
          "time": 56.993999999999865,
          "velocity": 0.7874015748031497,
          "duration": 0.0007374999999996135
        },
        {
          "name": "C6",
          "midi": 84,
          "time": 57.170999999999864,
          "velocity": 0.7874015748031497,
          "duration": 0.0007374999999996135
        },
        {
          "name": "C7",
          "midi": 96,
          "time": 57.170999999999864,
          "velocity": 0.7874015748031497,
          "duration": 0.0007374999999996135
        },
        {
          "name": "D7",
          "midi": 98,
          "time": 57.170999999999864,
          "velocity": 0.7874015748031497,
          "duration": 0.0007374999999996135
        },
        {
          "name": "C#4",
          "midi": 61,
          "time": 57.347999999999864,
          "velocity": 0.7874015748031497,
          "duration": 0.0007374999999996135
        },
        {
          "name": "C#5",
          "midi": 73,
          "time": 57.347999999999864,
          "velocity": 0.7874015748031497,
          "duration": 0.0007374999999996135
        },
        {
          "name": "D5",
          "midi": 74,
          "time": 57.347999999999864,
          "velocity": 0.7874015748031497,
          "duration": 0.0007374999999996135
        },
        {
          "name": "C#6",
          "midi": 85,
          "time": 57.347999999999864,
          "velocity": 0.7874015748031497,
          "duration": 0.0007374999999996135
        },
        {
          "name": "D6",
          "midi": 86,
          "time": 57.347999999999864,
          "velocity": 0.7874015748031497,
          "duration": 0.0007374999999996135
        },
        {
          "name": "C#7",
          "midi": 97,
          "time": 57.347999999999864,
          "velocity": 0.7874015748031497,
          "duration": 0.0007374999999996135
        },
        {
          "name": "D7",
          "midi": 98,
          "time": 57.347999999999864,
          "velocity": 0.7874015748031497,
          "duration": 0.0007374999999996135
        },
        {
          "name": "D7",
          "midi": 98,
          "time": 57.524999999999864,
          "velocity": 0.7874015748031497,
          "duration": 0.0007374999999996135
        },
        {
          "name": "D4",
          "midi": 62,
          "time": 57.70199999999986,
          "velocity": 0.7874015748031497,
          "duration": 0.0007374999999996135
        },
        {
          "name": "D5",
          "midi": 74,
          "time": 57.70199999999986,
          "velocity": 0.7874015748031497,
          "duration": 0.0007374999999996135
        },
        {
          "name": "D6",
          "midi": 86,
          "time": 57.70199999999986,
          "velocity": 0.7874015748031497,
          "duration": 0.0007374999999996135
        },
        {
          "name": "D7",
          "midi": 98,
          "time": 57.70199999999986,
          "velocity": 0.7874015748031497,
          "duration": 0.0007374999999996135
        },
        {
          "name": "C6",
          "midi": 84,
          "time": 57.87899999999986,
          "velocity": 0.7874015748031497,
          "duration": 0.0007374999999996135
        },
        {
          "name": "C7",
          "midi": 96,
          "time": 57.87899999999986,
          "velocity": 0.7874015748031497,
          "duration": 0.0007374999999996135
        },
        {
          "name": "D7",
          "midi": 98,
          "time": 57.87899999999986,
          "velocity": 0.7874015748031497,
          "duration": 0.0007374999999996135
        },
        {
          "name": "D4",
          "midi": 62,
          "time": 58.05599999999986,
          "velocity": 0.7874015748031497,
          "duration": 0.0007374999999996135
        },
        {
          "name": "C5",
          "midi": 72,
          "time": 58.05599999999986,
          "velocity": 0.7874015748031497,
          "duration": 0.0007374999999996135
        },
        {
          "name": "D5",
          "midi": 74,
          "time": 58.05599999999986,
          "velocity": 0.7874015748031497,
          "duration": 0.0007374999999996135
        },
        {
          "name": "C6",
          "midi": 84,
          "time": 58.05599999999986,
          "velocity": 0.7874015748031497,
          "duration": 0.0007374999999996135
        },
        {
          "name": "D6",
          "midi": 86,
          "time": 58.05599999999986,
          "velocity": 0.7874015748031497,
          "duration": 0.0007374999999996135
        },
        {
          "name": "C7",
          "midi": 96,
          "time": 58.05599999999986,
          "velocity": 0.7874015748031497,
          "duration": 0.0007374999999996135
        },
        {
          "name": "D7",
          "midi": 98,
          "time": 58.05599999999986,
          "velocity": 0.7874015748031497,
          "duration": 0.0007374999999996135
        },
        {
          "name": "D7",
          "midi": 98,
          "time": 58.23373749999986,
          "velocity": 0.7874015748031497,
          "duration": 0.0007374999999996135
        },
        {
          "name": "D4",
          "midi": 62,
          "time": 58.40999999999986,
          "velocity": 0.7874015748031497,
          "duration": 0.0007374999999996135
        },
        {
          "name": "D5",
          "midi": 74,
          "time": 58.40999999999986,
          "velocity": 0.7874015748031497,
          "duration": 0.0007374999999996135
        },
        {
          "name": "D6",
          "midi": 86,
          "time": 58.40999999999986,
          "velocity": 0.7874015748031497,
          "duration": 0.0007374999999996135
        },
        {
          "name": "D7",
          "midi": 98,
          "time": 58.40999999999986,
          "velocity": 0.7874015748031497,
          "duration": 0.0007374999999996135
        },
        {
          "name": "C6",
          "midi": 84,
          "time": 58.58699999999986,
          "velocity": 0.7874015748031497,
          "duration": 0.0007374999999996135
        },
        {
          "name": "C7",
          "midi": 96,
          "time": 58.58699999999986,
          "velocity": 0.7874015748031497,
          "duration": 0.0007374999999996135
        },
        {
          "name": "D7",
          "midi": 98,
          "time": 58.58699999999986,
          "velocity": 0.7874015748031497,
          "duration": 0.0007374999999996135
        },
        {
          "name": "C#4",
          "midi": 61,
          "time": 58.76399999999986,
          "velocity": 0.7874015748031497,
          "duration": 0.0007374999999996135
        },
        {
          "name": "C#5",
          "midi": 73,
          "time": 58.76399999999986,
          "velocity": 0.7874015748031497,
          "duration": 0.0007374999999996135
        },
        {
          "name": "D5",
          "midi": 74,
          "time": 58.76399999999986,
          "velocity": 0.7874015748031497,
          "duration": 0.0007374999999996135
        },
        {
          "name": "C#6",
          "midi": 85,
          "time": 58.76399999999986,
          "velocity": 0.7874015748031497,
          "duration": 0.0007374999999996135
        },
        {
          "name": "D6",
          "midi": 86,
          "time": 58.76399999999986,
          "velocity": 0.7874015748031497,
          "duration": 0.0007374999999996135
        },
        {
          "name": "C#7",
          "midi": 97,
          "time": 58.76399999999986,
          "velocity": 0.7874015748031497,
          "duration": 0.0007374999999996135
        },
        {
          "name": "D7",
          "midi": 98,
          "time": 58.76399999999986,
          "velocity": 0.7874015748031497,
          "duration": 0.0007374999999996135
        },
        {
          "name": "C6",
          "midi": 84,
          "time": 58.94099999999986,
          "velocity": 0.7874015748031497,
          "duration": 0.0007374999999996135
        },
        {
          "name": "C7",
          "midi": 96,
          "time": 58.94099999999986,
          "velocity": 0.7874015748031497,
          "duration": 0.0007374999999996135
        },
        {
          "name": "D7",
          "midi": 98,
          "time": 58.94099999999986,
          "velocity": 0.7874015748031497,
          "duration": 0.0007374999999996135
        },
        {
          "name": "D4",
          "midi": 62,
          "time": 59.11799999999986,
          "velocity": 0.7874015748031497,
          "duration": 0.0007374999999996135
        },
        {
          "name": "D5",
          "midi": 74,
          "time": 59.11799999999986,
          "velocity": 0.7874015748031497,
          "duration": 0.0007374999999996135
        },
        {
          "name": "D6",
          "midi": 86,
          "time": 59.11799999999986,
          "velocity": 0.7874015748031497,
          "duration": 0.0007374999999996135
        },
        {
          "name": "D7",
          "midi": 98,
          "time": 59.11799999999986,
          "velocity": 0.7874015748031497,
          "duration": 0.0007374999999996135
        },
        {
          "name": "C6",
          "midi": 84,
          "time": 59.29499999999986,
          "velocity": 0.7874015748031497,
          "duration": 0.0007374999999996135
        },
        {
          "name": "C7",
          "midi": 96,
          "time": 59.29499999999986,
          "velocity": 0.7874015748031497,
          "duration": 0.0007374999999996135
        },
        {
          "name": "D7",
          "midi": 98,
          "time": 59.29499999999986,
          "velocity": 0.7874015748031497,
          "duration": 0.0007374999999996135
        },
        {
          "name": "C4",
          "midi": 60,
          "time": 59.47199999999986,
          "velocity": 0.7874015748031497,
          "duration": 0.0007374999999996135
        },
        {
          "name": "C5",
          "midi": 72,
          "time": 59.47199999999986,
          "velocity": 0.7874015748031497,
          "duration": 0.0007374999999996135
        },
        {
          "name": "D5",
          "midi": 74,
          "time": 59.47199999999986,
          "velocity": 0.7874015748031497,
          "duration": 0.0007374999999996135
        },
        {
          "name": "C6",
          "midi": 84,
          "time": 59.47199999999986,
          "velocity": 0.7874015748031497,
          "duration": 0.0007374999999996135
        },
        {
          "name": "D6",
          "midi": 86,
          "time": 59.47199999999986,
          "velocity": 0.7874015748031497,
          "duration": 0.0007374999999996135
        },
        {
          "name": "C7",
          "midi": 96,
          "time": 59.47199999999986,
          "velocity": 0.7874015748031497,
          "duration": 0.0007374999999996135
        },
        {
          "name": "D7",
          "midi": 98,
          "time": 59.47199999999986,
          "velocity": 0.7874015748031497,
          "duration": 0.0007374999999996135
        },
        {
          "name": "D7",
          "midi": 98,
          "time": 59.64973749999986,
          "velocity": 0.7874015748031497,
          "duration": 0.0007374999999996135
        },
        {
          "name": "D4",
          "midi": 62,
          "time": 59.82599999999986,
          "velocity": 0.7874015748031497,
          "duration": 0.0007374999999996135
        },
        {
          "name": "D5",
          "midi": 74,
          "time": 59.82599999999986,
          "velocity": 0.7874015748031497,
          "duration": 0.0007374999999996135
        },
        {
          "name": "D6",
          "midi": 86,
          "time": 59.82599999999986,
          "velocity": 0.7874015748031497,
          "duration": 0.0007374999999996135
        },
        {
          "name": "D7",
          "midi": 98,
          "time": 59.82599999999986,
          "velocity": 0.7874015748031497,
          "duration": 0.0007374999999996135
        },
        {
          "name": "C6",
          "midi": 84,
          "time": 60.00299999999986,
          "velocity": 0.7874015748031497,
          "duration": 0.0007374999999996135
        },
        {
          "name": "C7",
          "midi": 96,
          "time": 60.00299999999986,
          "velocity": 0.7874015748031497,
          "duration": 0.0007374999999996135
        },
        {
          "name": "D7",
          "midi": 98,
          "time": 60.00299999999986,
          "velocity": 0.7874015748031497,
          "duration": 0.0007374999999996135
        },
        {
          "name": "C#4",
          "midi": 61,
          "time": 60.17999999999986,
          "velocity": 0.7874015748031497,
          "duration": 0.0007374999999996135
        },
        {
          "name": "C#5",
          "midi": 73,
          "time": 60.17999999999986,
          "velocity": 0.7874015748031497,
          "duration": 0.0007374999999996135
        },
        {
          "name": "D5",
          "midi": 74,
          "time": 60.17999999999986,
          "velocity": 0.7874015748031497,
          "duration": 0.0007374999999996135
        },
        {
          "name": "C#6",
          "midi": 85,
          "time": 60.17999999999986,
          "velocity": 0.7874015748031497,
          "duration": 0.0007374999999996135
        },
        {
          "name": "D6",
          "midi": 86,
          "time": 60.17999999999986,
          "velocity": 0.7874015748031497,
          "duration": 0.0007374999999996135
        },
        {
          "name": "C#7",
          "midi": 97,
          "time": 60.17999999999986,
          "velocity": 0.7874015748031497,
          "duration": 0.0007374999999996135
        },
        {
          "name": "D7",
          "midi": 98,
          "time": 60.17999999999986,
          "velocity": 0.7874015748031497,
          "duration": 0.0007374999999996135
        },
        {
          "name": "D7",
          "midi": 98,
          "time": 60.35626249999986,
          "velocity": 0.7874015748031497,
          "duration": 0.0007374999999996135
        },
        {
          "name": "D4",
          "midi": 62,
          "time": 60.53399999999986,
          "velocity": 0.7874015748031497,
          "duration": 0.0007374999999996135
        },
        {
          "name": "D5",
          "midi": 74,
          "time": 60.53399999999986,
          "velocity": 0.7874015748031497,
          "duration": 0.0007374999999996135
        },
        {
          "name": "D6",
          "midi": 86,
          "time": 60.53399999999986,
          "velocity": 0.7874015748031497,
          "duration": 0.0007374999999996135
        },
        {
          "name": "D7",
          "midi": 98,
          "time": 60.53399999999986,
          "velocity": 0.7874015748031497,
          "duration": 0.0007374999999996135
        },
        {
          "name": "C6",
          "midi": 84,
          "time": 60.710999999999856,
          "velocity": 0.7874015748031497,
          "duration": 0.0007374999999996135
        },
        {
          "name": "C7",
          "midi": 96,
          "time": 60.710999999999856,
          "velocity": 0.7874015748031497,
          "duration": 0.0007374999999996135
        },
        {
          "name": "D7",
          "midi": 98,
          "time": 60.710999999999856,
          "velocity": 0.7874015748031497,
          "duration": 0.0007374999999996135
        },
        {
          "name": "D4",
          "midi": 62,
          "time": 60.887999999999856,
          "velocity": 0.7874015748031497,
          "duration": 0.0007374999999996135
        },
        {
          "name": "C5",
          "midi": 72,
          "time": 60.887999999999856,
          "velocity": 0.7874015748031497,
          "duration": 0.0007374999999996135
        },
        {
          "name": "D5",
          "midi": 74,
          "time": 60.887999999999856,
          "velocity": 0.7874015748031497,
          "duration": 0.0007374999999996135
        },
        {
          "name": "C6",
          "midi": 84,
          "time": 60.887999999999856,
          "velocity": 0.7874015748031497,
          "duration": 0.0007374999999996135
        },
        {
          "name": "D6",
          "midi": 86,
          "time": 60.887999999999856,
          "velocity": 0.7874015748031497,
          "duration": 0.0007374999999996135
        },
        {
          "name": "C7",
          "midi": 96,
          "time": 60.887999999999856,
          "velocity": 0.7874015748031497,
          "duration": 0.0007374999999996135
        },
        {
          "name": "D7",
          "midi": 98,
          "time": 60.887999999999856,
          "velocity": 0.7874015748031497,
          "duration": 0.0007374999999996135
        },
        {
          "name": "D7",
          "midi": 98,
          "time": 61.064262499999856,
          "velocity": 0.7874015748031497,
          "duration": 0.0007374999999996135
        },
        {
          "name": "D4",
          "midi": 62,
          "time": 61.241999999999855,
          "velocity": 0.7874015748031497,
          "duration": 0.0007374999999996135
        },
        {
          "name": "D5",
          "midi": 74,
          "time": 61.241999999999855,
          "velocity": 0.7874015748031497,
          "duration": 0.0007374999999996135
        },
        {
          "name": "D6",
          "midi": 86,
          "time": 61.241999999999855,
          "velocity": 0.7874015748031497,
          "duration": 0.0007374999999996135
        },
        {
          "name": "D7",
          "midi": 98,
          "time": 61.241999999999855,
          "velocity": 0.7874015748031497,
          "duration": 0.0007374999999996135
        },
        {
          "name": "C6",
          "midi": 84,
          "time": 61.418262499999855,
          "velocity": 0.7874015748031497,
          "duration": 0.0007374999999996135
        },
        {
          "name": "C7",
          "midi": 96,
          "time": 61.418262499999855,
          "velocity": 0.7874015748031497,
          "duration": 0.0007374999999996135
        },
        {
          "name": "D7",
          "midi": 98,
          "time": 61.418262499999855,
          "velocity": 0.7874015748031497,
          "duration": 0.0007374999999996135
        },
        {
          "name": "D4",
          "midi": 62,
          "time": 61.595999999999854,
          "velocity": 0.7874015748031497,
          "duration": 0.0007374999999996135
        },
        {
          "name": "D5",
          "midi": 74,
          "time": 61.595999999999854,
          "velocity": 0.7874015748031497,
          "duration": 0.0007374999999996135
        },
        {
          "name": "D6",
          "midi": 86,
          "time": 61.595999999999854,
          "velocity": 0.7874015748031497,
          "duration": 0.0007374999999996135
        },
        {
          "name": "D7",
          "midi": 98,
          "time": 61.595999999999854,
          "velocity": 0.7874015748031497,
          "duration": 0.0007374999999996135
        },
        {
          "name": "C6",
          "midi": 84,
          "time": 61.772262499999854,
          "velocity": 0.7874015748031497,
          "duration": 0.0007374999999996135
        },
        {
          "name": "D6",
          "midi": 86,
          "time": 61.772262499999854,
          "velocity": 0.7874015748031497,
          "duration": 0.0007374999999996135
        },
        {
          "name": "C7",
          "midi": 96,
          "time": 61.772262499999854,
          "velocity": 0.7874015748031497,
          "duration": 0.0007374999999996135
        },
        {
          "name": "D7",
          "midi": 98,
          "time": 61.772262499999854,
          "velocity": 0.7874015748031497,
          "duration": 0.0007374999999996135
        },
        {
          "name": "C#4",
          "midi": 61,
          "time": 61.949999999999854,
          "velocity": 0.7874015748031497,
          "duration": 0.0007374999999996135
        },
        {
          "name": "C#5",
          "midi": 73,
          "time": 61.949999999999854,
          "velocity": 0.7874015748031497,
          "duration": 0.0007374999999996135
        },
        {
          "name": "E5",
          "midi": 76,
          "time": 61.949999999999854,
          "velocity": 0.7874015748031497,
          "duration": 0.0007374999999996135
        },
        {
          "name": "C#6",
          "midi": 85,
          "time": 61.949999999999854,
          "velocity": 0.7874015748031497,
          "duration": 0.0007374999999996135
        },
        {
          "name": "E6",
          "midi": 88,
          "time": 61.949999999999854,
          "velocity": 0.7874015748031497,
          "duration": 0.0007374999999996135
        },
        {
          "name": "C#7",
          "midi": 97,
          "time": 61.949999999999854,
          "velocity": 0.7874015748031497,
          "duration": 0.0007374999999996135
        },
        {
          "name": "E7",
          "midi": 100,
          "time": 61.949999999999854,
          "velocity": 0.7874015748031497,
          "duration": 0.0007374999999996135
        },
        {
          "name": "C7",
          "midi": 96,
          "time": 62.126262499999854,
          "velocity": 0.7874015748031497,
          "duration": 0.0007374999999996135
        },
        {
          "name": "D4",
          "midi": 62,
          "time": 62.30399999999985,
          "velocity": 0.7874015748031497,
          "duration": 0.0007374999999996135
        },
        {
          "name": "C5",
          "midi": 72,
          "time": 62.30399999999985,
          "velocity": 0.7874015748031497,
          "duration": 0.0007374999999996135
        },
        {
          "name": "D5",
          "midi": 74,
          "time": 62.30399999999985,
          "velocity": 0.7874015748031497,
          "duration": 0.0007374999999996135
        },
        {
          "name": "C6",
          "midi": 84,
          "time": 62.30399999999985,
          "velocity": 0.7874015748031497,
          "duration": 0.0007374999999996135
        },
        {
          "name": "D6",
          "midi": 86,
          "time": 62.30399999999985,
          "velocity": 0.7874015748031497,
          "duration": 0.0007374999999996135
        },
        {
          "name": "C7",
          "midi": 96,
          "time": 62.30399999999985,
          "velocity": 0.7874015748031497,
          "duration": 0.0007374999999996135
        },
        {
          "name": "D7",
          "midi": 98,
          "time": 62.30399999999985,
          "velocity": 0.7874015748031497,
          "duration": 0.0007374999999996135
        },
        {
          "name": "E4",
          "midi": 64,
          "time": 62.65799999999985,
          "velocity": 0.7874015748031497,
          "duration": 0.0007374999999996135
        },
        {
          "name": "E5",
          "midi": 76,
          "time": 62.65799999999985,
          "velocity": 0.7874015748031497,
          "duration": 0.0007374999999996135
        },
        {
          "name": "E6",
          "midi": 88,
          "time": 62.65799999999985,
          "velocity": 0.7874015748031497,
          "duration": 0.0007374999999996135
        },
        {
          "name": "E7",
          "midi": 100,
          "time": 62.65799999999985,
          "velocity": 0.7874015748031497,
          "duration": 0.0007374999999996135
        },
        {
          "name": "C6",
          "midi": 84,
          "time": 62.83499999999985,
          "velocity": 0.7874015748031497,
          "duration": 0.0007374999999996135
        },
        {
          "name": "C7",
          "midi": 96,
          "time": 62.83499999999985,
          "velocity": 0.7874015748031497,
          "duration": 0.0007374999999996135
        },
        {
          "name": "E7",
          "midi": 100,
          "time": 62.83499999999985,
          "velocity": 0.7874015748031497,
          "duration": 0.0007374999999996135
        },
        {
          "name": "C#4",
          "midi": 61,
          "time": 63.01199999999985,
          "velocity": 0.7874015748031497,
          "duration": 0.0007374999999996135
        },
        {
          "name": "C#5",
          "midi": 73,
          "time": 63.01199999999985,
          "velocity": 0.7874015748031497,
          "duration": 0.0007374999999996135
        },
        {
          "name": "E5",
          "midi": 76,
          "time": 63.01199999999985,
          "velocity": 0.7874015748031497,
          "duration": 0.0007374999999996135
        },
        {
          "name": "C#6",
          "midi": 85,
          "time": 63.01199999999985,
          "velocity": 0.7874015748031497,
          "duration": 0.0007374999999996135
        },
        {
          "name": "E6",
          "midi": 88,
          "time": 63.01199999999985,
          "velocity": 0.7874015748031497,
          "duration": 0.0007374999999996135
        },
        {
          "name": "C#7",
          "midi": 97,
          "time": 63.01199999999985,
          "velocity": 0.7874015748031497,
          "duration": 0.0007374999999996135
        },
        {
          "name": "E7",
          "midi": 100,
          "time": 63.01199999999985,
          "velocity": 0.7874015748031497,
          "duration": 0.0007374999999996135
        },
        {
          "name": "E7",
          "midi": 100,
          "time": 63.18973749999985,
          "velocity": 0.7874015748031497,
          "duration": 0.0007374999999996135
        },
        {
          "name": "E4",
          "midi": 64,
          "time": 63.36599999999985,
          "velocity": 0.7874015748031497,
          "duration": 0.0007374999999996135
        },
        {
          "name": "E5",
          "midi": 76,
          "time": 63.36599999999985,
          "velocity": 0.7874015748031497,
          "duration": 0.0007374999999996135
        },
        {
          "name": "E6",
          "midi": 88,
          "time": 63.36599999999985,
          "velocity": 0.7874015748031497,
          "duration": 0.0007374999999996135
        },
        {
          "name": "E7",
          "midi": 100,
          "time": 63.36599999999985,
          "velocity": 0.7874015748031497,
          "duration": 0.0007374999999996135
        },
        {
          "name": "C6",
          "midi": 84,
          "time": 63.54226249999985,
          "velocity": 0.7874015748031497,
          "duration": 0.0007374999999996135
        },
        {
          "name": "C7",
          "midi": 96,
          "time": 63.54226249999985,
          "velocity": 0.7874015748031497,
          "duration": 0.0007374999999996135
        },
        {
          "name": "E7",
          "midi": 100,
          "time": 63.54226249999985,
          "velocity": 0.7874015748031497,
          "duration": 0.0007374999999996135
        },
        {
          "name": "E4",
          "midi": 64,
          "time": 63.71999999999985,
          "velocity": 0.7874015748031497,
          "duration": 0.0007374999999996135
        },
        {
          "name": "C5",
          "midi": 72,
          "time": 63.71999999999985,
          "velocity": 0.7874015748031497,
          "duration": 0.0007374999999996135
        },
        {
          "name": "E5",
          "midi": 76,
          "time": 63.71999999999985,
          "velocity": 0.7874015748031497,
          "duration": 0.0007374999999996135
        },
        {
          "name": "C6",
          "midi": 84,
          "time": 63.71999999999985,
          "velocity": 0.7874015748031497,
          "duration": 0.0007374999999996135
        },
        {
          "name": "E6",
          "midi": 88,
          "time": 63.71999999999985,
          "velocity": 0.7874015748031497,
          "duration": 0.0007374999999996135
        },
        {
          "name": "C7",
          "midi": 96,
          "time": 63.71999999999985,
          "velocity": 0.7874015748031497,
          "duration": 0.0007374999999996135
        },
        {
          "name": "E7",
          "midi": 100,
          "time": 63.71999999999985,
          "velocity": 0.7874015748031497,
          "duration": 0.0007374999999996135
        },
        {
          "name": "E7",
          "midi": 100,
          "time": 63.89626249999985,
          "velocity": 0.7874015748031497,
          "duration": 0.0007374999999996135
        },
        {
          "name": "E4",
          "midi": 64,
          "time": 64.07399999999986,
          "velocity": 0.7874015748031497,
          "duration": 0.0007374999999996135
        },
        {
          "name": "E5",
          "midi": 76,
          "time": 64.07399999999986,
          "velocity": 0.7874015748031497,
          "duration": 0.0007374999999996135
        },
        {
          "name": "E6",
          "midi": 88,
          "time": 64.07399999999986,
          "velocity": 0.7874015748031497,
          "duration": 0.0007374999999996135
        },
        {
          "name": "E7",
          "midi": 100,
          "time": 64.07399999999986,
          "velocity": 0.7874015748031497,
          "duration": 0.0007374999999996135
        },
        {
          "name": "C6",
          "midi": 84,
          "time": 64.25026249999985,
          "velocity": 0.7874015748031497,
          "duration": 0.0007374999999996135
        },
        {
          "name": "C7",
          "midi": 96,
          "time": 64.25026249999985,
          "velocity": 0.7874015748031497,
          "duration": 0.0007374999999996135
        },
        {
          "name": "E7",
          "midi": 100,
          "time": 64.25026249999985,
          "velocity": 0.7874015748031497,
          "duration": 0.0007374999999996135
        },
        {
          "name": "C#4",
          "midi": 61,
          "time": 64.42799999999986,
          "velocity": 0.7874015748031497,
          "duration": 0.0007374999999996135
        },
        {
          "name": "C#5",
          "midi": 73,
          "time": 64.42799999999986,
          "velocity": 0.7874015748031497,
          "duration": 0.0007374999999996135
        },
        {
          "name": "E5",
          "midi": 76,
          "time": 64.42799999999986,
          "velocity": 0.7874015748031497,
          "duration": 0.0007374999999996135
        },
        {
          "name": "C#6",
          "midi": 85,
          "time": 64.42799999999986,
          "velocity": 0.7874015748031497,
          "duration": 0.0007374999999996135
        },
        {
          "name": "E6",
          "midi": 88,
          "time": 64.42799999999986,
          "velocity": 0.7874015748031497,
          "duration": 0.0007374999999996135
        },
        {
          "name": "C#7",
          "midi": 97,
          "time": 64.42799999999986,
          "velocity": 0.7874015748031497,
          "duration": 0.0007374999999996135
        },
        {
          "name": "E7",
          "midi": 100,
          "time": 64.42799999999986,
          "velocity": 0.7874015748031497,
          "duration": 0.0007374999999996135
        },
        {
          "name": "C6",
          "midi": 84,
          "time": 64.60499999999986,
          "velocity": 0.7874015748031497,
          "duration": 0.0007374999999996135
        },
        {
          "name": "C7",
          "midi": 96,
          "time": 64.60499999999986,
          "velocity": 0.7874015748031497,
          "duration": 0.0007374999999996135
        },
        {
          "name": "E7",
          "midi": 100,
          "time": 64.60499999999986,
          "velocity": 0.7874015748031497,
          "duration": 0.0007374999999996135
        },
        {
          "name": "E4",
          "midi": 64,
          "time": 64.78199999999987,
          "velocity": 0.7874015748031497,
          "duration": 0.0007374999999996135
        },
        {
          "name": "E5",
          "midi": 76,
          "time": 64.78199999999987,
          "velocity": 0.7874015748031497,
          "duration": 0.0007374999999996135
        },
        {
          "name": "E6",
          "midi": 88,
          "time": 64.78199999999987,
          "velocity": 0.7874015748031497,
          "duration": 0.0007374999999996135
        },
        {
          "name": "E7",
          "midi": 100,
          "time": 64.78199999999987,
          "velocity": 0.7874015748031497,
          "duration": 0.0007374999999996135
        },
        {
          "name": "C6",
          "midi": 84,
          "time": 64.95899999999988,
          "velocity": 0.7874015748031497,
          "duration": 0.0007374999999996135
        },
        {
          "name": "C7",
          "midi": 96,
          "time": 64.95899999999988,
          "velocity": 0.7874015748031497,
          "duration": 0.0007374999999996135
        },
        {
          "name": "E7",
          "midi": 100,
          "time": 64.95899999999988,
          "velocity": 0.7874015748031497,
          "duration": 0.0007374999999996135
        },
        {
          "name": "C4",
          "midi": 60,
          "time": 65.13599999999988,
          "velocity": 0.7874015748031497,
          "duration": 0.0007374999999996135
        },
        {
          "name": "C5",
          "midi": 72,
          "time": 65.13599999999988,
          "velocity": 0.7874015748031497,
          "duration": 0.0007374999999996135
        },
        {
          "name": "E5",
          "midi": 76,
          "time": 65.13599999999988,
          "velocity": 0.7874015748031497,
          "duration": 0.0007374999999996135
        },
        {
          "name": "C6",
          "midi": 84,
          "time": 65.13599999999988,
          "velocity": 0.7874015748031497,
          "duration": 0.0007374999999996135
        },
        {
          "name": "E6",
          "midi": 88,
          "time": 65.13599999999988,
          "velocity": 0.7874015748031497,
          "duration": 0.0007374999999996135
        },
        {
          "name": "C7",
          "midi": 96,
          "time": 65.13599999999988,
          "velocity": 0.7874015748031497,
          "duration": 0.0007374999999996135
        },
        {
          "name": "E7",
          "midi": 100,
          "time": 65.13599999999988,
          "velocity": 0.7874015748031497,
          "duration": 0.0007374999999996135
        },
        {
          "name": "E7",
          "midi": 100,
          "time": 65.31226249999987,
          "velocity": 0.7874015748031497,
          "duration": 0.0007374999999996135
        },
        {
          "name": "E4",
          "midi": 64,
          "time": 65.48999999999988,
          "velocity": 0.7874015748031497,
          "duration": 0.0007374999999996135
        },
        {
          "name": "E5",
          "midi": 76,
          "time": 65.48999999999988,
          "velocity": 0.7874015748031497,
          "duration": 0.0007374999999996135
        },
        {
          "name": "E6",
          "midi": 88,
          "time": 65.48999999999988,
          "velocity": 0.7874015748031497,
          "duration": 0.0007374999999996135
        },
        {
          "name": "E7",
          "midi": 100,
          "time": 65.48999999999988,
          "velocity": 0.7874015748031497,
          "duration": 0.0007374999999996135
        },
        {
          "name": "C6",
          "midi": 84,
          "time": 65.66626249999987,
          "velocity": 0.7874015748031497,
          "duration": 0.0007374999999996135
        },
        {
          "name": "C7",
          "midi": 96,
          "time": 65.66626249999987,
          "velocity": 0.7874015748031497,
          "duration": 0.0007374999999996135
        },
        {
          "name": "E7",
          "midi": 100,
          "time": 65.66626249999987,
          "velocity": 0.7874015748031497,
          "duration": 0.0007374999999996135
        },
        {
          "name": "C#4",
          "midi": 61,
          "time": 65.84399999999988,
          "velocity": 0.7874015748031497,
          "duration": 0.0007374999999996135
        },
        {
          "name": "C#5",
          "midi": 73,
          "time": 65.84399999999988,
          "velocity": 0.7874015748031497,
          "duration": 0.0007374999999996135
        },
        {
          "name": "E5",
          "midi": 76,
          "time": 65.84399999999988,
          "velocity": 0.7874015748031497,
          "duration": 0.0007374999999996135
        },
        {
          "name": "C#6",
          "midi": 85,
          "time": 65.84399999999988,
          "velocity": 0.7874015748031497,
          "duration": 0.0007374999999996135
        },
        {
          "name": "E6",
          "midi": 88,
          "time": 65.84399999999988,
          "velocity": 0.7874015748031497,
          "duration": 0.0007374999999996135
        },
        {
          "name": "C#7",
          "midi": 97,
          "time": 65.84399999999988,
          "velocity": 0.7874015748031497,
          "duration": 0.0007374999999996135
        },
        {
          "name": "E7",
          "midi": 100,
          "time": 65.84399999999988,
          "velocity": 0.7874015748031497,
          "duration": 0.0007374999999996135
        },
        {
          "name": "E7",
          "midi": 100,
          "time": 66.02026249999987,
          "velocity": 0.7874015748031497,
          "duration": 0.0007374999999996135
        },
        {
          "name": "E4",
          "midi": 64,
          "time": 66.19799999999988,
          "velocity": 0.7874015748031497,
          "duration": 0.0007374999999996135
        },
        {
          "name": "E5",
          "midi": 76,
          "time": 66.19799999999988,
          "velocity": 0.7874015748031497,
          "duration": 0.0007374999999996135
        },
        {
          "name": "E6",
          "midi": 88,
          "time": 66.19799999999988,
          "velocity": 0.7874015748031497,
          "duration": 0.0007374999999996135
        },
        {
          "name": "E7",
          "midi": 100,
          "time": 66.19799999999988,
          "velocity": 0.7874015748031497,
          "duration": 0.0007374999999996135
        },
        {
          "name": "C6",
          "midi": 84,
          "time": 66.37426249999987,
          "velocity": 0.7874015748031497,
          "duration": 0.0007374999999996135
        },
        {
          "name": "C7",
          "midi": 96,
          "time": 66.37426249999987,
          "velocity": 0.7874015748031497,
          "duration": 0.0007374999999996135
        },
        {
          "name": "E7",
          "midi": 100,
          "time": 66.37426249999987,
          "velocity": 0.7874015748031497,
          "duration": 0.0007374999999996135
        },
        {
          "name": "E4",
          "midi": 64,
          "time": 66.55199999999988,
          "velocity": 0.7874015748031497,
          "duration": 0.0007374999999996135
        },
        {
          "name": "C5",
          "midi": 72,
          "time": 66.55199999999988,
          "velocity": 0.7874015748031497,
          "duration": 0.0007374999999996135
        },
        {
          "name": "E5",
          "midi": 76,
          "time": 66.55199999999988,
          "velocity": 0.7874015748031497,
          "duration": 0.0007374999999996135
        },
        {
          "name": "C6",
          "midi": 84,
          "time": 66.55199999999988,
          "velocity": 0.7874015748031497,
          "duration": 0.0007374999999996135
        },
        {
          "name": "E6",
          "midi": 88,
          "time": 66.55199999999988,
          "velocity": 0.7874015748031497,
          "duration": 0.0007374999999996135
        },
        {
          "name": "C7",
          "midi": 96,
          "time": 66.55199999999988,
          "velocity": 0.7874015748031497,
          "duration": 0.0007374999999996135
        },
        {
          "name": "E7",
          "midi": 100,
          "time": 66.55199999999988,
          "velocity": 0.7874015748031497,
          "duration": 0.0007374999999996135
        },
        {
          "name": "E7",
          "midi": 100,
          "time": 66.72899999999989,
          "velocity": 0.7874015748031497,
          "duration": 0.0007374999999996135
        },
        {
          "name": "E4",
          "midi": 64,
          "time": 66.90599999999989,
          "velocity": 0.7874015748031497,
          "duration": 0.0007374999999996135
        },
        {
          "name": "E5",
          "midi": 76,
          "time": 66.90599999999989,
          "velocity": 0.7874015748031497,
          "duration": 0.0007374999999996135
        },
        {
          "name": "E6",
          "midi": 88,
          "time": 66.90599999999989,
          "velocity": 0.7874015748031497,
          "duration": 0.0007374999999996135
        },
        {
          "name": "E7",
          "midi": 100,
          "time": 66.90599999999989,
          "velocity": 0.7874015748031497,
          "duration": 0.0007374999999996135
        },
        {
          "name": "C6",
          "midi": 84,
          "time": 67.0837374999999,
          "velocity": 0.7874015748031497,
          "duration": 0.0007374999999996135
        },
        {
          "name": "C7",
          "midi": 96,
          "time": 67.0837374999999,
          "velocity": 0.7874015748031497,
          "duration": 0.0007374999999996135
        },
        {
          "name": "E7",
          "midi": 100,
          "time": 67.0837374999999,
          "velocity": 0.7874015748031497,
          "duration": 0.0007374999999996135
        },
        {
          "name": "E4",
          "midi": 64,
          "time": 67.25999999999989,
          "velocity": 0.7874015748031497,
          "duration": 0.0007374999999996135
        },
        {
          "name": "E5",
          "midi": 76,
          "time": 67.25999999999989,
          "velocity": 0.7874015748031497,
          "duration": 0.0007374999999996135
        },
        {
          "name": "E6",
          "midi": 88,
          "time": 67.25999999999989,
          "velocity": 0.7874015748031497,
          "duration": 0.0007374999999996135
        },
        {
          "name": "E7",
          "midi": 100,
          "time": 67.25999999999989,
          "velocity": 0.7874015748031497,
          "duration": 0.0007374999999996135
        },
        {
          "name": "F4",
          "midi": 65,
          "time": 67.4369999999999,
          "velocity": 0.7874015748031497,
          "duration": 0.0007374999999996135
        },
        {
          "name": "F5",
          "midi": 77,
          "time": 67.4369999999999,
          "velocity": 0.7874015748031497,
          "duration": 0.0007374999999996135
        },
        {
          "name": "F6",
          "midi": 89,
          "time": 67.4369999999999,
          "velocity": 0.7874015748031497,
          "duration": 0.0007374999999996135
        },
        {
          "name": "F7",
          "midi": 101,
          "time": 67.4369999999999,
          "velocity": 0.7874015748031497,
          "duration": 0.0007374999999996135
        },
        {
          "name": "D#6",
          "midi": 87,
          "time": 67.5254999999999,
          "velocity": 0.7874015748031497,
          "duration": 0.0007374999999996135
        },
        {
          "name": "D#7",
          "midi": 99,
          "time": 67.5254999999999,
          "velocity": 0.7874015748031497,
          "duration": 0.0007374999999996135
        },
        {
          "name": "C#4",
          "midi": 61,
          "time": 67.7909999999999,
          "velocity": 0.7874015748031497,
          "duration": 0.0007374999999996135
        },
        {
          "name": "C#5",
          "midi": 73,
          "time": 67.7909999999999,
          "velocity": 0.7874015748031497,
          "duration": 0.0007374999999996135
        },
        {
          "name": "C#6",
          "midi": 85,
          "time": 67.7909999999999,
          "velocity": 0.7874015748031497,
          "duration": 0.0007374999999996135
        },
        {
          "name": "C#7",
          "midi": 97,
          "time": 67.7909999999999,
          "velocity": 0.7874015748031497,
          "duration": 0.0007374999999996135
        },
        {
          "name": "D4",
          "midi": 62,
          "time": 67.9679999999999,
          "velocity": 0.7874015748031497,
          "duration": 0.0007374999999996135
        },
        {
          "name": "C5",
          "midi": 72,
          "time": 67.9679999999999,
          "velocity": 0.7874015748031497,
          "duration": 0.0007374999999996135
        },
        {
          "name": "D5",
          "midi": 74,
          "time": 67.9679999999999,
          "velocity": 0.7874015748031497,
          "duration": 0.0007374999999996135
        },
        {
          "name": "C6",
          "midi": 84,
          "time": 67.9679999999999,
          "velocity": 0.7874015748031497,
          "duration": 0.0007374999999996135
        },
        {
          "name": "D6",
          "midi": 86,
          "time": 67.9679999999999,
          "velocity": 0.7874015748031497,
          "duration": 0.0007374999999996135
        },
        {
          "name": "C7",
          "midi": 96,
          "time": 67.9679999999999,
          "velocity": 0.7874015748031497,
          "duration": 0.0007374999999996135
        },
        {
          "name": "D7",
          "midi": 98,
          "time": 67.9679999999999,
          "velocity": 0.7874015748031497,
          "duration": 0.0007374999999996135
        },
        {
          "name": "E4",
          "midi": 64,
          "time": 68.3219999999999,
          "velocity": 0.7874015748031497,
          "duration": 0.0007374999999996135
        },
        {
          "name": "E5",
          "midi": 76,
          "time": 68.3219999999999,
          "velocity": 0.7874015748031497,
          "duration": 0.0007374999999996135
        },
        {
          "name": "E6",
          "midi": 88,
          "time": 68.3219999999999,
          "velocity": 0.7874015748031497,
          "duration": 0.0007374999999996135
        },
        {
          "name": "E7",
          "midi": 100,
          "time": 68.3219999999999,
          "velocity": 0.7874015748031497,
          "duration": 0.0007374999999996135
        },
        {
          "name": "C6",
          "midi": 84,
          "time": 68.49973749999991,
          "velocity": 0.7874015748031497,
          "duration": 0.0007374999999996135
        },
        {
          "name": "C7",
          "midi": 96,
          "time": 68.49973749999991,
          "velocity": 0.7874015748031497,
          "duration": 0.0007374999999996135
        },
        {
          "name": "E7",
          "midi": 100,
          "time": 68.49973749999991,
          "velocity": 0.7874015748031497,
          "duration": 0.0007374999999996135
        },
        {
          "name": "C#4",
          "midi": 61,
          "time": 68.6759999999999,
          "velocity": 0.7874015748031497,
          "duration": 0.0007374999999996135
        },
        {
          "name": "C#5",
          "midi": 73,
          "time": 68.6759999999999,
          "velocity": 0.7874015748031497,
          "duration": 0.0007374999999996135
        },
        {
          "name": "E5",
          "midi": 76,
          "time": 68.6759999999999,
          "velocity": 0.7874015748031497,
          "duration": 0.0007374999999996135
        },
        {
          "name": "C#6",
          "midi": 85,
          "time": 68.6759999999999,
          "velocity": 0.7874015748031497,
          "duration": 0.0007374999999996135
        },
        {
          "name": "E6",
          "midi": 88,
          "time": 68.6759999999999,
          "velocity": 0.7874015748031497,
          "duration": 0.0007374999999996135
        },
        {
          "name": "C#7",
          "midi": 97,
          "time": 68.6759999999999,
          "velocity": 0.7874015748031497,
          "duration": 0.0007374999999996135
        },
        {
          "name": "E7",
          "midi": 100,
          "time": 68.6759999999999,
          "velocity": 0.7874015748031497,
          "duration": 0.0007374999999996135
        },
        {
          "name": "E7",
          "midi": 100,
          "time": 68.85373749999991,
          "velocity": 0.7874015748031497,
          "duration": 0.0007374999999996135
        },
        {
          "name": "E4",
          "midi": 64,
          "time": 69.0299999999999,
          "velocity": 0.7874015748031497,
          "duration": 0.0007374999999996135
        },
        {
          "name": "E5",
          "midi": 76,
          "time": 69.0299999999999,
          "velocity": 0.7874015748031497,
          "duration": 0.0007374999999996135
        },
        {
          "name": "E6",
          "midi": 88,
          "time": 69.0299999999999,
          "velocity": 0.7874015748031497,
          "duration": 0.0007374999999996135
        },
        {
          "name": "E7",
          "midi": 100,
          "time": 69.0299999999999,
          "velocity": 0.7874015748031497,
          "duration": 0.0007374999999996135
        },
        {
          "name": "C6",
          "midi": 84,
          "time": 69.20699999999991,
          "velocity": 0.7874015748031497,
          "duration": 0.0007374999999996135
        },
        {
          "name": "C7",
          "midi": 96,
          "time": 69.20699999999991,
          "velocity": 0.7874015748031497,
          "duration": 0.0007374999999996135
        },
        {
          "name": "E7",
          "midi": 100,
          "time": 69.20699999999991,
          "velocity": 0.7874015748031497,
          "duration": 0.0007374999999996135
        },
        {
          "name": "E4",
          "midi": 64,
          "time": 69.38399999999992,
          "velocity": 0.7874015748031497,
          "duration": 0.0007374999999996135
        },
        {
          "name": "C5",
          "midi": 72,
          "time": 69.38399999999992,
          "velocity": 0.7874015748031497,
          "duration": 0.0007374999999996135
        },
        {
          "name": "E5",
          "midi": 76,
          "time": 69.38399999999992,
          "velocity": 0.7874015748031497,
          "duration": 0.0007374999999996135
        },
        {
          "name": "C6",
          "midi": 84,
          "time": 69.38399999999992,
          "velocity": 0.7874015748031497,
          "duration": 0.0007374999999996135
        },
        {
          "name": "E6",
          "midi": 88,
          "time": 69.38399999999992,
          "velocity": 0.7874015748031497,
          "duration": 0.0007374999999996135
        },
        {
          "name": "C7",
          "midi": 96,
          "time": 69.38399999999992,
          "velocity": 0.7874015748031497,
          "duration": 0.0007374999999996135
        },
        {
          "name": "E7",
          "midi": 100,
          "time": 69.38399999999992,
          "velocity": 0.7874015748031497,
          "duration": 0.0007374999999996135
        },
        {
          "name": "E7",
          "midi": 100,
          "time": 69.56173749999992,
          "velocity": 0.7874015748031497,
          "duration": 0.0007374999999996135
        },
        {
          "name": "E4",
          "midi": 64,
          "time": 69.73799999999991,
          "velocity": 0.7874015748031497,
          "duration": 0.0007374999999996135
        },
        {
          "name": "E5",
          "midi": 76,
          "time": 69.73799999999991,
          "velocity": 0.7874015748031497,
          "duration": 0.0007374999999996135
        },
        {
          "name": "E6",
          "midi": 88,
          "time": 69.73799999999991,
          "velocity": 0.7874015748031497,
          "duration": 0.0007374999999996135
        },
        {
          "name": "E7",
          "midi": 100,
          "time": 69.73799999999991,
          "velocity": 0.7874015748031497,
          "duration": 0.0007374999999996135
        },
        {
          "name": "C6",
          "midi": 84,
          "time": 69.91499999999992,
          "velocity": 0.7874015748031497,
          "duration": 0.0007374999999996135
        },
        {
          "name": "C7",
          "midi": 96,
          "time": 69.91499999999992,
          "velocity": 0.7874015748031497,
          "duration": 0.0007374999999996135
        },
        {
          "name": "E7",
          "midi": 100,
          "time": 69.91499999999992,
          "velocity": 0.7874015748031497,
          "duration": 0.0007374999999996135
        },
        {
          "name": "C#4",
          "midi": 61,
          "time": 70.09199999999993,
          "velocity": 0.7874015748031497,
          "duration": 0.0007374999999996135
        },
        {
          "name": "C#5",
          "midi": 73,
          "time": 70.09199999999993,
          "velocity": 0.7874015748031497,
          "duration": 0.0007374999999996135
        },
        {
          "name": "E5",
          "midi": 76,
          "time": 70.09199999999993,
          "velocity": 0.7874015748031497,
          "duration": 0.0007374999999996135
        },
        {
          "name": "C#6",
          "midi": 85,
          "time": 70.09199999999993,
          "velocity": 0.7874015748031497,
          "duration": 0.0007374999999996135
        },
        {
          "name": "E6",
          "midi": 88,
          "time": 70.09199999999993,
          "velocity": 0.7874015748031497,
          "duration": 0.0007374999999996135
        },
        {
          "name": "C#7",
          "midi": 97,
          "time": 70.09199999999993,
          "velocity": 0.7874015748031497,
          "duration": 0.0007374999999996135
        },
        {
          "name": "E7",
          "midi": 100,
          "time": 70.09199999999993,
          "velocity": 0.7874015748031497,
          "duration": 0.0007374999999996135
        },
        {
          "name": "C6",
          "midi": 84,
          "time": 70.26899999999993,
          "velocity": 0.7874015748031497,
          "duration": 0.0007374999999996135
        },
        {
          "name": "C7",
          "midi": 96,
          "time": 70.26899999999993,
          "velocity": 0.7874015748031497,
          "duration": 0.0007374999999996135
        },
        {
          "name": "E7",
          "midi": 100,
          "time": 70.26899999999993,
          "velocity": 0.7874015748031497,
          "duration": 0.0007374999999996135
        },
        {
          "name": "E4",
          "midi": 64,
          "time": 70.44599999999994,
          "velocity": 0.7874015748031497,
          "duration": 0.0007374999999996135
        },
        {
          "name": "E5",
          "midi": 76,
          "time": 70.44599999999994,
          "velocity": 0.7874015748031497,
          "duration": 0.0007374999999996135
        },
        {
          "name": "E6",
          "midi": 88,
          "time": 70.44599999999994,
          "velocity": 0.7874015748031497,
          "duration": 0.0007374999999996135
        },
        {
          "name": "E7",
          "midi": 100,
          "time": 70.44599999999994,
          "velocity": 0.7874015748031497,
          "duration": 0.0007374999999996135
        },
        {
          "name": "C6",
          "midi": 84,
          "time": 70.62299999999995,
          "velocity": 0.7874015748031497,
          "duration": 0.0007374999999996135
        },
        {
          "name": "C7",
          "midi": 96,
          "time": 70.62299999999995,
          "velocity": 0.7874015748031497,
          "duration": 0.0007374999999996135
        },
        {
          "name": "E7",
          "midi": 100,
          "time": 70.62299999999995,
          "velocity": 0.7874015748031497,
          "duration": 0.0007374999999996135
        },
        {
          "name": "C4",
          "midi": 60,
          "time": 70.79999999999995,
          "velocity": 0.7874015748031497,
          "duration": 0.0007374999999996135
        },
        {
          "name": "C5",
          "midi": 72,
          "time": 70.79999999999995,
          "velocity": 0.7874015748031497,
          "duration": 0.0007374999999996135
        },
        {
          "name": "E5",
          "midi": 76,
          "time": 70.79999999999995,
          "velocity": 0.7874015748031497,
          "duration": 0.0007374999999996135
        },
        {
          "name": "C6",
          "midi": 84,
          "time": 70.79999999999995,
          "velocity": 0.7874015748031497,
          "duration": 0.0007374999999996135
        },
        {
          "name": "E6",
          "midi": 88,
          "time": 70.79999999999995,
          "velocity": 0.7874015748031497,
          "duration": 0.0007374999999996135
        },
        {
          "name": "C7",
          "midi": 96,
          "time": 70.79999999999995,
          "velocity": 0.7874015748031497,
          "duration": 0.0007374999999996135
        },
        {
          "name": "E7",
          "midi": 100,
          "time": 70.79999999999995,
          "velocity": 0.7874015748031497,
          "duration": 0.0007374999999996135
        },
        {
          "name": "E7",
          "midi": 100,
          "time": 70.97699999999996,
          "velocity": 0.7874015748031497,
          "duration": 0.0007374999999996135
        },
        {
          "name": "E4",
          "midi": 64,
          "time": 71.15399999999997,
          "velocity": 0.7874015748031497,
          "duration": 0.0007374999999996135
        },
        {
          "name": "E5",
          "midi": 76,
          "time": 71.15399999999997,
          "velocity": 0.7874015748031497,
          "duration": 0.0007374999999996135
        },
        {
          "name": "E6",
          "midi": 88,
          "time": 71.15399999999997,
          "velocity": 0.7874015748031497,
          "duration": 0.0007374999999996135
        },
        {
          "name": "E7",
          "midi": 100,
          "time": 71.15399999999997,
          "velocity": 0.7874015748031497,
          "duration": 0.0007374999999996135
        },
        {
          "name": "C6",
          "midi": 84,
          "time": 71.33173749999997,
          "velocity": 0.7874015748031497,
          "duration": 0.0007374999999996135
        },
        {
          "name": "C7",
          "midi": 96,
          "time": 71.33173749999997,
          "velocity": 0.7874015748031497,
          "duration": 0.0007374999999996135
        },
        {
          "name": "E7",
          "midi": 100,
          "time": 71.33173749999997,
          "velocity": 0.7874015748031497,
          "duration": 0.0007374999999996135
        },
        {
          "name": "C#4",
          "midi": 61,
          "time": 71.50799999999997,
          "velocity": 0.7874015748031497,
          "duration": 0.0007374999999996135
        },
        {
          "name": "C#5",
          "midi": 73,
          "time": 71.50799999999997,
          "velocity": 0.7874015748031497,
          "duration": 0.0007374999999996135
        },
        {
          "name": "E5",
          "midi": 76,
          "time": 71.50799999999997,
          "velocity": 0.7874015748031497,
          "duration": 0.0007374999999996135
        },
        {
          "name": "C#6",
          "midi": 85,
          "time": 71.50799999999997,
          "velocity": 0.7874015748031497,
          "duration": 0.0007374999999996135
        },
        {
          "name": "E6",
          "midi": 88,
          "time": 71.50799999999997,
          "velocity": 0.7874015748031497,
          "duration": 0.0007374999999996135
        },
        {
          "name": "C#7",
          "midi": 97,
          "time": 71.50799999999997,
          "velocity": 0.7874015748031497,
          "duration": 0.0007374999999996135
        },
        {
          "name": "E7",
          "midi": 100,
          "time": 71.50799999999997,
          "velocity": 0.7874015748031497,
          "duration": 0.0007374999999996135
        },
        {
          "name": "E7",
          "midi": 100,
          "time": 71.68573749999997,
          "velocity": 0.7874015748031497,
          "duration": 0.0007374999999996135
        },
        {
          "name": "E4",
          "midi": 64,
          "time": 71.86199999999997,
          "velocity": 0.7874015748031497,
          "duration": 0.0007374999999996135
        },
        {
          "name": "E5",
          "midi": 76,
          "time": 71.86199999999997,
          "velocity": 0.7874015748031497,
          "duration": 0.0007374999999996135
        },
        {
          "name": "E6",
          "midi": 88,
          "time": 71.86199999999997,
          "velocity": 0.7874015748031497,
          "duration": 0.0007374999999996135
        },
        {
          "name": "E7",
          "midi": 100,
          "time": 71.86199999999997,
          "velocity": 0.7874015748031497,
          "duration": 0.0007374999999996135
        },
        {
          "name": "C6",
          "midi": 84,
          "time": 72.03826249999996,
          "velocity": 0.7874015748031497,
          "duration": 0.0007374999999996135
        },
        {
          "name": "C7",
          "midi": 96,
          "time": 72.03826249999996,
          "velocity": 0.7874015748031497,
          "duration": 0.0007374999999996135
        },
        {
          "name": "E7",
          "midi": 100,
          "time": 72.03826249999996,
          "velocity": 0.7874015748031497,
          "duration": 0.0007374999999996135
        },
        {
          "name": "E4",
          "midi": 64,
          "time": 72.21599999999997,
          "velocity": 0.7874015748031497,
          "duration": 0.0007374999999996135
        },
        {
          "name": "C5",
          "midi": 72,
          "time": 72.21599999999997,
          "velocity": 0.7874015748031497,
          "duration": 0.0007374999999996135
        },
        {
          "name": "E5",
          "midi": 76,
          "time": 72.21599999999997,
          "velocity": 0.7874015748031497,
          "duration": 0.0007374999999996135
        },
        {
          "name": "C6",
          "midi": 84,
          "time": 72.21599999999997,
          "velocity": 0.7874015748031497,
          "duration": 0.0007374999999996135
        },
        {
          "name": "E6",
          "midi": 88,
          "time": 72.21599999999997,
          "velocity": 0.7874015748031497,
          "duration": 0.0007374999999996135
        },
        {
          "name": "C7",
          "midi": 96,
          "time": 72.21599999999997,
          "velocity": 0.7874015748031497,
          "duration": 0.0007374999999996135
        },
        {
          "name": "E7",
          "midi": 100,
          "time": 72.21599999999997,
          "velocity": 0.7874015748031497,
          "duration": 0.0007374999999996135
        },
        {
          "name": "E7",
          "midi": 100,
          "time": 72.39299999999997,
          "velocity": 0.7874015748031497,
          "duration": 0.0007374999999996135
        },
        {
          "name": "E4",
          "midi": 64,
          "time": 72.56999999999998,
          "velocity": 0.7874015748031497,
          "duration": 0.0007374999999996135
        },
        {
          "name": "E5",
          "midi": 76,
          "time": 72.56999999999998,
          "velocity": 0.7874015748031497,
          "duration": 0.0007374999999996135
        },
        {
          "name": "E6",
          "midi": 88,
          "time": 72.56999999999998,
          "velocity": 0.7874015748031497,
          "duration": 0.0007374999999996135
        },
        {
          "name": "E7",
          "midi": 100,
          "time": 72.56999999999998,
          "velocity": 0.7874015748031497,
          "duration": 0.0007374999999996135
        },
        {
          "name": "C6",
          "midi": 84,
          "time": 72.74773749999999,
          "velocity": 0.7874015748031497,
          "duration": 0.0007374999999996135
        },
        {
          "name": "C7",
          "midi": 96,
          "time": 72.74773749999999,
          "velocity": 0.7874015748031497,
          "duration": 0.0007374999999996135
        },
        {
          "name": "E7",
          "midi": 100,
          "time": 72.74773749999999,
          "velocity": 0.7874015748031497,
          "duration": 0.0007374999999996135
        },
        {
          "name": "C#4",
          "midi": 61,
          "time": 72.92399999999998,
          "velocity": 0.7874015748031497,
          "duration": 0.0007374999999996135
        },
        {
          "name": "C#5",
          "midi": 73,
          "time": 72.92399999999998,
          "velocity": 0.7874015748031497,
          "duration": 0.0007374999999996135
        },
        {
          "name": "C#6",
          "midi": 85,
          "time": 72.92399999999998,
          "velocity": 0.7874015748031497,
          "duration": 0.0007374999999996135
        },
        {
          "name": "C#7",
          "midi": 97,
          "time": 72.92399999999998,
          "velocity": 0.7874015748031497,
          "duration": 0.0007374999999996135
        },
        {
          "name": "E4",
          "midi": 64,
          "time": 73.27799999999998,
          "velocity": 0.7874015748031497,
          "duration": 0.0007374999999996135
        },
        {
          "name": "C5",
          "midi": 72,
          "time": 73.27799999999998,
          "velocity": 0.7874015748031497,
          "duration": 0.0007374999999996135
        },
        {
          "name": "E5",
          "midi": 76,
          "time": 73.27799999999998,
          "velocity": 0.7874015748031497,
          "duration": 0.0007374999999996135
        },
        {
          "name": "C6",
          "midi": 84,
          "time": 73.27799999999998,
          "velocity": 0.7874015748031497,
          "duration": 0.0007374999999996135
        },
        {
          "name": "D6",
          "midi": 86,
          "time": 73.27799999999998,
          "velocity": 0.7874015748031497,
          "duration": 0.0007374999999996135
        },
        {
          "name": "C7",
          "midi": 96,
          "time": 73.27799999999998,
          "velocity": 0.7874015748031497,
          "duration": 0.0007374999999996135
        },
        {
          "name": "D7",
          "midi": 98,
          "time": 73.27799999999998,
          "velocity": 0.7874015748031497,
          "duration": 0.0007374999999996135
        },
        {
          "name": "E4",
          "midi": 64,
          "time": 73.63199999999998,
          "velocity": 0.7874015748031497,
          "duration": 0.0007374999999996135
        },
        {
          "name": "C5",
          "midi": 72,
          "time": 73.63199999999998,
          "velocity": 0.7874015748031497,
          "duration": 0.0007374999999996135
        },
        {
          "name": "E5",
          "midi": 76,
          "time": 73.63199999999998,
          "velocity": 0.7874015748031497,
          "duration": 0.0007374999999996135
        },
        {
          "name": "C6",
          "midi": 84,
          "time": 73.63199999999998,
          "velocity": 0.7874015748031497,
          "duration": 0.0007374999999996135
        },
        {
          "name": "E6",
          "midi": 88,
          "time": 73.63199999999998,
          "velocity": 0.7874015748031497,
          "duration": 0.0007374999999996135
        },
        {
          "name": "C7",
          "midi": 96,
          "time": 73.63199999999998,
          "velocity": 0.7874015748031497,
          "duration": 0.0007374999999996135
        },
        {
          "name": "E7",
          "midi": 100,
          "time": 73.63199999999998,
          "velocity": 0.7874015748031497,
          "duration": 0.0007374999999996135
        },
        {
          "name": "D4",
          "midi": 62,
          "time": 73.98599999999998,
          "velocity": 0.7874015748031497,
          "duration": 0.0007374999999996135
        },
        {
          "name": "D5",
          "midi": 74,
          "time": 73.98599999999998,
          "velocity": 0.7874015748031497,
          "duration": 0.0007374999999996135
        },
        {
          "name": "D6",
          "midi": 86,
          "time": 73.98599999999998,
          "velocity": 0.7874015748031497,
          "duration": 0.0007374999999996135
        },
        {
          "name": "D7",
          "midi": 98,
          "time": 73.98599999999998,
          "velocity": 0.7874015748031497,
          "duration": 0.0007374999999996135
        },
        {
          "name": "C#4",
          "midi": 61,
          "time": 74.33999999999997,
          "velocity": 0.7874015748031497,
          "duration": 0.0007374999999996135
        },
        {
          "name": "C#5",
          "midi": 73,
          "time": 74.33999999999997,
          "velocity": 0.7874015748031497,
          "duration": 0.0007374999999996135
        },
        {
          "name": "D5",
          "midi": 74,
          "time": 74.33999999999997,
          "velocity": 0.7874015748031497,
          "duration": 0.0007374999999996135
        },
        {
          "name": "C#6",
          "midi": 85,
          "time": 74.33999999999997,
          "velocity": 0.7874015748031497,
          "duration": 0.0007374999999996135
        },
        {
          "name": "D6",
          "midi": 86,
          "time": 74.33999999999997,
          "velocity": 0.7874015748031497,
          "duration": 0.0007374999999996135
        },
        {
          "name": "C#7",
          "midi": 97,
          "time": 74.33999999999997,
          "velocity": 0.7874015748031497,
          "duration": 0.0007374999999996135
        },
        {
          "name": "D7",
          "midi": 98,
          "time": 74.33999999999997,
          "velocity": 0.7874015748031497,
          "duration": 0.0007374999999996135
        },
        {
          "name": "D4",
          "midi": 62,
          "time": 74.69399999999997,
          "velocity": 0.7874015748031497,
          "duration": 0.0007374999999996135
        },
        {
          "name": "D5",
          "midi": 74,
          "time": 74.69399999999997,
          "velocity": 0.7874015748031497,
          "duration": 0.0007374999999996135
        },
        {
          "name": "D6",
          "midi": 86,
          "time": 74.69399999999997,
          "velocity": 0.7874015748031497,
          "duration": 0.0007374999999996135
        },
        {
          "name": "D7",
          "midi": 98,
          "time": 74.69399999999997,
          "velocity": 0.7874015748031497,
          "duration": 0.0007374999999996135
        },
        {
          "name": "D4",
          "midi": 62,
          "time": 75.04799999999997,
          "velocity": 0.7874015748031497,
          "duration": 0.0007374999999996135
        },
        {
          "name": "D5",
          "midi": 74,
          "time": 75.04799999999997,
          "velocity": 0.7874015748031497,
          "duration": 0.0007374999999996135
        },
        {
          "name": "D6",
          "midi": 86,
          "time": 75.04799999999997,
          "velocity": 0.7874015748031497,
          "duration": 0.0007374999999996135
        },
        {
          "name": "D7",
          "midi": 98,
          "time": 75.04799999999997,
          "velocity": 0.7874015748031497,
          "duration": 0.0007374999999996135
        },
        {
          "name": "D4",
          "midi": 62,
          "time": 75.40199999999997,
          "velocity": 0.7874015748031497,
          "duration": 0.0007374999999996135
        },
        {
          "name": "C5",
          "midi": 72,
          "time": 75.40199999999997,
          "velocity": 0.7874015748031497,
          "duration": 0.0007374999999996135
        },
        {
          "name": "D5",
          "midi": 74,
          "time": 75.40199999999997,
          "velocity": 0.7874015748031497,
          "duration": 0.0007374999999996135
        },
        {
          "name": "C6",
          "midi": 84,
          "time": 75.40199999999997,
          "velocity": 0.7874015748031497,
          "duration": 0.0007374999999996135
        },
        {
          "name": "D6",
          "midi": 86,
          "time": 75.40199999999997,
          "velocity": 0.7874015748031497,
          "duration": 0.0007374999999996135
        },
        {
          "name": "C7",
          "midi": 96,
          "time": 75.40199999999997,
          "velocity": 0.7874015748031497,
          "duration": 0.0007374999999996135
        },
        {
          "name": "D7",
          "midi": 98,
          "time": 75.40199999999997,
          "velocity": 0.7874015748031497,
          "duration": 0.0007374999999996135
        },
        {
          "name": "C#4",
          "midi": 61,
          "time": 75.75599999999997,
          "velocity": 0.7874015748031497,
          "duration": 0.0007374999999996135
        },
        {
          "name": "C#5",
          "midi": 73,
          "time": 75.75599999999997,
          "velocity": 0.7874015748031497,
          "duration": 0.0007374999999996135
        },
        {
          "name": "D5",
          "midi": 74,
          "time": 75.75599999999997,
          "velocity": 0.7874015748031497,
          "duration": 0.0007374999999996135
        },
        {
          "name": "C#6",
          "midi": 85,
          "time": 75.75599999999997,
          "velocity": 0.7874015748031497,
          "duration": 0.0007374999999996135
        },
        {
          "name": "D6",
          "midi": 86,
          "time": 75.75599999999997,
          "velocity": 0.7874015748031497,
          "duration": 0.0007374999999996135
        },
        {
          "name": "C#7",
          "midi": 97,
          "time": 75.75599999999997,
          "velocity": 0.7874015748031497,
          "duration": 0.0007374999999996135
        },
        {
          "name": "D7",
          "midi": 98,
          "time": 75.75599999999997,
          "velocity": 0.7874015748031497,
          "duration": 0.0007374999999996135
        },
        {
          "name": "C6",
          "midi": 84,
          "time": 75.93299999999998,
          "velocity": 0.7874015748031497,
          "duration": 0.0007374999999996135
        },
        {
          "name": "C7",
          "midi": 96,
          "time": 75.93299999999998,
          "velocity": 0.7874015748031497,
          "duration": 0.0007374999999996135
        },
        {
          "name": "D4",
          "midi": 62,
          "time": 76.10999999999999,
          "velocity": 0.7874015748031497,
          "duration": 0.0007374999999996135
        },
        {
          "name": "D5",
          "midi": 74,
          "time": 76.10999999999999,
          "velocity": 0.7874015748031497,
          "duration": 0.0007374999999996135
        },
        {
          "name": "D6",
          "midi": 86,
          "time": 76.10999999999999,
          "velocity": 0.7874015748031497,
          "duration": 0.0007374999999996135
        },
        {
          "name": "D7",
          "midi": 98,
          "time": 76.10999999999999,
          "velocity": 0.7874015748031497,
          "duration": 0.0007374999999996135
        },
        {
          "name": "C6",
          "midi": 84,
          "time": 76.28699999999999,
          "velocity": 0.7874015748031497,
          "duration": 0.0007374999999996135
        },
        {
          "name": "C7",
          "midi": 96,
          "time": 76.28699999999999,
          "velocity": 0.7874015748031497,
          "duration": 0.0007374999999996135
        },
        {
          "name": "C4",
          "midi": 60,
          "time": 76.464,
          "velocity": 0.7874015748031497,
          "duration": 0.0007374999999996135
        },
        {
          "name": "C5",
          "midi": 72,
          "time": 76.464,
          "velocity": 0.7874015748031497,
          "duration": 0.0007374999999996135
        },
        {
          "name": "D5",
          "midi": 74,
          "time": 76.464,
          "velocity": 0.7874015748031497,
          "duration": 0.0007374999999996135
        },
        {
          "name": "C6",
          "midi": 84,
          "time": 76.464,
          "velocity": 0.7874015748031497,
          "duration": 0.0007374999999996135
        },
        {
          "name": "D6",
          "midi": 86,
          "time": 76.464,
          "velocity": 0.7874015748031497,
          "duration": 0.0007374999999996135
        },
        {
          "name": "C7",
          "midi": 96,
          "time": 76.464,
          "velocity": 0.7874015748031497,
          "duration": 0.0007374999999996135
        },
        {
          "name": "D7",
          "midi": 98,
          "time": 76.464,
          "velocity": 0.7874015748031497,
          "duration": 0.0007374999999996135
        },
        {
          "name": "D4",
          "midi": 62,
          "time": 76.818,
          "velocity": 0.7874015748031497,
          "duration": 0.0007374999999996135
        },
        {
          "name": "D5",
          "midi": 74,
          "time": 76.818,
          "velocity": 0.7874015748031497,
          "duration": 0.0007374999999996135
        },
        {
          "name": "D6",
          "midi": 86,
          "time": 76.818,
          "velocity": 0.7874015748031497,
          "duration": 0.0007374999999996135
        },
        {
          "name": "D7",
          "midi": 98,
          "time": 76.818,
          "velocity": 0.7874015748031497,
          "duration": 0.0007374999999996135
        },
        {
          "name": "C#4",
          "midi": 61,
          "time": 77.172,
          "velocity": 0.7874015748031497,
          "duration": 0.0007374999999996135
        },
        {
          "name": "C#5",
          "midi": 73,
          "time": 77.172,
          "velocity": 0.7874015748031497,
          "duration": 0.0007374999999996135
        },
        {
          "name": "D5",
          "midi": 74,
          "time": 77.172,
          "velocity": 0.7874015748031497,
          "duration": 0.0007374999999996135
        },
        {
          "name": "C#6",
          "midi": 85,
          "time": 77.172,
          "velocity": 0.7874015748031497,
          "duration": 0.0007374999999996135
        },
        {
          "name": "D6",
          "midi": 86,
          "time": 77.172,
          "velocity": 0.7874015748031497,
          "duration": 0.0007374999999996135
        },
        {
          "name": "C#7",
          "midi": 97,
          "time": 77.172,
          "velocity": 0.7874015748031497,
          "duration": 0.0007374999999996135
        },
        {
          "name": "D7",
          "midi": 98,
          "time": 77.172,
          "velocity": 0.7874015748031497,
          "duration": 0.0007374999999996135
        },
        {
          "name": "D4",
          "midi": 62,
          "time": 77.526,
          "velocity": 0.7874015748031497,
          "duration": 0.0007374999999996135
        },
        {
          "name": "D5",
          "midi": 74,
          "time": 77.526,
          "velocity": 0.7874015748031497,
          "duration": 0.0007374999999996135
        },
        {
          "name": "D6",
          "midi": 86,
          "time": 77.526,
          "velocity": 0.7874015748031497,
          "duration": 0.0007374999999996135
        },
        {
          "name": "D7",
          "midi": 98,
          "time": 77.526,
          "velocity": 0.7874015748031497,
          "duration": 0.0007374999999996135
        },
        {
          "name": "D4",
          "midi": 62,
          "time": 77.88,
          "velocity": 0.7874015748031497,
          "duration": 0.0007374999999996135
        },
        {
          "name": "D5",
          "midi": 74,
          "time": 77.88,
          "velocity": 0.7874015748031497,
          "duration": 0.0007374999999996135
        },
        {
          "name": "D6",
          "midi": 86,
          "time": 77.88,
          "velocity": 0.7874015748031497,
          "duration": 0.0007374999999996135
        },
        {
          "name": "D7",
          "midi": 98,
          "time": 77.88,
          "velocity": 0.7874015748031497,
          "duration": 0.0007374999999996135
        },
        {
          "name": "D4",
          "midi": 62,
          "time": 78.234,
          "velocity": 0.7874015748031497,
          "duration": 0.0007374999999996135
        },
        {
          "name": "C5",
          "midi": 72,
          "time": 78.234,
          "velocity": 0.7874015748031497,
          "duration": 0.0007374999999996135
        },
        {
          "name": "D5",
          "midi": 74,
          "time": 78.234,
          "velocity": 0.7874015748031497,
          "duration": 0.0007374999999996135
        },
        {
          "name": "C6",
          "midi": 84,
          "time": 78.234,
          "velocity": 0.7874015748031497,
          "duration": 0.0007374999999996135
        },
        {
          "name": "D6",
          "midi": 86,
          "time": 78.234,
          "velocity": 0.7874015748031497,
          "duration": 0.0007374999999996135
        },
        {
          "name": "C7",
          "midi": 96,
          "time": 78.234,
          "velocity": 0.7874015748031497,
          "duration": 0.0007374999999996135
        },
        {
          "name": "D7",
          "midi": 98,
          "time": 78.234,
          "velocity": 0.7874015748031497,
          "duration": 0.0007374999999996135
        },
        {
          "name": "C6",
          "midi": 84,
          "time": 78.411,
          "velocity": 0.7874015748031497,
          "duration": 0.0007374999999996135
        },
        {
          "name": "C7",
          "midi": 96,
          "time": 78.411,
          "velocity": 0.7874015748031497,
          "duration": 0.0007374999999996135
        },
        {
          "name": "C#4",
          "midi": 61,
          "time": 78.58800000000001,
          "velocity": 0.7874015748031497,
          "duration": 0.0007374999999996135
        },
        {
          "name": "C#5",
          "midi": 73,
          "time": 78.58800000000001,
          "velocity": 0.7874015748031497,
          "duration": 0.0007374999999996135
        },
        {
          "name": "D5",
          "midi": 74,
          "time": 78.58800000000001,
          "velocity": 0.7874015748031497,
          "duration": 0.0007374999999996135
        },
        {
          "name": "C#6",
          "midi": 85,
          "time": 78.58800000000001,
          "velocity": 0.7874015748031497,
          "duration": 0.0007374999999996135
        },
        {
          "name": "D6",
          "midi": 86,
          "time": 78.58800000000001,
          "velocity": 0.7874015748031497,
          "duration": 0.0007374999999996135
        },
        {
          "name": "C#7",
          "midi": 97,
          "time": 78.58800000000001,
          "velocity": 0.7874015748031497,
          "duration": 0.0007374999999996135
        },
        {
          "name": "D7",
          "midi": 98,
          "time": 78.58800000000001,
          "velocity": 0.7874015748031497,
          "duration": 0.0007374999999996135
        },
        {
          "name": "D4",
          "midi": 62,
          "time": 78.94200000000001,
          "velocity": 0.7874015748031497,
          "duration": 0.0007374999999996135
        },
        {
          "name": "D5",
          "midi": 74,
          "time": 78.94200000000001,
          "velocity": 0.7874015748031497,
          "duration": 0.0007374999999996135
        },
        {
          "name": "D6",
          "midi": 86,
          "time": 78.94200000000001,
          "velocity": 0.7874015748031497,
          "duration": 0.0007374999999996135
        },
        {
          "name": "D7",
          "midi": 98,
          "time": 78.94200000000001,
          "velocity": 0.7874015748031497,
          "duration": 0.0007374999999996135
        },
        {
          "name": "C4",
          "midi": 60,
          "time": 79.296,
          "velocity": 0.7874015748031497,
          "duration": 0.0007374999999996135
        },
        {
          "name": "C5",
          "midi": 72,
          "time": 79.296,
          "velocity": 0.7874015748031497,
          "duration": 0.0007374999999996135
        },
        {
          "name": "D5",
          "midi": 74,
          "time": 79.296,
          "velocity": 0.7874015748031497,
          "duration": 0.0007374999999996135
        },
        {
          "name": "C6",
          "midi": 84,
          "time": 79.296,
          "velocity": 0.7874015748031497,
          "duration": 0.0007374999999996135
        },
        {
          "name": "D6",
          "midi": 86,
          "time": 79.296,
          "velocity": 0.7874015748031497,
          "duration": 0.0007374999999996135
        },
        {
          "name": "C7",
          "midi": 96,
          "time": 79.296,
          "velocity": 0.7874015748031497,
          "duration": 0.0007374999999996135
        },
        {
          "name": "D7",
          "midi": 98,
          "time": 79.296,
          "velocity": 0.7874015748031497,
          "duration": 0.0007374999999996135
        },
        {
          "name": "D4",
          "midi": 62,
          "time": 79.65,
          "velocity": 0.7874015748031497,
          "duration": 0.0007374999999996135
        },
        {
          "name": "D5",
          "midi": 74,
          "time": 79.65,
          "velocity": 0.7874015748031497,
          "duration": 0.0007374999999996135
        },
        {
          "name": "D6",
          "midi": 86,
          "time": 79.65,
          "velocity": 0.7874015748031497,
          "duration": 0.0007374999999996135
        },
        {
          "name": "D7",
          "midi": 98,
          "time": 79.65,
          "velocity": 0.7874015748031497,
          "duration": 0.0007374999999996135
        },
        {
          "name": "C#4",
          "midi": 61,
          "time": 80.004,
          "velocity": 0.7874015748031497,
          "duration": 0.0007374999999996135
        },
        {
          "name": "C#5",
          "midi": 73,
          "time": 80.004,
          "velocity": 0.7874015748031497,
          "duration": 0.0007374999999996135
        },
        {
          "name": "D5",
          "midi": 74,
          "time": 80.004,
          "velocity": 0.7874015748031497,
          "duration": 0.0007374999999996135
        },
        {
          "name": "C#6",
          "midi": 85,
          "time": 80.004,
          "velocity": 0.7874015748031497,
          "duration": 0.0007374999999996135
        },
        {
          "name": "D6",
          "midi": 86,
          "time": 80.004,
          "velocity": 0.7874015748031497,
          "duration": 0.0007374999999996135
        },
        {
          "name": "C#7",
          "midi": 97,
          "time": 80.004,
          "velocity": 0.7874015748031497,
          "duration": 0.0007374999999996135
        },
        {
          "name": "D7",
          "midi": 98,
          "time": 80.004,
          "velocity": 0.7874015748031497,
          "duration": 0.0007374999999996135
        },
        {
          "name": "D4",
          "midi": 62,
          "time": 80.358,
          "velocity": 0.7874015748031497,
          "duration": 0.0007374999999996135
        },
        {
          "name": "D5",
          "midi": 74,
          "time": 80.358,
          "velocity": 0.7874015748031497,
          "duration": 0.0007374999999996135
        },
        {
          "name": "D6",
          "midi": 86,
          "time": 80.358,
          "velocity": 0.7874015748031497,
          "duration": 0.0007374999999996135
        },
        {
          "name": "D7",
          "midi": 98,
          "time": 80.358,
          "velocity": 0.7874015748031497,
          "duration": 0.0007374999999996135
        },
        {
          "name": "D4",
          "midi": 62,
          "time": 80.712,
          "velocity": 0.7874015748031497,
          "duration": 0.0007374999999996135
        },
        {
          "name": "C5",
          "midi": 72,
          "time": 80.712,
          "velocity": 0.7874015748031497,
          "duration": 0.0007374999999996135
        },
        {
          "name": "D5",
          "midi": 74,
          "time": 80.712,
          "velocity": 0.7874015748031497,
          "duration": 0.0007374999999996135
        },
        {
          "name": "C6",
          "midi": 84,
          "time": 80.712,
          "velocity": 0.7874015748031497,
          "duration": 0.0007374999999996135
        },
        {
          "name": "D6",
          "midi": 86,
          "time": 80.712,
          "velocity": 0.7874015748031497,
          "duration": 0.0007374999999996135
        },
        {
          "name": "C7",
          "midi": 96,
          "time": 80.712,
          "velocity": 0.7874015748031497,
          "duration": 0.0007374999999996135
        },
        {
          "name": "D7",
          "midi": 98,
          "time": 80.712,
          "velocity": 0.7874015748031497,
          "duration": 0.0007374999999996135
        },
        {
          "name": "D4",
          "midi": 62,
          "time": 81.066,
          "velocity": 0.7874015748031497,
          "duration": 0.0007374999999996135
        },
        {
          "name": "D5",
          "midi": 74,
          "time": 81.066,
          "velocity": 0.7874015748031497,
          "duration": 0.0007374999999996135
        },
        {
          "name": "C6",
          "midi": 84,
          "time": 81.066,
          "velocity": 0.7874015748031497,
          "duration": 0.0007374999999996135
        },
        {
          "name": "D6",
          "midi": 86,
          "time": 81.066,
          "velocity": 0.7874015748031497,
          "duration": 0.0007374999999996135
        },
        {
          "name": "C7",
          "midi": 96,
          "time": 81.066,
          "velocity": 0.7874015748031497,
          "duration": 0.0007374999999996135
        },
        {
          "name": "D7",
          "midi": 98,
          "time": 81.066,
          "velocity": 0.7874015748031497,
          "duration": 0.0007374999999996135
        },
        {
          "name": "C#4",
          "midi": 61,
          "time": 81.42,
          "velocity": 0.7874015748031497,
          "duration": 0.0007374999999996135
        },
        {
          "name": "C#5",
          "midi": 73,
          "time": 81.42,
          "velocity": 0.7874015748031497,
          "duration": 0.0007374999999996135
        },
        {
          "name": "D5",
          "midi": 74,
          "time": 81.42,
          "velocity": 0.7874015748031497,
          "duration": 0.0007374999999996135
        },
        {
          "name": "C#6",
          "midi": 85,
          "time": 81.42,
          "velocity": 0.7874015748031497,
          "duration": 0.0007374999999996135
        },
        {
          "name": "D6",
          "midi": 86,
          "time": 81.42,
          "velocity": 0.7874015748031497,
          "duration": 0.0007374999999996135
        },
        {
          "name": "C#7",
          "midi": 97,
          "time": 81.42,
          "velocity": 0.7874015748031497,
          "duration": 0.0007374999999996135
        },
        {
          "name": "D7",
          "midi": 98,
          "time": 81.42,
          "velocity": 0.7874015748031497,
          "duration": 0.0007374999999996135
        },
        {
          "name": "D4",
          "midi": 62,
          "time": 81.774,
          "velocity": 0.7874015748031497,
          "duration": 0.0007374999999996135
        },
        {
          "name": "C5",
          "midi": 72,
          "time": 81.774,
          "velocity": 0.7874015748031497,
          "duration": 0.0007374999999996135
        },
        {
          "name": "D5",
          "midi": 74,
          "time": 81.774,
          "velocity": 0.7874015748031497,
          "duration": 0.0007374999999996135
        },
        {
          "name": "C6",
          "midi": 84,
          "time": 81.774,
          "velocity": 0.7874015748031497,
          "duration": 0.0007374999999996135
        },
        {
          "name": "D6",
          "midi": 86,
          "time": 81.774,
          "velocity": 0.7874015748031497,
          "duration": 0.0007374999999996135
        },
        {
          "name": "C7",
          "midi": 96,
          "time": 81.774,
          "velocity": 0.7874015748031497,
          "duration": 0.0007374999999996135
        },
        {
          "name": "D7",
          "midi": 98,
          "time": 81.774,
          "velocity": 0.7874015748031497,
          "duration": 0.0007374999999996135
        },
        {
          "name": "D4",
          "midi": 62,
          "time": 82.128,
          "velocity": 0.7874015748031497,
          "duration": 0.0007374999999996135
        },
        {
          "name": "D5",
          "midi": 74,
          "time": 82.128,
          "velocity": 0.7874015748031497,
          "duration": 0.0007374999999996135
        },
        {
          "name": "D6",
          "midi": 86,
          "time": 82.128,
          "velocity": 0.7874015748031497,
          "duration": 0.0007374999999996135
        },
        {
          "name": "D7",
          "midi": 98,
          "time": 82.128,
          "velocity": 0.7874015748031497,
          "duration": 0.0007374999999996135
        },
        {
          "name": "D4",
          "midi": 62,
          "time": 82.482,
          "velocity": 0.7874015748031497,
          "duration": 0.0007374999999996135
        },
        {
          "name": "D5",
          "midi": 74,
          "time": 82.482,
          "velocity": 0.7874015748031497,
          "duration": 0.0007374999999996135
        },
        {
          "name": "D6",
          "midi": 86,
          "time": 82.482,
          "velocity": 0.7874015748031497,
          "duration": 0.0007374999999996135
        },
        {
          "name": "D7",
          "midi": 98,
          "time": 82.482,
          "velocity": 0.7874015748031497,
          "duration": 0.0007374999999996135
        },
        {
          "name": "C#4",
          "midi": 61,
          "time": 82.836,
          "velocity": 0.7874015748031497,
          "duration": 0.0007374999999996135
        },
        {
          "name": "C#5",
          "midi": 73,
          "time": 82.836,
          "velocity": 0.7874015748031497,
          "duration": 0.0007374999999996135
        },
        {
          "name": "D5",
          "midi": 74,
          "time": 82.836,
          "velocity": 0.7874015748031497,
          "duration": 0.0007374999999996135
        },
        {
          "name": "C#6",
          "midi": 85,
          "time": 82.836,
          "velocity": 0.7874015748031497,
          "duration": 0.0007374999999996135
        },
        {
          "name": "D6",
          "midi": 86,
          "time": 82.836,
          "velocity": 0.7874015748031497,
          "duration": 0.0007374999999996135
        },
        {
          "name": "C#7",
          "midi": 97,
          "time": 82.836,
          "velocity": 0.7874015748031497,
          "duration": 0.0007374999999996135
        },
        {
          "name": "D7",
          "midi": 98,
          "time": 82.836,
          "velocity": 0.7874015748031497,
          "duration": 0.0007374999999996135
        },
        {
          "name": "D4",
          "midi": 62,
          "time": 83.19,
          "velocity": 0.7874015748031497,
          "duration": 0.0007374999999996135
        },
        {
          "name": "D5",
          "midi": 74,
          "time": 83.19,
          "velocity": 0.7874015748031497,
          "duration": 0.0007374999999996135
        },
        {
          "name": "D6",
          "midi": 86,
          "time": 83.19,
          "velocity": 0.7874015748031497,
          "duration": 0.0007374999999996135
        },
        {
          "name": "D7",
          "midi": 98,
          "time": 83.19,
          "velocity": 0.7874015748031497,
          "duration": 0.0007374999999996135
        },
        {
          "name": "D4",
          "midi": 62,
          "time": 83.544,
          "velocity": 0.7874015748031497,
          "duration": 0.0007374999999996135
        },
        {
          "name": "C5",
          "midi": 72,
          "time": 83.544,
          "velocity": 0.7874015748031497,
          "duration": 0.0007374999999996135
        },
        {
          "name": "D5",
          "midi": 74,
          "time": 83.544,
          "velocity": 0.7874015748031497,
          "duration": 0.0007374999999996135
        },
        {
          "name": "C6",
          "midi": 84,
          "time": 83.544,
          "velocity": 0.7874015748031497,
          "duration": 0.0007374999999996135
        },
        {
          "name": "D6",
          "midi": 86,
          "time": 83.544,
          "velocity": 0.7874015748031497,
          "duration": 0.0007374999999996135
        },
        {
          "name": "C7",
          "midi": 96,
          "time": 83.544,
          "velocity": 0.7874015748031497,
          "duration": 0.0007374999999996135
        },
        {
          "name": "D7",
          "midi": 98,
          "time": 83.544,
          "velocity": 0.7874015748031497,
          "duration": 0.0007374999999996135
        },
        {
          "name": "D4",
          "midi": 62,
          "time": 83.898,
          "velocity": 0.7874015748031497,
          "duration": 0.0007374999999996135
        },
        {
          "name": "D5",
          "midi": 74,
          "time": 83.898,
          "velocity": 0.7874015748031497,
          "duration": 0.0007374999999996135
        },
        {
          "name": "C6",
          "midi": 84,
          "time": 83.898,
          "velocity": 0.7874015748031497,
          "duration": 0.0007374999999996135
        },
        {
          "name": "D6",
          "midi": 86,
          "time": 83.898,
          "velocity": 0.7874015748031497,
          "duration": 0.0007374999999996135
        },
        {
          "name": "C7",
          "midi": 96,
          "time": 83.898,
          "velocity": 0.7874015748031497,
          "duration": 0.0007374999999996135
        },
        {
          "name": "D7",
          "midi": 98,
          "time": 83.898,
          "velocity": 0.7874015748031497,
          "duration": 0.0007374999999996135
        },
        {
          "name": "C#4",
          "midi": 61,
          "time": 84.252,
          "velocity": 0.7874015748031497,
          "duration": 0.0007374999999996135
        },
        {
          "name": "C#5",
          "midi": 73,
          "time": 84.252,
          "velocity": 0.7874015748031497,
          "duration": 0.0007374999999996135
        },
        {
          "name": "D5",
          "midi": 74,
          "time": 84.252,
          "velocity": 0.7874015748031497,
          "duration": 0.0007374999999996135
        },
        {
          "name": "C#6",
          "midi": 85,
          "time": 84.252,
          "velocity": 0.7874015748031497,
          "duration": 0.0007374999999996135
        },
        {
          "name": "D6",
          "midi": 86,
          "time": 84.252,
          "velocity": 0.7874015748031497,
          "duration": 0.0007374999999996135
        },
        {
          "name": "C#7",
          "midi": 97,
          "time": 84.252,
          "velocity": 0.7874015748031497,
          "duration": 0.0007374999999996135
        },
        {
          "name": "D7",
          "midi": 98,
          "time": 84.252,
          "velocity": 0.7874015748031497,
          "duration": 0.0007374999999996135
        },
        {
          "name": "D4",
          "midi": 62,
          "time": 84.606,
          "velocity": 0.7874015748031497,
          "duration": 0.0007374999999996135
        },
        {
          "name": "D5",
          "midi": 74,
          "time": 84.606,
          "velocity": 0.7874015748031497,
          "duration": 0.0007374999999996135
        },
        {
          "name": "D6",
          "midi": 86,
          "time": 84.606,
          "velocity": 0.7874015748031497,
          "duration": 0.0007374999999996135
        },
        {
          "name": "D7",
          "midi": 98,
          "time": 84.606,
          "velocity": 0.7874015748031497,
          "duration": 0.0007374999999996135
        },
        {
          "name": "G#8",
          "midi": 116,
          "time": 84.96,
          "velocity": 0.7874015748031497,
          "duration": 2.9197624999999903
        },
        {
          "name": "E4",
          "midi": 64,
          "time": 84.96,
          "velocity": 0.7874015748031497,
          "duration": 0.0007374999999996135
        },
        {
          "name": "C5",
          "midi": 72,
          "time": 84.96,
          "velocity": 0.7874015748031497,
          "duration": 0.0007374999999996135
        },
        {
          "name": "E5",
          "midi": 76,
          "time": 84.96,
          "velocity": 0.7874015748031497,
          "duration": 0.0007374999999996135
        },
        {
          "name": "C6",
          "midi": 84,
          "time": 84.96,
          "velocity": 0.7874015748031497,
          "duration": 0.0007374999999996135
        },
        {
          "name": "E6",
          "midi": 88,
          "time": 84.96,
          "velocity": 0.7874015748031497,
          "duration": 0.0007374999999996135
        },
        {
          "name": "C7",
          "midi": 96,
          "time": 84.96,
          "velocity": 0.7874015748031497,
          "duration": 0.0007374999999996135
        },
        {
          "name": "E7",
          "midi": 100,
          "time": 84.96,
          "velocity": 0.7874015748031497,
          "duration": 0.0007374999999996135
        },
        {
          "name": "D4",
          "midi": 62,
          "time": 85.314,
          "velocity": 0.7874015748031497,
          "duration": 0.0007374999999996135
        },
        {
          "name": "D5",
          "midi": 74,
          "time": 85.314,
          "velocity": 0.7874015748031497,
          "duration": 0.0007374999999996135
        },
        {
          "name": "D6",
          "midi": 86,
          "time": 85.314,
          "velocity": 0.7874015748031497,
          "duration": 0.0007374999999996135
        },
        {
          "name": "D7",
          "midi": 98,
          "time": 85.314,
          "velocity": 0.7874015748031497,
          "duration": 0.0007374999999996135
        },
        {
          "name": "C#4",
          "midi": 61,
          "time": 85.66799999999999,
          "velocity": 0.7874015748031497,
          "duration": 0.0007374999999996135
        },
        {
          "name": "C#5",
          "midi": 73,
          "time": 85.66799999999999,
          "velocity": 0.7874015748031497,
          "duration": 0.0007374999999996135
        },
        {
          "name": "D5",
          "midi": 74,
          "time": 85.66799999999999,
          "velocity": 0.7874015748031497,
          "duration": 0.0007374999999996135
        },
        {
          "name": "C#6",
          "midi": 85,
          "time": 85.66799999999999,
          "velocity": 0.7874015748031497,
          "duration": 0.0007374999999996135
        },
        {
          "name": "D6",
          "midi": 86,
          "time": 85.66799999999999,
          "velocity": 0.7874015748031497,
          "duration": 0.0007374999999996135
        },
        {
          "name": "C#7",
          "midi": 97,
          "time": 85.66799999999999,
          "velocity": 0.7874015748031497,
          "duration": 0.0007374999999996135
        },
        {
          "name": "D7",
          "midi": 98,
          "time": 85.66799999999999,
          "velocity": 0.7874015748031497,
          "duration": 0.0007374999999996135
        },
        {
          "name": "D4",
          "midi": 62,
          "time": 86.02199999999999,
          "velocity": 0.7874015748031497,
          "duration": 0.0007374999999996135
        },
        {
          "name": "D5",
          "midi": 74,
          "time": 86.02199999999999,
          "velocity": 0.7874015748031497,
          "duration": 0.0007374999999996135
        },
        {
          "name": "D6",
          "midi": 86,
          "time": 86.02199999999999,
          "velocity": 0.7874015748031497,
          "duration": 0.0007374999999996135
        },
        {
          "name": "D7",
          "midi": 98,
          "time": 86.02199999999999,
          "velocity": 0.7874015748031497,
          "duration": 0.0007374999999996135
        },
        {
          "name": "E4",
          "midi": 64,
          "time": 86.37599999999999,
          "velocity": 0.7874015748031497,
          "duration": 0.0007374999999996135
        },
        {
          "name": "C5",
          "midi": 72,
          "time": 86.37599999999999,
          "velocity": 0.7874015748031497,
          "duration": 0.0007374999999996135
        },
        {
          "name": "E5",
          "midi": 76,
          "time": 86.37599999999999,
          "velocity": 0.7874015748031497,
          "duration": 0.0007374999999996135
        },
        {
          "name": "C6",
          "midi": 84,
          "time": 86.37599999999999,
          "velocity": 0.7874015748031497,
          "duration": 0.0007374999999996135
        },
        {
          "name": "E6",
          "midi": 88,
          "time": 86.37599999999999,
          "velocity": 0.7874015748031497,
          "duration": 0.0007374999999996135
        },
        {
          "name": "C7",
          "midi": 96,
          "time": 86.37599999999999,
          "velocity": 0.7874015748031497,
          "duration": 0.0007374999999996135
        },
        {
          "name": "E7",
          "midi": 100,
          "time": 86.37599999999999,
          "velocity": 0.7874015748031497,
          "duration": 0.0007374999999996135
        },
        {
          "name": "D4",
          "midi": 62,
          "time": 86.72999999999999,
          "velocity": 0.7874015748031497,
          "duration": 0.0007374999999996135
        },
        {
          "name": "D5",
          "midi": 74,
          "time": 86.72999999999999,
          "velocity": 0.7874015748031497,
          "duration": 0.0007374999999996135
        },
        {
          "name": "D6",
          "midi": 86,
          "time": 86.72999999999999,
          "velocity": 0.7874015748031497,
          "duration": 0.0007374999999996135
        },
        {
          "name": "D7",
          "midi": 98,
          "time": 86.72999999999999,
          "velocity": 0.7874015748031497,
          "duration": 0.0007374999999996135
        },
        {
          "name": "C6",
          "midi": 84,
          "time": 86.99549999999999,
          "velocity": 0.7874015748031497,
          "duration": 0.0007374999999996135
        },
        {
          "name": "C7",
          "midi": 96,
          "time": 86.99549999999999,
          "velocity": 0.7874015748031497,
          "duration": 0.0007374999999996135
        },
        {
          "name": "C#4",
          "midi": 61,
          "time": 87.08399999999999,
          "velocity": 0.7874015748031497,
          "duration": 0.0007374999999996135
        },
        {
          "name": "C#5",
          "midi": 73,
          "time": 87.08399999999999,
          "velocity": 0.7874015748031497,
          "duration": 0.0007374999999996135
        },
        {
          "name": "C#6",
          "midi": 85,
          "time": 87.08399999999999,
          "velocity": 0.7874015748031497,
          "duration": 0.0007374999999996135
        },
        {
          "name": "C#7",
          "midi": 97,
          "time": 87.08399999999999,
          "velocity": 0.7874015748031497,
          "duration": 0.0007374999999996135
        },
        {
          "name": "C4",
          "midi": 60,
          "time": 87.43799999999999,
          "velocity": 0.7874015748031497,
          "duration": 0.0007374999999996135
        },
        {
          "name": "C5",
          "midi": 72,
          "time": 87.43799999999999,
          "velocity": 0.7874015748031497,
          "duration": 0.0007374999999996135
        },
        {
          "name": "C6",
          "midi": 84,
          "time": 87.43799999999999,
          "velocity": 0.7874015748031497,
          "duration": 0.0007374999999996135
        },
        {
          "name": "C7",
          "midi": 96,
          "time": 87.43799999999999,
          "velocity": 0.7874015748031497,
          "duration": 0.0007374999999996135
        },
        {
          "name": "D7",
          "midi": 98,
          "time": 87.6157375,
          "velocity": 0.7874015748031497,
          "duration": 0.0007374999999996135
        },
        {
          "name": "E4",
          "midi": 64,
          "time": 87.79199999999999,
          "velocity": 0.7874015748031497,
          "duration": 0.0007374999999996135
        },
        {
          "name": "C5",
          "midi": 72,
          "time": 87.79199999999999,
          "velocity": 0.7874015748031497,
          "duration": 0.0007374999999996135
        },
        {
          "name": "E5",
          "midi": 76,
          "time": 87.79199999999999,
          "velocity": 0.7874015748031497,
          "duration": 0.0007374999999996135
        },
        {
          "name": "C6",
          "midi": 84,
          "time": 87.79199999999999,
          "velocity": 0.7874015748031497,
          "duration": 0.0007374999999996135
        },
        {
          "name": "E6",
          "midi": 88,
          "time": 87.79199999999999,
          "velocity": 0.7874015748031497,
          "duration": 0.0007374999999996135
        },
        {
          "name": "C7",
          "midi": 96,
          "time": 87.79199999999999,
          "velocity": 0.7874015748031497,
          "duration": 0.0007374999999996135
        },
        {
          "name": "E7",
          "midi": 100,
          "time": 87.79199999999999,
          "velocity": 0.7874015748031497,
          "duration": 0.0007374999999996135
        },
        {
          "name": "D4",
          "midi": 62,
          "time": 88.14599999999999,
          "velocity": 0.7874015748031497,
          "duration": 0.0007374999999996135
        },
        {
          "name": "D5",
          "midi": 74,
          "time": 88.14599999999999,
          "velocity": 0.7874015748031497,
          "duration": 0.0007374999999996135
        },
        {
          "name": "D6",
          "midi": 86,
          "time": 88.14599999999999,
          "velocity": 0.7874015748031497,
          "duration": 0.0007374999999996135
        },
        {
          "name": "D7",
          "midi": 98,
          "time": 88.14599999999999,
          "velocity": 0.7874015748031497,
          "duration": 0.0007374999999996135
        },
        {
          "name": "D7",
          "midi": 98,
          "time": 88.3237375,
          "velocity": 0.7874015748031497,
          "duration": 0.0007374999999996135
        },
        {
          "name": "C#4",
          "midi": 61,
          "time": 88.49999999999999,
          "velocity": 0.7874015748031497,
          "duration": 0.0007374999999996135
        },
        {
          "name": "C#5",
          "midi": 73,
          "time": 88.49999999999999,
          "velocity": 0.7874015748031497,
          "duration": 0.0007374999999996135
        },
        {
          "name": "D5",
          "midi": 74,
          "time": 88.49999999999999,
          "velocity": 0.7874015748031497,
          "duration": 0.0007374999999996135
        },
        {
          "name": "C#6",
          "midi": 85,
          "time": 88.49999999999999,
          "velocity": 0.7874015748031497,
          "duration": 0.0007374999999996135
        },
        {
          "name": "D6",
          "midi": 86,
          "time": 88.49999999999999,
          "velocity": 0.7874015748031497,
          "duration": 0.0007374999999996135
        },
        {
          "name": "C#7",
          "midi": 97,
          "time": 88.49999999999999,
          "velocity": 0.7874015748031497,
          "duration": 0.0007374999999996135
        },
        {
          "name": "D7",
          "midi": 98,
          "time": 88.49999999999999,
          "velocity": 0.7874015748031497,
          "duration": 0.0007374999999996135
        },
        {
          "name": "D7",
          "midi": 98,
          "time": 88.67773749999999,
          "velocity": 0.7874015748031497,
          "duration": 0.0007374999999996135
        },
        {
          "name": "D4",
          "midi": 62,
          "time": 88.85399999999998,
          "velocity": 0.7874015748031497,
          "duration": 0.0007374999999996135
        },
        {
          "name": "D5",
          "midi": 74,
          "time": 88.85399999999998,
          "velocity": 0.7874015748031497,
          "duration": 0.0007374999999996135
        },
        {
          "name": "D6",
          "midi": 86,
          "time": 88.85399999999998,
          "velocity": 0.7874015748031497,
          "duration": 0.0007374999999996135
        },
        {
          "name": "D7",
          "midi": 98,
          "time": 88.85399999999998,
          "velocity": 0.7874015748031497,
          "duration": 0.0007374999999996135
        },
        {
          "name": "D7",
          "midi": 98,
          "time": 89.03026249999998,
          "velocity": 0.7874015748031497,
          "duration": 0.0007374999999996135
        },
        {
          "name": "D4",
          "midi": 62,
          "time": 89.20799999999998,
          "velocity": 0.7874015748031497,
          "duration": 0.0007374999999996135
        },
        {
          "name": "D5",
          "midi": 74,
          "time": 89.20799999999998,
          "velocity": 0.7874015748031497,
          "duration": 0.0007374999999996135
        },
        {
          "name": "D6",
          "midi": 86,
          "time": 89.20799999999998,
          "velocity": 0.7874015748031497,
          "duration": 0.0007374999999996135
        },
        {
          "name": "D7",
          "midi": 98,
          "time": 89.20799999999998,
          "velocity": 0.7874015748031497,
          "duration": 0.0007374999999996135
        },
        {
          "name": "D7",
          "midi": 98,
          "time": 89.38499999999999,
          "velocity": 0.7874015748031497,
          "duration": 0.0007374999999996135
        },
        {
          "name": "D4",
          "midi": 62,
          "time": 89.562,
          "velocity": 0.7874015748031497,
          "duration": 0.0007374999999996135
        },
        {
          "name": "C5",
          "midi": 72,
          "time": 89.562,
          "velocity": 0.7874015748031497,
          "duration": 0.0007374999999996135
        },
        {
          "name": "D5",
          "midi": 74,
          "time": 89.562,
          "velocity": 0.7874015748031497,
          "duration": 0.0007374999999996135
        },
        {
          "name": "C6",
          "midi": 84,
          "time": 89.562,
          "velocity": 0.7874015748031497,
          "duration": 0.0007374999999996135
        },
        {
          "name": "D6",
          "midi": 86,
          "time": 89.562,
          "velocity": 0.7874015748031497,
          "duration": 0.0007374999999996135
        },
        {
          "name": "C7",
          "midi": 96,
          "time": 89.562,
          "velocity": 0.7874015748031497,
          "duration": 0.0007374999999996135
        },
        {
          "name": "D7",
          "midi": 98,
          "time": 89.562,
          "velocity": 0.7874015748031497,
          "duration": 0.0007374999999996135
        },
        {
          "name": "D7",
          "midi": 98,
          "time": 89.7397375,
          "velocity": 0.7874015748031497,
          "duration": 0.0007374999999996135
        },
        {
          "name": "C#4",
          "midi": 61,
          "time": 89.916,
          "velocity": 0.7874015748031497,
          "duration": 0.0007374999999996135
        },
        {
          "name": "C#5",
          "midi": 73,
          "time": 89.916,
          "velocity": 0.7874015748031497,
          "duration": 0.0007374999999996135
        },
        {
          "name": "D5",
          "midi": 74,
          "time": 89.916,
          "velocity": 0.7874015748031497,
          "duration": 0.0007374999999996135
        },
        {
          "name": "C#6",
          "midi": 85,
          "time": 89.916,
          "velocity": 0.7874015748031497,
          "duration": 0.0007374999999996135
        },
        {
          "name": "D6",
          "midi": 86,
          "time": 89.916,
          "velocity": 0.7874015748031497,
          "duration": 0.0007374999999996135
        },
        {
          "name": "C#7",
          "midi": 97,
          "time": 89.916,
          "velocity": 0.7874015748031497,
          "duration": 0.0007374999999996135
        },
        {
          "name": "D7",
          "midi": 98,
          "time": 89.916,
          "velocity": 0.7874015748031497,
          "duration": 0.0007374999999996135
        },
        {
          "name": "D7",
          "midi": 98,
          "time": 90.0937375,
          "velocity": 0.7874015748031497,
          "duration": 0.0007374999999996135
        },
        {
          "name": "D4",
          "midi": 62,
          "time": 90.27,
          "velocity": 0.7874015748031497,
          "duration": 0.0007374999999996135
        },
        {
          "name": "D5",
          "midi": 74,
          "time": 90.27,
          "velocity": 0.7874015748031497,
          "duration": 0.0007374999999996135
        },
        {
          "name": "D6",
          "midi": 86,
          "time": 90.27,
          "velocity": 0.7874015748031497,
          "duration": 0.0007374999999996135
        },
        {
          "name": "D7",
          "midi": 98,
          "time": 90.27,
          "velocity": 0.7874015748031497,
          "duration": 0.0007374999999996135
        },
        {
          "name": "D7",
          "midi": 98,
          "time": 90.447,
          "velocity": 0.7874015748031497,
          "duration": 0.0007374999999996135
        },
        {
          "name": "C4",
          "midi": 60,
          "time": 90.62400000000001,
          "velocity": 0.7874015748031497,
          "duration": 0.0007374999999996135
        },
        {
          "name": "C5",
          "midi": 72,
          "time": 90.62400000000001,
          "velocity": 0.7874015748031497,
          "duration": 0.0007374999999996135
        },
        {
          "name": "D5",
          "midi": 74,
          "time": 90.62400000000001,
          "velocity": 0.7874015748031497,
          "duration": 0.0007374999999996135
        },
        {
          "name": "C6",
          "midi": 84,
          "time": 90.62400000000001,
          "velocity": 0.7874015748031497,
          "duration": 0.0007374999999996135
        },
        {
          "name": "D6",
          "midi": 86,
          "time": 90.62400000000001,
          "velocity": 0.7874015748031497,
          "duration": 0.0007374999999996135
        },
        {
          "name": "C7",
          "midi": 96,
          "time": 90.62400000000001,
          "velocity": 0.7874015748031497,
          "duration": 0.0007374999999996135
        },
        {
          "name": "D7",
          "midi": 98,
          "time": 90.62400000000001,
          "velocity": 0.7874015748031497,
          "duration": 0.0007374999999996135
        },
        {
          "name": "D7",
          "midi": 98,
          "time": 90.80100000000002,
          "velocity": 0.7874015748031497,
          "duration": 0.0007374999999996135
        },
        {
          "name": "D4",
          "midi": 62,
          "time": 90.97800000000002,
          "velocity": 0.7874015748031497,
          "duration": 0.0007374999999996135
        },
        {
          "name": "D5",
          "midi": 74,
          "time": 90.97800000000002,
          "velocity": 0.7874015748031497,
          "duration": 0.0007374999999996135
        },
        {
          "name": "D6",
          "midi": 86,
          "time": 90.97800000000002,
          "velocity": 0.7874015748031497,
          "duration": 0.0007374999999996135
        },
        {
          "name": "D7",
          "midi": 98,
          "time": 90.97800000000002,
          "velocity": 0.7874015748031497,
          "duration": 0.0007374999999996135
        },
        {
          "name": "D7",
          "midi": 98,
          "time": 91.15573750000003,
          "velocity": 0.7874015748031497,
          "duration": 0.0007374999999996135
        },
        {
          "name": "C#4",
          "midi": 61,
          "time": 91.33200000000002,
          "velocity": 0.7874015748031497,
          "duration": 0.0007374999999996135
        },
        {
          "name": "C#5",
          "midi": 73,
          "time": 91.33200000000002,
          "velocity": 0.7874015748031497,
          "duration": 0.0007374999999996135
        },
        {
          "name": "D5",
          "midi": 74,
          "time": 91.33200000000002,
          "velocity": 0.7874015748031497,
          "duration": 0.0007374999999996135
        },
        {
          "name": "C#6",
          "midi": 85,
          "time": 91.33200000000002,
          "velocity": 0.7874015748031497,
          "duration": 0.0007374999999996135
        },
        {
          "name": "D6",
          "midi": 86,
          "time": 91.33200000000002,
          "velocity": 0.7874015748031497,
          "duration": 0.0007374999999996135
        },
        {
          "name": "C#7",
          "midi": 97,
          "time": 91.33200000000002,
          "velocity": 0.7874015748031497,
          "duration": 0.0007374999999996135
        },
        {
          "name": "D7",
          "midi": 98,
          "time": 91.33200000000002,
          "velocity": 0.7874015748031497,
          "duration": 0.0007374999999996135
        },
        {
          "name": "D7",
          "midi": 98,
          "time": 91.50900000000003,
          "velocity": 0.7874015748031497,
          "duration": 0.0007374999999996135
        },
        {
          "name": "D4",
          "midi": 62,
          "time": 91.68600000000004,
          "velocity": 0.7874015748031497,
          "duration": 0.0007374999999996135
        },
        {
          "name": "D5",
          "midi": 74,
          "time": 91.68600000000004,
          "velocity": 0.7874015748031497,
          "duration": 0.0007374999999996135
        },
        {
          "name": "D6",
          "midi": 86,
          "time": 91.68600000000004,
          "velocity": 0.7874015748031497,
          "duration": 0.0007374999999996135
        },
        {
          "name": "D7",
          "midi": 98,
          "time": 91.68600000000004,
          "velocity": 0.7874015748031497,
          "duration": 0.0007374999999996135
        },
        {
          "name": "D7",
          "midi": 98,
          "time": 91.86226250000003,
          "velocity": 0.7874015748031497,
          "duration": 0.0007374999999996135
        },
        {
          "name": "D4",
          "midi": 62,
          "time": 92.04000000000003,
          "velocity": 0.7874015748031497,
          "duration": 0.0007374999999996135
        },
        {
          "name": "D5",
          "midi": 74,
          "time": 92.04000000000003,
          "velocity": 0.7874015748031497,
          "duration": 0.0007374999999996135
        },
        {
          "name": "D6",
          "midi": 86,
          "time": 92.04000000000003,
          "velocity": 0.7874015748031497,
          "duration": 0.0007374999999996135
        },
        {
          "name": "D7",
          "midi": 98,
          "time": 92.04000000000003,
          "velocity": 0.7874015748031497,
          "duration": 0.0007374999999996135
        },
        {
          "name": "D7",
          "midi": 98,
          "time": 92.21700000000004,
          "velocity": 0.7874015748031497,
          "duration": 0.0007374999999996135
        },
        {
          "name": "D4",
          "midi": 62,
          "time": 92.39400000000005,
          "velocity": 0.7874015748031497,
          "duration": 0.0007374999999996135
        },
        {
          "name": "C5",
          "midi": 72,
          "time": 92.39400000000005,
          "velocity": 0.7874015748031497,
          "duration": 0.0007374999999996135
        },
        {
          "name": "D5",
          "midi": 74,
          "time": 92.39400000000005,
          "velocity": 0.7874015748031497,
          "duration": 0.0007374999999996135
        },
        {
          "name": "C6",
          "midi": 84,
          "time": 92.39400000000005,
          "velocity": 0.7874015748031497,
          "duration": 0.0007374999999996135
        },
        {
          "name": "D6",
          "midi": 86,
          "time": 92.39400000000005,
          "velocity": 0.7874015748031497,
          "duration": 0.0007374999999996135
        },
        {
          "name": "C7",
          "midi": 96,
          "time": 92.39400000000005,
          "velocity": 0.7874015748031497,
          "duration": 0.0007374999999996135
        },
        {
          "name": "D7",
          "midi": 98,
          "time": 92.39400000000005,
          "velocity": 0.7874015748031497,
          "duration": 0.0007374999999996135
        },
        {
          "name": "D7",
          "midi": 98,
          "time": 92.57173750000005,
          "velocity": 0.7874015748031497,
          "duration": 0.0007374999999996135
        },
        {
          "name": "C#4",
          "midi": 61,
          "time": 92.74800000000005,
          "velocity": 0.7874015748031497,
          "duration": 0.0007374999999996135
        },
        {
          "name": "C#5",
          "midi": 73,
          "time": 92.74800000000005,
          "velocity": 0.7874015748031497,
          "duration": 0.0007374999999996135
        },
        {
          "name": "D5",
          "midi": 74,
          "time": 92.74800000000005,
          "velocity": 0.7874015748031497,
          "duration": 0.0007374999999996135
        },
        {
          "name": "C#6",
          "midi": 85,
          "time": 92.74800000000005,
          "velocity": 0.7874015748031497,
          "duration": 0.0007374999999996135
        },
        {
          "name": "D6",
          "midi": 86,
          "time": 92.74800000000005,
          "velocity": 0.7874015748031497,
          "duration": 0.0007374999999996135
        },
        {
          "name": "C#7",
          "midi": 97,
          "time": 92.74800000000005,
          "velocity": 0.7874015748031497,
          "duration": 0.0007374999999996135
        },
        {
          "name": "D7",
          "midi": 98,
          "time": 92.74800000000005,
          "velocity": 0.7874015748031497,
          "duration": 0.0007374999999996135
        },
        {
          "name": "C6",
          "midi": 84,
          "time": 92.92500000000005,
          "velocity": 0.7874015748031497,
          "duration": 0.0007374999999996135
        },
        {
          "name": "D6",
          "midi": 86,
          "time": 92.92500000000005,
          "velocity": 0.7874015748031497,
          "duration": 0.0007374999999996135
        },
        {
          "name": "C7",
          "midi": 96,
          "time": 92.92500000000005,
          "velocity": 0.7874015748031497,
          "duration": 0.0007374999999996135
        },
        {
          "name": "D7",
          "midi": 98,
          "time": 92.92500000000005,
          "velocity": 0.7874015748031497,
          "duration": 0.0007374999999996135
        },
        {
          "name": "D4",
          "midi": 62,
          "time": 93.10200000000006,
          "velocity": 0.7874015748031497,
          "duration": 0.0007374999999996135
        },
        {
          "name": "D5",
          "midi": 74,
          "time": 93.10200000000006,
          "velocity": 0.7874015748031497,
          "duration": 0.0007374999999996135
        },
        {
          "name": "D7",
          "midi": 98,
          "time": 93.10200000000006,
          "velocity": 0.7874015748031497,
          "duration": 0.0007374999999996135
        },
        {
          "name": "D7",
          "midi": 98,
          "time": 93.27973750000007,
          "velocity": 0.7874015748031497,
          "duration": 0.0007374999999996135
        },
        {
          "name": "C4",
          "midi": 60,
          "time": 93.45600000000006,
          "velocity": 0.7874015748031497,
          "duration": 0.0007374999999996135
        },
        {
          "name": "C5",
          "midi": 72,
          "time": 93.45600000000006,
          "velocity": 0.7874015748031497,
          "duration": 0.0007374999999996135
        },
        {
          "name": "D5",
          "midi": 74,
          "time": 93.45600000000006,
          "velocity": 0.7874015748031497,
          "duration": 0.0007374999999996135
        },
        {
          "name": "C6",
          "midi": 84,
          "time": 93.45600000000006,
          "velocity": 0.7874015748031497,
          "duration": 0.0007374999999996135
        },
        {
          "name": "D6",
          "midi": 86,
          "time": 93.45600000000006,
          "velocity": 0.7874015748031497,
          "duration": 0.0007374999999996135
        },
        {
          "name": "C7",
          "midi": 96,
          "time": 93.45600000000006,
          "velocity": 0.7874015748031497,
          "duration": 0.0007374999999996135
        },
        {
          "name": "D7",
          "midi": 98,
          "time": 93.45600000000006,
          "velocity": 0.7874015748031497,
          "duration": 0.0007374999999996135
        },
        {
          "name": "D7",
          "midi": 98,
          "time": 93.63300000000007,
          "velocity": 0.7874015748031497,
          "duration": 0.0007374999999996135
        },
        {
          "name": "D4",
          "midi": 62,
          "time": 93.81000000000007,
          "velocity": 0.7874015748031497,
          "duration": 0.0007374999999996135
        },
        {
          "name": "D5",
          "midi": 74,
          "time": 93.81000000000007,
          "velocity": 0.7874015748031497,
          "duration": 0.0007374999999996135
        },
        {
          "name": "D6",
          "midi": 86,
          "time": 93.81000000000007,
          "velocity": 0.7874015748031497,
          "duration": 0.0007374999999996135
        },
        {
          "name": "D7",
          "midi": 98,
          "time": 93.81000000000007,
          "velocity": 0.7874015748031497,
          "duration": 0.0007374999999996135
        },
        {
          "name": "D7",
          "midi": 98,
          "time": 93.98700000000008,
          "velocity": 0.7874015748031497,
          "duration": 0.0007374999999996135
        },
        {
          "name": "C#4",
          "midi": 61,
          "time": 94.16400000000009,
          "velocity": 0.7874015748031497,
          "duration": 0.0007374999999996135
        },
        {
          "name": "C#5",
          "midi": 73,
          "time": 94.16400000000009,
          "velocity": 0.7874015748031497,
          "duration": 0.0007374999999996135
        },
        {
          "name": "D5",
          "midi": 74,
          "time": 94.16400000000009,
          "velocity": 0.7874015748031497,
          "duration": 0.0007374999999996135
        },
        {
          "name": "C#6",
          "midi": 85,
          "time": 94.16400000000009,
          "velocity": 0.7874015748031497,
          "duration": 0.0007374999999996135
        },
        {
          "name": "D6",
          "midi": 86,
          "time": 94.16400000000009,
          "velocity": 0.7874015748031497,
          "duration": 0.0007374999999996135
        },
        {
          "name": "C#7",
          "midi": 97,
          "time": 94.16400000000009,
          "velocity": 0.7874015748031497,
          "duration": 0.0007374999999996135
        },
        {
          "name": "D7",
          "midi": 98,
          "time": 94.16400000000009,
          "velocity": 0.7874015748031497,
          "duration": 0.0007374999999996135
        },
        {
          "name": "D7",
          "midi": 98,
          "time": 94.3410000000001,
          "velocity": 0.7874015748031497,
          "duration": 0.0007374999999996135
        },
        {
          "name": "D4",
          "midi": 62,
          "time": 94.5180000000001,
          "velocity": 0.7874015748031497,
          "duration": 0.0007374999999996135
        },
        {
          "name": "D5",
          "midi": 74,
          "time": 94.5180000000001,
          "velocity": 0.7874015748031497,
          "duration": 0.0007374999999996135
        },
        {
          "name": "D6",
          "midi": 86,
          "time": 94.5180000000001,
          "velocity": 0.7874015748031497,
          "duration": 0.0007374999999996135
        },
        {
          "name": "D7",
          "midi": 98,
          "time": 94.5180000000001,
          "velocity": 0.7874015748031497,
          "duration": 0.0007374999999996135
        },
        {
          "name": "D7",
          "midi": 98,
          "time": 94.6957375000001,
          "velocity": 0.7874015748031497,
          "duration": 0.0007374999999996135
        },
        {
          "name": "D4",
          "midi": 62,
          "time": 94.8720000000001,
          "velocity": 0.7874015748031497,
          "duration": 0.0007374999999996135
        },
        {
          "name": "D5",
          "midi": 74,
          "time": 94.8720000000001,
          "velocity": 0.7874015748031497,
          "duration": 0.0007374999999996135
        },
        {
          "name": "D6",
          "midi": 86,
          "time": 94.8720000000001,
          "velocity": 0.7874015748031497,
          "duration": 0.0007374999999996135
        },
        {
          "name": "D7",
          "midi": 98,
          "time": 94.8720000000001,
          "velocity": 0.7874015748031497,
          "duration": 0.0007374999999996135
        },
        {
          "name": "D7",
          "midi": 98,
          "time": 95.0490000000001,
          "velocity": 0.7874015748031497,
          "duration": 0.0007374999999996135
        },
        {
          "name": "D4",
          "midi": 62,
          "time": 95.22600000000011,
          "velocity": 0.7874015748031497,
          "duration": 0.0007374999999996135
        },
        {
          "name": "C5",
          "midi": 72,
          "time": 95.22600000000011,
          "velocity": 0.7874015748031497,
          "duration": 0.0007374999999996135
        },
        {
          "name": "D5",
          "midi": 74,
          "time": 95.22600000000011,
          "velocity": 0.7874015748031497,
          "duration": 0.0007374999999996135
        },
        {
          "name": "C6",
          "midi": 84,
          "time": 95.22600000000011,
          "velocity": 0.7874015748031497,
          "duration": 0.0007374999999996135
        },
        {
          "name": "D6",
          "midi": 86,
          "time": 95.22600000000011,
          "velocity": 0.7874015748031497,
          "duration": 0.0007374999999996135
        },
        {
          "name": "C7",
          "midi": 96,
          "time": 95.22600000000011,
          "velocity": 0.7874015748031497,
          "duration": 0.0007374999999996135
        },
        {
          "name": "D7",
          "midi": 98,
          "time": 95.22600000000011,
          "velocity": 0.7874015748031497,
          "duration": 0.0007374999999996135
        },
        {
          "name": "D7",
          "midi": 98,
          "time": 95.40300000000012,
          "velocity": 0.7874015748031497,
          "duration": 0.0007374999999996135
        },
        {
          "name": "C#4",
          "midi": 61,
          "time": 95.58000000000013,
          "velocity": 0.7874015748031497,
          "duration": 0.0007374999999996135
        },
        {
          "name": "C#5",
          "midi": 73,
          "time": 95.58000000000013,
          "velocity": 0.7874015748031497,
          "duration": 0.0007374999999996135
        },
        {
          "name": "D5",
          "midi": 74,
          "time": 95.58000000000013,
          "velocity": 0.7874015748031497,
          "duration": 0.0007374999999996135
        },
        {
          "name": "C#6",
          "midi": 85,
          "time": 95.58000000000013,
          "velocity": 0.7874015748031497,
          "duration": 0.0007374999999996135
        },
        {
          "name": "D6",
          "midi": 86,
          "time": 95.58000000000013,
          "velocity": 0.7874015748031497,
          "duration": 0.0007374999999996135
        },
        {
          "name": "C#7",
          "midi": 97,
          "time": 95.58000000000013,
          "velocity": 0.7874015748031497,
          "duration": 0.0007374999999996135
        },
        {
          "name": "D7",
          "midi": 98,
          "time": 95.58000000000013,
          "velocity": 0.7874015748031497,
          "duration": 0.0007374999999996135
        },
        {
          "name": "D7",
          "midi": 98,
          "time": 95.75773750000013,
          "velocity": 0.7874015748031497,
          "duration": 0.0007374999999996135
        },
        {
          "name": "D4",
          "midi": 62,
          "time": 95.93400000000013,
          "velocity": 0.7874015748031497,
          "duration": 0.0007374999999996135
        },
        {
          "name": "D5",
          "midi": 74,
          "time": 95.93400000000013,
          "velocity": 0.7874015748031497,
          "duration": 0.0007374999999996135
        },
        {
          "name": "D6",
          "midi": 86,
          "time": 95.93400000000013,
          "velocity": 0.7874015748031497,
          "duration": 0.0007374999999996135
        },
        {
          "name": "D7",
          "midi": 98,
          "time": 95.93400000000013,
          "velocity": 0.7874015748031497,
          "duration": 0.0007374999999996135
        },
        {
          "name": "D7",
          "midi": 98,
          "time": 96.11026250000012,
          "velocity": 0.7874015748031497,
          "duration": 0.0007374999999996135
        },
        {
          "name": "C4",
          "midi": 60,
          "time": 96.28800000000012,
          "velocity": 0.7874015748031497,
          "duration": 0.0007374999999996135
        },
        {
          "name": "C5",
          "midi": 72,
          "time": 96.28800000000012,
          "velocity": 0.7874015748031497,
          "duration": 0.0007374999999996135
        },
        {
          "name": "D5",
          "midi": 74,
          "time": 96.28800000000012,
          "velocity": 0.7874015748031497,
          "duration": 0.0007374999999996135
        },
        {
          "name": "C6",
          "midi": 84,
          "time": 96.28800000000012,
          "velocity": 0.7874015748031497,
          "duration": 0.0007374999999996135
        },
        {
          "name": "D6",
          "midi": 86,
          "time": 96.28800000000012,
          "velocity": 0.7874015748031497,
          "duration": 0.0007374999999996135
        },
        {
          "name": "C7",
          "midi": 96,
          "time": 96.28800000000012,
          "velocity": 0.7874015748031497,
          "duration": 0.0007374999999996135
        },
        {
          "name": "D7",
          "midi": 98,
          "time": 96.28800000000012,
          "velocity": 0.7874015748031497,
          "duration": 0.0007374999999996135
        },
        {
          "name": "D7",
          "midi": 98,
          "time": 96.46500000000013,
          "velocity": 0.7874015748031497,
          "duration": 0.0007374999999996135
        },
        {
          "name": "D4",
          "midi": 62,
          "time": 96.64200000000014,
          "velocity": 0.7874015748031497,
          "duration": 0.0007374999999996135
        },
        {
          "name": "D5",
          "midi": 74,
          "time": 96.64200000000014,
          "velocity": 0.7874015748031497,
          "duration": 0.0007374999999996135
        },
        {
          "name": "C6",
          "midi": 84,
          "time": 96.64200000000014,
          "velocity": 0.7874015748031497,
          "duration": 0.0007374999999996135
        },
        {
          "name": "D6",
          "midi": 86,
          "time": 96.64200000000014,
          "velocity": 0.7874015748031497,
          "duration": 0.0007374999999996135
        },
        {
          "name": "C7",
          "midi": 96,
          "time": 96.64200000000014,
          "velocity": 0.7874015748031497,
          "duration": 0.0007374999999996135
        },
        {
          "name": "D7",
          "midi": 98,
          "time": 96.64200000000014,
          "velocity": 0.7874015748031497,
          "duration": 0.0007374999999996135
        },
        {
          "name": "D7",
          "midi": 98,
          "time": 96.81973750000014,
          "velocity": 0.7874015748031497,
          "duration": 0.0007374999999996135
        },
        {
          "name": "C#4",
          "midi": 61,
          "time": 96.99600000000014,
          "velocity": 0.7874015748031497,
          "duration": 0.0007374999999996135
        },
        {
          "name": "C#5",
          "midi": 73,
          "time": 96.99600000000014,
          "velocity": 0.7874015748031497,
          "duration": 0.0007374999999996135
        },
        {
          "name": "D5",
          "midi": 74,
          "time": 96.99600000000014,
          "velocity": 0.7874015748031497,
          "duration": 0.0007374999999996135
        },
        {
          "name": "C#6",
          "midi": 85,
          "time": 96.99600000000014,
          "velocity": 0.7874015748031497,
          "duration": 0.0007374999999996135
        },
        {
          "name": "D6",
          "midi": 86,
          "time": 96.99600000000014,
          "velocity": 0.7874015748031497,
          "duration": 0.0007374999999996135
        },
        {
          "name": "C#7",
          "midi": 97,
          "time": 96.99600000000014,
          "velocity": 0.7874015748031497,
          "duration": 0.0007374999999996135
        },
        {
          "name": "D7",
          "midi": 98,
          "time": 96.99600000000014,
          "velocity": 0.7874015748031497,
          "duration": 0.0007374999999996135
        },
        {
          "name": "D7",
          "midi": 98,
          "time": 97.17373750000014,
          "velocity": 0.7874015748031497,
          "duration": 0.0007374999999996135
        },
        {
          "name": "D4",
          "midi": 62,
          "time": 97.35000000000014,
          "velocity": 0.7874015748031497,
          "duration": 0.0007374999999996135
        },
        {
          "name": "D5",
          "midi": 74,
          "time": 97.35000000000014,
          "velocity": 0.7874015748031497,
          "duration": 0.0007374999999996135
        },
        {
          "name": "D6",
          "midi": 86,
          "time": 97.35000000000014,
          "velocity": 0.7874015748031497,
          "duration": 0.0007374999999996135
        },
        {
          "name": "D7",
          "midi": 98,
          "time": 97.35000000000014,
          "velocity": 0.7874015748031497,
          "duration": 0.0007374999999996135
        },
        {
          "name": "C6",
          "midi": 84,
          "time": 97.52773750000014,
          "velocity": 0.7874015748031497,
          "duration": 0.0007374999999996135
        },
        {
          "name": "D6",
          "midi": 86,
          "time": 97.52773750000014,
          "velocity": 0.7874015748031497,
          "duration": 0.0007374999999996135
        },
        {
          "name": "C7",
          "midi": 96,
          "time": 97.52773750000014,
          "velocity": 0.7874015748031497,
          "duration": 0.0007374999999996135
        },
        {
          "name": "D7",
          "midi": 98,
          "time": 97.52773750000014,
          "velocity": 0.7874015748031497,
          "duration": 0.0007374999999996135
        },
        {
          "name": "D4",
          "midi": 62,
          "time": 97.70400000000014,
          "velocity": 0.7874015748031497,
          "duration": 0.0007374999999996135
        },
        {
          "name": "D5",
          "midi": 74,
          "time": 97.70400000000014,
          "velocity": 0.7874015748031497,
          "duration": 0.0007374999999996135
        },
        {
          "name": "D7",
          "midi": 98,
          "time": 97.70400000000014,
          "velocity": 0.7874015748031497,
          "duration": 0.0007374999999996135
        },
        {
          "name": "D7",
          "midi": 98,
          "time": 97.88173750000014,
          "velocity": 0.7874015748031497,
          "duration": 0.0007374999999996135
        },
        {
          "name": "D4",
          "midi": 62,
          "time": 98.05800000000013,
          "velocity": 0.7874015748031497,
          "duration": 0.0007374999999996135
        },
        {
          "name": "C5",
          "midi": 72,
          "time": 98.05800000000013,
          "velocity": 0.7874015748031497,
          "duration": 0.0007374999999996135
        },
        {
          "name": "D5",
          "midi": 74,
          "time": 98.05800000000013,
          "velocity": 0.7874015748031497,
          "duration": 0.0007374999999996135
        },
        {
          "name": "C6",
          "midi": 84,
          "time": 98.05800000000013,
          "velocity": 0.7874015748031497,
          "duration": 0.0007374999999996135
        },
        {
          "name": "D6",
          "midi": 86,
          "time": 98.05800000000013,
          "velocity": 0.7874015748031497,
          "duration": 0.0007374999999996135
        },
        {
          "name": "C7",
          "midi": 96,
          "time": 98.05800000000013,
          "velocity": 0.7874015748031497,
          "duration": 0.0007374999999996135
        },
        {
          "name": "D7",
          "midi": 98,
          "time": 98.05800000000013,
          "velocity": 0.7874015748031497,
          "duration": 0.0007374999999996135
        },
        {
          "name": "D7",
          "midi": 98,
          "time": 98.23573750000014,
          "velocity": 0.7874015748031497,
          "duration": 0.0007374999999996135
        },
        {
          "name": "C#4",
          "midi": 61,
          "time": 98.41200000000013,
          "velocity": 0.7874015748031497,
          "duration": 0.0007374999999996135
        },
        {
          "name": "C#5",
          "midi": 73,
          "time": 98.41200000000013,
          "velocity": 0.7874015748031497,
          "duration": 0.0007374999999996135
        },
        {
          "name": "D5",
          "midi": 74,
          "time": 98.41200000000013,
          "velocity": 0.7874015748031497,
          "duration": 0.0007374999999996135
        },
        {
          "name": "C#6",
          "midi": 85,
          "time": 98.41200000000013,
          "velocity": 0.7874015748031497,
          "duration": 0.0007374999999996135
        },
        {
          "name": "D6",
          "midi": 86,
          "time": 98.41200000000013,
          "velocity": 0.7874015748031497,
          "duration": 0.0007374999999996135
        },
        {
          "name": "C#7",
          "midi": 97,
          "time": 98.41200000000013,
          "velocity": 0.7874015748031497,
          "duration": 0.0007374999999996135
        },
        {
          "name": "D7",
          "midi": 98,
          "time": 98.41200000000013,
          "velocity": 0.7874015748031497,
          "duration": 0.0007374999999996135
        },
        {
          "name": "D7",
          "midi": 98,
          "time": 98.58826250000013,
          "velocity": 0.7874015748031497,
          "duration": 0.0007374999999996135
        },
        {
          "name": "D4",
          "midi": 62,
          "time": 98.76600000000013,
          "velocity": 0.7874015748031497,
          "duration": 0.0007374999999996135
        },
        {
          "name": "D5",
          "midi": 74,
          "time": 98.76600000000013,
          "velocity": 0.7874015748031497,
          "duration": 0.0007374999999996135
        },
        {
          "name": "D6",
          "midi": 86,
          "time": 98.76600000000013,
          "velocity": 0.7874015748031497,
          "duration": 0.0007374999999996135
        },
        {
          "name": "D7",
          "midi": 98,
          "time": 98.76600000000013,
          "velocity": 0.7874015748031497,
          "duration": 0.0007374999999996135
        },
        {
          "name": "D7",
          "midi": 98,
          "time": 98.94226250000013,
          "velocity": 0.7874015748031497,
          "duration": 0.0007374999999996135
        },
        {
          "name": "E4",
          "midi": 64,
          "time": 99.12000000000013,
          "velocity": 0.7874015748031497,
          "duration": 0.0007374999999996135
        },
        {
          "name": "C5",
          "midi": 72,
          "time": 99.12000000000013,
          "velocity": 0.7874015748031497,
          "duration": 0.0007374999999996135
        },
        {
          "name": "E5",
          "midi": 76,
          "time": 99.12000000000013,
          "velocity": 0.7874015748031497,
          "duration": 0.0007374999999996135
        },
        {
          "name": "C6",
          "midi": 84,
          "time": 99.12000000000013,
          "velocity": 0.7874015748031497,
          "duration": 0.0007374999999996135
        },
        {
          "name": "E6",
          "midi": 88,
          "time": 99.12000000000013,
          "velocity": 0.7874015748031497,
          "duration": 0.0007374999999996135
        },
        {
          "name": "C7",
          "midi": 96,
          "time": 99.12000000000013,
          "velocity": 0.7874015748031497,
          "duration": 0.0007374999999996135
        },
        {
          "name": "E7",
          "midi": 100,
          "time": 99.12000000000013,
          "velocity": 0.7874015748031497,
          "duration": 0.0007374999999996135
        },
        {
          "name": "D4",
          "midi": 62,
          "time": 99.47400000000013,
          "velocity": 0.7874015748031497,
          "duration": 0.0007374999999996135
        },
        {
          "name": "D5",
          "midi": 74,
          "time": 99.47400000000013,
          "velocity": 0.7874015748031497,
          "duration": 0.0007374999999996135
        },
        {
          "name": "C6",
          "midi": 84,
          "time": 99.47400000000013,
          "velocity": 0.7874015748031497,
          "duration": 0.0007374999999996135
        },
        {
          "name": "D6",
          "midi": 86,
          "time": 99.47400000000013,
          "velocity": 0.7874015748031497,
          "duration": 0.0007374999999996135
        },
        {
          "name": "C7",
          "midi": 96,
          "time": 99.47400000000013,
          "velocity": 0.7874015748031497,
          "duration": 0.0007374999999996135
        },
        {
          "name": "D7",
          "midi": 98,
          "time": 99.47400000000013,
          "velocity": 0.7874015748031497,
          "duration": 0.0007374999999996135
        },
        {
          "name": "C#4",
          "midi": 61,
          "time": 99.82800000000013,
          "velocity": 0.7874015748031497,
          "duration": 0.0007374999999996135
        },
        {
          "name": "C#5",
          "midi": 73,
          "time": 99.82800000000013,
          "velocity": 0.7874015748031497,
          "duration": 0.0007374999999996135
        },
        {
          "name": "D5",
          "midi": 74,
          "time": 99.82800000000013,
          "velocity": 0.7874015748031497,
          "duration": 0.0007374999999996135
        },
        {
          "name": "C#6",
          "midi": 85,
          "time": 99.82800000000013,
          "velocity": 0.7874015748031497,
          "duration": 0.0007374999999996135
        },
        {
          "name": "D6",
          "midi": 86,
          "time": 99.82800000000013,
          "velocity": 0.7874015748031497,
          "duration": 0.0007374999999996135
        },
        {
          "name": "C#7",
          "midi": 97,
          "time": 99.82800000000013,
          "velocity": 0.7874015748031497,
          "duration": 0.0007374999999996135
        },
        {
          "name": "D7",
          "midi": 98,
          "time": 99.82800000000013,
          "velocity": 0.7874015748031497,
          "duration": 0.0007374999999996135
        },
        {
          "name": "D7",
          "midi": 98,
          "time": 100.00426250000012,
          "velocity": 0.7874015748031497,
          "duration": 0.0007374999999996135
        },
        {
          "name": "D4",
          "midi": 62,
          "time": 100.18200000000013,
          "velocity": 0.7874015748031497,
          "duration": 0.0007374999999996135
        },
        {
          "name": "D5",
          "midi": 74,
          "time": 100.18200000000013,
          "velocity": 0.7874015748031497,
          "duration": 0.0007374999999996135
        },
        {
          "name": "D6",
          "midi": 86,
          "time": 100.18200000000013,
          "velocity": 0.7874015748031497,
          "duration": 0.0007374999999996135
        },
        {
          "name": "D7",
          "midi": 98,
          "time": 100.18200000000013,
          "velocity": 0.7874015748031497,
          "duration": 0.0007374999999996135
        },
        {
          "name": "C6",
          "midi": 84,
          "time": 100.35973750000014,
          "velocity": 0.7874015748031497,
          "duration": 0.0007374999999996135
        },
        {
          "name": "D6",
          "midi": 86,
          "time": 100.35973750000014,
          "velocity": 0.7874015748031497,
          "duration": 0.0007374999999996135
        },
        {
          "name": "C7",
          "midi": 96,
          "time": 100.35973750000014,
          "velocity": 0.7874015748031497,
          "duration": 0.0007374999999996135
        },
        {
          "name": "D7",
          "midi": 98,
          "time": 100.35973750000014,
          "velocity": 0.7874015748031497,
          "duration": 0.0007374999999996135
        },
        {
          "name": "D4",
          "midi": 62,
          "time": 100.53600000000013,
          "velocity": 0.7874015748031497,
          "duration": 0.0007374999999996135
        },
        {
          "name": "D5",
          "midi": 74,
          "time": 100.53600000000013,
          "velocity": 0.7874015748031497,
          "duration": 0.0007374999999996135
        },
        {
          "name": "D7",
          "midi": 98,
          "time": 100.53600000000013,
          "velocity": 0.7874015748031497,
          "duration": 0.0007374999999996135
        },
        {
          "name": "D7",
          "midi": 98,
          "time": 100.71373750000014,
          "velocity": 0.7874015748031497,
          "duration": 0.0007374999999996135
        },
        {
          "name": "D4",
          "midi": 62,
          "time": 100.89000000000013,
          "velocity": 0.7874015748031497,
          "duration": 0.0007374999999996135
        },
        {
          "name": "C5",
          "midi": 72,
          "time": 100.89000000000013,
          "velocity": 0.7874015748031497,
          "duration": 0.0007374999999996135
        },
        {
          "name": "D5",
          "midi": 74,
          "time": 100.89000000000013,
          "velocity": 0.7874015748031497,
          "duration": 0.0007374999999996135
        },
        {
          "name": "C6",
          "midi": 84,
          "time": 100.89000000000013,
          "velocity": 0.7874015748031497,
          "duration": 0.0007374999999996135
        },
        {
          "name": "D6",
          "midi": 86,
          "time": 100.89000000000013,
          "velocity": 0.7874015748031497,
          "duration": 0.0007374999999996135
        },
        {
          "name": "C7",
          "midi": 96,
          "time": 100.89000000000013,
          "velocity": 0.7874015748031497,
          "duration": 0.0007374999999996135
        },
        {
          "name": "D7",
          "midi": 98,
          "time": 100.89000000000013,
          "velocity": 0.7874015748031497,
          "duration": 0.0007374999999996135
        },
        {
          "name": "D7",
          "midi": 98,
          "time": 101.06700000000014,
          "velocity": 0.7874015748031497,
          "duration": 0.0007374999999996135
        },
        {
          "name": "C#4",
          "midi": 61,
          "time": 101.24400000000014,
          "velocity": 0.7874015748031497,
          "duration": 0.0007374999999996135
        },
        {
          "name": "C#5",
          "midi": 73,
          "time": 101.24400000000014,
          "velocity": 0.7874015748031497,
          "duration": 0.0007374999999996135
        },
        {
          "name": "D5",
          "midi": 74,
          "time": 101.24400000000014,
          "velocity": 0.7874015748031497,
          "duration": 0.0007374999999996135
        },
        {
          "name": "C#6",
          "midi": 85,
          "time": 101.24400000000014,
          "velocity": 0.7874015748031497,
          "duration": 0.0007374999999996135
        },
        {
          "name": "D6",
          "midi": 86,
          "time": 101.24400000000014,
          "velocity": 0.7874015748031497,
          "duration": 0.0007374999999996135
        },
        {
          "name": "C#7",
          "midi": 97,
          "time": 101.24400000000014,
          "velocity": 0.7874015748031497,
          "duration": 0.0007374999999996135
        },
        {
          "name": "D7",
          "midi": 98,
          "time": 101.24400000000014,
          "velocity": 0.7874015748031497,
          "duration": 0.0007374999999996135
        },
        {
          "name": "D7",
          "midi": 98,
          "time": 101.42026250000013,
          "velocity": 0.7874015748031497,
          "duration": 0.0007374999999996135
        },
        {
          "name": "D4",
          "midi": 62,
          "time": 101.59800000000014,
          "velocity": 0.7874015748031497,
          "duration": 0.0007374999999996135
        },
        {
          "name": "D5",
          "midi": 74,
          "time": 101.59800000000014,
          "velocity": 0.7874015748031497,
          "duration": 0.0007374999999996135
        },
        {
          "name": "C6",
          "midi": 84,
          "time": 101.59800000000014,
          "velocity": 0.7874015748031497,
          "duration": 0.0007374999999996135
        },
        {
          "name": "D6",
          "midi": 86,
          "time": 101.59800000000014,
          "velocity": 0.7874015748031497,
          "duration": 0.0007374999999996135
        },
        {
          "name": "C7",
          "midi": 96,
          "time": 101.59800000000014,
          "velocity": 0.7874015748031497,
          "duration": 0.0007374999999996135
        },
        {
          "name": "D7",
          "midi": 98,
          "time": 101.59800000000014,
          "velocity": 0.7874015748031497,
          "duration": 0.0007374999999996135
        },
        {
          "name": "D7",
          "midi": 98,
          "time": 101.77426250000013,
          "velocity": 0.7874015748031497,
          "duration": 0.0007374999999996135
        },
        {
          "name": "D4",
          "midi": 62,
          "time": 101.95200000000014,
          "velocity": 0.7874015748031497,
          "duration": 0.0007374999999996135
        },
        {
          "name": "C5",
          "midi": 72,
          "time": 101.95200000000014,
          "velocity": 0.7874015748031497,
          "duration": 0.0007374999999996135
        },
        {
          "name": "D5",
          "midi": 74,
          "time": 101.95200000000014,
          "velocity": 0.7874015748031497,
          "duration": 0.0007374999999996135
        },
        {
          "name": "C6",
          "midi": 84,
          "time": 101.95200000000014,
          "velocity": 0.7874015748031497,
          "duration": 0.0007374999999996135
        },
        {
          "name": "D6",
          "midi": 86,
          "time": 101.95200000000014,
          "velocity": 0.7874015748031497,
          "duration": 0.0007374999999996135
        },
        {
          "name": "C7",
          "midi": 96,
          "time": 101.95200000000014,
          "velocity": 0.7874015748031497,
          "duration": 0.0007374999999996135
        },
        {
          "name": "D7",
          "midi": 98,
          "time": 101.95200000000014,
          "velocity": 0.7874015748031497,
          "duration": 0.0007374999999996135
        },
        {
          "name": "D7",
          "midi": 98,
          "time": 102.12900000000015,
          "velocity": 0.7874015748031497,
          "duration": 0.0007374999999996135
        },
        {
          "name": "C#4",
          "midi": 61,
          "time": 102.30600000000015,
          "velocity": 0.7874015748031497,
          "duration": 0.0007374999999996135
        },
        {
          "name": "C#5",
          "midi": 73,
          "time": 102.30600000000015,
          "velocity": 0.7874015748031497,
          "duration": 0.0007374999999996135
        },
        {
          "name": "D5",
          "midi": 74,
          "time": 102.30600000000015,
          "velocity": 0.7874015748031497,
          "duration": 0.0007374999999996135
        },
        {
          "name": "C#6",
          "midi": 85,
          "time": 102.30600000000015,
          "velocity": 0.7874015748031497,
          "duration": 0.0007374999999996135
        },
        {
          "name": "D6",
          "midi": 86,
          "time": 102.30600000000015,
          "velocity": 0.7874015748031497,
          "duration": 0.0007374999999996135
        },
        {
          "name": "C#7",
          "midi": 97,
          "time": 102.30600000000015,
          "velocity": 0.7874015748031497,
          "duration": 0.0007374999999996135
        },
        {
          "name": "D7",
          "midi": 98,
          "time": 102.30600000000015,
          "velocity": 0.7874015748031497,
          "duration": 0.0007374999999996135
        },
        {
          "name": "D7",
          "midi": 98,
          "time": 102.48226250000015,
          "velocity": 0.7874015748031497,
          "duration": 0.0007374999999996135
        },
        {
          "name": "D4",
          "midi": 62,
          "time": 102.66000000000015,
          "velocity": 0.7874015748031497,
          "duration": 0.0007374999999996135
        },
        {
          "name": "D5",
          "midi": 74,
          "time": 102.66000000000015,
          "velocity": 0.7874015748031497,
          "duration": 0.0007374999999996135
        },
        {
          "name": "D6",
          "midi": 86,
          "time": 102.66000000000015,
          "velocity": 0.7874015748031497,
          "duration": 0.0007374999999996135
        },
        {
          "name": "D7",
          "midi": 98,
          "time": 102.66000000000015,
          "velocity": 0.7874015748031497,
          "duration": 0.0007374999999996135
        },
        {
          "name": "C6",
          "midi": 84,
          "time": 102.83700000000016,
          "velocity": 0.7874015748031497,
          "duration": 0.0007374999999996135
        },
        {
          "name": "D6",
          "midi": 86,
          "time": 102.83700000000016,
          "velocity": 0.7874015748031497,
          "duration": 0.0007374999999996135
        },
        {
          "name": "C7",
          "midi": 96,
          "time": 102.83700000000016,
          "velocity": 0.7874015748031497,
          "duration": 0.0007374999999996135
        },
        {
          "name": "D7",
          "midi": 98,
          "time": 102.83700000000016,
          "velocity": 0.7874015748031497,
          "duration": 0.0007374999999996135
        },
        {
          "name": "D4",
          "midi": 62,
          "time": 103.01400000000017,
          "velocity": 0.7874015748031497,
          "duration": 0.0007374999999996135
        },
        {
          "name": "D5",
          "midi": 74,
          "time": 103.01400000000017,
          "velocity": 0.7874015748031497,
          "duration": 0.0007374999999996135
        },
        {
          "name": "D7",
          "midi": 98,
          "time": 103.01400000000017,
          "velocity": 0.7874015748031497,
          "duration": 0.0007374999999996135
        },
        {
          "name": "C6",
          "midi": 84,
          "time": 103.19100000000017,
          "velocity": 0.7874015748031497,
          "duration": 0.0007374999999996135
        },
        {
          "name": "D6",
          "midi": 86,
          "time": 103.19100000000017,
          "velocity": 0.7874015748031497,
          "duration": 0.0007374999999996135
        },
        {
          "name": "C7",
          "midi": 96,
          "time": 103.19100000000017,
          "velocity": 0.7874015748031497,
          "duration": 0.0007374999999996135
        },
        {
          "name": "D7",
          "midi": 98,
          "time": 103.19100000000017,
          "velocity": 0.7874015748031497,
          "duration": 0.0007374999999996135
        },
        {
          "name": "D4",
          "midi": 62,
          "time": 103.36800000000018,
          "velocity": 0.7874015748031497,
          "duration": 0.0007374999999996135
        },
        {
          "name": "D5",
          "midi": 74,
          "time": 103.36800000000018,
          "velocity": 0.7874015748031497,
          "duration": 0.0007374999999996135
        },
        {
          "name": "D7",
          "midi": 98,
          "time": 103.36800000000018,
          "velocity": 0.7874015748031497,
          "duration": 0.0007374999999996135
        },
        {
          "name": "D7",
          "midi": 98,
          "time": 103.54573750000019,
          "velocity": 0.7874015748031497,
          "duration": 0.0007374999999996135
        },
        {
          "name": "C#4",
          "midi": 61,
          "time": 103.72200000000018,
          "velocity": 0.7874015748031497,
          "duration": 0.0007374999999996135
        },
        {
          "name": "C#5",
          "midi": 73,
          "time": 103.72200000000018,
          "velocity": 0.7874015748031497,
          "duration": 0.0007374999999996135
        },
        {
          "name": "D5",
          "midi": 74,
          "time": 103.72200000000018,
          "velocity": 0.7874015748031497,
          "duration": 0.0007374999999996135
        },
        {
          "name": "C#6",
          "midi": 85,
          "time": 103.72200000000018,
          "velocity": 0.7874015748031497,
          "duration": 0.0007374999999996135
        },
        {
          "name": "D6",
          "midi": 86,
          "time": 103.72200000000018,
          "velocity": 0.7874015748031497,
          "duration": 0.0007374999999996135
        },
        {
          "name": "C#7",
          "midi": 97,
          "time": 103.72200000000018,
          "velocity": 0.7874015748031497,
          "duration": 0.0007374999999996135
        },
        {
          "name": "D7",
          "midi": 98,
          "time": 103.72200000000018,
          "velocity": 0.7874015748031497,
          "duration": 0.0007374999999996135
        },
        {
          "name": "D7",
          "midi": 98,
          "time": 103.89826250000017,
          "velocity": 0.7874015748031497,
          "duration": 0.0007374999999996135
        },
        {
          "name": "D4",
          "midi": 62,
          "time": 104.07600000000018,
          "velocity": 0.7874015748031497,
          "duration": 0.0007374999999996135
        },
        {
          "name": "D5",
          "midi": 74,
          "time": 104.07600000000018,
          "velocity": 0.7874015748031497,
          "duration": 0.0007374999999996135
        },
        {
          "name": "C6",
          "midi": 84,
          "time": 104.07600000000018,
          "velocity": 0.7874015748031497,
          "duration": 0.0007374999999996135
        },
        {
          "name": "D6",
          "midi": 86,
          "time": 104.07600000000018,
          "velocity": 0.7874015748031497,
          "duration": 0.0007374999999996135
        },
        {
          "name": "C7",
          "midi": 96,
          "time": 104.07600000000018,
          "velocity": 0.7874015748031497,
          "duration": 0.0007374999999996135
        },
        {
          "name": "D7",
          "midi": 98,
          "time": 104.07600000000018,
          "velocity": 0.7874015748031497,
          "duration": 0.0007374999999996135
        },
        {
          "name": "D7",
          "midi": 98,
          "time": 104.25300000000018,
          "velocity": 0.7874015748031497,
          "duration": 0.0007374999999996135
        },
        {
          "name": "D4",
          "midi": 62,
          "time": 104.43000000000019,
          "velocity": 0.7874015748031497,
          "duration": 0.0007374999999996135
        },
        {
          "name": "C5",
          "midi": 72,
          "time": 104.43000000000019,
          "velocity": 0.7874015748031497,
          "duration": 0.0007374999999996135
        },
        {
          "name": "D5",
          "midi": 74,
          "time": 104.43000000000019,
          "velocity": 0.7874015748031497,
          "duration": 0.0007374999999996135
        },
        {
          "name": "C6",
          "midi": 84,
          "time": 104.43000000000019,
          "velocity": 0.7874015748031497,
          "duration": 0.0007374999999996135
        },
        {
          "name": "D6",
          "midi": 86,
          "time": 104.43000000000019,
          "velocity": 0.7874015748031497,
          "duration": 0.0007374999999996135
        },
        {
          "name": "C7",
          "midi": 96,
          "time": 104.43000000000019,
          "velocity": 0.7874015748031497,
          "duration": 0.0007374999999996135
        },
        {
          "name": "D7",
          "midi": 98,
          "time": 104.43000000000019,
          "velocity": 0.7874015748031497,
          "duration": 0.0007374999999996135
        },
        {
          "name": "D7",
          "midi": 98,
          "time": 104.6077375000002,
          "velocity": 0.7874015748031497,
          "duration": 0.0007374999999996135
        },
        {
          "name": "C#4",
          "midi": 61,
          "time": 104.78400000000019,
          "velocity": 0.7874015748031497,
          "duration": 0.0007374999999996135
        },
        {
          "name": "C#5",
          "midi": 73,
          "time": 104.78400000000019,
          "velocity": 0.7874015748031497,
          "duration": 0.0007374999999996135
        },
        {
          "name": "D5",
          "midi": 74,
          "time": 104.78400000000019,
          "velocity": 0.7874015748031497,
          "duration": 0.0007374999999996135
        },
        {
          "name": "C#6",
          "midi": 85,
          "time": 104.78400000000019,
          "velocity": 0.7874015748031497,
          "duration": 0.0007374999999996135
        },
        {
          "name": "D6",
          "midi": 86,
          "time": 104.78400000000019,
          "velocity": 0.7874015748031497,
          "duration": 0.0007374999999996135
        },
        {
          "name": "C#7",
          "midi": 97,
          "time": 104.78400000000019,
          "velocity": 0.7874015748031497,
          "duration": 0.0007374999999996135
        },
        {
          "name": "D7",
          "midi": 98,
          "time": 104.78400000000019,
          "velocity": 0.7874015748031497,
          "duration": 0.0007374999999996135
        },
        {
          "name": "D7",
          "midi": 98,
          "time": 104.9610000000002,
          "velocity": 0.7874015748031497,
          "duration": 0.0007374999999996135
        },
        {
          "name": "D4",
          "midi": 62,
          "time": 105.1380000000002,
          "velocity": 0.7874015748031497,
          "duration": 0.0007374999999996135
        },
        {
          "name": "D5",
          "midi": 74,
          "time": 105.1380000000002,
          "velocity": 0.7874015748031497,
          "duration": 0.0007374999999996135
        },
        {
          "name": "D6",
          "midi": 86,
          "time": 105.1380000000002,
          "velocity": 0.7874015748031497,
          "duration": 0.0007374999999996135
        },
        {
          "name": "D7",
          "midi": 98,
          "time": 105.1380000000002,
          "velocity": 0.7874015748031497,
          "duration": 0.0007374999999996135
        },
        {
          "name": "C6",
          "midi": 84,
          "time": 105.31573750000021,
          "velocity": 0.7874015748031497,
          "duration": 0.0007374999999996135
        },
        {
          "name": "D6",
          "midi": 86,
          "time": 105.31573750000021,
          "velocity": 0.7874015748031497,
          "duration": 0.0007374999999996135
        },
        {
          "name": "C7",
          "midi": 96,
          "time": 105.31573750000021,
          "velocity": 0.7874015748031497,
          "duration": 0.0007374999999996135
        },
        {
          "name": "D7",
          "midi": 98,
          "time": 105.31573750000021,
          "velocity": 0.7874015748031497,
          "duration": 0.0007374999999996135
        },
        {
          "name": "D4",
          "midi": 62,
          "time": 105.4920000000002,
          "velocity": 0.7874015748031497,
          "duration": 0.0007374999999996135
        },
        {
          "name": "D5",
          "midi": 74,
          "time": 105.4920000000002,
          "velocity": 0.7874015748031497,
          "duration": 0.0007374999999996135
        },
        {
          "name": "D7",
          "midi": 98,
          "time": 105.4920000000002,
          "velocity": 0.7874015748031497,
          "duration": 0.0007374999999996135
        },
        {
          "name": "D7",
          "midi": 98,
          "time": 105.66900000000021,
          "velocity": 0.7874015748031497,
          "duration": 0.0007374999999996135
        },
        {
          "name": "D4",
          "midi": 62,
          "time": 105.84600000000022,
          "velocity": 0.7874015748031497,
          "duration": 0.0007374999999996135
        },
        {
          "name": "C5",
          "midi": 72,
          "time": 105.84600000000022,
          "velocity": 0.7874015748031497,
          "duration": 0.0007374999999996135
        },
        {
          "name": "D5",
          "midi": 74,
          "time": 105.84600000000022,
          "velocity": 0.7874015748031497,
          "duration": 0.0007374999999996135
        },
        {
          "name": "C6",
          "midi": 84,
          "time": 105.84600000000022,
          "velocity": 0.7874015748031497,
          "duration": 0.0007374999999996135
        },
        {
          "name": "D6",
          "midi": 86,
          "time": 105.84600000000022,
          "velocity": 0.7874015748031497,
          "duration": 0.0007374999999996135
        },
        {
          "name": "C7",
          "midi": 96,
          "time": 105.84600000000022,
          "velocity": 0.7874015748031497,
          "duration": 0.0007374999999996135
        },
        {
          "name": "D7",
          "midi": 98,
          "time": 105.84600000000022,
          "velocity": 0.7874015748031497,
          "duration": 0.0007374999999996135
        },
        {
          "name": "D7",
          "midi": 98,
          "time": 106.02300000000022,
          "velocity": 0.7874015748031497,
          "duration": 0.0007374999999996135
        },
        {
          "name": "C#4",
          "midi": 61,
          "time": 106.20000000000023,
          "velocity": 0.7874015748031497,
          "duration": 0.0007374999999996135
        },
        {
          "name": "C#5",
          "midi": 73,
          "time": 106.20000000000023,
          "velocity": 0.7874015748031497,
          "duration": 0.0007374999999996135
        },
        {
          "name": "D5",
          "midi": 74,
          "time": 106.20000000000023,
          "velocity": 0.7874015748031497,
          "duration": 0.0007374999999996135
        },
        {
          "name": "C#6",
          "midi": 85,
          "time": 106.20000000000023,
          "velocity": 0.7874015748031497,
          "duration": 0.0007374999999996135
        },
        {
          "name": "D6",
          "midi": 86,
          "time": 106.20000000000023,
          "velocity": 0.7874015748031497,
          "duration": 0.0007374999999996135
        },
        {
          "name": "C#7",
          "midi": 97,
          "time": 106.20000000000023,
          "velocity": 0.7874015748031497,
          "duration": 0.0007374999999996135
        },
        {
          "name": "D7",
          "midi": 98,
          "time": 106.20000000000023,
          "velocity": 0.7874015748031497,
          "duration": 0.0007374999999996135
        },
        {
          "name": "D7",
          "midi": 98,
          "time": 106.37700000000024,
          "velocity": 0.7874015748031497,
          "duration": 0.0007374999999996135
        },
        {
          "name": "D4",
          "midi": 62,
          "time": 106.55400000000024,
          "velocity": 0.7874015748031497,
          "duration": 0.0007374999999996135
        },
        {
          "name": "D5",
          "midi": 74,
          "time": 106.55400000000024,
          "velocity": 0.7874015748031497,
          "duration": 0.0007374999999996135
        },
        {
          "name": "C6",
          "midi": 84,
          "time": 106.55400000000024,
          "velocity": 0.7874015748031497,
          "duration": 0.0007374999999996135
        },
        {
          "name": "D6",
          "midi": 86,
          "time": 106.55400000000024,
          "velocity": 0.7874015748031497,
          "duration": 0.0007374999999996135
        },
        {
          "name": "C7",
          "midi": 96,
          "time": 106.55400000000024,
          "velocity": 0.7874015748031497,
          "duration": 0.0007374999999996135
        },
        {
          "name": "D7",
          "midi": 98,
          "time": 106.55400000000024,
          "velocity": 0.7874015748031497,
          "duration": 0.0007374999999996135
        },
        {
          "name": "D7",
          "midi": 98,
          "time": 106.73100000000025,
          "velocity": 0.7874015748031497,
          "duration": 0.0007374999999996135
        },
        {
          "name": "D4",
          "midi": 62,
          "time": 106.90800000000026,
          "velocity": 0.7874015748031497,
          "duration": 0.0007374999999996135
        },
        {
          "name": "C5",
          "midi": 72,
          "time": 106.90800000000026,
          "velocity": 0.7874015748031497,
          "duration": 0.0007374999999996135
        },
        {
          "name": "D5",
          "midi": 74,
          "time": 106.90800000000026,
          "velocity": 0.7874015748031497,
          "duration": 0.0007374999999996135
        },
        {
          "name": "C6",
          "midi": 84,
          "time": 106.90800000000026,
          "velocity": 0.7874015748031497,
          "duration": 0.0007374999999996135
        },
        {
          "name": "D6",
          "midi": 86,
          "time": 106.90800000000026,
          "velocity": 0.7874015748031497,
          "duration": 0.0007374999999996135
        },
        {
          "name": "C7",
          "midi": 96,
          "time": 106.90800000000026,
          "velocity": 0.7874015748031497,
          "duration": 0.0007374999999996135
        },
        {
          "name": "D7",
          "midi": 98,
          "time": 106.90800000000026,
          "velocity": 0.7874015748031497,
          "duration": 0.0007374999999996135
        },
        {
          "name": "D7",
          "midi": 98,
          "time": 107.08573750000026,
          "velocity": 0.7874015748031497,
          "duration": 0.0007374999999996135
        },
        {
          "name": "C#4",
          "midi": 61,
          "time": 107.26200000000026,
          "velocity": 0.7874015748031497,
          "duration": 0.0007374999999996135
        },
        {
          "name": "C#5",
          "midi": 73,
          "time": 107.26200000000026,
          "velocity": 0.7874015748031497,
          "duration": 0.0007374999999996135
        },
        {
          "name": "D5",
          "midi": 74,
          "time": 107.26200000000026,
          "velocity": 0.7874015748031497,
          "duration": 0.0007374999999996135
        },
        {
          "name": "C#6",
          "midi": 85,
          "time": 107.26200000000026,
          "velocity": 0.7874015748031497,
          "duration": 0.0007374999999996135
        },
        {
          "name": "D6",
          "midi": 86,
          "time": 107.26200000000026,
          "velocity": 0.7874015748031497,
          "duration": 0.0007374999999996135
        },
        {
          "name": "C#7",
          "midi": 97,
          "time": 107.26200000000026,
          "velocity": 0.7874015748031497,
          "duration": 0.0007374999999996135
        },
        {
          "name": "D7",
          "midi": 98,
          "time": 107.26200000000026,
          "velocity": 0.7874015748031497,
          "duration": 0.0007374999999996135
        },
        {
          "name": "D7",
          "midi": 98,
          "time": 107.43973750000026,
          "velocity": 0.7874015748031497,
          "duration": 0.0007374999999996135
        },
        {
          "name": "D4",
          "midi": 62,
          "time": 107.61600000000026,
          "velocity": 0.7874015748031497,
          "duration": 0.0007374999999996135
        },
        {
          "name": "D5",
          "midi": 74,
          "time": 107.61600000000026,
          "velocity": 0.7874015748031497,
          "duration": 0.0007374999999996135
        },
        {
          "name": "D6",
          "midi": 86,
          "time": 107.61600000000026,
          "velocity": 0.7874015748031497,
          "duration": 0.0007374999999996135
        },
        {
          "name": "D7",
          "midi": 98,
          "time": 107.61600000000026,
          "velocity": 0.7874015748031497,
          "duration": 0.0007374999999996135
        },
        {
          "name": "C6",
          "midi": 84,
          "time": 107.79300000000026,
          "velocity": 0.7874015748031497,
          "duration": 0.0007374999999996135
        },
        {
          "name": "D6",
          "midi": 86,
          "time": 107.79300000000026,
          "velocity": 0.7874015748031497,
          "duration": 0.0007374999999996135
        },
        {
          "name": "C7",
          "midi": 96,
          "time": 107.79300000000026,
          "velocity": 0.7874015748031497,
          "duration": 0.0007374999999996135
        },
        {
          "name": "D7",
          "midi": 98,
          "time": 107.79300000000026,
          "velocity": 0.7874015748031497,
          "duration": 0.0007374999999996135
        },
        {
          "name": "D4",
          "midi": 62,
          "time": 107.97000000000027,
          "velocity": 0.7874015748031497,
          "duration": 0.0007374999999996135
        },
        {
          "name": "D5",
          "midi": 74,
          "time": 107.97000000000027,
          "velocity": 0.7874015748031497,
          "duration": 0.0007374999999996135
        },
        {
          "name": "D7",
          "midi": 98,
          "time": 107.97000000000027,
          "velocity": 0.7874015748031497,
          "duration": 0.0007374999999996135
        },
        {
          "name": "C6",
          "midi": 84,
          "time": 108.14700000000028,
          "velocity": 0.7874015748031497,
          "duration": 0.0007374999999996135
        },
        {
          "name": "D6",
          "midi": 86,
          "time": 108.14700000000028,
          "velocity": 0.7874015748031497,
          "duration": 0.0007374999999996135
        },
        {
          "name": "C7",
          "midi": 96,
          "time": 108.14700000000028,
          "velocity": 0.7874015748031497,
          "duration": 0.0007374999999996135
        },
        {
          "name": "D7",
          "midi": 98,
          "time": 108.14700000000028,
          "velocity": 0.7874015748031497,
          "duration": 0.0007374999999996135
        },
        {
          "name": "D4",
          "midi": 62,
          "time": 108.32400000000028,
          "velocity": 0.7874015748031497,
          "duration": 0.0007374999999996135
        },
        {
          "name": "D5",
          "midi": 74,
          "time": 108.32400000000028,
          "velocity": 0.7874015748031497,
          "duration": 0.0007374999999996135
        },
        {
          "name": "D7",
          "midi": 98,
          "time": 108.32400000000028,
          "velocity": 0.7874015748031497,
          "duration": 0.0007374999999996135
        },
        {
          "name": "D7",
          "midi": 98,
          "time": 108.50100000000029,
          "velocity": 0.7874015748031497,
          "duration": 0.0007374999999996135
        },
        {
          "name": "C#4",
          "midi": 61,
          "time": 108.6780000000003,
          "velocity": 0.7874015748031497,
          "duration": 0.0007374999999996135
        },
        {
          "name": "C#5",
          "midi": 73,
          "time": 108.6780000000003,
          "velocity": 0.7874015748031497,
          "duration": 0.0007374999999996135
        },
        {
          "name": "D5",
          "midi": 74,
          "time": 108.6780000000003,
          "velocity": 0.7874015748031497,
          "duration": 0.0007374999999996135
        },
        {
          "name": "C#6",
          "midi": 85,
          "time": 108.6780000000003,
          "velocity": 0.7874015748031497,
          "duration": 0.0007374999999996135
        },
        {
          "name": "D6",
          "midi": 86,
          "time": 108.6780000000003,
          "velocity": 0.7874015748031497,
          "duration": 0.0007374999999996135
        },
        {
          "name": "C#7",
          "midi": 97,
          "time": 108.6780000000003,
          "velocity": 0.7874015748031497,
          "duration": 0.0007374999999996135
        },
        {
          "name": "D7",
          "midi": 98,
          "time": 108.6780000000003,
          "velocity": 0.7874015748031497,
          "duration": 0.0007374999999996135
        },
        {
          "name": "D7",
          "midi": 98,
          "time": 108.8557375000003,
          "velocity": 0.7874015748031497,
          "duration": 0.0007374999999996135
        },
        {
          "name": "D4",
          "midi": 62,
          "time": 109.0320000000003,
          "velocity": 0.7874015748031497,
          "duration": 0.0007374999999996135
        },
        {
          "name": "D5",
          "midi": 74,
          "time": 109.0320000000003,
          "velocity": 0.7874015748031497,
          "duration": 0.0007374999999996135
        },
        {
          "name": "C6",
          "midi": 84,
          "time": 109.0320000000003,
          "velocity": 0.7874015748031497,
          "duration": 0.0007374999999996135
        },
        {
          "name": "D6",
          "midi": 86,
          "time": 109.0320000000003,
          "velocity": 0.7874015748031497,
          "duration": 0.0007374999999996135
        },
        {
          "name": "C7",
          "midi": 96,
          "time": 109.0320000000003,
          "velocity": 0.7874015748031497,
          "duration": 0.0007374999999996135
        },
        {
          "name": "D7",
          "midi": 98,
          "time": 109.0320000000003,
          "velocity": 0.7874015748031497,
          "duration": 0.0007374999999996135
        },
        {
          "name": "D7",
          "midi": 98,
          "time": 109.2090000000003,
          "velocity": 0.7874015748031497,
          "duration": 0.0007374999999996135
        },
        {
          "name": "D4",
          "midi": 62,
          "time": 109.38600000000031,
          "velocity": 0.7874015748031497,
          "duration": 0.0007374999999996135
        },
        {
          "name": "C5",
          "midi": 72,
          "time": 109.38600000000031,
          "velocity": 0.7874015748031497,
          "duration": 0.0007374999999996135
        },
        {
          "name": "D5",
          "midi": 74,
          "time": 109.38600000000031,
          "velocity": 0.7874015748031497,
          "duration": 0.0007374999999996135
        },
        {
          "name": "C6",
          "midi": 84,
          "time": 109.38600000000031,
          "velocity": 0.7874015748031497,
          "duration": 0.0007374999999996135
        },
        {
          "name": "D6",
          "midi": 86,
          "time": 109.38600000000031,
          "velocity": 0.7874015748031497,
          "duration": 0.0007374999999996135
        },
        {
          "name": "C7",
          "midi": 96,
          "time": 109.38600000000031,
          "velocity": 0.7874015748031497,
          "duration": 0.0007374999999996135
        },
        {
          "name": "D7",
          "midi": 98,
          "time": 109.38600000000031,
          "velocity": 0.7874015748031497,
          "duration": 0.0007374999999996135
        },
        {
          "name": "D7",
          "midi": 98,
          "time": 109.56300000000032,
          "velocity": 0.7874015748031497,
          "duration": 0.0007374999999996135
        },
        {
          "name": "C#4",
          "midi": 61,
          "time": 109.74000000000032,
          "velocity": 0.7874015748031497,
          "duration": 0.0007374999999996135
        },
        {
          "name": "C#5",
          "midi": 73,
          "time": 109.74000000000032,
          "velocity": 0.7874015748031497,
          "duration": 0.0007374999999996135
        },
        {
          "name": "D5",
          "midi": 74,
          "time": 109.74000000000032,
          "velocity": 0.7874015748031497,
          "duration": 0.0007374999999996135
        },
        {
          "name": "C#6",
          "midi": 85,
          "time": 109.74000000000032,
          "velocity": 0.7874015748031497,
          "duration": 0.0007374999999996135
        },
        {
          "name": "D6",
          "midi": 86,
          "time": 109.74000000000032,
          "velocity": 0.7874015748031497,
          "duration": 0.0007374999999996135
        },
        {
          "name": "C#7",
          "midi": 97,
          "time": 109.74000000000032,
          "velocity": 0.7874015748031497,
          "duration": 0.0007374999999996135
        },
        {
          "name": "D7",
          "midi": 98,
          "time": 109.74000000000032,
          "velocity": 0.7874015748031497,
          "duration": 0.0007374999999996135
        },
        {
          "name": "D7",
          "midi": 98,
          "time": 109.91700000000033,
          "velocity": 0.7874015748031497,
          "duration": 0.0007374999999996135
        },
        {
          "name": "D4",
          "midi": 62,
          "time": 110.09400000000034,
          "velocity": 0.7874015748031497,
          "duration": 0.0007374999999996135
        },
        {
          "name": "D5",
          "midi": 74,
          "time": 110.09400000000034,
          "velocity": 0.7874015748031497,
          "duration": 0.0007374999999996135
        },
        {
          "name": "D6",
          "midi": 86,
          "time": 110.09400000000034,
          "velocity": 0.7874015748031497,
          "duration": 0.0007374999999996135
        },
        {
          "name": "D7",
          "midi": 98,
          "time": 110.09400000000034,
          "velocity": 0.7874015748031497,
          "duration": 0.0007374999999996135
        },
        {
          "name": "C6",
          "midi": 84,
          "time": 110.27100000000034,
          "velocity": 0.7874015748031497,
          "duration": 0.0007374999999996135
        },
        {
          "name": "D6",
          "midi": 86,
          "time": 110.27100000000034,
          "velocity": 0.7874015748031497,
          "duration": 0.0007374999999996135
        },
        {
          "name": "C7",
          "midi": 96,
          "time": 110.27100000000034,
          "velocity": 0.7874015748031497,
          "duration": 0.0007374999999996135
        },
        {
          "name": "D7",
          "midi": 98,
          "time": 110.27100000000034,
          "velocity": 0.7874015748031497,
          "duration": 0.0007374999999996135
        },
        {
          "name": "D4",
          "midi": 62,
          "time": 110.44800000000035,
          "velocity": 0.7874015748031497,
          "duration": 0.0007374999999996135
        },
        {
          "name": "D5",
          "midi": 74,
          "time": 110.44800000000035,
          "velocity": 0.7874015748031497,
          "duration": 0.0007374999999996135
        },
        {
          "name": "D7",
          "midi": 98,
          "time": 110.44800000000035,
          "velocity": 0.7874015748031497,
          "duration": 0.0007374999999996135
        },
        {
          "name": "D7",
          "midi": 98,
          "time": 110.62426250000034,
          "velocity": 0.7874015748031497,
          "duration": 0.0007374999999996135
        },
        {
          "name": "D4",
          "midi": 62,
          "time": 110.80200000000035,
          "velocity": 0.7874015748031497,
          "duration": 0.0007374999999996135
        },
        {
          "name": "C5",
          "midi": 72,
          "time": 110.80200000000035,
          "velocity": 0.7874015748031497,
          "duration": 0.0007374999999996135
        },
        {
          "name": "D5",
          "midi": 74,
          "time": 110.80200000000035,
          "velocity": 0.7874015748031497,
          "duration": 0.0007374999999996135
        },
        {
          "name": "C6",
          "midi": 84,
          "time": 110.80200000000035,
          "velocity": 0.7874015748031497,
          "duration": 0.0007374999999996135
        },
        {
          "name": "D6",
          "midi": 86,
          "time": 110.80200000000035,
          "velocity": 0.7874015748031497,
          "duration": 0.0007374999999996135
        },
        {
          "name": "C7",
          "midi": 96,
          "time": 110.80200000000035,
          "velocity": 0.7874015748031497,
          "duration": 0.0007374999999996135
        },
        {
          "name": "D7",
          "midi": 98,
          "time": 110.80200000000035,
          "velocity": 0.7874015748031497,
          "duration": 0.0007374999999996135
        },
        {
          "name": "D7",
          "midi": 98,
          "time": 110.97900000000035,
          "velocity": 0.7874015748031497,
          "duration": 0.0007374999999996135
        },
        {
          "name": "C#4",
          "midi": 61,
          "time": 111.15600000000036,
          "velocity": 0.7874015748031497,
          "duration": 0.0007374999999996135
        },
        {
          "name": "C#5",
          "midi": 73,
          "time": 111.15600000000036,
          "velocity": 0.7874015748031497,
          "duration": 0.0007374999999996135
        },
        {
          "name": "D5",
          "midi": 74,
          "time": 111.15600000000036,
          "velocity": 0.7874015748031497,
          "duration": 0.0007374999999996135
        },
        {
          "name": "C#6",
          "midi": 85,
          "time": 111.15600000000036,
          "velocity": 0.7874015748031497,
          "duration": 0.0007374999999996135
        },
        {
          "name": "D6",
          "midi": 86,
          "time": 111.15600000000036,
          "velocity": 0.7874015748031497,
          "duration": 0.0007374999999996135
        },
        {
          "name": "C#7",
          "midi": 97,
          "time": 111.15600000000036,
          "velocity": 0.7874015748031497,
          "duration": 0.0007374999999996135
        },
        {
          "name": "D7",
          "midi": 98,
          "time": 111.15600000000036,
          "velocity": 0.7874015748031497,
          "duration": 0.0007374999999996135
        },
        {
          "name": "D7",
          "midi": 98,
          "time": 111.33300000000037,
          "velocity": 0.7874015748031497,
          "duration": 0.0007374999999996135
        },
        {
          "name": "D4",
          "midi": 62,
          "time": 111.51000000000037,
          "velocity": 0.7874015748031497,
          "duration": 0.0007374999999996135
        },
        {
          "name": "D5",
          "midi": 74,
          "time": 111.51000000000037,
          "velocity": 0.7874015748031497,
          "duration": 0.0007374999999996135
        },
        {
          "name": "C6",
          "midi": 84,
          "time": 111.51000000000037,
          "velocity": 0.7874015748031497,
          "duration": 0.0007374999999996135
        },
        {
          "name": "D6",
          "midi": 86,
          "time": 111.51000000000037,
          "velocity": 0.7874015748031497,
          "duration": 0.0007374999999996135
        },
        {
          "name": "C7",
          "midi": 96,
          "time": 111.51000000000037,
          "velocity": 0.7874015748031497,
          "duration": 0.0007374999999996135
        },
        {
          "name": "D7",
          "midi": 98,
          "time": 111.51000000000037,
          "velocity": 0.7874015748031497,
          "duration": 0.0007374999999996135
        },
        {
          "name": "D7",
          "midi": 98,
          "time": 111.68773750000038,
          "velocity": 0.7874015748031497,
          "duration": 0.0007374999999996135
        },
        {
          "name": "D4",
          "midi": 62,
          "time": 111.86400000000037,
          "velocity": 0.7874015748031497,
          "duration": 0.0007374999999996135
        },
        {
          "name": "C5",
          "midi": 72,
          "time": 111.86400000000037,
          "velocity": 0.7874015748031497,
          "duration": 0.0007374999999996135
        },
        {
          "name": "D5",
          "midi": 74,
          "time": 111.86400000000037,
          "velocity": 0.7874015748031497,
          "duration": 0.0007374999999996135
        },
        {
          "name": "C6",
          "midi": 84,
          "time": 111.86400000000037,
          "velocity": 0.7874015748031497,
          "duration": 0.0007374999999996135
        },
        {
          "name": "D6",
          "midi": 86,
          "time": 111.86400000000037,
          "velocity": 0.7874015748031497,
          "duration": 0.0007374999999996135
        },
        {
          "name": "C7",
          "midi": 96,
          "time": 111.86400000000037,
          "velocity": 0.7874015748031497,
          "duration": 0.0007374999999996135
        },
        {
          "name": "D7",
          "midi": 98,
          "time": 111.86400000000037,
          "velocity": 0.7874015748031497,
          "duration": 0.0007374999999996135
        },
        {
          "name": "D7",
          "midi": 98,
          "time": 112.04100000000038,
          "velocity": 0.7874015748031497,
          "duration": 0.0007374999999996135
        },
        {
          "name": "C#4",
          "midi": 61,
          "time": 112.21800000000039,
          "velocity": 0.7874015748031497,
          "duration": 0.0007374999999996135
        },
        {
          "name": "C#5",
          "midi": 73,
          "time": 112.21800000000039,
          "velocity": 0.7874015748031497,
          "duration": 0.0007374999999996135
        },
        {
          "name": "D5",
          "midi": 74,
          "time": 112.21800000000039,
          "velocity": 0.7874015748031497,
          "duration": 0.0007374999999996135
        },
        {
          "name": "C#6",
          "midi": 85,
          "time": 112.21800000000039,
          "velocity": 0.7874015748031497,
          "duration": 0.0007374999999996135
        },
        {
          "name": "D6",
          "midi": 86,
          "time": 112.21800000000039,
          "velocity": 0.7874015748031497,
          "duration": 0.0007374999999996135
        },
        {
          "name": "C#7",
          "midi": 97,
          "time": 112.21800000000039,
          "velocity": 0.7874015748031497,
          "duration": 0.0007374999999996135
        },
        {
          "name": "D7",
          "midi": 98,
          "time": 112.21800000000039,
          "velocity": 0.7874015748031497,
          "duration": 0.0007374999999996135
        },
        {
          "name": "D7",
          "midi": 98,
          "time": 112.3950000000004,
          "velocity": 0.7874015748031497,
          "duration": 0.0007374999999996135
        },
        {
          "name": "D4",
          "midi": 62,
          "time": 112.5720000000004,
          "velocity": 0.7874015748031497,
          "duration": 0.0007374999999996135
        },
        {
          "name": "D5",
          "midi": 74,
          "time": 112.5720000000004,
          "velocity": 0.7874015748031497,
          "duration": 0.0007374999999996135
        },
        {
          "name": "D6",
          "midi": 86,
          "time": 112.5720000000004,
          "velocity": 0.7874015748031497,
          "duration": 0.0007374999999996135
        },
        {
          "name": "D7",
          "midi": 98,
          "time": 112.5720000000004,
          "velocity": 0.7874015748031497,
          "duration": 0.0007374999999996135
        },
        {
          "name": "C6",
          "midi": 84,
          "time": 112.7497375000004,
          "velocity": 0.7874015748031497,
          "duration": 0.0007374999999996135
        },
        {
          "name": "D6",
          "midi": 86,
          "time": 112.7497375000004,
          "velocity": 0.7874015748031497,
          "duration": 0.0007374999999996135
        },
        {
          "name": "C7",
          "midi": 96,
          "time": 112.7497375000004,
          "velocity": 0.7874015748031497,
          "duration": 0.0007374999999996135
        },
        {
          "name": "D7",
          "midi": 98,
          "time": 112.7497375000004,
          "velocity": 0.7874015748031497,
          "duration": 0.0007374999999996135
        },
        {
          "name": "D4",
          "midi": 62,
          "time": 112.9260000000004,
          "velocity": 0.7874015748031497,
          "duration": 0.0007374999999996135
        },
        {
          "name": "D5",
          "midi": 74,
          "time": 112.9260000000004,
          "velocity": 0.7874015748031497,
          "duration": 0.0007374999999996135
        },
        {
          "name": "D7",
          "midi": 98,
          "time": 112.9260000000004,
          "velocity": 0.7874015748031497,
          "duration": 0.0007374999999996135
        },
        {
          "name": "C6",
          "midi": 84,
          "time": 113.1037375000004,
          "velocity": 0.7874015748031497,
          "duration": 0.0007374999999996135
        },
        {
          "name": "D6",
          "midi": 86,
          "time": 113.1037375000004,
          "velocity": 0.7874015748031497,
          "duration": 0.0007374999999996135
        },
        {
          "name": "C7",
          "midi": 96,
          "time": 113.1037375000004,
          "velocity": 0.7874015748031497,
          "duration": 0.0007374999999996135
        },
        {
          "name": "D7",
          "midi": 98,
          "time": 113.1037375000004,
          "velocity": 0.7874015748031497,
          "duration": 0.0007374999999996135
        },
        {
          "name": "D4",
          "midi": 62,
          "time": 113.2800000000004,
          "velocity": 0.7874015748031497,
          "duration": 0.0007374999999996135
        },
        {
          "name": "D5",
          "midi": 74,
          "time": 113.2800000000004,
          "velocity": 0.7874015748031497,
          "duration": 0.0007374999999996135
        },
        {
          "name": "D7",
          "midi": 98,
          "time": 113.2800000000004,
          "velocity": 0.7874015748031497,
          "duration": 0.0007374999999996135
        },
        {
          "name": "D7",
          "midi": 98,
          "time": 113.4577375000004,
          "velocity": 0.7874015748031497,
          "duration": 0.0007374999999996135
        },
        {
          "name": "C#4",
          "midi": 61,
          "time": 113.6340000000004,
          "velocity": 0.7874015748031497,
          "duration": 0.0007374999999996135
        },
        {
          "name": "C#5",
          "midi": 73,
          "time": 113.6340000000004,
          "velocity": 0.7874015748031497,
          "duration": 0.0007374999999996135
        },
        {
          "name": "D5",
          "midi": 74,
          "time": 113.6340000000004,
          "velocity": 0.7874015748031497,
          "duration": 0.0007374999999996135
        },
        {
          "name": "C#6",
          "midi": 85,
          "time": 113.6340000000004,
          "velocity": 0.7874015748031497,
          "duration": 0.0007374999999996135
        },
        {
          "name": "D6",
          "midi": 86,
          "time": 113.6340000000004,
          "velocity": 0.7874015748031497,
          "duration": 0.0007374999999996135
        },
        {
          "name": "C#7",
          "midi": 97,
          "time": 113.6340000000004,
          "velocity": 0.7874015748031497,
          "duration": 0.0007374999999996135
        },
        {
          "name": "D7",
          "midi": 98,
          "time": 113.6340000000004,
          "velocity": 0.7874015748031497,
          "duration": 0.0007374999999996135
        },
        {
          "name": "D7",
          "midi": 98,
          "time": 113.81026250000039,
          "velocity": 0.7874015748031497,
          "duration": 0.0007374999999996135
        },
        {
          "name": "D4",
          "midi": 62,
          "time": 113.9880000000004,
          "velocity": 0.7874015748031497,
          "duration": 0.0007374999999996135
        },
        {
          "name": "D5",
          "midi": 74,
          "time": 113.9880000000004,
          "velocity": 0.7874015748031497,
          "duration": 0.0007374999999996135
        },
        {
          "name": "C6",
          "midi": 84,
          "time": 113.9880000000004,
          "velocity": 0.7874015748031497,
          "duration": 0.0007374999999996135
        },
        {
          "name": "D6",
          "midi": 86,
          "time": 113.9880000000004,
          "velocity": 0.7874015748031497,
          "duration": 0.0007374999999996135
        },
        {
          "name": "C7",
          "midi": 96,
          "time": 113.9880000000004,
          "velocity": 0.7874015748031497,
          "duration": 0.0007374999999996135
        },
        {
          "name": "D7",
          "midi": 98,
          "time": 113.9880000000004,
          "velocity": 0.7874015748031497,
          "duration": 0.0007374999999996135
        },
        {
          "name": "D7",
          "midi": 98,
          "time": 114.1650000000004,
          "velocity": 0.7874015748031497,
          "duration": 0.0007374999999996135
        },
        {
          "name": "D4",
          "midi": 62,
          "time": 114.34200000000041,
          "velocity": 0.7874015748031497,
          "duration": 0.0007374999999996135
        },
        {
          "name": "C5",
          "midi": 72,
          "time": 114.34200000000041,
          "velocity": 0.7874015748031497,
          "duration": 0.0007374999999996135
        },
        {
          "name": "D5",
          "midi": 74,
          "time": 114.34200000000041,
          "velocity": 0.7874015748031497,
          "duration": 0.0007374999999996135
        },
        {
          "name": "C6",
          "midi": 84,
          "time": 114.34200000000041,
          "velocity": 0.7874015748031497,
          "duration": 0.0007374999999996135
        },
        {
          "name": "D6",
          "midi": 86,
          "time": 114.34200000000041,
          "velocity": 0.7874015748031497,
          "duration": 0.0007374999999996135
        },
        {
          "name": "C7",
          "midi": 96,
          "time": 114.34200000000041,
          "velocity": 0.7874015748031497,
          "duration": 0.0007374999999996135
        },
        {
          "name": "D7",
          "midi": 98,
          "time": 114.34200000000041,
          "velocity": 0.7874015748031497,
          "duration": 0.0007374999999996135
        },
        {
          "name": "D7",
          "midi": 98,
          "time": 114.51973750000042,
          "velocity": 0.7874015748031497,
          "duration": 0.0007374999999996135
        },
        {
          "name": "C#4",
          "midi": 61,
          "time": 114.69600000000041,
          "velocity": 0.7874015748031497,
          "duration": 0.0007374999999996135
        },
        {
          "name": "C#5",
          "midi": 73,
          "time": 114.69600000000041,
          "velocity": 0.7874015748031497,
          "duration": 0.0007374999999996135
        },
        {
          "name": "D5",
          "midi": 74,
          "time": 114.69600000000041,
          "velocity": 0.7874015748031497,
          "duration": 0.0007374999999996135
        },
        {
          "name": "C#6",
          "midi": 85,
          "time": 114.69600000000041,
          "velocity": 0.7874015748031497,
          "duration": 0.0007374999999996135
        },
        {
          "name": "D6",
          "midi": 86,
          "time": 114.69600000000041,
          "velocity": 0.7874015748031497,
          "duration": 0.0007374999999996135
        },
        {
          "name": "C#7",
          "midi": 97,
          "time": 114.69600000000041,
          "velocity": 0.7874015748031497,
          "duration": 0.0007374999999996135
        },
        {
          "name": "D7",
          "midi": 98,
          "time": 114.69600000000041,
          "velocity": 0.7874015748031497,
          "duration": 0.0007374999999996135
        },
        {
          "name": "D7",
          "midi": 98,
          "time": 114.87300000000042,
          "velocity": 0.7874015748031497,
          "duration": 0.0007374999999996135
        },
        {
          "name": "D4",
          "midi": 62,
          "time": 115.05000000000042,
          "velocity": 0.7874015748031497,
          "duration": 0.0007374999999996135
        },
        {
          "name": "D5",
          "midi": 74,
          "time": 115.05000000000042,
          "velocity": 0.7874015748031497,
          "duration": 0.0007374999999996135
        },
        {
          "name": "D6",
          "midi": 86,
          "time": 115.05000000000042,
          "velocity": 0.7874015748031497,
          "duration": 0.0007374999999996135
        },
        {
          "name": "D7",
          "midi": 98,
          "time": 115.05000000000042,
          "velocity": 0.7874015748031497,
          "duration": 0.0007374999999996135
        },
        {
          "name": "C6",
          "midi": 84,
          "time": 115.22700000000043,
          "velocity": 0.7874015748031497,
          "duration": 0.0007374999999996135
        },
        {
          "name": "D6",
          "midi": 86,
          "time": 115.22700000000043,
          "velocity": 0.7874015748031497,
          "duration": 0.0007374999999996135
        },
        {
          "name": "C7",
          "midi": 96,
          "time": 115.22700000000043,
          "velocity": 0.7874015748031497,
          "duration": 0.0007374999999996135
        },
        {
          "name": "D7",
          "midi": 98,
          "time": 115.22700000000043,
          "velocity": 0.7874015748031497,
          "duration": 0.0007374999999996135
        },
        {
          "name": "D4",
          "midi": 62,
          "time": 115.40400000000044,
          "velocity": 0.7874015748031497,
          "duration": 0.0007374999999996135
        },
        {
          "name": "D5",
          "midi": 74,
          "time": 115.40400000000044,
          "velocity": 0.7874015748031497,
          "duration": 0.0007374999999996135
        },
        {
          "name": "D7",
          "midi": 98,
          "time": 115.40400000000044,
          "velocity": 0.7874015748031497,
          "duration": 0.0007374999999996135
        },
        {
          "name": "D7",
          "midi": 98,
          "time": 115.58100000000044,
          "velocity": 0.7874015748031497,
          "duration": 0.0007374999999996135
        },
        {
          "name": "D4",
          "midi": 62,
          "time": 115.75800000000045,
          "velocity": 0.7874015748031497,
          "duration": 0.0007374999999996135
        },
        {
          "name": "C5",
          "midi": 72,
          "time": 115.75800000000045,
          "velocity": 0.7874015748031497,
          "duration": 0.0007374999999996135
        },
        {
          "name": "D5",
          "midi": 74,
          "time": 115.75800000000045,
          "velocity": 0.7874015748031497,
          "duration": 0.0007374999999996135
        },
        {
          "name": "C6",
          "midi": 84,
          "time": 115.75800000000045,
          "velocity": 0.7874015748031497,
          "duration": 0.0007374999999996135
        },
        {
          "name": "D6",
          "midi": 86,
          "time": 115.75800000000045,
          "velocity": 0.7874015748031497,
          "duration": 0.0007374999999996135
        },
        {
          "name": "C7",
          "midi": 96,
          "time": 115.75800000000045,
          "velocity": 0.7874015748031497,
          "duration": 0.0007374999999996135
        },
        {
          "name": "D7",
          "midi": 98,
          "time": 115.75800000000045,
          "velocity": 0.7874015748031497,
          "duration": 0.0007374999999996135
        },
        {
          "name": "D7",
          "midi": 98,
          "time": 115.93500000000046,
          "velocity": 0.7874015748031497,
          "duration": 0.0007374999999996135
        },
        {
          "name": "C#4",
          "midi": 61,
          "time": 116.11200000000046,
          "velocity": 0.7874015748031497,
          "duration": 0.0007374999999996135
        },
        {
          "name": "C#5",
          "midi": 73,
          "time": 116.11200000000046,
          "velocity": 0.7874015748031497,
          "duration": 0.0007374999999996135
        },
        {
          "name": "D5",
          "midi": 74,
          "time": 116.11200000000046,
          "velocity": 0.7874015748031497,
          "duration": 0.0007374999999996135
        },
        {
          "name": "C#6",
          "midi": 85,
          "time": 116.11200000000046,
          "velocity": 0.7874015748031497,
          "duration": 0.0007374999999996135
        },
        {
          "name": "D6",
          "midi": 86,
          "time": 116.11200000000046,
          "velocity": 0.7874015748031497,
          "duration": 0.0007374999999996135
        },
        {
          "name": "C#7",
          "midi": 97,
          "time": 116.11200000000046,
          "velocity": 0.7874015748031497,
          "duration": 0.0007374999999996135
        },
        {
          "name": "D7",
          "midi": 98,
          "time": 116.11200000000046,
          "velocity": 0.7874015748031497,
          "duration": 0.0007374999999996135
        },
        {
          "name": "D7",
          "midi": 98,
          "time": 116.28900000000047,
          "velocity": 0.7874015748031497,
          "duration": 0.0007374999999996135
        },
        {
          "name": "D4",
          "midi": 62,
          "time": 116.46600000000048,
          "velocity": 0.7874015748031497,
          "duration": 0.0007374999999996135
        },
        {
          "name": "D5",
          "midi": 74,
          "time": 116.46600000000048,
          "velocity": 0.7874015748031497,
          "duration": 0.0007374999999996135
        },
        {
          "name": "C6",
          "midi": 84,
          "time": 116.46600000000048,
          "velocity": 0.7874015748031497,
          "duration": 0.0007374999999996135
        },
        {
          "name": "D6",
          "midi": 86,
          "time": 116.46600000000048,
          "velocity": 0.7874015748031497,
          "duration": 0.0007374999999996135
        },
        {
          "name": "C7",
          "midi": 96,
          "time": 116.46600000000048,
          "velocity": 0.7874015748031497,
          "duration": 0.0007374999999996135
        },
        {
          "name": "D7",
          "midi": 98,
          "time": 116.46600000000048,
          "velocity": 0.7874015748031497,
          "duration": 0.0007374999999996135
        },
        {
          "name": "D7",
          "midi": 98,
          "time": 116.64300000000048,
          "velocity": 0.7874015748031497,
          "duration": 0.0007374999999996135
        },
        {
          "name": "D4",
          "midi": 62,
          "time": 116.82000000000049,
          "velocity": 0.7874015748031497,
          "duration": 0.0007374999999996135
        },
        {
          "name": "C5",
          "midi": 72,
          "time": 116.82000000000049,
          "velocity": 0.7874015748031497,
          "duration": 0.0007374999999996135
        },
        {
          "name": "D5",
          "midi": 74,
          "time": 116.82000000000049,
          "velocity": 0.7874015748031497,
          "duration": 0.0007374999999996135
        },
        {
          "name": "C6",
          "midi": 84,
          "time": 116.82000000000049,
          "velocity": 0.7874015748031497,
          "duration": 0.0007374999999996135
        },
        {
          "name": "D6",
          "midi": 86,
          "time": 116.82000000000049,
          "velocity": 0.7874015748031497,
          "duration": 0.0007374999999996135
        },
        {
          "name": "C7",
          "midi": 96,
          "time": 116.82000000000049,
          "velocity": 0.7874015748031497,
          "duration": 0.0007374999999996135
        },
        {
          "name": "D7",
          "midi": 98,
          "time": 116.82000000000049,
          "velocity": 0.7874015748031497,
          "duration": 0.0007374999999996135
        },
        {
          "name": "D7",
          "midi": 98,
          "time": 116.9970000000005,
          "velocity": 0.7874015748031497,
          "duration": 0.0007374999999996135
        },
        {
          "name": "C#4",
          "midi": 61,
          "time": 117.1740000000005,
          "velocity": 0.7874015748031497,
          "duration": 0.0007374999999996135
        },
        {
          "name": "C#5",
          "midi": 73,
          "time": 117.1740000000005,
          "velocity": 0.7874015748031497,
          "duration": 0.0007374999999996135
        },
        {
          "name": "D5",
          "midi": 74,
          "time": 117.1740000000005,
          "velocity": 0.7874015748031497,
          "duration": 0.0007374999999996135
        },
        {
          "name": "C#6",
          "midi": 85,
          "time": 117.1740000000005,
          "velocity": 0.7874015748031497,
          "duration": 0.0007374999999996135
        },
        {
          "name": "D6",
          "midi": 86,
          "time": 117.1740000000005,
          "velocity": 0.7874015748031497,
          "duration": 0.0007374999999996135
        },
        {
          "name": "C#7",
          "midi": 97,
          "time": 117.1740000000005,
          "velocity": 0.7874015748031497,
          "duration": 0.0007374999999996135
        },
        {
          "name": "D7",
          "midi": 98,
          "time": 117.1740000000005,
          "velocity": 0.7874015748031497,
          "duration": 0.0007374999999996135
        },
        {
          "name": "D7",
          "midi": 98,
          "time": 117.3502625000005,
          "velocity": 0.7874015748031497,
          "duration": 0.0007374999999996135
        },
        {
          "name": "D4",
          "midi": 62,
          "time": 117.5280000000005,
          "velocity": 0.7874015748031497,
          "duration": 0.0007374999999996135
        },
        {
          "name": "D5",
          "midi": 74,
          "time": 117.5280000000005,
          "velocity": 0.7874015748031497,
          "duration": 0.0007374999999996135
        },
        {
          "name": "D6",
          "midi": 86,
          "time": 117.5280000000005,
          "velocity": 0.7874015748031497,
          "duration": 0.0007374999999996135
        },
        {
          "name": "D7",
          "midi": 98,
          "time": 117.5280000000005,
          "velocity": 0.7874015748031497,
          "duration": 0.0007374999999996135
        },
        {
          "name": "C6",
          "midi": 84,
          "time": 117.70573750000051,
          "velocity": 0.7874015748031497,
          "duration": 0.0007374999999996135
        },
        {
          "name": "D6",
          "midi": 86,
          "time": 117.70573750000051,
          "velocity": 0.7874015748031497,
          "duration": 0.0007374999999996135
        },
        {
          "name": "C7",
          "midi": 96,
          "time": 117.70573750000051,
          "velocity": 0.7874015748031497,
          "duration": 0.0007374999999996135
        },
        {
          "name": "D7",
          "midi": 98,
          "time": 117.70573750000051,
          "velocity": 0.7874015748031497,
          "duration": 0.0007374999999996135
        },
        {
          "name": "D4",
          "midi": 62,
          "time": 117.8820000000005,
          "velocity": 0.7874015748031497,
          "duration": 0.0007374999999996135
        },
        {
          "name": "D5",
          "midi": 74,
          "time": 117.8820000000005,
          "velocity": 0.7874015748031497,
          "duration": 0.0007374999999996135
        },
        {
          "name": "D7",
          "midi": 98,
          "time": 117.8820000000005,
          "velocity": 0.7874015748031497,
          "duration": 0.0007374999999996135
        },
        {
          "name": "C6",
          "midi": 84,
          "time": 118.05973750000051,
          "velocity": 0.7874015748031497,
          "duration": 0.0007374999999996135
        },
        {
          "name": "D6",
          "midi": 86,
          "time": 118.05973750000051,
          "velocity": 0.7874015748031497,
          "duration": 0.0007374999999996135
        },
        {
          "name": "C7",
          "midi": 96,
          "time": 118.05973750000051,
          "velocity": 0.7874015748031497,
          "duration": 0.0007374999999996135
        },
        {
          "name": "D7",
          "midi": 98,
          "time": 118.05973750000051,
          "velocity": 0.7874015748031497,
          "duration": 0.0007374999999996135
        },
        {
          "name": "D4",
          "midi": 62,
          "time": 118.2360000000005,
          "velocity": 0.7874015748031497,
          "duration": 0.0007374999999996135
        },
        {
          "name": "D5",
          "midi": 74,
          "time": 118.2360000000005,
          "velocity": 0.7874015748031497,
          "duration": 0.0007374999999996135
        },
        {
          "name": "D7",
          "midi": 98,
          "time": 118.2360000000005,
          "velocity": 0.7874015748031497,
          "duration": 0.0007374999999996135
        },
        {
          "name": "D7",
          "midi": 98,
          "time": 118.41300000000051,
          "velocity": 0.7874015748031497,
          "duration": 0.0007374999999996135
        },
        {
          "name": "C#4",
          "midi": 61,
          "time": 118.59000000000052,
          "velocity": 0.7874015748031497,
          "duration": 0.0007374999999996135
        },
        {
          "name": "C#5",
          "midi": 73,
          "time": 118.59000000000052,
          "velocity": 0.7874015748031497,
          "duration": 0.0007374999999996135
        },
        {
          "name": "D5",
          "midi": 74,
          "time": 118.59000000000052,
          "velocity": 0.7874015748031497,
          "duration": 0.0007374999999996135
        },
        {
          "name": "C#6",
          "midi": 85,
          "time": 118.59000000000052,
          "velocity": 0.7874015748031497,
          "duration": 0.0007374999999996135
        },
        {
          "name": "D6",
          "midi": 86,
          "time": 118.59000000000052,
          "velocity": 0.7874015748031497,
          "duration": 0.0007374999999996135
        },
        {
          "name": "C#7",
          "midi": 97,
          "time": 118.59000000000052,
          "velocity": 0.7874015748031497,
          "duration": 0.0007374999999996135
        },
        {
          "name": "D7",
          "midi": 98,
          "time": 118.59000000000052,
          "velocity": 0.7874015748031497,
          "duration": 0.0007374999999996135
        },
        {
          "name": "D7",
          "midi": 98,
          "time": 118.76700000000052,
          "velocity": 0.7874015748031497,
          "duration": 0.0007374999999996135
        },
        {
          "name": "D4",
          "midi": 62,
          "time": 118.94400000000053,
          "velocity": 0.7874015748031497,
          "duration": 0.0007374999999996135
        },
        {
          "name": "D5",
          "midi": 74,
          "time": 118.94400000000053,
          "velocity": 0.7874015748031497,
          "duration": 0.0007374999999996135
        },
        {
          "name": "C6",
          "midi": 84,
          "time": 118.94400000000053,
          "velocity": 0.7874015748031497,
          "duration": 0.0007374999999996135
        },
        {
          "name": "D6",
          "midi": 86,
          "time": 118.94400000000053,
          "velocity": 0.7874015748031497,
          "duration": 0.0007374999999996135
        },
        {
          "name": "C7",
          "midi": 96,
          "time": 118.94400000000053,
          "velocity": 0.7874015748031497,
          "duration": 0.0007374999999996135
        },
        {
          "name": "D7",
          "midi": 98,
          "time": 118.94400000000053,
          "velocity": 0.7874015748031497,
          "duration": 0.0007374999999996135
        },
        {
          "name": "D7",
          "midi": 98,
          "time": 119.12100000000054,
          "velocity": 0.7874015748031497,
          "duration": 0.0007374999999996135
        },
        {
          "name": "D4",
          "midi": 62,
          "time": 119.29800000000054,
          "velocity": 0.7874015748031497,
          "duration": 0.0007374999999996135
        },
        {
          "name": "C5",
          "midi": 72,
          "time": 119.29800000000054,
          "velocity": 0.7874015748031497,
          "duration": 0.0007374999999996135
        },
        {
          "name": "D5",
          "midi": 74,
          "time": 119.29800000000054,
          "velocity": 0.7874015748031497,
          "duration": 0.0007374999999996135
        },
        {
          "name": "C6",
          "midi": 84,
          "time": 119.29800000000054,
          "velocity": 0.7874015748031497,
          "duration": 0.0007374999999996135
        },
        {
          "name": "D6",
          "midi": 86,
          "time": 119.29800000000054,
          "velocity": 0.7874015748031497,
          "duration": 0.0007374999999996135
        },
        {
          "name": "C7",
          "midi": 96,
          "time": 119.29800000000054,
          "velocity": 0.7874015748031497,
          "duration": 0.0007374999999996135
        },
        {
          "name": "D7",
          "midi": 98,
          "time": 119.29800000000054,
          "velocity": 0.7874015748031497,
          "duration": 0.0007374999999996135
        },
        {
          "name": "D7",
          "midi": 98,
          "time": 119.47500000000055,
          "velocity": 0.7874015748031497,
          "duration": 0.0007374999999996135
        },
        {
          "name": "C#4",
          "midi": 61,
          "time": 119.65200000000056,
          "velocity": 0.7874015748031497,
          "duration": 0.0007374999999996135
        },
        {
          "name": "C#5",
          "midi": 73,
          "time": 119.65200000000056,
          "velocity": 0.7874015748031497,
          "duration": 0.0007374999999996135
        },
        {
          "name": "D5",
          "midi": 74,
          "time": 119.65200000000056,
          "velocity": 0.7874015748031497,
          "duration": 0.0007374999999996135
        },
        {
          "name": "C#6",
          "midi": 85,
          "time": 119.65200000000056,
          "velocity": 0.7874015748031497,
          "duration": 0.0007374999999996135
        },
        {
          "name": "D6",
          "midi": 86,
          "time": 119.65200000000056,
          "velocity": 0.7874015748031497,
          "duration": 0.0007374999999996135
        },
        {
          "name": "C#7",
          "midi": 97,
          "time": 119.65200000000056,
          "velocity": 0.7874015748031497,
          "duration": 0.0007374999999996135
        },
        {
          "name": "D7",
          "midi": 98,
          "time": 119.65200000000056,
          "velocity": 0.7874015748031497,
          "duration": 0.0007374999999996135
        },
        {
          "name": "D7",
          "midi": 98,
          "time": 119.82973750000056,
          "velocity": 0.7874015748031497,
          "duration": 0.0007374999999996135
        },
        {
          "name": "D4",
          "midi": 62,
          "time": 120.00600000000055,
          "velocity": 0.7874015748031497,
          "duration": 0.0007374999999996135
        },
        {
          "name": "D5",
          "midi": 74,
          "time": 120.00600000000055,
          "velocity": 0.7874015748031497,
          "duration": 0.0007374999999996135
        },
        {
          "name": "D6",
          "midi": 86,
          "time": 120.00600000000055,
          "velocity": 0.7874015748031497,
          "duration": 0.0007374999999996135
        },
        {
          "name": "D7",
          "midi": 98,
          "time": 120.00600000000055,
          "velocity": 0.7874015748031497,
          "duration": 0.0007374999999996135
        },
        {
          "name": "C6",
          "midi": 84,
          "time": 120.18300000000056,
          "velocity": 0.7874015748031497,
          "duration": 0.0007374999999996135
        },
        {
          "name": "D6",
          "midi": 86,
          "time": 120.18300000000056,
          "velocity": 0.7874015748031497,
          "duration": 0.0007374999999996135
        },
        {
          "name": "C7",
          "midi": 96,
          "time": 120.18300000000056,
          "velocity": 0.7874015748031497,
          "duration": 0.0007374999999996135
        },
        {
          "name": "D7",
          "midi": 98,
          "time": 120.18300000000056,
          "velocity": 0.7874015748031497,
          "duration": 0.0007374999999996135
        },
        {
          "name": "D4",
          "midi": 62,
          "time": 120.36000000000057,
          "velocity": 0.7874015748031497,
          "duration": 0.0007374999999996135
        },
        {
          "name": "D5",
          "midi": 74,
          "time": 120.36000000000057,
          "velocity": 0.7874015748031497,
          "duration": 0.0007374999999996135
        },
        {
          "name": "D7",
          "midi": 98,
          "time": 120.36000000000057,
          "velocity": 0.7874015748031497,
          "duration": 0.0007374999999996135
        },
        {
          "name": "D7",
          "midi": 98,
          "time": 120.53626250000056,
          "velocity": 0.7874015748031497,
          "duration": 0.0007374999999996135
        },
        {
          "name": "D4",
          "midi": 62,
          "time": 120.71400000000057,
          "velocity": 0.7874015748031497,
          "duration": 0.0007374999999996135
        },
        {
          "name": "C5",
          "midi": 72,
          "time": 120.71400000000057,
          "velocity": 0.7874015748031497,
          "duration": 0.0007374999999996135
        },
        {
          "name": "D5",
          "midi": 74,
          "time": 120.71400000000057,
          "velocity": 0.7874015748031497,
          "duration": 0.0007374999999996135
        },
        {
          "name": "C6",
          "midi": 84,
          "time": 120.71400000000057,
          "velocity": 0.7874015748031497,
          "duration": 0.0007374999999996135
        },
        {
          "name": "D6",
          "midi": 86,
          "time": 120.71400000000057,
          "velocity": 0.7874015748031497,
          "duration": 0.0007374999999996135
        },
        {
          "name": "C7",
          "midi": 96,
          "time": 120.71400000000057,
          "velocity": 0.7874015748031497,
          "duration": 0.0007374999999996135
        },
        {
          "name": "D7",
          "midi": 98,
          "time": 120.71400000000057,
          "velocity": 0.7874015748031497,
          "duration": 0.0007374999999996135
        },
        {
          "name": "D7",
          "midi": 98,
          "time": 120.89100000000057,
          "velocity": 0.7874015748031497,
          "duration": 0.0007374999999996135
        },
        {
          "name": "C#4",
          "midi": 61,
          "time": 121.06800000000058,
          "velocity": 0.7874015748031497,
          "duration": 0.0007374999999996135
        },
        {
          "name": "C#5",
          "midi": 73,
          "time": 121.06800000000058,
          "velocity": 0.7874015748031497,
          "duration": 0.0007374999999996135
        },
        {
          "name": "D5",
          "midi": 74,
          "time": 121.06800000000058,
          "velocity": 0.7874015748031497,
          "duration": 0.0007374999999996135
        },
        {
          "name": "C#6",
          "midi": 85,
          "time": 121.06800000000058,
          "velocity": 0.7874015748031497,
          "duration": 0.0007374999999996135
        },
        {
          "name": "D6",
          "midi": 86,
          "time": 121.06800000000058,
          "velocity": 0.7874015748031497,
          "duration": 0.0007374999999996135
        },
        {
          "name": "C#7",
          "midi": 97,
          "time": 121.06800000000058,
          "velocity": 0.7874015748031497,
          "duration": 0.0007374999999996135
        },
        {
          "name": "D7",
          "midi": 98,
          "time": 121.06800000000058,
          "velocity": 0.7874015748031497,
          "duration": 0.0007374999999996135
        },
        {
          "name": "D7",
          "midi": 98,
          "time": 121.24426250000057,
          "velocity": 0.7874015748031497,
          "duration": 0.0007374999999996135
        },
        {
          "name": "D4",
          "midi": 62,
          "time": 121.42200000000058,
          "velocity": 0.7874015748031497,
          "duration": 0.0007374999999996135
        },
        {
          "name": "D5",
          "midi": 74,
          "time": 121.42200000000058,
          "velocity": 0.7874015748031497,
          "duration": 0.0007374999999996135
        },
        {
          "name": "C6",
          "midi": 84,
          "time": 121.42200000000058,
          "velocity": 0.7874015748031497,
          "duration": 0.0007374999999996135
        },
        {
          "name": "D6",
          "midi": 86,
          "time": 121.42200000000058,
          "velocity": 0.7874015748031497,
          "duration": 0.0007374999999996135
        },
        {
          "name": "C7",
          "midi": 96,
          "time": 121.42200000000058,
          "velocity": 0.7874015748031497,
          "duration": 0.0007374999999996135
        },
        {
          "name": "D7",
          "midi": 98,
          "time": 121.42200000000058,
          "velocity": 0.7874015748031497,
          "duration": 0.0007374999999996135
        },
        {
          "name": "D7",
          "midi": 98,
          "time": 121.59900000000059,
          "velocity": 0.7874015748031497,
          "duration": 0.0007374999999996135
        },
        {
          "name": "D4",
          "midi": 62,
          "time": 121.7760000000006,
          "velocity": 0.7874015748031497,
          "duration": 0.0007374999999996135
        },
        {
          "name": "C5",
          "midi": 72,
          "time": 121.7760000000006,
          "velocity": 0.7874015748031497,
          "duration": 0.0007374999999996135
        },
        {
          "name": "D5",
          "midi": 74,
          "time": 121.7760000000006,
          "velocity": 0.7874015748031497,
          "duration": 0.0007374999999996135
        },
        {
          "name": "C6",
          "midi": 84,
          "time": 121.7760000000006,
          "velocity": 0.7874015748031497,
          "duration": 0.0007374999999996135
        },
        {
          "name": "D6",
          "midi": 86,
          "time": 121.7760000000006,
          "velocity": 0.7874015748031497,
          "duration": 0.0007374999999996135
        },
        {
          "name": "C7",
          "midi": 96,
          "time": 121.7760000000006,
          "velocity": 0.7874015748031497,
          "duration": 0.0007374999999996135
        },
        {
          "name": "D7",
          "midi": 98,
          "time": 121.7760000000006,
          "velocity": 0.7874015748031497,
          "duration": 0.0007374999999996135
        },
        {
          "name": "D7",
          "midi": 98,
          "time": 121.9537375000006,
          "velocity": 0.7874015748031497,
          "duration": 0.0007374999999996135
        },
        {
          "name": "C#4",
          "midi": 61,
          "time": 122.13000000000059,
          "velocity": 0.7874015748031497,
          "duration": 0.0007374999999996135
        },
        {
          "name": "C#5",
          "midi": 73,
          "time": 122.13000000000059,
          "velocity": 0.7874015748031497,
          "duration": 0.0007374999999996135
        },
        {
          "name": "D5",
          "midi": 74,
          "time": 122.13000000000059,
          "velocity": 0.7874015748031497,
          "duration": 0.0007374999999996135
        },
        {
          "name": "C#6",
          "midi": 85,
          "time": 122.13000000000059,
          "velocity": 0.7874015748031497,
          "duration": 0.0007374999999996135
        },
        {
          "name": "D6",
          "midi": 86,
          "time": 122.13000000000059,
          "velocity": 0.7874015748031497,
          "duration": 0.0007374999999996135
        },
        {
          "name": "C#7",
          "midi": 97,
          "time": 122.13000000000059,
          "velocity": 0.7874015748031497,
          "duration": 0.0007374999999996135
        },
        {
          "name": "D7",
          "midi": 98,
          "time": 122.13000000000059,
          "velocity": 0.7874015748031497,
          "duration": 0.0007374999999996135
        },
        {
          "name": "D7",
          "midi": 98,
          "time": 122.3070000000006,
          "velocity": 0.7874015748031497,
          "duration": 0.0007374999999996135
        },
        {
          "name": "G#8",
          "midi": 116,
          "time": 122.4840000000006,
          "velocity": 0.7874015748031497,
          "duration": 1.504499999999993
        },
        {
          "name": "C#4",
          "midi": 61,
          "time": 122.4840000000006,
          "velocity": 0.7874015748031497,
          "duration": 0.0007374999999996135
        },
        {
          "name": "C#5",
          "midi": 73,
          "time": 122.4840000000006,
          "velocity": 0.7874015748031497,
          "duration": 0.0007374999999996135
        },
        {
          "name": "C#6",
          "midi": 85,
          "time": 122.4840000000006,
          "velocity": 0.7874015748031497,
          "duration": 0.0007374999999996135
        },
        {
          "name": "C#7",
          "midi": 97,
          "time": 122.4840000000006,
          "velocity": 0.7874015748031497,
          "duration": 0.0007374999999996135
        },
        {
          "name": "C#6",
          "midi": 85,
          "time": 122.5725000000006,
          "velocity": 0.7874015748031497,
          "duration": 0.0007374999999996135
        },
        {
          "name": "C#7",
          "midi": 97,
          "time": 122.5725000000006,
          "velocity": 0.7874015748031497,
          "duration": 0.0007374999999996135
        },
        {
          "name": "C#4",
          "midi": 61,
          "time": 122.6610000000006,
          "velocity": 0.7874015748031497,
          "duration": 0.0007374999999996135
        },
        {
          "name": "C#5",
          "midi": 73,
          "time": 122.6610000000006,
          "velocity": 0.7874015748031497,
          "duration": 0.0007374999999996135
        },
        {
          "name": "C#6",
          "midi": 85,
          "time": 122.6610000000006,
          "velocity": 0.7874015748031497,
          "duration": 0.0007374999999996135
        },
        {
          "name": "C#7",
          "midi": 97,
          "time": 122.6610000000006,
          "velocity": 0.7874015748031497,
          "duration": 0.0007374999999996135
        },
        {
          "name": "C#4",
          "midi": 61,
          "time": 122.8380000000006,
          "velocity": 0.7874015748031497,
          "duration": 0.0007374999999996135
        },
        {
          "name": "C#5",
          "midi": 73,
          "time": 122.8380000000006,
          "velocity": 0.7874015748031497,
          "duration": 0.0007374999999996135
        },
        {
          "name": "C#6",
          "midi": 85,
          "time": 122.8380000000006,
          "velocity": 0.7874015748031497,
          "duration": 0.0007374999999996135
        },
        {
          "name": "C#7",
          "midi": 97,
          "time": 122.8380000000006,
          "velocity": 0.7874015748031497,
          "duration": 0.0007374999999996135
        },
        {
          "name": "C#4",
          "midi": 61,
          "time": 123.0142625000006,
          "velocity": 0.7874015748031497,
          "duration": 0.0007374999999996135
        },
        {
          "name": "C#5",
          "midi": 73,
          "time": 123.0142625000006,
          "velocity": 0.7874015748031497,
          "duration": 0.0007374999999996135
        },
        {
          "name": "C#6",
          "midi": 85,
          "time": 123.0142625000006,
          "velocity": 0.7874015748031497,
          "duration": 0.0007374999999996135
        },
        {
          "name": "C#7",
          "midi": 97,
          "time": 123.0142625000006,
          "velocity": 0.7874015748031497,
          "duration": 0.0007374999999996135
        },
        {
          "name": "D#4",
          "midi": 63,
          "time": 123.1920000000006,
          "velocity": 0.7874015748031497,
          "duration": 0.0007374999999996135
        },
        {
          "name": "D#5",
          "midi": 75,
          "time": 123.1920000000006,
          "velocity": 0.7874015748031497,
          "duration": 0.0007374999999996135
        },
        {
          "name": "D#6",
          "midi": 87,
          "time": 123.1920000000006,
          "velocity": 0.7874015748031497,
          "duration": 0.0007374999999996135
        },
        {
          "name": "D#7",
          "midi": 99,
          "time": 123.1920000000006,
          "velocity": 0.7874015748031497,
          "duration": 0.0007374999999996135
        },
        {
          "name": "D#6",
          "midi": 87,
          "time": 123.2805000000006,
          "velocity": 0.7874015748031497,
          "duration": 0.0007374999999996135
        },
        {
          "name": "D#7",
          "midi": 99,
          "time": 123.2805000000006,
          "velocity": 0.7874015748031497,
          "duration": 0.0007374999999996135
        },
        {
          "name": "D#4",
          "midi": 63,
          "time": 123.3690000000006,
          "velocity": 0.7874015748031497,
          "duration": 0.0007374999999996135
        },
        {
          "name": "D#5",
          "midi": 75,
          "time": 123.3690000000006,
          "velocity": 0.7874015748031497,
          "duration": 0.0007374999999996135
        },
        {
          "name": "D#6",
          "midi": 87,
          "time": 123.3690000000006,
          "velocity": 0.7874015748031497,
          "duration": 0.0007374999999996135
        },
        {
          "name": "D#7",
          "midi": 99,
          "time": 123.3690000000006,
          "velocity": 0.7874015748031497,
          "duration": 0.0007374999999996135
        },
        {
          "name": "D#4",
          "midi": 63,
          "time": 123.5460000000006,
          "velocity": 0.7874015748031497,
          "duration": 0.0007374999999996135
        },
        {
          "name": "D#5",
          "midi": 75,
          "time": 123.5460000000006,
          "velocity": 0.7874015748031497,
          "duration": 0.0007374999999996135
        },
        {
          "name": "D#6",
          "midi": 87,
          "time": 123.5460000000006,
          "velocity": 0.7874015748031497,
          "duration": 0.0007374999999996135
        },
        {
          "name": "D#7",
          "midi": 99,
          "time": 123.5460000000006,
          "velocity": 0.7874015748031497,
          "duration": 0.0007374999999996135
        },
        {
          "name": "D#4",
          "midi": 63,
          "time": 123.7222625000006,
          "velocity": 0.7874015748031497,
          "duration": 0.0007374999999996135
        },
        {
          "name": "D#5",
          "midi": 75,
          "time": 123.7222625000006,
          "velocity": 0.7874015748031497,
          "duration": 0.0007374999999996135
        },
        {
          "name": "D#6",
          "midi": 87,
          "time": 123.7222625000006,
          "velocity": 0.7874015748031497,
          "duration": 0.0007374999999996135
        },
        {
          "name": "D#7",
          "midi": 99,
          "time": 123.7222625000006,
          "velocity": 0.7874015748031497,
          "duration": 0.0007374999999996135
        },
        {
          "name": "D4",
          "midi": 62,
          "time": 123.9000000000006,
          "velocity": 0.7874015748031497,
          "duration": 0.0007374999999996135
        },
        {
          "name": "C5",
          "midi": 72,
          "time": 123.9000000000006,
          "velocity": 0.7874015748031497,
          "duration": 0.0007374999999996135
        },
        {
          "name": "D5",
          "midi": 74,
          "time": 123.9000000000006,
          "velocity": 0.7874015748031497,
          "duration": 0.0007374999999996135
        },
        {
          "name": "C6",
          "midi": 84,
          "time": 123.9000000000006,
          "velocity": 0.7874015748031497,
          "duration": 0.0007374999999996135
        },
        {
          "name": "D6",
          "midi": 86,
          "time": 123.9000000000006,
          "velocity": 0.7874015748031497,
          "duration": 0.0007374999999996135
        },
        {
          "name": "C7",
          "midi": 96,
          "time": 123.9000000000006,
          "velocity": 0.7874015748031497,
          "duration": 0.0007374999999996135
        },
        {
          "name": "D7",
          "midi": 98,
          "time": 123.9000000000006,
          "velocity": 0.7874015748031497,
          "duration": 0.0007374999999996135
        },
        {
          "name": "E4",
          "midi": 64,
          "time": 124.2540000000006,
          "velocity": 0.7874015748031497,
          "duration": 0.0007374999999996135
        },
        {
          "name": "E5",
          "midi": 76,
          "time": 124.2540000000006,
          "velocity": 0.7874015748031497,
          "duration": 0.0007374999999996135
        },
        {
          "name": "C6",
          "midi": 84,
          "time": 124.2540000000006,
          "velocity": 0.7874015748031497,
          "duration": 0.0007374999999996135
        },
        {
          "name": "E6",
          "midi": 88,
          "time": 124.2540000000006,
          "velocity": 0.7874015748031497,
          "duration": 0.0007374999999996135
        },
        {
          "name": "C7",
          "midi": 96,
          "time": 124.2540000000006,
          "velocity": 0.7874015748031497,
          "duration": 0.0007374999999996135
        },
        {
          "name": "E7",
          "midi": 100,
          "time": 124.2540000000006,
          "velocity": 0.7874015748031497,
          "duration": 0.0007374999999996135
        },
        {
          "name": "E7",
          "midi": 100,
          "time": 124.43173750000061,
          "velocity": 0.7874015748031497,
          "duration": 0.0007374999999996135
        },
        {
          "name": "C#4",
          "midi": 61,
          "time": 124.6080000000006,
          "velocity": 0.7874015748031497,
          "duration": 0.0007374999999996135
        },
        {
          "name": "C#5",
          "midi": 73,
          "time": 124.6080000000006,
          "velocity": 0.7874015748031497,
          "duration": 0.0007374999999996135
        },
        {
          "name": "E5",
          "midi": 76,
          "time": 124.6080000000006,
          "velocity": 0.7874015748031497,
          "duration": 0.0007374999999996135
        },
        {
          "name": "C#6",
          "midi": 85,
          "time": 124.6080000000006,
          "velocity": 0.7874015748031497,
          "duration": 0.0007374999999996135
        },
        {
          "name": "E6",
          "midi": 88,
          "time": 124.6080000000006,
          "velocity": 0.7874015748031497,
          "duration": 0.0007374999999996135
        },
        {
          "name": "C#7",
          "midi": 97,
          "time": 124.6080000000006,
          "velocity": 0.7874015748031497,
          "duration": 0.0007374999999996135
        },
        {
          "name": "E7",
          "midi": 100,
          "time": 124.6080000000006,
          "velocity": 0.7874015748031497,
          "duration": 0.0007374999999996135
        },
        {
          "name": "E7",
          "midi": 100,
          "time": 124.78573750000061,
          "velocity": 0.7874015748031497,
          "duration": 0.0007374999999996135
        },
        {
          "name": "E4",
          "midi": 64,
          "time": 124.9620000000006,
          "velocity": 0.7874015748031497,
          "duration": 0.0007374999999996135
        },
        {
          "name": "E5",
          "midi": 76,
          "time": 124.9620000000006,
          "velocity": 0.7874015748031497,
          "duration": 0.0007374999999996135
        },
        {
          "name": "E6",
          "midi": 88,
          "time": 124.9620000000006,
          "velocity": 0.7874015748031497,
          "duration": 0.0007374999999996135
        },
        {
          "name": "E7",
          "midi": 100,
          "time": 124.9620000000006,
          "velocity": 0.7874015748031497,
          "duration": 0.0007374999999996135
        },
        {
          "name": "C6",
          "midi": 84,
          "time": 125.1397375000006,
          "velocity": 0.7874015748031497,
          "duration": 0.0007374999999996135
        },
        {
          "name": "C7",
          "midi": 96,
          "time": 125.1397375000006,
          "velocity": 0.7874015748031497,
          "duration": 0.0007374999999996135
        },
        {
          "name": "E7",
          "midi": 100,
          "time": 125.1397375000006,
          "velocity": 0.7874015748031497,
          "duration": 0.0007374999999996135
        },
        {
          "name": "E4",
          "midi": 64,
          "time": 125.3160000000006,
          "velocity": 0.7874015748031497,
          "duration": 0.0007374999999996135
        },
        {
          "name": "E5",
          "midi": 76,
          "time": 125.3160000000006,
          "velocity": 0.7874015748031497,
          "duration": 0.0007374999999996135
        },
        {
          "name": "E6",
          "midi": 88,
          "time": 125.3160000000006,
          "velocity": 0.7874015748031497,
          "duration": 0.0007374999999996135
        },
        {
          "name": "E7",
          "midi": 100,
          "time": 125.3160000000006,
          "velocity": 0.7874015748031497,
          "duration": 0.0007374999999996135
        },
        {
          "name": "E7",
          "midi": 100,
          "time": 125.49226250000059,
          "velocity": 0.7874015748031497,
          "duration": 0.0007374999999996135
        },
        {
          "name": "E4",
          "midi": 64,
          "time": 125.6700000000006,
          "velocity": 0.7874015748031497,
          "duration": 0.0007374999999996135
        },
        {
          "name": "C5",
          "midi": 72,
          "time": 125.6700000000006,
          "velocity": 0.7874015748031497,
          "duration": 0.0007374999999996135
        },
        {
          "name": "E5",
          "midi": 76,
          "time": 125.6700000000006,
          "velocity": 0.7874015748031497,
          "duration": 0.0007374999999996135
        },
        {
          "name": "C6",
          "midi": 84,
          "time": 125.6700000000006,
          "velocity": 0.7874015748031497,
          "duration": 0.0007374999999996135
        },
        {
          "name": "E6",
          "midi": 88,
          "time": 125.6700000000006,
          "velocity": 0.7874015748031497,
          "duration": 0.0007374999999996135
        },
        {
          "name": "C7",
          "midi": 96,
          "time": 125.6700000000006,
          "velocity": 0.7874015748031497,
          "duration": 0.0007374999999996135
        },
        {
          "name": "E7",
          "midi": 100,
          "time": 125.6700000000006,
          "velocity": 0.7874015748031497,
          "duration": 0.0007374999999996135
        },
        {
          "name": "E7",
          "midi": 100,
          "time": 125.8470000000006,
          "velocity": 0.7874015748031497,
          "duration": 0.0007374999999996135
        },
        {
          "name": "C#4",
          "midi": 61,
          "time": 126.02400000000061,
          "velocity": 0.7874015748031497,
          "duration": 0.0007374999999996135
        },
        {
          "name": "C#5",
          "midi": 73,
          "time": 126.02400000000061,
          "velocity": 0.7874015748031497,
          "duration": 0.0007374999999996135
        },
        {
          "name": "E5",
          "midi": 76,
          "time": 126.02400000000061,
          "velocity": 0.7874015748031497,
          "duration": 0.0007374999999996135
        },
        {
          "name": "C#6",
          "midi": 85,
          "time": 126.02400000000061,
          "velocity": 0.7874015748031497,
          "duration": 0.0007374999999996135
        },
        {
          "name": "E6",
          "midi": 88,
          "time": 126.02400000000061,
          "velocity": 0.7874015748031497,
          "duration": 0.0007374999999996135
        },
        {
          "name": "C#7",
          "midi": 97,
          "time": 126.02400000000061,
          "velocity": 0.7874015748031497,
          "duration": 0.0007374999999996135
        },
        {
          "name": "E7",
          "midi": 100,
          "time": 126.02400000000061,
          "velocity": 0.7874015748031497,
          "duration": 0.0007374999999996135
        },
        {
          "name": "E7",
          "midi": 100,
          "time": 126.20100000000062,
          "velocity": 0.7874015748031497,
          "duration": 0.0007374999999996135
        },
        {
          "name": "E4",
          "midi": 64,
          "time": 126.37800000000063,
          "velocity": 0.7874015748031497,
          "duration": 0.0007374999999996135
        },
        {
          "name": "E5",
          "midi": 76,
          "time": 126.37800000000063,
          "velocity": 0.7874015748031497,
          "duration": 0.0007374999999996135
        },
        {
          "name": "C6",
          "midi": 84,
          "time": 126.37800000000063,
          "velocity": 0.7874015748031497,
          "duration": 0.0007374999999996135
        },
        {
          "name": "E6",
          "midi": 88,
          "time": 126.37800000000063,
          "velocity": 0.7874015748031497,
          "duration": 0.0007374999999996135
        },
        {
          "name": "C7",
          "midi": 96,
          "time": 126.37800000000063,
          "velocity": 0.7874015748031497,
          "duration": 0.0007374999999996135
        },
        {
          "name": "E7",
          "midi": 100,
          "time": 126.37800000000063,
          "velocity": 0.7874015748031497,
          "duration": 0.0007374999999996135
        },
        {
          "name": "E7",
          "midi": 100,
          "time": 126.55573750000063,
          "velocity": 0.7874015748031497,
          "duration": 0.0007374999999996135
        },
        {
          "name": "E4",
          "midi": 64,
          "time": 126.73200000000062,
          "velocity": 0.7874015748031497,
          "duration": 0.0007374999999996135
        },
        {
          "name": "C5",
          "midi": 72,
          "time": 126.73200000000062,
          "velocity": 0.7874015748031497,
          "duration": 0.0007374999999996135
        },
        {
          "name": "E5",
          "midi": 76,
          "time": 126.73200000000062,
          "velocity": 0.7874015748031497,
          "duration": 0.0007374999999996135
        },
        {
          "name": "C6",
          "midi": 84,
          "time": 126.73200000000062,
          "velocity": 0.7874015748031497,
          "duration": 0.0007374999999996135
        },
        {
          "name": "E6",
          "midi": 88,
          "time": 126.73200000000062,
          "velocity": 0.7874015748031497,
          "duration": 0.0007374999999996135
        },
        {
          "name": "C7",
          "midi": 96,
          "time": 126.73200000000062,
          "velocity": 0.7874015748031497,
          "duration": 0.0007374999999996135
        },
        {
          "name": "E7",
          "midi": 100,
          "time": 126.73200000000062,
          "velocity": 0.7874015748031497,
          "duration": 0.0007374999999996135
        },
        {
          "name": "E7",
          "midi": 100,
          "time": 126.90900000000063,
          "velocity": 0.7874015748031497,
          "duration": 0.0007374999999996135
        },
        {
          "name": "C#4",
          "midi": 61,
          "time": 127.08600000000064,
          "velocity": 0.7874015748031497,
          "duration": 0.0007374999999996135
        },
        {
          "name": "C#5",
          "midi": 73,
          "time": 127.08600000000064,
          "velocity": 0.7874015748031497,
          "duration": 0.0007374999999996135
        },
        {
          "name": "E5",
          "midi": 76,
          "time": 127.08600000000064,
          "velocity": 0.7874015748031497,
          "duration": 0.0007374999999996135
        },
        {
          "name": "C#6",
          "midi": 85,
          "time": 127.08600000000064,
          "velocity": 0.7874015748031497,
          "duration": 0.0007374999999996135
        },
        {
          "name": "E6",
          "midi": 88,
          "time": 127.08600000000064,
          "velocity": 0.7874015748031497,
          "duration": 0.0007374999999996135
        },
        {
          "name": "C#7",
          "midi": 97,
          "time": 127.08600000000064,
          "velocity": 0.7874015748031497,
          "duration": 0.0007374999999996135
        },
        {
          "name": "E7",
          "midi": 100,
          "time": 127.08600000000064,
          "velocity": 0.7874015748031497,
          "duration": 0.0007374999999996135
        },
        {
          "name": "E7",
          "midi": 100,
          "time": 127.26373750000064,
          "velocity": 0.7874015748031497,
          "duration": 0.0007374999999996135
        },
        {
          "name": "C#4",
          "midi": 61,
          "time": 127.44000000000064,
          "velocity": 0.7874015748031497,
          "duration": 0.0007374999999996135
        },
        {
          "name": "C#5",
          "midi": 73,
          "time": 127.44000000000064,
          "velocity": 0.7874015748031497,
          "duration": 0.0007374999999996135
        },
        {
          "name": "E5",
          "midi": 76,
          "time": 127.44000000000064,
          "velocity": 0.7874015748031497,
          "duration": 0.0007374999999996135
        },
        {
          "name": "C#6",
          "midi": 85,
          "time": 127.44000000000064,
          "velocity": 0.7874015748031497,
          "duration": 0.0007374999999996135
        },
        {
          "name": "E6",
          "midi": 88,
          "time": 127.44000000000064,
          "velocity": 0.7874015748031497,
          "duration": 0.0007374999999996135
        },
        {
          "name": "C#7",
          "midi": 97,
          "time": 127.44000000000064,
          "velocity": 0.7874015748031497,
          "duration": 0.0007374999999996135
        },
        {
          "name": "E7",
          "midi": 100,
          "time": 127.44000000000064,
          "velocity": 0.7874015748031497,
          "duration": 0.0007374999999996135
        },
        {
          "name": "C6",
          "midi": 84,
          "time": 127.61700000000064,
          "velocity": 0.7874015748031497,
          "duration": 0.0007374999999996135
        },
        {
          "name": "C7",
          "midi": 96,
          "time": 127.61700000000064,
          "velocity": 0.7874015748031497,
          "duration": 0.0007374999999996135
        },
        {
          "name": "E7",
          "midi": 100,
          "time": 127.61700000000064,
          "velocity": 0.7874015748031497,
          "duration": 0.0007374999999996135
        },
        {
          "name": "E4",
          "midi": 64,
          "time": 127.79400000000065,
          "velocity": 0.7874015748031497,
          "duration": 0.0007374999999996135
        },
        {
          "name": "E5",
          "midi": 76,
          "time": 127.79400000000065,
          "velocity": 0.7874015748031497,
          "duration": 0.0007374999999996135
        },
        {
          "name": "E6",
          "midi": 88,
          "time": 127.79400000000065,
          "velocity": 0.7874015748031497,
          "duration": 0.0007374999999996135
        },
        {
          "name": "E7",
          "midi": 100,
          "time": 127.79400000000065,
          "velocity": 0.7874015748031497,
          "duration": 0.0007374999999996135
        },
        {
          "name": "E7",
          "midi": 100,
          "time": 127.97026250000064,
          "velocity": 0.7874015748031497,
          "duration": 0.0007374999999996135
        },
        {
          "name": "E4",
          "midi": 64,
          "time": 128.14800000000065,
          "velocity": 0.7874015748031497,
          "duration": 0.0007375000000138243
        },
        {
          "name": "C5",
          "midi": 72,
          "time": 128.14800000000065,
          "velocity": 0.7874015748031497,
          "duration": 0.0007375000000138243
        },
        {
          "name": "E5",
          "midi": 76,
          "time": 128.14800000000065,
          "velocity": 0.7874015748031497,
          "duration": 0.0007375000000138243
        },
        {
          "name": "C6",
          "midi": 84,
          "time": 128.14800000000065,
          "velocity": 0.7874015748031497,
          "duration": 0.0007375000000138243
        },
        {
          "name": "E6",
          "midi": 88,
          "time": 128.14800000000065,
          "velocity": 0.7874015748031497,
          "duration": 0.0007375000000138243
        },
        {
          "name": "C7",
          "midi": 96,
          "time": 128.14800000000065,
          "velocity": 0.7874015748031497,
          "duration": 0.0007375000000138243
        },
        {
          "name": "E7",
          "midi": 100,
          "time": 128.14800000000065,
          "velocity": 0.7874015748031497,
          "duration": 0.0007375000000138243
        },
        {
          "name": "E7",
          "midi": 100,
          "time": 128.32500000000067,
          "velocity": 0.7874015748031497,
          "duration": 0.0007375000000138243
        },
        {
          "name": "C#4",
          "midi": 61,
          "time": 128.5020000000007,
          "velocity": 0.7874015748031497,
          "duration": 0.0007375000000138243
        },
        {
          "name": "C#5",
          "midi": 73,
          "time": 128.5020000000007,
          "velocity": 0.7874015748031497,
          "duration": 0.0007375000000138243
        },
        {
          "name": "E5",
          "midi": 76,
          "time": 128.5020000000007,
          "velocity": 0.7874015748031497,
          "duration": 0.0007375000000138243
        },
        {
          "name": "C#6",
          "midi": 85,
          "time": 128.5020000000007,
          "velocity": 0.7874015748031497,
          "duration": 0.0007375000000138243
        },
        {
          "name": "E6",
          "midi": 88,
          "time": 128.5020000000007,
          "velocity": 0.7874015748031497,
          "duration": 0.0007375000000138243
        },
        {
          "name": "C#7",
          "midi": 97,
          "time": 128.5020000000007,
          "velocity": 0.7874015748031497,
          "duration": 0.0007375000000138243
        },
        {
          "name": "E7",
          "midi": 100,
          "time": 128.5020000000007,
          "velocity": 0.7874015748031497,
          "duration": 0.0007375000000138243
        },
        {
          "name": "E7",
          "midi": 100,
          "time": 128.6790000000007,
          "velocity": 0.7874015748031497,
          "duration": 0.0007375000000138243
        },
        {
          "name": "E4",
          "midi": 64,
          "time": 128.85600000000073,
          "velocity": 0.7874015748031497,
          "duration": 0.0007375000000138243
        },
        {
          "name": "C5",
          "midi": 72,
          "time": 128.85600000000073,
          "velocity": 0.7874015748031497,
          "duration": 0.0007375000000138243
        },
        {
          "name": "E5",
          "midi": 76,
          "time": 128.85600000000073,
          "velocity": 0.7874015748031497,
          "duration": 0.0007375000000138243
        },
        {
          "name": "C6",
          "midi": 84,
          "time": 128.85600000000073,
          "velocity": 0.7874015748031497,
          "duration": 0.0007375000000138243
        },
        {
          "name": "E6",
          "midi": 88,
          "time": 128.85600000000073,
          "velocity": 0.7874015748031497,
          "duration": 0.0007375000000138243
        },
        {
          "name": "C7",
          "midi": 96,
          "time": 128.85600000000073,
          "velocity": 0.7874015748031497,
          "duration": 0.0007375000000138243
        },
        {
          "name": "E7",
          "midi": 100,
          "time": 128.85600000000073,
          "velocity": 0.7874015748031497,
          "duration": 0.0007375000000138243
        },
        {
          "name": "E7",
          "midi": 100,
          "time": 129.03300000000075,
          "velocity": 0.7874015748031497,
          "duration": 0.0007375000000138243
        },
        {
          "name": "C7",
          "midi": 96,
          "time": 129.12076250000078,
          "velocity": 0.7874015748031497,
          "duration": 0.0007375000000138243
        },
        {
          "name": "C#4",
          "midi": 61,
          "time": 129.2100000000008,
          "velocity": 0.7874015748031497,
          "duration": 0.0007375000000138243
        },
        {
          "name": "C#5",
          "midi": 73,
          "time": 129.2100000000008,
          "velocity": 0.7874015748031497,
          "duration": 0.0007375000000138243
        },
        {
          "name": "E5",
          "midi": 76,
          "time": 129.2100000000008,
          "velocity": 0.7874015748031497,
          "duration": 0.0007375000000138243
        },
        {
          "name": "C#6",
          "midi": 85,
          "time": 129.2100000000008,
          "velocity": 0.7874015748031497,
          "duration": 0.0007375000000138243
        },
        {
          "name": "E6",
          "midi": 88,
          "time": 129.2100000000008,
          "velocity": 0.7874015748031497,
          "duration": 0.0007375000000138243
        },
        {
          "name": "C#7",
          "midi": 97,
          "time": 129.2100000000008,
          "velocity": 0.7874015748031497,
          "duration": 0.0007375000000138243
        },
        {
          "name": "E7",
          "midi": 100,
          "time": 129.2100000000008,
          "velocity": 0.7874015748031497,
          "duration": 0.0007375000000138243
        },
        {
          "name": "E7",
          "midi": 100,
          "time": 129.3877375000008,
          "velocity": 0.7874015748031497,
          "duration": 0.0007375000000138243
        },
        {
          "name": "E4",
          "midi": 64,
          "time": 129.56400000000082,
          "velocity": 0.7874015748031497,
          "duration": 0.0007375000000138243
        },
        {
          "name": "C5",
          "midi": 72,
          "time": 129.56400000000082,
          "velocity": 0.7874015748031497,
          "duration": 0.0007375000000138243
        },
        {
          "name": "E5",
          "midi": 76,
          "time": 129.56400000000082,
          "velocity": 0.7874015748031497,
          "duration": 0.0007375000000138243
        },
        {
          "name": "C6",
          "midi": 84,
          "time": 129.56400000000082,
          "velocity": 0.7874015748031497,
          "duration": 0.0007375000000138243
        },
        {
          "name": "E6",
          "midi": 88,
          "time": 129.56400000000082,
          "velocity": 0.7874015748031497,
          "duration": 0.0007375000000138243
        },
        {
          "name": "C7",
          "midi": 96,
          "time": 129.56400000000082,
          "velocity": 0.7874015748031497,
          "duration": 0.0007375000000138243
        },
        {
          "name": "E7",
          "midi": 100,
          "time": 129.56400000000082,
          "velocity": 0.7874015748031497,
          "duration": 0.0007375000000138243
        },
        {
          "name": "E7",
          "midi": 100,
          "time": 129.74100000000084,
          "velocity": 0.7874015748031497,
          "duration": 0.0007375000000138243
        },
        {
          "name": "C7",
          "midi": 96,
          "time": 129.83023750000086,
          "velocity": 0.7874015748031497,
          "duration": 0.0007375000000138243
        },
        {
          "name": "C#4",
          "midi": 61,
          "time": 129.9180000000009,
          "velocity": 0.7874015748031497,
          "duration": 0.0007375000000138243
        },
        {
          "name": "C#5",
          "midi": 73,
          "time": 129.9180000000009,
          "velocity": 0.7874015748031497,
          "duration": 0.0007375000000138243
        },
        {
          "name": "E5",
          "midi": 76,
          "time": 129.9180000000009,
          "velocity": 0.7874015748031497,
          "duration": 0.0007375000000138243
        },
        {
          "name": "C#6",
          "midi": 85,
          "time": 129.9180000000009,
          "velocity": 0.7874015748031497,
          "duration": 0.0007375000000138243
        },
        {
          "name": "E6",
          "midi": 88,
          "time": 129.9180000000009,
          "velocity": 0.7874015748031497,
          "duration": 0.0007375000000138243
        },
        {
          "name": "C#7",
          "midi": 97,
          "time": 129.9180000000009,
          "velocity": 0.7874015748031497,
          "duration": 0.0007375000000138243
        },
        {
          "name": "E7",
          "midi": 100,
          "time": 129.9180000000009,
          "velocity": 0.7874015748031497,
          "duration": 0.0007375000000138243
        },
        {
          "name": "C6",
          "midi": 84,
          "time": 130.0957375000009,
          "velocity": 0.7874015748031497,
          "duration": 0.0007375000000138243
        },
        {
          "name": "C7",
          "midi": 96,
          "time": 130.0957375000009,
          "velocity": 0.7874015748031497,
          "duration": 0.0007375000000138243
        },
        {
          "name": "E7",
          "midi": 100,
          "time": 130.0957375000009,
          "velocity": 0.7874015748031497,
          "duration": 0.0007375000000138243
        },
        {
          "name": "E4",
          "midi": 64,
          "time": 130.2720000000009,
          "velocity": 0.7874015748031497,
          "duration": 0.0007375000000138243
        },
        {
          "name": "E5",
          "midi": 76,
          "time": 130.2720000000009,
          "velocity": 0.7874015748031497,
          "duration": 0.0007375000000138243
        },
        {
          "name": "E6",
          "midi": 88,
          "time": 130.2720000000009,
          "velocity": 0.7874015748031497,
          "duration": 0.0007375000000138243
        },
        {
          "name": "E7",
          "midi": 100,
          "time": 130.2720000000009,
          "velocity": 0.7874015748031497,
          "duration": 0.0007375000000138243
        },
        {
          "name": "E7",
          "midi": 100,
          "time": 130.4497375000009,
          "velocity": 0.7874015748031497,
          "duration": 0.0007375000000138243
        },
        {
          "name": "E4",
          "midi": 64,
          "time": 130.62600000000091,
          "velocity": 0.7874015748031497,
          "duration": 0.0007375000000138243
        },
        {
          "name": "C5",
          "midi": 72,
          "time": 130.62600000000091,
          "velocity": 0.7874015748031497,
          "duration": 0.0007375000000138243
        },
        {
          "name": "E5",
          "midi": 76,
          "time": 130.62600000000091,
          "velocity": 0.7874015748031497,
          "duration": 0.0007375000000138243
        },
        {
          "name": "C6",
          "midi": 84,
          "time": 130.62600000000091,
          "velocity": 0.7874015748031497,
          "duration": 0.0007375000000138243
        },
        {
          "name": "E6",
          "midi": 88,
          "time": 130.62600000000091,
          "velocity": 0.7874015748031497,
          "duration": 0.0007375000000138243
        },
        {
          "name": "C7",
          "midi": 96,
          "time": 130.62600000000091,
          "velocity": 0.7874015748031497,
          "duration": 0.0007375000000138243
        },
        {
          "name": "E7",
          "midi": 100,
          "time": 130.62600000000091,
          "velocity": 0.7874015748031497,
          "duration": 0.0007375000000138243
        },
        {
          "name": "E7",
          "midi": 100,
          "time": 130.80373750000092,
          "velocity": 0.7874015748031497,
          "duration": 0.0007375000000138243
        },
        {
          "name": "C#4",
          "midi": 61,
          "time": 130.98000000000093,
          "velocity": 0.7874015748031497,
          "duration": 0.0007375000000138243
        },
        {
          "name": "C#5",
          "midi": 73,
          "time": 130.98000000000093,
          "velocity": 0.7874015748031497,
          "duration": 0.0007375000000138243
        },
        {
          "name": "E5",
          "midi": 76,
          "time": 130.98000000000093,
          "velocity": 0.7874015748031497,
          "duration": 0.0007375000000138243
        },
        {
          "name": "C#6",
          "midi": 85,
          "time": 130.98000000000093,
          "velocity": 0.7874015748031497,
          "duration": 0.0007375000000138243
        },
        {
          "name": "E6",
          "midi": 88,
          "time": 130.98000000000093,
          "velocity": 0.7874015748031497,
          "duration": 0.0007375000000138243
        },
        {
          "name": "C#7",
          "midi": 97,
          "time": 130.98000000000093,
          "velocity": 0.7874015748031497,
          "duration": 0.0007375000000138243
        },
        {
          "name": "E7",
          "midi": 100,
          "time": 130.98000000000093,
          "velocity": 0.7874015748031497,
          "duration": 0.0007375000000138243
        },
        {
          "name": "E7",
          "midi": 100,
          "time": 131.15773750000093,
          "velocity": 0.7874015748031497,
          "duration": 0.0007375000000138243
        },
        {
          "name": "E4",
          "midi": 64,
          "time": 131.33400000000094,
          "velocity": 0.7874015748031497,
          "duration": 0.0007375000000138243
        },
        {
          "name": "E5",
          "midi": 76,
          "time": 131.33400000000094,
          "velocity": 0.7874015748031497,
          "duration": 0.0007375000000138243
        },
        {
          "name": "C6",
          "midi": 84,
          "time": 131.33400000000094,
          "velocity": 0.7874015748031497,
          "duration": 0.0007375000000138243
        },
        {
          "name": "E6",
          "midi": 88,
          "time": 131.33400000000094,
          "velocity": 0.7874015748031497,
          "duration": 0.0007375000000138243
        },
        {
          "name": "C7",
          "midi": 96,
          "time": 131.33400000000094,
          "velocity": 0.7874015748031497,
          "duration": 0.0007375000000138243
        },
        {
          "name": "E7",
          "midi": 100,
          "time": 131.33400000000094,
          "velocity": 0.7874015748031497,
          "duration": 0.0007375000000138243
        },
        {
          "name": "E7",
          "midi": 100,
          "time": 131.51100000000096,
          "velocity": 0.7874015748031497,
          "duration": 0.0007375000000138243
        },
        {
          "name": "E4",
          "midi": 64,
          "time": 131.68800000000098,
          "velocity": 0.7874015748031497,
          "duration": 0.0007375000000138243
        },
        {
          "name": "C5",
          "midi": 72,
          "time": 131.68800000000098,
          "velocity": 0.7874015748031497,
          "duration": 0.0007375000000138243
        },
        {
          "name": "E5",
          "midi": 76,
          "time": 131.68800000000098,
          "velocity": 0.7874015748031497,
          "duration": 0.0007375000000138243
        },
        {
          "name": "C6",
          "midi": 84,
          "time": 131.68800000000098,
          "velocity": 0.7874015748031497,
          "duration": 0.0007375000000138243
        },
        {
          "name": "E6",
          "midi": 88,
          "time": 131.68800000000098,
          "velocity": 0.7874015748031497,
          "duration": 0.0007375000000138243
        },
        {
          "name": "C7",
          "midi": 96,
          "time": 131.68800000000098,
          "velocity": 0.7874015748031497,
          "duration": 0.0007375000000138243
        },
        {
          "name": "E7",
          "midi": 100,
          "time": 131.68800000000098,
          "velocity": 0.7874015748031497,
          "duration": 0.0007375000000138243
        },
        {
          "name": "E7",
          "midi": 100,
          "time": 131.864262500001,
          "velocity": 0.7874015748031497,
          "duration": 0.0007375000000138243
        },
        {
          "name": "C#4",
          "midi": 61,
          "time": 132.042000000001,
          "velocity": 0.7874015748031497,
          "duration": 0.0007375000000138243
        },
        {
          "name": "C#5",
          "midi": 73,
          "time": 132.042000000001,
          "velocity": 0.7874015748031497,
          "duration": 0.0007375000000138243
        },
        {
          "name": "C#6",
          "midi": 85,
          "time": 132.042000000001,
          "velocity": 0.7874015748031497,
          "duration": 0.0007375000000138243
        },
        {
          "name": "C#7",
          "midi": 97,
          "time": 132.042000000001,
          "velocity": 0.7874015748031497,
          "duration": 0.0007375000000138243
        },
        {
          "name": "C#6",
          "midi": 85,
          "time": 132.12976250000102,
          "velocity": 0.7874015748031497,
          "duration": 0.0007375000000138243
        },
        {
          "name": "C#7",
          "midi": 97,
          "time": 132.12976250000102,
          "velocity": 0.7874015748031497,
          "duration": 0.0007375000000138243
        },
        {
          "name": "C#4",
          "midi": 61,
          "time": 132.21900000000105,
          "velocity": 0.7874015748031497,
          "duration": 0.0007375000000138243
        },
        {
          "name": "C#5",
          "midi": 73,
          "time": 132.21900000000105,
          "velocity": 0.7874015748031497,
          "duration": 0.0007375000000138243
        },
        {
          "name": "C#6",
          "midi": 85,
          "time": 132.21900000000105,
          "velocity": 0.7874015748031497,
          "duration": 0.0007375000000138243
        },
        {
          "name": "C#7",
          "midi": 97,
          "time": 132.21900000000105,
          "velocity": 0.7874015748031497,
          "duration": 0.0007375000000138243
        },
        {
          "name": "C#4",
          "midi": 61,
          "time": 132.39600000000107,
          "velocity": 0.7874015748031497,
          "duration": 0.0007375000000138243
        },
        {
          "name": "C#5",
          "midi": 73,
          "time": 132.39600000000107,
          "velocity": 0.7874015748031497,
          "duration": 0.0007375000000138243
        },
        {
          "name": "C#6",
          "midi": 85,
          "time": 132.39600000000107,
          "velocity": 0.7874015748031497,
          "duration": 0.0007375000000138243
        },
        {
          "name": "C#7",
          "midi": 97,
          "time": 132.39600000000107,
          "velocity": 0.7874015748031497,
          "duration": 0.0007375000000138243
        },
        {
          "name": "D4",
          "midi": 62,
          "time": 132.57373750000107,
          "velocity": 0.7874015748031497,
          "duration": 0.0007375000000138243
        },
        {
          "name": "C5",
          "midi": 72,
          "time": 132.57373750000107,
          "velocity": 0.7874015748031497,
          "duration": 0.0007375000000138243
        },
        {
          "name": "D5",
          "midi": 74,
          "time": 132.57373750000107,
          "velocity": 0.7874015748031497,
          "duration": 0.0007375000000138243
        },
        {
          "name": "C6",
          "midi": 84,
          "time": 132.57373750000107,
          "velocity": 0.7874015748031497,
          "duration": 0.0007375000000138243
        },
        {
          "name": "D6",
          "midi": 86,
          "time": 132.57373750000107,
          "velocity": 0.7874015748031497,
          "duration": 0.0007375000000138243
        },
        {
          "name": "C7",
          "midi": 96,
          "time": 132.57373750000107,
          "velocity": 0.7874015748031497,
          "duration": 0.0007375000000138243
        },
        {
          "name": "E7",
          "midi": 100,
          "time": 132.57373750000107,
          "velocity": 0.7874015748031497,
          "duration": 0.0007375000000138243
        },
        {
          "name": "D4",
          "midi": 62,
          "time": 133.1040000000011,
          "velocity": 0.7874015748031497,
          "duration": 0.0007375000000138243
        },
        {
          "name": "C5",
          "midi": 72,
          "time": 133.1040000000011,
          "velocity": 0.7874015748031497,
          "duration": 0.0007375000000138243
        },
        {
          "name": "D5",
          "midi": 74,
          "time": 133.1040000000011,
          "velocity": 0.7874015748031497,
          "duration": 0.0007375000000138243
        },
        {
          "name": "C6",
          "midi": 84,
          "time": 133.1040000000011,
          "velocity": 0.7874015748031497,
          "duration": 0.0007375000000138243
        },
        {
          "name": "D6",
          "midi": 86,
          "time": 133.1040000000011,
          "velocity": 0.7874015748031497,
          "duration": 0.0007375000000138243
        },
        {
          "name": "C7",
          "midi": 96,
          "time": 133.1040000000011,
          "velocity": 0.7874015748031497,
          "duration": 0.0007375000000138243
        },
        {
          "name": "D7",
          "midi": 98,
          "time": 133.1040000000011,
          "velocity": 0.7874015748031497,
          "duration": 0.0007375000000138243
        },
        {
          "name": "D4",
          "midi": 62,
          "time": 133.81200000000112,
          "velocity": 0.7874015748031497,
          "duration": 0.0007375000000138243
        },
        {
          "name": "C5",
          "midi": 72,
          "time": 133.81200000000112,
          "velocity": 0.7874015748031497,
          "duration": 0.0007375000000138243
        },
        {
          "name": "D5",
          "midi": 74,
          "time": 133.81200000000112,
          "velocity": 0.7874015748031497,
          "duration": 0.0007375000000138243
        },
        {
          "name": "C6",
          "midi": 84,
          "time": 133.81200000000112,
          "velocity": 0.7874015748031497,
          "duration": 0.0007375000000138243
        },
        {
          "name": "D6",
          "midi": 86,
          "time": 133.81200000000112,
          "velocity": 0.7874015748031497,
          "duration": 0.0007375000000138243
        },
        {
          "name": "C7",
          "midi": 96,
          "time": 133.81200000000112,
          "velocity": 0.7874015748031497,
          "duration": 0.0007375000000138243
        },
        {
          "name": "E7",
          "midi": 100,
          "time": 133.81200000000112,
          "velocity": 0.7874015748031497,
          "duration": 0.0007375000000138243
        },
        {
          "name": "D4",
          "midi": 62,
          "time": 134.52000000000115,
          "velocity": 0.7874015748031497,
          "duration": 0.0007375000000138243
        },
        {
          "name": "C5",
          "midi": 72,
          "time": 134.52000000000115,
          "velocity": 0.7874015748031497,
          "duration": 0.0007375000000138243
        },
        {
          "name": "D5",
          "midi": 74,
          "time": 134.52000000000115,
          "velocity": 0.7874015748031497,
          "duration": 0.0007375000000138243
        },
        {
          "name": "C6",
          "midi": 84,
          "time": 134.52000000000115,
          "velocity": 0.7874015748031497,
          "duration": 0.0007375000000138243
        },
        {
          "name": "D6",
          "midi": 86,
          "time": 134.52000000000115,
          "velocity": 0.7874015748031497,
          "duration": 0.0007375000000138243
        },
        {
          "name": "C7",
          "midi": 96,
          "time": 134.52000000000115,
          "velocity": 0.7874015748031497,
          "duration": 0.0007375000000138243
        },
        {
          "name": "D7",
          "midi": 98,
          "time": 134.52000000000115,
          "velocity": 0.7874015748031497,
          "duration": 0.0007375000000138243
        },
        {
          "name": "E4",
          "midi": 64,
          "time": 134.87400000000116,
          "velocity": 0.7874015748031497,
          "duration": 0.0007375000000138243
        },
        {
          "name": "E5",
          "midi": 76,
          "time": 134.87400000000116,
          "velocity": 0.7874015748031497,
          "duration": 0.0007375000000138243
        },
        {
          "name": "C6",
          "midi": 84,
          "time": 134.87400000000116,
          "velocity": 0.7874015748031497,
          "duration": 0.0007375000000138243
        },
        {
          "name": "E6",
          "midi": 88,
          "time": 134.87400000000116,
          "velocity": 0.7874015748031497,
          "duration": 0.0007375000000138243
        },
        {
          "name": "C7",
          "midi": 96,
          "time": 134.87400000000116,
          "velocity": 0.7874015748031497,
          "duration": 0.0007375000000138243
        },
        {
          "name": "E7",
          "midi": 100,
          "time": 134.87400000000116,
          "velocity": 0.7874015748031497,
          "duration": 0.0007375000000138243
        },
        {
          "name": "C#4",
          "midi": 61,
          "time": 135.22800000000117,
          "velocity": 0.7874015748031497,
          "duration": 0.0007375000000138243
        },
        {
          "name": "C#5",
          "midi": 73,
          "time": 135.22800000000117,
          "velocity": 0.7874015748031497,
          "duration": 0.0007375000000138243
        },
        {
          "name": "E5",
          "midi": 76,
          "time": 135.22800000000117,
          "velocity": 0.7874015748031497,
          "duration": 0.0007375000000138243
        },
        {
          "name": "C#6",
          "midi": 85,
          "time": 135.22800000000117,
          "velocity": 0.7874015748031497,
          "duration": 0.0007375000000138243
        },
        {
          "name": "E6",
          "midi": 88,
          "time": 135.22800000000117,
          "velocity": 0.7874015748031497,
          "duration": 0.0007375000000138243
        },
        {
          "name": "C#7",
          "midi": 97,
          "time": 135.22800000000117,
          "velocity": 0.7874015748031497,
          "duration": 0.0007375000000138243
        },
        {
          "name": "E7",
          "midi": 100,
          "time": 135.22800000000117,
          "velocity": 0.7874015748031497,
          "duration": 0.0007375000000138243
        },
        {
          "name": "E7",
          "midi": 100,
          "time": 135.40573750000118,
          "velocity": 0.7874015748031497,
          "duration": 0.0007375000000138243
        },
        {
          "name": "E4",
          "midi": 64,
          "time": 135.5820000000012,
          "velocity": 0.7874015748031497,
          "duration": 0.0007375000000138243
        },
        {
          "name": "E5",
          "midi": 76,
          "time": 135.5820000000012,
          "velocity": 0.7874015748031497,
          "duration": 0.0007375000000138243
        },
        {
          "name": "E6",
          "midi": 88,
          "time": 135.5820000000012,
          "velocity": 0.7874015748031497,
          "duration": 0.0007375000000138243
        },
        {
          "name": "E7",
          "midi": 100,
          "time": 135.5820000000012,
          "velocity": 0.7874015748031497,
          "duration": 0.0007375000000138243
        },
        {
          "name": "C6",
          "midi": 84,
          "time": 135.7590000000012,
          "velocity": 0.7874015748031497,
          "duration": 0.0007375000000138243
        },
        {
          "name": "C7",
          "midi": 96,
          "time": 135.7590000000012,
          "velocity": 0.7874015748031497,
          "duration": 0.0007375000000138243
        },
        {
          "name": "E7",
          "midi": 100,
          "time": 135.7590000000012,
          "velocity": 0.7874015748031497,
          "duration": 0.0007375000000138243
        },
        {
          "name": "E4",
          "midi": 64,
          "time": 135.93600000000123,
          "velocity": 0.7874015748031497,
          "duration": 0.0007375000000138243
        },
        {
          "name": "E5",
          "midi": 76,
          "time": 135.93600000000123,
          "velocity": 0.7874015748031497,
          "duration": 0.0007375000000138243
        },
        {
          "name": "E6",
          "midi": 88,
          "time": 135.93600000000123,
          "velocity": 0.7874015748031497,
          "duration": 0.0007375000000138243
        },
        {
          "name": "E7",
          "midi": 100,
          "time": 135.93600000000123,
          "velocity": 0.7874015748031497,
          "duration": 0.0007375000000138243
        },
        {
          "name": "E7",
          "midi": 100,
          "time": 136.11226250000124,
          "velocity": 0.7874015748031497,
          "duration": 0.0007375000000138243
        },
        {
          "name": "E4",
          "midi": 64,
          "time": 136.29000000000124,
          "velocity": 0.7874015748031497,
          "duration": 0.0007375000000138243
        },
        {
          "name": "C5",
          "midi": 72,
          "time": 136.29000000000124,
          "velocity": 0.7874015748031497,
          "duration": 0.0007375000000138243
        },
        {
          "name": "E5",
          "midi": 76,
          "time": 136.29000000000124,
          "velocity": 0.7874015748031497,
          "duration": 0.0007375000000138243
        },
        {
          "name": "C6",
          "midi": 84,
          "time": 136.29000000000124,
          "velocity": 0.7874015748031497,
          "duration": 0.0007375000000138243
        },
        {
          "name": "E6",
          "midi": 88,
          "time": 136.29000000000124,
          "velocity": 0.7874015748031497,
          "duration": 0.0007375000000138243
        },
        {
          "name": "C7",
          "midi": 96,
          "time": 136.29000000000124,
          "velocity": 0.7874015748031497,
          "duration": 0.0007375000000138243
        },
        {
          "name": "E7",
          "midi": 100,
          "time": 136.29000000000124,
          "velocity": 0.7874015748031497,
          "duration": 0.0007375000000138243
        },
        {
          "name": "E7",
          "midi": 100,
          "time": 136.46626250000125,
          "velocity": 0.7874015748031497,
          "duration": 0.0007375000000138243
        },
        {
          "name": "C#4",
          "midi": 61,
          "time": 136.64400000000126,
          "velocity": 0.7874015748031497,
          "duration": 0.0007375000000138243
        },
        {
          "name": "C#5",
          "midi": 73,
          "time": 136.64400000000126,
          "velocity": 0.7874015748031497,
          "duration": 0.0007375000000138243
        },
        {
          "name": "E5",
          "midi": 76,
          "time": 136.64400000000126,
          "velocity": 0.7874015748031497,
          "duration": 0.0007375000000138243
        },
        {
          "name": "C#6",
          "midi": 85,
          "time": 136.64400000000126,
          "velocity": 0.7874015748031497,
          "duration": 0.0007375000000138243
        },
        {
          "name": "E6",
          "midi": 88,
          "time": 136.64400000000126,
          "velocity": 0.7874015748031497,
          "duration": 0.0007375000000138243
        },
        {
          "name": "C#7",
          "midi": 97,
          "time": 136.64400000000126,
          "velocity": 0.7874015748031497,
          "duration": 0.0007375000000138243
        },
        {
          "name": "E7",
          "midi": 100,
          "time": 136.64400000000126,
          "velocity": 0.7874015748031497,
          "duration": 0.0007375000000138243
        },
        {
          "name": "E7",
          "midi": 100,
          "time": 136.82100000000128,
          "velocity": 0.7874015748031497,
          "duration": 0.0007375000000138243
        },
        {
          "name": "E4",
          "midi": 64,
          "time": 136.9980000000013,
          "velocity": 0.7874015748031497,
          "duration": 0.0007375000000138243
        },
        {
          "name": "E5",
          "midi": 76,
          "time": 136.9980000000013,
          "velocity": 0.7874015748031497,
          "duration": 0.0007375000000138243
        },
        {
          "name": "C6",
          "midi": 84,
          "time": 136.9980000000013,
          "velocity": 0.7874015748031497,
          "duration": 0.0007375000000138243
        },
        {
          "name": "E6",
          "midi": 88,
          "time": 136.9980000000013,
          "velocity": 0.7874015748031497,
          "duration": 0.0007375000000138243
        },
        {
          "name": "C7",
          "midi": 96,
          "time": 136.9980000000013,
          "velocity": 0.7874015748031497,
          "duration": 0.0007375000000138243
        },
        {
          "name": "E7",
          "midi": 100,
          "time": 136.9980000000013,
          "velocity": 0.7874015748031497,
          "duration": 0.0007375000000138243
        },
        {
          "name": "E7",
          "midi": 100,
          "time": 137.1757375000013,
          "velocity": 0.7874015748031497,
          "duration": 0.0007375000000138243
        },
        {
          "name": "E4",
          "midi": 64,
          "time": 137.3520000000013,
          "velocity": 0.7874015748031497,
          "duration": 0.0007375000000138243
        },
        {
          "name": "C5",
          "midi": 72,
          "time": 137.3520000000013,
          "velocity": 0.7874015748031497,
          "duration": 0.0007375000000138243
        },
        {
          "name": "E5",
          "midi": 76,
          "time": 137.3520000000013,
          "velocity": 0.7874015748031497,
          "duration": 0.0007375000000138243
        },
        {
          "name": "C6",
          "midi": 84,
          "time": 137.3520000000013,
          "velocity": 0.7874015748031497,
          "duration": 0.0007375000000138243
        },
        {
          "name": "E6",
          "midi": 88,
          "time": 137.3520000000013,
          "velocity": 0.7874015748031497,
          "duration": 0.0007375000000138243
        },
        {
          "name": "C7",
          "midi": 96,
          "time": 137.3520000000013,
          "velocity": 0.7874015748031497,
          "duration": 0.0007375000000138243
        },
        {
          "name": "E7",
          "midi": 100,
          "time": 137.3520000000013,
          "velocity": 0.7874015748031497,
          "duration": 0.0007375000000138243
        },
        {
          "name": "E7",
          "midi": 100,
          "time": 137.52900000000133,
          "velocity": 0.7874015748031497,
          "duration": 0.0007375000000138243
        },
        {
          "name": "C#4",
          "midi": 61,
          "time": 137.70600000000135,
          "velocity": 0.7874015748031497,
          "duration": 0.0007375000000138243
        },
        {
          "name": "C#5",
          "midi": 73,
          "time": 137.70600000000135,
          "velocity": 0.7874015748031497,
          "duration": 0.0007375000000138243
        },
        {
          "name": "E5",
          "midi": 76,
          "time": 137.70600000000135,
          "velocity": 0.7874015748031497,
          "duration": 0.0007375000000138243
        },
        {
          "name": "C#6",
          "midi": 85,
          "time": 137.70600000000135,
          "velocity": 0.7874015748031497,
          "duration": 0.0007375000000138243
        },
        {
          "name": "E6",
          "midi": 88,
          "time": 137.70600000000135,
          "velocity": 0.7874015748031497,
          "duration": 0.0007375000000138243
        },
        {
          "name": "C#7",
          "midi": 97,
          "time": 137.70600000000135,
          "velocity": 0.7874015748031497,
          "duration": 0.0007375000000138243
        },
        {
          "name": "E7",
          "midi": 100,
          "time": 137.70600000000135,
          "velocity": 0.7874015748031497,
          "duration": 0.0007375000000138243
        },
        {
          "name": "E7",
          "midi": 100,
          "time": 137.88300000000137,
          "velocity": 0.7874015748031497,
          "duration": 0.0007375000000138243
        },
        {
          "name": "C#4",
          "midi": 61,
          "time": 138.0600000000014,
          "velocity": 0.7874015748031497,
          "duration": 0.0007375000000138243
        },
        {
          "name": "C#5",
          "midi": 73,
          "time": 138.0600000000014,
          "velocity": 0.7874015748031497,
          "duration": 0.0007375000000138243
        },
        {
          "name": "E5",
          "midi": 76,
          "time": 138.0600000000014,
          "velocity": 0.7874015748031497,
          "duration": 0.0007375000000138243
        },
        {
          "name": "C#6",
          "midi": 85,
          "time": 138.0600000000014,
          "velocity": 0.7874015748031497,
          "duration": 0.0007375000000138243
        },
        {
          "name": "E6",
          "midi": 88,
          "time": 138.0600000000014,
          "velocity": 0.7874015748031497,
          "duration": 0.0007375000000138243
        },
        {
          "name": "C#7",
          "midi": 97,
          "time": 138.0600000000014,
          "velocity": 0.7874015748031497,
          "duration": 0.0007375000000138243
        },
        {
          "name": "E7",
          "midi": 100,
          "time": 138.0600000000014,
          "velocity": 0.7874015748031497,
          "duration": 0.0007375000000138243
        },
        {
          "name": "C6",
          "midi": 84,
          "time": 138.23700000000142,
          "velocity": 0.7874015748031497,
          "duration": 0.0007375000000138243
        },
        {
          "name": "C7",
          "midi": 96,
          "time": 138.23700000000142,
          "velocity": 0.7874015748031497,
          "duration": 0.0007375000000138243
        },
        {
          "name": "E7",
          "midi": 100,
          "time": 138.23700000000142,
          "velocity": 0.7874015748031497,
          "duration": 0.0007375000000138243
        },
        {
          "name": "E4",
          "midi": 64,
          "time": 138.41400000000144,
          "velocity": 0.7874015748031497,
          "duration": 0.0007375000000138243
        },
        {
          "name": "E5",
          "midi": 76,
          "time": 138.41400000000144,
          "velocity": 0.7874015748031497,
          "duration": 0.0007375000000138243
        },
        {
          "name": "E6",
          "midi": 88,
          "time": 138.41400000000144,
          "velocity": 0.7874015748031497,
          "duration": 0.0007375000000138243
        },
        {
          "name": "E7",
          "midi": 100,
          "time": 138.41400000000144,
          "velocity": 0.7874015748031497,
          "duration": 0.0007375000000138243
        },
        {
          "name": "E7",
          "midi": 100,
          "time": 138.59173750000144,
          "velocity": 0.7874015748031497,
          "duration": 0.0007375000000138243
        },
        {
          "name": "E4",
          "midi": 64,
          "time": 138.76800000000145,
          "velocity": 0.7874015748031497,
          "duration": 0.0007375000000138243
        },
        {
          "name": "C5",
          "midi": 72,
          "time": 138.76800000000145,
          "velocity": 0.7874015748031497,
          "duration": 0.0007375000000138243
        },
        {
          "name": "E5",
          "midi": 76,
          "time": 138.76800000000145,
          "velocity": 0.7874015748031497,
          "duration": 0.0007375000000138243
        },
        {
          "name": "C6",
          "midi": 84,
          "time": 138.76800000000145,
          "velocity": 0.7874015748031497,
          "duration": 0.0007375000000138243
        },
        {
          "name": "E6",
          "midi": 88,
          "time": 138.76800000000145,
          "velocity": 0.7874015748031497,
          "duration": 0.0007375000000138243
        },
        {
          "name": "C7",
          "midi": 96,
          "time": 138.76800000000145,
          "velocity": 0.7874015748031497,
          "duration": 0.0007375000000138243
        },
        {
          "name": "E7",
          "midi": 100,
          "time": 138.76800000000145,
          "velocity": 0.7874015748031497,
          "duration": 0.0007375000000138243
        },
        {
          "name": "E7",
          "midi": 100,
          "time": 138.94500000000147,
          "velocity": 0.7874015748031497,
          "duration": 0.0007375000000138243
        },
        {
          "name": "C#4",
          "midi": 61,
          "time": 139.1220000000015,
          "velocity": 0.7874015748031497,
          "duration": 0.0007375000000138243
        },
        {
          "name": "C#5",
          "midi": 73,
          "time": 139.1220000000015,
          "velocity": 0.7874015748031497,
          "duration": 0.0007375000000138243
        },
        {
          "name": "E5",
          "midi": 76,
          "time": 139.1220000000015,
          "velocity": 0.7874015748031497,
          "duration": 0.0007375000000138243
        },
        {
          "name": "C#6",
          "midi": 85,
          "time": 139.1220000000015,
          "velocity": 0.7874015748031497,
          "duration": 0.0007375000000138243
        },
        {
          "name": "E6",
          "midi": 88,
          "time": 139.1220000000015,
          "velocity": 0.7874015748031497,
          "duration": 0.0007375000000138243
        },
        {
          "name": "C#7",
          "midi": 97,
          "time": 139.1220000000015,
          "velocity": 0.7874015748031497,
          "duration": 0.0007375000000138243
        },
        {
          "name": "E7",
          "midi": 100,
          "time": 139.1220000000015,
          "velocity": 0.7874015748031497,
          "duration": 0.0007375000000138243
        },
        {
          "name": "E7",
          "midi": 100,
          "time": 139.2982625000015,
          "velocity": 0.7874015748031497,
          "duration": 0.0007375000000138243
        },
        {
          "name": "E4",
          "midi": 64,
          "time": 139.4760000000015,
          "velocity": 0.7874015748031497,
          "duration": 0.0007375000000138243
        },
        {
          "name": "C5",
          "midi": 72,
          "time": 139.4760000000015,
          "velocity": 0.7874015748031497,
          "duration": 0.0007375000000138243
        },
        {
          "name": "E5",
          "midi": 76,
          "time": 139.4760000000015,
          "velocity": 0.7874015748031497,
          "duration": 0.0007375000000138243
        },
        {
          "name": "C6",
          "midi": 84,
          "time": 139.4760000000015,
          "velocity": 0.7874015748031497,
          "duration": 0.0007375000000138243
        },
        {
          "name": "E6",
          "midi": 88,
          "time": 139.4760000000015,
          "velocity": 0.7874015748031497,
          "duration": 0.0007375000000138243
        },
        {
          "name": "C7",
          "midi": 96,
          "time": 139.4760000000015,
          "velocity": 0.7874015748031497,
          "duration": 0.0007375000000138243
        },
        {
          "name": "E7",
          "midi": 100,
          "time": 139.4760000000015,
          "velocity": 0.7874015748031497,
          "duration": 0.0007375000000138243
        },
        {
          "name": "E7",
          "midi": 100,
          "time": 139.65300000000153,
          "velocity": 0.7874015748031497,
          "duration": 0.0007375000000138243
        },
        {
          "name": "C7",
          "midi": 96,
          "time": 139.74076250000155,
          "velocity": 0.7874015748031497,
          "duration": 0.0007375000000138243
        },
        {
          "name": "C#4",
          "midi": 61,
          "time": 139.83000000000158,
          "velocity": 0.7874015748031497,
          "duration": 0.0007375000000138243
        },
        {
          "name": "C#5",
          "midi": 73,
          "time": 139.83000000000158,
          "velocity": 0.7874015748031497,
          "duration": 0.0007375000000138243
        },
        {
          "name": "E5",
          "midi": 76,
          "time": 139.83000000000158,
          "velocity": 0.7874015748031497,
          "duration": 0.0007375000000138243
        },
        {
          "name": "C#6",
          "midi": 85,
          "time": 139.83000000000158,
          "velocity": 0.7874015748031497,
          "duration": 0.0007375000000138243
        },
        {
          "name": "E6",
          "midi": 88,
          "time": 139.83000000000158,
          "velocity": 0.7874015748031497,
          "duration": 0.0007375000000138243
        },
        {
          "name": "C#7",
          "midi": 97,
          "time": 139.83000000000158,
          "velocity": 0.7874015748031497,
          "duration": 0.0007375000000138243
        },
        {
          "name": "E7",
          "midi": 100,
          "time": 139.83000000000158,
          "velocity": 0.7874015748031497,
          "duration": 0.0007375000000138243
        },
        {
          "name": "E7",
          "midi": 100,
          "time": 140.00773750000158,
          "velocity": 0.7874015748031497,
          "duration": 0.0007375000000138243
        },
        {
          "name": "E4",
          "midi": 64,
          "time": 140.1840000000016,
          "velocity": 0.7874015748031497,
          "duration": 0.0007375000000138243
        },
        {
          "name": "C5",
          "midi": 72,
          "time": 140.1840000000016,
          "velocity": 0.7874015748031497,
          "duration": 0.0007375000000138243
        },
        {
          "name": "E5",
          "midi": 76,
          "time": 140.1840000000016,
          "velocity": 0.7874015748031497,
          "duration": 0.0007375000000138243
        },
        {
          "name": "C6",
          "midi": 84,
          "time": 140.1840000000016,
          "velocity": 0.7874015748031497,
          "duration": 0.0007375000000138243
        },
        {
          "name": "E6",
          "midi": 88,
          "time": 140.1840000000016,
          "velocity": 0.7874015748031497,
          "duration": 0.0007375000000138243
        },
        {
          "name": "C7",
          "midi": 96,
          "time": 140.1840000000016,
          "velocity": 0.7874015748031497,
          "duration": 0.0007375000000138243
        },
        {
          "name": "E7",
          "midi": 100,
          "time": 140.1840000000016,
          "velocity": 0.7874015748031497,
          "duration": 0.0007375000000138243
        },
        {
          "name": "E7",
          "midi": 100,
          "time": 140.3610000000016,
          "velocity": 0.7874015748031497,
          "duration": 0.0007375000000138243
        },
        {
          "name": "C7",
          "midi": 96,
          "time": 140.44876250000164,
          "velocity": 0.7874015748031497,
          "duration": 0.0007375000000138243
        },
        {
          "name": "C#4",
          "midi": 61,
          "time": 140.53800000000166,
          "velocity": 0.7874015748031497,
          "duration": 0.0007375000000138243
        },
        {
          "name": "C#5",
          "midi": 73,
          "time": 140.53800000000166,
          "velocity": 0.7874015748031497,
          "duration": 0.0007375000000138243
        },
        {
          "name": "E5",
          "midi": 76,
          "time": 140.53800000000166,
          "velocity": 0.7874015748031497,
          "duration": 0.0007375000000138243
        },
        {
          "name": "C#6",
          "midi": 85,
          "time": 140.53800000000166,
          "velocity": 0.7874015748031497,
          "duration": 0.0007375000000138243
        },
        {
          "name": "E6",
          "midi": 88,
          "time": 140.53800000000166,
          "velocity": 0.7874015748031497,
          "duration": 0.0007375000000138243
        },
        {
          "name": "C#7",
          "midi": 97,
          "time": 140.53800000000166,
          "velocity": 0.7874015748031497,
          "duration": 0.0007375000000138243
        },
        {
          "name": "E7",
          "midi": 100,
          "time": 140.53800000000166,
          "velocity": 0.7874015748031497,
          "duration": 0.0007375000000138243
        },
        {
          "name": "C6",
          "midi": 84,
          "time": 140.71573750000167,
          "velocity": 0.7874015748031497,
          "duration": 0.0007375000000138243
        },
        {
          "name": "C7",
          "midi": 96,
          "time": 140.71573750000167,
          "velocity": 0.7874015748031497,
          "duration": 0.0007375000000138243
        },
        {
          "name": "E7",
          "midi": 100,
          "time": 140.71573750000167,
          "velocity": 0.7874015748031497,
          "duration": 0.0007375000000138243
        },
        {
          "name": "E4",
          "midi": 64,
          "time": 140.89200000000167,
          "velocity": 0.7874015748031497,
          "duration": 0.0007375000000138243
        },
        {
          "name": "E5",
          "midi": 76,
          "time": 140.89200000000167,
          "velocity": 0.7874015748031497,
          "duration": 0.0007375000000138243
        },
        {
          "name": "E6",
          "midi": 88,
          "time": 140.89200000000167,
          "velocity": 0.7874015748031497,
          "duration": 0.0007375000000138243
        },
        {
          "name": "E7",
          "midi": 100,
          "time": 140.89200000000167,
          "velocity": 0.7874015748031497,
          "duration": 0.0007375000000138243
        },
        {
          "name": "E7",
          "midi": 100,
          "time": 141.0690000000017,
          "velocity": 0.7874015748031497,
          "duration": 0.0007375000000138243
        },
        {
          "name": "E4",
          "midi": 64,
          "time": 141.24600000000171,
          "velocity": 0.7874015748031497,
          "duration": 0.0007375000000138243
        },
        {
          "name": "C5",
          "midi": 72,
          "time": 141.24600000000171,
          "velocity": 0.7874015748031497,
          "duration": 0.0007375000000138243
        },
        {
          "name": "E5",
          "midi": 76,
          "time": 141.24600000000171,
          "velocity": 0.7874015748031497,
          "duration": 0.0007375000000138243
        },
        {
          "name": "C6",
          "midi": 84,
          "time": 141.24600000000171,
          "velocity": 0.7874015748031497,
          "duration": 0.0007375000000138243
        },
        {
          "name": "E6",
          "midi": 88,
          "time": 141.24600000000171,
          "velocity": 0.7874015748031497,
          "duration": 0.0007375000000138243
        },
        {
          "name": "C7",
          "midi": 96,
          "time": 141.24600000000171,
          "velocity": 0.7874015748031497,
          "duration": 0.0007375000000138243
        },
        {
          "name": "E7",
          "midi": 100,
          "time": 141.24600000000171,
          "velocity": 0.7874015748031497,
          "duration": 0.0007375000000138243
        },
        {
          "name": "E7",
          "midi": 100,
          "time": 141.42373750000172,
          "velocity": 0.7874015748031497,
          "duration": 0.0007375000000138243
        },
        {
          "name": "C#4",
          "midi": 61,
          "time": 141.60000000000173,
          "velocity": 0.7874015748031497,
          "duration": 0.0007375000000138243
        },
        {
          "name": "C#5",
          "midi": 73,
          "time": 141.60000000000173,
          "velocity": 0.7874015748031497,
          "duration": 0.0007375000000138243
        },
        {
          "name": "E5",
          "midi": 76,
          "time": 141.60000000000173,
          "velocity": 0.7874015748031497,
          "duration": 0.0007375000000138243
        },
        {
          "name": "C#6",
          "midi": 85,
          "time": 141.60000000000173,
          "velocity": 0.7874015748031497,
          "duration": 0.0007375000000138243
        },
        {
          "name": "E6",
          "midi": 88,
          "time": 141.60000000000173,
          "velocity": 0.7874015748031497,
          "duration": 0.0007375000000138243
        },
        {
          "name": "C#7",
          "midi": 97,
          "time": 141.60000000000173,
          "velocity": 0.7874015748031497,
          "duration": 0.0007375000000138243
        },
        {
          "name": "E7",
          "midi": 100,
          "time": 141.60000000000173,
          "velocity": 0.7874015748031497,
          "duration": 0.0007375000000138243
        },
        {
          "name": "E7",
          "midi": 100,
          "time": 141.77773750000173,
          "velocity": 0.7874015748031497,
          "duration": 0.0007375000000138243
        },
        {
          "name": "E4",
          "midi": 64,
          "time": 141.95400000000174,
          "velocity": 0.7874015748031497,
          "duration": 0.0007375000000138243
        },
        {
          "name": "E5",
          "midi": 76,
          "time": 141.95400000000174,
          "velocity": 0.7874015748031497,
          "duration": 0.0007375000000138243
        },
        {
          "name": "C6",
          "midi": 84,
          "time": 141.95400000000174,
          "velocity": 0.7874015748031497,
          "duration": 0.0007375000000138243
        },
        {
          "name": "E6",
          "midi": 88,
          "time": 141.95400000000174,
          "velocity": 0.7874015748031497,
          "duration": 0.0007375000000138243
        },
        {
          "name": "C7",
          "midi": 96,
          "time": 141.95400000000174,
          "velocity": 0.7874015748031497,
          "duration": 0.0007375000000138243
        },
        {
          "name": "E7",
          "midi": 100,
          "time": 141.95400000000174,
          "velocity": 0.7874015748031497,
          "duration": 0.0007375000000138243
        },
        {
          "name": "E7",
          "midi": 100,
          "time": 142.13100000000176,
          "velocity": 0.7874015748031497,
          "duration": 0.0007375000000138243
        },
        {
          "name": "E4",
          "midi": 64,
          "time": 142.30800000000178,
          "velocity": 0.7874015748031497,
          "duration": 0.0007375000000138243
        },
        {
          "name": "C5",
          "midi": 72,
          "time": 142.30800000000178,
          "velocity": 0.7874015748031497,
          "duration": 0.0007375000000138243
        },
        {
          "name": "E5",
          "midi": 76,
          "time": 142.30800000000178,
          "velocity": 0.7874015748031497,
          "duration": 0.0007375000000138243
        },
        {
          "name": "C6",
          "midi": 84,
          "time": 142.30800000000178,
          "velocity": 0.7874015748031497,
          "duration": 0.0007375000000138243
        },
        {
          "name": "E6",
          "midi": 88,
          "time": 142.30800000000178,
          "velocity": 0.7874015748031497,
          "duration": 0.0007375000000138243
        },
        {
          "name": "C7",
          "midi": 96,
          "time": 142.30800000000178,
          "velocity": 0.7874015748031497,
          "duration": 0.0007375000000138243
        },
        {
          "name": "E7",
          "midi": 100,
          "time": 142.30800000000178,
          "velocity": 0.7874015748031497,
          "duration": 0.0007375000000138243
        },
        {
          "name": "E7",
          "midi": 100,
          "time": 142.4850000000018,
          "velocity": 0.7874015748031497,
          "duration": 0.0007375000000138243
        },
        {
          "name": "C#4",
          "midi": 61,
          "time": 142.66200000000183,
          "velocity": 0.7874015748031497,
          "duration": 0.0007375000000138243
        },
        {
          "name": "C#5",
          "midi": 73,
          "time": 142.66200000000183,
          "velocity": 0.7874015748031497,
          "duration": 0.0007375000000138243
        },
        {
          "name": "C#6",
          "midi": 85,
          "time": 142.66200000000183,
          "velocity": 0.7874015748031497,
          "duration": 0.0007375000000138243
        },
        {
          "name": "C#7",
          "midi": 97,
          "time": 142.66200000000183,
          "velocity": 0.7874015748031497,
          "duration": 0.0007375000000138243
        },
        {
          "name": "C#6",
          "midi": 85,
          "time": 142.75050000000184,
          "velocity": 0.7874015748031497,
          "duration": 0.0007375000000138243
        },
        {
          "name": "C#7",
          "midi": 97,
          "time": 142.75050000000184,
          "velocity": 0.7874015748031497,
          "duration": 0.0007375000000138243
        },
        {
          "name": "D#4",
          "midi": 63,
          "time": 142.83973750000186,
          "velocity": 0.7874015748031497,
          "duration": 0.0007375000000138243
        },
        {
          "name": "D#5",
          "midi": 75,
          "time": 142.83973750000186,
          "velocity": 0.7874015748031497,
          "duration": 0.0007375000000138243
        },
        {
          "name": "D#6",
          "midi": 87,
          "time": 142.83973750000186,
          "velocity": 0.7874015748031497,
          "duration": 0.0007375000000138243
        },
        {
          "name": "D#7",
          "midi": 99,
          "time": 142.83973750000186,
          "velocity": 0.7874015748031497,
          "duration": 0.0007375000000138243
        },
        {
          "name": "D#6",
          "midi": 87,
          "time": 142.92750000000188,
          "velocity": 0.7874015748031497,
          "duration": 0.0007375000000138243
        },
        {
          "name": "D#7",
          "midi": 99,
          "time": 142.92750000000188,
          "velocity": 0.7874015748031497,
          "duration": 0.0007375000000138243
        },
        {
          "name": "D#4",
          "midi": 63,
          "time": 143.0160000000019,
          "velocity": 0.7874015748031497,
          "duration": 0.0007375000000138243
        },
        {
          "name": "D#5",
          "midi": 75,
          "time": 143.0160000000019,
          "velocity": 0.7874015748031497,
          "duration": 0.0007375000000138243
        },
        {
          "name": "D#6",
          "midi": 87,
          "time": 143.0160000000019,
          "velocity": 0.7874015748031497,
          "duration": 0.0007375000000138243
        },
        {
          "name": "D#7",
          "midi": 99,
          "time": 143.0160000000019,
          "velocity": 0.7874015748031497,
          "duration": 0.0007375000000138243
        },
        {
          "name": "D#6",
          "midi": 87,
          "time": 143.1045000000019,
          "velocity": 0.7874015748031497,
          "duration": 0.0007375000000138243
        },
        {
          "name": "D#7",
          "midi": 99,
          "time": 143.1045000000019,
          "velocity": 0.7874015748031497,
          "duration": 0.0007375000000138243
        },
        {
          "name": "D4",
          "midi": 62,
          "time": 143.19300000000192,
          "velocity": 0.7874015748031497,
          "duration": 0.0007375000000138243
        },
        {
          "name": "C5",
          "midi": 72,
          "time": 143.19300000000192,
          "velocity": 0.7874015748031497,
          "duration": 0.0007375000000138243
        },
        {
          "name": "D5",
          "midi": 74,
          "time": 143.19300000000192,
          "velocity": 0.7874015748031497,
          "duration": 0.0007375000000138243
        },
        {
          "name": "C6",
          "midi": 84,
          "time": 143.19300000000192,
          "velocity": 0.7874015748031497,
          "duration": 0.0007375000000138243
        },
        {
          "name": "D6",
          "midi": 86,
          "time": 143.19300000000192,
          "velocity": 0.7874015748031497,
          "duration": 0.0007375000000138243
        },
        {
          "name": "C7",
          "midi": 96,
          "time": 143.19300000000192,
          "velocity": 0.7874015748031497,
          "duration": 0.0007375000000138243
        },
        {
          "name": "E7",
          "midi": 100,
          "time": 143.19300000000192,
          "velocity": 0.7874015748031497,
          "duration": 0.0007375000000138243
        },
        {
          "name": "D4",
          "midi": 62,
          "time": 143.72400000000192,
          "velocity": 0.7874015748031497,
          "duration": 0.0007375000000138243
        },
        {
          "name": "C5",
          "midi": 72,
          "time": 143.72400000000192,
          "velocity": 0.7874015748031497,
          "duration": 0.0007375000000138243
        },
        {
          "name": "D5",
          "midi": 74,
          "time": 143.72400000000192,
          "velocity": 0.7874015748031497,
          "duration": 0.0007375000000138243
        },
        {
          "name": "C6",
          "midi": 84,
          "time": 143.72400000000192,
          "velocity": 0.7874015748031497,
          "duration": 0.0007375000000138243
        },
        {
          "name": "D6",
          "midi": 86,
          "time": 143.72400000000192,
          "velocity": 0.7874015748031497,
          "duration": 0.0007375000000138243
        },
        {
          "name": "C7",
          "midi": 96,
          "time": 143.72400000000192,
          "velocity": 0.7874015748031497,
          "duration": 0.0007375000000138243
        },
        {
          "name": "D7",
          "midi": 98,
          "time": 143.72400000000192,
          "velocity": 0.7874015748031497,
          "duration": 0.0007375000000138243
        },
        {
          "name": "D4",
          "midi": 62,
          "time": 144.43200000000195,
          "velocity": 0.7874015748031497,
          "duration": 0.0007375000000138243
        },
        {
          "name": "C5",
          "midi": 72,
          "time": 144.43200000000195,
          "velocity": 0.7874015748031497,
          "duration": 0.0007375000000138243
        },
        {
          "name": "D5",
          "midi": 74,
          "time": 144.43200000000195,
          "velocity": 0.7874015748031497,
          "duration": 0.0007375000000138243
        },
        {
          "name": "C6",
          "midi": 84,
          "time": 144.43200000000195,
          "velocity": 0.7874015748031497,
          "duration": 0.0007375000000138243
        },
        {
          "name": "D6",
          "midi": 86,
          "time": 144.43200000000195,
          "velocity": 0.7874015748031497,
          "duration": 0.0007375000000138243
        },
        {
          "name": "C7",
          "midi": 96,
          "time": 144.43200000000195,
          "velocity": 0.7874015748031497,
          "duration": 0.0007375000000138243
        },
        {
          "name": "E7",
          "midi": 100,
          "time": 144.43200000000195,
          "velocity": 0.7874015748031497,
          "duration": 0.0007375000000138243
        },
        {
          "name": "D4",
          "midi": 62,
          "time": 145.14000000000198,
          "velocity": 0.7874015748031497,
          "duration": 0.0007375000000138243
        },
        {
          "name": "C5",
          "midi": 72,
          "time": 145.14000000000198,
          "velocity": 0.7874015748031497,
          "duration": 0.0007375000000138243
        },
        {
          "name": "D5",
          "midi": 74,
          "time": 145.14000000000198,
          "velocity": 0.7874015748031497,
          "duration": 0.0007375000000138243
        },
        {
          "name": "C6",
          "midi": 84,
          "time": 145.14000000000198,
          "velocity": 0.7874015748031497,
          "duration": 0.0007375000000138243
        },
        {
          "name": "D6",
          "midi": 86,
          "time": 145.14000000000198,
          "velocity": 0.7874015748031497,
          "duration": 0.0007375000000138243
        },
        {
          "name": "C7",
          "midi": 96,
          "time": 145.14000000000198,
          "velocity": 0.7874015748031497,
          "duration": 0.0007375000000138243
        },
        {
          "name": "D7",
          "midi": 98,
          "time": 145.14000000000198,
          "velocity": 0.7874015748031497,
          "duration": 0.0007375000000138243
        },
        {
          "name": "E4",
          "midi": 64,
          "time": 145.494000000002,
          "velocity": 0.7874015748031497,
          "duration": 0.0007375000000138243
        },
        {
          "name": "E5",
          "midi": 76,
          "time": 145.494000000002,
          "velocity": 0.7874015748031497,
          "duration": 0.0007375000000138243
        },
        {
          "name": "C6",
          "midi": 84,
          "time": 145.494000000002,
          "velocity": 0.7874015748031497,
          "duration": 0.0007375000000138243
        },
        {
          "name": "E6",
          "midi": 88,
          "time": 145.494000000002,
          "velocity": 0.7874015748031497,
          "duration": 0.0007375000000138243
        },
        {
          "name": "C7",
          "midi": 96,
          "time": 145.494000000002,
          "velocity": 0.7874015748031497,
          "duration": 0.0007375000000138243
        },
        {
          "name": "E7",
          "midi": 100,
          "time": 145.494000000002,
          "velocity": 0.7874015748031497,
          "duration": 0.0007375000000138243
        },
        {
          "name": "C#4",
          "midi": 61,
          "time": 145.848000000002,
          "velocity": 0.7874015748031497,
          "duration": 0.0007375000000138243
        },
        {
          "name": "C#5",
          "midi": 73,
          "time": 145.848000000002,
          "velocity": 0.7874015748031497,
          "duration": 0.0007375000000138243
        },
        {
          "name": "E5",
          "midi": 76,
          "time": 145.848000000002,
          "velocity": 0.7874015748031497,
          "duration": 0.0007375000000138243
        },
        {
          "name": "C#6",
          "midi": 85,
          "time": 145.848000000002,
          "velocity": 0.7874015748031497,
          "duration": 0.0007375000000138243
        },
        {
          "name": "E6",
          "midi": 88,
          "time": 145.848000000002,
          "velocity": 0.7874015748031497,
          "duration": 0.0007375000000138243
        },
        {
          "name": "C#7",
          "midi": 97,
          "time": 145.848000000002,
          "velocity": 0.7874015748031497,
          "duration": 0.0007375000000138243
        },
        {
          "name": "E7",
          "midi": 100,
          "time": 145.848000000002,
          "velocity": 0.7874015748031497,
          "duration": 0.0007375000000138243
        },
        {
          "name": "E7",
          "midi": 100,
          "time": 146.02500000000202,
          "velocity": 0.7874015748031497,
          "duration": 0.0007375000000138243
        },
        {
          "name": "E4",
          "midi": 64,
          "time": 146.20200000000204,
          "velocity": 0.7874015748031497,
          "duration": 0.0007375000000138243
        },
        {
          "name": "E5",
          "midi": 76,
          "time": 146.20200000000204,
          "velocity": 0.7874015748031497,
          "duration": 0.0007375000000138243
        },
        {
          "name": "E6",
          "midi": 88,
          "time": 146.20200000000204,
          "velocity": 0.7874015748031497,
          "duration": 0.0007375000000138243
        },
        {
          "name": "E7",
          "midi": 100,
          "time": 146.20200000000204,
          "velocity": 0.7874015748031497,
          "duration": 0.0007375000000138243
        },
        {
          "name": "C6",
          "midi": 84,
          "time": 146.37900000000207,
          "velocity": 0.7874015748031497,
          "duration": 0.0007375000000138243
        },
        {
          "name": "C7",
          "midi": 96,
          "time": 146.37900000000207,
          "velocity": 0.7874015748031497,
          "duration": 0.0007375000000138243
        },
        {
          "name": "E7",
          "midi": 100,
          "time": 146.37900000000207,
          "velocity": 0.7874015748031497,
          "duration": 0.0007375000000138243
        },
        {
          "name": "E4",
          "midi": 64,
          "time": 146.5560000000021,
          "velocity": 0.7874015748031497,
          "duration": 0.0007375000000138243
        },
        {
          "name": "E5",
          "midi": 76,
          "time": 146.5560000000021,
          "velocity": 0.7874015748031497,
          "duration": 0.0007375000000138243
        },
        {
          "name": "E6",
          "midi": 88,
          "time": 146.5560000000021,
          "velocity": 0.7874015748031497,
          "duration": 0.0007375000000138243
        },
        {
          "name": "E7",
          "midi": 100,
          "time": 146.5560000000021,
          "velocity": 0.7874015748031497,
          "duration": 0.0007375000000138243
        },
        {
          "name": "E7",
          "midi": 100,
          "time": 146.7330000000021,
          "velocity": 0.7874015748031497,
          "duration": 0.0007375000000138243
        },
        {
          "name": "E4",
          "midi": 64,
          "time": 146.91000000000213,
          "velocity": 0.7874015748031497,
          "duration": 0.0007375000000138243
        },
        {
          "name": "C5",
          "midi": 72,
          "time": 146.91000000000213,
          "velocity": 0.7874015748031497,
          "duration": 0.0007375000000138243
        },
        {
          "name": "E5",
          "midi": 76,
          "time": 146.91000000000213,
          "velocity": 0.7874015748031497,
          "duration": 0.0007375000000138243
        },
        {
          "name": "C6",
          "midi": 84,
          "time": 146.91000000000213,
          "velocity": 0.7874015748031497,
          "duration": 0.0007375000000138243
        },
        {
          "name": "E6",
          "midi": 88,
          "time": 146.91000000000213,
          "velocity": 0.7874015748031497,
          "duration": 0.0007375000000138243
        },
        {
          "name": "C7",
          "midi": 96,
          "time": 146.91000000000213,
          "velocity": 0.7874015748031497,
          "duration": 0.0007375000000138243
        },
        {
          "name": "E7",
          "midi": 100,
          "time": 146.91000000000213,
          "velocity": 0.7874015748031497,
          "duration": 0.0007375000000138243
        },
        {
          "name": "E7",
          "midi": 100,
          "time": 147.08700000000215,
          "velocity": 0.7874015748031497,
          "duration": 0.0007375000000138243
        },
        {
          "name": "C#4",
          "midi": 61,
          "time": 147.26400000000217,
          "velocity": 0.7874015748031497,
          "duration": 0.0007375000000138243
        },
        {
          "name": "C#5",
          "midi": 73,
          "time": 147.26400000000217,
          "velocity": 0.7874015748031497,
          "duration": 0.0007375000000138243
        },
        {
          "name": "E5",
          "midi": 76,
          "time": 147.26400000000217,
          "velocity": 0.7874015748031497,
          "duration": 0.0007375000000138243
        },
        {
          "name": "C#6",
          "midi": 85,
          "time": 147.26400000000217,
          "velocity": 0.7874015748031497,
          "duration": 0.0007375000000138243
        },
        {
          "name": "E6",
          "midi": 88,
          "time": 147.26400000000217,
          "velocity": 0.7874015748031497,
          "duration": 0.0007375000000138243
        },
        {
          "name": "C#7",
          "midi": 97,
          "time": 147.26400000000217,
          "velocity": 0.7874015748031497,
          "duration": 0.0007375000000138243
        },
        {
          "name": "E7",
          "midi": 100,
          "time": 147.26400000000217,
          "velocity": 0.7874015748031497,
          "duration": 0.0007375000000138243
        },
        {
          "name": "E7",
          "midi": 100,
          "time": 147.44173750000218,
          "velocity": 0.7874015748031497,
          "duration": 0.0007375000000138243
        },
        {
          "name": "E4",
          "midi": 64,
          "time": 147.61800000000218,
          "velocity": 0.7874015748031497,
          "duration": 0.0007375000000138243
        },
        {
          "name": "C5",
          "midi": 72,
          "time": 147.61800000000218,
          "velocity": 0.7874015748031497,
          "duration": 0.0007375000000138243
        },
        {
          "name": "E5",
          "midi": 76,
          "time": 147.61800000000218,
          "velocity": 0.7874015748031497,
          "duration": 0.0007375000000138243
        },
        {
          "name": "C6",
          "midi": 84,
          "time": 147.61800000000218,
          "velocity": 0.7874015748031497,
          "duration": 0.0007375000000138243
        },
        {
          "name": "E6",
          "midi": 88,
          "time": 147.61800000000218,
          "velocity": 0.7874015748031497,
          "duration": 0.0007375000000138243
        },
        {
          "name": "C7",
          "midi": 96,
          "time": 147.61800000000218,
          "velocity": 0.7874015748031497,
          "duration": 0.0007375000000138243
        },
        {
          "name": "E7",
          "midi": 100,
          "time": 147.61800000000218,
          "velocity": 0.7874015748031497,
          "duration": 0.0007375000000138243
        },
        {
          "name": "E7",
          "midi": 100,
          "time": 147.7957375000022,
          "velocity": 0.7874015748031497,
          "duration": 0.0007375000000138243
        },
        {
          "name": "C7",
          "midi": 96,
          "time": 147.88350000000221,
          "velocity": 0.7874015748031497,
          "duration": 0.0007375000000138243
        },
        {
          "name": "C#4",
          "midi": 61,
          "time": 147.97200000000223,
          "velocity": 0.7874015748031497,
          "duration": 0.0007375000000138243
        },
        {
          "name": "C#5",
          "midi": 73,
          "time": 147.97200000000223,
          "velocity": 0.7874015748031497,
          "duration": 0.0007375000000138243
        },
        {
          "name": "E5",
          "midi": 76,
          "time": 147.97200000000223,
          "velocity": 0.7874015748031497,
          "duration": 0.0007375000000138243
        },
        {
          "name": "C#6",
          "midi": 85,
          "time": 147.97200000000223,
          "velocity": 0.7874015748031497,
          "duration": 0.0007375000000138243
        },
        {
          "name": "E6",
          "midi": 88,
          "time": 147.97200000000223,
          "velocity": 0.7874015748031497,
          "duration": 0.0007375000000138243
        },
        {
          "name": "C#7",
          "midi": 97,
          "time": 147.97200000000223,
          "velocity": 0.7874015748031497,
          "duration": 0.0007375000000138243
        },
        {
          "name": "E7",
          "midi": 100,
          "time": 147.97200000000223,
          "velocity": 0.7874015748031497,
          "duration": 0.0007375000000138243
        },
        {
          "name": "E7",
          "midi": 100,
          "time": 148.14973750000223,
          "velocity": 0.7874015748031497,
          "duration": 0.0007375000000138243
        },
        {
          "name": "E4",
          "midi": 64,
          "time": 148.32600000000224,
          "velocity": 0.7874015748031497,
          "duration": 0.0007375000000138243
        },
        {
          "name": "C5",
          "midi": 72,
          "time": 148.32600000000224,
          "velocity": 0.7874015748031497,
          "duration": 0.0007375000000138243
        },
        {
          "name": "E5",
          "midi": 76,
          "time": 148.32600000000224,
          "velocity": 0.7874015748031497,
          "duration": 0.0007375000000138243
        },
        {
          "name": "C6",
          "midi": 84,
          "time": 148.32600000000224,
          "velocity": 0.7874015748031497,
          "duration": 0.0007375000000138243
        },
        {
          "name": "E6",
          "midi": 88,
          "time": 148.32600000000224,
          "velocity": 0.7874015748031497,
          "duration": 0.0007375000000138243
        },
        {
          "name": "C7",
          "midi": 96,
          "time": 148.32600000000224,
          "velocity": 0.7874015748031497,
          "duration": 0.0007375000000138243
        },
        {
          "name": "E7",
          "midi": 100,
          "time": 148.32600000000224,
          "velocity": 0.7874015748031497,
          "duration": 0.0007375000000138243
        },
        {
          "name": "E7",
          "midi": 100,
          "time": 148.50373750000225,
          "velocity": 0.7874015748031497,
          "duration": 0.0007375000000138243
        },
        {
          "name": "C7",
          "midi": 96,
          "time": 148.59223750000226,
          "velocity": 0.7874015748031497,
          "duration": 0.0007375000000138243
        },
        {
          "name": "C#4",
          "midi": 61,
          "time": 148.68000000000228,
          "velocity": 0.7874015748031497,
          "duration": 0.0007375000000138243
        },
        {
          "name": "C#5",
          "midi": 73,
          "time": 148.68000000000228,
          "velocity": 0.7874015748031497,
          "duration": 0.0007375000000138243
        },
        {
          "name": "E5",
          "midi": 76,
          "time": 148.68000000000228,
          "velocity": 0.7874015748031497,
          "duration": 0.0007375000000138243
        },
        {
          "name": "C#6",
          "midi": 85,
          "time": 148.68000000000228,
          "velocity": 0.7874015748031497,
          "duration": 0.0007375000000138243
        },
        {
          "name": "E6",
          "midi": 88,
          "time": 148.68000000000228,
          "velocity": 0.7874015748031497,
          "duration": 0.0007375000000138243
        },
        {
          "name": "C#7",
          "midi": 97,
          "time": 148.68000000000228,
          "velocity": 0.7874015748031497,
          "duration": 0.0007375000000138243
        },
        {
          "name": "E7",
          "midi": 100,
          "time": 148.68000000000228,
          "velocity": 0.7874015748031497,
          "duration": 0.0007375000000138243
        },
        {
          "name": "C6",
          "midi": 84,
          "time": 148.8577375000023,
          "velocity": 0.7874015748031497,
          "duration": 0.0007375000000138243
        },
        {
          "name": "C7",
          "midi": 96,
          "time": 148.8577375000023,
          "velocity": 0.7874015748031497,
          "duration": 0.0007375000000138243
        },
        {
          "name": "E7",
          "midi": 100,
          "time": 148.8577375000023,
          "velocity": 0.7874015748031497,
          "duration": 0.0007375000000138243
        },
        {
          "name": "E4",
          "midi": 64,
          "time": 149.0340000000023,
          "velocity": 0.7874015748031497,
          "duration": 0.0007375000000138243
        },
        {
          "name": "E5",
          "midi": 76,
          "time": 149.0340000000023,
          "velocity": 0.7874015748031497,
          "duration": 0.0007375000000138243
        },
        {
          "name": "E6",
          "midi": 88,
          "time": 149.0340000000023,
          "velocity": 0.7874015748031497,
          "duration": 0.0007375000000138243
        },
        {
          "name": "E7",
          "midi": 100,
          "time": 149.0340000000023,
          "velocity": 0.7874015748031497,
          "duration": 0.0007375000000138243
        },
        {
          "name": "C6",
          "midi": 84,
          "time": 149.2117375000023,
          "velocity": 0.7874015748031497,
          "duration": 0.0007375000000138243
        },
        {
          "name": "C7",
          "midi": 96,
          "time": 149.2117375000023,
          "velocity": 0.7874015748031497,
          "duration": 0.0007375000000138243
        },
        {
          "name": "E7",
          "midi": 100,
          "time": 149.2117375000023,
          "velocity": 0.7874015748031497,
          "duration": 0.0007375000000138243
        },
        {
          "name": "C#4",
          "midi": 61,
          "time": 149.3880000000023,
          "velocity": 0.7874015748031497,
          "duration": 0.0007375000000138243
        },
        {
          "name": "C#5",
          "midi": 73,
          "time": 149.3880000000023,
          "velocity": 0.7874015748031497,
          "duration": 0.0007375000000138243
        },
        {
          "name": "E5",
          "midi": 76,
          "time": 149.3880000000023,
          "velocity": 0.7874015748031497,
          "duration": 0.0007375000000138243
        },
        {
          "name": "C#6",
          "midi": 85,
          "time": 149.3880000000023,
          "velocity": 0.7874015748031497,
          "duration": 0.0007375000000138243
        },
        {
          "name": "E6",
          "midi": 88,
          "time": 149.3880000000023,
          "velocity": 0.7874015748031497,
          "duration": 0.0007375000000138243
        },
        {
          "name": "C#7",
          "midi": 97,
          "time": 149.3880000000023,
          "velocity": 0.7874015748031497,
          "duration": 0.0007375000000138243
        },
        {
          "name": "E7",
          "midi": 100,
          "time": 149.3880000000023,
          "velocity": 0.7874015748031497,
          "duration": 0.0007375000000138243
        },
        {
          "name": "E7",
          "midi": 100,
          "time": 149.56500000000233,
          "velocity": 0.7874015748031497,
          "duration": 0.0007375000000138243
        },
        {
          "name": "E4",
          "midi": 64,
          "time": 149.74200000000235,
          "velocity": 0.7874015748031497,
          "duration": 0.0007375000000138243
        },
        {
          "name": "C5",
          "midi": 72,
          "time": 149.74200000000235,
          "velocity": 0.7874015748031497,
          "duration": 0.0007375000000138243
        },
        {
          "name": "E5",
          "midi": 76,
          "time": 149.74200000000235,
          "velocity": 0.7874015748031497,
          "duration": 0.0007375000000138243
        },
        {
          "name": "C6",
          "midi": 84,
          "time": 149.74200000000235,
          "velocity": 0.7874015748031497,
          "duration": 0.0007375000000138243
        },
        {
          "name": "E6",
          "midi": 88,
          "time": 149.74200000000235,
          "velocity": 0.7874015748031497,
          "duration": 0.0007375000000138243
        },
        {
          "name": "C7",
          "midi": 96,
          "time": 149.74200000000235,
          "velocity": 0.7874015748031497,
          "duration": 0.0007375000000138243
        },
        {
          "name": "E7",
          "midi": 100,
          "time": 149.74200000000235,
          "velocity": 0.7874015748031497,
          "duration": 0.0007375000000138243
        },
        {
          "name": "E7",
          "midi": 100,
          "time": 149.91900000000237,
          "velocity": 0.7874015748031497,
          "duration": 0.0007375000000138243
        },
        {
          "name": "C7",
          "midi": 96,
          "time": 150.0082375000024,
          "velocity": 0.7874015748031497,
          "duration": 0.0007375000000138243
        },
        {
          "name": "C#4",
          "midi": 61,
          "time": 150.09600000000242,
          "velocity": 0.7874015748031497,
          "duration": 0.0007375000000138243
        },
        {
          "name": "C#5",
          "midi": 73,
          "time": 150.09600000000242,
          "velocity": 0.7874015748031497,
          "duration": 0.0007375000000138243
        },
        {
          "name": "D5",
          "midi": 74,
          "time": 150.09600000000242,
          "velocity": 0.7874015748031497,
          "duration": 0.0007375000000138243
        },
        {
          "name": "C#6",
          "midi": 85,
          "time": 150.09600000000242,
          "velocity": 0.7874015748031497,
          "duration": 0.0007375000000138243
        },
        {
          "name": "D6",
          "midi": 86,
          "time": 150.09600000000242,
          "velocity": 0.7874015748031497,
          "duration": 0.0007375000000138243
        },
        {
          "name": "C#7",
          "midi": 97,
          "time": 150.09600000000242,
          "velocity": 0.7874015748031497,
          "duration": 0.0007375000000138243
        },
        {
          "name": "D7",
          "midi": 98,
          "time": 150.09600000000242,
          "velocity": 0.7874015748031497,
          "duration": 0.0007375000000138243
        },
        {
          "name": "D4",
          "midi": 62,
          "time": 150.45000000000243,
          "velocity": 0.7874015748031497,
          "duration": 0.0007375000000138243
        },
        {
          "name": "C5",
          "midi": 72,
          "time": 150.45000000000243,
          "velocity": 0.7874015748031497,
          "duration": 0.0007375000000138243
        },
        {
          "name": "D5",
          "midi": 74,
          "time": 150.45000000000243,
          "velocity": 0.7874015748031497,
          "duration": 0.0007375000000138243
        },
        {
          "name": "C6",
          "midi": 84,
          "time": 150.45000000000243,
          "velocity": 0.7874015748031497,
          "duration": 0.0007375000000138243
        },
        {
          "name": "D6",
          "midi": 86,
          "time": 150.45000000000243,
          "velocity": 0.7874015748031497,
          "duration": 0.0007375000000138243
        },
        {
          "name": "C7",
          "midi": 96,
          "time": 150.45000000000243,
          "velocity": 0.7874015748031497,
          "duration": 0.0007375000000138243
        },
        {
          "name": "D7",
          "midi": 98,
          "time": 150.45000000000243,
          "velocity": 0.7874015748031497,
          "duration": 0.0007375000000138243
        },
        {
          "name": "C7",
          "midi": 96,
          "time": 150.71623750000245,
          "velocity": 0.7874015748031497,
          "duration": 0.0007375000000138243
        },
        {
          "name": "C#4",
          "midi": 61,
          "time": 150.80400000000247,
          "velocity": 0.7874015748031497,
          "duration": 0.0007375000000138243
        },
        {
          "name": "C#5",
          "midi": 73,
          "time": 150.80400000000247,
          "velocity": 0.7874015748031497,
          "duration": 0.0007375000000138243
        },
        {
          "name": "D5",
          "midi": 74,
          "time": 150.80400000000247,
          "velocity": 0.7874015748031497,
          "duration": 0.0007375000000138243
        },
        {
          "name": "C#6",
          "midi": 85,
          "time": 150.80400000000247,
          "velocity": 0.7874015748031497,
          "duration": 0.0007375000000138243
        },
        {
          "name": "D6",
          "midi": 86,
          "time": 150.80400000000247,
          "velocity": 0.7874015748031497,
          "duration": 0.0007375000000138243
        },
        {
          "name": "C#7",
          "midi": 97,
          "time": 150.80400000000247,
          "velocity": 0.7874015748031497,
          "duration": 0.0007375000000138243
        },
        {
          "name": "D7",
          "midi": 98,
          "time": 150.80400000000247,
          "velocity": 0.7874015748031497,
          "duration": 0.0007375000000138243
        },
        {
          "name": "C7",
          "midi": 96,
          "time": 151.06950000000248,
          "velocity": 0.7874015748031497,
          "duration": 0.0007375000000138243
        },
        {
          "name": "C#4",
          "midi": 61,
          "time": 151.1580000000025,
          "velocity": 0.7874015748031497,
          "duration": 0.0007375000000138243
        },
        {
          "name": "C#5",
          "midi": 73,
          "time": 151.1580000000025,
          "velocity": 0.7874015748031497,
          "duration": 0.0007375000000138243
        },
        {
          "name": "C#6",
          "midi": 85,
          "time": 151.1580000000025,
          "velocity": 0.7874015748031497,
          "duration": 0.0007375000000138243
        },
        {
          "name": "D6",
          "midi": 86,
          "time": 151.1580000000025,
          "velocity": 0.7874015748031497,
          "duration": 0.0007375000000138243
        },
        {
          "name": "C#7",
          "midi": 97,
          "time": 151.1580000000025,
          "velocity": 0.7874015748031497,
          "duration": 0.0007375000000138243
        },
        {
          "name": "D7",
          "midi": 98,
          "time": 151.1580000000025,
          "velocity": 0.7874015748031497,
          "duration": 0.0007375000000138243
        },
        {
          "name": "D4",
          "midi": 62,
          "time": 151.3350000000025,
          "velocity": 0.7874015748031497,
          "duration": 0.0007375000000138243
        },
        {
          "name": "C5",
          "midi": 72,
          "time": 151.3350000000025,
          "velocity": 0.7874015748031497,
          "duration": 0.0007375000000138243
        },
        {
          "name": "D5",
          "midi": 74,
          "time": 151.3350000000025,
          "velocity": 0.7874015748031497,
          "duration": 0.0007375000000138243
        },
        {
          "name": "C6",
          "midi": 84,
          "time": 151.3350000000025,
          "velocity": 0.7874015748031497,
          "duration": 0.0007375000000138243
        },
        {
          "name": "D6",
          "midi": 86,
          "time": 151.3350000000025,
          "velocity": 0.7874015748031497,
          "duration": 0.0007375000000138243
        },
        {
          "name": "C7",
          "midi": 96,
          "time": 151.3350000000025,
          "velocity": 0.7874015748031497,
          "duration": 0.0007375000000138243
        },
        {
          "name": "D7",
          "midi": 98,
          "time": 151.3350000000025,
          "velocity": 0.7874015748031497,
          "duration": 0.0007375000000138243
        },
        {
          "name": "C6",
          "midi": 84,
          "time": 151.68826250000254,
          "velocity": 0.7874015748031497,
          "duration": 0.0007375000000138243
        },
        {
          "name": "C7",
          "midi": 96,
          "time": 151.68826250000254,
          "velocity": 0.7874015748031497,
          "duration": 0.0007375000000138243
        },
        {
          "name": "C#4",
          "midi": 61,
          "time": 151.86600000000254,
          "velocity": 0.7874015748031497,
          "duration": 0.0007375000000138243
        },
        {
          "name": "C#5",
          "midi": 73,
          "time": 151.86600000000254,
          "velocity": 0.7874015748031497,
          "duration": 0.0007375000000138243
        },
        {
          "name": "E5",
          "midi": 76,
          "time": 151.86600000000254,
          "velocity": 0.7874015748031497,
          "duration": 0.0007375000000138243
        },
        {
          "name": "C#6",
          "midi": 85,
          "time": 151.86600000000254,
          "velocity": 0.7874015748031497,
          "duration": 0.0007375000000138243
        },
        {
          "name": "E6",
          "midi": 88,
          "time": 151.86600000000254,
          "velocity": 0.7874015748031497,
          "duration": 0.0007375000000138243
        },
        {
          "name": "C#7",
          "midi": 97,
          "time": 151.86600000000254,
          "velocity": 0.7874015748031497,
          "duration": 0.0007375000000138243
        },
        {
          "name": "E7",
          "midi": 100,
          "time": 151.86600000000254,
          "velocity": 0.7874015748031497,
          "duration": 0.0007375000000138243
        },
        {
          "name": "E7",
          "midi": 100,
          "time": 152.04300000000256,
          "velocity": 0.7874015748031497,
          "duration": 0.0007375000000138243
        },
        {
          "name": "E4",
          "midi": 64,
          "time": 152.22000000000259,
          "velocity": 0.7874015748031497,
          "duration": 0.0007375000000138243
        },
        {
          "name": "C5",
          "midi": 72,
          "time": 152.22000000000259,
          "velocity": 0.7874015748031497,
          "duration": 0.0007375000000138243
        },
        {
          "name": "E5",
          "midi": 76,
          "time": 152.22000000000259,
          "velocity": 0.7874015748031497,
          "duration": 0.0007375000000138243
        },
        {
          "name": "C6",
          "midi": 84,
          "time": 152.22000000000259,
          "velocity": 0.7874015748031497,
          "duration": 0.0007375000000138243
        },
        {
          "name": "E6",
          "midi": 88,
          "time": 152.22000000000259,
          "velocity": 0.7874015748031497,
          "duration": 0.0007375000000138243
        },
        {
          "name": "C7",
          "midi": 96,
          "time": 152.22000000000259,
          "velocity": 0.7874015748031497,
          "duration": 0.0007375000000138243
        },
        {
          "name": "E7",
          "midi": 100,
          "time": 152.22000000000259,
          "velocity": 0.7874015748031497,
          "duration": 0.0007375000000138243
        },
        {
          "name": "C6",
          "midi": 84,
          "time": 152.3970000000026,
          "velocity": 0.7874015748031497,
          "duration": 0.0007375000000138243
        },
        {
          "name": "B6",
          "midi": 95,
          "time": 152.3970000000026,
          "velocity": 0.7874015748031497,
          "duration": 0.0007375000000138243
        },
        {
          "name": "E7",
          "midi": 100,
          "time": 152.3970000000026,
          "velocity": 0.7874015748031497,
          "duration": 0.0007375000000138243
        },
        {
          "name": "C7",
          "midi": 96,
          "time": 152.48550000000262,
          "velocity": 0.7874015748031497,
          "duration": 0.0007375000000138243
        },
        {
          "name": "C#4",
          "midi": 61,
          "time": 152.57400000000263,
          "velocity": 0.7874015748031497,
          "duration": 0.0007375000000138243
        },
        {
          "name": "C#5",
          "midi": 73,
          "time": 152.57400000000263,
          "velocity": 0.7874015748031497,
          "duration": 0.0007375000000138243
        },
        {
          "name": "D5",
          "midi": 74,
          "time": 152.57400000000263,
          "velocity": 0.7874015748031497,
          "duration": 0.0007375000000138243
        },
        {
          "name": "C#6",
          "midi": 85,
          "time": 152.57400000000263,
          "velocity": 0.7874015748031497,
          "duration": 0.0007375000000138243
        },
        {
          "name": "D6",
          "midi": 86,
          "time": 152.57400000000263,
          "velocity": 0.7874015748031497,
          "duration": 0.0007375000000138243
        },
        {
          "name": "C#7",
          "midi": 97,
          "time": 152.57400000000263,
          "velocity": 0.7874015748031497,
          "duration": 0.0007375000000138243
        },
        {
          "name": "D7",
          "midi": 98,
          "time": 152.57400000000263,
          "velocity": 0.7874015748031497,
          "duration": 0.0007375000000138243
        },
        {
          "name": "D4",
          "midi": 62,
          "time": 152.92800000000264,
          "velocity": 0.7874015748031497,
          "duration": 0.0007375000000138243
        },
        {
          "name": "C5",
          "midi": 72,
          "time": 152.92800000000264,
          "velocity": 0.7874015748031497,
          "duration": 0.0007375000000138243
        },
        {
          "name": "D5",
          "midi": 74,
          "time": 152.92800000000264,
          "velocity": 0.7874015748031497,
          "duration": 0.0007375000000138243
        },
        {
          "name": "C6",
          "midi": 84,
          "time": 152.92800000000264,
          "velocity": 0.7874015748031497,
          "duration": 0.0007375000000138243
        },
        {
          "name": "D6",
          "midi": 86,
          "time": 152.92800000000264,
          "velocity": 0.7874015748031497,
          "duration": 0.0007375000000138243
        },
        {
          "name": "C7",
          "midi": 96,
          "time": 152.92800000000264,
          "velocity": 0.7874015748031497,
          "duration": 0.0007375000000138243
        },
        {
          "name": "D7",
          "midi": 98,
          "time": 152.92800000000264,
          "velocity": 0.7874015748031497,
          "duration": 0.0007375000000138243
        },
        {
          "name": "C7",
          "midi": 96,
          "time": 153.19350000000264,
          "velocity": 0.7874015748031497,
          "duration": 0.0007375000000138243
        },
        {
          "name": "C#4",
          "midi": 61,
          "time": 153.28200000000265,
          "velocity": 0.7874015748031497,
          "duration": 0.0007375000000138243
        },
        {
          "name": "C#5",
          "midi": 73,
          "time": 153.28200000000265,
          "velocity": 0.7874015748031497,
          "duration": 0.0007375000000138243
        },
        {
          "name": "D5",
          "midi": 74,
          "time": 153.28200000000265,
          "velocity": 0.7874015748031497,
          "duration": 0.0007375000000138243
        },
        {
          "name": "C#6",
          "midi": 85,
          "time": 153.28200000000265,
          "velocity": 0.7874015748031497,
          "duration": 0.0007375000000138243
        },
        {
          "name": "D6",
          "midi": 86,
          "time": 153.28200000000265,
          "velocity": 0.7874015748031497,
          "duration": 0.0007375000000138243
        },
        {
          "name": "C#7",
          "midi": 97,
          "time": 153.28200000000265,
          "velocity": 0.7874015748031497,
          "duration": 0.0007375000000138243
        },
        {
          "name": "D7",
          "midi": 98,
          "time": 153.28200000000265,
          "velocity": 0.7874015748031497,
          "duration": 0.0007375000000138243
        },
        {
          "name": "C7",
          "midi": 96,
          "time": 153.54750000000266,
          "velocity": 0.7874015748031497,
          "duration": 0.0007375000000138243
        },
        {
          "name": "C#4",
          "midi": 61,
          "time": 153.63600000000267,
          "velocity": 0.7874015748031497,
          "duration": 0.0007375000000138243
        },
        {
          "name": "C#5",
          "midi": 73,
          "time": 153.63600000000267,
          "velocity": 0.7874015748031497,
          "duration": 0.0007375000000138243
        },
        {
          "name": "C#6",
          "midi": 85,
          "time": 153.63600000000267,
          "velocity": 0.7874015748031497,
          "duration": 0.0007375000000138243
        },
        {
          "name": "D6",
          "midi": 86,
          "time": 153.63600000000267,
          "velocity": 0.7874015748031497,
          "duration": 0.0007375000000138243
        },
        {
          "name": "C#7",
          "midi": 97,
          "time": 153.63600000000267,
          "velocity": 0.7874015748031497,
          "duration": 0.0007375000000138243
        },
        {
          "name": "D7",
          "midi": 98,
          "time": 153.63600000000267,
          "velocity": 0.7874015748031497,
          "duration": 0.0007375000000138243
        },
        {
          "name": "D4",
          "midi": 62,
          "time": 153.81373750000267,
          "velocity": 0.7874015748031497,
          "duration": 0.0007375000000138243
        },
        {
          "name": "C5",
          "midi": 72,
          "time": 153.81373750000267,
          "velocity": 0.7874015748031497,
          "duration": 0.0007375000000138243
        },
        {
          "name": "D5",
          "midi": 74,
          "time": 153.81373750000267,
          "velocity": 0.7874015748031497,
          "duration": 0.0007375000000138243
        },
        {
          "name": "C6",
          "midi": 84,
          "time": 153.81373750000267,
          "velocity": 0.7874015748031497,
          "duration": 0.0007375000000138243
        },
        {
          "name": "D6",
          "midi": 86,
          "time": 153.81373750000267,
          "velocity": 0.7874015748031497,
          "duration": 0.0007375000000138243
        },
        {
          "name": "C7",
          "midi": 96,
          "time": 153.81373750000267,
          "velocity": 0.7874015748031497,
          "duration": 0.0007375000000138243
        },
        {
          "name": "D7",
          "midi": 98,
          "time": 153.81373750000267,
          "velocity": 0.7874015748031497,
          "duration": 0.0007375000000138243
        },
        {
          "name": "C6",
          "midi": 84,
          "time": 154.1677375000027,
          "velocity": 0.7874015748031497,
          "duration": 0.0007375000000138243
        },
        {
          "name": "C7",
          "midi": 96,
          "time": 154.1677375000027,
          "velocity": 0.7874015748031497,
          "duration": 0.0007375000000138243
        },
        {
          "name": "C#4",
          "midi": 61,
          "time": 154.3440000000027,
          "velocity": 0.7874015748031497,
          "duration": 0.0007375000000138243
        },
        {
          "name": "C#5",
          "midi": 73,
          "time": 154.3440000000027,
          "velocity": 0.7874015748031497,
          "duration": 0.0007375000000138243
        },
        {
          "name": "E5",
          "midi": 76,
          "time": 154.3440000000027,
          "velocity": 0.7874015748031497,
          "duration": 0.0007375000000138243
        },
        {
          "name": "C#6",
          "midi": 85,
          "time": 154.3440000000027,
          "velocity": 0.7874015748031497,
          "duration": 0.0007375000000138243
        },
        {
          "name": "E6",
          "midi": 88,
          "time": 154.3440000000027,
          "velocity": 0.7874015748031497,
          "duration": 0.0007375000000138243
        },
        {
          "name": "C#7",
          "midi": 97,
          "time": 154.3440000000027,
          "velocity": 0.7874015748031497,
          "duration": 0.0007375000000138243
        },
        {
          "name": "E7",
          "midi": 100,
          "time": 154.3440000000027,
          "velocity": 0.7874015748031497,
          "duration": 0.0007375000000138243
        },
        {
          "name": "E7",
          "midi": 100,
          "time": 154.52100000000272,
          "velocity": 0.7874015748031497,
          "duration": 0.0007375000000138243
        },
        {
          "name": "E4",
          "midi": 64,
          "time": 154.69800000000274,
          "velocity": 0.7874015748031497,
          "duration": 0.0007375000000138243
        },
        {
          "name": "C5",
          "midi": 72,
          "time": 154.69800000000274,
          "velocity": 0.7874015748031497,
          "duration": 0.0007375000000138243
        },
        {
          "name": "E5",
          "midi": 76,
          "time": 154.69800000000274,
          "velocity": 0.7874015748031497,
          "duration": 0.0007375000000138243
        },
        {
          "name": "C6",
          "midi": 84,
          "time": 154.69800000000274,
          "velocity": 0.7874015748031497,
          "duration": 0.0007375000000138243
        },
        {
          "name": "E6",
          "midi": 88,
          "time": 154.69800000000274,
          "velocity": 0.7874015748031497,
          "duration": 0.0007375000000138243
        },
        {
          "name": "C7",
          "midi": 96,
          "time": 154.69800000000274,
          "velocity": 0.7874015748031497,
          "duration": 0.0007375000000138243
        },
        {
          "name": "E7",
          "midi": 100,
          "time": 154.69800000000274,
          "velocity": 0.7874015748031497,
          "duration": 0.0007375000000138243
        },
        {
          "name": "C6",
          "midi": 84,
          "time": 154.87500000000276,
          "velocity": 0.7874015748031497,
          "duration": 0.0007375000000138243
        },
        {
          "name": "B6",
          "midi": 95,
          "time": 154.87500000000276,
          "velocity": 0.7874015748031497,
          "duration": 0.0007375000000138243
        },
        {
          "name": "E7",
          "midi": 100,
          "time": 154.87500000000276,
          "velocity": 0.7874015748031497,
          "duration": 0.0007375000000138243
        },
        {
          "name": "C7",
          "midi": 96,
          "time": 154.96350000000277,
          "velocity": 0.7874015748031497,
          "duration": 0.0007375000000138243
        },
        {
          "name": "C#4",
          "midi": 61,
          "time": 155.05200000000278,
          "velocity": 0.7874015748031497,
          "duration": 0.0007375000000138243
        },
        {
          "name": "C#5",
          "midi": 73,
          "time": 155.05200000000278,
          "velocity": 0.7874015748031497,
          "duration": 0.0007375000000138243
        },
        {
          "name": "D5",
          "midi": 74,
          "time": 155.05200000000278,
          "velocity": 0.7874015748031497,
          "duration": 0.0007375000000138243
        },
        {
          "name": "C#6",
          "midi": 85,
          "time": 155.05200000000278,
          "velocity": 0.7874015748031497,
          "duration": 0.0007375000000138243
        },
        {
          "name": "D6",
          "midi": 86,
          "time": 155.05200000000278,
          "velocity": 0.7874015748031497,
          "duration": 0.0007375000000138243
        },
        {
          "name": "C#7",
          "midi": 97,
          "time": 155.05200000000278,
          "velocity": 0.7874015748031497,
          "duration": 0.0007375000000138243
        },
        {
          "name": "D7",
          "midi": 98,
          "time": 155.05200000000278,
          "velocity": 0.7874015748031497,
          "duration": 0.0007375000000138243
        },
        {
          "name": "C5",
          "midi": 72,
          "time": 155.2290000000028,
          "velocity": 0.7874015748031497,
          "duration": 0.0007375000000138243
        },
        {
          "name": "C6",
          "midi": 84,
          "time": 155.2290000000028,
          "velocity": 0.7874015748031497,
          "duration": 0.0007375000000138243
        },
        {
          "name": "C7",
          "midi": 96,
          "time": 155.2290000000028,
          "velocity": 0.7874015748031497,
          "duration": 0.0007375000000138243
        },
        {
          "name": "C#4",
          "midi": 61,
          "time": 155.40600000000282,
          "velocity": 0.7874015748031497,
          "duration": 0.0007375000000138243
        },
        {
          "name": "C#5",
          "midi": 73,
          "time": 155.40600000000282,
          "velocity": 0.7874015748031497,
          "duration": 0.0007375000000138243
        },
        {
          "name": "D5",
          "midi": 74,
          "time": 155.40600000000282,
          "velocity": 0.7874015748031497,
          "duration": 0.0007375000000138243
        },
        {
          "name": "C#6",
          "midi": 85,
          "time": 155.40600000000282,
          "velocity": 0.7874015748031497,
          "duration": 0.0007375000000138243
        },
        {
          "name": "D6",
          "midi": 86,
          "time": 155.40600000000282,
          "velocity": 0.7874015748031497,
          "duration": 0.0007375000000138243
        },
        {
          "name": "C#7",
          "midi": 97,
          "time": 155.40600000000282,
          "velocity": 0.7874015748031497,
          "duration": 0.0007375000000138243
        },
        {
          "name": "D7",
          "midi": 98,
          "time": 155.40600000000282,
          "velocity": 0.7874015748031497,
          "duration": 0.0007375000000138243
        },
        {
          "name": "C6",
          "midi": 84,
          "time": 155.58226250000283,
          "velocity": 0.7874015748031497,
          "duration": 0.0007375000000138243
        },
        {
          "name": "C7",
          "midi": 96,
          "time": 155.58226250000283,
          "velocity": 0.7874015748031497,
          "duration": 0.0007375000000138243
        },
        {
          "name": "C#4",
          "midi": 61,
          "time": 155.76000000000283,
          "velocity": 0.7874015748031497,
          "duration": 0.0007375000000138243
        },
        {
          "name": "C#5",
          "midi": 73,
          "time": 155.76000000000283,
          "velocity": 0.7874015748031497,
          "duration": 0.0007375000000138243
        },
        {
          "name": "D5",
          "midi": 74,
          "time": 155.76000000000283,
          "velocity": 0.7874015748031497,
          "duration": 0.0007375000000138243
        },
        {
          "name": "C#6",
          "midi": 85,
          "time": 155.76000000000283,
          "velocity": 0.7874015748031497,
          "duration": 0.0007375000000138243
        },
        {
          "name": "D6",
          "midi": 86,
          "time": 155.76000000000283,
          "velocity": 0.7874015748031497,
          "duration": 0.0007375000000138243
        },
        {
          "name": "C#7",
          "midi": 97,
          "time": 155.76000000000283,
          "velocity": 0.7874015748031497,
          "duration": 0.0007375000000138243
        },
        {
          "name": "D7",
          "midi": 98,
          "time": 155.76000000000283,
          "velocity": 0.7874015748031497,
          "duration": 0.0007375000000138243
        },
        {
          "name": "C5",
          "midi": 72,
          "time": 155.93700000000285,
          "velocity": 0.7874015748031497,
          "duration": 0.0007375000000138243
        },
        {
          "name": "C6",
          "midi": 84,
          "time": 155.93700000000285,
          "velocity": 0.7874015748031497,
          "duration": 0.0007375000000138243
        },
        {
          "name": "C7",
          "midi": 96,
          "time": 155.93700000000285,
          "velocity": 0.7874015748031497,
          "duration": 0.0007375000000138243
        },
        {
          "name": "C#4",
          "midi": 61,
          "time": 156.11400000000287,
          "velocity": 0.7874015748031497,
          "duration": 0.0007375000000138243
        },
        {
          "name": "C#5",
          "midi": 73,
          "time": 156.11400000000287,
          "velocity": 0.7874015748031497,
          "duration": 0.0007375000000138243
        },
        {
          "name": "E5",
          "midi": 76,
          "time": 156.11400000000287,
          "velocity": 0.7874015748031497,
          "duration": 0.0007375000000138243
        },
        {
          "name": "C#6",
          "midi": 85,
          "time": 156.11400000000287,
          "velocity": 0.7874015748031497,
          "duration": 0.0007375000000138243
        },
        {
          "name": "E6",
          "midi": 88,
          "time": 156.11400000000287,
          "velocity": 0.7874015748031497,
          "duration": 0.0007375000000138243
        },
        {
          "name": "C#7",
          "midi": 97,
          "time": 156.11400000000287,
          "velocity": 0.7874015748031497,
          "duration": 0.0007375000000138243
        },
        {
          "name": "E7",
          "midi": 100,
          "time": 156.11400000000287,
          "velocity": 0.7874015748031497,
          "duration": 0.0007375000000138243
        },
        {
          "name": "C6",
          "midi": 84,
          "time": 156.29026250000288,
          "velocity": 0.7874015748031497,
          "duration": 0.0007375000000138243
        },
        {
          "name": "C7",
          "midi": 96,
          "time": 156.29026250000288,
          "velocity": 0.7874015748031497,
          "duration": 0.0007375000000138243
        },
        {
          "name": "E7",
          "midi": 100,
          "time": 156.29026250000288,
          "velocity": 0.7874015748031497,
          "duration": 0.0007375000000138243
        },
        {
          "name": "C#4",
          "midi": 61,
          "time": 156.4680000000029,
          "velocity": 0.7874015748031497,
          "duration": 0.0007375000000138243
        },
        {
          "name": "C#5",
          "midi": 73,
          "time": 156.4680000000029,
          "velocity": 0.7874015748031497,
          "duration": 0.0007375000000138243
        },
        {
          "name": "E5",
          "midi": 76,
          "time": 156.4680000000029,
          "velocity": 0.7874015748031497,
          "duration": 0.0007375000000138243
        },
        {
          "name": "C#6",
          "midi": 85,
          "time": 156.4680000000029,
          "velocity": 0.7874015748031497,
          "duration": 0.0007375000000138243
        },
        {
          "name": "E6",
          "midi": 88,
          "time": 156.4680000000029,
          "velocity": 0.7874015748031497,
          "duration": 0.0007375000000138243
        },
        {
          "name": "C#7",
          "midi": 97,
          "time": 156.4680000000029,
          "velocity": 0.7874015748031497,
          "duration": 0.0007375000000138243
        },
        {
          "name": "E7",
          "midi": 100,
          "time": 156.4680000000029,
          "velocity": 0.7874015748031497,
          "duration": 0.0007375000000138243
        },
        {
          "name": "C4",
          "midi": 60,
          "time": 156.6450000000029,
          "velocity": 0.7874015748031497,
          "duration": 0.0007375000000138243
        },
        {
          "name": "C5",
          "midi": 72,
          "time": 156.6450000000029,
          "velocity": 0.7874015748031497,
          "duration": 0.0007375000000138243
        },
        {
          "name": "C6",
          "midi": 84,
          "time": 156.6450000000029,
          "velocity": 0.7874015748031497,
          "duration": 0.0007375000000138243
        },
        {
          "name": "C7",
          "midi": 96,
          "time": 156.6450000000029,
          "velocity": 0.7874015748031497,
          "duration": 0.0007375000000138243
        },
        {
          "name": "E7",
          "midi": 100,
          "time": 156.6450000000029,
          "velocity": 0.7874015748031497,
          "duration": 0.0007375000000138243
        },
        {
          "name": "C#4",
          "midi": 61,
          "time": 156.82200000000293,
          "velocity": 0.7874015748031497,
          "duration": 0.0007375000000138243
        },
        {
          "name": "C#5",
          "midi": 73,
          "time": 156.82200000000293,
          "velocity": 0.7874015748031497,
          "duration": 0.0007375000000138243
        },
        {
          "name": "E5",
          "midi": 76,
          "time": 156.82200000000293,
          "velocity": 0.7874015748031497,
          "duration": 0.0007375000000138243
        },
        {
          "name": "C#6",
          "midi": 85,
          "time": 156.82200000000293,
          "velocity": 0.7874015748031497,
          "duration": 0.0007375000000138243
        },
        {
          "name": "E6",
          "midi": 88,
          "time": 156.82200000000293,
          "velocity": 0.7874015748031497,
          "duration": 0.0007375000000138243
        },
        {
          "name": "C#7",
          "midi": 97,
          "time": 156.82200000000293,
          "velocity": 0.7874015748031497,
          "duration": 0.0007375000000138243
        },
        {
          "name": "E7",
          "midi": 100,
          "time": 156.82200000000293,
          "velocity": 0.7874015748031497,
          "duration": 0.0007375000000138243
        },
        {
          "name": "C6",
          "midi": 84,
          "time": 156.99900000000295,
          "velocity": 0.7874015748031497,
          "duration": 0.0007375000000138243
        },
        {
          "name": "C7",
          "midi": 96,
          "time": 156.99900000000295,
          "velocity": 0.7874015748031497,
          "duration": 0.0007375000000138243
        },
        {
          "name": "E7",
          "midi": 100,
          "time": 156.99900000000295,
          "velocity": 0.7874015748031497,
          "duration": 0.0007375000000138243
        },
        {
          "name": "C#4",
          "midi": 61,
          "time": 157.17600000000297,
          "velocity": 0.7874015748031497,
          "duration": 0.0007375000000138243
        },
        {
          "name": "C#5",
          "midi": 73,
          "time": 157.17600000000297,
          "velocity": 0.7874015748031497,
          "duration": 0.0007375000000138243
        },
        {
          "name": "E5",
          "midi": 76,
          "time": 157.17600000000297,
          "velocity": 0.7874015748031497,
          "duration": 0.0007375000000138243
        },
        {
          "name": "C#6",
          "midi": 85,
          "time": 157.17600000000297,
          "velocity": 0.7874015748031497,
          "duration": 0.0007375000000138243
        },
        {
          "name": "E6",
          "midi": 88,
          "time": 157.17600000000297,
          "velocity": 0.7874015748031497,
          "duration": 0.0007375000000138243
        },
        {
          "name": "C#7",
          "midi": 97,
          "time": 157.17600000000297,
          "velocity": 0.7874015748031497,
          "duration": 0.0007375000000138243
        },
        {
          "name": "E7",
          "midi": 100,
          "time": 157.17600000000297,
          "velocity": 0.7874015748031497,
          "duration": 0.0007375000000138243
        },
        {
          "name": "C5",
          "midi": 72,
          "time": 157.35226250000298,
          "velocity": 0.7874015748031497,
          "duration": 0.0007375000000138243
        },
        {
          "name": "C6",
          "midi": 84,
          "time": 157.35226250000298,
          "velocity": 0.7874015748031497,
          "duration": 0.0007375000000138243
        },
        {
          "name": "C7",
          "midi": 96,
          "time": 157.35226250000298,
          "velocity": 0.7874015748031497,
          "duration": 0.0007375000000138243
        },
        {
          "name": "E7",
          "midi": 100,
          "time": 157.35226250000298,
          "velocity": 0.7874015748031497,
          "duration": 0.0007375000000138243
        },
        {
          "name": "C#4",
          "midi": 61,
          "time": 157.53000000000299,
          "velocity": 0.7874015748031497,
          "duration": 0.0007375000000138243
        },
        {
          "name": "C#5",
          "midi": 73,
          "time": 157.53000000000299,
          "velocity": 0.7874015748031497,
          "duration": 0.0007375000000138243
        },
        {
          "name": "D5",
          "midi": 74,
          "time": 157.53000000000299,
          "velocity": 0.7874015748031497,
          "duration": 0.0007375000000138243
        },
        {
          "name": "C#6",
          "midi": 85,
          "time": 157.53000000000299,
          "velocity": 0.7874015748031497,
          "duration": 0.0007375000000138243
        },
        {
          "name": "D6",
          "midi": 86,
          "time": 157.53000000000299,
          "velocity": 0.7874015748031497,
          "duration": 0.0007375000000138243
        },
        {
          "name": "C#7",
          "midi": 97,
          "time": 157.53000000000299,
          "velocity": 0.7874015748031497,
          "duration": 0.0007375000000138243
        },
        {
          "name": "D7",
          "midi": 98,
          "time": 157.53000000000299,
          "velocity": 0.7874015748031497,
          "duration": 0.0007375000000138243
        },
        {
          "name": "C6",
          "midi": 84,
          "time": 157.707000000003,
          "velocity": 0.7874015748031497,
          "duration": 0.0007375000000138243
        },
        {
          "name": "C7",
          "midi": 96,
          "time": 157.707000000003,
          "velocity": 0.7874015748031497,
          "duration": 0.0007375000000138243
        },
        {
          "name": "C#4",
          "midi": 61,
          "time": 157.88400000000303,
          "velocity": 0.7874015748031497,
          "duration": 0.0007375000000138243
        },
        {
          "name": "C#5",
          "midi": 73,
          "time": 157.88400000000303,
          "velocity": 0.7874015748031497,
          "duration": 0.0007375000000138243
        },
        {
          "name": "D5",
          "midi": 74,
          "time": 157.88400000000303,
          "velocity": 0.7874015748031497,
          "duration": 0.0007375000000138243
        },
        {
          "name": "C#6",
          "midi": 85,
          "time": 157.88400000000303,
          "velocity": 0.7874015748031497,
          "duration": 0.0007375000000138243
        },
        {
          "name": "D6",
          "midi": 86,
          "time": 157.88400000000303,
          "velocity": 0.7874015748031497,
          "duration": 0.0007375000000138243
        },
        {
          "name": "C#7",
          "midi": 97,
          "time": 157.88400000000303,
          "velocity": 0.7874015748031497,
          "duration": 0.0007375000000138243
        },
        {
          "name": "D7",
          "midi": 98,
          "time": 157.88400000000303,
          "velocity": 0.7874015748031497,
          "duration": 0.0007375000000138243
        },
        {
          "name": "C5",
          "midi": 72,
          "time": 158.06173750000303,
          "velocity": 0.7874015748031497,
          "duration": 0.0007375000000138243
        },
        {
          "name": "C6",
          "midi": 84,
          "time": 158.06173750000303,
          "velocity": 0.7874015748031497,
          "duration": 0.0007375000000138243
        },
        {
          "name": "C7",
          "midi": 96,
          "time": 158.06173750000303,
          "velocity": 0.7874015748031497,
          "duration": 0.0007375000000138243
        },
        {
          "name": "C#4",
          "midi": 61,
          "time": 158.23800000000304,
          "velocity": 0.7874015748031497,
          "duration": 0.0007375000000138243
        },
        {
          "name": "C#5",
          "midi": 73,
          "time": 158.23800000000304,
          "velocity": 0.7874015748031497,
          "duration": 0.0007375000000138243
        },
        {
          "name": "C#6",
          "midi": 85,
          "time": 158.23800000000304,
          "velocity": 0.7874015748031497,
          "duration": 0.0007375000000138243
        },
        {
          "name": "F6",
          "midi": 89,
          "time": 158.23800000000304,
          "velocity": 0.7874015748031497,
          "duration": 0.0007375000000138243
        },
        {
          "name": "C#7",
          "midi": 97,
          "time": 158.23800000000304,
          "velocity": 0.7874015748031497,
          "duration": 0.0007375000000138243
        },
        {
          "name": "F7",
          "midi": 101,
          "time": 158.23800000000304,
          "velocity": 0.7874015748031497,
          "duration": 0.0007375000000138243
        },
        {
          "name": "C#4",
          "midi": 61,
          "time": 158.41500000000306,
          "velocity": 0.7874015748031497,
          "duration": 0.0007375000000138243
        },
        {
          "name": "C#5",
          "midi": 73,
          "time": 158.41500000000306,
          "velocity": 0.7874015748031497,
          "duration": 0.0007375000000138243
        },
        {
          "name": "C#6",
          "midi": 85,
          "time": 158.41500000000306,
          "velocity": 0.7874015748031497,
          "duration": 0.0007375000000138243
        },
        {
          "name": "F6",
          "midi": 89,
          "time": 158.41500000000306,
          "velocity": 0.7874015748031497,
          "duration": 0.0007375000000138243
        },
        {
          "name": "C#7",
          "midi": 97,
          "time": 158.41500000000306,
          "velocity": 0.7874015748031497,
          "duration": 0.0007375000000138243
        },
        {
          "name": "F7",
          "midi": 101,
          "time": 158.41500000000306,
          "velocity": 0.7874015748031497,
          "duration": 0.0007375000000138243
        },
        {
          "name": "D#4",
          "midi": 63,
          "time": 158.59200000000308,
          "velocity": 0.7874015748031497,
          "duration": 0.0007375000000138243
        },
        {
          "name": "D#5",
          "midi": 75,
          "time": 158.59200000000308,
          "velocity": 0.7874015748031497,
          "duration": 0.0007375000000138243
        },
        {
          "name": "D#6",
          "midi": 87,
          "time": 158.59200000000308,
          "velocity": 0.7874015748031497,
          "duration": 0.0007375000000138243
        },
        {
          "name": "F6",
          "midi": 89,
          "time": 158.59200000000308,
          "velocity": 0.7874015748031497,
          "duration": 0.0007375000000138243
        },
        {
          "name": "D#7",
          "midi": 99,
          "time": 158.59200000000308,
          "velocity": 0.7874015748031497,
          "duration": 0.0007375000000138243
        },
        {
          "name": "F7",
          "midi": 101,
          "time": 158.59200000000308,
          "velocity": 0.7874015748031497,
          "duration": 0.0007375000000138243
        },
        {
          "name": "D4",
          "midi": 62,
          "time": 158.7682625000031,
          "velocity": 0.7874015748031497,
          "duration": 0.0007375000000138243
        },
        {
          "name": "C5",
          "midi": 72,
          "time": 158.7682625000031,
          "velocity": 0.7874015748031497,
          "duration": 0.0007375000000138243
        },
        {
          "name": "D5",
          "midi": 74,
          "time": 158.7682625000031,
          "velocity": 0.7874015748031497,
          "duration": 0.0007375000000138243
        },
        {
          "name": "C6",
          "midi": 84,
          "time": 158.7682625000031,
          "velocity": 0.7874015748031497,
          "duration": 0.0007375000000138243
        },
        {
          "name": "D6",
          "midi": 86,
          "time": 158.7682625000031,
          "velocity": 0.7874015748031497,
          "duration": 0.0007375000000138243
        },
        {
          "name": "C7",
          "midi": 96,
          "time": 158.7682625000031,
          "velocity": 0.7874015748031497,
          "duration": 0.0007375000000138243
        },
        {
          "name": "E7",
          "midi": 100,
          "time": 158.7682625000031,
          "velocity": 0.7874015748031497,
          "duration": 0.0007375000000138243
        },
        {
          "name": "D4",
          "midi": 62,
          "time": 159.1222625000031,
          "velocity": 0.7874015748031497,
          "duration": 0.0007375000000138243
        },
        {
          "name": "C5",
          "midi": 72,
          "time": 159.1222625000031,
          "velocity": 0.7874015748031497,
          "duration": 0.0007375000000138243
        },
        {
          "name": "D5",
          "midi": 74,
          "time": 159.1222625000031,
          "velocity": 0.7874015748031497,
          "duration": 0.0007375000000138243
        },
        {
          "name": "C6",
          "midi": 84,
          "time": 159.1222625000031,
          "velocity": 0.7874015748031497,
          "duration": 0.0007375000000138243
        },
        {
          "name": "D6",
          "midi": 86,
          "time": 159.1222625000031,
          "velocity": 0.7874015748031497,
          "duration": 0.0007375000000138243
        },
        {
          "name": "C7",
          "midi": 96,
          "time": 159.1222625000031,
          "velocity": 0.7874015748031497,
          "duration": 0.0007375000000138243
        },
        {
          "name": "D7",
          "midi": 98,
          "time": 159.1222625000031,
          "velocity": 0.7874015748031497,
          "duration": 0.0007375000000138243
        },
        {
          "name": "D4",
          "midi": 62,
          "time": 159.47626250000312,
          "velocity": 0.7874015748031497,
          "duration": 0.0007375000000138243
        },
        {
          "name": "C5",
          "midi": 72,
          "time": 159.47626250000312,
          "velocity": 0.7874015748031497,
          "duration": 0.0007375000000138243
        },
        {
          "name": "D5",
          "midi": 74,
          "time": 159.47626250000312,
          "velocity": 0.7874015748031497,
          "duration": 0.0007375000000138243
        },
        {
          "name": "C6",
          "midi": 84,
          "time": 159.47626250000312,
          "velocity": 0.7874015748031497,
          "duration": 0.0007375000000138243
        },
        {
          "name": "D6",
          "midi": 86,
          "time": 159.47626250000312,
          "velocity": 0.7874015748031497,
          "duration": 0.0007375000000138243
        },
        {
          "name": "C7",
          "midi": 96,
          "time": 159.47626250000312,
          "velocity": 0.7874015748031497,
          "duration": 0.0007375000000138243
        },
        {
          "name": "E7",
          "midi": 100,
          "time": 159.47626250000312,
          "velocity": 0.7874015748031497,
          "duration": 0.0007375000000138243
        },
        {
          "name": "D4",
          "midi": 62,
          "time": 159.83173750000313,
          "velocity": 0.7874015748031497,
          "duration": 0.0007375000000138243
        },
        {
          "name": "C5",
          "midi": 72,
          "time": 159.83173750000313,
          "velocity": 0.7874015748031497,
          "duration": 0.0007375000000138243
        },
        {
          "name": "D5",
          "midi": 74,
          "time": 159.83173750000313,
          "velocity": 0.7874015748031497,
          "duration": 0.0007375000000138243
        },
        {
          "name": "C6",
          "midi": 84,
          "time": 159.83173750000313,
          "velocity": 0.7874015748031497,
          "duration": 0.0007375000000138243
        },
        {
          "name": "D6",
          "midi": 86,
          "time": 159.83173750000313,
          "velocity": 0.7874015748031497,
          "duration": 0.0007375000000138243
        },
        {
          "name": "C7",
          "midi": 96,
          "time": 159.83173750000313,
          "velocity": 0.7874015748031497,
          "duration": 0.0007375000000138243
        },
        {
          "name": "D7",
          "midi": 98,
          "time": 159.83173750000313,
          "velocity": 0.7874015748031497,
          "duration": 0.0007375000000138243
        },
        {
          "name": "G#8",
          "midi": 116,
          "time": 160.18573750000314,
          "velocity": 0.7874015748031497,
          "duration": 0.7957625000000519
        },
        {
          "name": "E4",
          "midi": 64,
          "time": 160.18573750000314,
          "velocity": 0.7874015748031497,
          "duration": 0.0007375000000138243
        },
        {
          "name": "E5",
          "midi": 76,
          "time": 160.18573750000314,
          "velocity": 0.7874015748031497,
          "duration": 0.0007375000000138243
        },
        {
          "name": "C6",
          "midi": 84,
          "time": 160.18573750000314,
          "velocity": 0.7874015748031497,
          "duration": 0.0007375000000138243
        },
        {
          "name": "E6",
          "midi": 88,
          "time": 160.18573750000314,
          "velocity": 0.7874015748031497,
          "duration": 0.0007375000000138243
        },
        {
          "name": "C7",
          "midi": 96,
          "time": 160.18573750000314,
          "velocity": 0.7874015748031497,
          "duration": 0.0007375000000138243
        },
        {
          "name": "E7",
          "midi": 100,
          "time": 160.18573750000314,
          "velocity": 0.7874015748031497,
          "duration": 0.0007375000000138243
        },
        {
          "name": "E4",
          "midi": 64,
          "time": 160.36200000000315,
          "velocity": 0.7874015748031497,
          "duration": 0.0007375000000138243
        },
        {
          "name": "C5",
          "midi": 72,
          "time": 160.36200000000315,
          "velocity": 0.7874015748031497,
          "duration": 0.0007375000000138243
        },
        {
          "name": "E5",
          "midi": 76,
          "time": 160.36200000000315,
          "velocity": 0.7874015748031497,
          "duration": 0.0007375000000138243
        },
        {
          "name": "C6",
          "midi": 84,
          "time": 160.36200000000315,
          "velocity": 0.7874015748031497,
          "duration": 0.0007375000000138243
        },
        {
          "name": "E6",
          "midi": 88,
          "time": 160.36200000000315,
          "velocity": 0.7874015748031497,
          "duration": 0.0007375000000138243
        },
        {
          "name": "C7",
          "midi": 96,
          "time": 160.36200000000315,
          "velocity": 0.7874015748031497,
          "duration": 0.0007375000000138243
        },
        {
          "name": "E7",
          "midi": 100,
          "time": 160.36200000000315,
          "velocity": 0.7874015748031497,
          "duration": 0.0007375000000138243
        },
        {
          "name": "G7",
          "midi": 103,
          "time": 160.36200000000315,
          "velocity": 0.7874015748031497,
          "duration": 10.840512500001438
        },
        {
          "name": "E4",
          "midi": 64,
          "time": 160.71600000000316,
          "velocity": 0.7874015748031497,
          "duration": 0.0007375000000138243
        },
        {
          "name": "E5",
          "midi": 76,
          "time": 160.71600000000316,
          "velocity": 0.7874015748031497,
          "duration": 0.0007375000000138243
        },
        {
          "name": "C6",
          "midi": 84,
          "time": 160.71600000000316,
          "velocity": 0.7874015748031497,
          "duration": 0.0007375000000138243
        },
        {
          "name": "E6",
          "midi": 88,
          "time": 160.71600000000316,
          "velocity": 0.7874015748031497,
          "duration": 0.0007375000000138243
        },
        {
          "name": "C7",
          "midi": 96,
          "time": 160.71600000000316,
          "velocity": 0.7874015748031497,
          "duration": 0.0007375000000138243
        },
        {
          "name": "E7",
          "midi": 100,
          "time": 160.71600000000316,
          "velocity": 0.7874015748031497,
          "duration": 0.0007375000000138243
        },
        {
          "name": "E4",
          "midi": 64,
          "time": 160.89373750000317,
          "velocity": 0.7874015748031497,
          "duration": 0.0007375000000138243
        },
        {
          "name": "C5",
          "midi": 72,
          "time": 160.89373750000317,
          "velocity": 0.7874015748031497,
          "duration": 0.0007375000000138243
        },
        {
          "name": "E5",
          "midi": 76,
          "time": 160.89373750000317,
          "velocity": 0.7874015748031497,
          "duration": 0.0007375000000138243
        },
        {
          "name": "C6",
          "midi": 84,
          "time": 160.89373750000317,
          "velocity": 0.7874015748031497,
          "duration": 0.0007375000000138243
        },
        {
          "name": "E6",
          "midi": 88,
          "time": 160.89373750000317,
          "velocity": 0.7874015748031497,
          "duration": 0.0007375000000138243
        },
        {
          "name": "C7",
          "midi": 96,
          "time": 160.89373750000317,
          "velocity": 0.7874015748031497,
          "duration": 0.0007375000000138243
        },
        {
          "name": "E7",
          "midi": 100,
          "time": 160.89373750000317,
          "velocity": 0.7874015748031497,
          "duration": 0.0007375000000138243
        },
        {
          "name": "D#4",
          "midi": 63,
          "time": 161.24626250000318,
          "velocity": 0.7874015748031497,
          "duration": 0.0007375000000138243
        },
        {
          "name": "D#5",
          "midi": 75,
          "time": 161.24626250000318,
          "velocity": 0.7874015748031497,
          "duration": 0.0007375000000138243
        },
        {
          "name": "D#6",
          "midi": 87,
          "time": 161.24626250000318,
          "velocity": 0.7874015748031497,
          "duration": 0.0007375000000138243
        },
        {
          "name": "D#7",
          "midi": 99,
          "time": 161.24626250000318,
          "velocity": 0.7874015748031497,
          "duration": 0.0007375000000138243
        },
        {
          "name": "D#7",
          "midi": 99,
          "time": 161.3355000000032,
          "velocity": 0.7874015748031497,
          "duration": 0.0007375000000138243
        },
        {
          "name": "D#4",
          "midi": 63,
          "time": 161.42400000000322,
          "velocity": 0.7874015748031497,
          "duration": 0.0007375000000138243
        },
        {
          "name": "D#5",
          "midi": 75,
          "time": 161.42400000000322,
          "velocity": 0.7874015748031497,
          "duration": 0.0007375000000138243
        },
        {
          "name": "D#6",
          "midi": 87,
          "time": 161.42400000000322,
          "velocity": 0.7874015748031497,
          "duration": 0.0007375000000138243
        },
        {
          "name": "D#7",
          "midi": 99,
          "time": 161.42400000000322,
          "velocity": 0.7874015748031497,
          "duration": 0.0007375000000138243
        },
        {
          "name": "D#7",
          "midi": 99,
          "time": 161.51176250000324,
          "velocity": 0.7874015748031497,
          "duration": 0.0007375000000138243
        },
        {
          "name": "D#4",
          "midi": 63,
          "time": 161.60100000000327,
          "velocity": 0.7874015748031497,
          "duration": 0.0007375000000138243
        },
        {
          "name": "D#5",
          "midi": 75,
          "time": 161.60100000000327,
          "velocity": 0.7874015748031497,
          "duration": 0.0007375000000138243
        },
        {
          "name": "D#6",
          "midi": 87,
          "time": 161.60100000000327,
          "velocity": 0.7874015748031497,
          "duration": 0.0007375000000138243
        },
        {
          "name": "D#7",
          "midi": 99,
          "time": 161.60100000000327,
          "velocity": 0.7874015748031497,
          "duration": 0.0007375000000138243
        },
        {
          "name": "D#7",
          "midi": 99,
          "time": 161.6902375000033,
          "velocity": 0.7874015748031497,
          "duration": 0.0007375000000138243
        },
        {
          "name": "D#4",
          "midi": 63,
          "time": 161.77800000000332,
          "velocity": 0.7874015748031497,
          "duration": 0.0007375000000138243
        },
        {
          "name": "D#5",
          "midi": 75,
          "time": 161.77800000000332,
          "velocity": 0.7874015748031497,
          "duration": 0.0007375000000138243
        },
        {
          "name": "D#6",
          "midi": 87,
          "time": 161.77800000000332,
          "velocity": 0.7874015748031497,
          "duration": 0.0007375000000138243
        },
        {
          "name": "D#7",
          "midi": 99,
          "time": 161.77800000000332,
          "velocity": 0.7874015748031497,
          "duration": 0.0007375000000138243
        },
        {
          "name": "D#7",
          "midi": 99,
          "time": 161.86650000000333,
          "velocity": 0.7874015748031497,
          "duration": 0.0007375000000138243
        },
        {
          "name": "F4",
          "midi": 65,
          "time": 161.95573750000335,
          "velocity": 0.7874015748031497,
          "duration": 0.0007375000000138243
        },
        {
          "name": "F5",
          "midi": 77,
          "time": 161.95573750000335,
          "velocity": 0.7874015748031497,
          "duration": 0.0007375000000138243
        },
        {
          "name": "F6",
          "midi": 89,
          "time": 161.95573750000335,
          "velocity": 0.7874015748031497,
          "duration": 0.0007375000000138243
        },
        {
          "name": "F7",
          "midi": 101,
          "time": 161.95573750000335,
          "velocity": 0.7874015748031497,
          "duration": 0.0007375000000138243
        },
        {
          "name": "F7",
          "midi": 101,
          "time": 162.04350000000338,
          "velocity": 0.7874015748031497,
          "duration": 0.0007375000000138243
        },
        {
          "name": "F4",
          "midi": 65,
          "time": 162.1320000000034,
          "velocity": 0.7874015748031497,
          "duration": 0.0007375000000138243
        },
        {
          "name": "F5",
          "midi": 77,
          "time": 162.1320000000034,
          "velocity": 0.7874015748031497,
          "duration": 0.0007375000000138243
        },
        {
          "name": "F6",
          "midi": 89,
          "time": 162.1320000000034,
          "velocity": 0.7874015748031497,
          "duration": 0.0007375000000138243
        },
        {
          "name": "F7",
          "midi": 101,
          "time": 162.1320000000034,
          "velocity": 0.7874015748031497,
          "duration": 0.0007375000000138243
        },
        {
          "name": "F7",
          "midi": 101,
          "time": 162.2205000000034,
          "velocity": 0.7874015748031497,
          "duration": 0.0007375000000138243
        },
        {
          "name": "E4",
          "midi": 64,
          "time": 162.30826250000342,
          "velocity": 0.7874015748031497,
          "duration": 0.0007375000000138243
        },
        {
          "name": "C5",
          "midi": 72,
          "time": 162.30826250000342,
          "velocity": 0.7874015748031497,
          "duration": 0.0007375000000138243
        },
        {
          "name": "E5",
          "midi": 76,
          "time": 162.30826250000342,
          "velocity": 0.7874015748031497,
          "duration": 0.0007375000000138243
        },
        {
          "name": "C6",
          "midi": 84,
          "time": 162.30826250000342,
          "velocity": 0.7874015748031497,
          "duration": 0.0007375000000138243
        },
        {
          "name": "E6",
          "midi": 88,
          "time": 162.30826250000342,
          "velocity": 0.7874015748031497,
          "duration": 0.0007375000000138243
        },
        {
          "name": "C7",
          "midi": 96,
          "time": 162.30826250000342,
          "velocity": 0.7874015748031497,
          "duration": 0.0007375000000138243
        },
        {
          "name": "E7",
          "midi": 100,
          "time": 162.30826250000342,
          "velocity": 0.7874015748031497,
          "duration": 0.0007375000000138243
        },
        {
          "name": "F7",
          "midi": 101,
          "time": 162.39750000000345,
          "velocity": 0.7874015748031497,
          "duration": 0.0007375000000138243
        },
        {
          "name": "F4",
          "midi": 65,
          "time": 162.48600000000346,
          "velocity": 0.7874015748031497,
          "duration": 0.0007375000000138243
        },
        {
          "name": "F5",
          "midi": 77,
          "time": 162.48600000000346,
          "velocity": 0.7874015748031497,
          "duration": 0.0007375000000138243
        },
        {
          "name": "F6",
          "midi": 89,
          "time": 162.48600000000346,
          "velocity": 0.7874015748031497,
          "duration": 0.0007375000000138243
        },
        {
          "name": "F7",
          "midi": 101,
          "time": 162.48600000000346,
          "velocity": 0.7874015748031497,
          "duration": 0.0007375000000138243
        },
        {
          "name": "F7",
          "midi": 101,
          "time": 162.57450000000347,
          "velocity": 0.7874015748031497,
          "duration": 0.0007375000000138243
        },
        {
          "name": "F4",
          "midi": 65,
          "time": 162.6622625000035,
          "velocity": 0.7874015748031497,
          "duration": 0.0007375000000138243
        },
        {
          "name": "F5",
          "midi": 77,
          "time": 162.6622625000035,
          "velocity": 0.7874015748031497,
          "duration": 0.0007375000000138243
        },
        {
          "name": "F6",
          "midi": 89,
          "time": 162.6622625000035,
          "velocity": 0.7874015748031497,
          "duration": 0.0007375000000138243
        },
        {
          "name": "F7",
          "midi": 101,
          "time": 162.6622625000035,
          "velocity": 0.7874015748031497,
          "duration": 0.0007375000000138243
        },
        {
          "name": "F7",
          "midi": 101,
          "time": 162.7507625000035,
          "velocity": 0.7874015748031497,
          "duration": 0.0007375000000138243
        },
        {
          "name": "E4",
          "midi": 64,
          "time": 162.84000000000353,
          "velocity": 0.7874015748031497,
          "duration": 0.0007375000000138243
        },
        {
          "name": "C5",
          "midi": 72,
          "time": 162.84000000000353,
          "velocity": 0.7874015748031497,
          "duration": 0.0007375000000138243
        },
        {
          "name": "E5",
          "midi": 76,
          "time": 162.84000000000353,
          "velocity": 0.7874015748031497,
          "duration": 0.0007375000000138243
        },
        {
          "name": "C6",
          "midi": 84,
          "time": 162.84000000000353,
          "velocity": 0.7874015748031497,
          "duration": 0.0007375000000138243
        },
        {
          "name": "E6",
          "midi": 88,
          "time": 162.84000000000353,
          "velocity": 0.7874015748031497,
          "duration": 0.0007375000000138243
        },
        {
          "name": "C7",
          "midi": 96,
          "time": 162.84000000000353,
          "velocity": 0.7874015748031497,
          "duration": 0.0007375000000138243
        },
        {
          "name": "E7",
          "midi": 100,
          "time": 162.84000000000353,
          "velocity": 0.7874015748031497,
          "duration": 0.0007375000000138243
        },
        {
          "name": "E4",
          "midi": 64,
          "time": 163.01773750000353,
          "velocity": 0.7874015748031497,
          "duration": 0.0007375000000138243
        },
        {
          "name": "E5",
          "midi": 76,
          "time": 163.01773750000353,
          "velocity": 0.7874015748031497,
          "duration": 0.0007375000000138243
        },
        {
          "name": "C6",
          "midi": 84,
          "time": 163.01773750000353,
          "velocity": 0.7874015748031497,
          "duration": 0.0007375000000138243
        },
        {
          "name": "E6",
          "midi": 88,
          "time": 163.01773750000353,
          "velocity": 0.7874015748031497,
          "duration": 0.0007375000000138243
        },
        {
          "name": "C7",
          "midi": 96,
          "time": 163.01773750000353,
          "velocity": 0.7874015748031497,
          "duration": 0.0007375000000138243
        },
        {
          "name": "D7",
          "midi": 98,
          "time": 163.01773750000353,
          "velocity": 0.7874015748031497,
          "duration": 0.0007375000000138243
        },
        {
          "name": "E4",
          "midi": 64,
          "time": 163.19400000000354,
          "velocity": 0.7874015748031497,
          "duration": 0.0007375000000138243
        },
        {
          "name": "C5",
          "midi": 72,
          "time": 163.19400000000354,
          "velocity": 0.7874015748031497,
          "duration": 0.0007375000000138243
        },
        {
          "name": "E5",
          "midi": 76,
          "time": 163.19400000000354,
          "velocity": 0.7874015748031497,
          "duration": 0.0007375000000138243
        },
        {
          "name": "C6",
          "midi": 84,
          "time": 163.19400000000354,
          "velocity": 0.7874015748031497,
          "duration": 0.0007375000000138243
        },
        {
          "name": "E6",
          "midi": 88,
          "time": 163.19400000000354,
          "velocity": 0.7874015748031497,
          "duration": 0.0007375000000138243
        },
        {
          "name": "C7",
          "midi": 96,
          "time": 163.19400000000354,
          "velocity": 0.7874015748031497,
          "duration": 0.0007375000000138243
        },
        {
          "name": "E7",
          "midi": 100,
          "time": 163.19400000000354,
          "velocity": 0.7874015748031497,
          "duration": 0.0007375000000138243
        },
        {
          "name": "E4",
          "midi": 64,
          "time": 163.37100000000356,
          "velocity": 0.7874015748031497,
          "duration": 0.0007375000000138243
        },
        {
          "name": "E5",
          "midi": 76,
          "time": 163.37100000000356,
          "velocity": 0.7874015748031497,
          "duration": 0.0007375000000138243
        },
        {
          "name": "C6",
          "midi": 84,
          "time": 163.37100000000356,
          "velocity": 0.7874015748031497,
          "duration": 0.0007375000000138243
        },
        {
          "name": "E6",
          "midi": 88,
          "time": 163.37100000000356,
          "velocity": 0.7874015748031497,
          "duration": 0.0007375000000138243
        },
        {
          "name": "C7",
          "midi": 96,
          "time": 163.37100000000356,
          "velocity": 0.7874015748031497,
          "duration": 0.0007375000000138243
        },
        {
          "name": "D7",
          "midi": 98,
          "time": 163.37100000000356,
          "velocity": 0.7874015748031497,
          "duration": 0.0007375000000138243
        },
        {
          "name": "E4",
          "midi": 64,
          "time": 163.54800000000358,
          "velocity": 0.7874015748031497,
          "duration": 0.0007375000000138243
        },
        {
          "name": "C5",
          "midi": 72,
          "time": 163.54800000000358,
          "velocity": 0.7874015748031497,
          "duration": 0.0007375000000138243
        },
        {
          "name": "E5",
          "midi": 76,
          "time": 163.54800000000358,
          "velocity": 0.7874015748031497,
          "duration": 0.0007375000000138243
        },
        {
          "name": "C6",
          "midi": 84,
          "time": 163.54800000000358,
          "velocity": 0.7874015748031497,
          "duration": 0.0007375000000138243
        },
        {
          "name": "E6",
          "midi": 88,
          "time": 163.54800000000358,
          "velocity": 0.7874015748031497,
          "duration": 0.0007375000000138243
        },
        {
          "name": "C7",
          "midi": 96,
          "time": 163.54800000000358,
          "velocity": 0.7874015748031497,
          "duration": 0.0007375000000138243
        },
        {
          "name": "E7",
          "midi": 100,
          "time": 163.54800000000358,
          "velocity": 0.7874015748031497,
          "duration": 0.0007375000000138243
        },
        {
          "name": "D#4",
          "midi": 63,
          "time": 164.2560000000036,
          "velocity": 0.7874015748031497,
          "duration": 0.0007375000000138243
        },
        {
          "name": "D#5",
          "midi": 75,
          "time": 164.2560000000036,
          "velocity": 0.7874015748031497,
          "duration": 0.0007375000000138243
        },
        {
          "name": "D#6",
          "midi": 87,
          "time": 164.2560000000036,
          "velocity": 0.7874015748031497,
          "duration": 0.0007375000000138243
        },
        {
          "name": "D#7",
          "midi": 99,
          "time": 164.2560000000036,
          "velocity": 0.7874015748031497,
          "duration": 0.0007375000000138243
        },
        {
          "name": "F5",
          "midi": 77,
          "time": 164.31500000000364,
          "velocity": 0.7874015748031497,
          "duration": 0.0007375000000138243
        },
        {
          "name": "F6",
          "midi": 89,
          "time": 164.31500000000364,
          "velocity": 0.7874015748031497,
          "duration": 0.0007375000000138243
        },
        {
          "name": "F7",
          "midi": 101,
          "time": 164.31500000000364,
          "velocity": 0.7874015748031497,
          "duration": 0.0007375000000138243
        },
        {
          "name": "C7",
          "midi": 96,
          "time": 164.37400000000366,
          "velocity": 0.7874015748031497,
          "duration": 0.0007375000000138243
        },
        {
          "name": "B6",
          "midi": 95,
          "time": 164.43226250000367,
          "velocity": 0.7874015748031497,
          "duration": 0.0007375000000138243
        },
        {
          "name": "D#4",
          "midi": 63,
          "time": 164.49200000000369,
          "velocity": 0.7874015748031497,
          "duration": 0.0007375000000138243
        },
        {
          "name": "D#5",
          "midi": 75,
          "time": 164.49200000000369,
          "velocity": 0.7874015748031497,
          "duration": 0.0007375000000138243
        },
        {
          "name": "D#6",
          "midi": 87,
          "time": 164.49200000000369,
          "velocity": 0.7874015748031497,
          "duration": 0.0007375000000138243
        },
        {
          "name": "D#7",
          "midi": 99,
          "time": 164.49200000000369,
          "velocity": 0.7874015748031497,
          "duration": 0.0007375000000138243
        },
        {
          "name": "F5",
          "midi": 77,
          "time": 164.5510000000037,
          "velocity": 0.7874015748031497,
          "duration": 0.0007375000000138243
        },
        {
          "name": "F6",
          "midi": 89,
          "time": 164.5510000000037,
          "velocity": 0.7874015748031497,
          "duration": 0.0007375000000138243
        },
        {
          "name": "F7",
          "midi": 101,
          "time": 164.5510000000037,
          "velocity": 0.7874015748031497,
          "duration": 0.0007375000000138243
        },
        {
          "name": "C7",
          "midi": 96,
          "time": 164.61000000000374,
          "velocity": 0.7874015748031497,
          "duration": 0.0007375000000138243
        },
        {
          "name": "B6",
          "midi": 95,
          "time": 164.66973750000375,
          "velocity": 0.7874015748031497,
          "duration": 0.0007375000000138243
        },
        {
          "name": "D#4",
          "midi": 63,
          "time": 164.72800000000376,
          "velocity": 0.7874015748031497,
          "duration": 0.0007375000000138243
        },
        {
          "name": "D#5",
          "midi": 75,
          "time": 164.72800000000376,
          "velocity": 0.7874015748031497,
          "duration": 0.0007375000000138243
        },
        {
          "name": "D#6",
          "midi": 87,
          "time": 164.72800000000376,
          "velocity": 0.7874015748031497,
          "duration": 0.0007375000000138243
        },
        {
          "name": "D#7",
          "midi": 99,
          "time": 164.72800000000376,
          "velocity": 0.7874015748031497,
          "duration": 0.0007375000000138243
        },
        {
          "name": "F5",
          "midi": 77,
          "time": 164.7870000000038,
          "velocity": 0.7874015748031497,
          "duration": 0.0007375000000138243
        },
        {
          "name": "F6",
          "midi": 89,
          "time": 164.7870000000038,
          "velocity": 0.7874015748031497,
          "duration": 0.0007375000000138243
        },
        {
          "name": "F7",
          "midi": 101,
          "time": 164.7870000000038,
          "velocity": 0.7874015748031497,
          "duration": 0.0007375000000138243
        },
        {
          "name": "C7",
          "midi": 96,
          "time": 164.8460000000038,
          "velocity": 0.7874015748031497,
          "duration": 0.0007375000000138243
        },
        {
          "name": "B6",
          "midi": 95,
          "time": 164.90500000000384,
          "velocity": 0.7874015748031497,
          "duration": 0.0007375000000138243
        },
        {
          "name": "D#4",
          "midi": 63,
          "time": 164.96400000000386,
          "velocity": 0.7874015748031497,
          "duration": 0.0007375000000138243
        },
        {
          "name": "D#5",
          "midi": 75,
          "time": 164.96400000000386,
          "velocity": 0.7874015748031497,
          "duration": 0.0007375000000138243
        },
        {
          "name": "D#6",
          "midi": 87,
          "time": 164.96400000000386,
          "velocity": 0.7874015748031497,
          "duration": 0.0007375000000138243
        },
        {
          "name": "D#7",
          "midi": 99,
          "time": 164.96400000000386,
          "velocity": 0.7874015748031497,
          "duration": 0.0007375000000138243
        },
        {
          "name": "F5",
          "midi": 77,
          "time": 165.0230000000039,
          "velocity": 0.7874015748031497,
          "duration": 0.0007375000000138243
        },
        {
          "name": "F6",
          "midi": 89,
          "time": 165.0230000000039,
          "velocity": 0.7874015748031497,
          "duration": 0.0007375000000138243
        },
        {
          "name": "F7",
          "midi": 101,
          "time": 165.0230000000039,
          "velocity": 0.7874015748031497,
          "duration": 0.0007375000000138243
        },
        {
          "name": "C7",
          "midi": 96,
          "time": 165.0812625000039,
          "velocity": 0.7874015748031497,
          "duration": 0.0007375000000138243
        },
        {
          "name": "B6",
          "midi": 95,
          "time": 165.1410000000039,
          "velocity": 0.7874015748031497,
          "duration": 0.0007375000000138243
        },
        {
          "name": "D#4",
          "midi": 63,
          "time": 165.20000000000394,
          "velocity": 0.7874015748031497,
          "duration": 0.0007375000000138243
        },
        {
          "name": "D#5",
          "midi": 75,
          "time": 165.20000000000394,
          "velocity": 0.7874015748031497,
          "duration": 0.0007375000000138243
        },
        {
          "name": "D#6",
          "midi": 87,
          "time": 165.20000000000394,
          "velocity": 0.7874015748031497,
          "duration": 0.0007375000000138243
        },
        {
          "name": "D#7",
          "midi": 99,
          "time": 165.20000000000394,
          "velocity": 0.7874015748031497,
          "duration": 0.0007375000000138243
        },
        {
          "name": "F5",
          "midi": 77,
          "time": 165.25826250000395,
          "velocity": 0.7874015748031497,
          "duration": 0.0007375000000138243
        },
        {
          "name": "F6",
          "midi": 89,
          "time": 165.25826250000395,
          "velocity": 0.7874015748031497,
          "duration": 0.0007375000000138243
        },
        {
          "name": "F7",
          "midi": 101,
          "time": 165.25826250000395,
          "velocity": 0.7874015748031497,
          "duration": 0.0007375000000138243
        },
        {
          "name": "C7",
          "midi": 96,
          "time": 165.31800000000396,
          "velocity": 0.7874015748031497,
          "duration": 0.0007375000000138243
        },
        {
          "name": "B6",
          "midi": 95,
          "time": 165.377000000004,
          "velocity": 0.7874015748031497,
          "duration": 0.0007375000000138243
        },
        {
          "name": "D#4",
          "midi": 63,
          "time": 165.43600000000401,
          "velocity": 0.7874015748031497,
          "duration": 0.0007375000000138243
        },
        {
          "name": "D#5",
          "midi": 75,
          "time": 165.43600000000401,
          "velocity": 0.7874015748031497,
          "duration": 0.0007375000000138243
        },
        {
          "name": "D#6",
          "midi": 87,
          "time": 165.43600000000401,
          "velocity": 0.7874015748031497,
          "duration": 0.0007375000000138243
        },
        {
          "name": "D#7",
          "midi": 99,
          "time": 165.43600000000401,
          "velocity": 0.7874015748031497,
          "duration": 0.0007375000000138243
        },
        {
          "name": "F5",
          "midi": 77,
          "time": 165.49426250000403,
          "velocity": 0.7874015748031497,
          "duration": 0.0007375000000138243
        },
        {
          "name": "F6",
          "midi": 89,
          "time": 165.49426250000403,
          "velocity": 0.7874015748031497,
          "duration": 0.0007375000000138243
        },
        {
          "name": "F7",
          "midi": 101,
          "time": 165.49426250000403,
          "velocity": 0.7874015748031497,
          "duration": 0.0007375000000138243
        },
        {
          "name": "C7",
          "midi": 96,
          "time": 165.55400000000404,
          "velocity": 0.7874015748031497,
          "duration": 0.0007375000000138243
        },
        {
          "name": "B6",
          "midi": 95,
          "time": 165.61300000000406,
          "velocity": 0.7874015748031497,
          "duration": 0.0007375000000138243
        },
        {
          "name": "C#4",
          "midi": 61,
          "time": 165.6720000000041,
          "velocity": 0.7874015748031497,
          "duration": 0.0007375000000138243
        },
        {
          "name": "C#5",
          "midi": 73,
          "time": 165.6720000000041,
          "velocity": 0.7874015748031497,
          "duration": 0.0007375000000138243
        },
        {
          "name": "C#6",
          "midi": 85,
          "time": 165.6720000000041,
          "velocity": 0.7874015748031497,
          "duration": 0.0007375000000138243
        },
        {
          "name": "C#7",
          "midi": 97,
          "time": 165.6720000000041,
          "velocity": 0.7874015748031497,
          "duration": 0.0007375000000138243
        },
        {
          "name": "C4",
          "midi": 60,
          "time": 165.8490000000041,
          "velocity": 0.7874015748031497,
          "duration": 0.0007375000000138243
        },
        {
          "name": "C5",
          "midi": 72,
          "time": 165.8490000000041,
          "velocity": 0.7874015748031497,
          "duration": 0.0007375000000138243
        },
        {
          "name": "C6",
          "midi": 84,
          "time": 165.8490000000041,
          "velocity": 0.7874015748031497,
          "duration": 0.0007375000000138243
        },
        {
          "name": "C7",
          "midi": 96,
          "time": 165.8490000000041,
          "velocity": 0.7874015748031497,
          "duration": 0.0007375000000138243
        },
        {
          "name": "C6",
          "midi": 84,
          "time": 166.20373750000414,
          "velocity": 0.7874015748031497,
          "duration": 0.0007375000000138243
        },
        {
          "name": "C7",
          "midi": 96,
          "time": 166.20373750000414,
          "velocity": 0.7874015748031497,
          "duration": 0.0007375000000138243
        },
        {
          "name": "C#4",
          "midi": 61,
          "time": 166.38000000000415,
          "velocity": 0.7874015748031497,
          "duration": 0.0007375000000138243
        },
        {
          "name": "C#5",
          "midi": 73,
          "time": 166.38000000000415,
          "velocity": 0.7874015748031497,
          "duration": 0.0007375000000138243
        },
        {
          "name": "E5",
          "midi": 76,
          "time": 166.38000000000415,
          "velocity": 0.7874015748031497,
          "duration": 0.0007375000000138243
        },
        {
          "name": "C#6",
          "midi": 85,
          "time": 166.38000000000415,
          "velocity": 0.7874015748031497,
          "duration": 0.0007375000000138243
        },
        {
          "name": "E6",
          "midi": 88,
          "time": 166.38000000000415,
          "velocity": 0.7874015748031497,
          "duration": 0.0007375000000138243
        },
        {
          "name": "C#7",
          "midi": 97,
          "time": 166.38000000000415,
          "velocity": 0.7874015748031497,
          "duration": 0.0007375000000138243
        },
        {
          "name": "E7",
          "midi": 100,
          "time": 166.38000000000415,
          "velocity": 0.7874015748031497,
          "duration": 0.0007375000000138243
        },
        {
          "name": "D#4",
          "midi": 63,
          "time": 166.73400000000416,
          "velocity": 0.7874015748031497,
          "duration": 0.0007375000000138243
        },
        {
          "name": "D#5",
          "midi": 75,
          "time": 166.73400000000416,
          "velocity": 0.7874015748031497,
          "duration": 0.0007375000000138243
        },
        {
          "name": "D#6",
          "midi": 87,
          "time": 166.73400000000416,
          "velocity": 0.7874015748031497,
          "duration": 0.0007375000000138243
        },
        {
          "name": "D#7",
          "midi": 99,
          "time": 166.73400000000416,
          "velocity": 0.7874015748031497,
          "duration": 0.0007375000000138243
        },
        {
          "name": "D#6",
          "midi": 87,
          "time": 166.82176250000418,
          "velocity": 0.7874015748031497,
          "duration": 0.0007375000000138243
        },
        {
          "name": "D#7",
          "midi": 99,
          "time": 166.82176250000418,
          "velocity": 0.7874015748031497,
          "duration": 0.0007375000000138243
        },
        {
          "name": "D#4",
          "midi": 63,
          "time": 166.9110000000042,
          "velocity": 0.7874015748031497,
          "duration": 0.0007375000000138243
        },
        {
          "name": "D#5",
          "midi": 75,
          "time": 166.9110000000042,
          "velocity": 0.7874015748031497,
          "duration": 0.0007375000000138243
        },
        {
          "name": "D#6",
          "midi": 87,
          "time": 166.9110000000042,
          "velocity": 0.7874015748031497,
          "duration": 0.0007375000000138243
        },
        {
          "name": "D#7",
          "midi": 99,
          "time": 166.9110000000042,
          "velocity": 0.7874015748031497,
          "duration": 0.0007375000000138243
        },
        {
          "name": "D#6",
          "midi": 87,
          "time": 167.00023750000423,
          "velocity": 0.7874015748031497,
          "duration": 0.0007375000000138243
        },
        {
          "name": "D#7",
          "midi": 99,
          "time": 167.00023750000423,
          "velocity": 0.7874015748031497,
          "duration": 0.0007375000000138243
        },
        {
          "name": "E4",
          "midi": 64,
          "time": 167.08800000000426,
          "velocity": 0.7874015748031497,
          "duration": 0.0007375000000138243
        },
        {
          "name": "C5",
          "midi": 72,
          "time": 167.08800000000426,
          "velocity": 0.7874015748031497,
          "duration": 0.0007375000000138243
        },
        {
          "name": "E5",
          "midi": 76,
          "time": 167.08800000000426,
          "velocity": 0.7874015748031497,
          "duration": 0.0007375000000138243
        },
        {
          "name": "C6",
          "midi": 84,
          "time": 167.08800000000426,
          "velocity": 0.7874015748031497,
          "duration": 0.0007375000000138243
        },
        {
          "name": "E6",
          "midi": 88,
          "time": 167.08800000000426,
          "velocity": 0.7874015748031497,
          "duration": 0.0007375000000138243
        },
        {
          "name": "C7",
          "midi": 96,
          "time": 167.08800000000426,
          "velocity": 0.7874015748031497,
          "duration": 0.0007375000000138243
        },
        {
          "name": "E7",
          "midi": 100,
          "time": 167.08800000000426,
          "velocity": 0.7874015748031497,
          "duration": 0.0007375000000138243
        },
        {
          "name": "E4",
          "midi": 64,
          "time": 167.35276250000427,
          "velocity": 0.7874015748031497,
          "duration": 0.0007375000000138243
        },
        {
          "name": "E5",
          "midi": 76,
          "time": 167.35276250000427,
          "velocity": 0.7874015748031497,
          "duration": 0.0007375000000138243
        },
        {
          "name": "C6",
          "midi": 84,
          "time": 167.35276250000427,
          "velocity": 0.7874015748031497,
          "duration": 0.0007375000000138243
        },
        {
          "name": "E6",
          "midi": 88,
          "time": 167.35276250000427,
          "velocity": 0.7874015748031497,
          "duration": 0.0007375000000138243
        },
        {
          "name": "C7",
          "midi": 96,
          "time": 167.35276250000427,
          "velocity": 0.7874015748031497,
          "duration": 0.0007375000000138243
        },
        {
          "name": "D7",
          "midi": 98,
          "time": 167.35276250000427,
          "velocity": 0.7874015748031497,
          "duration": 0.0007375000000138243
        },
        {
          "name": "E4",
          "midi": 64,
          "time": 167.61826250000428,
          "velocity": 0.7874015748031497,
          "duration": 0.0007375000000138243
        },
        {
          "name": "C5",
          "midi": 72,
          "time": 167.61826250000428,
          "velocity": 0.7874015748031497,
          "duration": 0.0007375000000138243
        },
        {
          "name": "E5",
          "midi": 76,
          "time": 167.61826250000428,
          "velocity": 0.7874015748031497,
          "duration": 0.0007375000000138243
        },
        {
          "name": "C6",
          "midi": 84,
          "time": 167.61826250000428,
          "velocity": 0.7874015748031497,
          "duration": 0.0007375000000138243
        },
        {
          "name": "E6",
          "midi": 88,
          "time": 167.61826250000428,
          "velocity": 0.7874015748031497,
          "duration": 0.0007375000000138243
        },
        {
          "name": "C7",
          "midi": 96,
          "time": 167.61826250000428,
          "velocity": 0.7874015748031497,
          "duration": 0.0007375000000138243
        },
        {
          "name": "E7",
          "midi": 100,
          "time": 167.61826250000428,
          "velocity": 0.7874015748031497,
          "duration": 0.0007375000000138243
        },
        {
          "name": "E4",
          "midi": 64,
          "time": 167.8845000000043,
          "velocity": 0.7874015748031497,
          "duration": 0.0007375000000138243
        },
        {
          "name": "E5",
          "midi": 76,
          "time": 167.8845000000043,
          "velocity": 0.7874015748031497,
          "duration": 0.0007375000000138243
        },
        {
          "name": "C6",
          "midi": 84,
          "time": 167.8845000000043,
          "velocity": 0.7874015748031497,
          "duration": 0.0007375000000138243
        },
        {
          "name": "E6",
          "midi": 88,
          "time": 167.8845000000043,
          "velocity": 0.7874015748031497,
          "duration": 0.0007375000000138243
        },
        {
          "name": "C7",
          "midi": 96,
          "time": 167.8845000000043,
          "velocity": 0.7874015748031497,
          "duration": 0.0007375000000138243
        },
        {
          "name": "D7",
          "midi": 98,
          "time": 167.8845000000043,
          "velocity": 0.7874015748031497,
          "duration": 0.0007375000000138243
        },
        {
          "name": "E4",
          "midi": 64,
          "time": 168.1500000000043,
          "velocity": 0.7874015748031497,
          "duration": 0.0007375000000138243
        },
        {
          "name": "C5",
          "midi": 72,
          "time": 168.1500000000043,
          "velocity": 0.7874015748031497,
          "duration": 0.0007375000000138243
        },
        {
          "name": "E5",
          "midi": 76,
          "time": 168.1500000000043,
          "velocity": 0.7874015748031497,
          "duration": 0.0007375000000138243
        },
        {
          "name": "C6",
          "midi": 84,
          "time": 168.1500000000043,
          "velocity": 0.7874015748031497,
          "duration": 0.0007375000000138243
        },
        {
          "name": "E6",
          "midi": 88,
          "time": 168.1500000000043,
          "velocity": 0.7874015748031497,
          "duration": 0.0007375000000138243
        },
        {
          "name": "C7",
          "midi": 96,
          "time": 168.1500000000043,
          "velocity": 0.7874015748031497,
          "duration": 0.0007375000000138243
        },
        {
          "name": "E7",
          "midi": 100,
          "time": 168.1500000000043,
          "velocity": 0.7874015748031497,
          "duration": 0.0007375000000138243
        },
        {
          "name": "G#8",
          "midi": 116,
          "time": 168.5040000000043,
          "velocity": 0.7874015748031497,
          "duration": 0.7965000000000373
        },
        {
          "name": "D#4",
          "midi": 63,
          "time": 168.5040000000043,
          "velocity": 0.7874015748031497,
          "duration": 0.0007375000000138243
        },
        {
          "name": "D#5",
          "midi": 75,
          "time": 168.5040000000043,
          "velocity": 0.7874015748031497,
          "duration": 0.0007375000000138243
        },
        {
          "name": "D#6",
          "midi": 87,
          "time": 168.5040000000043,
          "velocity": 0.7874015748031497,
          "duration": 0.0007375000000138243
        },
        {
          "name": "F6",
          "midi": 89,
          "time": 168.5040000000043,
          "velocity": 0.7874015748031497,
          "duration": 0.0007375000000138243
        },
        {
          "name": "D#7",
          "midi": 99,
          "time": 168.5040000000043,
          "velocity": 0.7874015748031497,
          "duration": 0.0007375000000138243
        },
        {
          "name": "F7",
          "midi": 101,
          "time": 168.5040000000043,
          "velocity": 0.7874015748031497,
          "duration": 0.0007375000000138243
        },
        {
          "name": "D#4",
          "midi": 63,
          "time": 168.68026250000432,
          "velocity": 0.7874015748031497,
          "duration": 0.0007375000000138243
        },
        {
          "name": "D#5",
          "midi": 75,
          "time": 168.68026250000432,
          "velocity": 0.7874015748031497,
          "duration": 0.0007375000000138243
        },
        {
          "name": "D#6",
          "midi": 87,
          "time": 168.68026250000432,
          "velocity": 0.7874015748031497,
          "duration": 0.0007375000000138243
        },
        {
          "name": "F6",
          "midi": 89,
          "time": 168.68026250000432,
          "velocity": 0.7874015748031497,
          "duration": 0.0007375000000138243
        },
        {
          "name": "D#7",
          "midi": 99,
          "time": 168.68026250000432,
          "velocity": 0.7874015748031497,
          "duration": 0.0007375000000138243
        },
        {
          "name": "F7",
          "midi": 101,
          "time": 168.68026250000432,
          "velocity": 0.7874015748031497,
          "duration": 0.0007375000000138243
        },
        {
          "name": "D#4",
          "midi": 63,
          "time": 168.85800000000432,
          "velocity": 0.7874015748031497,
          "duration": 0.0007375000000138243
        },
        {
          "name": "D#5",
          "midi": 75,
          "time": 168.85800000000432,
          "velocity": 0.7874015748031497,
          "duration": 0.0007375000000138243
        },
        {
          "name": "D#6",
          "midi": 87,
          "time": 168.85800000000432,
          "velocity": 0.7874015748031497,
          "duration": 0.0007375000000138243
        },
        {
          "name": "F6",
          "midi": 89,
          "time": 168.85800000000432,
          "velocity": 0.7874015748031497,
          "duration": 0.0007375000000138243
        },
        {
          "name": "D#7",
          "midi": 99,
          "time": 168.85800000000432,
          "velocity": 0.7874015748031497,
          "duration": 0.0007375000000138243
        },
        {
          "name": "F7",
          "midi": 101,
          "time": 168.85800000000432,
          "velocity": 0.7874015748031497,
          "duration": 0.0007375000000138243
        },
        {
          "name": "D#4",
          "midi": 63,
          "time": 169.03573750000433,
          "velocity": 0.7874015748031497,
          "duration": 0.0007375000000138243
        },
        {
          "name": "D#5",
          "midi": 75,
          "time": 169.03573750000433,
          "velocity": 0.7874015748031497,
          "duration": 0.0007375000000138243
        },
        {
          "name": "D#6",
          "midi": 87,
          "time": 169.03573750000433,
          "velocity": 0.7874015748031497,
          "duration": 0.0007375000000138243
        },
        {
          "name": "F6",
          "midi": 89,
          "time": 169.03573750000433,
          "velocity": 0.7874015748031497,
          "duration": 0.0007375000000138243
        },
        {
          "name": "D#7",
          "midi": 99,
          "time": 169.03573750000433,
          "velocity": 0.7874015748031497,
          "duration": 0.0007375000000138243
        },
        {
          "name": "F7",
          "midi": 101,
          "time": 169.03573750000433,
          "velocity": 0.7874015748031497,
          "duration": 0.0007375000000138243
        },
        {
          "name": "E4",
          "midi": 64,
          "time": 169.21200000000434,
          "velocity": 0.7874015748031497,
          "duration": 0.0007375000000138243
        },
        {
          "name": "C5",
          "midi": 72,
          "time": 169.21200000000434,
          "velocity": 0.7874015748031497,
          "duration": 0.0007375000000138243
        },
        {
          "name": "E5",
          "midi": 76,
          "time": 169.21200000000434,
          "velocity": 0.7874015748031497,
          "duration": 0.0007375000000138243
        },
        {
          "name": "C6",
          "midi": 84,
          "time": 169.21200000000434,
          "velocity": 0.7874015748031497,
          "duration": 0.0007375000000138243
        },
        {
          "name": "E6",
          "midi": 88,
          "time": 169.21200000000434,
          "velocity": 0.7874015748031497,
          "duration": 0.0007375000000138243
        },
        {
          "name": "C7",
          "midi": 96,
          "time": 169.21200000000434,
          "velocity": 0.7874015748031497,
          "duration": 0.0007375000000138243
        },
        {
          "name": "E7",
          "midi": 100,
          "time": 169.21200000000434,
          "velocity": 0.7874015748031497,
          "duration": 0.0007375000000138243
        },
        {
          "name": "D#4",
          "midi": 63,
          "time": 169.56600000000435,
          "velocity": 0.7874015748031497,
          "duration": 0.0007375000000138243
        },
        {
          "name": "D#5",
          "midi": 75,
          "time": 169.56600000000435,
          "velocity": 0.7874015748031497,
          "duration": 0.0007375000000138243
        },
        {
          "name": "D#6",
          "midi": 87,
          "time": 169.56600000000435,
          "velocity": 0.7874015748031497,
          "duration": 0.0007375000000138243
        },
        {
          "name": "D#7",
          "midi": 99,
          "time": 169.56600000000435,
          "velocity": 0.7874015748031497,
          "duration": 0.0007375000000138243
        },
        {
          "name": "D#7",
          "midi": 99,
          "time": 169.65450000000436,
          "velocity": 0.7874015748031497,
          "duration": 0.0007375000000138243
        },
        {
          "name": "D#4",
          "midi": 63,
          "time": 169.7422625000044,
          "velocity": 0.7874015748031497,
          "duration": 0.0007375000000138243
        },
        {
          "name": "D#5",
          "midi": 75,
          "time": 169.7422625000044,
          "velocity": 0.7874015748031497,
          "duration": 0.0007375000000138243
        },
        {
          "name": "D#6",
          "midi": 87,
          "time": 169.7422625000044,
          "velocity": 0.7874015748031497,
          "duration": 0.0007375000000138243
        },
        {
          "name": "D#7",
          "midi": 99,
          "time": 169.7422625000044,
          "velocity": 0.7874015748031497,
          "duration": 0.0007375000000138243
        },
        {
          "name": "D#7",
          "midi": 99,
          "time": 169.8315000000044,
          "velocity": 0.7874015748031497,
          "duration": 0.0007375000000138243
        },
        {
          "name": "E4",
          "midi": 64,
          "time": 169.92000000000442,
          "velocity": 0.7874015748031497,
          "duration": 0.0007375000000138243
        },
        {
          "name": "C5",
          "midi": 72,
          "time": 169.92000000000442,
          "velocity": 0.7874015748031497,
          "duration": 0.0007375000000138243
        },
        {
          "name": "E5",
          "midi": 76,
          "time": 169.92000000000442,
          "velocity": 0.7874015748031497,
          "duration": 0.0007375000000138243
        },
        {
          "name": "C6",
          "midi": 84,
          "time": 169.92000000000442,
          "velocity": 0.7874015748031497,
          "duration": 0.0007375000000138243
        },
        {
          "name": "E6",
          "midi": 88,
          "time": 169.92000000000442,
          "velocity": 0.7874015748031497,
          "duration": 0.0007375000000138243
        },
        {
          "name": "C7",
          "midi": 96,
          "time": 169.92000000000442,
          "velocity": 0.7874015748031497,
          "duration": 0.0007375000000138243
        },
        {
          "name": "E7",
          "midi": 100,
          "time": 169.92000000000442,
          "velocity": 0.7874015748031497,
          "duration": 0.0007375000000138243
        },
        {
          "name": "D#4",
          "midi": 63,
          "time": 170.09773750000443,
          "velocity": 0.7874015748031497,
          "duration": 0.0007375000000138243
        },
        {
          "name": "D#5",
          "midi": 75,
          "time": 170.09773750000443,
          "velocity": 0.7874015748031497,
          "duration": 0.0007375000000138243
        },
        {
          "name": "D#6",
          "midi": 87,
          "time": 170.09773750000443,
          "velocity": 0.7874015748031497,
          "duration": 0.0007375000000138243
        },
        {
          "name": "D#7",
          "midi": 99,
          "time": 170.09773750000443,
          "velocity": 0.7874015748031497,
          "duration": 0.0007375000000138243
        },
        {
          "name": "D#7",
          "midi": 99,
          "time": 170.18550000000445,
          "velocity": 0.7874015748031497,
          "duration": 0.0007375000000138243
        },
        {
          "name": "D#4",
          "midi": 63,
          "time": 170.27400000000446,
          "velocity": 0.7874015748031497,
          "duration": 0.0007375000000138243
        },
        {
          "name": "D#5",
          "midi": 75,
          "time": 170.27400000000446,
          "velocity": 0.7874015748031497,
          "duration": 0.0007375000000138243
        },
        {
          "name": "D#6",
          "midi": 87,
          "time": 170.27400000000446,
          "velocity": 0.7874015748031497,
          "duration": 0.0007375000000138243
        },
        {
          "name": "D#7",
          "midi": 99,
          "time": 170.27400000000446,
          "velocity": 0.7874015748031497,
          "duration": 0.0007375000000138243
        },
        {
          "name": "D#7",
          "midi": 99,
          "time": 170.36250000000447,
          "velocity": 0.7874015748031497,
          "duration": 0.0007375000000138243
        },
        {
          "name": "E4",
          "midi": 64,
          "time": 170.4517375000045,
          "velocity": 0.7874015748031497,
          "duration": 0.0007375000000138243
        },
        {
          "name": "C5",
          "midi": 72,
          "time": 170.4517375000045,
          "velocity": 0.7874015748031497,
          "duration": 0.0007375000000138243
        },
        {
          "name": "E5",
          "midi": 76,
          "time": 170.4517375000045,
          "velocity": 0.7874015748031497,
          "duration": 0.0007375000000138243
        },
        {
          "name": "C6",
          "midi": 84,
          "time": 170.4517375000045,
          "velocity": 0.7874015748031497,
          "duration": 0.0007375000000138243
        },
        {
          "name": "E6",
          "midi": 88,
          "time": 170.4517375000045,
          "velocity": 0.7874015748031497,
          "duration": 0.0007375000000138243
        },
        {
          "name": "C7",
          "midi": 96,
          "time": 170.4517375000045,
          "velocity": 0.7874015748031497,
          "duration": 0.0007375000000138243
        },
        {
          "name": "D7",
          "midi": 98,
          "time": 170.4517375000045,
          "velocity": 0.7874015748031497,
          "duration": 0.0007375000000138243
        },
        {
          "name": "F4",
          "midi": 65,
          "time": 170.6280000000045,
          "velocity": 0.7874015748031497,
          "duration": 0.0007375000000138243
        },
        {
          "name": "F5",
          "midi": 77,
          "time": 170.6280000000045,
          "velocity": 0.7874015748031497,
          "duration": 0.0007375000000138243
        },
        {
          "name": "F7",
          "midi": 101,
          "time": 170.6280000000045,
          "velocity": 0.7874015748031497,
          "duration": 0.0007375000000138243
        },
        {
          "name": "F6",
          "midi": 89,
          "time": 170.71650000000452,
          "velocity": 0.7874015748031497,
          "duration": 0.0007375000000138243
        },
        {
          "name": "F7",
          "midi": 101,
          "time": 170.71650000000452,
          "velocity": 0.7874015748031497,
          "duration": 0.0007375000000138243
        },
        {
          "name": "F4",
          "midi": 65,
          "time": 170.80573750000454,
          "velocity": 0.7874015748031497,
          "duration": 0.0007375000000138243
        },
        {
          "name": "F5",
          "midi": 77,
          "time": 170.80573750000454,
          "velocity": 0.7874015748031497,
          "duration": 0.0007375000000138243
        },
        {
          "name": "F7",
          "midi": 101,
          "time": 170.80573750000454,
          "velocity": 0.7874015748031497,
          "duration": 0.0007375000000138243
        },
        {
          "name": "F6",
          "midi": 89,
          "time": 170.89350000000456,
          "velocity": 0.7874015748031497,
          "duration": 0.0007375000000138243
        },
        {
          "name": "F7",
          "midi": 101,
          "time": 170.89350000000456,
          "velocity": 0.7874015748031497,
          "duration": 0.0007375000000138243
        },
        {
          "name": "E4",
          "midi": 64,
          "time": 170.98200000000458,
          "velocity": 0.7874015748031497,
          "duration": 0.0007375000000138243
        },
        {
          "name": "C5",
          "midi": 72,
          "time": 170.98200000000458,
          "velocity": 0.7874015748031497,
          "duration": 0.0007375000000138243
        },
        {
          "name": "E5",
          "midi": 76,
          "time": 170.98200000000458,
          "velocity": 0.7874015748031497,
          "duration": 0.0007375000000138243
        },
        {
          "name": "C6",
          "midi": 84,
          "time": 170.98200000000458,
          "velocity": 0.7874015748031497,
          "duration": 0.0007375000000138243
        },
        {
          "name": "E6",
          "midi": 88,
          "time": 170.98200000000458,
          "velocity": 0.7874015748031497,
          "duration": 0.0007375000000138243
        },
        {
          "name": "C7",
          "midi": 96,
          "time": 170.98200000000458,
          "velocity": 0.7874015748031497,
          "duration": 0.0007375000000138243
        },
        {
          "name": "E7",
          "midi": 100,
          "time": 170.98200000000458,
          "velocity": 0.7874015748031497,
          "duration": 0.0007375000000138243
        },
        {
          "name": "C6",
          "midi": 84,
          "time": 171.15973750000458,
          "velocity": 0.7874015748031497,
          "duration": 0.0007375000000138243
        },
        {
          "name": "E6",
          "midi": 88,
          "time": 171.15973750000458,
          "velocity": 0.7874015748031497,
          "duration": 0.0007375000000138243
        },
        {
          "name": "C7",
          "midi": 96,
          "time": 171.15973750000458,
          "velocity": 0.7874015748031497,
          "duration": 0.0007375000000138243
        },
        {
          "name": "D7",
          "midi": 98,
          "time": 171.15973750000458,
          "velocity": 0.7874015748031497,
          "duration": 0.0007375000000138243
        },
        {
          "name": "C#4",
          "midi": 61,
          "time": 171.3360000000046,
          "velocity": 0.7874015748031497,
          "duration": 0.0007375000000138243
        },
        {
          "name": "C#5",
          "midi": 73,
          "time": 171.3360000000046,
          "velocity": 0.7874015748031497,
          "duration": 0.0007375000000138243
        },
        {
          "name": "E5",
          "midi": 76,
          "time": 171.3360000000046,
          "velocity": 0.7874015748031497,
          "duration": 0.0007375000000138243
        },
        {
          "name": "C#6",
          "midi": 85,
          "time": 171.3360000000046,
          "velocity": 0.7874015748031497,
          "duration": 0.0007375000000138243
        },
        {
          "name": "E6",
          "midi": 88,
          "time": 171.3360000000046,
          "velocity": 0.7874015748031497,
          "duration": 0.0007375000000138243
        },
        {
          "name": "C#7",
          "midi": 97,
          "time": 171.3360000000046,
          "velocity": 0.7874015748031497,
          "duration": 0.0007375000000138243
        },
        {
          "name": "E7",
          "midi": 100,
          "time": 171.3360000000046,
          "velocity": 0.7874015748031497,
          "duration": 0.0007375000000138243
        },
        {
          "name": "C5",
          "midi": 72,
          "time": 171.5130000000046,
          "velocity": 0.7874015748031497,
          "duration": 0.0007375000000138243
        },
        {
          "name": "C6",
          "midi": 84,
          "time": 171.5130000000046,
          "velocity": 0.7874015748031497,
          "duration": 0.0007375000000138243
        },
        {
          "name": "C7",
          "midi": 96,
          "time": 171.5130000000046,
          "velocity": 0.7874015748031497,
          "duration": 0.0007375000000138243
        },
        {
          "name": "C#4",
          "midi": 61,
          "time": 171.69000000000463,
          "velocity": 0.7874015748031497,
          "duration": 0.0007375000000138243
        },
        {
          "name": "C#5",
          "midi": 73,
          "time": 171.69000000000463,
          "velocity": 0.7874015748031497,
          "duration": 0.0007375000000138243
        },
        {
          "name": "E5",
          "midi": 76,
          "time": 171.69000000000463,
          "velocity": 0.7874015748031497,
          "duration": 0.0007375000000138243
        },
        {
          "name": "C#6",
          "midi": 85,
          "time": 171.69000000000463,
          "velocity": 0.7874015748031497,
          "duration": 0.0007375000000138243
        },
        {
          "name": "E6",
          "midi": 88,
          "time": 171.69000000000463,
          "velocity": 0.7874015748031497,
          "duration": 0.0007375000000138243
        },
        {
          "name": "C#7",
          "midi": 97,
          "time": 171.69000000000463,
          "velocity": 0.7874015748031497,
          "duration": 0.0007375000000138243
        },
        {
          "name": "E7",
          "midi": 100,
          "time": 171.69000000000463,
          "velocity": 0.7874015748031497,
          "duration": 0.0007375000000138243
        },
        {
          "name": "C6",
          "midi": 84,
          "time": 171.86773750000464,
          "velocity": 0.7874015748031497,
          "duration": 0.0007375000000138243
        },
        {
          "name": "C7",
          "midi": 96,
          "time": 171.86773750000464,
          "velocity": 0.7874015748031497,
          "duration": 0.0007375000000138243
        },
        {
          "name": "C#4",
          "midi": 61,
          "time": 172.04400000000464,
          "velocity": 0.7874015748031497,
          "duration": 0.0007375000000138243
        },
        {
          "name": "C#5",
          "midi": 73,
          "time": 172.04400000000464,
          "velocity": 0.7874015748031497,
          "duration": 0.0007375000000138243
        },
        {
          "name": "D5",
          "midi": 74,
          "time": 172.04400000000464,
          "velocity": 0.7874015748031497,
          "duration": 0.0007375000000138243
        },
        {
          "name": "C#6",
          "midi": 85,
          "time": 172.04400000000464,
          "velocity": 0.7874015748031497,
          "duration": 0.0007375000000138243
        },
        {
          "name": "D6",
          "midi": 86,
          "time": 172.04400000000464,
          "velocity": 0.7874015748031497,
          "duration": 0.0007375000000138243
        },
        {
          "name": "C#7",
          "midi": 97,
          "time": 172.04400000000464,
          "velocity": 0.7874015748031497,
          "duration": 0.0007375000000138243
        },
        {
          "name": "D7",
          "midi": 98,
          "time": 172.04400000000464,
          "velocity": 0.7874015748031497,
          "duration": 0.0007375000000138243
        },
        {
          "name": "D7",
          "midi": 98,
          "time": 172.22100000000466,
          "velocity": 0.7874015748031497,
          "duration": 0.0007375000000138243
        },
        {
          "name": "D4",
          "midi": 62,
          "time": 172.39800000000469,
          "velocity": 0.7874015748031497,
          "duration": 0.0007375000000138243
        },
        {
          "name": "D5",
          "midi": 74,
          "time": 172.39800000000469,
          "velocity": 0.7874015748031497,
          "duration": 0.0007375000000138243
        },
        {
          "name": "D6",
          "midi": 86,
          "time": 172.39800000000469,
          "velocity": 0.7874015748031497,
          "duration": 0.0007375000000138243
        },
        {
          "name": "D7",
          "midi": 98,
          "time": 172.39800000000469,
          "velocity": 0.7874015748031497,
          "duration": 0.0007375000000138243
        },
        {
          "name": "C6",
          "midi": 84,
          "time": 172.5750000000047,
          "velocity": 0.7874015748031497,
          "duration": 0.0007375000000138243
        },
        {
          "name": "C7",
          "midi": 96,
          "time": 172.5750000000047,
          "velocity": 0.7874015748031497,
          "duration": 0.0007375000000138243
        },
        {
          "name": "D7",
          "midi": 98,
          "time": 172.5750000000047,
          "velocity": 0.7874015748031497,
          "duration": 0.0007375000000138243
        },
        {
          "name": "C#4",
          "midi": 61,
          "time": 172.75200000000473,
          "velocity": 0.7874015748031497,
          "duration": 0.0007375000000138243
        },
        {
          "name": "C#5",
          "midi": 73,
          "time": 172.75200000000473,
          "velocity": 0.7874015748031497,
          "duration": 0.0007375000000138243
        },
        {
          "name": "D5",
          "midi": 74,
          "time": 172.75200000000473,
          "velocity": 0.7874015748031497,
          "duration": 0.0007375000000138243
        },
        {
          "name": "C#6",
          "midi": 85,
          "time": 172.75200000000473,
          "velocity": 0.7874015748031497,
          "duration": 0.0007375000000138243
        },
        {
          "name": "D6",
          "midi": 86,
          "time": 172.75200000000473,
          "velocity": 0.7874015748031497,
          "duration": 0.0007375000000138243
        },
        {
          "name": "C#7",
          "midi": 97,
          "time": 172.75200000000473,
          "velocity": 0.7874015748031497,
          "duration": 0.0007375000000138243
        },
        {
          "name": "D7",
          "midi": 98,
          "time": 172.75200000000473,
          "velocity": 0.7874015748031497,
          "duration": 0.0007375000000138243
        },
        {
          "name": "D7",
          "midi": 98,
          "time": 172.92900000000475,
          "velocity": 0.7874015748031497,
          "duration": 0.0007375000000138243
        },
        {
          "name": "D4",
          "midi": 62,
          "time": 173.10600000000477,
          "velocity": 0.7874015748031497,
          "duration": 0.0007375000000138243
        },
        {
          "name": "D5",
          "midi": 74,
          "time": 173.10600000000477,
          "velocity": 0.7874015748031497,
          "duration": 0.0007375000000138243
        },
        {
          "name": "D6",
          "midi": 86,
          "time": 173.10600000000477,
          "velocity": 0.7874015748031497,
          "duration": 0.0007375000000138243
        },
        {
          "name": "D7",
          "midi": 98,
          "time": 173.10600000000477,
          "velocity": 0.7874015748031497,
          "duration": 0.0007375000000138243
        },
        {
          "name": "C5",
          "midi": 72,
          "time": 173.28226250000478,
          "velocity": 0.7874015748031497,
          "duration": 0.0007375000000138243
        },
        {
          "name": "C6",
          "midi": 84,
          "time": 173.28226250000478,
          "velocity": 0.7874015748031497,
          "duration": 0.0007375000000138243
        },
        {
          "name": "C7",
          "midi": 96,
          "time": 173.28226250000478,
          "velocity": 0.7874015748031497,
          "duration": 0.0007375000000138243
        },
        {
          "name": "D7",
          "midi": 98,
          "time": 173.28226250000478,
          "velocity": 0.7874015748031497,
          "duration": 0.0007375000000138243
        },
        {
          "name": "C#4",
          "midi": 61,
          "time": 173.46000000000478,
          "velocity": 0.7874015748031497,
          "duration": 0.0007375000000138243
        },
        {
          "name": "C#5",
          "midi": 73,
          "time": 173.46000000000478,
          "velocity": 0.7874015748031497,
          "duration": 0.0007375000000138243
        },
        {
          "name": "D5",
          "midi": 74,
          "time": 173.46000000000478,
          "velocity": 0.7874015748031497,
          "duration": 0.0007375000000138243
        },
        {
          "name": "C#6",
          "midi": 85,
          "time": 173.46000000000478,
          "velocity": 0.7874015748031497,
          "duration": 0.0007375000000138243
        },
        {
          "name": "D6",
          "midi": 86,
          "time": 173.46000000000478,
          "velocity": 0.7874015748031497,
          "duration": 0.0007375000000138243
        },
        {
          "name": "C#7",
          "midi": 97,
          "time": 173.46000000000478,
          "velocity": 0.7874015748031497,
          "duration": 0.0007375000000138243
        },
        {
          "name": "D7",
          "midi": 98,
          "time": 173.46000000000478,
          "velocity": 0.7874015748031497,
          "duration": 0.0007375000000138243
        },
        {
          "name": "D7",
          "midi": 98,
          "time": 173.6377375000048,
          "velocity": 0.7874015748031497,
          "duration": 0.0007375000000138243
        },
        {
          "name": "D4",
          "midi": 62,
          "time": 173.8140000000048,
          "velocity": 0.7874015748031497,
          "duration": 0.0007375000000138243
        },
        {
          "name": "D5",
          "midi": 74,
          "time": 173.8140000000048,
          "velocity": 0.7874015748031497,
          "duration": 0.0007375000000138243
        },
        {
          "name": "D6",
          "midi": 86,
          "time": 173.8140000000048,
          "velocity": 0.7874015748031497,
          "duration": 0.0007375000000138243
        },
        {
          "name": "D7",
          "midi": 98,
          "time": 173.8140000000048,
          "velocity": 0.7874015748031497,
          "duration": 0.0007375000000138243
        },
        {
          "name": "C6",
          "midi": 84,
          "time": 173.99100000000482,
          "velocity": 0.7874015748031497,
          "duration": 0.0007375000000138243
        },
        {
          "name": "C7",
          "midi": 96,
          "time": 173.99100000000482,
          "velocity": 0.7874015748031497,
          "duration": 0.0007375000000138243
        },
        {
          "name": "D7",
          "midi": 98,
          "time": 173.99100000000482,
          "velocity": 0.7874015748031497,
          "duration": 0.0007375000000138243
        },
        {
          "name": "C#4",
          "midi": 61,
          "time": 174.16800000000484,
          "velocity": 0.7874015748031497,
          "duration": 0.0007375000000138243
        },
        {
          "name": "C#5",
          "midi": 73,
          "time": 174.16800000000484,
          "velocity": 0.7874015748031497,
          "duration": 0.0007375000000138243
        },
        {
          "name": "D5",
          "midi": 74,
          "time": 174.16800000000484,
          "velocity": 0.7874015748031497,
          "duration": 0.0007375000000138243
        },
        {
          "name": "C#6",
          "midi": 85,
          "time": 174.16800000000484,
          "velocity": 0.7874015748031497,
          "duration": 0.0007375000000138243
        },
        {
          "name": "D6",
          "midi": 86,
          "time": 174.16800000000484,
          "velocity": 0.7874015748031497,
          "duration": 0.0007375000000138243
        },
        {
          "name": "C#7",
          "midi": 97,
          "time": 174.16800000000484,
          "velocity": 0.7874015748031497,
          "duration": 0.0007375000000138243
        },
        {
          "name": "D7",
          "midi": 98,
          "time": 174.16800000000484,
          "velocity": 0.7874015748031497,
          "duration": 0.0007375000000138243
        },
        {
          "name": "C#4",
          "midi": 61,
          "time": 174.34500000000486,
          "velocity": 0.7874015748031497,
          "duration": 0.0007375000000138243
        },
        {
          "name": "C#5",
          "midi": 73,
          "time": 174.34500000000486,
          "velocity": 0.7874015748031497,
          "duration": 0.0007375000000138243
        },
        {
          "name": "C#6",
          "midi": 85,
          "time": 174.34500000000486,
          "velocity": 0.7874015748031497,
          "duration": 0.0007375000000138243
        },
        {
          "name": "C#7",
          "midi": 97,
          "time": 174.34500000000486,
          "velocity": 0.7874015748031497,
          "duration": 0.0007375000000138243
        },
        {
          "name": "D7",
          "midi": 98,
          "time": 174.34500000000486,
          "velocity": 0.7874015748031497,
          "duration": 0.0007375000000138243
        },
        {
          "name": "D4",
          "midi": 62,
          "time": 174.52200000000488,
          "velocity": 0.7874015748031497,
          "duration": 0.0007375000000138243
        },
        {
          "name": "C5",
          "midi": 72,
          "time": 174.52200000000488,
          "velocity": 0.7874015748031497,
          "duration": 0.0007375000000138243
        },
        {
          "name": "D5",
          "midi": 74,
          "time": 174.52200000000488,
          "velocity": 0.7874015748031497,
          "duration": 0.0007375000000138243
        },
        {
          "name": "C6",
          "midi": 84,
          "time": 174.52200000000488,
          "velocity": 0.7874015748031497,
          "duration": 0.0007375000000138243
        },
        {
          "name": "D6",
          "midi": 86,
          "time": 174.52200000000488,
          "velocity": 0.7874015748031497,
          "duration": 0.0007375000000138243
        },
        {
          "name": "C7",
          "midi": 96,
          "time": 174.52200000000488,
          "velocity": 0.7874015748031497,
          "duration": 0.0007375000000138243
        },
        {
          "name": "D7",
          "midi": 98,
          "time": 174.52200000000488,
          "velocity": 0.7874015748031497,
          "duration": 0.0007375000000138243
        },
        {
          "name": "C6",
          "midi": 84,
          "time": 174.6990000000049,
          "velocity": 0.7874015748031497,
          "duration": 0.0007375000000138243
        },
        {
          "name": "C7",
          "midi": 96,
          "time": 174.6990000000049,
          "velocity": 0.7874015748031497,
          "duration": 0.0007375000000138243
        },
        {
          "name": "D7",
          "midi": 98,
          "time": 174.6990000000049,
          "velocity": 0.7874015748031497,
          "duration": 0.0007375000000138243
        },
        {
          "name": "C#4",
          "midi": 61,
          "time": 174.87600000000492,
          "velocity": 0.7874015748031497,
          "duration": 0.0007375000000138243
        },
        {
          "name": "C#5",
          "midi": 73,
          "time": 174.87600000000492,
          "velocity": 0.7874015748031497,
          "duration": 0.0007375000000138243
        },
        {
          "name": "E5",
          "midi": 76,
          "time": 174.87600000000492,
          "velocity": 0.7874015748031497,
          "duration": 0.0007375000000138243
        },
        {
          "name": "C#6",
          "midi": 85,
          "time": 174.87600000000492,
          "velocity": 0.7874015748031497,
          "duration": 0.0007375000000138243
        },
        {
          "name": "E6",
          "midi": 88,
          "time": 174.87600000000492,
          "velocity": 0.7874015748031497,
          "duration": 0.0007375000000138243
        },
        {
          "name": "C#7",
          "midi": 97,
          "time": 174.87600000000492,
          "velocity": 0.7874015748031497,
          "duration": 0.0007375000000138243
        },
        {
          "name": "E7",
          "midi": 100,
          "time": 174.87600000000492,
          "velocity": 0.7874015748031497,
          "duration": 0.0007375000000138243
        },
        {
          "name": "D4",
          "midi": 62,
          "time": 175.23000000000494,
          "velocity": 0.7874015748031497,
          "duration": 0.0007375000000138243
        },
        {
          "name": "D5",
          "midi": 74,
          "time": 175.23000000000494,
          "velocity": 0.7874015748031497,
          "duration": 0.0007375000000138243
        },
        {
          "name": "D6",
          "midi": 86,
          "time": 175.23000000000494,
          "velocity": 0.7874015748031497,
          "duration": 0.0007375000000138243
        },
        {
          "name": "D7",
          "midi": 98,
          "time": 175.23000000000494,
          "velocity": 0.7874015748031497,
          "duration": 0.0007375000000138243
        },
        {
          "name": "C6",
          "midi": 84,
          "time": 175.40700000000496,
          "velocity": 0.7874015748031497,
          "duration": 0.0007375000000138243
        },
        {
          "name": "C7",
          "midi": 96,
          "time": 175.40700000000496,
          "velocity": 0.7874015748031497,
          "duration": 0.0007375000000138243
        },
        {
          "name": "D7",
          "midi": 98,
          "time": 175.40700000000496,
          "velocity": 0.7874015748031497,
          "duration": 0.0007375000000138243
        },
        {
          "name": "C#4",
          "midi": 61,
          "time": 175.58400000000498,
          "velocity": 0.7874015748031497,
          "duration": 0.0007375000000138243
        },
        {
          "name": "C#5",
          "midi": 73,
          "time": 175.58400000000498,
          "velocity": 0.7874015748031497,
          "duration": 0.0007375000000138243
        },
        {
          "name": "D5",
          "midi": 74,
          "time": 175.58400000000498,
          "velocity": 0.7874015748031497,
          "duration": 0.0007375000000138243
        },
        {
          "name": "C#6",
          "midi": 85,
          "time": 175.58400000000498,
          "velocity": 0.7874015748031497,
          "duration": 0.0007375000000138243
        },
        {
          "name": "D6",
          "midi": 86,
          "time": 175.58400000000498,
          "velocity": 0.7874015748031497,
          "duration": 0.0007375000000138243
        },
        {
          "name": "C#7",
          "midi": 97,
          "time": 175.58400000000498,
          "velocity": 0.7874015748031497,
          "duration": 0.0007375000000138243
        },
        {
          "name": "D7",
          "midi": 98,
          "time": 175.58400000000498,
          "velocity": 0.7874015748031497,
          "duration": 0.0007375000000138243
        },
        {
          "name": "D7",
          "midi": 98,
          "time": 175.76173750000498,
          "velocity": 0.7874015748031497,
          "duration": 0.0007375000000138243
        },
        {
          "name": "D4",
          "midi": 62,
          "time": 175.938000000005,
          "velocity": 0.7874015748031497,
          "duration": 0.0007375000000138243
        },
        {
          "name": "D5",
          "midi": 74,
          "time": 175.938000000005,
          "velocity": 0.7874015748031497,
          "duration": 0.0007375000000138243
        },
        {
          "name": "D6",
          "midi": 86,
          "time": 175.938000000005,
          "velocity": 0.7874015748031497,
          "duration": 0.0007375000000138243
        },
        {
          "name": "D7",
          "midi": 98,
          "time": 175.938000000005,
          "velocity": 0.7874015748031497,
          "duration": 0.0007375000000138243
        },
        {
          "name": "C5",
          "midi": 72,
          "time": 176.115000000005,
          "velocity": 0.7874015748031497,
          "duration": 0.0007375000000138243
        },
        {
          "name": "C6",
          "midi": 84,
          "time": 176.115000000005,
          "velocity": 0.7874015748031497,
          "duration": 0.0007375000000138243
        },
        {
          "name": "C7",
          "midi": 96,
          "time": 176.115000000005,
          "velocity": 0.7874015748031497,
          "duration": 0.0007375000000138243
        },
        {
          "name": "D7",
          "midi": 98,
          "time": 176.115000000005,
          "velocity": 0.7874015748031497,
          "duration": 0.0007375000000138243
        },
        {
          "name": "C#4",
          "midi": 61,
          "time": 176.29200000000503,
          "velocity": 0.7874015748031497,
          "duration": 0.0007375000000138243
        },
        {
          "name": "C#5",
          "midi": 73,
          "time": 176.29200000000503,
          "velocity": 0.7874015748031497,
          "duration": 0.0007375000000138243
        },
        {
          "name": "D5",
          "midi": 74,
          "time": 176.29200000000503,
          "velocity": 0.7874015748031497,
          "duration": 0.0007375000000138243
        },
        {
          "name": "C#6",
          "midi": 85,
          "time": 176.29200000000503,
          "velocity": 0.7874015748031497,
          "duration": 0.0007375000000138243
        },
        {
          "name": "D6",
          "midi": 86,
          "time": 176.29200000000503,
          "velocity": 0.7874015748031497,
          "duration": 0.0007375000000138243
        },
        {
          "name": "C#7",
          "midi": 97,
          "time": 176.29200000000503,
          "velocity": 0.7874015748031497,
          "duration": 0.0007375000000138243
        },
        {
          "name": "D7",
          "midi": 98,
          "time": 176.29200000000503,
          "velocity": 0.7874015748031497,
          "duration": 0.0007375000000138243
        },
        {
          "name": "D7",
          "midi": 98,
          "time": 176.46973750000504,
          "velocity": 0.7874015748031497,
          "duration": 0.0007375000000138243
        },
        {
          "name": "D4",
          "midi": 62,
          "time": 176.64600000000505,
          "velocity": 0.7874015748031497,
          "duration": 0.0007375000000138243
        },
        {
          "name": "D5",
          "midi": 74,
          "time": 176.64600000000505,
          "velocity": 0.7874015748031497,
          "duration": 0.0007375000000138243
        },
        {
          "name": "D6",
          "midi": 86,
          "time": 176.64600000000505,
          "velocity": 0.7874015748031497,
          "duration": 0.0007375000000138243
        },
        {
          "name": "D7",
          "midi": 98,
          "time": 176.64600000000505,
          "velocity": 0.7874015748031497,
          "duration": 0.0007375000000138243
        },
        {
          "name": "C6",
          "midi": 84,
          "time": 176.82300000000507,
          "velocity": 0.7874015748031497,
          "duration": 0.0007375000000138243
        },
        {
          "name": "C7",
          "midi": 96,
          "time": 176.82300000000507,
          "velocity": 0.7874015748031497,
          "duration": 0.0007375000000138243
        },
        {
          "name": "D7",
          "midi": 98,
          "time": 176.82300000000507,
          "velocity": 0.7874015748031497,
          "duration": 0.0007375000000138243
        },
        {
          "name": "C#4",
          "midi": 61,
          "time": 177.0000000000051,
          "velocity": 0.7874015748031497,
          "duration": 0.0007375000000138243
        },
        {
          "name": "C#5",
          "midi": 73,
          "time": 177.0000000000051,
          "velocity": 0.7874015748031497,
          "duration": 0.0007375000000138243
        },
        {
          "name": "D5",
          "midi": 74,
          "time": 177.0000000000051,
          "velocity": 0.7874015748031497,
          "duration": 0.0007375000000138243
        },
        {
          "name": "C#6",
          "midi": 85,
          "time": 177.0000000000051,
          "velocity": 0.7874015748031497,
          "duration": 0.0007375000000138243
        },
        {
          "name": "D6",
          "midi": 86,
          "time": 177.0000000000051,
          "velocity": 0.7874015748031497,
          "duration": 0.0007375000000138243
        },
        {
          "name": "C#7",
          "midi": 97,
          "time": 177.0000000000051,
          "velocity": 0.7874015748031497,
          "duration": 0.0007375000000138243
        },
        {
          "name": "D7",
          "midi": 98,
          "time": 177.0000000000051,
          "velocity": 0.7874015748031497,
          "duration": 0.0007375000000138243
        },
        {
          "name": "C#4",
          "midi": 61,
          "time": 177.1770000000051,
          "velocity": 0.7874015748031497,
          "duration": 0.0007375000000138243
        },
        {
          "name": "C#5",
          "midi": 73,
          "time": 177.1770000000051,
          "velocity": 0.7874015748031497,
          "duration": 0.0007375000000138243
        },
        {
          "name": "C#6",
          "midi": 85,
          "time": 177.1770000000051,
          "velocity": 0.7874015748031497,
          "duration": 0.0007375000000138243
        },
        {
          "name": "C#7",
          "midi": 97,
          "time": 177.1770000000051,
          "velocity": 0.7874015748031497,
          "duration": 0.0007375000000138243
        },
        {
          "name": "D7",
          "midi": 98,
          "time": 177.1770000000051,
          "velocity": 0.7874015748031497,
          "duration": 0.0007375000000138243
        },
        {
          "name": "D4",
          "midi": 62,
          "time": 177.35400000000513,
          "velocity": 0.7874015748031497,
          "duration": 0.0007375000000138243
        },
        {
          "name": "C5",
          "midi": 72,
          "time": 177.35400000000513,
          "velocity": 0.7874015748031497,
          "duration": 0.0007375000000138243
        },
        {
          "name": "D5",
          "midi": 74,
          "time": 177.35400000000513,
          "velocity": 0.7874015748031497,
          "duration": 0.0007375000000138243
        },
        {
          "name": "C6",
          "midi": 84,
          "time": 177.35400000000513,
          "velocity": 0.7874015748031497,
          "duration": 0.0007375000000138243
        },
        {
          "name": "D6",
          "midi": 86,
          "time": 177.35400000000513,
          "velocity": 0.7874015748031497,
          "duration": 0.0007375000000138243
        },
        {
          "name": "C7",
          "midi": 96,
          "time": 177.35400000000513,
          "velocity": 0.7874015748031497,
          "duration": 0.0007375000000138243
        },
        {
          "name": "D7",
          "midi": 98,
          "time": 177.35400000000513,
          "velocity": 0.7874015748031497,
          "duration": 0.0007375000000138243
        },
        {
          "name": "C6",
          "midi": 84,
          "time": 177.53100000000515,
          "velocity": 0.7874015748031497,
          "duration": 0.0007375000000138243
        },
        {
          "name": "C7",
          "midi": 96,
          "time": 177.53100000000515,
          "velocity": 0.7874015748031497,
          "duration": 0.0007375000000138243
        },
        {
          "name": "D7",
          "midi": 98,
          "time": 177.53100000000515,
          "velocity": 0.7874015748031497,
          "duration": 0.0007375000000138243
        },
        {
          "name": "C#4",
          "midi": 61,
          "time": 177.70800000000517,
          "velocity": 0.7874015748031497,
          "duration": 0.0007375000000138243
        },
        {
          "name": "C#5",
          "midi": 73,
          "time": 177.70800000000517,
          "velocity": 0.7874015748031497,
          "duration": 0.0007375000000138243
        },
        {
          "name": "E5",
          "midi": 76,
          "time": 177.70800000000517,
          "velocity": 0.7874015748031497,
          "duration": 0.0007375000000138243
        },
        {
          "name": "C#6",
          "midi": 85,
          "time": 177.70800000000517,
          "velocity": 0.7874015748031497,
          "duration": 0.0007375000000138243
        },
        {
          "name": "E6",
          "midi": 88,
          "time": 177.70800000000517,
          "velocity": 0.7874015748031497,
          "duration": 0.0007375000000138243
        },
        {
          "name": "C#7",
          "midi": 97,
          "time": 177.70800000000517,
          "velocity": 0.7874015748031497,
          "duration": 0.0007375000000138243
        },
        {
          "name": "E7",
          "midi": 100,
          "time": 177.70800000000517,
          "velocity": 0.7874015748031497,
          "duration": 0.0007375000000138243
        },
        {
          "name": "D4",
          "midi": 62,
          "time": 178.06200000000518,
          "velocity": 0.7874015748031497,
          "duration": 0.0007375000000138243
        },
        {
          "name": "D5",
          "midi": 74,
          "time": 178.06200000000518,
          "velocity": 0.7874015748031497,
          "duration": 0.0007375000000138243
        },
        {
          "name": "D6",
          "midi": 86,
          "time": 178.06200000000518,
          "velocity": 0.7874015748031497,
          "duration": 0.0007375000000138243
        },
        {
          "name": "D7",
          "midi": 98,
          "time": 178.06200000000518,
          "velocity": 0.7874015748031497,
          "duration": 0.0007375000000138243
        },
        {
          "name": "C6",
          "midi": 84,
          "time": 178.2390000000052,
          "velocity": 0.7874015748031497,
          "duration": 0.0007375000000138243
        },
        {
          "name": "C7",
          "midi": 96,
          "time": 178.2390000000052,
          "velocity": 0.7874015748031497,
          "duration": 0.0007375000000138243
        },
        {
          "name": "D7",
          "midi": 98,
          "time": 178.2390000000052,
          "velocity": 0.7874015748031497,
          "duration": 0.0007375000000138243
        },
        {
          "name": "C#4",
          "midi": 61,
          "time": 178.41600000000523,
          "velocity": 0.7874015748031497,
          "duration": 0.0007375000000138243
        },
        {
          "name": "C#5",
          "midi": 73,
          "time": 178.41600000000523,
          "velocity": 0.7874015748031497,
          "duration": 0.0007375000000138243
        },
        {
          "name": "D5",
          "midi": 74,
          "time": 178.41600000000523,
          "velocity": 0.7874015748031497,
          "duration": 0.0007375000000138243
        },
        {
          "name": "C#6",
          "midi": 85,
          "time": 178.41600000000523,
          "velocity": 0.7874015748031497,
          "duration": 0.0007375000000138243
        },
        {
          "name": "D6",
          "midi": 86,
          "time": 178.41600000000523,
          "velocity": 0.7874015748031497,
          "duration": 0.0007375000000138243
        },
        {
          "name": "C#7",
          "midi": 97,
          "time": 178.41600000000523,
          "velocity": 0.7874015748031497,
          "duration": 0.0007375000000138243
        },
        {
          "name": "D7",
          "midi": 98,
          "time": 178.41600000000523,
          "velocity": 0.7874015748031497,
          "duration": 0.0007375000000138243
        },
        {
          "name": "D7",
          "midi": 98,
          "time": 178.59300000000525,
          "velocity": 0.7874015748031497,
          "duration": 0.0007375000000138243
        },
        {
          "name": "D4",
          "midi": 62,
          "time": 178.77000000000527,
          "velocity": 0.7874015748031497,
          "duration": 0.0007375000000138243
        },
        {
          "name": "D5",
          "midi": 74,
          "time": 178.77000000000527,
          "velocity": 0.7874015748031497,
          "duration": 0.0007375000000138243
        },
        {
          "name": "D6",
          "midi": 86,
          "time": 178.77000000000527,
          "velocity": 0.7874015748031497,
          "duration": 0.0007375000000138243
        },
        {
          "name": "D7",
          "midi": 98,
          "time": 178.77000000000527,
          "velocity": 0.7874015748031497,
          "duration": 0.0007375000000138243
        },
        {
          "name": "C5",
          "midi": 72,
          "time": 178.9470000000053,
          "velocity": 0.7874015748031497,
          "duration": 0.0007375000000138243
        },
        {
          "name": "C6",
          "midi": 84,
          "time": 178.9470000000053,
          "velocity": 0.7874015748031497,
          "duration": 0.0007375000000138243
        },
        {
          "name": "C7",
          "midi": 96,
          "time": 178.9470000000053,
          "velocity": 0.7874015748031497,
          "duration": 0.0007375000000138243
        },
        {
          "name": "D7",
          "midi": 98,
          "time": 178.9470000000053,
          "velocity": 0.7874015748031497,
          "duration": 0.0007375000000138243
        },
        {
          "name": "C#4",
          "midi": 61,
          "time": 179.1240000000053,
          "velocity": 0.7874015748031497,
          "duration": 0.0007375000000138243
        },
        {
          "name": "C#5",
          "midi": 73,
          "time": 179.1240000000053,
          "velocity": 0.7874015748031497,
          "duration": 0.0007375000000138243
        },
        {
          "name": "D5",
          "midi": 74,
          "time": 179.1240000000053,
          "velocity": 0.7874015748031497,
          "duration": 0.0007375000000138243
        },
        {
          "name": "C#6",
          "midi": 85,
          "time": 179.1240000000053,
          "velocity": 0.7874015748031497,
          "duration": 0.0007375000000138243
        },
        {
          "name": "D6",
          "midi": 86,
          "time": 179.1240000000053,
          "velocity": 0.7874015748031497,
          "duration": 0.0007375000000138243
        },
        {
          "name": "C#7",
          "midi": 97,
          "time": 179.1240000000053,
          "velocity": 0.7874015748031497,
          "duration": 0.0007375000000138243
        },
        {
          "name": "D7",
          "midi": 98,
          "time": 179.1240000000053,
          "velocity": 0.7874015748031497,
          "duration": 0.0007375000000138243
        },
        {
          "name": "C7",
          "midi": 96,
          "time": 179.30173750000532,
          "velocity": 0.7874015748031497,
          "duration": 0.0007375000000138243
        },
        {
          "name": "D7",
          "midi": 98,
          "time": 179.30173750000532,
          "velocity": 0.7874015748031497,
          "duration": 0.0007375000000138243
        },
        {
          "name": "D4",
          "midi": 62,
          "time": 179.47800000000532,
          "velocity": 0.7874015748031497,
          "duration": 0.0007375000000138243
        },
        {
          "name": "C5",
          "midi": 72,
          "time": 179.47800000000532,
          "velocity": 0.7874015748031497,
          "duration": 0.0007375000000138243
        },
        {
          "name": "D5",
          "midi": 74,
          "time": 179.47800000000532,
          "velocity": 0.7874015748031497,
          "duration": 0.0007375000000138243
        },
        {
          "name": "C6",
          "midi": 84,
          "time": 179.47800000000532,
          "velocity": 0.7874015748031497,
          "duration": 0.0007375000000138243
        },
        {
          "name": "D6",
          "midi": 86,
          "time": 179.47800000000532,
          "velocity": 0.7874015748031497,
          "duration": 0.0007375000000138243
        },
        {
          "name": "C7",
          "midi": 96,
          "time": 179.47800000000532,
          "velocity": 0.7874015748031497,
          "duration": 0.0007375000000138243
        },
        {
          "name": "D7",
          "midi": 98,
          "time": 179.47800000000532,
          "velocity": 0.7874015748031497,
          "duration": 0.0007375000000138243
        },
        {
          "name": "C6",
          "midi": 84,
          "time": 179.65500000000534,
          "velocity": 0.7874015748031497,
          "duration": 0.0007375000000138243
        },
        {
          "name": "C7",
          "midi": 96,
          "time": 179.65500000000534,
          "velocity": 0.7874015748031497,
          "duration": 0.0007375000000138243
        },
        {
          "name": "D7",
          "midi": 98,
          "time": 179.65500000000534,
          "velocity": 0.7874015748031497,
          "duration": 0.0007375000000138243
        },
        {
          "name": "C#4",
          "midi": 61,
          "time": 179.83200000000537,
          "velocity": 0.7874015748031497,
          "duration": 0.0007375000000138243
        },
        {
          "name": "C#5",
          "midi": 73,
          "time": 179.83200000000537,
          "velocity": 0.7874015748031497,
          "duration": 0.0007375000000138243
        },
        {
          "name": "C#6",
          "midi": 85,
          "time": 179.83200000000537,
          "velocity": 0.7874015748031497,
          "duration": 0.0007375000000138243
        },
        {
          "name": "C#7",
          "midi": 97,
          "time": 179.83200000000537,
          "velocity": 0.7874015748031497,
          "duration": 0.0007375000000138243
        },
        {
          "name": "C#4",
          "midi": 61,
          "time": 180.0090000000054,
          "velocity": 0.7874015748031497,
          "duration": 0.0007375000000138243
        },
        {
          "name": "C#5",
          "midi": 73,
          "time": 180.0090000000054,
          "velocity": 0.7874015748031497,
          "duration": 0.0007375000000138243
        },
        {
          "name": "C#6",
          "midi": 85,
          "time": 180.0090000000054,
          "velocity": 0.7874015748031497,
          "duration": 0.0007375000000138243
        },
        {
          "name": "C#7",
          "midi": 97,
          "time": 180.0090000000054,
          "velocity": 0.7874015748031497,
          "duration": 0.0007375000000138243
        },
        {
          "name": "D4",
          "midi": 62,
          "time": 180.1860000000054,
          "velocity": 0.7874015748031497,
          "duration": 0.0007375000000138243
        },
        {
          "name": "C5",
          "midi": 72,
          "time": 180.1860000000054,
          "velocity": 0.7874015748031497,
          "duration": 0.0007375000000138243
        },
        {
          "name": "D5",
          "midi": 74,
          "time": 180.1860000000054,
          "velocity": 0.7874015748031497,
          "duration": 0.0007375000000138243
        },
        {
          "name": "C6",
          "midi": 84,
          "time": 180.1860000000054,
          "velocity": 0.7874015748031497,
          "duration": 0.0007375000000138243
        },
        {
          "name": "D6",
          "midi": 86,
          "time": 180.1860000000054,
          "velocity": 0.7874015748031497,
          "duration": 0.0007375000000138243
        },
        {
          "name": "C7",
          "midi": 96,
          "time": 180.1860000000054,
          "velocity": 0.7874015748031497,
          "duration": 0.0007375000000138243
        },
        {
          "name": "D7",
          "midi": 98,
          "time": 180.1860000000054,
          "velocity": 0.7874015748031497,
          "duration": 0.0007375000000138243
        },
        {
          "name": "C6",
          "midi": 84,
          "time": 180.36300000000543,
          "velocity": 0.7874015748031497,
          "duration": 0.0007375000000138243
        },
        {
          "name": "C7",
          "midi": 96,
          "time": 180.36300000000543,
          "velocity": 0.7874015748031497,
          "duration": 0.0007375000000138243
        },
        {
          "name": "D7",
          "midi": 98,
          "time": 180.36300000000543,
          "velocity": 0.7874015748031497,
          "duration": 0.0007375000000138243
        },
        {
          "name": "C#4",
          "midi": 61,
          "time": 180.54000000000545,
          "velocity": 0.7874015748031497,
          "duration": 0.0007375000000138243
        },
        {
          "name": "C#5",
          "midi": 73,
          "time": 180.54000000000545,
          "velocity": 0.7874015748031497,
          "duration": 0.0007375000000138243
        },
        {
          "name": "E5",
          "midi": 76,
          "time": 180.54000000000545,
          "velocity": 0.7874015748031497,
          "duration": 0.0007375000000138243
        },
        {
          "name": "C#6",
          "midi": 85,
          "time": 180.54000000000545,
          "velocity": 0.7874015748031497,
          "duration": 0.0007375000000138243
        },
        {
          "name": "E6",
          "midi": 88,
          "time": 180.54000000000545,
          "velocity": 0.7874015748031497,
          "duration": 0.0007375000000138243
        },
        {
          "name": "C#7",
          "midi": 97,
          "time": 180.54000000000545,
          "velocity": 0.7874015748031497,
          "duration": 0.0007375000000138243
        },
        {
          "name": "E7",
          "midi": 100,
          "time": 180.54000000000545,
          "velocity": 0.7874015748031497,
          "duration": 0.0007375000000138243
        },
        {
          "name": "C#4",
          "midi": 61,
          "time": 180.89400000000546,
          "velocity": 0.7874015748031497,
          "duration": 0.0007375000000138243
        },
        {
          "name": "C#5",
          "midi": 73,
          "time": 180.89400000000546,
          "velocity": 0.7874015748031497,
          "duration": 0.0007375000000138243
        },
        {
          "name": "D5",
          "midi": 74,
          "time": 180.89400000000546,
          "velocity": 0.7874015748031497,
          "duration": 0.0007375000000138243
        },
        {
          "name": "C#6",
          "midi": 85,
          "time": 180.89400000000546,
          "velocity": 0.7874015748031497,
          "duration": 0.0007375000000138243
        },
        {
          "name": "D6",
          "midi": 86,
          "time": 180.89400000000546,
          "velocity": 0.7874015748031497,
          "duration": 0.0007375000000138243
        },
        {
          "name": "C#7",
          "midi": 97,
          "time": 180.89400000000546,
          "velocity": 0.7874015748031497,
          "duration": 0.0007375000000138243
        },
        {
          "name": "D7",
          "midi": 98,
          "time": 180.89400000000546,
          "velocity": 0.7874015748031497,
          "duration": 0.0007375000000138243
        },
        {
          "name": "C6",
          "midi": 84,
          "time": 181.07100000000548,
          "velocity": 0.7874015748031497,
          "duration": 0.0007375000000138243
        },
        {
          "name": "C7",
          "midi": 96,
          "time": 181.07100000000548,
          "velocity": 0.7874015748031497,
          "duration": 0.0007375000000138243
        },
        {
          "name": "D7",
          "midi": 98,
          "time": 181.07100000000548,
          "velocity": 0.7874015748031497,
          "duration": 0.0007375000000138243
        },
        {
          "name": "D4",
          "midi": 62,
          "time": 181.2480000000055,
          "velocity": 0.7874015748031497,
          "duration": 0.0007375000000138243
        },
        {
          "name": "D5",
          "midi": 74,
          "time": 181.2480000000055,
          "velocity": 0.7874015748031497,
          "duration": 0.0007375000000138243
        },
        {
          "name": "D6",
          "midi": 86,
          "time": 181.2480000000055,
          "velocity": 0.7874015748031497,
          "duration": 0.0007375000000138243
        },
        {
          "name": "D7",
          "midi": 98,
          "time": 181.2480000000055,
          "velocity": 0.7874015748031497,
          "duration": 0.0007375000000138243
        },
        {
          "name": "C#4",
          "midi": 61,
          "time": 181.42500000000553,
          "velocity": 0.7874015748031497,
          "duration": 0.0007375000000138243
        },
        {
          "name": "C#5",
          "midi": 73,
          "time": 181.42500000000553,
          "velocity": 0.7874015748031497,
          "duration": 0.0007375000000138243
        },
        {
          "name": "C#6",
          "midi": 85,
          "time": 181.42500000000553,
          "velocity": 0.7874015748031497,
          "duration": 0.0007375000000138243
        },
        {
          "name": "C#7",
          "midi": 97,
          "time": 181.42500000000553,
          "velocity": 0.7874015748031497,
          "duration": 0.0007375000000138243
        },
        {
          "name": "D7",
          "midi": 98,
          "time": 181.42500000000553,
          "velocity": 0.7874015748031497,
          "duration": 0.0007375000000138243
        },
        {
          "name": "D4",
          "midi": 62,
          "time": 181.60200000000555,
          "velocity": 0.7874015748031497,
          "duration": 0.0007375000000138243
        },
        {
          "name": "D5",
          "midi": 74,
          "time": 181.60200000000555,
          "velocity": 0.7874015748031497,
          "duration": 0.0007375000000138243
        },
        {
          "name": "D6",
          "midi": 86,
          "time": 181.60200000000555,
          "velocity": 0.7874015748031497,
          "duration": 0.0007375000000138243
        },
        {
          "name": "D7",
          "midi": 98,
          "time": 181.60200000000555,
          "velocity": 0.7874015748031497,
          "duration": 0.0007375000000138243
        },
        {
          "name": "C5",
          "midi": 72,
          "time": 181.77900000000557,
          "velocity": 0.7874015748031497,
          "duration": 0.0007375000000138243
        },
        {
          "name": "C6",
          "midi": 84,
          "time": 181.77900000000557,
          "velocity": 0.7874015748031497,
          "duration": 0.0007375000000138243
        },
        {
          "name": "C7",
          "midi": 96,
          "time": 181.77900000000557,
          "velocity": 0.7874015748031497,
          "duration": 0.0007375000000138243
        },
        {
          "name": "D7",
          "midi": 98,
          "time": 181.77900000000557,
          "velocity": 0.7874015748031497,
          "duration": 0.0007375000000138243
        },
        {
          "name": "C#4",
          "midi": 61,
          "time": 181.9560000000056,
          "velocity": 0.7874015748031497,
          "duration": 0.0007375000000138243
        },
        {
          "name": "C#5",
          "midi": 73,
          "time": 181.9560000000056,
          "velocity": 0.7874015748031497,
          "duration": 0.0007375000000138243
        },
        {
          "name": "D5",
          "midi": 74,
          "time": 181.9560000000056,
          "velocity": 0.7874015748031497,
          "duration": 0.0007375000000138243
        },
        {
          "name": "C#6",
          "midi": 85,
          "time": 181.9560000000056,
          "velocity": 0.7874015748031497,
          "duration": 0.0007375000000138243
        },
        {
          "name": "D6",
          "midi": 86,
          "time": 181.9560000000056,
          "velocity": 0.7874015748031497,
          "duration": 0.0007375000000138243
        },
        {
          "name": "C#7",
          "midi": 97,
          "time": 181.9560000000056,
          "velocity": 0.7874015748031497,
          "duration": 0.0007375000000138243
        },
        {
          "name": "D7",
          "midi": 98,
          "time": 181.9560000000056,
          "velocity": 0.7874015748031497,
          "duration": 0.0007375000000138243
        },
        {
          "name": "C6",
          "midi": 84,
          "time": 182.1330000000056,
          "velocity": 0.7874015748031497,
          "duration": 0.0007375000000138243
        },
        {
          "name": "C7",
          "midi": 96,
          "time": 182.1330000000056,
          "velocity": 0.7874015748031497,
          "duration": 0.0007375000000138243
        },
        {
          "name": "D7",
          "midi": 98,
          "time": 182.1330000000056,
          "velocity": 0.7874015748031497,
          "duration": 0.0007375000000138243
        },
        {
          "name": "C#4",
          "midi": 61,
          "time": 182.31000000000563,
          "velocity": 0.7874015748031497,
          "duration": 0.0007375000000138243
        },
        {
          "name": "C#5",
          "midi": 73,
          "time": 182.31000000000563,
          "velocity": 0.7874015748031497,
          "duration": 0.0007375000000138243
        },
        {
          "name": "D5",
          "midi": 74,
          "time": 182.31000000000563,
          "velocity": 0.7874015748031497,
          "duration": 0.0007375000000138243
        },
        {
          "name": "C#6",
          "midi": 85,
          "time": 182.31000000000563,
          "velocity": 0.7874015748031497,
          "duration": 0.0007375000000138243
        },
        {
          "name": "D6",
          "midi": 86,
          "time": 182.31000000000563,
          "velocity": 0.7874015748031497,
          "duration": 0.0007375000000138243
        },
        {
          "name": "C#7",
          "midi": 97,
          "time": 182.31000000000563,
          "velocity": 0.7874015748031497,
          "duration": 0.0007375000000138243
        },
        {
          "name": "D7",
          "midi": 98,
          "time": 182.31000000000563,
          "velocity": 0.7874015748031497,
          "duration": 0.0007375000000138243
        },
        {
          "name": "C#4",
          "midi": 61,
          "time": 182.48773750000564,
          "velocity": 0.7874015748031497,
          "duration": 0.0007375000000138243
        },
        {
          "name": "C#5",
          "midi": 73,
          "time": 182.48773750000564,
          "velocity": 0.7874015748031497,
          "duration": 0.0007375000000138243
        },
        {
          "name": "C#6",
          "midi": 85,
          "time": 182.48773750000564,
          "velocity": 0.7874015748031497,
          "duration": 0.0007375000000138243
        },
        {
          "name": "C#7",
          "midi": 97,
          "time": 182.48773750000564,
          "velocity": 0.7874015748031497,
          "duration": 0.0007375000000138243
        },
        {
          "name": "D7",
          "midi": 98,
          "time": 182.48773750000564,
          "velocity": 0.7874015748031497,
          "duration": 0.0007375000000138243
        },
        {
          "name": "E4",
          "midi": 64,
          "time": 182.66400000000564,
          "velocity": 0.7874015748031497,
          "duration": 0.0007375000000138243
        },
        {
          "name": "C5",
          "midi": 72,
          "time": 182.66400000000564,
          "velocity": 0.7874015748031497,
          "duration": 0.0007375000000138243
        },
        {
          "name": "E5",
          "midi": 76,
          "time": 182.66400000000564,
          "velocity": 0.7874015748031497,
          "duration": 0.0007375000000138243
        },
        {
          "name": "C6",
          "midi": 84,
          "time": 182.66400000000564,
          "velocity": 0.7874015748031497,
          "duration": 0.0007375000000138243
        },
        {
          "name": "E6",
          "midi": 88,
          "time": 182.66400000000564,
          "velocity": 0.7874015748031497,
          "duration": 0.0007375000000138243
        },
        {
          "name": "C7",
          "midi": 96,
          "time": 182.66400000000564,
          "velocity": 0.7874015748031497,
          "duration": 0.0007375000000138243
        },
        {
          "name": "E7",
          "midi": 100,
          "time": 182.66400000000564,
          "velocity": 0.7874015748031497,
          "duration": 0.0007375000000138243
        },
        {
          "name": "C#4",
          "midi": 61,
          "time": 182.84100000000566,
          "velocity": 0.7874015748031497,
          "duration": 0.0007375000000138243
        },
        {
          "name": "C#5",
          "midi": 73,
          "time": 182.84100000000566,
          "velocity": 0.7874015748031497,
          "duration": 0.0007375000000138243
        },
        {
          "name": "C#6",
          "midi": 85,
          "time": 182.84100000000566,
          "velocity": 0.7874015748031497,
          "duration": 0.0007375000000138243
        },
        {
          "name": "C#7",
          "midi": 97,
          "time": 182.84100000000566,
          "velocity": 0.7874015748031497,
          "duration": 0.0007375000000138243
        },
        {
          "name": "C#7",
          "midi": 97,
          "time": 182.9287625000057,
          "velocity": 0.7874015748031497,
          "duration": 0.0007375000000138243
        },
        {
          "name": "C#4",
          "midi": 61,
          "time": 183.0180000000057,
          "velocity": 0.7874015748031497,
          "duration": 0.0007375000000138243
        },
        {
          "name": "C#5",
          "midi": 73,
          "time": 183.0180000000057,
          "velocity": 0.7874015748031497,
          "duration": 0.0007375000000138243
        },
        {
          "name": "C#6",
          "midi": 85,
          "time": 183.0180000000057,
          "velocity": 0.7874015748031497,
          "duration": 0.0007375000000138243
        },
        {
          "name": "C#7",
          "midi": 97,
          "time": 183.0180000000057,
          "velocity": 0.7874015748031497,
          "duration": 0.0007375000000138243
        },
        {
          "name": "C#7",
          "midi": 97,
          "time": 183.10576250000574,
          "velocity": 0.7874015748031497,
          "duration": 0.0007375000000138243
        },
        {
          "name": "E4",
          "midi": 64,
          "time": 183.19500000000576,
          "velocity": 0.7874015748031497,
          "duration": 0.0007375000000138243
        },
        {
          "name": "C5",
          "midi": 72,
          "time": 183.19500000000576,
          "velocity": 0.7874015748031497,
          "duration": 0.0007375000000138243
        },
        {
          "name": "E5",
          "midi": 76,
          "time": 183.19500000000576,
          "velocity": 0.7874015748031497,
          "duration": 0.0007375000000138243
        },
        {
          "name": "C6",
          "midi": 84,
          "time": 183.19500000000576,
          "velocity": 0.7874015748031497,
          "duration": 0.0007375000000138243
        },
        {
          "name": "E6",
          "midi": 88,
          "time": 183.19500000000576,
          "velocity": 0.7874015748031497,
          "duration": 0.0007375000000138243
        },
        {
          "name": "C7",
          "midi": 96,
          "time": 183.19500000000576,
          "velocity": 0.7874015748031497,
          "duration": 0.0007375000000138243
        },
        {
          "name": "D7",
          "midi": 98,
          "time": 183.19500000000576,
          "velocity": 0.7874015748031497,
          "duration": 0.0007375000000138243
        },
        {
          "name": "C#4",
          "midi": 61,
          "time": 183.37200000000578,
          "velocity": 0.7874015748031497,
          "duration": 0.0007375000000138243
        },
        {
          "name": "C#5",
          "midi": 73,
          "time": 183.37200000000578,
          "velocity": 0.7874015748031497,
          "duration": 0.0007375000000138243
        },
        {
          "name": "C#6",
          "midi": 85,
          "time": 183.37200000000578,
          "velocity": 0.7874015748031497,
          "duration": 0.0007375000000138243
        },
        {
          "name": "C#7",
          "midi": 97,
          "time": 183.37200000000578,
          "velocity": 0.7874015748031497,
          "duration": 0.0007375000000138243
        },
        {
          "name": "C#4",
          "midi": 61,
          "time": 183.5490000000058,
          "velocity": 0.7874015748031497,
          "duration": 0.0007375000000138243
        },
        {
          "name": "C#5",
          "midi": 73,
          "time": 183.5490000000058,
          "velocity": 0.7874015748031497,
          "duration": 0.0007375000000138243
        },
        {
          "name": "C#6",
          "midi": 85,
          "time": 183.5490000000058,
          "velocity": 0.7874015748031497,
          "duration": 0.0007375000000138243
        },
        {
          "name": "C#7",
          "midi": 97,
          "time": 183.5490000000058,
          "velocity": 0.7874015748031497,
          "duration": 0.0007375000000138243
        },
        {
          "name": "E4",
          "midi": 64,
          "time": 183.72600000000583,
          "velocity": 0.7874015748031497,
          "duration": 0.0007375000000138243
        },
        {
          "name": "C5",
          "midi": 72,
          "time": 183.72600000000583,
          "velocity": 0.7874015748031497,
          "duration": 0.0007375000000138243
        },
        {
          "name": "E5",
          "midi": 76,
          "time": 183.72600000000583,
          "velocity": 0.7874015748031497,
          "duration": 0.0007375000000138243
        },
        {
          "name": "C6",
          "midi": 84,
          "time": 183.72600000000583,
          "velocity": 0.7874015748031497,
          "duration": 0.0007375000000138243
        },
        {
          "name": "E6",
          "midi": 88,
          "time": 183.72600000000583,
          "velocity": 0.7874015748031497,
          "duration": 0.0007375000000138243
        },
        {
          "name": "C7",
          "midi": 96,
          "time": 183.72600000000583,
          "velocity": 0.7874015748031497,
          "duration": 0.0007375000000138243
        },
        {
          "name": "E7",
          "midi": 100,
          "time": 183.72600000000583,
          "velocity": 0.7874015748031497,
          "duration": 0.0007375000000138243
        },
        {
          "name": "C#4",
          "midi": 61,
          "time": 183.90373750000583,
          "velocity": 0.7874015748031497,
          "duration": 0.0007375000000138243
        },
        {
          "name": "C#5",
          "midi": 73,
          "time": 183.90373750000583,
          "velocity": 0.7874015748031497,
          "duration": 0.0007375000000138243
        },
        {
          "name": "C#6",
          "midi": 85,
          "time": 183.90373750000583,
          "velocity": 0.7874015748031497,
          "duration": 0.0007375000000138243
        },
        {
          "name": "C#7",
          "midi": 97,
          "time": 183.90373750000583,
          "velocity": 0.7874015748031497,
          "duration": 0.0007375000000138243
        },
        {
          "name": "C#7",
          "midi": 97,
          "time": 183.99150000000586,
          "velocity": 0.7874015748031497,
          "duration": 0.0007375000000138243
        },
        {
          "name": "C#4",
          "midi": 61,
          "time": 184.08000000000587,
          "velocity": 0.7874015748031497,
          "duration": 0.0007375000000138243
        },
        {
          "name": "C#5",
          "midi": 73,
          "time": 184.08000000000587,
          "velocity": 0.7874015748031497,
          "duration": 0.0007375000000138243
        },
        {
          "name": "C#6",
          "midi": 85,
          "time": 184.08000000000587,
          "velocity": 0.7874015748031497,
          "duration": 0.0007375000000138243
        },
        {
          "name": "C#7",
          "midi": 97,
          "time": 184.08000000000587,
          "velocity": 0.7874015748031497,
          "duration": 0.0007375000000138243
        },
        {
          "name": "C#7",
          "midi": 97,
          "time": 184.16850000000588,
          "velocity": 0.7874015748031497,
          "duration": 0.0007375000000138243
        },
        {
          "name": "E4",
          "midi": 64,
          "time": 184.2577375000059,
          "velocity": 0.7874015748031497,
          "duration": 0.0007375000000138243
        },
        {
          "name": "C5",
          "midi": 72,
          "time": 184.2577375000059,
          "velocity": 0.7874015748031497,
          "duration": 0.0007375000000138243
        },
        {
          "name": "E5",
          "midi": 76,
          "time": 184.2577375000059,
          "velocity": 0.7874015748031497,
          "duration": 0.0007375000000138243
        },
        {
          "name": "C6",
          "midi": 84,
          "time": 184.2577375000059,
          "velocity": 0.7874015748031497,
          "duration": 0.0007375000000138243
        },
        {
          "name": "E6",
          "midi": 88,
          "time": 184.2577375000059,
          "velocity": 0.7874015748031497,
          "duration": 0.0007375000000138243
        },
        {
          "name": "C7",
          "midi": 96,
          "time": 184.2577375000059,
          "velocity": 0.7874015748031497,
          "duration": 0.0007375000000138243
        },
        {
          "name": "D7",
          "midi": 98,
          "time": 184.2577375000059,
          "velocity": 0.7874015748031497,
          "duration": 0.0007375000000138243
        },
        {
          "name": "C#4",
          "midi": 61,
          "time": 184.4340000000059,
          "velocity": 0.7874015748031497,
          "duration": 0.0007375000000138243
        },
        {
          "name": "C#5",
          "midi": 73,
          "time": 184.4340000000059,
          "velocity": 0.7874015748031497,
          "duration": 0.0007375000000138243
        },
        {
          "name": "C#6",
          "midi": 85,
          "time": 184.4340000000059,
          "velocity": 0.7874015748031497,
          "duration": 0.0007375000000138243
        },
        {
          "name": "C#7",
          "midi": 97,
          "time": 184.4340000000059,
          "velocity": 0.7874015748031497,
          "duration": 0.0007375000000138243
        },
        {
          "name": "C#4",
          "midi": 61,
          "time": 184.61173750000592,
          "velocity": 0.7874015748031497,
          "duration": 0.0007375000000138243
        },
        {
          "name": "C#5",
          "midi": 73,
          "time": 184.61173750000592,
          "velocity": 0.7874015748031497,
          "duration": 0.0007375000000138243
        },
        {
          "name": "C#6",
          "midi": 85,
          "time": 184.61173750000592,
          "velocity": 0.7874015748031497,
          "duration": 0.0007375000000138243
        },
        {
          "name": "C#7",
          "midi": 97,
          "time": 184.61173750000592,
          "velocity": 0.7874015748031497,
          "duration": 0.0007375000000138243
        },
        {
          "name": "E4",
          "midi": 64,
          "time": 184.78800000000592,
          "velocity": 0.7874015748031497,
          "duration": 0.0007375000000138243
        },
        {
          "name": "C5",
          "midi": 72,
          "time": 184.78800000000592,
          "velocity": 0.7874015748031497,
          "duration": 0.0007375000000138243
        },
        {
          "name": "E5",
          "midi": 76,
          "time": 184.78800000000592,
          "velocity": 0.7874015748031497,
          "duration": 0.0007375000000138243
        },
        {
          "name": "C6",
          "midi": 84,
          "time": 184.78800000000592,
          "velocity": 0.7874015748031497,
          "duration": 0.0007375000000138243
        },
        {
          "name": "E6",
          "midi": 88,
          "time": 184.78800000000592,
          "velocity": 0.7874015748031497,
          "duration": 0.0007375000000138243
        },
        {
          "name": "C7",
          "midi": 96,
          "time": 184.78800000000592,
          "velocity": 0.7874015748031497,
          "duration": 0.0007375000000138243
        },
        {
          "name": "E7",
          "midi": 100,
          "time": 184.78800000000592,
          "velocity": 0.7874015748031497,
          "duration": 0.0007375000000138243
        },
        {
          "name": "C#4",
          "midi": 61,
          "time": 184.96573750000593,
          "velocity": 0.7874015748031497,
          "duration": 0.0007375000000138243
        },
        {
          "name": "C#5",
          "midi": 73,
          "time": 184.96573750000593,
          "velocity": 0.7874015748031497,
          "duration": 0.0007375000000138243
        },
        {
          "name": "C#6",
          "midi": 85,
          "time": 184.96573750000593,
          "velocity": 0.7874015748031497,
          "duration": 0.0007375000000138243
        },
        {
          "name": "C#7",
          "midi": 97,
          "time": 184.96573750000593,
          "velocity": 0.7874015748031497,
          "duration": 0.0007375000000138243
        },
        {
          "name": "C#7",
          "midi": 97,
          "time": 185.05350000000595,
          "velocity": 0.7874015748031497,
          "duration": 0.0007375000000138243
        },
        {
          "name": "D#4",
          "midi": 63,
          "time": 185.14200000000596,
          "velocity": 0.7874015748031497,
          "duration": 0.0007375000000138243
        },
        {
          "name": "D#5",
          "midi": 75,
          "time": 185.14200000000596,
          "velocity": 0.7874015748031497,
          "duration": 0.0007375000000138243
        },
        {
          "name": "D#6",
          "midi": 87,
          "time": 185.14200000000596,
          "velocity": 0.7874015748031497,
          "duration": 0.0007375000000138243
        },
        {
          "name": "D#7",
          "midi": 99,
          "time": 185.14200000000596,
          "velocity": 0.7874015748031497,
          "duration": 0.0007375000000138243
        },
        {
          "name": "D#7",
          "midi": 99,
          "time": 185.23050000000597,
          "velocity": 0.7874015748031497,
          "duration": 0.0007375000000138243
        },
        {
          "name": "D#4",
          "midi": 63,
          "time": 185.319737500006,
          "velocity": 0.7874015748031497,
          "duration": 0.0007375000000138243
        },
        {
          "name": "D#5",
          "midi": 75,
          "time": 185.319737500006,
          "velocity": 0.7874015748031497,
          "duration": 0.0007375000000138243
        },
        {
          "name": "D#6",
          "midi": 87,
          "time": 185.319737500006,
          "velocity": 0.7874015748031497,
          "duration": 0.0007375000000138243
        },
        {
          "name": "D#7",
          "midi": 99,
          "time": 185.319737500006,
          "velocity": 0.7874015748031497,
          "duration": 0.0007375000000138243
        },
        {
          "name": "D#7",
          "midi": 99,
          "time": 185.40750000000602,
          "velocity": 0.7874015748031497,
          "duration": 0.0007375000000138243
        },
        {
          "name": "D4",
          "midi": 62,
          "time": 185.49600000000603,
          "velocity": 0.7874015748031497,
          "duration": 0.0007375000000138243
        },
        {
          "name": "C5",
          "midi": 72,
          "time": 185.49600000000603,
          "velocity": 0.7874015748031497,
          "duration": 0.0007375000000138243
        },
        {
          "name": "D5",
          "midi": 74,
          "time": 185.49600000000603,
          "velocity": 0.7874015748031497,
          "duration": 0.0007375000000138243
        },
        {
          "name": "C6",
          "midi": 84,
          "time": 185.49600000000603,
          "velocity": 0.7874015748031497,
          "duration": 0.0007375000000138243
        },
        {
          "name": "D6",
          "midi": 86,
          "time": 185.49600000000603,
          "velocity": 0.7874015748031497,
          "duration": 0.0007375000000138243
        },
        {
          "name": "C7",
          "midi": 96,
          "time": 185.49600000000603,
          "velocity": 0.7874015748031497,
          "duration": 0.0007375000000138243
        },
        {
          "name": "D7",
          "midi": 98,
          "time": 185.49600000000603,
          "velocity": 0.7874015748031497,
          "duration": 0.0007375000000138243
        },
        {
          "name": "E4",
          "midi": 64,
          "time": 185.85000000000605,
          "velocity": 0.7874015748031497,
          "duration": 0.0007375000000138243
        },
        {
          "name": "E5",
          "midi": 76,
          "time": 185.85000000000605,
          "velocity": 0.7874015748031497,
          "duration": 0.0007375000000138243
        },
        {
          "name": "E6",
          "midi": 88,
          "time": 185.85000000000605,
          "velocity": 0.7874015748031497,
          "duration": 0.0007375000000138243
        },
        {
          "name": "E7",
          "midi": 100,
          "time": 185.85000000000605,
          "velocity": 0.7874015748031497,
          "duration": 0.0007375000000138243
        },
        {
          "name": "C6",
          "midi": 84,
          "time": 186.02700000000607,
          "velocity": 0.7874015748031497,
          "duration": 0.0007375000000138243
        },
        {
          "name": "C7",
          "midi": 96,
          "time": 186.02700000000607,
          "velocity": 0.7874015748031497,
          "duration": 0.0007375000000138243
        },
        {
          "name": "E7",
          "midi": 100,
          "time": 186.02700000000607,
          "velocity": 0.7874015748031497,
          "duration": 0.0007375000000138243
        },
        {
          "name": "C#4",
          "midi": 61,
          "time": 186.2040000000061,
          "velocity": 0.7874015748031497,
          "duration": 0.0007375000000138243
        },
        {
          "name": "C#5",
          "midi": 73,
          "time": 186.2040000000061,
          "velocity": 0.7874015748031497,
          "duration": 0.0007375000000138243
        },
        {
          "name": "E5",
          "midi": 76,
          "time": 186.2040000000061,
          "velocity": 0.7874015748031497,
          "duration": 0.0007375000000138243
        },
        {
          "name": "C#6",
          "midi": 85,
          "time": 186.2040000000061,
          "velocity": 0.7874015748031497,
          "duration": 0.0007375000000138243
        },
        {
          "name": "E6",
          "midi": 88,
          "time": 186.2040000000061,
          "velocity": 0.7874015748031497,
          "duration": 0.0007375000000138243
        },
        {
          "name": "C#7",
          "midi": 97,
          "time": 186.2040000000061,
          "velocity": 0.7874015748031497,
          "duration": 0.0007375000000138243
        },
        {
          "name": "E7",
          "midi": 100,
          "time": 186.2040000000061,
          "velocity": 0.7874015748031497,
          "duration": 0.0007375000000138243
        },
        {
          "name": "C7",
          "midi": 96,
          "time": 186.3802625000061,
          "velocity": 0.7874015748031497,
          "duration": 0.0007375000000138243
        },
        {
          "name": "E7",
          "midi": 100,
          "time": 186.3802625000061,
          "velocity": 0.7874015748031497,
          "duration": 0.0007375000000138243
        },
        {
          "name": "E4",
          "midi": 64,
          "time": 186.5580000000061,
          "velocity": 0.7874015748031497,
          "duration": 0.0007375000000138243
        },
        {
          "name": "C5",
          "midi": 72,
          "time": 186.5580000000061,
          "velocity": 0.7874015748031497,
          "duration": 0.0007375000000138243
        },
        {
          "name": "E5",
          "midi": 76,
          "time": 186.5580000000061,
          "velocity": 0.7874015748031497,
          "duration": 0.0007375000000138243
        },
        {
          "name": "C6",
          "midi": 84,
          "time": 186.5580000000061,
          "velocity": 0.7874015748031497,
          "duration": 0.0007375000000138243
        },
        {
          "name": "E6",
          "midi": 88,
          "time": 186.5580000000061,
          "velocity": 0.7874015748031497,
          "duration": 0.0007375000000138243
        },
        {
          "name": "C7",
          "midi": 96,
          "time": 186.5580000000061,
          "velocity": 0.7874015748031497,
          "duration": 0.0007375000000138243
        },
        {
          "name": "E7",
          "midi": 100,
          "time": 186.5580000000061,
          "velocity": 0.7874015748031497,
          "duration": 0.0007375000000138243
        },
        {
          "name": "C6",
          "midi": 84,
          "time": 186.7342625000061,
          "velocity": 0.7874015748031497,
          "duration": 0.0007375000000138243
        },
        {
          "name": "C7",
          "midi": 96,
          "time": 186.7342625000061,
          "velocity": 0.7874015748031497,
          "duration": 0.0007375000000138243
        },
        {
          "name": "E7",
          "midi": 100,
          "time": 186.7342625000061,
          "velocity": 0.7874015748031497,
          "duration": 0.0007375000000138243
        },
        {
          "name": "E4",
          "midi": 64,
          "time": 186.91200000000612,
          "velocity": 0.7874015748031497,
          "duration": 0.0007375000000138243
        },
        {
          "name": "E5",
          "midi": 76,
          "time": 186.91200000000612,
          "velocity": 0.7874015748031497,
          "duration": 0.0007375000000138243
        },
        {
          "name": "E6",
          "midi": 88,
          "time": 186.91200000000612,
          "velocity": 0.7874015748031497,
          "duration": 0.0007375000000138243
        },
        {
          "name": "E7",
          "midi": 100,
          "time": 186.91200000000612,
          "velocity": 0.7874015748031497,
          "duration": 0.0007375000000138243
        },
        {
          "name": "C#4",
          "midi": 61,
          "time": 187.08826250000612,
          "velocity": 0.7874015748031497,
          "duration": 0.0007375000000138243
        },
        {
          "name": "C#5",
          "midi": 73,
          "time": 187.08826250000612,
          "velocity": 0.7874015748031497,
          "duration": 0.0007375000000138243
        },
        {
          "name": "C#6",
          "midi": 85,
          "time": 187.08826250000612,
          "velocity": 0.7874015748031497,
          "duration": 0.0007375000000138243
        },
        {
          "name": "C#7",
          "midi": 97,
          "time": 187.08826250000612,
          "velocity": 0.7874015748031497,
          "duration": 0.0007375000000138243
        },
        {
          "name": "E7",
          "midi": 100,
          "time": 187.08826250000612,
          "velocity": 0.7874015748031497,
          "duration": 0.0007375000000138243
        },
        {
          "name": "E4",
          "midi": 64,
          "time": 187.26600000000613,
          "velocity": 0.7874015748031497,
          "duration": 0.0007375000000138243
        },
        {
          "name": "E5",
          "midi": 76,
          "time": 187.26600000000613,
          "velocity": 0.7874015748031497,
          "duration": 0.0007375000000138243
        },
        {
          "name": "E6",
          "midi": 88,
          "time": 187.26600000000613,
          "velocity": 0.7874015748031497,
          "duration": 0.0007375000000138243
        },
        {
          "name": "E7",
          "midi": 100,
          "time": 187.26600000000613,
          "velocity": 0.7874015748031497,
          "duration": 0.0007375000000138243
        },
        {
          "name": "C6",
          "midi": 84,
          "time": 187.44226250000614,
          "velocity": 0.7874015748031497,
          "duration": 0.0007375000000138243
        },
        {
          "name": "C7",
          "midi": 96,
          "time": 187.44226250000614,
          "velocity": 0.7874015748031497,
          "duration": 0.0007375000000138243
        },
        {
          "name": "E7",
          "midi": 100,
          "time": 187.44226250000614,
          "velocity": 0.7874015748031497,
          "duration": 0.0007375000000138243
        },
        {
          "name": "C#4",
          "midi": 61,
          "time": 187.62000000000614,
          "velocity": 0.7874015748031497,
          "duration": 0.0007375000000138243
        },
        {
          "name": "C#5",
          "midi": 73,
          "time": 187.62000000000614,
          "velocity": 0.7874015748031497,
          "duration": 0.0007375000000138243
        },
        {
          "name": "E5",
          "midi": 76,
          "time": 187.62000000000614,
          "velocity": 0.7874015748031497,
          "duration": 0.0007375000000138243
        },
        {
          "name": "C#6",
          "midi": 85,
          "time": 187.62000000000614,
          "velocity": 0.7874015748031497,
          "duration": 0.0007375000000138243
        },
        {
          "name": "E6",
          "midi": 88,
          "time": 187.62000000000614,
          "velocity": 0.7874015748031497,
          "duration": 0.0007375000000138243
        },
        {
          "name": "C#7",
          "midi": 97,
          "time": 187.62000000000614,
          "velocity": 0.7874015748031497,
          "duration": 0.0007375000000138243
        },
        {
          "name": "E7",
          "midi": 100,
          "time": 187.62000000000614,
          "velocity": 0.7874015748031497,
          "duration": 0.0007375000000138243
        },
        {
          "name": "C5",
          "midi": 72,
          "time": 187.79626250000615,
          "velocity": 0.7874015748031497,
          "duration": 0.0007375000000138243
        },
        {
          "name": "C6",
          "midi": 84,
          "time": 187.79626250000615,
          "velocity": 0.7874015748031497,
          "duration": 0.0007375000000138243
        },
        {
          "name": "C7",
          "midi": 96,
          "time": 187.79626250000615,
          "velocity": 0.7874015748031497,
          "duration": 0.0007375000000138243
        },
        {
          "name": "E7",
          "midi": 100,
          "time": 187.79626250000615,
          "velocity": 0.7874015748031497,
          "duration": 0.0007375000000138243
        },
        {
          "name": "C#4",
          "midi": 61,
          "time": 187.97400000000616,
          "velocity": 0.7874015748031497,
          "duration": 0.0007375000000138243
        },
        {
          "name": "C#5",
          "midi": 73,
          "time": 187.97400000000616,
          "velocity": 0.7874015748031497,
          "duration": 0.0007375000000138243
        },
        {
          "name": "E5",
          "midi": 76,
          "time": 187.97400000000616,
          "velocity": 0.7874015748031497,
          "duration": 0.0007375000000138243
        },
        {
          "name": "C#6",
          "midi": 85,
          "time": 187.97400000000616,
          "velocity": 0.7874015748031497,
          "duration": 0.0007375000000138243
        },
        {
          "name": "E6",
          "midi": 88,
          "time": 187.97400000000616,
          "velocity": 0.7874015748031497,
          "duration": 0.0007375000000138243
        },
        {
          "name": "C#7",
          "midi": 97,
          "time": 187.97400000000616,
          "velocity": 0.7874015748031497,
          "duration": 0.0007375000000138243
        },
        {
          "name": "E7",
          "midi": 100,
          "time": 187.97400000000616,
          "velocity": 0.7874015748031497,
          "duration": 0.0007375000000138243
        },
        {
          "name": "E7",
          "midi": 100,
          "time": 188.15026250000616,
          "velocity": 0.7874015748031497,
          "duration": 0.0007375000000138243
        },
        {
          "name": "C#6",
          "midi": 85,
          "time": 188.23876250000617,
          "velocity": 0.7874015748031497,
          "duration": 0.0007375000000138243
        },
        {
          "name": "C#7",
          "midi": 97,
          "time": 188.23876250000617,
          "velocity": 0.7874015748031497,
          "duration": 0.0007375000000138243
        },
        {
          "name": "E4",
          "midi": 64,
          "time": 188.3280000000062,
          "velocity": 0.7874015748031497,
          "duration": 0.0007375000000138243
        },
        {
          "name": "C5",
          "midi": 72,
          "time": 188.3280000000062,
          "velocity": 0.7874015748031497,
          "duration": 0.0007375000000138243
        },
        {
          "name": "E5",
          "midi": 76,
          "time": 188.3280000000062,
          "velocity": 0.7874015748031497,
          "duration": 0.0007375000000138243
        },
        {
          "name": "C6",
          "midi": 84,
          "time": 188.3280000000062,
          "velocity": 0.7874015748031497,
          "duration": 0.0007375000000138243
        },
        {
          "name": "E6",
          "midi": 88,
          "time": 188.3280000000062,
          "velocity": 0.7874015748031497,
          "duration": 0.0007375000000138243
        },
        {
          "name": "C7",
          "midi": 96,
          "time": 188.3280000000062,
          "velocity": 0.7874015748031497,
          "duration": 0.0007375000000138243
        },
        {
          "name": "E7",
          "midi": 100,
          "time": 188.3280000000062,
          "velocity": 0.7874015748031497,
          "duration": 0.0007375000000138243
        },
        {
          "name": "C6",
          "midi": 84,
          "time": 188.5042625000062,
          "velocity": 0.7874015748031497,
          "duration": 0.0007375000000138243
        },
        {
          "name": "C7",
          "midi": 96,
          "time": 188.5042625000062,
          "velocity": 0.7874015748031497,
          "duration": 0.0007375000000138243
        },
        {
          "name": "E7",
          "midi": 100,
          "time": 188.5042625000062,
          "velocity": 0.7874015748031497,
          "duration": 0.0007375000000138243
        },
        {
          "name": "E4",
          "midi": 64,
          "time": 188.6820000000062,
          "velocity": 0.7874015748031497,
          "duration": 0.0007375000000138243
        },
        {
          "name": "E5",
          "midi": 76,
          "time": 188.6820000000062,
          "velocity": 0.7874015748031497,
          "duration": 0.0007375000000138243
        },
        {
          "name": "E6",
          "midi": 88,
          "time": 188.6820000000062,
          "velocity": 0.7874015748031497,
          "duration": 0.0007375000000138243
        },
        {
          "name": "E7",
          "midi": 100,
          "time": 188.6820000000062,
          "velocity": 0.7874015748031497,
          "duration": 0.0007375000000138243
        },
        {
          "name": "E4",
          "midi": 64,
          "time": 188.85826250000622,
          "velocity": 0.7874015748031497,
          "duration": 0.0007375000000138243
        },
        {
          "name": "E5",
          "midi": 76,
          "time": 188.85826250000622,
          "velocity": 0.7874015748031497,
          "duration": 0.0007375000000138243
        },
        {
          "name": "E6",
          "midi": 88,
          "time": 188.85826250000622,
          "velocity": 0.7874015748031497,
          "duration": 0.0007375000000138243
        },
        {
          "name": "C7",
          "midi": 96,
          "time": 188.85826250000622,
          "velocity": 0.7874015748031497,
          "duration": 0.0007375000000138243
        },
        {
          "name": "E7",
          "midi": 100,
          "time": 188.85826250000622,
          "velocity": 0.7874015748031497,
          "duration": 0.0007375000000138243
        },
        {
          "name": "B6",
          "midi": 95,
          "time": 188.94750000000624,
          "velocity": 0.7874015748031497,
          "duration": 0.0007375000000138243
        },
        {
          "name": "E7",
          "midi": 100,
          "time": 188.94750000000624,
          "velocity": 0.7874015748031497,
          "duration": 0.0007375000000138243
        },
        {
          "name": "C#4",
          "midi": 61,
          "time": 189.03600000000625,
          "velocity": 0.7874015748031497,
          "duration": 0.0007375000000138243
        },
        {
          "name": "C#5",
          "midi": 73,
          "time": 189.03600000000625,
          "velocity": 0.7874015748031497,
          "duration": 0.0007375000000138243
        },
        {
          "name": "C#6",
          "midi": 85,
          "time": 189.03600000000625,
          "velocity": 0.7874015748031497,
          "duration": 0.0007375000000138243
        },
        {
          "name": "C#7",
          "midi": 97,
          "time": 189.03600000000625,
          "velocity": 0.7874015748031497,
          "duration": 0.0007375000000138243
        },
        {
          "name": "E7",
          "midi": 100,
          "time": 189.12450000000626,
          "velocity": 0.7874015748031497,
          "duration": 0.0007375000000138243
        },
        {
          "name": "E4",
          "midi": 64,
          "time": 189.2137375000063,
          "velocity": 0.7874015748031497,
          "duration": 0.0007375000000138243
        },
        {
          "name": "E5",
          "midi": 76,
          "time": 189.2137375000063,
          "velocity": 0.7874015748031497,
          "duration": 0.0007375000000138243
        },
        {
          "name": "E6",
          "midi": 88,
          "time": 189.2137375000063,
          "velocity": 0.7874015748031497,
          "duration": 0.0007375000000138243
        },
        {
          "name": "C7",
          "midi": 96,
          "time": 189.2137375000063,
          "velocity": 0.7874015748031497,
          "duration": 0.0007375000000138243
        },
        {
          "name": "E7",
          "midi": 100,
          "time": 189.2137375000063,
          "velocity": 0.7874015748031497,
          "duration": 0.0007375000000138243
        },
        {
          "name": "C#6",
          "midi": 85,
          "time": 189.3015000000063,
          "velocity": 0.7874015748031497,
          "duration": 0.0007375000000138243
        },
        {
          "name": "C#7",
          "midi": 97,
          "time": 189.3015000000063,
          "velocity": 0.7874015748031497,
          "duration": 0.0007375000000138243
        },
        {
          "name": "E4",
          "midi": 64,
          "time": 189.39000000000632,
          "velocity": 0.7874015748031497,
          "duration": 0.0007375000000138243
        },
        {
          "name": "C5",
          "midi": 72,
          "time": 189.39000000000632,
          "velocity": 0.7874015748031497,
          "duration": 0.0007375000000138243
        },
        {
          "name": "E5",
          "midi": 76,
          "time": 189.39000000000632,
          "velocity": 0.7874015748031497,
          "duration": 0.0007375000000138243
        },
        {
          "name": "C6",
          "midi": 84,
          "time": 189.39000000000632,
          "velocity": 0.7874015748031497,
          "duration": 0.0007375000000138243
        },
        {
          "name": "E6",
          "midi": 88,
          "time": 189.39000000000632,
          "velocity": 0.7874015748031497,
          "duration": 0.0007375000000138243
        },
        {
          "name": "C7",
          "midi": 96,
          "time": 189.39000000000632,
          "velocity": 0.7874015748031497,
          "duration": 0.0007375000000138243
        },
        {
          "name": "E7",
          "midi": 100,
          "time": 189.39000000000632,
          "velocity": 0.7874015748031497,
          "duration": 0.0007375000000138243
        },
        {
          "name": "C6",
          "midi": 84,
          "time": 189.56700000000635,
          "velocity": 0.7874015748031497,
          "duration": 0.0007375000000138243
        },
        {
          "name": "C7",
          "midi": 96,
          "time": 189.56700000000635,
          "velocity": 0.7874015748031497,
          "duration": 0.0007375000000138243
        },
        {
          "name": "E7",
          "midi": 100,
          "time": 189.56700000000635,
          "velocity": 0.7874015748031497,
          "duration": 0.0007375000000138243
        },
        {
          "name": "E4",
          "midi": 64,
          "time": 189.74400000000637,
          "velocity": 0.7874015748031497,
          "duration": 0.0007375000000138243
        },
        {
          "name": "E5",
          "midi": 76,
          "time": 189.74400000000637,
          "velocity": 0.7874015748031497,
          "duration": 0.0007375000000138243
        },
        {
          "name": "E6",
          "midi": 88,
          "time": 189.74400000000637,
          "velocity": 0.7874015748031497,
          "duration": 0.0007375000000138243
        },
        {
          "name": "E7",
          "midi": 100,
          "time": 189.74400000000637,
          "velocity": 0.7874015748031497,
          "duration": 0.0007375000000138243
        },
        {
          "name": "C#4",
          "midi": 61,
          "time": 189.92173750000637,
          "velocity": 0.7874015748031497,
          "duration": 0.0007375000000138243
        },
        {
          "name": "C#5",
          "midi": 73,
          "time": 189.92173750000637,
          "velocity": 0.7874015748031497,
          "duration": 0.0007375000000138243
        },
        {
          "name": "C#6",
          "midi": 85,
          "time": 189.92173750000637,
          "velocity": 0.7874015748031497,
          "duration": 0.0007375000000138243
        },
        {
          "name": "C#7",
          "midi": 97,
          "time": 189.92173750000637,
          "velocity": 0.7874015748031497,
          "duration": 0.0007375000000138243
        },
        {
          "name": "E7",
          "midi": 100,
          "time": 189.92173750000637,
          "velocity": 0.7874015748031497,
          "duration": 0.0007375000000138243
        },
        {
          "name": "E4",
          "midi": 64,
          "time": 190.09800000000638,
          "velocity": 0.7874015748031497,
          "duration": 0.0007375000000138243
        },
        {
          "name": "E5",
          "midi": 76,
          "time": 190.09800000000638,
          "velocity": 0.7874015748031497,
          "duration": 0.0007375000000138243
        },
        {
          "name": "E6",
          "midi": 88,
          "time": 190.09800000000638,
          "velocity": 0.7874015748031497,
          "duration": 0.0007375000000138243
        },
        {
          "name": "E7",
          "midi": 100,
          "time": 190.09800000000638,
          "velocity": 0.7874015748031497,
          "duration": 0.0007375000000138243
        },
        {
          "name": "C6",
          "midi": 84,
          "time": 190.2750000000064,
          "velocity": 0.7874015748031497,
          "duration": 0.0007375000000138243
        },
        {
          "name": "C7",
          "midi": 96,
          "time": 190.2750000000064,
          "velocity": 0.7874015748031497,
          "duration": 0.0007375000000138243
        },
        {
          "name": "E7",
          "midi": 100,
          "time": 190.2750000000064,
          "velocity": 0.7874015748031497,
          "duration": 0.0007375000000138243
        },
        {
          "name": "C#4",
          "midi": 61,
          "time": 190.45200000000642,
          "velocity": 0.7874015748031497,
          "duration": 0.0007375000000138243
        },
        {
          "name": "C#5",
          "midi": 73,
          "time": 190.45200000000642,
          "velocity": 0.7874015748031497,
          "duration": 0.0007375000000138243
        },
        {
          "name": "E5",
          "midi": 76,
          "time": 190.45200000000642,
          "velocity": 0.7874015748031497,
          "duration": 0.0007375000000138243
        },
        {
          "name": "C#6",
          "midi": 85,
          "time": 190.45200000000642,
          "velocity": 0.7874015748031497,
          "duration": 0.0007375000000138243
        },
        {
          "name": "E6",
          "midi": 88,
          "time": 190.45200000000642,
          "velocity": 0.7874015748031497,
          "duration": 0.0007375000000138243
        },
        {
          "name": "C#7",
          "midi": 97,
          "time": 190.45200000000642,
          "velocity": 0.7874015748031497,
          "duration": 0.0007375000000138243
        },
        {
          "name": "E7",
          "midi": 100,
          "time": 190.45200000000642,
          "velocity": 0.7874015748031497,
          "duration": 0.0007375000000138243
        },
        {
          "name": "C5",
          "midi": 72,
          "time": 190.62826250000643,
          "velocity": 0.7874015748031497,
          "duration": 0.0007375000000138243
        },
        {
          "name": "C6",
          "midi": 84,
          "time": 190.62826250000643,
          "velocity": 0.7874015748031497,
          "duration": 0.0007375000000138243
        },
        {
          "name": "C7",
          "midi": 96,
          "time": 190.62826250000643,
          "velocity": 0.7874015748031497,
          "duration": 0.0007375000000138243
        },
        {
          "name": "E7",
          "midi": 100,
          "time": 190.62826250000643,
          "velocity": 0.7874015748031497,
          "duration": 0.0007375000000138243
        },
        {
          "name": "C#4",
          "midi": 61,
          "time": 190.80600000000643,
          "velocity": 0.7874015748031497,
          "duration": 0.0007375000000138243
        },
        {
          "name": "C#5",
          "midi": 73,
          "time": 190.80600000000643,
          "velocity": 0.7874015748031497,
          "duration": 0.0007375000000138243
        },
        {
          "name": "E5",
          "midi": 76,
          "time": 190.80600000000643,
          "velocity": 0.7874015748031497,
          "duration": 0.0007375000000138243
        },
        {
          "name": "C#6",
          "midi": 85,
          "time": 190.80600000000643,
          "velocity": 0.7874015748031497,
          "duration": 0.0007375000000138243
        },
        {
          "name": "E6",
          "midi": 88,
          "time": 190.80600000000643,
          "velocity": 0.7874015748031497,
          "duration": 0.0007375000000138243
        },
        {
          "name": "C#7",
          "midi": 97,
          "time": 190.80600000000643,
          "velocity": 0.7874015748031497,
          "duration": 0.0007375000000138243
        },
        {
          "name": "E7",
          "midi": 100,
          "time": 190.80600000000643,
          "velocity": 0.7874015748031497,
          "duration": 0.0007375000000138243
        },
        {
          "name": "E7",
          "midi": 100,
          "time": 190.98226250000644,
          "velocity": 0.7874015748031497,
          "duration": 0.0007375000000138243
        },
        {
          "name": "C#6",
          "midi": 85,
          "time": 191.07150000000647,
          "velocity": 0.7874015748031497,
          "duration": 0.0007375000000138243
        },
        {
          "name": "C#7",
          "midi": 97,
          "time": 191.07150000000647,
          "velocity": 0.7874015748031497,
          "duration": 0.0007375000000138243
        },
        {
          "name": "E4",
          "midi": 64,
          "time": 191.16000000000648,
          "velocity": 0.7874015748031497,
          "duration": 0.0007375000000138243
        },
        {
          "name": "C5",
          "midi": 72,
          "time": 191.16000000000648,
          "velocity": 0.7874015748031497,
          "duration": 0.0007375000000138243
        },
        {
          "name": "E5",
          "midi": 76,
          "time": 191.16000000000648,
          "velocity": 0.7874015748031497,
          "duration": 0.0007375000000138243
        },
        {
          "name": "C6",
          "midi": 84,
          "time": 191.16000000000648,
          "velocity": 0.7874015748031497,
          "duration": 0.0007375000000138243
        },
        {
          "name": "E6",
          "midi": 88,
          "time": 191.16000000000648,
          "velocity": 0.7874015748031497,
          "duration": 0.0007375000000138243
        },
        {
          "name": "C7",
          "midi": 96,
          "time": 191.16000000000648,
          "velocity": 0.7874015748031497,
          "duration": 0.0007375000000138243
        },
        {
          "name": "E7",
          "midi": 100,
          "time": 191.16000000000648,
          "velocity": 0.7874015748031497,
          "duration": 0.0007375000000138243
        },
        {
          "name": "C6",
          "midi": 84,
          "time": 191.3370000000065,
          "velocity": 0.7874015748031497,
          "duration": 0.0007375000000138243
        },
        {
          "name": "C7",
          "midi": 96,
          "time": 191.3370000000065,
          "velocity": 0.7874015748031497,
          "duration": 0.0007375000000138243
        },
        {
          "name": "E7",
          "midi": 100,
          "time": 191.3370000000065,
          "velocity": 0.7874015748031497,
          "duration": 0.0007375000000138243
        },
        {
          "name": "E4",
          "midi": 64,
          "time": 191.51400000000652,
          "velocity": 0.7874015748031497,
          "duration": 0.0007375000000138243
        },
        {
          "name": "E5",
          "midi": 76,
          "time": 191.51400000000652,
          "velocity": 0.7874015748031497,
          "duration": 0.0007375000000138243
        },
        {
          "name": "E6",
          "midi": 88,
          "time": 191.51400000000652,
          "velocity": 0.7874015748031497,
          "duration": 0.0007375000000138243
        },
        {
          "name": "E7",
          "midi": 100,
          "time": 191.51400000000652,
          "velocity": 0.7874015748031497,
          "duration": 0.0007375000000138243
        },
        {
          "name": "E4",
          "midi": 64,
          "time": 191.69026250000653,
          "velocity": 0.7874015748031497,
          "duration": 0.0007375000000138243
        },
        {
          "name": "E5",
          "midi": 76,
          "time": 191.69026250000653,
          "velocity": 0.7874015748031497,
          "duration": 0.0007375000000138243
        },
        {
          "name": "E6",
          "midi": 88,
          "time": 191.69026250000653,
          "velocity": 0.7874015748031497,
          "duration": 0.0007375000000138243
        },
        {
          "name": "C7",
          "midi": 96,
          "time": 191.69026250000653,
          "velocity": 0.7874015748031497,
          "duration": 0.0007375000000138243
        },
        {
          "name": "E7",
          "midi": 100,
          "time": 191.69026250000653,
          "velocity": 0.7874015748031497,
          "duration": 0.0007375000000138243
        },
        {
          "name": "B6",
          "midi": 95,
          "time": 191.77950000000655,
          "velocity": 0.7874015748031497,
          "duration": 0.0007375000000138243
        },
        {
          "name": "E7",
          "midi": 100,
          "time": 191.77950000000655,
          "velocity": 0.7874015748031497,
          "duration": 0.0007375000000138243
        },
        {
          "name": "C#4",
          "midi": 61,
          "time": 191.86800000000656,
          "velocity": 0.7874015748031497,
          "duration": 0.0007375000000138243
        },
        {
          "name": "C#5",
          "midi": 73,
          "time": 191.86800000000656,
          "velocity": 0.7874015748031497,
          "duration": 0.0007375000000138243
        },
        {
          "name": "C#6",
          "midi": 85,
          "time": 191.86800000000656,
          "velocity": 0.7874015748031497,
          "duration": 0.0007375000000138243
        },
        {
          "name": "C#7",
          "midi": 97,
          "time": 191.86800000000656,
          "velocity": 0.7874015748031497,
          "duration": 0.0007375000000138243
        },
        {
          "name": "E7",
          "midi": 100,
          "time": 191.95576250000659,
          "velocity": 0.7874015748031497,
          "duration": 0.0007375000000138243
        },
        {
          "name": "E4",
          "midi": 64,
          "time": 192.0450000000066,
          "velocity": 0.7874015748031497,
          "duration": 0.0007375000000138243
        },
        {
          "name": "E5",
          "midi": 76,
          "time": 192.0450000000066,
          "velocity": 0.7874015748031497,
          "duration": 0.0007375000000138243
        },
        {
          "name": "E6",
          "midi": 88,
          "time": 192.0450000000066,
          "velocity": 0.7874015748031497,
          "duration": 0.0007375000000138243
        },
        {
          "name": "C7",
          "midi": 96,
          "time": 192.0450000000066,
          "velocity": 0.7874015748031497,
          "duration": 0.0007375000000138243
        },
        {
          "name": "E7",
          "midi": 100,
          "time": 192.0450000000066,
          "velocity": 0.7874015748031497,
          "duration": 0.0007375000000138243
        },
        {
          "name": "C#6",
          "midi": 85,
          "time": 192.13276250000663,
          "velocity": 0.7874015748031497,
          "duration": 0.0007375000000138243
        },
        {
          "name": "C#7",
          "midi": 97,
          "time": 192.13276250000663,
          "velocity": 0.7874015748031497,
          "duration": 0.0007375000000138243
        },
        {
          "name": "E4",
          "midi": 64,
          "time": 192.22200000000666,
          "velocity": 0.7874015748031497,
          "duration": 0.0007375000000138243
        },
        {
          "name": "E5",
          "midi": 76,
          "time": 192.22200000000666,
          "velocity": 0.7874015748031497,
          "duration": 0.0007375000000138243
        },
        {
          "name": "E6",
          "midi": 88,
          "time": 192.22200000000666,
          "velocity": 0.7874015748031497,
          "duration": 0.0007375000000138243
        },
        {
          "name": "C7",
          "midi": 96,
          "time": 192.22200000000666,
          "velocity": 0.7874015748031497,
          "duration": 0.0007375000000138243
        },
        {
          "name": "E7",
          "midi": 100,
          "time": 192.22200000000666,
          "velocity": 0.7874015748031497,
          "duration": 0.0007375000000138243
        },
        {
          "name": "C5",
          "midi": 72,
          "time": 192.39900000000668,
          "velocity": 0.7874015748031497,
          "duration": 0.0007375000000138243
        },
        {
          "name": "C6",
          "midi": 84,
          "time": 192.39900000000668,
          "velocity": 0.7874015748031497,
          "duration": 0.0007375000000138243
        },
        {
          "name": "C7",
          "midi": 96,
          "time": 192.39900000000668,
          "velocity": 0.7874015748031497,
          "duration": 0.0007375000000138243
        },
        {
          "name": "E7",
          "midi": 100,
          "time": 192.39900000000668,
          "velocity": 0.7874015748031497,
          "duration": 0.0007375000000138243
        },
        {
          "name": "E4",
          "midi": 64,
          "time": 192.5760000000067,
          "velocity": 0.7874015748031497,
          "duration": 0.0007375000000138243
        },
        {
          "name": "E5",
          "midi": 76,
          "time": 192.5760000000067,
          "velocity": 0.7874015748031497,
          "duration": 0.0007375000000138243
        },
        {
          "name": "E6",
          "midi": 88,
          "time": 192.5760000000067,
          "velocity": 0.7874015748031497,
          "duration": 0.0007375000000138243
        },
        {
          "name": "E7",
          "midi": 100,
          "time": 192.5760000000067,
          "velocity": 0.7874015748031497,
          "duration": 0.0007375000000138243
        },
        {
          "name": "E4",
          "midi": 64,
          "time": 192.7537375000067,
          "velocity": 0.7874015748031497,
          "duration": 0.0007375000000138243
        },
        {
          "name": "E5",
          "midi": 76,
          "time": 192.7537375000067,
          "velocity": 0.7874015748031497,
          "duration": 0.0007375000000138243
        },
        {
          "name": "E6",
          "midi": 88,
          "time": 192.7537375000067,
          "velocity": 0.7874015748031497,
          "duration": 0.0007375000000138243
        },
        {
          "name": "C7",
          "midi": 96,
          "time": 192.7537375000067,
          "velocity": 0.7874015748031497,
          "duration": 0.0007375000000138243
        },
        {
          "name": "E7",
          "midi": 100,
          "time": 192.7537375000067,
          "velocity": 0.7874015748031497,
          "duration": 0.0007375000000138243
        },
        {
          "name": "B6",
          "midi": 95,
          "time": 192.84150000000673,
          "velocity": 0.7874015748031497,
          "duration": 0.0007375000000138243
        },
        {
          "name": "E7",
          "midi": 100,
          "time": 192.84150000000673,
          "velocity": 0.7874015748031497,
          "duration": 0.0007375000000138243
        },
        {
          "name": "C#4",
          "midi": 61,
          "time": 192.93000000000674,
          "velocity": 0.7874015748031497,
          "duration": 0.0007375000000138243
        },
        {
          "name": "C#5",
          "midi": 73,
          "time": 192.93000000000674,
          "velocity": 0.7874015748031497,
          "duration": 0.0007375000000138243
        },
        {
          "name": "C#6",
          "midi": 85,
          "time": 192.93000000000674,
          "velocity": 0.7874015748031497,
          "duration": 0.0007375000000138243
        },
        {
          "name": "C#7",
          "midi": 97,
          "time": 192.93000000000674,
          "velocity": 0.7874015748031497,
          "duration": 0.0007375000000138243
        },
        {
          "name": "E7",
          "midi": 100,
          "time": 193.01850000000675,
          "velocity": 0.7874015748031497,
          "duration": 0.0007375000000138243
        },
        {
          "name": "E4",
          "midi": 64,
          "time": 193.10700000000676,
          "velocity": 0.7874015748031497,
          "duration": 0.0007375000000138243
        },
        {
          "name": "E5",
          "midi": 76,
          "time": 193.10700000000676,
          "velocity": 0.7874015748031497,
          "duration": 0.0007375000000138243
        },
        {
          "name": "E6",
          "midi": 88,
          "time": 193.10700000000676,
          "velocity": 0.7874015748031497,
          "duration": 0.0007375000000138243
        },
        {
          "name": "C7",
          "midi": 96,
          "time": 193.10700000000676,
          "velocity": 0.7874015748031497,
          "duration": 0.0007375000000138243
        },
        {
          "name": "E7",
          "midi": 100,
          "time": 193.10700000000676,
          "velocity": 0.7874015748031497,
          "duration": 0.0007375000000138243
        },
        {
          "name": "C#6",
          "midi": 85,
          "time": 193.19550000000677,
          "velocity": 0.7874015748031497,
          "duration": 0.0007375000000138243
        },
        {
          "name": "C#7",
          "midi": 97,
          "time": 193.19550000000677,
          "velocity": 0.7874015748031497,
          "duration": 0.0007375000000138243
        },
        {
          "name": "E4",
          "midi": 64,
          "time": 193.28400000000678,
          "velocity": 0.7874015748031497,
          "duration": 0.0007375000000138243
        },
        {
          "name": "E5",
          "midi": 76,
          "time": 193.28400000000678,
          "velocity": 0.7874015748031497,
          "duration": 0.0007375000000138243
        },
        {
          "name": "E6",
          "midi": 88,
          "time": 193.28400000000678,
          "velocity": 0.7874015748031497,
          "duration": 0.0007375000000138243
        },
        {
          "name": "C7",
          "midi": 96,
          "time": 193.28400000000678,
          "velocity": 0.7874015748031497,
          "duration": 0.0007375000000138243
        },
        {
          "name": "E7",
          "midi": 100,
          "time": 193.28400000000678,
          "velocity": 0.7874015748031497,
          "duration": 0.0007375000000138243
        },
        {
          "name": "C5",
          "midi": 72,
          "time": 193.4610000000068,
          "velocity": 0.7874015748031497,
          "duration": 0.0007375000000138243
        },
        {
          "name": "C6",
          "midi": 84,
          "time": 193.4610000000068,
          "velocity": 0.7874015748031497,
          "duration": 0.0007375000000138243
        },
        {
          "name": "C7",
          "midi": 96,
          "time": 193.4610000000068,
          "velocity": 0.7874015748031497,
          "duration": 0.0007375000000138243
        },
        {
          "name": "E7",
          "midi": 100,
          "time": 193.4610000000068,
          "velocity": 0.7874015748031497,
          "duration": 0.0007375000000138243
        },
        {
          "name": "C#4",
          "midi": 61,
          "time": 193.63800000000683,
          "velocity": 0.7874015748031497,
          "duration": 0.0007375000000138243
        },
        {
          "name": "C#5",
          "midi": 73,
          "time": 193.63800000000683,
          "velocity": 0.7874015748031497,
          "duration": 0.0007375000000138243
        },
        {
          "name": "D5",
          "midi": 74,
          "time": 193.63800000000683,
          "velocity": 0.7874015748031497,
          "duration": 0.0007375000000138243
        },
        {
          "name": "C#6",
          "midi": 85,
          "time": 193.63800000000683,
          "velocity": 0.7874015748031497,
          "duration": 0.0007375000000138243
        },
        {
          "name": "D6",
          "midi": 86,
          "time": 193.63800000000683,
          "velocity": 0.7874015748031497,
          "duration": 0.0007375000000138243
        },
        {
          "name": "C#7",
          "midi": 97,
          "time": 193.63800000000683,
          "velocity": 0.7874015748031497,
          "duration": 0.0007375000000138243
        },
        {
          "name": "D7",
          "midi": 98,
          "time": 193.63800000000683,
          "velocity": 0.7874015748031497,
          "duration": 0.0007375000000138243
        },
        {
          "name": "C6",
          "midi": 84,
          "time": 193.81500000000685,
          "velocity": 0.7874015748031497,
          "duration": 0.0007375000000138243
        },
        {
          "name": "C7",
          "midi": 96,
          "time": 193.81500000000685,
          "velocity": 0.7874015748031497,
          "duration": 0.0007375000000138243
        },
        {
          "name": "D4",
          "midi": 62,
          "time": 193.99200000000687,
          "velocity": 0.7874015748031497,
          "duration": 0.0007375000000138243
        },
        {
          "name": "C5",
          "midi": 72,
          "time": 193.99200000000687,
          "velocity": 0.7874015748031497,
          "duration": 0.0007375000000138243
        },
        {
          "name": "D5",
          "midi": 74,
          "time": 193.99200000000687,
          "velocity": 0.7874015748031497,
          "duration": 0.0007375000000138243
        },
        {
          "name": "C6",
          "midi": 84,
          "time": 193.99200000000687,
          "velocity": 0.7874015748031497,
          "duration": 0.0007375000000138243
        },
        {
          "name": "D6",
          "midi": 86,
          "time": 193.99200000000687,
          "velocity": 0.7874015748031497,
          "duration": 0.0007375000000138243
        },
        {
          "name": "C7",
          "midi": 96,
          "time": 193.99200000000687,
          "velocity": 0.7874015748031497,
          "duration": 0.0007375000000138243
        },
        {
          "name": "D7",
          "midi": 98,
          "time": 193.99200000000687,
          "velocity": 0.7874015748031497,
          "duration": 0.0007375000000138243
        },
        {
          "name": "E4",
          "midi": 64,
          "time": 194.5237375000069,
          "velocity": 0.7874015748031497,
          "duration": 0.0007375000000138243
        },
        {
          "name": "C5",
          "midi": 72,
          "time": 194.5237375000069,
          "velocity": 0.7874015748031497,
          "duration": 0.0007375000000138243
        },
        {
          "name": "E5",
          "midi": 76,
          "time": 194.5237375000069,
          "velocity": 0.7874015748031497,
          "duration": 0.0007375000000138243
        },
        {
          "name": "C6",
          "midi": 84,
          "time": 194.5237375000069,
          "velocity": 0.7874015748031497,
          "duration": 0.0007375000000138243
        },
        {
          "name": "E6",
          "midi": 88,
          "time": 194.5237375000069,
          "velocity": 0.7874015748031497,
          "duration": 0.0007375000000138243
        },
        {
          "name": "C7",
          "midi": 96,
          "time": 194.5237375000069,
          "velocity": 0.7874015748031497,
          "duration": 0.0007375000000138243
        },
        {
          "name": "E7",
          "midi": 100,
          "time": 194.5237375000069,
          "velocity": 0.7874015748031497,
          "duration": 0.0007375000000138243
        },
        {
          "name": "C#4",
          "midi": 61,
          "time": 194.87700000000692,
          "velocity": 0.7874015748031497,
          "duration": 0.0007375000000138243
        },
        {
          "name": "C#5",
          "midi": 73,
          "time": 194.87700000000692,
          "velocity": 0.7874015748031497,
          "duration": 0.0007375000000138243
        },
        {
          "name": "C#6",
          "midi": 85,
          "time": 194.87700000000692,
          "velocity": 0.7874015748031497,
          "duration": 0.0007375000000138243
        },
        {
          "name": "C#7",
          "midi": 97,
          "time": 194.87700000000692,
          "velocity": 0.7874015748031497,
          "duration": 0.0007375000000138243
        },
        {
          "name": "C#6",
          "midi": 85,
          "time": 194.96476250000694,
          "velocity": 0.7874015748031497,
          "duration": 0.0007375000000138243
        },
        {
          "name": "C#7",
          "midi": 97,
          "time": 194.96476250000694,
          "velocity": 0.7874015748031497,
          "duration": 0.0007375000000138243
        },
        {
          "name": "D4",
          "midi": 62,
          "time": 195.05400000000697,
          "velocity": 0.7874015748031497,
          "duration": 0.0007375000000138243
        },
        {
          "name": "C5",
          "midi": 72,
          "time": 195.05400000000697,
          "velocity": 0.7874015748031497,
          "duration": 0.0007375000000138243
        },
        {
          "name": "D5",
          "midi": 74,
          "time": 195.05400000000697,
          "velocity": 0.7874015748031497,
          "duration": 0.0007375000000138243
        },
        {
          "name": "C6",
          "midi": 84,
          "time": 195.05400000000697,
          "velocity": 0.7874015748031497,
          "duration": 0.0007375000000138243
        },
        {
          "name": "D6",
          "midi": 86,
          "time": 195.05400000000697,
          "velocity": 0.7874015748031497,
          "duration": 0.0007375000000138243
        },
        {
          "name": "C7",
          "midi": 96,
          "time": 195.05400000000697,
          "velocity": 0.7874015748031497,
          "duration": 0.0007375000000138243
        },
        {
          "name": "D7",
          "midi": 98,
          "time": 195.05400000000697,
          "velocity": 0.7874015748031497,
          "duration": 0.0007375000000138243
        },
        {
          "name": "C#6",
          "midi": 85,
          "time": 195.49576250000698,
          "velocity": 0.7874015748031497,
          "duration": 0.0007375000000138243
        },
        {
          "name": "C#7",
          "midi": 97,
          "time": 195.49576250000698,
          "velocity": 0.7874015748031497,
          "duration": 0.0007375000000138243
        },
        {
          "name": "E4",
          "midi": 64,
          "time": 195.584262500007,
          "velocity": 0.7874015748031497,
          "duration": 0.0007375000000138243
        },
        {
          "name": "C5",
          "midi": 72,
          "time": 195.584262500007,
          "velocity": 0.7874015748031497,
          "duration": 0.0007375000000138243
        },
        {
          "name": "E5",
          "midi": 76,
          "time": 195.584262500007,
          "velocity": 0.7874015748031497,
          "duration": 0.0007375000000138243
        },
        {
          "name": "C6",
          "midi": 84,
          "time": 195.584262500007,
          "velocity": 0.7874015748031497,
          "duration": 0.0007375000000138243
        },
        {
          "name": "E6",
          "midi": 88,
          "time": 195.584262500007,
          "velocity": 0.7874015748031497,
          "duration": 0.0007375000000138243
        },
        {
          "name": "C7",
          "midi": 96,
          "time": 195.584262500007,
          "velocity": 0.7874015748031497,
          "duration": 0.0007375000000138243
        },
        {
          "name": "E7",
          "midi": 100,
          "time": 195.584262500007,
          "velocity": 0.7874015748031497,
          "duration": 0.0007375000000138243
        },
        {
          "name": "C#6",
          "midi": 85,
          "time": 196.027500000007,
          "velocity": 0.7874015748031497,
          "duration": 0.0007375000000138243
        },
        {
          "name": "C#7",
          "midi": 97,
          "time": 196.027500000007,
          "velocity": 0.7874015748031497,
          "duration": 0.0007375000000138243
        },
        {
          "name": "D4",
          "midi": 62,
          "time": 196.116000000007,
          "velocity": 0.7874015748031497,
          "duration": 0.0007375000000138243
        },
        {
          "name": "C5",
          "midi": 72,
          "time": 196.116000000007,
          "velocity": 0.7874015748031497,
          "duration": 0.0007375000000138243
        },
        {
          "name": "D5",
          "midi": 74,
          "time": 196.116000000007,
          "velocity": 0.7874015748031497,
          "duration": 0.0007375000000138243
        },
        {
          "name": "C6",
          "midi": 84,
          "time": 196.116000000007,
          "velocity": 0.7874015748031497,
          "duration": 0.0007375000000138243
        },
        {
          "name": "D6",
          "midi": 86,
          "time": 196.116000000007,
          "velocity": 0.7874015748031497,
          "duration": 0.0007375000000138243
        },
        {
          "name": "C7",
          "midi": 96,
          "time": 196.116000000007,
          "velocity": 0.7874015748031497,
          "duration": 0.0007375000000138243
        },
        {
          "name": "D7",
          "midi": 98,
          "time": 196.116000000007,
          "velocity": 0.7874015748031497,
          "duration": 0.0007375000000138243
        },
        {
          "name": "D4",
          "midi": 62,
          "time": 196.292262500007,
          "velocity": 0.7874015748031497,
          "duration": 0.0007375000000138243
        },
        {
          "name": "D5",
          "midi": 74,
          "time": 196.292262500007,
          "velocity": 0.7874015748031497,
          "duration": 0.0007375000000138243
        },
        {
          "name": "C6",
          "midi": 84,
          "time": 196.292262500007,
          "velocity": 0.7874015748031497,
          "duration": 0.0007375000000138243
        },
        {
          "name": "D6",
          "midi": 86,
          "time": 196.292262500007,
          "velocity": 0.7874015748031497,
          "duration": 0.0007375000000138243
        },
        {
          "name": "C7",
          "midi": 96,
          "time": 196.292262500007,
          "velocity": 0.7874015748031497,
          "duration": 0.0007375000000138243
        },
        {
          "name": "E7",
          "midi": 100,
          "time": 196.292262500007,
          "velocity": 0.7874015748031497,
          "duration": 0.0007375000000138243
        },
        {
          "name": "D4",
          "midi": 62,
          "time": 196.47000000000702,
          "velocity": 0.7874015748031497,
          "duration": 0.0007375000000138243
        },
        {
          "name": "C5",
          "midi": 72,
          "time": 196.47000000000702,
          "velocity": 0.7874015748031497,
          "duration": 0.0007375000000138243
        },
        {
          "name": "D5",
          "midi": 74,
          "time": 196.47000000000702,
          "velocity": 0.7874015748031497,
          "duration": 0.0007375000000138243
        },
        {
          "name": "C6",
          "midi": 84,
          "time": 196.47000000000702,
          "velocity": 0.7874015748031497,
          "duration": 0.0007375000000138243
        },
        {
          "name": "D6",
          "midi": 86,
          "time": 196.47000000000702,
          "velocity": 0.7874015748031497,
          "duration": 0.0007375000000138243
        },
        {
          "name": "C7",
          "midi": 96,
          "time": 196.47000000000702,
          "velocity": 0.7874015748031497,
          "duration": 0.0007375000000138243
        },
        {
          "name": "D7",
          "midi": 98,
          "time": 196.47000000000702,
          "velocity": 0.7874015748031497,
          "duration": 0.0007375000000138243
        },
        {
          "name": "E4",
          "midi": 64,
          "time": 196.82400000000703,
          "velocity": 0.7874015748031497,
          "duration": 0.0007375000000138243
        },
        {
          "name": "C5",
          "midi": 72,
          "time": 196.82400000000703,
          "velocity": 0.7874015748031497,
          "duration": 0.0007375000000138243
        },
        {
          "name": "E5",
          "midi": 76,
          "time": 196.82400000000703,
          "velocity": 0.7874015748031497,
          "duration": 0.0007375000000138243
        },
        {
          "name": "C6",
          "midi": 84,
          "time": 196.82400000000703,
          "velocity": 0.7874015748031497,
          "duration": 0.0007375000000138243
        },
        {
          "name": "E6",
          "midi": 88,
          "time": 196.82400000000703,
          "velocity": 0.7874015748031497,
          "duration": 0.0007375000000138243
        },
        {
          "name": "C7",
          "midi": 96,
          "time": 196.82400000000703,
          "velocity": 0.7874015748031497,
          "duration": 0.0007375000000138243
        },
        {
          "name": "E7",
          "midi": 100,
          "time": 196.82400000000703,
          "velocity": 0.7874015748031497,
          "duration": 0.0007375000000138243
        },
        {
          "name": "D4",
          "midi": 62,
          "time": 197.17800000000705,
          "velocity": 0.7874015748031497,
          "duration": 0.0007375000000138243
        },
        {
          "name": "D5",
          "midi": 74,
          "time": 197.17800000000705,
          "velocity": 0.7874015748031497,
          "duration": 0.0007375000000138243
        },
        {
          "name": "D6",
          "midi": 86,
          "time": 197.17800000000705,
          "velocity": 0.7874015748031497,
          "duration": 0.0007375000000138243
        },
        {
          "name": "D7",
          "midi": 98,
          "time": 197.17800000000705,
          "velocity": 0.7874015748031497,
          "duration": 0.0007375000000138243
        },
        {
          "name": "C6",
          "midi": 84,
          "time": 197.35500000000707,
          "velocity": 0.7874015748031497,
          "duration": 0.0007375000000138243
        },
        {
          "name": "C7",
          "midi": 96,
          "time": 197.35500000000707,
          "velocity": 0.7874015748031497,
          "duration": 0.0007375000000138243
        },
        {
          "name": "D7",
          "midi": 98,
          "time": 197.35500000000707,
          "velocity": 0.7874015748031497,
          "duration": 0.0007375000000138243
        },
        {
          "name": "C#4",
          "midi": 61,
          "time": 197.5320000000071,
          "velocity": 0.7874015748031497,
          "duration": 0.0007375000000138243
        },
        {
          "name": "C#5",
          "midi": 73,
          "time": 197.5320000000071,
          "velocity": 0.7874015748031497,
          "duration": 0.0007375000000138243
        },
        {
          "name": "D5",
          "midi": 74,
          "time": 197.5320000000071,
          "velocity": 0.7874015748031497,
          "duration": 0.0007375000000138243
        },
        {
          "name": "C#6",
          "midi": 85,
          "time": 197.5320000000071,
          "velocity": 0.7874015748031497,
          "duration": 0.0007375000000138243
        },
        {
          "name": "D6",
          "midi": 86,
          "time": 197.5320000000071,
          "velocity": 0.7874015748031497,
          "duration": 0.0007375000000138243
        },
        {
          "name": "C#7",
          "midi": 97,
          "time": 197.5320000000071,
          "velocity": 0.7874015748031497,
          "duration": 0.0007375000000138243
        },
        {
          "name": "D7",
          "midi": 98,
          "time": 197.5320000000071,
          "velocity": 0.7874015748031497,
          "duration": 0.0007375000000138243
        },
        {
          "name": "D7",
          "midi": 98,
          "time": 197.7090000000071,
          "velocity": 0.7874015748031497,
          "duration": 0.0007375000000138243
        },
        {
          "name": "D4",
          "midi": 62,
          "time": 197.88600000000713,
          "velocity": 0.7874015748031497,
          "duration": 0.0007375000000138243
        },
        {
          "name": "D5",
          "midi": 74,
          "time": 197.88600000000713,
          "velocity": 0.7874015748031497,
          "duration": 0.0007375000000138243
        },
        {
          "name": "D6",
          "midi": 86,
          "time": 197.88600000000713,
          "velocity": 0.7874015748031497,
          "duration": 0.0007375000000138243
        },
        {
          "name": "D7",
          "midi": 98,
          "time": 197.88600000000713,
          "velocity": 0.7874015748031497,
          "duration": 0.0007375000000138243
        },
        {
          "name": "C6",
          "midi": 84,
          "time": 198.06300000000715,
          "velocity": 0.7874015748031497,
          "duration": 0.0007375000000138243
        },
        {
          "name": "C7",
          "midi": 96,
          "time": 198.06300000000715,
          "velocity": 0.7874015748031497,
          "duration": 0.0007375000000138243
        },
        {
          "name": "D7",
          "midi": 98,
          "time": 198.06300000000715,
          "velocity": 0.7874015748031497,
          "duration": 0.0007375000000138243
        },
        {
          "name": "D4",
          "midi": 62,
          "time": 198.24000000000717,
          "velocity": 0.7874015748031497,
          "duration": 0.0007375000000138243
        },
        {
          "name": "C5",
          "midi": 72,
          "time": 198.24000000000717,
          "velocity": 0.7874015748031497,
          "duration": 0.0007375000000138243
        },
        {
          "name": "D5",
          "midi": 74,
          "time": 198.24000000000717,
          "velocity": 0.7874015748031497,
          "duration": 0.0007375000000138243
        },
        {
          "name": "C6",
          "midi": 84,
          "time": 198.24000000000717,
          "velocity": 0.7874015748031497,
          "duration": 0.0007375000000138243
        },
        {
          "name": "D6",
          "midi": 86,
          "time": 198.24000000000717,
          "velocity": 0.7874015748031497,
          "duration": 0.0007375000000138243
        },
        {
          "name": "C7",
          "midi": 96,
          "time": 198.24000000000717,
          "velocity": 0.7874015748031497,
          "duration": 0.0007375000000138243
        },
        {
          "name": "D7",
          "midi": 98,
          "time": 198.24000000000717,
          "velocity": 0.7874015748031497,
          "duration": 0.0007375000000138243
        },
        {
          "name": "D7",
          "midi": 98,
          "time": 198.4170000000072,
          "velocity": 0.7874015748031497,
          "duration": 0.0007375000000138243
        },
        {
          "name": "D4",
          "midi": 62,
          "time": 198.5940000000072,
          "velocity": 0.7874015748031497,
          "duration": 0.0007375000000138243
        },
        {
          "name": "D5",
          "midi": 74,
          "time": 198.5940000000072,
          "velocity": 0.7874015748031497,
          "duration": 0.0007375000000138243
        },
        {
          "name": "D6",
          "midi": 86,
          "time": 198.5940000000072,
          "velocity": 0.7874015748031497,
          "duration": 0.0007375000000138243
        },
        {
          "name": "D7",
          "midi": 98,
          "time": 198.5940000000072,
          "velocity": 0.7874015748031497,
          "duration": 0.0007375000000138243
        },
        {
          "name": "C6",
          "midi": 84,
          "time": 198.77026250000722,
          "velocity": 0.7874015748031497,
          "duration": 0.0007375000000138243
        },
        {
          "name": "C7",
          "midi": 96,
          "time": 198.77026250000722,
          "velocity": 0.7874015748031497,
          "duration": 0.0007375000000138243
        },
        {
          "name": "D7",
          "midi": 98,
          "time": 198.77026250000722,
          "velocity": 0.7874015748031497,
          "duration": 0.0007375000000138243
        },
        {
          "name": "C#4",
          "midi": 61,
          "time": 198.94800000000723,
          "velocity": 0.7874015748031497,
          "duration": 0.0007375000000138243
        },
        {
          "name": "C#5",
          "midi": 73,
          "time": 198.94800000000723,
          "velocity": 0.7874015748031497,
          "duration": 0.0007375000000138243
        },
        {
          "name": "D5",
          "midi": 74,
          "time": 198.94800000000723,
          "velocity": 0.7874015748031497,
          "duration": 0.0007375000000138243
        },
        {
          "name": "C#6",
          "midi": 85,
          "time": 198.94800000000723,
          "velocity": 0.7874015748031497,
          "duration": 0.0007375000000138243
        },
        {
          "name": "D6",
          "midi": 86,
          "time": 198.94800000000723,
          "velocity": 0.7874015748031497,
          "duration": 0.0007375000000138243
        },
        {
          "name": "C#7",
          "midi": 97,
          "time": 198.94800000000723,
          "velocity": 0.7874015748031497,
          "duration": 0.0007375000000138243
        },
        {
          "name": "D7",
          "midi": 98,
          "time": 198.94800000000723,
          "velocity": 0.7874015748031497,
          "duration": 0.0007375000000138243
        },
        {
          "name": "C6",
          "midi": 84,
          "time": 199.12500000000725,
          "velocity": 0.7874015748031497,
          "duration": 0.0007375000000138243
        },
        {
          "name": "C7",
          "midi": 96,
          "time": 199.12500000000725,
          "velocity": 0.7874015748031497,
          "duration": 0.0007375000000138243
        },
        {
          "name": "D7",
          "midi": 98,
          "time": 199.12500000000725,
          "velocity": 0.7874015748031497,
          "duration": 0.0007375000000138243
        },
        {
          "name": "D4",
          "midi": 62,
          "time": 199.30200000000727,
          "velocity": 0.7874015748031497,
          "duration": 0.0007375000000138243
        },
        {
          "name": "D5",
          "midi": 74,
          "time": 199.30200000000727,
          "velocity": 0.7874015748031497,
          "duration": 0.0007375000000138243
        },
        {
          "name": "D6",
          "midi": 86,
          "time": 199.30200000000727,
          "velocity": 0.7874015748031497,
          "duration": 0.0007375000000138243
        },
        {
          "name": "D7",
          "midi": 98,
          "time": 199.30200000000727,
          "velocity": 0.7874015748031497,
          "duration": 0.0007375000000138243
        },
        {
          "name": "C6",
          "midi": 84,
          "time": 199.47973750000727,
          "velocity": 0.7874015748031497,
          "duration": 0.0007375000000138243
        },
        {
          "name": "C7",
          "midi": 96,
          "time": 199.47973750000727,
          "velocity": 0.7874015748031497,
          "duration": 0.0007375000000138243
        },
        {
          "name": "D7",
          "midi": 98,
          "time": 199.47973750000727,
          "velocity": 0.7874015748031497,
          "duration": 0.0007375000000138243
        },
        {
          "name": "C4",
          "midi": 60,
          "time": 199.65600000000728,
          "velocity": 0.7874015748031497,
          "duration": 0.0007375000000138243
        },
        {
          "name": "C5",
          "midi": 72,
          "time": 199.65600000000728,
          "velocity": 0.7874015748031497,
          "duration": 0.0007375000000138243
        },
        {
          "name": "D5",
          "midi": 74,
          "time": 199.65600000000728,
          "velocity": 0.7874015748031497,
          "duration": 0.0007375000000138243
        },
        {
          "name": "C6",
          "midi": 84,
          "time": 199.65600000000728,
          "velocity": 0.7874015748031497,
          "duration": 0.0007375000000138243
        },
        {
          "name": "D6",
          "midi": 86,
          "time": 199.65600000000728,
          "velocity": 0.7874015748031497,
          "duration": 0.0007375000000138243
        },
        {
          "name": "C7",
          "midi": 96,
          "time": 199.65600000000728,
          "velocity": 0.7874015748031497,
          "duration": 0.0007375000000138243
        },
        {
          "name": "D7",
          "midi": 98,
          "time": 199.65600000000728,
          "velocity": 0.7874015748031497,
          "duration": 0.0007375000000138243
        },
        {
          "name": "D7",
          "midi": 98,
          "time": 199.8337375000073,
          "velocity": 0.7874015748031497,
          "duration": 0.0007375000000138243
        },
        {
          "name": "D4",
          "midi": 62,
          "time": 200.0100000000073,
          "velocity": 0.7874015748031497,
          "duration": 0.0007375000000138243
        },
        {
          "name": "D5",
          "midi": 74,
          "time": 200.0100000000073,
          "velocity": 0.7874015748031497,
          "duration": 0.0007375000000138243
        },
        {
          "name": "D6",
          "midi": 86,
          "time": 200.0100000000073,
          "velocity": 0.7874015748031497,
          "duration": 0.0007375000000138243
        },
        {
          "name": "D7",
          "midi": 98,
          "time": 200.0100000000073,
          "velocity": 0.7874015748031497,
          "duration": 0.0007375000000138243
        },
        {
          "name": "C6",
          "midi": 84,
          "time": 200.1877375000073,
          "velocity": 0.7874015748031497,
          "duration": 0.0007375000000138243
        },
        {
          "name": "C7",
          "midi": 96,
          "time": 200.1877375000073,
          "velocity": 0.7874015748031497,
          "duration": 0.0007375000000138243
        },
        {
          "name": "D7",
          "midi": 98,
          "time": 200.1877375000073,
          "velocity": 0.7874015748031497,
          "duration": 0.0007375000000138243
        },
        {
          "name": "C#4",
          "midi": 61,
          "time": 200.3640000000073,
          "velocity": 0.7874015748031497,
          "duration": 0.0007375000000138243
        },
        {
          "name": "C#5",
          "midi": 73,
          "time": 200.3640000000073,
          "velocity": 0.7874015748031497,
          "duration": 0.0007375000000138243
        },
        {
          "name": "D5",
          "midi": 74,
          "time": 200.3640000000073,
          "velocity": 0.7874015748031497,
          "duration": 0.0007375000000138243
        },
        {
          "name": "C#6",
          "midi": 85,
          "time": 200.3640000000073,
          "velocity": 0.7874015748031497,
          "duration": 0.0007375000000138243
        },
        {
          "name": "D6",
          "midi": 86,
          "time": 200.3640000000073,
          "velocity": 0.7874015748031497,
          "duration": 0.0007375000000138243
        },
        {
          "name": "C#7",
          "midi": 97,
          "time": 200.3640000000073,
          "velocity": 0.7874015748031497,
          "duration": 0.0007375000000138243
        },
        {
          "name": "D7",
          "midi": 98,
          "time": 200.3640000000073,
          "velocity": 0.7874015748031497,
          "duration": 0.0007375000000138243
        },
        {
          "name": "D7",
          "midi": 98,
          "time": 200.54173750000732,
          "velocity": 0.7874015748031497,
          "duration": 0.0007375000000138243
        },
        {
          "name": "D4",
          "midi": 62,
          "time": 200.71800000000732,
          "velocity": 0.7874015748031497,
          "duration": 0.0007375000000138243
        },
        {
          "name": "D5",
          "midi": 74,
          "time": 200.71800000000732,
          "velocity": 0.7874015748031497,
          "duration": 0.0007375000000138243
        },
        {
          "name": "D6",
          "midi": 86,
          "time": 200.71800000000732,
          "velocity": 0.7874015748031497,
          "duration": 0.0007375000000138243
        },
        {
          "name": "D7",
          "midi": 98,
          "time": 200.71800000000732,
          "velocity": 0.7874015748031497,
          "duration": 0.0007375000000138243
        },
        {
          "name": "C6",
          "midi": 84,
          "time": 200.89573750000733,
          "velocity": 0.7874015748031497,
          "duration": 0.0007375000000138243
        },
        {
          "name": "C7",
          "midi": 96,
          "time": 200.89573750000733,
          "velocity": 0.7874015748031497,
          "duration": 0.0007375000000138243
        },
        {
          "name": "D7",
          "midi": 98,
          "time": 200.89573750000733,
          "velocity": 0.7874015748031497,
          "duration": 0.0007375000000138243
        },
        {
          "name": "D4",
          "midi": 62,
          "time": 201.07200000000734,
          "velocity": 0.7874015748031497,
          "duration": 0.0007375000000138243
        },
        {
          "name": "C5",
          "midi": 72,
          "time": 201.07200000000734,
          "velocity": 0.7874015748031497,
          "duration": 0.0007375000000138243
        },
        {
          "name": "D5",
          "midi": 74,
          "time": 201.07200000000734,
          "velocity": 0.7874015748031497,
          "duration": 0.0007375000000138243
        },
        {
          "name": "C6",
          "midi": 84,
          "time": 201.07200000000734,
          "velocity": 0.7874015748031497,
          "duration": 0.0007375000000138243
        },
        {
          "name": "D6",
          "midi": 86,
          "time": 201.07200000000734,
          "velocity": 0.7874015748031497,
          "duration": 0.0007375000000138243
        },
        {
          "name": "C7",
          "midi": 96,
          "time": 201.07200000000734,
          "velocity": 0.7874015748031497,
          "duration": 0.0007375000000138243
        },
        {
          "name": "D7",
          "midi": 98,
          "time": 201.07200000000734,
          "velocity": 0.7874015748031497,
          "duration": 0.0007375000000138243
        },
        {
          "name": "D7",
          "midi": 98,
          "time": 201.24973750000734,
          "velocity": 0.7874015748031497,
          "duration": 0.0007375000000138243
        },
        {
          "name": "D4",
          "midi": 62,
          "time": 201.42600000000735,
          "velocity": 0.7874015748031497,
          "duration": 0.0007375000000138243
        },
        {
          "name": "D5",
          "midi": 74,
          "time": 201.42600000000735,
          "velocity": 0.7874015748031497,
          "duration": 0.0007375000000138243
        },
        {
          "name": "D6",
          "midi": 86,
          "time": 201.42600000000735,
          "velocity": 0.7874015748031497,
          "duration": 0.0007375000000138243
        },
        {
          "name": "D7",
          "midi": 98,
          "time": 201.42600000000735,
          "velocity": 0.7874015748031497,
          "duration": 0.0007375000000138243
        },
        {
          "name": "C6",
          "midi": 84,
          "time": 201.60373750000736,
          "velocity": 0.7874015748031497,
          "duration": 0.0007375000000138243
        },
        {
          "name": "C7",
          "midi": 96,
          "time": 201.60373750000736,
          "velocity": 0.7874015748031497,
          "duration": 0.0007375000000138243
        },
        {
          "name": "D7",
          "midi": 98,
          "time": 201.60373750000736,
          "velocity": 0.7874015748031497,
          "duration": 0.0007375000000138243
        },
        {
          "name": "C#4",
          "midi": 61,
          "time": 201.78000000000736,
          "velocity": 0.7874015748031497,
          "duration": 0.0007375000000138243
        },
        {
          "name": "C#5",
          "midi": 73,
          "time": 201.78000000000736,
          "velocity": 0.7874015748031497,
          "duration": 0.0007375000000138243
        },
        {
          "name": "D5",
          "midi": 74,
          "time": 201.78000000000736,
          "velocity": 0.7874015748031497,
          "duration": 0.0007375000000138243
        },
        {
          "name": "C#6",
          "midi": 85,
          "time": 201.78000000000736,
          "velocity": 0.7874015748031497,
          "duration": 0.0007375000000138243
        },
        {
          "name": "D6",
          "midi": 86,
          "time": 201.78000000000736,
          "velocity": 0.7874015748031497,
          "duration": 0.0007375000000138243
        },
        {
          "name": "C#7",
          "midi": 97,
          "time": 201.78000000000736,
          "velocity": 0.7874015748031497,
          "duration": 0.0007375000000138243
        },
        {
          "name": "D7",
          "midi": 98,
          "time": 201.78000000000736,
          "velocity": 0.7874015748031497,
          "duration": 0.0007375000000138243
        },
        {
          "name": "C#4",
          "midi": 61,
          "time": 201.95773750000737,
          "velocity": 0.7874015748031497,
          "duration": 0.0007375000000138243
        },
        {
          "name": "C#5",
          "midi": 73,
          "time": 201.95773750000737,
          "velocity": 0.7874015748031497,
          "duration": 0.0007375000000138243
        },
        {
          "name": "D5",
          "midi": 74,
          "time": 201.95773750000737,
          "velocity": 0.7874015748031497,
          "duration": 0.0007375000000138243
        },
        {
          "name": "C#6",
          "midi": 85,
          "time": 201.95773750000737,
          "velocity": 0.7874015748031497,
          "duration": 0.0007375000000138243
        },
        {
          "name": "D6",
          "midi": 86,
          "time": 201.95773750000737,
          "velocity": 0.7874015748031497,
          "duration": 0.0007375000000138243
        },
        {
          "name": "C#7",
          "midi": 97,
          "time": 201.95773750000737,
          "velocity": 0.7874015748031497,
          "duration": 0.0007375000000138243
        },
        {
          "name": "D7",
          "midi": 98,
          "time": 201.95773750000737,
          "velocity": 0.7874015748031497,
          "duration": 0.0007375000000138243
        },
        {
          "name": "C#4",
          "midi": 61,
          "time": 202.13400000000738,
          "velocity": 0.7874015748031497,
          "duration": 0.0007375000000138243
        },
        {
          "name": "C#5",
          "midi": 73,
          "time": 202.13400000000738,
          "velocity": 0.7874015748031497,
          "duration": 0.0007375000000138243
        },
        {
          "name": "E5",
          "midi": 76,
          "time": 202.13400000000738,
          "velocity": 0.7874015748031497,
          "duration": 0.0007375000000138243
        },
        {
          "name": "C#6",
          "midi": 85,
          "time": 202.13400000000738,
          "velocity": 0.7874015748031497,
          "duration": 0.0007375000000138243
        },
        {
          "name": "E6",
          "midi": 88,
          "time": 202.13400000000738,
          "velocity": 0.7874015748031497,
          "duration": 0.0007375000000138243
        },
        {
          "name": "C#7",
          "midi": 97,
          "time": 202.13400000000738,
          "velocity": 0.7874015748031497,
          "duration": 0.0007375000000138243
        },
        {
          "name": "E7",
          "midi": 100,
          "time": 202.13400000000738,
          "velocity": 0.7874015748031497,
          "duration": 0.0007375000000138243
        },
        {
          "name": "C6",
          "midi": 84,
          "time": 202.3110000000074,
          "velocity": 0.7874015748031497,
          "duration": 0.0007375000000138243
        },
        {
          "name": "C7",
          "midi": 96,
          "time": 202.3110000000074,
          "velocity": 0.7874015748031497,
          "duration": 0.0007375000000138243
        },
        {
          "name": "D4",
          "midi": 62,
          "time": 202.48800000000742,
          "velocity": 0.7874015748031497,
          "duration": 0.0007375000000138243
        },
        {
          "name": "C5",
          "midi": 72,
          "time": 202.48800000000742,
          "velocity": 0.7874015748031497,
          "duration": 0.0007375000000138243
        },
        {
          "name": "D5",
          "midi": 74,
          "time": 202.48800000000742,
          "velocity": 0.7874015748031497,
          "duration": 0.0007375000000138243
        },
        {
          "name": "C6",
          "midi": 84,
          "time": 202.48800000000742,
          "velocity": 0.7874015748031497,
          "duration": 0.0007375000000138243
        },
        {
          "name": "D6",
          "midi": 86,
          "time": 202.48800000000742,
          "velocity": 0.7874015748031497,
          "duration": 0.0007375000000138243
        },
        {
          "name": "C7",
          "midi": 96,
          "time": 202.48800000000742,
          "velocity": 0.7874015748031497,
          "duration": 0.0007375000000138243
        },
        {
          "name": "D7",
          "midi": 98,
          "time": 202.48800000000742,
          "velocity": 0.7874015748031497,
          "duration": 0.0007375000000138243
        },
        {
          "name": "D7",
          "midi": 98,
          "time": 202.66573750000742,
          "velocity": 0.7874015748031497,
          "duration": 0.0007375000000138243
        },
        {
          "name": "D4",
          "midi": 62,
          "time": 202.84200000000743,
          "velocity": 0.7874015748031497,
          "duration": 0.0007375000000138243
        },
        {
          "name": "D5",
          "midi": 74,
          "time": 202.84200000000743,
          "velocity": 0.7874015748031497,
          "duration": 0.0007375000000138243
        },
        {
          "name": "D6",
          "midi": 86,
          "time": 202.84200000000743,
          "velocity": 0.7874015748031497,
          "duration": 0.0007375000000138243
        },
        {
          "name": "D7",
          "midi": 98,
          "time": 202.84200000000743,
          "velocity": 0.7874015748031497,
          "duration": 0.0007375000000138243
        },
        {
          "name": "C6",
          "midi": 84,
          "time": 203.01900000000745,
          "velocity": 0.7874015748031497,
          "duration": 0.0007375000000138243
        },
        {
          "name": "C7",
          "midi": 96,
          "time": 203.01900000000745,
          "velocity": 0.7874015748031497,
          "duration": 0.0007375000000138243
        },
        {
          "name": "D7",
          "midi": 98,
          "time": 203.01900000000745,
          "velocity": 0.7874015748031497,
          "duration": 0.0007375000000138243
        },
        {
          "name": "C#4",
          "midi": 61,
          "time": 203.19600000000747,
          "velocity": 0.7874015748031497,
          "duration": 0.0007375000000138243
        },
        {
          "name": "C#5",
          "midi": 73,
          "time": 203.19600000000747,
          "velocity": 0.7874015748031497,
          "duration": 0.0007375000000138243
        },
        {
          "name": "D5",
          "midi": 74,
          "time": 203.19600000000747,
          "velocity": 0.7874015748031497,
          "duration": 0.0007375000000138243
        },
        {
          "name": "C#6",
          "midi": 85,
          "time": 203.19600000000747,
          "velocity": 0.7874015748031497,
          "duration": 0.0007375000000138243
        },
        {
          "name": "D6",
          "midi": 86,
          "time": 203.19600000000747,
          "velocity": 0.7874015748031497,
          "duration": 0.0007375000000138243
        },
        {
          "name": "C#7",
          "midi": 97,
          "time": 203.19600000000747,
          "velocity": 0.7874015748031497,
          "duration": 0.0007375000000138243
        },
        {
          "name": "D7",
          "midi": 98,
          "time": 203.19600000000747,
          "velocity": 0.7874015748031497,
          "duration": 0.0007375000000138243
        },
        {
          "name": "D7",
          "midi": 98,
          "time": 203.3730000000075,
          "velocity": 0.7874015748031497,
          "duration": 0.0007375000000138243
        },
        {
          "name": "D4",
          "midi": 62,
          "time": 203.55000000000751,
          "velocity": 0.7874015748031497,
          "duration": 0.0007375000000138243
        },
        {
          "name": "D5",
          "midi": 74,
          "time": 203.55000000000751,
          "velocity": 0.7874015748031497,
          "duration": 0.0007375000000138243
        },
        {
          "name": "D6",
          "midi": 86,
          "time": 203.55000000000751,
          "velocity": 0.7874015748031497,
          "duration": 0.0007375000000138243
        },
        {
          "name": "D7",
          "midi": 98,
          "time": 203.55000000000751,
          "velocity": 0.7874015748031497,
          "duration": 0.0007375000000138243
        },
        {
          "name": "C6",
          "midi": 84,
          "time": 203.72773750000752,
          "velocity": 0.7874015748031497,
          "duration": 0.0007375000000138243
        },
        {
          "name": "C7",
          "midi": 96,
          "time": 203.72773750000752,
          "velocity": 0.7874015748031497,
          "duration": 0.0007375000000138243
        },
        {
          "name": "D7",
          "midi": 98,
          "time": 203.72773750000752,
          "velocity": 0.7874015748031497,
          "duration": 0.0007375000000138243
        },
        {
          "name": "D4",
          "midi": 62,
          "time": 203.90400000000753,
          "velocity": 0.7874015748031497,
          "duration": 0.0007375000000138243
        },
        {
          "name": "C5",
          "midi": 72,
          "time": 203.90400000000753,
          "velocity": 0.7874015748031497,
          "duration": 0.0007375000000138243
        },
        {
          "name": "D5",
          "midi": 74,
          "time": 203.90400000000753,
          "velocity": 0.7874015748031497,
          "duration": 0.0007375000000138243
        },
        {
          "name": "C6",
          "midi": 84,
          "time": 203.90400000000753,
          "velocity": 0.7874015748031497,
          "duration": 0.0007375000000138243
        },
        {
          "name": "D6",
          "midi": 86,
          "time": 203.90400000000753,
          "velocity": 0.7874015748031497,
          "duration": 0.0007375000000138243
        },
        {
          "name": "C7",
          "midi": 96,
          "time": 203.90400000000753,
          "velocity": 0.7874015748031497,
          "duration": 0.0007375000000138243
        },
        {
          "name": "D7",
          "midi": 98,
          "time": 203.90400000000753,
          "velocity": 0.7874015748031497,
          "duration": 0.0007375000000138243
        },
        {
          "name": "D7",
          "midi": 98,
          "time": 204.08173750000753,
          "velocity": 0.7874015748031497,
          "duration": 0.0007375000000138243
        },
        {
          "name": "D4",
          "midi": 62,
          "time": 204.25800000000754,
          "velocity": 0.7874015748031497,
          "duration": 0.0007375000000138243
        },
        {
          "name": "D5",
          "midi": 74,
          "time": 204.25800000000754,
          "velocity": 0.7874015748031497,
          "duration": 0.0007375000000138243
        },
        {
          "name": "D6",
          "midi": 86,
          "time": 204.25800000000754,
          "velocity": 0.7874015748031497,
          "duration": 0.0007375000000138243
        },
        {
          "name": "D7",
          "midi": 98,
          "time": 204.25800000000754,
          "velocity": 0.7874015748031497,
          "duration": 0.0007375000000138243
        },
        {
          "name": "C6",
          "midi": 84,
          "time": 204.43573750000755,
          "velocity": 0.7874015748031497,
          "duration": 0.0007375000000138243
        },
        {
          "name": "C7",
          "midi": 96,
          "time": 204.43573750000755,
          "velocity": 0.7874015748031497,
          "duration": 0.0007375000000138243
        },
        {
          "name": "D7",
          "midi": 98,
          "time": 204.43573750000755,
          "velocity": 0.7874015748031497,
          "duration": 0.0007375000000138243
        },
        {
          "name": "C#4",
          "midi": 61,
          "time": 204.61200000000755,
          "velocity": 0.7874015748031497,
          "duration": 0.0007375000000138243
        },
        {
          "name": "C#5",
          "midi": 73,
          "time": 204.61200000000755,
          "velocity": 0.7874015748031497,
          "duration": 0.0007375000000138243
        },
        {
          "name": "D5",
          "midi": 74,
          "time": 204.61200000000755,
          "velocity": 0.7874015748031497,
          "duration": 0.0007375000000138243
        },
        {
          "name": "C#6",
          "midi": 85,
          "time": 204.61200000000755,
          "velocity": 0.7874015748031497,
          "duration": 0.0007375000000138243
        },
        {
          "name": "D6",
          "midi": 86,
          "time": 204.61200000000755,
          "velocity": 0.7874015748031497,
          "duration": 0.0007375000000138243
        },
        {
          "name": "C#7",
          "midi": 97,
          "time": 204.61200000000755,
          "velocity": 0.7874015748031497,
          "duration": 0.0007375000000138243
        },
        {
          "name": "D7",
          "midi": 98,
          "time": 204.61200000000755,
          "velocity": 0.7874015748031497,
          "duration": 0.0007375000000138243
        },
        {
          "name": "C6",
          "midi": 84,
          "time": 204.78973750000756,
          "velocity": 0.7874015748031497,
          "duration": 0.0007375000000138243
        },
        {
          "name": "C7",
          "midi": 96,
          "time": 204.78973750000756,
          "velocity": 0.7874015748031497,
          "duration": 0.0007375000000138243
        },
        {
          "name": "D7",
          "midi": 98,
          "time": 204.78973750000756,
          "velocity": 0.7874015748031497,
          "duration": 0.0007375000000138243
        },
        {
          "name": "D4",
          "midi": 62,
          "time": 204.96600000000757,
          "velocity": 0.7874015748031497,
          "duration": 0.0007375000000138243
        },
        {
          "name": "D5",
          "midi": 74,
          "time": 204.96600000000757,
          "velocity": 0.7874015748031497,
          "duration": 0.0007375000000138243
        },
        {
          "name": "D6",
          "midi": 86,
          "time": 204.96600000000757,
          "velocity": 0.7874015748031497,
          "duration": 0.0007375000000138243
        },
        {
          "name": "D7",
          "midi": 98,
          "time": 204.96600000000757,
          "velocity": 0.7874015748031497,
          "duration": 0.0007375000000138243
        },
        {
          "name": "C6",
          "midi": 84,
          "time": 205.1430000000076,
          "velocity": 0.7874015748031497,
          "duration": 0.0007375000000138243
        },
        {
          "name": "C7",
          "midi": 96,
          "time": 205.1430000000076,
          "velocity": 0.7874015748031497,
          "duration": 0.0007375000000138243
        },
        {
          "name": "D7",
          "midi": 98,
          "time": 205.1430000000076,
          "velocity": 0.7874015748031497,
          "duration": 0.0007375000000138243
        },
        {
          "name": "C4",
          "midi": 60,
          "time": 205.3200000000076,
          "velocity": 0.7874015748031497,
          "duration": 0.0007375000000138243
        },
        {
          "name": "C5",
          "midi": 72,
          "time": 205.3200000000076,
          "velocity": 0.7874015748031497,
          "duration": 0.0007375000000138243
        },
        {
          "name": "D5",
          "midi": 74,
          "time": 205.3200000000076,
          "velocity": 0.7874015748031497,
          "duration": 0.0007375000000138243
        },
        {
          "name": "C6",
          "midi": 84,
          "time": 205.3200000000076,
          "velocity": 0.7874015748031497,
          "duration": 0.0007375000000138243
        },
        {
          "name": "D6",
          "midi": 86,
          "time": 205.3200000000076,
          "velocity": 0.7874015748031497,
          "duration": 0.0007375000000138243
        },
        {
          "name": "C7",
          "midi": 96,
          "time": 205.3200000000076,
          "velocity": 0.7874015748031497,
          "duration": 0.0007375000000138243
        },
        {
          "name": "D7",
          "midi": 98,
          "time": 205.3200000000076,
          "velocity": 0.7874015748031497,
          "duration": 0.0007375000000138243
        },
        {
          "name": "D7",
          "midi": 98,
          "time": 205.49773750000762,
          "velocity": 0.7874015748031497,
          "duration": 0.0007375000000138243
        },
        {
          "name": "D4",
          "midi": 62,
          "time": 205.67400000000762,
          "velocity": 0.7874015748031497,
          "duration": 0.0007375000000138243
        },
        {
          "name": "D5",
          "midi": 74,
          "time": 205.67400000000762,
          "velocity": 0.7874015748031497,
          "duration": 0.0007375000000138243
        },
        {
          "name": "D6",
          "midi": 86,
          "time": 205.67400000000762,
          "velocity": 0.7874015748031497,
          "duration": 0.0007375000000138243
        },
        {
          "name": "D7",
          "midi": 98,
          "time": 205.67400000000762,
          "velocity": 0.7874015748031497,
          "duration": 0.0007375000000138243
        },
        {
          "name": "C6",
          "midi": 84,
          "time": 205.85100000000764,
          "velocity": 0.7874015748031497,
          "duration": 0.0007375000000138243
        },
        {
          "name": "C7",
          "midi": 96,
          "time": 205.85100000000764,
          "velocity": 0.7874015748031497,
          "duration": 0.0007375000000138243
        },
        {
          "name": "D7",
          "midi": 98,
          "time": 205.85100000000764,
          "velocity": 0.7874015748031497,
          "duration": 0.0007375000000138243
        },
        {
          "name": "G#8",
          "midi": 116,
          "time": 206.02800000000767,
          "velocity": 0.7874015748031497,
          "duration": 2.211762500000276
        },
        {
          "name": "C#4",
          "midi": 61,
          "time": 206.02800000000767,
          "velocity": 0.7874015748031497,
          "duration": 0.0007375000000138243
        },
        {
          "name": "C#5",
          "midi": 73,
          "time": 206.02800000000767,
          "velocity": 0.7874015748031497,
          "duration": 0.0007375000000138243
        },
        {
          "name": "D5",
          "midi": 74,
          "time": 206.02800000000767,
          "velocity": 0.7874015748031497,
          "duration": 0.0007375000000138243
        },
        {
          "name": "C#6",
          "midi": 85,
          "time": 206.02800000000767,
          "velocity": 0.7874015748031497,
          "duration": 0.0007375000000138243
        },
        {
          "name": "D6",
          "midi": 86,
          "time": 206.02800000000767,
          "velocity": 0.7874015748031497,
          "duration": 0.0007375000000138243
        },
        {
          "name": "C#7",
          "midi": 97,
          "time": 206.02800000000767,
          "velocity": 0.7874015748031497,
          "duration": 0.0007375000000138243
        },
        {
          "name": "D7",
          "midi": 98,
          "time": 206.02800000000767,
          "velocity": 0.7874015748031497,
          "duration": 0.0007375000000138243
        },
        {
          "name": "D7",
          "midi": 98,
          "time": 206.20573750000767,
          "velocity": 0.7874015748031497,
          "duration": 0.0007375000000138243
        },
        {
          "name": "D4",
          "midi": 62,
          "time": 206.38200000000768,
          "velocity": 0.7874015748031497,
          "duration": 0.0007375000000138243
        },
        {
          "name": "D5",
          "midi": 74,
          "time": 206.38200000000768,
          "velocity": 0.7874015748031497,
          "duration": 0.0007375000000138243
        },
        {
          "name": "D6",
          "midi": 86,
          "time": 206.38200000000768,
          "velocity": 0.7874015748031497,
          "duration": 0.0007375000000138243
        },
        {
          "name": "D7",
          "midi": 98,
          "time": 206.38200000000768,
          "velocity": 0.7874015748031497,
          "duration": 0.0007375000000138243
        },
        {
          "name": "C6",
          "midi": 84,
          "time": 206.5590000000077,
          "velocity": 0.7874015748031497,
          "duration": 0.0007375000000138243
        },
        {
          "name": "C7",
          "midi": 96,
          "time": 206.5590000000077,
          "velocity": 0.7874015748031497,
          "duration": 0.0007375000000138243
        },
        {
          "name": "D7",
          "midi": 98,
          "time": 206.5590000000077,
          "velocity": 0.7874015748031497,
          "duration": 0.0007375000000138243
        },
        {
          "name": "D4",
          "midi": 62,
          "time": 206.73600000000772,
          "velocity": 0.7874015748031497,
          "duration": 0.0007375000000138243
        },
        {
          "name": "C5",
          "midi": 72,
          "time": 206.73600000000772,
          "velocity": 0.7874015748031497,
          "duration": 0.0007375000000138243
        },
        {
          "name": "D5",
          "midi": 74,
          "time": 206.73600000000772,
          "velocity": 0.7874015748031497,
          "duration": 0.0007375000000138243
        },
        {
          "name": "C6",
          "midi": 84,
          "time": 206.73600000000772,
          "velocity": 0.7874015748031497,
          "duration": 0.0007375000000138243
        },
        {
          "name": "D6",
          "midi": 86,
          "time": 206.73600000000772,
          "velocity": 0.7874015748031497,
          "duration": 0.0007375000000138243
        },
        {
          "name": "C7",
          "midi": 96,
          "time": 206.73600000000772,
          "velocity": 0.7874015748031497,
          "duration": 0.0007375000000138243
        },
        {
          "name": "D7",
          "midi": 98,
          "time": 206.73600000000772,
          "velocity": 0.7874015748031497,
          "duration": 0.0007375000000138243
        },
        {
          "name": "D7",
          "midi": 98,
          "time": 206.91300000000774,
          "velocity": 0.7874015748031497,
          "duration": 0.0007375000000138243
        },
        {
          "name": "D4",
          "midi": 62,
          "time": 207.09000000000776,
          "velocity": 0.7874015748031497,
          "duration": 0.0007375000000138243
        },
        {
          "name": "D5",
          "midi": 74,
          "time": 207.09000000000776,
          "velocity": 0.7874015748031497,
          "duration": 0.0007375000000138243
        },
        {
          "name": "D6",
          "midi": 86,
          "time": 207.09000000000776,
          "velocity": 0.7874015748031497,
          "duration": 0.0007375000000138243
        },
        {
          "name": "D7",
          "midi": 98,
          "time": 207.09000000000776,
          "velocity": 0.7874015748031497,
          "duration": 0.0007375000000138243
        },
        {
          "name": "C6",
          "midi": 84,
          "time": 207.26626250000777,
          "velocity": 0.7874015748031497,
          "duration": 0.0007375000000138243
        },
        {
          "name": "C7",
          "midi": 96,
          "time": 207.26626250000777,
          "velocity": 0.7874015748031497,
          "duration": 0.0007375000000138243
        },
        {
          "name": "D7",
          "midi": 98,
          "time": 207.26626250000777,
          "velocity": 0.7874015748031497,
          "duration": 0.0007375000000138243
        },
        {
          "name": "C#4",
          "midi": 61,
          "time": 207.44400000000778,
          "velocity": 0.7874015748031497,
          "duration": 0.0007375000000138243
        },
        {
          "name": "C#5",
          "midi": 73,
          "time": 207.44400000000778,
          "velocity": 0.7874015748031497,
          "duration": 0.0007375000000138243
        },
        {
          "name": "C#6",
          "midi": 85,
          "time": 207.44400000000778,
          "velocity": 0.7874015748031497,
          "duration": 0.0007375000000138243
        },
        {
          "name": "C#7",
          "midi": 97,
          "time": 207.44400000000778,
          "velocity": 0.7874015748031497,
          "duration": 0.0007375000000138243
        },
        {
          "name": "D#6",
          "midi": 87,
          "time": 207.5620000000078,
          "velocity": 0.7874015748031497,
          "duration": 0.0007375000000138243
        },
        {
          "name": "D#7",
          "midi": 99,
          "time": 207.5620000000078,
          "velocity": 0.7874015748031497,
          "duration": 0.0007375000000138243
        },
        {
          "name": "D#6",
          "midi": 87,
          "time": 207.68000000000782,
          "velocity": 0.7874015748031497,
          "duration": 0.0007375000000138243
        },
        {
          "name": "D#7",
          "midi": 99,
          "time": 207.68000000000782,
          "velocity": 0.7874015748031497,
          "duration": 0.0007375000000138243
        },
        {
          "name": "F4",
          "midi": 65,
          "time": 207.79800000000785,
          "velocity": 0.7874015748031497,
          "duration": 0.0007375000000138243
        },
        {
          "name": "F5",
          "midi": 77,
          "time": 207.79800000000785,
          "velocity": 0.7874015748031497,
          "duration": 0.0007375000000138243
        },
        {
          "name": "F6",
          "midi": 89,
          "time": 207.79800000000785,
          "velocity": 0.7874015748031497,
          "duration": 0.0007375000000138243
        },
        {
          "name": "F7",
          "midi": 101,
          "time": 207.79800000000785,
          "velocity": 0.7874015748031497,
          "duration": 0.0007375000000138243
        },
        {
          "name": "F6",
          "midi": 89,
          "time": 207.91600000000787,
          "velocity": 0.7874015748031497,
          "duration": 0.0007375000000138243
        },
        {
          "name": "F7",
          "midi": 101,
          "time": 207.91600000000787,
          "velocity": 0.7874015748031497,
          "duration": 0.0007375000000138243
        },
        {
          "name": "F6",
          "midi": 89,
          "time": 208.0340000000079,
          "velocity": 0.7874015748031497,
          "duration": 0.0007375000000138243
        },
        {
          "name": "F7",
          "midi": 101,
          "time": 208.0340000000079,
          "velocity": 0.7874015748031497,
          "duration": 0.0007375000000138243
        },
        {
          "name": "D4",
          "midi": 62,
          "time": 208.15200000000792,
          "velocity": 0.7874015748031497,
          "duration": 0.0007375000000138243
        },
        {
          "name": "C5",
          "midi": 72,
          "time": 208.15200000000792,
          "velocity": 0.7874015748031497,
          "duration": 0.0007375000000138243
        },
        {
          "name": "D5",
          "midi": 74,
          "time": 208.15200000000792,
          "velocity": 0.7874015748031497,
          "duration": 0.0007375000000138243
        },
        {
          "name": "C6",
          "midi": 84,
          "time": 208.15200000000792,
          "velocity": 0.7874015748031497,
          "duration": 0.0007375000000138243
        },
        {
          "name": "D6",
          "midi": 86,
          "time": 208.15200000000792,
          "velocity": 0.7874015748031497,
          "duration": 0.0007375000000138243
        },
        {
          "name": "C7",
          "midi": 96,
          "time": 208.15200000000792,
          "velocity": 0.7874015748031497,
          "duration": 0.0007375000000138243
        },
        {
          "name": "D7",
          "midi": 98,
          "time": 208.15200000000792,
          "velocity": 0.7874015748031497,
          "duration": 0.0007375000000138243
        },
        {
          "name": "E4",
          "midi": 64,
          "time": 208.50600000000793,
          "velocity": 0.7874015748031497,
          "duration": 0.0007375000000138243
        },
        {
          "name": "E5",
          "midi": 76,
          "time": 208.50600000000793,
          "velocity": 0.7874015748031497,
          "duration": 0.0007375000000138243
        },
        {
          "name": "E6",
          "midi": 88,
          "time": 208.50600000000793,
          "velocity": 0.7874015748031497,
          "duration": 0.0007375000000138243
        },
        {
          "name": "E7",
          "midi": 100,
          "time": 208.50600000000793,
          "velocity": 0.7874015748031497,
          "duration": 0.0007375000000138243
        },
        {
          "name": "C6",
          "midi": 84,
          "time": 208.68300000000795,
          "velocity": 0.7874015748031497,
          "duration": 0.0007375000000138243
        },
        {
          "name": "C7",
          "midi": 96,
          "time": 208.68300000000795,
          "velocity": 0.7874015748031497,
          "duration": 0.0007375000000138243
        },
        {
          "name": "E7",
          "midi": 100,
          "time": 208.68300000000795,
          "velocity": 0.7874015748031497,
          "duration": 0.0007375000000138243
        },
        {
          "name": "C#4",
          "midi": 61,
          "time": 208.86000000000797,
          "velocity": 0.7874015748031497,
          "duration": 0.0007375000000138243
        },
        {
          "name": "C#5",
          "midi": 73,
          "time": 208.86000000000797,
          "velocity": 0.7874015748031497,
          "duration": 0.0007375000000138243
        },
        {
          "name": "E5",
          "midi": 76,
          "time": 208.86000000000797,
          "velocity": 0.7874015748031497,
          "duration": 0.0007375000000138243
        },
        {
          "name": "C#6",
          "midi": 85,
          "time": 208.86000000000797,
          "velocity": 0.7874015748031497,
          "duration": 0.0007375000000138243
        },
        {
          "name": "E6",
          "midi": 88,
          "time": 208.86000000000797,
          "velocity": 0.7874015748031497,
          "duration": 0.0007375000000138243
        },
        {
          "name": "C#7",
          "midi": 97,
          "time": 208.86000000000797,
          "velocity": 0.7874015748031497,
          "duration": 0.0007375000000138243
        },
        {
          "name": "E7",
          "midi": 100,
          "time": 208.86000000000797,
          "velocity": 0.7874015748031497,
          "duration": 0.0007375000000138243
        },
        {
          "name": "E7",
          "midi": 100,
          "time": 209.03773750000798,
          "velocity": 0.7874015748031497,
          "duration": 0.0007375000000138243
        },
        {
          "name": "E4",
          "midi": 64,
          "time": 209.21400000000799,
          "velocity": 0.7874015748031497,
          "duration": 0.0007375000000138243
        },
        {
          "name": "E5",
          "midi": 76,
          "time": 209.21400000000799,
          "velocity": 0.7874015748031497,
          "duration": 0.0007375000000138243
        },
        {
          "name": "E6",
          "midi": 88,
          "time": 209.21400000000799,
          "velocity": 0.7874015748031497,
          "duration": 0.0007375000000138243
        },
        {
          "name": "E7",
          "midi": 100,
          "time": 209.21400000000799,
          "velocity": 0.7874015748031497,
          "duration": 0.0007375000000138243
        },
        {
          "name": "C6",
          "midi": 84,
          "time": 209.391000000008,
          "velocity": 0.7874015748031497,
          "duration": 0.0007375000000138243
        },
        {
          "name": "C7",
          "midi": 96,
          "time": 209.391000000008,
          "velocity": 0.7874015748031497,
          "duration": 0.0007375000000138243
        },
        {
          "name": "E7",
          "midi": 100,
          "time": 209.391000000008,
          "velocity": 0.7874015748031497,
          "duration": 0.0007375000000138243
        },
        {
          "name": "C4",
          "midi": 60,
          "time": 209.56800000000803,
          "velocity": 0.7874015748031497,
          "duration": 0.0007375000000138243
        },
        {
          "name": "C5",
          "midi": 72,
          "time": 209.56800000000803,
          "velocity": 0.7874015748031497,
          "duration": 0.0007375000000138243
        },
        {
          "name": "E5",
          "midi": 76,
          "time": 209.56800000000803,
          "velocity": 0.7874015748031497,
          "duration": 0.0007375000000138243
        },
        {
          "name": "C6",
          "midi": 84,
          "time": 209.56800000000803,
          "velocity": 0.7874015748031497,
          "duration": 0.0007375000000138243
        },
        {
          "name": "E6",
          "midi": 88,
          "time": 209.56800000000803,
          "velocity": 0.7874015748031497,
          "duration": 0.0007375000000138243
        },
        {
          "name": "C7",
          "midi": 96,
          "time": 209.56800000000803,
          "velocity": 0.7874015748031497,
          "duration": 0.0007375000000138243
        },
        {
          "name": "E7",
          "midi": 100,
          "time": 209.56800000000803,
          "velocity": 0.7874015748031497,
          "duration": 0.0007375000000138243
        },
        {
          "name": "E7",
          "midi": 100,
          "time": 209.74426250000803,
          "velocity": 0.7874015748031497,
          "duration": 0.0007375000000138243
        },
        {
          "name": "E4",
          "midi": 64,
          "time": 209.92200000000804,
          "velocity": 0.7874015748031497,
          "duration": 0.0007375000000138243
        },
        {
          "name": "E5",
          "midi": 76,
          "time": 209.92200000000804,
          "velocity": 0.7874015748031497,
          "duration": 0.0007375000000138243
        },
        {
          "name": "E6",
          "midi": 88,
          "time": 209.92200000000804,
          "velocity": 0.7874015748031497,
          "duration": 0.0007375000000138243
        },
        {
          "name": "E7",
          "midi": 100,
          "time": 209.92200000000804,
          "velocity": 0.7874015748031497,
          "duration": 0.0007375000000138243
        },
        {
          "name": "C6",
          "midi": 84,
          "time": 210.09973750000805,
          "velocity": 0.7874015748031497,
          "duration": 0.0007375000000138243
        },
        {
          "name": "C7",
          "midi": 96,
          "time": 210.09973750000805,
          "velocity": 0.7874015748031497,
          "duration": 0.0007375000000138243
        },
        {
          "name": "E7",
          "midi": 100,
          "time": 210.09973750000805,
          "velocity": 0.7874015748031497,
          "duration": 0.0007375000000138243
        },
        {
          "name": "C#4",
          "midi": 61,
          "time": 210.27600000000805,
          "velocity": 0.7874015748031497,
          "duration": 0.0007375000000138243
        },
        {
          "name": "C#5",
          "midi": 73,
          "time": 210.27600000000805,
          "velocity": 0.7874015748031497,
          "duration": 0.0007375000000138243
        },
        {
          "name": "E5",
          "midi": 76,
          "time": 210.27600000000805,
          "velocity": 0.7874015748031497,
          "duration": 0.0007375000000138243
        },
        {
          "name": "C#6",
          "midi": 85,
          "time": 210.27600000000805,
          "velocity": 0.7874015748031497,
          "duration": 0.0007375000000138243
        },
        {
          "name": "E6",
          "midi": 88,
          "time": 210.27600000000805,
          "velocity": 0.7874015748031497,
          "duration": 0.0007375000000138243
        },
        {
          "name": "C#7",
          "midi": 97,
          "time": 210.27600000000805,
          "velocity": 0.7874015748031497,
          "duration": 0.0007375000000138243
        },
        {
          "name": "E7",
          "midi": 100,
          "time": 210.27600000000805,
          "velocity": 0.7874015748031497,
          "duration": 0.0007375000000138243
        },
        {
          "name": "C6",
          "midi": 84,
          "time": 210.45373750000806,
          "velocity": 0.7874015748031497,
          "duration": 0.0007375000000138243
        },
        {
          "name": "C7",
          "midi": 96,
          "time": 210.45373750000806,
          "velocity": 0.7874015748031497,
          "duration": 0.0007375000000138243
        },
        {
          "name": "E7",
          "midi": 100,
          "time": 210.45373750000806,
          "velocity": 0.7874015748031497,
          "duration": 0.0007375000000138243
        },
        {
          "name": "E4",
          "midi": 64,
          "time": 210.63000000000807,
          "velocity": 0.7874015748031497,
          "duration": 0.0007375000000138243
        },
        {
          "name": "E5",
          "midi": 76,
          "time": 210.63000000000807,
          "velocity": 0.7874015748031497,
          "duration": 0.0007375000000138243
        },
        {
          "name": "E6",
          "midi": 88,
          "time": 210.63000000000807,
          "velocity": 0.7874015748031497,
          "duration": 0.0007375000000138243
        },
        {
          "name": "E7",
          "midi": 100,
          "time": 210.63000000000807,
          "velocity": 0.7874015748031497,
          "duration": 0.0007375000000138243
        },
        {
          "name": "C6",
          "midi": 84,
          "time": 210.8070000000081,
          "velocity": 0.7874015748031497,
          "duration": 0.0007375000000138243
        },
        {
          "name": "C7",
          "midi": 96,
          "time": 210.8070000000081,
          "velocity": 0.7874015748031497,
          "duration": 0.0007375000000138243
        },
        {
          "name": "E7",
          "midi": 100,
          "time": 210.8070000000081,
          "velocity": 0.7874015748031497,
          "duration": 0.0007375000000138243
        },
        {
          "name": "E4",
          "midi": 64,
          "time": 210.9840000000081,
          "velocity": 0.7874015748031497,
          "duration": 0.0007375000000138243
        },
        {
          "name": "C5",
          "midi": 72,
          "time": 210.9840000000081,
          "velocity": 0.7874015748031497,
          "duration": 0.0007375000000138243
        },
        {
          "name": "E5",
          "midi": 76,
          "time": 210.9840000000081,
          "velocity": 0.7874015748031497,
          "duration": 0.0007375000000138243
        },
        {
          "name": "C6",
          "midi": 84,
          "time": 210.9840000000081,
          "velocity": 0.7874015748031497,
          "duration": 0.0007375000000138243
        },
        {
          "name": "E6",
          "midi": 88,
          "time": 210.9840000000081,
          "velocity": 0.7874015748031497,
          "duration": 0.0007375000000138243
        },
        {
          "name": "C7",
          "midi": 96,
          "time": 210.9840000000081,
          "velocity": 0.7874015748031497,
          "duration": 0.0007375000000138243
        },
        {
          "name": "E7",
          "midi": 100,
          "time": 210.9840000000081,
          "velocity": 0.7874015748031497,
          "duration": 0.0007375000000138243
        },
        {
          "name": "E7",
          "midi": 100,
          "time": 211.16173750000812,
          "velocity": 0.7874015748031497,
          "duration": 0.0007375000000138243
        },
        {
          "name": "E4",
          "midi": 64,
          "time": 211.33800000000812,
          "velocity": 0.7874015748031497,
          "duration": 0.0007375000000138243
        },
        {
          "name": "E5",
          "midi": 76,
          "time": 211.33800000000812,
          "velocity": 0.7874015748031497,
          "duration": 0.0007375000000138243
        },
        {
          "name": "E6",
          "midi": 88,
          "time": 211.33800000000812,
          "velocity": 0.7874015748031497,
          "duration": 0.0007375000000138243
        },
        {
          "name": "E7",
          "midi": 100,
          "time": 211.33800000000812,
          "velocity": 0.7874015748031497,
          "duration": 0.0007375000000138243
        },
        {
          "name": "C6",
          "midi": 84,
          "time": 211.51500000000814,
          "velocity": 0.7874015748031497,
          "duration": 0.0007375000000138243
        },
        {
          "name": "C7",
          "midi": 96,
          "time": 211.51500000000814,
          "velocity": 0.7874015748031497,
          "duration": 0.0007375000000138243
        },
        {
          "name": "E7",
          "midi": 100,
          "time": 211.51500000000814,
          "velocity": 0.7874015748031497,
          "duration": 0.0007375000000138243
        },
        {
          "name": "C#4",
          "midi": 61,
          "time": 211.69200000000816,
          "velocity": 0.7874015748031497,
          "duration": 0.0007375000000138243
        },
        {
          "name": "C#5",
          "midi": 73,
          "time": 211.69200000000816,
          "velocity": 0.7874015748031497,
          "duration": 0.0007375000000138243
        },
        {
          "name": "E5",
          "midi": 76,
          "time": 211.69200000000816,
          "velocity": 0.7874015748031497,
          "duration": 0.0007375000000138243
        },
        {
          "name": "C#6",
          "midi": 85,
          "time": 211.69200000000816,
          "velocity": 0.7874015748031497,
          "duration": 0.0007375000000138243
        },
        {
          "name": "E6",
          "midi": 88,
          "time": 211.69200000000816,
          "velocity": 0.7874015748031497,
          "duration": 0.0007375000000138243
        },
        {
          "name": "C#7",
          "midi": 97,
          "time": 211.69200000000816,
          "velocity": 0.7874015748031497,
          "duration": 0.0007375000000138243
        },
        {
          "name": "E7",
          "midi": 100,
          "time": 211.69200000000816,
          "velocity": 0.7874015748031497,
          "duration": 0.0007375000000138243
        },
        {
          "name": "E7",
          "midi": 100,
          "time": 211.86900000000819,
          "velocity": 0.7874015748031497,
          "duration": 0.0007375000000138243
        },
        {
          "name": "E4",
          "midi": 64,
          "time": 212.0460000000082,
          "velocity": 0.7874015748031497,
          "duration": 0.0007375000000138243
        },
        {
          "name": "E5",
          "midi": 76,
          "time": 212.0460000000082,
          "velocity": 0.7874015748031497,
          "duration": 0.0007375000000138243
        },
        {
          "name": "E6",
          "midi": 88,
          "time": 212.0460000000082,
          "velocity": 0.7874015748031497,
          "duration": 0.0007375000000138243
        },
        {
          "name": "E7",
          "midi": 100,
          "time": 212.0460000000082,
          "velocity": 0.7874015748031497,
          "duration": 0.0007375000000138243
        },
        {
          "name": "C6",
          "midi": 84,
          "time": 212.22300000000823,
          "velocity": 0.7874015748031497,
          "duration": 0.0007375000000138243
        },
        {
          "name": "C7",
          "midi": 96,
          "time": 212.22300000000823,
          "velocity": 0.7874015748031497,
          "duration": 0.0007375000000138243
        },
        {
          "name": "E7",
          "midi": 100,
          "time": 212.22300000000823,
          "velocity": 0.7874015748031497,
          "duration": 0.0007375000000138243
        },
        {
          "name": "C#4",
          "midi": 61,
          "time": 212.40000000000825,
          "velocity": 0.7874015748031497,
          "duration": 0.0007375000000138243
        },
        {
          "name": "C#5",
          "midi": 73,
          "time": 212.40000000000825,
          "velocity": 0.7874015748031497,
          "duration": 0.0007375000000138243
        },
        {
          "name": "D5",
          "midi": 74,
          "time": 212.40000000000825,
          "velocity": 0.7874015748031497,
          "duration": 0.0007375000000138243
        },
        {
          "name": "C#6",
          "midi": 85,
          "time": 212.40000000000825,
          "velocity": 0.7874015748031497,
          "duration": 0.0007375000000138243
        },
        {
          "name": "D6",
          "midi": 86,
          "time": 212.40000000000825,
          "velocity": 0.7874015748031497,
          "duration": 0.0007375000000138243
        },
        {
          "name": "C#7",
          "midi": 97,
          "time": 212.40000000000825,
          "velocity": 0.7874015748031497,
          "duration": 0.0007375000000138243
        },
        {
          "name": "D7",
          "midi": 98,
          "time": 212.40000000000825,
          "velocity": 0.7874015748031497,
          "duration": 0.0007375000000138243
        },
        {
          "name": "D#7",
          "midi": 99,
          "time": 212.63600000000827,
          "velocity": 0.7874015748031497,
          "duration": 0.0007375000000138243
        },
        {
          "name": "F7",
          "midi": 101,
          "time": 212.63600000000827,
          "velocity": 0.7874015748031497,
          "duration": 0.0007375000000138243
        },
        {
          "name": "D#4",
          "midi": 63,
          "time": 212.7540000000083,
          "velocity": 0.7874015748031497,
          "duration": 0.0007375000000138243
        },
        {
          "name": "D#5",
          "midi": 75,
          "time": 212.7540000000083,
          "velocity": 0.7874015748031497,
          "duration": 0.0007375000000138243
        },
        {
          "name": "D#6",
          "midi": 87,
          "time": 212.7540000000083,
          "velocity": 0.7874015748031497,
          "duration": 0.0007375000000138243
        },
        {
          "name": "F6",
          "midi": 89,
          "time": 212.7540000000083,
          "velocity": 0.7874015748031497,
          "duration": 0.0007375000000138243
        },
        {
          "name": "D#7",
          "midi": 99,
          "time": 212.7540000000083,
          "velocity": 0.7874015748031497,
          "duration": 0.0007375000000138243
        },
        {
          "name": "F7",
          "midi": 101,
          "time": 212.7540000000083,
          "velocity": 0.7874015748031497,
          "duration": 0.0007375000000138243
        },
        {
          "name": "D#4",
          "midi": 63,
          "time": 212.9310000000083,
          "velocity": 0.7874015748031497,
          "duration": 0.0007375000000138243
        },
        {
          "name": "D#5",
          "midi": 75,
          "time": 212.9310000000083,
          "velocity": 0.7874015748031497,
          "duration": 0.0007375000000138243
        },
        {
          "name": "D#6",
          "midi": 87,
          "time": 212.9310000000083,
          "velocity": 0.7874015748031497,
          "duration": 0.0007375000000138243
        },
        {
          "name": "F6",
          "midi": 89,
          "time": 212.9310000000083,
          "velocity": 0.7874015748031497,
          "duration": 0.0007375000000138243
        },
        {
          "name": "D#7",
          "midi": 99,
          "time": 212.9310000000083,
          "velocity": 0.7874015748031497,
          "duration": 0.0007375000000138243
        },
        {
          "name": "F7",
          "midi": 101,
          "time": 212.9310000000083,
          "velocity": 0.7874015748031497,
          "duration": 0.0007375000000138243
        },
        {
          "name": "D#4",
          "midi": 63,
          "time": 213.10800000000833,
          "velocity": 0.7874015748031497,
          "duration": 0.0007375000000138243
        },
        {
          "name": "D#5",
          "midi": 75,
          "time": 213.10800000000833,
          "velocity": 0.7874015748031497,
          "duration": 0.0007375000000138243
        },
        {
          "name": "D#6",
          "midi": 87,
          "time": 213.10800000000833,
          "velocity": 0.7874015748031497,
          "duration": 0.0007375000000138243
        },
        {
          "name": "F6",
          "midi": 89,
          "time": 213.10800000000833,
          "velocity": 0.7874015748031497,
          "duration": 0.0007375000000138243
        },
        {
          "name": "D#7",
          "midi": 99,
          "time": 213.10800000000833,
          "velocity": 0.7874015748031497,
          "duration": 0.0007375000000138243
        },
        {
          "name": "F7",
          "midi": 101,
          "time": 213.10800000000833,
          "velocity": 0.7874015748031497,
          "duration": 0.0007375000000138243
        },
        {
          "name": "D#4",
          "midi": 63,
          "time": 213.34400000000835,
          "velocity": 0.7874015748031497,
          "duration": 0.0007375000000138243
        },
        {
          "name": "D#5",
          "midi": 75,
          "time": 213.34400000000835,
          "velocity": 0.7874015748031497,
          "duration": 0.0007375000000138243
        },
        {
          "name": "D#6",
          "midi": 87,
          "time": 213.34400000000835,
          "velocity": 0.7874015748031497,
          "duration": 0.0007375000000138243
        },
        {
          "name": "F6",
          "midi": 89,
          "time": 213.34400000000835,
          "velocity": 0.7874015748031497,
          "duration": 0.0007375000000138243
        },
        {
          "name": "D#7",
          "midi": 99,
          "time": 213.34400000000835,
          "velocity": 0.7874015748031497,
          "duration": 0.0007375000000138243
        },
        {
          "name": "F7",
          "midi": 101,
          "time": 213.34400000000835,
          "velocity": 0.7874015748031497,
          "duration": 0.0007375000000138243
        },
        {
          "name": "D#4",
          "midi": 63,
          "time": 213.58000000000837,
          "velocity": 0.7874015748031497,
          "duration": 0.0007375000000138243
        },
        {
          "name": "D#5",
          "midi": 75,
          "time": 213.58000000000837,
          "velocity": 0.7874015748031497,
          "duration": 0.0007375000000138243
        },
        {
          "name": "D#6",
          "midi": 87,
          "time": 213.58000000000837,
          "velocity": 0.7874015748031497,
          "duration": 0.0007375000000138243
        },
        {
          "name": "F6",
          "midi": 89,
          "time": 213.58000000000837,
          "velocity": 0.7874015748031497,
          "duration": 0.0007375000000138243
        },
        {
          "name": "D#7",
          "midi": 99,
          "time": 213.58000000000837,
          "velocity": 0.7874015748031497,
          "duration": 0.0007375000000138243
        },
        {
          "name": "F7",
          "midi": 101,
          "time": 213.58000000000837,
          "velocity": 0.7874015748031497,
          "duration": 0.0007375000000138243
        },
        {
          "name": "D4",
          "midi": 62,
          "time": 213.8160000000084,
          "velocity": 0.7874015748031497,
          "duration": 0.0007375000000138243
        },
        {
          "name": "C5",
          "midi": 72,
          "time": 213.8160000000084,
          "velocity": 0.7874015748031497,
          "duration": 0.0007375000000138243
        },
        {
          "name": "D5",
          "midi": 74,
          "time": 213.8160000000084,
          "velocity": 0.7874015748031497,
          "duration": 0.0007375000000138243
        },
        {
          "name": "C6",
          "midi": 84,
          "time": 213.8160000000084,
          "velocity": 0.7874015748031497,
          "duration": 0.0007375000000138243
        },
        {
          "name": "D6",
          "midi": 86,
          "time": 213.8160000000084,
          "velocity": 0.7874015748031497,
          "duration": 0.0007375000000138243
        },
        {
          "name": "C7",
          "midi": 96,
          "time": 213.8160000000084,
          "velocity": 0.7874015748031497,
          "duration": 0.0007375000000138243
        },
        {
          "name": "D7",
          "midi": 98,
          "time": 213.8160000000084,
          "velocity": 0.7874015748031497,
          "duration": 0.0007375000000138243
        },
        {
          "name": "E4",
          "midi": 64,
          "time": 214.1700000000084,
          "velocity": 0.7874015748031497,
          "duration": 0.0007375000000138243
        },
        {
          "name": "E5",
          "midi": 76,
          "time": 214.1700000000084,
          "velocity": 0.7874015748031497,
          "duration": 0.0007375000000138243
        },
        {
          "name": "E6",
          "midi": 88,
          "time": 214.1700000000084,
          "velocity": 0.7874015748031497,
          "duration": 0.0007375000000138243
        },
        {
          "name": "E7",
          "midi": 100,
          "time": 214.1700000000084,
          "velocity": 0.7874015748031497,
          "duration": 0.0007375000000138243
        },
        {
          "name": "C6",
          "midi": 84,
          "time": 214.34700000000842,
          "velocity": 0.7874015748031497,
          "duration": 0.0007375000000138243
        },
        {
          "name": "C7",
          "midi": 96,
          "time": 214.34700000000842,
          "velocity": 0.7874015748031497,
          "duration": 0.0007375000000138243
        },
        {
          "name": "E7",
          "midi": 100,
          "time": 214.34700000000842,
          "velocity": 0.7874015748031497,
          "duration": 0.0007375000000138243
        },
        {
          "name": "C#4",
          "midi": 61,
          "time": 214.52400000000844,
          "velocity": 0.7874015748031497,
          "duration": 0.0007375000000138243
        },
        {
          "name": "C#5",
          "midi": 73,
          "time": 214.52400000000844,
          "velocity": 0.7874015748031497,
          "duration": 0.0007375000000138243
        },
        {
          "name": "E5",
          "midi": 76,
          "time": 214.52400000000844,
          "velocity": 0.7874015748031497,
          "duration": 0.0007375000000138243
        },
        {
          "name": "C#6",
          "midi": 85,
          "time": 214.52400000000844,
          "velocity": 0.7874015748031497,
          "duration": 0.0007375000000138243
        },
        {
          "name": "E6",
          "midi": 88,
          "time": 214.52400000000844,
          "velocity": 0.7874015748031497,
          "duration": 0.0007375000000138243
        },
        {
          "name": "C#7",
          "midi": 97,
          "time": 214.52400000000844,
          "velocity": 0.7874015748031497,
          "duration": 0.0007375000000138243
        },
        {
          "name": "E7",
          "midi": 100,
          "time": 214.52400000000844,
          "velocity": 0.7874015748031497,
          "duration": 0.0007375000000138243
        },
        {
          "name": "E7",
          "midi": 100,
          "time": 214.70173750000845,
          "velocity": 0.7874015748031497,
          "duration": 0.0007375000000138243
        },
        {
          "name": "E4",
          "midi": 64,
          "time": 214.87800000000846,
          "velocity": 0.7874015748031497,
          "duration": 0.0007375000000138243
        },
        {
          "name": "E5",
          "midi": 76,
          "time": 214.87800000000846,
          "velocity": 0.7874015748031497,
          "duration": 0.0007375000000138243
        },
        {
          "name": "E6",
          "midi": 88,
          "time": 214.87800000000846,
          "velocity": 0.7874015748031497,
          "duration": 0.0007375000000138243
        },
        {
          "name": "E7",
          "midi": 100,
          "time": 214.87800000000846,
          "velocity": 0.7874015748031497,
          "duration": 0.0007375000000138243
        },
        {
          "name": "C6",
          "midi": 84,
          "time": 215.05573750000846,
          "velocity": 0.7874015748031497,
          "duration": 0.0007375000000138243
        },
        {
          "name": "C7",
          "midi": 96,
          "time": 215.05573750000846,
          "velocity": 0.7874015748031497,
          "duration": 0.0007375000000138243
        },
        {
          "name": "E7",
          "midi": 100,
          "time": 215.05573750000846,
          "velocity": 0.7874015748031497,
          "duration": 0.0007375000000138243
        },
        {
          "name": "E4",
          "midi": 64,
          "time": 215.23200000000847,
          "velocity": 0.7874015748031497,
          "duration": 0.0007375000000138243
        },
        {
          "name": "C5",
          "midi": 72,
          "time": 215.23200000000847,
          "velocity": 0.7874015748031497,
          "duration": 0.0007375000000138243
        },
        {
          "name": "E5",
          "midi": 76,
          "time": 215.23200000000847,
          "velocity": 0.7874015748031497,
          "duration": 0.0007375000000138243
        },
        {
          "name": "C6",
          "midi": 84,
          "time": 215.23200000000847,
          "velocity": 0.7874015748031497,
          "duration": 0.0007375000000138243
        },
        {
          "name": "E6",
          "midi": 88,
          "time": 215.23200000000847,
          "velocity": 0.7874015748031497,
          "duration": 0.0007375000000138243
        },
        {
          "name": "C7",
          "midi": 96,
          "time": 215.23200000000847,
          "velocity": 0.7874015748031497,
          "duration": 0.0007375000000138243
        },
        {
          "name": "E7",
          "midi": 100,
          "time": 215.23200000000847,
          "velocity": 0.7874015748031497,
          "duration": 0.0007375000000138243
        },
        {
          "name": "E7",
          "midi": 100,
          "time": 215.4090000000085,
          "velocity": 0.7874015748031497,
          "duration": 0.0007375000000138243
        },
        {
          "name": "E4",
          "midi": 64,
          "time": 215.5860000000085,
          "velocity": 0.7874015748031497,
          "duration": 0.0007375000000138243
        },
        {
          "name": "E5",
          "midi": 76,
          "time": 215.5860000000085,
          "velocity": 0.7874015748031497,
          "duration": 0.0007375000000138243
        },
        {
          "name": "E6",
          "midi": 88,
          "time": 215.5860000000085,
          "velocity": 0.7874015748031497,
          "duration": 0.0007375000000138243
        },
        {
          "name": "E7",
          "midi": 100,
          "time": 215.5860000000085,
          "velocity": 0.7874015748031497,
          "duration": 0.0007375000000138243
        },
        {
          "name": "C6",
          "midi": 84,
          "time": 215.76373750000852,
          "velocity": 0.7874015748031497,
          "duration": 0.0007375000000138243
        },
        {
          "name": "C7",
          "midi": 96,
          "time": 215.76373750000852,
          "velocity": 0.7874015748031497,
          "duration": 0.0007375000000138243
        },
        {
          "name": "E7",
          "midi": 100,
          "time": 215.76373750000852,
          "velocity": 0.7874015748031497,
          "duration": 0.0007375000000138243
        },
        {
          "name": "C#4",
          "midi": 61,
          "time": 215.94000000000852,
          "velocity": 0.7874015748031497,
          "duration": 0.0007375000000138243
        },
        {
          "name": "C#5",
          "midi": 73,
          "time": 215.94000000000852,
          "velocity": 0.7874015748031497,
          "duration": 0.0007375000000138243
        },
        {
          "name": "E5",
          "midi": 76,
          "time": 215.94000000000852,
          "velocity": 0.7874015748031497,
          "duration": 0.0007375000000138243
        },
        {
          "name": "C#6",
          "midi": 85,
          "time": 215.94000000000852,
          "velocity": 0.7874015748031497,
          "duration": 0.0007375000000138243
        },
        {
          "name": "E6",
          "midi": 88,
          "time": 215.94000000000852,
          "velocity": 0.7874015748031497,
          "duration": 0.0007375000000138243
        },
        {
          "name": "C#7",
          "midi": 97,
          "time": 215.94000000000852,
          "velocity": 0.7874015748031497,
          "duration": 0.0007375000000138243
        },
        {
          "name": "E7",
          "midi": 100,
          "time": 215.94000000000852,
          "velocity": 0.7874015748031497,
          "duration": 0.0007375000000138243
        },
        {
          "name": "C6",
          "midi": 84,
          "time": 216.11773750000853,
          "velocity": 0.7874015748031497,
          "duration": 0.0007375000000138243
        },
        {
          "name": "C7",
          "midi": 96,
          "time": 216.11773750000853,
          "velocity": 0.7874015748031497,
          "duration": 0.0007375000000138243
        },
        {
          "name": "E7",
          "midi": 100,
          "time": 216.11773750000853,
          "velocity": 0.7874015748031497,
          "duration": 0.0007375000000138243
        },
        {
          "name": "E4",
          "midi": 64,
          "time": 216.29400000000854,
          "velocity": 0.7874015748031497,
          "duration": 0.0007375000000138243
        },
        {
          "name": "E5",
          "midi": 76,
          "time": 216.29400000000854,
          "velocity": 0.7874015748031497,
          "duration": 0.0007375000000138243
        },
        {
          "name": "E6",
          "midi": 88,
          "time": 216.29400000000854,
          "velocity": 0.7874015748031497,
          "duration": 0.0007375000000138243
        },
        {
          "name": "E7",
          "midi": 100,
          "time": 216.29400000000854,
          "velocity": 0.7874015748031497,
          "duration": 0.0007375000000138243
        },
        {
          "name": "C6",
          "midi": 84,
          "time": 216.47100000000856,
          "velocity": 0.7874015748031497,
          "duration": 0.0007375000000138243
        },
        {
          "name": "C7",
          "midi": 96,
          "time": 216.47100000000856,
          "velocity": 0.7874015748031497,
          "duration": 0.0007375000000138243
        },
        {
          "name": "E7",
          "midi": 100,
          "time": 216.47100000000856,
          "velocity": 0.7874015748031497,
          "duration": 0.0007375000000138243
        },
        {
          "name": "C4",
          "midi": 60,
          "time": 216.64800000000858,
          "velocity": 0.7874015748031497,
          "duration": 0.0007375000000138243
        },
        {
          "name": "C5",
          "midi": 72,
          "time": 216.64800000000858,
          "velocity": 0.7874015748031497,
          "duration": 0.0007375000000138243
        },
        {
          "name": "E5",
          "midi": 76,
          "time": 216.64800000000858,
          "velocity": 0.7874015748031497,
          "duration": 0.0007375000000138243
        },
        {
          "name": "C6",
          "midi": 84,
          "time": 216.64800000000858,
          "velocity": 0.7874015748031497,
          "duration": 0.0007375000000138243
        },
        {
          "name": "E6",
          "midi": 88,
          "time": 216.64800000000858,
          "velocity": 0.7874015748031497,
          "duration": 0.0007375000000138243
        },
        {
          "name": "C7",
          "midi": 96,
          "time": 216.64800000000858,
          "velocity": 0.7874015748031497,
          "duration": 0.0007375000000138243
        },
        {
          "name": "E7",
          "midi": 100,
          "time": 216.64800000000858,
          "velocity": 0.7874015748031497,
          "duration": 0.0007375000000138243
        },
        {
          "name": "E7",
          "midi": 100,
          "time": 216.8250000000086,
          "velocity": 0.7874015748031497,
          "duration": 0.0007375000000138243
        },
        {
          "name": "E4",
          "midi": 64,
          "time": 217.00200000000862,
          "velocity": 0.7874015748031497,
          "duration": 0.0007375000000138243
        },
        {
          "name": "E5",
          "midi": 76,
          "time": 217.00200000000862,
          "velocity": 0.7874015748031497,
          "duration": 0.0007375000000138243
        },
        {
          "name": "E6",
          "midi": 88,
          "time": 217.00200000000862,
          "velocity": 0.7874015748031497,
          "duration": 0.0007375000000138243
        },
        {
          "name": "E7",
          "midi": 100,
          "time": 217.00200000000862,
          "velocity": 0.7874015748031497,
          "duration": 0.0007375000000138243
        },
        {
          "name": "C6",
          "midi": 84,
          "time": 217.17900000000864,
          "velocity": 0.7874015748031497,
          "duration": 0.0007375000000138243
        },
        {
          "name": "C7",
          "midi": 96,
          "time": 217.17900000000864,
          "velocity": 0.7874015748031497,
          "duration": 0.0007375000000138243
        },
        {
          "name": "E7",
          "midi": 100,
          "time": 217.17900000000864,
          "velocity": 0.7874015748031497,
          "duration": 0.0007375000000138243
        },
        {
          "name": "C#4",
          "midi": 61,
          "time": 217.35600000000866,
          "velocity": 0.7874015748031497,
          "duration": 0.0007375000000138243
        },
        {
          "name": "C#5",
          "midi": 73,
          "time": 217.35600000000866,
          "velocity": 0.7874015748031497,
          "duration": 0.0007375000000138243
        },
        {
          "name": "E5",
          "midi": 76,
          "time": 217.35600000000866,
          "velocity": 0.7874015748031497,
          "duration": 0.0007375000000138243
        },
        {
          "name": "C#6",
          "midi": 85,
          "time": 217.35600000000866,
          "velocity": 0.7874015748031497,
          "duration": 0.0007375000000138243
        },
        {
          "name": "E6",
          "midi": 88,
          "time": 217.35600000000866,
          "velocity": 0.7874015748031497,
          "duration": 0.0007375000000138243
        },
        {
          "name": "C#7",
          "midi": 97,
          "time": 217.35600000000866,
          "velocity": 0.7874015748031497,
          "duration": 0.0007375000000138243
        },
        {
          "name": "E7",
          "midi": 100,
          "time": 217.35600000000866,
          "velocity": 0.7874015748031497,
          "duration": 0.0007375000000138243
        },
        {
          "name": "E7",
          "midi": 100,
          "time": 217.53300000000868,
          "velocity": 0.7874015748031497,
          "duration": 0.0007375000000138243
        },
        {
          "name": "E4",
          "midi": 64,
          "time": 217.7100000000087,
          "velocity": 0.7874015748031497,
          "duration": 0.0007375000000138243
        },
        {
          "name": "E5",
          "midi": 76,
          "time": 217.7100000000087,
          "velocity": 0.7874015748031497,
          "duration": 0.0007375000000138243
        },
        {
          "name": "E6",
          "midi": 88,
          "time": 217.7100000000087,
          "velocity": 0.7874015748031497,
          "duration": 0.0007375000000138243
        },
        {
          "name": "E7",
          "midi": 100,
          "time": 217.7100000000087,
          "velocity": 0.7874015748031497,
          "duration": 0.0007375000000138243
        },
        {
          "name": "C6",
          "midi": 84,
          "time": 217.8877375000087,
          "velocity": 0.7874015748031497,
          "duration": 0.0007375000000138243
        },
        {
          "name": "C7",
          "midi": 96,
          "time": 217.8877375000087,
          "velocity": 0.7874015748031497,
          "duration": 0.0007375000000138243
        },
        {
          "name": "E7",
          "midi": 100,
          "time": 217.8877375000087,
          "velocity": 0.7874015748031497,
          "duration": 0.0007375000000138243
        },
        {
          "name": "E4",
          "midi": 64,
          "time": 218.06400000000872,
          "velocity": 0.7874015748031497,
          "duration": 0.0007375000000138243
        },
        {
          "name": "C5",
          "midi": 72,
          "time": 218.06400000000872,
          "velocity": 0.7874015748031497,
          "duration": 0.0007375000000138243
        },
        {
          "name": "E5",
          "midi": 76,
          "time": 218.06400000000872,
          "velocity": 0.7874015748031497,
          "duration": 0.0007375000000138243
        },
        {
          "name": "C6",
          "midi": 84,
          "time": 218.06400000000872,
          "velocity": 0.7874015748031497,
          "duration": 0.0007375000000138243
        },
        {
          "name": "E6",
          "midi": 88,
          "time": 218.06400000000872,
          "velocity": 0.7874015748031497,
          "duration": 0.0007375000000138243
        },
        {
          "name": "C7",
          "midi": 96,
          "time": 218.06400000000872,
          "velocity": 0.7874015748031497,
          "duration": 0.0007375000000138243
        },
        {
          "name": "E7",
          "midi": 100,
          "time": 218.06400000000872,
          "velocity": 0.7874015748031497,
          "duration": 0.0007375000000138243
        },
        {
          "name": "E7",
          "midi": 100,
          "time": 218.24026250000873,
          "velocity": 0.7874015748031497,
          "duration": 0.0007375000000138243
        },
        {
          "name": "E4",
          "midi": 64,
          "time": 218.41800000000873,
          "velocity": 0.7874015748031497,
          "duration": 0.0007375000000138243
        },
        {
          "name": "E5",
          "midi": 76,
          "time": 218.41800000000873,
          "velocity": 0.7874015748031497,
          "duration": 0.0007375000000138243
        },
        {
          "name": "E6",
          "midi": 88,
          "time": 218.41800000000873,
          "velocity": 0.7874015748031497,
          "duration": 0.0007375000000138243
        },
        {
          "name": "E7",
          "midi": 100,
          "time": 218.41800000000873,
          "velocity": 0.7874015748031497,
          "duration": 0.0007375000000138243
        },
        {
          "name": "C6",
          "midi": 84,
          "time": 218.59500000000875,
          "velocity": 0.7874015748031497,
          "duration": 0.0007375000000138243
        },
        {
          "name": "C7",
          "midi": 96,
          "time": 218.59500000000875,
          "velocity": 0.7874015748031497,
          "duration": 0.0007375000000138243
        },
        {
          "name": "E7",
          "midi": 100,
          "time": 218.59500000000875,
          "velocity": 0.7874015748031497,
          "duration": 0.0007375000000138243
        },
        {
          "name": "C#4",
          "midi": 61,
          "time": 218.77200000000877,
          "velocity": 0.7874015748031497,
          "duration": 0.0007375000000138243
        },
        {
          "name": "C#5",
          "midi": 73,
          "time": 218.77200000000877,
          "velocity": 0.7874015748031497,
          "duration": 0.0007375000000138243
        },
        {
          "name": "C#6",
          "midi": 85,
          "time": 218.77200000000877,
          "velocity": 0.7874015748031497,
          "duration": 0.0007375000000138243
        },
        {
          "name": "C#7",
          "midi": 97,
          "time": 218.77200000000877,
          "velocity": 0.7874015748031497,
          "duration": 0.0007375000000138243
        },
        {
          "name": "E4",
          "midi": 64,
          "time": 218.94826250000878,
          "velocity": 0.7874015748031497,
          "duration": 0.0007375000000138243
        },
        {
          "name": "C5",
          "midi": 72,
          "time": 218.94826250000878,
          "velocity": 0.7874015748031497,
          "duration": 0.0007375000000138243
        },
        {
          "name": "E5",
          "midi": 76,
          "time": 218.94826250000878,
          "velocity": 0.7874015748031497,
          "duration": 0.0007375000000138243
        },
        {
          "name": "C6",
          "midi": 84,
          "time": 218.94826250000878,
          "velocity": 0.7874015748031497,
          "duration": 0.0007375000000138243
        },
        {
          "name": "E6",
          "midi": 88,
          "time": 218.94826250000878,
          "velocity": 0.7874015748031497,
          "duration": 0.0007375000000138243
        },
        {
          "name": "C7",
          "midi": 96,
          "time": 218.94826250000878,
          "velocity": 0.7874015748031497,
          "duration": 0.0007375000000138243
        },
        {
          "name": "E7",
          "midi": 100,
          "time": 218.94826250000878,
          "velocity": 0.7874015748031497,
          "duration": 0.0007375000000138243
        },
        {
          "name": "E4",
          "midi": 64,
          "time": 219.24400000000878,
          "velocity": 0.7874015748031497,
          "duration": 0.0007375000000138243
        },
        {
          "name": "E5",
          "midi": 76,
          "time": 219.24400000000878,
          "velocity": 0.7874015748031497,
          "duration": 0.0007375000000138243
        },
        {
          "name": "C6",
          "midi": 84,
          "time": 219.24400000000878,
          "velocity": 0.7874015748031497,
          "duration": 0.0007375000000138243
        },
        {
          "name": "E6",
          "midi": 88,
          "time": 219.24400000000878,
          "velocity": 0.7874015748031497,
          "duration": 0.0007375000000138243
        },
        {
          "name": "C7",
          "midi": 96,
          "time": 219.24400000000878,
          "velocity": 0.7874015748031497,
          "duration": 0.0007375000000138243
        },
        {
          "name": "D7",
          "midi": 98,
          "time": 219.24400000000878,
          "velocity": 0.7874015748031497,
          "duration": 0.0007375000000138243
        },
        {
          "name": "E4",
          "midi": 64,
          "time": 219.4800000000088,
          "velocity": 0.7874015748031497,
          "duration": 0.0007375000000138243
        },
        {
          "name": "C5",
          "midi": 72,
          "time": 219.4800000000088,
          "velocity": 0.7874015748031497,
          "duration": 0.0007375000000138243
        },
        {
          "name": "E5",
          "midi": 76,
          "time": 219.4800000000088,
          "velocity": 0.7874015748031497,
          "duration": 0.0007375000000138243
        },
        {
          "name": "C6",
          "midi": 84,
          "time": 219.4800000000088,
          "velocity": 0.7874015748031497,
          "duration": 0.0007375000000138243
        },
        {
          "name": "E6",
          "midi": 88,
          "time": 219.4800000000088,
          "velocity": 0.7874015748031497,
          "duration": 0.0007375000000138243
        },
        {
          "name": "C7",
          "midi": 96,
          "time": 219.4800000000088,
          "velocity": 0.7874015748031497,
          "duration": 0.0007375000000138243
        },
        {
          "name": "E7",
          "midi": 100,
          "time": 219.4800000000088,
          "velocity": 0.7874015748031497,
          "duration": 0.0007375000000138243
        },
        {
          "name": "D4",
          "midi": 62,
          "time": 219.8340000000088,
          "velocity": 0.7874015748031497,
          "duration": 0.0007375000000138243
        },
        {
          "name": "D5",
          "midi": 74,
          "time": 219.8340000000088,
          "velocity": 0.7874015748031497,
          "duration": 0.0007375000000138243
        },
        {
          "name": "D6",
          "midi": 86,
          "time": 219.8340000000088,
          "velocity": 0.7874015748031497,
          "duration": 0.0007375000000138243
        },
        {
          "name": "D7",
          "midi": 98,
          "time": 219.8340000000088,
          "velocity": 0.7874015748031497,
          "duration": 0.0007375000000138243
        },
        {
          "name": "C#4",
          "midi": 61,
          "time": 220.18800000000883,
          "velocity": 0.7874015748031497,
          "duration": 0.0007375000000138243
        },
        {
          "name": "C#5",
          "midi": 73,
          "time": 220.18800000000883,
          "velocity": 0.7874015748031497,
          "duration": 0.0007375000000138243
        },
        {
          "name": "D5",
          "midi": 74,
          "time": 220.18800000000883,
          "velocity": 0.7874015748031497,
          "duration": 0.0007375000000138243
        },
        {
          "name": "C#6",
          "midi": 85,
          "time": 220.18800000000883,
          "velocity": 0.7874015748031497,
          "duration": 0.0007375000000138243
        },
        {
          "name": "D6",
          "midi": 86,
          "time": 220.18800000000883,
          "velocity": 0.7874015748031497,
          "duration": 0.0007375000000138243
        },
        {
          "name": "C#7",
          "midi": 97,
          "time": 220.18800000000883,
          "velocity": 0.7874015748031497,
          "duration": 0.0007375000000138243
        },
        {
          "name": "D7",
          "midi": 98,
          "time": 220.18800000000883,
          "velocity": 0.7874015748031497,
          "duration": 0.0007375000000138243
        },
        {
          "name": "D4",
          "midi": 62,
          "time": 220.54200000000884,
          "velocity": 0.7874015748031497,
          "duration": 0.0007375000000138243
        },
        {
          "name": "D5",
          "midi": 74,
          "time": 220.54200000000884,
          "velocity": 0.7874015748031497,
          "duration": 0.0007375000000138243
        },
        {
          "name": "D6",
          "midi": 86,
          "time": 220.54200000000884,
          "velocity": 0.7874015748031497,
          "duration": 0.0007375000000138243
        },
        {
          "name": "D7",
          "midi": 98,
          "time": 220.54200000000884,
          "velocity": 0.7874015748031497,
          "duration": 0.0007375000000138243
        },
        {
          "name": "D4",
          "midi": 62,
          "time": 220.89600000000885,
          "velocity": 0.7874015748031497,
          "duration": 0.0007375000000138243
        },
        {
          "name": "D5",
          "midi": 74,
          "time": 220.89600000000885,
          "velocity": 0.7874015748031497,
          "duration": 0.0007375000000138243
        },
        {
          "name": "D6",
          "midi": 86,
          "time": 220.89600000000885,
          "velocity": 0.7874015748031497,
          "duration": 0.0007375000000138243
        },
        {
          "name": "D7",
          "midi": 98,
          "time": 220.89600000000885,
          "velocity": 0.7874015748031497,
          "duration": 0.0007375000000138243
        },
        {
          "name": "D4",
          "midi": 62,
          "time": 221.25000000000887,
          "velocity": 0.7874015748031497,
          "duration": 0.0007375000000138243
        },
        {
          "name": "C5",
          "midi": 72,
          "time": 221.25000000000887,
          "velocity": 0.7874015748031497,
          "duration": 0.0007375000000138243
        },
        {
          "name": "D5",
          "midi": 74,
          "time": 221.25000000000887,
          "velocity": 0.7874015748031497,
          "duration": 0.0007375000000138243
        },
        {
          "name": "C6",
          "midi": 84,
          "time": 221.25000000000887,
          "velocity": 0.7874015748031497,
          "duration": 0.0007375000000138243
        },
        {
          "name": "D6",
          "midi": 86,
          "time": 221.25000000000887,
          "velocity": 0.7874015748031497,
          "duration": 0.0007375000000138243
        },
        {
          "name": "C7",
          "midi": 96,
          "time": 221.25000000000887,
          "velocity": 0.7874015748031497,
          "duration": 0.0007375000000138243
        },
        {
          "name": "D7",
          "midi": 98,
          "time": 221.25000000000887,
          "velocity": 0.7874015748031497,
          "duration": 0.0007375000000138243
        },
        {
          "name": "C#4",
          "midi": 61,
          "time": 221.60400000000888,
          "velocity": 0.7874015748031497,
          "duration": 0.0007375000000138243
        },
        {
          "name": "C#5",
          "midi": 73,
          "time": 221.60400000000888,
          "velocity": 0.7874015748031497,
          "duration": 0.0007375000000138243
        },
        {
          "name": "D5",
          "midi": 74,
          "time": 221.60400000000888,
          "velocity": 0.7874015748031497,
          "duration": 0.0007375000000138243
        },
        {
          "name": "C#6",
          "midi": 85,
          "time": 221.60400000000888,
          "velocity": 0.7874015748031497,
          "duration": 0.0007375000000138243
        },
        {
          "name": "D6",
          "midi": 86,
          "time": 221.60400000000888,
          "velocity": 0.7874015748031497,
          "duration": 0.0007375000000138243
        },
        {
          "name": "C#7",
          "midi": 97,
          "time": 221.60400000000888,
          "velocity": 0.7874015748031497,
          "duration": 0.0007375000000138243
        },
        {
          "name": "D7",
          "midi": 98,
          "time": 221.60400000000888,
          "velocity": 0.7874015748031497,
          "duration": 0.0007375000000138243
        },
        {
          "name": "C6",
          "midi": 84,
          "time": 221.7802625000089,
          "velocity": 0.7874015748031497,
          "duration": 0.0007375000000138243
        },
        {
          "name": "C7",
          "midi": 96,
          "time": 221.7802625000089,
          "velocity": 0.7874015748031497,
          "duration": 0.0007375000000138243
        },
        {
          "name": "D4",
          "midi": 62,
          "time": 221.9580000000089,
          "velocity": 0.7874015748031497,
          "duration": 0.0007375000000138243
        },
        {
          "name": "D5",
          "midi": 74,
          "time": 221.9580000000089,
          "velocity": 0.7874015748031497,
          "duration": 0.0007375000000138243
        },
        {
          "name": "D6",
          "midi": 86,
          "time": 221.9580000000089,
          "velocity": 0.7874015748031497,
          "duration": 0.0007375000000138243
        },
        {
          "name": "D7",
          "midi": 98,
          "time": 221.9580000000089,
          "velocity": 0.7874015748031497,
          "duration": 0.0007375000000138243
        },
        {
          "name": "C6",
          "midi": 84,
          "time": 222.1357375000089,
          "velocity": 0.7874015748031497,
          "duration": 0.0007375000000138243
        },
        {
          "name": "C7",
          "midi": 96,
          "time": 222.1357375000089,
          "velocity": 0.7874015748031497,
          "duration": 0.0007375000000138243
        },
        {
          "name": "C4",
          "midi": 60,
          "time": 222.3120000000089,
          "velocity": 0.7874015748031497,
          "duration": 0.0007375000000138243
        },
        {
          "name": "C5",
          "midi": 72,
          "time": 222.3120000000089,
          "velocity": 0.7874015748031497,
          "duration": 0.0007375000000138243
        },
        {
          "name": "D5",
          "midi": 74,
          "time": 222.3120000000089,
          "velocity": 0.7874015748031497,
          "duration": 0.0007375000000138243
        },
        {
          "name": "C6",
          "midi": 84,
          "time": 222.3120000000089,
          "velocity": 0.7874015748031497,
          "duration": 0.0007375000000138243
        },
        {
          "name": "D6",
          "midi": 86,
          "time": 222.3120000000089,
          "velocity": 0.7874015748031497,
          "duration": 0.0007375000000138243
        },
        {
          "name": "C7",
          "midi": 96,
          "time": 222.3120000000089,
          "velocity": 0.7874015748031497,
          "duration": 0.0007375000000138243
        },
        {
          "name": "D7",
          "midi": 98,
          "time": 222.3120000000089,
          "velocity": 0.7874015748031497,
          "duration": 0.0007375000000138243
        },
        {
          "name": "D4",
          "midi": 62,
          "time": 222.66600000000892,
          "velocity": 0.7874015748031497,
          "duration": 0.0007375000000138243
        },
        {
          "name": "D5",
          "midi": 74,
          "time": 222.66600000000892,
          "velocity": 0.7874015748031497,
          "duration": 0.0007375000000138243
        },
        {
          "name": "D6",
          "midi": 86,
          "time": 222.66600000000892,
          "velocity": 0.7874015748031497,
          "duration": 0.0007375000000138243
        },
        {
          "name": "D7",
          "midi": 98,
          "time": 222.66600000000892,
          "velocity": 0.7874015748031497,
          "duration": 0.0007375000000138243
        },
        {
          "name": "C#4",
          "midi": 61,
          "time": 223.02000000000893,
          "velocity": 0.7874015748031497,
          "duration": 0.0007375000000138243
        },
        {
          "name": "C#5",
          "midi": 73,
          "time": 223.02000000000893,
          "velocity": 0.7874015748031497,
          "duration": 0.0007375000000138243
        },
        {
          "name": "D5",
          "midi": 74,
          "time": 223.02000000000893,
          "velocity": 0.7874015748031497,
          "duration": 0.0007375000000138243
        },
        {
          "name": "C#6",
          "midi": 85,
          "time": 223.02000000000893,
          "velocity": 0.7874015748031497,
          "duration": 0.0007375000000138243
        },
        {
          "name": "D6",
          "midi": 86,
          "time": 223.02000000000893,
          "velocity": 0.7874015748031497,
          "duration": 0.0007375000000138243
        },
        {
          "name": "C#7",
          "midi": 97,
          "time": 223.02000000000893,
          "velocity": 0.7874015748031497,
          "duration": 0.0007375000000138243
        },
        {
          "name": "D7",
          "midi": 98,
          "time": 223.02000000000893,
          "velocity": 0.7874015748031497,
          "duration": 0.0007375000000138243
        },
        {
          "name": "D4",
          "midi": 62,
          "time": 223.37400000000895,
          "velocity": 0.7874015748031497,
          "duration": 0.0007375000000138243
        },
        {
          "name": "D5",
          "midi": 74,
          "time": 223.37400000000895,
          "velocity": 0.7874015748031497,
          "duration": 0.0007375000000138243
        },
        {
          "name": "D6",
          "midi": 86,
          "time": 223.37400000000895,
          "velocity": 0.7874015748031497,
          "duration": 0.0007375000000138243
        },
        {
          "name": "D7",
          "midi": 98,
          "time": 223.37400000000895,
          "velocity": 0.7874015748031497,
          "duration": 0.0007375000000138243
        },
        {
          "name": "D4",
          "midi": 62,
          "time": 223.72800000000896,
          "velocity": 0.7874015748031497,
          "duration": 0.0007375000000138243
        },
        {
          "name": "D5",
          "midi": 74,
          "time": 223.72800000000896,
          "velocity": 0.7874015748031497,
          "duration": 0.0007375000000138243
        },
        {
          "name": "D6",
          "midi": 86,
          "time": 223.72800000000896,
          "velocity": 0.7874015748031497,
          "duration": 0.0007375000000138243
        },
        {
          "name": "D7",
          "midi": 98,
          "time": 223.72800000000896,
          "velocity": 0.7874015748031497,
          "duration": 0.0007375000000138243
        },
        {
          "name": "D4",
          "midi": 62,
          "time": 224.08200000000897,
          "velocity": 0.7874015748031497,
          "duration": 0.0007375000000138243
        },
        {
          "name": "C5",
          "midi": 72,
          "time": 224.08200000000897,
          "velocity": 0.7874015748031497,
          "duration": 0.0007375000000138243
        },
        {
          "name": "D5",
          "midi": 74,
          "time": 224.08200000000897,
          "velocity": 0.7874015748031497,
          "duration": 0.0007375000000138243
        },
        {
          "name": "C6",
          "midi": 84,
          "time": 224.08200000000897,
          "velocity": 0.7874015748031497,
          "duration": 0.0007375000000138243
        },
        {
          "name": "D6",
          "midi": 86,
          "time": 224.08200000000897,
          "velocity": 0.7874015748031497,
          "duration": 0.0007375000000138243
        },
        {
          "name": "C7",
          "midi": 96,
          "time": 224.08200000000897,
          "velocity": 0.7874015748031497,
          "duration": 0.0007375000000138243
        },
        {
          "name": "D7",
          "midi": 98,
          "time": 224.08200000000897,
          "velocity": 0.7874015748031497,
          "duration": 0.0007375000000138243
        },
        {
          "name": "C6",
          "midi": 84,
          "time": 224.259000000009,
          "velocity": 0.7874015748031497,
          "duration": 0.0007375000000138243
        },
        {
          "name": "C7",
          "midi": 96,
          "time": 224.259000000009,
          "velocity": 0.7874015748031497,
          "duration": 0.0007375000000138243
        },
        {
          "name": "C#4",
          "midi": 61,
          "time": 224.43600000000902,
          "velocity": 0.7874015748031497,
          "duration": 0.0007375000000138243
        },
        {
          "name": "C#5",
          "midi": 73,
          "time": 224.43600000000902,
          "velocity": 0.7874015748031497,
          "duration": 0.0007375000000138243
        },
        {
          "name": "D5",
          "midi": 74,
          "time": 224.43600000000902,
          "velocity": 0.7874015748031497,
          "duration": 0.0007375000000138243
        },
        {
          "name": "C#6",
          "midi": 85,
          "time": 224.43600000000902,
          "velocity": 0.7874015748031497,
          "duration": 0.0007375000000138243
        },
        {
          "name": "D6",
          "midi": 86,
          "time": 224.43600000000902,
          "velocity": 0.7874015748031497,
          "duration": 0.0007375000000138243
        },
        {
          "name": "C#7",
          "midi": 97,
          "time": 224.43600000000902,
          "velocity": 0.7874015748031497,
          "duration": 0.0007375000000138243
        },
        {
          "name": "D7",
          "midi": 98,
          "time": 224.43600000000902,
          "velocity": 0.7874015748031497,
          "duration": 0.0007375000000138243
        },
        {
          "name": "C6",
          "midi": 84,
          "time": 224.61373750000902,
          "velocity": 0.7874015748031497,
          "duration": 0.0007375000000138243
        },
        {
          "name": "C7",
          "midi": 96,
          "time": 224.61373750000902,
          "velocity": 0.7874015748031497,
          "duration": 0.0007375000000138243
        },
        {
          "name": "D4",
          "midi": 62,
          "time": 224.79000000000903,
          "velocity": 0.7874015748031497,
          "duration": 0.0007375000000138243
        },
        {
          "name": "D5",
          "midi": 74,
          "time": 224.79000000000903,
          "velocity": 0.7874015748031497,
          "duration": 0.0007375000000138243
        },
        {
          "name": "C6",
          "midi": 84,
          "time": 224.79000000000903,
          "velocity": 0.7874015748031497,
          "duration": 0.0007375000000138243
        },
        {
          "name": "D6",
          "midi": 86,
          "time": 224.79000000000903,
          "velocity": 0.7874015748031497,
          "duration": 0.0007375000000138243
        },
        {
          "name": "C7",
          "midi": 96,
          "time": 224.79000000000903,
          "velocity": 0.7874015748031497,
          "duration": 0.0007375000000138243
        },
        {
          "name": "D7",
          "midi": 98,
          "time": 224.79000000000903,
          "velocity": 0.7874015748031497,
          "duration": 0.0007375000000138243
        },
        {
          "name": "C4",
          "midi": 60,
          "time": 225.14400000000904,
          "velocity": 0.7874015748031497,
          "duration": 0.0007375000000138243
        },
        {
          "name": "C5",
          "midi": 72,
          "time": 225.14400000000904,
          "velocity": 0.7874015748031497,
          "duration": 0.0007375000000138243
        },
        {
          "name": "D5",
          "midi": 74,
          "time": 225.14400000000904,
          "velocity": 0.7874015748031497,
          "duration": 0.0007375000000138243
        },
        {
          "name": "C6",
          "midi": 84,
          "time": 225.14400000000904,
          "velocity": 0.7874015748031497,
          "duration": 0.0007375000000138243
        },
        {
          "name": "D6",
          "midi": 86,
          "time": 225.14400000000904,
          "velocity": 0.7874015748031497,
          "duration": 0.0007375000000138243
        },
        {
          "name": "C7",
          "midi": 96,
          "time": 225.14400000000904,
          "velocity": 0.7874015748031497,
          "duration": 0.0007375000000138243
        },
        {
          "name": "D7",
          "midi": 98,
          "time": 225.14400000000904,
          "velocity": 0.7874015748031497,
          "duration": 0.0007375000000138243
        },
        {
          "name": "D4",
          "midi": 62,
          "time": 225.49800000000906,
          "velocity": 0.7874015748031497,
          "duration": 0.0007375000000138243
        },
        {
          "name": "D5",
          "midi": 74,
          "time": 225.49800000000906,
          "velocity": 0.7874015748031497,
          "duration": 0.0007375000000138243
        },
        {
          "name": "D6",
          "midi": 86,
          "time": 225.49800000000906,
          "velocity": 0.7874015748031497,
          "duration": 0.0007375000000138243
        },
        {
          "name": "D7",
          "midi": 98,
          "time": 225.49800000000906,
          "velocity": 0.7874015748031497,
          "duration": 0.0007375000000138243
        },
        {
          "name": "C#4",
          "midi": 61,
          "time": 225.85200000000907,
          "velocity": 0.7874015748031497,
          "duration": 0.0007375000000138243
        },
        {
          "name": "C#5",
          "midi": 73,
          "time": 225.85200000000907,
          "velocity": 0.7874015748031497,
          "duration": 0.0007375000000138243
        },
        {
          "name": "D5",
          "midi": 74,
          "time": 225.85200000000907,
          "velocity": 0.7874015748031497,
          "duration": 0.0007375000000138243
        },
        {
          "name": "C#6",
          "midi": 85,
          "time": 225.85200000000907,
          "velocity": 0.7874015748031497,
          "duration": 0.0007375000000138243
        },
        {
          "name": "D6",
          "midi": 86,
          "time": 225.85200000000907,
          "velocity": 0.7874015748031497,
          "duration": 0.0007375000000138243
        },
        {
          "name": "C#7",
          "midi": 97,
          "time": 225.85200000000907,
          "velocity": 0.7874015748031497,
          "duration": 0.0007375000000138243
        },
        {
          "name": "D7",
          "midi": 98,
          "time": 225.85200000000907,
          "velocity": 0.7874015748031497,
          "duration": 0.0007375000000138243
        },
        {
          "name": "D4",
          "midi": 62,
          "time": 226.20600000000908,
          "velocity": 0.7874015748031497,
          "duration": 0.0007375000000138243
        },
        {
          "name": "D5",
          "midi": 74,
          "time": 226.20600000000908,
          "velocity": 0.7874015748031497,
          "duration": 0.0007375000000138243
        },
        {
          "name": "D6",
          "midi": 86,
          "time": 226.20600000000908,
          "velocity": 0.7874015748031497,
          "duration": 0.0007375000000138243
        },
        {
          "name": "D7",
          "midi": 98,
          "time": 226.20600000000908,
          "velocity": 0.7874015748031497,
          "duration": 0.0007375000000138243
        },
        {
          "name": "D4",
          "midi": 62,
          "time": 226.5600000000091,
          "velocity": 0.7874015748031497,
          "duration": 0.0007375000000138243
        },
        {
          "name": "C5",
          "midi": 72,
          "time": 226.5600000000091,
          "velocity": 0.7874015748031497,
          "duration": 0.0007375000000138243
        },
        {
          "name": "D5",
          "midi": 74,
          "time": 226.5600000000091,
          "velocity": 0.7874015748031497,
          "duration": 0.0007375000000138243
        },
        {
          "name": "C6",
          "midi": 84,
          "time": 226.5600000000091,
          "velocity": 0.7874015748031497,
          "duration": 0.0007375000000138243
        },
        {
          "name": "D6",
          "midi": 86,
          "time": 226.5600000000091,
          "velocity": 0.7874015748031497,
          "duration": 0.0007375000000138243
        },
        {
          "name": "C7",
          "midi": 96,
          "time": 226.5600000000091,
          "velocity": 0.7874015748031497,
          "duration": 0.0007375000000138243
        },
        {
          "name": "D7",
          "midi": 98,
          "time": 226.5600000000091,
          "velocity": 0.7874015748031497,
          "duration": 0.0007375000000138243
        },
        {
          "name": "D4",
          "midi": 62,
          "time": 226.9140000000091,
          "velocity": 0.7874015748031497,
          "duration": 0.0007375000000138243
        },
        {
          "name": "D5",
          "midi": 74,
          "time": 226.9140000000091,
          "velocity": 0.7874015748031497,
          "duration": 0.0007375000000138243
        },
        {
          "name": "C6",
          "midi": 84,
          "time": 226.9140000000091,
          "velocity": 0.7874015748031497,
          "duration": 0.0007375000000138243
        },
        {
          "name": "D6",
          "midi": 86,
          "time": 226.9140000000091,
          "velocity": 0.7874015748031497,
          "duration": 0.0007375000000138243
        },
        {
          "name": "C7",
          "midi": 96,
          "time": 226.9140000000091,
          "velocity": 0.7874015748031497,
          "duration": 0.0007375000000138243
        },
        {
          "name": "D7",
          "midi": 98,
          "time": 226.9140000000091,
          "velocity": 0.7874015748031497,
          "duration": 0.0007375000000138243
        },
        {
          "name": "C#4",
          "midi": 61,
          "time": 227.26800000000912,
          "velocity": 0.7874015748031497,
          "duration": 0.0007375000000138243
        },
        {
          "name": "C#5",
          "midi": 73,
          "time": 227.26800000000912,
          "velocity": 0.7874015748031497,
          "duration": 0.0007375000000138243
        },
        {
          "name": "D5",
          "midi": 74,
          "time": 227.26800000000912,
          "velocity": 0.7874015748031497,
          "duration": 0.0007375000000138243
        },
        {
          "name": "C#6",
          "midi": 85,
          "time": 227.26800000000912,
          "velocity": 0.7874015748031497,
          "duration": 0.0007375000000138243
        },
        {
          "name": "D6",
          "midi": 86,
          "time": 227.26800000000912,
          "velocity": 0.7874015748031497,
          "duration": 0.0007375000000138243
        },
        {
          "name": "C#7",
          "midi": 97,
          "time": 227.26800000000912,
          "velocity": 0.7874015748031497,
          "duration": 0.0007375000000138243
        },
        {
          "name": "D7",
          "midi": 98,
          "time": 227.26800000000912,
          "velocity": 0.7874015748031497,
          "duration": 0.0007375000000138243
        },
        {
          "name": "D4",
          "midi": 62,
          "time": 227.62200000000914,
          "velocity": 0.7874015748031497,
          "duration": 0.0007375000000138243
        },
        {
          "name": "D5",
          "midi": 74,
          "time": 227.62200000000914,
          "velocity": 0.7874015748031497,
          "duration": 0.0007375000000138243
        },
        {
          "name": "C6",
          "midi": 84,
          "time": 227.62200000000914,
          "velocity": 0.7874015748031497,
          "duration": 0.0007375000000138243
        },
        {
          "name": "D6",
          "midi": 86,
          "time": 227.62200000000914,
          "velocity": 0.7874015748031497,
          "duration": 0.0007375000000138243
        },
        {
          "name": "C7",
          "midi": 96,
          "time": 227.62200000000914,
          "velocity": 0.7874015748031497,
          "duration": 0.0007375000000138243
        },
        {
          "name": "D7",
          "midi": 98,
          "time": 227.62200000000914,
          "velocity": 0.7874015748031497,
          "duration": 0.0007375000000138243
        },
        {
          "name": "D4",
          "midi": 62,
          "time": 227.97600000000915,
          "velocity": 0.7874015748031497,
          "duration": 0.0007375000000138243
        },
        {
          "name": "D5",
          "midi": 74,
          "time": 227.97600000000915,
          "velocity": 0.7874015748031497,
          "duration": 0.0007375000000138243
        },
        {
          "name": "D6",
          "midi": 86,
          "time": 227.97600000000915,
          "velocity": 0.7874015748031497,
          "duration": 0.0007375000000138243
        },
        {
          "name": "D7",
          "midi": 98,
          "time": 227.97600000000915,
          "velocity": 0.7874015748031497,
          "duration": 0.0007375000000138243
        },
        {
          "name": "D4",
          "midi": 62,
          "time": 228.33000000000916,
          "velocity": 0.7874015748031497,
          "duration": 0.0007375000000138243
        },
        {
          "name": "C5",
          "midi": 72,
          "time": 228.33000000000916,
          "velocity": 0.7874015748031497,
          "duration": 0.0007375000000138243
        },
        {
          "name": "D5",
          "midi": 74,
          "time": 228.33000000000916,
          "velocity": 0.7874015748031497,
          "duration": 0.0007375000000138243
        },
        {
          "name": "C6",
          "midi": 84,
          "time": 228.33000000000916,
          "velocity": 0.7874015748031497,
          "duration": 0.0007375000000138243
        },
        {
          "name": "D6",
          "midi": 86,
          "time": 228.33000000000916,
          "velocity": 0.7874015748031497,
          "duration": 0.0007375000000138243
        },
        {
          "name": "C7",
          "midi": 96,
          "time": 228.33000000000916,
          "velocity": 0.7874015748031497,
          "duration": 0.0007375000000138243
        },
        {
          "name": "D7",
          "midi": 98,
          "time": 228.33000000000916,
          "velocity": 0.7874015748031497,
          "duration": 0.0007375000000138243
        },
        {
          "name": "C#4",
          "midi": 61,
          "time": 228.68400000000918,
          "velocity": 0.7874015748031497,
          "duration": 0.0007375000000138243
        },
        {
          "name": "C#5",
          "midi": 73,
          "time": 228.68400000000918,
          "velocity": 0.7874015748031497,
          "duration": 0.0007375000000138243
        },
        {
          "name": "D5",
          "midi": 74,
          "time": 228.68400000000918,
          "velocity": 0.7874015748031497,
          "duration": 0.0007375000000138243
        },
        {
          "name": "C#6",
          "midi": 85,
          "time": 228.68400000000918,
          "velocity": 0.7874015748031497,
          "duration": 0.0007375000000138243
        },
        {
          "name": "D6",
          "midi": 86,
          "time": 228.68400000000918,
          "velocity": 0.7874015748031497,
          "duration": 0.0007375000000138243
        },
        {
          "name": "C#7",
          "midi": 97,
          "time": 228.68400000000918,
          "velocity": 0.7874015748031497,
          "duration": 0.0007375000000138243
        },
        {
          "name": "D7",
          "midi": 98,
          "time": 228.68400000000918,
          "velocity": 0.7874015748031497,
          "duration": 0.0007375000000138243
        },
        {
          "name": "D4",
          "midi": 62,
          "time": 229.0380000000092,
          "velocity": 0.7874015748031497,
          "duration": 0.0007375000000138243
        },
        {
          "name": "D5",
          "midi": 74,
          "time": 229.0380000000092,
          "velocity": 0.7874015748031497,
          "duration": 0.0007375000000138243
        },
        {
          "name": "D6",
          "midi": 86,
          "time": 229.0380000000092,
          "velocity": 0.7874015748031497,
          "duration": 0.0007375000000138243
        },
        {
          "name": "D7",
          "midi": 98,
          "time": 229.0380000000092,
          "velocity": 0.7874015748031497,
          "duration": 0.0007375000000138243
        },
        {
          "name": "D4",
          "midi": 62,
          "time": 229.3920000000092,
          "velocity": 0.7874015748031497,
          "duration": 0.0007375000000138243
        },
        {
          "name": "C5",
          "midi": 72,
          "time": 229.3920000000092,
          "velocity": 0.7874015748031497,
          "duration": 0.0007375000000138243
        },
        {
          "name": "D5",
          "midi": 74,
          "time": 229.3920000000092,
          "velocity": 0.7874015748031497,
          "duration": 0.0007375000000138243
        },
        {
          "name": "C6",
          "midi": 84,
          "time": 229.3920000000092,
          "velocity": 0.7874015748031497,
          "duration": 0.0007375000000138243
        },
        {
          "name": "D6",
          "midi": 86,
          "time": 229.3920000000092,
          "velocity": 0.7874015748031497,
          "duration": 0.0007375000000138243
        },
        {
          "name": "C7",
          "midi": 96,
          "time": 229.3920000000092,
          "velocity": 0.7874015748031497,
          "duration": 0.0007375000000138243
        },
        {
          "name": "D7",
          "midi": 98,
          "time": 229.3920000000092,
          "velocity": 0.7874015748031497,
          "duration": 0.0007375000000138243
        },
        {
          "name": "D4",
          "midi": 62,
          "time": 229.74600000000922,
          "velocity": 0.7874015748031497,
          "duration": 0.0007375000000138243
        },
        {
          "name": "D5",
          "midi": 74,
          "time": 229.74600000000922,
          "velocity": 0.7874015748031497,
          "duration": 0.0007375000000138243
        },
        {
          "name": "C6",
          "midi": 84,
          "time": 229.74600000000922,
          "velocity": 0.7874015748031497,
          "duration": 0.0007375000000138243
        },
        {
          "name": "D6",
          "midi": 86,
          "time": 229.74600000000922,
          "velocity": 0.7874015748031497,
          "duration": 0.0007375000000138243
        },
        {
          "name": "C7",
          "midi": 96,
          "time": 229.74600000000922,
          "velocity": 0.7874015748031497,
          "duration": 0.0007375000000138243
        },
        {
          "name": "D7",
          "midi": 98,
          "time": 229.74600000000922,
          "velocity": 0.7874015748031497,
          "duration": 0.0007375000000138243
        },
        {
          "name": "C#4",
          "midi": 61,
          "time": 230.10000000000923,
          "velocity": 0.7874015748031497,
          "duration": 0.0007375000000138243
        },
        {
          "name": "C#5",
          "midi": 73,
          "time": 230.10000000000923,
          "velocity": 0.7874015748031497,
          "duration": 0.0007375000000138243
        },
        {
          "name": "D5",
          "midi": 74,
          "time": 230.10000000000923,
          "velocity": 0.7874015748031497,
          "duration": 0.0007375000000138243
        },
        {
          "name": "C#6",
          "midi": 85,
          "time": 230.10000000000923,
          "velocity": 0.7874015748031497,
          "duration": 0.0007375000000138243
        },
        {
          "name": "D6",
          "midi": 86,
          "time": 230.10000000000923,
          "velocity": 0.7874015748031497,
          "duration": 0.0007375000000138243
        },
        {
          "name": "C#7",
          "midi": 97,
          "time": 230.10000000000923,
          "velocity": 0.7874015748031497,
          "duration": 0.0007375000000138243
        },
        {
          "name": "D7",
          "midi": 98,
          "time": 230.10000000000923,
          "velocity": 0.7874015748031497,
          "duration": 0.0007375000000138243
        },
        {
          "name": "C6",
          "midi": 84,
          "time": 230.27700000000925,
          "velocity": 0.7874015748031497,
          "duration": 0.0007375000000138243
        },
        {
          "name": "C7",
          "midi": 96,
          "time": 230.27700000000925,
          "velocity": 0.7874015748031497,
          "duration": 0.0007375000000138243
        },
        {
          "name": "D4",
          "midi": 62,
          "time": 230.45400000000927,
          "velocity": 0.7874015748031497,
          "duration": 0.0007375000000138243
        },
        {
          "name": "D5",
          "midi": 74,
          "time": 230.45400000000927,
          "velocity": 0.7874015748031497,
          "duration": 0.0007375000000138243
        },
        {
          "name": "D6",
          "midi": 86,
          "time": 230.45400000000927,
          "velocity": 0.7874015748031497,
          "duration": 0.0007375000000138243
        },
        {
          "name": "D7",
          "midi": 98,
          "time": 230.45400000000927,
          "velocity": 0.7874015748031497,
          "duration": 0.0007375000000138243
        },
        {
          "name": "E4",
          "midi": 64,
          "time": 230.8080000000093,
          "velocity": 0.7874015748031497,
          "duration": 0.0007375000000138243
        },
        {
          "name": "C5",
          "midi": 72,
          "time": 230.8080000000093,
          "velocity": 0.7874015748031497,
          "duration": 0.0007375000000138243
        },
        {
          "name": "E5",
          "midi": 76,
          "time": 230.8080000000093,
          "velocity": 0.7874015748031497,
          "duration": 0.0007375000000138243
        },
        {
          "name": "C6",
          "midi": 84,
          "time": 230.8080000000093,
          "velocity": 0.7874015748031497,
          "duration": 0.0007375000000138243
        },
        {
          "name": "E6",
          "midi": 88,
          "time": 230.8080000000093,
          "velocity": 0.7874015748031497,
          "duration": 0.0007375000000138243
        },
        {
          "name": "C7",
          "midi": 96,
          "time": 230.8080000000093,
          "velocity": 0.7874015748031497,
          "duration": 0.0007375000000138243
        },
        {
          "name": "E7",
          "midi": 100,
          "time": 230.8080000000093,
          "velocity": 0.7874015748031497,
          "duration": 0.0007375000000138243
        },
        {
          "name": "D4",
          "midi": 62,
          "time": 231.1620000000093,
          "velocity": 0.7874015748031497,
          "duration": 0.0007375000000138243
        },
        {
          "name": "D5",
          "midi": 74,
          "time": 231.1620000000093,
          "velocity": 0.7874015748031497,
          "duration": 0.0007375000000138243
        },
        {
          "name": "D6",
          "midi": 86,
          "time": 231.1620000000093,
          "velocity": 0.7874015748031497,
          "duration": 0.0007375000000138243
        },
        {
          "name": "D7",
          "midi": 98,
          "time": 231.1620000000093,
          "velocity": 0.7874015748031497,
          "duration": 0.0007375000000138243
        },
        {
          "name": "C#4",
          "midi": 61,
          "time": 231.5160000000093,
          "velocity": 0.7874015748031497,
          "duration": 0.0007375000000138243
        },
        {
          "name": "C#5",
          "midi": 73,
          "time": 231.5160000000093,
          "velocity": 0.7874015748031497,
          "duration": 0.0007375000000138243
        },
        {
          "name": "D5",
          "midi": 74,
          "time": 231.5160000000093,
          "velocity": 0.7874015748031497,
          "duration": 0.0007375000000138243
        },
        {
          "name": "C#6",
          "midi": 85,
          "time": 231.5160000000093,
          "velocity": 0.7874015748031497,
          "duration": 0.0007375000000138243
        },
        {
          "name": "D6",
          "midi": 86,
          "time": 231.5160000000093,
          "velocity": 0.7874015748031497,
          "duration": 0.0007375000000138243
        },
        {
          "name": "C#7",
          "midi": 97,
          "time": 231.5160000000093,
          "velocity": 0.7874015748031497,
          "duration": 0.0007375000000138243
        },
        {
          "name": "D7",
          "midi": 98,
          "time": 231.5160000000093,
          "velocity": 0.7874015748031497,
          "duration": 0.0007375000000138243
        },
        {
          "name": "D4",
          "midi": 62,
          "time": 231.87000000000933,
          "velocity": 0.7874015748031497,
          "duration": 0.0007375000000138243
        },
        {
          "name": "D5",
          "midi": 74,
          "time": 231.87000000000933,
          "velocity": 0.7874015748031497,
          "duration": 0.0007375000000138243
        },
        {
          "name": "D6",
          "midi": 86,
          "time": 231.87000000000933,
          "velocity": 0.7874015748031497,
          "duration": 0.0007375000000138243
        },
        {
          "name": "D7",
          "midi": 98,
          "time": 231.87000000000933,
          "velocity": 0.7874015748031497,
          "duration": 0.0007375000000138243
        },
        {
          "name": "E4",
          "midi": 64,
          "time": 232.22400000000934,
          "velocity": 0.7874015748031497,
          "duration": 0.0007375000000138243
        },
        {
          "name": "C5",
          "midi": 72,
          "time": 232.22400000000934,
          "velocity": 0.7874015748031497,
          "duration": 0.0007375000000138243
        },
        {
          "name": "E5",
          "midi": 76,
          "time": 232.22400000000934,
          "velocity": 0.7874015748031497,
          "duration": 0.0007375000000138243
        },
        {
          "name": "C6",
          "midi": 84,
          "time": 232.22400000000934,
          "velocity": 0.7874015748031497,
          "duration": 0.0007375000000138243
        },
        {
          "name": "E6",
          "midi": 88,
          "time": 232.22400000000934,
          "velocity": 0.7874015748031497,
          "duration": 0.0007375000000138243
        },
        {
          "name": "C7",
          "midi": 96,
          "time": 232.22400000000934,
          "velocity": 0.7874015748031497,
          "duration": 0.0007375000000138243
        },
        {
          "name": "E7",
          "midi": 100,
          "time": 232.22400000000934,
          "velocity": 0.7874015748031497,
          "duration": 0.0007375000000138243
        },
        {
          "name": "E4",
          "midi": 64,
          "time": 232.57800000000935,
          "velocity": 0.7874015748031497,
          "duration": 0.0007375000000138243
        },
        {
          "name": "E5",
          "midi": 76,
          "time": 232.57800000000935,
          "velocity": 0.7874015748031497,
          "duration": 0.0007375000000138243
        },
        {
          "name": "E6",
          "midi": 88,
          "time": 232.57800000000935,
          "velocity": 0.7874015748031497,
          "duration": 0.0007375000000138243
        },
        {
          "name": "E7",
          "midi": 100,
          "time": 232.57800000000935,
          "velocity": 0.7874015748031497,
          "duration": 0.0007375000000138243
        },
        {
          "name": "C6",
          "midi": 84,
          "time": 232.84423750000937,
          "velocity": 0.7874015748031497,
          "duration": 0.0007375000000138243
        },
        {
          "name": "C7",
          "midi": 96,
          "time": 232.84423750000937,
          "velocity": 0.7874015748031497,
          "duration": 0.0007375000000138243
        },
        {
          "name": "C#4",
          "midi": 61,
          "time": 232.9320000000094,
          "velocity": 0.7874015748031497,
          "duration": 0.0007375000000138243
        },
        {
          "name": "C#5",
          "midi": 73,
          "time": 232.9320000000094,
          "velocity": 0.7874015748031497,
          "duration": 0.0007375000000138243
        },
        {
          "name": "C#6",
          "midi": 85,
          "time": 232.9320000000094,
          "velocity": 0.7874015748031497,
          "duration": 0.0007375000000138243
        },
        {
          "name": "C#7",
          "midi": 97,
          "time": 232.9320000000094,
          "velocity": 0.7874015748031497,
          "duration": 0.0007375000000138243
        },
        {
          "name": "C4",
          "midi": 60,
          "time": 233.2860000000094,
          "velocity": 0.7874015748031497,
          "duration": 0.0007375000000138243
        },
        {
          "name": "C5",
          "midi": 72,
          "time": 233.2860000000094,
          "velocity": 0.7874015748031497,
          "duration": 0.0007375000000138243
        },
        {
          "name": "C6",
          "midi": 84,
          "time": 233.2860000000094,
          "velocity": 0.7874015748031497,
          "duration": 0.0007375000000138243
        },
        {
          "name": "C7",
          "midi": 96,
          "time": 233.2860000000094,
          "velocity": 0.7874015748031497,
          "duration": 0.0007375000000138243
        },
        {
          "name": "E4",
          "midi": 64,
          "time": 233.64000000000942,
          "velocity": 0.7874015748031497,
          "duration": 0.0007375000000138243
        },
        {
          "name": "C5",
          "midi": 72,
          "time": 233.64000000000942,
          "velocity": 0.7874015748031497,
          "duration": 0.0007375000000138243
        },
        {
          "name": "E5",
          "midi": 76,
          "time": 233.64000000000942,
          "velocity": 0.7874015748031497,
          "duration": 0.0007375000000138243
        },
        {
          "name": "C6",
          "midi": 84,
          "time": 233.64000000000942,
          "velocity": 0.7874015748031497,
          "duration": 0.0007375000000138243
        },
        {
          "name": "E6",
          "midi": 88,
          "time": 233.64000000000942,
          "velocity": 0.7874015748031497,
          "duration": 0.0007375000000138243
        },
        {
          "name": "C7",
          "midi": 96,
          "time": 233.64000000000942,
          "velocity": 0.7874015748031497,
          "duration": 0.0007375000000138243
        },
        {
          "name": "E7",
          "midi": 100,
          "time": 233.64000000000942,
          "velocity": 0.7874015748031497,
          "duration": 0.0007375000000138243
        },
        {
          "name": "D4",
          "midi": 62,
          "time": 233.99400000000944,
          "velocity": 0.7874015748031497,
          "duration": 0.0007375000000138243
        },
        {
          "name": "D5",
          "midi": 74,
          "time": 233.99400000000944,
          "velocity": 0.7874015748031497,
          "duration": 0.0007375000000138243
        },
        {
          "name": "D6",
          "midi": 86,
          "time": 233.99400000000944,
          "velocity": 0.7874015748031497,
          "duration": 0.0007375000000138243
        },
        {
          "name": "D7",
          "midi": 98,
          "time": 233.99400000000944,
          "velocity": 0.7874015748031497,
          "duration": 0.0007375000000138243
        },
        {
          "name": "C#4",
          "midi": 61,
          "time": 234.34800000000945,
          "velocity": 0.7874015748031497,
          "duration": 0.0007375000000138243
        },
        {
          "name": "C#5",
          "midi": 73,
          "time": 234.34800000000945,
          "velocity": 0.7874015748031497,
          "duration": 0.0007375000000138243
        },
        {
          "name": "D5",
          "midi": 74,
          "time": 234.34800000000945,
          "velocity": 0.7874015748031497,
          "duration": 0.0007375000000138243
        },
        {
          "name": "C#6",
          "midi": 85,
          "time": 234.34800000000945,
          "velocity": 0.7874015748031497,
          "duration": 0.0007375000000138243
        },
        {
          "name": "D6",
          "midi": 86,
          "time": 234.34800000000945,
          "velocity": 0.7874015748031497,
          "duration": 0.0007375000000138243
        },
        {
          "name": "C#7",
          "midi": 97,
          "time": 234.34800000000945,
          "velocity": 0.7874015748031497,
          "duration": 0.0007375000000138243
        },
        {
          "name": "D7",
          "midi": 98,
          "time": 234.34800000000945,
          "velocity": 0.7874015748031497,
          "duration": 0.0007375000000138243
        },
        {
          "name": "D7",
          "midi": 98,
          "time": 234.52573750000946,
          "velocity": 0.7874015748031497,
          "duration": 0.0007375000000138243
        },
        {
          "name": "D4",
          "midi": 62,
          "time": 234.70200000000946,
          "velocity": 0.7874015748031497,
          "duration": 0.0007375000000138243
        },
        {
          "name": "D5",
          "midi": 74,
          "time": 234.70200000000946,
          "velocity": 0.7874015748031497,
          "duration": 0.0007375000000138243
        },
        {
          "name": "D6",
          "midi": 86,
          "time": 234.70200000000946,
          "velocity": 0.7874015748031497,
          "duration": 0.0007375000000138243
        },
        {
          "name": "D7",
          "midi": 98,
          "time": 234.70200000000946,
          "velocity": 0.7874015748031497,
          "duration": 0.0007375000000138243
        },
        {
          "name": "D7",
          "midi": 98,
          "time": 234.87973750000947,
          "velocity": 0.7874015748031497,
          "duration": 0.0007375000000138243
        },
        {
          "name": "D4",
          "midi": 62,
          "time": 235.05600000000948,
          "velocity": 0.7874015748031497,
          "duration": 0.0007375000000138243
        },
        {
          "name": "D5",
          "midi": 74,
          "time": 235.05600000000948,
          "velocity": 0.7874015748031497,
          "duration": 0.0007375000000138243
        },
        {
          "name": "D6",
          "midi": 86,
          "time": 235.05600000000948,
          "velocity": 0.7874015748031497,
          "duration": 0.0007375000000138243
        },
        {
          "name": "D7",
          "midi": 98,
          "time": 235.05600000000948,
          "velocity": 0.7874015748031497,
          "duration": 0.0007375000000138243
        },
        {
          "name": "D7",
          "midi": 98,
          "time": 235.23373750000948,
          "velocity": 0.7874015748031497,
          "duration": 0.0007375000000138243
        },
        {
          "name": "D4",
          "midi": 62,
          "time": 235.4100000000095,
          "velocity": 0.7874015748031497,
          "duration": 0.0007375000000138243
        },
        {
          "name": "C5",
          "midi": 72,
          "time": 235.4100000000095,
          "velocity": 0.7874015748031497,
          "duration": 0.0007375000000138243
        },
        {
          "name": "D5",
          "midi": 74,
          "time": 235.4100000000095,
          "velocity": 0.7874015748031497,
          "duration": 0.0007375000000138243
        },
        {
          "name": "C6",
          "midi": 84,
          "time": 235.4100000000095,
          "velocity": 0.7874015748031497,
          "duration": 0.0007375000000138243
        },
        {
          "name": "D6",
          "midi": 86,
          "time": 235.4100000000095,
          "velocity": 0.7874015748031497,
          "duration": 0.0007375000000138243
        },
        {
          "name": "C7",
          "midi": 96,
          "time": 235.4100000000095,
          "velocity": 0.7874015748031497,
          "duration": 0.0007375000000138243
        },
        {
          "name": "D7",
          "midi": 98,
          "time": 235.4100000000095,
          "velocity": 0.7874015748031497,
          "duration": 0.0007375000000138243
        },
        {
          "name": "D7",
          "midi": 98,
          "time": 235.5870000000095,
          "velocity": 0.7874015748031497,
          "duration": 0.0007375000000138243
        },
        {
          "name": "C#4",
          "midi": 61,
          "time": 235.76400000000953,
          "velocity": 0.7874015748031497,
          "duration": 0.0007375000000138243
        },
        {
          "name": "C#5",
          "midi": 73,
          "time": 235.76400000000953,
          "velocity": 0.7874015748031497,
          "duration": 0.0007375000000138243
        },
        {
          "name": "D5",
          "midi": 74,
          "time": 235.76400000000953,
          "velocity": 0.7874015748031497,
          "duration": 0.0007375000000138243
        },
        {
          "name": "C#6",
          "midi": 85,
          "time": 235.76400000000953,
          "velocity": 0.7874015748031497,
          "duration": 0.0007375000000138243
        },
        {
          "name": "D6",
          "midi": 86,
          "time": 235.76400000000953,
          "velocity": 0.7874015748031497,
          "duration": 0.0007375000000138243
        },
        {
          "name": "C#7",
          "midi": 97,
          "time": 235.76400000000953,
          "velocity": 0.7874015748031497,
          "duration": 0.0007375000000138243
        },
        {
          "name": "D7",
          "midi": 98,
          "time": 235.76400000000953,
          "velocity": 0.7874015748031497,
          "duration": 0.0007375000000138243
        },
        {
          "name": "D7",
          "midi": 98,
          "time": 235.94100000000955,
          "velocity": 0.7874015748031497,
          "duration": 0.0007375000000138243
        },
        {
          "name": "D4",
          "midi": 62,
          "time": 236.11800000000957,
          "velocity": 0.7874015748031497,
          "duration": 0.0007375000000138243
        },
        {
          "name": "D5",
          "midi": 74,
          "time": 236.11800000000957,
          "velocity": 0.7874015748031497,
          "duration": 0.0007375000000138243
        },
        {
          "name": "D6",
          "midi": 86,
          "time": 236.11800000000957,
          "velocity": 0.7874015748031497,
          "duration": 0.0007375000000138243
        },
        {
          "name": "D7",
          "midi": 98,
          "time": 236.11800000000957,
          "velocity": 0.7874015748031497,
          "duration": 0.0007375000000138243
        },
        {
          "name": "D7",
          "midi": 98,
          "time": 236.29573750000958,
          "velocity": 0.7874015748031497,
          "duration": 0.0007375000000138243
        },
        {
          "name": "C4",
          "midi": 60,
          "time": 236.4720000000096,
          "velocity": 0.7874015748031497,
          "duration": 0.0007375000000138243
        },
        {
          "name": "C5",
          "midi": 72,
          "time": 236.4720000000096,
          "velocity": 0.7874015748031497,
          "duration": 0.0007375000000138243
        },
        {
          "name": "D5",
          "midi": 74,
          "time": 236.4720000000096,
          "velocity": 0.7874015748031497,
          "duration": 0.0007375000000138243
        },
        {
          "name": "C6",
          "midi": 84,
          "time": 236.4720000000096,
          "velocity": 0.7874015748031497,
          "duration": 0.0007375000000138243
        },
        {
          "name": "D6",
          "midi": 86,
          "time": 236.4720000000096,
          "velocity": 0.7874015748031497,
          "duration": 0.0007375000000138243
        },
        {
          "name": "C7",
          "midi": 96,
          "time": 236.4720000000096,
          "velocity": 0.7874015748031497,
          "duration": 0.0007375000000138243
        },
        {
          "name": "D7",
          "midi": 98,
          "time": 236.4720000000096,
          "velocity": 0.7874015748031497,
          "duration": 0.0007375000000138243
        },
        {
          "name": "D7",
          "midi": 98,
          "time": 236.6497375000096,
          "velocity": 0.7874015748031497,
          "duration": 0.0007375000000138243
        },
        {
          "name": "D4",
          "midi": 62,
          "time": 236.8260000000096,
          "velocity": 0.7874015748031497,
          "duration": 0.0007375000000138243
        },
        {
          "name": "D5",
          "midi": 74,
          "time": 236.8260000000096,
          "velocity": 0.7874015748031497,
          "duration": 0.0007375000000138243
        },
        {
          "name": "C6",
          "midi": 84,
          "time": 236.8260000000096,
          "velocity": 0.7874015748031497,
          "duration": 0.0007375000000138243
        },
        {
          "name": "D6",
          "midi": 86,
          "time": 236.8260000000096,
          "velocity": 0.7874015748031497,
          "duration": 0.0007375000000138243
        },
        {
          "name": "C7",
          "midi": 96,
          "time": 236.8260000000096,
          "velocity": 0.7874015748031497,
          "duration": 0.0007375000000138243
        },
        {
          "name": "D7",
          "midi": 98,
          "time": 236.8260000000096,
          "velocity": 0.7874015748031497,
          "duration": 0.0007375000000138243
        },
        {
          "name": "D7",
          "midi": 98,
          "time": 237.0037375000096,
          "velocity": 0.7874015748031497,
          "duration": 0.0007375000000138243
        },
        {
          "name": "C#4",
          "midi": 61,
          "time": 237.1800000000096,
          "velocity": 0.7874015748031497,
          "duration": 0.0007375000000138243
        },
        {
          "name": "C#5",
          "midi": 73,
          "time": 237.1800000000096,
          "velocity": 0.7874015748031497,
          "duration": 0.0007375000000138243
        },
        {
          "name": "D5",
          "midi": 74,
          "time": 237.1800000000096,
          "velocity": 0.7874015748031497,
          "duration": 0.0007375000000138243
        },
        {
          "name": "C#6",
          "midi": 85,
          "time": 237.1800000000096,
          "velocity": 0.7874015748031497,
          "duration": 0.0007375000000138243
        },
        {
          "name": "D6",
          "midi": 86,
          "time": 237.1800000000096,
          "velocity": 0.7874015748031497,
          "duration": 0.0007375000000138243
        },
        {
          "name": "C#7",
          "midi": 97,
          "time": 237.1800000000096,
          "velocity": 0.7874015748031497,
          "duration": 0.0007375000000138243
        },
        {
          "name": "D7",
          "midi": 98,
          "time": 237.1800000000096,
          "velocity": 0.7874015748031497,
          "duration": 0.0007375000000138243
        },
        {
          "name": "D7",
          "midi": 98,
          "time": 237.35700000000963,
          "velocity": 0.7874015748031497,
          "duration": 0.0007375000000138243
        },
        {
          "name": "D4",
          "midi": 62,
          "time": 237.53400000000966,
          "velocity": 0.7874015748031497,
          "duration": 0.0007375000000138243
        },
        {
          "name": "D5",
          "midi": 74,
          "time": 237.53400000000966,
          "velocity": 0.7874015748031497,
          "duration": 0.0007375000000138243
        },
        {
          "name": "D6",
          "midi": 86,
          "time": 237.53400000000966,
          "velocity": 0.7874015748031497,
          "duration": 0.0007375000000138243
        },
        {
          "name": "D7",
          "midi": 98,
          "time": 237.53400000000966,
          "velocity": 0.7874015748031497,
          "duration": 0.0007375000000138243
        },
        {
          "name": "D7",
          "midi": 98,
          "time": 237.71026250000966,
          "velocity": 0.7874015748031497,
          "duration": 0.0007375000000138243
        },
        {
          "name": "D4",
          "midi": 62,
          "time": 237.88800000000967,
          "velocity": 0.7874015748031497,
          "duration": 0.0007375000000138243
        },
        {
          "name": "D5",
          "midi": 74,
          "time": 237.88800000000967,
          "velocity": 0.7874015748031497,
          "duration": 0.0007375000000138243
        },
        {
          "name": "D6",
          "midi": 86,
          "time": 237.88800000000967,
          "velocity": 0.7874015748031497,
          "duration": 0.0007375000000138243
        },
        {
          "name": "D7",
          "midi": 98,
          "time": 237.88800000000967,
          "velocity": 0.7874015748031497,
          "duration": 0.0007375000000138243
        },
        {
          "name": "C6",
          "midi": 84,
          "time": 238.06573750000967,
          "velocity": 0.7874015748031497,
          "duration": 0.0007375000000138243
        },
        {
          "name": "D6",
          "midi": 86,
          "time": 238.06573750000967,
          "velocity": 0.7874015748031497,
          "duration": 0.0007375000000138243
        },
        {
          "name": "C7",
          "midi": 96,
          "time": 238.06573750000967,
          "velocity": 0.7874015748031497,
          "duration": 0.0007375000000138243
        },
        {
          "name": "D7",
          "midi": 98,
          "time": 238.06573750000967,
          "velocity": 0.7874015748031497,
          "duration": 0.0007375000000138243
        },
        {
          "name": "D4",
          "midi": 62,
          "time": 238.24200000000968,
          "velocity": 0.7874015748031497,
          "duration": 0.0007375000000138243
        },
        {
          "name": "D5",
          "midi": 74,
          "time": 238.24200000000968,
          "velocity": 0.7874015748031497,
          "duration": 0.0007375000000138243
        },
        {
          "name": "D7",
          "midi": 98,
          "time": 238.24200000000968,
          "velocity": 0.7874015748031497,
          "duration": 0.0007375000000138243
        },
        {
          "name": "D7",
          "midi": 98,
          "time": 238.4197375000097,
          "velocity": 0.7874015748031497,
          "duration": 0.0007375000000138243
        },
        {
          "name": "C#4",
          "midi": 61,
          "time": 238.5960000000097,
          "velocity": 0.7874015748031497,
          "duration": 0.0007375000000138243
        },
        {
          "name": "C#5",
          "midi": 73,
          "time": 238.5960000000097,
          "velocity": 0.7874015748031497,
          "duration": 0.0007375000000138243
        },
        {
          "name": "D5",
          "midi": 74,
          "time": 238.5960000000097,
          "velocity": 0.7874015748031497,
          "duration": 0.0007375000000138243
        },
        {
          "name": "C#6",
          "midi": 85,
          "time": 238.5960000000097,
          "velocity": 0.7874015748031497,
          "duration": 0.0007375000000138243
        },
        {
          "name": "D6",
          "midi": 86,
          "time": 238.5960000000097,
          "velocity": 0.7874015748031497,
          "duration": 0.0007375000000138243
        },
        {
          "name": "C#7",
          "midi": 97,
          "time": 238.5960000000097,
          "velocity": 0.7874015748031497,
          "duration": 0.0007375000000138243
        },
        {
          "name": "D7",
          "midi": 98,
          "time": 238.5960000000097,
          "velocity": 0.7874015748031497,
          "duration": 0.0007375000000138243
        },
        {
          "name": "D7",
          "midi": 98,
          "time": 238.77300000000972,
          "velocity": 0.7874015748031497,
          "duration": 0.0007375000000138243
        },
        {
          "name": "D4",
          "midi": 62,
          "time": 238.95000000000974,
          "velocity": 0.7874015748031497,
          "duration": 0.0007375000000138243
        },
        {
          "name": "D5",
          "midi": 74,
          "time": 238.95000000000974,
          "velocity": 0.7874015748031497,
          "duration": 0.0007375000000138243
        },
        {
          "name": "D6",
          "midi": 86,
          "time": 238.95000000000974,
          "velocity": 0.7874015748031497,
          "duration": 0.0007375000000138243
        },
        {
          "name": "D7",
          "midi": 98,
          "time": 238.95000000000974,
          "velocity": 0.7874015748031497,
          "duration": 0.0007375000000138243
        },
        {
          "name": "D7",
          "midi": 98,
          "time": 239.12626250000974,
          "velocity": 0.7874015748031497,
          "duration": 0.0007375000000138243
        },
        {
          "name": "C4",
          "midi": 60,
          "time": 239.30400000000975,
          "velocity": 0.7874015748031497,
          "duration": 0.0007375000000138243
        },
        {
          "name": "C5",
          "midi": 72,
          "time": 239.30400000000975,
          "velocity": 0.7874015748031497,
          "duration": 0.0007375000000138243
        },
        {
          "name": "D5",
          "midi": 74,
          "time": 239.30400000000975,
          "velocity": 0.7874015748031497,
          "duration": 0.0007375000000138243
        },
        {
          "name": "C6",
          "midi": 84,
          "time": 239.30400000000975,
          "velocity": 0.7874015748031497,
          "duration": 0.0007375000000138243
        },
        {
          "name": "D6",
          "midi": 86,
          "time": 239.30400000000975,
          "velocity": 0.7874015748031497,
          "duration": 0.0007375000000138243
        },
        {
          "name": "C7",
          "midi": 96,
          "time": 239.30400000000975,
          "velocity": 0.7874015748031497,
          "duration": 0.0007375000000138243
        },
        {
          "name": "D7",
          "midi": 98,
          "time": 239.30400000000975,
          "velocity": 0.7874015748031497,
          "duration": 0.0007375000000138243
        },
        {
          "name": "D7",
          "midi": 98,
          "time": 239.48100000000977,
          "velocity": 0.7874015748031497,
          "duration": 0.0007375000000138243
        },
        {
          "name": "D4",
          "midi": 62,
          "time": 239.6580000000098,
          "velocity": 0.7874015748031497,
          "duration": 0.0007375000000138243
        },
        {
          "name": "D5",
          "midi": 74,
          "time": 239.6580000000098,
          "velocity": 0.7874015748031497,
          "duration": 0.0007375000000138243
        },
        {
          "name": "D6",
          "midi": 86,
          "time": 239.6580000000098,
          "velocity": 0.7874015748031497,
          "duration": 0.0007375000000138243
        },
        {
          "name": "D7",
          "midi": 98,
          "time": 239.6580000000098,
          "velocity": 0.7874015748031497,
          "duration": 0.0007375000000138243
        },
        {
          "name": "D7",
          "midi": 98,
          "time": 239.8350000000098,
          "velocity": 0.7874015748031497,
          "duration": 0.0007375000000138243
        },
        {
          "name": "G#8",
          "midi": 116,
          "time": 240.01200000000983,
          "velocity": 0.7874015748031497,
          "duration": 3.804762500000379
        },
        {
          "name": "C#4",
          "midi": 61,
          "time": 240.01200000000983,
          "velocity": 0.7874015748031497,
          "duration": 0.0007375000000138243
        },
        {
          "name": "C#5",
          "midi": 73,
          "time": 240.01200000000983,
          "velocity": 0.7874015748031497,
          "duration": 0.0007375000000138243
        },
        {
          "name": "D5",
          "midi": 74,
          "time": 240.01200000000983,
          "velocity": 0.7874015748031497,
          "duration": 0.0007375000000138243
        },
        {
          "name": "C#6",
          "midi": 85,
          "time": 240.01200000000983,
          "velocity": 0.7874015748031497,
          "duration": 0.0007375000000138243
        },
        {
          "name": "D6",
          "midi": 86,
          "time": 240.01200000000983,
          "velocity": 0.7874015748031497,
          "duration": 0.0007375000000138243
        },
        {
          "name": "C#7",
          "midi": 97,
          "time": 240.01200000000983,
          "velocity": 0.7874015748031497,
          "duration": 0.0007375000000138243
        },
        {
          "name": "D7",
          "midi": 98,
          "time": 240.01200000000983,
          "velocity": 0.7874015748031497,
          "duration": 0.0007375000000138243
        },
        {
          "name": "D7",
          "midi": 98,
          "time": 240.18900000000986,
          "velocity": 0.7874015748031497,
          "duration": 0.0007375000000138243
        },
        {
          "name": "D4",
          "midi": 62,
          "time": 240.36600000000988,
          "velocity": 0.7874015748031497,
          "duration": 0.0007375000000138243
        },
        {
          "name": "D5",
          "midi": 74,
          "time": 240.36600000000988,
          "velocity": 0.7874015748031497,
          "duration": 0.0007375000000138243
        },
        {
          "name": "D6",
          "midi": 86,
          "time": 240.36600000000988,
          "velocity": 0.7874015748031497,
          "duration": 0.0007375000000138243
        },
        {
          "name": "D7",
          "midi": 98,
          "time": 240.36600000000988,
          "velocity": 0.7874015748031497,
          "duration": 0.0007375000000138243
        },
        {
          "name": "D7",
          "midi": 98,
          "time": 240.5430000000099,
          "velocity": 0.7874015748031497,
          "duration": 0.0007375000000138243
        },
        {
          "name": "D4",
          "midi": 62,
          "time": 240.72000000000992,
          "velocity": 0.7874015748031497,
          "duration": 0.0007375000000138243
        },
        {
          "name": "D5",
          "midi": 74,
          "time": 240.72000000000992,
          "velocity": 0.7874015748031497,
          "duration": 0.0007375000000138243
        },
        {
          "name": "D6",
          "midi": 86,
          "time": 240.72000000000992,
          "velocity": 0.7874015748031497,
          "duration": 0.0007375000000138243
        },
        {
          "name": "D7",
          "midi": 98,
          "time": 240.72000000000992,
          "velocity": 0.7874015748031497,
          "duration": 0.0007375000000138243
        },
        {
          "name": "D7",
          "midi": 98,
          "time": 240.89700000000994,
          "velocity": 0.7874015748031497,
          "duration": 0.0007375000000138243
        },
        {
          "name": "D4",
          "midi": 62,
          "time": 241.07400000000996,
          "velocity": 0.7874015748031497,
          "duration": 0.0007375000000138243
        },
        {
          "name": "C5",
          "midi": 72,
          "time": 241.07400000000996,
          "velocity": 0.7874015748031497,
          "duration": 0.0007375000000138243
        },
        {
          "name": "D5",
          "midi": 74,
          "time": 241.07400000000996,
          "velocity": 0.7874015748031497,
          "duration": 0.0007375000000138243
        },
        {
          "name": "C6",
          "midi": 84,
          "time": 241.07400000000996,
          "velocity": 0.7874015748031497,
          "duration": 0.0007375000000138243
        },
        {
          "name": "D6",
          "midi": 86,
          "time": 241.07400000000996,
          "velocity": 0.7874015748031497,
          "duration": 0.0007375000000138243
        },
        {
          "name": "C7",
          "midi": 96,
          "time": 241.07400000000996,
          "velocity": 0.7874015748031497,
          "duration": 0.0007375000000138243
        },
        {
          "name": "D7",
          "midi": 98,
          "time": 241.07400000000996,
          "velocity": 0.7874015748031497,
          "duration": 0.0007375000000138243
        },
        {
          "name": "D7",
          "midi": 98,
          "time": 241.25100000000998,
          "velocity": 0.7874015748031497,
          "duration": 0.0007375000000138243
        },
        {
          "name": "C#4",
          "midi": 61,
          "time": 241.42800000001,
          "velocity": 0.7874015748031497,
          "duration": 0.0007375000000138243
        },
        {
          "name": "C#5",
          "midi": 73,
          "time": 241.42800000001,
          "velocity": 0.7874015748031497,
          "duration": 0.0007375000000138243
        },
        {
          "name": "D5",
          "midi": 74,
          "time": 241.42800000001,
          "velocity": 0.7874015748031497,
          "duration": 0.0007375000000138243
        },
        {
          "name": "C#6",
          "midi": 85,
          "time": 241.42800000001,
          "velocity": 0.7874015748031497,
          "duration": 0.0007375000000138243
        },
        {
          "name": "D6",
          "midi": 86,
          "time": 241.42800000001,
          "velocity": 0.7874015748031497,
          "duration": 0.0007375000000138243
        },
        {
          "name": "C#7",
          "midi": 97,
          "time": 241.42800000001,
          "velocity": 0.7874015748031497,
          "duration": 0.0007375000000138243
        },
        {
          "name": "D7",
          "midi": 98,
          "time": 241.42800000001,
          "velocity": 0.7874015748031497,
          "duration": 0.0007375000000138243
        },
        {
          "name": "D7",
          "midi": 98,
          "time": 241.60573750001,
          "velocity": 0.7874015748031497,
          "duration": 0.0007375000000138243
        },
        {
          "name": "D4",
          "midi": 62,
          "time": 241.78200000001002,
          "velocity": 0.7874015748031497,
          "duration": 0.0007375000000138243
        },
        {
          "name": "D5",
          "midi": 74,
          "time": 241.78200000001002,
          "velocity": 0.7874015748031497,
          "duration": 0.0007375000000138243
        },
        {
          "name": "D6",
          "midi": 86,
          "time": 241.78200000001002,
          "velocity": 0.7874015748031497,
          "duration": 0.0007375000000138243
        },
        {
          "name": "D7",
          "midi": 98,
          "time": 241.78200000001002,
          "velocity": 0.7874015748031497,
          "duration": 0.0007375000000138243
        },
        {
          "name": "D7",
          "midi": 98,
          "time": 241.95900000001004,
          "velocity": 0.7874015748031497,
          "duration": 0.0007375000000138243
        },
        {
          "name": "C4",
          "midi": 60,
          "time": 242.13600000001006,
          "velocity": 0.7874015748031497,
          "duration": 0.0007375000000138243
        },
        {
          "name": "C5",
          "midi": 72,
          "time": 242.13600000001006,
          "velocity": 0.7874015748031497,
          "duration": 0.0007375000000138243
        },
        {
          "name": "D5",
          "midi": 74,
          "time": 242.13600000001006,
          "velocity": 0.7874015748031497,
          "duration": 0.0007375000000138243
        },
        {
          "name": "C6",
          "midi": 84,
          "time": 242.13600000001006,
          "velocity": 0.7874015748031497,
          "duration": 0.0007375000000138243
        },
        {
          "name": "D6",
          "midi": 86,
          "time": 242.13600000001006,
          "velocity": 0.7874015748031497,
          "duration": 0.0007375000000138243
        },
        {
          "name": "C7",
          "midi": 96,
          "time": 242.13600000001006,
          "velocity": 0.7874015748031497,
          "duration": 0.0007375000000138243
        },
        {
          "name": "D7",
          "midi": 98,
          "time": 242.13600000001006,
          "velocity": 0.7874015748031497,
          "duration": 0.0007375000000138243
        },
        {
          "name": "D7",
          "midi": 98,
          "time": 242.31226250001006,
          "velocity": 0.7874015748031497,
          "duration": 0.0007375000000138243
        },
        {
          "name": "D4",
          "midi": 62,
          "time": 242.49000000001007,
          "velocity": 0.7874015748031497,
          "duration": 0.0007375000000138243
        },
        {
          "name": "D5",
          "midi": 74,
          "time": 242.49000000001007,
          "velocity": 0.7874015748031497,
          "duration": 0.0007375000000138243
        },
        {
          "name": "C6",
          "midi": 84,
          "time": 242.49000000001007,
          "velocity": 0.7874015748031497,
          "duration": 0.0007375000000138243
        },
        {
          "name": "D6",
          "midi": 86,
          "time": 242.49000000001007,
          "velocity": 0.7874015748031497,
          "duration": 0.0007375000000138243
        },
        {
          "name": "C7",
          "midi": 96,
          "time": 242.49000000001007,
          "velocity": 0.7874015748031497,
          "duration": 0.0007375000000138243
        },
        {
          "name": "D7",
          "midi": 98,
          "time": 242.49000000001007,
          "velocity": 0.7874015748031497,
          "duration": 0.0007375000000138243
        },
        {
          "name": "D7",
          "midi": 98,
          "time": 242.6670000000101,
          "velocity": 0.7874015748031497,
          "duration": 0.0007375000000138243
        },
        {
          "name": "C#4",
          "midi": 61,
          "time": 242.8440000000101,
          "velocity": 0.7874015748031497,
          "duration": 0.0007375000000138243
        },
        {
          "name": "C#5",
          "midi": 73,
          "time": 242.8440000000101,
          "velocity": 0.7874015748031497,
          "duration": 0.0007375000000138243
        },
        {
          "name": "D5",
          "midi": 74,
          "time": 242.8440000000101,
          "velocity": 0.7874015748031497,
          "duration": 0.0007375000000138243
        },
        {
          "name": "C#6",
          "midi": 85,
          "time": 242.8440000000101,
          "velocity": 0.7874015748031497,
          "duration": 0.0007375000000138243
        },
        {
          "name": "D6",
          "midi": 86,
          "time": 242.8440000000101,
          "velocity": 0.7874015748031497,
          "duration": 0.0007375000000138243
        },
        {
          "name": "C#7",
          "midi": 97,
          "time": 242.8440000000101,
          "velocity": 0.7874015748031497,
          "duration": 0.0007375000000138243
        },
        {
          "name": "D7",
          "midi": 98,
          "time": 242.8440000000101,
          "velocity": 0.7874015748031497,
          "duration": 0.0007375000000138243
        },
        {
          "name": "D7",
          "midi": 98,
          "time": 243.02100000001013,
          "velocity": 0.7874015748031497,
          "duration": 0.0007375000000138243
        },
        {
          "name": "D4",
          "midi": 62,
          "time": 243.19800000001015,
          "velocity": 0.7874015748031497,
          "duration": 0.0007375000000138243
        },
        {
          "name": "D5",
          "midi": 74,
          "time": 243.19800000001015,
          "velocity": 0.7874015748031497,
          "duration": 0.0007375000000138243
        },
        {
          "name": "D6",
          "midi": 86,
          "time": 243.19800000001015,
          "velocity": 0.7874015748031497,
          "duration": 0.0007375000000138243
        },
        {
          "name": "D7",
          "midi": 98,
          "time": 243.19800000001015,
          "velocity": 0.7874015748031497,
          "duration": 0.0007375000000138243
        },
        {
          "name": "C6",
          "midi": 84,
          "time": 243.37573750001016,
          "velocity": 0.7874015748031497,
          "duration": 0.0007375000000138243
        },
        {
          "name": "D6",
          "midi": 86,
          "time": 243.37573750001016,
          "velocity": 0.7874015748031497,
          "duration": 0.0007375000000138243
        },
        {
          "name": "C7",
          "midi": 96,
          "time": 243.37573750001016,
          "velocity": 0.7874015748031497,
          "duration": 0.0007375000000138243
        },
        {
          "name": "D7",
          "midi": 98,
          "time": 243.37573750001016,
          "velocity": 0.7874015748031497,
          "duration": 0.0007375000000138243
        },
        {
          "name": "D4",
          "midi": 62,
          "time": 243.55200000001017,
          "velocity": 0.7874015748031497,
          "duration": 0.0007375000000138243
        },
        {
          "name": "D5",
          "midi": 74,
          "time": 243.55200000001017,
          "velocity": 0.7874015748031497,
          "duration": 0.0007375000000138243
        },
        {
          "name": "D7",
          "midi": 98,
          "time": 243.55200000001017,
          "velocity": 0.7874015748031497,
          "duration": 0.0007375000000138243
        },
        {
          "name": "C6",
          "midi": 84,
          "time": 243.7290000000102,
          "velocity": 0.7874015748031497,
          "duration": 0.0007375000000138243
        },
        {
          "name": "D6",
          "midi": 86,
          "time": 243.7290000000102,
          "velocity": 0.7874015748031497,
          "duration": 0.0007375000000138243
        },
        {
          "name": "C7",
          "midi": 96,
          "time": 243.7290000000102,
          "velocity": 0.7874015748031497,
          "duration": 0.0007375000000138243
        },
        {
          "name": "D7",
          "midi": 98,
          "time": 243.7290000000102,
          "velocity": 0.7874015748031497,
          "duration": 0.0007375000000138243
        },
        {
          "name": "D4",
          "midi": 62,
          "time": 243.9060000000102,
          "velocity": 0.7874015748031497,
          "duration": 0.0007375000000138243
        },
        {
          "name": "D5",
          "midi": 74,
          "time": 243.9060000000102,
          "velocity": 0.7874015748031497,
          "duration": 0.0007375000000138243
        },
        {
          "name": "D7",
          "midi": 98,
          "time": 243.9060000000102,
          "velocity": 0.7874015748031497,
          "duration": 0.0007375000000138243
        },
        {
          "name": "D7",
          "midi": 98,
          "time": 244.08226250001022,
          "velocity": 0.7874015748031497,
          "duration": 0.0007375000000138243
        },
        {
          "name": "C#4",
          "midi": 61,
          "time": 244.26000000001022,
          "velocity": 0.7874015748031497,
          "duration": 0.0007375000000138243
        },
        {
          "name": "C#5",
          "midi": 73,
          "time": 244.26000000001022,
          "velocity": 0.7874015748031497,
          "duration": 0.0007375000000138243
        },
        {
          "name": "D5",
          "midi": 74,
          "time": 244.26000000001022,
          "velocity": 0.7874015748031497,
          "duration": 0.0007375000000138243
        },
        {
          "name": "C#6",
          "midi": 85,
          "time": 244.26000000001022,
          "velocity": 0.7874015748031497,
          "duration": 0.0007375000000138243
        },
        {
          "name": "D6",
          "midi": 86,
          "time": 244.26000000001022,
          "velocity": 0.7874015748031497,
          "duration": 0.0007375000000138243
        },
        {
          "name": "C#7",
          "midi": 97,
          "time": 244.26000000001022,
          "velocity": 0.7874015748031497,
          "duration": 0.0007375000000138243
        },
        {
          "name": "D7",
          "midi": 98,
          "time": 244.26000000001022,
          "velocity": 0.7874015748031497,
          "duration": 0.0007375000000138243
        },
        {
          "name": "D7",
          "midi": 98,
          "time": 244.43700000001024,
          "velocity": 0.7874015748031497,
          "duration": 0.0007375000000138243
        },
        {
          "name": "D4",
          "midi": 62,
          "time": 244.61400000001026,
          "velocity": 0.7874015748031497,
          "duration": 0.0007375000000138243
        },
        {
          "name": "D5",
          "midi": 74,
          "time": 244.61400000001026,
          "velocity": 0.7874015748031497,
          "duration": 0.0007375000000138243
        },
        {
          "name": "D6",
          "midi": 86,
          "time": 244.61400000001026,
          "velocity": 0.7874015748031497,
          "duration": 0.0007375000000138243
        },
        {
          "name": "D7",
          "midi": 98,
          "time": 244.61400000001026,
          "velocity": 0.7874015748031497,
          "duration": 0.0007375000000138243
        },
        {
          "name": "D7",
          "midi": 98,
          "time": 244.79173750001027,
          "velocity": 0.7874015748031497,
          "duration": 0.0007375000000138243
        },
        {
          "name": "C4",
          "midi": 60,
          "time": 244.96800000001028,
          "velocity": 0.7874015748031497,
          "duration": 0.0007375000000138243
        },
        {
          "name": "C5",
          "midi": 72,
          "time": 244.96800000001028,
          "velocity": 0.7874015748031497,
          "duration": 0.0007375000000138243
        },
        {
          "name": "D5",
          "midi": 74,
          "time": 244.96800000001028,
          "velocity": 0.7874015748031497,
          "duration": 0.0007375000000138243
        },
        {
          "name": "C6",
          "midi": 84,
          "time": 244.96800000001028,
          "velocity": 0.7874015748031497,
          "duration": 0.0007375000000138243
        },
        {
          "name": "D6",
          "midi": 86,
          "time": 244.96800000001028,
          "velocity": 0.7874015748031497,
          "duration": 0.0007375000000138243
        },
        {
          "name": "C7",
          "midi": 96,
          "time": 244.96800000001028,
          "velocity": 0.7874015748031497,
          "duration": 0.0007375000000138243
        },
        {
          "name": "D7",
          "midi": 98,
          "time": 244.96800000001028,
          "velocity": 0.7874015748031497,
          "duration": 0.0007375000000138243
        },
        {
          "name": "D7",
          "midi": 98,
          "time": 245.14426250001029,
          "velocity": 0.7874015748031497,
          "duration": 0.0007375000000138243
        },
        {
          "name": "D4",
          "midi": 62,
          "time": 245.3220000000103,
          "velocity": 0.7874015748031497,
          "duration": 0.0007375000000138243
        },
        {
          "name": "D5",
          "midi": 74,
          "time": 245.3220000000103,
          "velocity": 0.7874015748031497,
          "duration": 0.0007375000000138243
        },
        {
          "name": "D6",
          "midi": 86,
          "time": 245.3220000000103,
          "velocity": 0.7874015748031497,
          "duration": 0.0007375000000138243
        },
        {
          "name": "D7",
          "midi": 98,
          "time": 245.3220000000103,
          "velocity": 0.7874015748031497,
          "duration": 0.0007375000000138243
        },
        {
          "name": "D7",
          "midi": 98,
          "time": 245.4990000000103,
          "velocity": 0.7874015748031497,
          "duration": 0.0007375000000138243
        },
        {
          "name": "C#4",
          "midi": 61,
          "time": 245.67600000001033,
          "velocity": 0.7874015748031497,
          "duration": 0.0007375000000138243
        },
        {
          "name": "C#5",
          "midi": 73,
          "time": 245.67600000001033,
          "velocity": 0.7874015748031497,
          "duration": 0.0007375000000138243
        },
        {
          "name": "D5",
          "midi": 74,
          "time": 245.67600000001033,
          "velocity": 0.7874015748031497,
          "duration": 0.0007375000000138243
        },
        {
          "name": "C#6",
          "midi": 85,
          "time": 245.67600000001033,
          "velocity": 0.7874015748031497,
          "duration": 0.0007375000000138243
        },
        {
          "name": "D6",
          "midi": 86,
          "time": 245.67600000001033,
          "velocity": 0.7874015748031497,
          "duration": 0.0007375000000138243
        },
        {
          "name": "C#7",
          "midi": 97,
          "time": 245.67600000001033,
          "velocity": 0.7874015748031497,
          "duration": 0.0007375000000138243
        },
        {
          "name": "D7",
          "midi": 98,
          "time": 245.67600000001033,
          "velocity": 0.7874015748031497,
          "duration": 0.0007375000000138243
        },
        {
          "name": "D7",
          "midi": 98,
          "time": 245.85373750001034,
          "velocity": 0.7874015748031497,
          "duration": 0.0007375000000138243
        },
        {
          "name": "D4",
          "midi": 62,
          "time": 246.03000000001035,
          "velocity": 0.7874015748031497,
          "duration": 0.0007375000000138243
        },
        {
          "name": "D5",
          "midi": 74,
          "time": 246.03000000001035,
          "velocity": 0.7874015748031497,
          "duration": 0.0007375000000138243
        },
        {
          "name": "D6",
          "midi": 86,
          "time": 246.03000000001035,
          "velocity": 0.7874015748031497,
          "duration": 0.0007375000000138243
        },
        {
          "name": "D7",
          "midi": 98,
          "time": 246.03000000001035,
          "velocity": 0.7874015748031497,
          "duration": 0.0007375000000138243
        },
        {
          "name": "C6",
          "midi": 84,
          "time": 246.20773750001035,
          "velocity": 0.7874015748031497,
          "duration": 0.0007375000000138243
        },
        {
          "name": "D6",
          "midi": 86,
          "time": 246.20773750001035,
          "velocity": 0.7874015748031497,
          "duration": 0.0007375000000138243
        },
        {
          "name": "C7",
          "midi": 96,
          "time": 246.20773750001035,
          "velocity": 0.7874015748031497,
          "duration": 0.0007375000000138243
        },
        {
          "name": "D7",
          "midi": 98,
          "time": 246.20773750001035,
          "velocity": 0.7874015748031497,
          "duration": 0.0007375000000138243
        },
        {
          "name": "D4",
          "midi": 62,
          "time": 246.38400000001036,
          "velocity": 0.7874015748031497,
          "duration": 0.0007375000000138243
        },
        {
          "name": "D5",
          "midi": 74,
          "time": 246.38400000001036,
          "velocity": 0.7874015748031497,
          "duration": 0.0007375000000138243
        },
        {
          "name": "D7",
          "midi": 98,
          "time": 246.38400000001036,
          "velocity": 0.7874015748031497,
          "duration": 0.0007375000000138243
        },
        {
          "name": "D7",
          "midi": 98,
          "time": 246.56026250001037,
          "velocity": 0.7874015748031497,
          "duration": 0.0007375000000138243
        },
        {
          "name": "D4",
          "midi": 62,
          "time": 246.73800000001037,
          "velocity": 0.7874015748031497,
          "duration": 0.0007375000000138243
        },
        {
          "name": "C5",
          "midi": 72,
          "time": 246.73800000001037,
          "velocity": 0.7874015748031497,
          "duration": 0.0007375000000138243
        },
        {
          "name": "D5",
          "midi": 74,
          "time": 246.73800000001037,
          "velocity": 0.7874015748031497,
          "duration": 0.0007375000000138243
        },
        {
          "name": "C6",
          "midi": 84,
          "time": 246.73800000001037,
          "velocity": 0.7874015748031497,
          "duration": 0.0007375000000138243
        },
        {
          "name": "D6",
          "midi": 86,
          "time": 246.73800000001037,
          "velocity": 0.7874015748031497,
          "duration": 0.0007375000000138243
        },
        {
          "name": "C7",
          "midi": 96,
          "time": 246.73800000001037,
          "velocity": 0.7874015748031497,
          "duration": 0.0007375000000138243
        },
        {
          "name": "D7",
          "midi": 98,
          "time": 246.73800000001037,
          "velocity": 0.7874015748031497,
          "duration": 0.0007375000000138243
        },
        {
          "name": "D7",
          "midi": 98,
          "time": 246.9150000000104,
          "velocity": 0.7874015748031497,
          "duration": 0.0007375000000138243
        },
        {
          "name": "C#4",
          "midi": 61,
          "time": 247.09200000001042,
          "velocity": 0.7874015748031497,
          "duration": 0.0007375000000138243
        },
        {
          "name": "C#5",
          "midi": 73,
          "time": 247.09200000001042,
          "velocity": 0.7874015748031497,
          "duration": 0.0007375000000138243
        },
        {
          "name": "D5",
          "midi": 74,
          "time": 247.09200000001042,
          "velocity": 0.7874015748031497,
          "duration": 0.0007375000000138243
        },
        {
          "name": "C#6",
          "midi": 85,
          "time": 247.09200000001042,
          "velocity": 0.7874015748031497,
          "duration": 0.0007375000000138243
        },
        {
          "name": "D6",
          "midi": 86,
          "time": 247.09200000001042,
          "velocity": 0.7874015748031497,
          "duration": 0.0007375000000138243
        },
        {
          "name": "C#7",
          "midi": 97,
          "time": 247.09200000001042,
          "velocity": 0.7874015748031497,
          "duration": 0.0007375000000138243
        },
        {
          "name": "D7",
          "midi": 98,
          "time": 247.09200000001042,
          "velocity": 0.7874015748031497,
          "duration": 0.0007375000000138243
        },
        {
          "name": "D7",
          "midi": 98,
          "time": 247.26973750001042,
          "velocity": 0.7874015748031497,
          "duration": 0.0007375000000138243
        },
        {
          "name": "D4",
          "midi": 62,
          "time": 247.44600000001043,
          "velocity": 0.7874015748031497,
          "duration": 0.0007375000000138243
        },
        {
          "name": "D5",
          "midi": 74,
          "time": 247.44600000001043,
          "velocity": 0.7874015748031497,
          "duration": 0.0007375000000138243
        },
        {
          "name": "D6",
          "midi": 86,
          "time": 247.44600000001043,
          "velocity": 0.7874015748031497,
          "duration": 0.0007375000000138243
        },
        {
          "name": "D7",
          "midi": 98,
          "time": 247.44600000001043,
          "velocity": 0.7874015748031497,
          "duration": 0.0007375000000138243
        },
        {
          "name": "D7",
          "midi": 98,
          "time": 247.62373750001044,
          "velocity": 0.7874015748031497,
          "duration": 0.0007375000000138243
        },
        {
          "name": "E4",
          "midi": 64,
          "time": 247.80000000001044,
          "velocity": 0.7874015748031497,
          "duration": 0.0007375000000138243
        },
        {
          "name": "C5",
          "midi": 72,
          "time": 247.80000000001044,
          "velocity": 0.7874015748031497,
          "duration": 0.0007375000000138243
        },
        {
          "name": "E5",
          "midi": 76,
          "time": 247.80000000001044,
          "velocity": 0.7874015748031497,
          "duration": 0.0007375000000138243
        },
        {
          "name": "C6",
          "midi": 84,
          "time": 247.80000000001044,
          "velocity": 0.7874015748031497,
          "duration": 0.0007375000000138243
        },
        {
          "name": "E6",
          "midi": 88,
          "time": 247.80000000001044,
          "velocity": 0.7874015748031497,
          "duration": 0.0007375000000138243
        },
        {
          "name": "C7",
          "midi": 96,
          "time": 247.80000000001044,
          "velocity": 0.7874015748031497,
          "duration": 0.0007375000000138243
        },
        {
          "name": "E7",
          "midi": 100,
          "time": 247.80000000001044,
          "velocity": 0.7874015748031497,
          "duration": 0.0007375000000138243
        },
        {
          "name": "D4",
          "midi": 62,
          "time": 248.15400000001046,
          "velocity": 0.7874015748031497,
          "duration": 0.0007375000000138243
        },
        {
          "name": "D5",
          "midi": 74,
          "time": 248.15400000001046,
          "velocity": 0.7874015748031497,
          "duration": 0.0007375000000138243
        },
        {
          "name": "C6",
          "midi": 84,
          "time": 248.15400000001046,
          "velocity": 0.7874015748031497,
          "duration": 0.0007375000000138243
        },
        {
          "name": "D6",
          "midi": 86,
          "time": 248.15400000001046,
          "velocity": 0.7874015748031497,
          "duration": 0.0007375000000138243
        },
        {
          "name": "C7",
          "midi": 96,
          "time": 248.15400000001046,
          "velocity": 0.7874015748031497,
          "duration": 0.0007375000000138243
        },
        {
          "name": "D7",
          "midi": 98,
          "time": 248.15400000001046,
          "velocity": 0.7874015748031497,
          "duration": 0.0007375000000138243
        },
        {
          "name": "C#4",
          "midi": 61,
          "time": 248.50800000001047,
          "velocity": 0.7874015748031497,
          "duration": 0.0007375000000138243
        },
        {
          "name": "C#5",
          "midi": 73,
          "time": 248.50800000001047,
          "velocity": 0.7874015748031497,
          "duration": 0.0007375000000138243
        },
        {
          "name": "D5",
          "midi": 74,
          "time": 248.50800000001047,
          "velocity": 0.7874015748031497,
          "duration": 0.0007375000000138243
        },
        {
          "name": "C#6",
          "midi": 85,
          "time": 248.50800000001047,
          "velocity": 0.7874015748031497,
          "duration": 0.0007375000000138243
        },
        {
          "name": "D6",
          "midi": 86,
          "time": 248.50800000001047,
          "velocity": 0.7874015748031497,
          "duration": 0.0007375000000138243
        },
        {
          "name": "C#7",
          "midi": 97,
          "time": 248.50800000001047,
          "velocity": 0.7874015748031497,
          "duration": 0.0007375000000138243
        },
        {
          "name": "D7",
          "midi": 98,
          "time": 248.50800000001047,
          "velocity": 0.7874015748031497,
          "duration": 0.0007375000000138243
        },
        {
          "name": "D7",
          "midi": 98,
          "time": 248.68426250001048,
          "velocity": 0.7874015748031497,
          "duration": 0.0007375000000138243
        },
        {
          "name": "D4",
          "midi": 62,
          "time": 248.86200000001048,
          "velocity": 0.7874015748031497,
          "duration": 0.0007375000000138243
        },
        {
          "name": "D5",
          "midi": 74,
          "time": 248.86200000001048,
          "velocity": 0.7874015748031497,
          "duration": 0.0007375000000138243
        },
        {
          "name": "D6",
          "midi": 86,
          "time": 248.86200000001048,
          "velocity": 0.7874015748031497,
          "duration": 0.0007375000000138243
        },
        {
          "name": "D7",
          "midi": 98,
          "time": 248.86200000001048,
          "velocity": 0.7874015748031497,
          "duration": 0.0007375000000138243
        },
        {
          "name": "C6",
          "midi": 84,
          "time": 249.0390000000105,
          "velocity": 0.7874015748031497,
          "duration": 0.0007375000000138243
        },
        {
          "name": "D6",
          "midi": 86,
          "time": 249.0390000000105,
          "velocity": 0.7874015748031497,
          "duration": 0.0007375000000138243
        },
        {
          "name": "C7",
          "midi": 96,
          "time": 249.0390000000105,
          "velocity": 0.7874015748031497,
          "duration": 0.0007375000000138243
        },
        {
          "name": "D7",
          "midi": 98,
          "time": 249.0390000000105,
          "velocity": 0.7874015748031497,
          "duration": 0.0007375000000138243
        },
        {
          "name": "D4",
          "midi": 62,
          "time": 249.21600000001052,
          "velocity": 0.7874015748031497,
          "duration": 0.0007375000000138243
        },
        {
          "name": "D5",
          "midi": 74,
          "time": 249.21600000001052,
          "velocity": 0.7874015748031497,
          "duration": 0.0007375000000138243
        },
        {
          "name": "D7",
          "midi": 98,
          "time": 249.21600000001052,
          "velocity": 0.7874015748031497,
          "duration": 0.0007375000000138243
        },
        {
          "name": "D7",
          "midi": 98,
          "time": 249.39300000001055,
          "velocity": 0.7874015748031497,
          "duration": 0.0007375000000138243
        },
        {
          "name": "D4",
          "midi": 62,
          "time": 249.57000000001057,
          "velocity": 0.7874015748031497,
          "duration": 0.0007375000000138243
        },
        {
          "name": "D5",
          "midi": 74,
          "time": 249.57000000001057,
          "velocity": 0.7874015748031497,
          "duration": 0.0007375000000138243
        },
        {
          "name": "C6",
          "midi": 84,
          "time": 249.57000000001057,
          "velocity": 0.7874015748031497,
          "duration": 0.0007375000000138243
        },
        {
          "name": "D6",
          "midi": 86,
          "time": 249.57000000001057,
          "velocity": 0.7874015748031497,
          "duration": 0.0007375000000138243
        },
        {
          "name": "C7",
          "midi": 96,
          "time": 249.57000000001057,
          "velocity": 0.7874015748031497,
          "duration": 0.0007375000000138243
        },
        {
          "name": "D7",
          "midi": 98,
          "time": 249.57000000001057,
          "velocity": 0.7874015748031497,
          "duration": 0.0007375000000138243
        },
        {
          "name": "D7",
          "midi": 98,
          "time": 249.74773750001057,
          "velocity": 0.7874015748031497,
          "duration": 0.0007375000000138243
        },
        {
          "name": "C#4",
          "midi": 61,
          "time": 249.92400000001058,
          "velocity": 0.7874015748031497,
          "duration": 0.0007375000000138243
        },
        {
          "name": "C#5",
          "midi": 73,
          "time": 249.92400000001058,
          "velocity": 0.7874015748031497,
          "duration": 0.0007375000000138243
        },
        {
          "name": "D5",
          "midi": 74,
          "time": 249.92400000001058,
          "velocity": 0.7874015748031497,
          "duration": 0.0007375000000138243
        },
        {
          "name": "C#6",
          "midi": 85,
          "time": 249.92400000001058,
          "velocity": 0.7874015748031497,
          "duration": 0.0007375000000138243
        },
        {
          "name": "D6",
          "midi": 86,
          "time": 249.92400000001058,
          "velocity": 0.7874015748031497,
          "duration": 0.0007375000000138243
        },
        {
          "name": "C#7",
          "midi": 97,
          "time": 249.92400000001058,
          "velocity": 0.7874015748031497,
          "duration": 0.0007375000000138243
        },
        {
          "name": "D7",
          "midi": 98,
          "time": 249.92400000001058,
          "velocity": 0.7874015748031497,
          "duration": 0.0007375000000138243
        },
        {
          "name": "D7",
          "midi": 98,
          "time": 250.1010000000106,
          "velocity": 0.7874015748031497,
          "duration": 0.0007375000000138243
        },
        {
          "name": "D4",
          "midi": 62,
          "time": 250.27800000001062,
          "velocity": 0.7874015748031497,
          "duration": 0.0007375000000138243
        },
        {
          "name": "D5",
          "midi": 74,
          "time": 250.27800000001062,
          "velocity": 0.7874015748031497,
          "duration": 0.0007375000000138243
        },
        {
          "name": "C6",
          "midi": 84,
          "time": 250.27800000001062,
          "velocity": 0.7874015748031497,
          "duration": 0.0007375000000138243
        },
        {
          "name": "D6",
          "midi": 86,
          "time": 250.27800000001062,
          "velocity": 0.7874015748031497,
          "duration": 0.0007375000000138243
        },
        {
          "name": "C7",
          "midi": 96,
          "time": 250.27800000001062,
          "velocity": 0.7874015748031497,
          "duration": 0.0007375000000138243
        },
        {
          "name": "D7",
          "midi": 98,
          "time": 250.27800000001062,
          "velocity": 0.7874015748031497,
          "duration": 0.0007375000000138243
        },
        {
          "name": "D7",
          "midi": 98,
          "time": 250.45500000001064,
          "velocity": 0.7874015748031497,
          "duration": 0.0007375000000138243
        },
        {
          "name": "D4",
          "midi": 62,
          "time": 250.63200000001066,
          "velocity": 0.7874015748031497,
          "duration": 0.0007375000000138243
        },
        {
          "name": "C5",
          "midi": 72,
          "time": 250.63200000001066,
          "velocity": 0.7874015748031497,
          "duration": 0.0007375000000138243
        },
        {
          "name": "D5",
          "midi": 74,
          "time": 250.63200000001066,
          "velocity": 0.7874015748031497,
          "duration": 0.0007375000000138243
        },
        {
          "name": "C6",
          "midi": 84,
          "time": 250.63200000001066,
          "velocity": 0.7874015748031497,
          "duration": 0.0007375000000138243
        },
        {
          "name": "D6",
          "midi": 86,
          "time": 250.63200000001066,
          "velocity": 0.7874015748031497,
          "duration": 0.0007375000000138243
        },
        {
          "name": "C7",
          "midi": 96,
          "time": 250.63200000001066,
          "velocity": 0.7874015748031497,
          "duration": 0.0007375000000138243
        },
        {
          "name": "D7",
          "midi": 98,
          "time": 250.63200000001066,
          "velocity": 0.7874015748031497,
          "duration": 0.0007375000000138243
        },
        {
          "name": "D7",
          "midi": 98,
          "time": 250.80900000001068,
          "velocity": 0.7874015748031497,
          "duration": 0.0007375000000138243
        },
        {
          "name": "C#4",
          "midi": 61,
          "time": 250.9860000000107,
          "velocity": 0.7874015748031497,
          "duration": 0.0007375000000138243
        },
        {
          "name": "C#5",
          "midi": 73,
          "time": 250.9860000000107,
          "velocity": 0.7874015748031497,
          "duration": 0.0007375000000138243
        },
        {
          "name": "D5",
          "midi": 74,
          "time": 250.9860000000107,
          "velocity": 0.7874015748031497,
          "duration": 0.0007375000000138243
        },
        {
          "name": "C#6",
          "midi": 85,
          "time": 250.9860000000107,
          "velocity": 0.7874015748031497,
          "duration": 0.0007375000000138243
        },
        {
          "name": "D6",
          "midi": 86,
          "time": 250.9860000000107,
          "velocity": 0.7874015748031497,
          "duration": 0.0007375000000138243
        },
        {
          "name": "C#7",
          "midi": 97,
          "time": 250.9860000000107,
          "velocity": 0.7874015748031497,
          "duration": 0.0007375000000138243
        },
        {
          "name": "D7",
          "midi": 98,
          "time": 250.9860000000107,
          "velocity": 0.7874015748031497,
          "duration": 0.0007375000000138243
        },
        {
          "name": "D7",
          "midi": 98,
          "time": 251.16300000001073,
          "velocity": 0.7874015748031497,
          "duration": 0.0007375000000138243
        },
        {
          "name": "C#4",
          "midi": 61,
          "time": 251.34000000001075,
          "velocity": 0.7874015748031497,
          "duration": 0.0007375000000138243
        },
        {
          "name": "D5",
          "midi": 74,
          "time": 251.34000000001075,
          "velocity": 0.7874015748031497,
          "duration": 0.0007375000000138243
        },
        {
          "name": "D6",
          "midi": 86,
          "time": 251.34000000001075,
          "velocity": 0.7874015748031497,
          "duration": 0.0007375000000138243
        },
        {
          "name": "D7",
          "midi": 98,
          "time": 251.34000000001075,
          "velocity": 0.7874015748031497,
          "duration": 0.0007375000000138243
        },
        {
          "name": "C6",
          "midi": 84,
          "time": 251.51700000001077,
          "velocity": 0.7874015748031497,
          "duration": 0.0007375000000138243
        },
        {
          "name": "D6",
          "midi": 86,
          "time": 251.51700000001077,
          "velocity": 0.7874015748031497,
          "duration": 0.0007375000000138243
        },
        {
          "name": "C7",
          "midi": 96,
          "time": 251.51700000001077,
          "velocity": 0.7874015748031497,
          "duration": 0.0007375000000138243
        },
        {
          "name": "D7",
          "midi": 98,
          "time": 251.51700000001077,
          "velocity": 0.7874015748031497,
          "duration": 0.0007375000000138243
        },
        {
          "name": "D4",
          "midi": 62,
          "time": 251.6940000000108,
          "velocity": 0.7874015748031497,
          "duration": 0.0007375000000138243
        },
        {
          "name": "D5",
          "midi": 74,
          "time": 251.6940000000108,
          "velocity": 0.7874015748031497,
          "duration": 0.0007375000000138243
        },
        {
          "name": "D7",
          "midi": 98,
          "time": 251.6940000000108,
          "velocity": 0.7874015748031497,
          "duration": 0.0007375000000138243
        },
        {
          "name": "C6",
          "midi": 84,
          "time": 251.8702625000108,
          "velocity": 0.7874015748031497,
          "duration": 0.0007375000000138243
        },
        {
          "name": "D6",
          "midi": 86,
          "time": 251.8702625000108,
          "velocity": 0.7874015748031497,
          "duration": 0.0007375000000138243
        },
        {
          "name": "C7",
          "midi": 96,
          "time": 251.8702625000108,
          "velocity": 0.7874015748031497,
          "duration": 0.0007375000000138243
        },
        {
          "name": "D7",
          "midi": 98,
          "time": 251.8702625000108,
          "velocity": 0.7874015748031497,
          "duration": 0.0007375000000138243
        },
        {
          "name": "D4",
          "midi": 62,
          "time": 252.0480000000108,
          "velocity": 0.7874015748031497,
          "duration": 0.0007375000000138243
        },
        {
          "name": "D5",
          "midi": 74,
          "time": 252.0480000000108,
          "velocity": 0.7874015748031497,
          "duration": 0.0007375000000138243
        },
        {
          "name": "D7",
          "midi": 98,
          "time": 252.0480000000108,
          "velocity": 0.7874015748031497,
          "duration": 0.0007375000000138243
        },
        {
          "name": "D7",
          "midi": 98,
          "time": 252.22500000001082,
          "velocity": 0.7874015748031497,
          "duration": 0.0007375000000138243
        },
        {
          "name": "C#4",
          "midi": 61,
          "time": 252.40200000001084,
          "velocity": 0.7874015748031497,
          "duration": 0.0007375000000138243
        },
        {
          "name": "C#5",
          "midi": 73,
          "time": 252.40200000001084,
          "velocity": 0.7874015748031497,
          "duration": 0.0007375000000138243
        },
        {
          "name": "D5",
          "midi": 74,
          "time": 252.40200000001084,
          "velocity": 0.7874015748031497,
          "duration": 0.0007375000000138243
        },
        {
          "name": "C#6",
          "midi": 85,
          "time": 252.40200000001084,
          "velocity": 0.7874015748031497,
          "duration": 0.0007375000000138243
        },
        {
          "name": "D6",
          "midi": 86,
          "time": 252.40200000001084,
          "velocity": 0.7874015748031497,
          "duration": 0.0007375000000138243
        },
        {
          "name": "C#7",
          "midi": 97,
          "time": 252.40200000001084,
          "velocity": 0.7874015748031497,
          "duration": 0.0007375000000138243
        },
        {
          "name": "D7",
          "midi": 98,
          "time": 252.40200000001084,
          "velocity": 0.7874015748031497,
          "duration": 0.0007375000000138243
        },
        {
          "name": "D7",
          "midi": 98,
          "time": 252.57900000001086,
          "velocity": 0.7874015748031497,
          "duration": 0.0007375000000138243
        },
        {
          "name": "D4",
          "midi": 62,
          "time": 252.75600000001089,
          "velocity": 0.7874015748031497,
          "duration": 0.0007375000000138243
        },
        {
          "name": "D5",
          "midi": 74,
          "time": 252.75600000001089,
          "velocity": 0.7874015748031497,
          "duration": 0.0007375000000138243
        },
        {
          "name": "C6",
          "midi": 84,
          "time": 252.75600000001089,
          "velocity": 0.7874015748031497,
          "duration": 0.0007375000000138243
        },
        {
          "name": "D6",
          "midi": 86,
          "time": 252.75600000001089,
          "velocity": 0.7874015748031497,
          "duration": 0.0007375000000138243
        },
        {
          "name": "C7",
          "midi": 96,
          "time": 252.75600000001089,
          "velocity": 0.7874015748031497,
          "duration": 0.0007375000000138243
        },
        {
          "name": "D7",
          "midi": 98,
          "time": 252.75600000001089,
          "velocity": 0.7874015748031497,
          "duration": 0.0007375000000138243
        },
        {
          "name": "D7",
          "midi": 98,
          "time": 252.9330000000109,
          "velocity": 0.7874015748031497,
          "duration": 0.0007375000000138243
        },
        {
          "name": "D4",
          "midi": 62,
          "time": 253.11000000001093,
          "velocity": 0.7874015748031497,
          "duration": 0.0007375000000138243
        },
        {
          "name": "C5",
          "midi": 72,
          "time": 253.11000000001093,
          "velocity": 0.7874015748031497,
          "duration": 0.0007375000000138243
        },
        {
          "name": "D5",
          "midi": 74,
          "time": 253.11000000001093,
          "velocity": 0.7874015748031497,
          "duration": 0.0007375000000138243
        },
        {
          "name": "C6",
          "midi": 84,
          "time": 253.11000000001093,
          "velocity": 0.7874015748031497,
          "duration": 0.0007375000000138243
        },
        {
          "name": "D6",
          "midi": 86,
          "time": 253.11000000001093,
          "velocity": 0.7874015748031497,
          "duration": 0.0007375000000138243
        },
        {
          "name": "C7",
          "midi": 96,
          "time": 253.11000000001093,
          "velocity": 0.7874015748031497,
          "duration": 0.0007375000000138243
        },
        {
          "name": "D7",
          "midi": 98,
          "time": 253.11000000001093,
          "velocity": 0.7874015748031497,
          "duration": 0.0007375000000138243
        },
        {
          "name": "D7",
          "midi": 98,
          "time": 253.28700000001095,
          "velocity": 0.7874015748031497,
          "duration": 0.0007375000000138243
        },
        {
          "name": "C#4",
          "midi": 61,
          "time": 253.46400000001097,
          "velocity": 0.7874015748031497,
          "duration": 0.0007375000000138243
        },
        {
          "name": "C#5",
          "midi": 73,
          "time": 253.46400000001097,
          "velocity": 0.7874015748031497,
          "duration": 0.0007375000000138243
        },
        {
          "name": "D5",
          "midi": 74,
          "time": 253.46400000001097,
          "velocity": 0.7874015748031497,
          "duration": 0.0007375000000138243
        },
        {
          "name": "C#6",
          "midi": 85,
          "time": 253.46400000001097,
          "velocity": 0.7874015748031497,
          "duration": 0.0007375000000138243
        },
        {
          "name": "D6",
          "midi": 86,
          "time": 253.46400000001097,
          "velocity": 0.7874015748031497,
          "duration": 0.0007375000000138243
        },
        {
          "name": "C#7",
          "midi": 97,
          "time": 253.46400000001097,
          "velocity": 0.7874015748031497,
          "duration": 0.0007375000000138243
        },
        {
          "name": "D7",
          "midi": 98,
          "time": 253.46400000001097,
          "velocity": 0.7874015748031497,
          "duration": 0.0007375000000138243
        },
        {
          "name": "D7",
          "midi": 98,
          "time": 253.64026250001098,
          "velocity": 0.7874015748031497,
          "duration": 0.0007375000000138243
        },
        {
          "name": "D4",
          "midi": 62,
          "time": 253.81800000001098,
          "velocity": 0.7874015748031497,
          "duration": 0.0007375000000138243
        },
        {
          "name": "D5",
          "midi": 74,
          "time": 253.81800000001098,
          "velocity": 0.7874015748031497,
          "duration": 0.0007375000000138243
        },
        {
          "name": "D6",
          "midi": 86,
          "time": 253.81800000001098,
          "velocity": 0.7874015748031497,
          "duration": 0.0007375000000138243
        },
        {
          "name": "D7",
          "midi": 98,
          "time": 253.81800000001098,
          "velocity": 0.7874015748031497,
          "duration": 0.0007375000000138243
        },
        {
          "name": "C6",
          "midi": 84,
          "time": 253.994262500011,
          "velocity": 0.7874015748031497,
          "duration": 0.0007375000000138243
        },
        {
          "name": "D6",
          "midi": 86,
          "time": 253.994262500011,
          "velocity": 0.7874015748031497,
          "duration": 0.0007375000000138243
        },
        {
          "name": "C7",
          "midi": 96,
          "time": 253.994262500011,
          "velocity": 0.7874015748031497,
          "duration": 0.0007375000000138243
        },
        {
          "name": "D7",
          "midi": 98,
          "time": 253.994262500011,
          "velocity": 0.7874015748031497,
          "duration": 0.0007375000000138243
        },
        {
          "name": "D4",
          "midi": 62,
          "time": 254.172000000011,
          "velocity": 0.7874015748031497,
          "duration": 0.0007375000000138243
        },
        {
          "name": "D5",
          "midi": 74,
          "time": 254.172000000011,
          "velocity": 0.7874015748031497,
          "duration": 0.0007375000000138243
        },
        {
          "name": "D7",
          "midi": 98,
          "time": 254.172000000011,
          "velocity": 0.7874015748031497,
          "duration": 0.0007375000000138243
        },
        {
          "name": "D7",
          "midi": 98,
          "time": 254.348262500011,
          "velocity": 0.7874015748031497,
          "duration": 0.0007375000000138243
        },
        {
          "name": "D4",
          "midi": 62,
          "time": 254.526000000011,
          "velocity": 0.7874015748031497,
          "duration": 0.0007375000000138243
        },
        {
          "name": "C5",
          "midi": 72,
          "time": 254.526000000011,
          "velocity": 0.7874015748031497,
          "duration": 0.0007375000000138243
        },
        {
          "name": "D5",
          "midi": 74,
          "time": 254.526000000011,
          "velocity": 0.7874015748031497,
          "duration": 0.0007375000000138243
        },
        {
          "name": "C6",
          "midi": 84,
          "time": 254.526000000011,
          "velocity": 0.7874015748031497,
          "duration": 0.0007375000000138243
        },
        {
          "name": "D6",
          "midi": 86,
          "time": 254.526000000011,
          "velocity": 0.7874015748031497,
          "duration": 0.0007375000000138243
        },
        {
          "name": "C7",
          "midi": 96,
          "time": 254.526000000011,
          "velocity": 0.7874015748031497,
          "duration": 0.0007375000000138243
        },
        {
          "name": "D7",
          "midi": 98,
          "time": 254.526000000011,
          "velocity": 0.7874015748031497,
          "duration": 0.0007375000000138243
        },
        {
          "name": "D7",
          "midi": 98,
          "time": 254.70226250001102,
          "velocity": 0.7874015748031497,
          "duration": 0.0007375000000138243
        },
        {
          "name": "C#4",
          "midi": 61,
          "time": 254.88000000001102,
          "velocity": 0.7874015748031497,
          "duration": 0.0007375000000138243
        },
        {
          "name": "C#5",
          "midi": 73,
          "time": 254.88000000001102,
          "velocity": 0.7874015748031497,
          "duration": 0.0007375000000138243
        },
        {
          "name": "D5",
          "midi": 74,
          "time": 254.88000000001102,
          "velocity": 0.7874015748031497,
          "duration": 0.0007375000000138243
        },
        {
          "name": "C#6",
          "midi": 85,
          "time": 254.88000000001102,
          "velocity": 0.7874015748031497,
          "duration": 0.0007375000000138243
        },
        {
          "name": "D6",
          "midi": 86,
          "time": 254.88000000001102,
          "velocity": 0.7874015748031497,
          "duration": 0.0007375000000138243
        },
        {
          "name": "C#7",
          "midi": 97,
          "time": 254.88000000001102,
          "velocity": 0.7874015748031497,
          "duration": 0.0007375000000138243
        },
        {
          "name": "D7",
          "midi": 98,
          "time": 254.88000000001102,
          "velocity": 0.7874015748031497,
          "duration": 0.0007375000000138243
        },
        {
          "name": "D7",
          "midi": 98,
          "time": 255.05626250001103,
          "velocity": 0.7874015748031497,
          "duration": 0.0007375000000138243
        },
        {
          "name": "D4",
          "midi": 62,
          "time": 255.23400000001104,
          "velocity": 0.7874015748031497,
          "duration": 0.0007375000000138243
        },
        {
          "name": "C5",
          "midi": 72,
          "time": 255.23400000001104,
          "velocity": 0.7874015748031497,
          "duration": 0.0007375000000138243
        },
        {
          "name": "D5",
          "midi": 74,
          "time": 255.23400000001104,
          "velocity": 0.7874015748031497,
          "duration": 0.0007375000000138243
        },
        {
          "name": "C6",
          "midi": 84,
          "time": 255.23400000001104,
          "velocity": 0.7874015748031497,
          "duration": 0.0007375000000138243
        },
        {
          "name": "D6",
          "midi": 86,
          "time": 255.23400000001104,
          "velocity": 0.7874015748031497,
          "duration": 0.0007375000000138243
        },
        {
          "name": "C7",
          "midi": 96,
          "time": 255.23400000001104,
          "velocity": 0.7874015748031497,
          "duration": 0.0007375000000138243
        },
        {
          "name": "D7",
          "midi": 98,
          "time": 255.23400000001104,
          "velocity": 0.7874015748031497,
          "duration": 0.0007375000000138243
        },
        {
          "name": "D7",
          "midi": 98,
          "time": 255.41026250001104,
          "velocity": 0.7874015748031497,
          "duration": 0.0007375000000138243
        },
        {
          "name": "C#4",
          "midi": 61,
          "time": 255.58800000001105,
          "velocity": 0.7874015748031497,
          "duration": 0.0007375000000138243
        },
        {
          "name": "C#5",
          "midi": 73,
          "time": 255.58800000001105,
          "velocity": 0.7874015748031497,
          "duration": 0.0007375000000138243
        },
        {
          "name": "C#6",
          "midi": 85,
          "time": 255.58800000001105,
          "velocity": 0.7874015748031497,
          "duration": 0.0007375000000138243
        },
        {
          "name": "C#7",
          "midi": 97,
          "time": 255.58800000001105,
          "velocity": 0.7874015748031497,
          "duration": 0.0007375000000138243
        },
        {
          "name": "C#6",
          "midi": 85,
          "time": 255.67576250001107,
          "velocity": 0.7874015748031497,
          "duration": 0.0007375000000138243
        },
        {
          "name": "C#7",
          "midi": 97,
          "time": 255.67576250001107,
          "velocity": 0.7874015748031497,
          "duration": 0.0007375000000138243
        },
        {
          "name": "D#4",
          "midi": 63,
          "time": 255.7650000000111,
          "velocity": 0.7874015748031497,
          "duration": 0.0007375000000138243
        },
        {
          "name": "D#5",
          "midi": 75,
          "time": 255.7650000000111,
          "velocity": 0.7874015748031497,
          "duration": 0.0007375000000138243
        },
        {
          "name": "D#6",
          "midi": 87,
          "time": 255.7650000000111,
          "velocity": 0.7874015748031497,
          "duration": 0.0007375000000138243
        },
        {
          "name": "D#7",
          "midi": 99,
          "time": 255.7650000000111,
          "velocity": 0.7874015748031497,
          "duration": 0.0007375000000138243
        },
        {
          "name": "D#4",
          "midi": 63,
          "time": 255.94200000001112,
          "velocity": 0.7874015748031497,
          "duration": 0.0007375000000138243
        },
        {
          "name": "D#5",
          "midi": 75,
          "time": 255.94200000001112,
          "velocity": 0.7874015748031497,
          "duration": 0.0007375000000138243
        },
        {
          "name": "D#6",
          "midi": 87,
          "time": 255.94200000001112,
          "velocity": 0.7874015748031497,
          "duration": 0.0007375000000138243
        },
        {
          "name": "D#7",
          "midi": 99,
          "time": 255.94200000001112,
          "velocity": 0.7874015748031497,
          "duration": 0.0007375000000138243
        },
        {
          "name": "D#4",
          "midi": 63,
          "time": 256.1190000000111,
          "velocity": 0.7874015748031497,
          "duration": 0.0007375000000138243
        },
        {
          "name": "D#5",
          "midi": 75,
          "time": 256.1190000000111,
          "velocity": 0.7874015748031497,
          "duration": 0.0007375000000138243
        },
        {
          "name": "D#6",
          "midi": 87,
          "time": 256.1190000000111,
          "velocity": 0.7874015748031497,
          "duration": 0.0007375000000138243
        },
        {
          "name": "D#7",
          "midi": 99,
          "time": 256.1190000000111,
          "velocity": 0.7874015748031497,
          "duration": 0.0007375000000138243
        },
        {
          "name": "C#4",
          "midi": 61,
          "time": 256.29600000001113,
          "velocity": 0.7874015748031497,
          "duration": 0.0007375000000138243
        },
        {
          "name": "C#5",
          "midi": 73,
          "time": 256.29600000001113,
          "velocity": 0.7874015748031497,
          "duration": 0.0007375000000138243
        },
        {
          "name": "C#6",
          "midi": 85,
          "time": 256.29600000001113,
          "velocity": 0.7874015748031497,
          "duration": 0.0007375000000138243
        },
        {
          "name": "C#7",
          "midi": 97,
          "time": 256.29600000001113,
          "velocity": 0.7874015748031497,
          "duration": 0.0007375000000138243
        },
        {
          "name": "D4",
          "midi": 62,
          "time": 256.47300000001115,
          "velocity": 0.7874015748031497,
          "duration": 0.0007375000000138243
        },
        {
          "name": "C5",
          "midi": 72,
          "time": 256.47300000001115,
          "velocity": 0.7874015748031497,
          "duration": 0.0007375000000138243
        },
        {
          "name": "D5",
          "midi": 74,
          "time": 256.47300000001115,
          "velocity": 0.7874015748031497,
          "duration": 0.0007375000000138243
        },
        {
          "name": "C6",
          "midi": 84,
          "time": 256.47300000001115,
          "velocity": 0.7874015748031497,
          "duration": 0.0007375000000138243
        },
        {
          "name": "D6",
          "midi": 86,
          "time": 256.47300000001115,
          "velocity": 0.7874015748031497,
          "duration": 0.0007375000000138243
        },
        {
          "name": "C7",
          "midi": 96,
          "time": 256.47300000001115,
          "velocity": 0.7874015748031497,
          "duration": 0.0007375000000138243
        },
        {
          "name": "E7",
          "midi": 100,
          "time": 256.47300000001115,
          "velocity": 0.7874015748031497,
          "duration": 0.0007375000000138243
        },
        {
          "name": "D4",
          "midi": 62,
          "time": 257.00400000001116,
          "velocity": 0.7874015748031497,
          "duration": 0.0007375000000138243
        },
        {
          "name": "C5",
          "midi": 72,
          "time": 257.00400000001116,
          "velocity": 0.7874015748031497,
          "duration": 0.0007375000000138243
        },
        {
          "name": "D5",
          "midi": 74,
          "time": 257.00400000001116,
          "velocity": 0.7874015748031497,
          "duration": 0.0007375000000138243
        },
        {
          "name": "C6",
          "midi": 84,
          "time": 257.00400000001116,
          "velocity": 0.7874015748031497,
          "duration": 0.0007375000000138243
        },
        {
          "name": "D6",
          "midi": 86,
          "time": 257.00400000001116,
          "velocity": 0.7874015748031497,
          "duration": 0.0007375000000138243
        },
        {
          "name": "C7",
          "midi": 96,
          "time": 257.00400000001116,
          "velocity": 0.7874015748031497,
          "duration": 0.0007375000000138243
        },
        {
          "name": "D7",
          "midi": 98,
          "time": 257.00400000001116,
          "velocity": 0.7874015748031497,
          "duration": 0.0007375000000138243
        },
        {
          "name": "D4",
          "midi": 62,
          "time": 257.7120000000112,
          "velocity": 0.7874015748031497,
          "duration": 0.0007375000000138243
        },
        {
          "name": "C5",
          "midi": 72,
          "time": 257.7120000000112,
          "velocity": 0.7874015748031497,
          "duration": 0.0007375000000138243
        },
        {
          "name": "D5",
          "midi": 74,
          "time": 257.7120000000112,
          "velocity": 0.7874015748031497,
          "duration": 0.0007375000000138243
        },
        {
          "name": "C6",
          "midi": 84,
          "time": 257.7120000000112,
          "velocity": 0.7874015748031497,
          "duration": 0.0007375000000138243
        },
        {
          "name": "D6",
          "midi": 86,
          "time": 257.7120000000112,
          "velocity": 0.7874015748031497,
          "duration": 0.0007375000000138243
        },
        {
          "name": "C7",
          "midi": 96,
          "time": 257.7120000000112,
          "velocity": 0.7874015748031497,
          "duration": 0.0007375000000138243
        },
        {
          "name": "E7",
          "midi": 100,
          "time": 257.7120000000112,
          "velocity": 0.7874015748031497,
          "duration": 0.0007375000000138243
        },
        {
          "name": "D4",
          "midi": 62,
          "time": 258.4200000000112,
          "velocity": 0.7874015748031497,
          "duration": 0.0007375000000138243
        },
        {
          "name": "C5",
          "midi": 72,
          "time": 258.4200000000112,
          "velocity": 0.7874015748031497,
          "duration": 0.0007375000000138243
        },
        {
          "name": "D5",
          "midi": 74,
          "time": 258.4200000000112,
          "velocity": 0.7874015748031497,
          "duration": 0.0007375000000138243
        },
        {
          "name": "C6",
          "midi": 84,
          "time": 258.4200000000112,
          "velocity": 0.7874015748031497,
          "duration": 0.0007375000000138243
        },
        {
          "name": "D6",
          "midi": 86,
          "time": 258.4200000000112,
          "velocity": 0.7874015748031497,
          "duration": 0.0007375000000138243
        },
        {
          "name": "C7",
          "midi": 96,
          "time": 258.4200000000112,
          "velocity": 0.7874015748031497,
          "duration": 0.0007375000000138243
        },
        {
          "name": "D7",
          "midi": 98,
          "time": 258.4200000000112,
          "velocity": 0.7874015748031497,
          "duration": 0.0007375000000138243
        },
        {
          "name": "D4",
          "midi": 62,
          "time": 258.77400000001126,
          "velocity": 0.7874015748031497,
          "duration": 0.0007375000000138243
        },
        {
          "name": "C5",
          "midi": 72,
          "time": 258.77400000001126,
          "velocity": 0.7874015748031497,
          "duration": 0.0007375000000138243
        },
        {
          "name": "D5",
          "midi": 74,
          "time": 258.77400000001126,
          "velocity": 0.7874015748031497,
          "duration": 0.0007375000000138243
        },
        {
          "name": "C6",
          "midi": 84,
          "time": 258.77400000001126,
          "velocity": 0.7874015748031497,
          "duration": 0.0007375000000138243
        },
        {
          "name": "D6",
          "midi": 86,
          "time": 258.77400000001126,
          "velocity": 0.7874015748031497,
          "duration": 0.0007375000000138243
        },
        {
          "name": "C7",
          "midi": 96,
          "time": 258.77400000001126,
          "velocity": 0.7874015748031497,
          "duration": 0.0007375000000138243
        },
        {
          "name": "D7",
          "midi": 98,
          "time": 258.77400000001126,
          "velocity": 0.7874015748031497,
          "duration": 0.0007375000000138243
        },
        {
          "name": "C#4",
          "midi": 61,
          "time": 259.1280000000113,
          "velocity": 0.7874015748031497,
          "duration": 0.0007375000000138243
        },
        {
          "name": "C#5",
          "midi": 73,
          "time": 259.1280000000113,
          "velocity": 0.7874015748031497,
          "duration": 0.0007375000000138243
        },
        {
          "name": "E5",
          "midi": 76,
          "time": 259.1280000000113,
          "velocity": 0.7874015748031497,
          "duration": 0.0007375000000138243
        },
        {
          "name": "C#6",
          "midi": 85,
          "time": 259.1280000000113,
          "velocity": 0.7874015748031497,
          "duration": 0.0007375000000138243
        },
        {
          "name": "E6",
          "midi": 88,
          "time": 259.1280000000113,
          "velocity": 0.7874015748031497,
          "duration": 0.0007375000000138243
        },
        {
          "name": "C#7",
          "midi": 97,
          "time": 259.1280000000113,
          "velocity": 0.7874015748031497,
          "duration": 0.0007375000000138243
        },
        {
          "name": "E7",
          "midi": 100,
          "time": 259.1280000000113,
          "velocity": 0.7874015748031497,
          "duration": 0.0007375000000138243
        },
        {
          "name": "E7",
          "midi": 100,
          "time": 259.3042625000113,
          "velocity": 0.7874015748031497,
          "duration": 0.0007375000000138243
        },
        {
          "name": "E4",
          "midi": 64,
          "time": 259.48200000001134,
          "velocity": 0.7874015748031497,
          "duration": 0.0007375000000138243
        },
        {
          "name": "C5",
          "midi": 72,
          "time": 259.48200000001134,
          "velocity": 0.7874015748031497,
          "duration": 0.0007375000000138243
        },
        {
          "name": "E5",
          "midi": 76,
          "time": 259.48200000001134,
          "velocity": 0.7874015748031497,
          "duration": 0.0007375000000138243
        },
        {
          "name": "C6",
          "midi": 84,
          "time": 259.48200000001134,
          "velocity": 0.7874015748031497,
          "duration": 0.0007375000000138243
        },
        {
          "name": "E6",
          "midi": 88,
          "time": 259.48200000001134,
          "velocity": 0.7874015748031497,
          "duration": 0.0007375000000138243
        },
        {
          "name": "C7",
          "midi": 96,
          "time": 259.48200000001134,
          "velocity": 0.7874015748031497,
          "duration": 0.0007375000000138243
        },
        {
          "name": "E7",
          "midi": 100,
          "time": 259.48200000001134,
          "velocity": 0.7874015748031497,
          "duration": 0.0007375000000138243
        },
        {
          "name": "C6",
          "midi": 84,
          "time": 259.6597375000114,
          "velocity": 0.7874015748031497,
          "duration": 0.0007375000000138243
        },
        {
          "name": "C7",
          "midi": 96,
          "time": 259.6597375000114,
          "velocity": 0.7874015748031497,
          "duration": 0.0007375000000138243
        },
        {
          "name": "E7",
          "midi": 100,
          "time": 259.6597375000114,
          "velocity": 0.7874015748031497,
          "duration": 0.0007375000000138243
        },
        {
          "name": "E4",
          "midi": 64,
          "time": 259.8360000000114,
          "velocity": 0.7874015748031497,
          "duration": 0.0007375000000138243
        },
        {
          "name": "E5",
          "midi": 76,
          "time": 259.8360000000114,
          "velocity": 0.7874015748031497,
          "duration": 0.0007375000000138243
        },
        {
          "name": "E6",
          "midi": 88,
          "time": 259.8360000000114,
          "velocity": 0.7874015748031497,
          "duration": 0.0007375000000138243
        },
        {
          "name": "E7",
          "midi": 100,
          "time": 259.8360000000114,
          "velocity": 0.7874015748031497,
          "duration": 0.0007375000000138243
        },
        {
          "name": "E7",
          "midi": 100,
          "time": 260.0130000000114,
          "velocity": 0.7874015748031497,
          "duration": 0.0007375000000138243
        },
        {
          "name": "E4",
          "midi": 64,
          "time": 260.1900000000114,
          "velocity": 0.7874015748031497,
          "duration": 0.0007375000000138243
        },
        {
          "name": "C5",
          "midi": 72,
          "time": 260.1900000000114,
          "velocity": 0.7874015748031497,
          "duration": 0.0007375000000138243
        },
        {
          "name": "E5",
          "midi": 76,
          "time": 260.1900000000114,
          "velocity": 0.7874015748031497,
          "duration": 0.0007375000000138243
        },
        {
          "name": "C6",
          "midi": 84,
          "time": 260.1900000000114,
          "velocity": 0.7874015748031497,
          "duration": 0.0007375000000138243
        },
        {
          "name": "E6",
          "midi": 88,
          "time": 260.1900000000114,
          "velocity": 0.7874015748031497,
          "duration": 0.0007375000000138243
        },
        {
          "name": "C7",
          "midi": 96,
          "time": 260.1900000000114,
          "velocity": 0.7874015748031497,
          "duration": 0.0007375000000138243
        },
        {
          "name": "E7",
          "midi": 100,
          "time": 260.1900000000114,
          "velocity": 0.7874015748031497,
          "duration": 0.0007375000000138243
        },
        {
          "name": "E7",
          "midi": 100,
          "time": 260.36626250001143,
          "velocity": 0.7874015748031497,
          "duration": 0.0007375000000138243
        },
        {
          "name": "C#4",
          "midi": 61,
          "time": 260.54400000001147,
          "velocity": 0.7874015748031497,
          "duration": 0.0007375000000138243
        },
        {
          "name": "C#5",
          "midi": 73,
          "time": 260.54400000001147,
          "velocity": 0.7874015748031497,
          "duration": 0.0007375000000138243
        },
        {
          "name": "E5",
          "midi": 76,
          "time": 260.54400000001147,
          "velocity": 0.7874015748031497,
          "duration": 0.0007375000000138243
        },
        {
          "name": "C#6",
          "midi": 85,
          "time": 260.54400000001147,
          "velocity": 0.7874015748031497,
          "duration": 0.0007375000000138243
        },
        {
          "name": "E6",
          "midi": 88,
          "time": 260.54400000001147,
          "velocity": 0.7874015748031497,
          "duration": 0.0007375000000138243
        },
        {
          "name": "C#7",
          "midi": 97,
          "time": 260.54400000001147,
          "velocity": 0.7874015748031497,
          "duration": 0.0007375000000138243
        },
        {
          "name": "E7",
          "midi": 100,
          "time": 260.54400000001147,
          "velocity": 0.7874015748031497,
          "duration": 0.0007375000000138243
        },
        {
          "name": "E7",
          "midi": 100,
          "time": 260.7210000000115,
          "velocity": 0.7874015748031497,
          "duration": 0.0007375000000138243
        },
        {
          "name": "E4",
          "midi": 64,
          "time": 260.8980000000115,
          "velocity": 0.7874015748031497,
          "duration": 0.0007375000000138243
        },
        {
          "name": "E5",
          "midi": 76,
          "time": 260.8980000000115,
          "velocity": 0.7874015748031497,
          "duration": 0.0007375000000138243
        },
        {
          "name": "C6",
          "midi": 84,
          "time": 260.8980000000115,
          "velocity": 0.7874015748031497,
          "duration": 0.0007375000000138243
        },
        {
          "name": "E6",
          "midi": 88,
          "time": 260.8980000000115,
          "velocity": 0.7874015748031497,
          "duration": 0.0007375000000138243
        },
        {
          "name": "C7",
          "midi": 96,
          "time": 260.8980000000115,
          "velocity": 0.7874015748031497,
          "duration": 0.0007375000000138243
        },
        {
          "name": "E7",
          "midi": 100,
          "time": 260.8980000000115,
          "velocity": 0.7874015748031497,
          "duration": 0.0007375000000138243
        },
        {
          "name": "E7",
          "midi": 100,
          "time": 261.0742625000115,
          "velocity": 0.7874015748031497,
          "duration": 0.0007375000000138243
        },
        {
          "name": "C7",
          "midi": 96,
          "time": 261.16350000001154,
          "velocity": 0.7874015748031497,
          "duration": 0.0007375000000138243
        },
        {
          "name": "C#4",
          "midi": 61,
          "time": 261.25200000001155,
          "velocity": 0.7874015748031497,
          "duration": 0.0007375000000138243
        },
        {
          "name": "C#5",
          "midi": 73,
          "time": 261.25200000001155,
          "velocity": 0.7874015748031497,
          "duration": 0.0007375000000138243
        },
        {
          "name": "E5",
          "midi": 76,
          "time": 261.25200000001155,
          "velocity": 0.7874015748031497,
          "duration": 0.0007375000000138243
        },
        {
          "name": "C#6",
          "midi": 85,
          "time": 261.25200000001155,
          "velocity": 0.7874015748031497,
          "duration": 0.0007375000000138243
        },
        {
          "name": "E6",
          "midi": 88,
          "time": 261.25200000001155,
          "velocity": 0.7874015748031497,
          "duration": 0.0007375000000138243
        },
        {
          "name": "C#7",
          "midi": 97,
          "time": 261.25200000001155,
          "velocity": 0.7874015748031497,
          "duration": 0.0007375000000138243
        },
        {
          "name": "E7",
          "midi": 100,
          "time": 261.25200000001155,
          "velocity": 0.7874015748031497,
          "duration": 0.0007375000000138243
        },
        {
          "name": "E7",
          "midi": 100,
          "time": 261.42826250001156,
          "velocity": 0.7874015748031497,
          "duration": 0.0007375000000138243
        },
        {
          "name": "E4",
          "midi": 64,
          "time": 261.6060000000116,
          "velocity": 0.7874015748031497,
          "duration": 0.0007375000000138243
        },
        {
          "name": "C5",
          "midi": 72,
          "time": 261.6060000000116,
          "velocity": 0.7874015748031497,
          "duration": 0.0007375000000138243
        },
        {
          "name": "E5",
          "midi": 76,
          "time": 261.6060000000116,
          "velocity": 0.7874015748031497,
          "duration": 0.0007375000000138243
        },
        {
          "name": "C6",
          "midi": 84,
          "time": 261.6060000000116,
          "velocity": 0.7874015748031497,
          "duration": 0.0007375000000138243
        },
        {
          "name": "E6",
          "midi": 88,
          "time": 261.6060000000116,
          "velocity": 0.7874015748031497,
          "duration": 0.0007375000000138243
        },
        {
          "name": "C7",
          "midi": 96,
          "time": 261.6060000000116,
          "velocity": 0.7874015748031497,
          "duration": 0.0007375000000138243
        },
        {
          "name": "E7",
          "midi": 100,
          "time": 261.6060000000116,
          "velocity": 0.7874015748031497,
          "duration": 0.0007375000000138243
        },
        {
          "name": "E7",
          "midi": 100,
          "time": 261.7837375000116,
          "velocity": 0.7874015748031497,
          "duration": 0.0007375000000138243
        },
        {
          "name": "C7",
          "midi": 96,
          "time": 261.8715000000116,
          "velocity": 0.7874015748031497,
          "duration": 0.0007375000000138243
        },
        {
          "name": "C#4",
          "midi": 61,
          "time": 261.96000000001163,
          "velocity": 0.7874015748031497,
          "duration": 0.0007375000000138243
        },
        {
          "name": "C#5",
          "midi": 73,
          "time": 261.96000000001163,
          "velocity": 0.7874015748031497,
          "duration": 0.0007375000000138243
        },
        {
          "name": "E5",
          "midi": 76,
          "time": 261.96000000001163,
          "velocity": 0.7874015748031497,
          "duration": 0.0007375000000138243
        },
        {
          "name": "C#6",
          "midi": 85,
          "time": 261.96000000001163,
          "velocity": 0.7874015748031497,
          "duration": 0.0007375000000138243
        },
        {
          "name": "E6",
          "midi": 88,
          "time": 261.96000000001163,
          "velocity": 0.7874015748031497,
          "duration": 0.0007375000000138243
        },
        {
          "name": "C#7",
          "midi": 97,
          "time": 261.96000000001163,
          "velocity": 0.7874015748031497,
          "duration": 0.0007375000000138243
        },
        {
          "name": "E7",
          "midi": 100,
          "time": 261.96000000001163,
          "velocity": 0.7874015748031497,
          "duration": 0.0007375000000138243
        },
        {
          "name": "C6",
          "midi": 84,
          "time": 262.13700000001165,
          "velocity": 0.7874015748031497,
          "duration": 0.0007375000000138243
        },
        {
          "name": "C7",
          "midi": 96,
          "time": 262.13700000001165,
          "velocity": 0.7874015748031497,
          "duration": 0.0007375000000138243
        },
        {
          "name": "E7",
          "midi": 100,
          "time": 262.13700000001165,
          "velocity": 0.7874015748031497,
          "duration": 0.0007375000000138243
        },
        {
          "name": "E4",
          "midi": 64,
          "time": 262.3140000000117,
          "velocity": 0.7874015748031497,
          "duration": 0.0007375000000138243
        },
        {
          "name": "E5",
          "midi": 76,
          "time": 262.3140000000117,
          "velocity": 0.7874015748031497,
          "duration": 0.0007375000000138243
        },
        {
          "name": "E6",
          "midi": 88,
          "time": 262.3140000000117,
          "velocity": 0.7874015748031497,
          "duration": 0.0007375000000138243
        },
        {
          "name": "E7",
          "midi": 100,
          "time": 262.3140000000117,
          "velocity": 0.7874015748031497,
          "duration": 0.0007375000000138243
        },
        {
          "name": "E7",
          "midi": 100,
          "time": 262.4902625000117,
          "velocity": 0.7874015748031497,
          "duration": 0.0007375000000138243
        },
        {
          "name": "E4",
          "midi": 64,
          "time": 262.6680000000117,
          "velocity": 0.7874015748031497,
          "duration": 0.0007375000000138243
        },
        {
          "name": "C5",
          "midi": 72,
          "time": 262.6680000000117,
          "velocity": 0.7874015748031497,
          "duration": 0.0007375000000138243
        },
        {
          "name": "E5",
          "midi": 76,
          "time": 262.6680000000117,
          "velocity": 0.7874015748031497,
          "duration": 0.0007375000000138243
        },
        {
          "name": "C6",
          "midi": 84,
          "time": 262.6680000000117,
          "velocity": 0.7874015748031497,
          "duration": 0.0007375000000138243
        },
        {
          "name": "E6",
          "midi": 88,
          "time": 262.6680000000117,
          "velocity": 0.7874015748031497,
          "duration": 0.0007375000000138243
        },
        {
          "name": "C7",
          "midi": 96,
          "time": 262.6680000000117,
          "velocity": 0.7874015748031497,
          "duration": 0.0007375000000138243
        },
        {
          "name": "E7",
          "midi": 100,
          "time": 262.6680000000117,
          "velocity": 0.7874015748031497,
          "duration": 0.0007375000000138243
        },
        {
          "name": "E7",
          "midi": 100,
          "time": 262.84500000001174,
          "velocity": 0.7874015748031497,
          "duration": 0.0007375000000138243
        },
        {
          "name": "C#4",
          "midi": 61,
          "time": 263.02200000001176,
          "velocity": 0.7874015748031497,
          "duration": 0.0007375000000138243
        },
        {
          "name": "C#5",
          "midi": 73,
          "time": 263.02200000001176,
          "velocity": 0.7874015748031497,
          "duration": 0.0007375000000138243
        },
        {
          "name": "E5",
          "midi": 76,
          "time": 263.02200000001176,
          "velocity": 0.7874015748031497,
          "duration": 0.0007375000000138243
        },
        {
          "name": "C#6",
          "midi": 85,
          "time": 263.02200000001176,
          "velocity": 0.7874015748031497,
          "duration": 0.0007375000000138243
        },
        {
          "name": "E6",
          "midi": 88,
          "time": 263.02200000001176,
          "velocity": 0.7874015748031497,
          "duration": 0.0007375000000138243
        },
        {
          "name": "C#7",
          "midi": 97,
          "time": 263.02200000001176,
          "velocity": 0.7874015748031497,
          "duration": 0.0007375000000138243
        },
        {
          "name": "E7",
          "midi": 100,
          "time": 263.02200000001176,
          "velocity": 0.7874015748031497,
          "duration": 0.0007375000000138243
        },
        {
          "name": "E7",
          "midi": 100,
          "time": 263.19826250001177,
          "velocity": 0.7874015748031497,
          "duration": 0.0007375000000138243
        },
        {
          "name": "G#8",
          "midi": 116,
          "time": 263.3760000000118,
          "velocity": 0.7874015748031497,
          "duration": 1.3275000000000432
        },
        {
          "name": "D4",
          "midi": 62,
          "time": 263.3760000000118,
          "velocity": 0.7874015748031497,
          "duration": 0.0007375000000138243
        },
        {
          "name": "C5",
          "midi": 72,
          "time": 263.3760000000118,
          "velocity": 0.7874015748031497,
          "duration": 0.0007375000000138243
        },
        {
          "name": "D5",
          "midi": 74,
          "time": 263.3760000000118,
          "velocity": 0.7874015748031497,
          "duration": 0.0007375000000138243
        },
        {
          "name": "C6",
          "midi": 84,
          "time": 263.3760000000118,
          "velocity": 0.7874015748031497,
          "duration": 0.0007375000000138243
        },
        {
          "name": "D6",
          "midi": 86,
          "time": 263.3760000000118,
          "velocity": 0.7874015748031497,
          "duration": 0.0007375000000138243
        },
        {
          "name": "C7",
          "midi": 96,
          "time": 263.3760000000118,
          "velocity": 0.7874015748031497,
          "duration": 0.0007375000000138243
        },
        {
          "name": "D7",
          "midi": 98,
          "time": 263.3760000000118,
          "velocity": 0.7874015748031497,
          "duration": 0.0007375000000138243
        },
        {
          "name": "C7",
          "midi": 96,
          "time": 263.6422375000118,
          "velocity": 0.7874015748031497,
          "duration": 0.0007375000000138243
        },
        {
          "name": "C#4",
          "midi": 61,
          "time": 263.7300000000118,
          "velocity": 0.7874015748031497,
          "duration": 0.0007375000000138243
        },
        {
          "name": "C#5",
          "midi": 73,
          "time": 263.7300000000118,
          "velocity": 0.7874015748031497,
          "duration": 0.0007375000000138243
        },
        {
          "name": "D5",
          "midi": 74,
          "time": 263.7300000000118,
          "velocity": 0.7874015748031497,
          "duration": 0.0007375000000138243
        },
        {
          "name": "C#6",
          "midi": 85,
          "time": 263.7300000000118,
          "velocity": 0.7874015748031497,
          "duration": 0.0007375000000138243
        },
        {
          "name": "D6",
          "midi": 86,
          "time": 263.7300000000118,
          "velocity": 0.7874015748031497,
          "duration": 0.0007375000000138243
        },
        {
          "name": "C#7",
          "midi": 97,
          "time": 263.7300000000118,
          "velocity": 0.7874015748031497,
          "duration": 0.0007375000000138243
        },
        {
          "name": "D7",
          "midi": 98,
          "time": 263.7300000000118,
          "velocity": 0.7874015748031497,
          "duration": 0.0007375000000138243
        },
        {
          "name": "D4",
          "midi": 62,
          "time": 264.0840000000118,
          "velocity": 0.7874015748031497,
          "duration": 0.0007375000000138243
        },
        {
          "name": "C5",
          "midi": 72,
          "time": 264.0840000000118,
          "velocity": 0.7874015748031497,
          "duration": 0.0007375000000138243
        },
        {
          "name": "D5",
          "midi": 74,
          "time": 264.0840000000118,
          "velocity": 0.7874015748031497,
          "duration": 0.0007375000000138243
        },
        {
          "name": "C6",
          "midi": 84,
          "time": 264.0840000000118,
          "velocity": 0.7874015748031497,
          "duration": 0.0007375000000138243
        },
        {
          "name": "D6",
          "midi": 86,
          "time": 264.0840000000118,
          "velocity": 0.7874015748031497,
          "duration": 0.0007375000000138243
        },
        {
          "name": "C7",
          "midi": 96,
          "time": 264.0840000000118,
          "velocity": 0.7874015748031497,
          "duration": 0.0007375000000138243
        },
        {
          "name": "D7",
          "midi": 98,
          "time": 264.0840000000118,
          "velocity": 0.7874015748031497,
          "duration": 0.0007375000000138243
        },
        {
          "name": "C7",
          "midi": 96,
          "time": 264.3502375000118,
          "velocity": 0.7874015748031497,
          "duration": 0.0007375000000138243
        },
        {
          "name": "C#4",
          "midi": 61,
          "time": 264.4380000000118,
          "velocity": 0.7874015748031497,
          "duration": 0.0007375000000138243
        },
        {
          "name": "C#5",
          "midi": 73,
          "time": 264.4380000000118,
          "velocity": 0.7874015748031497,
          "duration": 0.0007375000000138243
        },
        {
          "name": "C#6",
          "midi": 85,
          "time": 264.4380000000118,
          "velocity": 0.7874015748031497,
          "duration": 0.0007375000000138243
        },
        {
          "name": "D6",
          "midi": 86,
          "time": 264.4380000000118,
          "velocity": 0.7874015748031497,
          "duration": 0.0007375000000138243
        },
        {
          "name": "C#7",
          "midi": 97,
          "time": 264.4380000000118,
          "velocity": 0.7874015748031497,
          "duration": 0.0007375000000138243
        },
        {
          "name": "D7",
          "midi": 98,
          "time": 264.4380000000118,
          "velocity": 0.7874015748031497,
          "duration": 0.0007375000000138243
        },
        {
          "name": "D4",
          "midi": 62,
          "time": 264.61500000001183,
          "velocity": 0.7874015748031497,
          "duration": 0.0007375000000138243
        },
        {
          "name": "C5",
          "midi": 72,
          "time": 264.61500000001183,
          "velocity": 0.7874015748031497,
          "duration": 0.0007375000000138243
        },
        {
          "name": "D5",
          "midi": 74,
          "time": 264.61500000001183,
          "velocity": 0.7874015748031497,
          "duration": 0.0007375000000138243
        },
        {
          "name": "C6",
          "midi": 84,
          "time": 264.61500000001183,
          "velocity": 0.7874015748031497,
          "duration": 0.0007375000000138243
        },
        {
          "name": "D6",
          "midi": 86,
          "time": 264.61500000001183,
          "velocity": 0.7874015748031497,
          "duration": 0.0007375000000138243
        },
        {
          "name": "C7",
          "midi": 96,
          "time": 264.61500000001183,
          "velocity": 0.7874015748031497,
          "duration": 0.0007375000000138243
        },
        {
          "name": "D7",
          "midi": 98,
          "time": 264.61500000001183,
          "velocity": 0.7874015748031497,
          "duration": 0.0007375000000138243
        },
        {
          "name": "E4",
          "midi": 64,
          "time": 265.14600000001184,
          "velocity": 0.7874015748031497,
          "duration": 0.0007375000000138243
        },
        {
          "name": "C5",
          "midi": 72,
          "time": 265.14600000001184,
          "velocity": 0.7874015748031497,
          "duration": 0.0007375000000138243
        },
        {
          "name": "E5",
          "midi": 76,
          "time": 265.14600000001184,
          "velocity": 0.7874015748031497,
          "duration": 0.0007375000000138243
        },
        {
          "name": "C6",
          "midi": 84,
          "time": 265.14600000001184,
          "velocity": 0.7874015748031497,
          "duration": 0.0007375000000138243
        },
        {
          "name": "E6",
          "midi": 88,
          "time": 265.14600000001184,
          "velocity": 0.7874015748031497,
          "duration": 0.0007375000000138243
        },
        {
          "name": "C7",
          "midi": 96,
          "time": 265.14600000001184,
          "velocity": 0.7874015748031497,
          "duration": 0.0007375000000138243
        },
        {
          "name": "E7",
          "midi": 100,
          "time": 265.14600000001184,
          "velocity": 0.7874015748031497,
          "duration": 0.0007375000000138243
        },
        {
          "name": "C#4",
          "midi": 61,
          "time": 265.5000000000119,
          "velocity": 0.7874015748031497,
          "duration": 0.0007375000000138243
        },
        {
          "name": "C#5",
          "midi": 73,
          "time": 265.5000000000119,
          "velocity": 0.7874015748031497,
          "duration": 0.0007375000000138243
        },
        {
          "name": "E5",
          "midi": 76,
          "time": 265.5000000000119,
          "velocity": 0.7874015748031497,
          "duration": 0.0007375000000138243
        },
        {
          "name": "C#6",
          "midi": 85,
          "time": 265.5000000000119,
          "velocity": 0.7874015748031497,
          "duration": 0.0007375000000138243
        },
        {
          "name": "E6",
          "midi": 88,
          "time": 265.5000000000119,
          "velocity": 0.7874015748031497,
          "duration": 0.0007375000000138243
        },
        {
          "name": "C#7",
          "midi": 97,
          "time": 265.5000000000119,
          "velocity": 0.7874015748031497,
          "duration": 0.0007375000000138243
        },
        {
          "name": "E7",
          "midi": 100,
          "time": 265.5000000000119,
          "velocity": 0.7874015748031497,
          "duration": 0.0007375000000138243
        },
        {
          "name": "E7",
          "midi": 100,
          "time": 265.6770000000119,
          "velocity": 0.7874015748031497,
          "duration": 0.0007375000000138243
        },
        {
          "name": "E4",
          "midi": 64,
          "time": 265.8540000000119,
          "velocity": 0.7874015748031497,
          "duration": 0.0007375000000138243
        },
        {
          "name": "E5",
          "midi": 76,
          "time": 265.8540000000119,
          "velocity": 0.7874015748031497,
          "duration": 0.0007375000000138243
        },
        {
          "name": "C6",
          "midi": 84,
          "time": 265.8540000000119,
          "velocity": 0.7874015748031497,
          "duration": 0.0007375000000138243
        },
        {
          "name": "E6",
          "midi": 88,
          "time": 265.8540000000119,
          "velocity": 0.7874015748031497,
          "duration": 0.0007375000000138243
        },
        {
          "name": "C7",
          "midi": 96,
          "time": 265.8540000000119,
          "velocity": 0.7874015748031497,
          "duration": 0.0007375000000138243
        },
        {
          "name": "E7",
          "midi": 100,
          "time": 265.8540000000119,
          "velocity": 0.7874015748031497,
          "duration": 0.0007375000000138243
        },
        {
          "name": "E7",
          "midi": 100,
          "time": 266.03100000001194,
          "velocity": 0.7874015748031497,
          "duration": 0.0007375000000138243
        },
        {
          "name": "C7",
          "midi": 96,
          "time": 266.11876250001194,
          "velocity": 0.7874015748031497,
          "duration": 0.0007375000000138243
        },
        {
          "name": "C#4",
          "midi": 61,
          "time": 266.20800000001196,
          "velocity": 0.7874015748031497,
          "duration": 0.0007375000000138243
        },
        {
          "name": "C#5",
          "midi": 73,
          "time": 266.20800000001196,
          "velocity": 0.7874015748031497,
          "duration": 0.0007375000000138243
        },
        {
          "name": "E5",
          "midi": 76,
          "time": 266.20800000001196,
          "velocity": 0.7874015748031497,
          "duration": 0.0007375000000138243
        },
        {
          "name": "C#6",
          "midi": 85,
          "time": 266.20800000001196,
          "velocity": 0.7874015748031497,
          "duration": 0.0007375000000138243
        },
        {
          "name": "E6",
          "midi": 88,
          "time": 266.20800000001196,
          "velocity": 0.7874015748031497,
          "duration": 0.0007375000000138243
        },
        {
          "name": "C#7",
          "midi": 97,
          "time": 266.20800000001196,
          "velocity": 0.7874015748031497,
          "duration": 0.0007375000000138243
        },
        {
          "name": "E7",
          "midi": 100,
          "time": 266.20800000001196,
          "velocity": 0.7874015748031497,
          "duration": 0.0007375000000138243
        },
        {
          "name": "E7",
          "midi": 100,
          "time": 266.385000000012,
          "velocity": 0.7874015748031497,
          "duration": 0.0007375000000138243
        },
        {
          "name": "E4",
          "midi": 64,
          "time": 266.562000000012,
          "velocity": 0.7874015748031497,
          "duration": 0.0007375000000138243
        },
        {
          "name": "C5",
          "midi": 72,
          "time": 266.562000000012,
          "velocity": 0.7874015748031497,
          "duration": 0.0007375000000138243
        },
        {
          "name": "E5",
          "midi": 76,
          "time": 266.562000000012,
          "velocity": 0.7874015748031497,
          "duration": 0.0007375000000138243
        },
        {
          "name": "C6",
          "midi": 84,
          "time": 266.562000000012,
          "velocity": 0.7874015748031497,
          "duration": 0.0007375000000138243
        },
        {
          "name": "E6",
          "midi": 88,
          "time": 266.562000000012,
          "velocity": 0.7874015748031497,
          "duration": 0.0007375000000138243
        },
        {
          "name": "C7",
          "midi": 96,
          "time": 266.562000000012,
          "velocity": 0.7874015748031497,
          "duration": 0.0007375000000138243
        },
        {
          "name": "E7",
          "midi": 100,
          "time": 266.562000000012,
          "velocity": 0.7874015748031497,
          "duration": 0.0007375000000138243
        },
        {
          "name": "E7",
          "midi": 100,
          "time": 266.739000000012,
          "velocity": 0.7874015748031497,
          "duration": 0.0007375000000138243
        },
        {
          "name": "C7",
          "midi": 96,
          "time": 266.826762500012,
          "velocity": 0.7874015748031497,
          "duration": 0.0007375000000138243
        },
        {
          "name": "C#4",
          "midi": 61,
          "time": 266.91600000001205,
          "velocity": 0.7874015748031497,
          "duration": 0.0007375000000138243
        },
        {
          "name": "C#5",
          "midi": 73,
          "time": 266.91600000001205,
          "velocity": 0.7874015748031497,
          "duration": 0.0007375000000138243
        },
        {
          "name": "E5",
          "midi": 76,
          "time": 266.91600000001205,
          "velocity": 0.7874015748031497,
          "duration": 0.0007375000000138243
        },
        {
          "name": "C#6",
          "midi": 85,
          "time": 266.91600000001205,
          "velocity": 0.7874015748031497,
          "duration": 0.0007375000000138243
        },
        {
          "name": "E6",
          "midi": 88,
          "time": 266.91600000001205,
          "velocity": 0.7874015748031497,
          "duration": 0.0007375000000138243
        },
        {
          "name": "C#7",
          "midi": 97,
          "time": 266.91600000001205,
          "velocity": 0.7874015748031497,
          "duration": 0.0007375000000138243
        },
        {
          "name": "E7",
          "midi": 100,
          "time": 266.91600000001205,
          "velocity": 0.7874015748031497,
          "duration": 0.0007375000000138243
        },
        {
          "name": "C6",
          "midi": 84,
          "time": 267.09300000001207,
          "velocity": 0.7874015748031497,
          "duration": 0.0007375000000138243
        },
        {
          "name": "C7",
          "midi": 96,
          "time": 267.09300000001207,
          "velocity": 0.7874015748031497,
          "duration": 0.0007375000000138243
        },
        {
          "name": "E7",
          "midi": 100,
          "time": 267.09300000001207,
          "velocity": 0.7874015748031497,
          "duration": 0.0007375000000138243
        },
        {
          "name": "E4",
          "midi": 64,
          "time": 267.2700000000121,
          "velocity": 0.7874015748031497,
          "duration": 0.0007375000000138243
        },
        {
          "name": "E5",
          "midi": 76,
          "time": 267.2700000000121,
          "velocity": 0.7874015748031497,
          "duration": 0.0007375000000138243
        },
        {
          "name": "E6",
          "midi": 88,
          "time": 267.2700000000121,
          "velocity": 0.7874015748031497,
          "duration": 0.0007375000000138243
        },
        {
          "name": "E7",
          "midi": 100,
          "time": 267.2700000000121,
          "velocity": 0.7874015748031497,
          "duration": 0.0007375000000138243
        },
        {
          "name": "E7",
          "midi": 100,
          "time": 267.4470000000121,
          "velocity": 0.7874015748031497,
          "duration": 0.0007375000000138243
        },
        {
          "name": "E4",
          "midi": 64,
          "time": 267.62400000001213,
          "velocity": 0.7874015748031497,
          "duration": 0.0007375000000138243
        },
        {
          "name": "C5",
          "midi": 72,
          "time": 267.62400000001213,
          "velocity": 0.7874015748031497,
          "duration": 0.0007375000000138243
        },
        {
          "name": "E5",
          "midi": 76,
          "time": 267.62400000001213,
          "velocity": 0.7874015748031497,
          "duration": 0.0007375000000138243
        },
        {
          "name": "C6",
          "midi": 84,
          "time": 267.62400000001213,
          "velocity": 0.7874015748031497,
          "duration": 0.0007375000000138243
        },
        {
          "name": "E6",
          "midi": 88,
          "time": 267.62400000001213,
          "velocity": 0.7874015748031497,
          "duration": 0.0007375000000138243
        },
        {
          "name": "C7",
          "midi": 96,
          "time": 267.62400000001213,
          "velocity": 0.7874015748031497,
          "duration": 0.0007375000000138243
        },
        {
          "name": "E7",
          "midi": 100,
          "time": 267.62400000001213,
          "velocity": 0.7874015748031497,
          "duration": 0.0007375000000138243
        },
        {
          "name": "E7",
          "midi": 100,
          "time": 267.80100000001215,
          "velocity": 0.7874015748031497,
          "duration": 0.0007375000000138243
        },
        {
          "name": "C#4",
          "midi": 61,
          "time": 267.9780000000122,
          "velocity": 0.7874015748031497,
          "duration": 0.0007375000000138243
        },
        {
          "name": "C#5",
          "midi": 73,
          "time": 267.9780000000122,
          "velocity": 0.7874015748031497,
          "duration": 0.0007375000000138243
        },
        {
          "name": "E5",
          "midi": 76,
          "time": 267.9780000000122,
          "velocity": 0.7874015748031497,
          "duration": 0.0007375000000138243
        },
        {
          "name": "C#6",
          "midi": 85,
          "time": 267.9780000000122,
          "velocity": 0.7874015748031497,
          "duration": 0.0007375000000138243
        },
        {
          "name": "E6",
          "midi": 88,
          "time": 267.9780000000122,
          "velocity": 0.7874015748031497,
          "duration": 0.0007375000000138243
        },
        {
          "name": "C#7",
          "midi": 97,
          "time": 267.9780000000122,
          "velocity": 0.7874015748031497,
          "duration": 0.0007375000000138243
        },
        {
          "name": "E7",
          "midi": 100,
          "time": 267.9780000000122,
          "velocity": 0.7874015748031497,
          "duration": 0.0007375000000138243
        },
        {
          "name": "E7",
          "midi": 100,
          "time": 268.1550000000122,
          "velocity": 0.7874015748031497,
          "duration": 0.0007375000000138243
        },
        {
          "name": "E4",
          "midi": 64,
          "time": 268.3320000000122,
          "velocity": 0.7874015748031497,
          "duration": 0.0007375000000138243
        },
        {
          "name": "E5",
          "midi": 76,
          "time": 268.3320000000122,
          "velocity": 0.7874015748031497,
          "duration": 0.0007375000000138243
        },
        {
          "name": "C6",
          "midi": 84,
          "time": 268.3320000000122,
          "velocity": 0.7874015748031497,
          "duration": 0.0007375000000138243
        },
        {
          "name": "E6",
          "midi": 88,
          "time": 268.3320000000122,
          "velocity": 0.7874015748031497,
          "duration": 0.0007375000000138243
        },
        {
          "name": "C7",
          "midi": 96,
          "time": 268.3320000000122,
          "velocity": 0.7874015748031497,
          "duration": 0.0007375000000138243
        },
        {
          "name": "E7",
          "midi": 100,
          "time": 268.3320000000122,
          "velocity": 0.7874015748031497,
          "duration": 0.0007375000000138243
        },
        {
          "name": "E7",
          "midi": 100,
          "time": 268.50900000001224,
          "velocity": 0.7874015748031497,
          "duration": 0.0007375000000138243
        },
        {
          "name": "E4",
          "midi": 64,
          "time": 268.68600000001226,
          "velocity": 0.7874015748031497,
          "duration": 0.0007375000000138243
        },
        {
          "name": "C5",
          "midi": 72,
          "time": 268.68600000001226,
          "velocity": 0.7874015748031497,
          "duration": 0.0007375000000138243
        },
        {
          "name": "E5",
          "midi": 76,
          "time": 268.68600000001226,
          "velocity": 0.7874015748031497,
          "duration": 0.0007375000000138243
        },
        {
          "name": "C6",
          "midi": 84,
          "time": 268.68600000001226,
          "velocity": 0.7874015748031497,
          "duration": 0.0007375000000138243
        },
        {
          "name": "E6",
          "midi": 88,
          "time": 268.68600000001226,
          "velocity": 0.7874015748031497,
          "duration": 0.0007375000000138243
        },
        {
          "name": "C7",
          "midi": 96,
          "time": 268.68600000001226,
          "velocity": 0.7874015748031497,
          "duration": 0.0007375000000138243
        },
        {
          "name": "E7",
          "midi": 100,
          "time": 268.68600000001226,
          "velocity": 0.7874015748031497,
          "duration": 0.0007375000000138243
        },
        {
          "name": "E7",
          "midi": 100,
          "time": 268.8630000000123,
          "velocity": 0.7874015748031497,
          "duration": 0.0007375000000138243
        },
        {
          "name": "C#4",
          "midi": 61,
          "time": 269.0400000000123,
          "velocity": 0.7874015748031497,
          "duration": 0.0007375000000138243
        },
        {
          "name": "C#5",
          "midi": 73,
          "time": 269.0400000000123,
          "velocity": 0.7874015748031497,
          "duration": 0.0007375000000138243
        },
        {
          "name": "C#6",
          "midi": 85,
          "time": 269.0400000000123,
          "velocity": 0.7874015748031497,
          "duration": 0.0007375000000138243
        },
        {
          "name": "C#7",
          "midi": 97,
          "time": 269.0400000000123,
          "velocity": 0.7874015748031497,
          "duration": 0.0007375000000138243
        },
        {
          "name": "C#6",
          "midi": 85,
          "time": 269.1292375000123,
          "velocity": 0.7874015748031497,
          "duration": 0.0007375000000138243
        },
        {
          "name": "C#7",
          "midi": 97,
          "time": 269.1292375000123,
          "velocity": 0.7874015748031497,
          "duration": 0.0007375000000138243
        },
        {
          "name": "C#4",
          "midi": 61,
          "time": 269.2170000000123,
          "velocity": 0.7874015748031497,
          "duration": 0.0007375000000138243
        },
        {
          "name": "C#5",
          "midi": 73,
          "time": 269.2170000000123,
          "velocity": 0.7874015748031497,
          "duration": 0.0007375000000138243
        },
        {
          "name": "C#6",
          "midi": 85,
          "time": 269.2170000000123,
          "velocity": 0.7874015748031497,
          "duration": 0.0007375000000138243
        },
        {
          "name": "C#7",
          "midi": 97,
          "time": 269.2170000000123,
          "velocity": 0.7874015748031497,
          "duration": 0.0007375000000138243
        },
        {
          "name": "C#4",
          "midi": 61,
          "time": 269.39400000001234,
          "velocity": 0.7874015748031497,
          "duration": 0.0007375000000138243
        },
        {
          "name": "C#5",
          "midi": 73,
          "time": 269.39400000001234,
          "velocity": 0.7874015748031497,
          "duration": 0.0007375000000138243
        },
        {
          "name": "C#6",
          "midi": 85,
          "time": 269.39400000001234,
          "velocity": 0.7874015748031497,
          "duration": 0.0007375000000138243
        },
        {
          "name": "C#7",
          "midi": 97,
          "time": 269.39400000001234,
          "velocity": 0.7874015748031497,
          "duration": 0.0007375000000138243
        },
        {
          "name": "D4",
          "midi": 62,
          "time": 269.57026250001235,
          "velocity": 0.7874015748031497,
          "duration": 0.0007375000000138243
        },
        {
          "name": "C5",
          "midi": 72,
          "time": 269.57026250001235,
          "velocity": 0.7874015748031497,
          "duration": 0.0007375000000138243
        },
        {
          "name": "D5",
          "midi": 74,
          "time": 269.57026250001235,
          "velocity": 0.7874015748031497,
          "duration": 0.0007375000000138243
        },
        {
          "name": "C6",
          "midi": 84,
          "time": 269.57026250001235,
          "velocity": 0.7874015748031497,
          "duration": 0.0007375000000138243
        },
        {
          "name": "D6",
          "midi": 86,
          "time": 269.57026250001235,
          "velocity": 0.7874015748031497,
          "duration": 0.0007375000000138243
        },
        {
          "name": "C7",
          "midi": 96,
          "time": 269.57026250001235,
          "velocity": 0.7874015748031497,
          "duration": 0.0007375000000138243
        },
        {
          "name": "E7",
          "midi": 100,
          "time": 269.57026250001235,
          "velocity": 0.7874015748031497,
          "duration": 0.0007375000000138243
        },
        {
          "name": "D4",
          "midi": 62,
          "time": 270.10200000001237,
          "velocity": 0.7874015748031497,
          "duration": 0.0007375000000138243
        },
        {
          "name": "C5",
          "midi": 72,
          "time": 270.10200000001237,
          "velocity": 0.7874015748031497,
          "duration": 0.0007375000000138243
        },
        {
          "name": "D5",
          "midi": 74,
          "time": 270.10200000001237,
          "velocity": 0.7874015748031497,
          "duration": 0.0007375000000138243
        },
        {
          "name": "C6",
          "midi": 84,
          "time": 270.10200000001237,
          "velocity": 0.7874015748031497,
          "duration": 0.0007375000000138243
        },
        {
          "name": "D6",
          "midi": 86,
          "time": 270.10200000001237,
          "velocity": 0.7874015748031497,
          "duration": 0.0007375000000138243
        },
        {
          "name": "C7",
          "midi": 96,
          "time": 270.10200000001237,
          "velocity": 0.7874015748031497,
          "duration": 0.0007375000000138243
        },
        {
          "name": "D7",
          "midi": 98,
          "time": 270.10200000001237,
          "velocity": 0.7874015748031497,
          "duration": 0.0007375000000138243
        },
        {
          "name": "D4",
          "midi": 62,
          "time": 270.8100000000124,
          "velocity": 0.7874015748031497,
          "duration": 0.0007375000000138243
        },
        {
          "name": "C5",
          "midi": 72,
          "time": 270.8100000000124,
          "velocity": 0.7874015748031497,
          "duration": 0.0007375000000138243
        },
        {
          "name": "D5",
          "midi": 74,
          "time": 270.8100000000124,
          "velocity": 0.7874015748031497,
          "duration": 0.0007375000000138243
        },
        {
          "name": "C6",
          "midi": 84,
          "time": 270.8100000000124,
          "velocity": 0.7874015748031497,
          "duration": 0.0007375000000138243
        },
        {
          "name": "D6",
          "midi": 86,
          "time": 270.8100000000124,
          "velocity": 0.7874015748031497,
          "duration": 0.0007375000000138243
        },
        {
          "name": "C7",
          "midi": 96,
          "time": 270.8100000000124,
          "velocity": 0.7874015748031497,
          "duration": 0.0007375000000138243
        },
        {
          "name": "E7",
          "midi": 100,
          "time": 270.8100000000124,
          "velocity": 0.7874015748031497,
          "duration": 0.0007375000000138243
        },
        {
          "name": "D4",
          "midi": 62,
          "time": 271.5180000000124,
          "velocity": 0.7874015748031497,
          "duration": 0.0007375000000138243
        },
        {
          "name": "C5",
          "midi": 72,
          "time": 271.5180000000124,
          "velocity": 0.7874015748031497,
          "duration": 0.0007375000000138243
        },
        {
          "name": "D5",
          "midi": 74,
          "time": 271.5180000000124,
          "velocity": 0.7874015748031497,
          "duration": 0.0007375000000138243
        },
        {
          "name": "C6",
          "midi": 84,
          "time": 271.5180000000124,
          "velocity": 0.7874015748031497,
          "duration": 0.0007375000000138243
        },
        {
          "name": "D6",
          "midi": 86,
          "time": 271.5180000000124,
          "velocity": 0.7874015748031497,
          "duration": 0.0007375000000138243
        },
        {
          "name": "C7",
          "midi": 96,
          "time": 271.5180000000124,
          "velocity": 0.7874015748031497,
          "duration": 0.0007375000000138243
        },
        {
          "name": "D7",
          "midi": 98,
          "time": 271.5180000000124,
          "velocity": 0.7874015748031497,
          "duration": 0.0007375000000138243
        },
        {
          "name": "E4",
          "midi": 64,
          "time": 271.87200000001246,
          "velocity": 0.7874015748031497,
          "duration": 0.0007375000000138243
        },
        {
          "name": "C5",
          "midi": 72,
          "time": 271.87200000001246,
          "velocity": 0.7874015748031497,
          "duration": 0.0007375000000138243
        },
        {
          "name": "E5",
          "midi": 76,
          "time": 271.87200000001246,
          "velocity": 0.7874015748031497,
          "duration": 0.0007375000000138243
        },
        {
          "name": "C6",
          "midi": 84,
          "time": 271.87200000001246,
          "velocity": 0.7874015748031497,
          "duration": 0.0007375000000138243
        },
        {
          "name": "E6",
          "midi": 88,
          "time": 271.87200000001246,
          "velocity": 0.7874015748031497,
          "duration": 0.0007375000000138243
        },
        {
          "name": "C7",
          "midi": 96,
          "time": 271.87200000001246,
          "velocity": 0.7874015748031497,
          "duration": 0.0007375000000138243
        },
        {
          "name": "E7",
          "midi": 100,
          "time": 271.87200000001246,
          "velocity": 0.7874015748031497,
          "duration": 0.0007375000000138243
        },
        {
          "name": "C#4",
          "midi": 61,
          "time": 272.2260000000125,
          "velocity": 0.7874015748031497,
          "duration": 0.0007375000000138243
        },
        {
          "name": "C#5",
          "midi": 73,
          "time": 272.2260000000125,
          "velocity": 0.7874015748031497,
          "duration": 0.0007375000000138243
        },
        {
          "name": "E5",
          "midi": 76,
          "time": 272.2260000000125,
          "velocity": 0.7874015748031497,
          "duration": 0.0007375000000138243
        },
        {
          "name": "C#6",
          "midi": 85,
          "time": 272.2260000000125,
          "velocity": 0.7874015748031497,
          "duration": 0.0007375000000138243
        },
        {
          "name": "E6",
          "midi": 88,
          "time": 272.2260000000125,
          "velocity": 0.7874015748031497,
          "duration": 0.0007375000000138243
        },
        {
          "name": "C#7",
          "midi": 97,
          "time": 272.2260000000125,
          "velocity": 0.7874015748031497,
          "duration": 0.0007375000000138243
        },
        {
          "name": "E7",
          "midi": 100,
          "time": 272.2260000000125,
          "velocity": 0.7874015748031497,
          "duration": 0.0007375000000138243
        },
        {
          "name": "E7",
          "midi": 100,
          "time": 272.4030000000125,
          "velocity": 0.7874015748031497,
          "duration": 0.0007375000000138243
        },
        {
          "name": "E4",
          "midi": 64,
          "time": 272.58000000001255,
          "velocity": 0.7874015748031497,
          "duration": 0.0007375000000138243
        },
        {
          "name": "C5",
          "midi": 72,
          "time": 272.58000000001255,
          "velocity": 0.7874015748031497,
          "duration": 0.0007375000000138243
        },
        {
          "name": "E5",
          "midi": 76,
          "time": 272.58000000001255,
          "velocity": 0.7874015748031497,
          "duration": 0.0007375000000138243
        },
        {
          "name": "C6",
          "midi": 84,
          "time": 272.58000000001255,
          "velocity": 0.7874015748031497,
          "duration": 0.0007375000000138243
        },
        {
          "name": "E6",
          "midi": 88,
          "time": 272.58000000001255,
          "velocity": 0.7874015748031497,
          "duration": 0.0007375000000138243
        },
        {
          "name": "C7",
          "midi": 96,
          "time": 272.58000000001255,
          "velocity": 0.7874015748031497,
          "duration": 0.0007375000000138243
        },
        {
          "name": "E7",
          "midi": 100,
          "time": 272.58000000001255,
          "velocity": 0.7874015748031497,
          "duration": 0.0007375000000138243
        },
        {
          "name": "C6",
          "midi": 84,
          "time": 272.75626250001255,
          "velocity": 0.7874015748031497,
          "duration": 0.0007375000000138243
        },
        {
          "name": "C7",
          "midi": 96,
          "time": 272.75626250001255,
          "velocity": 0.7874015748031497,
          "duration": 0.0007375000000138243
        },
        {
          "name": "E7",
          "midi": 100,
          "time": 272.75626250001255,
          "velocity": 0.7874015748031497,
          "duration": 0.0007375000000138243
        },
        {
          "name": "E4",
          "midi": 64,
          "time": 272.9340000000126,
          "velocity": 0.7874015748031497,
          "duration": 0.0007375000000138243
        },
        {
          "name": "E5",
          "midi": 76,
          "time": 272.9340000000126,
          "velocity": 0.7874015748031497,
          "duration": 0.0007375000000138243
        },
        {
          "name": "E6",
          "midi": 88,
          "time": 272.9340000000126,
          "velocity": 0.7874015748031497,
          "duration": 0.0007375000000138243
        },
        {
          "name": "E7",
          "midi": 100,
          "time": 272.9340000000126,
          "velocity": 0.7874015748031497,
          "duration": 0.0007375000000138243
        },
        {
          "name": "E7",
          "midi": 100,
          "time": 273.1110000000126,
          "velocity": 0.7874015748031497,
          "duration": 0.0007375000000138243
        },
        {
          "name": "E4",
          "midi": 64,
          "time": 273.28800000001263,
          "velocity": 0.7874015748031497,
          "duration": 0.0007375000000138243
        },
        {
          "name": "C5",
          "midi": 72,
          "time": 273.28800000001263,
          "velocity": 0.7874015748031497,
          "duration": 0.0007375000000138243
        },
        {
          "name": "E5",
          "midi": 76,
          "time": 273.28800000001263,
          "velocity": 0.7874015748031497,
          "duration": 0.0007375000000138243
        },
        {
          "name": "C6",
          "midi": 84,
          "time": 273.28800000001263,
          "velocity": 0.7874015748031497,
          "duration": 0.0007375000000138243
        },
        {
          "name": "E6",
          "midi": 88,
          "time": 273.28800000001263,
          "velocity": 0.7874015748031497,
          "duration": 0.0007375000000138243
        },
        {
          "name": "C7",
          "midi": 96,
          "time": 273.28800000001263,
          "velocity": 0.7874015748031497,
          "duration": 0.0007375000000138243
        },
        {
          "name": "E7",
          "midi": 100,
          "time": 273.28800000001263,
          "velocity": 0.7874015748031497,
          "duration": 0.0007375000000138243
        },
        {
          "name": "E7",
          "midi": 100,
          "time": 273.46573750001266,
          "velocity": 0.7874015748031497,
          "duration": 0.0007375000000138243
        },
        {
          "name": "C#4",
          "midi": 61,
          "time": 273.6420000000127,
          "velocity": 0.7874015748031497,
          "duration": 0.0007375000000138243
        },
        {
          "name": "C#5",
          "midi": 73,
          "time": 273.6420000000127,
          "velocity": 0.7874015748031497,
          "duration": 0.0007375000000138243
        },
        {
          "name": "E5",
          "midi": 76,
          "time": 273.6420000000127,
          "velocity": 0.7874015748031497,
          "duration": 0.0007375000000138243
        },
        {
          "name": "C#6",
          "midi": 85,
          "time": 273.6420000000127,
          "velocity": 0.7874015748031497,
          "duration": 0.0007375000000138243
        },
        {
          "name": "E6",
          "midi": 88,
          "time": 273.6420000000127,
          "velocity": 0.7874015748031497,
          "duration": 0.0007375000000138243
        },
        {
          "name": "C#7",
          "midi": 97,
          "time": 273.6420000000127,
          "velocity": 0.7874015748031497,
          "duration": 0.0007375000000138243
        },
        {
          "name": "E7",
          "midi": 100,
          "time": 273.6420000000127,
          "velocity": 0.7874015748031497,
          "duration": 0.0007375000000138243
        },
        {
          "name": "E7",
          "midi": 100,
          "time": 273.8197375000127,
          "velocity": 0.7874015748031497,
          "duration": 0.0007375000000138243
        },
        {
          "name": "D4",
          "midi": 62,
          "time": 273.9960000000127,
          "velocity": 0.7874015748031497,
          "duration": 0.0007375000000138243
        },
        {
          "name": "C5",
          "midi": 72,
          "time": 273.9960000000127,
          "velocity": 0.7874015748031497,
          "duration": 0.0007375000000138243
        },
        {
          "name": "D5",
          "midi": 74,
          "time": 273.9960000000127,
          "velocity": 0.7874015748031497,
          "duration": 0.0007375000000138243
        },
        {
          "name": "C6",
          "midi": 84,
          "time": 273.9960000000127,
          "velocity": 0.7874015748031497,
          "duration": 0.0007375000000138243
        },
        {
          "name": "D6",
          "midi": 86,
          "time": 273.9960000000127,
          "velocity": 0.7874015748031497,
          "duration": 0.0007375000000138243
        },
        {
          "name": "C7",
          "midi": 96,
          "time": 273.9960000000127,
          "velocity": 0.7874015748031497,
          "duration": 0.0007375000000138243
        },
        {
          "name": "D7",
          "midi": 98,
          "time": 273.9960000000127,
          "velocity": 0.7874015748031497,
          "duration": 0.0007375000000138243
        },
        {
          "name": "C7",
          "midi": 96,
          "time": 274.2622375000127,
          "velocity": 0.7874015748031497,
          "duration": 0.0007375000000138243
        },
        {
          "name": "C#4",
          "midi": 61,
          "time": 274.3500000000127,
          "velocity": 0.7874015748031497,
          "duration": 0.0007375000000138243
        },
        {
          "name": "C#5",
          "midi": 73,
          "time": 274.3500000000127,
          "velocity": 0.7874015748031497,
          "duration": 0.0007375000000138243
        },
        {
          "name": "D5",
          "midi": 74,
          "time": 274.3500000000127,
          "velocity": 0.7874015748031497,
          "duration": 0.0007375000000138243
        },
        {
          "name": "C#6",
          "midi": 85,
          "time": 274.3500000000127,
          "velocity": 0.7874015748031497,
          "duration": 0.0007375000000138243
        },
        {
          "name": "D6",
          "midi": 86,
          "time": 274.3500000000127,
          "velocity": 0.7874015748031497,
          "duration": 0.0007375000000138243
        },
        {
          "name": "C#7",
          "midi": 97,
          "time": 274.3500000000127,
          "velocity": 0.7874015748031497,
          "duration": 0.0007375000000138243
        },
        {
          "name": "D7",
          "midi": 98,
          "time": 274.3500000000127,
          "velocity": 0.7874015748031497,
          "duration": 0.0007375000000138243
        },
        {
          "name": "C6",
          "midi": 84,
          "time": 274.52773750001273,
          "velocity": 0.7874015748031497,
          "duration": 0.0007375000000138243
        },
        {
          "name": "C7",
          "midi": 96,
          "time": 274.52773750001273,
          "velocity": 0.7874015748031497,
          "duration": 0.0007375000000138243
        },
        {
          "name": "D4",
          "midi": 62,
          "time": 274.70400000001274,
          "velocity": 0.7874015748031497,
          "duration": 0.0007375000000138243
        },
        {
          "name": "C5",
          "midi": 72,
          "time": 274.70400000001274,
          "velocity": 0.7874015748031497,
          "duration": 0.0007375000000138243
        },
        {
          "name": "D5",
          "midi": 74,
          "time": 274.70400000001274,
          "velocity": 0.7874015748031497,
          "duration": 0.0007375000000138243
        },
        {
          "name": "C6",
          "midi": 84,
          "time": 274.70400000001274,
          "velocity": 0.7874015748031497,
          "duration": 0.0007375000000138243
        },
        {
          "name": "D6",
          "midi": 86,
          "time": 274.70400000001274,
          "velocity": 0.7874015748031497,
          "duration": 0.0007375000000138243
        },
        {
          "name": "C7",
          "midi": 96,
          "time": 274.70400000001274,
          "velocity": 0.7874015748031497,
          "duration": 0.0007375000000138243
        },
        {
          "name": "D7",
          "midi": 98,
          "time": 274.70400000001274,
          "velocity": 0.7874015748031497,
          "duration": 0.0007375000000138243
        },
        {
          "name": "C7",
          "midi": 96,
          "time": 274.97023750001273,
          "velocity": 0.7874015748031497,
          "duration": 0.0007375000000138243
        },
        {
          "name": "C#4",
          "midi": 61,
          "time": 275.0580000000127,
          "velocity": 0.7874015748031497,
          "duration": 0.0007375000000138243
        },
        {
          "name": "C#5",
          "midi": 73,
          "time": 275.0580000000127,
          "velocity": 0.7874015748031497,
          "duration": 0.0007375000000138243
        },
        {
          "name": "C#6",
          "midi": 85,
          "time": 275.0580000000127,
          "velocity": 0.7874015748031497,
          "duration": 0.0007375000000138243
        },
        {
          "name": "D6",
          "midi": 86,
          "time": 275.0580000000127,
          "velocity": 0.7874015748031497,
          "duration": 0.0007375000000138243
        },
        {
          "name": "C#7",
          "midi": 97,
          "time": 275.0580000000127,
          "velocity": 0.7874015748031497,
          "duration": 0.0007375000000138243
        },
        {
          "name": "D7",
          "midi": 98,
          "time": 275.0580000000127,
          "velocity": 0.7874015748031497,
          "duration": 0.0007375000000138243
        },
        {
          "name": "D4",
          "midi": 62,
          "time": 275.23573750001276,
          "velocity": 0.7874015748031497,
          "duration": 0.0007375000000138243
        },
        {
          "name": "C5",
          "midi": 72,
          "time": 275.23573750001276,
          "velocity": 0.7874015748031497,
          "duration": 0.0007375000000138243
        },
        {
          "name": "D5",
          "midi": 74,
          "time": 275.23573750001276,
          "velocity": 0.7874015748031497,
          "duration": 0.0007375000000138243
        },
        {
          "name": "C6",
          "midi": 84,
          "time": 275.23573750001276,
          "velocity": 0.7874015748031497,
          "duration": 0.0007375000000138243
        },
        {
          "name": "D6",
          "midi": 86,
          "time": 275.23573750001276,
          "velocity": 0.7874015748031497,
          "duration": 0.0007375000000138243
        },
        {
          "name": "C7",
          "midi": 96,
          "time": 275.23573750001276,
          "velocity": 0.7874015748031497,
          "duration": 0.0007375000000138243
        },
        {
          "name": "D7",
          "midi": 98,
          "time": 275.23573750001276,
          "velocity": 0.7874015748031497,
          "duration": 0.0007375000000138243
        },
        {
          "name": "E4",
          "midi": 64,
          "time": 275.76600000001275,
          "velocity": 0.7874015748031497,
          "duration": 0.0007375000000138243
        },
        {
          "name": "C5",
          "midi": 72,
          "time": 275.76600000001275,
          "velocity": 0.7874015748031497,
          "duration": 0.0007375000000138243
        },
        {
          "name": "E5",
          "midi": 76,
          "time": 275.76600000001275,
          "velocity": 0.7874015748031497,
          "duration": 0.0007375000000138243
        },
        {
          "name": "C6",
          "midi": 84,
          "time": 275.76600000001275,
          "velocity": 0.7874015748031497,
          "duration": 0.0007375000000138243
        },
        {
          "name": "E6",
          "midi": 88,
          "time": 275.76600000001275,
          "velocity": 0.7874015748031497,
          "duration": 0.0007375000000138243
        },
        {
          "name": "C7",
          "midi": 96,
          "time": 275.76600000001275,
          "velocity": 0.7874015748031497,
          "duration": 0.0007375000000138243
        },
        {
          "name": "E7",
          "midi": 100,
          "time": 275.76600000001275,
          "velocity": 0.7874015748031497,
          "duration": 0.0007375000000138243
        },
        {
          "name": "E7",
          "midi": 100,
          "time": 275.9430000000128,
          "velocity": 0.7874015748031497,
          "duration": 0.0007375000000138243
        },
        {
          "name": "C#4",
          "midi": 61,
          "time": 276.1200000000128,
          "velocity": 0.7874015748031497,
          "duration": 0.0007375000000138243
        },
        {
          "name": "C#5",
          "midi": 73,
          "time": 276.1200000000128,
          "velocity": 0.7874015748031497,
          "duration": 0.0007375000000138243
        },
        {
          "name": "E5",
          "midi": 76,
          "time": 276.1200000000128,
          "velocity": 0.7874015748031497,
          "duration": 0.0007375000000138243
        },
        {
          "name": "C#6",
          "midi": 85,
          "time": 276.1200000000128,
          "velocity": 0.7874015748031497,
          "duration": 0.0007375000000138243
        },
        {
          "name": "E6",
          "midi": 88,
          "time": 276.1200000000128,
          "velocity": 0.7874015748031497,
          "duration": 0.0007375000000138243
        },
        {
          "name": "C#7",
          "midi": 97,
          "time": 276.1200000000128,
          "velocity": 0.7874015748031497,
          "duration": 0.0007375000000138243
        },
        {
          "name": "E7",
          "midi": 100,
          "time": 276.1200000000128,
          "velocity": 0.7874015748031497,
          "duration": 0.0007375000000138243
        },
        {
          "name": "E7",
          "midi": 100,
          "time": 276.2962625000128,
          "velocity": 0.7874015748031497,
          "duration": 0.0007375000000138243
        },
        {
          "name": "D4",
          "midi": 62,
          "time": 276.47400000001284,
          "velocity": 0.7874015748031497,
          "duration": 0.0007375000000138243
        },
        {
          "name": "C5",
          "midi": 72,
          "time": 276.47400000001284,
          "velocity": 0.7874015748031497,
          "duration": 0.0007375000000138243
        },
        {
          "name": "D5",
          "midi": 74,
          "time": 276.47400000001284,
          "velocity": 0.7874015748031497,
          "duration": 0.0007375000000138243
        },
        {
          "name": "C6",
          "midi": 84,
          "time": 276.47400000001284,
          "velocity": 0.7874015748031497,
          "duration": 0.0007375000000138243
        },
        {
          "name": "D6",
          "midi": 86,
          "time": 276.47400000001284,
          "velocity": 0.7874015748031497,
          "duration": 0.0007375000000138243
        },
        {
          "name": "C7",
          "midi": 96,
          "time": 276.47400000001284,
          "velocity": 0.7874015748031497,
          "duration": 0.0007375000000138243
        },
        {
          "name": "D7",
          "midi": 98,
          "time": 276.47400000001284,
          "velocity": 0.7874015748031497,
          "duration": 0.0007375000000138243
        },
        {
          "name": "C7",
          "midi": 96,
          "time": 276.73950000001287,
          "velocity": 0.7874015748031497,
          "duration": 0.0007375000000138243
        },
        {
          "name": "C#4",
          "midi": 61,
          "time": 276.8280000000129,
          "velocity": 0.7874015748031497,
          "duration": 0.0007375000000138243
        },
        {
          "name": "C#5",
          "midi": 73,
          "time": 276.8280000000129,
          "velocity": 0.7874015748031497,
          "duration": 0.0007375000000138243
        },
        {
          "name": "D5",
          "midi": 74,
          "time": 276.8280000000129,
          "velocity": 0.7874015748031497,
          "duration": 0.0007375000000138243
        },
        {
          "name": "C#6",
          "midi": 85,
          "time": 276.8280000000129,
          "velocity": 0.7874015748031497,
          "duration": 0.0007375000000138243
        },
        {
          "name": "D6",
          "midi": 86,
          "time": 276.8280000000129,
          "velocity": 0.7874015748031497,
          "duration": 0.0007375000000138243
        },
        {
          "name": "C#7",
          "midi": 97,
          "time": 276.8280000000129,
          "velocity": 0.7874015748031497,
          "duration": 0.0007375000000138243
        },
        {
          "name": "D7",
          "midi": 98,
          "time": 276.8280000000129,
          "velocity": 0.7874015748031497,
          "duration": 0.0007375000000138243
        },
        {
          "name": "D4",
          "midi": 62,
          "time": 277.1820000000129,
          "velocity": 0.7874015748031497,
          "duration": 0.0007375000000138243
        },
        {
          "name": "C5",
          "midi": 72,
          "time": 277.1820000000129,
          "velocity": 0.7874015748031497,
          "duration": 0.0007375000000138243
        },
        {
          "name": "D5",
          "midi": 74,
          "time": 277.1820000000129,
          "velocity": 0.7874015748031497,
          "duration": 0.0007375000000138243
        },
        {
          "name": "C6",
          "midi": 84,
          "time": 277.1820000000129,
          "velocity": 0.7874015748031497,
          "duration": 0.0007375000000138243
        },
        {
          "name": "D6",
          "midi": 86,
          "time": 277.1820000000129,
          "velocity": 0.7874015748031497,
          "duration": 0.0007375000000138243
        },
        {
          "name": "C7",
          "midi": 96,
          "time": 277.1820000000129,
          "velocity": 0.7874015748031497,
          "duration": 0.0007375000000138243
        },
        {
          "name": "D7",
          "midi": 98,
          "time": 277.1820000000129,
          "velocity": 0.7874015748031497,
          "duration": 0.0007375000000138243
        },
        {
          "name": "C7",
          "midi": 96,
          "time": 277.44750000001295,
          "velocity": 0.7874015748031497,
          "duration": 0.0007375000000138243
        },
        {
          "name": "C#4",
          "midi": 61,
          "time": 277.53600000001296,
          "velocity": 0.7874015748031497,
          "duration": 0.0007375000000138243
        },
        {
          "name": "C#5",
          "midi": 73,
          "time": 277.53600000001296,
          "velocity": 0.7874015748031497,
          "duration": 0.0007375000000138243
        },
        {
          "name": "C#6",
          "midi": 85,
          "time": 277.53600000001296,
          "velocity": 0.7874015748031497,
          "duration": 0.0007375000000138243
        },
        {
          "name": "D6",
          "midi": 86,
          "time": 277.53600000001296,
          "velocity": 0.7874015748031497,
          "duration": 0.0007375000000138243
        },
        {
          "name": "C#7",
          "midi": 97,
          "time": 277.53600000001296,
          "velocity": 0.7874015748031497,
          "duration": 0.0007375000000138243
        },
        {
          "name": "D7",
          "midi": 98,
          "time": 277.53600000001296,
          "velocity": 0.7874015748031497,
          "duration": 0.0007375000000138243
        },
        {
          "name": "D4",
          "midi": 62,
          "time": 277.713000000013,
          "velocity": 0.7874015748031497,
          "duration": 0.0007375000000138243
        },
        {
          "name": "C5",
          "midi": 72,
          "time": 277.713000000013,
          "velocity": 0.7874015748031497,
          "duration": 0.0007375000000138243
        },
        {
          "name": "D5",
          "midi": 74,
          "time": 277.713000000013,
          "velocity": 0.7874015748031497,
          "duration": 0.0007375000000138243
        },
        {
          "name": "C6",
          "midi": 84,
          "time": 277.713000000013,
          "velocity": 0.7874015748031497,
          "duration": 0.0007375000000138243
        },
        {
          "name": "D6",
          "midi": 86,
          "time": 277.713000000013,
          "velocity": 0.7874015748031497,
          "duration": 0.0007375000000138243
        },
        {
          "name": "C7",
          "midi": 96,
          "time": 277.713000000013,
          "velocity": 0.7874015748031497,
          "duration": 0.0007375000000138243
        },
        {
          "name": "D7",
          "midi": 98,
          "time": 277.713000000013,
          "velocity": 0.7874015748031497,
          "duration": 0.0007375000000138243
        },
        {
          "name": "E4",
          "midi": 64,
          "time": 278.244000000013,
          "velocity": 0.7874015748031497,
          "duration": 0.0007375000000138243
        },
        {
          "name": "C5",
          "midi": 72,
          "time": 278.244000000013,
          "velocity": 0.7874015748031497,
          "duration": 0.0007375000000138243
        },
        {
          "name": "E5",
          "midi": 76,
          "time": 278.244000000013,
          "velocity": 0.7874015748031497,
          "duration": 0.0007375000000138243
        },
        {
          "name": "C6",
          "midi": 84,
          "time": 278.244000000013,
          "velocity": 0.7874015748031497,
          "duration": 0.0007375000000138243
        },
        {
          "name": "E6",
          "midi": 88,
          "time": 278.244000000013,
          "velocity": 0.7874015748031497,
          "duration": 0.0007375000000138243
        },
        {
          "name": "C7",
          "midi": 96,
          "time": 278.244000000013,
          "velocity": 0.7874015748031497,
          "duration": 0.0007375000000138243
        },
        {
          "name": "E7",
          "midi": 100,
          "time": 278.244000000013,
          "velocity": 0.7874015748031497,
          "duration": 0.0007375000000138243
        },
        {
          "name": "E7",
          "midi": 100,
          "time": 278.421000000013,
          "velocity": 0.7874015748031497,
          "duration": 0.0007375000000138243
        },
        {
          "name": "C#4",
          "midi": 61,
          "time": 278.59800000001303,
          "velocity": 0.7874015748031497,
          "duration": 0.0007375000000138243
        },
        {
          "name": "C#5",
          "midi": 73,
          "time": 278.59800000001303,
          "velocity": 0.7874015748031497,
          "duration": 0.0007375000000138243
        },
        {
          "name": "E5",
          "midi": 76,
          "time": 278.59800000001303,
          "velocity": 0.7874015748031497,
          "duration": 0.0007375000000138243
        },
        {
          "name": "C#6",
          "midi": 85,
          "time": 278.59800000001303,
          "velocity": 0.7874015748031497,
          "duration": 0.0007375000000138243
        },
        {
          "name": "E6",
          "midi": 88,
          "time": 278.59800000001303,
          "velocity": 0.7874015748031497,
          "duration": 0.0007375000000138243
        },
        {
          "name": "C#7",
          "midi": 97,
          "time": 278.59800000001303,
          "velocity": 0.7874015748031497,
          "duration": 0.0007375000000138243
        },
        {
          "name": "E7",
          "midi": 100,
          "time": 278.59800000001303,
          "velocity": 0.7874015748031497,
          "duration": 0.0007375000000138243
        },
        {
          "name": "E7",
          "midi": 100,
          "time": 278.77573750001307,
          "velocity": 0.7874015748031497,
          "duration": 0.0007375000000138243
        },
        {
          "name": "D4",
          "midi": 62,
          "time": 278.9520000000131,
          "velocity": 0.7874015748031497,
          "duration": 0.0007375000000138243
        },
        {
          "name": "C5",
          "midi": 72,
          "time": 278.9520000000131,
          "velocity": 0.7874015748031497,
          "duration": 0.0007375000000138243
        },
        {
          "name": "D5",
          "midi": 74,
          "time": 278.9520000000131,
          "velocity": 0.7874015748031497,
          "duration": 0.0007375000000138243
        },
        {
          "name": "C6",
          "midi": 84,
          "time": 278.9520000000131,
          "velocity": 0.7874015748031497,
          "duration": 0.0007375000000138243
        },
        {
          "name": "D6",
          "midi": 86,
          "time": 278.9520000000131,
          "velocity": 0.7874015748031497,
          "duration": 0.0007375000000138243
        },
        {
          "name": "C7",
          "midi": 96,
          "time": 278.9520000000131,
          "velocity": 0.7874015748031497,
          "duration": 0.0007375000000138243
        },
        {
          "name": "D7",
          "midi": 98,
          "time": 278.9520000000131,
          "velocity": 0.7874015748031497,
          "duration": 0.0007375000000138243
        },
        {
          "name": "C7",
          "midi": 96,
          "time": 279.2175000000131,
          "velocity": 0.7874015748031497,
          "duration": 0.0007375000000138243
        },
        {
          "name": "C#4",
          "midi": 61,
          "time": 279.3060000000131,
          "velocity": 0.7874015748031497,
          "duration": 0.0007375000000138243
        },
        {
          "name": "C#5",
          "midi": 73,
          "time": 279.3060000000131,
          "velocity": 0.7874015748031497,
          "duration": 0.0007375000000138243
        },
        {
          "name": "D5",
          "midi": 74,
          "time": 279.3060000000131,
          "velocity": 0.7874015748031497,
          "duration": 0.0007375000000138243
        },
        {
          "name": "C#6",
          "midi": 85,
          "time": 279.3060000000131,
          "velocity": 0.7874015748031497,
          "duration": 0.0007375000000138243
        },
        {
          "name": "D6",
          "midi": 86,
          "time": 279.3060000000131,
          "velocity": 0.7874015748031497,
          "duration": 0.0007375000000138243
        },
        {
          "name": "C#7",
          "midi": 97,
          "time": 279.3060000000131,
          "velocity": 0.7874015748031497,
          "duration": 0.0007375000000138243
        },
        {
          "name": "D7",
          "midi": 98,
          "time": 279.3060000000131,
          "velocity": 0.7874015748031497,
          "duration": 0.0007375000000138243
        },
        {
          "name": "D4",
          "midi": 62,
          "time": 279.66000000001316,
          "velocity": 0.7874015748031497,
          "duration": 0.0007375000000138243
        },
        {
          "name": "C5",
          "midi": 72,
          "time": 279.66000000001316,
          "velocity": 0.7874015748031497,
          "duration": 0.0007375000000138243
        },
        {
          "name": "D5",
          "midi": 74,
          "time": 279.66000000001316,
          "velocity": 0.7874015748031497,
          "duration": 0.0007375000000138243
        },
        {
          "name": "C6",
          "midi": 84,
          "time": 279.66000000001316,
          "velocity": 0.7874015748031497,
          "duration": 0.0007375000000138243
        },
        {
          "name": "D6",
          "midi": 86,
          "time": 279.66000000001316,
          "velocity": 0.7874015748031497,
          "duration": 0.0007375000000138243
        },
        {
          "name": "C7",
          "midi": 96,
          "time": 279.66000000001316,
          "velocity": 0.7874015748031497,
          "duration": 0.0007375000000138243
        },
        {
          "name": "D7",
          "midi": 98,
          "time": 279.66000000001316,
          "velocity": 0.7874015748031497,
          "duration": 0.0007375000000138243
        },
        {
          "name": "C7",
          "midi": 96,
          "time": 279.9255000000132,
          "velocity": 0.7874015748031497,
          "duration": 0.0007375000000138243
        },
        {
          "name": "C#4",
          "midi": 61,
          "time": 280.0140000000132,
          "velocity": 0.7874015748031497,
          "duration": 0.0007375000000138243
        },
        {
          "name": "C#5",
          "midi": 73,
          "time": 280.0140000000132,
          "velocity": 0.7874015748031497,
          "duration": 0.0007375000000138243
        },
        {
          "name": "C#6",
          "midi": 85,
          "time": 280.0140000000132,
          "velocity": 0.7874015748031497,
          "duration": 0.0007375000000138243
        },
        {
          "name": "D6",
          "midi": 86,
          "time": 280.0140000000132,
          "velocity": 0.7874015748031497,
          "duration": 0.0007375000000138243
        },
        {
          "name": "C#7",
          "midi": 97,
          "time": 280.0140000000132,
          "velocity": 0.7874015748031497,
          "duration": 0.0007375000000138243
        },
        {
          "name": "D7",
          "midi": 98,
          "time": 280.0140000000132,
          "velocity": 0.7874015748031497,
          "duration": 0.0007375000000138243
        },
        {
          "name": "D4",
          "midi": 62,
          "time": 280.1910000000132,
          "velocity": 0.7874015748031497,
          "duration": 0.0007375000000138243
        },
        {
          "name": "C5",
          "midi": 72,
          "time": 280.1910000000132,
          "velocity": 0.7874015748031497,
          "duration": 0.0007375000000138243
        },
        {
          "name": "D5",
          "midi": 74,
          "time": 280.1910000000132,
          "velocity": 0.7874015748031497,
          "duration": 0.0007375000000138243
        },
        {
          "name": "C6",
          "midi": 84,
          "time": 280.1910000000132,
          "velocity": 0.7874015748031497,
          "duration": 0.0007375000000138243
        },
        {
          "name": "D6",
          "midi": 86,
          "time": 280.1910000000132,
          "velocity": 0.7874015748031497,
          "duration": 0.0007375000000138243
        },
        {
          "name": "C7",
          "midi": 96,
          "time": 280.1910000000132,
          "velocity": 0.7874015748031497,
          "duration": 0.0007375000000138243
        },
        {
          "name": "D7",
          "midi": 98,
          "time": 280.1910000000132,
          "velocity": 0.7874015748031497,
          "duration": 0.0007375000000138243
        },
        {
          "name": "E4",
          "midi": 64,
          "time": 280.7220000000132,
          "velocity": 0.7874015748031497,
          "duration": 0.0007375000000138243
        },
        {
          "name": "C5",
          "midi": 72,
          "time": 280.7220000000132,
          "velocity": 0.7874015748031497,
          "duration": 0.0007375000000138243
        },
        {
          "name": "E5",
          "midi": 76,
          "time": 280.7220000000132,
          "velocity": 0.7874015748031497,
          "duration": 0.0007375000000138243
        },
        {
          "name": "C6",
          "midi": 84,
          "time": 280.7220000000132,
          "velocity": 0.7874015748031497,
          "duration": 0.0007375000000138243
        },
        {
          "name": "E6",
          "midi": 88,
          "time": 280.7220000000132,
          "velocity": 0.7874015748031497,
          "duration": 0.0007375000000138243
        },
        {
          "name": "C7",
          "midi": 96,
          "time": 280.7220000000132,
          "velocity": 0.7874015748031497,
          "duration": 0.0007375000000138243
        },
        {
          "name": "E7",
          "midi": 100,
          "time": 280.7220000000132,
          "velocity": 0.7874015748031497,
          "duration": 0.0007375000000138243
        },
        {
          "name": "E7",
          "midi": 100,
          "time": 280.89900000001325,
          "velocity": 0.7874015748031497,
          "duration": 0.0007375000000138243
        },
        {
          "name": "C#4",
          "midi": 61,
          "time": 281.07600000001327,
          "velocity": 0.7874015748031497,
          "duration": 0.0007375000000138243
        },
        {
          "name": "C#5",
          "midi": 73,
          "time": 281.07600000001327,
          "velocity": 0.7874015748031497,
          "duration": 0.0007375000000138243
        },
        {
          "name": "E5",
          "midi": 76,
          "time": 281.07600000001327,
          "velocity": 0.7874015748031497,
          "duration": 0.0007375000000138243
        },
        {
          "name": "C#6",
          "midi": 85,
          "time": 281.07600000001327,
          "velocity": 0.7874015748031497,
          "duration": 0.0007375000000138243
        },
        {
          "name": "E6",
          "midi": 88,
          "time": 281.07600000001327,
          "velocity": 0.7874015748031497,
          "duration": 0.0007375000000138243
        },
        {
          "name": "C#7",
          "midi": 97,
          "time": 281.07600000001327,
          "velocity": 0.7874015748031497,
          "duration": 0.0007375000000138243
        },
        {
          "name": "E7",
          "midi": 100,
          "time": 281.07600000001327,
          "velocity": 0.7874015748031497,
          "duration": 0.0007375000000138243
        },
        {
          "name": "E7",
          "midi": 100,
          "time": 281.2530000000133,
          "velocity": 0.7874015748031497,
          "duration": 0.0007375000000138243
        },
        {
          "name": "E4",
          "midi": 64,
          "time": 281.4300000000133,
          "velocity": 0.7874015748031497,
          "duration": 0.0007375000000138243
        },
        {
          "name": "C5",
          "midi": 72,
          "time": 281.4300000000133,
          "velocity": 0.7874015748031497,
          "duration": 0.0007375000000138243
        },
        {
          "name": "E5",
          "midi": 76,
          "time": 281.4300000000133,
          "velocity": 0.7874015748031497,
          "duration": 0.0007375000000138243
        },
        {
          "name": "C6",
          "midi": 84,
          "time": 281.4300000000133,
          "velocity": 0.7874015748031497,
          "duration": 0.0007375000000138243
        },
        {
          "name": "E6",
          "midi": 88,
          "time": 281.4300000000133,
          "velocity": 0.7874015748031497,
          "duration": 0.0007375000000138243
        },
        {
          "name": "C7",
          "midi": 96,
          "time": 281.4300000000133,
          "velocity": 0.7874015748031497,
          "duration": 0.0007375000000138243
        },
        {
          "name": "E7",
          "midi": 100,
          "time": 281.4300000000133,
          "velocity": 0.7874015748031497,
          "duration": 0.0007375000000138243
        },
        {
          "name": "C#7",
          "midi": 97,
          "time": 281.5185000000133,
          "velocity": 0.7874015748031497,
          "duration": 0.0007375000000138243
        },
        {
          "name": "C#4",
          "midi": 61,
          "time": 281.60773750001334,
          "velocity": 0.7874015748031497,
          "duration": 0.0007375000000138243
        },
        {
          "name": "C#5",
          "midi": 73,
          "time": 281.60773750001334,
          "velocity": 0.7874015748031497,
          "duration": 0.0007375000000138243
        },
        {
          "name": "C#6",
          "midi": 85,
          "time": 281.60773750001334,
          "velocity": 0.7874015748031497,
          "duration": 0.0007375000000138243
        },
        {
          "name": "C#7",
          "midi": 97,
          "time": 281.60773750001334,
          "velocity": 0.7874015748031497,
          "duration": 0.0007375000000138243
        },
        {
          "name": "C#7",
          "midi": 97,
          "time": 281.69623750001335,
          "velocity": 0.7874015748031497,
          "duration": 0.0007375000000138243
        },
        {
          "name": "C#4",
          "midi": 61,
          "time": 281.78400000001335,
          "velocity": 0.7874015748031497,
          "duration": 0.0007375000000138243
        },
        {
          "name": "C#5",
          "midi": 73,
          "time": 281.78400000001335,
          "velocity": 0.7874015748031497,
          "duration": 0.0007375000000138243
        },
        {
          "name": "C#6",
          "midi": 85,
          "time": 281.78400000001335,
          "velocity": 0.7874015748031497,
          "duration": 0.0007375000000138243
        },
        {
          "name": "C#7",
          "midi": 97,
          "time": 281.78400000001335,
          "velocity": 0.7874015748031497,
          "duration": 0.0007375000000138243
        },
        {
          "name": "D#7",
          "midi": 99,
          "time": 281.8732375000134,
          "velocity": 0.7874015748031497,
          "duration": 0.0007375000000138243
        },
        {
          "name": "D#4",
          "midi": 63,
          "time": 281.96100000001337,
          "velocity": 0.7874015748031497,
          "duration": 0.0007375000000138243
        },
        {
          "name": "D#5",
          "midi": 75,
          "time": 281.96100000001337,
          "velocity": 0.7874015748031497,
          "duration": 0.0007375000000138243
        },
        {
          "name": "D#6",
          "midi": 87,
          "time": 281.96100000001337,
          "velocity": 0.7874015748031497,
          "duration": 0.0007375000000138243
        },
        {
          "name": "D#7",
          "midi": 99,
          "time": 281.96100000001337,
          "velocity": 0.7874015748031497,
          "duration": 0.0007375000000138243
        },
        {
          "name": "D#7",
          "midi": 99,
          "time": 282.04876250001337,
          "velocity": 0.7874015748031497,
          "duration": 0.0007375000000138243
        },
        {
          "name": "D#4",
          "midi": 63,
          "time": 282.1380000000134,
          "velocity": 0.7874015748031497,
          "duration": 0.0007375000000138243
        },
        {
          "name": "D#5",
          "midi": 75,
          "time": 282.1380000000134,
          "velocity": 0.7874015748031497,
          "duration": 0.0007375000000138243
        },
        {
          "name": "D#6",
          "midi": 87,
          "time": 282.1380000000134,
          "velocity": 0.7874015748031497,
          "duration": 0.0007375000000138243
        },
        {
          "name": "D#7",
          "midi": 99,
          "time": 282.1380000000134,
          "velocity": 0.7874015748031497,
          "duration": 0.0007375000000138243
        },
        {
          "name": "D#7",
          "midi": 99,
          "time": 282.2265000000134,
          "velocity": 0.7874015748031497,
          "duration": 0.0007375000000138243
        },
        {
          "name": "D#4",
          "midi": 63,
          "time": 282.3142625000134,
          "velocity": 0.7874015748031497,
          "duration": 0.0007375000000138243
        },
        {
          "name": "D#5",
          "midi": 75,
          "time": 282.3142625000134,
          "velocity": 0.7874015748031497,
          "duration": 0.0007375000000138243
        },
        {
          "name": "D#6",
          "midi": 87,
          "time": 282.3142625000134,
          "velocity": 0.7874015748031497,
          "duration": 0.0007375000000138243
        },
        {
          "name": "D#7",
          "midi": 99,
          "time": 282.3142625000134,
          "velocity": 0.7874015748031497,
          "duration": 0.0007375000000138243
        },
        {
          "name": "D#7",
          "midi": 99,
          "time": 282.4035000000134,
          "velocity": 0.7874015748031497,
          "duration": 0.0007375000000138243
        },
        {
          "name": "F4",
          "midi": 65,
          "time": 282.49200000001343,
          "velocity": 0.7874015748031497,
          "duration": 0.0007375000000138243
        },
        {
          "name": "F5",
          "midi": 77,
          "time": 282.49200000001343,
          "velocity": 0.7874015748031497,
          "duration": 0.0007375000000138243
        },
        {
          "name": "F6",
          "midi": 89,
          "time": 282.49200000001343,
          "velocity": 0.7874015748031497,
          "duration": 0.0007375000000138243
        },
        {
          "name": "F7",
          "midi": 101,
          "time": 282.49200000001343,
          "velocity": 0.7874015748031497,
          "duration": 0.0007375000000138243
        },
        {
          "name": "F7",
          "midi": 101,
          "time": 282.58050000001344,
          "velocity": 0.7874015748031497,
          "duration": 0.0007375000000138243
        },
        {
          "name": "D4",
          "midi": 62,
          "time": 282.66826250001344,
          "velocity": 0.7874015748031497,
          "duration": 0.0007375000000138243
        },
        {
          "name": "C5",
          "midi": 72,
          "time": 282.66826250001344,
          "velocity": 0.7874015748031497,
          "duration": 0.0007375000000138243
        },
        {
          "name": "D5",
          "midi": 74,
          "time": 282.66826250001344,
          "velocity": 0.7874015748031497,
          "duration": 0.0007375000000138243
        },
        {
          "name": "C6",
          "midi": 84,
          "time": 282.66826250001344,
          "velocity": 0.7874015748031497,
          "duration": 0.0007375000000138243
        },
        {
          "name": "D6",
          "midi": 86,
          "time": 282.66826250001344,
          "velocity": 0.7874015748031497,
          "duration": 0.0007375000000138243
        },
        {
          "name": "C7",
          "midi": 96,
          "time": 282.66826250001344,
          "velocity": 0.7874015748031497,
          "duration": 0.0007375000000138243
        },
        {
          "name": "D7",
          "midi": 98,
          "time": 282.66826250001344,
          "velocity": 0.7874015748031497,
          "duration": 0.0007375000000138243
        },
        {
          "name": "D4",
          "midi": 62,
          "time": 283.20000000001346,
          "velocity": 0.7874015748031497,
          "duration": 0.0007375000000138243
        },
        {
          "name": "C5",
          "midi": 72,
          "time": 283.20000000001346,
          "velocity": 0.7874015748031497,
          "duration": 0.0007375000000138243
        },
        {
          "name": "D5",
          "midi": 74,
          "time": 283.20000000001346,
          "velocity": 0.7874015748031497,
          "duration": 0.0007375000000138243
        },
        {
          "name": "C6",
          "midi": 84,
          "time": 283.20000000001346,
          "velocity": 0.7874015748031497,
          "duration": 0.0007375000000138243
        },
        {
          "name": "D6",
          "midi": 86,
          "time": 283.20000000001346,
          "velocity": 0.7874015748031497,
          "duration": 0.0007375000000138243
        },
        {
          "name": "C7",
          "midi": 96,
          "time": 283.20000000001346,
          "velocity": 0.7874015748031497,
          "duration": 0.0007375000000138243
        },
        {
          "name": "E7",
          "midi": 100,
          "time": 283.20000000001346,
          "velocity": 0.7874015748031497,
          "duration": 0.0007375000000138243
        },
        {
          "name": "D4",
          "midi": 62,
          "time": 283.9080000000135,
          "velocity": 0.7874015748031497,
          "duration": 0.0007375000000138243
        },
        {
          "name": "C5",
          "midi": 72,
          "time": 283.9080000000135,
          "velocity": 0.7874015748031497,
          "duration": 0.0007375000000138243
        },
        {
          "name": "D5",
          "midi": 74,
          "time": 283.9080000000135,
          "velocity": 0.7874015748031497,
          "duration": 0.0007375000000138243
        },
        {
          "name": "C6",
          "midi": 84,
          "time": 283.9080000000135,
          "velocity": 0.7874015748031497,
          "duration": 0.0007375000000138243
        },
        {
          "name": "D6",
          "midi": 86,
          "time": 283.9080000000135,
          "velocity": 0.7874015748031497,
          "duration": 0.0007375000000138243
        },
        {
          "name": "C7",
          "midi": 96,
          "time": 283.9080000000135,
          "velocity": 0.7874015748031497,
          "duration": 0.0007375000000138243
        },
        {
          "name": "D7",
          "midi": 98,
          "time": 283.9080000000135,
          "velocity": 0.7874015748031497,
          "duration": 0.0007375000000138243
        },
        {
          "name": "C#4",
          "midi": 61,
          "time": 284.6160000000135,
          "velocity": 0.7874015748031497,
          "duration": 0.0007375000000138243
        },
        {
          "name": "C#5",
          "midi": 73,
          "time": 284.6160000000135,
          "velocity": 0.7874015748031497,
          "duration": 0.0007375000000138243
        },
        {
          "name": "D5",
          "midi": 74,
          "time": 284.6160000000135,
          "velocity": 0.7874015748031497,
          "duration": 0.0007375000000138243
        },
        {
          "name": "C#6",
          "midi": 85,
          "time": 284.6160000000135,
          "velocity": 0.7874015748031497,
          "duration": 0.0007375000000138243
        },
        {
          "name": "D6",
          "midi": 86,
          "time": 284.6160000000135,
          "velocity": 0.7874015748031497,
          "duration": 0.0007375000000138243
        },
        {
          "name": "C#7",
          "midi": 97,
          "time": 284.6160000000135,
          "velocity": 0.7874015748031497,
          "duration": 0.0007375000000138243
        },
        {
          "name": "D7",
          "midi": 98,
          "time": 284.6160000000135,
          "velocity": 0.7874015748031497,
          "duration": 0.0007375000000138243
        },
        {
          "name": "C6",
          "midi": 84,
          "time": 284.79300000001354,
          "velocity": 0.7874015748031497,
          "duration": 0.0007375000000138243
        },
        {
          "name": "C7",
          "midi": 96,
          "time": 284.79300000001354,
          "velocity": 0.7874015748031497,
          "duration": 0.0007375000000138243
        },
        {
          "name": "C#4",
          "midi": 61,
          "time": 284.97000000001356,
          "velocity": 0.7874015748031497,
          "duration": 0.0007375000000138243
        },
        {
          "name": "C#5",
          "midi": 73,
          "time": 284.97000000001356,
          "velocity": 0.7874015748031497,
          "duration": 0.0007375000000138243
        },
        {
          "name": "D5",
          "midi": 74,
          "time": 284.97000000001356,
          "velocity": 0.7874015748031497,
          "duration": 0.0007375000000138243
        },
        {
          "name": "C#6",
          "midi": 85,
          "time": 284.97000000001356,
          "velocity": 0.7874015748031497,
          "duration": 0.0007375000000138243
        },
        {
          "name": "D6",
          "midi": 86,
          "time": 284.97000000001356,
          "velocity": 0.7874015748031497,
          "duration": 0.0007375000000138243
        },
        {
          "name": "C#7",
          "midi": 97,
          "time": 284.97000000001356,
          "velocity": 0.7874015748031497,
          "duration": 0.0007375000000138243
        },
        {
          "name": "D7",
          "midi": 98,
          "time": 284.97000000001356,
          "velocity": 0.7874015748031497,
          "duration": 0.0007375000000138243
        },
        {
          "name": "C5",
          "midi": 72,
          "time": 285.1470000000136,
          "velocity": 0.7874015748031497,
          "duration": 0.0007375000000138243
        },
        {
          "name": "C6",
          "midi": 84,
          "time": 285.1470000000136,
          "velocity": 0.7874015748031497,
          "duration": 0.0007375000000138243
        },
        {
          "name": "C7",
          "midi": 96,
          "time": 285.1470000000136,
          "velocity": 0.7874015748031497,
          "duration": 0.0007375000000138243
        },
        {
          "name": "C#4",
          "midi": 61,
          "time": 285.3240000000136,
          "velocity": 0.7874015748031497,
          "duration": 0.0007375000000138243
        },
        {
          "name": "C#5",
          "midi": 73,
          "time": 285.3240000000136,
          "velocity": 0.7874015748031497,
          "duration": 0.0007375000000138243
        },
        {
          "name": "D5",
          "midi": 74,
          "time": 285.3240000000136,
          "velocity": 0.7874015748031497,
          "duration": 0.0007375000000138243
        },
        {
          "name": "C#6",
          "midi": 85,
          "time": 285.3240000000136,
          "velocity": 0.7874015748031497,
          "duration": 0.0007375000000138243
        },
        {
          "name": "D6",
          "midi": 86,
          "time": 285.3240000000136,
          "velocity": 0.7874015748031497,
          "duration": 0.0007375000000138243
        },
        {
          "name": "C#7",
          "midi": 97,
          "time": 285.3240000000136,
          "velocity": 0.7874015748031497,
          "duration": 0.0007375000000138243
        },
        {
          "name": "D7",
          "midi": 98,
          "time": 285.3240000000136,
          "velocity": 0.7874015748031497,
          "duration": 0.0007375000000138243
        },
        {
          "name": "C6",
          "midi": 84,
          "time": 285.5010000000136,
          "velocity": 0.7874015748031497,
          "duration": 0.0007375000000138243
        },
        {
          "name": "C7",
          "midi": 96,
          "time": 285.5010000000136,
          "velocity": 0.7874015748031497,
          "duration": 0.0007375000000138243
        },
        {
          "name": "E7",
          "midi": 100,
          "time": 285.5010000000136,
          "velocity": 0.7874015748031497,
          "duration": 0.0007375000000138243
        },
        {
          "name": "C#4",
          "midi": 61,
          "time": 285.67800000001364,
          "velocity": 0.7874015748031497,
          "duration": 0.0007375000000138243
        },
        {
          "name": "C#5",
          "midi": 73,
          "time": 285.67800000001364,
          "velocity": 0.7874015748031497,
          "duration": 0.0007375000000138243
        },
        {
          "name": "E5",
          "midi": 76,
          "time": 285.67800000001364,
          "velocity": 0.7874015748031497,
          "duration": 0.0007375000000138243
        },
        {
          "name": "C#6",
          "midi": 85,
          "time": 285.67800000001364,
          "velocity": 0.7874015748031497,
          "duration": 0.0007375000000138243
        },
        {
          "name": "E6",
          "midi": 88,
          "time": 285.67800000001364,
          "velocity": 0.7874015748031497,
          "duration": 0.0007375000000138243
        },
        {
          "name": "C#7",
          "midi": 97,
          "time": 285.67800000001364,
          "velocity": 0.7874015748031497,
          "duration": 0.0007375000000138243
        },
        {
          "name": "E7",
          "midi": 100,
          "time": 285.67800000001364,
          "velocity": 0.7874015748031497,
          "duration": 0.0007375000000138243
        },
        {
          "name": "C5",
          "midi": 72,
          "time": 285.8557375000137,
          "velocity": 0.7874015748031497,
          "duration": 0.0007375000000138243
        },
        {
          "name": "C6",
          "midi": 84,
          "time": 285.8557375000137,
          "velocity": 0.7874015748031497,
          "duration": 0.0007375000000138243
        },
        {
          "name": "C7",
          "midi": 96,
          "time": 285.8557375000137,
          "velocity": 0.7874015748031497,
          "duration": 0.0007375000000138243
        },
        {
          "name": "E7",
          "midi": 100,
          "time": 285.8557375000137,
          "velocity": 0.7874015748031497,
          "duration": 0.0007375000000138243
        },
        {
          "name": "C#4",
          "midi": 61,
          "time": 286.0320000000137,
          "velocity": 0.7874015748031497,
          "duration": 0.0007375000000138243
        },
        {
          "name": "C#5",
          "midi": 73,
          "time": 286.0320000000137,
          "velocity": 0.7874015748031497,
          "duration": 0.0007375000000138243
        },
        {
          "name": "E5",
          "midi": 76,
          "time": 286.0320000000137,
          "velocity": 0.7874015748031497,
          "duration": 0.0007375000000138243
        },
        {
          "name": "C#6",
          "midi": 85,
          "time": 286.0320000000137,
          "velocity": 0.7874015748031497,
          "duration": 0.0007375000000138243
        },
        {
          "name": "E6",
          "midi": 88,
          "time": 286.0320000000137,
          "velocity": 0.7874015748031497,
          "duration": 0.0007375000000138243
        },
        {
          "name": "C#7",
          "midi": 97,
          "time": 286.0320000000137,
          "velocity": 0.7874015748031497,
          "duration": 0.0007375000000138243
        },
        {
          "name": "E7",
          "midi": 100,
          "time": 286.0320000000137,
          "velocity": 0.7874015748031497,
          "duration": 0.0007375000000138243
        },
        {
          "name": "C6",
          "midi": 84,
          "time": 286.2082625000137,
          "velocity": 0.7874015748031497,
          "duration": 0.0007375000000138243
        },
        {
          "name": "C7",
          "midi": 96,
          "time": 286.2082625000137,
          "velocity": 0.7874015748031497,
          "duration": 0.0007375000000138243
        },
        {
          "name": "E7",
          "midi": 100,
          "time": 286.2082625000137,
          "velocity": 0.7874015748031497,
          "duration": 0.0007375000000138243
        },
        {
          "name": "C#4",
          "midi": 61,
          "time": 286.3860000000137,
          "velocity": 0.7874015748031497,
          "duration": 0.0007375000000138243
        },
        {
          "name": "C#5",
          "midi": 73,
          "time": 286.3860000000137,
          "velocity": 0.7874015748031497,
          "duration": 0.0007375000000138243
        },
        {
          "name": "E5",
          "midi": 76,
          "time": 286.3860000000137,
          "velocity": 0.7874015748031497,
          "duration": 0.0007375000000138243
        },
        {
          "name": "C#6",
          "midi": 85,
          "time": 286.3860000000137,
          "velocity": 0.7874015748031497,
          "duration": 0.0007375000000138243
        },
        {
          "name": "E6",
          "midi": 88,
          "time": 286.3860000000137,
          "velocity": 0.7874015748031497,
          "duration": 0.0007375000000138243
        },
        {
          "name": "C#7",
          "midi": 97,
          "time": 286.3860000000137,
          "velocity": 0.7874015748031497,
          "duration": 0.0007375000000138243
        },
        {
          "name": "E7",
          "midi": 100,
          "time": 286.3860000000137,
          "velocity": 0.7874015748031497,
          "duration": 0.0007375000000138243
        },
        {
          "name": "C4",
          "midi": 60,
          "time": 286.56300000001374,
          "velocity": 0.7874015748031497,
          "duration": 0.0007375000000138243
        },
        {
          "name": "C5",
          "midi": 72,
          "time": 286.56300000001374,
          "velocity": 0.7874015748031497,
          "duration": 0.0007375000000138243
        },
        {
          "name": "C6",
          "midi": 84,
          "time": 286.56300000001374,
          "velocity": 0.7874015748031497,
          "duration": 0.0007375000000138243
        },
        {
          "name": "C7",
          "midi": 96,
          "time": 286.56300000001374,
          "velocity": 0.7874015748031497,
          "duration": 0.0007375000000138243
        },
        {
          "name": "E7",
          "midi": 100,
          "time": 286.56300000001374,
          "velocity": 0.7874015748031497,
          "duration": 0.0007375000000138243
        },
        {
          "name": "C#4",
          "midi": 61,
          "time": 286.74000000001377,
          "velocity": 0.7874015748031497,
          "duration": 0.0007375000000138243
        },
        {
          "name": "C#5",
          "midi": 73,
          "time": 286.74000000001377,
          "velocity": 0.7874015748031497,
          "duration": 0.0007375000000138243
        },
        {
          "name": "E5",
          "midi": 76,
          "time": 286.74000000001377,
          "velocity": 0.7874015748031497,
          "duration": 0.0007375000000138243
        },
        {
          "name": "C#6",
          "midi": 85,
          "time": 286.74000000001377,
          "velocity": 0.7874015748031497,
          "duration": 0.0007375000000138243
        },
        {
          "name": "E6",
          "midi": 88,
          "time": 286.74000000001377,
          "velocity": 0.7874015748031497,
          "duration": 0.0007375000000138243
        },
        {
          "name": "C#7",
          "midi": 97,
          "time": 286.74000000001377,
          "velocity": 0.7874015748031497,
          "duration": 0.0007375000000138243
        },
        {
          "name": "E7",
          "midi": 100,
          "time": 286.74000000001377,
          "velocity": 0.7874015748031497,
          "duration": 0.0007375000000138243
        },
        {
          "name": "C6",
          "midi": 84,
          "time": 286.9177375000138,
          "velocity": 0.7874015748031497,
          "duration": 0.0007375000000138243
        },
        {
          "name": "C7",
          "midi": 96,
          "time": 286.9177375000138,
          "velocity": 0.7874015748031497,
          "duration": 0.0007375000000138243
        },
        {
          "name": "E7",
          "midi": 100,
          "time": 286.9177375000138,
          "velocity": 0.7874015748031497,
          "duration": 0.0007375000000138243
        },
        {
          "name": "C#4",
          "midi": 61,
          "time": 287.0940000000138,
          "velocity": 0.7874015748031497,
          "duration": 0.0007375000000138243
        },
        {
          "name": "C#5",
          "midi": 73,
          "time": 287.0940000000138,
          "velocity": 0.7874015748031497,
          "duration": 0.0007375000000138243
        },
        {
          "name": "D5",
          "midi": 74,
          "time": 287.0940000000138,
          "velocity": 0.7874015748031497,
          "duration": 0.0007375000000138243
        },
        {
          "name": "C#6",
          "midi": 85,
          "time": 287.0940000000138,
          "velocity": 0.7874015748031497,
          "duration": 0.0007375000000138243
        },
        {
          "name": "D6",
          "midi": 86,
          "time": 287.0940000000138,
          "velocity": 0.7874015748031497,
          "duration": 0.0007375000000138243
        },
        {
          "name": "C#7",
          "midi": 97,
          "time": 287.0940000000138,
          "velocity": 0.7874015748031497,
          "duration": 0.0007375000000138243
        },
        {
          "name": "D7",
          "midi": 98,
          "time": 287.0940000000138,
          "velocity": 0.7874015748031497,
          "duration": 0.0007375000000138243
        },
        {
          "name": "C5",
          "midi": 72,
          "time": 287.2710000000138,
          "velocity": 0.7874015748031497,
          "duration": 0.0007375000000138243
        },
        {
          "name": "C6",
          "midi": 84,
          "time": 287.2710000000138,
          "velocity": 0.7874015748031497,
          "duration": 0.0007375000000138243
        },
        {
          "name": "C7",
          "midi": 96,
          "time": 287.2710000000138,
          "velocity": 0.7874015748031497,
          "duration": 0.0007375000000138243
        },
        {
          "name": "C#4",
          "midi": 61,
          "time": 287.44800000001385,
          "velocity": 0.7874015748031497,
          "duration": 0.0007375000000138243
        },
        {
          "name": "C#5",
          "midi": 73,
          "time": 287.44800000001385,
          "velocity": 0.7874015748031497,
          "duration": 0.0007375000000138243
        },
        {
          "name": "D5",
          "midi": 74,
          "time": 287.44800000001385,
          "velocity": 0.7874015748031497,
          "duration": 0.0007375000000138243
        },
        {
          "name": "C#6",
          "midi": 85,
          "time": 287.44800000001385,
          "velocity": 0.7874015748031497,
          "duration": 0.0007375000000138243
        },
        {
          "name": "D6",
          "midi": 86,
          "time": 287.44800000001385,
          "velocity": 0.7874015748031497,
          "duration": 0.0007375000000138243
        },
        {
          "name": "C#7",
          "midi": 97,
          "time": 287.44800000001385,
          "velocity": 0.7874015748031497,
          "duration": 0.0007375000000138243
        },
        {
          "name": "D7",
          "midi": 98,
          "time": 287.44800000001385,
          "velocity": 0.7874015748031497,
          "duration": 0.0007375000000138243
        },
        {
          "name": "C6",
          "midi": 84,
          "time": 287.62500000001387,
          "velocity": 0.7874015748031497,
          "duration": 0.0007375000000138243
        },
        {
          "name": "C7",
          "midi": 96,
          "time": 287.62500000001387,
          "velocity": 0.7874015748031497,
          "duration": 0.0007375000000138243
        },
        {
          "name": "C#4",
          "midi": 61,
          "time": 287.8020000000139,
          "velocity": 0.7874015748031497,
          "duration": 0.0007375000000138243
        },
        {
          "name": "C#5",
          "midi": 73,
          "time": 287.8020000000139,
          "velocity": 0.7874015748031497,
          "duration": 0.0007375000000138243
        },
        {
          "name": "C#6",
          "midi": 85,
          "time": 287.8020000000139,
          "velocity": 0.7874015748031497,
          "duration": 0.0007375000000138243
        },
        {
          "name": "F6",
          "midi": 89,
          "time": 287.8020000000139,
          "velocity": 0.7874015748031497,
          "duration": 0.0007375000000138243
        },
        {
          "name": "C#7",
          "midi": 97,
          "time": 287.8020000000139,
          "velocity": 0.7874015748031497,
          "duration": 0.0007375000000138243
        },
        {
          "name": "F7",
          "midi": 101,
          "time": 287.8020000000139,
          "velocity": 0.7874015748031497,
          "duration": 0.0007375000000138243
        },
        {
          "name": "C#4",
          "midi": 61,
          "time": 287.9797375000139,
          "velocity": 0.7874015748031497,
          "duration": 0.0007375000000138243
        },
        {
          "name": "C#5",
          "midi": 73,
          "time": 287.9797375000139,
          "velocity": 0.7874015748031497,
          "duration": 0.0007375000000138243
        },
        {
          "name": "C#6",
          "midi": 85,
          "time": 287.9797375000139,
          "velocity": 0.7874015748031497,
          "duration": 0.0007375000000138243
        },
        {
          "name": "F6",
          "midi": 89,
          "time": 287.9797375000139,
          "velocity": 0.7874015748031497,
          "duration": 0.0007375000000138243
        },
        {
          "name": "C#7",
          "midi": 97,
          "time": 287.9797375000139,
          "velocity": 0.7874015748031497,
          "duration": 0.0007375000000138243
        },
        {
          "name": "F7",
          "midi": 101,
          "time": 287.9797375000139,
          "velocity": 0.7874015748031497,
          "duration": 0.0007375000000138243
        },
        {
          "name": "D#4",
          "midi": 63,
          "time": 288.15600000001393,
          "velocity": 0.7874015748031497,
          "duration": 0.0007375000000138243
        },
        {
          "name": "D#5",
          "midi": 75,
          "time": 288.15600000001393,
          "velocity": 0.7874015748031497,
          "duration": 0.0007375000000138243
        },
        {
          "name": "D#6",
          "midi": 87,
          "time": 288.15600000001393,
          "velocity": 0.7874015748031497,
          "duration": 0.0007375000000138243
        },
        {
          "name": "F6",
          "midi": 89,
          "time": 288.15600000001393,
          "velocity": 0.7874015748031497,
          "duration": 0.0007375000000138243
        },
        {
          "name": "D#7",
          "midi": 99,
          "time": 288.15600000001393,
          "velocity": 0.7874015748031497,
          "duration": 0.0007375000000138243
        },
        {
          "name": "F7",
          "midi": 101,
          "time": 288.15600000001393,
          "velocity": 0.7874015748031497,
          "duration": 0.0007375000000138243
        },
        {
          "name": "D4",
          "midi": 62,
          "time": 288.33300000001395,
          "velocity": 0.7874015748031497,
          "duration": 0.0007375000000138243
        },
        {
          "name": "C5",
          "midi": 72,
          "time": 288.33300000001395,
          "velocity": 0.7874015748031497,
          "duration": 0.0007375000000138243
        },
        {
          "name": "D5",
          "midi": 74,
          "time": 288.33300000001395,
          "velocity": 0.7874015748031497,
          "duration": 0.0007375000000138243
        },
        {
          "name": "C6",
          "midi": 84,
          "time": 288.33300000001395,
          "velocity": 0.7874015748031497,
          "duration": 0.0007375000000138243
        },
        {
          "name": "D6",
          "midi": 86,
          "time": 288.33300000001395,
          "velocity": 0.7874015748031497,
          "duration": 0.0007375000000138243
        },
        {
          "name": "C7",
          "midi": 96,
          "time": 288.33300000001395,
          "velocity": 0.7874015748031497,
          "duration": 0.0007375000000138243
        },
        {
          "name": "E7",
          "midi": 100,
          "time": 288.33300000001395,
          "velocity": 0.7874015748031497,
          "duration": 0.0007375000000138243
        },
        {
          "name": "D4",
          "midi": 62,
          "time": 288.687000000014,
          "velocity": 0.7874015748031497,
          "duration": 0.0007375000000138243
        },
        {
          "name": "C5",
          "midi": 72,
          "time": 288.687000000014,
          "velocity": 0.7874015748031497,
          "duration": 0.0007375000000138243
        },
        {
          "name": "D5",
          "midi": 74,
          "time": 288.687000000014,
          "velocity": 0.7874015748031497,
          "duration": 0.0007375000000138243
        },
        {
          "name": "C6",
          "midi": 84,
          "time": 288.687000000014,
          "velocity": 0.7874015748031497,
          "duration": 0.0007375000000138243
        },
        {
          "name": "D6",
          "midi": 86,
          "time": 288.687000000014,
          "velocity": 0.7874015748031497,
          "duration": 0.0007375000000138243
        },
        {
          "name": "C7",
          "midi": 96,
          "time": 288.687000000014,
          "velocity": 0.7874015748031497,
          "duration": 0.0007375000000138243
        },
        {
          "name": "D7",
          "midi": 98,
          "time": 288.687000000014,
          "velocity": 0.7874015748031497,
          "duration": 0.0007375000000138243
        },
        {
          "name": "D4",
          "midi": 62,
          "time": 289.041737500014,
          "velocity": 0.7874015748031497,
          "duration": 0.0007375000000138243
        },
        {
          "name": "C5",
          "midi": 72,
          "time": 289.041737500014,
          "velocity": 0.7874015748031497,
          "duration": 0.0007375000000138243
        },
        {
          "name": "D5",
          "midi": 74,
          "time": 289.041737500014,
          "velocity": 0.7874015748031497,
          "duration": 0.0007375000000138243
        },
        {
          "name": "C6",
          "midi": 84,
          "time": 289.041737500014,
          "velocity": 0.7874015748031497,
          "duration": 0.0007375000000138243
        },
        {
          "name": "D6",
          "midi": 86,
          "time": 289.041737500014,
          "velocity": 0.7874015748031497,
          "duration": 0.0007375000000138243
        },
        {
          "name": "C7",
          "midi": 96,
          "time": 289.041737500014,
          "velocity": 0.7874015748031497,
          "duration": 0.0007375000000138243
        },
        {
          "name": "E7",
          "midi": 100,
          "time": 289.041737500014,
          "velocity": 0.7874015748031497,
          "duration": 0.0007375000000138243
        },
        {
          "name": "D4",
          "midi": 62,
          "time": 289.395000000014,
          "velocity": 0.7874015748031497,
          "duration": 0.0007375000000138243
        },
        {
          "name": "C5",
          "midi": 72,
          "time": 289.395000000014,
          "velocity": 0.7874015748031497,
          "duration": 0.0007375000000138243
        },
        {
          "name": "D5",
          "midi": 74,
          "time": 289.395000000014,
          "velocity": 0.7874015748031497,
          "duration": 0.0007375000000138243
        },
        {
          "name": "C6",
          "midi": 84,
          "time": 289.395000000014,
          "velocity": 0.7874015748031497,
          "duration": 0.0007375000000138243
        },
        {
          "name": "D6",
          "midi": 86,
          "time": 289.395000000014,
          "velocity": 0.7874015748031497,
          "duration": 0.0007375000000138243
        },
        {
          "name": "C7",
          "midi": 96,
          "time": 289.395000000014,
          "velocity": 0.7874015748031497,
          "duration": 0.0007375000000138243
        },
        {
          "name": "D7",
          "midi": 98,
          "time": 289.395000000014,
          "velocity": 0.7874015748031497,
          "duration": 0.0007375000000138243
        },
        {
          "name": "E4",
          "midi": 64,
          "time": 289.74900000001406,
          "velocity": 0.7874015748031497,
          "duration": 0.0007375000000138243
        },
        {
          "name": "E5",
          "midi": 76,
          "time": 289.74900000001406,
          "velocity": 0.7874015748031497,
          "duration": 0.0007375000000138243
        },
        {
          "name": "C6",
          "midi": 84,
          "time": 289.74900000001406,
          "velocity": 0.7874015748031497,
          "duration": 0.0007375000000138243
        },
        {
          "name": "E6",
          "midi": 88,
          "time": 289.74900000001406,
          "velocity": 0.7874015748031497,
          "duration": 0.0007375000000138243
        },
        {
          "name": "C7",
          "midi": 96,
          "time": 289.74900000001406,
          "velocity": 0.7874015748031497,
          "duration": 0.0007375000000138243
        },
        {
          "name": "E7",
          "midi": 100,
          "time": 289.74900000001406,
          "velocity": 0.7874015748031497,
          "duration": 0.0007375000000138243
        },
        {
          "name": "E4",
          "midi": 64,
          "time": 289.9260000000141,
          "velocity": 0.7874015748031497,
          "duration": 0.0007375000000138243
        },
        {
          "name": "C5",
          "midi": 72,
          "time": 289.9260000000141,
          "velocity": 0.7874015748031497,
          "duration": 0.0007375000000138243
        },
        {
          "name": "E5",
          "midi": 76,
          "time": 289.9260000000141,
          "velocity": 0.7874015748031497,
          "duration": 0.0007375000000138243
        },
        {
          "name": "C6",
          "midi": 84,
          "time": 289.9260000000141,
          "velocity": 0.7874015748031497,
          "duration": 0.0007375000000138243
        },
        {
          "name": "E6",
          "midi": 88,
          "time": 289.9260000000141,
          "velocity": 0.7874015748031497,
          "duration": 0.0007375000000138243
        },
        {
          "name": "C7",
          "midi": 96,
          "time": 289.9260000000141,
          "velocity": 0.7874015748031497,
          "duration": 0.0007375000000138243
        },
        {
          "name": "E7",
          "midi": 100,
          "time": 289.9260000000141,
          "velocity": 0.7874015748031497,
          "duration": 0.0007375000000138243
        },
        {
          "name": "E4",
          "midi": 64,
          "time": 290.2800000000141,
          "velocity": 0.7874015748031497,
          "duration": 0.0007375000000138243
        },
        {
          "name": "E5",
          "midi": 76,
          "time": 290.2800000000141,
          "velocity": 0.7874015748031497,
          "duration": 0.0007375000000138243
        },
        {
          "name": "C6",
          "midi": 84,
          "time": 290.2800000000141,
          "velocity": 0.7874015748031497,
          "duration": 0.0007375000000138243
        },
        {
          "name": "E6",
          "midi": 88,
          "time": 290.2800000000141,
          "velocity": 0.7874015748031497,
          "duration": 0.0007375000000138243
        },
        {
          "name": "C7",
          "midi": 96,
          "time": 290.2800000000141,
          "velocity": 0.7874015748031497,
          "duration": 0.0007375000000138243
        },
        {
          "name": "E7",
          "midi": 100,
          "time": 290.2800000000141,
          "velocity": 0.7874015748031497,
          "duration": 0.0007375000000138243
        },
        {
          "name": "E4",
          "midi": 64,
          "time": 290.45700000001415,
          "velocity": 0.7874015748031497,
          "duration": 0.0007375000000138243
        },
        {
          "name": "C5",
          "midi": 72,
          "time": 290.45700000001415,
          "velocity": 0.7874015748031497,
          "duration": 0.0007375000000138243
        },
        {
          "name": "E5",
          "midi": 76,
          "time": 290.45700000001415,
          "velocity": 0.7874015748031497,
          "duration": 0.0007375000000138243
        },
        {
          "name": "C6",
          "midi": 84,
          "time": 290.45700000001415,
          "velocity": 0.7874015748031497,
          "duration": 0.0007375000000138243
        },
        {
          "name": "E6",
          "midi": 88,
          "time": 290.45700000001415,
          "velocity": 0.7874015748031497,
          "duration": 0.0007375000000138243
        },
        {
          "name": "C7",
          "midi": 96,
          "time": 290.45700000001415,
          "velocity": 0.7874015748031497,
          "duration": 0.0007375000000138243
        },
        {
          "name": "E7",
          "midi": 100,
          "time": 290.45700000001415,
          "velocity": 0.7874015748031497,
          "duration": 0.0007375000000138243
        }
      ],
      "controlChanges": {},
      "id": 4,
      "name": "PART DRUMS",
      "channelNumber": 0,
      "isPercussion": false
    },
    {
      "startTime": 8.319737500000002,
      "duration": 248.19677500000014,
      "length": 323,
      "notes": [
        {
          "name": "A7",
          "midi": 105,
          "time": 8.319737500000002,
          "velocity": 0.7874015748031497,
          "duration": 2.6313999999999975
        },
        {
          "name": "C#3",
          "midi": 49,
          "time": 8.518125000000003,
          "velocity": 0.7874015748031497,
          "duration": 0.02138749999999945
        },
        {
          "name": "D3",
          "midi": 50,
          "time": 8.605887500000003,
          "velocity": 0.7874015748031497,
          "duration": 0.02138749999999945
        },
        {
          "name": "D3",
          "midi": 50,
          "time": 8.695125000000003,
          "velocity": 0.7874015748031497,
          "duration": 0.08776250000000019
        },
        {
          "name": "D3",
          "midi": 50,
          "time": 8.872125000000002,
          "velocity": 0.7874015748031497,
          "duration": 0.15487500000000054
        },
        {
          "name": "D3",
          "midi": 50,
          "time": 9.204000000000002,
          "velocity": 0.7874015748031497,
          "duration": 0.08776250000000019
        },
        {
          "name": "D3",
          "midi": 50,
          "time": 9.403125000000003,
          "velocity": 0.7874015748031497,
          "duration": 0.08776250000000019
        },
        {
          "name": "D3",
          "midi": 50,
          "time": 9.579387500000003,
          "velocity": 0.7874015748031497,
          "duration": 0.02212500000000084
        },
        {
          "name": "B2",
          "midi": 47,
          "time": 9.712875000000004,
          "velocity": 0.7874015748031497,
          "duration": 0.02138749999999945
        },
        {
          "name": "C#3",
          "midi": 49,
          "time": 9.912000000000003,
          "velocity": 0.7874015748031497,
          "duration": 0.02138749999999945
        },
        {
          "name": "D3",
          "midi": 50,
          "time": 10.066875000000001,
          "velocity": 0.7874015748031497,
          "duration": 0.02138749999999945
        },
        {
          "name": "C#3",
          "midi": 49,
          "time": 10.266,
          "velocity": 0.7874015748031497,
          "duration": 0.02138749999999945
        },
        {
          "name": "D3",
          "midi": 50,
          "time": 10.4216125,
          "velocity": 0.7874015748031497,
          "duration": 0.02138749999999945
        },
        {
          "name": "C#3",
          "midi": 49,
          "time": 10.6428625,
          "velocity": 0.7874015748031497,
          "duration": 0.02138749999999945
        },
        {
          "name": "D3",
          "midi": 50,
          "time": 10.8198625,
          "velocity": 0.7874015748031497,
          "duration": 0.13127500000000047
        },
        {
          "name": "A7",
          "midi": 105,
          "time": 11.173125,
          "velocity": 0.7874015748031497,
          "duration": 2.9205000000000023
        },
        {
          "name": "B2",
          "midi": 47,
          "time": 11.1768125,
          "velocity": 0.7874015748031497,
          "duration": 0.08407500000000034
        },
        {
          "name": "D3",
          "midi": 50,
          "time": 11.371512500000001,
          "velocity": 0.7874015748031497,
          "duration": 0.1327499999999997
        },
        {
          "name": "D3",
          "midi": 50,
          "time": 11.682,
          "velocity": 0.7874015748031497,
          "duration": 0.10988749999999925
        },
        {
          "name": "D3",
          "midi": 50,
          "time": 12.058125,
          "velocity": 0.7874015748031497,
          "duration": 0.08702500000000057
        },
        {
          "name": "B2",
          "midi": 47,
          "time": 12.279375000000002,
          "velocity": 0.7874015748031497,
          "duration": 0.08776250000000019
        },
        {
          "name": "C#3",
          "midi": 49,
          "time": 12.567000000000002,
          "velocity": 0.7874015748031497,
          "duration": 0.02212500000000084
        },
        {
          "name": "D3",
          "midi": 50,
          "time": 12.787512500000004,
          "velocity": 0.7874015748031497,
          "duration": 0.0884999999999998
        },
        {
          "name": "C#3",
          "midi": 49,
          "time": 13.098000000000004,
          "velocity": 0.7874015748031497,
          "duration": 0.02138749999999945
        },
        {
          "name": "D3",
          "midi": 50,
          "time": 13.319987500000003,
          "velocity": 0.7874015748031497,
          "duration": 0.0884999999999998
        },
        {
          "name": "A7",
          "midi": 105,
          "time": 26.571387500000007,
          "velocity": 0.7874015748031497,
          "duration": 1.615124999999999
        },
        {
          "name": "E3",
          "midi": 52,
          "time": 26.57507500000001,
          "velocity": 0.7874015748031497,
          "duration": 0.08407499999999857
        },
        {
          "name": "E3",
          "midi": 52,
          "time": 26.749125000000006,
          "velocity": 0.7874015748031497,
          "duration": 0.08776250000000019
        },
        {
          "name": "G3",
          "midi": 55,
          "time": 26.971112500000007,
          "velocity": 0.7874015748031497,
          "duration": 0.02138749999999945
        },
        {
          "name": "G#3",
          "midi": 56,
          "time": 27.103862500000005,
          "velocity": 0.7874015748031497,
          "duration": 0.02138749999999945
        },
        {
          "name": "G#3",
          "midi": 56,
          "time": 27.302250000000004,
          "velocity": 0.7874015748031497,
          "duration": 0.08776250000000019
        },
        {
          "name": "G#3",
          "midi": 56,
          "time": 27.502112500000006,
          "velocity": 0.7874015748031497,
          "duration": 0.08702500000000057
        },
        {
          "name": "F#3",
          "midi": 54,
          "time": 27.767612500000006,
          "velocity": 0.7874015748031497,
          "duration": 0.08776250000000019
        },
        {
          "name": "E3",
          "midi": 52,
          "time": 28.010250000000006,
          "velocity": 0.7874015748031497,
          "duration": 0.1762625
        },
        {
          "name": "A7",
          "midi": 105,
          "time": 29.226387500000005,
          "velocity": 0.7874015748031497,
          "duration": 1.7707374999999992
        },
        {
          "name": "E3",
          "midi": 52,
          "time": 29.230075000000006,
          "velocity": 0.7874015748031497,
          "duration": 0.08407499999999857
        },
        {
          "name": "E3",
          "midi": 52,
          "time": 29.403387500000004,
          "velocity": 0.7874015748031497,
          "duration": 0.08776250000000019
        },
        {
          "name": "E3",
          "midi": 52,
          "time": 29.581125000000004,
          "velocity": 0.7874015748031497,
          "duration": 0.08776250000000019
        },
        {
          "name": "F3",
          "midi": 53,
          "time": 29.780250000000002,
          "velocity": 0.7874015748031497,
          "duration": 0.02138749999999945
        },
        {
          "name": "F#3",
          "midi": 54,
          "time": 29.913,
          "velocity": 0.7874015748031497,
          "duration": 0.02138749999999945
        },
        {
          "name": "F#3",
          "midi": 54,
          "time": 30.134249999999998,
          "velocity": 0.7874015748031497,
          "duration": 0.08776250000000019
        },
        {
          "name": "F#3",
          "midi": 54,
          "time": 30.3341125,
          "velocity": 0.7874015748031497,
          "duration": 0.15413750000000093
        },
        {
          "name": "E3",
          "midi": 52,
          "time": 30.621000000000002,
          "velocity": 0.7874015748031497,
          "duration": 0.08776250000000019
        },
        {
          "name": "D3",
          "midi": 50,
          "time": 30.842250000000003,
          "velocity": 0.7874015748031497,
          "duration": 0.15487500000000054
        },
        {
          "name": "A7",
          "midi": 105,
          "time": 32.236125,
          "velocity": 0.7874015748031497,
          "duration": 1.725750000000005
        },
        {
          "name": "A2",
          "midi": 45,
          "time": 32.2398125,
          "velocity": 0.7874015748031497,
          "duration": 0.08407499999999857
        },
        {
          "name": "A2",
          "midi": 45,
          "time": 32.413125,
          "velocity": 0.7874015748031497,
          "duration": 0.08850000000000335
        },
        {
          "name": "E3",
          "midi": 52,
          "time": 32.61225,
          "velocity": 0.7874015748031497,
          "duration": 0.022125000000002615
        },
        {
          "name": "F#3",
          "midi": 54,
          "time": 32.78925,
          "velocity": 0.7874015748031497,
          "duration": 0.022125000000002615
        },
        {
          "name": "F#3",
          "midi": 54,
          "time": 32.944862500000006,
          "velocity": 0.7874015748031497,
          "duration": 0.08776249999999663
        },
        {
          "name": "G3",
          "midi": 55,
          "time": 33.165375000000004,
          "velocity": 0.7874015748031497,
          "duration": 0.1762625
        },
        {
          "name": "G3",
          "midi": 55,
          "time": 33.453,
          "velocity": 0.7874015748031497,
          "duration": 0.08850000000000335
        },
        {
          "name": "G3",
          "midi": 55,
          "time": 33.60787500000001,
          "velocity": 0.7874015748031497,
          "duration": 0.08850000000000335
        },
        {
          "name": "A3",
          "midi": 57,
          "time": 33.80700000000001,
          "velocity": 0.7874015748031497,
          "duration": 0.154874999999997
        },
        {
          "name": "A7",
          "midi": 105,
          "time": 35.04600000000001,
          "velocity": 0.7874015748031497,
          "duration": 1.6365125000000234
        },
        {
          "name": "G#8",
          "midi": 116,
          "time": 35.04600000000001,
          "velocity": 0.7874015748031497,
          "duration": 1.6365125000000234
        },
        {
          "name": "E3",
          "midi": 52,
          "time": 35.04600000000001,
          "velocity": 0.7874015748031497,
          "duration": 0.08850000000000335
        },
        {
          "name": "E3",
          "midi": 52,
          "time": 35.22300000000001,
          "velocity": 0.7874015748031497,
          "duration": 0.08850000000000335
        },
        {
          "name": "F#3",
          "midi": 54,
          "time": 35.44425000000002,
          "velocity": 0.7874015748031497,
          "duration": 0.021387500000003
        },
        {
          "name": "G3",
          "midi": 55,
          "time": 35.554875000000024,
          "velocity": 0.7874015748031497,
          "duration": 0.021387500000003
        },
        {
          "name": "G3",
          "midi": 55,
          "time": 35.754000000000026,
          "velocity": 0.7874015748031497,
          "duration": 0.08850000000000335
        },
        {
          "name": "G3",
          "midi": 55,
          "time": 35.95386250000003,
          "velocity": 0.7874015748031497,
          "duration": 0.19912500000000222
        },
        {
          "name": "F#3",
          "midi": 54,
          "time": 36.30712500000003,
          "velocity": 0.7874015748031497,
          "duration": 0.08850000000000335
        },
        {
          "name": "E3",
          "midi": 52,
          "time": 36.50551250000003,
          "velocity": 0.7874015748031497,
          "duration": 0.1769999999999996
        },
        {
          "name": "A7",
          "midi": 105,
          "time": 38.40900000000003,
          "velocity": 0.7874015748031497,
          "duration": 1.1504999999999939
        },
        {
          "name": "B3",
          "midi": 59,
          "time": 38.412687500000025,
          "velocity": 0.7874015748031497,
          "duration": 0.01769999999999783
        },
        {
          "name": "C4",
          "midi": 60,
          "time": 38.67523750000002,
          "velocity": 0.7874015748031497,
          "duration": 0.10988749999999925
        },
        {
          "name": "B3",
          "midi": 59,
          "time": 38.984250000000024,
          "velocity": 0.7874015748031497,
          "duration": 0.1762625
        },
        {
          "name": "A3",
          "midi": 57,
          "time": 39.33825000000002,
          "velocity": 0.7874015748031497,
          "duration": 0.22124999999999773
        },
        {
          "name": "A7",
          "midi": 105,
          "time": 56.64000000000002,
          "velocity": 0.7874015748031497,
          "duration": 2.321649999999998
        },
        {
          "name": "E3",
          "midi": 52,
          "time": 56.64368750000002,
          "velocity": 0.7874015748031497,
          "duration": 0.08407499999999857
        },
        {
          "name": "E3",
          "midi": 52,
          "time": 56.92688750000002,
          "velocity": 0.7874015748031497,
          "duration": 0.08850000000000335
        },
        {
          "name": "F3",
          "midi": 53,
          "time": 57.19312500000002,
          "velocity": 0.7874015748031497,
          "duration": 0.021387500000003
        },
        {
          "name": "F#3",
          "midi": 54,
          "time": 57.325875000000025,
          "velocity": 0.7874015748031497,
          "duration": 0.10988749999999925
        },
        {
          "name": "F#3",
          "midi": 54,
          "time": 57.52500000000003,
          "velocity": 0.7874015748031497,
          "duration": 0.08776249999999663
        },
        {
          "name": "F#3",
          "midi": 54,
          "time": 57.70200000000003,
          "velocity": 0.7874015748031497,
          "duration": 0.08776249999999663
        },
        {
          "name": "F#3",
          "midi": 54,
          "time": 57.879000000000026,
          "velocity": 0.7874015748031497,
          "duration": 0.08776249999999663
        },
        {
          "name": "G3",
          "midi": 55,
          "time": 58.07812500000002,
          "velocity": 0.7874015748031497,
          "duration": 0.13275000000000148
        },
        {
          "name": "G3",
          "midi": 55,
          "time": 58.38787500000002,
          "velocity": 0.7874015748031497,
          "duration": 0.08776249999999663
        },
        {
          "name": "A3",
          "midi": 57,
          "time": 58.60912500000002,
          "velocity": 0.7874015748031497,
          "duration": 0.06563750000000113
        },
        {
          "name": "G3",
          "midi": 55,
          "time": 58.80825000000002,
          "velocity": 0.7874015748031497,
          "duration": 0.15339999999999776
        },
        {
          "name": "A7",
          "midi": 105,
          "time": 59.14012500000002,
          "velocity": 0.7874015748031497,
          "duration": 2.521512499999993
        },
        {
          "name": "G3",
          "midi": 55,
          "time": 59.14381250000002,
          "velocity": 0.7874015748031497,
          "duration": 0.10620000000000118
        },
        {
          "name": "E4",
          "midi": 64,
          "time": 59.44987500000002,
          "velocity": 0.7874015748031497,
          "duration": 0.08776249999999663
        },
        {
          "name": "D4",
          "midi": 62,
          "time": 59.69398750000002,
          "velocity": 0.7874015748031497,
          "duration": 0.021387500000003
        },
        {
          "name": "C4",
          "midi": 60,
          "time": 59.848862500000024,
          "velocity": 0.7874015748031497,
          "duration": 0.021387500000003
        },
        {
          "name": "B3",
          "midi": 59,
          "time": 60.04725000000003,
          "velocity": 0.7874015748031497,
          "duration": 0.021387500000003
        },
        {
          "name": "C4",
          "midi": 60,
          "time": 60.22351250000003,
          "velocity": 0.7874015748031497,
          "duration": 0.022125000000002615
        },
        {
          "name": "C4",
          "midi": 60,
          "time": 60.401250000000026,
          "velocity": 0.7874015748031497,
          "duration": 0.08776249999999663
        },
        {
          "name": "C4",
          "midi": 60,
          "time": 60.55612500000002,
          "velocity": 0.7874015748031497,
          "duration": 0.08776249999999663
        },
        {
          "name": "B3",
          "midi": 59,
          "time": 60.71100000000002,
          "velocity": 0.7874015748031497,
          "duration": 0.08776249999999663
        },
        {
          "name": "A#3",
          "midi": 58,
          "time": 60.88800000000002,
          "velocity": 0.7874015748031497,
          "duration": 0.022125000000002615
        },
        {
          "name": "B3",
          "midi": 59,
          "time": 61.06426250000002,
          "velocity": 0.7874015748031497,
          "duration": 0.022125000000002615
        },
        {
          "name": "B3",
          "midi": 59,
          "time": 61.24200000000002,
          "velocity": 0.7874015748031497,
          "duration": 0.08776249999999663
        },
        {
          "name": "A3",
          "midi": 57,
          "time": 61.48537500000001,
          "velocity": 0.7874015748031497,
          "duration": 0.1762625
        },
        {
          "name": "A7",
          "midi": 105,
          "time": 62.32612500000001,
          "velocity": 0.7874015748031497,
          "duration": 2.0340249999999784
        },
        {
          "name": "E3",
          "midi": 52,
          "time": 62.32981250000001,
          "velocity": 0.7874015748031497,
          "duration": 0.08407499999999857
        },
        {
          "name": "E3",
          "midi": 52,
          "time": 62.635137500000006,
          "velocity": 0.7874015748031497,
          "duration": 0.08776249999999663
        },
        {
          "name": "F#3",
          "midi": 54,
          "time": 62.857125,
          "velocity": 0.7874015748031497,
          "duration": 0.154874999999997
        },
        {
          "name": "G3",
          "midi": 55,
          "time": 63.72,
          "velocity": 0.7874015748031497,
          "duration": 0.08776249999999663
        },
        {
          "name": "G3",
          "midi": 55,
          "time": 64.051875,
          "velocity": 0.7874015748031497,
          "duration": 0.08776249999999663
        },
        {
          "name": "A3",
          "midi": 57,
          "time": 64.25026249999999,
          "velocity": 0.7874015748031497,
          "duration": 0.10988749999999925
        },
        {
          "name": "A7",
          "midi": 105,
          "time": 65.15812499999998,
          "velocity": 0.7874015748031497,
          "duration": 2.079750000000004
        },
        {
          "name": "A#3",
          "midi": 58,
          "time": 66.50701249999999,
          "velocity": 0.7874015748031497,
          "duration": 0.021387500000003
        },
        {
          "name": "B3",
          "midi": 59,
          "time": 66.61763749999999,
          "velocity": 0.7874015748031497,
          "duration": 0.021387500000003
        },
        {
          "name": "B3",
          "midi": 59,
          "time": 66.86248749999999,
          "velocity": 0.7874015748031497,
          "duration": 0.08776249999999663
        },
        {
          "name": "A3",
          "midi": 57,
          "time": 67.10586249999999,
          "velocity": 0.7874015748031497,
          "duration": 0.13201250000000186
        },
        {
          "name": "A7",
          "midi": 105,
          "time": 76.10999999999999,
          "velocity": 0.7874015748031497,
          "duration": 2.8976375000000445
        },
        {
          "name": "D#3",
          "midi": 51,
          "time": 76.11368749999998,
          "velocity": 0.7874015748031497,
          "duration": 0.017700000000004934
        },
        {
          "name": "E3",
          "midi": 52,
          "time": 76.28699999999999,
          "velocity": 0.7874015748031497,
          "duration": 0.021387500000003
        },
        {
          "name": "D#3",
          "midi": 51,
          "time": 76.53037499999999,
          "velocity": 0.7874015748031497,
          "duration": 0.42037500000000705
        },
        {
          "name": "C#3",
          "midi": 49,
          "time": 77.2169875,
          "velocity": 0.7874015748031497,
          "duration": 0.1770000000000067
        },
        {
          "name": "D#3",
          "midi": 51,
          "time": 77.57098750000002,
          "velocity": 0.7874015748031497,
          "duration": 0.020650000000003388
        },
        {
          "name": "E3",
          "midi": 52,
          "time": 77.74725000000002,
          "velocity": 0.7874015748031497,
          "duration": 0.021387500000003
        },
        {
          "name": "D#3",
          "midi": 51,
          "time": 77.96850000000002,
          "velocity": 0.7874015748031497,
          "duration": 0.1548750000000041
        },
        {
          "name": "C#3",
          "midi": 49,
          "time": 78.30037500000003,
          "velocity": 0.7874015748031497,
          "duration": 0.10988749999999925
        },
        {
          "name": "C#3",
          "midi": 49,
          "time": 78.65437500000003,
          "velocity": 0.7874015748031497,
          "duration": 0.021387500000003
        },
        {
          "name": "A2",
          "midi": 45,
          "time": 78.98625000000003,
          "velocity": 0.7874015748031497,
          "duration": 0.021387500000003
        },
        {
          "name": "G#8",
          "midi": 116,
          "time": 79.36311250000003,
          "velocity": 0.7874015748031497,
          "duration": 2.8526500000000254
        },
        {
          "name": "A7",
          "midi": 105,
          "time": 79.36311250000003,
          "velocity": 0.7874015748031497,
          "duration": 2.8526500000000254
        },
        {
          "name": "A2",
          "midi": 45,
          "time": 79.36311250000003,
          "velocity": 0.7874015748031497,
          "duration": 0.46462499999999807
        },
        {
          "name": "A2",
          "midi": 45,
          "time": 80.07111250000003,
          "velocity": 0.7874015748031497,
          "duration": 0.15413750000000448
        },
        {
          "name": "G2",
          "midi": 43,
          "time": 80.40225000000004,
          "velocity": 0.7874015748031497,
          "duration": 0.10988749999999925
        },
        {
          "name": "G2",
          "midi": 43,
          "time": 80.80050000000004,
          "velocity": 0.7874015748031497,
          "duration": 0.3753875000000022
        },
        {
          "name": "A#2",
          "midi": 46,
          "time": 81.46351250000005,
          "velocity": 0.7874015748031497,
          "duration": 0.021387500000003
        },
        {
          "name": "B2",
          "midi": 47,
          "time": 81.59700000000005,
          "velocity": 0.7874015748031497,
          "duration": 0.021387500000003
        },
        {
          "name": "B2",
          "midi": 47,
          "time": 81.81751250000005,
          "velocity": 0.7874015748031497,
          "duration": 0.39825000000000443
        },
        {
          "name": "A7",
          "midi": 105,
          "time": 83.52261250000005,
          "velocity": 0.7874015748031497,
          "duration": 1.9905125000000368
        },
        {
          "name": "G#2",
          "midi": 44,
          "time": 83.52630000000005,
          "velocity": 0.7874015748031497,
          "duration": 0.017700000000004934
        },
        {
          "name": "A2",
          "midi": 45,
          "time": 83.69961250000006,
          "velocity": 0.7874015748031497,
          "duration": 0.022125000000002615
        },
        {
          "name": "A2",
          "midi": 45,
          "time": 83.96511250000006,
          "velocity": 0.7874015748031497,
          "duration": 0.15413750000000448
        },
        {
          "name": "A2",
          "midi": 45,
          "time": 84.29625000000007,
          "velocity": 0.7874015748031497,
          "duration": 0.15413750000000448
        },
        {
          "name": "A2",
          "midi": 45,
          "time": 84.62812500000008,
          "velocity": 0.7874015748031497,
          "duration": 0.021387500000003
        },
        {
          "name": "G2",
          "midi": 43,
          "time": 84.80512500000009,
          "velocity": 0.7874015748031497,
          "duration": 0.021387500000003
        },
        {
          "name": "G2",
          "midi": 43,
          "time": 85.02711250000009,
          "velocity": 0.7874015748031497,
          "duration": 0.48601250000000107
        },
        {
          "name": "A7",
          "midi": 105,
          "time": 86.42098750000008,
          "velocity": 0.7874015748031497,
          "duration": 2.6756500000000045
        },
        {
          "name": "G2",
          "midi": 43,
          "time": 86.42467500000008,
          "velocity": 0.7874015748031497,
          "duration": 0.01696250000000532
        },
        {
          "name": "A2",
          "midi": 45,
          "time": 86.64150000000008,
          "velocity": 0.7874015748031497,
          "duration": 0.8850000000000051
        },
        {
          "name": "D3",
          "midi": 50,
          "time": 87.85837500000008,
          "velocity": 0.7874015748031497,
          "duration": 0.021387500000003
        },
        {
          "name": "E3",
          "midi": 52,
          "time": 88.10175000000008,
          "velocity": 0.7874015748031497,
          "duration": 0.9948875000000044
        },
        {
          "name": "A7",
          "midi": 105,
          "time": 93.25613750000008,
          "velocity": 0.7874015748031497,
          "duration": 2.5893624999999787
        },
        {
          "name": "E2",
          "midi": 40,
          "time": 93.25982500000008,
          "velocity": 0.7874015748031497,
          "duration": 0.08481249999999818
        },
        {
          "name": "D3",
          "midi": 50,
          "time": 93.50098750000008,
          "velocity": 0.7874015748031497,
          "duration": 0.1548750000000041
        },
        {
          "name": "D3",
          "midi": 50,
          "time": 93.83286250000009,
          "velocity": 0.7874015748031497,
          "duration": 0.10988749999999925
        },
        {
          "name": "D3",
          "midi": 50,
          "time": 94.16400000000009,
          "velocity": 0.7874015748031497,
          "duration": 0.08776249999999663
        },
        {
          "name": "D3",
          "midi": 50,
          "time": 94.36386250000008,
          "velocity": 0.7874015748031497,
          "duration": 0.08776249999999663
        },
        {
          "name": "D3",
          "midi": 50,
          "time": 94.54086250000007,
          "velocity": 0.7874015748031497,
          "duration": 0.08776249999999663
        },
        {
          "name": "B2",
          "midi": 47,
          "time": 94.69573750000006,
          "velocity": 0.7874015748031497,
          "duration": 0.08776249999999663
        },
        {
          "name": "D3",
          "midi": 50,
          "time": 94.91625000000006,
          "velocity": 0.7874015748031497,
          "duration": 0.08849999999999625
        },
        {
          "name": "D3",
          "midi": 50,
          "time": 95.13676250000006,
          "velocity": 0.7874015748031497,
          "duration": 0.13275000000000148
        },
        {
          "name": "E3",
          "midi": 52,
          "time": 95.46937500000006,
          "velocity": 0.7874015748031497,
          "duration": 0.021387500000003
        },
        {
          "name": "B2",
          "midi": 47,
          "time": 95.82337500000006,
          "velocity": 0.7874015748031497,
          "duration": 0.022125000000002615
        },
        {
          "name": "A7",
          "midi": 105,
          "time": 95.97825000000006,
          "velocity": 0.7874015748031497,
          "duration": 2.8091374999999914
        },
        {
          "name": "G3",
          "midi": 55,
          "time": 96.31012500000006,
          "velocity": 0.7874015748031497,
          "duration": 0.11062499999999886
        },
        {
          "name": "D3",
          "midi": 50,
          "time": 96.53063750000005,
          "velocity": 0.7874015748031497,
          "duration": 0.08776249999999663
        },
        {
          "name": "D3",
          "midi": 50,
          "time": 96.64200000000005,
          "velocity": 0.7874015748031497,
          "duration": 0.08849999999999625
        },
        {
          "name": "E3",
          "midi": 52,
          "time": 96.86325000000005,
          "velocity": 0.7874015748031497,
          "duration": 0.1762625000000071
        },
        {
          "name": "E3",
          "midi": 52,
          "time": 97.17373750000006,
          "velocity": 0.7874015748031497,
          "duration": 0.08776249999999663
        },
        {
          "name": "D3",
          "midi": 50,
          "time": 97.32861250000005,
          "velocity": 0.7874015748031497,
          "duration": 0.08849999999999625
        },
        {
          "name": "E3",
          "midi": 52,
          "time": 97.52773750000004,
          "velocity": 0.7874015748031497,
          "duration": 0.3753875000000022
        },
        {
          "name": "D#3",
          "midi": 51,
          "time": 98.10298750000004,
          "velocity": 0.7874015748031497,
          "duration": 0.020650000000003388
        },
        {
          "name": "E3",
          "midi": 52,
          "time": 98.25712500000004,
          "velocity": 0.7874015748031497,
          "duration": 0.020650000000003388
        },
        {
          "name": "A7",
          "midi": 105,
          "time": 172.44225000000006,
          "velocity": 0.7874015748031497,
          "duration": 1.5922625000000608
        },
        {
          "name": "E3",
          "midi": 52,
          "time": 172.44593750000007,
          "velocity": 0.7874015748031497,
          "duration": 0.08481249999999818
        },
        {
          "name": "E3",
          "midi": 52,
          "time": 172.61925000000008,
          "velocity": 0.7874015748031497,
          "duration": 0.08850000000001046
        },
        {
          "name": "G3",
          "midi": 55,
          "time": 172.8191125000001,
          "velocity": 0.7874015748031497,
          "duration": 0.020649999999989177
        },
        {
          "name": "G#3",
          "midi": 56,
          "time": 172.9511250000001,
          "velocity": 0.7874015748031497,
          "duration": 0.021387500000003
        },
        {
          "name": "G#3",
          "midi": 56,
          "time": 173.1495125000001,
          "velocity": 0.7874015748031497,
          "duration": 0.08850000000001046
        },
        {
          "name": "G#3",
          "midi": 56,
          "time": 173.34937500000012,
          "velocity": 0.7874015748031497,
          "duration": 0.08850000000001046
        },
        {
          "name": "F#3",
          "midi": 54,
          "time": 173.63773750000013,
          "velocity": 0.7874015748031497,
          "duration": 0.08776249999999663
        },
        {
          "name": "E3",
          "midi": 52,
          "time": 173.8811125000001,
          "velocity": 0.7874015748031497,
          "duration": 0.15340000000000487
        },
        {
          "name": "A7",
          "midi": 105,
          "time": 175.07512500000013,
          "velocity": 0.7874015748031497,
          "duration": 1.768525000000011
        },
        {
          "name": "E3",
          "midi": 52,
          "time": 175.07881250000014,
          "velocity": 0.7874015748031497,
          "duration": 0.08481249999999818
        },
        {
          "name": "E3",
          "midi": 52,
          "time": 175.25212500000015,
          "velocity": 0.7874015748031497,
          "duration": 0.08850000000001046
        },
        {
          "name": "E3",
          "midi": 52,
          "time": 175.42912500000017,
          "velocity": 0.7874015748031497,
          "duration": 0.08850000000001046
        },
        {
          "name": "F3",
          "midi": 53,
          "time": 175.62825000000018,
          "velocity": 0.7874015748031497,
          "duration": 0.022124999999988404
        },
        {
          "name": "F#3",
          "midi": 54,
          "time": 175.76173750000018,
          "velocity": 0.7874015748031497,
          "duration": 0.022124999999988404
        },
        {
          "name": "F#3",
          "midi": 54,
          "time": 175.93800000000016,
          "velocity": 0.7874015748031497,
          "duration": 0.08776249999999663
        },
        {
          "name": "F#3",
          "midi": 54,
          "time": 176.15925000000016,
          "velocity": 0.7874015748031497,
          "duration": 0.13201250000000186
        },
        {
          "name": "E3",
          "midi": 52,
          "time": 176.46973750000015,
          "velocity": 0.7874015748031497,
          "duration": 0.08776249999999663
        },
        {
          "name": "D3",
          "midi": 50,
          "time": 176.71163750000014,
          "velocity": 0.7874015748031497,
          "duration": 0.13201250000000186
        },
        {
          "name": "A7",
          "midi": 105,
          "time": 178.08486250000013,
          "velocity": 0.7874015748031497,
          "duration": 1.6143875000000207
        },
        {
          "name": "E3",
          "midi": 52,
          "time": 178.08855000000014,
          "velocity": 0.7874015748031497,
          "duration": 0.08481249999999818
        },
        {
          "name": "D3",
          "midi": 50,
          "time": 178.26186250000015,
          "velocity": 0.7874015748031497,
          "duration": 0.08850000000001046
        },
        {
          "name": "F3",
          "midi": 53,
          "time": 178.43886250000017,
          "velocity": 0.7874015748031497,
          "duration": 0.021387500000003
        },
        {
          "name": "F#3",
          "midi": 54,
          "time": 178.52736250000018,
          "velocity": 0.7874015748031497,
          "duration": 0.021387500000003
        },
        {
          "name": "F#3",
          "midi": 54,
          "time": 178.6372500000002,
          "velocity": 0.7874015748031497,
          "duration": 0.08776249999999663
        },
        {
          "name": "F#3",
          "midi": 54,
          "time": 178.8142500000002,
          "velocity": 0.7874015748031497,
          "duration": 0.08776249999999663
        },
        {
          "name": "F#3",
          "midi": 54,
          "time": 178.99125000000018,
          "velocity": 0.7874015748031497,
          "duration": 0.08776249999999663
        },
        {
          "name": "G3",
          "midi": 55,
          "time": 179.30173750000017,
          "velocity": 0.7874015748031497,
          "duration": 0.08776249999999663
        },
        {
          "name": "A3",
          "midi": 57,
          "time": 179.54511250000016,
          "velocity": 0.7874015748031497,
          "duration": 0.15413749999999027
        },
        {
          "name": "A7",
          "midi": 105,
          "time": 180.71626250000014,
          "velocity": 0.7874015748031497,
          "duration": 2.2125000000000057
        },
        {
          "name": "E3",
          "midi": 52,
          "time": 180.71995000000015,
          "velocity": 0.7874015748031497,
          "duration": 0.08481249999999818
        },
        {
          "name": "E3",
          "midi": 52,
          "time": 180.91686250000015,
          "velocity": 0.7874015748031497,
          "duration": 0.08776249999999663
        },
        {
          "name": "G3",
          "midi": 55,
          "time": 181.16023750000014,
          "velocity": 0.7874015748031497,
          "duration": 0.15413749999999027
        },
        {
          "name": "G3",
          "midi": 55,
          "time": 181.46925000000013,
          "velocity": 0.7874015748031497,
          "duration": 0.13274999999998727
        },
        {
          "name": "G3",
          "midi": 55,
          "time": 181.6897625000001,
          "velocity": 0.7874015748031497,
          "duration": 0.08702500000001123
        },
        {
          "name": "G3",
          "midi": 55,
          "time": 181.77900000000014,
          "velocity": 0.7874015748031497,
          "duration": 0.08776249999999663
        },
        {
          "name": "F3",
          "midi": 53,
          "time": 182.00025000000014,
          "velocity": 0.7874015748031497,
          "duration": 0.021387500000003
        },
        {
          "name": "F#3",
          "midi": 54,
          "time": 182.17725000000013,
          "velocity": 0.7874015748031497,
          "duration": 0.021387500000003
        },
        {
          "name": "F#3",
          "midi": 54,
          "time": 182.35498750000014,
          "velocity": 0.7874015748031497,
          "duration": 0.08776249999999663
        },
        {
          "name": "E3",
          "midi": 52,
          "time": 182.55411250000014,
          "velocity": 0.7874015748031497,
          "duration": 0.3746500000000026
        },
        {
          "name": "G#8",
          "midi": 116,
          "time": 184.27912500000014,
          "velocity": 0.7874015748031497,
          "duration": 1.1505000000000223
        },
        {
          "name": "A7",
          "midi": 105,
          "time": 184.27912500000014,
          "velocity": 0.7874015748031497,
          "duration": 1.1505000000000223
        },
        {
          "name": "B3",
          "midi": 59,
          "time": 184.27912500000014,
          "velocity": 0.7874015748031497,
          "duration": 0.021387500000003
        },
        {
          "name": "C4",
          "midi": 60,
          "time": 184.52250000000015,
          "velocity": 0.7874015748031497,
          "duration": 0.021387500000003
        },
        {
          "name": "B3",
          "midi": 59,
          "time": 184.83298750000014,
          "velocity": 0.7874015748031497,
          "duration": 0.021387500000003
        },
        {
          "name": "A3",
          "midi": 57,
          "time": 185.00925000000015,
          "velocity": 0.7874015748031497,
          "duration": 0.021387500000003
        },
        {
          "name": "A3",
          "midi": 57,
          "time": 185.23050000000015,
          "velocity": 0.7874015748031497,
          "duration": 0.19912500000000932
        },
        {
          "name": "A7",
          "midi": 105,
          "time": 202.26675000000017,
          "velocity": 0.7874015748031497,
          "duration": 2.5664999999999907
        },
        {
          "name": "D#3",
          "midi": 51,
          "time": 202.27043750000018,
          "velocity": 0.7874015748031497,
          "duration": 0.08407500000001278
        },
        {
          "name": "E3",
          "midi": 52,
          "time": 202.5101250000002,
          "velocity": 0.7874015748031497,
          "duration": 0.08776249999999663
        },
        {
          "name": "E3",
          "midi": 52,
          "time": 202.7756250000002,
          "velocity": 0.7874015748031497,
          "duration": 0.08776249999999663
        },
        {
          "name": "F3",
          "midi": 53,
          "time": 203.01900000000018,
          "velocity": 0.7874015748031497,
          "duration": 0.021387500000003
        },
        {
          "name": "F#3",
          "midi": 54,
          "time": 203.17387500000018,
          "velocity": 0.7874015748031497,
          "duration": 0.10988750000001346
        },
        {
          "name": "F#3",
          "midi": 54,
          "time": 203.3958625000002,
          "velocity": 0.7874015748031497,
          "duration": 0.08776249999999663
        },
        {
          "name": "F#3",
          "midi": 54,
          "time": 203.55000000000018,
          "velocity": 0.7874015748031497,
          "duration": 0.08776249999999663
        },
        {
          "name": "F#3",
          "midi": 54,
          "time": 203.7048750000002,
          "velocity": 0.7874015748031497,
          "duration": 0.08776249999999663
        },
        {
          "name": "G3",
          "midi": 55,
          "time": 203.92612500000018,
          "velocity": 0.7874015748031497,
          "duration": 0.13201250000000186
        },
        {
          "name": "G3",
          "midi": 55,
          "time": 204.25800000000018,
          "velocity": 0.7874015748031497,
          "duration": 0.08776249999999663
        },
        {
          "name": "A3",
          "midi": 57,
          "time": 204.45786250000018,
          "velocity": 0.7874015748031497,
          "duration": 0.08776249999999663
        },
        {
          "name": "G3",
          "midi": 55,
          "time": 204.67911250000017,
          "velocity": 0.7874015748031497,
          "duration": 0.15413749999999027
        },
        {
          "name": "A7",
          "midi": 105,
          "time": 204.98812500000017,
          "velocity": 0.7874015748031497,
          "duration": 2.544374999999974
        },
        {
          "name": "G3",
          "midi": 55,
          "time": 204.99181250000018,
          "velocity": 0.7874015748031497,
          "duration": 0.1290625000000034
        },
        {
          "name": "E4",
          "midi": 64,
          "time": 205.29787500000018,
          "velocity": 0.7874015748031497,
          "duration": 0.08776249999999663
        },
        {
          "name": "D4",
          "midi": 62,
          "time": 205.54125000000016,
          "velocity": 0.7874015748031497,
          "duration": 0.022124999999988404
        },
        {
          "name": "C4",
          "midi": 60,
          "time": 205.69686250000015,
          "velocity": 0.7874015748031497,
          "duration": 0.022124999999988404
        },
        {
          "name": "B3",
          "midi": 59,
          "time": 205.89598750000013,
          "velocity": 0.7874015748031497,
          "duration": 0.021387500000003
        },
        {
          "name": "C4",
          "midi": 60,
          "time": 206.07225000000014,
          "velocity": 0.7874015748031497,
          "duration": 0.021387500000003
        },
        {
          "name": "C4",
          "midi": 60,
          "time": 206.24998750000015,
          "velocity": 0.7874015748031497,
          "duration": 0.08776249999999663
        },
        {
          "name": "C4",
          "midi": 60,
          "time": 206.40486250000015,
          "velocity": 0.7874015748031497,
          "duration": 0.08776249999999663
        },
        {
          "name": "B3",
          "midi": 59,
          "time": 206.55900000000014,
          "velocity": 0.7874015748031497,
          "duration": 0.08776249999999663
        },
        {
          "name": "A#3",
          "midi": 58,
          "time": 206.75812500000015,
          "velocity": 0.7874015748031497,
          "duration": 0.021387500000003
        },
        {
          "name": "B3",
          "midi": 59,
          "time": 206.93512500000014,
          "velocity": 0.7874015748031497,
          "duration": 0.021387500000003
        },
        {
          "name": "B3",
          "midi": 59,
          "time": 207.11212500000013,
          "velocity": 0.7874015748031497,
          "duration": 0.08776249999999663
        },
        {
          "name": "A3",
          "midi": 57,
          "time": 207.33337500000013,
          "velocity": 0.7874015748031497,
          "duration": 0.19912500000000932
        },
        {
          "name": "A7",
          "midi": 105,
          "time": 208.17486250000013,
          "velocity": 0.7874015748031497,
          "duration": 2.056887500000016
        },
        {
          "name": "E3",
          "midi": 52,
          "time": 208.17855000000014,
          "velocity": 0.7874015748031497,
          "duration": 0.08407500000001278
        },
        {
          "name": "E3",
          "midi": 52,
          "time": 208.48461250000017,
          "velocity": 0.7874015748031497,
          "duration": 0.08776249999999663
        },
        {
          "name": "F#3",
          "midi": 54,
          "time": 208.70586250000017,
          "velocity": 0.7874015748031497,
          "duration": 0.08776249999999663
        },
        {
          "name": "B2",
          "midi": 47,
          "time": 208.90425000000016,
          "velocity": 0.7874015748031497,
          "duration": 0.08776249999999663
        },
        {
          "name": "G3",
          "midi": 55,
          "time": 209.58938750000016,
          "velocity": 0.7874015748031497,
          "duration": 0.08776249999999663
        },
        {
          "name": "G3",
          "midi": 55,
          "time": 209.89913750000017,
          "velocity": 0.7874015748031497,
          "duration": 0.08776249999999663
        },
        {
          "name": "A3",
          "midi": 57,
          "time": 210.12112500000015,
          "velocity": 0.7874015748031497,
          "duration": 0.11062499999999886
        },
        {
          "name": "A7",
          "midi": 105,
          "time": 211.00538750000015,
          "velocity": 0.7874015748031497,
          "duration": 2.1026125000000206
        },
        {
          "name": "A#3",
          "midi": 58,
          "time": 212.37787500000016,
          "velocity": 0.7874015748031497,
          "duration": 0.021387500000003
        },
        {
          "name": "B3",
          "midi": 59,
          "time": 212.48850000000016,
          "velocity": 0.7874015748031497,
          "duration": 0.021387500000003
        },
        {
          "name": "B3",
          "midi": 59,
          "time": 212.73187500000017,
          "velocity": 0.7874015748031497,
          "duration": 0.08850000000001046
        },
        {
          "name": "A3",
          "midi": 57,
          "time": 212.97598750000017,
          "velocity": 0.7874015748031497,
          "duration": 0.13201250000000186
        },
        {
          "name": "A7",
          "midi": 105,
          "time": 221.95800000000017,
          "velocity": 0.7874015748031497,
          "duration": 2.8983749999999873
        },
        {
          "name": "D#3",
          "midi": 51,
          "time": 221.96168750000018,
          "velocity": 0.7874015748031497,
          "duration": 0.018437500000004547
        },
        {
          "name": "E3",
          "midi": 52,
          "time": 222.13573750000018,
          "velocity": 0.7874015748031497,
          "duration": 0.021387500000003
        },
        {
          "name": "D#3",
          "midi": 51,
          "time": 222.37837500000018,
          "velocity": 0.7874015748031497,
          "duration": 0.4189000000000078
        },
        {
          "name": "C#3",
          "midi": 49,
          "time": 223.0642500000002,
          "velocity": 0.7874015748031497,
          "duration": 0.1762625000000071
        },
        {
          "name": "D#3",
          "midi": 51,
          "time": 223.4182500000002,
          "velocity": 0.7874015748031497,
          "duration": 0.022124999999988404
        },
        {
          "name": "E3",
          "midi": 52,
          "time": 223.5952500000002,
          "velocity": 0.7874015748031497,
          "duration": 0.022124999999988404
        },
        {
          "name": "D#3",
          "midi": 51,
          "time": 223.8165000000002,
          "velocity": 0.7874015748031497,
          "duration": 0.15413749999999027
        },
        {
          "name": "C#3",
          "midi": 49,
          "time": 224.1483750000002,
          "velocity": 0.7874015748031497,
          "duration": 0.11062499999999886
        },
        {
          "name": "C#3",
          "midi": 49,
          "time": 224.50237500000017,
          "velocity": 0.7874015748031497,
          "duration": 0.022124999999988404
        },
        {
          "name": "A2",
          "midi": 45,
          "time": 224.83425000000017,
          "velocity": 0.7874015748031497,
          "duration": 0.022124999999988404
        },
        {
          "name": "A7",
          "midi": 105,
          "time": 225.21037500000017,
          "velocity": 0.7874015748031497,
          "duration": 2.6985124999999925
        },
        {
          "name": "A2",
          "midi": 45,
          "time": 225.21406250000018,
          "velocity": 0.7874015748031497,
          "duration": 0.4601999999999862
        },
        {
          "name": "A2",
          "midi": 45,
          "time": 225.91837500000017,
          "velocity": 0.7874015748031497,
          "duration": 0.46388749999999845
        },
        {
          "name": "G2",
          "midi": 43,
          "time": 226.62637500000017,
          "velocity": 0.7874015748031497,
          "duration": 0.3982499999999902
        },
        {
          "name": "A#2",
          "midi": 46,
          "time": 227.31225000000015,
          "velocity": 0.7874015748031497,
          "duration": 0.022124999999988404
        },
        {
          "name": "B2",
          "midi": 47,
          "time": 227.44426250000015,
          "velocity": 0.7874015748031497,
          "duration": 0.022124999999988404
        },
        {
          "name": "B2",
          "midi": 47,
          "time": 227.68837500000015,
          "velocity": 0.7874015748031497,
          "duration": 0.021387500000003
        },
        {
          "name": "D#3",
          "midi": 51,
          "time": 227.88750000000016,
          "velocity": 0.7874015748031497,
          "duration": 0.021387500000003
        },
        {
          "name": "A7",
          "midi": 105,
          "time": 229.36987500000015,
          "velocity": 0.7874015748031497,
          "duration": 1.9897749999999803
        },
        {
          "name": "G#2",
          "midi": 44,
          "time": 229.37356250000016,
          "velocity": 0.7874015748031497,
          "duration": 0.017699999999990723
        },
        {
          "name": "A2",
          "midi": 45,
          "time": 229.54687500000014,
          "velocity": 0.7874015748031497,
          "duration": 0.021387500000003
        },
        {
          "name": "A2",
          "midi": 45,
          "time": 229.81163750000013,
          "velocity": 0.7874015748031497,
          "duration": 0.1548750000000041
        },
        {
          "name": "A2",
          "midi": 45,
          "time": 230.14425000000014,
          "velocity": 0.7874015748031497,
          "duration": 0.1548750000000041
        },
        {
          "name": "A2",
          "midi": 45,
          "time": 230.47686250000015,
          "velocity": 0.7874015748031497,
          "duration": 0.022124999999988404
        },
        {
          "name": "G2",
          "midi": 43,
          "time": 230.65312500000013,
          "velocity": 0.7874015748031497,
          "duration": 0.022124999999988404
        },
        {
          "name": "G2",
          "midi": 43,
          "time": 230.87437500000013,
          "velocity": 0.7874015748031497,
          "duration": 0.48527500000000146
        },
        {
          "name": "A7",
          "midi": 105,
          "time": 232.24612500000012,
          "velocity": 0.7874015748031497,
          "duration": 2.5672375000000045
        },
        {
          "name": "G#8",
          "midi": 116,
          "time": 232.24612500000012,
          "velocity": 0.7874015748031497,
          "duration": 2.5672375000000045
        },
        {
          "name": "G2",
          "midi": 43,
          "time": 232.24612500000012,
          "velocity": 0.7874015748031497,
          "duration": 0.021387500000003
        },
        {
          "name": "A2",
          "midi": 45,
          "time": 232.48950000000013,
          "velocity": 0.7874015748031497,
          "duration": 0.8621374999999887
        },
        {
          "name": "D3",
          "midi": 50,
          "time": 233.66212500000012,
          "velocity": 0.7874015748031497,
          "duration": 0.021387500000003
        },
        {
          "name": "E3",
          "midi": 52,
          "time": 233.90550000000013,
          "velocity": 0.7874015748031497,
          "duration": 0.9078624999999931
        },
        {
          "name": "A7",
          "midi": 105,
          "time": 239.30400000000012,
          "velocity": 0.7874015748031497,
          "duration": 2.3894999999999698
        },
        {
          "name": "D3",
          "midi": 50,
          "time": 239.30768750000013,
          "velocity": 0.7874015748031497,
          "duration": 0.08407500000001278
        },
        {
          "name": "C#3",
          "midi": 49,
          "time": 239.50386250000014,
          "velocity": 0.7874015748031497,
          "duration": 0.08776249999999663
        },
        {
          "name": "D3",
          "midi": 50,
          "time": 239.83500000000012,
          "velocity": 0.7874015748031497,
          "duration": 0.08776249999999663
        },
        {
          "name": "D3",
          "midi": 50,
          "time": 240.0120000000001,
          "velocity": 0.7874015748031497,
          "duration": 0.08776249999999663
        },
        {
          "name": "D3",
          "midi": 50,
          "time": 240.1890000000001,
          "velocity": 0.7874015748031497,
          "duration": 0.08776249999999663
        },
        {
          "name": "D3",
          "midi": 50,
          "time": 240.3660000000001,
          "velocity": 0.7874015748031497,
          "duration": 0.08776249999999663
        },
        {
          "name": "B2",
          "midi": 47,
          "time": 240.5430000000001,
          "velocity": 0.7874015748031497,
          "duration": 0.08776249999999663
        },
        {
          "name": "D3",
          "midi": 50,
          "time": 240.72000000000008,
          "velocity": 0.7874015748031497,
          "duration": 0.13201250000000186
        },
        {
          "name": "D3",
          "midi": 50,
          "time": 241.0740000000001,
          "velocity": 0.7874015748031497,
          "duration": 0.1548750000000041
        },
        {
          "name": "D#3",
          "midi": 51,
          "time": 241.3844875000001,
          "velocity": 0.7874015748031497,
          "duration": 0.021387500000003
        },
        {
          "name": "E3",
          "midi": 52,
          "time": 241.4943750000001,
          "velocity": 0.7874015748031497,
          "duration": 0.022124999999988404
        },
        {
          "name": "E3",
          "midi": 52,
          "time": 241.6057375000001,
          "velocity": 0.7874015748031497,
          "duration": 0.08776249999999663
        },
        {
          "name": "A7",
          "midi": 105,
          "time": 241.7591375000001,
          "velocity": 0.7874015748031497,
          "duration": 2.744237500000054
        },
        {
          "name": "E3",
          "midi": 52,
          "time": 241.7628250000001,
          "velocity": 0.7874015748031497,
          "duration": 0.08481249999999818
        },
        {
          "name": "E3",
          "midi": 52,
          "time": 241.93613750000011,
          "velocity": 0.7874015748031497,
          "duration": 0.08850000000001046
        },
        {
          "name": "G3",
          "midi": 55,
          "time": 242.13600000000014,
          "velocity": 0.7874015748031497,
          "duration": 0.13201250000000186
        },
        {
          "name": "G3",
          "midi": 55,
          "time": 242.37937500000015,
          "velocity": 0.7874015748031497,
          "duration": 0.13201250000000186
        },
        {
          "name": "A3",
          "midi": 57,
          "time": 242.71125000000015,
          "velocity": 0.7874015748031497,
          "duration": 0.021387500000003
        },
        {
          "name": "E3",
          "midi": 52,
          "time": 242.97675000000015,
          "velocity": 0.7874015748031497,
          "duration": 0.022124999999988404
        },
        {
          "name": "D3",
          "midi": 50,
          "time": 243.06598750000015,
          "velocity": 0.7874015748031497,
          "duration": 0.08776249999999663
        },
        {
          "name": "D3",
          "midi": 50,
          "time": 243.17587500000013,
          "velocity": 0.7874015748031497,
          "duration": 0.08776249999999663
        },
        {
          "name": "E3",
          "midi": 52,
          "time": 243.35361250000014,
          "velocity": 0.7874015748031497,
          "duration": 0.08776249999999663
        },
        {
          "name": "E3",
          "midi": 52,
          "time": 243.48488750000013,
          "velocity": 0.7874015748031497,
          "duration": 0.08776249999999663
        },
        {
          "name": "E3",
          "midi": 52,
          "time": 243.61763750000011,
          "velocity": 0.7874015748031497,
          "duration": 0.08850000000001046
        },
        {
          "name": "D3",
          "midi": 50,
          "time": 243.79463750000014,
          "velocity": 0.7874015748031497,
          "duration": 0.08850000000001046
        },
        {
          "name": "G3",
          "midi": 55,
          "time": 244.23713750000016,
          "velocity": 0.7874015748031497,
          "duration": 0.022124999999988404
        },
        {
          "name": "E3",
          "midi": 52,
          "time": 244.48125000000016,
          "velocity": 0.7874015748031497,
          "duration": 0.022124999999988404
        },
        {
          "name": "A7",
          "midi": 105,
          "time": 244.63612500000013,
          "velocity": 0.7874015748031497,
          "duration": 3.5606500000000096
        },
        {
          "name": "D3",
          "midi": 50,
          "time": 244.63981250000015,
          "velocity": 0.7874015748031497,
          "duration": 0.08481249999999818
        },
        {
          "name": "D3",
          "midi": 50,
          "time": 244.79173750000015,
          "velocity": 0.7874015748031497,
          "duration": 0.08776249999999663
        },
        {
          "name": "E3",
          "midi": 52,
          "time": 245.01151250000015,
          "velocity": 0.7874015748031497,
          "duration": 0.08850000000001046
        },
        {
          "name": "E3",
          "midi": 52,
          "time": 245.23276250000015,
          "velocity": 0.7874015748031497,
          "duration": 0.22051250000001232
        },
        {
          "name": "E3",
          "midi": 52,
          "time": 245.72098750000015,
          "velocity": 0.7874015748031497,
          "duration": 0.15413749999999027
        },
        {
          "name": "D3",
          "midi": 50,
          "time": 246.00787500000013,
          "velocity": 0.7874015748031497,
          "duration": 0.08850000000001046
        },
        {
          "name": "E3",
          "midi": 52,
          "time": 246.25125000000014,
          "velocity": 0.7874015748031497,
          "duration": 0.08776249999999663
        },
        {
          "name": "D3",
          "midi": 50,
          "time": 246.56026250000014,
          "velocity": 0.7874015748031497,
          "duration": 0.08850000000001046
        },
        {
          "name": "E3",
          "midi": 52,
          "time": 246.76012500000016,
          "velocity": 0.7874015748031497,
          "duration": 0.1548750000000041
        },
        {
          "name": "D#3",
          "midi": 51,
          "time": 247.11486250000016,
          "velocity": 0.7874015748031497,
          "duration": 0.022124999999988404
        },
        {
          "name": "E3",
          "midi": 52,
          "time": 247.31325000000015,
          "velocity": 0.7874015748031497,
          "duration": 0.26476249999998913
        },
        {
          "name": "E2",
          "midi": 40,
          "time": 247.84425000000013,
          "velocity": 0.7874015748031497,
          "duration": 0.3525250000000142
        }
      ],
      "controlChanges": {},
      "id": 5,
      "name": "PART VOCALS",
      "channelNumber": 0,
      "isPercussion": false
    }
  ]
}